<?xml version="1.0" encoding="utf-8" standalone="no"?>
<!DOCTYPE svg PUBLIC "-//W3C//DTD SVG 1.1//EN"
  "http://www.w3.org/Graphics/SVG/1.1/DTD/svg11.dtd">
<!-- Created with matplotlib (https://matplotlib.org/) -->
<svg height="432pt" version="1.1" viewBox="0 0 576 432" width="576pt" xmlns="http://www.w3.org/2000/svg" xmlns:xlink="http://www.w3.org/1999/xlink">
 <defs>
  <style type="text/css">
*{stroke-linecap:butt;stroke-linejoin:round;}
  </style>
 </defs>
 <g id="figure_1">
  <g id="patch_1">
   <path d="M 0 432 
L 576 432 
L 576 0 
L 0 0 
z
" style="fill:#ffffff;"/>
  </g>
  <g id="axes_1">
   <g id="patch_2">
    <path d="M 72 384.48 
L 518.4 384.48 
L 518.4 51.84 
L 72 51.84 
z
" style="fill:#ffffff;"/>
   </g>
   <g id="PolyCollection_1">
    <path clip-path="url(#p74544af122)" d="M 72 100.086667 
L 72 98.730498 
L 80.928 99.035262 
L 89.856 99.283949 
L 98.784 99.281587 
L 107.712 99.271524 
L 116.64 99.126326 
L 125.568 99.376254 
L 134.496 99.38176 
L 143.424 99.386867 
L 152.352 99.395239 
L 161.28 99.3913 
L 170.208 99.336131 
L 179.136 99.410507 
L 188.064 99.406994 
L 196.992 99.078756 
L 205.92 99.384246 
L 214.848 99.17827 
L 223.776 97.484373 
L 232.704 98.200245 
L 241.632 97.9172 
L 250.56 97.409562 
L 259.488 97.147574 
L 268.416 97.09956 
L 277.344 97.151225 
L 286.272 96.867117 
L 295.2 96.432679 
L 304.128 96.144769 
L 313.056 96.198987 
L 321.984 96.256668 
L 330.912 93.604851 
L 339.84 95.441056 
L 348.768 92.758186 
L 357.696 95.635348 
L 366.624 93.159046 
L 375.552 94.459258 
L 384.48 92.577584 
L 393.408 95.267534 
L 402.336 93.716647 
L 411.264 88.495024 
L 420.192 90.275318 
L 429.12 93.951693 
L 438.048 93.530146 
L 446.976 92.592494 
L 455.904 91.343368 
L 464.832 91.323535 
L 473.76 89.352646 
L 482.688 90.293697 
L 491.616 84.297621 
L 500.544 90.268209 
L 509.472 88.227445 
L 518.4 90.942258 
L 518.4 99.706702 
L 518.4 99.706702 
L 509.472 98.682618 
L 500.544 100.226302 
L 491.616 99.707706 
L 482.688 99.102509 
L 473.76 100.628436 
L 464.832 99.740565 
L 455.904 99.395746 
L 446.976 98.967475 
L 438.048 98.981686 
L 429.12 99.510102 
L 420.192 100.011301 
L 411.264 99.590862 
L 402.336 99.56608 
L 393.408 100.028665 
L 384.48 100.191965 
L 375.552 98.691512 
L 366.624 100.263587 
L 357.696 100.130317 
L 348.768 100.144848 
L 339.84 99.108388 
L 330.912 100.595926 
L 321.984 99.139857 
L 313.056 99.238668 
L 304.128 99.401981 
L 295.2 99.506167 
L 286.272 99.657684 
L 277.344 99.848658 
L 268.416 100.001197 
L 259.488 100.070355 
L 250.56 100.165504 
L 241.632 100.14727 
L 232.704 100.150241 
L 223.776 100.771808 
L 214.848 100.176104 
L 205.92 100.118658 
L 196.992 100.177105 
L 188.064 99.644227 
L 179.136 99.665768 
L 170.208 99.67317 
L 161.28 99.659905 
L 152.352 99.662015 
L 143.424 99.652108 
L 134.496 99.677189 
L 125.568 99.669555 
L 116.64 99.829089 
L 107.712 99.715948 
L 98.784 99.72741 
L 89.856 99.721493 
L 80.928 99.856098 
L 72 100.086667 
z
" style="fill:#1f77b4;fill-opacity:0.3;"/>
   </g>
   <g id="PolyCollection_2">
    <path clip-path="url(#p74544af122)" d="M 72 101.122024 
L 72 96.414408 
L 80.928 95.489505 
L 89.856 91.630157 
L 98.784 91.655971 
L 107.712 93.788855 
L 116.64 94.586326 
L 125.568 94.74669 
L 134.496 94.577998 
L 143.424 95.679827 
L 152.352 96.001087 
L 161.28 97.479702 
L 170.208 99.278026 
L 179.136 102.404154 
L 188.064 104.658118 
L 196.992 106.673454 
L 205.92 107.07953 
L 214.848 112.310393 
L 223.776 118.196928 
L 232.704 136.370095 
L 241.632 149.75761 
L 250.56 159.466733 
L 259.488 170.070232 
L 268.416 178.449407 
L 277.344 190.314472 
L 286.272 207.794348 
L 295.2 217.153703 
L 304.128 226.281612 
L 313.056 242.151929 
L 321.984 267.196614 
L 330.912 279.093055 
L 339.84 283.625864 
L 348.768 288.442485 
L 357.696 292.592605 
L 366.624 303.044734 
L 375.552 308.680945 
L 384.48 309.573955 
L 393.408 309.949781 
L 402.336 310.27287 
L 411.264 309.984203 
L 420.192 310.122261 
L 429.12 310.55547 
L 438.048 310.592547 
L 446.976 310.56069 
L 455.904 310.70028 
L 464.832 310.898373 
L 473.76 310.918411 
L 482.688 311.06216 
L 491.616 311.142879 
L 500.544 311.425164 
L 509.472 311.598773 
L 518.4 311.70829 
L 518.4 338.118139 
L 518.4 338.118139 
L 509.472 337.707888 
L 500.544 336.957222 
L 491.616 336.605319 
L 482.688 336.435264 
L 473.76 336.232469 
L 464.832 335.197575 
L 455.904 334.310071 
L 446.976 333.876751 
L 438.048 332.794887 
L 429.12 331.980999 
L 420.192 330.991547 
L 411.264 330.422641 
L 402.336 327.113726 
L 393.408 326.230253 
L 384.48 325.327924 
L 375.552 323.623861 
L 366.624 315.339377 
L 357.696 303.9361 
L 348.768 299.980687 
L 339.84 295.509304 
L 330.912 294.239759 
L 321.984 290.126321 
L 313.056 271.822036 
L 304.128 248.720631 
L 295.2 233.269618 
L 286.272 224.392992 
L 277.344 209.491544 
L 268.416 199.316361 
L 259.488 188.41258 
L 250.56 175.54626 
L 241.632 169.739691 
L 232.704 157.59411 
L 223.776 144.671529 
L 214.848 133.54828 
L 205.92 127.62135 
L 196.992 120.586324 
L 188.064 115.597354 
L 179.136 113.90902 
L 170.208 108.680144 
L 161.28 106.178309 
L 152.352 104.92431 
L 143.424 104.47378 
L 134.496 100.662758 
L 125.568 100.022081 
L 116.64 99.074905 
L 107.712 99.694781 
L 98.784 100.387113 
L 89.856 100.018763 
L 80.928 101.819727 
L 72 101.122024 
z
" style="fill:#ff7f0e;fill-opacity:0.3;"/>
   </g>
   <g id="PolyCollection_3">
    <path clip-path="url(#p74544af122)" d="M 72 101.266624 
L 72 98.02169 
L 80.928 89.155393 
L 89.856 88.901509 
L 98.784 92.483399 
L 107.712 97.075181 
L 116.64 97.609496 
L 125.568 97.715658 
L 134.496 98.566628 
L 143.424 97.731261 
L 152.352 100.049513 
L 161.28 104.201639 
L 170.208 108.245366 
L 179.136 111.500697 
L 188.064 115.929728 
L 196.992 117.367597 
L 205.92 119.570876 
L 214.848 121.91481 
L 223.776 123.37518 
L 232.704 123.657226 
L 241.632 123.927581 
L 250.56 124.161101 
L 259.488 124.395137 
L 268.416 124.646874 
L 277.344 125.04105 
L 286.272 125.457532 
L 295.2 126.247991 
L 304.128 128.087967 
L 313.056 130.361321 
L 321.984 131.3993 
L 330.912 133.388541 
L 339.84 136.543869 
L 348.768 137.713101 
L 357.696 138.061098 
L 366.624 138.028844 
L 375.552 138.486893 
L 384.48 138.815038 
L 393.408 139.431289 
L 402.336 139.74385 
L 411.264 140.65834 
L 420.192 141.270883 
L 429.12 142.014704 
L 438.048 142.969197 
L 446.976 143.436833 
L 455.904 144.419548 
L 464.832 145.041491 
L 473.76 145.722862 
L 482.688 146.32268 
L 491.616 146.94142 
L 500.544 147.679311 
L 509.472 148.527517 
L 518.4 150.165628 
L 518.4 164.504264 
L 518.4 164.504264 
L 509.472 163.402645 
L 500.544 161.816016 
L 491.616 159.803047 
L 482.688 157.662996 
L 473.76 155.334105 
L 464.832 153.496991 
L 455.904 151.987954 
L 446.976 151.117045 
L 438.048 150.273085 
L 429.12 149.82145 
L 420.192 149.330494 
L 411.264 149.024104 
L 402.336 148.419298 
L 393.408 147.796196 
L 384.48 145.872427 
L 375.552 145.297045 
L 366.624 143.721559 
L 357.696 142.932279 
L 348.768 142.102381 
L 339.84 141.58968 
L 330.912 141.541394 
L 321.984 140.948233 
L 313.056 140.530889 
L 304.128 140.481608 
L 295.2 140.391346 
L 286.272 139.797028 
L 277.344 139.132183 
L 268.416 138.270836 
L 259.488 137.384121 
L 250.56 136.540968 
L 241.632 135.601778 
L 232.704 134.672465 
L 223.776 133.796326 
L 214.848 133.463254 
L 205.92 133.135338 
L 196.992 133.384156 
L 188.064 133.149402 
L 179.136 133.384002 
L 170.208 133.179024 
L 161.28 129.436681 
L 152.352 121.636168 
L 143.424 112.525991 
L 134.496 104.577499 
L 125.568 101.718318 
L 116.64 101.148079 
L 107.712 100.569861 
L 98.784 98.710308 
L 89.856 97.935405 
L 80.928 97.55217 
L 72 101.266624 
z
" style="fill:#2ca02c;fill-opacity:0.3;"/>
   </g>
   <g id="PolyCollection_4">
    <path clip-path="url(#p74544af122)" d="M 72 101.962631 
L 72 96.913905 
L 80.928 92.987115 
L 89.856 91.199611 
L 98.784 92.708912 
L 107.712 94.984141 
L 116.64 96.661665 
L 125.568 98.534016 
L 134.496 98.450402 
L 143.424 98.319166 
L 152.352 98.011159 
L 161.28 101.048075 
L 170.208 102.251206 
L 179.136 106.824986 
L 188.064 107.905645 
L 196.992 110.124223 
L 205.92 111.139765 
L 214.848 111.653043 
L 223.776 113.320854 
L 232.704 115.791062 
L 241.632 118.215076 
L 250.56 122.714821 
L 259.488 124.903821 
L 268.416 130.162611 
L 277.344 133.660134 
L 286.272 136.251261 
L 295.2 139.600887 
L 304.128 144.106211 
L 313.056 151.07553 
L 321.984 156.809229 
L 330.912 163.526852 
L 339.84 169.378371 
L 348.768 173.843433 
L 357.696 176.817572 
L 366.624 177.895935 
L 375.552 179.035585 
L 384.48 180.601204 
L 393.408 182.009187 
L 402.336 182.632221 
L 411.264 184.14806 
L 420.192 184.771146 
L 429.12 185.994786 
L 438.048 186.848278 
L 446.976 188.352748 
L 455.904 190.058246 
L 464.832 192.662924 
L 473.76 193.537588 
L 482.688 195.456693 
L 491.616 198.568279 
L 500.544 201.263156 
L 509.472 202.948515 
L 518.4 204.268375 
L 518.4 222.061196 
L 518.4 222.061196 
L 509.472 219.718578 
L 500.544 217.587383 
L 491.616 213.730288 
L 482.688 211.890693 
L 473.76 209.07025 
L 464.832 208.195298 
L 455.904 206.910752 
L 446.976 205.183195 
L 438.048 203.111357 
L 429.12 201.292855 
L 420.192 200.000403 
L 411.264 198.318246 
L 402.336 196.696802 
L 393.408 194.628061 
L 384.48 191.76464 
L 375.552 189.74359 
L 366.624 187.860465 
L 357.696 185.982826 
L 348.768 184.522972 
L 339.84 180.696859 
L 330.912 177.729022 
L 321.984 174.120216 
L 313.056 170.648497 
L 304.128 167.141777 
L 295.2 162.868599 
L 286.272 158.763588 
L 277.344 151.79257 
L 268.416 147.618051 
L 259.488 143.399112 
L 250.56 141.03353 
L 241.632 137.786866 
L 232.704 135.310445 
L 223.776 133.658245 
L 214.848 128.396949 
L 205.92 126.054307 
L 196.992 122.939869 
L 188.064 121.269023 
L 179.136 118.716844 
L 170.208 115.554092 
L 161.28 113.503653 
L 152.352 107.301937 
L 143.424 104.407269 
L 134.496 104.52714 
L 125.568 104.131086 
L 116.64 102.691751 
L 107.712 102.095298 
L 98.784 98.937687 
L 89.856 99.732982 
L 80.928 102.676249 
L 72 101.962631 
z
" style="fill:#d62728;fill-opacity:0.3;"/>
   </g>
   <g id="PolyCollection_5">
    <path clip-path="url(#p74544af122)" d="M 72 102.388596 
L 72 96.126097 
L 80.928 96.43426 
L 89.856 93.507806 
L 98.784 93.590813 
L 107.712 94.604594 
L 116.64 96.184991 
L 125.568 97.349975 
L 134.496 97.568495 
L 143.424 97.810807 
L 152.352 98.803207 
L 161.28 100.248892 
L 170.208 100.873367 
L 179.136 102.966518 
L 188.064 105.935734 
L 196.992 106.961304 
L 205.92 109.024584 
L 214.848 110.711849 
L 223.776 116.735852 
L 232.704 122.173741 
L 241.632 126.442602 
L 250.56 132.315912 
L 259.488 137.752576 
L 268.416 142.055776 
L 277.344 146.433526 
L 286.272 150.458577 
L 295.2 157.793184 
L 304.128 165.974346 
L 313.056 171.079116 
L 321.984 177.32317 
L 330.912 183.07709 
L 339.84 186.806407 
L 348.768 190.224801 
L 357.696 193.79494 
L 366.624 197.09358 
L 375.552 200.026533 
L 384.48 202.448331 
L 393.408 205.226807 
L 402.336 209.451016 
L 411.264 215.347712 
L 420.192 218.959399 
L 429.12 221.021398 
L 438.048 223.897795 
L 446.976 225.407802 
L 455.904 228.064563 
L 464.832 229.802097 
L 473.76 231.198531 
L 482.688 232.998237 
L 491.616 234.608861 
L 500.544 236.346355 
L 509.472 238.143125 
L 518.4 238.976835 
L 518.4 252.898942 
L 518.4 252.898942 
L 509.472 252.039792 
L 500.544 250.662782 
L 491.616 249.598489 
L 482.688 248.147255 
L 473.76 245.089054 
L 464.832 242.051144 
L 455.904 239.593956 
L 446.976 237.53123 
L 438.048 235.501101 
L 429.12 233.184638 
L 420.192 229.835475 
L 411.264 227.756931 
L 402.336 224.962827 
L 393.408 221.791478 
L 384.48 217.992683 
L 375.552 216.539756 
L 366.624 214.072219 
L 357.696 210.684631 
L 348.768 207.346831 
L 339.84 201.466846 
L 330.912 198.816485 
L 321.984 193.273143 
L 313.056 188.132348 
L 304.128 183.148076 
L 295.2 178.954321 
L 286.272 173.703667 
L 277.344 170.526024 
L 268.416 164.199338 
L 259.488 158.854603 
L 250.56 152.692236 
L 241.632 144.963016 
L 232.704 141.037227 
L 223.776 134.329373 
L 214.848 129.582823 
L 205.92 126.066169 
L 196.992 122.158192 
L 188.064 118.766672 
L 179.136 116.591193 
L 170.208 111.425362 
L 161.28 109.3366 
L 152.352 107.26292 
L 143.424 104.812928 
L 134.496 103.330807 
L 125.568 102.677443 
L 116.64 101.953397 
L 107.712 101.898884 
L 98.784 100.632646 
L 89.856 101.359696 
L 80.928 103.487778 
L 72 102.388596 
z
" style="fill:#9467bd;fill-opacity:0.3;"/>
   </g>
   <g id="PolyCollection_6">
    <path clip-path="url(#p74544af122)" d="M 72 100.032305 
L 72 98.880102 
L 80.928 94.25526 
L 89.856 92.645174 
L 98.784 95.571496 
L 107.712 97.15161 
L 116.64 97.926745 
L 125.568 98.288984 
L 134.496 98.20046 
L 143.424 100.45423 
L 152.352 100.691634 
L 161.28 101.310712 
L 170.208 101.700923 
L 179.136 102.11295 
L 188.064 102.005735 
L 196.992 102.021558 
L 205.92 102.153121 
L 214.848 101.641391 
L 223.776 101.365916 
L 232.704 100.914551 
L 241.632 100.178903 
L 250.56 99.807292 
L 259.488 99.475529 
L 268.416 100.943779 
L 277.344 103.340915 
L 286.272 106.780721 
L 295.2 121.484299 
L 304.128 221.339121 
L 313.056 239.498098 
L 321.984 264.730112 
L 330.912 284.944022 
L 339.84 288.784009 
L 348.768 289.720935 
L 357.696 293.142697 
L 366.624 301.776635 
L 375.552 309.029292 
L 384.48 311.630585 
L 393.408 312.264148 
L 402.336 312.987488 
L 411.264 301.53771 
L 420.192 304.036079 
L 429.12 314.672455 
L 438.048 309.748987 
L 446.976 296.183401 
L 455.904 302.841921 
L 464.832 303.221091 
L 473.76 303.552574 
L 482.688 301.306892 
L 491.616 291.454539 
L 500.544 304.242155 
L 509.472 295.560604 
L 518.4 288.815053 
L 518.4 352.247131 
L 518.4 352.247131 
L 509.472 351.267361 
L 500.544 350.420928 
L 491.616 350.981658 
L 482.688 347.782939 
L 473.76 347.444497 
L 464.832 348.63712 
L 455.904 345.354015 
L 446.976 347.883488 
L 438.048 339.473397 
L 429.12 337.967782 
L 420.192 340.67372 
L 411.264 339.133762 
L 402.336 331.736639 
L 393.408 329.330228 
L 384.48 326.77939 
L 375.552 321.865272 
L 366.624 316.057427 
L 357.696 303.746162 
L 348.768 299.060132 
L 339.84 297.37832 
L 330.912 297.895577 
L 321.984 287.591566 
L 313.056 268.912777 
L 304.128 247.032817 
L 295.2 216.621029 
L 286.272 148.442698 
L 277.344 135.363973 
L 268.416 127.869192 
L 259.488 120.796584 
L 250.56 118.95905 
L 241.632 113.871354 
L 232.704 109.281789 
L 223.776 107.248913 
L 214.848 105.790437 
L 205.92 104.62945 
L 196.992 105.15169 
L 188.064 104.983701 
L 179.136 104.477022 
L 170.208 104.445896 
L 161.28 104.629787 
L 152.352 104.695528 
L 143.424 104.537985 
L 134.496 103.787086 
L 125.568 103.292908 
L 116.64 102.938434 
L 107.712 101.856278 
L 98.784 101.678847 
L 89.856 101.429171 
L 80.928 101.345725 
L 72 100.032305 
z
" style="fill:#8c564b;fill-opacity:0.3;"/>
   </g>
   <g id="PolyCollection_7">
    <path clip-path="url(#p74544af122)" d="M 72 100.23633 
L 72 97.888217 
L 80.928 97.960414 
L 89.856 97.965922 
L 98.784 97.887251 
L 107.712 98.036928 
L 116.64 98.091251 
L 125.568 98.133344 
L 134.496 98.022707 
L 143.424 98.036344 
L 152.352 98.081832 
L 161.28 98.10493 
L 170.208 98.109608 
L 179.136 98.265385 
L 188.064 97.459736 
L 196.992 97.562417 
L 205.92 97.084671 
L 214.848 97.092761 
L 223.776 97.104566 
L 232.704 97.083098 
L 241.632 97.075581 
L 250.56 97.03816 
L 259.488 96.942126 
L 268.416 96.87827 
L 277.344 96.880644 
L 286.272 96.844401 
L 295.2 96.388437 
L 304.128 96.268049 
L 313.056 95.972496 
L 321.984 95.872888 
L 330.912 95.895823 
L 339.84 95.787953 
L 348.768 95.752119 
L 357.696 95.7694 
L 366.624 95.830625 
L 375.552 95.679259 
L 384.48 95.719926 
L 393.408 95.520126 
L 402.336 95.738486 
L 411.264 95.670261 
L 420.192 95.506524 
L 429.12 95.568371 
L 438.048 95.511266 
L 446.976 95.281284 
L 455.904 95.296818 
L 464.832 95.368975 
L 473.76 95.152322 
L 482.688 95.261334 
L 491.616 95.285602 
L 500.544 95.307214 
L 509.472 95.226114 
L 518.4 95.094922 
L 518.4 100.7899 
L 518.4 100.7899 
L 509.472 100.781755 
L 500.544 100.780927 
L 491.616 100.771917 
L 482.688 100.78044 
L 473.76 100.77054 
L 464.832 100.829199 
L 455.904 100.851325 
L 446.976 100.846542 
L 438.048 100.950909 
L 429.12 101.022777 
L 420.192 100.95837 
L 411.264 100.975701 
L 402.336 100.963392 
L 393.408 100.937141 
L 384.48 100.920702 
L 375.552 100.951303 
L 366.624 101.009581 
L 357.696 100.965714 
L 348.768 100.93327 
L 339.84 101.023641 
L 330.912 101.053277 
L 321.984 101.04546 
L 313.056 100.968916 
L 304.128 100.901148 
L 295.2 100.950879 
L 286.272 100.839987 
L 277.344 100.894206 
L 268.416 100.882556 
L 259.488 100.901206 
L 250.56 100.996872 
L 241.632 101.0258 
L 232.704 101.040228 
L 223.776 101.030515 
L 214.848 101.013735 
L 205.92 101.009621 
L 196.992 100.644966 
L 188.064 100.550275 
L 179.136 100.114739 
L 170.208 100.138925 
L 161.28 100.137256 
L 152.352 100.091681 
L 143.424 100.050206 
L 134.496 100.052409 
L 125.568 100.062162 
L 116.64 100.057697 
L 107.712 100.063342 
L 98.784 100.147641 
L 89.856 100.169389 
L 80.928 100.196062 
L 72 100.23633 
z
" style="fill:#e377c2;fill-opacity:0.3;"/>
   </g>
   <g id="matplotlib.axis_1">
    <g id="xtick_1">
     <g id="line2d_1">
      <path clip-path="url(#p74544af122)" d="M 72 384.48 
L 72 51.84 
" style="fill:none;stroke:#b0b0b0;stroke-linecap:square;stroke-width:0.8;"/>
     </g>
     <g id="line2d_2">
      <defs>
       <path d="M 0 0 
L 0 3.5 
" id="m2295101d59" style="stroke:#000000;stroke-width:0.8;"/>
      </defs>
      <g>
       <use style="stroke:#000000;stroke-width:0.8;" x="72" xlink:href="#m2295101d59" y="384.48"/>
      </g>
     </g>
     <g id="text_1">
      <!-- 0 -->
      <defs>
       <path d="M 31.78125 66.40625 
Q 24.171875 66.40625 20.328125 58.90625 
Q 16.5 51.421875 16.5 36.375 
Q 16.5 21.390625 20.328125 13.890625 
Q 24.171875 6.390625 31.78125 6.390625 
Q 39.453125 6.390625 43.28125 13.890625 
Q 47.125 21.390625 47.125 36.375 
Q 47.125 51.421875 43.28125 58.90625 
Q 39.453125 66.40625 31.78125 66.40625 
z
M 31.78125 74.21875 
Q 44.046875 74.21875 50.515625 64.515625 
Q 56.984375 54.828125 56.984375 36.375 
Q 56.984375 17.96875 50.515625 8.265625 
Q 44.046875 -1.421875 31.78125 -1.421875 
Q 19.53125 -1.421875 13.0625 8.265625 
Q 6.59375 17.96875 6.59375 36.375 
Q 6.59375 54.828125 13.0625 64.515625 
Q 19.53125 74.21875 31.78125 74.21875 
z
" id="DejaVuSans-48"/>
      </defs>
      <g transform="translate(68.81875 399.078438)scale(0.1 -0.1)">
       <use xlink:href="#DejaVuSans-48"/>
      </g>
     </g>
    </g>
    <g id="xtick_2">
     <g id="line2d_3">
      <path clip-path="url(#p74544af122)" d="M 161.28 384.48 
L 161.28 51.84 
" style="fill:none;stroke:#b0b0b0;stroke-linecap:square;stroke-width:0.8;"/>
     </g>
     <g id="line2d_4">
      <g>
       <use style="stroke:#000000;stroke-width:0.8;" x="161.28" xlink:href="#m2295101d59" y="384.48"/>
      </g>
     </g>
     <g id="text_2">
      <!-- 10 -->
      <defs>
       <path d="M 12.40625 8.296875 
L 28.515625 8.296875 
L 28.515625 63.921875 
L 10.984375 60.40625 
L 10.984375 69.390625 
L 28.421875 72.90625 
L 38.28125 72.90625 
L 38.28125 8.296875 
L 54.390625 8.296875 
L 54.390625 0 
L 12.40625 0 
z
" id="DejaVuSans-49"/>
      </defs>
      <g transform="translate(154.9175 399.078438)scale(0.1 -0.1)">
       <use xlink:href="#DejaVuSans-49"/>
       <use x="63.623047" xlink:href="#DejaVuSans-48"/>
      </g>
     </g>
    </g>
    <g id="xtick_3">
     <g id="line2d_5">
      <path clip-path="url(#p74544af122)" d="M 250.56 384.48 
L 250.56 51.84 
" style="fill:none;stroke:#b0b0b0;stroke-linecap:square;stroke-width:0.8;"/>
     </g>
     <g id="line2d_6">
      <g>
       <use style="stroke:#000000;stroke-width:0.8;" x="250.56" xlink:href="#m2295101d59" y="384.48"/>
      </g>
     </g>
     <g id="text_3">
      <!-- 20 -->
      <defs>
       <path d="M 19.1875 8.296875 
L 53.609375 8.296875 
L 53.609375 0 
L 7.328125 0 
L 7.328125 8.296875 
Q 12.9375 14.109375 22.625 23.890625 
Q 32.328125 33.6875 34.8125 36.53125 
Q 39.546875 41.84375 41.421875 45.53125 
Q 43.3125 49.21875 43.3125 52.78125 
Q 43.3125 58.59375 39.234375 62.25 
Q 35.15625 65.921875 28.609375 65.921875 
Q 23.96875 65.921875 18.8125 64.3125 
Q 13.671875 62.703125 7.8125 59.421875 
L 7.8125 69.390625 
Q 13.765625 71.78125 18.9375 73 
Q 24.125 74.21875 28.421875 74.21875 
Q 39.75 74.21875 46.484375 68.546875 
Q 53.21875 62.890625 53.21875 53.421875 
Q 53.21875 48.921875 51.53125 44.890625 
Q 49.859375 40.875 45.40625 35.40625 
Q 44.1875 33.984375 37.640625 27.21875 
Q 31.109375 20.453125 19.1875 8.296875 
z
" id="DejaVuSans-50"/>
      </defs>
      <g transform="translate(244.1975 399.078438)scale(0.1 -0.1)">
       <use xlink:href="#DejaVuSans-50"/>
       <use x="63.623047" xlink:href="#DejaVuSans-48"/>
      </g>
     </g>
    </g>
    <g id="xtick_4">
     <g id="line2d_7">
      <path clip-path="url(#p74544af122)" d="M 339.84 384.48 
L 339.84 51.84 
" style="fill:none;stroke:#b0b0b0;stroke-linecap:square;stroke-width:0.8;"/>
     </g>
     <g id="line2d_8">
      <g>
       <use style="stroke:#000000;stroke-width:0.8;" x="339.84" xlink:href="#m2295101d59" y="384.48"/>
      </g>
     </g>
     <g id="text_4">
      <!-- 30 -->
      <defs>
       <path d="M 40.578125 39.3125 
Q 47.65625 37.796875 51.625 33 
Q 55.609375 28.21875 55.609375 21.1875 
Q 55.609375 10.40625 48.1875 4.484375 
Q 40.765625 -1.421875 27.09375 -1.421875 
Q 22.515625 -1.421875 17.65625 -0.515625 
Q 12.796875 0.390625 7.625 2.203125 
L 7.625 11.71875 
Q 11.71875 9.328125 16.59375 8.109375 
Q 21.484375 6.890625 26.8125 6.890625 
Q 36.078125 6.890625 40.9375 10.546875 
Q 45.796875 14.203125 45.796875 21.1875 
Q 45.796875 27.640625 41.28125 31.265625 
Q 36.765625 34.90625 28.71875 34.90625 
L 20.21875 34.90625 
L 20.21875 43.015625 
L 29.109375 43.015625 
Q 36.375 43.015625 40.234375 45.921875 
Q 44.09375 48.828125 44.09375 54.296875 
Q 44.09375 59.90625 40.109375 62.90625 
Q 36.140625 65.921875 28.71875 65.921875 
Q 24.65625 65.921875 20.015625 65.03125 
Q 15.375 64.15625 9.8125 62.3125 
L 9.8125 71.09375 
Q 15.4375 72.65625 20.34375 73.4375 
Q 25.25 74.21875 29.59375 74.21875 
Q 40.828125 74.21875 47.359375 69.109375 
Q 53.90625 64.015625 53.90625 55.328125 
Q 53.90625 49.265625 50.4375 45.09375 
Q 46.96875 40.921875 40.578125 39.3125 
z
" id="DejaVuSans-51"/>
      </defs>
      <g transform="translate(333.4775 399.078438)scale(0.1 -0.1)">
       <use xlink:href="#DejaVuSans-51"/>
       <use x="63.623047" xlink:href="#DejaVuSans-48"/>
      </g>
     </g>
    </g>
    <g id="xtick_5">
     <g id="line2d_9">
      <path clip-path="url(#p74544af122)" d="M 429.12 384.48 
L 429.12 51.84 
" style="fill:none;stroke:#b0b0b0;stroke-linecap:square;stroke-width:0.8;"/>
     </g>
     <g id="line2d_10">
      <g>
       <use style="stroke:#000000;stroke-width:0.8;" x="429.12" xlink:href="#m2295101d59" y="384.48"/>
      </g>
     </g>
     <g id="text_5">
      <!-- 40 -->
      <defs>
       <path d="M 37.796875 64.3125 
L 12.890625 25.390625 
L 37.796875 25.390625 
z
M 35.203125 72.90625 
L 47.609375 72.90625 
L 47.609375 25.390625 
L 58.015625 25.390625 
L 58.015625 17.1875 
L 47.609375 17.1875 
L 47.609375 0 
L 37.796875 0 
L 37.796875 17.1875 
L 4.890625 17.1875 
L 4.890625 26.703125 
z
" id="DejaVuSans-52"/>
      </defs>
      <g transform="translate(422.7575 399.078438)scale(0.1 -0.1)">
       <use xlink:href="#DejaVuSans-52"/>
       <use x="63.623047" xlink:href="#DejaVuSans-48"/>
      </g>
     </g>
    </g>
    <g id="xtick_6">
     <g id="line2d_11">
      <path clip-path="url(#p74544af122)" d="M 518.4 384.48 
L 518.4 51.84 
" style="fill:none;stroke:#b0b0b0;stroke-linecap:square;stroke-width:0.8;"/>
     </g>
     <g id="line2d_12">
      <g>
       <use style="stroke:#000000;stroke-width:0.8;" x="518.4" xlink:href="#m2295101d59" y="384.48"/>
      </g>
     </g>
     <g id="text_6">
      <!-- 50 -->
      <defs>
       <path d="M 10.796875 72.90625 
L 49.515625 72.90625 
L 49.515625 64.59375 
L 19.828125 64.59375 
L 19.828125 46.734375 
Q 21.96875 47.46875 24.109375 47.828125 
Q 26.265625 48.1875 28.421875 48.1875 
Q 40.625 48.1875 47.75 41.5 
Q 54.890625 34.8125 54.890625 23.390625 
Q 54.890625 11.625 47.5625 5.09375 
Q 40.234375 -1.421875 26.90625 -1.421875 
Q 22.3125 -1.421875 17.546875 -0.640625 
Q 12.796875 0.140625 7.71875 1.703125 
L 7.71875 11.625 
Q 12.109375 9.234375 16.796875 8.0625 
Q 21.484375 6.890625 26.703125 6.890625 
Q 35.15625 6.890625 40.078125 11.328125 
Q 45.015625 15.765625 45.015625 23.390625 
Q 45.015625 31 40.078125 35.4375 
Q 35.15625 39.890625 26.703125 39.890625 
Q 22.75 39.890625 18.8125 39.015625 
Q 14.890625 38.140625 10.796875 36.28125 
z
" id="DejaVuSans-53"/>
      </defs>
      <g transform="translate(512.0375 399.078438)scale(0.1 -0.1)">
       <use xlink:href="#DejaVuSans-53"/>
       <use x="63.623047" xlink:href="#DejaVuSans-48"/>
      </g>
     </g>
    </g>
    <g id="text_7">
     <!-- Iteration -->
     <defs>
      <path d="M 9.8125 72.90625 
L 19.671875 72.90625 
L 19.671875 0 
L 9.8125 0 
z
" id="DejaVuSans-73"/>
      <path d="M 18.3125 70.21875 
L 18.3125 54.6875 
L 36.8125 54.6875 
L 36.8125 47.703125 
L 18.3125 47.703125 
L 18.3125 18.015625 
Q 18.3125 11.328125 20.140625 9.421875 
Q 21.96875 7.515625 27.59375 7.515625 
L 36.8125 7.515625 
L 36.8125 0 
L 27.59375 0 
Q 17.1875 0 13.234375 3.875 
Q 9.28125 7.765625 9.28125 18.015625 
L 9.28125 47.703125 
L 2.6875 47.703125 
L 2.6875 54.6875 
L 9.28125 54.6875 
L 9.28125 70.21875 
z
" id="DejaVuSans-116"/>
      <path d="M 56.203125 29.59375 
L 56.203125 25.203125 
L 14.890625 25.203125 
Q 15.484375 15.921875 20.484375 11.0625 
Q 25.484375 6.203125 34.421875 6.203125 
Q 39.59375 6.203125 44.453125 7.46875 
Q 49.3125 8.734375 54.109375 11.28125 
L 54.109375 2.78125 
Q 49.265625 0.734375 44.1875 -0.34375 
Q 39.109375 -1.421875 33.890625 -1.421875 
Q 20.796875 -1.421875 13.15625 6.1875 
Q 5.515625 13.8125 5.515625 26.8125 
Q 5.515625 40.234375 12.765625 48.109375 
Q 20.015625 56 32.328125 56 
Q 43.359375 56 49.78125 48.890625 
Q 56.203125 41.796875 56.203125 29.59375 
z
M 47.21875 32.234375 
Q 47.125 39.59375 43.09375 43.984375 
Q 39.0625 48.390625 32.421875 48.390625 
Q 24.90625 48.390625 20.390625 44.140625 
Q 15.875 39.890625 15.1875 32.171875 
z
" id="DejaVuSans-101"/>
      <path d="M 41.109375 46.296875 
Q 39.59375 47.171875 37.8125 47.578125 
Q 36.03125 48 33.890625 48 
Q 26.265625 48 22.1875 43.046875 
Q 18.109375 38.09375 18.109375 28.8125 
L 18.109375 0 
L 9.078125 0 
L 9.078125 54.6875 
L 18.109375 54.6875 
L 18.109375 46.1875 
Q 20.953125 51.171875 25.484375 53.578125 
Q 30.03125 56 36.53125 56 
Q 37.453125 56 38.578125 55.875 
Q 39.703125 55.765625 41.0625 55.515625 
z
" id="DejaVuSans-114"/>
      <path d="M 34.28125 27.484375 
Q 23.390625 27.484375 19.1875 25 
Q 14.984375 22.515625 14.984375 16.5 
Q 14.984375 11.71875 18.140625 8.90625 
Q 21.296875 6.109375 26.703125 6.109375 
Q 34.1875 6.109375 38.703125 11.40625 
Q 43.21875 16.703125 43.21875 25.484375 
L 43.21875 27.484375 
z
M 52.203125 31.203125 
L 52.203125 0 
L 43.21875 0 
L 43.21875 8.296875 
Q 40.140625 3.328125 35.546875 0.953125 
Q 30.953125 -1.421875 24.3125 -1.421875 
Q 15.921875 -1.421875 10.953125 3.296875 
Q 6 8.015625 6 15.921875 
Q 6 25.140625 12.171875 29.828125 
Q 18.359375 34.515625 30.609375 34.515625 
L 43.21875 34.515625 
L 43.21875 35.40625 
Q 43.21875 41.609375 39.140625 45 
Q 35.0625 48.390625 27.6875 48.390625 
Q 23 48.390625 18.546875 47.265625 
Q 14.109375 46.140625 10.015625 43.890625 
L 10.015625 52.203125 
Q 14.9375 54.109375 19.578125 55.046875 
Q 24.21875 56 28.609375 56 
Q 40.484375 56 46.34375 49.84375 
Q 52.203125 43.703125 52.203125 31.203125 
z
" id="DejaVuSans-97"/>
      <path d="M 9.421875 54.6875 
L 18.40625 54.6875 
L 18.40625 0 
L 9.421875 0 
z
M 9.421875 75.984375 
L 18.40625 75.984375 
L 18.40625 64.59375 
L 9.421875 64.59375 
z
" id="DejaVuSans-105"/>
      <path d="M 30.609375 48.390625 
Q 23.390625 48.390625 19.1875 42.75 
Q 14.984375 37.109375 14.984375 27.296875 
Q 14.984375 17.484375 19.15625 11.84375 
Q 23.34375 6.203125 30.609375 6.203125 
Q 37.796875 6.203125 41.984375 11.859375 
Q 46.1875 17.53125 46.1875 27.296875 
Q 46.1875 37.015625 41.984375 42.703125 
Q 37.796875 48.390625 30.609375 48.390625 
z
M 30.609375 56 
Q 42.328125 56 49.015625 48.375 
Q 55.71875 40.765625 55.71875 27.296875 
Q 55.71875 13.875 49.015625 6.21875 
Q 42.328125 -1.421875 30.609375 -1.421875 
Q 18.84375 -1.421875 12.171875 6.21875 
Q 5.515625 13.875 5.515625 27.296875 
Q 5.515625 40.765625 12.171875 48.375 
Q 18.84375 56 30.609375 56 
z
" id="DejaVuSans-111"/>
      <path d="M 54.890625 33.015625 
L 54.890625 0 
L 45.90625 0 
L 45.90625 32.71875 
Q 45.90625 40.484375 42.875 44.328125 
Q 39.84375 48.1875 33.796875 48.1875 
Q 26.515625 48.1875 22.3125 43.546875 
Q 18.109375 38.921875 18.109375 30.90625 
L 18.109375 0 
L 9.078125 0 
L 9.078125 54.6875 
L 18.109375 54.6875 
L 18.109375 46.1875 
Q 21.34375 51.125 25.703125 53.5625 
Q 30.078125 56 35.796875 56 
Q 45.21875 56 50.046875 50.171875 
Q 54.890625 44.34375 54.890625 33.015625 
z
" id="DejaVuSans-110"/>
     </defs>
     <g transform="translate(273.991406 412.756563)scale(0.1 -0.1)">
      <use xlink:href="#DejaVuSans-73"/>
      <use x="29.492188" xlink:href="#DejaVuSans-116"/>
      <use x="68.701172" xlink:href="#DejaVuSans-101"/>
      <use x="130.224609" xlink:href="#DejaVuSans-114"/>
      <use x="171.337891" xlink:href="#DejaVuSans-97"/>
      <use x="232.617188" xlink:href="#DejaVuSans-116"/>
      <use x="271.826172" xlink:href="#DejaVuSans-105"/>
      <use x="299.609375" xlink:href="#DejaVuSans-111"/>
      <use x="360.791016" xlink:href="#DejaVuSans-110"/>
     </g>
    </g>
   </g>
   <g id="matplotlib.axis_2">
    <g id="ytick_1">
     <g id="line2d_13">
      <path clip-path="url(#p74544af122)" d="M 72 384.48 
L 518.4 384.48 
" style="fill:none;stroke:#b0b0b0;stroke-linecap:square;stroke-width:0.8;"/>
     </g>
     <g id="line2d_14">
      <defs>
       <path d="M 0 0 
L -3.5 0 
" id="me3225f3de9" style="stroke:#000000;stroke-width:0.8;"/>
      </defs>
      <g>
       <use style="stroke:#000000;stroke-width:0.8;" x="72" xlink:href="#me3225f3de9" y="384.48"/>
      </g>
     </g>
     <g id="text_8">
      <!-- $\mathdefault{10^{-12}}$ -->
      <defs>
       <path d="M 10.59375 35.5 
L 73.1875 35.5 
L 73.1875 27.203125 
L 10.59375 27.203125 
z
" id="DejaVuSans-8722"/>
      </defs>
      <g transform="translate(37.1 388.279219)scale(0.1 -0.1)">
       <use transform="translate(0 0.765625)" xlink:href="#DejaVuSans-49"/>
       <use transform="translate(63.623047 0.765625)" xlink:href="#DejaVuSans-48"/>
       <use transform="translate(128.203125 39.046875)scale(0.7)" xlink:href="#DejaVuSans-8722"/>
       <use transform="translate(186.855469 39.046875)scale(0.7)" xlink:href="#DejaVuSans-49"/>
       <use transform="translate(231.391602 39.046875)scale(0.7)" xlink:href="#DejaVuSans-50"/>
      </g>
     </g>
    </g>
    <g id="ytick_2">
     <g id="line2d_15">
      <path clip-path="url(#p74544af122)" d="M 72 336.96 
L 518.4 336.96 
" style="fill:none;stroke:#b0b0b0;stroke-linecap:square;stroke-width:0.8;"/>
     </g>
     <g id="line2d_16">
      <g>
       <use style="stroke:#000000;stroke-width:0.8;" x="72" xlink:href="#me3225f3de9" y="336.96"/>
      </g>
     </g>
     <g id="text_9">
      <!-- $\mathdefault{10^{-10}}$ -->
      <g transform="translate(37.1 340.759219)scale(0.1 -0.1)">
       <use transform="translate(0 0.765625)" xlink:href="#DejaVuSans-49"/>
       <use transform="translate(63.623047 0.765625)" xlink:href="#DejaVuSans-48"/>
       <use transform="translate(128.203125 39.046875)scale(0.7)" xlink:href="#DejaVuSans-8722"/>
       <use transform="translate(186.855469 39.046875)scale(0.7)" xlink:href="#DejaVuSans-49"/>
       <use transform="translate(231.391602 39.046875)scale(0.7)" xlink:href="#DejaVuSans-48"/>
      </g>
     </g>
    </g>
    <g id="ytick_3">
     <g id="line2d_17">
      <path clip-path="url(#p74544af122)" d="M 72 289.44 
L 518.4 289.44 
" style="fill:none;stroke:#b0b0b0;stroke-linecap:square;stroke-width:0.8;"/>
     </g>
     <g id="line2d_18">
      <g>
       <use style="stroke:#000000;stroke-width:0.8;" x="72" xlink:href="#me3225f3de9" y="289.44"/>
      </g>
     </g>
     <g id="text_10">
      <!-- $\mathdefault{10^{-8}}$ -->
      <defs>
       <path d="M 31.78125 34.625 
Q 24.75 34.625 20.71875 30.859375 
Q 16.703125 27.09375 16.703125 20.515625 
Q 16.703125 13.921875 20.71875 10.15625 
Q 24.75 6.390625 31.78125 6.390625 
Q 38.8125 6.390625 42.859375 10.171875 
Q 46.921875 13.96875 46.921875 20.515625 
Q 46.921875 27.09375 42.890625 30.859375 
Q 38.875 34.625 31.78125 34.625 
z
M 21.921875 38.8125 
Q 15.578125 40.375 12.03125 44.71875 
Q 8.5 49.078125 8.5 55.328125 
Q 8.5 64.0625 14.71875 69.140625 
Q 20.953125 74.21875 31.78125 74.21875 
Q 42.671875 74.21875 48.875 69.140625 
Q 55.078125 64.0625 55.078125 55.328125 
Q 55.078125 49.078125 51.53125 44.71875 
Q 48 40.375 41.703125 38.8125 
Q 48.828125 37.15625 52.796875 32.3125 
Q 56.78125 27.484375 56.78125 20.515625 
Q 56.78125 9.90625 50.3125 4.234375 
Q 43.84375 -1.421875 31.78125 -1.421875 
Q 19.734375 -1.421875 13.25 4.234375 
Q 6.78125 9.90625 6.78125 20.515625 
Q 6.78125 27.484375 10.78125 32.3125 
Q 14.796875 37.15625 21.921875 38.8125 
z
M 18.3125 54.390625 
Q 18.3125 48.734375 21.84375 45.5625 
Q 25.390625 42.390625 31.78125 42.390625 
Q 38.140625 42.390625 41.71875 45.5625 
Q 45.3125 48.734375 45.3125 54.390625 
Q 45.3125 60.0625 41.71875 63.234375 
Q 38.140625 66.40625 31.78125 66.40625 
Q 25.390625 66.40625 21.84375 63.234375 
Q 18.3125 60.0625 18.3125 54.390625 
z
" id="DejaVuSans-56"/>
      </defs>
      <g transform="translate(41.5 293.239219)scale(0.1 -0.1)">
       <use transform="translate(0 0.765625)" xlink:href="#DejaVuSans-49"/>
       <use transform="translate(63.623047 0.765625)" xlink:href="#DejaVuSans-48"/>
       <use transform="translate(128.203125 39.046875)scale(0.7)" xlink:href="#DejaVuSans-8722"/>
       <use transform="translate(186.855469 39.046875)scale(0.7)" xlink:href="#DejaVuSans-56"/>
      </g>
     </g>
    </g>
    <g id="ytick_4">
     <g id="line2d_19">
      <path clip-path="url(#p74544af122)" d="M 72 241.92 
L 518.4 241.92 
" style="fill:none;stroke:#b0b0b0;stroke-linecap:square;stroke-width:0.8;"/>
     </g>
     <g id="line2d_20">
      <g>
       <use style="stroke:#000000;stroke-width:0.8;" x="72" xlink:href="#me3225f3de9" y="241.92"/>
      </g>
     </g>
     <g id="text_11">
      <!-- $\mathdefault{10^{-6}}$ -->
      <defs>
       <path d="M 33.015625 40.375 
Q 26.375 40.375 22.484375 35.828125 
Q 18.609375 31.296875 18.609375 23.390625 
Q 18.609375 15.53125 22.484375 10.953125 
Q 26.375 6.390625 33.015625 6.390625 
Q 39.65625 6.390625 43.53125 10.953125 
Q 47.40625 15.53125 47.40625 23.390625 
Q 47.40625 31.296875 43.53125 35.828125 
Q 39.65625 40.375 33.015625 40.375 
z
M 52.59375 71.296875 
L 52.59375 62.3125 
Q 48.875 64.0625 45.09375 64.984375 
Q 41.3125 65.921875 37.59375 65.921875 
Q 27.828125 65.921875 22.671875 59.328125 
Q 17.53125 52.734375 16.796875 39.40625 
Q 19.671875 43.65625 24.015625 45.921875 
Q 28.375 48.1875 33.59375 48.1875 
Q 44.578125 48.1875 50.953125 41.515625 
Q 57.328125 34.859375 57.328125 23.390625 
Q 57.328125 12.15625 50.6875 5.359375 
Q 44.046875 -1.421875 33.015625 -1.421875 
Q 20.359375 -1.421875 13.671875 8.265625 
Q 6.984375 17.96875 6.984375 36.375 
Q 6.984375 53.65625 15.1875 63.9375 
Q 23.390625 74.21875 37.203125 74.21875 
Q 40.921875 74.21875 44.703125 73.484375 
Q 48.484375 72.75 52.59375 71.296875 
z
" id="DejaVuSans-54"/>
      </defs>
      <g transform="translate(41.5 245.719219)scale(0.1 -0.1)">
       <use transform="translate(0 0.765625)" xlink:href="#DejaVuSans-49"/>
       <use transform="translate(63.623047 0.765625)" xlink:href="#DejaVuSans-48"/>
       <use transform="translate(128.203125 39.046875)scale(0.7)" xlink:href="#DejaVuSans-8722"/>
       <use transform="translate(186.855469 39.046875)scale(0.7)" xlink:href="#DejaVuSans-54"/>
      </g>
     </g>
    </g>
    <g id="ytick_5">
     <g id="line2d_21">
      <path clip-path="url(#p74544af122)" d="M 72 194.4 
L 518.4 194.4 
" style="fill:none;stroke:#b0b0b0;stroke-linecap:square;stroke-width:0.8;"/>
     </g>
     <g id="line2d_22">
      <g>
       <use style="stroke:#000000;stroke-width:0.8;" x="72" xlink:href="#me3225f3de9" y="194.4"/>
      </g>
     </g>
     <g id="text_12">
      <!-- $\mathdefault{10^{-4}}$ -->
      <g transform="translate(41.5 198.199219)scale(0.1 -0.1)">
       <use transform="translate(0 0.684375)" xlink:href="#DejaVuSans-49"/>
       <use transform="translate(63.623047 0.684375)" xlink:href="#DejaVuSans-48"/>
       <use transform="translate(128.203125 38.965625)scale(0.7)" xlink:href="#DejaVuSans-8722"/>
       <use transform="translate(186.855469 38.965625)scale(0.7)" xlink:href="#DejaVuSans-52"/>
      </g>
     </g>
    </g>
    <g id="ytick_6">
     <g id="line2d_23">
      <path clip-path="url(#p74544af122)" d="M 72 146.88 
L 518.4 146.88 
" style="fill:none;stroke:#b0b0b0;stroke-linecap:square;stroke-width:0.8;"/>
     </g>
     <g id="line2d_24">
      <g>
       <use style="stroke:#000000;stroke-width:0.8;" x="72" xlink:href="#me3225f3de9" y="146.88"/>
      </g>
     </g>
     <g id="text_13">
      <!-- $\mathdefault{10^{-2}}$ -->
      <g transform="translate(41.5 150.679219)scale(0.1 -0.1)">
       <use transform="translate(0 0.765625)" xlink:href="#DejaVuSans-49"/>
       <use transform="translate(63.623047 0.765625)" xlink:href="#DejaVuSans-48"/>
       <use transform="translate(128.203125 39.046875)scale(0.7)" xlink:href="#DejaVuSans-8722"/>
       <use transform="translate(186.855469 39.046875)scale(0.7)" xlink:href="#DejaVuSans-50"/>
      </g>
     </g>
    </g>
    <g id="ytick_7">
     <g id="line2d_25">
      <path clip-path="url(#p74544af122)" d="M 72 99.36 
L 518.4 99.36 
" style="fill:none;stroke:#b0b0b0;stroke-linecap:square;stroke-width:0.8;"/>
     </g>
     <g id="line2d_26">
      <g>
       <use style="stroke:#000000;stroke-width:0.8;" x="72" xlink:href="#me3225f3de9" y="99.36"/>
      </g>
     </g>
     <g id="text_14">
      <!-- $\mathdefault{10^{0}}$ -->
      <g transform="translate(47.4 103.159219)scale(0.1 -0.1)">
       <use transform="translate(0 0.765625)" xlink:href="#DejaVuSans-49"/>
       <use transform="translate(63.623047 0.765625)" xlink:href="#DejaVuSans-48"/>
       <use transform="translate(128.203125 39.046875)scale(0.7)" xlink:href="#DejaVuSans-48"/>
      </g>
     </g>
    </g>
    <g id="ytick_8">
     <g id="line2d_27">
      <path clip-path="url(#p74544af122)" d="M 72 51.84 
L 518.4 51.84 
" style="fill:none;stroke:#b0b0b0;stroke-linecap:square;stroke-width:0.8;"/>
     </g>
     <g id="line2d_28">
      <g>
       <use style="stroke:#000000;stroke-width:0.8;" x="72" xlink:href="#me3225f3de9" y="51.84"/>
      </g>
     </g>
     <g id="text_15">
      <!-- $\mathdefault{10^{2}}$ -->
      <g transform="translate(47.4 55.639219)scale(0.1 -0.1)">
       <use transform="translate(0 0.765625)" xlink:href="#DejaVuSans-49"/>
       <use transform="translate(63.623047 0.765625)" xlink:href="#DejaVuSans-48"/>
       <use transform="translate(128.203125 39.046875)scale(0.7)" xlink:href="#DejaVuSans-50"/>
      </g>
     </g>
    </g>
    <g id="text_16">
     <!-- Integrated Squared Error -->
     <defs>
      <path d="M 45.40625 27.984375 
Q 45.40625 37.75 41.375 43.109375 
Q 37.359375 48.484375 30.078125 48.484375 
Q 22.859375 48.484375 18.828125 43.109375 
Q 14.796875 37.75 14.796875 27.984375 
Q 14.796875 18.265625 18.828125 12.890625 
Q 22.859375 7.515625 30.078125 7.515625 
Q 37.359375 7.515625 41.375 12.890625 
Q 45.40625 18.265625 45.40625 27.984375 
z
M 54.390625 6.78125 
Q 54.390625 -7.171875 48.1875 -13.984375 
Q 42 -20.796875 29.203125 -20.796875 
Q 24.46875 -20.796875 20.265625 -20.09375 
Q 16.0625 -19.390625 12.109375 -17.921875 
L 12.109375 -9.1875 
Q 16.0625 -11.328125 19.921875 -12.34375 
Q 23.78125 -13.375 27.78125 -13.375 
Q 36.625 -13.375 41.015625 -8.765625 
Q 45.40625 -4.15625 45.40625 5.171875 
L 45.40625 9.625 
Q 42.625 4.78125 38.28125 2.390625 
Q 33.9375 0 27.875 0 
Q 17.828125 0 11.671875 7.65625 
Q 5.515625 15.328125 5.515625 27.984375 
Q 5.515625 40.671875 11.671875 48.328125 
Q 17.828125 56 27.875 56 
Q 33.9375 56 38.28125 53.609375 
Q 42.625 51.21875 45.40625 46.390625 
L 45.40625 54.6875 
L 54.390625 54.6875 
z
" id="DejaVuSans-103"/>
      <path d="M 45.40625 46.390625 
L 45.40625 75.984375 
L 54.390625 75.984375 
L 54.390625 0 
L 45.40625 0 
L 45.40625 8.203125 
Q 42.578125 3.328125 38.25 0.953125 
Q 33.9375 -1.421875 27.875 -1.421875 
Q 17.96875 -1.421875 11.734375 6.484375 
Q 5.515625 14.40625 5.515625 27.296875 
Q 5.515625 40.1875 11.734375 48.09375 
Q 17.96875 56 27.875 56 
Q 33.9375 56 38.25 53.625 
Q 42.578125 51.265625 45.40625 46.390625 
z
M 14.796875 27.296875 
Q 14.796875 17.390625 18.875 11.75 
Q 22.953125 6.109375 30.078125 6.109375 
Q 37.203125 6.109375 41.296875 11.75 
Q 45.40625 17.390625 45.40625 27.296875 
Q 45.40625 37.203125 41.296875 42.84375 
Q 37.203125 48.484375 30.078125 48.484375 
Q 22.953125 48.484375 18.875 42.84375 
Q 14.796875 37.203125 14.796875 27.296875 
z
" id="DejaVuSans-100"/>
      <path id="DejaVuSans-32"/>
      <path d="M 53.515625 70.515625 
L 53.515625 60.890625 
Q 47.90625 63.578125 42.921875 64.890625 
Q 37.9375 66.21875 33.296875 66.21875 
Q 25.25 66.21875 20.875 63.09375 
Q 16.5 59.96875 16.5 54.203125 
Q 16.5 49.359375 19.40625 46.890625 
Q 22.3125 44.4375 30.421875 42.921875 
L 36.375 41.703125 
Q 47.40625 39.59375 52.65625 34.296875 
Q 57.90625 29 57.90625 20.125 
Q 57.90625 9.515625 50.796875 4.046875 
Q 43.703125 -1.421875 29.984375 -1.421875 
Q 24.8125 -1.421875 18.96875 -0.25 
Q 13.140625 0.921875 6.890625 3.21875 
L 6.890625 13.375 
Q 12.890625 10.015625 18.65625 8.296875 
Q 24.421875 6.59375 29.984375 6.59375 
Q 38.421875 6.59375 43.015625 9.90625 
Q 47.609375 13.234375 47.609375 19.390625 
Q 47.609375 24.75 44.3125 27.78125 
Q 41.015625 30.8125 33.5 32.328125 
L 27.484375 33.5 
Q 16.453125 35.6875 11.515625 40.375 
Q 6.59375 45.0625 6.59375 53.421875 
Q 6.59375 63.09375 13.40625 68.65625 
Q 20.21875 74.21875 32.171875 74.21875 
Q 37.3125 74.21875 42.625 73.28125 
Q 47.953125 72.359375 53.515625 70.515625 
z
" id="DejaVuSans-83"/>
      <path d="M 14.796875 27.296875 
Q 14.796875 17.390625 18.875 11.75 
Q 22.953125 6.109375 30.078125 6.109375 
Q 37.203125 6.109375 41.296875 11.75 
Q 45.40625 17.390625 45.40625 27.296875 
Q 45.40625 37.203125 41.296875 42.84375 
Q 37.203125 48.484375 30.078125 48.484375 
Q 22.953125 48.484375 18.875 42.84375 
Q 14.796875 37.203125 14.796875 27.296875 
z
M 45.40625 8.203125 
Q 42.578125 3.328125 38.25 0.953125 
Q 33.9375 -1.421875 27.875 -1.421875 
Q 17.96875 -1.421875 11.734375 6.484375 
Q 5.515625 14.40625 5.515625 27.296875 
Q 5.515625 40.1875 11.734375 48.09375 
Q 17.96875 56 27.875 56 
Q 33.9375 56 38.25 53.625 
Q 42.578125 51.265625 45.40625 46.390625 
L 45.40625 54.6875 
L 54.390625 54.6875 
L 54.390625 -20.796875 
L 45.40625 -20.796875 
z
" id="DejaVuSans-113"/>
      <path d="M 8.5 21.578125 
L 8.5 54.6875 
L 17.484375 54.6875 
L 17.484375 21.921875 
Q 17.484375 14.15625 20.5 10.265625 
Q 23.53125 6.390625 29.59375 6.390625 
Q 36.859375 6.390625 41.078125 11.03125 
Q 45.3125 15.671875 45.3125 23.6875 
L 45.3125 54.6875 
L 54.296875 54.6875 
L 54.296875 0 
L 45.3125 0 
L 45.3125 8.40625 
Q 42.046875 3.421875 37.71875 1 
Q 33.40625 -1.421875 27.6875 -1.421875 
Q 18.265625 -1.421875 13.375 4.4375 
Q 8.5 10.296875 8.5 21.578125 
z
M 31.109375 56 
z
" id="DejaVuSans-117"/>
      <path d="M 9.8125 72.90625 
L 55.90625 72.90625 
L 55.90625 64.59375 
L 19.671875 64.59375 
L 19.671875 43.015625 
L 54.390625 43.015625 
L 54.390625 34.71875 
L 19.671875 34.71875 
L 19.671875 8.296875 
L 56.78125 8.296875 
L 56.78125 0 
L 9.8125 0 
z
" id="DejaVuSans-69"/>
     </defs>
     <g transform="translate(31.020312 280.483437)rotate(-90)scale(0.1 -0.1)">
      <use xlink:href="#DejaVuSans-73"/>
      <use x="29.492188" xlink:href="#DejaVuSans-110"/>
      <use x="92.871094" xlink:href="#DejaVuSans-116"/>
      <use x="132.080078" xlink:href="#DejaVuSans-101"/>
      <use x="193.603516" xlink:href="#DejaVuSans-103"/>
      <use x="257.080078" xlink:href="#DejaVuSans-114"/>
      <use x="298.193359" xlink:href="#DejaVuSans-97"/>
      <use x="359.472656" xlink:href="#DejaVuSans-116"/>
      <use x="398.681641" xlink:href="#DejaVuSans-101"/>
      <use x="460.205078" xlink:href="#DejaVuSans-100"/>
      <use x="523.681641" xlink:href="#DejaVuSans-32"/>
      <use x="555.46875" xlink:href="#DejaVuSans-83"/>
      <use x="618.945312" xlink:href="#DejaVuSans-113"/>
      <use x="682.421875" xlink:href="#DejaVuSans-117"/>
      <use x="745.800781" xlink:href="#DejaVuSans-97"/>
      <use x="807.080078" xlink:href="#DejaVuSans-114"/>
      <use x="845.943359" xlink:href="#DejaVuSans-101"/>
      <use x="907.466797" xlink:href="#DejaVuSans-100"/>
      <use x="970.943359" xlink:href="#DejaVuSans-32"/>
      <use x="1002.730469" xlink:href="#DejaVuSans-69"/>
      <use x="1065.914062" xlink:href="#DejaVuSans-114"/>
      <use x="1105.277344" xlink:href="#DejaVuSans-114"/>
      <use x="1144.140625" xlink:href="#DejaVuSans-111"/>
      <use x="1205.322266" xlink:href="#DejaVuSans-114"/>
     </g>
    </g>
   </g>
   <g id="line2d_29">
    <path clip-path="url(#p74544af122)" d="M 72 99.408583 
L 80.928 99.44568 
L 89.856 99.502721 
L 98.784 99.504499 
L 107.712 99.493736 
L 116.64 99.477707 
L 125.568 99.522905 
L 134.496 99.529475 
L 143.424 99.519487 
L 152.352 99.528627 
L 161.28 99.525603 
L 170.208 99.50465 
L 179.136 99.538138 
L 188.064 99.52561 
L 196.992 99.627931 
L 205.92 99.751452 
L 214.848 99.677187 
L 223.776 99.12809 
L 232.704 99.175243 
L 241.632 99.032235 
L 250.56 98.787533 
L 259.488 98.608964 
L 268.416 98.550378 
L 277.344 98.499941 
L 286.272 98.2624 
L 295.2 97.969423 
L 304.128 97.773375 
L 313.056 97.718828 
L 321.984 97.698262 
L 330.912 97.100388 
L 339.84 97.274722 
L 348.768 96.451517 
L 357.696 97.882833 
L 366.624 96.711316 
L 375.552 96.575385 
L 384.48 96.384775 
L 393.408 97.648099 
L 402.336 96.641363 
L 411.264 94.042943 
L 420.192 95.143309 
L 429.12 96.730897 
L 438.048 96.255916 
L 446.976 95.779985 
L 455.904 95.369557 
L 464.832 95.53205 
L 473.76 94.990541 
L 482.688 94.698103 
L 491.616 92.002663 
L 500.544 95.247256 
L 509.472 93.455032 
L 518.4 95.32448 
" style="fill:none;stroke:#1f77b4;stroke-linecap:square;stroke-width:1.5;"/>
   </g>
   <g id="line2d_30">
    <path clip-path="url(#p74544af122)" d="M 72 98.768216 
L 80.928 98.654616 
L 89.856 95.82446 
L 98.784 96.021542 
L 107.712 96.741818 
L 116.64 96.830615 
L 125.568 97.384386 
L 134.496 97.620378 
L 143.424 100.076803 
L 152.352 100.462698 
L 161.28 101.829006 
L 170.208 103.979085 
L 179.136 108.156587 
L 188.064 110.127736 
L 196.992 113.629889 
L 205.92 117.35044 
L 214.848 122.929337 
L 223.776 131.434228 
L 232.704 146.982102 
L 241.632 159.748651 
L 250.56 167.506496 
L 259.488 179.241406 
L 268.416 188.882884 
L 277.344 199.903008 
L 286.272 216.09367 
L 295.2 225.21166 
L 304.128 237.501121 
L 313.056 256.986983 
L 321.984 278.661467 
L 330.912 286.666407 
L 339.84 289.567584 
L 348.768 294.211586 
L 357.696 298.264352 
L 366.624 309.192056 
L 375.552 316.152403 
L 384.48 317.45094 
L 393.408 318.090017 
L 402.336 318.693298 
L 411.264 320.203422 
L 420.192 320.556904 
L 429.12 321.268234 
L 438.048 321.693717 
L 446.976 322.21872 
L 455.904 322.505176 
L 464.832 323.047974 
L 473.76 323.57544 
L 482.688 323.748712 
L 491.616 323.874099 
L 500.544 324.191193 
L 509.472 324.653331 
L 518.4 324.913214 
" style="fill:none;stroke:#ff7f0e;stroke-linecap:square;stroke-width:1.5;"/>
   </g>
   <g id="line2d_31">
    <path clip-path="url(#p74544af122)" d="M 72 99.644157 
L 80.928 93.353781 
L 89.856 93.418457 
L 98.784 95.596854 
L 107.712 98.822521 
L 116.64 99.378787 
L 125.568 99.716988 
L 134.496 101.572063 
L 143.424 105.128626 
L 152.352 110.842841 
L 161.28 116.81916 
L 170.208 120.712195 
L 179.136 122.44235 
L 188.064 124.539565 
L 196.992 125.375876 
L 205.92 126.353107 
L 214.848 127.689032 
L 223.776 128.585753 
L 232.704 129.164846 
L 241.632 129.76468 
L 250.56 130.351034 
L 259.488 130.889629 
L 268.416 131.458855 
L 277.344 132.086617 
L 286.272 132.62728 
L 295.2 133.319668 
L 304.128 134.284787 
L 313.056 135.446105 
L 321.984 136.173766 
L 330.912 137.464968 
L 339.84 139.066774 
L 348.768 139.907741 
L 357.696 140.496689 
L 366.624 140.875201 
L 375.552 141.891969 
L 384.48 142.343733 
L 393.408 143.613742 
L 402.336 144.081574 
L 411.264 144.841222 
L 420.192 145.300689 
L 429.12 145.918077 
L 438.048 146.621141 
L 446.976 147.276939 
L 455.904 148.203751 
L 464.832 149.269241 
L 473.76 150.528483 
L 482.688 151.992838 
L 491.616 153.372234 
L 500.544 154.747663 
L 509.472 155.965081 
L 518.4 157.334946 
" style="fill:none;stroke:#2ca02c;stroke-linecap:square;stroke-width:1.5;"/>
   </g>
   <g id="line2d_32">
    <path clip-path="url(#p74544af122)" d="M 72 99.438268 
L 80.928 97.831682 
L 89.856 95.466296 
L 98.784 95.8233 
L 107.712 98.53972 
L 116.64 99.676708 
L 125.568 101.332551 
L 134.496 101.488771 
L 143.424 101.363217 
L 152.352 102.656548 
L 161.28 107.275864 
L 170.208 108.902649 
L 179.136 112.770915 
L 188.064 114.587334 
L 196.992 116.532046 
L 205.92 118.597036 
L 214.848 120.024996 
L 223.776 123.48955 
L 232.704 125.550753 
L 241.632 128.000971 
L 250.56 131.874175 
L 259.488 134.151466 
L 268.416 138.890331 
L 277.344 142.726352 
L 286.272 147.507424 
L 295.2 151.234743 
L 304.128 155.623994 
L 313.056 160.862014 
L 321.984 165.464723 
L 330.912 170.627937 
L 339.84 175.037615 
L 348.768 179.183203 
L 357.696 181.400199 
L 366.624 182.8782 
L 375.552 184.389588 
L 384.48 186.182922 
L 393.408 188.318624 
L 402.336 189.664512 
L 411.264 191.233153 
L 420.192 192.385774 
L 429.12 193.64382 
L 438.048 194.979818 
L 446.976 196.767971 
L 455.904 198.484499 
L 464.832 200.429111 
L 473.76 201.303919 
L 482.688 203.673693 
L 491.616 206.149284 
L 500.544 209.425269 
L 509.472 211.333547 
L 518.4 213.164785 
" style="fill:none;stroke:#d62728;stroke-linecap:square;stroke-width:1.5;"/>
   </g>
   <g id="line2d_33">
    <path clip-path="url(#p74544af122)" d="M 72 99.257346 
L 80.928 99.961019 
L 89.856 97.433751 
L 98.784 97.111729 
L 107.712 98.251739 
L 116.64 99.069194 
L 125.568 100.013709 
L 134.496 100.449651 
L 143.424 101.311868 
L 152.352 103.033064 
L 161.28 104.792746 
L 170.208 106.149365 
L 179.136 109.778856 
L 188.064 112.351203 
L 196.992 114.559748 
L 205.92 117.545376 
L 214.848 120.147336 
L 223.776 125.532612 
L 232.704 131.605484 
L 241.632 135.702809 
L 250.56 142.504074 
L 259.488 148.30359 
L 268.416 153.127557 
L 277.344 158.479775 
L 286.272 162.081122 
L 295.2 168.373753 
L 304.128 174.561211 
L 313.056 179.605732 
L 321.984 185.298156 
L 330.912 190.946787 
L 339.84 194.136627 
L 348.768 198.785816 
L 357.696 202.239785 
L 366.624 205.582899 
L 375.552 208.283145 
L 384.48 210.220507 
L 393.408 213.509142 
L 402.336 217.206922 
L 411.264 221.552322 
L 420.192 224.397437 
L 429.12 227.103018 
L 438.048 229.699448 
L 446.976 231.469516 
L 455.904 233.82926 
L 464.832 235.926621 
L 473.76 238.143792 
L 482.688 240.572746 
L 491.616 242.103675 
L 500.544 243.504568 
L 509.472 245.091459 
L 518.4 245.937888 
" style="fill:none;stroke:#9467bd;stroke-linecap:square;stroke-width:1.5;"/>
   </g>
   <g id="line2d_34">
    <path clip-path="url(#p74544af122)" d="M 72 99.456203 
L 80.928 97.800492 
L 89.856 97.037173 
L 98.784 98.625171 
L 107.712 99.503944 
L 116.64 100.43259 
L 125.568 100.790946 
L 134.496 100.993773 
L 143.424 102.496108 
L 152.352 102.693581 
L 161.28 102.970249 
L 170.208 103.073409 
L 179.136 103.294986 
L 188.064 103.494718 
L 196.992 103.586624 
L 205.92 103.391285 
L 214.848 103.715914 
L 223.776 104.307415 
L 232.704 105.09817 
L 241.632 107.025129 
L 250.56 109.383171 
L 259.488 110.136056 
L 268.416 114.406486 
L 277.344 119.352444 
L 286.272 127.611709 
L 295.2 169.052664 
L 304.128 234.185969 
L 313.056 254.205437 
L 321.984 276.160839 
L 330.912 291.4198 
L 339.84 293.081164 
L 348.768 294.390534 
L 357.696 298.44443 
L 366.624 308.917031 
L 375.552 315.447282 
L 384.48 319.204988 
L 393.408 320.797188 
L 402.336 322.362063 
L 411.264 320.335736 
L 420.192 322.3549 
L 429.12 326.320118 
L 438.048 324.611192 
L 446.976 322.033444 
L 455.904 324.097968 
L 464.832 325.929106 
L 473.76 325.498535 
L 482.688 324.544915 
L 491.616 321.218098 
L 500.544 327.331541 
L 509.472 323.413982 
L 518.4 320.531092 
" style="fill:none;stroke:#8c564b;stroke-linecap:square;stroke-width:1.5;"/>
   </g>
   <g id="line2d_35">
    <path clip-path="url(#p74544af122)" d="M 72 99.062274 
L 80.928 99.078238 
L 89.856 99.067656 
L 98.784 99.017446 
L 107.712 99.050135 
L 116.64 99.074474 
L 125.568 99.097753 
L 134.496 99.037558 
L 143.424 99.043275 
L 152.352 99.086757 
L 161.28 99.121093 
L 170.208 99.124267 
L 179.136 99.190062 
L 188.064 99.005006 
L 196.992 99.103692 
L 205.92 99.047146 
L 214.848 99.053248 
L 223.776 99.067541 
L 232.704 99.061663 
L 241.632 99.05069 
L 250.56 99.017516 
L 259.488 98.921666 
L 268.416 98.880413 
L 277.344 98.887425 
L 286.272 98.842194 
L 295.2 98.669658 
L 304.128 98.584599 
L 313.056 98.470706 
L 321.984 98.459174 
L 330.912 98.47455 
L 339.84 98.405797 
L 348.768 98.342695 
L 357.696 98.367557 
L 366.624 98.420103 
L 375.552 98.315281 
L 384.48 98.320314 
L 393.408 98.228634 
L 402.336 98.350939 
L 411.264 98.322981 
L 420.192 98.232447 
L 429.12 98.295574 
L 438.048 98.231088 
L 446.976 98.063913 
L 455.904 98.074071 
L 464.832 98.099087 
L 473.76 97.961431 
L 482.688 98.020887 
L 491.616 98.02876 
L 500.544 98.04407 
L 509.472 98.003935 
L 518.4 97.942411 
" style="fill:none;stroke:#e377c2;stroke-linecap:square;stroke-width:1.5;"/>
   </g>
   <g id="patch_3">
    <path d="M 72 384.48 
L 72 51.84 
" style="fill:none;stroke:#000000;stroke-linecap:square;stroke-linejoin:miter;stroke-width:0.8;"/>
   </g>
   <g id="patch_4">
    <path d="M 518.4 384.48 
L 518.4 51.84 
" style="fill:none;stroke:#000000;stroke-linecap:square;stroke-linejoin:miter;stroke-width:0.8;"/>
   </g>
   <g id="patch_5">
    <path d="M 72 384.48 
L 518.4 384.48 
" style="fill:none;stroke:#000000;stroke-linecap:square;stroke-linejoin:miter;stroke-width:0.8;"/>
   </g>
   <g id="patch_6">
    <path d="M 72 51.84 
L 518.4 51.84 
" style="fill:none;stroke:#000000;stroke-linecap:square;stroke-linejoin:miter;stroke-width:0.8;"/>
   </g>
   <g id="legend_1">
    <g id="patch_7">
     <path d="M 79 379.48 
L 165.804688 379.48 
Q 167.804688 379.48 167.804688 377.48 
L 167.804688 275.733125 
Q 167.804688 273.733125 165.804688 273.733125 
L 79 273.733125 
Q 77 273.733125 77 275.733125 
L 77 377.48 
Q 77 379.48 79 379.48 
z
" style="fill:#ffffff;opacity:0.8;stroke:#cccccc;stroke-linejoin:miter;"/>
    </g>
    <g id="line2d_36">
     <path d="M 81 281.831563 
L 101 281.831563 
" style="fill:none;stroke:#1f77b4;stroke-linecap:square;stroke-width:1.5;"/>
    </g>
    <g id="line2d_37"/>
    <g id="text_17">
     <!-- Constant -->
     <defs>
      <path d="M 64.40625 67.28125 
L 64.40625 56.890625 
Q 59.421875 61.53125 53.78125 63.8125 
Q 48.140625 66.109375 41.796875 66.109375 
Q 29.296875 66.109375 22.65625 58.46875 
Q 16.015625 50.828125 16.015625 36.375 
Q 16.015625 21.96875 22.65625 14.328125 
Q 29.296875 6.6875 41.796875 6.6875 
Q 48.140625 6.6875 53.78125 8.984375 
Q 59.421875 11.28125 64.40625 15.921875 
L 64.40625 5.609375 
Q 59.234375 2.09375 53.4375 0.328125 
Q 47.65625 -1.421875 41.21875 -1.421875 
Q 24.65625 -1.421875 15.125 8.703125 
Q 5.609375 18.84375 5.609375 36.375 
Q 5.609375 53.953125 15.125 64.078125 
Q 24.65625 74.21875 41.21875 74.21875 
Q 47.75 74.21875 53.53125 72.484375 
Q 59.328125 70.75 64.40625 67.28125 
z
" id="DejaVuSans-67"/>
      <path d="M 44.28125 53.078125 
L 44.28125 44.578125 
Q 40.484375 46.53125 36.375 47.5 
Q 32.28125 48.484375 27.875 48.484375 
Q 21.1875 48.484375 17.84375 46.4375 
Q 14.5 44.390625 14.5 40.28125 
Q 14.5 37.15625 16.890625 35.375 
Q 19.28125 33.59375 26.515625 31.984375 
L 29.59375 31.296875 
Q 39.15625 29.25 43.1875 25.515625 
Q 47.21875 21.78125 47.21875 15.09375 
Q 47.21875 7.46875 41.1875 3.015625 
Q 35.15625 -1.421875 24.609375 -1.421875 
Q 20.21875 -1.421875 15.453125 -0.5625 
Q 10.6875 0.296875 5.421875 2 
L 5.421875 11.28125 
Q 10.40625 8.6875 15.234375 7.390625 
Q 20.0625 6.109375 24.8125 6.109375 
Q 31.15625 6.109375 34.5625 8.28125 
Q 37.984375 10.453125 37.984375 14.40625 
Q 37.984375 18.0625 35.515625 20.015625 
Q 33.0625 21.96875 24.703125 23.78125 
L 21.578125 24.515625 
Q 13.234375 26.265625 9.515625 29.90625 
Q 5.8125 33.546875 5.8125 39.890625 
Q 5.8125 47.609375 11.28125 51.796875 
Q 16.75 56 26.8125 56 
Q 31.78125 56 36.171875 55.265625 
Q 40.578125 54.546875 44.28125 53.078125 
z
" id="DejaVuSans-115"/>
     </defs>
     <g transform="translate(109 285.331563)scale(0.1 -0.1)">
      <use xlink:href="#DejaVuSans-67"/>
      <use x="69.824219" xlink:href="#DejaVuSans-111"/>
      <use x="131.005859" xlink:href="#DejaVuSans-110"/>
      <use x="194.384766" xlink:href="#DejaVuSans-115"/>
      <use x="246.484375" xlink:href="#DejaVuSans-116"/>
      <use x="285.693359" xlink:href="#DejaVuSans-97"/>
      <use x="346.972656" xlink:href="#DejaVuSans-110"/>
      <use x="410.351562" xlink:href="#DejaVuSans-116"/>
     </g>
    </g>
    <g id="line2d_38">
     <path d="M 81 296.509688 
L 101 296.509688 
" style="fill:none;stroke:#ff7f0e;stroke-linecap:square;stroke-width:1.5;"/>
    </g>
    <g id="line2d_39"/>
    <g id="text_18">
     <!-- RBF -->
     <defs>
      <path d="M 44.390625 34.1875 
Q 47.5625 33.109375 50.5625 29.59375 
Q 53.5625 26.078125 56.59375 19.921875 
L 66.609375 0 
L 56 0 
L 46.6875 18.703125 
Q 43.0625 26.03125 39.671875 28.421875 
Q 36.28125 30.8125 30.421875 30.8125 
L 19.671875 30.8125 
L 19.671875 0 
L 9.8125 0 
L 9.8125 72.90625 
L 32.078125 72.90625 
Q 44.578125 72.90625 50.734375 67.671875 
Q 56.890625 62.453125 56.890625 51.90625 
Q 56.890625 45.015625 53.6875 40.46875 
Q 50.484375 35.9375 44.390625 34.1875 
z
M 19.671875 64.796875 
L 19.671875 38.921875 
L 32.078125 38.921875 
Q 39.203125 38.921875 42.84375 42.21875 
Q 46.484375 45.515625 46.484375 51.90625 
Q 46.484375 58.296875 42.84375 61.546875 
Q 39.203125 64.796875 32.078125 64.796875 
z
" id="DejaVuSans-82"/>
      <path d="M 19.671875 34.8125 
L 19.671875 8.109375 
L 35.5 8.109375 
Q 43.453125 8.109375 47.28125 11.40625 
Q 51.125 14.703125 51.125 21.484375 
Q 51.125 28.328125 47.28125 31.5625 
Q 43.453125 34.8125 35.5 34.8125 
z
M 19.671875 64.796875 
L 19.671875 42.828125 
L 34.28125 42.828125 
Q 41.5 42.828125 45.03125 45.53125 
Q 48.578125 48.25 48.578125 53.8125 
Q 48.578125 59.328125 45.03125 62.0625 
Q 41.5 64.796875 34.28125 64.796875 
z
M 9.8125 72.90625 
L 35.015625 72.90625 
Q 46.296875 72.90625 52.390625 68.21875 
Q 58.5 63.53125 58.5 54.890625 
Q 58.5 48.1875 55.375 44.234375 
Q 52.25 40.28125 46.1875 39.3125 
Q 53.46875 37.75 57.5 32.78125 
Q 61.53125 27.828125 61.53125 20.40625 
Q 61.53125 10.640625 54.890625 5.3125 
Q 48.25 0 35.984375 0 
L 9.8125 0 
z
" id="DejaVuSans-66"/>
      <path d="M 9.8125 72.90625 
L 51.703125 72.90625 
L 51.703125 64.59375 
L 19.671875 64.59375 
L 19.671875 43.109375 
L 48.578125 43.109375 
L 48.578125 34.8125 
L 19.671875 34.8125 
L 19.671875 0 
L 9.8125 0 
z
" id="DejaVuSans-70"/>
     </defs>
     <g transform="translate(109 300.009688)scale(0.1 -0.1)">
      <use xlink:href="#DejaVuSans-82"/>
      <use x="69.482422" xlink:href="#DejaVuSans-66"/>
      <use x="138.085938" xlink:href="#DejaVuSans-70"/>
     </g>
    </g>
    <g id="line2d_40">
     <path d="M 81 311.187813 
L 101 311.187813 
" style="fill:none;stroke:#2ca02c;stroke-linecap:square;stroke-width:1.5;"/>
    </g>
    <g id="line2d_41"/>
    <g id="text_19">
     <!-- Matrn-1/2 -->
     <defs>
      <path d="M 9.8125 72.90625 
L 24.515625 72.90625 
L 43.109375 23.296875 
L 61.8125 72.90625 
L 76.515625 72.90625 
L 76.515625 0 
L 66.890625 0 
L 66.890625 64.015625 
L 48.09375 14.015625 
L 38.1875 14.015625 
L 19.390625 64.015625 
L 19.390625 0 
L 9.8125 0 
z
" id="DejaVuSans-77"/>
      <path d="M 56.203125 29.59375 
L 56.203125 25.203125 
L 14.890625 25.203125 
Q 15.484375 15.921875 20.484375 11.0625 
Q 25.484375 6.203125 34.421875 6.203125 
Q 39.59375 6.203125 44.453125 7.46875 
Q 49.3125 8.734375 54.109375 11.28125 
L 54.109375 2.78125 
Q 49.265625 0.734375 44.1875 -0.34375 
Q 39.109375 -1.421875 33.890625 -1.421875 
Q 20.796875 -1.421875 13.15625 6.1875 
Q 5.515625 13.8125 5.515625 26.8125 
Q 5.515625 40.234375 12.765625 48.109375 
Q 20.015625 56 32.328125 56 
Q 43.359375 56 49.78125 48.890625 
Q 56.203125 41.796875 56.203125 29.59375 
z
M 47.21875 32.234375 
Q 47.125 39.59375 43.09375 43.984375 
Q 39.0625 48.390625 32.421875 48.390625 
Q 24.90625 48.390625 20.390625 44.140625 
Q 15.875 39.890625 15.1875 32.171875 
z
M 38.53125 79.984375 
L 48.25 79.984375 
L 32.34375 61.625 
L 24.859375 61.625 
z
" id="DejaVuSans-233"/>
      <path d="M 4.890625 31.390625 
L 31.203125 31.390625 
L 31.203125 23.390625 
L 4.890625 23.390625 
z
" id="DejaVuSans-45"/>
      <path d="M 25.390625 72.90625 
L 33.6875 72.90625 
L 8.296875 -9.28125 
L 0 -9.28125 
z
" id="DejaVuSans-47"/>
     </defs>
     <g transform="translate(109 314.687813)scale(0.1 -0.1)">
      <use xlink:href="#DejaVuSans-77"/>
      <use x="86.279297" xlink:href="#DejaVuSans-97"/>
      <use x="147.558594" xlink:href="#DejaVuSans-116"/>
      <use x="186.767578" xlink:href="#DejaVuSans-233"/>
      <use x="248.291016" xlink:href="#DejaVuSans-114"/>
      <use x="287.654297" xlink:href="#DejaVuSans-110"/>
      <use x="351.033203" xlink:href="#DejaVuSans-45"/>
      <use x="387.117188" xlink:href="#DejaVuSans-49"/>
      <use x="450.740234" xlink:href="#DejaVuSans-47"/>
      <use x="484.431641" xlink:href="#DejaVuSans-50"/>
     </g>
    </g>
    <g id="line2d_42">
     <path d="M 81 325.865938 
L 101 325.865938 
" style="fill:none;stroke:#d62728;stroke-linecap:square;stroke-width:1.5;"/>
    </g>
    <g id="line2d_43"/>
    <g id="text_20">
     <!-- Matrn-3/2 -->
     <g transform="translate(109 329.365938)scale(0.1 -0.1)">
      <use xlink:href="#DejaVuSans-77"/>
      <use x="86.279297" xlink:href="#DejaVuSans-97"/>
      <use x="147.558594" xlink:href="#DejaVuSans-116"/>
      <use x="186.767578" xlink:href="#DejaVuSans-233"/>
      <use x="248.291016" xlink:href="#DejaVuSans-114"/>
      <use x="287.654297" xlink:href="#DejaVuSans-110"/>
      <use x="351.033203" xlink:href="#DejaVuSans-45"/>
      <use x="387.117188" xlink:href="#DejaVuSans-51"/>
      <use x="450.740234" xlink:href="#DejaVuSans-47"/>
      <use x="484.431641" xlink:href="#DejaVuSans-50"/>
     </g>
    </g>
    <g id="line2d_44">
     <path d="M 81 340.544062 
L 101 340.544062 
" style="fill:none;stroke:#9467bd;stroke-linecap:square;stroke-width:1.5;"/>
    </g>
    <g id="line2d_45"/>
    <g id="text_21">
     <!-- Matrn-5/2 -->
     <g transform="translate(109 344.044062)scale(0.1 -0.1)">
      <use xlink:href="#DejaVuSans-77"/>
      <use x="86.279297" xlink:href="#DejaVuSans-97"/>
      <use x="147.558594" xlink:href="#DejaVuSans-116"/>
      <use x="186.767578" xlink:href="#DejaVuSans-233"/>
      <use x="248.291016" xlink:href="#DejaVuSans-114"/>
      <use x="287.654297" xlink:href="#DejaVuSans-110"/>
      <use x="351.033203" xlink:href="#DejaVuSans-45"/>
      <use x="387.117188" xlink:href="#DejaVuSans-53"/>
      <use x="450.740234" xlink:href="#DejaVuSans-47"/>
      <use x="484.431641" xlink:href="#DejaVuSans-50"/>
     </g>
    </g>
    <g id="line2d_46">
     <path d="M 81 355.222188 
L 101 355.222188 
" style="fill:none;stroke:#8c564b;stroke-linecap:square;stroke-width:1.5;"/>
    </g>
    <g id="line2d_47"/>
    <g id="text_22">
     <!-- RQ -->
     <defs>
      <path d="M 39.40625 66.21875 
Q 28.65625 66.21875 22.328125 58.203125 
Q 16.015625 50.203125 16.015625 36.375 
Q 16.015625 22.609375 22.328125 14.59375 
Q 28.65625 6.59375 39.40625 6.59375 
Q 50.140625 6.59375 56.421875 14.59375 
Q 62.703125 22.609375 62.703125 36.375 
Q 62.703125 50.203125 56.421875 58.203125 
Q 50.140625 66.21875 39.40625 66.21875 
z
M 53.21875 1.3125 
L 66.21875 -12.890625 
L 54.296875 -12.890625 
L 43.5 -1.21875 
Q 41.890625 -1.3125 41.03125 -1.359375 
Q 40.1875 -1.421875 39.40625 -1.421875 
Q 24.03125 -1.421875 14.8125 8.859375 
Q 5.609375 19.140625 5.609375 36.375 
Q 5.609375 53.65625 14.8125 63.9375 
Q 24.03125 74.21875 39.40625 74.21875 
Q 54.734375 74.21875 63.90625 63.9375 
Q 73.09375 53.65625 73.09375 36.375 
Q 73.09375 23.6875 67.984375 14.640625 
Q 62.890625 5.609375 53.21875 1.3125 
z
" id="DejaVuSans-81"/>
     </defs>
     <g transform="translate(109 358.722188)scale(0.1 -0.1)">
      <use xlink:href="#DejaVuSans-82"/>
      <use x="69.482422" xlink:href="#DejaVuSans-81"/>
     </g>
    </g>
    <g id="line2d_48">
     <path d="M 81 369.900313 
L 101 369.900313 
" style="fill:none;stroke:#e377c2;stroke-linecap:square;stroke-width:1.5;"/>
    </g>
    <g id="line2d_49"/>
    <g id="text_23">
     <!-- Dot Prod. -->
     <defs>
      <path d="M 19.671875 64.796875 
L 19.671875 8.109375 
L 31.59375 8.109375 
Q 46.6875 8.109375 53.6875 14.9375 
Q 60.6875 21.78125 60.6875 36.53125 
Q 60.6875 51.171875 53.6875 57.984375 
Q 46.6875 64.796875 31.59375 64.796875 
z
M 9.8125 72.90625 
L 30.078125 72.90625 
Q 51.265625 72.90625 61.171875 64.09375 
Q 71.09375 55.28125 71.09375 36.53125 
Q 71.09375 17.671875 61.125 8.828125 
Q 51.171875 0 30.078125 0 
L 9.8125 0 
z
" id="DejaVuSans-68"/>
      <path d="M 19.671875 64.796875 
L 19.671875 37.40625 
L 32.078125 37.40625 
Q 38.96875 37.40625 42.71875 40.96875 
Q 46.484375 44.53125 46.484375 51.125 
Q 46.484375 57.671875 42.71875 61.234375 
Q 38.96875 64.796875 32.078125 64.796875 
z
M 9.8125 72.90625 
L 32.078125 72.90625 
Q 44.34375 72.90625 50.609375 67.359375 
Q 56.890625 61.8125 56.890625 51.125 
Q 56.890625 40.328125 50.609375 34.8125 
Q 44.34375 29.296875 32.078125 29.296875 
L 19.671875 29.296875 
L 19.671875 0 
L 9.8125 0 
z
" id="DejaVuSans-80"/>
      <path d="M 10.6875 12.40625 
L 21 12.40625 
L 21 0 
L 10.6875 0 
z
" id="DejaVuSans-46"/>
     </defs>
     <g transform="translate(109 373.400313)scale(0.1 -0.1)">
      <use xlink:href="#DejaVuSans-68"/>
      <use x="77.001953" xlink:href="#DejaVuSans-111"/>
      <use x="138.183594" xlink:href="#DejaVuSans-116"/>
      <use x="177.392578" xlink:href="#DejaVuSans-32"/>
      <use x="209.179688" xlink:href="#DejaVuSans-80"/>
      <use x="267.732422" xlink:href="#DejaVuSans-114"/>
      <use x="306.595703" xlink:href="#DejaVuSans-111"/>
      <use x="367.777344" xlink:href="#DejaVuSans-100"/>
      <use x="431.253906" xlink:href="#DejaVuSans-46"/>
     </g>
    </g>
   </g>
  </g>
 </g>
 <defs>
  <clipPath id="p74544af122">
   <rect height="332.64" width="446.4" x="72" y="51.84"/>
  </clipPath>
 </defs>
</svg>
