<?xml version="1.0" encoding="utf-8" standalone="no"?>
<!DOCTYPE svg PUBLIC "-//W3C//DTD SVG 1.1//EN"
  "http://www.w3.org/Graphics/SVG/1.1/DTD/svg11.dtd">
<!-- Created with matplotlib (https://matplotlib.org/) -->
<svg height="432pt" version="1.1" viewBox="0 0 576 432" width="576pt" xmlns="http://www.w3.org/2000/svg" xmlns:xlink="http://www.w3.org/1999/xlink">
 <defs>
  <style type="text/css">
*{stroke-linecap:butt;stroke-linejoin:round;}
  </style>
 </defs>
 <g id="figure_1">
  <g id="patch_1">
   <path d="M 0 432 
L 576 432 
L 576 0 
L 0 0 
z
" style="fill:#ffffff;"/>
  </g>
  <g id="axes_1">
   <g id="patch_2">
    <path d="M 72 384.48 
L 518.4 384.48 
L 518.4 51.84 
L 72 51.84 
z
" style="fill:#ffffff;"/>
   </g>
   <g id="PolyCollection_1">
    <path clip-path="url(#p03c6b83c0f)" d="M 348.768 273.399753 
L 348.768 -102.566605 
L 348.768 273.399753 
L 348.768 273.399753 
z
" style="fill:#1f77b4;fill-opacity:0.3;"/>
   </g>
   <g id="PolyCollection_2">
    <path clip-path="url(#p03c6b83c0f)" d="M 72 173.728252 
L 72 84.310405 
L 80.928 89.585068 
L 89.856 127.585678 
L 98.784 133.435961 
L 107.712 126.449998 
L 116.64 131.883597 
L 125.568 135.748831 
L 134.496 125.631171 
L 143.424 108.570266 
L 152.352 113.011247 
L 161.28 108.050326 
L 170.208 103.316087 
L 179.136 105.818543 
L 188.064 109.861727 
L 196.992 111.609585 
L 205.92 114.542779 
L 214.848 119.486504 
L 223.776 124.215666 
L 232.704 130.300289 
L 241.632 138.44621 
L 250.56 145.609971 
L 259.488 153.437672 
L 268.416 162.351082 
L 277.344 170.728909 
L 286.272 179.047424 
L 295.2 188.832978 
L 304.128 197.91906 
L 313.056 208.091916 
L 321.984 218.728793 
L 330.912 230.427027 
L 339.84 241.417321 
L 348.768 253.794876 
L 357.696 264.271222 
L 366.624 265.96131 
L 375.552 247.80424 
L 384.48 229.309415 
L 393.408 223.610794 
L 402.336 222.207802 
L 411.264 214.942102 
L 420.192 215.661277 
L 429.12 214.033353 
L 438.048 216.758989 
L 446.976 210.430919 
L 455.904 209.487809 
L 464.832 212.265461 
L 473.76 208.255813 
L 482.688 206.526023 
L 491.616 205.226519 
L 500.544 208.040062 
L 509.472 207.127833 
L 518.4 208.088623 
L 518.4 239.74573 
L 518.4 239.74573 
L 509.472 247.354681 
L 500.544 238.04917 
L 491.616 245.234205 
L 482.688 244.878508 
L 473.76 250.380745 
L 464.832 258.467717 
L 455.904 247.98203 
L 446.976 254.803078 
L 438.048 250.4111 
L 429.12 260.199414 
L 420.192 257.40843 
L 411.264 262.101647 
L 402.336 268.253264 
L 393.408 269.853193 
L 384.48 273.038027 
L 375.552 279.801145 
L 366.624 281.414666 
L 357.696 268.803318 
L 348.768 260.442704 
L 339.84 246.75699 
L 330.912 236.405789 
L 321.984 224.595323 
L 313.056 214.113593 
L 304.128 204.32847 
L 295.2 193.877627 
L 286.272 184.130559 
L 277.344 176.281269 
L 268.416 167.418094 
L 259.488 159.198451 
L 250.56 150.041047 
L 241.632 142.563949 
L 232.704 137.091385 
L 223.776 140.080427 
L 214.848 139.475722 
L 205.92 146.734265 
L 196.992 145.951242 
L 188.064 146.822264 
L 179.136 142.319334 
L 170.208 150.051163 
L 161.28 169.75691 
L 152.352 160.304595 
L 143.424 173.11592 
L 134.496 188.160745 
L 125.568 191.043413 
L 116.64 190.783658 
L 107.712 189.764264 
L 98.784 193.667433 
L 89.856 184.373108 
L 80.928 181.219059 
L 72 173.728252 
z
" style="fill:#ff7f0e;fill-opacity:0.3;"/>
   </g>
   <g id="PolyCollection_3">
    <path clip-path="url(#p03c6b83c0f)" d="M 72 175.466714 
L 72 127.701121 
L 80.928 78.798106 
L 89.856 84.912182 
L 98.784 88.180335 
L 107.712 90.756068 
L 116.64 93.535957 
L 125.568 97.436115 
L 134.496 96.469528 
L 143.424 94.721393 
L 152.352 93.05945 
L 161.28 93.153562 
L 170.208 94.075792 
L 179.136 95.16772 
L 188.064 99.826194 
L 196.992 101.403043 
L 205.92 104.035038 
L 214.848 105.271429 
L 223.776 106.303027 
L 232.704 107.200242 
L 241.632 108.075414 
L 250.56 108.942653 
L 259.488 109.815784 
L 268.416 110.674019 
L 277.344 111.677704 
L 286.272 112.574161 
L 295.2 113.486639 
L 304.128 114.391312 
L 313.056 115.158206 
L 321.984 115.885224 
L 330.912 116.631132 
L 339.84 117.463913 
L 348.768 118.084551 
L 357.696 118.61128 
L 366.624 119.146274 
L 375.552 119.47815 
L 384.48 119.922192 
L 393.408 120.270565 
L 402.336 120.706753 
L 411.264 121.092725 
L 420.192 121.520887 
L 429.12 121.938998 
L 438.048 122.368194 
L 446.976 122.76078 
L 455.904 123.135957 
L 464.832 123.504054 
L 473.76 123.885517 
L 482.688 124.251457 
L 491.616 124.6376 
L 500.544 125.029973 
L 509.472 125.433273 
L 518.4 125.818272 
L 518.4 126.437972 
L 518.4 126.437972 
L 509.472 126.086562 
L 500.544 125.681629 
L 491.616 125.282725 
L 482.688 124.879519 
L 473.76 124.48136 
L 464.832 124.105577 
L 455.904 123.709053 
L 446.976 123.337059 
L 438.048 122.936056 
L 429.12 122.594806 
L 420.192 122.22418 
L 411.264 121.837653 
L 402.336 121.469845 
L 393.408 121.001683 
L 384.48 120.579551 
L 375.552 120.114223 
L 366.624 119.62279 
L 357.696 119.043568 
L 348.768 118.494209 
L 339.84 117.947711 
L 330.912 117.792793 
L 321.984 117.317198 
L 313.056 116.706698 
L 304.128 116.38266 
L 295.2 116.309394 
L 286.272 115.791563 
L 277.344 115.139027 
L 268.416 114.53627 
L 259.488 113.668264 
L 250.56 112.791546 
L 241.632 111.908912 
L 232.704 111.012838 
L 223.776 110.117317 
L 214.848 109.474487 
L 205.92 109.550407 
L 196.992 111.625418 
L 188.064 111.067282 
L 179.136 118.070998 
L 170.208 119.325245 
L 161.28 119.010023 
L 152.352 118.714982 
L 143.424 119.231506 
L 134.496 119.829538 
L 125.568 123.301197 
L 116.64 128.175476 
L 107.712 127.390445 
L 98.784 126.570316 
L 89.856 128.01055 
L 80.928 133.494751 
L 72 175.466714 
z
" style="fill:#2ca02c;fill-opacity:0.3;"/>
   </g>
   <g id="PolyCollection_4">
    <path clip-path="url(#p03c6b83c0f)" d="M 72 174.130092 
L 72 98.48711 
L 80.928 89.274036 
L 89.856 107.079541 
L 98.784 107.940097 
L 107.712 106.839774 
L 116.64 106.651632 
L 125.568 105.920692 
L 134.496 108.466828 
L 143.424 111.578603 
L 152.352 109.065781 
L 161.28 105.092101 
L 170.208 107.516873 
L 179.136 107.294883 
L 188.064 109.588697 
L 196.992 111.946336 
L 205.92 113.529225 
L 214.848 115.331589 
L 223.776 116.637722 
L 232.704 118.850561 
L 241.632 120.610695 
L 250.56 121.953271 
L 259.488 123.740746 
L 268.416 125.107425 
L 277.344 126.716074 
L 286.272 128.569669 
L 295.2 130.278132 
L 304.128 132.170484 
L 313.056 134.020626 
L 321.984 135.785631 
L 330.912 137.343134 
L 339.84 138.83349 
L 348.768 140.146115 
L 357.696 141.334948 
L 366.624 142.453969 
L 375.552 143.478125 
L 384.48 144.456068 
L 393.408 145.421413 
L 402.336 146.355138 
L 411.264 147.261483 
L 420.192 148.164021 
L 429.12 149.04287 
L 438.048 149.918311 
L 446.976 150.78756 
L 455.904 151.632267 
L 464.832 152.482021 
L 473.76 153.346472 
L 482.688 154.180112 
L 491.616 155.014899 
L 500.544 155.858596 
L 509.472 156.703347 
L 518.4 157.552496 
L 518.4 159.333482 
L 518.4 159.333482 
L 509.472 158.45595 
L 500.544 157.537761 
L 491.616 156.630884 
L 482.688 155.708091 
L 473.76 154.753032 
L 464.832 153.804509 
L 455.904 152.868522 
L 446.976 151.941757 
L 438.048 151.022525 
L 429.12 150.079266 
L 420.192 149.133597 
L 411.264 148.192836 
L 402.336 147.231249 
L 393.408 146.266141 
L 384.48 145.284984 
L 375.552 144.306194 
L 366.624 143.335577 
L 357.696 142.305358 
L 348.768 141.285812 
L 339.84 139.968776 
L 330.912 138.596638 
L 321.984 136.658881 
L 313.056 135.105684 
L 304.128 133.747886 
L 295.2 132.573194 
L 286.272 131.235982 
L 277.344 130.295268 
L 268.416 128.86735 
L 259.488 128.227552 
L 250.56 127.174031 
L 241.632 127.457645 
L 232.704 127.720643 
L 223.776 129.593928 
L 214.848 130.308076 
L 205.92 129.710901 
L 196.992 129.500925 
L 188.064 129.596253 
L 179.136 126.904677 
L 170.208 131.003028 
L 161.28 130.931773 
L 152.352 134.81174 
L 143.424 138.733309 
L 134.496 137.098147 
L 125.568 135.083571 
L 116.64 139.090647 
L 107.712 145.357253 
L 98.784 141.960407 
L 89.856 140.062725 
L 80.928 144.430624 
L 72 174.130092 
z
" style="fill:#d62728;fill-opacity:0.3;"/>
   </g>
   <g id="PolyCollection_5">
    <path clip-path="url(#p03c6b83c0f)" d="M 72 166.386233 
L 72 88.891917 
L 80.928 95.888187 
L 89.856 118.65616 
L 98.784 122.35599 
L 107.712 120.950772 
L 116.64 114.673277 
L 125.568 115.877955 
L 134.496 117.003477 
L 143.424 113.882955 
L 152.352 109.266862 
L 161.28 108.551443 
L 170.208 109.718422 
L 179.136 108.69476 
L 188.064 109.75647 
L 196.992 112.840438 
L 205.92 115.171719 
L 214.848 116.655763 
L 223.776 118.442095 
L 232.704 122.098611 
L 241.632 124.989867 
L 250.56 127.562399 
L 259.488 130.252368 
L 268.416 132.792344 
L 277.344 135.147432 
L 286.272 137.6144 
L 295.2 140.28574 
L 304.128 142.954284 
L 313.056 145.447063 
L 321.984 147.697309 
L 330.912 149.650236 
L 339.84 151.678442 
L 348.768 153.558629 
L 357.696 155.516524 
L 366.624 157.29192 
L 375.552 159.059374 
L 384.48 160.857243 
L 393.408 162.460182 
L 402.336 164.063901 
L 411.264 165.68548 
L 420.192 167.217165 
L 429.12 168.655927 
L 438.048 170.039427 
L 446.976 171.384138 
L 455.904 172.664016 
L 464.832 174.042796 
L 473.76 175.359386 
L 482.688 176.652217 
L 491.616 177.864934 
L 500.544 179.163834 
L 509.472 180.446916 
L 518.4 181.766226 
L 518.4 184.472155 
L 518.4 184.472155 
L 509.472 183.204989 
L 500.544 181.88786 
L 491.616 180.504727 
L 482.688 179.177586 
L 473.76 177.735201 
L 464.832 176.185507 
L 455.904 174.641371 
L 446.976 173.176806 
L 438.048 171.610603 
L 429.12 170.035964 
L 420.192 168.511056 
L 411.264 166.955828 
L 402.336 165.469139 
L 393.408 163.886638 
L 384.48 162.29828 
L 375.552 160.746316 
L 366.624 159.095259 
L 357.696 157.457686 
L 348.768 155.860221 
L 339.84 154.070075 
L 330.912 152.164794 
L 321.984 149.42985 
L 313.056 146.954363 
L 304.128 144.635668 
L 295.2 142.420401 
L 286.272 140.024322 
L 277.344 137.68735 
L 268.416 135.173902 
L 259.488 132.857752 
L 250.56 130.774799 
L 241.632 129.279459 
L 232.704 128.086583 
L 223.776 130.681853 
L 214.848 133.527116 
L 205.92 131.794978 
L 196.992 134.81429 
L 188.064 137.718403 
L 179.136 139.209239 
L 170.208 139.809842 
L 161.28 139.53703 
L 152.352 140.228971 
L 143.424 155.608735 
L 134.496 158.411888 
L 125.568 158.494339 
L 116.64 155.298577 
L 107.712 157.861655 
L 98.784 160.468034 
L 89.856 164.883858 
L 80.928 165.625983 
L 72 166.386233 
z
" style="fill:#9467bd;fill-opacity:0.3;"/>
   </g>
   <g id="PolyCollection_6">
    <path clip-path="url(#p03c6b83c0f)" d="M 72 180.789221 
L 72 120.921646 
L 80.928 90.34481 
L 89.856 93.570545 
L 98.784 96.476583 
L 107.712 96.241655 
L 116.64 94.609237 
L 125.568 98.285742 
L 134.496 97.877307 
L 143.424 93.246023 
L 152.352 95.13612 
L 161.28 94.253049 
L 170.208 92.941246 
L 179.136 91.967247 
L 188.064 92.263366 
L 196.992 93.434321 
L 205.92 95.520443 
L 214.848 95.842614 
L 223.776 95.981088 
L 232.704 96.486093 
L 241.632 98.418729 
L 250.56 99.759055 
L 259.488 99.898089 
L 268.416 101.207374 
L 277.344 102.914342 
L 286.272 104.184365 
L 295.2 116.309409 
L 304.128 193.409726 
L 313.056 205.820026 
L 321.984 218.963583 
L 330.912 231.309516 
L 339.84 241.31005 
L 348.768 253.579471 
L 357.696 263.420999 
L 366.624 265.033522 
L 375.552 255.0367 
L 384.48 233.625248 
L 393.408 219.334638 
L 402.336 219.372689 
L 411.264 213.43011 
L 420.192 210.693479 
L 429.12 214.645781 
L 438.048 208.022241 
L 446.976 201.920953 
L 455.904 204.886223 
L 464.832 204.985535 
L 473.76 198.386653 
L 482.688 204.341819 
L 491.616 190.648939 
L 500.544 199.714378 
L 509.472 188.893561 
L 518.4 185.329259 
L 518.4 247.183005 
L 518.4 247.183005 
L 509.472 247.461641 
L 500.544 238.67599 
L 491.616 254.962088 
L 482.688 250.552055 
L 473.76 244.304745 
L 464.832 255.396092 
L 455.904 247.238146 
L 446.976 251.033639 
L 438.048 252.377592 
L 429.12 250.73791 
L 420.192 254.149816 
L 411.264 264.025735 
L 402.336 266.336719 
L 393.408 264.618289 
L 384.48 278.910515 
L 375.552 283.499603 
L 366.624 281.631002 
L 357.696 270.503008 
L 348.768 259.475482 
L 339.84 249.502897 
L 330.912 238.033403 
L 321.984 225.961063 
L 313.056 213.273288 
L 304.128 201.619043 
L 295.2 186.673253 
L 286.272 129.84481 
L 277.344 119.544714 
L 268.416 114.768692 
L 259.488 110.989592 
L 250.56 109.577875 
L 241.632 108.986807 
L 232.704 110.88643 
L 223.776 112.589835 
L 214.848 114.387536 
L 205.92 112.744935 
L 196.992 116.44342 
L 188.064 116.452857 
L 179.136 115.105527 
L 170.208 117.465743 
L 161.28 124.747316 
L 152.352 128.14926 
L 143.424 128.098535 
L 134.496 136.335198 
L 125.568 135.977503 
L 116.64 137.035303 
L 107.712 138.276899 
L 98.784 135.669711 
L 89.856 137.754873 
L 80.928 139.393064 
L 72 180.789221 
z
" style="fill:#8c564b;fill-opacity:0.3;"/>
   </g>
   <g id="PolyCollection_7">
    <path clip-path="url(#p03c6b83c0f)" d="M 72 181.067555 
L 72 97.845973 
L 72 181.067555 
L 72 181.067555 
z
" style="fill:#e377c2;fill-opacity:0.3;"/>
    <path clip-path="url(#p03c6b83c0f)" d="M 89.856 202.543801 
L 89.856 86.185543 
L 98.784 97.241075 
L 107.712 105.085559 
L 116.64 97.947722 
L 125.568 90.468418 
L 134.496 104.810131 
L 134.496 141.154436 
L 134.496 141.154436 
L 125.568 152.004577 
L 116.64 155.63804 
L 107.712 153.10606 
L 98.784 167.144893 
L 89.856 202.543801 
z
" style="fill:#e377c2;fill-opacity:0.3;"/>
    <path clip-path="url(#p03c6b83c0f)" d="M 161.28 139.990587 
L 161.28 98.793224 
L 161.28 139.990587 
L 161.28 139.990587 
z
" style="fill:#e377c2;fill-opacity:0.3;"/>
    <path clip-path="url(#p03c6b83c0f)" d="M 196.992 156.505517 
L 196.992 89.99558 
L 196.992 156.505517 
L 196.992 156.505517 
z
" style="fill:#e377c2;fill-opacity:0.3;"/>
    <path clip-path="url(#p03c6b83c0f)" d="M 223.776 172.349007 
L 223.776 73.778572 
L 232.704 87.102124 
L 241.632 87.067512 
L 241.632 146.904779 
L 241.632 146.904779 
L 232.704 142.219232 
L 223.776 172.349007 
z
" style="fill:#e377c2;fill-opacity:0.3;"/>
    <path clip-path="url(#p03c6b83c0f)" d="M 286.272 164.010105 
L 286.272 75.583446 
L 286.272 164.010105 
L 286.272 164.010105 
z
" style="fill:#e377c2;fill-opacity:0.3;"/>
    <path clip-path="url(#p03c6b83c0f)" d="M 304.128 184.960081 
L 304.128 56.422987 
L 304.128 184.960081 
L 304.128 184.960081 
z
" style="fill:#e377c2;fill-opacity:0.3;"/>
    <path clip-path="url(#p03c6b83c0f)" d="M 321.984 124.06468 
L 321.984 81.587612 
L 321.984 124.06468 
L 321.984 124.06468 
z
" style="fill:#e377c2;fill-opacity:0.3;"/>
    <path clip-path="url(#p03c6b83c0f)" d="M 339.84 154.970663 
L 339.84 72.979094 
L 339.84 154.970663 
L 339.84 154.970663 
z
" style="fill:#e377c2;fill-opacity:0.3;"/>
    <path clip-path="url(#p03c6b83c0f)" d="M 420.192 134.846409 
L 420.192 70.808445 
L 429.12 74.195827 
L 429.12 135.883901 
L 429.12 135.883901 
L 420.192 134.846409 
z
" style="fill:#e377c2;fill-opacity:0.3;"/>
    <path clip-path="url(#p03c6b83c0f)" d="M 464.832 150.947569 
L 464.832 71.769334 
L 464.832 150.947569 
L 464.832 150.947569 
z
" style="fill:#e377c2;fill-opacity:0.3;"/>
    <path clip-path="url(#p03c6b83c0f)" d="M 509.472 145.191098 
L 509.472 72.145627 
L 509.472 145.191098 
L 509.472 145.191098 
z
" style="fill:#e377c2;fill-opacity:0.3;"/>
   </g>
   <g id="matplotlib.axis_1">
    <g id="xtick_1">
     <g id="line2d_1">
      <path clip-path="url(#p03c6b83c0f)" d="M 72 384.48 
L 72 51.84 
" style="fill:none;stroke:#b0b0b0;stroke-linecap:square;stroke-width:0.8;"/>
     </g>
     <g id="line2d_2">
      <defs>
       <path d="M 0 0 
L 0 3.5 
" id="m4bd4e8cfcf" style="stroke:#000000;stroke-width:0.8;"/>
      </defs>
      <g>
       <use style="stroke:#000000;stroke-width:0.8;" x="72" xlink:href="#m4bd4e8cfcf" y="384.48"/>
      </g>
     </g>
     <g id="text_1">
      <!-- 0 -->
      <defs>
       <path d="M 31.78125 66.40625 
Q 24.171875 66.40625 20.328125 58.90625 
Q 16.5 51.421875 16.5 36.375 
Q 16.5 21.390625 20.328125 13.890625 
Q 24.171875 6.390625 31.78125 6.390625 
Q 39.453125 6.390625 43.28125 13.890625 
Q 47.125 21.390625 47.125 36.375 
Q 47.125 51.421875 43.28125 58.90625 
Q 39.453125 66.40625 31.78125 66.40625 
z
M 31.78125 74.21875 
Q 44.046875 74.21875 50.515625 64.515625 
Q 56.984375 54.828125 56.984375 36.375 
Q 56.984375 17.96875 50.515625 8.265625 
Q 44.046875 -1.421875 31.78125 -1.421875 
Q 19.53125 -1.421875 13.0625 8.265625 
Q 6.59375 17.96875 6.59375 36.375 
Q 6.59375 54.828125 13.0625 64.515625 
Q 19.53125 74.21875 31.78125 74.21875 
z
" id="DejaVuSans-48"/>
      </defs>
      <g transform="translate(68.81875 399.078438)scale(0.1 -0.1)">
       <use xlink:href="#DejaVuSans-48"/>
      </g>
     </g>
    </g>
    <g id="xtick_2">
     <g id="line2d_3">
      <path clip-path="url(#p03c6b83c0f)" d="M 161.28 384.48 
L 161.28 51.84 
" style="fill:none;stroke:#b0b0b0;stroke-linecap:square;stroke-width:0.8;"/>
     </g>
     <g id="line2d_4">
      <g>
       <use style="stroke:#000000;stroke-width:0.8;" x="161.28" xlink:href="#m4bd4e8cfcf" y="384.48"/>
      </g>
     </g>
     <g id="text_2">
      <!-- 10 -->
      <defs>
       <path d="M 12.40625 8.296875 
L 28.515625 8.296875 
L 28.515625 63.921875 
L 10.984375 60.40625 
L 10.984375 69.390625 
L 28.421875 72.90625 
L 38.28125 72.90625 
L 38.28125 8.296875 
L 54.390625 8.296875 
L 54.390625 0 
L 12.40625 0 
z
" id="DejaVuSans-49"/>
      </defs>
      <g transform="translate(154.9175 399.078438)scale(0.1 -0.1)">
       <use xlink:href="#DejaVuSans-49"/>
       <use x="63.623047" xlink:href="#DejaVuSans-48"/>
      </g>
     </g>
    </g>
    <g id="xtick_3">
     <g id="line2d_5">
      <path clip-path="url(#p03c6b83c0f)" d="M 250.56 384.48 
L 250.56 51.84 
" style="fill:none;stroke:#b0b0b0;stroke-linecap:square;stroke-width:0.8;"/>
     </g>
     <g id="line2d_6">
      <g>
       <use style="stroke:#000000;stroke-width:0.8;" x="250.56" xlink:href="#m4bd4e8cfcf" y="384.48"/>
      </g>
     </g>
     <g id="text_3">
      <!-- 20 -->
      <defs>
       <path d="M 19.1875 8.296875 
L 53.609375 8.296875 
L 53.609375 0 
L 7.328125 0 
L 7.328125 8.296875 
Q 12.9375 14.109375 22.625 23.890625 
Q 32.328125 33.6875 34.8125 36.53125 
Q 39.546875 41.84375 41.421875 45.53125 
Q 43.3125 49.21875 43.3125 52.78125 
Q 43.3125 58.59375 39.234375 62.25 
Q 35.15625 65.921875 28.609375 65.921875 
Q 23.96875 65.921875 18.8125 64.3125 
Q 13.671875 62.703125 7.8125 59.421875 
L 7.8125 69.390625 
Q 13.765625 71.78125 18.9375 73 
Q 24.125 74.21875 28.421875 74.21875 
Q 39.75 74.21875 46.484375 68.546875 
Q 53.21875 62.890625 53.21875 53.421875 
Q 53.21875 48.921875 51.53125 44.890625 
Q 49.859375 40.875 45.40625 35.40625 
Q 44.1875 33.984375 37.640625 27.21875 
Q 31.109375 20.453125 19.1875 8.296875 
z
" id="DejaVuSans-50"/>
      </defs>
      <g transform="translate(244.1975 399.078438)scale(0.1 -0.1)">
       <use xlink:href="#DejaVuSans-50"/>
       <use x="63.623047" xlink:href="#DejaVuSans-48"/>
      </g>
     </g>
    </g>
    <g id="xtick_4">
     <g id="line2d_7">
      <path clip-path="url(#p03c6b83c0f)" d="M 339.84 384.48 
L 339.84 51.84 
" style="fill:none;stroke:#b0b0b0;stroke-linecap:square;stroke-width:0.8;"/>
     </g>
     <g id="line2d_8">
      <g>
       <use style="stroke:#000000;stroke-width:0.8;" x="339.84" xlink:href="#m4bd4e8cfcf" y="384.48"/>
      </g>
     </g>
     <g id="text_4">
      <!-- 30 -->
      <defs>
       <path d="M 40.578125 39.3125 
Q 47.65625 37.796875 51.625 33 
Q 55.609375 28.21875 55.609375 21.1875 
Q 55.609375 10.40625 48.1875 4.484375 
Q 40.765625 -1.421875 27.09375 -1.421875 
Q 22.515625 -1.421875 17.65625 -0.515625 
Q 12.796875 0.390625 7.625 2.203125 
L 7.625 11.71875 
Q 11.71875 9.328125 16.59375 8.109375 
Q 21.484375 6.890625 26.8125 6.890625 
Q 36.078125 6.890625 40.9375 10.546875 
Q 45.796875 14.203125 45.796875 21.1875 
Q 45.796875 27.640625 41.28125 31.265625 
Q 36.765625 34.90625 28.71875 34.90625 
L 20.21875 34.90625 
L 20.21875 43.015625 
L 29.109375 43.015625 
Q 36.375 43.015625 40.234375 45.921875 
Q 44.09375 48.828125 44.09375 54.296875 
Q 44.09375 59.90625 40.109375 62.90625 
Q 36.140625 65.921875 28.71875 65.921875 
Q 24.65625 65.921875 20.015625 65.03125 
Q 15.375 64.15625 9.8125 62.3125 
L 9.8125 71.09375 
Q 15.4375 72.65625 20.34375 73.4375 
Q 25.25 74.21875 29.59375 74.21875 
Q 40.828125 74.21875 47.359375 69.109375 
Q 53.90625 64.015625 53.90625 55.328125 
Q 53.90625 49.265625 50.4375 45.09375 
Q 46.96875 40.921875 40.578125 39.3125 
z
" id="DejaVuSans-51"/>
      </defs>
      <g transform="translate(333.4775 399.078438)scale(0.1 -0.1)">
       <use xlink:href="#DejaVuSans-51"/>
       <use x="63.623047" xlink:href="#DejaVuSans-48"/>
      </g>
     </g>
    </g>
    <g id="xtick_5">
     <g id="line2d_9">
      <path clip-path="url(#p03c6b83c0f)" d="M 429.12 384.48 
L 429.12 51.84 
" style="fill:none;stroke:#b0b0b0;stroke-linecap:square;stroke-width:0.8;"/>
     </g>
     <g id="line2d_10">
      <g>
       <use style="stroke:#000000;stroke-width:0.8;" x="429.12" xlink:href="#m4bd4e8cfcf" y="384.48"/>
      </g>
     </g>
     <g id="text_5">
      <!-- 40 -->
      <defs>
       <path d="M 37.796875 64.3125 
L 12.890625 25.390625 
L 37.796875 25.390625 
z
M 35.203125 72.90625 
L 47.609375 72.90625 
L 47.609375 25.390625 
L 58.015625 25.390625 
L 58.015625 17.1875 
L 47.609375 17.1875 
L 47.609375 0 
L 37.796875 0 
L 37.796875 17.1875 
L 4.890625 17.1875 
L 4.890625 26.703125 
z
" id="DejaVuSans-52"/>
      </defs>
      <g transform="translate(422.7575 399.078438)scale(0.1 -0.1)">
       <use xlink:href="#DejaVuSans-52"/>
       <use x="63.623047" xlink:href="#DejaVuSans-48"/>
      </g>
     </g>
    </g>
    <g id="xtick_6">
     <g id="line2d_11">
      <path clip-path="url(#p03c6b83c0f)" d="M 518.4 384.48 
L 518.4 51.84 
" style="fill:none;stroke:#b0b0b0;stroke-linecap:square;stroke-width:0.8;"/>
     </g>
     <g id="line2d_12">
      <g>
       <use style="stroke:#000000;stroke-width:0.8;" x="518.4" xlink:href="#m4bd4e8cfcf" y="384.48"/>
      </g>
     </g>
     <g id="text_6">
      <!-- 50 -->
      <defs>
       <path d="M 10.796875 72.90625 
L 49.515625 72.90625 
L 49.515625 64.59375 
L 19.828125 64.59375 
L 19.828125 46.734375 
Q 21.96875 47.46875 24.109375 47.828125 
Q 26.265625 48.1875 28.421875 48.1875 
Q 40.625 48.1875 47.75 41.5 
Q 54.890625 34.8125 54.890625 23.390625 
Q 54.890625 11.625 47.5625 5.09375 
Q 40.234375 -1.421875 26.90625 -1.421875 
Q 22.3125 -1.421875 17.546875 -0.640625 
Q 12.796875 0.140625 7.71875 1.703125 
L 7.71875 11.625 
Q 12.109375 9.234375 16.796875 8.0625 
Q 21.484375 6.890625 26.703125 6.890625 
Q 35.15625 6.890625 40.078125 11.328125 
Q 45.015625 15.765625 45.015625 23.390625 
Q 45.015625 31 40.078125 35.4375 
Q 35.15625 39.890625 26.703125 39.890625 
Q 22.75 39.890625 18.8125 39.015625 
Q 14.890625 38.140625 10.796875 36.28125 
z
" id="DejaVuSans-53"/>
      </defs>
      <g transform="translate(512.0375 399.078438)scale(0.1 -0.1)">
       <use xlink:href="#DejaVuSans-53"/>
       <use x="63.623047" xlink:href="#DejaVuSans-48"/>
      </g>
     </g>
    </g>
    <g id="text_7">
     <!-- Iteration -->
     <defs>
      <path d="M 9.8125 72.90625 
L 19.671875 72.90625 
L 19.671875 0 
L 9.8125 0 
z
" id="DejaVuSans-73"/>
      <path d="M 18.3125 70.21875 
L 18.3125 54.6875 
L 36.8125 54.6875 
L 36.8125 47.703125 
L 18.3125 47.703125 
L 18.3125 18.015625 
Q 18.3125 11.328125 20.140625 9.421875 
Q 21.96875 7.515625 27.59375 7.515625 
L 36.8125 7.515625 
L 36.8125 0 
L 27.59375 0 
Q 17.1875 0 13.234375 3.875 
Q 9.28125 7.765625 9.28125 18.015625 
L 9.28125 47.703125 
L 2.6875 47.703125 
L 2.6875 54.6875 
L 9.28125 54.6875 
L 9.28125 70.21875 
z
" id="DejaVuSans-116"/>
      <path d="M 56.203125 29.59375 
L 56.203125 25.203125 
L 14.890625 25.203125 
Q 15.484375 15.921875 20.484375 11.0625 
Q 25.484375 6.203125 34.421875 6.203125 
Q 39.59375 6.203125 44.453125 7.46875 
Q 49.3125 8.734375 54.109375 11.28125 
L 54.109375 2.78125 
Q 49.265625 0.734375 44.1875 -0.34375 
Q 39.109375 -1.421875 33.890625 -1.421875 
Q 20.796875 -1.421875 13.15625 6.1875 
Q 5.515625 13.8125 5.515625 26.8125 
Q 5.515625 40.234375 12.765625 48.109375 
Q 20.015625 56 32.328125 56 
Q 43.359375 56 49.78125 48.890625 
Q 56.203125 41.796875 56.203125 29.59375 
z
M 47.21875 32.234375 
Q 47.125 39.59375 43.09375 43.984375 
Q 39.0625 48.390625 32.421875 48.390625 
Q 24.90625 48.390625 20.390625 44.140625 
Q 15.875 39.890625 15.1875 32.171875 
z
" id="DejaVuSans-101"/>
      <path d="M 41.109375 46.296875 
Q 39.59375 47.171875 37.8125 47.578125 
Q 36.03125 48 33.890625 48 
Q 26.265625 48 22.1875 43.046875 
Q 18.109375 38.09375 18.109375 28.8125 
L 18.109375 0 
L 9.078125 0 
L 9.078125 54.6875 
L 18.109375 54.6875 
L 18.109375 46.1875 
Q 20.953125 51.171875 25.484375 53.578125 
Q 30.03125 56 36.53125 56 
Q 37.453125 56 38.578125 55.875 
Q 39.703125 55.765625 41.0625 55.515625 
z
" id="DejaVuSans-114"/>
      <path d="M 34.28125 27.484375 
Q 23.390625 27.484375 19.1875 25 
Q 14.984375 22.515625 14.984375 16.5 
Q 14.984375 11.71875 18.140625 8.90625 
Q 21.296875 6.109375 26.703125 6.109375 
Q 34.1875 6.109375 38.703125 11.40625 
Q 43.21875 16.703125 43.21875 25.484375 
L 43.21875 27.484375 
z
M 52.203125 31.203125 
L 52.203125 0 
L 43.21875 0 
L 43.21875 8.296875 
Q 40.140625 3.328125 35.546875 0.953125 
Q 30.953125 -1.421875 24.3125 -1.421875 
Q 15.921875 -1.421875 10.953125 3.296875 
Q 6 8.015625 6 15.921875 
Q 6 25.140625 12.171875 29.828125 
Q 18.359375 34.515625 30.609375 34.515625 
L 43.21875 34.515625 
L 43.21875 35.40625 
Q 43.21875 41.609375 39.140625 45 
Q 35.0625 48.390625 27.6875 48.390625 
Q 23 48.390625 18.546875 47.265625 
Q 14.109375 46.140625 10.015625 43.890625 
L 10.015625 52.203125 
Q 14.9375 54.109375 19.578125 55.046875 
Q 24.21875 56 28.609375 56 
Q 40.484375 56 46.34375 49.84375 
Q 52.203125 43.703125 52.203125 31.203125 
z
" id="DejaVuSans-97"/>
      <path d="M 9.421875 54.6875 
L 18.40625 54.6875 
L 18.40625 0 
L 9.421875 0 
z
M 9.421875 75.984375 
L 18.40625 75.984375 
L 18.40625 64.59375 
L 9.421875 64.59375 
z
" id="DejaVuSans-105"/>
      <path d="M 30.609375 48.390625 
Q 23.390625 48.390625 19.1875 42.75 
Q 14.984375 37.109375 14.984375 27.296875 
Q 14.984375 17.484375 19.15625 11.84375 
Q 23.34375 6.203125 30.609375 6.203125 
Q 37.796875 6.203125 41.984375 11.859375 
Q 46.1875 17.53125 46.1875 27.296875 
Q 46.1875 37.015625 41.984375 42.703125 
Q 37.796875 48.390625 30.609375 48.390625 
z
M 30.609375 56 
Q 42.328125 56 49.015625 48.375 
Q 55.71875 40.765625 55.71875 27.296875 
Q 55.71875 13.875 49.015625 6.21875 
Q 42.328125 -1.421875 30.609375 -1.421875 
Q 18.84375 -1.421875 12.171875 6.21875 
Q 5.515625 13.875 5.515625 27.296875 
Q 5.515625 40.765625 12.171875 48.375 
Q 18.84375 56 30.609375 56 
z
" id="DejaVuSans-111"/>
      <path d="M 54.890625 33.015625 
L 54.890625 0 
L 45.90625 0 
L 45.90625 32.71875 
Q 45.90625 40.484375 42.875 44.328125 
Q 39.84375 48.1875 33.796875 48.1875 
Q 26.515625 48.1875 22.3125 43.546875 
Q 18.109375 38.921875 18.109375 30.90625 
L 18.109375 0 
L 9.078125 0 
L 9.078125 54.6875 
L 18.109375 54.6875 
L 18.109375 46.1875 
Q 21.34375 51.125 25.703125 53.5625 
Q 30.078125 56 35.796875 56 
Q 45.21875 56 50.046875 50.171875 
Q 54.890625 44.34375 54.890625 33.015625 
z
" id="DejaVuSans-110"/>
     </defs>
     <g transform="translate(273.991406 412.756563)scale(0.1 -0.1)">
      <use xlink:href="#DejaVuSans-73"/>
      <use x="29.492188" xlink:href="#DejaVuSans-116"/>
      <use x="68.701172" xlink:href="#DejaVuSans-101"/>
      <use x="130.224609" xlink:href="#DejaVuSans-114"/>
      <use x="171.337891" xlink:href="#DejaVuSans-97"/>
      <use x="232.617188" xlink:href="#DejaVuSans-116"/>
      <use x="271.826172" xlink:href="#DejaVuSans-105"/>
      <use x="299.609375" xlink:href="#DejaVuSans-111"/>
      <use x="360.791016" xlink:href="#DejaVuSans-110"/>
     </g>
    </g>
   </g>
   <g id="matplotlib.axis_2">
    <g id="ytick_1">
     <g id="line2d_13">
      <path clip-path="url(#p03c6b83c0f)" d="M 72 384.48 
L 518.4 384.48 
" style="fill:none;stroke:#b0b0b0;stroke-linecap:square;stroke-width:0.8;"/>
     </g>
     <g id="line2d_14">
      <defs>
       <path d="M 0 0 
L -3.5 0 
" id="m6e83999f2d" style="stroke:#000000;stroke-width:0.8;"/>
      </defs>
      <g>
       <use style="stroke:#000000;stroke-width:0.8;" x="72" xlink:href="#m6e83999f2d" y="384.48"/>
      </g>
     </g>
     <g id="text_8">
      <!-- $\mathdefault{10^{-12}}$ -->
      <defs>
       <path d="M 10.59375 35.5 
L 73.1875 35.5 
L 73.1875 27.203125 
L 10.59375 27.203125 
z
" id="DejaVuSans-8722"/>
      </defs>
      <g transform="translate(37.1 388.279219)scale(0.1 -0.1)">
       <use transform="translate(0 0.765625)" xlink:href="#DejaVuSans-49"/>
       <use transform="translate(63.623047 0.765625)" xlink:href="#DejaVuSans-48"/>
       <use transform="translate(128.203125 39.046875)scale(0.7)" xlink:href="#DejaVuSans-8722"/>
       <use transform="translate(186.855469 39.046875)scale(0.7)" xlink:href="#DejaVuSans-49"/>
       <use transform="translate(231.391602 39.046875)scale(0.7)" xlink:href="#DejaVuSans-50"/>
      </g>
     </g>
    </g>
    <g id="ytick_2">
     <g id="line2d_15">
      <path clip-path="url(#p03c6b83c0f)" d="M 72 336.96 
L 518.4 336.96 
" style="fill:none;stroke:#b0b0b0;stroke-linecap:square;stroke-width:0.8;"/>
     </g>
     <g id="line2d_16">
      <g>
       <use style="stroke:#000000;stroke-width:0.8;" x="72" xlink:href="#m6e83999f2d" y="336.96"/>
      </g>
     </g>
     <g id="text_9">
      <!-- $\mathdefault{10^{-10}}$ -->
      <g transform="translate(37.1 340.759219)scale(0.1 -0.1)">
       <use transform="translate(0 0.765625)" xlink:href="#DejaVuSans-49"/>
       <use transform="translate(63.623047 0.765625)" xlink:href="#DejaVuSans-48"/>
       <use transform="translate(128.203125 39.046875)scale(0.7)" xlink:href="#DejaVuSans-8722"/>
       <use transform="translate(186.855469 39.046875)scale(0.7)" xlink:href="#DejaVuSans-49"/>
       <use transform="translate(231.391602 39.046875)scale(0.7)" xlink:href="#DejaVuSans-48"/>
      </g>
     </g>
    </g>
    <g id="ytick_3">
     <g id="line2d_17">
      <path clip-path="url(#p03c6b83c0f)" d="M 72 289.44 
L 518.4 289.44 
" style="fill:none;stroke:#b0b0b0;stroke-linecap:square;stroke-width:0.8;"/>
     </g>
     <g id="line2d_18">
      <g>
       <use style="stroke:#000000;stroke-width:0.8;" x="72" xlink:href="#m6e83999f2d" y="289.44"/>
      </g>
     </g>
     <g id="text_10">
      <!-- $\mathdefault{10^{-8}}$ -->
      <defs>
       <path d="M 31.78125 34.625 
Q 24.75 34.625 20.71875 30.859375 
Q 16.703125 27.09375 16.703125 20.515625 
Q 16.703125 13.921875 20.71875 10.15625 
Q 24.75 6.390625 31.78125 6.390625 
Q 38.8125 6.390625 42.859375 10.171875 
Q 46.921875 13.96875 46.921875 20.515625 
Q 46.921875 27.09375 42.890625 30.859375 
Q 38.875 34.625 31.78125 34.625 
z
M 21.921875 38.8125 
Q 15.578125 40.375 12.03125 44.71875 
Q 8.5 49.078125 8.5 55.328125 
Q 8.5 64.0625 14.71875 69.140625 
Q 20.953125 74.21875 31.78125 74.21875 
Q 42.671875 74.21875 48.875 69.140625 
Q 55.078125 64.0625 55.078125 55.328125 
Q 55.078125 49.078125 51.53125 44.71875 
Q 48 40.375 41.703125 38.8125 
Q 48.828125 37.15625 52.796875 32.3125 
Q 56.78125 27.484375 56.78125 20.515625 
Q 56.78125 9.90625 50.3125 4.234375 
Q 43.84375 -1.421875 31.78125 -1.421875 
Q 19.734375 -1.421875 13.25 4.234375 
Q 6.78125 9.90625 6.78125 20.515625 
Q 6.78125 27.484375 10.78125 32.3125 
Q 14.796875 37.15625 21.921875 38.8125 
z
M 18.3125 54.390625 
Q 18.3125 48.734375 21.84375 45.5625 
Q 25.390625 42.390625 31.78125 42.390625 
Q 38.140625 42.390625 41.71875 45.5625 
Q 45.3125 48.734375 45.3125 54.390625 
Q 45.3125 60.0625 41.71875 63.234375 
Q 38.140625 66.40625 31.78125 66.40625 
Q 25.390625 66.40625 21.84375 63.234375 
Q 18.3125 60.0625 18.3125 54.390625 
z
" id="DejaVuSans-56"/>
      </defs>
      <g transform="translate(41.5 293.239219)scale(0.1 -0.1)">
       <use transform="translate(0 0.765625)" xlink:href="#DejaVuSans-49"/>
       <use transform="translate(63.623047 0.765625)" xlink:href="#DejaVuSans-48"/>
       <use transform="translate(128.203125 39.046875)scale(0.7)" xlink:href="#DejaVuSans-8722"/>
       <use transform="translate(186.855469 39.046875)scale(0.7)" xlink:href="#DejaVuSans-56"/>
      </g>
     </g>
    </g>
    <g id="ytick_4">
     <g id="line2d_19">
      <path clip-path="url(#p03c6b83c0f)" d="M 72 241.92 
L 518.4 241.92 
" style="fill:none;stroke:#b0b0b0;stroke-linecap:square;stroke-width:0.8;"/>
     </g>
     <g id="line2d_20">
      <g>
       <use style="stroke:#000000;stroke-width:0.8;" x="72" xlink:href="#m6e83999f2d" y="241.92"/>
      </g>
     </g>
     <g id="text_11">
      <!-- $\mathdefault{10^{-6}}$ -->
      <defs>
       <path d="M 33.015625 40.375 
Q 26.375 40.375 22.484375 35.828125 
Q 18.609375 31.296875 18.609375 23.390625 
Q 18.609375 15.53125 22.484375 10.953125 
Q 26.375 6.390625 33.015625 6.390625 
Q 39.65625 6.390625 43.53125 10.953125 
Q 47.40625 15.53125 47.40625 23.390625 
Q 47.40625 31.296875 43.53125 35.828125 
Q 39.65625 40.375 33.015625 40.375 
z
M 52.59375 71.296875 
L 52.59375 62.3125 
Q 48.875 64.0625 45.09375 64.984375 
Q 41.3125 65.921875 37.59375 65.921875 
Q 27.828125 65.921875 22.671875 59.328125 
Q 17.53125 52.734375 16.796875 39.40625 
Q 19.671875 43.65625 24.015625 45.921875 
Q 28.375 48.1875 33.59375 48.1875 
Q 44.578125 48.1875 50.953125 41.515625 
Q 57.328125 34.859375 57.328125 23.390625 
Q 57.328125 12.15625 50.6875 5.359375 
Q 44.046875 -1.421875 33.015625 -1.421875 
Q 20.359375 -1.421875 13.671875 8.265625 
Q 6.984375 17.96875 6.984375 36.375 
Q 6.984375 53.65625 15.1875 63.9375 
Q 23.390625 74.21875 37.203125 74.21875 
Q 40.921875 74.21875 44.703125 73.484375 
Q 48.484375 72.75 52.59375 71.296875 
z
" id="DejaVuSans-54"/>
      </defs>
      <g transform="translate(41.5 245.719219)scale(0.1 -0.1)">
       <use transform="translate(0 0.765625)" xlink:href="#DejaVuSans-49"/>
       <use transform="translate(63.623047 0.765625)" xlink:href="#DejaVuSans-48"/>
       <use transform="translate(128.203125 39.046875)scale(0.7)" xlink:href="#DejaVuSans-8722"/>
       <use transform="translate(186.855469 39.046875)scale(0.7)" xlink:href="#DejaVuSans-54"/>
      </g>
     </g>
    </g>
    <g id="ytick_5">
     <g id="line2d_21">
      <path clip-path="url(#p03c6b83c0f)" d="M 72 194.4 
L 518.4 194.4 
" style="fill:none;stroke:#b0b0b0;stroke-linecap:square;stroke-width:0.8;"/>
     </g>
     <g id="line2d_22">
      <g>
       <use style="stroke:#000000;stroke-width:0.8;" x="72" xlink:href="#m6e83999f2d" y="194.4"/>
      </g>
     </g>
     <g id="text_12">
      <!-- $\mathdefault{10^{-4}}$ -->
      <g transform="translate(41.5 198.199219)scale(0.1 -0.1)">
       <use transform="translate(0 0.684375)" xlink:href="#DejaVuSans-49"/>
       <use transform="translate(63.623047 0.684375)" xlink:href="#DejaVuSans-48"/>
       <use transform="translate(128.203125 38.965625)scale(0.7)" xlink:href="#DejaVuSans-8722"/>
       <use transform="translate(186.855469 38.965625)scale(0.7)" xlink:href="#DejaVuSans-52"/>
      </g>
     </g>
    </g>
    <g id="ytick_6">
     <g id="line2d_23">
      <path clip-path="url(#p03c6b83c0f)" d="M 72 146.88 
L 518.4 146.88 
" style="fill:none;stroke:#b0b0b0;stroke-linecap:square;stroke-width:0.8;"/>
     </g>
     <g id="line2d_24">
      <g>
       <use style="stroke:#000000;stroke-width:0.8;" x="72" xlink:href="#m6e83999f2d" y="146.88"/>
      </g>
     </g>
     <g id="text_13">
      <!-- $\mathdefault{10^{-2}}$ -->
      <g transform="translate(41.5 150.679219)scale(0.1 -0.1)">
       <use transform="translate(0 0.765625)" xlink:href="#DejaVuSans-49"/>
       <use transform="translate(63.623047 0.765625)" xlink:href="#DejaVuSans-48"/>
       <use transform="translate(128.203125 39.046875)scale(0.7)" xlink:href="#DejaVuSans-8722"/>
       <use transform="translate(186.855469 39.046875)scale(0.7)" xlink:href="#DejaVuSans-50"/>
      </g>
     </g>
    </g>
    <g id="ytick_7">
     <g id="line2d_25">
      <path clip-path="url(#p03c6b83c0f)" d="M 72 99.36 
L 518.4 99.36 
" style="fill:none;stroke:#b0b0b0;stroke-linecap:square;stroke-width:0.8;"/>
     </g>
     <g id="line2d_26">
      <g>
       <use style="stroke:#000000;stroke-width:0.8;" x="72" xlink:href="#m6e83999f2d" y="99.36"/>
      </g>
     </g>
     <g id="text_14">
      <!-- $\mathdefault{10^{0}}$ -->
      <g transform="translate(47.4 103.159219)scale(0.1 -0.1)">
       <use transform="translate(0 0.765625)" xlink:href="#DejaVuSans-49"/>
       <use transform="translate(63.623047 0.765625)" xlink:href="#DejaVuSans-48"/>
       <use transform="translate(128.203125 39.046875)scale(0.7)" xlink:href="#DejaVuSans-48"/>
      </g>
     </g>
    </g>
    <g id="ytick_8">
     <g id="line2d_27">
      <path clip-path="url(#p03c6b83c0f)" d="M 72 51.84 
L 518.4 51.84 
" style="fill:none;stroke:#b0b0b0;stroke-linecap:square;stroke-width:0.8;"/>
     </g>
     <g id="line2d_28">
      <g>
       <use style="stroke:#000000;stroke-width:0.8;" x="72" xlink:href="#m6e83999f2d" y="51.84"/>
      </g>
     </g>
     <g id="text_15">
      <!-- $\mathdefault{10^{2}}$ -->
      <g transform="translate(47.4 55.639219)scale(0.1 -0.1)">
       <use transform="translate(0 0.765625)" xlink:href="#DejaVuSans-49"/>
       <use transform="translate(63.623047 0.765625)" xlink:href="#DejaVuSans-48"/>
       <use transform="translate(128.203125 39.046875)scale(0.7)" xlink:href="#DejaVuSans-50"/>
      </g>
     </g>
    </g>
    <g id="text_16">
     <!-- Integrated Variance -->
     <defs>
      <path d="M 45.40625 27.984375 
Q 45.40625 37.75 41.375 43.109375 
Q 37.359375 48.484375 30.078125 48.484375 
Q 22.859375 48.484375 18.828125 43.109375 
Q 14.796875 37.75 14.796875 27.984375 
Q 14.796875 18.265625 18.828125 12.890625 
Q 22.859375 7.515625 30.078125 7.515625 
Q 37.359375 7.515625 41.375 12.890625 
Q 45.40625 18.265625 45.40625 27.984375 
z
M 54.390625 6.78125 
Q 54.390625 -7.171875 48.1875 -13.984375 
Q 42 -20.796875 29.203125 -20.796875 
Q 24.46875 -20.796875 20.265625 -20.09375 
Q 16.0625 -19.390625 12.109375 -17.921875 
L 12.109375 -9.1875 
Q 16.0625 -11.328125 19.921875 -12.34375 
Q 23.78125 -13.375 27.78125 -13.375 
Q 36.625 -13.375 41.015625 -8.765625 
Q 45.40625 -4.15625 45.40625 5.171875 
L 45.40625 9.625 
Q 42.625 4.78125 38.28125 2.390625 
Q 33.9375 0 27.875 0 
Q 17.828125 0 11.671875 7.65625 
Q 5.515625 15.328125 5.515625 27.984375 
Q 5.515625 40.671875 11.671875 48.328125 
Q 17.828125 56 27.875 56 
Q 33.9375 56 38.28125 53.609375 
Q 42.625 51.21875 45.40625 46.390625 
L 45.40625 54.6875 
L 54.390625 54.6875 
z
" id="DejaVuSans-103"/>
      <path d="M 45.40625 46.390625 
L 45.40625 75.984375 
L 54.390625 75.984375 
L 54.390625 0 
L 45.40625 0 
L 45.40625 8.203125 
Q 42.578125 3.328125 38.25 0.953125 
Q 33.9375 -1.421875 27.875 -1.421875 
Q 17.96875 -1.421875 11.734375 6.484375 
Q 5.515625 14.40625 5.515625 27.296875 
Q 5.515625 40.1875 11.734375 48.09375 
Q 17.96875 56 27.875 56 
Q 33.9375 56 38.25 53.625 
Q 42.578125 51.265625 45.40625 46.390625 
z
M 14.796875 27.296875 
Q 14.796875 17.390625 18.875 11.75 
Q 22.953125 6.109375 30.078125 6.109375 
Q 37.203125 6.109375 41.296875 11.75 
Q 45.40625 17.390625 45.40625 27.296875 
Q 45.40625 37.203125 41.296875 42.84375 
Q 37.203125 48.484375 30.078125 48.484375 
Q 22.953125 48.484375 18.875 42.84375 
Q 14.796875 37.203125 14.796875 27.296875 
z
" id="DejaVuSans-100"/>
      <path id="DejaVuSans-32"/>
      <path d="M 28.609375 0 
L 0.78125 72.90625 
L 11.078125 72.90625 
L 34.1875 11.53125 
L 57.328125 72.90625 
L 67.578125 72.90625 
L 39.796875 0 
z
" id="DejaVuSans-86"/>
      <path d="M 48.78125 52.59375 
L 48.78125 44.1875 
Q 44.96875 46.296875 41.140625 47.34375 
Q 37.3125 48.390625 33.40625 48.390625 
Q 24.65625 48.390625 19.8125 42.84375 
Q 14.984375 37.3125 14.984375 27.296875 
Q 14.984375 17.28125 19.8125 11.734375 
Q 24.65625 6.203125 33.40625 6.203125 
Q 37.3125 6.203125 41.140625 7.25 
Q 44.96875 8.296875 48.78125 10.40625 
L 48.78125 2.09375 
Q 45.015625 0.34375 40.984375 -0.53125 
Q 36.96875 -1.421875 32.421875 -1.421875 
Q 20.0625 -1.421875 12.78125 6.34375 
Q 5.515625 14.109375 5.515625 27.296875 
Q 5.515625 40.671875 12.859375 48.328125 
Q 20.21875 56 33.015625 56 
Q 37.15625 56 41.109375 55.140625 
Q 45.0625 54.296875 48.78125 52.59375 
z
" id="DejaVuSans-99"/>
     </defs>
     <g transform="translate(31.020312 267.534219)rotate(-90)scale(0.1 -0.1)">
      <use xlink:href="#DejaVuSans-73"/>
      <use x="29.492188" xlink:href="#DejaVuSans-110"/>
      <use x="92.871094" xlink:href="#DejaVuSans-116"/>
      <use x="132.080078" xlink:href="#DejaVuSans-101"/>
      <use x="193.603516" xlink:href="#DejaVuSans-103"/>
      <use x="257.080078" xlink:href="#DejaVuSans-114"/>
      <use x="298.193359" xlink:href="#DejaVuSans-97"/>
      <use x="359.472656" xlink:href="#DejaVuSans-116"/>
      <use x="398.681641" xlink:href="#DejaVuSans-101"/>
      <use x="460.205078" xlink:href="#DejaVuSans-100"/>
      <use x="523.681641" xlink:href="#DejaVuSans-32"/>
      <use x="555.46875" xlink:href="#DejaVuSans-86"/>
      <use x="616.126953" xlink:href="#DejaVuSans-97"/>
      <use x="677.40625" xlink:href="#DejaVuSans-114"/>
      <use x="718.519531" xlink:href="#DejaVuSans-105"/>
      <use x="746.302734" xlink:href="#DejaVuSans-97"/>
      <use x="807.582031" xlink:href="#DejaVuSans-110"/>
      <use x="870.960938" xlink:href="#DejaVuSans-99"/>
      <use x="925.941406" xlink:href="#DejaVuSans-101"/>
     </g>
    </g>
   </g>
   <g id="line2d_29">
    <path clip-path="url(#p03c6b83c0f)" d="M 348.637469 433 
L 348.768 85.416574 
L 348.898531 433 
" style="fill:none;stroke:#1f77b4;stroke-linecap:square;stroke-width:1.5;"/>
   </g>
   <g id="line2d_30">
    <path clip-path="url(#p03c6b83c0f)" d="M 72 129.019329 
L 80.928 135.402064 
L 89.856 155.979393 
L 98.784 163.551697 
L 107.712 158.107131 
L 116.64 161.333628 
L 125.568 163.396122 
L 134.496 156.895958 
L 143.424 140.843093 
L 152.352 136.657921 
L 161.28 138.903618 
L 170.208 126.683625 
L 179.136 124.068939 
L 188.064 128.341996 
L 196.992 128.780413 
L 205.92 130.638522 
L 214.848 129.481113 
L 223.776 132.148047 
L 232.704 133.695837 
L 241.632 140.50508 
L 250.56 147.825509 
L 259.488 156.318062 
L 268.416 164.884588 
L 277.344 173.505089 
L 286.272 181.588991 
L 295.2 191.355302 
L 304.128 201.123765 
L 313.056 211.102754 
L 321.984 221.662058 
L 330.912 233.416408 
L 339.84 244.087156 
L 348.768 257.11879 
L 357.696 266.53727 
L 366.624 273.687988 
L 375.552 263.802693 
L 384.48 251.173721 
L 393.408 246.731993 
L 402.336 245.230533 
L 411.264 238.521874 
L 420.192 236.534854 
L 429.12 237.116383 
L 438.048 233.585045 
L 446.976 232.616998 
L 455.904 228.734919 
L 464.832 235.366589 
L 473.76 229.318279 
L 482.688 225.702266 
L 491.616 225.230362 
L 500.544 223.044616 
L 509.472 227.241257 
L 518.4 223.917177 
" style="fill:none;stroke:#ff7f0e;stroke-linecap:square;stroke-width:1.5;"/>
   </g>
   <g id="line2d_31">
    <path clip-path="url(#p03c6b83c0f)" d="M 72 151.583917 
L 80.928 106.146429 
L 89.856 106.461366 
L 98.784 107.375325 
L 107.712 109.073257 
L 116.64 110.855717 
L 125.568 110.368656 
L 134.496 108.149533 
L 143.424 106.976449 
L 152.352 105.887216 
L 161.28 106.081792 
L 170.208 106.700518 
L 179.136 106.619359 
L 188.064 105.446738 
L 196.992 106.51423 
L 205.92 106.792723 
L 214.848 107.372958 
L 223.776 108.210172 
L 232.704 109.10654 
L 241.632 109.992163 
L 250.56 110.8671 
L 259.488 111.742024 
L 268.416 112.605145 
L 277.344 113.408365 
L 286.272 114.182862 
L 295.2 114.898017 
L 304.128 115.386986 
L 313.056 115.932452 
L 321.984 116.601211 
L 330.912 117.211963 
L 339.84 117.705812 
L 348.768 118.28938 
L 357.696 118.827424 
L 366.624 119.384532 
L 375.552 119.796186 
L 384.48 120.250871 
L 393.408 120.636124 
L 402.336 121.088299 
L 411.264 121.465189 
L 420.192 121.872533 
L 429.12 122.266902 
L 438.048 122.652125 
L 446.976 123.04892 
L 455.904 123.422505 
L 464.832 123.804815 
L 473.76 124.183439 
L 482.688 124.565488 
L 491.616 124.960163 
L 500.544 125.355801 
L 509.472 125.759917 
L 518.4 126.128122 
" style="fill:none;stroke:#2ca02c;stroke-linecap:square;stroke-width:1.5;"/>
   </g>
   <g id="line2d_32">
    <path clip-path="url(#p03c6b83c0f)" d="M 72 136.308601 
L 80.928 116.85233 
L 89.856 123.571133 
L 98.784 124.950252 
L 107.712 126.098513 
L 116.64 122.871139 
L 125.568 120.502131 
L 134.496 122.782488 
L 143.424 125.155956 
L 152.352 121.938761 
L 161.28 118.011937 
L 170.208 119.259951 
L 179.136 117.09978 
L 188.064 119.592475 
L 196.992 120.72363 
L 205.92 121.620063 
L 214.848 122.819832 
L 223.776 123.115825 
L 232.704 123.285602 
L 241.632 124.03417 
L 250.56 124.563651 
L 259.488 125.984149 
L 268.416 126.987388 
L 277.344 128.505671 
L 286.272 129.902825 
L 295.2 131.425663 
L 304.128 132.959185 
L 313.056 134.563155 
L 321.984 136.222256 
L 330.912 137.969886 
L 339.84 139.401133 
L 348.768 140.715963 
L 357.696 141.820153 
L 366.624 142.894773 
L 375.552 143.892159 
L 384.48 144.870526 
L 393.408 145.843777 
L 402.336 146.793193 
L 411.264 147.72716 
L 420.192 148.648809 
L 429.12 149.561068 
L 438.048 150.470418 
L 446.976 151.364658 
L 455.904 152.250395 
L 464.832 153.143265 
L 473.76 154.049752 
L 482.688 154.944101 
L 491.616 155.822891 
L 500.544 156.698179 
L 509.472 157.579648 
L 518.4 158.442989 
" style="fill:none;stroke:#d62728;stroke-linecap:square;stroke-width:1.5;"/>
   </g>
   <g id="line2d_33">
    <path clip-path="url(#p03c6b83c0f)" d="M 72 127.639075 
L 80.928 130.757085 
L 89.856 141.770009 
L 98.784 141.412012 
L 107.712 139.406213 
L 116.64 134.985927 
L 125.568 137.186147 
L 134.496 137.707683 
L 143.424 134.745845 
L 152.352 124.747916 
L 161.28 124.044236 
L 170.208 124.764132 
L 179.136 123.951999 
L 188.064 123.737437 
L 196.992 123.827364 
L 205.92 123.483348 
L 214.848 125.091439 
L 223.776 124.561974 
L 232.704 125.092597 
L 241.632 127.134663 
L 250.56 129.168599 
L 259.488 131.55506 
L 268.416 133.983123 
L 277.344 136.417391 
L 286.272 138.819361 
L 295.2 141.353071 
L 304.128 143.794976 
L 313.056 146.200713 
L 321.984 148.563579 
L 330.912 150.907515 
L 339.84 152.874259 
L 348.768 154.709425 
L 357.696 156.487105 
L 366.624 158.193589 
L 375.552 159.902845 
L 384.48 161.577761 
L 393.408 163.17341 
L 402.336 164.76652 
L 411.264 166.320654 
L 420.192 167.864111 
L 429.12 169.345946 
L 438.048 170.825015 
L 446.976 172.280472 
L 455.904 173.652694 
L 464.832 175.114152 
L 473.76 176.547294 
L 482.688 177.914901 
L 491.616 179.18483 
L 500.544 180.525847 
L 509.472 181.825952 
L 518.4 183.119191 
" style="fill:none;stroke:#9467bd;stroke-linecap:square;stroke-width:1.5;"/>
   </g>
   <g id="line2d_34">
    <path clip-path="url(#p03c6b83c0f)" d="M 72 150.855433 
L 80.928 114.868937 
L 89.856 115.662709 
L 98.784 116.073147 
L 107.712 117.259277 
L 116.64 115.82227 
L 125.568 117.131623 
L 134.496 117.106253 
L 143.424 110.672279 
L 152.352 111.64269 
L 161.28 109.500182 
L 170.208 105.203495 
L 179.136 103.536387 
L 188.064 104.358112 
L 196.992 104.938871 
L 205.92 104.132689 
L 214.848 105.115075 
L 223.776 104.285461 
L 232.704 103.686261 
L 241.632 103.702768 
L 250.56 104.668465 
L 259.488 105.44384 
L 268.416 107.988033 
L 277.344 111.229528 
L 286.272 117.014588 
L 295.2 151.491331 
L 304.128 197.514384 
L 313.056 209.546657 
L 321.984 222.462323 
L 330.912 234.671459 
L 339.84 245.406473 
L 348.768 256.527477 
L 357.696 266.962003 
L 366.624 273.332262 
L 375.552 269.268152 
L 384.48 256.267881 
L 393.408 241.976463 
L 402.336 242.854704 
L 411.264 238.727923 
L 420.192 232.421648 
L 429.12 232.691845 
L 438.048 230.199917 
L 446.976 226.477296 
L 455.904 226.062185 
L 464.832 230.190813 
L 473.76 221.345699 
L 482.688 227.446937 
L 491.616 222.805513 
L 500.544 219.195184 
L 509.472 218.177601 
L 518.4 216.256132 
" style="fill:none;stroke:#8c564b;stroke-linecap:square;stroke-width:1.5;"/>
   </g>
   <g id="line2d_35">
    <path clip-path="url(#p03c6b83c0f)" d="M 72 139.456764 
L 72.110488 433 
M 89.747337 433 
L 89.856 144.364672 
L 98.784 132.192984 
L 107.712 129.095809 
L 116.64 126.792881 
L 125.568 121.236498 
L 134.496 122.982283 
L 134.612607 433 
M 161.16206 433 
L 161.28 119.391906 
L 161.39794 433 
M 196.875492 433 
L 196.992 123.250549 
L 197.108508 433 
M 223.659423 433 
L 223.776 123.063789 
L 232.704 114.660678 
L 241.632 116.986145 
L 241.750833 433 
M 286.15421 433 
L 286.272 119.796776 
L 286.38979 433 
M 304.010542 433 
L 304.128 120.691534 
L 304.245458 433 
M 321.859917 433 
L 321.984 102.826146 
L 322.108083 433 
M 339.72005 433 
L 339.84 113.974878 
L 339.95995 433 
M 420.067917 433 
L 420.192 102.827427 
L 429.12 105.039864 
L 429.243263 433 
M 464.71108 433 
L 464.832 111.358451 
L 464.95292 433 
M 509.350082 433 
L 509.472 108.668362 
L 509.593918 433 
" style="fill:none;stroke:#e377c2;stroke-linecap:square;stroke-width:1.5;"/>
   </g>
   <g id="patch_3">
    <path d="M 72 384.48 
L 72 51.84 
" style="fill:none;stroke:#000000;stroke-linecap:square;stroke-linejoin:miter;stroke-width:0.8;"/>
   </g>
   <g id="patch_4">
    <path d="M 518.4 384.48 
L 518.4 51.84 
" style="fill:none;stroke:#000000;stroke-linecap:square;stroke-linejoin:miter;stroke-width:0.8;"/>
   </g>
   <g id="patch_5">
    <path d="M 72 384.48 
L 518.4 384.48 
" style="fill:none;stroke:#000000;stroke-linecap:square;stroke-linejoin:miter;stroke-width:0.8;"/>
   </g>
   <g id="patch_6">
    <path d="M 72 51.84 
L 518.4 51.84 
" style="fill:none;stroke:#000000;stroke-linecap:square;stroke-linejoin:miter;stroke-width:0.8;"/>
   </g>
   <g id="legend_1">
    <g id="patch_7">
     <path d="M 79 379.48 
L 165.804688 379.48 
Q 167.804688 379.48 167.804688 377.48 
L 167.804688 275.733125 
Q 167.804688 273.733125 165.804688 273.733125 
L 79 273.733125 
Q 77 273.733125 77 275.733125 
L 77 377.48 
Q 77 379.48 79 379.48 
z
" style="fill:#ffffff;opacity:0.8;stroke:#cccccc;stroke-linejoin:miter;"/>
    </g>
    <g id="line2d_36">
     <path d="M 81 281.831563 
L 101 281.831563 
" style="fill:none;stroke:#1f77b4;stroke-linecap:square;stroke-width:1.5;"/>
    </g>
    <g id="line2d_37"/>
    <g id="text_17">
     <!-- Constant -->
     <defs>
      <path d="M 64.40625 67.28125 
L 64.40625 56.890625 
Q 59.421875 61.53125 53.78125 63.8125 
Q 48.140625 66.109375 41.796875 66.109375 
Q 29.296875 66.109375 22.65625 58.46875 
Q 16.015625 50.828125 16.015625 36.375 
Q 16.015625 21.96875 22.65625 14.328125 
Q 29.296875 6.6875 41.796875 6.6875 
Q 48.140625 6.6875 53.78125 8.984375 
Q 59.421875 11.28125 64.40625 15.921875 
L 64.40625 5.609375 
Q 59.234375 2.09375 53.4375 0.328125 
Q 47.65625 -1.421875 41.21875 -1.421875 
Q 24.65625 -1.421875 15.125 8.703125 
Q 5.609375 18.84375 5.609375 36.375 
Q 5.609375 53.953125 15.125 64.078125 
Q 24.65625 74.21875 41.21875 74.21875 
Q 47.75 74.21875 53.53125 72.484375 
Q 59.328125 70.75 64.40625 67.28125 
z
" id="DejaVuSans-67"/>
      <path d="M 44.28125 53.078125 
L 44.28125 44.578125 
Q 40.484375 46.53125 36.375 47.5 
Q 32.28125 48.484375 27.875 48.484375 
Q 21.1875 48.484375 17.84375 46.4375 
Q 14.5 44.390625 14.5 40.28125 
Q 14.5 37.15625 16.890625 35.375 
Q 19.28125 33.59375 26.515625 31.984375 
L 29.59375 31.296875 
Q 39.15625 29.25 43.1875 25.515625 
Q 47.21875 21.78125 47.21875 15.09375 
Q 47.21875 7.46875 41.1875 3.015625 
Q 35.15625 -1.421875 24.609375 -1.421875 
Q 20.21875 -1.421875 15.453125 -0.5625 
Q 10.6875 0.296875 5.421875 2 
L 5.421875 11.28125 
Q 10.40625 8.6875 15.234375 7.390625 
Q 20.0625 6.109375 24.8125 6.109375 
Q 31.15625 6.109375 34.5625 8.28125 
Q 37.984375 10.453125 37.984375 14.40625 
Q 37.984375 18.0625 35.515625 20.015625 
Q 33.0625 21.96875 24.703125 23.78125 
L 21.578125 24.515625 
Q 13.234375 26.265625 9.515625 29.90625 
Q 5.8125 33.546875 5.8125 39.890625 
Q 5.8125 47.609375 11.28125 51.796875 
Q 16.75 56 26.8125 56 
Q 31.78125 56 36.171875 55.265625 
Q 40.578125 54.546875 44.28125 53.078125 
z
" id="DejaVuSans-115"/>
     </defs>
     <g transform="translate(109 285.331563)scale(0.1 -0.1)">
      <use xlink:href="#DejaVuSans-67"/>
      <use x="69.824219" xlink:href="#DejaVuSans-111"/>
      <use x="131.005859" xlink:href="#DejaVuSans-110"/>
      <use x="194.384766" xlink:href="#DejaVuSans-115"/>
      <use x="246.484375" xlink:href="#DejaVuSans-116"/>
      <use x="285.693359" xlink:href="#DejaVuSans-97"/>
      <use x="346.972656" xlink:href="#DejaVuSans-110"/>
      <use x="410.351562" xlink:href="#DejaVuSans-116"/>
     </g>
    </g>
    <g id="line2d_38">
     <path d="M 81 296.509688 
L 101 296.509688 
" style="fill:none;stroke:#ff7f0e;stroke-linecap:square;stroke-width:1.5;"/>
    </g>
    <g id="line2d_39"/>
    <g id="text_18">
     <!-- RBF -->
     <defs>
      <path d="M 44.390625 34.1875 
Q 47.5625 33.109375 50.5625 29.59375 
Q 53.5625 26.078125 56.59375 19.921875 
L 66.609375 0 
L 56 0 
L 46.6875 18.703125 
Q 43.0625 26.03125 39.671875 28.421875 
Q 36.28125 30.8125 30.421875 30.8125 
L 19.671875 30.8125 
L 19.671875 0 
L 9.8125 0 
L 9.8125 72.90625 
L 32.078125 72.90625 
Q 44.578125 72.90625 50.734375 67.671875 
Q 56.890625 62.453125 56.890625 51.90625 
Q 56.890625 45.015625 53.6875 40.46875 
Q 50.484375 35.9375 44.390625 34.1875 
z
M 19.671875 64.796875 
L 19.671875 38.921875 
L 32.078125 38.921875 
Q 39.203125 38.921875 42.84375 42.21875 
Q 46.484375 45.515625 46.484375 51.90625 
Q 46.484375 58.296875 42.84375 61.546875 
Q 39.203125 64.796875 32.078125 64.796875 
z
" id="DejaVuSans-82"/>
      <path d="M 19.671875 34.8125 
L 19.671875 8.109375 
L 35.5 8.109375 
Q 43.453125 8.109375 47.28125 11.40625 
Q 51.125 14.703125 51.125 21.484375 
Q 51.125 28.328125 47.28125 31.5625 
Q 43.453125 34.8125 35.5 34.8125 
z
M 19.671875 64.796875 
L 19.671875 42.828125 
L 34.28125 42.828125 
Q 41.5 42.828125 45.03125 45.53125 
Q 48.578125 48.25 48.578125 53.8125 
Q 48.578125 59.328125 45.03125 62.0625 
Q 41.5 64.796875 34.28125 64.796875 
z
M 9.8125 72.90625 
L 35.015625 72.90625 
Q 46.296875 72.90625 52.390625 68.21875 
Q 58.5 63.53125 58.5 54.890625 
Q 58.5 48.1875 55.375 44.234375 
Q 52.25 40.28125 46.1875 39.3125 
Q 53.46875 37.75 57.5 32.78125 
Q 61.53125 27.828125 61.53125 20.40625 
Q 61.53125 10.640625 54.890625 5.3125 
Q 48.25 0 35.984375 0 
L 9.8125 0 
z
" id="DejaVuSans-66"/>
      <path d="M 9.8125 72.90625 
L 51.703125 72.90625 
L 51.703125 64.59375 
L 19.671875 64.59375 
L 19.671875 43.109375 
L 48.578125 43.109375 
L 48.578125 34.8125 
L 19.671875 34.8125 
L 19.671875 0 
L 9.8125 0 
z
" id="DejaVuSans-70"/>
     </defs>
     <g transform="translate(109 300.009688)scale(0.1 -0.1)">
      <use xlink:href="#DejaVuSans-82"/>
      <use x="69.482422" xlink:href="#DejaVuSans-66"/>
      <use x="138.085938" xlink:href="#DejaVuSans-70"/>
     </g>
    </g>
    <g id="line2d_40">
     <path d="M 81 311.187813 
L 101 311.187813 
" style="fill:none;stroke:#2ca02c;stroke-linecap:square;stroke-width:1.5;"/>
    </g>
    <g id="line2d_41"/>
    <g id="text_19">
     <!-- Matrn-1/2 -->
     <defs>
      <path d="M 9.8125 72.90625 
L 24.515625 72.90625 
L 43.109375 23.296875 
L 61.8125 72.90625 
L 76.515625 72.90625 
L 76.515625 0 
L 66.890625 0 
L 66.890625 64.015625 
L 48.09375 14.015625 
L 38.1875 14.015625 
L 19.390625 64.015625 
L 19.390625 0 
L 9.8125 0 
z
" id="DejaVuSans-77"/>
      <path d="M 56.203125 29.59375 
L 56.203125 25.203125 
L 14.890625 25.203125 
Q 15.484375 15.921875 20.484375 11.0625 
Q 25.484375 6.203125 34.421875 6.203125 
Q 39.59375 6.203125 44.453125 7.46875 
Q 49.3125 8.734375 54.109375 11.28125 
L 54.109375 2.78125 
Q 49.265625 0.734375 44.1875 -0.34375 
Q 39.109375 -1.421875 33.890625 -1.421875 
Q 20.796875 -1.421875 13.15625 6.1875 
Q 5.515625 13.8125 5.515625 26.8125 
Q 5.515625 40.234375 12.765625 48.109375 
Q 20.015625 56 32.328125 56 
Q 43.359375 56 49.78125 48.890625 
Q 56.203125 41.796875 56.203125 29.59375 
z
M 47.21875 32.234375 
Q 47.125 39.59375 43.09375 43.984375 
Q 39.0625 48.390625 32.421875 48.390625 
Q 24.90625 48.390625 20.390625 44.140625 
Q 15.875 39.890625 15.1875 32.171875 
z
M 38.53125 79.984375 
L 48.25 79.984375 
L 32.34375 61.625 
L 24.859375 61.625 
z
" id="DejaVuSans-233"/>
      <path d="M 4.890625 31.390625 
L 31.203125 31.390625 
L 31.203125 23.390625 
L 4.890625 23.390625 
z
" id="DejaVuSans-45"/>
      <path d="M 25.390625 72.90625 
L 33.6875 72.90625 
L 8.296875 -9.28125 
L 0 -9.28125 
z
" id="DejaVuSans-47"/>
     </defs>
     <g transform="translate(109 314.687813)scale(0.1 -0.1)">
      <use xlink:href="#DejaVuSans-77"/>
      <use x="86.279297" xlink:href="#DejaVuSans-97"/>
      <use x="147.558594" xlink:href="#DejaVuSans-116"/>
      <use x="186.767578" xlink:href="#DejaVuSans-233"/>
      <use x="248.291016" xlink:href="#DejaVuSans-114"/>
      <use x="287.654297" xlink:href="#DejaVuSans-110"/>
      <use x="351.033203" xlink:href="#DejaVuSans-45"/>
      <use x="387.117188" xlink:href="#DejaVuSans-49"/>
      <use x="450.740234" xlink:href="#DejaVuSans-47"/>
      <use x="484.431641" xlink:href="#DejaVuSans-50"/>
     </g>
    </g>
    <g id="line2d_42">
     <path d="M 81 325.865938 
L 101 325.865938 
" style="fill:none;stroke:#d62728;stroke-linecap:square;stroke-width:1.5;"/>
    </g>
    <g id="line2d_43"/>
    <g id="text_20">
     <!-- Matrn-3/2 -->
     <g transform="translate(109 329.365938)scale(0.1 -0.1)">
      <use xlink:href="#DejaVuSans-77"/>
      <use x="86.279297" xlink:href="#DejaVuSans-97"/>
      <use x="147.558594" xlink:href="#DejaVuSans-116"/>
      <use x="186.767578" xlink:href="#DejaVuSans-233"/>
      <use x="248.291016" xlink:href="#DejaVuSans-114"/>
      <use x="287.654297" xlink:href="#DejaVuSans-110"/>
      <use x="351.033203" xlink:href="#DejaVuSans-45"/>
      <use x="387.117188" xlink:href="#DejaVuSans-51"/>
      <use x="450.740234" xlink:href="#DejaVuSans-47"/>
      <use x="484.431641" xlink:href="#DejaVuSans-50"/>
     </g>
    </g>
    <g id="line2d_44">
     <path d="M 81 340.544062 
L 101 340.544062 
" style="fill:none;stroke:#9467bd;stroke-linecap:square;stroke-width:1.5;"/>
    </g>
    <g id="line2d_45"/>
    <g id="text_21">
     <!-- Matrn-5/2 -->
     <g transform="translate(109 344.044062)scale(0.1 -0.1)">
      <use xlink:href="#DejaVuSans-77"/>
      <use x="86.279297" xlink:href="#DejaVuSans-97"/>
      <use x="147.558594" xlink:href="#DejaVuSans-116"/>
      <use x="186.767578" xlink:href="#DejaVuSans-233"/>
      <use x="248.291016" xlink:href="#DejaVuSans-114"/>
      <use x="287.654297" xlink:href="#DejaVuSans-110"/>
      <use x="351.033203" xlink:href="#DejaVuSans-45"/>
      <use x="387.117188" xlink:href="#DejaVuSans-53"/>
      <use x="450.740234" xlink:href="#DejaVuSans-47"/>
      <use x="484.431641" xlink:href="#DejaVuSans-50"/>
     </g>
    </g>
    <g id="line2d_46">
     <path d="M 81 355.222188 
L 101 355.222188 
" style="fill:none;stroke:#8c564b;stroke-linecap:square;stroke-width:1.5;"/>
    </g>
    <g id="line2d_47"/>
    <g id="text_22">
     <!-- RQ -->
     <defs>
      <path d="M 39.40625 66.21875 
Q 28.65625 66.21875 22.328125 58.203125 
Q 16.015625 50.203125 16.015625 36.375 
Q 16.015625 22.609375 22.328125 14.59375 
Q 28.65625 6.59375 39.40625 6.59375 
Q 50.140625 6.59375 56.421875 14.59375 
Q 62.703125 22.609375 62.703125 36.375 
Q 62.703125 50.203125 56.421875 58.203125 
Q 50.140625 66.21875 39.40625 66.21875 
z
M 53.21875 1.3125 
L 66.21875 -12.890625 
L 54.296875 -12.890625 
L 43.5 -1.21875 
Q 41.890625 -1.3125 41.03125 -1.359375 
Q 40.1875 -1.421875 39.40625 -1.421875 
Q 24.03125 -1.421875 14.8125 8.859375 
Q 5.609375 19.140625 5.609375 36.375 
Q 5.609375 53.65625 14.8125 63.9375 
Q 24.03125 74.21875 39.40625 74.21875 
Q 54.734375 74.21875 63.90625 63.9375 
Q 73.09375 53.65625 73.09375 36.375 
Q 73.09375 23.6875 67.984375 14.640625 
Q 62.890625 5.609375 53.21875 1.3125 
z
" id="DejaVuSans-81"/>
     </defs>
     <g transform="translate(109 358.722188)scale(0.1 -0.1)">
      <use xlink:href="#DejaVuSans-82"/>
      <use x="69.482422" xlink:href="#DejaVuSans-81"/>
     </g>
    </g>
    <g id="line2d_48">
     <path d="M 81 369.900313 
L 101 369.900313 
" style="fill:none;stroke:#e377c2;stroke-linecap:square;stroke-width:1.5;"/>
    </g>
    <g id="line2d_49"/>
    <g id="text_23">
     <!-- Dot Prod. -->
     <defs>
      <path d="M 19.671875 64.796875 
L 19.671875 8.109375 
L 31.59375 8.109375 
Q 46.6875 8.109375 53.6875 14.9375 
Q 60.6875 21.78125 60.6875 36.53125 
Q 60.6875 51.171875 53.6875 57.984375 
Q 46.6875 64.796875 31.59375 64.796875 
z
M 9.8125 72.90625 
L 30.078125 72.90625 
Q 51.265625 72.90625 61.171875 64.09375 
Q 71.09375 55.28125 71.09375 36.53125 
Q 71.09375 17.671875 61.125 8.828125 
Q 51.171875 0 30.078125 0 
L 9.8125 0 
z
" id="DejaVuSans-68"/>
      <path d="M 19.671875 64.796875 
L 19.671875 37.40625 
L 32.078125 37.40625 
Q 38.96875 37.40625 42.71875 40.96875 
Q 46.484375 44.53125 46.484375 51.125 
Q 46.484375 57.671875 42.71875 61.234375 
Q 38.96875 64.796875 32.078125 64.796875 
z
M 9.8125 72.90625 
L 32.078125 72.90625 
Q 44.34375 72.90625 50.609375 67.359375 
Q 56.890625 61.8125 56.890625 51.125 
Q 56.890625 40.328125 50.609375 34.8125 
Q 44.34375 29.296875 32.078125 29.296875 
L 19.671875 29.296875 
L 19.671875 0 
L 9.8125 0 
z
" id="DejaVuSans-80"/>
      <path d="M 10.6875 12.40625 
L 21 12.40625 
L 21 0 
L 10.6875 0 
z
" id="DejaVuSans-46"/>
     </defs>
     <g transform="translate(109 373.400313)scale(0.1 -0.1)">
      <use xlink:href="#DejaVuSans-68"/>
      <use x="77.001953" xlink:href="#DejaVuSans-111"/>
      <use x="138.183594" xlink:href="#DejaVuSans-116"/>
      <use x="177.392578" xlink:href="#DejaVuSans-32"/>
      <use x="209.179688" xlink:href="#DejaVuSans-80"/>
      <use x="267.732422" xlink:href="#DejaVuSans-114"/>
      <use x="306.595703" xlink:href="#DejaVuSans-111"/>
      <use x="367.777344" xlink:href="#DejaVuSans-100"/>
      <use x="431.253906" xlink:href="#DejaVuSans-46"/>
     </g>
    </g>
   </g>
  </g>
 </g>
 <defs>
  <clipPath id="p03c6b83c0f">
   <rect height="332.64" width="446.4" x="72" y="51.84"/>
  </clipPath>
 </defs>
</svg>
