<?xml version="1.0" encoding="utf-8" standalone="no"?>
<!DOCTYPE svg PUBLIC "-//W3C//DTD SVG 1.1//EN"
  "http://www.w3.org/Graphics/SVG/1.1/DTD/svg11.dtd">
<!-- Created with matplotlib (https://matplotlib.org/) -->
<svg height="345.6pt" version="1.1" viewBox="0 0 460.8 345.6" width="460.8pt" xmlns="http://www.w3.org/2000/svg" xmlns:xlink="http://www.w3.org/1999/xlink">
 <defs>
  <style type="text/css">
*{stroke-linecap:butt;stroke-linejoin:round;}
  </style>
 </defs>
 <g id="figure_1">
  <g id="patch_1">
   <path d="M 0 345.6 
L 460.8 345.6 
L 460.8 0 
L 0 0 
z
" style="fill:#ffffff;"/>
  </g>
  <g id="axes_1">
   <g id="patch_2">
    <path d="M 57.6 307.584 
L 414.72 307.584 
L 414.72 41.472 
L 57.6 41.472 
z
" style="fill:#ffffff;"/>
   </g>
   <g id="PolyCollection_1">
    <defs>
     <path d="M 87.36 -99.703032 
L 87.36 -99.710323 
L 88.848 -103.009897 
L 90.336 -105.767447 
L 91.824 -108.005742 
L 93.312 -109.754152 
L 94.8 -111.044324 
L 96.288 -111.909518 
L 97.776 -112.383985 
L 99.264 -112.502386 
L 100.752 -112.302913 
L 102.24 -113.171792 
L 103.728 -113.69147 
L 105.216 -113.822777 
L 106.704 -113.543791 
L 108.192 -112.846631 
L 109.68 -111.737519 
L 111.168 -110.236461 
L 112.656 -108.376578 
L 114.144 -106.203079 
L 115.632 -103.771905 
L 117.12 -101.148086 
L 118.608 -98.40384 
L 120.096 -95.616473 
L 121.584 -92.869748 
L 123.072 -91.372759 
L 124.56 -90.001857 
L 126.048 -88.779443 
L 127.536 -87.731367 
L 129.024 -86.882925 
L 130.512 -86.258351 
L 132 -85.880224 
L 133.488 -85.768776 
L 134.976 -85.941155 
L 136.464 -86.41063 
L 137.952 -87.185811 
L 139.44 -88.269869 
L 140.928 -89.65984 
L 142.416 -91.34962 
L 143.904 -94.442841 
L 145.392 -97.752973 
L 146.88 -101.190063 
L 148.368 -104.662608 
L 149.856 -108.076287 
L 151.344 -111.33638 
L 152.832 -114.350223 
L 154.32 -117.029619 
L 155.808 -119.293147 
L 157.296 -121.068303 
L 158.784 -122.293429 
L 160.272 -122.919382 
L 161.76 -122.914518 
L 163.248 -124.025925 
L 164.736 -124.638818 
L 166.224 -124.705511 
L 167.712 -124.193019 
L 169.2 -123.081043 
L 170.688 -121.363365 
L 172.176 -119.048935 
L 173.664 -116.162635 
L 175.152 -112.745666 
L 176.64 -108.855525 
L 178.128 -104.565565 
L 179.616 -99.964119 
L 181.104 -95.153198 
L 182.592 -90.246771 
L 184.08 -85.368669 
L 185.568 -80.650138 
L 187.056 -76.227101 
L 188.544 -72.237188 
L 190.032 -68.816598 
L 191.52 -66.096877 
L 193.008 -64.201678 
L 194.496 -63.243605 
L 195.984 -63.321205 
L 197.472 -64.516196 
L 198.96 -66.894635 
L 200.448 -72.103496 
L 201.936 -78.307066 
L 203.424 -85.462146 
L 204.912 -93.515051 
L 206.4 -102.398657 
L 207.888 -112.033228 
L 209.376 -122.32739 
L 210.864 -133.179224 
L 212.352 -144.477479 
L 213.84 -156.102881 
L 215.328 -167.929529 
L 216.816 -179.826381 
L 218.304 -191.66241 
L 219.792 -204.443582 
L 221.28 -216.810934 
L 222.768 -228.569003 
L 224.256 -239.534158 
L 225.744 -249.53459 
L 227.232 -258.413662 
L 228.72 -266.03294 
L 230.208 -272.274809 
L 231.696 -277.044648 
L 233.184 -280.2725 
L 234.672 -281.914211 
L 236.16 -281.955645 
L 237.648 -282.086335 
L 239.136 -280.82138 
L 240.624 -278.161742 
L 242.112 -274.13081 
L 243.6 -268.770898 
L 245.088 -262.14307 
L 246.576 -254.326648 
L 248.064 -245.418385 
L 249.552 -235.531313 
L 251.04 -224.793259 
L 252.528 -213.345046 
L 254.016 -201.338399 
L 255.504 -188.933586 
L 256.992 -176.296831 
L 258.48 -163.597536 
L 259.968 -151.005383 
L 261.456 -138.687349 
L 262.944 -126.804721 
L 264.432 -115.510157 
L 265.92 -104.944868 
L 267.408 -95.235996 
L 268.896 -86.49423 
L 270.384 -78.811748 
L 271.872 -72.260517 
L 273.36 -66.894634 
L 274.848 -64.353908 
L 276.336 -62.813162 
L 277.824 -62.220945 
L 279.312 -62.516956 
L 280.8 -63.630026 
L 282.288 -65.479807 
L 283.776 -67.978516 
L 285.264 -71.032691 
L 286.752 -74.544942 
L 288.24 -78.415663 
L 289.728 -82.544689 
L 291.216 -86.832871 
L 292.704 -91.183572 
L 294.192 -95.504044 
L 295.68 -99.710322 
L 297.168 -104.648966 
L 298.656 -109.223042 
L 300.144 -113.332652 
L 301.632 -116.89732 
L 303.12 -119.853717 
L 304.608 -122.156523 
L 306.096 -123.778813 
L 307.584 -124.711964 
L 309.072 -124.965103 
L 310.56 -124.564104 
L 312.048 -123.550204 
L 313.536 -121.97826 
L 315.024 -119.914721 
L 316.512 -117.435375 
L 318 -114.626537 
L 319.488 -112.135473 
L 320.976 -109.415335 
L 322.464 -106.529281 
L 323.952 -103.546787 
L 325.44 -100.538603 
L 326.928 -97.575242 
L 328.416 -94.725456 
L 329.904 -92.054721 
L 331.392 -89.623771 
L 332.88 -87.48721 
L 334.368 -85.692246 
L 335.856 -84.281146 
L 337.344 -83.754562 
L 338.832 -83.634763 
L 340.32 -83.900113 
L 341.808 -84.524492 
L 343.296 -85.474987 
L 344.784 -86.713252 
L 346.272 -88.196912 
L 347.76 -89.880956 
L 349.248 -91.719082 
L 350.736 -93.664935 
L 352.224 -95.673222 
L 353.712 -97.70066 
L 355.2 -99.710326 
L 356.688 -102.160761 
L 358.176 -104.492179 
L 359.664 -106.638838 
L 361.152 -108.54438 
L 362.64 -110.159927 
L 364.128 -111.445583 
L 365.616 -112.371733 
L 367.104 -112.920086 
L 368.592 -113.084444 
L 370.08 -112.871164 
L 371.568 -112.302911 
L 373.056 -112.121609 
L 374.544 -111.671274 
L 376.032 -110.936289 
L 377.52 -109.90337 
L 379.008 -108.557803 
L 380.496 -106.88341 
L 381.984 -104.862657 
L 383.472 -102.47689 
L 384.96 -99.710322 
L 384.96 -99.703033 
L 384.96 -99.703033 
L 383.472 -100.873826 
L 381.984 -102.300822 
L 380.496 -103.895833 
L 379.008 -105.56869 
L 377.52 -107.232843 
L 376.032 -108.807241 
L 374.544 -110.21808 
L 373.056 -111.400358 
L 371.568 -112.295624 
L 370.08 -112.215308 
L 368.592 -111.880206 
L 367.104 -111.304292 
L 365.616 -110.498417 
L 364.128 -109.47452 
L 362.64 -108.246252 
L 361.152 -106.829572 
L 359.664 -105.243298 
L 358.176 -103.509558 
L 356.688 -101.654127 
L 355.2 -99.703029 
L 353.712 -97.196091 
L 352.224 -94.697263 
L 350.736 -92.278559 
L 349.248 -90.006701 
L 347.76 -87.944902 
L 346.272 -86.151176 
L 344.784 -84.676813 
L 343.296 -83.565048 
L 341.808 -82.84996 
L 340.32 -82.555624 
L 338.832 -82.695524 
L 337.344 -83.272246 
L 335.856 -84.273868 
L 334.368 -85.212493 
L 332.88 -86.558293 
L 331.392 -88.302772 
L 329.904 -90.422623 
L 328.416 -92.883204 
L 326.928 -95.638767 
L 325.44 -98.63304 
L 323.952 -101.80015 
L 322.464 -105.065888 
L 320.976 -108.349288 
L 319.488 -111.564489 
L 318 -114.619261 
L 316.512 -116.814994 
L 315.024 -118.654536 
L 313.536 -120.090784 
L 312.048 -121.080643 
L 310.56 -121.589507 
L 309.072 -121.592005 
L 307.584 -121.072599 
L 306.096 -120.026013 
L 304.608 -118.45751 
L 303.12 -116.383009 
L 301.632 -113.829052 
L 300.144 -110.832616 
L 298.656 -107.440776 
L 297.168 -103.710225 
L 295.68 -99.703033 
L 294.192 -94.506514 
L 292.704 -89.170675 
L 291.216 -83.830651 
L 289.728 -78.624485 
L 288.24 -73.693706 
L 286.752 -69.18016 
L 285.264 -65.222763 
L 283.776 -61.954289 
L 282.288 -59.498241 
L 280.8 -57.965916 
L 279.312 -57.453714 
L 277.824 -58.040768 
L 276.336 -59.786953 
L 274.848 -62.731317 
L 273.36 -66.887346 
L 271.872 -70.458279 
L 270.384 -75.074358 
L 268.896 -80.741364 
L 267.408 -87.444133 
L 265.92 -95.149561 
L 264.432 -103.806277 
L 262.944 -113.344643 
L 261.456 -123.677113 
L 259.968 -134.698949 
L 258.48 -146.289309 
L 256.992 -158.312708 
L 255.504 -170.62084 
L 254.016 -183.054732 
L 252.528 -195.447216 
L 251.04 -207.625665 
L 249.552 -219.41495 
L 248.064 -230.640572 
L 246.576 -241.131882 
L 245.088 -250.725353 
L 243.6 -259.267802 
L 242.112 -266.619507 
L 240.624 -272.65714 
L 239.136 -277.276435 
L 237.648 -280.394542 
L 236.16 -281.948355 
L 234.672 -280.432186 
L 233.184 -277.558423 
L 231.696 -273.379039 
L 230.208 -267.958106 
L 228.72 -261.374152 
L 227.232 -253.718754 
L 225.744 -245.095007 
L 224.256 -235.615923 
L 222.768 -225.402751 
L 221.28 -214.583269 
L 219.792 -203.290053 
L 218.304 -191.65512 
L 216.816 -178.652756 
L 215.328 -165.622379 
L 213.84 -152.761101 
L 212.352 -140.255316 
L 210.864 -128.280727 
L 209.376 -116.999018 
L 207.888 -106.554868 
L 206.4 -97.073371 
L 204.912 -88.657927 
L 203.424 -81.388636 
L 201.936 -75.321247 
L 200.448 -70.486655 
L 198.96 -66.887345 
L 197.472 -62.694505 
L 195.984 -59.524062 
L 194.496 -57.374601 
L 193.008 -56.226117 
L 191.52 -56.043961 
L 190.032 -56.779392 
L 188.544 -58.370357 
L 187.056 -60.742511 
L 185.568 -63.810457 
L 184.08 -67.479207 
L 182.592 -71.645838 
L 181.104 -76.201326 
L 179.616 -81.032524 
L 178.128 -86.024256 
L 176.64 -91.061484 
L 175.152 -96.031501 
L 173.664 -100.826115 
L 172.176 -105.343766 
L 170.688 -109.491529 
L 169.2 -113.186961 
L 167.712 -116.35973 
L 166.224 -118.953008 
L 164.736 -120.924563 
L 163.248 -122.247532 
L 161.76 -122.907228 
L 160.272 -121.346994 
L 158.784 -119.394962 
L 157.296 -117.120786 
L 155.808 -114.59386 
L 154.32 -111.885015 
L 152.832 -109.064677 
L 151.344 -106.201188 
L 149.856 -103.359298 
L 148.368 -100.598872 
L 146.88 -97.973836 
L 145.392 -95.531366 
L 143.904 -93.311325 
L 142.416 -91.342333 
L 140.928 -88.541369 
L 139.44 -86.09867 
L 137.952 -84.076429 
L 136.464 -82.520747 
L 134.976 -81.464182 
L 133.488 -80.925059 
L 132 -80.907173 
L 130.512 -81.399887 
L 129.024 -82.378628 
L 127.536 -83.805763 
L 126.048 -85.631835 
L 124.56 -87.797105 
L 123.072 -90.233384 
L 121.584 -92.862459 
L 120.096 -94.455994 
L 118.608 -96.116804 
L 117.12 -97.823201 
L 115.632 -99.550163 
L 114.144 -101.272842 
L 112.656 -102.966375 
L 111.168 -104.605667 
L 109.68 -106.165145 
L 108.192 -107.618512 
L 106.704 -108.93853 
L 105.216 -110.096841 
L 103.728 -111.06385 
L 102.24 -111.808687 
L 100.752 -112.295621 
L 99.264 -111.122311 
L 97.776 -109.701109 
L 96.288 -108.106216 
L 94.8 -106.416985 
L 93.312 -104.719718 
L 91.824 -103.105698 
L 90.336 -101.669103 
L 88.848 -100.504889 
L 87.36 -99.703032 
z
" id="m5691a93346"/>
    </defs>
    <g clip-path="url(#pdda480bcd4)">
     <use style="fill:#347aeb;fill-opacity:0.6;" x="0" xlink:href="#m5691a93346" y="345.6"/>
    </g>
   </g>
   <g id="PathCollection_1">
    <defs>
     <path d="M 0 3 
C 0.795609 3 1.55874 2.683901 2.12132 2.12132 
C 2.683901 1.55874 3 0.795609 3 0 
C 3 -0.795609 2.683901 -1.55874 2.12132 -2.12132 
C 1.55874 -2.683901 0.795609 -3 0 -3 
C -0.795609 -3 -1.55874 -2.683901 -2.12132 -2.12132 
C -2.683901 -1.55874 -3 -0.795609 -3 0 
C -3 0.795609 -2.683901 1.55874 -2.12132 2.12132 
C -1.55874 2.683901 -0.795609 3 0 3 
z
" id="mab336371a1" style="stroke:#1f77b4;"/>
    </defs>
    <g clip-path="url(#pdda480bcd4)">
     <use style="fill:#1f77b4;stroke:#1f77b4;" x="87.36" xlink:href="#mab336371a1" y="245.893322"/>
     <use style="fill:#1f77b4;stroke:#1f77b4;" x="236.16" xlink:href="#mab336371a1" y="63.648"/>
     <use style="fill:#1f77b4;stroke:#1f77b4;" x="384.96" xlink:href="#mab336371a1" y="245.893322"/>
     <use style="fill:#1f77b4;stroke:#1f77b4;" x="161.76" xlink:href="#mab336371a1" y="222.689127"/>
     <use style="fill:#1f77b4;stroke:#1f77b4;" x="318" xlink:href="#mab336371a1" y="230.977101"/>
     <use style="fill:#1f77b4;stroke:#1f77b4;" x="121.584" xlink:href="#mab336371a1" y="252.733897"/>
     <use style="fill:#1f77b4;stroke:#1f77b4;" x="355.2" xlink:href="#mab336371a1" y="245.893322"/>
     <use style="fill:#1f77b4;stroke:#1f77b4;" x="273.36" xlink:href="#mab336371a1" y="278.70901"/>
     <use style="fill:#1f77b4;stroke:#1f77b4;" x="198.96" xlink:href="#mab336371a1" y="278.70901"/>
     <use style="fill:#1f77b4;stroke:#1f77b4;" x="295.68" xlink:href="#mab336371a1" y="245.893322"/>
     <use style="fill:#1f77b4;stroke:#1f77b4;" x="142.416" xlink:href="#mab336371a1" y="254.254024"/>
     <use style="fill:#1f77b4;stroke:#1f77b4;" x="218.304" xlink:href="#mab336371a1" y="153.941235"/>
     <use style="fill:#1f77b4;stroke:#1f77b4;" x="371.568" xlink:href="#mab336371a1" y="233.300733"/>
     <use style="fill:#1f77b4;stroke:#1f77b4;" x="100.752" xlink:href="#mab336371a1" y="233.300733"/>
     <use style="fill:#1f77b4;stroke:#1f77b4;" x="335.856" xlink:href="#mab336371a1" y="261.322494"/>
    </g>
   </g>
   <g id="matplotlib.axis_1">
    <g id="xtick_1">
     <g id="line2d_1">
      <defs>
       <path d="M 0 0 
L 0 3.5 
" id="mc18242aa96" style="stroke:#000000;stroke-width:0.8;"/>
      </defs>
      <g>
       <use style="stroke:#000000;stroke-width:0.8;" x="57.6" xlink:href="#mc18242aa96" y="307.584"/>
      </g>
     </g>
     <g id="text_1">
      <!-- −6 -->
      <defs>
       <path d="M 10.59375 35.5 
L 73.1875 35.5 
L 73.1875 27.203125 
L 10.59375 27.203125 
z
" id="DejaVuSans-8722"/>
       <path d="M 33.015625 40.375 
Q 26.375 40.375 22.484375 35.828125 
Q 18.609375 31.296875 18.609375 23.390625 
Q 18.609375 15.53125 22.484375 10.953125 
Q 26.375 6.390625 33.015625 6.390625 
Q 39.65625 6.390625 43.53125 10.953125 
Q 47.40625 15.53125 47.40625 23.390625 
Q 47.40625 31.296875 43.53125 35.828125 
Q 39.65625 40.375 33.015625 40.375 
z
M 52.59375 71.296875 
L 52.59375 62.3125 
Q 48.875 64.0625 45.09375 64.984375 
Q 41.3125 65.921875 37.59375 65.921875 
Q 27.828125 65.921875 22.671875 59.328125 
Q 17.53125 52.734375 16.796875 39.40625 
Q 19.671875 43.65625 24.015625 45.921875 
Q 28.375 48.1875 33.59375 48.1875 
Q 44.578125 48.1875 50.953125 41.515625 
Q 57.328125 34.859375 57.328125 23.390625 
Q 57.328125 12.15625 50.6875 5.359375 
Q 44.046875 -1.421875 33.015625 -1.421875 
Q 20.359375 -1.421875 13.671875 8.265625 
Q 6.984375 17.96875 6.984375 36.375 
Q 6.984375 53.65625 15.1875 63.9375 
Q 23.390625 74.21875 37.203125 74.21875 
Q 40.921875 74.21875 44.703125 73.484375 
Q 48.484375 72.75 52.59375 71.296875 
z
" id="DejaVuSans-54"/>
      </defs>
      <g transform="translate(50.228906 322.182437)scale(0.1 -0.1)">
       <use xlink:href="#DejaVuSans-8722"/>
       <use x="83.789062" xlink:href="#DejaVuSans-54"/>
      </g>
     </g>
    </g>
    <g id="xtick_2">
     <g id="line2d_2">
      <g>
       <use style="stroke:#000000;stroke-width:0.8;" x="117.12" xlink:href="#mc18242aa96" y="307.584"/>
      </g>
     </g>
     <g id="text_2">
      <!-- −4 -->
      <defs>
       <path d="M 37.796875 64.3125 
L 12.890625 25.390625 
L 37.796875 25.390625 
z
M 35.203125 72.90625 
L 47.609375 72.90625 
L 47.609375 25.390625 
L 58.015625 25.390625 
L 58.015625 17.1875 
L 47.609375 17.1875 
L 47.609375 0 
L 37.796875 0 
L 37.796875 17.1875 
L 4.890625 17.1875 
L 4.890625 26.703125 
z
" id="DejaVuSans-52"/>
      </defs>
      <g transform="translate(109.748906 322.182437)scale(0.1 -0.1)">
       <use xlink:href="#DejaVuSans-8722"/>
       <use x="83.789062" xlink:href="#DejaVuSans-52"/>
      </g>
     </g>
    </g>
    <g id="xtick_3">
     <g id="line2d_3">
      <g>
       <use style="stroke:#000000;stroke-width:0.8;" x="176.64" xlink:href="#mc18242aa96" y="307.584"/>
      </g>
     </g>
     <g id="text_3">
      <!-- −2 -->
      <defs>
       <path d="M 19.1875 8.296875 
L 53.609375 8.296875 
L 53.609375 0 
L 7.328125 0 
L 7.328125 8.296875 
Q 12.9375 14.109375 22.625 23.890625 
Q 32.328125 33.6875 34.8125 36.53125 
Q 39.546875 41.84375 41.421875 45.53125 
Q 43.3125 49.21875 43.3125 52.78125 
Q 43.3125 58.59375 39.234375 62.25 
Q 35.15625 65.921875 28.609375 65.921875 
Q 23.96875 65.921875 18.8125 64.3125 
Q 13.671875 62.703125 7.8125 59.421875 
L 7.8125 69.390625 
Q 13.765625 71.78125 18.9375 73 
Q 24.125 74.21875 28.421875 74.21875 
Q 39.75 74.21875 46.484375 68.546875 
Q 53.21875 62.890625 53.21875 53.421875 
Q 53.21875 48.921875 51.53125 44.890625 
Q 49.859375 40.875 45.40625 35.40625 
Q 44.1875 33.984375 37.640625 27.21875 
Q 31.109375 20.453125 19.1875 8.296875 
z
" id="DejaVuSans-50"/>
      </defs>
      <g transform="translate(169.268906 322.182437)scale(0.1 -0.1)">
       <use xlink:href="#DejaVuSans-8722"/>
       <use x="83.789062" xlink:href="#DejaVuSans-50"/>
      </g>
     </g>
    </g>
    <g id="xtick_4">
     <g id="line2d_4">
      <g>
       <use style="stroke:#000000;stroke-width:0.8;" x="236.16" xlink:href="#mc18242aa96" y="307.584"/>
      </g>
     </g>
     <g id="text_4">
      <!-- 0 -->
      <defs>
       <path d="M 31.78125 66.40625 
Q 24.171875 66.40625 20.328125 58.90625 
Q 16.5 51.421875 16.5 36.375 
Q 16.5 21.390625 20.328125 13.890625 
Q 24.171875 6.390625 31.78125 6.390625 
Q 39.453125 6.390625 43.28125 13.890625 
Q 47.125 21.390625 47.125 36.375 
Q 47.125 51.421875 43.28125 58.90625 
Q 39.453125 66.40625 31.78125 66.40625 
z
M 31.78125 74.21875 
Q 44.046875 74.21875 50.515625 64.515625 
Q 56.984375 54.828125 56.984375 36.375 
Q 56.984375 17.96875 50.515625 8.265625 
Q 44.046875 -1.421875 31.78125 -1.421875 
Q 19.53125 -1.421875 13.0625 8.265625 
Q 6.59375 17.96875 6.59375 36.375 
Q 6.59375 54.828125 13.0625 64.515625 
Q 19.53125 74.21875 31.78125 74.21875 
z
" id="DejaVuSans-48"/>
      </defs>
      <g transform="translate(232.97875 322.182437)scale(0.1 -0.1)">
       <use xlink:href="#DejaVuSans-48"/>
      </g>
     </g>
    </g>
    <g id="xtick_5">
     <g id="line2d_5">
      <g>
       <use style="stroke:#000000;stroke-width:0.8;" x="295.68" xlink:href="#mc18242aa96" y="307.584"/>
      </g>
     </g>
     <g id="text_5">
      <!-- 2 -->
      <g transform="translate(292.49875 322.182437)scale(0.1 -0.1)">
       <use xlink:href="#DejaVuSans-50"/>
      </g>
     </g>
    </g>
    <g id="xtick_6">
     <g id="line2d_6">
      <g>
       <use style="stroke:#000000;stroke-width:0.8;" x="355.2" xlink:href="#mc18242aa96" y="307.584"/>
      </g>
     </g>
     <g id="text_6">
      <!-- 4 -->
      <g transform="translate(352.01875 322.182437)scale(0.1 -0.1)">
       <use xlink:href="#DejaVuSans-52"/>
      </g>
     </g>
    </g>
    <g id="xtick_7">
     <g id="line2d_7">
      <g>
       <use style="stroke:#000000;stroke-width:0.8;" x="414.72" xlink:href="#mc18242aa96" y="307.584"/>
      </g>
     </g>
     <g id="text_7">
      <!-- 6 -->
      <g transform="translate(411.53875 322.182437)scale(0.1 -0.1)">
       <use xlink:href="#DejaVuSans-54"/>
      </g>
     </g>
    </g>
   </g>
   <g id="matplotlib.axis_2">
    <g id="ytick_1">
     <g id="line2d_8">
      <defs>
       <path d="M 0 0 
L -3.5 0 
" id="mbbe274200e" style="stroke:#000000;stroke-width:0.8;"/>
      </defs>
      <g>
       <use style="stroke:#000000;stroke-width:0.8;" x="57.6" xlink:href="#mbbe274200e" y="282.342387"/>
      </g>
     </g>
     <g id="text_8">
      <!-- −0.2 -->
      <defs>
       <path d="M 10.6875 12.40625 
L 21 12.40625 
L 21 0 
L 10.6875 0 
z
" id="DejaVuSans-46"/>
      </defs>
      <g transform="translate(26.317187 286.141606)scale(0.1 -0.1)">
       <use xlink:href="#DejaVuSans-8722"/>
       <use x="83.789062" xlink:href="#DejaVuSans-48"/>
       <use x="147.412109" xlink:href="#DejaVuSans-46"/>
       <use x="179.199219" xlink:href="#DejaVuSans-50"/>
      </g>
     </g>
    </g>
    <g id="ytick_2">
     <g id="line2d_9">
      <g>
       <use style="stroke:#000000;stroke-width:0.8;" x="57.6" xlink:href="#mbbe274200e" y="245.893322"/>
      </g>
     </g>
     <g id="text_9">
      <!-- 0.0 -->
      <g transform="translate(34.696875 249.692541)scale(0.1 -0.1)">
       <use xlink:href="#DejaVuSans-48"/>
       <use x="63.623047" xlink:href="#DejaVuSans-46"/>
       <use x="95.410156" xlink:href="#DejaVuSans-48"/>
      </g>
     </g>
    </g>
    <g id="ytick_3">
     <g id="line2d_10">
      <g>
       <use style="stroke:#000000;stroke-width:0.8;" x="57.6" xlink:href="#mbbe274200e" y="209.444258"/>
      </g>
     </g>
     <g id="text_10">
      <!-- 0.2 -->
      <g transform="translate(34.696875 213.243477)scale(0.1 -0.1)">
       <use xlink:href="#DejaVuSans-48"/>
       <use x="63.623047" xlink:href="#DejaVuSans-46"/>
       <use x="95.410156" xlink:href="#DejaVuSans-50"/>
      </g>
     </g>
    </g>
    <g id="ytick_4">
     <g id="line2d_11">
      <g>
       <use style="stroke:#000000;stroke-width:0.8;" x="57.6" xlink:href="#mbbe274200e" y="172.995193"/>
      </g>
     </g>
     <g id="text_11">
      <!-- 0.4 -->
      <g transform="translate(34.696875 176.794412)scale(0.1 -0.1)">
       <use xlink:href="#DejaVuSans-48"/>
       <use x="63.623047" xlink:href="#DejaVuSans-46"/>
       <use x="95.410156" xlink:href="#DejaVuSans-52"/>
      </g>
     </g>
    </g>
    <g id="ytick_5">
     <g id="line2d_12">
      <g>
       <use style="stroke:#000000;stroke-width:0.8;" x="57.6" xlink:href="#mbbe274200e" y="136.546129"/>
      </g>
     </g>
     <g id="text_12">
      <!-- 0.6 -->
      <g transform="translate(34.696875 140.345348)scale(0.1 -0.1)">
       <use xlink:href="#DejaVuSans-48"/>
       <use x="63.623047" xlink:href="#DejaVuSans-46"/>
       <use x="95.410156" xlink:href="#DejaVuSans-54"/>
      </g>
     </g>
    </g>
    <g id="ytick_6">
     <g id="line2d_13">
      <g>
       <use style="stroke:#000000;stroke-width:0.8;" x="57.6" xlink:href="#mbbe274200e" y="100.097064"/>
      </g>
     </g>
     <g id="text_13">
      <!-- 0.8 -->
      <defs>
       <path d="M 31.78125 34.625 
Q 24.75 34.625 20.71875 30.859375 
Q 16.703125 27.09375 16.703125 20.515625 
Q 16.703125 13.921875 20.71875 10.15625 
Q 24.75 6.390625 31.78125 6.390625 
Q 38.8125 6.390625 42.859375 10.171875 
Q 46.921875 13.96875 46.921875 20.515625 
Q 46.921875 27.09375 42.890625 30.859375 
Q 38.875 34.625 31.78125 34.625 
z
M 21.921875 38.8125 
Q 15.578125 40.375 12.03125 44.71875 
Q 8.5 49.078125 8.5 55.328125 
Q 8.5 64.0625 14.71875 69.140625 
Q 20.953125 74.21875 31.78125 74.21875 
Q 42.671875 74.21875 48.875 69.140625 
Q 55.078125 64.0625 55.078125 55.328125 
Q 55.078125 49.078125 51.53125 44.71875 
Q 48 40.375 41.703125 38.8125 
Q 48.828125 37.15625 52.796875 32.3125 
Q 56.78125 27.484375 56.78125 20.515625 
Q 56.78125 9.90625 50.3125 4.234375 
Q 43.84375 -1.421875 31.78125 -1.421875 
Q 19.734375 -1.421875 13.25 4.234375 
Q 6.78125 9.90625 6.78125 20.515625 
Q 6.78125 27.484375 10.78125 32.3125 
Q 14.796875 37.15625 21.921875 38.8125 
z
M 18.3125 54.390625 
Q 18.3125 48.734375 21.84375 45.5625 
Q 25.390625 42.390625 31.78125 42.390625 
Q 38.140625 42.390625 41.71875 45.5625 
Q 45.3125 48.734375 45.3125 54.390625 
Q 45.3125 60.0625 41.71875 63.234375 
Q 38.140625 66.40625 31.78125 66.40625 
Q 25.390625 66.40625 21.84375 63.234375 
Q 18.3125 60.0625 18.3125 54.390625 
z
" id="DejaVuSans-56"/>
      </defs>
      <g transform="translate(34.696875 103.896283)scale(0.1 -0.1)">
       <use xlink:href="#DejaVuSans-48"/>
       <use x="63.623047" xlink:href="#DejaVuSans-46"/>
       <use x="95.410156" xlink:href="#DejaVuSans-56"/>
      </g>
     </g>
    </g>
    <g id="ytick_7">
     <g id="line2d_14">
      <g>
       <use style="stroke:#000000;stroke-width:0.8;" x="57.6" xlink:href="#mbbe274200e" y="63.648"/>
      </g>
     </g>
     <g id="text_14">
      <!-- 1.0 -->
      <defs>
       <path d="M 12.40625 8.296875 
L 28.515625 8.296875 
L 28.515625 63.921875 
L 10.984375 60.40625 
L 10.984375 69.390625 
L 28.421875 72.90625 
L 38.28125 72.90625 
L 38.28125 8.296875 
L 54.390625 8.296875 
L 54.390625 0 
L 12.40625 0 
z
" id="DejaVuSans-49"/>
      </defs>
      <g transform="translate(34.696875 67.447219)scale(0.1 -0.1)">
       <use xlink:href="#DejaVuSans-49"/>
       <use x="63.623047" xlink:href="#DejaVuSans-46"/>
       <use x="95.410156" xlink:href="#DejaVuSans-48"/>
      </g>
     </g>
    </g>
   </g>
   <g id="line2d_15">
    <path clip-path="url(#pdda480bcd4)" d="M 87.36 245.893322 
L 90.336 241.881725 
L 93.312 238.363065 
L 94.8 236.869346 
L 96.288 235.592133 
L 97.776 234.557453 
L 99.264 233.787652 
L 100.752 233.300733 
L 102.24 233.109761 
L 103.728 233.22234 
L 105.216 233.640191 
L 106.704 234.35884 
L 108.192 235.367428 
L 109.68 236.648668 
L 111.168 238.178936 
L 112.656 239.928524 
L 115.632 243.938966 
L 123.072 254.796929 
L 124.56 256.700519 
L 126.048 258.394361 
L 127.536 259.831435 
L 129.024 260.969224 
L 130.512 261.770881 
L 132 262.206301 
L 133.488 262.253082 
L 134.976 261.897332 
L 136.464 261.134311 
L 137.952 259.96888 
L 139.44 258.41573 
L 140.928 256.499395 
L 142.416 254.254024 
L 143.904 251.722917 
L 146.88 246.018051 
L 152.832 233.89255 
L 154.32 231.142683 
L 155.808 228.656496 
L 157.296 226.505456 
L 158.784 224.755805 
L 160.272 223.466812 
L 161.76 222.689127 
L 163.248 222.463271 
L 164.736 222.81831 
L 166.224 223.77074 
L 167.712 225.323626 
L 169.2 227.465998 
L 170.688 230.172553 
L 172.176 233.403649 
L 173.664 237.105625 
L 176.64 245.641496 
L 185.568 273.369703 
L 187.056 277.115194 
L 188.544 280.296228 
L 190.032 282.802005 
L 191.52 284.529581 
L 193.008 285.386103 
L 194.496 285.290897 
L 195.984 284.177366 
L 197.472 281.994649 
L 198.96 278.70901 
L 200.448 274.304924 
L 201.936 268.785843 
L 203.424 262.174609 
L 204.912 254.513511 
L 206.4 245.863986 
L 207.888 236.305952 
L 210.864 214.870025 
L 213.84 191.168009 
L 221.28 129.902899 
L 224.256 108.024959 
L 225.744 98.285202 
L 227.232 89.533792 
L 228.72 81.896454 
L 230.208 75.483543 
L 231.696 70.388156 
L 233.184 66.684538 
L 234.672 64.426801 
L 236.16 63.648 
L 237.648 64.359562 
L 239.136 66.551093 
L 240.624 70.190559 
L 242.112 75.224841 
L 243.6 81.58065 
L 245.088 89.165788 
L 246.576 97.870735 
L 248.064 107.570522 
L 251.04 129.390538 
L 254.016 153.403435 
L 259.968 202.747834 
L 262.944 225.525318 
L 264.432 235.941783 
L 265.92 245.552785 
L 267.408 254.259936 
L 268.896 261.982203 
L 270.384 268.656947 
L 271.872 274.240602 
L 273.36 278.70901 
L 274.848 282.057387 
L 276.336 284.299942 
L 277.824 285.469144 
L 279.312 285.614665 
L 280.8 284.802029 
L 282.288 283.110976 
L 283.776 280.633597 
L 285.264 277.472273 
L 286.752 273.737449 
L 288.24 269.545315 
L 291.216 260.268239 
L 295.68 245.893322 
L 298.656 237.268091 
L 300.144 233.517366 
L 301.632 230.236814 
L 303.12 227.481637 
L 304.608 225.292984 
L 306.096 223.697587 
L 307.584 222.707718 
L 309.072 222.321446 
L 310.56 222.523195 
L 312.048 223.284576 
L 313.536 224.565478 
L 315.024 226.315372 
L 316.512 228.474815 
L 318 230.977101 
L 320.976 236.717689 
L 326.928 248.992995 
L 328.416 251.79567 
L 329.904 254.361328 
L 331.392 256.636729 
L 332.88 258.577249 
L 334.368 260.14763 
L 335.856 261.322493 
L 337.344 262.086596 
L 338.832 262.434857 
L 340.32 262.372132 
L 341.808 261.912774 
L 343.296 261.079983 
L 344.784 259.904967 
L 346.272 258.425956 
L 347.76 256.687071 
L 350.736 252.628253 
L 358.176 241.599131 
L 359.664 239.658932 
L 361.152 237.913024 
L 362.64 236.396911 
L 364.128 235.139948 
L 365.616 234.164925 
L 367.104 233.487811 
L 368.592 233.117675 
L 370.08 233.056764 
L 371.568 233.300733 
L 373.056 233.839016 
L 374.544 234.655323 
L 376.032 235.728235 
L 377.52 237.031893 
L 379.008 238.536754 
L 381.984 242.018261 
L 384.96 245.893322 
L 384.96 245.893322 
" style="fill:none;stroke:#333333;stroke-linecap:square;stroke-width:1.5;"/>
   </g>
   <g id="line2d_16">
    <path clip-path="url(#pdda480bcd4)" d="M 87.36 245.893322 
L 91.824 240.463176 
L 94.8 237.257615 
L 96.288 235.907903 
L 97.776 234.777683 
L 99.264 233.899572 
L 100.752 233.300733 
L 102.24 233.002103 
L 103.728 233.017753 
L 105.216 233.354401 
L 106.704 234.011087 
L 108.192 234.979027 
L 109.68 236.24165 
L 111.168 237.77482 
L 112.656 239.547248 
L 115.632 243.652621 
L 123.072 254.866404 
L 124.56 256.831885 
L 126.048 258.577504 
L 127.536 260.054342 
L 129.024 261.21867 
L 130.512 262.03312 
L 132 262.467748 
L 133.488 262.500941 
L 134.976 262.120161 
L 136.464 261.322494 
L 137.952 260.11498 
L 139.44 258.514741 
L 140.928 256.548857 
L 142.416 254.254024 
L 143.904 251.675976 
L 146.88 245.893322 
L 152.832 233.715569 
L 154.32 230.977101 
L 155.808 228.511296 
L 157.296 226.388521 
L 158.784 224.67361 
L 160.272 223.424192 
L 161.76 222.689127 
L 163.248 222.507085 
L 164.736 222.905301 
L 166.224 223.898547 
L 167.712 225.488335 
L 169.2 227.662385 
L 170.688 230.394364 
L 172.176 233.643922 
L 173.664 237.357024 
L 176.64 245.893322 
L 185.568 273.50007 
L 187.056 277.219215 
L 188.544 280.375355 
L 190.032 282.858666 
L 191.52 284.566981 
L 193.008 285.408 
L 194.496 285.30136 
L 195.984 284.180525 
L 197.472 281.994454 
L 198.96 278.70901 
L 200.448 274.30808 
L 201.936 268.794375 
L 203.424 262.189892 
L 204.912 254.536027 
L 206.4 245.893322 
L 207.888 236.34086 
L 210.864 214.909546 
L 213.84 191.20051 
L 221.28 129.872347 
L 224.256 107.965191 
L 225.744 98.214113 
L 227.232 89.455087 
L 228.72 81.814885 
L 230.208 75.404776 
L 231.696 70.318587 
L 233.184 66.631056 
L 234.672 64.39653 
L 236.16 63.648 
L 237.648 64.39653 
L 239.136 66.631056 
L 240.624 70.318587 
L 242.112 75.404776 
L 243.6 81.814885 
L 245.088 89.455087 
L 246.576 98.214113 
L 248.064 107.965191 
L 251.04 129.872347 
L 254.016 153.941235 
L 259.968 203.271186 
L 262.944 225.975293 
L 264.432 236.34086 
L 265.92 245.893322 
L 267.408 254.536027 
L 268.896 262.189892 
L 270.384 268.794375 
L 271.872 274.30808 
L 273.36 278.70901 
L 274.848 281.994454 
L 276.336 284.180525 
L 277.824 285.30136 
L 279.312 285.408 
L 280.8 284.566981 
L 282.288 282.858666 
L 283.776 280.375355 
L 285.264 277.219215 
L 286.752 273.50007 
L 289.728 264.836494 
L 297.168 241.466571 
L 298.656 237.357024 
L 300.144 233.643922 
L 301.632 230.394364 
L 303.12 227.662385 
L 304.608 225.488335 
L 306.096 223.898547 
L 307.584 222.905301 
L 309.072 222.507085 
L 310.56 222.689127 
L 312.048 223.424192 
L 313.536 224.67361 
L 315.024 226.388521 
L 316.512 228.511296 
L 318 230.977101 
L 320.976 236.652547 
L 326.928 248.86868 
L 329.904 254.254024 
L 331.392 256.548857 
L 332.88 258.514741 
L 334.368 260.11498 
L 335.856 261.322494 
L 337.344 262.120161 
L 338.832 262.500941 
L 340.32 262.467748 
L 341.808 262.03312 
L 343.296 261.21867 
L 344.784 260.054342 
L 346.272 258.577504 
L 347.76 256.831885 
L 350.736 252.733897 
L 358.176 241.521072 
L 359.664 239.547248 
L 361.152 237.77482 
L 362.64 236.24165 
L 364.128 234.979027 
L 365.616 234.011087 
L 367.104 233.354401 
L 368.592 233.017753 
L 370.08 233.002103 
L 371.568 233.300733 
L 373.056 233.899572 
L 374.544 234.777683 
L 376.032 235.907903 
L 377.52 237.257615 
L 380.496 240.463176 
L 384.96 245.893322 
L 384.96 245.893322 
" style="fill:none;stroke:#000000;stroke-linecap:square;stroke-width:1.5;"/>
   </g>
   <g id="line2d_17">
    <path clip-path="url(#pdda480bcd4)" d="M 335.856 261.322494 
L 335.856 261.322494 
" style="fill:none;stroke:#ff00ff;stroke-linecap:square;stroke-width:1.5;"/>
    <defs>
     <path d="M 0 3 
C 0.795609 3 1.55874 2.683901 2.12132 2.12132 
C 2.683901 1.55874 3 0.795609 3 0 
C 3 -0.795609 2.683901 -1.55874 2.12132 -2.12132 
C 1.55874 -2.683901 0.795609 -3 0 -3 
C -0.795609 -3 -1.55874 -2.683901 -2.12132 -2.12132 
C -2.683901 -1.55874 -3 -0.795609 -3 0 
C -3 0.795609 -2.683901 1.55874 -2.12132 2.12132 
C -1.55874 2.683901 -0.795609 3 0 3 
z
" id="mdc7507ce63" style="stroke:#ff00ff;"/>
    </defs>
    <g clip-path="url(#pdda480bcd4)">
     <use style="fill:#ff00ff;stroke:#ff00ff;" x="335.856" xlink:href="#mdc7507ce63" y="261.322494"/>
     <use style="fill:#ff00ff;stroke:#ff00ff;" x="335.856" xlink:href="#mdc7507ce63" y="261.322494"/>
    </g>
   </g>
   <g id="patch_3">
    <path d="M 57.6 307.584 
L 57.6 41.472 
" style="fill:none;stroke:#000000;stroke-linecap:square;stroke-linejoin:miter;stroke-width:0.8;"/>
   </g>
   <g id="patch_4">
    <path d="M 414.72 307.584 
L 414.72 41.472 
" style="fill:none;stroke:#000000;stroke-linecap:square;stroke-linejoin:miter;stroke-width:0.8;"/>
   </g>
   <g id="patch_5">
    <path d="M 57.6 307.584 
L 414.72 307.584 
" style="fill:none;stroke:#000000;stroke-linecap:square;stroke-linejoin:miter;stroke-width:0.8;"/>
   </g>
   <g id="patch_6">
    <path d="M 57.6 41.472 
L 414.72 41.472 
" style="fill:none;stroke:#000000;stroke-linecap:square;stroke-linejoin:miter;stroke-width:0.8;"/>
   </g>
   <g id="legend_1">
    <g id="patch_7">
     <path d="M 279.791875 108.206375 
L 407.72 108.206375 
Q 409.72 108.206375 409.72 106.206375 
L 409.72 48.472 
Q 409.72 46.472 407.72 46.472 
L 279.791875 46.472 
Q 277.791875 46.472 277.791875 48.472 
L 277.791875 106.206375 
Q 277.791875 108.206375 279.791875 108.206375 
z
" style="fill:#ffffff;opacity:0.8;stroke:#cccccc;stroke-linejoin:miter;"/>
    </g>
    <g id="line2d_18">
     <path d="M 281.791875 54.570438 
L 301.791875 54.570438 
" style="fill:none;stroke:#333333;stroke-linecap:square;stroke-width:1.5;"/>
    </g>
    <g id="line2d_19"/>
    <g id="text_15">
     <!-- GP predicted mean -->
     <defs>
      <path d="M 59.515625 10.40625 
L 59.515625 29.984375 
L 43.40625 29.984375 
L 43.40625 38.09375 
L 69.28125 38.09375 
L 69.28125 6.78125 
Q 63.578125 2.734375 56.6875 0.65625 
Q 49.8125 -1.421875 42 -1.421875 
Q 24.90625 -1.421875 15.25 8.5625 
Q 5.609375 18.5625 5.609375 36.375 
Q 5.609375 54.25 15.25 64.234375 
Q 24.90625 74.21875 42 74.21875 
Q 49.125 74.21875 55.546875 72.453125 
Q 61.96875 70.703125 67.390625 67.28125 
L 67.390625 56.78125 
Q 61.921875 61.421875 55.765625 63.765625 
Q 49.609375 66.109375 42.828125 66.109375 
Q 29.4375 66.109375 22.71875 58.640625 
Q 16.015625 51.171875 16.015625 36.375 
Q 16.015625 21.625 22.71875 14.15625 
Q 29.4375 6.6875 42.828125 6.6875 
Q 48.046875 6.6875 52.140625 7.59375 
Q 56.25 8.5 59.515625 10.40625 
z
" id="DejaVuSans-71"/>
      <path d="M 19.671875 64.796875 
L 19.671875 37.40625 
L 32.078125 37.40625 
Q 38.96875 37.40625 42.71875 40.96875 
Q 46.484375 44.53125 46.484375 51.125 
Q 46.484375 57.671875 42.71875 61.234375 
Q 38.96875 64.796875 32.078125 64.796875 
z
M 9.8125 72.90625 
L 32.078125 72.90625 
Q 44.34375 72.90625 50.609375 67.359375 
Q 56.890625 61.8125 56.890625 51.125 
Q 56.890625 40.328125 50.609375 34.8125 
Q 44.34375 29.296875 32.078125 29.296875 
L 19.671875 29.296875 
L 19.671875 0 
L 9.8125 0 
z
" id="DejaVuSans-80"/>
      <path id="DejaVuSans-32"/>
      <path d="M 18.109375 8.203125 
L 18.109375 -20.796875 
L 9.078125 -20.796875 
L 9.078125 54.6875 
L 18.109375 54.6875 
L 18.109375 46.390625 
Q 20.953125 51.265625 25.265625 53.625 
Q 29.59375 56 35.59375 56 
Q 45.5625 56 51.78125 48.09375 
Q 58.015625 40.1875 58.015625 27.296875 
Q 58.015625 14.40625 51.78125 6.484375 
Q 45.5625 -1.421875 35.59375 -1.421875 
Q 29.59375 -1.421875 25.265625 0.953125 
Q 20.953125 3.328125 18.109375 8.203125 
z
M 48.6875 27.296875 
Q 48.6875 37.203125 44.609375 42.84375 
Q 40.53125 48.484375 33.40625 48.484375 
Q 26.265625 48.484375 22.1875 42.84375 
Q 18.109375 37.203125 18.109375 27.296875 
Q 18.109375 17.390625 22.1875 11.75 
Q 26.265625 6.109375 33.40625 6.109375 
Q 40.53125 6.109375 44.609375 11.75 
Q 48.6875 17.390625 48.6875 27.296875 
z
" id="DejaVuSans-112"/>
      <path d="M 41.109375 46.296875 
Q 39.59375 47.171875 37.8125 47.578125 
Q 36.03125 48 33.890625 48 
Q 26.265625 48 22.1875 43.046875 
Q 18.109375 38.09375 18.109375 28.8125 
L 18.109375 0 
L 9.078125 0 
L 9.078125 54.6875 
L 18.109375 54.6875 
L 18.109375 46.1875 
Q 20.953125 51.171875 25.484375 53.578125 
Q 30.03125 56 36.53125 56 
Q 37.453125 56 38.578125 55.875 
Q 39.703125 55.765625 41.0625 55.515625 
z
" id="DejaVuSans-114"/>
      <path d="M 56.203125 29.59375 
L 56.203125 25.203125 
L 14.890625 25.203125 
Q 15.484375 15.921875 20.484375 11.0625 
Q 25.484375 6.203125 34.421875 6.203125 
Q 39.59375 6.203125 44.453125 7.46875 
Q 49.3125 8.734375 54.109375 11.28125 
L 54.109375 2.78125 
Q 49.265625 0.734375 44.1875 -0.34375 
Q 39.109375 -1.421875 33.890625 -1.421875 
Q 20.796875 -1.421875 13.15625 6.1875 
Q 5.515625 13.8125 5.515625 26.8125 
Q 5.515625 40.234375 12.765625 48.109375 
Q 20.015625 56 32.328125 56 
Q 43.359375 56 49.78125 48.890625 
Q 56.203125 41.796875 56.203125 29.59375 
z
M 47.21875 32.234375 
Q 47.125 39.59375 43.09375 43.984375 
Q 39.0625 48.390625 32.421875 48.390625 
Q 24.90625 48.390625 20.390625 44.140625 
Q 15.875 39.890625 15.1875 32.171875 
z
" id="DejaVuSans-101"/>
      <path d="M 45.40625 46.390625 
L 45.40625 75.984375 
L 54.390625 75.984375 
L 54.390625 0 
L 45.40625 0 
L 45.40625 8.203125 
Q 42.578125 3.328125 38.25 0.953125 
Q 33.9375 -1.421875 27.875 -1.421875 
Q 17.96875 -1.421875 11.734375 6.484375 
Q 5.515625 14.40625 5.515625 27.296875 
Q 5.515625 40.1875 11.734375 48.09375 
Q 17.96875 56 27.875 56 
Q 33.9375 56 38.25 53.625 
Q 42.578125 51.265625 45.40625 46.390625 
z
M 14.796875 27.296875 
Q 14.796875 17.390625 18.875 11.75 
Q 22.953125 6.109375 30.078125 6.109375 
Q 37.203125 6.109375 41.296875 11.75 
Q 45.40625 17.390625 45.40625 27.296875 
Q 45.40625 37.203125 41.296875 42.84375 
Q 37.203125 48.484375 30.078125 48.484375 
Q 22.953125 48.484375 18.875 42.84375 
Q 14.796875 37.203125 14.796875 27.296875 
z
" id="DejaVuSans-100"/>
      <path d="M 9.421875 54.6875 
L 18.40625 54.6875 
L 18.40625 0 
L 9.421875 0 
z
M 9.421875 75.984375 
L 18.40625 75.984375 
L 18.40625 64.59375 
L 9.421875 64.59375 
z
" id="DejaVuSans-105"/>
      <path d="M 48.78125 52.59375 
L 48.78125 44.1875 
Q 44.96875 46.296875 41.140625 47.34375 
Q 37.3125 48.390625 33.40625 48.390625 
Q 24.65625 48.390625 19.8125 42.84375 
Q 14.984375 37.3125 14.984375 27.296875 
Q 14.984375 17.28125 19.8125 11.734375 
Q 24.65625 6.203125 33.40625 6.203125 
Q 37.3125 6.203125 41.140625 7.25 
Q 44.96875 8.296875 48.78125 10.40625 
L 48.78125 2.09375 
Q 45.015625 0.34375 40.984375 -0.53125 
Q 36.96875 -1.421875 32.421875 -1.421875 
Q 20.0625 -1.421875 12.78125 6.34375 
Q 5.515625 14.109375 5.515625 27.296875 
Q 5.515625 40.671875 12.859375 48.328125 
Q 20.21875 56 33.015625 56 
Q 37.15625 56 41.109375 55.140625 
Q 45.0625 54.296875 48.78125 52.59375 
z
" id="DejaVuSans-99"/>
      <path d="M 18.3125 70.21875 
L 18.3125 54.6875 
L 36.8125 54.6875 
L 36.8125 47.703125 
L 18.3125 47.703125 
L 18.3125 18.015625 
Q 18.3125 11.328125 20.140625 9.421875 
Q 21.96875 7.515625 27.59375 7.515625 
L 36.8125 7.515625 
L 36.8125 0 
L 27.59375 0 
Q 17.1875 0 13.234375 3.875 
Q 9.28125 7.765625 9.28125 18.015625 
L 9.28125 47.703125 
L 2.6875 47.703125 
L 2.6875 54.6875 
L 9.28125 54.6875 
L 9.28125 70.21875 
z
" id="DejaVuSans-116"/>
      <path d="M 52 44.1875 
Q 55.375 50.25 60.0625 53.125 
Q 64.75 56 71.09375 56 
Q 79.640625 56 84.28125 50.015625 
Q 88.921875 44.046875 88.921875 33.015625 
L 88.921875 0 
L 79.890625 0 
L 79.890625 32.71875 
Q 79.890625 40.578125 77.09375 44.375 
Q 74.3125 48.1875 68.609375 48.1875 
Q 61.625 48.1875 57.5625 43.546875 
Q 53.515625 38.921875 53.515625 30.90625 
L 53.515625 0 
L 44.484375 0 
L 44.484375 32.71875 
Q 44.484375 40.625 41.703125 44.40625 
Q 38.921875 48.1875 33.109375 48.1875 
Q 26.21875 48.1875 22.15625 43.53125 
Q 18.109375 38.875 18.109375 30.90625 
L 18.109375 0 
L 9.078125 0 
L 9.078125 54.6875 
L 18.109375 54.6875 
L 18.109375 46.1875 
Q 21.1875 51.21875 25.484375 53.609375 
Q 29.78125 56 35.6875 56 
Q 41.65625 56 45.828125 52.96875 
Q 50 49.953125 52 44.1875 
z
" id="DejaVuSans-109"/>
      <path d="M 34.28125 27.484375 
Q 23.390625 27.484375 19.1875 25 
Q 14.984375 22.515625 14.984375 16.5 
Q 14.984375 11.71875 18.140625 8.90625 
Q 21.296875 6.109375 26.703125 6.109375 
Q 34.1875 6.109375 38.703125 11.40625 
Q 43.21875 16.703125 43.21875 25.484375 
L 43.21875 27.484375 
z
M 52.203125 31.203125 
L 52.203125 0 
L 43.21875 0 
L 43.21875 8.296875 
Q 40.140625 3.328125 35.546875 0.953125 
Q 30.953125 -1.421875 24.3125 -1.421875 
Q 15.921875 -1.421875 10.953125 3.296875 
Q 6 8.015625 6 15.921875 
Q 6 25.140625 12.171875 29.828125 
Q 18.359375 34.515625 30.609375 34.515625 
L 43.21875 34.515625 
L 43.21875 35.40625 
Q 43.21875 41.609375 39.140625 45 
Q 35.0625 48.390625 27.6875 48.390625 
Q 23 48.390625 18.546875 47.265625 
Q 14.109375 46.140625 10.015625 43.890625 
L 10.015625 52.203125 
Q 14.9375 54.109375 19.578125 55.046875 
Q 24.21875 56 28.609375 56 
Q 40.484375 56 46.34375 49.84375 
Q 52.203125 43.703125 52.203125 31.203125 
z
" id="DejaVuSans-97"/>
      <path d="M 54.890625 33.015625 
L 54.890625 0 
L 45.90625 0 
L 45.90625 32.71875 
Q 45.90625 40.484375 42.875 44.328125 
Q 39.84375 48.1875 33.796875 48.1875 
Q 26.515625 48.1875 22.3125 43.546875 
Q 18.109375 38.921875 18.109375 30.90625 
L 18.109375 0 
L 9.078125 0 
L 9.078125 54.6875 
L 18.109375 54.6875 
L 18.109375 46.1875 
Q 21.34375 51.125 25.703125 53.5625 
Q 30.078125 56 35.796875 56 
Q 45.21875 56 50.046875 50.171875 
Q 54.890625 44.34375 54.890625 33.015625 
z
" id="DejaVuSans-110"/>
     </defs>
     <g transform="translate(309.791875 58.070438)scale(0.1 -0.1)">
      <use xlink:href="#DejaVuSans-71"/>
      <use x="77.490234" xlink:href="#DejaVuSans-80"/>
      <use x="137.792969" xlink:href="#DejaVuSans-32"/>
      <use x="169.580078" xlink:href="#DejaVuSans-112"/>
      <use x="233.056641" xlink:href="#DejaVuSans-114"/>
      <use x="271.919922" xlink:href="#DejaVuSans-101"/>
      <use x="333.443359" xlink:href="#DejaVuSans-100"/>
      <use x="396.919922" xlink:href="#DejaVuSans-105"/>
      <use x="424.703125" xlink:href="#DejaVuSans-99"/>
      <use x="479.683594" xlink:href="#DejaVuSans-116"/>
      <use x="518.892578" xlink:href="#DejaVuSans-101"/>
      <use x="580.416016" xlink:href="#DejaVuSans-100"/>
      <use x="643.892578" xlink:href="#DejaVuSans-32"/>
      <use x="675.679688" xlink:href="#DejaVuSans-109"/>
      <use x="773.091797" xlink:href="#DejaVuSans-101"/>
      <use x="834.615234" xlink:href="#DejaVuSans-97"/>
      <use x="895.894531" xlink:href="#DejaVuSans-110"/>
     </g>
    </g>
    <g id="line2d_20">
     <path d="M 281.791875 69.248563 
L 301.791875 69.248563 
" style="fill:none;stroke:#000000;stroke-linecap:square;stroke-width:1.5;"/>
    </g>
    <g id="line2d_21"/>
    <g id="text_16">
     <!-- true function -->
     <defs>
      <path d="M 8.5 21.578125 
L 8.5 54.6875 
L 17.484375 54.6875 
L 17.484375 21.921875 
Q 17.484375 14.15625 20.5 10.265625 
Q 23.53125 6.390625 29.59375 6.390625 
Q 36.859375 6.390625 41.078125 11.03125 
Q 45.3125 15.671875 45.3125 23.6875 
L 45.3125 54.6875 
L 54.296875 54.6875 
L 54.296875 0 
L 45.3125 0 
L 45.3125 8.40625 
Q 42.046875 3.421875 37.71875 1 
Q 33.40625 -1.421875 27.6875 -1.421875 
Q 18.265625 -1.421875 13.375 4.4375 
Q 8.5 10.296875 8.5 21.578125 
z
M 31.109375 56 
z
" id="DejaVuSans-117"/>
      <path d="M 37.109375 75.984375 
L 37.109375 68.5 
L 28.515625 68.5 
Q 23.6875 68.5 21.796875 66.546875 
Q 19.921875 64.59375 19.921875 59.515625 
L 19.921875 54.6875 
L 34.71875 54.6875 
L 34.71875 47.703125 
L 19.921875 47.703125 
L 19.921875 0 
L 10.890625 0 
L 10.890625 47.703125 
L 2.296875 47.703125 
L 2.296875 54.6875 
L 10.890625 54.6875 
L 10.890625 58.5 
Q 10.890625 67.625 15.140625 71.796875 
Q 19.390625 75.984375 28.609375 75.984375 
z
" id="DejaVuSans-102"/>
      <path d="M 30.609375 48.390625 
Q 23.390625 48.390625 19.1875 42.75 
Q 14.984375 37.109375 14.984375 27.296875 
Q 14.984375 17.484375 19.15625 11.84375 
Q 23.34375 6.203125 30.609375 6.203125 
Q 37.796875 6.203125 41.984375 11.859375 
Q 46.1875 17.53125 46.1875 27.296875 
Q 46.1875 37.015625 41.984375 42.703125 
Q 37.796875 48.390625 30.609375 48.390625 
z
M 30.609375 56 
Q 42.328125 56 49.015625 48.375 
Q 55.71875 40.765625 55.71875 27.296875 
Q 55.71875 13.875 49.015625 6.21875 
Q 42.328125 -1.421875 30.609375 -1.421875 
Q 18.84375 -1.421875 12.171875 6.21875 
Q 5.515625 13.875 5.515625 27.296875 
Q 5.515625 40.765625 12.171875 48.375 
Q 18.84375 56 30.609375 56 
z
" id="DejaVuSans-111"/>
     </defs>
     <g transform="translate(309.791875 72.748563)scale(0.1 -0.1)">
      <use xlink:href="#DejaVuSans-116"/>
      <use x="39.208984" xlink:href="#DejaVuSans-114"/>
      <use x="80.322266" xlink:href="#DejaVuSans-117"/>
      <use x="143.701172" xlink:href="#DejaVuSans-101"/>
      <use x="205.224609" xlink:href="#DejaVuSans-32"/>
      <use x="237.011719" xlink:href="#DejaVuSans-102"/>
      <use x="272.216797" xlink:href="#DejaVuSans-117"/>
      <use x="335.595703" xlink:href="#DejaVuSans-110"/>
      <use x="398.974609" xlink:href="#DejaVuSans-99"/>
      <use x="453.955078" xlink:href="#DejaVuSans-116"/>
      <use x="493.164062" xlink:href="#DejaVuSans-105"/>
      <use x="520.947266" xlink:href="#DejaVuSans-111"/>
      <use x="582.128906" xlink:href="#DejaVuSans-110"/>
     </g>
    </g>
    <g id="line2d_22">
     <path d="M 281.791875 83.926688 
L 301.791875 83.926688 
" style="fill:none;stroke:#ff00ff;stroke-linecap:square;stroke-width:1.5;"/>
    </g>
    <g id="line2d_23">
     <g>
      <use style="fill:#ff00ff;stroke:#ff00ff;" x="291.791875" xlink:href="#mdc7507ce63" y="83.926688"/>
     </g>
    </g>
    <g id="text_17">
     <!-- new sample -->
     <defs>
      <path d="M 4.203125 54.6875 
L 13.1875 54.6875 
L 24.421875 12.015625 
L 35.59375 54.6875 
L 46.1875 54.6875 
L 57.421875 12.015625 
L 68.609375 54.6875 
L 77.59375 54.6875 
L 63.28125 0 
L 52.6875 0 
L 40.921875 44.828125 
L 29.109375 0 
L 18.5 0 
z
" id="DejaVuSans-119"/>
      <path d="M 44.28125 53.078125 
L 44.28125 44.578125 
Q 40.484375 46.53125 36.375 47.5 
Q 32.28125 48.484375 27.875 48.484375 
Q 21.1875 48.484375 17.84375 46.4375 
Q 14.5 44.390625 14.5 40.28125 
Q 14.5 37.15625 16.890625 35.375 
Q 19.28125 33.59375 26.515625 31.984375 
L 29.59375 31.296875 
Q 39.15625 29.25 43.1875 25.515625 
Q 47.21875 21.78125 47.21875 15.09375 
Q 47.21875 7.46875 41.1875 3.015625 
Q 35.15625 -1.421875 24.609375 -1.421875 
Q 20.21875 -1.421875 15.453125 -0.5625 
Q 10.6875 0.296875 5.421875 2 
L 5.421875 11.28125 
Q 10.40625 8.6875 15.234375 7.390625 
Q 20.0625 6.109375 24.8125 6.109375 
Q 31.15625 6.109375 34.5625 8.28125 
Q 37.984375 10.453125 37.984375 14.40625 
Q 37.984375 18.0625 35.515625 20.015625 
Q 33.0625 21.96875 24.703125 23.78125 
L 21.578125 24.515625 
Q 13.234375 26.265625 9.515625 29.90625 
Q 5.8125 33.546875 5.8125 39.890625 
Q 5.8125 47.609375 11.28125 51.796875 
Q 16.75 56 26.8125 56 
Q 31.78125 56 36.171875 55.265625 
Q 40.578125 54.546875 44.28125 53.078125 
z
" id="DejaVuSans-115"/>
      <path d="M 9.421875 75.984375 
L 18.40625 75.984375 
L 18.40625 0 
L 9.421875 0 
z
" id="DejaVuSans-108"/>
     </defs>
     <g transform="translate(309.791875 87.426688)scale(0.1 -0.1)">
      <use xlink:href="#DejaVuSans-110"/>
      <use x="63.378906" xlink:href="#DejaVuSans-101"/>
      <use x="124.902344" xlink:href="#DejaVuSans-119"/>
      <use x="206.689453" xlink:href="#DejaVuSans-32"/>
      <use x="238.476562" xlink:href="#DejaVuSans-115"/>
      <use x="290.576172" xlink:href="#DejaVuSans-97"/>
      <use x="351.855469" xlink:href="#DejaVuSans-109"/>
      <use x="449.267578" xlink:href="#DejaVuSans-112"/>
      <use x="512.744141" xlink:href="#DejaVuSans-108"/>
      <use x="540.527344" xlink:href="#DejaVuSans-101"/>
     </g>
    </g>
    <g id="patch_8">
     <path d="M 281.791875 102.106375 
L 301.791875 102.106375 
L 301.791875 95.106375 
L 281.791875 95.106375 
z
" style="fill:#347aeb;opacity:0.6;"/>
    </g>
    <g id="text_18">
     <!-- GP predicted 2$\sigma$ -->
     <defs>
      <path d="M 34.671875 47.5625 
Q 27.25 47.5625 22.21875 42.1875 
Q 16.890625 36.578125 15.140625 27.296875 
Q 13.1875 17.484375 16.3125 11.8125 
Q 19.390625 6.203125 26.65625 6.203125 
Q 33.84375 6.203125 39.109375 11.859375 
Q 44.4375 17.53125 46.34375 27.296875 
Q 48.046875 36.234375 45.015625 42.1875 
Q 42.1875 47.5625 34.671875 47.5625 
z
M 36.078125 54.734375 
L 65.921875 54.6875 
L 64.15625 45.703125 
L 54.109375 45.703125 
Q 57.90625 38.09375 55.859375 27.296875 
Q 53.21875 13.875 45.0625 6.25 
Q 36.859375 -1.421875 25.140625 -1.421875 
Q 13.375 -1.421875 8.203125 6.25 
Q 3.03125 13.875 5.671875 27.296875 
Q 8.25 40.765625 16.40625 48.390625 
Q 23.1875 54.734375 36.078125 54.734375 
z
" id="DejaVuSans-Oblique-963"/>
     </defs>
     <g transform="translate(309.791875 102.106375)scale(0.1 -0.1)">
      <use transform="translate(0 0.015625)" xlink:href="#DejaVuSans-71"/>
      <use transform="translate(77.490234 0.015625)" xlink:href="#DejaVuSans-80"/>
      <use transform="translate(137.792969 0.015625)" xlink:href="#DejaVuSans-32"/>
      <use transform="translate(169.580078 0.015625)" xlink:href="#DejaVuSans-112"/>
      <use transform="translate(233.056641 0.015625)" xlink:href="#DejaVuSans-114"/>
      <use transform="translate(274.169922 0.015625)" xlink:href="#DejaVuSans-101"/>
      <use transform="translate(335.693359 0.015625)" xlink:href="#DejaVuSans-100"/>
      <use transform="translate(399.169922 0.015625)" xlink:href="#DejaVuSans-105"/>
      <use transform="translate(426.953125 0.015625)" xlink:href="#DejaVuSans-99"/>
      <use transform="translate(481.933594 0.015625)" xlink:href="#DejaVuSans-116"/>
      <use transform="translate(521.142578 0.015625)" xlink:href="#DejaVuSans-101"/>
      <use transform="translate(582.666016 0.015625)" xlink:href="#DejaVuSans-100"/>
      <use transform="translate(646.142578 0.015625)" xlink:href="#DejaVuSans-32"/>
      <use transform="translate(677.929688 0.015625)" xlink:href="#DejaVuSans-50"/>
      <use transform="translate(741.552734 0.015625)" xlink:href="#DejaVuSans-Oblique-963"/>
     </g>
    </g>
   </g>
  </g>
 </g>
 <defs>
  <clipPath id="pdda480bcd4">
   <rect height="266.112" width="357.12" x="57.6" y="41.472"/>
  </clipPath>
 </defs>
</svg>
