<?xml version="1.0" encoding="utf-8" standalone="no"?>
<!DOCTYPE svg PUBLIC "-//W3C//DTD SVG 1.1//EN"
  "http://www.w3.org/Graphics/SVG/1.1/DTD/svg11.dtd">
<!-- Created with matplotlib (https://matplotlib.org/) -->
<svg height="345.6pt" version="1.1" viewBox="0 0 460.8 345.6" width="460.8pt" xmlns="http://www.w3.org/2000/svg" xmlns:xlink="http://www.w3.org/1999/xlink">
 <defs>
  <style type="text/css">
*{stroke-linecap:butt;stroke-linejoin:round;}
  </style>
 </defs>
 <g id="figure_1">
  <g id="patch_1">
   <path d="M 0 345.6 
L 460.8 345.6 
L 460.8 0 
L 0 0 
z
" style="fill:#ffffff;"/>
  </g>
  <g id="axes_1">
   <g id="patch_2">
    <path d="M 57.6 307.584 
L 414.72 307.584 
L 414.72 41.472 
L 57.6 41.472 
z
" style="fill:#ffffff;"/>
   </g>
   <g id="PolyCollection_1">
    <defs>
     <path d="M 87.36 -99.706678 
L 87.36 -99.706678 
L 88.848 -101.53784 
L 90.336 -103.362928 
L 91.824 -105.135626 
L 93.312 -106.810364 
L 94.8 -108.343341 
L 96.288 -109.693544 
L 97.776 -110.823722 
L 99.264 -111.701312 
L 100.752 -112.299272 
L 102.24 -112.596821 
L 103.728 -112.580048 
L 105.216 -112.242377 
L 106.704 -111.58488 
L 108.192 -110.623274 
L 109.68 -109.363548 
L 111.168 -107.82051 
L 112.656 -106.053996 
L 114.144 -104.075235 
L 115.632 -101.944429 
L 117.12 -99.704539 
L 118.608 -97.407913 
L 120.096 -95.1096 
L 121.584 -92.866094 
L 123.072 -90.734027 
L 124.56 -88.768811 
L 126.048 -87.03494 
L 127.536 -85.546389 
L 129.024 -84.381884 
L 130.512 -83.56718 
L 132 -83.141175 
L 133.488 -83.098803 
L 134.976 -83.479365 
L 136.464 -84.276903 
L 137.952 -85.484394 
L 139.44 -87.096097 
L 140.928 -89.050824 
L 142.416 -91.345966 
L 143.904 -93.924397 
L 145.392 -96.732118 
L 146.88 -99.707903 
L 148.368 -102.784513 
L 149.856 -105.890073 
L 151.344 -108.952359 
L 152.832 -111.88667 
L 154.32 -114.633647 
L 155.808 -117.090684 
L 157.296 -119.222895 
L 158.784 -120.927565 
L 160.272 -122.176427 
L 161.76 -122.910877 
L 163.248 -123.099781 
L 164.736 -122.69346 
L 166.224 -121.699667 
L 167.712 -120.117352 
L 169.2 -117.949934 
L 170.688 -115.218984 
L 172.176 -111.961959 
L 173.664 -108.261244 
L 175.152 -104.14119 
L 176.64 -99.718956 
L 178.128 -95.05607 
L 179.616 -90.280733 
L 181.104 -85.47249 
L 182.592 -80.767555 
L 184.08 -76.272013 
L 185.568 -72.112465 
L 187.056 -68.392538 
L 188.544 -65.244393 
L 190.032 -62.761726 
L 191.52 -61.046773 
L 193.008 -60.211476 
L 194.496 -60.31198 
L 195.984 -61.429978 
L 197.472 -63.606145 
L 198.96 -66.890993 
L 200.448 -71.291327 
L 201.936 -76.813383 
L 203.424 -83.423223 
L 204.912 -91.076385 
L 206.4 -99.723202 
L 207.888 -109.272323 
L 209.376 -119.639683 
L 210.864 -130.704182 
L 212.352 -142.339323 
L 213.84 -154.418191 
L 215.328 -166.778896 
L 216.816 -179.23666 
L 218.304 -191.658762 
L 219.792 -203.907472 
L 221.28 -215.758888 
L 222.768 -227.054623 
L 224.256 -237.665032 
L 225.744 -247.422932 
L 227.232 -256.189009 
L 228.72 -263.826992 
L 230.208 -270.283782 
L 231.696 -275.282675 
L 233.184 -279.024256 
L 234.672 -281.289037 
L 236.16 -282.032944 
L 237.648 -281.30572 
L 239.136 -279.081123 
L 240.624 -275.41362 
L 242.112 -270.330101 
L 243.6 -263.937195 
L 245.088 -256.195452 
L 246.576 -247.541392 
L 248.064 -237.820222 
L 249.552 -227.18225 
L 251.04 -215.901779 
L 252.528 -204.049276 
L 254.016 -191.791085 
L 255.504 -179.433199 
L 256.992 -167.055695 
L 258.48 -154.632524 
L 259.968 -142.359127 
L 261.456 -130.921741 
L 262.944 -119.62589 
L 264.432 -109.652728 
L 265.92 -99.995207 
L 267.408 -91.064969 
L 268.896 -83.640647 
L 270.384 -77.185155 
L 271.872 -71.466327 
L 273.36 -67.30419 
L 274.848 -63.961063 
L 276.336 -61.894854 
L 277.824 -60.82113 
L 279.312 -60.600854 
L 280.8 -61.428696 
L 282.288 -63.23033 
L 283.776 -65.500667 
L 285.264 -68.771996 
L 286.752 -72.099056 
L 288.24 -76.801202 
L 289.728 -81.320252 
L 291.216 -85.831789 
L 292.704 -90.946689 
L 294.192 -95.545947 
L 295.68 -100.488165 
L 297.168 -104.133463 
L 298.656 -108.96654 
L 300.144 -112.809711 
L 301.632 -115.205761 
L 303.12 -117.937723 
L 304.608 -120.907696 
L 306.096 -122.43319 
L 307.584 -123.368568 
L 309.072 -123.092883 
L 310.56 -123.72922 
L 312.048 -122.49246 
L 313.536 -121.477886 
L 315.024 -119.241769 
L 316.512 -117.08869 
L 318 -114.62292 
L 319.488 -112.665255 
L 320.976 -109.564889 
L 322.464 -105.888246 
L 323.952 -102.8867 
L 325.44 -100.024468 
L 326.928 -97.578877 
L 328.416 -94.35836 
L 329.904 -91.346004 
L 331.392 -89.596246 
L 332.88 -87.672412 
L 334.368 -85.484926 
L 335.856 -84.624378 
L 337.344 -84.03933 
L 338.832 -83.645376 
L 340.32 -83.738518 
L 341.808 -84.409977 
L 343.296 -84.527796 
L 344.784 -86.197538 
L 346.272 -87.133015 
L 347.76 -89.571302 
L 349.248 -91.284234 
L 350.736 -92.866337 
L 352.224 -95.110372 
L 353.712 -97.409295 
L 355.2 -99.706565 
L 356.688 -101.947078 
L 358.176 -104.38339 
L 359.664 -106.207353 
L 361.152 -108.305838 
L 362.64 -109.611098 
L 364.128 -110.619961 
L 365.616 -111.875925 
L 367.104 -112.244786 
L 368.592 -112.581667 
L 370.08 -112.888129 
L 371.568 -112.610157 
L 373.056 -111.700774 
L 374.544 -110.82289 
L 376.032 -109.894027 
L 377.52 -108.516555 
L 379.008 -106.810712 
L 380.496 -105.401712 
L 381.984 -103.364688 
L 383.472 -101.778051 
L 384.96 -99.769442 
L 384.96 -99.643938 
L 384.96 -99.643938 
L 383.472 -101.300863 
L 381.984 -103.364688 
L 380.496 -104.871872 
L 379.008 -106.810712 
L 377.52 -108.169404 
L 376.032 -109.491505 
L 374.544 -110.82289 
L 373.056 -111.700774 
L 371.568 -111.988461 
L 370.08 -112.307099 
L 368.592 -112.581667 
L 367.104 -112.244786 
L 365.616 -111.299981 
L 364.128 -110.619961 
L 362.64 -109.103652 
L 361.152 -107.342794 
L 359.664 -105.896755 
L 358.176 -103.773461 
L 356.688 -101.947078 
L 355.2 -99.706565 
L 353.712 -97.409295 
L 352.224 -95.110372 
L 350.736 -92.866337 
L 349.248 -90.183479 
L 347.76 -87.965423 
L 346.272 -86.912386 
L 344.784 -84.89406 
L 343.296 -84.235004 
L 341.808 -82.723786 
L 340.32 -82.525875 
L 338.832 -82.552551 
L 337.344 -82.920116 
L 335.856 -83.930407 
L 334.368 -85.484926 
L 332.88 -86.497988 
L 331.392 -88.506008 
L 329.904 -91.346004 
L 328.416 -93.489825 
L 326.928 -95.883964 
L 325.44 -99.389124 
L 323.952 -102.679333 
L 322.464 -105.888246 
L 320.976 -108.330194 
L 319.488 -111.10372 
L 318 -114.62292 
L 316.512 -117.08869 
L 315.024 -119.181104 
L 313.536 -120.374774 
L 312.048 -121.859027 
L 310.56 -122.092415 
L 309.072 -123.092883 
L 307.584 -122.020832 
L 306.096 -120.969795 
L 304.608 -119.315787 
L 303.12 -117.937723 
L 301.632 -115.205761 
L 300.144 -111.102687 
L 298.656 -107.519595 
L 297.168 -104.133463 
L 295.68 -98.925087 
L 294.192 -94.559551 
L 292.704 -89.596355 
L 291.216 -85.109092 
L 289.728 -80.205558 
L 288.24 -75.731106 
L 286.752 -72.099056 
L 285.264 -67.987633 
L 283.776 -64.946571 
L 282.288 -62.250274 
L 280.8 -60.635374 
L 279.312 -59.781389 
L 277.824 -59.774713 
L 276.336 -60.943075 
L 274.848 -63.249501 
L 273.36 -66.477802 
L 271.872 -71.118084 
L 270.384 -76.427206 
L 268.896 -83.181165 
L 267.408 -91.064969 
L 265.92 -99.420414 
L 264.432 -108.867948 
L 262.944 -119.62589 
L 261.456 -130.461338 
L 259.968 -142.300314 
L 258.48 -154.167768 
L 256.992 -166.44827 
L 255.504 -179.019298 
L 254.016 -191.525699 
L 252.528 -203.712719 
L 251.04 -215.551372 
L 249.552 -226.878518 
L 248.064 -237.446231 
L 246.576 -247.226961 
L 245.088 -256.090896 
L 243.6 -263.629709 
L 242.112 -270.057378 
L 240.624 -275.146786 
L 239.136 -278.85505 
L 237.648 -281.100332 
L 236.16 -281.871061 
L 234.672 -281.118813 
L 233.184 -278.9154 
L 231.696 -275.282675 
L 230.208 -270.109788 
L 228.72 -263.746761 
L 227.232 -256.104508 
L 225.744 -247.352453 
L 224.256 -237.60787 
L 222.768 -227.011598 
L 221.28 -215.698373 
L 219.792 -203.857028 
L 218.304 -191.658762 
L 216.816 -179.214767 
L 215.328 -166.722253 
L 213.84 -154.377719 
L 212.352 -142.314445 
L 210.864 -130.672289 
L 209.376 -119.604969 
L 207.888 -109.241151 
L 206.4 -99.68559 
L 204.912 -91.047519 
L 203.424 -83.393719 
L 201.936 -76.795566 
L 200.448 -71.291327 
L 198.96 -66.890993 
L 197.472 -63.606145 
L 195.984 -61.411281 
L 194.496 -60.288571 
L 193.008 -60.176542 
L 191.52 -61.023765 
L 190.032 -62.725623 
L 188.544 -65.209443 
L 187.056 -68.373134 
L 185.568 -72.090768 
L 184.08 -76.264191 
L 182.592 -80.760708 
L 181.104 -85.469279 
L 179.616 -90.261617 
L 178.128 -95.047235 
L 176.64 -99.690782 
L 175.152 -104.121162 
L 173.664 -108.21958 
L 172.176 -111.944751 
L 170.688 -115.186852 
L 169.2 -117.920193 
L 167.712 -120.10151 
L 166.224 -121.699667 
L 164.736 -122.69346 
L 163.248 -123.084792 
L 161.76 -122.910877 
L 160.272 -122.176427 
L 158.784 -120.927565 
L 157.296 -119.203338 
L 155.808 -117.090684 
L 154.32 -114.616517 
L 152.832 -111.88667 
L 151.344 -108.946853 
L 149.856 -105.890073 
L 148.368 -102.784513 
L 146.88 -99.707903 
L 145.392 -96.732118 
L 143.904 -93.924397 
L 142.416 -91.345966 
L 140.928 -89.050824 
L 139.44 -87.073361 
L 137.952 -85.484394 
L 136.464 -84.276903 
L 134.976 -83.479365 
L 133.488 -83.098803 
L 132 -83.12336 
L 130.512 -83.56718 
L 129.024 -84.381884 
L 127.536 -85.546389 
L 126.048 -87.011632 
L 124.56 -88.768811 
L 123.072 -90.734027 
L 121.584 -92.866094 
L 120.096 -95.1096 
L 118.608 -97.407913 
L 117.12 -99.704539 
L 115.632 -101.944429 
L 114.144 -104.075235 
L 112.656 -106.042928 
L 111.168 -107.82051 
L 109.68 -109.343609 
L 108.192 -110.609551 
L 106.704 -111.58488 
L 105.216 -112.242377 
L 103.728 -112.580048 
L 102.24 -112.596821 
L 100.752 -112.299272 
L 99.264 -111.701312 
L 97.776 -110.823722 
L 96.288 -109.693544 
L 94.8 -108.343341 
L 93.312 -106.810364 
L 91.824 -105.135626 
L 90.336 -103.362928 
L 88.848 -101.53784 
L 87.36 -99.706678 
z
" id="m4a56014527"/>
    </defs>
    <g clip-path="url(#peda389386c)">
     <use style="fill:#347aeb;fill-opacity:0.6;" x="0" xlink:href="#m4a56014527" y="345.6"/>
    </g>
   </g>
   <g id="PathCollection_1">
    <defs>
     <path d="M 0 3 
C 0.795609 3 1.55874 2.683901 2.12132 2.12132 
C 2.683901 1.55874 3 0.795609 3 0 
C 3 -0.795609 2.683901 -1.55874 2.12132 -2.12132 
C 1.55874 -2.683901 0.795609 -3 0 -3 
C -0.795609 -3 -1.55874 -2.683901 -2.12132 -2.12132 
C -2.683901 -1.55874 -3 -0.795609 -3 0 
C -3 0.795609 -2.683901 1.55874 -2.12132 2.12132 
C -1.55874 2.683901 -0.795609 3 0 3 
z
" id="mdf81e8b97d" style="stroke:#1f77b4;"/>
    </defs>
    <g clip-path="url(#peda389386c)">
     <use style="fill:#1f77b4;stroke:#1f77b4;" x="87.36" xlink:href="#mdf81e8b97d" y="245.893322"/>
     <use style="fill:#1f77b4;stroke:#1f77b4;" x="236.16" xlink:href="#mdf81e8b97d" y="63.648"/>
     <use style="fill:#1f77b4;stroke:#1f77b4;" x="384.96" xlink:href="#mdf81e8b97d" y="245.893322"/>
     <use style="fill:#1f77b4;stroke:#1f77b4;" x="161.76" xlink:href="#mdf81e8b97d" y="222.689127"/>
     <use style="fill:#1f77b4;stroke:#1f77b4;" x="318" xlink:href="#mdf81e8b97d" y="230.977101"/>
     <use style="fill:#1f77b4;stroke:#1f77b4;" x="121.584" xlink:href="#mdf81e8b97d" y="252.733897"/>
     <use style="fill:#1f77b4;stroke:#1f77b4;" x="355.2" xlink:href="#mdf81e8b97d" y="245.893322"/>
     <use style="fill:#1f77b4;stroke:#1f77b4;" x="273.36" xlink:href="#mdf81e8b97d" y="278.70901"/>
     <use style="fill:#1f77b4;stroke:#1f77b4;" x="198.96" xlink:href="#mdf81e8b97d" y="278.70901"/>
     <use style="fill:#1f77b4;stroke:#1f77b4;" x="295.68" xlink:href="#mdf81e8b97d" y="245.893322"/>
     <use style="fill:#1f77b4;stroke:#1f77b4;" x="142.416" xlink:href="#mdf81e8b97d" y="254.254024"/>
     <use style="fill:#1f77b4;stroke:#1f77b4;" x="218.304" xlink:href="#mdf81e8b97d" y="153.941235"/>
     <use style="fill:#1f77b4;stroke:#1f77b4;" x="371.568" xlink:href="#mdf81e8b97d" y="233.300733"/>
     <use style="fill:#1f77b4;stroke:#1f77b4;" x="100.752" xlink:href="#mdf81e8b97d" y="233.300733"/>
     <use style="fill:#1f77b4;stroke:#1f77b4;" x="335.856" xlink:href="#mdf81e8b97d" y="261.322494"/>
     <use style="fill:#1f77b4;stroke:#1f77b4;" x="181.104" xlink:href="#mdf81e8b97d" y="260.129112"/>
     <use style="fill:#1f77b4;stroke:#1f77b4;" x="255.504" xlink:href="#mdf81e8b97d" y="166.373748"/>
     <use style="fill:#1f77b4;stroke:#1f77b4;" x="93.312" xlink:href="#mdf81e8b97d" y="238.789633"/>
     <use style="fill:#1f77b4;stroke:#1f77b4;" x="380.496" xlink:href="#mdf81e8b97d" y="240.463176"/>
     <use style="fill:#1f77b4;stroke:#1f77b4;" x="306.096" xlink:href="#mdf81e8b97d" y="223.898547"/>
     <use style="fill:#1f77b4;stroke:#1f77b4;" x="132" xlink:href="#mdf81e8b97d" y="262.467748"/>
     <use style="fill:#1f77b4;stroke:#1f77b4;" x="346.272" xlink:href="#mdf81e8b97d" y="258.577504"/>
     <use style="fill:#1f77b4;stroke:#1f77b4;" x="316.512" xlink:href="#mdf81e8b97d" y="228.511296"/>
     <use style="fill:#1f77b4;stroke:#1f77b4;" x="312.048" xlink:href="#mdf81e8b97d" y="223.424192"/>
     <use style="fill:#1f77b4;stroke:#1f77b4;" x="310.56" xlink:href="#mdf81e8b97d" y="222.689127"/>
     <use style="fill:#1f77b4;stroke:#1f77b4;" x="315.024" xlink:href="#mdf81e8b97d" y="226.388521"/>
     <use style="fill:#1f77b4;stroke:#1f77b4;" x="303.12" xlink:href="#mdf81e8b97d" y="227.662385"/>
     <use style="fill:#1f77b4;stroke:#1f77b4;" x="315.024" xlink:href="#mdf81e8b97d" y="226.388521"/>
     <use style="fill:#1f77b4;stroke:#1f77b4;" x="335.856" xlink:href="#mdf81e8b97d" y="261.322494"/>
     <use style="fill:#1f77b4;stroke:#1f77b4;" x="326.928" xlink:href="#mdf81e8b97d" y="248.86868"/>
     <use style="fill:#1f77b4;stroke:#1f77b4;" x="322.464" xlink:href="#mdf81e8b97d" y="239.711865"/>
    </g>
   </g>
   <g id="matplotlib.axis_1">
    <g id="xtick_1">
     <g id="line2d_1">
      <defs>
       <path d="M 0 0 
L 0 3.5 
" id="mfe68a051f0" style="stroke:#000000;stroke-width:0.8;"/>
      </defs>
      <g>
       <use style="stroke:#000000;stroke-width:0.8;" x="57.6" xlink:href="#mfe68a051f0" y="307.584"/>
      </g>
     </g>
     <g id="text_1">
      <!-- −6 -->
      <defs>
       <path d="M 10.59375 35.5 
L 73.1875 35.5 
L 73.1875 27.203125 
L 10.59375 27.203125 
z
" id="DejaVuSans-8722"/>
       <path d="M 33.015625 40.375 
Q 26.375 40.375 22.484375 35.828125 
Q 18.609375 31.296875 18.609375 23.390625 
Q 18.609375 15.53125 22.484375 10.953125 
Q 26.375 6.390625 33.015625 6.390625 
Q 39.65625 6.390625 43.53125 10.953125 
Q 47.40625 15.53125 47.40625 23.390625 
Q 47.40625 31.296875 43.53125 35.828125 
Q 39.65625 40.375 33.015625 40.375 
z
M 52.59375 71.296875 
L 52.59375 62.3125 
Q 48.875 64.0625 45.09375 64.984375 
Q 41.3125 65.921875 37.59375 65.921875 
Q 27.828125 65.921875 22.671875 59.328125 
Q 17.53125 52.734375 16.796875 39.40625 
Q 19.671875 43.65625 24.015625 45.921875 
Q 28.375 48.1875 33.59375 48.1875 
Q 44.578125 48.1875 50.953125 41.515625 
Q 57.328125 34.859375 57.328125 23.390625 
Q 57.328125 12.15625 50.6875 5.359375 
Q 44.046875 -1.421875 33.015625 -1.421875 
Q 20.359375 -1.421875 13.671875 8.265625 
Q 6.984375 17.96875 6.984375 36.375 
Q 6.984375 53.65625 15.1875 63.9375 
Q 23.390625 74.21875 37.203125 74.21875 
Q 40.921875 74.21875 44.703125 73.484375 
Q 48.484375 72.75 52.59375 71.296875 
z
" id="DejaVuSans-54"/>
      </defs>
      <g transform="translate(50.228906 322.182437)scale(0.1 -0.1)">
       <use xlink:href="#DejaVuSans-8722"/>
       <use x="83.789062" xlink:href="#DejaVuSans-54"/>
      </g>
     </g>
    </g>
    <g id="xtick_2">
     <g id="line2d_2">
      <g>
       <use style="stroke:#000000;stroke-width:0.8;" x="117.12" xlink:href="#mfe68a051f0" y="307.584"/>
      </g>
     </g>
     <g id="text_2">
      <!-- −4 -->
      <defs>
       <path d="M 37.796875 64.3125 
L 12.890625 25.390625 
L 37.796875 25.390625 
z
M 35.203125 72.90625 
L 47.609375 72.90625 
L 47.609375 25.390625 
L 58.015625 25.390625 
L 58.015625 17.1875 
L 47.609375 17.1875 
L 47.609375 0 
L 37.796875 0 
L 37.796875 17.1875 
L 4.890625 17.1875 
L 4.890625 26.703125 
z
" id="DejaVuSans-52"/>
      </defs>
      <g transform="translate(109.748906 322.182437)scale(0.1 -0.1)">
       <use xlink:href="#DejaVuSans-8722"/>
       <use x="83.789062" xlink:href="#DejaVuSans-52"/>
      </g>
     </g>
    </g>
    <g id="xtick_3">
     <g id="line2d_3">
      <g>
       <use style="stroke:#000000;stroke-width:0.8;" x="176.64" xlink:href="#mfe68a051f0" y="307.584"/>
      </g>
     </g>
     <g id="text_3">
      <!-- −2 -->
      <defs>
       <path d="M 19.1875 8.296875 
L 53.609375 8.296875 
L 53.609375 0 
L 7.328125 0 
L 7.328125 8.296875 
Q 12.9375 14.109375 22.625 23.890625 
Q 32.328125 33.6875 34.8125 36.53125 
Q 39.546875 41.84375 41.421875 45.53125 
Q 43.3125 49.21875 43.3125 52.78125 
Q 43.3125 58.59375 39.234375 62.25 
Q 35.15625 65.921875 28.609375 65.921875 
Q 23.96875 65.921875 18.8125 64.3125 
Q 13.671875 62.703125 7.8125 59.421875 
L 7.8125 69.390625 
Q 13.765625 71.78125 18.9375 73 
Q 24.125 74.21875 28.421875 74.21875 
Q 39.75 74.21875 46.484375 68.546875 
Q 53.21875 62.890625 53.21875 53.421875 
Q 53.21875 48.921875 51.53125 44.890625 
Q 49.859375 40.875 45.40625 35.40625 
Q 44.1875 33.984375 37.640625 27.21875 
Q 31.109375 20.453125 19.1875 8.296875 
z
" id="DejaVuSans-50"/>
      </defs>
      <g transform="translate(169.268906 322.182437)scale(0.1 -0.1)">
       <use xlink:href="#DejaVuSans-8722"/>
       <use x="83.789062" xlink:href="#DejaVuSans-50"/>
      </g>
     </g>
    </g>
    <g id="xtick_4">
     <g id="line2d_4">
      <g>
       <use style="stroke:#000000;stroke-width:0.8;" x="236.16" xlink:href="#mfe68a051f0" y="307.584"/>
      </g>
     </g>
     <g id="text_4">
      <!-- 0 -->
      <defs>
       <path d="M 31.78125 66.40625 
Q 24.171875 66.40625 20.328125 58.90625 
Q 16.5 51.421875 16.5 36.375 
Q 16.5 21.390625 20.328125 13.890625 
Q 24.171875 6.390625 31.78125 6.390625 
Q 39.453125 6.390625 43.28125 13.890625 
Q 47.125 21.390625 47.125 36.375 
Q 47.125 51.421875 43.28125 58.90625 
Q 39.453125 66.40625 31.78125 66.40625 
z
M 31.78125 74.21875 
Q 44.046875 74.21875 50.515625 64.515625 
Q 56.984375 54.828125 56.984375 36.375 
Q 56.984375 17.96875 50.515625 8.265625 
Q 44.046875 -1.421875 31.78125 -1.421875 
Q 19.53125 -1.421875 13.0625 8.265625 
Q 6.59375 17.96875 6.59375 36.375 
Q 6.59375 54.828125 13.0625 64.515625 
Q 19.53125 74.21875 31.78125 74.21875 
z
" id="DejaVuSans-48"/>
      </defs>
      <g transform="translate(232.97875 322.182437)scale(0.1 -0.1)">
       <use xlink:href="#DejaVuSans-48"/>
      </g>
     </g>
    </g>
    <g id="xtick_5">
     <g id="line2d_5">
      <g>
       <use style="stroke:#000000;stroke-width:0.8;" x="295.68" xlink:href="#mfe68a051f0" y="307.584"/>
      </g>
     </g>
     <g id="text_5">
      <!-- 2 -->
      <g transform="translate(292.49875 322.182437)scale(0.1 -0.1)">
       <use xlink:href="#DejaVuSans-50"/>
      </g>
     </g>
    </g>
    <g id="xtick_6">
     <g id="line2d_6">
      <g>
       <use style="stroke:#000000;stroke-width:0.8;" x="355.2" xlink:href="#mfe68a051f0" y="307.584"/>
      </g>
     </g>
     <g id="text_6">
      <!-- 4 -->
      <g transform="translate(352.01875 322.182437)scale(0.1 -0.1)">
       <use xlink:href="#DejaVuSans-52"/>
      </g>
     </g>
    </g>
    <g id="xtick_7">
     <g id="line2d_7">
      <g>
       <use style="stroke:#000000;stroke-width:0.8;" x="414.72" xlink:href="#mfe68a051f0" y="307.584"/>
      </g>
     </g>
     <g id="text_7">
      <!-- 6 -->
      <g transform="translate(411.53875 322.182437)scale(0.1 -0.1)">
       <use xlink:href="#DejaVuSans-54"/>
      </g>
     </g>
    </g>
   </g>
   <g id="matplotlib.axis_2">
    <g id="ytick_1">
     <g id="line2d_8">
      <defs>
       <path d="M 0 0 
L -3.5 0 
" id="m71af756084" style="stroke:#000000;stroke-width:0.8;"/>
      </defs>
      <g>
       <use style="stroke:#000000;stroke-width:0.8;" x="57.6" xlink:href="#m71af756084" y="282.342387"/>
      </g>
     </g>
     <g id="text_8">
      <!-- −0.2 -->
      <defs>
       <path d="M 10.6875 12.40625 
L 21 12.40625 
L 21 0 
L 10.6875 0 
z
" id="DejaVuSans-46"/>
      </defs>
      <g transform="translate(26.317187 286.141606)scale(0.1 -0.1)">
       <use xlink:href="#DejaVuSans-8722"/>
       <use x="83.789062" xlink:href="#DejaVuSans-48"/>
       <use x="147.412109" xlink:href="#DejaVuSans-46"/>
       <use x="179.199219" xlink:href="#DejaVuSans-50"/>
      </g>
     </g>
    </g>
    <g id="ytick_2">
     <g id="line2d_9">
      <g>
       <use style="stroke:#000000;stroke-width:0.8;" x="57.6" xlink:href="#m71af756084" y="245.893322"/>
      </g>
     </g>
     <g id="text_9">
      <!-- 0.0 -->
      <g transform="translate(34.696875 249.692541)scale(0.1 -0.1)">
       <use xlink:href="#DejaVuSans-48"/>
       <use x="63.623047" xlink:href="#DejaVuSans-46"/>
       <use x="95.410156" xlink:href="#DejaVuSans-48"/>
      </g>
     </g>
    </g>
    <g id="ytick_3">
     <g id="line2d_10">
      <g>
       <use style="stroke:#000000;stroke-width:0.8;" x="57.6" xlink:href="#m71af756084" y="209.444258"/>
      </g>
     </g>
     <g id="text_10">
      <!-- 0.2 -->
      <g transform="translate(34.696875 213.243477)scale(0.1 -0.1)">
       <use xlink:href="#DejaVuSans-48"/>
       <use x="63.623047" xlink:href="#DejaVuSans-46"/>
       <use x="95.410156" xlink:href="#DejaVuSans-50"/>
      </g>
     </g>
    </g>
    <g id="ytick_4">
     <g id="line2d_11">
      <g>
       <use style="stroke:#000000;stroke-width:0.8;" x="57.6" xlink:href="#m71af756084" y="172.995193"/>
      </g>
     </g>
     <g id="text_11">
      <!-- 0.4 -->
      <g transform="translate(34.696875 176.794412)scale(0.1 -0.1)">
       <use xlink:href="#DejaVuSans-48"/>
       <use x="63.623047" xlink:href="#DejaVuSans-46"/>
       <use x="95.410156" xlink:href="#DejaVuSans-52"/>
      </g>
     </g>
    </g>
    <g id="ytick_5">
     <g id="line2d_12">
      <g>
       <use style="stroke:#000000;stroke-width:0.8;" x="57.6" xlink:href="#m71af756084" y="136.546129"/>
      </g>
     </g>
     <g id="text_12">
      <!-- 0.6 -->
      <g transform="translate(34.696875 140.345348)scale(0.1 -0.1)">
       <use xlink:href="#DejaVuSans-48"/>
       <use x="63.623047" xlink:href="#DejaVuSans-46"/>
       <use x="95.410156" xlink:href="#DejaVuSans-54"/>
      </g>
     </g>
    </g>
    <g id="ytick_6">
     <g id="line2d_13">
      <g>
       <use style="stroke:#000000;stroke-width:0.8;" x="57.6" xlink:href="#m71af756084" y="100.097064"/>
      </g>
     </g>
     <g id="text_13">
      <!-- 0.8 -->
      <defs>
       <path d="M 31.78125 34.625 
Q 24.75 34.625 20.71875 30.859375 
Q 16.703125 27.09375 16.703125 20.515625 
Q 16.703125 13.921875 20.71875 10.15625 
Q 24.75 6.390625 31.78125 6.390625 
Q 38.8125 6.390625 42.859375 10.171875 
Q 46.921875 13.96875 46.921875 20.515625 
Q 46.921875 27.09375 42.890625 30.859375 
Q 38.875 34.625 31.78125 34.625 
z
M 21.921875 38.8125 
Q 15.578125 40.375 12.03125 44.71875 
Q 8.5 49.078125 8.5 55.328125 
Q 8.5 64.0625 14.71875 69.140625 
Q 20.953125 74.21875 31.78125 74.21875 
Q 42.671875 74.21875 48.875 69.140625 
Q 55.078125 64.0625 55.078125 55.328125 
Q 55.078125 49.078125 51.53125 44.71875 
Q 48 40.375 41.703125 38.8125 
Q 48.828125 37.15625 52.796875 32.3125 
Q 56.78125 27.484375 56.78125 20.515625 
Q 56.78125 9.90625 50.3125 4.234375 
Q 43.84375 -1.421875 31.78125 -1.421875 
Q 19.734375 -1.421875 13.25 4.234375 
Q 6.78125 9.90625 6.78125 20.515625 
Q 6.78125 27.484375 10.78125 32.3125 
Q 14.796875 37.15625 21.921875 38.8125 
z
M 18.3125 54.390625 
Q 18.3125 48.734375 21.84375 45.5625 
Q 25.390625 42.390625 31.78125 42.390625 
Q 38.140625 42.390625 41.71875 45.5625 
Q 45.3125 48.734375 45.3125 54.390625 
Q 45.3125 60.0625 41.71875 63.234375 
Q 38.140625 66.40625 31.78125 66.40625 
Q 25.390625 66.40625 21.84375 63.234375 
Q 18.3125 60.0625 18.3125 54.390625 
z
" id="DejaVuSans-56"/>
      </defs>
      <g transform="translate(34.696875 103.896283)scale(0.1 -0.1)">
       <use xlink:href="#DejaVuSans-48"/>
       <use x="63.623047" xlink:href="#DejaVuSans-46"/>
       <use x="95.410156" xlink:href="#DejaVuSans-56"/>
      </g>
     </g>
    </g>
    <g id="ytick_7">
     <g id="line2d_14">
      <g>
       <use style="stroke:#000000;stroke-width:0.8;" x="57.6" xlink:href="#m71af756084" y="63.648"/>
      </g>
     </g>
     <g id="text_14">
      <!-- 1.0 -->
      <defs>
       <path d="M 12.40625 8.296875 
L 28.515625 8.296875 
L 28.515625 63.921875 
L 10.984375 60.40625 
L 10.984375 69.390625 
L 28.421875 72.90625 
L 38.28125 72.90625 
L 38.28125 8.296875 
L 54.390625 8.296875 
L 54.390625 0 
L 12.40625 0 
z
" id="DejaVuSans-49"/>
      </defs>
      <g transform="translate(34.696875 67.447219)scale(0.1 -0.1)">
       <use xlink:href="#DejaVuSans-49"/>
       <use x="63.623047" xlink:href="#DejaVuSans-46"/>
       <use x="95.410156" xlink:href="#DejaVuSans-48"/>
      </g>
     </g>
    </g>
   </g>
   <g id="line2d_15">
    <path clip-path="url(#peda389386c)" d="M 87.36 245.893322 
L 91.824 240.464374 
L 94.8 237.256659 
L 96.288 235.906456 
L 97.776 234.776278 
L 99.264 233.898688 
L 100.752 233.300728 
L 102.24 233.003179 
L 103.728 233.019952 
L 105.216 233.357623 
L 106.704 234.01512 
L 108.192 234.983588 
L 109.68 236.246421 
L 111.168 237.77949 
L 112.656 239.551538 
L 115.632 243.655571 
L 123.072 254.865973 
L 124.56 256.831189 
L 126.048 258.576714 
L 127.536 260.053611 
L 129.024 261.218116 
L 130.512 262.03282 
L 132 262.467733 
L 133.488 262.501197 
L 134.976 262.120635 
L 136.464 261.323097 
L 137.952 260.115606 
L 139.44 258.515271 
L 140.928 256.549176 
L 142.416 254.254034 
L 143.904 251.675603 
L 146.88 245.892097 
L 152.832 233.71333 
L 154.32 230.974918 
L 155.808 228.509316 
L 157.296 226.386883 
L 158.784 224.672435 
L 160.272 223.423573 
L 161.76 222.689123 
L 163.248 222.507713 
L 164.736 222.90654 
L 166.224 223.900333 
L 167.712 225.490569 
L 169.2 227.664937 
L 170.688 230.397082 
L 172.176 233.646645 
L 173.664 237.359588 
L 176.64 245.895131 
L 185.568 273.498383 
L 187.056 277.217164 
L 188.544 280.373082 
L 190.032 282.856325 
L 191.52 284.564731 
L 193.008 285.405991 
L 194.496 285.299724 
L 195.984 284.17937 
L 197.472 281.993855 
L 198.96 278.709007 
L 200.448 274.308673 
L 201.936 268.795526 
L 203.424 262.191529 
L 204.912 254.538048 
L 206.4 245.895604 
L 207.888 236.343263 
L 210.864 214.911764 
L 213.84 191.202045 
L 221.28 129.87137 
L 224.256 107.963549 
L 225.744 98.212307 
L 227.232 89.453242 
L 228.72 81.813124 
L 230.208 75.403215 
L 231.696 70.317325 
L 233.184 66.630172 
L 234.672 64.396075 
L 236.16 63.647998 
L 237.648 64.396974 
L 239.136 66.631913 
L 240.624 70.319797 
L 242.112 75.40626 
L 243.6 81.816548 
L 245.088 89.456826 
L 246.576 98.215823 
L 248.064 107.966773 
L 251.04 129.873425 
L 254.016 153.941608 
L 259.968 203.270279 
L 262.944 225.97411 
L 264.432 236.339662 
L 265.92 245.89219 
L 267.408 254.535031 
L 268.896 262.189094 
L 270.384 268.793819 
L 271.872 274.307795 
L 273.36 278.709004 
L 274.848 281.994718 
L 276.336 284.181036 
L 277.824 285.302079 
L 279.312 285.408879 
L 280.8 284.567965 
L 282.288 282.859698 
L 283.776 280.376381 
L 285.264 277.220186 
L 286.752 273.500944 
L 289.728 264.837095 
L 297.168 241.466537 
L 298.656 237.356932 
L 300.144 233.643801 
L 301.632 230.394239 
L 303.12 227.662277 
L 304.608 225.488258 
L 306.096 223.898508 
L 307.584 222.9053 
L 309.072 222.507117 
L 310.56 222.689182 
L 312.048 223.424257 
L 313.536 224.67367 
L 315.024 226.388563 
L 316.512 228.51131 
L 318 230.97708 
L 320.976 236.652459 
L 326.928 248.86858 
L 329.904 254.253996 
L 331.392 256.548873 
L 332.88 258.5148 
L 334.368 260.115074 
L 335.856 261.322608 
L 337.344 262.120277 
L 338.832 262.501037 
L 340.32 262.467803 
L 341.808 262.033119 
L 343.296 261.2186 
L 344.784 260.054201 
L 346.272 258.5773 
L 347.76 256.831638 
L 350.736 252.733663 
L 358.176 241.521574 
L 359.664 239.547946 
L 361.152 237.775684 
L 362.64 236.242625 
L 364.128 234.980039 
L 365.616 234.012047 
L 367.104 233.355214 
L 368.592 233.018333 
L 370.08 233.002386 
L 371.568 233.300691 
L 373.056 233.899226 
L 374.544 234.77711 
L 376.032 235.907234 
L 377.52 237.25702 
L 380.496 240.463208 
L 384.96 245.89331 
L 384.96 245.89331 
" style="fill:none;stroke:#333333;stroke-linecap:square;stroke-width:1.5;"/>
   </g>
   <g id="line2d_16">
    <path clip-path="url(#peda389386c)" d="M 87.36 245.893322 
L 91.824 240.463176 
L 94.8 237.257615 
L 96.288 235.907903 
L 97.776 234.777683 
L 99.264 233.899572 
L 100.752 233.300733 
L 102.24 233.002103 
L 103.728 233.017753 
L 105.216 233.354401 
L 106.704 234.011087 
L 108.192 234.979027 
L 109.68 236.24165 
L 111.168 237.77482 
L 112.656 239.547248 
L 115.632 243.652621 
L 123.072 254.866404 
L 124.56 256.831885 
L 126.048 258.577504 
L 127.536 260.054342 
L 129.024 261.21867 
L 130.512 262.03312 
L 132 262.467748 
L 133.488 262.500941 
L 134.976 262.120161 
L 136.464 261.322494 
L 137.952 260.11498 
L 139.44 258.514741 
L 140.928 256.548857 
L 142.416 254.254024 
L 143.904 251.675976 
L 146.88 245.893322 
L 152.832 233.715569 
L 154.32 230.977101 
L 155.808 228.511296 
L 157.296 226.388521 
L 158.784 224.67361 
L 160.272 223.424192 
L 161.76 222.689127 
L 163.248 222.507085 
L 164.736 222.905301 
L 166.224 223.898547 
L 167.712 225.488335 
L 169.2 227.662385 
L 170.688 230.394364 
L 172.176 233.643922 
L 173.664 237.357024 
L 176.64 245.893322 
L 185.568 273.50007 
L 187.056 277.219215 
L 188.544 280.375355 
L 190.032 282.858666 
L 191.52 284.566981 
L 193.008 285.408 
L 194.496 285.30136 
L 195.984 284.180525 
L 197.472 281.994454 
L 198.96 278.70901 
L 200.448 274.30808 
L 201.936 268.794375 
L 203.424 262.189892 
L 204.912 254.536027 
L 206.4 245.893322 
L 207.888 236.34086 
L 210.864 214.909546 
L 213.84 191.20051 
L 221.28 129.872347 
L 224.256 107.965191 
L 225.744 98.214113 
L 227.232 89.455087 
L 228.72 81.814885 
L 230.208 75.404776 
L 231.696 70.318587 
L 233.184 66.631056 
L 234.672 64.39653 
L 236.16 63.648 
L 237.648 64.39653 
L 239.136 66.631056 
L 240.624 70.318587 
L 242.112 75.404776 
L 243.6 81.814885 
L 245.088 89.455087 
L 246.576 98.214113 
L 248.064 107.965191 
L 251.04 129.872347 
L 254.016 153.941235 
L 259.968 203.271186 
L 262.944 225.975293 
L 264.432 236.34086 
L 265.92 245.893322 
L 267.408 254.536027 
L 268.896 262.189892 
L 270.384 268.794375 
L 271.872 274.30808 
L 273.36 278.70901 
L 274.848 281.994454 
L 276.336 284.180525 
L 277.824 285.30136 
L 279.312 285.408 
L 280.8 284.566981 
L 282.288 282.858666 
L 283.776 280.375355 
L 285.264 277.219215 
L 286.752 273.50007 
L 289.728 264.836494 
L 297.168 241.466571 
L 298.656 237.357024 
L 300.144 233.643922 
L 301.632 230.394364 
L 303.12 227.662385 
L 304.608 225.488335 
L 306.096 223.898547 
L 307.584 222.905301 
L 309.072 222.507085 
L 310.56 222.689127 
L 312.048 223.424192 
L 313.536 224.67361 
L 315.024 226.388521 
L 316.512 228.511296 
L 318 230.977101 
L 320.976 236.652547 
L 326.928 248.86868 
L 329.904 254.254024 
L 331.392 256.548857 
L 332.88 258.514741 
L 334.368 260.11498 
L 335.856 261.322494 
L 337.344 262.120161 
L 338.832 262.500941 
L 340.32 262.467748 
L 341.808 262.03312 
L 343.296 261.21867 
L 344.784 260.054342 
L 346.272 258.577504 
L 347.76 256.831885 
L 350.736 252.733897 
L 358.176 241.521072 
L 359.664 239.547248 
L 361.152 237.77482 
L 362.64 236.24165 
L 364.128 234.979027 
L 365.616 234.011087 
L 367.104 233.354401 
L 368.592 233.017753 
L 370.08 233.002103 
L 371.568 233.300733 
L 373.056 233.899572 
L 374.544 234.777683 
L 376.032 235.907903 
L 377.52 237.257615 
L 380.496 240.463176 
L 384.96 245.893322 
L 384.96 245.893322 
" style="fill:none;stroke:#000000;stroke-linecap:square;stroke-width:1.5;"/>
   </g>
   <g id="line2d_17">
    <path clip-path="url(#peda389386c)" d="M 322.464 239.711865 
L 322.464 239.711865 
" style="fill:none;stroke:#ff00ff;stroke-linecap:square;stroke-width:1.5;"/>
    <defs>
     <path d="M 0 3 
C 0.795609 3 1.55874 2.683901 2.12132 2.12132 
C 2.683901 1.55874 3 0.795609 3 0 
C 3 -0.795609 2.683901 -1.55874 2.12132 -2.12132 
C 1.55874 -2.683901 0.795609 -3 0 -3 
C -0.795609 -3 -1.55874 -2.683901 -2.12132 -2.12132 
C -2.683901 -1.55874 -3 -0.795609 -3 0 
C -3 0.795609 -2.683901 1.55874 -2.12132 2.12132 
C -1.55874 2.683901 -0.795609 3 0 3 
z
" id="mf054a601dc" style="stroke:#ff00ff;"/>
    </defs>
    <g clip-path="url(#peda389386c)">
     <use style="fill:#ff00ff;stroke:#ff00ff;" x="322.464" xlink:href="#mf054a601dc" y="239.711865"/>
     <use style="fill:#ff00ff;stroke:#ff00ff;" x="322.464" xlink:href="#mf054a601dc" y="239.711865"/>
    </g>
   </g>
   <g id="patch_3">
    <path d="M 57.6 307.584 
L 57.6 41.472 
" style="fill:none;stroke:#000000;stroke-linecap:square;stroke-linejoin:miter;stroke-width:0.8;"/>
   </g>
   <g id="patch_4">
    <path d="M 414.72 307.584 
L 414.72 41.472 
" style="fill:none;stroke:#000000;stroke-linecap:square;stroke-linejoin:miter;stroke-width:0.8;"/>
   </g>
   <g id="patch_5">
    <path d="M 57.6 307.584 
L 414.72 307.584 
" style="fill:none;stroke:#000000;stroke-linecap:square;stroke-linejoin:miter;stroke-width:0.8;"/>
   </g>
   <g id="patch_6">
    <path d="M 57.6 41.472 
L 414.72 41.472 
" style="fill:none;stroke:#000000;stroke-linecap:square;stroke-linejoin:miter;stroke-width:0.8;"/>
   </g>
   <g id="legend_1">
    <g id="patch_7">
     <path d="M 279.791875 108.206375 
L 407.72 108.206375 
Q 409.72 108.206375 409.72 106.206375 
L 409.72 48.472 
Q 409.72 46.472 407.72 46.472 
L 279.791875 46.472 
Q 277.791875 46.472 277.791875 48.472 
L 277.791875 106.206375 
Q 277.791875 108.206375 279.791875 108.206375 
z
" style="fill:#ffffff;opacity:0.8;stroke:#cccccc;stroke-linejoin:miter;"/>
    </g>
    <g id="line2d_18">
     <path d="M 281.791875 54.570438 
L 301.791875 54.570438 
" style="fill:none;stroke:#333333;stroke-linecap:square;stroke-width:1.5;"/>
    </g>
    <g id="line2d_19"/>
    <g id="text_15">
     <!-- GP predicted mean -->
     <defs>
      <path d="M 59.515625 10.40625 
L 59.515625 29.984375 
L 43.40625 29.984375 
L 43.40625 38.09375 
L 69.28125 38.09375 
L 69.28125 6.78125 
Q 63.578125 2.734375 56.6875 0.65625 
Q 49.8125 -1.421875 42 -1.421875 
Q 24.90625 -1.421875 15.25 8.5625 
Q 5.609375 18.5625 5.609375 36.375 
Q 5.609375 54.25 15.25 64.234375 
Q 24.90625 74.21875 42 74.21875 
Q 49.125 74.21875 55.546875 72.453125 
Q 61.96875 70.703125 67.390625 67.28125 
L 67.390625 56.78125 
Q 61.921875 61.421875 55.765625 63.765625 
Q 49.609375 66.109375 42.828125 66.109375 
Q 29.4375 66.109375 22.71875 58.640625 
Q 16.015625 51.171875 16.015625 36.375 
Q 16.015625 21.625 22.71875 14.15625 
Q 29.4375 6.6875 42.828125 6.6875 
Q 48.046875 6.6875 52.140625 7.59375 
Q 56.25 8.5 59.515625 10.40625 
z
" id="DejaVuSans-71"/>
      <path d="M 19.671875 64.796875 
L 19.671875 37.40625 
L 32.078125 37.40625 
Q 38.96875 37.40625 42.71875 40.96875 
Q 46.484375 44.53125 46.484375 51.125 
Q 46.484375 57.671875 42.71875 61.234375 
Q 38.96875 64.796875 32.078125 64.796875 
z
M 9.8125 72.90625 
L 32.078125 72.90625 
Q 44.34375 72.90625 50.609375 67.359375 
Q 56.890625 61.8125 56.890625 51.125 
Q 56.890625 40.328125 50.609375 34.8125 
Q 44.34375 29.296875 32.078125 29.296875 
L 19.671875 29.296875 
L 19.671875 0 
L 9.8125 0 
z
" id="DejaVuSans-80"/>
      <path id="DejaVuSans-32"/>
      <path d="M 18.109375 8.203125 
L 18.109375 -20.796875 
L 9.078125 -20.796875 
L 9.078125 54.6875 
L 18.109375 54.6875 
L 18.109375 46.390625 
Q 20.953125 51.265625 25.265625 53.625 
Q 29.59375 56 35.59375 56 
Q 45.5625 56 51.78125 48.09375 
Q 58.015625 40.1875 58.015625 27.296875 
Q 58.015625 14.40625 51.78125 6.484375 
Q 45.5625 -1.421875 35.59375 -1.421875 
Q 29.59375 -1.421875 25.265625 0.953125 
Q 20.953125 3.328125 18.109375 8.203125 
z
M 48.6875 27.296875 
Q 48.6875 37.203125 44.609375 42.84375 
Q 40.53125 48.484375 33.40625 48.484375 
Q 26.265625 48.484375 22.1875 42.84375 
Q 18.109375 37.203125 18.109375 27.296875 
Q 18.109375 17.390625 22.1875 11.75 
Q 26.265625 6.109375 33.40625 6.109375 
Q 40.53125 6.109375 44.609375 11.75 
Q 48.6875 17.390625 48.6875 27.296875 
z
" id="DejaVuSans-112"/>
      <path d="M 41.109375 46.296875 
Q 39.59375 47.171875 37.8125 47.578125 
Q 36.03125 48 33.890625 48 
Q 26.265625 48 22.1875 43.046875 
Q 18.109375 38.09375 18.109375 28.8125 
L 18.109375 0 
L 9.078125 0 
L 9.078125 54.6875 
L 18.109375 54.6875 
L 18.109375 46.1875 
Q 20.953125 51.171875 25.484375 53.578125 
Q 30.03125 56 36.53125 56 
Q 37.453125 56 38.578125 55.875 
Q 39.703125 55.765625 41.0625 55.515625 
z
" id="DejaVuSans-114"/>
      <path d="M 56.203125 29.59375 
L 56.203125 25.203125 
L 14.890625 25.203125 
Q 15.484375 15.921875 20.484375 11.0625 
Q 25.484375 6.203125 34.421875 6.203125 
Q 39.59375 6.203125 44.453125 7.46875 
Q 49.3125 8.734375 54.109375 11.28125 
L 54.109375 2.78125 
Q 49.265625 0.734375 44.1875 -0.34375 
Q 39.109375 -1.421875 33.890625 -1.421875 
Q 20.796875 -1.421875 13.15625 6.1875 
Q 5.515625 13.8125 5.515625 26.8125 
Q 5.515625 40.234375 12.765625 48.109375 
Q 20.015625 56 32.328125 56 
Q 43.359375 56 49.78125 48.890625 
Q 56.203125 41.796875 56.203125 29.59375 
z
M 47.21875 32.234375 
Q 47.125 39.59375 43.09375 43.984375 
Q 39.0625 48.390625 32.421875 48.390625 
Q 24.90625 48.390625 20.390625 44.140625 
Q 15.875 39.890625 15.1875 32.171875 
z
" id="DejaVuSans-101"/>
      <path d="M 45.40625 46.390625 
L 45.40625 75.984375 
L 54.390625 75.984375 
L 54.390625 0 
L 45.40625 0 
L 45.40625 8.203125 
Q 42.578125 3.328125 38.25 0.953125 
Q 33.9375 -1.421875 27.875 -1.421875 
Q 17.96875 -1.421875 11.734375 6.484375 
Q 5.515625 14.40625 5.515625 27.296875 
Q 5.515625 40.1875 11.734375 48.09375 
Q 17.96875 56 27.875 56 
Q 33.9375 56 38.25 53.625 
Q 42.578125 51.265625 45.40625 46.390625 
z
M 14.796875 27.296875 
Q 14.796875 17.390625 18.875 11.75 
Q 22.953125 6.109375 30.078125 6.109375 
Q 37.203125 6.109375 41.296875 11.75 
Q 45.40625 17.390625 45.40625 27.296875 
Q 45.40625 37.203125 41.296875 42.84375 
Q 37.203125 48.484375 30.078125 48.484375 
Q 22.953125 48.484375 18.875 42.84375 
Q 14.796875 37.203125 14.796875 27.296875 
z
" id="DejaVuSans-100"/>
      <path d="M 9.421875 54.6875 
L 18.40625 54.6875 
L 18.40625 0 
L 9.421875 0 
z
M 9.421875 75.984375 
L 18.40625 75.984375 
L 18.40625 64.59375 
L 9.421875 64.59375 
z
" id="DejaVuSans-105"/>
      <path d="M 48.78125 52.59375 
L 48.78125 44.1875 
Q 44.96875 46.296875 41.140625 47.34375 
Q 37.3125 48.390625 33.40625 48.390625 
Q 24.65625 48.390625 19.8125 42.84375 
Q 14.984375 37.3125 14.984375 27.296875 
Q 14.984375 17.28125 19.8125 11.734375 
Q 24.65625 6.203125 33.40625 6.203125 
Q 37.3125 6.203125 41.140625 7.25 
Q 44.96875 8.296875 48.78125 10.40625 
L 48.78125 2.09375 
Q 45.015625 0.34375 40.984375 -0.53125 
Q 36.96875 -1.421875 32.421875 -1.421875 
Q 20.0625 -1.421875 12.78125 6.34375 
Q 5.515625 14.109375 5.515625 27.296875 
Q 5.515625 40.671875 12.859375 48.328125 
Q 20.21875 56 33.015625 56 
Q 37.15625 56 41.109375 55.140625 
Q 45.0625 54.296875 48.78125 52.59375 
z
" id="DejaVuSans-99"/>
      <path d="M 18.3125 70.21875 
L 18.3125 54.6875 
L 36.8125 54.6875 
L 36.8125 47.703125 
L 18.3125 47.703125 
L 18.3125 18.015625 
Q 18.3125 11.328125 20.140625 9.421875 
Q 21.96875 7.515625 27.59375 7.515625 
L 36.8125 7.515625 
L 36.8125 0 
L 27.59375 0 
Q 17.1875 0 13.234375 3.875 
Q 9.28125 7.765625 9.28125 18.015625 
L 9.28125 47.703125 
L 2.6875 47.703125 
L 2.6875 54.6875 
L 9.28125 54.6875 
L 9.28125 70.21875 
z
" id="DejaVuSans-116"/>
      <path d="M 52 44.1875 
Q 55.375 50.25 60.0625 53.125 
Q 64.75 56 71.09375 56 
Q 79.640625 56 84.28125 50.015625 
Q 88.921875 44.046875 88.921875 33.015625 
L 88.921875 0 
L 79.890625 0 
L 79.890625 32.71875 
Q 79.890625 40.578125 77.09375 44.375 
Q 74.3125 48.1875 68.609375 48.1875 
Q 61.625 48.1875 57.5625 43.546875 
Q 53.515625 38.921875 53.515625 30.90625 
L 53.515625 0 
L 44.484375 0 
L 44.484375 32.71875 
Q 44.484375 40.625 41.703125 44.40625 
Q 38.921875 48.1875 33.109375 48.1875 
Q 26.21875 48.1875 22.15625 43.53125 
Q 18.109375 38.875 18.109375 30.90625 
L 18.109375 0 
L 9.078125 0 
L 9.078125 54.6875 
L 18.109375 54.6875 
L 18.109375 46.1875 
Q 21.1875 51.21875 25.484375 53.609375 
Q 29.78125 56 35.6875 56 
Q 41.65625 56 45.828125 52.96875 
Q 50 49.953125 52 44.1875 
z
" id="DejaVuSans-109"/>
      <path d="M 34.28125 27.484375 
Q 23.390625 27.484375 19.1875 25 
Q 14.984375 22.515625 14.984375 16.5 
Q 14.984375 11.71875 18.140625 8.90625 
Q 21.296875 6.109375 26.703125 6.109375 
Q 34.1875 6.109375 38.703125 11.40625 
Q 43.21875 16.703125 43.21875 25.484375 
L 43.21875 27.484375 
z
M 52.203125 31.203125 
L 52.203125 0 
L 43.21875 0 
L 43.21875 8.296875 
Q 40.140625 3.328125 35.546875 0.953125 
Q 30.953125 -1.421875 24.3125 -1.421875 
Q 15.921875 -1.421875 10.953125 3.296875 
Q 6 8.015625 6 15.921875 
Q 6 25.140625 12.171875 29.828125 
Q 18.359375 34.515625 30.609375 34.515625 
L 43.21875 34.515625 
L 43.21875 35.40625 
Q 43.21875 41.609375 39.140625 45 
Q 35.0625 48.390625 27.6875 48.390625 
Q 23 48.390625 18.546875 47.265625 
Q 14.109375 46.140625 10.015625 43.890625 
L 10.015625 52.203125 
Q 14.9375 54.109375 19.578125 55.046875 
Q 24.21875 56 28.609375 56 
Q 40.484375 56 46.34375 49.84375 
Q 52.203125 43.703125 52.203125 31.203125 
z
" id="DejaVuSans-97"/>
      <path d="M 54.890625 33.015625 
L 54.890625 0 
L 45.90625 0 
L 45.90625 32.71875 
Q 45.90625 40.484375 42.875 44.328125 
Q 39.84375 48.1875 33.796875 48.1875 
Q 26.515625 48.1875 22.3125 43.546875 
Q 18.109375 38.921875 18.109375 30.90625 
L 18.109375 0 
L 9.078125 0 
L 9.078125 54.6875 
L 18.109375 54.6875 
L 18.109375 46.1875 
Q 21.34375 51.125 25.703125 53.5625 
Q 30.078125 56 35.796875 56 
Q 45.21875 56 50.046875 50.171875 
Q 54.890625 44.34375 54.890625 33.015625 
z
" id="DejaVuSans-110"/>
     </defs>
     <g transform="translate(309.791875 58.070438)scale(0.1 -0.1)">
      <use xlink:href="#DejaVuSans-71"/>
      <use x="77.490234" xlink:href="#DejaVuSans-80"/>
      <use x="137.792969" xlink:href="#DejaVuSans-32"/>
      <use x="169.580078" xlink:href="#DejaVuSans-112"/>
      <use x="233.056641" xlink:href="#DejaVuSans-114"/>
      <use x="271.919922" xlink:href="#DejaVuSans-101"/>
      <use x="333.443359" xlink:href="#DejaVuSans-100"/>
      <use x="396.919922" xlink:href="#DejaVuSans-105"/>
      <use x="424.703125" xlink:href="#DejaVuSans-99"/>
      <use x="479.683594" xlink:href="#DejaVuSans-116"/>
      <use x="518.892578" xlink:href="#DejaVuSans-101"/>
      <use x="580.416016" xlink:href="#DejaVuSans-100"/>
      <use x="643.892578" xlink:href="#DejaVuSans-32"/>
      <use x="675.679688" xlink:href="#DejaVuSans-109"/>
      <use x="773.091797" xlink:href="#DejaVuSans-101"/>
      <use x="834.615234" xlink:href="#DejaVuSans-97"/>
      <use x="895.894531" xlink:href="#DejaVuSans-110"/>
     </g>
    </g>
    <g id="line2d_20">
     <path d="M 281.791875 69.248563 
L 301.791875 69.248563 
" style="fill:none;stroke:#000000;stroke-linecap:square;stroke-width:1.5;"/>
    </g>
    <g id="line2d_21"/>
    <g id="text_16">
     <!-- true function -->
     <defs>
      <path d="M 8.5 21.578125 
L 8.5 54.6875 
L 17.484375 54.6875 
L 17.484375 21.921875 
Q 17.484375 14.15625 20.5 10.265625 
Q 23.53125 6.390625 29.59375 6.390625 
Q 36.859375 6.390625 41.078125 11.03125 
Q 45.3125 15.671875 45.3125 23.6875 
L 45.3125 54.6875 
L 54.296875 54.6875 
L 54.296875 0 
L 45.3125 0 
L 45.3125 8.40625 
Q 42.046875 3.421875 37.71875 1 
Q 33.40625 -1.421875 27.6875 -1.421875 
Q 18.265625 -1.421875 13.375 4.4375 
Q 8.5 10.296875 8.5 21.578125 
z
M 31.109375 56 
z
" id="DejaVuSans-117"/>
      <path d="M 37.109375 75.984375 
L 37.109375 68.5 
L 28.515625 68.5 
Q 23.6875 68.5 21.796875 66.546875 
Q 19.921875 64.59375 19.921875 59.515625 
L 19.921875 54.6875 
L 34.71875 54.6875 
L 34.71875 47.703125 
L 19.921875 47.703125 
L 19.921875 0 
L 10.890625 0 
L 10.890625 47.703125 
L 2.296875 47.703125 
L 2.296875 54.6875 
L 10.890625 54.6875 
L 10.890625 58.5 
Q 10.890625 67.625 15.140625 71.796875 
Q 19.390625 75.984375 28.609375 75.984375 
z
" id="DejaVuSans-102"/>
      <path d="M 30.609375 48.390625 
Q 23.390625 48.390625 19.1875 42.75 
Q 14.984375 37.109375 14.984375 27.296875 
Q 14.984375 17.484375 19.15625 11.84375 
Q 23.34375 6.203125 30.609375 6.203125 
Q 37.796875 6.203125 41.984375 11.859375 
Q 46.1875 17.53125 46.1875 27.296875 
Q 46.1875 37.015625 41.984375 42.703125 
Q 37.796875 48.390625 30.609375 48.390625 
z
M 30.609375 56 
Q 42.328125 56 49.015625 48.375 
Q 55.71875 40.765625 55.71875 27.296875 
Q 55.71875 13.875 49.015625 6.21875 
Q 42.328125 -1.421875 30.609375 -1.421875 
Q 18.84375 -1.421875 12.171875 6.21875 
Q 5.515625 13.875 5.515625 27.296875 
Q 5.515625 40.765625 12.171875 48.375 
Q 18.84375 56 30.609375 56 
z
" id="DejaVuSans-111"/>
     </defs>
     <g transform="translate(309.791875 72.748563)scale(0.1 -0.1)">
      <use xlink:href="#DejaVuSans-116"/>
      <use x="39.208984" xlink:href="#DejaVuSans-114"/>
      <use x="80.322266" xlink:href="#DejaVuSans-117"/>
      <use x="143.701172" xlink:href="#DejaVuSans-101"/>
      <use x="205.224609" xlink:href="#DejaVuSans-32"/>
      <use x="237.011719" xlink:href="#DejaVuSans-102"/>
      <use x="272.216797" xlink:href="#DejaVuSans-117"/>
      <use x="335.595703" xlink:href="#DejaVuSans-110"/>
      <use x="398.974609" xlink:href="#DejaVuSans-99"/>
      <use x="453.955078" xlink:href="#DejaVuSans-116"/>
      <use x="493.164062" xlink:href="#DejaVuSans-105"/>
      <use x="520.947266" xlink:href="#DejaVuSans-111"/>
      <use x="582.128906" xlink:href="#DejaVuSans-110"/>
     </g>
    </g>
    <g id="line2d_22">
     <path d="M 281.791875 83.926688 
L 301.791875 83.926688 
" style="fill:none;stroke:#ff00ff;stroke-linecap:square;stroke-width:1.5;"/>
    </g>
    <g id="line2d_23">
     <g>
      <use style="fill:#ff00ff;stroke:#ff00ff;" x="291.791875" xlink:href="#mf054a601dc" y="83.926688"/>
     </g>
    </g>
    <g id="text_17">
     <!-- new sample -->
     <defs>
      <path d="M 4.203125 54.6875 
L 13.1875 54.6875 
L 24.421875 12.015625 
L 35.59375 54.6875 
L 46.1875 54.6875 
L 57.421875 12.015625 
L 68.609375 54.6875 
L 77.59375 54.6875 
L 63.28125 0 
L 52.6875 0 
L 40.921875 44.828125 
L 29.109375 0 
L 18.5 0 
z
" id="DejaVuSans-119"/>
      <path d="M 44.28125 53.078125 
L 44.28125 44.578125 
Q 40.484375 46.53125 36.375 47.5 
Q 32.28125 48.484375 27.875 48.484375 
Q 21.1875 48.484375 17.84375 46.4375 
Q 14.5 44.390625 14.5 40.28125 
Q 14.5 37.15625 16.890625 35.375 
Q 19.28125 33.59375 26.515625 31.984375 
L 29.59375 31.296875 
Q 39.15625 29.25 43.1875 25.515625 
Q 47.21875 21.78125 47.21875 15.09375 
Q 47.21875 7.46875 41.1875 3.015625 
Q 35.15625 -1.421875 24.609375 -1.421875 
Q 20.21875 -1.421875 15.453125 -0.5625 
Q 10.6875 0.296875 5.421875 2 
L 5.421875 11.28125 
Q 10.40625 8.6875 15.234375 7.390625 
Q 20.0625 6.109375 24.8125 6.109375 
Q 31.15625 6.109375 34.5625 8.28125 
Q 37.984375 10.453125 37.984375 14.40625 
Q 37.984375 18.0625 35.515625 20.015625 
Q 33.0625 21.96875 24.703125 23.78125 
L 21.578125 24.515625 
Q 13.234375 26.265625 9.515625 29.90625 
Q 5.8125 33.546875 5.8125 39.890625 
Q 5.8125 47.609375 11.28125 51.796875 
Q 16.75 56 26.8125 56 
Q 31.78125 56 36.171875 55.265625 
Q 40.578125 54.546875 44.28125 53.078125 
z
" id="DejaVuSans-115"/>
      <path d="M 9.421875 75.984375 
L 18.40625 75.984375 
L 18.40625 0 
L 9.421875 0 
z
" id="DejaVuSans-108"/>
     </defs>
     <g transform="translate(309.791875 87.426688)scale(0.1 -0.1)">
      <use xlink:href="#DejaVuSans-110"/>
      <use x="63.378906" xlink:href="#DejaVuSans-101"/>
      <use x="124.902344" xlink:href="#DejaVuSans-119"/>
      <use x="206.689453" xlink:href="#DejaVuSans-32"/>
      <use x="238.476562" xlink:href="#DejaVuSans-115"/>
      <use x="290.576172" xlink:href="#DejaVuSans-97"/>
      <use x="351.855469" xlink:href="#DejaVuSans-109"/>
      <use x="449.267578" xlink:href="#DejaVuSans-112"/>
      <use x="512.744141" xlink:href="#DejaVuSans-108"/>
      <use x="540.527344" xlink:href="#DejaVuSans-101"/>
     </g>
    </g>
    <g id="patch_8">
     <path d="M 281.791875 102.106375 
L 301.791875 102.106375 
L 301.791875 95.106375 
L 281.791875 95.106375 
z
" style="fill:#347aeb;opacity:0.6;"/>
    </g>
    <g id="text_18">
     <!-- GP predicted 2$\sigma$ -->
     <defs>
      <path d="M 34.671875 47.5625 
Q 27.25 47.5625 22.21875 42.1875 
Q 16.890625 36.578125 15.140625 27.296875 
Q 13.1875 17.484375 16.3125 11.8125 
Q 19.390625 6.203125 26.65625 6.203125 
Q 33.84375 6.203125 39.109375 11.859375 
Q 44.4375 17.53125 46.34375 27.296875 
Q 48.046875 36.234375 45.015625 42.1875 
Q 42.1875 47.5625 34.671875 47.5625 
z
M 36.078125 54.734375 
L 65.921875 54.6875 
L 64.15625 45.703125 
L 54.109375 45.703125 
Q 57.90625 38.09375 55.859375 27.296875 
Q 53.21875 13.875 45.0625 6.25 
Q 36.859375 -1.421875 25.140625 -1.421875 
Q 13.375 -1.421875 8.203125 6.25 
Q 3.03125 13.875 5.671875 27.296875 
Q 8.25 40.765625 16.40625 48.390625 
Q 23.1875 54.734375 36.078125 54.734375 
z
" id="DejaVuSans-Oblique-963"/>
     </defs>
     <g transform="translate(309.791875 102.106375)scale(0.1 -0.1)">
      <use transform="translate(0 0.015625)" xlink:href="#DejaVuSans-71"/>
      <use transform="translate(77.490234 0.015625)" xlink:href="#DejaVuSans-80"/>
      <use transform="translate(137.792969 0.015625)" xlink:href="#DejaVuSans-32"/>
      <use transform="translate(169.580078 0.015625)" xlink:href="#DejaVuSans-112"/>
      <use transform="translate(233.056641 0.015625)" xlink:href="#DejaVuSans-114"/>
      <use transform="translate(274.169922 0.015625)" xlink:href="#DejaVuSans-101"/>
      <use transform="translate(335.693359 0.015625)" xlink:href="#DejaVuSans-100"/>
      <use transform="translate(399.169922 0.015625)" xlink:href="#DejaVuSans-105"/>
      <use transform="translate(426.953125 0.015625)" xlink:href="#DejaVuSans-99"/>
      <use transform="translate(481.933594 0.015625)" xlink:href="#DejaVuSans-116"/>
      <use transform="translate(521.142578 0.015625)" xlink:href="#DejaVuSans-101"/>
      <use transform="translate(582.666016 0.015625)" xlink:href="#DejaVuSans-100"/>
      <use transform="translate(646.142578 0.015625)" xlink:href="#DejaVuSans-32"/>
      <use transform="translate(677.929688 0.015625)" xlink:href="#DejaVuSans-50"/>
      <use transform="translate(741.552734 0.015625)" xlink:href="#DejaVuSans-Oblique-963"/>
     </g>
    </g>
   </g>
  </g>
 </g>
 <defs>
  <clipPath id="peda389386c">
   <rect height="266.112" width="357.12" x="57.6" y="41.472"/>
  </clipPath>
 </defs>
</svg>
