<?xml version="1.0" encoding="utf-8" standalone="no"?>
<!DOCTYPE svg PUBLIC "-//W3C//DTD SVG 1.1//EN"
  "http://www.w3.org/Graphics/SVG/1.1/DTD/svg11.dtd">
<!-- Created with matplotlib (https://matplotlib.org/) -->
<svg height="345.6pt" version="1.1" viewBox="0 0 460.8 345.6" width="460.8pt" xmlns="http://www.w3.org/2000/svg" xmlns:xlink="http://www.w3.org/1999/xlink">
 <defs>
  <style type="text/css">
*{stroke-linecap:butt;stroke-linejoin:round;}
  </style>
 </defs>
 <g id="figure_1">
  <g id="patch_1">
   <path d="M 0 345.6 
L 460.8 345.6 
L 460.8 0 
L 0 0 
z
" style="fill:#ffffff;"/>
  </g>
  <g id="axes_1">
   <g id="patch_2">
    <path d="M 57.6 307.584 
L 414.72 307.584 
L 414.72 41.472 
L 57.6 41.472 
z
" style="fill:#ffffff;"/>
   </g>
   <g id="PolyCollection_1">
    <path clip-path="url(#pebb81505f8)" d="M 87.36 245.896967 
L 87.36 245.889678 
L 88.848 239.598505 
L 90.336 233.90917 
L 91.824 228.84812 
L 93.312 224.43396 
L 94.8 220.68084 
L 96.288 217.598224 
L 97.776 215.190702 
L 99.264 213.457841 
L 100.752 212.394072 
L 102.24 211.988634 
L 103.728 212.225548 
L 105.216 213.083651 
L 106.704 214.536666 
L 108.192 216.553332 
L 109.68 219.097567 
L 111.168 222.128688 
L 112.656 225.601666 
L 114.144 229.467433 
L 115.632 233.673221 
L 117.12 238.162941 
L 118.608 242.877599 
L 120.096 247.755735 
L 121.584 252.730252 
L 123.072 248.78192 
L 124.56 244.808207 
L 126.048 240.859343 
L 127.536 236.980584 
L 129.024 233.215396 
L 130.512 229.605012 
L 132 226.188012 
L 133.488 222.999927 
L 134.976 220.072872 
L 136.464 217.435215 
L 137.952 215.11128 
L 139.44 213.121101 
L 140.928 211.480205 
L 142.416 210.199452 
L 143.904 209.284926 
L 145.392 208.737864 
L 146.88 208.554646 
L 148.368 208.726833 
L 149.856 209.241256 
L 151.344 210.080152 
L 152.832 211.221357 
L 154.32 212.638535 
L 155.808 214.301462 
L 157.296 216.176347 
L 158.784 218.226191 
L 160.272 220.411182 
L 161.76 222.685482 
L 163.248 211.704526 
L 164.736 200.123001 
L 166.224 187.996767 
L 167.712 175.382401 
L 169.2 162.340468 
L 170.688 148.935127 
L 172.176 135.233713 
L 173.664 121.306294 
L 175.152 107.225225 
L 176.64 93.064669 
L 178.128 78.900129 
L 179.616 64.807953 
L 181.104 50.864844 
L 182.592 37.147373 
L 184.08 23.731475 
L 185.568 10.69197 
L 187.056 -1.897925 
L 188.544 -13.967072 
L 190.032 -25.446869 
L 191.52 -36.271704 
L 193.008 -46.379383 
L 194.496 -55.711548 
L 195.984 -64.214063 
L 197.472 -71.837389 
L 198.96 -78.536919 
L 200.448 -84.273298 
L 201.936 -89.012701 
L 203.424 -92.727087 
L 204.912 -95.394415 
L 206.4 -96.998819 
L 207.888 -97.530753 
L 209.376 -96.98709 
L 210.864 -95.371179 
L 212.352 -92.692862 
L 213.84 -88.968443 
L 215.328 -84.220618 
L 216.816 -78.478353 
L 218.304 -71.776717 
L 219.792 -64.156674 
L 221.28 -55.664824 
L 222.768 -46.353101 
L 224.256 -36.278431 
L 225.744 -25.502341 
L 227.232 -14.090538 
L 228.72 -2.112441 
L 230.208 10.359316 
L 231.696 23.249409 
L 233.184 36.480384 
L 234.672 49.973235 
L 236.16 63.644355 
L 237.648 65.881744 
L 239.136 68.974669 
L 240.624 72.917568 
L 242.112 77.693983 
L 243.6 83.280257 
L 245.088 89.645656 
L 246.576 96.752558 
L 248.064 104.55672 
L 249.552 113.007602 
L 251.04 122.048762 
L 252.528 131.618318 
L 254.016 141.649458 
L 255.504 152.071012 
L 256.992 162.808076 
L 258.48 173.782668 
L 259.968 184.914435 
L 261.456 196.121383 
L 262.944 207.320631 
L 264.432 218.429182 
L 265.92 229.364704 
L 267.408 240.04631 
L 268.896 250.395327 
L 270.384 260.33605 
L 271.872 269.796478 
L 273.36 278.705365 
L 274.848 278.734704 
L 276.336 278.201445 
L 277.824 277.157362 
L 279.312 275.653611 
L 280.8 273.743762 
L 282.288 271.483171 
L 283.776 268.928338 
L 285.264 266.136268 
L 286.752 263.163827 
L 288.24 260.067111 
L 289.728 256.900833 
L 291.216 253.717736 
L 292.704 250.568038 
L 294.192 247.498918 
L 295.68 244.554038 
L 297.168 241.773129 
L 298.656 239.191619 
L 300.144 236.84033 
L 301.632 234.745233 
L 303.12 232.92727 
L 304.608 231.40224 
L 306.096 230.180755 
L 307.584 229.268266 
L 309.072 228.665152 
L 310.56 228.366873 
L 312.048 228.364191 
L 313.536 228.643443 
L 315.024 229.186873 
L 316.512 229.973011 
L 318 230.973456 
L 319.488 225.287955 
L 320.976 220.018937 
L 322.464 215.221667 
L 323.952 210.941616 
L 325.44 207.217654 
L 326.928 204.081679 
L 328.416 201.558322 
L 329.904 199.664734 
L 331.392 198.410455 
L 332.88 197.797368 
L 334.368 197.819737 
L 335.856 198.464325 
L 337.344 199.710594 
L 338.832 201.530985 
L 340.32 203.891263 
L 341.808 206.750945 
L 343.296 210.063773 
L 344.784 213.778263 
L 346.272 217.83829 
L 347.76 222.183723 
L 349.248 226.751095 
L 350.736 231.474298 
L 352.224 236.285301 
L 353.712 241.114874 
L 355.2 245.889678 
L 356.688 244.495641 
L 358.176 243.035265 
L 359.664 241.545419 
L 361.152 240.061157 
L 362.64 238.618917 
L 364.128 237.256073 
L 365.616 236.010476 
L 367.104 234.919998 
L 368.592 234.02207 
L 370.08 233.353241 
L 371.568 232.948746 
L 373.056 232.8421 
L 374.544 233.064715 
L 376.032 233.645548 
L 377.52 234.610779 
L 379.008 235.983538 
L 380.496 237.783661 
L 381.984 240.027492 
L 383.472 242.727729 
L 384.96 245.889678 
L 384.96 245.896967 
L 384.96 245.896967 
L 383.472 252.191539 
L 381.984 257.799112 
L 380.496 262.695895 
L 379.008 266.867207 
L 377.52 270.304098 
L 376.032 273.003551 
L 374.544 274.968631 
L 373.056 276.208568 
L 371.568 276.738788 
L 370.08 276.580868 
L 368.592 275.762435 
L 367.104 274.316988 
L 365.616 272.283667 
L 364.128 269.706944 
L 362.64 266.636261 
L 361.152 263.125599 
L 359.664 259.233002 
L 358.176 255.020034 
L 356.688 250.551202 
L 355.2 245.896967 
L 353.712 247.197317 
L 352.224 248.379262 
L 350.736 249.413791 
L 349.248 250.278842 
L 347.76 250.955944 
L 346.272 251.430452 
L 344.784 251.691726 
L 343.296 251.733261 
L 341.808 251.552765 
L 340.32 251.152173 
L 338.832 250.5376 
L 337.344 249.719248 
L 335.856 248.711238 
L 334.368 247.531398 
L 332.88 246.200992 
L 331.392 244.744394 
L 329.904 243.188721 
L 328.416 241.563415 
L 326.928 239.899796 
L 325.44 238.230576 
L 323.952 236.589347 
L 322.464 235.010054 
L 320.976 233.52645 
L 319.488 232.171555 
L 318 230.980746 
L 316.512 237.029113 
L 315.024 243.381674 
L 313.536 249.968062 
L 312.048 256.717826 
L 310.56 263.557529 
L 309.072 270.411521 
L 307.584 277.20273 
L 306.096 283.853487 
L 304.608 290.286348 
L 303.12 296.424921 
L 301.632 302.194687 
L 300.144 307.523795 
L 298.656 312.343838 
L 297.168 316.59059 
L 295.68 320.204703 
L 294.192 323.132343 
L 292.704 325.325784 
L 291.216 326.743922 
L 289.728 327.352729 
L 288.24 327.125632 
L 286.752 326.043803 
L 285.264 324.096383 
L 283.776 321.280613 
L 282.288 317.60188 
L 280.8 313.073682 
L 279.312 307.717509 
L 277.824 301.562639 
L 276.336 294.645856 
L 274.848 287.011096 
L 273.36 278.712655 
L 271.872 278.079828 
L 270.384 276.806778 
L 268.896 274.854141 
L 267.408 272.191322 
L 265.92 268.79326 
L 264.432 264.640788 
L 262.944 259.720933 
L 261.456 254.027154 
L 259.968 247.559512 
L 258.48 240.324781 
L 256.992 232.336484 
L 255.504 223.614875 
L 254.016 214.186838 
L 252.528 204.085736 
L 251.04 193.351193 
L 249.552 182.028811 
L 248.064 170.169842 
L 246.576 157.830794 
L 245.088 145.073003 
L 243.6 131.962154 
L 242.112 118.567765 
L 240.624 104.962639 
L 239.136 91.222294 
L 237.648 77.424366 
L 236.16 63.651645 
L 234.672 62.275409 
L 233.184 61.758792 
L 231.696 62.08598 
L 230.208 63.238018 
L 228.72 65.189446 
L 227.232 67.908631 
L 225.744 71.358151 
L 224.256 75.495227 
L 222.768 80.272199 
L 221.28 85.637038 
L 219.792 91.533893 
L 218.304 97.90366 
L 216.816 104.684579 
L 215.328 111.812836 
L 213.84 119.22318 
L 212.352 126.849546 
L 210.864 134.625668 
L 209.376 142.485689 
L 207.888 150.364756 
L 206.4 158.199592 
L 204.912 165.929054 
L 203.424 173.494652 
L 201.936 180.841039 
L 200.448 187.916471 
L 198.96 194.67321 
L 197.472 201.067904 
L 195.984 207.061903 
L 194.496 212.621539 
L 193.008 217.718346 
L 191.52 222.329232 
L 190.032 226.436602 
L 188.544 230.028418 
L 187.056 233.098216 
L 185.568 235.645057 
L 184.08 237.673442 
L 182.592 239.19316 
L 181.104 240.219097 
L 179.616 240.770992 
L 178.128 240.873154 
L 176.64 240.554131 
L 175.152 239.846347 
L 173.664 238.785698 
L 172.176 237.411125 
L 170.688 235.764152 
L 169.2 233.888409 
L 167.712 231.829134 
L 166.224 229.632666 
L 164.736 227.345926 
L 163.248 225.015902 
L 161.76 222.692772 
L 160.272 233.029289 
L 158.784 242.68251 
L 157.296 251.611582 
L 155.808 259.784829 
L 154.32 267.176315 
L 152.832 273.766002 
L 151.344 279.539873 
L 149.856 284.490015 
L 148.368 288.614644 
L 146.88 291.9181 
L 145.392 294.410784 
L 143.904 296.109055 
L 142.416 297.03508 
L 140.928 297.216639 
L 139.44 296.686887 
L 137.952 295.48407 
L 136.464 293.651206 
L 134.976 291.235726 
L 133.488 288.289081 
L 132 284.86631 
L 130.512 281.025597 
L 129.024 276.827781 
L 127.536 272.335865 
L 126.048 267.614503 
L 124.56 262.729468 
L 123.072 257.747125 
L 121.584 252.737541 
L 120.096 256.616684 
L 118.608 260.38244 
L 117.12 263.983416 
L 115.632 267.372414 
L 114.144 270.503258 
L 112.656 273.331235 
L 111.168 275.813526 
L 109.68 277.90961 
L 108.192 279.581639 
L 106.704 280.794786 
L 105.216 281.517557 
L 103.728 281.722063 
L 102.24 281.384258 
L 100.752 280.484131 
L 99.264 279.005856 
L 97.776 276.937902 
L 96.288 274.273093 
L 94.8 271.00863 
L 93.312 267.146064 
L 91.824 262.691233 
L 90.336 257.654155 
L 88.848 252.048884 
L 87.36 245.896967 
z
" style="fill:#347aeb;fill-opacity:0.6;"/>
   </g>
   <g id="PathCollection_1">
    <defs>
     <path d="M 0 3 
C 0.795609 3 1.55874 2.683901 2.12132 2.12132 
C 2.683901 1.55874 3 0.795609 3 0 
C 3 -0.795609 2.683901 -1.55874 2.12132 -2.12132 
C 1.55874 -2.683901 0.795609 -3 0 -3 
C -0.795609 -3 -1.55874 -2.683901 -2.12132 -2.12132 
C -2.683901 -1.55874 -3 -0.795609 -3 0 
C -3 0.795609 -2.683901 1.55874 -2.12132 2.12132 
C -1.55874 2.683901 -0.795609 3 0 3 
z
" id="m3c1455306c" style="stroke:#1f77b4;"/>
    </defs>
    <g clip-path="url(#pebb81505f8)">
     <use style="fill:#1f77b4;stroke:#1f77b4;" x="87.36" xlink:href="#m3c1455306c" y="245.893322"/>
     <use style="fill:#1f77b4;stroke:#1f77b4;" x="236.16" xlink:href="#m3c1455306c" y="63.648"/>
     <use style="fill:#1f77b4;stroke:#1f77b4;" x="384.96" xlink:href="#m3c1455306c" y="245.893322"/>
     <use style="fill:#1f77b4;stroke:#1f77b4;" x="161.76" xlink:href="#m3c1455306c" y="222.689127"/>
     <use style="fill:#1f77b4;stroke:#1f77b4;" x="318" xlink:href="#m3c1455306c" y="230.977101"/>
     <use style="fill:#1f77b4;stroke:#1f77b4;" x="121.584" xlink:href="#m3c1455306c" y="252.733897"/>
     <use style="fill:#1f77b4;stroke:#1f77b4;" x="355.2" xlink:href="#m3c1455306c" y="245.893322"/>
     <use style="fill:#1f77b4;stroke:#1f77b4;" x="273.36" xlink:href="#m3c1455306c" y="278.70901"/>
    </g>
   </g>
   <g id="matplotlib.axis_1">
    <g id="xtick_1">
     <g id="line2d_1">
      <defs>
       <path d="M 0 0 
L 0 3.5 
" id="mfc6bf9f003" style="stroke:#000000;stroke-width:0.8;"/>
      </defs>
      <g>
       <use style="stroke:#000000;stroke-width:0.8;" x="57.6" xlink:href="#mfc6bf9f003" y="307.584"/>
      </g>
     </g>
     <g id="text_1">
      <!-- −6 -->
      <defs>
       <path d="M 10.59375 35.5 
L 73.1875 35.5 
L 73.1875 27.203125 
L 10.59375 27.203125 
z
" id="DejaVuSans-8722"/>
       <path d="M 33.015625 40.375 
Q 26.375 40.375 22.484375 35.828125 
Q 18.609375 31.296875 18.609375 23.390625 
Q 18.609375 15.53125 22.484375 10.953125 
Q 26.375 6.390625 33.015625 6.390625 
Q 39.65625 6.390625 43.53125 10.953125 
Q 47.40625 15.53125 47.40625 23.390625 
Q 47.40625 31.296875 43.53125 35.828125 
Q 39.65625 40.375 33.015625 40.375 
z
M 52.59375 71.296875 
L 52.59375 62.3125 
Q 48.875 64.0625 45.09375 64.984375 
Q 41.3125 65.921875 37.59375 65.921875 
Q 27.828125 65.921875 22.671875 59.328125 
Q 17.53125 52.734375 16.796875 39.40625 
Q 19.671875 43.65625 24.015625 45.921875 
Q 28.375 48.1875 33.59375 48.1875 
Q 44.578125 48.1875 50.953125 41.515625 
Q 57.328125 34.859375 57.328125 23.390625 
Q 57.328125 12.15625 50.6875 5.359375 
Q 44.046875 -1.421875 33.015625 -1.421875 
Q 20.359375 -1.421875 13.671875 8.265625 
Q 6.984375 17.96875 6.984375 36.375 
Q 6.984375 53.65625 15.1875 63.9375 
Q 23.390625 74.21875 37.203125 74.21875 
Q 40.921875 74.21875 44.703125 73.484375 
Q 48.484375 72.75 52.59375 71.296875 
z
" id="DejaVuSans-54"/>
      </defs>
      <g transform="translate(50.228906 322.182437)scale(0.1 -0.1)">
       <use xlink:href="#DejaVuSans-8722"/>
       <use x="83.789062" xlink:href="#DejaVuSans-54"/>
      </g>
     </g>
    </g>
    <g id="xtick_2">
     <g id="line2d_2">
      <g>
       <use style="stroke:#000000;stroke-width:0.8;" x="117.12" xlink:href="#mfc6bf9f003" y="307.584"/>
      </g>
     </g>
     <g id="text_2">
      <!-- −4 -->
      <defs>
       <path d="M 37.796875 64.3125 
L 12.890625 25.390625 
L 37.796875 25.390625 
z
M 35.203125 72.90625 
L 47.609375 72.90625 
L 47.609375 25.390625 
L 58.015625 25.390625 
L 58.015625 17.1875 
L 47.609375 17.1875 
L 47.609375 0 
L 37.796875 0 
L 37.796875 17.1875 
L 4.890625 17.1875 
L 4.890625 26.703125 
z
" id="DejaVuSans-52"/>
      </defs>
      <g transform="translate(109.748906 322.182437)scale(0.1 -0.1)">
       <use xlink:href="#DejaVuSans-8722"/>
       <use x="83.789062" xlink:href="#DejaVuSans-52"/>
      </g>
     </g>
    </g>
    <g id="xtick_3">
     <g id="line2d_3">
      <g>
       <use style="stroke:#000000;stroke-width:0.8;" x="176.64" xlink:href="#mfc6bf9f003" y="307.584"/>
      </g>
     </g>
     <g id="text_3">
      <!-- −2 -->
      <defs>
       <path d="M 19.1875 8.296875 
L 53.609375 8.296875 
L 53.609375 0 
L 7.328125 0 
L 7.328125 8.296875 
Q 12.9375 14.109375 22.625 23.890625 
Q 32.328125 33.6875 34.8125 36.53125 
Q 39.546875 41.84375 41.421875 45.53125 
Q 43.3125 49.21875 43.3125 52.78125 
Q 43.3125 58.59375 39.234375 62.25 
Q 35.15625 65.921875 28.609375 65.921875 
Q 23.96875 65.921875 18.8125 64.3125 
Q 13.671875 62.703125 7.8125 59.421875 
L 7.8125 69.390625 
Q 13.765625 71.78125 18.9375 73 
Q 24.125 74.21875 28.421875 74.21875 
Q 39.75 74.21875 46.484375 68.546875 
Q 53.21875 62.890625 53.21875 53.421875 
Q 53.21875 48.921875 51.53125 44.890625 
Q 49.859375 40.875 45.40625 35.40625 
Q 44.1875 33.984375 37.640625 27.21875 
Q 31.109375 20.453125 19.1875 8.296875 
z
" id="DejaVuSans-50"/>
      </defs>
      <g transform="translate(169.268906 322.182437)scale(0.1 -0.1)">
       <use xlink:href="#DejaVuSans-8722"/>
       <use x="83.789062" xlink:href="#DejaVuSans-50"/>
      </g>
     </g>
    </g>
    <g id="xtick_4">
     <g id="line2d_4">
      <g>
       <use style="stroke:#000000;stroke-width:0.8;" x="236.16" xlink:href="#mfc6bf9f003" y="307.584"/>
      </g>
     </g>
     <g id="text_4">
      <!-- 0 -->
      <defs>
       <path d="M 31.78125 66.40625 
Q 24.171875 66.40625 20.328125 58.90625 
Q 16.5 51.421875 16.5 36.375 
Q 16.5 21.390625 20.328125 13.890625 
Q 24.171875 6.390625 31.78125 6.390625 
Q 39.453125 6.390625 43.28125 13.890625 
Q 47.125 21.390625 47.125 36.375 
Q 47.125 51.421875 43.28125 58.90625 
Q 39.453125 66.40625 31.78125 66.40625 
z
M 31.78125 74.21875 
Q 44.046875 74.21875 50.515625 64.515625 
Q 56.984375 54.828125 56.984375 36.375 
Q 56.984375 17.96875 50.515625 8.265625 
Q 44.046875 -1.421875 31.78125 -1.421875 
Q 19.53125 -1.421875 13.0625 8.265625 
Q 6.59375 17.96875 6.59375 36.375 
Q 6.59375 54.828125 13.0625 64.515625 
Q 19.53125 74.21875 31.78125 74.21875 
z
" id="DejaVuSans-48"/>
      </defs>
      <g transform="translate(232.97875 322.182437)scale(0.1 -0.1)">
       <use xlink:href="#DejaVuSans-48"/>
      </g>
     </g>
    </g>
    <g id="xtick_5">
     <g id="line2d_5">
      <g>
       <use style="stroke:#000000;stroke-width:0.8;" x="295.68" xlink:href="#mfc6bf9f003" y="307.584"/>
      </g>
     </g>
     <g id="text_5">
      <!-- 2 -->
      <g transform="translate(292.49875 322.182437)scale(0.1 -0.1)">
       <use xlink:href="#DejaVuSans-50"/>
      </g>
     </g>
    </g>
    <g id="xtick_6">
     <g id="line2d_6">
      <g>
       <use style="stroke:#000000;stroke-width:0.8;" x="355.2" xlink:href="#mfc6bf9f003" y="307.584"/>
      </g>
     </g>
     <g id="text_6">
      <!-- 4 -->
      <g transform="translate(352.01875 322.182437)scale(0.1 -0.1)">
       <use xlink:href="#DejaVuSans-52"/>
      </g>
     </g>
    </g>
    <g id="xtick_7">
     <g id="line2d_7">
      <g>
       <use style="stroke:#000000;stroke-width:0.8;" x="414.72" xlink:href="#mfc6bf9f003" y="307.584"/>
      </g>
     </g>
     <g id="text_7">
      <!-- 6 -->
      <g transform="translate(411.53875 322.182437)scale(0.1 -0.1)">
       <use xlink:href="#DejaVuSans-54"/>
      </g>
     </g>
    </g>
   </g>
   <g id="matplotlib.axis_2">
    <g id="ytick_1">
     <g id="line2d_8">
      <defs>
       <path d="M 0 0 
L -3.5 0 
" id="m4d8415c6ed" style="stroke:#000000;stroke-width:0.8;"/>
      </defs>
      <g>
       <use style="stroke:#000000;stroke-width:0.8;" x="57.6" xlink:href="#m4d8415c6ed" y="282.342387"/>
      </g>
     </g>
     <g id="text_8">
      <!-- −0.2 -->
      <defs>
       <path d="M 10.6875 12.40625 
L 21 12.40625 
L 21 0 
L 10.6875 0 
z
" id="DejaVuSans-46"/>
      </defs>
      <g transform="translate(26.317187 286.141606)scale(0.1 -0.1)">
       <use xlink:href="#DejaVuSans-8722"/>
       <use x="83.789062" xlink:href="#DejaVuSans-48"/>
       <use x="147.412109" xlink:href="#DejaVuSans-46"/>
       <use x="179.199219" xlink:href="#DejaVuSans-50"/>
      </g>
     </g>
    </g>
    <g id="ytick_2">
     <g id="line2d_9">
      <g>
       <use style="stroke:#000000;stroke-width:0.8;" x="57.6" xlink:href="#m4d8415c6ed" y="245.893322"/>
      </g>
     </g>
     <g id="text_9">
      <!-- 0.0 -->
      <g transform="translate(34.696875 249.692541)scale(0.1 -0.1)">
       <use xlink:href="#DejaVuSans-48"/>
       <use x="63.623047" xlink:href="#DejaVuSans-46"/>
       <use x="95.410156" xlink:href="#DejaVuSans-48"/>
      </g>
     </g>
    </g>
    <g id="ytick_3">
     <g id="line2d_10">
      <g>
       <use style="stroke:#000000;stroke-width:0.8;" x="57.6" xlink:href="#m4d8415c6ed" y="209.444258"/>
      </g>
     </g>
     <g id="text_10">
      <!-- 0.2 -->
      <g transform="translate(34.696875 213.243477)scale(0.1 -0.1)">
       <use xlink:href="#DejaVuSans-48"/>
       <use x="63.623047" xlink:href="#DejaVuSans-46"/>
       <use x="95.410156" xlink:href="#DejaVuSans-50"/>
      </g>
     </g>
    </g>
    <g id="ytick_4">
     <g id="line2d_11">
      <g>
       <use style="stroke:#000000;stroke-width:0.8;" x="57.6" xlink:href="#m4d8415c6ed" y="172.995193"/>
      </g>
     </g>
     <g id="text_11">
      <!-- 0.4 -->
      <g transform="translate(34.696875 176.794412)scale(0.1 -0.1)">
       <use xlink:href="#DejaVuSans-48"/>
       <use x="63.623047" xlink:href="#DejaVuSans-46"/>
       <use x="95.410156" xlink:href="#DejaVuSans-52"/>
      </g>
     </g>
    </g>
    <g id="ytick_5">
     <g id="line2d_12">
      <g>
       <use style="stroke:#000000;stroke-width:0.8;" x="57.6" xlink:href="#m4d8415c6ed" y="136.546129"/>
      </g>
     </g>
     <g id="text_12">
      <!-- 0.6 -->
      <g transform="translate(34.696875 140.345348)scale(0.1 -0.1)">
       <use xlink:href="#DejaVuSans-48"/>
       <use x="63.623047" xlink:href="#DejaVuSans-46"/>
       <use x="95.410156" xlink:href="#DejaVuSans-54"/>
      </g>
     </g>
    </g>
    <g id="ytick_6">
     <g id="line2d_13">
      <g>
       <use style="stroke:#000000;stroke-width:0.8;" x="57.6" xlink:href="#m4d8415c6ed" y="100.097064"/>
      </g>
     </g>
     <g id="text_13">
      <!-- 0.8 -->
      <defs>
       <path d="M 31.78125 34.625 
Q 24.75 34.625 20.71875 30.859375 
Q 16.703125 27.09375 16.703125 20.515625 
Q 16.703125 13.921875 20.71875 10.15625 
Q 24.75 6.390625 31.78125 6.390625 
Q 38.8125 6.390625 42.859375 10.171875 
Q 46.921875 13.96875 46.921875 20.515625 
Q 46.921875 27.09375 42.890625 30.859375 
Q 38.875 34.625 31.78125 34.625 
z
M 21.921875 38.8125 
Q 15.578125 40.375 12.03125 44.71875 
Q 8.5 49.078125 8.5 55.328125 
Q 8.5 64.0625 14.71875 69.140625 
Q 20.953125 74.21875 31.78125 74.21875 
Q 42.671875 74.21875 48.875 69.140625 
Q 55.078125 64.0625 55.078125 55.328125 
Q 55.078125 49.078125 51.53125 44.71875 
Q 48 40.375 41.703125 38.8125 
Q 48.828125 37.15625 52.796875 32.3125 
Q 56.78125 27.484375 56.78125 20.515625 
Q 56.78125 9.90625 50.3125 4.234375 
Q 43.84375 -1.421875 31.78125 -1.421875 
Q 19.734375 -1.421875 13.25 4.234375 
Q 6.78125 9.90625 6.78125 20.515625 
Q 6.78125 27.484375 10.78125 32.3125 
Q 14.796875 37.15625 21.921875 38.8125 
z
M 18.3125 54.390625 
Q 18.3125 48.734375 21.84375 45.5625 
Q 25.390625 42.390625 31.78125 42.390625 
Q 38.140625 42.390625 41.71875 45.5625 
Q 45.3125 48.734375 45.3125 54.390625 
Q 45.3125 60.0625 41.71875 63.234375 
Q 38.140625 66.40625 31.78125 66.40625 
Q 25.390625 66.40625 21.84375 63.234375 
Q 18.3125 60.0625 18.3125 54.390625 
z
" id="DejaVuSans-56"/>
      </defs>
      <g transform="translate(34.696875 103.896283)scale(0.1 -0.1)">
       <use xlink:href="#DejaVuSans-48"/>
       <use x="63.623047" xlink:href="#DejaVuSans-46"/>
       <use x="95.410156" xlink:href="#DejaVuSans-56"/>
      </g>
     </g>
    </g>
    <g id="ytick_7">
     <g id="line2d_14">
      <g>
       <use style="stroke:#000000;stroke-width:0.8;" x="57.6" xlink:href="#m4d8415c6ed" y="63.648"/>
      </g>
     </g>
     <g id="text_14">
      <!-- 1.0 -->
      <defs>
       <path d="M 12.40625 8.296875 
L 28.515625 8.296875 
L 28.515625 63.921875 
L 10.984375 60.40625 
L 10.984375 69.390625 
L 28.421875 72.90625 
L 38.28125 72.90625 
L 38.28125 8.296875 
L 54.390625 8.296875 
L 54.390625 0 
L 12.40625 0 
z
" id="DejaVuSans-49"/>
      </defs>
      <g transform="translate(34.696875 67.447219)scale(0.1 -0.1)">
       <use xlink:href="#DejaVuSans-49"/>
       <use x="63.623047" xlink:href="#DejaVuSans-46"/>
       <use x="95.410156" xlink:href="#DejaVuSans-48"/>
      </g>
     </g>
    </g>
   </g>
   <g id="line2d_15">
    <path clip-path="url(#pebb81505f8)" d="M 87.36 245.893322 
L 91.824 245.769677 
L 96.288 245.935659 
L 99.264 246.231848 
L 102.24 246.686446 
L 105.216 247.300604 
L 109.68 248.503589 
L 114.144 249.985345 
L 126.048 254.236923 
L 129.024 255.021588 
L 132 255.527161 
L 134.976 255.654299 
L 136.464 255.54321 
L 137.952 255.297675 
L 139.44 254.903994 
L 140.928 254.348422 
L 142.416 253.617266 
L 143.904 252.696991 
L 145.392 251.574324 
L 146.88 250.236373 
L 148.368 248.670739 
L 149.856 246.865635 
L 151.344 244.810013 
L 152.832 242.493679 
L 154.32 239.907425 
L 155.808 237.043146 
L 157.296 233.893964 
L 158.784 230.45435 
L 161.76 222.689127 
L 164.736 213.734463 
L 167.712 203.605767 
L 170.688 192.34964 
L 173.664 180.045996 
L 176.64 166.8094 
L 181.104 145.541971 
L 187.056 115.600145 
L 193.008 85.669481 
L 195.984 71.42392 
L 198.96 58.068145 
L 201.936 45.914169 
L 204.912 35.26732 
L 206.4 30.600386 
L 207.888 26.417001 
L 209.376 22.749299 
L 210.864 19.627244 
L 212.352 17.078342 
L 213.84 15.127368 
L 215.328 13.796109 
L 216.816 13.103113 
L 218.304 13.063472 
L 219.792 13.688609 
L 221.28 14.986107 
L 222.768 16.959549 
L 224.256 19.608398 
L 225.744 22.927905 
L 227.232 26.909047 
L 228.72 31.538503 
L 230.208 36.798667 
L 231.696 42.667694 
L 233.184 49.119588 
L 236.16 63.648 
L 239.136 80.098482 
L 242.112 98.130874 
L 246.576 127.291676 
L 256.992 197.57228 
L 259.968 216.236974 
L 262.944 233.520782 
L 265.92 249.078982 
L 268.896 262.624734 
L 270.384 268.571414 
L 271.872 273.938153 
L 273.36 278.70901 
L 274.848 282.8729 
L 276.336 286.42365 
L 277.824 289.36 
L 279.312 291.68556 
L 280.8 293.408722 
L 282.288 294.542525 
L 283.776 295.104476 
L 285.264 295.116326 
L 286.752 294.603815 
L 288.24 293.596371 
L 289.728 292.126781 
L 291.216 290.230829 
L 292.704 287.946911 
L 294.192 285.315631 
L 295.68 282.37937 
L 298.656 275.767728 
L 301.632 268.46996 
L 310.56 245.962201 
L 313.536 239.305752 
L 316.512 233.501062 
L 318 230.977101 
L 319.488 228.729755 
L 320.976 226.772694 
L 322.464 225.11586 
L 323.952 223.765481 
L 325.44 222.724115 
L 326.928 221.990738 
L 328.416 221.560869 
L 329.904 221.426727 
L 331.392 221.577425 
L 332.88 221.99918 
L 334.368 222.675568 
L 335.856 223.587781 
L 337.344 224.714921 
L 338.832 226.034293 
L 341.808 229.151855 
L 344.784 232.734994 
L 355.2 245.893322 
L 358.176 249.02765 
L 359.664 250.389211 
L 361.152 251.593378 
L 362.64 252.627589 
L 364.128 253.481508 
L 365.616 254.147072 
L 367.104 254.618493 
L 368.592 254.892253 
L 370.08 254.967054 
L 371.568 254.843767 
L 373.056 254.525334 
L 374.544 254.016673 
L 376.032 253.324549 
L 377.52 252.457438 
L 379.008 251.425372 
L 381.984 248.913302 
L 384.96 245.893322 
L 384.96 245.893322 
" style="fill:none;stroke:#333333;stroke-linecap:square;stroke-width:1.5;"/>
   </g>
   <g id="line2d_16">
    <path clip-path="url(#pebb81505f8)" d="M 87.36 245.893322 
L 91.824 240.463176 
L 94.8 237.257615 
L 96.288 235.907903 
L 97.776 234.777683 
L 99.264 233.899572 
L 100.752 233.300733 
L 102.24 233.002103 
L 103.728 233.017753 
L 105.216 233.354401 
L 106.704 234.011087 
L 108.192 234.979027 
L 109.68 236.24165 
L 111.168 237.77482 
L 112.656 239.547248 
L 115.632 243.652621 
L 123.072 254.866404 
L 124.56 256.831885 
L 126.048 258.577504 
L 127.536 260.054342 
L 129.024 261.21867 
L 130.512 262.03312 
L 132 262.467748 
L 133.488 262.500941 
L 134.976 262.120161 
L 136.464 261.322494 
L 137.952 260.11498 
L 139.44 258.514741 
L 140.928 256.548857 
L 142.416 254.254024 
L 143.904 251.675976 
L 146.88 245.893322 
L 152.832 233.715569 
L 154.32 230.977101 
L 155.808 228.511296 
L 157.296 226.388521 
L 158.784 224.67361 
L 160.272 223.424192 
L 161.76 222.689127 
L 163.248 222.507085 
L 164.736 222.905301 
L 166.224 223.898547 
L 167.712 225.488335 
L 169.2 227.662385 
L 170.688 230.394364 
L 172.176 233.643922 
L 173.664 237.357024 
L 176.64 245.893322 
L 185.568 273.50007 
L 187.056 277.219215 
L 188.544 280.375355 
L 190.032 282.858666 
L 191.52 284.566981 
L 193.008 285.408 
L 194.496 285.30136 
L 195.984 284.180525 
L 197.472 281.994454 
L 198.96 278.70901 
L 200.448 274.30808 
L 201.936 268.794375 
L 203.424 262.189892 
L 204.912 254.536027 
L 206.4 245.893322 
L 207.888 236.34086 
L 210.864 214.909546 
L 213.84 191.20051 
L 221.28 129.872347 
L 224.256 107.965191 
L 225.744 98.214113 
L 227.232 89.455087 
L 228.72 81.814885 
L 230.208 75.404776 
L 231.696 70.318587 
L 233.184 66.631056 
L 234.672 64.39653 
L 236.16 63.648 
L 237.648 64.39653 
L 239.136 66.631056 
L 240.624 70.318587 
L 242.112 75.404776 
L 243.6 81.814885 
L 245.088 89.455087 
L 246.576 98.214113 
L 248.064 107.965191 
L 251.04 129.872347 
L 254.016 153.941235 
L 259.968 203.271186 
L 262.944 225.975293 
L 264.432 236.34086 
L 265.92 245.893322 
L 267.408 254.536027 
L 268.896 262.189892 
L 270.384 268.794375 
L 271.872 274.30808 
L 273.36 278.70901 
L 274.848 281.994454 
L 276.336 284.180525 
L 277.824 285.30136 
L 279.312 285.408 
L 280.8 284.566981 
L 282.288 282.858666 
L 283.776 280.375355 
L 285.264 277.219215 
L 286.752 273.50007 
L 289.728 264.836494 
L 297.168 241.466571 
L 298.656 237.357024 
L 300.144 233.643922 
L 301.632 230.394364 
L 303.12 227.662385 
L 304.608 225.488335 
L 306.096 223.898547 
L 307.584 222.905301 
L 309.072 222.507085 
L 310.56 222.689127 
L 312.048 223.424192 
L 313.536 224.67361 
L 315.024 226.388521 
L 316.512 228.511296 
L 318 230.977101 
L 320.976 236.652547 
L 326.928 248.86868 
L 329.904 254.254024 
L 331.392 256.548857 
L 332.88 258.514741 
L 334.368 260.11498 
L 335.856 261.322494 
L 337.344 262.120161 
L 338.832 262.500941 
L 340.32 262.467748 
L 341.808 262.03312 
L 343.296 261.21867 
L 344.784 260.054342 
L 346.272 258.577504 
L 347.76 256.831885 
L 350.736 252.733897 
L 358.176 241.521072 
L 359.664 239.547248 
L 361.152 237.77482 
L 362.64 236.24165 
L 364.128 234.979027 
L 365.616 234.011087 
L 367.104 233.354401 
L 368.592 233.017753 
L 370.08 233.002103 
L 371.568 233.300733 
L 373.056 233.899572 
L 374.544 234.777683 
L 376.032 235.907903 
L 377.52 237.257615 
L 380.496 240.463176 
L 384.96 245.893322 
L 384.96 245.893322 
" style="fill:none;stroke:#000000;stroke-linecap:square;stroke-width:1.5;"/>
   </g>
   <g id="line2d_17">
    <path clip-path="url(#pebb81505f8)" d="M 273.36 278.70901 
L 273.36 278.70901 
" style="fill:none;stroke:#ff00ff;stroke-linecap:square;stroke-width:1.5;"/>
    <defs>
     <path d="M 0 3 
C 0.795609 3 1.55874 2.683901 2.12132 2.12132 
C 2.683901 1.55874 3 0.795609 3 0 
C 3 -0.795609 2.683901 -1.55874 2.12132 -2.12132 
C 1.55874 -2.683901 0.795609 -3 0 -3 
C -0.795609 -3 -1.55874 -2.683901 -2.12132 -2.12132 
C -2.683901 -1.55874 -3 -0.795609 -3 0 
C -3 0.795609 -2.683901 1.55874 -2.12132 2.12132 
C -1.55874 2.683901 -0.795609 3 0 3 
z
" id="mf6979a4390" style="stroke:#ff00ff;"/>
    </defs>
    <g clip-path="url(#pebb81505f8)">
     <use style="fill:#ff00ff;stroke:#ff00ff;" x="273.36" xlink:href="#mf6979a4390" y="278.70901"/>
     <use style="fill:#ff00ff;stroke:#ff00ff;" x="273.36" xlink:href="#mf6979a4390" y="278.70901"/>
    </g>
   </g>
   <g id="patch_3">
    <path d="M 57.6 307.584 
L 57.6 41.472 
" style="fill:none;stroke:#000000;stroke-linecap:square;stroke-linejoin:miter;stroke-width:0.8;"/>
   </g>
   <g id="patch_4">
    <path d="M 414.72 307.584 
L 414.72 41.472 
" style="fill:none;stroke:#000000;stroke-linecap:square;stroke-linejoin:miter;stroke-width:0.8;"/>
   </g>
   <g id="patch_5">
    <path d="M 57.6 307.584 
L 414.72 307.584 
" style="fill:none;stroke:#000000;stroke-linecap:square;stroke-linejoin:miter;stroke-width:0.8;"/>
   </g>
   <g id="patch_6">
    <path d="M 57.6 41.472 
L 414.72 41.472 
" style="fill:none;stroke:#000000;stroke-linecap:square;stroke-linejoin:miter;stroke-width:0.8;"/>
   </g>
   <g id="legend_1">
    <g id="patch_7">
     <path d="M 279.791875 108.206375 
L 407.72 108.206375 
Q 409.72 108.206375 409.72 106.206375 
L 409.72 48.472 
Q 409.72 46.472 407.72 46.472 
L 279.791875 46.472 
Q 277.791875 46.472 277.791875 48.472 
L 277.791875 106.206375 
Q 277.791875 108.206375 279.791875 108.206375 
z
" style="fill:#ffffff;opacity:0.8;stroke:#cccccc;stroke-linejoin:miter;"/>
    </g>
    <g id="line2d_18">
     <path d="M 281.791875 54.570438 
L 301.791875 54.570438 
" style="fill:none;stroke:#333333;stroke-linecap:square;stroke-width:1.5;"/>
    </g>
    <g id="line2d_19"/>
    <g id="text_15">
     <!-- GP predicted mean -->
     <defs>
      <path d="M 59.515625 10.40625 
L 59.515625 29.984375 
L 43.40625 29.984375 
L 43.40625 38.09375 
L 69.28125 38.09375 
L 69.28125 6.78125 
Q 63.578125 2.734375 56.6875 0.65625 
Q 49.8125 -1.421875 42 -1.421875 
Q 24.90625 -1.421875 15.25 8.5625 
Q 5.609375 18.5625 5.609375 36.375 
Q 5.609375 54.25 15.25 64.234375 
Q 24.90625 74.21875 42 74.21875 
Q 49.125 74.21875 55.546875 72.453125 
Q 61.96875 70.703125 67.390625 67.28125 
L 67.390625 56.78125 
Q 61.921875 61.421875 55.765625 63.765625 
Q 49.609375 66.109375 42.828125 66.109375 
Q 29.4375 66.109375 22.71875 58.640625 
Q 16.015625 51.171875 16.015625 36.375 
Q 16.015625 21.625 22.71875 14.15625 
Q 29.4375 6.6875 42.828125 6.6875 
Q 48.046875 6.6875 52.140625 7.59375 
Q 56.25 8.5 59.515625 10.40625 
z
" id="DejaVuSans-71"/>
      <path d="M 19.671875 64.796875 
L 19.671875 37.40625 
L 32.078125 37.40625 
Q 38.96875 37.40625 42.71875 40.96875 
Q 46.484375 44.53125 46.484375 51.125 
Q 46.484375 57.671875 42.71875 61.234375 
Q 38.96875 64.796875 32.078125 64.796875 
z
M 9.8125 72.90625 
L 32.078125 72.90625 
Q 44.34375 72.90625 50.609375 67.359375 
Q 56.890625 61.8125 56.890625 51.125 
Q 56.890625 40.328125 50.609375 34.8125 
Q 44.34375 29.296875 32.078125 29.296875 
L 19.671875 29.296875 
L 19.671875 0 
L 9.8125 0 
z
" id="DejaVuSans-80"/>
      <path id="DejaVuSans-32"/>
      <path d="M 18.109375 8.203125 
L 18.109375 -20.796875 
L 9.078125 -20.796875 
L 9.078125 54.6875 
L 18.109375 54.6875 
L 18.109375 46.390625 
Q 20.953125 51.265625 25.265625 53.625 
Q 29.59375 56 35.59375 56 
Q 45.5625 56 51.78125 48.09375 
Q 58.015625 40.1875 58.015625 27.296875 
Q 58.015625 14.40625 51.78125 6.484375 
Q 45.5625 -1.421875 35.59375 -1.421875 
Q 29.59375 -1.421875 25.265625 0.953125 
Q 20.953125 3.328125 18.109375 8.203125 
z
M 48.6875 27.296875 
Q 48.6875 37.203125 44.609375 42.84375 
Q 40.53125 48.484375 33.40625 48.484375 
Q 26.265625 48.484375 22.1875 42.84375 
Q 18.109375 37.203125 18.109375 27.296875 
Q 18.109375 17.390625 22.1875 11.75 
Q 26.265625 6.109375 33.40625 6.109375 
Q 40.53125 6.109375 44.609375 11.75 
Q 48.6875 17.390625 48.6875 27.296875 
z
" id="DejaVuSans-112"/>
      <path d="M 41.109375 46.296875 
Q 39.59375 47.171875 37.8125 47.578125 
Q 36.03125 48 33.890625 48 
Q 26.265625 48 22.1875 43.046875 
Q 18.109375 38.09375 18.109375 28.8125 
L 18.109375 0 
L 9.078125 0 
L 9.078125 54.6875 
L 18.109375 54.6875 
L 18.109375 46.1875 
Q 20.953125 51.171875 25.484375 53.578125 
Q 30.03125 56 36.53125 56 
Q 37.453125 56 38.578125 55.875 
Q 39.703125 55.765625 41.0625 55.515625 
z
" id="DejaVuSans-114"/>
      <path d="M 56.203125 29.59375 
L 56.203125 25.203125 
L 14.890625 25.203125 
Q 15.484375 15.921875 20.484375 11.0625 
Q 25.484375 6.203125 34.421875 6.203125 
Q 39.59375 6.203125 44.453125 7.46875 
Q 49.3125 8.734375 54.109375 11.28125 
L 54.109375 2.78125 
Q 49.265625 0.734375 44.1875 -0.34375 
Q 39.109375 -1.421875 33.890625 -1.421875 
Q 20.796875 -1.421875 13.15625 6.1875 
Q 5.515625 13.8125 5.515625 26.8125 
Q 5.515625 40.234375 12.765625 48.109375 
Q 20.015625 56 32.328125 56 
Q 43.359375 56 49.78125 48.890625 
Q 56.203125 41.796875 56.203125 29.59375 
z
M 47.21875 32.234375 
Q 47.125 39.59375 43.09375 43.984375 
Q 39.0625 48.390625 32.421875 48.390625 
Q 24.90625 48.390625 20.390625 44.140625 
Q 15.875 39.890625 15.1875 32.171875 
z
" id="DejaVuSans-101"/>
      <path d="M 45.40625 46.390625 
L 45.40625 75.984375 
L 54.390625 75.984375 
L 54.390625 0 
L 45.40625 0 
L 45.40625 8.203125 
Q 42.578125 3.328125 38.25 0.953125 
Q 33.9375 -1.421875 27.875 -1.421875 
Q 17.96875 -1.421875 11.734375 6.484375 
Q 5.515625 14.40625 5.515625 27.296875 
Q 5.515625 40.1875 11.734375 48.09375 
Q 17.96875 56 27.875 56 
Q 33.9375 56 38.25 53.625 
Q 42.578125 51.265625 45.40625 46.390625 
z
M 14.796875 27.296875 
Q 14.796875 17.390625 18.875 11.75 
Q 22.953125 6.109375 30.078125 6.109375 
Q 37.203125 6.109375 41.296875 11.75 
Q 45.40625 17.390625 45.40625 27.296875 
Q 45.40625 37.203125 41.296875 42.84375 
Q 37.203125 48.484375 30.078125 48.484375 
Q 22.953125 48.484375 18.875 42.84375 
Q 14.796875 37.203125 14.796875 27.296875 
z
" id="DejaVuSans-100"/>
      <path d="M 9.421875 54.6875 
L 18.40625 54.6875 
L 18.40625 0 
L 9.421875 0 
z
M 9.421875 75.984375 
L 18.40625 75.984375 
L 18.40625 64.59375 
L 9.421875 64.59375 
z
" id="DejaVuSans-105"/>
      <path d="M 48.78125 52.59375 
L 48.78125 44.1875 
Q 44.96875 46.296875 41.140625 47.34375 
Q 37.3125 48.390625 33.40625 48.390625 
Q 24.65625 48.390625 19.8125 42.84375 
Q 14.984375 37.3125 14.984375 27.296875 
Q 14.984375 17.28125 19.8125 11.734375 
Q 24.65625 6.203125 33.40625 6.203125 
Q 37.3125 6.203125 41.140625 7.25 
Q 44.96875 8.296875 48.78125 10.40625 
L 48.78125 2.09375 
Q 45.015625 0.34375 40.984375 -0.53125 
Q 36.96875 -1.421875 32.421875 -1.421875 
Q 20.0625 -1.421875 12.78125 6.34375 
Q 5.515625 14.109375 5.515625 27.296875 
Q 5.515625 40.671875 12.859375 48.328125 
Q 20.21875 56 33.015625 56 
Q 37.15625 56 41.109375 55.140625 
Q 45.0625 54.296875 48.78125 52.59375 
z
" id="DejaVuSans-99"/>
      <path d="M 18.3125 70.21875 
L 18.3125 54.6875 
L 36.8125 54.6875 
L 36.8125 47.703125 
L 18.3125 47.703125 
L 18.3125 18.015625 
Q 18.3125 11.328125 20.140625 9.421875 
Q 21.96875 7.515625 27.59375 7.515625 
L 36.8125 7.515625 
L 36.8125 0 
L 27.59375 0 
Q 17.1875 0 13.234375 3.875 
Q 9.28125 7.765625 9.28125 18.015625 
L 9.28125 47.703125 
L 2.6875 47.703125 
L 2.6875 54.6875 
L 9.28125 54.6875 
L 9.28125 70.21875 
z
" id="DejaVuSans-116"/>
      <path d="M 52 44.1875 
Q 55.375 50.25 60.0625 53.125 
Q 64.75 56 71.09375 56 
Q 79.640625 56 84.28125 50.015625 
Q 88.921875 44.046875 88.921875 33.015625 
L 88.921875 0 
L 79.890625 0 
L 79.890625 32.71875 
Q 79.890625 40.578125 77.09375 44.375 
Q 74.3125 48.1875 68.609375 48.1875 
Q 61.625 48.1875 57.5625 43.546875 
Q 53.515625 38.921875 53.515625 30.90625 
L 53.515625 0 
L 44.484375 0 
L 44.484375 32.71875 
Q 44.484375 40.625 41.703125 44.40625 
Q 38.921875 48.1875 33.109375 48.1875 
Q 26.21875 48.1875 22.15625 43.53125 
Q 18.109375 38.875 18.109375 30.90625 
L 18.109375 0 
L 9.078125 0 
L 9.078125 54.6875 
L 18.109375 54.6875 
L 18.109375 46.1875 
Q 21.1875 51.21875 25.484375 53.609375 
Q 29.78125 56 35.6875 56 
Q 41.65625 56 45.828125 52.96875 
Q 50 49.953125 52 44.1875 
z
" id="DejaVuSans-109"/>
      <path d="M 34.28125 27.484375 
Q 23.390625 27.484375 19.1875 25 
Q 14.984375 22.515625 14.984375 16.5 
Q 14.984375 11.71875 18.140625 8.90625 
Q 21.296875 6.109375 26.703125 6.109375 
Q 34.1875 6.109375 38.703125 11.40625 
Q 43.21875 16.703125 43.21875 25.484375 
L 43.21875 27.484375 
z
M 52.203125 31.203125 
L 52.203125 0 
L 43.21875 0 
L 43.21875 8.296875 
Q 40.140625 3.328125 35.546875 0.953125 
Q 30.953125 -1.421875 24.3125 -1.421875 
Q 15.921875 -1.421875 10.953125 3.296875 
Q 6 8.015625 6 15.921875 
Q 6 25.140625 12.171875 29.828125 
Q 18.359375 34.515625 30.609375 34.515625 
L 43.21875 34.515625 
L 43.21875 35.40625 
Q 43.21875 41.609375 39.140625 45 
Q 35.0625 48.390625 27.6875 48.390625 
Q 23 48.390625 18.546875 47.265625 
Q 14.109375 46.140625 10.015625 43.890625 
L 10.015625 52.203125 
Q 14.9375 54.109375 19.578125 55.046875 
Q 24.21875 56 28.609375 56 
Q 40.484375 56 46.34375 49.84375 
Q 52.203125 43.703125 52.203125 31.203125 
z
" id="DejaVuSans-97"/>
      <path d="M 54.890625 33.015625 
L 54.890625 0 
L 45.90625 0 
L 45.90625 32.71875 
Q 45.90625 40.484375 42.875 44.328125 
Q 39.84375 48.1875 33.796875 48.1875 
Q 26.515625 48.1875 22.3125 43.546875 
Q 18.109375 38.921875 18.109375 30.90625 
L 18.109375 0 
L 9.078125 0 
L 9.078125 54.6875 
L 18.109375 54.6875 
L 18.109375 46.1875 
Q 21.34375 51.125 25.703125 53.5625 
Q 30.078125 56 35.796875 56 
Q 45.21875 56 50.046875 50.171875 
Q 54.890625 44.34375 54.890625 33.015625 
z
" id="DejaVuSans-110"/>
     </defs>
     <g transform="translate(309.791875 58.070438)scale(0.1 -0.1)">
      <use xlink:href="#DejaVuSans-71"/>
      <use x="77.490234" xlink:href="#DejaVuSans-80"/>
      <use x="137.792969" xlink:href="#DejaVuSans-32"/>
      <use x="169.580078" xlink:href="#DejaVuSans-112"/>
      <use x="233.056641" xlink:href="#DejaVuSans-114"/>
      <use x="271.919922" xlink:href="#DejaVuSans-101"/>
      <use x="333.443359" xlink:href="#DejaVuSans-100"/>
      <use x="396.919922" xlink:href="#DejaVuSans-105"/>
      <use x="424.703125" xlink:href="#DejaVuSans-99"/>
      <use x="479.683594" xlink:href="#DejaVuSans-116"/>
      <use x="518.892578" xlink:href="#DejaVuSans-101"/>
      <use x="580.416016" xlink:href="#DejaVuSans-100"/>
      <use x="643.892578" xlink:href="#DejaVuSans-32"/>
      <use x="675.679688" xlink:href="#DejaVuSans-109"/>
      <use x="773.091797" xlink:href="#DejaVuSans-101"/>
      <use x="834.615234" xlink:href="#DejaVuSans-97"/>
      <use x="895.894531" xlink:href="#DejaVuSans-110"/>
     </g>
    </g>
    <g id="line2d_20">
     <path d="M 281.791875 69.248563 
L 301.791875 69.248563 
" style="fill:none;stroke:#000000;stroke-linecap:square;stroke-width:1.5;"/>
    </g>
    <g id="line2d_21"/>
    <g id="text_16">
     <!-- true function -->
     <defs>
      <path d="M 8.5 21.578125 
L 8.5 54.6875 
L 17.484375 54.6875 
L 17.484375 21.921875 
Q 17.484375 14.15625 20.5 10.265625 
Q 23.53125 6.390625 29.59375 6.390625 
Q 36.859375 6.390625 41.078125 11.03125 
Q 45.3125 15.671875 45.3125 23.6875 
L 45.3125 54.6875 
L 54.296875 54.6875 
L 54.296875 0 
L 45.3125 0 
L 45.3125 8.40625 
Q 42.046875 3.421875 37.71875 1 
Q 33.40625 -1.421875 27.6875 -1.421875 
Q 18.265625 -1.421875 13.375 4.4375 
Q 8.5 10.296875 8.5 21.578125 
z
M 31.109375 56 
z
" id="DejaVuSans-117"/>
      <path d="M 37.109375 75.984375 
L 37.109375 68.5 
L 28.515625 68.5 
Q 23.6875 68.5 21.796875 66.546875 
Q 19.921875 64.59375 19.921875 59.515625 
L 19.921875 54.6875 
L 34.71875 54.6875 
L 34.71875 47.703125 
L 19.921875 47.703125 
L 19.921875 0 
L 10.890625 0 
L 10.890625 47.703125 
L 2.296875 47.703125 
L 2.296875 54.6875 
L 10.890625 54.6875 
L 10.890625 58.5 
Q 10.890625 67.625 15.140625 71.796875 
Q 19.390625 75.984375 28.609375 75.984375 
z
" id="DejaVuSans-102"/>
      <path d="M 30.609375 48.390625 
Q 23.390625 48.390625 19.1875 42.75 
Q 14.984375 37.109375 14.984375 27.296875 
Q 14.984375 17.484375 19.15625 11.84375 
Q 23.34375 6.203125 30.609375 6.203125 
Q 37.796875 6.203125 41.984375 11.859375 
Q 46.1875 17.53125 46.1875 27.296875 
Q 46.1875 37.015625 41.984375 42.703125 
Q 37.796875 48.390625 30.609375 48.390625 
z
M 30.609375 56 
Q 42.328125 56 49.015625 48.375 
Q 55.71875 40.765625 55.71875 27.296875 
Q 55.71875 13.875 49.015625 6.21875 
Q 42.328125 -1.421875 30.609375 -1.421875 
Q 18.84375 -1.421875 12.171875 6.21875 
Q 5.515625 13.875 5.515625 27.296875 
Q 5.515625 40.765625 12.171875 48.375 
Q 18.84375 56 30.609375 56 
z
" id="DejaVuSans-111"/>
     </defs>
     <g transform="translate(309.791875 72.748563)scale(0.1 -0.1)">
      <use xlink:href="#DejaVuSans-116"/>
      <use x="39.208984" xlink:href="#DejaVuSans-114"/>
      <use x="80.322266" xlink:href="#DejaVuSans-117"/>
      <use x="143.701172" xlink:href="#DejaVuSans-101"/>
      <use x="205.224609" xlink:href="#DejaVuSans-32"/>
      <use x="237.011719" xlink:href="#DejaVuSans-102"/>
      <use x="272.216797" xlink:href="#DejaVuSans-117"/>
      <use x="335.595703" xlink:href="#DejaVuSans-110"/>
      <use x="398.974609" xlink:href="#DejaVuSans-99"/>
      <use x="453.955078" xlink:href="#DejaVuSans-116"/>
      <use x="493.164062" xlink:href="#DejaVuSans-105"/>
      <use x="520.947266" xlink:href="#DejaVuSans-111"/>
      <use x="582.128906" xlink:href="#DejaVuSans-110"/>
     </g>
    </g>
    <g id="line2d_22">
     <path d="M 281.791875 83.926688 
L 301.791875 83.926688 
" style="fill:none;stroke:#ff00ff;stroke-linecap:square;stroke-width:1.5;"/>
    </g>
    <g id="line2d_23">
     <g>
      <use style="fill:#ff00ff;stroke:#ff00ff;" x="291.791875" xlink:href="#mf6979a4390" y="83.926688"/>
     </g>
    </g>
    <g id="text_17">
     <!-- new sample -->
     <defs>
      <path d="M 4.203125 54.6875 
L 13.1875 54.6875 
L 24.421875 12.015625 
L 35.59375 54.6875 
L 46.1875 54.6875 
L 57.421875 12.015625 
L 68.609375 54.6875 
L 77.59375 54.6875 
L 63.28125 0 
L 52.6875 0 
L 40.921875 44.828125 
L 29.109375 0 
L 18.5 0 
z
" id="DejaVuSans-119"/>
      <path d="M 44.28125 53.078125 
L 44.28125 44.578125 
Q 40.484375 46.53125 36.375 47.5 
Q 32.28125 48.484375 27.875 48.484375 
Q 21.1875 48.484375 17.84375 46.4375 
Q 14.5 44.390625 14.5 40.28125 
Q 14.5 37.15625 16.890625 35.375 
Q 19.28125 33.59375 26.515625 31.984375 
L 29.59375 31.296875 
Q 39.15625 29.25 43.1875 25.515625 
Q 47.21875 21.78125 47.21875 15.09375 
Q 47.21875 7.46875 41.1875 3.015625 
Q 35.15625 -1.421875 24.609375 -1.421875 
Q 20.21875 -1.421875 15.453125 -0.5625 
Q 10.6875 0.296875 5.421875 2 
L 5.421875 11.28125 
Q 10.40625 8.6875 15.234375 7.390625 
Q 20.0625 6.109375 24.8125 6.109375 
Q 31.15625 6.109375 34.5625 8.28125 
Q 37.984375 10.453125 37.984375 14.40625 
Q 37.984375 18.0625 35.515625 20.015625 
Q 33.0625 21.96875 24.703125 23.78125 
L 21.578125 24.515625 
Q 13.234375 26.265625 9.515625 29.90625 
Q 5.8125 33.546875 5.8125 39.890625 
Q 5.8125 47.609375 11.28125 51.796875 
Q 16.75 56 26.8125 56 
Q 31.78125 56 36.171875 55.265625 
Q 40.578125 54.546875 44.28125 53.078125 
z
" id="DejaVuSans-115"/>
      <path d="M 9.421875 75.984375 
L 18.40625 75.984375 
L 18.40625 0 
L 9.421875 0 
z
" id="DejaVuSans-108"/>
     </defs>
     <g transform="translate(309.791875 87.426688)scale(0.1 -0.1)">
      <use xlink:href="#DejaVuSans-110"/>
      <use x="63.378906" xlink:href="#DejaVuSans-101"/>
      <use x="124.902344" xlink:href="#DejaVuSans-119"/>
      <use x="206.689453" xlink:href="#DejaVuSans-32"/>
      <use x="238.476562" xlink:href="#DejaVuSans-115"/>
      <use x="290.576172" xlink:href="#DejaVuSans-97"/>
      <use x="351.855469" xlink:href="#DejaVuSans-109"/>
      <use x="449.267578" xlink:href="#DejaVuSans-112"/>
      <use x="512.744141" xlink:href="#DejaVuSans-108"/>
      <use x="540.527344" xlink:href="#DejaVuSans-101"/>
     </g>
    </g>
    <g id="patch_8">
     <path d="M 281.791875 102.106375 
L 301.791875 102.106375 
L 301.791875 95.106375 
L 281.791875 95.106375 
z
" style="fill:#347aeb;opacity:0.6;"/>
    </g>
    <g id="text_18">
     <!-- GP predicted 2$\sigma$ -->
     <defs>
      <path d="M 34.671875 47.5625 
Q 27.25 47.5625 22.21875 42.1875 
Q 16.890625 36.578125 15.140625 27.296875 
Q 13.1875 17.484375 16.3125 11.8125 
Q 19.390625 6.203125 26.65625 6.203125 
Q 33.84375 6.203125 39.109375 11.859375 
Q 44.4375 17.53125 46.34375 27.296875 
Q 48.046875 36.234375 45.015625 42.1875 
Q 42.1875 47.5625 34.671875 47.5625 
z
M 36.078125 54.734375 
L 65.921875 54.6875 
L 64.15625 45.703125 
L 54.109375 45.703125 
Q 57.90625 38.09375 55.859375 27.296875 
Q 53.21875 13.875 45.0625 6.25 
Q 36.859375 -1.421875 25.140625 -1.421875 
Q 13.375 -1.421875 8.203125 6.25 
Q 3.03125 13.875 5.671875 27.296875 
Q 8.25 40.765625 16.40625 48.390625 
Q 23.1875 54.734375 36.078125 54.734375 
z
" id="DejaVuSans-Oblique-963"/>
     </defs>
     <g transform="translate(309.791875 102.106375)scale(0.1 -0.1)">
      <use transform="translate(0 0.015625)" xlink:href="#DejaVuSans-71"/>
      <use transform="translate(77.490234 0.015625)" xlink:href="#DejaVuSans-80"/>
      <use transform="translate(137.792969 0.015625)" xlink:href="#DejaVuSans-32"/>
      <use transform="translate(169.580078 0.015625)" xlink:href="#DejaVuSans-112"/>
      <use transform="translate(233.056641 0.015625)" xlink:href="#DejaVuSans-114"/>
      <use transform="translate(274.169922 0.015625)" xlink:href="#DejaVuSans-101"/>
      <use transform="translate(335.693359 0.015625)" xlink:href="#DejaVuSans-100"/>
      <use transform="translate(399.169922 0.015625)" xlink:href="#DejaVuSans-105"/>
      <use transform="translate(426.953125 0.015625)" xlink:href="#DejaVuSans-99"/>
      <use transform="translate(481.933594 0.015625)" xlink:href="#DejaVuSans-116"/>
      <use transform="translate(521.142578 0.015625)" xlink:href="#DejaVuSans-101"/>
      <use transform="translate(582.666016 0.015625)" xlink:href="#DejaVuSans-100"/>
      <use transform="translate(646.142578 0.015625)" xlink:href="#DejaVuSans-32"/>
      <use transform="translate(677.929688 0.015625)" xlink:href="#DejaVuSans-50"/>
      <use transform="translate(741.552734 0.015625)" xlink:href="#DejaVuSans-Oblique-963"/>
     </g>
    </g>
   </g>
  </g>
 </g>
 <defs>
  <clipPath id="pebb81505f8">
   <rect height="266.112" width="357.12" x="57.6" y="41.472"/>
  </clipPath>
 </defs>
</svg>
