<?xml version="1.0" encoding="utf-8" standalone="no"?>
<!DOCTYPE svg PUBLIC "-//W3C//DTD SVG 1.1//EN"
  "http://www.w3.org/Graphics/SVG/1.1/DTD/svg11.dtd">
<!-- Created with matplotlib (https://matplotlib.org/) -->
<svg height="432pt" version="1.1" viewBox="0 0 576 432" width="576pt" xmlns="http://www.w3.org/2000/svg" xmlns:xlink="http://www.w3.org/1999/xlink">
 <defs>
  <style type="text/css">
*{stroke-linecap:butt;stroke-linejoin:round;}
  </style>
 </defs>
 <g id="figure_1">
  <g id="patch_1">
   <path d="M 0 432 
L 576 432 
L 576 0 
L 0 0 
z
" style="fill:#ffffff;"/>
  </g>
  <g id="axes_1">
   <g id="patch_2">
    <path d="M 72 384.48 
L 518.4 384.48 
L 518.4 51.84 
L 72 51.84 
z
" style="fill:#ffffff;"/>
   </g>
   <g id="PolyCollection_1"/>
   <g id="PolyCollection_2">
    <path clip-path="url(#pa41efff7e8)" d="M 72 116.717392 
L 72 84.103515 
L 80.928 91.618379 
L 89.856 98.483706 
L 98.784 89.069136 
L 107.712 106.602957 
L 116.64 100.206803 
L 125.568 113.607221 
L 134.496 121.610338 
L 143.424 131.893178 
L 152.352 143.762246 
L 161.28 156.773668 
L 170.208 173.676731 
L 179.136 187.544837 
L 188.064 206.531646 
L 196.992 219.673531 
L 205.92 241.202272 
L 214.848 257.33841 
L 223.776 275.165821 
L 232.704 271.280495 
L 241.632 236.794438 
L 250.56 228.335535 
L 259.488 220.56682 
L 268.416 225.743606 
L 277.344 217.512092 
L 286.272 213.706753 
L 286.272 262.731142 
L 286.272 262.731142 
L 277.344 256.876493 
L 268.416 277.691925 
L 259.488 268.976902 
L 250.56 285.909083 
L 241.632 284.88237 
L 232.704 296.710906 
L 223.776 284.2793 
L 214.848 264.19653 
L 205.92 248.251045 
L 196.992 227.490375 
L 188.064 214.426862 
L 179.136 194.35213 
L 170.208 178.696627 
L 161.28 164.165369 
L 152.352 148.896866 
L 143.424 135.743206 
L 134.496 127.518242 
L 125.568 129.318147 
L 116.64 128.060616 
L 107.712 124.063447 
L 98.784 132.325824 
L 89.856 124.983041 
L 80.928 127.344802 
L 72 116.717392 
z
" style="fill:#ff7f0e;fill-opacity:0.3;"/>
    <path clip-path="url(#pa41efff7e8)" d="M 304.128 253.641711 
L 304.128 213.510433 
L 313.056 210.625502 
L 313.056 252.54995 
L 313.056 252.54995 
L 304.128 253.641711 
z
" style="fill:#ff7f0e;fill-opacity:0.3;"/>
    <path clip-path="url(#pa41efff7e8)" d="M 330.912 254.331919 
L 330.912 209.068593 
L 339.84 213.409086 
L 348.768 211.838175 
L 348.768 242.43881 
L 348.768 242.43881 
L 339.84 258.697807 
L 330.912 254.331919 
z
" style="fill:#ff7f0e;fill-opacity:0.3;"/>
    <path clip-path="url(#pa41efff7e8)" d="M 375.552 261.007509 
L 375.552 206.362391 
L 375.552 261.007509 
L 375.552 261.007509 
z
" style="fill:#ff7f0e;fill-opacity:0.3;"/>
    <path clip-path="url(#pa41efff7e8)" d="M 402.336 258.047236 
L 402.336 203.946005 
L 402.336 258.047236 
L 402.336 258.047236 
z
" style="fill:#ff7f0e;fill-opacity:0.3;"/>
    <path clip-path="url(#pa41efff7e8)" d="M 420.192 235.676011 
L 420.192 208.222587 
L 420.192 235.676011 
L 420.192 235.676011 
z
" style="fill:#ff7f0e;fill-opacity:0.3;"/>
    <path clip-path="url(#pa41efff7e8)" d="M 438.048 247.224967 
L 438.048 208.311243 
L 438.048 247.224967 
L 438.048 247.224967 
z
" style="fill:#ff7f0e;fill-opacity:0.3;"/>
    <path clip-path="url(#pa41efff7e8)" d="M 473.76 245.683096 
L 473.76 204.508794 
L 482.688 205.972755 
L 491.616 205.40397 
L 500.544 203.597537 
L 509.472 208.171008 
L 518.4 202.856658 
L 518.4 240.450518 
L 518.4 240.450518 
L 509.472 231.568836 
L 500.544 243.26256 
L 491.616 241.70824 
L 482.688 233.395233 
L 473.76 245.683096 
z
" style="fill:#ff7f0e;fill-opacity:0.3;"/>
   </g>
   <g id="PolyCollection_3">
    <path clip-path="url(#pa41efff7e8)" d="M 72 96.008421 
L 72 80.686997 
L 80.928 86.219775 
L 89.856 97.094054 
L 98.784 94.432129 
L 107.712 99.530916 
L 116.64 101.874131 
L 125.568 104.462341 
L 134.496 106.671036 
L 143.424 108.636503 
L 152.352 110.527651 
L 161.28 112.289758 
L 170.208 113.952205 
L 179.136 115.316217 
L 188.064 116.642215 
L 196.992 117.969613 
L 205.92 118.96872 
L 214.848 119.873698 
L 223.776 120.820249 
L 232.704 121.661587 
L 241.632 122.493156 
L 250.56 123.310287 
L 259.488 124.099328 
L 268.416 124.925126 
L 277.344 125.72192 
L 286.272 126.480464 
L 295.2 127.2358 
L 304.128 127.950276 
L 313.056 128.680988 
L 321.984 129.386386 
L 330.912 130.082099 
L 339.84 130.726455 
L 348.768 131.322911 
L 357.696 131.901059 
L 366.624 132.448029 
L 375.552 132.954207 
L 384.48 133.458612 
L 393.408 133.94806 
L 402.336 134.417717 
L 411.264 134.864775 
L 420.192 135.300096 
L 429.12 135.73371 
L 438.048 136.161774 
L 446.976 136.578711 
L 455.904 137.00291 
L 464.832 137.422324 
L 473.76 137.845183 
L 482.688 138.268305 
L 491.616 138.695579 
L 500.544 139.119709 
L 509.472 139.540772 
L 518.4 139.946858 
L 518.4 140.354774 
L 518.4 140.354774 
L 509.472 139.95433 
L 500.544 139.534953 
L 491.616 139.12388 
L 482.688 138.714876 
L 473.76 138.302889 
L 464.832 137.860557 
L 455.904 137.425621 
L 446.976 136.982101 
L 438.048 136.530255 
L 429.12 136.051138 
L 420.192 135.592253 
L 411.264 135.129618 
L 402.336 134.666081 
L 393.408 134.165928 
L 384.48 133.689594 
L 375.552 133.221483 
L 366.624 132.747243 
L 357.696 132.208341 
L 348.768 131.673828 
L 339.84 131.048685 
L 330.912 130.395262 
L 321.984 129.696645 
L 313.056 128.998276 
L 304.128 128.332221 
L 295.2 127.695575 
L 286.272 126.893942 
L 277.344 126.123568 
L 268.416 125.337524 
L 259.488 124.559737 
L 250.56 123.738261 
L 241.632 122.897338 
L 232.704 122.053259 
L 223.776 121.197109 
L 214.848 120.311374 
L 205.92 119.477432 
L 196.992 118.495489 
L 188.064 117.675841 
L 179.136 116.489071 
L 170.208 115.371543 
L 161.28 113.941085 
L 152.352 112.228992 
L 143.424 110.327439 
L 134.496 108.395605 
L 125.568 106.243511 
L 116.64 104.361233 
L 107.712 102.488375 
L 98.784 102.163895 
L 89.856 104.352346 
L 80.928 102.936459 
L 72 96.008421 
z
" style="fill:#2ca02c;fill-opacity:0.3;"/>
   </g>
   <g id="PolyCollection_4">
    <path clip-path="url(#pa41efff7e8)" d="M 72 107.367899 
L 72 84.406426 
L 80.928 90.447133 
L 89.856 92.632725 
L 98.784 85.296691 
L 107.712 99.03247 
L 116.64 104.981614 
L 125.568 109.727854 
L 134.496 114.124361 
L 143.424 118.059621 
L 152.352 121.608653 
L 161.28 125.049489 
L 170.208 128.691732 
L 179.136 132.479192 
L 188.064 136.038521 
L 196.992 139.176427 
L 205.92 141.623828 
L 214.848 143.803161 
L 223.776 145.757893 
L 232.704 147.502477 
L 241.632 149.152401 
L 250.56 150.891624 
L 259.488 152.598086 
L 268.416 154.302609 
L 277.344 155.992523 
L 286.272 157.795669 
L 295.2 159.631575 
L 304.128 161.55846 
L 313.056 163.537822 
L 321.984 165.399187 
L 330.912 166.918669 
L 339.84 168.400005 
L 348.768 169.684791 
L 357.696 170.871716 
L 366.624 172.004739 
L 375.552 173.075504 
L 384.48 174.1223 
L 393.408 175.118151 
L 402.336 176.034541 
L 411.264 176.907362 
L 420.192 177.738487 
L 429.12 178.548407 
L 438.048 179.329604 
L 446.976 180.175862 
L 455.904 181.005287 
L 464.832 181.83185 
L 473.76 182.646826 
L 482.688 183.463565 
L 491.616 184.279492 
L 500.544 185.11908 
L 509.472 185.957964 
L 518.4 186.818171 
L 518.4 188.607433 
L 518.4 188.607433 
L 509.472 187.727943 
L 500.544 186.871505 
L 491.616 186.015262 
L 482.688 185.155127 
L 473.76 184.294425 
L 464.832 183.430773 
L 455.904 182.541304 
L 446.976 181.633875 
L 438.048 180.72902 
L 429.12 179.727493 
L 420.192 178.745104 
L 411.264 177.774241 
L 402.336 176.842645 
L 393.408 175.897492 
L 384.48 175.029171 
L 375.552 174.203691 
L 366.624 173.382972 
L 357.696 172.429425 
L 348.768 171.459646 
L 339.84 170.085968 
L 330.912 168.621184 
L 321.984 166.572523 
L 313.056 164.869608 
L 304.128 163.265716 
L 295.2 161.68455 
L 286.272 159.722377 
L 277.344 157.921223 
L 268.416 156.131798 
L 259.488 154.380415 
L 250.56 152.508166 
L 241.632 150.651808 
L 232.704 148.552211 
L 223.776 146.60295 
L 214.848 144.666828 
L 205.92 142.941649 
L 196.992 140.88669 
L 188.064 137.907018 
L 179.136 134.366274 
L 170.208 131.281919 
L 161.28 127.583176 
L 152.352 123.911344 
L 143.424 120.372771 
L 134.496 116.957445 
L 125.568 113.445848 
L 116.64 111.183345 
L 107.712 107.033709 
L 98.784 110.396625 
L 89.856 115.278208 
L 80.928 114.458437 
L 72 107.367899 
z
" style="fill:#d62728;fill-opacity:0.3;"/>
   </g>
   <g id="PolyCollection_5">
    <path clip-path="url(#pa41efff7e8)" d="M 72 109.62379 
L 72 82.572084 
L 80.928 88.833806 
L 89.856 94.233936 
L 98.784 84.718776 
L 107.712 99.246283 
L 116.64 106.041335 
L 125.568 110.914214 
L 134.496 117.477745 
L 143.424 122.546586 
L 152.352 127.247749 
L 161.28 131.955425 
L 170.208 136.786019 
L 179.136 142.647583 
L 188.064 147.825215 
L 196.992 152.805293 
L 205.92 156.537206 
L 214.848 159.538116 
L 223.776 162.469247 
L 232.704 165.379767 
L 241.632 168.245525 
L 250.56 170.800149 
L 259.488 173.294553 
L 268.416 175.882392 
L 277.344 178.464681 
L 286.272 181.032671 
L 295.2 183.815343 
L 304.128 186.811258 
L 313.056 189.874163 
L 321.984 192.4388 
L 330.912 194.722971 
L 339.84 197.070176 
L 348.768 199.182565 
L 357.696 201.120511 
L 366.624 202.798575 
L 375.552 204.399499 
L 384.48 205.824043 
L 393.408 207.192386 
L 402.336 208.536757 
L 411.264 209.899559 
L 420.192 211.333499 
L 429.12 212.709492 
L 438.048 214.119329 
L 446.976 215.350123 
L 455.904 216.640463 
L 464.832 217.930847 
L 473.76 219.191377 
L 482.688 220.402557 
L 491.616 221.578965 
L 500.544 222.75936 
L 509.472 224.0731 
L 518.4 225.346628 
L 518.4 227.811086 
L 518.4 227.811086 
L 509.472 226.683018 
L 500.544 225.454496 
L 491.616 224.196953 
L 482.688 222.913429 
L 473.76 221.536915 
L 464.832 220.150541 
L 455.904 218.810606 
L 446.976 217.278228 
L 438.048 215.671389 
L 429.12 214.287138 
L 420.192 212.973149 
L 411.264 211.563979 
L 402.336 210.210333 
L 393.408 208.827979 
L 384.48 207.471254 
L 375.552 206.074631 
L 366.624 204.799557 
L 357.696 203.255464 
L 348.768 201.683011 
L 339.84 199.607356 
L 330.912 197.595423 
L 321.984 194.457773 
L 313.056 191.800885 
L 304.128 188.879531 
L 295.2 186.232762 
L 286.272 183.642113 
L 277.344 181.243971 
L 268.416 178.584225 
L 259.488 175.760202 
L 250.56 172.985823 
L 241.632 169.98217 
L 232.704 166.84698 
L 223.776 163.998579 
L 214.848 161.280442 
L 205.92 158.548144 
L 196.992 155.347361 
L 188.064 150.991613 
L 179.136 145.260856 
L 170.208 140.197655 
L 161.28 135.006359 
L 152.352 129.725299 
L 143.424 124.868983 
L 134.496 121.084585 
L 125.568 119.241125 
L 116.64 114.853981 
L 107.712 110.629 
L 98.784 118.652772 
L 89.856 118.515731 
L 80.928 117.481688 
L 72 109.62379 
z
" style="fill:#9467bd;fill-opacity:0.3;"/>
   </g>
   <g id="PolyCollection_6">
    <path clip-path="url(#pa41efff7e8)" d="M 72 122.293745 
L 72 83.575924 
L 80.928 86.859191 
L 89.856 91.625871 
L 98.784 90.108838 
L 107.712 92.236278 
L 116.64 93.34421 
L 125.568 94.405118 
L 134.496 96.255771 
L 143.424 96.760556 
L 152.352 99.295597 
L 161.28 113.053318 
L 170.208 156.758876 
L 179.136 187.415669 
L 188.064 207.084303 
L 196.992 222.876267 
L 205.92 240.934506 
L 214.848 258.004148 
L 223.776 275.972089 
L 232.704 273.946253 
L 241.632 233.558406 
L 250.56 230.081833 
L 259.488 221.886436 
L 268.416 217.054441 
L 268.416 272.729133 
L 268.416 272.729133 
L 259.488 266.215746 
L 250.56 290.263121 
L 241.632 279.855568 
L 232.704 295.971119 
L 223.776 283.510152 
L 214.848 263.655069 
L 205.92 247.587001 
L 196.992 230.368262 
L 188.064 214.832227 
L 179.136 193.968615 
L 170.208 180.173273 
L 161.28 132.886362 
L 152.352 116.423051 
L 143.424 109.42795 
L 134.496 107.298475 
L 125.568 104.351464 
L 116.64 106.35763 
L 107.712 106.139769 
L 98.784 108.726724 
L 89.856 117.629442 
L 80.928 113.665553 
L 72 122.293745 
z
" style="fill:#8c564b;fill-opacity:0.3;"/>
    <path clip-path="url(#pa41efff7e8)" d="M 286.272 255.037917 
L 286.272 211.860868 
L 295.2 214.381617 
L 304.128 218.196365 
L 313.056 207.074012 
L 313.056 264.267926 
L 313.056 264.267926 
L 304.128 254.20445 
L 295.2 261.890353 
L 286.272 255.037917 
z
" style="fill:#8c564b;fill-opacity:0.3;"/>
    <path clip-path="url(#pa41efff7e8)" d="M 330.912 255.818156 
L 330.912 208.150851 
L 330.912 255.818156 
L 330.912 255.818156 
z
" style="fill:#8c564b;fill-opacity:0.3;"/>
    <path clip-path="url(#pa41efff7e8)" d="M 357.696 243.497467 
L 357.696 207.3684 
L 366.624 210.871723 
L 375.552 204.41808 
L 375.552 257.122079 
L 375.552 257.122079 
L 366.624 244.125036 
L 357.696 243.497467 
z
" style="fill:#8c564b;fill-opacity:0.3;"/>
    <path clip-path="url(#pa41efff7e8)" d="M 402.336 260.53486 
L 402.336 200.032031 
L 402.336 260.53486 
L 402.336 260.53486 
z
" style="fill:#8c564b;fill-opacity:0.3;"/>
    <path clip-path="url(#pa41efff7e8)" d="M 420.192 243.508835 
L 420.192 207.08111 
L 420.192 243.508835 
L 420.192 243.508835 
z
" style="fill:#8c564b;fill-opacity:0.3;"/>
    <path clip-path="url(#pa41efff7e8)" d="M 438.048 243.23928 
L 438.048 196.882464 
L 438.048 243.23928 
L 438.048 243.23928 
z
" style="fill:#8c564b;fill-opacity:0.3;"/>
    <path clip-path="url(#pa41efff7e8)" d="M 464.832 234.773059 
L 464.832 198.681237 
L 464.832 234.773059 
L 464.832 234.773059 
z
" style="fill:#8c564b;fill-opacity:0.3;"/>
    <path clip-path="url(#pa41efff7e8)" d="M 482.688 244.244094 
L 482.688 201.800215 
L 482.688 244.244094 
L 482.688 244.244094 
z
" style="fill:#8c564b;fill-opacity:0.3;"/>
    <path clip-path="url(#pa41efff7e8)" d="M 509.472 236.497567 
L 509.472 193.095783 
L 518.4 192.546299 
L 518.4 229.350756 
L 518.4 229.350756 
L 509.472 236.497567 
z
" style="fill:#8c564b;fill-opacity:0.3;"/>
   </g>
   <g id="PolyCollection_7">
    <path clip-path="url(#pa41efff7e8)" d="M 72 234.287913 
L 72 132.86766 
L 80.928 155.303291 
L 89.856 141.687796 
L 98.784 150.625118 
L 107.712 149.894167 
L 107.712 249.427732 
L 107.712 249.427732 
L 98.784 194.618721 
L 89.856 245.307075 
L 80.928 216.331813 
L 72 234.287913 
z
" style="fill:#e377c2;fill-opacity:0.3;"/>
    <path clip-path="url(#pa41efff7e8)" d="M 125.568 207.019728 
L 125.568 142.781987 
L 134.496 143.668975 
L 143.424 134.119402 
L 143.424 224.681142 
L 143.424 224.681142 
L 134.496 238.085848 
L 125.568 207.019728 
z
" style="fill:#e377c2;fill-opacity:0.3;"/>
    <path clip-path="url(#pa41efff7e8)" d="M 170.208 226.893013 
L 170.208 132.103932 
L 170.208 226.893013 
L 170.208 226.893013 
z
" style="fill:#e377c2;fill-opacity:0.3;"/>
    <path clip-path="url(#pa41efff7e8)" d="M 196.992 235.536257 
L 196.992 132.974139 
L 205.92 129.352065 
L 214.848 126.064857 
L 214.848 220.989753 
L 214.848 220.989753 
L 205.92 224.553486 
L 196.992 235.536257 
z
" style="fill:#e377c2;fill-opacity:0.3;"/>
    <path clip-path="url(#pa41efff7e8)" d="M 259.488 199.755901 
L 259.488 137.129867 
L 259.488 199.755901 
L 259.488 199.755901 
z
" style="fill:#e377c2;fill-opacity:0.3;"/>
    <path clip-path="url(#pa41efff7e8)" d="M 482.688 210.585584 
L 482.688 128.002946 
L 482.688 210.585584 
L 482.688 210.585584 
z
" style="fill:#e377c2;fill-opacity:0.3;"/>
   </g>
   <g id="matplotlib.axis_1">
    <g id="xtick_1">
     <g id="line2d_1">
      <path clip-path="url(#pa41efff7e8)" d="M 72 384.48 
L 72 51.84 
" style="fill:none;stroke:#b0b0b0;stroke-linecap:square;stroke-width:0.8;"/>
     </g>
     <g id="line2d_2">
      <defs>
       <path d="M 0 0 
L 0 3.5 
" id="m9a9947d755" style="stroke:#000000;stroke-width:0.8;"/>
      </defs>
      <g>
       <use style="stroke:#000000;stroke-width:0.8;" x="72" xlink:href="#m9a9947d755" y="384.48"/>
      </g>
     </g>
     <g id="text_1">
      <!-- 0 -->
      <defs>
       <path d="M 31.78125 66.40625 
Q 24.171875 66.40625 20.328125 58.90625 
Q 16.5 51.421875 16.5 36.375 
Q 16.5 21.390625 20.328125 13.890625 
Q 24.171875 6.390625 31.78125 6.390625 
Q 39.453125 6.390625 43.28125 13.890625 
Q 47.125 21.390625 47.125 36.375 
Q 47.125 51.421875 43.28125 58.90625 
Q 39.453125 66.40625 31.78125 66.40625 
z
M 31.78125 74.21875 
Q 44.046875 74.21875 50.515625 64.515625 
Q 56.984375 54.828125 56.984375 36.375 
Q 56.984375 17.96875 50.515625 8.265625 
Q 44.046875 -1.421875 31.78125 -1.421875 
Q 19.53125 -1.421875 13.0625 8.265625 
Q 6.59375 17.96875 6.59375 36.375 
Q 6.59375 54.828125 13.0625 64.515625 
Q 19.53125 74.21875 31.78125 74.21875 
z
" id="DejaVuSans-48"/>
      </defs>
      <g transform="translate(68.81875 399.078438)scale(0.1 -0.1)">
       <use xlink:href="#DejaVuSans-48"/>
      </g>
     </g>
    </g>
    <g id="xtick_2">
     <g id="line2d_3">
      <path clip-path="url(#pa41efff7e8)" d="M 161.28 384.48 
L 161.28 51.84 
" style="fill:none;stroke:#b0b0b0;stroke-linecap:square;stroke-width:0.8;"/>
     </g>
     <g id="line2d_4">
      <g>
       <use style="stroke:#000000;stroke-width:0.8;" x="161.28" xlink:href="#m9a9947d755" y="384.48"/>
      </g>
     </g>
     <g id="text_2">
      <!-- 10 -->
      <defs>
       <path d="M 12.40625 8.296875 
L 28.515625 8.296875 
L 28.515625 63.921875 
L 10.984375 60.40625 
L 10.984375 69.390625 
L 28.421875 72.90625 
L 38.28125 72.90625 
L 38.28125 8.296875 
L 54.390625 8.296875 
L 54.390625 0 
L 12.40625 0 
z
" id="DejaVuSans-49"/>
      </defs>
      <g transform="translate(154.9175 399.078438)scale(0.1 -0.1)">
       <use xlink:href="#DejaVuSans-49"/>
       <use x="63.623047" xlink:href="#DejaVuSans-48"/>
      </g>
     </g>
    </g>
    <g id="xtick_3">
     <g id="line2d_5">
      <path clip-path="url(#pa41efff7e8)" d="M 250.56 384.48 
L 250.56 51.84 
" style="fill:none;stroke:#b0b0b0;stroke-linecap:square;stroke-width:0.8;"/>
     </g>
     <g id="line2d_6">
      <g>
       <use style="stroke:#000000;stroke-width:0.8;" x="250.56" xlink:href="#m9a9947d755" y="384.48"/>
      </g>
     </g>
     <g id="text_3">
      <!-- 20 -->
      <defs>
       <path d="M 19.1875 8.296875 
L 53.609375 8.296875 
L 53.609375 0 
L 7.328125 0 
L 7.328125 8.296875 
Q 12.9375 14.109375 22.625 23.890625 
Q 32.328125 33.6875 34.8125 36.53125 
Q 39.546875 41.84375 41.421875 45.53125 
Q 43.3125 49.21875 43.3125 52.78125 
Q 43.3125 58.59375 39.234375 62.25 
Q 35.15625 65.921875 28.609375 65.921875 
Q 23.96875 65.921875 18.8125 64.3125 
Q 13.671875 62.703125 7.8125 59.421875 
L 7.8125 69.390625 
Q 13.765625 71.78125 18.9375 73 
Q 24.125 74.21875 28.421875 74.21875 
Q 39.75 74.21875 46.484375 68.546875 
Q 53.21875 62.890625 53.21875 53.421875 
Q 53.21875 48.921875 51.53125 44.890625 
Q 49.859375 40.875 45.40625 35.40625 
Q 44.1875 33.984375 37.640625 27.21875 
Q 31.109375 20.453125 19.1875 8.296875 
z
" id="DejaVuSans-50"/>
      </defs>
      <g transform="translate(244.1975 399.078438)scale(0.1 -0.1)">
       <use xlink:href="#DejaVuSans-50"/>
       <use x="63.623047" xlink:href="#DejaVuSans-48"/>
      </g>
     </g>
    </g>
    <g id="xtick_4">
     <g id="line2d_7">
      <path clip-path="url(#pa41efff7e8)" d="M 339.84 384.48 
L 339.84 51.84 
" style="fill:none;stroke:#b0b0b0;stroke-linecap:square;stroke-width:0.8;"/>
     </g>
     <g id="line2d_8">
      <g>
       <use style="stroke:#000000;stroke-width:0.8;" x="339.84" xlink:href="#m9a9947d755" y="384.48"/>
      </g>
     </g>
     <g id="text_4">
      <!-- 30 -->
      <defs>
       <path d="M 40.578125 39.3125 
Q 47.65625 37.796875 51.625 33 
Q 55.609375 28.21875 55.609375 21.1875 
Q 55.609375 10.40625 48.1875 4.484375 
Q 40.765625 -1.421875 27.09375 -1.421875 
Q 22.515625 -1.421875 17.65625 -0.515625 
Q 12.796875 0.390625 7.625 2.203125 
L 7.625 11.71875 
Q 11.71875 9.328125 16.59375 8.109375 
Q 21.484375 6.890625 26.8125 6.890625 
Q 36.078125 6.890625 40.9375 10.546875 
Q 45.796875 14.203125 45.796875 21.1875 
Q 45.796875 27.640625 41.28125 31.265625 
Q 36.765625 34.90625 28.71875 34.90625 
L 20.21875 34.90625 
L 20.21875 43.015625 
L 29.109375 43.015625 
Q 36.375 43.015625 40.234375 45.921875 
Q 44.09375 48.828125 44.09375 54.296875 
Q 44.09375 59.90625 40.109375 62.90625 
Q 36.140625 65.921875 28.71875 65.921875 
Q 24.65625 65.921875 20.015625 65.03125 
Q 15.375 64.15625 9.8125 62.3125 
L 9.8125 71.09375 
Q 15.4375 72.65625 20.34375 73.4375 
Q 25.25 74.21875 29.59375 74.21875 
Q 40.828125 74.21875 47.359375 69.109375 
Q 53.90625 64.015625 53.90625 55.328125 
Q 53.90625 49.265625 50.4375 45.09375 
Q 46.96875 40.921875 40.578125 39.3125 
z
" id="DejaVuSans-51"/>
      </defs>
      <g transform="translate(333.4775 399.078438)scale(0.1 -0.1)">
       <use xlink:href="#DejaVuSans-51"/>
       <use x="63.623047" xlink:href="#DejaVuSans-48"/>
      </g>
     </g>
    </g>
    <g id="xtick_5">
     <g id="line2d_9">
      <path clip-path="url(#pa41efff7e8)" d="M 429.12 384.48 
L 429.12 51.84 
" style="fill:none;stroke:#b0b0b0;stroke-linecap:square;stroke-width:0.8;"/>
     </g>
     <g id="line2d_10">
      <g>
       <use style="stroke:#000000;stroke-width:0.8;" x="429.12" xlink:href="#m9a9947d755" y="384.48"/>
      </g>
     </g>
     <g id="text_5">
      <!-- 40 -->
      <defs>
       <path d="M 37.796875 64.3125 
L 12.890625 25.390625 
L 37.796875 25.390625 
z
M 35.203125 72.90625 
L 47.609375 72.90625 
L 47.609375 25.390625 
L 58.015625 25.390625 
L 58.015625 17.1875 
L 47.609375 17.1875 
L 47.609375 0 
L 37.796875 0 
L 37.796875 17.1875 
L 4.890625 17.1875 
L 4.890625 26.703125 
z
" id="DejaVuSans-52"/>
      </defs>
      <g transform="translate(422.7575 399.078438)scale(0.1 -0.1)">
       <use xlink:href="#DejaVuSans-52"/>
       <use x="63.623047" xlink:href="#DejaVuSans-48"/>
      </g>
     </g>
    </g>
    <g id="xtick_6">
     <g id="line2d_11">
      <path clip-path="url(#pa41efff7e8)" d="M 518.4 384.48 
L 518.4 51.84 
" style="fill:none;stroke:#b0b0b0;stroke-linecap:square;stroke-width:0.8;"/>
     </g>
     <g id="line2d_12">
      <g>
       <use style="stroke:#000000;stroke-width:0.8;" x="518.4" xlink:href="#m9a9947d755" y="384.48"/>
      </g>
     </g>
     <g id="text_6">
      <!-- 50 -->
      <defs>
       <path d="M 10.796875 72.90625 
L 49.515625 72.90625 
L 49.515625 64.59375 
L 19.828125 64.59375 
L 19.828125 46.734375 
Q 21.96875 47.46875 24.109375 47.828125 
Q 26.265625 48.1875 28.421875 48.1875 
Q 40.625 48.1875 47.75 41.5 
Q 54.890625 34.8125 54.890625 23.390625 
Q 54.890625 11.625 47.5625 5.09375 
Q 40.234375 -1.421875 26.90625 -1.421875 
Q 22.3125 -1.421875 17.546875 -0.640625 
Q 12.796875 0.140625 7.71875 1.703125 
L 7.71875 11.625 
Q 12.109375 9.234375 16.796875 8.0625 
Q 21.484375 6.890625 26.703125 6.890625 
Q 35.15625 6.890625 40.078125 11.328125 
Q 45.015625 15.765625 45.015625 23.390625 
Q 45.015625 31 40.078125 35.4375 
Q 35.15625 39.890625 26.703125 39.890625 
Q 22.75 39.890625 18.8125 39.015625 
Q 14.890625 38.140625 10.796875 36.28125 
z
" id="DejaVuSans-53"/>
      </defs>
      <g transform="translate(512.0375 399.078438)scale(0.1 -0.1)">
       <use xlink:href="#DejaVuSans-53"/>
       <use x="63.623047" xlink:href="#DejaVuSans-48"/>
      </g>
     </g>
    </g>
    <g id="text_7">
     <!-- Iteration -->
     <defs>
      <path d="M 9.8125 72.90625 
L 19.671875 72.90625 
L 19.671875 0 
L 9.8125 0 
z
" id="DejaVuSans-73"/>
      <path d="M 18.3125 70.21875 
L 18.3125 54.6875 
L 36.8125 54.6875 
L 36.8125 47.703125 
L 18.3125 47.703125 
L 18.3125 18.015625 
Q 18.3125 11.328125 20.140625 9.421875 
Q 21.96875 7.515625 27.59375 7.515625 
L 36.8125 7.515625 
L 36.8125 0 
L 27.59375 0 
Q 17.1875 0 13.234375 3.875 
Q 9.28125 7.765625 9.28125 18.015625 
L 9.28125 47.703125 
L 2.6875 47.703125 
L 2.6875 54.6875 
L 9.28125 54.6875 
L 9.28125 70.21875 
z
" id="DejaVuSans-116"/>
      <path d="M 56.203125 29.59375 
L 56.203125 25.203125 
L 14.890625 25.203125 
Q 15.484375 15.921875 20.484375 11.0625 
Q 25.484375 6.203125 34.421875 6.203125 
Q 39.59375 6.203125 44.453125 7.46875 
Q 49.3125 8.734375 54.109375 11.28125 
L 54.109375 2.78125 
Q 49.265625 0.734375 44.1875 -0.34375 
Q 39.109375 -1.421875 33.890625 -1.421875 
Q 20.796875 -1.421875 13.15625 6.1875 
Q 5.515625 13.8125 5.515625 26.8125 
Q 5.515625 40.234375 12.765625 48.109375 
Q 20.015625 56 32.328125 56 
Q 43.359375 56 49.78125 48.890625 
Q 56.203125 41.796875 56.203125 29.59375 
z
M 47.21875 32.234375 
Q 47.125 39.59375 43.09375 43.984375 
Q 39.0625 48.390625 32.421875 48.390625 
Q 24.90625 48.390625 20.390625 44.140625 
Q 15.875 39.890625 15.1875 32.171875 
z
" id="DejaVuSans-101"/>
      <path d="M 41.109375 46.296875 
Q 39.59375 47.171875 37.8125 47.578125 
Q 36.03125 48 33.890625 48 
Q 26.265625 48 22.1875 43.046875 
Q 18.109375 38.09375 18.109375 28.8125 
L 18.109375 0 
L 9.078125 0 
L 9.078125 54.6875 
L 18.109375 54.6875 
L 18.109375 46.1875 
Q 20.953125 51.171875 25.484375 53.578125 
Q 30.03125 56 36.53125 56 
Q 37.453125 56 38.578125 55.875 
Q 39.703125 55.765625 41.0625 55.515625 
z
" id="DejaVuSans-114"/>
      <path d="M 34.28125 27.484375 
Q 23.390625 27.484375 19.1875 25 
Q 14.984375 22.515625 14.984375 16.5 
Q 14.984375 11.71875 18.140625 8.90625 
Q 21.296875 6.109375 26.703125 6.109375 
Q 34.1875 6.109375 38.703125 11.40625 
Q 43.21875 16.703125 43.21875 25.484375 
L 43.21875 27.484375 
z
M 52.203125 31.203125 
L 52.203125 0 
L 43.21875 0 
L 43.21875 8.296875 
Q 40.140625 3.328125 35.546875 0.953125 
Q 30.953125 -1.421875 24.3125 -1.421875 
Q 15.921875 -1.421875 10.953125 3.296875 
Q 6 8.015625 6 15.921875 
Q 6 25.140625 12.171875 29.828125 
Q 18.359375 34.515625 30.609375 34.515625 
L 43.21875 34.515625 
L 43.21875 35.40625 
Q 43.21875 41.609375 39.140625 45 
Q 35.0625 48.390625 27.6875 48.390625 
Q 23 48.390625 18.546875 47.265625 
Q 14.109375 46.140625 10.015625 43.890625 
L 10.015625 52.203125 
Q 14.9375 54.109375 19.578125 55.046875 
Q 24.21875 56 28.609375 56 
Q 40.484375 56 46.34375 49.84375 
Q 52.203125 43.703125 52.203125 31.203125 
z
" id="DejaVuSans-97"/>
      <path d="M 9.421875 54.6875 
L 18.40625 54.6875 
L 18.40625 0 
L 9.421875 0 
z
M 9.421875 75.984375 
L 18.40625 75.984375 
L 18.40625 64.59375 
L 9.421875 64.59375 
z
" id="DejaVuSans-105"/>
      <path d="M 30.609375 48.390625 
Q 23.390625 48.390625 19.1875 42.75 
Q 14.984375 37.109375 14.984375 27.296875 
Q 14.984375 17.484375 19.15625 11.84375 
Q 23.34375 6.203125 30.609375 6.203125 
Q 37.796875 6.203125 41.984375 11.859375 
Q 46.1875 17.53125 46.1875 27.296875 
Q 46.1875 37.015625 41.984375 42.703125 
Q 37.796875 48.390625 30.609375 48.390625 
z
M 30.609375 56 
Q 42.328125 56 49.015625 48.375 
Q 55.71875 40.765625 55.71875 27.296875 
Q 55.71875 13.875 49.015625 6.21875 
Q 42.328125 -1.421875 30.609375 -1.421875 
Q 18.84375 -1.421875 12.171875 6.21875 
Q 5.515625 13.875 5.515625 27.296875 
Q 5.515625 40.765625 12.171875 48.375 
Q 18.84375 56 30.609375 56 
z
" id="DejaVuSans-111"/>
      <path d="M 54.890625 33.015625 
L 54.890625 0 
L 45.90625 0 
L 45.90625 32.71875 
Q 45.90625 40.484375 42.875 44.328125 
Q 39.84375 48.1875 33.796875 48.1875 
Q 26.515625 48.1875 22.3125 43.546875 
Q 18.109375 38.921875 18.109375 30.90625 
L 18.109375 0 
L 9.078125 0 
L 9.078125 54.6875 
L 18.109375 54.6875 
L 18.109375 46.1875 
Q 21.34375 51.125 25.703125 53.5625 
Q 30.078125 56 35.796875 56 
Q 45.21875 56 50.046875 50.171875 
Q 54.890625 44.34375 54.890625 33.015625 
z
" id="DejaVuSans-110"/>
     </defs>
     <g transform="translate(273.991406 412.756563)scale(0.1 -0.1)">
      <use xlink:href="#DejaVuSans-73"/>
      <use x="29.492188" xlink:href="#DejaVuSans-116"/>
      <use x="68.701172" xlink:href="#DejaVuSans-101"/>
      <use x="130.224609" xlink:href="#DejaVuSans-114"/>
      <use x="171.337891" xlink:href="#DejaVuSans-97"/>
      <use x="232.617188" xlink:href="#DejaVuSans-116"/>
      <use x="271.826172" xlink:href="#DejaVuSans-105"/>
      <use x="299.609375" xlink:href="#DejaVuSans-111"/>
      <use x="360.791016" xlink:href="#DejaVuSans-110"/>
     </g>
    </g>
   </g>
   <g id="matplotlib.axis_2">
    <g id="ytick_1">
     <g id="line2d_13">
      <path clip-path="url(#pa41efff7e8)" d="M 72 384.48 
L 518.4 384.48 
" style="fill:none;stroke:#b0b0b0;stroke-linecap:square;stroke-width:0.8;"/>
     </g>
     <g id="line2d_14">
      <defs>
       <path d="M 0 0 
L -3.5 0 
" id="md251d0e9bf" style="stroke:#000000;stroke-width:0.8;"/>
      </defs>
      <g>
       <use style="stroke:#000000;stroke-width:0.8;" x="72" xlink:href="#md251d0e9bf" y="384.48"/>
      </g>
     </g>
     <g id="text_8">
      <!-- $\mathdefault{10^{-12}}$ -->
      <defs>
       <path d="M 10.59375 35.5 
L 73.1875 35.5 
L 73.1875 27.203125 
L 10.59375 27.203125 
z
" id="DejaVuSans-8722"/>
      </defs>
      <g transform="translate(37.1 388.279219)scale(0.1 -0.1)">
       <use transform="translate(0 0.765625)" xlink:href="#DejaVuSans-49"/>
       <use transform="translate(63.623047 0.765625)" xlink:href="#DejaVuSans-48"/>
       <use transform="translate(128.203125 39.046875)scale(0.7)" xlink:href="#DejaVuSans-8722"/>
       <use transform="translate(186.855469 39.046875)scale(0.7)" xlink:href="#DejaVuSans-49"/>
       <use transform="translate(231.391602 39.046875)scale(0.7)" xlink:href="#DejaVuSans-50"/>
      </g>
     </g>
    </g>
    <g id="ytick_2">
     <g id="line2d_15">
      <path clip-path="url(#pa41efff7e8)" d="M 72 336.96 
L 518.4 336.96 
" style="fill:none;stroke:#b0b0b0;stroke-linecap:square;stroke-width:0.8;"/>
     </g>
     <g id="line2d_16">
      <g>
       <use style="stroke:#000000;stroke-width:0.8;" x="72" xlink:href="#md251d0e9bf" y="336.96"/>
      </g>
     </g>
     <g id="text_9">
      <!-- $\mathdefault{10^{-10}}$ -->
      <g transform="translate(37.1 340.759219)scale(0.1 -0.1)">
       <use transform="translate(0 0.765625)" xlink:href="#DejaVuSans-49"/>
       <use transform="translate(63.623047 0.765625)" xlink:href="#DejaVuSans-48"/>
       <use transform="translate(128.203125 39.046875)scale(0.7)" xlink:href="#DejaVuSans-8722"/>
       <use transform="translate(186.855469 39.046875)scale(0.7)" xlink:href="#DejaVuSans-49"/>
       <use transform="translate(231.391602 39.046875)scale(0.7)" xlink:href="#DejaVuSans-48"/>
      </g>
     </g>
    </g>
    <g id="ytick_3">
     <g id="line2d_17">
      <path clip-path="url(#pa41efff7e8)" d="M 72 289.44 
L 518.4 289.44 
" style="fill:none;stroke:#b0b0b0;stroke-linecap:square;stroke-width:0.8;"/>
     </g>
     <g id="line2d_18">
      <g>
       <use style="stroke:#000000;stroke-width:0.8;" x="72" xlink:href="#md251d0e9bf" y="289.44"/>
      </g>
     </g>
     <g id="text_10">
      <!-- $\mathdefault{10^{-8}}$ -->
      <defs>
       <path d="M 31.78125 34.625 
Q 24.75 34.625 20.71875 30.859375 
Q 16.703125 27.09375 16.703125 20.515625 
Q 16.703125 13.921875 20.71875 10.15625 
Q 24.75 6.390625 31.78125 6.390625 
Q 38.8125 6.390625 42.859375 10.171875 
Q 46.921875 13.96875 46.921875 20.515625 
Q 46.921875 27.09375 42.890625 30.859375 
Q 38.875 34.625 31.78125 34.625 
z
M 21.921875 38.8125 
Q 15.578125 40.375 12.03125 44.71875 
Q 8.5 49.078125 8.5 55.328125 
Q 8.5 64.0625 14.71875 69.140625 
Q 20.953125 74.21875 31.78125 74.21875 
Q 42.671875 74.21875 48.875 69.140625 
Q 55.078125 64.0625 55.078125 55.328125 
Q 55.078125 49.078125 51.53125 44.71875 
Q 48 40.375 41.703125 38.8125 
Q 48.828125 37.15625 52.796875 32.3125 
Q 56.78125 27.484375 56.78125 20.515625 
Q 56.78125 9.90625 50.3125 4.234375 
Q 43.84375 -1.421875 31.78125 -1.421875 
Q 19.734375 -1.421875 13.25 4.234375 
Q 6.78125 9.90625 6.78125 20.515625 
Q 6.78125 27.484375 10.78125 32.3125 
Q 14.796875 37.15625 21.921875 38.8125 
z
M 18.3125 54.390625 
Q 18.3125 48.734375 21.84375 45.5625 
Q 25.390625 42.390625 31.78125 42.390625 
Q 38.140625 42.390625 41.71875 45.5625 
Q 45.3125 48.734375 45.3125 54.390625 
Q 45.3125 60.0625 41.71875 63.234375 
Q 38.140625 66.40625 31.78125 66.40625 
Q 25.390625 66.40625 21.84375 63.234375 
Q 18.3125 60.0625 18.3125 54.390625 
z
" id="DejaVuSans-56"/>
      </defs>
      <g transform="translate(41.5 293.239219)scale(0.1 -0.1)">
       <use transform="translate(0 0.765625)" xlink:href="#DejaVuSans-49"/>
       <use transform="translate(63.623047 0.765625)" xlink:href="#DejaVuSans-48"/>
       <use transform="translate(128.203125 39.046875)scale(0.7)" xlink:href="#DejaVuSans-8722"/>
       <use transform="translate(186.855469 39.046875)scale(0.7)" xlink:href="#DejaVuSans-56"/>
      </g>
     </g>
    </g>
    <g id="ytick_4">
     <g id="line2d_19">
      <path clip-path="url(#pa41efff7e8)" d="M 72 241.92 
L 518.4 241.92 
" style="fill:none;stroke:#b0b0b0;stroke-linecap:square;stroke-width:0.8;"/>
     </g>
     <g id="line2d_20">
      <g>
       <use style="stroke:#000000;stroke-width:0.8;" x="72" xlink:href="#md251d0e9bf" y="241.92"/>
      </g>
     </g>
     <g id="text_11">
      <!-- $\mathdefault{10^{-6}}$ -->
      <defs>
       <path d="M 33.015625 40.375 
Q 26.375 40.375 22.484375 35.828125 
Q 18.609375 31.296875 18.609375 23.390625 
Q 18.609375 15.53125 22.484375 10.953125 
Q 26.375 6.390625 33.015625 6.390625 
Q 39.65625 6.390625 43.53125 10.953125 
Q 47.40625 15.53125 47.40625 23.390625 
Q 47.40625 31.296875 43.53125 35.828125 
Q 39.65625 40.375 33.015625 40.375 
z
M 52.59375 71.296875 
L 52.59375 62.3125 
Q 48.875 64.0625 45.09375 64.984375 
Q 41.3125 65.921875 37.59375 65.921875 
Q 27.828125 65.921875 22.671875 59.328125 
Q 17.53125 52.734375 16.796875 39.40625 
Q 19.671875 43.65625 24.015625 45.921875 
Q 28.375 48.1875 33.59375 48.1875 
Q 44.578125 48.1875 50.953125 41.515625 
Q 57.328125 34.859375 57.328125 23.390625 
Q 57.328125 12.15625 50.6875 5.359375 
Q 44.046875 -1.421875 33.015625 -1.421875 
Q 20.359375 -1.421875 13.671875 8.265625 
Q 6.984375 17.96875 6.984375 36.375 
Q 6.984375 53.65625 15.1875 63.9375 
Q 23.390625 74.21875 37.203125 74.21875 
Q 40.921875 74.21875 44.703125 73.484375 
Q 48.484375 72.75 52.59375 71.296875 
z
" id="DejaVuSans-54"/>
      </defs>
      <g transform="translate(41.5 245.719219)scale(0.1 -0.1)">
       <use transform="translate(0 0.765625)" xlink:href="#DejaVuSans-49"/>
       <use transform="translate(63.623047 0.765625)" xlink:href="#DejaVuSans-48"/>
       <use transform="translate(128.203125 39.046875)scale(0.7)" xlink:href="#DejaVuSans-8722"/>
       <use transform="translate(186.855469 39.046875)scale(0.7)" xlink:href="#DejaVuSans-54"/>
      </g>
     </g>
    </g>
    <g id="ytick_5">
     <g id="line2d_21">
      <path clip-path="url(#pa41efff7e8)" d="M 72 194.4 
L 518.4 194.4 
" style="fill:none;stroke:#b0b0b0;stroke-linecap:square;stroke-width:0.8;"/>
     </g>
     <g id="line2d_22">
      <g>
       <use style="stroke:#000000;stroke-width:0.8;" x="72" xlink:href="#md251d0e9bf" y="194.4"/>
      </g>
     </g>
     <g id="text_12">
      <!-- $\mathdefault{10^{-4}}$ -->
      <g transform="translate(41.5 198.199219)scale(0.1 -0.1)">
       <use transform="translate(0 0.684375)" xlink:href="#DejaVuSans-49"/>
       <use transform="translate(63.623047 0.684375)" xlink:href="#DejaVuSans-48"/>
       <use transform="translate(128.203125 38.965625)scale(0.7)" xlink:href="#DejaVuSans-8722"/>
       <use transform="translate(186.855469 38.965625)scale(0.7)" xlink:href="#DejaVuSans-52"/>
      </g>
     </g>
    </g>
    <g id="ytick_6">
     <g id="line2d_23">
      <path clip-path="url(#pa41efff7e8)" d="M 72 146.88 
L 518.4 146.88 
" style="fill:none;stroke:#b0b0b0;stroke-linecap:square;stroke-width:0.8;"/>
     </g>
     <g id="line2d_24">
      <g>
       <use style="stroke:#000000;stroke-width:0.8;" x="72" xlink:href="#md251d0e9bf" y="146.88"/>
      </g>
     </g>
     <g id="text_13">
      <!-- $\mathdefault{10^{-2}}$ -->
      <g transform="translate(41.5 150.679219)scale(0.1 -0.1)">
       <use transform="translate(0 0.765625)" xlink:href="#DejaVuSans-49"/>
       <use transform="translate(63.623047 0.765625)" xlink:href="#DejaVuSans-48"/>
       <use transform="translate(128.203125 39.046875)scale(0.7)" xlink:href="#DejaVuSans-8722"/>
       <use transform="translate(186.855469 39.046875)scale(0.7)" xlink:href="#DejaVuSans-50"/>
      </g>
     </g>
    </g>
    <g id="ytick_7">
     <g id="line2d_25">
      <path clip-path="url(#pa41efff7e8)" d="M 72 99.36 
L 518.4 99.36 
" style="fill:none;stroke:#b0b0b0;stroke-linecap:square;stroke-width:0.8;"/>
     </g>
     <g id="line2d_26">
      <g>
       <use style="stroke:#000000;stroke-width:0.8;" x="72" xlink:href="#md251d0e9bf" y="99.36"/>
      </g>
     </g>
     <g id="text_14">
      <!-- $\mathdefault{10^{0}}$ -->
      <g transform="translate(47.4 103.159219)scale(0.1 -0.1)">
       <use transform="translate(0 0.765625)" xlink:href="#DejaVuSans-49"/>
       <use transform="translate(63.623047 0.765625)" xlink:href="#DejaVuSans-48"/>
       <use transform="translate(128.203125 39.046875)scale(0.7)" xlink:href="#DejaVuSans-48"/>
      </g>
     </g>
    </g>
    <g id="ytick_8">
     <g id="line2d_27">
      <path clip-path="url(#pa41efff7e8)" d="M 72 51.84 
L 518.4 51.84 
" style="fill:none;stroke:#b0b0b0;stroke-linecap:square;stroke-width:0.8;"/>
     </g>
     <g id="line2d_28">
      <g>
       <use style="stroke:#000000;stroke-width:0.8;" x="72" xlink:href="#md251d0e9bf" y="51.84"/>
      </g>
     </g>
     <g id="text_15">
      <!-- $\mathdefault{10^{2}}$ -->
      <g transform="translate(47.4 55.639219)scale(0.1 -0.1)">
       <use transform="translate(0 0.765625)" xlink:href="#DejaVuSans-49"/>
       <use transform="translate(63.623047 0.765625)" xlink:href="#DejaVuSans-48"/>
       <use transform="translate(128.203125 39.046875)scale(0.7)" xlink:href="#DejaVuSans-50"/>
      </g>
     </g>
    </g>
    <g id="text_16">
     <!-- Integrated Variance -->
     <defs>
      <path d="M 45.40625 27.984375 
Q 45.40625 37.75 41.375 43.109375 
Q 37.359375 48.484375 30.078125 48.484375 
Q 22.859375 48.484375 18.828125 43.109375 
Q 14.796875 37.75 14.796875 27.984375 
Q 14.796875 18.265625 18.828125 12.890625 
Q 22.859375 7.515625 30.078125 7.515625 
Q 37.359375 7.515625 41.375 12.890625 
Q 45.40625 18.265625 45.40625 27.984375 
z
M 54.390625 6.78125 
Q 54.390625 -7.171875 48.1875 -13.984375 
Q 42 -20.796875 29.203125 -20.796875 
Q 24.46875 -20.796875 20.265625 -20.09375 
Q 16.0625 -19.390625 12.109375 -17.921875 
L 12.109375 -9.1875 
Q 16.0625 -11.328125 19.921875 -12.34375 
Q 23.78125 -13.375 27.78125 -13.375 
Q 36.625 -13.375 41.015625 -8.765625 
Q 45.40625 -4.15625 45.40625 5.171875 
L 45.40625 9.625 
Q 42.625 4.78125 38.28125 2.390625 
Q 33.9375 0 27.875 0 
Q 17.828125 0 11.671875 7.65625 
Q 5.515625 15.328125 5.515625 27.984375 
Q 5.515625 40.671875 11.671875 48.328125 
Q 17.828125 56 27.875 56 
Q 33.9375 56 38.28125 53.609375 
Q 42.625 51.21875 45.40625 46.390625 
L 45.40625 54.6875 
L 54.390625 54.6875 
z
" id="DejaVuSans-103"/>
      <path d="M 45.40625 46.390625 
L 45.40625 75.984375 
L 54.390625 75.984375 
L 54.390625 0 
L 45.40625 0 
L 45.40625 8.203125 
Q 42.578125 3.328125 38.25 0.953125 
Q 33.9375 -1.421875 27.875 -1.421875 
Q 17.96875 -1.421875 11.734375 6.484375 
Q 5.515625 14.40625 5.515625 27.296875 
Q 5.515625 40.1875 11.734375 48.09375 
Q 17.96875 56 27.875 56 
Q 33.9375 56 38.25 53.625 
Q 42.578125 51.265625 45.40625 46.390625 
z
M 14.796875 27.296875 
Q 14.796875 17.390625 18.875 11.75 
Q 22.953125 6.109375 30.078125 6.109375 
Q 37.203125 6.109375 41.296875 11.75 
Q 45.40625 17.390625 45.40625 27.296875 
Q 45.40625 37.203125 41.296875 42.84375 
Q 37.203125 48.484375 30.078125 48.484375 
Q 22.953125 48.484375 18.875 42.84375 
Q 14.796875 37.203125 14.796875 27.296875 
z
" id="DejaVuSans-100"/>
      <path id="DejaVuSans-32"/>
      <path d="M 28.609375 0 
L 0.78125 72.90625 
L 11.078125 72.90625 
L 34.1875 11.53125 
L 57.328125 72.90625 
L 67.578125 72.90625 
L 39.796875 0 
z
" id="DejaVuSans-86"/>
      <path d="M 48.78125 52.59375 
L 48.78125 44.1875 
Q 44.96875 46.296875 41.140625 47.34375 
Q 37.3125 48.390625 33.40625 48.390625 
Q 24.65625 48.390625 19.8125 42.84375 
Q 14.984375 37.3125 14.984375 27.296875 
Q 14.984375 17.28125 19.8125 11.734375 
Q 24.65625 6.203125 33.40625 6.203125 
Q 37.3125 6.203125 41.140625 7.25 
Q 44.96875 8.296875 48.78125 10.40625 
L 48.78125 2.09375 
Q 45.015625 0.34375 40.984375 -0.53125 
Q 36.96875 -1.421875 32.421875 -1.421875 
Q 20.0625 -1.421875 12.78125 6.34375 
Q 5.515625 14.109375 5.515625 27.296875 
Q 5.515625 40.671875 12.859375 48.328125 
Q 20.21875 56 33.015625 56 
Q 37.15625 56 41.109375 55.140625 
Q 45.0625 54.296875 48.78125 52.59375 
z
" id="DejaVuSans-99"/>
     </defs>
     <g transform="translate(31.020312 267.534219)rotate(-90)scale(0.1 -0.1)">
      <use xlink:href="#DejaVuSans-73"/>
      <use x="29.492188" xlink:href="#DejaVuSans-110"/>
      <use x="92.871094" xlink:href="#DejaVuSans-116"/>
      <use x="132.080078" xlink:href="#DejaVuSans-101"/>
      <use x="193.603516" xlink:href="#DejaVuSans-103"/>
      <use x="257.080078" xlink:href="#DejaVuSans-114"/>
      <use x="298.193359" xlink:href="#DejaVuSans-97"/>
      <use x="359.472656" xlink:href="#DejaVuSans-116"/>
      <use x="398.681641" xlink:href="#DejaVuSans-101"/>
      <use x="460.205078" xlink:href="#DejaVuSans-100"/>
      <use x="523.681641" xlink:href="#DejaVuSans-32"/>
      <use x="555.46875" xlink:href="#DejaVuSans-86"/>
      <use x="616.126953" xlink:href="#DejaVuSans-97"/>
      <use x="677.40625" xlink:href="#DejaVuSans-114"/>
      <use x="718.519531" xlink:href="#DejaVuSans-105"/>
      <use x="746.302734" xlink:href="#DejaVuSans-97"/>
      <use x="807.582031" xlink:href="#DejaVuSans-110"/>
      <use x="870.960938" xlink:href="#DejaVuSans-99"/>
      <use x="925.941406" xlink:href="#DejaVuSans-101"/>
     </g>
    </g>
   </g>
   <g id="line2d_29">
    <path clip-path="url(#pa41efff7e8)" style="fill:none;stroke:#1f77b4;stroke-linecap:square;stroke-width:1.5;"/>
   </g>
   <g id="line2d_30">
    <path clip-path="url(#pa41efff7e8)" d="M 72 100.410454 
L 80.928 109.481591 
L 89.856 111.733374 
L 98.784 110.69748 
L 107.712 115.333202 
L 116.64 114.13371 
L 125.568 121.462684 
L 134.496 124.56429 
L 143.424 133.818192 
L 152.352 146.329556 
L 161.28 160.469518 
L 170.208 176.186679 
L 179.136 190.948484 
L 188.064 210.479254 
L 196.992 223.581953 
L 205.92 244.726659 
L 214.848 260.76747 
L 223.776 279.72256 
L 232.704 283.995701 
L 241.632 260.838404 
L 250.56 257.122309 
L 259.488 244.771861 
L 268.416 251.717766 
L 277.344 237.194293 
L 286.272 238.218947 
L 286.345621 433 
M 304.052639 433 
L 304.128 233.576072 
L 313.056 231.587726 
L 313.132106 433 
M 330.835936 433 
L 330.912 231.700256 
L 339.84 236.053447 
L 348.768 227.138492 
L 348.845772 433 
M 375.47668 433 
L 375.552 233.68495 
L 375.62732 433 
M 402.259673 433 
L 402.336 230.996621 
L 402.412327 433 
M 420.112285 433 
L 420.192 221.949299 
L 420.271715 433 
M 437.970464 433 
L 438.048 227.768105 
L 438.125536 433 
M 473.681463 433 
L 473.76 225.095945 
L 482.688 219.683994 
L 491.616 223.556105 
L 500.544 223.430048 
L 509.472 219.869922 
L 518.4 221.653588 
" style="fill:none;stroke:#ff7f0e;stroke-linecap:square;stroke-width:1.5;"/>
   </g>
   <g id="line2d_31">
    <path clip-path="url(#pa41efff7e8)" d="M 72 88.347709 
L 80.928 94.578117 
L 89.856 100.7232 
L 98.784 98.298012 
L 107.712 101.009646 
L 116.64 103.117682 
L 125.568 105.352926 
L 134.496 107.533321 
L 143.424 109.481971 
L 152.352 111.378322 
L 161.28 113.115421 
L 170.208 114.661874 
L 179.136 115.902644 
L 188.064 117.159028 
L 196.992 118.232551 
L 205.92 119.223076 
L 214.848 120.092536 
L 223.776 121.008679 
L 232.704 121.857423 
L 241.632 122.695247 
L 250.56 123.524274 
L 259.488 124.329532 
L 268.416 125.131325 
L 277.344 125.922744 
L 286.272 126.687203 
L 295.2 127.465688 
L 304.128 128.141249 
L 313.056 128.839632 
L 321.984 129.541516 
L 330.912 130.238681 
L 339.84 130.88757 
L 348.768 131.498369 
L 357.696 132.0547 
L 366.624 132.597636 
L 375.552 133.087845 
L 384.48 133.574103 
L 393.408 134.056994 
L 402.336 134.541899 
L 411.264 134.997196 
L 420.192 135.446175 
L 429.12 135.892424 
L 438.048 136.346014 
L 446.976 136.780406 
L 455.904 137.214265 
L 464.832 137.641441 
L 473.76 138.074036 
L 482.688 138.49159 
L 491.616 138.909729 
L 500.544 139.327331 
L 509.472 139.747551 
L 518.4 140.150816 
" style="fill:none;stroke:#2ca02c;stroke-linecap:square;stroke-width:1.5;"/>
   </g>
   <g id="line2d_32">
    <path clip-path="url(#pa41efff7e8)" d="M 72 95.887162 
L 80.928 102.452785 
L 89.856 103.955467 
L 98.784 97.846658 
L 107.712 103.033089 
L 116.64 108.08248 
L 125.568 111.586851 
L 134.496 115.540903 
L 143.424 119.216196 
L 152.352 122.759998 
L 161.28 126.316332 
L 170.208 129.986825 
L 179.136 133.422733 
L 188.064 136.97277 
L 196.992 140.031558 
L 205.92 142.282739 
L 214.848 144.234994 
L 223.776 146.180422 
L 232.704 148.027344 
L 241.632 149.902104 
L 250.56 151.699895 
L 259.488 153.489251 
L 268.416 155.217203 
L 277.344 156.956873 
L 286.272 158.759023 
L 295.2 160.658063 
L 304.128 162.412088 
L 313.056 164.203715 
L 321.984 165.985855 
L 330.912 167.769927 
L 339.84 169.242987 
L 348.768 170.572219 
L 357.696 171.65057 
L 366.624 172.693855 
L 375.552 173.639597 
L 384.48 174.575736 
L 393.408 175.507821 
L 402.336 176.438593 
L 411.264 177.340801 
L 420.192 178.241795 
L 429.12 179.13795 
L 438.048 180.029312 
L 446.976 180.904868 
L 455.904 181.773295 
L 464.832 182.631311 
L 473.76 183.470626 
L 482.688 184.309346 
L 491.616 185.147377 
L 500.544 185.995292 
L 509.472 186.842953 
L 518.4 187.712802 
" style="fill:none;stroke:#d62728;stroke-linecap:square;stroke-width:1.5;"/>
   </g>
   <g id="line2d_33">
    <path clip-path="url(#pa41efff7e8)" d="M 72 96.097937 
L 80.928 103.157747 
L 89.856 106.374833 
L 98.784 101.685774 
L 107.712 104.937642 
L 116.64 110.447658 
L 125.568 115.07767 
L 134.496 119.281165 
L 143.424 123.707785 
L 152.352 128.486524 
L 161.28 133.480892 
L 170.208 138.491837 
L 179.136 143.95422 
L 188.064 149.408414 
L 196.992 154.076327 
L 205.92 157.542675 
L 214.848 160.409279 
L 223.776 163.233913 
L 232.704 166.113373 
L 241.632 169.113847 
L 250.56 171.892986 
L 259.488 174.527377 
L 268.416 177.233309 
L 277.344 179.854326 
L 286.272 182.337392 
L 295.2 185.024053 
L 304.128 187.845394 
L 313.056 190.837524 
L 321.984 193.448286 
L 330.912 196.159197 
L 339.84 198.338766 
L 348.768 200.432788 
L 357.696 202.187987 
L 366.624 203.799066 
L 375.552 205.237065 
L 384.48 206.647649 
L 393.408 208.010182 
L 402.336 209.373545 
L 411.264 210.731769 
L 420.192 212.153324 
L 429.12 213.498315 
L 438.048 214.895359 
L 446.976 216.314175 
L 455.904 217.725535 
L 464.832 219.040694 
L 473.76 220.364146 
L 482.688 221.657993 
L 491.616 222.887959 
L 500.544 224.106928 
L 509.472 225.378059 
L 518.4 226.578857 
" style="fill:none;stroke:#9467bd;stroke-linecap:square;stroke-width:1.5;"/>
   </g>
   <g id="line2d_34">
    <path clip-path="url(#pa41efff7e8)" d="M 72 102.934835 
L 80.928 100.262372 
L 89.856 104.627656 
L 98.784 99.417781 
L 107.712 99.188023 
L 116.64 99.85092 
L 125.568 99.378291 
L 134.496 101.777123 
L 143.424 103.094253 
L 152.352 107.859324 
L 161.28 122.96984 
L 170.208 168.466074 
L 179.136 190.692142 
L 188.064 210.958265 
L 196.992 226.622264 
L 205.92 244.260754 
L 214.848 260.829608 
L 223.776 279.741121 
L 232.704 284.958686 
L 241.632 256.706987 
L 250.56 260.172477 
L 259.488 244.051091 
L 268.416 244.891787 
L 268.487119 433 
M 286.196592 433 
L 286.272 233.449393 
L 295.2 238.135985 
L 304.128 236.200408 
L 313.056 235.670969 
L 313.130576 433 
M 330.836043 433 
L 330.912 231.984503 
L 330.987957 433 
M 357.617589 433 
L 357.696 225.432933 
L 366.624 227.49838 
L 375.552 230.770079 
L 375.628412 433 
M 402.259406 433 
L 402.336 230.283445 
L 402.412594 433 
M 420.113537 433 
L 420.192 225.294973 
L 420.270463 433 
M 437.967578 433 
L 438.048 220.060872 
L 438.128422 433 
M 464.75033 433 
L 464.832 216.727148 
L 464.91367 433 
M 482.608686 433 
L 482.688 223.022154 
L 482.767314 433 
M 509.389608 433 
L 509.472 214.796675 
L 518.4 210.948527 
" style="fill:none;stroke:#8c564b;stroke-linecap:square;stroke-width:1.5;"/>
   </g>
   <g id="line2d_35">
    <path clip-path="url(#pa41efff7e8)" d="M 72 183.577786 
L 80.928 185.817552 
L 89.856 193.497435 
L 98.784 172.621919 
L 107.712 199.660949 
L 107.800051 433 
M 125.470708 433 
L 125.568 174.900858 
L 134.496 190.877412 
L 143.424 179.400272 
L 143.519614 433 
M 170.112423 433 
L 170.208 179.498473 
L 170.303577 433 
M 196.898197 433 
L 196.992 184.255198 
L 205.92 176.952775 
L 214.848 173.527305 
L 214.945804 433 
M 259.388301 433 
L 259.488 168.442884 
L 259.587699 433 
M 482.588618 433 
L 482.688 169.294265 
L 482.787382 433 
" style="fill:none;stroke:#e377c2;stroke-linecap:square;stroke-width:1.5;"/>
   </g>
   <g id="patch_3">
    <path d="M 72 384.48 
L 72 51.84 
" style="fill:none;stroke:#000000;stroke-linecap:square;stroke-linejoin:miter;stroke-width:0.8;"/>
   </g>
   <g id="patch_4">
    <path d="M 518.4 384.48 
L 518.4 51.84 
" style="fill:none;stroke:#000000;stroke-linecap:square;stroke-linejoin:miter;stroke-width:0.8;"/>
   </g>
   <g id="patch_5">
    <path d="M 72 384.48 
L 518.4 384.48 
" style="fill:none;stroke:#000000;stroke-linecap:square;stroke-linejoin:miter;stroke-width:0.8;"/>
   </g>
   <g id="patch_6">
    <path d="M 72 51.84 
L 518.4 51.84 
" style="fill:none;stroke:#000000;stroke-linecap:square;stroke-linejoin:miter;stroke-width:0.8;"/>
   </g>
   <g id="legend_1">
    <g id="patch_7">
     <path d="M 79 379.48 
L 165.804688 379.48 
Q 167.804688 379.48 167.804688 377.48 
L 167.804688 275.733125 
Q 167.804688 273.733125 165.804688 273.733125 
L 79 273.733125 
Q 77 273.733125 77 275.733125 
L 77 377.48 
Q 77 379.48 79 379.48 
z
" style="fill:#ffffff;opacity:0.8;stroke:#cccccc;stroke-linejoin:miter;"/>
    </g>
    <g id="line2d_36">
     <path d="M 81 281.831563 
L 101 281.831563 
" style="fill:none;stroke:#1f77b4;stroke-linecap:square;stroke-width:1.5;"/>
    </g>
    <g id="line2d_37"/>
    <g id="text_17">
     <!-- Constant -->
     <defs>
      <path d="M 64.40625 67.28125 
L 64.40625 56.890625 
Q 59.421875 61.53125 53.78125 63.8125 
Q 48.140625 66.109375 41.796875 66.109375 
Q 29.296875 66.109375 22.65625 58.46875 
Q 16.015625 50.828125 16.015625 36.375 
Q 16.015625 21.96875 22.65625 14.328125 
Q 29.296875 6.6875 41.796875 6.6875 
Q 48.140625 6.6875 53.78125 8.984375 
Q 59.421875 11.28125 64.40625 15.921875 
L 64.40625 5.609375 
Q 59.234375 2.09375 53.4375 0.328125 
Q 47.65625 -1.421875 41.21875 -1.421875 
Q 24.65625 -1.421875 15.125 8.703125 
Q 5.609375 18.84375 5.609375 36.375 
Q 5.609375 53.953125 15.125 64.078125 
Q 24.65625 74.21875 41.21875 74.21875 
Q 47.75 74.21875 53.53125 72.484375 
Q 59.328125 70.75 64.40625 67.28125 
z
" id="DejaVuSans-67"/>
      <path d="M 44.28125 53.078125 
L 44.28125 44.578125 
Q 40.484375 46.53125 36.375 47.5 
Q 32.28125 48.484375 27.875 48.484375 
Q 21.1875 48.484375 17.84375 46.4375 
Q 14.5 44.390625 14.5 40.28125 
Q 14.5 37.15625 16.890625 35.375 
Q 19.28125 33.59375 26.515625 31.984375 
L 29.59375 31.296875 
Q 39.15625 29.25 43.1875 25.515625 
Q 47.21875 21.78125 47.21875 15.09375 
Q 47.21875 7.46875 41.1875 3.015625 
Q 35.15625 -1.421875 24.609375 -1.421875 
Q 20.21875 -1.421875 15.453125 -0.5625 
Q 10.6875 0.296875 5.421875 2 
L 5.421875 11.28125 
Q 10.40625 8.6875 15.234375 7.390625 
Q 20.0625 6.109375 24.8125 6.109375 
Q 31.15625 6.109375 34.5625 8.28125 
Q 37.984375 10.453125 37.984375 14.40625 
Q 37.984375 18.0625 35.515625 20.015625 
Q 33.0625 21.96875 24.703125 23.78125 
L 21.578125 24.515625 
Q 13.234375 26.265625 9.515625 29.90625 
Q 5.8125 33.546875 5.8125 39.890625 
Q 5.8125 47.609375 11.28125 51.796875 
Q 16.75 56 26.8125 56 
Q 31.78125 56 36.171875 55.265625 
Q 40.578125 54.546875 44.28125 53.078125 
z
" id="DejaVuSans-115"/>
     </defs>
     <g transform="translate(109 285.331563)scale(0.1 -0.1)">
      <use xlink:href="#DejaVuSans-67"/>
      <use x="69.824219" xlink:href="#DejaVuSans-111"/>
      <use x="131.005859" xlink:href="#DejaVuSans-110"/>
      <use x="194.384766" xlink:href="#DejaVuSans-115"/>
      <use x="246.484375" xlink:href="#DejaVuSans-116"/>
      <use x="285.693359" xlink:href="#DejaVuSans-97"/>
      <use x="346.972656" xlink:href="#DejaVuSans-110"/>
      <use x="410.351562" xlink:href="#DejaVuSans-116"/>
     </g>
    </g>
    <g id="line2d_38">
     <path d="M 81 296.509688 
L 101 296.509688 
" style="fill:none;stroke:#ff7f0e;stroke-linecap:square;stroke-width:1.5;"/>
    </g>
    <g id="line2d_39"/>
    <g id="text_18">
     <!-- RBF -->
     <defs>
      <path d="M 44.390625 34.1875 
Q 47.5625 33.109375 50.5625 29.59375 
Q 53.5625 26.078125 56.59375 19.921875 
L 66.609375 0 
L 56 0 
L 46.6875 18.703125 
Q 43.0625 26.03125 39.671875 28.421875 
Q 36.28125 30.8125 30.421875 30.8125 
L 19.671875 30.8125 
L 19.671875 0 
L 9.8125 0 
L 9.8125 72.90625 
L 32.078125 72.90625 
Q 44.578125 72.90625 50.734375 67.671875 
Q 56.890625 62.453125 56.890625 51.90625 
Q 56.890625 45.015625 53.6875 40.46875 
Q 50.484375 35.9375 44.390625 34.1875 
z
M 19.671875 64.796875 
L 19.671875 38.921875 
L 32.078125 38.921875 
Q 39.203125 38.921875 42.84375 42.21875 
Q 46.484375 45.515625 46.484375 51.90625 
Q 46.484375 58.296875 42.84375 61.546875 
Q 39.203125 64.796875 32.078125 64.796875 
z
" id="DejaVuSans-82"/>
      <path d="M 19.671875 34.8125 
L 19.671875 8.109375 
L 35.5 8.109375 
Q 43.453125 8.109375 47.28125 11.40625 
Q 51.125 14.703125 51.125 21.484375 
Q 51.125 28.328125 47.28125 31.5625 
Q 43.453125 34.8125 35.5 34.8125 
z
M 19.671875 64.796875 
L 19.671875 42.828125 
L 34.28125 42.828125 
Q 41.5 42.828125 45.03125 45.53125 
Q 48.578125 48.25 48.578125 53.8125 
Q 48.578125 59.328125 45.03125 62.0625 
Q 41.5 64.796875 34.28125 64.796875 
z
M 9.8125 72.90625 
L 35.015625 72.90625 
Q 46.296875 72.90625 52.390625 68.21875 
Q 58.5 63.53125 58.5 54.890625 
Q 58.5 48.1875 55.375 44.234375 
Q 52.25 40.28125 46.1875 39.3125 
Q 53.46875 37.75 57.5 32.78125 
Q 61.53125 27.828125 61.53125 20.40625 
Q 61.53125 10.640625 54.890625 5.3125 
Q 48.25 0 35.984375 0 
L 9.8125 0 
z
" id="DejaVuSans-66"/>
      <path d="M 9.8125 72.90625 
L 51.703125 72.90625 
L 51.703125 64.59375 
L 19.671875 64.59375 
L 19.671875 43.109375 
L 48.578125 43.109375 
L 48.578125 34.8125 
L 19.671875 34.8125 
L 19.671875 0 
L 9.8125 0 
z
" id="DejaVuSans-70"/>
     </defs>
     <g transform="translate(109 300.009688)scale(0.1 -0.1)">
      <use xlink:href="#DejaVuSans-82"/>
      <use x="69.482422" xlink:href="#DejaVuSans-66"/>
      <use x="138.085938" xlink:href="#DejaVuSans-70"/>
     </g>
    </g>
    <g id="line2d_40">
     <path d="M 81 311.187813 
L 101 311.187813 
" style="fill:none;stroke:#2ca02c;stroke-linecap:square;stroke-width:1.5;"/>
    </g>
    <g id="line2d_41"/>
    <g id="text_19">
     <!-- Matrn-1/2 -->
     <defs>
      <path d="M 9.8125 72.90625 
L 24.515625 72.90625 
L 43.109375 23.296875 
L 61.8125 72.90625 
L 76.515625 72.90625 
L 76.515625 0 
L 66.890625 0 
L 66.890625 64.015625 
L 48.09375 14.015625 
L 38.1875 14.015625 
L 19.390625 64.015625 
L 19.390625 0 
L 9.8125 0 
z
" id="DejaVuSans-77"/>
      <path d="M 56.203125 29.59375 
L 56.203125 25.203125 
L 14.890625 25.203125 
Q 15.484375 15.921875 20.484375 11.0625 
Q 25.484375 6.203125 34.421875 6.203125 
Q 39.59375 6.203125 44.453125 7.46875 
Q 49.3125 8.734375 54.109375 11.28125 
L 54.109375 2.78125 
Q 49.265625 0.734375 44.1875 -0.34375 
Q 39.109375 -1.421875 33.890625 -1.421875 
Q 20.796875 -1.421875 13.15625 6.1875 
Q 5.515625 13.8125 5.515625 26.8125 
Q 5.515625 40.234375 12.765625 48.109375 
Q 20.015625 56 32.328125 56 
Q 43.359375 56 49.78125 48.890625 
Q 56.203125 41.796875 56.203125 29.59375 
z
M 47.21875 32.234375 
Q 47.125 39.59375 43.09375 43.984375 
Q 39.0625 48.390625 32.421875 48.390625 
Q 24.90625 48.390625 20.390625 44.140625 
Q 15.875 39.890625 15.1875 32.171875 
z
M 38.53125 79.984375 
L 48.25 79.984375 
L 32.34375 61.625 
L 24.859375 61.625 
z
" id="DejaVuSans-233"/>
      <path d="M 4.890625 31.390625 
L 31.203125 31.390625 
L 31.203125 23.390625 
L 4.890625 23.390625 
z
" id="DejaVuSans-45"/>
      <path d="M 25.390625 72.90625 
L 33.6875 72.90625 
L 8.296875 -9.28125 
L 0 -9.28125 
z
" id="DejaVuSans-47"/>
     </defs>
     <g transform="translate(109 314.687813)scale(0.1 -0.1)">
      <use xlink:href="#DejaVuSans-77"/>
      <use x="86.279297" xlink:href="#DejaVuSans-97"/>
      <use x="147.558594" xlink:href="#DejaVuSans-116"/>
      <use x="186.767578" xlink:href="#DejaVuSans-233"/>
      <use x="248.291016" xlink:href="#DejaVuSans-114"/>
      <use x="287.654297" xlink:href="#DejaVuSans-110"/>
      <use x="351.033203" xlink:href="#DejaVuSans-45"/>
      <use x="387.117188" xlink:href="#DejaVuSans-49"/>
      <use x="450.740234" xlink:href="#DejaVuSans-47"/>
      <use x="484.431641" xlink:href="#DejaVuSans-50"/>
     </g>
    </g>
    <g id="line2d_42">
     <path d="M 81 325.865938 
L 101 325.865938 
" style="fill:none;stroke:#d62728;stroke-linecap:square;stroke-width:1.5;"/>
    </g>
    <g id="line2d_43"/>
    <g id="text_20">
     <!-- Matrn-3/2 -->
     <g transform="translate(109 329.365938)scale(0.1 -0.1)">
      <use xlink:href="#DejaVuSans-77"/>
      <use x="86.279297" xlink:href="#DejaVuSans-97"/>
      <use x="147.558594" xlink:href="#DejaVuSans-116"/>
      <use x="186.767578" xlink:href="#DejaVuSans-233"/>
      <use x="248.291016" xlink:href="#DejaVuSans-114"/>
      <use x="287.654297" xlink:href="#DejaVuSans-110"/>
      <use x="351.033203" xlink:href="#DejaVuSans-45"/>
      <use x="387.117188" xlink:href="#DejaVuSans-51"/>
      <use x="450.740234" xlink:href="#DejaVuSans-47"/>
      <use x="484.431641" xlink:href="#DejaVuSans-50"/>
     </g>
    </g>
    <g id="line2d_44">
     <path d="M 81 340.544062 
L 101 340.544062 
" style="fill:none;stroke:#9467bd;stroke-linecap:square;stroke-width:1.5;"/>
    </g>
    <g id="line2d_45"/>
    <g id="text_21">
     <!-- Matrn-5/2 -->
     <g transform="translate(109 344.044062)scale(0.1 -0.1)">
      <use xlink:href="#DejaVuSans-77"/>
      <use x="86.279297" xlink:href="#DejaVuSans-97"/>
      <use x="147.558594" xlink:href="#DejaVuSans-116"/>
      <use x="186.767578" xlink:href="#DejaVuSans-233"/>
      <use x="248.291016" xlink:href="#DejaVuSans-114"/>
      <use x="287.654297" xlink:href="#DejaVuSans-110"/>
      <use x="351.033203" xlink:href="#DejaVuSans-45"/>
      <use x="387.117188" xlink:href="#DejaVuSans-53"/>
      <use x="450.740234" xlink:href="#DejaVuSans-47"/>
      <use x="484.431641" xlink:href="#DejaVuSans-50"/>
     </g>
    </g>
    <g id="line2d_46">
     <path d="M 81 355.222188 
L 101 355.222188 
" style="fill:none;stroke:#8c564b;stroke-linecap:square;stroke-width:1.5;"/>
    </g>
    <g id="line2d_47"/>
    <g id="text_22">
     <!-- RQ -->
     <defs>
      <path d="M 39.40625 66.21875 
Q 28.65625 66.21875 22.328125 58.203125 
Q 16.015625 50.203125 16.015625 36.375 
Q 16.015625 22.609375 22.328125 14.59375 
Q 28.65625 6.59375 39.40625 6.59375 
Q 50.140625 6.59375 56.421875 14.59375 
Q 62.703125 22.609375 62.703125 36.375 
Q 62.703125 50.203125 56.421875 58.203125 
Q 50.140625 66.21875 39.40625 66.21875 
z
M 53.21875 1.3125 
L 66.21875 -12.890625 
L 54.296875 -12.890625 
L 43.5 -1.21875 
Q 41.890625 -1.3125 41.03125 -1.359375 
Q 40.1875 -1.421875 39.40625 -1.421875 
Q 24.03125 -1.421875 14.8125 8.859375 
Q 5.609375 19.140625 5.609375 36.375 
Q 5.609375 53.65625 14.8125 63.9375 
Q 24.03125 74.21875 39.40625 74.21875 
Q 54.734375 74.21875 63.90625 63.9375 
Q 73.09375 53.65625 73.09375 36.375 
Q 73.09375 23.6875 67.984375 14.640625 
Q 62.890625 5.609375 53.21875 1.3125 
z
" id="DejaVuSans-81"/>
     </defs>
     <g transform="translate(109 358.722188)scale(0.1 -0.1)">
      <use xlink:href="#DejaVuSans-82"/>
      <use x="69.482422" xlink:href="#DejaVuSans-81"/>
     </g>
    </g>
    <g id="line2d_48">
     <path d="M 81 369.900313 
L 101 369.900313 
" style="fill:none;stroke:#e377c2;stroke-linecap:square;stroke-width:1.5;"/>
    </g>
    <g id="line2d_49"/>
    <g id="text_23">
     <!-- Dot Prod. -->
     <defs>
      <path d="M 19.671875 64.796875 
L 19.671875 8.109375 
L 31.59375 8.109375 
Q 46.6875 8.109375 53.6875 14.9375 
Q 60.6875 21.78125 60.6875 36.53125 
Q 60.6875 51.171875 53.6875 57.984375 
Q 46.6875 64.796875 31.59375 64.796875 
z
M 9.8125 72.90625 
L 30.078125 72.90625 
Q 51.265625 72.90625 61.171875 64.09375 
Q 71.09375 55.28125 71.09375 36.53125 
Q 71.09375 17.671875 61.125 8.828125 
Q 51.171875 0 30.078125 0 
L 9.8125 0 
z
" id="DejaVuSans-68"/>
      <path d="M 19.671875 64.796875 
L 19.671875 37.40625 
L 32.078125 37.40625 
Q 38.96875 37.40625 42.71875 40.96875 
Q 46.484375 44.53125 46.484375 51.125 
Q 46.484375 57.671875 42.71875 61.234375 
Q 38.96875 64.796875 32.078125 64.796875 
z
M 9.8125 72.90625 
L 32.078125 72.90625 
Q 44.34375 72.90625 50.609375 67.359375 
Q 56.890625 61.8125 56.890625 51.125 
Q 56.890625 40.328125 50.609375 34.8125 
Q 44.34375 29.296875 32.078125 29.296875 
L 19.671875 29.296875 
L 19.671875 0 
L 9.8125 0 
z
" id="DejaVuSans-80"/>
      <path d="M 10.6875 12.40625 
L 21 12.40625 
L 21 0 
L 10.6875 0 
z
" id="DejaVuSans-46"/>
     </defs>
     <g transform="translate(109 373.400313)scale(0.1 -0.1)">
      <use xlink:href="#DejaVuSans-68"/>
      <use x="77.001953" xlink:href="#DejaVuSans-111"/>
      <use x="138.183594" xlink:href="#DejaVuSans-116"/>
      <use x="177.392578" xlink:href="#DejaVuSans-32"/>
      <use x="209.179688" xlink:href="#DejaVuSans-80"/>
      <use x="267.732422" xlink:href="#DejaVuSans-114"/>
      <use x="306.595703" xlink:href="#DejaVuSans-111"/>
      <use x="367.777344" xlink:href="#DejaVuSans-100"/>
      <use x="431.253906" xlink:href="#DejaVuSans-46"/>
     </g>
    </g>
   </g>
  </g>
 </g>
 <defs>
  <clipPath id="pa41efff7e8">
   <rect height="332.64" width="446.4" x="72" y="51.84"/>
  </clipPath>
 </defs>
</svg>
