<?xml version="1.0" encoding="utf-8" standalone="no"?>
<!DOCTYPE svg PUBLIC "-//W3C//DTD SVG 1.1//EN"
  "http://www.w3.org/Graphics/SVG/1.1/DTD/svg11.dtd">
<!-- Created with matplotlib (https://matplotlib.org/) -->
<svg height="288pt" version="1.1" viewBox="0 0 288 288" width="288pt" xmlns="http://www.w3.org/2000/svg" xmlns:xlink="http://www.w3.org/1999/xlink">
 <defs>
  <style type="text/css">
*{stroke-linecap:butt;stroke-linejoin:round;}
  </style>
 </defs>
 <g id="figure_1">
  <g id="patch_1">
   <path d="M 0 288 
L 288 288 
L 288 0 
L 0 0 
z
" style="fill:#ffffff;"/>
  </g>
  <g id="axes_1">
   <g id="patch_2">
    <path d="M 40.571161 259.665354 
L 285.165354 259.665354 
L 285.165354 2.834646 
L 40.571161 2.834646 
z
" style="fill:#ffffff;"/>
   </g>
   <g id="matplotlib.axis_1">
    <g id="xtick_1">
     <g id="line2d_1">
      <path clip-path="url(#pc6e1ebe8d5)" d="M 46.339892 259.665354 
L 46.339892 2.834646 
" style="fill:none;stroke:#000000;stroke-linecap:square;stroke-opacity:0.1;stroke-width:0.5;"/>
     </g>
     <g id="line2d_2">
      <defs>
       <path d="M 0 0 
L 0 -3.5 
" id="me9e8528324" style="stroke:#000000;stroke-width:0.8;"/>
      </defs>
      <g>
       <use style="stroke:#000000;stroke-width:0.8;" x="46.339892" xlink:href="#me9e8528324" y="259.665354"/>
      </g>
     </g>
     <g id="text_1">
      <!-- 0 -->
      <defs>
       <path d="M 31.78125 66.40625 
Q 24.171875 66.40625 20.328125 58.90625 
Q 16.5 51.421875 16.5 36.375 
Q 16.5 21.390625 20.328125 13.890625 
Q 24.171875 6.390625 31.78125 6.390625 
Q 39.453125 6.390625 43.28125 13.890625 
Q 47.125 21.390625 47.125 36.375 
Q 47.125 51.421875 43.28125 58.90625 
Q 39.453125 66.40625 31.78125 66.40625 
z
M 31.78125 74.21875 
Q 44.046875 74.21875 50.515625 64.515625 
Q 56.984375 54.828125 56.984375 36.375 
Q 56.984375 17.96875 50.515625 8.265625 
Q 44.046875 -1.421875 31.78125 -1.421875 
Q 19.53125 -1.421875 13.0625 8.265625 
Q 6.59375 17.96875 6.59375 36.375 
Q 6.59375 54.828125 13.0625 64.515625 
Q 19.53125 74.21875 31.78125 74.21875 
z
" id="DejaVuSans-48"/>
      </defs>
      <g transform="translate(43.794892 269.244104)scale(0.08 -0.08)">
       <use xlink:href="#DejaVuSans-48"/>
      </g>
     </g>
    </g>
    <g id="xtick_2">
     <g id="line2d_3">
      <path clip-path="url(#pc6e1ebe8d5)" d="M 104.027201 259.665354 
L 104.027201 2.834646 
" style="fill:none;stroke:#000000;stroke-linecap:square;stroke-opacity:0.1;stroke-width:0.5;"/>
     </g>
     <g id="line2d_4">
      <g>
       <use style="stroke:#000000;stroke-width:0.8;" x="104.027201" xlink:href="#me9e8528324" y="259.665354"/>
      </g>
     </g>
     <g id="text_2">
      <!-- 50 -->
      <defs>
       <path d="M 10.796875 72.90625 
L 49.515625 72.90625 
L 49.515625 64.59375 
L 19.828125 64.59375 
L 19.828125 46.734375 
Q 21.96875 47.46875 24.109375 47.828125 
Q 26.265625 48.1875 28.421875 48.1875 
Q 40.625 48.1875 47.75 41.5 
Q 54.890625 34.8125 54.890625 23.390625 
Q 54.890625 11.625 47.5625 5.09375 
Q 40.234375 -1.421875 26.90625 -1.421875 
Q 22.3125 -1.421875 17.546875 -0.640625 
Q 12.796875 0.140625 7.71875 1.703125 
L 7.71875 11.625 
Q 12.109375 9.234375 16.796875 8.0625 
Q 21.484375 6.890625 26.703125 6.890625 
Q 35.15625 6.890625 40.078125 11.328125 
Q 45.015625 15.765625 45.015625 23.390625 
Q 45.015625 31 40.078125 35.4375 
Q 35.15625 39.890625 26.703125 39.890625 
Q 22.75 39.890625 18.8125 39.015625 
Q 14.890625 38.140625 10.796875 36.28125 
z
" id="DejaVuSans-53"/>
      </defs>
      <g transform="translate(98.937201 269.244104)scale(0.08 -0.08)">
       <use xlink:href="#DejaVuSans-53"/>
       <use x="63.623047" xlink:href="#DejaVuSans-48"/>
      </g>
     </g>
    </g>
    <g id="xtick_3">
     <g id="line2d_5">
      <path clip-path="url(#pc6e1ebe8d5)" d="M 161.714511 259.665354 
L 161.714511 2.834646 
" style="fill:none;stroke:#000000;stroke-linecap:square;stroke-opacity:0.1;stroke-width:0.5;"/>
     </g>
     <g id="line2d_6">
      <g>
       <use style="stroke:#000000;stroke-width:0.8;" x="161.714511" xlink:href="#me9e8528324" y="259.665354"/>
      </g>
     </g>
     <g id="text_3">
      <!-- 100 -->
      <defs>
       <path d="M 12.40625 8.296875 
L 28.515625 8.296875 
L 28.515625 63.921875 
L 10.984375 60.40625 
L 10.984375 69.390625 
L 28.421875 72.90625 
L 38.28125 72.90625 
L 38.28125 8.296875 
L 54.390625 8.296875 
L 54.390625 0 
L 12.40625 0 
z
" id="DejaVuSans-49"/>
      </defs>
      <g transform="translate(154.079511 269.244104)scale(0.08 -0.08)">
       <use xlink:href="#DejaVuSans-49"/>
       <use x="63.623047" xlink:href="#DejaVuSans-48"/>
       <use x="127.246094" xlink:href="#DejaVuSans-48"/>
      </g>
     </g>
    </g>
    <g id="xtick_4">
     <g id="line2d_7">
      <path clip-path="url(#pc6e1ebe8d5)" d="M 219.401821 259.665354 
L 219.401821 2.834646 
" style="fill:none;stroke:#000000;stroke-linecap:square;stroke-opacity:0.1;stroke-width:0.5;"/>
     </g>
     <g id="line2d_8">
      <g>
       <use style="stroke:#000000;stroke-width:0.8;" x="219.401821" xlink:href="#me9e8528324" y="259.665354"/>
      </g>
     </g>
     <g id="text_4">
      <!-- 150 -->
      <g transform="translate(211.766821 269.244104)scale(0.08 -0.08)">
       <use xlink:href="#DejaVuSans-49"/>
       <use x="63.623047" xlink:href="#DejaVuSans-53"/>
       <use x="127.246094" xlink:href="#DejaVuSans-48"/>
      </g>
     </g>
    </g>
    <g id="xtick_5">
     <g id="line2d_9">
      <path clip-path="url(#pc6e1ebe8d5)" d="M 277.089131 259.665354 
L 277.089131 2.834646 
" style="fill:none;stroke:#000000;stroke-linecap:square;stroke-opacity:0.1;stroke-width:0.5;"/>
     </g>
     <g id="line2d_10">
      <g>
       <use style="stroke:#000000;stroke-width:0.8;" x="277.089131" xlink:href="#me9e8528324" y="259.665354"/>
      </g>
     </g>
     <g id="text_5">
      <!-- 200 -->
      <defs>
       <path d="M 19.1875 8.296875 
L 53.609375 8.296875 
L 53.609375 0 
L 7.328125 0 
L 7.328125 8.296875 
Q 12.9375 14.109375 22.625 23.890625 
Q 32.328125 33.6875 34.8125 36.53125 
Q 39.546875 41.84375 41.421875 45.53125 
Q 43.3125 49.21875 43.3125 52.78125 
Q 43.3125 58.59375 39.234375 62.25 
Q 35.15625 65.921875 28.609375 65.921875 
Q 23.96875 65.921875 18.8125 64.3125 
Q 13.671875 62.703125 7.8125 59.421875 
L 7.8125 69.390625 
Q 13.765625 71.78125 18.9375 73 
Q 24.125 74.21875 28.421875 74.21875 
Q 39.75 74.21875 46.484375 68.546875 
Q 53.21875 62.890625 53.21875 53.421875 
Q 53.21875 48.921875 51.53125 44.890625 
Q 49.859375 40.875 45.40625 35.40625 
Q 44.1875 33.984375 37.640625 27.21875 
Q 31.109375 20.453125 19.1875 8.296875 
z
" id="DejaVuSans-50"/>
      </defs>
      <g transform="translate(269.454131 269.244104)scale(0.08 -0.08)">
       <use xlink:href="#DejaVuSans-50"/>
       <use x="63.623047" xlink:href="#DejaVuSans-48"/>
       <use x="127.246094" xlink:href="#DejaVuSans-48"/>
      </g>
     </g>
    </g>
    <g id="text_6">
     <!-- Iteration -->
     <defs>
      <path d="M 9.8125 72.90625 
L 19.671875 72.90625 
L 19.671875 0 
L 9.8125 0 
z
" id="DejaVuSans-73"/>
      <path d="M 18.3125 70.21875 
L 18.3125 54.6875 
L 36.8125 54.6875 
L 36.8125 47.703125 
L 18.3125 47.703125 
L 18.3125 18.015625 
Q 18.3125 11.328125 20.140625 9.421875 
Q 21.96875 7.515625 27.59375 7.515625 
L 36.8125 7.515625 
L 36.8125 0 
L 27.59375 0 
Q 17.1875 0 13.234375 3.875 
Q 9.28125 7.765625 9.28125 18.015625 
L 9.28125 47.703125 
L 2.6875 47.703125 
L 2.6875 54.6875 
L 9.28125 54.6875 
L 9.28125 70.21875 
z
" id="DejaVuSans-116"/>
      <path d="M 56.203125 29.59375 
L 56.203125 25.203125 
L 14.890625 25.203125 
Q 15.484375 15.921875 20.484375 11.0625 
Q 25.484375 6.203125 34.421875 6.203125 
Q 39.59375 6.203125 44.453125 7.46875 
Q 49.3125 8.734375 54.109375 11.28125 
L 54.109375 2.78125 
Q 49.265625 0.734375 44.1875 -0.34375 
Q 39.109375 -1.421875 33.890625 -1.421875 
Q 20.796875 -1.421875 13.15625 6.1875 
Q 5.515625 13.8125 5.515625 26.8125 
Q 5.515625 40.234375 12.765625 48.109375 
Q 20.015625 56 32.328125 56 
Q 43.359375 56 49.78125 48.890625 
Q 56.203125 41.796875 56.203125 29.59375 
z
M 47.21875 32.234375 
Q 47.125 39.59375 43.09375 43.984375 
Q 39.0625 48.390625 32.421875 48.390625 
Q 24.90625 48.390625 20.390625 44.140625 
Q 15.875 39.890625 15.1875 32.171875 
z
" id="DejaVuSans-101"/>
      <path d="M 41.109375 46.296875 
Q 39.59375 47.171875 37.8125 47.578125 
Q 36.03125 48 33.890625 48 
Q 26.265625 48 22.1875 43.046875 
Q 18.109375 38.09375 18.109375 28.8125 
L 18.109375 0 
L 9.078125 0 
L 9.078125 54.6875 
L 18.109375 54.6875 
L 18.109375 46.1875 
Q 20.953125 51.171875 25.484375 53.578125 
Q 30.03125 56 36.53125 56 
Q 37.453125 56 38.578125 55.875 
Q 39.703125 55.765625 41.0625 55.515625 
z
" id="DejaVuSans-114"/>
      <path d="M 34.28125 27.484375 
Q 23.390625 27.484375 19.1875 25 
Q 14.984375 22.515625 14.984375 16.5 
Q 14.984375 11.71875 18.140625 8.90625 
Q 21.296875 6.109375 26.703125 6.109375 
Q 34.1875 6.109375 38.703125 11.40625 
Q 43.21875 16.703125 43.21875 25.484375 
L 43.21875 27.484375 
z
M 52.203125 31.203125 
L 52.203125 0 
L 43.21875 0 
L 43.21875 8.296875 
Q 40.140625 3.328125 35.546875 0.953125 
Q 30.953125 -1.421875 24.3125 -1.421875 
Q 15.921875 -1.421875 10.953125 3.296875 
Q 6 8.015625 6 15.921875 
Q 6 25.140625 12.171875 29.828125 
Q 18.359375 34.515625 30.609375 34.515625 
L 43.21875 34.515625 
L 43.21875 35.40625 
Q 43.21875 41.609375 39.140625 45 
Q 35.0625 48.390625 27.6875 48.390625 
Q 23 48.390625 18.546875 47.265625 
Q 14.109375 46.140625 10.015625 43.890625 
L 10.015625 52.203125 
Q 14.9375 54.109375 19.578125 55.046875 
Q 24.21875 56 28.609375 56 
Q 40.484375 56 46.34375 49.84375 
Q 52.203125 43.703125 52.203125 31.203125 
z
" id="DejaVuSans-97"/>
      <path d="M 9.421875 54.6875 
L 18.40625 54.6875 
L 18.40625 0 
L 9.421875 0 
z
M 9.421875 75.984375 
L 18.40625 75.984375 
L 18.40625 64.59375 
L 9.421875 64.59375 
z
" id="DejaVuSans-105"/>
      <path d="M 30.609375 48.390625 
Q 23.390625 48.390625 19.1875 42.75 
Q 14.984375 37.109375 14.984375 27.296875 
Q 14.984375 17.484375 19.15625 11.84375 
Q 23.34375 6.203125 30.609375 6.203125 
Q 37.796875 6.203125 41.984375 11.859375 
Q 46.1875 17.53125 46.1875 27.296875 
Q 46.1875 37.015625 41.984375 42.703125 
Q 37.796875 48.390625 30.609375 48.390625 
z
M 30.609375 56 
Q 42.328125 56 49.015625 48.375 
Q 55.71875 40.765625 55.71875 27.296875 
Q 55.71875 13.875 49.015625 6.21875 
Q 42.328125 -1.421875 30.609375 -1.421875 
Q 18.84375 -1.421875 12.171875 6.21875 
Q 5.515625 13.875 5.515625 27.296875 
Q 5.515625 40.765625 12.171875 48.375 
Q 18.84375 56 30.609375 56 
z
" id="DejaVuSans-111"/>
      <path d="M 54.890625 33.015625 
L 54.890625 0 
L 45.90625 0 
L 45.90625 32.71875 
Q 45.90625 40.484375 42.875 44.328125 
Q 39.84375 48.1875 33.796875 48.1875 
Q 26.515625 48.1875 22.3125 43.546875 
Q 18.109375 38.921875 18.109375 30.90625 
L 18.109375 0 
L 9.078125 0 
L 9.078125 54.6875 
L 18.109375 54.6875 
L 18.109375 46.1875 
Q 21.34375 51.125 25.703125 53.5625 
Q 30.078125 56 35.796875 56 
Q 45.21875 56 50.046875 50.171875 
Q 54.890625 44.34375 54.890625 33.015625 
z
" id="DejaVuSans-110"/>
     </defs>
     <g transform="translate(139.538804 283.266136)scale(0.11 -0.11)">
      <use xlink:href="#DejaVuSans-73"/>
      <use x="29.492188" xlink:href="#DejaVuSans-116"/>
      <use x="68.701172" xlink:href="#DejaVuSans-101"/>
      <use x="130.224609" xlink:href="#DejaVuSans-114"/>
      <use x="171.337891" xlink:href="#DejaVuSans-97"/>
      <use x="232.617188" xlink:href="#DejaVuSans-116"/>
      <use x="271.826172" xlink:href="#DejaVuSans-105"/>
      <use x="299.609375" xlink:href="#DejaVuSans-111"/>
      <use x="360.791016" xlink:href="#DejaVuSans-110"/>
     </g>
    </g>
   </g>
   <g id="matplotlib.axis_2">
    <g id="ytick_1">
     <g id="line2d_11">
      <path clip-path="url(#pc6e1ebe8d5)" d="M 40.571161 218.068242 
L 285.165354 218.068242 
" style="fill:none;stroke:#000000;stroke-linecap:square;stroke-opacity:0.1;stroke-width:0.5;"/>
     </g>
     <g id="line2d_12">
      <defs>
       <path d="M 0 0 
L 3.5 0 
" id="mc0e51eeb3f" style="stroke:#000000;stroke-width:0.8;"/>
      </defs>
      <g>
       <use style="stroke:#000000;stroke-width:0.8;" x="40.571161" xlink:href="#mc0e51eeb3f" y="218.068242"/>
      </g>
     </g>
     <g id="text_7">
      <!-- $10^{-1}$ -->
      <defs>
       <path d="M 10.59375 35.5 
L 73.1875 35.5 
L 73.1875 27.203125 
L 10.59375 27.203125 
z
" id="DejaVuSans-8722"/>
      </defs>
      <g transform="translate(18.271161 221.107617)scale(0.08 -0.08)">
       <use transform="translate(0 0.684375)" xlink:href="#DejaVuSans-49"/>
       <use transform="translate(63.623047 0.684375)" xlink:href="#DejaVuSans-48"/>
       <use transform="translate(128.203125 38.965625)scale(0.7)" xlink:href="#DejaVuSans-8722"/>
       <use transform="translate(186.855469 38.965625)scale(0.7)" xlink:href="#DejaVuSans-49"/>
      </g>
     </g>
    </g>
    <g id="ytick_2">
     <g id="line2d_13">
      <path clip-path="url(#pc6e1ebe8d5)" d="M 40.571161 163.276646 
L 285.165354 163.276646 
" style="fill:none;stroke:#000000;stroke-linecap:square;stroke-opacity:0.1;stroke-width:0.5;"/>
     </g>
     <g id="line2d_14">
      <g>
       <use style="stroke:#000000;stroke-width:0.8;" x="40.571161" xlink:href="#mc0e51eeb3f" y="163.276646"/>
      </g>
     </g>
     <g id="text_8">
      <!-- $10^{0}$ -->
      <g transform="translate(22.991161 166.316021)scale(0.08 -0.08)">
       <use transform="translate(0 0.765625)" xlink:href="#DejaVuSans-49"/>
       <use transform="translate(63.623047 0.765625)" xlink:href="#DejaVuSans-48"/>
       <use transform="translate(128.203125 39.046875)scale(0.7)" xlink:href="#DejaVuSans-48"/>
      </g>
     </g>
    </g>
    <g id="ytick_3">
     <g id="line2d_15">
      <path clip-path="url(#pc6e1ebe8d5)" d="M 40.571161 108.48505 
L 285.165354 108.48505 
" style="fill:none;stroke:#000000;stroke-linecap:square;stroke-opacity:0.1;stroke-width:0.5;"/>
     </g>
     <g id="line2d_16">
      <g>
       <use style="stroke:#000000;stroke-width:0.8;" x="40.571161" xlink:href="#mc0e51eeb3f" y="108.48505"/>
      </g>
     </g>
     <g id="text_9">
      <!-- $10^{1}$ -->
      <g transform="translate(22.991161 111.524425)scale(0.08 -0.08)">
       <use transform="translate(0 0.684375)" xlink:href="#DejaVuSans-49"/>
       <use transform="translate(63.623047 0.684375)" xlink:href="#DejaVuSans-48"/>
       <use transform="translate(128.203125 38.965625)scale(0.7)" xlink:href="#DejaVuSans-49"/>
      </g>
     </g>
    </g>
    <g id="ytick_4">
     <g id="line2d_17">
      <path clip-path="url(#pc6e1ebe8d5)" d="M 40.571161 53.693454 
L 285.165354 53.693454 
" style="fill:none;stroke:#000000;stroke-linecap:square;stroke-opacity:0.1;stroke-width:0.5;"/>
     </g>
     <g id="line2d_18">
      <g>
       <use style="stroke:#000000;stroke-width:0.8;" x="40.571161" xlink:href="#mc0e51eeb3f" y="53.693454"/>
      </g>
     </g>
     <g id="text_10">
      <!-- $10^{2}$ -->
      <g transform="translate(22.991161 56.732829)scale(0.08 -0.08)">
       <use transform="translate(0 0.765625)" xlink:href="#DejaVuSans-49"/>
       <use transform="translate(63.623047 0.765625)" xlink:href="#DejaVuSans-48"/>
       <use transform="translate(128.203125 39.046875)scale(0.7)" xlink:href="#DejaVuSans-50"/>
      </g>
     </g>
    </g>
    <g id="text_11">
     <!-- Absolute Error -->
     <defs>
      <path d="M 34.1875 63.1875 
L 20.796875 26.90625 
L 47.609375 26.90625 
z
M 28.609375 72.90625 
L 39.796875 72.90625 
L 67.578125 0 
L 57.328125 0 
L 50.6875 18.703125 
L 17.828125 18.703125 
L 11.1875 0 
L 0.78125 0 
z
" id="DejaVuSans-65"/>
      <path d="M 48.6875 27.296875 
Q 48.6875 37.203125 44.609375 42.84375 
Q 40.53125 48.484375 33.40625 48.484375 
Q 26.265625 48.484375 22.1875 42.84375 
Q 18.109375 37.203125 18.109375 27.296875 
Q 18.109375 17.390625 22.1875 11.75 
Q 26.265625 6.109375 33.40625 6.109375 
Q 40.53125 6.109375 44.609375 11.75 
Q 48.6875 17.390625 48.6875 27.296875 
z
M 18.109375 46.390625 
Q 20.953125 51.265625 25.265625 53.625 
Q 29.59375 56 35.59375 56 
Q 45.5625 56 51.78125 48.09375 
Q 58.015625 40.1875 58.015625 27.296875 
Q 58.015625 14.40625 51.78125 6.484375 
Q 45.5625 -1.421875 35.59375 -1.421875 
Q 29.59375 -1.421875 25.265625 0.953125 
Q 20.953125 3.328125 18.109375 8.203125 
L 18.109375 0 
L 9.078125 0 
L 9.078125 75.984375 
L 18.109375 75.984375 
z
" id="DejaVuSans-98"/>
      <path d="M 44.28125 53.078125 
L 44.28125 44.578125 
Q 40.484375 46.53125 36.375 47.5 
Q 32.28125 48.484375 27.875 48.484375 
Q 21.1875 48.484375 17.84375 46.4375 
Q 14.5 44.390625 14.5 40.28125 
Q 14.5 37.15625 16.890625 35.375 
Q 19.28125 33.59375 26.515625 31.984375 
L 29.59375 31.296875 
Q 39.15625 29.25 43.1875 25.515625 
Q 47.21875 21.78125 47.21875 15.09375 
Q 47.21875 7.46875 41.1875 3.015625 
Q 35.15625 -1.421875 24.609375 -1.421875 
Q 20.21875 -1.421875 15.453125 -0.5625 
Q 10.6875 0.296875 5.421875 2 
L 5.421875 11.28125 
Q 10.40625 8.6875 15.234375 7.390625 
Q 20.0625 6.109375 24.8125 6.109375 
Q 31.15625 6.109375 34.5625 8.28125 
Q 37.984375 10.453125 37.984375 14.40625 
Q 37.984375 18.0625 35.515625 20.015625 
Q 33.0625 21.96875 24.703125 23.78125 
L 21.578125 24.515625 
Q 13.234375 26.265625 9.515625 29.90625 
Q 5.8125 33.546875 5.8125 39.890625 
Q 5.8125 47.609375 11.28125 51.796875 
Q 16.75 56 26.8125 56 
Q 31.78125 56 36.171875 55.265625 
Q 40.578125 54.546875 44.28125 53.078125 
z
" id="DejaVuSans-115"/>
      <path d="M 9.421875 75.984375 
L 18.40625 75.984375 
L 18.40625 0 
L 9.421875 0 
z
" id="DejaVuSans-108"/>
      <path d="M 8.5 21.578125 
L 8.5 54.6875 
L 17.484375 54.6875 
L 17.484375 21.921875 
Q 17.484375 14.15625 20.5 10.265625 
Q 23.53125 6.390625 29.59375 6.390625 
Q 36.859375 6.390625 41.078125 11.03125 
Q 45.3125 15.671875 45.3125 23.6875 
L 45.3125 54.6875 
L 54.296875 54.6875 
L 54.296875 0 
L 45.3125 0 
L 45.3125 8.40625 
Q 42.046875 3.421875 37.71875 1 
Q 33.40625 -1.421875 27.6875 -1.421875 
Q 18.265625 -1.421875 13.375 4.4375 
Q 8.5 10.296875 8.5 21.578125 
z
M 31.109375 56 
z
" id="DejaVuSans-117"/>
      <path id="DejaVuSans-32"/>
      <path d="M 9.8125 72.90625 
L 55.90625 72.90625 
L 55.90625 64.59375 
L 19.671875 64.59375 
L 19.671875 43.015625 
L 54.390625 43.015625 
L 54.390625 34.71875 
L 19.671875 34.71875 
L 19.671875 8.296875 
L 56.78125 8.296875 
L 56.78125 0 
L 9.8125 0 
z
" id="DejaVuSans-69"/>
     </defs>
     <g transform="translate(11.983504 170.6575)rotate(-90)scale(0.11 -0.11)">
      <use xlink:href="#DejaVuSans-65"/>
      <use x="68.408203" xlink:href="#DejaVuSans-98"/>
      <use x="131.884766" xlink:href="#DejaVuSans-115"/>
      <use x="183.984375" xlink:href="#DejaVuSans-111"/>
      <use x="245.166016" xlink:href="#DejaVuSans-108"/>
      <use x="272.949219" xlink:href="#DejaVuSans-117"/>
      <use x="336.328125" xlink:href="#DejaVuSans-116"/>
      <use x="375.537109" xlink:href="#DejaVuSans-101"/>
      <use x="437.060547" xlink:href="#DejaVuSans-32"/>
      <use x="468.847656" xlink:href="#DejaVuSans-69"/>
      <use x="532.03125" xlink:href="#DejaVuSans-114"/>
      <use x="573.128906" xlink:href="#DejaVuSans-114"/>
      <use x="614.210938" xlink:href="#DejaVuSans-111"/>
      <use x="675.392578" xlink:href="#DejaVuSans-114"/>
     </g>
    </g>
   </g>
   <g id="line2d_19">
    <path clip-path="url(#pc6e1ebe8d5)" d="M 47.493638 78.509024 
L 49.80113 131.583163 
L 52.108623 160.76991 
L 54.416115 160.7804 
L 56.723607 166.488063 
L 59.0311 192.995731 
L 61.338592 192.340191 
L 63.646085 190.604016 
L 65.953577 194.056693 
L 68.261069 197.638801 
L 70.568562 199.899782 
L 72.876054 201.281604 
L 75.183546 202.301141 
L 77.491039 203.231607 
L 79.798531 204.166214 
L 82.106024 205.125069 
L 84.413516 206.098991 
L 86.721008 207.041944 
L 89.028501 207.969925 
L 91.335993 208.930304 
L 93.643486 209.898352 
L 95.950978 210.87218 
L 98.25847 211.858655 
L 100.565963 212.85394 
L 102.873455 213.856315 
L 105.180948 214.866755 
L 107.48844 215.882259 
L 109.795932 216.881282 
L 112.103425 217.593592 
L 114.410917 213.620924 
L 116.71841 174.545064 
L 119.025902 127.752406 
L 121.333394 161.835037 
L 123.640887 208.931682 
L 125.948379 183.114862 
L 128.255872 181.712884 
L 130.563364 191.914505 
L 132.870856 203.330119 
L 135.178349 210.444006 
L 137.485841 210.375895 
L 139.793334 210.297706 
L 142.100826 212.735322 
L 144.408318 214.347154 
L 146.715811 215.048808 
L 149.023303 216.37699 
L 151.330795 217.390679 
L 153.638288 218.479045 
L 155.94578 219.527826 
L 158.253273 220.606644 
L 160.560765 221.652121 
L 162.868257 222.719007 
L 165.17575 223.787365 
L 167.483242 224.854455 
L 169.790735 225.923749 
L 172.098227 226.995453 
L 174.405719 228.06414 
L 176.713212 229.078593 
L 179.020704 229.436909 
L 181.328197 221.869772 
L 183.635689 178.929431 
L 185.943181 127.68387 
L 188.250674 205.61998 
L 190.558166 142.254407 
L 192.865659 148.893716 
L 195.173151 167.938866 
L 197.480643 183.211873 
L 199.788136 197.339788 
L 202.095628 207.222235 
L 204.403121 211.171932 
L 206.710613 212.205338 
L 209.018105 212.455014 
L 211.325598 213.132627 
L 213.63309 214.382056 
L 215.940583 215.785213 
L 218.248075 216.92885 
L 220.555567 217.869853 
L 222.86306 218.839701 
L 225.170552 219.863564 
L 227.478044 220.858699 
L 229.785537 221.842107 
L 232.093029 222.839536 
L 234.400522 223.832114 
L 236.708014 224.827524 
L 239.015506 225.825239 
L 241.322999 226.824534 
L 243.630491 227.826656 
L 245.937984 228.831259 
L 248.245476 229.83857 
L 250.552968 230.848891 
L 252.860461 231.862242 
L 255.167953 232.878844 
L 257.475446 233.898853 
L 259.782938 234.922406 
L 262.09043 235.949643 
L 264.397923 236.980694 
L 266.705415 238.015614 
L 269.012908 239.053959 
L 271.3204 240.091029 
L 273.627892 241.07798 
L 275.935385 241.421613 
L 278.242877 234.100182 
" style="fill:none;stroke:#424242;stroke-linecap:round;"/>
   </g>
   <g id="PathCollection_1">
    <defs>
     <path d="M -0.382683 -0.92388 
L -0.92388 -0.382683 
L -0.92388 0.382683 
L -0.382683 0.92388 
L 0.382683 0.92388 
L 0.92388 0.382683 
L 0.92388 -0.382683 
L 0.382683 -0.92388 
z
" id="ma2f29c481c" style="stroke:#424242;"/>
    </defs>
    <g clip-path="url(#pc6e1ebe8d5)">
     <use style="fill:#ffffff;stroke:#424242;" x="47.493638" xlink:href="#ma2f29c481c" y="78.509024"/>
     <use style="fill:#ffffff;stroke:#424242;" x="49.80113" xlink:href="#ma2f29c481c" y="131.583163"/>
     <use style="fill:#ffffff;stroke:#424242;" x="52.108623" xlink:href="#ma2f29c481c" y="160.76991"/>
     <use style="fill:#ffffff;stroke:#424242;" x="54.416115" xlink:href="#ma2f29c481c" y="160.7804"/>
     <use style="fill:#ffffff;stroke:#424242;" x="56.723607" xlink:href="#ma2f29c481c" y="166.488063"/>
     <use style="fill:#ffffff;stroke:#424242;" x="59.0311" xlink:href="#ma2f29c481c" y="192.995731"/>
     <use style="fill:#ffffff;stroke:#424242;" x="61.338592" xlink:href="#ma2f29c481c" y="192.340191"/>
     <use style="fill:#ffffff;stroke:#424242;" x="63.646085" xlink:href="#ma2f29c481c" y="190.604016"/>
     <use style="fill:#ffffff;stroke:#424242;" x="65.953577" xlink:href="#ma2f29c481c" y="194.056693"/>
     <use style="fill:#ffffff;stroke:#424242;" x="68.261069" xlink:href="#ma2f29c481c" y="197.638801"/>
     <use style="fill:#ffffff;stroke:#424242;" x="70.568562" xlink:href="#ma2f29c481c" y="199.899782"/>
     <use style="fill:#ffffff;stroke:#424242;" x="72.876054" xlink:href="#ma2f29c481c" y="201.281604"/>
     <use style="fill:#ffffff;stroke:#424242;" x="75.183546" xlink:href="#ma2f29c481c" y="202.301141"/>
     <use style="fill:#ffffff;stroke:#424242;" x="77.491039" xlink:href="#ma2f29c481c" y="203.231607"/>
     <use style="fill:#ffffff;stroke:#424242;" x="79.798531" xlink:href="#ma2f29c481c" y="204.166214"/>
     <use style="fill:#ffffff;stroke:#424242;" x="82.106024" xlink:href="#ma2f29c481c" y="205.125069"/>
     <use style="fill:#ffffff;stroke:#424242;" x="84.413516" xlink:href="#ma2f29c481c" y="206.098991"/>
     <use style="fill:#ffffff;stroke:#424242;" x="86.721008" xlink:href="#ma2f29c481c" y="207.041944"/>
     <use style="fill:#ffffff;stroke:#424242;" x="89.028501" xlink:href="#ma2f29c481c" y="207.969925"/>
     <use style="fill:#ffffff;stroke:#424242;" x="91.335993" xlink:href="#ma2f29c481c" y="208.930304"/>
     <use style="fill:#ffffff;stroke:#424242;" x="93.643486" xlink:href="#ma2f29c481c" y="209.898352"/>
     <use style="fill:#ffffff;stroke:#424242;" x="95.950978" xlink:href="#ma2f29c481c" y="210.87218"/>
     <use style="fill:#ffffff;stroke:#424242;" x="98.25847" xlink:href="#ma2f29c481c" y="211.858655"/>
     <use style="fill:#ffffff;stroke:#424242;" x="100.565963" xlink:href="#ma2f29c481c" y="212.85394"/>
     <use style="fill:#ffffff;stroke:#424242;" x="102.873455" xlink:href="#ma2f29c481c" y="213.856315"/>
     <use style="fill:#ffffff;stroke:#424242;" x="105.180948" xlink:href="#ma2f29c481c" y="214.866755"/>
     <use style="fill:#ffffff;stroke:#424242;" x="107.48844" xlink:href="#ma2f29c481c" y="215.882259"/>
     <use style="fill:#ffffff;stroke:#424242;" x="109.795932" xlink:href="#ma2f29c481c" y="216.881282"/>
     <use style="fill:#ffffff;stroke:#424242;" x="112.103425" xlink:href="#ma2f29c481c" y="217.593592"/>
     <use style="fill:#ffffff;stroke:#424242;" x="114.410917" xlink:href="#ma2f29c481c" y="213.620924"/>
     <use style="fill:#ffffff;stroke:#424242;" x="116.71841" xlink:href="#ma2f29c481c" y="174.545064"/>
     <use style="fill:#ffffff;stroke:#424242;" x="119.025902" xlink:href="#ma2f29c481c" y="127.752406"/>
     <use style="fill:#ffffff;stroke:#424242;" x="121.333394" xlink:href="#ma2f29c481c" y="161.835037"/>
     <use style="fill:#ffffff;stroke:#424242;" x="123.640887" xlink:href="#ma2f29c481c" y="208.931682"/>
     <use style="fill:#ffffff;stroke:#424242;" x="125.948379" xlink:href="#ma2f29c481c" y="183.114862"/>
     <use style="fill:#ffffff;stroke:#424242;" x="128.255872" xlink:href="#ma2f29c481c" y="181.712884"/>
     <use style="fill:#ffffff;stroke:#424242;" x="130.563364" xlink:href="#ma2f29c481c" y="191.914505"/>
     <use style="fill:#ffffff;stroke:#424242;" x="132.870856" xlink:href="#ma2f29c481c" y="203.330119"/>
     <use style="fill:#ffffff;stroke:#424242;" x="135.178349" xlink:href="#ma2f29c481c" y="210.444006"/>
     <use style="fill:#ffffff;stroke:#424242;" x="137.485841" xlink:href="#ma2f29c481c" y="210.375895"/>
     <use style="fill:#ffffff;stroke:#424242;" x="139.793334" xlink:href="#ma2f29c481c" y="210.297706"/>
     <use style="fill:#ffffff;stroke:#424242;" x="142.100826" xlink:href="#ma2f29c481c" y="212.735322"/>
     <use style="fill:#ffffff;stroke:#424242;" x="144.408318" xlink:href="#ma2f29c481c" y="214.347154"/>
     <use style="fill:#ffffff;stroke:#424242;" x="146.715811" xlink:href="#ma2f29c481c" y="215.048808"/>
     <use style="fill:#ffffff;stroke:#424242;" x="149.023303" xlink:href="#ma2f29c481c" y="216.37699"/>
     <use style="fill:#ffffff;stroke:#424242;" x="151.330795" xlink:href="#ma2f29c481c" y="217.390679"/>
     <use style="fill:#ffffff;stroke:#424242;" x="153.638288" xlink:href="#ma2f29c481c" y="218.479045"/>
     <use style="fill:#ffffff;stroke:#424242;" x="155.94578" xlink:href="#ma2f29c481c" y="219.527826"/>
     <use style="fill:#ffffff;stroke:#424242;" x="158.253273" xlink:href="#ma2f29c481c" y="220.606644"/>
     <use style="fill:#ffffff;stroke:#424242;" x="160.560765" xlink:href="#ma2f29c481c" y="221.652121"/>
     <use style="fill:#ffffff;stroke:#424242;" x="162.868257" xlink:href="#ma2f29c481c" y="222.719007"/>
     <use style="fill:#ffffff;stroke:#424242;" x="165.17575" xlink:href="#ma2f29c481c" y="223.787365"/>
     <use style="fill:#ffffff;stroke:#424242;" x="167.483242" xlink:href="#ma2f29c481c" y="224.854455"/>
     <use style="fill:#ffffff;stroke:#424242;" x="169.790735" xlink:href="#ma2f29c481c" y="225.923749"/>
     <use style="fill:#ffffff;stroke:#424242;" x="172.098227" xlink:href="#ma2f29c481c" y="226.995453"/>
     <use style="fill:#ffffff;stroke:#424242;" x="174.405719" xlink:href="#ma2f29c481c" y="228.06414"/>
     <use style="fill:#ffffff;stroke:#424242;" x="176.713212" xlink:href="#ma2f29c481c" y="229.078593"/>
     <use style="fill:#ffffff;stroke:#424242;" x="179.020704" xlink:href="#ma2f29c481c" y="229.436909"/>
     <use style="fill:#ffffff;stroke:#424242;" x="181.328197" xlink:href="#ma2f29c481c" y="221.869772"/>
     <use style="fill:#ffffff;stroke:#424242;" x="183.635689" xlink:href="#ma2f29c481c" y="178.929431"/>
     <use style="fill:#ffffff;stroke:#424242;" x="185.943181" xlink:href="#ma2f29c481c" y="127.68387"/>
     <use style="fill:#ffffff;stroke:#424242;" x="188.250674" xlink:href="#ma2f29c481c" y="205.61998"/>
     <use style="fill:#ffffff;stroke:#424242;" x="190.558166" xlink:href="#ma2f29c481c" y="142.254407"/>
     <use style="fill:#ffffff;stroke:#424242;" x="192.865659" xlink:href="#ma2f29c481c" y="148.893716"/>
     <use style="fill:#ffffff;stroke:#424242;" x="195.173151" xlink:href="#ma2f29c481c" y="167.938866"/>
     <use style="fill:#ffffff;stroke:#424242;" x="197.480643" xlink:href="#ma2f29c481c" y="183.211873"/>
     <use style="fill:#ffffff;stroke:#424242;" x="199.788136" xlink:href="#ma2f29c481c" y="197.339788"/>
     <use style="fill:#ffffff;stroke:#424242;" x="202.095628" xlink:href="#ma2f29c481c" y="207.222235"/>
     <use style="fill:#ffffff;stroke:#424242;" x="204.403121" xlink:href="#ma2f29c481c" y="211.171932"/>
     <use style="fill:#ffffff;stroke:#424242;" x="206.710613" xlink:href="#ma2f29c481c" y="212.205338"/>
     <use style="fill:#ffffff;stroke:#424242;" x="209.018105" xlink:href="#ma2f29c481c" y="212.455014"/>
     <use style="fill:#ffffff;stroke:#424242;" x="211.325598" xlink:href="#ma2f29c481c" y="213.132627"/>
     <use style="fill:#ffffff;stroke:#424242;" x="213.63309" xlink:href="#ma2f29c481c" y="214.382056"/>
     <use style="fill:#ffffff;stroke:#424242;" x="215.940583" xlink:href="#ma2f29c481c" y="215.785213"/>
     <use style="fill:#ffffff;stroke:#424242;" x="218.248075" xlink:href="#ma2f29c481c" y="216.92885"/>
     <use style="fill:#ffffff;stroke:#424242;" x="220.555567" xlink:href="#ma2f29c481c" y="217.869853"/>
     <use style="fill:#ffffff;stroke:#424242;" x="222.86306" xlink:href="#ma2f29c481c" y="218.839701"/>
     <use style="fill:#ffffff;stroke:#424242;" x="225.170552" xlink:href="#ma2f29c481c" y="219.863564"/>
     <use style="fill:#ffffff;stroke:#424242;" x="227.478044" xlink:href="#ma2f29c481c" y="220.858699"/>
     <use style="fill:#ffffff;stroke:#424242;" x="229.785537" xlink:href="#ma2f29c481c" y="221.842107"/>
     <use style="fill:#ffffff;stroke:#424242;" x="232.093029" xlink:href="#ma2f29c481c" y="222.839536"/>
     <use style="fill:#ffffff;stroke:#424242;" x="234.400522" xlink:href="#ma2f29c481c" y="223.832114"/>
     <use style="fill:#ffffff;stroke:#424242;" x="236.708014" xlink:href="#ma2f29c481c" y="224.827524"/>
     <use style="fill:#ffffff;stroke:#424242;" x="239.015506" xlink:href="#ma2f29c481c" y="225.825239"/>
     <use style="fill:#ffffff;stroke:#424242;" x="241.322999" xlink:href="#ma2f29c481c" y="226.824534"/>
     <use style="fill:#ffffff;stroke:#424242;" x="243.630491" xlink:href="#ma2f29c481c" y="227.826656"/>
     <use style="fill:#ffffff;stroke:#424242;" x="245.937984" xlink:href="#ma2f29c481c" y="228.831259"/>
     <use style="fill:#ffffff;stroke:#424242;" x="248.245476" xlink:href="#ma2f29c481c" y="229.83857"/>
     <use style="fill:#ffffff;stroke:#424242;" x="250.552968" xlink:href="#ma2f29c481c" y="230.848891"/>
     <use style="fill:#ffffff;stroke:#424242;" x="252.860461" xlink:href="#ma2f29c481c" y="231.862242"/>
     <use style="fill:#ffffff;stroke:#424242;" x="255.167953" xlink:href="#ma2f29c481c" y="232.878844"/>
     <use style="fill:#ffffff;stroke:#424242;" x="257.475446" xlink:href="#ma2f29c481c" y="233.898853"/>
     <use style="fill:#ffffff;stroke:#424242;" x="259.782938" xlink:href="#ma2f29c481c" y="234.922406"/>
     <use style="fill:#ffffff;stroke:#424242;" x="262.09043" xlink:href="#ma2f29c481c" y="235.949643"/>
     <use style="fill:#ffffff;stroke:#424242;" x="264.397923" xlink:href="#ma2f29c481c" y="236.980694"/>
     <use style="fill:#ffffff;stroke:#424242;" x="266.705415" xlink:href="#ma2f29c481c" y="238.015614"/>
     <use style="fill:#ffffff;stroke:#424242;" x="269.012908" xlink:href="#ma2f29c481c" y="239.053959"/>
     <use style="fill:#ffffff;stroke:#424242;" x="271.3204" xlink:href="#ma2f29c481c" y="240.091029"/>
     <use style="fill:#ffffff;stroke:#424242;" x="273.627892" xlink:href="#ma2f29c481c" y="241.07798"/>
     <use style="fill:#ffffff;stroke:#424242;" x="275.935385" xlink:href="#ma2f29c481c" y="241.421613"/>
     <use style="fill:#ffffff;stroke:#424242;" x="278.242877" xlink:href="#ma2f29c481c" y="234.100182"/>
    </g>
   </g>
   <g id="line2d_20">
    <path clip-path="url(#pc6e1ebe8d5)" d="M 47.493638 99.14769 
L 49.80113 106.744057 
L 52.108623 114.850573 
L 54.416115 128.871176 
L 56.723607 126.92008 
L 59.0311 126.931959 
L 61.338592 129.351309 
L 63.646085 130.321924 
L 65.953577 130.432549 
L 68.261069 130.623694 
L 70.568562 130.942703 
L 72.876054 131.280645 
L 75.183546 131.601656 
L 77.491039 131.91924 
L 79.798531 132.24623 
L 82.106024 132.589597 
L 84.413516 132.952598 
L 86.721008 133.336059 
L 89.028501 133.741511 
L 91.335993 134.169459 
L 93.643486 134.621487 
L 95.950978 135.098494 
L 98.25847 135.602209 
L 100.565963 136.133961 
L 102.873455 136.695697 
L 105.180948 137.289187 
L 107.48844 137.916694 
L 109.795932 138.58047 
L 112.103425 139.283188 
L 114.410917 140.027633 
L 116.71841 140.816975 
L 119.025902 141.654581 
L 121.333394 142.544165 
L 123.640887 143.489677 
L 125.948379 144.495342 
L 128.255872 145.565566 
L 130.563364 146.704858 
L 132.870856 147.917691 
L 135.178349 149.208283 
L 137.485841 150.580336 
L 139.793334 152.036666 
L 142.100826 153.578801 
L 144.408318 155.206529 
L 146.715811 156.917495 
L 149.023303 158.706909 
L 151.330795 160.567462 
L 153.638288 162.489539 
L 155.94578 164.46171 
L 158.253273 166.471472 
L 160.560765 168.506106 
L 162.868257 170.553501 
L 165.17575 172.602817 
L 167.483242 174.644915 
L 169.790735 176.67253 
L 172.098227 178.680251 
L 174.405719 180.664345 
L 176.713212 182.622513 
L 179.020704 184.553609 
L 181.328197 186.457384 
L 183.635689 188.334249 
L 185.943181 190.185086 
L 188.250674 192.011088 
L 190.558166 193.813649 
L 192.865659 195.594272 
L 195.173151 197.354506 
L 197.480643 199.095904 
L 199.788136 200.819991 
L 202.095628 202.528246 
L 204.403121 204.222089 
L 206.710613 205.902875 
L 209.018105 207.571891 
L 211.325598 209.230357 
L 213.63309 210.879425 
L 215.940583 212.520186 
L 218.248075 214.153667 
L 220.555567 215.78084 
L 222.86306 217.402624 
L 225.170552 219.019889 
L 227.478044 220.633457 
L 229.785537 222.244109 
L 232.093029 223.852587 
L 234.400522 225.459597 
L 236.708014 227.06581 
L 239.015506 228.67187 
L 241.322999 230.27839 
L 243.630491 231.885958 
L 245.937984 233.495135 
L 248.245476 235.106416 
L 250.552968 236.717759 
L 252.860461 238.141479 
L 255.167953 226.966838 
L 257.475446 140.297827 
L 259.782938 104.610251 
L 262.09043 134.910184 
L 264.397923 158.326673 
L 266.705415 175.20172 
L 269.012908 189.094275 
L 271.3204 197.421555 
L 273.627892 203.845021 
L 275.935385 207.582908 
L 278.242877 210.089382 
" style="fill:none;stroke:#424242;stroke-linecap:round;"/>
   </g>
   <g id="PathCollection_2">
    <g clip-path="url(#pc6e1ebe8d5)">
     <use style="fill:#ffffff;stroke:#424242;" x="47.493638" xlink:href="#ma2f29c481c" y="99.14769"/>
     <use style="fill:#ffffff;stroke:#424242;" x="49.80113" xlink:href="#ma2f29c481c" y="106.744057"/>
     <use style="fill:#ffffff;stroke:#424242;" x="52.108623" xlink:href="#ma2f29c481c" y="114.850573"/>
     <use style="fill:#ffffff;stroke:#424242;" x="54.416115" xlink:href="#ma2f29c481c" y="128.871176"/>
     <use style="fill:#ffffff;stroke:#424242;" x="56.723607" xlink:href="#ma2f29c481c" y="126.92008"/>
     <use style="fill:#ffffff;stroke:#424242;" x="59.0311" xlink:href="#ma2f29c481c" y="126.931959"/>
     <use style="fill:#ffffff;stroke:#424242;" x="61.338592" xlink:href="#ma2f29c481c" y="129.351309"/>
     <use style="fill:#ffffff;stroke:#424242;" x="63.646085" xlink:href="#ma2f29c481c" y="130.321924"/>
     <use style="fill:#ffffff;stroke:#424242;" x="65.953577" xlink:href="#ma2f29c481c" y="130.432549"/>
     <use style="fill:#ffffff;stroke:#424242;" x="68.261069" xlink:href="#ma2f29c481c" y="130.623694"/>
     <use style="fill:#ffffff;stroke:#424242;" x="70.568562" xlink:href="#ma2f29c481c" y="130.942703"/>
     <use style="fill:#ffffff;stroke:#424242;" x="72.876054" xlink:href="#ma2f29c481c" y="131.280645"/>
     <use style="fill:#ffffff;stroke:#424242;" x="75.183546" xlink:href="#ma2f29c481c" y="131.601656"/>
     <use style="fill:#ffffff;stroke:#424242;" x="77.491039" xlink:href="#ma2f29c481c" y="131.91924"/>
     <use style="fill:#ffffff;stroke:#424242;" x="79.798531" xlink:href="#ma2f29c481c" y="132.24623"/>
     <use style="fill:#ffffff;stroke:#424242;" x="82.106024" xlink:href="#ma2f29c481c" y="132.589597"/>
     <use style="fill:#ffffff;stroke:#424242;" x="84.413516" xlink:href="#ma2f29c481c" y="132.952598"/>
     <use style="fill:#ffffff;stroke:#424242;" x="86.721008" xlink:href="#ma2f29c481c" y="133.336059"/>
     <use style="fill:#ffffff;stroke:#424242;" x="89.028501" xlink:href="#ma2f29c481c" y="133.741511"/>
     <use style="fill:#ffffff;stroke:#424242;" x="91.335993" xlink:href="#ma2f29c481c" y="134.169459"/>
     <use style="fill:#ffffff;stroke:#424242;" x="93.643486" xlink:href="#ma2f29c481c" y="134.621487"/>
     <use style="fill:#ffffff;stroke:#424242;" x="95.950978" xlink:href="#ma2f29c481c" y="135.098494"/>
     <use style="fill:#ffffff;stroke:#424242;" x="98.25847" xlink:href="#ma2f29c481c" y="135.602209"/>
     <use style="fill:#ffffff;stroke:#424242;" x="100.565963" xlink:href="#ma2f29c481c" y="136.133961"/>
     <use style="fill:#ffffff;stroke:#424242;" x="102.873455" xlink:href="#ma2f29c481c" y="136.695697"/>
     <use style="fill:#ffffff;stroke:#424242;" x="105.180948" xlink:href="#ma2f29c481c" y="137.289187"/>
     <use style="fill:#ffffff;stroke:#424242;" x="107.48844" xlink:href="#ma2f29c481c" y="137.916694"/>
     <use style="fill:#ffffff;stroke:#424242;" x="109.795932" xlink:href="#ma2f29c481c" y="138.58047"/>
     <use style="fill:#ffffff;stroke:#424242;" x="112.103425" xlink:href="#ma2f29c481c" y="139.283188"/>
     <use style="fill:#ffffff;stroke:#424242;" x="114.410917" xlink:href="#ma2f29c481c" y="140.027633"/>
     <use style="fill:#ffffff;stroke:#424242;" x="116.71841" xlink:href="#ma2f29c481c" y="140.816975"/>
     <use style="fill:#ffffff;stroke:#424242;" x="119.025902" xlink:href="#ma2f29c481c" y="141.654581"/>
     <use style="fill:#ffffff;stroke:#424242;" x="121.333394" xlink:href="#ma2f29c481c" y="142.544165"/>
     <use style="fill:#ffffff;stroke:#424242;" x="123.640887" xlink:href="#ma2f29c481c" y="143.489677"/>
     <use style="fill:#ffffff;stroke:#424242;" x="125.948379" xlink:href="#ma2f29c481c" y="144.495342"/>
     <use style="fill:#ffffff;stroke:#424242;" x="128.255872" xlink:href="#ma2f29c481c" y="145.565566"/>
     <use style="fill:#ffffff;stroke:#424242;" x="130.563364" xlink:href="#ma2f29c481c" y="146.704858"/>
     <use style="fill:#ffffff;stroke:#424242;" x="132.870856" xlink:href="#ma2f29c481c" y="147.917691"/>
     <use style="fill:#ffffff;stroke:#424242;" x="135.178349" xlink:href="#ma2f29c481c" y="149.208283"/>
     <use style="fill:#ffffff;stroke:#424242;" x="137.485841" xlink:href="#ma2f29c481c" y="150.580336"/>
     <use style="fill:#ffffff;stroke:#424242;" x="139.793334" xlink:href="#ma2f29c481c" y="152.036666"/>
     <use style="fill:#ffffff;stroke:#424242;" x="142.100826" xlink:href="#ma2f29c481c" y="153.578801"/>
     <use style="fill:#ffffff;stroke:#424242;" x="144.408318" xlink:href="#ma2f29c481c" y="155.206529"/>
     <use style="fill:#ffffff;stroke:#424242;" x="146.715811" xlink:href="#ma2f29c481c" y="156.917495"/>
     <use style="fill:#ffffff;stroke:#424242;" x="149.023303" xlink:href="#ma2f29c481c" y="158.706909"/>
     <use style="fill:#ffffff;stroke:#424242;" x="151.330795" xlink:href="#ma2f29c481c" y="160.567462"/>
     <use style="fill:#ffffff;stroke:#424242;" x="153.638288" xlink:href="#ma2f29c481c" y="162.489539"/>
     <use style="fill:#ffffff;stroke:#424242;" x="155.94578" xlink:href="#ma2f29c481c" y="164.46171"/>
     <use style="fill:#ffffff;stroke:#424242;" x="158.253273" xlink:href="#ma2f29c481c" y="166.471472"/>
     <use style="fill:#ffffff;stroke:#424242;" x="160.560765" xlink:href="#ma2f29c481c" y="168.506106"/>
     <use style="fill:#ffffff;stroke:#424242;" x="162.868257" xlink:href="#ma2f29c481c" y="170.553501"/>
     <use style="fill:#ffffff;stroke:#424242;" x="165.17575" xlink:href="#ma2f29c481c" y="172.602817"/>
     <use style="fill:#ffffff;stroke:#424242;" x="167.483242" xlink:href="#ma2f29c481c" y="174.644915"/>
     <use style="fill:#ffffff;stroke:#424242;" x="169.790735" xlink:href="#ma2f29c481c" y="176.67253"/>
     <use style="fill:#ffffff;stroke:#424242;" x="172.098227" xlink:href="#ma2f29c481c" y="178.680251"/>
     <use style="fill:#ffffff;stroke:#424242;" x="174.405719" xlink:href="#ma2f29c481c" y="180.664345"/>
     <use style="fill:#ffffff;stroke:#424242;" x="176.713212" xlink:href="#ma2f29c481c" y="182.622513"/>
     <use style="fill:#ffffff;stroke:#424242;" x="179.020704" xlink:href="#ma2f29c481c" y="184.553609"/>
     <use style="fill:#ffffff;stroke:#424242;" x="181.328197" xlink:href="#ma2f29c481c" y="186.457384"/>
     <use style="fill:#ffffff;stroke:#424242;" x="183.635689" xlink:href="#ma2f29c481c" y="188.334249"/>
     <use style="fill:#ffffff;stroke:#424242;" x="185.943181" xlink:href="#ma2f29c481c" y="190.185086"/>
     <use style="fill:#ffffff;stroke:#424242;" x="188.250674" xlink:href="#ma2f29c481c" y="192.011088"/>
     <use style="fill:#ffffff;stroke:#424242;" x="190.558166" xlink:href="#ma2f29c481c" y="193.813649"/>
     <use style="fill:#ffffff;stroke:#424242;" x="192.865659" xlink:href="#ma2f29c481c" y="195.594272"/>
     <use style="fill:#ffffff;stroke:#424242;" x="195.173151" xlink:href="#ma2f29c481c" y="197.354506"/>
     <use style="fill:#ffffff;stroke:#424242;" x="197.480643" xlink:href="#ma2f29c481c" y="199.095904"/>
     <use style="fill:#ffffff;stroke:#424242;" x="199.788136" xlink:href="#ma2f29c481c" y="200.819991"/>
     <use style="fill:#ffffff;stroke:#424242;" x="202.095628" xlink:href="#ma2f29c481c" y="202.528246"/>
     <use style="fill:#ffffff;stroke:#424242;" x="204.403121" xlink:href="#ma2f29c481c" y="204.222089"/>
     <use style="fill:#ffffff;stroke:#424242;" x="206.710613" xlink:href="#ma2f29c481c" y="205.902875"/>
     <use style="fill:#ffffff;stroke:#424242;" x="209.018105" xlink:href="#ma2f29c481c" y="207.571891"/>
     <use style="fill:#ffffff;stroke:#424242;" x="211.325598" xlink:href="#ma2f29c481c" y="209.230357"/>
     <use style="fill:#ffffff;stroke:#424242;" x="213.63309" xlink:href="#ma2f29c481c" y="210.879425"/>
     <use style="fill:#ffffff;stroke:#424242;" x="215.940583" xlink:href="#ma2f29c481c" y="212.520186"/>
     <use style="fill:#ffffff;stroke:#424242;" x="218.248075" xlink:href="#ma2f29c481c" y="214.153667"/>
     <use style="fill:#ffffff;stroke:#424242;" x="220.555567" xlink:href="#ma2f29c481c" y="215.78084"/>
     <use style="fill:#ffffff;stroke:#424242;" x="222.86306" xlink:href="#ma2f29c481c" y="217.402624"/>
     <use style="fill:#ffffff;stroke:#424242;" x="225.170552" xlink:href="#ma2f29c481c" y="219.019889"/>
     <use style="fill:#ffffff;stroke:#424242;" x="227.478044" xlink:href="#ma2f29c481c" y="220.633457"/>
     <use style="fill:#ffffff;stroke:#424242;" x="229.785537" xlink:href="#ma2f29c481c" y="222.244109"/>
     <use style="fill:#ffffff;stroke:#424242;" x="232.093029" xlink:href="#ma2f29c481c" y="223.852587"/>
     <use style="fill:#ffffff;stroke:#424242;" x="234.400522" xlink:href="#ma2f29c481c" y="225.459597"/>
     <use style="fill:#ffffff;stroke:#424242;" x="236.708014" xlink:href="#ma2f29c481c" y="227.06581"/>
     <use style="fill:#ffffff;stroke:#424242;" x="239.015506" xlink:href="#ma2f29c481c" y="228.67187"/>
     <use style="fill:#ffffff;stroke:#424242;" x="241.322999" xlink:href="#ma2f29c481c" y="230.27839"/>
     <use style="fill:#ffffff;stroke:#424242;" x="243.630491" xlink:href="#ma2f29c481c" y="231.885958"/>
     <use style="fill:#ffffff;stroke:#424242;" x="245.937984" xlink:href="#ma2f29c481c" y="233.495135"/>
     <use style="fill:#ffffff;stroke:#424242;" x="248.245476" xlink:href="#ma2f29c481c" y="235.106416"/>
     <use style="fill:#ffffff;stroke:#424242;" x="250.552968" xlink:href="#ma2f29c481c" y="236.717759"/>
     <use style="fill:#ffffff;stroke:#424242;" x="252.860461" xlink:href="#ma2f29c481c" y="238.141479"/>
     <use style="fill:#ffffff;stroke:#424242;" x="255.167953" xlink:href="#ma2f29c481c" y="226.966838"/>
     <use style="fill:#ffffff;stroke:#424242;" x="257.475446" xlink:href="#ma2f29c481c" y="140.297827"/>
     <use style="fill:#ffffff;stroke:#424242;" x="259.782938" xlink:href="#ma2f29c481c" y="104.610251"/>
     <use style="fill:#ffffff;stroke:#424242;" x="262.09043" xlink:href="#ma2f29c481c" y="134.910184"/>
     <use style="fill:#ffffff;stroke:#424242;" x="264.397923" xlink:href="#ma2f29c481c" y="158.326673"/>
     <use style="fill:#ffffff;stroke:#424242;" x="266.705415" xlink:href="#ma2f29c481c" y="175.20172"/>
     <use style="fill:#ffffff;stroke:#424242;" x="269.012908" xlink:href="#ma2f29c481c" y="189.094275"/>
     <use style="fill:#ffffff;stroke:#424242;" x="271.3204" xlink:href="#ma2f29c481c" y="197.421555"/>
     <use style="fill:#ffffff;stroke:#424242;" x="273.627892" xlink:href="#ma2f29c481c" y="203.845021"/>
     <use style="fill:#ffffff;stroke:#424242;" x="275.935385" xlink:href="#ma2f29c481c" y="207.582908"/>
     <use style="fill:#ffffff;stroke:#424242;" x="278.242877" xlink:href="#ma2f29c481c" y="210.089382"/>
    </g>
   </g>
   <g id="patch_3">
    <path d="M 40.571161 259.665354 
L 40.571161 2.834646 
" style="fill:none;stroke:#000000;stroke-linecap:square;stroke-linejoin:miter;"/>
   </g>
   <g id="patch_4">
    <path d="M 285.165354 259.665354 
L 285.165354 2.834646 
" style="fill:none;stroke:#000000;stroke-linecap:square;stroke-linejoin:miter;stroke-width:0.8;"/>
   </g>
   <g id="patch_5">
    <path d="M 40.571161 259.665354 
L 285.165354 259.665354 
" style="fill:none;stroke:#000000;stroke-linecap:square;stroke-linejoin:miter;"/>
   </g>
   <g id="patch_6">
    <path d="M 40.571161 2.834646 
L 285.165354 2.834646 
" style="fill:none;stroke:#000000;stroke-linecap:square;stroke-linejoin:miter;stroke-width:0.8;"/>
   </g>
   <g id="line2d_21">
    <path clip-path="url(#pc6e1ebe8d5)" d="M 47.493638 30.149812 
L 49.80113 72.369075 
L 52.108623 145.814067 
L 54.416115 141.482901 
L 56.723607 123.086986 
L 59.0311 127.905421 
L 61.338592 144.54829 
L 63.646085 161.87223 
L 65.953577 163.598805 
L 68.261069 160.962574 
L 70.568562 162.121886 
L 72.876054 164.424923 
L 75.183546 165.295259 
L 77.491039 165.376809 
L 79.798531 165.688031 
L 82.106024 166.145699 
L 84.413516 166.502464 
L 86.721008 166.814257 
L 89.028501 167.160273 
L 91.335993 167.523297 
L 93.643486 167.887344 
L 95.950978 168.260734 
L 98.25847 168.645528 
L 100.565963 169.038628 
L 102.873455 169.440421 
L 105.180948 169.851682 
L 107.48844 170.271868 
L 109.795932 170.70055 
L 112.103425 171.137479 
L 114.410917 171.582341 
L 116.71841 172.03491 
L 119.025902 172.494985 
L 121.333394 172.962309 
L 123.640887 173.436608 
L 125.948379 173.917618 
L 128.255872 174.405089 
L 130.563364 174.898789 
L 132.870856 175.39848 
L 135.178349 175.903928 
L 137.485841 176.4149 
L 139.793334 176.931174 
L 142.100826 177.452535 
L 144.408318 177.978776 
L 146.715811 178.509694 
L 149.023303 179.045095 
L 151.330795 179.584792 
L 153.638288 180.128609 
L 155.94578 180.676374 
L 158.253273 181.227926 
L 160.560765 181.783111 
L 162.868257 182.341782 
L 165.17575 182.903803 
L 167.483242 183.469043 
L 169.790735 184.037382 
L 172.098227 184.608705 
L 174.405719 185.182905 
L 176.713212 185.759885 
L 179.020704 186.339551 
L 181.328197 186.92182 
L 183.635689 187.506613 
L 185.943181 188.093859 
L 188.250674 188.683492 
L 190.558166 189.275453 
L 192.865659 189.869689 
L 195.173151 190.466151 
L 197.480643 191.064797 
L 199.788136 191.665589 
L 202.095628 192.268494 
L 204.403121 192.873483 
L 206.710613 193.480533 
L 209.018105 194.089624 
L 211.325598 194.70074 
L 213.63309 195.313868 
L 215.940583 195.928999 
L 218.248075 196.546128 
L 220.555567 197.165253 
L 222.86306 197.786374 
L 225.170552 198.409496 
L 227.478044 199.034623 
L 229.785537 199.661765 
L 232.093029 200.290932 
L 234.400522 200.922139 
L 236.708014 201.555401 
L 239.015506 202.190734 
L 241.322999 202.82816 
L 243.630491 203.467698 
L 245.937984 204.109372 
L 248.245476 204.753206 
L 250.552968 205.399227 
L 252.860461 206.047463 
L 255.167953 206.697942 
L 257.475446 207.350694 
L 259.782938 208.005753 
L 262.09043 208.663149 
L 264.397923 209.322918 
L 266.705415 209.985095 
L 269.012908 210.649716 
L 271.3204 211.316817 
L 273.627892 211.986438 
L 275.935385 212.658618 
L 278.242877 213.333396 
" style="fill:none;stroke:#424242;stroke-linecap:round;"/>
   </g>
   <g id="PathCollection_3">
    <g clip-path="url(#pc6e1ebe8d5)">
     <use style="fill:#ffffff;stroke:#424242;" x="47.493638" xlink:href="#ma2f29c481c" y="30.149812"/>
     <use style="fill:#ffffff;stroke:#424242;" x="49.80113" xlink:href="#ma2f29c481c" y="72.369075"/>
     <use style="fill:#ffffff;stroke:#424242;" x="52.108623" xlink:href="#ma2f29c481c" y="145.814067"/>
     <use style="fill:#ffffff;stroke:#424242;" x="54.416115" xlink:href="#ma2f29c481c" y="141.482901"/>
     <use style="fill:#ffffff;stroke:#424242;" x="56.723607" xlink:href="#ma2f29c481c" y="123.086986"/>
     <use style="fill:#ffffff;stroke:#424242;" x="59.0311" xlink:href="#ma2f29c481c" y="127.905421"/>
     <use style="fill:#ffffff;stroke:#424242;" x="61.338592" xlink:href="#ma2f29c481c" y="144.54829"/>
     <use style="fill:#ffffff;stroke:#424242;" x="63.646085" xlink:href="#ma2f29c481c" y="161.87223"/>
     <use style="fill:#ffffff;stroke:#424242;" x="65.953577" xlink:href="#ma2f29c481c" y="163.598805"/>
     <use style="fill:#ffffff;stroke:#424242;" x="68.261069" xlink:href="#ma2f29c481c" y="160.962574"/>
     <use style="fill:#ffffff;stroke:#424242;" x="70.568562" xlink:href="#ma2f29c481c" y="162.121886"/>
     <use style="fill:#ffffff;stroke:#424242;" x="72.876054" xlink:href="#ma2f29c481c" y="164.424923"/>
     <use style="fill:#ffffff;stroke:#424242;" x="75.183546" xlink:href="#ma2f29c481c" y="165.295259"/>
     <use style="fill:#ffffff;stroke:#424242;" x="77.491039" xlink:href="#ma2f29c481c" y="165.376809"/>
     <use style="fill:#ffffff;stroke:#424242;" x="79.798531" xlink:href="#ma2f29c481c" y="165.688031"/>
     <use style="fill:#ffffff;stroke:#424242;" x="82.106024" xlink:href="#ma2f29c481c" y="166.145699"/>
     <use style="fill:#ffffff;stroke:#424242;" x="84.413516" xlink:href="#ma2f29c481c" y="166.502464"/>
     <use style="fill:#ffffff;stroke:#424242;" x="86.721008" xlink:href="#ma2f29c481c" y="166.814257"/>
     <use style="fill:#ffffff;stroke:#424242;" x="89.028501" xlink:href="#ma2f29c481c" y="167.160273"/>
     <use style="fill:#ffffff;stroke:#424242;" x="91.335993" xlink:href="#ma2f29c481c" y="167.523297"/>
     <use style="fill:#ffffff;stroke:#424242;" x="93.643486" xlink:href="#ma2f29c481c" y="167.887344"/>
     <use style="fill:#ffffff;stroke:#424242;" x="95.950978" xlink:href="#ma2f29c481c" y="168.260734"/>
     <use style="fill:#ffffff;stroke:#424242;" x="98.25847" xlink:href="#ma2f29c481c" y="168.645528"/>
     <use style="fill:#ffffff;stroke:#424242;" x="100.565963" xlink:href="#ma2f29c481c" y="169.038628"/>
     <use style="fill:#ffffff;stroke:#424242;" x="102.873455" xlink:href="#ma2f29c481c" y="169.440421"/>
     <use style="fill:#ffffff;stroke:#424242;" x="105.180948" xlink:href="#ma2f29c481c" y="169.851682"/>
     <use style="fill:#ffffff;stroke:#424242;" x="107.48844" xlink:href="#ma2f29c481c" y="170.271868"/>
     <use style="fill:#ffffff;stroke:#424242;" x="109.795932" xlink:href="#ma2f29c481c" y="170.70055"/>
     <use style="fill:#ffffff;stroke:#424242;" x="112.103425" xlink:href="#ma2f29c481c" y="171.137479"/>
     <use style="fill:#ffffff;stroke:#424242;" x="114.410917" xlink:href="#ma2f29c481c" y="171.582341"/>
     <use style="fill:#ffffff;stroke:#424242;" x="116.71841" xlink:href="#ma2f29c481c" y="172.03491"/>
     <use style="fill:#ffffff;stroke:#424242;" x="119.025902" xlink:href="#ma2f29c481c" y="172.494985"/>
     <use style="fill:#ffffff;stroke:#424242;" x="121.333394" xlink:href="#ma2f29c481c" y="172.962309"/>
     <use style="fill:#ffffff;stroke:#424242;" x="123.640887" xlink:href="#ma2f29c481c" y="173.436608"/>
     <use style="fill:#ffffff;stroke:#424242;" x="125.948379" xlink:href="#ma2f29c481c" y="173.917618"/>
     <use style="fill:#ffffff;stroke:#424242;" x="128.255872" xlink:href="#ma2f29c481c" y="174.405089"/>
     <use style="fill:#ffffff;stroke:#424242;" x="130.563364" xlink:href="#ma2f29c481c" y="174.898789"/>
     <use style="fill:#ffffff;stroke:#424242;" x="132.870856" xlink:href="#ma2f29c481c" y="175.39848"/>
     <use style="fill:#ffffff;stroke:#424242;" x="135.178349" xlink:href="#ma2f29c481c" y="175.903928"/>
     <use style="fill:#ffffff;stroke:#424242;" x="137.485841" xlink:href="#ma2f29c481c" y="176.4149"/>
     <use style="fill:#ffffff;stroke:#424242;" x="139.793334" xlink:href="#ma2f29c481c" y="176.931174"/>
     <use style="fill:#ffffff;stroke:#424242;" x="142.100826" xlink:href="#ma2f29c481c" y="177.452535"/>
     <use style="fill:#ffffff;stroke:#424242;" x="144.408318" xlink:href="#ma2f29c481c" y="177.978776"/>
     <use style="fill:#ffffff;stroke:#424242;" x="146.715811" xlink:href="#ma2f29c481c" y="178.509694"/>
     <use style="fill:#ffffff;stroke:#424242;" x="149.023303" xlink:href="#ma2f29c481c" y="179.045095"/>
     <use style="fill:#ffffff;stroke:#424242;" x="151.330795" xlink:href="#ma2f29c481c" y="179.584792"/>
     <use style="fill:#ffffff;stroke:#424242;" x="153.638288" xlink:href="#ma2f29c481c" y="180.128609"/>
     <use style="fill:#ffffff;stroke:#424242;" x="155.94578" xlink:href="#ma2f29c481c" y="180.676374"/>
     <use style="fill:#ffffff;stroke:#424242;" x="158.253273" xlink:href="#ma2f29c481c" y="181.227926"/>
     <use style="fill:#ffffff;stroke:#424242;" x="160.560765" xlink:href="#ma2f29c481c" y="181.783111"/>
     <use style="fill:#ffffff;stroke:#424242;" x="162.868257" xlink:href="#ma2f29c481c" y="182.341782"/>
     <use style="fill:#ffffff;stroke:#424242;" x="165.17575" xlink:href="#ma2f29c481c" y="182.903803"/>
     <use style="fill:#ffffff;stroke:#424242;" x="167.483242" xlink:href="#ma2f29c481c" y="183.469043"/>
     <use style="fill:#ffffff;stroke:#424242;" x="169.790735" xlink:href="#ma2f29c481c" y="184.037382"/>
     <use style="fill:#ffffff;stroke:#424242;" x="172.098227" xlink:href="#ma2f29c481c" y="184.608705"/>
     <use style="fill:#ffffff;stroke:#424242;" x="174.405719" xlink:href="#ma2f29c481c" y="185.182905"/>
     <use style="fill:#ffffff;stroke:#424242;" x="176.713212" xlink:href="#ma2f29c481c" y="185.759885"/>
     <use style="fill:#ffffff;stroke:#424242;" x="179.020704" xlink:href="#ma2f29c481c" y="186.339551"/>
     <use style="fill:#ffffff;stroke:#424242;" x="181.328197" xlink:href="#ma2f29c481c" y="186.92182"/>
     <use style="fill:#ffffff;stroke:#424242;" x="183.635689" xlink:href="#ma2f29c481c" y="187.506613"/>
     <use style="fill:#ffffff;stroke:#424242;" x="185.943181" xlink:href="#ma2f29c481c" y="188.093859"/>
     <use style="fill:#ffffff;stroke:#424242;" x="188.250674" xlink:href="#ma2f29c481c" y="188.683492"/>
     <use style="fill:#ffffff;stroke:#424242;" x="190.558166" xlink:href="#ma2f29c481c" y="189.275453"/>
     <use style="fill:#ffffff;stroke:#424242;" x="192.865659" xlink:href="#ma2f29c481c" y="189.869689"/>
     <use style="fill:#ffffff;stroke:#424242;" x="195.173151" xlink:href="#ma2f29c481c" y="190.466151"/>
     <use style="fill:#ffffff;stroke:#424242;" x="197.480643" xlink:href="#ma2f29c481c" y="191.064797"/>
     <use style="fill:#ffffff;stroke:#424242;" x="199.788136" xlink:href="#ma2f29c481c" y="191.665589"/>
     <use style="fill:#ffffff;stroke:#424242;" x="202.095628" xlink:href="#ma2f29c481c" y="192.268494"/>
     <use style="fill:#ffffff;stroke:#424242;" x="204.403121" xlink:href="#ma2f29c481c" y="192.873483"/>
     <use style="fill:#ffffff;stroke:#424242;" x="206.710613" xlink:href="#ma2f29c481c" y="193.480533"/>
     <use style="fill:#ffffff;stroke:#424242;" x="209.018105" xlink:href="#ma2f29c481c" y="194.089624"/>
     <use style="fill:#ffffff;stroke:#424242;" x="211.325598" xlink:href="#ma2f29c481c" y="194.70074"/>
     <use style="fill:#ffffff;stroke:#424242;" x="213.63309" xlink:href="#ma2f29c481c" y="195.313868"/>
     <use style="fill:#ffffff;stroke:#424242;" x="215.940583" xlink:href="#ma2f29c481c" y="195.928999"/>
     <use style="fill:#ffffff;stroke:#424242;" x="218.248075" xlink:href="#ma2f29c481c" y="196.546128"/>
     <use style="fill:#ffffff;stroke:#424242;" x="220.555567" xlink:href="#ma2f29c481c" y="197.165253"/>
     <use style="fill:#ffffff;stroke:#424242;" x="222.86306" xlink:href="#ma2f29c481c" y="197.786374"/>
     <use style="fill:#ffffff;stroke:#424242;" x="225.170552" xlink:href="#ma2f29c481c" y="198.409496"/>
     <use style="fill:#ffffff;stroke:#424242;" x="227.478044" xlink:href="#ma2f29c481c" y="199.034623"/>
     <use style="fill:#ffffff;stroke:#424242;" x="229.785537" xlink:href="#ma2f29c481c" y="199.661765"/>
     <use style="fill:#ffffff;stroke:#424242;" x="232.093029" xlink:href="#ma2f29c481c" y="200.290932"/>
     <use style="fill:#ffffff;stroke:#424242;" x="234.400522" xlink:href="#ma2f29c481c" y="200.922139"/>
     <use style="fill:#ffffff;stroke:#424242;" x="236.708014" xlink:href="#ma2f29c481c" y="201.555401"/>
     <use style="fill:#ffffff;stroke:#424242;" x="239.015506" xlink:href="#ma2f29c481c" y="202.190734"/>
     <use style="fill:#ffffff;stroke:#424242;" x="241.322999" xlink:href="#ma2f29c481c" y="202.82816"/>
     <use style="fill:#ffffff;stroke:#424242;" x="243.630491" xlink:href="#ma2f29c481c" y="203.467698"/>
     <use style="fill:#ffffff;stroke:#424242;" x="245.937984" xlink:href="#ma2f29c481c" y="204.109372"/>
     <use style="fill:#ffffff;stroke:#424242;" x="248.245476" xlink:href="#ma2f29c481c" y="204.753206"/>
     <use style="fill:#ffffff;stroke:#424242;" x="250.552968" xlink:href="#ma2f29c481c" y="205.399227"/>
     <use style="fill:#ffffff;stroke:#424242;" x="252.860461" xlink:href="#ma2f29c481c" y="206.047463"/>
     <use style="fill:#ffffff;stroke:#424242;" x="255.167953" xlink:href="#ma2f29c481c" y="206.697942"/>
     <use style="fill:#ffffff;stroke:#424242;" x="257.475446" xlink:href="#ma2f29c481c" y="207.350694"/>
     <use style="fill:#ffffff;stroke:#424242;" x="259.782938" xlink:href="#ma2f29c481c" y="208.005753"/>
     <use style="fill:#ffffff;stroke:#424242;" x="262.09043" xlink:href="#ma2f29c481c" y="208.663149"/>
     <use style="fill:#ffffff;stroke:#424242;" x="264.397923" xlink:href="#ma2f29c481c" y="209.322918"/>
     <use style="fill:#ffffff;stroke:#424242;" x="266.705415" xlink:href="#ma2f29c481c" y="209.985095"/>
     <use style="fill:#ffffff;stroke:#424242;" x="269.012908" xlink:href="#ma2f29c481c" y="210.649716"/>
     <use style="fill:#ffffff;stroke:#424242;" x="271.3204" xlink:href="#ma2f29c481c" y="211.316817"/>
     <use style="fill:#ffffff;stroke:#424242;" x="273.627892" xlink:href="#ma2f29c481c" y="211.986438"/>
     <use style="fill:#ffffff;stroke:#424242;" x="275.935385" xlink:href="#ma2f29c481c" y="212.658618"/>
     <use style="fill:#ffffff;stroke:#424242;" x="278.242877" xlink:href="#ma2f29c481c" y="213.333396"/>
    </g>
   </g>
   <g id="line2d_22">
    <path clip-path="url(#pc6e1ebe8d5)" d="M 47.493638 10.103439 
L 49.80113 48.829774 
L 52.108623 125.168972 
L 54.416115 123.493118 
L 56.723607 99.461001 
L 59.0311 103.274266 
L 61.338592 123.163167 
L 63.646085 165.530656 
L 65.953577 205.531676 
L 68.261069 175.596938 
L 70.568562 177.917138 
L 72.876054 197.168093 
L 75.183546 211.055184 
L 77.491039 207.339636 
L 79.798531 207.033575 
L 82.106024 210.148085 
L 84.413516 211.315465 
L 86.721008 211.040864 
L 89.028501 211.21259 
L 91.335993 211.539251 
L 93.643486 211.640764 
L 95.950978 211.712861 
L 98.25847 211.832516 
L 100.565963 211.938878 
L 102.873455 212.035508 
L 105.180948 212.140049 
L 107.48844 212.246787 
L 109.795932 212.354082 
L 112.103425 212.46442 
L 114.410917 212.577288 
L 116.71841 212.69236 
L 119.025902 212.80996 
L 121.333394 212.930013 
L 123.640887 213.052471 
L 125.948379 213.177365 
L 128.255872 213.304673 
L 130.563364 213.434389 
L 132.870856 213.566512 
L 135.178349 213.701033 
L 137.485841 213.837948 
L 139.793334 213.977253 
L 142.100826 214.118944 
L 144.408318 214.263019 
L 146.715811 214.409477 
L 149.023303 214.558314 
L 151.330795 214.709531 
L 153.638288 214.863127 
L 155.94578 215.019102 
L 158.253273 215.177456 
L 160.560765 215.338192 
L 162.868257 215.501309 
L 165.17575 215.66681 
L 167.483242 215.834698 
L 169.790735 216.004974 
L 172.098227 216.177642 
L 174.405719 216.352706 
L 176.713212 216.530169 
L 179.020704 216.710035 
L 181.328197 216.892309 
L 183.635689 217.076995 
L 185.943181 217.264099 
L 188.250674 217.453626 
L 190.558166 217.645581 
L 192.865659 217.839971 
L 195.173151 218.036801 
L 197.480643 218.236079 
L 199.788136 218.437812 
L 202.095628 218.642005 
L 204.403121 218.848667 
L 206.710613 219.057805 
L 209.018105 219.269427 
L 211.325598 219.483541 
L 213.63309 219.700155 
L 215.940583 219.919278 
L 218.248075 220.140919 
L 220.555567 220.365087 
L 222.86306 220.591791 
L 225.170552 220.82104 
L 227.478044 221.052845 
L 229.785537 221.287215 
L 232.093029 221.524161 
L 234.400522 221.763693 
L 236.708014 222.005821 
L 239.015506 222.250557 
L 241.322999 222.497912 
L 243.630491 222.747896 
L 245.937984 223.000522 
L 248.245476 223.255802 
L 250.552968 223.513746 
L 252.860461 223.774368 
L 255.167953 224.037681 
L 257.475446 224.303696 
L 259.782938 224.572426 
L 262.09043 224.843885 
L 264.397923 225.118086 
L 266.705415 225.395043 
L 269.012908 225.674769 
L 271.3204 225.957278 
L 273.627892 226.242585 
L 275.935385 226.530704 
L 278.242877 226.82165 
" style="fill:none;stroke:#424242;stroke-linecap:round;"/>
   </g>
   <g id="PathCollection_4">
    <g clip-path="url(#pc6e1ebe8d5)">
     <use style="fill:#ffffff;stroke:#424242;" x="47.493638" xlink:href="#ma2f29c481c" y="10.103439"/>
     <use style="fill:#ffffff;stroke:#424242;" x="49.80113" xlink:href="#ma2f29c481c" y="48.829774"/>
     <use style="fill:#ffffff;stroke:#424242;" x="52.108623" xlink:href="#ma2f29c481c" y="125.168972"/>
     <use style="fill:#ffffff;stroke:#424242;" x="54.416115" xlink:href="#ma2f29c481c" y="123.493118"/>
     <use style="fill:#ffffff;stroke:#424242;" x="56.723607" xlink:href="#ma2f29c481c" y="99.461001"/>
     <use style="fill:#ffffff;stroke:#424242;" x="59.0311" xlink:href="#ma2f29c481c" y="103.274266"/>
     <use style="fill:#ffffff;stroke:#424242;" x="61.338592" xlink:href="#ma2f29c481c" y="123.163167"/>
     <use style="fill:#ffffff;stroke:#424242;" x="63.646085" xlink:href="#ma2f29c481c" y="165.530656"/>
     <use style="fill:#ffffff;stroke:#424242;" x="65.953577" xlink:href="#ma2f29c481c" y="205.531676"/>
     <use style="fill:#ffffff;stroke:#424242;" x="68.261069" xlink:href="#ma2f29c481c" y="175.596938"/>
     <use style="fill:#ffffff;stroke:#424242;" x="70.568562" xlink:href="#ma2f29c481c" y="177.917138"/>
     <use style="fill:#ffffff;stroke:#424242;" x="72.876054" xlink:href="#ma2f29c481c" y="197.168093"/>
     <use style="fill:#ffffff;stroke:#424242;" x="75.183546" xlink:href="#ma2f29c481c" y="211.055184"/>
     <use style="fill:#ffffff;stroke:#424242;" x="77.491039" xlink:href="#ma2f29c481c" y="207.339636"/>
     <use style="fill:#ffffff;stroke:#424242;" x="79.798531" xlink:href="#ma2f29c481c" y="207.033575"/>
     <use style="fill:#ffffff;stroke:#424242;" x="82.106024" xlink:href="#ma2f29c481c" y="210.148085"/>
     <use style="fill:#ffffff;stroke:#424242;" x="84.413516" xlink:href="#ma2f29c481c" y="211.315465"/>
     <use style="fill:#ffffff;stroke:#424242;" x="86.721008" xlink:href="#ma2f29c481c" y="211.040864"/>
     <use style="fill:#ffffff;stroke:#424242;" x="89.028501" xlink:href="#ma2f29c481c" y="211.21259"/>
     <use style="fill:#ffffff;stroke:#424242;" x="91.335993" xlink:href="#ma2f29c481c" y="211.539251"/>
     <use style="fill:#ffffff;stroke:#424242;" x="93.643486" xlink:href="#ma2f29c481c" y="211.640764"/>
     <use style="fill:#ffffff;stroke:#424242;" x="95.950978" xlink:href="#ma2f29c481c" y="211.712861"/>
     <use style="fill:#ffffff;stroke:#424242;" x="98.25847" xlink:href="#ma2f29c481c" y="211.832516"/>
     <use style="fill:#ffffff;stroke:#424242;" x="100.565963" xlink:href="#ma2f29c481c" y="211.938878"/>
     <use style="fill:#ffffff;stroke:#424242;" x="102.873455" xlink:href="#ma2f29c481c" y="212.035508"/>
     <use style="fill:#ffffff;stroke:#424242;" x="105.180948" xlink:href="#ma2f29c481c" y="212.140049"/>
     <use style="fill:#ffffff;stroke:#424242;" x="107.48844" xlink:href="#ma2f29c481c" y="212.246787"/>
     <use style="fill:#ffffff;stroke:#424242;" x="109.795932" xlink:href="#ma2f29c481c" y="212.354082"/>
     <use style="fill:#ffffff;stroke:#424242;" x="112.103425" xlink:href="#ma2f29c481c" y="212.46442"/>
     <use style="fill:#ffffff;stroke:#424242;" x="114.410917" xlink:href="#ma2f29c481c" y="212.577288"/>
     <use style="fill:#ffffff;stroke:#424242;" x="116.71841" xlink:href="#ma2f29c481c" y="212.69236"/>
     <use style="fill:#ffffff;stroke:#424242;" x="119.025902" xlink:href="#ma2f29c481c" y="212.80996"/>
     <use style="fill:#ffffff;stroke:#424242;" x="121.333394" xlink:href="#ma2f29c481c" y="212.930013"/>
     <use style="fill:#ffffff;stroke:#424242;" x="123.640887" xlink:href="#ma2f29c481c" y="213.052471"/>
     <use style="fill:#ffffff;stroke:#424242;" x="125.948379" xlink:href="#ma2f29c481c" y="213.177365"/>
     <use style="fill:#ffffff;stroke:#424242;" x="128.255872" xlink:href="#ma2f29c481c" y="213.304673"/>
     <use style="fill:#ffffff;stroke:#424242;" x="130.563364" xlink:href="#ma2f29c481c" y="213.434389"/>
     <use style="fill:#ffffff;stroke:#424242;" x="132.870856" xlink:href="#ma2f29c481c" y="213.566512"/>
     <use style="fill:#ffffff;stroke:#424242;" x="135.178349" xlink:href="#ma2f29c481c" y="213.701033"/>
     <use style="fill:#ffffff;stroke:#424242;" x="137.485841" xlink:href="#ma2f29c481c" y="213.837948"/>
     <use style="fill:#ffffff;stroke:#424242;" x="139.793334" xlink:href="#ma2f29c481c" y="213.977253"/>
     <use style="fill:#ffffff;stroke:#424242;" x="142.100826" xlink:href="#ma2f29c481c" y="214.118944"/>
     <use style="fill:#ffffff;stroke:#424242;" x="144.408318" xlink:href="#ma2f29c481c" y="214.263019"/>
     <use style="fill:#ffffff;stroke:#424242;" x="146.715811" xlink:href="#ma2f29c481c" y="214.409477"/>
     <use style="fill:#ffffff;stroke:#424242;" x="149.023303" xlink:href="#ma2f29c481c" y="214.558314"/>
     <use style="fill:#ffffff;stroke:#424242;" x="151.330795" xlink:href="#ma2f29c481c" y="214.709531"/>
     <use style="fill:#ffffff;stroke:#424242;" x="153.638288" xlink:href="#ma2f29c481c" y="214.863127"/>
     <use style="fill:#ffffff;stroke:#424242;" x="155.94578" xlink:href="#ma2f29c481c" y="215.019102"/>
     <use style="fill:#ffffff;stroke:#424242;" x="158.253273" xlink:href="#ma2f29c481c" y="215.177456"/>
     <use style="fill:#ffffff;stroke:#424242;" x="160.560765" xlink:href="#ma2f29c481c" y="215.338192"/>
     <use style="fill:#ffffff;stroke:#424242;" x="162.868257" xlink:href="#ma2f29c481c" y="215.501309"/>
     <use style="fill:#ffffff;stroke:#424242;" x="165.17575" xlink:href="#ma2f29c481c" y="215.66681"/>
     <use style="fill:#ffffff;stroke:#424242;" x="167.483242" xlink:href="#ma2f29c481c" y="215.834698"/>
     <use style="fill:#ffffff;stroke:#424242;" x="169.790735" xlink:href="#ma2f29c481c" y="216.004974"/>
     <use style="fill:#ffffff;stroke:#424242;" x="172.098227" xlink:href="#ma2f29c481c" y="216.177642"/>
     <use style="fill:#ffffff;stroke:#424242;" x="174.405719" xlink:href="#ma2f29c481c" y="216.352706"/>
     <use style="fill:#ffffff;stroke:#424242;" x="176.713212" xlink:href="#ma2f29c481c" y="216.530169"/>
     <use style="fill:#ffffff;stroke:#424242;" x="179.020704" xlink:href="#ma2f29c481c" y="216.710035"/>
     <use style="fill:#ffffff;stroke:#424242;" x="181.328197" xlink:href="#ma2f29c481c" y="216.892309"/>
     <use style="fill:#ffffff;stroke:#424242;" x="183.635689" xlink:href="#ma2f29c481c" y="217.076995"/>
     <use style="fill:#ffffff;stroke:#424242;" x="185.943181" xlink:href="#ma2f29c481c" y="217.264099"/>
     <use style="fill:#ffffff;stroke:#424242;" x="188.250674" xlink:href="#ma2f29c481c" y="217.453626"/>
     <use style="fill:#ffffff;stroke:#424242;" x="190.558166" xlink:href="#ma2f29c481c" y="217.645581"/>
     <use style="fill:#ffffff;stroke:#424242;" x="192.865659" xlink:href="#ma2f29c481c" y="217.839971"/>
     <use style="fill:#ffffff;stroke:#424242;" x="195.173151" xlink:href="#ma2f29c481c" y="218.036801"/>
     <use style="fill:#ffffff;stroke:#424242;" x="197.480643" xlink:href="#ma2f29c481c" y="218.236079"/>
     <use style="fill:#ffffff;stroke:#424242;" x="199.788136" xlink:href="#ma2f29c481c" y="218.437812"/>
     <use style="fill:#ffffff;stroke:#424242;" x="202.095628" xlink:href="#ma2f29c481c" y="218.642005"/>
     <use style="fill:#ffffff;stroke:#424242;" x="204.403121" xlink:href="#ma2f29c481c" y="218.848667"/>
     <use style="fill:#ffffff;stroke:#424242;" x="206.710613" xlink:href="#ma2f29c481c" y="219.057805"/>
     <use style="fill:#ffffff;stroke:#424242;" x="209.018105" xlink:href="#ma2f29c481c" y="219.269427"/>
     <use style="fill:#ffffff;stroke:#424242;" x="211.325598" xlink:href="#ma2f29c481c" y="219.483541"/>
     <use style="fill:#ffffff;stroke:#424242;" x="213.63309" xlink:href="#ma2f29c481c" y="219.700155"/>
     <use style="fill:#ffffff;stroke:#424242;" x="215.940583" xlink:href="#ma2f29c481c" y="219.919278"/>
     <use style="fill:#ffffff;stroke:#424242;" x="218.248075" xlink:href="#ma2f29c481c" y="220.140919"/>
     <use style="fill:#ffffff;stroke:#424242;" x="220.555567" xlink:href="#ma2f29c481c" y="220.365087"/>
     <use style="fill:#ffffff;stroke:#424242;" x="222.86306" xlink:href="#ma2f29c481c" y="220.591791"/>
     <use style="fill:#ffffff;stroke:#424242;" x="225.170552" xlink:href="#ma2f29c481c" y="220.82104"/>
     <use style="fill:#ffffff;stroke:#424242;" x="227.478044" xlink:href="#ma2f29c481c" y="221.052845"/>
     <use style="fill:#ffffff;stroke:#424242;" x="229.785537" xlink:href="#ma2f29c481c" y="221.287215"/>
     <use style="fill:#ffffff;stroke:#424242;" x="232.093029" xlink:href="#ma2f29c481c" y="221.524161"/>
     <use style="fill:#ffffff;stroke:#424242;" x="234.400522" xlink:href="#ma2f29c481c" y="221.763693"/>
     <use style="fill:#ffffff;stroke:#424242;" x="236.708014" xlink:href="#ma2f29c481c" y="222.005821"/>
     <use style="fill:#ffffff;stroke:#424242;" x="239.015506" xlink:href="#ma2f29c481c" y="222.250557"/>
     <use style="fill:#ffffff;stroke:#424242;" x="241.322999" xlink:href="#ma2f29c481c" y="222.497912"/>
     <use style="fill:#ffffff;stroke:#424242;" x="243.630491" xlink:href="#ma2f29c481c" y="222.747896"/>
     <use style="fill:#ffffff;stroke:#424242;" x="245.937984" xlink:href="#ma2f29c481c" y="223.000522"/>
     <use style="fill:#ffffff;stroke:#424242;" x="248.245476" xlink:href="#ma2f29c481c" y="223.255802"/>
     <use style="fill:#ffffff;stroke:#424242;" x="250.552968" xlink:href="#ma2f29c481c" y="223.513746"/>
     <use style="fill:#ffffff;stroke:#424242;" x="252.860461" xlink:href="#ma2f29c481c" y="223.774368"/>
     <use style="fill:#ffffff;stroke:#424242;" x="255.167953" xlink:href="#ma2f29c481c" y="224.037681"/>
     <use style="fill:#ffffff;stroke:#424242;" x="257.475446" xlink:href="#ma2f29c481c" y="224.303696"/>
     <use style="fill:#ffffff;stroke:#424242;" x="259.782938" xlink:href="#ma2f29c481c" y="224.572426"/>
     <use style="fill:#ffffff;stroke:#424242;" x="262.09043" xlink:href="#ma2f29c481c" y="224.843885"/>
     <use style="fill:#ffffff;stroke:#424242;" x="264.397923" xlink:href="#ma2f29c481c" y="225.118086"/>
     <use style="fill:#ffffff;stroke:#424242;" x="266.705415" xlink:href="#ma2f29c481c" y="225.395043"/>
     <use style="fill:#ffffff;stroke:#424242;" x="269.012908" xlink:href="#ma2f29c481c" y="225.674769"/>
     <use style="fill:#ffffff;stroke:#424242;" x="271.3204" xlink:href="#ma2f29c481c" y="225.957278"/>
     <use style="fill:#ffffff;stroke:#424242;" x="273.627892" xlink:href="#ma2f29c481c" y="226.242585"/>
     <use style="fill:#ffffff;stroke:#424242;" x="275.935385" xlink:href="#ma2f29c481c" y="226.530704"/>
     <use style="fill:#ffffff;stroke:#424242;" x="278.242877" xlink:href="#ma2f29c481c" y="226.82165"/>
    </g>
   </g>
   <g id="line2d_23">
    <path clip-path="url(#pc6e1ebe8d5)" d="M 47.493638 58.790304 
L 49.80113 140.754163 
L 52.108623 131.095561 
L 54.416115 122.471759 
L 56.723607 143.219136 
L 59.0311 162.996674 
L 61.338592 155.014254 
L 63.646085 157.304397 
L 65.953577 163.445987 
L 68.261069 163.424162 
L 70.568562 164.061915 
L 72.876054 165.6936 
L 75.183546 166.271167 
L 77.491039 167.071098 
L 79.798531 167.997439 
L 82.106024 168.806768 
L 84.413516 169.6981 
L 86.721008 170.575525 
L 89.028501 171.47153 
L 91.335993 172.394254 
L 93.643486 173.326513 
L 95.950978 174.271544 
L 98.25847 175.223979 
L 100.565963 176.186659 
L 102.873455 177.156052 
L 105.180948 178.130244 
L 107.48844 179.107822 
L 109.795932 180.088373 
L 112.103425 181.070624 
L 114.410917 182.053544 
L 116.71841 183.036553 
L 119.025902 184.019176 
L 121.333394 185.000847 
L 123.640887 185.981203 
L 125.948379 186.960018 
L 128.255872 187.937064 
L 130.563364 188.912192 
L 132.870856 189.885337 
L 135.178349 190.856452 
L 137.485841 191.825535 
L 139.793334 192.792626 
L 142.100826 193.757782 
L 144.408318 194.721087 
L 146.715811 195.682642 
L 149.023303 196.642563 
L 151.330795 197.600979 
L 153.638288 198.558028 
L 155.94578 199.513855 
L 158.253273 200.468612 
L 160.560765 201.422455 
L 162.868257 202.375541 
L 165.17575 203.328033 
L 167.483242 204.280093 
L 169.790735 205.231882 
L 172.098227 206.183565 
L 174.405719 207.135304 
L 176.713212 208.087261 
L 179.020704 209.039596 
L 181.328197 209.992469 
L 183.635689 210.946038 
L 185.943181 211.900461 
L 188.250674 212.855892 
L 190.558166 213.812484 
L 192.865659 214.77039 
L 195.173151 215.729759 
L 197.480643 216.69074 
L 199.788136 217.653479 
L 202.095628 218.618123 
L 204.403121 219.584813 
L 206.710613 220.553693 
L 209.018105 221.524903 
L 211.325598 222.498582 
L 213.63309 223.474869 
L 215.940583 224.453899 
L 218.248075 225.435809 
L 220.555567 226.420732 
L 222.86306 227.408803 
L 225.170552 228.400153 
L 227.478044 229.394914 
L 229.785537 230.393217 
L 232.093029 231.395192 
L 234.400522 232.400969 
L 236.708014 233.410675 
L 239.015506 234.424439 
L 241.322999 235.442389 
L 243.630491 236.464653 
L 245.937984 237.491356 
L 248.245476 238.522628 
L 250.552968 239.558593 
L 252.860461 240.599378 
L 255.167953 241.64511 
L 257.475446 242.695916 
L 259.782938 243.751921 
L 262.09043 244.813252 
L 264.397923 245.880036 
L 266.705415 246.952401 
L 269.012908 248.030472 
L 271.3204 249.114378 
L 273.627892 250.204245 
L 275.935385 251.300099 
L 278.242877 252.396561 
" style="fill:none;stroke:#424242;stroke-linecap:round;"/>
   </g>
   <g id="PathCollection_5">
    <g clip-path="url(#pc6e1ebe8d5)">
     <use style="fill:#ffffff;stroke:#424242;" x="47.493638" xlink:href="#ma2f29c481c" y="58.790304"/>
     <use style="fill:#ffffff;stroke:#424242;" x="49.80113" xlink:href="#ma2f29c481c" y="140.754163"/>
     <use style="fill:#ffffff;stroke:#424242;" x="52.108623" xlink:href="#ma2f29c481c" y="131.095561"/>
     <use style="fill:#ffffff;stroke:#424242;" x="54.416115" xlink:href="#ma2f29c481c" y="122.471759"/>
     <use style="fill:#ffffff;stroke:#424242;" x="56.723607" xlink:href="#ma2f29c481c" y="143.219136"/>
     <use style="fill:#ffffff;stroke:#424242;" x="59.0311" xlink:href="#ma2f29c481c" y="162.996674"/>
     <use style="fill:#ffffff;stroke:#424242;" x="61.338592" xlink:href="#ma2f29c481c" y="155.014254"/>
     <use style="fill:#ffffff;stroke:#424242;" x="63.646085" xlink:href="#ma2f29c481c" y="157.304397"/>
     <use style="fill:#ffffff;stroke:#424242;" x="65.953577" xlink:href="#ma2f29c481c" y="163.445987"/>
     <use style="fill:#ffffff;stroke:#424242;" x="68.261069" xlink:href="#ma2f29c481c" y="163.424162"/>
     <use style="fill:#ffffff;stroke:#424242;" x="70.568562" xlink:href="#ma2f29c481c" y="164.061915"/>
     <use style="fill:#ffffff;stroke:#424242;" x="72.876054" xlink:href="#ma2f29c481c" y="165.6936"/>
     <use style="fill:#ffffff;stroke:#424242;" x="75.183546" xlink:href="#ma2f29c481c" y="166.271167"/>
     <use style="fill:#ffffff;stroke:#424242;" x="77.491039" xlink:href="#ma2f29c481c" y="167.071098"/>
     <use style="fill:#ffffff;stroke:#424242;" x="79.798531" xlink:href="#ma2f29c481c" y="167.997439"/>
     <use style="fill:#ffffff;stroke:#424242;" x="82.106024" xlink:href="#ma2f29c481c" y="168.806768"/>
     <use style="fill:#ffffff;stroke:#424242;" x="84.413516" xlink:href="#ma2f29c481c" y="169.6981"/>
     <use style="fill:#ffffff;stroke:#424242;" x="86.721008" xlink:href="#ma2f29c481c" y="170.575525"/>
     <use style="fill:#ffffff;stroke:#424242;" x="89.028501" xlink:href="#ma2f29c481c" y="171.47153"/>
     <use style="fill:#ffffff;stroke:#424242;" x="91.335993" xlink:href="#ma2f29c481c" y="172.394254"/>
     <use style="fill:#ffffff;stroke:#424242;" x="93.643486" xlink:href="#ma2f29c481c" y="173.326513"/>
     <use style="fill:#ffffff;stroke:#424242;" x="95.950978" xlink:href="#ma2f29c481c" y="174.271544"/>
     <use style="fill:#ffffff;stroke:#424242;" x="98.25847" xlink:href="#ma2f29c481c" y="175.223979"/>
     <use style="fill:#ffffff;stroke:#424242;" x="100.565963" xlink:href="#ma2f29c481c" y="176.186659"/>
     <use style="fill:#ffffff;stroke:#424242;" x="102.873455" xlink:href="#ma2f29c481c" y="177.156052"/>
     <use style="fill:#ffffff;stroke:#424242;" x="105.180948" xlink:href="#ma2f29c481c" y="178.130244"/>
     <use style="fill:#ffffff;stroke:#424242;" x="107.48844" xlink:href="#ma2f29c481c" y="179.107822"/>
     <use style="fill:#ffffff;stroke:#424242;" x="109.795932" xlink:href="#ma2f29c481c" y="180.088373"/>
     <use style="fill:#ffffff;stroke:#424242;" x="112.103425" xlink:href="#ma2f29c481c" y="181.070624"/>
     <use style="fill:#ffffff;stroke:#424242;" x="114.410917" xlink:href="#ma2f29c481c" y="182.053544"/>
     <use style="fill:#ffffff;stroke:#424242;" x="116.71841" xlink:href="#ma2f29c481c" y="183.036553"/>
     <use style="fill:#ffffff;stroke:#424242;" x="119.025902" xlink:href="#ma2f29c481c" y="184.019176"/>
     <use style="fill:#ffffff;stroke:#424242;" x="121.333394" xlink:href="#ma2f29c481c" y="185.000847"/>
     <use style="fill:#ffffff;stroke:#424242;" x="123.640887" xlink:href="#ma2f29c481c" y="185.981203"/>
     <use style="fill:#ffffff;stroke:#424242;" x="125.948379" xlink:href="#ma2f29c481c" y="186.960018"/>
     <use style="fill:#ffffff;stroke:#424242;" x="128.255872" xlink:href="#ma2f29c481c" y="187.937064"/>
     <use style="fill:#ffffff;stroke:#424242;" x="130.563364" xlink:href="#ma2f29c481c" y="188.912192"/>
     <use style="fill:#ffffff;stroke:#424242;" x="132.870856" xlink:href="#ma2f29c481c" y="189.885337"/>
     <use style="fill:#ffffff;stroke:#424242;" x="135.178349" xlink:href="#ma2f29c481c" y="190.856452"/>
     <use style="fill:#ffffff;stroke:#424242;" x="137.485841" xlink:href="#ma2f29c481c" y="191.825535"/>
     <use style="fill:#ffffff;stroke:#424242;" x="139.793334" xlink:href="#ma2f29c481c" y="192.792626"/>
     <use style="fill:#ffffff;stroke:#424242;" x="142.100826" xlink:href="#ma2f29c481c" y="193.757782"/>
     <use style="fill:#ffffff;stroke:#424242;" x="144.408318" xlink:href="#ma2f29c481c" y="194.721087"/>
     <use style="fill:#ffffff;stroke:#424242;" x="146.715811" xlink:href="#ma2f29c481c" y="195.682642"/>
     <use style="fill:#ffffff;stroke:#424242;" x="149.023303" xlink:href="#ma2f29c481c" y="196.642563"/>
     <use style="fill:#ffffff;stroke:#424242;" x="151.330795" xlink:href="#ma2f29c481c" y="197.600979"/>
     <use style="fill:#ffffff;stroke:#424242;" x="153.638288" xlink:href="#ma2f29c481c" y="198.558028"/>
     <use style="fill:#ffffff;stroke:#424242;" x="155.94578" xlink:href="#ma2f29c481c" y="199.513855"/>
     <use style="fill:#ffffff;stroke:#424242;" x="158.253273" xlink:href="#ma2f29c481c" y="200.468612"/>
     <use style="fill:#ffffff;stroke:#424242;" x="160.560765" xlink:href="#ma2f29c481c" y="201.422455"/>
     <use style="fill:#ffffff;stroke:#424242;" x="162.868257" xlink:href="#ma2f29c481c" y="202.375541"/>
     <use style="fill:#ffffff;stroke:#424242;" x="165.17575" xlink:href="#ma2f29c481c" y="203.328033"/>
     <use style="fill:#ffffff;stroke:#424242;" x="167.483242" xlink:href="#ma2f29c481c" y="204.280093"/>
     <use style="fill:#ffffff;stroke:#424242;" x="169.790735" xlink:href="#ma2f29c481c" y="205.231882"/>
     <use style="fill:#ffffff;stroke:#424242;" x="172.098227" xlink:href="#ma2f29c481c" y="206.183565"/>
     <use style="fill:#ffffff;stroke:#424242;" x="174.405719" xlink:href="#ma2f29c481c" y="207.135304"/>
     <use style="fill:#ffffff;stroke:#424242;" x="176.713212" xlink:href="#ma2f29c481c" y="208.087261"/>
     <use style="fill:#ffffff;stroke:#424242;" x="179.020704" xlink:href="#ma2f29c481c" y="209.039596"/>
     <use style="fill:#ffffff;stroke:#424242;" x="181.328197" xlink:href="#ma2f29c481c" y="209.992469"/>
     <use style="fill:#ffffff;stroke:#424242;" x="183.635689" xlink:href="#ma2f29c481c" y="210.946038"/>
     <use style="fill:#ffffff;stroke:#424242;" x="185.943181" xlink:href="#ma2f29c481c" y="211.900461"/>
     <use style="fill:#ffffff;stroke:#424242;" x="188.250674" xlink:href="#ma2f29c481c" y="212.855892"/>
     <use style="fill:#ffffff;stroke:#424242;" x="190.558166" xlink:href="#ma2f29c481c" y="213.812484"/>
     <use style="fill:#ffffff;stroke:#424242;" x="192.865659" xlink:href="#ma2f29c481c" y="214.77039"/>
     <use style="fill:#ffffff;stroke:#424242;" x="195.173151" xlink:href="#ma2f29c481c" y="215.729759"/>
     <use style="fill:#ffffff;stroke:#424242;" x="197.480643" xlink:href="#ma2f29c481c" y="216.69074"/>
     <use style="fill:#ffffff;stroke:#424242;" x="199.788136" xlink:href="#ma2f29c481c" y="217.653479"/>
     <use style="fill:#ffffff;stroke:#424242;" x="202.095628" xlink:href="#ma2f29c481c" y="218.618123"/>
     <use style="fill:#ffffff;stroke:#424242;" x="204.403121" xlink:href="#ma2f29c481c" y="219.584813"/>
     <use style="fill:#ffffff;stroke:#424242;" x="206.710613" xlink:href="#ma2f29c481c" y="220.553693"/>
     <use style="fill:#ffffff;stroke:#424242;" x="209.018105" xlink:href="#ma2f29c481c" y="221.524903"/>
     <use style="fill:#ffffff;stroke:#424242;" x="211.325598" xlink:href="#ma2f29c481c" y="222.498582"/>
     <use style="fill:#ffffff;stroke:#424242;" x="213.63309" xlink:href="#ma2f29c481c" y="223.474869"/>
     <use style="fill:#ffffff;stroke:#424242;" x="215.940583" xlink:href="#ma2f29c481c" y="224.453899"/>
     <use style="fill:#ffffff;stroke:#424242;" x="218.248075" xlink:href="#ma2f29c481c" y="225.435809"/>
     <use style="fill:#ffffff;stroke:#424242;" x="220.555567" xlink:href="#ma2f29c481c" y="226.420732"/>
     <use style="fill:#ffffff;stroke:#424242;" x="222.86306" xlink:href="#ma2f29c481c" y="227.408803"/>
     <use style="fill:#ffffff;stroke:#424242;" x="225.170552" xlink:href="#ma2f29c481c" y="228.400153"/>
     <use style="fill:#ffffff;stroke:#424242;" x="227.478044" xlink:href="#ma2f29c481c" y="229.394914"/>
     <use style="fill:#ffffff;stroke:#424242;" x="229.785537" xlink:href="#ma2f29c481c" y="230.393217"/>
     <use style="fill:#ffffff;stroke:#424242;" x="232.093029" xlink:href="#ma2f29c481c" y="231.395192"/>
     <use style="fill:#ffffff;stroke:#424242;" x="234.400522" xlink:href="#ma2f29c481c" y="232.400969"/>
     <use style="fill:#ffffff;stroke:#424242;" x="236.708014" xlink:href="#ma2f29c481c" y="233.410675"/>
     <use style="fill:#ffffff;stroke:#424242;" x="239.015506" xlink:href="#ma2f29c481c" y="234.424439"/>
     <use style="fill:#ffffff;stroke:#424242;" x="241.322999" xlink:href="#ma2f29c481c" y="235.442389"/>
     <use style="fill:#ffffff;stroke:#424242;" x="243.630491" xlink:href="#ma2f29c481c" y="236.464653"/>
     <use style="fill:#ffffff;stroke:#424242;" x="245.937984" xlink:href="#ma2f29c481c" y="237.491356"/>
     <use style="fill:#ffffff;stroke:#424242;" x="248.245476" xlink:href="#ma2f29c481c" y="238.522628"/>
     <use style="fill:#ffffff;stroke:#424242;" x="250.552968" xlink:href="#ma2f29c481c" y="239.558593"/>
     <use style="fill:#ffffff;stroke:#424242;" x="252.860461" xlink:href="#ma2f29c481c" y="240.599378"/>
     <use style="fill:#ffffff;stroke:#424242;" x="255.167953" xlink:href="#ma2f29c481c" y="241.64511"/>
     <use style="fill:#ffffff;stroke:#424242;" x="257.475446" xlink:href="#ma2f29c481c" y="242.695916"/>
     <use style="fill:#ffffff;stroke:#424242;" x="259.782938" xlink:href="#ma2f29c481c" y="243.751921"/>
     <use style="fill:#ffffff;stroke:#424242;" x="262.09043" xlink:href="#ma2f29c481c" y="244.813252"/>
     <use style="fill:#ffffff;stroke:#424242;" x="264.397923" xlink:href="#ma2f29c481c" y="245.880036"/>
     <use style="fill:#ffffff;stroke:#424242;" x="266.705415" xlink:href="#ma2f29c481c" y="246.952401"/>
     <use style="fill:#ffffff;stroke:#424242;" x="269.012908" xlink:href="#ma2f29c481c" y="248.030472"/>
     <use style="fill:#ffffff;stroke:#424242;" x="271.3204" xlink:href="#ma2f29c481c" y="249.114378"/>
     <use style="fill:#ffffff;stroke:#424242;" x="273.627892" xlink:href="#ma2f29c481c" y="250.204245"/>
     <use style="fill:#ffffff;stroke:#424242;" x="275.935385" xlink:href="#ma2f29c481c" y="251.300099"/>
     <use style="fill:#ffffff;stroke:#424242;" x="278.242877" xlink:href="#ma2f29c481c" y="252.396561"/>
    </g>
   </g>
  </g>
 </g>
 <defs>
  <clipPath id="pc6e1ebe8d5">
   <rect height="256.830709" width="244.594194" x="40.571161" y="2.834646"/>
  </clipPath>
 </defs>
</svg>
