<?xml version="1.0" encoding="utf-8" standalone="no"?>
<!DOCTYPE svg PUBLIC "-//W3C//DTD SVG 1.1//EN"
  "http://www.w3.org/Graphics/SVG/1.1/DTD/svg11.dtd">
<!-- Created with matplotlib (https://matplotlib.org/) -->
<svg height="432pt" version="1.1" viewBox="0 0 576 432" width="576pt" xmlns="http://www.w3.org/2000/svg" xmlns:xlink="http://www.w3.org/1999/xlink">
 <defs>
  <style type="text/css">
*{stroke-linecap:butt;stroke-linejoin:round;}
  </style>
 </defs>
 <g id="figure_1">
  <g id="patch_1">
   <path d="M 0 432 
L 576 432 
L 576 0 
L 0 0 
z
" style="fill:#ffffff;"/>
  </g>
  <g id="axes_1">
   <g id="patch_2">
    <path d="M 72 384.48 
L 518.4 384.48 
L 518.4 51.84 
L 72 51.84 
z
" style="fill:#ffffff;"/>
   </g>
   <g id="PolyCollection_1">
    <path clip-path="url(#p9fac3408cf)" d="M 72 100.47512 
L 72 94.667922 
L 80.928 95.391362 
L 89.856 96.375655 
L 98.784 96.121214 
L 107.712 97.625129 
L 116.64 98.275414 
L 125.568 96.651615 
L 134.496 98.020806 
L 143.424 97.970289 
L 152.352 98.050811 
L 161.28 99.042791 
L 170.208 98.488724 
L 179.136 97.589884 
L 188.064 98.621856 
L 196.992 96.059635 
L 205.92 98.114667 
L 214.848 99.039175 
L 223.776 98.831472 
L 232.704 98.622334 
L 241.632 99.207392 
L 250.56 99.832841 
L 259.488 98.970997 
L 268.416 99.869774 
L 277.344 99.665534 
L 286.272 98.677966 
L 295.2 99.999484 
L 304.128 99.141871 
L 313.056 99.248357 
L 321.984 99.820397 
L 330.912 96.896647 
L 339.84 100.162059 
L 348.768 100.252565 
L 357.696 99.193947 
L 366.624 98.554925 
L 375.552 99.833399 
L 384.48 99.711173 
L 393.408 99.296529 
L 402.336 98.381672 
L 411.264 98.94176 
L 420.192 99.075646 
L 429.12 99.208176 
L 438.048 97.796918 
L 446.976 96.790952 
L 455.904 97.206386 
L 464.832 97.701658 
L 473.76 96.001752 
L 482.688 99.615992 
L 491.616 100.314082 
L 500.544 99.633169 
L 509.472 99.318201 
L 518.4 99.49008 
L 518.4 101.267845 
L 518.4 101.267845 
L 509.472 101.392496 
L 500.544 101.246723 
L 491.616 100.924104 
L 482.688 101.334744 
L 473.76 101.986796 
L 464.832 101.554571 
L 455.904 101.903052 
L 446.976 102.000684 
L 438.048 101.925767 
L 429.12 101.151401 
L 420.192 101.605818 
L 411.264 101.479678 
L 402.336 101.939809 
L 393.408 101.378544 
L 384.48 101.165545 
L 375.552 101.009954 
L 366.624 101.954038 
L 357.696 101.425693 
L 348.768 100.919565 
L 339.84 100.912195 
L 330.912 101.639267 
L 321.984 101.148394 
L 313.056 101.518005 
L 304.128 101.636375 
L 295.2 100.98229 
L 286.272 101.684234 
L 277.344 101.184943 
L 268.416 100.947758 
L 259.488 101.517579 
L 250.56 100.949073 
L 241.632 101.176787 
L 232.704 101.315286 
L 223.776 101.196864 
L 214.848 101.323607 
L 205.92 101.438429 
L 196.992 102.141776 
L 188.064 101.165077 
L 179.136 101.445158 
L 170.208 100.977341 
L 161.28 101.128001 
L 152.352 101.097441 
L 143.424 101.339804 
L 134.496 101.252818 
L 125.568 101.997866 
L 116.64 101.294884 
L 107.712 101.302151 
L 98.784 101.144519 
L 89.856 101.117124 
L 80.928 101.346846 
L 72 100.47512 
z
" style="fill:#1f77b4;fill-opacity:0.3;"/>
   </g>
   <g id="PolyCollection_2">
    <path clip-path="url(#p9fac3408cf)" d="M 72 105.911588 
L 72 82.094785 
L 80.928 86.752704 
L 89.856 88.183961 
L 98.784 90.76091 
L 107.712 91.626348 
L 116.64 96.199084 
L 125.568 100.509144 
L 134.496 106.196477 
L 143.424 110.153826 
L 152.352 113.887762 
L 161.28 115.973183 
L 170.208 124.70571 
L 179.136 134.748178 
L 188.064 143.677917 
L 196.992 156.780473 
L 205.92 162.516674 
L 214.848 165.134465 
L 223.776 170.716107 
L 232.704 180.540239 
L 241.632 188.680938 
L 250.56 201.001195 
L 259.488 211.694689 
L 268.416 225.404429 
L 277.344 233.848925 
L 286.272 241.090663 
L 295.2 244.298109 
L 304.128 252.197541 
L 313.056 254.300257 
L 321.984 256.819634 
L 330.912 257.432683 
L 339.84 258.270298 
L 348.768 259.807408 
L 357.696 262.80155 
L 366.624 263.726089 
L 375.552 269.005864 
L 384.48 269.332359 
L 393.408 274.251269 
L 402.336 274.872844 
L 411.264 276.080787 
L 420.192 280.969535 
L 429.12 286.79915 
L 438.048 287.882085 
L 446.976 289.715519 
L 455.904 289.545535 
L 464.832 290.383762 
L 473.76 293.032863 
L 482.688 294.484151 
L 491.616 295.881847 
L 500.544 298.262725 
L 509.472 301.220299 
L 518.4 302.837022 
L 518.4 358.927969 
L 518.4 358.927969 
L 509.472 357.951882 
L 500.544 356.579757 
L 491.616 353.368296 
L 482.688 352.418167 
L 473.76 351.248472 
L 464.832 349.810264 
L 455.904 348.233459 
L 446.976 348.436056 
L 438.048 346.653342 
L 429.12 346.315108 
L 420.192 344.064834 
L 411.264 343.367747 
L 402.336 339.390948 
L 393.408 338.799606 
L 384.48 336.220213 
L 375.552 333.265761 
L 366.624 331.121522 
L 357.696 328.786002 
L 348.768 326.713401 
L 339.84 323.913374 
L 330.912 321.113626 
L 321.984 318.125266 
L 313.056 314.829364 
L 304.128 312.551873 
L 295.2 310.327602 
L 286.272 305.125879 
L 277.344 304.949124 
L 268.416 297.218068 
L 259.488 291.990745 
L 250.56 285.141904 
L 241.632 276.779101 
L 232.704 265.322553 
L 223.776 250.469162 
L 214.848 241.011547 
L 205.92 225.073105 
L 196.992 211.372136 
L 188.064 198.847919 
L 179.136 185.697791 
L 170.208 178.498924 
L 161.28 166.813473 
L 152.352 149.227978 
L 143.424 137.796784 
L 134.496 128.556115 
L 125.568 124.53134 
L 116.64 118.362766 
L 107.712 113.932588 
L 98.784 108.80898 
L 89.856 104.625362 
L 80.928 104.605435 
L 72 105.911588 
z
" style="fill:#ff7f0e;fill-opacity:0.3;"/>
   </g>
   <g id="PolyCollection_3">
    <path clip-path="url(#p9fac3408cf)" d="M 72 101.552369 
L 72 91.263821 
L 80.928 93.377896 
L 89.856 95.087764 
L 98.784 96.163368 
L 107.712 98.325684 
L 116.64 99.516873 
L 125.568 101.752942 
L 134.496 103.430218 
L 143.424 104.87385 
L 152.352 106.076857 
L 161.28 107.564979 
L 170.208 109.583761 
L 179.136 110.858657 
L 188.064 112.049932 
L 196.992 113.311343 
L 205.92 115.553138 
L 214.848 116.287575 
L 223.776 116.797871 
L 232.704 117.82619 
L 241.632 118.558218 
L 250.56 119.119946 
L 259.488 119.375057 
L 268.416 120.029994 
L 277.344 120.743045 
L 286.272 121.695875 
L 295.2 122.058893 
L 304.128 123.946166 
L 313.056 125.360051 
L 321.984 125.96307 
L 330.912 127.142105 
L 339.84 127.605331 
L 348.768 129.471669 
L 357.696 130.163787 
L 366.624 130.349088 
L 375.552 130.410505 
L 384.48 130.630583 
L 393.408 131.507706 
L 402.336 132.917974 
L 411.264 134.021745 
L 420.192 134.480153 
L 429.12 134.630637 
L 438.048 134.855654 
L 446.976 135.22524 
L 455.904 137.265474 
L 464.832 137.999066 
L 473.76 138.422596 
L 482.688 139.295405 
L 491.616 141.439998 
L 500.544 142.38999 
L 509.472 143.014944 
L 518.4 143.594654 
L 518.4 159.667351 
L 518.4 159.667351 
L 509.472 158.907485 
L 500.544 158.474473 
L 491.616 157.571157 
L 482.688 157.514792 
L 473.76 156.95149 
L 464.832 155.962511 
L 455.904 155.029872 
L 446.976 154.768944 
L 438.048 154.610776 
L 429.12 154.292493 
L 420.192 153.761009 
L 411.264 153.109444 
L 402.336 152.548321 
L 393.408 152.111522 
L 384.48 150.784152 
L 375.552 150.309902 
L 366.624 149.498198 
L 357.696 148.661005 
L 348.768 148.385684 
L 339.84 147.73672 
L 330.912 145.588139 
L 321.984 143.735112 
L 313.056 142.506386 
L 304.128 141.981344 
L 295.2 141.582605 
L 286.272 140.596271 
L 277.344 139.647254 
L 268.416 138.017588 
L 259.488 136.656699 
L 250.56 136.221086 
L 241.632 135.225375 
L 232.704 134.649428 
L 223.776 133.884396 
L 214.848 133.233098 
L 205.92 132.508942 
L 196.992 131.436368 
L 188.064 130.160064 
L 179.136 128.912209 
L 170.208 127.836823 
L 161.28 126.314313 
L 152.352 124.926767 
L 143.424 122.602163 
L 134.496 120.221858 
L 125.568 118.291946 
L 116.64 115.555186 
L 107.712 112.319493 
L 98.784 109.349428 
L 89.856 105.84377 
L 80.928 101.66156 
L 72 101.552369 
z
" style="fill:#2ca02c;fill-opacity:0.3;"/>
   </g>
   <g id="PolyCollection_4">
    <path clip-path="url(#p9fac3408cf)" d="M 72 101.518439 
L 72 86.545826 
L 80.928 87.643592 
L 89.856 88.93981 
L 98.784 90.57089 
L 107.712 93.854434 
L 116.64 95.533151 
L 125.568 97.4291 
L 134.496 99.489401 
L 143.424 101.601646 
L 152.352 104.01733 
L 161.28 105.965441 
L 170.208 108.211282 
L 179.136 109.230649 
L 188.064 111.955622 
L 196.992 113.512606 
L 205.92 114.732787 
L 214.848 117.221487 
L 223.776 118.216669 
L 232.704 120.524635 
L 241.632 123.662006 
L 250.56 124.711038 
L 259.488 126.806237 
L 268.416 128.938595 
L 277.344 133.93394 
L 286.272 136.154428 
L 295.2 137.341307 
L 304.128 140.685484 
L 313.056 142.834364 
L 321.984 145.701119 
L 330.912 148.587503 
L 339.84 152.85657 
L 348.768 153.714279 
L 357.696 155.79648 
L 366.624 157.519946 
L 375.552 158.317021 
L 384.48 160.091387 
L 393.408 161.868283 
L 402.336 162.003412 
L 411.264 163.161347 
L 420.192 163.947653 
L 429.12 165.677076 
L 438.048 165.644453 
L 446.976 166.70643 
L 455.904 167.266566 
L 464.832 168.330738 
L 473.76 169.692865 
L 482.688 173.85838 
L 491.616 174.238936 
L 500.544 176.154122 
L 509.472 176.694624 
L 518.4 178.586228 
L 518.4 212.5007 
L 518.4 212.5007 
L 509.472 210.895582 
L 500.544 210.199326 
L 491.616 208.456729 
L 482.688 207.725638 
L 473.76 208.553758 
L 464.832 207.987847 
L 455.904 207.704699 
L 446.976 207.601234 
L 438.048 206.594191 
L 429.12 204.941907 
L 420.192 201.690612 
L 411.264 199.912495 
L 402.336 198.167931 
L 393.408 197.089679 
L 384.48 195.673762 
L 375.552 194.617731 
L 366.624 193.218717 
L 357.696 191.975187 
L 348.768 188.645881 
L 339.84 188.16166 
L 330.912 185.552396 
L 321.984 182.094249 
L 313.056 179.295657 
L 304.128 177.85252 
L 295.2 174.329057 
L 286.272 172.028421 
L 277.344 169.534245 
L 268.416 167.328215 
L 259.488 165.103739 
L 250.56 159.930898 
L 241.632 158.567085 
L 232.704 155.175401 
L 223.776 152.631868 
L 214.848 150.81369 
L 205.92 146.531242 
L 196.992 142.799975 
L 188.064 140.067753 
L 179.136 137.508332 
L 170.208 134.684882 
L 161.28 131.691229 
L 152.352 128.116379 
L 143.424 123.910578 
L 134.496 120.34255 
L 125.568 114.82556 
L 116.64 112.445011 
L 107.712 110.758718 
L 98.784 109.035116 
L 89.856 103.471673 
L 80.928 101.177412 
L 72 101.518439 
z
" style="fill:#d62728;fill-opacity:0.3;"/>
   </g>
   <g id="PolyCollection_5">
    <path clip-path="url(#p9fac3408cf)" d="M 72 102.360952 
L 72 85.397652 
L 80.928 88.029627 
L 89.856 88.496485 
L 98.784 90.280555 
L 107.712 93.601854 
L 116.64 97.334669 
L 125.568 100.697421 
L 134.496 101.527692 
L 143.424 104.126506 
L 152.352 108.154676 
L 161.28 109.893509 
L 170.208 112.914442 
L 179.136 116.134514 
L 188.064 120.196615 
L 196.992 121.504649 
L 205.92 124.710378 
L 214.848 128.274571 
L 223.776 129.625327 
L 232.704 132.819234 
L 241.632 133.522744 
L 250.56 136.057399 
L 259.488 138.398825 
L 268.416 141.666627 
L 277.344 144.300648 
L 286.272 150.413039 
L 295.2 155.10486 
L 304.128 160.819608 
L 313.056 163.781621 
L 321.984 165.138557 
L 330.912 169.469081 
L 339.84 174.589033 
L 348.768 179.424137 
L 357.696 182.002719 
L 366.624 185.764489 
L 375.552 187.701718 
L 384.48 188.90768 
L 393.408 190.693252 
L 402.336 192.09642 
L 411.264 192.331013 
L 420.192 194.65335 
L 429.12 196.216451 
L 438.048 199.32298 
L 446.976 200.496897 
L 455.904 202.741594 
L 464.832 205.396086 
L 473.76 211.479002 
L 482.688 212.886171 
L 491.616 214.045438 
L 500.544 218.083414 
L 509.472 219.75069 
L 518.4 219.84242 
L 518.4 263.191019 
L 518.4 263.191019 
L 509.472 262.161004 
L 500.544 261.456473 
L 491.616 258.129208 
L 482.688 257.435344 
L 473.76 255.640497 
L 464.832 252.84774 
L 455.904 249.351135 
L 446.976 246.066109 
L 438.048 244.054832 
L 429.12 240.284166 
L 420.192 237.706896 
L 411.264 236.99795 
L 402.336 236.287765 
L 393.408 232.696333 
L 384.48 232.140281 
L 375.552 231.129183 
L 366.624 226.45445 
L 357.696 224.592082 
L 348.768 223.208565 
L 339.84 219.334528 
L 330.912 216.215718 
L 321.984 211.819768 
L 313.056 209.234323 
L 304.128 206.409492 
L 295.2 203.366682 
L 286.272 199.815862 
L 277.344 198.684089 
L 268.416 195.622885 
L 259.488 189.753877 
L 250.56 183.835292 
L 241.632 180.290927 
L 232.704 174.945783 
L 223.776 171.828701 
L 214.848 167.533107 
L 205.92 162.092818 
L 196.992 159.426729 
L 188.064 153.684455 
L 179.136 146.601588 
L 170.208 140.747305 
L 161.28 138.08238 
L 152.352 134.196048 
L 143.424 128.500134 
L 134.496 122.632716 
L 125.568 120.657144 
L 116.64 115.414109 
L 107.712 113.392557 
L 98.784 110.188926 
L 89.856 108.669486 
L 80.928 106.641597 
L 72 102.360952 
z
" style="fill:#9467bd;fill-opacity:0.3;"/>
   </g>
   <g id="PolyCollection_6">
    <path clip-path="url(#p9fac3408cf)" d="M 72 103.030602 
L 72 87.498857 
L 80.928 88.912865 
L 89.856 89.016261 
L 98.784 92.170574 
L 107.712 94.742106 
L 116.64 97.091685 
L 125.568 100.961375 
L 134.496 103.88558 
L 143.424 106.854824 
L 152.352 108.948671 
L 161.28 112.787692 
L 170.208 122.879461 
L 179.136 135.667473 
L 188.064 142.248309 
L 196.992 152.467466 
L 205.92 156.332734 
L 214.848 168.864767 
L 223.776 182.680594 
L 232.704 190.723819 
L 241.632 200.007387 
L 250.56 207.79563 
L 259.488 221.243414 
L 268.416 228.732661 
L 277.344 235.626304 
L 286.272 238.516919 
L 295.2 247.192713 
L 304.128 255.54359 
L 313.056 259.437521 
L 321.984 265.356373 
L 330.912 271.703205 
L 339.84 274.473308 
L 348.768 277.281964 
L 357.696 281.263881 
L 366.624 282.074374 
L 375.552 284.097696 
L 384.48 275.462284 
L 393.408 292.004075 
L 402.336 292.85884 
L 411.264 297.153645 
L 420.192 298.152394 
L 429.12 304.886053 
L 438.048 307.192767 
L 446.976 307.250725 
L 455.904 312.565936 
L 464.832 315.171999 
L 473.76 317.143395 
L 482.688 318.091928 
L 491.616 322.183906 
L 500.544 322.308406 
L 509.472 321.551964 
L 518.4 325.499976 
L 518.4 365.324582 
L 518.4 365.324582 
L 509.472 364.69556 
L 500.544 364.297654 
L 491.616 363.329325 
L 482.688 361.628241 
L 473.76 360.063534 
L 464.832 360.272776 
L 455.904 357.753662 
L 446.976 357.761437 
L 438.048 356.73978 
L 429.12 355.824831 
L 420.192 356.660186 
L 411.264 357.474445 
L 402.336 353.996306 
L 393.408 352.378005 
L 384.48 352.221592 
L 375.552 347.840479 
L 366.624 345.015739 
L 357.696 340.925742 
L 348.768 337.298187 
L 339.84 330.204613 
L 330.912 329.740291 
L 321.984 327.630137 
L 313.056 324.194876 
L 304.128 321.014426 
L 295.2 315.708433 
L 286.272 308.361211 
L 277.344 308.631289 
L 268.416 303.614772 
L 259.488 300.304689 
L 250.56 288.34597 
L 241.632 284.26078 
L 232.704 269.809186 
L 223.776 250.152546 
L 214.848 241.730362 
L 205.92 230.952768 
L 196.992 219.332212 
L 188.064 206.307984 
L 179.136 187.666956 
L 170.208 169.284581 
L 161.28 151.578323 
L 152.352 137.504986 
L 143.424 128.361631 
L 134.496 123.032884 
L 125.568 122.529092 
L 116.64 117.502932 
L 107.712 114.184417 
L 98.784 108.40047 
L 89.856 103.046919 
L 80.928 101.53721 
L 72 103.030602 
z
" style="fill:#8c564b;fill-opacity:0.3;"/>
   </g>
   <g id="PolyCollection_7">
    <path clip-path="url(#p9fac3408cf)" d="M 72 103.077776 
L 72 82.514639 
L 80.928 95.632939 
L 89.856 96.274774 
L 98.784 96.614264 
L 107.712 97.396878 
L 116.64 98.102194 
L 125.568 98.204151 
L 134.496 98.429827 
L 143.424 98.415344 
L 152.352 98.536709 
L 161.28 98.560893 
L 170.208 98.590358 
L 179.136 98.756092 
L 188.064 99.03289 
L 196.992 99.090139 
L 205.92 99.214559 
L 214.848 99.330704 
L 223.776 99.35811 
L 232.704 99.39728 
L 241.632 99.425666 
L 250.56 99.342476 
L 259.488 99.397228 
L 268.416 99.509235 
L 277.344 99.439982 
L 286.272 99.515238 
L 295.2 99.544794 
L 304.128 99.521594 
L 313.056 99.562943 
L 321.984 99.654923 
L 330.912 99.676059 
L 339.84 99.703039 
L 348.768 99.753496 
L 357.696 99.731325 
L 366.624 99.832621 
L 375.552 99.913482 
L 384.48 99.918259 
L 393.408 99.912257 
L 402.336 99.989282 
L 411.264 100.022339 
L 420.192 100.063652 
L 429.12 100.090533 
L 438.048 100.053416 
L 446.976 100.041808 
L 455.904 100.088738 
L 464.832 100.148047 
L 473.76 100.17537 
L 482.688 100.144157 
L 491.616 100.141943 
L 500.544 100.155117 
L 509.472 100.120229 
L 518.4 100.127678 
L 518.4 100.825056 
L 518.4 100.825056 
L 509.472 100.834246 
L 500.544 100.832224 
L 491.616 100.828589 
L 482.688 100.814557 
L 473.76 100.783408 
L 464.832 100.792556 
L 455.904 100.826288 
L 446.976 100.836391 
L 438.048 100.83133 
L 429.12 100.787318 
L 420.192 100.798069 
L 411.264 100.803028 
L 402.336 100.807278 
L 393.408 100.822798 
L 384.48 100.818633 
L 375.552 100.812851 
L 366.624 100.829543 
L 357.696 100.872697 
L 348.768 100.824557 
L 339.84 100.817539 
L 330.912 100.810248 
L 321.984 100.810388 
L 313.056 100.8493 
L 304.128 100.889854 
L 295.2 100.846725 
L 286.272 100.842665 
L 277.344 100.844978 
L 268.416 100.836636 
L 259.488 100.887582 
L 250.56 100.908237 
L 241.632 100.838619 
L 232.704 100.881361 
L 223.776 100.946132 
L 214.848 100.908035 
L 205.92 100.904072 
L 196.992 100.991402 
L 188.064 101.05255 
L 179.136 101.110995 
L 170.208 101.172816 
L 161.28 101.213068 
L 152.352 101.095338 
L 143.424 101.040554 
L 134.496 100.993509 
L 125.568 101.126385 
L 116.64 101.220148 
L 107.712 101.403651 
L 98.784 101.200924 
L 89.856 100.981477 
L 80.928 100.465024 
L 72 103.077776 
z
" style="fill:#e377c2;fill-opacity:0.3;"/>
   </g>
   <g id="matplotlib.axis_1">
    <g id="xtick_1">
     <g id="line2d_1">
      <path clip-path="url(#p9fac3408cf)" d="M 72 384.48 
L 72 51.84 
" style="fill:none;stroke:#b0b0b0;stroke-linecap:square;stroke-width:0.8;"/>
     </g>
     <g id="line2d_2">
      <defs>
       <path d="M 0 0 
L 0 3.5 
" id="mecf2f3f9d6" style="stroke:#000000;stroke-width:0.8;"/>
      </defs>
      <g>
       <use style="stroke:#000000;stroke-width:0.8;" x="72" xlink:href="#mecf2f3f9d6" y="384.48"/>
      </g>
     </g>
     <g id="text_1">
      <!-- 0 -->
      <defs>
       <path d="M 31.78125 66.40625 
Q 24.171875 66.40625 20.328125 58.90625 
Q 16.5 51.421875 16.5 36.375 
Q 16.5 21.390625 20.328125 13.890625 
Q 24.171875 6.390625 31.78125 6.390625 
Q 39.453125 6.390625 43.28125 13.890625 
Q 47.125 21.390625 47.125 36.375 
Q 47.125 51.421875 43.28125 58.90625 
Q 39.453125 66.40625 31.78125 66.40625 
z
M 31.78125 74.21875 
Q 44.046875 74.21875 50.515625 64.515625 
Q 56.984375 54.828125 56.984375 36.375 
Q 56.984375 17.96875 50.515625 8.265625 
Q 44.046875 -1.421875 31.78125 -1.421875 
Q 19.53125 -1.421875 13.0625 8.265625 
Q 6.59375 17.96875 6.59375 36.375 
Q 6.59375 54.828125 13.0625 64.515625 
Q 19.53125 74.21875 31.78125 74.21875 
z
" id="DejaVuSans-48"/>
      </defs>
      <g transform="translate(68.81875 399.078438)scale(0.1 -0.1)">
       <use xlink:href="#DejaVuSans-48"/>
      </g>
     </g>
    </g>
    <g id="xtick_2">
     <g id="line2d_3">
      <path clip-path="url(#p9fac3408cf)" d="M 161.28 384.48 
L 161.28 51.84 
" style="fill:none;stroke:#b0b0b0;stroke-linecap:square;stroke-width:0.8;"/>
     </g>
     <g id="line2d_4">
      <g>
       <use style="stroke:#000000;stroke-width:0.8;" x="161.28" xlink:href="#mecf2f3f9d6" y="384.48"/>
      </g>
     </g>
     <g id="text_2">
      <!-- 10 -->
      <defs>
       <path d="M 12.40625 8.296875 
L 28.515625 8.296875 
L 28.515625 63.921875 
L 10.984375 60.40625 
L 10.984375 69.390625 
L 28.421875 72.90625 
L 38.28125 72.90625 
L 38.28125 8.296875 
L 54.390625 8.296875 
L 54.390625 0 
L 12.40625 0 
z
" id="DejaVuSans-49"/>
      </defs>
      <g transform="translate(154.9175 399.078438)scale(0.1 -0.1)">
       <use xlink:href="#DejaVuSans-49"/>
       <use x="63.623047" xlink:href="#DejaVuSans-48"/>
      </g>
     </g>
    </g>
    <g id="xtick_3">
     <g id="line2d_5">
      <path clip-path="url(#p9fac3408cf)" d="M 250.56 384.48 
L 250.56 51.84 
" style="fill:none;stroke:#b0b0b0;stroke-linecap:square;stroke-width:0.8;"/>
     </g>
     <g id="line2d_6">
      <g>
       <use style="stroke:#000000;stroke-width:0.8;" x="250.56" xlink:href="#mecf2f3f9d6" y="384.48"/>
      </g>
     </g>
     <g id="text_3">
      <!-- 20 -->
      <defs>
       <path d="M 19.1875 8.296875 
L 53.609375 8.296875 
L 53.609375 0 
L 7.328125 0 
L 7.328125 8.296875 
Q 12.9375 14.109375 22.625 23.890625 
Q 32.328125 33.6875 34.8125 36.53125 
Q 39.546875 41.84375 41.421875 45.53125 
Q 43.3125 49.21875 43.3125 52.78125 
Q 43.3125 58.59375 39.234375 62.25 
Q 35.15625 65.921875 28.609375 65.921875 
Q 23.96875 65.921875 18.8125 64.3125 
Q 13.671875 62.703125 7.8125 59.421875 
L 7.8125 69.390625 
Q 13.765625 71.78125 18.9375 73 
Q 24.125 74.21875 28.421875 74.21875 
Q 39.75 74.21875 46.484375 68.546875 
Q 53.21875 62.890625 53.21875 53.421875 
Q 53.21875 48.921875 51.53125 44.890625 
Q 49.859375 40.875 45.40625 35.40625 
Q 44.1875 33.984375 37.640625 27.21875 
Q 31.109375 20.453125 19.1875 8.296875 
z
" id="DejaVuSans-50"/>
      </defs>
      <g transform="translate(244.1975 399.078438)scale(0.1 -0.1)">
       <use xlink:href="#DejaVuSans-50"/>
       <use x="63.623047" xlink:href="#DejaVuSans-48"/>
      </g>
     </g>
    </g>
    <g id="xtick_4">
     <g id="line2d_7">
      <path clip-path="url(#p9fac3408cf)" d="M 339.84 384.48 
L 339.84 51.84 
" style="fill:none;stroke:#b0b0b0;stroke-linecap:square;stroke-width:0.8;"/>
     </g>
     <g id="line2d_8">
      <g>
       <use style="stroke:#000000;stroke-width:0.8;" x="339.84" xlink:href="#mecf2f3f9d6" y="384.48"/>
      </g>
     </g>
     <g id="text_4">
      <!-- 30 -->
      <defs>
       <path d="M 40.578125 39.3125 
Q 47.65625 37.796875 51.625 33 
Q 55.609375 28.21875 55.609375 21.1875 
Q 55.609375 10.40625 48.1875 4.484375 
Q 40.765625 -1.421875 27.09375 -1.421875 
Q 22.515625 -1.421875 17.65625 -0.515625 
Q 12.796875 0.390625 7.625 2.203125 
L 7.625 11.71875 
Q 11.71875 9.328125 16.59375 8.109375 
Q 21.484375 6.890625 26.8125 6.890625 
Q 36.078125 6.890625 40.9375 10.546875 
Q 45.796875 14.203125 45.796875 21.1875 
Q 45.796875 27.640625 41.28125 31.265625 
Q 36.765625 34.90625 28.71875 34.90625 
L 20.21875 34.90625 
L 20.21875 43.015625 
L 29.109375 43.015625 
Q 36.375 43.015625 40.234375 45.921875 
Q 44.09375 48.828125 44.09375 54.296875 
Q 44.09375 59.90625 40.109375 62.90625 
Q 36.140625 65.921875 28.71875 65.921875 
Q 24.65625 65.921875 20.015625 65.03125 
Q 15.375 64.15625 9.8125 62.3125 
L 9.8125 71.09375 
Q 15.4375 72.65625 20.34375 73.4375 
Q 25.25 74.21875 29.59375 74.21875 
Q 40.828125 74.21875 47.359375 69.109375 
Q 53.90625 64.015625 53.90625 55.328125 
Q 53.90625 49.265625 50.4375 45.09375 
Q 46.96875 40.921875 40.578125 39.3125 
z
" id="DejaVuSans-51"/>
      </defs>
      <g transform="translate(333.4775 399.078438)scale(0.1 -0.1)">
       <use xlink:href="#DejaVuSans-51"/>
       <use x="63.623047" xlink:href="#DejaVuSans-48"/>
      </g>
     </g>
    </g>
    <g id="xtick_5">
     <g id="line2d_9">
      <path clip-path="url(#p9fac3408cf)" d="M 429.12 384.48 
L 429.12 51.84 
" style="fill:none;stroke:#b0b0b0;stroke-linecap:square;stroke-width:0.8;"/>
     </g>
     <g id="line2d_10">
      <g>
       <use style="stroke:#000000;stroke-width:0.8;" x="429.12" xlink:href="#mecf2f3f9d6" y="384.48"/>
      </g>
     </g>
     <g id="text_5">
      <!-- 40 -->
      <defs>
       <path d="M 37.796875 64.3125 
L 12.890625 25.390625 
L 37.796875 25.390625 
z
M 35.203125 72.90625 
L 47.609375 72.90625 
L 47.609375 25.390625 
L 58.015625 25.390625 
L 58.015625 17.1875 
L 47.609375 17.1875 
L 47.609375 0 
L 37.796875 0 
L 37.796875 17.1875 
L 4.890625 17.1875 
L 4.890625 26.703125 
z
" id="DejaVuSans-52"/>
      </defs>
      <g transform="translate(422.7575 399.078438)scale(0.1 -0.1)">
       <use xlink:href="#DejaVuSans-52"/>
       <use x="63.623047" xlink:href="#DejaVuSans-48"/>
      </g>
     </g>
    </g>
    <g id="xtick_6">
     <g id="line2d_11">
      <path clip-path="url(#p9fac3408cf)" d="M 518.4 384.48 
L 518.4 51.84 
" style="fill:none;stroke:#b0b0b0;stroke-linecap:square;stroke-width:0.8;"/>
     </g>
     <g id="line2d_12">
      <g>
       <use style="stroke:#000000;stroke-width:0.8;" x="518.4" xlink:href="#mecf2f3f9d6" y="384.48"/>
      </g>
     </g>
     <g id="text_6">
      <!-- 50 -->
      <defs>
       <path d="M 10.796875 72.90625 
L 49.515625 72.90625 
L 49.515625 64.59375 
L 19.828125 64.59375 
L 19.828125 46.734375 
Q 21.96875 47.46875 24.109375 47.828125 
Q 26.265625 48.1875 28.421875 48.1875 
Q 40.625 48.1875 47.75 41.5 
Q 54.890625 34.8125 54.890625 23.390625 
Q 54.890625 11.625 47.5625 5.09375 
Q 40.234375 -1.421875 26.90625 -1.421875 
Q 22.3125 -1.421875 17.546875 -0.640625 
Q 12.796875 0.140625 7.71875 1.703125 
L 7.71875 11.625 
Q 12.109375 9.234375 16.796875 8.0625 
Q 21.484375 6.890625 26.703125 6.890625 
Q 35.15625 6.890625 40.078125 11.328125 
Q 45.015625 15.765625 45.015625 23.390625 
Q 45.015625 31 40.078125 35.4375 
Q 35.15625 39.890625 26.703125 39.890625 
Q 22.75 39.890625 18.8125 39.015625 
Q 14.890625 38.140625 10.796875 36.28125 
z
" id="DejaVuSans-53"/>
      </defs>
      <g transform="translate(512.0375 399.078438)scale(0.1 -0.1)">
       <use xlink:href="#DejaVuSans-53"/>
       <use x="63.623047" xlink:href="#DejaVuSans-48"/>
      </g>
     </g>
    </g>
    <g id="text_7">
     <!-- Iteration -->
     <defs>
      <path d="M 9.8125 72.90625 
L 19.671875 72.90625 
L 19.671875 0 
L 9.8125 0 
z
" id="DejaVuSans-73"/>
      <path d="M 18.3125 70.21875 
L 18.3125 54.6875 
L 36.8125 54.6875 
L 36.8125 47.703125 
L 18.3125 47.703125 
L 18.3125 18.015625 
Q 18.3125 11.328125 20.140625 9.421875 
Q 21.96875 7.515625 27.59375 7.515625 
L 36.8125 7.515625 
L 36.8125 0 
L 27.59375 0 
Q 17.1875 0 13.234375 3.875 
Q 9.28125 7.765625 9.28125 18.015625 
L 9.28125 47.703125 
L 2.6875 47.703125 
L 2.6875 54.6875 
L 9.28125 54.6875 
L 9.28125 70.21875 
z
" id="DejaVuSans-116"/>
      <path d="M 56.203125 29.59375 
L 56.203125 25.203125 
L 14.890625 25.203125 
Q 15.484375 15.921875 20.484375 11.0625 
Q 25.484375 6.203125 34.421875 6.203125 
Q 39.59375 6.203125 44.453125 7.46875 
Q 49.3125 8.734375 54.109375 11.28125 
L 54.109375 2.78125 
Q 49.265625 0.734375 44.1875 -0.34375 
Q 39.109375 -1.421875 33.890625 -1.421875 
Q 20.796875 -1.421875 13.15625 6.1875 
Q 5.515625 13.8125 5.515625 26.8125 
Q 5.515625 40.234375 12.765625 48.109375 
Q 20.015625 56 32.328125 56 
Q 43.359375 56 49.78125 48.890625 
Q 56.203125 41.796875 56.203125 29.59375 
z
M 47.21875 32.234375 
Q 47.125 39.59375 43.09375 43.984375 
Q 39.0625 48.390625 32.421875 48.390625 
Q 24.90625 48.390625 20.390625 44.140625 
Q 15.875 39.890625 15.1875 32.171875 
z
" id="DejaVuSans-101"/>
      <path d="M 41.109375 46.296875 
Q 39.59375 47.171875 37.8125 47.578125 
Q 36.03125 48 33.890625 48 
Q 26.265625 48 22.1875 43.046875 
Q 18.109375 38.09375 18.109375 28.8125 
L 18.109375 0 
L 9.078125 0 
L 9.078125 54.6875 
L 18.109375 54.6875 
L 18.109375 46.1875 
Q 20.953125 51.171875 25.484375 53.578125 
Q 30.03125 56 36.53125 56 
Q 37.453125 56 38.578125 55.875 
Q 39.703125 55.765625 41.0625 55.515625 
z
" id="DejaVuSans-114"/>
      <path d="M 34.28125 27.484375 
Q 23.390625 27.484375 19.1875 25 
Q 14.984375 22.515625 14.984375 16.5 
Q 14.984375 11.71875 18.140625 8.90625 
Q 21.296875 6.109375 26.703125 6.109375 
Q 34.1875 6.109375 38.703125 11.40625 
Q 43.21875 16.703125 43.21875 25.484375 
L 43.21875 27.484375 
z
M 52.203125 31.203125 
L 52.203125 0 
L 43.21875 0 
L 43.21875 8.296875 
Q 40.140625 3.328125 35.546875 0.953125 
Q 30.953125 -1.421875 24.3125 -1.421875 
Q 15.921875 -1.421875 10.953125 3.296875 
Q 6 8.015625 6 15.921875 
Q 6 25.140625 12.171875 29.828125 
Q 18.359375 34.515625 30.609375 34.515625 
L 43.21875 34.515625 
L 43.21875 35.40625 
Q 43.21875 41.609375 39.140625 45 
Q 35.0625 48.390625 27.6875 48.390625 
Q 23 48.390625 18.546875 47.265625 
Q 14.109375 46.140625 10.015625 43.890625 
L 10.015625 52.203125 
Q 14.9375 54.109375 19.578125 55.046875 
Q 24.21875 56 28.609375 56 
Q 40.484375 56 46.34375 49.84375 
Q 52.203125 43.703125 52.203125 31.203125 
z
" id="DejaVuSans-97"/>
      <path d="M 9.421875 54.6875 
L 18.40625 54.6875 
L 18.40625 0 
L 9.421875 0 
z
M 9.421875 75.984375 
L 18.40625 75.984375 
L 18.40625 64.59375 
L 9.421875 64.59375 
z
" id="DejaVuSans-105"/>
      <path d="M 30.609375 48.390625 
Q 23.390625 48.390625 19.1875 42.75 
Q 14.984375 37.109375 14.984375 27.296875 
Q 14.984375 17.484375 19.15625 11.84375 
Q 23.34375 6.203125 30.609375 6.203125 
Q 37.796875 6.203125 41.984375 11.859375 
Q 46.1875 17.53125 46.1875 27.296875 
Q 46.1875 37.015625 41.984375 42.703125 
Q 37.796875 48.390625 30.609375 48.390625 
z
M 30.609375 56 
Q 42.328125 56 49.015625 48.375 
Q 55.71875 40.765625 55.71875 27.296875 
Q 55.71875 13.875 49.015625 6.21875 
Q 42.328125 -1.421875 30.609375 -1.421875 
Q 18.84375 -1.421875 12.171875 6.21875 
Q 5.515625 13.875 5.515625 27.296875 
Q 5.515625 40.765625 12.171875 48.375 
Q 18.84375 56 30.609375 56 
z
" id="DejaVuSans-111"/>
      <path d="M 54.890625 33.015625 
L 54.890625 0 
L 45.90625 0 
L 45.90625 32.71875 
Q 45.90625 40.484375 42.875 44.328125 
Q 39.84375 48.1875 33.796875 48.1875 
Q 26.515625 48.1875 22.3125 43.546875 
Q 18.109375 38.921875 18.109375 30.90625 
L 18.109375 0 
L 9.078125 0 
L 9.078125 54.6875 
L 18.109375 54.6875 
L 18.109375 46.1875 
Q 21.34375 51.125 25.703125 53.5625 
Q 30.078125 56 35.796875 56 
Q 45.21875 56 50.046875 50.171875 
Q 54.890625 44.34375 54.890625 33.015625 
z
" id="DejaVuSans-110"/>
     </defs>
     <g transform="translate(273.991406 412.756563)scale(0.1 -0.1)">
      <use xlink:href="#DejaVuSans-73"/>
      <use x="29.492188" xlink:href="#DejaVuSans-116"/>
      <use x="68.701172" xlink:href="#DejaVuSans-101"/>
      <use x="130.224609" xlink:href="#DejaVuSans-114"/>
      <use x="171.337891" xlink:href="#DejaVuSans-97"/>
      <use x="232.617188" xlink:href="#DejaVuSans-116"/>
      <use x="271.826172" xlink:href="#DejaVuSans-105"/>
      <use x="299.609375" xlink:href="#DejaVuSans-111"/>
      <use x="360.791016" xlink:href="#DejaVuSans-110"/>
     </g>
    </g>
   </g>
   <g id="matplotlib.axis_2">
    <g id="ytick_1">
     <g id="line2d_13">
      <path clip-path="url(#p9fac3408cf)" d="M 72 384.48 
L 518.4 384.48 
" style="fill:none;stroke:#b0b0b0;stroke-linecap:square;stroke-width:0.8;"/>
     </g>
     <g id="line2d_14">
      <defs>
       <path d="M 0 0 
L -3.5 0 
" id="mc10884fbbc" style="stroke:#000000;stroke-width:0.8;"/>
      </defs>
      <g>
       <use style="stroke:#000000;stroke-width:0.8;" x="72" xlink:href="#mc10884fbbc" y="384.48"/>
      </g>
     </g>
     <g id="text_8">
      <!-- $\mathdefault{10^{-12}}$ -->
      <defs>
       <path d="M 10.59375 35.5 
L 73.1875 35.5 
L 73.1875 27.203125 
L 10.59375 27.203125 
z
" id="DejaVuSans-8722"/>
      </defs>
      <g transform="translate(37.1 388.279219)scale(0.1 -0.1)">
       <use transform="translate(0 0.765625)" xlink:href="#DejaVuSans-49"/>
       <use transform="translate(63.623047 0.765625)" xlink:href="#DejaVuSans-48"/>
       <use transform="translate(128.203125 39.046875)scale(0.7)" xlink:href="#DejaVuSans-8722"/>
       <use transform="translate(186.855469 39.046875)scale(0.7)" xlink:href="#DejaVuSans-49"/>
       <use transform="translate(231.391602 39.046875)scale(0.7)" xlink:href="#DejaVuSans-50"/>
      </g>
     </g>
    </g>
    <g id="ytick_2">
     <g id="line2d_15">
      <path clip-path="url(#p9fac3408cf)" d="M 72 336.96 
L 518.4 336.96 
" style="fill:none;stroke:#b0b0b0;stroke-linecap:square;stroke-width:0.8;"/>
     </g>
     <g id="line2d_16">
      <g>
       <use style="stroke:#000000;stroke-width:0.8;" x="72" xlink:href="#mc10884fbbc" y="336.96"/>
      </g>
     </g>
     <g id="text_9">
      <!-- $\mathdefault{10^{-10}}$ -->
      <g transform="translate(37.1 340.759219)scale(0.1 -0.1)">
       <use transform="translate(0 0.765625)" xlink:href="#DejaVuSans-49"/>
       <use transform="translate(63.623047 0.765625)" xlink:href="#DejaVuSans-48"/>
       <use transform="translate(128.203125 39.046875)scale(0.7)" xlink:href="#DejaVuSans-8722"/>
       <use transform="translate(186.855469 39.046875)scale(0.7)" xlink:href="#DejaVuSans-49"/>
       <use transform="translate(231.391602 39.046875)scale(0.7)" xlink:href="#DejaVuSans-48"/>
      </g>
     </g>
    </g>
    <g id="ytick_3">
     <g id="line2d_17">
      <path clip-path="url(#p9fac3408cf)" d="M 72 289.44 
L 518.4 289.44 
" style="fill:none;stroke:#b0b0b0;stroke-linecap:square;stroke-width:0.8;"/>
     </g>
     <g id="line2d_18">
      <g>
       <use style="stroke:#000000;stroke-width:0.8;" x="72" xlink:href="#mc10884fbbc" y="289.44"/>
      </g>
     </g>
     <g id="text_10">
      <!-- $\mathdefault{10^{-8}}$ -->
      <defs>
       <path d="M 31.78125 34.625 
Q 24.75 34.625 20.71875 30.859375 
Q 16.703125 27.09375 16.703125 20.515625 
Q 16.703125 13.921875 20.71875 10.15625 
Q 24.75 6.390625 31.78125 6.390625 
Q 38.8125 6.390625 42.859375 10.171875 
Q 46.921875 13.96875 46.921875 20.515625 
Q 46.921875 27.09375 42.890625 30.859375 
Q 38.875 34.625 31.78125 34.625 
z
M 21.921875 38.8125 
Q 15.578125 40.375 12.03125 44.71875 
Q 8.5 49.078125 8.5 55.328125 
Q 8.5 64.0625 14.71875 69.140625 
Q 20.953125 74.21875 31.78125 74.21875 
Q 42.671875 74.21875 48.875 69.140625 
Q 55.078125 64.0625 55.078125 55.328125 
Q 55.078125 49.078125 51.53125 44.71875 
Q 48 40.375 41.703125 38.8125 
Q 48.828125 37.15625 52.796875 32.3125 
Q 56.78125 27.484375 56.78125 20.515625 
Q 56.78125 9.90625 50.3125 4.234375 
Q 43.84375 -1.421875 31.78125 -1.421875 
Q 19.734375 -1.421875 13.25 4.234375 
Q 6.78125 9.90625 6.78125 20.515625 
Q 6.78125 27.484375 10.78125 32.3125 
Q 14.796875 37.15625 21.921875 38.8125 
z
M 18.3125 54.390625 
Q 18.3125 48.734375 21.84375 45.5625 
Q 25.390625 42.390625 31.78125 42.390625 
Q 38.140625 42.390625 41.71875 45.5625 
Q 45.3125 48.734375 45.3125 54.390625 
Q 45.3125 60.0625 41.71875 63.234375 
Q 38.140625 66.40625 31.78125 66.40625 
Q 25.390625 66.40625 21.84375 63.234375 
Q 18.3125 60.0625 18.3125 54.390625 
z
" id="DejaVuSans-56"/>
      </defs>
      <g transform="translate(41.5 293.239219)scale(0.1 -0.1)">
       <use transform="translate(0 0.765625)" xlink:href="#DejaVuSans-49"/>
       <use transform="translate(63.623047 0.765625)" xlink:href="#DejaVuSans-48"/>
       <use transform="translate(128.203125 39.046875)scale(0.7)" xlink:href="#DejaVuSans-8722"/>
       <use transform="translate(186.855469 39.046875)scale(0.7)" xlink:href="#DejaVuSans-56"/>
      </g>
     </g>
    </g>
    <g id="ytick_4">
     <g id="line2d_19">
      <path clip-path="url(#p9fac3408cf)" d="M 72 241.92 
L 518.4 241.92 
" style="fill:none;stroke:#b0b0b0;stroke-linecap:square;stroke-width:0.8;"/>
     </g>
     <g id="line2d_20">
      <g>
       <use style="stroke:#000000;stroke-width:0.8;" x="72" xlink:href="#mc10884fbbc" y="241.92"/>
      </g>
     </g>
     <g id="text_11">
      <!-- $\mathdefault{10^{-6}}$ -->
      <defs>
       <path d="M 33.015625 40.375 
Q 26.375 40.375 22.484375 35.828125 
Q 18.609375 31.296875 18.609375 23.390625 
Q 18.609375 15.53125 22.484375 10.953125 
Q 26.375 6.390625 33.015625 6.390625 
Q 39.65625 6.390625 43.53125 10.953125 
Q 47.40625 15.53125 47.40625 23.390625 
Q 47.40625 31.296875 43.53125 35.828125 
Q 39.65625 40.375 33.015625 40.375 
z
M 52.59375 71.296875 
L 52.59375 62.3125 
Q 48.875 64.0625 45.09375 64.984375 
Q 41.3125 65.921875 37.59375 65.921875 
Q 27.828125 65.921875 22.671875 59.328125 
Q 17.53125 52.734375 16.796875 39.40625 
Q 19.671875 43.65625 24.015625 45.921875 
Q 28.375 48.1875 33.59375 48.1875 
Q 44.578125 48.1875 50.953125 41.515625 
Q 57.328125 34.859375 57.328125 23.390625 
Q 57.328125 12.15625 50.6875 5.359375 
Q 44.046875 -1.421875 33.015625 -1.421875 
Q 20.359375 -1.421875 13.671875 8.265625 
Q 6.984375 17.96875 6.984375 36.375 
Q 6.984375 53.65625 15.1875 63.9375 
Q 23.390625 74.21875 37.203125 74.21875 
Q 40.921875 74.21875 44.703125 73.484375 
Q 48.484375 72.75 52.59375 71.296875 
z
" id="DejaVuSans-54"/>
      </defs>
      <g transform="translate(41.5 245.719219)scale(0.1 -0.1)">
       <use transform="translate(0 0.765625)" xlink:href="#DejaVuSans-49"/>
       <use transform="translate(63.623047 0.765625)" xlink:href="#DejaVuSans-48"/>
       <use transform="translate(128.203125 39.046875)scale(0.7)" xlink:href="#DejaVuSans-8722"/>
       <use transform="translate(186.855469 39.046875)scale(0.7)" xlink:href="#DejaVuSans-54"/>
      </g>
     </g>
    </g>
    <g id="ytick_5">
     <g id="line2d_21">
      <path clip-path="url(#p9fac3408cf)" d="M 72 194.4 
L 518.4 194.4 
" style="fill:none;stroke:#b0b0b0;stroke-linecap:square;stroke-width:0.8;"/>
     </g>
     <g id="line2d_22">
      <g>
       <use style="stroke:#000000;stroke-width:0.8;" x="72" xlink:href="#mc10884fbbc" y="194.4"/>
      </g>
     </g>
     <g id="text_12">
      <!-- $\mathdefault{10^{-4}}$ -->
      <g transform="translate(41.5 198.199219)scale(0.1 -0.1)">
       <use transform="translate(0 0.684375)" xlink:href="#DejaVuSans-49"/>
       <use transform="translate(63.623047 0.684375)" xlink:href="#DejaVuSans-48"/>
       <use transform="translate(128.203125 38.965625)scale(0.7)" xlink:href="#DejaVuSans-8722"/>
       <use transform="translate(186.855469 38.965625)scale(0.7)" xlink:href="#DejaVuSans-52"/>
      </g>
     </g>
    </g>
    <g id="ytick_6">
     <g id="line2d_23">
      <path clip-path="url(#p9fac3408cf)" d="M 72 146.88 
L 518.4 146.88 
" style="fill:none;stroke:#b0b0b0;stroke-linecap:square;stroke-width:0.8;"/>
     </g>
     <g id="line2d_24">
      <g>
       <use style="stroke:#000000;stroke-width:0.8;" x="72" xlink:href="#mc10884fbbc" y="146.88"/>
      </g>
     </g>
     <g id="text_13">
      <!-- $\mathdefault{10^{-2}}$ -->
      <g transform="translate(41.5 150.679219)scale(0.1 -0.1)">
       <use transform="translate(0 0.765625)" xlink:href="#DejaVuSans-49"/>
       <use transform="translate(63.623047 0.765625)" xlink:href="#DejaVuSans-48"/>
       <use transform="translate(128.203125 39.046875)scale(0.7)" xlink:href="#DejaVuSans-8722"/>
       <use transform="translate(186.855469 39.046875)scale(0.7)" xlink:href="#DejaVuSans-50"/>
      </g>
     </g>
    </g>
    <g id="ytick_7">
     <g id="line2d_25">
      <path clip-path="url(#p9fac3408cf)" d="M 72 99.36 
L 518.4 99.36 
" style="fill:none;stroke:#b0b0b0;stroke-linecap:square;stroke-width:0.8;"/>
     </g>
     <g id="line2d_26">
      <g>
       <use style="stroke:#000000;stroke-width:0.8;" x="72" xlink:href="#mc10884fbbc" y="99.36"/>
      </g>
     </g>
     <g id="text_14">
      <!-- $\mathdefault{10^{0}}$ -->
      <g transform="translate(47.4 103.159219)scale(0.1 -0.1)">
       <use transform="translate(0 0.765625)" xlink:href="#DejaVuSans-49"/>
       <use transform="translate(63.623047 0.765625)" xlink:href="#DejaVuSans-48"/>
       <use transform="translate(128.203125 39.046875)scale(0.7)" xlink:href="#DejaVuSans-48"/>
      </g>
     </g>
    </g>
    <g id="ytick_8">
     <g id="line2d_27">
      <path clip-path="url(#p9fac3408cf)" d="M 72 51.84 
L 518.4 51.84 
" style="fill:none;stroke:#b0b0b0;stroke-linecap:square;stroke-width:0.8;"/>
     </g>
     <g id="line2d_28">
      <g>
       <use style="stroke:#000000;stroke-width:0.8;" x="72" xlink:href="#mc10884fbbc" y="51.84"/>
      </g>
     </g>
     <g id="text_15">
      <!-- $\mathdefault{10^{2}}$ -->
      <g transform="translate(47.4 55.639219)scale(0.1 -0.1)">
       <use transform="translate(0 0.765625)" xlink:href="#DejaVuSans-49"/>
       <use transform="translate(63.623047 0.765625)" xlink:href="#DejaVuSans-48"/>
       <use transform="translate(128.203125 39.046875)scale(0.7)" xlink:href="#DejaVuSans-50"/>
      </g>
     </g>
    </g>
    <g id="text_16">
     <!-- Integrated Squared Error -->
     <defs>
      <path d="M 45.40625 27.984375 
Q 45.40625 37.75 41.375 43.109375 
Q 37.359375 48.484375 30.078125 48.484375 
Q 22.859375 48.484375 18.828125 43.109375 
Q 14.796875 37.75 14.796875 27.984375 
Q 14.796875 18.265625 18.828125 12.890625 
Q 22.859375 7.515625 30.078125 7.515625 
Q 37.359375 7.515625 41.375 12.890625 
Q 45.40625 18.265625 45.40625 27.984375 
z
M 54.390625 6.78125 
Q 54.390625 -7.171875 48.1875 -13.984375 
Q 42 -20.796875 29.203125 -20.796875 
Q 24.46875 -20.796875 20.265625 -20.09375 
Q 16.0625 -19.390625 12.109375 -17.921875 
L 12.109375 -9.1875 
Q 16.0625 -11.328125 19.921875 -12.34375 
Q 23.78125 -13.375 27.78125 -13.375 
Q 36.625 -13.375 41.015625 -8.765625 
Q 45.40625 -4.15625 45.40625 5.171875 
L 45.40625 9.625 
Q 42.625 4.78125 38.28125 2.390625 
Q 33.9375 0 27.875 0 
Q 17.828125 0 11.671875 7.65625 
Q 5.515625 15.328125 5.515625 27.984375 
Q 5.515625 40.671875 11.671875 48.328125 
Q 17.828125 56 27.875 56 
Q 33.9375 56 38.28125 53.609375 
Q 42.625 51.21875 45.40625 46.390625 
L 45.40625 54.6875 
L 54.390625 54.6875 
z
" id="DejaVuSans-103"/>
      <path d="M 45.40625 46.390625 
L 45.40625 75.984375 
L 54.390625 75.984375 
L 54.390625 0 
L 45.40625 0 
L 45.40625 8.203125 
Q 42.578125 3.328125 38.25 0.953125 
Q 33.9375 -1.421875 27.875 -1.421875 
Q 17.96875 -1.421875 11.734375 6.484375 
Q 5.515625 14.40625 5.515625 27.296875 
Q 5.515625 40.1875 11.734375 48.09375 
Q 17.96875 56 27.875 56 
Q 33.9375 56 38.25 53.625 
Q 42.578125 51.265625 45.40625 46.390625 
z
M 14.796875 27.296875 
Q 14.796875 17.390625 18.875 11.75 
Q 22.953125 6.109375 30.078125 6.109375 
Q 37.203125 6.109375 41.296875 11.75 
Q 45.40625 17.390625 45.40625 27.296875 
Q 45.40625 37.203125 41.296875 42.84375 
Q 37.203125 48.484375 30.078125 48.484375 
Q 22.953125 48.484375 18.875 42.84375 
Q 14.796875 37.203125 14.796875 27.296875 
z
" id="DejaVuSans-100"/>
      <path id="DejaVuSans-32"/>
      <path d="M 53.515625 70.515625 
L 53.515625 60.890625 
Q 47.90625 63.578125 42.921875 64.890625 
Q 37.9375 66.21875 33.296875 66.21875 
Q 25.25 66.21875 20.875 63.09375 
Q 16.5 59.96875 16.5 54.203125 
Q 16.5 49.359375 19.40625 46.890625 
Q 22.3125 44.4375 30.421875 42.921875 
L 36.375 41.703125 
Q 47.40625 39.59375 52.65625 34.296875 
Q 57.90625 29 57.90625 20.125 
Q 57.90625 9.515625 50.796875 4.046875 
Q 43.703125 -1.421875 29.984375 -1.421875 
Q 24.8125 -1.421875 18.96875 -0.25 
Q 13.140625 0.921875 6.890625 3.21875 
L 6.890625 13.375 
Q 12.890625 10.015625 18.65625 8.296875 
Q 24.421875 6.59375 29.984375 6.59375 
Q 38.421875 6.59375 43.015625 9.90625 
Q 47.609375 13.234375 47.609375 19.390625 
Q 47.609375 24.75 44.3125 27.78125 
Q 41.015625 30.8125 33.5 32.328125 
L 27.484375 33.5 
Q 16.453125 35.6875 11.515625 40.375 
Q 6.59375 45.0625 6.59375 53.421875 
Q 6.59375 63.09375 13.40625 68.65625 
Q 20.21875 74.21875 32.171875 74.21875 
Q 37.3125 74.21875 42.625 73.28125 
Q 47.953125 72.359375 53.515625 70.515625 
z
" id="DejaVuSans-83"/>
      <path d="M 14.796875 27.296875 
Q 14.796875 17.390625 18.875 11.75 
Q 22.953125 6.109375 30.078125 6.109375 
Q 37.203125 6.109375 41.296875 11.75 
Q 45.40625 17.390625 45.40625 27.296875 
Q 45.40625 37.203125 41.296875 42.84375 
Q 37.203125 48.484375 30.078125 48.484375 
Q 22.953125 48.484375 18.875 42.84375 
Q 14.796875 37.203125 14.796875 27.296875 
z
M 45.40625 8.203125 
Q 42.578125 3.328125 38.25 0.953125 
Q 33.9375 -1.421875 27.875 -1.421875 
Q 17.96875 -1.421875 11.734375 6.484375 
Q 5.515625 14.40625 5.515625 27.296875 
Q 5.515625 40.1875 11.734375 48.09375 
Q 17.96875 56 27.875 56 
Q 33.9375 56 38.25 53.625 
Q 42.578125 51.265625 45.40625 46.390625 
L 45.40625 54.6875 
L 54.390625 54.6875 
L 54.390625 -20.796875 
L 45.40625 -20.796875 
z
" id="DejaVuSans-113"/>
      <path d="M 8.5 21.578125 
L 8.5 54.6875 
L 17.484375 54.6875 
L 17.484375 21.921875 
Q 17.484375 14.15625 20.5 10.265625 
Q 23.53125 6.390625 29.59375 6.390625 
Q 36.859375 6.390625 41.078125 11.03125 
Q 45.3125 15.671875 45.3125 23.6875 
L 45.3125 54.6875 
L 54.296875 54.6875 
L 54.296875 0 
L 45.3125 0 
L 45.3125 8.40625 
Q 42.046875 3.421875 37.71875 1 
Q 33.40625 -1.421875 27.6875 -1.421875 
Q 18.265625 -1.421875 13.375 4.4375 
Q 8.5 10.296875 8.5 21.578125 
z
M 31.109375 56 
z
" id="DejaVuSans-117"/>
      <path d="M 9.8125 72.90625 
L 55.90625 72.90625 
L 55.90625 64.59375 
L 19.671875 64.59375 
L 19.671875 43.015625 
L 54.390625 43.015625 
L 54.390625 34.71875 
L 19.671875 34.71875 
L 19.671875 8.296875 
L 56.78125 8.296875 
L 56.78125 0 
L 9.8125 0 
z
" id="DejaVuSans-69"/>
     </defs>
     <g transform="translate(31.020312 280.483437)rotate(-90)scale(0.1 -0.1)">
      <use xlink:href="#DejaVuSans-73"/>
      <use x="29.492188" xlink:href="#DejaVuSans-110"/>
      <use x="92.871094" xlink:href="#DejaVuSans-116"/>
      <use x="132.080078" xlink:href="#DejaVuSans-101"/>
      <use x="193.603516" xlink:href="#DejaVuSans-103"/>
      <use x="257.080078" xlink:href="#DejaVuSans-114"/>
      <use x="298.193359" xlink:href="#DejaVuSans-97"/>
      <use x="359.472656" xlink:href="#DejaVuSans-116"/>
      <use x="398.681641" xlink:href="#DejaVuSans-101"/>
      <use x="460.205078" xlink:href="#DejaVuSans-100"/>
      <use x="523.681641" xlink:href="#DejaVuSans-32"/>
      <use x="555.46875" xlink:href="#DejaVuSans-83"/>
      <use x="618.945312" xlink:href="#DejaVuSans-113"/>
      <use x="682.421875" xlink:href="#DejaVuSans-117"/>
      <use x="745.800781" xlink:href="#DejaVuSans-97"/>
      <use x="807.080078" xlink:href="#DejaVuSans-114"/>
      <use x="845.943359" xlink:href="#DejaVuSans-101"/>
      <use x="907.466797" xlink:href="#DejaVuSans-100"/>
      <use x="970.943359" xlink:href="#DejaVuSans-32"/>
      <use x="1002.730469" xlink:href="#DejaVuSans-69"/>
      <use x="1065.914062" xlink:href="#DejaVuSans-114"/>
      <use x="1105.277344" xlink:href="#DejaVuSans-114"/>
      <use x="1144.140625" xlink:href="#DejaVuSans-111"/>
      <use x="1205.322266" xlink:href="#DejaVuSans-114"/>
     </g>
    </g>
   </g>
   <g id="line2d_29">
    <path clip-path="url(#p9fac3408cf)" d="M 72 97.571521 
L 80.928 98.369104 
L 89.856 98.746389 
L 98.784 98.632867 
L 107.712 99.46364 
L 116.64 99.785149 
L 125.568 99.32474 
L 134.496 99.636812 
L 143.424 99.655046 
L 152.352 99.574126 
L 161.28 100.085396 
L 170.208 99.733032 
L 179.136 99.517521 
L 188.064 99.893467 
L 196.992 99.100706 
L 205.92 99.776548 
L 214.848 100.181391 
L 223.776 100.014168 
L 232.704 99.96881 
L 241.632 100.192089 
L 250.56 100.390957 
L 259.488 100.244288 
L 268.416 100.408766 
L 277.344 100.425238 
L 286.272 100.1811 
L 295.2 100.490887 
L 304.128 100.389123 
L 313.056 100.383181 
L 321.984 100.484395 
L 330.912 99.267957 
L 339.84 100.537127 
L 348.768 100.586065 
L 357.696 100.30982 
L 366.624 100.254481 
L 375.552 100.421677 
L 384.48 100.438359 
L 393.408 100.337536 
L 402.336 100.160741 
L 411.264 100.210719 
L 420.192 100.340732 
L 429.12 100.179789 
L 438.048 99.861342 
L 446.976 99.395818 
L 455.904 99.554719 
L 464.832 99.628114 
L 473.76 98.994274 
L 482.688 100.475368 
L 491.616 100.619093 
L 500.544 100.439946 
L 509.472 100.355348 
L 518.4 100.378962 
" style="fill:none;stroke:#1f77b4;stroke-linecap:square;stroke-width:1.5;"/>
   </g>
   <g id="line2d_30">
    <path clip-path="url(#p9fac3408cf)" d="M 72 94.003187 
L 80.928 95.67907 
L 89.856 96.404661 
L 98.784 99.784945 
L 107.712 102.779468 
L 116.64 107.280925 
L 125.568 112.520242 
L 134.496 117.376296 
L 143.424 123.975305 
L 152.352 131.55787 
L 161.28 141.393328 
L 170.208 151.602317 
L 179.136 160.222985 
L 188.064 171.262918 
L 196.992 184.076304 
L 205.92 193.794889 
L 214.848 203.073006 
L 223.776 210.592635 
L 232.704 222.931396 
L 241.632 232.730019 
L 250.56 243.07155 
L 259.488 251.842717 
L 268.416 261.311248 
L 277.344 269.399025 
L 286.272 273.108271 
L 295.2 277.312856 
L 304.128 282.374707 
L 313.056 284.564811 
L 321.984 287.47245 
L 330.912 289.273155 
L 339.84 291.091836 
L 348.768 293.260405 
L 357.696 295.793776 
L 366.624 297.423805 
L 375.552 301.135812 
L 384.48 302.776286 
L 393.408 306.525437 
L 402.336 307.131896 
L 411.264 309.724267 
L 420.192 312.517185 
L 429.12 316.557129 
L 438.048 317.267713 
L 446.976 319.075788 
L 455.904 318.889497 
L 464.832 320.097013 
L 473.76 322.140667 
L 482.688 323.451159 
L 491.616 324.625071 
L 500.544 327.421241 
L 509.472 329.58609 
L 518.4 330.882496 
" style="fill:none;stroke:#ff7f0e;stroke-linecap:square;stroke-width:1.5;"/>
   </g>
   <g id="line2d_31">
    <path clip-path="url(#p9fac3408cf)" d="M 72 96.408095 
L 80.928 97.519728 
L 89.856 100.465767 
L 98.784 102.756398 
L 107.712 105.322589 
L 116.64 107.536029 
L 125.568 110.022444 
L 134.496 111.826038 
L 143.424 113.738007 
L 152.352 115.501812 
L 161.28 116.939646 
L 170.208 118.710292 
L 179.136 119.885433 
L 188.064 121.104998 
L 196.992 122.373856 
L 205.92 124.03104 
L 214.848 124.760337 
L 223.776 125.341133 
L 232.704 126.237809 
L 241.632 126.891796 
L 250.56 127.670516 
L 259.488 128.015878 
L 268.416 129.023791 
L 277.344 130.195149 
L 286.272 131.146073 
L 295.2 131.820749 
L 304.128 132.963755 
L 313.056 133.933219 
L 321.984 134.849091 
L 330.912 136.365122 
L 339.84 137.671025 
L 348.768 138.928677 
L 357.696 139.412396 
L 366.624 139.923643 
L 375.552 140.360204 
L 384.48 140.707367 
L 393.408 141.809614 
L 402.336 142.733148 
L 411.264 143.565595 
L 420.192 144.120581 
L 429.12 144.461565 
L 438.048 144.733215 
L 446.976 144.997092 
L 455.904 146.147673 
L 464.832 146.980789 
L 473.76 147.687043 
L 482.688 148.405099 
L 491.616 149.505578 
L 500.544 150.432232 
L 509.472 150.961215 
L 518.4 151.631003 
" style="fill:none;stroke:#2ca02c;stroke-linecap:square;stroke-width:1.5;"/>
   </g>
   <g id="line2d_32">
    <path clip-path="url(#p9fac3408cf)" d="M 72 94.032132 
L 80.928 94.410502 
L 89.856 96.205741 
L 98.784 99.803003 
L 107.712 102.306576 
L 116.64 103.989081 
L 125.568 106.12733 
L 134.496 109.915975 
L 143.424 112.756112 
L 152.352 116.066854 
L 161.28 118.828335 
L 170.208 121.448082 
L 179.136 123.36949 
L 188.064 126.011688 
L 196.992 128.15629 
L 205.92 130.632014 
L 214.848 134.017588 
L 223.776 135.424268 
L 232.704 137.850018 
L 241.632 141.114546 
L 250.56 142.320968 
L 259.488 145.954988 
L 268.416 148.133405 
L 277.344 151.734093 
L 286.272 154.091424 
L 295.2 155.835182 
L 304.128 159.269002 
L 313.056 161.06501 
L 321.984 163.897684 
L 330.912 167.06995 
L 339.84 170.509115 
L 348.768 171.18008 
L 357.696 173.885833 
L 366.624 175.369331 
L 375.552 176.467376 
L 384.48 177.882574 
L 393.408 179.478981 
L 402.336 180.085671 
L 411.264 181.536921 
L 420.192 182.819132 
L 429.12 185.309491 
L 438.048 186.119322 
L 446.976 187.153832 
L 455.904 187.485633 
L 464.832 188.159293 
L 473.76 189.123311 
L 482.688 190.792009 
L 491.616 191.347832 
L 500.544 193.176724 
L 509.472 193.795103 
L 518.4 195.543464 
" style="fill:none;stroke:#d62728;stroke-linecap:square;stroke-width:1.5;"/>
   </g>
   <g id="line2d_33">
    <path clip-path="url(#p9fac3408cf)" d="M 72 93.879302 
L 80.928 97.335612 
L 89.856 98.582986 
L 98.784 100.23474 
L 107.712 103.497205 
L 116.64 106.374389 
L 125.568 110.677283 
L 134.496 112.080204 
L 143.424 116.31332 
L 152.352 121.175362 
L 161.28 123.987944 
L 170.208 126.830874 
L 179.136 131.368051 
L 188.064 136.940535 
L 196.992 140.465689 
L 205.92 143.401598 
L 214.848 147.903839 
L 223.776 150.727014 
L 232.704 153.882508 
L 241.632 156.906836 
L 250.56 159.946345 
L 259.488 164.076351 
L 268.416 168.644756 
L 277.344 171.492369 
L 286.272 175.11445 
L 295.2 179.235771 
L 304.128 183.61455 
L 313.056 186.507972 
L 321.984 188.479163 
L 330.912 192.8424 
L 339.84 196.961781 
L 348.768 201.316351 
L 357.696 203.297401 
L 366.624 206.10947 
L 375.552 209.41545 
L 384.48 210.52398 
L 393.408 211.694793 
L 402.336 214.192093 
L 411.264 214.664482 
L 420.192 216.180123 
L 429.12 218.250309 
L 438.048 221.688906 
L 446.976 223.281503 
L 455.904 226.046364 
L 464.832 229.121913 
L 473.76 233.55975 
L 482.688 235.160758 
L 491.616 236.087323 
L 500.544 239.769944 
L 509.472 240.955847 
L 518.4 241.51672 
" style="fill:none;stroke:#9467bd;stroke-linecap:square;stroke-width:1.5;"/>
   </g>
   <g id="line2d_34">
    <path clip-path="url(#p9fac3408cf)" d="M 72 95.26473 
L 80.928 95.225038 
L 89.856 96.03159 
L 98.784 100.285522 
L 107.712 104.463261 
L 116.64 107.297309 
L 125.568 111.745233 
L 134.496 113.459232 
L 143.424 117.608227 
L 152.352 123.226829 
L 161.28 132.183007 
L 170.208 146.082021 
L 179.136 161.667215 
L 188.064 174.278146 
L 196.992 185.899839 
L 205.92 193.642751 
L 214.848 205.297564 
L 223.776 216.41657 
L 232.704 230.266502 
L 241.632 242.134083 
L 250.56 248.0708 
L 259.488 260.774051 
L 268.416 266.173717 
L 277.344 272.128797 
L 286.272 273.439065 
L 295.2 281.450573 
L 304.128 288.279008 
L 313.056 291.816198 
L 321.984 296.493255 
L 330.912 300.721748 
L 339.84 302.338961 
L 348.768 307.290076 
L 357.696 311.094812 
L 366.624 313.545057 
L 375.552 315.969088 
L 384.48 313.841938 
L 393.408 322.19104 
L 402.336 323.427573 
L 411.264 327.314045 
L 420.192 327.40629 
L 429.12 330.355442 
L 438.048 331.966274 
L 446.976 332.506081 
L 455.904 335.159799 
L 464.832 337.722387 
L 473.76 338.603464 
L 482.688 339.860084 
L 491.616 342.756616 
L 500.544 343.30303 
L 509.472 343.123762 
L 518.4 345.412279 
" style="fill:none;stroke:#8c564b;stroke-linecap:square;stroke-width:1.5;"/>
   </g>
   <g id="line2d_35">
    <path clip-path="url(#p9fac3408cf)" d="M 72 92.796208 
L 80.928 98.048982 
L 89.856 98.628125 
L 98.784 98.907594 
L 107.712 99.400265 
L 116.64 99.661171 
L 125.568 99.665268 
L 134.496 99.711668 
L 143.424 99.727949 
L 152.352 99.816023 
L 161.28 99.88698 
L 170.208 99.881587 
L 179.136 99.933543 
L 188.064 100.04272 
L 196.992 100.040771 
L 205.92 100.059315 
L 214.848 100.119369 
L 223.776 100.152121 
L 232.704 100.139321 
L 241.632 100.132143 
L 250.56 100.125357 
L 259.488 100.142405 
L 268.416 100.172936 
L 277.344 100.14248 
L 286.272 100.178951 
L 295.2 100.19576 
L 304.128 100.205724 
L 313.056 100.206121 
L 321.984 100.232656 
L 330.912 100.243153 
L 339.84 100.260289 
L 348.768 100.289027 
L 357.696 100.302011 
L 366.624 100.331082 
L 375.552 100.363166 
L 384.48 100.368446 
L 393.408 100.367528 
L 402.336 100.39828 
L 411.264 100.412684 
L 420.192 100.430861 
L 429.12 100.438925 
L 438.048 100.442373 
L 446.976 100.439099 
L 455.904 100.457513 
L 464.832 100.470302 
L 473.76 100.479389 
L 482.688 100.479357 
L 491.616 100.485266 
L 500.544 100.49367 
L 509.472 100.477237 
L 518.4 100.476367 
" style="fill:none;stroke:#e377c2;stroke-linecap:square;stroke-width:1.5;"/>
   </g>
   <g id="patch_3">
    <path d="M 72 384.48 
L 72 51.84 
" style="fill:none;stroke:#000000;stroke-linecap:square;stroke-linejoin:miter;stroke-width:0.8;"/>
   </g>
   <g id="patch_4">
    <path d="M 518.4 384.48 
L 518.4 51.84 
" style="fill:none;stroke:#000000;stroke-linecap:square;stroke-linejoin:miter;stroke-width:0.8;"/>
   </g>
   <g id="patch_5">
    <path d="M 72 384.48 
L 518.4 384.48 
" style="fill:none;stroke:#000000;stroke-linecap:square;stroke-linejoin:miter;stroke-width:0.8;"/>
   </g>
   <g id="patch_6">
    <path d="M 72 51.84 
L 518.4 51.84 
" style="fill:none;stroke:#000000;stroke-linecap:square;stroke-linejoin:miter;stroke-width:0.8;"/>
   </g>
   <g id="legend_1">
    <g id="patch_7">
     <path d="M 79 379.48 
L 165.804688 379.48 
Q 167.804688 379.48 167.804688 377.48 
L 167.804688 275.733125 
Q 167.804688 273.733125 165.804688 273.733125 
L 79 273.733125 
Q 77 273.733125 77 275.733125 
L 77 377.48 
Q 77 379.48 79 379.48 
z
" style="fill:#ffffff;opacity:0.8;stroke:#cccccc;stroke-linejoin:miter;"/>
    </g>
    <g id="line2d_36">
     <path d="M 81 281.831563 
L 101 281.831563 
" style="fill:none;stroke:#1f77b4;stroke-linecap:square;stroke-width:1.5;"/>
    </g>
    <g id="line2d_37"/>
    <g id="text_17">
     <!-- Constant -->
     <defs>
      <path d="M 64.40625 67.28125 
L 64.40625 56.890625 
Q 59.421875 61.53125 53.78125 63.8125 
Q 48.140625 66.109375 41.796875 66.109375 
Q 29.296875 66.109375 22.65625 58.46875 
Q 16.015625 50.828125 16.015625 36.375 
Q 16.015625 21.96875 22.65625 14.328125 
Q 29.296875 6.6875 41.796875 6.6875 
Q 48.140625 6.6875 53.78125 8.984375 
Q 59.421875 11.28125 64.40625 15.921875 
L 64.40625 5.609375 
Q 59.234375 2.09375 53.4375 0.328125 
Q 47.65625 -1.421875 41.21875 -1.421875 
Q 24.65625 -1.421875 15.125 8.703125 
Q 5.609375 18.84375 5.609375 36.375 
Q 5.609375 53.953125 15.125 64.078125 
Q 24.65625 74.21875 41.21875 74.21875 
Q 47.75 74.21875 53.53125 72.484375 
Q 59.328125 70.75 64.40625 67.28125 
z
" id="DejaVuSans-67"/>
      <path d="M 44.28125 53.078125 
L 44.28125 44.578125 
Q 40.484375 46.53125 36.375 47.5 
Q 32.28125 48.484375 27.875 48.484375 
Q 21.1875 48.484375 17.84375 46.4375 
Q 14.5 44.390625 14.5 40.28125 
Q 14.5 37.15625 16.890625 35.375 
Q 19.28125 33.59375 26.515625 31.984375 
L 29.59375 31.296875 
Q 39.15625 29.25 43.1875 25.515625 
Q 47.21875 21.78125 47.21875 15.09375 
Q 47.21875 7.46875 41.1875 3.015625 
Q 35.15625 -1.421875 24.609375 -1.421875 
Q 20.21875 -1.421875 15.453125 -0.5625 
Q 10.6875 0.296875 5.421875 2 
L 5.421875 11.28125 
Q 10.40625 8.6875 15.234375 7.390625 
Q 20.0625 6.109375 24.8125 6.109375 
Q 31.15625 6.109375 34.5625 8.28125 
Q 37.984375 10.453125 37.984375 14.40625 
Q 37.984375 18.0625 35.515625 20.015625 
Q 33.0625 21.96875 24.703125 23.78125 
L 21.578125 24.515625 
Q 13.234375 26.265625 9.515625 29.90625 
Q 5.8125 33.546875 5.8125 39.890625 
Q 5.8125 47.609375 11.28125 51.796875 
Q 16.75 56 26.8125 56 
Q 31.78125 56 36.171875 55.265625 
Q 40.578125 54.546875 44.28125 53.078125 
z
" id="DejaVuSans-115"/>
     </defs>
     <g transform="translate(109 285.331563)scale(0.1 -0.1)">
      <use xlink:href="#DejaVuSans-67"/>
      <use x="69.824219" xlink:href="#DejaVuSans-111"/>
      <use x="131.005859" xlink:href="#DejaVuSans-110"/>
      <use x="194.384766" xlink:href="#DejaVuSans-115"/>
      <use x="246.484375" xlink:href="#DejaVuSans-116"/>
      <use x="285.693359" xlink:href="#DejaVuSans-97"/>
      <use x="346.972656" xlink:href="#DejaVuSans-110"/>
      <use x="410.351562" xlink:href="#DejaVuSans-116"/>
     </g>
    </g>
    <g id="line2d_38">
     <path d="M 81 296.509688 
L 101 296.509688 
" style="fill:none;stroke:#ff7f0e;stroke-linecap:square;stroke-width:1.5;"/>
    </g>
    <g id="line2d_39"/>
    <g id="text_18">
     <!-- RBF -->
     <defs>
      <path d="M 44.390625 34.1875 
Q 47.5625 33.109375 50.5625 29.59375 
Q 53.5625 26.078125 56.59375 19.921875 
L 66.609375 0 
L 56 0 
L 46.6875 18.703125 
Q 43.0625 26.03125 39.671875 28.421875 
Q 36.28125 30.8125 30.421875 30.8125 
L 19.671875 30.8125 
L 19.671875 0 
L 9.8125 0 
L 9.8125 72.90625 
L 32.078125 72.90625 
Q 44.578125 72.90625 50.734375 67.671875 
Q 56.890625 62.453125 56.890625 51.90625 
Q 56.890625 45.015625 53.6875 40.46875 
Q 50.484375 35.9375 44.390625 34.1875 
z
M 19.671875 64.796875 
L 19.671875 38.921875 
L 32.078125 38.921875 
Q 39.203125 38.921875 42.84375 42.21875 
Q 46.484375 45.515625 46.484375 51.90625 
Q 46.484375 58.296875 42.84375 61.546875 
Q 39.203125 64.796875 32.078125 64.796875 
z
" id="DejaVuSans-82"/>
      <path d="M 19.671875 34.8125 
L 19.671875 8.109375 
L 35.5 8.109375 
Q 43.453125 8.109375 47.28125 11.40625 
Q 51.125 14.703125 51.125 21.484375 
Q 51.125 28.328125 47.28125 31.5625 
Q 43.453125 34.8125 35.5 34.8125 
z
M 19.671875 64.796875 
L 19.671875 42.828125 
L 34.28125 42.828125 
Q 41.5 42.828125 45.03125 45.53125 
Q 48.578125 48.25 48.578125 53.8125 
Q 48.578125 59.328125 45.03125 62.0625 
Q 41.5 64.796875 34.28125 64.796875 
z
M 9.8125 72.90625 
L 35.015625 72.90625 
Q 46.296875 72.90625 52.390625 68.21875 
Q 58.5 63.53125 58.5 54.890625 
Q 58.5 48.1875 55.375 44.234375 
Q 52.25 40.28125 46.1875 39.3125 
Q 53.46875 37.75 57.5 32.78125 
Q 61.53125 27.828125 61.53125 20.40625 
Q 61.53125 10.640625 54.890625 5.3125 
Q 48.25 0 35.984375 0 
L 9.8125 0 
z
" id="DejaVuSans-66"/>
      <path d="M 9.8125 72.90625 
L 51.703125 72.90625 
L 51.703125 64.59375 
L 19.671875 64.59375 
L 19.671875 43.109375 
L 48.578125 43.109375 
L 48.578125 34.8125 
L 19.671875 34.8125 
L 19.671875 0 
L 9.8125 0 
z
" id="DejaVuSans-70"/>
     </defs>
     <g transform="translate(109 300.009688)scale(0.1 -0.1)">
      <use xlink:href="#DejaVuSans-82"/>
      <use x="69.482422" xlink:href="#DejaVuSans-66"/>
      <use x="138.085938" xlink:href="#DejaVuSans-70"/>
     </g>
    </g>
    <g id="line2d_40">
     <path d="M 81 311.187813 
L 101 311.187813 
" style="fill:none;stroke:#2ca02c;stroke-linecap:square;stroke-width:1.5;"/>
    </g>
    <g id="line2d_41"/>
    <g id="text_19">
     <!-- Matrn-1/2 -->
     <defs>
      <path d="M 9.8125 72.90625 
L 24.515625 72.90625 
L 43.109375 23.296875 
L 61.8125 72.90625 
L 76.515625 72.90625 
L 76.515625 0 
L 66.890625 0 
L 66.890625 64.015625 
L 48.09375 14.015625 
L 38.1875 14.015625 
L 19.390625 64.015625 
L 19.390625 0 
L 9.8125 0 
z
" id="DejaVuSans-77"/>
      <path d="M 56.203125 29.59375 
L 56.203125 25.203125 
L 14.890625 25.203125 
Q 15.484375 15.921875 20.484375 11.0625 
Q 25.484375 6.203125 34.421875 6.203125 
Q 39.59375 6.203125 44.453125 7.46875 
Q 49.3125 8.734375 54.109375 11.28125 
L 54.109375 2.78125 
Q 49.265625 0.734375 44.1875 -0.34375 
Q 39.109375 -1.421875 33.890625 -1.421875 
Q 20.796875 -1.421875 13.15625 6.1875 
Q 5.515625 13.8125 5.515625 26.8125 
Q 5.515625 40.234375 12.765625 48.109375 
Q 20.015625 56 32.328125 56 
Q 43.359375 56 49.78125 48.890625 
Q 56.203125 41.796875 56.203125 29.59375 
z
M 47.21875 32.234375 
Q 47.125 39.59375 43.09375 43.984375 
Q 39.0625 48.390625 32.421875 48.390625 
Q 24.90625 48.390625 20.390625 44.140625 
Q 15.875 39.890625 15.1875 32.171875 
z
M 38.53125 79.984375 
L 48.25 79.984375 
L 32.34375 61.625 
L 24.859375 61.625 
z
" id="DejaVuSans-233"/>
      <path d="M 4.890625 31.390625 
L 31.203125 31.390625 
L 31.203125 23.390625 
L 4.890625 23.390625 
z
" id="DejaVuSans-45"/>
      <path d="M 25.390625 72.90625 
L 33.6875 72.90625 
L 8.296875 -9.28125 
L 0 -9.28125 
z
" id="DejaVuSans-47"/>
     </defs>
     <g transform="translate(109 314.687813)scale(0.1 -0.1)">
      <use xlink:href="#DejaVuSans-77"/>
      <use x="86.279297" xlink:href="#DejaVuSans-97"/>
      <use x="147.558594" xlink:href="#DejaVuSans-116"/>
      <use x="186.767578" xlink:href="#DejaVuSans-233"/>
      <use x="248.291016" xlink:href="#DejaVuSans-114"/>
      <use x="287.654297" xlink:href="#DejaVuSans-110"/>
      <use x="351.033203" xlink:href="#DejaVuSans-45"/>
      <use x="387.117188" xlink:href="#DejaVuSans-49"/>
      <use x="450.740234" xlink:href="#DejaVuSans-47"/>
      <use x="484.431641" xlink:href="#DejaVuSans-50"/>
     </g>
    </g>
    <g id="line2d_42">
     <path d="M 81 325.865938 
L 101 325.865938 
" style="fill:none;stroke:#d62728;stroke-linecap:square;stroke-width:1.5;"/>
    </g>
    <g id="line2d_43"/>
    <g id="text_20">
     <!-- Matrn-3/2 -->
     <g transform="translate(109 329.365938)scale(0.1 -0.1)">
      <use xlink:href="#DejaVuSans-77"/>
      <use x="86.279297" xlink:href="#DejaVuSans-97"/>
      <use x="147.558594" xlink:href="#DejaVuSans-116"/>
      <use x="186.767578" xlink:href="#DejaVuSans-233"/>
      <use x="248.291016" xlink:href="#DejaVuSans-114"/>
      <use x="287.654297" xlink:href="#DejaVuSans-110"/>
      <use x="351.033203" xlink:href="#DejaVuSans-45"/>
      <use x="387.117188" xlink:href="#DejaVuSans-51"/>
      <use x="450.740234" xlink:href="#DejaVuSans-47"/>
      <use x="484.431641" xlink:href="#DejaVuSans-50"/>
     </g>
    </g>
    <g id="line2d_44">
     <path d="M 81 340.544062 
L 101 340.544062 
" style="fill:none;stroke:#9467bd;stroke-linecap:square;stroke-width:1.5;"/>
    </g>
    <g id="line2d_45"/>
    <g id="text_21">
     <!-- Matrn-5/2 -->
     <g transform="translate(109 344.044062)scale(0.1 -0.1)">
      <use xlink:href="#DejaVuSans-77"/>
      <use x="86.279297" xlink:href="#DejaVuSans-97"/>
      <use x="147.558594" xlink:href="#DejaVuSans-116"/>
      <use x="186.767578" xlink:href="#DejaVuSans-233"/>
      <use x="248.291016" xlink:href="#DejaVuSans-114"/>
      <use x="287.654297" xlink:href="#DejaVuSans-110"/>
      <use x="351.033203" xlink:href="#DejaVuSans-45"/>
      <use x="387.117188" xlink:href="#DejaVuSans-53"/>
      <use x="450.740234" xlink:href="#DejaVuSans-47"/>
      <use x="484.431641" xlink:href="#DejaVuSans-50"/>
     </g>
    </g>
    <g id="line2d_46">
     <path d="M 81 355.222188 
L 101 355.222188 
" style="fill:none;stroke:#8c564b;stroke-linecap:square;stroke-width:1.5;"/>
    </g>
    <g id="line2d_47"/>
    <g id="text_22">
     <!-- RQ -->
     <defs>
      <path d="M 39.40625 66.21875 
Q 28.65625 66.21875 22.328125 58.203125 
Q 16.015625 50.203125 16.015625 36.375 
Q 16.015625 22.609375 22.328125 14.59375 
Q 28.65625 6.59375 39.40625 6.59375 
Q 50.140625 6.59375 56.421875 14.59375 
Q 62.703125 22.609375 62.703125 36.375 
Q 62.703125 50.203125 56.421875 58.203125 
Q 50.140625 66.21875 39.40625 66.21875 
z
M 53.21875 1.3125 
L 66.21875 -12.890625 
L 54.296875 -12.890625 
L 43.5 -1.21875 
Q 41.890625 -1.3125 41.03125 -1.359375 
Q 40.1875 -1.421875 39.40625 -1.421875 
Q 24.03125 -1.421875 14.8125 8.859375 
Q 5.609375 19.140625 5.609375 36.375 
Q 5.609375 53.65625 14.8125 63.9375 
Q 24.03125 74.21875 39.40625 74.21875 
Q 54.734375 74.21875 63.90625 63.9375 
Q 73.09375 53.65625 73.09375 36.375 
Q 73.09375 23.6875 67.984375 14.640625 
Q 62.890625 5.609375 53.21875 1.3125 
z
" id="DejaVuSans-81"/>
     </defs>
     <g transform="translate(109 358.722188)scale(0.1 -0.1)">
      <use xlink:href="#DejaVuSans-82"/>
      <use x="69.482422" xlink:href="#DejaVuSans-81"/>
     </g>
    </g>
    <g id="line2d_48">
     <path d="M 81 369.900313 
L 101 369.900313 
" style="fill:none;stroke:#e377c2;stroke-linecap:square;stroke-width:1.5;"/>
    </g>
    <g id="line2d_49"/>
    <g id="text_23">
     <!-- Dot Prod. -->
     <defs>
      <path d="M 19.671875 64.796875 
L 19.671875 8.109375 
L 31.59375 8.109375 
Q 46.6875 8.109375 53.6875 14.9375 
Q 60.6875 21.78125 60.6875 36.53125 
Q 60.6875 51.171875 53.6875 57.984375 
Q 46.6875 64.796875 31.59375 64.796875 
z
M 9.8125 72.90625 
L 30.078125 72.90625 
Q 51.265625 72.90625 61.171875 64.09375 
Q 71.09375 55.28125 71.09375 36.53125 
Q 71.09375 17.671875 61.125 8.828125 
Q 51.171875 0 30.078125 0 
L 9.8125 0 
z
" id="DejaVuSans-68"/>
      <path d="M 19.671875 64.796875 
L 19.671875 37.40625 
L 32.078125 37.40625 
Q 38.96875 37.40625 42.71875 40.96875 
Q 46.484375 44.53125 46.484375 51.125 
Q 46.484375 57.671875 42.71875 61.234375 
Q 38.96875 64.796875 32.078125 64.796875 
z
M 9.8125 72.90625 
L 32.078125 72.90625 
Q 44.34375 72.90625 50.609375 67.359375 
Q 56.890625 61.8125 56.890625 51.125 
Q 56.890625 40.328125 50.609375 34.8125 
Q 44.34375 29.296875 32.078125 29.296875 
L 19.671875 29.296875 
L 19.671875 0 
L 9.8125 0 
z
" id="DejaVuSans-80"/>
      <path d="M 10.6875 12.40625 
L 21 12.40625 
L 21 0 
L 10.6875 0 
z
" id="DejaVuSans-46"/>
     </defs>
     <g transform="translate(109 373.400313)scale(0.1 -0.1)">
      <use xlink:href="#DejaVuSans-68"/>
      <use x="77.001953" xlink:href="#DejaVuSans-111"/>
      <use x="138.183594" xlink:href="#DejaVuSans-116"/>
      <use x="177.392578" xlink:href="#DejaVuSans-32"/>
      <use x="209.179688" xlink:href="#DejaVuSans-80"/>
      <use x="267.732422" xlink:href="#DejaVuSans-114"/>
      <use x="306.595703" xlink:href="#DejaVuSans-111"/>
      <use x="367.777344" xlink:href="#DejaVuSans-100"/>
      <use x="431.253906" xlink:href="#DejaVuSans-46"/>
     </g>
    </g>
   </g>
  </g>
 </g>
 <defs>
  <clipPath id="p9fac3408cf">
   <rect height="332.64" width="446.4" x="72" y="51.84"/>
  </clipPath>
 </defs>
</svg>
