<?xml version="1.0" encoding="utf-8" standalone="no"?>
<!DOCTYPE svg PUBLIC "-//W3C//DTD SVG 1.1//EN"
  "http://www.w3.org/Graphics/SVG/1.1/DTD/svg11.dtd">
<!-- Created with matplotlib (https://matplotlib.org/) -->
<svg height="432pt" version="1.1" viewBox="0 0 576 432" width="576pt" xmlns="http://www.w3.org/2000/svg" xmlns:xlink="http://www.w3.org/1999/xlink">
 <defs>
  <style type="text/css">
*{stroke-linecap:butt;stroke-linejoin:round;}
  </style>
 </defs>
 <g id="figure_1">
  <g id="patch_1">
   <path d="M 0 432 
L 576 432 
L 576 0 
L 0 0 
z
" style="fill:#ffffff;"/>
  </g>
  <g id="axes_1">
   <g id="patch_2">
    <path d="M 72 384.48 
L 518.4 384.48 
L 518.4 51.84 
L 72 51.84 
z
" style="fill:#ffffff;"/>
   </g>
   <g id="PolyCollection_1"/>
   <g id="PolyCollection_2">
    <path clip-path="url(#p472fecb2d1)" d="M 72 120.669262 
L 72 84.780862 
L 80.928 80.69243 
L 89.856 85.640385 
L 98.784 85.447107 
L 107.712 89.133884 
L 116.64 89.253564 
L 125.568 92.419644 
L 134.496 98.104012 
L 143.424 103.743667 
L 152.352 107.788731 
L 161.28 113.12782 
L 170.208 120.607511 
L 179.136 126.68677 
L 188.064 133.475479 
L 196.992 144.823936 
L 205.92 150.826889 
L 214.848 156.997364 
L 223.776 161.015147 
L 232.704 169.065788 
L 241.632 175.322045 
L 250.56 183.74033 
L 259.488 186.963774 
L 268.416 194.770266 
L 277.344 198.250737 
L 286.272 204.206104 
L 295.2 204.920322 
L 304.128 206.290199 
L 313.056 207.066044 
L 321.984 202.113186 
L 321.984 252.153798 
L 321.984 252.153798 
L 313.056 233.249367 
L 304.128 238.095465 
L 295.2 241.686646 
L 286.272 242.54411 
L 277.344 241.296875 
L 268.416 233.545768 
L 259.488 237.708758 
L 250.56 232.041054 
L 241.632 229.150704 
L 232.704 228.378095 
L 223.776 216.699225 
L 214.848 206.488374 
L 205.92 195.997439 
L 196.992 184.862106 
L 188.064 173.299442 
L 179.136 162.89525 
L 170.208 152.226034 
L 161.28 141.005845 
L 152.352 129.859817 
L 143.424 120.699286 
L 134.496 115.691637 
L 125.568 115.741272 
L 116.64 112.440818 
L 107.712 110.678927 
L 98.784 118.164404 
L 89.856 121.08363 
L 80.928 117.426958 
L 72 120.669262 
z
" style="fill:#ff7f0e;fill-opacity:0.3;"/>
    <path clip-path="url(#p472fecb2d1)" d="M 339.84 236.522559 
L 339.84 204.760014 
L 348.768 206.088425 
L 348.768 239.637619 
L 348.768 239.637619 
L 339.84 236.522559 
z
" style="fill:#ff7f0e;fill-opacity:0.3;"/>
    <path clip-path="url(#p472fecb2d1)" d="M 366.624 232.835967 
L 366.624 206.606874 
L 375.552 204.962802 
L 375.552 237.180698 
L 375.552 237.180698 
L 366.624 232.835967 
z
" style="fill:#ff7f0e;fill-opacity:0.3;"/>
    <path clip-path="url(#p472fecb2d1)" d="M 393.408 237.639117 
L 393.408 202.18381 
L 402.336 202.173335 
L 411.264 204.473856 
L 411.264 235.11941 
L 411.264 235.11941 
L 402.336 240.51168 
L 393.408 237.639117 
z
" style="fill:#ff7f0e;fill-opacity:0.3;"/>
    <path clip-path="url(#p472fecb2d1)" d="M 429.12 227.170368 
L 429.12 207.158154 
L 438.048 204.721002 
L 438.048 234.908445 
L 438.048 234.908445 
L 429.12 227.170368 
z
" style="fill:#ff7f0e;fill-opacity:0.3;"/>
    <path clip-path="url(#p472fecb2d1)" d="M 455.904 226.089785 
L 455.904 206.137035 
L 464.832 204.999692 
L 473.76 207.331872 
L 482.688 203.186219 
L 491.616 204.504662 
L 500.544 206.139497 
L 509.472 200.797133 
L 509.472 227.397885 
L 509.472 227.397885 
L 500.544 226.298537 
L 491.616 229.435366 
L 482.688 231.892125 
L 473.76 225.763198 
L 464.832 231.292391 
L 455.904 226.089785 
z
" style="fill:#ff7f0e;fill-opacity:0.3;"/>
   </g>
   <g id="PolyCollection_3">
    <path clip-path="url(#p472fecb2d1)" d="M 72 97.898321 
L 72 81.255405 
L 80.928 85.239252 
L 89.856 92.427994 
L 98.784 95.453888 
L 107.712 97.702366 
L 116.64 99.957554 
L 125.568 101.787274 
L 134.496 103.781561 
L 143.424 104.984686 
L 152.352 106.660676 
L 161.28 107.987871 
L 170.208 109.213873 
L 179.136 110.189268 
L 188.064 111.402688 
L 196.992 112.451024 
L 205.92 113.396321 
L 214.848 114.375974 
L 223.776 115.249116 
L 232.704 115.949932 
L 241.632 116.70002 
L 250.56 117.940812 
L 259.488 118.781771 
L 268.416 119.628068 
L 277.344 120.492158 
L 286.272 120.977621 
L 295.2 121.569274 
L 304.128 122.148204 
L 313.056 122.828197 
L 321.984 123.546514 
L 330.912 124.260401 
L 339.84 124.831621 
L 348.768 125.408503 
L 357.696 126.006645 
L 366.624 126.496194 
L 375.552 126.945168 
L 384.48 127.38499 
L 393.408 127.953842 
L 402.336 128.38555 
L 411.264 128.808036 
L 420.192 129.155267 
L 429.12 129.615135 
L 438.048 129.980723 
L 446.976 130.351177 
L 455.904 130.6941 
L 464.832 131.053156 
L 473.76 131.482147 
L 482.688 131.8597 
L 491.616 132.267516 
L 500.544 132.750442 
L 509.472 133.166507 
L 518.4 133.51904 
L 518.4 135.605421 
L 518.4 135.605421 
L 509.472 135.236192 
L 500.544 134.85387 
L 491.616 134.523226 
L 482.688 134.099748 
L 473.76 133.731532 
L 464.832 133.361424 
L 455.904 132.985112 
L 446.976 132.568089 
L 438.048 132.170999 
L 429.12 131.77608 
L 420.192 131.327286 
L 411.264 130.904554 
L 402.336 130.538258 
L 393.408 130.119017 
L 384.48 129.652643 
L 375.552 129.119849 
L 366.624 128.609507 
L 357.696 128.049937 
L 348.768 127.581607 
L 339.84 126.994664 
L 330.912 126.382127 
L 321.984 125.828503 
L 313.056 125.31935 
L 304.128 124.889801 
L 295.2 124.346186 
L 286.272 123.639528 
L 277.344 123.084804 
L 268.416 122.491915 
L 259.488 121.948586 
L 250.56 121.174866 
L 241.632 120.489296 
L 232.704 119.688973 
L 223.776 118.921031 
L 214.848 118.081957 
L 205.92 117.1493 
L 196.992 116.427712 
L 188.064 115.718577 
L 179.136 114.960261 
L 170.208 113.914591 
L 161.28 112.810781 
L 152.352 112.03125 
L 143.424 110.763846 
L 134.496 109.380238 
L 125.568 108.152411 
L 116.64 107.543211 
L 107.712 105.827178 
L 98.784 104.616393 
L 89.856 102.545348 
L 80.928 101.150062 
L 72 97.898321 
z
" style="fill:#2ca02c;fill-opacity:0.3;"/>
   </g>
   <g id="PolyCollection_4">
    <path clip-path="url(#p472fecb2d1)" d="M 72 107.364799 
L 72 81.866433 
L 80.928 84.59867 
L 89.856 89.506833 
L 98.784 90.521009 
L 107.712 94.375714 
L 116.64 97.821352 
L 125.568 101.10837 
L 134.496 103.781069 
L 143.424 107.016389 
L 152.352 108.719467 
L 161.28 111.092459 
L 170.208 113.00107 
L 179.136 115.799675 
L 188.064 117.728267 
L 196.992 120.062463 
L 205.92 121.70184 
L 214.848 123.646901 
L 223.776 125.106899 
L 232.704 126.689064 
L 241.632 128.25635 
L 250.56 129.836146 
L 259.488 131.119526 
L 268.416 132.354364 
L 277.344 134.228335 
L 286.272 135.726521 
L 295.2 137.265647 
L 304.128 138.979924 
L 313.056 139.955563 
L 321.984 141.190056 
L 330.912 142.526282 
L 339.84 144.058702 
L 348.768 144.857576 
L 357.696 145.885024 
L 366.624 147.880319 
L 375.552 149.005042 
L 384.48 149.893199 
L 393.408 150.786119 
L 402.336 151.310904 
L 411.264 152.063301 
L 420.192 152.934192 
L 429.12 153.511821 
L 438.048 153.985705 
L 446.976 154.740244 
L 455.904 155.35763 
L 464.832 155.959705 
L 473.76 156.829539 
L 482.688 158.049339 
L 491.616 158.715432 
L 500.544 159.513977 
L 509.472 160.232185 
L 518.4 160.845696 
L 518.4 171.128389 
L 518.4 171.128389 
L 509.472 170.139656 
L 500.544 169.413909 
L 491.616 168.556415 
L 482.688 167.728036 
L 473.76 167.540947 
L 464.832 166.834856 
L 455.904 166.120205 
L 446.976 165.67902 
L 438.048 164.922743 
L 429.12 163.98698 
L 420.192 162.787665 
L 411.264 161.799085 
L 402.336 160.804343 
L 393.408 160.021951 
L 384.48 159.010179 
L 375.552 158.310114 
L 366.624 157.405918 
L 357.696 156.713002 
L 348.768 155.403391 
L 339.84 154.470754 
L 330.912 153.27582 
L 321.984 152.087858 
L 313.056 150.905272 
L 304.128 149.518508 
L 295.2 147.961753 
L 286.272 146.533974 
L 277.344 144.85406 
L 268.416 143.289809 
L 259.488 141.662027 
L 250.56 139.612245 
L 241.632 138.13967 
L 232.704 136.530779 
L 223.776 134.395136 
L 214.848 133.045009 
L 205.92 131.418962 
L 196.992 128.705061 
L 188.064 127.031509 
L 179.136 125.426257 
L 170.208 122.714927 
L 161.28 120.673442 
L 152.352 118.465338 
L 143.424 116.446039 
L 134.496 114.347683 
L 125.568 113.390338 
L 116.64 110.87268 
L 107.712 110.698411 
L 98.784 107.948865 
L 89.856 106.908906 
L 80.928 107.057491 
L 72 107.364799 
z
" style="fill:#d62728;fill-opacity:0.3;"/>
   </g>
   <g id="PolyCollection_5">
    <path clip-path="url(#p472fecb2d1)" d="M 72 111.075892 
L 72 84.020229 
L 80.928 80.462958 
L 89.856 85.909338 
L 98.784 89.816726 
L 107.712 92.529745 
L 116.64 96.043775 
L 125.568 98.021927 
L 134.496 101.578135 
L 143.424 105.192459 
L 152.352 106.916492 
L 161.28 109.867227 
L 170.208 111.699551 
L 179.136 114.750005 
L 188.064 117.671067 
L 196.992 120.838256 
L 205.92 122.265168 
L 214.848 126.471007 
L 223.776 128.406548 
L 232.704 131.745502 
L 241.632 133.212786 
L 250.56 135.364092 
L 259.488 137.589791 
L 268.416 141.574975 
L 277.344 141.307877 
L 286.272 144.113306 
L 295.2 146.704885 
L 304.128 150.893265 
L 313.056 152.489146 
L 321.984 152.243242 
L 330.912 155.993727 
L 339.84 158.226169 
L 348.768 160.572387 
L 357.696 162.381795 
L 366.624 164.045232 
L 375.552 165.228628 
L 384.48 166.321881 
L 393.408 167.163365 
L 402.336 168.63061 
L 411.264 169.214506 
L 420.192 170.708448 
L 429.12 171.835778 
L 438.048 173.152632 
L 446.976 174.189083 
L 455.904 175.319107 
L 464.832 176.359034 
L 473.76 179.753872 
L 482.688 180.528292 
L 491.616 181.707465 
L 500.544 183.477486 
L 509.472 185.112209 
L 518.4 185.684677 
L 518.4 202.177291 
L 518.4 202.177291 
L 509.472 201.494554 
L 500.544 201.024264 
L 491.616 199.200267 
L 482.688 198.288133 
L 473.76 196.973368 
L 464.832 194.83896 
L 455.904 193.025445 
L 446.976 191.319026 
L 438.048 190.552415 
L 429.12 189.012304 
L 420.192 187.490332 
L 411.264 186.473797 
L 402.336 185.349712 
L 393.408 182.871624 
L 384.48 181.953051 
L 375.552 180.970358 
L 366.624 179.096642 
L 357.696 177.630571 
L 348.768 176.300813 
L 339.84 174.430729 
L 330.912 172.475566 
L 321.984 170.854544 
L 313.056 168.44329 
L 304.128 166.827928 
L 295.2 165.16127 
L 286.272 162.553723 
L 277.344 161.463814 
L 268.416 159.014536 
L 259.488 156.629954 
L 250.56 153.829786 
L 241.632 151.769154 
L 232.704 149.044622 
L 223.776 146.500449 
L 214.848 144.107163 
L 205.92 141.466052 
L 196.992 138.619356 
L 188.064 134.784174 
L 179.136 131.389808 
L 170.208 128.313998 
L 161.28 125.249714 
L 152.352 121.990659 
L 143.424 118.410217 
L 134.496 116.059612 
L 125.568 113.892927 
L 116.64 111.6619 
L 107.712 109.512522 
L 98.784 106.38185 
L 89.856 107.108651 
L 80.928 106.986628 
L 72 111.075892 
z
" style="fill:#9467bd;fill-opacity:0.3;"/>
   </g>
   <g id="PolyCollection_6">
    <path clip-path="url(#p472fecb2d1)" d="M 72 117.908964 
L 72 80.633486 
L 80.928 85.399585 
L 89.856 90.366176 
L 98.784 92.701792 
L 107.712 96.041922 
L 116.64 98.628635 
L 125.568 98.738227 
L 134.496 101.169179 
L 143.424 105.561845 
L 152.352 109.587001 
L 161.28 112.952132 
L 170.208 120.584839 
L 179.136 126.880161 
L 188.064 132.227751 
L 196.992 140.30416 
L 205.92 145.123861 
L 214.848 154.426791 
L 223.776 165.758269 
L 232.704 174.216344 
L 241.632 180.666487 
L 250.56 186.661501 
L 259.488 192.969603 
L 268.416 197.085886 
L 277.344 199.456677 
L 286.272 200.179058 
L 295.2 202.116183 
L 295.2 238.845606 
L 295.2 238.845606 
L 286.272 233.166481 
L 277.344 238.871926 
L 268.416 242.927549 
L 259.488 236.901011 
L 250.56 234.654808 
L 241.632 232.35797 
L 232.704 224.334907 
L 223.776 211.682064 
L 214.848 207.831741 
L 205.92 197.899669 
L 196.992 184.449009 
L 188.064 172.678102 
L 179.136 158.279826 
L 170.208 145.020814 
L 161.28 132.570985 
L 152.352 123.646742 
L 143.424 117.457444 
L 134.496 115.473139 
L 125.568 114.8965 
L 116.64 111.502535 
L 107.712 110.75931 
L 98.784 110.077077 
L 89.856 111.273738 
L 80.928 113.56963 
L 72 117.908964 
z
" style="fill:#8c564b;fill-opacity:0.3;"/>
    <path clip-path="url(#p472fecb2d1)" d="M 313.056 239.56065 
L 313.056 205.147271 
L 321.984 206.512211 
L 330.912 209.611889 
L 339.84 208.868698 
L 348.768 202.464685 
L 357.696 208.795231 
L 366.624 205.350741 
L 375.552 209.486943 
L 375.552 237.386692 
L 375.552 237.386692 
L 366.624 235.68288 
L 357.696 236.267551 
L 348.768 247.641254 
L 339.84 231.485043 
L 330.912 232.158759 
L 321.984 229.953791 
L 313.056 239.56065 
z
" style="fill:#8c564b;fill-opacity:0.3;"/>
    <path clip-path="url(#p472fecb2d1)" d="M 393.408 230.005674 
L 393.408 206.774269 
L 402.336 203.649689 
L 411.264 202.68762 
L 420.192 206.996753 
L 429.12 208.605469 
L 438.048 206.448971 
L 446.976 204.088458 
L 455.904 207.464017 
L 464.832 205.686392 
L 473.76 199.89971 
L 482.688 202.586669 
L 491.616 198.342521 
L 500.544 203.28997 
L 509.472 196.322641 
L 518.4 205.316858 
L 518.4 223.434012 
L 518.4 223.434012 
L 509.472 233.211435 
L 500.544 230.12877 
L 491.616 233.309847 
L 482.688 230.987437 
L 473.76 237.206339 
L 464.832 235.178226 
L 455.904 227.114633 
L 446.976 234.018126 
L 438.048 230.382096 
L 429.12 232.459799 
L 420.192 228.376441 
L 411.264 228.690267 
L 402.336 237.176656 
L 393.408 230.005674 
z
" style="fill:#8c564b;fill-opacity:0.3;"/>
   </g>
   <g id="PolyCollection_7">
    <path clip-path="url(#p472fecb2d1)" d="M 80.928 235.266509 
L 80.928 154.292493 
L 89.856 160.034435 
L 98.784 149.244465 
L 98.784 230.857774 
L 98.784 230.857774 
L 89.856 213.702709 
L 80.928 235.266509 
z
" style="fill:#e377c2;fill-opacity:0.3;"/>
    <path clip-path="url(#p472fecb2d1)" d="M 134.496 216.427366 
L 134.496 155.354139 
L 143.424 154.844358 
L 152.352 151.928474 
L 161.28 138.762432 
L 170.208 152.27778 
L 179.136 142.607175 
L 179.136 212.773146 
L 179.136 212.773146 
L 170.208 210.493261 
L 161.28 221.825477 
L 152.352 197.197827 
L 143.424 208.923228 
L 134.496 216.427366 
z
" style="fill:#e377c2;fill-opacity:0.3;"/>
    <path clip-path="url(#p472fecb2d1)" d="M 223.776 214.283924 
L 223.776 148.643861 
L 223.776 214.283924 
L 223.776 214.283924 
z
" style="fill:#e377c2;fill-opacity:0.3;"/>
    <path clip-path="url(#p472fecb2d1)" d="M 277.344 195.878937 
L 277.344 146.983598 
L 286.272 144.42599 
L 286.272 201.043638 
L 286.272 201.043638 
L 277.344 195.878937 
z
" style="fill:#e377c2;fill-opacity:0.3;"/>
    <path clip-path="url(#p472fecb2d1)" d="M 313.056 202.971669 
L 313.056 135.250191 
L 313.056 202.971669 
L 313.056 202.971669 
z
" style="fill:#e377c2;fill-opacity:0.3;"/>
    <path clip-path="url(#p472fecb2d1)" d="M 429.12 223.640237 
L 429.12 131.014742 
L 429.12 223.640237 
L 429.12 223.640237 
z
" style="fill:#e377c2;fill-opacity:0.3;"/>
    <path clip-path="url(#p472fecb2d1)" d="M 446.976 207.580405 
L 446.976 131.283665 
L 455.904 141.019798 
L 464.832 135.87788 
L 464.832 195.617644 
L 464.832 195.617644 
L 455.904 201.476979 
L 446.976 207.580405 
z
" style="fill:#e377c2;fill-opacity:0.3;"/>
    <path clip-path="url(#p472fecb2d1)" d="M 482.688 190.597506 
L 482.688 133.849027 
L 482.688 190.597506 
L 482.688 190.597506 
z
" style="fill:#e377c2;fill-opacity:0.3;"/>
   </g>
   <g id="matplotlib.axis_1">
    <g id="xtick_1">
     <g id="line2d_1">
      <path clip-path="url(#p472fecb2d1)" d="M 72 384.48 
L 72 51.84 
" style="fill:none;stroke:#b0b0b0;stroke-linecap:square;stroke-width:0.8;"/>
     </g>
     <g id="line2d_2">
      <defs>
       <path d="M 0 0 
L 0 3.5 
" id="mc4c3560684" style="stroke:#000000;stroke-width:0.8;"/>
      </defs>
      <g>
       <use style="stroke:#000000;stroke-width:0.8;" x="72" xlink:href="#mc4c3560684" y="384.48"/>
      </g>
     </g>
     <g id="text_1">
      <!-- 0 -->
      <defs>
       <path d="M 31.78125 66.40625 
Q 24.171875 66.40625 20.328125 58.90625 
Q 16.5 51.421875 16.5 36.375 
Q 16.5 21.390625 20.328125 13.890625 
Q 24.171875 6.390625 31.78125 6.390625 
Q 39.453125 6.390625 43.28125 13.890625 
Q 47.125 21.390625 47.125 36.375 
Q 47.125 51.421875 43.28125 58.90625 
Q 39.453125 66.40625 31.78125 66.40625 
z
M 31.78125 74.21875 
Q 44.046875 74.21875 50.515625 64.515625 
Q 56.984375 54.828125 56.984375 36.375 
Q 56.984375 17.96875 50.515625 8.265625 
Q 44.046875 -1.421875 31.78125 -1.421875 
Q 19.53125 -1.421875 13.0625 8.265625 
Q 6.59375 17.96875 6.59375 36.375 
Q 6.59375 54.828125 13.0625 64.515625 
Q 19.53125 74.21875 31.78125 74.21875 
z
" id="DejaVuSans-48"/>
      </defs>
      <g transform="translate(68.81875 399.078438)scale(0.1 -0.1)">
       <use xlink:href="#DejaVuSans-48"/>
      </g>
     </g>
    </g>
    <g id="xtick_2">
     <g id="line2d_3">
      <path clip-path="url(#p472fecb2d1)" d="M 161.28 384.48 
L 161.28 51.84 
" style="fill:none;stroke:#b0b0b0;stroke-linecap:square;stroke-width:0.8;"/>
     </g>
     <g id="line2d_4">
      <g>
       <use style="stroke:#000000;stroke-width:0.8;" x="161.28" xlink:href="#mc4c3560684" y="384.48"/>
      </g>
     </g>
     <g id="text_2">
      <!-- 10 -->
      <defs>
       <path d="M 12.40625 8.296875 
L 28.515625 8.296875 
L 28.515625 63.921875 
L 10.984375 60.40625 
L 10.984375 69.390625 
L 28.421875 72.90625 
L 38.28125 72.90625 
L 38.28125 8.296875 
L 54.390625 8.296875 
L 54.390625 0 
L 12.40625 0 
z
" id="DejaVuSans-49"/>
      </defs>
      <g transform="translate(154.9175 399.078438)scale(0.1 -0.1)">
       <use xlink:href="#DejaVuSans-49"/>
       <use x="63.623047" xlink:href="#DejaVuSans-48"/>
      </g>
     </g>
    </g>
    <g id="xtick_3">
     <g id="line2d_5">
      <path clip-path="url(#p472fecb2d1)" d="M 250.56 384.48 
L 250.56 51.84 
" style="fill:none;stroke:#b0b0b0;stroke-linecap:square;stroke-width:0.8;"/>
     </g>
     <g id="line2d_6">
      <g>
       <use style="stroke:#000000;stroke-width:0.8;" x="250.56" xlink:href="#mc4c3560684" y="384.48"/>
      </g>
     </g>
     <g id="text_3">
      <!-- 20 -->
      <defs>
       <path d="M 19.1875 8.296875 
L 53.609375 8.296875 
L 53.609375 0 
L 7.328125 0 
L 7.328125 8.296875 
Q 12.9375 14.109375 22.625 23.890625 
Q 32.328125 33.6875 34.8125 36.53125 
Q 39.546875 41.84375 41.421875 45.53125 
Q 43.3125 49.21875 43.3125 52.78125 
Q 43.3125 58.59375 39.234375 62.25 
Q 35.15625 65.921875 28.609375 65.921875 
Q 23.96875 65.921875 18.8125 64.3125 
Q 13.671875 62.703125 7.8125 59.421875 
L 7.8125 69.390625 
Q 13.765625 71.78125 18.9375 73 
Q 24.125 74.21875 28.421875 74.21875 
Q 39.75 74.21875 46.484375 68.546875 
Q 53.21875 62.890625 53.21875 53.421875 
Q 53.21875 48.921875 51.53125 44.890625 
Q 49.859375 40.875 45.40625 35.40625 
Q 44.1875 33.984375 37.640625 27.21875 
Q 31.109375 20.453125 19.1875 8.296875 
z
" id="DejaVuSans-50"/>
      </defs>
      <g transform="translate(244.1975 399.078438)scale(0.1 -0.1)">
       <use xlink:href="#DejaVuSans-50"/>
       <use x="63.623047" xlink:href="#DejaVuSans-48"/>
      </g>
     </g>
    </g>
    <g id="xtick_4">
     <g id="line2d_7">
      <path clip-path="url(#p472fecb2d1)" d="M 339.84 384.48 
L 339.84 51.84 
" style="fill:none;stroke:#b0b0b0;stroke-linecap:square;stroke-width:0.8;"/>
     </g>
     <g id="line2d_8">
      <g>
       <use style="stroke:#000000;stroke-width:0.8;" x="339.84" xlink:href="#mc4c3560684" y="384.48"/>
      </g>
     </g>
     <g id="text_4">
      <!-- 30 -->
      <defs>
       <path d="M 40.578125 39.3125 
Q 47.65625 37.796875 51.625 33 
Q 55.609375 28.21875 55.609375 21.1875 
Q 55.609375 10.40625 48.1875 4.484375 
Q 40.765625 -1.421875 27.09375 -1.421875 
Q 22.515625 -1.421875 17.65625 -0.515625 
Q 12.796875 0.390625 7.625 2.203125 
L 7.625 11.71875 
Q 11.71875 9.328125 16.59375 8.109375 
Q 21.484375 6.890625 26.8125 6.890625 
Q 36.078125 6.890625 40.9375 10.546875 
Q 45.796875 14.203125 45.796875 21.1875 
Q 45.796875 27.640625 41.28125 31.265625 
Q 36.765625 34.90625 28.71875 34.90625 
L 20.21875 34.90625 
L 20.21875 43.015625 
L 29.109375 43.015625 
Q 36.375 43.015625 40.234375 45.921875 
Q 44.09375 48.828125 44.09375 54.296875 
Q 44.09375 59.90625 40.109375 62.90625 
Q 36.140625 65.921875 28.71875 65.921875 
Q 24.65625 65.921875 20.015625 65.03125 
Q 15.375 64.15625 9.8125 62.3125 
L 9.8125 71.09375 
Q 15.4375 72.65625 20.34375 73.4375 
Q 25.25 74.21875 29.59375 74.21875 
Q 40.828125 74.21875 47.359375 69.109375 
Q 53.90625 64.015625 53.90625 55.328125 
Q 53.90625 49.265625 50.4375 45.09375 
Q 46.96875 40.921875 40.578125 39.3125 
z
" id="DejaVuSans-51"/>
      </defs>
      <g transform="translate(333.4775 399.078438)scale(0.1 -0.1)">
       <use xlink:href="#DejaVuSans-51"/>
       <use x="63.623047" xlink:href="#DejaVuSans-48"/>
      </g>
     </g>
    </g>
    <g id="xtick_5">
     <g id="line2d_9">
      <path clip-path="url(#p472fecb2d1)" d="M 429.12 384.48 
L 429.12 51.84 
" style="fill:none;stroke:#b0b0b0;stroke-linecap:square;stroke-width:0.8;"/>
     </g>
     <g id="line2d_10">
      <g>
       <use style="stroke:#000000;stroke-width:0.8;" x="429.12" xlink:href="#mc4c3560684" y="384.48"/>
      </g>
     </g>
     <g id="text_5">
      <!-- 40 -->
      <defs>
       <path d="M 37.796875 64.3125 
L 12.890625 25.390625 
L 37.796875 25.390625 
z
M 35.203125 72.90625 
L 47.609375 72.90625 
L 47.609375 25.390625 
L 58.015625 25.390625 
L 58.015625 17.1875 
L 47.609375 17.1875 
L 47.609375 0 
L 37.796875 0 
L 37.796875 17.1875 
L 4.890625 17.1875 
L 4.890625 26.703125 
z
" id="DejaVuSans-52"/>
      </defs>
      <g transform="translate(422.7575 399.078438)scale(0.1 -0.1)">
       <use xlink:href="#DejaVuSans-52"/>
       <use x="63.623047" xlink:href="#DejaVuSans-48"/>
      </g>
     </g>
    </g>
    <g id="xtick_6">
     <g id="line2d_11">
      <path clip-path="url(#p472fecb2d1)" d="M 518.4 384.48 
L 518.4 51.84 
" style="fill:none;stroke:#b0b0b0;stroke-linecap:square;stroke-width:0.8;"/>
     </g>
     <g id="line2d_12">
      <g>
       <use style="stroke:#000000;stroke-width:0.8;" x="518.4" xlink:href="#mc4c3560684" y="384.48"/>
      </g>
     </g>
     <g id="text_6">
      <!-- 50 -->
      <defs>
       <path d="M 10.796875 72.90625 
L 49.515625 72.90625 
L 49.515625 64.59375 
L 19.828125 64.59375 
L 19.828125 46.734375 
Q 21.96875 47.46875 24.109375 47.828125 
Q 26.265625 48.1875 28.421875 48.1875 
Q 40.625 48.1875 47.75 41.5 
Q 54.890625 34.8125 54.890625 23.390625 
Q 54.890625 11.625 47.5625 5.09375 
Q 40.234375 -1.421875 26.90625 -1.421875 
Q 22.3125 -1.421875 17.546875 -0.640625 
Q 12.796875 0.140625 7.71875 1.703125 
L 7.71875 11.625 
Q 12.109375 9.234375 16.796875 8.0625 
Q 21.484375 6.890625 26.703125 6.890625 
Q 35.15625 6.890625 40.078125 11.328125 
Q 45.015625 15.765625 45.015625 23.390625 
Q 45.015625 31 40.078125 35.4375 
Q 35.15625 39.890625 26.703125 39.890625 
Q 22.75 39.890625 18.8125 39.015625 
Q 14.890625 38.140625 10.796875 36.28125 
z
" id="DejaVuSans-53"/>
      </defs>
      <g transform="translate(512.0375 399.078438)scale(0.1 -0.1)">
       <use xlink:href="#DejaVuSans-53"/>
       <use x="63.623047" xlink:href="#DejaVuSans-48"/>
      </g>
     </g>
    </g>
    <g id="text_7">
     <!-- Iteration -->
     <defs>
      <path d="M 9.8125 72.90625 
L 19.671875 72.90625 
L 19.671875 0 
L 9.8125 0 
z
" id="DejaVuSans-73"/>
      <path d="M 18.3125 70.21875 
L 18.3125 54.6875 
L 36.8125 54.6875 
L 36.8125 47.703125 
L 18.3125 47.703125 
L 18.3125 18.015625 
Q 18.3125 11.328125 20.140625 9.421875 
Q 21.96875 7.515625 27.59375 7.515625 
L 36.8125 7.515625 
L 36.8125 0 
L 27.59375 0 
Q 17.1875 0 13.234375 3.875 
Q 9.28125 7.765625 9.28125 18.015625 
L 9.28125 47.703125 
L 2.6875 47.703125 
L 2.6875 54.6875 
L 9.28125 54.6875 
L 9.28125 70.21875 
z
" id="DejaVuSans-116"/>
      <path d="M 56.203125 29.59375 
L 56.203125 25.203125 
L 14.890625 25.203125 
Q 15.484375 15.921875 20.484375 11.0625 
Q 25.484375 6.203125 34.421875 6.203125 
Q 39.59375 6.203125 44.453125 7.46875 
Q 49.3125 8.734375 54.109375 11.28125 
L 54.109375 2.78125 
Q 49.265625 0.734375 44.1875 -0.34375 
Q 39.109375 -1.421875 33.890625 -1.421875 
Q 20.796875 -1.421875 13.15625 6.1875 
Q 5.515625 13.8125 5.515625 26.8125 
Q 5.515625 40.234375 12.765625 48.109375 
Q 20.015625 56 32.328125 56 
Q 43.359375 56 49.78125 48.890625 
Q 56.203125 41.796875 56.203125 29.59375 
z
M 47.21875 32.234375 
Q 47.125 39.59375 43.09375 43.984375 
Q 39.0625 48.390625 32.421875 48.390625 
Q 24.90625 48.390625 20.390625 44.140625 
Q 15.875 39.890625 15.1875 32.171875 
z
" id="DejaVuSans-101"/>
      <path d="M 41.109375 46.296875 
Q 39.59375 47.171875 37.8125 47.578125 
Q 36.03125 48 33.890625 48 
Q 26.265625 48 22.1875 43.046875 
Q 18.109375 38.09375 18.109375 28.8125 
L 18.109375 0 
L 9.078125 0 
L 9.078125 54.6875 
L 18.109375 54.6875 
L 18.109375 46.1875 
Q 20.953125 51.171875 25.484375 53.578125 
Q 30.03125 56 36.53125 56 
Q 37.453125 56 38.578125 55.875 
Q 39.703125 55.765625 41.0625 55.515625 
z
" id="DejaVuSans-114"/>
      <path d="M 34.28125 27.484375 
Q 23.390625 27.484375 19.1875 25 
Q 14.984375 22.515625 14.984375 16.5 
Q 14.984375 11.71875 18.140625 8.90625 
Q 21.296875 6.109375 26.703125 6.109375 
Q 34.1875 6.109375 38.703125 11.40625 
Q 43.21875 16.703125 43.21875 25.484375 
L 43.21875 27.484375 
z
M 52.203125 31.203125 
L 52.203125 0 
L 43.21875 0 
L 43.21875 8.296875 
Q 40.140625 3.328125 35.546875 0.953125 
Q 30.953125 -1.421875 24.3125 -1.421875 
Q 15.921875 -1.421875 10.953125 3.296875 
Q 6 8.015625 6 15.921875 
Q 6 25.140625 12.171875 29.828125 
Q 18.359375 34.515625 30.609375 34.515625 
L 43.21875 34.515625 
L 43.21875 35.40625 
Q 43.21875 41.609375 39.140625 45 
Q 35.0625 48.390625 27.6875 48.390625 
Q 23 48.390625 18.546875 47.265625 
Q 14.109375 46.140625 10.015625 43.890625 
L 10.015625 52.203125 
Q 14.9375 54.109375 19.578125 55.046875 
Q 24.21875 56 28.609375 56 
Q 40.484375 56 46.34375 49.84375 
Q 52.203125 43.703125 52.203125 31.203125 
z
" id="DejaVuSans-97"/>
      <path d="M 9.421875 54.6875 
L 18.40625 54.6875 
L 18.40625 0 
L 9.421875 0 
z
M 9.421875 75.984375 
L 18.40625 75.984375 
L 18.40625 64.59375 
L 9.421875 64.59375 
z
" id="DejaVuSans-105"/>
      <path d="M 30.609375 48.390625 
Q 23.390625 48.390625 19.1875 42.75 
Q 14.984375 37.109375 14.984375 27.296875 
Q 14.984375 17.484375 19.15625 11.84375 
Q 23.34375 6.203125 30.609375 6.203125 
Q 37.796875 6.203125 41.984375 11.859375 
Q 46.1875 17.53125 46.1875 27.296875 
Q 46.1875 37.015625 41.984375 42.703125 
Q 37.796875 48.390625 30.609375 48.390625 
z
M 30.609375 56 
Q 42.328125 56 49.015625 48.375 
Q 55.71875 40.765625 55.71875 27.296875 
Q 55.71875 13.875 49.015625 6.21875 
Q 42.328125 -1.421875 30.609375 -1.421875 
Q 18.84375 -1.421875 12.171875 6.21875 
Q 5.515625 13.875 5.515625 27.296875 
Q 5.515625 40.765625 12.171875 48.375 
Q 18.84375 56 30.609375 56 
z
" id="DejaVuSans-111"/>
      <path d="M 54.890625 33.015625 
L 54.890625 0 
L 45.90625 0 
L 45.90625 32.71875 
Q 45.90625 40.484375 42.875 44.328125 
Q 39.84375 48.1875 33.796875 48.1875 
Q 26.515625 48.1875 22.3125 43.546875 
Q 18.109375 38.921875 18.109375 30.90625 
L 18.109375 0 
L 9.078125 0 
L 9.078125 54.6875 
L 18.109375 54.6875 
L 18.109375 46.1875 
Q 21.34375 51.125 25.703125 53.5625 
Q 30.078125 56 35.796875 56 
Q 45.21875 56 50.046875 50.171875 
Q 54.890625 44.34375 54.890625 33.015625 
z
" id="DejaVuSans-110"/>
     </defs>
     <g transform="translate(273.991406 412.756563)scale(0.1 -0.1)">
      <use xlink:href="#DejaVuSans-73"/>
      <use x="29.492188" xlink:href="#DejaVuSans-116"/>
      <use x="68.701172" xlink:href="#DejaVuSans-101"/>
      <use x="130.224609" xlink:href="#DejaVuSans-114"/>
      <use x="171.337891" xlink:href="#DejaVuSans-97"/>
      <use x="232.617188" xlink:href="#DejaVuSans-116"/>
      <use x="271.826172" xlink:href="#DejaVuSans-105"/>
      <use x="299.609375" xlink:href="#DejaVuSans-111"/>
      <use x="360.791016" xlink:href="#DejaVuSans-110"/>
     </g>
    </g>
   </g>
   <g id="matplotlib.axis_2">
    <g id="ytick_1">
     <g id="line2d_13">
      <path clip-path="url(#p472fecb2d1)" d="M 72 384.48 
L 518.4 384.48 
" style="fill:none;stroke:#b0b0b0;stroke-linecap:square;stroke-width:0.8;"/>
     </g>
     <g id="line2d_14">
      <defs>
       <path d="M 0 0 
L -3.5 0 
" id="m4803bc74bf" style="stroke:#000000;stroke-width:0.8;"/>
      </defs>
      <g>
       <use style="stroke:#000000;stroke-width:0.8;" x="72" xlink:href="#m4803bc74bf" y="384.48"/>
      </g>
     </g>
     <g id="text_8">
      <!-- $\mathdefault{10^{-12}}$ -->
      <defs>
       <path d="M 10.59375 35.5 
L 73.1875 35.5 
L 73.1875 27.203125 
L 10.59375 27.203125 
z
" id="DejaVuSans-8722"/>
      </defs>
      <g transform="translate(37.1 388.279219)scale(0.1 -0.1)">
       <use transform="translate(0 0.765625)" xlink:href="#DejaVuSans-49"/>
       <use transform="translate(63.623047 0.765625)" xlink:href="#DejaVuSans-48"/>
       <use transform="translate(128.203125 39.046875)scale(0.7)" xlink:href="#DejaVuSans-8722"/>
       <use transform="translate(186.855469 39.046875)scale(0.7)" xlink:href="#DejaVuSans-49"/>
       <use transform="translate(231.391602 39.046875)scale(0.7)" xlink:href="#DejaVuSans-50"/>
      </g>
     </g>
    </g>
    <g id="ytick_2">
     <g id="line2d_15">
      <path clip-path="url(#p472fecb2d1)" d="M 72 336.96 
L 518.4 336.96 
" style="fill:none;stroke:#b0b0b0;stroke-linecap:square;stroke-width:0.8;"/>
     </g>
     <g id="line2d_16">
      <g>
       <use style="stroke:#000000;stroke-width:0.8;" x="72" xlink:href="#m4803bc74bf" y="336.96"/>
      </g>
     </g>
     <g id="text_9">
      <!-- $\mathdefault{10^{-10}}$ -->
      <g transform="translate(37.1 340.759219)scale(0.1 -0.1)">
       <use transform="translate(0 0.765625)" xlink:href="#DejaVuSans-49"/>
       <use transform="translate(63.623047 0.765625)" xlink:href="#DejaVuSans-48"/>
       <use transform="translate(128.203125 39.046875)scale(0.7)" xlink:href="#DejaVuSans-8722"/>
       <use transform="translate(186.855469 39.046875)scale(0.7)" xlink:href="#DejaVuSans-49"/>
       <use transform="translate(231.391602 39.046875)scale(0.7)" xlink:href="#DejaVuSans-48"/>
      </g>
     </g>
    </g>
    <g id="ytick_3">
     <g id="line2d_17">
      <path clip-path="url(#p472fecb2d1)" d="M 72 289.44 
L 518.4 289.44 
" style="fill:none;stroke:#b0b0b0;stroke-linecap:square;stroke-width:0.8;"/>
     </g>
     <g id="line2d_18">
      <g>
       <use style="stroke:#000000;stroke-width:0.8;" x="72" xlink:href="#m4803bc74bf" y="289.44"/>
      </g>
     </g>
     <g id="text_10">
      <!-- $\mathdefault{10^{-8}}$ -->
      <defs>
       <path d="M 31.78125 34.625 
Q 24.75 34.625 20.71875 30.859375 
Q 16.703125 27.09375 16.703125 20.515625 
Q 16.703125 13.921875 20.71875 10.15625 
Q 24.75 6.390625 31.78125 6.390625 
Q 38.8125 6.390625 42.859375 10.171875 
Q 46.921875 13.96875 46.921875 20.515625 
Q 46.921875 27.09375 42.890625 30.859375 
Q 38.875 34.625 31.78125 34.625 
z
M 21.921875 38.8125 
Q 15.578125 40.375 12.03125 44.71875 
Q 8.5 49.078125 8.5 55.328125 
Q 8.5 64.0625 14.71875 69.140625 
Q 20.953125 74.21875 31.78125 74.21875 
Q 42.671875 74.21875 48.875 69.140625 
Q 55.078125 64.0625 55.078125 55.328125 
Q 55.078125 49.078125 51.53125 44.71875 
Q 48 40.375 41.703125 38.8125 
Q 48.828125 37.15625 52.796875 32.3125 
Q 56.78125 27.484375 56.78125 20.515625 
Q 56.78125 9.90625 50.3125 4.234375 
Q 43.84375 -1.421875 31.78125 -1.421875 
Q 19.734375 -1.421875 13.25 4.234375 
Q 6.78125 9.90625 6.78125 20.515625 
Q 6.78125 27.484375 10.78125 32.3125 
Q 14.796875 37.15625 21.921875 38.8125 
z
M 18.3125 54.390625 
Q 18.3125 48.734375 21.84375 45.5625 
Q 25.390625 42.390625 31.78125 42.390625 
Q 38.140625 42.390625 41.71875 45.5625 
Q 45.3125 48.734375 45.3125 54.390625 
Q 45.3125 60.0625 41.71875 63.234375 
Q 38.140625 66.40625 31.78125 66.40625 
Q 25.390625 66.40625 21.84375 63.234375 
Q 18.3125 60.0625 18.3125 54.390625 
z
" id="DejaVuSans-56"/>
      </defs>
      <g transform="translate(41.5 293.239219)scale(0.1 -0.1)">
       <use transform="translate(0 0.765625)" xlink:href="#DejaVuSans-49"/>
       <use transform="translate(63.623047 0.765625)" xlink:href="#DejaVuSans-48"/>
       <use transform="translate(128.203125 39.046875)scale(0.7)" xlink:href="#DejaVuSans-8722"/>
       <use transform="translate(186.855469 39.046875)scale(0.7)" xlink:href="#DejaVuSans-56"/>
      </g>
     </g>
    </g>
    <g id="ytick_4">
     <g id="line2d_19">
      <path clip-path="url(#p472fecb2d1)" d="M 72 241.92 
L 518.4 241.92 
" style="fill:none;stroke:#b0b0b0;stroke-linecap:square;stroke-width:0.8;"/>
     </g>
     <g id="line2d_20">
      <g>
       <use style="stroke:#000000;stroke-width:0.8;" x="72" xlink:href="#m4803bc74bf" y="241.92"/>
      </g>
     </g>
     <g id="text_11">
      <!-- $\mathdefault{10^{-6}}$ -->
      <defs>
       <path d="M 33.015625 40.375 
Q 26.375 40.375 22.484375 35.828125 
Q 18.609375 31.296875 18.609375 23.390625 
Q 18.609375 15.53125 22.484375 10.953125 
Q 26.375 6.390625 33.015625 6.390625 
Q 39.65625 6.390625 43.53125 10.953125 
Q 47.40625 15.53125 47.40625 23.390625 
Q 47.40625 31.296875 43.53125 35.828125 
Q 39.65625 40.375 33.015625 40.375 
z
M 52.59375 71.296875 
L 52.59375 62.3125 
Q 48.875 64.0625 45.09375 64.984375 
Q 41.3125 65.921875 37.59375 65.921875 
Q 27.828125 65.921875 22.671875 59.328125 
Q 17.53125 52.734375 16.796875 39.40625 
Q 19.671875 43.65625 24.015625 45.921875 
Q 28.375 48.1875 33.59375 48.1875 
Q 44.578125 48.1875 50.953125 41.515625 
Q 57.328125 34.859375 57.328125 23.390625 
Q 57.328125 12.15625 50.6875 5.359375 
Q 44.046875 -1.421875 33.015625 -1.421875 
Q 20.359375 -1.421875 13.671875 8.265625 
Q 6.984375 17.96875 6.984375 36.375 
Q 6.984375 53.65625 15.1875 63.9375 
Q 23.390625 74.21875 37.203125 74.21875 
Q 40.921875 74.21875 44.703125 73.484375 
Q 48.484375 72.75 52.59375 71.296875 
z
" id="DejaVuSans-54"/>
      </defs>
      <g transform="translate(41.5 245.719219)scale(0.1 -0.1)">
       <use transform="translate(0 0.765625)" xlink:href="#DejaVuSans-49"/>
       <use transform="translate(63.623047 0.765625)" xlink:href="#DejaVuSans-48"/>
       <use transform="translate(128.203125 39.046875)scale(0.7)" xlink:href="#DejaVuSans-8722"/>
       <use transform="translate(186.855469 39.046875)scale(0.7)" xlink:href="#DejaVuSans-54"/>
      </g>
     </g>
    </g>
    <g id="ytick_5">
     <g id="line2d_21">
      <path clip-path="url(#p472fecb2d1)" d="M 72 194.4 
L 518.4 194.4 
" style="fill:none;stroke:#b0b0b0;stroke-linecap:square;stroke-width:0.8;"/>
     </g>
     <g id="line2d_22">
      <g>
       <use style="stroke:#000000;stroke-width:0.8;" x="72" xlink:href="#m4803bc74bf" y="194.4"/>
      </g>
     </g>
     <g id="text_12">
      <!-- $\mathdefault{10^{-4}}$ -->
      <g transform="translate(41.5 198.199219)scale(0.1 -0.1)">
       <use transform="translate(0 0.684375)" xlink:href="#DejaVuSans-49"/>
       <use transform="translate(63.623047 0.684375)" xlink:href="#DejaVuSans-48"/>
       <use transform="translate(128.203125 38.965625)scale(0.7)" xlink:href="#DejaVuSans-8722"/>
       <use transform="translate(186.855469 38.965625)scale(0.7)" xlink:href="#DejaVuSans-52"/>
      </g>
     </g>
    </g>
    <g id="ytick_6">
     <g id="line2d_23">
      <path clip-path="url(#p472fecb2d1)" d="M 72 146.88 
L 518.4 146.88 
" style="fill:none;stroke:#b0b0b0;stroke-linecap:square;stroke-width:0.8;"/>
     </g>
     <g id="line2d_24">
      <g>
       <use style="stroke:#000000;stroke-width:0.8;" x="72" xlink:href="#m4803bc74bf" y="146.88"/>
      </g>
     </g>
     <g id="text_13">
      <!-- $\mathdefault{10^{-2}}$ -->
      <g transform="translate(41.5 150.679219)scale(0.1 -0.1)">
       <use transform="translate(0 0.765625)" xlink:href="#DejaVuSans-49"/>
       <use transform="translate(63.623047 0.765625)" xlink:href="#DejaVuSans-48"/>
       <use transform="translate(128.203125 39.046875)scale(0.7)" xlink:href="#DejaVuSans-8722"/>
       <use transform="translate(186.855469 39.046875)scale(0.7)" xlink:href="#DejaVuSans-50"/>
      </g>
     </g>
    </g>
    <g id="ytick_7">
     <g id="line2d_25">
      <path clip-path="url(#p472fecb2d1)" d="M 72 99.36 
L 518.4 99.36 
" style="fill:none;stroke:#b0b0b0;stroke-linecap:square;stroke-width:0.8;"/>
     </g>
     <g id="line2d_26">
      <g>
       <use style="stroke:#000000;stroke-width:0.8;" x="72" xlink:href="#m4803bc74bf" y="99.36"/>
      </g>
     </g>
     <g id="text_14">
      <!-- $\mathdefault{10^{0}}$ -->
      <g transform="translate(47.4 103.159219)scale(0.1 -0.1)">
       <use transform="translate(0 0.765625)" xlink:href="#DejaVuSans-49"/>
       <use transform="translate(63.623047 0.765625)" xlink:href="#DejaVuSans-48"/>
       <use transform="translate(128.203125 39.046875)scale(0.7)" xlink:href="#DejaVuSans-48"/>
      </g>
     </g>
    </g>
    <g id="ytick_8">
     <g id="line2d_27">
      <path clip-path="url(#p472fecb2d1)" d="M 72 51.84 
L 518.4 51.84 
" style="fill:none;stroke:#b0b0b0;stroke-linecap:square;stroke-width:0.8;"/>
     </g>
     <g id="line2d_28">
      <g>
       <use style="stroke:#000000;stroke-width:0.8;" x="72" xlink:href="#m4803bc74bf" y="51.84"/>
      </g>
     </g>
     <g id="text_15">
      <!-- $\mathdefault{10^{2}}$ -->
      <g transform="translate(47.4 55.639219)scale(0.1 -0.1)">
       <use transform="translate(0 0.765625)" xlink:href="#DejaVuSans-49"/>
       <use transform="translate(63.623047 0.765625)" xlink:href="#DejaVuSans-48"/>
       <use transform="translate(128.203125 39.046875)scale(0.7)" xlink:href="#DejaVuSans-50"/>
      </g>
     </g>
    </g>
    <g id="text_16">
     <!-- Integrated Variance -->
     <defs>
      <path d="M 45.40625 27.984375 
Q 45.40625 37.75 41.375 43.109375 
Q 37.359375 48.484375 30.078125 48.484375 
Q 22.859375 48.484375 18.828125 43.109375 
Q 14.796875 37.75 14.796875 27.984375 
Q 14.796875 18.265625 18.828125 12.890625 
Q 22.859375 7.515625 30.078125 7.515625 
Q 37.359375 7.515625 41.375 12.890625 
Q 45.40625 18.265625 45.40625 27.984375 
z
M 54.390625 6.78125 
Q 54.390625 -7.171875 48.1875 -13.984375 
Q 42 -20.796875 29.203125 -20.796875 
Q 24.46875 -20.796875 20.265625 -20.09375 
Q 16.0625 -19.390625 12.109375 -17.921875 
L 12.109375 -9.1875 
Q 16.0625 -11.328125 19.921875 -12.34375 
Q 23.78125 -13.375 27.78125 -13.375 
Q 36.625 -13.375 41.015625 -8.765625 
Q 45.40625 -4.15625 45.40625 5.171875 
L 45.40625 9.625 
Q 42.625 4.78125 38.28125 2.390625 
Q 33.9375 0 27.875 0 
Q 17.828125 0 11.671875 7.65625 
Q 5.515625 15.328125 5.515625 27.984375 
Q 5.515625 40.671875 11.671875 48.328125 
Q 17.828125 56 27.875 56 
Q 33.9375 56 38.28125 53.609375 
Q 42.625 51.21875 45.40625 46.390625 
L 45.40625 54.6875 
L 54.390625 54.6875 
z
" id="DejaVuSans-103"/>
      <path d="M 45.40625 46.390625 
L 45.40625 75.984375 
L 54.390625 75.984375 
L 54.390625 0 
L 45.40625 0 
L 45.40625 8.203125 
Q 42.578125 3.328125 38.25 0.953125 
Q 33.9375 -1.421875 27.875 -1.421875 
Q 17.96875 -1.421875 11.734375 6.484375 
Q 5.515625 14.40625 5.515625 27.296875 
Q 5.515625 40.1875 11.734375 48.09375 
Q 17.96875 56 27.875 56 
Q 33.9375 56 38.25 53.625 
Q 42.578125 51.265625 45.40625 46.390625 
z
M 14.796875 27.296875 
Q 14.796875 17.390625 18.875 11.75 
Q 22.953125 6.109375 30.078125 6.109375 
Q 37.203125 6.109375 41.296875 11.75 
Q 45.40625 17.390625 45.40625 27.296875 
Q 45.40625 37.203125 41.296875 42.84375 
Q 37.203125 48.484375 30.078125 48.484375 
Q 22.953125 48.484375 18.875 42.84375 
Q 14.796875 37.203125 14.796875 27.296875 
z
" id="DejaVuSans-100"/>
      <path id="DejaVuSans-32"/>
      <path d="M 28.609375 0 
L 0.78125 72.90625 
L 11.078125 72.90625 
L 34.1875 11.53125 
L 57.328125 72.90625 
L 67.578125 72.90625 
L 39.796875 0 
z
" id="DejaVuSans-86"/>
      <path d="M 48.78125 52.59375 
L 48.78125 44.1875 
Q 44.96875 46.296875 41.140625 47.34375 
Q 37.3125 48.390625 33.40625 48.390625 
Q 24.65625 48.390625 19.8125 42.84375 
Q 14.984375 37.3125 14.984375 27.296875 
Q 14.984375 17.28125 19.8125 11.734375 
Q 24.65625 6.203125 33.40625 6.203125 
Q 37.3125 6.203125 41.140625 7.25 
Q 44.96875 8.296875 48.78125 10.40625 
L 48.78125 2.09375 
Q 45.015625 0.34375 40.984375 -0.53125 
Q 36.96875 -1.421875 32.421875 -1.421875 
Q 20.0625 -1.421875 12.78125 6.34375 
Q 5.515625 14.109375 5.515625 27.296875 
Q 5.515625 40.671875 12.859375 48.328125 
Q 20.21875 56 33.015625 56 
Q 37.15625 56 41.109375 55.140625 
Q 45.0625 54.296875 48.78125 52.59375 
z
" id="DejaVuSans-99"/>
     </defs>
     <g transform="translate(31.020312 267.534219)rotate(-90)scale(0.1 -0.1)">
      <use xlink:href="#DejaVuSans-73"/>
      <use x="29.492188" xlink:href="#DejaVuSans-110"/>
      <use x="92.871094" xlink:href="#DejaVuSans-116"/>
      <use x="132.080078" xlink:href="#DejaVuSans-101"/>
      <use x="193.603516" xlink:href="#DejaVuSans-103"/>
      <use x="257.080078" xlink:href="#DejaVuSans-114"/>
      <use x="298.193359" xlink:href="#DejaVuSans-97"/>
      <use x="359.472656" xlink:href="#DejaVuSans-116"/>
      <use x="398.681641" xlink:href="#DejaVuSans-101"/>
      <use x="460.205078" xlink:href="#DejaVuSans-100"/>
      <use x="523.681641" xlink:href="#DejaVuSans-32"/>
      <use x="555.46875" xlink:href="#DejaVuSans-86"/>
      <use x="616.126953" xlink:href="#DejaVuSans-97"/>
      <use x="677.40625" xlink:href="#DejaVuSans-114"/>
      <use x="718.519531" xlink:href="#DejaVuSans-105"/>
      <use x="746.302734" xlink:href="#DejaVuSans-97"/>
      <use x="807.582031" xlink:href="#DejaVuSans-110"/>
      <use x="870.960938" xlink:href="#DejaVuSans-99"/>
      <use x="925.941406" xlink:href="#DejaVuSans-101"/>
     </g>
    </g>
   </g>
   <g id="line2d_29">
    <path clip-path="url(#p472fecb2d1)" style="fill:none;stroke:#1f77b4;stroke-linecap:square;stroke-width:1.5;"/>
   </g>
   <g id="line2d_30">
    <path clip-path="url(#p472fecb2d1)" d="M 72 102.725062 
L 80.928 99.059694 
L 89.856 103.362008 
L 98.784 101.805756 
L 107.712 99.906406 
L 116.64 100.847191 
L 125.568 104.080458 
L 134.496 106.897824 
L 143.424 112.221476 
L 152.352 118.824274 
L 161.28 127.066833 
L 170.208 136.416773 
L 179.136 144.79101 
L 188.064 153.38746 
L 196.992 164.843021 
L 205.92 173.412164 
L 214.848 181.742869 
L 223.776 188.857186 
L 232.704 198.721942 
L 241.632 202.236374 
L 250.56 207.890692 
L 259.488 212.336266 
L 268.416 214.158017 
L 277.344 219.773806 
L 286.272 223.375107 
L 295.2 223.303484 
L 304.128 222.192832 
L 313.056 220.157705 
L 321.984 227.133492 
L 322.061774 433 
M 339.759795 433 
L 339.84 220.641287 
L 348.768 222.863022 
L 348.847373 433 
M 366.543451 433 
L 366.624 219.721421 
L 375.552 221.07175 
L 375.632044 433 
M 393.327522 433 
L 393.408 219.911464 
L 402.336 221.342508 
L 411.264 219.796633 
L 411.344521 433 
M 429.038494 433 
L 429.12 217.164261 
L 438.048 219.814724 
L 438.128514 433 
M 455.822101 433 
L 455.904 216.11341 
L 464.832 218.146042 
L 473.76 216.547535 
L 482.688 217.539172 
L 491.616 216.970014 
L 500.544 216.219017 
L 509.472 214.097509 
L 509.554653 433 
" style="fill:none;stroke:#ff7f0e;stroke-linecap:square;stroke-width:1.5;"/>
   </g>
   <g id="line2d_31">
    <path clip-path="url(#p472fecb2d1)" d="M 72 89.576863 
L 80.928 93.194657 
L 89.856 97.486671 
L 98.784 100.035141 
L 107.712 101.764772 
L 116.64 103.750383 
L 125.568 104.969843 
L 134.496 106.5809 
L 143.424 107.874266 
L 152.352 109.345963 
L 161.28 110.399326 
L 170.208 111.564232 
L 179.136 112.574764 
L 188.064 113.560632 
L 196.992 114.439368 
L 205.92 115.272811 
L 214.848 116.228966 
L 223.776 117.085073 
L 232.704 117.819453 
L 241.632 118.594658 
L 250.56 119.557839 
L 259.488 120.365178 
L 268.416 121.059992 
L 277.344 121.788481 
L 286.272 122.308574 
L 295.2 122.95773 
L 304.128 123.519003 
L 313.056 124.073773 
L 321.984 124.687508 
L 330.912 125.321264 
L 339.84 125.913142 
L 348.768 126.495055 
L 357.696 127.028291 
L 366.624 127.55285 
L 375.552 128.032509 
L 384.48 128.518817 
L 393.408 129.03643 
L 402.336 129.461904 
L 411.264 129.856295 
L 420.192 130.241277 
L 429.12 130.695608 
L 438.048 131.075861 
L 446.976 131.459633 
L 455.904 131.839606 
L 464.832 132.20729 
L 473.76 132.60684 
L 482.688 132.979724 
L 491.616 133.395371 
L 500.544 133.802156 
L 509.472 134.201349 
L 518.4 134.56223 
" style="fill:none;stroke:#2ca02c;stroke-linecap:square;stroke-width:1.5;"/>
   </g>
   <g id="line2d_32">
    <path clip-path="url(#p472fecb2d1)" d="M 72 94.615616 
L 80.928 95.828081 
L 89.856 98.20787 
L 98.784 99.234937 
L 107.712 102.537062 
L 116.64 104.347016 
L 125.568 107.249354 
L 134.496 109.064376 
L 143.424 111.731214 
L 152.352 113.592403 
L 161.28 115.882951 
L 170.208 117.857999 
L 179.136 120.612966 
L 188.064 122.379888 
L 196.992 124.383762 
L 205.92 126.560401 
L 214.848 128.345955 
L 223.776 129.751018 
L 232.704 131.609922 
L 241.632 133.19801 
L 250.56 134.724195 
L 259.488 136.390777 
L 268.416 137.822087 
L 277.344 139.541198 
L 286.272 141.130248 
L 295.2 142.6137 
L 304.128 144.249216 
L 313.056 145.430417 
L 321.984 146.638957 
L 330.912 147.901051 
L 339.84 149.264728 
L 348.768 150.130484 
L 357.696 151.299013 
L 366.624 152.643118 
L 375.552 153.657578 
L 384.48 154.451689 
L 393.408 155.404035 
L 402.336 156.057624 
L 411.264 156.931193 
L 420.192 157.860928 
L 429.12 158.749401 
L 438.048 159.454224 
L 446.976 160.209632 
L 455.904 160.738918 
L 464.832 161.39728 
L 473.76 162.185243 
L 482.688 162.888688 
L 491.616 163.635923 
L 500.544 164.463943 
L 509.472 165.185921 
L 518.4 165.987043 
" style="fill:none;stroke:#d62728;stroke-linecap:square;stroke-width:1.5;"/>
   </g>
   <g id="line2d_33">
    <path clip-path="url(#p472fecb2d1)" d="M 72 97.548061 
L 80.928 93.724793 
L 89.856 96.508995 
L 98.784 98.099288 
L 107.712 101.021134 
L 116.64 103.852838 
L 125.568 105.957427 
L 134.496 108.818873 
L 143.424 111.801338 
L 152.352 114.453575 
L 161.28 117.55847 
L 170.208 120.006774 
L 179.136 123.069907 
L 188.064 126.227621 
L 196.992 129.728806 
L 205.92 131.86561 
L 214.848 135.289085 
L 223.776 137.453498 
L 232.704 140.395062 
L 241.632 142.49097 
L 250.56 144.596939 
L 259.488 147.109872 
L 268.416 150.294755 
L 277.344 151.385846 
L 286.272 153.333515 
L 295.2 155.933078 
L 304.128 158.860596 
L 313.056 160.466218 
L 321.984 161.548893 
L 330.912 164.234646 
L 339.84 166.328449 
L 348.768 168.4366 
L 357.696 170.006183 
L 366.624 171.570937 
L 375.552 173.099493 
L 384.48 174.137466 
L 393.408 175.017494 
L 402.336 176.990161 
L 411.264 177.844151 
L 420.192 179.09939 
L 429.12 180.424041 
L 438.048 181.852523 
L 446.976 182.754055 
L 455.904 184.172276 
L 464.832 185.598997 
L 473.76 188.36362 
L 482.688 189.408212 
L 491.616 190.453866 
L 500.544 192.250875 
L 509.472 193.303381 
L 518.4 193.930984 
" style="fill:none;stroke:#9467bd;stroke-linecap:square;stroke-width:1.5;"/>
   </g>
   <g id="line2d_34">
    <path clip-path="url(#p472fecb2d1)" d="M 72 99.271225 
L 80.928 99.484608 
L 89.856 100.819957 
L 98.784 101.389435 
L 107.712 103.400616 
L 116.64 105.065585 
L 125.568 106.817363 
L 134.496 108.321159 
L 143.424 111.509644 
L 152.352 116.616871 
L 161.28 122.761558 
L 170.208 132.802826 
L 179.136 142.579994 
L 188.064 152.452927 
L 196.992 162.376584 
L 205.92 171.511765 
L 214.848 181.129266 
L 223.776 188.720167 
L 232.704 199.275625 
L 241.632 206.512228 
L 250.56 210.658155 
L 259.488 214.935307 
L 268.416 220.006718 
L 277.344 219.164302 
L 286.272 216.67277 
L 295.2 220.480895 
L 295.280265 433 
M 312.976436 433 
L 313.056 222.35396 
L 321.984 218.233001 
L 330.912 220.885324 
L 339.84 220.176871 
L 348.768 225.052969 
L 357.696 222.531391 
L 366.624 220.51681 
L 375.552 223.436818 
L 375.631158 433 
M 393.326953 433 
L 393.408 218.389971 
L 402.336 220.413173 
L 411.264 215.688943 
L 420.192 217.686597 
L 429.12 220.532634 
L 438.048 218.415533 
L 446.976 219.053292 
L 455.904 217.289325 
L 464.832 220.432309 
L 473.76 218.553024 
L 482.688 216.787053 
L 491.616 215.826184 
L 500.544 216.70937 
L 509.472 214.767038 
L 518.4 214.375435 
" style="fill:none;stroke:#8c564b;stroke-linecap:square;stroke-width:1.5;"/>
   </g>
   <g id="line2d_35">
    <path clip-path="url(#p472fecb2d1)" d="M 80.838126 433 
L 80.928 194.779501 
L 89.856 186.868572 
L 98.784 190.05112 
L 98.87564 433 
M 134.402807 433 
L 134.496 185.890752 
L 143.424 181.883793 
L 152.352 174.563151 
L 161.28 180.293955 
L 170.208 181.385521 
L 179.136 177.69016 
L 179.232252 433 
M 223.681156 433 
L 223.776 181.463892 
L 223.870844 433 
M 277.245415 433 
L 277.344 171.431267 
L 286.272 172.734814 
L 286.3701 433 
M 312.95655 433 
L 313.056 169.11093 
L 313.15545 433 
M 429.023613 433 
L 429.12 177.327489 
L 429.216387 433 
M 446.876669 433 
L 446.976 169.432035 
L 455.904 171.248388 
L 464.832 165.747762 
L 464.932703 433 
M 482.585984 433 
L 482.688 162.223267 
L 482.790016 433 
" style="fill:none;stroke:#e377c2;stroke-linecap:square;stroke-width:1.5;"/>
   </g>
   <g id="patch_3">
    <path d="M 72 384.48 
L 72 51.84 
" style="fill:none;stroke:#000000;stroke-linecap:square;stroke-linejoin:miter;stroke-width:0.8;"/>
   </g>
   <g id="patch_4">
    <path d="M 518.4 384.48 
L 518.4 51.84 
" style="fill:none;stroke:#000000;stroke-linecap:square;stroke-linejoin:miter;stroke-width:0.8;"/>
   </g>
   <g id="patch_5">
    <path d="M 72 384.48 
L 518.4 384.48 
" style="fill:none;stroke:#000000;stroke-linecap:square;stroke-linejoin:miter;stroke-width:0.8;"/>
   </g>
   <g id="patch_6">
    <path d="M 72 51.84 
L 518.4 51.84 
" style="fill:none;stroke:#000000;stroke-linecap:square;stroke-linejoin:miter;stroke-width:0.8;"/>
   </g>
   <g id="legend_1">
    <g id="patch_7">
     <path d="M 79 379.48 
L 165.804688 379.48 
Q 167.804688 379.48 167.804688 377.48 
L 167.804688 275.733125 
Q 167.804688 273.733125 165.804688 273.733125 
L 79 273.733125 
Q 77 273.733125 77 275.733125 
L 77 377.48 
Q 77 379.48 79 379.48 
z
" style="fill:#ffffff;opacity:0.8;stroke:#cccccc;stroke-linejoin:miter;"/>
    </g>
    <g id="line2d_36">
     <path d="M 81 281.831563 
L 101 281.831563 
" style="fill:none;stroke:#1f77b4;stroke-linecap:square;stroke-width:1.5;"/>
    </g>
    <g id="line2d_37"/>
    <g id="text_17">
     <!-- Constant -->
     <defs>
      <path d="M 64.40625 67.28125 
L 64.40625 56.890625 
Q 59.421875 61.53125 53.78125 63.8125 
Q 48.140625 66.109375 41.796875 66.109375 
Q 29.296875 66.109375 22.65625 58.46875 
Q 16.015625 50.828125 16.015625 36.375 
Q 16.015625 21.96875 22.65625 14.328125 
Q 29.296875 6.6875 41.796875 6.6875 
Q 48.140625 6.6875 53.78125 8.984375 
Q 59.421875 11.28125 64.40625 15.921875 
L 64.40625 5.609375 
Q 59.234375 2.09375 53.4375 0.328125 
Q 47.65625 -1.421875 41.21875 -1.421875 
Q 24.65625 -1.421875 15.125 8.703125 
Q 5.609375 18.84375 5.609375 36.375 
Q 5.609375 53.953125 15.125 64.078125 
Q 24.65625 74.21875 41.21875 74.21875 
Q 47.75 74.21875 53.53125 72.484375 
Q 59.328125 70.75 64.40625 67.28125 
z
" id="DejaVuSans-67"/>
      <path d="M 44.28125 53.078125 
L 44.28125 44.578125 
Q 40.484375 46.53125 36.375 47.5 
Q 32.28125 48.484375 27.875 48.484375 
Q 21.1875 48.484375 17.84375 46.4375 
Q 14.5 44.390625 14.5 40.28125 
Q 14.5 37.15625 16.890625 35.375 
Q 19.28125 33.59375 26.515625 31.984375 
L 29.59375 31.296875 
Q 39.15625 29.25 43.1875 25.515625 
Q 47.21875 21.78125 47.21875 15.09375 
Q 47.21875 7.46875 41.1875 3.015625 
Q 35.15625 -1.421875 24.609375 -1.421875 
Q 20.21875 -1.421875 15.453125 -0.5625 
Q 10.6875 0.296875 5.421875 2 
L 5.421875 11.28125 
Q 10.40625 8.6875 15.234375 7.390625 
Q 20.0625 6.109375 24.8125 6.109375 
Q 31.15625 6.109375 34.5625 8.28125 
Q 37.984375 10.453125 37.984375 14.40625 
Q 37.984375 18.0625 35.515625 20.015625 
Q 33.0625 21.96875 24.703125 23.78125 
L 21.578125 24.515625 
Q 13.234375 26.265625 9.515625 29.90625 
Q 5.8125 33.546875 5.8125 39.890625 
Q 5.8125 47.609375 11.28125 51.796875 
Q 16.75 56 26.8125 56 
Q 31.78125 56 36.171875 55.265625 
Q 40.578125 54.546875 44.28125 53.078125 
z
" id="DejaVuSans-115"/>
     </defs>
     <g transform="translate(109 285.331563)scale(0.1 -0.1)">
      <use xlink:href="#DejaVuSans-67"/>
      <use x="69.824219" xlink:href="#DejaVuSans-111"/>
      <use x="131.005859" xlink:href="#DejaVuSans-110"/>
      <use x="194.384766" xlink:href="#DejaVuSans-115"/>
      <use x="246.484375" xlink:href="#DejaVuSans-116"/>
      <use x="285.693359" xlink:href="#DejaVuSans-97"/>
      <use x="346.972656" xlink:href="#DejaVuSans-110"/>
      <use x="410.351562" xlink:href="#DejaVuSans-116"/>
     </g>
    </g>
    <g id="line2d_38">
     <path d="M 81 296.509688 
L 101 296.509688 
" style="fill:none;stroke:#ff7f0e;stroke-linecap:square;stroke-width:1.5;"/>
    </g>
    <g id="line2d_39"/>
    <g id="text_18">
     <!-- RBF -->
     <defs>
      <path d="M 44.390625 34.1875 
Q 47.5625 33.109375 50.5625 29.59375 
Q 53.5625 26.078125 56.59375 19.921875 
L 66.609375 0 
L 56 0 
L 46.6875 18.703125 
Q 43.0625 26.03125 39.671875 28.421875 
Q 36.28125 30.8125 30.421875 30.8125 
L 19.671875 30.8125 
L 19.671875 0 
L 9.8125 0 
L 9.8125 72.90625 
L 32.078125 72.90625 
Q 44.578125 72.90625 50.734375 67.671875 
Q 56.890625 62.453125 56.890625 51.90625 
Q 56.890625 45.015625 53.6875 40.46875 
Q 50.484375 35.9375 44.390625 34.1875 
z
M 19.671875 64.796875 
L 19.671875 38.921875 
L 32.078125 38.921875 
Q 39.203125 38.921875 42.84375 42.21875 
Q 46.484375 45.515625 46.484375 51.90625 
Q 46.484375 58.296875 42.84375 61.546875 
Q 39.203125 64.796875 32.078125 64.796875 
z
" id="DejaVuSans-82"/>
      <path d="M 19.671875 34.8125 
L 19.671875 8.109375 
L 35.5 8.109375 
Q 43.453125 8.109375 47.28125 11.40625 
Q 51.125 14.703125 51.125 21.484375 
Q 51.125 28.328125 47.28125 31.5625 
Q 43.453125 34.8125 35.5 34.8125 
z
M 19.671875 64.796875 
L 19.671875 42.828125 
L 34.28125 42.828125 
Q 41.5 42.828125 45.03125 45.53125 
Q 48.578125 48.25 48.578125 53.8125 
Q 48.578125 59.328125 45.03125 62.0625 
Q 41.5 64.796875 34.28125 64.796875 
z
M 9.8125 72.90625 
L 35.015625 72.90625 
Q 46.296875 72.90625 52.390625 68.21875 
Q 58.5 63.53125 58.5 54.890625 
Q 58.5 48.1875 55.375 44.234375 
Q 52.25 40.28125 46.1875 39.3125 
Q 53.46875 37.75 57.5 32.78125 
Q 61.53125 27.828125 61.53125 20.40625 
Q 61.53125 10.640625 54.890625 5.3125 
Q 48.25 0 35.984375 0 
L 9.8125 0 
z
" id="DejaVuSans-66"/>
      <path d="M 9.8125 72.90625 
L 51.703125 72.90625 
L 51.703125 64.59375 
L 19.671875 64.59375 
L 19.671875 43.109375 
L 48.578125 43.109375 
L 48.578125 34.8125 
L 19.671875 34.8125 
L 19.671875 0 
L 9.8125 0 
z
" id="DejaVuSans-70"/>
     </defs>
     <g transform="translate(109 300.009688)scale(0.1 -0.1)">
      <use xlink:href="#DejaVuSans-82"/>
      <use x="69.482422" xlink:href="#DejaVuSans-66"/>
      <use x="138.085938" xlink:href="#DejaVuSans-70"/>
     </g>
    </g>
    <g id="line2d_40">
     <path d="M 81 311.187813 
L 101 311.187813 
" style="fill:none;stroke:#2ca02c;stroke-linecap:square;stroke-width:1.5;"/>
    </g>
    <g id="line2d_41"/>
    <g id="text_19">
     <!-- Matrn-1/2 -->
     <defs>
      <path d="M 9.8125 72.90625 
L 24.515625 72.90625 
L 43.109375 23.296875 
L 61.8125 72.90625 
L 76.515625 72.90625 
L 76.515625 0 
L 66.890625 0 
L 66.890625 64.015625 
L 48.09375 14.015625 
L 38.1875 14.015625 
L 19.390625 64.015625 
L 19.390625 0 
L 9.8125 0 
z
" id="DejaVuSans-77"/>
      <path d="M 56.203125 29.59375 
L 56.203125 25.203125 
L 14.890625 25.203125 
Q 15.484375 15.921875 20.484375 11.0625 
Q 25.484375 6.203125 34.421875 6.203125 
Q 39.59375 6.203125 44.453125 7.46875 
Q 49.3125 8.734375 54.109375 11.28125 
L 54.109375 2.78125 
Q 49.265625 0.734375 44.1875 -0.34375 
Q 39.109375 -1.421875 33.890625 -1.421875 
Q 20.796875 -1.421875 13.15625 6.1875 
Q 5.515625 13.8125 5.515625 26.8125 
Q 5.515625 40.234375 12.765625 48.109375 
Q 20.015625 56 32.328125 56 
Q 43.359375 56 49.78125 48.890625 
Q 56.203125 41.796875 56.203125 29.59375 
z
M 47.21875 32.234375 
Q 47.125 39.59375 43.09375 43.984375 
Q 39.0625 48.390625 32.421875 48.390625 
Q 24.90625 48.390625 20.390625 44.140625 
Q 15.875 39.890625 15.1875 32.171875 
z
M 38.53125 79.984375 
L 48.25 79.984375 
L 32.34375 61.625 
L 24.859375 61.625 
z
" id="DejaVuSans-233"/>
      <path d="M 4.890625 31.390625 
L 31.203125 31.390625 
L 31.203125 23.390625 
L 4.890625 23.390625 
z
" id="DejaVuSans-45"/>
      <path d="M 25.390625 72.90625 
L 33.6875 72.90625 
L 8.296875 -9.28125 
L 0 -9.28125 
z
" id="DejaVuSans-47"/>
     </defs>
     <g transform="translate(109 314.687813)scale(0.1 -0.1)">
      <use xlink:href="#DejaVuSans-77"/>
      <use x="86.279297" xlink:href="#DejaVuSans-97"/>
      <use x="147.558594" xlink:href="#DejaVuSans-116"/>
      <use x="186.767578" xlink:href="#DejaVuSans-233"/>
      <use x="248.291016" xlink:href="#DejaVuSans-114"/>
      <use x="287.654297" xlink:href="#DejaVuSans-110"/>
      <use x="351.033203" xlink:href="#DejaVuSans-45"/>
      <use x="387.117188" xlink:href="#DejaVuSans-49"/>
      <use x="450.740234" xlink:href="#DejaVuSans-47"/>
      <use x="484.431641" xlink:href="#DejaVuSans-50"/>
     </g>
    </g>
    <g id="line2d_42">
     <path d="M 81 325.865938 
L 101 325.865938 
" style="fill:none;stroke:#d62728;stroke-linecap:square;stroke-width:1.5;"/>
    </g>
    <g id="line2d_43"/>
    <g id="text_20">
     <!-- Matrn-3/2 -->
     <g transform="translate(109 329.365938)scale(0.1 -0.1)">
      <use xlink:href="#DejaVuSans-77"/>
      <use x="86.279297" xlink:href="#DejaVuSans-97"/>
      <use x="147.558594" xlink:href="#DejaVuSans-116"/>
      <use x="186.767578" xlink:href="#DejaVuSans-233"/>
      <use x="248.291016" xlink:href="#DejaVuSans-114"/>
      <use x="287.654297" xlink:href="#DejaVuSans-110"/>
      <use x="351.033203" xlink:href="#DejaVuSans-45"/>
      <use x="387.117188" xlink:href="#DejaVuSans-51"/>
      <use x="450.740234" xlink:href="#DejaVuSans-47"/>
      <use x="484.431641" xlink:href="#DejaVuSans-50"/>
     </g>
    </g>
    <g id="line2d_44">
     <path d="M 81 340.544062 
L 101 340.544062 
" style="fill:none;stroke:#9467bd;stroke-linecap:square;stroke-width:1.5;"/>
    </g>
    <g id="line2d_45"/>
    <g id="text_21">
     <!-- Matrn-5/2 -->
     <g transform="translate(109 344.044062)scale(0.1 -0.1)">
      <use xlink:href="#DejaVuSans-77"/>
      <use x="86.279297" xlink:href="#DejaVuSans-97"/>
      <use x="147.558594" xlink:href="#DejaVuSans-116"/>
      <use x="186.767578" xlink:href="#DejaVuSans-233"/>
      <use x="248.291016" xlink:href="#DejaVuSans-114"/>
      <use x="287.654297" xlink:href="#DejaVuSans-110"/>
      <use x="351.033203" xlink:href="#DejaVuSans-45"/>
      <use x="387.117188" xlink:href="#DejaVuSans-53"/>
      <use x="450.740234" xlink:href="#DejaVuSans-47"/>
      <use x="484.431641" xlink:href="#DejaVuSans-50"/>
     </g>
    </g>
    <g id="line2d_46">
     <path d="M 81 355.222188 
L 101 355.222188 
" style="fill:none;stroke:#8c564b;stroke-linecap:square;stroke-width:1.5;"/>
    </g>
    <g id="line2d_47"/>
    <g id="text_22">
     <!-- RQ -->
     <defs>
      <path d="M 39.40625 66.21875 
Q 28.65625 66.21875 22.328125 58.203125 
Q 16.015625 50.203125 16.015625 36.375 
Q 16.015625 22.609375 22.328125 14.59375 
Q 28.65625 6.59375 39.40625 6.59375 
Q 50.140625 6.59375 56.421875 14.59375 
Q 62.703125 22.609375 62.703125 36.375 
Q 62.703125 50.203125 56.421875 58.203125 
Q 50.140625 66.21875 39.40625 66.21875 
z
M 53.21875 1.3125 
L 66.21875 -12.890625 
L 54.296875 -12.890625 
L 43.5 -1.21875 
Q 41.890625 -1.3125 41.03125 -1.359375 
Q 40.1875 -1.421875 39.40625 -1.421875 
Q 24.03125 -1.421875 14.8125 8.859375 
Q 5.609375 19.140625 5.609375 36.375 
Q 5.609375 53.65625 14.8125 63.9375 
Q 24.03125 74.21875 39.40625 74.21875 
Q 54.734375 74.21875 63.90625 63.9375 
Q 73.09375 53.65625 73.09375 36.375 
Q 73.09375 23.6875 67.984375 14.640625 
Q 62.890625 5.609375 53.21875 1.3125 
z
" id="DejaVuSans-81"/>
     </defs>
     <g transform="translate(109 358.722188)scale(0.1 -0.1)">
      <use xlink:href="#DejaVuSans-82"/>
      <use x="69.482422" xlink:href="#DejaVuSans-81"/>
     </g>
    </g>
    <g id="line2d_48">
     <path d="M 81 369.900313 
L 101 369.900313 
" style="fill:none;stroke:#e377c2;stroke-linecap:square;stroke-width:1.5;"/>
    </g>
    <g id="line2d_49"/>
    <g id="text_23">
     <!-- Dot Prod. -->
     <defs>
      <path d="M 19.671875 64.796875 
L 19.671875 8.109375 
L 31.59375 8.109375 
Q 46.6875 8.109375 53.6875 14.9375 
Q 60.6875 21.78125 60.6875 36.53125 
Q 60.6875 51.171875 53.6875 57.984375 
Q 46.6875 64.796875 31.59375 64.796875 
z
M 9.8125 72.90625 
L 30.078125 72.90625 
Q 51.265625 72.90625 61.171875 64.09375 
Q 71.09375 55.28125 71.09375 36.53125 
Q 71.09375 17.671875 61.125 8.828125 
Q 51.171875 0 30.078125 0 
L 9.8125 0 
z
" id="DejaVuSans-68"/>
      <path d="M 19.671875 64.796875 
L 19.671875 37.40625 
L 32.078125 37.40625 
Q 38.96875 37.40625 42.71875 40.96875 
Q 46.484375 44.53125 46.484375 51.125 
Q 46.484375 57.671875 42.71875 61.234375 
Q 38.96875 64.796875 32.078125 64.796875 
z
M 9.8125 72.90625 
L 32.078125 72.90625 
Q 44.34375 72.90625 50.609375 67.359375 
Q 56.890625 61.8125 56.890625 51.125 
Q 56.890625 40.328125 50.609375 34.8125 
Q 44.34375 29.296875 32.078125 29.296875 
L 19.671875 29.296875 
L 19.671875 0 
L 9.8125 0 
z
" id="DejaVuSans-80"/>
      <path d="M 10.6875 12.40625 
L 21 12.40625 
L 21 0 
L 10.6875 0 
z
" id="DejaVuSans-46"/>
     </defs>
     <g transform="translate(109 373.400313)scale(0.1 -0.1)">
      <use xlink:href="#DejaVuSans-68"/>
      <use x="77.001953" xlink:href="#DejaVuSans-111"/>
      <use x="138.183594" xlink:href="#DejaVuSans-116"/>
      <use x="177.392578" xlink:href="#DejaVuSans-32"/>
      <use x="209.179688" xlink:href="#DejaVuSans-80"/>
      <use x="267.732422" xlink:href="#DejaVuSans-114"/>
      <use x="306.595703" xlink:href="#DejaVuSans-111"/>
      <use x="367.777344" xlink:href="#DejaVuSans-100"/>
      <use x="431.253906" xlink:href="#DejaVuSans-46"/>
     </g>
    </g>
   </g>
  </g>
 </g>
 <defs>
  <clipPath id="p472fecb2d1">
   <rect height="332.64" width="446.4" x="72" y="51.84"/>
  </clipPath>
 </defs>
</svg>
