<?xml version="1.0" encoding="utf-8" standalone="no"?>
<!DOCTYPE svg PUBLIC "-//W3C//DTD SVG 1.1//EN"
  "http://www.w3.org/Graphics/SVG/1.1/DTD/svg11.dtd">
<!-- Created with matplotlib (https://matplotlib.org/) -->
<svg height="432pt" version="1.1" viewBox="0 0 576 432" width="576pt" xmlns="http://www.w3.org/2000/svg" xmlns:xlink="http://www.w3.org/1999/xlink">
 <defs>
  <style type="text/css">
*{stroke-linecap:butt;stroke-linejoin:round;}
  </style>
 </defs>
 <g id="figure_1">
  <g id="patch_1">
   <path d="M 0 432 
L 576 432 
L 576 0 
L 0 0 
z
" style="fill:#ffffff;"/>
  </g>
  <g id="axes_1">
   <g id="patch_2">
    <path d="M 72 384.48 
L 518.4 384.48 
L 518.4 51.84 
L 72 51.84 
z
" style="fill:#ffffff;"/>
   </g>
   <g id="PolyCollection_1">
    <path clip-path="url(#p6d5a902956)" d="M 411.264 426.044786 
L 411.264 72.806245 
L 411.264 426.044786 
L 411.264 426.044786 
z
" style="fill:#1f77b4;fill-opacity:0.3;"/>
    <path clip-path="url(#p6d5a902956)" d="M 429.12 329.939569 
L 429.12 -70.329956 
L 438.048 53.082524 
L 438.048 421.412322 
L 438.048 421.412322 
L 429.12 329.939569 
z
" style="fill:#1f77b4;fill-opacity:0.3;"/>
   </g>
   <g id="PolyCollection_2">
    <path clip-path="url(#p6d5a902956)" d="M 72 116.717392 
L 72 84.103515 
L 80.928 89.4598 
L 89.856 98.293111 
L 98.784 90.9853 
L 107.712 87.18348 
L 116.64 95.244048 
L 125.568 110.262764 
L 134.496 110.932716 
L 143.424 126.119952 
L 152.352 133.346066 
L 161.28 148.580124 
L 170.208 158.086786 
L 179.136 161.810797 
L 188.064 196.134639 
L 196.992 211.066743 
L 205.92 219.274605 
L 214.848 219.758824 
L 223.776 232.987046 
L 232.704 231.504125 
L 241.632 227.508041 
L 250.56 225.381516 
L 259.488 221.244844 
L 268.416 220.501008 
L 277.344 219.804104 
L 286.272 214.972915 
L 295.2 213.246649 
L 304.128 217.467958 
L 304.128 236.129341 
L 304.128 236.129341 
L 295.2 242.927731 
L 286.272 249.889447 
L 277.344 252.21467 
L 268.416 241.227223 
L 259.488 256.048756 
L 250.56 241.404706 
L 241.632 248.779572 
L 232.704 251.576431 
L 223.776 250.452326 
L 214.848 241.063604 
L 205.92 224.129825 
L 196.992 214.909697 
L 188.064 206.470898 
L 179.136 175.596327 
L 170.208 165.707818 
L 161.28 155.661234 
L 152.352 142.416995 
L 143.424 129.186378 
L 134.496 125.924835 
L 125.568 117.031264 
L 116.64 112.639605 
L 107.712 102.02867 
L 98.784 101.486136 
L 89.856 127.045445 
L 80.928 123.682316 
L 72 116.717392 
z
" style="fill:#ff7f0e;fill-opacity:0.3;"/>
    <path clip-path="url(#p6d5a902956)" d="M 321.984 235.508858 
L 321.984 212.481007 
L 330.912 205.075593 
L 339.84 210.99257 
L 348.768 207.434564 
L 348.768 257.171779 
L 348.768 257.171779 
L 339.84 230.599307 
L 330.912 241.506544 
L 321.984 235.508858 
z
" style="fill:#ff7f0e;fill-opacity:0.3;"/>
    <path clip-path="url(#p6d5a902956)" d="M 375.552 237.58545 
L 375.552 207.46449 
L 384.48 208.337603 
L 384.48 240.261463 
L 384.48 240.261463 
L 375.552 237.58545 
z
" style="fill:#ff7f0e;fill-opacity:0.3;"/>
    <path clip-path="url(#p6d5a902956)" d="M 411.264 227.669565 
L 411.264 209.476305 
L 420.192 204.396115 
L 420.192 232.84878 
L 420.192 232.84878 
L 411.264 227.669565 
z
" style="fill:#ff7f0e;fill-opacity:0.3;"/>
    <path clip-path="url(#p6d5a902956)" d="M 455.904 232.893434 
L 455.904 205.538468 
L 464.832 203.724501 
L 473.76 203.999515 
L 473.76 236.256538 
L 473.76 236.256538 
L 464.832 234.20419 
L 455.904 232.893434 
z
" style="fill:#ff7f0e;fill-opacity:0.3;"/>
    <path clip-path="url(#p6d5a902956)" d="M 491.616 221.768621 
L 491.616 204.485663 
L 500.544 202.292118 
L 509.472 201.726809 
L 509.472 233.540965 
L 509.472 233.540965 
L 500.544 226.25545 
L 491.616 221.768621 
z
" style="fill:#ff7f0e;fill-opacity:0.3;"/>
   </g>
   <g id="PolyCollection_3">
    <path clip-path="url(#p6d5a902956)" d="M 72 96.008421 
L 72 80.686997 
L 80.928 90.238882 
L 89.856 97.356699 
L 98.784 95.710739 
L 107.712 96.067287 
L 116.64 99.967068 
L 125.568 102.110939 
L 134.496 103.944435 
L 143.424 107.142895 
L 152.352 108.839526 
L 161.28 111.416128 
L 170.208 113.090669 
L 179.136 114.814343 
L 188.064 116.5463 
L 196.992 117.505185 
L 205.92 118.105903 
L 214.848 119.353791 
L 223.776 120.251093 
L 232.704 121.093234 
L 241.632 121.79319 
L 250.56 122.487095 
L 259.488 123.31958 
L 268.416 124.157848 
L 277.344 124.820278 
L 286.272 125.517203 
L 295.2 126.316917 
L 304.128 127.653954 
L 313.056 128.484178 
L 321.984 129.101349 
L 330.912 130.0375 
L 339.84 130.513304 
L 348.768 130.922819 
L 357.696 131.675095 
L 366.624 132.133401 
L 375.552 132.583901 
L 384.48 132.998206 
L 393.408 133.409061 
L 402.336 133.841119 
L 411.264 134.278782 
L 420.192 134.695025 
L 429.12 135.123092 
L 438.048 135.548751 
L 446.976 135.977448 
L 455.904 136.392705 
L 464.832 136.803479 
L 473.76 137.217926 
L 482.688 137.63921 
L 491.616 138.05035 
L 500.544 138.463422 
L 509.472 138.886552 
L 518.4 139.307588 
L 518.4 139.47295 
L 518.4 139.47295 
L 509.472 139.048049 
L 500.544 138.622049 
L 491.616 138.215312 
L 482.688 137.800581 
L 473.76 137.375858 
L 464.832 136.961194 
L 455.904 136.547773 
L 446.976 136.128858 
L 438.048 135.697194 
L 429.12 135.268032 
L 420.192 134.837219 
L 411.264 134.414665 
L 402.336 133.974528 
L 393.408 133.534888 
L 384.48 133.119984 
L 375.552 132.698349 
L 366.624 132.24414 
L 357.696 131.78399 
L 348.768 131.090815 
L 339.84 130.678065 
L 330.912 130.197656 
L 321.984 129.333757 
L 313.056 128.703573 
L 304.128 127.914919 
L 295.2 126.701256 
L 286.272 125.886869 
L 277.344 125.17059 
L 268.416 124.486565 
L 259.488 123.637822 
L 250.56 122.794985 
L 241.632 122.081619 
L 232.704 121.356568 
L 223.776 120.502608 
L 214.848 119.594219 
L 205.92 118.467546 
L 196.992 117.847615 
L 188.064 116.872596 
L 179.136 115.302135 
L 170.208 113.693195 
L 161.28 112.025609 
L 152.352 109.519257 
L 143.424 107.762976 
L 134.496 105.201557 
L 125.568 103.187111 
L 116.64 100.927647 
L 107.712 97.072129 
L 98.784 98.144468 
L 89.856 104.851724 
L 80.928 101.336365 
L 72 96.008421 
z
" style="fill:#2ca02c;fill-opacity:0.3;"/>
   </g>
   <g id="PolyCollection_4">
    <path clip-path="url(#p6d5a902956)" d="M 72 107.367899 
L 72 84.406426 
L 80.928 89.285527 
L 89.856 100.180425 
L 98.784 91.095937 
L 107.712 95.647485 
L 116.64 102.092659 
L 125.568 105.817815 
L 134.496 108.538019 
L 143.424 113.829116 
L 152.352 116.209063 
L 161.28 123.020987 
L 170.208 125.966176 
L 179.136 129.304814 
L 188.064 133.92405 
L 196.992 135.231967 
L 205.92 136.44676 
L 214.848 141.68615 
L 223.776 143.098096 
L 232.704 144.750564 
L 241.632 146.151643 
L 250.56 147.533454 
L 259.488 149.065785 
L 268.416 150.250537 
L 277.344 151.37387 
L 286.272 152.617853 
L 295.2 153.819926 
L 304.128 159.014668 
L 313.056 160.831717 
L 321.984 162.885534 
L 330.912 166.357045 
L 339.84 167.012504 
L 348.768 167.635457 
L 357.696 170.778306 
L 366.624 171.47677 
L 375.552 172.165025 
L 384.48 172.867662 
L 393.408 173.566998 
L 402.336 174.282248 
L 411.264 174.971796 
L 420.192 175.653762 
L 429.12 176.369297 
L 438.048 177.09301 
L 446.976 178.052094 
L 455.904 178.80375 
L 464.832 179.588794 
L 473.76 180.45472 
L 482.688 181.065827 
L 491.616 181.697682 
L 500.544 182.371306 
L 509.472 183.022021 
L 518.4 183.66983 
L 518.4 184.554339 
L 518.4 184.554339 
L 509.472 183.849338 
L 500.544 183.152684 
L 491.616 182.447775 
L 482.688 181.776931 
L 473.76 181.122522 
L 464.832 180.22287 
L 455.904 179.400919 
L 446.976 178.615521 
L 438.048 177.754562 
L 429.12 176.994714 
L 420.192 176.244572 
L 411.264 175.516687 
L 402.336 174.792588 
L 393.408 174.054381 
L 384.48 173.323766 
L 375.552 172.599278 
L 366.624 171.88156 
L 357.696 171.165134 
L 348.768 168.811915 
L 339.84 168.145935 
L 330.912 167.437907 
L 321.984 164.027271 
L 313.056 161.831615 
L 304.128 160.020265 
L 295.2 156.35635 
L 286.272 154.867332 
L 277.344 153.413263 
L 268.416 152.075146 
L 259.488 150.727769 
L 250.56 149.002637 
L 241.632 147.455512 
L 232.704 145.918035 
L 223.776 144.36062 
L 214.848 142.813729 
L 205.92 139.00691 
L 196.992 137.59798 
L 188.064 136.097199 
L 179.136 131.266594 
L 170.208 127.533568 
L 161.28 124.221122 
L 152.352 119.607141 
L 143.424 116.525072 
L 134.496 111.946501 
L 125.568 108.356037 
L 116.64 104.352087 
L 107.712 96.845807 
L 98.784 100.542646 
L 89.856 116.570082 
L 80.928 112.951766 
L 72 107.367899 
z
" style="fill:#d62728;fill-opacity:0.3;"/>
   </g>
   <g id="PolyCollection_5">
    <path clip-path="url(#p6d5a902956)" d="M 72 109.62379 
L 72 82.572084 
L 80.928 88.292198 
L 89.856 99.732479 
L 98.784 89.0986 
L 107.712 95.222188 
L 116.64 102.685372 
L 125.568 107.589682 
L 134.496 110.672046 
L 143.424 116.992437 
L 152.352 119.733762 
L 161.28 129.361039 
L 170.208 132.634586 
L 179.136 136.328093 
L 188.064 143.66516 
L 196.992 145.270231 
L 205.92 146.661313 
L 214.848 156.652822 
L 223.776 158.574201 
L 232.704 161.572711 
L 241.632 163.286274 
L 250.56 165.131936 
L 259.488 167.85611 
L 268.416 169.111927 
L 277.344 170.261062 
L 286.272 171.869356 
L 295.2 173.084613 
L 304.128 180.587238 
L 313.056 182.429933 
L 321.984 184.470668 
L 330.912 192.962705 
L 339.84 193.772386 
L 348.768 194.510676 
L 357.696 201.01398 
L 366.624 201.858962 
L 375.552 202.840764 
L 384.48 203.903627 
L 393.408 204.581239 
L 402.336 205.918802 
L 411.264 206.799458 
L 420.192 207.571978 
L 429.12 208.589342 
L 438.048 209.212388 
L 446.976 211.229249 
L 455.904 212.35868 
L 464.832 213.561627 
L 473.76 215.720084 
L 482.688 215.898275 
L 491.616 216.610762 
L 500.544 217.838389 
L 509.472 218.413234 
L 518.4 219.254849 
L 518.4 220.688165 
L 518.4 220.688165 
L 509.472 219.821181 
L 500.544 219.225403 
L 491.616 218.333816 
L 482.688 217.658643 
L 473.76 216.74829 
L 464.832 214.695292 
L 455.904 213.479363 
L 446.976 212.413382 
L 438.048 210.887027 
L 429.12 209.798562 
L 420.192 208.745631 
L 411.264 207.842534 
L 402.336 206.856006 
L 393.408 205.879803 
L 384.48 204.658952 
L 375.552 203.662299 
L 366.624 202.657509 
L 357.696 201.658458 
L 348.768 197.339512 
L 339.84 196.503859 
L 330.912 195.44923 
L 321.984 187.421727 
L 313.056 184.771382 
L 304.128 182.486621 
L 295.2 176.952046 
L 286.272 175.311777 
L 277.344 173.572635 
L 268.416 172.107123 
L 259.488 170.633197 
L 250.56 167.384338 
L 241.632 165.187727 
L 232.704 163.100059 
L 223.776 160.758477 
L 214.848 158.469998 
L 205.92 152.433736 
L 196.992 150.537671 
L 188.064 148.483725 
L 179.136 139.448213 
L 170.208 134.806045 
L 161.28 130.755554 
L 152.352 124.68227 
L 143.424 120.582604 
L 134.496 115.321506 
L 125.568 110.73223 
L 116.64 105.917016 
L 107.712 97.475498 
L 98.784 101.162435 
L 89.856 121.138761 
L 80.928 115.663918 
L 72 109.62379 
z
" style="fill:#9467bd;fill-opacity:0.3;"/>
   </g>
   <g id="PolyCollection_6">
    <path clip-path="url(#p6d5a902956)" d="M 72 122.293745 
L 72 83.575924 
L 80.928 90.081731 
L 89.856 98.193446 
L 98.784 93.00624 
L 107.712 93.196234 
L 116.64 94.636928 
L 125.568 96.132809 
L 134.496 101.2006 
L 143.424 107.910889 
L 152.352 116.448917 
L 161.28 124.286944 
L 170.208 159.380633 
L 179.136 163.678406 
L 188.064 193.568224 
L 196.992 210.340931 
L 205.92 219.622806 
L 214.848 221.161267 
L 223.776 233.859994 
L 232.704 231.710094 
L 241.632 230.473261 
L 250.56 224.543727 
L 259.488 222.748756 
L 268.416 223.2173 
L 277.344 221.258131 
L 277.344 244.577255 
L 277.344 244.577255 
L 268.416 242.544046 
L 259.488 249.767212 
L 250.56 247.204757 
L 241.632 251.370176 
L 232.704 259.813461 
L 223.776 256.734016 
L 214.848 251.191157 
L 205.92 224.981702 
L 196.992 214.43024 
L 188.064 204.164343 
L 179.136 183.014903 
L 170.208 169.330904 
L 161.28 152.291728 
L 152.352 119.196744 
L 143.424 117.132732 
L 134.496 118.868131 
L 125.568 109.315421 
L 116.64 101.517936 
L 107.712 98.125412 
L 98.784 99.774021 
L 89.856 125.739772 
L 80.928 116.999036 
L 72 122.293745 
z
" style="fill:#8c564b;fill-opacity:0.3;"/>
    <path clip-path="url(#p6d5a902956)" d="M 295.2 247.542777 
L 295.2 213.983309 
L 304.128 214.233281 
L 304.128 241.769892 
L 304.128 241.769892 
L 295.2 247.542777 
z
" style="fill:#8c564b;fill-opacity:0.3;"/>
    <path clip-path="url(#p6d5a902956)" d="M 321.984 229.573912 
L 321.984 213.631009 
L 330.912 208.389446 
L 339.84 209.058781 
L 348.768 213.782376 
L 357.696 209.731216 
L 366.624 208.052894 
L 375.552 204.585195 
L 384.48 202.830571 
L 393.408 207.242924 
L 402.336 207.275286 
L 411.264 207.471385 
L 420.192 206.911773 
L 429.12 201.213266 
L 429.12 237.207955 
L 429.12 237.207955 
L 420.192 229.354121 
L 411.264 232.858702 
L 402.336 230.800683 
L 393.408 227.531071 
L 384.48 248.37381 
L 375.552 242.002736 
L 366.624 240.489423 
L 357.696 240.393928 
L 348.768 230.422448 
L 339.84 229.769677 
L 330.912 235.92823 
L 321.984 229.573912 
z
" style="fill:#8c564b;fill-opacity:0.3;"/>
    <path clip-path="url(#p6d5a902956)" d="M 446.976 230.862551 
L 446.976 203.214099 
L 446.976 230.862551 
L 446.976 230.862551 
z
" style="fill:#8c564b;fill-opacity:0.3;"/>
    <path clip-path="url(#p6d5a902956)" d="M 464.832 232.753384 
L 464.832 204.054622 
L 473.76 200.037196 
L 482.688 203.929431 
L 491.616 201.909924 
L 500.544 201.795845 
L 500.544 228.808205 
L 500.544 228.808205 
L 491.616 224.467668 
L 482.688 221.622243 
L 473.76 233.108591 
L 464.832 232.753384 
z
" style="fill:#8c564b;fill-opacity:0.3;"/>
   </g>
   <g id="PolyCollection_7">
    <path clip-path="url(#p6d5a902956)" d="M 72 234.287913 
L 72 132.86766 
L 80.928 164.672878 
L 89.856 158.749304 
L 89.856 222.018512 
L 89.856 222.018512 
L 80.928 220.276473 
L 72 234.287913 
z
" style="fill:#e377c2;fill-opacity:0.3;"/>
    <path clip-path="url(#p6d5a902956)" d="M 107.712 204.451429 
L 107.712 147.459385 
L 116.64 137.561303 
L 125.568 129.395448 
L 125.568 225.486575 
L 125.568 225.486575 
L 116.64 207.829387 
L 107.712 204.451429 
z
" style="fill:#e377c2;fill-opacity:0.3;"/>
    <path clip-path="url(#p6d5a902956)" d="M 143.424 205.247317 
L 143.424 148.086317 
L 152.352 127.894938 
L 161.28 130.782392 
L 161.28 209.711457 
L 161.28 209.711457 
L 152.352 247.060604 
L 143.424 205.247317 
z
" style="fill:#e377c2;fill-opacity:0.3;"/>
    <path clip-path="url(#p6d5a902956)" d="M 179.136 223.320621 
L 179.136 122.210276 
L 179.136 223.320621 
L 179.136 223.320621 
z
" style="fill:#e377c2;fill-opacity:0.3;"/>
    <path clip-path="url(#p6d5a902956)" d="M 205.92 205.864435 
L 205.92 134.001086 
L 205.92 205.864435 
L 205.92 205.864435 
z
" style="fill:#e377c2;fill-opacity:0.3;"/>
    <path clip-path="url(#p6d5a902956)" d="M 223.776 204.124088 
L 223.776 146.920735 
L 223.776 204.124088 
L 223.776 204.124088 
z
" style="fill:#e377c2;fill-opacity:0.3;"/>
    <path clip-path="url(#p6d5a902956)" d="M 241.632 200.963942 
L 241.632 148.627849 
L 241.632 200.963942 
L 241.632 200.963942 
z
" style="fill:#e377c2;fill-opacity:0.3;"/>
    <path clip-path="url(#p6d5a902956)" d="M 286.272 206.51769 
L 286.272 127.074247 
L 286.272 206.51769 
L 286.272 206.51769 
z
" style="fill:#e377c2;fill-opacity:0.3;"/>
    <path clip-path="url(#p6d5a902956)" d="M 357.696 184.870959 
L 357.696 137.070904 
L 366.624 138.545147 
L 366.624 190.14468 
L 366.624 190.14468 
L 357.696 184.870959 
z
" style="fill:#e377c2;fill-opacity:0.3;"/>
    <path clip-path="url(#p6d5a902956)" d="M 393.408 192.667518 
L 393.408 129.794573 
L 393.408 192.667518 
L 393.408 192.667518 
z
" style="fill:#e377c2;fill-opacity:0.3;"/>
    <path clip-path="url(#p6d5a902956)" d="M 509.472 209.125476 
L 509.472 141.847567 
L 509.472 209.125476 
L 509.472 209.125476 
z
" style="fill:#e377c2;fill-opacity:0.3;"/>
   </g>
   <g id="matplotlib.axis_1">
    <g id="xtick_1">
     <g id="line2d_1">
      <path clip-path="url(#p6d5a902956)" d="M 72 384.48 
L 72 51.84 
" style="fill:none;stroke:#b0b0b0;stroke-linecap:square;stroke-width:0.8;"/>
     </g>
     <g id="line2d_2">
      <defs>
       <path d="M 0 0 
L 0 3.5 
" id="m363ae44424" style="stroke:#000000;stroke-width:0.8;"/>
      </defs>
      <g>
       <use style="stroke:#000000;stroke-width:0.8;" x="72" xlink:href="#m363ae44424" y="384.48"/>
      </g>
     </g>
     <g id="text_1">
      <!-- 0 -->
      <defs>
       <path d="M 31.78125 66.40625 
Q 24.171875 66.40625 20.328125 58.90625 
Q 16.5 51.421875 16.5 36.375 
Q 16.5 21.390625 20.328125 13.890625 
Q 24.171875 6.390625 31.78125 6.390625 
Q 39.453125 6.390625 43.28125 13.890625 
Q 47.125 21.390625 47.125 36.375 
Q 47.125 51.421875 43.28125 58.90625 
Q 39.453125 66.40625 31.78125 66.40625 
z
M 31.78125 74.21875 
Q 44.046875 74.21875 50.515625 64.515625 
Q 56.984375 54.828125 56.984375 36.375 
Q 56.984375 17.96875 50.515625 8.265625 
Q 44.046875 -1.421875 31.78125 -1.421875 
Q 19.53125 -1.421875 13.0625 8.265625 
Q 6.59375 17.96875 6.59375 36.375 
Q 6.59375 54.828125 13.0625 64.515625 
Q 19.53125 74.21875 31.78125 74.21875 
z
" id="DejaVuSans-48"/>
      </defs>
      <g transform="translate(68.81875 399.078438)scale(0.1 -0.1)">
       <use xlink:href="#DejaVuSans-48"/>
      </g>
     </g>
    </g>
    <g id="xtick_2">
     <g id="line2d_3">
      <path clip-path="url(#p6d5a902956)" d="M 161.28 384.48 
L 161.28 51.84 
" style="fill:none;stroke:#b0b0b0;stroke-linecap:square;stroke-width:0.8;"/>
     </g>
     <g id="line2d_4">
      <g>
       <use style="stroke:#000000;stroke-width:0.8;" x="161.28" xlink:href="#m363ae44424" y="384.48"/>
      </g>
     </g>
     <g id="text_2">
      <!-- 10 -->
      <defs>
       <path d="M 12.40625 8.296875 
L 28.515625 8.296875 
L 28.515625 63.921875 
L 10.984375 60.40625 
L 10.984375 69.390625 
L 28.421875 72.90625 
L 38.28125 72.90625 
L 38.28125 8.296875 
L 54.390625 8.296875 
L 54.390625 0 
L 12.40625 0 
z
" id="DejaVuSans-49"/>
      </defs>
      <g transform="translate(154.9175 399.078438)scale(0.1 -0.1)">
       <use xlink:href="#DejaVuSans-49"/>
       <use x="63.623047" xlink:href="#DejaVuSans-48"/>
      </g>
     </g>
    </g>
    <g id="xtick_3">
     <g id="line2d_5">
      <path clip-path="url(#p6d5a902956)" d="M 250.56 384.48 
L 250.56 51.84 
" style="fill:none;stroke:#b0b0b0;stroke-linecap:square;stroke-width:0.8;"/>
     </g>
     <g id="line2d_6">
      <g>
       <use style="stroke:#000000;stroke-width:0.8;" x="250.56" xlink:href="#m363ae44424" y="384.48"/>
      </g>
     </g>
     <g id="text_3">
      <!-- 20 -->
      <defs>
       <path d="M 19.1875 8.296875 
L 53.609375 8.296875 
L 53.609375 0 
L 7.328125 0 
L 7.328125 8.296875 
Q 12.9375 14.109375 22.625 23.890625 
Q 32.328125 33.6875 34.8125 36.53125 
Q 39.546875 41.84375 41.421875 45.53125 
Q 43.3125 49.21875 43.3125 52.78125 
Q 43.3125 58.59375 39.234375 62.25 
Q 35.15625 65.921875 28.609375 65.921875 
Q 23.96875 65.921875 18.8125 64.3125 
Q 13.671875 62.703125 7.8125 59.421875 
L 7.8125 69.390625 
Q 13.765625 71.78125 18.9375 73 
Q 24.125 74.21875 28.421875 74.21875 
Q 39.75 74.21875 46.484375 68.546875 
Q 53.21875 62.890625 53.21875 53.421875 
Q 53.21875 48.921875 51.53125 44.890625 
Q 49.859375 40.875 45.40625 35.40625 
Q 44.1875 33.984375 37.640625 27.21875 
Q 31.109375 20.453125 19.1875 8.296875 
z
" id="DejaVuSans-50"/>
      </defs>
      <g transform="translate(244.1975 399.078438)scale(0.1 -0.1)">
       <use xlink:href="#DejaVuSans-50"/>
       <use x="63.623047" xlink:href="#DejaVuSans-48"/>
      </g>
     </g>
    </g>
    <g id="xtick_4">
     <g id="line2d_7">
      <path clip-path="url(#p6d5a902956)" d="M 339.84 384.48 
L 339.84 51.84 
" style="fill:none;stroke:#b0b0b0;stroke-linecap:square;stroke-width:0.8;"/>
     </g>
     <g id="line2d_8">
      <g>
       <use style="stroke:#000000;stroke-width:0.8;" x="339.84" xlink:href="#m363ae44424" y="384.48"/>
      </g>
     </g>
     <g id="text_4">
      <!-- 30 -->
      <defs>
       <path d="M 40.578125 39.3125 
Q 47.65625 37.796875 51.625 33 
Q 55.609375 28.21875 55.609375 21.1875 
Q 55.609375 10.40625 48.1875 4.484375 
Q 40.765625 -1.421875 27.09375 -1.421875 
Q 22.515625 -1.421875 17.65625 -0.515625 
Q 12.796875 0.390625 7.625 2.203125 
L 7.625 11.71875 
Q 11.71875 9.328125 16.59375 8.109375 
Q 21.484375 6.890625 26.8125 6.890625 
Q 36.078125 6.890625 40.9375 10.546875 
Q 45.796875 14.203125 45.796875 21.1875 
Q 45.796875 27.640625 41.28125 31.265625 
Q 36.765625 34.90625 28.71875 34.90625 
L 20.21875 34.90625 
L 20.21875 43.015625 
L 29.109375 43.015625 
Q 36.375 43.015625 40.234375 45.921875 
Q 44.09375 48.828125 44.09375 54.296875 
Q 44.09375 59.90625 40.109375 62.90625 
Q 36.140625 65.921875 28.71875 65.921875 
Q 24.65625 65.921875 20.015625 65.03125 
Q 15.375 64.15625 9.8125 62.3125 
L 9.8125 71.09375 
Q 15.4375 72.65625 20.34375 73.4375 
Q 25.25 74.21875 29.59375 74.21875 
Q 40.828125 74.21875 47.359375 69.109375 
Q 53.90625 64.015625 53.90625 55.328125 
Q 53.90625 49.265625 50.4375 45.09375 
Q 46.96875 40.921875 40.578125 39.3125 
z
" id="DejaVuSans-51"/>
      </defs>
      <g transform="translate(333.4775 399.078438)scale(0.1 -0.1)">
       <use xlink:href="#DejaVuSans-51"/>
       <use x="63.623047" xlink:href="#DejaVuSans-48"/>
      </g>
     </g>
    </g>
    <g id="xtick_5">
     <g id="line2d_9">
      <path clip-path="url(#p6d5a902956)" d="M 429.12 384.48 
L 429.12 51.84 
" style="fill:none;stroke:#b0b0b0;stroke-linecap:square;stroke-width:0.8;"/>
     </g>
     <g id="line2d_10">
      <g>
       <use style="stroke:#000000;stroke-width:0.8;" x="429.12" xlink:href="#m363ae44424" y="384.48"/>
      </g>
     </g>
     <g id="text_5">
      <!-- 40 -->
      <defs>
       <path d="M 37.796875 64.3125 
L 12.890625 25.390625 
L 37.796875 25.390625 
z
M 35.203125 72.90625 
L 47.609375 72.90625 
L 47.609375 25.390625 
L 58.015625 25.390625 
L 58.015625 17.1875 
L 47.609375 17.1875 
L 47.609375 0 
L 37.796875 0 
L 37.796875 17.1875 
L 4.890625 17.1875 
L 4.890625 26.703125 
z
" id="DejaVuSans-52"/>
      </defs>
      <g transform="translate(422.7575 399.078438)scale(0.1 -0.1)">
       <use xlink:href="#DejaVuSans-52"/>
       <use x="63.623047" xlink:href="#DejaVuSans-48"/>
      </g>
     </g>
    </g>
    <g id="xtick_6">
     <g id="line2d_11">
      <path clip-path="url(#p6d5a902956)" d="M 518.4 384.48 
L 518.4 51.84 
" style="fill:none;stroke:#b0b0b0;stroke-linecap:square;stroke-width:0.8;"/>
     </g>
     <g id="line2d_12">
      <g>
       <use style="stroke:#000000;stroke-width:0.8;" x="518.4" xlink:href="#m363ae44424" y="384.48"/>
      </g>
     </g>
     <g id="text_6">
      <!-- 50 -->
      <defs>
       <path d="M 10.796875 72.90625 
L 49.515625 72.90625 
L 49.515625 64.59375 
L 19.828125 64.59375 
L 19.828125 46.734375 
Q 21.96875 47.46875 24.109375 47.828125 
Q 26.265625 48.1875 28.421875 48.1875 
Q 40.625 48.1875 47.75 41.5 
Q 54.890625 34.8125 54.890625 23.390625 
Q 54.890625 11.625 47.5625 5.09375 
Q 40.234375 -1.421875 26.90625 -1.421875 
Q 22.3125 -1.421875 17.546875 -0.640625 
Q 12.796875 0.140625 7.71875 1.703125 
L 7.71875 11.625 
Q 12.109375 9.234375 16.796875 8.0625 
Q 21.484375 6.890625 26.703125 6.890625 
Q 35.15625 6.890625 40.078125 11.328125 
Q 45.015625 15.765625 45.015625 23.390625 
Q 45.015625 31 40.078125 35.4375 
Q 35.15625 39.890625 26.703125 39.890625 
Q 22.75 39.890625 18.8125 39.015625 
Q 14.890625 38.140625 10.796875 36.28125 
z
" id="DejaVuSans-53"/>
      </defs>
      <g transform="translate(512.0375 399.078438)scale(0.1 -0.1)">
       <use xlink:href="#DejaVuSans-53"/>
       <use x="63.623047" xlink:href="#DejaVuSans-48"/>
      </g>
     </g>
    </g>
    <g id="text_7">
     <!-- Iteration -->
     <defs>
      <path d="M 9.8125 72.90625 
L 19.671875 72.90625 
L 19.671875 0 
L 9.8125 0 
z
" id="DejaVuSans-73"/>
      <path d="M 18.3125 70.21875 
L 18.3125 54.6875 
L 36.8125 54.6875 
L 36.8125 47.703125 
L 18.3125 47.703125 
L 18.3125 18.015625 
Q 18.3125 11.328125 20.140625 9.421875 
Q 21.96875 7.515625 27.59375 7.515625 
L 36.8125 7.515625 
L 36.8125 0 
L 27.59375 0 
Q 17.1875 0 13.234375 3.875 
Q 9.28125 7.765625 9.28125 18.015625 
L 9.28125 47.703125 
L 2.6875 47.703125 
L 2.6875 54.6875 
L 9.28125 54.6875 
L 9.28125 70.21875 
z
" id="DejaVuSans-116"/>
      <path d="M 56.203125 29.59375 
L 56.203125 25.203125 
L 14.890625 25.203125 
Q 15.484375 15.921875 20.484375 11.0625 
Q 25.484375 6.203125 34.421875 6.203125 
Q 39.59375 6.203125 44.453125 7.46875 
Q 49.3125 8.734375 54.109375 11.28125 
L 54.109375 2.78125 
Q 49.265625 0.734375 44.1875 -0.34375 
Q 39.109375 -1.421875 33.890625 -1.421875 
Q 20.796875 -1.421875 13.15625 6.1875 
Q 5.515625 13.8125 5.515625 26.8125 
Q 5.515625 40.234375 12.765625 48.109375 
Q 20.015625 56 32.328125 56 
Q 43.359375 56 49.78125 48.890625 
Q 56.203125 41.796875 56.203125 29.59375 
z
M 47.21875 32.234375 
Q 47.125 39.59375 43.09375 43.984375 
Q 39.0625 48.390625 32.421875 48.390625 
Q 24.90625 48.390625 20.390625 44.140625 
Q 15.875 39.890625 15.1875 32.171875 
z
" id="DejaVuSans-101"/>
      <path d="M 41.109375 46.296875 
Q 39.59375 47.171875 37.8125 47.578125 
Q 36.03125 48 33.890625 48 
Q 26.265625 48 22.1875 43.046875 
Q 18.109375 38.09375 18.109375 28.8125 
L 18.109375 0 
L 9.078125 0 
L 9.078125 54.6875 
L 18.109375 54.6875 
L 18.109375 46.1875 
Q 20.953125 51.171875 25.484375 53.578125 
Q 30.03125 56 36.53125 56 
Q 37.453125 56 38.578125 55.875 
Q 39.703125 55.765625 41.0625 55.515625 
z
" id="DejaVuSans-114"/>
      <path d="M 34.28125 27.484375 
Q 23.390625 27.484375 19.1875 25 
Q 14.984375 22.515625 14.984375 16.5 
Q 14.984375 11.71875 18.140625 8.90625 
Q 21.296875 6.109375 26.703125 6.109375 
Q 34.1875 6.109375 38.703125 11.40625 
Q 43.21875 16.703125 43.21875 25.484375 
L 43.21875 27.484375 
z
M 52.203125 31.203125 
L 52.203125 0 
L 43.21875 0 
L 43.21875 8.296875 
Q 40.140625 3.328125 35.546875 0.953125 
Q 30.953125 -1.421875 24.3125 -1.421875 
Q 15.921875 -1.421875 10.953125 3.296875 
Q 6 8.015625 6 15.921875 
Q 6 25.140625 12.171875 29.828125 
Q 18.359375 34.515625 30.609375 34.515625 
L 43.21875 34.515625 
L 43.21875 35.40625 
Q 43.21875 41.609375 39.140625 45 
Q 35.0625 48.390625 27.6875 48.390625 
Q 23 48.390625 18.546875 47.265625 
Q 14.109375 46.140625 10.015625 43.890625 
L 10.015625 52.203125 
Q 14.9375 54.109375 19.578125 55.046875 
Q 24.21875 56 28.609375 56 
Q 40.484375 56 46.34375 49.84375 
Q 52.203125 43.703125 52.203125 31.203125 
z
" id="DejaVuSans-97"/>
      <path d="M 9.421875 54.6875 
L 18.40625 54.6875 
L 18.40625 0 
L 9.421875 0 
z
M 9.421875 75.984375 
L 18.40625 75.984375 
L 18.40625 64.59375 
L 9.421875 64.59375 
z
" id="DejaVuSans-105"/>
      <path d="M 30.609375 48.390625 
Q 23.390625 48.390625 19.1875 42.75 
Q 14.984375 37.109375 14.984375 27.296875 
Q 14.984375 17.484375 19.15625 11.84375 
Q 23.34375 6.203125 30.609375 6.203125 
Q 37.796875 6.203125 41.984375 11.859375 
Q 46.1875 17.53125 46.1875 27.296875 
Q 46.1875 37.015625 41.984375 42.703125 
Q 37.796875 48.390625 30.609375 48.390625 
z
M 30.609375 56 
Q 42.328125 56 49.015625 48.375 
Q 55.71875 40.765625 55.71875 27.296875 
Q 55.71875 13.875 49.015625 6.21875 
Q 42.328125 -1.421875 30.609375 -1.421875 
Q 18.84375 -1.421875 12.171875 6.21875 
Q 5.515625 13.875 5.515625 27.296875 
Q 5.515625 40.765625 12.171875 48.375 
Q 18.84375 56 30.609375 56 
z
" id="DejaVuSans-111"/>
      <path d="M 54.890625 33.015625 
L 54.890625 0 
L 45.90625 0 
L 45.90625 32.71875 
Q 45.90625 40.484375 42.875 44.328125 
Q 39.84375 48.1875 33.796875 48.1875 
Q 26.515625 48.1875 22.3125 43.546875 
Q 18.109375 38.921875 18.109375 30.90625 
L 18.109375 0 
L 9.078125 0 
L 9.078125 54.6875 
L 18.109375 54.6875 
L 18.109375 46.1875 
Q 21.34375 51.125 25.703125 53.5625 
Q 30.078125 56 35.796875 56 
Q 45.21875 56 50.046875 50.171875 
Q 54.890625 44.34375 54.890625 33.015625 
z
" id="DejaVuSans-110"/>
     </defs>
     <g transform="translate(273.991406 412.756563)scale(0.1 -0.1)">
      <use xlink:href="#DejaVuSans-73"/>
      <use x="29.492188" xlink:href="#DejaVuSans-116"/>
      <use x="68.701172" xlink:href="#DejaVuSans-101"/>
      <use x="130.224609" xlink:href="#DejaVuSans-114"/>
      <use x="171.337891" xlink:href="#DejaVuSans-97"/>
      <use x="232.617188" xlink:href="#DejaVuSans-116"/>
      <use x="271.826172" xlink:href="#DejaVuSans-105"/>
      <use x="299.609375" xlink:href="#DejaVuSans-111"/>
      <use x="360.791016" xlink:href="#DejaVuSans-110"/>
     </g>
    </g>
   </g>
   <g id="matplotlib.axis_2">
    <g id="ytick_1">
     <g id="line2d_13">
      <path clip-path="url(#p6d5a902956)" d="M 72 384.48 
L 518.4 384.48 
" style="fill:none;stroke:#b0b0b0;stroke-linecap:square;stroke-width:0.8;"/>
     </g>
     <g id="line2d_14">
      <defs>
       <path d="M 0 0 
L -3.5 0 
" id="m710fb5bf68" style="stroke:#000000;stroke-width:0.8;"/>
      </defs>
      <g>
       <use style="stroke:#000000;stroke-width:0.8;" x="72" xlink:href="#m710fb5bf68" y="384.48"/>
      </g>
     </g>
     <g id="text_8">
      <!-- $\mathdefault{10^{-12}}$ -->
      <defs>
       <path d="M 10.59375 35.5 
L 73.1875 35.5 
L 73.1875 27.203125 
L 10.59375 27.203125 
z
" id="DejaVuSans-8722"/>
      </defs>
      <g transform="translate(37.1 388.279219)scale(0.1 -0.1)">
       <use transform="translate(0 0.765625)" xlink:href="#DejaVuSans-49"/>
       <use transform="translate(63.623047 0.765625)" xlink:href="#DejaVuSans-48"/>
       <use transform="translate(128.203125 39.046875)scale(0.7)" xlink:href="#DejaVuSans-8722"/>
       <use transform="translate(186.855469 39.046875)scale(0.7)" xlink:href="#DejaVuSans-49"/>
       <use transform="translate(231.391602 39.046875)scale(0.7)" xlink:href="#DejaVuSans-50"/>
      </g>
     </g>
    </g>
    <g id="ytick_2">
     <g id="line2d_15">
      <path clip-path="url(#p6d5a902956)" d="M 72 336.96 
L 518.4 336.96 
" style="fill:none;stroke:#b0b0b0;stroke-linecap:square;stroke-width:0.8;"/>
     </g>
     <g id="line2d_16">
      <g>
       <use style="stroke:#000000;stroke-width:0.8;" x="72" xlink:href="#m710fb5bf68" y="336.96"/>
      </g>
     </g>
     <g id="text_9">
      <!-- $\mathdefault{10^{-10}}$ -->
      <g transform="translate(37.1 340.759219)scale(0.1 -0.1)">
       <use transform="translate(0 0.765625)" xlink:href="#DejaVuSans-49"/>
       <use transform="translate(63.623047 0.765625)" xlink:href="#DejaVuSans-48"/>
       <use transform="translate(128.203125 39.046875)scale(0.7)" xlink:href="#DejaVuSans-8722"/>
       <use transform="translate(186.855469 39.046875)scale(0.7)" xlink:href="#DejaVuSans-49"/>
       <use transform="translate(231.391602 39.046875)scale(0.7)" xlink:href="#DejaVuSans-48"/>
      </g>
     </g>
    </g>
    <g id="ytick_3">
     <g id="line2d_17">
      <path clip-path="url(#p6d5a902956)" d="M 72 289.44 
L 518.4 289.44 
" style="fill:none;stroke:#b0b0b0;stroke-linecap:square;stroke-width:0.8;"/>
     </g>
     <g id="line2d_18">
      <g>
       <use style="stroke:#000000;stroke-width:0.8;" x="72" xlink:href="#m710fb5bf68" y="289.44"/>
      </g>
     </g>
     <g id="text_10">
      <!-- $\mathdefault{10^{-8}}$ -->
      <defs>
       <path d="M 31.78125 34.625 
Q 24.75 34.625 20.71875 30.859375 
Q 16.703125 27.09375 16.703125 20.515625 
Q 16.703125 13.921875 20.71875 10.15625 
Q 24.75 6.390625 31.78125 6.390625 
Q 38.8125 6.390625 42.859375 10.171875 
Q 46.921875 13.96875 46.921875 20.515625 
Q 46.921875 27.09375 42.890625 30.859375 
Q 38.875 34.625 31.78125 34.625 
z
M 21.921875 38.8125 
Q 15.578125 40.375 12.03125 44.71875 
Q 8.5 49.078125 8.5 55.328125 
Q 8.5 64.0625 14.71875 69.140625 
Q 20.953125 74.21875 31.78125 74.21875 
Q 42.671875 74.21875 48.875 69.140625 
Q 55.078125 64.0625 55.078125 55.328125 
Q 55.078125 49.078125 51.53125 44.71875 
Q 48 40.375 41.703125 38.8125 
Q 48.828125 37.15625 52.796875 32.3125 
Q 56.78125 27.484375 56.78125 20.515625 
Q 56.78125 9.90625 50.3125 4.234375 
Q 43.84375 -1.421875 31.78125 -1.421875 
Q 19.734375 -1.421875 13.25 4.234375 
Q 6.78125 9.90625 6.78125 20.515625 
Q 6.78125 27.484375 10.78125 32.3125 
Q 14.796875 37.15625 21.921875 38.8125 
z
M 18.3125 54.390625 
Q 18.3125 48.734375 21.84375 45.5625 
Q 25.390625 42.390625 31.78125 42.390625 
Q 38.140625 42.390625 41.71875 45.5625 
Q 45.3125 48.734375 45.3125 54.390625 
Q 45.3125 60.0625 41.71875 63.234375 
Q 38.140625 66.40625 31.78125 66.40625 
Q 25.390625 66.40625 21.84375 63.234375 
Q 18.3125 60.0625 18.3125 54.390625 
z
" id="DejaVuSans-56"/>
      </defs>
      <g transform="translate(41.5 293.239219)scale(0.1 -0.1)">
       <use transform="translate(0 0.765625)" xlink:href="#DejaVuSans-49"/>
       <use transform="translate(63.623047 0.765625)" xlink:href="#DejaVuSans-48"/>
       <use transform="translate(128.203125 39.046875)scale(0.7)" xlink:href="#DejaVuSans-8722"/>
       <use transform="translate(186.855469 39.046875)scale(0.7)" xlink:href="#DejaVuSans-56"/>
      </g>
     </g>
    </g>
    <g id="ytick_4">
     <g id="line2d_19">
      <path clip-path="url(#p6d5a902956)" d="M 72 241.92 
L 518.4 241.92 
" style="fill:none;stroke:#b0b0b0;stroke-linecap:square;stroke-width:0.8;"/>
     </g>
     <g id="line2d_20">
      <g>
       <use style="stroke:#000000;stroke-width:0.8;" x="72" xlink:href="#m710fb5bf68" y="241.92"/>
      </g>
     </g>
     <g id="text_11">
      <!-- $\mathdefault{10^{-6}}$ -->
      <defs>
       <path d="M 33.015625 40.375 
Q 26.375 40.375 22.484375 35.828125 
Q 18.609375 31.296875 18.609375 23.390625 
Q 18.609375 15.53125 22.484375 10.953125 
Q 26.375 6.390625 33.015625 6.390625 
Q 39.65625 6.390625 43.53125 10.953125 
Q 47.40625 15.53125 47.40625 23.390625 
Q 47.40625 31.296875 43.53125 35.828125 
Q 39.65625 40.375 33.015625 40.375 
z
M 52.59375 71.296875 
L 52.59375 62.3125 
Q 48.875 64.0625 45.09375 64.984375 
Q 41.3125 65.921875 37.59375 65.921875 
Q 27.828125 65.921875 22.671875 59.328125 
Q 17.53125 52.734375 16.796875 39.40625 
Q 19.671875 43.65625 24.015625 45.921875 
Q 28.375 48.1875 33.59375 48.1875 
Q 44.578125 48.1875 50.953125 41.515625 
Q 57.328125 34.859375 57.328125 23.390625 
Q 57.328125 12.15625 50.6875 5.359375 
Q 44.046875 -1.421875 33.015625 -1.421875 
Q 20.359375 -1.421875 13.671875 8.265625 
Q 6.984375 17.96875 6.984375 36.375 
Q 6.984375 53.65625 15.1875 63.9375 
Q 23.390625 74.21875 37.203125 74.21875 
Q 40.921875 74.21875 44.703125 73.484375 
Q 48.484375 72.75 52.59375 71.296875 
z
" id="DejaVuSans-54"/>
      </defs>
      <g transform="translate(41.5 245.719219)scale(0.1 -0.1)">
       <use transform="translate(0 0.765625)" xlink:href="#DejaVuSans-49"/>
       <use transform="translate(63.623047 0.765625)" xlink:href="#DejaVuSans-48"/>
       <use transform="translate(128.203125 39.046875)scale(0.7)" xlink:href="#DejaVuSans-8722"/>
       <use transform="translate(186.855469 39.046875)scale(0.7)" xlink:href="#DejaVuSans-54"/>
      </g>
     </g>
    </g>
    <g id="ytick_5">
     <g id="line2d_21">
      <path clip-path="url(#p6d5a902956)" d="M 72 194.4 
L 518.4 194.4 
" style="fill:none;stroke:#b0b0b0;stroke-linecap:square;stroke-width:0.8;"/>
     </g>
     <g id="line2d_22">
      <g>
       <use style="stroke:#000000;stroke-width:0.8;" x="72" xlink:href="#m710fb5bf68" y="194.4"/>
      </g>
     </g>
     <g id="text_12">
      <!-- $\mathdefault{10^{-4}}$ -->
      <g transform="translate(41.5 198.199219)scale(0.1 -0.1)">
       <use transform="translate(0 0.684375)" xlink:href="#DejaVuSans-49"/>
       <use transform="translate(63.623047 0.684375)" xlink:href="#DejaVuSans-48"/>
       <use transform="translate(128.203125 38.965625)scale(0.7)" xlink:href="#DejaVuSans-8722"/>
       <use transform="translate(186.855469 38.965625)scale(0.7)" xlink:href="#DejaVuSans-52"/>
      </g>
     </g>
    </g>
    <g id="ytick_6">
     <g id="line2d_23">
      <path clip-path="url(#p6d5a902956)" d="M 72 146.88 
L 518.4 146.88 
" style="fill:none;stroke:#b0b0b0;stroke-linecap:square;stroke-width:0.8;"/>
     </g>
     <g id="line2d_24">
      <g>
       <use style="stroke:#000000;stroke-width:0.8;" x="72" xlink:href="#m710fb5bf68" y="146.88"/>
      </g>
     </g>
     <g id="text_13">
      <!-- $\mathdefault{10^{-2}}$ -->
      <g transform="translate(41.5 150.679219)scale(0.1 -0.1)">
       <use transform="translate(0 0.765625)" xlink:href="#DejaVuSans-49"/>
       <use transform="translate(63.623047 0.765625)" xlink:href="#DejaVuSans-48"/>
       <use transform="translate(128.203125 39.046875)scale(0.7)" xlink:href="#DejaVuSans-8722"/>
       <use transform="translate(186.855469 39.046875)scale(0.7)" xlink:href="#DejaVuSans-50"/>
      </g>
     </g>
    </g>
    <g id="ytick_7">
     <g id="line2d_25">
      <path clip-path="url(#p6d5a902956)" d="M 72 99.36 
L 518.4 99.36 
" style="fill:none;stroke:#b0b0b0;stroke-linecap:square;stroke-width:0.8;"/>
     </g>
     <g id="line2d_26">
      <g>
       <use style="stroke:#000000;stroke-width:0.8;" x="72" xlink:href="#m710fb5bf68" y="99.36"/>
      </g>
     </g>
     <g id="text_14">
      <!-- $\mathdefault{10^{0}}$ -->
      <g transform="translate(47.4 103.159219)scale(0.1 -0.1)">
       <use transform="translate(0 0.765625)" xlink:href="#DejaVuSans-49"/>
       <use transform="translate(63.623047 0.765625)" xlink:href="#DejaVuSans-48"/>
       <use transform="translate(128.203125 39.046875)scale(0.7)" xlink:href="#DejaVuSans-48"/>
      </g>
     </g>
    </g>
    <g id="ytick_8">
     <g id="line2d_27">
      <path clip-path="url(#p6d5a902956)" d="M 72 51.84 
L 518.4 51.84 
" style="fill:none;stroke:#b0b0b0;stroke-linecap:square;stroke-width:0.8;"/>
     </g>
     <g id="line2d_28">
      <g>
       <use style="stroke:#000000;stroke-width:0.8;" x="72" xlink:href="#m710fb5bf68" y="51.84"/>
      </g>
     </g>
     <g id="text_15">
      <!-- $\mathdefault{10^{2}}$ -->
      <g transform="translate(47.4 55.639219)scale(0.1 -0.1)">
       <use transform="translate(0 0.765625)" xlink:href="#DejaVuSans-49"/>
       <use transform="translate(63.623047 0.765625)" xlink:href="#DejaVuSans-48"/>
       <use transform="translate(128.203125 39.046875)scale(0.7)" xlink:href="#DejaVuSans-50"/>
      </g>
     </g>
    </g>
    <g id="text_16">
     <!-- Integrated Variance -->
     <defs>
      <path d="M 45.40625 27.984375 
Q 45.40625 37.75 41.375 43.109375 
Q 37.359375 48.484375 30.078125 48.484375 
Q 22.859375 48.484375 18.828125 43.109375 
Q 14.796875 37.75 14.796875 27.984375 
Q 14.796875 18.265625 18.828125 12.890625 
Q 22.859375 7.515625 30.078125 7.515625 
Q 37.359375 7.515625 41.375 12.890625 
Q 45.40625 18.265625 45.40625 27.984375 
z
M 54.390625 6.78125 
Q 54.390625 -7.171875 48.1875 -13.984375 
Q 42 -20.796875 29.203125 -20.796875 
Q 24.46875 -20.796875 20.265625 -20.09375 
Q 16.0625 -19.390625 12.109375 -17.921875 
L 12.109375 -9.1875 
Q 16.0625 -11.328125 19.921875 -12.34375 
Q 23.78125 -13.375 27.78125 -13.375 
Q 36.625 -13.375 41.015625 -8.765625 
Q 45.40625 -4.15625 45.40625 5.171875 
L 45.40625 9.625 
Q 42.625 4.78125 38.28125 2.390625 
Q 33.9375 0 27.875 0 
Q 17.828125 0 11.671875 7.65625 
Q 5.515625 15.328125 5.515625 27.984375 
Q 5.515625 40.671875 11.671875 48.328125 
Q 17.828125 56 27.875 56 
Q 33.9375 56 38.28125 53.609375 
Q 42.625 51.21875 45.40625 46.390625 
L 45.40625 54.6875 
L 54.390625 54.6875 
z
" id="DejaVuSans-103"/>
      <path d="M 45.40625 46.390625 
L 45.40625 75.984375 
L 54.390625 75.984375 
L 54.390625 0 
L 45.40625 0 
L 45.40625 8.203125 
Q 42.578125 3.328125 38.25 0.953125 
Q 33.9375 -1.421875 27.875 -1.421875 
Q 17.96875 -1.421875 11.734375 6.484375 
Q 5.515625 14.40625 5.515625 27.296875 
Q 5.515625 40.1875 11.734375 48.09375 
Q 17.96875 56 27.875 56 
Q 33.9375 56 38.25 53.625 
Q 42.578125 51.265625 45.40625 46.390625 
z
M 14.796875 27.296875 
Q 14.796875 17.390625 18.875 11.75 
Q 22.953125 6.109375 30.078125 6.109375 
Q 37.203125 6.109375 41.296875 11.75 
Q 45.40625 17.390625 45.40625 27.296875 
Q 45.40625 37.203125 41.296875 42.84375 
Q 37.203125 48.484375 30.078125 48.484375 
Q 22.953125 48.484375 18.875 42.84375 
Q 14.796875 37.203125 14.796875 27.296875 
z
" id="DejaVuSans-100"/>
      <path id="DejaVuSans-32"/>
      <path d="M 28.609375 0 
L 0.78125 72.90625 
L 11.078125 72.90625 
L 34.1875 11.53125 
L 57.328125 72.90625 
L 67.578125 72.90625 
L 39.796875 0 
z
" id="DejaVuSans-86"/>
      <path d="M 48.78125 52.59375 
L 48.78125 44.1875 
Q 44.96875 46.296875 41.140625 47.34375 
Q 37.3125 48.390625 33.40625 48.390625 
Q 24.65625 48.390625 19.8125 42.84375 
Q 14.984375 37.3125 14.984375 27.296875 
Q 14.984375 17.28125 19.8125 11.734375 
Q 24.65625 6.203125 33.40625 6.203125 
Q 37.3125 6.203125 41.140625 7.25 
Q 44.96875 8.296875 48.78125 10.40625 
L 48.78125 2.09375 
Q 45.015625 0.34375 40.984375 -0.53125 
Q 36.96875 -1.421875 32.421875 -1.421875 
Q 20.0625 -1.421875 12.78125 6.34375 
Q 5.515625 14.109375 5.515625 27.296875 
Q 5.515625 40.671875 12.859375 48.328125 
Q 20.21875 56 33.015625 56 
Q 37.15625 56 41.109375 55.140625 
Q 45.0625 54.296875 48.78125 52.59375 
z
" id="DejaVuSans-99"/>
     </defs>
     <g transform="translate(31.020312 267.534219)rotate(-90)scale(0.1 -0.1)">
      <use xlink:href="#DejaVuSans-73"/>
      <use x="29.492188" xlink:href="#DejaVuSans-110"/>
      <use x="92.871094" xlink:href="#DejaVuSans-116"/>
      <use x="132.080078" xlink:href="#DejaVuSans-101"/>
      <use x="193.603516" xlink:href="#DejaVuSans-103"/>
      <use x="257.080078" xlink:href="#DejaVuSans-114"/>
      <use x="298.193359" xlink:href="#DejaVuSans-97"/>
      <use x="359.472656" xlink:href="#DejaVuSans-116"/>
      <use x="398.681641" xlink:href="#DejaVuSans-101"/>
      <use x="460.205078" xlink:href="#DejaVuSans-100"/>
      <use x="523.681641" xlink:href="#DejaVuSans-32"/>
      <use x="555.46875" xlink:href="#DejaVuSans-86"/>
      <use x="616.126953" xlink:href="#DejaVuSans-97"/>
      <use x="677.40625" xlink:href="#DejaVuSans-114"/>
      <use x="718.519531" xlink:href="#DejaVuSans-105"/>
      <use x="746.302734" xlink:href="#DejaVuSans-97"/>
      <use x="807.582031" xlink:href="#DejaVuSans-110"/>
      <use x="870.960938" xlink:href="#DejaVuSans-99"/>
      <use x="925.941406" xlink:href="#DejaVuSans-101"/>
     </g>
    </g>
   </g>
   <g id="line2d_29">
    <path clip-path="url(#p6d5a902956)" d="M 411.194582 433 
L 411.264 249.425516 
L 411.333418 433 
M 429.005926 433 
L 429.12 129.804807 
L 438.048 237.247423 
L 438.121985 433 
" style="fill:none;stroke:#1f77b4;stroke-linecap:square;stroke-width:1.5;"/>
   </g>
   <g id="line2d_30">
    <path clip-path="url(#p6d5a902956)" d="M 72 100.410454 
L 80.928 106.571058 
L 89.856 112.669278 
L 98.784 96.235718 
L 107.712 94.606075 
L 116.64 103.941827 
L 125.568 113.647014 
L 134.496 118.428776 
L 143.424 127.653165 
L 152.352 137.88153 
L 161.28 152.120679 
L 170.208 161.897302 
L 179.136 168.703562 
L 188.064 201.302768 
L 196.992 212.98822 
L 205.92 221.702215 
L 214.848 230.411214 
L 223.776 241.719686 
L 232.704 241.540278 
L 241.632 238.143806 
L 250.56 233.393111 
L 259.488 238.6468 
L 268.416 230.864116 
L 277.344 236.009387 
L 286.272 232.431181 
L 295.2 228.08719 
L 304.128 226.798649 
L 304.2059 433 
M 321.905051 433 
L 321.984 223.994933 
L 330.912 223.291068 
L 339.84 220.795938 
L 348.768 232.303172 
L 348.843838 433 
M 375.4725 433 
L 375.552 222.52497 
L 384.48 224.299533 
L 384.558835 433 
M 411.183021 433 
L 411.264 218.572935 
L 420.192 218.622447 
L 420.27296 433 
M 455.823262 433 
L 455.904 219.215951 
L 464.832 218.964345 
L 473.76 220.128026 
L 473.840397 433 
M 491.532984 433 
L 491.616 213.127142 
L 500.544 214.273784 
L 509.472 217.633887 
L 509.55333 433 
" style="fill:none;stroke:#ff7f0e;stroke-linecap:square;stroke-width:1.5;"/>
   </g>
   <g id="line2d_31">
    <path clip-path="url(#p6d5a902956)" d="M 72 88.347709 
L 80.928 95.787624 
L 89.856 101.104212 
L 98.784 96.927603 
L 107.712 96.569708 
L 116.64 100.447358 
L 125.568 102.649025 
L 134.496 104.572996 
L 143.424 107.452935 
L 152.352 109.179391 
L 161.28 111.720868 
L 170.208 113.391932 
L 179.136 115.058239 
L 188.064 116.709448 
L 196.992 117.6764 
L 205.92 118.286725 
L 214.848 119.474005 
L 223.776 120.376851 
L 232.704 121.224901 
L 241.632 121.937405 
L 250.56 122.64104 
L 259.488 123.478701 
L 268.416 124.322206 
L 277.344 124.995434 
L 286.272 125.702036 
L 295.2 126.509087 
L 304.128 127.784437 
L 313.056 128.593875 
L 321.984 129.217553 
L 330.912 130.117578 
L 339.84 130.595685 
L 348.768 131.006817 
L 357.696 131.729543 
L 366.624 132.18877 
L 375.552 132.641125 
L 384.48 133.059095 
L 393.408 133.471975 
L 402.336 133.907824 
L 411.264 134.346723 
L 420.192 134.766122 
L 429.12 135.195562 
L 438.048 135.622973 
L 446.976 136.053153 
L 455.904 136.470239 
L 464.832 136.882336 
L 473.76 137.296892 
L 482.688 137.719896 
L 491.616 138.132831 
L 500.544 138.542736 
L 509.472 138.9673 
L 518.4 139.390269 
" style="fill:none;stroke:#2ca02c;stroke-linecap:square;stroke-width:1.5;"/>
   </g>
   <g id="line2d_32">
    <path clip-path="url(#p6d5a902956)" d="M 72 95.887162 
L 80.928 101.118646 
L 89.856 108.375253 
L 98.784 95.819291 
L 107.712 96.246646 
L 116.64 103.222373 
L 125.568 107.086926 
L 134.496 110.24226 
L 143.424 115.177094 
L 152.352 117.908102 
L 161.28 123.621054 
L 170.208 126.749872 
L 179.136 130.285704 
L 188.064 135.010625 
L 196.992 136.414974 
L 205.92 137.726835 
L 214.848 142.24994 
L 223.776 143.729358 
L 232.704 145.334299 
L 241.632 146.803578 
L 250.56 148.268046 
L 259.488 149.896777 
L 268.416 151.162842 
L 277.344 152.393567 
L 286.272 153.742593 
L 295.2 155.088138 
L 304.128 159.517467 
L 313.056 161.331666 
L 321.984 163.456402 
L 330.912 166.897476 
L 339.84 167.579219 
L 348.768 168.223686 
L 357.696 170.97172 
L 366.624 171.679165 
L 375.552 172.382151 
L 384.48 173.095714 
L 393.408 173.810689 
L 402.336 174.537418 
L 411.264 175.244241 
L 420.192 175.949167 
L 429.12 176.682006 
L 438.048 177.423786 
L 446.976 178.333808 
L 455.904 179.102334 
L 464.832 179.905832 
L 473.76 180.788621 
L 482.688 181.421379 
L 491.616 182.072729 
L 500.544 182.761995 
L 509.472 183.43568 
L 518.4 184.112085 
" style="fill:none;stroke:#d62728;stroke-linecap:square;stroke-width:1.5;"/>
   </g>
   <g id="line2d_33">
    <path clip-path="url(#p6d5a902956)" d="M 72 96.097937 
L 80.928 101.978058 
L 89.856 110.43562 
L 98.784 95.130517 
L 107.712 96.348843 
L 116.64 104.301194 
L 125.568 109.160956 
L 134.496 112.996776 
L 143.424 118.787521 
L 152.352 122.208016 
L 161.28 130.058297 
L 170.208 133.720316 
L 179.136 137.888153 
L 188.064 146.074443 
L 196.992 147.903951 
L 205.92 149.547524 
L 214.848 157.56141 
L 223.776 159.666339 
L 232.704 162.336385 
L 241.632 164.237001 
L 250.56 166.258137 
L 259.488 169.244653 
L 268.416 170.609525 
L 277.344 171.916848 
L 286.272 173.590566 
L 295.2 175.018329 
L 304.128 181.53693 
L 313.056 183.600657 
L 321.984 185.946197 
L 330.912 194.205967 
L 339.84 195.138123 
L 348.768 195.925094 
L 357.696 201.336219 
L 366.624 202.258236 
L 375.552 203.251531 
L 384.48 204.281289 
L 393.408 205.230521 
L 402.336 206.387404 
L 411.264 207.320996 
L 420.192 208.158804 
L 429.12 209.193952 
L 438.048 210.049708 
L 446.976 211.821316 
L 455.904 212.919022 
L 464.832 214.128459 
L 473.76 216.234187 
L 482.688 216.778459 
L 491.616 217.472289 
L 500.544 218.531896 
L 509.472 219.117208 
L 518.4 219.971507 
" style="fill:none;stroke:#9467bd;stroke-linecap:square;stroke-width:1.5;"/>
   </g>
   <g id="line2d_34">
    <path clip-path="url(#p6d5a902956)" d="M 72 102.934835 
L 80.928 103.540383 
L 89.856 111.966609 
L 98.784 96.390131 
L 107.712 95.660823 
L 116.64 98.077432 
L 125.568 102.724115 
L 134.496 110.034365 
L 143.424 112.521811 
L 152.352 117.82283 
L 161.28 138.289336 
L 170.208 164.355768 
L 179.136 173.346655 
L 188.064 198.866283 
L 196.992 212.385585 
L 205.92 222.302254 
L 214.848 236.176212 
L 223.776 245.297005 
L 232.704 245.761777 
L 241.632 240.921719 
L 250.56 235.874242 
L 259.488 236.257984 
L 268.416 232.880673 
L 277.344 232.917693 
L 277.419607 433 
M 295.123585 433 
L 295.2 230.763043 
L 304.128 228.001586 
L 304.205449 433 
M 321.904155 433 
L 321.984 221.60246 
L 330.912 222.158838 
L 339.84 219.414229 
L 348.768 222.102412 
L 357.696 225.062572 
L 366.624 224.271159 
L 375.552 223.293965 
L 384.48 225.602191 
L 393.408 217.386998 
L 402.336 219.037984 
L 411.264 220.165043 
L 420.192 218.132947 
L 429.12 219.210611 
L 429.20074 433 
M 446.894447 433 
L 446.976 217.038325 
L 447.057553 433 
M 464.750958 433 
L 464.832 218.404003 
L 473.76 216.572893 
L 482.688 212.775837 
L 491.616 213.188796 
L 500.544 215.302025 
L 500.626203 433 
" style="fill:none;stroke:#8c564b;stroke-linecap:square;stroke-width:1.5;"/>
   </g>
   <g id="line2d_35">
    <path clip-path="url(#p6d5a902956)" d="M 72 183.577786 
L 80.928 192.474676 
L 89.856 190.383908 
L 89.947515 433 
M 107.615101 433 
L 107.712 175.955407 
L 116.64 172.695345 
L 125.568 177.441012 
L 125.664345 433 
M 143.327366 433 
L 143.424 176.666817 
L 152.352 187.477771 
L 161.28 170.246925 
L 161.379027 433 
M 179.037912 433 
L 179.136 172.765449 
L 179.234088 433 
M 205.820856 433 
L 205.92 169.93276 
L 206.019144 433 
M 223.67894 433 
L 223.776 175.522412 
L 223.87306 433 
M 241.534669 433 
L 241.632 174.795895 
L 241.729331 433 
M 286.171687 433 
L 286.272 166.795968 
L 286.372313 433 
M 357.593517 433 
L 357.696 160.970932 
L 366.624 164.344913 
L 366.725226 433 
M 393.305614 433 
L 393.408 161.231045 
L 393.510386 433 
M 509.374926 433 
L 509.472 175.486522 
L 509.569074 433 
" style="fill:none;stroke:#e377c2;stroke-linecap:square;stroke-width:1.5;"/>
   </g>
   <g id="patch_3">
    <path d="M 72 384.48 
L 72 51.84 
" style="fill:none;stroke:#000000;stroke-linecap:square;stroke-linejoin:miter;stroke-width:0.8;"/>
   </g>
   <g id="patch_4">
    <path d="M 518.4 384.48 
L 518.4 51.84 
" style="fill:none;stroke:#000000;stroke-linecap:square;stroke-linejoin:miter;stroke-width:0.8;"/>
   </g>
   <g id="patch_5">
    <path d="M 72 384.48 
L 518.4 384.48 
" style="fill:none;stroke:#000000;stroke-linecap:square;stroke-linejoin:miter;stroke-width:0.8;"/>
   </g>
   <g id="patch_6">
    <path d="M 72 51.84 
L 518.4 51.84 
" style="fill:none;stroke:#000000;stroke-linecap:square;stroke-linejoin:miter;stroke-width:0.8;"/>
   </g>
   <g id="legend_1">
    <g id="patch_7">
     <path d="M 79 379.48 
L 165.804688 379.48 
Q 167.804688 379.48 167.804688 377.48 
L 167.804688 275.733125 
Q 167.804688 273.733125 165.804688 273.733125 
L 79 273.733125 
Q 77 273.733125 77 275.733125 
L 77 377.48 
Q 77 379.48 79 379.48 
z
" style="fill:#ffffff;opacity:0.8;stroke:#cccccc;stroke-linejoin:miter;"/>
    </g>
    <g id="line2d_36">
     <path d="M 81 281.831563 
L 101 281.831563 
" style="fill:none;stroke:#1f77b4;stroke-linecap:square;stroke-width:1.5;"/>
    </g>
    <g id="line2d_37"/>
    <g id="text_17">
     <!-- Constant -->
     <defs>
      <path d="M 64.40625 67.28125 
L 64.40625 56.890625 
Q 59.421875 61.53125 53.78125 63.8125 
Q 48.140625 66.109375 41.796875 66.109375 
Q 29.296875 66.109375 22.65625 58.46875 
Q 16.015625 50.828125 16.015625 36.375 
Q 16.015625 21.96875 22.65625 14.328125 
Q 29.296875 6.6875 41.796875 6.6875 
Q 48.140625 6.6875 53.78125 8.984375 
Q 59.421875 11.28125 64.40625 15.921875 
L 64.40625 5.609375 
Q 59.234375 2.09375 53.4375 0.328125 
Q 47.65625 -1.421875 41.21875 -1.421875 
Q 24.65625 -1.421875 15.125 8.703125 
Q 5.609375 18.84375 5.609375 36.375 
Q 5.609375 53.953125 15.125 64.078125 
Q 24.65625 74.21875 41.21875 74.21875 
Q 47.75 74.21875 53.53125 72.484375 
Q 59.328125 70.75 64.40625 67.28125 
z
" id="DejaVuSans-67"/>
      <path d="M 44.28125 53.078125 
L 44.28125 44.578125 
Q 40.484375 46.53125 36.375 47.5 
Q 32.28125 48.484375 27.875 48.484375 
Q 21.1875 48.484375 17.84375 46.4375 
Q 14.5 44.390625 14.5 40.28125 
Q 14.5 37.15625 16.890625 35.375 
Q 19.28125 33.59375 26.515625 31.984375 
L 29.59375 31.296875 
Q 39.15625 29.25 43.1875 25.515625 
Q 47.21875 21.78125 47.21875 15.09375 
Q 47.21875 7.46875 41.1875 3.015625 
Q 35.15625 -1.421875 24.609375 -1.421875 
Q 20.21875 -1.421875 15.453125 -0.5625 
Q 10.6875 0.296875 5.421875 2 
L 5.421875 11.28125 
Q 10.40625 8.6875 15.234375 7.390625 
Q 20.0625 6.109375 24.8125 6.109375 
Q 31.15625 6.109375 34.5625 8.28125 
Q 37.984375 10.453125 37.984375 14.40625 
Q 37.984375 18.0625 35.515625 20.015625 
Q 33.0625 21.96875 24.703125 23.78125 
L 21.578125 24.515625 
Q 13.234375 26.265625 9.515625 29.90625 
Q 5.8125 33.546875 5.8125 39.890625 
Q 5.8125 47.609375 11.28125 51.796875 
Q 16.75 56 26.8125 56 
Q 31.78125 56 36.171875 55.265625 
Q 40.578125 54.546875 44.28125 53.078125 
z
" id="DejaVuSans-115"/>
     </defs>
     <g transform="translate(109 285.331563)scale(0.1 -0.1)">
      <use xlink:href="#DejaVuSans-67"/>
      <use x="69.824219" xlink:href="#DejaVuSans-111"/>
      <use x="131.005859" xlink:href="#DejaVuSans-110"/>
      <use x="194.384766" xlink:href="#DejaVuSans-115"/>
      <use x="246.484375" xlink:href="#DejaVuSans-116"/>
      <use x="285.693359" xlink:href="#DejaVuSans-97"/>
      <use x="346.972656" xlink:href="#DejaVuSans-110"/>
      <use x="410.351562" xlink:href="#DejaVuSans-116"/>
     </g>
    </g>
    <g id="line2d_38">
     <path d="M 81 296.509688 
L 101 296.509688 
" style="fill:none;stroke:#ff7f0e;stroke-linecap:square;stroke-width:1.5;"/>
    </g>
    <g id="line2d_39"/>
    <g id="text_18">
     <!-- RBF -->
     <defs>
      <path d="M 44.390625 34.1875 
Q 47.5625 33.109375 50.5625 29.59375 
Q 53.5625 26.078125 56.59375 19.921875 
L 66.609375 0 
L 56 0 
L 46.6875 18.703125 
Q 43.0625 26.03125 39.671875 28.421875 
Q 36.28125 30.8125 30.421875 30.8125 
L 19.671875 30.8125 
L 19.671875 0 
L 9.8125 0 
L 9.8125 72.90625 
L 32.078125 72.90625 
Q 44.578125 72.90625 50.734375 67.671875 
Q 56.890625 62.453125 56.890625 51.90625 
Q 56.890625 45.015625 53.6875 40.46875 
Q 50.484375 35.9375 44.390625 34.1875 
z
M 19.671875 64.796875 
L 19.671875 38.921875 
L 32.078125 38.921875 
Q 39.203125 38.921875 42.84375 42.21875 
Q 46.484375 45.515625 46.484375 51.90625 
Q 46.484375 58.296875 42.84375 61.546875 
Q 39.203125 64.796875 32.078125 64.796875 
z
" id="DejaVuSans-82"/>
      <path d="M 19.671875 34.8125 
L 19.671875 8.109375 
L 35.5 8.109375 
Q 43.453125 8.109375 47.28125 11.40625 
Q 51.125 14.703125 51.125 21.484375 
Q 51.125 28.328125 47.28125 31.5625 
Q 43.453125 34.8125 35.5 34.8125 
z
M 19.671875 64.796875 
L 19.671875 42.828125 
L 34.28125 42.828125 
Q 41.5 42.828125 45.03125 45.53125 
Q 48.578125 48.25 48.578125 53.8125 
Q 48.578125 59.328125 45.03125 62.0625 
Q 41.5 64.796875 34.28125 64.796875 
z
M 9.8125 72.90625 
L 35.015625 72.90625 
Q 46.296875 72.90625 52.390625 68.21875 
Q 58.5 63.53125 58.5 54.890625 
Q 58.5 48.1875 55.375 44.234375 
Q 52.25 40.28125 46.1875 39.3125 
Q 53.46875 37.75 57.5 32.78125 
Q 61.53125 27.828125 61.53125 20.40625 
Q 61.53125 10.640625 54.890625 5.3125 
Q 48.25 0 35.984375 0 
L 9.8125 0 
z
" id="DejaVuSans-66"/>
      <path d="M 9.8125 72.90625 
L 51.703125 72.90625 
L 51.703125 64.59375 
L 19.671875 64.59375 
L 19.671875 43.109375 
L 48.578125 43.109375 
L 48.578125 34.8125 
L 19.671875 34.8125 
L 19.671875 0 
L 9.8125 0 
z
" id="DejaVuSans-70"/>
     </defs>
     <g transform="translate(109 300.009688)scale(0.1 -0.1)">
      <use xlink:href="#DejaVuSans-82"/>
      <use x="69.482422" xlink:href="#DejaVuSans-66"/>
      <use x="138.085938" xlink:href="#DejaVuSans-70"/>
     </g>
    </g>
    <g id="line2d_40">
     <path d="M 81 311.187813 
L 101 311.187813 
" style="fill:none;stroke:#2ca02c;stroke-linecap:square;stroke-width:1.5;"/>
    </g>
    <g id="line2d_41"/>
    <g id="text_19">
     <!-- Matrn-1/2 -->
     <defs>
      <path d="M 9.8125 72.90625 
L 24.515625 72.90625 
L 43.109375 23.296875 
L 61.8125 72.90625 
L 76.515625 72.90625 
L 76.515625 0 
L 66.890625 0 
L 66.890625 64.015625 
L 48.09375 14.015625 
L 38.1875 14.015625 
L 19.390625 64.015625 
L 19.390625 0 
L 9.8125 0 
z
" id="DejaVuSans-77"/>
      <path d="M 56.203125 29.59375 
L 56.203125 25.203125 
L 14.890625 25.203125 
Q 15.484375 15.921875 20.484375 11.0625 
Q 25.484375 6.203125 34.421875 6.203125 
Q 39.59375 6.203125 44.453125 7.46875 
Q 49.3125 8.734375 54.109375 11.28125 
L 54.109375 2.78125 
Q 49.265625 0.734375 44.1875 -0.34375 
Q 39.109375 -1.421875 33.890625 -1.421875 
Q 20.796875 -1.421875 13.15625 6.1875 
Q 5.515625 13.8125 5.515625 26.8125 
Q 5.515625 40.234375 12.765625 48.109375 
Q 20.015625 56 32.328125 56 
Q 43.359375 56 49.78125 48.890625 
Q 56.203125 41.796875 56.203125 29.59375 
z
M 47.21875 32.234375 
Q 47.125 39.59375 43.09375 43.984375 
Q 39.0625 48.390625 32.421875 48.390625 
Q 24.90625 48.390625 20.390625 44.140625 
Q 15.875 39.890625 15.1875 32.171875 
z
M 38.53125 79.984375 
L 48.25 79.984375 
L 32.34375 61.625 
L 24.859375 61.625 
z
" id="DejaVuSans-233"/>
      <path d="M 4.890625 31.390625 
L 31.203125 31.390625 
L 31.203125 23.390625 
L 4.890625 23.390625 
z
" id="DejaVuSans-45"/>
      <path d="M 25.390625 72.90625 
L 33.6875 72.90625 
L 8.296875 -9.28125 
L 0 -9.28125 
z
" id="DejaVuSans-47"/>
     </defs>
     <g transform="translate(109 314.687813)scale(0.1 -0.1)">
      <use xlink:href="#DejaVuSans-77"/>
      <use x="86.279297" xlink:href="#DejaVuSans-97"/>
      <use x="147.558594" xlink:href="#DejaVuSans-116"/>
      <use x="186.767578" xlink:href="#DejaVuSans-233"/>
      <use x="248.291016" xlink:href="#DejaVuSans-114"/>
      <use x="287.654297" xlink:href="#DejaVuSans-110"/>
      <use x="351.033203" xlink:href="#DejaVuSans-45"/>
      <use x="387.117188" xlink:href="#DejaVuSans-49"/>
      <use x="450.740234" xlink:href="#DejaVuSans-47"/>
      <use x="484.431641" xlink:href="#DejaVuSans-50"/>
     </g>
    </g>
    <g id="line2d_42">
     <path d="M 81 325.865938 
L 101 325.865938 
" style="fill:none;stroke:#d62728;stroke-linecap:square;stroke-width:1.5;"/>
    </g>
    <g id="line2d_43"/>
    <g id="text_20">
     <!-- Matrn-3/2 -->
     <g transform="translate(109 329.365938)scale(0.1 -0.1)">
      <use xlink:href="#DejaVuSans-77"/>
      <use x="86.279297" xlink:href="#DejaVuSans-97"/>
      <use x="147.558594" xlink:href="#DejaVuSans-116"/>
      <use x="186.767578" xlink:href="#DejaVuSans-233"/>
      <use x="248.291016" xlink:href="#DejaVuSans-114"/>
      <use x="287.654297" xlink:href="#DejaVuSans-110"/>
      <use x="351.033203" xlink:href="#DejaVuSans-45"/>
      <use x="387.117188" xlink:href="#DejaVuSans-51"/>
      <use x="450.740234" xlink:href="#DejaVuSans-47"/>
      <use x="484.431641" xlink:href="#DejaVuSans-50"/>
     </g>
    </g>
    <g id="line2d_44">
     <path d="M 81 340.544062 
L 101 340.544062 
" style="fill:none;stroke:#9467bd;stroke-linecap:square;stroke-width:1.5;"/>
    </g>
    <g id="line2d_45"/>
    <g id="text_21">
     <!-- Matrn-5/2 -->
     <g transform="translate(109 344.044062)scale(0.1 -0.1)">
      <use xlink:href="#DejaVuSans-77"/>
      <use x="86.279297" xlink:href="#DejaVuSans-97"/>
      <use x="147.558594" xlink:href="#DejaVuSans-116"/>
      <use x="186.767578" xlink:href="#DejaVuSans-233"/>
      <use x="248.291016" xlink:href="#DejaVuSans-114"/>
      <use x="287.654297" xlink:href="#DejaVuSans-110"/>
      <use x="351.033203" xlink:href="#DejaVuSans-45"/>
      <use x="387.117188" xlink:href="#DejaVuSans-53"/>
      <use x="450.740234" xlink:href="#DejaVuSans-47"/>
      <use x="484.431641" xlink:href="#DejaVuSans-50"/>
     </g>
    </g>
    <g id="line2d_46">
     <path d="M 81 355.222188 
L 101 355.222188 
" style="fill:none;stroke:#8c564b;stroke-linecap:square;stroke-width:1.5;"/>
    </g>
    <g id="line2d_47"/>
    <g id="text_22">
     <!-- RQ -->
     <defs>
      <path d="M 39.40625 66.21875 
Q 28.65625 66.21875 22.328125 58.203125 
Q 16.015625 50.203125 16.015625 36.375 
Q 16.015625 22.609375 22.328125 14.59375 
Q 28.65625 6.59375 39.40625 6.59375 
Q 50.140625 6.59375 56.421875 14.59375 
Q 62.703125 22.609375 62.703125 36.375 
Q 62.703125 50.203125 56.421875 58.203125 
Q 50.140625 66.21875 39.40625 66.21875 
z
M 53.21875 1.3125 
L 66.21875 -12.890625 
L 54.296875 -12.890625 
L 43.5 -1.21875 
Q 41.890625 -1.3125 41.03125 -1.359375 
Q 40.1875 -1.421875 39.40625 -1.421875 
Q 24.03125 -1.421875 14.8125 8.859375 
Q 5.609375 19.140625 5.609375 36.375 
Q 5.609375 53.65625 14.8125 63.9375 
Q 24.03125 74.21875 39.40625 74.21875 
Q 54.734375 74.21875 63.90625 63.9375 
Q 73.09375 53.65625 73.09375 36.375 
Q 73.09375 23.6875 67.984375 14.640625 
Q 62.890625 5.609375 53.21875 1.3125 
z
" id="DejaVuSans-81"/>
     </defs>
     <g transform="translate(109 358.722188)scale(0.1 -0.1)">
      <use xlink:href="#DejaVuSans-82"/>
      <use x="69.482422" xlink:href="#DejaVuSans-81"/>
     </g>
    </g>
    <g id="line2d_48">
     <path d="M 81 369.900313 
L 101 369.900313 
" style="fill:none;stroke:#e377c2;stroke-linecap:square;stroke-width:1.5;"/>
    </g>
    <g id="line2d_49"/>
    <g id="text_23">
     <!-- Dot Prod. -->
     <defs>
      <path d="M 19.671875 64.796875 
L 19.671875 8.109375 
L 31.59375 8.109375 
Q 46.6875 8.109375 53.6875 14.9375 
Q 60.6875 21.78125 60.6875 36.53125 
Q 60.6875 51.171875 53.6875 57.984375 
Q 46.6875 64.796875 31.59375 64.796875 
z
M 9.8125 72.90625 
L 30.078125 72.90625 
Q 51.265625 72.90625 61.171875 64.09375 
Q 71.09375 55.28125 71.09375 36.53125 
Q 71.09375 17.671875 61.125 8.828125 
Q 51.171875 0 30.078125 0 
L 9.8125 0 
z
" id="DejaVuSans-68"/>
      <path d="M 19.671875 64.796875 
L 19.671875 37.40625 
L 32.078125 37.40625 
Q 38.96875 37.40625 42.71875 40.96875 
Q 46.484375 44.53125 46.484375 51.125 
Q 46.484375 57.671875 42.71875 61.234375 
Q 38.96875 64.796875 32.078125 64.796875 
z
M 9.8125 72.90625 
L 32.078125 72.90625 
Q 44.34375 72.90625 50.609375 67.359375 
Q 56.890625 61.8125 56.890625 51.125 
Q 56.890625 40.328125 50.609375 34.8125 
Q 44.34375 29.296875 32.078125 29.296875 
L 19.671875 29.296875 
L 19.671875 0 
L 9.8125 0 
z
" id="DejaVuSans-80"/>
      <path d="M 10.6875 12.40625 
L 21 12.40625 
L 21 0 
L 10.6875 0 
z
" id="DejaVuSans-46"/>
     </defs>
     <g transform="translate(109 373.400313)scale(0.1 -0.1)">
      <use xlink:href="#DejaVuSans-68"/>
      <use x="77.001953" xlink:href="#DejaVuSans-111"/>
      <use x="138.183594" xlink:href="#DejaVuSans-116"/>
      <use x="177.392578" xlink:href="#DejaVuSans-32"/>
      <use x="209.179688" xlink:href="#DejaVuSans-80"/>
      <use x="267.732422" xlink:href="#DejaVuSans-114"/>
      <use x="306.595703" xlink:href="#DejaVuSans-111"/>
      <use x="367.777344" xlink:href="#DejaVuSans-100"/>
      <use x="431.253906" xlink:href="#DejaVuSans-46"/>
     </g>
    </g>
   </g>
  </g>
 </g>
 <defs>
  <clipPath id="p6d5a902956">
   <rect height="332.64" width="446.4" x="72" y="51.84"/>
  </clipPath>
 </defs>
</svg>
