<?xml version="1.0" encoding="utf-8" standalone="no"?>
<!DOCTYPE svg PUBLIC "-//W3C//DTD SVG 1.1//EN"
  "http://www.w3.org/Graphics/SVG/1.1/DTD/svg11.dtd">
<!-- Created with matplotlib (https://matplotlib.org/) -->
<svg height="432pt" version="1.1" viewBox="0 0 576 432" width="576pt" xmlns="http://www.w3.org/2000/svg" xmlns:xlink="http://www.w3.org/1999/xlink">
 <defs>
  <style type="text/css">
*{stroke-linecap:butt;stroke-linejoin:round;}
  </style>
 </defs>
 <g id="figure_1">
  <g id="patch_1">
   <path d="M 0 432 
L 576 432 
L 576 0 
L 0 0 
z
" style="fill:#ffffff;"/>
  </g>
  <g id="axes_1">
   <g id="patch_2">
    <path d="M 72 384.48 
L 518.4 384.48 
L 518.4 51.84 
L 72 51.84 
z
" style="fill:#ffffff;"/>
   </g>
   <g id="PolyCollection_1">
    <path clip-path="url(#pd14744b95a)" d="M 72 99.528769 
L 72 97.263979 
L 80.928 97.635356 
L 89.856 97.244386 
L 98.784 97.700289 
L 107.712 97.64188 
L 116.64 97.281927 
L 125.568 96.36641 
L 134.496 96.419466 
L 143.424 96.205743 
L 152.352 96.439939 
L 161.28 96.918508 
L 170.208 94.077478 
L 179.136 96.186803 
L 188.064 98.119722 
L 196.992 97.528058 
L 205.92 95.423102 
L 214.848 97.891667 
L 223.776 96.005921 
L 232.704 97.934734 
L 241.632 96.253782 
L 250.56 95.195348 
L 259.488 98.504362 
L 268.416 96.969584 
L 277.344 95.94195 
L 286.272 96.382379 
L 295.2 97.783267 
L 304.128 98.722873 
L 313.056 98.786632 
L 321.984 91.738666 
L 330.912 91.569247 
L 339.84 93.823597 
L 348.768 94.313363 
L 357.696 94.245603 
L 366.624 93.505441 
L 375.552 95.089498 
L 384.48 91.769066 
L 393.408 86.694735 
L 402.336 92.758208 
L 411.264 94.506057 
L 420.192 93.369857 
L 429.12 91.843347 
L 438.048 90.589084 
L 446.976 91.01313 
L 455.904 93.747826 
L 464.832 77.1381 
L 473.76 93.019762 
L 482.688 92.84576 
L 491.616 93.602055 
L 500.544 89.500873 
L 509.472 96.490109 
L 518.4 88.669363 
L 518.4 100.924437 
L 518.4 100.924437 
L 509.472 100.520691 
L 500.544 99.933519 
L 491.616 101.052671 
L 482.688 99.365442 
L 473.76 101.557485 
L 464.832 102.588646 
L 455.904 101.367627 
L 446.976 101.556445 
L 438.048 99.704543 
L 429.12 99.895288 
L 420.192 100.645088 
L 411.264 101.090237 
L 402.336 101.403586 
L 393.408 101.086403 
L 384.48 98.936912 
L 375.552 101.160755 
L 366.624 98.19117 
L 357.696 100.638298 
L 348.768 102.244189 
L 339.84 98.785209 
L 330.912 99.379529 
L 321.984 99.506964 
L 313.056 99.387357 
L 304.128 99.40267 
L 295.2 99.5594 
L 286.272 100.054904 
L 277.344 100.331372 
L 268.416 99.469447 
L 259.488 99.40076 
L 250.56 99.654628 
L 241.632 100.119225 
L 232.704 99.476014 
L 223.776 100.230863 
L 214.848 99.682162 
L 205.92 100.155669 
L 196.992 99.305374 
L 188.064 99.302641 
L 179.136 100.396099 
L 170.208 99.875252 
L 161.28 98.653807 
L 152.352 100.223069 
L 143.424 99.378734 
L 134.496 100.3151 
L 125.568 98.961198 
L 116.64 99.86375 
L 107.712 99.325351 
L 98.784 99.285562 
L 89.856 99.569715 
L 80.928 99.293737 
L 72 99.528769 
z
" style="fill:#1f77b4;fill-opacity:0.3;"/>
   </g>
   <g id="PolyCollection_2">
    <path clip-path="url(#pd14744b95a)" d="M 72 104.492708 
L 72 99.217412 
L 80.928 98.415614 
L 89.856 98.531823 
L 98.784 98.342339 
L 107.712 97.84416 
L 116.64 98.235691 
L 125.568 98.413533 
L 134.496 99.389385 
L 143.424 99.389385 
L 152.352 99.389385 
L 161.28 99.389433 
L 170.208 99.389303 
L 179.136 99.389303 
L 188.064 99.389317 
L 196.992 99.389317 
L 205.92 99.389317 
L 214.848 99.389324 
L 223.776 99.389324 
L 232.704 99.389324 
L 241.632 99.389338 
L 250.56 99.389339 
L 259.488 99.389339 
L 268.416 99.389024 
L 277.344 99.389066 
L 286.272 99.389066 
L 295.2 99.389066 
L 304.128 99.389104 
L 313.056 99.389104 
L 321.984 99.389104 
L 330.912 99.38928 
L 339.84 99.389311 
L 348.768 99.389311 
L 357.696 99.389457 
L 366.624 99.389457 
L 375.552 99.389457 
L 384.48 99.389628 
L 393.408 99.389628 
L 402.336 99.389628 
L 411.264 99.389733 
L 420.192 99.389735 
L 429.12 99.389735 
L 438.048 99.389411 
L 446.976 99.389432 
L 455.904 97.365695 
L 464.832 97.406614 
L 473.76 97.239965 
L 482.688 97.262098 
L 491.616 97.269253 
L 500.544 97.258091 
L 509.472 97.273303 
L 518.4 98.323578 
L 518.4 100.82252 
L 518.4 100.82252 
L 509.472 102.222888 
L 500.544 102.242738 
L 491.616 102.227447 
L 482.688 102.236981 
L 473.76 102.266457 
L 464.832 102.04389 
L 455.904 102.098448 
L 446.976 99.398716 
L 438.048 99.39871 
L 429.12 99.397881 
L 420.192 99.397881 
L 411.264 99.397872 
L 402.336 99.397637 
L 393.408 99.397637 
L 384.48 99.397637 
L 375.552 99.397439 
L 366.624 99.397439 
L 357.696 99.397439 
L 348.768 99.397328 
L 339.84 99.397328 
L 330.912 99.397316 
L 321.984 99.397039 
L 313.056 99.397039 
L 304.128 99.397039 
L 295.2 99.396663 
L 286.272 99.396663 
L 277.344 99.396663 
L 268.416 99.396325 
L 259.488 99.395623 
L 250.56 99.395623 
L 241.632 99.395622 
L 232.704 99.395017 
L 223.776 99.395017 
L 214.848 99.395017 
L 205.92 99.394721 
L 196.992 99.394721 
L 188.064 99.394721 
L 179.136 99.394713 
L 170.208 99.394713 
L 161.28 99.39392 
L 152.352 99.393616 
L 143.424 99.393616 
L 134.496 99.393616 
L 125.568 101.061807 
L 116.64 101.756267 
L 107.712 104.082262 
L 98.784 105.857533 
L 89.856 106.746379 
L 80.928 106.120215 
L 72 104.492708 
z
" style="fill:#ff7f0e;fill-opacity:0.3;"/>
   </g>
   <g id="PolyCollection_3">
    <path clip-path="url(#pd14744b95a)" d="M 72 110.980395 
L 72 100.441832 
L 80.928 102.165779 
L 89.856 104.319693 
L 98.784 106.982585 
L 107.712 108.212685 
L 116.64 109.306968 
L 125.568 110.321473 
L 134.496 112.02227 
L 143.424 112.462234 
L 152.352 113.046202 
L 161.28 114.050467 
L 170.208 115.673812 
L 179.136 114.678734 
L 188.064 117.540177 
L 196.992 117.573827 
L 205.92 116.68041 
L 214.848 117.149094 
L 223.776 117.117904 
L 232.704 117.802315 
L 241.632 117.375181 
L 250.56 117.552834 
L 259.488 117.584062 
L 268.416 119.450897 
L 277.344 119.589121 
L 286.272 121.661691 
L 295.2 121.980647 
L 304.128 122.348812 
L 313.056 122.400107 
L 321.984 123.163442 
L 330.912 123.128717 
L 339.84 123.521538 
L 348.768 123.462431 
L 357.696 123.495096 
L 366.624 122.29137 
L 375.552 122.302464 
L 384.48 122.507163 
L 393.408 122.893144 
L 402.336 122.848271 
L 411.264 123.127107 
L 420.192 123.278586 
L 429.12 123.530481 
L 438.048 123.610174 
L 446.976 123.596301 
L 455.904 124.295965 
L 464.832 124.29067 
L 473.76 124.554436 
L 482.688 124.593914 
L 491.616 125.13713 
L 500.544 125.481167 
L 509.472 125.478391 
L 518.4 125.481182 
L 518.4 154.641836 
L 518.4 154.641836 
L 509.472 154.630897 
L 500.544 154.621231 
L 491.616 154.611686 
L 482.688 154.290517 
L 473.76 154.241215 
L 464.832 154.14871 
L 455.904 154.130485 
L 446.976 153.445627 
L 438.048 153.393401 
L 429.12 153.302788 
L 420.192 152.230339 
L 411.264 151.858453 
L 402.336 151.139143 
L 393.408 150.654282 
L 384.48 150.506958 
L 375.552 150.259857 
L 366.624 150.132549 
L 357.696 148.604765 
L 348.768 148.31831 
L 339.84 148.059392 
L 330.912 147.457067 
L 321.984 147.208178 
L 313.056 146.167803 
L 304.128 145.864505 
L 295.2 145.524455 
L 286.272 145.166684 
L 277.344 144.674339 
L 268.416 144.385671 
L 259.488 143.956882 
L 250.56 143.711486 
L 241.632 143.273795 
L 232.704 141.511823 
L 223.776 140.457367 
L 214.848 140.150898 
L 205.92 139.736207 
L 196.992 138.91122 
L 188.064 137.87861 
L 179.136 136.794985 
L 170.208 135.770081 
L 161.28 134.748971 
L 152.352 134.311127 
L 143.424 133.723229 
L 134.496 132.879485 
L 125.568 130.693003 
L 116.64 128.344316 
L 107.712 125.094457 
L 98.784 121.398757 
L 89.856 118.726923 
L 80.928 116.387669 
L 72 110.980395 
z
" style="fill:#2ca02c;fill-opacity:0.3;"/>
   </g>
   <g id="PolyCollection_4">
    <path clip-path="url(#pd14744b95a)" d="M 72 105.947931 
L 72 99.596384 
L 80.928 99.807426 
L 89.856 99.935376 
L 98.784 99.836298 
L 107.712 99.626247 
L 116.64 99.843689 
L 125.568 101.066115 
L 134.496 101.088836 
L 143.424 101.147231 
L 152.352 100.242745 
L 161.28 100.551131 
L 170.208 99.422537 
L 179.136 99.359709 
L 188.064 99.160307 
L 196.992 98.800067 
L 205.92 98.068675 
L 214.848 97.335736 
L 223.776 96.919306 
L 232.704 96.896741 
L 241.632 96.852473 
L 250.56 96.449974 
L 259.488 97.063417 
L 268.416 96.75451 
L 277.344 97.315477 
L 286.272 96.83913 
L 295.2 96.841639 
L 304.128 96.802068 
L 313.056 97.203251 
L 321.984 97.108437 
L 330.912 96.682182 
L 339.84 95.822173 
L 348.768 95.803696 
L 357.696 96.609114 
L 366.624 96.140319 
L 375.552 96.138578 
L 384.48 96.58648 
L 393.408 95.720082 
L 402.336 95.637585 
L 411.264 95.62665 
L 420.192 96.073273 
L 429.12 95.653091 
L 438.048 94.858259 
L 446.976 94.420644 
L 455.904 94.421094 
L 464.832 94.04513 
L 473.76 94.04356 
L 482.688 94.037832 
L 491.616 94.356083 
L 500.544 94.334859 
L 509.472 94.266696 
L 518.4 94.268553 
L 518.4 123.673794 
L 518.4 123.673794 
L 509.472 123.681336 
L 500.544 123.330819 
L 491.616 123.122796 
L 482.688 122.13737 
L 473.76 122.118521 
L 464.832 122.11221 
L 455.904 122.851475 
L 446.976 122.852301 
L 438.048 123.335159 
L 429.12 124.91366 
L 420.192 125.686078 
L 411.264 124.957281 
L 402.336 124.910332 
L 393.408 124.259771 
L 384.48 125.703024 
L 375.552 124.91774 
L 366.624 124.897166 
L 357.696 125.515814 
L 348.768 123.701242 
L 339.84 123.415825 
L 330.912 124.329031 
L 321.984 124.47199 
L 313.056 123.683326 
L 304.128 122.851283 
L 295.2 122.221509 
L 286.272 122.266815 
L 277.344 122.14552 
L 268.416 120.879673 
L 259.488 121.543758 
L 250.56 120.275069 
L 241.632 120.741931 
L 232.704 119.840134 
L 223.776 119.769856 
L 214.848 118.889835 
L 205.92 119.995437 
L 196.992 120.353034 
L 188.064 120.276344 
L 179.136 120.314423 
L 170.208 119.91371 
L 161.28 121.130189 
L 152.352 119.763774 
L 143.424 119.325148 
L 134.496 117.970124 
L 125.568 117.070331 
L 116.64 114.67388 
L 107.712 114.09162 
L 98.784 113.120804 
L 89.856 110.737372 
L 80.928 108.486546 
L 72 105.947931 
z
" style="fill:#d62728;fill-opacity:0.3;"/>
   </g>
   <g id="PolyCollection_5">
    <path clip-path="url(#pd14744b95a)" d="M 72 106.116726 
L 72 99.738848 
L 80.928 99.25609 
L 89.856 99.686285 
L 98.784 100.266622 
L 107.712 99.620683 
L 116.64 100.032646 
L 125.568 99.823983 
L 134.496 98.791124 
L 143.424 97.971686 
L 152.352 97.894624 
L 161.28 97.954833 
L 170.208 97.718379 
L 179.136 97.495344 
L 188.064 97.499966 
L 196.992 97.186247 
L 205.92 96.728576 
L 214.848 96.159988 
L 223.776 96.015455 
L 232.704 95.948841 
L 241.632 95.944495 
L 250.56 95.663714 
L 259.488 95.662289 
L 268.416 95.423141 
L 277.344 95.350235 
L 286.272 95.387108 
L 295.2 95.278723 
L 304.128 95.321327 
L 313.056 95.177875 
L 321.984 95.08425 
L 330.912 95.087289 
L 339.84 95.027433 
L 348.768 95.006304 
L 357.696 95.304507 
L 366.624 95.298427 
L 375.552 95.298302 
L 384.48 95.491528 
L 393.408 95.491828 
L 402.336 95.474246 
L 411.264 95.498675 
L 420.192 95.420595 
L 429.12 95.45276 
L 438.048 95.452952 
L 446.976 95.170762 
L 455.904 95.234684 
L 464.832 95.209778 
L 473.76 95.209846 
L 482.688 94.165172 
L 491.616 94.448249 
L 500.544 94.305231 
L 509.472 94.922685 
L 518.4 94.953859 
L 518.4 106.008753 
L 518.4 106.008753 
L 509.472 106.05201 
L 500.544 108.505198 
L 491.616 108.284862 
L 482.688 109.64783 
L 473.76 107.01552 
L 464.832 107.01566 
L 455.904 106.975259 
L 446.976 107.098214 
L 438.048 105.952233 
L 429.12 105.951987 
L 420.192 106.668291 
L 411.264 106.53437 
L 402.336 106.574619 
L 393.408 106.544293 
L 384.48 106.544615 
L 375.552 107.566416 
L 366.624 107.565458 
L 357.696 107.553974 
L 348.768 109.659623 
L 339.84 110.468726 
L 330.912 111.128492 
L 321.984 111.139394 
L 313.056 110.935326 
L 304.128 111.483436 
L 295.2 112.586752 
L 286.272 111.291828 
L 277.344 112.362082 
L 268.416 111.158767 
L 259.488 111.176828 
L 250.56 111.174427 
L 241.632 110.870539 
L 232.704 110.856866 
L 223.776 110.457747 
L 214.848 111.986458 
L 205.92 113.452495 
L 196.992 113.908087 
L 188.064 114.155806 
L 179.136 113.499147 
L 170.208 114.055829 
L 161.28 114.254499 
L 152.352 113.775365 
L 143.424 112.798333 
L 134.496 113.182012 
L 125.568 114.191605 
L 116.64 113.42859 
L 107.712 112.082694 
L 98.784 111.025055 
L 89.856 110.297326 
L 80.928 108.581452 
L 72 106.116726 
z
" style="fill:#9467bd;fill-opacity:0.3;"/>
   </g>
   <g id="PolyCollection_6">
    <path clip-path="url(#pd14744b95a)" d="M 72 105.509968 
L 72 99.774064 
L 80.928 99.596334 
L 89.856 101.280063 
L 98.784 102.340898 
L 107.712 103.881386 
L 116.64 105.907321 
L 125.568 109.711479 
L 134.496 109.961401 
L 143.424 112.446527 
L 152.352 113.974951 
L 161.28 115.336373 
L 170.208 116.666733 
L 179.136 116.124453 
L 188.064 117.608133 
L 196.992 118.297241 
L 205.92 118.969149 
L 214.848 118.182897 
L 223.776 120.446946 
L 232.704 121.194553 
L 241.632 121.958984 
L 250.56 121.787985 
L 259.488 122.025281 
L 268.416 122.482957 
L 277.344 122.489108 
L 286.272 122.982263 
L 295.2 123.334884 
L 304.128 123.386126 
L 313.056 121.347344 
L 321.984 122.809414 
L 330.912 122.668181 
L 339.84 122.068599 
L 348.768 121.760165 
L 357.696 122.775204 
L 366.624 125.93184 
L 375.552 123.799301 
L 384.48 123.934697 
L 393.408 123.976096 
L 402.336 123.930855 
L 411.264 124.520848 
L 420.192 124.029264 
L 429.12 124.033411 
L 438.048 124.000793 
L 446.976 124.300408 
L 455.904 124.97211 
L 464.832 125.289952 
L 473.76 125.702979 
L 482.688 126.177789 
L 491.616 126.232927 
L 500.544 126.282748 
L 509.472 126.285322 
L 518.4 126.423837 
L 518.4 143.729812 
L 518.4 143.729812 
L 509.472 143.824581 
L 500.544 143.770373 
L 491.616 143.407965 
L 482.688 143.081155 
L 473.76 142.771145 
L 464.832 142.606306 
L 455.904 142.21237 
L 446.976 141.404252 
L 438.048 141.117313 
L 429.12 141.032831 
L 420.192 140.591835 
L 411.264 140.478448 
L 402.336 140.321832 
L 393.408 140.252379 
L 384.48 139.984814 
L 375.552 139.756476 
L 366.624 138.092194 
L 357.696 139.169761 
L 348.768 138.557589 
L 339.84 138.538453 
L 330.912 137.245729 
L 321.984 136.980464 
L 313.056 137.557902 
L 304.128 136.68572 
L 295.2 136.387124 
L 286.272 136.122467 
L 277.344 135.543389 
L 268.416 135.37141 
L 259.488 134.805137 
L 250.56 134.054868 
L 241.632 133.833326 
L 232.704 132.547438 
L 223.776 131.885527 
L 214.848 131.966913 
L 205.92 130.914844 
L 196.992 130.006871 
L 188.064 129.488349 
L 179.136 128.997863 
L 170.208 127.971965 
L 161.28 127.060478 
L 152.352 125.799956 
L 143.424 125.097313 
L 134.496 123.721184 
L 125.568 122.001368 
L 116.64 119.520306 
L 107.712 119.222423 
L 98.784 116.304266 
L 89.856 113.025621 
L 80.928 109.514306 
L 72 105.509968 
z
" style="fill:#8c564b;fill-opacity:0.3;"/>
   </g>
   <g id="PolyCollection_7">
    <path clip-path="url(#pd14744b95a)" d="M 72 111.535934 
L 72 107.532535 
L 80.928 107.899049 
L 89.856 108.778602 
L 98.784 108.991617 
L 107.712 109.44941 
L 116.64 110.164291 
L 125.568 110.430386 
L 134.496 110.8425 
L 143.424 111.047732 
L 152.352 111.210733 
L 161.28 111.309411 
L 170.208 111.598926 
L 179.136 111.658006 
L 188.064 111.866338 
L 196.992 111.902248 
L 205.92 112.166462 
L 214.848 112.157576 
L 223.776 112.193007 
L 232.704 112.212214 
L 241.632 112.162793 
L 250.56 112.166012 
L 259.488 112.32555 
L 268.416 112.317885 
L 277.344 112.328633 
L 286.272 112.391367 
L 295.2 112.380671 
L 304.128 112.394732 
L 313.056 112.536052 
L 321.984 112.537183 
L 330.912 112.559828 
L 339.84 112.549757 
L 348.768 112.602756 
L 357.696 112.606427 
L 366.624 112.648477 
L 375.552 112.705986 
L 384.48 112.756551 
L 393.408 112.80911 
L 402.336 112.860814 
L 411.264 112.893752 
L 420.192 112.890998 
L 429.12 112.918468 
L 438.048 112.924315 
L 446.976 112.926476 
L 455.904 112.952889 
L 464.832 112.976144 
L 473.76 112.968654 
L 482.688 112.983392 
L 491.616 112.97971 
L 500.544 112.979359 
L 509.472 112.981717 
L 518.4 113.026335 
L 518.4 113.623903 
L 518.4 113.623903 
L 509.472 113.620021 
L 500.544 113.614281 
L 491.616 113.624351 
L 482.688 113.625657 
L 473.76 113.629687 
L 464.832 113.638728 
L 455.904 113.631825 
L 446.976 113.646333 
L 438.048 113.638253 
L 429.12 113.649553 
L 420.192 113.650985 
L 411.264 113.640969 
L 402.336 113.64425 
L 393.408 113.652154 
L 384.48 113.636668 
L 375.552 113.635574 
L 366.624 113.680072 
L 357.696 113.700922 
L 348.768 113.689456 
L 339.84 113.68411 
L 330.912 113.687385 
L 321.984 113.681932 
L 313.056 113.675869 
L 304.128 113.758071 
L 295.2 113.713041 
L 286.272 113.678101 
L 277.344 113.624385 
L 268.416 113.583521 
L 259.488 113.56767 
L 250.56 113.634054 
L 241.632 113.596586 
L 232.704 113.465664 
L 223.776 113.468144 
L 214.848 113.442428 
L 205.92 113.389857 
L 196.992 113.482784 
L 188.064 113.467158 
L 179.136 113.43943 
L 170.208 113.411877 
L 161.28 113.598163 
L 152.352 113.519922 
L 143.424 113.474868 
L 134.496 113.403199 
L 125.568 113.423946 
L 116.64 113.339427 
L 107.712 113.220244 
L 98.784 113.047545 
L 89.856 112.608771 
L 80.928 112.187069 
L 72 111.535934 
z
" style="fill:#e377c2;fill-opacity:0.3;"/>
   </g>
   <g id="matplotlib.axis_1">
    <g id="xtick_1">
     <g id="line2d_1">
      <path clip-path="url(#pd14744b95a)" d="M 72 384.48 
L 72 51.84 
" style="fill:none;stroke:#b0b0b0;stroke-linecap:square;stroke-width:0.8;"/>
     </g>
     <g id="line2d_2">
      <defs>
       <path d="M 0 0 
L 0 3.5 
" id="ma38d486129" style="stroke:#000000;stroke-width:0.8;"/>
      </defs>
      <g>
       <use style="stroke:#000000;stroke-width:0.8;" x="72" xlink:href="#ma38d486129" y="384.48"/>
      </g>
     </g>
     <g id="text_1">
      <!-- 0 -->
      <defs>
       <path d="M 31.78125 66.40625 
Q 24.171875 66.40625 20.328125 58.90625 
Q 16.5 51.421875 16.5 36.375 
Q 16.5 21.390625 20.328125 13.890625 
Q 24.171875 6.390625 31.78125 6.390625 
Q 39.453125 6.390625 43.28125 13.890625 
Q 47.125 21.390625 47.125 36.375 
Q 47.125 51.421875 43.28125 58.90625 
Q 39.453125 66.40625 31.78125 66.40625 
z
M 31.78125 74.21875 
Q 44.046875 74.21875 50.515625 64.515625 
Q 56.984375 54.828125 56.984375 36.375 
Q 56.984375 17.96875 50.515625 8.265625 
Q 44.046875 -1.421875 31.78125 -1.421875 
Q 19.53125 -1.421875 13.0625 8.265625 
Q 6.59375 17.96875 6.59375 36.375 
Q 6.59375 54.828125 13.0625 64.515625 
Q 19.53125 74.21875 31.78125 74.21875 
z
" id="DejaVuSans-48"/>
      </defs>
      <g transform="translate(68.81875 399.078438)scale(0.1 -0.1)">
       <use xlink:href="#DejaVuSans-48"/>
      </g>
     </g>
    </g>
    <g id="xtick_2">
     <g id="line2d_3">
      <path clip-path="url(#pd14744b95a)" d="M 161.28 384.48 
L 161.28 51.84 
" style="fill:none;stroke:#b0b0b0;stroke-linecap:square;stroke-width:0.8;"/>
     </g>
     <g id="line2d_4">
      <g>
       <use style="stroke:#000000;stroke-width:0.8;" x="161.28" xlink:href="#ma38d486129" y="384.48"/>
      </g>
     </g>
     <g id="text_2">
      <!-- 10 -->
      <defs>
       <path d="M 12.40625 8.296875 
L 28.515625 8.296875 
L 28.515625 63.921875 
L 10.984375 60.40625 
L 10.984375 69.390625 
L 28.421875 72.90625 
L 38.28125 72.90625 
L 38.28125 8.296875 
L 54.390625 8.296875 
L 54.390625 0 
L 12.40625 0 
z
" id="DejaVuSans-49"/>
      </defs>
      <g transform="translate(154.9175 399.078438)scale(0.1 -0.1)">
       <use xlink:href="#DejaVuSans-49"/>
       <use x="63.623047" xlink:href="#DejaVuSans-48"/>
      </g>
     </g>
    </g>
    <g id="xtick_3">
     <g id="line2d_5">
      <path clip-path="url(#pd14744b95a)" d="M 250.56 384.48 
L 250.56 51.84 
" style="fill:none;stroke:#b0b0b0;stroke-linecap:square;stroke-width:0.8;"/>
     </g>
     <g id="line2d_6">
      <g>
       <use style="stroke:#000000;stroke-width:0.8;" x="250.56" xlink:href="#ma38d486129" y="384.48"/>
      </g>
     </g>
     <g id="text_3">
      <!-- 20 -->
      <defs>
       <path d="M 19.1875 8.296875 
L 53.609375 8.296875 
L 53.609375 0 
L 7.328125 0 
L 7.328125 8.296875 
Q 12.9375 14.109375 22.625 23.890625 
Q 32.328125 33.6875 34.8125 36.53125 
Q 39.546875 41.84375 41.421875 45.53125 
Q 43.3125 49.21875 43.3125 52.78125 
Q 43.3125 58.59375 39.234375 62.25 
Q 35.15625 65.921875 28.609375 65.921875 
Q 23.96875 65.921875 18.8125 64.3125 
Q 13.671875 62.703125 7.8125 59.421875 
L 7.8125 69.390625 
Q 13.765625 71.78125 18.9375 73 
Q 24.125 74.21875 28.421875 74.21875 
Q 39.75 74.21875 46.484375 68.546875 
Q 53.21875 62.890625 53.21875 53.421875 
Q 53.21875 48.921875 51.53125 44.890625 
Q 49.859375 40.875 45.40625 35.40625 
Q 44.1875 33.984375 37.640625 27.21875 
Q 31.109375 20.453125 19.1875 8.296875 
z
" id="DejaVuSans-50"/>
      </defs>
      <g transform="translate(244.1975 399.078438)scale(0.1 -0.1)">
       <use xlink:href="#DejaVuSans-50"/>
       <use x="63.623047" xlink:href="#DejaVuSans-48"/>
      </g>
     </g>
    </g>
    <g id="xtick_4">
     <g id="line2d_7">
      <path clip-path="url(#pd14744b95a)" d="M 339.84 384.48 
L 339.84 51.84 
" style="fill:none;stroke:#b0b0b0;stroke-linecap:square;stroke-width:0.8;"/>
     </g>
     <g id="line2d_8">
      <g>
       <use style="stroke:#000000;stroke-width:0.8;" x="339.84" xlink:href="#ma38d486129" y="384.48"/>
      </g>
     </g>
     <g id="text_4">
      <!-- 30 -->
      <defs>
       <path d="M 40.578125 39.3125 
Q 47.65625 37.796875 51.625 33 
Q 55.609375 28.21875 55.609375 21.1875 
Q 55.609375 10.40625 48.1875 4.484375 
Q 40.765625 -1.421875 27.09375 -1.421875 
Q 22.515625 -1.421875 17.65625 -0.515625 
Q 12.796875 0.390625 7.625 2.203125 
L 7.625 11.71875 
Q 11.71875 9.328125 16.59375 8.109375 
Q 21.484375 6.890625 26.8125 6.890625 
Q 36.078125 6.890625 40.9375 10.546875 
Q 45.796875 14.203125 45.796875 21.1875 
Q 45.796875 27.640625 41.28125 31.265625 
Q 36.765625 34.90625 28.71875 34.90625 
L 20.21875 34.90625 
L 20.21875 43.015625 
L 29.109375 43.015625 
Q 36.375 43.015625 40.234375 45.921875 
Q 44.09375 48.828125 44.09375 54.296875 
Q 44.09375 59.90625 40.109375 62.90625 
Q 36.140625 65.921875 28.71875 65.921875 
Q 24.65625 65.921875 20.015625 65.03125 
Q 15.375 64.15625 9.8125 62.3125 
L 9.8125 71.09375 
Q 15.4375 72.65625 20.34375 73.4375 
Q 25.25 74.21875 29.59375 74.21875 
Q 40.828125 74.21875 47.359375 69.109375 
Q 53.90625 64.015625 53.90625 55.328125 
Q 53.90625 49.265625 50.4375 45.09375 
Q 46.96875 40.921875 40.578125 39.3125 
z
" id="DejaVuSans-51"/>
      </defs>
      <g transform="translate(333.4775 399.078438)scale(0.1 -0.1)">
       <use xlink:href="#DejaVuSans-51"/>
       <use x="63.623047" xlink:href="#DejaVuSans-48"/>
      </g>
     </g>
    </g>
    <g id="xtick_5">
     <g id="line2d_9">
      <path clip-path="url(#pd14744b95a)" d="M 429.12 384.48 
L 429.12 51.84 
" style="fill:none;stroke:#b0b0b0;stroke-linecap:square;stroke-width:0.8;"/>
     </g>
     <g id="line2d_10">
      <g>
       <use style="stroke:#000000;stroke-width:0.8;" x="429.12" xlink:href="#ma38d486129" y="384.48"/>
      </g>
     </g>
     <g id="text_5">
      <!-- 40 -->
      <defs>
       <path d="M 37.796875 64.3125 
L 12.890625 25.390625 
L 37.796875 25.390625 
z
M 35.203125 72.90625 
L 47.609375 72.90625 
L 47.609375 25.390625 
L 58.015625 25.390625 
L 58.015625 17.1875 
L 47.609375 17.1875 
L 47.609375 0 
L 37.796875 0 
L 37.796875 17.1875 
L 4.890625 17.1875 
L 4.890625 26.703125 
z
" id="DejaVuSans-52"/>
      </defs>
      <g transform="translate(422.7575 399.078438)scale(0.1 -0.1)">
       <use xlink:href="#DejaVuSans-52"/>
       <use x="63.623047" xlink:href="#DejaVuSans-48"/>
      </g>
     </g>
    </g>
    <g id="xtick_6">
     <g id="line2d_11">
      <path clip-path="url(#pd14744b95a)" d="M 518.4 384.48 
L 518.4 51.84 
" style="fill:none;stroke:#b0b0b0;stroke-linecap:square;stroke-width:0.8;"/>
     </g>
     <g id="line2d_12">
      <g>
       <use style="stroke:#000000;stroke-width:0.8;" x="518.4" xlink:href="#ma38d486129" y="384.48"/>
      </g>
     </g>
     <g id="text_6">
      <!-- 50 -->
      <defs>
       <path d="M 10.796875 72.90625 
L 49.515625 72.90625 
L 49.515625 64.59375 
L 19.828125 64.59375 
L 19.828125 46.734375 
Q 21.96875 47.46875 24.109375 47.828125 
Q 26.265625 48.1875 28.421875 48.1875 
Q 40.625 48.1875 47.75 41.5 
Q 54.890625 34.8125 54.890625 23.390625 
Q 54.890625 11.625 47.5625 5.09375 
Q 40.234375 -1.421875 26.90625 -1.421875 
Q 22.3125 -1.421875 17.546875 -0.640625 
Q 12.796875 0.140625 7.71875 1.703125 
L 7.71875 11.625 
Q 12.109375 9.234375 16.796875 8.0625 
Q 21.484375 6.890625 26.703125 6.890625 
Q 35.15625 6.890625 40.078125 11.328125 
Q 45.015625 15.765625 45.015625 23.390625 
Q 45.015625 31 40.078125 35.4375 
Q 35.15625 39.890625 26.703125 39.890625 
Q 22.75 39.890625 18.8125 39.015625 
Q 14.890625 38.140625 10.796875 36.28125 
z
" id="DejaVuSans-53"/>
      </defs>
      <g transform="translate(512.0375 399.078438)scale(0.1 -0.1)">
       <use xlink:href="#DejaVuSans-53"/>
       <use x="63.623047" xlink:href="#DejaVuSans-48"/>
      </g>
     </g>
    </g>
    <g id="text_7">
     <!-- Iteration -->
     <defs>
      <path d="M 9.8125 72.90625 
L 19.671875 72.90625 
L 19.671875 0 
L 9.8125 0 
z
" id="DejaVuSans-73"/>
      <path d="M 18.3125 70.21875 
L 18.3125 54.6875 
L 36.8125 54.6875 
L 36.8125 47.703125 
L 18.3125 47.703125 
L 18.3125 18.015625 
Q 18.3125 11.328125 20.140625 9.421875 
Q 21.96875 7.515625 27.59375 7.515625 
L 36.8125 7.515625 
L 36.8125 0 
L 27.59375 0 
Q 17.1875 0 13.234375 3.875 
Q 9.28125 7.765625 9.28125 18.015625 
L 9.28125 47.703125 
L 2.6875 47.703125 
L 2.6875 54.6875 
L 9.28125 54.6875 
L 9.28125 70.21875 
z
" id="DejaVuSans-116"/>
      <path d="M 56.203125 29.59375 
L 56.203125 25.203125 
L 14.890625 25.203125 
Q 15.484375 15.921875 20.484375 11.0625 
Q 25.484375 6.203125 34.421875 6.203125 
Q 39.59375 6.203125 44.453125 7.46875 
Q 49.3125 8.734375 54.109375 11.28125 
L 54.109375 2.78125 
Q 49.265625 0.734375 44.1875 -0.34375 
Q 39.109375 -1.421875 33.890625 -1.421875 
Q 20.796875 -1.421875 13.15625 6.1875 
Q 5.515625 13.8125 5.515625 26.8125 
Q 5.515625 40.234375 12.765625 48.109375 
Q 20.015625 56 32.328125 56 
Q 43.359375 56 49.78125 48.890625 
Q 56.203125 41.796875 56.203125 29.59375 
z
M 47.21875 32.234375 
Q 47.125 39.59375 43.09375 43.984375 
Q 39.0625 48.390625 32.421875 48.390625 
Q 24.90625 48.390625 20.390625 44.140625 
Q 15.875 39.890625 15.1875 32.171875 
z
" id="DejaVuSans-101"/>
      <path d="M 41.109375 46.296875 
Q 39.59375 47.171875 37.8125 47.578125 
Q 36.03125 48 33.890625 48 
Q 26.265625 48 22.1875 43.046875 
Q 18.109375 38.09375 18.109375 28.8125 
L 18.109375 0 
L 9.078125 0 
L 9.078125 54.6875 
L 18.109375 54.6875 
L 18.109375 46.1875 
Q 20.953125 51.171875 25.484375 53.578125 
Q 30.03125 56 36.53125 56 
Q 37.453125 56 38.578125 55.875 
Q 39.703125 55.765625 41.0625 55.515625 
z
" id="DejaVuSans-114"/>
      <path d="M 34.28125 27.484375 
Q 23.390625 27.484375 19.1875 25 
Q 14.984375 22.515625 14.984375 16.5 
Q 14.984375 11.71875 18.140625 8.90625 
Q 21.296875 6.109375 26.703125 6.109375 
Q 34.1875 6.109375 38.703125 11.40625 
Q 43.21875 16.703125 43.21875 25.484375 
L 43.21875 27.484375 
z
M 52.203125 31.203125 
L 52.203125 0 
L 43.21875 0 
L 43.21875 8.296875 
Q 40.140625 3.328125 35.546875 0.953125 
Q 30.953125 -1.421875 24.3125 -1.421875 
Q 15.921875 -1.421875 10.953125 3.296875 
Q 6 8.015625 6 15.921875 
Q 6 25.140625 12.171875 29.828125 
Q 18.359375 34.515625 30.609375 34.515625 
L 43.21875 34.515625 
L 43.21875 35.40625 
Q 43.21875 41.609375 39.140625 45 
Q 35.0625 48.390625 27.6875 48.390625 
Q 23 48.390625 18.546875 47.265625 
Q 14.109375 46.140625 10.015625 43.890625 
L 10.015625 52.203125 
Q 14.9375 54.109375 19.578125 55.046875 
Q 24.21875 56 28.609375 56 
Q 40.484375 56 46.34375 49.84375 
Q 52.203125 43.703125 52.203125 31.203125 
z
" id="DejaVuSans-97"/>
      <path d="M 9.421875 54.6875 
L 18.40625 54.6875 
L 18.40625 0 
L 9.421875 0 
z
M 9.421875 75.984375 
L 18.40625 75.984375 
L 18.40625 64.59375 
L 9.421875 64.59375 
z
" id="DejaVuSans-105"/>
      <path d="M 30.609375 48.390625 
Q 23.390625 48.390625 19.1875 42.75 
Q 14.984375 37.109375 14.984375 27.296875 
Q 14.984375 17.484375 19.15625 11.84375 
Q 23.34375 6.203125 30.609375 6.203125 
Q 37.796875 6.203125 41.984375 11.859375 
Q 46.1875 17.53125 46.1875 27.296875 
Q 46.1875 37.015625 41.984375 42.703125 
Q 37.796875 48.390625 30.609375 48.390625 
z
M 30.609375 56 
Q 42.328125 56 49.015625 48.375 
Q 55.71875 40.765625 55.71875 27.296875 
Q 55.71875 13.875 49.015625 6.21875 
Q 42.328125 -1.421875 30.609375 -1.421875 
Q 18.84375 -1.421875 12.171875 6.21875 
Q 5.515625 13.875 5.515625 27.296875 
Q 5.515625 40.765625 12.171875 48.375 
Q 18.84375 56 30.609375 56 
z
" id="DejaVuSans-111"/>
      <path d="M 54.890625 33.015625 
L 54.890625 0 
L 45.90625 0 
L 45.90625 32.71875 
Q 45.90625 40.484375 42.875 44.328125 
Q 39.84375 48.1875 33.796875 48.1875 
Q 26.515625 48.1875 22.3125 43.546875 
Q 18.109375 38.921875 18.109375 30.90625 
L 18.109375 0 
L 9.078125 0 
L 9.078125 54.6875 
L 18.109375 54.6875 
L 18.109375 46.1875 
Q 21.34375 51.125 25.703125 53.5625 
Q 30.078125 56 35.796875 56 
Q 45.21875 56 50.046875 50.171875 
Q 54.890625 44.34375 54.890625 33.015625 
z
" id="DejaVuSans-110"/>
     </defs>
     <g transform="translate(273.991406 412.756563)scale(0.1 -0.1)">
      <use xlink:href="#DejaVuSans-73"/>
      <use x="29.492188" xlink:href="#DejaVuSans-116"/>
      <use x="68.701172" xlink:href="#DejaVuSans-101"/>
      <use x="130.224609" xlink:href="#DejaVuSans-114"/>
      <use x="171.337891" xlink:href="#DejaVuSans-97"/>
      <use x="232.617188" xlink:href="#DejaVuSans-116"/>
      <use x="271.826172" xlink:href="#DejaVuSans-105"/>
      <use x="299.609375" xlink:href="#DejaVuSans-111"/>
      <use x="360.791016" xlink:href="#DejaVuSans-110"/>
     </g>
    </g>
   </g>
   <g id="matplotlib.axis_2">
    <g id="ytick_1">
     <g id="line2d_13">
      <path clip-path="url(#pd14744b95a)" d="M 72 384.48 
L 518.4 384.48 
" style="fill:none;stroke:#b0b0b0;stroke-linecap:square;stroke-width:0.8;"/>
     </g>
     <g id="line2d_14">
      <defs>
       <path d="M 0 0 
L -3.5 0 
" id="me3a4744cd4" style="stroke:#000000;stroke-width:0.8;"/>
      </defs>
      <g>
       <use style="stroke:#000000;stroke-width:0.8;" x="72" xlink:href="#me3a4744cd4" y="384.48"/>
      </g>
     </g>
     <g id="text_8">
      <!-- $\mathdefault{10^{-12}}$ -->
      <defs>
       <path d="M 10.59375 35.5 
L 73.1875 35.5 
L 73.1875 27.203125 
L 10.59375 27.203125 
z
" id="DejaVuSans-8722"/>
      </defs>
      <g transform="translate(37.1 388.279219)scale(0.1 -0.1)">
       <use transform="translate(0 0.765625)" xlink:href="#DejaVuSans-49"/>
       <use transform="translate(63.623047 0.765625)" xlink:href="#DejaVuSans-48"/>
       <use transform="translate(128.203125 39.046875)scale(0.7)" xlink:href="#DejaVuSans-8722"/>
       <use transform="translate(186.855469 39.046875)scale(0.7)" xlink:href="#DejaVuSans-49"/>
       <use transform="translate(231.391602 39.046875)scale(0.7)" xlink:href="#DejaVuSans-50"/>
      </g>
     </g>
    </g>
    <g id="ytick_2">
     <g id="line2d_15">
      <path clip-path="url(#pd14744b95a)" d="M 72 336.96 
L 518.4 336.96 
" style="fill:none;stroke:#b0b0b0;stroke-linecap:square;stroke-width:0.8;"/>
     </g>
     <g id="line2d_16">
      <g>
       <use style="stroke:#000000;stroke-width:0.8;" x="72" xlink:href="#me3a4744cd4" y="336.96"/>
      </g>
     </g>
     <g id="text_9">
      <!-- $\mathdefault{10^{-10}}$ -->
      <g transform="translate(37.1 340.759219)scale(0.1 -0.1)">
       <use transform="translate(0 0.765625)" xlink:href="#DejaVuSans-49"/>
       <use transform="translate(63.623047 0.765625)" xlink:href="#DejaVuSans-48"/>
       <use transform="translate(128.203125 39.046875)scale(0.7)" xlink:href="#DejaVuSans-8722"/>
       <use transform="translate(186.855469 39.046875)scale(0.7)" xlink:href="#DejaVuSans-49"/>
       <use transform="translate(231.391602 39.046875)scale(0.7)" xlink:href="#DejaVuSans-48"/>
      </g>
     </g>
    </g>
    <g id="ytick_3">
     <g id="line2d_17">
      <path clip-path="url(#pd14744b95a)" d="M 72 289.44 
L 518.4 289.44 
" style="fill:none;stroke:#b0b0b0;stroke-linecap:square;stroke-width:0.8;"/>
     </g>
     <g id="line2d_18">
      <g>
       <use style="stroke:#000000;stroke-width:0.8;" x="72" xlink:href="#me3a4744cd4" y="289.44"/>
      </g>
     </g>
     <g id="text_10">
      <!-- $\mathdefault{10^{-8}}$ -->
      <defs>
       <path d="M 31.78125 34.625 
Q 24.75 34.625 20.71875 30.859375 
Q 16.703125 27.09375 16.703125 20.515625 
Q 16.703125 13.921875 20.71875 10.15625 
Q 24.75 6.390625 31.78125 6.390625 
Q 38.8125 6.390625 42.859375 10.171875 
Q 46.921875 13.96875 46.921875 20.515625 
Q 46.921875 27.09375 42.890625 30.859375 
Q 38.875 34.625 31.78125 34.625 
z
M 21.921875 38.8125 
Q 15.578125 40.375 12.03125 44.71875 
Q 8.5 49.078125 8.5 55.328125 
Q 8.5 64.0625 14.71875 69.140625 
Q 20.953125 74.21875 31.78125 74.21875 
Q 42.671875 74.21875 48.875 69.140625 
Q 55.078125 64.0625 55.078125 55.328125 
Q 55.078125 49.078125 51.53125 44.71875 
Q 48 40.375 41.703125 38.8125 
Q 48.828125 37.15625 52.796875 32.3125 
Q 56.78125 27.484375 56.78125 20.515625 
Q 56.78125 9.90625 50.3125 4.234375 
Q 43.84375 -1.421875 31.78125 -1.421875 
Q 19.734375 -1.421875 13.25 4.234375 
Q 6.78125 9.90625 6.78125 20.515625 
Q 6.78125 27.484375 10.78125 32.3125 
Q 14.796875 37.15625 21.921875 38.8125 
z
M 18.3125 54.390625 
Q 18.3125 48.734375 21.84375 45.5625 
Q 25.390625 42.390625 31.78125 42.390625 
Q 38.140625 42.390625 41.71875 45.5625 
Q 45.3125 48.734375 45.3125 54.390625 
Q 45.3125 60.0625 41.71875 63.234375 
Q 38.140625 66.40625 31.78125 66.40625 
Q 25.390625 66.40625 21.84375 63.234375 
Q 18.3125 60.0625 18.3125 54.390625 
z
" id="DejaVuSans-56"/>
      </defs>
      <g transform="translate(41.5 293.239219)scale(0.1 -0.1)">
       <use transform="translate(0 0.765625)" xlink:href="#DejaVuSans-49"/>
       <use transform="translate(63.623047 0.765625)" xlink:href="#DejaVuSans-48"/>
       <use transform="translate(128.203125 39.046875)scale(0.7)" xlink:href="#DejaVuSans-8722"/>
       <use transform="translate(186.855469 39.046875)scale(0.7)" xlink:href="#DejaVuSans-56"/>
      </g>
     </g>
    </g>
    <g id="ytick_4">
     <g id="line2d_19">
      <path clip-path="url(#pd14744b95a)" d="M 72 241.92 
L 518.4 241.92 
" style="fill:none;stroke:#b0b0b0;stroke-linecap:square;stroke-width:0.8;"/>
     </g>
     <g id="line2d_20">
      <g>
       <use style="stroke:#000000;stroke-width:0.8;" x="72" xlink:href="#me3a4744cd4" y="241.92"/>
      </g>
     </g>
     <g id="text_11">
      <!-- $\mathdefault{10^{-6}}$ -->
      <defs>
       <path d="M 33.015625 40.375 
Q 26.375 40.375 22.484375 35.828125 
Q 18.609375 31.296875 18.609375 23.390625 
Q 18.609375 15.53125 22.484375 10.953125 
Q 26.375 6.390625 33.015625 6.390625 
Q 39.65625 6.390625 43.53125 10.953125 
Q 47.40625 15.53125 47.40625 23.390625 
Q 47.40625 31.296875 43.53125 35.828125 
Q 39.65625 40.375 33.015625 40.375 
z
M 52.59375 71.296875 
L 52.59375 62.3125 
Q 48.875 64.0625 45.09375 64.984375 
Q 41.3125 65.921875 37.59375 65.921875 
Q 27.828125 65.921875 22.671875 59.328125 
Q 17.53125 52.734375 16.796875 39.40625 
Q 19.671875 43.65625 24.015625 45.921875 
Q 28.375 48.1875 33.59375 48.1875 
Q 44.578125 48.1875 50.953125 41.515625 
Q 57.328125 34.859375 57.328125 23.390625 
Q 57.328125 12.15625 50.6875 5.359375 
Q 44.046875 -1.421875 33.015625 -1.421875 
Q 20.359375 -1.421875 13.671875 8.265625 
Q 6.984375 17.96875 6.984375 36.375 
Q 6.984375 53.65625 15.1875 63.9375 
Q 23.390625 74.21875 37.203125 74.21875 
Q 40.921875 74.21875 44.703125 73.484375 
Q 48.484375 72.75 52.59375 71.296875 
z
" id="DejaVuSans-54"/>
      </defs>
      <g transform="translate(41.5 245.719219)scale(0.1 -0.1)">
       <use transform="translate(0 0.765625)" xlink:href="#DejaVuSans-49"/>
       <use transform="translate(63.623047 0.765625)" xlink:href="#DejaVuSans-48"/>
       <use transform="translate(128.203125 39.046875)scale(0.7)" xlink:href="#DejaVuSans-8722"/>
       <use transform="translate(186.855469 39.046875)scale(0.7)" xlink:href="#DejaVuSans-54"/>
      </g>
     </g>
    </g>
    <g id="ytick_5">
     <g id="line2d_21">
      <path clip-path="url(#pd14744b95a)" d="M 72 194.4 
L 518.4 194.4 
" style="fill:none;stroke:#b0b0b0;stroke-linecap:square;stroke-width:0.8;"/>
     </g>
     <g id="line2d_22">
      <g>
       <use style="stroke:#000000;stroke-width:0.8;" x="72" xlink:href="#me3a4744cd4" y="194.4"/>
      </g>
     </g>
     <g id="text_12">
      <!-- $\mathdefault{10^{-4}}$ -->
      <g transform="translate(41.5 198.199219)scale(0.1 -0.1)">
       <use transform="translate(0 0.684375)" xlink:href="#DejaVuSans-49"/>
       <use transform="translate(63.623047 0.684375)" xlink:href="#DejaVuSans-48"/>
       <use transform="translate(128.203125 38.965625)scale(0.7)" xlink:href="#DejaVuSans-8722"/>
       <use transform="translate(186.855469 38.965625)scale(0.7)" xlink:href="#DejaVuSans-52"/>
      </g>
     </g>
    </g>
    <g id="ytick_6">
     <g id="line2d_23">
      <path clip-path="url(#pd14744b95a)" d="M 72 146.88 
L 518.4 146.88 
" style="fill:none;stroke:#b0b0b0;stroke-linecap:square;stroke-width:0.8;"/>
     </g>
     <g id="line2d_24">
      <g>
       <use style="stroke:#000000;stroke-width:0.8;" x="72" xlink:href="#me3a4744cd4" y="146.88"/>
      </g>
     </g>
     <g id="text_13">
      <!-- $\mathdefault{10^{-2}}$ -->
      <g transform="translate(41.5 150.679219)scale(0.1 -0.1)">
       <use transform="translate(0 0.765625)" xlink:href="#DejaVuSans-49"/>
       <use transform="translate(63.623047 0.765625)" xlink:href="#DejaVuSans-48"/>
       <use transform="translate(128.203125 39.046875)scale(0.7)" xlink:href="#DejaVuSans-8722"/>
       <use transform="translate(186.855469 39.046875)scale(0.7)" xlink:href="#DejaVuSans-50"/>
      </g>
     </g>
    </g>
    <g id="ytick_7">
     <g id="line2d_25">
      <path clip-path="url(#pd14744b95a)" d="M 72 99.36 
L 518.4 99.36 
" style="fill:none;stroke:#b0b0b0;stroke-linecap:square;stroke-width:0.8;"/>
     </g>
     <g id="line2d_26">
      <g>
       <use style="stroke:#000000;stroke-width:0.8;" x="72" xlink:href="#me3a4744cd4" y="99.36"/>
      </g>
     </g>
     <g id="text_14">
      <!-- $\mathdefault{10^{0}}$ -->
      <g transform="translate(47.4 103.159219)scale(0.1 -0.1)">
       <use transform="translate(0 0.765625)" xlink:href="#DejaVuSans-49"/>
       <use transform="translate(63.623047 0.765625)" xlink:href="#DejaVuSans-48"/>
       <use transform="translate(128.203125 39.046875)scale(0.7)" xlink:href="#DejaVuSans-48"/>
      </g>
     </g>
    </g>
    <g id="ytick_8">
     <g id="line2d_27">
      <path clip-path="url(#pd14744b95a)" d="M 72 51.84 
L 518.4 51.84 
" style="fill:none;stroke:#b0b0b0;stroke-linecap:square;stroke-width:0.8;"/>
     </g>
     <g id="line2d_28">
      <g>
       <use style="stroke:#000000;stroke-width:0.8;" x="72" xlink:href="#me3a4744cd4" y="51.84"/>
      </g>
     </g>
     <g id="text_15">
      <!-- $\mathdefault{10^{2}}$ -->
      <g transform="translate(47.4 55.639219)scale(0.1 -0.1)">
       <use transform="translate(0 0.765625)" xlink:href="#DejaVuSans-49"/>
       <use transform="translate(63.623047 0.765625)" xlink:href="#DejaVuSans-48"/>
       <use transform="translate(128.203125 39.046875)scale(0.7)" xlink:href="#DejaVuSans-50"/>
      </g>
     </g>
    </g>
    <g id="text_16">
     <!-- Integrated Squared Error -->
     <defs>
      <path d="M 45.40625 27.984375 
Q 45.40625 37.75 41.375 43.109375 
Q 37.359375 48.484375 30.078125 48.484375 
Q 22.859375 48.484375 18.828125 43.109375 
Q 14.796875 37.75 14.796875 27.984375 
Q 14.796875 18.265625 18.828125 12.890625 
Q 22.859375 7.515625 30.078125 7.515625 
Q 37.359375 7.515625 41.375 12.890625 
Q 45.40625 18.265625 45.40625 27.984375 
z
M 54.390625 6.78125 
Q 54.390625 -7.171875 48.1875 -13.984375 
Q 42 -20.796875 29.203125 -20.796875 
Q 24.46875 -20.796875 20.265625 -20.09375 
Q 16.0625 -19.390625 12.109375 -17.921875 
L 12.109375 -9.1875 
Q 16.0625 -11.328125 19.921875 -12.34375 
Q 23.78125 -13.375 27.78125 -13.375 
Q 36.625 -13.375 41.015625 -8.765625 
Q 45.40625 -4.15625 45.40625 5.171875 
L 45.40625 9.625 
Q 42.625 4.78125 38.28125 2.390625 
Q 33.9375 0 27.875 0 
Q 17.828125 0 11.671875 7.65625 
Q 5.515625 15.328125 5.515625 27.984375 
Q 5.515625 40.671875 11.671875 48.328125 
Q 17.828125 56 27.875 56 
Q 33.9375 56 38.28125 53.609375 
Q 42.625 51.21875 45.40625 46.390625 
L 45.40625 54.6875 
L 54.390625 54.6875 
z
" id="DejaVuSans-103"/>
      <path d="M 45.40625 46.390625 
L 45.40625 75.984375 
L 54.390625 75.984375 
L 54.390625 0 
L 45.40625 0 
L 45.40625 8.203125 
Q 42.578125 3.328125 38.25 0.953125 
Q 33.9375 -1.421875 27.875 -1.421875 
Q 17.96875 -1.421875 11.734375 6.484375 
Q 5.515625 14.40625 5.515625 27.296875 
Q 5.515625 40.1875 11.734375 48.09375 
Q 17.96875 56 27.875 56 
Q 33.9375 56 38.25 53.625 
Q 42.578125 51.265625 45.40625 46.390625 
z
M 14.796875 27.296875 
Q 14.796875 17.390625 18.875 11.75 
Q 22.953125 6.109375 30.078125 6.109375 
Q 37.203125 6.109375 41.296875 11.75 
Q 45.40625 17.390625 45.40625 27.296875 
Q 45.40625 37.203125 41.296875 42.84375 
Q 37.203125 48.484375 30.078125 48.484375 
Q 22.953125 48.484375 18.875 42.84375 
Q 14.796875 37.203125 14.796875 27.296875 
z
" id="DejaVuSans-100"/>
      <path id="DejaVuSans-32"/>
      <path d="M 53.515625 70.515625 
L 53.515625 60.890625 
Q 47.90625 63.578125 42.921875 64.890625 
Q 37.9375 66.21875 33.296875 66.21875 
Q 25.25 66.21875 20.875 63.09375 
Q 16.5 59.96875 16.5 54.203125 
Q 16.5 49.359375 19.40625 46.890625 
Q 22.3125 44.4375 30.421875 42.921875 
L 36.375 41.703125 
Q 47.40625 39.59375 52.65625 34.296875 
Q 57.90625 29 57.90625 20.125 
Q 57.90625 9.515625 50.796875 4.046875 
Q 43.703125 -1.421875 29.984375 -1.421875 
Q 24.8125 -1.421875 18.96875 -0.25 
Q 13.140625 0.921875 6.890625 3.21875 
L 6.890625 13.375 
Q 12.890625 10.015625 18.65625 8.296875 
Q 24.421875 6.59375 29.984375 6.59375 
Q 38.421875 6.59375 43.015625 9.90625 
Q 47.609375 13.234375 47.609375 19.390625 
Q 47.609375 24.75 44.3125 27.78125 
Q 41.015625 30.8125 33.5 32.328125 
L 27.484375 33.5 
Q 16.453125 35.6875 11.515625 40.375 
Q 6.59375 45.0625 6.59375 53.421875 
Q 6.59375 63.09375 13.40625 68.65625 
Q 20.21875 74.21875 32.171875 74.21875 
Q 37.3125 74.21875 42.625 73.28125 
Q 47.953125 72.359375 53.515625 70.515625 
z
" id="DejaVuSans-83"/>
      <path d="M 14.796875 27.296875 
Q 14.796875 17.390625 18.875 11.75 
Q 22.953125 6.109375 30.078125 6.109375 
Q 37.203125 6.109375 41.296875 11.75 
Q 45.40625 17.390625 45.40625 27.296875 
Q 45.40625 37.203125 41.296875 42.84375 
Q 37.203125 48.484375 30.078125 48.484375 
Q 22.953125 48.484375 18.875 42.84375 
Q 14.796875 37.203125 14.796875 27.296875 
z
M 45.40625 8.203125 
Q 42.578125 3.328125 38.25 0.953125 
Q 33.9375 -1.421875 27.875 -1.421875 
Q 17.96875 -1.421875 11.734375 6.484375 
Q 5.515625 14.40625 5.515625 27.296875 
Q 5.515625 40.1875 11.734375 48.09375 
Q 17.96875 56 27.875 56 
Q 33.9375 56 38.25 53.625 
Q 42.578125 51.265625 45.40625 46.390625 
L 45.40625 54.6875 
L 54.390625 54.6875 
L 54.390625 -20.796875 
L 45.40625 -20.796875 
z
" id="DejaVuSans-113"/>
      <path d="M 8.5 21.578125 
L 8.5 54.6875 
L 17.484375 54.6875 
L 17.484375 21.921875 
Q 17.484375 14.15625 20.5 10.265625 
Q 23.53125 6.390625 29.59375 6.390625 
Q 36.859375 6.390625 41.078125 11.03125 
Q 45.3125 15.671875 45.3125 23.6875 
L 45.3125 54.6875 
L 54.296875 54.6875 
L 54.296875 0 
L 45.3125 0 
L 45.3125 8.40625 
Q 42.046875 3.421875 37.71875 1 
Q 33.40625 -1.421875 27.6875 -1.421875 
Q 18.265625 -1.421875 13.375 4.4375 
Q 8.5 10.296875 8.5 21.578125 
z
M 31.109375 56 
z
" id="DejaVuSans-117"/>
      <path d="M 9.8125 72.90625 
L 55.90625 72.90625 
L 55.90625 64.59375 
L 19.671875 64.59375 
L 19.671875 43.015625 
L 54.390625 43.015625 
L 54.390625 34.71875 
L 19.671875 34.71875 
L 19.671875 8.296875 
L 56.78125 8.296875 
L 56.78125 0 
L 9.8125 0 
z
" id="DejaVuSans-69"/>
     </defs>
     <g transform="translate(31.020312 280.483437)rotate(-90)scale(0.1 -0.1)">
      <use xlink:href="#DejaVuSans-73"/>
      <use x="29.492188" xlink:href="#DejaVuSans-110"/>
      <use x="92.871094" xlink:href="#DejaVuSans-116"/>
      <use x="132.080078" xlink:href="#DejaVuSans-101"/>
      <use x="193.603516" xlink:href="#DejaVuSans-103"/>
      <use x="257.080078" xlink:href="#DejaVuSans-114"/>
      <use x="298.193359" xlink:href="#DejaVuSans-97"/>
      <use x="359.472656" xlink:href="#DejaVuSans-116"/>
      <use x="398.681641" xlink:href="#DejaVuSans-101"/>
      <use x="460.205078" xlink:href="#DejaVuSans-100"/>
      <use x="523.681641" xlink:href="#DejaVuSans-32"/>
      <use x="555.46875" xlink:href="#DejaVuSans-83"/>
      <use x="618.945312" xlink:href="#DejaVuSans-113"/>
      <use x="682.421875" xlink:href="#DejaVuSans-117"/>
      <use x="745.800781" xlink:href="#DejaVuSans-97"/>
      <use x="807.080078" xlink:href="#DejaVuSans-114"/>
      <use x="845.943359" xlink:href="#DejaVuSans-101"/>
      <use x="907.466797" xlink:href="#DejaVuSans-100"/>
      <use x="970.943359" xlink:href="#DejaVuSans-32"/>
      <use x="1002.730469" xlink:href="#DejaVuSans-69"/>
      <use x="1065.914062" xlink:href="#DejaVuSans-114"/>
      <use x="1105.277344" xlink:href="#DejaVuSans-114"/>
      <use x="1144.140625" xlink:href="#DejaVuSans-111"/>
      <use x="1205.322266" xlink:href="#DejaVuSans-114"/>
     </g>
    </g>
   </g>
   <g id="line2d_29">
    <path clip-path="url(#pd14744b95a)" d="M 72 98.396374 
L 80.928 98.464547 
L 89.856 98.40705 
L 98.784 98.492926 
L 107.712 98.483615 
L 116.64 98.572839 
L 125.568 97.663804 
L 134.496 98.367283 
L 143.424 97.792238 
L 152.352 98.331504 
L 161.28 97.786157 
L 170.208 96.976365 
L 179.136 98.291451 
L 188.064 98.711182 
L 196.992 98.416716 
L 205.92 97.789386 
L 214.848 98.786914 
L 223.776 98.118392 
L 232.704 98.705374 
L 241.632 98.186503 
L 250.56 97.424988 
L 259.488 98.952561 
L 268.416 98.219516 
L 277.344 98.136661 
L 286.272 98.218642 
L 295.2 98.671333 
L 304.128 99.062772 
L 313.056 99.086994 
L 321.984 95.622815 
L 330.912 95.474388 
L 339.84 96.304403 
L 348.768 98.278776 
L 357.696 97.441951 
L 366.624 95.848306 
L 375.552 98.125127 
L 384.48 95.352989 
L 393.408 93.890569 
L 402.336 97.080897 
L 411.264 97.798147 
L 420.192 97.007472 
L 429.12 95.869317 
L 438.048 95.146814 
L 446.976 96.284787 
L 455.904 97.557727 
L 464.832 89.863373 
L 473.76 97.288623 
L 482.688 96.105601 
L 491.616 97.327363 
L 500.544 94.717196 
L 509.472 98.5054 
L 518.4 94.7969 
" style="fill:none;stroke:#1f77b4;stroke-linecap:square;stroke-width:1.5;"/>
   </g>
   <g id="line2d_30">
    <path clip-path="url(#pd14744b95a)" d="M 72 101.85506 
L 80.928 102.267914 
L 89.856 102.639101 
L 98.784 102.099936 
L 107.712 100.963211 
L 116.64 99.995979 
L 125.568 99.73767 
L 134.496 99.3915 
L 143.424 99.391501 
L 152.352 99.391501 
L 161.28 99.391676 
L 170.208 99.392008 
L 179.136 99.392008 
L 188.064 99.392019 
L 196.992 99.392019 
L 205.92 99.392019 
L 214.848 99.39217 
L 223.776 99.39217 
L 232.704 99.39217 
L 241.632 99.39248 
L 250.56 99.392481 
L 259.488 99.392481 
L 268.416 99.392675 
L 277.344 99.392865 
L 286.272 99.392865 
L 295.2 99.392865 
L 304.128 99.393071 
L 313.056 99.393071 
L 321.984 99.393071 
L 330.912 99.393298 
L 339.84 99.393319 
L 348.768 99.393319 
L 357.696 99.393448 
L 366.624 99.393448 
L 375.552 99.393448 
L 384.48 99.393632 
L 393.408 99.393632 
L 402.336 99.393632 
L 411.264 99.393803 
L 420.192 99.393808 
L 429.12 99.393808 
L 438.048 99.39406 
L 446.976 99.394074 
L 455.904 99.732071 
L 464.832 99.725252 
L 473.76 99.753211 
L 482.688 99.749539 
L 491.616 99.74835 
L 500.544 99.750414 
L 509.472 99.748096 
L 518.4 99.573049 
" style="fill:none;stroke:#ff7f0e;stroke-linecap:square;stroke-width:1.5;"/>
   </g>
   <g id="line2d_31">
    <path clip-path="url(#pd14744b95a)" d="M 72 105.711114 
L 80.928 109.276724 
L 89.856 111.523308 
L 98.784 114.190671 
L 107.712 116.653571 
L 116.64 118.825642 
L 125.568 120.507238 
L 134.496 122.450878 
L 143.424 123.092732 
L 152.352 123.678665 
L 161.28 124.399719 
L 170.208 125.721946 
L 179.136 125.73686 
L 188.064 127.709393 
L 196.992 128.242523 
L 205.92 128.208308 
L 214.848 128.649996 
L 223.776 128.787635 
L 232.704 129.657069 
L 241.632 130.324488 
L 250.56 130.63216 
L 259.488 130.770472 
L 268.416 131.918284 
L 277.344 132.13173 
L 286.272 133.414188 
L 295.2 133.752551 
L 304.128 134.106658 
L 313.056 134.283955 
L 321.984 135.18581 
L 330.912 135.292892 
L 339.84 135.790465 
L 348.768 135.89037 
L 357.696 136.04993 
L 366.624 136.211959 
L 375.552 136.28116 
L 384.48 136.50706 
L 393.408 136.773713 
L 402.336 136.993707 
L 411.264 137.49278 
L 420.192 137.754463 
L 429.12 138.416635 
L 438.048 138.501787 
L 446.976 138.520964 
L 455.904 139.213225 
L 464.832 139.21969 
L 473.76 139.397826 
L 482.688 139.442215 
L 491.616 139.874408 
L 500.544 140.051199 
L 509.472 140.054644 
L 518.4 140.061509 
" style="fill:none;stroke:#2ca02c;stroke-linecap:square;stroke-width:1.5;"/>
   </g>
   <g id="line2d_32">
    <path clip-path="url(#pd14744b95a)" d="M 72 102.772157 
L 80.928 104.146986 
L 89.856 105.336374 
L 98.784 106.478551 
L 107.712 106.858933 
L 116.64 107.258785 
L 125.568 109.068223 
L 134.496 109.52948 
L 143.424 110.23619 
L 152.352 110.00326 
L 161.28 110.84066 
L 170.208 109.668124 
L 179.136 109.837066 
L 188.064 109.718325 
L 196.992 109.576551 
L 205.92 109.032056 
L 214.848 108.112786 
L 223.776 108.344581 
L 232.704 108.368438 
L 241.632 108.797202 
L 250.56 108.362521 
L 259.488 109.303587 
L 268.416 108.817092 
L 277.344 109.730499 
L 286.272 109.552972 
L 295.2 109.531574 
L 304.128 109.826676 
L 313.056 110.443289 
L 321.984 110.790213 
L 330.912 110.505606 
L 339.84 109.618999 
L 348.768 109.752469 
L 357.696 111.062464 
L 366.624 110.518742 
L 375.552 110.528159 
L 384.48 111.144752 
L 393.408 109.989926 
L 402.336 110.273959 
L 411.264 110.291965 
L 420.192 110.879675 
L 429.12 110.283375 
L 438.048 109.096709 
L 446.976 108.636472 
L 455.904 108.636284 
L 464.832 108.07867 
L 473.76 108.08104 
L 482.688 108.087601 
L 491.616 108.73944 
L 500.544 108.832839 
L 509.472 108.974016 
L 518.4 108.971173 
" style="fill:none;stroke:#d62728;stroke-linecap:square;stroke-width:1.5;"/>
   </g>
   <g id="line2d_33">
    <path clip-path="url(#pd14744b95a)" d="M 72 102.927787 
L 80.928 103.918771 
L 89.856 104.991806 
L 98.784 105.645839 
L 107.712 105.851688 
L 116.64 106.730618 
L 125.568 107.007794 
L 134.496 105.986568 
L 143.424 105.38501 
L 152.352 105.834994 
L 161.28 106.104666 
L 170.208 105.887104 
L 179.136 105.497246 
L 188.064 105.827886 
L 196.992 105.547167 
L 205.92 105.090535 
L 214.848 104.073223 
L 223.776 103.236601 
L 232.704 103.402854 
L 241.632 103.407517 
L 250.56 103.41907 
L 259.488 103.419558 
L 268.416 103.290954 
L 277.344 103.856159 
L 286.272 103.339468 
L 295.2 103.932737 
L 304.128 103.402382 
L 313.056 103.056601 
L 321.984 103.111822 
L 330.912 103.10789 
L 339.84 102.748079 
L 348.768 102.332963 
L 357.696 101.42924 
L 366.624 101.431943 
L 375.552 101.432359 
L 384.48 101.018072 
L 393.408 101.018061 
L 402.336 101.024432 
L 411.264 101.016522 
L 420.192 101.044443 
L 429.12 100.702374 
L 438.048 100.702592 
L 446.976 101.134488 
L 455.904 101.104972 
L 464.832 101.112719 
L 473.76 101.112683 
L 482.688 101.906501 
L 491.616 101.366556 
L 500.544 101.405215 
L 509.472 100.487348 
L 518.4 100.481306 
" style="fill:none;stroke:#9467bd;stroke-linecap:square;stroke-width:1.5;"/>
   </g>
   <g id="line2d_34">
    <path clip-path="url(#pd14744b95a)" d="M 72 102.642016 
L 80.928 104.55532 
L 89.856 107.152842 
L 98.784 109.322582 
L 107.712 111.551905 
L 116.64 112.713813 
L 125.568 115.856424 
L 134.496 116.841292 
L 143.424 118.77192 
L 152.352 119.887454 
L 161.28 121.198425 
L 170.208 122.319349 
L 179.136 122.561158 
L 188.064 123.548241 
L 196.992 124.152056 
L 205.92 124.941997 
L 214.848 125.074905 
L 223.776 126.166237 
L 232.704 126.870995 
L 241.632 127.896155 
L 250.56 127.921426 
L 259.488 128.415209 
L 268.416 128.927183 
L 277.344 129.016249 
L 286.272 129.552365 
L 295.2 129.861004 
L 304.128 130.035923 
L 313.056 129.452623 
L 321.984 129.894939 
L 330.912 129.956955 
L 339.84 130.303526 
L 348.768 130.158877 
L 357.696 130.972482 
L 366.624 132.012017 
L 375.552 131.777888 
L 384.48 131.959755 
L 393.408 132.114238 
L 402.336 132.126343 
L 411.264 132.499648 
L 420.192 132.31055 
L 429.12 132.533121 
L 438.048 132.559053 
L 446.976 132.85233 
L 455.904 133.59224 
L 464.832 133.948129 
L 473.76 134.237062 
L 482.688 134.629472 
L 491.616 134.820446 
L 500.544 135.02656 
L 509.472 135.054952 
L 518.4 135.076824 
" style="fill:none;stroke:#8c564b;stroke-linecap:square;stroke-width:1.5;"/>
   </g>
   <g id="line2d_35">
    <path clip-path="url(#pd14744b95a)" d="M 72 109.534234 
L 80.928 110.043059 
L 89.856 110.693686 
L 98.784 111.019581 
L 107.712 111.334827 
L 116.64 111.751859 
L 125.568 111.927166 
L 134.496 112.12285 
L 143.424 112.2613 
L 152.352 112.365328 
L 161.28 112.453787 
L 170.208 112.505401 
L 179.136 112.548718 
L 188.064 112.666748 
L 196.992 112.692516 
L 205.92 112.77816 
L 214.848 112.800002 
L 223.776 112.830575 
L 232.704 112.838939 
L 241.632 112.87969 
L 250.56 112.900033 
L 259.488 112.94661 
L 268.416 112.950703 
L 277.344 112.976509 
L 286.272 113.034734 
L 295.2 113.046856 
L 304.128 113.076401 
L 313.056 113.105961 
L 321.984 113.109558 
L 330.912 113.123607 
L 339.84 113.116933 
L 348.768 113.146106 
L 357.696 113.153674 
L 366.624 113.164275 
L 375.552 113.17078 
L 384.48 113.196609 
L 393.408 113.230632 
L 402.336 113.252532 
L 411.264 113.267361 
L 420.192 113.270991 
L 429.12 113.284011 
L 438.048 113.281284 
L 446.976 113.286405 
L 455.904 113.292357 
L 464.832 113.307436 
L 473.76 113.29917 
L 482.688 113.304524 
L 491.616 113.302031 
L 500.544 113.29682 
L 509.472 113.300869 
L 518.4 113.325119 
" style="fill:none;stroke:#e377c2;stroke-linecap:square;stroke-width:1.5;"/>
   </g>
   <g id="patch_3">
    <path d="M 72 384.48 
L 72 51.84 
" style="fill:none;stroke:#000000;stroke-linecap:square;stroke-linejoin:miter;stroke-width:0.8;"/>
   </g>
   <g id="patch_4">
    <path d="M 518.4 384.48 
L 518.4 51.84 
" style="fill:none;stroke:#000000;stroke-linecap:square;stroke-linejoin:miter;stroke-width:0.8;"/>
   </g>
   <g id="patch_5">
    <path d="M 72 384.48 
L 518.4 384.48 
" style="fill:none;stroke:#000000;stroke-linecap:square;stroke-linejoin:miter;stroke-width:0.8;"/>
   </g>
   <g id="patch_6">
    <path d="M 72 51.84 
L 518.4 51.84 
" style="fill:none;stroke:#000000;stroke-linecap:square;stroke-linejoin:miter;stroke-width:0.8;"/>
   </g>
   <g id="legend_1">
    <g id="patch_7">
     <path d="M 79 379.48 
L 165.804688 379.48 
Q 167.804688 379.48 167.804688 377.48 
L 167.804688 275.733125 
Q 167.804688 273.733125 165.804688 273.733125 
L 79 273.733125 
Q 77 273.733125 77 275.733125 
L 77 377.48 
Q 77 379.48 79 379.48 
z
" style="fill:#ffffff;opacity:0.8;stroke:#cccccc;stroke-linejoin:miter;"/>
    </g>
    <g id="line2d_36">
     <path d="M 81 281.831563 
L 101 281.831563 
" style="fill:none;stroke:#1f77b4;stroke-linecap:square;stroke-width:1.5;"/>
    </g>
    <g id="line2d_37"/>
    <g id="text_17">
     <!-- Constant -->
     <defs>
      <path d="M 64.40625 67.28125 
L 64.40625 56.890625 
Q 59.421875 61.53125 53.78125 63.8125 
Q 48.140625 66.109375 41.796875 66.109375 
Q 29.296875 66.109375 22.65625 58.46875 
Q 16.015625 50.828125 16.015625 36.375 
Q 16.015625 21.96875 22.65625 14.328125 
Q 29.296875 6.6875 41.796875 6.6875 
Q 48.140625 6.6875 53.78125 8.984375 
Q 59.421875 11.28125 64.40625 15.921875 
L 64.40625 5.609375 
Q 59.234375 2.09375 53.4375 0.328125 
Q 47.65625 -1.421875 41.21875 -1.421875 
Q 24.65625 -1.421875 15.125 8.703125 
Q 5.609375 18.84375 5.609375 36.375 
Q 5.609375 53.953125 15.125 64.078125 
Q 24.65625 74.21875 41.21875 74.21875 
Q 47.75 74.21875 53.53125 72.484375 
Q 59.328125 70.75 64.40625 67.28125 
z
" id="DejaVuSans-67"/>
      <path d="M 44.28125 53.078125 
L 44.28125 44.578125 
Q 40.484375 46.53125 36.375 47.5 
Q 32.28125 48.484375 27.875 48.484375 
Q 21.1875 48.484375 17.84375 46.4375 
Q 14.5 44.390625 14.5 40.28125 
Q 14.5 37.15625 16.890625 35.375 
Q 19.28125 33.59375 26.515625 31.984375 
L 29.59375 31.296875 
Q 39.15625 29.25 43.1875 25.515625 
Q 47.21875 21.78125 47.21875 15.09375 
Q 47.21875 7.46875 41.1875 3.015625 
Q 35.15625 -1.421875 24.609375 -1.421875 
Q 20.21875 -1.421875 15.453125 -0.5625 
Q 10.6875 0.296875 5.421875 2 
L 5.421875 11.28125 
Q 10.40625 8.6875 15.234375 7.390625 
Q 20.0625 6.109375 24.8125 6.109375 
Q 31.15625 6.109375 34.5625 8.28125 
Q 37.984375 10.453125 37.984375 14.40625 
Q 37.984375 18.0625 35.515625 20.015625 
Q 33.0625 21.96875 24.703125 23.78125 
L 21.578125 24.515625 
Q 13.234375 26.265625 9.515625 29.90625 
Q 5.8125 33.546875 5.8125 39.890625 
Q 5.8125 47.609375 11.28125 51.796875 
Q 16.75 56 26.8125 56 
Q 31.78125 56 36.171875 55.265625 
Q 40.578125 54.546875 44.28125 53.078125 
z
" id="DejaVuSans-115"/>
     </defs>
     <g transform="translate(109 285.331563)scale(0.1 -0.1)">
      <use xlink:href="#DejaVuSans-67"/>
      <use x="69.824219" xlink:href="#DejaVuSans-111"/>
      <use x="131.005859" xlink:href="#DejaVuSans-110"/>
      <use x="194.384766" xlink:href="#DejaVuSans-115"/>
      <use x="246.484375" xlink:href="#DejaVuSans-116"/>
      <use x="285.693359" xlink:href="#DejaVuSans-97"/>
      <use x="346.972656" xlink:href="#DejaVuSans-110"/>
      <use x="410.351562" xlink:href="#DejaVuSans-116"/>
     </g>
    </g>
    <g id="line2d_38">
     <path d="M 81 296.509688 
L 101 296.509688 
" style="fill:none;stroke:#ff7f0e;stroke-linecap:square;stroke-width:1.5;"/>
    </g>
    <g id="line2d_39"/>
    <g id="text_18">
     <!-- RBF -->
     <defs>
      <path d="M 44.390625 34.1875 
Q 47.5625 33.109375 50.5625 29.59375 
Q 53.5625 26.078125 56.59375 19.921875 
L 66.609375 0 
L 56 0 
L 46.6875 18.703125 
Q 43.0625 26.03125 39.671875 28.421875 
Q 36.28125 30.8125 30.421875 30.8125 
L 19.671875 30.8125 
L 19.671875 0 
L 9.8125 0 
L 9.8125 72.90625 
L 32.078125 72.90625 
Q 44.578125 72.90625 50.734375 67.671875 
Q 56.890625 62.453125 56.890625 51.90625 
Q 56.890625 45.015625 53.6875 40.46875 
Q 50.484375 35.9375 44.390625 34.1875 
z
M 19.671875 64.796875 
L 19.671875 38.921875 
L 32.078125 38.921875 
Q 39.203125 38.921875 42.84375 42.21875 
Q 46.484375 45.515625 46.484375 51.90625 
Q 46.484375 58.296875 42.84375 61.546875 
Q 39.203125 64.796875 32.078125 64.796875 
z
" id="DejaVuSans-82"/>
      <path d="M 19.671875 34.8125 
L 19.671875 8.109375 
L 35.5 8.109375 
Q 43.453125 8.109375 47.28125 11.40625 
Q 51.125 14.703125 51.125 21.484375 
Q 51.125 28.328125 47.28125 31.5625 
Q 43.453125 34.8125 35.5 34.8125 
z
M 19.671875 64.796875 
L 19.671875 42.828125 
L 34.28125 42.828125 
Q 41.5 42.828125 45.03125 45.53125 
Q 48.578125 48.25 48.578125 53.8125 
Q 48.578125 59.328125 45.03125 62.0625 
Q 41.5 64.796875 34.28125 64.796875 
z
M 9.8125 72.90625 
L 35.015625 72.90625 
Q 46.296875 72.90625 52.390625 68.21875 
Q 58.5 63.53125 58.5 54.890625 
Q 58.5 48.1875 55.375 44.234375 
Q 52.25 40.28125 46.1875 39.3125 
Q 53.46875 37.75 57.5 32.78125 
Q 61.53125 27.828125 61.53125 20.40625 
Q 61.53125 10.640625 54.890625 5.3125 
Q 48.25 0 35.984375 0 
L 9.8125 0 
z
" id="DejaVuSans-66"/>
      <path d="M 9.8125 72.90625 
L 51.703125 72.90625 
L 51.703125 64.59375 
L 19.671875 64.59375 
L 19.671875 43.109375 
L 48.578125 43.109375 
L 48.578125 34.8125 
L 19.671875 34.8125 
L 19.671875 0 
L 9.8125 0 
z
" id="DejaVuSans-70"/>
     </defs>
     <g transform="translate(109 300.009688)scale(0.1 -0.1)">
      <use xlink:href="#DejaVuSans-82"/>
      <use x="69.482422" xlink:href="#DejaVuSans-66"/>
      <use x="138.085938" xlink:href="#DejaVuSans-70"/>
     </g>
    </g>
    <g id="line2d_40">
     <path d="M 81 311.187813 
L 101 311.187813 
" style="fill:none;stroke:#2ca02c;stroke-linecap:square;stroke-width:1.5;"/>
    </g>
    <g id="line2d_41"/>
    <g id="text_19">
     <!-- Matrn-1/2 -->
     <defs>
      <path d="M 9.8125 72.90625 
L 24.515625 72.90625 
L 43.109375 23.296875 
L 61.8125 72.90625 
L 76.515625 72.90625 
L 76.515625 0 
L 66.890625 0 
L 66.890625 64.015625 
L 48.09375 14.015625 
L 38.1875 14.015625 
L 19.390625 64.015625 
L 19.390625 0 
L 9.8125 0 
z
" id="DejaVuSans-77"/>
      <path d="M 56.203125 29.59375 
L 56.203125 25.203125 
L 14.890625 25.203125 
Q 15.484375 15.921875 20.484375 11.0625 
Q 25.484375 6.203125 34.421875 6.203125 
Q 39.59375 6.203125 44.453125 7.46875 
Q 49.3125 8.734375 54.109375 11.28125 
L 54.109375 2.78125 
Q 49.265625 0.734375 44.1875 -0.34375 
Q 39.109375 -1.421875 33.890625 -1.421875 
Q 20.796875 -1.421875 13.15625 6.1875 
Q 5.515625 13.8125 5.515625 26.8125 
Q 5.515625 40.234375 12.765625 48.109375 
Q 20.015625 56 32.328125 56 
Q 43.359375 56 49.78125 48.890625 
Q 56.203125 41.796875 56.203125 29.59375 
z
M 47.21875 32.234375 
Q 47.125 39.59375 43.09375 43.984375 
Q 39.0625 48.390625 32.421875 48.390625 
Q 24.90625 48.390625 20.390625 44.140625 
Q 15.875 39.890625 15.1875 32.171875 
z
M 38.53125 79.984375 
L 48.25 79.984375 
L 32.34375 61.625 
L 24.859375 61.625 
z
" id="DejaVuSans-233"/>
      <path d="M 4.890625 31.390625 
L 31.203125 31.390625 
L 31.203125 23.390625 
L 4.890625 23.390625 
z
" id="DejaVuSans-45"/>
      <path d="M 25.390625 72.90625 
L 33.6875 72.90625 
L 8.296875 -9.28125 
L 0 -9.28125 
z
" id="DejaVuSans-47"/>
     </defs>
     <g transform="translate(109 314.687813)scale(0.1 -0.1)">
      <use xlink:href="#DejaVuSans-77"/>
      <use x="86.279297" xlink:href="#DejaVuSans-97"/>
      <use x="147.558594" xlink:href="#DejaVuSans-116"/>
      <use x="186.767578" xlink:href="#DejaVuSans-233"/>
      <use x="248.291016" xlink:href="#DejaVuSans-114"/>
      <use x="287.654297" xlink:href="#DejaVuSans-110"/>
      <use x="351.033203" xlink:href="#DejaVuSans-45"/>
      <use x="387.117188" xlink:href="#DejaVuSans-49"/>
      <use x="450.740234" xlink:href="#DejaVuSans-47"/>
      <use x="484.431641" xlink:href="#DejaVuSans-50"/>
     </g>
    </g>
    <g id="line2d_42">
     <path d="M 81 325.865938 
L 101 325.865938 
" style="fill:none;stroke:#d62728;stroke-linecap:square;stroke-width:1.5;"/>
    </g>
    <g id="line2d_43"/>
    <g id="text_20">
     <!-- Matrn-3/2 -->
     <g transform="translate(109 329.365938)scale(0.1 -0.1)">
      <use xlink:href="#DejaVuSans-77"/>
      <use x="86.279297" xlink:href="#DejaVuSans-97"/>
      <use x="147.558594" xlink:href="#DejaVuSans-116"/>
      <use x="186.767578" xlink:href="#DejaVuSans-233"/>
      <use x="248.291016" xlink:href="#DejaVuSans-114"/>
      <use x="287.654297" xlink:href="#DejaVuSans-110"/>
      <use x="351.033203" xlink:href="#DejaVuSans-45"/>
      <use x="387.117188" xlink:href="#DejaVuSans-51"/>
      <use x="450.740234" xlink:href="#DejaVuSans-47"/>
      <use x="484.431641" xlink:href="#DejaVuSans-50"/>
     </g>
    </g>
    <g id="line2d_44">
     <path d="M 81 340.544062 
L 101 340.544062 
" style="fill:none;stroke:#9467bd;stroke-linecap:square;stroke-width:1.5;"/>
    </g>
    <g id="line2d_45"/>
    <g id="text_21">
     <!-- Matrn-5/2 -->
     <g transform="translate(109 344.044062)scale(0.1 -0.1)">
      <use xlink:href="#DejaVuSans-77"/>
      <use x="86.279297" xlink:href="#DejaVuSans-97"/>
      <use x="147.558594" xlink:href="#DejaVuSans-116"/>
      <use x="186.767578" xlink:href="#DejaVuSans-233"/>
      <use x="248.291016" xlink:href="#DejaVuSans-114"/>
      <use x="287.654297" xlink:href="#DejaVuSans-110"/>
      <use x="351.033203" xlink:href="#DejaVuSans-45"/>
      <use x="387.117188" xlink:href="#DejaVuSans-53"/>
      <use x="450.740234" xlink:href="#DejaVuSans-47"/>
      <use x="484.431641" xlink:href="#DejaVuSans-50"/>
     </g>
    </g>
    <g id="line2d_46">
     <path d="M 81 355.222188 
L 101 355.222188 
" style="fill:none;stroke:#8c564b;stroke-linecap:square;stroke-width:1.5;"/>
    </g>
    <g id="line2d_47"/>
    <g id="text_22">
     <!-- RQ -->
     <defs>
      <path d="M 39.40625 66.21875 
Q 28.65625 66.21875 22.328125 58.203125 
Q 16.015625 50.203125 16.015625 36.375 
Q 16.015625 22.609375 22.328125 14.59375 
Q 28.65625 6.59375 39.40625 6.59375 
Q 50.140625 6.59375 56.421875 14.59375 
Q 62.703125 22.609375 62.703125 36.375 
Q 62.703125 50.203125 56.421875 58.203125 
Q 50.140625 66.21875 39.40625 66.21875 
z
M 53.21875 1.3125 
L 66.21875 -12.890625 
L 54.296875 -12.890625 
L 43.5 -1.21875 
Q 41.890625 -1.3125 41.03125 -1.359375 
Q 40.1875 -1.421875 39.40625 -1.421875 
Q 24.03125 -1.421875 14.8125 8.859375 
Q 5.609375 19.140625 5.609375 36.375 
Q 5.609375 53.65625 14.8125 63.9375 
Q 24.03125 74.21875 39.40625 74.21875 
Q 54.734375 74.21875 63.90625 63.9375 
Q 73.09375 53.65625 73.09375 36.375 
Q 73.09375 23.6875 67.984375 14.640625 
Q 62.890625 5.609375 53.21875 1.3125 
z
" id="DejaVuSans-81"/>
     </defs>
     <g transform="translate(109 358.722188)scale(0.1 -0.1)">
      <use xlink:href="#DejaVuSans-82"/>
      <use x="69.482422" xlink:href="#DejaVuSans-81"/>
     </g>
    </g>
    <g id="line2d_48">
     <path d="M 81 369.900313 
L 101 369.900313 
" style="fill:none;stroke:#e377c2;stroke-linecap:square;stroke-width:1.5;"/>
    </g>
    <g id="line2d_49"/>
    <g id="text_23">
     <!-- Dot Prod. -->
     <defs>
      <path d="M 19.671875 64.796875 
L 19.671875 8.109375 
L 31.59375 8.109375 
Q 46.6875 8.109375 53.6875 14.9375 
Q 60.6875 21.78125 60.6875 36.53125 
Q 60.6875 51.171875 53.6875 57.984375 
Q 46.6875 64.796875 31.59375 64.796875 
z
M 9.8125 72.90625 
L 30.078125 72.90625 
Q 51.265625 72.90625 61.171875 64.09375 
Q 71.09375 55.28125 71.09375 36.53125 
Q 71.09375 17.671875 61.125 8.828125 
Q 51.171875 0 30.078125 0 
L 9.8125 0 
z
" id="DejaVuSans-68"/>
      <path d="M 19.671875 64.796875 
L 19.671875 37.40625 
L 32.078125 37.40625 
Q 38.96875 37.40625 42.71875 40.96875 
Q 46.484375 44.53125 46.484375 51.125 
Q 46.484375 57.671875 42.71875 61.234375 
Q 38.96875 64.796875 32.078125 64.796875 
z
M 9.8125 72.90625 
L 32.078125 72.90625 
Q 44.34375 72.90625 50.609375 67.359375 
Q 56.890625 61.8125 56.890625 51.125 
Q 56.890625 40.328125 50.609375 34.8125 
Q 44.34375 29.296875 32.078125 29.296875 
L 19.671875 29.296875 
L 19.671875 0 
L 9.8125 0 
z
" id="DejaVuSans-80"/>
      <path d="M 10.6875 12.40625 
L 21 12.40625 
L 21 0 
L 10.6875 0 
z
" id="DejaVuSans-46"/>
     </defs>
     <g transform="translate(109 373.400313)scale(0.1 -0.1)">
      <use xlink:href="#DejaVuSans-68"/>
      <use x="77.001953" xlink:href="#DejaVuSans-111"/>
      <use x="138.183594" xlink:href="#DejaVuSans-116"/>
      <use x="177.392578" xlink:href="#DejaVuSans-32"/>
      <use x="209.179688" xlink:href="#DejaVuSans-80"/>
      <use x="267.732422" xlink:href="#DejaVuSans-114"/>
      <use x="306.595703" xlink:href="#DejaVuSans-111"/>
      <use x="367.777344" xlink:href="#DejaVuSans-100"/>
      <use x="431.253906" xlink:href="#DejaVuSans-46"/>
     </g>
    </g>
   </g>
  </g>
 </g>
 <defs>
  <clipPath id="pd14744b95a">
   <rect height="332.64" width="446.4" x="72" y="51.84"/>
  </clipPath>
 </defs>
</svg>
