<?xml version="1.0" encoding="utf-8" standalone="no"?>
<!DOCTYPE svg PUBLIC "-//W3C//DTD SVG 1.1//EN"
  "http://www.w3.org/Graphics/SVG/1.1/DTD/svg11.dtd">
<!-- Created with matplotlib (https://matplotlib.org/) -->
<svg height="432pt" version="1.1" viewBox="0 0 576 432" width="576pt" xmlns="http://www.w3.org/2000/svg" xmlns:xlink="http://www.w3.org/1999/xlink">
 <defs>
  <style type="text/css">
*{stroke-linecap:butt;stroke-linejoin:round;}
  </style>
 </defs>
 <g id="figure_1">
  <g id="patch_1">
   <path d="M 0 432 
L 576 432 
L 576 0 
L 0 0 
z
" style="fill:#ffffff;"/>
  </g>
  <g id="axes_1">
   <g id="patch_2">
    <path d="M 72 384.48 
L 518.4 384.48 
L 518.4 51.84 
L 72 51.84 
z
" style="fill:#ffffff;"/>
   </g>
   <g id="PolyCollection_1">
    <path clip-path="url(#pcab4e43a17)" d="M 80.928 271.07383 
L 80.928 90.219776 
L 80.928 271.07383 
L 80.928 271.07383 
z
" style="fill:#1f77b4;fill-opacity:0.3;"/>
    <path clip-path="url(#pcab4e43a17)" d="M 179.136 184.148283 
L 179.136 -55.262455 
L 179.136 184.148283 
L 179.136 184.148283 
z
" style="fill:#1f77b4;fill-opacity:0.3;"/>
    <path clip-path="url(#pcab4e43a17)" d="M 196.992 9.733882 
L 196.992 -49.055076 
L 196.992 9.733882 
L 196.992 9.733882 
z
" style="fill:#1f77b4;fill-opacity:0.3;"/>
    <path clip-path="url(#pcab4e43a17)" d="M 259.488 359.458788 
L 259.488 350.502992 
L 268.416 -75.88386 
L 277.344 75.459266 
L 286.272 95.282317 
L 295.2 -16.866151 
L 304.128 354.869865 
L 304.128 361.661349 
L 304.128 361.661349 
L 295.2 379.10563 
L 286.272 430.272069 
L 277.344 428.62763 
L 268.416 294.551085 
L 259.488 359.458788 
z
" style="fill:#1f77b4;fill-opacity:0.3;"/>
    <path clip-path="url(#pcab4e43a17)" d="M 321.984 270.852534 
L 321.984 -109.816583 
L 321.984 270.852534 
L 321.984 270.852534 
z
" style="fill:#1f77b4;fill-opacity:0.3;"/>
    <path clip-path="url(#pcab4e43a17)" d="M 339.84 -10.578644 
L 339.84 -42.156069 
L 348.768 265.665288 
L 348.768 423.94295 
L 348.768 423.94295 
L 339.84 -10.578644 
z
" style="fill:#1f77b4;fill-opacity:0.3;"/>
    <path clip-path="url(#pcab4e43a17)" d="M 411.264 443.784965 
L 411.264 166.838674 
L 411.264 443.784965 
L 411.264 443.784965 
z
" style="fill:#1f77b4;fill-opacity:0.3;"/>
    <path clip-path="url(#pcab4e43a17)" d="M 429.12 296.734314 
L 429.12 -93.08339 
L 438.048 -124.26608 
L 446.976 -18.170975 
L 446.976 384.541174 
L 446.976 384.541174 
L 438.048 215.407193 
L 429.12 296.734314 
z
" style="fill:#1f77b4;fill-opacity:0.3;"/>
   </g>
   <g id="PolyCollection_2">
    <path clip-path="url(#pcab4e43a17)" d="M 72 157.412074 
L 72 108.896471 
L 80.928 98.079476 
L 89.856 90.577706 
L 98.784 81.335946 
L 107.712 71.54753 
L 116.64 68.19645 
L 125.568 68.920613 
L 134.496 85.084763 
L 143.424 85.084763 
L 152.352 85.084763 
L 161.28 85.084788 
L 170.208 85.08473 
L 179.136 85.08473 
L 188.064 85.08473 
L 196.992 85.08473 
L 205.92 85.08473 
L 214.848 85.084761 
L 223.776 85.084761 
L 232.704 85.084761 
L 241.632 85.084713 
L 250.56 85.084713 
L 259.488 85.084713 
L 268.416 85.084656 
L 277.344 85.084684 
L 286.272 85.084684 
L 295.2 85.084684 
L 304.128 85.084559 
L 313.056 85.084559 
L 321.984 85.084559 
L 330.912 85.08461 
L 339.84 85.084611 
L 348.768 85.084611 
L 357.696 85.084629 
L 366.624 85.084629 
L 375.552 85.084629 
L 384.48 85.084674 
L 393.408 85.084674 
L 402.336 85.084674 
L 411.264 85.084731 
L 420.192 85.084731 
L 429.12 85.084731 
L 438.048 85.084071 
L 446.976 85.084071 
L 455.904 79.615405 
L 464.832 79.57323 
L 473.76 78.533101 
L 482.688 78.479244 
L 491.616 78.461973 
L 500.544 78.253002 
L 509.472 78.210687 
L 518.4 83.408423 
L 518.4 87.326915 
L 518.4 87.326915 
L 509.472 94.257231 
L 500.544 94.2006 
L 491.616 93.921802 
L 482.688 93.898774 
L 473.76 93.826965 
L 464.832 92.440004 
L 455.904 92.383769 
L 446.976 85.091029 
L 438.048 85.091029 
L 429.12 85.089975 
L 420.192 85.089975 
L 411.264 85.089975 
L 402.336 85.089896 
L 393.408 85.089896 
L 384.48 85.089896 
L 375.552 85.089863 
L 366.624 85.089863 
L 357.696 85.089863 
L 348.768 85.089855 
L 339.84 85.089855 
L 330.912 85.089855 
L 321.984 85.089824 
L 313.056 85.089824 
L 304.128 85.089824 
L 295.2 85.089295 
L 286.272 85.089295 
L 277.344 85.089295 
L 268.416 85.089117 
L 259.488 85.088829 
L 250.56 85.088829 
L 241.632 85.088829 
L 232.704 85.088456 
L 223.776 85.088456 
L 214.848 85.088456 
L 205.92 85.088392 
L 196.992 85.088392 
L 188.064 85.088392 
L 179.136 85.088392 
L 170.208 85.088392 
L 161.28 85.088004 
L 152.352 85.08798 
L 143.424 85.08798 
L 134.496 85.08798 
L 125.568 114.698131 
L 116.64 124.351783 
L 107.712 142.74762 
L 98.784 152.848616 
L 89.856 158.436051 
L 80.928 159.63022 
L 72 157.412074 
z
" style="fill:#ff7f0e;fill-opacity:0.3;"/>
   </g>
   <g id="PolyCollection_3">
    <path clip-path="url(#pcab4e43a17)" d="M 72 118.859415 
L 72 95.31077 
L 80.928 98.41318 
L 89.856 99.510347 
L 98.784 102.366817 
L 107.712 100.209111 
L 116.64 100.025371 
L 125.568 101.200217 
L 134.496 101.775753 
L 143.424 102.772221 
L 152.352 103.372315 
L 161.28 104.508408 
L 170.208 105.921635 
L 179.136 104.847393 
L 188.064 107.20296 
L 196.992 107.79972 
L 205.92 106.212637 
L 214.848 107.067668 
L 223.776 107.948534 
L 232.704 108.434974 
L 241.632 106.723723 
L 250.56 106.548849 
L 259.488 107.285943 
L 268.416 108.575095 
L 277.344 109.29415 
L 286.272 110.420198 
L 295.2 110.823224 
L 304.128 111.408445 
L 313.056 111.978439 
L 321.984 112.303668 
L 330.912 112.969232 
L 339.84 113.375986 
L 348.768 113.919457 
L 357.696 114.338676 
L 366.624 111.91134 
L 375.552 112.302061 
L 384.48 112.61822 
L 393.408 113.049715 
L 402.336 113.447956 
L 411.264 113.402883 
L 420.192 113.537165 
L 429.12 113.520557 
L 438.048 113.812774 
L 446.976 114.188707 
L 455.904 114.146923 
L 464.832 114.499631 
L 473.76 114.779148 
L 482.688 115.099232 
L 491.616 115.257191 
L 500.544 115.613898 
L 509.472 115.992477 
L 518.4 116.253076 
L 518.4 146.101301 
L 518.4 146.101301 
L 509.472 145.670605 
L 500.544 145.217304 
L 491.616 145.125383 
L 482.688 145.128253 
L 473.76 144.753173 
L 464.832 144.511258 
L 455.904 144.060412 
L 446.976 144.383402 
L 438.048 143.958548 
L 429.12 143.601944 
L 420.192 143.625846 
L 411.264 143.413864 
L 402.336 143.38611 
L 393.408 142.947402 
L 384.48 142.701095 
L 375.552 142.421067 
L 366.624 141.91139 
L 357.696 141.830807 
L 348.768 141.298862 
L 339.84 140.496348 
L 330.912 140.322858 
L 321.984 139.501199 
L 313.056 139.869767 
L 304.128 139.239759 
L 295.2 138.844652 
L 286.272 138.27552 
L 277.344 138.470621 
L 268.416 137.715679 
L 259.488 137.481134 
L 250.56 136.603094 
L 241.632 135.805205 
L 232.704 136.191601 
L 223.776 136.170907 
L 214.848 135.153682 
L 205.92 134.632637 
L 196.992 133.582039 
L 188.064 132.774541 
L 179.136 132.043318 
L 170.208 130.90192 
L 161.28 129.972644 
L 152.352 129.442155 
L 143.424 128.025885 
L 134.496 126.734145 
L 125.568 126.683524 
L 116.64 125.9846 
L 107.712 125.716038 
L 98.784 125.56948 
L 89.856 123.880681 
L 80.928 121.877779 
L 72 118.859415 
z
" style="fill:#2ca02c;fill-opacity:0.3;"/>
   </g>
   <g id="PolyCollection_4">
    <path clip-path="url(#pcab4e43a17)" d="M 72 138.089756 
L 72 97.060792 
L 80.928 99.521985 
L 89.856 94.722643 
L 98.784 90.35223 
L 107.712 88.487338 
L 116.64 88.84657 
L 125.568 89.60501 
L 134.496 88.580093 
L 143.424 88.650163 
L 152.352 86.066513 
L 161.28 86.834938 
L 170.208 84.212254 
L 179.136 84.305501 
L 188.064 83.065674 
L 196.992 82.544523 
L 205.92 81.127726 
L 214.848 79.35936 
L 223.776 78.736932 
L 232.704 78.717232 
L 241.632 79.164332 
L 250.56 78.223494 
L 259.488 79.694324 
L 268.416 78.92542 
L 277.344 79.861653 
L 286.272 79.082801 
L 295.2 79.100903 
L 304.128 79.077305 
L 313.056 79.893951 
L 321.984 79.860474 
L 330.912 78.829696 
L 339.84 77.287515 
L 348.768 77.374757 
L 357.696 79.127319 
L 366.624 78.131794 
L 375.552 78.060816 
L 384.48 78.88466 
L 393.408 76.961586 
L 402.336 77.180653 
L 411.264 77.073121 
L 420.192 77.886932 
L 429.12 76.963036 
L 438.048 75.270747 
L 446.976 74.521288 
L 455.904 74.423526 
L 464.832 73.682192 
L 473.76 73.611495 
L 482.688 73.512449 
L 491.616 74.175888 
L 500.544 74.034117 
L 509.472 74.148165 
L 518.4 74.056185 
L 518.4 136.362587 
L 518.4 136.362587 
L 509.472 135.886472 
L 500.544 136.391389 
L 491.616 135.825771 
L 482.688 133.655107 
L 473.76 133.225338 
L 464.832 132.877834 
L 455.904 134.606875 
L 446.976 134.171882 
L 438.048 135.478836 
L 429.12 138.530174 
L 420.192 138.701288 
L 411.264 137.027558 
L 402.336 136.396165 
L 393.408 137.884262 
L 384.48 139.624913 
L 375.552 138.135944 
L 366.624 137.51714 
L 357.696 137.873591 
L 348.768 135.393023 
L 339.84 135.564339 
L 330.912 138.534543 
L 321.984 138.728222 
L 313.056 138.35797 
L 304.128 136.085296 
L 295.2 135.963271 
L 286.272 135.207022 
L 277.344 136.395656 
L 268.416 134.119552 
L 259.488 134.081695 
L 250.56 132.004212 
L 241.632 132.020625 
L 232.704 133.576644 
L 223.776 133.169702 
L 214.848 136.790046 
L 205.92 138.022797 
L 196.992 139.542242 
L 188.064 138.051702 
L 179.136 138.095283 
L 170.208 136.563466 
L 161.28 137.507102 
L 152.352 136.271366 
L 143.424 140.110078 
L 134.496 139.91549 
L 125.568 141.488337 
L 116.64 141.16961 
L 107.712 138.589172 
L 98.784 138.517093 
L 89.856 141.203545 
L 80.928 142.051316 
L 72 138.089756 
z
" style="fill:#d62728;fill-opacity:0.3;"/>
   </g>
   <g id="PolyCollection_5">
    <path clip-path="url(#pcab4e43a17)" d="M 72 144.551946 
L 72 104.020934 
L 80.928 94.130558 
L 89.856 91.555263 
L 98.784 91.662327 
L 107.712 87.119553 
L 116.64 87.605953 
L 125.568 87.084066 
L 134.496 82.863734 
L 143.424 80.129233 
L 152.352 79.994918 
L 161.28 80.289028 
L 170.208 79.125841 
L 179.136 78.58294 
L 188.064 78.862351 
L 196.992 76.8504 
L 205.92 75.285989 
L 214.848 73.241655 
L 223.776 71.541405 
L 232.704 72.156924 
L 241.632 71.941384 
L 250.56 71.127526 
L 259.488 70.676906 
L 268.416 69.88754 
L 277.344 70.333694 
L 286.272 69.584206 
L 295.2 69.756407 
L 304.128 68.989701 
L 313.056 68.651739 
L 321.984 68.886022 
L 330.912 68.564219 
L 339.84 67.579168 
L 348.768 67.61928 
L 357.696 67.3235 
L 366.624 67.160452 
L 375.552 66.603998 
L 384.48 66.891357 
L 393.408 66.73959 
L 402.336 66.687376 
L 411.264 66.52357 
L 420.192 66.501415 
L 429.12 67.566855 
L 438.048 67.497027 
L 446.976 67.092114 
L 455.904 67.121198 
L 464.832 67.054674 
L 473.76 66.94073 
L 482.688 67.210876 
L 491.616 68.435689 
L 500.544 68.339473 
L 509.472 72.261065 
L 518.4 72.269557 
L 518.4 103.839759 
L 518.4 103.839759 
L 509.472 103.880355 
L 500.544 114.935288 
L 491.616 114.537949 
L 482.688 119.58391 
L 473.76 118.219714 
L 464.832 118.010201 
L 455.904 117.872023 
L 446.976 117.939992 
L 438.048 114.563753 
L 429.12 114.445266 
L 420.192 119.181051 
L 411.264 119.13631 
L 402.336 118.83725 
L 393.408 118.73998 
L 384.48 118.450687 
L 375.552 121.95 
L 366.624 120.760115 
L 357.696 120.422057 
L 348.768 125.716665 
L 339.84 129.12265 
L 330.912 129.55646 
L 321.984 128.511402 
L 313.056 129.332393 
L 304.128 132.200595 
L 295.2 133.863069 
L 286.272 130.303017 
L 277.344 131.775139 
L 268.416 129.186019 
L 259.488 130.561858 
L 250.56 128.703812 
L 241.632 129.30388 
L 232.704 128.572955 
L 223.776 130.706111 
L 214.848 132.878928 
L 205.92 140.257827 
L 196.992 142.840136 
L 188.064 142.817116 
L 179.136 143.297555 
L 170.208 142.513461 
L 161.28 143.738456 
L 152.352 141.645738 
L 143.424 140.300221 
L 134.496 142.317421 
L 125.568 145.299874 
L 116.64 142.447947 
L 107.712 142.141615 
L 98.784 146.529375 
L 89.856 145.054999 
L 80.928 145.149081 
L 72 144.551946 
z
" style="fill:#9467bd;fill-opacity:0.3;"/>
   </g>
   <g id="PolyCollection_6">
    <path clip-path="url(#pcab4e43a17)" d="M 72 147.925008 
L 72 106.317482 
L 80.928 99.720199 
L 89.856 101.69911 
L 98.784 100.834782 
L 107.712 100.939751 
L 116.64 101.805725 
L 125.568 100.166282 
L 134.496 100.258553 
L 143.424 101.990768 
L 152.352 103.648706 
L 161.28 103.039467 
L 170.208 103.976477 
L 179.136 104.389975 
L 188.064 104.938858 
L 196.992 106.150783 
L 205.92 107.285902 
L 214.848 108.328605 
L 223.776 109.194626 
L 232.704 110.356529 
L 241.632 110.576918 
L 250.56 111.460578 
L 259.488 112.020327 
L 268.416 112.342427 
L 277.344 113.128081 
L 286.272 112.893128 
L 295.2 113.437895 
L 304.128 114.061323 
L 313.056 114.892269 
L 321.984 115.756887 
L 330.912 116.131931 
L 339.84 115.911914 
L 348.768 114.452195 
L 357.696 115.294032 
L 366.624 115.809431 
L 375.552 116.014511 
L 384.48 116.315122 
L 393.408 116.28521 
L 402.336 116.641006 
L 411.264 116.714203 
L 420.192 116.056228 
L 429.12 116.155725 
L 438.048 115.99805 
L 446.976 116.669168 
L 455.904 116.390854 
L 464.832 116.269444 
L 473.76 116.818567 
L 482.688 117.192413 
L 491.616 117.540855 
L 500.544 117.886565 
L 509.472 118.348086 
L 518.4 118.215187 
L 518.4 157.86002 
L 518.4 157.86002 
L 509.472 159.370278 
L 500.544 158.875216 
L 491.616 157.941372 
L 482.688 157.169559 
L 473.76 156.801936 
L 464.832 158.480608 
L 455.904 158.462741 
L 446.976 158.000633 
L 438.048 157.460885 
L 429.12 156.765747 
L 420.192 155.809414 
L 411.264 154.725696 
L 402.336 155.295075 
L 393.408 152.64997 
L 384.48 151.971449 
L 375.552 151.340893 
L 366.624 152.459945 
L 357.696 152.428631 
L 348.768 153.049741 
L 339.84 153.141056 
L 330.912 149.693162 
L 321.984 148.826873 
L 313.056 148.00113 
L 304.128 147.527957 
L 295.2 146.341059 
L 286.272 147.028657 
L 277.344 147.744907 
L 268.416 146.583327 
L 259.488 146.113625 
L 250.56 144.996003 
L 241.632 144.143261 
L 232.704 143.51956 
L 223.776 141.706799 
L 214.848 141.326482 
L 205.92 140.491512 
L 196.992 138.635242 
L 188.064 140.459611 
L 179.136 139.890971 
L 170.208 138.508864 
L 161.28 137.130139 
L 152.352 138.667677 
L 143.424 137.083365 
L 134.496 137.062553 
L 125.568 136.856158 
L 116.64 144.628176 
L 107.712 148.448294 
L 98.784 149.544071 
L 89.856 148.196549 
L 80.928 148.591948 
L 72 147.925008 
z
" style="fill:#8c564b;fill-opacity:0.3;"/>
   </g>
   <g id="PolyCollection_7">
    <path clip-path="url(#pcab4e43a17)" d="M 72 274.45008 
L 72 195.392387 
L 80.928 210.925671 
L 80.928 252.023035 
L 80.928 252.023035 
L 72 274.45008 
z
" style="fill:#e377c2;fill-opacity:0.3;"/>
    <path clip-path="url(#pcab4e43a17)" d="M 98.784 288.71931 
L 98.784 170.577831 
L 107.712 189.681958 
L 107.712 258.946984 
L 107.712 258.946984 
L 98.784 288.71931 
z
" style="fill:#e377c2;fill-opacity:0.3;"/>
    <path clip-path="url(#pcab4e43a17)" d="M 125.568 254.501798 
L 125.568 190.225732 
L 134.496 193.385979 
L 143.424 192.401796 
L 152.352 181.305143 
L 161.28 188.552943 
L 170.208 197.170018 
L 179.136 177.538509 
L 188.064 195.549381 
L 196.992 179.695163 
L 196.992 249.013609 
L 196.992 249.013609 
L 188.064 240.888896 
L 179.136 270.665972 
L 170.208 237.30409 
L 161.28 254.814134 
L 152.352 266.503192 
L 143.424 260.882076 
L 134.496 238.921823 
L 125.568 254.501798 
z
" style="fill:#e377c2;fill-opacity:0.3;"/>
    <path clip-path="url(#pcab4e43a17)" d="M 214.848 245.659622 
L 214.848 195.617069 
L 214.848 245.659622 
L 214.848 245.659622 
z
" style="fill:#e377c2;fill-opacity:0.3;"/>
    <path clip-path="url(#pcab4e43a17)" d="M 277.344 241.257412 
L 277.344 194.427524 
L 286.272 180.624822 
L 286.272 237.75988 
L 286.272 237.75988 
L 277.344 241.257412 
z
" style="fill:#e377c2;fill-opacity:0.3;"/>
    <path clip-path="url(#pcab4e43a17)" d="M 313.056 232.780343 
L 313.056 188.19056 
L 313.056 232.780343 
L 313.056 232.780343 
z
" style="fill:#e377c2;fill-opacity:0.3;"/>
    <path clip-path="url(#pcab4e43a17)" d="M 366.624 265.648411 
L 366.624 160.016407 
L 366.624 265.648411 
L 366.624 265.648411 
z
" style="fill:#e377c2;fill-opacity:0.3;"/>
    <path clip-path="url(#pcab4e43a17)" d="M 393.408 226.128896 
L 393.408 187.672754 
L 402.336 176.362763 
L 402.336 239.707757 
L 402.336 239.707757 
L 393.408 226.128896 
z
" style="fill:#e377c2;fill-opacity:0.3;"/>
    <path clip-path="url(#pcab4e43a17)" d="M 455.904 225.336778 
L 455.904 182.53773 
L 455.904 225.336778 
L 455.904 225.336778 
z
" style="fill:#e377c2;fill-opacity:0.3;"/>
    <path clip-path="url(#pcab4e43a17)" d="M 500.544 247.340882 
L 500.544 177.598361 
L 500.544 247.340882 
L 500.544 247.340882 
z
" style="fill:#e377c2;fill-opacity:0.3;"/>
   </g>
   <g id="matplotlib.axis_1">
    <g id="xtick_1">
     <g id="line2d_1">
      <path clip-path="url(#pcab4e43a17)" d="M 72 384.48 
L 72 51.84 
" style="fill:none;stroke:#b0b0b0;stroke-linecap:square;stroke-width:0.8;"/>
     </g>
     <g id="line2d_2">
      <defs>
       <path d="M 0 0 
L 0 3.5 
" id="m652302f18d" style="stroke:#000000;stroke-width:0.8;"/>
      </defs>
      <g>
       <use style="stroke:#000000;stroke-width:0.8;" x="72" xlink:href="#m652302f18d" y="384.48"/>
      </g>
     </g>
     <g id="text_1">
      <!-- 0 -->
      <defs>
       <path d="M 31.78125 66.40625 
Q 24.171875 66.40625 20.328125 58.90625 
Q 16.5 51.421875 16.5 36.375 
Q 16.5 21.390625 20.328125 13.890625 
Q 24.171875 6.390625 31.78125 6.390625 
Q 39.453125 6.390625 43.28125 13.890625 
Q 47.125 21.390625 47.125 36.375 
Q 47.125 51.421875 43.28125 58.90625 
Q 39.453125 66.40625 31.78125 66.40625 
z
M 31.78125 74.21875 
Q 44.046875 74.21875 50.515625 64.515625 
Q 56.984375 54.828125 56.984375 36.375 
Q 56.984375 17.96875 50.515625 8.265625 
Q 44.046875 -1.421875 31.78125 -1.421875 
Q 19.53125 -1.421875 13.0625 8.265625 
Q 6.59375 17.96875 6.59375 36.375 
Q 6.59375 54.828125 13.0625 64.515625 
Q 19.53125 74.21875 31.78125 74.21875 
z
" id="DejaVuSans-48"/>
      </defs>
      <g transform="translate(68.81875 399.078438)scale(0.1 -0.1)">
       <use xlink:href="#DejaVuSans-48"/>
      </g>
     </g>
    </g>
    <g id="xtick_2">
     <g id="line2d_3">
      <path clip-path="url(#pcab4e43a17)" d="M 161.28 384.48 
L 161.28 51.84 
" style="fill:none;stroke:#b0b0b0;stroke-linecap:square;stroke-width:0.8;"/>
     </g>
     <g id="line2d_4">
      <g>
       <use style="stroke:#000000;stroke-width:0.8;" x="161.28" xlink:href="#m652302f18d" y="384.48"/>
      </g>
     </g>
     <g id="text_2">
      <!-- 10 -->
      <defs>
       <path d="M 12.40625 8.296875 
L 28.515625 8.296875 
L 28.515625 63.921875 
L 10.984375 60.40625 
L 10.984375 69.390625 
L 28.421875 72.90625 
L 38.28125 72.90625 
L 38.28125 8.296875 
L 54.390625 8.296875 
L 54.390625 0 
L 12.40625 0 
z
" id="DejaVuSans-49"/>
      </defs>
      <g transform="translate(154.9175 399.078438)scale(0.1 -0.1)">
       <use xlink:href="#DejaVuSans-49"/>
       <use x="63.623047" xlink:href="#DejaVuSans-48"/>
      </g>
     </g>
    </g>
    <g id="xtick_3">
     <g id="line2d_5">
      <path clip-path="url(#pcab4e43a17)" d="M 250.56 384.48 
L 250.56 51.84 
" style="fill:none;stroke:#b0b0b0;stroke-linecap:square;stroke-width:0.8;"/>
     </g>
     <g id="line2d_6">
      <g>
       <use style="stroke:#000000;stroke-width:0.8;" x="250.56" xlink:href="#m652302f18d" y="384.48"/>
      </g>
     </g>
     <g id="text_3">
      <!-- 20 -->
      <defs>
       <path d="M 19.1875 8.296875 
L 53.609375 8.296875 
L 53.609375 0 
L 7.328125 0 
L 7.328125 8.296875 
Q 12.9375 14.109375 22.625 23.890625 
Q 32.328125 33.6875 34.8125 36.53125 
Q 39.546875 41.84375 41.421875 45.53125 
Q 43.3125 49.21875 43.3125 52.78125 
Q 43.3125 58.59375 39.234375 62.25 
Q 35.15625 65.921875 28.609375 65.921875 
Q 23.96875 65.921875 18.8125 64.3125 
Q 13.671875 62.703125 7.8125 59.421875 
L 7.8125 69.390625 
Q 13.765625 71.78125 18.9375 73 
Q 24.125 74.21875 28.421875 74.21875 
Q 39.75 74.21875 46.484375 68.546875 
Q 53.21875 62.890625 53.21875 53.421875 
Q 53.21875 48.921875 51.53125 44.890625 
Q 49.859375 40.875 45.40625 35.40625 
Q 44.1875 33.984375 37.640625 27.21875 
Q 31.109375 20.453125 19.1875 8.296875 
z
" id="DejaVuSans-50"/>
      </defs>
      <g transform="translate(244.1975 399.078438)scale(0.1 -0.1)">
       <use xlink:href="#DejaVuSans-50"/>
       <use x="63.623047" xlink:href="#DejaVuSans-48"/>
      </g>
     </g>
    </g>
    <g id="xtick_4">
     <g id="line2d_7">
      <path clip-path="url(#pcab4e43a17)" d="M 339.84 384.48 
L 339.84 51.84 
" style="fill:none;stroke:#b0b0b0;stroke-linecap:square;stroke-width:0.8;"/>
     </g>
     <g id="line2d_8">
      <g>
       <use style="stroke:#000000;stroke-width:0.8;" x="339.84" xlink:href="#m652302f18d" y="384.48"/>
      </g>
     </g>
     <g id="text_4">
      <!-- 30 -->
      <defs>
       <path d="M 40.578125 39.3125 
Q 47.65625 37.796875 51.625 33 
Q 55.609375 28.21875 55.609375 21.1875 
Q 55.609375 10.40625 48.1875 4.484375 
Q 40.765625 -1.421875 27.09375 -1.421875 
Q 22.515625 -1.421875 17.65625 -0.515625 
Q 12.796875 0.390625 7.625 2.203125 
L 7.625 11.71875 
Q 11.71875 9.328125 16.59375 8.109375 
Q 21.484375 6.890625 26.8125 6.890625 
Q 36.078125 6.890625 40.9375 10.546875 
Q 45.796875 14.203125 45.796875 21.1875 
Q 45.796875 27.640625 41.28125 31.265625 
Q 36.765625 34.90625 28.71875 34.90625 
L 20.21875 34.90625 
L 20.21875 43.015625 
L 29.109375 43.015625 
Q 36.375 43.015625 40.234375 45.921875 
Q 44.09375 48.828125 44.09375 54.296875 
Q 44.09375 59.90625 40.109375 62.90625 
Q 36.140625 65.921875 28.71875 65.921875 
Q 24.65625 65.921875 20.015625 65.03125 
Q 15.375 64.15625 9.8125 62.3125 
L 9.8125 71.09375 
Q 15.4375 72.65625 20.34375 73.4375 
Q 25.25 74.21875 29.59375 74.21875 
Q 40.828125 74.21875 47.359375 69.109375 
Q 53.90625 64.015625 53.90625 55.328125 
Q 53.90625 49.265625 50.4375 45.09375 
Q 46.96875 40.921875 40.578125 39.3125 
z
" id="DejaVuSans-51"/>
      </defs>
      <g transform="translate(333.4775 399.078438)scale(0.1 -0.1)">
       <use xlink:href="#DejaVuSans-51"/>
       <use x="63.623047" xlink:href="#DejaVuSans-48"/>
      </g>
     </g>
    </g>
    <g id="xtick_5">
     <g id="line2d_9">
      <path clip-path="url(#pcab4e43a17)" d="M 429.12 384.48 
L 429.12 51.84 
" style="fill:none;stroke:#b0b0b0;stroke-linecap:square;stroke-width:0.8;"/>
     </g>
     <g id="line2d_10">
      <g>
       <use style="stroke:#000000;stroke-width:0.8;" x="429.12" xlink:href="#m652302f18d" y="384.48"/>
      </g>
     </g>
     <g id="text_5">
      <!-- 40 -->
      <defs>
       <path d="M 37.796875 64.3125 
L 12.890625 25.390625 
L 37.796875 25.390625 
z
M 35.203125 72.90625 
L 47.609375 72.90625 
L 47.609375 25.390625 
L 58.015625 25.390625 
L 58.015625 17.1875 
L 47.609375 17.1875 
L 47.609375 0 
L 37.796875 0 
L 37.796875 17.1875 
L 4.890625 17.1875 
L 4.890625 26.703125 
z
" id="DejaVuSans-52"/>
      </defs>
      <g transform="translate(422.7575 399.078438)scale(0.1 -0.1)">
       <use xlink:href="#DejaVuSans-52"/>
       <use x="63.623047" xlink:href="#DejaVuSans-48"/>
      </g>
     </g>
    </g>
    <g id="xtick_6">
     <g id="line2d_11">
      <path clip-path="url(#pcab4e43a17)" d="M 518.4 384.48 
L 518.4 51.84 
" style="fill:none;stroke:#b0b0b0;stroke-linecap:square;stroke-width:0.8;"/>
     </g>
     <g id="line2d_12">
      <g>
       <use style="stroke:#000000;stroke-width:0.8;" x="518.4" xlink:href="#m652302f18d" y="384.48"/>
      </g>
     </g>
     <g id="text_6">
      <!-- 50 -->
      <defs>
       <path d="M 10.796875 72.90625 
L 49.515625 72.90625 
L 49.515625 64.59375 
L 19.828125 64.59375 
L 19.828125 46.734375 
Q 21.96875 47.46875 24.109375 47.828125 
Q 26.265625 48.1875 28.421875 48.1875 
Q 40.625 48.1875 47.75 41.5 
Q 54.890625 34.8125 54.890625 23.390625 
Q 54.890625 11.625 47.5625 5.09375 
Q 40.234375 -1.421875 26.90625 -1.421875 
Q 22.3125 -1.421875 17.546875 -0.640625 
Q 12.796875 0.140625 7.71875 1.703125 
L 7.71875 11.625 
Q 12.109375 9.234375 16.796875 8.0625 
Q 21.484375 6.890625 26.703125 6.890625 
Q 35.15625 6.890625 40.078125 11.328125 
Q 45.015625 15.765625 45.015625 23.390625 
Q 45.015625 31 40.078125 35.4375 
Q 35.15625 39.890625 26.703125 39.890625 
Q 22.75 39.890625 18.8125 39.015625 
Q 14.890625 38.140625 10.796875 36.28125 
z
" id="DejaVuSans-53"/>
      </defs>
      <g transform="translate(512.0375 399.078438)scale(0.1 -0.1)">
       <use xlink:href="#DejaVuSans-53"/>
       <use x="63.623047" xlink:href="#DejaVuSans-48"/>
      </g>
     </g>
    </g>
    <g id="text_7">
     <!-- Iteration -->
     <defs>
      <path d="M 9.8125 72.90625 
L 19.671875 72.90625 
L 19.671875 0 
L 9.8125 0 
z
" id="DejaVuSans-73"/>
      <path d="M 18.3125 70.21875 
L 18.3125 54.6875 
L 36.8125 54.6875 
L 36.8125 47.703125 
L 18.3125 47.703125 
L 18.3125 18.015625 
Q 18.3125 11.328125 20.140625 9.421875 
Q 21.96875 7.515625 27.59375 7.515625 
L 36.8125 7.515625 
L 36.8125 0 
L 27.59375 0 
Q 17.1875 0 13.234375 3.875 
Q 9.28125 7.765625 9.28125 18.015625 
L 9.28125 47.703125 
L 2.6875 47.703125 
L 2.6875 54.6875 
L 9.28125 54.6875 
L 9.28125 70.21875 
z
" id="DejaVuSans-116"/>
      <path d="M 56.203125 29.59375 
L 56.203125 25.203125 
L 14.890625 25.203125 
Q 15.484375 15.921875 20.484375 11.0625 
Q 25.484375 6.203125 34.421875 6.203125 
Q 39.59375 6.203125 44.453125 7.46875 
Q 49.3125 8.734375 54.109375 11.28125 
L 54.109375 2.78125 
Q 49.265625 0.734375 44.1875 -0.34375 
Q 39.109375 -1.421875 33.890625 -1.421875 
Q 20.796875 -1.421875 13.15625 6.1875 
Q 5.515625 13.8125 5.515625 26.8125 
Q 5.515625 40.234375 12.765625 48.109375 
Q 20.015625 56 32.328125 56 
Q 43.359375 56 49.78125 48.890625 
Q 56.203125 41.796875 56.203125 29.59375 
z
M 47.21875 32.234375 
Q 47.125 39.59375 43.09375 43.984375 
Q 39.0625 48.390625 32.421875 48.390625 
Q 24.90625 48.390625 20.390625 44.140625 
Q 15.875 39.890625 15.1875 32.171875 
z
" id="DejaVuSans-101"/>
      <path d="M 41.109375 46.296875 
Q 39.59375 47.171875 37.8125 47.578125 
Q 36.03125 48 33.890625 48 
Q 26.265625 48 22.1875 43.046875 
Q 18.109375 38.09375 18.109375 28.8125 
L 18.109375 0 
L 9.078125 0 
L 9.078125 54.6875 
L 18.109375 54.6875 
L 18.109375 46.1875 
Q 20.953125 51.171875 25.484375 53.578125 
Q 30.03125 56 36.53125 56 
Q 37.453125 56 38.578125 55.875 
Q 39.703125 55.765625 41.0625 55.515625 
z
" id="DejaVuSans-114"/>
      <path d="M 34.28125 27.484375 
Q 23.390625 27.484375 19.1875 25 
Q 14.984375 22.515625 14.984375 16.5 
Q 14.984375 11.71875 18.140625 8.90625 
Q 21.296875 6.109375 26.703125 6.109375 
Q 34.1875 6.109375 38.703125 11.40625 
Q 43.21875 16.703125 43.21875 25.484375 
L 43.21875 27.484375 
z
M 52.203125 31.203125 
L 52.203125 0 
L 43.21875 0 
L 43.21875 8.296875 
Q 40.140625 3.328125 35.546875 0.953125 
Q 30.953125 -1.421875 24.3125 -1.421875 
Q 15.921875 -1.421875 10.953125 3.296875 
Q 6 8.015625 6 15.921875 
Q 6 25.140625 12.171875 29.828125 
Q 18.359375 34.515625 30.609375 34.515625 
L 43.21875 34.515625 
L 43.21875 35.40625 
Q 43.21875 41.609375 39.140625 45 
Q 35.0625 48.390625 27.6875 48.390625 
Q 23 48.390625 18.546875 47.265625 
Q 14.109375 46.140625 10.015625 43.890625 
L 10.015625 52.203125 
Q 14.9375 54.109375 19.578125 55.046875 
Q 24.21875 56 28.609375 56 
Q 40.484375 56 46.34375 49.84375 
Q 52.203125 43.703125 52.203125 31.203125 
z
" id="DejaVuSans-97"/>
      <path d="M 9.421875 54.6875 
L 18.40625 54.6875 
L 18.40625 0 
L 9.421875 0 
z
M 9.421875 75.984375 
L 18.40625 75.984375 
L 18.40625 64.59375 
L 9.421875 64.59375 
z
" id="DejaVuSans-105"/>
      <path d="M 30.609375 48.390625 
Q 23.390625 48.390625 19.1875 42.75 
Q 14.984375 37.109375 14.984375 27.296875 
Q 14.984375 17.484375 19.15625 11.84375 
Q 23.34375 6.203125 30.609375 6.203125 
Q 37.796875 6.203125 41.984375 11.859375 
Q 46.1875 17.53125 46.1875 27.296875 
Q 46.1875 37.015625 41.984375 42.703125 
Q 37.796875 48.390625 30.609375 48.390625 
z
M 30.609375 56 
Q 42.328125 56 49.015625 48.375 
Q 55.71875 40.765625 55.71875 27.296875 
Q 55.71875 13.875 49.015625 6.21875 
Q 42.328125 -1.421875 30.609375 -1.421875 
Q 18.84375 -1.421875 12.171875 6.21875 
Q 5.515625 13.875 5.515625 27.296875 
Q 5.515625 40.765625 12.171875 48.375 
Q 18.84375 56 30.609375 56 
z
" id="DejaVuSans-111"/>
      <path d="M 54.890625 33.015625 
L 54.890625 0 
L 45.90625 0 
L 45.90625 32.71875 
Q 45.90625 40.484375 42.875 44.328125 
Q 39.84375 48.1875 33.796875 48.1875 
Q 26.515625 48.1875 22.3125 43.546875 
Q 18.109375 38.921875 18.109375 30.90625 
L 18.109375 0 
L 9.078125 0 
L 9.078125 54.6875 
L 18.109375 54.6875 
L 18.109375 46.1875 
Q 21.34375 51.125 25.703125 53.5625 
Q 30.078125 56 35.796875 56 
Q 45.21875 56 50.046875 50.171875 
Q 54.890625 44.34375 54.890625 33.015625 
z
" id="DejaVuSans-110"/>
     </defs>
     <g transform="translate(273.991406 412.756563)scale(0.1 -0.1)">
      <use xlink:href="#DejaVuSans-73"/>
      <use x="29.492188" xlink:href="#DejaVuSans-116"/>
      <use x="68.701172" xlink:href="#DejaVuSans-101"/>
      <use x="130.224609" xlink:href="#DejaVuSans-114"/>
      <use x="171.337891" xlink:href="#DejaVuSans-97"/>
      <use x="232.617188" xlink:href="#DejaVuSans-116"/>
      <use x="271.826172" xlink:href="#DejaVuSans-105"/>
      <use x="299.609375" xlink:href="#DejaVuSans-111"/>
      <use x="360.791016" xlink:href="#DejaVuSans-110"/>
     </g>
    </g>
   </g>
   <g id="matplotlib.axis_2">
    <g id="ytick_1">
     <g id="line2d_13">
      <path clip-path="url(#pcab4e43a17)" d="M 72 384.48 
L 518.4 384.48 
" style="fill:none;stroke:#b0b0b0;stroke-linecap:square;stroke-width:0.8;"/>
     </g>
     <g id="line2d_14">
      <defs>
       <path d="M 0 0 
L -3.5 0 
" id="m1095dbd088" style="stroke:#000000;stroke-width:0.8;"/>
      </defs>
      <g>
       <use style="stroke:#000000;stroke-width:0.8;" x="72" xlink:href="#m1095dbd088" y="384.48"/>
      </g>
     </g>
     <g id="text_8">
      <!-- $\mathdefault{10^{-12}}$ -->
      <defs>
       <path d="M 10.59375 35.5 
L 73.1875 35.5 
L 73.1875 27.203125 
L 10.59375 27.203125 
z
" id="DejaVuSans-8722"/>
      </defs>
      <g transform="translate(37.1 388.279219)scale(0.1 -0.1)">
       <use transform="translate(0 0.765625)" xlink:href="#DejaVuSans-49"/>
       <use transform="translate(63.623047 0.765625)" xlink:href="#DejaVuSans-48"/>
       <use transform="translate(128.203125 39.046875)scale(0.7)" xlink:href="#DejaVuSans-8722"/>
       <use transform="translate(186.855469 39.046875)scale(0.7)" xlink:href="#DejaVuSans-49"/>
       <use transform="translate(231.391602 39.046875)scale(0.7)" xlink:href="#DejaVuSans-50"/>
      </g>
     </g>
    </g>
    <g id="ytick_2">
     <g id="line2d_15">
      <path clip-path="url(#pcab4e43a17)" d="M 72 336.96 
L 518.4 336.96 
" style="fill:none;stroke:#b0b0b0;stroke-linecap:square;stroke-width:0.8;"/>
     </g>
     <g id="line2d_16">
      <g>
       <use style="stroke:#000000;stroke-width:0.8;" x="72" xlink:href="#m1095dbd088" y="336.96"/>
      </g>
     </g>
     <g id="text_9">
      <!-- $\mathdefault{10^{-10}}$ -->
      <g transform="translate(37.1 340.759219)scale(0.1 -0.1)">
       <use transform="translate(0 0.765625)" xlink:href="#DejaVuSans-49"/>
       <use transform="translate(63.623047 0.765625)" xlink:href="#DejaVuSans-48"/>
       <use transform="translate(128.203125 39.046875)scale(0.7)" xlink:href="#DejaVuSans-8722"/>
       <use transform="translate(186.855469 39.046875)scale(0.7)" xlink:href="#DejaVuSans-49"/>
       <use transform="translate(231.391602 39.046875)scale(0.7)" xlink:href="#DejaVuSans-48"/>
      </g>
     </g>
    </g>
    <g id="ytick_3">
     <g id="line2d_17">
      <path clip-path="url(#pcab4e43a17)" d="M 72 289.44 
L 518.4 289.44 
" style="fill:none;stroke:#b0b0b0;stroke-linecap:square;stroke-width:0.8;"/>
     </g>
     <g id="line2d_18">
      <g>
       <use style="stroke:#000000;stroke-width:0.8;" x="72" xlink:href="#m1095dbd088" y="289.44"/>
      </g>
     </g>
     <g id="text_10">
      <!-- $\mathdefault{10^{-8}}$ -->
      <defs>
       <path d="M 31.78125 34.625 
Q 24.75 34.625 20.71875 30.859375 
Q 16.703125 27.09375 16.703125 20.515625 
Q 16.703125 13.921875 20.71875 10.15625 
Q 24.75 6.390625 31.78125 6.390625 
Q 38.8125 6.390625 42.859375 10.171875 
Q 46.921875 13.96875 46.921875 20.515625 
Q 46.921875 27.09375 42.890625 30.859375 
Q 38.875 34.625 31.78125 34.625 
z
M 21.921875 38.8125 
Q 15.578125 40.375 12.03125 44.71875 
Q 8.5 49.078125 8.5 55.328125 
Q 8.5 64.0625 14.71875 69.140625 
Q 20.953125 74.21875 31.78125 74.21875 
Q 42.671875 74.21875 48.875 69.140625 
Q 55.078125 64.0625 55.078125 55.328125 
Q 55.078125 49.078125 51.53125 44.71875 
Q 48 40.375 41.703125 38.8125 
Q 48.828125 37.15625 52.796875 32.3125 
Q 56.78125 27.484375 56.78125 20.515625 
Q 56.78125 9.90625 50.3125 4.234375 
Q 43.84375 -1.421875 31.78125 -1.421875 
Q 19.734375 -1.421875 13.25 4.234375 
Q 6.78125 9.90625 6.78125 20.515625 
Q 6.78125 27.484375 10.78125 32.3125 
Q 14.796875 37.15625 21.921875 38.8125 
z
M 18.3125 54.390625 
Q 18.3125 48.734375 21.84375 45.5625 
Q 25.390625 42.390625 31.78125 42.390625 
Q 38.140625 42.390625 41.71875 45.5625 
Q 45.3125 48.734375 45.3125 54.390625 
Q 45.3125 60.0625 41.71875 63.234375 
Q 38.140625 66.40625 31.78125 66.40625 
Q 25.390625 66.40625 21.84375 63.234375 
Q 18.3125 60.0625 18.3125 54.390625 
z
" id="DejaVuSans-56"/>
      </defs>
      <g transform="translate(41.5 293.239219)scale(0.1 -0.1)">
       <use transform="translate(0 0.765625)" xlink:href="#DejaVuSans-49"/>
       <use transform="translate(63.623047 0.765625)" xlink:href="#DejaVuSans-48"/>
       <use transform="translate(128.203125 39.046875)scale(0.7)" xlink:href="#DejaVuSans-8722"/>
       <use transform="translate(186.855469 39.046875)scale(0.7)" xlink:href="#DejaVuSans-56"/>
      </g>
     </g>
    </g>
    <g id="ytick_4">
     <g id="line2d_19">
      <path clip-path="url(#pcab4e43a17)" d="M 72 241.92 
L 518.4 241.92 
" style="fill:none;stroke:#b0b0b0;stroke-linecap:square;stroke-width:0.8;"/>
     </g>
     <g id="line2d_20">
      <g>
       <use style="stroke:#000000;stroke-width:0.8;" x="72" xlink:href="#m1095dbd088" y="241.92"/>
      </g>
     </g>
     <g id="text_11">
      <!-- $\mathdefault{10^{-6}}$ -->
      <defs>
       <path d="M 33.015625 40.375 
Q 26.375 40.375 22.484375 35.828125 
Q 18.609375 31.296875 18.609375 23.390625 
Q 18.609375 15.53125 22.484375 10.953125 
Q 26.375 6.390625 33.015625 6.390625 
Q 39.65625 6.390625 43.53125 10.953125 
Q 47.40625 15.53125 47.40625 23.390625 
Q 47.40625 31.296875 43.53125 35.828125 
Q 39.65625 40.375 33.015625 40.375 
z
M 52.59375 71.296875 
L 52.59375 62.3125 
Q 48.875 64.0625 45.09375 64.984375 
Q 41.3125 65.921875 37.59375 65.921875 
Q 27.828125 65.921875 22.671875 59.328125 
Q 17.53125 52.734375 16.796875 39.40625 
Q 19.671875 43.65625 24.015625 45.921875 
Q 28.375 48.1875 33.59375 48.1875 
Q 44.578125 48.1875 50.953125 41.515625 
Q 57.328125 34.859375 57.328125 23.390625 
Q 57.328125 12.15625 50.6875 5.359375 
Q 44.046875 -1.421875 33.015625 -1.421875 
Q 20.359375 -1.421875 13.671875 8.265625 
Q 6.984375 17.96875 6.984375 36.375 
Q 6.984375 53.65625 15.1875 63.9375 
Q 23.390625 74.21875 37.203125 74.21875 
Q 40.921875 74.21875 44.703125 73.484375 
Q 48.484375 72.75 52.59375 71.296875 
z
" id="DejaVuSans-54"/>
      </defs>
      <g transform="translate(41.5 245.719219)scale(0.1 -0.1)">
       <use transform="translate(0 0.765625)" xlink:href="#DejaVuSans-49"/>
       <use transform="translate(63.623047 0.765625)" xlink:href="#DejaVuSans-48"/>
       <use transform="translate(128.203125 39.046875)scale(0.7)" xlink:href="#DejaVuSans-8722"/>
       <use transform="translate(186.855469 39.046875)scale(0.7)" xlink:href="#DejaVuSans-54"/>
      </g>
     </g>
    </g>
    <g id="ytick_5">
     <g id="line2d_21">
      <path clip-path="url(#pcab4e43a17)" d="M 72 194.4 
L 518.4 194.4 
" style="fill:none;stroke:#b0b0b0;stroke-linecap:square;stroke-width:0.8;"/>
     </g>
     <g id="line2d_22">
      <g>
       <use style="stroke:#000000;stroke-width:0.8;" x="72" xlink:href="#m1095dbd088" y="194.4"/>
      </g>
     </g>
     <g id="text_12">
      <!-- $\mathdefault{10^{-4}}$ -->
      <g transform="translate(41.5 198.199219)scale(0.1 -0.1)">
       <use transform="translate(0 0.684375)" xlink:href="#DejaVuSans-49"/>
       <use transform="translate(63.623047 0.684375)" xlink:href="#DejaVuSans-48"/>
       <use transform="translate(128.203125 38.965625)scale(0.7)" xlink:href="#DejaVuSans-8722"/>
       <use transform="translate(186.855469 38.965625)scale(0.7)" xlink:href="#DejaVuSans-52"/>
      </g>
     </g>
    </g>
    <g id="ytick_6">
     <g id="line2d_23">
      <path clip-path="url(#pcab4e43a17)" d="M 72 146.88 
L 518.4 146.88 
" style="fill:none;stroke:#b0b0b0;stroke-linecap:square;stroke-width:0.8;"/>
     </g>
     <g id="line2d_24">
      <g>
       <use style="stroke:#000000;stroke-width:0.8;" x="72" xlink:href="#m1095dbd088" y="146.88"/>
      </g>
     </g>
     <g id="text_13">
      <!-- $\mathdefault{10^{-2}}$ -->
      <g transform="translate(41.5 150.679219)scale(0.1 -0.1)">
       <use transform="translate(0 0.765625)" xlink:href="#DejaVuSans-49"/>
       <use transform="translate(63.623047 0.765625)" xlink:href="#DejaVuSans-48"/>
       <use transform="translate(128.203125 39.046875)scale(0.7)" xlink:href="#DejaVuSans-8722"/>
       <use transform="translate(186.855469 39.046875)scale(0.7)" xlink:href="#DejaVuSans-50"/>
      </g>
     </g>
    </g>
    <g id="ytick_7">
     <g id="line2d_25">
      <path clip-path="url(#pcab4e43a17)" d="M 72 99.36 
L 518.4 99.36 
" style="fill:none;stroke:#b0b0b0;stroke-linecap:square;stroke-width:0.8;"/>
     </g>
     <g id="line2d_26">
      <g>
       <use style="stroke:#000000;stroke-width:0.8;" x="72" xlink:href="#m1095dbd088" y="99.36"/>
      </g>
     </g>
     <g id="text_14">
      <!-- $\mathdefault{10^{0}}$ -->
      <g transform="translate(47.4 103.159219)scale(0.1 -0.1)">
       <use transform="translate(0 0.765625)" xlink:href="#DejaVuSans-49"/>
       <use transform="translate(63.623047 0.765625)" xlink:href="#DejaVuSans-48"/>
       <use transform="translate(128.203125 39.046875)scale(0.7)" xlink:href="#DejaVuSans-48"/>
      </g>
     </g>
    </g>
    <g id="ytick_8">
     <g id="line2d_27">
      <path clip-path="url(#pcab4e43a17)" d="M 72 51.84 
L 518.4 51.84 
" style="fill:none;stroke:#b0b0b0;stroke-linecap:square;stroke-width:0.8;"/>
     </g>
     <g id="line2d_28">
      <g>
       <use style="stroke:#000000;stroke-width:0.8;" x="72" xlink:href="#m1095dbd088" y="51.84"/>
      </g>
     </g>
     <g id="text_15">
      <!-- $\mathdefault{10^{2}}$ -->
      <g transform="translate(47.4 55.639219)scale(0.1 -0.1)">
       <use transform="translate(0 0.765625)" xlink:href="#DejaVuSans-49"/>
       <use transform="translate(63.623047 0.765625)" xlink:href="#DejaVuSans-48"/>
       <use transform="translate(128.203125 39.046875)scale(0.7)" xlink:href="#DejaVuSans-50"/>
      </g>
     </g>
    </g>
    <g id="text_16">
     <!-- Integrated Variance -->
     <defs>
      <path d="M 45.40625 27.984375 
Q 45.40625 37.75 41.375 43.109375 
Q 37.359375 48.484375 30.078125 48.484375 
Q 22.859375 48.484375 18.828125 43.109375 
Q 14.796875 37.75 14.796875 27.984375 
Q 14.796875 18.265625 18.828125 12.890625 
Q 22.859375 7.515625 30.078125 7.515625 
Q 37.359375 7.515625 41.375 12.890625 
Q 45.40625 18.265625 45.40625 27.984375 
z
M 54.390625 6.78125 
Q 54.390625 -7.171875 48.1875 -13.984375 
Q 42 -20.796875 29.203125 -20.796875 
Q 24.46875 -20.796875 20.265625 -20.09375 
Q 16.0625 -19.390625 12.109375 -17.921875 
L 12.109375 -9.1875 
Q 16.0625 -11.328125 19.921875 -12.34375 
Q 23.78125 -13.375 27.78125 -13.375 
Q 36.625 -13.375 41.015625 -8.765625 
Q 45.40625 -4.15625 45.40625 5.171875 
L 45.40625 9.625 
Q 42.625 4.78125 38.28125 2.390625 
Q 33.9375 0 27.875 0 
Q 17.828125 0 11.671875 7.65625 
Q 5.515625 15.328125 5.515625 27.984375 
Q 5.515625 40.671875 11.671875 48.328125 
Q 17.828125 56 27.875 56 
Q 33.9375 56 38.28125 53.609375 
Q 42.625 51.21875 45.40625 46.390625 
L 45.40625 54.6875 
L 54.390625 54.6875 
z
" id="DejaVuSans-103"/>
      <path d="M 45.40625 46.390625 
L 45.40625 75.984375 
L 54.390625 75.984375 
L 54.390625 0 
L 45.40625 0 
L 45.40625 8.203125 
Q 42.578125 3.328125 38.25 0.953125 
Q 33.9375 -1.421875 27.875 -1.421875 
Q 17.96875 -1.421875 11.734375 6.484375 
Q 5.515625 14.40625 5.515625 27.296875 
Q 5.515625 40.1875 11.734375 48.09375 
Q 17.96875 56 27.875 56 
Q 33.9375 56 38.25 53.625 
Q 42.578125 51.265625 45.40625 46.390625 
z
M 14.796875 27.296875 
Q 14.796875 17.390625 18.875 11.75 
Q 22.953125 6.109375 30.078125 6.109375 
Q 37.203125 6.109375 41.296875 11.75 
Q 45.40625 17.390625 45.40625 27.296875 
Q 45.40625 37.203125 41.296875 42.84375 
Q 37.203125 48.484375 30.078125 48.484375 
Q 22.953125 48.484375 18.875 42.84375 
Q 14.796875 37.203125 14.796875 27.296875 
z
" id="DejaVuSans-100"/>
      <path id="DejaVuSans-32"/>
      <path d="M 28.609375 0 
L 0.78125 72.90625 
L 11.078125 72.90625 
L 34.1875 11.53125 
L 57.328125 72.90625 
L 67.578125 72.90625 
L 39.796875 0 
z
" id="DejaVuSans-86"/>
      <path d="M 48.78125 52.59375 
L 48.78125 44.1875 
Q 44.96875 46.296875 41.140625 47.34375 
Q 37.3125 48.390625 33.40625 48.390625 
Q 24.65625 48.390625 19.8125 42.84375 
Q 14.984375 37.3125 14.984375 27.296875 
Q 14.984375 17.28125 19.8125 11.734375 
Q 24.65625 6.203125 33.40625 6.203125 
Q 37.3125 6.203125 41.140625 7.25 
Q 44.96875 8.296875 48.78125 10.40625 
L 48.78125 2.09375 
Q 45.015625 0.34375 40.984375 -0.53125 
Q 36.96875 -1.421875 32.421875 -1.421875 
Q 20.0625 -1.421875 12.78125 6.34375 
Q 5.515625 14.109375 5.515625 27.296875 
Q 5.515625 40.671875 12.859375 48.328125 
Q 20.21875 56 33.015625 56 
Q 37.15625 56 41.109375 55.140625 
Q 45.0625 54.296875 48.78125 52.59375 
z
" id="DejaVuSans-99"/>
     </defs>
     <g transform="translate(31.020312 267.534219)rotate(-90)scale(0.1 -0.1)">
      <use xlink:href="#DejaVuSans-73"/>
      <use x="29.492188" xlink:href="#DejaVuSans-110"/>
      <use x="92.871094" xlink:href="#DejaVuSans-116"/>
      <use x="132.080078" xlink:href="#DejaVuSans-101"/>
      <use x="193.603516" xlink:href="#DejaVuSans-103"/>
      <use x="257.080078" xlink:href="#DejaVuSans-114"/>
      <use x="298.193359" xlink:href="#DejaVuSans-97"/>
      <use x="359.472656" xlink:href="#DejaVuSans-116"/>
      <use x="398.681641" xlink:href="#DejaVuSans-101"/>
      <use x="460.205078" xlink:href="#DejaVuSans-100"/>
      <use x="523.681641" xlink:href="#DejaVuSans-32"/>
      <use x="555.46875" xlink:href="#DejaVuSans-86"/>
      <use x="616.126953" xlink:href="#DejaVuSans-97"/>
      <use x="677.40625" xlink:href="#DejaVuSans-114"/>
      <use x="718.519531" xlink:href="#DejaVuSans-105"/>
      <use x="746.302734" xlink:href="#DejaVuSans-97"/>
      <use x="807.582031" xlink:href="#DejaVuSans-110"/>
      <use x="870.960938" xlink:href="#DejaVuSans-99"/>
      <use x="925.941406" xlink:href="#DejaVuSans-101"/>
     </g>
    </g>
   </g>
   <g id="line2d_29">
    <path clip-path="url(#pcab4e43a17)" d="M 80.832851 433 
L 80.928 180.646803 
L 81.023149 433 
M 178.997715 433 
L 179.136 64.442914 
L 179.274285 433 
M 196.822757 433 
L 196.985023 -1 
M 196.998977 -1 
L 197.161243 433 
M 259.458365 433 
L 259.488 354.98089 
L 268.416 109.333613 
L 277.344 252.043448 
L 286.272 262.777193 
L 295.2 181.119739 
L 304.128 358.265607 
L 304.156391 433 
M 321.851657 433 
L 321.984 80.517975 
L 322.116343 433 
M 339.668298 433 
L 339.830518 -1 
M 340.450176 -1 
L 348.768 344.804119 
L 348.801486 433 
M 411.215601 433 
L 411.264 305.311819 
L 411.312399 433 
M 428.995546 433 
L 429.12 101.825462 
L 438.048 45.570557 
L 446.976 183.185099 
L 447.070202 433 
" style="fill:none;stroke:#1f77b4;stroke-linecap:square;stroke-width:1.5;"/>
   </g>
   <g id="line2d_30">
    <path clip-path="url(#pcab4e43a17)" d="M 72 133.154272 
L 80.928 128.854848 
L 89.856 124.506879 
L 98.784 117.092281 
L 107.712 107.147575 
L 116.64 96.274116 
L 125.568 91.809372 
L 134.496 85.086372 
L 143.424 85.086372 
L 152.352 85.086372 
L 161.28 85.086396 
L 170.208 85.086561 
L 179.136 85.086561 
L 188.064 85.086561 
L 196.992 85.086561 
L 205.92 85.086561 
L 214.848 85.086609 
L 223.776 85.086609 
L 232.704 85.086609 
L 241.632 85.086771 
L 250.56 85.086771 
L 259.488 85.086771 
L 268.416 85.086887 
L 277.344 85.086989 
L 286.272 85.086989 
L 295.2 85.086989 
L 304.128 85.087192 
L 313.056 85.087192 
L 321.984 85.087192 
L 330.912 85.087233 
L 339.84 85.087233 
L 348.768 85.087233 
L 357.696 85.087246 
L 366.624 85.087246 
L 375.552 85.087246 
L 384.48 85.087285 
L 393.408 85.087285 
L 402.336 85.087285 
L 411.264 85.087353 
L 420.192 85.087353 
L 429.12 85.087353 
L 438.048 85.08755 
L 446.976 85.08755 
L 455.904 85.999587 
L 464.832 86.006617 
L 473.76 86.180033 
L 482.688 86.189009 
L 491.616 86.191888 
L 500.544 86.226801 
L 509.472 86.233959 
L 518.4 85.367669 
" style="fill:none;stroke:#ff7f0e;stroke-linecap:square;stroke-width:1.5;"/>
   </g>
   <g id="line2d_31">
    <path clip-path="url(#pcab4e43a17)" d="M 72 107.085093 
L 80.928 110.14548 
L 89.856 111.695514 
L 98.784 113.968148 
L 107.712 112.962575 
L 116.64 113.004985 
L 125.568 113.94187 
L 134.496 114.254949 
L 143.424 115.399053 
L 152.352 116.407235 
L 161.28 117.240526 
L 170.208 118.411778 
L 179.136 118.445356 
L 188.064 119.98875 
L 196.992 120.69088 
L 205.92 120.422637 
L 214.848 121.110675 
L 223.776 122.059721 
L 232.704 122.313287 
L 241.632 121.264464 
L 250.56 121.575972 
L 259.488 122.383539 
L 268.416 123.145387 
L 277.344 123.882386 
L 286.272 124.347859 
L 295.2 124.833938 
L 304.128 125.324102 
L 313.056 125.924103 
L 321.984 125.902434 
L 330.912 126.646045 
L 339.84 126.936167 
L 348.768 127.609159 
L 357.696 128.084742 
L 366.624 126.911365 
L 375.552 127.361564 
L 384.48 127.659657 
L 393.408 127.998559 
L 402.336 128.417033 
L 411.264 128.408373 
L 420.192 128.581506 
L 429.12 128.56125 
L 438.048 128.885661 
L 446.976 129.286054 
L 455.904 129.103668 
L 464.832 129.505444 
L 473.76 129.766161 
L 482.688 130.113743 
L 491.616 130.191287 
L 500.544 130.415601 
L 509.472 130.831541 
L 518.4 131.177189 
" style="fill:none;stroke:#2ca02c;stroke-linecap:square;stroke-width:1.5;"/>
   </g>
   <g id="line2d_32">
    <path clip-path="url(#pcab4e43a17)" d="M 72 117.575274 
L 80.928 120.786651 
L 89.856 117.963094 
L 98.784 114.434661 
L 107.712 113.538255 
L 116.64 115.00809 
L 125.568 115.546674 
L 134.496 114.247792 
L 143.424 114.380121 
L 152.352 111.16894 
L 161.28 112.17102 
L 170.208 110.38786 
L 179.136 111.200392 
L 188.064 110.558688 
L 196.992 111.043382 
L 205.92 109.575261 
L 214.848 108.074703 
L 223.776 105.953317 
L 232.704 106.146938 
L 241.632 105.592479 
L 250.56 105.113853 
L 259.488 106.88801 
L 268.416 106.522486 
L 277.344 108.128654 
L 286.272 107.144911 
L 295.2 107.532087 
L 304.128 107.5813 
L 313.056 109.125961 
L 321.984 109.294348 
L 330.912 108.68212 
L 339.84 106.425927 
L 348.768 106.38389 
L 357.696 108.500455 
L 366.624 107.824467 
L 375.552 108.09838 
L 384.48 109.254786 
L 393.408 107.422924 
L 402.336 106.788409 
L 411.264 107.050339 
L 420.192 108.29411 
L 429.12 107.746605 
L 438.048 105.374792 
L 446.976 104.346585 
L 455.904 104.5152 
L 464.832 103.280013 
L 473.76 103.418416 
L 482.688 103.583778 
L 491.616 105.00083 
L 500.544 105.212753 
L 509.472 105.017319 
L 518.4 105.209386 
" style="fill:none;stroke:#d62728;stroke-linecap:square;stroke-width:1.5;"/>
   </g>
   <g id="line2d_33">
    <path clip-path="url(#pcab4e43a17)" d="M 72 124.28644 
L 80.928 119.63982 
L 89.856 118.305131 
L 98.784 119.095851 
L 107.712 114.630584 
L 116.64 115.02695 
L 125.568 116.19197 
L 134.496 112.590577 
L 143.424 110.214727 
L 152.352 110.820328 
L 161.28 112.013742 
L 170.208 110.819651 
L 179.136 110.940248 
L 188.064 110.839733 
L 196.992 109.845268 
L 205.92 107.771908 
L 214.848 103.060291 
L 223.776 101.123758 
L 232.704 100.36494 
L 241.632 100.622632 
L 250.56 99.915669 
L 259.488 100.619382 
L 268.416 99.53678 
L 277.344 101.054416 
L 286.272 99.943612 
L 295.2 101.809738 
L 304.128 100.595148 
L 313.056 98.992066 
L 321.984 98.698712 
L 330.912 99.06034 
L 339.84 98.350909 
L 348.768 96.667973 
L 357.696 93.872778 
L 366.624 93.960283 
L 375.552 94.276999 
L 384.48 92.671022 
L 393.408 92.739785 
L 402.336 92.762313 
L 411.264 92.82994 
L 420.192 92.841233 
L 429.12 91.006061 
L 438.048 91.03039 
L 446.976 92.516053 
L 455.904 92.496611 
L 464.832 92.532438 
L 473.76 92.580222 
L 482.688 93.397393 
L 491.616 91.486819 
L 500.544 91.63738 
L 509.472 88.07071 
L 518.4 88.054658 
" style="fill:none;stroke:#9467bd;stroke-linecap:square;stroke-width:1.5;"/>
   </g>
   <g id="line2d_34">
    <path clip-path="url(#pcab4e43a17)" d="M 72 127.121245 
L 80.928 124.156074 
L 89.856 124.94783 
L 98.784 125.189427 
L 107.712 124.694023 
L 116.64 123.216951 
L 125.568 118.51122 
L 134.496 118.660553 
L 143.424 119.537067 
L 152.352 121.158192 
L 161.28 120.084803 
L 170.208 121.24267 
L 179.136 122.140473 
L 188.064 122.699235 
L 196.992 122.393012 
L 205.92 123.888707 
L 214.848 124.827543 
L 223.776 125.450712 
L 232.704 126.938045 
L 241.632 127.360089 
L 250.56 128.22829 
L 259.488 129.066976 
L 268.416 129.462877 
L 277.344 130.436494 
L 286.272 129.960893 
L 295.2 129.889477 
L 304.128 130.79464 
L 313.056 131.4467 
L 321.984 132.29188 
L 330.912 132.912546 
L 339.84 134.526485 
L 348.768 133.750968 
L 357.696 133.861332 
L 366.624 134.134688 
L 375.552 133.677702 
L 384.48 134.143285 
L 393.408 134.46759 
L 402.336 135.96804 
L 411.264 135.71995 
L 420.192 135.932821 
L 429.12 136.460736 
L 438.048 136.729467 
L 446.976 137.334901 
L 455.904 137.426797 
L 464.832 137.375026 
L 473.76 136.810251 
L 482.688 137.180986 
L 491.616 137.741113 
L 500.544 138.38089 
L 509.472 138.859182 
L 518.4 138.037603 
" style="fill:none;stroke:#8c564b;stroke-linecap:square;stroke-width:1.5;"/>
   </g>
   <g id="line2d_35">
    <path clip-path="url(#pcab4e43a17)" d="M 72 234.921233 
L 80.928 231.474353 
L 81.004148 433 
M 98.707168 433 
L 98.784 229.648571 
L 107.712 224.314471 
L 107.79083 433 
M 125.48844 433 
L 125.568 222.363765 
L 134.496 216.153901 
L 143.424 226.641936 
L 152.352 223.904167 
L 161.28 221.683538 
L 170.208 217.237054 
L 179.136 224.102241 
L 188.064 218.219138 
L 196.992 214.354386 
L 197.074557 433 
M 214.767794 433 
L 214.848 220.638345 
L 214.928206 433 
M 277.262748 433 
L 277.344 217.842468 
L 286.272 209.192351 
L 286.356488 433 
M 312.971996 433 
L 313.056 210.485451 
L 313.140004 433 
M 366.540873 433 
L 366.624 212.832409 
L 366.707127 433 
M 393.322655 433 
L 393.408 206.900825 
L 402.336 208.03526 
L 402.420921 433 
M 455.817547 433 
L 455.904 203.937254 
L 455.990453 433 
M 500.460738 433 
L 500.544 212.469621 
L 500.627262 433 
" style="fill:none;stroke:#e377c2;stroke-linecap:square;stroke-width:1.5;"/>
   </g>
   <g id="patch_3">
    <path d="M 72 384.48 
L 72 51.84 
" style="fill:none;stroke:#000000;stroke-linecap:square;stroke-linejoin:miter;stroke-width:0.8;"/>
   </g>
   <g id="patch_4">
    <path d="M 518.4 384.48 
L 518.4 51.84 
" style="fill:none;stroke:#000000;stroke-linecap:square;stroke-linejoin:miter;stroke-width:0.8;"/>
   </g>
   <g id="patch_5">
    <path d="M 72 384.48 
L 518.4 384.48 
" style="fill:none;stroke:#000000;stroke-linecap:square;stroke-linejoin:miter;stroke-width:0.8;"/>
   </g>
   <g id="patch_6">
    <path d="M 72 51.84 
L 518.4 51.84 
" style="fill:none;stroke:#000000;stroke-linecap:square;stroke-linejoin:miter;stroke-width:0.8;"/>
   </g>
   <g id="legend_1">
    <g id="patch_7">
     <path d="M 79 379.48 
L 165.804688 379.48 
Q 167.804688 379.48 167.804688 377.48 
L 167.804688 275.733125 
Q 167.804688 273.733125 165.804688 273.733125 
L 79 273.733125 
Q 77 273.733125 77 275.733125 
L 77 377.48 
Q 77 379.48 79 379.48 
z
" style="fill:#ffffff;opacity:0.8;stroke:#cccccc;stroke-linejoin:miter;"/>
    </g>
    <g id="line2d_36">
     <path d="M 81 281.831563 
L 101 281.831563 
" style="fill:none;stroke:#1f77b4;stroke-linecap:square;stroke-width:1.5;"/>
    </g>
    <g id="line2d_37"/>
    <g id="text_17">
     <!-- Constant -->
     <defs>
      <path d="M 64.40625 67.28125 
L 64.40625 56.890625 
Q 59.421875 61.53125 53.78125 63.8125 
Q 48.140625 66.109375 41.796875 66.109375 
Q 29.296875 66.109375 22.65625 58.46875 
Q 16.015625 50.828125 16.015625 36.375 
Q 16.015625 21.96875 22.65625 14.328125 
Q 29.296875 6.6875 41.796875 6.6875 
Q 48.140625 6.6875 53.78125 8.984375 
Q 59.421875 11.28125 64.40625 15.921875 
L 64.40625 5.609375 
Q 59.234375 2.09375 53.4375 0.328125 
Q 47.65625 -1.421875 41.21875 -1.421875 
Q 24.65625 -1.421875 15.125 8.703125 
Q 5.609375 18.84375 5.609375 36.375 
Q 5.609375 53.953125 15.125 64.078125 
Q 24.65625 74.21875 41.21875 74.21875 
Q 47.75 74.21875 53.53125 72.484375 
Q 59.328125 70.75 64.40625 67.28125 
z
" id="DejaVuSans-67"/>
      <path d="M 44.28125 53.078125 
L 44.28125 44.578125 
Q 40.484375 46.53125 36.375 47.5 
Q 32.28125 48.484375 27.875 48.484375 
Q 21.1875 48.484375 17.84375 46.4375 
Q 14.5 44.390625 14.5 40.28125 
Q 14.5 37.15625 16.890625 35.375 
Q 19.28125 33.59375 26.515625 31.984375 
L 29.59375 31.296875 
Q 39.15625 29.25 43.1875 25.515625 
Q 47.21875 21.78125 47.21875 15.09375 
Q 47.21875 7.46875 41.1875 3.015625 
Q 35.15625 -1.421875 24.609375 -1.421875 
Q 20.21875 -1.421875 15.453125 -0.5625 
Q 10.6875 0.296875 5.421875 2 
L 5.421875 11.28125 
Q 10.40625 8.6875 15.234375 7.390625 
Q 20.0625 6.109375 24.8125 6.109375 
Q 31.15625 6.109375 34.5625 8.28125 
Q 37.984375 10.453125 37.984375 14.40625 
Q 37.984375 18.0625 35.515625 20.015625 
Q 33.0625 21.96875 24.703125 23.78125 
L 21.578125 24.515625 
Q 13.234375 26.265625 9.515625 29.90625 
Q 5.8125 33.546875 5.8125 39.890625 
Q 5.8125 47.609375 11.28125 51.796875 
Q 16.75 56 26.8125 56 
Q 31.78125 56 36.171875 55.265625 
Q 40.578125 54.546875 44.28125 53.078125 
z
" id="DejaVuSans-115"/>
     </defs>
     <g transform="translate(109 285.331563)scale(0.1 -0.1)">
      <use xlink:href="#DejaVuSans-67"/>
      <use x="69.824219" xlink:href="#DejaVuSans-111"/>
      <use x="131.005859" xlink:href="#DejaVuSans-110"/>
      <use x="194.384766" xlink:href="#DejaVuSans-115"/>
      <use x="246.484375" xlink:href="#DejaVuSans-116"/>
      <use x="285.693359" xlink:href="#DejaVuSans-97"/>
      <use x="346.972656" xlink:href="#DejaVuSans-110"/>
      <use x="410.351562" xlink:href="#DejaVuSans-116"/>
     </g>
    </g>
    <g id="line2d_38">
     <path d="M 81 296.509688 
L 101 296.509688 
" style="fill:none;stroke:#ff7f0e;stroke-linecap:square;stroke-width:1.5;"/>
    </g>
    <g id="line2d_39"/>
    <g id="text_18">
     <!-- RBF -->
     <defs>
      <path d="M 44.390625 34.1875 
Q 47.5625 33.109375 50.5625 29.59375 
Q 53.5625 26.078125 56.59375 19.921875 
L 66.609375 0 
L 56 0 
L 46.6875 18.703125 
Q 43.0625 26.03125 39.671875 28.421875 
Q 36.28125 30.8125 30.421875 30.8125 
L 19.671875 30.8125 
L 19.671875 0 
L 9.8125 0 
L 9.8125 72.90625 
L 32.078125 72.90625 
Q 44.578125 72.90625 50.734375 67.671875 
Q 56.890625 62.453125 56.890625 51.90625 
Q 56.890625 45.015625 53.6875 40.46875 
Q 50.484375 35.9375 44.390625 34.1875 
z
M 19.671875 64.796875 
L 19.671875 38.921875 
L 32.078125 38.921875 
Q 39.203125 38.921875 42.84375 42.21875 
Q 46.484375 45.515625 46.484375 51.90625 
Q 46.484375 58.296875 42.84375 61.546875 
Q 39.203125 64.796875 32.078125 64.796875 
z
" id="DejaVuSans-82"/>
      <path d="M 19.671875 34.8125 
L 19.671875 8.109375 
L 35.5 8.109375 
Q 43.453125 8.109375 47.28125 11.40625 
Q 51.125 14.703125 51.125 21.484375 
Q 51.125 28.328125 47.28125 31.5625 
Q 43.453125 34.8125 35.5 34.8125 
z
M 19.671875 64.796875 
L 19.671875 42.828125 
L 34.28125 42.828125 
Q 41.5 42.828125 45.03125 45.53125 
Q 48.578125 48.25 48.578125 53.8125 
Q 48.578125 59.328125 45.03125 62.0625 
Q 41.5 64.796875 34.28125 64.796875 
z
M 9.8125 72.90625 
L 35.015625 72.90625 
Q 46.296875 72.90625 52.390625 68.21875 
Q 58.5 63.53125 58.5 54.890625 
Q 58.5 48.1875 55.375 44.234375 
Q 52.25 40.28125 46.1875 39.3125 
Q 53.46875 37.75 57.5 32.78125 
Q 61.53125 27.828125 61.53125 20.40625 
Q 61.53125 10.640625 54.890625 5.3125 
Q 48.25 0 35.984375 0 
L 9.8125 0 
z
" id="DejaVuSans-66"/>
      <path d="M 9.8125 72.90625 
L 51.703125 72.90625 
L 51.703125 64.59375 
L 19.671875 64.59375 
L 19.671875 43.109375 
L 48.578125 43.109375 
L 48.578125 34.8125 
L 19.671875 34.8125 
L 19.671875 0 
L 9.8125 0 
z
" id="DejaVuSans-70"/>
     </defs>
     <g transform="translate(109 300.009688)scale(0.1 -0.1)">
      <use xlink:href="#DejaVuSans-82"/>
      <use x="69.482422" xlink:href="#DejaVuSans-66"/>
      <use x="138.085938" xlink:href="#DejaVuSans-70"/>
     </g>
    </g>
    <g id="line2d_40">
     <path d="M 81 311.187813 
L 101 311.187813 
" style="fill:none;stroke:#2ca02c;stroke-linecap:square;stroke-width:1.5;"/>
    </g>
    <g id="line2d_41"/>
    <g id="text_19">
     <!-- Matrn-1/2 -->
     <defs>
      <path d="M 9.8125 72.90625 
L 24.515625 72.90625 
L 43.109375 23.296875 
L 61.8125 72.90625 
L 76.515625 72.90625 
L 76.515625 0 
L 66.890625 0 
L 66.890625 64.015625 
L 48.09375 14.015625 
L 38.1875 14.015625 
L 19.390625 64.015625 
L 19.390625 0 
L 9.8125 0 
z
" id="DejaVuSans-77"/>
      <path d="M 56.203125 29.59375 
L 56.203125 25.203125 
L 14.890625 25.203125 
Q 15.484375 15.921875 20.484375 11.0625 
Q 25.484375 6.203125 34.421875 6.203125 
Q 39.59375 6.203125 44.453125 7.46875 
Q 49.3125 8.734375 54.109375 11.28125 
L 54.109375 2.78125 
Q 49.265625 0.734375 44.1875 -0.34375 
Q 39.109375 -1.421875 33.890625 -1.421875 
Q 20.796875 -1.421875 13.15625 6.1875 
Q 5.515625 13.8125 5.515625 26.8125 
Q 5.515625 40.234375 12.765625 48.109375 
Q 20.015625 56 32.328125 56 
Q 43.359375 56 49.78125 48.890625 
Q 56.203125 41.796875 56.203125 29.59375 
z
M 47.21875 32.234375 
Q 47.125 39.59375 43.09375 43.984375 
Q 39.0625 48.390625 32.421875 48.390625 
Q 24.90625 48.390625 20.390625 44.140625 
Q 15.875 39.890625 15.1875 32.171875 
z
M 38.53125 79.984375 
L 48.25 79.984375 
L 32.34375 61.625 
L 24.859375 61.625 
z
" id="DejaVuSans-233"/>
      <path d="M 4.890625 31.390625 
L 31.203125 31.390625 
L 31.203125 23.390625 
L 4.890625 23.390625 
z
" id="DejaVuSans-45"/>
      <path d="M 25.390625 72.90625 
L 33.6875 72.90625 
L 8.296875 -9.28125 
L 0 -9.28125 
z
" id="DejaVuSans-47"/>
     </defs>
     <g transform="translate(109 314.687813)scale(0.1 -0.1)">
      <use xlink:href="#DejaVuSans-77"/>
      <use x="86.279297" xlink:href="#DejaVuSans-97"/>
      <use x="147.558594" xlink:href="#DejaVuSans-116"/>
      <use x="186.767578" xlink:href="#DejaVuSans-233"/>
      <use x="248.291016" xlink:href="#DejaVuSans-114"/>
      <use x="287.654297" xlink:href="#DejaVuSans-110"/>
      <use x="351.033203" xlink:href="#DejaVuSans-45"/>
      <use x="387.117188" xlink:href="#DejaVuSans-49"/>
      <use x="450.740234" xlink:href="#DejaVuSans-47"/>
      <use x="484.431641" xlink:href="#DejaVuSans-50"/>
     </g>
    </g>
    <g id="line2d_42">
     <path d="M 81 325.865938 
L 101 325.865938 
" style="fill:none;stroke:#d62728;stroke-linecap:square;stroke-width:1.5;"/>
    </g>
    <g id="line2d_43"/>
    <g id="text_20">
     <!-- Matrn-3/2 -->
     <g transform="translate(109 329.365938)scale(0.1 -0.1)">
      <use xlink:href="#DejaVuSans-77"/>
      <use x="86.279297" xlink:href="#DejaVuSans-97"/>
      <use x="147.558594" xlink:href="#DejaVuSans-116"/>
      <use x="186.767578" xlink:href="#DejaVuSans-233"/>
      <use x="248.291016" xlink:href="#DejaVuSans-114"/>
      <use x="287.654297" xlink:href="#DejaVuSans-110"/>
      <use x="351.033203" xlink:href="#DejaVuSans-45"/>
      <use x="387.117188" xlink:href="#DejaVuSans-51"/>
      <use x="450.740234" xlink:href="#DejaVuSans-47"/>
      <use x="484.431641" xlink:href="#DejaVuSans-50"/>
     </g>
    </g>
    <g id="line2d_44">
     <path d="M 81 340.544062 
L 101 340.544062 
" style="fill:none;stroke:#9467bd;stroke-linecap:square;stroke-width:1.5;"/>
    </g>
    <g id="line2d_45"/>
    <g id="text_21">
     <!-- Matrn-5/2 -->
     <g transform="translate(109 344.044062)scale(0.1 -0.1)">
      <use xlink:href="#DejaVuSans-77"/>
      <use x="86.279297" xlink:href="#DejaVuSans-97"/>
      <use x="147.558594" xlink:href="#DejaVuSans-116"/>
      <use x="186.767578" xlink:href="#DejaVuSans-233"/>
      <use x="248.291016" xlink:href="#DejaVuSans-114"/>
      <use x="287.654297" xlink:href="#DejaVuSans-110"/>
      <use x="351.033203" xlink:href="#DejaVuSans-45"/>
      <use x="387.117188" xlink:href="#DejaVuSans-53"/>
      <use x="450.740234" xlink:href="#DejaVuSans-47"/>
      <use x="484.431641" xlink:href="#DejaVuSans-50"/>
     </g>
    </g>
    <g id="line2d_46">
     <path d="M 81 355.222188 
L 101 355.222188 
" style="fill:none;stroke:#8c564b;stroke-linecap:square;stroke-width:1.5;"/>
    </g>
    <g id="line2d_47"/>
    <g id="text_22">
     <!-- RQ -->
     <defs>
      <path d="M 39.40625 66.21875 
Q 28.65625 66.21875 22.328125 58.203125 
Q 16.015625 50.203125 16.015625 36.375 
Q 16.015625 22.609375 22.328125 14.59375 
Q 28.65625 6.59375 39.40625 6.59375 
Q 50.140625 6.59375 56.421875 14.59375 
Q 62.703125 22.609375 62.703125 36.375 
Q 62.703125 50.203125 56.421875 58.203125 
Q 50.140625 66.21875 39.40625 66.21875 
z
M 53.21875 1.3125 
L 66.21875 -12.890625 
L 54.296875 -12.890625 
L 43.5 -1.21875 
Q 41.890625 -1.3125 41.03125 -1.359375 
Q 40.1875 -1.421875 39.40625 -1.421875 
Q 24.03125 -1.421875 14.8125 8.859375 
Q 5.609375 19.140625 5.609375 36.375 
Q 5.609375 53.65625 14.8125 63.9375 
Q 24.03125 74.21875 39.40625 74.21875 
Q 54.734375 74.21875 63.90625 63.9375 
Q 73.09375 53.65625 73.09375 36.375 
Q 73.09375 23.6875 67.984375 14.640625 
Q 62.890625 5.609375 53.21875 1.3125 
z
" id="DejaVuSans-81"/>
     </defs>
     <g transform="translate(109 358.722188)scale(0.1 -0.1)">
      <use xlink:href="#DejaVuSans-82"/>
      <use x="69.482422" xlink:href="#DejaVuSans-81"/>
     </g>
    </g>
    <g id="line2d_48">
     <path d="M 81 369.900313 
L 101 369.900313 
" style="fill:none;stroke:#e377c2;stroke-linecap:square;stroke-width:1.5;"/>
    </g>
    <g id="line2d_49"/>
    <g id="text_23">
     <!-- Dot Prod. -->
     <defs>
      <path d="M 19.671875 64.796875 
L 19.671875 8.109375 
L 31.59375 8.109375 
Q 46.6875 8.109375 53.6875 14.9375 
Q 60.6875 21.78125 60.6875 36.53125 
Q 60.6875 51.171875 53.6875 57.984375 
Q 46.6875 64.796875 31.59375 64.796875 
z
M 9.8125 72.90625 
L 30.078125 72.90625 
Q 51.265625 72.90625 61.171875 64.09375 
Q 71.09375 55.28125 71.09375 36.53125 
Q 71.09375 17.671875 61.125 8.828125 
Q 51.171875 0 30.078125 0 
L 9.8125 0 
z
" id="DejaVuSans-68"/>
      <path d="M 19.671875 64.796875 
L 19.671875 37.40625 
L 32.078125 37.40625 
Q 38.96875 37.40625 42.71875 40.96875 
Q 46.484375 44.53125 46.484375 51.125 
Q 46.484375 57.671875 42.71875 61.234375 
Q 38.96875 64.796875 32.078125 64.796875 
z
M 9.8125 72.90625 
L 32.078125 72.90625 
Q 44.34375 72.90625 50.609375 67.359375 
Q 56.890625 61.8125 56.890625 51.125 
Q 56.890625 40.328125 50.609375 34.8125 
Q 44.34375 29.296875 32.078125 29.296875 
L 19.671875 29.296875 
L 19.671875 0 
L 9.8125 0 
z
" id="DejaVuSans-80"/>
      <path d="M 10.6875 12.40625 
L 21 12.40625 
L 21 0 
L 10.6875 0 
z
" id="DejaVuSans-46"/>
     </defs>
     <g transform="translate(109 373.400313)scale(0.1 -0.1)">
      <use xlink:href="#DejaVuSans-68"/>
      <use x="77.001953" xlink:href="#DejaVuSans-111"/>
      <use x="138.183594" xlink:href="#DejaVuSans-116"/>
      <use x="177.392578" xlink:href="#DejaVuSans-32"/>
      <use x="209.179688" xlink:href="#DejaVuSans-80"/>
      <use x="267.732422" xlink:href="#DejaVuSans-114"/>
      <use x="306.595703" xlink:href="#DejaVuSans-111"/>
      <use x="367.777344" xlink:href="#DejaVuSans-100"/>
      <use x="431.253906" xlink:href="#DejaVuSans-46"/>
     </g>
    </g>
   </g>
  </g>
 </g>
 <defs>
  <clipPath id="pcab4e43a17">
   <rect height="332.64" width="446.4" x="72" y="51.84"/>
  </clipPath>
 </defs>
</svg>
