<?xml version="1.0" encoding="utf-8" standalone="no"?>
<!DOCTYPE svg PUBLIC "-//W3C//DTD SVG 1.1//EN"
  "http://www.w3.org/Graphics/SVG/1.1/DTD/svg11.dtd">
<!-- Created with matplotlib (https://matplotlib.org/) -->
<svg height="288pt" version="1.1" viewBox="0 0 288 288" width="288pt" xmlns="http://www.w3.org/2000/svg" xmlns:xlink="http://www.w3.org/1999/xlink">
 <defs>
  <style type="text/css">
*{stroke-linecap:butt;stroke-linejoin:round;}
  </style>
 </defs>
 <g id="figure_1">
  <g id="patch_1">
   <path d="M 0 288 
L 288 288 
L 288 0 
L 0 0 
z
" style="fill:#ffffff;"/>
  </g>
  <g id="axes_1">
   <g id="patch_2">
    <path d="M 40.796161 259.665354 
L 285.165354 259.665354 
L 285.165354 2.834646 
L 40.796161 2.834646 
z
" style="fill:#ffffff;"/>
   </g>
   <g id="matplotlib.axis_1">
    <g id="xtick_1">
     <g id="line2d_1">
      <path clip-path="url(#p72cfe14492)" d="M 46.559585 259.665354 
L 46.559585 2.834646 
" style="fill:none;stroke:#000000;stroke-linecap:square;stroke-opacity:0.1;stroke-width:0.5;"/>
     </g>
     <g id="line2d_2">
      <defs>
       <path d="M 0 0 
L 0 -3.5 
" id="m2b7a88af38" style="stroke:#000000;stroke-width:0.8;"/>
      </defs>
      <g>
       <use style="stroke:#000000;stroke-width:0.8;" x="46.559585" xlink:href="#m2b7a88af38" y="259.665354"/>
      </g>
     </g>
     <g id="text_1">
      <!-- 0 -->
      <defs>
       <path d="M 31.78125 66.40625 
Q 24.171875 66.40625 20.328125 58.90625 
Q 16.5 51.421875 16.5 36.375 
Q 16.5 21.390625 20.328125 13.890625 
Q 24.171875 6.390625 31.78125 6.390625 
Q 39.453125 6.390625 43.28125 13.890625 
Q 47.125 21.390625 47.125 36.375 
Q 47.125 51.421875 43.28125 58.90625 
Q 39.453125 66.40625 31.78125 66.40625 
z
M 31.78125 74.21875 
Q 44.046875 74.21875 50.515625 64.515625 
Q 56.984375 54.828125 56.984375 36.375 
Q 56.984375 17.96875 50.515625 8.265625 
Q 44.046875 -1.421875 31.78125 -1.421875 
Q 19.53125 -1.421875 13.0625 8.265625 
Q 6.59375 17.96875 6.59375 36.375 
Q 6.59375 54.828125 13.0625 64.515625 
Q 19.53125 74.21875 31.78125 74.21875 
z
" id="DejaVuSans-48"/>
      </defs>
      <g transform="translate(44.014585 269.244104)scale(0.08 -0.08)">
       <use xlink:href="#DejaVuSans-48"/>
      </g>
     </g>
    </g>
    <g id="xtick_2">
     <g id="line2d_3">
      <path clip-path="url(#p72cfe14492)" d="M 104.193829 259.665354 
L 104.193829 2.834646 
" style="fill:none;stroke:#000000;stroke-linecap:square;stroke-opacity:0.1;stroke-width:0.5;"/>
     </g>
     <g id="line2d_4">
      <g>
       <use style="stroke:#000000;stroke-width:0.8;" x="104.193829" xlink:href="#m2b7a88af38" y="259.665354"/>
      </g>
     </g>
     <g id="text_2">
      <!-- 50 -->
      <defs>
       <path d="M 10.796875 72.90625 
L 49.515625 72.90625 
L 49.515625 64.59375 
L 19.828125 64.59375 
L 19.828125 46.734375 
Q 21.96875 47.46875 24.109375 47.828125 
Q 26.265625 48.1875 28.421875 48.1875 
Q 40.625 48.1875 47.75 41.5 
Q 54.890625 34.8125 54.890625 23.390625 
Q 54.890625 11.625 47.5625 5.09375 
Q 40.234375 -1.421875 26.90625 -1.421875 
Q 22.3125 -1.421875 17.546875 -0.640625 
Q 12.796875 0.140625 7.71875 1.703125 
L 7.71875 11.625 
Q 12.109375 9.234375 16.796875 8.0625 
Q 21.484375 6.890625 26.703125 6.890625 
Q 35.15625 6.890625 40.078125 11.328125 
Q 45.015625 15.765625 45.015625 23.390625 
Q 45.015625 31 40.078125 35.4375 
Q 35.15625 39.890625 26.703125 39.890625 
Q 22.75 39.890625 18.8125 39.015625 
Q 14.890625 38.140625 10.796875 36.28125 
z
" id="DejaVuSans-53"/>
      </defs>
      <g transform="translate(99.103829 269.244104)scale(0.08 -0.08)">
       <use xlink:href="#DejaVuSans-53"/>
       <use x="63.623047" xlink:href="#DejaVuSans-48"/>
      </g>
     </g>
    </g>
    <g id="xtick_3">
     <g id="line2d_5">
      <path clip-path="url(#p72cfe14492)" d="M 161.828073 259.665354 
L 161.828073 2.834646 
" style="fill:none;stroke:#000000;stroke-linecap:square;stroke-opacity:0.1;stroke-width:0.5;"/>
     </g>
     <g id="line2d_6">
      <g>
       <use style="stroke:#000000;stroke-width:0.8;" x="161.828073" xlink:href="#m2b7a88af38" y="259.665354"/>
      </g>
     </g>
     <g id="text_3">
      <!-- 100 -->
      <defs>
       <path d="M 12.40625 8.296875 
L 28.515625 8.296875 
L 28.515625 63.921875 
L 10.984375 60.40625 
L 10.984375 69.390625 
L 28.421875 72.90625 
L 38.28125 72.90625 
L 38.28125 8.296875 
L 54.390625 8.296875 
L 54.390625 0 
L 12.40625 0 
z
" id="DejaVuSans-49"/>
      </defs>
      <g transform="translate(154.193073 269.244104)scale(0.08 -0.08)">
       <use xlink:href="#DejaVuSans-49"/>
       <use x="63.623047" xlink:href="#DejaVuSans-48"/>
       <use x="127.246094" xlink:href="#DejaVuSans-48"/>
      </g>
     </g>
    </g>
    <g id="xtick_4">
     <g id="line2d_7">
      <path clip-path="url(#p72cfe14492)" d="M 219.462316 259.665354 
L 219.462316 2.834646 
" style="fill:none;stroke:#000000;stroke-linecap:square;stroke-opacity:0.1;stroke-width:0.5;"/>
     </g>
     <g id="line2d_8">
      <g>
       <use style="stroke:#000000;stroke-width:0.8;" x="219.462316" xlink:href="#m2b7a88af38" y="259.665354"/>
      </g>
     </g>
     <g id="text_4">
      <!-- 150 -->
      <g transform="translate(211.827316 269.244104)scale(0.08 -0.08)">
       <use xlink:href="#DejaVuSans-49"/>
       <use x="63.623047" xlink:href="#DejaVuSans-53"/>
       <use x="127.246094" xlink:href="#DejaVuSans-48"/>
      </g>
     </g>
    </g>
    <g id="xtick_5">
     <g id="line2d_9">
      <path clip-path="url(#p72cfe14492)" d="M 277.09656 259.665354 
L 277.09656 2.834646 
" style="fill:none;stroke:#000000;stroke-linecap:square;stroke-opacity:0.1;stroke-width:0.5;"/>
     </g>
     <g id="line2d_10">
      <g>
       <use style="stroke:#000000;stroke-width:0.8;" x="277.09656" xlink:href="#m2b7a88af38" y="259.665354"/>
      </g>
     </g>
     <g id="text_5">
      <!-- 200 -->
      <defs>
       <path d="M 19.1875 8.296875 
L 53.609375 8.296875 
L 53.609375 0 
L 7.328125 0 
L 7.328125 8.296875 
Q 12.9375 14.109375 22.625 23.890625 
Q 32.328125 33.6875 34.8125 36.53125 
Q 39.546875 41.84375 41.421875 45.53125 
Q 43.3125 49.21875 43.3125 52.78125 
Q 43.3125 58.59375 39.234375 62.25 
Q 35.15625 65.921875 28.609375 65.921875 
Q 23.96875 65.921875 18.8125 64.3125 
Q 13.671875 62.703125 7.8125 59.421875 
L 7.8125 69.390625 
Q 13.765625 71.78125 18.9375 73 
Q 24.125 74.21875 28.421875 74.21875 
Q 39.75 74.21875 46.484375 68.546875 
Q 53.21875 62.890625 53.21875 53.421875 
Q 53.21875 48.921875 51.53125 44.890625 
Q 49.859375 40.875 45.40625 35.40625 
Q 44.1875 33.984375 37.640625 27.21875 
Q 31.109375 20.453125 19.1875 8.296875 
z
" id="DejaVuSans-50"/>
      </defs>
      <g transform="translate(269.46156 269.244104)scale(0.08 -0.08)">
       <use xlink:href="#DejaVuSans-50"/>
       <use x="63.623047" xlink:href="#DejaVuSans-48"/>
       <use x="127.246094" xlink:href="#DejaVuSans-48"/>
      </g>
     </g>
    </g>
    <g id="text_6">
     <!-- Iteration -->
     <defs>
      <path d="M 9.8125 72.90625 
L 19.671875 72.90625 
L 19.671875 0 
L 9.8125 0 
z
" id="DejaVuSans-73"/>
      <path d="M 18.3125 70.21875 
L 18.3125 54.6875 
L 36.8125 54.6875 
L 36.8125 47.703125 
L 18.3125 47.703125 
L 18.3125 18.015625 
Q 18.3125 11.328125 20.140625 9.421875 
Q 21.96875 7.515625 27.59375 7.515625 
L 36.8125 7.515625 
L 36.8125 0 
L 27.59375 0 
Q 17.1875 0 13.234375 3.875 
Q 9.28125 7.765625 9.28125 18.015625 
L 9.28125 47.703125 
L 2.6875 47.703125 
L 2.6875 54.6875 
L 9.28125 54.6875 
L 9.28125 70.21875 
z
" id="DejaVuSans-116"/>
      <path d="M 56.203125 29.59375 
L 56.203125 25.203125 
L 14.890625 25.203125 
Q 15.484375 15.921875 20.484375 11.0625 
Q 25.484375 6.203125 34.421875 6.203125 
Q 39.59375 6.203125 44.453125 7.46875 
Q 49.3125 8.734375 54.109375 11.28125 
L 54.109375 2.78125 
Q 49.265625 0.734375 44.1875 -0.34375 
Q 39.109375 -1.421875 33.890625 -1.421875 
Q 20.796875 -1.421875 13.15625 6.1875 
Q 5.515625 13.8125 5.515625 26.8125 
Q 5.515625 40.234375 12.765625 48.109375 
Q 20.015625 56 32.328125 56 
Q 43.359375 56 49.78125 48.890625 
Q 56.203125 41.796875 56.203125 29.59375 
z
M 47.21875 32.234375 
Q 47.125 39.59375 43.09375 43.984375 
Q 39.0625 48.390625 32.421875 48.390625 
Q 24.90625 48.390625 20.390625 44.140625 
Q 15.875 39.890625 15.1875 32.171875 
z
" id="DejaVuSans-101"/>
      <path d="M 41.109375 46.296875 
Q 39.59375 47.171875 37.8125 47.578125 
Q 36.03125 48 33.890625 48 
Q 26.265625 48 22.1875 43.046875 
Q 18.109375 38.09375 18.109375 28.8125 
L 18.109375 0 
L 9.078125 0 
L 9.078125 54.6875 
L 18.109375 54.6875 
L 18.109375 46.1875 
Q 20.953125 51.171875 25.484375 53.578125 
Q 30.03125 56 36.53125 56 
Q 37.453125 56 38.578125 55.875 
Q 39.703125 55.765625 41.0625 55.515625 
z
" id="DejaVuSans-114"/>
      <path d="M 34.28125 27.484375 
Q 23.390625 27.484375 19.1875 25 
Q 14.984375 22.515625 14.984375 16.5 
Q 14.984375 11.71875 18.140625 8.90625 
Q 21.296875 6.109375 26.703125 6.109375 
Q 34.1875 6.109375 38.703125 11.40625 
Q 43.21875 16.703125 43.21875 25.484375 
L 43.21875 27.484375 
z
M 52.203125 31.203125 
L 52.203125 0 
L 43.21875 0 
L 43.21875 8.296875 
Q 40.140625 3.328125 35.546875 0.953125 
Q 30.953125 -1.421875 24.3125 -1.421875 
Q 15.921875 -1.421875 10.953125 3.296875 
Q 6 8.015625 6 15.921875 
Q 6 25.140625 12.171875 29.828125 
Q 18.359375 34.515625 30.609375 34.515625 
L 43.21875 34.515625 
L 43.21875 35.40625 
Q 43.21875 41.609375 39.140625 45 
Q 35.0625 48.390625 27.6875 48.390625 
Q 23 48.390625 18.546875 47.265625 
Q 14.109375 46.140625 10.015625 43.890625 
L 10.015625 52.203125 
Q 14.9375 54.109375 19.578125 55.046875 
Q 24.21875 56 28.609375 56 
Q 40.484375 56 46.34375 49.84375 
Q 52.203125 43.703125 52.203125 31.203125 
z
" id="DejaVuSans-97"/>
      <path d="M 9.421875 54.6875 
L 18.40625 54.6875 
L 18.40625 0 
L 9.421875 0 
z
M 9.421875 75.984375 
L 18.40625 75.984375 
L 18.40625 64.59375 
L 9.421875 64.59375 
z
" id="DejaVuSans-105"/>
      <path d="M 30.609375 48.390625 
Q 23.390625 48.390625 19.1875 42.75 
Q 14.984375 37.109375 14.984375 27.296875 
Q 14.984375 17.484375 19.15625 11.84375 
Q 23.34375 6.203125 30.609375 6.203125 
Q 37.796875 6.203125 41.984375 11.859375 
Q 46.1875 17.53125 46.1875 27.296875 
Q 46.1875 37.015625 41.984375 42.703125 
Q 37.796875 48.390625 30.609375 48.390625 
z
M 30.609375 56 
Q 42.328125 56 49.015625 48.375 
Q 55.71875 40.765625 55.71875 27.296875 
Q 55.71875 13.875 49.015625 6.21875 
Q 42.328125 -1.421875 30.609375 -1.421875 
Q 18.84375 -1.421875 12.171875 6.21875 
Q 5.515625 13.875 5.515625 27.296875 
Q 5.515625 40.765625 12.171875 48.375 
Q 18.84375 56 30.609375 56 
z
" id="DejaVuSans-111"/>
      <path d="M 54.890625 33.015625 
L 54.890625 0 
L 45.90625 0 
L 45.90625 32.71875 
Q 45.90625 40.484375 42.875 44.328125 
Q 39.84375 48.1875 33.796875 48.1875 
Q 26.515625 48.1875 22.3125 43.546875 
Q 18.109375 38.921875 18.109375 30.90625 
L 18.109375 0 
L 9.078125 0 
L 9.078125 54.6875 
L 18.109375 54.6875 
L 18.109375 46.1875 
Q 21.34375 51.125 25.703125 53.5625 
Q 30.078125 56 35.796875 56 
Q 45.21875 56 50.046875 50.171875 
Q 54.890625 44.34375 54.890625 33.015625 
z
" id="DejaVuSans-110"/>
     </defs>
     <g transform="translate(139.651304 283.266136)scale(0.11 -0.11)">
      <use xlink:href="#DejaVuSans-73"/>
      <use x="29.492188" xlink:href="#DejaVuSans-116"/>
      <use x="68.701172" xlink:href="#DejaVuSans-101"/>
      <use x="130.224609" xlink:href="#DejaVuSans-114"/>
      <use x="171.337891" xlink:href="#DejaVuSans-97"/>
      <use x="232.617188" xlink:href="#DejaVuSans-116"/>
      <use x="271.826172" xlink:href="#DejaVuSans-105"/>
      <use x="299.609375" xlink:href="#DejaVuSans-111"/>
      <use x="360.791016" xlink:href="#DejaVuSans-110"/>
     </g>
    </g>
   </g>
   <g id="matplotlib.axis_2">
    <g id="ytick_1">
     <g id="line2d_11">
      <path clip-path="url(#p72cfe14492)" d="M 40.796161 226.084889 
L 285.165354 226.084889 
" style="fill:none;stroke:#000000;stroke-linecap:square;stroke-opacity:0.1;stroke-width:0.5;"/>
     </g>
     <g id="line2d_12">
      <defs>
       <path d="M 0 0 
L 3.5 0 
" id="m6467f9b3f4" style="stroke:#000000;stroke-width:0.8;"/>
      </defs>
      <g>
       <use style="stroke:#000000;stroke-width:0.8;" x="40.796161" xlink:href="#m6467f9b3f4" y="226.084889"/>
      </g>
     </g>
     <g id="text_7">
      <!-- $10^{-4}$ -->
      <defs>
       <path d="M 10.59375 35.5 
L 73.1875 35.5 
L 73.1875 27.203125 
L 10.59375 27.203125 
z
" id="DejaVuSans-8722"/>
       <path d="M 37.796875 64.3125 
L 12.890625 25.390625 
L 37.796875 25.390625 
z
M 35.203125 72.90625 
L 47.609375 72.90625 
L 47.609375 25.390625 
L 58.015625 25.390625 
L 58.015625 17.1875 
L 47.609375 17.1875 
L 47.609375 0 
L 37.796875 0 
L 37.796875 17.1875 
L 4.890625 17.1875 
L 4.890625 26.703125 
z
" id="DejaVuSans-52"/>
      </defs>
      <g transform="translate(18.496161 229.124264)scale(0.08 -0.08)">
       <use transform="translate(0 0.684375)" xlink:href="#DejaVuSans-49"/>
       <use transform="translate(63.623047 0.684375)" xlink:href="#DejaVuSans-48"/>
       <use transform="translate(128.203125 38.965625)scale(0.7)" xlink:href="#DejaVuSans-8722"/>
       <use transform="translate(186.855469 38.965625)scale(0.7)" xlink:href="#DejaVuSans-52"/>
      </g>
     </g>
    </g>
    <g id="ytick_2">
     <g id="line2d_13">
      <path clip-path="url(#p72cfe14492)" d="M 40.796161 159.518798 
L 285.165354 159.518798 
" style="fill:none;stroke:#000000;stroke-linecap:square;stroke-opacity:0.1;stroke-width:0.5;"/>
     </g>
     <g id="line2d_14">
      <g>
       <use style="stroke:#000000;stroke-width:0.8;" x="40.796161" xlink:href="#m6467f9b3f4" y="159.518798"/>
      </g>
     </g>
     <g id="text_8">
      <!-- $10^{-2}$ -->
      <g transform="translate(18.496161 162.558173)scale(0.08 -0.08)">
       <use transform="translate(0 0.765625)" xlink:href="#DejaVuSans-49"/>
       <use transform="translate(63.623047 0.765625)" xlink:href="#DejaVuSans-48"/>
       <use transform="translate(128.203125 39.046875)scale(0.7)" xlink:href="#DejaVuSans-8722"/>
       <use transform="translate(186.855469 39.046875)scale(0.7)" xlink:href="#DejaVuSans-50"/>
      </g>
     </g>
    </g>
    <g id="ytick_3">
     <g id="line2d_15">
      <path clip-path="url(#p72cfe14492)" d="M 40.796161 92.952708 
L 285.165354 92.952708 
" style="fill:none;stroke:#000000;stroke-linecap:square;stroke-opacity:0.1;stroke-width:0.5;"/>
     </g>
     <g id="line2d_16">
      <g>
       <use style="stroke:#000000;stroke-width:0.8;" x="40.796161" xlink:href="#m6467f9b3f4" y="92.952708"/>
      </g>
     </g>
     <g id="text_9">
      <!-- $10^{0}$ -->
      <g transform="translate(23.216161 95.992083)scale(0.08 -0.08)">
       <use transform="translate(0 0.765625)" xlink:href="#DejaVuSans-49"/>
       <use transform="translate(63.623047 0.765625)" xlink:href="#DejaVuSans-48"/>
       <use transform="translate(128.203125 39.046875)scale(0.7)" xlink:href="#DejaVuSans-48"/>
      </g>
     </g>
    </g>
    <g id="ytick_4">
     <g id="line2d_17">
      <path clip-path="url(#p72cfe14492)" d="M 40.796161 26.386617 
L 285.165354 26.386617 
" style="fill:none;stroke:#000000;stroke-linecap:square;stroke-opacity:0.1;stroke-width:0.5;"/>
     </g>
     <g id="line2d_18">
      <g>
       <use style="stroke:#000000;stroke-width:0.8;" x="40.796161" xlink:href="#m6467f9b3f4" y="26.386617"/>
      </g>
     </g>
     <g id="text_10">
      <!-- $10^{2}$ -->
      <g transform="translate(23.216161 29.425992)scale(0.08 -0.08)">
       <use transform="translate(0 0.765625)" xlink:href="#DejaVuSans-49"/>
       <use transform="translate(63.623047 0.765625)" xlink:href="#DejaVuSans-48"/>
       <use transform="translate(128.203125 39.046875)scale(0.7)" xlink:href="#DejaVuSans-50"/>
      </g>
     </g>
    </g>
    <g id="ytick_5">
     <g id="line2d_19">
      <defs>
       <path d="M 0 0 
L -2 0 
" id="mad60a1f22e" style="stroke:#000000;stroke-width:0.6;"/>
      </defs>
      <g>
       <use style="stroke:#000000;stroke-width:0.6;" x="40.796161" xlink:href="#mad60a1f22e" y="259.367934"/>
      </g>
     </g>
    </g>
    <g id="ytick_6">
     <g id="line2d_20">
      <g>
       <use style="stroke:#000000;stroke-width:0.6;" x="40.796161" xlink:href="#mad60a1f22e" y="192.801844"/>
      </g>
     </g>
    </g>
    <g id="ytick_7">
     <g id="line2d_21">
      <g>
       <use style="stroke:#000000;stroke-width:0.6;" x="40.796161" xlink:href="#mad60a1f22e" y="126.235753"/>
      </g>
     </g>
    </g>
    <g id="ytick_8">
     <g id="line2d_22">
      <g>
       <use style="stroke:#000000;stroke-width:0.6;" x="40.796161" xlink:href="#mad60a1f22e" y="59.669663"/>
      </g>
     </g>
    </g>
    <g id="text_11">
     <!-- Absolute Error -->
     <defs>
      <path d="M 34.1875 63.1875 
L 20.796875 26.90625 
L 47.609375 26.90625 
z
M 28.609375 72.90625 
L 39.796875 72.90625 
L 67.578125 0 
L 57.328125 0 
L 50.6875 18.703125 
L 17.828125 18.703125 
L 11.1875 0 
L 0.78125 0 
z
" id="DejaVuSans-65"/>
      <path d="M 48.6875 27.296875 
Q 48.6875 37.203125 44.609375 42.84375 
Q 40.53125 48.484375 33.40625 48.484375 
Q 26.265625 48.484375 22.1875 42.84375 
Q 18.109375 37.203125 18.109375 27.296875 
Q 18.109375 17.390625 22.1875 11.75 
Q 26.265625 6.109375 33.40625 6.109375 
Q 40.53125 6.109375 44.609375 11.75 
Q 48.6875 17.390625 48.6875 27.296875 
z
M 18.109375 46.390625 
Q 20.953125 51.265625 25.265625 53.625 
Q 29.59375 56 35.59375 56 
Q 45.5625 56 51.78125 48.09375 
Q 58.015625 40.1875 58.015625 27.296875 
Q 58.015625 14.40625 51.78125 6.484375 
Q 45.5625 -1.421875 35.59375 -1.421875 
Q 29.59375 -1.421875 25.265625 0.953125 
Q 20.953125 3.328125 18.109375 8.203125 
L 18.109375 0 
L 9.078125 0 
L 9.078125 75.984375 
L 18.109375 75.984375 
z
" id="DejaVuSans-98"/>
      <path d="M 44.28125 53.078125 
L 44.28125 44.578125 
Q 40.484375 46.53125 36.375 47.5 
Q 32.28125 48.484375 27.875 48.484375 
Q 21.1875 48.484375 17.84375 46.4375 
Q 14.5 44.390625 14.5 40.28125 
Q 14.5 37.15625 16.890625 35.375 
Q 19.28125 33.59375 26.515625 31.984375 
L 29.59375 31.296875 
Q 39.15625 29.25 43.1875 25.515625 
Q 47.21875 21.78125 47.21875 15.09375 
Q 47.21875 7.46875 41.1875 3.015625 
Q 35.15625 -1.421875 24.609375 -1.421875 
Q 20.21875 -1.421875 15.453125 -0.5625 
Q 10.6875 0.296875 5.421875 2 
L 5.421875 11.28125 
Q 10.40625 8.6875 15.234375 7.390625 
Q 20.0625 6.109375 24.8125 6.109375 
Q 31.15625 6.109375 34.5625 8.28125 
Q 37.984375 10.453125 37.984375 14.40625 
Q 37.984375 18.0625 35.515625 20.015625 
Q 33.0625 21.96875 24.703125 23.78125 
L 21.578125 24.515625 
Q 13.234375 26.265625 9.515625 29.90625 
Q 5.8125 33.546875 5.8125 39.890625 
Q 5.8125 47.609375 11.28125 51.796875 
Q 16.75 56 26.8125 56 
Q 31.78125 56 36.171875 55.265625 
Q 40.578125 54.546875 44.28125 53.078125 
z
" id="DejaVuSans-115"/>
      <path d="M 9.421875 75.984375 
L 18.40625 75.984375 
L 18.40625 0 
L 9.421875 0 
z
" id="DejaVuSans-108"/>
      <path d="M 8.5 21.578125 
L 8.5 54.6875 
L 17.484375 54.6875 
L 17.484375 21.921875 
Q 17.484375 14.15625 20.5 10.265625 
Q 23.53125 6.390625 29.59375 6.390625 
Q 36.859375 6.390625 41.078125 11.03125 
Q 45.3125 15.671875 45.3125 23.6875 
L 45.3125 54.6875 
L 54.296875 54.6875 
L 54.296875 0 
L 45.3125 0 
L 45.3125 8.40625 
Q 42.046875 3.421875 37.71875 1 
Q 33.40625 -1.421875 27.6875 -1.421875 
Q 18.265625 -1.421875 13.375 4.4375 
Q 8.5 10.296875 8.5 21.578125 
z
M 31.109375 56 
z
" id="DejaVuSans-117"/>
      <path id="DejaVuSans-32"/>
      <path d="M 9.8125 72.90625 
L 55.90625 72.90625 
L 55.90625 64.59375 
L 19.671875 64.59375 
L 19.671875 43.015625 
L 54.390625 43.015625 
L 54.390625 34.71875 
L 19.671875 34.71875 
L 19.671875 8.296875 
L 56.78125 8.296875 
L 56.78125 0 
L 9.8125 0 
z
" id="DejaVuSans-69"/>
     </defs>
     <g transform="translate(12.208504 170.6575)rotate(-90)scale(0.11 -0.11)">
      <use xlink:href="#DejaVuSans-65"/>
      <use x="68.408203" xlink:href="#DejaVuSans-98"/>
      <use x="131.884766" xlink:href="#DejaVuSans-115"/>
      <use x="183.984375" xlink:href="#DejaVuSans-111"/>
      <use x="245.166016" xlink:href="#DejaVuSans-108"/>
      <use x="272.949219" xlink:href="#DejaVuSans-117"/>
      <use x="336.328125" xlink:href="#DejaVuSans-116"/>
      <use x="375.537109" xlink:href="#DejaVuSans-101"/>
      <use x="437.060547" xlink:href="#DejaVuSans-32"/>
      <use x="468.847656" xlink:href="#DejaVuSans-69"/>
      <use x="532.03125" xlink:href="#DejaVuSans-114"/>
      <use x="573.128906" xlink:href="#DejaVuSans-114"/>
      <use x="614.210938" xlink:href="#DejaVuSans-111"/>
      <use x="675.392578" xlink:href="#DejaVuSans-114"/>
     </g>
    </g>
   </g>
   <g id="line2d_23">
    <path clip-path="url(#p72cfe14492)" d="M 47.71227 29.8157 
L 50.01764 51.056275 
L 52.323009 87.945163 
L 54.628379 76.600263 
L 56.933749 76.973408 
L 59.239119 95.773076 
L 61.544488 110.33064 
L 63.849858 107.882037 
L 66.155228 120.035671 
L 68.460598 149.229439 
L 70.765967 134.796038 
L 73.071337 145.118844 
L 75.376707 153.974633 
L 77.682077 154.338637 
L 79.987446 160.326185 
L 82.292816 163.947881 
L 84.598186 165.069619 
L 86.903556 168.194631 
L 89.208925 169.393075 
L 91.514295 171.284737 
L 93.819665 172.841842 
L 96.125035 174.345866 
L 98.430404 175.857912 
L 100.735774 177.268491 
L 103.041144 178.681797 
L 105.346514 180.038386 
L 107.651883 181.37706 
L 109.957253 182.681668 
L 112.262623 183.961355 
L 114.567993 185.214393 
L 116.873362 186.442238 
L 119.178732 187.645968 
L 121.484102 188.82602 
L 123.789472 189.983466 
L 126.094841 191.118932 
L 128.400211 192.233206 
L 130.705581 193.327002 
L 133.010951 194.401019 
L 135.31632 195.455924 
L 137.62169 196.492372 
L 139.92706 197.510987 
L 142.23243 198.512368 
L 144.537799 199.497097 
L 146.843169 200.465729 
L 149.148539 201.418798 
L 151.453909 202.356817 
L 153.759278 203.280277 
L 156.064648 204.18965 
L 158.370018 205.085389 
L 160.675388 205.967928 
L 162.980757 206.837684 
L 165.286127 207.695055 
L 167.591497 208.540425 
L 169.896867 209.374162 
L 172.202236 210.196618 
L 174.507606 211.008133 
L 176.812976 211.80903 
L 179.118346 212.599624 
L 181.423715 213.380214 
L 183.729085 214.151088 
L 186.034455 214.912523 
L 188.339825 215.664787 
L 190.645194 216.408134 
L 192.950564 217.142813 
L 195.255934 217.869061 
L 197.561304 218.587105 
L 199.866673 219.297167 
L 202.172043 219.999458 
L 204.477413 220.694183 
L 206.782783 221.38154 
L 209.088153 222.061717 
L 211.393522 222.734899 
L 213.698892 223.401262 
L 216.004262 224.060978 
L 218.309632 224.714211 
L 220.615001 225.361121 
L 222.920371 226.001862 
L 225.225741 226.636583 
L 227.531111 227.265427 
L 229.83648 227.888535 
L 232.14185 228.506041 
L 234.44722 229.118075 
L 236.75259 229.724763 
L 239.057959 230.326229 
L 241.363329 230.922589 
L 243.668699 231.51396 
L 245.974069 232.100452 
L 248.279438 232.682174 
L 250.584808 233.259229 
L 252.890178 233.831719 
L 255.195548 234.399743 
L 257.500917 234.963397 
L 259.806287 235.522773 
L 262.111657 236.077961 
L 264.417027 236.629048 
L 266.722396 237.176121 
L 269.027766 237.71926 
L 271.333136 238.258548 
L 273.638506 238.794061 
L 275.943875 239.325876 
L 278.249245 239.854067 
" style="fill:none;stroke:#424242;stroke-linecap:round;"/>
   </g>
   <g id="PathCollection_1">
    <defs>
     <path d="M -0.382683 -0.92388 
L -0.92388 -0.382683 
L -0.92388 0.382683 
L -0.382683 0.92388 
L 0.382683 0.92388 
L 0.92388 0.382683 
L 0.92388 -0.382683 
L 0.382683 -0.92388 
z
" id="m0373b249d1" style="stroke:#424242;"/>
    </defs>
    <g clip-path="url(#p72cfe14492)">
     <use style="fill:#ffffff;stroke:#424242;" x="47.71227" xlink:href="#m0373b249d1" y="29.8157"/>
     <use style="fill:#ffffff;stroke:#424242;" x="50.01764" xlink:href="#m0373b249d1" y="51.056275"/>
     <use style="fill:#ffffff;stroke:#424242;" x="52.323009" xlink:href="#m0373b249d1" y="87.945163"/>
     <use style="fill:#ffffff;stroke:#424242;" x="54.628379" xlink:href="#m0373b249d1" y="76.600263"/>
     <use style="fill:#ffffff;stroke:#424242;" x="56.933749" xlink:href="#m0373b249d1" y="76.973408"/>
     <use style="fill:#ffffff;stroke:#424242;" x="59.239119" xlink:href="#m0373b249d1" y="95.773076"/>
     <use style="fill:#ffffff;stroke:#424242;" x="61.544488" xlink:href="#m0373b249d1" y="110.33064"/>
     <use style="fill:#ffffff;stroke:#424242;" x="63.849858" xlink:href="#m0373b249d1" y="107.882037"/>
     <use style="fill:#ffffff;stroke:#424242;" x="66.155228" xlink:href="#m0373b249d1" y="120.035671"/>
     <use style="fill:#ffffff;stroke:#424242;" x="68.460598" xlink:href="#m0373b249d1" y="149.229439"/>
     <use style="fill:#ffffff;stroke:#424242;" x="70.765967" xlink:href="#m0373b249d1" y="134.796038"/>
     <use style="fill:#ffffff;stroke:#424242;" x="73.071337" xlink:href="#m0373b249d1" y="145.118844"/>
     <use style="fill:#ffffff;stroke:#424242;" x="75.376707" xlink:href="#m0373b249d1" y="153.974633"/>
     <use style="fill:#ffffff;stroke:#424242;" x="77.682077" xlink:href="#m0373b249d1" y="154.338637"/>
     <use style="fill:#ffffff;stroke:#424242;" x="79.987446" xlink:href="#m0373b249d1" y="160.326185"/>
     <use style="fill:#ffffff;stroke:#424242;" x="82.292816" xlink:href="#m0373b249d1" y="163.947881"/>
     <use style="fill:#ffffff;stroke:#424242;" x="84.598186" xlink:href="#m0373b249d1" y="165.069619"/>
     <use style="fill:#ffffff;stroke:#424242;" x="86.903556" xlink:href="#m0373b249d1" y="168.194631"/>
     <use style="fill:#ffffff;stroke:#424242;" x="89.208925" xlink:href="#m0373b249d1" y="169.393075"/>
     <use style="fill:#ffffff;stroke:#424242;" x="91.514295" xlink:href="#m0373b249d1" y="171.284737"/>
     <use style="fill:#ffffff;stroke:#424242;" x="93.819665" xlink:href="#m0373b249d1" y="172.841842"/>
     <use style="fill:#ffffff;stroke:#424242;" x="96.125035" xlink:href="#m0373b249d1" y="174.345866"/>
     <use style="fill:#ffffff;stroke:#424242;" x="98.430404" xlink:href="#m0373b249d1" y="175.857912"/>
     <use style="fill:#ffffff;stroke:#424242;" x="100.735774" xlink:href="#m0373b249d1" y="177.268491"/>
     <use style="fill:#ffffff;stroke:#424242;" x="103.041144" xlink:href="#m0373b249d1" y="178.681797"/>
     <use style="fill:#ffffff;stroke:#424242;" x="105.346514" xlink:href="#m0373b249d1" y="180.038386"/>
     <use style="fill:#ffffff;stroke:#424242;" x="107.651883" xlink:href="#m0373b249d1" y="181.37706"/>
     <use style="fill:#ffffff;stroke:#424242;" x="109.957253" xlink:href="#m0373b249d1" y="182.681668"/>
     <use style="fill:#ffffff;stroke:#424242;" x="112.262623" xlink:href="#m0373b249d1" y="183.961355"/>
     <use style="fill:#ffffff;stroke:#424242;" x="114.567993" xlink:href="#m0373b249d1" y="185.214393"/>
     <use style="fill:#ffffff;stroke:#424242;" x="116.873362" xlink:href="#m0373b249d1" y="186.442238"/>
     <use style="fill:#ffffff;stroke:#424242;" x="119.178732" xlink:href="#m0373b249d1" y="187.645968"/>
     <use style="fill:#ffffff;stroke:#424242;" x="121.484102" xlink:href="#m0373b249d1" y="188.82602"/>
     <use style="fill:#ffffff;stroke:#424242;" x="123.789472" xlink:href="#m0373b249d1" y="189.983466"/>
     <use style="fill:#ffffff;stroke:#424242;" x="126.094841" xlink:href="#m0373b249d1" y="191.118932"/>
     <use style="fill:#ffffff;stroke:#424242;" x="128.400211" xlink:href="#m0373b249d1" y="192.233206"/>
     <use style="fill:#ffffff;stroke:#424242;" x="130.705581" xlink:href="#m0373b249d1" y="193.327002"/>
     <use style="fill:#ffffff;stroke:#424242;" x="133.010951" xlink:href="#m0373b249d1" y="194.401019"/>
     <use style="fill:#ffffff;stroke:#424242;" x="135.31632" xlink:href="#m0373b249d1" y="195.455924"/>
     <use style="fill:#ffffff;stroke:#424242;" x="137.62169" xlink:href="#m0373b249d1" y="196.492372"/>
     <use style="fill:#ffffff;stroke:#424242;" x="139.92706" xlink:href="#m0373b249d1" y="197.510987"/>
     <use style="fill:#ffffff;stroke:#424242;" x="142.23243" xlink:href="#m0373b249d1" y="198.512368"/>
     <use style="fill:#ffffff;stroke:#424242;" x="144.537799" xlink:href="#m0373b249d1" y="199.497097"/>
     <use style="fill:#ffffff;stroke:#424242;" x="146.843169" xlink:href="#m0373b249d1" y="200.465729"/>
     <use style="fill:#ffffff;stroke:#424242;" x="149.148539" xlink:href="#m0373b249d1" y="201.418798"/>
     <use style="fill:#ffffff;stroke:#424242;" x="151.453909" xlink:href="#m0373b249d1" y="202.356817"/>
     <use style="fill:#ffffff;stroke:#424242;" x="153.759278" xlink:href="#m0373b249d1" y="203.280277"/>
     <use style="fill:#ffffff;stroke:#424242;" x="156.064648" xlink:href="#m0373b249d1" y="204.18965"/>
     <use style="fill:#ffffff;stroke:#424242;" x="158.370018" xlink:href="#m0373b249d1" y="205.085389"/>
     <use style="fill:#ffffff;stroke:#424242;" x="160.675388" xlink:href="#m0373b249d1" y="205.967928"/>
     <use style="fill:#ffffff;stroke:#424242;" x="162.980757" xlink:href="#m0373b249d1" y="206.837684"/>
     <use style="fill:#ffffff;stroke:#424242;" x="165.286127" xlink:href="#m0373b249d1" y="207.695055"/>
     <use style="fill:#ffffff;stroke:#424242;" x="167.591497" xlink:href="#m0373b249d1" y="208.540425"/>
     <use style="fill:#ffffff;stroke:#424242;" x="169.896867" xlink:href="#m0373b249d1" y="209.374162"/>
     <use style="fill:#ffffff;stroke:#424242;" x="172.202236" xlink:href="#m0373b249d1" y="210.196618"/>
     <use style="fill:#ffffff;stroke:#424242;" x="174.507606" xlink:href="#m0373b249d1" y="211.008133"/>
     <use style="fill:#ffffff;stroke:#424242;" x="176.812976" xlink:href="#m0373b249d1" y="211.80903"/>
     <use style="fill:#ffffff;stroke:#424242;" x="179.118346" xlink:href="#m0373b249d1" y="212.599624"/>
     <use style="fill:#ffffff;stroke:#424242;" x="181.423715" xlink:href="#m0373b249d1" y="213.380214"/>
     <use style="fill:#ffffff;stroke:#424242;" x="183.729085" xlink:href="#m0373b249d1" y="214.151088"/>
     <use style="fill:#ffffff;stroke:#424242;" x="186.034455" xlink:href="#m0373b249d1" y="214.912523"/>
     <use style="fill:#ffffff;stroke:#424242;" x="188.339825" xlink:href="#m0373b249d1" y="215.664787"/>
     <use style="fill:#ffffff;stroke:#424242;" x="190.645194" xlink:href="#m0373b249d1" y="216.408134"/>
     <use style="fill:#ffffff;stroke:#424242;" x="192.950564" xlink:href="#m0373b249d1" y="217.142813"/>
     <use style="fill:#ffffff;stroke:#424242;" x="195.255934" xlink:href="#m0373b249d1" y="217.869061"/>
     <use style="fill:#ffffff;stroke:#424242;" x="197.561304" xlink:href="#m0373b249d1" y="218.587105"/>
     <use style="fill:#ffffff;stroke:#424242;" x="199.866673" xlink:href="#m0373b249d1" y="219.297167"/>
     <use style="fill:#ffffff;stroke:#424242;" x="202.172043" xlink:href="#m0373b249d1" y="219.999458"/>
     <use style="fill:#ffffff;stroke:#424242;" x="204.477413" xlink:href="#m0373b249d1" y="220.694183"/>
     <use style="fill:#ffffff;stroke:#424242;" x="206.782783" xlink:href="#m0373b249d1" y="221.38154"/>
     <use style="fill:#ffffff;stroke:#424242;" x="209.088153" xlink:href="#m0373b249d1" y="222.061717"/>
     <use style="fill:#ffffff;stroke:#424242;" x="211.393522" xlink:href="#m0373b249d1" y="222.734899"/>
     <use style="fill:#ffffff;stroke:#424242;" x="213.698892" xlink:href="#m0373b249d1" y="223.401262"/>
     <use style="fill:#ffffff;stroke:#424242;" x="216.004262" xlink:href="#m0373b249d1" y="224.060978"/>
     <use style="fill:#ffffff;stroke:#424242;" x="218.309632" xlink:href="#m0373b249d1" y="224.714211"/>
     <use style="fill:#ffffff;stroke:#424242;" x="220.615001" xlink:href="#m0373b249d1" y="225.361121"/>
     <use style="fill:#ffffff;stroke:#424242;" x="222.920371" xlink:href="#m0373b249d1" y="226.001862"/>
     <use style="fill:#ffffff;stroke:#424242;" x="225.225741" xlink:href="#m0373b249d1" y="226.636583"/>
     <use style="fill:#ffffff;stroke:#424242;" x="227.531111" xlink:href="#m0373b249d1" y="227.265427"/>
     <use style="fill:#ffffff;stroke:#424242;" x="229.83648" xlink:href="#m0373b249d1" y="227.888535"/>
     <use style="fill:#ffffff;stroke:#424242;" x="232.14185" xlink:href="#m0373b249d1" y="228.506041"/>
     <use style="fill:#ffffff;stroke:#424242;" x="234.44722" xlink:href="#m0373b249d1" y="229.118075"/>
     <use style="fill:#ffffff;stroke:#424242;" x="236.75259" xlink:href="#m0373b249d1" y="229.724763"/>
     <use style="fill:#ffffff;stroke:#424242;" x="239.057959" xlink:href="#m0373b249d1" y="230.326229"/>
     <use style="fill:#ffffff;stroke:#424242;" x="241.363329" xlink:href="#m0373b249d1" y="230.922589"/>
     <use style="fill:#ffffff;stroke:#424242;" x="243.668699" xlink:href="#m0373b249d1" y="231.51396"/>
     <use style="fill:#ffffff;stroke:#424242;" x="245.974069" xlink:href="#m0373b249d1" y="232.100452"/>
     <use style="fill:#ffffff;stroke:#424242;" x="248.279438" xlink:href="#m0373b249d1" y="232.682174"/>
     <use style="fill:#ffffff;stroke:#424242;" x="250.584808" xlink:href="#m0373b249d1" y="233.259229"/>
     <use style="fill:#ffffff;stroke:#424242;" x="252.890178" xlink:href="#m0373b249d1" y="233.831719"/>
     <use style="fill:#ffffff;stroke:#424242;" x="255.195548" xlink:href="#m0373b249d1" y="234.399743"/>
     <use style="fill:#ffffff;stroke:#424242;" x="257.500917" xlink:href="#m0373b249d1" y="234.963397"/>
     <use style="fill:#ffffff;stroke:#424242;" x="259.806287" xlink:href="#m0373b249d1" y="235.522773"/>
     <use style="fill:#ffffff;stroke:#424242;" x="262.111657" xlink:href="#m0373b249d1" y="236.077961"/>
     <use style="fill:#ffffff;stroke:#424242;" x="264.417027" xlink:href="#m0373b249d1" y="236.629048"/>
     <use style="fill:#ffffff;stroke:#424242;" x="266.722396" xlink:href="#m0373b249d1" y="237.176121"/>
     <use style="fill:#ffffff;stroke:#424242;" x="269.027766" xlink:href="#m0373b249d1" y="237.71926"/>
     <use style="fill:#ffffff;stroke:#424242;" x="271.333136" xlink:href="#m0373b249d1" y="238.258548"/>
     <use style="fill:#ffffff;stroke:#424242;" x="273.638506" xlink:href="#m0373b249d1" y="238.794061"/>
     <use style="fill:#ffffff;stroke:#424242;" x="275.943875" xlink:href="#m0373b249d1" y="239.325876"/>
     <use style="fill:#ffffff;stroke:#424242;" x="278.249245" xlink:href="#m0373b249d1" y="239.854067"/>
    </g>
   </g>
   <g id="line2d_24">
    <path clip-path="url(#p72cfe14492)" d="M 47.71227 44.97967 
L 50.01764 62.094293 
L 52.323009 74.286592 
L 54.628379 86.091516 
L 56.933749 108.100511 
L 59.239119 112.222914 
L 61.544488 109.834571 
L 63.849858 117.248199 
L 66.155228 125.265139 
L 68.460598 127.580365 
L 70.765967 129.332158 
L 73.071337 132.892074 
L 75.376707 136.432011 
L 77.682077 138.85452 
L 79.987446 140.992939 
L 82.292816 143.192254 
L 84.598186 145.179438 
L 86.903556 147.013229 
L 89.208925 148.840429 
L 91.514295 150.630165 
L 93.819665 152.356378 
L 96.125035 154.044193 
L 98.430404 155.696252 
L 100.735774 157.305349 
L 103.041144 158.874757 
L 105.346514 160.406819 
L 107.651883 161.90153 
L 109.957253 163.360724 
L 112.262623 164.786087 
L 114.567993 166.178509 
L 116.873362 167.539097 
L 119.178732 168.869049 
L 121.484102 170.169494 
L 123.789472 171.441557 
L 126.094841 172.686328 
L 128.400211 173.904845 
L 130.705581 175.09811 
L 133.010951 176.267089 
L 135.31632 177.412713 
L 137.62169 178.535873 
L 139.92706 179.637423 
L 142.23243 180.718175 
L 144.537799 181.778907 
L 146.843169 182.820362 
L 149.148539 183.843248 
L 151.453909 184.848242 
L 153.759278 185.835988 
L 156.064648 186.807101 
L 158.370018 187.762168 
L 160.675388 188.70175 
L 162.980757 189.626379 
L 165.286127 190.536567 
L 167.591497 191.432801 
L 169.896867 192.315544 
L 172.202236 193.185242 
L 174.507606 194.042318 
L 176.812976 194.887173 
L 179.118346 195.720131 
L 181.423715 196.540822 
L 183.729085 197.339445 
L 186.034455 197.9575 
L 188.339825 195.852505 
L 190.645194 174.318497 
L 192.950564 132.709464 
L 195.255934 92.974982 
L 197.561304 107.536484 
L 199.866673 103.721905 
L 202.172043 122.495883 
L 204.477413 187.918791 
L 206.782783 148.132725 
L 209.088153 144.442701 
L 211.393522 161.104644 
L 213.698892 207.475541 
L 216.004262 180.571781 
L 218.309632 182.50194 
L 220.615001 204.666503 
L 222.920371 204.665873 
L 225.225741 202.737539 
L 227.531111 211.161995 
L 229.83648 211.032277 
L 232.14185 211.797786 
L 234.44722 213.783704 
L 236.75259 213.938066 
L 239.057959 214.944477 
L 241.363329 215.485112 
L 243.668699 216.13149 
L 245.974069 216.722267 
L 248.279438 217.306849 
L 250.584808 217.881177 
L 252.890178 218.45141 
L 255.195548 219.012392 
L 257.500917 219.57236 
L 259.806287 220.124877 
L 262.111657 220.674917 
L 264.417027 221.220362 
L 266.722396 221.761806 
L 269.027766 222.299682 
L 271.333136 222.833796 
L 273.638506 223.364251 
L 275.943875 223.891182 
L 278.249245 224.414656 
" style="fill:none;stroke:#424242;stroke-linecap:round;"/>
   </g>
   <g id="PathCollection_2">
    <g clip-path="url(#p72cfe14492)">
     <use style="fill:#ffffff;stroke:#424242;" x="47.71227" xlink:href="#m0373b249d1" y="44.97967"/>
     <use style="fill:#ffffff;stroke:#424242;" x="50.01764" xlink:href="#m0373b249d1" y="62.094293"/>
     <use style="fill:#ffffff;stroke:#424242;" x="52.323009" xlink:href="#m0373b249d1" y="74.286592"/>
     <use style="fill:#ffffff;stroke:#424242;" x="54.628379" xlink:href="#m0373b249d1" y="86.091516"/>
     <use style="fill:#ffffff;stroke:#424242;" x="56.933749" xlink:href="#m0373b249d1" y="108.100511"/>
     <use style="fill:#ffffff;stroke:#424242;" x="59.239119" xlink:href="#m0373b249d1" y="112.222914"/>
     <use style="fill:#ffffff;stroke:#424242;" x="61.544488" xlink:href="#m0373b249d1" y="109.834571"/>
     <use style="fill:#ffffff;stroke:#424242;" x="63.849858" xlink:href="#m0373b249d1" y="117.248199"/>
     <use style="fill:#ffffff;stroke:#424242;" x="66.155228" xlink:href="#m0373b249d1" y="125.265139"/>
     <use style="fill:#ffffff;stroke:#424242;" x="68.460598" xlink:href="#m0373b249d1" y="127.580365"/>
     <use style="fill:#ffffff;stroke:#424242;" x="70.765967" xlink:href="#m0373b249d1" y="129.332158"/>
     <use style="fill:#ffffff;stroke:#424242;" x="73.071337" xlink:href="#m0373b249d1" y="132.892074"/>
     <use style="fill:#ffffff;stroke:#424242;" x="75.376707" xlink:href="#m0373b249d1" y="136.432011"/>
     <use style="fill:#ffffff;stroke:#424242;" x="77.682077" xlink:href="#m0373b249d1" y="138.85452"/>
     <use style="fill:#ffffff;stroke:#424242;" x="79.987446" xlink:href="#m0373b249d1" y="140.992939"/>
     <use style="fill:#ffffff;stroke:#424242;" x="82.292816" xlink:href="#m0373b249d1" y="143.192254"/>
     <use style="fill:#ffffff;stroke:#424242;" x="84.598186" xlink:href="#m0373b249d1" y="145.179438"/>
     <use style="fill:#ffffff;stroke:#424242;" x="86.903556" xlink:href="#m0373b249d1" y="147.013229"/>
     <use style="fill:#ffffff;stroke:#424242;" x="89.208925" xlink:href="#m0373b249d1" y="148.840429"/>
     <use style="fill:#ffffff;stroke:#424242;" x="91.514295" xlink:href="#m0373b249d1" y="150.630165"/>
     <use style="fill:#ffffff;stroke:#424242;" x="93.819665" xlink:href="#m0373b249d1" y="152.356378"/>
     <use style="fill:#ffffff;stroke:#424242;" x="96.125035" xlink:href="#m0373b249d1" y="154.044193"/>
     <use style="fill:#ffffff;stroke:#424242;" x="98.430404" xlink:href="#m0373b249d1" y="155.696252"/>
     <use style="fill:#ffffff;stroke:#424242;" x="100.735774" xlink:href="#m0373b249d1" y="157.305349"/>
     <use style="fill:#ffffff;stroke:#424242;" x="103.041144" xlink:href="#m0373b249d1" y="158.874757"/>
     <use style="fill:#ffffff;stroke:#424242;" x="105.346514" xlink:href="#m0373b249d1" y="160.406819"/>
     <use style="fill:#ffffff;stroke:#424242;" x="107.651883" xlink:href="#m0373b249d1" y="161.90153"/>
     <use style="fill:#ffffff;stroke:#424242;" x="109.957253" xlink:href="#m0373b249d1" y="163.360724"/>
     <use style="fill:#ffffff;stroke:#424242;" x="112.262623" xlink:href="#m0373b249d1" y="164.786087"/>
     <use style="fill:#ffffff;stroke:#424242;" x="114.567993" xlink:href="#m0373b249d1" y="166.178509"/>
     <use style="fill:#ffffff;stroke:#424242;" x="116.873362" xlink:href="#m0373b249d1" y="167.539097"/>
     <use style="fill:#ffffff;stroke:#424242;" x="119.178732" xlink:href="#m0373b249d1" y="168.869049"/>
     <use style="fill:#ffffff;stroke:#424242;" x="121.484102" xlink:href="#m0373b249d1" y="170.169494"/>
     <use style="fill:#ffffff;stroke:#424242;" x="123.789472" xlink:href="#m0373b249d1" y="171.441557"/>
     <use style="fill:#ffffff;stroke:#424242;" x="126.094841" xlink:href="#m0373b249d1" y="172.686328"/>
     <use style="fill:#ffffff;stroke:#424242;" x="128.400211" xlink:href="#m0373b249d1" y="173.904845"/>
     <use style="fill:#ffffff;stroke:#424242;" x="130.705581" xlink:href="#m0373b249d1" y="175.09811"/>
     <use style="fill:#ffffff;stroke:#424242;" x="133.010951" xlink:href="#m0373b249d1" y="176.267089"/>
     <use style="fill:#ffffff;stroke:#424242;" x="135.31632" xlink:href="#m0373b249d1" y="177.412713"/>
     <use style="fill:#ffffff;stroke:#424242;" x="137.62169" xlink:href="#m0373b249d1" y="178.535873"/>
     <use style="fill:#ffffff;stroke:#424242;" x="139.92706" xlink:href="#m0373b249d1" y="179.637423"/>
     <use style="fill:#ffffff;stroke:#424242;" x="142.23243" xlink:href="#m0373b249d1" y="180.718175"/>
     <use style="fill:#ffffff;stroke:#424242;" x="144.537799" xlink:href="#m0373b249d1" y="181.778907"/>
     <use style="fill:#ffffff;stroke:#424242;" x="146.843169" xlink:href="#m0373b249d1" y="182.820362"/>
     <use style="fill:#ffffff;stroke:#424242;" x="149.148539" xlink:href="#m0373b249d1" y="183.843248"/>
     <use style="fill:#ffffff;stroke:#424242;" x="151.453909" xlink:href="#m0373b249d1" y="184.848242"/>
     <use style="fill:#ffffff;stroke:#424242;" x="153.759278" xlink:href="#m0373b249d1" y="185.835988"/>
     <use style="fill:#ffffff;stroke:#424242;" x="156.064648" xlink:href="#m0373b249d1" y="186.807101"/>
     <use style="fill:#ffffff;stroke:#424242;" x="158.370018" xlink:href="#m0373b249d1" y="187.762168"/>
     <use style="fill:#ffffff;stroke:#424242;" x="160.675388" xlink:href="#m0373b249d1" y="188.70175"/>
     <use style="fill:#ffffff;stroke:#424242;" x="162.980757" xlink:href="#m0373b249d1" y="189.626379"/>
     <use style="fill:#ffffff;stroke:#424242;" x="165.286127" xlink:href="#m0373b249d1" y="190.536567"/>
     <use style="fill:#ffffff;stroke:#424242;" x="167.591497" xlink:href="#m0373b249d1" y="191.432801"/>
     <use style="fill:#ffffff;stroke:#424242;" x="169.896867" xlink:href="#m0373b249d1" y="192.315544"/>
     <use style="fill:#ffffff;stroke:#424242;" x="172.202236" xlink:href="#m0373b249d1" y="193.185242"/>
     <use style="fill:#ffffff;stroke:#424242;" x="174.507606" xlink:href="#m0373b249d1" y="194.042318"/>
     <use style="fill:#ffffff;stroke:#424242;" x="176.812976" xlink:href="#m0373b249d1" y="194.887173"/>
     <use style="fill:#ffffff;stroke:#424242;" x="179.118346" xlink:href="#m0373b249d1" y="195.720131"/>
     <use style="fill:#ffffff;stroke:#424242;" x="181.423715" xlink:href="#m0373b249d1" y="196.540822"/>
     <use style="fill:#ffffff;stroke:#424242;" x="183.729085" xlink:href="#m0373b249d1" y="197.339445"/>
     <use style="fill:#ffffff;stroke:#424242;" x="186.034455" xlink:href="#m0373b249d1" y="197.9575"/>
     <use style="fill:#ffffff;stroke:#424242;" x="188.339825" xlink:href="#m0373b249d1" y="195.852505"/>
     <use style="fill:#ffffff;stroke:#424242;" x="190.645194" xlink:href="#m0373b249d1" y="174.318497"/>
     <use style="fill:#ffffff;stroke:#424242;" x="192.950564" xlink:href="#m0373b249d1" y="132.709464"/>
     <use style="fill:#ffffff;stroke:#424242;" x="195.255934" xlink:href="#m0373b249d1" y="92.974982"/>
     <use style="fill:#ffffff;stroke:#424242;" x="197.561304" xlink:href="#m0373b249d1" y="107.536484"/>
     <use style="fill:#ffffff;stroke:#424242;" x="199.866673" xlink:href="#m0373b249d1" y="103.721905"/>
     <use style="fill:#ffffff;stroke:#424242;" x="202.172043" xlink:href="#m0373b249d1" y="122.495883"/>
     <use style="fill:#ffffff;stroke:#424242;" x="204.477413" xlink:href="#m0373b249d1" y="187.918791"/>
     <use style="fill:#ffffff;stroke:#424242;" x="206.782783" xlink:href="#m0373b249d1" y="148.132725"/>
     <use style="fill:#ffffff;stroke:#424242;" x="209.088153" xlink:href="#m0373b249d1" y="144.442701"/>
     <use style="fill:#ffffff;stroke:#424242;" x="211.393522" xlink:href="#m0373b249d1" y="161.104644"/>
     <use style="fill:#ffffff;stroke:#424242;" x="213.698892" xlink:href="#m0373b249d1" y="207.475541"/>
     <use style="fill:#ffffff;stroke:#424242;" x="216.004262" xlink:href="#m0373b249d1" y="180.571781"/>
     <use style="fill:#ffffff;stroke:#424242;" x="218.309632" xlink:href="#m0373b249d1" y="182.50194"/>
     <use style="fill:#ffffff;stroke:#424242;" x="220.615001" xlink:href="#m0373b249d1" y="204.666503"/>
     <use style="fill:#ffffff;stroke:#424242;" x="222.920371" xlink:href="#m0373b249d1" y="204.665873"/>
     <use style="fill:#ffffff;stroke:#424242;" x="225.225741" xlink:href="#m0373b249d1" y="202.737539"/>
     <use style="fill:#ffffff;stroke:#424242;" x="227.531111" xlink:href="#m0373b249d1" y="211.161995"/>
     <use style="fill:#ffffff;stroke:#424242;" x="229.83648" xlink:href="#m0373b249d1" y="211.032277"/>
     <use style="fill:#ffffff;stroke:#424242;" x="232.14185" xlink:href="#m0373b249d1" y="211.797786"/>
     <use style="fill:#ffffff;stroke:#424242;" x="234.44722" xlink:href="#m0373b249d1" y="213.783704"/>
     <use style="fill:#ffffff;stroke:#424242;" x="236.75259" xlink:href="#m0373b249d1" y="213.938066"/>
     <use style="fill:#ffffff;stroke:#424242;" x="239.057959" xlink:href="#m0373b249d1" y="214.944477"/>
     <use style="fill:#ffffff;stroke:#424242;" x="241.363329" xlink:href="#m0373b249d1" y="215.485112"/>
     <use style="fill:#ffffff;stroke:#424242;" x="243.668699" xlink:href="#m0373b249d1" y="216.13149"/>
     <use style="fill:#ffffff;stroke:#424242;" x="245.974069" xlink:href="#m0373b249d1" y="216.722267"/>
     <use style="fill:#ffffff;stroke:#424242;" x="248.279438" xlink:href="#m0373b249d1" y="217.306849"/>
     <use style="fill:#ffffff;stroke:#424242;" x="250.584808" xlink:href="#m0373b249d1" y="217.881177"/>
     <use style="fill:#ffffff;stroke:#424242;" x="252.890178" xlink:href="#m0373b249d1" y="218.45141"/>
     <use style="fill:#ffffff;stroke:#424242;" x="255.195548" xlink:href="#m0373b249d1" y="219.012392"/>
     <use style="fill:#ffffff;stroke:#424242;" x="257.500917" xlink:href="#m0373b249d1" y="219.57236"/>
     <use style="fill:#ffffff;stroke:#424242;" x="259.806287" xlink:href="#m0373b249d1" y="220.124877"/>
     <use style="fill:#ffffff;stroke:#424242;" x="262.111657" xlink:href="#m0373b249d1" y="220.674917"/>
     <use style="fill:#ffffff;stroke:#424242;" x="264.417027" xlink:href="#m0373b249d1" y="221.220362"/>
     <use style="fill:#ffffff;stroke:#424242;" x="266.722396" xlink:href="#m0373b249d1" y="221.761806"/>
     <use style="fill:#ffffff;stroke:#424242;" x="269.027766" xlink:href="#m0373b249d1" y="222.299682"/>
     <use style="fill:#ffffff;stroke:#424242;" x="271.333136" xlink:href="#m0373b249d1" y="222.833796"/>
     <use style="fill:#ffffff;stroke:#424242;" x="273.638506" xlink:href="#m0373b249d1" y="223.364251"/>
     <use style="fill:#ffffff;stroke:#424242;" x="275.943875" xlink:href="#m0373b249d1" y="223.891182"/>
     <use style="fill:#ffffff;stroke:#424242;" x="278.249245" xlink:href="#m0373b249d1" y="224.414656"/>
    </g>
   </g>
   <g id="patch_3">
    <path d="M 40.796161 259.665354 
L 40.796161 2.834646 
" style="fill:none;stroke:#000000;stroke-linecap:square;stroke-linejoin:miter;"/>
   </g>
   <g id="patch_4">
    <path d="M 285.165354 259.665354 
L 285.165354 2.834646 
" style="fill:none;stroke:#000000;stroke-linecap:square;stroke-linejoin:miter;stroke-width:0.8;"/>
   </g>
   <g id="patch_5">
    <path d="M 40.796161 259.665354 
L 285.165354 259.665354 
" style="fill:none;stroke:#000000;stroke-linecap:square;stroke-linejoin:miter;"/>
   </g>
   <g id="patch_6">
    <path d="M 40.796161 2.834646 
L 285.165354 2.834646 
" style="fill:none;stroke:#000000;stroke-linecap:square;stroke-linejoin:miter;stroke-width:0.8;"/>
   </g>
   <g id="line2d_25">
    <path clip-path="url(#p72cfe14492)" d="M 47.71227 38.571044 
L 50.01764 61.538277 
L 52.323009 80.573236 
L 54.628379 119.655309 
L 56.933749 112.177253 
L 59.239119 124.685847 
L 61.544488 120.06658 
L 63.849858 136.337625 
L 66.155228 140.457836 
L 68.460598 163.801412 
L 70.765967 170.505788 
L 73.071337 178.375738 
L 75.376707 206.903305 
L 77.682077 197.766808 
L 79.987446 206.054818 
L 82.292816 219.069625 
L 84.598186 217.710137 
L 86.903556 218.694996 
L 89.208925 222.582587 
L 91.514295 223.804313 
L 93.819665 224.074421 
L 96.125035 224.663747 
L 98.430404 225.381522 
L 100.735774 225.922894 
L 103.041144 226.366594 
L 105.346514 226.784038 
L 107.651883 227.202383 
L 109.957253 227.611279 
L 112.262623 228.00921 
L 114.567993 228.395996 
L 116.873362 228.774356 
L 119.178732 229.145737 
L 121.484102 229.511234 
L 123.789472 229.87158 
L 126.094841 230.227359 
L 128.400211 230.579134 
L 130.705581 230.927391 
L 133.010951 231.272582 
L 135.31632 231.615115 
L 137.62169 231.955353 
L 139.92706 232.293621 
L 142.23243 232.630212 
L 144.537799 232.965386 
L 146.843169 233.299373 
L 149.148539 233.63238 
L 151.453909 233.96459 
L 153.759278 234.296163 
L 156.064648 234.627243 
L 158.370018 234.957955 
L 160.675388 235.288411 
L 162.980757 235.618706 
L 165.286127 235.948925 
L 167.591497 236.279141 
L 169.896867 236.609417 
L 172.202236 236.939807 
L 174.507606 237.270358 
L 176.812976 237.601109 
L 179.118346 237.932092 
L 181.423715 238.263333 
L 183.729085 238.594856 
L 186.034455 238.926676 
L 188.339825 239.258806 
L 190.645194 239.591257 
L 192.950564 239.924034 
L 195.255934 240.257141 
L 197.561304 240.590578 
L 199.866673 240.924344 
L 202.172043 241.258436 
L 204.477413 241.592849 
L 206.782783 241.927576 
L 209.088153 242.26261 
L 211.393522 242.597941 
L 213.698892 242.933559 
L 216.004262 243.269455 
L 218.309632 243.605615 
L 220.615001 243.94203 
L 222.920371 244.278685 
L 225.225741 244.615569 
L 227.531111 244.952668 
L 229.83648 245.289969 
L 232.14185 245.627458 
L 234.44722 245.965123 
L 236.75259 246.302948 
L 239.057959 246.640922 
L 241.363329 246.979029 
L 243.668699 247.317257 
L 245.974069 247.655593 
L 248.279438 247.994023 
L 250.584808 248.332533 
L 252.890178 248.671113 
L 255.195548 249.009748 
L 257.500917 249.348426 
L 259.806287 249.687136 
L 262.111657 250.025864 
L 264.417027 250.364601 
L 266.722396 250.703333 
L 269.027766 251.042051 
L 271.333136 251.380743 
L 273.638506 251.719399 
L 275.943875 252.058008 
L 278.249245 252.396561 
" style="fill:none;stroke:#424242;stroke-linecap:round;"/>
   </g>
   <g id="PathCollection_3">
    <g clip-path="url(#p72cfe14492)">
     <use style="fill:#ffffff;stroke:#424242;" x="47.71227" xlink:href="#m0373b249d1" y="38.571044"/>
     <use style="fill:#ffffff;stroke:#424242;" x="50.01764" xlink:href="#m0373b249d1" y="61.538277"/>
     <use style="fill:#ffffff;stroke:#424242;" x="52.323009" xlink:href="#m0373b249d1" y="80.573236"/>
     <use style="fill:#ffffff;stroke:#424242;" x="54.628379" xlink:href="#m0373b249d1" y="119.655309"/>
     <use style="fill:#ffffff;stroke:#424242;" x="56.933749" xlink:href="#m0373b249d1" y="112.177253"/>
     <use style="fill:#ffffff;stroke:#424242;" x="59.239119" xlink:href="#m0373b249d1" y="124.685847"/>
     <use style="fill:#ffffff;stroke:#424242;" x="61.544488" xlink:href="#m0373b249d1" y="120.06658"/>
     <use style="fill:#ffffff;stroke:#424242;" x="63.849858" xlink:href="#m0373b249d1" y="136.337625"/>
     <use style="fill:#ffffff;stroke:#424242;" x="66.155228" xlink:href="#m0373b249d1" y="140.457836"/>
     <use style="fill:#ffffff;stroke:#424242;" x="68.460598" xlink:href="#m0373b249d1" y="163.801412"/>
     <use style="fill:#ffffff;stroke:#424242;" x="70.765967" xlink:href="#m0373b249d1" y="170.505788"/>
     <use style="fill:#ffffff;stroke:#424242;" x="73.071337" xlink:href="#m0373b249d1" y="178.375738"/>
     <use style="fill:#ffffff;stroke:#424242;" x="75.376707" xlink:href="#m0373b249d1" y="206.903305"/>
     <use style="fill:#ffffff;stroke:#424242;" x="77.682077" xlink:href="#m0373b249d1" y="197.766808"/>
     <use style="fill:#ffffff;stroke:#424242;" x="79.987446" xlink:href="#m0373b249d1" y="206.054818"/>
     <use style="fill:#ffffff;stroke:#424242;" x="82.292816" xlink:href="#m0373b249d1" y="219.069625"/>
     <use style="fill:#ffffff;stroke:#424242;" x="84.598186" xlink:href="#m0373b249d1" y="217.710137"/>
     <use style="fill:#ffffff;stroke:#424242;" x="86.903556" xlink:href="#m0373b249d1" y="218.694996"/>
     <use style="fill:#ffffff;stroke:#424242;" x="89.208925" xlink:href="#m0373b249d1" y="222.582587"/>
     <use style="fill:#ffffff;stroke:#424242;" x="91.514295" xlink:href="#m0373b249d1" y="223.804313"/>
     <use style="fill:#ffffff;stroke:#424242;" x="93.819665" xlink:href="#m0373b249d1" y="224.074421"/>
     <use style="fill:#ffffff;stroke:#424242;" x="96.125035" xlink:href="#m0373b249d1" y="224.663747"/>
     <use style="fill:#ffffff;stroke:#424242;" x="98.430404" xlink:href="#m0373b249d1" y="225.381522"/>
     <use style="fill:#ffffff;stroke:#424242;" x="100.735774" xlink:href="#m0373b249d1" y="225.922894"/>
     <use style="fill:#ffffff;stroke:#424242;" x="103.041144" xlink:href="#m0373b249d1" y="226.366594"/>
     <use style="fill:#ffffff;stroke:#424242;" x="105.346514" xlink:href="#m0373b249d1" y="226.784038"/>
     <use style="fill:#ffffff;stroke:#424242;" x="107.651883" xlink:href="#m0373b249d1" y="227.202383"/>
     <use style="fill:#ffffff;stroke:#424242;" x="109.957253" xlink:href="#m0373b249d1" y="227.611279"/>
     <use style="fill:#ffffff;stroke:#424242;" x="112.262623" xlink:href="#m0373b249d1" y="228.00921"/>
     <use style="fill:#ffffff;stroke:#424242;" x="114.567993" xlink:href="#m0373b249d1" y="228.395996"/>
     <use style="fill:#ffffff;stroke:#424242;" x="116.873362" xlink:href="#m0373b249d1" y="228.774356"/>
     <use style="fill:#ffffff;stroke:#424242;" x="119.178732" xlink:href="#m0373b249d1" y="229.145737"/>
     <use style="fill:#ffffff;stroke:#424242;" x="121.484102" xlink:href="#m0373b249d1" y="229.511234"/>
     <use style="fill:#ffffff;stroke:#424242;" x="123.789472" xlink:href="#m0373b249d1" y="229.87158"/>
     <use style="fill:#ffffff;stroke:#424242;" x="126.094841" xlink:href="#m0373b249d1" y="230.227359"/>
     <use style="fill:#ffffff;stroke:#424242;" x="128.400211" xlink:href="#m0373b249d1" y="230.579134"/>
     <use style="fill:#ffffff;stroke:#424242;" x="130.705581" xlink:href="#m0373b249d1" y="230.927391"/>
     <use style="fill:#ffffff;stroke:#424242;" x="133.010951" xlink:href="#m0373b249d1" y="231.272582"/>
     <use style="fill:#ffffff;stroke:#424242;" x="135.31632" xlink:href="#m0373b249d1" y="231.615115"/>
     <use style="fill:#ffffff;stroke:#424242;" x="137.62169" xlink:href="#m0373b249d1" y="231.955353"/>
     <use style="fill:#ffffff;stroke:#424242;" x="139.92706" xlink:href="#m0373b249d1" y="232.293621"/>
     <use style="fill:#ffffff;stroke:#424242;" x="142.23243" xlink:href="#m0373b249d1" y="232.630212"/>
     <use style="fill:#ffffff;stroke:#424242;" x="144.537799" xlink:href="#m0373b249d1" y="232.965386"/>
     <use style="fill:#ffffff;stroke:#424242;" x="146.843169" xlink:href="#m0373b249d1" y="233.299373"/>
     <use style="fill:#ffffff;stroke:#424242;" x="149.148539" xlink:href="#m0373b249d1" y="233.63238"/>
     <use style="fill:#ffffff;stroke:#424242;" x="151.453909" xlink:href="#m0373b249d1" y="233.96459"/>
     <use style="fill:#ffffff;stroke:#424242;" x="153.759278" xlink:href="#m0373b249d1" y="234.296163"/>
     <use style="fill:#ffffff;stroke:#424242;" x="156.064648" xlink:href="#m0373b249d1" y="234.627243"/>
     <use style="fill:#ffffff;stroke:#424242;" x="158.370018" xlink:href="#m0373b249d1" y="234.957955"/>
     <use style="fill:#ffffff;stroke:#424242;" x="160.675388" xlink:href="#m0373b249d1" y="235.288411"/>
     <use style="fill:#ffffff;stroke:#424242;" x="162.980757" xlink:href="#m0373b249d1" y="235.618706"/>
     <use style="fill:#ffffff;stroke:#424242;" x="165.286127" xlink:href="#m0373b249d1" y="235.948925"/>
     <use style="fill:#ffffff;stroke:#424242;" x="167.591497" xlink:href="#m0373b249d1" y="236.279141"/>
     <use style="fill:#ffffff;stroke:#424242;" x="169.896867" xlink:href="#m0373b249d1" y="236.609417"/>
     <use style="fill:#ffffff;stroke:#424242;" x="172.202236" xlink:href="#m0373b249d1" y="236.939807"/>
     <use style="fill:#ffffff;stroke:#424242;" x="174.507606" xlink:href="#m0373b249d1" y="237.270358"/>
     <use style="fill:#ffffff;stroke:#424242;" x="176.812976" xlink:href="#m0373b249d1" y="237.601109"/>
     <use style="fill:#ffffff;stroke:#424242;" x="179.118346" xlink:href="#m0373b249d1" y="237.932092"/>
     <use style="fill:#ffffff;stroke:#424242;" x="181.423715" xlink:href="#m0373b249d1" y="238.263333"/>
     <use style="fill:#ffffff;stroke:#424242;" x="183.729085" xlink:href="#m0373b249d1" y="238.594856"/>
     <use style="fill:#ffffff;stroke:#424242;" x="186.034455" xlink:href="#m0373b249d1" y="238.926676"/>
     <use style="fill:#ffffff;stroke:#424242;" x="188.339825" xlink:href="#m0373b249d1" y="239.258806"/>
     <use style="fill:#ffffff;stroke:#424242;" x="190.645194" xlink:href="#m0373b249d1" y="239.591257"/>
     <use style="fill:#ffffff;stroke:#424242;" x="192.950564" xlink:href="#m0373b249d1" y="239.924034"/>
     <use style="fill:#ffffff;stroke:#424242;" x="195.255934" xlink:href="#m0373b249d1" y="240.257141"/>
     <use style="fill:#ffffff;stroke:#424242;" x="197.561304" xlink:href="#m0373b249d1" y="240.590578"/>
     <use style="fill:#ffffff;stroke:#424242;" x="199.866673" xlink:href="#m0373b249d1" y="240.924344"/>
     <use style="fill:#ffffff;stroke:#424242;" x="202.172043" xlink:href="#m0373b249d1" y="241.258436"/>
     <use style="fill:#ffffff;stroke:#424242;" x="204.477413" xlink:href="#m0373b249d1" y="241.592849"/>
     <use style="fill:#ffffff;stroke:#424242;" x="206.782783" xlink:href="#m0373b249d1" y="241.927576"/>
     <use style="fill:#ffffff;stroke:#424242;" x="209.088153" xlink:href="#m0373b249d1" y="242.26261"/>
     <use style="fill:#ffffff;stroke:#424242;" x="211.393522" xlink:href="#m0373b249d1" y="242.597941"/>
     <use style="fill:#ffffff;stroke:#424242;" x="213.698892" xlink:href="#m0373b249d1" y="242.933559"/>
     <use style="fill:#ffffff;stroke:#424242;" x="216.004262" xlink:href="#m0373b249d1" y="243.269455"/>
     <use style="fill:#ffffff;stroke:#424242;" x="218.309632" xlink:href="#m0373b249d1" y="243.605615"/>
     <use style="fill:#ffffff;stroke:#424242;" x="220.615001" xlink:href="#m0373b249d1" y="243.94203"/>
     <use style="fill:#ffffff;stroke:#424242;" x="222.920371" xlink:href="#m0373b249d1" y="244.278685"/>
     <use style="fill:#ffffff;stroke:#424242;" x="225.225741" xlink:href="#m0373b249d1" y="244.615569"/>
     <use style="fill:#ffffff;stroke:#424242;" x="227.531111" xlink:href="#m0373b249d1" y="244.952668"/>
     <use style="fill:#ffffff;stroke:#424242;" x="229.83648" xlink:href="#m0373b249d1" y="245.289969"/>
     <use style="fill:#ffffff;stroke:#424242;" x="232.14185" xlink:href="#m0373b249d1" y="245.627458"/>
     <use style="fill:#ffffff;stroke:#424242;" x="234.44722" xlink:href="#m0373b249d1" y="245.965123"/>
     <use style="fill:#ffffff;stroke:#424242;" x="236.75259" xlink:href="#m0373b249d1" y="246.302948"/>
     <use style="fill:#ffffff;stroke:#424242;" x="239.057959" xlink:href="#m0373b249d1" y="246.640922"/>
     <use style="fill:#ffffff;stroke:#424242;" x="241.363329" xlink:href="#m0373b249d1" y="246.979029"/>
     <use style="fill:#ffffff;stroke:#424242;" x="243.668699" xlink:href="#m0373b249d1" y="247.317257"/>
     <use style="fill:#ffffff;stroke:#424242;" x="245.974069" xlink:href="#m0373b249d1" y="247.655593"/>
     <use style="fill:#ffffff;stroke:#424242;" x="248.279438" xlink:href="#m0373b249d1" y="247.994023"/>
     <use style="fill:#ffffff;stroke:#424242;" x="250.584808" xlink:href="#m0373b249d1" y="248.332533"/>
     <use style="fill:#ffffff;stroke:#424242;" x="252.890178" xlink:href="#m0373b249d1" y="248.671113"/>
     <use style="fill:#ffffff;stroke:#424242;" x="255.195548" xlink:href="#m0373b249d1" y="249.009748"/>
     <use style="fill:#ffffff;stroke:#424242;" x="257.500917" xlink:href="#m0373b249d1" y="249.348426"/>
     <use style="fill:#ffffff;stroke:#424242;" x="259.806287" xlink:href="#m0373b249d1" y="249.687136"/>
     <use style="fill:#ffffff;stroke:#424242;" x="262.111657" xlink:href="#m0373b249d1" y="250.025864"/>
     <use style="fill:#ffffff;stroke:#424242;" x="264.417027" xlink:href="#m0373b249d1" y="250.364601"/>
     <use style="fill:#ffffff;stroke:#424242;" x="266.722396" xlink:href="#m0373b249d1" y="250.703333"/>
     <use style="fill:#ffffff;stroke:#424242;" x="269.027766" xlink:href="#m0373b249d1" y="251.042051"/>
     <use style="fill:#ffffff;stroke:#424242;" x="271.333136" xlink:href="#m0373b249d1" y="251.380743"/>
     <use style="fill:#ffffff;stroke:#424242;" x="273.638506" xlink:href="#m0373b249d1" y="251.719399"/>
     <use style="fill:#ffffff;stroke:#424242;" x="275.943875" xlink:href="#m0373b249d1" y="252.058008"/>
     <use style="fill:#ffffff;stroke:#424242;" x="278.249245" xlink:href="#m0373b249d1" y="252.396561"/>
    </g>
   </g>
   <g id="line2d_26">
    <path clip-path="url(#p72cfe14492)" d="M 47.71227 10.103439 
L 50.01764 30.401826 
L 52.323009 57.580802 
L 54.628379 75.501988 
L 56.933749 68.902359 
L 59.239119 70.029606 
L 61.544488 79.317603 
L 63.849858 95.386441 
L 66.155228 107.34404 
L 68.460598 105.480656 
L 70.765967 106.007869 
L 73.071337 110.711278 
L 75.376707 115.257468 
L 77.682077 117.114632 
L 79.987446 118.337984 
L 82.292816 120.187406 
L 84.598186 122.076949 
L 86.903556 123.61436 
L 89.208925 125.049267 
L 91.514295 126.528524 
L 93.819665 127.974356 
L 96.125035 129.357439 
L 98.430404 130.712777 
L 100.735774 132.047159 
L 103.041144 133.350781 
L 105.346514 134.626022 
L 107.651883 135.8771 
L 109.957253 137.103588 
L 112.262623 138.305717 
L 114.567993 139.484826 
L 116.873362 140.641612 
L 119.178732 141.776658 
L 121.484102 142.890764 
L 123.789472 143.984633 
L 126.094841 145.058902 
L 128.400211 146.114231 
L 130.705581 147.151246 
L 133.010951 148.170552 
L 135.31632 149.172735 
L 137.62169 150.15836 
L 139.92706 151.127969 
L 142.23243 152.082084 
L 144.537799 153.021208 
L 146.843169 153.945823 
L 149.148539 154.856393 
L 151.453909 155.753363 
L 153.759278 156.637162 
L 156.064648 157.508201 
L 158.370018 158.366874 
L 160.675388 159.213559 
L 162.980757 160.048622 
L 165.286127 160.872411 
L 167.591497 161.685263 
L 169.896867 162.4875 
L 172.202236 163.279432 
L 174.507606 164.061357 
L 176.812976 164.833563 
L 179.118346 165.596324 
L 181.423715 166.349906 
L 183.729085 167.094564 
L 186.034455 167.830544 
L 188.339825 168.558083 
L 190.645194 169.277408 
L 192.950564 169.988738 
L 195.255934 170.692285 
L 197.561304 171.388254 
L 199.866673 172.076841 
L 202.172043 172.758236 
L 204.477413 173.432621 
L 206.782783 174.100174 
L 209.088153 174.761064 
L 211.393522 175.415459 
L 213.698892 176.063515 
L 216.004262 176.705388 
L 218.309632 177.341226 
L 220.615001 177.971173 
L 222.920371 178.595368 
L 225.225741 179.213947 
L 227.531111 179.827039 
L 229.83648 180.434771 
L 232.14185 181.037265 
L 234.44722 181.634641 
L 236.75259 182.227011 
L 239.057959 182.814489 
L 241.363329 183.397182 
L 243.668699 183.975194 
L 245.974069 184.548627 
L 248.279438 185.117581 
L 250.584808 185.682149 
L 252.890178 186.242427 
L 255.195548 186.798502 
L 257.500917 187.350464 
L 259.806287 187.898398 
L 262.111657 188.442386 
L 264.417027 188.982508 
L 266.722396 189.518844 
L 269.027766 190.051468 
L 271.333136 190.580455 
L 273.638506 191.105878 
L 275.943875 191.627805 
L 278.249245 192.146306 
" style="fill:none;stroke:#424242;stroke-linecap:round;"/>
   </g>
   <g id="PathCollection_4">
    <g clip-path="url(#p72cfe14492)">
     <use style="fill:#ffffff;stroke:#424242;" x="47.71227" xlink:href="#m0373b249d1" y="10.103439"/>
     <use style="fill:#ffffff;stroke:#424242;" x="50.01764" xlink:href="#m0373b249d1" y="30.401826"/>
     <use style="fill:#ffffff;stroke:#424242;" x="52.323009" xlink:href="#m0373b249d1" y="57.580802"/>
     <use style="fill:#ffffff;stroke:#424242;" x="54.628379" xlink:href="#m0373b249d1" y="75.501988"/>
     <use style="fill:#ffffff;stroke:#424242;" x="56.933749" xlink:href="#m0373b249d1" y="68.902359"/>
     <use style="fill:#ffffff;stroke:#424242;" x="59.239119" xlink:href="#m0373b249d1" y="70.029606"/>
     <use style="fill:#ffffff;stroke:#424242;" x="61.544488" xlink:href="#m0373b249d1" y="79.317603"/>
     <use style="fill:#ffffff;stroke:#424242;" x="63.849858" xlink:href="#m0373b249d1" y="95.386441"/>
     <use style="fill:#ffffff;stroke:#424242;" x="66.155228" xlink:href="#m0373b249d1" y="107.34404"/>
     <use style="fill:#ffffff;stroke:#424242;" x="68.460598" xlink:href="#m0373b249d1" y="105.480656"/>
     <use style="fill:#ffffff;stroke:#424242;" x="70.765967" xlink:href="#m0373b249d1" y="106.007869"/>
     <use style="fill:#ffffff;stroke:#424242;" x="73.071337" xlink:href="#m0373b249d1" y="110.711278"/>
     <use style="fill:#ffffff;stroke:#424242;" x="75.376707" xlink:href="#m0373b249d1" y="115.257468"/>
     <use style="fill:#ffffff;stroke:#424242;" x="77.682077" xlink:href="#m0373b249d1" y="117.114632"/>
     <use style="fill:#ffffff;stroke:#424242;" x="79.987446" xlink:href="#m0373b249d1" y="118.337984"/>
     <use style="fill:#ffffff;stroke:#424242;" x="82.292816" xlink:href="#m0373b249d1" y="120.187406"/>
     <use style="fill:#ffffff;stroke:#424242;" x="84.598186" xlink:href="#m0373b249d1" y="122.076949"/>
     <use style="fill:#ffffff;stroke:#424242;" x="86.903556" xlink:href="#m0373b249d1" y="123.61436"/>
     <use style="fill:#ffffff;stroke:#424242;" x="89.208925" xlink:href="#m0373b249d1" y="125.049267"/>
     <use style="fill:#ffffff;stroke:#424242;" x="91.514295" xlink:href="#m0373b249d1" y="126.528524"/>
     <use style="fill:#ffffff;stroke:#424242;" x="93.819665" xlink:href="#m0373b249d1" y="127.974356"/>
     <use style="fill:#ffffff;stroke:#424242;" x="96.125035" xlink:href="#m0373b249d1" y="129.357439"/>
     <use style="fill:#ffffff;stroke:#424242;" x="98.430404" xlink:href="#m0373b249d1" y="130.712777"/>
     <use style="fill:#ffffff;stroke:#424242;" x="100.735774" xlink:href="#m0373b249d1" y="132.047159"/>
     <use style="fill:#ffffff;stroke:#424242;" x="103.041144" xlink:href="#m0373b249d1" y="133.350781"/>
     <use style="fill:#ffffff;stroke:#424242;" x="105.346514" xlink:href="#m0373b249d1" y="134.626022"/>
     <use style="fill:#ffffff;stroke:#424242;" x="107.651883" xlink:href="#m0373b249d1" y="135.8771"/>
     <use style="fill:#ffffff;stroke:#424242;" x="109.957253" xlink:href="#m0373b249d1" y="137.103588"/>
     <use style="fill:#ffffff;stroke:#424242;" x="112.262623" xlink:href="#m0373b249d1" y="138.305717"/>
     <use style="fill:#ffffff;stroke:#424242;" x="114.567993" xlink:href="#m0373b249d1" y="139.484826"/>
     <use style="fill:#ffffff;stroke:#424242;" x="116.873362" xlink:href="#m0373b249d1" y="140.641612"/>
     <use style="fill:#ffffff;stroke:#424242;" x="119.178732" xlink:href="#m0373b249d1" y="141.776658"/>
     <use style="fill:#ffffff;stroke:#424242;" x="121.484102" xlink:href="#m0373b249d1" y="142.890764"/>
     <use style="fill:#ffffff;stroke:#424242;" x="123.789472" xlink:href="#m0373b249d1" y="143.984633"/>
     <use style="fill:#ffffff;stroke:#424242;" x="126.094841" xlink:href="#m0373b249d1" y="145.058902"/>
     <use style="fill:#ffffff;stroke:#424242;" x="128.400211" xlink:href="#m0373b249d1" y="146.114231"/>
     <use style="fill:#ffffff;stroke:#424242;" x="130.705581" xlink:href="#m0373b249d1" y="147.151246"/>
     <use style="fill:#ffffff;stroke:#424242;" x="133.010951" xlink:href="#m0373b249d1" y="148.170552"/>
     <use style="fill:#ffffff;stroke:#424242;" x="135.31632" xlink:href="#m0373b249d1" y="149.172735"/>
     <use style="fill:#ffffff;stroke:#424242;" x="137.62169" xlink:href="#m0373b249d1" y="150.15836"/>
     <use style="fill:#ffffff;stroke:#424242;" x="139.92706" xlink:href="#m0373b249d1" y="151.127969"/>
     <use style="fill:#ffffff;stroke:#424242;" x="142.23243" xlink:href="#m0373b249d1" y="152.082084"/>
     <use style="fill:#ffffff;stroke:#424242;" x="144.537799" xlink:href="#m0373b249d1" y="153.021208"/>
     <use style="fill:#ffffff;stroke:#424242;" x="146.843169" xlink:href="#m0373b249d1" y="153.945823"/>
     <use style="fill:#ffffff;stroke:#424242;" x="149.148539" xlink:href="#m0373b249d1" y="154.856393"/>
     <use style="fill:#ffffff;stroke:#424242;" x="151.453909" xlink:href="#m0373b249d1" y="155.753363"/>
     <use style="fill:#ffffff;stroke:#424242;" x="153.759278" xlink:href="#m0373b249d1" y="156.637162"/>
     <use style="fill:#ffffff;stroke:#424242;" x="156.064648" xlink:href="#m0373b249d1" y="157.508201"/>
     <use style="fill:#ffffff;stroke:#424242;" x="158.370018" xlink:href="#m0373b249d1" y="158.366874"/>
     <use style="fill:#ffffff;stroke:#424242;" x="160.675388" xlink:href="#m0373b249d1" y="159.213559"/>
     <use style="fill:#ffffff;stroke:#424242;" x="162.980757" xlink:href="#m0373b249d1" y="160.048622"/>
     <use style="fill:#ffffff;stroke:#424242;" x="165.286127" xlink:href="#m0373b249d1" y="160.872411"/>
     <use style="fill:#ffffff;stroke:#424242;" x="167.591497" xlink:href="#m0373b249d1" y="161.685263"/>
     <use style="fill:#ffffff;stroke:#424242;" x="169.896867" xlink:href="#m0373b249d1" y="162.4875"/>
     <use style="fill:#ffffff;stroke:#424242;" x="172.202236" xlink:href="#m0373b249d1" y="163.279432"/>
     <use style="fill:#ffffff;stroke:#424242;" x="174.507606" xlink:href="#m0373b249d1" y="164.061357"/>
     <use style="fill:#ffffff;stroke:#424242;" x="176.812976" xlink:href="#m0373b249d1" y="164.833563"/>
     <use style="fill:#ffffff;stroke:#424242;" x="179.118346" xlink:href="#m0373b249d1" y="165.596324"/>
     <use style="fill:#ffffff;stroke:#424242;" x="181.423715" xlink:href="#m0373b249d1" y="166.349906"/>
     <use style="fill:#ffffff;stroke:#424242;" x="183.729085" xlink:href="#m0373b249d1" y="167.094564"/>
     <use style="fill:#ffffff;stroke:#424242;" x="186.034455" xlink:href="#m0373b249d1" y="167.830544"/>
     <use style="fill:#ffffff;stroke:#424242;" x="188.339825" xlink:href="#m0373b249d1" y="168.558083"/>
     <use style="fill:#ffffff;stroke:#424242;" x="190.645194" xlink:href="#m0373b249d1" y="169.277408"/>
     <use style="fill:#ffffff;stroke:#424242;" x="192.950564" xlink:href="#m0373b249d1" y="169.988738"/>
     <use style="fill:#ffffff;stroke:#424242;" x="195.255934" xlink:href="#m0373b249d1" y="170.692285"/>
     <use style="fill:#ffffff;stroke:#424242;" x="197.561304" xlink:href="#m0373b249d1" y="171.388254"/>
     <use style="fill:#ffffff;stroke:#424242;" x="199.866673" xlink:href="#m0373b249d1" y="172.076841"/>
     <use style="fill:#ffffff;stroke:#424242;" x="202.172043" xlink:href="#m0373b249d1" y="172.758236"/>
     <use style="fill:#ffffff;stroke:#424242;" x="204.477413" xlink:href="#m0373b249d1" y="173.432621"/>
     <use style="fill:#ffffff;stroke:#424242;" x="206.782783" xlink:href="#m0373b249d1" y="174.100174"/>
     <use style="fill:#ffffff;stroke:#424242;" x="209.088153" xlink:href="#m0373b249d1" y="174.761064"/>
     <use style="fill:#ffffff;stroke:#424242;" x="211.393522" xlink:href="#m0373b249d1" y="175.415459"/>
     <use style="fill:#ffffff;stroke:#424242;" x="213.698892" xlink:href="#m0373b249d1" y="176.063515"/>
     <use style="fill:#ffffff;stroke:#424242;" x="216.004262" xlink:href="#m0373b249d1" y="176.705388"/>
     <use style="fill:#ffffff;stroke:#424242;" x="218.309632" xlink:href="#m0373b249d1" y="177.341226"/>
     <use style="fill:#ffffff;stroke:#424242;" x="220.615001" xlink:href="#m0373b249d1" y="177.971173"/>
     <use style="fill:#ffffff;stroke:#424242;" x="222.920371" xlink:href="#m0373b249d1" y="178.595368"/>
     <use style="fill:#ffffff;stroke:#424242;" x="225.225741" xlink:href="#m0373b249d1" y="179.213947"/>
     <use style="fill:#ffffff;stroke:#424242;" x="227.531111" xlink:href="#m0373b249d1" y="179.827039"/>
     <use style="fill:#ffffff;stroke:#424242;" x="229.83648" xlink:href="#m0373b249d1" y="180.434771"/>
     <use style="fill:#ffffff;stroke:#424242;" x="232.14185" xlink:href="#m0373b249d1" y="181.037265"/>
     <use style="fill:#ffffff;stroke:#424242;" x="234.44722" xlink:href="#m0373b249d1" y="181.634641"/>
     <use style="fill:#ffffff;stroke:#424242;" x="236.75259" xlink:href="#m0373b249d1" y="182.227011"/>
     <use style="fill:#ffffff;stroke:#424242;" x="239.057959" xlink:href="#m0373b249d1" y="182.814489"/>
     <use style="fill:#ffffff;stroke:#424242;" x="241.363329" xlink:href="#m0373b249d1" y="183.397182"/>
     <use style="fill:#ffffff;stroke:#424242;" x="243.668699" xlink:href="#m0373b249d1" y="183.975194"/>
     <use style="fill:#ffffff;stroke:#424242;" x="245.974069" xlink:href="#m0373b249d1" y="184.548627"/>
     <use style="fill:#ffffff;stroke:#424242;" x="248.279438" xlink:href="#m0373b249d1" y="185.117581"/>
     <use style="fill:#ffffff;stroke:#424242;" x="250.584808" xlink:href="#m0373b249d1" y="185.682149"/>
     <use style="fill:#ffffff;stroke:#424242;" x="252.890178" xlink:href="#m0373b249d1" y="186.242427"/>
     <use style="fill:#ffffff;stroke:#424242;" x="255.195548" xlink:href="#m0373b249d1" y="186.798502"/>
     <use style="fill:#ffffff;stroke:#424242;" x="257.500917" xlink:href="#m0373b249d1" y="187.350464"/>
     <use style="fill:#ffffff;stroke:#424242;" x="259.806287" xlink:href="#m0373b249d1" y="187.898398"/>
     <use style="fill:#ffffff;stroke:#424242;" x="262.111657" xlink:href="#m0373b249d1" y="188.442386"/>
     <use style="fill:#ffffff;stroke:#424242;" x="264.417027" xlink:href="#m0373b249d1" y="188.982508"/>
     <use style="fill:#ffffff;stroke:#424242;" x="266.722396" xlink:href="#m0373b249d1" y="189.518844"/>
     <use style="fill:#ffffff;stroke:#424242;" x="269.027766" xlink:href="#m0373b249d1" y="190.051468"/>
     <use style="fill:#ffffff;stroke:#424242;" x="271.333136" xlink:href="#m0373b249d1" y="190.580455"/>
     <use style="fill:#ffffff;stroke:#424242;" x="273.638506" xlink:href="#m0373b249d1" y="191.105878"/>
     <use style="fill:#ffffff;stroke:#424242;" x="275.943875" xlink:href="#m0373b249d1" y="191.627805"/>
     <use style="fill:#ffffff;stroke:#424242;" x="278.249245" xlink:href="#m0373b249d1" y="192.146306"/>
    </g>
   </g>
   <g id="line2d_27">
    <path clip-path="url(#p72cfe14492)" d="M 47.71227 40.903627 
L 50.01764 84.493054 
L 52.323009 74.886152 
L 54.628379 76.969162 
L 56.933749 112.919928 
L 59.239119 103.899786 
L 61.544488 110.67042 
L 63.849858 155.779208 
L 66.155228 126.421676 
L 68.460598 154.480021 
L 70.765967 148.400686 
L 73.071337 158.216368 
L 75.376707 166.297142 
L 77.682077 167.831713 
L 79.987446 175.852736 
L 82.292816 176.330768 
L 84.598186 181.067967 
L 86.903556 182.145289 
L 89.208925 184.710668 
L 91.514295 186.067126 
L 93.819665 187.687979 
L 96.125035 189.06108 
L 98.430404 190.353687 
L 100.735774 191.647118 
L 103.041144 192.845229 
L 105.346514 194.053321 
L 107.651883 195.213447 
L 109.957253 196.360736 
L 112.262623 197.485706 
L 114.567993 198.590638 
L 116.873362 199.678762 
L 119.178732 200.748382 
L 121.484102 201.801231 
L 123.789472 202.837507 
L 126.094841 203.857477 
L 128.400211 204.861739 
L 130.705581 205.850622 
L 133.010951 206.824512 
L 135.31632 207.783824 
L 137.62169 208.728931 
L 139.92706 209.660209 
L 142.23243 210.578031 
L 144.537799 211.482761 
L 146.843169 212.374751 
L 149.148539 213.254349 
L 151.453909 214.121892 
L 153.759278 214.977709 
L 156.064648 215.822117 
L 158.370018 216.655428 
L 160.675388 217.477942 
L 162.980757 218.28995 
L 165.286127 219.091736 
L 167.591497 219.883572 
L 169.896867 220.665724 
L 172.202236 221.438448 
L 174.507606 222.201993 
L 176.812976 222.956599 
L 179.118346 223.702498 
L 181.423715 224.439916 
L 183.729085 225.16907 
L 186.034455 225.890171 
L 188.339825 226.603422 
L 190.645194 227.309021 
L 192.950564 228.007159 
L 195.255934 228.698019 
L 197.561304 229.381782 
L 199.866673 230.058619 
L 202.172043 230.728698 
L 204.477413 231.392182 
L 206.782783 232.049227 
L 209.088153 232.699986 
L 211.393522 233.344606 
L 213.698892 233.98323 
L 216.004262 234.615996 
L 218.309632 235.243039 
L 220.615001 235.864488 
L 222.920371 236.48047 
L 225.225741 237.091107 
L 227.531111 237.696518 
L 229.83648 238.296819 
L 232.14185 238.89212 
L 234.44722 239.48253 
L 236.75259 240.068156 
L 239.057959 240.649098 
L 241.363329 241.225458 
L 243.668699 241.79733 
L 245.974069 242.36481 
L 248.279438 242.927989 
L 250.584808 243.486954 
L 252.890178 244.041793 
L 255.195548 244.59259 
L 257.500917 245.139426 
L 259.806287 245.68238 
L 262.111657 246.22153 
L 264.417027 246.756951 
L 266.722396 247.288717 
L 269.027766 247.816898 
L 271.333136 248.341564 
L 273.638506 248.862784 
L 275.943875 249.380622 
L 278.249245 249.895143 
" style="fill:none;stroke:#424242;stroke-linecap:round;"/>
   </g>
   <g id="PathCollection_5">
    <g clip-path="url(#p72cfe14492)">
     <use style="fill:#ffffff;stroke:#424242;" x="47.71227" xlink:href="#m0373b249d1" y="40.903627"/>
     <use style="fill:#ffffff;stroke:#424242;" x="50.01764" xlink:href="#m0373b249d1" y="84.493054"/>
     <use style="fill:#ffffff;stroke:#424242;" x="52.323009" xlink:href="#m0373b249d1" y="74.886152"/>
     <use style="fill:#ffffff;stroke:#424242;" x="54.628379" xlink:href="#m0373b249d1" y="76.969162"/>
     <use style="fill:#ffffff;stroke:#424242;" x="56.933749" xlink:href="#m0373b249d1" y="112.919928"/>
     <use style="fill:#ffffff;stroke:#424242;" x="59.239119" xlink:href="#m0373b249d1" y="103.899786"/>
     <use style="fill:#ffffff;stroke:#424242;" x="61.544488" xlink:href="#m0373b249d1" y="110.67042"/>
     <use style="fill:#ffffff;stroke:#424242;" x="63.849858" xlink:href="#m0373b249d1" y="155.779208"/>
     <use style="fill:#ffffff;stroke:#424242;" x="66.155228" xlink:href="#m0373b249d1" y="126.421676"/>
     <use style="fill:#ffffff;stroke:#424242;" x="68.460598" xlink:href="#m0373b249d1" y="154.480021"/>
     <use style="fill:#ffffff;stroke:#424242;" x="70.765967" xlink:href="#m0373b249d1" y="148.400686"/>
     <use style="fill:#ffffff;stroke:#424242;" x="73.071337" xlink:href="#m0373b249d1" y="158.216368"/>
     <use style="fill:#ffffff;stroke:#424242;" x="75.376707" xlink:href="#m0373b249d1" y="166.297142"/>
     <use style="fill:#ffffff;stroke:#424242;" x="77.682077" xlink:href="#m0373b249d1" y="167.831713"/>
     <use style="fill:#ffffff;stroke:#424242;" x="79.987446" xlink:href="#m0373b249d1" y="175.852736"/>
     <use style="fill:#ffffff;stroke:#424242;" x="82.292816" xlink:href="#m0373b249d1" y="176.330768"/>
     <use style="fill:#ffffff;stroke:#424242;" x="84.598186" xlink:href="#m0373b249d1" y="181.067967"/>
     <use style="fill:#ffffff;stroke:#424242;" x="86.903556" xlink:href="#m0373b249d1" y="182.145289"/>
     <use style="fill:#ffffff;stroke:#424242;" x="89.208925" xlink:href="#m0373b249d1" y="184.710668"/>
     <use style="fill:#ffffff;stroke:#424242;" x="91.514295" xlink:href="#m0373b249d1" y="186.067126"/>
     <use style="fill:#ffffff;stroke:#424242;" x="93.819665" xlink:href="#m0373b249d1" y="187.687979"/>
     <use style="fill:#ffffff;stroke:#424242;" x="96.125035" xlink:href="#m0373b249d1" y="189.06108"/>
     <use style="fill:#ffffff;stroke:#424242;" x="98.430404" xlink:href="#m0373b249d1" y="190.353687"/>
     <use style="fill:#ffffff;stroke:#424242;" x="100.735774" xlink:href="#m0373b249d1" y="191.647118"/>
     <use style="fill:#ffffff;stroke:#424242;" x="103.041144" xlink:href="#m0373b249d1" y="192.845229"/>
     <use style="fill:#ffffff;stroke:#424242;" x="105.346514" xlink:href="#m0373b249d1" y="194.053321"/>
     <use style="fill:#ffffff;stroke:#424242;" x="107.651883" xlink:href="#m0373b249d1" y="195.213447"/>
     <use style="fill:#ffffff;stroke:#424242;" x="109.957253" xlink:href="#m0373b249d1" y="196.360736"/>
     <use style="fill:#ffffff;stroke:#424242;" x="112.262623" xlink:href="#m0373b249d1" y="197.485706"/>
     <use style="fill:#ffffff;stroke:#424242;" x="114.567993" xlink:href="#m0373b249d1" y="198.590638"/>
     <use style="fill:#ffffff;stroke:#424242;" x="116.873362" xlink:href="#m0373b249d1" y="199.678762"/>
     <use style="fill:#ffffff;stroke:#424242;" x="119.178732" xlink:href="#m0373b249d1" y="200.748382"/>
     <use style="fill:#ffffff;stroke:#424242;" x="121.484102" xlink:href="#m0373b249d1" y="201.801231"/>
     <use style="fill:#ffffff;stroke:#424242;" x="123.789472" xlink:href="#m0373b249d1" y="202.837507"/>
     <use style="fill:#ffffff;stroke:#424242;" x="126.094841" xlink:href="#m0373b249d1" y="203.857477"/>
     <use style="fill:#ffffff;stroke:#424242;" x="128.400211" xlink:href="#m0373b249d1" y="204.861739"/>
     <use style="fill:#ffffff;stroke:#424242;" x="130.705581" xlink:href="#m0373b249d1" y="205.850622"/>
     <use style="fill:#ffffff;stroke:#424242;" x="133.010951" xlink:href="#m0373b249d1" y="206.824512"/>
     <use style="fill:#ffffff;stroke:#424242;" x="135.31632" xlink:href="#m0373b249d1" y="207.783824"/>
     <use style="fill:#ffffff;stroke:#424242;" x="137.62169" xlink:href="#m0373b249d1" y="208.728931"/>
     <use style="fill:#ffffff;stroke:#424242;" x="139.92706" xlink:href="#m0373b249d1" y="209.660209"/>
     <use style="fill:#ffffff;stroke:#424242;" x="142.23243" xlink:href="#m0373b249d1" y="210.578031"/>
     <use style="fill:#ffffff;stroke:#424242;" x="144.537799" xlink:href="#m0373b249d1" y="211.482761"/>
     <use style="fill:#ffffff;stroke:#424242;" x="146.843169" xlink:href="#m0373b249d1" y="212.374751"/>
     <use style="fill:#ffffff;stroke:#424242;" x="149.148539" xlink:href="#m0373b249d1" y="213.254349"/>
     <use style="fill:#ffffff;stroke:#424242;" x="151.453909" xlink:href="#m0373b249d1" y="214.121892"/>
     <use style="fill:#ffffff;stroke:#424242;" x="153.759278" xlink:href="#m0373b249d1" y="214.977709"/>
     <use style="fill:#ffffff;stroke:#424242;" x="156.064648" xlink:href="#m0373b249d1" y="215.822117"/>
     <use style="fill:#ffffff;stroke:#424242;" x="158.370018" xlink:href="#m0373b249d1" y="216.655428"/>
     <use style="fill:#ffffff;stroke:#424242;" x="160.675388" xlink:href="#m0373b249d1" y="217.477942"/>
     <use style="fill:#ffffff;stroke:#424242;" x="162.980757" xlink:href="#m0373b249d1" y="218.28995"/>
     <use style="fill:#ffffff;stroke:#424242;" x="165.286127" xlink:href="#m0373b249d1" y="219.091736"/>
     <use style="fill:#ffffff;stroke:#424242;" x="167.591497" xlink:href="#m0373b249d1" y="219.883572"/>
     <use style="fill:#ffffff;stroke:#424242;" x="169.896867" xlink:href="#m0373b249d1" y="220.665724"/>
     <use style="fill:#ffffff;stroke:#424242;" x="172.202236" xlink:href="#m0373b249d1" y="221.438448"/>
     <use style="fill:#ffffff;stroke:#424242;" x="174.507606" xlink:href="#m0373b249d1" y="222.201993"/>
     <use style="fill:#ffffff;stroke:#424242;" x="176.812976" xlink:href="#m0373b249d1" y="222.956599"/>
     <use style="fill:#ffffff;stroke:#424242;" x="179.118346" xlink:href="#m0373b249d1" y="223.702498"/>
     <use style="fill:#ffffff;stroke:#424242;" x="181.423715" xlink:href="#m0373b249d1" y="224.439916"/>
     <use style="fill:#ffffff;stroke:#424242;" x="183.729085" xlink:href="#m0373b249d1" y="225.16907"/>
     <use style="fill:#ffffff;stroke:#424242;" x="186.034455" xlink:href="#m0373b249d1" y="225.890171"/>
     <use style="fill:#ffffff;stroke:#424242;" x="188.339825" xlink:href="#m0373b249d1" y="226.603422"/>
     <use style="fill:#ffffff;stroke:#424242;" x="190.645194" xlink:href="#m0373b249d1" y="227.309021"/>
     <use style="fill:#ffffff;stroke:#424242;" x="192.950564" xlink:href="#m0373b249d1" y="228.007159"/>
     <use style="fill:#ffffff;stroke:#424242;" x="195.255934" xlink:href="#m0373b249d1" y="228.698019"/>
     <use style="fill:#ffffff;stroke:#424242;" x="197.561304" xlink:href="#m0373b249d1" y="229.381782"/>
     <use style="fill:#ffffff;stroke:#424242;" x="199.866673" xlink:href="#m0373b249d1" y="230.058619"/>
     <use style="fill:#ffffff;stroke:#424242;" x="202.172043" xlink:href="#m0373b249d1" y="230.728698"/>
     <use style="fill:#ffffff;stroke:#424242;" x="204.477413" xlink:href="#m0373b249d1" y="231.392182"/>
     <use style="fill:#ffffff;stroke:#424242;" x="206.782783" xlink:href="#m0373b249d1" y="232.049227"/>
     <use style="fill:#ffffff;stroke:#424242;" x="209.088153" xlink:href="#m0373b249d1" y="232.699986"/>
     <use style="fill:#ffffff;stroke:#424242;" x="211.393522" xlink:href="#m0373b249d1" y="233.344606"/>
     <use style="fill:#ffffff;stroke:#424242;" x="213.698892" xlink:href="#m0373b249d1" y="233.98323"/>
     <use style="fill:#ffffff;stroke:#424242;" x="216.004262" xlink:href="#m0373b249d1" y="234.615996"/>
     <use style="fill:#ffffff;stroke:#424242;" x="218.309632" xlink:href="#m0373b249d1" y="235.243039"/>
     <use style="fill:#ffffff;stroke:#424242;" x="220.615001" xlink:href="#m0373b249d1" y="235.864488"/>
     <use style="fill:#ffffff;stroke:#424242;" x="222.920371" xlink:href="#m0373b249d1" y="236.48047"/>
     <use style="fill:#ffffff;stroke:#424242;" x="225.225741" xlink:href="#m0373b249d1" y="237.091107"/>
     <use style="fill:#ffffff;stroke:#424242;" x="227.531111" xlink:href="#m0373b249d1" y="237.696518"/>
     <use style="fill:#ffffff;stroke:#424242;" x="229.83648" xlink:href="#m0373b249d1" y="238.296819"/>
     <use style="fill:#ffffff;stroke:#424242;" x="232.14185" xlink:href="#m0373b249d1" y="238.89212"/>
     <use style="fill:#ffffff;stroke:#424242;" x="234.44722" xlink:href="#m0373b249d1" y="239.48253"/>
     <use style="fill:#ffffff;stroke:#424242;" x="236.75259" xlink:href="#m0373b249d1" y="240.068156"/>
     <use style="fill:#ffffff;stroke:#424242;" x="239.057959" xlink:href="#m0373b249d1" y="240.649098"/>
     <use style="fill:#ffffff;stroke:#424242;" x="241.363329" xlink:href="#m0373b249d1" y="241.225458"/>
     <use style="fill:#ffffff;stroke:#424242;" x="243.668699" xlink:href="#m0373b249d1" y="241.79733"/>
     <use style="fill:#ffffff;stroke:#424242;" x="245.974069" xlink:href="#m0373b249d1" y="242.36481"/>
     <use style="fill:#ffffff;stroke:#424242;" x="248.279438" xlink:href="#m0373b249d1" y="242.927989"/>
     <use style="fill:#ffffff;stroke:#424242;" x="250.584808" xlink:href="#m0373b249d1" y="243.486954"/>
     <use style="fill:#ffffff;stroke:#424242;" x="252.890178" xlink:href="#m0373b249d1" y="244.041793"/>
     <use style="fill:#ffffff;stroke:#424242;" x="255.195548" xlink:href="#m0373b249d1" y="244.59259"/>
     <use style="fill:#ffffff;stroke:#424242;" x="257.500917" xlink:href="#m0373b249d1" y="245.139426"/>
     <use style="fill:#ffffff;stroke:#424242;" x="259.806287" xlink:href="#m0373b249d1" y="245.68238"/>
     <use style="fill:#ffffff;stroke:#424242;" x="262.111657" xlink:href="#m0373b249d1" y="246.22153"/>
     <use style="fill:#ffffff;stroke:#424242;" x="264.417027" xlink:href="#m0373b249d1" y="246.756951"/>
     <use style="fill:#ffffff;stroke:#424242;" x="266.722396" xlink:href="#m0373b249d1" y="247.288717"/>
     <use style="fill:#ffffff;stroke:#424242;" x="269.027766" xlink:href="#m0373b249d1" y="247.816898"/>
     <use style="fill:#ffffff;stroke:#424242;" x="271.333136" xlink:href="#m0373b249d1" y="248.341564"/>
     <use style="fill:#ffffff;stroke:#424242;" x="273.638506" xlink:href="#m0373b249d1" y="248.862784"/>
     <use style="fill:#ffffff;stroke:#424242;" x="275.943875" xlink:href="#m0373b249d1" y="249.380622"/>
     <use style="fill:#ffffff;stroke:#424242;" x="278.249245" xlink:href="#m0373b249d1" y="249.895143"/>
    </g>
   </g>
  </g>
 </g>
 <defs>
  <clipPath id="p72cfe14492">
   <rect height="256.830709" width="244.369194" x="40.796161" y="2.834646"/>
  </clipPath>
 </defs>
</svg>
