<?xml version="1.0" encoding="utf-8" standalone="no"?>
<!DOCTYPE svg PUBLIC "-//W3C//DTD SVG 1.1//EN"
  "http://www.w3.org/Graphics/SVG/1.1/DTD/svg11.dtd">
<!-- Created with matplotlib (https://matplotlib.org/) -->
<svg height="288pt" version="1.1" viewBox="0 0 288 288" width="288pt" xmlns="http://www.w3.org/2000/svg" xmlns:xlink="http://www.w3.org/1999/xlink">
 <defs>
  <style type="text/css">
*{stroke-linecap:butt;stroke-linejoin:round;}
  </style>
 </defs>
 <g id="figure_1">
  <g id="patch_1">
   <path d="M 0 288 
L 288 288 
L 288 0 
L 0 0 
z
" style="fill:#ffffff;"/>
  </g>
  <g id="axes_1">
   <g id="patch_2">
    <path d="M 40.571161 259.665354 
L 285.165354 259.665354 
L 285.165354 2.834646 
L 40.571161 2.834646 
z
" style="fill:#ffffff;"/>
   </g>
   <g id="matplotlib.axis_1">
    <g id="xtick_1">
     <g id="line2d_1">
      <path clip-path="url(#p7d20d62994)" d="M 46.339892 259.665354 
L 46.339892 2.834646 
" style="fill:none;stroke:#000000;stroke-linecap:square;stroke-opacity:0.1;stroke-width:0.5;"/>
     </g>
     <g id="line2d_2">
      <defs>
       <path d="M 0 0 
L 0 -3.5 
" id="m12524f6ad5" style="stroke:#000000;stroke-width:0.8;"/>
      </defs>
      <g>
       <use style="stroke:#000000;stroke-width:0.8;" x="46.339892" xlink:href="#m12524f6ad5" y="259.665354"/>
      </g>
     </g>
     <g id="text_1">
      <!-- 0 -->
      <defs>
       <path d="M 31.78125 66.40625 
Q 24.171875 66.40625 20.328125 58.90625 
Q 16.5 51.421875 16.5 36.375 
Q 16.5 21.390625 20.328125 13.890625 
Q 24.171875 6.390625 31.78125 6.390625 
Q 39.453125 6.390625 43.28125 13.890625 
Q 47.125 21.390625 47.125 36.375 
Q 47.125 51.421875 43.28125 58.90625 
Q 39.453125 66.40625 31.78125 66.40625 
z
M 31.78125 74.21875 
Q 44.046875 74.21875 50.515625 64.515625 
Q 56.984375 54.828125 56.984375 36.375 
Q 56.984375 17.96875 50.515625 8.265625 
Q 44.046875 -1.421875 31.78125 -1.421875 
Q 19.53125 -1.421875 13.0625 8.265625 
Q 6.59375 17.96875 6.59375 36.375 
Q 6.59375 54.828125 13.0625 64.515625 
Q 19.53125 74.21875 31.78125 74.21875 
z
" id="DejaVuSans-48"/>
      </defs>
      <g transform="translate(43.794892 269.244104)scale(0.08 -0.08)">
       <use xlink:href="#DejaVuSans-48"/>
      </g>
     </g>
    </g>
    <g id="xtick_2">
     <g id="line2d_3">
      <path clip-path="url(#p7d20d62994)" d="M 104.027201 259.665354 
L 104.027201 2.834646 
" style="fill:none;stroke:#000000;stroke-linecap:square;stroke-opacity:0.1;stroke-width:0.5;"/>
     </g>
     <g id="line2d_4">
      <g>
       <use style="stroke:#000000;stroke-width:0.8;" x="104.027201" xlink:href="#m12524f6ad5" y="259.665354"/>
      </g>
     </g>
     <g id="text_2">
      <!-- 50 -->
      <defs>
       <path d="M 10.796875 72.90625 
L 49.515625 72.90625 
L 49.515625 64.59375 
L 19.828125 64.59375 
L 19.828125 46.734375 
Q 21.96875 47.46875 24.109375 47.828125 
Q 26.265625 48.1875 28.421875 48.1875 
Q 40.625 48.1875 47.75 41.5 
Q 54.890625 34.8125 54.890625 23.390625 
Q 54.890625 11.625 47.5625 5.09375 
Q 40.234375 -1.421875 26.90625 -1.421875 
Q 22.3125 -1.421875 17.546875 -0.640625 
Q 12.796875 0.140625 7.71875 1.703125 
L 7.71875 11.625 
Q 12.109375 9.234375 16.796875 8.0625 
Q 21.484375 6.890625 26.703125 6.890625 
Q 35.15625 6.890625 40.078125 11.328125 
Q 45.015625 15.765625 45.015625 23.390625 
Q 45.015625 31 40.078125 35.4375 
Q 35.15625 39.890625 26.703125 39.890625 
Q 22.75 39.890625 18.8125 39.015625 
Q 14.890625 38.140625 10.796875 36.28125 
z
" id="DejaVuSans-53"/>
      </defs>
      <g transform="translate(98.937201 269.244104)scale(0.08 -0.08)">
       <use xlink:href="#DejaVuSans-53"/>
       <use x="63.623047" xlink:href="#DejaVuSans-48"/>
      </g>
     </g>
    </g>
    <g id="xtick_3">
     <g id="line2d_5">
      <path clip-path="url(#p7d20d62994)" d="M 161.714511 259.665354 
L 161.714511 2.834646 
" style="fill:none;stroke:#000000;stroke-linecap:square;stroke-opacity:0.1;stroke-width:0.5;"/>
     </g>
     <g id="line2d_6">
      <g>
       <use style="stroke:#000000;stroke-width:0.8;" x="161.714511" xlink:href="#m12524f6ad5" y="259.665354"/>
      </g>
     </g>
     <g id="text_3">
      <!-- 100 -->
      <defs>
       <path d="M 12.40625 8.296875 
L 28.515625 8.296875 
L 28.515625 63.921875 
L 10.984375 60.40625 
L 10.984375 69.390625 
L 28.421875 72.90625 
L 38.28125 72.90625 
L 38.28125 8.296875 
L 54.390625 8.296875 
L 54.390625 0 
L 12.40625 0 
z
" id="DejaVuSans-49"/>
      </defs>
      <g transform="translate(154.079511 269.244104)scale(0.08 -0.08)">
       <use xlink:href="#DejaVuSans-49"/>
       <use x="63.623047" xlink:href="#DejaVuSans-48"/>
       <use x="127.246094" xlink:href="#DejaVuSans-48"/>
      </g>
     </g>
    </g>
    <g id="xtick_4">
     <g id="line2d_7">
      <path clip-path="url(#p7d20d62994)" d="M 219.401821 259.665354 
L 219.401821 2.834646 
" style="fill:none;stroke:#000000;stroke-linecap:square;stroke-opacity:0.1;stroke-width:0.5;"/>
     </g>
     <g id="line2d_8">
      <g>
       <use style="stroke:#000000;stroke-width:0.8;" x="219.401821" xlink:href="#m12524f6ad5" y="259.665354"/>
      </g>
     </g>
     <g id="text_4">
      <!-- 150 -->
      <g transform="translate(211.766821 269.244104)scale(0.08 -0.08)">
       <use xlink:href="#DejaVuSans-49"/>
       <use x="63.623047" xlink:href="#DejaVuSans-53"/>
       <use x="127.246094" xlink:href="#DejaVuSans-48"/>
      </g>
     </g>
    </g>
    <g id="xtick_5">
     <g id="line2d_9">
      <path clip-path="url(#p7d20d62994)" d="M 277.089131 259.665354 
L 277.089131 2.834646 
" style="fill:none;stroke:#000000;stroke-linecap:square;stroke-opacity:0.1;stroke-width:0.5;"/>
     </g>
     <g id="line2d_10">
      <g>
       <use style="stroke:#000000;stroke-width:0.8;" x="277.089131" xlink:href="#m12524f6ad5" y="259.665354"/>
      </g>
     </g>
     <g id="text_5">
      <!-- 200 -->
      <defs>
       <path d="M 19.1875 8.296875 
L 53.609375 8.296875 
L 53.609375 0 
L 7.328125 0 
L 7.328125 8.296875 
Q 12.9375 14.109375 22.625 23.890625 
Q 32.328125 33.6875 34.8125 36.53125 
Q 39.546875 41.84375 41.421875 45.53125 
Q 43.3125 49.21875 43.3125 52.78125 
Q 43.3125 58.59375 39.234375 62.25 
Q 35.15625 65.921875 28.609375 65.921875 
Q 23.96875 65.921875 18.8125 64.3125 
Q 13.671875 62.703125 7.8125 59.421875 
L 7.8125 69.390625 
Q 13.765625 71.78125 18.9375 73 
Q 24.125 74.21875 28.421875 74.21875 
Q 39.75 74.21875 46.484375 68.546875 
Q 53.21875 62.890625 53.21875 53.421875 
Q 53.21875 48.921875 51.53125 44.890625 
Q 49.859375 40.875 45.40625 35.40625 
Q 44.1875 33.984375 37.640625 27.21875 
Q 31.109375 20.453125 19.1875 8.296875 
z
" id="DejaVuSans-50"/>
      </defs>
      <g transform="translate(269.454131 269.244104)scale(0.08 -0.08)">
       <use xlink:href="#DejaVuSans-50"/>
       <use x="63.623047" xlink:href="#DejaVuSans-48"/>
       <use x="127.246094" xlink:href="#DejaVuSans-48"/>
      </g>
     </g>
    </g>
    <g id="text_6">
     <!-- Iteration -->
     <defs>
      <path d="M 9.8125 72.90625 
L 19.671875 72.90625 
L 19.671875 0 
L 9.8125 0 
z
" id="DejaVuSans-73"/>
      <path d="M 18.3125 70.21875 
L 18.3125 54.6875 
L 36.8125 54.6875 
L 36.8125 47.703125 
L 18.3125 47.703125 
L 18.3125 18.015625 
Q 18.3125 11.328125 20.140625 9.421875 
Q 21.96875 7.515625 27.59375 7.515625 
L 36.8125 7.515625 
L 36.8125 0 
L 27.59375 0 
Q 17.1875 0 13.234375 3.875 
Q 9.28125 7.765625 9.28125 18.015625 
L 9.28125 47.703125 
L 2.6875 47.703125 
L 2.6875 54.6875 
L 9.28125 54.6875 
L 9.28125 70.21875 
z
" id="DejaVuSans-116"/>
      <path d="M 56.203125 29.59375 
L 56.203125 25.203125 
L 14.890625 25.203125 
Q 15.484375 15.921875 20.484375 11.0625 
Q 25.484375 6.203125 34.421875 6.203125 
Q 39.59375 6.203125 44.453125 7.46875 
Q 49.3125 8.734375 54.109375 11.28125 
L 54.109375 2.78125 
Q 49.265625 0.734375 44.1875 -0.34375 
Q 39.109375 -1.421875 33.890625 -1.421875 
Q 20.796875 -1.421875 13.15625 6.1875 
Q 5.515625 13.8125 5.515625 26.8125 
Q 5.515625 40.234375 12.765625 48.109375 
Q 20.015625 56 32.328125 56 
Q 43.359375 56 49.78125 48.890625 
Q 56.203125 41.796875 56.203125 29.59375 
z
M 47.21875 32.234375 
Q 47.125 39.59375 43.09375 43.984375 
Q 39.0625 48.390625 32.421875 48.390625 
Q 24.90625 48.390625 20.390625 44.140625 
Q 15.875 39.890625 15.1875 32.171875 
z
" id="DejaVuSans-101"/>
      <path d="M 41.109375 46.296875 
Q 39.59375 47.171875 37.8125 47.578125 
Q 36.03125 48 33.890625 48 
Q 26.265625 48 22.1875 43.046875 
Q 18.109375 38.09375 18.109375 28.8125 
L 18.109375 0 
L 9.078125 0 
L 9.078125 54.6875 
L 18.109375 54.6875 
L 18.109375 46.1875 
Q 20.953125 51.171875 25.484375 53.578125 
Q 30.03125 56 36.53125 56 
Q 37.453125 56 38.578125 55.875 
Q 39.703125 55.765625 41.0625 55.515625 
z
" id="DejaVuSans-114"/>
      <path d="M 34.28125 27.484375 
Q 23.390625 27.484375 19.1875 25 
Q 14.984375 22.515625 14.984375 16.5 
Q 14.984375 11.71875 18.140625 8.90625 
Q 21.296875 6.109375 26.703125 6.109375 
Q 34.1875 6.109375 38.703125 11.40625 
Q 43.21875 16.703125 43.21875 25.484375 
L 43.21875 27.484375 
z
M 52.203125 31.203125 
L 52.203125 0 
L 43.21875 0 
L 43.21875 8.296875 
Q 40.140625 3.328125 35.546875 0.953125 
Q 30.953125 -1.421875 24.3125 -1.421875 
Q 15.921875 -1.421875 10.953125 3.296875 
Q 6 8.015625 6 15.921875 
Q 6 25.140625 12.171875 29.828125 
Q 18.359375 34.515625 30.609375 34.515625 
L 43.21875 34.515625 
L 43.21875 35.40625 
Q 43.21875 41.609375 39.140625 45 
Q 35.0625 48.390625 27.6875 48.390625 
Q 23 48.390625 18.546875 47.265625 
Q 14.109375 46.140625 10.015625 43.890625 
L 10.015625 52.203125 
Q 14.9375 54.109375 19.578125 55.046875 
Q 24.21875 56 28.609375 56 
Q 40.484375 56 46.34375 49.84375 
Q 52.203125 43.703125 52.203125 31.203125 
z
" id="DejaVuSans-97"/>
      <path d="M 9.421875 54.6875 
L 18.40625 54.6875 
L 18.40625 0 
L 9.421875 0 
z
M 9.421875 75.984375 
L 18.40625 75.984375 
L 18.40625 64.59375 
L 9.421875 64.59375 
z
" id="DejaVuSans-105"/>
      <path d="M 30.609375 48.390625 
Q 23.390625 48.390625 19.1875 42.75 
Q 14.984375 37.109375 14.984375 27.296875 
Q 14.984375 17.484375 19.15625 11.84375 
Q 23.34375 6.203125 30.609375 6.203125 
Q 37.796875 6.203125 41.984375 11.859375 
Q 46.1875 17.53125 46.1875 27.296875 
Q 46.1875 37.015625 41.984375 42.703125 
Q 37.796875 48.390625 30.609375 48.390625 
z
M 30.609375 56 
Q 42.328125 56 49.015625 48.375 
Q 55.71875 40.765625 55.71875 27.296875 
Q 55.71875 13.875 49.015625 6.21875 
Q 42.328125 -1.421875 30.609375 -1.421875 
Q 18.84375 -1.421875 12.171875 6.21875 
Q 5.515625 13.875 5.515625 27.296875 
Q 5.515625 40.765625 12.171875 48.375 
Q 18.84375 56 30.609375 56 
z
" id="DejaVuSans-111"/>
      <path d="M 54.890625 33.015625 
L 54.890625 0 
L 45.90625 0 
L 45.90625 32.71875 
Q 45.90625 40.484375 42.875 44.328125 
Q 39.84375 48.1875 33.796875 48.1875 
Q 26.515625 48.1875 22.3125 43.546875 
Q 18.109375 38.921875 18.109375 30.90625 
L 18.109375 0 
L 9.078125 0 
L 9.078125 54.6875 
L 18.109375 54.6875 
L 18.109375 46.1875 
Q 21.34375 51.125 25.703125 53.5625 
Q 30.078125 56 35.796875 56 
Q 45.21875 56 50.046875 50.171875 
Q 54.890625 44.34375 54.890625 33.015625 
z
" id="DejaVuSans-110"/>
     </defs>
     <g transform="translate(139.538804 283.266136)scale(0.11 -0.11)">
      <use xlink:href="#DejaVuSans-73"/>
      <use x="29.492188" xlink:href="#DejaVuSans-116"/>
      <use x="68.701172" xlink:href="#DejaVuSans-101"/>
      <use x="130.224609" xlink:href="#DejaVuSans-114"/>
      <use x="171.337891" xlink:href="#DejaVuSans-97"/>
      <use x="232.617188" xlink:href="#DejaVuSans-116"/>
      <use x="271.826172" xlink:href="#DejaVuSans-105"/>
      <use x="299.609375" xlink:href="#DejaVuSans-111"/>
      <use x="360.791016" xlink:href="#DejaVuSans-110"/>
     </g>
    </g>
   </g>
   <g id="matplotlib.axis_2">
    <g id="ytick_1">
     <g id="line2d_11">
      <path clip-path="url(#p7d20d62994)" d="M 40.571161 233.38866 
L 285.165354 233.38866 
" style="fill:none;stroke:#000000;stroke-linecap:square;stroke-opacity:0.1;stroke-width:0.5;"/>
     </g>
     <g id="line2d_12">
      <defs>
       <path d="M 0 0 
L 3.5 0 
" id="mf7e186f991" style="stroke:#000000;stroke-width:0.8;"/>
      </defs>
      <g>
       <use style="stroke:#000000;stroke-width:0.8;" x="40.571161" xlink:href="#mf7e186f991" y="233.38866"/>
      </g>
     </g>
     <g id="text_7">
      <!-- $10^{-2}$ -->
      <defs>
       <path d="M 10.59375 35.5 
L 73.1875 35.5 
L 73.1875 27.203125 
L 10.59375 27.203125 
z
" id="DejaVuSans-8722"/>
      </defs>
      <g transform="translate(18.271161 236.428035)scale(0.08 -0.08)">
       <use transform="translate(0 0.765625)" xlink:href="#DejaVuSans-49"/>
       <use transform="translate(63.623047 0.765625)" xlink:href="#DejaVuSans-48"/>
       <use transform="translate(128.203125 39.046875)scale(0.7)" xlink:href="#DejaVuSans-8722"/>
       <use transform="translate(186.855469 39.046875)scale(0.7)" xlink:href="#DejaVuSans-50"/>
      </g>
     </g>
    </g>
    <g id="ytick_2">
     <g id="line2d_13">
      <path clip-path="url(#p7d20d62994)" d="M 40.571161 185.03955 
L 285.165354 185.03955 
" style="fill:none;stroke:#000000;stroke-linecap:square;stroke-opacity:0.1;stroke-width:0.5;"/>
     </g>
     <g id="line2d_14">
      <g>
       <use style="stroke:#000000;stroke-width:0.8;" x="40.571161" xlink:href="#mf7e186f991" y="185.03955"/>
      </g>
     </g>
     <g id="text_8">
      <!-- $10^{-1}$ -->
      <g transform="translate(18.271161 188.078925)scale(0.08 -0.08)">
       <use transform="translate(0 0.684375)" xlink:href="#DejaVuSans-49"/>
       <use transform="translate(63.623047 0.684375)" xlink:href="#DejaVuSans-48"/>
       <use transform="translate(128.203125 38.965625)scale(0.7)" xlink:href="#DejaVuSans-8722"/>
       <use transform="translate(186.855469 38.965625)scale(0.7)" xlink:href="#DejaVuSans-49"/>
      </g>
     </g>
    </g>
    <g id="ytick_3">
     <g id="line2d_15">
      <path clip-path="url(#p7d20d62994)" d="M 40.571161 136.69044 
L 285.165354 136.69044 
" style="fill:none;stroke:#000000;stroke-linecap:square;stroke-opacity:0.1;stroke-width:0.5;"/>
     </g>
     <g id="line2d_16">
      <g>
       <use style="stroke:#000000;stroke-width:0.8;" x="40.571161" xlink:href="#mf7e186f991" y="136.69044"/>
      </g>
     </g>
     <g id="text_9">
      <!-- $10^{0}$ -->
      <g transform="translate(22.991161 139.729815)scale(0.08 -0.08)">
       <use transform="translate(0 0.765625)" xlink:href="#DejaVuSans-49"/>
       <use transform="translate(63.623047 0.765625)" xlink:href="#DejaVuSans-48"/>
       <use transform="translate(128.203125 39.046875)scale(0.7)" xlink:href="#DejaVuSans-48"/>
      </g>
     </g>
    </g>
    <g id="ytick_4">
     <g id="line2d_17">
      <path clip-path="url(#p7d20d62994)" d="M 40.571161 88.34133 
L 285.165354 88.34133 
" style="fill:none;stroke:#000000;stroke-linecap:square;stroke-opacity:0.1;stroke-width:0.5;"/>
     </g>
     <g id="line2d_18">
      <g>
       <use style="stroke:#000000;stroke-width:0.8;" x="40.571161" xlink:href="#mf7e186f991" y="88.34133"/>
      </g>
     </g>
     <g id="text_10">
      <!-- $10^{1}$ -->
      <g transform="translate(22.991161 91.380705)scale(0.08 -0.08)">
       <use transform="translate(0 0.684375)" xlink:href="#DejaVuSans-49"/>
       <use transform="translate(63.623047 0.684375)" xlink:href="#DejaVuSans-48"/>
       <use transform="translate(128.203125 38.965625)scale(0.7)" xlink:href="#DejaVuSans-49"/>
      </g>
     </g>
    </g>
    <g id="ytick_5">
     <g id="line2d_19">
      <path clip-path="url(#p7d20d62994)" d="M 40.571161 39.99222 
L 285.165354 39.99222 
" style="fill:none;stroke:#000000;stroke-linecap:square;stroke-opacity:0.1;stroke-width:0.5;"/>
     </g>
     <g id="line2d_20">
      <g>
       <use style="stroke:#000000;stroke-width:0.8;" x="40.571161" xlink:href="#mf7e186f991" y="39.99222"/>
      </g>
     </g>
     <g id="text_11">
      <!-- $10^{2}$ -->
      <g transform="translate(22.991161 43.031595)scale(0.08 -0.08)">
       <use transform="translate(0 0.765625)" xlink:href="#DejaVuSans-49"/>
       <use transform="translate(63.623047 0.765625)" xlink:href="#DejaVuSans-48"/>
       <use transform="translate(128.203125 39.046875)scale(0.7)" xlink:href="#DejaVuSans-50"/>
      </g>
     </g>
    </g>
    <g id="text_12">
     <!-- Absolute Error -->
     <defs>
      <path d="M 34.1875 63.1875 
L 20.796875 26.90625 
L 47.609375 26.90625 
z
M 28.609375 72.90625 
L 39.796875 72.90625 
L 67.578125 0 
L 57.328125 0 
L 50.6875 18.703125 
L 17.828125 18.703125 
L 11.1875 0 
L 0.78125 0 
z
" id="DejaVuSans-65"/>
      <path d="M 48.6875 27.296875 
Q 48.6875 37.203125 44.609375 42.84375 
Q 40.53125 48.484375 33.40625 48.484375 
Q 26.265625 48.484375 22.1875 42.84375 
Q 18.109375 37.203125 18.109375 27.296875 
Q 18.109375 17.390625 22.1875 11.75 
Q 26.265625 6.109375 33.40625 6.109375 
Q 40.53125 6.109375 44.609375 11.75 
Q 48.6875 17.390625 48.6875 27.296875 
z
M 18.109375 46.390625 
Q 20.953125 51.265625 25.265625 53.625 
Q 29.59375 56 35.59375 56 
Q 45.5625 56 51.78125 48.09375 
Q 58.015625 40.1875 58.015625 27.296875 
Q 58.015625 14.40625 51.78125 6.484375 
Q 45.5625 -1.421875 35.59375 -1.421875 
Q 29.59375 -1.421875 25.265625 0.953125 
Q 20.953125 3.328125 18.109375 8.203125 
L 18.109375 0 
L 9.078125 0 
L 9.078125 75.984375 
L 18.109375 75.984375 
z
" id="DejaVuSans-98"/>
      <path d="M 44.28125 53.078125 
L 44.28125 44.578125 
Q 40.484375 46.53125 36.375 47.5 
Q 32.28125 48.484375 27.875 48.484375 
Q 21.1875 48.484375 17.84375 46.4375 
Q 14.5 44.390625 14.5 40.28125 
Q 14.5 37.15625 16.890625 35.375 
Q 19.28125 33.59375 26.515625 31.984375 
L 29.59375 31.296875 
Q 39.15625 29.25 43.1875 25.515625 
Q 47.21875 21.78125 47.21875 15.09375 
Q 47.21875 7.46875 41.1875 3.015625 
Q 35.15625 -1.421875 24.609375 -1.421875 
Q 20.21875 -1.421875 15.453125 -0.5625 
Q 10.6875 0.296875 5.421875 2 
L 5.421875 11.28125 
Q 10.40625 8.6875 15.234375 7.390625 
Q 20.0625 6.109375 24.8125 6.109375 
Q 31.15625 6.109375 34.5625 8.28125 
Q 37.984375 10.453125 37.984375 14.40625 
Q 37.984375 18.0625 35.515625 20.015625 
Q 33.0625 21.96875 24.703125 23.78125 
L 21.578125 24.515625 
Q 13.234375 26.265625 9.515625 29.90625 
Q 5.8125 33.546875 5.8125 39.890625 
Q 5.8125 47.609375 11.28125 51.796875 
Q 16.75 56 26.8125 56 
Q 31.78125 56 36.171875 55.265625 
Q 40.578125 54.546875 44.28125 53.078125 
z
" id="DejaVuSans-115"/>
      <path d="M 9.421875 75.984375 
L 18.40625 75.984375 
L 18.40625 0 
L 9.421875 0 
z
" id="DejaVuSans-108"/>
      <path d="M 8.5 21.578125 
L 8.5 54.6875 
L 17.484375 54.6875 
L 17.484375 21.921875 
Q 17.484375 14.15625 20.5 10.265625 
Q 23.53125 6.390625 29.59375 6.390625 
Q 36.859375 6.390625 41.078125 11.03125 
Q 45.3125 15.671875 45.3125 23.6875 
L 45.3125 54.6875 
L 54.296875 54.6875 
L 54.296875 0 
L 45.3125 0 
L 45.3125 8.40625 
Q 42.046875 3.421875 37.71875 1 
Q 33.40625 -1.421875 27.6875 -1.421875 
Q 18.265625 -1.421875 13.375 4.4375 
Q 8.5 10.296875 8.5 21.578125 
z
M 31.109375 56 
z
" id="DejaVuSans-117"/>
      <path id="DejaVuSans-32"/>
      <path d="M 9.8125 72.90625 
L 55.90625 72.90625 
L 55.90625 64.59375 
L 19.671875 64.59375 
L 19.671875 43.015625 
L 54.390625 43.015625 
L 54.390625 34.71875 
L 19.671875 34.71875 
L 19.671875 8.296875 
L 56.78125 8.296875 
L 56.78125 0 
L 9.8125 0 
z
" id="DejaVuSans-69"/>
     </defs>
     <g transform="translate(11.983504 170.6575)rotate(-90)scale(0.11 -0.11)">
      <use xlink:href="#DejaVuSans-65"/>
      <use x="68.408203" xlink:href="#DejaVuSans-98"/>
      <use x="131.884766" xlink:href="#DejaVuSans-115"/>
      <use x="183.984375" xlink:href="#DejaVuSans-111"/>
      <use x="245.166016" xlink:href="#DejaVuSans-108"/>
      <use x="272.949219" xlink:href="#DejaVuSans-117"/>
      <use x="336.328125" xlink:href="#DejaVuSans-116"/>
      <use x="375.537109" xlink:href="#DejaVuSans-101"/>
      <use x="437.060547" xlink:href="#DejaVuSans-32"/>
      <use x="468.847656" xlink:href="#DejaVuSans-69"/>
      <use x="532.03125" xlink:href="#DejaVuSans-114"/>
      <use x="573.128906" xlink:href="#DejaVuSans-114"/>
      <use x="614.210938" xlink:href="#DejaVuSans-111"/>
      <use x="675.392578" xlink:href="#DejaVuSans-114"/>
     </g>
    </g>
   </g>
   <g id="line2d_21">
    <path clip-path="url(#p7d20d62994)" d="M 47.493638 10.103439 
L 49.80113 40.847589 
L 52.108623 75.679517 
L 54.416115 109.710295 
L 56.723607 139.205808 
L 59.0311 149.237977 
L 61.338592 158.136881 
L 63.646085 160.66189 
L 65.953577 166.283283 
L 68.261069 170.085622 
L 70.568562 174.254184 
L 72.876054 177.24654 
L 75.183546 179.181544 
L 77.491039 180.523217 
L 79.798531 181.33638 
L 82.106024 182.072635 
L 84.413516 182.799099 
L 86.721008 183.537097 
L 89.028501 184.301372 
L 91.335993 185.0738 
L 93.643486 185.849445 
L 95.950978 186.63199 
L 98.25847 187.422987 
L 100.565963 188.222876 
L 102.873455 189.031715 
L 105.180948 189.849024 
L 107.48844 190.674165 
L 109.795932 191.506639 
L 112.103425 192.346071 
L 114.410917 193.192128 
L 116.71841 194.044478 
L 119.025902 194.902798 
L 121.333394 195.766778 
L 123.640887 196.636129 
L 125.948379 197.510577 
L 128.255872 198.389865 
L 130.563364 199.273748 
L 132.870856 200.161991 
L 135.178349 201.054372 
L 137.485841 201.950672 
L 139.793334 202.850682 
L 142.100826 203.754198 
L 144.408318 204.661018 
L 146.715811 205.570942 
L 149.023303 206.483772 
L 151.330795 207.39931 
L 153.638288 208.317355 
L 155.94578 209.237707 
L 158.253273 210.160158 
L 160.560765 211.084499 
L 162.868257 212.010513 
L 165.17575 212.937976 
L 167.483242 213.866657 
L 169.790735 214.796313 
L 172.098227 215.726695 
L 174.405719 216.657538 
L 176.713212 217.588566 
L 179.020704 218.519489 
L 181.328197 219.450003 
L 183.635689 220.379787 
L 185.943181 221.308505 
L 188.250674 222.235802 
L 190.558166 223.161306 
L 192.865659 224.084627 
L 195.173151 225.005356 
L 197.480643 225.923064 
L 199.788136 226.837306 
L 202.095628 227.747616 
L 204.403121 228.653511 
L 206.710613 229.554492 
L 209.018105 230.450045 
L 211.325598 231.339641 
L 213.63309 232.222737 
L 215.940583 233.098784 
L 218.248075 233.967223 
L 220.555567 234.827493 
L 222.86306 235.679028 
L 225.170552 236.521268 
L 227.478044 237.353659 
L 229.785537 238.175656 
L 232.093029 238.986728 
L 234.400522 239.786367 
L 236.708014 240.574083 
L 239.015506 241.349418 
L 241.322999 242.111944 
L 243.630491 242.861272 
L 245.937984 243.59705 
L 248.245476 244.318972 
L 250.552968 245.026779 
L 252.860461 245.720262 
L 255.167953 246.399263 
L 257.475446 247.063677 
L 259.782938 247.713457 
L 262.09043 248.348606 
L 264.397923 248.969186 
L 266.705415 249.57531 
L 269.012908 250.167143 
L 271.3204 250.7449 
L 273.627892 251.308845 
L 275.935385 251.859283 
L 278.242877 252.396561 
" style="fill:none;stroke:#424242;stroke-linecap:round;"/>
   </g>
   <g id="PathCollection_1">
    <defs>
     <path d="M -0.382683 -0.92388 
L -0.92388 -0.382683 
L -0.92388 0.382683 
L -0.382683 0.92388 
L 0.382683 0.92388 
L 0.92388 0.382683 
L 0.92388 -0.382683 
L 0.382683 -0.92388 
z
" id="m3142d6c5da" style="stroke:#424242;"/>
    </defs>
    <g clip-path="url(#p7d20d62994)">
     <use style="fill:#ffffff;stroke:#424242;" x="47.493638" xlink:href="#m3142d6c5da" y="10.103439"/>
     <use style="fill:#ffffff;stroke:#424242;" x="49.80113" xlink:href="#m3142d6c5da" y="40.847589"/>
     <use style="fill:#ffffff;stroke:#424242;" x="52.108623" xlink:href="#m3142d6c5da" y="75.679517"/>
     <use style="fill:#ffffff;stroke:#424242;" x="54.416115" xlink:href="#m3142d6c5da" y="109.710295"/>
     <use style="fill:#ffffff;stroke:#424242;" x="56.723607" xlink:href="#m3142d6c5da" y="139.205808"/>
     <use style="fill:#ffffff;stroke:#424242;" x="59.0311" xlink:href="#m3142d6c5da" y="149.237977"/>
     <use style="fill:#ffffff;stroke:#424242;" x="61.338592" xlink:href="#m3142d6c5da" y="158.136881"/>
     <use style="fill:#ffffff;stroke:#424242;" x="63.646085" xlink:href="#m3142d6c5da" y="160.66189"/>
     <use style="fill:#ffffff;stroke:#424242;" x="65.953577" xlink:href="#m3142d6c5da" y="166.283283"/>
     <use style="fill:#ffffff;stroke:#424242;" x="68.261069" xlink:href="#m3142d6c5da" y="170.085622"/>
     <use style="fill:#ffffff;stroke:#424242;" x="70.568562" xlink:href="#m3142d6c5da" y="174.254184"/>
     <use style="fill:#ffffff;stroke:#424242;" x="72.876054" xlink:href="#m3142d6c5da" y="177.24654"/>
     <use style="fill:#ffffff;stroke:#424242;" x="75.183546" xlink:href="#m3142d6c5da" y="179.181544"/>
     <use style="fill:#ffffff;stroke:#424242;" x="77.491039" xlink:href="#m3142d6c5da" y="180.523217"/>
     <use style="fill:#ffffff;stroke:#424242;" x="79.798531" xlink:href="#m3142d6c5da" y="181.33638"/>
     <use style="fill:#ffffff;stroke:#424242;" x="82.106024" xlink:href="#m3142d6c5da" y="182.072635"/>
     <use style="fill:#ffffff;stroke:#424242;" x="84.413516" xlink:href="#m3142d6c5da" y="182.799099"/>
     <use style="fill:#ffffff;stroke:#424242;" x="86.721008" xlink:href="#m3142d6c5da" y="183.537097"/>
     <use style="fill:#ffffff;stroke:#424242;" x="89.028501" xlink:href="#m3142d6c5da" y="184.301372"/>
     <use style="fill:#ffffff;stroke:#424242;" x="91.335993" xlink:href="#m3142d6c5da" y="185.0738"/>
     <use style="fill:#ffffff;stroke:#424242;" x="93.643486" xlink:href="#m3142d6c5da" y="185.849445"/>
     <use style="fill:#ffffff;stroke:#424242;" x="95.950978" xlink:href="#m3142d6c5da" y="186.63199"/>
     <use style="fill:#ffffff;stroke:#424242;" x="98.25847" xlink:href="#m3142d6c5da" y="187.422987"/>
     <use style="fill:#ffffff;stroke:#424242;" x="100.565963" xlink:href="#m3142d6c5da" y="188.222876"/>
     <use style="fill:#ffffff;stroke:#424242;" x="102.873455" xlink:href="#m3142d6c5da" y="189.031715"/>
     <use style="fill:#ffffff;stroke:#424242;" x="105.180948" xlink:href="#m3142d6c5da" y="189.849024"/>
     <use style="fill:#ffffff;stroke:#424242;" x="107.48844" xlink:href="#m3142d6c5da" y="190.674165"/>
     <use style="fill:#ffffff;stroke:#424242;" x="109.795932" xlink:href="#m3142d6c5da" y="191.506639"/>
     <use style="fill:#ffffff;stroke:#424242;" x="112.103425" xlink:href="#m3142d6c5da" y="192.346071"/>
     <use style="fill:#ffffff;stroke:#424242;" x="114.410917" xlink:href="#m3142d6c5da" y="193.192128"/>
     <use style="fill:#ffffff;stroke:#424242;" x="116.71841" xlink:href="#m3142d6c5da" y="194.044478"/>
     <use style="fill:#ffffff;stroke:#424242;" x="119.025902" xlink:href="#m3142d6c5da" y="194.902798"/>
     <use style="fill:#ffffff;stroke:#424242;" x="121.333394" xlink:href="#m3142d6c5da" y="195.766778"/>
     <use style="fill:#ffffff;stroke:#424242;" x="123.640887" xlink:href="#m3142d6c5da" y="196.636129"/>
     <use style="fill:#ffffff;stroke:#424242;" x="125.948379" xlink:href="#m3142d6c5da" y="197.510577"/>
     <use style="fill:#ffffff;stroke:#424242;" x="128.255872" xlink:href="#m3142d6c5da" y="198.389865"/>
     <use style="fill:#ffffff;stroke:#424242;" x="130.563364" xlink:href="#m3142d6c5da" y="199.273748"/>
     <use style="fill:#ffffff;stroke:#424242;" x="132.870856" xlink:href="#m3142d6c5da" y="200.161991"/>
     <use style="fill:#ffffff;stroke:#424242;" x="135.178349" xlink:href="#m3142d6c5da" y="201.054372"/>
     <use style="fill:#ffffff;stroke:#424242;" x="137.485841" xlink:href="#m3142d6c5da" y="201.950672"/>
     <use style="fill:#ffffff;stroke:#424242;" x="139.793334" xlink:href="#m3142d6c5da" y="202.850682"/>
     <use style="fill:#ffffff;stroke:#424242;" x="142.100826" xlink:href="#m3142d6c5da" y="203.754198"/>
     <use style="fill:#ffffff;stroke:#424242;" x="144.408318" xlink:href="#m3142d6c5da" y="204.661018"/>
     <use style="fill:#ffffff;stroke:#424242;" x="146.715811" xlink:href="#m3142d6c5da" y="205.570942"/>
     <use style="fill:#ffffff;stroke:#424242;" x="149.023303" xlink:href="#m3142d6c5da" y="206.483772"/>
     <use style="fill:#ffffff;stroke:#424242;" x="151.330795" xlink:href="#m3142d6c5da" y="207.39931"/>
     <use style="fill:#ffffff;stroke:#424242;" x="153.638288" xlink:href="#m3142d6c5da" y="208.317355"/>
     <use style="fill:#ffffff;stroke:#424242;" x="155.94578" xlink:href="#m3142d6c5da" y="209.237707"/>
     <use style="fill:#ffffff;stroke:#424242;" x="158.253273" xlink:href="#m3142d6c5da" y="210.160158"/>
     <use style="fill:#ffffff;stroke:#424242;" x="160.560765" xlink:href="#m3142d6c5da" y="211.084499"/>
     <use style="fill:#ffffff;stroke:#424242;" x="162.868257" xlink:href="#m3142d6c5da" y="212.010513"/>
     <use style="fill:#ffffff;stroke:#424242;" x="165.17575" xlink:href="#m3142d6c5da" y="212.937976"/>
     <use style="fill:#ffffff;stroke:#424242;" x="167.483242" xlink:href="#m3142d6c5da" y="213.866657"/>
     <use style="fill:#ffffff;stroke:#424242;" x="169.790735" xlink:href="#m3142d6c5da" y="214.796313"/>
     <use style="fill:#ffffff;stroke:#424242;" x="172.098227" xlink:href="#m3142d6c5da" y="215.726695"/>
     <use style="fill:#ffffff;stroke:#424242;" x="174.405719" xlink:href="#m3142d6c5da" y="216.657538"/>
     <use style="fill:#ffffff;stroke:#424242;" x="176.713212" xlink:href="#m3142d6c5da" y="217.588566"/>
     <use style="fill:#ffffff;stroke:#424242;" x="179.020704" xlink:href="#m3142d6c5da" y="218.519489"/>
     <use style="fill:#ffffff;stroke:#424242;" x="181.328197" xlink:href="#m3142d6c5da" y="219.450003"/>
     <use style="fill:#ffffff;stroke:#424242;" x="183.635689" xlink:href="#m3142d6c5da" y="220.379787"/>
     <use style="fill:#ffffff;stroke:#424242;" x="185.943181" xlink:href="#m3142d6c5da" y="221.308505"/>
     <use style="fill:#ffffff;stroke:#424242;" x="188.250674" xlink:href="#m3142d6c5da" y="222.235802"/>
     <use style="fill:#ffffff;stroke:#424242;" x="190.558166" xlink:href="#m3142d6c5da" y="223.161306"/>
     <use style="fill:#ffffff;stroke:#424242;" x="192.865659" xlink:href="#m3142d6c5da" y="224.084627"/>
     <use style="fill:#ffffff;stroke:#424242;" x="195.173151" xlink:href="#m3142d6c5da" y="225.005356"/>
     <use style="fill:#ffffff;stroke:#424242;" x="197.480643" xlink:href="#m3142d6c5da" y="225.923064"/>
     <use style="fill:#ffffff;stroke:#424242;" x="199.788136" xlink:href="#m3142d6c5da" y="226.837306"/>
     <use style="fill:#ffffff;stroke:#424242;" x="202.095628" xlink:href="#m3142d6c5da" y="227.747616"/>
     <use style="fill:#ffffff;stroke:#424242;" x="204.403121" xlink:href="#m3142d6c5da" y="228.653511"/>
     <use style="fill:#ffffff;stroke:#424242;" x="206.710613" xlink:href="#m3142d6c5da" y="229.554492"/>
     <use style="fill:#ffffff;stroke:#424242;" x="209.018105" xlink:href="#m3142d6c5da" y="230.450045"/>
     <use style="fill:#ffffff;stroke:#424242;" x="211.325598" xlink:href="#m3142d6c5da" y="231.339641"/>
     <use style="fill:#ffffff;stroke:#424242;" x="213.63309" xlink:href="#m3142d6c5da" y="232.222737"/>
     <use style="fill:#ffffff;stroke:#424242;" x="215.940583" xlink:href="#m3142d6c5da" y="233.098784"/>
     <use style="fill:#ffffff;stroke:#424242;" x="218.248075" xlink:href="#m3142d6c5da" y="233.967223"/>
     <use style="fill:#ffffff;stroke:#424242;" x="220.555567" xlink:href="#m3142d6c5da" y="234.827493"/>
     <use style="fill:#ffffff;stroke:#424242;" x="222.86306" xlink:href="#m3142d6c5da" y="235.679028"/>
     <use style="fill:#ffffff;stroke:#424242;" x="225.170552" xlink:href="#m3142d6c5da" y="236.521268"/>
     <use style="fill:#ffffff;stroke:#424242;" x="227.478044" xlink:href="#m3142d6c5da" y="237.353659"/>
     <use style="fill:#ffffff;stroke:#424242;" x="229.785537" xlink:href="#m3142d6c5da" y="238.175656"/>
     <use style="fill:#ffffff;stroke:#424242;" x="232.093029" xlink:href="#m3142d6c5da" y="238.986728"/>
     <use style="fill:#ffffff;stroke:#424242;" x="234.400522" xlink:href="#m3142d6c5da" y="239.786367"/>
     <use style="fill:#ffffff;stroke:#424242;" x="236.708014" xlink:href="#m3142d6c5da" y="240.574083"/>
     <use style="fill:#ffffff;stroke:#424242;" x="239.015506" xlink:href="#m3142d6c5da" y="241.349418"/>
     <use style="fill:#ffffff;stroke:#424242;" x="241.322999" xlink:href="#m3142d6c5da" y="242.111944"/>
     <use style="fill:#ffffff;stroke:#424242;" x="243.630491" xlink:href="#m3142d6c5da" y="242.861272"/>
     <use style="fill:#ffffff;stroke:#424242;" x="245.937984" xlink:href="#m3142d6c5da" y="243.59705"/>
     <use style="fill:#ffffff;stroke:#424242;" x="248.245476" xlink:href="#m3142d6c5da" y="244.318972"/>
     <use style="fill:#ffffff;stroke:#424242;" x="250.552968" xlink:href="#m3142d6c5da" y="245.026779"/>
     <use style="fill:#ffffff;stroke:#424242;" x="252.860461" xlink:href="#m3142d6c5da" y="245.720262"/>
     <use style="fill:#ffffff;stroke:#424242;" x="255.167953" xlink:href="#m3142d6c5da" y="246.399263"/>
     <use style="fill:#ffffff;stroke:#424242;" x="257.475446" xlink:href="#m3142d6c5da" y="247.063677"/>
     <use style="fill:#ffffff;stroke:#424242;" x="259.782938" xlink:href="#m3142d6c5da" y="247.713457"/>
     <use style="fill:#ffffff;stroke:#424242;" x="262.09043" xlink:href="#m3142d6c5da" y="248.348606"/>
     <use style="fill:#ffffff;stroke:#424242;" x="264.397923" xlink:href="#m3142d6c5da" y="248.969186"/>
     <use style="fill:#ffffff;stroke:#424242;" x="266.705415" xlink:href="#m3142d6c5da" y="249.57531"/>
     <use style="fill:#ffffff;stroke:#424242;" x="269.012908" xlink:href="#m3142d6c5da" y="250.167143"/>
     <use style="fill:#ffffff;stroke:#424242;" x="271.3204" xlink:href="#m3142d6c5da" y="250.7449"/>
     <use style="fill:#ffffff;stroke:#424242;" x="273.627892" xlink:href="#m3142d6c5da" y="251.308845"/>
     <use style="fill:#ffffff;stroke:#424242;" x="275.935385" xlink:href="#m3142d6c5da" y="251.859283"/>
     <use style="fill:#ffffff;stroke:#424242;" x="278.242877" xlink:href="#m3142d6c5da" y="252.396561"/>
    </g>
   </g>
   <g id="patch_3">
    <path d="M 40.571161 259.665354 
L 40.571161 2.834646 
" style="fill:none;stroke:#000000;stroke-linecap:square;stroke-linejoin:miter;"/>
   </g>
   <g id="patch_4">
    <path d="M 285.165354 259.665354 
L 285.165354 2.834646 
" style="fill:none;stroke:#000000;stroke-linecap:square;stroke-linejoin:miter;stroke-width:0.8;"/>
   </g>
   <g id="patch_5">
    <path d="M 40.571161 259.665354 
L 285.165354 259.665354 
" style="fill:none;stroke:#000000;stroke-linecap:square;stroke-linejoin:miter;"/>
   </g>
   <g id="patch_6">
    <path d="M 40.571161 2.834646 
L 285.165354 2.834646 
" style="fill:none;stroke:#000000;stroke-linecap:square;stroke-linejoin:miter;stroke-width:0.8;"/>
   </g>
  </g>
 </g>
 <defs>
  <clipPath id="p7d20d62994">
   <rect height="256.830709" width="244.594194" x="40.571161" y="2.834646"/>
  </clipPath>
 </defs>
</svg>
