<?xml version="1.0" encoding="utf-8" standalone="no"?>
<!DOCTYPE svg PUBLIC "-//W3C//DTD SVG 1.1//EN"
  "http://www.w3.org/Graphics/SVG/1.1/DTD/svg11.dtd">
<!-- Created with matplotlib (https://matplotlib.org/) -->
<svg height="288pt" version="1.1" viewBox="0 0 288 288" width="288pt" xmlns="http://www.w3.org/2000/svg" xmlns:xlink="http://www.w3.org/1999/xlink">
 <defs>
  <style type="text/css">
*{stroke-linecap:butt;stroke-linejoin:round;}
  </style>
 </defs>
 <g id="figure_1">
  <g id="patch_1">
   <path d="M 0 288 
L 288 288 
L 288 0 
L 0 0 
z
" style="fill:#ffffff;"/>
  </g>
  <g id="axes_1">
   <g id="patch_2">
    <path d="M 40.571161 259.665354 
L 285.165354 259.665354 
L 285.165354 2.834646 
L 40.571161 2.834646 
z
" style="fill:#ffffff;"/>
   </g>
   <g id="matplotlib.axis_1">
    <g id="xtick_1">
     <g id="line2d_1">
      <path clip-path="url(#p03be6b9ce0)" d="M 46.339892 259.665354 
L 46.339892 2.834646 
" style="fill:none;stroke:#000000;stroke-linecap:square;stroke-opacity:0.1;stroke-width:0.5;"/>
     </g>
     <g id="line2d_2">
      <defs>
       <path d="M 0 0 
L 0 -3.5 
" id="m87a3862059" style="stroke:#000000;stroke-width:0.8;"/>
      </defs>
      <g>
       <use style="stroke:#000000;stroke-width:0.8;" x="46.339892" xlink:href="#m87a3862059" y="259.665354"/>
      </g>
     </g>
     <g id="text_1">
      <!-- 0 -->
      <defs>
       <path d="M 31.78125 66.40625 
Q 24.171875 66.40625 20.328125 58.90625 
Q 16.5 51.421875 16.5 36.375 
Q 16.5 21.390625 20.328125 13.890625 
Q 24.171875 6.390625 31.78125 6.390625 
Q 39.453125 6.390625 43.28125 13.890625 
Q 47.125 21.390625 47.125 36.375 
Q 47.125 51.421875 43.28125 58.90625 
Q 39.453125 66.40625 31.78125 66.40625 
z
M 31.78125 74.21875 
Q 44.046875 74.21875 50.515625 64.515625 
Q 56.984375 54.828125 56.984375 36.375 
Q 56.984375 17.96875 50.515625 8.265625 
Q 44.046875 -1.421875 31.78125 -1.421875 
Q 19.53125 -1.421875 13.0625 8.265625 
Q 6.59375 17.96875 6.59375 36.375 
Q 6.59375 54.828125 13.0625 64.515625 
Q 19.53125 74.21875 31.78125 74.21875 
z
" id="DejaVuSans-48"/>
      </defs>
      <g transform="translate(43.794892 269.244104)scale(0.08 -0.08)">
       <use xlink:href="#DejaVuSans-48"/>
      </g>
     </g>
    </g>
    <g id="xtick_2">
     <g id="line2d_3">
      <path clip-path="url(#p03be6b9ce0)" d="M 104.027201 259.665354 
L 104.027201 2.834646 
" style="fill:none;stroke:#000000;stroke-linecap:square;stroke-opacity:0.1;stroke-width:0.5;"/>
     </g>
     <g id="line2d_4">
      <g>
       <use style="stroke:#000000;stroke-width:0.8;" x="104.027201" xlink:href="#m87a3862059" y="259.665354"/>
      </g>
     </g>
     <g id="text_2">
      <!-- 50 -->
      <defs>
       <path d="M 10.796875 72.90625 
L 49.515625 72.90625 
L 49.515625 64.59375 
L 19.828125 64.59375 
L 19.828125 46.734375 
Q 21.96875 47.46875 24.109375 47.828125 
Q 26.265625 48.1875 28.421875 48.1875 
Q 40.625 48.1875 47.75 41.5 
Q 54.890625 34.8125 54.890625 23.390625 
Q 54.890625 11.625 47.5625 5.09375 
Q 40.234375 -1.421875 26.90625 -1.421875 
Q 22.3125 -1.421875 17.546875 -0.640625 
Q 12.796875 0.140625 7.71875 1.703125 
L 7.71875 11.625 
Q 12.109375 9.234375 16.796875 8.0625 
Q 21.484375 6.890625 26.703125 6.890625 
Q 35.15625 6.890625 40.078125 11.328125 
Q 45.015625 15.765625 45.015625 23.390625 
Q 45.015625 31 40.078125 35.4375 
Q 35.15625 39.890625 26.703125 39.890625 
Q 22.75 39.890625 18.8125 39.015625 
Q 14.890625 38.140625 10.796875 36.28125 
z
" id="DejaVuSans-53"/>
      </defs>
      <g transform="translate(98.937201 269.244104)scale(0.08 -0.08)">
       <use xlink:href="#DejaVuSans-53"/>
       <use x="63.623047" xlink:href="#DejaVuSans-48"/>
      </g>
     </g>
    </g>
    <g id="xtick_3">
     <g id="line2d_5">
      <path clip-path="url(#p03be6b9ce0)" d="M 161.714511 259.665354 
L 161.714511 2.834646 
" style="fill:none;stroke:#000000;stroke-linecap:square;stroke-opacity:0.1;stroke-width:0.5;"/>
     </g>
     <g id="line2d_6">
      <g>
       <use style="stroke:#000000;stroke-width:0.8;" x="161.714511" xlink:href="#m87a3862059" y="259.665354"/>
      </g>
     </g>
     <g id="text_3">
      <!-- 100 -->
      <defs>
       <path d="M 12.40625 8.296875 
L 28.515625 8.296875 
L 28.515625 63.921875 
L 10.984375 60.40625 
L 10.984375 69.390625 
L 28.421875 72.90625 
L 38.28125 72.90625 
L 38.28125 8.296875 
L 54.390625 8.296875 
L 54.390625 0 
L 12.40625 0 
z
" id="DejaVuSans-49"/>
      </defs>
      <g transform="translate(154.079511 269.244104)scale(0.08 -0.08)">
       <use xlink:href="#DejaVuSans-49"/>
       <use x="63.623047" xlink:href="#DejaVuSans-48"/>
       <use x="127.246094" xlink:href="#DejaVuSans-48"/>
      </g>
     </g>
    </g>
    <g id="xtick_4">
     <g id="line2d_7">
      <path clip-path="url(#p03be6b9ce0)" d="M 219.401821 259.665354 
L 219.401821 2.834646 
" style="fill:none;stroke:#000000;stroke-linecap:square;stroke-opacity:0.1;stroke-width:0.5;"/>
     </g>
     <g id="line2d_8">
      <g>
       <use style="stroke:#000000;stroke-width:0.8;" x="219.401821" xlink:href="#m87a3862059" y="259.665354"/>
      </g>
     </g>
     <g id="text_4">
      <!-- 150 -->
      <g transform="translate(211.766821 269.244104)scale(0.08 -0.08)">
       <use xlink:href="#DejaVuSans-49"/>
       <use x="63.623047" xlink:href="#DejaVuSans-53"/>
       <use x="127.246094" xlink:href="#DejaVuSans-48"/>
      </g>
     </g>
    </g>
    <g id="xtick_5">
     <g id="line2d_9">
      <path clip-path="url(#p03be6b9ce0)" d="M 277.089131 259.665354 
L 277.089131 2.834646 
" style="fill:none;stroke:#000000;stroke-linecap:square;stroke-opacity:0.1;stroke-width:0.5;"/>
     </g>
     <g id="line2d_10">
      <g>
       <use style="stroke:#000000;stroke-width:0.8;" x="277.089131" xlink:href="#m87a3862059" y="259.665354"/>
      </g>
     </g>
     <g id="text_5">
      <!-- 200 -->
      <defs>
       <path d="M 19.1875 8.296875 
L 53.609375 8.296875 
L 53.609375 0 
L 7.328125 0 
L 7.328125 8.296875 
Q 12.9375 14.109375 22.625 23.890625 
Q 32.328125 33.6875 34.8125 36.53125 
Q 39.546875 41.84375 41.421875 45.53125 
Q 43.3125 49.21875 43.3125 52.78125 
Q 43.3125 58.59375 39.234375 62.25 
Q 35.15625 65.921875 28.609375 65.921875 
Q 23.96875 65.921875 18.8125 64.3125 
Q 13.671875 62.703125 7.8125 59.421875 
L 7.8125 69.390625 
Q 13.765625 71.78125 18.9375 73 
Q 24.125 74.21875 28.421875 74.21875 
Q 39.75 74.21875 46.484375 68.546875 
Q 53.21875 62.890625 53.21875 53.421875 
Q 53.21875 48.921875 51.53125 44.890625 
Q 49.859375 40.875 45.40625 35.40625 
Q 44.1875 33.984375 37.640625 27.21875 
Q 31.109375 20.453125 19.1875 8.296875 
z
" id="DejaVuSans-50"/>
      </defs>
      <g transform="translate(269.454131 269.244104)scale(0.08 -0.08)">
       <use xlink:href="#DejaVuSans-50"/>
       <use x="63.623047" xlink:href="#DejaVuSans-48"/>
       <use x="127.246094" xlink:href="#DejaVuSans-48"/>
      </g>
     </g>
    </g>
    <g id="text_6">
     <!-- Iteration -->
     <defs>
      <path d="M 9.8125 72.90625 
L 19.671875 72.90625 
L 19.671875 0 
L 9.8125 0 
z
" id="DejaVuSans-73"/>
      <path d="M 18.3125 70.21875 
L 18.3125 54.6875 
L 36.8125 54.6875 
L 36.8125 47.703125 
L 18.3125 47.703125 
L 18.3125 18.015625 
Q 18.3125 11.328125 20.140625 9.421875 
Q 21.96875 7.515625 27.59375 7.515625 
L 36.8125 7.515625 
L 36.8125 0 
L 27.59375 0 
Q 17.1875 0 13.234375 3.875 
Q 9.28125 7.765625 9.28125 18.015625 
L 9.28125 47.703125 
L 2.6875 47.703125 
L 2.6875 54.6875 
L 9.28125 54.6875 
L 9.28125 70.21875 
z
" id="DejaVuSans-116"/>
      <path d="M 56.203125 29.59375 
L 56.203125 25.203125 
L 14.890625 25.203125 
Q 15.484375 15.921875 20.484375 11.0625 
Q 25.484375 6.203125 34.421875 6.203125 
Q 39.59375 6.203125 44.453125 7.46875 
Q 49.3125 8.734375 54.109375 11.28125 
L 54.109375 2.78125 
Q 49.265625 0.734375 44.1875 -0.34375 
Q 39.109375 -1.421875 33.890625 -1.421875 
Q 20.796875 -1.421875 13.15625 6.1875 
Q 5.515625 13.8125 5.515625 26.8125 
Q 5.515625 40.234375 12.765625 48.109375 
Q 20.015625 56 32.328125 56 
Q 43.359375 56 49.78125 48.890625 
Q 56.203125 41.796875 56.203125 29.59375 
z
M 47.21875 32.234375 
Q 47.125 39.59375 43.09375 43.984375 
Q 39.0625 48.390625 32.421875 48.390625 
Q 24.90625 48.390625 20.390625 44.140625 
Q 15.875 39.890625 15.1875 32.171875 
z
" id="DejaVuSans-101"/>
      <path d="M 41.109375 46.296875 
Q 39.59375 47.171875 37.8125 47.578125 
Q 36.03125 48 33.890625 48 
Q 26.265625 48 22.1875 43.046875 
Q 18.109375 38.09375 18.109375 28.8125 
L 18.109375 0 
L 9.078125 0 
L 9.078125 54.6875 
L 18.109375 54.6875 
L 18.109375 46.1875 
Q 20.953125 51.171875 25.484375 53.578125 
Q 30.03125 56 36.53125 56 
Q 37.453125 56 38.578125 55.875 
Q 39.703125 55.765625 41.0625 55.515625 
z
" id="DejaVuSans-114"/>
      <path d="M 34.28125 27.484375 
Q 23.390625 27.484375 19.1875 25 
Q 14.984375 22.515625 14.984375 16.5 
Q 14.984375 11.71875 18.140625 8.90625 
Q 21.296875 6.109375 26.703125 6.109375 
Q 34.1875 6.109375 38.703125 11.40625 
Q 43.21875 16.703125 43.21875 25.484375 
L 43.21875 27.484375 
z
M 52.203125 31.203125 
L 52.203125 0 
L 43.21875 0 
L 43.21875 8.296875 
Q 40.140625 3.328125 35.546875 0.953125 
Q 30.953125 -1.421875 24.3125 -1.421875 
Q 15.921875 -1.421875 10.953125 3.296875 
Q 6 8.015625 6 15.921875 
Q 6 25.140625 12.171875 29.828125 
Q 18.359375 34.515625 30.609375 34.515625 
L 43.21875 34.515625 
L 43.21875 35.40625 
Q 43.21875 41.609375 39.140625 45 
Q 35.0625 48.390625 27.6875 48.390625 
Q 23 48.390625 18.546875 47.265625 
Q 14.109375 46.140625 10.015625 43.890625 
L 10.015625 52.203125 
Q 14.9375 54.109375 19.578125 55.046875 
Q 24.21875 56 28.609375 56 
Q 40.484375 56 46.34375 49.84375 
Q 52.203125 43.703125 52.203125 31.203125 
z
" id="DejaVuSans-97"/>
      <path d="M 9.421875 54.6875 
L 18.40625 54.6875 
L 18.40625 0 
L 9.421875 0 
z
M 9.421875 75.984375 
L 18.40625 75.984375 
L 18.40625 64.59375 
L 9.421875 64.59375 
z
" id="DejaVuSans-105"/>
      <path d="M 30.609375 48.390625 
Q 23.390625 48.390625 19.1875 42.75 
Q 14.984375 37.109375 14.984375 27.296875 
Q 14.984375 17.484375 19.15625 11.84375 
Q 23.34375 6.203125 30.609375 6.203125 
Q 37.796875 6.203125 41.984375 11.859375 
Q 46.1875 17.53125 46.1875 27.296875 
Q 46.1875 37.015625 41.984375 42.703125 
Q 37.796875 48.390625 30.609375 48.390625 
z
M 30.609375 56 
Q 42.328125 56 49.015625 48.375 
Q 55.71875 40.765625 55.71875 27.296875 
Q 55.71875 13.875 49.015625 6.21875 
Q 42.328125 -1.421875 30.609375 -1.421875 
Q 18.84375 -1.421875 12.171875 6.21875 
Q 5.515625 13.875 5.515625 27.296875 
Q 5.515625 40.765625 12.171875 48.375 
Q 18.84375 56 30.609375 56 
z
" id="DejaVuSans-111"/>
      <path d="M 54.890625 33.015625 
L 54.890625 0 
L 45.90625 0 
L 45.90625 32.71875 
Q 45.90625 40.484375 42.875 44.328125 
Q 39.84375 48.1875 33.796875 48.1875 
Q 26.515625 48.1875 22.3125 43.546875 
Q 18.109375 38.921875 18.109375 30.90625 
L 18.109375 0 
L 9.078125 0 
L 9.078125 54.6875 
L 18.109375 54.6875 
L 18.109375 46.1875 
Q 21.34375 51.125 25.703125 53.5625 
Q 30.078125 56 35.796875 56 
Q 45.21875 56 50.046875 50.171875 
Q 54.890625 44.34375 54.890625 33.015625 
z
" id="DejaVuSans-110"/>
     </defs>
     <g transform="translate(139.538804 283.266136)scale(0.11 -0.11)">
      <use xlink:href="#DejaVuSans-73"/>
      <use x="29.492188" xlink:href="#DejaVuSans-116"/>
      <use x="68.701172" xlink:href="#DejaVuSans-101"/>
      <use x="130.224609" xlink:href="#DejaVuSans-114"/>
      <use x="171.337891" xlink:href="#DejaVuSans-97"/>
      <use x="232.617188" xlink:href="#DejaVuSans-116"/>
      <use x="271.826172" xlink:href="#DejaVuSans-105"/>
      <use x="299.609375" xlink:href="#DejaVuSans-111"/>
      <use x="360.791016" xlink:href="#DejaVuSans-110"/>
     </g>
    </g>
   </g>
   <g id="matplotlib.axis_2">
    <g id="ytick_1">
     <g id="line2d_11">
      <path clip-path="url(#p03be6b9ce0)" d="M 40.571161 225.614183 
L 285.165354 225.614183 
" style="fill:none;stroke:#000000;stroke-linecap:square;stroke-opacity:0.1;stroke-width:0.5;"/>
     </g>
     <g id="line2d_12">
      <defs>
       <path d="M 0 0 
L 3.5 0 
" id="m9c226bec65" style="stroke:#000000;stroke-width:0.8;"/>
      </defs>
      <g>
       <use style="stroke:#000000;stroke-width:0.8;" x="40.571161" xlink:href="#m9c226bec65" y="225.614183"/>
      </g>
     </g>
     <g id="text_7">
      <!-- $10^{-1}$ -->
      <defs>
       <path d="M 10.59375 35.5 
L 73.1875 35.5 
L 73.1875 27.203125 
L 10.59375 27.203125 
z
" id="DejaVuSans-8722"/>
      </defs>
      <g transform="translate(18.271161 228.653558)scale(0.08 -0.08)">
       <use transform="translate(0 0.684375)" xlink:href="#DejaVuSans-49"/>
       <use transform="translate(63.623047 0.684375)" xlink:href="#DejaVuSans-48"/>
       <use transform="translate(128.203125 38.965625)scale(0.7)" xlink:href="#DejaVuSans-8722"/>
       <use transform="translate(186.855469 38.965625)scale(0.7)" xlink:href="#DejaVuSans-49"/>
      </g>
     </g>
    </g>
    <g id="ytick_2">
     <g id="line2d_13">
      <path clip-path="url(#p03be6b9ce0)" d="M 40.571161 162.777464 
L 285.165354 162.777464 
" style="fill:none;stroke:#000000;stroke-linecap:square;stroke-opacity:0.1;stroke-width:0.5;"/>
     </g>
     <g id="line2d_14">
      <g>
       <use style="stroke:#000000;stroke-width:0.8;" x="40.571161" xlink:href="#m9c226bec65" y="162.777464"/>
      </g>
     </g>
     <g id="text_8">
      <!-- $10^{0}$ -->
      <g transform="translate(22.991161 165.816839)scale(0.08 -0.08)">
       <use transform="translate(0 0.765625)" xlink:href="#DejaVuSans-49"/>
       <use transform="translate(63.623047 0.765625)" xlink:href="#DejaVuSans-48"/>
       <use transform="translate(128.203125 39.046875)scale(0.7)" xlink:href="#DejaVuSans-48"/>
      </g>
     </g>
    </g>
    <g id="ytick_3">
     <g id="line2d_15">
      <path clip-path="url(#p03be6b9ce0)" d="M 40.571161 99.940745 
L 285.165354 99.940745 
" style="fill:none;stroke:#000000;stroke-linecap:square;stroke-opacity:0.1;stroke-width:0.5;"/>
     </g>
     <g id="line2d_16">
      <g>
       <use style="stroke:#000000;stroke-width:0.8;" x="40.571161" xlink:href="#m9c226bec65" y="99.940745"/>
      </g>
     </g>
     <g id="text_9">
      <!-- $10^{1}$ -->
      <g transform="translate(22.991161 102.98012)scale(0.08 -0.08)">
       <use transform="translate(0 0.684375)" xlink:href="#DejaVuSans-49"/>
       <use transform="translate(63.623047 0.684375)" xlink:href="#DejaVuSans-48"/>
       <use transform="translate(128.203125 38.965625)scale(0.7)" xlink:href="#DejaVuSans-49"/>
      </g>
     </g>
    </g>
    <g id="ytick_4">
     <g id="line2d_17">
      <path clip-path="url(#p03be6b9ce0)" d="M 40.571161 37.104026 
L 285.165354 37.104026 
" style="fill:none;stroke:#000000;stroke-linecap:square;stroke-opacity:0.1;stroke-width:0.5;"/>
     </g>
     <g id="line2d_18">
      <g>
       <use style="stroke:#000000;stroke-width:0.8;" x="40.571161" xlink:href="#m9c226bec65" y="37.104026"/>
      </g>
     </g>
     <g id="text_10">
      <!-- $10^{2}$ -->
      <g transform="translate(22.991161 40.143401)scale(0.08 -0.08)">
       <use transform="translate(0 0.765625)" xlink:href="#DejaVuSans-49"/>
       <use transform="translate(63.623047 0.765625)" xlink:href="#DejaVuSans-48"/>
       <use transform="translate(128.203125 39.046875)scale(0.7)" xlink:href="#DejaVuSans-50"/>
      </g>
     </g>
    </g>
    <g id="text_11">
     <!-- Absolute Error -->
     <defs>
      <path d="M 34.1875 63.1875 
L 20.796875 26.90625 
L 47.609375 26.90625 
z
M 28.609375 72.90625 
L 39.796875 72.90625 
L 67.578125 0 
L 57.328125 0 
L 50.6875 18.703125 
L 17.828125 18.703125 
L 11.1875 0 
L 0.78125 0 
z
" id="DejaVuSans-65"/>
      <path d="M 48.6875 27.296875 
Q 48.6875 37.203125 44.609375 42.84375 
Q 40.53125 48.484375 33.40625 48.484375 
Q 26.265625 48.484375 22.1875 42.84375 
Q 18.109375 37.203125 18.109375 27.296875 
Q 18.109375 17.390625 22.1875 11.75 
Q 26.265625 6.109375 33.40625 6.109375 
Q 40.53125 6.109375 44.609375 11.75 
Q 48.6875 17.390625 48.6875 27.296875 
z
M 18.109375 46.390625 
Q 20.953125 51.265625 25.265625 53.625 
Q 29.59375 56 35.59375 56 
Q 45.5625 56 51.78125 48.09375 
Q 58.015625 40.1875 58.015625 27.296875 
Q 58.015625 14.40625 51.78125 6.484375 
Q 45.5625 -1.421875 35.59375 -1.421875 
Q 29.59375 -1.421875 25.265625 0.953125 
Q 20.953125 3.328125 18.109375 8.203125 
L 18.109375 0 
L 9.078125 0 
L 9.078125 75.984375 
L 18.109375 75.984375 
z
" id="DejaVuSans-98"/>
      <path d="M 44.28125 53.078125 
L 44.28125 44.578125 
Q 40.484375 46.53125 36.375 47.5 
Q 32.28125 48.484375 27.875 48.484375 
Q 21.1875 48.484375 17.84375 46.4375 
Q 14.5 44.390625 14.5 40.28125 
Q 14.5 37.15625 16.890625 35.375 
Q 19.28125 33.59375 26.515625 31.984375 
L 29.59375 31.296875 
Q 39.15625 29.25 43.1875 25.515625 
Q 47.21875 21.78125 47.21875 15.09375 
Q 47.21875 7.46875 41.1875 3.015625 
Q 35.15625 -1.421875 24.609375 -1.421875 
Q 20.21875 -1.421875 15.453125 -0.5625 
Q 10.6875 0.296875 5.421875 2 
L 5.421875 11.28125 
Q 10.40625 8.6875 15.234375 7.390625 
Q 20.0625 6.109375 24.8125 6.109375 
Q 31.15625 6.109375 34.5625 8.28125 
Q 37.984375 10.453125 37.984375 14.40625 
Q 37.984375 18.0625 35.515625 20.015625 
Q 33.0625 21.96875 24.703125 23.78125 
L 21.578125 24.515625 
Q 13.234375 26.265625 9.515625 29.90625 
Q 5.8125 33.546875 5.8125 39.890625 
Q 5.8125 47.609375 11.28125 51.796875 
Q 16.75 56 26.8125 56 
Q 31.78125 56 36.171875 55.265625 
Q 40.578125 54.546875 44.28125 53.078125 
z
" id="DejaVuSans-115"/>
      <path d="M 9.421875 75.984375 
L 18.40625 75.984375 
L 18.40625 0 
L 9.421875 0 
z
" id="DejaVuSans-108"/>
      <path d="M 8.5 21.578125 
L 8.5 54.6875 
L 17.484375 54.6875 
L 17.484375 21.921875 
Q 17.484375 14.15625 20.5 10.265625 
Q 23.53125 6.390625 29.59375 6.390625 
Q 36.859375 6.390625 41.078125 11.03125 
Q 45.3125 15.671875 45.3125 23.6875 
L 45.3125 54.6875 
L 54.296875 54.6875 
L 54.296875 0 
L 45.3125 0 
L 45.3125 8.40625 
Q 42.046875 3.421875 37.71875 1 
Q 33.40625 -1.421875 27.6875 -1.421875 
Q 18.265625 -1.421875 13.375 4.4375 
Q 8.5 10.296875 8.5 21.578125 
z
M 31.109375 56 
z
" id="DejaVuSans-117"/>
      <path id="DejaVuSans-32"/>
      <path d="M 9.8125 72.90625 
L 55.90625 72.90625 
L 55.90625 64.59375 
L 19.671875 64.59375 
L 19.671875 43.015625 
L 54.390625 43.015625 
L 54.390625 34.71875 
L 19.671875 34.71875 
L 19.671875 8.296875 
L 56.78125 8.296875 
L 56.78125 0 
L 9.8125 0 
z
" id="DejaVuSans-69"/>
     </defs>
     <g transform="translate(11.983504 170.6575)rotate(-90)scale(0.11 -0.11)">
      <use xlink:href="#DejaVuSans-65"/>
      <use x="68.408203" xlink:href="#DejaVuSans-98"/>
      <use x="131.884766" xlink:href="#DejaVuSans-115"/>
      <use x="183.984375" xlink:href="#DejaVuSans-111"/>
      <use x="245.166016" xlink:href="#DejaVuSans-108"/>
      <use x="272.949219" xlink:href="#DejaVuSans-117"/>
      <use x="336.328125" xlink:href="#DejaVuSans-116"/>
      <use x="375.537109" xlink:href="#DejaVuSans-101"/>
      <use x="437.060547" xlink:href="#DejaVuSans-32"/>
      <use x="468.847656" xlink:href="#DejaVuSans-69"/>
      <use x="532.03125" xlink:href="#DejaVuSans-114"/>
      <use x="573.128906" xlink:href="#DejaVuSans-114"/>
      <use x="614.210938" xlink:href="#DejaVuSans-111"/>
      <use x="675.392578" xlink:href="#DejaVuSans-114"/>
     </g>
    </g>
   </g>
   <g id="line2d_19">
    <path clip-path="url(#p03be6b9ce0)" d="M 47.493638 65.5633 
L 49.80113 126.430385 
L 52.108623 159.902661 
L 54.416115 159.914691 
L 56.723607 166.460417 
L 59.0311 196.860242 
L 61.338592 196.108448 
L 63.646085 194.117348 
L 65.953577 198.076986 
L 68.261069 202.18506 
L 70.568562 204.778024 
L 72.876054 206.36274 
L 75.183546 207.531977 
L 77.491039 208.599065 
L 79.798531 209.670902 
L 82.106024 210.770547 
L 84.413516 211.887471 
L 86.721008 212.968879 
L 89.028501 214.033116 
L 91.335993 215.13451 
L 93.643486 216.244697 
L 95.950978 217.361513 
L 98.25847 218.492834 
L 100.565963 219.634258 
L 102.873455 220.783813 
L 105.180948 221.942618 
L 107.48844 223.107229 
L 109.795932 224.25294 
L 112.103425 225.06984 
L 114.410917 220.51386 
L 116.71841 175.700438 
L 119.025902 122.037152 
L 121.333394 161.124182 
L 123.640887 215.13609 
L 125.948379 185.528551 
L 128.255872 183.92072 
L 130.563364 195.620258 
L 132.870856 208.712041 
L 135.178349 216.87047 
L 137.485841 216.792358 
L 139.793334 216.702689 
L 142.100826 219.498223 
L 144.408318 221.346723 
L 146.715811 222.151401 
L 149.023303 223.674602 
L 151.330795 224.837132 
L 153.638288 226.085305 
L 155.94578 227.288079 
L 158.253273 228.525301 
L 160.560765 229.724288 
L 162.868257 230.947826 
L 165.17575 232.173053 
L 167.483242 233.396825 
L 169.790735 234.623125 
L 172.098227 235.852189 
L 174.405719 237.077792 
L 176.713212 238.241198 
L 179.020704 238.652126 
L 181.328197 229.973897 
L 183.635689 180.728568 
L 185.943181 121.958554 
L 188.250674 211.338127 
L 190.558166 138.668501 
L 192.865659 146.282669 
L 195.173151 168.124244 
L 197.480643 185.639807 
L 199.788136 201.842142 
L 202.095628 213.175643 
L 204.403121 217.705279 
L 206.710613 218.890421 
L 209.018105 219.176758 
L 211.325598 219.953865 
L 213.63309 221.386749 
L 215.940583 222.995934 
L 218.248075 224.307493 
L 220.555567 225.386664 
L 222.86306 226.498916 
L 225.170552 227.673115 
L 227.478044 228.814367 
L 229.785537 229.942169 
L 232.093029 231.086052 
L 234.400522 232.224372 
L 236.708014 233.36594 
L 239.015506 234.51015 
L 241.322999 235.656173 
L 243.630491 236.805438 
L 245.937984 237.957549 
L 248.245476 239.112764 
L 250.552968 240.271431 
L 252.860461 241.433575 
L 255.167953 242.599445 
L 257.475446 243.769224 
L 259.782938 244.943067 
L 262.09043 246.121134 
L 264.397923 247.303575 
L 266.705415 248.490454 
L 269.012908 249.681261 
L 271.3204 250.870606 
L 273.627892 252.002471 
L 275.935385 252.396561 
L 278.242877 244.000114 
" style="fill:none;stroke:#424242;stroke-linecap:round;"/>
   </g>
   <g id="PathCollection_1">
    <defs>
     <path d="M -0.382683 -0.92388 
L -0.92388 -0.382683 
L -0.92388 0.382683 
L -0.382683 0.92388 
L 0.382683 0.92388 
L 0.92388 0.382683 
L 0.92388 -0.382683 
L 0.382683 -0.92388 
z
" id="m7bec71193b" style="stroke:#424242;"/>
    </defs>
    <g clip-path="url(#p03be6b9ce0)">
     <use style="fill:#ffffff;stroke:#424242;" x="47.493638" xlink:href="#m7bec71193b" y="65.5633"/>
     <use style="fill:#ffffff;stroke:#424242;" x="49.80113" xlink:href="#m7bec71193b" y="126.430385"/>
     <use style="fill:#ffffff;stroke:#424242;" x="52.108623" xlink:href="#m7bec71193b" y="159.902661"/>
     <use style="fill:#ffffff;stroke:#424242;" x="54.416115" xlink:href="#m7bec71193b" y="159.914691"/>
     <use style="fill:#ffffff;stroke:#424242;" x="56.723607" xlink:href="#m7bec71193b" y="166.460417"/>
     <use style="fill:#ffffff;stroke:#424242;" x="59.0311" xlink:href="#m7bec71193b" y="196.860242"/>
     <use style="fill:#ffffff;stroke:#424242;" x="61.338592" xlink:href="#m7bec71193b" y="196.108448"/>
     <use style="fill:#ffffff;stroke:#424242;" x="63.646085" xlink:href="#m7bec71193b" y="194.117348"/>
     <use style="fill:#ffffff;stroke:#424242;" x="65.953577" xlink:href="#m7bec71193b" y="198.076986"/>
     <use style="fill:#ffffff;stroke:#424242;" x="68.261069" xlink:href="#m7bec71193b" y="202.18506"/>
     <use style="fill:#ffffff;stroke:#424242;" x="70.568562" xlink:href="#m7bec71193b" y="204.778024"/>
     <use style="fill:#ffffff;stroke:#424242;" x="72.876054" xlink:href="#m7bec71193b" y="206.36274"/>
     <use style="fill:#ffffff;stroke:#424242;" x="75.183546" xlink:href="#m7bec71193b" y="207.531977"/>
     <use style="fill:#ffffff;stroke:#424242;" x="77.491039" xlink:href="#m7bec71193b" y="208.599065"/>
     <use style="fill:#ffffff;stroke:#424242;" x="79.798531" xlink:href="#m7bec71193b" y="209.670902"/>
     <use style="fill:#ffffff;stroke:#424242;" x="82.106024" xlink:href="#m7bec71193b" y="210.770547"/>
     <use style="fill:#ffffff;stroke:#424242;" x="84.413516" xlink:href="#m7bec71193b" y="211.887471"/>
     <use style="fill:#ffffff;stroke:#424242;" x="86.721008" xlink:href="#m7bec71193b" y="212.968879"/>
     <use style="fill:#ffffff;stroke:#424242;" x="89.028501" xlink:href="#m7bec71193b" y="214.033116"/>
     <use style="fill:#ffffff;stroke:#424242;" x="91.335993" xlink:href="#m7bec71193b" y="215.13451"/>
     <use style="fill:#ffffff;stroke:#424242;" x="93.643486" xlink:href="#m7bec71193b" y="216.244697"/>
     <use style="fill:#ffffff;stroke:#424242;" x="95.950978" xlink:href="#m7bec71193b" y="217.361513"/>
     <use style="fill:#ffffff;stroke:#424242;" x="98.25847" xlink:href="#m7bec71193b" y="218.492834"/>
     <use style="fill:#ffffff;stroke:#424242;" x="100.565963" xlink:href="#m7bec71193b" y="219.634258"/>
     <use style="fill:#ffffff;stroke:#424242;" x="102.873455" xlink:href="#m7bec71193b" y="220.783813"/>
     <use style="fill:#ffffff;stroke:#424242;" x="105.180948" xlink:href="#m7bec71193b" y="221.942618"/>
     <use style="fill:#ffffff;stroke:#424242;" x="107.48844" xlink:href="#m7bec71193b" y="223.107229"/>
     <use style="fill:#ffffff;stroke:#424242;" x="109.795932" xlink:href="#m7bec71193b" y="224.25294"/>
     <use style="fill:#ffffff;stroke:#424242;" x="112.103425" xlink:href="#m7bec71193b" y="225.06984"/>
     <use style="fill:#ffffff;stroke:#424242;" x="114.410917" xlink:href="#m7bec71193b" y="220.51386"/>
     <use style="fill:#ffffff;stroke:#424242;" x="116.71841" xlink:href="#m7bec71193b" y="175.700438"/>
     <use style="fill:#ffffff;stroke:#424242;" x="119.025902" xlink:href="#m7bec71193b" y="122.037152"/>
     <use style="fill:#ffffff;stroke:#424242;" x="121.333394" xlink:href="#m7bec71193b" y="161.124182"/>
     <use style="fill:#ffffff;stroke:#424242;" x="123.640887" xlink:href="#m7bec71193b" y="215.13609"/>
     <use style="fill:#ffffff;stroke:#424242;" x="125.948379" xlink:href="#m7bec71193b" y="185.528551"/>
     <use style="fill:#ffffff;stroke:#424242;" x="128.255872" xlink:href="#m7bec71193b" y="183.92072"/>
     <use style="fill:#ffffff;stroke:#424242;" x="130.563364" xlink:href="#m7bec71193b" y="195.620258"/>
     <use style="fill:#ffffff;stroke:#424242;" x="132.870856" xlink:href="#m7bec71193b" y="208.712041"/>
     <use style="fill:#ffffff;stroke:#424242;" x="135.178349" xlink:href="#m7bec71193b" y="216.87047"/>
     <use style="fill:#ffffff;stroke:#424242;" x="137.485841" xlink:href="#m7bec71193b" y="216.792358"/>
     <use style="fill:#ffffff;stroke:#424242;" x="139.793334" xlink:href="#m7bec71193b" y="216.702689"/>
     <use style="fill:#ffffff;stroke:#424242;" x="142.100826" xlink:href="#m7bec71193b" y="219.498223"/>
     <use style="fill:#ffffff;stroke:#424242;" x="144.408318" xlink:href="#m7bec71193b" y="221.346723"/>
     <use style="fill:#ffffff;stroke:#424242;" x="146.715811" xlink:href="#m7bec71193b" y="222.151401"/>
     <use style="fill:#ffffff;stroke:#424242;" x="149.023303" xlink:href="#m7bec71193b" y="223.674602"/>
     <use style="fill:#ffffff;stroke:#424242;" x="151.330795" xlink:href="#m7bec71193b" y="224.837132"/>
     <use style="fill:#ffffff;stroke:#424242;" x="153.638288" xlink:href="#m7bec71193b" y="226.085305"/>
     <use style="fill:#ffffff;stroke:#424242;" x="155.94578" xlink:href="#m7bec71193b" y="227.288079"/>
     <use style="fill:#ffffff;stroke:#424242;" x="158.253273" xlink:href="#m7bec71193b" y="228.525301"/>
     <use style="fill:#ffffff;stroke:#424242;" x="160.560765" xlink:href="#m7bec71193b" y="229.724288"/>
     <use style="fill:#ffffff;stroke:#424242;" x="162.868257" xlink:href="#m7bec71193b" y="230.947826"/>
     <use style="fill:#ffffff;stroke:#424242;" x="165.17575" xlink:href="#m7bec71193b" y="232.173053"/>
     <use style="fill:#ffffff;stroke:#424242;" x="167.483242" xlink:href="#m7bec71193b" y="233.396825"/>
     <use style="fill:#ffffff;stroke:#424242;" x="169.790735" xlink:href="#m7bec71193b" y="234.623125"/>
     <use style="fill:#ffffff;stroke:#424242;" x="172.098227" xlink:href="#m7bec71193b" y="235.852189"/>
     <use style="fill:#ffffff;stroke:#424242;" x="174.405719" xlink:href="#m7bec71193b" y="237.077792"/>
     <use style="fill:#ffffff;stroke:#424242;" x="176.713212" xlink:href="#m7bec71193b" y="238.241198"/>
     <use style="fill:#ffffff;stroke:#424242;" x="179.020704" xlink:href="#m7bec71193b" y="238.652126"/>
     <use style="fill:#ffffff;stroke:#424242;" x="181.328197" xlink:href="#m7bec71193b" y="229.973897"/>
     <use style="fill:#ffffff;stroke:#424242;" x="183.635689" xlink:href="#m7bec71193b" y="180.728568"/>
     <use style="fill:#ffffff;stroke:#424242;" x="185.943181" xlink:href="#m7bec71193b" y="121.958554"/>
     <use style="fill:#ffffff;stroke:#424242;" x="188.250674" xlink:href="#m7bec71193b" y="211.338127"/>
     <use style="fill:#ffffff;stroke:#424242;" x="190.558166" xlink:href="#m7bec71193b" y="138.668501"/>
     <use style="fill:#ffffff;stroke:#424242;" x="192.865659" xlink:href="#m7bec71193b" y="146.282669"/>
     <use style="fill:#ffffff;stroke:#424242;" x="195.173151" xlink:href="#m7bec71193b" y="168.124244"/>
     <use style="fill:#ffffff;stroke:#424242;" x="197.480643" xlink:href="#m7bec71193b" y="185.639807"/>
     <use style="fill:#ffffff;stroke:#424242;" x="199.788136" xlink:href="#m7bec71193b" y="201.842142"/>
     <use style="fill:#ffffff;stroke:#424242;" x="202.095628" xlink:href="#m7bec71193b" y="213.175643"/>
     <use style="fill:#ffffff;stroke:#424242;" x="204.403121" xlink:href="#m7bec71193b" y="217.705279"/>
     <use style="fill:#ffffff;stroke:#424242;" x="206.710613" xlink:href="#m7bec71193b" y="218.890421"/>
     <use style="fill:#ffffff;stroke:#424242;" x="209.018105" xlink:href="#m7bec71193b" y="219.176758"/>
     <use style="fill:#ffffff;stroke:#424242;" x="211.325598" xlink:href="#m7bec71193b" y="219.953865"/>
     <use style="fill:#ffffff;stroke:#424242;" x="213.63309" xlink:href="#m7bec71193b" y="221.386749"/>
     <use style="fill:#ffffff;stroke:#424242;" x="215.940583" xlink:href="#m7bec71193b" y="222.995934"/>
     <use style="fill:#ffffff;stroke:#424242;" x="218.248075" xlink:href="#m7bec71193b" y="224.307493"/>
     <use style="fill:#ffffff;stroke:#424242;" x="220.555567" xlink:href="#m7bec71193b" y="225.386664"/>
     <use style="fill:#ffffff;stroke:#424242;" x="222.86306" xlink:href="#m7bec71193b" y="226.498916"/>
     <use style="fill:#ffffff;stroke:#424242;" x="225.170552" xlink:href="#m7bec71193b" y="227.673115"/>
     <use style="fill:#ffffff;stroke:#424242;" x="227.478044" xlink:href="#m7bec71193b" y="228.814367"/>
     <use style="fill:#ffffff;stroke:#424242;" x="229.785537" xlink:href="#m7bec71193b" y="229.942169"/>
     <use style="fill:#ffffff;stroke:#424242;" x="232.093029" xlink:href="#m7bec71193b" y="231.086052"/>
     <use style="fill:#ffffff;stroke:#424242;" x="234.400522" xlink:href="#m7bec71193b" y="232.224372"/>
     <use style="fill:#ffffff;stroke:#424242;" x="236.708014" xlink:href="#m7bec71193b" y="233.36594"/>
     <use style="fill:#ffffff;stroke:#424242;" x="239.015506" xlink:href="#m7bec71193b" y="234.51015"/>
     <use style="fill:#ffffff;stroke:#424242;" x="241.322999" xlink:href="#m7bec71193b" y="235.656173"/>
     <use style="fill:#ffffff;stroke:#424242;" x="243.630491" xlink:href="#m7bec71193b" y="236.805438"/>
     <use style="fill:#ffffff;stroke:#424242;" x="245.937984" xlink:href="#m7bec71193b" y="237.957549"/>
     <use style="fill:#ffffff;stroke:#424242;" x="248.245476" xlink:href="#m7bec71193b" y="239.112764"/>
     <use style="fill:#ffffff;stroke:#424242;" x="250.552968" xlink:href="#m7bec71193b" y="240.271431"/>
     <use style="fill:#ffffff;stroke:#424242;" x="252.860461" xlink:href="#m7bec71193b" y="241.433575"/>
     <use style="fill:#ffffff;stroke:#424242;" x="255.167953" xlink:href="#m7bec71193b" y="242.599445"/>
     <use style="fill:#ffffff;stroke:#424242;" x="257.475446" xlink:href="#m7bec71193b" y="243.769224"/>
     <use style="fill:#ffffff;stroke:#424242;" x="259.782938" xlink:href="#m7bec71193b" y="244.943067"/>
     <use style="fill:#ffffff;stroke:#424242;" x="262.09043" xlink:href="#m7bec71193b" y="246.121134"/>
     <use style="fill:#ffffff;stroke:#424242;" x="264.397923" xlink:href="#m7bec71193b" y="247.303575"/>
     <use style="fill:#ffffff;stroke:#424242;" x="266.705415" xlink:href="#m7bec71193b" y="248.490454"/>
     <use style="fill:#ffffff;stroke:#424242;" x="269.012908" xlink:href="#m7bec71193b" y="249.681261"/>
     <use style="fill:#ffffff;stroke:#424242;" x="271.3204" xlink:href="#m7bec71193b" y="250.870606"/>
     <use style="fill:#ffffff;stroke:#424242;" x="273.627892" xlink:href="#m7bec71193b" y="252.002471"/>
     <use style="fill:#ffffff;stroke:#424242;" x="275.935385" xlink:href="#m7bec71193b" y="252.396561"/>
     <use style="fill:#ffffff;stroke:#424242;" x="278.242877" xlink:href="#m7bec71193b" y="244.000114"/>
    </g>
   </g>
   <g id="line2d_20">
    <path clip-path="url(#p03be6b9ce0)" d="M 47.493638 89.232368 
L 49.80113 97.94412 
L 52.108623 107.240927 
L 54.416115 123.320193 
L 56.723607 121.082615 
L 59.0311 121.096238 
L 61.338592 123.870824 
L 63.646085 124.983957 
L 65.953577 125.110825 
L 68.261069 125.330036 
L 70.568562 125.695885 
L 72.876054 126.083447 
L 75.183546 126.451593 
L 77.491039 126.815809 
L 79.798531 127.190811 
L 82.106024 127.584595 
L 84.413516 128.000896 
L 86.721008 128.440661 
L 89.028501 128.905645 
L 91.335993 129.39643 
L 93.643486 129.91483 
L 95.950978 130.461876 
L 98.25847 131.039553 
L 100.565963 131.649382 
L 102.873455 132.293599 
L 105.180948 132.974231 
L 107.48844 133.693877 
L 109.795932 134.455115 
L 112.103425 135.261014 
L 114.410917 136.114767 
L 116.71841 137.02001 
L 119.025902 137.980602 
L 121.333394 139.000806 
L 123.640887 140.085148 
L 125.948379 141.238477 
L 128.255872 142.465842 
L 130.563364 143.772418 
L 132.870856 145.163333 
L 135.178349 146.643424 
L 137.485841 148.216938 
L 139.793334 149.887103 
L 142.100826 151.655671 
L 144.408318 153.522401 
L 146.715811 155.484591 
L 149.023303 157.536746 
L 151.330795 159.670487 
L 153.638288 161.874785 
L 155.94578 164.136533 
L 158.253273 166.441391 
L 160.560765 168.774772 
L 162.868257 171.122789 
L 165.17575 173.47301 
L 167.483242 175.814951 
L 169.790735 178.140284 
L 172.098227 180.442801 
L 174.405719 182.718223 
L 176.713212 184.96391 
L 179.020704 187.178551 
L 181.328197 189.36186 
L 183.635689 191.514309 
L 185.943181 193.636906 
L 188.250674 195.731023 
L 190.558166 197.798256 
L 192.865659 199.84033 
L 195.173151 201.859022 
L 197.480643 203.856111 
L 199.788136 205.833348 
L 202.095628 207.792428 
L 204.403121 209.734981 
L 206.710613 211.662559 
L 209.018105 213.576639 
L 211.325598 215.47862 
L 213.63309 217.369823 
L 215.940583 219.251498 
L 218.248075 221.124826 
L 220.555567 222.990919 
L 222.86306 224.850832 
L 225.170552 226.705561 
L 227.478044 228.556051 
L 229.785537 230.403198 
L 232.093029 232.247851 
L 234.400522 234.09082 
L 236.708014 235.932877 
L 239.015506 237.774756 
L 241.322999 239.617164 
L 243.630491 241.460772 
L 245.937984 243.306227 
L 248.245476 245.154095 
L 250.552968 247.002034 
L 252.860461 248.6348 
L 255.167953 235.819371 
L 257.475446 136.424634 
L 259.782938 95.497004 
L 262.09043 130.245917 
L 264.397923 157.100679 
L 266.705415 176.453513 
L 269.012908 192.38593 
L 271.3204 201.935916 
L 273.627892 209.302548 
L 275.935385 213.589273 
L 278.242877 216.463777 
" style="fill:none;stroke:#424242;stroke-linecap:round;"/>
   </g>
   <g id="PathCollection_2">
    <g clip-path="url(#p03be6b9ce0)">
     <use style="fill:#ffffff;stroke:#424242;" x="47.493638" xlink:href="#m7bec71193b" y="89.232368"/>
     <use style="fill:#ffffff;stroke:#424242;" x="49.80113" xlink:href="#m7bec71193b" y="97.94412"/>
     <use style="fill:#ffffff;stroke:#424242;" x="52.108623" xlink:href="#m7bec71193b" y="107.240927"/>
     <use style="fill:#ffffff;stroke:#424242;" x="54.416115" xlink:href="#m7bec71193b" y="123.320193"/>
     <use style="fill:#ffffff;stroke:#424242;" x="56.723607" xlink:href="#m7bec71193b" y="121.082615"/>
     <use style="fill:#ffffff;stroke:#424242;" x="59.0311" xlink:href="#m7bec71193b" y="121.096238"/>
     <use style="fill:#ffffff;stroke:#424242;" x="61.338592" xlink:href="#m7bec71193b" y="123.870824"/>
     <use style="fill:#ffffff;stroke:#424242;" x="63.646085" xlink:href="#m7bec71193b" y="124.983957"/>
     <use style="fill:#ffffff;stroke:#424242;" x="65.953577" xlink:href="#m7bec71193b" y="125.110825"/>
     <use style="fill:#ffffff;stroke:#424242;" x="68.261069" xlink:href="#m7bec71193b" y="125.330036"/>
     <use style="fill:#ffffff;stroke:#424242;" x="70.568562" xlink:href="#m7bec71193b" y="125.695885"/>
     <use style="fill:#ffffff;stroke:#424242;" x="72.876054" xlink:href="#m7bec71193b" y="126.083447"/>
     <use style="fill:#ffffff;stroke:#424242;" x="75.183546" xlink:href="#m7bec71193b" y="126.451593"/>
     <use style="fill:#ffffff;stroke:#424242;" x="77.491039" xlink:href="#m7bec71193b" y="126.815809"/>
     <use style="fill:#ffffff;stroke:#424242;" x="79.798531" xlink:href="#m7bec71193b" y="127.190811"/>
     <use style="fill:#ffffff;stroke:#424242;" x="82.106024" xlink:href="#m7bec71193b" y="127.584595"/>
     <use style="fill:#ffffff;stroke:#424242;" x="84.413516" xlink:href="#m7bec71193b" y="128.000896"/>
     <use style="fill:#ffffff;stroke:#424242;" x="86.721008" xlink:href="#m7bec71193b" y="128.440661"/>
     <use style="fill:#ffffff;stroke:#424242;" x="89.028501" xlink:href="#m7bec71193b" y="128.905645"/>
     <use style="fill:#ffffff;stroke:#424242;" x="91.335993" xlink:href="#m7bec71193b" y="129.39643"/>
     <use style="fill:#ffffff;stroke:#424242;" x="93.643486" xlink:href="#m7bec71193b" y="129.91483"/>
     <use style="fill:#ffffff;stroke:#424242;" x="95.950978" xlink:href="#m7bec71193b" y="130.461876"/>
     <use style="fill:#ffffff;stroke:#424242;" x="98.25847" xlink:href="#m7bec71193b" y="131.039553"/>
     <use style="fill:#ffffff;stroke:#424242;" x="100.565963" xlink:href="#m7bec71193b" y="131.649382"/>
     <use style="fill:#ffffff;stroke:#424242;" x="102.873455" xlink:href="#m7bec71193b" y="132.293599"/>
     <use style="fill:#ffffff;stroke:#424242;" x="105.180948" xlink:href="#m7bec71193b" y="132.974231"/>
     <use style="fill:#ffffff;stroke:#424242;" x="107.48844" xlink:href="#m7bec71193b" y="133.693877"/>
     <use style="fill:#ffffff;stroke:#424242;" x="109.795932" xlink:href="#m7bec71193b" y="134.455115"/>
     <use style="fill:#ffffff;stroke:#424242;" x="112.103425" xlink:href="#m7bec71193b" y="135.261014"/>
     <use style="fill:#ffffff;stroke:#424242;" x="114.410917" xlink:href="#m7bec71193b" y="136.114767"/>
     <use style="fill:#ffffff;stroke:#424242;" x="116.71841" xlink:href="#m7bec71193b" y="137.02001"/>
     <use style="fill:#ffffff;stroke:#424242;" x="119.025902" xlink:href="#m7bec71193b" y="137.980602"/>
     <use style="fill:#ffffff;stroke:#424242;" x="121.333394" xlink:href="#m7bec71193b" y="139.000806"/>
     <use style="fill:#ffffff;stroke:#424242;" x="123.640887" xlink:href="#m7bec71193b" y="140.085148"/>
     <use style="fill:#ffffff;stroke:#424242;" x="125.948379" xlink:href="#m7bec71193b" y="141.238477"/>
     <use style="fill:#ffffff;stroke:#424242;" x="128.255872" xlink:href="#m7bec71193b" y="142.465842"/>
     <use style="fill:#ffffff;stroke:#424242;" x="130.563364" xlink:href="#m7bec71193b" y="143.772418"/>
     <use style="fill:#ffffff;stroke:#424242;" x="132.870856" xlink:href="#m7bec71193b" y="145.163333"/>
     <use style="fill:#ffffff;stroke:#424242;" x="135.178349" xlink:href="#m7bec71193b" y="146.643424"/>
     <use style="fill:#ffffff;stroke:#424242;" x="137.485841" xlink:href="#m7bec71193b" y="148.216938"/>
     <use style="fill:#ffffff;stroke:#424242;" x="139.793334" xlink:href="#m7bec71193b" y="149.887103"/>
     <use style="fill:#ffffff;stroke:#424242;" x="142.100826" xlink:href="#m7bec71193b" y="151.655671"/>
     <use style="fill:#ffffff;stroke:#424242;" x="144.408318" xlink:href="#m7bec71193b" y="153.522401"/>
     <use style="fill:#ffffff;stroke:#424242;" x="146.715811" xlink:href="#m7bec71193b" y="155.484591"/>
     <use style="fill:#ffffff;stroke:#424242;" x="149.023303" xlink:href="#m7bec71193b" y="157.536746"/>
     <use style="fill:#ffffff;stroke:#424242;" x="151.330795" xlink:href="#m7bec71193b" y="159.670487"/>
     <use style="fill:#ffffff;stroke:#424242;" x="153.638288" xlink:href="#m7bec71193b" y="161.874785"/>
     <use style="fill:#ffffff;stroke:#424242;" x="155.94578" xlink:href="#m7bec71193b" y="164.136533"/>
     <use style="fill:#ffffff;stroke:#424242;" x="158.253273" xlink:href="#m7bec71193b" y="166.441391"/>
     <use style="fill:#ffffff;stroke:#424242;" x="160.560765" xlink:href="#m7bec71193b" y="168.774772"/>
     <use style="fill:#ffffff;stroke:#424242;" x="162.868257" xlink:href="#m7bec71193b" y="171.122789"/>
     <use style="fill:#ffffff;stroke:#424242;" x="165.17575" xlink:href="#m7bec71193b" y="173.47301"/>
     <use style="fill:#ffffff;stroke:#424242;" x="167.483242" xlink:href="#m7bec71193b" y="175.814951"/>
     <use style="fill:#ffffff;stroke:#424242;" x="169.790735" xlink:href="#m7bec71193b" y="178.140284"/>
     <use style="fill:#ffffff;stroke:#424242;" x="172.098227" xlink:href="#m7bec71193b" y="180.442801"/>
     <use style="fill:#ffffff;stroke:#424242;" x="174.405719" xlink:href="#m7bec71193b" y="182.718223"/>
     <use style="fill:#ffffff;stroke:#424242;" x="176.713212" xlink:href="#m7bec71193b" y="184.96391"/>
     <use style="fill:#ffffff;stroke:#424242;" x="179.020704" xlink:href="#m7bec71193b" y="187.178551"/>
     <use style="fill:#ffffff;stroke:#424242;" x="181.328197" xlink:href="#m7bec71193b" y="189.36186"/>
     <use style="fill:#ffffff;stroke:#424242;" x="183.635689" xlink:href="#m7bec71193b" y="191.514309"/>
     <use style="fill:#ffffff;stroke:#424242;" x="185.943181" xlink:href="#m7bec71193b" y="193.636906"/>
     <use style="fill:#ffffff;stroke:#424242;" x="188.250674" xlink:href="#m7bec71193b" y="195.731023"/>
     <use style="fill:#ffffff;stroke:#424242;" x="190.558166" xlink:href="#m7bec71193b" y="197.798256"/>
     <use style="fill:#ffffff;stroke:#424242;" x="192.865659" xlink:href="#m7bec71193b" y="199.84033"/>
     <use style="fill:#ffffff;stroke:#424242;" x="195.173151" xlink:href="#m7bec71193b" y="201.859022"/>
     <use style="fill:#ffffff;stroke:#424242;" x="197.480643" xlink:href="#m7bec71193b" y="203.856111"/>
     <use style="fill:#ffffff;stroke:#424242;" x="199.788136" xlink:href="#m7bec71193b" y="205.833348"/>
     <use style="fill:#ffffff;stroke:#424242;" x="202.095628" xlink:href="#m7bec71193b" y="207.792428"/>
     <use style="fill:#ffffff;stroke:#424242;" x="204.403121" xlink:href="#m7bec71193b" y="209.734981"/>
     <use style="fill:#ffffff;stroke:#424242;" x="206.710613" xlink:href="#m7bec71193b" y="211.662559"/>
     <use style="fill:#ffffff;stroke:#424242;" x="209.018105" xlink:href="#m7bec71193b" y="213.576639"/>
     <use style="fill:#ffffff;stroke:#424242;" x="211.325598" xlink:href="#m7bec71193b" y="215.47862"/>
     <use style="fill:#ffffff;stroke:#424242;" x="213.63309" xlink:href="#m7bec71193b" y="217.369823"/>
     <use style="fill:#ffffff;stroke:#424242;" x="215.940583" xlink:href="#m7bec71193b" y="219.251498"/>
     <use style="fill:#ffffff;stroke:#424242;" x="218.248075" xlink:href="#m7bec71193b" y="221.124826"/>
     <use style="fill:#ffffff;stroke:#424242;" x="220.555567" xlink:href="#m7bec71193b" y="222.990919"/>
     <use style="fill:#ffffff;stroke:#424242;" x="222.86306" xlink:href="#m7bec71193b" y="224.850832"/>
     <use style="fill:#ffffff;stroke:#424242;" x="225.170552" xlink:href="#m7bec71193b" y="226.705561"/>
     <use style="fill:#ffffff;stroke:#424242;" x="227.478044" xlink:href="#m7bec71193b" y="228.556051"/>
     <use style="fill:#ffffff;stroke:#424242;" x="229.785537" xlink:href="#m7bec71193b" y="230.403198"/>
     <use style="fill:#ffffff;stroke:#424242;" x="232.093029" xlink:href="#m7bec71193b" y="232.247851"/>
     <use style="fill:#ffffff;stroke:#424242;" x="234.400522" xlink:href="#m7bec71193b" y="234.09082"/>
     <use style="fill:#ffffff;stroke:#424242;" x="236.708014" xlink:href="#m7bec71193b" y="235.932877"/>
     <use style="fill:#ffffff;stroke:#424242;" x="239.015506" xlink:href="#m7bec71193b" y="237.774756"/>
     <use style="fill:#ffffff;stroke:#424242;" x="241.322999" xlink:href="#m7bec71193b" y="239.617164"/>
     <use style="fill:#ffffff;stroke:#424242;" x="243.630491" xlink:href="#m7bec71193b" y="241.460772"/>
     <use style="fill:#ffffff;stroke:#424242;" x="245.937984" xlink:href="#m7bec71193b" y="243.306227"/>
     <use style="fill:#ffffff;stroke:#424242;" x="248.245476" xlink:href="#m7bec71193b" y="245.154095"/>
     <use style="fill:#ffffff;stroke:#424242;" x="250.552968" xlink:href="#m7bec71193b" y="247.002034"/>
     <use style="fill:#ffffff;stroke:#424242;" x="252.860461" xlink:href="#m7bec71193b" y="248.6348"/>
     <use style="fill:#ffffff;stroke:#424242;" x="255.167953" xlink:href="#m7bec71193b" y="235.819371"/>
     <use style="fill:#ffffff;stroke:#424242;" x="257.475446" xlink:href="#m7bec71193b" y="136.424634"/>
     <use style="fill:#ffffff;stroke:#424242;" x="259.782938" xlink:href="#m7bec71193b" y="95.497004"/>
     <use style="fill:#ffffff;stroke:#424242;" x="262.09043" xlink:href="#m7bec71193b" y="130.245917"/>
     <use style="fill:#ffffff;stroke:#424242;" x="264.397923" xlink:href="#m7bec71193b" y="157.100679"/>
     <use style="fill:#ffffff;stroke:#424242;" x="266.705415" xlink:href="#m7bec71193b" y="176.453513"/>
     <use style="fill:#ffffff;stroke:#424242;" x="269.012908" xlink:href="#m7bec71193b" y="192.38593"/>
     <use style="fill:#ffffff;stroke:#424242;" x="271.3204" xlink:href="#m7bec71193b" y="201.935916"/>
     <use style="fill:#ffffff;stroke:#424242;" x="273.627892" xlink:href="#m7bec71193b" y="209.302548"/>
     <use style="fill:#ffffff;stroke:#424242;" x="275.935385" xlink:href="#m7bec71193b" y="213.589273"/>
     <use style="fill:#ffffff;stroke:#424242;" x="278.242877" xlink:href="#m7bec71193b" y="216.463777"/>
    </g>
   </g>
   <g id="patch_3">
    <path d="M 40.571161 259.665354 
L 40.571161 2.834646 
" style="fill:none;stroke:#000000;stroke-linecap:square;stroke-linejoin:miter;"/>
   </g>
   <g id="patch_4">
    <path d="M 285.165354 259.665354 
L 285.165354 2.834646 
" style="fill:none;stroke:#000000;stroke-linecap:square;stroke-linejoin:miter;stroke-width:0.8;"/>
   </g>
   <g id="patch_5">
    <path d="M 40.571161 259.665354 
L 285.165354 259.665354 
" style="fill:none;stroke:#000000;stroke-linecap:square;stroke-linejoin:miter;"/>
   </g>
   <g id="patch_6">
    <path d="M 40.571161 2.834646 
L 285.165354 2.834646 
" style="fill:none;stroke:#000000;stroke-linecap:square;stroke-linejoin:miter;stroke-width:0.8;"/>
   </g>
   <g id="line2d_21">
    <path clip-path="url(#p03be6b9ce0)" d="M 47.493638 10.103439 
L 49.80113 58.521813 
L 52.108623 142.750832 
L 54.416115 137.783714 
L 56.723607 116.686703 
L 59.0311 122.212634 
L 61.338592 141.299198 
L 63.646085 161.166835 
L 65.953577 163.146926 
L 68.261069 160.123614 
L 70.568562 161.453149 
L 72.876054 164.094344 
L 75.183546 165.092472 
L 77.491039 165.185997 
L 79.798531 165.542916 
L 82.106024 166.067784 
L 84.413516 166.476933 
L 86.721008 166.834507 
L 89.028501 167.231329 
L 91.335993 167.647657 
L 93.643486 168.065157 
L 95.950978 168.493372 
L 98.25847 168.934666 
L 100.565963 169.385486 
L 102.873455 169.846274 
L 105.180948 170.317921 
L 107.48844 170.799804 
L 109.795932 171.29143 
L 112.103425 171.792514 
L 114.410917 172.302696 
L 116.71841 172.821715 
L 119.025902 173.349344 
L 121.333394 173.885286 
L 123.640887 174.429227 
L 125.948379 174.980864 
L 128.255872 175.539912 
L 130.563364 176.106101 
L 132.870856 176.679163 
L 135.178349 177.258827 
L 137.485841 177.844826 
L 139.793334 178.436905 
L 142.100826 179.034818 
L 144.408318 179.638327 
L 146.715811 180.2472 
L 149.023303 180.861215 
L 151.330795 181.480157 
L 153.638288 182.103823 
L 155.94578 182.732018 
L 158.253273 183.364555 
L 160.560765 184.001258 
L 162.868257 184.64196 
L 165.17575 185.286503 
L 167.483242 185.934738 
L 169.790735 186.586527 
L 172.098227 187.241737 
L 174.405719 187.900249 
L 176.713212 188.561947 
L 179.020704 189.226726 
L 181.328197 189.89449 
L 183.635689 190.565149 
L 185.943181 191.238621 
L 188.250674 191.914831 
L 190.558166 192.593711 
L 192.865659 193.275199 
L 195.173151 193.95924 
L 197.480643 194.645786 
L 199.788136 195.334793 
L 202.095628 196.026223 
L 204.403121 196.720044 
L 206.710613 197.416229 
L 209.018105 198.114753 
L 211.325598 198.815599 
L 213.63309 199.518753 
L 215.940583 200.224205 
L 218.248075 200.931948 
L 220.555567 201.64198 
L 222.86306 202.354302 
L 225.170552 203.068917 
L 227.478044 203.785832 
L 229.785537 204.505058 
L 232.093029 205.226607 
L 234.400522 205.950495 
L 236.708014 206.676739 
L 239.015506 207.40536 
L 241.322999 208.136379 
L 243.630491 208.869821 
L 245.937984 209.605713 
L 248.245476 210.344083 
L 250.552968 211.08496 
L 252.860461 211.828377 
L 255.167953 212.574366 
L 257.475446 213.322964 
L 259.782938 214.074205 
L 262.09043 214.828128 
L 264.397923 215.584772 
L 266.705415 216.344177 
L 269.012908 217.106385 
L 271.3204 217.871438 
L 273.627892 218.63938 
L 275.935385 219.410256 
L 278.242877 220.184113 
" style="fill:none;stroke:#424242;stroke-linecap:round;"/>
   </g>
   <g id="PathCollection_3">
    <g clip-path="url(#p03be6b9ce0)">
     <use style="fill:#ffffff;stroke:#424242;" x="47.493638" xlink:href="#m7bec71193b" y="10.103439"/>
     <use style="fill:#ffffff;stroke:#424242;" x="49.80113" xlink:href="#m7bec71193b" y="58.521813"/>
     <use style="fill:#ffffff;stroke:#424242;" x="52.108623" xlink:href="#m7bec71193b" y="142.750832"/>
     <use style="fill:#ffffff;stroke:#424242;" x="54.416115" xlink:href="#m7bec71193b" y="137.783714"/>
     <use style="fill:#ffffff;stroke:#424242;" x="56.723607" xlink:href="#m7bec71193b" y="116.686703"/>
     <use style="fill:#ffffff;stroke:#424242;" x="59.0311" xlink:href="#m7bec71193b" y="122.212634"/>
     <use style="fill:#ffffff;stroke:#424242;" x="61.338592" xlink:href="#m7bec71193b" y="141.299198"/>
     <use style="fill:#ffffff;stroke:#424242;" x="63.646085" xlink:href="#m7bec71193b" y="161.166835"/>
     <use style="fill:#ffffff;stroke:#424242;" x="65.953577" xlink:href="#m7bec71193b" y="163.146926"/>
     <use style="fill:#ffffff;stroke:#424242;" x="68.261069" xlink:href="#m7bec71193b" y="160.123614"/>
     <use style="fill:#ffffff;stroke:#424242;" x="70.568562" xlink:href="#m7bec71193b" y="161.453149"/>
     <use style="fill:#ffffff;stroke:#424242;" x="72.876054" xlink:href="#m7bec71193b" y="164.094344"/>
     <use style="fill:#ffffff;stroke:#424242;" x="75.183546" xlink:href="#m7bec71193b" y="165.092472"/>
     <use style="fill:#ffffff;stroke:#424242;" x="77.491039" xlink:href="#m7bec71193b" y="165.185997"/>
     <use style="fill:#ffffff;stroke:#424242;" x="79.798531" xlink:href="#m7bec71193b" y="165.542916"/>
     <use style="fill:#ffffff;stroke:#424242;" x="82.106024" xlink:href="#m7bec71193b" y="166.067784"/>
     <use style="fill:#ffffff;stroke:#424242;" x="84.413516" xlink:href="#m7bec71193b" y="166.476933"/>
     <use style="fill:#ffffff;stroke:#424242;" x="86.721008" xlink:href="#m7bec71193b" y="166.834507"/>
     <use style="fill:#ffffff;stroke:#424242;" x="89.028501" xlink:href="#m7bec71193b" y="167.231329"/>
     <use style="fill:#ffffff;stroke:#424242;" x="91.335993" xlink:href="#m7bec71193b" y="167.647657"/>
     <use style="fill:#ffffff;stroke:#424242;" x="93.643486" xlink:href="#m7bec71193b" y="168.065157"/>
     <use style="fill:#ffffff;stroke:#424242;" x="95.950978" xlink:href="#m7bec71193b" y="168.493372"/>
     <use style="fill:#ffffff;stroke:#424242;" x="98.25847" xlink:href="#m7bec71193b" y="168.934666"/>
     <use style="fill:#ffffff;stroke:#424242;" x="100.565963" xlink:href="#m7bec71193b" y="169.385486"/>
     <use style="fill:#ffffff;stroke:#424242;" x="102.873455" xlink:href="#m7bec71193b" y="169.846274"/>
     <use style="fill:#ffffff;stroke:#424242;" x="105.180948" xlink:href="#m7bec71193b" y="170.317921"/>
     <use style="fill:#ffffff;stroke:#424242;" x="107.48844" xlink:href="#m7bec71193b" y="170.799804"/>
     <use style="fill:#ffffff;stroke:#424242;" x="109.795932" xlink:href="#m7bec71193b" y="171.29143"/>
     <use style="fill:#ffffff;stroke:#424242;" x="112.103425" xlink:href="#m7bec71193b" y="171.792514"/>
     <use style="fill:#ffffff;stroke:#424242;" x="114.410917" xlink:href="#m7bec71193b" y="172.302696"/>
     <use style="fill:#ffffff;stroke:#424242;" x="116.71841" xlink:href="#m7bec71193b" y="172.821715"/>
     <use style="fill:#ffffff;stroke:#424242;" x="119.025902" xlink:href="#m7bec71193b" y="173.349344"/>
     <use style="fill:#ffffff;stroke:#424242;" x="121.333394" xlink:href="#m7bec71193b" y="173.885286"/>
     <use style="fill:#ffffff;stroke:#424242;" x="123.640887" xlink:href="#m7bec71193b" y="174.429227"/>
     <use style="fill:#ffffff;stroke:#424242;" x="125.948379" xlink:href="#m7bec71193b" y="174.980864"/>
     <use style="fill:#ffffff;stroke:#424242;" x="128.255872" xlink:href="#m7bec71193b" y="175.539912"/>
     <use style="fill:#ffffff;stroke:#424242;" x="130.563364" xlink:href="#m7bec71193b" y="176.106101"/>
     <use style="fill:#ffffff;stroke:#424242;" x="132.870856" xlink:href="#m7bec71193b" y="176.679163"/>
     <use style="fill:#ffffff;stroke:#424242;" x="135.178349" xlink:href="#m7bec71193b" y="177.258827"/>
     <use style="fill:#ffffff;stroke:#424242;" x="137.485841" xlink:href="#m7bec71193b" y="177.844826"/>
     <use style="fill:#ffffff;stroke:#424242;" x="139.793334" xlink:href="#m7bec71193b" y="178.436905"/>
     <use style="fill:#ffffff;stroke:#424242;" x="142.100826" xlink:href="#m7bec71193b" y="179.034818"/>
     <use style="fill:#ffffff;stroke:#424242;" x="144.408318" xlink:href="#m7bec71193b" y="179.638327"/>
     <use style="fill:#ffffff;stroke:#424242;" x="146.715811" xlink:href="#m7bec71193b" y="180.2472"/>
     <use style="fill:#ffffff;stroke:#424242;" x="149.023303" xlink:href="#m7bec71193b" y="180.861215"/>
     <use style="fill:#ffffff;stroke:#424242;" x="151.330795" xlink:href="#m7bec71193b" y="181.480157"/>
     <use style="fill:#ffffff;stroke:#424242;" x="153.638288" xlink:href="#m7bec71193b" y="182.103823"/>
     <use style="fill:#ffffff;stroke:#424242;" x="155.94578" xlink:href="#m7bec71193b" y="182.732018"/>
     <use style="fill:#ffffff;stroke:#424242;" x="158.253273" xlink:href="#m7bec71193b" y="183.364555"/>
     <use style="fill:#ffffff;stroke:#424242;" x="160.560765" xlink:href="#m7bec71193b" y="184.001258"/>
     <use style="fill:#ffffff;stroke:#424242;" x="162.868257" xlink:href="#m7bec71193b" y="184.64196"/>
     <use style="fill:#ffffff;stroke:#424242;" x="165.17575" xlink:href="#m7bec71193b" y="185.286503"/>
     <use style="fill:#ffffff;stroke:#424242;" x="167.483242" xlink:href="#m7bec71193b" y="185.934738"/>
     <use style="fill:#ffffff;stroke:#424242;" x="169.790735" xlink:href="#m7bec71193b" y="186.586527"/>
     <use style="fill:#ffffff;stroke:#424242;" x="172.098227" xlink:href="#m7bec71193b" y="187.241737"/>
     <use style="fill:#ffffff;stroke:#424242;" x="174.405719" xlink:href="#m7bec71193b" y="187.900249"/>
     <use style="fill:#ffffff;stroke:#424242;" x="176.713212" xlink:href="#m7bec71193b" y="188.561947"/>
     <use style="fill:#ffffff;stroke:#424242;" x="179.020704" xlink:href="#m7bec71193b" y="189.226726"/>
     <use style="fill:#ffffff;stroke:#424242;" x="181.328197" xlink:href="#m7bec71193b" y="189.89449"/>
     <use style="fill:#ffffff;stroke:#424242;" x="183.635689" xlink:href="#m7bec71193b" y="190.565149"/>
     <use style="fill:#ffffff;stroke:#424242;" x="185.943181" xlink:href="#m7bec71193b" y="191.238621"/>
     <use style="fill:#ffffff;stroke:#424242;" x="188.250674" xlink:href="#m7bec71193b" y="191.914831"/>
     <use style="fill:#ffffff;stroke:#424242;" x="190.558166" xlink:href="#m7bec71193b" y="192.593711"/>
     <use style="fill:#ffffff;stroke:#424242;" x="192.865659" xlink:href="#m7bec71193b" y="193.275199"/>
     <use style="fill:#ffffff;stroke:#424242;" x="195.173151" xlink:href="#m7bec71193b" y="193.95924"/>
     <use style="fill:#ffffff;stroke:#424242;" x="197.480643" xlink:href="#m7bec71193b" y="194.645786"/>
     <use style="fill:#ffffff;stroke:#424242;" x="199.788136" xlink:href="#m7bec71193b" y="195.334793"/>
     <use style="fill:#ffffff;stroke:#424242;" x="202.095628" xlink:href="#m7bec71193b" y="196.026223"/>
     <use style="fill:#ffffff;stroke:#424242;" x="204.403121" xlink:href="#m7bec71193b" y="196.720044"/>
     <use style="fill:#ffffff;stroke:#424242;" x="206.710613" xlink:href="#m7bec71193b" y="197.416229"/>
     <use style="fill:#ffffff;stroke:#424242;" x="209.018105" xlink:href="#m7bec71193b" y="198.114753"/>
     <use style="fill:#ffffff;stroke:#424242;" x="211.325598" xlink:href="#m7bec71193b" y="198.815599"/>
     <use style="fill:#ffffff;stroke:#424242;" x="213.63309" xlink:href="#m7bec71193b" y="199.518753"/>
     <use style="fill:#ffffff;stroke:#424242;" x="215.940583" xlink:href="#m7bec71193b" y="200.224205"/>
     <use style="fill:#ffffff;stroke:#424242;" x="218.248075" xlink:href="#m7bec71193b" y="200.931948"/>
     <use style="fill:#ffffff;stroke:#424242;" x="220.555567" xlink:href="#m7bec71193b" y="201.64198"/>
     <use style="fill:#ffffff;stroke:#424242;" x="222.86306" xlink:href="#m7bec71193b" y="202.354302"/>
     <use style="fill:#ffffff;stroke:#424242;" x="225.170552" xlink:href="#m7bec71193b" y="203.068917"/>
     <use style="fill:#ffffff;stroke:#424242;" x="227.478044" xlink:href="#m7bec71193b" y="203.785832"/>
     <use style="fill:#ffffff;stroke:#424242;" x="229.785537" xlink:href="#m7bec71193b" y="204.505058"/>
     <use style="fill:#ffffff;stroke:#424242;" x="232.093029" xlink:href="#m7bec71193b" y="205.226607"/>
     <use style="fill:#ffffff;stroke:#424242;" x="234.400522" xlink:href="#m7bec71193b" y="205.950495"/>
     <use style="fill:#ffffff;stroke:#424242;" x="236.708014" xlink:href="#m7bec71193b" y="206.676739"/>
     <use style="fill:#ffffff;stroke:#424242;" x="239.015506" xlink:href="#m7bec71193b" y="207.40536"/>
     <use style="fill:#ffffff;stroke:#424242;" x="241.322999" xlink:href="#m7bec71193b" y="208.136379"/>
     <use style="fill:#ffffff;stroke:#424242;" x="243.630491" xlink:href="#m7bec71193b" y="208.869821"/>
     <use style="fill:#ffffff;stroke:#424242;" x="245.937984" xlink:href="#m7bec71193b" y="209.605713"/>
     <use style="fill:#ffffff;stroke:#424242;" x="248.245476" xlink:href="#m7bec71193b" y="210.344083"/>
     <use style="fill:#ffffff;stroke:#424242;" x="250.552968" xlink:href="#m7bec71193b" y="211.08496"/>
     <use style="fill:#ffffff;stroke:#424242;" x="252.860461" xlink:href="#m7bec71193b" y="211.828377"/>
     <use style="fill:#ffffff;stroke:#424242;" x="255.167953" xlink:href="#m7bec71193b" y="212.574366"/>
     <use style="fill:#ffffff;stroke:#424242;" x="257.475446" xlink:href="#m7bec71193b" y="213.322964"/>
     <use style="fill:#ffffff;stroke:#424242;" x="259.782938" xlink:href="#m7bec71193b" y="214.074205"/>
     <use style="fill:#ffffff;stroke:#424242;" x="262.09043" xlink:href="#m7bec71193b" y="214.828128"/>
     <use style="fill:#ffffff;stroke:#424242;" x="264.397923" xlink:href="#m7bec71193b" y="215.584772"/>
     <use style="fill:#ffffff;stroke:#424242;" x="266.705415" xlink:href="#m7bec71193b" y="216.344177"/>
     <use style="fill:#ffffff;stroke:#424242;" x="269.012908" xlink:href="#m7bec71193b" y="217.106385"/>
     <use style="fill:#ffffff;stroke:#424242;" x="271.3204" xlink:href="#m7bec71193b" y="217.871438"/>
     <use style="fill:#ffffff;stroke:#424242;" x="273.627892" xlink:href="#m7bec71193b" y="218.63938"/>
     <use style="fill:#ffffff;stroke:#424242;" x="275.935385" xlink:href="#m7bec71193b" y="219.410256"/>
     <use style="fill:#ffffff;stroke:#424242;" x="278.242877" xlink:href="#m7bec71193b" y="220.184113"/>
    </g>
   </g>
  </g>
 </g>
 <defs>
  <clipPath id="p03be6b9ce0">
   <rect height="256.830709" width="244.594194" x="40.571161" y="2.834646"/>
  </clipPath>
 </defs>
</svg>
