<?xml version="1.0" encoding="utf-8" standalone="no"?>
<!DOCTYPE svg PUBLIC "-//W3C//DTD SVG 1.1//EN"
  "http://www.w3.org/Graphics/SVG/1.1/DTD/svg11.dtd">
<!-- Created with matplotlib (https://matplotlib.org/) -->
<svg height="432pt" version="1.1" viewBox="0 0 576 432" width="576pt" xmlns="http://www.w3.org/2000/svg" xmlns:xlink="http://www.w3.org/1999/xlink">
 <defs>
  <style type="text/css">
*{stroke-linecap:butt;stroke-linejoin:round;}
  </style>
 </defs>
 <g id="figure_1">
  <g id="patch_1">
   <path d="M 0 432 
L 576 432 
L 576 0 
L 0 0 
z
" style="fill:#ffffff;"/>
  </g>
  <g id="axes_1">
   <g id="patch_2">
    <path d="M 72 384.48 
L 518.4 384.48 
L 518.4 51.84 
L 72 51.84 
z
" style="fill:#ffffff;"/>
   </g>
   <g id="PolyCollection_1">
    <path clip-path="url(#p8c320eed43)" d="M 125.568 397.120348 
L 125.568 188.5727 
L 125.568 397.120348 
L 125.568 397.120348 
z
" style="fill:#1f77b4;fill-opacity:0.3;"/>
   </g>
   <g id="PolyCollection_2">
    <path clip-path="url(#p8c320eed43)" d="M 72 268.196797 
L 72 182.278487 
L 72 268.196797 
L 72 268.196797 
z
" style="fill:#ff7f0e;fill-opacity:0.3;"/>
    <path clip-path="url(#p8c320eed43)" d="M 98.784 243.089612 
L 98.784 187.067249 
L 107.712 185.686814 
L 116.64 198.62955 
L 125.568 192.317129 
L 134.496 199.622296 
L 143.424 199.642347 
L 152.352 205.313002 
L 161.28 201.565682 
L 170.208 208.247269 
L 179.136 204.983832 
L 188.064 209.193451 
L 196.992 215.628981 
L 205.92 229.117192 
L 214.848 232.253091 
L 223.776 239.595541 
L 232.704 249.749258 
L 241.632 263.366942 
L 250.56 264.642878 
L 259.488 269.815196 
L 268.416 247.008571 
L 277.344 230.904838 
L 286.272 224.562224 
L 295.2 223.767462 
L 295.2 273.097808 
L 295.2 273.097808 
L 286.272 280.742876 
L 277.344 284.207216 
L 268.416 297.632146 
L 259.488 297.124681 
L 250.56 288.997653 
L 241.632 281.76846 
L 232.704 264.517499 
L 223.776 259.554849 
L 214.848 244.602857 
L 205.92 247.127231 
L 196.992 229.275283 
L 188.064 248.754861 
L 179.136 248.239859 
L 170.208 257.111991 
L 161.28 244.777558 
L 152.352 252.06417 
L 143.424 234.80368 
L 134.496 232.645422 
L 125.568 228.421761 
L 116.64 238.493734 
L 107.712 227.480507 
L 98.784 243.089612 
z
" style="fill:#ff7f0e;fill-opacity:0.3;"/>
    <path clip-path="url(#p8c320eed43)" d="M 313.056 270.11102 
L 313.056 215.393824 
L 321.984 215.988794 
L 321.984 262.430543 
L 321.984 262.430543 
L 313.056 270.11102 
z
" style="fill:#ff7f0e;fill-opacity:0.3;"/>
    <path clip-path="url(#p8c320eed43)" d="M 348.768 268.281875 
L 348.768 218.837997 
L 357.696 212.553509 
L 366.624 212.631808 
L 366.624 251.971417 
L 366.624 251.971417 
L 357.696 255.470604 
L 348.768 268.281875 
z
" style="fill:#ff7f0e;fill-opacity:0.3;"/>
    <path clip-path="url(#p8c320eed43)" d="M 393.408 249.355351 
L 393.408 209.665924 
L 402.336 210.473155 
L 411.264 209.942301 
L 420.192 212.608888 
L 420.192 243.294875 
L 420.192 243.294875 
L 411.264 245.453232 
L 402.336 249.939242 
L 393.408 249.355351 
z
" style="fill:#ff7f0e;fill-opacity:0.3;"/>
    <path clip-path="url(#p8c320eed43)" d="M 438.048 258.544814 
L 438.048 208.278351 
L 446.976 208.619151 
L 455.904 209.379546 
L 464.832 206.006186 
L 473.76 205.816209 
L 473.76 239.98932 
L 473.76 239.98932 
L 464.832 249.573975 
L 455.904 246.907041 
L 446.976 250.067264 
L 438.048 258.544814 
z
" style="fill:#ff7f0e;fill-opacity:0.3;"/>
    <path clip-path="url(#p8c320eed43)" d="M 500.544 234.646047 
L 500.544 206.304235 
L 509.472 205.263272 
L 518.4 205.071996 
L 518.4 249.311411 
L 518.4 249.311411 
L 509.472 253.428376 
L 500.544 234.646047 
z
" style="fill:#ff7f0e;fill-opacity:0.3;"/>
   </g>
   <g id="PolyCollection_3">
    <path clip-path="url(#p8c320eed43)" d="M 72 197.519862 
L 72 167.351616 
L 80.928 173.089528 
L 89.856 163.985779 
L 98.784 153.837775 
L 107.712 158.311137 
L 116.64 158.225104 
L 125.568 160.757233 
L 134.496 162.567379 
L 143.424 164.286783 
L 152.352 165.978575 
L 161.28 167.688437 
L 170.208 169.220433 
L 179.136 170.615881 
L 188.064 171.887902 
L 196.992 173.224359 
L 205.92 174.145676 
L 214.848 175.087715 
L 223.776 175.958835 
L 232.704 176.671031 
L 241.632 177.45792 
L 250.56 178.198459 
L 259.488 179.010492 
L 268.416 179.778302 
L 277.344 180.548204 
L 286.272 181.267978 
L 295.2 181.968411 
L 304.128 182.679155 
L 313.056 183.349275 
L 321.984 184.051492 
L 330.912 184.731189 
L 339.84 185.378232 
L 348.768 185.983769 
L 357.696 186.541163 
L 366.624 187.061603 
L 375.552 187.565828 
L 384.48 188.04606 
L 393.408 188.508744 
L 402.336 188.965753 
L 411.264 189.402625 
L 420.192 189.828016 
L 429.12 190.26163 
L 438.048 190.684695 
L 446.976 191.10521 
L 455.904 191.524597 
L 464.832 191.934704 
L 473.76 192.35321 
L 482.688 192.773062 
L 491.616 193.19002 
L 500.544 193.606406 
L 509.472 194.022124 
L 518.4 194.430025 
L 518.4 194.824321 
L 518.4 194.824321 
L 509.472 194.413892 
L 500.544 193.982067 
L 491.616 193.550726 
L 482.688 193.126463 
L 473.76 192.696669 
L 464.832 192.268815 
L 455.904 191.832525 
L 446.976 191.408367 
L 438.048 190.980371 
L 429.12 190.55472 
L 420.192 190.116495 
L 411.264 189.681116 
L 402.336 189.243142 
L 393.408 188.765254 
L 384.48 188.284603 
L 375.552 187.815757 
L 366.624 187.345425 
L 357.696 186.791785 
L 348.768 186.276399 
L 339.84 185.725215 
L 330.912 185.094323 
L 321.984 184.412322 
L 313.056 183.767057 
L 304.128 183.112844 
L 295.2 182.474986 
L 286.272 181.733909 
L 277.344 180.971172 
L 268.416 180.214901 
L 259.488 179.443092 
L 250.56 178.677136 
L 241.632 177.927038 
L 232.704 177.185812 
L 223.776 176.417237 
L 214.848 175.729278 
L 205.92 174.896231 
L 196.992 174.085783 
L 188.064 173.211616 
L 179.136 172.11879 
L 170.208 171.170549 
L 161.28 169.656127 
L 152.352 167.938539 
L 143.424 166.225521 
L 134.496 164.482251 
L 125.568 162.636019 
L 116.64 162.826094 
L 107.712 162.420503 
L 98.784 187.351308 
L 89.856 193.581682 
L 80.928 201.07163 
L 72 197.519862 
z
" style="fill:#2ca02c;fill-opacity:0.3;"/>
   </g>
   <g id="PolyCollection_4">
    <path clip-path="url(#p8c320eed43)" d="M 72 259.691414 
L 72 176.151283 
L 72 259.691414 
L 72 259.691414 
z
" style="fill:#d62728;fill-opacity:0.3;"/>
    <path clip-path="url(#p8c320eed43)" d="M 89.856 209.053318 
L 89.856 162.176298 
L 89.856 209.053318 
L 89.856 209.053318 
z
" style="fill:#d62728;fill-opacity:0.3;"/>
    <path clip-path="url(#p8c320eed43)" d="M 107.712 184.733117 
L 107.712 166.236099 
L 116.64 172.48151 
L 125.568 175.777414 
L 134.496 179.65399 
L 143.424 180.868191 
L 152.352 182.813487 
L 161.28 185.478461 
L 170.208 188.266299 
L 179.136 190.114575 
L 188.064 192.414555 
L 196.992 194.860417 
L 205.92 196.611365 
L 214.848 198.37136 
L 223.776 200.042181 
L 232.704 201.130889 
L 241.632 202.367848 
L 250.56 204.597909 
L 259.488 206.672619 
L 268.416 208.080902 
L 277.344 209.384184 
L 286.272 211.398974 
L 295.2 212.192002 
L 304.128 212.941338 
L 313.056 215.573509 
L 321.984 214.994224 
L 330.912 217.446723 
L 339.84 217.460168 
L 348.768 217.267593 
L 348.768 229.627476 
L 348.768 229.627476 
L 339.84 226.286309 
L 330.912 223.727611 
L 321.984 221.828725 
L 313.056 219.523782 
L 304.128 218.378359 
L 295.2 216.240965 
L 286.272 214.254706 
L 277.344 213.010639 
L 268.416 211.096447 
L 259.488 209.211259 
L 250.56 207.641939 
L 241.632 206.230002 
L 232.704 203.976649 
L 223.776 202.795715 
L 214.848 201.188908 
L 205.92 200.439352 
L 196.992 199.551974 
L 188.064 198.623376 
L 179.136 196.138941 
L 170.208 194.400167 
L 161.28 192.334922 
L 152.352 189.143432 
L 143.424 188.223286 
L 134.496 187.035707 
L 125.568 184.565677 
L 116.64 184.281583 
L 107.712 184.733117 
z
" style="fill:#d62728;fill-opacity:0.3;"/>
    <path clip-path="url(#p8c320eed43)" d="M 366.624 228.32584 
L 366.624 221.362264 
L 375.552 223.057928 
L 384.48 220.230932 
L 384.48 234.425731 
L 384.48 234.425731 
L 375.552 229.805749 
L 366.624 228.32584 
z
" style="fill:#d62728;fill-opacity:0.3;"/>
    <path clip-path="url(#p8c320eed43)" d="M 402.336 233.482531 
L 402.336 225.0209 
L 411.264 218.932893 
L 420.192 223.202598 
L 429.12 227.189144 
L 438.048 224.992552 
L 446.976 226.807455 
L 455.904 225.390475 
L 464.832 225.995709 
L 473.76 227.717858 
L 482.688 229.649883 
L 482.688 243.806372 
L 482.688 243.806372 
L 473.76 246.68773 
L 464.832 241.905798 
L 455.904 244.924677 
L 446.976 238.218602 
L 438.048 240.445457 
L 429.12 238.160994 
L 420.192 238.811413 
L 411.264 243.257344 
L 402.336 233.482531 
z
" style="fill:#d62728;fill-opacity:0.3;"/>
    <path clip-path="url(#p8c320eed43)" d="M 500.544 245.152714 
L 500.544 229.986255 
L 509.472 229.374423 
L 518.4 227.18715 
L 518.4 248.61081 
L 518.4 248.61081 
L 509.472 246.383814 
L 500.544 245.152714 
z
" style="fill:#d62728;fill-opacity:0.3;"/>
   </g>
   <g id="PolyCollection_5">
    <path clip-path="url(#p8c320eed43)" d="M 80.928 255.854 
L 80.928 168.116734 
L 89.856 167.369275 
L 98.784 167.848076 
L 107.712 174.183121 
L 116.64 178.084301 
L 125.568 183.705314 
L 134.496 189.712918 
L 143.424 186.93786 
L 152.352 191.281301 
L 161.28 193.672175 
L 170.208 194.637384 
L 179.136 196.387309 
L 188.064 199.856066 
L 196.992 202.996594 
L 205.92 205.820505 
L 214.848 209.070403 
L 223.776 212.712628 
L 232.704 214.538497 
L 241.632 218.676041 
L 250.56 220.043332 
L 259.488 224.23522 
L 268.416 226.282617 
L 277.344 228.147649 
L 286.272 228.68479 
L 295.2 230.614 
L 304.128 234.879194 
L 313.056 233.94419 
L 321.984 237.387998 
L 330.912 241.591176 
L 339.84 241.217196 
L 348.768 241.098414 
L 357.696 244.71778 
L 366.624 249.465322 
L 375.552 245.44932 
L 384.48 247.888136 
L 393.408 253.419068 
L 402.336 249.033736 
L 411.264 252.901463 
L 420.192 256.0776 
L 429.12 253.540848 
L 438.048 255.436688 
L 446.976 253.172285 
L 446.976 280.59919 
L 446.976 280.59919 
L 438.048 271.32974 
L 429.12 271.755979 
L 420.192 266.963742 
L 411.264 263.776009 
L 402.336 263.475527 
L 393.408 258.270835 
L 384.48 258.910722 
L 375.552 257.864106 
L 366.624 252.426617 
L 357.696 251.922705 
L 348.768 251.667038 
L 339.84 248.199901 
L 330.912 245.021125 
L 321.984 244.895444 
L 313.056 243.611009 
L 304.128 239.057981 
L 295.2 238.14683 
L 286.272 235.334673 
L 277.344 231.638389 
L 268.416 229.311697 
L 259.488 226.070806 
L 250.56 224.049287 
L 241.632 220.08232 
L 232.704 217.886294 
L 223.776 214.231817 
L 214.848 211.415264 
L 205.92 209.803361 
L 196.992 209.336174 
L 188.064 210.294279 
L 179.136 208.595725 
L 170.208 209.183648 
L 161.28 207.162151 
L 152.352 204.338603 
L 143.424 201.858152 
L 134.496 199.978161 
L 125.568 201.122378 
L 116.64 195.600032 
L 107.712 195.040983 
L 98.784 203.744211 
L 89.856 232.437083 
L 80.928 255.854 
z
" style="fill:#9467bd;fill-opacity:0.3;"/>
    <path clip-path="url(#p8c320eed43)" d="M 464.832 285.865542 
L 464.832 250.106859 
L 473.76 250.045286 
L 473.76 288.253545 
L 473.76 288.253545 
L 464.832 285.865542 
z
" style="fill:#9467bd;fill-opacity:0.3;"/>
   </g>
   <g id="PolyCollection_6">
    <path clip-path="url(#p8c320eed43)" d="M 72 234.080198 
L 72 160.625975 
L 80.928 155.155862 
L 89.856 153.768649 
L 98.784 142.354705 
L 107.712 143.126224 
L 116.64 151.743977 
L 125.568 161.808789 
L 134.496 174.47297 
L 143.424 179.078858 
L 152.352 180.049662 
L 161.28 180.78201 
L 170.208 181.162095 
L 179.136 184.663758 
L 188.064 188.449807 
L 196.992 193.869165 
L 205.92 199.029764 
L 214.848 204.15748 
L 223.776 209.532403 
L 232.704 215.486743 
L 241.632 221.595846 
L 250.56 228.25973 
L 259.488 235.184226 
L 268.416 243.364315 
L 277.344 250.709036 
L 286.272 257.44753 
L 295.2 262.484995 
L 295.2 288.037871 
L 295.2 288.037871 
L 286.272 266.194485 
L 277.344 256.430772 
L 268.416 247.325034 
L 259.488 239.624543 
L 250.56 231.616518 
L 241.632 224.489312 
L 232.704 217.928522 
L 223.776 212.896017 
L 214.848 207.437761 
L 205.92 202.552541 
L 196.992 199.041623 
L 188.064 197.126677 
L 179.136 199.314963 
L 170.208 204.239361 
L 161.28 202.750371 
L 152.352 200.468362 
L 143.424 197.592981 
L 134.496 190.18038 
L 125.568 180.601247 
L 116.64 170.232585 
L 107.712 181.051435 
L 98.784 187.615701 
L 89.856 205.977743 
L 80.928 235.585625 
L 72 234.080198 
z
" style="fill:#8c564b;fill-opacity:0.3;"/>
   </g>
   <g id="PolyCollection_7">
    <path clip-path="url(#p8c320eed43)" d="M 72 237.686215 
L 72 146.115073 
L 80.928 140.662017 
L 89.856 125.677975 
L 98.784 128.27153 
L 98.784 246.598191 
L 98.784 246.598191 
L 89.856 263.234134 
L 80.928 237.683878 
L 72 237.686215 
z
" style="fill:#e377c2;fill-opacity:0.3;"/>
    <path clip-path="url(#p8c320eed43)" d="M 116.64 226.493043 
L 116.64 138.824985 
L 125.568 137.463631 
L 134.496 130.888158 
L 134.496 236.564984 
L 134.496 236.564984 
L 125.568 248.21384 
L 116.64 226.493043 
z
" style="fill:#e377c2;fill-opacity:0.3;"/>
    <path clip-path="url(#p8c320eed43)" d="M 152.352 238.938683 
L 152.352 132.483201 
L 161.28 122.865801 
L 170.208 125.504598 
L 170.208 240.011616 
L 170.208 240.011616 
L 161.28 260.434292 
L 152.352 238.938683 
z
" style="fill:#e377c2;fill-opacity:0.3;"/>
    <path clip-path="url(#p8c320eed43)" d="M 188.064 249.212748 
L 188.064 118.592753 
L 196.992 124.910375 
L 205.92 121.82499 
L 205.92 279.990086 
L 205.92 279.990086 
L 196.992 281.093512 
L 188.064 249.212748 
z
" style="fill:#e377c2;fill-opacity:0.3;"/>
    <path clip-path="url(#p8c320eed43)" d="M 223.776 278.395466 
L 223.776 112.548827 
L 223.776 278.395466 
L 223.776 278.395466 
z
" style="fill:#e377c2;fill-opacity:0.3;"/>
    <path clip-path="url(#p8c320eed43)" d="M 250.56 243.544425 
L 250.56 110.605118 
L 250.56 243.544425 
L 250.56 243.544425 
z
" style="fill:#e377c2;fill-opacity:0.3;"/>
    <path clip-path="url(#p8c320eed43)" d="M 268.416 279.331211 
L 268.416 99.959567 
L 277.344 113.248378 
L 286.272 103.0371 
L 286.272 299.476094 
L 286.272 299.476094 
L 277.344 291.590964 
L 268.416 279.331211 
z
" style="fill:#e377c2;fill-opacity:0.3;"/>
    <path clip-path="url(#p8c320eed43)" d="M 304.128 292.648042 
L 304.128 115.208103 
L 313.056 96.159952 
L 321.984 102.846879 
L 321.984 259.472772 
L 321.984 259.472772 
L 313.056 286.765077 
L 304.128 292.648042 
z
" style="fill:#e377c2;fill-opacity:0.3;"/>
    <path clip-path="url(#p8c320eed43)" d="M 455.904 273.508095 
L 455.904 102.156487 
L 455.904 273.508095 
L 455.904 273.508095 
z
" style="fill:#e377c2;fill-opacity:0.3;"/>
   </g>
   <g id="matplotlib.axis_1">
    <g id="xtick_1">
     <g id="line2d_1">
      <path clip-path="url(#p8c320eed43)" d="M 72 384.48 
L 72 51.84 
" style="fill:none;stroke:#b0b0b0;stroke-linecap:square;stroke-width:0.8;"/>
     </g>
     <g id="line2d_2">
      <defs>
       <path d="M 0 0 
L 0 3.5 
" id="m218ff63451" style="stroke:#000000;stroke-width:0.8;"/>
      </defs>
      <g>
       <use style="stroke:#000000;stroke-width:0.8;" x="72" xlink:href="#m218ff63451" y="384.48"/>
      </g>
     </g>
     <g id="text_1">
      <!-- 0 -->
      <defs>
       <path d="M 31.78125 66.40625 
Q 24.171875 66.40625 20.328125 58.90625 
Q 16.5 51.421875 16.5 36.375 
Q 16.5 21.390625 20.328125 13.890625 
Q 24.171875 6.390625 31.78125 6.390625 
Q 39.453125 6.390625 43.28125 13.890625 
Q 47.125 21.390625 47.125 36.375 
Q 47.125 51.421875 43.28125 58.90625 
Q 39.453125 66.40625 31.78125 66.40625 
z
M 31.78125 74.21875 
Q 44.046875 74.21875 50.515625 64.515625 
Q 56.984375 54.828125 56.984375 36.375 
Q 56.984375 17.96875 50.515625 8.265625 
Q 44.046875 -1.421875 31.78125 -1.421875 
Q 19.53125 -1.421875 13.0625 8.265625 
Q 6.59375 17.96875 6.59375 36.375 
Q 6.59375 54.828125 13.0625 64.515625 
Q 19.53125 74.21875 31.78125 74.21875 
z
" id="DejaVuSans-48"/>
      </defs>
      <g transform="translate(68.81875 399.078438)scale(0.1 -0.1)">
       <use xlink:href="#DejaVuSans-48"/>
      </g>
     </g>
    </g>
    <g id="xtick_2">
     <g id="line2d_3">
      <path clip-path="url(#p8c320eed43)" d="M 161.28 384.48 
L 161.28 51.84 
" style="fill:none;stroke:#b0b0b0;stroke-linecap:square;stroke-width:0.8;"/>
     </g>
     <g id="line2d_4">
      <g>
       <use style="stroke:#000000;stroke-width:0.8;" x="161.28" xlink:href="#m218ff63451" y="384.48"/>
      </g>
     </g>
     <g id="text_2">
      <!-- 10 -->
      <defs>
       <path d="M 12.40625 8.296875 
L 28.515625 8.296875 
L 28.515625 63.921875 
L 10.984375 60.40625 
L 10.984375 69.390625 
L 28.421875 72.90625 
L 38.28125 72.90625 
L 38.28125 8.296875 
L 54.390625 8.296875 
L 54.390625 0 
L 12.40625 0 
z
" id="DejaVuSans-49"/>
      </defs>
      <g transform="translate(154.9175 399.078438)scale(0.1 -0.1)">
       <use xlink:href="#DejaVuSans-49"/>
       <use x="63.623047" xlink:href="#DejaVuSans-48"/>
      </g>
     </g>
    </g>
    <g id="xtick_3">
     <g id="line2d_5">
      <path clip-path="url(#p8c320eed43)" d="M 250.56 384.48 
L 250.56 51.84 
" style="fill:none;stroke:#b0b0b0;stroke-linecap:square;stroke-width:0.8;"/>
     </g>
     <g id="line2d_6">
      <g>
       <use style="stroke:#000000;stroke-width:0.8;" x="250.56" xlink:href="#m218ff63451" y="384.48"/>
      </g>
     </g>
     <g id="text_3">
      <!-- 20 -->
      <defs>
       <path d="M 19.1875 8.296875 
L 53.609375 8.296875 
L 53.609375 0 
L 7.328125 0 
L 7.328125 8.296875 
Q 12.9375 14.109375 22.625 23.890625 
Q 32.328125 33.6875 34.8125 36.53125 
Q 39.546875 41.84375 41.421875 45.53125 
Q 43.3125 49.21875 43.3125 52.78125 
Q 43.3125 58.59375 39.234375 62.25 
Q 35.15625 65.921875 28.609375 65.921875 
Q 23.96875 65.921875 18.8125 64.3125 
Q 13.671875 62.703125 7.8125 59.421875 
L 7.8125 69.390625 
Q 13.765625 71.78125 18.9375 73 
Q 24.125 74.21875 28.421875 74.21875 
Q 39.75 74.21875 46.484375 68.546875 
Q 53.21875 62.890625 53.21875 53.421875 
Q 53.21875 48.921875 51.53125 44.890625 
Q 49.859375 40.875 45.40625 35.40625 
Q 44.1875 33.984375 37.640625 27.21875 
Q 31.109375 20.453125 19.1875 8.296875 
z
" id="DejaVuSans-50"/>
      </defs>
      <g transform="translate(244.1975 399.078438)scale(0.1 -0.1)">
       <use xlink:href="#DejaVuSans-50"/>
       <use x="63.623047" xlink:href="#DejaVuSans-48"/>
      </g>
     </g>
    </g>
    <g id="xtick_4">
     <g id="line2d_7">
      <path clip-path="url(#p8c320eed43)" d="M 339.84 384.48 
L 339.84 51.84 
" style="fill:none;stroke:#b0b0b0;stroke-linecap:square;stroke-width:0.8;"/>
     </g>
     <g id="line2d_8">
      <g>
       <use style="stroke:#000000;stroke-width:0.8;" x="339.84" xlink:href="#m218ff63451" y="384.48"/>
      </g>
     </g>
     <g id="text_4">
      <!-- 30 -->
      <defs>
       <path d="M 40.578125 39.3125 
Q 47.65625 37.796875 51.625 33 
Q 55.609375 28.21875 55.609375 21.1875 
Q 55.609375 10.40625 48.1875 4.484375 
Q 40.765625 -1.421875 27.09375 -1.421875 
Q 22.515625 -1.421875 17.65625 -0.515625 
Q 12.796875 0.390625 7.625 2.203125 
L 7.625 11.71875 
Q 11.71875 9.328125 16.59375 8.109375 
Q 21.484375 6.890625 26.8125 6.890625 
Q 36.078125 6.890625 40.9375 10.546875 
Q 45.796875 14.203125 45.796875 21.1875 
Q 45.796875 27.640625 41.28125 31.265625 
Q 36.765625 34.90625 28.71875 34.90625 
L 20.21875 34.90625 
L 20.21875 43.015625 
L 29.109375 43.015625 
Q 36.375 43.015625 40.234375 45.921875 
Q 44.09375 48.828125 44.09375 54.296875 
Q 44.09375 59.90625 40.109375 62.90625 
Q 36.140625 65.921875 28.71875 65.921875 
Q 24.65625 65.921875 20.015625 65.03125 
Q 15.375 64.15625 9.8125 62.3125 
L 9.8125 71.09375 
Q 15.4375 72.65625 20.34375 73.4375 
Q 25.25 74.21875 29.59375 74.21875 
Q 40.828125 74.21875 47.359375 69.109375 
Q 53.90625 64.015625 53.90625 55.328125 
Q 53.90625 49.265625 50.4375 45.09375 
Q 46.96875 40.921875 40.578125 39.3125 
z
" id="DejaVuSans-51"/>
      </defs>
      <g transform="translate(333.4775 399.078438)scale(0.1 -0.1)">
       <use xlink:href="#DejaVuSans-51"/>
       <use x="63.623047" xlink:href="#DejaVuSans-48"/>
      </g>
     </g>
    </g>
    <g id="xtick_5">
     <g id="line2d_9">
      <path clip-path="url(#p8c320eed43)" d="M 429.12 384.48 
L 429.12 51.84 
" style="fill:none;stroke:#b0b0b0;stroke-linecap:square;stroke-width:0.8;"/>
     </g>
     <g id="line2d_10">
      <g>
       <use style="stroke:#000000;stroke-width:0.8;" x="429.12" xlink:href="#m218ff63451" y="384.48"/>
      </g>
     </g>
     <g id="text_5">
      <!-- 40 -->
      <defs>
       <path d="M 37.796875 64.3125 
L 12.890625 25.390625 
L 37.796875 25.390625 
z
M 35.203125 72.90625 
L 47.609375 72.90625 
L 47.609375 25.390625 
L 58.015625 25.390625 
L 58.015625 17.1875 
L 47.609375 17.1875 
L 47.609375 0 
L 37.796875 0 
L 37.796875 17.1875 
L 4.890625 17.1875 
L 4.890625 26.703125 
z
" id="DejaVuSans-52"/>
      </defs>
      <g transform="translate(422.7575 399.078438)scale(0.1 -0.1)">
       <use xlink:href="#DejaVuSans-52"/>
       <use x="63.623047" xlink:href="#DejaVuSans-48"/>
      </g>
     </g>
    </g>
    <g id="xtick_6">
     <g id="line2d_11">
      <path clip-path="url(#p8c320eed43)" d="M 518.4 384.48 
L 518.4 51.84 
" style="fill:none;stroke:#b0b0b0;stroke-linecap:square;stroke-width:0.8;"/>
     </g>
     <g id="line2d_12">
      <g>
       <use style="stroke:#000000;stroke-width:0.8;" x="518.4" xlink:href="#m218ff63451" y="384.48"/>
      </g>
     </g>
     <g id="text_6">
      <!-- 50 -->
      <defs>
       <path d="M 10.796875 72.90625 
L 49.515625 72.90625 
L 49.515625 64.59375 
L 19.828125 64.59375 
L 19.828125 46.734375 
Q 21.96875 47.46875 24.109375 47.828125 
Q 26.265625 48.1875 28.421875 48.1875 
Q 40.625 48.1875 47.75 41.5 
Q 54.890625 34.8125 54.890625 23.390625 
Q 54.890625 11.625 47.5625 5.09375 
Q 40.234375 -1.421875 26.90625 -1.421875 
Q 22.3125 -1.421875 17.546875 -0.640625 
Q 12.796875 0.140625 7.71875 1.703125 
L 7.71875 11.625 
Q 12.109375 9.234375 16.796875 8.0625 
Q 21.484375 6.890625 26.703125 6.890625 
Q 35.15625 6.890625 40.078125 11.328125 
Q 45.015625 15.765625 45.015625 23.390625 
Q 45.015625 31 40.078125 35.4375 
Q 35.15625 39.890625 26.703125 39.890625 
Q 22.75 39.890625 18.8125 39.015625 
Q 14.890625 38.140625 10.796875 36.28125 
z
" id="DejaVuSans-53"/>
      </defs>
      <g transform="translate(512.0375 399.078438)scale(0.1 -0.1)">
       <use xlink:href="#DejaVuSans-53"/>
       <use x="63.623047" xlink:href="#DejaVuSans-48"/>
      </g>
     </g>
    </g>
    <g id="text_7">
     <!-- Iteration -->
     <defs>
      <path d="M 9.8125 72.90625 
L 19.671875 72.90625 
L 19.671875 0 
L 9.8125 0 
z
" id="DejaVuSans-73"/>
      <path d="M 18.3125 70.21875 
L 18.3125 54.6875 
L 36.8125 54.6875 
L 36.8125 47.703125 
L 18.3125 47.703125 
L 18.3125 18.015625 
Q 18.3125 11.328125 20.140625 9.421875 
Q 21.96875 7.515625 27.59375 7.515625 
L 36.8125 7.515625 
L 36.8125 0 
L 27.59375 0 
Q 17.1875 0 13.234375 3.875 
Q 9.28125 7.765625 9.28125 18.015625 
L 9.28125 47.703125 
L 2.6875 47.703125 
L 2.6875 54.6875 
L 9.28125 54.6875 
L 9.28125 70.21875 
z
" id="DejaVuSans-116"/>
      <path d="M 56.203125 29.59375 
L 56.203125 25.203125 
L 14.890625 25.203125 
Q 15.484375 15.921875 20.484375 11.0625 
Q 25.484375 6.203125 34.421875 6.203125 
Q 39.59375 6.203125 44.453125 7.46875 
Q 49.3125 8.734375 54.109375 11.28125 
L 54.109375 2.78125 
Q 49.265625 0.734375 44.1875 -0.34375 
Q 39.109375 -1.421875 33.890625 -1.421875 
Q 20.796875 -1.421875 13.15625 6.1875 
Q 5.515625 13.8125 5.515625 26.8125 
Q 5.515625 40.234375 12.765625 48.109375 
Q 20.015625 56 32.328125 56 
Q 43.359375 56 49.78125 48.890625 
Q 56.203125 41.796875 56.203125 29.59375 
z
M 47.21875 32.234375 
Q 47.125 39.59375 43.09375 43.984375 
Q 39.0625 48.390625 32.421875 48.390625 
Q 24.90625 48.390625 20.390625 44.140625 
Q 15.875 39.890625 15.1875 32.171875 
z
" id="DejaVuSans-101"/>
      <path d="M 41.109375 46.296875 
Q 39.59375 47.171875 37.8125 47.578125 
Q 36.03125 48 33.890625 48 
Q 26.265625 48 22.1875 43.046875 
Q 18.109375 38.09375 18.109375 28.8125 
L 18.109375 0 
L 9.078125 0 
L 9.078125 54.6875 
L 18.109375 54.6875 
L 18.109375 46.1875 
Q 20.953125 51.171875 25.484375 53.578125 
Q 30.03125 56 36.53125 56 
Q 37.453125 56 38.578125 55.875 
Q 39.703125 55.765625 41.0625 55.515625 
z
" id="DejaVuSans-114"/>
      <path d="M 34.28125 27.484375 
Q 23.390625 27.484375 19.1875 25 
Q 14.984375 22.515625 14.984375 16.5 
Q 14.984375 11.71875 18.140625 8.90625 
Q 21.296875 6.109375 26.703125 6.109375 
Q 34.1875 6.109375 38.703125 11.40625 
Q 43.21875 16.703125 43.21875 25.484375 
L 43.21875 27.484375 
z
M 52.203125 31.203125 
L 52.203125 0 
L 43.21875 0 
L 43.21875 8.296875 
Q 40.140625 3.328125 35.546875 0.953125 
Q 30.953125 -1.421875 24.3125 -1.421875 
Q 15.921875 -1.421875 10.953125 3.296875 
Q 6 8.015625 6 15.921875 
Q 6 25.140625 12.171875 29.828125 
Q 18.359375 34.515625 30.609375 34.515625 
L 43.21875 34.515625 
L 43.21875 35.40625 
Q 43.21875 41.609375 39.140625 45 
Q 35.0625 48.390625 27.6875 48.390625 
Q 23 48.390625 18.546875 47.265625 
Q 14.109375 46.140625 10.015625 43.890625 
L 10.015625 52.203125 
Q 14.9375 54.109375 19.578125 55.046875 
Q 24.21875 56 28.609375 56 
Q 40.484375 56 46.34375 49.84375 
Q 52.203125 43.703125 52.203125 31.203125 
z
" id="DejaVuSans-97"/>
      <path d="M 9.421875 54.6875 
L 18.40625 54.6875 
L 18.40625 0 
L 9.421875 0 
z
M 9.421875 75.984375 
L 18.40625 75.984375 
L 18.40625 64.59375 
L 9.421875 64.59375 
z
" id="DejaVuSans-105"/>
      <path d="M 30.609375 48.390625 
Q 23.390625 48.390625 19.1875 42.75 
Q 14.984375 37.109375 14.984375 27.296875 
Q 14.984375 17.484375 19.15625 11.84375 
Q 23.34375 6.203125 30.609375 6.203125 
Q 37.796875 6.203125 41.984375 11.859375 
Q 46.1875 17.53125 46.1875 27.296875 
Q 46.1875 37.015625 41.984375 42.703125 
Q 37.796875 48.390625 30.609375 48.390625 
z
M 30.609375 56 
Q 42.328125 56 49.015625 48.375 
Q 55.71875 40.765625 55.71875 27.296875 
Q 55.71875 13.875 49.015625 6.21875 
Q 42.328125 -1.421875 30.609375 -1.421875 
Q 18.84375 -1.421875 12.171875 6.21875 
Q 5.515625 13.875 5.515625 27.296875 
Q 5.515625 40.765625 12.171875 48.375 
Q 18.84375 56 30.609375 56 
z
" id="DejaVuSans-111"/>
      <path d="M 54.890625 33.015625 
L 54.890625 0 
L 45.90625 0 
L 45.90625 32.71875 
Q 45.90625 40.484375 42.875 44.328125 
Q 39.84375 48.1875 33.796875 48.1875 
Q 26.515625 48.1875 22.3125 43.546875 
Q 18.109375 38.921875 18.109375 30.90625 
L 18.109375 0 
L 9.078125 0 
L 9.078125 54.6875 
L 18.109375 54.6875 
L 18.109375 46.1875 
Q 21.34375 51.125 25.703125 53.5625 
Q 30.078125 56 35.796875 56 
Q 45.21875 56 50.046875 50.171875 
Q 54.890625 44.34375 54.890625 33.015625 
z
" id="DejaVuSans-110"/>
     </defs>
     <g transform="translate(273.991406 412.756563)scale(0.1 -0.1)">
      <use xlink:href="#DejaVuSans-73"/>
      <use x="29.492188" xlink:href="#DejaVuSans-116"/>
      <use x="68.701172" xlink:href="#DejaVuSans-101"/>
      <use x="130.224609" xlink:href="#DejaVuSans-114"/>
      <use x="171.337891" xlink:href="#DejaVuSans-97"/>
      <use x="232.617188" xlink:href="#DejaVuSans-116"/>
      <use x="271.826172" xlink:href="#DejaVuSans-105"/>
      <use x="299.609375" xlink:href="#DejaVuSans-111"/>
      <use x="360.791016" xlink:href="#DejaVuSans-110"/>
     </g>
    </g>
   </g>
   <g id="matplotlib.axis_2">
    <g id="ytick_1">
     <g id="line2d_13">
      <path clip-path="url(#p8c320eed43)" d="M 72 384.48 
L 518.4 384.48 
" style="fill:none;stroke:#b0b0b0;stroke-linecap:square;stroke-width:0.8;"/>
     </g>
     <g id="line2d_14">
      <defs>
       <path d="M 0 0 
L -3.5 0 
" id="m616f78d8e7" style="stroke:#000000;stroke-width:0.8;"/>
      </defs>
      <g>
       <use style="stroke:#000000;stroke-width:0.8;" x="72" xlink:href="#m616f78d8e7" y="384.48"/>
      </g>
     </g>
     <g id="text_8">
      <!-- $\mathdefault{10^{-12}}$ -->
      <defs>
       <path d="M 10.59375 35.5 
L 73.1875 35.5 
L 73.1875 27.203125 
L 10.59375 27.203125 
z
" id="DejaVuSans-8722"/>
      </defs>
      <g transform="translate(37.1 388.279219)scale(0.1 -0.1)">
       <use transform="translate(0 0.765625)" xlink:href="#DejaVuSans-49"/>
       <use transform="translate(63.623047 0.765625)" xlink:href="#DejaVuSans-48"/>
       <use transform="translate(128.203125 39.046875)scale(0.7)" xlink:href="#DejaVuSans-8722"/>
       <use transform="translate(186.855469 39.046875)scale(0.7)" xlink:href="#DejaVuSans-49"/>
       <use transform="translate(231.391602 39.046875)scale(0.7)" xlink:href="#DejaVuSans-50"/>
      </g>
     </g>
    </g>
    <g id="ytick_2">
     <g id="line2d_15">
      <path clip-path="url(#p8c320eed43)" d="M 72 336.96 
L 518.4 336.96 
" style="fill:none;stroke:#b0b0b0;stroke-linecap:square;stroke-width:0.8;"/>
     </g>
     <g id="line2d_16">
      <g>
       <use style="stroke:#000000;stroke-width:0.8;" x="72" xlink:href="#m616f78d8e7" y="336.96"/>
      </g>
     </g>
     <g id="text_9">
      <!-- $\mathdefault{10^{-10}}$ -->
      <g transform="translate(37.1 340.759219)scale(0.1 -0.1)">
       <use transform="translate(0 0.765625)" xlink:href="#DejaVuSans-49"/>
       <use transform="translate(63.623047 0.765625)" xlink:href="#DejaVuSans-48"/>
       <use transform="translate(128.203125 39.046875)scale(0.7)" xlink:href="#DejaVuSans-8722"/>
       <use transform="translate(186.855469 39.046875)scale(0.7)" xlink:href="#DejaVuSans-49"/>
       <use transform="translate(231.391602 39.046875)scale(0.7)" xlink:href="#DejaVuSans-48"/>
      </g>
     </g>
    </g>
    <g id="ytick_3">
     <g id="line2d_17">
      <path clip-path="url(#p8c320eed43)" d="M 72 289.44 
L 518.4 289.44 
" style="fill:none;stroke:#b0b0b0;stroke-linecap:square;stroke-width:0.8;"/>
     </g>
     <g id="line2d_18">
      <g>
       <use style="stroke:#000000;stroke-width:0.8;" x="72" xlink:href="#m616f78d8e7" y="289.44"/>
      </g>
     </g>
     <g id="text_10">
      <!-- $\mathdefault{10^{-8}}$ -->
      <defs>
       <path d="M 31.78125 34.625 
Q 24.75 34.625 20.71875 30.859375 
Q 16.703125 27.09375 16.703125 20.515625 
Q 16.703125 13.921875 20.71875 10.15625 
Q 24.75 6.390625 31.78125 6.390625 
Q 38.8125 6.390625 42.859375 10.171875 
Q 46.921875 13.96875 46.921875 20.515625 
Q 46.921875 27.09375 42.890625 30.859375 
Q 38.875 34.625 31.78125 34.625 
z
M 21.921875 38.8125 
Q 15.578125 40.375 12.03125 44.71875 
Q 8.5 49.078125 8.5 55.328125 
Q 8.5 64.0625 14.71875 69.140625 
Q 20.953125 74.21875 31.78125 74.21875 
Q 42.671875 74.21875 48.875 69.140625 
Q 55.078125 64.0625 55.078125 55.328125 
Q 55.078125 49.078125 51.53125 44.71875 
Q 48 40.375 41.703125 38.8125 
Q 48.828125 37.15625 52.796875 32.3125 
Q 56.78125 27.484375 56.78125 20.515625 
Q 56.78125 9.90625 50.3125 4.234375 
Q 43.84375 -1.421875 31.78125 -1.421875 
Q 19.734375 -1.421875 13.25 4.234375 
Q 6.78125 9.90625 6.78125 20.515625 
Q 6.78125 27.484375 10.78125 32.3125 
Q 14.796875 37.15625 21.921875 38.8125 
z
M 18.3125 54.390625 
Q 18.3125 48.734375 21.84375 45.5625 
Q 25.390625 42.390625 31.78125 42.390625 
Q 38.140625 42.390625 41.71875 45.5625 
Q 45.3125 48.734375 45.3125 54.390625 
Q 45.3125 60.0625 41.71875 63.234375 
Q 38.140625 66.40625 31.78125 66.40625 
Q 25.390625 66.40625 21.84375 63.234375 
Q 18.3125 60.0625 18.3125 54.390625 
z
" id="DejaVuSans-56"/>
      </defs>
      <g transform="translate(41.5 293.239219)scale(0.1 -0.1)">
       <use transform="translate(0 0.765625)" xlink:href="#DejaVuSans-49"/>
       <use transform="translate(63.623047 0.765625)" xlink:href="#DejaVuSans-48"/>
       <use transform="translate(128.203125 39.046875)scale(0.7)" xlink:href="#DejaVuSans-8722"/>
       <use transform="translate(186.855469 39.046875)scale(0.7)" xlink:href="#DejaVuSans-56"/>
      </g>
     </g>
    </g>
    <g id="ytick_4">
     <g id="line2d_19">
      <path clip-path="url(#p8c320eed43)" d="M 72 241.92 
L 518.4 241.92 
" style="fill:none;stroke:#b0b0b0;stroke-linecap:square;stroke-width:0.8;"/>
     </g>
     <g id="line2d_20">
      <g>
       <use style="stroke:#000000;stroke-width:0.8;" x="72" xlink:href="#m616f78d8e7" y="241.92"/>
      </g>
     </g>
     <g id="text_11">
      <!-- $\mathdefault{10^{-6}}$ -->
      <defs>
       <path d="M 33.015625 40.375 
Q 26.375 40.375 22.484375 35.828125 
Q 18.609375 31.296875 18.609375 23.390625 
Q 18.609375 15.53125 22.484375 10.953125 
Q 26.375 6.390625 33.015625 6.390625 
Q 39.65625 6.390625 43.53125 10.953125 
Q 47.40625 15.53125 47.40625 23.390625 
Q 47.40625 31.296875 43.53125 35.828125 
Q 39.65625 40.375 33.015625 40.375 
z
M 52.59375 71.296875 
L 52.59375 62.3125 
Q 48.875 64.0625 45.09375 64.984375 
Q 41.3125 65.921875 37.59375 65.921875 
Q 27.828125 65.921875 22.671875 59.328125 
Q 17.53125 52.734375 16.796875 39.40625 
Q 19.671875 43.65625 24.015625 45.921875 
Q 28.375 48.1875 33.59375 48.1875 
Q 44.578125 48.1875 50.953125 41.515625 
Q 57.328125 34.859375 57.328125 23.390625 
Q 57.328125 12.15625 50.6875 5.359375 
Q 44.046875 -1.421875 33.015625 -1.421875 
Q 20.359375 -1.421875 13.671875 8.265625 
Q 6.984375 17.96875 6.984375 36.375 
Q 6.984375 53.65625 15.1875 63.9375 
Q 23.390625 74.21875 37.203125 74.21875 
Q 40.921875 74.21875 44.703125 73.484375 
Q 48.484375 72.75 52.59375 71.296875 
z
" id="DejaVuSans-54"/>
      </defs>
      <g transform="translate(41.5 245.719219)scale(0.1 -0.1)">
       <use transform="translate(0 0.765625)" xlink:href="#DejaVuSans-49"/>
       <use transform="translate(63.623047 0.765625)" xlink:href="#DejaVuSans-48"/>
       <use transform="translate(128.203125 39.046875)scale(0.7)" xlink:href="#DejaVuSans-8722"/>
       <use transform="translate(186.855469 39.046875)scale(0.7)" xlink:href="#DejaVuSans-54"/>
      </g>
     </g>
    </g>
    <g id="ytick_5">
     <g id="line2d_21">
      <path clip-path="url(#p8c320eed43)" d="M 72 194.4 
L 518.4 194.4 
" style="fill:none;stroke:#b0b0b0;stroke-linecap:square;stroke-width:0.8;"/>
     </g>
     <g id="line2d_22">
      <g>
       <use style="stroke:#000000;stroke-width:0.8;" x="72" xlink:href="#m616f78d8e7" y="194.4"/>
      </g>
     </g>
     <g id="text_12">
      <!-- $\mathdefault{10^{-4}}$ -->
      <g transform="translate(41.5 198.199219)scale(0.1 -0.1)">
       <use transform="translate(0 0.684375)" xlink:href="#DejaVuSans-49"/>
       <use transform="translate(63.623047 0.684375)" xlink:href="#DejaVuSans-48"/>
       <use transform="translate(128.203125 38.965625)scale(0.7)" xlink:href="#DejaVuSans-8722"/>
       <use transform="translate(186.855469 38.965625)scale(0.7)" xlink:href="#DejaVuSans-52"/>
      </g>
     </g>
    </g>
    <g id="ytick_6">
     <g id="line2d_23">
      <path clip-path="url(#p8c320eed43)" d="M 72 146.88 
L 518.4 146.88 
" style="fill:none;stroke:#b0b0b0;stroke-linecap:square;stroke-width:0.8;"/>
     </g>
     <g id="line2d_24">
      <g>
       <use style="stroke:#000000;stroke-width:0.8;" x="72" xlink:href="#m616f78d8e7" y="146.88"/>
      </g>
     </g>
     <g id="text_13">
      <!-- $\mathdefault{10^{-2}}$ -->
      <g transform="translate(41.5 150.679219)scale(0.1 -0.1)">
       <use transform="translate(0 0.765625)" xlink:href="#DejaVuSans-49"/>
       <use transform="translate(63.623047 0.765625)" xlink:href="#DejaVuSans-48"/>
       <use transform="translate(128.203125 39.046875)scale(0.7)" xlink:href="#DejaVuSans-8722"/>
       <use transform="translate(186.855469 39.046875)scale(0.7)" xlink:href="#DejaVuSans-50"/>
      </g>
     </g>
    </g>
    <g id="ytick_7">
     <g id="line2d_25">
      <path clip-path="url(#p8c320eed43)" d="M 72 99.36 
L 518.4 99.36 
" style="fill:none;stroke:#b0b0b0;stroke-linecap:square;stroke-width:0.8;"/>
     </g>
     <g id="line2d_26">
      <g>
       <use style="stroke:#000000;stroke-width:0.8;" x="72" xlink:href="#m616f78d8e7" y="99.36"/>
      </g>
     </g>
     <g id="text_14">
      <!-- $\mathdefault{10^{0}}$ -->
      <g transform="translate(47.4 103.159219)scale(0.1 -0.1)">
       <use transform="translate(0 0.765625)" xlink:href="#DejaVuSans-49"/>
       <use transform="translate(63.623047 0.765625)" xlink:href="#DejaVuSans-48"/>
       <use transform="translate(128.203125 39.046875)scale(0.7)" xlink:href="#DejaVuSans-48"/>
      </g>
     </g>
    </g>
    <g id="ytick_8">
     <g id="line2d_27">
      <path clip-path="url(#p8c320eed43)" d="M 72 51.84 
L 518.4 51.84 
" style="fill:none;stroke:#b0b0b0;stroke-linecap:square;stroke-width:0.8;"/>
     </g>
     <g id="line2d_28">
      <g>
       <use style="stroke:#000000;stroke-width:0.8;" x="72" xlink:href="#m616f78d8e7" y="51.84"/>
      </g>
     </g>
     <g id="text_15">
      <!-- $\mathdefault{10^{2}}$ -->
      <g transform="translate(47.4 55.639219)scale(0.1 -0.1)">
       <use transform="translate(0 0.765625)" xlink:href="#DejaVuSans-49"/>
       <use transform="translate(63.623047 0.765625)" xlink:href="#DejaVuSans-48"/>
       <use transform="translate(128.203125 39.046875)scale(0.7)" xlink:href="#DejaVuSans-50"/>
      </g>
     </g>
    </g>
    <g id="text_16">
     <!-- Integrated Variance -->
     <defs>
      <path d="M 45.40625 27.984375 
Q 45.40625 37.75 41.375 43.109375 
Q 37.359375 48.484375 30.078125 48.484375 
Q 22.859375 48.484375 18.828125 43.109375 
Q 14.796875 37.75 14.796875 27.984375 
Q 14.796875 18.265625 18.828125 12.890625 
Q 22.859375 7.515625 30.078125 7.515625 
Q 37.359375 7.515625 41.375 12.890625 
Q 45.40625 18.265625 45.40625 27.984375 
z
M 54.390625 6.78125 
Q 54.390625 -7.171875 48.1875 -13.984375 
Q 42 -20.796875 29.203125 -20.796875 
Q 24.46875 -20.796875 20.265625 -20.09375 
Q 16.0625 -19.390625 12.109375 -17.921875 
L 12.109375 -9.1875 
Q 16.0625 -11.328125 19.921875 -12.34375 
Q 23.78125 -13.375 27.78125 -13.375 
Q 36.625 -13.375 41.015625 -8.765625 
Q 45.40625 -4.15625 45.40625 5.171875 
L 45.40625 9.625 
Q 42.625 4.78125 38.28125 2.390625 
Q 33.9375 0 27.875 0 
Q 17.828125 0 11.671875 7.65625 
Q 5.515625 15.328125 5.515625 27.984375 
Q 5.515625 40.671875 11.671875 48.328125 
Q 17.828125 56 27.875 56 
Q 33.9375 56 38.28125 53.609375 
Q 42.625 51.21875 45.40625 46.390625 
L 45.40625 54.6875 
L 54.390625 54.6875 
z
" id="DejaVuSans-103"/>
      <path d="M 45.40625 46.390625 
L 45.40625 75.984375 
L 54.390625 75.984375 
L 54.390625 0 
L 45.40625 0 
L 45.40625 8.203125 
Q 42.578125 3.328125 38.25 0.953125 
Q 33.9375 -1.421875 27.875 -1.421875 
Q 17.96875 -1.421875 11.734375 6.484375 
Q 5.515625 14.40625 5.515625 27.296875 
Q 5.515625 40.1875 11.734375 48.09375 
Q 17.96875 56 27.875 56 
Q 33.9375 56 38.25 53.625 
Q 42.578125 51.265625 45.40625 46.390625 
z
M 14.796875 27.296875 
Q 14.796875 17.390625 18.875 11.75 
Q 22.953125 6.109375 30.078125 6.109375 
Q 37.203125 6.109375 41.296875 11.75 
Q 45.40625 17.390625 45.40625 27.296875 
Q 45.40625 37.203125 41.296875 42.84375 
Q 37.203125 48.484375 30.078125 48.484375 
Q 22.953125 48.484375 18.875 42.84375 
Q 14.796875 37.203125 14.796875 27.296875 
z
" id="DejaVuSans-100"/>
      <path id="DejaVuSans-32"/>
      <path d="M 28.609375 0 
L 0.78125 72.90625 
L 11.078125 72.90625 
L 34.1875 11.53125 
L 57.328125 72.90625 
L 67.578125 72.90625 
L 39.796875 0 
z
" id="DejaVuSans-86"/>
      <path d="M 48.78125 52.59375 
L 48.78125 44.1875 
Q 44.96875 46.296875 41.140625 47.34375 
Q 37.3125 48.390625 33.40625 48.390625 
Q 24.65625 48.390625 19.8125 42.84375 
Q 14.984375 37.3125 14.984375 27.296875 
Q 14.984375 17.28125 19.8125 11.734375 
Q 24.65625 6.203125 33.40625 6.203125 
Q 37.3125 6.203125 41.140625 7.25 
Q 44.96875 8.296875 48.78125 10.40625 
L 48.78125 2.09375 
Q 45.015625 0.34375 40.984375 -0.53125 
Q 36.96875 -1.421875 32.421875 -1.421875 
Q 20.0625 -1.421875 12.78125 6.34375 
Q 5.515625 14.109375 5.515625 27.296875 
Q 5.515625 40.671875 12.859375 48.328125 
Q 20.21875 56 33.015625 56 
Q 37.15625 56 41.109375 55.140625 
Q 45.0625 54.296875 48.78125 52.59375 
z
" id="DejaVuSans-99"/>
     </defs>
     <g transform="translate(31.020312 267.534219)rotate(-90)scale(0.1 -0.1)">
      <use xlink:href="#DejaVuSans-73"/>
      <use x="29.492188" xlink:href="#DejaVuSans-110"/>
      <use x="92.871094" xlink:href="#DejaVuSans-116"/>
      <use x="132.080078" xlink:href="#DejaVuSans-101"/>
      <use x="193.603516" xlink:href="#DejaVuSans-103"/>
      <use x="257.080078" xlink:href="#DejaVuSans-114"/>
      <use x="298.193359" xlink:href="#DejaVuSans-97"/>
      <use x="359.472656" xlink:href="#DejaVuSans-116"/>
      <use x="398.681641" xlink:href="#DejaVuSans-101"/>
      <use x="460.205078" xlink:href="#DejaVuSans-100"/>
      <use x="523.681641" xlink:href="#DejaVuSans-32"/>
      <use x="555.46875" xlink:href="#DejaVuSans-86"/>
      <use x="616.126953" xlink:href="#DejaVuSans-97"/>
      <use x="677.40625" xlink:href="#DejaVuSans-114"/>
      <use x="718.519531" xlink:href="#DejaVuSans-105"/>
      <use x="746.302734" xlink:href="#DejaVuSans-97"/>
      <use x="807.582031" xlink:href="#DejaVuSans-110"/>
      <use x="870.960938" xlink:href="#DejaVuSans-99"/>
      <use x="925.941406" xlink:href="#DejaVuSans-101"/>
     </g>
    </g>
   </g>
   <g id="line2d_29">
    <path clip-path="url(#p8c320eed43)" d="M 125.514904 433 
L 125.568 292.846524 
L 125.621096 433 
" style="fill:none;stroke:#1f77b4;stroke-linecap:square;stroke-width:1.5;"/>
   </g>
   <g id="line2d_30">
    <path clip-path="url(#p8c320eed43)" d="M 72 225.237642 
L 72.078484 433 
M 98.701714 433 
L 98.784 215.07843 
L 107.712 206.58366 
L 116.64 218.561642 
L 125.568 210.369445 
L 134.496 216.133859 
L 143.424 217.223013 
L 152.352 228.688586 
L 161.28 223.17162 
L 170.208 232.67963 
L 179.136 226.611846 
L 188.064 228.974156 
L 196.992 222.452132 
L 205.92 238.122212 
L 214.848 238.427974 
L 223.776 249.575195 
L 232.704 257.133379 
L 241.632 272.567701 
L 250.56 276.820266 
L 259.488 283.469939 
L 268.416 272.320359 
L 277.344 257.556027 
L 286.272 252.65255 
L 295.2 248.432635 
L 295.26979 433 
M 312.984079 433 
L 313.056 242.752422 
L 321.984 239.209668 
L 322.057249 433 
M 348.696382 433 
L 348.768 243.559936 
L 357.696 234.012057 
L 366.624 232.301612 
L 366.699838 433 
M 393.331116 433 
L 393.408 229.510638 
L 402.336 230.206199 
L 411.264 227.697766 
L 420.192 227.951882 
L 420.269468 433 
M 437.972578 433 
L 438.048 233.411582 
L 446.976 229.343207 
L 455.904 228.143293 
L 464.832 227.790081 
L 473.76 222.902764 
L 473.839358 433 
M 500.463733 433 
L 500.544 220.475141 
L 509.472 229.345824 
L 518.4 227.191703 
" style="fill:none;stroke:#ff7f0e;stroke-linecap:square;stroke-width:1.5;"/>
   </g>
   <g id="line2d_31">
    <path clip-path="url(#p8c320eed43)" d="M 72 182.435739 
L 80.928 187.080579 
L 89.856 178.78373 
L 98.784 170.594541 
L 107.712 160.36582 
L 116.64 160.525599 
L 125.568 161.696626 
L 134.496 163.524815 
L 143.424 165.256152 
L 152.352 166.958557 
L 161.28 168.672282 
L 170.208 170.195491 
L 179.136 171.367335 
L 188.064 172.549759 
L 196.992 173.655071 
L 205.92 174.520953 
L 214.848 175.408496 
L 223.776 176.188036 
L 232.704 176.928421 
L 241.632 177.692479 
L 250.56 178.437797 
L 259.488 179.226792 
L 268.416 179.996602 
L 277.344 180.759688 
L 286.272 181.500943 
L 295.2 182.221699 
L 304.128 182.895999 
L 313.056 183.558166 
L 321.984 184.231907 
L 330.912 184.912756 
L 339.84 185.551723 
L 348.768 186.130084 
L 357.696 186.666474 
L 366.624 187.203514 
L 375.552 187.690793 
L 384.48 188.165331 
L 393.408 188.636999 
L 402.336 189.104447 
L 411.264 189.54187 
L 420.192 189.972256 
L 429.12 190.408175 
L 438.048 190.832533 
L 446.976 191.256789 
L 455.904 191.678561 
L 464.832 192.101759 
L 473.76 192.524939 
L 482.688 192.949763 
L 491.616 193.370373 
L 500.544 193.794236 
L 509.472 194.218008 
L 518.4 194.627173 
" style="fill:none;stroke:#2ca02c;stroke-linecap:square;stroke-width:1.5;"/>
   </g>
   <g id="line2d_32">
    <path clip-path="url(#p8c320eed43)" d="M 72 217.921348 
L 72.081223 433 
M 89.762704 433 
L 89.856 185.614808 
L 89.949296 433 
M 107.614926 433 
L 107.712 175.484608 
L 116.64 178.381546 
L 125.568 180.171545 
L 134.496 183.344849 
L 143.424 184.545739 
L 152.352 185.978459 
L 161.28 188.906692 
L 170.208 191.333233 
L 179.136 193.126758 
L 188.064 195.518966 
L 196.992 197.206196 
L 205.92 198.525359 
L 214.848 199.780134 
L 223.776 201.418948 
L 232.704 202.553769 
L 241.632 204.298925 
L 250.56 206.119924 
L 259.488 207.941939 
L 268.416 209.588674 
L 277.344 211.197411 
L 286.272 212.82684 
L 295.2 214.216483 
L 304.128 215.659848 
L 313.056 217.548645 
L 321.984 218.411474 
L 330.912 220.587167 
L 339.84 221.873239 
L 348.768 223.447535 
L 348.847154 433 
M 366.545369 433 
L 366.624 224.844052 
L 375.552 226.431838 
L 384.48 227.328331 
L 384.557701 433 
M 402.259019 433 
L 402.336 229.251716 
L 411.264 231.095119 
L 420.192 231.007005 
L 429.12 232.675069 
L 438.048 232.719004 
L 446.976 232.513028 
L 455.904 235.157576 
L 464.832 233.950753 
L 473.76 237.202794 
L 482.688 236.728128 
L 482.76218 433 
M 500.470136 433 
L 500.544 237.569484 
L 509.472 237.879119 
L 518.4 237.89898 
" style="fill:none;stroke:#d62728;stroke-linecap:square;stroke-width:1.5;"/>
   </g>
   <g id="line2d_33">
    <path clip-path="url(#p8c320eed43)" d="M 80.844557 433 
L 80.928 211.985367 
L 89.856 199.903179 
L 98.784 185.796144 
L 107.712 184.612052 
L 116.64 186.842167 
L 125.568 192.413846 
L 134.496 194.845539 
L 143.424 194.398006 
L 152.352 197.809952 
L 161.28 200.417163 
L 170.208 201.910516 
L 179.136 202.491517 
L 188.064 205.075172 
L 196.992 206.166384 
L 205.92 207.811933 
L 214.848 210.242833 
L 223.776 213.472222 
L 232.704 216.212395 
L 241.632 219.379181 
L 250.56 222.04631 
L 259.488 225.153013 
L 268.416 227.797157 
L 277.344 229.893019 
L 286.272 232.009732 
L 295.2 234.380415 
L 304.128 236.968587 
L 313.056 238.7776 
L 321.984 241.141721 
L 330.912 243.306151 
L 339.84 244.708549 
L 348.768 246.382726 
L 357.696 248.320243 
L 366.624 250.94597 
L 375.552 251.656713 
L 384.48 253.399429 
L 393.408 255.844952 
L 402.336 256.254631 
L 411.264 258.338736 
L 420.192 261.520671 
L 429.12 262.648414 
L 438.048 263.383214 
L 446.976 266.885737 
L 447.038862 433 
M 464.769552 433 
L 464.832 267.986201 
L 473.76 269.149416 
L 473.822011 433 
" style="fill:none;stroke:#9467bd;stroke-linecap:square;stroke-width:1.5;"/>
   </g>
   <g id="line2d_34">
    <path clip-path="url(#p8c320eed43)" d="M 72 197.353087 
L 80.928 195.370744 
L 89.856 179.873196 
L 98.784 164.985203 
L 107.712 162.08883 
L 116.64 160.988281 
L 125.568 171.205018 
L 134.496 182.326675 
L 143.424 188.335919 
L 152.352 190.259012 
L 161.28 191.766191 
L 170.208 192.700728 
L 179.136 191.989361 
L 188.064 192.788242 
L 196.992 196.455394 
L 205.92 200.791153 
L 214.848 205.79762 
L 223.776 211.21421 
L 232.704 216.707633 
L 241.632 223.042579 
L 250.56 229.938124 
L 259.488 237.404385 
L 268.416 245.344675 
L 277.344 253.569904 
L 286.272 261.821008 
L 295.2 275.261433 
L 295.259714 433 
" style="fill:none;stroke:#8c564b;stroke-linecap:square;stroke-width:1.5;"/>
   </g>
   <g id="line2d_35">
    <path clip-path="url(#p8c320eed43)" d="M 72 191.900644 
L 80.928 189.172947 
L 89.856 194.456054 
L 98.784 187.434861 
L 98.876616 433 
M 116.545602 433 
L 116.64 182.659014 
L 125.568 192.838735 
L 134.496 183.726571 
L 134.59 433 
M 152.25874 433 
L 152.352 185.710942 
L 161.28 191.650047 
L 170.208 182.758107 
L 170.302361 433 
M 187.970066 433 
L 188.064 183.90275 
L 196.992 203.001943 
L 205.92 200.907538 
L 206.007585 433 
M 223.686385 433 
L 223.776 195.472146 
L 223.865615 433 
M 250.463519 433 
L 250.56 177.074771 
L 250.656481 433 
M 268.324209 433 
L 268.416 189.645389 
L 277.344 202.419671 
L 286.272 201.256597 
L 286.359454 433 
M 304.041544 433 
L 304.128 203.928073 
L 313.056 191.462514 
L 321.984 181.159825 
L 322.078958 433 
M 455.811532 433 
L 455.904 187.832291 
L 455.996468 433 
" style="fill:none;stroke:#e377c2;stroke-linecap:square;stroke-width:1.5;"/>
   </g>
   <g id="patch_3">
    <path d="M 72 384.48 
L 72 51.84 
" style="fill:none;stroke:#000000;stroke-linecap:square;stroke-linejoin:miter;stroke-width:0.8;"/>
   </g>
   <g id="patch_4">
    <path d="M 518.4 384.48 
L 518.4 51.84 
" style="fill:none;stroke:#000000;stroke-linecap:square;stroke-linejoin:miter;stroke-width:0.8;"/>
   </g>
   <g id="patch_5">
    <path d="M 72 384.48 
L 518.4 384.48 
" style="fill:none;stroke:#000000;stroke-linecap:square;stroke-linejoin:miter;stroke-width:0.8;"/>
   </g>
   <g id="patch_6">
    <path d="M 72 51.84 
L 518.4 51.84 
" style="fill:none;stroke:#000000;stroke-linecap:square;stroke-linejoin:miter;stroke-width:0.8;"/>
   </g>
   <g id="legend_1">
    <g id="patch_7">
     <path d="M 424.595312 162.586875 
L 511.4 162.586875 
Q 513.4 162.586875 513.4 160.586875 
L 513.4 58.84 
Q 513.4 56.84 511.4 56.84 
L 424.595312 56.84 
Q 422.595312 56.84 422.595312 58.84 
L 422.595312 160.586875 
Q 422.595312 162.586875 424.595312 162.586875 
z
" style="fill:#ffffff;opacity:0.8;stroke:#cccccc;stroke-linejoin:miter;"/>
    </g>
    <g id="line2d_36">
     <path d="M 426.595312 64.938437 
L 446.595312 64.938437 
" style="fill:none;stroke:#1f77b4;stroke-linecap:square;stroke-width:1.5;"/>
    </g>
    <g id="line2d_37"/>
    <g id="text_17">
     <!-- Constant -->
     <defs>
      <path d="M 64.40625 67.28125 
L 64.40625 56.890625 
Q 59.421875 61.53125 53.78125 63.8125 
Q 48.140625 66.109375 41.796875 66.109375 
Q 29.296875 66.109375 22.65625 58.46875 
Q 16.015625 50.828125 16.015625 36.375 
Q 16.015625 21.96875 22.65625 14.328125 
Q 29.296875 6.6875 41.796875 6.6875 
Q 48.140625 6.6875 53.78125 8.984375 
Q 59.421875 11.28125 64.40625 15.921875 
L 64.40625 5.609375 
Q 59.234375 2.09375 53.4375 0.328125 
Q 47.65625 -1.421875 41.21875 -1.421875 
Q 24.65625 -1.421875 15.125 8.703125 
Q 5.609375 18.84375 5.609375 36.375 
Q 5.609375 53.953125 15.125 64.078125 
Q 24.65625 74.21875 41.21875 74.21875 
Q 47.75 74.21875 53.53125 72.484375 
Q 59.328125 70.75 64.40625 67.28125 
z
" id="DejaVuSans-67"/>
      <path d="M 44.28125 53.078125 
L 44.28125 44.578125 
Q 40.484375 46.53125 36.375 47.5 
Q 32.28125 48.484375 27.875 48.484375 
Q 21.1875 48.484375 17.84375 46.4375 
Q 14.5 44.390625 14.5 40.28125 
Q 14.5 37.15625 16.890625 35.375 
Q 19.28125 33.59375 26.515625 31.984375 
L 29.59375 31.296875 
Q 39.15625 29.25 43.1875 25.515625 
Q 47.21875 21.78125 47.21875 15.09375 
Q 47.21875 7.46875 41.1875 3.015625 
Q 35.15625 -1.421875 24.609375 -1.421875 
Q 20.21875 -1.421875 15.453125 -0.5625 
Q 10.6875 0.296875 5.421875 2 
L 5.421875 11.28125 
Q 10.40625 8.6875 15.234375 7.390625 
Q 20.0625 6.109375 24.8125 6.109375 
Q 31.15625 6.109375 34.5625 8.28125 
Q 37.984375 10.453125 37.984375 14.40625 
Q 37.984375 18.0625 35.515625 20.015625 
Q 33.0625 21.96875 24.703125 23.78125 
L 21.578125 24.515625 
Q 13.234375 26.265625 9.515625 29.90625 
Q 5.8125 33.546875 5.8125 39.890625 
Q 5.8125 47.609375 11.28125 51.796875 
Q 16.75 56 26.8125 56 
Q 31.78125 56 36.171875 55.265625 
Q 40.578125 54.546875 44.28125 53.078125 
z
" id="DejaVuSans-115"/>
     </defs>
     <g transform="translate(454.595312 68.438437)scale(0.1 -0.1)">
      <use xlink:href="#DejaVuSans-67"/>
      <use x="69.824219" xlink:href="#DejaVuSans-111"/>
      <use x="131.005859" xlink:href="#DejaVuSans-110"/>
      <use x="194.384766" xlink:href="#DejaVuSans-115"/>
      <use x="246.484375" xlink:href="#DejaVuSans-116"/>
      <use x="285.693359" xlink:href="#DejaVuSans-97"/>
      <use x="346.972656" xlink:href="#DejaVuSans-110"/>
      <use x="410.351562" xlink:href="#DejaVuSans-116"/>
     </g>
    </g>
    <g id="line2d_38">
     <path d="M 426.595312 79.616562 
L 446.595312 79.616562 
" style="fill:none;stroke:#ff7f0e;stroke-linecap:square;stroke-width:1.5;"/>
    </g>
    <g id="line2d_39"/>
    <g id="text_18">
     <!-- RBF -->
     <defs>
      <path d="M 44.390625 34.1875 
Q 47.5625 33.109375 50.5625 29.59375 
Q 53.5625 26.078125 56.59375 19.921875 
L 66.609375 0 
L 56 0 
L 46.6875 18.703125 
Q 43.0625 26.03125 39.671875 28.421875 
Q 36.28125 30.8125 30.421875 30.8125 
L 19.671875 30.8125 
L 19.671875 0 
L 9.8125 0 
L 9.8125 72.90625 
L 32.078125 72.90625 
Q 44.578125 72.90625 50.734375 67.671875 
Q 56.890625 62.453125 56.890625 51.90625 
Q 56.890625 45.015625 53.6875 40.46875 
Q 50.484375 35.9375 44.390625 34.1875 
z
M 19.671875 64.796875 
L 19.671875 38.921875 
L 32.078125 38.921875 
Q 39.203125 38.921875 42.84375 42.21875 
Q 46.484375 45.515625 46.484375 51.90625 
Q 46.484375 58.296875 42.84375 61.546875 
Q 39.203125 64.796875 32.078125 64.796875 
z
" id="DejaVuSans-82"/>
      <path d="M 19.671875 34.8125 
L 19.671875 8.109375 
L 35.5 8.109375 
Q 43.453125 8.109375 47.28125 11.40625 
Q 51.125 14.703125 51.125 21.484375 
Q 51.125 28.328125 47.28125 31.5625 
Q 43.453125 34.8125 35.5 34.8125 
z
M 19.671875 64.796875 
L 19.671875 42.828125 
L 34.28125 42.828125 
Q 41.5 42.828125 45.03125 45.53125 
Q 48.578125 48.25 48.578125 53.8125 
Q 48.578125 59.328125 45.03125 62.0625 
Q 41.5 64.796875 34.28125 64.796875 
z
M 9.8125 72.90625 
L 35.015625 72.90625 
Q 46.296875 72.90625 52.390625 68.21875 
Q 58.5 63.53125 58.5 54.890625 
Q 58.5 48.1875 55.375 44.234375 
Q 52.25 40.28125 46.1875 39.3125 
Q 53.46875 37.75 57.5 32.78125 
Q 61.53125 27.828125 61.53125 20.40625 
Q 61.53125 10.640625 54.890625 5.3125 
Q 48.25 0 35.984375 0 
L 9.8125 0 
z
" id="DejaVuSans-66"/>
      <path d="M 9.8125 72.90625 
L 51.703125 72.90625 
L 51.703125 64.59375 
L 19.671875 64.59375 
L 19.671875 43.109375 
L 48.578125 43.109375 
L 48.578125 34.8125 
L 19.671875 34.8125 
L 19.671875 0 
L 9.8125 0 
z
" id="DejaVuSans-70"/>
     </defs>
     <g transform="translate(454.595312 83.116562)scale(0.1 -0.1)">
      <use xlink:href="#DejaVuSans-82"/>
      <use x="69.482422" xlink:href="#DejaVuSans-66"/>
      <use x="138.085938" xlink:href="#DejaVuSans-70"/>
     </g>
    </g>
    <g id="line2d_40">
     <path d="M 426.595312 94.294687 
L 446.595312 94.294687 
" style="fill:none;stroke:#2ca02c;stroke-linecap:square;stroke-width:1.5;"/>
    </g>
    <g id="line2d_41"/>
    <g id="text_19">
     <!-- Matrn-1/2 -->
     <defs>
      <path d="M 9.8125 72.90625 
L 24.515625 72.90625 
L 43.109375 23.296875 
L 61.8125 72.90625 
L 76.515625 72.90625 
L 76.515625 0 
L 66.890625 0 
L 66.890625 64.015625 
L 48.09375 14.015625 
L 38.1875 14.015625 
L 19.390625 64.015625 
L 19.390625 0 
L 9.8125 0 
z
" id="DejaVuSans-77"/>
      <path d="M 56.203125 29.59375 
L 56.203125 25.203125 
L 14.890625 25.203125 
Q 15.484375 15.921875 20.484375 11.0625 
Q 25.484375 6.203125 34.421875 6.203125 
Q 39.59375 6.203125 44.453125 7.46875 
Q 49.3125 8.734375 54.109375 11.28125 
L 54.109375 2.78125 
Q 49.265625 0.734375 44.1875 -0.34375 
Q 39.109375 -1.421875 33.890625 -1.421875 
Q 20.796875 -1.421875 13.15625 6.1875 
Q 5.515625 13.8125 5.515625 26.8125 
Q 5.515625 40.234375 12.765625 48.109375 
Q 20.015625 56 32.328125 56 
Q 43.359375 56 49.78125 48.890625 
Q 56.203125 41.796875 56.203125 29.59375 
z
M 47.21875 32.234375 
Q 47.125 39.59375 43.09375 43.984375 
Q 39.0625 48.390625 32.421875 48.390625 
Q 24.90625 48.390625 20.390625 44.140625 
Q 15.875 39.890625 15.1875 32.171875 
z
M 38.53125 79.984375 
L 48.25 79.984375 
L 32.34375 61.625 
L 24.859375 61.625 
z
" id="DejaVuSans-233"/>
      <path d="M 4.890625 31.390625 
L 31.203125 31.390625 
L 31.203125 23.390625 
L 4.890625 23.390625 
z
" id="DejaVuSans-45"/>
      <path d="M 25.390625 72.90625 
L 33.6875 72.90625 
L 8.296875 -9.28125 
L 0 -9.28125 
z
" id="DejaVuSans-47"/>
     </defs>
     <g transform="translate(454.595312 97.794687)scale(0.1 -0.1)">
      <use xlink:href="#DejaVuSans-77"/>
      <use x="86.279297" xlink:href="#DejaVuSans-97"/>
      <use x="147.558594" xlink:href="#DejaVuSans-116"/>
      <use x="186.767578" xlink:href="#DejaVuSans-233"/>
      <use x="248.291016" xlink:href="#DejaVuSans-114"/>
      <use x="287.654297" xlink:href="#DejaVuSans-110"/>
      <use x="351.033203" xlink:href="#DejaVuSans-45"/>
      <use x="387.117188" xlink:href="#DejaVuSans-49"/>
      <use x="450.740234" xlink:href="#DejaVuSans-47"/>
      <use x="484.431641" xlink:href="#DejaVuSans-50"/>
     </g>
    </g>
    <g id="line2d_42">
     <path d="M 426.595312 108.972812 
L 446.595312 108.972812 
" style="fill:none;stroke:#d62728;stroke-linecap:square;stroke-width:1.5;"/>
    </g>
    <g id="line2d_43"/>
    <g id="text_20">
     <!-- Matrn-3/2 -->
     <g transform="translate(454.595312 112.472812)scale(0.1 -0.1)">
      <use xlink:href="#DejaVuSans-77"/>
      <use x="86.279297" xlink:href="#DejaVuSans-97"/>
      <use x="147.558594" xlink:href="#DejaVuSans-116"/>
      <use x="186.767578" xlink:href="#DejaVuSans-233"/>
      <use x="248.291016" xlink:href="#DejaVuSans-114"/>
      <use x="287.654297" xlink:href="#DejaVuSans-110"/>
      <use x="351.033203" xlink:href="#DejaVuSans-45"/>
      <use x="387.117188" xlink:href="#DejaVuSans-51"/>
      <use x="450.740234" xlink:href="#DejaVuSans-47"/>
      <use x="484.431641" xlink:href="#DejaVuSans-50"/>
     </g>
    </g>
    <g id="line2d_44">
     <path d="M 426.595312 123.650937 
L 446.595312 123.650937 
" style="fill:none;stroke:#9467bd;stroke-linecap:square;stroke-width:1.5;"/>
    </g>
    <g id="line2d_45"/>
    <g id="text_21">
     <!-- Matrn-5/2 -->
     <g transform="translate(454.595312 127.150937)scale(0.1 -0.1)">
      <use xlink:href="#DejaVuSans-77"/>
      <use x="86.279297" xlink:href="#DejaVuSans-97"/>
      <use x="147.558594" xlink:href="#DejaVuSans-116"/>
      <use x="186.767578" xlink:href="#DejaVuSans-233"/>
      <use x="248.291016" xlink:href="#DejaVuSans-114"/>
      <use x="287.654297" xlink:href="#DejaVuSans-110"/>
      <use x="351.033203" xlink:href="#DejaVuSans-45"/>
      <use x="387.117188" xlink:href="#DejaVuSans-53"/>
      <use x="450.740234" xlink:href="#DejaVuSans-47"/>
      <use x="484.431641" xlink:href="#DejaVuSans-50"/>
     </g>
    </g>
    <g id="line2d_46">
     <path d="M 426.595312 138.329062 
L 446.595312 138.329062 
" style="fill:none;stroke:#8c564b;stroke-linecap:square;stroke-width:1.5;"/>
    </g>
    <g id="line2d_47"/>
    <g id="text_22">
     <!-- RQ -->
     <defs>
      <path d="M 39.40625 66.21875 
Q 28.65625 66.21875 22.328125 58.203125 
Q 16.015625 50.203125 16.015625 36.375 
Q 16.015625 22.609375 22.328125 14.59375 
Q 28.65625 6.59375 39.40625 6.59375 
Q 50.140625 6.59375 56.421875 14.59375 
Q 62.703125 22.609375 62.703125 36.375 
Q 62.703125 50.203125 56.421875 58.203125 
Q 50.140625 66.21875 39.40625 66.21875 
z
M 53.21875 1.3125 
L 66.21875 -12.890625 
L 54.296875 -12.890625 
L 43.5 -1.21875 
Q 41.890625 -1.3125 41.03125 -1.359375 
Q 40.1875 -1.421875 39.40625 -1.421875 
Q 24.03125 -1.421875 14.8125 8.859375 
Q 5.609375 19.140625 5.609375 36.375 
Q 5.609375 53.65625 14.8125 63.9375 
Q 24.03125 74.21875 39.40625 74.21875 
Q 54.734375 74.21875 63.90625 63.9375 
Q 73.09375 53.65625 73.09375 36.375 
Q 73.09375 23.6875 67.984375 14.640625 
Q 62.890625 5.609375 53.21875 1.3125 
z
" id="DejaVuSans-81"/>
     </defs>
     <g transform="translate(454.595312 141.829062)scale(0.1 -0.1)">
      <use xlink:href="#DejaVuSans-82"/>
      <use x="69.482422" xlink:href="#DejaVuSans-81"/>
     </g>
    </g>
    <g id="line2d_48">
     <path d="M 426.595312 153.007187 
L 446.595312 153.007187 
" style="fill:none;stroke:#e377c2;stroke-linecap:square;stroke-width:1.5;"/>
    </g>
    <g id="line2d_49"/>
    <g id="text_23">
     <!-- Dot Prod. -->
     <defs>
      <path d="M 19.671875 64.796875 
L 19.671875 8.109375 
L 31.59375 8.109375 
Q 46.6875 8.109375 53.6875 14.9375 
Q 60.6875 21.78125 60.6875 36.53125 
Q 60.6875 51.171875 53.6875 57.984375 
Q 46.6875 64.796875 31.59375 64.796875 
z
M 9.8125 72.90625 
L 30.078125 72.90625 
Q 51.265625 72.90625 61.171875 64.09375 
Q 71.09375 55.28125 71.09375 36.53125 
Q 71.09375 17.671875 61.125 8.828125 
Q 51.171875 0 30.078125 0 
L 9.8125 0 
z
" id="DejaVuSans-68"/>
      <path d="M 19.671875 64.796875 
L 19.671875 37.40625 
L 32.078125 37.40625 
Q 38.96875 37.40625 42.71875 40.96875 
Q 46.484375 44.53125 46.484375 51.125 
Q 46.484375 57.671875 42.71875 61.234375 
Q 38.96875 64.796875 32.078125 64.796875 
z
M 9.8125 72.90625 
L 32.078125 72.90625 
Q 44.34375 72.90625 50.609375 67.359375 
Q 56.890625 61.8125 56.890625 51.125 
Q 56.890625 40.328125 50.609375 34.8125 
Q 44.34375 29.296875 32.078125 29.296875 
L 19.671875 29.296875 
L 19.671875 0 
L 9.8125 0 
z
" id="DejaVuSans-80"/>
      <path d="M 10.6875 12.40625 
L 21 12.40625 
L 21 0 
L 10.6875 0 
z
" id="DejaVuSans-46"/>
     </defs>
     <g transform="translate(454.595312 156.507187)scale(0.1 -0.1)">
      <use xlink:href="#DejaVuSans-68"/>
      <use x="77.001953" xlink:href="#DejaVuSans-111"/>
      <use x="138.183594" xlink:href="#DejaVuSans-116"/>
      <use x="177.392578" xlink:href="#DejaVuSans-32"/>
      <use x="209.179688" xlink:href="#DejaVuSans-80"/>
      <use x="267.732422" xlink:href="#DejaVuSans-114"/>
      <use x="306.595703" xlink:href="#DejaVuSans-111"/>
      <use x="367.777344" xlink:href="#DejaVuSans-100"/>
      <use x="431.253906" xlink:href="#DejaVuSans-46"/>
     </g>
    </g>
   </g>
  </g>
 </g>
 <defs>
  <clipPath id="p8c320eed43">
   <rect height="332.64" width="446.4" x="72" y="51.84"/>
  </clipPath>
 </defs>
</svg>
