<?xml version="1.0" encoding="utf-8" standalone="no"?>
<!DOCTYPE svg PUBLIC "-//W3C//DTD SVG 1.1//EN"
  "http://www.w3.org/Graphics/SVG/1.1/DTD/svg11.dtd">
<!-- Created with matplotlib (https://matplotlib.org/) -->
<svg height="432pt" version="1.1" viewBox="0 0 576 432" width="576pt" xmlns="http://www.w3.org/2000/svg" xmlns:xlink="http://www.w3.org/1999/xlink">
 <defs>
  <style type="text/css">
*{stroke-linecap:butt;stroke-linejoin:round;}
  </style>
 </defs>
 <g id="figure_1">
  <g id="patch_1">
   <path d="M 0 432 
L 576 432 
L 576 0 
L 0 0 
z
" style="fill:#ffffff;"/>
  </g>
  <g id="axes_1">
   <g id="patch_2">
    <path d="M 72 384.48 
L 518.4 384.48 
L 518.4 51.84 
L 72 51.84 
z
" style="fill:#ffffff;"/>
   </g>
   <g id="PolyCollection_1">
    <path clip-path="url(#p44660ed988)" d="M 72 151.156067 
L 72 149.545702 
L 80.928 149.910295 
L 89.856 150.18313 
L 98.784 150.230115 
L 107.712 150.372254 
L 116.64 150.467375 
L 125.568 150.56406 
L 134.496 150.604916 
L 143.424 150.642779 
L 152.352 150.583521 
L 161.28 150.64236 
L 170.208 150.64122 
L 179.136 150.564913 
L 188.064 150.667063 
L 196.992 150.674726 
L 205.92 150.694117 
L 214.848 150.700401 
L 223.776 150.705076 
L 232.704 150.71039 
L 241.632 150.71489 
L 250.56 150.718223 
L 259.488 150.719753 
L 268.416 150.72277 
L 277.344 150.726004 
L 286.272 150.724664 
L 295.2 150.727184 
L 304.128 150.728559 
L 313.056 150.728985 
L 321.984 150.727764 
L 330.912 150.532506 
L 339.84 150.711194 
L 348.768 150.730415 
L 357.696 150.534375 
L 366.624 150.704872 
L 375.552 150.666116 
L 384.48 150.531216 
L 393.408 150.605478 
L 402.336 150.671424 
L 411.264 150.505195 
L 420.192 150.643036 
L 429.12 150.707823 
L 438.048 150.636981 
L 446.976 150.719656 
L 455.904 150.508145 
L 464.832 150.589584 
L 473.76 150.68676 
L 482.688 150.687271 
L 491.616 150.368862 
L 500.544 150.593398 
L 509.472 150.630248 
L 518.4 150.578626 
L 518.4 150.850849 
L 518.4 150.850849 
L 509.472 150.803844 
L 500.544 150.843557 
L 491.616 151.017246 
L 482.688 150.777251 
L 473.76 150.785252 
L 464.832 150.844575 
L 455.904 150.904034 
L 446.976 150.76159 
L 438.048 150.814786 
L 429.12 150.773018 
L 420.192 150.801852 
L 411.264 150.90061 
L 402.336 150.794177 
L 393.408 150.849785 
L 384.48 150.904578 
L 375.552 150.806345 
L 366.624 150.769223 
L 357.696 150.879613 
L 348.768 150.757944 
L 339.84 150.764951 
L 330.912 150.885596 
L 321.984 150.760017 
L 313.056 150.759052 
L 304.128 150.760932 
L 295.2 150.762853 
L 286.272 150.765009 
L 277.344 150.764987 
L 268.416 150.765134 
L 259.488 150.766025 
L 250.56 150.767646 
L 241.632 150.768824 
L 232.704 150.770852 
L 223.776 150.772944 
L 214.848 150.774594 
L 205.92 150.777001 
L 196.992 150.786382 
L 188.064 150.785859 
L 179.136 150.853508 
L 170.208 150.803963 
L 161.28 150.791875 
L 152.352 150.845759 
L 143.424 150.797632 
L 134.496 150.811681 
L 125.568 150.818483 
L 116.64 150.854025 
L 107.712 150.888609 
L 98.784 150.963835 
L 89.856 150.948416 
L 80.928 151.036227 
L 72 151.156067 
z
" style="fill:#1f77b4;fill-opacity:0.3;"/>
   </g>
   <g id="PolyCollection_2">
    <path clip-path="url(#p44660ed988)" d="M 72 154.870154 
L 72 141.512239 
L 80.928 137.858593 
L 89.856 140.102056 
L 98.784 147.869475 
L 107.712 152.435221 
L 116.64 154.831047 
L 125.568 158.364918 
L 134.496 159.714068 
L 143.424 163.73508 
L 152.352 165.347619 
L 161.28 171.360621 
L 170.208 172.351038 
L 179.136 176.054779 
L 188.064 180.80023 
L 196.992 196.17855 
L 205.92 200.254706 
L 214.848 210.397577 
L 223.776 219.737374 
L 232.704 235.577734 
L 241.632 239.083359 
L 250.56 251.393803 
L 259.488 257.243361 
L 268.416 260.886674 
L 277.344 265.178685 
L 286.272 266.607669 
L 295.2 269.127216 
L 304.128 271.581115 
L 313.056 272.764286 
L 321.984 275.011113 
L 330.912 275.728987 
L 339.84 279.298913 
L 348.768 279.359557 
L 357.696 279.884238 
L 366.624 280.551357 
L 375.552 280.82731 
L 384.48 281.317229 
L 393.408 281.411708 
L 402.336 281.761989 
L 411.264 282.111934 
L 420.192 282.219534 
L 429.12 283.028597 
L 438.048 284.186694 
L 446.976 285.743995 
L 455.904 286.4066 
L 464.832 287.29253 
L 473.76 287.485528 
L 482.688 287.612382 
L 491.616 287.908976 
L 500.544 288.361972 
L 509.472 288.570171 
L 518.4 289.217778 
L 518.4 323.126122 
L 518.4 323.126122 
L 509.472 322.669389 
L 500.544 321.988325 
L 491.616 321.907769 
L 482.688 321.226969 
L 473.76 321.142877 
L 464.832 320.922086 
L 455.904 320.21283 
L 446.976 319.818796 
L 438.048 319.189034 
L 429.12 318.48527 
L 420.192 317.794643 
L 411.264 317.681358 
L 402.336 317.488109 
L 393.408 317.243183 
L 384.48 317.127052 
L 375.552 316.98628 
L 366.624 316.732392 
L 357.696 315.931571 
L 348.768 315.761712 
L 339.84 315.103667 
L 330.912 316.303814 
L 321.984 315.846868 
L 313.056 314.268181 
L 304.128 314.194938 
L 295.2 314.342123 
L 286.272 310.99624 
L 277.344 308.5916 
L 268.416 303.718136 
L 259.488 291.594023 
L 250.56 285.807429 
L 241.632 267.058972 
L 232.704 263.17613 
L 223.776 239.007067 
L 214.848 233.539574 
L 205.92 213.581615 
L 196.992 210.168723 
L 188.064 196.606666 
L 179.136 193.616497 
L 170.208 180.036515 
L 161.28 179.308284 
L 152.352 175.681544 
L 143.424 176.155291 
L 134.496 176.850199 
L 125.568 178.161356 
L 116.64 170.604736 
L 107.712 168.836446 
L 98.784 160.127755 
L 89.856 162.234603 
L 80.928 154.820785 
L 72 154.870154 
z
" style="fill:#ff7f0e;fill-opacity:0.3;"/>
   </g>
   <g id="PolyCollection_3">
    <path clip-path="url(#p44660ed988)" d="M 72 152.832498 
L 72 150.381377 
L 80.928 150.766403 
L 89.856 152.246891 
L 98.784 151.738889 
L 107.712 158.86528 
L 116.64 167.632682 
L 125.568 179.183493 
L 134.496 180.381674 
L 143.424 180.539954 
L 152.352 180.763743 
L 161.28 180.989304 
L 170.208 182.076071 
L 179.136 184.160401 
L 188.064 186.457625 
L 196.992 188.864692 
L 205.92 191.486844 
L 214.848 192.163094 
L 223.776 194.344253 
L 232.704 195.21528 
L 241.632 196.328557 
L 250.56 197.084396 
L 259.488 198.13046 
L 268.416 199.256802 
L 277.344 200.183607 
L 286.272 201.632372 
L 295.2 203.981239 
L 304.128 205.643669 
L 313.056 207.790467 
L 321.984 210.786144 
L 330.912 213.586459 
L 339.84 215.170955 
L 348.768 216.908698 
L 357.696 218.020371 
L 366.624 219.646628 
L 375.552 220.094346 
L 384.48 220.836986 
L 393.408 221.525095 
L 402.336 222.60327 
L 411.264 222.832027 
L 420.192 223.043227 
L 429.12 223.299959 
L 438.048 224.099858 
L 446.976 224.428952 
L 455.904 224.846729 
L 464.832 225.209118 
L 473.76 225.678915 
L 482.688 226.276213 
L 491.616 227.324639 
L 500.544 227.918423 
L 509.472 228.776304 
L 518.4 229.471737 
L 518.4 237.171301 
L 518.4 237.171301 
L 509.472 235.842787 
L 500.544 235.090871 
L 491.616 234.277619 
L 482.688 233.684184 
L 473.76 233.099838 
L 464.832 232.221894 
L 455.904 231.306469 
L 446.976 230.26706 
L 438.048 229.356154 
L 429.12 228.434574 
L 420.192 227.786332 
L 411.264 226.466574 
L 402.336 225.686303 
L 393.408 225.39122 
L 384.48 224.906624 
L 375.552 224.466229 
L 366.624 224.313649 
L 357.696 224.087391 
L 348.768 222.991162 
L 339.84 222.343353 
L 330.912 221.544257 
L 321.984 218.473475 
L 313.056 217.552146 
L 304.128 215.395887 
L 295.2 214.353183 
L 286.272 211.145418 
L 277.344 208.970049 
L 268.416 205.971914 
L 259.488 204.285314 
L 250.56 203.313696 
L 241.632 200.894415 
L 232.704 199.758565 
L 223.776 197.933787 
L 214.848 197.284586 
L 205.92 196.593782 
L 196.992 195.261809 
L 188.064 194.178494 
L 179.136 191.376891 
L 170.208 190.074065 
L 161.28 189.110598 
L 152.352 188.81024 
L 143.424 188.41487 
L 134.496 188.026425 
L 125.568 187.25294 
L 116.64 186.424196 
L 107.712 174.344513 
L 98.784 168.472278 
L 89.856 156.5886 
L 80.928 153.335017 
L 72 152.832498 
z
" style="fill:#2ca02c;fill-opacity:0.3;"/>
   </g>
   <g id="PolyCollection_4">
    <path clip-path="url(#p44660ed988)" d="M 72 153.403688 
L 72 148.742072 
L 80.928 149.0204 
L 89.856 151.798822 
L 98.784 156.458578 
L 107.712 160.989431 
L 116.64 165.103846 
L 125.568 169.20256 
L 134.496 171.364895 
L 143.424 174.212035 
L 152.352 179.373841 
L 161.28 180.50334 
L 170.208 182.99033 
L 179.136 185.56577 
L 188.064 187.869549 
L 196.992 191.36215 
L 205.92 195.375886 
L 214.848 202.349233 
L 223.776 208.161034 
L 232.704 216.006485 
L 241.632 219.566209 
L 250.56 223.650332 
L 259.488 228.931773 
L 268.416 231.559782 
L 277.344 236.926702 
L 286.272 240.236867 
L 295.2 245.065377 
L 304.128 247.599856 
L 313.056 254.227282 
L 321.984 257.024554 
L 330.912 261.656958 
L 339.84 262.481455 
L 348.768 265.14995 
L 357.696 266.516288 
L 366.624 269.849888 
L 375.552 271.719811 
L 384.48 273.49942 
L 393.408 275.737288 
L 402.336 280.098832 
L 411.264 282.792701 
L 420.192 285.172412 
L 429.12 287.123085 
L 438.048 289.774067 
L 446.976 292.730316 
L 455.904 293.484836 
L 464.832 295.932411 
L 473.76 297.42068 
L 482.688 298.183293 
L 491.616 298.759348 
L 500.544 299.341281 
L 509.472 301.113402 
L 518.4 302.280065 
L 518.4 327.210061 
L 518.4 327.210061 
L 509.472 326.441197 
L 500.544 325.653859 
L 491.616 325.374807 
L 482.688 324.946551 
L 473.76 323.186463 
L 464.832 316.218309 
L 455.904 311.522513 
L 446.976 308.469381 
L 438.048 304.54949 
L 429.12 302.500824 
L 420.192 299.135918 
L 411.264 296.671554 
L 402.336 294.027144 
L 393.408 290.443348 
L 384.48 288.31876 
L 375.552 286.653343 
L 366.624 285.135101 
L 357.696 281.960615 
L 348.768 280.345485 
L 339.84 279.788244 
L 330.912 276.671367 
L 321.984 274.858433 
L 313.056 273.065397 
L 304.128 269.358057 
L 295.2 266.921035 
L 286.272 264.226948 
L 277.344 261.770307 
L 268.416 259.242714 
L 259.488 258.411977 
L 250.56 252.366901 
L 241.632 240.321654 
L 232.704 234.696965 
L 223.776 229.987389 
L 214.848 221.874592 
L 205.92 216.31121 
L 196.992 209.766369 
L 188.064 205.94623 
L 179.136 201.171867 
L 170.208 194.335865 
L 161.28 193.089327 
L 152.352 190.386081 
L 143.424 184.425977 
L 134.496 178.805599 
L 125.568 178.178184 
L 116.64 176.898686 
L 107.712 170.922818 
L 98.784 166.473396 
L 89.856 161.174329 
L 80.928 154.550031 
L 72 153.403688 
z
" style="fill:#d62728;fill-opacity:0.3;"/>
   </g>
   <g id="PolyCollection_5">
    <path clip-path="url(#p44660ed988)" d="M 72 154.226912 
L 72 143.645799 
L 80.928 142.927506 
L 89.856 149.509182 
L 98.784 155.627738 
L 107.712 159.62331 
L 116.64 165.570484 
L 125.568 167.038229 
L 134.496 168.10845 
L 143.424 174.675878 
L 152.352 175.150727 
L 161.28 175.253184 
L 170.208 179.431694 
L 179.136 186.145754 
L 188.064 188.058436 
L 196.992 194.912009 
L 205.92 204.666837 
L 214.848 216.159929 
L 223.776 226.409983 
L 232.704 228.955915 
L 241.632 233.437366 
L 250.56 241.436535 
L 259.488 248.467836 
L 268.416 251.718396 
L 277.344 257.583395 
L 286.272 268.545488 
L 295.2 275.42914 
L 304.128 280.214014 
L 313.056 285.481947 
L 321.984 291.818431 
L 330.912 295.044813 
L 339.84 297.138104 
L 348.768 297.580601 
L 357.696 299.99036 
L 366.624 303.356778 
L 375.552 307.925296 
L 384.48 313.830532 
L 393.408 317.939611 
L 402.336 323.615477 
L 411.264 326.618785 
L 420.192 328.410883 
L 429.12 330.38842 
L 438.048 333.659848 
L 446.976 336.310591 
L 455.904 339.039119 
L 464.832 341.20112 
L 473.76 342.445201 
L 482.688 343.841036 
L 491.616 345.171349 
L 500.544 345.468413 
L 509.472 346.213131 
L 518.4 346.677234 
L 518.4 382.929951 
L 518.4 382.929951 
L 509.472 381.811031 
L 500.544 379.660332 
L 491.616 378.842353 
L 482.688 378.157621 
L 473.76 376.146707 
L 464.832 375.039034 
L 455.904 370.635766 
L 446.976 368.835023 
L 438.048 364.651779 
L 429.12 358.915163 
L 420.192 357.749549 
L 411.264 355.644031 
L 402.336 352.858046 
L 393.408 348.255908 
L 384.48 344.16433 
L 375.552 337.010928 
L 366.624 329.034933 
L 357.696 319.460483 
L 348.768 315.320024 
L 339.84 311.337971 
L 330.912 308.826166 
L 321.984 308.084745 
L 313.056 306.810058 
L 304.128 303.780027 
L 295.2 301.973096 
L 286.272 292.648587 
L 277.344 283.259548 
L 268.416 278.966312 
L 259.488 272.28527 
L 250.56 266.318131 
L 241.632 262.992428 
L 232.704 256.888816 
L 223.776 248.445279 
L 214.848 242.106724 
L 205.92 231.640134 
L 196.992 219.475657 
L 188.064 209.968008 
L 179.136 204.060548 
L 170.208 197.461975 
L 161.28 192.843496 
L 152.352 186.501398 
L 143.424 182.921716 
L 134.496 177.499737 
L 125.568 177.196723 
L 116.64 176.231062 
L 107.712 170.570102 
L 98.784 164.327127 
L 89.856 161.078135 
L 80.928 154.734689 
L 72 154.226912 
z
" style="fill:#9467bd;fill-opacity:0.3;"/>
   </g>
   <g id="PolyCollection_6">
    <path clip-path="url(#p44660ed988)" d="M 72 151.448254 
L 72 149.968822 
L 80.928 150.41275 
L 89.856 150.61161 
L 98.784 151.115244 
L 107.712 150.052935 
L 116.64 151.738052 
L 125.568 163.469517 
L 134.496 173.466283 
L 143.424 174.566189 
L 152.352 176.26168 
L 161.28 178.583125 
L 170.208 181.643914 
L 179.136 186.013143 
L 188.064 191.446661 
L 196.992 198.77761 
L 205.92 205.314046 
L 214.848 209.200622 
L 223.776 216.592976 
L 232.704 231.55853 
L 241.632 239.842394 
L 250.56 249.353786 
L 259.488 264.281991 
L 268.416 281.578225 
L 277.344 293.290905 
L 286.272 307.423543 
L 295.2 321.383167 
L 304.128 336.128357 
L 313.056 351.855559 
L 321.984 356.047275 
L 330.912 358.564332 
L 339.84 360.202961 
L 348.768 361.614662 
L 357.696 363.835514 
L 366.624 365.963706 
L 375.552 366.377575 
L 384.48 369.150477 
L 393.408 369.923933 
L 402.336 370.591801 
L 411.264 372.79023 
L 420.192 372.839043 
L 429.12 372.862187 
L 438.048 370.203906 
L 446.976 363.138382 
L 455.904 367.035904 
L 464.832 373.21784 
L 473.76 369.85818 
L 482.688 365.184403 
L 491.616 370.761111 
L 500.544 375.933955 
L 509.472 372.198028 
L 518.4 374.371862 
L 518.4 437.563626 
L 518.4 437.563626 
L 509.472 431.686329 
L 500.544 427.696914 
L 491.616 419.198753 
L 482.688 420.33281 
L 473.76 417.755375 
L 464.832 410.569235 
L 455.904 412.182064 
L 446.976 410.455524 
L 438.048 408.398753 
L 429.12 410.113386 
L 420.192 409.301317 
L 411.264 408.806754 
L 402.336 409.05459 
L 393.408 407.270924 
L 384.48 406.662533 
L 375.552 406.344221 
L 366.624 406.236634 
L 357.696 406.008342 
L 348.768 405.93675 
L 339.84 404.76219 
L 330.912 403.777827 
L 321.984 400.208624 
L 313.056 397.661249 
L 304.128 380.814131 
L 295.2 359.857761 
L 286.272 344.025236 
L 277.344 330.548054 
L 268.416 318.395164 
L 259.488 306.204823 
L 250.56 292.73654 
L 241.632 283.248845 
L 232.704 266.193169 
L 223.776 249.5644 
L 214.848 237.005052 
L 205.92 222.399453 
L 196.992 215.946866 
L 188.064 209.541705 
L 179.136 203.598979 
L 170.208 195.221268 
L 161.28 188.712223 
L 152.352 184.474306 
L 143.424 180.334525 
L 134.496 178.493892 
L 125.568 180.94041 
L 116.64 165.244395 
L 107.712 158.601256 
L 98.784 154.402455 
L 89.856 152.746247 
L 80.928 152.111132 
L 72 151.448254 
z
" style="fill:#8c564b;fill-opacity:0.3;"/>
   </g>
   <g id="PolyCollection_7">
    <path clip-path="url(#p44660ed988)" d="M 72 151.815254 
L 72 148.681655 
L 80.928 149.851996 
L 89.856 150.205679 
L 98.784 150.105876 
L 107.712 150.210419 
L 116.64 150.41416 
L 125.568 150.509801 
L 134.496 150.559821 
L 143.424 150.599547 
L 152.352 150.647573 
L 161.28 150.681948 
L 170.208 150.697439 
L 179.136 150.673203 
L 188.064 150.709546 
L 196.992 150.716889 
L 205.92 150.721672 
L 214.848 150.729414 
L 223.776 150.731805 
L 232.704 150.735208 
L 241.632 150.736724 
L 250.56 150.738348 
L 259.488 150.736409 
L 268.416 150.737715 
L 277.344 150.740291 
L 286.272 150.740814 
L 295.2 150.740611 
L 304.128 150.743069 
L 313.056 150.74282 
L 321.984 150.739554 
L 330.912 150.740806 
L 339.84 150.742972 
L 348.768 150.744276 
L 357.696 150.742852 
L 366.624 150.744065 
L 375.552 150.744501 
L 384.48 150.74754 
L 393.408 150.747485 
L 402.336 150.748131 
L 411.264 150.74948 
L 420.192 150.749921 
L 429.12 150.749878 
L 438.048 150.749862 
L 446.976 150.750756 
L 455.904 150.751226 
L 464.832 150.751724 
L 473.76 150.751833 
L 482.688 150.751665 
L 491.616 150.752013 
L 500.544 150.752284 
L 509.472 150.752429 
L 518.4 150.753742 
L 518.4 150.822729 
L 518.4 150.822729 
L 509.472 150.824393 
L 500.544 150.825738 
L 491.616 150.827009 
L 482.688 150.828849 
L 473.76 150.83017 
L 464.832 150.831516 
L 455.904 150.833877 
L 446.976 150.834611 
L 438.048 150.833544 
L 429.12 150.833314 
L 420.192 150.830286 
L 411.264 150.83109 
L 402.336 150.833068 
L 393.408 150.832424 
L 384.48 150.831163 
L 375.552 150.831414 
L 366.624 150.832531 
L 357.696 150.827908 
L 348.768 150.825865 
L 339.84 150.828618 
L 330.912 150.832236 
L 321.984 150.830929 
L 313.056 150.816666 
L 304.128 150.815944 
L 295.2 150.817653 
L 286.272 150.812843 
L 277.344 150.812915 
L 268.416 150.81292 
L 259.488 150.81202 
L 250.56 150.811603 
L 241.632 150.811037 
L 232.704 150.811481 
L 223.776 150.81052 
L 214.848 150.810481 
L 205.92 150.812715 
L 196.992 150.812701 
L 188.064 150.814047 
L 179.136 150.82702 
L 170.208 150.817519 
L 161.28 150.821292 
L 152.352 150.83466 
L 143.424 150.860189 
L 134.496 150.874035 
L 125.568 150.888253 
L 116.64 150.926354 
L 107.712 151.04483 
L 98.784 151.073353 
L 89.856 151.013308 
L 80.928 151.103343 
L 72 151.815254 
z
" style="fill:#e377c2;fill-opacity:0.3;"/>
   </g>
   <g id="matplotlib.axis_1">
    <g id="xtick_1">
     <g id="line2d_1">
      <path clip-path="url(#p44660ed988)" d="M 72 384.48 
L 72 51.84 
" style="fill:none;stroke:#b0b0b0;stroke-linecap:square;stroke-width:0.8;"/>
     </g>
     <g id="line2d_2">
      <defs>
       <path d="M 0 0 
L 0 3.5 
" id="m7b85250698" style="stroke:#000000;stroke-width:0.8;"/>
      </defs>
      <g>
       <use style="stroke:#000000;stroke-width:0.8;" x="72" xlink:href="#m7b85250698" y="384.48"/>
      </g>
     </g>
     <g id="text_1">
      <!-- 0 -->
      <defs>
       <path d="M 31.78125 66.40625 
Q 24.171875 66.40625 20.328125 58.90625 
Q 16.5 51.421875 16.5 36.375 
Q 16.5 21.390625 20.328125 13.890625 
Q 24.171875 6.390625 31.78125 6.390625 
Q 39.453125 6.390625 43.28125 13.890625 
Q 47.125 21.390625 47.125 36.375 
Q 47.125 51.421875 43.28125 58.90625 
Q 39.453125 66.40625 31.78125 66.40625 
z
M 31.78125 74.21875 
Q 44.046875 74.21875 50.515625 64.515625 
Q 56.984375 54.828125 56.984375 36.375 
Q 56.984375 17.96875 50.515625 8.265625 
Q 44.046875 -1.421875 31.78125 -1.421875 
Q 19.53125 -1.421875 13.0625 8.265625 
Q 6.59375 17.96875 6.59375 36.375 
Q 6.59375 54.828125 13.0625 64.515625 
Q 19.53125 74.21875 31.78125 74.21875 
z
" id="DejaVuSans-48"/>
      </defs>
      <g transform="translate(68.81875 399.078438)scale(0.1 -0.1)">
       <use xlink:href="#DejaVuSans-48"/>
      </g>
     </g>
    </g>
    <g id="xtick_2">
     <g id="line2d_3">
      <path clip-path="url(#p44660ed988)" d="M 161.28 384.48 
L 161.28 51.84 
" style="fill:none;stroke:#b0b0b0;stroke-linecap:square;stroke-width:0.8;"/>
     </g>
     <g id="line2d_4">
      <g>
       <use style="stroke:#000000;stroke-width:0.8;" x="161.28" xlink:href="#m7b85250698" y="384.48"/>
      </g>
     </g>
     <g id="text_2">
      <!-- 10 -->
      <defs>
       <path d="M 12.40625 8.296875 
L 28.515625 8.296875 
L 28.515625 63.921875 
L 10.984375 60.40625 
L 10.984375 69.390625 
L 28.421875 72.90625 
L 38.28125 72.90625 
L 38.28125 8.296875 
L 54.390625 8.296875 
L 54.390625 0 
L 12.40625 0 
z
" id="DejaVuSans-49"/>
      </defs>
      <g transform="translate(154.9175 399.078438)scale(0.1 -0.1)">
       <use xlink:href="#DejaVuSans-49"/>
       <use x="63.623047" xlink:href="#DejaVuSans-48"/>
      </g>
     </g>
    </g>
    <g id="xtick_3">
     <g id="line2d_5">
      <path clip-path="url(#p44660ed988)" d="M 250.56 384.48 
L 250.56 51.84 
" style="fill:none;stroke:#b0b0b0;stroke-linecap:square;stroke-width:0.8;"/>
     </g>
     <g id="line2d_6">
      <g>
       <use style="stroke:#000000;stroke-width:0.8;" x="250.56" xlink:href="#m7b85250698" y="384.48"/>
      </g>
     </g>
     <g id="text_3">
      <!-- 20 -->
      <defs>
       <path d="M 19.1875 8.296875 
L 53.609375 8.296875 
L 53.609375 0 
L 7.328125 0 
L 7.328125 8.296875 
Q 12.9375 14.109375 22.625 23.890625 
Q 32.328125 33.6875 34.8125 36.53125 
Q 39.546875 41.84375 41.421875 45.53125 
Q 43.3125 49.21875 43.3125 52.78125 
Q 43.3125 58.59375 39.234375 62.25 
Q 35.15625 65.921875 28.609375 65.921875 
Q 23.96875 65.921875 18.8125 64.3125 
Q 13.671875 62.703125 7.8125 59.421875 
L 7.8125 69.390625 
Q 13.765625 71.78125 18.9375 73 
Q 24.125 74.21875 28.421875 74.21875 
Q 39.75 74.21875 46.484375 68.546875 
Q 53.21875 62.890625 53.21875 53.421875 
Q 53.21875 48.921875 51.53125 44.890625 
Q 49.859375 40.875 45.40625 35.40625 
Q 44.1875 33.984375 37.640625 27.21875 
Q 31.109375 20.453125 19.1875 8.296875 
z
" id="DejaVuSans-50"/>
      </defs>
      <g transform="translate(244.1975 399.078438)scale(0.1 -0.1)">
       <use xlink:href="#DejaVuSans-50"/>
       <use x="63.623047" xlink:href="#DejaVuSans-48"/>
      </g>
     </g>
    </g>
    <g id="xtick_4">
     <g id="line2d_7">
      <path clip-path="url(#p44660ed988)" d="M 339.84 384.48 
L 339.84 51.84 
" style="fill:none;stroke:#b0b0b0;stroke-linecap:square;stroke-width:0.8;"/>
     </g>
     <g id="line2d_8">
      <g>
       <use style="stroke:#000000;stroke-width:0.8;" x="339.84" xlink:href="#m7b85250698" y="384.48"/>
      </g>
     </g>
     <g id="text_4">
      <!-- 30 -->
      <defs>
       <path d="M 40.578125 39.3125 
Q 47.65625 37.796875 51.625 33 
Q 55.609375 28.21875 55.609375 21.1875 
Q 55.609375 10.40625 48.1875 4.484375 
Q 40.765625 -1.421875 27.09375 -1.421875 
Q 22.515625 -1.421875 17.65625 -0.515625 
Q 12.796875 0.390625 7.625 2.203125 
L 7.625 11.71875 
Q 11.71875 9.328125 16.59375 8.109375 
Q 21.484375 6.890625 26.8125 6.890625 
Q 36.078125 6.890625 40.9375 10.546875 
Q 45.796875 14.203125 45.796875 21.1875 
Q 45.796875 27.640625 41.28125 31.265625 
Q 36.765625 34.90625 28.71875 34.90625 
L 20.21875 34.90625 
L 20.21875 43.015625 
L 29.109375 43.015625 
Q 36.375 43.015625 40.234375 45.921875 
Q 44.09375 48.828125 44.09375 54.296875 
Q 44.09375 59.90625 40.109375 62.90625 
Q 36.140625 65.921875 28.71875 65.921875 
Q 24.65625 65.921875 20.015625 65.03125 
Q 15.375 64.15625 9.8125 62.3125 
L 9.8125 71.09375 
Q 15.4375 72.65625 20.34375 73.4375 
Q 25.25 74.21875 29.59375 74.21875 
Q 40.828125 74.21875 47.359375 69.109375 
Q 53.90625 64.015625 53.90625 55.328125 
Q 53.90625 49.265625 50.4375 45.09375 
Q 46.96875 40.921875 40.578125 39.3125 
z
" id="DejaVuSans-51"/>
      </defs>
      <g transform="translate(333.4775 399.078438)scale(0.1 -0.1)">
       <use xlink:href="#DejaVuSans-51"/>
       <use x="63.623047" xlink:href="#DejaVuSans-48"/>
      </g>
     </g>
    </g>
    <g id="xtick_5">
     <g id="line2d_9">
      <path clip-path="url(#p44660ed988)" d="M 429.12 384.48 
L 429.12 51.84 
" style="fill:none;stroke:#b0b0b0;stroke-linecap:square;stroke-width:0.8;"/>
     </g>
     <g id="line2d_10">
      <g>
       <use style="stroke:#000000;stroke-width:0.8;" x="429.12" xlink:href="#m7b85250698" y="384.48"/>
      </g>
     </g>
     <g id="text_5">
      <!-- 40 -->
      <defs>
       <path d="M 37.796875 64.3125 
L 12.890625 25.390625 
L 37.796875 25.390625 
z
M 35.203125 72.90625 
L 47.609375 72.90625 
L 47.609375 25.390625 
L 58.015625 25.390625 
L 58.015625 17.1875 
L 47.609375 17.1875 
L 47.609375 0 
L 37.796875 0 
L 37.796875 17.1875 
L 4.890625 17.1875 
L 4.890625 26.703125 
z
" id="DejaVuSans-52"/>
      </defs>
      <g transform="translate(422.7575 399.078438)scale(0.1 -0.1)">
       <use xlink:href="#DejaVuSans-52"/>
       <use x="63.623047" xlink:href="#DejaVuSans-48"/>
      </g>
     </g>
    </g>
    <g id="xtick_6">
     <g id="line2d_11">
      <path clip-path="url(#p44660ed988)" d="M 518.4 384.48 
L 518.4 51.84 
" style="fill:none;stroke:#b0b0b0;stroke-linecap:square;stroke-width:0.8;"/>
     </g>
     <g id="line2d_12">
      <g>
       <use style="stroke:#000000;stroke-width:0.8;" x="518.4" xlink:href="#m7b85250698" y="384.48"/>
      </g>
     </g>
     <g id="text_6">
      <!-- 50 -->
      <defs>
       <path d="M 10.796875 72.90625 
L 49.515625 72.90625 
L 49.515625 64.59375 
L 19.828125 64.59375 
L 19.828125 46.734375 
Q 21.96875 47.46875 24.109375 47.828125 
Q 26.265625 48.1875 28.421875 48.1875 
Q 40.625 48.1875 47.75 41.5 
Q 54.890625 34.8125 54.890625 23.390625 
Q 54.890625 11.625 47.5625 5.09375 
Q 40.234375 -1.421875 26.90625 -1.421875 
Q 22.3125 -1.421875 17.546875 -0.640625 
Q 12.796875 0.140625 7.71875 1.703125 
L 7.71875 11.625 
Q 12.109375 9.234375 16.796875 8.0625 
Q 21.484375 6.890625 26.703125 6.890625 
Q 35.15625 6.890625 40.078125 11.328125 
Q 45.015625 15.765625 45.015625 23.390625 
Q 45.015625 31 40.078125 35.4375 
Q 35.15625 39.890625 26.703125 39.890625 
Q 22.75 39.890625 18.8125 39.015625 
Q 14.890625 38.140625 10.796875 36.28125 
z
" id="DejaVuSans-53"/>
      </defs>
      <g transform="translate(512.0375 399.078438)scale(0.1 -0.1)">
       <use xlink:href="#DejaVuSans-53"/>
       <use x="63.623047" xlink:href="#DejaVuSans-48"/>
      </g>
     </g>
    </g>
    <g id="text_7">
     <!-- Iteration -->
     <defs>
      <path d="M 9.8125 72.90625 
L 19.671875 72.90625 
L 19.671875 0 
L 9.8125 0 
z
" id="DejaVuSans-73"/>
      <path d="M 18.3125 70.21875 
L 18.3125 54.6875 
L 36.8125 54.6875 
L 36.8125 47.703125 
L 18.3125 47.703125 
L 18.3125 18.015625 
Q 18.3125 11.328125 20.140625 9.421875 
Q 21.96875 7.515625 27.59375 7.515625 
L 36.8125 7.515625 
L 36.8125 0 
L 27.59375 0 
Q 17.1875 0 13.234375 3.875 
Q 9.28125 7.765625 9.28125 18.015625 
L 9.28125 47.703125 
L 2.6875 47.703125 
L 2.6875 54.6875 
L 9.28125 54.6875 
L 9.28125 70.21875 
z
" id="DejaVuSans-116"/>
      <path d="M 56.203125 29.59375 
L 56.203125 25.203125 
L 14.890625 25.203125 
Q 15.484375 15.921875 20.484375 11.0625 
Q 25.484375 6.203125 34.421875 6.203125 
Q 39.59375 6.203125 44.453125 7.46875 
Q 49.3125 8.734375 54.109375 11.28125 
L 54.109375 2.78125 
Q 49.265625 0.734375 44.1875 -0.34375 
Q 39.109375 -1.421875 33.890625 -1.421875 
Q 20.796875 -1.421875 13.15625 6.1875 
Q 5.515625 13.8125 5.515625 26.8125 
Q 5.515625 40.234375 12.765625 48.109375 
Q 20.015625 56 32.328125 56 
Q 43.359375 56 49.78125 48.890625 
Q 56.203125 41.796875 56.203125 29.59375 
z
M 47.21875 32.234375 
Q 47.125 39.59375 43.09375 43.984375 
Q 39.0625 48.390625 32.421875 48.390625 
Q 24.90625 48.390625 20.390625 44.140625 
Q 15.875 39.890625 15.1875 32.171875 
z
" id="DejaVuSans-101"/>
      <path d="M 41.109375 46.296875 
Q 39.59375 47.171875 37.8125 47.578125 
Q 36.03125 48 33.890625 48 
Q 26.265625 48 22.1875 43.046875 
Q 18.109375 38.09375 18.109375 28.8125 
L 18.109375 0 
L 9.078125 0 
L 9.078125 54.6875 
L 18.109375 54.6875 
L 18.109375 46.1875 
Q 20.953125 51.171875 25.484375 53.578125 
Q 30.03125 56 36.53125 56 
Q 37.453125 56 38.578125 55.875 
Q 39.703125 55.765625 41.0625 55.515625 
z
" id="DejaVuSans-114"/>
      <path d="M 34.28125 27.484375 
Q 23.390625 27.484375 19.1875 25 
Q 14.984375 22.515625 14.984375 16.5 
Q 14.984375 11.71875 18.140625 8.90625 
Q 21.296875 6.109375 26.703125 6.109375 
Q 34.1875 6.109375 38.703125 11.40625 
Q 43.21875 16.703125 43.21875 25.484375 
L 43.21875 27.484375 
z
M 52.203125 31.203125 
L 52.203125 0 
L 43.21875 0 
L 43.21875 8.296875 
Q 40.140625 3.328125 35.546875 0.953125 
Q 30.953125 -1.421875 24.3125 -1.421875 
Q 15.921875 -1.421875 10.953125 3.296875 
Q 6 8.015625 6 15.921875 
Q 6 25.140625 12.171875 29.828125 
Q 18.359375 34.515625 30.609375 34.515625 
L 43.21875 34.515625 
L 43.21875 35.40625 
Q 43.21875 41.609375 39.140625 45 
Q 35.0625 48.390625 27.6875 48.390625 
Q 23 48.390625 18.546875 47.265625 
Q 14.109375 46.140625 10.015625 43.890625 
L 10.015625 52.203125 
Q 14.9375 54.109375 19.578125 55.046875 
Q 24.21875 56 28.609375 56 
Q 40.484375 56 46.34375 49.84375 
Q 52.203125 43.703125 52.203125 31.203125 
z
" id="DejaVuSans-97"/>
      <path d="M 9.421875 54.6875 
L 18.40625 54.6875 
L 18.40625 0 
L 9.421875 0 
z
M 9.421875 75.984375 
L 18.40625 75.984375 
L 18.40625 64.59375 
L 9.421875 64.59375 
z
" id="DejaVuSans-105"/>
      <path d="M 30.609375 48.390625 
Q 23.390625 48.390625 19.1875 42.75 
Q 14.984375 37.109375 14.984375 27.296875 
Q 14.984375 17.484375 19.15625 11.84375 
Q 23.34375 6.203125 30.609375 6.203125 
Q 37.796875 6.203125 41.984375 11.859375 
Q 46.1875 17.53125 46.1875 27.296875 
Q 46.1875 37.015625 41.984375 42.703125 
Q 37.796875 48.390625 30.609375 48.390625 
z
M 30.609375 56 
Q 42.328125 56 49.015625 48.375 
Q 55.71875 40.765625 55.71875 27.296875 
Q 55.71875 13.875 49.015625 6.21875 
Q 42.328125 -1.421875 30.609375 -1.421875 
Q 18.84375 -1.421875 12.171875 6.21875 
Q 5.515625 13.875 5.515625 27.296875 
Q 5.515625 40.765625 12.171875 48.375 
Q 18.84375 56 30.609375 56 
z
" id="DejaVuSans-111"/>
      <path d="M 54.890625 33.015625 
L 54.890625 0 
L 45.90625 0 
L 45.90625 32.71875 
Q 45.90625 40.484375 42.875 44.328125 
Q 39.84375 48.1875 33.796875 48.1875 
Q 26.515625 48.1875 22.3125 43.546875 
Q 18.109375 38.921875 18.109375 30.90625 
L 18.109375 0 
L 9.078125 0 
L 9.078125 54.6875 
L 18.109375 54.6875 
L 18.109375 46.1875 
Q 21.34375 51.125 25.703125 53.5625 
Q 30.078125 56 35.796875 56 
Q 45.21875 56 50.046875 50.171875 
Q 54.890625 44.34375 54.890625 33.015625 
z
" id="DejaVuSans-110"/>
     </defs>
     <g transform="translate(273.991406 412.756563)scale(0.1 -0.1)">
      <use xlink:href="#DejaVuSans-73"/>
      <use x="29.492188" xlink:href="#DejaVuSans-116"/>
      <use x="68.701172" xlink:href="#DejaVuSans-101"/>
      <use x="130.224609" xlink:href="#DejaVuSans-114"/>
      <use x="171.337891" xlink:href="#DejaVuSans-97"/>
      <use x="232.617188" xlink:href="#DejaVuSans-116"/>
      <use x="271.826172" xlink:href="#DejaVuSans-105"/>
      <use x="299.609375" xlink:href="#DejaVuSans-111"/>
      <use x="360.791016" xlink:href="#DejaVuSans-110"/>
     </g>
    </g>
   </g>
   <g id="matplotlib.axis_2">
    <g id="ytick_1">
     <g id="line2d_13">
      <path clip-path="url(#p44660ed988)" d="M 72 384.48 
L 518.4 384.48 
" style="fill:none;stroke:#b0b0b0;stroke-linecap:square;stroke-width:0.8;"/>
     </g>
     <g id="line2d_14">
      <defs>
       <path d="M 0 0 
L -3.5 0 
" id="m1a496cf9ce" style="stroke:#000000;stroke-width:0.8;"/>
      </defs>
      <g>
       <use style="stroke:#000000;stroke-width:0.8;" x="72" xlink:href="#m1a496cf9ce" y="384.48"/>
      </g>
     </g>
     <g id="text_8">
      <!-- $\mathdefault{10^{-12}}$ -->
      <defs>
       <path d="M 10.59375 35.5 
L 73.1875 35.5 
L 73.1875 27.203125 
L 10.59375 27.203125 
z
" id="DejaVuSans-8722"/>
      </defs>
      <g transform="translate(37.1 388.279219)scale(0.1 -0.1)">
       <use transform="translate(0 0.765625)" xlink:href="#DejaVuSans-49"/>
       <use transform="translate(63.623047 0.765625)" xlink:href="#DejaVuSans-48"/>
       <use transform="translate(128.203125 39.046875)scale(0.7)" xlink:href="#DejaVuSans-8722"/>
       <use transform="translate(186.855469 39.046875)scale(0.7)" xlink:href="#DejaVuSans-49"/>
       <use transform="translate(231.391602 39.046875)scale(0.7)" xlink:href="#DejaVuSans-50"/>
      </g>
     </g>
    </g>
    <g id="ytick_2">
     <g id="line2d_15">
      <path clip-path="url(#p44660ed988)" d="M 72 336.96 
L 518.4 336.96 
" style="fill:none;stroke:#b0b0b0;stroke-linecap:square;stroke-width:0.8;"/>
     </g>
     <g id="line2d_16">
      <g>
       <use style="stroke:#000000;stroke-width:0.8;" x="72" xlink:href="#m1a496cf9ce" y="336.96"/>
      </g>
     </g>
     <g id="text_9">
      <!-- $\mathdefault{10^{-10}}$ -->
      <g transform="translate(37.1 340.759219)scale(0.1 -0.1)">
       <use transform="translate(0 0.765625)" xlink:href="#DejaVuSans-49"/>
       <use transform="translate(63.623047 0.765625)" xlink:href="#DejaVuSans-48"/>
       <use transform="translate(128.203125 39.046875)scale(0.7)" xlink:href="#DejaVuSans-8722"/>
       <use transform="translate(186.855469 39.046875)scale(0.7)" xlink:href="#DejaVuSans-49"/>
       <use transform="translate(231.391602 39.046875)scale(0.7)" xlink:href="#DejaVuSans-48"/>
      </g>
     </g>
    </g>
    <g id="ytick_3">
     <g id="line2d_17">
      <path clip-path="url(#p44660ed988)" d="M 72 289.44 
L 518.4 289.44 
" style="fill:none;stroke:#b0b0b0;stroke-linecap:square;stroke-width:0.8;"/>
     </g>
     <g id="line2d_18">
      <g>
       <use style="stroke:#000000;stroke-width:0.8;" x="72" xlink:href="#m1a496cf9ce" y="289.44"/>
      </g>
     </g>
     <g id="text_10">
      <!-- $\mathdefault{10^{-8}}$ -->
      <defs>
       <path d="M 31.78125 34.625 
Q 24.75 34.625 20.71875 30.859375 
Q 16.703125 27.09375 16.703125 20.515625 
Q 16.703125 13.921875 20.71875 10.15625 
Q 24.75 6.390625 31.78125 6.390625 
Q 38.8125 6.390625 42.859375 10.171875 
Q 46.921875 13.96875 46.921875 20.515625 
Q 46.921875 27.09375 42.890625 30.859375 
Q 38.875 34.625 31.78125 34.625 
z
M 21.921875 38.8125 
Q 15.578125 40.375 12.03125 44.71875 
Q 8.5 49.078125 8.5 55.328125 
Q 8.5 64.0625 14.71875 69.140625 
Q 20.953125 74.21875 31.78125 74.21875 
Q 42.671875 74.21875 48.875 69.140625 
Q 55.078125 64.0625 55.078125 55.328125 
Q 55.078125 49.078125 51.53125 44.71875 
Q 48 40.375 41.703125 38.8125 
Q 48.828125 37.15625 52.796875 32.3125 
Q 56.78125 27.484375 56.78125 20.515625 
Q 56.78125 9.90625 50.3125 4.234375 
Q 43.84375 -1.421875 31.78125 -1.421875 
Q 19.734375 -1.421875 13.25 4.234375 
Q 6.78125 9.90625 6.78125 20.515625 
Q 6.78125 27.484375 10.78125 32.3125 
Q 14.796875 37.15625 21.921875 38.8125 
z
M 18.3125 54.390625 
Q 18.3125 48.734375 21.84375 45.5625 
Q 25.390625 42.390625 31.78125 42.390625 
Q 38.140625 42.390625 41.71875 45.5625 
Q 45.3125 48.734375 45.3125 54.390625 
Q 45.3125 60.0625 41.71875 63.234375 
Q 38.140625 66.40625 31.78125 66.40625 
Q 25.390625 66.40625 21.84375 63.234375 
Q 18.3125 60.0625 18.3125 54.390625 
z
" id="DejaVuSans-56"/>
      </defs>
      <g transform="translate(41.5 293.239219)scale(0.1 -0.1)">
       <use transform="translate(0 0.765625)" xlink:href="#DejaVuSans-49"/>
       <use transform="translate(63.623047 0.765625)" xlink:href="#DejaVuSans-48"/>
       <use transform="translate(128.203125 39.046875)scale(0.7)" xlink:href="#DejaVuSans-8722"/>
       <use transform="translate(186.855469 39.046875)scale(0.7)" xlink:href="#DejaVuSans-56"/>
      </g>
     </g>
    </g>
    <g id="ytick_4">
     <g id="line2d_19">
      <path clip-path="url(#p44660ed988)" d="M 72 241.92 
L 518.4 241.92 
" style="fill:none;stroke:#b0b0b0;stroke-linecap:square;stroke-width:0.8;"/>
     </g>
     <g id="line2d_20">
      <g>
       <use style="stroke:#000000;stroke-width:0.8;" x="72" xlink:href="#m1a496cf9ce" y="241.92"/>
      </g>
     </g>
     <g id="text_11">
      <!-- $\mathdefault{10^{-6}}$ -->
      <defs>
       <path d="M 33.015625 40.375 
Q 26.375 40.375 22.484375 35.828125 
Q 18.609375 31.296875 18.609375 23.390625 
Q 18.609375 15.53125 22.484375 10.953125 
Q 26.375 6.390625 33.015625 6.390625 
Q 39.65625 6.390625 43.53125 10.953125 
Q 47.40625 15.53125 47.40625 23.390625 
Q 47.40625 31.296875 43.53125 35.828125 
Q 39.65625 40.375 33.015625 40.375 
z
M 52.59375 71.296875 
L 52.59375 62.3125 
Q 48.875 64.0625 45.09375 64.984375 
Q 41.3125 65.921875 37.59375 65.921875 
Q 27.828125 65.921875 22.671875 59.328125 
Q 17.53125 52.734375 16.796875 39.40625 
Q 19.671875 43.65625 24.015625 45.921875 
Q 28.375 48.1875 33.59375 48.1875 
Q 44.578125 48.1875 50.953125 41.515625 
Q 57.328125 34.859375 57.328125 23.390625 
Q 57.328125 12.15625 50.6875 5.359375 
Q 44.046875 -1.421875 33.015625 -1.421875 
Q 20.359375 -1.421875 13.671875 8.265625 
Q 6.984375 17.96875 6.984375 36.375 
Q 6.984375 53.65625 15.1875 63.9375 
Q 23.390625 74.21875 37.203125 74.21875 
Q 40.921875 74.21875 44.703125 73.484375 
Q 48.484375 72.75 52.59375 71.296875 
z
" id="DejaVuSans-54"/>
      </defs>
      <g transform="translate(41.5 245.719219)scale(0.1 -0.1)">
       <use transform="translate(0 0.765625)" xlink:href="#DejaVuSans-49"/>
       <use transform="translate(63.623047 0.765625)" xlink:href="#DejaVuSans-48"/>
       <use transform="translate(128.203125 39.046875)scale(0.7)" xlink:href="#DejaVuSans-8722"/>
       <use transform="translate(186.855469 39.046875)scale(0.7)" xlink:href="#DejaVuSans-54"/>
      </g>
     </g>
    </g>
    <g id="ytick_5">
     <g id="line2d_21">
      <path clip-path="url(#p44660ed988)" d="M 72 194.4 
L 518.4 194.4 
" style="fill:none;stroke:#b0b0b0;stroke-linecap:square;stroke-width:0.8;"/>
     </g>
     <g id="line2d_22">
      <g>
       <use style="stroke:#000000;stroke-width:0.8;" x="72" xlink:href="#m1a496cf9ce" y="194.4"/>
      </g>
     </g>
     <g id="text_12">
      <!-- $\mathdefault{10^{-4}}$ -->
      <g transform="translate(41.5 198.199219)scale(0.1 -0.1)">
       <use transform="translate(0 0.684375)" xlink:href="#DejaVuSans-49"/>
       <use transform="translate(63.623047 0.684375)" xlink:href="#DejaVuSans-48"/>
       <use transform="translate(128.203125 38.965625)scale(0.7)" xlink:href="#DejaVuSans-8722"/>
       <use transform="translate(186.855469 38.965625)scale(0.7)" xlink:href="#DejaVuSans-52"/>
      </g>
     </g>
    </g>
    <g id="ytick_6">
     <g id="line2d_23">
      <path clip-path="url(#p44660ed988)" d="M 72 146.88 
L 518.4 146.88 
" style="fill:none;stroke:#b0b0b0;stroke-linecap:square;stroke-width:0.8;"/>
     </g>
     <g id="line2d_24">
      <g>
       <use style="stroke:#000000;stroke-width:0.8;" x="72" xlink:href="#m1a496cf9ce" y="146.88"/>
      </g>
     </g>
     <g id="text_13">
      <!-- $\mathdefault{10^{-2}}$ -->
      <g transform="translate(41.5 150.679219)scale(0.1 -0.1)">
       <use transform="translate(0 0.765625)" xlink:href="#DejaVuSans-49"/>
       <use transform="translate(63.623047 0.765625)" xlink:href="#DejaVuSans-48"/>
       <use transform="translate(128.203125 39.046875)scale(0.7)" xlink:href="#DejaVuSans-8722"/>
       <use transform="translate(186.855469 39.046875)scale(0.7)" xlink:href="#DejaVuSans-50"/>
      </g>
     </g>
    </g>
    <g id="ytick_7">
     <g id="line2d_25">
      <path clip-path="url(#p44660ed988)" d="M 72 99.36 
L 518.4 99.36 
" style="fill:none;stroke:#b0b0b0;stroke-linecap:square;stroke-width:0.8;"/>
     </g>
     <g id="line2d_26">
      <g>
       <use style="stroke:#000000;stroke-width:0.8;" x="72" xlink:href="#m1a496cf9ce" y="99.36"/>
      </g>
     </g>
     <g id="text_14">
      <!-- $\mathdefault{10^{0}}$ -->
      <g transform="translate(47.4 103.159219)scale(0.1 -0.1)">
       <use transform="translate(0 0.765625)" xlink:href="#DejaVuSans-49"/>
       <use transform="translate(63.623047 0.765625)" xlink:href="#DejaVuSans-48"/>
       <use transform="translate(128.203125 39.046875)scale(0.7)" xlink:href="#DejaVuSans-48"/>
      </g>
     </g>
    </g>
    <g id="ytick_8">
     <g id="line2d_27">
      <path clip-path="url(#p44660ed988)" d="M 72 51.84 
L 518.4 51.84 
" style="fill:none;stroke:#b0b0b0;stroke-linecap:square;stroke-width:0.8;"/>
     </g>
     <g id="line2d_28">
      <g>
       <use style="stroke:#000000;stroke-width:0.8;" x="72" xlink:href="#m1a496cf9ce" y="51.84"/>
      </g>
     </g>
     <g id="text_15">
      <!-- $\mathdefault{10^{2}}$ -->
      <g transform="translate(47.4 55.639219)scale(0.1 -0.1)">
       <use transform="translate(0 0.765625)" xlink:href="#DejaVuSans-49"/>
       <use transform="translate(63.623047 0.765625)" xlink:href="#DejaVuSans-48"/>
       <use transform="translate(128.203125 39.046875)scale(0.7)" xlink:href="#DejaVuSans-50"/>
      </g>
     </g>
    </g>
    <g id="text_16">
     <!-- Integrated Squared Error -->
     <defs>
      <path d="M 45.40625 27.984375 
Q 45.40625 37.75 41.375 43.109375 
Q 37.359375 48.484375 30.078125 48.484375 
Q 22.859375 48.484375 18.828125 43.109375 
Q 14.796875 37.75 14.796875 27.984375 
Q 14.796875 18.265625 18.828125 12.890625 
Q 22.859375 7.515625 30.078125 7.515625 
Q 37.359375 7.515625 41.375 12.890625 
Q 45.40625 18.265625 45.40625 27.984375 
z
M 54.390625 6.78125 
Q 54.390625 -7.171875 48.1875 -13.984375 
Q 42 -20.796875 29.203125 -20.796875 
Q 24.46875 -20.796875 20.265625 -20.09375 
Q 16.0625 -19.390625 12.109375 -17.921875 
L 12.109375 -9.1875 
Q 16.0625 -11.328125 19.921875 -12.34375 
Q 23.78125 -13.375 27.78125 -13.375 
Q 36.625 -13.375 41.015625 -8.765625 
Q 45.40625 -4.15625 45.40625 5.171875 
L 45.40625 9.625 
Q 42.625 4.78125 38.28125 2.390625 
Q 33.9375 0 27.875 0 
Q 17.828125 0 11.671875 7.65625 
Q 5.515625 15.328125 5.515625 27.984375 
Q 5.515625 40.671875 11.671875 48.328125 
Q 17.828125 56 27.875 56 
Q 33.9375 56 38.28125 53.609375 
Q 42.625 51.21875 45.40625 46.390625 
L 45.40625 54.6875 
L 54.390625 54.6875 
z
" id="DejaVuSans-103"/>
      <path d="M 45.40625 46.390625 
L 45.40625 75.984375 
L 54.390625 75.984375 
L 54.390625 0 
L 45.40625 0 
L 45.40625 8.203125 
Q 42.578125 3.328125 38.25 0.953125 
Q 33.9375 -1.421875 27.875 -1.421875 
Q 17.96875 -1.421875 11.734375 6.484375 
Q 5.515625 14.40625 5.515625 27.296875 
Q 5.515625 40.1875 11.734375 48.09375 
Q 17.96875 56 27.875 56 
Q 33.9375 56 38.25 53.625 
Q 42.578125 51.265625 45.40625 46.390625 
z
M 14.796875 27.296875 
Q 14.796875 17.390625 18.875 11.75 
Q 22.953125 6.109375 30.078125 6.109375 
Q 37.203125 6.109375 41.296875 11.75 
Q 45.40625 17.390625 45.40625 27.296875 
Q 45.40625 37.203125 41.296875 42.84375 
Q 37.203125 48.484375 30.078125 48.484375 
Q 22.953125 48.484375 18.875 42.84375 
Q 14.796875 37.203125 14.796875 27.296875 
z
" id="DejaVuSans-100"/>
      <path id="DejaVuSans-32"/>
      <path d="M 53.515625 70.515625 
L 53.515625 60.890625 
Q 47.90625 63.578125 42.921875 64.890625 
Q 37.9375 66.21875 33.296875 66.21875 
Q 25.25 66.21875 20.875 63.09375 
Q 16.5 59.96875 16.5 54.203125 
Q 16.5 49.359375 19.40625 46.890625 
Q 22.3125 44.4375 30.421875 42.921875 
L 36.375 41.703125 
Q 47.40625 39.59375 52.65625 34.296875 
Q 57.90625 29 57.90625 20.125 
Q 57.90625 9.515625 50.796875 4.046875 
Q 43.703125 -1.421875 29.984375 -1.421875 
Q 24.8125 -1.421875 18.96875 -0.25 
Q 13.140625 0.921875 6.890625 3.21875 
L 6.890625 13.375 
Q 12.890625 10.015625 18.65625 8.296875 
Q 24.421875 6.59375 29.984375 6.59375 
Q 38.421875 6.59375 43.015625 9.90625 
Q 47.609375 13.234375 47.609375 19.390625 
Q 47.609375 24.75 44.3125 27.78125 
Q 41.015625 30.8125 33.5 32.328125 
L 27.484375 33.5 
Q 16.453125 35.6875 11.515625 40.375 
Q 6.59375 45.0625 6.59375 53.421875 
Q 6.59375 63.09375 13.40625 68.65625 
Q 20.21875 74.21875 32.171875 74.21875 
Q 37.3125 74.21875 42.625 73.28125 
Q 47.953125 72.359375 53.515625 70.515625 
z
" id="DejaVuSans-83"/>
      <path d="M 14.796875 27.296875 
Q 14.796875 17.390625 18.875 11.75 
Q 22.953125 6.109375 30.078125 6.109375 
Q 37.203125 6.109375 41.296875 11.75 
Q 45.40625 17.390625 45.40625 27.296875 
Q 45.40625 37.203125 41.296875 42.84375 
Q 37.203125 48.484375 30.078125 48.484375 
Q 22.953125 48.484375 18.875 42.84375 
Q 14.796875 37.203125 14.796875 27.296875 
z
M 45.40625 8.203125 
Q 42.578125 3.328125 38.25 0.953125 
Q 33.9375 -1.421875 27.875 -1.421875 
Q 17.96875 -1.421875 11.734375 6.484375 
Q 5.515625 14.40625 5.515625 27.296875 
Q 5.515625 40.1875 11.734375 48.09375 
Q 17.96875 56 27.875 56 
Q 33.9375 56 38.25 53.625 
Q 42.578125 51.265625 45.40625 46.390625 
L 45.40625 54.6875 
L 54.390625 54.6875 
L 54.390625 -20.796875 
L 45.40625 -20.796875 
z
" id="DejaVuSans-113"/>
      <path d="M 8.5 21.578125 
L 8.5 54.6875 
L 17.484375 54.6875 
L 17.484375 21.921875 
Q 17.484375 14.15625 20.5 10.265625 
Q 23.53125 6.390625 29.59375 6.390625 
Q 36.859375 6.390625 41.078125 11.03125 
Q 45.3125 15.671875 45.3125 23.6875 
L 45.3125 54.6875 
L 54.296875 54.6875 
L 54.296875 0 
L 45.3125 0 
L 45.3125 8.40625 
Q 42.046875 3.421875 37.71875 1 
Q 33.40625 -1.421875 27.6875 -1.421875 
Q 18.265625 -1.421875 13.375 4.4375 
Q 8.5 10.296875 8.5 21.578125 
z
M 31.109375 56 
z
" id="DejaVuSans-117"/>
      <path d="M 9.8125 72.90625 
L 55.90625 72.90625 
L 55.90625 64.59375 
L 19.671875 64.59375 
L 19.671875 43.015625 
L 54.390625 43.015625 
L 54.390625 34.71875 
L 19.671875 34.71875 
L 19.671875 8.296875 
L 56.78125 8.296875 
L 56.78125 0 
L 9.8125 0 
z
" id="DejaVuSans-69"/>
     </defs>
     <g transform="translate(31.020312 280.483437)rotate(-90)scale(0.1 -0.1)">
      <use xlink:href="#DejaVuSans-73"/>
      <use x="29.492188" xlink:href="#DejaVuSans-110"/>
      <use x="92.871094" xlink:href="#DejaVuSans-116"/>
      <use x="132.080078" xlink:href="#DejaVuSans-101"/>
      <use x="193.603516" xlink:href="#DejaVuSans-103"/>
      <use x="257.080078" xlink:href="#DejaVuSans-114"/>
      <use x="298.193359" xlink:href="#DejaVuSans-97"/>
      <use x="359.472656" xlink:href="#DejaVuSans-116"/>
      <use x="398.681641" xlink:href="#DejaVuSans-101"/>
      <use x="460.205078" xlink:href="#DejaVuSans-100"/>
      <use x="523.681641" xlink:href="#DejaVuSans-32"/>
      <use x="555.46875" xlink:href="#DejaVuSans-83"/>
      <use x="618.945312" xlink:href="#DejaVuSans-113"/>
      <use x="682.421875" xlink:href="#DejaVuSans-117"/>
      <use x="745.800781" xlink:href="#DejaVuSans-97"/>
      <use x="807.080078" xlink:href="#DejaVuSans-114"/>
      <use x="845.943359" xlink:href="#DejaVuSans-101"/>
      <use x="907.466797" xlink:href="#DejaVuSans-100"/>
      <use x="970.943359" xlink:href="#DejaVuSans-32"/>
      <use x="1002.730469" xlink:href="#DejaVuSans-69"/>
      <use x="1065.914062" xlink:href="#DejaVuSans-114"/>
      <use x="1105.277344" xlink:href="#DejaVuSans-114"/>
      <use x="1144.140625" xlink:href="#DejaVuSans-111"/>
      <use x="1205.322266" xlink:href="#DejaVuSans-114"/>
     </g>
    </g>
   </g>
   <g id="line2d_29">
    <path clip-path="url(#p44660ed988)" d="M 72 150.350884 
L 80.928 150.473261 
L 89.856 150.565773 
L 98.784 150.596975 
L 107.712 150.630431 
L 116.64 150.6607 
L 125.568 150.691272 
L 134.496 150.708298 
L 143.424 150.720206 
L 152.352 150.71464 
L 161.28 150.717118 
L 170.208 150.722592 
L 179.136 150.70921 
L 188.064 150.726461 
L 196.992 150.730554 
L 205.92 150.735559 
L 214.848 150.737498 
L 223.776 150.73901 
L 232.704 150.740621 
L 241.632 150.741857 
L 250.56 150.742934 
L 259.488 150.742889 
L 268.416 150.743952 
L 277.344 150.745495 
L 286.272 150.744836 
L 295.2 150.745019 
L 304.128 150.744745 
L 313.056 150.744019 
L 321.984 150.743891 
L 330.912 150.709051 
L 339.84 150.738072 
L 348.768 150.74418 
L 357.696 150.706994 
L 366.624 150.737047 
L 375.552 150.73623 
L 384.48 150.717897 
L 393.408 150.727632 
L 402.336 150.7328 
L 411.264 150.702903 
L 420.192 150.722444 
L 429.12 150.74042 
L 438.048 150.725883 
L 446.976 150.740623 
L 455.904 150.70609 
L 464.832 150.71708 
L 473.76 150.736006 
L 482.688 150.732261 
L 491.616 150.693054 
L 500.544 150.718478 
L 509.472 150.717046 
L 518.4 150.714737 
" style="fill:none;stroke:#1f77b4;stroke-linecap:square;stroke-width:1.5;"/>
   </g>
   <g id="line2d_30">
    <path clip-path="url(#p44660ed988)" d="M 72 148.191197 
L 80.928 146.339689 
L 89.856 151.16833 
L 98.784 153.998615 
L 107.712 160.635833 
L 116.64 162.717891 
L 125.568 168.263137 
L 134.496 168.282134 
L 143.424 169.945186 
L 152.352 170.514582 
L 161.28 175.334452 
L 170.208 176.193777 
L 179.136 184.835638 
L 188.064 188.703448 
L 196.992 203.173636 
L 205.92 206.91816 
L 214.848 221.968575 
L 223.776 229.372221 
L 232.704 249.376932 
L 241.632 253.071165 
L 250.56 268.600616 
L 259.488 274.418692 
L 268.416 282.302405 
L 277.344 286.885143 
L 286.272 288.801954 
L 295.2 291.73467 
L 304.128 292.888027 
L 313.056 293.516233 
L 321.984 295.428991 
L 330.912 296.0164 
L 339.84 297.20129 
L 348.768 297.560634 
L 357.696 297.907904 
L 366.624 298.641875 
L 375.552 298.906795 
L 384.48 299.222141 
L 393.408 299.327446 
L 402.336 299.625049 
L 411.264 299.896646 
L 420.192 300.007089 
L 429.12 300.756933 
L 438.048 301.687864 
L 446.976 302.781396 
L 455.904 303.309715 
L 464.832 304.107308 
L 473.76 304.314203 
L 482.688 304.419676 
L 491.616 304.908372 
L 500.544 305.175148 
L 509.472 305.61978 
L 518.4 306.17195 
" style="fill:none;stroke:#ff7f0e;stroke-linecap:square;stroke-width:1.5;"/>
   </g>
   <g id="line2d_31">
    <path clip-path="url(#p44660ed988)" d="M 72 151.606938 
L 80.928 152.05071 
L 89.856 154.417745 
L 98.784 160.105584 
L 107.712 166.604897 
L 116.64 177.028439 
L 125.568 183.218217 
L 134.496 184.20405 
L 143.424 184.477412 
L 152.352 184.786992 
L 161.28 185.049951 
L 170.208 186.075068 
L 179.136 187.768646 
L 188.064 190.318059 
L 196.992 192.063251 
L 205.92 194.040313 
L 214.848 194.72384 
L 223.776 196.13902 
L 232.704 197.486922 
L 241.632 198.611486 
L 250.56 200.199046 
L 259.488 201.207887 
L 268.416 202.614358 
L 277.344 204.576828 
L 286.272 206.388895 
L 295.2 209.167211 
L 304.128 210.519778 
L 313.056 212.671306 
L 321.984 214.629809 
L 330.912 217.565358 
L 339.84 218.757154 
L 348.768 219.94993 
L 357.696 221.053881 
L 366.624 221.980138 
L 375.552 222.280287 
L 384.48 222.871805 
L 393.408 223.458157 
L 402.336 224.144786 
L 411.264 224.649301 
L 420.192 225.41478 
L 429.12 225.867267 
L 438.048 226.728006 
L 446.976 227.348006 
L 455.904 228.076599 
L 464.832 228.715506 
L 473.76 229.389377 
L 482.688 229.980199 
L 491.616 230.801129 
L 500.544 231.504647 
L 509.472 232.309546 
L 518.4 233.321519 
" style="fill:none;stroke:#2ca02c;stroke-linecap:square;stroke-width:1.5;"/>
   </g>
   <g id="line2d_32">
    <path clip-path="url(#p44660ed988)" d="M 72 151.07288 
L 80.928 151.785215 
L 89.856 156.486576 
L 98.784 161.465987 
L 107.712 165.956125 
L 116.64 171.001266 
L 125.568 173.690372 
L 134.496 175.085247 
L 143.424 179.319006 
L 152.352 184.879961 
L 161.28 186.796334 
L 170.208 188.663098 
L 179.136 193.368819 
L 188.064 196.907889 
L 196.992 200.564259 
L 205.92 205.843548 
L 214.848 212.111912 
L 223.776 219.074211 
L 232.704 225.351725 
L 241.632 229.943932 
L 250.56 238.008616 
L 259.488 243.671875 
L 268.416 245.401248 
L 277.344 249.348504 
L 286.272 252.231908 
L 295.2 255.993206 
L 304.128 258.478957 
L 313.056 263.646339 
L 321.984 265.941494 
L 330.912 269.164162 
L 339.84 271.134849 
L 348.768 272.747717 
L 357.696 274.238451 
L 366.624 277.492494 
L 375.552 279.186577 
L 384.48 280.90909 
L 393.408 283.090318 
L 402.336 287.062988 
L 411.264 289.732128 
L 420.192 292.154165 
L 429.12 294.811954 
L 438.048 297.161778 
L 446.976 300.599849 
L 455.904 302.503674 
L 464.832 306.07536 
L 473.76 310.303572 
L 482.688 311.564922 
L 491.616 312.067077 
L 500.544 312.49757 
L 509.472 313.777299 
L 518.4 314.745063 
" style="fill:none;stroke:#d62728;stroke-linecap:square;stroke-width:1.5;"/>
   </g>
   <g id="line2d_33">
    <path clip-path="url(#p44660ed988)" d="M 72 148.936356 
L 80.928 148.831098 
L 89.856 155.293659 
L 98.784 159.977433 
L 107.712 165.096706 
L 116.64 170.900773 
L 125.568 172.117476 
L 134.496 172.804094 
L 143.424 178.798797 
L 152.352 180.826062 
L 161.28 184.04834 
L 170.208 188.446835 
L 179.136 195.103151 
L 188.064 199.013222 
L 196.992 207.193833 
L 205.92 218.153485 
L 214.848 229.133326 
L 223.776 237.427631 
L 232.704 242.922365 
L 241.632 248.214897 
L 250.56 253.877333 
L 259.488 260.376553 
L 268.416 265.342354 
L 277.344 270.421471 
L 286.272 280.597037 
L 295.2 288.701118 
L 304.128 291.99702 
L 313.056 296.146002 
L 321.984 299.951588 
L 330.912 301.935489 
L 339.84 304.238037 
L 348.768 306.450313 
L 357.696 309.725421 
L 366.624 316.195855 
L 375.552 322.468112 
L 384.48 328.997431 
L 393.408 333.097759 
L 402.336 338.236761 
L 411.264 341.131408 
L 420.192 343.080216 
L 429.12 344.651792 
L 438.048 349.155814 
L 446.976 352.572807 
L 455.904 354.837443 
L 464.832 358.120077 
L 473.76 359.295954 
L 482.688 360.999329 
L 491.616 362.006851 
L 500.544 362.564372 
L 509.472 364.012081 
L 518.4 364.803593 
" style="fill:none;stroke:#9467bd;stroke-linecap:square;stroke-width:1.5;"/>
   </g>
   <g id="line2d_34">
    <path clip-path="url(#p44660ed988)" d="M 72 150.708538 
L 80.928 151.261941 
L 89.856 151.678929 
L 98.784 152.75885 
L 107.712 154.327095 
L 116.64 158.491224 
L 125.568 172.204963 
L 134.496 175.980088 
L 143.424 177.450357 
L 152.352 180.367993 
L 161.28 183.647674 
L 170.208 188.432591 
L 179.136 194.806061 
L 188.064 200.494183 
L 196.992 207.362238 
L 205.92 213.85675 
L 214.848 223.102837 
L 223.776 233.078688 
L 232.704 248.875849 
L 241.632 261.54562 
L 250.56 271.045163 
L 259.488 285.243407 
L 268.416 299.986694 
L 277.344 311.919479 
L 286.272 325.724389 
L 295.2 340.620464 
L 304.128 358.471244 
L 313.056 374.758404 
L 321.984 378.12795 
L 330.912 381.17108 
L 339.84 382.482575 
L 348.768 383.775706 
L 357.696 384.921928 
L 366.624 386.10017 
L 375.552 386.360898 
L 384.48 387.906505 
L 393.408 388.597429 
L 402.336 389.823196 
L 411.264 390.798492 
L 420.192 391.07018 
L 429.12 391.487786 
L 438.048 389.301329 
L 446.976 386.796953 
L 455.904 389.608984 
L 464.832 391.893537 
L 473.76 393.806777 
L 482.688 392.758607 
L 491.616 394.979932 
L 500.544 401.815434 
L 509.472 401.942179 
L 518.4 405.967744 
" style="fill:none;stroke:#8c564b;stroke-linecap:square;stroke-width:1.5;"/>
   </g>
   <g id="line2d_35">
    <path clip-path="url(#p44660ed988)" d="M 72 150.248455 
L 80.928 150.47767 
L 89.856 150.609494 
L 98.784 150.589614 
L 107.712 150.627624 
L 116.64 150.670257 
L 125.568 150.699027 
L 134.496 150.716928 
L 143.424 150.729868 
L 152.352 150.741116 
L 161.28 150.75162 
L 170.208 150.757479 
L 179.136 150.750111 
L 188.064 150.761797 
L 196.992 150.764795 
L 205.92 150.767193 
L 214.848 150.769947 
L 223.776 150.771163 
L 232.704 150.773345 
L 241.632 150.773881 
L 250.56 150.774976 
L 259.488 150.774215 
L 268.416 150.775317 
L 277.344 150.776603 
L 286.272 150.776828 
L 295.2 150.779132 
L 304.128 150.779507 
L 313.056 150.779743 
L 321.984 150.785241 
L 330.912 150.786521 
L 339.84 150.785795 
L 348.768 150.78507 
L 357.696 150.78538 
L 366.624 150.788298 
L 375.552 150.787958 
L 384.48 150.789352 
L 393.408 150.789954 
L 402.336 150.790599 
L 411.264 150.790285 
L 420.192 150.790103 
L 429.12 150.791596 
L 438.048 150.791703 
L 446.976 150.792684 
L 455.904 150.792552 
L 464.832 150.79162 
L 473.76 150.791002 
L 482.688 150.790257 
L 491.616 150.789511 
L 500.544 150.789011 
L 509.472 150.788411 
L 518.4 150.788235 
" style="fill:none;stroke:#e377c2;stroke-linecap:square;stroke-width:1.5;"/>
   </g>
   <g id="patch_3">
    <path d="M 72 384.48 
L 72 51.84 
" style="fill:none;stroke:#000000;stroke-linecap:square;stroke-linejoin:miter;stroke-width:0.8;"/>
   </g>
   <g id="patch_4">
    <path d="M 518.4 384.48 
L 518.4 51.84 
" style="fill:none;stroke:#000000;stroke-linecap:square;stroke-linejoin:miter;stroke-width:0.8;"/>
   </g>
   <g id="patch_5">
    <path d="M 72 384.48 
L 518.4 384.48 
" style="fill:none;stroke:#000000;stroke-linecap:square;stroke-linejoin:miter;stroke-width:0.8;"/>
   </g>
   <g id="patch_6">
    <path d="M 72 51.84 
L 518.4 51.84 
" style="fill:none;stroke:#000000;stroke-linecap:square;stroke-linejoin:miter;stroke-width:0.8;"/>
   </g>
   <g id="legend_1">
    <g id="patch_7">
     <path d="M 79 379.48 
L 165.804688 379.48 
Q 167.804688 379.48 167.804688 377.48 
L 167.804688 275.733125 
Q 167.804688 273.733125 165.804688 273.733125 
L 79 273.733125 
Q 77 273.733125 77 275.733125 
L 77 377.48 
Q 77 379.48 79 379.48 
z
" style="fill:#ffffff;opacity:0.8;stroke:#cccccc;stroke-linejoin:miter;"/>
    </g>
    <g id="line2d_36">
     <path d="M 81 281.831563 
L 101 281.831563 
" style="fill:none;stroke:#1f77b4;stroke-linecap:square;stroke-width:1.5;"/>
    </g>
    <g id="line2d_37"/>
    <g id="text_17">
     <!-- Constant -->
     <defs>
      <path d="M 64.40625 67.28125 
L 64.40625 56.890625 
Q 59.421875 61.53125 53.78125 63.8125 
Q 48.140625 66.109375 41.796875 66.109375 
Q 29.296875 66.109375 22.65625 58.46875 
Q 16.015625 50.828125 16.015625 36.375 
Q 16.015625 21.96875 22.65625 14.328125 
Q 29.296875 6.6875 41.796875 6.6875 
Q 48.140625 6.6875 53.78125 8.984375 
Q 59.421875 11.28125 64.40625 15.921875 
L 64.40625 5.609375 
Q 59.234375 2.09375 53.4375 0.328125 
Q 47.65625 -1.421875 41.21875 -1.421875 
Q 24.65625 -1.421875 15.125 8.703125 
Q 5.609375 18.84375 5.609375 36.375 
Q 5.609375 53.953125 15.125 64.078125 
Q 24.65625 74.21875 41.21875 74.21875 
Q 47.75 74.21875 53.53125 72.484375 
Q 59.328125 70.75 64.40625 67.28125 
z
" id="DejaVuSans-67"/>
      <path d="M 44.28125 53.078125 
L 44.28125 44.578125 
Q 40.484375 46.53125 36.375 47.5 
Q 32.28125 48.484375 27.875 48.484375 
Q 21.1875 48.484375 17.84375 46.4375 
Q 14.5 44.390625 14.5 40.28125 
Q 14.5 37.15625 16.890625 35.375 
Q 19.28125 33.59375 26.515625 31.984375 
L 29.59375 31.296875 
Q 39.15625 29.25 43.1875 25.515625 
Q 47.21875 21.78125 47.21875 15.09375 
Q 47.21875 7.46875 41.1875 3.015625 
Q 35.15625 -1.421875 24.609375 -1.421875 
Q 20.21875 -1.421875 15.453125 -0.5625 
Q 10.6875 0.296875 5.421875 2 
L 5.421875 11.28125 
Q 10.40625 8.6875 15.234375 7.390625 
Q 20.0625 6.109375 24.8125 6.109375 
Q 31.15625 6.109375 34.5625 8.28125 
Q 37.984375 10.453125 37.984375 14.40625 
Q 37.984375 18.0625 35.515625 20.015625 
Q 33.0625 21.96875 24.703125 23.78125 
L 21.578125 24.515625 
Q 13.234375 26.265625 9.515625 29.90625 
Q 5.8125 33.546875 5.8125 39.890625 
Q 5.8125 47.609375 11.28125 51.796875 
Q 16.75 56 26.8125 56 
Q 31.78125 56 36.171875 55.265625 
Q 40.578125 54.546875 44.28125 53.078125 
z
" id="DejaVuSans-115"/>
     </defs>
     <g transform="translate(109 285.331563)scale(0.1 -0.1)">
      <use xlink:href="#DejaVuSans-67"/>
      <use x="69.824219" xlink:href="#DejaVuSans-111"/>
      <use x="131.005859" xlink:href="#DejaVuSans-110"/>
      <use x="194.384766" xlink:href="#DejaVuSans-115"/>
      <use x="246.484375" xlink:href="#DejaVuSans-116"/>
      <use x="285.693359" xlink:href="#DejaVuSans-97"/>
      <use x="346.972656" xlink:href="#DejaVuSans-110"/>
      <use x="410.351562" xlink:href="#DejaVuSans-116"/>
     </g>
    </g>
    <g id="line2d_38">
     <path d="M 81 296.509688 
L 101 296.509688 
" style="fill:none;stroke:#ff7f0e;stroke-linecap:square;stroke-width:1.5;"/>
    </g>
    <g id="line2d_39"/>
    <g id="text_18">
     <!-- RBF -->
     <defs>
      <path d="M 44.390625 34.1875 
Q 47.5625 33.109375 50.5625 29.59375 
Q 53.5625 26.078125 56.59375 19.921875 
L 66.609375 0 
L 56 0 
L 46.6875 18.703125 
Q 43.0625 26.03125 39.671875 28.421875 
Q 36.28125 30.8125 30.421875 30.8125 
L 19.671875 30.8125 
L 19.671875 0 
L 9.8125 0 
L 9.8125 72.90625 
L 32.078125 72.90625 
Q 44.578125 72.90625 50.734375 67.671875 
Q 56.890625 62.453125 56.890625 51.90625 
Q 56.890625 45.015625 53.6875 40.46875 
Q 50.484375 35.9375 44.390625 34.1875 
z
M 19.671875 64.796875 
L 19.671875 38.921875 
L 32.078125 38.921875 
Q 39.203125 38.921875 42.84375 42.21875 
Q 46.484375 45.515625 46.484375 51.90625 
Q 46.484375 58.296875 42.84375 61.546875 
Q 39.203125 64.796875 32.078125 64.796875 
z
" id="DejaVuSans-82"/>
      <path d="M 19.671875 34.8125 
L 19.671875 8.109375 
L 35.5 8.109375 
Q 43.453125 8.109375 47.28125 11.40625 
Q 51.125 14.703125 51.125 21.484375 
Q 51.125 28.328125 47.28125 31.5625 
Q 43.453125 34.8125 35.5 34.8125 
z
M 19.671875 64.796875 
L 19.671875 42.828125 
L 34.28125 42.828125 
Q 41.5 42.828125 45.03125 45.53125 
Q 48.578125 48.25 48.578125 53.8125 
Q 48.578125 59.328125 45.03125 62.0625 
Q 41.5 64.796875 34.28125 64.796875 
z
M 9.8125 72.90625 
L 35.015625 72.90625 
Q 46.296875 72.90625 52.390625 68.21875 
Q 58.5 63.53125 58.5 54.890625 
Q 58.5 48.1875 55.375 44.234375 
Q 52.25 40.28125 46.1875 39.3125 
Q 53.46875 37.75 57.5 32.78125 
Q 61.53125 27.828125 61.53125 20.40625 
Q 61.53125 10.640625 54.890625 5.3125 
Q 48.25 0 35.984375 0 
L 9.8125 0 
z
" id="DejaVuSans-66"/>
      <path d="M 9.8125 72.90625 
L 51.703125 72.90625 
L 51.703125 64.59375 
L 19.671875 64.59375 
L 19.671875 43.109375 
L 48.578125 43.109375 
L 48.578125 34.8125 
L 19.671875 34.8125 
L 19.671875 0 
L 9.8125 0 
z
" id="DejaVuSans-70"/>
     </defs>
     <g transform="translate(109 300.009688)scale(0.1 -0.1)">
      <use xlink:href="#DejaVuSans-82"/>
      <use x="69.482422" xlink:href="#DejaVuSans-66"/>
      <use x="138.085938" xlink:href="#DejaVuSans-70"/>
     </g>
    </g>
    <g id="line2d_40">
     <path d="M 81 311.187813 
L 101 311.187813 
" style="fill:none;stroke:#2ca02c;stroke-linecap:square;stroke-width:1.5;"/>
    </g>
    <g id="line2d_41"/>
    <g id="text_19">
     <!-- Matrn-1/2 -->
     <defs>
      <path d="M 9.8125 72.90625 
L 24.515625 72.90625 
L 43.109375 23.296875 
L 61.8125 72.90625 
L 76.515625 72.90625 
L 76.515625 0 
L 66.890625 0 
L 66.890625 64.015625 
L 48.09375 14.015625 
L 38.1875 14.015625 
L 19.390625 64.015625 
L 19.390625 0 
L 9.8125 0 
z
" id="DejaVuSans-77"/>
      <path d="M 56.203125 29.59375 
L 56.203125 25.203125 
L 14.890625 25.203125 
Q 15.484375 15.921875 20.484375 11.0625 
Q 25.484375 6.203125 34.421875 6.203125 
Q 39.59375 6.203125 44.453125 7.46875 
Q 49.3125 8.734375 54.109375 11.28125 
L 54.109375 2.78125 
Q 49.265625 0.734375 44.1875 -0.34375 
Q 39.109375 -1.421875 33.890625 -1.421875 
Q 20.796875 -1.421875 13.15625 6.1875 
Q 5.515625 13.8125 5.515625 26.8125 
Q 5.515625 40.234375 12.765625 48.109375 
Q 20.015625 56 32.328125 56 
Q 43.359375 56 49.78125 48.890625 
Q 56.203125 41.796875 56.203125 29.59375 
z
M 47.21875 32.234375 
Q 47.125 39.59375 43.09375 43.984375 
Q 39.0625 48.390625 32.421875 48.390625 
Q 24.90625 48.390625 20.390625 44.140625 
Q 15.875 39.890625 15.1875 32.171875 
z
M 38.53125 79.984375 
L 48.25 79.984375 
L 32.34375 61.625 
L 24.859375 61.625 
z
" id="DejaVuSans-233"/>
      <path d="M 4.890625 31.390625 
L 31.203125 31.390625 
L 31.203125 23.390625 
L 4.890625 23.390625 
z
" id="DejaVuSans-45"/>
      <path d="M 25.390625 72.90625 
L 33.6875 72.90625 
L 8.296875 -9.28125 
L 0 -9.28125 
z
" id="DejaVuSans-47"/>
     </defs>
     <g transform="translate(109 314.687813)scale(0.1 -0.1)">
      <use xlink:href="#DejaVuSans-77"/>
      <use x="86.279297" xlink:href="#DejaVuSans-97"/>
      <use x="147.558594" xlink:href="#DejaVuSans-116"/>
      <use x="186.767578" xlink:href="#DejaVuSans-233"/>
      <use x="248.291016" xlink:href="#DejaVuSans-114"/>
      <use x="287.654297" xlink:href="#DejaVuSans-110"/>
      <use x="351.033203" xlink:href="#DejaVuSans-45"/>
      <use x="387.117188" xlink:href="#DejaVuSans-49"/>
      <use x="450.740234" xlink:href="#DejaVuSans-47"/>
      <use x="484.431641" xlink:href="#DejaVuSans-50"/>
     </g>
    </g>
    <g id="line2d_42">
     <path d="M 81 325.865938 
L 101 325.865938 
" style="fill:none;stroke:#d62728;stroke-linecap:square;stroke-width:1.5;"/>
    </g>
    <g id="line2d_43"/>
    <g id="text_20">
     <!-- Matrn-3/2 -->
     <g transform="translate(109 329.365938)scale(0.1 -0.1)">
      <use xlink:href="#DejaVuSans-77"/>
      <use x="86.279297" xlink:href="#DejaVuSans-97"/>
      <use x="147.558594" xlink:href="#DejaVuSans-116"/>
      <use x="186.767578" xlink:href="#DejaVuSans-233"/>
      <use x="248.291016" xlink:href="#DejaVuSans-114"/>
      <use x="287.654297" xlink:href="#DejaVuSans-110"/>
      <use x="351.033203" xlink:href="#DejaVuSans-45"/>
      <use x="387.117188" xlink:href="#DejaVuSans-51"/>
      <use x="450.740234" xlink:href="#DejaVuSans-47"/>
      <use x="484.431641" xlink:href="#DejaVuSans-50"/>
     </g>
    </g>
    <g id="line2d_44">
     <path d="M 81 340.544062 
L 101 340.544062 
" style="fill:none;stroke:#9467bd;stroke-linecap:square;stroke-width:1.5;"/>
    </g>
    <g id="line2d_45"/>
    <g id="text_21">
     <!-- Matrn-5/2 -->
     <g transform="translate(109 344.044062)scale(0.1 -0.1)">
      <use xlink:href="#DejaVuSans-77"/>
      <use x="86.279297" xlink:href="#DejaVuSans-97"/>
      <use x="147.558594" xlink:href="#DejaVuSans-116"/>
      <use x="186.767578" xlink:href="#DejaVuSans-233"/>
      <use x="248.291016" xlink:href="#DejaVuSans-114"/>
      <use x="287.654297" xlink:href="#DejaVuSans-110"/>
      <use x="351.033203" xlink:href="#DejaVuSans-45"/>
      <use x="387.117188" xlink:href="#DejaVuSans-53"/>
      <use x="450.740234" xlink:href="#DejaVuSans-47"/>
      <use x="484.431641" xlink:href="#DejaVuSans-50"/>
     </g>
    </g>
    <g id="line2d_46">
     <path d="M 81 355.222188 
L 101 355.222188 
" style="fill:none;stroke:#8c564b;stroke-linecap:square;stroke-width:1.5;"/>
    </g>
    <g id="line2d_47"/>
    <g id="text_22">
     <!-- RQ -->
     <defs>
      <path d="M 39.40625 66.21875 
Q 28.65625 66.21875 22.328125 58.203125 
Q 16.015625 50.203125 16.015625 36.375 
Q 16.015625 22.609375 22.328125 14.59375 
Q 28.65625 6.59375 39.40625 6.59375 
Q 50.140625 6.59375 56.421875 14.59375 
Q 62.703125 22.609375 62.703125 36.375 
Q 62.703125 50.203125 56.421875 58.203125 
Q 50.140625 66.21875 39.40625 66.21875 
z
M 53.21875 1.3125 
L 66.21875 -12.890625 
L 54.296875 -12.890625 
L 43.5 -1.21875 
Q 41.890625 -1.3125 41.03125 -1.359375 
Q 40.1875 -1.421875 39.40625 -1.421875 
Q 24.03125 -1.421875 14.8125 8.859375 
Q 5.609375 19.140625 5.609375 36.375 
Q 5.609375 53.65625 14.8125 63.9375 
Q 24.03125 74.21875 39.40625 74.21875 
Q 54.734375 74.21875 63.90625 63.9375 
Q 73.09375 53.65625 73.09375 36.375 
Q 73.09375 23.6875 67.984375 14.640625 
Q 62.890625 5.609375 53.21875 1.3125 
z
" id="DejaVuSans-81"/>
     </defs>
     <g transform="translate(109 358.722188)scale(0.1 -0.1)">
      <use xlink:href="#DejaVuSans-82"/>
      <use x="69.482422" xlink:href="#DejaVuSans-81"/>
     </g>
    </g>
    <g id="line2d_48">
     <path d="M 81 369.900313 
L 101 369.900313 
" style="fill:none;stroke:#e377c2;stroke-linecap:square;stroke-width:1.5;"/>
    </g>
    <g id="line2d_49"/>
    <g id="text_23">
     <!-- Dot Prod. -->
     <defs>
      <path d="M 19.671875 64.796875 
L 19.671875 8.109375 
L 31.59375 8.109375 
Q 46.6875 8.109375 53.6875 14.9375 
Q 60.6875 21.78125 60.6875 36.53125 
Q 60.6875 51.171875 53.6875 57.984375 
Q 46.6875 64.796875 31.59375 64.796875 
z
M 9.8125 72.90625 
L 30.078125 72.90625 
Q 51.265625 72.90625 61.171875 64.09375 
Q 71.09375 55.28125 71.09375 36.53125 
Q 71.09375 17.671875 61.125 8.828125 
Q 51.171875 0 30.078125 0 
L 9.8125 0 
z
" id="DejaVuSans-68"/>
      <path d="M 19.671875 64.796875 
L 19.671875 37.40625 
L 32.078125 37.40625 
Q 38.96875 37.40625 42.71875 40.96875 
Q 46.484375 44.53125 46.484375 51.125 
Q 46.484375 57.671875 42.71875 61.234375 
Q 38.96875 64.796875 32.078125 64.796875 
z
M 9.8125 72.90625 
L 32.078125 72.90625 
Q 44.34375 72.90625 50.609375 67.359375 
Q 56.890625 61.8125 56.890625 51.125 
Q 56.890625 40.328125 50.609375 34.8125 
Q 44.34375 29.296875 32.078125 29.296875 
L 19.671875 29.296875 
L 19.671875 0 
L 9.8125 0 
z
" id="DejaVuSans-80"/>
      <path d="M 10.6875 12.40625 
L 21 12.40625 
L 21 0 
L 10.6875 0 
z
" id="DejaVuSans-46"/>
     </defs>
     <g transform="translate(109 373.400313)scale(0.1 -0.1)">
      <use xlink:href="#DejaVuSans-68"/>
      <use x="77.001953" xlink:href="#DejaVuSans-111"/>
      <use x="138.183594" xlink:href="#DejaVuSans-116"/>
      <use x="177.392578" xlink:href="#DejaVuSans-32"/>
      <use x="209.179688" xlink:href="#DejaVuSans-80"/>
      <use x="267.732422" xlink:href="#DejaVuSans-114"/>
      <use x="306.595703" xlink:href="#DejaVuSans-111"/>
      <use x="367.777344" xlink:href="#DejaVuSans-100"/>
      <use x="431.253906" xlink:href="#DejaVuSans-46"/>
     </g>
    </g>
   </g>
  </g>
 </g>
 <defs>
  <clipPath id="p44660ed988">
   <rect height="332.64" width="446.4" x="72" y="51.84"/>
  </clipPath>
 </defs>
</svg>
