<?xml version="1.0" encoding="utf-8" standalone="no"?>
<!DOCTYPE svg PUBLIC "-//W3C//DTD SVG 1.1//EN"
  "http://www.w3.org/Graphics/SVG/1.1/DTD/svg11.dtd">
<!-- Created with matplotlib (https://matplotlib.org/) -->
<svg height="345.6pt" version="1.1" viewBox="0 0 460.8 345.6" width="460.8pt" xmlns="http://www.w3.org/2000/svg" xmlns:xlink="http://www.w3.org/1999/xlink">
 <defs>
  <style type="text/css">
*{stroke-linecap:butt;stroke-linejoin:round;}
  </style>
 </defs>
 <g id="figure_1">
  <g id="patch_1">
   <path d="M 0 345.6 
L 460.8 345.6 
L 460.8 0 
L 0 0 
z
" style="fill:#ffffff;"/>
  </g>
  <g id="axes_1">
   <g id="patch_2">
    <path d="M 57.6 307.584 
L 414.72 307.584 
L 414.72 41.472 
L 57.6 41.472 
z
" style="fill:#ffffff;"/>
   </g>
   <g id="PolyCollection_1">
    <defs>
     <path d="M 87.36 -99.706678 
L 87.36 -99.706678 
L 88.848 -101.537998 
L 90.336 -103.363094 
L 91.824 -105.135721 
L 93.312 -106.810365 
L 94.8 -108.343262 
L 96.288 -109.69342 
L 97.776 -110.823598 
L 99.264 -111.701231 
L 100.752 -112.29927 
L 102.24 -112.596924 
L 103.728 -112.580266 
L 105.216 -112.242707 
L 106.704 -111.596113 
L 108.192 -110.633324 
L 109.68 -109.372307 
L 111.168 -107.839082 
L 112.656 -106.065545 
L 114.144 -104.087989 
L 115.632 -101.9448 
L 117.12 -99.704816 
L 118.608 -97.408091 
L 120.096 -95.109683 
L 121.584 -92.866096 
L 123.072 -90.733965 
L 124.56 -88.768708 
L 126.048 -87.023165 
L 127.536 -85.546274 
L 129.024 -84.381794 
L 130.512 -83.56713 
L 132 -83.132265 
L 133.488 -83.098848 
L 134.976 -83.479451 
L 136.464 -84.277015 
L 137.952 -85.484514 
L 139.44 -87.084833 
L 140.928 -89.050888 
L 142.416 -91.345967 
L 143.904 -93.924317 
L 145.392 -96.731942 
L 146.88 -99.707626 
L 148.368 -102.784136 
L 149.856 -105.896452 
L 151.344 -108.951883 
L 152.832 -111.894695 
L 154.32 -114.630656 
L 155.808 -117.09016 
L 157.296 -119.212672 
L 158.784 -120.927238 
L 160.272 -122.17625 
L 161.76 -122.910877 
L 163.248 -123.092477 
L 164.736 -122.693844 
L 166.224 -121.71155 
L 167.712 -120.124612 
L 169.2 -117.955128 
L 170.688 -115.225233 
L 172.176 -111.975163 
L 173.664 -108.26194 
L 175.152 -104.150102 
L 176.64 -99.71961 
L 178.128 -95.062536 
L 179.616 -90.271431 
L 181.104 -85.470885 
L 182.592 -80.770342 
L 184.08 -76.278399 
L 185.568 -72.11728 
L 187.056 -68.401454 
L 188.544 -65.247347 
L 190.032 -62.765789 
L 191.52 -61.056611 
L 193.008 -60.212922 
L 194.496 -60.316546 
L 195.984 -61.432339 
L 197.472 -63.613213 
L 198.96 -66.895774 
L 200.448 -71.298924 
L 201.936 -76.818167 
L 203.424 -83.427041 
L 204.912 -91.08541 
L 206.4 -99.731042 
L 207.888 -109.285076 
L 209.376 -119.650503 
L 210.864 -130.714898 
L 212.352 -142.350118 
L 213.84 -154.416669 
L 215.328 -166.763808 
L 216.816 -179.232591 
L 218.304 -191.658762 
L 219.792 -203.88744 
L 221.28 -215.739427 
L 222.768 -227.048267 
L 224.256 -237.655396 
L 225.744 -247.408495 
L 227.232 -256.168078 
L 228.72 -263.807534 
L 230.208 -270.21486 
L 231.696 -275.297072 
L 233.184 -278.979713 
L 234.672 -281.203497 
L 236.16 -281.952003 
L 237.648 -281.203468 
L 239.136 -278.97887 
L 240.624 -275.296884 
L 242.112 -270.215342 
L 243.6 -263.808288 
L 245.088 -256.16944 
L 246.576 -247.410182 
L 248.064 -237.657577 
L 249.552 -227.051045 
L 251.04 -215.74265 
L 252.528 -203.890312 
L 254.016 -191.658863 
L 255.504 -179.226249 
L 256.992 -166.751516 
L 258.48 -154.405565 
L 259.968 -142.340584 
L 261.456 -130.70676 
L 262.944 -119.641619 
L 264.432 -109.27639 
L 265.92 -99.723285 
L 267.408 -91.078542 
L 268.896 -83.420299 
L 270.384 -76.807779 
L 271.872 -71.29173 
L 273.36 -66.890994 
L 274.848 -63.60576 
L 276.336 -61.425524 
L 277.824 -60.309844 
L 279.312 -60.206963 
L 280.8 -61.050092 
L 282.288 -62.760101 
L 283.776 -65.24291 
L 285.264 -68.397956 
L 286.752 -72.111941 
L 288.24 -76.277281 
L 289.728 -80.769456 
L 291.216 -85.47143 
L 292.704 -90.27217 
L 294.192 -95.053074 
L 295.68 -99.706669 
L 297.168 -104.133285 
L 298.656 -108.242741 
L 300.144 -111.955801 
L 301.632 -115.205369 
L 303.12 -117.937406 
L 304.608 -120.111553 
L 306.096 -121.701465 
L 307.584 -122.694845 
L 309.072 -123.093187 
L 310.56 -122.911243 
L 312.048 -122.176233 
L 313.536 -120.926811 
L 315.024 -119.211827 
L 316.512 -117.088908 
L 318 -114.622891 
L 319.488 -111.884154 
L 320.976 -108.946868 
L 322.464 -105.887227 
L 323.952 -102.783213 
L 325.44 -99.71595 
L 326.928 -96.738276 
L 328.416 -93.933839 
L 329.904 -91.356495 
L 331.392 -89.054794 
L 332.88 -87.084139 
L 334.368 -85.484399 
L 335.856 -84.27751 
L 337.344 -83.48056 
L 338.832 -83.109445 
L 340.32 -83.147987 
L 341.808 -83.590417 
L 343.296 -84.408879 
L 344.784 -85.576617 
L 346.272 -87.054909 
L 347.76 -88.798815 
L 349.248 -90.760929 
L 350.736 -92.888874 
L 352.224 -95.126508 
L 353.712 -97.416656 
L 355.2 -99.706675 
L 356.688 -101.953273 
L 358.176 -104.089923 
L 359.664 -106.069496 
L 361.152 -107.845332 
L 362.64 -109.379877 
L 364.128 -110.642097 
L 365.616 -111.608376 
L 367.104 -112.261606 
L 368.592 -112.593168 
L 370.08 -112.604822 
L 371.568 -112.302042 
L 373.056 -111.707353 
L 374.544 -110.834321 
L 376.032 -109.706086 
L 377.52 -108.354538 
L 379.008 -106.818596 
L 380.496 -105.140308 
L 381.984 -103.37059 
L 383.472 -101.546409 
L 384.96 -99.708472 
L 384.96 -99.704883 
L 384.96 -99.704883 
L 383.472 -101.530596 
L 381.984 -103.357356 
L 380.496 -105.133337 
L 379.008 -106.80447 
L 377.52 -108.334171 
L 376.032 -109.682558 
L 374.544 -110.814134 
L 373.056 -111.695739 
L 371.568 -112.296496 
L 370.08 -112.588459 
L 368.592 -112.566365 
L 367.104 -112.22256 
L 365.616 -111.560953 
L 364.128 -110.590635 
L 362.64 -109.32769 
L 361.152 -107.796739 
L 359.664 -106.029225 
L 358.176 -104.063159 
L 356.688 -101.939036 
L 355.2 -99.706675 
L 353.712 -97.404202 
L 352.224 -95.098382 
L 350.736 -92.849527 
L 349.248 -90.713692 
L 347.76 -88.745537 
L 346.272 -86.998349 
L 344.784 -85.522594 
L 343.296 -84.360861 
L 341.808 -83.549255 
L 340.32 -83.121023 
L 338.832 -83.091651 
L 337.344 -83.48056 
L 335.856 -84.27751 
L 334.368 -85.484399 
L 332.88 -87.084139 
L 331.392 -89.044543 
L 329.904 -91.332101 
L 328.416 -93.910741 
L 326.928 -96.721047 
L 325.44 -99.694453 
L 323.952 -102.780145 
L 322.464 -105.887227 
L 320.976 -108.946868 
L 319.488 -111.884154 
L 318 -114.622891 
L 316.512 -117.088908 
L 315.024 -119.211827 
L 313.536 -120.926811 
L 312.048 -122.176233 
L 310.56 -122.911243 
L 309.072 -123.093187 
L 307.584 -122.694845 
L 306.096 -121.701465 
L 304.608 -120.111553 
L 303.12 -117.937406 
L 301.632 -115.205369 
L 300.144 -111.955801 
L 298.656 -108.242741 
L 297.168 -104.133285 
L 295.68 -99.706669 
L 294.192 -95.053074 
L 292.704 -90.27217 
L 291.216 -85.47143 
L 289.728 -80.759004 
L 288.24 -76.258281 
L 286.752 -72.089916 
L 285.264 -68.365749 
L 283.776 -65.208545 
L 282.288 -62.724651 
L 280.8 -61.017843 
L 279.312 -60.178653 
L 277.824 -60.288695 
L 276.336 -61.414281 
L 274.848 -63.60576 
L 273.36 -66.890994 
L 271.872 -71.29173 
L 270.384 -76.802762 
L 268.896 -83.398952 
L 267.408 -91.048271 
L 265.92 -99.688861 
L 264.432 -109.240697 
L 262.944 -119.606697 
L 261.456 -130.673213 
L 259.968 -142.31632 
L 258.48 -154.39293 
L 256.992 -166.751516 
L 255.504 -179.226249 
L 254.016 -191.658863 
L 252.528 -203.873514 
L 251.04 -215.713115 
L 249.552 -227.012963 
L 248.064 -237.612547 
L 246.576 -247.362051 
L 245.088 -256.120766 
L 243.6 -263.762224 
L 242.112 -270.175286 
L 240.624 -275.266034 
L 239.136 -278.959044 
L 237.648 -281.203468 
L 236.16 -281.952003 
L 234.672 -281.203497 
L 233.184 -278.95831 
L 231.696 -275.265999 
L 230.208 -270.175951 
L 228.72 -263.763174 
L 227.232 -256.122319 
L 225.744 -247.363905 
L 224.256 -237.614852 
L 222.768 -227.015803 
L 221.28 -215.716323 
L 219.792 -203.876282 
L 218.304 -191.658762 
L 216.816 -179.219607 
L 215.328 -166.738831 
L 213.84 -154.38135 
L 212.352 -142.306243 
L 210.864 -130.664487 
L 209.376 -119.597206 
L 207.888 -109.231413 
L 206.4 -99.680548 
L 204.912 -91.040915 
L 203.424 -83.391818 
L 201.936 -76.7921 
L 200.448 -71.284395 
L 198.96 -66.886213 
L 197.472 -63.598443 
L 195.984 -61.407723 
L 194.496 -60.282348 
L 193.008 -60.173108 
L 191.52 -61.011752 
L 190.032 -62.71935 
L 188.544 -65.204394 
L 187.056 -68.362371 
L 185.568 -72.084471 
L 184.08 -76.256773 
L 182.592 -80.757396 
L 181.104 -85.470885 
L 179.616 -90.271431 
L 178.128 -95.041746 
L 176.64 -99.691495 
L 175.152 -104.113912 
L 173.664 -108.22073 
L 172.176 -111.93346 
L 170.688 -115.182465 
L 169.2 -117.916703 
L 167.712 -120.095706 
L 166.224 -121.688919 
L 164.736 -122.693844 
L 163.248 -123.092477 
L 161.76 -122.910877 
L 160.272 -122.17625 
L 158.784 -120.927238 
L 157.296 -119.212672 
L 155.808 -117.09016 
L 154.32 -114.618383 
L 152.832 -111.87752 
L 151.344 -108.946275 
L 149.856 -105.882769 
L 148.368 -102.784136 
L 146.88 -99.707626 
L 145.392 -96.731942 
L 143.904 -93.924317 
L 142.416 -91.345967 
L 140.928 -89.050888 
L 139.44 -87.084833 
L 137.952 -85.484514 
L 136.464 -84.277015 
L 134.976 -83.479451 
L 133.488 -83.098848 
L 132 -83.132265 
L 130.512 -83.56713 
L 129.024 -84.381794 
L 127.536 -85.546274 
L 126.048 -87.023165 
L 124.56 -88.768708 
L 123.072 -90.733965 
L 121.584 -92.866096 
L 120.096 -95.109683 
L 118.608 -97.408091 
L 117.12 -99.704816 
L 115.632 -101.9448 
L 114.144 -104.063383 
L 112.656 -106.032396 
L 111.168 -107.803014 
L 109.68 -109.335918 
L 108.192 -110.600492 
L 106.704 -111.574496 
L 105.216 -112.242707 
L 103.728 -112.580266 
L 102.24 -112.596924 
L 100.752 -112.29927 
L 99.264 -111.701231 
L 97.776 -110.823598 
L 96.288 -109.69342 
L 94.8 -108.343262 
L 93.312 -106.810365 
L 91.824 -105.135721 
L 90.336 -103.363094 
L 88.848 -101.537998 
L 87.36 -99.706678 
z
" id="m9c792006de"/>
    </defs>
    <g clip-path="url(#p9b586082ff)">
     <use style="fill:#347aeb;fill-opacity:0.6;" x="0" xlink:href="#m9c792006de" y="345.6"/>
    </g>
   </g>
   <g id="PathCollection_1">
    <defs>
     <path d="M 0 3 
C 0.795609 3 1.55874 2.683901 2.12132 2.12132 
C 2.683901 1.55874 3 0.795609 3 0 
C 3 -0.795609 2.683901 -1.55874 2.12132 -2.12132 
C 1.55874 -2.683901 0.795609 -3 0 -3 
C -0.795609 -3 -1.55874 -2.683901 -2.12132 -2.12132 
C -2.683901 -1.55874 -3 -0.795609 -3 0 
C -3 0.795609 -2.683901 1.55874 -2.12132 2.12132 
C -1.55874 2.683901 -0.795609 3 0 3 
z
" id="me1eca4f2f2" style="stroke:#1f77b4;"/>
    </defs>
    <g clip-path="url(#p9b586082ff)">
     <use style="fill:#1f77b4;stroke:#1f77b4;" x="87.36" xlink:href="#me1eca4f2f2" y="245.893322"/>
     <use style="fill:#1f77b4;stroke:#1f77b4;" x="93.312" xlink:href="#me1eca4f2f2" y="238.789633"/>
     <use style="fill:#1f77b4;stroke:#1f77b4;" x="100.752" xlink:href="#me1eca4f2f2" y="233.300733"/>
     <use style="fill:#1f77b4;stroke:#1f77b4;" x="121.584" xlink:href="#me1eca4f2f2" y="252.733897"/>
     <use style="fill:#1f77b4;stroke:#1f77b4;" x="132" xlink:href="#me1eca4f2f2" y="262.467748"/>
     <use style="fill:#1f77b4;stroke:#1f77b4;" x="142.416" xlink:href="#me1eca4f2f2" y="254.254024"/>
     <use style="fill:#1f77b4;stroke:#1f77b4;" x="161.76" xlink:href="#me1eca4f2f2" y="222.689127"/>
     <use style="fill:#1f77b4;stroke:#1f77b4;" x="181.104" xlink:href="#me1eca4f2f2" y="260.129112"/>
     <use style="fill:#1f77b4;stroke:#1f77b4;" x="198.96" xlink:href="#me1eca4f2f2" y="278.70901"/>
     <use style="fill:#1f77b4;stroke:#1f77b4;" x="218.304" xlink:href="#me1eca4f2f2" y="153.941235"/>
     <use style="fill:#1f77b4;stroke:#1f77b4;" x="236.16" xlink:href="#me1eca4f2f2" y="63.648"/>
     <use style="fill:#1f77b4;stroke:#1f77b4;" x="255.504" xlink:href="#me1eca4f2f2" y="166.373748"/>
     <use style="fill:#1f77b4;stroke:#1f77b4;" x="273.36" xlink:href="#me1eca4f2f2" y="278.70901"/>
     <use style="fill:#1f77b4;stroke:#1f77b4;" x="295.68" xlink:href="#me1eca4f2f2" y="245.893322"/>
     <use style="fill:#1f77b4;stroke:#1f77b4;" x="306.096" xlink:href="#me1eca4f2f2" y="223.898547"/>
     <use style="fill:#1f77b4;stroke:#1f77b4;" x="318" xlink:href="#me1eca4f2f2" y="230.977101"/>
     <use style="fill:#1f77b4;stroke:#1f77b4;" x="335.856" xlink:href="#me1eca4f2f2" y="261.322494"/>
     <use style="fill:#1f77b4;stroke:#1f77b4;" x="355.2" xlink:href="#me1eca4f2f2" y="245.893322"/>
     <use style="fill:#1f77b4;stroke:#1f77b4;" x="371.568" xlink:href="#me1eca4f2f2" y="233.300733"/>
     <use style="fill:#1f77b4;stroke:#1f77b4;" x="380.496" xlink:href="#me1eca4f2f2" y="240.463176"/>
     <use style="fill:#1f77b4;stroke:#1f77b4;" x="384.96" xlink:href="#me1eca4f2f2" y="245.893322"/>
    </g>
   </g>
   <g id="matplotlib.axis_1">
    <g id="xtick_1">
     <g id="line2d_1">
      <defs>
       <path d="M 0 0 
L 0 3.5 
" id="m9b413f2dc5" style="stroke:#000000;stroke-width:0.8;"/>
      </defs>
      <g>
       <use style="stroke:#000000;stroke-width:0.8;" x="57.6" xlink:href="#m9b413f2dc5" y="307.584"/>
      </g>
     </g>
     <g id="text_1">
      <!-- −6 -->
      <defs>
       <path d="M 10.59375 35.5 
L 73.1875 35.5 
L 73.1875 27.203125 
L 10.59375 27.203125 
z
" id="DejaVuSans-8722"/>
       <path d="M 33.015625 40.375 
Q 26.375 40.375 22.484375 35.828125 
Q 18.609375 31.296875 18.609375 23.390625 
Q 18.609375 15.53125 22.484375 10.953125 
Q 26.375 6.390625 33.015625 6.390625 
Q 39.65625 6.390625 43.53125 10.953125 
Q 47.40625 15.53125 47.40625 23.390625 
Q 47.40625 31.296875 43.53125 35.828125 
Q 39.65625 40.375 33.015625 40.375 
z
M 52.59375 71.296875 
L 52.59375 62.3125 
Q 48.875 64.0625 45.09375 64.984375 
Q 41.3125 65.921875 37.59375 65.921875 
Q 27.828125 65.921875 22.671875 59.328125 
Q 17.53125 52.734375 16.796875 39.40625 
Q 19.671875 43.65625 24.015625 45.921875 
Q 28.375 48.1875 33.59375 48.1875 
Q 44.578125 48.1875 50.953125 41.515625 
Q 57.328125 34.859375 57.328125 23.390625 
Q 57.328125 12.15625 50.6875 5.359375 
Q 44.046875 -1.421875 33.015625 -1.421875 
Q 20.359375 -1.421875 13.671875 8.265625 
Q 6.984375 17.96875 6.984375 36.375 
Q 6.984375 53.65625 15.1875 63.9375 
Q 23.390625 74.21875 37.203125 74.21875 
Q 40.921875 74.21875 44.703125 73.484375 
Q 48.484375 72.75 52.59375 71.296875 
z
" id="DejaVuSans-54"/>
      </defs>
      <g transform="translate(50.228906 322.182437)scale(0.1 -0.1)">
       <use xlink:href="#DejaVuSans-8722"/>
       <use x="83.789062" xlink:href="#DejaVuSans-54"/>
      </g>
     </g>
    </g>
    <g id="xtick_2">
     <g id="line2d_2">
      <g>
       <use style="stroke:#000000;stroke-width:0.8;" x="117.12" xlink:href="#m9b413f2dc5" y="307.584"/>
      </g>
     </g>
     <g id="text_2">
      <!-- −4 -->
      <defs>
       <path d="M 37.796875 64.3125 
L 12.890625 25.390625 
L 37.796875 25.390625 
z
M 35.203125 72.90625 
L 47.609375 72.90625 
L 47.609375 25.390625 
L 58.015625 25.390625 
L 58.015625 17.1875 
L 47.609375 17.1875 
L 47.609375 0 
L 37.796875 0 
L 37.796875 17.1875 
L 4.890625 17.1875 
L 4.890625 26.703125 
z
" id="DejaVuSans-52"/>
      </defs>
      <g transform="translate(109.748906 322.182437)scale(0.1 -0.1)">
       <use xlink:href="#DejaVuSans-8722"/>
       <use x="83.789062" xlink:href="#DejaVuSans-52"/>
      </g>
     </g>
    </g>
    <g id="xtick_3">
     <g id="line2d_3">
      <g>
       <use style="stroke:#000000;stroke-width:0.8;" x="176.64" xlink:href="#m9b413f2dc5" y="307.584"/>
      </g>
     </g>
     <g id="text_3">
      <!-- −2 -->
      <defs>
       <path d="M 19.1875 8.296875 
L 53.609375 8.296875 
L 53.609375 0 
L 7.328125 0 
L 7.328125 8.296875 
Q 12.9375 14.109375 22.625 23.890625 
Q 32.328125 33.6875 34.8125 36.53125 
Q 39.546875 41.84375 41.421875 45.53125 
Q 43.3125 49.21875 43.3125 52.78125 
Q 43.3125 58.59375 39.234375 62.25 
Q 35.15625 65.921875 28.609375 65.921875 
Q 23.96875 65.921875 18.8125 64.3125 
Q 13.671875 62.703125 7.8125 59.421875 
L 7.8125 69.390625 
Q 13.765625 71.78125 18.9375 73 
Q 24.125 74.21875 28.421875 74.21875 
Q 39.75 74.21875 46.484375 68.546875 
Q 53.21875 62.890625 53.21875 53.421875 
Q 53.21875 48.921875 51.53125 44.890625 
Q 49.859375 40.875 45.40625 35.40625 
Q 44.1875 33.984375 37.640625 27.21875 
Q 31.109375 20.453125 19.1875 8.296875 
z
" id="DejaVuSans-50"/>
      </defs>
      <g transform="translate(169.268906 322.182437)scale(0.1 -0.1)">
       <use xlink:href="#DejaVuSans-8722"/>
       <use x="83.789062" xlink:href="#DejaVuSans-50"/>
      </g>
     </g>
    </g>
    <g id="xtick_4">
     <g id="line2d_4">
      <g>
       <use style="stroke:#000000;stroke-width:0.8;" x="236.16" xlink:href="#m9b413f2dc5" y="307.584"/>
      </g>
     </g>
     <g id="text_4">
      <!-- 0 -->
      <defs>
       <path d="M 31.78125 66.40625 
Q 24.171875 66.40625 20.328125 58.90625 
Q 16.5 51.421875 16.5 36.375 
Q 16.5 21.390625 20.328125 13.890625 
Q 24.171875 6.390625 31.78125 6.390625 
Q 39.453125 6.390625 43.28125 13.890625 
Q 47.125 21.390625 47.125 36.375 
Q 47.125 51.421875 43.28125 58.90625 
Q 39.453125 66.40625 31.78125 66.40625 
z
M 31.78125 74.21875 
Q 44.046875 74.21875 50.515625 64.515625 
Q 56.984375 54.828125 56.984375 36.375 
Q 56.984375 17.96875 50.515625 8.265625 
Q 44.046875 -1.421875 31.78125 -1.421875 
Q 19.53125 -1.421875 13.0625 8.265625 
Q 6.59375 17.96875 6.59375 36.375 
Q 6.59375 54.828125 13.0625 64.515625 
Q 19.53125 74.21875 31.78125 74.21875 
z
" id="DejaVuSans-48"/>
      </defs>
      <g transform="translate(232.97875 322.182437)scale(0.1 -0.1)">
       <use xlink:href="#DejaVuSans-48"/>
      </g>
     </g>
    </g>
    <g id="xtick_5">
     <g id="line2d_5">
      <g>
       <use style="stroke:#000000;stroke-width:0.8;" x="295.68" xlink:href="#m9b413f2dc5" y="307.584"/>
      </g>
     </g>
     <g id="text_5">
      <!-- 2 -->
      <g transform="translate(292.49875 322.182437)scale(0.1 -0.1)">
       <use xlink:href="#DejaVuSans-50"/>
      </g>
     </g>
    </g>
    <g id="xtick_6">
     <g id="line2d_6">
      <g>
       <use style="stroke:#000000;stroke-width:0.8;" x="355.2" xlink:href="#m9b413f2dc5" y="307.584"/>
      </g>
     </g>
     <g id="text_6">
      <!-- 4 -->
      <g transform="translate(352.01875 322.182437)scale(0.1 -0.1)">
       <use xlink:href="#DejaVuSans-52"/>
      </g>
     </g>
    </g>
    <g id="xtick_7">
     <g id="line2d_7">
      <g>
       <use style="stroke:#000000;stroke-width:0.8;" x="414.72" xlink:href="#m9b413f2dc5" y="307.584"/>
      </g>
     </g>
     <g id="text_7">
      <!-- 6 -->
      <g transform="translate(411.53875 322.182437)scale(0.1 -0.1)">
       <use xlink:href="#DejaVuSans-54"/>
      </g>
     </g>
    </g>
   </g>
   <g id="matplotlib.axis_2">
    <g id="ytick_1">
     <g id="line2d_8">
      <defs>
       <path d="M 0 0 
L -3.5 0 
" id="m6fffcd8ecb" style="stroke:#000000;stroke-width:0.8;"/>
      </defs>
      <g>
       <use style="stroke:#000000;stroke-width:0.8;" x="57.6" xlink:href="#m6fffcd8ecb" y="282.342387"/>
      </g>
     </g>
     <g id="text_8">
      <!-- −0.2 -->
      <defs>
       <path d="M 10.6875 12.40625 
L 21 12.40625 
L 21 0 
L 10.6875 0 
z
" id="DejaVuSans-46"/>
      </defs>
      <g transform="translate(26.317187 286.141606)scale(0.1 -0.1)">
       <use xlink:href="#DejaVuSans-8722"/>
       <use x="83.789062" xlink:href="#DejaVuSans-48"/>
       <use x="147.412109" xlink:href="#DejaVuSans-46"/>
       <use x="179.199219" xlink:href="#DejaVuSans-50"/>
      </g>
     </g>
    </g>
    <g id="ytick_2">
     <g id="line2d_9">
      <g>
       <use style="stroke:#000000;stroke-width:0.8;" x="57.6" xlink:href="#m6fffcd8ecb" y="245.893322"/>
      </g>
     </g>
     <g id="text_9">
      <!-- 0.0 -->
      <g transform="translate(34.696875 249.692541)scale(0.1 -0.1)">
       <use xlink:href="#DejaVuSans-48"/>
       <use x="63.623047" xlink:href="#DejaVuSans-46"/>
       <use x="95.410156" xlink:href="#DejaVuSans-48"/>
      </g>
     </g>
    </g>
    <g id="ytick_3">
     <g id="line2d_10">
      <g>
       <use style="stroke:#000000;stroke-width:0.8;" x="57.6" xlink:href="#m6fffcd8ecb" y="209.444258"/>
      </g>
     </g>
     <g id="text_10">
      <!-- 0.2 -->
      <g transform="translate(34.696875 213.243477)scale(0.1 -0.1)">
       <use xlink:href="#DejaVuSans-48"/>
       <use x="63.623047" xlink:href="#DejaVuSans-46"/>
       <use x="95.410156" xlink:href="#DejaVuSans-50"/>
      </g>
     </g>
    </g>
    <g id="ytick_4">
     <g id="line2d_11">
      <g>
       <use style="stroke:#000000;stroke-width:0.8;" x="57.6" xlink:href="#m6fffcd8ecb" y="172.995193"/>
      </g>
     </g>
     <g id="text_11">
      <!-- 0.4 -->
      <g transform="translate(34.696875 176.794412)scale(0.1 -0.1)">
       <use xlink:href="#DejaVuSans-48"/>
       <use x="63.623047" xlink:href="#DejaVuSans-46"/>
       <use x="95.410156" xlink:href="#DejaVuSans-52"/>
      </g>
     </g>
    </g>
    <g id="ytick_5">
     <g id="line2d_12">
      <g>
       <use style="stroke:#000000;stroke-width:0.8;" x="57.6" xlink:href="#m6fffcd8ecb" y="136.546129"/>
      </g>
     </g>
     <g id="text_12">
      <!-- 0.6 -->
      <g transform="translate(34.696875 140.345348)scale(0.1 -0.1)">
       <use xlink:href="#DejaVuSans-48"/>
       <use x="63.623047" xlink:href="#DejaVuSans-46"/>
       <use x="95.410156" xlink:href="#DejaVuSans-54"/>
      </g>
     </g>
    </g>
    <g id="ytick_6">
     <g id="line2d_13">
      <g>
       <use style="stroke:#000000;stroke-width:0.8;" x="57.6" xlink:href="#m6fffcd8ecb" y="100.097064"/>
      </g>
     </g>
     <g id="text_13">
      <!-- 0.8 -->
      <defs>
       <path d="M 31.78125 34.625 
Q 24.75 34.625 20.71875 30.859375 
Q 16.703125 27.09375 16.703125 20.515625 
Q 16.703125 13.921875 20.71875 10.15625 
Q 24.75 6.390625 31.78125 6.390625 
Q 38.8125 6.390625 42.859375 10.171875 
Q 46.921875 13.96875 46.921875 20.515625 
Q 46.921875 27.09375 42.890625 30.859375 
Q 38.875 34.625 31.78125 34.625 
z
M 21.921875 38.8125 
Q 15.578125 40.375 12.03125 44.71875 
Q 8.5 49.078125 8.5 55.328125 
Q 8.5 64.0625 14.71875 69.140625 
Q 20.953125 74.21875 31.78125 74.21875 
Q 42.671875 74.21875 48.875 69.140625 
Q 55.078125 64.0625 55.078125 55.328125 
Q 55.078125 49.078125 51.53125 44.71875 
Q 48 40.375 41.703125 38.8125 
Q 48.828125 37.15625 52.796875 32.3125 
Q 56.78125 27.484375 56.78125 20.515625 
Q 56.78125 9.90625 50.3125 4.234375 
Q 43.84375 -1.421875 31.78125 -1.421875 
Q 19.734375 -1.421875 13.25 4.234375 
Q 6.78125 9.90625 6.78125 20.515625 
Q 6.78125 27.484375 10.78125 32.3125 
Q 14.796875 37.15625 21.921875 38.8125 
z
M 18.3125 54.390625 
Q 18.3125 48.734375 21.84375 45.5625 
Q 25.390625 42.390625 31.78125 42.390625 
Q 38.140625 42.390625 41.71875 45.5625 
Q 45.3125 48.734375 45.3125 54.390625 
Q 45.3125 60.0625 41.71875 63.234375 
Q 38.140625 66.40625 31.78125 66.40625 
Q 25.390625 66.40625 21.84375 63.234375 
Q 18.3125 60.0625 18.3125 54.390625 
z
" id="DejaVuSans-56"/>
      </defs>
      <g transform="translate(34.696875 103.896283)scale(0.1 -0.1)">
       <use xlink:href="#DejaVuSans-48"/>
       <use x="63.623047" xlink:href="#DejaVuSans-46"/>
       <use x="95.410156" xlink:href="#DejaVuSans-56"/>
      </g>
     </g>
    </g>
    <g id="ytick_7">
     <g id="line2d_14">
      <g>
       <use style="stroke:#000000;stroke-width:0.8;" x="57.6" xlink:href="#m6fffcd8ecb" y="63.648"/>
      </g>
     </g>
     <g id="text_14">
      <!-- 1.0 -->
      <defs>
       <path d="M 12.40625 8.296875 
L 28.515625 8.296875 
L 28.515625 63.921875 
L 10.984375 60.40625 
L 10.984375 69.390625 
L 28.421875 72.90625 
L 38.28125 72.90625 
L 38.28125 8.296875 
L 54.390625 8.296875 
L 54.390625 0 
L 12.40625 0 
z
" id="DejaVuSans-49"/>
      </defs>
      <g transform="translate(34.696875 67.447219)scale(0.1 -0.1)">
       <use xlink:href="#DejaVuSans-49"/>
       <use x="63.623047" xlink:href="#DejaVuSans-46"/>
       <use x="95.410156" xlink:href="#DejaVuSans-48"/>
      </g>
     </g>
    </g>
   </g>
   <g id="line2d_15">
    <path clip-path="url(#p9b586082ff)" d="M 87.36 245.893322 
L 91.824 240.464279 
L 94.8 237.256738 
L 96.288 235.90658 
L 97.776 234.776402 
L 99.264 233.898769 
L 100.752 233.30073 
L 102.24 233.003076 
L 103.728 233.019734 
L 105.216 233.357293 
L 106.704 234.014695 
L 108.192 234.983092 
L 109.68 236.245888 
L 111.168 237.778952 
L 112.656 239.551029 
L 115.632 243.6552 
L 123.072 254.866035 
L 124.56 256.831292 
L 126.048 258.576835 
L 127.536 260.053726 
L 129.024 261.218206 
L 130.512 262.03287 
L 132 262.467735 
L 133.488 262.501152 
L 134.976 262.120549 
L 136.464 261.322985 
L 137.952 260.115486 
L 139.44 258.515167 
L 140.928 256.549112 
L 142.416 254.254033 
L 143.904 251.675683 
L 146.88 245.892374 
L 152.832 233.713892 
L 154.32 230.975481 
L 155.808 228.50984 
L 157.296 226.387328 
L 158.784 224.672762 
L 160.272 223.42375 
L 161.76 222.689123 
L 163.248 222.507523 
L 164.736 222.906156 
L 166.224 223.899765 
L 167.712 225.489841 
L 169.2 227.664084 
L 170.688 230.396151 
L 172.176 233.645689 
L 173.664 237.358665 
L 176.64 245.894447 
L 185.568 273.499125 
L 187.056 277.218087 
L 188.544 280.37413 
L 190.032 282.85743 
L 191.52 284.565819 
L 193.008 285.406985 
L 194.496 285.300553 
L 195.984 284.179969 
L 197.472 281.994172 
L 198.96 278.709007 
L 200.448 274.30834 
L 201.936 268.794867 
L 203.424 262.190571 
L 204.912 254.536837 
L 206.4 245.894205 
L 207.888 236.341756 
L 210.864 214.910308 
L 213.84 191.20099 
L 221.28 129.872125 
L 224.256 107.964876 
L 225.744 98.2138 
L 227.232 89.454802 
L 228.72 81.814646 
L 230.208 75.404595 
L 231.696 70.318465 
L 233.184 66.630988 
L 234.672 64.396503 
L 236.16 63.647997 
L 237.648 64.396532 
L 239.136 66.631043 
L 240.624 70.318541 
L 242.112 75.404686 
L 243.6 81.814744 
L 245.088 89.454897 
L 246.576 98.213884 
L 248.064 107.964938 
L 251.04 129.872118 
L 254.016 153.941137 
L 259.968 203.271548 
L 262.944 225.975842 
L 264.432 236.341457 
L 265.92 245.893927 
L 267.408 254.536593 
L 268.896 262.190374 
L 270.384 268.79473 
L 271.872 274.30827 
L 273.36 278.709006 
L 274.848 281.99424 
L 276.336 284.180097 
L 277.824 285.30073 
L 279.312 285.407192 
L 280.8 284.566033 
L 282.288 282.857624 
L 283.776 280.374272 
L 285.264 277.218148 
L 286.752 273.499072 
L 289.728 264.83577 
L 297.168 241.466715 
L 298.656 237.357259 
L 300.144 233.644199 
L 301.632 230.394631 
L 303.12 227.662594 
L 304.608 225.488447 
L 306.096 223.898535 
L 307.584 222.905155 
L 309.072 222.506813 
L 310.56 222.688757 
L 312.048 223.423767 
L 313.536 224.673189 
L 315.024 226.388173 
L 316.512 228.511092 
L 318 230.977109 
L 320.976 236.653132 
L 326.928 248.870339 
L 329.904 254.255702 
L 331.392 256.550331 
L 332.88 258.515861 
L 334.368 260.115601 
L 335.856 261.32249 
L 337.344 262.11944 
L 338.832 262.499452 
L 340.32 262.465495 
L 341.808 262.030164 
L 343.296 261.21513 
L 344.784 260.050394 
L 346.272 258.573371 
L 347.76 256.827824 
L 350.736 252.7308 
L 358.176 241.523459 
L 359.664 239.55064 
L 361.152 237.778965 
L 362.64 236.246217 
L 364.128 234.983634 
L 365.616 234.015335 
L 367.104 233.357917 
L 368.592 233.020233 
L 370.08 233.003359 
L 371.568 233.300731 
L 373.056 233.898454 
L 374.544 234.775772 
L 376.032 235.905678 
L 377.52 237.255645 
L 380.496 240.463177 
L 384.96 245.893322 
L 384.96 245.893322 
" style="fill:none;stroke:#333333;stroke-linecap:square;stroke-width:1.5;"/>
   </g>
   <g id="line2d_16">
    <path clip-path="url(#p9b586082ff)" d="M 87.36 245.893322 
L 93.312 238.789633 
L 100.752 233.300733 
L 121.584 252.733897 
L 132 262.467748 
L 142.416 254.254024 
L 161.76 222.689127 
L 181.104 260.129112 
L 198.96 278.70901 
L 218.304 153.941235 
L 236.16 63.648 
L 255.504 166.373748 
L 273.36 278.70901 
L 295.68 245.893322 
L 306.096 223.898547 
L 318 230.977101 
L 335.856 261.322494 
L 355.2 245.893322 
L 371.568 233.300733 
L 380.496 240.463176 
L 384.96 245.893322 
" style="fill:none;stroke:#666666;stroke-linecap:square;stroke-width:1.5;"/>
    <defs>
     <path d="M 0 3 
C 0.795609 3 1.55874 2.683901 2.12132 2.12132 
C 2.683901 1.55874 3 0.795609 3 0 
C 3 -0.795609 2.683901 -1.55874 2.12132 -2.12132 
C 1.55874 -2.683901 0.795609 -3 0 -3 
C -0.795609 -3 -1.55874 -2.683901 -2.12132 -2.12132 
C -2.683901 -1.55874 -3 -0.795609 -3 0 
C -3 0.795609 -2.683901 1.55874 -2.12132 2.12132 
C -1.55874 2.683901 -0.795609 3 0 3 
z
" id="m2579fa1307" style="stroke:#666666;"/>
    </defs>
    <g clip-path="url(#p9b586082ff)">
     <use style="fill:#666666;stroke:#666666;" x="87.36" xlink:href="#m2579fa1307" y="245.893322"/>
     <use style="fill:#666666;stroke:#666666;" x="93.312" xlink:href="#m2579fa1307" y="238.789633"/>
     <use style="fill:#666666;stroke:#666666;" x="100.752" xlink:href="#m2579fa1307" y="233.300733"/>
     <use style="fill:#666666;stroke:#666666;" x="121.584" xlink:href="#m2579fa1307" y="252.733897"/>
     <use style="fill:#666666;stroke:#666666;" x="132" xlink:href="#m2579fa1307" y="262.467748"/>
     <use style="fill:#666666;stroke:#666666;" x="142.416" xlink:href="#m2579fa1307" y="254.254024"/>
     <use style="fill:#666666;stroke:#666666;" x="161.76" xlink:href="#m2579fa1307" y="222.689127"/>
     <use style="fill:#666666;stroke:#666666;" x="181.104" xlink:href="#m2579fa1307" y="260.129112"/>
     <use style="fill:#666666;stroke:#666666;" x="198.96" xlink:href="#m2579fa1307" y="278.70901"/>
     <use style="fill:#666666;stroke:#666666;" x="218.304" xlink:href="#m2579fa1307" y="153.941235"/>
     <use style="fill:#666666;stroke:#666666;" x="236.16" xlink:href="#m2579fa1307" y="63.648"/>
     <use style="fill:#666666;stroke:#666666;" x="255.504" xlink:href="#m2579fa1307" y="166.373748"/>
     <use style="fill:#666666;stroke:#666666;" x="273.36" xlink:href="#m2579fa1307" y="278.70901"/>
     <use style="fill:#666666;stroke:#666666;" x="295.68" xlink:href="#m2579fa1307" y="245.893322"/>
     <use style="fill:#666666;stroke:#666666;" x="306.096" xlink:href="#m2579fa1307" y="223.898547"/>
     <use style="fill:#666666;stroke:#666666;" x="318" xlink:href="#m2579fa1307" y="230.977101"/>
     <use style="fill:#666666;stroke:#666666;" x="335.856" xlink:href="#m2579fa1307" y="261.322494"/>
     <use style="fill:#666666;stroke:#666666;" x="355.2" xlink:href="#m2579fa1307" y="245.893322"/>
     <use style="fill:#666666;stroke:#666666;" x="371.568" xlink:href="#m2579fa1307" y="233.300733"/>
     <use style="fill:#666666;stroke:#666666;" x="380.496" xlink:href="#m2579fa1307" y="240.463176"/>
     <use style="fill:#666666;stroke:#666666;" x="384.96" xlink:href="#m2579fa1307" y="245.893322"/>
    </g>
   </g>
   <g id="line2d_17">
    <path clip-path="url(#p9b586082ff)" d="M 87.36 245.893322 
L 91.824 240.463176 
L 94.8 237.257615 
L 96.288 235.907903 
L 97.776 234.777683 
L 99.264 233.899572 
L 100.752 233.300733 
L 102.24 233.002103 
L 103.728 233.017753 
L 105.216 233.354401 
L 106.704 234.011087 
L 108.192 234.979027 
L 109.68 236.24165 
L 111.168 237.77482 
L 112.656 239.547248 
L 115.632 243.652621 
L 123.072 254.866404 
L 124.56 256.831885 
L 126.048 258.577504 
L 127.536 260.054342 
L 129.024 261.21867 
L 130.512 262.03312 
L 132 262.467748 
L 133.488 262.500941 
L 134.976 262.120161 
L 136.464 261.322494 
L 137.952 260.11498 
L 139.44 258.514741 
L 140.928 256.548857 
L 142.416 254.254024 
L 143.904 251.675976 
L 146.88 245.893322 
L 152.832 233.715569 
L 154.32 230.977101 
L 155.808 228.511296 
L 157.296 226.388521 
L 158.784 224.67361 
L 160.272 223.424192 
L 161.76 222.689127 
L 163.248 222.507085 
L 164.736 222.905301 
L 166.224 223.898547 
L 167.712 225.488335 
L 169.2 227.662385 
L 170.688 230.394364 
L 172.176 233.643922 
L 173.664 237.357024 
L 176.64 245.893322 
L 185.568 273.50007 
L 187.056 277.219215 
L 188.544 280.375355 
L 190.032 282.858666 
L 191.52 284.566981 
L 193.008 285.408 
L 194.496 285.30136 
L 195.984 284.180525 
L 197.472 281.994454 
L 198.96 278.70901 
L 200.448 274.30808 
L 201.936 268.794375 
L 203.424 262.189892 
L 204.912 254.536027 
L 206.4 245.893322 
L 207.888 236.34086 
L 210.864 214.909546 
L 213.84 191.20051 
L 221.28 129.872347 
L 224.256 107.965191 
L 225.744 98.214113 
L 227.232 89.455087 
L 228.72 81.814885 
L 230.208 75.404776 
L 231.696 70.318587 
L 233.184 66.631056 
L 234.672 64.39653 
L 236.16 63.648 
L 237.648 64.39653 
L 239.136 66.631056 
L 240.624 70.318587 
L 242.112 75.404776 
L 243.6 81.814885 
L 245.088 89.455087 
L 246.576 98.214113 
L 248.064 107.965191 
L 251.04 129.872347 
L 254.016 153.941235 
L 259.968 203.271186 
L 262.944 225.975293 
L 264.432 236.34086 
L 265.92 245.893322 
L 267.408 254.536027 
L 268.896 262.189892 
L 270.384 268.794375 
L 271.872 274.30808 
L 273.36 278.70901 
L 274.848 281.994454 
L 276.336 284.180525 
L 277.824 285.30136 
L 279.312 285.408 
L 280.8 284.566981 
L 282.288 282.858666 
L 283.776 280.375355 
L 285.264 277.219215 
L 286.752 273.50007 
L 289.728 264.836494 
L 297.168 241.466571 
L 298.656 237.357024 
L 300.144 233.643922 
L 301.632 230.394364 
L 303.12 227.662385 
L 304.608 225.488335 
L 306.096 223.898547 
L 307.584 222.905301 
L 309.072 222.507085 
L 310.56 222.689127 
L 312.048 223.424192 
L 313.536 224.67361 
L 315.024 226.388521 
L 316.512 228.511296 
L 318 230.977101 
L 320.976 236.652547 
L 326.928 248.86868 
L 329.904 254.254024 
L 331.392 256.548857 
L 332.88 258.514741 
L 334.368 260.11498 
L 335.856 261.322494 
L 337.344 262.120161 
L 338.832 262.500941 
L 340.32 262.467748 
L 341.808 262.03312 
L 343.296 261.21867 
L 344.784 260.054342 
L 346.272 258.577504 
L 347.76 256.831885 
L 350.736 252.733897 
L 358.176 241.521072 
L 359.664 239.547248 
L 361.152 237.77482 
L 362.64 236.24165 
L 364.128 234.979027 
L 365.616 234.011087 
L 367.104 233.354401 
L 368.592 233.017753 
L 370.08 233.002103 
L 371.568 233.300733 
L 373.056 233.899572 
L 374.544 234.777683 
L 376.032 235.907903 
L 377.52 237.257615 
L 380.496 240.463176 
L 384.96 245.893322 
L 384.96 245.893322 
" style="fill:none;stroke:#000000;stroke-linecap:square;stroke-width:1.5;"/>
   </g>
   <g id="line2d_18">
    <path clip-path="url(#p9b586082ff)" d="M 132 262.467748 
L 132 262.467748 
" style="fill:none;stroke:#ff00ff;stroke-linecap:square;stroke-width:1.5;"/>
    <defs>
     <path d="M 0 3 
C 0.795609 3 1.55874 2.683901 2.12132 2.12132 
C 2.683901 1.55874 3 0.795609 3 0 
C 3 -0.795609 2.683901 -1.55874 2.12132 -2.12132 
C 1.55874 -2.683901 0.795609 -3 0 -3 
C -0.795609 -3 -1.55874 -2.683901 -2.12132 -2.12132 
C -2.683901 -1.55874 -3 -0.795609 -3 0 
C -3 0.795609 -2.683901 1.55874 -2.12132 2.12132 
C -1.55874 2.683901 -0.795609 3 0 3 
z
" id="mea47e406b1" style="stroke:#ff00ff;"/>
    </defs>
    <g clip-path="url(#p9b586082ff)">
     <use style="fill:#ff00ff;stroke:#ff00ff;" x="132" xlink:href="#mea47e406b1" y="262.467748"/>
     <use style="fill:#ff00ff;stroke:#ff00ff;" x="132" xlink:href="#mea47e406b1" y="262.467748"/>
    </g>
   </g>
   <g id="patch_3">
    <path d="M 57.6 307.584 
L 57.6 41.472 
" style="fill:none;stroke:#000000;stroke-linecap:square;stroke-linejoin:miter;stroke-width:0.8;"/>
   </g>
   <g id="patch_4">
    <path d="M 414.72 307.584 
L 414.72 41.472 
" style="fill:none;stroke:#000000;stroke-linecap:square;stroke-linejoin:miter;stroke-width:0.8;"/>
   </g>
   <g id="patch_5">
    <path d="M 57.6 307.584 
L 414.72 307.584 
" style="fill:none;stroke:#000000;stroke-linecap:square;stroke-linejoin:miter;stroke-width:0.8;"/>
   </g>
   <g id="patch_6">
    <path d="M 57.6 41.472 
L 414.72 41.472 
" style="fill:none;stroke:#000000;stroke-linecap:square;stroke-linejoin:miter;stroke-width:0.8;"/>
   </g>
   <g id="legend_1">
    <g id="patch_7">
     <path d="M 279.791875 122.8845 
L 407.72 122.8845 
Q 409.72 122.8845 409.72 120.8845 
L 409.72 48.472 
Q 409.72 46.472 407.72 46.472 
L 279.791875 46.472 
Q 277.791875 46.472 277.791875 48.472 
L 277.791875 120.8845 
Q 277.791875 122.8845 279.791875 122.8845 
z
" style="fill:#ffffff;opacity:0.8;stroke:#cccccc;stroke-linejoin:miter;"/>
    </g>
    <g id="line2d_19">
     <path d="M 281.791875 54.570438 
L 301.791875 54.570438 
" style="fill:none;stroke:#333333;stroke-linecap:square;stroke-width:1.5;"/>
    </g>
    <g id="line2d_20"/>
    <g id="text_15">
     <!-- GP predicted mean -->
     <defs>
      <path d="M 59.515625 10.40625 
L 59.515625 29.984375 
L 43.40625 29.984375 
L 43.40625 38.09375 
L 69.28125 38.09375 
L 69.28125 6.78125 
Q 63.578125 2.734375 56.6875 0.65625 
Q 49.8125 -1.421875 42 -1.421875 
Q 24.90625 -1.421875 15.25 8.5625 
Q 5.609375 18.5625 5.609375 36.375 
Q 5.609375 54.25 15.25 64.234375 
Q 24.90625 74.21875 42 74.21875 
Q 49.125 74.21875 55.546875 72.453125 
Q 61.96875 70.703125 67.390625 67.28125 
L 67.390625 56.78125 
Q 61.921875 61.421875 55.765625 63.765625 
Q 49.609375 66.109375 42.828125 66.109375 
Q 29.4375 66.109375 22.71875 58.640625 
Q 16.015625 51.171875 16.015625 36.375 
Q 16.015625 21.625 22.71875 14.15625 
Q 29.4375 6.6875 42.828125 6.6875 
Q 48.046875 6.6875 52.140625 7.59375 
Q 56.25 8.5 59.515625 10.40625 
z
" id="DejaVuSans-71"/>
      <path d="M 19.671875 64.796875 
L 19.671875 37.40625 
L 32.078125 37.40625 
Q 38.96875 37.40625 42.71875 40.96875 
Q 46.484375 44.53125 46.484375 51.125 
Q 46.484375 57.671875 42.71875 61.234375 
Q 38.96875 64.796875 32.078125 64.796875 
z
M 9.8125 72.90625 
L 32.078125 72.90625 
Q 44.34375 72.90625 50.609375 67.359375 
Q 56.890625 61.8125 56.890625 51.125 
Q 56.890625 40.328125 50.609375 34.8125 
Q 44.34375 29.296875 32.078125 29.296875 
L 19.671875 29.296875 
L 19.671875 0 
L 9.8125 0 
z
" id="DejaVuSans-80"/>
      <path id="DejaVuSans-32"/>
      <path d="M 18.109375 8.203125 
L 18.109375 -20.796875 
L 9.078125 -20.796875 
L 9.078125 54.6875 
L 18.109375 54.6875 
L 18.109375 46.390625 
Q 20.953125 51.265625 25.265625 53.625 
Q 29.59375 56 35.59375 56 
Q 45.5625 56 51.78125 48.09375 
Q 58.015625 40.1875 58.015625 27.296875 
Q 58.015625 14.40625 51.78125 6.484375 
Q 45.5625 -1.421875 35.59375 -1.421875 
Q 29.59375 -1.421875 25.265625 0.953125 
Q 20.953125 3.328125 18.109375 8.203125 
z
M 48.6875 27.296875 
Q 48.6875 37.203125 44.609375 42.84375 
Q 40.53125 48.484375 33.40625 48.484375 
Q 26.265625 48.484375 22.1875 42.84375 
Q 18.109375 37.203125 18.109375 27.296875 
Q 18.109375 17.390625 22.1875 11.75 
Q 26.265625 6.109375 33.40625 6.109375 
Q 40.53125 6.109375 44.609375 11.75 
Q 48.6875 17.390625 48.6875 27.296875 
z
" id="DejaVuSans-112"/>
      <path d="M 41.109375 46.296875 
Q 39.59375 47.171875 37.8125 47.578125 
Q 36.03125 48 33.890625 48 
Q 26.265625 48 22.1875 43.046875 
Q 18.109375 38.09375 18.109375 28.8125 
L 18.109375 0 
L 9.078125 0 
L 9.078125 54.6875 
L 18.109375 54.6875 
L 18.109375 46.1875 
Q 20.953125 51.171875 25.484375 53.578125 
Q 30.03125 56 36.53125 56 
Q 37.453125 56 38.578125 55.875 
Q 39.703125 55.765625 41.0625 55.515625 
z
" id="DejaVuSans-114"/>
      <path d="M 56.203125 29.59375 
L 56.203125 25.203125 
L 14.890625 25.203125 
Q 15.484375 15.921875 20.484375 11.0625 
Q 25.484375 6.203125 34.421875 6.203125 
Q 39.59375 6.203125 44.453125 7.46875 
Q 49.3125 8.734375 54.109375 11.28125 
L 54.109375 2.78125 
Q 49.265625 0.734375 44.1875 -0.34375 
Q 39.109375 -1.421875 33.890625 -1.421875 
Q 20.796875 -1.421875 13.15625 6.1875 
Q 5.515625 13.8125 5.515625 26.8125 
Q 5.515625 40.234375 12.765625 48.109375 
Q 20.015625 56 32.328125 56 
Q 43.359375 56 49.78125 48.890625 
Q 56.203125 41.796875 56.203125 29.59375 
z
M 47.21875 32.234375 
Q 47.125 39.59375 43.09375 43.984375 
Q 39.0625 48.390625 32.421875 48.390625 
Q 24.90625 48.390625 20.390625 44.140625 
Q 15.875 39.890625 15.1875 32.171875 
z
" id="DejaVuSans-101"/>
      <path d="M 45.40625 46.390625 
L 45.40625 75.984375 
L 54.390625 75.984375 
L 54.390625 0 
L 45.40625 0 
L 45.40625 8.203125 
Q 42.578125 3.328125 38.25 0.953125 
Q 33.9375 -1.421875 27.875 -1.421875 
Q 17.96875 -1.421875 11.734375 6.484375 
Q 5.515625 14.40625 5.515625 27.296875 
Q 5.515625 40.1875 11.734375 48.09375 
Q 17.96875 56 27.875 56 
Q 33.9375 56 38.25 53.625 
Q 42.578125 51.265625 45.40625 46.390625 
z
M 14.796875 27.296875 
Q 14.796875 17.390625 18.875 11.75 
Q 22.953125 6.109375 30.078125 6.109375 
Q 37.203125 6.109375 41.296875 11.75 
Q 45.40625 17.390625 45.40625 27.296875 
Q 45.40625 37.203125 41.296875 42.84375 
Q 37.203125 48.484375 30.078125 48.484375 
Q 22.953125 48.484375 18.875 42.84375 
Q 14.796875 37.203125 14.796875 27.296875 
z
" id="DejaVuSans-100"/>
      <path d="M 9.421875 54.6875 
L 18.40625 54.6875 
L 18.40625 0 
L 9.421875 0 
z
M 9.421875 75.984375 
L 18.40625 75.984375 
L 18.40625 64.59375 
L 9.421875 64.59375 
z
" id="DejaVuSans-105"/>
      <path d="M 48.78125 52.59375 
L 48.78125 44.1875 
Q 44.96875 46.296875 41.140625 47.34375 
Q 37.3125 48.390625 33.40625 48.390625 
Q 24.65625 48.390625 19.8125 42.84375 
Q 14.984375 37.3125 14.984375 27.296875 
Q 14.984375 17.28125 19.8125 11.734375 
Q 24.65625 6.203125 33.40625 6.203125 
Q 37.3125 6.203125 41.140625 7.25 
Q 44.96875 8.296875 48.78125 10.40625 
L 48.78125 2.09375 
Q 45.015625 0.34375 40.984375 -0.53125 
Q 36.96875 -1.421875 32.421875 -1.421875 
Q 20.0625 -1.421875 12.78125 6.34375 
Q 5.515625 14.109375 5.515625 27.296875 
Q 5.515625 40.671875 12.859375 48.328125 
Q 20.21875 56 33.015625 56 
Q 37.15625 56 41.109375 55.140625 
Q 45.0625 54.296875 48.78125 52.59375 
z
" id="DejaVuSans-99"/>
      <path d="M 18.3125 70.21875 
L 18.3125 54.6875 
L 36.8125 54.6875 
L 36.8125 47.703125 
L 18.3125 47.703125 
L 18.3125 18.015625 
Q 18.3125 11.328125 20.140625 9.421875 
Q 21.96875 7.515625 27.59375 7.515625 
L 36.8125 7.515625 
L 36.8125 0 
L 27.59375 0 
Q 17.1875 0 13.234375 3.875 
Q 9.28125 7.765625 9.28125 18.015625 
L 9.28125 47.703125 
L 2.6875 47.703125 
L 2.6875 54.6875 
L 9.28125 54.6875 
L 9.28125 70.21875 
z
" id="DejaVuSans-116"/>
      <path d="M 52 44.1875 
Q 55.375 50.25 60.0625 53.125 
Q 64.75 56 71.09375 56 
Q 79.640625 56 84.28125 50.015625 
Q 88.921875 44.046875 88.921875 33.015625 
L 88.921875 0 
L 79.890625 0 
L 79.890625 32.71875 
Q 79.890625 40.578125 77.09375 44.375 
Q 74.3125 48.1875 68.609375 48.1875 
Q 61.625 48.1875 57.5625 43.546875 
Q 53.515625 38.921875 53.515625 30.90625 
L 53.515625 0 
L 44.484375 0 
L 44.484375 32.71875 
Q 44.484375 40.625 41.703125 44.40625 
Q 38.921875 48.1875 33.109375 48.1875 
Q 26.21875 48.1875 22.15625 43.53125 
Q 18.109375 38.875 18.109375 30.90625 
L 18.109375 0 
L 9.078125 0 
L 9.078125 54.6875 
L 18.109375 54.6875 
L 18.109375 46.1875 
Q 21.1875 51.21875 25.484375 53.609375 
Q 29.78125 56 35.6875 56 
Q 41.65625 56 45.828125 52.96875 
Q 50 49.953125 52 44.1875 
z
" id="DejaVuSans-109"/>
      <path d="M 34.28125 27.484375 
Q 23.390625 27.484375 19.1875 25 
Q 14.984375 22.515625 14.984375 16.5 
Q 14.984375 11.71875 18.140625 8.90625 
Q 21.296875 6.109375 26.703125 6.109375 
Q 34.1875 6.109375 38.703125 11.40625 
Q 43.21875 16.703125 43.21875 25.484375 
L 43.21875 27.484375 
z
M 52.203125 31.203125 
L 52.203125 0 
L 43.21875 0 
L 43.21875 8.296875 
Q 40.140625 3.328125 35.546875 0.953125 
Q 30.953125 -1.421875 24.3125 -1.421875 
Q 15.921875 -1.421875 10.953125 3.296875 
Q 6 8.015625 6 15.921875 
Q 6 25.140625 12.171875 29.828125 
Q 18.359375 34.515625 30.609375 34.515625 
L 43.21875 34.515625 
L 43.21875 35.40625 
Q 43.21875 41.609375 39.140625 45 
Q 35.0625 48.390625 27.6875 48.390625 
Q 23 48.390625 18.546875 47.265625 
Q 14.109375 46.140625 10.015625 43.890625 
L 10.015625 52.203125 
Q 14.9375 54.109375 19.578125 55.046875 
Q 24.21875 56 28.609375 56 
Q 40.484375 56 46.34375 49.84375 
Q 52.203125 43.703125 52.203125 31.203125 
z
" id="DejaVuSans-97"/>
      <path d="M 54.890625 33.015625 
L 54.890625 0 
L 45.90625 0 
L 45.90625 32.71875 
Q 45.90625 40.484375 42.875 44.328125 
Q 39.84375 48.1875 33.796875 48.1875 
Q 26.515625 48.1875 22.3125 43.546875 
Q 18.109375 38.921875 18.109375 30.90625 
L 18.109375 0 
L 9.078125 0 
L 9.078125 54.6875 
L 18.109375 54.6875 
L 18.109375 46.1875 
Q 21.34375 51.125 25.703125 53.5625 
Q 30.078125 56 35.796875 56 
Q 45.21875 56 50.046875 50.171875 
Q 54.890625 44.34375 54.890625 33.015625 
z
" id="DejaVuSans-110"/>
     </defs>
     <g transform="translate(309.791875 58.070438)scale(0.1 -0.1)">
      <use xlink:href="#DejaVuSans-71"/>
      <use x="77.490234" xlink:href="#DejaVuSans-80"/>
      <use x="137.792969" xlink:href="#DejaVuSans-32"/>
      <use x="169.580078" xlink:href="#DejaVuSans-112"/>
      <use x="233.056641" xlink:href="#DejaVuSans-114"/>
      <use x="271.919922" xlink:href="#DejaVuSans-101"/>
      <use x="333.443359" xlink:href="#DejaVuSans-100"/>
      <use x="396.919922" xlink:href="#DejaVuSans-105"/>
      <use x="424.703125" xlink:href="#DejaVuSans-99"/>
      <use x="479.683594" xlink:href="#DejaVuSans-116"/>
      <use x="518.892578" xlink:href="#DejaVuSans-101"/>
      <use x="580.416016" xlink:href="#DejaVuSans-100"/>
      <use x="643.892578" xlink:href="#DejaVuSans-32"/>
      <use x="675.679688" xlink:href="#DejaVuSans-109"/>
      <use x="773.091797" xlink:href="#DejaVuSans-101"/>
      <use x="834.615234" xlink:href="#DejaVuSans-97"/>
      <use x="895.894531" xlink:href="#DejaVuSans-110"/>
     </g>
    </g>
    <g id="line2d_21">
     <path d="M 281.791875 69.248563 
L 301.791875 69.248563 
" style="fill:none;stroke:#666666;stroke-linecap:square;stroke-width:1.5;"/>
    </g>
    <g id="line2d_22">
     <g>
      <use style="fill:#666666;stroke:#666666;" x="291.791875" xlink:href="#m2579fa1307" y="69.248563"/>
     </g>
    </g>
    <g id="text_16">
     <!-- local linear approx. -->
     <defs>
      <path d="M 9.421875 75.984375 
L 18.40625 75.984375 
L 18.40625 0 
L 9.421875 0 
z
" id="DejaVuSans-108"/>
      <path d="M 30.609375 48.390625 
Q 23.390625 48.390625 19.1875 42.75 
Q 14.984375 37.109375 14.984375 27.296875 
Q 14.984375 17.484375 19.15625 11.84375 
Q 23.34375 6.203125 30.609375 6.203125 
Q 37.796875 6.203125 41.984375 11.859375 
Q 46.1875 17.53125 46.1875 27.296875 
Q 46.1875 37.015625 41.984375 42.703125 
Q 37.796875 48.390625 30.609375 48.390625 
z
M 30.609375 56 
Q 42.328125 56 49.015625 48.375 
Q 55.71875 40.765625 55.71875 27.296875 
Q 55.71875 13.875 49.015625 6.21875 
Q 42.328125 -1.421875 30.609375 -1.421875 
Q 18.84375 -1.421875 12.171875 6.21875 
Q 5.515625 13.875 5.515625 27.296875 
Q 5.515625 40.765625 12.171875 48.375 
Q 18.84375 56 30.609375 56 
z
" id="DejaVuSans-111"/>
      <path d="M 54.890625 54.6875 
L 35.109375 28.078125 
L 55.90625 0 
L 45.3125 0 
L 29.390625 21.484375 
L 13.484375 0 
L 2.875 0 
L 24.125 28.609375 
L 4.6875 54.6875 
L 15.28125 54.6875 
L 29.78125 35.203125 
L 44.28125 54.6875 
z
" id="DejaVuSans-120"/>
     </defs>
     <g transform="translate(309.791875 72.748563)scale(0.1 -0.1)">
      <use xlink:href="#DejaVuSans-108"/>
      <use x="27.783203" xlink:href="#DejaVuSans-111"/>
      <use x="88.964844" xlink:href="#DejaVuSans-99"/>
      <use x="143.945312" xlink:href="#DejaVuSans-97"/>
      <use x="205.224609" xlink:href="#DejaVuSans-108"/>
      <use x="233.007812" xlink:href="#DejaVuSans-32"/>
      <use x="264.794922" xlink:href="#DejaVuSans-108"/>
      <use x="292.578125" xlink:href="#DejaVuSans-105"/>
      <use x="320.361328" xlink:href="#DejaVuSans-110"/>
      <use x="383.740234" xlink:href="#DejaVuSans-101"/>
      <use x="445.263672" xlink:href="#DejaVuSans-97"/>
      <use x="506.542969" xlink:href="#DejaVuSans-114"/>
      <use x="547.65625" xlink:href="#DejaVuSans-32"/>
      <use x="579.443359" xlink:href="#DejaVuSans-97"/>
      <use x="640.722656" xlink:href="#DejaVuSans-112"/>
      <use x="704.199219" xlink:href="#DejaVuSans-112"/>
      <use x="767.675781" xlink:href="#DejaVuSans-114"/>
      <use x="806.539062" xlink:href="#DejaVuSans-111"/>
      <use x="864.595703" xlink:href="#DejaVuSans-120"/>
      <use x="923.775391" xlink:href="#DejaVuSans-46"/>
     </g>
    </g>
    <g id="line2d_23">
     <path d="M 281.791875 83.926688 
L 301.791875 83.926688 
" style="fill:none;stroke:#000000;stroke-linecap:square;stroke-width:1.5;"/>
    </g>
    <g id="line2d_24"/>
    <g id="text_17">
     <!-- true function -->
     <defs>
      <path d="M 8.5 21.578125 
L 8.5 54.6875 
L 17.484375 54.6875 
L 17.484375 21.921875 
Q 17.484375 14.15625 20.5 10.265625 
Q 23.53125 6.390625 29.59375 6.390625 
Q 36.859375 6.390625 41.078125 11.03125 
Q 45.3125 15.671875 45.3125 23.6875 
L 45.3125 54.6875 
L 54.296875 54.6875 
L 54.296875 0 
L 45.3125 0 
L 45.3125 8.40625 
Q 42.046875 3.421875 37.71875 1 
Q 33.40625 -1.421875 27.6875 -1.421875 
Q 18.265625 -1.421875 13.375 4.4375 
Q 8.5 10.296875 8.5 21.578125 
z
M 31.109375 56 
z
" id="DejaVuSans-117"/>
      <path d="M 37.109375 75.984375 
L 37.109375 68.5 
L 28.515625 68.5 
Q 23.6875 68.5 21.796875 66.546875 
Q 19.921875 64.59375 19.921875 59.515625 
L 19.921875 54.6875 
L 34.71875 54.6875 
L 34.71875 47.703125 
L 19.921875 47.703125 
L 19.921875 0 
L 10.890625 0 
L 10.890625 47.703125 
L 2.296875 47.703125 
L 2.296875 54.6875 
L 10.890625 54.6875 
L 10.890625 58.5 
Q 10.890625 67.625 15.140625 71.796875 
Q 19.390625 75.984375 28.609375 75.984375 
z
" id="DejaVuSans-102"/>
     </defs>
     <g transform="translate(309.791875 87.426688)scale(0.1 -0.1)">
      <use xlink:href="#DejaVuSans-116"/>
      <use x="39.208984" xlink:href="#DejaVuSans-114"/>
      <use x="80.322266" xlink:href="#DejaVuSans-117"/>
      <use x="143.701172" xlink:href="#DejaVuSans-101"/>
      <use x="205.224609" xlink:href="#DejaVuSans-32"/>
      <use x="237.011719" xlink:href="#DejaVuSans-102"/>
      <use x="272.216797" xlink:href="#DejaVuSans-117"/>
      <use x="335.595703" xlink:href="#DejaVuSans-110"/>
      <use x="398.974609" xlink:href="#DejaVuSans-99"/>
      <use x="453.955078" xlink:href="#DejaVuSans-116"/>
      <use x="493.164062" xlink:href="#DejaVuSans-105"/>
      <use x="520.947266" xlink:href="#DejaVuSans-111"/>
      <use x="582.128906" xlink:href="#DejaVuSans-110"/>
     </g>
    </g>
    <g id="line2d_25">
     <path d="M 281.791875 98.604813 
L 301.791875 98.604813 
" style="fill:none;stroke:#ff00ff;stroke-linecap:square;stroke-width:1.5;"/>
    </g>
    <g id="line2d_26">
     <g>
      <use style="fill:#ff00ff;stroke:#ff00ff;" x="291.791875" xlink:href="#mea47e406b1" y="98.604813"/>
     </g>
    </g>
    <g id="text_18">
     <!-- new sample -->
     <defs>
      <path d="M 4.203125 54.6875 
L 13.1875 54.6875 
L 24.421875 12.015625 
L 35.59375 54.6875 
L 46.1875 54.6875 
L 57.421875 12.015625 
L 68.609375 54.6875 
L 77.59375 54.6875 
L 63.28125 0 
L 52.6875 0 
L 40.921875 44.828125 
L 29.109375 0 
L 18.5 0 
z
" id="DejaVuSans-119"/>
      <path d="M 44.28125 53.078125 
L 44.28125 44.578125 
Q 40.484375 46.53125 36.375 47.5 
Q 32.28125 48.484375 27.875 48.484375 
Q 21.1875 48.484375 17.84375 46.4375 
Q 14.5 44.390625 14.5 40.28125 
Q 14.5 37.15625 16.890625 35.375 
Q 19.28125 33.59375 26.515625 31.984375 
L 29.59375 31.296875 
Q 39.15625 29.25 43.1875 25.515625 
Q 47.21875 21.78125 47.21875 15.09375 
Q 47.21875 7.46875 41.1875 3.015625 
Q 35.15625 -1.421875 24.609375 -1.421875 
Q 20.21875 -1.421875 15.453125 -0.5625 
Q 10.6875 0.296875 5.421875 2 
L 5.421875 11.28125 
Q 10.40625 8.6875 15.234375 7.390625 
Q 20.0625 6.109375 24.8125 6.109375 
Q 31.15625 6.109375 34.5625 8.28125 
Q 37.984375 10.453125 37.984375 14.40625 
Q 37.984375 18.0625 35.515625 20.015625 
Q 33.0625 21.96875 24.703125 23.78125 
L 21.578125 24.515625 
Q 13.234375 26.265625 9.515625 29.90625 
Q 5.8125 33.546875 5.8125 39.890625 
Q 5.8125 47.609375 11.28125 51.796875 
Q 16.75 56 26.8125 56 
Q 31.78125 56 36.171875 55.265625 
Q 40.578125 54.546875 44.28125 53.078125 
z
" id="DejaVuSans-115"/>
     </defs>
     <g transform="translate(309.791875 102.104813)scale(0.1 -0.1)">
      <use xlink:href="#DejaVuSans-110"/>
      <use x="63.378906" xlink:href="#DejaVuSans-101"/>
      <use x="124.902344" xlink:href="#DejaVuSans-119"/>
      <use x="206.689453" xlink:href="#DejaVuSans-32"/>
      <use x="238.476562" xlink:href="#DejaVuSans-115"/>
      <use x="290.576172" xlink:href="#DejaVuSans-97"/>
      <use x="351.855469" xlink:href="#DejaVuSans-109"/>
      <use x="449.267578" xlink:href="#DejaVuSans-112"/>
      <use x="512.744141" xlink:href="#DejaVuSans-108"/>
      <use x="540.527344" xlink:href="#DejaVuSans-101"/>
     </g>
    </g>
    <g id="patch_8">
     <path d="M 281.791875 116.7845 
L 301.791875 116.7845 
L 301.791875 109.7845 
L 281.791875 109.7845 
z
" style="fill:#347aeb;opacity:0.6;"/>
    </g>
    <g id="text_19">
     <!-- GP predicted 2$\sigma$ -->
     <defs>
      <path d="M 34.671875 47.5625 
Q 27.25 47.5625 22.21875 42.1875 
Q 16.890625 36.578125 15.140625 27.296875 
Q 13.1875 17.484375 16.3125 11.8125 
Q 19.390625 6.203125 26.65625 6.203125 
Q 33.84375 6.203125 39.109375 11.859375 
Q 44.4375 17.53125 46.34375 27.296875 
Q 48.046875 36.234375 45.015625 42.1875 
Q 42.1875 47.5625 34.671875 47.5625 
z
M 36.078125 54.734375 
L 65.921875 54.6875 
L 64.15625 45.703125 
L 54.109375 45.703125 
Q 57.90625 38.09375 55.859375 27.296875 
Q 53.21875 13.875 45.0625 6.25 
Q 36.859375 -1.421875 25.140625 -1.421875 
Q 13.375 -1.421875 8.203125 6.25 
Q 3.03125 13.875 5.671875 27.296875 
Q 8.25 40.765625 16.40625 48.390625 
Q 23.1875 54.734375 36.078125 54.734375 
z
" id="DejaVuSans-Oblique-963"/>
     </defs>
     <g transform="translate(309.791875 116.7845)scale(0.1 -0.1)">
      <use transform="translate(0 0.015625)" xlink:href="#DejaVuSans-71"/>
      <use transform="translate(77.490234 0.015625)" xlink:href="#DejaVuSans-80"/>
      <use transform="translate(137.792969 0.015625)" xlink:href="#DejaVuSans-32"/>
      <use transform="translate(169.580078 0.015625)" xlink:href="#DejaVuSans-112"/>
      <use transform="translate(233.056641 0.015625)" xlink:href="#DejaVuSans-114"/>
      <use transform="translate(274.169922 0.015625)" xlink:href="#DejaVuSans-101"/>
      <use transform="translate(335.693359 0.015625)" xlink:href="#DejaVuSans-100"/>
      <use transform="translate(399.169922 0.015625)" xlink:href="#DejaVuSans-105"/>
      <use transform="translate(426.953125 0.015625)" xlink:href="#DejaVuSans-99"/>
      <use transform="translate(481.933594 0.015625)" xlink:href="#DejaVuSans-116"/>
      <use transform="translate(521.142578 0.015625)" xlink:href="#DejaVuSans-101"/>
      <use transform="translate(582.666016 0.015625)" xlink:href="#DejaVuSans-100"/>
      <use transform="translate(646.142578 0.015625)" xlink:href="#DejaVuSans-32"/>
      <use transform="translate(677.929688 0.015625)" xlink:href="#DejaVuSans-50"/>
      <use transform="translate(741.552734 0.015625)" xlink:href="#DejaVuSans-Oblique-963"/>
     </g>
    </g>
   </g>
  </g>
 </g>
 <defs>
  <clipPath id="p9b586082ff">
   <rect height="266.112" width="357.12" x="57.6" y="41.472"/>
  </clipPath>
 </defs>
</svg>
