<?xml version="1.0" encoding="utf-8" standalone="no"?>
<!DOCTYPE svg PUBLIC "-//W3C//DTD SVG 1.1//EN"
  "http://www.w3.org/Graphics/SVG/1.1/DTD/svg11.dtd">
<!-- Created with matplotlib (https://matplotlib.org/) -->
<svg height="345.6pt" version="1.1" viewBox="0 0 460.8 345.6" width="460.8pt" xmlns="http://www.w3.org/2000/svg" xmlns:xlink="http://www.w3.org/1999/xlink">
 <defs>
  <style type="text/css">
*{stroke-linecap:butt;stroke-linejoin:round;}
  </style>
 </defs>
 <g id="figure_1">
  <g id="patch_1">
   <path d="M 0 345.6 
L 460.8 345.6 
L 460.8 0 
L 0 0 
z
" style="fill:#ffffff;"/>
  </g>
  <g id="axes_1">
   <g id="patch_2">
    <path d="M 57.6 307.584 
L 414.72 307.584 
L 414.72 41.472 
L 57.6 41.472 
z
" style="fill:#ffffff;"/>
   </g>
   <g id="PolyCollection_1">
    <defs>
     <path d="M 87.36 -99.703033 
L 87.36 -99.710322 
L 88.848 -110.860237 
L 90.336 -120.908503 
L 91.824 -129.776944 
L 93.312 -137.406093 
L 94.8 -143.752957 
L 96.288 -148.792162 
L 97.776 -152.516783 
L 99.264 -154.938847 
L 100.752 -156.089474 
L 102.24 -156.018648 
L 103.728 -154.794597 
L 105.216 -152.502794 
L 106.704 -149.244584 
L 108.192 -145.135461 
L 109.68 -140.303005 
L 111.168 -134.884547 
L 112.656 -129.024578 
L 114.144 -122.871967 
L 115.632 -116.577055 
L 117.12 -110.288667 
L 118.608 -104.151133 
L 120.096 -98.301372 
L 121.584 -92.869748 
L 123.072 -93.584605 
L 124.56 -94.009057 
L 126.048 -94.157905 
L 127.536 -94.061249 
L 129.024 -93.759661 
L 130.512 -93.302666 
L 132 -92.746938 
L 133.488 -92.154253 
L 134.976 -91.589265 
L 136.464 -91.117151 
L 137.952 -90.801212 
L 139.44 -90.700489 
L 140.928 -90.867474 
L 142.416 -91.349621 
L 143.904 -95.600264 
L 145.392 -99.951742 
L 146.88 -104.274012 
L 148.368 -108.442482 
L 149.856 -112.337408 
L 151.344 -115.846765 
L 152.832 -118.868914 
L 154.32 -121.314981 
L 155.808 -123.110898 
L 157.296 -124.199058 
L 158.784 -124.539565 
L 160.272 -124.11102 
L 161.76 -122.914518 
L 163.248 -125.336291 
L 164.736 -127.329342 
L 166.224 -128.805619 
L 167.712 -129.691233 
L 169.2 -129.925667 
L 170.688 -129.464341 
L 172.176 -128.28082 
L 173.664 -126.368576 
L 175.152 -123.742252 
L 176.64 -120.438364 
L 178.128 -116.515409 
L 179.616 -112.053357 
L 181.104 -107.152517 
L 182.592 -101.931803 
L 184.08 -96.526409 
L 185.568 -91.084963 
L 187.056 -85.766208 
L 188.544 -80.735295 
L 190.032 -76.159778 
L 191.52 -72.205409 
L 193.008 -69.031843 
L 194.496 -66.78837 
L 195.984 -65.609781 
L 197.472 -65.612487 
L 198.96 -66.894635 
L 200.448 -72.966727 
L 201.936 -79.89277 
L 203.424 -87.615116 
L 204.912 -96.071122 
L 206.4 -105.1904 
L 207.888 -114.895673 
L 209.376 -125.103591 
L 210.864 -135.725501 
L 212.352 -146.668176 
L 213.84 -157.834486 
L 215.328 -169.124042 
L 216.816 -180.433822 
L 218.304 -191.66241 
L 219.792 -205.170756 
L 221.28 -218.225929 
L 222.768 -230.596592 
L 224.256 -242.065166 
L 225.744 -252.428961 
L 227.232 -261.504596 
L 228.72 -269.131985 
L 230.208 -275.177781 
L 231.696 -279.53819 
L 233.184 -282.141105 
L 234.672 -282.947492 
L 236.16 -281.955645 
L 237.648 -283.010288 
L 239.136 -282.773649 
L 240.624 -281.22065 
L 242.112 -278.345423 
L 243.6 -274.158655 
L 245.088 -268.688334 
L 246.576 -261.980244 
L 248.064 -254.098138 
L 249.552 -245.12359 
L 251.04 -235.155473 
L 252.528 -224.30907 
L 254.016 -212.714796 
L 255.504 -200.516548 
L 256.992 -187.86969 
L 258.48 -174.938704 
L 259.968 -161.894552 
L 261.456 -148.911781 
L 262.944 -136.165443 
L 264.432 -123.82789 
L 265.92 -112.065514 
L 267.408 -101.035509 
L 268.896 -90.882735 
L 270.384 -81.736751 
L 271.872 -73.709114 
L 273.36 -66.894635 
L 274.848 -66.377245 
L 276.336 -66.710214 
L 277.824 -67.785435 
L 279.312 -69.491017 
L 280.8 -71.711017 
L 282.288 -74.328746 
L 283.776 -77.229917 
L 285.264 -80.305562 
L 286.752 -83.454646 
L 288.24 -86.586306 
L 289.728 -89.621679 
L 291.216 -92.495277 
L 292.704 -95.155885 
L 294.192 -97.566981 
L 295.68 -99.710322 
L 297.168 -106.094598 
L 298.656 -112.117276 
L 300.144 -117.623121 
L 301.632 -122.475188 
L 303.12 -126.554105 
L 304.608 -129.76059 
L 306.096 -132.017485 
L 307.584 -133.271284 
L 309.072 -133.493106 
L 310.56 -132.679105 
L 312.048 -130.85031 
L 313.536 -128.051899 
L 315.024 -124.351932 
L 316.512 -119.839582 
L 318 -114.626544 
L 319.488 -116.072292 
L 320.976 -117.673103 
L 322.464 -119.40249 
L 323.952 -121.22797 
L 325.44 -123.10833 
L 326.928 -124.994831 
L 328.416 -126.83268 
L 329.904 -128.562696 
L 331.392 -130.123155 
L 332.88 -131.451729 
L 334.368 -132.487471 
L 335.856 -133.172801 
L 337.344 -133.455421 
L 338.832 -133.290108 
L 340.32 -132.640346 
L 341.808 -131.479745 
L 343.296 -129.79321 
L 344.784 -127.577836 
L 346.272 -124.843497 
L 347.76 -121.61313 
L 349.248 -117.922689 
L 350.736 -113.820795 
L 352.224 -109.368069 
L 353.712 -104.636189 
L 355.2 -99.710322 
L 356.688 -107.45065 
L 358.176 -115.074244 
L 359.664 -122.419559 
L 361.152 -129.331993 
L 362.64 -135.662903 
L 364.128 -141.272101 
L 365.616 -146.030126 
L 367.104 -149.820259 
L 368.592 -152.540254 
L 370.08 -154.103763 
L 371.568 -154.441432 
L 373.056 -153.501662 
L 374.544 -151.251041 
L 376.032 -147.674432 
L 377.52 -142.774751 
L 379.008 -136.572438 
L 380.496 -129.104645 
L 381.984 -120.424171 
L 383.472 -110.598171 
L 384.96 -99.710322 
L 384.96 -99.703033 
L 384.96 -99.703033 
L 383.472 -91.341788 
L 381.984 -83.931506 
L 380.496 -77.51637 
L 379.008 -72.12474 
L 377.52 -67.772128 
L 376.032 -64.460742 
L 374.544 -62.179267 
L 373.056 -60.902895 
L 371.568 -60.593612 
L 370.08 -61.200732 
L 368.592 -62.661699 
L 367.104 -64.903112 
L 365.616 -67.841991 
L 364.128 -71.387235 
L 362.64 -75.441267 
L 361.152 -79.901812 
L 359.664 -84.663791 
L 358.176 -89.621275 
L 356.688 -94.669469 
L 355.2 -99.703033 
L 353.712 -92.00073 
L 352.224 -84.488848 
L 350.736 -77.321815 
L 349.248 -70.642324 
L 347.76 -64.582221 
L 346.272 -59.259929 
L 344.784 -54.778075 
L 343.296 -51.2214 
L 341.808 -48.654993 
L 340.32 -47.12289 
L 338.832 -46.647094 
L 337.344 -47.227022 
L 335.856 -48.839427 
L 334.368 -51.438791 
L 332.88 -54.958188 
L 331.392 -59.310633 
L 329.904 -64.39086 
L 328.416 -70.077536 
L 326.928 -76.235839 
L 325.44 -82.720376 
L 323.952 -89.378363 
L 322.464 -96.053007 
L 320.976 -102.58702 
L 319.488 -108.826186 
L 318 -114.619254 
L 316.512 -113.337551 
L 315.024 -112.218426 
L 313.536 -111.257383 
L 312.048 -110.436477 
L 310.56 -109.728806 
L 309.072 -109.099714 
L 307.584 -108.508288 
L 306.096 -107.909123 
L 304.608 -107.254307 
L 303.12 -106.495554 
L 301.632 -105.586432 
L 300.144 -104.484617 
L 298.656 -103.154092 
L 297.168 -101.567229 
L 295.68 -99.703033 
L 294.192 -93.116494 
L 292.704 -86.494862 
L 291.216 -80.016694 
L 289.728 -73.857176 
L 288.24 -68.187926 
L 286.752 -63.173226 
L 285.264 -58.966422 
L 283.776 -55.706584 
L 282.288 -53.515481 
L 280.8 -52.494962 
L 279.312 -52.724782 
L 277.824 -54.260938 
L 276.336 -57.134528 
L 274.848 -61.351172 
L 273.36 -66.887345 
L 271.872 -68.345159 
L 270.384 -70.819481 
L 268.896 -74.3767 
L 267.408 -79.059898 
L 265.92 -84.890193 
L 264.432 -91.864922 
L 262.944 -99.956354 
L 261.456 -109.110997 
L 259.968 -119.249537 
L 258.48 -130.267423 
L 256.992 -142.036114 
L 255.504 -154.404962 
L 254.016 -167.203718 
L 252.528 -180.245593 
L 251.04 -193.330825 
L 249.552 -206.250669 
L 248.064 -218.791711 
L 246.576 -230.740421 
L 245.088 -241.887814 
L 243.6 -252.034115 
L 242.112 -260.993313 
L 240.624 -268.59748 
L 239.136 -274.700744 
L 237.648 -279.18282 
L 236.16 -281.948355 
L 234.672 -279.634646 
L 233.184 -276.107212 
L 231.696 -271.430417 
L 230.208 -265.67531 
L 228.72 -258.92183 
L 227.232 -251.2574 
L 225.744 -242.775589 
L 224.256 -233.574835 
L 222.768 -223.757277 
L 221.28 -213.427674 
L 219.792 -202.692438 
L 218.304 -191.65512 
L 216.816 -177.922821 
L 215.328 -164.195874 
L 213.84 -150.705915 
L 212.352 -137.671125 
L 210.864 -125.295273 
L 209.376 -113.763508 
L 207.888 -103.238648 
L 206.4 -93.858044 
L 204.912 -85.731096 
L 203.424 -78.937479 
L 201.936 -73.526104 
L 200.448 -69.514839 
L 198.96 -66.887345 
L 197.472 -61.710064 
L 195.984 -57.458074 
L 194.496 -54.157938 
L 193.008 -51.820655 
L 191.52 -50.444683 
L 190.032 -50.015469 
L 188.544 -50.505181 
L 187.056 -51.872636 
L 185.568 -54.06349 
L 184.08 -57.010682 
L 182.592 -60.635161 
L 181.104 -64.846904 
L 179.616 -69.546207 
L 178.128 -74.62526 
L 176.64 -79.969974 
L 175.152 -85.46202 
L 173.664 -90.981067 
L 172.176 -96.407146 
L 170.688 -101.623107 
L 169.2 -106.517097 
L 167.712 -110.985006 
L 166.224 -114.932811 
L 164.736 -118.278758 
L 163.248 -120.95532 
L 161.76 -122.907228 
L 160.272 -120.144995 
L 158.784 -117.134925 
L 157.296 -113.978151 
L 155.808 -110.770355 
L 154.32 -107.602544 
L 152.832 -104.558434 
L 151.344 -101.712164 
L 149.856 -99.12639 
L 148.368 -96.850797 
L 146.88 -94.92108 
L 145.392 -93.358386 
L 143.904 -92.169248 
L 142.416 -91.342331 
L 140.928 -87.314 
L 139.44 -83.625076 
L 137.952 -80.392527 
L 136.464 -77.719418 
L 134.976 -75.695916 
L 133.488 -74.396944 
L 132 -73.880196 
L 130.512 -74.184539 
L 129.024 -75.328864 
L 127.536 -77.31139 
L 126.048 -80.109459 
L 124.56 -83.679804 
L 123.072 -87.959288 
L 121.584 -92.862458 
L 120.096 -91.847615 
L 118.608 -90.53617 
L 117.12 -88.951848 
L 115.632 -87.127515 
L 114.144 -85.108177 
L 112.656 -82.950021 
L 111.168 -80.719144 
L 109.68 -78.490033 
L 108.192 -76.343832 
L 106.704 -74.366447 
L 105.216 -72.646544 
L 103.728 -71.273491 
L 102.24 -70.33531 
L 100.752 -69.916668 
L 99.264 -70.096985 
L 97.776 -70.948679 
L 96.288 -72.535599 
L 94.8 -74.91168 
L 93.312 -78.119837 
L 91.824 -82.191132 
L 90.336 -87.144202 
L 88.848 -92.984978 
L 87.36 -99.703033 
z
" id="mdcba98d9e7"/>
    </defs>
    <g clip-path="url(#p66eee0bc7d)">
     <use style="fill:#347aeb;fill-opacity:0.6;" x="0" xlink:href="#mdcba98d9e7" y="345.6"/>
    </g>
   </g>
   <g id="PathCollection_1">
    <defs>
     <path d="M 0 3 
C 0.795609 3 1.55874 2.683901 2.12132 2.12132 
C 2.683901 1.55874 3 0.795609 3 0 
C 3 -0.795609 2.683901 -1.55874 2.12132 -2.12132 
C 1.55874 -2.683901 0.795609 -3 0 -3 
C -0.795609 -3 -1.55874 -2.683901 -2.12132 -2.12132 
C -2.683901 -1.55874 -3 -0.795609 -3 0 
C -3 0.795609 -2.683901 1.55874 -2.12132 2.12132 
C -1.55874 2.683901 -0.795609 3 0 3 
z
" id="mca167ada11" style="stroke:#1f77b4;"/>
    </defs>
    <g clip-path="url(#p66eee0bc7d)">
     <use style="fill:#1f77b4;stroke:#1f77b4;" x="87.36" xlink:href="#mca167ada11" y="245.893322"/>
     <use style="fill:#1f77b4;stroke:#1f77b4;" x="121.584" xlink:href="#mca167ada11" y="252.733897"/>
     <use style="fill:#1f77b4;stroke:#1f77b4;" x="142.416" xlink:href="#mca167ada11" y="254.254024"/>
     <use style="fill:#1f77b4;stroke:#1f77b4;" x="161.76" xlink:href="#mca167ada11" y="222.689127"/>
     <use style="fill:#1f77b4;stroke:#1f77b4;" x="198.96" xlink:href="#mca167ada11" y="278.70901"/>
     <use style="fill:#1f77b4;stroke:#1f77b4;" x="218.304" xlink:href="#mca167ada11" y="153.941235"/>
     <use style="fill:#1f77b4;stroke:#1f77b4;" x="236.16" xlink:href="#mca167ada11" y="63.648"/>
     <use style="fill:#1f77b4;stroke:#1f77b4;" x="273.36" xlink:href="#mca167ada11" y="278.70901"/>
     <use style="fill:#1f77b4;stroke:#1f77b4;" x="295.68" xlink:href="#mca167ada11" y="245.893322"/>
     <use style="fill:#1f77b4;stroke:#1f77b4;" x="318" xlink:href="#mca167ada11" y="230.977101"/>
     <use style="fill:#1f77b4;stroke:#1f77b4;" x="355.2" xlink:href="#mca167ada11" y="245.893322"/>
     <use style="fill:#1f77b4;stroke:#1f77b4;" x="384.96" xlink:href="#mca167ada11" y="245.893322"/>
    </g>
   </g>
   <g id="matplotlib.axis_1">
    <g id="xtick_1">
     <g id="line2d_1">
      <defs>
       <path d="M 0 0 
L 0 3.5 
" id="m57fc74231f" style="stroke:#000000;stroke-width:0.8;"/>
      </defs>
      <g>
       <use style="stroke:#000000;stroke-width:0.8;" x="57.6" xlink:href="#m57fc74231f" y="307.584"/>
      </g>
     </g>
     <g id="text_1">
      <!-- −6 -->
      <defs>
       <path d="M 10.59375 35.5 
L 73.1875 35.5 
L 73.1875 27.203125 
L 10.59375 27.203125 
z
" id="DejaVuSans-8722"/>
       <path d="M 33.015625 40.375 
Q 26.375 40.375 22.484375 35.828125 
Q 18.609375 31.296875 18.609375 23.390625 
Q 18.609375 15.53125 22.484375 10.953125 
Q 26.375 6.390625 33.015625 6.390625 
Q 39.65625 6.390625 43.53125 10.953125 
Q 47.40625 15.53125 47.40625 23.390625 
Q 47.40625 31.296875 43.53125 35.828125 
Q 39.65625 40.375 33.015625 40.375 
z
M 52.59375 71.296875 
L 52.59375 62.3125 
Q 48.875 64.0625 45.09375 64.984375 
Q 41.3125 65.921875 37.59375 65.921875 
Q 27.828125 65.921875 22.671875 59.328125 
Q 17.53125 52.734375 16.796875 39.40625 
Q 19.671875 43.65625 24.015625 45.921875 
Q 28.375 48.1875 33.59375 48.1875 
Q 44.578125 48.1875 50.953125 41.515625 
Q 57.328125 34.859375 57.328125 23.390625 
Q 57.328125 12.15625 50.6875 5.359375 
Q 44.046875 -1.421875 33.015625 -1.421875 
Q 20.359375 -1.421875 13.671875 8.265625 
Q 6.984375 17.96875 6.984375 36.375 
Q 6.984375 53.65625 15.1875 63.9375 
Q 23.390625 74.21875 37.203125 74.21875 
Q 40.921875 74.21875 44.703125 73.484375 
Q 48.484375 72.75 52.59375 71.296875 
z
" id="DejaVuSans-54"/>
      </defs>
      <g transform="translate(50.228906 322.182437)scale(0.1 -0.1)">
       <use xlink:href="#DejaVuSans-8722"/>
       <use x="83.789062" xlink:href="#DejaVuSans-54"/>
      </g>
     </g>
    </g>
    <g id="xtick_2">
     <g id="line2d_2">
      <g>
       <use style="stroke:#000000;stroke-width:0.8;" x="117.12" xlink:href="#m57fc74231f" y="307.584"/>
      </g>
     </g>
     <g id="text_2">
      <!-- −4 -->
      <defs>
       <path d="M 37.796875 64.3125 
L 12.890625 25.390625 
L 37.796875 25.390625 
z
M 35.203125 72.90625 
L 47.609375 72.90625 
L 47.609375 25.390625 
L 58.015625 25.390625 
L 58.015625 17.1875 
L 47.609375 17.1875 
L 47.609375 0 
L 37.796875 0 
L 37.796875 17.1875 
L 4.890625 17.1875 
L 4.890625 26.703125 
z
" id="DejaVuSans-52"/>
      </defs>
      <g transform="translate(109.748906 322.182437)scale(0.1 -0.1)">
       <use xlink:href="#DejaVuSans-8722"/>
       <use x="83.789062" xlink:href="#DejaVuSans-52"/>
      </g>
     </g>
    </g>
    <g id="xtick_3">
     <g id="line2d_3">
      <g>
       <use style="stroke:#000000;stroke-width:0.8;" x="176.64" xlink:href="#m57fc74231f" y="307.584"/>
      </g>
     </g>
     <g id="text_3">
      <!-- −2 -->
      <defs>
       <path d="M 19.1875 8.296875 
L 53.609375 8.296875 
L 53.609375 0 
L 7.328125 0 
L 7.328125 8.296875 
Q 12.9375 14.109375 22.625 23.890625 
Q 32.328125 33.6875 34.8125 36.53125 
Q 39.546875 41.84375 41.421875 45.53125 
Q 43.3125 49.21875 43.3125 52.78125 
Q 43.3125 58.59375 39.234375 62.25 
Q 35.15625 65.921875 28.609375 65.921875 
Q 23.96875 65.921875 18.8125 64.3125 
Q 13.671875 62.703125 7.8125 59.421875 
L 7.8125 69.390625 
Q 13.765625 71.78125 18.9375 73 
Q 24.125 74.21875 28.421875 74.21875 
Q 39.75 74.21875 46.484375 68.546875 
Q 53.21875 62.890625 53.21875 53.421875 
Q 53.21875 48.921875 51.53125 44.890625 
Q 49.859375 40.875 45.40625 35.40625 
Q 44.1875 33.984375 37.640625 27.21875 
Q 31.109375 20.453125 19.1875 8.296875 
z
" id="DejaVuSans-50"/>
      </defs>
      <g transform="translate(169.268906 322.182437)scale(0.1 -0.1)">
       <use xlink:href="#DejaVuSans-8722"/>
       <use x="83.789062" xlink:href="#DejaVuSans-50"/>
      </g>
     </g>
    </g>
    <g id="xtick_4">
     <g id="line2d_4">
      <g>
       <use style="stroke:#000000;stroke-width:0.8;" x="236.16" xlink:href="#m57fc74231f" y="307.584"/>
      </g>
     </g>
     <g id="text_4">
      <!-- 0 -->
      <defs>
       <path d="M 31.78125 66.40625 
Q 24.171875 66.40625 20.328125 58.90625 
Q 16.5 51.421875 16.5 36.375 
Q 16.5 21.390625 20.328125 13.890625 
Q 24.171875 6.390625 31.78125 6.390625 
Q 39.453125 6.390625 43.28125 13.890625 
Q 47.125 21.390625 47.125 36.375 
Q 47.125 51.421875 43.28125 58.90625 
Q 39.453125 66.40625 31.78125 66.40625 
z
M 31.78125 74.21875 
Q 44.046875 74.21875 50.515625 64.515625 
Q 56.984375 54.828125 56.984375 36.375 
Q 56.984375 17.96875 50.515625 8.265625 
Q 44.046875 -1.421875 31.78125 -1.421875 
Q 19.53125 -1.421875 13.0625 8.265625 
Q 6.59375 17.96875 6.59375 36.375 
Q 6.59375 54.828125 13.0625 64.515625 
Q 19.53125 74.21875 31.78125 74.21875 
z
" id="DejaVuSans-48"/>
      </defs>
      <g transform="translate(232.97875 322.182437)scale(0.1 -0.1)">
       <use xlink:href="#DejaVuSans-48"/>
      </g>
     </g>
    </g>
    <g id="xtick_5">
     <g id="line2d_5">
      <g>
       <use style="stroke:#000000;stroke-width:0.8;" x="295.68" xlink:href="#m57fc74231f" y="307.584"/>
      </g>
     </g>
     <g id="text_5">
      <!-- 2 -->
      <g transform="translate(292.49875 322.182437)scale(0.1 -0.1)">
       <use xlink:href="#DejaVuSans-50"/>
      </g>
     </g>
    </g>
    <g id="xtick_6">
     <g id="line2d_6">
      <g>
       <use style="stroke:#000000;stroke-width:0.8;" x="355.2" xlink:href="#m57fc74231f" y="307.584"/>
      </g>
     </g>
     <g id="text_6">
      <!-- 4 -->
      <g transform="translate(352.01875 322.182437)scale(0.1 -0.1)">
       <use xlink:href="#DejaVuSans-52"/>
      </g>
     </g>
    </g>
    <g id="xtick_7">
     <g id="line2d_7">
      <g>
       <use style="stroke:#000000;stroke-width:0.8;" x="414.72" xlink:href="#m57fc74231f" y="307.584"/>
      </g>
     </g>
     <g id="text_7">
      <!-- 6 -->
      <g transform="translate(411.53875 322.182437)scale(0.1 -0.1)">
       <use xlink:href="#DejaVuSans-54"/>
      </g>
     </g>
    </g>
   </g>
   <g id="matplotlib.axis_2">
    <g id="ytick_1">
     <g id="line2d_8">
      <defs>
       <path d="M 0 0 
L -3.5 0 
" id="m36f25ef1cd" style="stroke:#000000;stroke-width:0.8;"/>
      </defs>
      <g>
       <use style="stroke:#000000;stroke-width:0.8;" x="57.6" xlink:href="#m36f25ef1cd" y="282.342387"/>
      </g>
     </g>
     <g id="text_8">
      <!-- −0.2 -->
      <defs>
       <path d="M 10.6875 12.40625 
L 21 12.40625 
L 21 0 
L 10.6875 0 
z
" id="DejaVuSans-46"/>
      </defs>
      <g transform="translate(26.317187 286.141606)scale(0.1 -0.1)">
       <use xlink:href="#DejaVuSans-8722"/>
       <use x="83.789062" xlink:href="#DejaVuSans-48"/>
       <use x="147.412109" xlink:href="#DejaVuSans-46"/>
       <use x="179.199219" xlink:href="#DejaVuSans-50"/>
      </g>
     </g>
    </g>
    <g id="ytick_2">
     <g id="line2d_9">
      <g>
       <use style="stroke:#000000;stroke-width:0.8;" x="57.6" xlink:href="#m36f25ef1cd" y="245.893322"/>
      </g>
     </g>
     <g id="text_9">
      <!-- 0.0 -->
      <g transform="translate(34.696875 249.692541)scale(0.1 -0.1)">
       <use xlink:href="#DejaVuSans-48"/>
       <use x="63.623047" xlink:href="#DejaVuSans-46"/>
       <use x="95.410156" xlink:href="#DejaVuSans-48"/>
      </g>
     </g>
    </g>
    <g id="ytick_3">
     <g id="line2d_10">
      <g>
       <use style="stroke:#000000;stroke-width:0.8;" x="57.6" xlink:href="#m36f25ef1cd" y="209.444258"/>
      </g>
     </g>
     <g id="text_10">
      <!-- 0.2 -->
      <g transform="translate(34.696875 213.243477)scale(0.1 -0.1)">
       <use xlink:href="#DejaVuSans-48"/>
       <use x="63.623047" xlink:href="#DejaVuSans-46"/>
       <use x="95.410156" xlink:href="#DejaVuSans-50"/>
      </g>
     </g>
    </g>
    <g id="ytick_4">
     <g id="line2d_11">
      <g>
       <use style="stroke:#000000;stroke-width:0.8;" x="57.6" xlink:href="#m36f25ef1cd" y="172.995193"/>
      </g>
     </g>
     <g id="text_11">
      <!-- 0.4 -->
      <g transform="translate(34.696875 176.794412)scale(0.1 -0.1)">
       <use xlink:href="#DejaVuSans-48"/>
       <use x="63.623047" xlink:href="#DejaVuSans-46"/>
       <use x="95.410156" xlink:href="#DejaVuSans-52"/>
      </g>
     </g>
    </g>
    <g id="ytick_5">
     <g id="line2d_12">
      <g>
       <use style="stroke:#000000;stroke-width:0.8;" x="57.6" xlink:href="#m36f25ef1cd" y="136.546129"/>
      </g>
     </g>
     <g id="text_12">
      <!-- 0.6 -->
      <g transform="translate(34.696875 140.345348)scale(0.1 -0.1)">
       <use xlink:href="#DejaVuSans-48"/>
       <use x="63.623047" xlink:href="#DejaVuSans-46"/>
       <use x="95.410156" xlink:href="#DejaVuSans-54"/>
      </g>
     </g>
    </g>
    <g id="ytick_6">
     <g id="line2d_13">
      <g>
       <use style="stroke:#000000;stroke-width:0.8;" x="57.6" xlink:href="#m36f25ef1cd" y="100.097064"/>
      </g>
     </g>
     <g id="text_13">
      <!-- 0.8 -->
      <defs>
       <path d="M 31.78125 34.625 
Q 24.75 34.625 20.71875 30.859375 
Q 16.703125 27.09375 16.703125 20.515625 
Q 16.703125 13.921875 20.71875 10.15625 
Q 24.75 6.390625 31.78125 6.390625 
Q 38.8125 6.390625 42.859375 10.171875 
Q 46.921875 13.96875 46.921875 20.515625 
Q 46.921875 27.09375 42.890625 30.859375 
Q 38.875 34.625 31.78125 34.625 
z
M 21.921875 38.8125 
Q 15.578125 40.375 12.03125 44.71875 
Q 8.5 49.078125 8.5 55.328125 
Q 8.5 64.0625 14.71875 69.140625 
Q 20.953125 74.21875 31.78125 74.21875 
Q 42.671875 74.21875 48.875 69.140625 
Q 55.078125 64.0625 55.078125 55.328125 
Q 55.078125 49.078125 51.53125 44.71875 
Q 48 40.375 41.703125 38.8125 
Q 48.828125 37.15625 52.796875 32.3125 
Q 56.78125 27.484375 56.78125 20.515625 
Q 56.78125 9.90625 50.3125 4.234375 
Q 43.84375 -1.421875 31.78125 -1.421875 
Q 19.734375 -1.421875 13.25 4.234375 
Q 6.78125 9.90625 6.78125 20.515625 
Q 6.78125 27.484375 10.78125 32.3125 
Q 14.796875 37.15625 21.921875 38.8125 
z
M 18.3125 54.390625 
Q 18.3125 48.734375 21.84375 45.5625 
Q 25.390625 42.390625 31.78125 42.390625 
Q 38.140625 42.390625 41.71875 45.5625 
Q 45.3125 48.734375 45.3125 54.390625 
Q 45.3125 60.0625 41.71875 63.234375 
Q 38.140625 66.40625 31.78125 66.40625 
Q 25.390625 66.40625 21.84375 63.234375 
Q 18.3125 60.0625 18.3125 54.390625 
z
" id="DejaVuSans-56"/>
      </defs>
      <g transform="translate(34.696875 103.896283)scale(0.1 -0.1)">
       <use xlink:href="#DejaVuSans-48"/>
       <use x="63.623047" xlink:href="#DejaVuSans-46"/>
       <use x="95.410156" xlink:href="#DejaVuSans-56"/>
      </g>
     </g>
    </g>
    <g id="ytick_7">
     <g id="line2d_14">
      <g>
       <use style="stroke:#000000;stroke-width:0.8;" x="57.6" xlink:href="#m36f25ef1cd" y="63.648"/>
      </g>
     </g>
     <g id="text_14">
      <!-- 1.0 -->
      <defs>
       <path d="M 12.40625 8.296875 
L 28.515625 8.296875 
L 28.515625 63.921875 
L 10.984375 60.40625 
L 10.984375 69.390625 
L 28.421875 72.90625 
L 38.28125 72.90625 
L 38.28125 8.296875 
L 54.390625 8.296875 
L 54.390625 0 
L 12.40625 0 
z
" id="DejaVuSans-49"/>
      </defs>
      <g transform="translate(34.696875 67.447219)scale(0.1 -0.1)">
       <use xlink:href="#DejaVuSans-49"/>
       <use x="63.623047" xlink:href="#DejaVuSans-46"/>
       <use x="95.410156" xlink:href="#DejaVuSans-48"/>
      </g>
     </g>
    </g>
   </g>
   <g id="line2d_15">
    <path clip-path="url(#p66eee0bc7d)" d="M 87.36 245.893322 
L 90.336 241.573647 
L 93.312 237.837035 
L 94.8 236.267682 
L 96.288 234.936119 
L 97.776 233.867269 
L 99.264 233.082084 
L 100.752 232.596929 
L 102.24 232.423021 
L 103.728 232.565956 
L 105.216 233.025331 
L 106.704 233.794484 
L 108.192 234.860354 
L 109.68 236.203481 
L 111.168 237.798154 
L 112.656 239.6127 
L 115.632 243.747715 
L 123.072 254.828054 
L 124.56 256.755569 
L 126.048 258.466318 
L 127.536 259.913681 
L 129.024 261.055738 
L 130.512 261.856397 
L 132 262.286433 
L 133.488 262.324401 
L 134.976 261.95741 
L 136.464 261.181716 
L 137.952 260.003131 
L 139.44 258.437217 
L 140.928 256.509263 
L 142.416 254.254024 
L 143.904 251.715244 
L 146.88 246.002454 
L 152.832 233.886326 
L 154.32 231.141237 
L 155.808 228.659374 
L 157.296 226.511395 
L 158.784 224.762755 
L 160.272 223.471992 
L 161.76 222.689127 
L 163.248 222.454195 
L 164.736 222.79595 
L 166.224 223.730785 
L 167.712 225.261881 
L 169.2 227.378618 
L 170.688 230.056276 
L 172.176 233.256017 
L 173.664 236.925178 
L 175.152 240.997864 
L 178.128 250.029665 
L 184.08 268.831455 
L 185.568 273.025774 
L 187.056 276.780578 
L 188.544 279.979762 
L 190.032 282.512376 
L 191.52 284.274954 
L 193.008 285.173751 
L 194.496 285.126846 
L 195.984 284.066072 
L 197.472 281.938724 
L 198.96 278.70901 
L 200.448 274.359217 
L 201.936 268.890563 
L 203.424 262.323702 
L 204.912 254.698891 
L 206.4 246.075778 
L 207.888 236.53284 
L 210.864 215.089613 
L 213.84 191.3298 
L 221.28 129.773198 
L 224.256 107.779999 
L 225.744 97.997725 
L 227.232 89.219002 
L 228.72 81.573093 
L 230.208 75.173454 
L 231.696 70.115697 
L 233.184 66.475842 
L 234.672 64.308931 
L 236.16 63.648 
L 237.648 64.503446 
L 239.136 66.862803 
L 240.624 70.690935 
L 242.112 75.930632 
L 243.6 82.503615 
L 245.088 90.311926 
L 246.576 99.239668 
L 248.064 109.155076 
L 251.04 131.356851 
L 255.504 168.139245 
L 259.968 205.027955 
L 262.944 227.539102 
L 264.432 237.753594 
L 265.92 247.122147 
L 267.408 255.552296 
L 268.896 262.970282 
L 270.384 269.321884 
L 271.872 274.572863 
L 273.36 278.70901 
L 274.848 281.735791 
L 276.336 283.677629 
L 277.824 284.576814 
L 279.312 284.492101 
L 280.8 283.49701 
L 282.288 281.677886 
L 283.776 279.131749 
L 285.264 275.964008 
L 286.752 272.286064 
L 289.728 263.860572 
L 295.68 245.893323 
L 298.656 237.964316 
L 300.144 234.546131 
L 301.632 231.56919 
L 303.12 229.075171 
L 304.608 227.092551 
L 306.096 225.636696 
L 307.584 224.710214 
L 309.072 224.30359 
L 310.56 224.396044 
L 312.048 224.956607 
L 313.536 225.945359 
L 315.024 227.314821 
L 316.512 229.011434 
L 318 230.977101 
L 320.976 235.469939 
L 326.928 244.984665 
L 329.904 249.123222 
L 331.392 250.883106 
L 332.88 252.395042 
L 334.368 253.636869 
L 335.856 254.593886 
L 337.344 255.258778 
L 338.832 255.631399 
L 340.32 255.718382 
L 341.808 255.532631 
L 343.296 255.092695 
L 344.784 254.422045 
L 346.272 253.548287 
L 347.76 252.502324 
L 350.736 250.028695 
L 358.176 243.252241 
L 361.152 240.983098 
L 362.64 240.047915 
L 364.128 239.270332 
L 365.616 238.663942 
L 367.104 238.238314 
L 368.592 237.999024 
L 370.08 237.947752 
L 371.568 238.082478 
L 373.056 238.397721 
L 374.544 238.884846 
L 376.032 239.532413 
L 377.52 240.32656 
L 380.496 242.289493 
L 383.472 244.63002 
L 384.96 245.893322 
L 384.96 245.893322 
" style="fill:none;stroke:#333333;stroke-linecap:square;stroke-width:1.5;"/>
   </g>
   <g id="line2d_16">
    <path clip-path="url(#p66eee0bc7d)" d="M 87.36 245.893322 
L 121.584 252.733897 
L 142.416 254.254024 
L 161.76 222.689127 
L 198.96 278.70901 
L 218.304 153.941235 
L 236.16 63.648 
L 273.36 278.70901 
L 295.68 245.893322 
L 318 230.977101 
L 355.2 245.893322 
L 384.96 245.893322 
" style="fill:none;stroke:#666666;stroke-linecap:square;stroke-width:1.5;"/>
    <defs>
     <path d="M 0 3 
C 0.795609 3 1.55874 2.683901 2.12132 2.12132 
C 2.683901 1.55874 3 0.795609 3 0 
C 3 -0.795609 2.683901 -1.55874 2.12132 -2.12132 
C 1.55874 -2.683901 0.795609 -3 0 -3 
C -0.795609 -3 -1.55874 -2.683901 -2.12132 -2.12132 
C -2.683901 -1.55874 -3 -0.795609 -3 0 
C -3 0.795609 -2.683901 1.55874 -2.12132 2.12132 
C -1.55874 2.683901 -0.795609 3 0 3 
z
" id="mcd9ce98a84" style="stroke:#666666;"/>
    </defs>
    <g clip-path="url(#p66eee0bc7d)">
     <use style="fill:#666666;stroke:#666666;" x="87.36" xlink:href="#mcd9ce98a84" y="245.893322"/>
     <use style="fill:#666666;stroke:#666666;" x="121.584" xlink:href="#mcd9ce98a84" y="252.733897"/>
     <use style="fill:#666666;stroke:#666666;" x="142.416" xlink:href="#mcd9ce98a84" y="254.254024"/>
     <use style="fill:#666666;stroke:#666666;" x="161.76" xlink:href="#mcd9ce98a84" y="222.689127"/>
     <use style="fill:#666666;stroke:#666666;" x="198.96" xlink:href="#mcd9ce98a84" y="278.70901"/>
     <use style="fill:#666666;stroke:#666666;" x="218.304" xlink:href="#mcd9ce98a84" y="153.941235"/>
     <use style="fill:#666666;stroke:#666666;" x="236.16" xlink:href="#mcd9ce98a84" y="63.648"/>
     <use style="fill:#666666;stroke:#666666;" x="273.36" xlink:href="#mcd9ce98a84" y="278.70901"/>
     <use style="fill:#666666;stroke:#666666;" x="295.68" xlink:href="#mcd9ce98a84" y="245.893322"/>
     <use style="fill:#666666;stroke:#666666;" x="318" xlink:href="#mcd9ce98a84" y="230.977101"/>
     <use style="fill:#666666;stroke:#666666;" x="355.2" xlink:href="#mcd9ce98a84" y="245.893322"/>
     <use style="fill:#666666;stroke:#666666;" x="384.96" xlink:href="#mcd9ce98a84" y="245.893322"/>
    </g>
   </g>
   <g id="line2d_17">
    <path clip-path="url(#p66eee0bc7d)" d="M 87.36 245.893322 
L 91.824 240.463176 
L 94.8 237.257615 
L 96.288 235.907903 
L 97.776 234.777683 
L 99.264 233.899572 
L 100.752 233.300733 
L 102.24 233.002103 
L 103.728 233.017753 
L 105.216 233.354401 
L 106.704 234.011087 
L 108.192 234.979027 
L 109.68 236.24165 
L 111.168 237.77482 
L 112.656 239.547248 
L 115.632 243.652621 
L 123.072 254.866404 
L 124.56 256.831885 
L 126.048 258.577504 
L 127.536 260.054342 
L 129.024 261.21867 
L 130.512 262.03312 
L 132 262.467748 
L 133.488 262.500941 
L 134.976 262.120161 
L 136.464 261.322494 
L 137.952 260.11498 
L 139.44 258.514741 
L 140.928 256.548857 
L 142.416 254.254024 
L 143.904 251.675976 
L 146.88 245.893322 
L 152.832 233.715569 
L 154.32 230.977101 
L 155.808 228.511296 
L 157.296 226.388521 
L 158.784 224.67361 
L 160.272 223.424192 
L 161.76 222.689127 
L 163.248 222.507085 
L 164.736 222.905301 
L 166.224 223.898547 
L 167.712 225.488335 
L 169.2 227.662385 
L 170.688 230.394364 
L 172.176 233.643922 
L 173.664 237.357024 
L 176.64 245.893322 
L 185.568 273.50007 
L 187.056 277.219215 
L 188.544 280.375355 
L 190.032 282.858666 
L 191.52 284.566981 
L 193.008 285.408 
L 194.496 285.30136 
L 195.984 284.180525 
L 197.472 281.994454 
L 198.96 278.70901 
L 200.448 274.30808 
L 201.936 268.794375 
L 203.424 262.189892 
L 204.912 254.536027 
L 206.4 245.893322 
L 207.888 236.34086 
L 210.864 214.909546 
L 213.84 191.20051 
L 221.28 129.872347 
L 224.256 107.965191 
L 225.744 98.214113 
L 227.232 89.455087 
L 228.72 81.814885 
L 230.208 75.404776 
L 231.696 70.318587 
L 233.184 66.631056 
L 234.672 64.39653 
L 236.16 63.648 
L 237.648 64.39653 
L 239.136 66.631056 
L 240.624 70.318587 
L 242.112 75.404776 
L 243.6 81.814885 
L 245.088 89.455087 
L 246.576 98.214113 
L 248.064 107.965191 
L 251.04 129.872347 
L 254.016 153.941235 
L 259.968 203.271186 
L 262.944 225.975293 
L 264.432 236.34086 
L 265.92 245.893322 
L 267.408 254.536027 
L 268.896 262.189892 
L 270.384 268.794375 
L 271.872 274.30808 
L 273.36 278.70901 
L 274.848 281.994454 
L 276.336 284.180525 
L 277.824 285.30136 
L 279.312 285.408 
L 280.8 284.566981 
L 282.288 282.858666 
L 283.776 280.375355 
L 285.264 277.219215 
L 286.752 273.50007 
L 289.728 264.836494 
L 297.168 241.466571 
L 298.656 237.357024 
L 300.144 233.643922 
L 301.632 230.394364 
L 303.12 227.662385 
L 304.608 225.488335 
L 306.096 223.898547 
L 307.584 222.905301 
L 309.072 222.507085 
L 310.56 222.689127 
L 312.048 223.424192 
L 313.536 224.67361 
L 315.024 226.388521 
L 316.512 228.511296 
L 318 230.977101 
L 320.976 236.652547 
L 326.928 248.86868 
L 329.904 254.254024 
L 331.392 256.548857 
L 332.88 258.514741 
L 334.368 260.11498 
L 335.856 261.322494 
L 337.344 262.120161 
L 338.832 262.500941 
L 340.32 262.467748 
L 341.808 262.03312 
L 343.296 261.21867 
L 344.784 260.054342 
L 346.272 258.577504 
L 347.76 256.831885 
L 350.736 252.733897 
L 358.176 241.521072 
L 359.664 239.547248 
L 361.152 237.77482 
L 362.64 236.24165 
L 364.128 234.979027 
L 365.616 234.011087 
L 367.104 233.354401 
L 368.592 233.017753 
L 370.08 233.002103 
L 371.568 233.300733 
L 373.056 233.899572 
L 374.544 234.777683 
L 376.032 235.907903 
L 377.52 237.257615 
L 380.496 240.463176 
L 384.96 245.893322 
L 384.96 245.893322 
" style="fill:none;stroke:#000000;stroke-linecap:square;stroke-width:1.5;"/>
   </g>
   <g id="line2d_18">
    <path clip-path="url(#p66eee0bc7d)" d="M 218.304 153.941235 
L 218.304 153.941235 
" style="fill:none;stroke:#ff00ff;stroke-linecap:square;stroke-width:1.5;"/>
    <defs>
     <path d="M 0 3 
C 0.795609 3 1.55874 2.683901 2.12132 2.12132 
C 2.683901 1.55874 3 0.795609 3 0 
C 3 -0.795609 2.683901 -1.55874 2.12132 -2.12132 
C 1.55874 -2.683901 0.795609 -3 0 -3 
C -0.795609 -3 -1.55874 -2.683901 -2.12132 -2.12132 
C -2.683901 -1.55874 -3 -0.795609 -3 0 
C -3 0.795609 -2.683901 1.55874 -2.12132 2.12132 
C -1.55874 2.683901 -0.795609 3 0 3 
z
" id="mfc958b2ebd" style="stroke:#ff00ff;"/>
    </defs>
    <g clip-path="url(#p66eee0bc7d)">
     <use style="fill:#ff00ff;stroke:#ff00ff;" x="218.304" xlink:href="#mfc958b2ebd" y="153.941235"/>
     <use style="fill:#ff00ff;stroke:#ff00ff;" x="218.304" xlink:href="#mfc958b2ebd" y="153.941235"/>
    </g>
   </g>
   <g id="patch_3">
    <path d="M 57.6 307.584 
L 57.6 41.472 
" style="fill:none;stroke:#000000;stroke-linecap:square;stroke-linejoin:miter;stroke-width:0.8;"/>
   </g>
   <g id="patch_4">
    <path d="M 414.72 307.584 
L 414.72 41.472 
" style="fill:none;stroke:#000000;stroke-linecap:square;stroke-linejoin:miter;stroke-width:0.8;"/>
   </g>
   <g id="patch_5">
    <path d="M 57.6 307.584 
L 414.72 307.584 
" style="fill:none;stroke:#000000;stroke-linecap:square;stroke-linejoin:miter;stroke-width:0.8;"/>
   </g>
   <g id="patch_6">
    <path d="M 57.6 41.472 
L 414.72 41.472 
" style="fill:none;stroke:#000000;stroke-linecap:square;stroke-linejoin:miter;stroke-width:0.8;"/>
   </g>
   <g id="legend_1">
    <g id="patch_7">
     <path d="M 279.791875 122.8845 
L 407.72 122.8845 
Q 409.72 122.8845 409.72 120.8845 
L 409.72 48.472 
Q 409.72 46.472 407.72 46.472 
L 279.791875 46.472 
Q 277.791875 46.472 277.791875 48.472 
L 277.791875 120.8845 
Q 277.791875 122.8845 279.791875 122.8845 
z
" style="fill:#ffffff;opacity:0.8;stroke:#cccccc;stroke-linejoin:miter;"/>
    </g>
    <g id="line2d_19">
     <path d="M 281.791875 54.570438 
L 301.791875 54.570438 
" style="fill:none;stroke:#333333;stroke-linecap:square;stroke-width:1.5;"/>
    </g>
    <g id="line2d_20"/>
    <g id="text_15">
     <!-- GP predicted mean -->
     <defs>
      <path d="M 59.515625 10.40625 
L 59.515625 29.984375 
L 43.40625 29.984375 
L 43.40625 38.09375 
L 69.28125 38.09375 
L 69.28125 6.78125 
Q 63.578125 2.734375 56.6875 0.65625 
Q 49.8125 -1.421875 42 -1.421875 
Q 24.90625 -1.421875 15.25 8.5625 
Q 5.609375 18.5625 5.609375 36.375 
Q 5.609375 54.25 15.25 64.234375 
Q 24.90625 74.21875 42 74.21875 
Q 49.125 74.21875 55.546875 72.453125 
Q 61.96875 70.703125 67.390625 67.28125 
L 67.390625 56.78125 
Q 61.921875 61.421875 55.765625 63.765625 
Q 49.609375 66.109375 42.828125 66.109375 
Q 29.4375 66.109375 22.71875 58.640625 
Q 16.015625 51.171875 16.015625 36.375 
Q 16.015625 21.625 22.71875 14.15625 
Q 29.4375 6.6875 42.828125 6.6875 
Q 48.046875 6.6875 52.140625 7.59375 
Q 56.25 8.5 59.515625 10.40625 
z
" id="DejaVuSans-71"/>
      <path d="M 19.671875 64.796875 
L 19.671875 37.40625 
L 32.078125 37.40625 
Q 38.96875 37.40625 42.71875 40.96875 
Q 46.484375 44.53125 46.484375 51.125 
Q 46.484375 57.671875 42.71875 61.234375 
Q 38.96875 64.796875 32.078125 64.796875 
z
M 9.8125 72.90625 
L 32.078125 72.90625 
Q 44.34375 72.90625 50.609375 67.359375 
Q 56.890625 61.8125 56.890625 51.125 
Q 56.890625 40.328125 50.609375 34.8125 
Q 44.34375 29.296875 32.078125 29.296875 
L 19.671875 29.296875 
L 19.671875 0 
L 9.8125 0 
z
" id="DejaVuSans-80"/>
      <path id="DejaVuSans-32"/>
      <path d="M 18.109375 8.203125 
L 18.109375 -20.796875 
L 9.078125 -20.796875 
L 9.078125 54.6875 
L 18.109375 54.6875 
L 18.109375 46.390625 
Q 20.953125 51.265625 25.265625 53.625 
Q 29.59375 56 35.59375 56 
Q 45.5625 56 51.78125 48.09375 
Q 58.015625 40.1875 58.015625 27.296875 
Q 58.015625 14.40625 51.78125 6.484375 
Q 45.5625 -1.421875 35.59375 -1.421875 
Q 29.59375 -1.421875 25.265625 0.953125 
Q 20.953125 3.328125 18.109375 8.203125 
z
M 48.6875 27.296875 
Q 48.6875 37.203125 44.609375 42.84375 
Q 40.53125 48.484375 33.40625 48.484375 
Q 26.265625 48.484375 22.1875 42.84375 
Q 18.109375 37.203125 18.109375 27.296875 
Q 18.109375 17.390625 22.1875 11.75 
Q 26.265625 6.109375 33.40625 6.109375 
Q 40.53125 6.109375 44.609375 11.75 
Q 48.6875 17.390625 48.6875 27.296875 
z
" id="DejaVuSans-112"/>
      <path d="M 41.109375 46.296875 
Q 39.59375 47.171875 37.8125 47.578125 
Q 36.03125 48 33.890625 48 
Q 26.265625 48 22.1875 43.046875 
Q 18.109375 38.09375 18.109375 28.8125 
L 18.109375 0 
L 9.078125 0 
L 9.078125 54.6875 
L 18.109375 54.6875 
L 18.109375 46.1875 
Q 20.953125 51.171875 25.484375 53.578125 
Q 30.03125 56 36.53125 56 
Q 37.453125 56 38.578125 55.875 
Q 39.703125 55.765625 41.0625 55.515625 
z
" id="DejaVuSans-114"/>
      <path d="M 56.203125 29.59375 
L 56.203125 25.203125 
L 14.890625 25.203125 
Q 15.484375 15.921875 20.484375 11.0625 
Q 25.484375 6.203125 34.421875 6.203125 
Q 39.59375 6.203125 44.453125 7.46875 
Q 49.3125 8.734375 54.109375 11.28125 
L 54.109375 2.78125 
Q 49.265625 0.734375 44.1875 -0.34375 
Q 39.109375 -1.421875 33.890625 -1.421875 
Q 20.796875 -1.421875 13.15625 6.1875 
Q 5.515625 13.8125 5.515625 26.8125 
Q 5.515625 40.234375 12.765625 48.109375 
Q 20.015625 56 32.328125 56 
Q 43.359375 56 49.78125 48.890625 
Q 56.203125 41.796875 56.203125 29.59375 
z
M 47.21875 32.234375 
Q 47.125 39.59375 43.09375 43.984375 
Q 39.0625 48.390625 32.421875 48.390625 
Q 24.90625 48.390625 20.390625 44.140625 
Q 15.875 39.890625 15.1875 32.171875 
z
" id="DejaVuSans-101"/>
      <path d="M 45.40625 46.390625 
L 45.40625 75.984375 
L 54.390625 75.984375 
L 54.390625 0 
L 45.40625 0 
L 45.40625 8.203125 
Q 42.578125 3.328125 38.25 0.953125 
Q 33.9375 -1.421875 27.875 -1.421875 
Q 17.96875 -1.421875 11.734375 6.484375 
Q 5.515625 14.40625 5.515625 27.296875 
Q 5.515625 40.1875 11.734375 48.09375 
Q 17.96875 56 27.875 56 
Q 33.9375 56 38.25 53.625 
Q 42.578125 51.265625 45.40625 46.390625 
z
M 14.796875 27.296875 
Q 14.796875 17.390625 18.875 11.75 
Q 22.953125 6.109375 30.078125 6.109375 
Q 37.203125 6.109375 41.296875 11.75 
Q 45.40625 17.390625 45.40625 27.296875 
Q 45.40625 37.203125 41.296875 42.84375 
Q 37.203125 48.484375 30.078125 48.484375 
Q 22.953125 48.484375 18.875 42.84375 
Q 14.796875 37.203125 14.796875 27.296875 
z
" id="DejaVuSans-100"/>
      <path d="M 9.421875 54.6875 
L 18.40625 54.6875 
L 18.40625 0 
L 9.421875 0 
z
M 9.421875 75.984375 
L 18.40625 75.984375 
L 18.40625 64.59375 
L 9.421875 64.59375 
z
" id="DejaVuSans-105"/>
      <path d="M 48.78125 52.59375 
L 48.78125 44.1875 
Q 44.96875 46.296875 41.140625 47.34375 
Q 37.3125 48.390625 33.40625 48.390625 
Q 24.65625 48.390625 19.8125 42.84375 
Q 14.984375 37.3125 14.984375 27.296875 
Q 14.984375 17.28125 19.8125 11.734375 
Q 24.65625 6.203125 33.40625 6.203125 
Q 37.3125 6.203125 41.140625 7.25 
Q 44.96875 8.296875 48.78125 10.40625 
L 48.78125 2.09375 
Q 45.015625 0.34375 40.984375 -0.53125 
Q 36.96875 -1.421875 32.421875 -1.421875 
Q 20.0625 -1.421875 12.78125 6.34375 
Q 5.515625 14.109375 5.515625 27.296875 
Q 5.515625 40.671875 12.859375 48.328125 
Q 20.21875 56 33.015625 56 
Q 37.15625 56 41.109375 55.140625 
Q 45.0625 54.296875 48.78125 52.59375 
z
" id="DejaVuSans-99"/>
      <path d="M 18.3125 70.21875 
L 18.3125 54.6875 
L 36.8125 54.6875 
L 36.8125 47.703125 
L 18.3125 47.703125 
L 18.3125 18.015625 
Q 18.3125 11.328125 20.140625 9.421875 
Q 21.96875 7.515625 27.59375 7.515625 
L 36.8125 7.515625 
L 36.8125 0 
L 27.59375 0 
Q 17.1875 0 13.234375 3.875 
Q 9.28125 7.765625 9.28125 18.015625 
L 9.28125 47.703125 
L 2.6875 47.703125 
L 2.6875 54.6875 
L 9.28125 54.6875 
L 9.28125 70.21875 
z
" id="DejaVuSans-116"/>
      <path d="M 52 44.1875 
Q 55.375 50.25 60.0625 53.125 
Q 64.75 56 71.09375 56 
Q 79.640625 56 84.28125 50.015625 
Q 88.921875 44.046875 88.921875 33.015625 
L 88.921875 0 
L 79.890625 0 
L 79.890625 32.71875 
Q 79.890625 40.578125 77.09375 44.375 
Q 74.3125 48.1875 68.609375 48.1875 
Q 61.625 48.1875 57.5625 43.546875 
Q 53.515625 38.921875 53.515625 30.90625 
L 53.515625 0 
L 44.484375 0 
L 44.484375 32.71875 
Q 44.484375 40.625 41.703125 44.40625 
Q 38.921875 48.1875 33.109375 48.1875 
Q 26.21875 48.1875 22.15625 43.53125 
Q 18.109375 38.875 18.109375 30.90625 
L 18.109375 0 
L 9.078125 0 
L 9.078125 54.6875 
L 18.109375 54.6875 
L 18.109375 46.1875 
Q 21.1875 51.21875 25.484375 53.609375 
Q 29.78125 56 35.6875 56 
Q 41.65625 56 45.828125 52.96875 
Q 50 49.953125 52 44.1875 
z
" id="DejaVuSans-109"/>
      <path d="M 34.28125 27.484375 
Q 23.390625 27.484375 19.1875 25 
Q 14.984375 22.515625 14.984375 16.5 
Q 14.984375 11.71875 18.140625 8.90625 
Q 21.296875 6.109375 26.703125 6.109375 
Q 34.1875 6.109375 38.703125 11.40625 
Q 43.21875 16.703125 43.21875 25.484375 
L 43.21875 27.484375 
z
M 52.203125 31.203125 
L 52.203125 0 
L 43.21875 0 
L 43.21875 8.296875 
Q 40.140625 3.328125 35.546875 0.953125 
Q 30.953125 -1.421875 24.3125 -1.421875 
Q 15.921875 -1.421875 10.953125 3.296875 
Q 6 8.015625 6 15.921875 
Q 6 25.140625 12.171875 29.828125 
Q 18.359375 34.515625 30.609375 34.515625 
L 43.21875 34.515625 
L 43.21875 35.40625 
Q 43.21875 41.609375 39.140625 45 
Q 35.0625 48.390625 27.6875 48.390625 
Q 23 48.390625 18.546875 47.265625 
Q 14.109375 46.140625 10.015625 43.890625 
L 10.015625 52.203125 
Q 14.9375 54.109375 19.578125 55.046875 
Q 24.21875 56 28.609375 56 
Q 40.484375 56 46.34375 49.84375 
Q 52.203125 43.703125 52.203125 31.203125 
z
" id="DejaVuSans-97"/>
      <path d="M 54.890625 33.015625 
L 54.890625 0 
L 45.90625 0 
L 45.90625 32.71875 
Q 45.90625 40.484375 42.875 44.328125 
Q 39.84375 48.1875 33.796875 48.1875 
Q 26.515625 48.1875 22.3125 43.546875 
Q 18.109375 38.921875 18.109375 30.90625 
L 18.109375 0 
L 9.078125 0 
L 9.078125 54.6875 
L 18.109375 54.6875 
L 18.109375 46.1875 
Q 21.34375 51.125 25.703125 53.5625 
Q 30.078125 56 35.796875 56 
Q 45.21875 56 50.046875 50.171875 
Q 54.890625 44.34375 54.890625 33.015625 
z
" id="DejaVuSans-110"/>
     </defs>
     <g transform="translate(309.791875 58.070438)scale(0.1 -0.1)">
      <use xlink:href="#DejaVuSans-71"/>
      <use x="77.490234" xlink:href="#DejaVuSans-80"/>
      <use x="137.792969" xlink:href="#DejaVuSans-32"/>
      <use x="169.580078" xlink:href="#DejaVuSans-112"/>
      <use x="233.056641" xlink:href="#DejaVuSans-114"/>
      <use x="271.919922" xlink:href="#DejaVuSans-101"/>
      <use x="333.443359" xlink:href="#DejaVuSans-100"/>
      <use x="396.919922" xlink:href="#DejaVuSans-105"/>
      <use x="424.703125" xlink:href="#DejaVuSans-99"/>
      <use x="479.683594" xlink:href="#DejaVuSans-116"/>
      <use x="518.892578" xlink:href="#DejaVuSans-101"/>
      <use x="580.416016" xlink:href="#DejaVuSans-100"/>
      <use x="643.892578" xlink:href="#DejaVuSans-32"/>
      <use x="675.679688" xlink:href="#DejaVuSans-109"/>
      <use x="773.091797" xlink:href="#DejaVuSans-101"/>
      <use x="834.615234" xlink:href="#DejaVuSans-97"/>
      <use x="895.894531" xlink:href="#DejaVuSans-110"/>
     </g>
    </g>
    <g id="line2d_21">
     <path d="M 281.791875 69.248563 
L 301.791875 69.248563 
" style="fill:none;stroke:#666666;stroke-linecap:square;stroke-width:1.5;"/>
    </g>
    <g id="line2d_22">
     <g>
      <use style="fill:#666666;stroke:#666666;" x="291.791875" xlink:href="#mcd9ce98a84" y="69.248563"/>
     </g>
    </g>
    <g id="text_16">
     <!-- local linear approx. -->
     <defs>
      <path d="M 9.421875 75.984375 
L 18.40625 75.984375 
L 18.40625 0 
L 9.421875 0 
z
" id="DejaVuSans-108"/>
      <path d="M 30.609375 48.390625 
Q 23.390625 48.390625 19.1875 42.75 
Q 14.984375 37.109375 14.984375 27.296875 
Q 14.984375 17.484375 19.15625 11.84375 
Q 23.34375 6.203125 30.609375 6.203125 
Q 37.796875 6.203125 41.984375 11.859375 
Q 46.1875 17.53125 46.1875 27.296875 
Q 46.1875 37.015625 41.984375 42.703125 
Q 37.796875 48.390625 30.609375 48.390625 
z
M 30.609375 56 
Q 42.328125 56 49.015625 48.375 
Q 55.71875 40.765625 55.71875 27.296875 
Q 55.71875 13.875 49.015625 6.21875 
Q 42.328125 -1.421875 30.609375 -1.421875 
Q 18.84375 -1.421875 12.171875 6.21875 
Q 5.515625 13.875 5.515625 27.296875 
Q 5.515625 40.765625 12.171875 48.375 
Q 18.84375 56 30.609375 56 
z
" id="DejaVuSans-111"/>
      <path d="M 54.890625 54.6875 
L 35.109375 28.078125 
L 55.90625 0 
L 45.3125 0 
L 29.390625 21.484375 
L 13.484375 0 
L 2.875 0 
L 24.125 28.609375 
L 4.6875 54.6875 
L 15.28125 54.6875 
L 29.78125 35.203125 
L 44.28125 54.6875 
z
" id="DejaVuSans-120"/>
     </defs>
     <g transform="translate(309.791875 72.748563)scale(0.1 -0.1)">
      <use xlink:href="#DejaVuSans-108"/>
      <use x="27.783203" xlink:href="#DejaVuSans-111"/>
      <use x="88.964844" xlink:href="#DejaVuSans-99"/>
      <use x="143.945312" xlink:href="#DejaVuSans-97"/>
      <use x="205.224609" xlink:href="#DejaVuSans-108"/>
      <use x="233.007812" xlink:href="#DejaVuSans-32"/>
      <use x="264.794922" xlink:href="#DejaVuSans-108"/>
      <use x="292.578125" xlink:href="#DejaVuSans-105"/>
      <use x="320.361328" xlink:href="#DejaVuSans-110"/>
      <use x="383.740234" xlink:href="#DejaVuSans-101"/>
      <use x="445.263672" xlink:href="#DejaVuSans-97"/>
      <use x="506.542969" xlink:href="#DejaVuSans-114"/>
      <use x="547.65625" xlink:href="#DejaVuSans-32"/>
      <use x="579.443359" xlink:href="#DejaVuSans-97"/>
      <use x="640.722656" xlink:href="#DejaVuSans-112"/>
      <use x="704.199219" xlink:href="#DejaVuSans-112"/>
      <use x="767.675781" xlink:href="#DejaVuSans-114"/>
      <use x="806.539062" xlink:href="#DejaVuSans-111"/>
      <use x="864.595703" xlink:href="#DejaVuSans-120"/>
      <use x="923.775391" xlink:href="#DejaVuSans-46"/>
     </g>
    </g>
    <g id="line2d_23">
     <path d="M 281.791875 83.926688 
L 301.791875 83.926688 
" style="fill:none;stroke:#000000;stroke-linecap:square;stroke-width:1.5;"/>
    </g>
    <g id="line2d_24"/>
    <g id="text_17">
     <!-- true function -->
     <defs>
      <path d="M 8.5 21.578125 
L 8.5 54.6875 
L 17.484375 54.6875 
L 17.484375 21.921875 
Q 17.484375 14.15625 20.5 10.265625 
Q 23.53125 6.390625 29.59375 6.390625 
Q 36.859375 6.390625 41.078125 11.03125 
Q 45.3125 15.671875 45.3125 23.6875 
L 45.3125 54.6875 
L 54.296875 54.6875 
L 54.296875 0 
L 45.3125 0 
L 45.3125 8.40625 
Q 42.046875 3.421875 37.71875 1 
Q 33.40625 -1.421875 27.6875 -1.421875 
Q 18.265625 -1.421875 13.375 4.4375 
Q 8.5 10.296875 8.5 21.578125 
z
M 31.109375 56 
z
" id="DejaVuSans-117"/>
      <path d="M 37.109375 75.984375 
L 37.109375 68.5 
L 28.515625 68.5 
Q 23.6875 68.5 21.796875 66.546875 
Q 19.921875 64.59375 19.921875 59.515625 
L 19.921875 54.6875 
L 34.71875 54.6875 
L 34.71875 47.703125 
L 19.921875 47.703125 
L 19.921875 0 
L 10.890625 0 
L 10.890625 47.703125 
L 2.296875 47.703125 
L 2.296875 54.6875 
L 10.890625 54.6875 
L 10.890625 58.5 
Q 10.890625 67.625 15.140625 71.796875 
Q 19.390625 75.984375 28.609375 75.984375 
z
" id="DejaVuSans-102"/>
     </defs>
     <g transform="translate(309.791875 87.426688)scale(0.1 -0.1)">
      <use xlink:href="#DejaVuSans-116"/>
      <use x="39.208984" xlink:href="#DejaVuSans-114"/>
      <use x="80.322266" xlink:href="#DejaVuSans-117"/>
      <use x="143.701172" xlink:href="#DejaVuSans-101"/>
      <use x="205.224609" xlink:href="#DejaVuSans-32"/>
      <use x="237.011719" xlink:href="#DejaVuSans-102"/>
      <use x="272.216797" xlink:href="#DejaVuSans-117"/>
      <use x="335.595703" xlink:href="#DejaVuSans-110"/>
      <use x="398.974609" xlink:href="#DejaVuSans-99"/>
      <use x="453.955078" xlink:href="#DejaVuSans-116"/>
      <use x="493.164062" xlink:href="#DejaVuSans-105"/>
      <use x="520.947266" xlink:href="#DejaVuSans-111"/>
      <use x="582.128906" xlink:href="#DejaVuSans-110"/>
     </g>
    </g>
    <g id="line2d_25">
     <path d="M 281.791875 98.604813 
L 301.791875 98.604813 
" style="fill:none;stroke:#ff00ff;stroke-linecap:square;stroke-width:1.5;"/>
    </g>
    <g id="line2d_26">
     <g>
      <use style="fill:#ff00ff;stroke:#ff00ff;" x="291.791875" xlink:href="#mfc958b2ebd" y="98.604813"/>
     </g>
    </g>
    <g id="text_18">
     <!-- new sample -->
     <defs>
      <path d="M 4.203125 54.6875 
L 13.1875 54.6875 
L 24.421875 12.015625 
L 35.59375 54.6875 
L 46.1875 54.6875 
L 57.421875 12.015625 
L 68.609375 54.6875 
L 77.59375 54.6875 
L 63.28125 0 
L 52.6875 0 
L 40.921875 44.828125 
L 29.109375 0 
L 18.5 0 
z
" id="DejaVuSans-119"/>
      <path d="M 44.28125 53.078125 
L 44.28125 44.578125 
Q 40.484375 46.53125 36.375 47.5 
Q 32.28125 48.484375 27.875 48.484375 
Q 21.1875 48.484375 17.84375 46.4375 
Q 14.5 44.390625 14.5 40.28125 
Q 14.5 37.15625 16.890625 35.375 
Q 19.28125 33.59375 26.515625 31.984375 
L 29.59375 31.296875 
Q 39.15625 29.25 43.1875 25.515625 
Q 47.21875 21.78125 47.21875 15.09375 
Q 47.21875 7.46875 41.1875 3.015625 
Q 35.15625 -1.421875 24.609375 -1.421875 
Q 20.21875 -1.421875 15.453125 -0.5625 
Q 10.6875 0.296875 5.421875 2 
L 5.421875 11.28125 
Q 10.40625 8.6875 15.234375 7.390625 
Q 20.0625 6.109375 24.8125 6.109375 
Q 31.15625 6.109375 34.5625 8.28125 
Q 37.984375 10.453125 37.984375 14.40625 
Q 37.984375 18.0625 35.515625 20.015625 
Q 33.0625 21.96875 24.703125 23.78125 
L 21.578125 24.515625 
Q 13.234375 26.265625 9.515625 29.90625 
Q 5.8125 33.546875 5.8125 39.890625 
Q 5.8125 47.609375 11.28125 51.796875 
Q 16.75 56 26.8125 56 
Q 31.78125 56 36.171875 55.265625 
Q 40.578125 54.546875 44.28125 53.078125 
z
" id="DejaVuSans-115"/>
     </defs>
     <g transform="translate(309.791875 102.104813)scale(0.1 -0.1)">
      <use xlink:href="#DejaVuSans-110"/>
      <use x="63.378906" xlink:href="#DejaVuSans-101"/>
      <use x="124.902344" xlink:href="#DejaVuSans-119"/>
      <use x="206.689453" xlink:href="#DejaVuSans-32"/>
      <use x="238.476562" xlink:href="#DejaVuSans-115"/>
      <use x="290.576172" xlink:href="#DejaVuSans-97"/>
      <use x="351.855469" xlink:href="#DejaVuSans-109"/>
      <use x="449.267578" xlink:href="#DejaVuSans-112"/>
      <use x="512.744141" xlink:href="#DejaVuSans-108"/>
      <use x="540.527344" xlink:href="#DejaVuSans-101"/>
     </g>
    </g>
    <g id="patch_8">
     <path d="M 281.791875 116.7845 
L 301.791875 116.7845 
L 301.791875 109.7845 
L 281.791875 109.7845 
z
" style="fill:#347aeb;opacity:0.6;"/>
    </g>
    <g id="text_19">
     <!-- GP predicted 2$\sigma$ -->
     <defs>
      <path d="M 34.671875 47.5625 
Q 27.25 47.5625 22.21875 42.1875 
Q 16.890625 36.578125 15.140625 27.296875 
Q 13.1875 17.484375 16.3125 11.8125 
Q 19.390625 6.203125 26.65625 6.203125 
Q 33.84375 6.203125 39.109375 11.859375 
Q 44.4375 17.53125 46.34375 27.296875 
Q 48.046875 36.234375 45.015625 42.1875 
Q 42.1875 47.5625 34.671875 47.5625 
z
M 36.078125 54.734375 
L 65.921875 54.6875 
L 64.15625 45.703125 
L 54.109375 45.703125 
Q 57.90625 38.09375 55.859375 27.296875 
Q 53.21875 13.875 45.0625 6.25 
Q 36.859375 -1.421875 25.140625 -1.421875 
Q 13.375 -1.421875 8.203125 6.25 
Q 3.03125 13.875 5.671875 27.296875 
Q 8.25 40.765625 16.40625 48.390625 
Q 23.1875 54.734375 36.078125 54.734375 
z
" id="DejaVuSans-Oblique-963"/>
     </defs>
     <g transform="translate(309.791875 116.7845)scale(0.1 -0.1)">
      <use transform="translate(0 0.015625)" xlink:href="#DejaVuSans-71"/>
      <use transform="translate(77.490234 0.015625)" xlink:href="#DejaVuSans-80"/>
      <use transform="translate(137.792969 0.015625)" xlink:href="#DejaVuSans-32"/>
      <use transform="translate(169.580078 0.015625)" xlink:href="#DejaVuSans-112"/>
      <use transform="translate(233.056641 0.015625)" xlink:href="#DejaVuSans-114"/>
      <use transform="translate(274.169922 0.015625)" xlink:href="#DejaVuSans-101"/>
      <use transform="translate(335.693359 0.015625)" xlink:href="#DejaVuSans-100"/>
      <use transform="translate(399.169922 0.015625)" xlink:href="#DejaVuSans-105"/>
      <use transform="translate(426.953125 0.015625)" xlink:href="#DejaVuSans-99"/>
      <use transform="translate(481.933594 0.015625)" xlink:href="#DejaVuSans-116"/>
      <use transform="translate(521.142578 0.015625)" xlink:href="#DejaVuSans-101"/>
      <use transform="translate(582.666016 0.015625)" xlink:href="#DejaVuSans-100"/>
      <use transform="translate(646.142578 0.015625)" xlink:href="#DejaVuSans-32"/>
      <use transform="translate(677.929688 0.015625)" xlink:href="#DejaVuSans-50"/>
      <use transform="translate(741.552734 0.015625)" xlink:href="#DejaVuSans-Oblique-963"/>
     </g>
    </g>
   </g>
  </g>
 </g>
 <defs>
  <clipPath id="p66eee0bc7d">
   <rect height="266.112" width="357.12" x="57.6" y="41.472"/>
  </clipPath>
 </defs>
</svg>
