<?xml version="1.0" encoding="utf-8" standalone="no"?>
<!DOCTYPE svg PUBLIC "-//W3C//DTD SVG 1.1//EN"
  "http://www.w3.org/Graphics/SVG/1.1/DTD/svg11.dtd">
<!-- Created with matplotlib (https://matplotlib.org/) -->
<svg height="432pt" version="1.1" viewBox="0 0 576 432" width="576pt" xmlns="http://www.w3.org/2000/svg" xmlns:xlink="http://www.w3.org/1999/xlink">
 <defs>
  <style type="text/css">
*{stroke-linecap:butt;stroke-linejoin:round;}
  </style>
 </defs>
 <g id="figure_1">
  <g id="patch_1">
   <path d="M 0 432 
L 576 432 
L 576 0 
L 0 0 
z
" style="fill:#ffffff;"/>
  </g>
  <g id="axes_1">
   <g id="patch_2">
    <path d="M 72 384.48 
L 518.4 384.48 
L 518.4 51.84 
L 72 51.84 
z
" style="fill:#ffffff;"/>
   </g>
   <g id="PolyCollection_1"/>
   <g id="PolyCollection_2">
    <path clip-path="url(#pcdb628dc09)" d="M 72 122.541499 
L 72 84.940271 
L 80.928 78.465022 
L 89.856 80.50839 
L 98.784 85.093208 
L 107.712 91.326443 
L 116.64 94.320935 
L 125.568 97.937724 
L 134.496 103.082822 
L 143.424 114.594793 
L 152.352 125.922502 
L 161.28 138.759901 
L 170.208 142.751906 
L 179.136 146.563486 
L 188.064 166.967893 
L 196.992 181.261595 
L 205.92 190.804447 
L 214.848 201.812298 
L 223.776 208.187616 
L 232.704 211.700834 
L 241.632 213.969882 
L 250.56 216.484031 
L 259.488 217.409193 
L 268.416 217.125111 
L 277.344 216.520984 
L 286.272 218.378593 
L 295.2 214.58438 
L 304.128 214.164156 
L 313.056 214.741845 
L 321.984 215.046203 
L 330.912 212.627836 
L 330.912 242.707667 
L 330.912 242.707667 
L 321.984 240.623609 
L 313.056 241.748604 
L 304.128 242.131771 
L 295.2 244.080028 
L 286.272 240.385164 
L 277.344 248.544913 
L 268.416 236.000961 
L 259.488 236.996418 
L 250.56 238.635243 
L 241.632 235.137526 
L 232.704 230.987948 
L 223.776 230.832864 
L 214.848 229.33681 
L 205.92 224.739949 
L 196.992 209.711876 
L 188.064 197.259847 
L 179.136 169.865238 
L 170.208 152.58116 
L 161.28 145.042952 
L 152.352 141.353728 
L 143.424 132.176351 
L 134.496 117.403026 
L 125.568 109.86586 
L 116.64 105.201299 
L 107.712 107.893731 
L 98.784 133.274095 
L 89.856 126.172661 
L 80.928 120.733673 
L 72 122.541499 
z
" style="fill:#ff7f0e;fill-opacity:0.3;"/>
    <path clip-path="url(#pcdb628dc09)" d="M 348.768 237.969683 
L 348.768 212.062679 
L 357.696 207.161736 
L 366.624 204.331055 
L 375.552 207.858051 
L 375.552 248.858901 
L 375.552 248.858901 
L 366.624 242.439999 
L 357.696 243.35288 
L 348.768 237.969683 
z
" style="fill:#ff7f0e;fill-opacity:0.3;"/>
    <path clip-path="url(#pcdb628dc09)" d="M 393.408 246.415378 
L 393.408 202.876144 
L 402.336 204.718959 
L 411.264 203.531432 
L 420.192 207.899931 
L 420.192 233.477693 
L 420.192 233.477693 
L 411.264 235.434422 
L 402.336 241.750508 
L 393.408 246.415378 
z
" style="fill:#ff7f0e;fill-opacity:0.3;"/>
    <path clip-path="url(#pcdb628dc09)" d="M 438.048 233.372812 
L 438.048 206.73808 
L 446.976 204.847779 
L 455.904 206.013724 
L 455.904 240.131218 
L 455.904 240.131218 
L 446.976 237.357898 
L 438.048 233.372812 
z
" style="fill:#ff7f0e;fill-opacity:0.3;"/>
    <path clip-path="url(#pcdb628dc09)" d="M 473.76 234.415501 
L 473.76 202.61236 
L 482.688 204.055588 
L 482.688 230.672098 
L 482.688 230.672098 
L 473.76 234.415501 
z
" style="fill:#ff7f0e;fill-opacity:0.3;"/>
    <path clip-path="url(#pcdb628dc09)" d="M 500.544 234.957451 
L 500.544 197.352345 
L 500.544 234.957451 
L 500.544 234.957451 
z
" style="fill:#ff7f0e;fill-opacity:0.3;"/>
    <path clip-path="url(#pcdb628dc09)" d="M 518.4 225.299648 
L 518.4 202.218956 
L 518.4 225.299648 
L 518.4 225.299648 
z
" style="fill:#ff7f0e;fill-opacity:0.3;"/>
   </g>
   <g id="PolyCollection_3">
    <path clip-path="url(#pcdb628dc09)" d="M 72 98.431033 
L 72 83.477088 
L 80.928 82.864807 
L 89.856 86.305259 
L 98.784 92.232576 
L 107.712 95.436894 
L 116.64 98.417962 
L 125.568 101.005716 
L 134.496 104.091272 
L 143.424 106.308535 
L 152.352 107.675941 
L 161.28 108.937599 
L 170.208 109.917069 
L 179.136 110.956283 
L 188.064 111.886139 
L 196.992 112.588843 
L 205.92 113.269429 
L 214.848 114.339261 
L 223.776 115.741353 
L 232.704 116.97342 
L 241.632 118.209728 
L 250.56 119.177641 
L 259.488 120.161467 
L 268.416 120.894223 
L 277.344 121.692601 
L 286.272 122.396754 
L 295.2 122.976566 
L 304.128 123.543991 
L 313.056 124.031366 
L 321.984 124.64867 
L 330.912 125.166671 
L 339.84 125.559346 
L 348.768 125.922299 
L 357.696 126.369708 
L 366.624 126.867638 
L 375.552 127.435503 
L 384.48 127.995058 
L 393.408 128.553046 
L 402.336 129.005187 
L 411.264 129.418372 
L 420.192 129.823746 
L 429.12 130.239499 
L 438.048 130.716382 
L 446.976 131.201596 
L 455.904 131.748672 
L 464.832 132.174779 
L 473.76 132.608808 
L 482.688 132.965448 
L 491.616 133.324832 
L 500.544 133.675514 
L 509.472 134.054674 
L 518.4 134.449817 
L 518.4 137.202538 
L 518.4 137.202538 
L 509.472 136.874508 
L 500.544 136.452052 
L 491.616 136.049817 
L 482.688 135.577702 
L 473.76 135.087938 
L 464.832 134.52468 
L 455.904 134.008306 
L 446.976 133.450142 
L 438.048 132.915494 
L 429.12 132.283487 
L 420.192 131.803321 
L 411.264 131.341942 
L 402.336 130.745458 
L 393.408 130.116291 
L 384.48 129.645507 
L 375.552 129.103818 
L 366.624 128.569805 
L 357.696 128.091158 
L 348.768 127.571933 
L 339.84 126.973882 
L 330.912 126.409306 
L 321.984 125.966403 
L 313.056 125.571449 
L 304.128 125.098204 
L 295.2 124.660631 
L 286.272 124.15504 
L 277.344 123.674928 
L 268.416 122.855833 
L 259.488 121.912313 
L 250.56 120.583675 
L 241.632 119.70693 
L 232.704 118.477585 
L 223.776 117.434638 
L 214.848 116.541335 
L 205.92 115.53122 
L 196.992 114.379903 
L 188.064 113.558298 
L 179.136 112.534884 
L 170.208 111.449179 
L 161.28 110.257283 
L 152.352 109.364918 
L 143.424 108.267082 
L 134.496 106.398775 
L 125.568 103.539306 
L 116.64 101.094815 
L 107.712 99.343157 
L 98.784 100.604657 
L 89.856 107.101401 
L 80.928 101.48938 
L 72 98.431033 
z
" style="fill:#2ca02c;fill-opacity:0.3;"/>
   </g>
   <g id="PolyCollection_4">
    <path clip-path="url(#pcdb628dc09)" d="M 72 105.635242 
L 72 78.756411 
L 80.928 81.322214 
L 89.856 86.028649 
L 98.784 86.832777 
L 107.712 93.961613 
L 116.64 98.897902 
L 125.568 101.419395 
L 134.496 103.77282 
L 143.424 105.472992 
L 152.352 107.151439 
L 161.28 109.073641 
L 170.208 110.519748 
L 179.136 111.840915 
L 188.064 114.546418 
L 196.992 118.985914 
L 205.92 124.410873 
L 214.848 125.892272 
L 223.776 126.952244 
L 232.704 128.147846 
L 241.632 129.200016 
L 250.56 131.133658 
L 259.488 132.067698 
L 268.416 133.110444 
L 277.344 133.888697 
L 286.272 134.60669 
L 295.2 136.992543 
L 304.128 137.698815 
L 313.056 139.585526 
L 321.984 141.334823 
L 330.912 142.67911 
L 339.84 143.938793 
L 348.768 144.899778 
L 357.696 146.925528 
L 366.624 151.109628 
L 375.552 152.18528 
L 384.48 153.205209 
L 393.408 154.322911 
L 402.336 155.091978 
L 411.264 155.627482 
L 420.192 156.47517 
L 429.12 157.059605 
L 438.048 158.127214 
L 446.976 158.665324 
L 455.904 159.437358 
L 464.832 159.931312 
L 473.76 160.293657 
L 482.688 164.166749 
L 491.616 167.000951 
L 500.544 169.570104 
L 509.472 171.920826 
L 518.4 174.522472 
L 518.4 185.435673 
L 518.4 185.435673 
L 509.472 184.609707 
L 500.544 182.770677 
L 491.616 180.048471 
L 482.688 178.832976 
L 473.76 180.059512 
L 464.832 179.366098 
L 455.904 178.64015 
L 446.976 177.518159 
L 438.048 176.608392 
L 429.12 175.714791 
L 420.192 175.058478 
L 411.264 174.27789 
L 402.336 173.477537 
L 393.408 172.656504 
L 384.48 171.611296 
L 375.552 170.094171 
L 366.624 167.974418 
L 357.696 163.326697 
L 348.768 159.18343 
L 339.84 156.752829 
L 330.912 155.371049 
L 321.984 153.560349 
L 313.056 151.692245 
L 304.128 147.711106 
L 295.2 146.062459 
L 286.272 145.522057 
L 277.344 144.442382 
L 268.416 143.435248 
L 259.488 142.308029 
L 250.56 140.782866 
L 241.632 137.996655 
L 232.704 136.103352 
L 223.776 134.442483 
L 214.848 133.068374 
L 205.92 131.456557 
L 196.992 129.429986 
L 188.064 126.63876 
L 179.136 123.835916 
L 170.208 120.125709 
L 161.28 117.769375 
L 152.352 115.333778 
L 143.424 112.59717 
L 134.496 109.13404 
L 125.568 105.802792 
L 116.64 102.91538 
L 107.712 102.624641 
L 98.784 104.277404 
L 89.856 110.924328 
L 80.928 107.962387 
L 72 105.635242 
z
" style="fill:#d62728;fill-opacity:0.3;"/>
   </g>
   <g id="PolyCollection_5">
    <path clip-path="url(#pcdb628dc09)" d="M 72 113.174446 
L 72 84.372548 
L 80.928 84.403294 
L 89.856 88.905969 
L 98.784 87.314371 
L 107.712 93.879775 
L 116.64 98.913589 
L 125.568 101.84562 
L 134.496 104.346403 
L 143.424 106.205242 
L 152.352 107.848042 
L 161.28 109.773969 
L 170.208 111.534772 
L 179.136 112.629589 
L 188.064 113.880339 
L 196.992 115.119273 
L 205.92 116.023295 
L 214.848 117.834403 
L 223.776 120.167782 
L 232.704 123.565993 
L 241.632 128.32782 
L 250.56 131.301593 
L 259.488 138.183712 
L 268.416 141.037832 
L 277.344 143.670216 
L 286.272 146.913732 
L 295.2 154.699537 
L 304.128 158.819003 
L 313.056 160.086081 
L 321.984 162.534153 
L 330.912 166.287217 
L 339.84 168.543819 
L 348.768 171.432357 
L 357.696 175.068517 
L 366.624 178.140854 
L 375.552 179.211529 
L 384.48 180.985925 
L 393.408 183.440755 
L 402.336 184.518135 
L 411.264 185.323194 
L 420.192 187.356003 
L 429.12 189.12709 
L 438.048 190.703618 
L 446.976 191.31235 
L 455.904 193.929673 
L 464.832 195.89516 
L 473.76 197.17908 
L 482.688 199.810074 
L 491.616 200.694707 
L 500.544 201.53976 
L 509.472 202.191081 
L 518.4 203.338827 
L 518.4 219.380217 
L 518.4 219.380217 
L 509.472 218.531676 
L 500.544 217.485014 
L 491.616 216.515281 
L 482.688 215.800213 
L 473.76 215.264983 
L 464.832 214.023395 
L 455.904 213.280541 
L 446.976 212.387837 
L 438.048 211.42433 
L 429.12 207.808377 
L 420.192 203.627621 
L 411.264 200.153155 
L 402.336 198.782626 
L 393.408 197.175407 
L 384.48 196.370578 
L 375.552 195.358251 
L 366.624 194.056224 
L 357.696 193.114059 
L 348.768 191.325102 
L 339.84 188.691039 
L 330.912 185.28937 
L 321.984 182.796427 
L 313.056 181.23389 
L 304.128 179.014393 
L 295.2 174.373309 
L 286.272 170.46029 
L 277.344 167.107629 
L 268.416 162.338662 
L 259.488 156.019973 
L 250.56 151.943625 
L 241.632 149.13168 
L 232.704 145.637062 
L 223.776 142.374222 
L 214.848 139.093529 
L 205.92 137.052121 
L 196.992 135.540615 
L 188.064 133.626375 
L 179.136 129.941691 
L 170.208 128.00608 
L 161.28 125.070521 
L 152.352 122.684264 
L 143.424 119.802054 
L 134.496 113.38756 
L 125.568 108.60347 
L 116.64 103.708256 
L 107.712 106.534506 
L 98.784 122.398459 
L 89.856 119.619427 
L 80.928 112.946078 
L 72 113.174446 
z
" style="fill:#9467bd;fill-opacity:0.3;"/>
   </g>
   <g id="PolyCollection_6">
    <path clip-path="url(#pcdb628dc09)" d="M 72 112.981045 
L 72 77.976443 
L 80.928 89.152159 
L 89.856 90.84784 
L 98.784 87.825686 
L 107.712 93.807296 
L 116.64 94.137513 
L 125.568 96.845527 
L 134.496 102.994392 
L 143.424 107.087407 
L 152.352 118.121437 
L 161.28 131.404473 
L 170.208 143.682772 
L 179.136 145.40787 
L 188.064 165.108761 
L 196.992 176.31545 
L 205.92 190.294539 
L 214.848 194.351554 
L 223.776 206.042841 
L 232.704 208.643727 
L 241.632 209.366562 
L 250.56 210.920305 
L 259.488 213.70885 
L 268.416 212.272247 
L 277.344 210.98699 
L 286.272 214.963706 
L 286.272 239.507271 
L 286.272 239.507271 
L 277.344 238.92535 
L 268.416 238.542712 
L 259.488 236.214933 
L 250.56 235.553798 
L 241.632 232.18362 
L 232.704 230.195771 
L 223.776 227.970733 
L 214.848 226.790806 
L 205.92 222.746485 
L 196.992 211.117939 
L 188.064 198.047817 
L 179.136 172.767665 
L 170.208 149.24319 
L 161.28 145.558706 
L 152.352 137.686094 
L 143.424 119.437258 
L 134.496 113.712865 
L 125.568 105.853667 
L 116.64 102.312317 
L 107.712 101.9811 
L 98.784 122.058346 
L 89.856 115.947663 
L 80.928 111.477146 
L 72 112.981045 
z
" style="fill:#8c564b;fill-opacity:0.3;"/>
    <path clip-path="url(#pcdb628dc09)" d="M 304.128 240.796507 
L 304.128 213.332547 
L 313.056 210.26054 
L 321.984 210.235737 
L 330.912 212.071511 
L 339.84 210.207869 
L 348.768 209.9617 
L 357.696 209.457373 
L 366.624 208.74264 
L 375.552 207.511006 
L 384.48 205.082773 
L 393.408 205.211575 
L 393.408 248.748528 
L 393.408 248.748528 
L 384.48 237.762437 
L 375.552 246.245283 
L 366.624 229.941165 
L 357.696 241.624769 
L 348.768 245.625729 
L 339.84 242.400709 
L 330.912 239.586123 
L 321.984 238.770864 
L 313.056 237.617372 
L 304.128 240.796507 
z
" style="fill:#8c564b;fill-opacity:0.3;"/>
    <path clip-path="url(#pcdb628dc09)" d="M 411.264 233.127192 
L 411.264 203.275823 
L 420.192 205.22025 
L 420.192 231.770513 
L 420.192 231.770513 
L 411.264 233.127192 
z
" style="fill:#8c564b;fill-opacity:0.3;"/>
    <path clip-path="url(#pcdb628dc09)" d="M 438.048 235.959867 
L 438.048 204.706416 
L 446.976 201.374392 
L 446.976 243.150235 
L 446.976 243.150235 
L 438.048 235.959867 
z
" style="fill:#8c564b;fill-opacity:0.3;"/>
    <path clip-path="url(#pcdb628dc09)" d="M 491.616 236.748256 
L 491.616 202.804516 
L 500.544 200.102328 
L 509.472 197.47295 
L 509.472 229.916084 
L 509.472 229.916084 
L 500.544 226.318259 
L 491.616 236.748256 
z
" style="fill:#8c564b;fill-opacity:0.3;"/>
   </g>
   <g id="PolyCollection_7">
    <path clip-path="url(#pcdb628dc09)" d="M 80.928 243.1235 
L 80.928 121.202407 
L 89.856 167.308031 
L 98.784 165.142338 
L 107.712 154.597532 
L 116.64 157.382793 
L 125.568 162.954164 
L 134.496 163.030511 
L 134.496 197.732634 
L 134.496 197.732634 
L 125.568 194.897468 
L 116.64 211.105616 
L 107.712 201.495457 
L 98.784 199.259483 
L 89.856 205.877181 
L 80.928 243.1235 
z
" style="fill:#e377c2;fill-opacity:0.3;"/>
    <path clip-path="url(#pcdb628dc09)" d="M 152.352 196.02018 
L 152.352 159.055012 
L 161.28 155.658241 
L 170.208 163.552257 
L 179.136 155.929315 
L 188.064 154.746854 
L 196.992 154.538615 
L 205.92 153.417125 
L 214.848 160.775551 
L 223.776 151.439957 
L 232.704 142.115013 
L 241.632 153.329392 
L 241.632 206.178561 
L 241.632 206.178561 
L 232.704 224.291768 
L 223.776 206.950787 
L 214.848 200.500504 
L 205.92 196.588052 
L 196.992 189.387766 
L 188.064 203.154159 
L 179.136 187.348553 
L 170.208 190.973603 
L 161.28 194.472451 
L 152.352 196.02018 
z
" style="fill:#e377c2;fill-opacity:0.3;"/>
    <path clip-path="url(#pcdb628dc09)" d="M 259.488 195.01025 
L 259.488 153.431728 
L 259.488 195.01025 
L 259.488 195.01025 
z
" style="fill:#e377c2;fill-opacity:0.3;"/>
    <path clip-path="url(#pcdb628dc09)" d="M 277.344 188.367889 
L 277.344 151.731647 
L 286.272 149.903257 
L 295.2 149.508502 
L 295.2 196.667786 
L 295.2 196.667786 
L 286.272 196.720553 
L 277.344 188.367889 
z
" style="fill:#e377c2;fill-opacity:0.3;"/>
    <path clip-path="url(#pcdb628dc09)" d="M 313.056 209.238595 
L 313.056 143.899877 
L 313.056 209.238595 
L 313.056 209.238595 
z
" style="fill:#e377c2;fill-opacity:0.3;"/>
    <path clip-path="url(#pcdb628dc09)" d="M 330.912 188.089086 
L 330.912 151.821425 
L 330.912 188.089086 
L 330.912 188.089086 
z
" style="fill:#e377c2;fill-opacity:0.3;"/>
    <path clip-path="url(#pcdb628dc09)" d="M 348.768 199.037227 
L 348.768 149.714791 
L 357.696 141.342074 
L 357.696 196.520374 
L 357.696 196.520374 
L 348.768 199.037227 
z
" style="fill:#e377c2;fill-opacity:0.3;"/>
    <path clip-path="url(#pcdb628dc09)" d="M 402.336 193.179387 
L 402.336 140.956083 
L 402.336 193.179387 
L 402.336 193.179387 
z
" style="fill:#e377c2;fill-opacity:0.3;"/>
    <path clip-path="url(#pcdb628dc09)" d="M 429.12 200.506613 
L 429.12 143.036901 
L 438.048 138.010417 
L 446.976 139.134122 
L 455.904 130.917702 
L 455.904 214.785785 
L 455.904 214.785785 
L 446.976 184.430876 
L 438.048 198.201149 
L 429.12 200.506613 
z
" style="fill:#e377c2;fill-opacity:0.3;"/>
    <path clip-path="url(#pcdb628dc09)" d="M 482.688 191.935771 
L 482.688 141.916074 
L 482.688 191.935771 
L 482.688 191.935771 
z
" style="fill:#e377c2;fill-opacity:0.3;"/>
   </g>
   <g id="matplotlib.axis_1">
    <g id="xtick_1">
     <g id="line2d_1">
      <path clip-path="url(#pcdb628dc09)" d="M 72 384.48 
L 72 51.84 
" style="fill:none;stroke:#b0b0b0;stroke-linecap:square;stroke-width:0.8;"/>
     </g>
     <g id="line2d_2">
      <defs>
       <path d="M 0 0 
L 0 3.5 
" id="m007fd32e9e" style="stroke:#000000;stroke-width:0.8;"/>
      </defs>
      <g>
       <use style="stroke:#000000;stroke-width:0.8;" x="72" xlink:href="#m007fd32e9e" y="384.48"/>
      </g>
     </g>
     <g id="text_1">
      <!-- 0 -->
      <defs>
       <path d="M 31.78125 66.40625 
Q 24.171875 66.40625 20.328125 58.90625 
Q 16.5 51.421875 16.5 36.375 
Q 16.5 21.390625 20.328125 13.890625 
Q 24.171875 6.390625 31.78125 6.390625 
Q 39.453125 6.390625 43.28125 13.890625 
Q 47.125 21.390625 47.125 36.375 
Q 47.125 51.421875 43.28125 58.90625 
Q 39.453125 66.40625 31.78125 66.40625 
z
M 31.78125 74.21875 
Q 44.046875 74.21875 50.515625 64.515625 
Q 56.984375 54.828125 56.984375 36.375 
Q 56.984375 17.96875 50.515625 8.265625 
Q 44.046875 -1.421875 31.78125 -1.421875 
Q 19.53125 -1.421875 13.0625 8.265625 
Q 6.59375 17.96875 6.59375 36.375 
Q 6.59375 54.828125 13.0625 64.515625 
Q 19.53125 74.21875 31.78125 74.21875 
z
" id="DejaVuSans-48"/>
      </defs>
      <g transform="translate(68.81875 399.078438)scale(0.1 -0.1)">
       <use xlink:href="#DejaVuSans-48"/>
      </g>
     </g>
    </g>
    <g id="xtick_2">
     <g id="line2d_3">
      <path clip-path="url(#pcdb628dc09)" d="M 161.28 384.48 
L 161.28 51.84 
" style="fill:none;stroke:#b0b0b0;stroke-linecap:square;stroke-width:0.8;"/>
     </g>
     <g id="line2d_4">
      <g>
       <use style="stroke:#000000;stroke-width:0.8;" x="161.28" xlink:href="#m007fd32e9e" y="384.48"/>
      </g>
     </g>
     <g id="text_2">
      <!-- 10 -->
      <defs>
       <path d="M 12.40625 8.296875 
L 28.515625 8.296875 
L 28.515625 63.921875 
L 10.984375 60.40625 
L 10.984375 69.390625 
L 28.421875 72.90625 
L 38.28125 72.90625 
L 38.28125 8.296875 
L 54.390625 8.296875 
L 54.390625 0 
L 12.40625 0 
z
" id="DejaVuSans-49"/>
      </defs>
      <g transform="translate(154.9175 399.078438)scale(0.1 -0.1)">
       <use xlink:href="#DejaVuSans-49"/>
       <use x="63.623047" xlink:href="#DejaVuSans-48"/>
      </g>
     </g>
    </g>
    <g id="xtick_3">
     <g id="line2d_5">
      <path clip-path="url(#pcdb628dc09)" d="M 250.56 384.48 
L 250.56 51.84 
" style="fill:none;stroke:#b0b0b0;stroke-linecap:square;stroke-width:0.8;"/>
     </g>
     <g id="line2d_6">
      <g>
       <use style="stroke:#000000;stroke-width:0.8;" x="250.56" xlink:href="#m007fd32e9e" y="384.48"/>
      </g>
     </g>
     <g id="text_3">
      <!-- 20 -->
      <defs>
       <path d="M 19.1875 8.296875 
L 53.609375 8.296875 
L 53.609375 0 
L 7.328125 0 
L 7.328125 8.296875 
Q 12.9375 14.109375 22.625 23.890625 
Q 32.328125 33.6875 34.8125 36.53125 
Q 39.546875 41.84375 41.421875 45.53125 
Q 43.3125 49.21875 43.3125 52.78125 
Q 43.3125 58.59375 39.234375 62.25 
Q 35.15625 65.921875 28.609375 65.921875 
Q 23.96875 65.921875 18.8125 64.3125 
Q 13.671875 62.703125 7.8125 59.421875 
L 7.8125 69.390625 
Q 13.765625 71.78125 18.9375 73 
Q 24.125 74.21875 28.421875 74.21875 
Q 39.75 74.21875 46.484375 68.546875 
Q 53.21875 62.890625 53.21875 53.421875 
Q 53.21875 48.921875 51.53125 44.890625 
Q 49.859375 40.875 45.40625 35.40625 
Q 44.1875 33.984375 37.640625 27.21875 
Q 31.109375 20.453125 19.1875 8.296875 
z
" id="DejaVuSans-50"/>
      </defs>
      <g transform="translate(244.1975 399.078438)scale(0.1 -0.1)">
       <use xlink:href="#DejaVuSans-50"/>
       <use x="63.623047" xlink:href="#DejaVuSans-48"/>
      </g>
     </g>
    </g>
    <g id="xtick_4">
     <g id="line2d_7">
      <path clip-path="url(#pcdb628dc09)" d="M 339.84 384.48 
L 339.84 51.84 
" style="fill:none;stroke:#b0b0b0;stroke-linecap:square;stroke-width:0.8;"/>
     </g>
     <g id="line2d_8">
      <g>
       <use style="stroke:#000000;stroke-width:0.8;" x="339.84" xlink:href="#m007fd32e9e" y="384.48"/>
      </g>
     </g>
     <g id="text_4">
      <!-- 30 -->
      <defs>
       <path d="M 40.578125 39.3125 
Q 47.65625 37.796875 51.625 33 
Q 55.609375 28.21875 55.609375 21.1875 
Q 55.609375 10.40625 48.1875 4.484375 
Q 40.765625 -1.421875 27.09375 -1.421875 
Q 22.515625 -1.421875 17.65625 -0.515625 
Q 12.796875 0.390625 7.625 2.203125 
L 7.625 11.71875 
Q 11.71875 9.328125 16.59375 8.109375 
Q 21.484375 6.890625 26.8125 6.890625 
Q 36.078125 6.890625 40.9375 10.546875 
Q 45.796875 14.203125 45.796875 21.1875 
Q 45.796875 27.640625 41.28125 31.265625 
Q 36.765625 34.90625 28.71875 34.90625 
L 20.21875 34.90625 
L 20.21875 43.015625 
L 29.109375 43.015625 
Q 36.375 43.015625 40.234375 45.921875 
Q 44.09375 48.828125 44.09375 54.296875 
Q 44.09375 59.90625 40.109375 62.90625 
Q 36.140625 65.921875 28.71875 65.921875 
Q 24.65625 65.921875 20.015625 65.03125 
Q 15.375 64.15625 9.8125 62.3125 
L 9.8125 71.09375 
Q 15.4375 72.65625 20.34375 73.4375 
Q 25.25 74.21875 29.59375 74.21875 
Q 40.828125 74.21875 47.359375 69.109375 
Q 53.90625 64.015625 53.90625 55.328125 
Q 53.90625 49.265625 50.4375 45.09375 
Q 46.96875 40.921875 40.578125 39.3125 
z
" id="DejaVuSans-51"/>
      </defs>
      <g transform="translate(333.4775 399.078438)scale(0.1 -0.1)">
       <use xlink:href="#DejaVuSans-51"/>
       <use x="63.623047" xlink:href="#DejaVuSans-48"/>
      </g>
     </g>
    </g>
    <g id="xtick_5">
     <g id="line2d_9">
      <path clip-path="url(#pcdb628dc09)" d="M 429.12 384.48 
L 429.12 51.84 
" style="fill:none;stroke:#b0b0b0;stroke-linecap:square;stroke-width:0.8;"/>
     </g>
     <g id="line2d_10">
      <g>
       <use style="stroke:#000000;stroke-width:0.8;" x="429.12" xlink:href="#m007fd32e9e" y="384.48"/>
      </g>
     </g>
     <g id="text_5">
      <!-- 40 -->
      <defs>
       <path d="M 37.796875 64.3125 
L 12.890625 25.390625 
L 37.796875 25.390625 
z
M 35.203125 72.90625 
L 47.609375 72.90625 
L 47.609375 25.390625 
L 58.015625 25.390625 
L 58.015625 17.1875 
L 47.609375 17.1875 
L 47.609375 0 
L 37.796875 0 
L 37.796875 17.1875 
L 4.890625 17.1875 
L 4.890625 26.703125 
z
" id="DejaVuSans-52"/>
      </defs>
      <g transform="translate(422.7575 399.078438)scale(0.1 -0.1)">
       <use xlink:href="#DejaVuSans-52"/>
       <use x="63.623047" xlink:href="#DejaVuSans-48"/>
      </g>
     </g>
    </g>
    <g id="xtick_6">
     <g id="line2d_11">
      <path clip-path="url(#pcdb628dc09)" d="M 518.4 384.48 
L 518.4 51.84 
" style="fill:none;stroke:#b0b0b0;stroke-linecap:square;stroke-width:0.8;"/>
     </g>
     <g id="line2d_12">
      <g>
       <use style="stroke:#000000;stroke-width:0.8;" x="518.4" xlink:href="#m007fd32e9e" y="384.48"/>
      </g>
     </g>
     <g id="text_6">
      <!-- 50 -->
      <defs>
       <path d="M 10.796875 72.90625 
L 49.515625 72.90625 
L 49.515625 64.59375 
L 19.828125 64.59375 
L 19.828125 46.734375 
Q 21.96875 47.46875 24.109375 47.828125 
Q 26.265625 48.1875 28.421875 48.1875 
Q 40.625 48.1875 47.75 41.5 
Q 54.890625 34.8125 54.890625 23.390625 
Q 54.890625 11.625 47.5625 5.09375 
Q 40.234375 -1.421875 26.90625 -1.421875 
Q 22.3125 -1.421875 17.546875 -0.640625 
Q 12.796875 0.140625 7.71875 1.703125 
L 7.71875 11.625 
Q 12.109375 9.234375 16.796875 8.0625 
Q 21.484375 6.890625 26.703125 6.890625 
Q 35.15625 6.890625 40.078125 11.328125 
Q 45.015625 15.765625 45.015625 23.390625 
Q 45.015625 31 40.078125 35.4375 
Q 35.15625 39.890625 26.703125 39.890625 
Q 22.75 39.890625 18.8125 39.015625 
Q 14.890625 38.140625 10.796875 36.28125 
z
" id="DejaVuSans-53"/>
      </defs>
      <g transform="translate(512.0375 399.078438)scale(0.1 -0.1)">
       <use xlink:href="#DejaVuSans-53"/>
       <use x="63.623047" xlink:href="#DejaVuSans-48"/>
      </g>
     </g>
    </g>
    <g id="text_7">
     <!-- Iteration -->
     <defs>
      <path d="M 9.8125 72.90625 
L 19.671875 72.90625 
L 19.671875 0 
L 9.8125 0 
z
" id="DejaVuSans-73"/>
      <path d="M 18.3125 70.21875 
L 18.3125 54.6875 
L 36.8125 54.6875 
L 36.8125 47.703125 
L 18.3125 47.703125 
L 18.3125 18.015625 
Q 18.3125 11.328125 20.140625 9.421875 
Q 21.96875 7.515625 27.59375 7.515625 
L 36.8125 7.515625 
L 36.8125 0 
L 27.59375 0 
Q 17.1875 0 13.234375 3.875 
Q 9.28125 7.765625 9.28125 18.015625 
L 9.28125 47.703125 
L 2.6875 47.703125 
L 2.6875 54.6875 
L 9.28125 54.6875 
L 9.28125 70.21875 
z
" id="DejaVuSans-116"/>
      <path d="M 56.203125 29.59375 
L 56.203125 25.203125 
L 14.890625 25.203125 
Q 15.484375 15.921875 20.484375 11.0625 
Q 25.484375 6.203125 34.421875 6.203125 
Q 39.59375 6.203125 44.453125 7.46875 
Q 49.3125 8.734375 54.109375 11.28125 
L 54.109375 2.78125 
Q 49.265625 0.734375 44.1875 -0.34375 
Q 39.109375 -1.421875 33.890625 -1.421875 
Q 20.796875 -1.421875 13.15625 6.1875 
Q 5.515625 13.8125 5.515625 26.8125 
Q 5.515625 40.234375 12.765625 48.109375 
Q 20.015625 56 32.328125 56 
Q 43.359375 56 49.78125 48.890625 
Q 56.203125 41.796875 56.203125 29.59375 
z
M 47.21875 32.234375 
Q 47.125 39.59375 43.09375 43.984375 
Q 39.0625 48.390625 32.421875 48.390625 
Q 24.90625 48.390625 20.390625 44.140625 
Q 15.875 39.890625 15.1875 32.171875 
z
" id="DejaVuSans-101"/>
      <path d="M 41.109375 46.296875 
Q 39.59375 47.171875 37.8125 47.578125 
Q 36.03125 48 33.890625 48 
Q 26.265625 48 22.1875 43.046875 
Q 18.109375 38.09375 18.109375 28.8125 
L 18.109375 0 
L 9.078125 0 
L 9.078125 54.6875 
L 18.109375 54.6875 
L 18.109375 46.1875 
Q 20.953125 51.171875 25.484375 53.578125 
Q 30.03125 56 36.53125 56 
Q 37.453125 56 38.578125 55.875 
Q 39.703125 55.765625 41.0625 55.515625 
z
" id="DejaVuSans-114"/>
      <path d="M 34.28125 27.484375 
Q 23.390625 27.484375 19.1875 25 
Q 14.984375 22.515625 14.984375 16.5 
Q 14.984375 11.71875 18.140625 8.90625 
Q 21.296875 6.109375 26.703125 6.109375 
Q 34.1875 6.109375 38.703125 11.40625 
Q 43.21875 16.703125 43.21875 25.484375 
L 43.21875 27.484375 
z
M 52.203125 31.203125 
L 52.203125 0 
L 43.21875 0 
L 43.21875 8.296875 
Q 40.140625 3.328125 35.546875 0.953125 
Q 30.953125 -1.421875 24.3125 -1.421875 
Q 15.921875 -1.421875 10.953125 3.296875 
Q 6 8.015625 6 15.921875 
Q 6 25.140625 12.171875 29.828125 
Q 18.359375 34.515625 30.609375 34.515625 
L 43.21875 34.515625 
L 43.21875 35.40625 
Q 43.21875 41.609375 39.140625 45 
Q 35.0625 48.390625 27.6875 48.390625 
Q 23 48.390625 18.546875 47.265625 
Q 14.109375 46.140625 10.015625 43.890625 
L 10.015625 52.203125 
Q 14.9375 54.109375 19.578125 55.046875 
Q 24.21875 56 28.609375 56 
Q 40.484375 56 46.34375 49.84375 
Q 52.203125 43.703125 52.203125 31.203125 
z
" id="DejaVuSans-97"/>
      <path d="M 9.421875 54.6875 
L 18.40625 54.6875 
L 18.40625 0 
L 9.421875 0 
z
M 9.421875 75.984375 
L 18.40625 75.984375 
L 18.40625 64.59375 
L 9.421875 64.59375 
z
" id="DejaVuSans-105"/>
      <path d="M 30.609375 48.390625 
Q 23.390625 48.390625 19.1875 42.75 
Q 14.984375 37.109375 14.984375 27.296875 
Q 14.984375 17.484375 19.15625 11.84375 
Q 23.34375 6.203125 30.609375 6.203125 
Q 37.796875 6.203125 41.984375 11.859375 
Q 46.1875 17.53125 46.1875 27.296875 
Q 46.1875 37.015625 41.984375 42.703125 
Q 37.796875 48.390625 30.609375 48.390625 
z
M 30.609375 56 
Q 42.328125 56 49.015625 48.375 
Q 55.71875 40.765625 55.71875 27.296875 
Q 55.71875 13.875 49.015625 6.21875 
Q 42.328125 -1.421875 30.609375 -1.421875 
Q 18.84375 -1.421875 12.171875 6.21875 
Q 5.515625 13.875 5.515625 27.296875 
Q 5.515625 40.765625 12.171875 48.375 
Q 18.84375 56 30.609375 56 
z
" id="DejaVuSans-111"/>
      <path d="M 54.890625 33.015625 
L 54.890625 0 
L 45.90625 0 
L 45.90625 32.71875 
Q 45.90625 40.484375 42.875 44.328125 
Q 39.84375 48.1875 33.796875 48.1875 
Q 26.515625 48.1875 22.3125 43.546875 
Q 18.109375 38.921875 18.109375 30.90625 
L 18.109375 0 
L 9.078125 0 
L 9.078125 54.6875 
L 18.109375 54.6875 
L 18.109375 46.1875 
Q 21.34375 51.125 25.703125 53.5625 
Q 30.078125 56 35.796875 56 
Q 45.21875 56 50.046875 50.171875 
Q 54.890625 44.34375 54.890625 33.015625 
z
" id="DejaVuSans-110"/>
     </defs>
     <g transform="translate(273.991406 412.756563)scale(0.1 -0.1)">
      <use xlink:href="#DejaVuSans-73"/>
      <use x="29.492188" xlink:href="#DejaVuSans-116"/>
      <use x="68.701172" xlink:href="#DejaVuSans-101"/>
      <use x="130.224609" xlink:href="#DejaVuSans-114"/>
      <use x="171.337891" xlink:href="#DejaVuSans-97"/>
      <use x="232.617188" xlink:href="#DejaVuSans-116"/>
      <use x="271.826172" xlink:href="#DejaVuSans-105"/>
      <use x="299.609375" xlink:href="#DejaVuSans-111"/>
      <use x="360.791016" xlink:href="#DejaVuSans-110"/>
     </g>
    </g>
   </g>
   <g id="matplotlib.axis_2">
    <g id="ytick_1">
     <g id="line2d_13">
      <path clip-path="url(#pcdb628dc09)" d="M 72 384.48 
L 518.4 384.48 
" style="fill:none;stroke:#b0b0b0;stroke-linecap:square;stroke-width:0.8;"/>
     </g>
     <g id="line2d_14">
      <defs>
       <path d="M 0 0 
L -3.5 0 
" id="m7f540df00f" style="stroke:#000000;stroke-width:0.8;"/>
      </defs>
      <g>
       <use style="stroke:#000000;stroke-width:0.8;" x="72" xlink:href="#m7f540df00f" y="384.48"/>
      </g>
     </g>
     <g id="text_8">
      <!-- $\mathdefault{10^{-12}}$ -->
      <defs>
       <path d="M 10.59375 35.5 
L 73.1875 35.5 
L 73.1875 27.203125 
L 10.59375 27.203125 
z
" id="DejaVuSans-8722"/>
      </defs>
      <g transform="translate(37.1 388.279219)scale(0.1 -0.1)">
       <use transform="translate(0 0.765625)" xlink:href="#DejaVuSans-49"/>
       <use transform="translate(63.623047 0.765625)" xlink:href="#DejaVuSans-48"/>
       <use transform="translate(128.203125 39.046875)scale(0.7)" xlink:href="#DejaVuSans-8722"/>
       <use transform="translate(186.855469 39.046875)scale(0.7)" xlink:href="#DejaVuSans-49"/>
       <use transform="translate(231.391602 39.046875)scale(0.7)" xlink:href="#DejaVuSans-50"/>
      </g>
     </g>
    </g>
    <g id="ytick_2">
     <g id="line2d_15">
      <path clip-path="url(#pcdb628dc09)" d="M 72 336.96 
L 518.4 336.96 
" style="fill:none;stroke:#b0b0b0;stroke-linecap:square;stroke-width:0.8;"/>
     </g>
     <g id="line2d_16">
      <g>
       <use style="stroke:#000000;stroke-width:0.8;" x="72" xlink:href="#m7f540df00f" y="336.96"/>
      </g>
     </g>
     <g id="text_9">
      <!-- $\mathdefault{10^{-10}}$ -->
      <g transform="translate(37.1 340.759219)scale(0.1 -0.1)">
       <use transform="translate(0 0.765625)" xlink:href="#DejaVuSans-49"/>
       <use transform="translate(63.623047 0.765625)" xlink:href="#DejaVuSans-48"/>
       <use transform="translate(128.203125 39.046875)scale(0.7)" xlink:href="#DejaVuSans-8722"/>
       <use transform="translate(186.855469 39.046875)scale(0.7)" xlink:href="#DejaVuSans-49"/>
       <use transform="translate(231.391602 39.046875)scale(0.7)" xlink:href="#DejaVuSans-48"/>
      </g>
     </g>
    </g>
    <g id="ytick_3">
     <g id="line2d_17">
      <path clip-path="url(#pcdb628dc09)" d="M 72 289.44 
L 518.4 289.44 
" style="fill:none;stroke:#b0b0b0;stroke-linecap:square;stroke-width:0.8;"/>
     </g>
     <g id="line2d_18">
      <g>
       <use style="stroke:#000000;stroke-width:0.8;" x="72" xlink:href="#m7f540df00f" y="289.44"/>
      </g>
     </g>
     <g id="text_10">
      <!-- $\mathdefault{10^{-8}}$ -->
      <defs>
       <path d="M 31.78125 34.625 
Q 24.75 34.625 20.71875 30.859375 
Q 16.703125 27.09375 16.703125 20.515625 
Q 16.703125 13.921875 20.71875 10.15625 
Q 24.75 6.390625 31.78125 6.390625 
Q 38.8125 6.390625 42.859375 10.171875 
Q 46.921875 13.96875 46.921875 20.515625 
Q 46.921875 27.09375 42.890625 30.859375 
Q 38.875 34.625 31.78125 34.625 
z
M 21.921875 38.8125 
Q 15.578125 40.375 12.03125 44.71875 
Q 8.5 49.078125 8.5 55.328125 
Q 8.5 64.0625 14.71875 69.140625 
Q 20.953125 74.21875 31.78125 74.21875 
Q 42.671875 74.21875 48.875 69.140625 
Q 55.078125 64.0625 55.078125 55.328125 
Q 55.078125 49.078125 51.53125 44.71875 
Q 48 40.375 41.703125 38.8125 
Q 48.828125 37.15625 52.796875 32.3125 
Q 56.78125 27.484375 56.78125 20.515625 
Q 56.78125 9.90625 50.3125 4.234375 
Q 43.84375 -1.421875 31.78125 -1.421875 
Q 19.734375 -1.421875 13.25 4.234375 
Q 6.78125 9.90625 6.78125 20.515625 
Q 6.78125 27.484375 10.78125 32.3125 
Q 14.796875 37.15625 21.921875 38.8125 
z
M 18.3125 54.390625 
Q 18.3125 48.734375 21.84375 45.5625 
Q 25.390625 42.390625 31.78125 42.390625 
Q 38.140625 42.390625 41.71875 45.5625 
Q 45.3125 48.734375 45.3125 54.390625 
Q 45.3125 60.0625 41.71875 63.234375 
Q 38.140625 66.40625 31.78125 66.40625 
Q 25.390625 66.40625 21.84375 63.234375 
Q 18.3125 60.0625 18.3125 54.390625 
z
" id="DejaVuSans-56"/>
      </defs>
      <g transform="translate(41.5 293.239219)scale(0.1 -0.1)">
       <use transform="translate(0 0.765625)" xlink:href="#DejaVuSans-49"/>
       <use transform="translate(63.623047 0.765625)" xlink:href="#DejaVuSans-48"/>
       <use transform="translate(128.203125 39.046875)scale(0.7)" xlink:href="#DejaVuSans-8722"/>
       <use transform="translate(186.855469 39.046875)scale(0.7)" xlink:href="#DejaVuSans-56"/>
      </g>
     </g>
    </g>
    <g id="ytick_4">
     <g id="line2d_19">
      <path clip-path="url(#pcdb628dc09)" d="M 72 241.92 
L 518.4 241.92 
" style="fill:none;stroke:#b0b0b0;stroke-linecap:square;stroke-width:0.8;"/>
     </g>
     <g id="line2d_20">
      <g>
       <use style="stroke:#000000;stroke-width:0.8;" x="72" xlink:href="#m7f540df00f" y="241.92"/>
      </g>
     </g>
     <g id="text_11">
      <!-- $\mathdefault{10^{-6}}$ -->
      <defs>
       <path d="M 33.015625 40.375 
Q 26.375 40.375 22.484375 35.828125 
Q 18.609375 31.296875 18.609375 23.390625 
Q 18.609375 15.53125 22.484375 10.953125 
Q 26.375 6.390625 33.015625 6.390625 
Q 39.65625 6.390625 43.53125 10.953125 
Q 47.40625 15.53125 47.40625 23.390625 
Q 47.40625 31.296875 43.53125 35.828125 
Q 39.65625 40.375 33.015625 40.375 
z
M 52.59375 71.296875 
L 52.59375 62.3125 
Q 48.875 64.0625 45.09375 64.984375 
Q 41.3125 65.921875 37.59375 65.921875 
Q 27.828125 65.921875 22.671875 59.328125 
Q 17.53125 52.734375 16.796875 39.40625 
Q 19.671875 43.65625 24.015625 45.921875 
Q 28.375 48.1875 33.59375 48.1875 
Q 44.578125 48.1875 50.953125 41.515625 
Q 57.328125 34.859375 57.328125 23.390625 
Q 57.328125 12.15625 50.6875 5.359375 
Q 44.046875 -1.421875 33.015625 -1.421875 
Q 20.359375 -1.421875 13.671875 8.265625 
Q 6.984375 17.96875 6.984375 36.375 
Q 6.984375 53.65625 15.1875 63.9375 
Q 23.390625 74.21875 37.203125 74.21875 
Q 40.921875 74.21875 44.703125 73.484375 
Q 48.484375 72.75 52.59375 71.296875 
z
" id="DejaVuSans-54"/>
      </defs>
      <g transform="translate(41.5 245.719219)scale(0.1 -0.1)">
       <use transform="translate(0 0.765625)" xlink:href="#DejaVuSans-49"/>
       <use transform="translate(63.623047 0.765625)" xlink:href="#DejaVuSans-48"/>
       <use transform="translate(128.203125 39.046875)scale(0.7)" xlink:href="#DejaVuSans-8722"/>
       <use transform="translate(186.855469 39.046875)scale(0.7)" xlink:href="#DejaVuSans-54"/>
      </g>
     </g>
    </g>
    <g id="ytick_5">
     <g id="line2d_21">
      <path clip-path="url(#pcdb628dc09)" d="M 72 194.4 
L 518.4 194.4 
" style="fill:none;stroke:#b0b0b0;stroke-linecap:square;stroke-width:0.8;"/>
     </g>
     <g id="line2d_22">
      <g>
       <use style="stroke:#000000;stroke-width:0.8;" x="72" xlink:href="#m7f540df00f" y="194.4"/>
      </g>
     </g>
     <g id="text_12">
      <!-- $\mathdefault{10^{-4}}$ -->
      <g transform="translate(41.5 198.199219)scale(0.1 -0.1)">
       <use transform="translate(0 0.684375)" xlink:href="#DejaVuSans-49"/>
       <use transform="translate(63.623047 0.684375)" xlink:href="#DejaVuSans-48"/>
       <use transform="translate(128.203125 38.965625)scale(0.7)" xlink:href="#DejaVuSans-8722"/>
       <use transform="translate(186.855469 38.965625)scale(0.7)" xlink:href="#DejaVuSans-52"/>
      </g>
     </g>
    </g>
    <g id="ytick_6">
     <g id="line2d_23">
      <path clip-path="url(#pcdb628dc09)" d="M 72 146.88 
L 518.4 146.88 
" style="fill:none;stroke:#b0b0b0;stroke-linecap:square;stroke-width:0.8;"/>
     </g>
     <g id="line2d_24">
      <g>
       <use style="stroke:#000000;stroke-width:0.8;" x="72" xlink:href="#m7f540df00f" y="146.88"/>
      </g>
     </g>
     <g id="text_13">
      <!-- $\mathdefault{10^{-2}}$ -->
      <g transform="translate(41.5 150.679219)scale(0.1 -0.1)">
       <use transform="translate(0 0.765625)" xlink:href="#DejaVuSans-49"/>
       <use transform="translate(63.623047 0.765625)" xlink:href="#DejaVuSans-48"/>
       <use transform="translate(128.203125 39.046875)scale(0.7)" xlink:href="#DejaVuSans-8722"/>
       <use transform="translate(186.855469 39.046875)scale(0.7)" xlink:href="#DejaVuSans-50"/>
      </g>
     </g>
    </g>
    <g id="ytick_7">
     <g id="line2d_25">
      <path clip-path="url(#pcdb628dc09)" d="M 72 99.36 
L 518.4 99.36 
" style="fill:none;stroke:#b0b0b0;stroke-linecap:square;stroke-width:0.8;"/>
     </g>
     <g id="line2d_26">
      <g>
       <use style="stroke:#000000;stroke-width:0.8;" x="72" xlink:href="#m7f540df00f" y="99.36"/>
      </g>
     </g>
     <g id="text_14">
      <!-- $\mathdefault{10^{0}}$ -->
      <g transform="translate(47.4 103.159219)scale(0.1 -0.1)">
       <use transform="translate(0 0.765625)" xlink:href="#DejaVuSans-49"/>
       <use transform="translate(63.623047 0.765625)" xlink:href="#DejaVuSans-48"/>
       <use transform="translate(128.203125 39.046875)scale(0.7)" xlink:href="#DejaVuSans-48"/>
      </g>
     </g>
    </g>
    <g id="ytick_8">
     <g id="line2d_27">
      <path clip-path="url(#pcdb628dc09)" d="M 72 51.84 
L 518.4 51.84 
" style="fill:none;stroke:#b0b0b0;stroke-linecap:square;stroke-width:0.8;"/>
     </g>
     <g id="line2d_28">
      <g>
       <use style="stroke:#000000;stroke-width:0.8;" x="72" xlink:href="#m7f540df00f" y="51.84"/>
      </g>
     </g>
     <g id="text_15">
      <!-- $\mathdefault{10^{2}}$ -->
      <g transform="translate(47.4 55.639219)scale(0.1 -0.1)">
       <use transform="translate(0 0.765625)" xlink:href="#DejaVuSans-49"/>
       <use transform="translate(63.623047 0.765625)" xlink:href="#DejaVuSans-48"/>
       <use transform="translate(128.203125 39.046875)scale(0.7)" xlink:href="#DejaVuSans-50"/>
      </g>
     </g>
    </g>
    <g id="text_16">
     <!-- Integrated Variance -->
     <defs>
      <path d="M 45.40625 27.984375 
Q 45.40625 37.75 41.375 43.109375 
Q 37.359375 48.484375 30.078125 48.484375 
Q 22.859375 48.484375 18.828125 43.109375 
Q 14.796875 37.75 14.796875 27.984375 
Q 14.796875 18.265625 18.828125 12.890625 
Q 22.859375 7.515625 30.078125 7.515625 
Q 37.359375 7.515625 41.375 12.890625 
Q 45.40625 18.265625 45.40625 27.984375 
z
M 54.390625 6.78125 
Q 54.390625 -7.171875 48.1875 -13.984375 
Q 42 -20.796875 29.203125 -20.796875 
Q 24.46875 -20.796875 20.265625 -20.09375 
Q 16.0625 -19.390625 12.109375 -17.921875 
L 12.109375 -9.1875 
Q 16.0625 -11.328125 19.921875 -12.34375 
Q 23.78125 -13.375 27.78125 -13.375 
Q 36.625 -13.375 41.015625 -8.765625 
Q 45.40625 -4.15625 45.40625 5.171875 
L 45.40625 9.625 
Q 42.625 4.78125 38.28125 2.390625 
Q 33.9375 0 27.875 0 
Q 17.828125 0 11.671875 7.65625 
Q 5.515625 15.328125 5.515625 27.984375 
Q 5.515625 40.671875 11.671875 48.328125 
Q 17.828125 56 27.875 56 
Q 33.9375 56 38.28125 53.609375 
Q 42.625 51.21875 45.40625 46.390625 
L 45.40625 54.6875 
L 54.390625 54.6875 
z
" id="DejaVuSans-103"/>
      <path d="M 45.40625 46.390625 
L 45.40625 75.984375 
L 54.390625 75.984375 
L 54.390625 0 
L 45.40625 0 
L 45.40625 8.203125 
Q 42.578125 3.328125 38.25 0.953125 
Q 33.9375 -1.421875 27.875 -1.421875 
Q 17.96875 -1.421875 11.734375 6.484375 
Q 5.515625 14.40625 5.515625 27.296875 
Q 5.515625 40.1875 11.734375 48.09375 
Q 17.96875 56 27.875 56 
Q 33.9375 56 38.25 53.625 
Q 42.578125 51.265625 45.40625 46.390625 
z
M 14.796875 27.296875 
Q 14.796875 17.390625 18.875 11.75 
Q 22.953125 6.109375 30.078125 6.109375 
Q 37.203125 6.109375 41.296875 11.75 
Q 45.40625 17.390625 45.40625 27.296875 
Q 45.40625 37.203125 41.296875 42.84375 
Q 37.203125 48.484375 30.078125 48.484375 
Q 22.953125 48.484375 18.875 42.84375 
Q 14.796875 37.203125 14.796875 27.296875 
z
" id="DejaVuSans-100"/>
      <path id="DejaVuSans-32"/>
      <path d="M 28.609375 0 
L 0.78125 72.90625 
L 11.078125 72.90625 
L 34.1875 11.53125 
L 57.328125 72.90625 
L 67.578125 72.90625 
L 39.796875 0 
z
" id="DejaVuSans-86"/>
      <path d="M 48.78125 52.59375 
L 48.78125 44.1875 
Q 44.96875 46.296875 41.140625 47.34375 
Q 37.3125 48.390625 33.40625 48.390625 
Q 24.65625 48.390625 19.8125 42.84375 
Q 14.984375 37.3125 14.984375 27.296875 
Q 14.984375 17.28125 19.8125 11.734375 
Q 24.65625 6.203125 33.40625 6.203125 
Q 37.3125 6.203125 41.140625 7.25 
Q 44.96875 8.296875 48.78125 10.40625 
L 48.78125 2.09375 
Q 45.015625 0.34375 40.984375 -0.53125 
Q 36.96875 -1.421875 32.421875 -1.421875 
Q 20.0625 -1.421875 12.78125 6.34375 
Q 5.515625 14.109375 5.515625 27.296875 
Q 5.515625 40.671875 12.859375 48.328125 
Q 20.21875 56 33.015625 56 
Q 37.15625 56 41.109375 55.140625 
Q 45.0625 54.296875 48.78125 52.59375 
z
" id="DejaVuSans-99"/>
     </defs>
     <g transform="translate(31.020312 267.534219)rotate(-90)scale(0.1 -0.1)">
      <use xlink:href="#DejaVuSans-73"/>
      <use x="29.492188" xlink:href="#DejaVuSans-110"/>
      <use x="92.871094" xlink:href="#DejaVuSans-116"/>
      <use x="132.080078" xlink:href="#DejaVuSans-101"/>
      <use x="193.603516" xlink:href="#DejaVuSans-103"/>
      <use x="257.080078" xlink:href="#DejaVuSans-114"/>
      <use x="298.193359" xlink:href="#DejaVuSans-97"/>
      <use x="359.472656" xlink:href="#DejaVuSans-116"/>
      <use x="398.681641" xlink:href="#DejaVuSans-101"/>
      <use x="460.205078" xlink:href="#DejaVuSans-100"/>
      <use x="523.681641" xlink:href="#DejaVuSans-32"/>
      <use x="555.46875" xlink:href="#DejaVuSans-86"/>
      <use x="616.126953" xlink:href="#DejaVuSans-97"/>
      <use x="677.40625" xlink:href="#DejaVuSans-114"/>
      <use x="718.519531" xlink:href="#DejaVuSans-105"/>
      <use x="746.302734" xlink:href="#DejaVuSans-97"/>
      <use x="807.582031" xlink:href="#DejaVuSans-110"/>
      <use x="870.960938" xlink:href="#DejaVuSans-99"/>
      <use x="925.941406" xlink:href="#DejaVuSans-101"/>
     </g>
    </g>
   </g>
   <g id="line2d_29">
    <path clip-path="url(#pcdb628dc09)" style="fill:none;stroke:#1f77b4;stroke-linecap:square;stroke-width:1.5;"/>
   </g>
   <g id="line2d_30">
    <path clip-path="url(#pcdb628dc09)" d="M 72 103.740885 
L 80.928 99.599347 
L 89.856 103.340526 
L 98.784 109.183651 
L 107.712 99.610087 
L 116.64 99.761117 
L 125.568 103.901792 
L 134.496 110.242924 
L 143.424 123.385572 
L 152.352 133.638115 
L 161.28 141.901427 
L 170.208 147.666533 
L 179.136 158.214362 
L 188.064 182.11387 
L 196.992 195.486736 
L 205.92 207.772198 
L 214.848 215.574554 
L 223.776 219.51024 
L 232.704 221.344391 
L 241.632 224.553704 
L 250.56 227.559637 
L 259.488 227.202806 
L 268.416 226.563036 
L 277.344 232.532949 
L 286.272 229.381879 
L 295.2 229.332204 
L 304.128 228.147964 
L 313.056 228.245224 
L 321.984 227.834906 
L 330.912 227.667752 
L 330.989574 433 
M 348.689433 433 
L 348.768 225.016181 
L 357.696 225.257308 
L 366.624 223.385527 
L 375.552 228.358476 
L 375.629315 433 
M 393.329294 433 
L 393.408 224.645761 
L 402.336 223.234734 
L 411.264 219.482927 
L 420.192 220.688812 
L 420.272187 433 
M 437.967576 433 
L 438.048 220.055446 
L 446.976 221.102838 
L 455.904 223.072471 
L 455.983295 433 
M 473.678999 433 
L 473.76 218.51393 
L 482.688 217.363843 
L 482.769431 433 
M 500.462116 433 
L 500.544 216.154898 
L 500.625884 433 
M 518.31722 433 
L 518.4 213.759302 
" style="fill:none;stroke:#ff7f0e;stroke-linecap:square;stroke-width:1.5;"/>
   </g>
   <g id="line2d_31">
    <path clip-path="url(#pcdb628dc09)" d="M 72 90.954061 
L 80.928 92.177093 
L 89.856 96.70333 
L 98.784 96.418616 
L 107.712 97.390026 
L 116.64 99.756388 
L 125.568 102.272511 
L 134.496 105.245023 
L 143.424 107.287808 
L 152.352 108.52043 
L 161.28 109.597441 
L 170.208 110.683124 
L 179.136 111.745583 
L 188.064 112.722218 
L 196.992 113.484373 
L 205.92 114.400325 
L 214.848 115.440298 
L 223.776 116.587995 
L 232.704 117.725503 
L 241.632 118.958329 
L 250.56 119.880658 
L 259.488 121.03689 
L 268.416 121.875028 
L 277.344 122.683765 
L 286.272 123.275897 
L 295.2 123.818599 
L 304.128 124.321098 
L 313.056 124.801408 
L 321.984 125.307536 
L 330.912 125.787989 
L 339.84 126.266614 
L 348.768 126.747116 
L 357.696 127.230433 
L 366.624 127.718722 
L 375.552 128.26966 
L 384.48 128.820282 
L 393.408 129.334669 
L 402.336 129.875322 
L 411.264 130.380157 
L 420.192 130.813534 
L 429.12 131.261493 
L 438.048 131.815938 
L 446.976 132.325869 
L 455.904 132.878489 
L 464.832 133.349729 
L 473.76 133.848373 
L 482.688 134.271575 
L 491.616 134.687325 
L 500.544 135.063783 
L 509.472 135.464591 
L 518.4 135.826177 
" style="fill:none;stroke:#2ca02c;stroke-linecap:square;stroke-width:1.5;"/>
   </g>
   <g id="line2d_32">
    <path clip-path="url(#pcdb628dc09)" d="M 72 92.195826 
L 80.928 94.642301 
L 89.856 98.476489 
L 98.784 95.55509 
L 107.712 98.293127 
L 116.64 100.906641 
L 125.568 103.611094 
L 134.496 106.45343 
L 143.424 109.035081 
L 152.352 111.242608 
L 161.28 113.421508 
L 170.208 115.322729 
L 179.136 117.838415 
L 188.064 120.592589 
L 196.992 124.20795 
L 205.92 127.933715 
L 214.848 129.480323 
L 223.776 130.697363 
L 232.704 132.125599 
L 241.632 133.598335 
L 250.56 135.958262 
L 259.488 137.187863 
L 268.416 138.272846 
L 277.344 139.16554 
L 286.272 140.064373 
L 295.2 141.527501 
L 304.128 142.704961 
L 313.056 145.638885 
L 321.984 147.447586 
L 330.912 149.02508 
L 339.84 150.345811 
L 348.768 152.041604 
L 357.696 155.126112 
L 366.624 159.542023 
L 375.552 161.139725 
L 384.48 162.408253 
L 393.408 163.489708 
L 402.336 164.284757 
L 411.264 164.952686 
L 420.192 165.766824 
L 429.12 166.387198 
L 438.048 167.367803 
L 446.976 168.091742 
L 455.904 169.038754 
L 464.832 169.648705 
L 473.76 170.176584 
L 482.688 171.499862 
L 491.616 173.524711 
L 500.544 176.170391 
L 509.472 178.265266 
L 518.4 179.979072 
" style="fill:none;stroke:#d62728;stroke-linecap:square;stroke-width:1.5;"/>
   </g>
   <g id="line2d_33">
    <path clip-path="url(#pcdb628dc09)" d="M 72 98.773497 
L 80.928 98.674686 
L 89.856 104.262698 
L 98.784 104.856415 
L 107.712 100.207141 
L 116.64 101.310922 
L 125.568 105.224545 
L 134.496 108.866981 
L 143.424 113.003648 
L 152.352 115.266153 
L 161.28 117.422245 
L 170.208 119.770426 
L 179.136 121.28564 
L 188.064 123.753357 
L 196.992 125.329944 
L 205.92 126.537708 
L 214.848 128.463966 
L 223.776 131.271002 
L 232.704 134.601528 
L 241.632 138.72975 
L 250.56 141.622609 
L 259.488 147.101843 
L 268.416 151.688247 
L 277.344 155.388922 
L 286.272 158.687011 
L 295.2 164.536423 
L 304.128 168.916698 
L 313.056 170.659985 
L 321.984 172.66529 
L 330.912 175.788293 
L 339.84 178.617429 
L 348.768 181.37873 
L 357.696 184.091288 
L 366.624 186.098539 
L 375.552 187.28489 
L 384.48 188.678251 
L 393.408 190.308081 
L 402.336 191.650381 
L 411.264 192.738174 
L 420.192 195.491812 
L 429.12 198.467734 
L 438.048 201.063974 
L 446.976 201.850093 
L 455.904 203.605107 
L 464.832 204.959278 
L 473.76 206.222031 
L 482.688 207.805143 
L 491.616 208.604994 
L 500.544 209.512387 
L 509.472 210.361379 
L 518.4 211.359522 
" style="fill:none;stroke:#9467bd;stroke-linecap:square;stroke-width:1.5;"/>
   </g>
   <g id="line2d_34">
    <path clip-path="url(#pcdb628dc09)" d="M 72 95.478744 
L 80.928 100.314653 
L 89.856 103.397751 
L 98.784 104.942016 
L 107.712 97.894198 
L 116.64 98.224915 
L 125.568 101.349597 
L 134.496 108.353629 
L 143.424 113.262332 
L 152.352 127.903765 
L 161.28 138.481589 
L 170.208 146.462981 
L 179.136 159.087768 
L 188.064 181.578289 
L 196.992 193.716695 
L 205.92 206.520512 
L 214.848 210.57118 
L 223.776 217.006787 
L 232.704 219.419749 
L 241.632 220.775091 
L 250.56 223.237052 
L 259.488 224.961892 
L 268.416 225.40748 
L 277.344 224.95617 
L 286.272 227.235489 
L 286.349736 433 
M 304.0502 433 
L 304.128 227.064527 
L 313.056 223.938956 
L 321.984 224.5033 
L 330.912 225.828817 
L 339.84 226.304289 
L 348.768 227.793715 
L 357.696 225.541071 
L 366.624 219.341902 
L 375.552 226.878144 
L 384.48 221.422605 
L 393.408 226.980051 
L 393.485832 433 
M 411.182882 433 
L 411.264 218.201507 
L 420.192 218.495381 
L 420.273008 433 
M 437.96768 433 
L 438.048 220.333142 
L 446.976 222.262314 
L 447.055598 433 
M 491.535471 433 
L 491.616 219.776386 
L 500.544 213.210294 
L 509.472 213.694517 
L 509.554804 433 
" style="fill:none;stroke:#8c564b;stroke-linecap:square;stroke-width:1.5;"/>
   </g>
   <g id="line2d_35">
    <path clip-path="url(#pcdb628dc09)" d="M 80.833416 433 
L 80.928 182.162953 
L 89.856 186.592606 
L 98.784 182.200911 
L 107.712 178.046494 
L 116.64 184.244205 
L 125.568 178.925816 
L 134.496 180.381572 
L 134.591248 433 
M 152.255691 433 
L 152.352 177.537596 
L 161.28 175.065346 
L 170.208 177.26293 
L 179.136 171.638934 
L 188.064 178.950507 
L 196.992 171.963191 
L 205.92 175.002589 
L 214.848 180.638028 
L 223.776 179.195372 
L 232.704 183.20339 
L 241.632 179.753977 
L 241.727482 433 
M 259.390454 433 
L 259.488 174.220989 
L 259.585546 433 
M 277.2449 433 
L 277.344 170.049768 
L 286.272 173.311905 
L 295.2 173.088144 
L 295.297968 433 
M 312.95933 433 
L 313.056 176.569236 
L 313.15267 433 
M 330.812864 433 
L 330.912 169.955256 
L 331.011136 433 
M 348.670512 433 
L 348.768 174.376009 
L 357.696 168.931224 
L 357.795517 433 
M 402.235788 433 
L 402.336 167.067735 
L 402.436212 433 
M 429.021541 433 
L 429.12 171.771757 
L 438.048 168.105783 
L 446.976 161.782499 
L 455.904 172.851743 
L 456.002056 433 
M 482.587736 433 
L 482.688 166.925922 
L 482.788264 433 
" style="fill:none;stroke:#e377c2;stroke-linecap:square;stroke-width:1.5;"/>
   </g>
   <g id="patch_3">
    <path d="M 72 384.48 
L 72 51.84 
" style="fill:none;stroke:#000000;stroke-linecap:square;stroke-linejoin:miter;stroke-width:0.8;"/>
   </g>
   <g id="patch_4">
    <path d="M 518.4 384.48 
L 518.4 51.84 
" style="fill:none;stroke:#000000;stroke-linecap:square;stroke-linejoin:miter;stroke-width:0.8;"/>
   </g>
   <g id="patch_5">
    <path d="M 72 384.48 
L 518.4 384.48 
" style="fill:none;stroke:#000000;stroke-linecap:square;stroke-linejoin:miter;stroke-width:0.8;"/>
   </g>
   <g id="patch_6">
    <path d="M 72 51.84 
L 518.4 51.84 
" style="fill:none;stroke:#000000;stroke-linecap:square;stroke-linejoin:miter;stroke-width:0.8;"/>
   </g>
   <g id="legend_1">
    <g id="patch_7">
     <path d="M 79 379.48 
L 165.804688 379.48 
Q 167.804688 379.48 167.804688 377.48 
L 167.804688 275.733125 
Q 167.804688 273.733125 165.804688 273.733125 
L 79 273.733125 
Q 77 273.733125 77 275.733125 
L 77 377.48 
Q 77 379.48 79 379.48 
z
" style="fill:#ffffff;opacity:0.8;stroke:#cccccc;stroke-linejoin:miter;"/>
    </g>
    <g id="line2d_36">
     <path d="M 81 281.831563 
L 101 281.831563 
" style="fill:none;stroke:#1f77b4;stroke-linecap:square;stroke-width:1.5;"/>
    </g>
    <g id="line2d_37"/>
    <g id="text_17">
     <!-- Constant -->
     <defs>
      <path d="M 64.40625 67.28125 
L 64.40625 56.890625 
Q 59.421875 61.53125 53.78125 63.8125 
Q 48.140625 66.109375 41.796875 66.109375 
Q 29.296875 66.109375 22.65625 58.46875 
Q 16.015625 50.828125 16.015625 36.375 
Q 16.015625 21.96875 22.65625 14.328125 
Q 29.296875 6.6875 41.796875 6.6875 
Q 48.140625 6.6875 53.78125 8.984375 
Q 59.421875 11.28125 64.40625 15.921875 
L 64.40625 5.609375 
Q 59.234375 2.09375 53.4375 0.328125 
Q 47.65625 -1.421875 41.21875 -1.421875 
Q 24.65625 -1.421875 15.125 8.703125 
Q 5.609375 18.84375 5.609375 36.375 
Q 5.609375 53.953125 15.125 64.078125 
Q 24.65625 74.21875 41.21875 74.21875 
Q 47.75 74.21875 53.53125 72.484375 
Q 59.328125 70.75 64.40625 67.28125 
z
" id="DejaVuSans-67"/>
      <path d="M 44.28125 53.078125 
L 44.28125 44.578125 
Q 40.484375 46.53125 36.375 47.5 
Q 32.28125 48.484375 27.875 48.484375 
Q 21.1875 48.484375 17.84375 46.4375 
Q 14.5 44.390625 14.5 40.28125 
Q 14.5 37.15625 16.890625 35.375 
Q 19.28125 33.59375 26.515625 31.984375 
L 29.59375 31.296875 
Q 39.15625 29.25 43.1875 25.515625 
Q 47.21875 21.78125 47.21875 15.09375 
Q 47.21875 7.46875 41.1875 3.015625 
Q 35.15625 -1.421875 24.609375 -1.421875 
Q 20.21875 -1.421875 15.453125 -0.5625 
Q 10.6875 0.296875 5.421875 2 
L 5.421875 11.28125 
Q 10.40625 8.6875 15.234375 7.390625 
Q 20.0625 6.109375 24.8125 6.109375 
Q 31.15625 6.109375 34.5625 8.28125 
Q 37.984375 10.453125 37.984375 14.40625 
Q 37.984375 18.0625 35.515625 20.015625 
Q 33.0625 21.96875 24.703125 23.78125 
L 21.578125 24.515625 
Q 13.234375 26.265625 9.515625 29.90625 
Q 5.8125 33.546875 5.8125 39.890625 
Q 5.8125 47.609375 11.28125 51.796875 
Q 16.75 56 26.8125 56 
Q 31.78125 56 36.171875 55.265625 
Q 40.578125 54.546875 44.28125 53.078125 
z
" id="DejaVuSans-115"/>
     </defs>
     <g transform="translate(109 285.331563)scale(0.1 -0.1)">
      <use xlink:href="#DejaVuSans-67"/>
      <use x="69.824219" xlink:href="#DejaVuSans-111"/>
      <use x="131.005859" xlink:href="#DejaVuSans-110"/>
      <use x="194.384766" xlink:href="#DejaVuSans-115"/>
      <use x="246.484375" xlink:href="#DejaVuSans-116"/>
      <use x="285.693359" xlink:href="#DejaVuSans-97"/>
      <use x="346.972656" xlink:href="#DejaVuSans-110"/>
      <use x="410.351562" xlink:href="#DejaVuSans-116"/>
     </g>
    </g>
    <g id="line2d_38">
     <path d="M 81 296.509688 
L 101 296.509688 
" style="fill:none;stroke:#ff7f0e;stroke-linecap:square;stroke-width:1.5;"/>
    </g>
    <g id="line2d_39"/>
    <g id="text_18">
     <!-- RBF -->
     <defs>
      <path d="M 44.390625 34.1875 
Q 47.5625 33.109375 50.5625 29.59375 
Q 53.5625 26.078125 56.59375 19.921875 
L 66.609375 0 
L 56 0 
L 46.6875 18.703125 
Q 43.0625 26.03125 39.671875 28.421875 
Q 36.28125 30.8125 30.421875 30.8125 
L 19.671875 30.8125 
L 19.671875 0 
L 9.8125 0 
L 9.8125 72.90625 
L 32.078125 72.90625 
Q 44.578125 72.90625 50.734375 67.671875 
Q 56.890625 62.453125 56.890625 51.90625 
Q 56.890625 45.015625 53.6875 40.46875 
Q 50.484375 35.9375 44.390625 34.1875 
z
M 19.671875 64.796875 
L 19.671875 38.921875 
L 32.078125 38.921875 
Q 39.203125 38.921875 42.84375 42.21875 
Q 46.484375 45.515625 46.484375 51.90625 
Q 46.484375 58.296875 42.84375 61.546875 
Q 39.203125 64.796875 32.078125 64.796875 
z
" id="DejaVuSans-82"/>
      <path d="M 19.671875 34.8125 
L 19.671875 8.109375 
L 35.5 8.109375 
Q 43.453125 8.109375 47.28125 11.40625 
Q 51.125 14.703125 51.125 21.484375 
Q 51.125 28.328125 47.28125 31.5625 
Q 43.453125 34.8125 35.5 34.8125 
z
M 19.671875 64.796875 
L 19.671875 42.828125 
L 34.28125 42.828125 
Q 41.5 42.828125 45.03125 45.53125 
Q 48.578125 48.25 48.578125 53.8125 
Q 48.578125 59.328125 45.03125 62.0625 
Q 41.5 64.796875 34.28125 64.796875 
z
M 9.8125 72.90625 
L 35.015625 72.90625 
Q 46.296875 72.90625 52.390625 68.21875 
Q 58.5 63.53125 58.5 54.890625 
Q 58.5 48.1875 55.375 44.234375 
Q 52.25 40.28125 46.1875 39.3125 
Q 53.46875 37.75 57.5 32.78125 
Q 61.53125 27.828125 61.53125 20.40625 
Q 61.53125 10.640625 54.890625 5.3125 
Q 48.25 0 35.984375 0 
L 9.8125 0 
z
" id="DejaVuSans-66"/>
      <path d="M 9.8125 72.90625 
L 51.703125 72.90625 
L 51.703125 64.59375 
L 19.671875 64.59375 
L 19.671875 43.109375 
L 48.578125 43.109375 
L 48.578125 34.8125 
L 19.671875 34.8125 
L 19.671875 0 
L 9.8125 0 
z
" id="DejaVuSans-70"/>
     </defs>
     <g transform="translate(109 300.009688)scale(0.1 -0.1)">
      <use xlink:href="#DejaVuSans-82"/>
      <use x="69.482422" xlink:href="#DejaVuSans-66"/>
      <use x="138.085938" xlink:href="#DejaVuSans-70"/>
     </g>
    </g>
    <g id="line2d_40">
     <path d="M 81 311.187813 
L 101 311.187813 
" style="fill:none;stroke:#2ca02c;stroke-linecap:square;stroke-width:1.5;"/>
    </g>
    <g id="line2d_41"/>
    <g id="text_19">
     <!-- Matrn-1/2 -->
     <defs>
      <path d="M 9.8125 72.90625 
L 24.515625 72.90625 
L 43.109375 23.296875 
L 61.8125 72.90625 
L 76.515625 72.90625 
L 76.515625 0 
L 66.890625 0 
L 66.890625 64.015625 
L 48.09375 14.015625 
L 38.1875 14.015625 
L 19.390625 64.015625 
L 19.390625 0 
L 9.8125 0 
z
" id="DejaVuSans-77"/>
      <path d="M 56.203125 29.59375 
L 56.203125 25.203125 
L 14.890625 25.203125 
Q 15.484375 15.921875 20.484375 11.0625 
Q 25.484375 6.203125 34.421875 6.203125 
Q 39.59375 6.203125 44.453125 7.46875 
Q 49.3125 8.734375 54.109375 11.28125 
L 54.109375 2.78125 
Q 49.265625 0.734375 44.1875 -0.34375 
Q 39.109375 -1.421875 33.890625 -1.421875 
Q 20.796875 -1.421875 13.15625 6.1875 
Q 5.515625 13.8125 5.515625 26.8125 
Q 5.515625 40.234375 12.765625 48.109375 
Q 20.015625 56 32.328125 56 
Q 43.359375 56 49.78125 48.890625 
Q 56.203125 41.796875 56.203125 29.59375 
z
M 47.21875 32.234375 
Q 47.125 39.59375 43.09375 43.984375 
Q 39.0625 48.390625 32.421875 48.390625 
Q 24.90625 48.390625 20.390625 44.140625 
Q 15.875 39.890625 15.1875 32.171875 
z
M 38.53125 79.984375 
L 48.25 79.984375 
L 32.34375 61.625 
L 24.859375 61.625 
z
" id="DejaVuSans-233"/>
      <path d="M 4.890625 31.390625 
L 31.203125 31.390625 
L 31.203125 23.390625 
L 4.890625 23.390625 
z
" id="DejaVuSans-45"/>
      <path d="M 25.390625 72.90625 
L 33.6875 72.90625 
L 8.296875 -9.28125 
L 0 -9.28125 
z
" id="DejaVuSans-47"/>
     </defs>
     <g transform="translate(109 314.687813)scale(0.1 -0.1)">
      <use xlink:href="#DejaVuSans-77"/>
      <use x="86.279297" xlink:href="#DejaVuSans-97"/>
      <use x="147.558594" xlink:href="#DejaVuSans-116"/>
      <use x="186.767578" xlink:href="#DejaVuSans-233"/>
      <use x="248.291016" xlink:href="#DejaVuSans-114"/>
      <use x="287.654297" xlink:href="#DejaVuSans-110"/>
      <use x="351.033203" xlink:href="#DejaVuSans-45"/>
      <use x="387.117188" xlink:href="#DejaVuSans-49"/>
      <use x="450.740234" xlink:href="#DejaVuSans-47"/>
      <use x="484.431641" xlink:href="#DejaVuSans-50"/>
     </g>
    </g>
    <g id="line2d_42">
     <path d="M 81 325.865938 
L 101 325.865938 
" style="fill:none;stroke:#d62728;stroke-linecap:square;stroke-width:1.5;"/>
    </g>
    <g id="line2d_43"/>
    <g id="text_20">
     <!-- Matrn-3/2 -->
     <g transform="translate(109 329.365938)scale(0.1 -0.1)">
      <use xlink:href="#DejaVuSans-77"/>
      <use x="86.279297" xlink:href="#DejaVuSans-97"/>
      <use x="147.558594" xlink:href="#DejaVuSans-116"/>
      <use x="186.767578" xlink:href="#DejaVuSans-233"/>
      <use x="248.291016" xlink:href="#DejaVuSans-114"/>
      <use x="287.654297" xlink:href="#DejaVuSans-110"/>
      <use x="351.033203" xlink:href="#DejaVuSans-45"/>
      <use x="387.117188" xlink:href="#DejaVuSans-51"/>
      <use x="450.740234" xlink:href="#DejaVuSans-47"/>
      <use x="484.431641" xlink:href="#DejaVuSans-50"/>
     </g>
    </g>
    <g id="line2d_44">
     <path d="M 81 340.544062 
L 101 340.544062 
" style="fill:none;stroke:#9467bd;stroke-linecap:square;stroke-width:1.5;"/>
    </g>
    <g id="line2d_45"/>
    <g id="text_21">
     <!-- Matrn-5/2 -->
     <g transform="translate(109 344.044062)scale(0.1 -0.1)">
      <use xlink:href="#DejaVuSans-77"/>
      <use x="86.279297" xlink:href="#DejaVuSans-97"/>
      <use x="147.558594" xlink:href="#DejaVuSans-116"/>
      <use x="186.767578" xlink:href="#DejaVuSans-233"/>
      <use x="248.291016" xlink:href="#DejaVuSans-114"/>
      <use x="287.654297" xlink:href="#DejaVuSans-110"/>
      <use x="351.033203" xlink:href="#DejaVuSans-45"/>
      <use x="387.117188" xlink:href="#DejaVuSans-53"/>
      <use x="450.740234" xlink:href="#DejaVuSans-47"/>
      <use x="484.431641" xlink:href="#DejaVuSans-50"/>
     </g>
    </g>
    <g id="line2d_46">
     <path d="M 81 355.222188 
L 101 355.222188 
" style="fill:none;stroke:#8c564b;stroke-linecap:square;stroke-width:1.5;"/>
    </g>
    <g id="line2d_47"/>
    <g id="text_22">
     <!-- RQ -->
     <defs>
      <path d="M 39.40625 66.21875 
Q 28.65625 66.21875 22.328125 58.203125 
Q 16.015625 50.203125 16.015625 36.375 
Q 16.015625 22.609375 22.328125 14.59375 
Q 28.65625 6.59375 39.40625 6.59375 
Q 50.140625 6.59375 56.421875 14.59375 
Q 62.703125 22.609375 62.703125 36.375 
Q 62.703125 50.203125 56.421875 58.203125 
Q 50.140625 66.21875 39.40625 66.21875 
z
M 53.21875 1.3125 
L 66.21875 -12.890625 
L 54.296875 -12.890625 
L 43.5 -1.21875 
Q 41.890625 -1.3125 41.03125 -1.359375 
Q 40.1875 -1.421875 39.40625 -1.421875 
Q 24.03125 -1.421875 14.8125 8.859375 
Q 5.609375 19.140625 5.609375 36.375 
Q 5.609375 53.65625 14.8125 63.9375 
Q 24.03125 74.21875 39.40625 74.21875 
Q 54.734375 74.21875 63.90625 63.9375 
Q 73.09375 53.65625 73.09375 36.375 
Q 73.09375 23.6875 67.984375 14.640625 
Q 62.890625 5.609375 53.21875 1.3125 
z
" id="DejaVuSans-81"/>
     </defs>
     <g transform="translate(109 358.722188)scale(0.1 -0.1)">
      <use xlink:href="#DejaVuSans-82"/>
      <use x="69.482422" xlink:href="#DejaVuSans-81"/>
     </g>
    </g>
    <g id="line2d_48">
     <path d="M 81 369.900313 
L 101 369.900313 
" style="fill:none;stroke:#e377c2;stroke-linecap:square;stroke-width:1.5;"/>
    </g>
    <g id="line2d_49"/>
    <g id="text_23">
     <!-- Dot Prod. -->
     <defs>
      <path d="M 19.671875 64.796875 
L 19.671875 8.109375 
L 31.59375 8.109375 
Q 46.6875 8.109375 53.6875 14.9375 
Q 60.6875 21.78125 60.6875 36.53125 
Q 60.6875 51.171875 53.6875 57.984375 
Q 46.6875 64.796875 31.59375 64.796875 
z
M 9.8125 72.90625 
L 30.078125 72.90625 
Q 51.265625 72.90625 61.171875 64.09375 
Q 71.09375 55.28125 71.09375 36.53125 
Q 71.09375 17.671875 61.125 8.828125 
Q 51.171875 0 30.078125 0 
L 9.8125 0 
z
" id="DejaVuSans-68"/>
      <path d="M 19.671875 64.796875 
L 19.671875 37.40625 
L 32.078125 37.40625 
Q 38.96875 37.40625 42.71875 40.96875 
Q 46.484375 44.53125 46.484375 51.125 
Q 46.484375 57.671875 42.71875 61.234375 
Q 38.96875 64.796875 32.078125 64.796875 
z
M 9.8125 72.90625 
L 32.078125 72.90625 
Q 44.34375 72.90625 50.609375 67.359375 
Q 56.890625 61.8125 56.890625 51.125 
Q 56.890625 40.328125 50.609375 34.8125 
Q 44.34375 29.296875 32.078125 29.296875 
L 19.671875 29.296875 
L 19.671875 0 
L 9.8125 0 
z
" id="DejaVuSans-80"/>
      <path d="M 10.6875 12.40625 
L 21 12.40625 
L 21 0 
L 10.6875 0 
z
" id="DejaVuSans-46"/>
     </defs>
     <g transform="translate(109 373.400313)scale(0.1 -0.1)">
      <use xlink:href="#DejaVuSans-68"/>
      <use x="77.001953" xlink:href="#DejaVuSans-111"/>
      <use x="138.183594" xlink:href="#DejaVuSans-116"/>
      <use x="177.392578" xlink:href="#DejaVuSans-32"/>
      <use x="209.179688" xlink:href="#DejaVuSans-80"/>
      <use x="267.732422" xlink:href="#DejaVuSans-114"/>
      <use x="306.595703" xlink:href="#DejaVuSans-111"/>
      <use x="367.777344" xlink:href="#DejaVuSans-100"/>
      <use x="431.253906" xlink:href="#DejaVuSans-46"/>
     </g>
    </g>
   </g>
  </g>
 </g>
 <defs>
  <clipPath id="pcdb628dc09">
   <rect height="332.64" width="446.4" x="72" y="51.84"/>
  </clipPath>
 </defs>
</svg>
