<?xml version="1.0" encoding="utf-8" standalone="no"?>
<!DOCTYPE svg PUBLIC "-//W3C//DTD SVG 1.1//EN"
  "http://www.w3.org/Graphics/SVG/1.1/DTD/svg11.dtd">
<!-- Created with matplotlib (https://matplotlib.org/) -->
<svg height="432pt" version="1.1" viewBox="0 0 576 432" width="576pt" xmlns="http://www.w3.org/2000/svg" xmlns:xlink="http://www.w3.org/1999/xlink">
 <defs>
  <style type="text/css">
*{stroke-linecap:butt;stroke-linejoin:round;}
  </style>
 </defs>
 <g id="figure_1">
  <g id="patch_1">
   <path d="M 0 432 
L 576 432 
L 576 0 
L 0 0 
z
" style="fill:#ffffff;"/>
  </g>
  <g id="axes_1">
   <g id="patch_2">
    <path d="M 72 384.48 
L 518.4 384.48 
L 518.4 51.84 
L 72 51.84 
z
" style="fill:#ffffff;"/>
   </g>
   <g id="PolyCollection_1">
    <path clip-path="url(#p7a72941512)" d="M 72 100.232813 
L 72 94.675627 
L 80.928 95.901017 
L 89.856 92.767808 
L 98.784 91.718749 
L 107.712 92.011211 
L 116.64 91.883687 
L 125.568 89.623023 
L 134.496 87.685823 
L 143.424 88.866888 
L 152.352 89.680138 
L 161.28 89.304677 
L 170.208 89.063456 
L 179.136 87.447274 
L 188.064 89.356152 
L 196.992 85.097717 
L 205.92 89.162683 
L 214.848 89.949597 
L 223.776 89.802333 
L 232.704 89.784632 
L 241.632 90.763279 
L 250.56 91.092746 
L 259.488 91.632947 
L 268.416 90.590983 
L 277.344 91.113093 
L 286.272 90.667774 
L 295.2 90.87168 
L 304.128 90.404738 
L 313.056 91.248629 
L 321.984 86.245863 
L 330.912 89.090484 
L 339.84 83.592498 
L 348.768 88.086824 
L 357.696 85.233363 
L 366.624 84.497696 
L 375.552 85.147198 
L 384.48 84.920688 
L 393.408 86.355437 
L 402.336 85.230085 
L 411.264 87.267092 
L 420.192 84.084474 
L 429.12 85.336054 
L 438.048 86.435364 
L 446.976 86.029216 
L 455.904 84.91497 
L 464.832 83.930223 
L 473.76 82.230564 
L 482.688 81.579459 
L 491.616 86.64466 
L 500.544 82.624937 
L 509.472 82.921937 
L 518.4 80.859253 
L 518.4 98.737401 
L 518.4 98.737401 
L 509.472 98.242512 
L 500.544 99.232777 
L 491.616 98.743828 
L 482.688 98.946911 
L 473.76 98.451295 
L 464.832 98.989442 
L 455.904 97.146021 
L 446.976 99.227414 
L 438.048 96.102054 
L 429.12 99.757094 
L 420.192 99.136123 
L 411.264 96.5672 
L 402.336 99.274334 
L 393.408 101.068571 
L 384.48 99.582561 
L 375.552 99.118009 
L 366.624 99.49291 
L 357.696 98.078696 
L 348.768 94.865062 
L 339.84 99.710398 
L 330.912 98.711624 
L 321.984 95.52616 
L 313.056 95.08468 
L 304.128 94.905796 
L 295.2 95.032022 
L 286.272 95.273968 
L 277.344 94.465804 
L 268.416 95.104612 
L 259.488 94.100906 
L 250.56 94.880711 
L 241.632 94.539363 
L 232.704 95.600577 
L 223.776 93.988424 
L 214.848 94.786521 
L 205.92 94.670587 
L 196.992 97.876627 
L 188.064 93.863952 
L 179.136 97.504906 
L 170.208 94.2511 
L 161.28 95.800174 
L 152.352 96.398108 
L 143.424 97.172225 
L 134.496 97.651291 
L 125.568 100.726619 
L 116.64 101.067875 
L 107.712 101.606745 
L 98.784 101.94453 
L 89.856 101.567824 
L 80.928 100.529236 
L 72 100.232813 
z
" style="fill:#1f77b4;fill-opacity:0.3;"/>
   </g>
   <g id="PolyCollection_2">
    <path clip-path="url(#p7a72941512)" d="M 72 105.844152 
L 72 82.655273 
L 80.928 87.291568 
L 89.856 91.548369 
L 98.784 93.719168 
L 107.712 99.730389 
L 116.64 111.248909 
L 125.568 121.552198 
L 134.496 128.131792 
L 143.424 134.286071 
L 152.352 142.660287 
L 161.28 154.625853 
L 170.208 162.191418 
L 179.136 175.291305 
L 188.064 185.076815 
L 196.992 189.853035 
L 205.92 203.283682 
L 214.848 215.403787 
L 223.776 226.390272 
L 232.704 234.482111 
L 241.632 243.849575 
L 250.56 258.913159 
L 259.488 265.819503 
L 268.416 271.597564 
L 277.344 276.705297 
L 286.272 275.359053 
L 295.2 274.861752 
L 304.128 273.964408 
L 313.056 273.932645 
L 321.984 273.071707 
L 330.912 275.217075 
L 339.84 286.72588 
L 348.768 297.299495 
L 357.696 297.697393 
L 366.624 305.940231 
L 375.552 307.969469 
L 384.48 312.229285 
L 393.408 315.075512 
L 402.336 316.643724 
L 411.264 319.848382 
L 420.192 321.752547 
L 429.12 323.454276 
L 438.048 326.199741 
L 446.976 328.557096 
L 455.904 331.241523 
L 464.832 332.229792 
L 473.76 334.026152 
L 482.688 334.906042 
L 491.616 336.825247 
L 500.544 336.881811 
L 509.472 337.949958 
L 518.4 338.712526 
L 518.4 352.790932 
L 518.4 352.790932 
L 509.472 352.692164 
L 500.544 352.485101 
L 491.616 352.204919 
L 482.688 351.659754 
L 473.76 351.479752 
L 464.832 350.859131 
L 455.904 350.282535 
L 446.976 349.713144 
L 438.048 347.82218 
L 429.12 343.798106 
L 420.192 339.628255 
L 411.264 336.327648 
L 402.336 333.442725 
L 393.408 333.227967 
L 384.48 333.175544 
L 375.552 332.468062 
L 366.624 332.097325 
L 357.696 329.418254 
L 348.768 329.477941 
L 339.84 325.530893 
L 330.912 307.794554 
L 321.984 298.687006 
L 313.056 295.223158 
L 304.128 294.765223 
L 295.2 291.324568 
L 286.272 290.257834 
L 277.344 290.651406 
L 268.416 296.24088 
L 259.488 298.208571 
L 250.56 293.32876 
L 241.632 288.140535 
L 232.704 278.174384 
L 223.776 270.793038 
L 214.848 264.860085 
L 205.92 252.519369 
L 196.992 223.713957 
L 188.064 211.572832 
L 179.136 195.910354 
L 170.208 181.234105 
L 161.28 176.536175 
L 152.352 165.653391 
L 143.424 148.712817 
L 134.496 139.936046 
L 125.568 133.642611 
L 116.64 128.298752 
L 107.712 119.872134 
L 98.784 106.220771 
L 89.856 106.777704 
L 80.928 109.416794 
L 72 105.844152 
z
" style="fill:#ff7f0e;fill-opacity:0.3;"/>
   </g>
   <g id="PolyCollection_3">
    <path clip-path="url(#p7a72941512)" d="M 72 102.171534 
L 72 90.072439 
L 80.928 93.888833 
L 89.856 97.32344 
L 98.784 104.870387 
L 107.712 118.363658 
L 116.64 122.526962 
L 125.568 123.901393 
L 134.496 126.259198 
L 143.424 128.013117 
L 152.352 129.230151 
L 161.28 130.38376 
L 170.208 130.933992 
L 179.136 131.232169 
L 188.064 131.348649 
L 196.992 132.081659 
L 205.92 132.665589 
L 214.848 133.057932 
L 223.776 133.607315 
L 232.704 134.151671 
L 241.632 135.192418 
L 250.56 136.034613 
L 259.488 136.787489 
L 268.416 137.43152 
L 277.344 137.873068 
L 286.272 138.287265 
L 295.2 138.452294 
L 304.128 138.897094 
L 313.056 139.3363 
L 321.984 139.485914 
L 330.912 139.6284 
L 339.84 139.688006 
L 348.768 139.732927 
L 357.696 139.873571 
L 366.624 140.142961 
L 375.552 140.52177 
L 384.48 140.784824 
L 393.408 140.94849 
L 402.336 141.023657 
L 411.264 141.44556 
L 420.192 141.495007 
L 429.12 141.614074 
L 438.048 142.335434 
L 446.976 142.665135 
L 455.904 143.357043 
L 464.832 143.411758 
L 473.76 143.762904 
L 482.688 144.458915 
L 491.616 144.654584 
L 500.544 144.943017 
L 509.472 145.411672 
L 518.4 145.687782 
L 518.4 179.4973 
L 518.4 179.4973 
L 509.472 179.198633 
L 500.544 178.13199 
L 491.616 177.135303 
L 482.688 175.876037 
L 473.76 173.672075 
L 464.832 171.0276 
L 455.904 167.526789 
L 446.976 165.618986 
L 438.048 164.111109 
L 429.12 162.881781 
L 420.192 162.516471 
L 411.264 161.965825 
L 402.336 161.539967 
L 393.408 160.938919 
L 384.48 160.552741 
L 375.552 160.051323 
L 366.624 159.476642 
L 357.696 159.100804 
L 348.768 158.526693 
L 339.84 157.7684 
L 330.912 157.006733 
L 321.984 156.44865 
L 313.056 156.372122 
L 304.128 155.921429 
L 295.2 155.603262 
L 286.272 155.495147 
L 277.344 154.400567 
L 268.416 152.291197 
L 259.488 149.588136 
L 250.56 147.944507 
L 241.632 145.582502 
L 232.704 143.461389 
L 223.776 140.293531 
L 214.848 138.894536 
L 205.92 138.018081 
L 196.992 137.265993 
L 188.064 137.305613 
L 179.136 137.138235 
L 170.208 136.859154 
L 161.28 136.935502 
L 152.352 135.892207 
L 143.424 134.54139 
L 134.496 132.645608 
L 125.568 129.816802 
L 116.64 128.229997 
L 107.712 129.150193 
L 98.784 122.246757 
L 89.856 107.803365 
L 80.928 101.612394 
L 72 102.171534 
z
" style="fill:#2ca02c;fill-opacity:0.3;"/>
   </g>
   <g id="PolyCollection_4">
    <path clip-path="url(#p7a72941512)" d="M 72 105.899448 
L 72 87.599984 
L 80.928 89.151757 
L 89.856 94.05449 
L 98.784 96.584232 
L 107.712 104.630735 
L 116.64 113.416299 
L 125.568 115.111914 
L 134.496 116.488365 
L 143.424 116.923886 
L 152.352 117.863046 
L 161.28 117.881607 
L 170.208 119.063014 
L 179.136 121.523406 
L 188.064 124.253013 
L 196.992 126.450597 
L 205.92 131.029832 
L 214.848 131.785935 
L 223.776 132.703687 
L 232.704 134.166863 
L 241.632 135.104437 
L 250.56 140.326521 
L 259.488 141.456983 
L 268.416 145.91596 
L 277.344 146.811493 
L 286.272 147.377548 
L 295.2 148.005008 
L 304.128 145.991933 
L 313.056 147.485506 
L 321.984 149.958851 
L 330.912 150.9366 
L 339.84 152.259131 
L 348.768 153.779025 
L 357.696 160.824553 
L 366.624 179.858716 
L 375.552 184.44849 
L 384.48 185.946927 
L 393.408 189.116735 
L 402.336 189.771349 
L 411.264 190.136361 
L 420.192 191.751454 
L 429.12 192.576174 
L 438.048 194.071275 
L 446.976 194.823824 
L 455.904 195.958937 
L 464.832 196.288583 
L 473.76 196.437524 
L 482.688 197.759506 
L 491.616 204.272585 
L 500.544 213.393225 
L 509.472 220.517424 
L 518.4 227.450412 
L 518.4 271.623056 
L 518.4 271.623056 
L 509.472 268.958841 
L 500.544 262.92355 
L 491.616 253.116595 
L 482.688 249.990859 
L 473.76 248.940631 
L 464.832 247.715508 
L 455.904 246.900096 
L 446.976 245.513249 
L 438.048 244.282951 
L 429.12 243.071277 
L 420.192 242.553324 
L 411.264 242.241953 
L 402.336 241.393115 
L 393.408 240.502999 
L 384.48 239.265902 
L 375.552 238.432705 
L 366.624 229.315442 
L 357.696 214.849119 
L 348.768 200.694967 
L 339.84 191.378707 
L 330.912 188.426515 
L 321.984 184.518033 
L 313.056 180.278621 
L 304.128 167.980161 
L 295.2 162.379135 
L 286.272 160.777849 
L 277.344 160.276113 
L 268.416 159.563033 
L 259.488 160.614526 
L 250.56 157.964105 
L 241.632 151.635055 
L 232.704 148.136184 
L 223.776 145.986165 
L 214.848 144.873189 
L 205.92 143.377489 
L 196.992 141.568268 
L 188.064 139.942018 
L 179.136 138.407082 
L 170.208 137.392136 
L 161.28 136.260576 
L 152.352 136.011032 
L 143.424 133.746886 
L 134.496 133.0732 
L 125.568 130.410787 
L 116.64 127.409239 
L 107.712 123.568243 
L 98.784 110.704514 
L 89.856 103.674355 
L 80.928 102.804587 
L 72 105.899448 
z
" style="fill:#d62728;fill-opacity:0.3;"/>
   </g>
   <g id="PolyCollection_5">
    <path clip-path="url(#p7a72941512)" d="M 72 102.107672 
L 72 84.803802 
L 80.928 87.177513 
L 89.856 91.450102 
L 98.784 93.406376 
L 107.712 100.423152 
L 116.64 115.301723 
L 125.568 119.912035 
L 134.496 123.846387 
L 143.424 127.293242 
L 152.352 128.181721 
L 161.28 128.457816 
L 170.208 128.746993 
L 179.136 129.647429 
L 188.064 129.059896 
L 196.992 129.958321 
L 205.92 130.842287 
L 214.848 132.546504 
L 223.776 131.562963 
L 232.704 131.899858 
L 241.632 129.27543 
L 250.56 132.568548 
L 259.488 133.703533 
L 268.416 135.808822 
L 277.344 140.185767 
L 286.272 147.308114 
L 295.2 166.992055 
L 304.128 180.292654 
L 313.056 182.108942 
L 321.984 186.810529 
L 330.912 195.496561 
L 339.84 199.211461 
L 348.768 205.487782 
L 357.696 212.017067 
L 366.624 218.566668 
L 375.552 220.186578 
L 384.48 222.705054 
L 393.408 227.68161 
L 402.336 229.802657 
L 411.264 230.103882 
L 420.192 232.462909 
L 429.12 232.821059 
L 438.048 232.763267 
L 446.976 232.704389 
L 455.904 238.1325 
L 464.832 240.136771 
L 473.76 241.255447 
L 482.688 245.069825 
L 491.616 245.328187 
L 500.544 245.410724 
L 509.472 245.40596 
L 518.4 245.850278 
L 518.4 265.543056 
L 518.4 265.543056 
L 509.472 265.313051 
L 500.544 265.335337 
L 491.616 264.714423 
L 482.688 264.506299 
L 473.76 265.925648 
L 464.832 266.023695 
L 455.904 265.741092 
L 446.976 266.620802 
L 438.048 266.758851 
L 429.12 266.888145 
L 420.192 266.797052 
L 411.264 265.656809 
L 402.336 265.277716 
L 393.408 263.878751 
L 384.48 264.527586 
L 375.552 263.529339 
L 366.624 262.611911 
L 357.696 264.444198 
L 348.768 264.029849 
L 339.84 259.485763 
L 330.912 251.436022 
L 321.984 246.808772 
L 313.056 245.832396 
L 304.128 241.537202 
L 295.2 228.775143 
L 286.272 218.211605 
L 277.344 210.389932 
L 268.416 198.890119 
L 259.488 181.793651 
L 250.56 171.973387 
L 241.632 166.774591 
L 232.704 158.622883 
L 223.776 154.231219 
L 214.848 146.569931 
L 205.92 145.807392 
L 196.992 144.748624 
L 188.064 144.337913 
L 179.136 140.162304 
L 170.208 140.55833 
L 161.28 138.000133 
L 152.352 137.737845 
L 143.424 136.857178 
L 134.496 133.248167 
L 125.568 130.336068 
L 116.64 127.661683 
L 107.712 118.649418 
L 98.784 108.034444 
L 89.856 103.270055 
L 80.928 101.389746 
L 72 102.107672 
z
" style="fill:#9467bd;fill-opacity:0.3;"/>
   </g>
   <g id="PolyCollection_6">
    <path clip-path="url(#p7a72941512)" d="M 72 104.493873 
L 72 88.606376 
L 80.928 90.194968 
L 89.856 96.63792 
L 98.784 98.501525 
L 107.712 101.729042 
L 116.64 109.060558 
L 125.568 111.866695 
L 134.496 118.885997 
L 143.424 123.521002 
L 152.352 136.968771 
L 161.28 146.522006 
L 170.208 164.514727 
L 179.136 178.146699 
L 188.064 188.195616 
L 196.992 193.898753 
L 205.92 202.252169 
L 214.848 209.578316 
L 223.776 223.520199 
L 232.704 229.173991 
L 241.632 233.571492 
L 250.56 243.086795 
L 259.488 254.223102 
L 268.416 257.84464 
L 277.344 256.329674 
L 286.272 264.788296 
L 295.2 263.794377 
L 304.128 264.21152 
L 313.056 264.176292 
L 321.984 265.02001 
L 330.912 266.117366 
L 339.84 273.753284 
L 348.768 291.32014 
L 357.696 295.570153 
L 366.624 303.290086 
L 375.552 308.176655 
L 384.48 304.191489 
L 393.408 315.582163 
L 402.336 318.459318 
L 411.264 322.495699 
L 420.192 317.286152 
L 429.12 325.985092 
L 438.048 327.891737 
L 446.976 332.756278 
L 455.904 336.055861 
L 464.832 337.903337 
L 473.76 339.033927 
L 482.688 339.112405 
L 491.616 334.126794 
L 500.544 339.918747 
L 509.472 335.535837 
L 518.4 339.219259 
L 518.4 350.794388 
L 518.4 350.794388 
L 509.472 353.095183 
L 500.544 349.568962 
L 491.616 352.927929 
L 482.688 349.358698 
L 473.76 349.371867 
L 464.832 349.069216 
L 455.904 348.545398 
L 446.976 349.292857 
L 438.048 349.643026 
L 429.12 347.832795 
L 420.192 347.026111 
L 411.264 336.208031 
L 402.336 334.395799 
L 393.408 335.116233 
L 384.48 338.716056 
L 375.552 334.54897 
L 366.624 335.114434 
L 357.696 336.154531 
L 348.768 329.246044 
L 339.84 326.468501 
L 330.912 306.382947 
L 321.984 294.856346 
L 313.056 293.35142 
L 304.128 293.147613 
L 295.2 293.463979 
L 286.272 291.301198 
L 277.344 295.060458 
L 268.416 296.44825 
L 259.488 298.621571 
L 250.56 292.693088 
L 241.632 281.195934 
L 232.704 276.059693 
L 223.776 267.182925 
L 214.848 258.613124 
L 205.92 249.065455 
L 196.992 221.331145 
L 188.064 209.505876 
L 179.136 194.383159 
L 170.208 184.635881 
L 161.28 176.808951 
L 152.352 162.475532 
L 143.424 137.47459 
L 134.496 131.909995 
L 125.568 130.851753 
L 116.64 126.867512 
L 107.712 117.298064 
L 98.784 107.73184 
L 89.856 104.17534 
L 80.928 102.862742 
L 72 104.493873 
z
" style="fill:#8c564b;fill-opacity:0.3;"/>
   </g>
   <g id="PolyCollection_7">
    <path clip-path="url(#p7a72941512)" d="M 72 100.024088 
L 72 93.240862 
L 80.928 92.604759 
L 89.856 92.15203 
L 98.784 89.677795 
L 107.712 88.0725 
L 116.64 86.850814 
L 125.568 86.4547 
L 134.496 87.161388 
L 143.424 88.045922 
L 152.352 87.896407 
L 161.28 87.822359 
L 170.208 87.546939 
L 179.136 88.534959 
L 188.064 89.309592 
L 196.992 89.657159 
L 205.92 89.857204 
L 214.848 90.06396 
L 223.776 89.615964 
L 232.704 89.699011 
L 241.632 89.539601 
L 250.56 89.614183 
L 259.488 89.44086 
L 268.416 89.605725 
L 277.344 89.365902 
L 286.272 89.337084 
L 295.2 89.105254 
L 304.128 89.153299 
L 313.056 88.886437 
L 321.984 88.753448 
L 330.912 88.566464 
L 339.84 88.65073 
L 348.768 88.470622 
L 357.696 88.435898 
L 366.624 88.400399 
L 375.552 89.461056 
L 384.48 90.615137 
L 393.408 91.104729 
L 402.336 91.113112 
L 411.264 91.170524 
L 420.192 91.222289 
L 429.12 91.245844 
L 438.048 91.147556 
L 446.976 91.131643 
L 455.904 91.212602 
L 464.832 91.24999 
L 473.76 91.149013 
L 482.688 91.168772 
L 491.616 91.246631 
L 500.544 91.261215 
L 509.472 91.147495 
L 518.4 91.206119 
L 518.4 93.246497 
L 518.4 93.246497 
L 509.472 93.059979 
L 500.544 93.271975 
L 491.616 93.082163 
L 482.688 93.206742 
L 473.76 93.048338 
L 464.832 93.270536 
L 455.904 92.964477 
L 446.976 93.272918 
L 438.048 92.999822 
L 429.12 93.268309 
L 420.192 93.008122 
L 411.264 93.129701 
L 402.336 92.944296 
L 393.408 93.058103 
L 384.48 92.982239 
L 375.552 93.660439 
L 366.624 93.936394 
L 357.696 94.30073 
L 348.768 94.078975 
L 339.84 94.17713 
L 330.912 93.681762 
L 321.984 93.745075 
L 313.056 93.745157 
L 304.128 93.81906 
L 295.2 93.679093 
L 286.272 93.955973 
L 277.344 93.642246 
L 268.416 93.878002 
L 259.488 93.227577 
L 250.56 92.957042 
L 241.632 92.854732 
L 232.704 92.402686 
L 223.776 92.81333 
L 214.848 92.676921 
L 205.92 92.871516 
L 196.992 92.349479 
L 188.064 93.280917 
L 179.136 92.747594 
L 170.208 92.116515 
L 161.28 92.422048 
L 152.352 93.147971 
L 143.424 94.188544 
L 134.496 94.929284 
L 125.568 96.71866 
L 116.64 98.19356 
L 107.712 99.530748 
L 98.784 100.321927 
L 89.856 100.609648 
L 80.928 101.1947 
L 72 100.024088 
z
" style="fill:#e377c2;fill-opacity:0.3;"/>
   </g>
   <g id="matplotlib.axis_1">
    <g id="xtick_1">
     <g id="line2d_1">
      <path clip-path="url(#p7a72941512)" d="M 72 384.48 
L 72 51.84 
" style="fill:none;stroke:#b0b0b0;stroke-linecap:square;stroke-width:0.8;"/>
     </g>
     <g id="line2d_2">
      <defs>
       <path d="M 0 0 
L 0 3.5 
" id="m5b4674467d" style="stroke:#000000;stroke-width:0.8;"/>
      </defs>
      <g>
       <use style="stroke:#000000;stroke-width:0.8;" x="72" xlink:href="#m5b4674467d" y="384.48"/>
      </g>
     </g>
     <g id="text_1">
      <!-- 0 -->
      <defs>
       <path d="M 31.78125 66.40625 
Q 24.171875 66.40625 20.328125 58.90625 
Q 16.5 51.421875 16.5 36.375 
Q 16.5 21.390625 20.328125 13.890625 
Q 24.171875 6.390625 31.78125 6.390625 
Q 39.453125 6.390625 43.28125 13.890625 
Q 47.125 21.390625 47.125 36.375 
Q 47.125 51.421875 43.28125 58.90625 
Q 39.453125 66.40625 31.78125 66.40625 
z
M 31.78125 74.21875 
Q 44.046875 74.21875 50.515625 64.515625 
Q 56.984375 54.828125 56.984375 36.375 
Q 56.984375 17.96875 50.515625 8.265625 
Q 44.046875 -1.421875 31.78125 -1.421875 
Q 19.53125 -1.421875 13.0625 8.265625 
Q 6.59375 17.96875 6.59375 36.375 
Q 6.59375 54.828125 13.0625 64.515625 
Q 19.53125 74.21875 31.78125 74.21875 
z
" id="DejaVuSans-48"/>
      </defs>
      <g transform="translate(68.81875 399.078438)scale(0.1 -0.1)">
       <use xlink:href="#DejaVuSans-48"/>
      </g>
     </g>
    </g>
    <g id="xtick_2">
     <g id="line2d_3">
      <path clip-path="url(#p7a72941512)" d="M 161.28 384.48 
L 161.28 51.84 
" style="fill:none;stroke:#b0b0b0;stroke-linecap:square;stroke-width:0.8;"/>
     </g>
     <g id="line2d_4">
      <g>
       <use style="stroke:#000000;stroke-width:0.8;" x="161.28" xlink:href="#m5b4674467d" y="384.48"/>
      </g>
     </g>
     <g id="text_2">
      <!-- 10 -->
      <defs>
       <path d="M 12.40625 8.296875 
L 28.515625 8.296875 
L 28.515625 63.921875 
L 10.984375 60.40625 
L 10.984375 69.390625 
L 28.421875 72.90625 
L 38.28125 72.90625 
L 38.28125 8.296875 
L 54.390625 8.296875 
L 54.390625 0 
L 12.40625 0 
z
" id="DejaVuSans-49"/>
      </defs>
      <g transform="translate(154.9175 399.078438)scale(0.1 -0.1)">
       <use xlink:href="#DejaVuSans-49"/>
       <use x="63.623047" xlink:href="#DejaVuSans-48"/>
      </g>
     </g>
    </g>
    <g id="xtick_3">
     <g id="line2d_5">
      <path clip-path="url(#p7a72941512)" d="M 250.56 384.48 
L 250.56 51.84 
" style="fill:none;stroke:#b0b0b0;stroke-linecap:square;stroke-width:0.8;"/>
     </g>
     <g id="line2d_6">
      <g>
       <use style="stroke:#000000;stroke-width:0.8;" x="250.56" xlink:href="#m5b4674467d" y="384.48"/>
      </g>
     </g>
     <g id="text_3">
      <!-- 20 -->
      <defs>
       <path d="M 19.1875 8.296875 
L 53.609375 8.296875 
L 53.609375 0 
L 7.328125 0 
L 7.328125 8.296875 
Q 12.9375 14.109375 22.625 23.890625 
Q 32.328125 33.6875 34.8125 36.53125 
Q 39.546875 41.84375 41.421875 45.53125 
Q 43.3125 49.21875 43.3125 52.78125 
Q 43.3125 58.59375 39.234375 62.25 
Q 35.15625 65.921875 28.609375 65.921875 
Q 23.96875 65.921875 18.8125 64.3125 
Q 13.671875 62.703125 7.8125 59.421875 
L 7.8125 69.390625 
Q 13.765625 71.78125 18.9375 73 
Q 24.125 74.21875 28.421875 74.21875 
Q 39.75 74.21875 46.484375 68.546875 
Q 53.21875 62.890625 53.21875 53.421875 
Q 53.21875 48.921875 51.53125 44.890625 
Q 49.859375 40.875 45.40625 35.40625 
Q 44.1875 33.984375 37.640625 27.21875 
Q 31.109375 20.453125 19.1875 8.296875 
z
" id="DejaVuSans-50"/>
      </defs>
      <g transform="translate(244.1975 399.078438)scale(0.1 -0.1)">
       <use xlink:href="#DejaVuSans-50"/>
       <use x="63.623047" xlink:href="#DejaVuSans-48"/>
      </g>
     </g>
    </g>
    <g id="xtick_4">
     <g id="line2d_7">
      <path clip-path="url(#p7a72941512)" d="M 339.84 384.48 
L 339.84 51.84 
" style="fill:none;stroke:#b0b0b0;stroke-linecap:square;stroke-width:0.8;"/>
     </g>
     <g id="line2d_8">
      <g>
       <use style="stroke:#000000;stroke-width:0.8;" x="339.84" xlink:href="#m5b4674467d" y="384.48"/>
      </g>
     </g>
     <g id="text_4">
      <!-- 30 -->
      <defs>
       <path d="M 40.578125 39.3125 
Q 47.65625 37.796875 51.625 33 
Q 55.609375 28.21875 55.609375 21.1875 
Q 55.609375 10.40625 48.1875 4.484375 
Q 40.765625 -1.421875 27.09375 -1.421875 
Q 22.515625 -1.421875 17.65625 -0.515625 
Q 12.796875 0.390625 7.625 2.203125 
L 7.625 11.71875 
Q 11.71875 9.328125 16.59375 8.109375 
Q 21.484375 6.890625 26.8125 6.890625 
Q 36.078125 6.890625 40.9375 10.546875 
Q 45.796875 14.203125 45.796875 21.1875 
Q 45.796875 27.640625 41.28125 31.265625 
Q 36.765625 34.90625 28.71875 34.90625 
L 20.21875 34.90625 
L 20.21875 43.015625 
L 29.109375 43.015625 
Q 36.375 43.015625 40.234375 45.921875 
Q 44.09375 48.828125 44.09375 54.296875 
Q 44.09375 59.90625 40.109375 62.90625 
Q 36.140625 65.921875 28.71875 65.921875 
Q 24.65625 65.921875 20.015625 65.03125 
Q 15.375 64.15625 9.8125 62.3125 
L 9.8125 71.09375 
Q 15.4375 72.65625 20.34375 73.4375 
Q 25.25 74.21875 29.59375 74.21875 
Q 40.828125 74.21875 47.359375 69.109375 
Q 53.90625 64.015625 53.90625 55.328125 
Q 53.90625 49.265625 50.4375 45.09375 
Q 46.96875 40.921875 40.578125 39.3125 
z
" id="DejaVuSans-51"/>
      </defs>
      <g transform="translate(333.4775 399.078438)scale(0.1 -0.1)">
       <use xlink:href="#DejaVuSans-51"/>
       <use x="63.623047" xlink:href="#DejaVuSans-48"/>
      </g>
     </g>
    </g>
    <g id="xtick_5">
     <g id="line2d_9">
      <path clip-path="url(#p7a72941512)" d="M 429.12 384.48 
L 429.12 51.84 
" style="fill:none;stroke:#b0b0b0;stroke-linecap:square;stroke-width:0.8;"/>
     </g>
     <g id="line2d_10">
      <g>
       <use style="stroke:#000000;stroke-width:0.8;" x="429.12" xlink:href="#m5b4674467d" y="384.48"/>
      </g>
     </g>
     <g id="text_5">
      <!-- 40 -->
      <defs>
       <path d="M 37.796875 64.3125 
L 12.890625 25.390625 
L 37.796875 25.390625 
z
M 35.203125 72.90625 
L 47.609375 72.90625 
L 47.609375 25.390625 
L 58.015625 25.390625 
L 58.015625 17.1875 
L 47.609375 17.1875 
L 47.609375 0 
L 37.796875 0 
L 37.796875 17.1875 
L 4.890625 17.1875 
L 4.890625 26.703125 
z
" id="DejaVuSans-52"/>
      </defs>
      <g transform="translate(422.7575 399.078438)scale(0.1 -0.1)">
       <use xlink:href="#DejaVuSans-52"/>
       <use x="63.623047" xlink:href="#DejaVuSans-48"/>
      </g>
     </g>
    </g>
    <g id="xtick_6">
     <g id="line2d_11">
      <path clip-path="url(#p7a72941512)" d="M 518.4 384.48 
L 518.4 51.84 
" style="fill:none;stroke:#b0b0b0;stroke-linecap:square;stroke-width:0.8;"/>
     </g>
     <g id="line2d_12">
      <g>
       <use style="stroke:#000000;stroke-width:0.8;" x="518.4" xlink:href="#m5b4674467d" y="384.48"/>
      </g>
     </g>
     <g id="text_6">
      <!-- 50 -->
      <defs>
       <path d="M 10.796875 72.90625 
L 49.515625 72.90625 
L 49.515625 64.59375 
L 19.828125 64.59375 
L 19.828125 46.734375 
Q 21.96875 47.46875 24.109375 47.828125 
Q 26.265625 48.1875 28.421875 48.1875 
Q 40.625 48.1875 47.75 41.5 
Q 54.890625 34.8125 54.890625 23.390625 
Q 54.890625 11.625 47.5625 5.09375 
Q 40.234375 -1.421875 26.90625 -1.421875 
Q 22.3125 -1.421875 17.546875 -0.640625 
Q 12.796875 0.140625 7.71875 1.703125 
L 7.71875 11.625 
Q 12.109375 9.234375 16.796875 8.0625 
Q 21.484375 6.890625 26.703125 6.890625 
Q 35.15625 6.890625 40.078125 11.328125 
Q 45.015625 15.765625 45.015625 23.390625 
Q 45.015625 31 40.078125 35.4375 
Q 35.15625 39.890625 26.703125 39.890625 
Q 22.75 39.890625 18.8125 39.015625 
Q 14.890625 38.140625 10.796875 36.28125 
z
" id="DejaVuSans-53"/>
      </defs>
      <g transform="translate(512.0375 399.078438)scale(0.1 -0.1)">
       <use xlink:href="#DejaVuSans-53"/>
       <use x="63.623047" xlink:href="#DejaVuSans-48"/>
      </g>
     </g>
    </g>
    <g id="text_7">
     <!-- Iteration -->
     <defs>
      <path d="M 9.8125 72.90625 
L 19.671875 72.90625 
L 19.671875 0 
L 9.8125 0 
z
" id="DejaVuSans-73"/>
      <path d="M 18.3125 70.21875 
L 18.3125 54.6875 
L 36.8125 54.6875 
L 36.8125 47.703125 
L 18.3125 47.703125 
L 18.3125 18.015625 
Q 18.3125 11.328125 20.140625 9.421875 
Q 21.96875 7.515625 27.59375 7.515625 
L 36.8125 7.515625 
L 36.8125 0 
L 27.59375 0 
Q 17.1875 0 13.234375 3.875 
Q 9.28125 7.765625 9.28125 18.015625 
L 9.28125 47.703125 
L 2.6875 47.703125 
L 2.6875 54.6875 
L 9.28125 54.6875 
L 9.28125 70.21875 
z
" id="DejaVuSans-116"/>
      <path d="M 56.203125 29.59375 
L 56.203125 25.203125 
L 14.890625 25.203125 
Q 15.484375 15.921875 20.484375 11.0625 
Q 25.484375 6.203125 34.421875 6.203125 
Q 39.59375 6.203125 44.453125 7.46875 
Q 49.3125 8.734375 54.109375 11.28125 
L 54.109375 2.78125 
Q 49.265625 0.734375 44.1875 -0.34375 
Q 39.109375 -1.421875 33.890625 -1.421875 
Q 20.796875 -1.421875 13.15625 6.1875 
Q 5.515625 13.8125 5.515625 26.8125 
Q 5.515625 40.234375 12.765625 48.109375 
Q 20.015625 56 32.328125 56 
Q 43.359375 56 49.78125 48.890625 
Q 56.203125 41.796875 56.203125 29.59375 
z
M 47.21875 32.234375 
Q 47.125 39.59375 43.09375 43.984375 
Q 39.0625 48.390625 32.421875 48.390625 
Q 24.90625 48.390625 20.390625 44.140625 
Q 15.875 39.890625 15.1875 32.171875 
z
" id="DejaVuSans-101"/>
      <path d="M 41.109375 46.296875 
Q 39.59375 47.171875 37.8125 47.578125 
Q 36.03125 48 33.890625 48 
Q 26.265625 48 22.1875 43.046875 
Q 18.109375 38.09375 18.109375 28.8125 
L 18.109375 0 
L 9.078125 0 
L 9.078125 54.6875 
L 18.109375 54.6875 
L 18.109375 46.1875 
Q 20.953125 51.171875 25.484375 53.578125 
Q 30.03125 56 36.53125 56 
Q 37.453125 56 38.578125 55.875 
Q 39.703125 55.765625 41.0625 55.515625 
z
" id="DejaVuSans-114"/>
      <path d="M 34.28125 27.484375 
Q 23.390625 27.484375 19.1875 25 
Q 14.984375 22.515625 14.984375 16.5 
Q 14.984375 11.71875 18.140625 8.90625 
Q 21.296875 6.109375 26.703125 6.109375 
Q 34.1875 6.109375 38.703125 11.40625 
Q 43.21875 16.703125 43.21875 25.484375 
L 43.21875 27.484375 
z
M 52.203125 31.203125 
L 52.203125 0 
L 43.21875 0 
L 43.21875 8.296875 
Q 40.140625 3.328125 35.546875 0.953125 
Q 30.953125 -1.421875 24.3125 -1.421875 
Q 15.921875 -1.421875 10.953125 3.296875 
Q 6 8.015625 6 15.921875 
Q 6 25.140625 12.171875 29.828125 
Q 18.359375 34.515625 30.609375 34.515625 
L 43.21875 34.515625 
L 43.21875 35.40625 
Q 43.21875 41.609375 39.140625 45 
Q 35.0625 48.390625 27.6875 48.390625 
Q 23 48.390625 18.546875 47.265625 
Q 14.109375 46.140625 10.015625 43.890625 
L 10.015625 52.203125 
Q 14.9375 54.109375 19.578125 55.046875 
Q 24.21875 56 28.609375 56 
Q 40.484375 56 46.34375 49.84375 
Q 52.203125 43.703125 52.203125 31.203125 
z
" id="DejaVuSans-97"/>
      <path d="M 9.421875 54.6875 
L 18.40625 54.6875 
L 18.40625 0 
L 9.421875 0 
z
M 9.421875 75.984375 
L 18.40625 75.984375 
L 18.40625 64.59375 
L 9.421875 64.59375 
z
" id="DejaVuSans-105"/>
      <path d="M 30.609375 48.390625 
Q 23.390625 48.390625 19.1875 42.75 
Q 14.984375 37.109375 14.984375 27.296875 
Q 14.984375 17.484375 19.15625 11.84375 
Q 23.34375 6.203125 30.609375 6.203125 
Q 37.796875 6.203125 41.984375 11.859375 
Q 46.1875 17.53125 46.1875 27.296875 
Q 46.1875 37.015625 41.984375 42.703125 
Q 37.796875 48.390625 30.609375 48.390625 
z
M 30.609375 56 
Q 42.328125 56 49.015625 48.375 
Q 55.71875 40.765625 55.71875 27.296875 
Q 55.71875 13.875 49.015625 6.21875 
Q 42.328125 -1.421875 30.609375 -1.421875 
Q 18.84375 -1.421875 12.171875 6.21875 
Q 5.515625 13.875 5.515625 27.296875 
Q 5.515625 40.765625 12.171875 48.375 
Q 18.84375 56 30.609375 56 
z
" id="DejaVuSans-111"/>
      <path d="M 54.890625 33.015625 
L 54.890625 0 
L 45.90625 0 
L 45.90625 32.71875 
Q 45.90625 40.484375 42.875 44.328125 
Q 39.84375 48.1875 33.796875 48.1875 
Q 26.515625 48.1875 22.3125 43.546875 
Q 18.109375 38.921875 18.109375 30.90625 
L 18.109375 0 
L 9.078125 0 
L 9.078125 54.6875 
L 18.109375 54.6875 
L 18.109375 46.1875 
Q 21.34375 51.125 25.703125 53.5625 
Q 30.078125 56 35.796875 56 
Q 45.21875 56 50.046875 50.171875 
Q 54.890625 44.34375 54.890625 33.015625 
z
" id="DejaVuSans-110"/>
     </defs>
     <g transform="translate(273.991406 412.756563)scale(0.1 -0.1)">
      <use xlink:href="#DejaVuSans-73"/>
      <use x="29.492188" xlink:href="#DejaVuSans-116"/>
      <use x="68.701172" xlink:href="#DejaVuSans-101"/>
      <use x="130.224609" xlink:href="#DejaVuSans-114"/>
      <use x="171.337891" xlink:href="#DejaVuSans-97"/>
      <use x="232.617188" xlink:href="#DejaVuSans-116"/>
      <use x="271.826172" xlink:href="#DejaVuSans-105"/>
      <use x="299.609375" xlink:href="#DejaVuSans-111"/>
      <use x="360.791016" xlink:href="#DejaVuSans-110"/>
     </g>
    </g>
   </g>
   <g id="matplotlib.axis_2">
    <g id="ytick_1">
     <g id="line2d_13">
      <path clip-path="url(#p7a72941512)" d="M 72 384.48 
L 518.4 384.48 
" style="fill:none;stroke:#b0b0b0;stroke-linecap:square;stroke-width:0.8;"/>
     </g>
     <g id="line2d_14">
      <defs>
       <path d="M 0 0 
L -3.5 0 
" id="m8b5e8e7ace" style="stroke:#000000;stroke-width:0.8;"/>
      </defs>
      <g>
       <use style="stroke:#000000;stroke-width:0.8;" x="72" xlink:href="#m8b5e8e7ace" y="384.48"/>
      </g>
     </g>
     <g id="text_8">
      <!-- $\mathdefault{10^{-12}}$ -->
      <defs>
       <path d="M 10.59375 35.5 
L 73.1875 35.5 
L 73.1875 27.203125 
L 10.59375 27.203125 
z
" id="DejaVuSans-8722"/>
      </defs>
      <g transform="translate(37.1 388.279219)scale(0.1 -0.1)">
       <use transform="translate(0 0.765625)" xlink:href="#DejaVuSans-49"/>
       <use transform="translate(63.623047 0.765625)" xlink:href="#DejaVuSans-48"/>
       <use transform="translate(128.203125 39.046875)scale(0.7)" xlink:href="#DejaVuSans-8722"/>
       <use transform="translate(186.855469 39.046875)scale(0.7)" xlink:href="#DejaVuSans-49"/>
       <use transform="translate(231.391602 39.046875)scale(0.7)" xlink:href="#DejaVuSans-50"/>
      </g>
     </g>
    </g>
    <g id="ytick_2">
     <g id="line2d_15">
      <path clip-path="url(#p7a72941512)" d="M 72 336.96 
L 518.4 336.96 
" style="fill:none;stroke:#b0b0b0;stroke-linecap:square;stroke-width:0.8;"/>
     </g>
     <g id="line2d_16">
      <g>
       <use style="stroke:#000000;stroke-width:0.8;" x="72" xlink:href="#m8b5e8e7ace" y="336.96"/>
      </g>
     </g>
     <g id="text_9">
      <!-- $\mathdefault{10^{-10}}$ -->
      <g transform="translate(37.1 340.759219)scale(0.1 -0.1)">
       <use transform="translate(0 0.765625)" xlink:href="#DejaVuSans-49"/>
       <use transform="translate(63.623047 0.765625)" xlink:href="#DejaVuSans-48"/>
       <use transform="translate(128.203125 39.046875)scale(0.7)" xlink:href="#DejaVuSans-8722"/>
       <use transform="translate(186.855469 39.046875)scale(0.7)" xlink:href="#DejaVuSans-49"/>
       <use transform="translate(231.391602 39.046875)scale(0.7)" xlink:href="#DejaVuSans-48"/>
      </g>
     </g>
    </g>
    <g id="ytick_3">
     <g id="line2d_17">
      <path clip-path="url(#p7a72941512)" d="M 72 289.44 
L 518.4 289.44 
" style="fill:none;stroke:#b0b0b0;stroke-linecap:square;stroke-width:0.8;"/>
     </g>
     <g id="line2d_18">
      <g>
       <use style="stroke:#000000;stroke-width:0.8;" x="72" xlink:href="#m8b5e8e7ace" y="289.44"/>
      </g>
     </g>
     <g id="text_10">
      <!-- $\mathdefault{10^{-8}}$ -->
      <defs>
       <path d="M 31.78125 34.625 
Q 24.75 34.625 20.71875 30.859375 
Q 16.703125 27.09375 16.703125 20.515625 
Q 16.703125 13.921875 20.71875 10.15625 
Q 24.75 6.390625 31.78125 6.390625 
Q 38.8125 6.390625 42.859375 10.171875 
Q 46.921875 13.96875 46.921875 20.515625 
Q 46.921875 27.09375 42.890625 30.859375 
Q 38.875 34.625 31.78125 34.625 
z
M 21.921875 38.8125 
Q 15.578125 40.375 12.03125 44.71875 
Q 8.5 49.078125 8.5 55.328125 
Q 8.5 64.0625 14.71875 69.140625 
Q 20.953125 74.21875 31.78125 74.21875 
Q 42.671875 74.21875 48.875 69.140625 
Q 55.078125 64.0625 55.078125 55.328125 
Q 55.078125 49.078125 51.53125 44.71875 
Q 48 40.375 41.703125 38.8125 
Q 48.828125 37.15625 52.796875 32.3125 
Q 56.78125 27.484375 56.78125 20.515625 
Q 56.78125 9.90625 50.3125 4.234375 
Q 43.84375 -1.421875 31.78125 -1.421875 
Q 19.734375 -1.421875 13.25 4.234375 
Q 6.78125 9.90625 6.78125 20.515625 
Q 6.78125 27.484375 10.78125 32.3125 
Q 14.796875 37.15625 21.921875 38.8125 
z
M 18.3125 54.390625 
Q 18.3125 48.734375 21.84375 45.5625 
Q 25.390625 42.390625 31.78125 42.390625 
Q 38.140625 42.390625 41.71875 45.5625 
Q 45.3125 48.734375 45.3125 54.390625 
Q 45.3125 60.0625 41.71875 63.234375 
Q 38.140625 66.40625 31.78125 66.40625 
Q 25.390625 66.40625 21.84375 63.234375 
Q 18.3125 60.0625 18.3125 54.390625 
z
" id="DejaVuSans-56"/>
      </defs>
      <g transform="translate(41.5 293.239219)scale(0.1 -0.1)">
       <use transform="translate(0 0.765625)" xlink:href="#DejaVuSans-49"/>
       <use transform="translate(63.623047 0.765625)" xlink:href="#DejaVuSans-48"/>
       <use transform="translate(128.203125 39.046875)scale(0.7)" xlink:href="#DejaVuSans-8722"/>
       <use transform="translate(186.855469 39.046875)scale(0.7)" xlink:href="#DejaVuSans-56"/>
      </g>
     </g>
    </g>
    <g id="ytick_4">
     <g id="line2d_19">
      <path clip-path="url(#p7a72941512)" d="M 72 241.92 
L 518.4 241.92 
" style="fill:none;stroke:#b0b0b0;stroke-linecap:square;stroke-width:0.8;"/>
     </g>
     <g id="line2d_20">
      <g>
       <use style="stroke:#000000;stroke-width:0.8;" x="72" xlink:href="#m8b5e8e7ace" y="241.92"/>
      </g>
     </g>
     <g id="text_11">
      <!-- $\mathdefault{10^{-6}}$ -->
      <defs>
       <path d="M 33.015625 40.375 
Q 26.375 40.375 22.484375 35.828125 
Q 18.609375 31.296875 18.609375 23.390625 
Q 18.609375 15.53125 22.484375 10.953125 
Q 26.375 6.390625 33.015625 6.390625 
Q 39.65625 6.390625 43.53125 10.953125 
Q 47.40625 15.53125 47.40625 23.390625 
Q 47.40625 31.296875 43.53125 35.828125 
Q 39.65625 40.375 33.015625 40.375 
z
M 52.59375 71.296875 
L 52.59375 62.3125 
Q 48.875 64.0625 45.09375 64.984375 
Q 41.3125 65.921875 37.59375 65.921875 
Q 27.828125 65.921875 22.671875 59.328125 
Q 17.53125 52.734375 16.796875 39.40625 
Q 19.671875 43.65625 24.015625 45.921875 
Q 28.375 48.1875 33.59375 48.1875 
Q 44.578125 48.1875 50.953125 41.515625 
Q 57.328125 34.859375 57.328125 23.390625 
Q 57.328125 12.15625 50.6875 5.359375 
Q 44.046875 -1.421875 33.015625 -1.421875 
Q 20.359375 -1.421875 13.671875 8.265625 
Q 6.984375 17.96875 6.984375 36.375 
Q 6.984375 53.65625 15.1875 63.9375 
Q 23.390625 74.21875 37.203125 74.21875 
Q 40.921875 74.21875 44.703125 73.484375 
Q 48.484375 72.75 52.59375 71.296875 
z
" id="DejaVuSans-54"/>
      </defs>
      <g transform="translate(41.5 245.719219)scale(0.1 -0.1)">
       <use transform="translate(0 0.765625)" xlink:href="#DejaVuSans-49"/>
       <use transform="translate(63.623047 0.765625)" xlink:href="#DejaVuSans-48"/>
       <use transform="translate(128.203125 39.046875)scale(0.7)" xlink:href="#DejaVuSans-8722"/>
       <use transform="translate(186.855469 39.046875)scale(0.7)" xlink:href="#DejaVuSans-54"/>
      </g>
     </g>
    </g>
    <g id="ytick_5">
     <g id="line2d_21">
      <path clip-path="url(#p7a72941512)" d="M 72 194.4 
L 518.4 194.4 
" style="fill:none;stroke:#b0b0b0;stroke-linecap:square;stroke-width:0.8;"/>
     </g>
     <g id="line2d_22">
      <g>
       <use style="stroke:#000000;stroke-width:0.8;" x="72" xlink:href="#m8b5e8e7ace" y="194.4"/>
      </g>
     </g>
     <g id="text_12">
      <!-- $\mathdefault{10^{-4}}$ -->
      <g transform="translate(41.5 198.199219)scale(0.1 -0.1)">
       <use transform="translate(0 0.684375)" xlink:href="#DejaVuSans-49"/>
       <use transform="translate(63.623047 0.684375)" xlink:href="#DejaVuSans-48"/>
       <use transform="translate(128.203125 38.965625)scale(0.7)" xlink:href="#DejaVuSans-8722"/>
       <use transform="translate(186.855469 38.965625)scale(0.7)" xlink:href="#DejaVuSans-52"/>
      </g>
     </g>
    </g>
    <g id="ytick_6">
     <g id="line2d_23">
      <path clip-path="url(#p7a72941512)" d="M 72 146.88 
L 518.4 146.88 
" style="fill:none;stroke:#b0b0b0;stroke-linecap:square;stroke-width:0.8;"/>
     </g>
     <g id="line2d_24">
      <g>
       <use style="stroke:#000000;stroke-width:0.8;" x="72" xlink:href="#m8b5e8e7ace" y="146.88"/>
      </g>
     </g>
     <g id="text_13">
      <!-- $\mathdefault{10^{-2}}$ -->
      <g transform="translate(41.5 150.679219)scale(0.1 -0.1)">
       <use transform="translate(0 0.765625)" xlink:href="#DejaVuSans-49"/>
       <use transform="translate(63.623047 0.765625)" xlink:href="#DejaVuSans-48"/>
       <use transform="translate(128.203125 39.046875)scale(0.7)" xlink:href="#DejaVuSans-8722"/>
       <use transform="translate(186.855469 39.046875)scale(0.7)" xlink:href="#DejaVuSans-50"/>
      </g>
     </g>
    </g>
    <g id="ytick_7">
     <g id="line2d_25">
      <path clip-path="url(#p7a72941512)" d="M 72 99.36 
L 518.4 99.36 
" style="fill:none;stroke:#b0b0b0;stroke-linecap:square;stroke-width:0.8;"/>
     </g>
     <g id="line2d_26">
      <g>
       <use style="stroke:#000000;stroke-width:0.8;" x="72" xlink:href="#m8b5e8e7ace" y="99.36"/>
      </g>
     </g>
     <g id="text_14">
      <!-- $\mathdefault{10^{0}}$ -->
      <g transform="translate(47.4 103.159219)scale(0.1 -0.1)">
       <use transform="translate(0 0.765625)" xlink:href="#DejaVuSans-49"/>
       <use transform="translate(63.623047 0.765625)" xlink:href="#DejaVuSans-48"/>
       <use transform="translate(128.203125 39.046875)scale(0.7)" xlink:href="#DejaVuSans-48"/>
      </g>
     </g>
    </g>
    <g id="ytick_8">
     <g id="line2d_27">
      <path clip-path="url(#p7a72941512)" d="M 72 51.84 
L 518.4 51.84 
" style="fill:none;stroke:#b0b0b0;stroke-linecap:square;stroke-width:0.8;"/>
     </g>
     <g id="line2d_28">
      <g>
       <use style="stroke:#000000;stroke-width:0.8;" x="72" xlink:href="#m8b5e8e7ace" y="51.84"/>
      </g>
     </g>
     <g id="text_15">
      <!-- $\mathdefault{10^{2}}$ -->
      <g transform="translate(47.4 55.639219)scale(0.1 -0.1)">
       <use transform="translate(0 0.765625)" xlink:href="#DejaVuSans-49"/>
       <use transform="translate(63.623047 0.765625)" xlink:href="#DejaVuSans-48"/>
       <use transform="translate(128.203125 39.046875)scale(0.7)" xlink:href="#DejaVuSans-50"/>
      </g>
     </g>
    </g>
    <g id="text_16">
     <!-- Integrated Squared Error -->
     <defs>
      <path d="M 45.40625 27.984375 
Q 45.40625 37.75 41.375 43.109375 
Q 37.359375 48.484375 30.078125 48.484375 
Q 22.859375 48.484375 18.828125 43.109375 
Q 14.796875 37.75 14.796875 27.984375 
Q 14.796875 18.265625 18.828125 12.890625 
Q 22.859375 7.515625 30.078125 7.515625 
Q 37.359375 7.515625 41.375 12.890625 
Q 45.40625 18.265625 45.40625 27.984375 
z
M 54.390625 6.78125 
Q 54.390625 -7.171875 48.1875 -13.984375 
Q 42 -20.796875 29.203125 -20.796875 
Q 24.46875 -20.796875 20.265625 -20.09375 
Q 16.0625 -19.390625 12.109375 -17.921875 
L 12.109375 -9.1875 
Q 16.0625 -11.328125 19.921875 -12.34375 
Q 23.78125 -13.375 27.78125 -13.375 
Q 36.625 -13.375 41.015625 -8.765625 
Q 45.40625 -4.15625 45.40625 5.171875 
L 45.40625 9.625 
Q 42.625 4.78125 38.28125 2.390625 
Q 33.9375 0 27.875 0 
Q 17.828125 0 11.671875 7.65625 
Q 5.515625 15.328125 5.515625 27.984375 
Q 5.515625 40.671875 11.671875 48.328125 
Q 17.828125 56 27.875 56 
Q 33.9375 56 38.28125 53.609375 
Q 42.625 51.21875 45.40625 46.390625 
L 45.40625 54.6875 
L 54.390625 54.6875 
z
" id="DejaVuSans-103"/>
      <path d="M 45.40625 46.390625 
L 45.40625 75.984375 
L 54.390625 75.984375 
L 54.390625 0 
L 45.40625 0 
L 45.40625 8.203125 
Q 42.578125 3.328125 38.25 0.953125 
Q 33.9375 -1.421875 27.875 -1.421875 
Q 17.96875 -1.421875 11.734375 6.484375 
Q 5.515625 14.40625 5.515625 27.296875 
Q 5.515625 40.1875 11.734375 48.09375 
Q 17.96875 56 27.875 56 
Q 33.9375 56 38.25 53.625 
Q 42.578125 51.265625 45.40625 46.390625 
z
M 14.796875 27.296875 
Q 14.796875 17.390625 18.875 11.75 
Q 22.953125 6.109375 30.078125 6.109375 
Q 37.203125 6.109375 41.296875 11.75 
Q 45.40625 17.390625 45.40625 27.296875 
Q 45.40625 37.203125 41.296875 42.84375 
Q 37.203125 48.484375 30.078125 48.484375 
Q 22.953125 48.484375 18.875 42.84375 
Q 14.796875 37.203125 14.796875 27.296875 
z
" id="DejaVuSans-100"/>
      <path id="DejaVuSans-32"/>
      <path d="M 53.515625 70.515625 
L 53.515625 60.890625 
Q 47.90625 63.578125 42.921875 64.890625 
Q 37.9375 66.21875 33.296875 66.21875 
Q 25.25 66.21875 20.875 63.09375 
Q 16.5 59.96875 16.5 54.203125 
Q 16.5 49.359375 19.40625 46.890625 
Q 22.3125 44.4375 30.421875 42.921875 
L 36.375 41.703125 
Q 47.40625 39.59375 52.65625 34.296875 
Q 57.90625 29 57.90625 20.125 
Q 57.90625 9.515625 50.796875 4.046875 
Q 43.703125 -1.421875 29.984375 -1.421875 
Q 24.8125 -1.421875 18.96875 -0.25 
Q 13.140625 0.921875 6.890625 3.21875 
L 6.890625 13.375 
Q 12.890625 10.015625 18.65625 8.296875 
Q 24.421875 6.59375 29.984375 6.59375 
Q 38.421875 6.59375 43.015625 9.90625 
Q 47.609375 13.234375 47.609375 19.390625 
Q 47.609375 24.75 44.3125 27.78125 
Q 41.015625 30.8125 33.5 32.328125 
L 27.484375 33.5 
Q 16.453125 35.6875 11.515625 40.375 
Q 6.59375 45.0625 6.59375 53.421875 
Q 6.59375 63.09375 13.40625 68.65625 
Q 20.21875 74.21875 32.171875 74.21875 
Q 37.3125 74.21875 42.625 73.28125 
Q 47.953125 72.359375 53.515625 70.515625 
z
" id="DejaVuSans-83"/>
      <path d="M 14.796875 27.296875 
Q 14.796875 17.390625 18.875 11.75 
Q 22.953125 6.109375 30.078125 6.109375 
Q 37.203125 6.109375 41.296875 11.75 
Q 45.40625 17.390625 45.40625 27.296875 
Q 45.40625 37.203125 41.296875 42.84375 
Q 37.203125 48.484375 30.078125 48.484375 
Q 22.953125 48.484375 18.875 42.84375 
Q 14.796875 37.203125 14.796875 27.296875 
z
M 45.40625 8.203125 
Q 42.578125 3.328125 38.25 0.953125 
Q 33.9375 -1.421875 27.875 -1.421875 
Q 17.96875 -1.421875 11.734375 6.484375 
Q 5.515625 14.40625 5.515625 27.296875 
Q 5.515625 40.1875 11.734375 48.09375 
Q 17.96875 56 27.875 56 
Q 33.9375 56 38.25 53.625 
Q 42.578125 51.265625 45.40625 46.390625 
L 45.40625 54.6875 
L 54.390625 54.6875 
L 54.390625 -20.796875 
L 45.40625 -20.796875 
z
" id="DejaVuSans-113"/>
      <path d="M 8.5 21.578125 
L 8.5 54.6875 
L 17.484375 54.6875 
L 17.484375 21.921875 
Q 17.484375 14.15625 20.5 10.265625 
Q 23.53125 6.390625 29.59375 6.390625 
Q 36.859375 6.390625 41.078125 11.03125 
Q 45.3125 15.671875 45.3125 23.6875 
L 45.3125 54.6875 
L 54.296875 54.6875 
L 54.296875 0 
L 45.3125 0 
L 45.3125 8.40625 
Q 42.046875 3.421875 37.71875 1 
Q 33.40625 -1.421875 27.6875 -1.421875 
Q 18.265625 -1.421875 13.375 4.4375 
Q 8.5 10.296875 8.5 21.578125 
z
M 31.109375 56 
z
" id="DejaVuSans-117"/>
      <path d="M 9.8125 72.90625 
L 55.90625 72.90625 
L 55.90625 64.59375 
L 19.671875 64.59375 
L 19.671875 43.015625 
L 54.390625 43.015625 
L 54.390625 34.71875 
L 19.671875 34.71875 
L 19.671875 8.296875 
L 56.78125 8.296875 
L 56.78125 0 
L 9.8125 0 
z
" id="DejaVuSans-69"/>
     </defs>
     <g transform="translate(31.020312 280.483437)rotate(-90)scale(0.1 -0.1)">
      <use xlink:href="#DejaVuSans-73"/>
      <use x="29.492188" xlink:href="#DejaVuSans-110"/>
      <use x="92.871094" xlink:href="#DejaVuSans-116"/>
      <use x="132.080078" xlink:href="#DejaVuSans-101"/>
      <use x="193.603516" xlink:href="#DejaVuSans-103"/>
      <use x="257.080078" xlink:href="#DejaVuSans-114"/>
      <use x="298.193359" xlink:href="#DejaVuSans-97"/>
      <use x="359.472656" xlink:href="#DejaVuSans-116"/>
      <use x="398.681641" xlink:href="#DejaVuSans-101"/>
      <use x="460.205078" xlink:href="#DejaVuSans-100"/>
      <use x="523.681641" xlink:href="#DejaVuSans-32"/>
      <use x="555.46875" xlink:href="#DejaVuSans-83"/>
      <use x="618.945312" xlink:href="#DejaVuSans-113"/>
      <use x="682.421875" xlink:href="#DejaVuSans-117"/>
      <use x="745.800781" xlink:href="#DejaVuSans-97"/>
      <use x="807.080078" xlink:href="#DejaVuSans-114"/>
      <use x="845.943359" xlink:href="#DejaVuSans-101"/>
      <use x="907.466797" xlink:href="#DejaVuSans-100"/>
      <use x="970.943359" xlink:href="#DejaVuSans-32"/>
      <use x="1002.730469" xlink:href="#DejaVuSans-69"/>
      <use x="1065.914062" xlink:href="#DejaVuSans-114"/>
      <use x="1105.277344" xlink:href="#DejaVuSans-114"/>
      <use x="1144.140625" xlink:href="#DejaVuSans-111"/>
      <use x="1205.322266" xlink:href="#DejaVuSans-114"/>
     </g>
    </g>
   </g>
   <g id="line2d_29">
    <path clip-path="url(#p7a72941512)" d="M 72 97.45422 
L 80.928 98.215127 
L 89.856 97.167816 
L 98.784 96.83164 
L 107.712 96.808978 
L 116.64 96.475781 
L 125.568 95.174821 
L 134.496 92.668557 
L 143.424 93.019556 
L 152.352 93.039123 
L 161.28 92.552425 
L 170.208 91.657278 
L 179.136 92.47609 
L 188.064 91.610052 
L 196.992 91.487172 
L 205.92 91.916635 
L 214.848 92.368059 
L 223.776 91.895379 
L 232.704 92.692605 
L 241.632 92.651321 
L 250.56 92.986729 
L 259.488 92.866926 
L 268.416 92.847798 
L 277.344 92.789449 
L 286.272 92.970871 
L 295.2 92.951851 
L 304.128 92.655267 
L 313.056 93.166655 
L 321.984 90.886012 
L 330.912 93.901054 
L 339.84 91.651448 
L 348.768 91.475943 
L 357.696 91.65603 
L 366.624 91.995303 
L 375.552 92.132603 
L 384.48 92.251624 
L 393.408 93.712004 
L 402.336 92.25221 
L 411.264 91.917146 
L 420.192 91.610298 
L 429.12 92.546574 
L 438.048 91.268709 
L 446.976 92.628315 
L 455.904 91.030495 
L 464.832 91.459833 
L 473.76 90.34093 
L 482.688 90.263185 
L 491.616 92.694244 
L 500.544 90.928857 
L 509.472 90.582225 
L 518.4 89.798327 
" style="fill:none;stroke:#1f77b4;stroke-linecap:square;stroke-width:1.5;"/>
   </g>
   <g id="line2d_30">
    <path clip-path="url(#p7a72941512)" d="M 72 94.249713 
L 80.928 98.354181 
L 89.856 99.163037 
L 98.784 99.969969 
L 107.712 109.801261 
L 116.64 119.77383 
L 125.568 127.597404 
L 134.496 134.033919 
L 143.424 141.499444 
L 152.352 154.156839 
L 161.28 165.581014 
L 170.208 171.712762 
L 179.136 185.60083 
L 188.064 198.324824 
L 196.992 206.783496 
L 205.92 227.901525 
L 214.848 240.131936 
L 223.776 248.591655 
L 232.704 256.328248 
L 241.632 265.995055 
L 250.56 276.120959 
L 259.488 282.014037 
L 268.416 283.919222 
L 277.344 283.678352 
L 286.272 282.808443 
L 295.2 283.09316 
L 304.128 284.364816 
L 313.056 284.577902 
L 321.984 285.879356 
L 330.912 291.505814 
L 339.84 306.128386 
L 348.768 313.388718 
L 357.696 313.557823 
L 366.624 319.018778 
L 375.552 320.218766 
L 384.48 322.702415 
L 393.408 324.151739 
L 402.336 325.043225 
L 411.264 328.088015 
L 420.192 330.690401 
L 429.12 333.626191 
L 438.048 337.010961 
L 446.976 339.13512 
L 455.904 340.762029 
L 464.832 341.544462 
L 473.76 342.752952 
L 482.688 343.282898 
L 491.616 344.515083 
L 500.544 344.683456 
L 509.472 345.321061 
L 518.4 345.751729 
" style="fill:none;stroke:#ff7f0e;stroke-linecap:square;stroke-width:1.5;"/>
   </g>
   <g id="line2d_31">
    <path clip-path="url(#p7a72941512)" d="M 72 96.121986 
L 80.928 97.750614 
L 89.856 102.563403 
L 98.784 113.558572 
L 107.712 123.756926 
L 116.64 125.378479 
L 125.568 126.859098 
L 134.496 129.452403 
L 143.424 131.277254 
L 152.352 132.561179 
L 161.28 133.659631 
L 170.208 133.896573 
L 179.136 134.185202 
L 188.064 134.327131 
L 196.992 134.673826 
L 205.92 135.341835 
L 214.848 135.976234 
L 223.776 136.950423 
L 232.704 138.80653 
L 241.632 140.38746 
L 250.56 141.98956 
L 259.488 143.187813 
L 268.416 144.861358 
L 277.344 146.136817 
L 286.272 146.891206 
L 295.2 147.027778 
L 304.128 147.409262 
L 313.056 147.854211 
L 321.984 147.967282 
L 330.912 148.317567 
L 339.84 148.728203 
L 348.768 149.12981 
L 357.696 149.487188 
L 366.624 149.809802 
L 375.552 150.286546 
L 384.48 150.668782 
L 393.408 150.943705 
L 402.336 151.281812 
L 411.264 151.705693 
L 420.192 152.005739 
L 429.12 152.247928 
L 438.048 153.223272 
L 446.976 154.14206 
L 455.904 155.441916 
L 464.832 157.219679 
L 473.76 158.71749 
L 482.688 160.167476 
L 491.616 160.894943 
L 500.544 161.537503 
L 509.472 162.305152 
L 518.4 162.592541 
" style="fill:none;stroke:#2ca02c;stroke-linecap:square;stroke-width:1.5;"/>
   </g>
   <g id="line2d_32">
    <path clip-path="url(#p7a72941512)" d="M 72 96.749716 
L 80.928 95.978172 
L 89.856 98.864422 
L 98.784 103.644373 
L 107.712 114.099489 
L 116.64 120.412769 
L 125.568 122.761351 
L 134.496 124.780783 
L 143.424 125.335386 
L 152.352 126.937039 
L 161.28 127.071091 
L 170.208 128.227575 
L 179.136 129.965244 
L 188.064 132.097516 
L 196.992 134.009433 
L 205.92 137.203661 
L 214.848 138.329562 
L 223.776 139.344926 
L 232.704 141.151523 
L 241.632 143.369746 
L 250.56 149.145313 
L 259.488 151.035755 
L 268.416 152.739497 
L 277.344 153.543803 
L 286.272 154.077698 
L 295.2 155.192071 
L 304.128 156.986047 
L 313.056 163.882063 
L 321.984 167.238442 
L 330.912 169.681558 
L 339.84 171.818919 
L 348.768 177.236996 
L 357.696 187.836836 
L 366.624 204.587079 
L 375.552 211.440597 
L 384.48 212.606415 
L 393.408 214.809867 
L 402.336 215.582232 
L 411.264 216.189157 
L 420.192 217.152389 
L 429.12 217.823725 
L 438.048 219.177113 
L 446.976 220.168536 
L 455.904 221.429516 
L 464.832 222.002046 
L 473.76 222.689077 
L 482.688 223.875183 
L 491.616 228.69459 
L 500.544 238.158388 
L 509.472 244.738132 
L 518.4 249.536734 
" style="fill:none;stroke:#d62728;stroke-linecap:square;stroke-width:1.5;"/>
   </g>
   <g id="line2d_33">
    <path clip-path="url(#p7a72941512)" d="M 72 93.455737 
L 80.928 94.28363 
L 89.856 97.360078 
L 98.784 100.72041 
L 107.712 109.536285 
L 116.64 121.481703 
L 125.568 125.124051 
L 134.496 128.547277 
L 143.424 132.07521 
L 152.352 132.959783 
L 161.28 133.228975 
L 170.208 134.652662 
L 179.136 134.904867 
L 188.064 136.698904 
L 196.992 137.353472 
L 205.92 138.324839 
L 214.848 139.558218 
L 223.776 142.897091 
L 232.704 145.261371 
L 241.632 148.025011 
L 250.56 152.270967 
L 259.488 157.748592 
L 268.416 167.349471 
L 277.344 175.28785 
L 286.272 182.75986 
L 295.2 197.883599 
L 304.128 210.914928 
L 313.056 213.970669 
L 321.984 216.80965 
L 330.912 223.466292 
L 339.84 229.348612 
L 348.768 234.758815 
L 357.696 238.230633 
L 366.624 240.589289 
L 375.552 241.857959 
L 384.48 243.61632 
L 393.408 245.780181 
L 402.336 247.540186 
L 411.264 247.880346 
L 420.192 249.629981 
L 429.12 249.854602 
L 438.048 249.761059 
L 446.976 249.662596 
L 455.904 251.936796 
L 464.832 253.080233 
L 473.76 253.590548 
L 482.688 254.788062 
L 491.616 255.021305 
L 500.544 255.373031 
L 509.472 255.359506 
L 518.4 255.696667 
" style="fill:none;stroke:#9467bd;stroke-linecap:square;stroke-width:1.5;"/>
   </g>
   <g id="line2d_34">
    <path clip-path="url(#p7a72941512)" d="M 72 96.550124 
L 80.928 96.528855 
L 89.856 100.40663 
L 98.784 103.116682 
L 107.712 109.513553 
L 116.64 117.964035 
L 125.568 121.359224 
L 134.496 125.397996 
L 143.424 130.497796 
L 152.352 149.722151 
L 161.28 161.665479 
L 170.208 174.575304 
L 179.136 186.264929 
L 188.064 198.850746 
L 196.992 207.614949 
L 205.92 225.658812 
L 214.848 234.09572 
L 223.776 245.351562 
L 232.704 252.616842 
L 241.632 257.383713 
L 250.56 267.889941 
L 259.488 276.422336 
L 268.416 277.146445 
L 277.344 275.695066 
L 286.272 278.044747 
L 295.2 278.629178 
L 304.128 278.679567 
L 313.056 278.763856 
L 321.984 279.938178 
L 330.912 286.250156 
L 339.84 300.110893 
L 348.768 310.283092 
L 357.696 315.862342 
L 366.624 319.20226 
L 375.552 321.362813 
L 384.48 321.453773 
L 393.408 325.349198 
L 402.336 326.427559 
L 411.264 329.351865 
L 420.192 332.156132 
L 429.12 336.908943 
L 438.048 338.767381 
L 446.976 341.024567 
L 455.904 342.30063 
L 464.832 343.486277 
L 473.76 344.202897 
L 482.688 344.235551 
L 491.616 343.527362 
L 500.544 344.743855 
L 509.472 344.31551 
L 518.4 345.006823 
" style="fill:none;stroke:#8c564b;stroke-linecap:square;stroke-width:1.5;"/>
   </g>
   <g id="line2d_35">
    <path clip-path="url(#p7a72941512)" d="M 72 96.632475 
L 80.928 96.89973 
L 89.856 96.380839 
L 98.784 94.999861 
L 107.712 93.801624 
L 116.64 92.522187 
L 125.568 91.58668 
L 134.496 91.045336 
L 143.424 91.117233 
L 152.352 90.522189 
L 161.28 90.122203 
L 170.208 89.831727 
L 179.136 90.641277 
L 188.064 91.295255 
L 196.992 91.003319 
L 205.92 91.36436 
L 214.848 91.37044 
L 223.776 91.214647 
L 232.704 91.050848 
L 241.632 91.197167 
L 250.56 91.285613 
L 259.488 91.334218 
L 268.416 91.741864 
L 277.344 91.504074 
L 286.272 91.646529 
L 295.2 91.392173 
L 304.128 91.48618 
L 313.056 91.315797 
L 321.984 91.249261 
L 330.912 91.124113 
L 339.84 91.41393 
L 348.768 91.274799 
L 357.696 91.368314 
L 366.624 91.168396 
L 375.552 91.560747 
L 384.48 91.798688 
L 393.408 92.081416 
L 402.336 92.028704 
L 411.264 92.150113 
L 420.192 92.115206 
L 429.12 92.257076 
L 438.048 92.073689 
L 446.976 92.202281 
L 455.904 92.088539 
L 464.832 92.260263 
L 473.76 92.098676 
L 482.688 92.187757 
L 491.616 92.164397 
L 500.544 92.266595 
L 509.472 92.103737 
L 518.4 92.226308 
" style="fill:none;stroke:#e377c2;stroke-linecap:square;stroke-width:1.5;"/>
   </g>
   <g id="patch_3">
    <path d="M 72 384.48 
L 72 51.84 
" style="fill:none;stroke:#000000;stroke-linecap:square;stroke-linejoin:miter;stroke-width:0.8;"/>
   </g>
   <g id="patch_4">
    <path d="M 518.4 384.48 
L 518.4 51.84 
" style="fill:none;stroke:#000000;stroke-linecap:square;stroke-linejoin:miter;stroke-width:0.8;"/>
   </g>
   <g id="patch_5">
    <path d="M 72 384.48 
L 518.4 384.48 
" style="fill:none;stroke:#000000;stroke-linecap:square;stroke-linejoin:miter;stroke-width:0.8;"/>
   </g>
   <g id="patch_6">
    <path d="M 72 51.84 
L 518.4 51.84 
" style="fill:none;stroke:#000000;stroke-linecap:square;stroke-linejoin:miter;stroke-width:0.8;"/>
   </g>
   <g id="legend_1">
    <g id="patch_7">
     <path d="M 79 379.48 
L 165.804688 379.48 
Q 167.804688 379.48 167.804688 377.48 
L 167.804688 275.733125 
Q 167.804688 273.733125 165.804688 273.733125 
L 79 273.733125 
Q 77 273.733125 77 275.733125 
L 77 377.48 
Q 77 379.48 79 379.48 
z
" style="fill:#ffffff;opacity:0.8;stroke:#cccccc;stroke-linejoin:miter;"/>
    </g>
    <g id="line2d_36">
     <path d="M 81 281.831563 
L 101 281.831563 
" style="fill:none;stroke:#1f77b4;stroke-linecap:square;stroke-width:1.5;"/>
    </g>
    <g id="line2d_37"/>
    <g id="text_17">
     <!-- Constant -->
     <defs>
      <path d="M 64.40625 67.28125 
L 64.40625 56.890625 
Q 59.421875 61.53125 53.78125 63.8125 
Q 48.140625 66.109375 41.796875 66.109375 
Q 29.296875 66.109375 22.65625 58.46875 
Q 16.015625 50.828125 16.015625 36.375 
Q 16.015625 21.96875 22.65625 14.328125 
Q 29.296875 6.6875 41.796875 6.6875 
Q 48.140625 6.6875 53.78125 8.984375 
Q 59.421875 11.28125 64.40625 15.921875 
L 64.40625 5.609375 
Q 59.234375 2.09375 53.4375 0.328125 
Q 47.65625 -1.421875 41.21875 -1.421875 
Q 24.65625 -1.421875 15.125 8.703125 
Q 5.609375 18.84375 5.609375 36.375 
Q 5.609375 53.953125 15.125 64.078125 
Q 24.65625 74.21875 41.21875 74.21875 
Q 47.75 74.21875 53.53125 72.484375 
Q 59.328125 70.75 64.40625 67.28125 
z
" id="DejaVuSans-67"/>
      <path d="M 44.28125 53.078125 
L 44.28125 44.578125 
Q 40.484375 46.53125 36.375 47.5 
Q 32.28125 48.484375 27.875 48.484375 
Q 21.1875 48.484375 17.84375 46.4375 
Q 14.5 44.390625 14.5 40.28125 
Q 14.5 37.15625 16.890625 35.375 
Q 19.28125 33.59375 26.515625 31.984375 
L 29.59375 31.296875 
Q 39.15625 29.25 43.1875 25.515625 
Q 47.21875 21.78125 47.21875 15.09375 
Q 47.21875 7.46875 41.1875 3.015625 
Q 35.15625 -1.421875 24.609375 -1.421875 
Q 20.21875 -1.421875 15.453125 -0.5625 
Q 10.6875 0.296875 5.421875 2 
L 5.421875 11.28125 
Q 10.40625 8.6875 15.234375 7.390625 
Q 20.0625 6.109375 24.8125 6.109375 
Q 31.15625 6.109375 34.5625 8.28125 
Q 37.984375 10.453125 37.984375 14.40625 
Q 37.984375 18.0625 35.515625 20.015625 
Q 33.0625 21.96875 24.703125 23.78125 
L 21.578125 24.515625 
Q 13.234375 26.265625 9.515625 29.90625 
Q 5.8125 33.546875 5.8125 39.890625 
Q 5.8125 47.609375 11.28125 51.796875 
Q 16.75 56 26.8125 56 
Q 31.78125 56 36.171875 55.265625 
Q 40.578125 54.546875 44.28125 53.078125 
z
" id="DejaVuSans-115"/>
     </defs>
     <g transform="translate(109 285.331563)scale(0.1 -0.1)">
      <use xlink:href="#DejaVuSans-67"/>
      <use x="69.824219" xlink:href="#DejaVuSans-111"/>
      <use x="131.005859" xlink:href="#DejaVuSans-110"/>
      <use x="194.384766" xlink:href="#DejaVuSans-115"/>
      <use x="246.484375" xlink:href="#DejaVuSans-116"/>
      <use x="285.693359" xlink:href="#DejaVuSans-97"/>
      <use x="346.972656" xlink:href="#DejaVuSans-110"/>
      <use x="410.351562" xlink:href="#DejaVuSans-116"/>
     </g>
    </g>
    <g id="line2d_38">
     <path d="M 81 296.509688 
L 101 296.509688 
" style="fill:none;stroke:#ff7f0e;stroke-linecap:square;stroke-width:1.5;"/>
    </g>
    <g id="line2d_39"/>
    <g id="text_18">
     <!-- RBF -->
     <defs>
      <path d="M 44.390625 34.1875 
Q 47.5625 33.109375 50.5625 29.59375 
Q 53.5625 26.078125 56.59375 19.921875 
L 66.609375 0 
L 56 0 
L 46.6875 18.703125 
Q 43.0625 26.03125 39.671875 28.421875 
Q 36.28125 30.8125 30.421875 30.8125 
L 19.671875 30.8125 
L 19.671875 0 
L 9.8125 0 
L 9.8125 72.90625 
L 32.078125 72.90625 
Q 44.578125 72.90625 50.734375 67.671875 
Q 56.890625 62.453125 56.890625 51.90625 
Q 56.890625 45.015625 53.6875 40.46875 
Q 50.484375 35.9375 44.390625 34.1875 
z
M 19.671875 64.796875 
L 19.671875 38.921875 
L 32.078125 38.921875 
Q 39.203125 38.921875 42.84375 42.21875 
Q 46.484375 45.515625 46.484375 51.90625 
Q 46.484375 58.296875 42.84375 61.546875 
Q 39.203125 64.796875 32.078125 64.796875 
z
" id="DejaVuSans-82"/>
      <path d="M 19.671875 34.8125 
L 19.671875 8.109375 
L 35.5 8.109375 
Q 43.453125 8.109375 47.28125 11.40625 
Q 51.125 14.703125 51.125 21.484375 
Q 51.125 28.328125 47.28125 31.5625 
Q 43.453125 34.8125 35.5 34.8125 
z
M 19.671875 64.796875 
L 19.671875 42.828125 
L 34.28125 42.828125 
Q 41.5 42.828125 45.03125 45.53125 
Q 48.578125 48.25 48.578125 53.8125 
Q 48.578125 59.328125 45.03125 62.0625 
Q 41.5 64.796875 34.28125 64.796875 
z
M 9.8125 72.90625 
L 35.015625 72.90625 
Q 46.296875 72.90625 52.390625 68.21875 
Q 58.5 63.53125 58.5 54.890625 
Q 58.5 48.1875 55.375 44.234375 
Q 52.25 40.28125 46.1875 39.3125 
Q 53.46875 37.75 57.5 32.78125 
Q 61.53125 27.828125 61.53125 20.40625 
Q 61.53125 10.640625 54.890625 5.3125 
Q 48.25 0 35.984375 0 
L 9.8125 0 
z
" id="DejaVuSans-66"/>
      <path d="M 9.8125 72.90625 
L 51.703125 72.90625 
L 51.703125 64.59375 
L 19.671875 64.59375 
L 19.671875 43.109375 
L 48.578125 43.109375 
L 48.578125 34.8125 
L 19.671875 34.8125 
L 19.671875 0 
L 9.8125 0 
z
" id="DejaVuSans-70"/>
     </defs>
     <g transform="translate(109 300.009688)scale(0.1 -0.1)">
      <use xlink:href="#DejaVuSans-82"/>
      <use x="69.482422" xlink:href="#DejaVuSans-66"/>
      <use x="138.085938" xlink:href="#DejaVuSans-70"/>
     </g>
    </g>
    <g id="line2d_40">
     <path d="M 81 311.187813 
L 101 311.187813 
" style="fill:none;stroke:#2ca02c;stroke-linecap:square;stroke-width:1.5;"/>
    </g>
    <g id="line2d_41"/>
    <g id="text_19">
     <!-- Matrn-1/2 -->
     <defs>
      <path d="M 9.8125 72.90625 
L 24.515625 72.90625 
L 43.109375 23.296875 
L 61.8125 72.90625 
L 76.515625 72.90625 
L 76.515625 0 
L 66.890625 0 
L 66.890625 64.015625 
L 48.09375 14.015625 
L 38.1875 14.015625 
L 19.390625 64.015625 
L 19.390625 0 
L 9.8125 0 
z
" id="DejaVuSans-77"/>
      <path d="M 56.203125 29.59375 
L 56.203125 25.203125 
L 14.890625 25.203125 
Q 15.484375 15.921875 20.484375 11.0625 
Q 25.484375 6.203125 34.421875 6.203125 
Q 39.59375 6.203125 44.453125 7.46875 
Q 49.3125 8.734375 54.109375 11.28125 
L 54.109375 2.78125 
Q 49.265625 0.734375 44.1875 -0.34375 
Q 39.109375 -1.421875 33.890625 -1.421875 
Q 20.796875 -1.421875 13.15625 6.1875 
Q 5.515625 13.8125 5.515625 26.8125 
Q 5.515625 40.234375 12.765625 48.109375 
Q 20.015625 56 32.328125 56 
Q 43.359375 56 49.78125 48.890625 
Q 56.203125 41.796875 56.203125 29.59375 
z
M 47.21875 32.234375 
Q 47.125 39.59375 43.09375 43.984375 
Q 39.0625 48.390625 32.421875 48.390625 
Q 24.90625 48.390625 20.390625 44.140625 
Q 15.875 39.890625 15.1875 32.171875 
z
M 38.53125 79.984375 
L 48.25 79.984375 
L 32.34375 61.625 
L 24.859375 61.625 
z
" id="DejaVuSans-233"/>
      <path d="M 4.890625 31.390625 
L 31.203125 31.390625 
L 31.203125 23.390625 
L 4.890625 23.390625 
z
" id="DejaVuSans-45"/>
      <path d="M 25.390625 72.90625 
L 33.6875 72.90625 
L 8.296875 -9.28125 
L 0 -9.28125 
z
" id="DejaVuSans-47"/>
     </defs>
     <g transform="translate(109 314.687813)scale(0.1 -0.1)">
      <use xlink:href="#DejaVuSans-77"/>
      <use x="86.279297" xlink:href="#DejaVuSans-97"/>
      <use x="147.558594" xlink:href="#DejaVuSans-116"/>
      <use x="186.767578" xlink:href="#DejaVuSans-233"/>
      <use x="248.291016" xlink:href="#DejaVuSans-114"/>
      <use x="287.654297" xlink:href="#DejaVuSans-110"/>
      <use x="351.033203" xlink:href="#DejaVuSans-45"/>
      <use x="387.117188" xlink:href="#DejaVuSans-49"/>
      <use x="450.740234" xlink:href="#DejaVuSans-47"/>
      <use x="484.431641" xlink:href="#DejaVuSans-50"/>
     </g>
    </g>
    <g id="line2d_42">
     <path d="M 81 325.865938 
L 101 325.865938 
" style="fill:none;stroke:#d62728;stroke-linecap:square;stroke-width:1.5;"/>
    </g>
    <g id="line2d_43"/>
    <g id="text_20">
     <!-- Matrn-3/2 -->
     <g transform="translate(109 329.365938)scale(0.1 -0.1)">
      <use xlink:href="#DejaVuSans-77"/>
      <use x="86.279297" xlink:href="#DejaVuSans-97"/>
      <use x="147.558594" xlink:href="#DejaVuSans-116"/>
      <use x="186.767578" xlink:href="#DejaVuSans-233"/>
      <use x="248.291016" xlink:href="#DejaVuSans-114"/>
      <use x="287.654297" xlink:href="#DejaVuSans-110"/>
      <use x="351.033203" xlink:href="#DejaVuSans-45"/>
      <use x="387.117188" xlink:href="#DejaVuSans-51"/>
      <use x="450.740234" xlink:href="#DejaVuSans-47"/>
      <use x="484.431641" xlink:href="#DejaVuSans-50"/>
     </g>
    </g>
    <g id="line2d_44">
     <path d="M 81 340.544062 
L 101 340.544062 
" style="fill:none;stroke:#9467bd;stroke-linecap:square;stroke-width:1.5;"/>
    </g>
    <g id="line2d_45"/>
    <g id="text_21">
     <!-- Matrn-5/2 -->
     <g transform="translate(109 344.044062)scale(0.1 -0.1)">
      <use xlink:href="#DejaVuSans-77"/>
      <use x="86.279297" xlink:href="#DejaVuSans-97"/>
      <use x="147.558594" xlink:href="#DejaVuSans-116"/>
      <use x="186.767578" xlink:href="#DejaVuSans-233"/>
      <use x="248.291016" xlink:href="#DejaVuSans-114"/>
      <use x="287.654297" xlink:href="#DejaVuSans-110"/>
      <use x="351.033203" xlink:href="#DejaVuSans-45"/>
      <use x="387.117188" xlink:href="#DejaVuSans-53"/>
      <use x="450.740234" xlink:href="#DejaVuSans-47"/>
      <use x="484.431641" xlink:href="#DejaVuSans-50"/>
     </g>
    </g>
    <g id="line2d_46">
     <path d="M 81 355.222188 
L 101 355.222188 
" style="fill:none;stroke:#8c564b;stroke-linecap:square;stroke-width:1.5;"/>
    </g>
    <g id="line2d_47"/>
    <g id="text_22">
     <!-- RQ -->
     <defs>
      <path d="M 39.40625 66.21875 
Q 28.65625 66.21875 22.328125 58.203125 
Q 16.015625 50.203125 16.015625 36.375 
Q 16.015625 22.609375 22.328125 14.59375 
Q 28.65625 6.59375 39.40625 6.59375 
Q 50.140625 6.59375 56.421875 14.59375 
Q 62.703125 22.609375 62.703125 36.375 
Q 62.703125 50.203125 56.421875 58.203125 
Q 50.140625 66.21875 39.40625 66.21875 
z
M 53.21875 1.3125 
L 66.21875 -12.890625 
L 54.296875 -12.890625 
L 43.5 -1.21875 
Q 41.890625 -1.3125 41.03125 -1.359375 
Q 40.1875 -1.421875 39.40625 -1.421875 
Q 24.03125 -1.421875 14.8125 8.859375 
Q 5.609375 19.140625 5.609375 36.375 
Q 5.609375 53.65625 14.8125 63.9375 
Q 24.03125 74.21875 39.40625 74.21875 
Q 54.734375 74.21875 63.90625 63.9375 
Q 73.09375 53.65625 73.09375 36.375 
Q 73.09375 23.6875 67.984375 14.640625 
Q 62.890625 5.609375 53.21875 1.3125 
z
" id="DejaVuSans-81"/>
     </defs>
     <g transform="translate(109 358.722188)scale(0.1 -0.1)">
      <use xlink:href="#DejaVuSans-82"/>
      <use x="69.482422" xlink:href="#DejaVuSans-81"/>
     </g>
    </g>
    <g id="line2d_48">
     <path d="M 81 369.900313 
L 101 369.900313 
" style="fill:none;stroke:#e377c2;stroke-linecap:square;stroke-width:1.5;"/>
    </g>
    <g id="line2d_49"/>
    <g id="text_23">
     <!-- Dot Prod. -->
     <defs>
      <path d="M 19.671875 64.796875 
L 19.671875 8.109375 
L 31.59375 8.109375 
Q 46.6875 8.109375 53.6875 14.9375 
Q 60.6875 21.78125 60.6875 36.53125 
Q 60.6875 51.171875 53.6875 57.984375 
Q 46.6875 64.796875 31.59375 64.796875 
z
M 9.8125 72.90625 
L 30.078125 72.90625 
Q 51.265625 72.90625 61.171875 64.09375 
Q 71.09375 55.28125 71.09375 36.53125 
Q 71.09375 17.671875 61.125 8.828125 
Q 51.171875 0 30.078125 0 
L 9.8125 0 
z
" id="DejaVuSans-68"/>
      <path d="M 19.671875 64.796875 
L 19.671875 37.40625 
L 32.078125 37.40625 
Q 38.96875 37.40625 42.71875 40.96875 
Q 46.484375 44.53125 46.484375 51.125 
Q 46.484375 57.671875 42.71875 61.234375 
Q 38.96875 64.796875 32.078125 64.796875 
z
M 9.8125 72.90625 
L 32.078125 72.90625 
Q 44.34375 72.90625 50.609375 67.359375 
Q 56.890625 61.8125 56.890625 51.125 
Q 56.890625 40.328125 50.609375 34.8125 
Q 44.34375 29.296875 32.078125 29.296875 
L 19.671875 29.296875 
L 19.671875 0 
L 9.8125 0 
z
" id="DejaVuSans-80"/>
      <path d="M 10.6875 12.40625 
L 21 12.40625 
L 21 0 
L 10.6875 0 
z
" id="DejaVuSans-46"/>
     </defs>
     <g transform="translate(109 373.400313)scale(0.1 -0.1)">
      <use xlink:href="#DejaVuSans-68"/>
      <use x="77.001953" xlink:href="#DejaVuSans-111"/>
      <use x="138.183594" xlink:href="#DejaVuSans-116"/>
      <use x="177.392578" xlink:href="#DejaVuSans-32"/>
      <use x="209.179688" xlink:href="#DejaVuSans-80"/>
      <use x="267.732422" xlink:href="#DejaVuSans-114"/>
      <use x="306.595703" xlink:href="#DejaVuSans-111"/>
      <use x="367.777344" xlink:href="#DejaVuSans-100"/>
      <use x="431.253906" xlink:href="#DejaVuSans-46"/>
     </g>
    </g>
   </g>
  </g>
 </g>
 <defs>
  <clipPath id="p7a72941512">
   <rect height="332.64" width="446.4" x="72" y="51.84"/>
  </clipPath>
 </defs>
</svg>
