<?xml version="1.0" encoding="utf-8" standalone="no"?>
<!DOCTYPE svg PUBLIC "-//W3C//DTD SVG 1.1//EN"
  "http://www.w3.org/Graphics/SVG/1.1/DTD/svg11.dtd">
<!-- Created with matplotlib (https://matplotlib.org/) -->
<svg height="432pt" version="1.1" viewBox="0 0 576 432" width="576pt" xmlns="http://www.w3.org/2000/svg" xmlns:xlink="http://www.w3.org/1999/xlink">
 <defs>
  <style type="text/css">
*{stroke-linecap:butt;stroke-linejoin:round;}
  </style>
 </defs>
 <g id="figure_1">
  <g id="patch_1">
   <path d="M 0 432 
L 576 432 
L 576 0 
L 0 0 
z
" style="fill:#ffffff;"/>
  </g>
  <g id="axes_1">
   <g id="patch_2">
    <path d="M 72 384.48 
L 518.4 384.48 
L 518.4 51.84 
L 72 51.84 
z
" style="fill:#ffffff;"/>
   </g>
   <g id="PolyCollection_1">
    <path clip-path="url(#pbbaa67385a)" d="M 72 99.566257 
L 72 97.318265 
L 80.928 98.950607 
L 89.856 98.397997 
L 98.784 98.78435 
L 107.712 98.160448 
L 116.64 99.230715 
L 125.568 98.735031 
L 134.496 99.272878 
L 143.424 96.883655 
L 152.352 99.297267 
L 161.28 97.063473 
L 170.208 92.99787 
L 179.136 99.100234 
L 188.064 98.679135 
L 196.992 98.724895 
L 205.92 97.315019 
L 214.848 99.270448 
L 223.776 99.33547 
L 232.704 98.157806 
L 241.632 92.971177 
L 250.56 99.29797 
L 259.488 99.342532 
L 268.416 96.340098 
L 277.344 90.294741 
L 286.272 99.314573 
L 295.2 99.3469 
L 304.128 99.320496 
L 313.056 99.348484 
L 321.984 94.350833 
L 330.912 92.804623 
L 339.84 96.645444 
L 348.768 99.350886 
L 357.696 88.790973 
L 366.624 94.131949 
L 375.552 99.335561 
L 384.48 95.202943 
L 393.408 81.177896 
L 402.336 98.106214 
L 411.264 90.728175 
L 420.192 97.316579 
L 429.12 95.663371 
L 438.048 95.076042 
L 446.976 99.19007 
L 455.904 99.354806 
L 464.832 82.711276 
L 473.76 99.355207 
L 482.688 91.752166 
L 491.616 88.171602 
L 500.544 97.063473 
L 509.472 93.575742 
L 518.4 99.348091 
L 518.4 99.361203 
L 518.4 99.361203 
L 509.472 99.939857 
L 500.544 97.066884 
L 491.616 96.754055 
L 482.688 98.577362 
L 473.76 99.356031 
L 464.832 97.662817 
L 455.904 99.355671 
L 446.976 99.326119 
L 438.048 98.347425 
L 429.12 98.968259 
L 420.192 99.559757 
L 411.264 100.231991 
L 402.336 99.228277 
L 393.408 101.196766 
L 384.48 99.102532 
L 375.552 99.362469 
L 366.624 94.138608 
L 357.696 98.264751 
L 348.768 99.352039 
L 339.84 97.654011 
L 330.912 93.433026 
L 321.984 98.81896 
L 313.056 99.349786 
L 304.128 99.363991 
L 295.2 99.348291 
L 286.272 99.364589 
L 277.344 97.226712 
L 268.416 99.65869 
L 259.488 99.344145 
L 250.56 99.366266 
L 241.632 98.697883 
L 232.704 99.481446 
L 223.776 99.337396 
L 214.848 99.369047 
L 205.92 99.533989 
L 196.992 98.742566 
L 188.064 99.260259 
L 179.136 99.192229 
L 170.208 99.950814 
L 161.28 97.066884 
L 152.352 99.300354 
L 143.424 98.854763 
L 134.496 99.276521 
L 125.568 98.735031 
L 116.64 99.235151 
L 107.712 99.481183 
L 98.784 99.185461 
L 89.856 99.457182 
L 80.928 98.958391 
L 72 99.566257 
z
" style="fill:#1f77b4;fill-opacity:0.3;"/>
   </g>
   <g id="PolyCollection_2">
    <path clip-path="url(#pbbaa67385a)" d="M 72 103.694029 
L 72 99.224109 
L 80.928 102.786959 
L 89.856 103.362526 
L 98.784 99.421974 
L 107.712 99.43235 
L 116.64 99.442737 
L 125.568 99.442737 
L 134.496 99.442737 
L 143.424 99.442737 
L 152.352 99.442737 
L 161.28 99.442737 
L 170.208 99.442737 
L 179.136 99.442737 
L 188.064 99.442737 
L 196.992 99.442737 
L 205.92 99.442737 
L 214.848 99.442737 
L 223.776 99.442737 
L 232.704 99.442737 
L 241.632 99.442737 
L 250.56 99.442737 
L 259.488 99.442737 
L 268.416 99.442737 
L 277.344 99.442737 
L 286.272 99.442737 
L 295.2 99.442737 
L 304.128 99.442737 
L 313.056 99.442737 
L 321.984 99.442737 
L 330.912 99.442737 
L 339.84 99.442737 
L 348.768 99.442737 
L 357.696 99.442737 
L 366.624 99.442737 
L 375.552 99.442737 
L 384.48 99.442737 
L 393.408 99.442737 
L 402.336 99.442737 
L 411.264 99.442737 
L 420.192 99.442737 
L 429.12 99.442737 
L 438.048 99.442737 
L 446.976 99.442737 
L 455.904 99.442737 
L 464.832 99.442737 
L 473.76 99.442737 
L 482.688 99.442737 
L 491.616 99.442737 
L 500.544 99.442737 
L 509.472 99.442737 
L 518.4 99.442737 
L 518.4 99.442883 
L 518.4 99.442883 
L 509.472 99.442883 
L 500.544 99.442883 
L 491.616 99.442883 
L 482.688 99.442883 
L 473.76 99.442883 
L 464.832 99.442883 
L 455.904 99.442883 
L 446.976 99.442883 
L 438.048 99.442883 
L 429.12 99.442883 
L 420.192 99.442883 
L 411.264 99.442883 
L 402.336 99.442883 
L 393.408 99.442883 
L 384.48 99.442883 
L 375.552 99.442883 
L 366.624 99.442883 
L 357.696 99.442883 
L 348.768 99.442883 
L 339.84 99.442883 
L 330.912 99.442883 
L 321.984 99.442883 
L 313.056 99.442883 
L 304.128 99.442883 
L 295.2 99.442883 
L 286.272 99.442883 
L 277.344 99.442883 
L 268.416 99.442883 
L 259.488 99.442883 
L 250.56 99.442883 
L 241.632 99.442883 
L 232.704 99.442883 
L 223.776 99.442883 
L 214.848 99.442883 
L 205.92 99.442883 
L 196.992 99.442883 
L 188.064 99.442883 
L 179.136 99.442883 
L 170.208 99.442883 
L 161.28 99.442883 
L 152.352 99.442883 
L 143.424 99.442883 
L 134.496 99.442883 
L 125.568 99.442883 
L 116.64 99.442883 
L 107.712 99.432497 
L 98.784 99.422121 
L 89.856 110.854995 
L 80.928 110.018202 
L 72 103.694029 
z
" style="fill:#ff7f0e;fill-opacity:0.3;"/>
   </g>
   <g id="PolyCollection_3">
    <path clip-path="url(#pbbaa67385a)" d="M 72 111.061696 
L 72 100.877954 
L 80.928 108.709078 
L 89.856 108.529863 
L 98.784 115.135144 
L 107.712 115.135833 
L 116.64 115.137118 
L 125.568 115.137038 
L 134.496 121.129818 
L 143.424 121.13014 
L 152.352 121.130149 
L 161.28 121.130172 
L 170.208 121.130162 
L 179.136 121.130153 
L 188.064 121.130144 
L 196.992 121.130136 
L 205.92 127.350457 
L 214.848 127.350483 
L 223.776 127.350481 
L 232.704 127.35048 
L 241.632 127.350478 
L 250.56 127.350476 
L 259.488 127.350474 
L 268.416 127.350473 
L 277.344 127.350471 
L 286.272 127.35047 
L 295.2 127.350468 
L 304.128 127.350468 
L 313.056 127.350466 
L 321.984 127.350465 
L 330.912 127.350464 
L 339.84 127.350463 
L 348.768 133.791928 
L 357.696 133.79193 
L 366.624 133.79193 
L 375.552 133.791929 
L 384.48 133.791929 
L 393.408 133.791928 
L 402.336 133.791928 
L 411.264 133.791927 
L 420.192 133.791927 
L 429.12 133.791926 
L 438.048 135.295185 
L 446.976 135.244939 
L 455.904 135.201977 
L 464.832 135.165161 
L 473.76 135.133543 
L 482.688 135.106326 
L 491.616 135.082848 
L 500.544 135.062551 
L 509.472 135.044966 
L 518.4 135.0297 
L 518.4 147.407831 
L 518.4 147.407831 
L 509.472 147.387477 
L 500.544 147.364032 
L 491.616 147.336969 
L 482.688 147.305666 
L 473.76 147.269378 
L 464.832 147.227221 
L 455.904 147.178134 
L 446.976 147.120853 
L 438.048 147.053858 
L 429.12 145.241635 
L 420.192 145.241636 
L 411.264 145.241636 
L 402.336 145.241637 
L 393.408 145.241638 
L 384.48 145.241638 
L 375.552 145.241639 
L 366.624 145.24164 
L 357.696 145.24164 
L 348.768 145.241638 
L 339.84 136.653017 
L 330.912 136.653019 
L 321.984 136.65302 
L 313.056 136.653022 
L 304.128 136.653024 
L 295.2 136.653024 
L 286.272 136.653026 
L 277.344 136.653028 
L 268.416 136.65303 
L 259.488 136.653033 
L 250.56 136.653035 
L 241.632 136.653037 
L 232.704 136.65304 
L 223.776 136.653042 
L 214.848 136.653044 
L 205.92 136.653009 
L 196.992 128.359248 
L 188.064 128.359259 
L 179.136 128.359271 
L 170.208 128.359283 
L 161.28 128.359297 
L 152.352 128.359265 
L 143.424 128.359254 
L 134.496 128.358824 
L 125.568 121.521122 
L 116.64 121.521113 
L 107.712 121.521673 
L 98.784 121.515948 
L 89.856 117.952766 
L 80.928 117.424085 
L 72 111.061696 
z
" style="fill:#2ca02c;fill-opacity:0.3;"/>
   </g>
   <g id="PolyCollection_4">
    <path clip-path="url(#pbbaa67385a)" d="M 72 106.772716 
L 72 100.261812 
L 80.928 105.617916 
L 89.856 106.423959 
L 98.784 110.385114 
L 107.712 113.038529 
L 116.64 113.104757 
L 125.568 113.111082 
L 134.496 117.186032 
L 143.424 117.900723 
L 152.352 117.888354 
L 161.28 117.878716 
L 170.208 117.948435 
L 179.136 118.618676 
L 188.064 118.619946 
L 196.992 118.619719 
L 205.92 99.442164 
L 214.848 99.442164 
L 223.776 99.442164 
L 232.704 99.442164 
L 241.632 94.607381 
L 250.56 94.149675 
L 259.488 119.768149 
L 268.416 121.462803 
L 277.344 121.543515 
L 286.272 121.541974 
L 295.2 121.539529 
L 304.128 121.537415 
L 313.056 123.477702 
L 321.984 122.242039 
L 330.912 122.242819 
L 339.84 124.221962 
L 348.768 99.442164 
L 357.696 99.442164 
L 366.624 99.442164 
L 375.552 99.442164 
L 384.48 99.442164 
L 393.408 99.442164 
L 402.336 99.442164 
L 411.264 99.442164 
L 420.192 99.442164 
L 429.12 99.442164 
L 438.048 99.442164 
L 446.976 99.442164 
L 455.904 99.442164 
L 464.832 99.442164 
L 473.76 99.442164 
L 482.688 99.442164 
L 491.616 99.442164 
L 500.544 99.442164 
L 509.472 99.442164 
L 518.4 99.442164 
L 518.4 99.443679 
L 518.4 99.443679 
L 509.472 99.443679 
L 500.544 99.443679 
L 491.616 99.443679 
L 482.688 99.443679 
L 473.76 99.443679 
L 464.832 99.443679 
L 455.904 99.443679 
L 446.976 99.443679 
L 438.048 99.443679 
L 429.12 99.443679 
L 420.192 99.443679 
L 411.264 99.443679 
L 402.336 99.443679 
L 393.408 99.443679 
L 384.48 99.443679 
L 375.552 99.443679 
L 366.624 99.443679 
L 357.696 99.443679 
L 348.768 99.443679 
L 339.84 136.936597 
L 330.912 137.65814 
L 321.984 137.656831 
L 313.056 135.811677 
L 304.128 136.479353 
L 295.2 136.482872 
L 286.272 136.486945 
L 277.344 136.489517 
L 268.416 136.354164 
L 259.488 136.769171 
L 250.56 122.276278 
L 241.632 106.758888 
L 232.704 99.443679 
L 223.776 99.443679 
L 214.848 99.443679 
L 205.92 99.443679 
L 196.992 128.487112 
L 188.064 128.487317 
L 179.136 128.48521 
L 170.208 127.459482 
L 161.28 127.355112 
L 152.352 127.369604 
L 143.424 127.388347 
L 134.496 126.385864 
L 125.568 120.578628 
L 116.64 120.546295 
L 107.712 120.471947 
L 98.784 118.189549 
L 89.856 113.267964 
L 80.928 112.638021 
L 72 106.772716 
z
" style="fill:#d62728;fill-opacity:0.3;"/>
   </g>
   <g id="PolyCollection_5">
    <path clip-path="url(#pbbaa67385a)" d="M 72 106.369115 
L 72 99.571163 
L 80.928 104.700306 
L 89.856 105.057008 
L 98.784 107.139807 
L 107.712 108.850083 
L 116.64 109.084343 
L 125.568 109.124287 
L 134.496 99.442799 
L 143.424 99.442799 
L 152.352 99.442799 
L 161.28 99.442799 
L 170.208 96.658419 
L 179.136 96.444093 
L 188.064 96.443452 
L 196.992 96.44336 
L 205.92 95.978336 
L 214.848 95.949486 
L 223.776 95.957411 
L 232.704 95.963936 
L 241.632 95.95652 
L 250.56 95.825788 
L 259.488 95.827266 
L 268.416 95.828937 
L 277.344 95.783776 
L 286.272 95.780433 
L 295.2 95.781591 
L 304.128 95.782594 
L 313.056 95.783523 
L 321.984 95.56814 
L 330.912 95.567701 
L 339.84 95.56773 
L 348.768 95.107833 
L 357.696 95.10899 
L 366.624 95.112831 
L 375.552 95.116297 
L 384.48 95.118218 
L 393.408 95.113191 
L 402.336 95.115662 
L 411.264 95.118 
L 420.192 95.09297 
L 429.12 95.094765 
L 438.048 95.096498 
L 446.976 95.098076 
L 455.904 95.099644 
L 464.832 94.939202 
L 473.76 94.939608 
L 482.688 94.94018 
L 491.616 94.890015 
L 500.544 94.890499 
L 509.472 94.890971 
L 518.4 94.891419 
L 518.4 105.511307 
L 518.4 105.511307 
L 509.472 105.511905 
L 500.544 105.512533 
L 491.616 105.513179 
L 482.688 105.446292 
L 473.76 105.447054 
L 464.832 105.447596 
L 455.904 105.233673 
L 446.976 105.235765 
L 438.048 105.237869 
L 429.12 105.240179 
L 420.192 105.242572 
L 411.264 105.209199 
L 402.336 105.212317 
L 393.408 105.215611 
L 384.48 105.208908 
L 375.552 105.21147 
L 366.624 105.21609 
L 357.696 105.221212 
L 348.768 105.222755 
L 339.84 104.609559 
L 330.912 104.609598 
L 321.984 104.609012 
L 313.056 104.321835 
L 304.128 104.323074 
L 295.2 104.324411 
L 286.272 104.325955 
L 277.344 104.321498 
L 268.416 104.261283 
L 259.488 104.26351 
L 250.56 104.265482 
L 241.632 104.091172 
L 232.704 104.081285 
L 223.776 104.089985 
L 214.848 104.100552 
L 205.92 104.062085 
L 196.992 103.442052 
L 188.064 103.441929 
L 179.136 103.441075 
L 170.208 103.155307 
L 161.28 99.4428 
L 152.352 99.4428 
L 143.424 99.4428 
L 134.496 99.4428 
L 125.568 120.5651 
L 116.64 120.456843 
L 107.712 119.992656 
L 98.784 116.867845 
L 89.856 112.449827 
L 80.928 111.455007 
L 72 106.369115 
z
" style="fill:#9467bd;fill-opacity:0.3;"/>
   </g>
   <g id="PolyCollection_6">
    <path clip-path="url(#pbbaa67385a)" d="M 72 106.315347 
L 72 100.159643 
L 80.928 105.432711 
L 89.856 107.571289 
L 98.784 114.485327 
L 107.712 115.272454 
L 116.64 115.537753 
L 125.568 115.659759 
L 134.496 122.371531 
L 143.424 123.059354 
L 152.352 123.141743 
L 161.28 123.298626 
L 170.208 123.453788 
L 179.136 123.9693 
L 188.064 123.90904 
L 196.992 123.803855 
L 205.92 131.418478 
L 214.848 131.584543 
L 223.776 131.53437 
L 232.704 131.446231 
L 241.632 131.318754 
L 250.56 131.129786 
L 259.488 131.008451 
L 268.416 130.869665 
L 277.344 130.886057 
L 286.272 130.748566 
L 295.2 130.637711 
L 304.128 130.560821 
L 313.056 130.452556 
L 321.984 130.603779 
L 330.912 130.56441 
L 339.84 130.521693 
L 348.768 139.100536 
L 357.696 139.103756 
L 366.624 139.072126 
L 375.552 139.035932 
L 384.48 138.994307 
L 393.408 138.950929 
L 402.336 138.906229 
L 411.264 138.858819 
L 420.192 138.802019 
L 429.12 138.752389 
L 438.048 138.702311 
L 446.976 138.653237 
L 455.904 138.603666 
L 464.832 138.597853 
L 473.76 138.546842 
L 482.688 138.489262 
L 491.616 138.624482 
L 500.544 138.579498 
L 509.472 138.534124 
L 518.4 138.490003 
L 518.4 139.82189 
L 518.4 139.82189 
L 509.472 139.850131 
L 500.544 139.879061 
L 491.616 139.90677 
L 482.688 139.772712 
L 473.76 139.808847 
L 464.832 139.83977 
L 455.904 139.819506 
L 446.976 139.846928 
L 438.048 139.873833 
L 429.12 139.901053 
L 420.192 139.925704 
L 411.264 139.945209 
L 402.336 139.966928 
L 393.408 139.985318 
L 384.48 139.995789 
L 375.552 140.004667 
L 366.624 140.011237 
L 357.696 140.011675 
L 348.768 139.975008 
L 339.84 133.490838 
L 330.912 133.467499 
L 321.984 133.429993 
L 313.056 132.361205 
L 304.128 132.383398 
L 295.2 132.347666 
L 286.272 132.378111 
L 277.344 132.358403 
L 268.416 132.173006 
L 259.488 132.208294 
L 250.56 132.209991 
L 241.632 132.027547 
L 232.704 132.004844 
L 223.776 132.005063 
L 214.848 132.021589 
L 205.92 132.013747 
L 196.992 125.277342 
L 188.064 125.177834 
L 179.136 125.091155 
L 170.208 124.815067 
L 161.28 124.862604 
L 152.352 125.067176 
L 143.424 125.319655 
L 134.496 125.418028 
L 125.568 119.102621 
L 116.64 119.12273 
L 107.712 119.119325 
L 98.784 118.752325 
L 89.856 112.949125 
L 80.928 112.391598 
L 72 106.315347 
z
" style="fill:#8c564b;fill-opacity:0.3;"/>
   </g>
   <g id="PolyCollection_7">
    <path clip-path="url(#pbbaa67385a)" d="M 72 110.728492 
L 72 106.669982 
L 80.928 110.641638 
L 89.856 110.714025 
L 98.784 112.440522 
L 107.712 112.206906 
L 116.64 112.576263 
L 125.568 112.537298 
L 134.496 112.903132 
L 143.424 113.137395 
L 152.352 113.269944 
L 161.28 113.333247 
L 170.208 113.412632 
L 179.136 113.441157 
L 188.064 113.331376 
L 196.992 113.254682 
L 205.92 113.288292 
L 214.848 113.419771 
L 223.776 113.451964 
L 232.704 113.449649 
L 241.632 113.446181 
L 250.56 113.571992 
L 259.488 113.547993 
L 268.416 113.518788 
L 277.344 113.486364 
L 286.272 113.578511 
L 295.2 113.579227 
L 304.128 113.606412 
L 313.056 113.602045 
L 321.984 113.626675 
L 330.912 113.57217 
L 339.84 113.529698 
L 348.768 113.52088 
L 357.696 113.56559 
L 366.624 113.574305 
L 375.552 113.573613 
L 384.48 113.55373 
L 393.408 113.613113 
L 402.336 113.608402 
L 411.264 113.583744 
L 420.192 113.551686 
L 429.12 113.601091 
L 438.048 113.601238 
L 446.976 113.615142 
L 455.904 113.602386 
L 464.832 113.644085 
L 473.76 113.633078 
L 482.688 113.607982 
L 491.616 113.585714 
L 500.544 113.6161 
L 509.472 113.615974 
L 518.4 113.620521 
L 518.4 113.650486 
L 518.4 113.650486 
L 509.472 113.648777 
L 500.544 113.647283 
L 491.616 113.629942 
L 482.688 113.636472 
L 473.76 113.653353 
L 464.832 113.663002 
L 455.904 113.647698 
L 446.976 113.651372 
L 438.048 113.644878 
L 429.12 113.64446 
L 420.192 113.616753 
L 411.264 113.626959 
L 402.336 113.644544 
L 393.408 113.650795 
L 384.48 113.62287 
L 375.552 113.623866 
L 366.624 113.626914 
L 357.696 113.614644 
L 348.768 113.588688 
L 339.84 113.583699 
L 330.912 113.62752 
L 321.984 113.659584 
L 313.056 113.657517 
L 304.128 113.649483 
L 295.2 113.639635 
L 286.272 113.639503 
L 277.344 113.599399 
L 268.416 113.590189 
L 259.488 113.614353 
L 250.56 113.637374 
L 241.632 113.593747 
L 232.704 113.58609 
L 223.776 113.56837 
L 214.848 113.529319 
L 205.92 113.456051 
L 196.992 113.415024 
L 188.064 113.522995 
L 179.136 113.606678 
L 170.208 113.59131 
L 161.28 113.501665 
L 152.352 113.454957 
L 143.424 113.378523 
L 134.496 113.219493 
L 125.568 113.043375 
L 116.64 113.184853 
L 107.712 113.110469 
L 98.784 112.886768 
L 89.856 112.355519 
L 80.928 112.254883 
L 72 110.728492 
z
" style="fill:#e377c2;fill-opacity:0.3;"/>
   </g>
   <g id="matplotlib.axis_1">
    <g id="xtick_1">
     <g id="line2d_1">
      <path clip-path="url(#pbbaa67385a)" d="M 72 384.48 
L 72 51.84 
" style="fill:none;stroke:#b0b0b0;stroke-linecap:square;stroke-width:0.8;"/>
     </g>
     <g id="line2d_2">
      <defs>
       <path d="M 0 0 
L 0 3.5 
" id="m9b0dec5061" style="stroke:#000000;stroke-width:0.8;"/>
      </defs>
      <g>
       <use style="stroke:#000000;stroke-width:0.8;" x="72" xlink:href="#m9b0dec5061" y="384.48"/>
      </g>
     </g>
     <g id="text_1">
      <!-- 0 -->
      <defs>
       <path d="M 31.78125 66.40625 
Q 24.171875 66.40625 20.328125 58.90625 
Q 16.5 51.421875 16.5 36.375 
Q 16.5 21.390625 20.328125 13.890625 
Q 24.171875 6.390625 31.78125 6.390625 
Q 39.453125 6.390625 43.28125 13.890625 
Q 47.125 21.390625 47.125 36.375 
Q 47.125 51.421875 43.28125 58.90625 
Q 39.453125 66.40625 31.78125 66.40625 
z
M 31.78125 74.21875 
Q 44.046875 74.21875 50.515625 64.515625 
Q 56.984375 54.828125 56.984375 36.375 
Q 56.984375 17.96875 50.515625 8.265625 
Q 44.046875 -1.421875 31.78125 -1.421875 
Q 19.53125 -1.421875 13.0625 8.265625 
Q 6.59375 17.96875 6.59375 36.375 
Q 6.59375 54.828125 13.0625 64.515625 
Q 19.53125 74.21875 31.78125 74.21875 
z
" id="DejaVuSans-48"/>
      </defs>
      <g transform="translate(68.81875 399.078438)scale(0.1 -0.1)">
       <use xlink:href="#DejaVuSans-48"/>
      </g>
     </g>
    </g>
    <g id="xtick_2">
     <g id="line2d_3">
      <path clip-path="url(#pbbaa67385a)" d="M 161.28 384.48 
L 161.28 51.84 
" style="fill:none;stroke:#b0b0b0;stroke-linecap:square;stroke-width:0.8;"/>
     </g>
     <g id="line2d_4">
      <g>
       <use style="stroke:#000000;stroke-width:0.8;" x="161.28" xlink:href="#m9b0dec5061" y="384.48"/>
      </g>
     </g>
     <g id="text_2">
      <!-- 10 -->
      <defs>
       <path d="M 12.40625 8.296875 
L 28.515625 8.296875 
L 28.515625 63.921875 
L 10.984375 60.40625 
L 10.984375 69.390625 
L 28.421875 72.90625 
L 38.28125 72.90625 
L 38.28125 8.296875 
L 54.390625 8.296875 
L 54.390625 0 
L 12.40625 0 
z
" id="DejaVuSans-49"/>
      </defs>
      <g transform="translate(154.9175 399.078438)scale(0.1 -0.1)">
       <use xlink:href="#DejaVuSans-49"/>
       <use x="63.623047" xlink:href="#DejaVuSans-48"/>
      </g>
     </g>
    </g>
    <g id="xtick_3">
     <g id="line2d_5">
      <path clip-path="url(#pbbaa67385a)" d="M 250.56 384.48 
L 250.56 51.84 
" style="fill:none;stroke:#b0b0b0;stroke-linecap:square;stroke-width:0.8;"/>
     </g>
     <g id="line2d_6">
      <g>
       <use style="stroke:#000000;stroke-width:0.8;" x="250.56" xlink:href="#m9b0dec5061" y="384.48"/>
      </g>
     </g>
     <g id="text_3">
      <!-- 20 -->
      <defs>
       <path d="M 19.1875 8.296875 
L 53.609375 8.296875 
L 53.609375 0 
L 7.328125 0 
L 7.328125 8.296875 
Q 12.9375 14.109375 22.625 23.890625 
Q 32.328125 33.6875 34.8125 36.53125 
Q 39.546875 41.84375 41.421875 45.53125 
Q 43.3125 49.21875 43.3125 52.78125 
Q 43.3125 58.59375 39.234375 62.25 
Q 35.15625 65.921875 28.609375 65.921875 
Q 23.96875 65.921875 18.8125 64.3125 
Q 13.671875 62.703125 7.8125 59.421875 
L 7.8125 69.390625 
Q 13.765625 71.78125 18.9375 73 
Q 24.125 74.21875 28.421875 74.21875 
Q 39.75 74.21875 46.484375 68.546875 
Q 53.21875 62.890625 53.21875 53.421875 
Q 53.21875 48.921875 51.53125 44.890625 
Q 49.859375 40.875 45.40625 35.40625 
Q 44.1875 33.984375 37.640625 27.21875 
Q 31.109375 20.453125 19.1875 8.296875 
z
" id="DejaVuSans-50"/>
      </defs>
      <g transform="translate(244.1975 399.078438)scale(0.1 -0.1)">
       <use xlink:href="#DejaVuSans-50"/>
       <use x="63.623047" xlink:href="#DejaVuSans-48"/>
      </g>
     </g>
    </g>
    <g id="xtick_4">
     <g id="line2d_7">
      <path clip-path="url(#pbbaa67385a)" d="M 339.84 384.48 
L 339.84 51.84 
" style="fill:none;stroke:#b0b0b0;stroke-linecap:square;stroke-width:0.8;"/>
     </g>
     <g id="line2d_8">
      <g>
       <use style="stroke:#000000;stroke-width:0.8;" x="339.84" xlink:href="#m9b0dec5061" y="384.48"/>
      </g>
     </g>
     <g id="text_4">
      <!-- 30 -->
      <defs>
       <path d="M 40.578125 39.3125 
Q 47.65625 37.796875 51.625 33 
Q 55.609375 28.21875 55.609375 21.1875 
Q 55.609375 10.40625 48.1875 4.484375 
Q 40.765625 -1.421875 27.09375 -1.421875 
Q 22.515625 -1.421875 17.65625 -0.515625 
Q 12.796875 0.390625 7.625 2.203125 
L 7.625 11.71875 
Q 11.71875 9.328125 16.59375 8.109375 
Q 21.484375 6.890625 26.8125 6.890625 
Q 36.078125 6.890625 40.9375 10.546875 
Q 45.796875 14.203125 45.796875 21.1875 
Q 45.796875 27.640625 41.28125 31.265625 
Q 36.765625 34.90625 28.71875 34.90625 
L 20.21875 34.90625 
L 20.21875 43.015625 
L 29.109375 43.015625 
Q 36.375 43.015625 40.234375 45.921875 
Q 44.09375 48.828125 44.09375 54.296875 
Q 44.09375 59.90625 40.109375 62.90625 
Q 36.140625 65.921875 28.71875 65.921875 
Q 24.65625 65.921875 20.015625 65.03125 
Q 15.375 64.15625 9.8125 62.3125 
L 9.8125 71.09375 
Q 15.4375 72.65625 20.34375 73.4375 
Q 25.25 74.21875 29.59375 74.21875 
Q 40.828125 74.21875 47.359375 69.109375 
Q 53.90625 64.015625 53.90625 55.328125 
Q 53.90625 49.265625 50.4375 45.09375 
Q 46.96875 40.921875 40.578125 39.3125 
z
" id="DejaVuSans-51"/>
      </defs>
      <g transform="translate(333.4775 399.078438)scale(0.1 -0.1)">
       <use xlink:href="#DejaVuSans-51"/>
       <use x="63.623047" xlink:href="#DejaVuSans-48"/>
      </g>
     </g>
    </g>
    <g id="xtick_5">
     <g id="line2d_9">
      <path clip-path="url(#pbbaa67385a)" d="M 429.12 384.48 
L 429.12 51.84 
" style="fill:none;stroke:#b0b0b0;stroke-linecap:square;stroke-width:0.8;"/>
     </g>
     <g id="line2d_10">
      <g>
       <use style="stroke:#000000;stroke-width:0.8;" x="429.12" xlink:href="#m9b0dec5061" y="384.48"/>
      </g>
     </g>
     <g id="text_5">
      <!-- 40 -->
      <defs>
       <path d="M 37.796875 64.3125 
L 12.890625 25.390625 
L 37.796875 25.390625 
z
M 35.203125 72.90625 
L 47.609375 72.90625 
L 47.609375 25.390625 
L 58.015625 25.390625 
L 58.015625 17.1875 
L 47.609375 17.1875 
L 47.609375 0 
L 37.796875 0 
L 37.796875 17.1875 
L 4.890625 17.1875 
L 4.890625 26.703125 
z
" id="DejaVuSans-52"/>
      </defs>
      <g transform="translate(422.7575 399.078438)scale(0.1 -0.1)">
       <use xlink:href="#DejaVuSans-52"/>
       <use x="63.623047" xlink:href="#DejaVuSans-48"/>
      </g>
     </g>
    </g>
    <g id="xtick_6">
     <g id="line2d_11">
      <path clip-path="url(#pbbaa67385a)" d="M 518.4 384.48 
L 518.4 51.84 
" style="fill:none;stroke:#b0b0b0;stroke-linecap:square;stroke-width:0.8;"/>
     </g>
     <g id="line2d_12">
      <g>
       <use style="stroke:#000000;stroke-width:0.8;" x="518.4" xlink:href="#m9b0dec5061" y="384.48"/>
      </g>
     </g>
     <g id="text_6">
      <!-- 50 -->
      <defs>
       <path d="M 10.796875 72.90625 
L 49.515625 72.90625 
L 49.515625 64.59375 
L 19.828125 64.59375 
L 19.828125 46.734375 
Q 21.96875 47.46875 24.109375 47.828125 
Q 26.265625 48.1875 28.421875 48.1875 
Q 40.625 48.1875 47.75 41.5 
Q 54.890625 34.8125 54.890625 23.390625 
Q 54.890625 11.625 47.5625 5.09375 
Q 40.234375 -1.421875 26.90625 -1.421875 
Q 22.3125 -1.421875 17.546875 -0.640625 
Q 12.796875 0.140625 7.71875 1.703125 
L 7.71875 11.625 
Q 12.109375 9.234375 16.796875 8.0625 
Q 21.484375 6.890625 26.703125 6.890625 
Q 35.15625 6.890625 40.078125 11.328125 
Q 45.015625 15.765625 45.015625 23.390625 
Q 45.015625 31 40.078125 35.4375 
Q 35.15625 39.890625 26.703125 39.890625 
Q 22.75 39.890625 18.8125 39.015625 
Q 14.890625 38.140625 10.796875 36.28125 
z
" id="DejaVuSans-53"/>
      </defs>
      <g transform="translate(512.0375 399.078438)scale(0.1 -0.1)">
       <use xlink:href="#DejaVuSans-53"/>
       <use x="63.623047" xlink:href="#DejaVuSans-48"/>
      </g>
     </g>
    </g>
    <g id="text_7">
     <!-- Iteration -->
     <defs>
      <path d="M 9.8125 72.90625 
L 19.671875 72.90625 
L 19.671875 0 
L 9.8125 0 
z
" id="DejaVuSans-73"/>
      <path d="M 18.3125 70.21875 
L 18.3125 54.6875 
L 36.8125 54.6875 
L 36.8125 47.703125 
L 18.3125 47.703125 
L 18.3125 18.015625 
Q 18.3125 11.328125 20.140625 9.421875 
Q 21.96875 7.515625 27.59375 7.515625 
L 36.8125 7.515625 
L 36.8125 0 
L 27.59375 0 
Q 17.1875 0 13.234375 3.875 
Q 9.28125 7.765625 9.28125 18.015625 
L 9.28125 47.703125 
L 2.6875 47.703125 
L 2.6875 54.6875 
L 9.28125 54.6875 
L 9.28125 70.21875 
z
" id="DejaVuSans-116"/>
      <path d="M 56.203125 29.59375 
L 56.203125 25.203125 
L 14.890625 25.203125 
Q 15.484375 15.921875 20.484375 11.0625 
Q 25.484375 6.203125 34.421875 6.203125 
Q 39.59375 6.203125 44.453125 7.46875 
Q 49.3125 8.734375 54.109375 11.28125 
L 54.109375 2.78125 
Q 49.265625 0.734375 44.1875 -0.34375 
Q 39.109375 -1.421875 33.890625 -1.421875 
Q 20.796875 -1.421875 13.15625 6.1875 
Q 5.515625 13.8125 5.515625 26.8125 
Q 5.515625 40.234375 12.765625 48.109375 
Q 20.015625 56 32.328125 56 
Q 43.359375 56 49.78125 48.890625 
Q 56.203125 41.796875 56.203125 29.59375 
z
M 47.21875 32.234375 
Q 47.125 39.59375 43.09375 43.984375 
Q 39.0625 48.390625 32.421875 48.390625 
Q 24.90625 48.390625 20.390625 44.140625 
Q 15.875 39.890625 15.1875 32.171875 
z
" id="DejaVuSans-101"/>
      <path d="M 41.109375 46.296875 
Q 39.59375 47.171875 37.8125 47.578125 
Q 36.03125 48 33.890625 48 
Q 26.265625 48 22.1875 43.046875 
Q 18.109375 38.09375 18.109375 28.8125 
L 18.109375 0 
L 9.078125 0 
L 9.078125 54.6875 
L 18.109375 54.6875 
L 18.109375 46.1875 
Q 20.953125 51.171875 25.484375 53.578125 
Q 30.03125 56 36.53125 56 
Q 37.453125 56 38.578125 55.875 
Q 39.703125 55.765625 41.0625 55.515625 
z
" id="DejaVuSans-114"/>
      <path d="M 34.28125 27.484375 
Q 23.390625 27.484375 19.1875 25 
Q 14.984375 22.515625 14.984375 16.5 
Q 14.984375 11.71875 18.140625 8.90625 
Q 21.296875 6.109375 26.703125 6.109375 
Q 34.1875 6.109375 38.703125 11.40625 
Q 43.21875 16.703125 43.21875 25.484375 
L 43.21875 27.484375 
z
M 52.203125 31.203125 
L 52.203125 0 
L 43.21875 0 
L 43.21875 8.296875 
Q 40.140625 3.328125 35.546875 0.953125 
Q 30.953125 -1.421875 24.3125 -1.421875 
Q 15.921875 -1.421875 10.953125 3.296875 
Q 6 8.015625 6 15.921875 
Q 6 25.140625 12.171875 29.828125 
Q 18.359375 34.515625 30.609375 34.515625 
L 43.21875 34.515625 
L 43.21875 35.40625 
Q 43.21875 41.609375 39.140625 45 
Q 35.0625 48.390625 27.6875 48.390625 
Q 23 48.390625 18.546875 47.265625 
Q 14.109375 46.140625 10.015625 43.890625 
L 10.015625 52.203125 
Q 14.9375 54.109375 19.578125 55.046875 
Q 24.21875 56 28.609375 56 
Q 40.484375 56 46.34375 49.84375 
Q 52.203125 43.703125 52.203125 31.203125 
z
" id="DejaVuSans-97"/>
      <path d="M 9.421875 54.6875 
L 18.40625 54.6875 
L 18.40625 0 
L 9.421875 0 
z
M 9.421875 75.984375 
L 18.40625 75.984375 
L 18.40625 64.59375 
L 9.421875 64.59375 
z
" id="DejaVuSans-105"/>
      <path d="M 30.609375 48.390625 
Q 23.390625 48.390625 19.1875 42.75 
Q 14.984375 37.109375 14.984375 27.296875 
Q 14.984375 17.484375 19.15625 11.84375 
Q 23.34375 6.203125 30.609375 6.203125 
Q 37.796875 6.203125 41.984375 11.859375 
Q 46.1875 17.53125 46.1875 27.296875 
Q 46.1875 37.015625 41.984375 42.703125 
Q 37.796875 48.390625 30.609375 48.390625 
z
M 30.609375 56 
Q 42.328125 56 49.015625 48.375 
Q 55.71875 40.765625 55.71875 27.296875 
Q 55.71875 13.875 49.015625 6.21875 
Q 42.328125 -1.421875 30.609375 -1.421875 
Q 18.84375 -1.421875 12.171875 6.21875 
Q 5.515625 13.875 5.515625 27.296875 
Q 5.515625 40.765625 12.171875 48.375 
Q 18.84375 56 30.609375 56 
z
" id="DejaVuSans-111"/>
      <path d="M 54.890625 33.015625 
L 54.890625 0 
L 45.90625 0 
L 45.90625 32.71875 
Q 45.90625 40.484375 42.875 44.328125 
Q 39.84375 48.1875 33.796875 48.1875 
Q 26.515625 48.1875 22.3125 43.546875 
Q 18.109375 38.921875 18.109375 30.90625 
L 18.109375 0 
L 9.078125 0 
L 9.078125 54.6875 
L 18.109375 54.6875 
L 18.109375 46.1875 
Q 21.34375 51.125 25.703125 53.5625 
Q 30.078125 56 35.796875 56 
Q 45.21875 56 50.046875 50.171875 
Q 54.890625 44.34375 54.890625 33.015625 
z
" id="DejaVuSans-110"/>
     </defs>
     <g transform="translate(273.991406 412.756563)scale(0.1 -0.1)">
      <use xlink:href="#DejaVuSans-73"/>
      <use x="29.492188" xlink:href="#DejaVuSans-116"/>
      <use x="68.701172" xlink:href="#DejaVuSans-101"/>
      <use x="130.224609" xlink:href="#DejaVuSans-114"/>
      <use x="171.337891" xlink:href="#DejaVuSans-97"/>
      <use x="232.617188" xlink:href="#DejaVuSans-116"/>
      <use x="271.826172" xlink:href="#DejaVuSans-105"/>
      <use x="299.609375" xlink:href="#DejaVuSans-111"/>
      <use x="360.791016" xlink:href="#DejaVuSans-110"/>
     </g>
    </g>
   </g>
   <g id="matplotlib.axis_2">
    <g id="ytick_1">
     <g id="line2d_13">
      <path clip-path="url(#pbbaa67385a)" d="M 72 384.48 
L 518.4 384.48 
" style="fill:none;stroke:#b0b0b0;stroke-linecap:square;stroke-width:0.8;"/>
     </g>
     <g id="line2d_14">
      <defs>
       <path d="M 0 0 
L -3.5 0 
" id="medff6c8b9a" style="stroke:#000000;stroke-width:0.8;"/>
      </defs>
      <g>
       <use style="stroke:#000000;stroke-width:0.8;" x="72" xlink:href="#medff6c8b9a" y="384.48"/>
      </g>
     </g>
     <g id="text_8">
      <!-- $\mathdefault{10^{-12}}$ -->
      <defs>
       <path d="M 10.59375 35.5 
L 73.1875 35.5 
L 73.1875 27.203125 
L 10.59375 27.203125 
z
" id="DejaVuSans-8722"/>
      </defs>
      <g transform="translate(37.1 388.279219)scale(0.1 -0.1)">
       <use transform="translate(0 0.765625)" xlink:href="#DejaVuSans-49"/>
       <use transform="translate(63.623047 0.765625)" xlink:href="#DejaVuSans-48"/>
       <use transform="translate(128.203125 39.046875)scale(0.7)" xlink:href="#DejaVuSans-8722"/>
       <use transform="translate(186.855469 39.046875)scale(0.7)" xlink:href="#DejaVuSans-49"/>
       <use transform="translate(231.391602 39.046875)scale(0.7)" xlink:href="#DejaVuSans-50"/>
      </g>
     </g>
    </g>
    <g id="ytick_2">
     <g id="line2d_15">
      <path clip-path="url(#pbbaa67385a)" d="M 72 336.96 
L 518.4 336.96 
" style="fill:none;stroke:#b0b0b0;stroke-linecap:square;stroke-width:0.8;"/>
     </g>
     <g id="line2d_16">
      <g>
       <use style="stroke:#000000;stroke-width:0.8;" x="72" xlink:href="#medff6c8b9a" y="336.96"/>
      </g>
     </g>
     <g id="text_9">
      <!-- $\mathdefault{10^{-10}}$ -->
      <g transform="translate(37.1 340.759219)scale(0.1 -0.1)">
       <use transform="translate(0 0.765625)" xlink:href="#DejaVuSans-49"/>
       <use transform="translate(63.623047 0.765625)" xlink:href="#DejaVuSans-48"/>
       <use transform="translate(128.203125 39.046875)scale(0.7)" xlink:href="#DejaVuSans-8722"/>
       <use transform="translate(186.855469 39.046875)scale(0.7)" xlink:href="#DejaVuSans-49"/>
       <use transform="translate(231.391602 39.046875)scale(0.7)" xlink:href="#DejaVuSans-48"/>
      </g>
     </g>
    </g>
    <g id="ytick_3">
     <g id="line2d_17">
      <path clip-path="url(#pbbaa67385a)" d="M 72 289.44 
L 518.4 289.44 
" style="fill:none;stroke:#b0b0b0;stroke-linecap:square;stroke-width:0.8;"/>
     </g>
     <g id="line2d_18">
      <g>
       <use style="stroke:#000000;stroke-width:0.8;" x="72" xlink:href="#medff6c8b9a" y="289.44"/>
      </g>
     </g>
     <g id="text_10">
      <!-- $\mathdefault{10^{-8}}$ -->
      <defs>
       <path d="M 31.78125 34.625 
Q 24.75 34.625 20.71875 30.859375 
Q 16.703125 27.09375 16.703125 20.515625 
Q 16.703125 13.921875 20.71875 10.15625 
Q 24.75 6.390625 31.78125 6.390625 
Q 38.8125 6.390625 42.859375 10.171875 
Q 46.921875 13.96875 46.921875 20.515625 
Q 46.921875 27.09375 42.890625 30.859375 
Q 38.875 34.625 31.78125 34.625 
z
M 21.921875 38.8125 
Q 15.578125 40.375 12.03125 44.71875 
Q 8.5 49.078125 8.5 55.328125 
Q 8.5 64.0625 14.71875 69.140625 
Q 20.953125 74.21875 31.78125 74.21875 
Q 42.671875 74.21875 48.875 69.140625 
Q 55.078125 64.0625 55.078125 55.328125 
Q 55.078125 49.078125 51.53125 44.71875 
Q 48 40.375 41.703125 38.8125 
Q 48.828125 37.15625 52.796875 32.3125 
Q 56.78125 27.484375 56.78125 20.515625 
Q 56.78125 9.90625 50.3125 4.234375 
Q 43.84375 -1.421875 31.78125 -1.421875 
Q 19.734375 -1.421875 13.25 4.234375 
Q 6.78125 9.90625 6.78125 20.515625 
Q 6.78125 27.484375 10.78125 32.3125 
Q 14.796875 37.15625 21.921875 38.8125 
z
M 18.3125 54.390625 
Q 18.3125 48.734375 21.84375 45.5625 
Q 25.390625 42.390625 31.78125 42.390625 
Q 38.140625 42.390625 41.71875 45.5625 
Q 45.3125 48.734375 45.3125 54.390625 
Q 45.3125 60.0625 41.71875 63.234375 
Q 38.140625 66.40625 31.78125 66.40625 
Q 25.390625 66.40625 21.84375 63.234375 
Q 18.3125 60.0625 18.3125 54.390625 
z
" id="DejaVuSans-56"/>
      </defs>
      <g transform="translate(41.5 293.239219)scale(0.1 -0.1)">
       <use transform="translate(0 0.765625)" xlink:href="#DejaVuSans-49"/>
       <use transform="translate(63.623047 0.765625)" xlink:href="#DejaVuSans-48"/>
       <use transform="translate(128.203125 39.046875)scale(0.7)" xlink:href="#DejaVuSans-8722"/>
       <use transform="translate(186.855469 39.046875)scale(0.7)" xlink:href="#DejaVuSans-56"/>
      </g>
     </g>
    </g>
    <g id="ytick_4">
     <g id="line2d_19">
      <path clip-path="url(#pbbaa67385a)" d="M 72 241.92 
L 518.4 241.92 
" style="fill:none;stroke:#b0b0b0;stroke-linecap:square;stroke-width:0.8;"/>
     </g>
     <g id="line2d_20">
      <g>
       <use style="stroke:#000000;stroke-width:0.8;" x="72" xlink:href="#medff6c8b9a" y="241.92"/>
      </g>
     </g>
     <g id="text_11">
      <!-- $\mathdefault{10^{-6}}$ -->
      <defs>
       <path d="M 33.015625 40.375 
Q 26.375 40.375 22.484375 35.828125 
Q 18.609375 31.296875 18.609375 23.390625 
Q 18.609375 15.53125 22.484375 10.953125 
Q 26.375 6.390625 33.015625 6.390625 
Q 39.65625 6.390625 43.53125 10.953125 
Q 47.40625 15.53125 47.40625 23.390625 
Q 47.40625 31.296875 43.53125 35.828125 
Q 39.65625 40.375 33.015625 40.375 
z
M 52.59375 71.296875 
L 52.59375 62.3125 
Q 48.875 64.0625 45.09375 64.984375 
Q 41.3125 65.921875 37.59375 65.921875 
Q 27.828125 65.921875 22.671875 59.328125 
Q 17.53125 52.734375 16.796875 39.40625 
Q 19.671875 43.65625 24.015625 45.921875 
Q 28.375 48.1875 33.59375 48.1875 
Q 44.578125 48.1875 50.953125 41.515625 
Q 57.328125 34.859375 57.328125 23.390625 
Q 57.328125 12.15625 50.6875 5.359375 
Q 44.046875 -1.421875 33.015625 -1.421875 
Q 20.359375 -1.421875 13.671875 8.265625 
Q 6.984375 17.96875 6.984375 36.375 
Q 6.984375 53.65625 15.1875 63.9375 
Q 23.390625 74.21875 37.203125 74.21875 
Q 40.921875 74.21875 44.703125 73.484375 
Q 48.484375 72.75 52.59375 71.296875 
z
" id="DejaVuSans-54"/>
      </defs>
      <g transform="translate(41.5 245.719219)scale(0.1 -0.1)">
       <use transform="translate(0 0.765625)" xlink:href="#DejaVuSans-49"/>
       <use transform="translate(63.623047 0.765625)" xlink:href="#DejaVuSans-48"/>
       <use transform="translate(128.203125 39.046875)scale(0.7)" xlink:href="#DejaVuSans-8722"/>
       <use transform="translate(186.855469 39.046875)scale(0.7)" xlink:href="#DejaVuSans-54"/>
      </g>
     </g>
    </g>
    <g id="ytick_5">
     <g id="line2d_21">
      <path clip-path="url(#pbbaa67385a)" d="M 72 194.4 
L 518.4 194.4 
" style="fill:none;stroke:#b0b0b0;stroke-linecap:square;stroke-width:0.8;"/>
     </g>
     <g id="line2d_22">
      <g>
       <use style="stroke:#000000;stroke-width:0.8;" x="72" xlink:href="#medff6c8b9a" y="194.4"/>
      </g>
     </g>
     <g id="text_12">
      <!-- $\mathdefault{10^{-4}}$ -->
      <g transform="translate(41.5 198.199219)scale(0.1 -0.1)">
       <use transform="translate(0 0.684375)" xlink:href="#DejaVuSans-49"/>
       <use transform="translate(63.623047 0.684375)" xlink:href="#DejaVuSans-48"/>
       <use transform="translate(128.203125 38.965625)scale(0.7)" xlink:href="#DejaVuSans-8722"/>
       <use transform="translate(186.855469 38.965625)scale(0.7)" xlink:href="#DejaVuSans-52"/>
      </g>
     </g>
    </g>
    <g id="ytick_6">
     <g id="line2d_23">
      <path clip-path="url(#pbbaa67385a)" d="M 72 146.88 
L 518.4 146.88 
" style="fill:none;stroke:#b0b0b0;stroke-linecap:square;stroke-width:0.8;"/>
     </g>
     <g id="line2d_24">
      <g>
       <use style="stroke:#000000;stroke-width:0.8;" x="72" xlink:href="#medff6c8b9a" y="146.88"/>
      </g>
     </g>
     <g id="text_13">
      <!-- $\mathdefault{10^{-2}}$ -->
      <g transform="translate(41.5 150.679219)scale(0.1 -0.1)">
       <use transform="translate(0 0.765625)" xlink:href="#DejaVuSans-49"/>
       <use transform="translate(63.623047 0.765625)" xlink:href="#DejaVuSans-48"/>
       <use transform="translate(128.203125 39.046875)scale(0.7)" xlink:href="#DejaVuSans-8722"/>
       <use transform="translate(186.855469 39.046875)scale(0.7)" xlink:href="#DejaVuSans-50"/>
      </g>
     </g>
    </g>
    <g id="ytick_7">
     <g id="line2d_25">
      <path clip-path="url(#pbbaa67385a)" d="M 72 99.36 
L 518.4 99.36 
" style="fill:none;stroke:#b0b0b0;stroke-linecap:square;stroke-width:0.8;"/>
     </g>
     <g id="line2d_26">
      <g>
       <use style="stroke:#000000;stroke-width:0.8;" x="72" xlink:href="#medff6c8b9a" y="99.36"/>
      </g>
     </g>
     <g id="text_14">
      <!-- $\mathdefault{10^{0}}$ -->
      <g transform="translate(47.4 103.159219)scale(0.1 -0.1)">
       <use transform="translate(0 0.765625)" xlink:href="#DejaVuSans-49"/>
       <use transform="translate(63.623047 0.765625)" xlink:href="#DejaVuSans-48"/>
       <use transform="translate(128.203125 39.046875)scale(0.7)" xlink:href="#DejaVuSans-48"/>
      </g>
     </g>
    </g>
    <g id="ytick_8">
     <g id="line2d_27">
      <path clip-path="url(#pbbaa67385a)" d="M 72 51.84 
L 518.4 51.84 
" style="fill:none;stroke:#b0b0b0;stroke-linecap:square;stroke-width:0.8;"/>
     </g>
     <g id="line2d_28">
      <g>
       <use style="stroke:#000000;stroke-width:0.8;" x="72" xlink:href="#medff6c8b9a" y="51.84"/>
      </g>
     </g>
     <g id="text_15">
      <!-- $\mathdefault{10^{2}}$ -->
      <g transform="translate(47.4 55.639219)scale(0.1 -0.1)">
       <use transform="translate(0 0.765625)" xlink:href="#DejaVuSans-49"/>
       <use transform="translate(63.623047 0.765625)" xlink:href="#DejaVuSans-48"/>
       <use transform="translate(128.203125 39.046875)scale(0.7)" xlink:href="#DejaVuSans-50"/>
      </g>
     </g>
    </g>
    <g id="text_16">
     <!-- Integrated Squared Error -->
     <defs>
      <path d="M 45.40625 27.984375 
Q 45.40625 37.75 41.375 43.109375 
Q 37.359375 48.484375 30.078125 48.484375 
Q 22.859375 48.484375 18.828125 43.109375 
Q 14.796875 37.75 14.796875 27.984375 
Q 14.796875 18.265625 18.828125 12.890625 
Q 22.859375 7.515625 30.078125 7.515625 
Q 37.359375 7.515625 41.375 12.890625 
Q 45.40625 18.265625 45.40625 27.984375 
z
M 54.390625 6.78125 
Q 54.390625 -7.171875 48.1875 -13.984375 
Q 42 -20.796875 29.203125 -20.796875 
Q 24.46875 -20.796875 20.265625 -20.09375 
Q 16.0625 -19.390625 12.109375 -17.921875 
L 12.109375 -9.1875 
Q 16.0625 -11.328125 19.921875 -12.34375 
Q 23.78125 -13.375 27.78125 -13.375 
Q 36.625 -13.375 41.015625 -8.765625 
Q 45.40625 -4.15625 45.40625 5.171875 
L 45.40625 9.625 
Q 42.625 4.78125 38.28125 2.390625 
Q 33.9375 0 27.875 0 
Q 17.828125 0 11.671875 7.65625 
Q 5.515625 15.328125 5.515625 27.984375 
Q 5.515625 40.671875 11.671875 48.328125 
Q 17.828125 56 27.875 56 
Q 33.9375 56 38.28125 53.609375 
Q 42.625 51.21875 45.40625 46.390625 
L 45.40625 54.6875 
L 54.390625 54.6875 
z
" id="DejaVuSans-103"/>
      <path d="M 45.40625 46.390625 
L 45.40625 75.984375 
L 54.390625 75.984375 
L 54.390625 0 
L 45.40625 0 
L 45.40625 8.203125 
Q 42.578125 3.328125 38.25 0.953125 
Q 33.9375 -1.421875 27.875 -1.421875 
Q 17.96875 -1.421875 11.734375 6.484375 
Q 5.515625 14.40625 5.515625 27.296875 
Q 5.515625 40.1875 11.734375 48.09375 
Q 17.96875 56 27.875 56 
Q 33.9375 56 38.25 53.625 
Q 42.578125 51.265625 45.40625 46.390625 
z
M 14.796875 27.296875 
Q 14.796875 17.390625 18.875 11.75 
Q 22.953125 6.109375 30.078125 6.109375 
Q 37.203125 6.109375 41.296875 11.75 
Q 45.40625 17.390625 45.40625 27.296875 
Q 45.40625 37.203125 41.296875 42.84375 
Q 37.203125 48.484375 30.078125 48.484375 
Q 22.953125 48.484375 18.875 42.84375 
Q 14.796875 37.203125 14.796875 27.296875 
z
" id="DejaVuSans-100"/>
      <path id="DejaVuSans-32"/>
      <path d="M 53.515625 70.515625 
L 53.515625 60.890625 
Q 47.90625 63.578125 42.921875 64.890625 
Q 37.9375 66.21875 33.296875 66.21875 
Q 25.25 66.21875 20.875 63.09375 
Q 16.5 59.96875 16.5 54.203125 
Q 16.5 49.359375 19.40625 46.890625 
Q 22.3125 44.4375 30.421875 42.921875 
L 36.375 41.703125 
Q 47.40625 39.59375 52.65625 34.296875 
Q 57.90625 29 57.90625 20.125 
Q 57.90625 9.515625 50.796875 4.046875 
Q 43.703125 -1.421875 29.984375 -1.421875 
Q 24.8125 -1.421875 18.96875 -0.25 
Q 13.140625 0.921875 6.890625 3.21875 
L 6.890625 13.375 
Q 12.890625 10.015625 18.65625 8.296875 
Q 24.421875 6.59375 29.984375 6.59375 
Q 38.421875 6.59375 43.015625 9.90625 
Q 47.609375 13.234375 47.609375 19.390625 
Q 47.609375 24.75 44.3125 27.78125 
Q 41.015625 30.8125 33.5 32.328125 
L 27.484375 33.5 
Q 16.453125 35.6875 11.515625 40.375 
Q 6.59375 45.0625 6.59375 53.421875 
Q 6.59375 63.09375 13.40625 68.65625 
Q 20.21875 74.21875 32.171875 74.21875 
Q 37.3125 74.21875 42.625 73.28125 
Q 47.953125 72.359375 53.515625 70.515625 
z
" id="DejaVuSans-83"/>
      <path d="M 14.796875 27.296875 
Q 14.796875 17.390625 18.875 11.75 
Q 22.953125 6.109375 30.078125 6.109375 
Q 37.203125 6.109375 41.296875 11.75 
Q 45.40625 17.390625 45.40625 27.296875 
Q 45.40625 37.203125 41.296875 42.84375 
Q 37.203125 48.484375 30.078125 48.484375 
Q 22.953125 48.484375 18.875 42.84375 
Q 14.796875 37.203125 14.796875 27.296875 
z
M 45.40625 8.203125 
Q 42.578125 3.328125 38.25 0.953125 
Q 33.9375 -1.421875 27.875 -1.421875 
Q 17.96875 -1.421875 11.734375 6.484375 
Q 5.515625 14.40625 5.515625 27.296875 
Q 5.515625 40.1875 11.734375 48.09375 
Q 17.96875 56 27.875 56 
Q 33.9375 56 38.25 53.625 
Q 42.578125 51.265625 45.40625 46.390625 
L 45.40625 54.6875 
L 54.390625 54.6875 
L 54.390625 -20.796875 
L 45.40625 -20.796875 
z
" id="DejaVuSans-113"/>
      <path d="M 8.5 21.578125 
L 8.5 54.6875 
L 17.484375 54.6875 
L 17.484375 21.921875 
Q 17.484375 14.15625 20.5 10.265625 
Q 23.53125 6.390625 29.59375 6.390625 
Q 36.859375 6.390625 41.078125 11.03125 
Q 45.3125 15.671875 45.3125 23.6875 
L 45.3125 54.6875 
L 54.296875 54.6875 
L 54.296875 0 
L 45.3125 0 
L 45.3125 8.40625 
Q 42.046875 3.421875 37.71875 1 
Q 33.40625 -1.421875 27.6875 -1.421875 
Q 18.265625 -1.421875 13.375 4.4375 
Q 8.5 10.296875 8.5 21.578125 
z
M 31.109375 56 
z
" id="DejaVuSans-117"/>
      <path d="M 9.8125 72.90625 
L 55.90625 72.90625 
L 55.90625 64.59375 
L 19.671875 64.59375 
L 19.671875 43.015625 
L 54.390625 43.015625 
L 54.390625 34.71875 
L 19.671875 34.71875 
L 19.671875 8.296875 
L 56.78125 8.296875 
L 56.78125 0 
L 9.8125 0 
z
" id="DejaVuSans-69"/>
     </defs>
     <g transform="translate(31.020312 280.483437)rotate(-90)scale(0.1 -0.1)">
      <use xlink:href="#DejaVuSans-73"/>
      <use x="29.492188" xlink:href="#DejaVuSans-110"/>
      <use x="92.871094" xlink:href="#DejaVuSans-116"/>
      <use x="132.080078" xlink:href="#DejaVuSans-101"/>
      <use x="193.603516" xlink:href="#DejaVuSans-103"/>
      <use x="257.080078" xlink:href="#DejaVuSans-114"/>
      <use x="298.193359" xlink:href="#DejaVuSans-97"/>
      <use x="359.472656" xlink:href="#DejaVuSans-116"/>
      <use x="398.681641" xlink:href="#DejaVuSans-101"/>
      <use x="460.205078" xlink:href="#DejaVuSans-100"/>
      <use x="523.681641" xlink:href="#DejaVuSans-32"/>
      <use x="555.46875" xlink:href="#DejaVuSans-83"/>
      <use x="618.945312" xlink:href="#DejaVuSans-113"/>
      <use x="682.421875" xlink:href="#DejaVuSans-117"/>
      <use x="745.800781" xlink:href="#DejaVuSans-97"/>
      <use x="807.080078" xlink:href="#DejaVuSans-114"/>
      <use x="845.943359" xlink:href="#DejaVuSans-101"/>
      <use x="907.466797" xlink:href="#DejaVuSans-100"/>
      <use x="970.943359" xlink:href="#DejaVuSans-32"/>
      <use x="1002.730469" xlink:href="#DejaVuSans-69"/>
      <use x="1065.914062" xlink:href="#DejaVuSans-114"/>
      <use x="1105.277344" xlink:href="#DejaVuSans-114"/>
      <use x="1144.140625" xlink:href="#DejaVuSans-111"/>
      <use x="1205.322266" xlink:href="#DejaVuSans-114"/>
     </g>
    </g>
   </g>
   <g id="line2d_29">
    <path clip-path="url(#pbbaa67385a)" d="M 72 98.442261 
L 80.928 98.954499 
L 89.856 98.927589 
L 98.784 98.984906 
L 107.712 98.820816 
L 116.64 99.232933 
L 125.568 98.735031 
L 134.496 99.274699 
L 143.424 97.869209 
L 152.352 99.29881 
L 161.28 97.065178 
L 170.208 96.474342 
L 179.136 99.146231 
L 188.064 98.969697 
L 196.992 98.733731 
L 205.92 98.424504 
L 214.848 99.319747 
L 223.776 99.336433 
L 232.704 98.819626 
L 241.632 95.83453 
L 250.56 99.332118 
L 259.488 99.343338 
L 268.416 97.999394 
L 277.344 93.760727 
L 286.272 99.339581 
L 295.2 99.347596 
L 304.128 99.342243 
L 313.056 99.349135 
L 321.984 96.584896 
L 330.912 93.118824 
L 339.84 97.149727 
L 348.768 99.351462 
L 357.696 93.527862 
L 366.624 94.135278 
L 375.552 99.349015 
L 384.48 97.152738 
L 393.408 91.187331 
L 402.336 98.667246 
L 411.264 95.480083 
L 420.192 98.438168 
L 429.12 97.315815 
L 438.048 96.711734 
L 446.976 99.258094 
L 455.904 99.355238 
L 464.832 90.187047 
L 473.76 99.355619 
L 482.688 95.164764 
L 491.616 92.462828 
L 500.544 97.065178 
L 509.472 96.757799 
L 518.4 99.354647 
" style="fill:none;stroke:#1f77b4;stroke-linecap:square;stroke-width:1.5;"/>
   </g>
   <g id="line2d_30">
    <path clip-path="url(#pbbaa67385a)" d="M 72 101.459069 
L 80.928 106.402581 
L 89.856 107.108761 
L 98.784 99.422048 
L 107.712 99.432424 
L 116.64 99.44281 
L 125.568 99.44281 
L 134.496 99.44281 
L 143.424 99.44281 
L 152.352 99.44281 
L 161.28 99.44281 
L 170.208 99.44281 
L 179.136 99.44281 
L 188.064 99.44281 
L 196.992 99.44281 
L 205.92 99.44281 
L 214.848 99.44281 
L 223.776 99.44281 
L 232.704 99.44281 
L 241.632 99.44281 
L 250.56 99.44281 
L 259.488 99.44281 
L 268.416 99.44281 
L 277.344 99.44281 
L 286.272 99.44281 
L 295.2 99.44281 
L 304.128 99.44281 
L 313.056 99.44281 
L 321.984 99.44281 
L 330.912 99.44281 
L 339.84 99.44281 
L 348.768 99.44281 
L 357.696 99.44281 
L 366.624 99.44281 
L 375.552 99.44281 
L 384.48 99.44281 
L 393.408 99.44281 
L 402.336 99.44281 
L 411.264 99.44281 
L 420.192 99.44281 
L 429.12 99.44281 
L 438.048 99.44281 
L 446.976 99.44281 
L 455.904 99.44281 
L 464.832 99.44281 
L 473.76 99.44281 
L 482.688 99.44281 
L 491.616 99.44281 
L 500.544 99.44281 
L 509.472 99.44281 
L 518.4 99.44281 
" style="fill:none;stroke:#ff7f0e;stroke-linecap:square;stroke-width:1.5;"/>
   </g>
   <g id="line2d_31">
    <path clip-path="url(#pbbaa67385a)" d="M 72 105.969825 
L 80.928 113.066582 
L 89.856 113.241314 
L 98.784 118.325546 
L 107.712 118.328753 
L 116.64 118.329115 
L 125.568 118.32908 
L 134.496 124.744321 
L 143.424 124.744697 
L 152.352 124.744707 
L 161.28 124.744735 
L 170.208 124.744723 
L 179.136 124.744712 
L 188.064 124.744702 
L 196.992 124.744692 
L 205.92 132.001733 
L 214.848 132.001763 
L 223.776 132.001762 
L 232.704 132.00176 
L 241.632 132.001758 
L 250.56 132.001756 
L 259.488 132.001753 
L 268.416 132.001752 
L 277.344 132.00175 
L 286.272 132.001748 
L 295.2 132.001746 
L 304.128 132.001746 
L 313.056 132.001744 
L 321.984 132.001743 
L 330.912 132.001742 
L 339.84 132.00174 
L 348.768 139.516783 
L 357.696 139.516785 
L 366.624 139.516785 
L 375.552 139.516784 
L 384.48 139.516783 
L 393.408 139.516783 
L 402.336 139.516782 
L 411.264 139.516782 
L 420.192 139.516781 
L 429.12 139.516781 
L 438.048 141.174522 
L 446.976 141.182896 
L 455.904 141.190056 
L 464.832 141.196191 
L 473.76 141.201461 
L 482.688 141.205996 
L 491.616 141.209909 
L 500.544 141.213291 
L 509.472 141.216222 
L 518.4 141.218766 
" style="fill:none;stroke:#2ca02c;stroke-linecap:square;stroke-width:1.5;"/>
   </g>
   <g id="line2d_32">
    <path clip-path="url(#pbbaa67385a)" d="M 72 103.517264 
L 80.928 109.127968 
L 89.856 109.845961 
L 98.784 114.287332 
L 107.712 116.755238 
L 116.64 116.825526 
L 125.568 116.844855 
L 134.496 121.785948 
L 143.424 122.644535 
L 152.352 122.628979 
L 161.28 122.616914 
L 170.208 122.703959 
L 179.136 123.551943 
L 188.064 123.553632 
L 196.992 123.553416 
L 205.92 99.442921 
L 214.848 99.442921 
L 223.776 99.442921 
L 232.704 99.442921 
L 241.632 100.683134 
L 250.56 108.212976 
L 259.488 128.26866 
L 268.416 128.908484 
L 277.344 129.016516 
L 286.272 129.014459 
L 295.2 129.011201 
L 304.128 129.008384 
L 313.056 129.64469 
L 321.984 129.949435 
L 330.912 129.95048 
L 339.84 130.57928 
L 348.768 99.442921 
L 357.696 99.442921 
L 366.624 99.442921 
L 375.552 99.442921 
L 384.48 99.442921 
L 393.408 99.442921 
L 402.336 99.442921 
L 411.264 99.442921 
L 420.192 99.442921 
L 429.12 99.442921 
L 438.048 99.442921 
L 446.976 99.442921 
L 455.904 99.442921 
L 464.832 99.442921 
L 473.76 99.442921 
L 482.688 99.442921 
L 491.616 99.442921 
L 500.544 99.442921 
L 509.472 99.442921 
L 518.4 99.442921 
" style="fill:none;stroke:#d62728;stroke-linecap:square;stroke-width:1.5;"/>
   </g>
   <g id="line2d_33">
    <path clip-path="url(#pbbaa67385a)" d="M 72 102.970139 
L 80.928 108.077656 
L 89.856 108.753418 
L 98.784 112.003826 
L 107.712 114.421369 
L 116.64 114.770593 
L 125.568 114.844694 
L 134.496 99.4428 
L 143.424 99.4428 
L 152.352 99.4428 
L 161.28 99.4428 
L 170.208 99.906863 
L 179.136 99.942584 
L 188.064 99.942691 
L 196.992 99.942706 
L 205.92 100.02021 
L 214.848 100.025019 
L 223.776 100.023698 
L 232.704 100.02261 
L 241.632 100.023846 
L 250.56 100.045635 
L 259.488 100.045388 
L 268.416 100.04511 
L 277.344 100.052637 
L 286.272 100.053194 
L 295.2 100.053001 
L 304.128 100.052834 
L 313.056 100.052679 
L 321.984 100.088576 
L 330.912 100.088649 
L 339.84 100.088645 
L 348.768 100.165294 
L 357.696 100.165101 
L 366.624 100.164461 
L 375.552 100.163883 
L 384.48 100.163563 
L 393.408 100.164401 
L 402.336 100.163989 
L 411.264 100.163599 
L 420.192 100.167771 
L 429.12 100.167472 
L 438.048 100.167183 
L 446.976 100.16692 
L 455.904 100.166659 
L 464.832 100.193399 
L 473.76 100.193331 
L 482.688 100.193236 
L 491.616 100.201597 
L 500.544 100.201516 
L 509.472 100.201438 
L 518.4 100.201363 
" style="fill:none;stroke:#9467bd;stroke-linecap:square;stroke-width:1.5;"/>
   </g>
   <g id="line2d_34">
    <path clip-path="url(#pbbaa67385a)" d="M 72 103.237495 
L 80.928 108.912154 
L 89.856 110.260207 
L 98.784 116.618826 
L 107.712 117.195889 
L 116.64 117.330241 
L 125.568 117.38119 
L 134.496 123.89478 
L 143.424 124.189504 
L 152.352 124.104459 
L 161.28 124.080615 
L 170.208 124.134428 
L 179.136 124.530227 
L 188.064 124.543437 
L 196.992 124.540599 
L 205.92 131.716113 
L 214.848 131.803066 
L 223.776 131.769717 
L 232.704 131.725537 
L 241.632 131.673151 
L 250.56 131.669889 
L 259.488 131.608372 
L 268.416 131.521335 
L 277.344 131.62223 
L 286.272 131.563339 
L 295.2 131.492689 
L 304.128 131.47211 
L 313.056 131.406881 
L 321.984 132.016886 
L 330.912 132.015954 
L 339.84 132.006265 
L 348.768 139.537772 
L 357.696 139.557716 
L 366.624 139.541682 
L 375.552 139.520299 
L 384.48 139.495048 
L 393.408 139.468124 
L 402.336 139.436579 
L 411.264 139.402014 
L 420.192 139.363861 
L 429.12 139.326721 
L 438.048 139.288072 
L 446.976 139.250083 
L 455.904 139.211586 
L 464.832 139.218812 
L 473.76 139.177844 
L 482.688 139.130987 
L 491.616 139.265626 
L 500.544 139.229279 
L 509.472 139.192128 
L 518.4 139.155946 
" style="fill:none;stroke:#8c564b;stroke-linecap:square;stroke-width:1.5;"/>
   </g>
   <g id="line2d_35">
    <path clip-path="url(#pbbaa67385a)" d="M 72 108.699237 
L 80.928 111.44826 
L 89.856 111.534772 
L 98.784 112.663645 
L 107.712 112.658688 
L 116.64 112.880558 
L 125.568 112.790336 
L 134.496 113.061312 
L 143.424 113.257959 
L 152.352 113.36245 
L 161.28 113.417456 
L 170.208 113.501971 
L 179.136 113.523917 
L 188.064 113.427185 
L 196.992 113.334853 
L 205.92 113.372172 
L 214.848 113.474545 
L 223.776 113.510167 
L 232.704 113.517869 
L 241.632 113.519964 
L 250.56 113.604683 
L 259.488 113.581173 
L 268.416 113.554488 
L 277.344 113.542881 
L 286.272 113.609007 
L 295.2 113.609431 
L 304.128 113.627947 
L 313.056 113.629781 
L 321.984 113.64313 
L 330.912 113.599845 
L 339.84 113.556699 
L 348.768 113.554784 
L 357.696 113.590117 
L 366.624 113.60061 
L 375.552 113.59874 
L 384.48 113.5883 
L 393.408 113.631954 
L 402.336 113.626473 
L 411.264 113.605352 
L 420.192 113.58422 
L 429.12 113.622775 
L 438.048 113.623058 
L 446.976 113.633257 
L 455.904 113.625042 
L 464.832 113.653543 
L 473.76 113.643216 
L 482.688 113.622227 
L 491.616 113.607828 
L 500.544 113.631691 
L 509.472 113.632376 
L 518.4 113.635503 
" style="fill:none;stroke:#e377c2;stroke-linecap:square;stroke-width:1.5;"/>
   </g>
   <g id="patch_3">
    <path d="M 72 384.48 
L 72 51.84 
" style="fill:none;stroke:#000000;stroke-linecap:square;stroke-linejoin:miter;stroke-width:0.8;"/>
   </g>
   <g id="patch_4">
    <path d="M 518.4 384.48 
L 518.4 51.84 
" style="fill:none;stroke:#000000;stroke-linecap:square;stroke-linejoin:miter;stroke-width:0.8;"/>
   </g>
   <g id="patch_5">
    <path d="M 72 384.48 
L 518.4 384.48 
" style="fill:none;stroke:#000000;stroke-linecap:square;stroke-linejoin:miter;stroke-width:0.8;"/>
   </g>
   <g id="patch_6">
    <path d="M 72 51.84 
L 518.4 51.84 
" style="fill:none;stroke:#000000;stroke-linecap:square;stroke-linejoin:miter;stroke-width:0.8;"/>
   </g>
   <g id="legend_1">
    <g id="patch_7">
     <path d="M 79 379.48 
L 165.804688 379.48 
Q 167.804688 379.48 167.804688 377.48 
L 167.804688 275.733125 
Q 167.804688 273.733125 165.804688 273.733125 
L 79 273.733125 
Q 77 273.733125 77 275.733125 
L 77 377.48 
Q 77 379.48 79 379.48 
z
" style="fill:#ffffff;opacity:0.8;stroke:#cccccc;stroke-linejoin:miter;"/>
    </g>
    <g id="line2d_36">
     <path d="M 81 281.831563 
L 101 281.831563 
" style="fill:none;stroke:#1f77b4;stroke-linecap:square;stroke-width:1.5;"/>
    </g>
    <g id="line2d_37"/>
    <g id="text_17">
     <!-- Constant -->
     <defs>
      <path d="M 64.40625 67.28125 
L 64.40625 56.890625 
Q 59.421875 61.53125 53.78125 63.8125 
Q 48.140625 66.109375 41.796875 66.109375 
Q 29.296875 66.109375 22.65625 58.46875 
Q 16.015625 50.828125 16.015625 36.375 
Q 16.015625 21.96875 22.65625 14.328125 
Q 29.296875 6.6875 41.796875 6.6875 
Q 48.140625 6.6875 53.78125 8.984375 
Q 59.421875 11.28125 64.40625 15.921875 
L 64.40625 5.609375 
Q 59.234375 2.09375 53.4375 0.328125 
Q 47.65625 -1.421875 41.21875 -1.421875 
Q 24.65625 -1.421875 15.125 8.703125 
Q 5.609375 18.84375 5.609375 36.375 
Q 5.609375 53.953125 15.125 64.078125 
Q 24.65625 74.21875 41.21875 74.21875 
Q 47.75 74.21875 53.53125 72.484375 
Q 59.328125 70.75 64.40625 67.28125 
z
" id="DejaVuSans-67"/>
      <path d="M 44.28125 53.078125 
L 44.28125 44.578125 
Q 40.484375 46.53125 36.375 47.5 
Q 32.28125 48.484375 27.875 48.484375 
Q 21.1875 48.484375 17.84375 46.4375 
Q 14.5 44.390625 14.5 40.28125 
Q 14.5 37.15625 16.890625 35.375 
Q 19.28125 33.59375 26.515625 31.984375 
L 29.59375 31.296875 
Q 39.15625 29.25 43.1875 25.515625 
Q 47.21875 21.78125 47.21875 15.09375 
Q 47.21875 7.46875 41.1875 3.015625 
Q 35.15625 -1.421875 24.609375 -1.421875 
Q 20.21875 -1.421875 15.453125 -0.5625 
Q 10.6875 0.296875 5.421875 2 
L 5.421875 11.28125 
Q 10.40625 8.6875 15.234375 7.390625 
Q 20.0625 6.109375 24.8125 6.109375 
Q 31.15625 6.109375 34.5625 8.28125 
Q 37.984375 10.453125 37.984375 14.40625 
Q 37.984375 18.0625 35.515625 20.015625 
Q 33.0625 21.96875 24.703125 23.78125 
L 21.578125 24.515625 
Q 13.234375 26.265625 9.515625 29.90625 
Q 5.8125 33.546875 5.8125 39.890625 
Q 5.8125 47.609375 11.28125 51.796875 
Q 16.75 56 26.8125 56 
Q 31.78125 56 36.171875 55.265625 
Q 40.578125 54.546875 44.28125 53.078125 
z
" id="DejaVuSans-115"/>
     </defs>
     <g transform="translate(109 285.331563)scale(0.1 -0.1)">
      <use xlink:href="#DejaVuSans-67"/>
      <use x="69.824219" xlink:href="#DejaVuSans-111"/>
      <use x="131.005859" xlink:href="#DejaVuSans-110"/>
      <use x="194.384766" xlink:href="#DejaVuSans-115"/>
      <use x="246.484375" xlink:href="#DejaVuSans-116"/>
      <use x="285.693359" xlink:href="#DejaVuSans-97"/>
      <use x="346.972656" xlink:href="#DejaVuSans-110"/>
      <use x="410.351562" xlink:href="#DejaVuSans-116"/>
     </g>
    </g>
    <g id="line2d_38">
     <path d="M 81 296.509688 
L 101 296.509688 
" style="fill:none;stroke:#ff7f0e;stroke-linecap:square;stroke-width:1.5;"/>
    </g>
    <g id="line2d_39"/>
    <g id="text_18">
     <!-- RBF -->
     <defs>
      <path d="M 44.390625 34.1875 
Q 47.5625 33.109375 50.5625 29.59375 
Q 53.5625 26.078125 56.59375 19.921875 
L 66.609375 0 
L 56 0 
L 46.6875 18.703125 
Q 43.0625 26.03125 39.671875 28.421875 
Q 36.28125 30.8125 30.421875 30.8125 
L 19.671875 30.8125 
L 19.671875 0 
L 9.8125 0 
L 9.8125 72.90625 
L 32.078125 72.90625 
Q 44.578125 72.90625 50.734375 67.671875 
Q 56.890625 62.453125 56.890625 51.90625 
Q 56.890625 45.015625 53.6875 40.46875 
Q 50.484375 35.9375 44.390625 34.1875 
z
M 19.671875 64.796875 
L 19.671875 38.921875 
L 32.078125 38.921875 
Q 39.203125 38.921875 42.84375 42.21875 
Q 46.484375 45.515625 46.484375 51.90625 
Q 46.484375 58.296875 42.84375 61.546875 
Q 39.203125 64.796875 32.078125 64.796875 
z
" id="DejaVuSans-82"/>
      <path d="M 19.671875 34.8125 
L 19.671875 8.109375 
L 35.5 8.109375 
Q 43.453125 8.109375 47.28125 11.40625 
Q 51.125 14.703125 51.125 21.484375 
Q 51.125 28.328125 47.28125 31.5625 
Q 43.453125 34.8125 35.5 34.8125 
z
M 19.671875 64.796875 
L 19.671875 42.828125 
L 34.28125 42.828125 
Q 41.5 42.828125 45.03125 45.53125 
Q 48.578125 48.25 48.578125 53.8125 
Q 48.578125 59.328125 45.03125 62.0625 
Q 41.5 64.796875 34.28125 64.796875 
z
M 9.8125 72.90625 
L 35.015625 72.90625 
Q 46.296875 72.90625 52.390625 68.21875 
Q 58.5 63.53125 58.5 54.890625 
Q 58.5 48.1875 55.375 44.234375 
Q 52.25 40.28125 46.1875 39.3125 
Q 53.46875 37.75 57.5 32.78125 
Q 61.53125 27.828125 61.53125 20.40625 
Q 61.53125 10.640625 54.890625 5.3125 
Q 48.25 0 35.984375 0 
L 9.8125 0 
z
" id="DejaVuSans-66"/>
      <path d="M 9.8125 72.90625 
L 51.703125 72.90625 
L 51.703125 64.59375 
L 19.671875 64.59375 
L 19.671875 43.109375 
L 48.578125 43.109375 
L 48.578125 34.8125 
L 19.671875 34.8125 
L 19.671875 0 
L 9.8125 0 
z
" id="DejaVuSans-70"/>
     </defs>
     <g transform="translate(109 300.009688)scale(0.1 -0.1)">
      <use xlink:href="#DejaVuSans-82"/>
      <use x="69.482422" xlink:href="#DejaVuSans-66"/>
      <use x="138.085938" xlink:href="#DejaVuSans-70"/>
     </g>
    </g>
    <g id="line2d_40">
     <path d="M 81 311.187813 
L 101 311.187813 
" style="fill:none;stroke:#2ca02c;stroke-linecap:square;stroke-width:1.5;"/>
    </g>
    <g id="line2d_41"/>
    <g id="text_19">
     <!-- Matrn-1/2 -->
     <defs>
      <path d="M 9.8125 72.90625 
L 24.515625 72.90625 
L 43.109375 23.296875 
L 61.8125 72.90625 
L 76.515625 72.90625 
L 76.515625 0 
L 66.890625 0 
L 66.890625 64.015625 
L 48.09375 14.015625 
L 38.1875 14.015625 
L 19.390625 64.015625 
L 19.390625 0 
L 9.8125 0 
z
" id="DejaVuSans-77"/>
      <path d="M 56.203125 29.59375 
L 56.203125 25.203125 
L 14.890625 25.203125 
Q 15.484375 15.921875 20.484375 11.0625 
Q 25.484375 6.203125 34.421875 6.203125 
Q 39.59375 6.203125 44.453125 7.46875 
Q 49.3125 8.734375 54.109375 11.28125 
L 54.109375 2.78125 
Q 49.265625 0.734375 44.1875 -0.34375 
Q 39.109375 -1.421875 33.890625 -1.421875 
Q 20.796875 -1.421875 13.15625 6.1875 
Q 5.515625 13.8125 5.515625 26.8125 
Q 5.515625 40.234375 12.765625 48.109375 
Q 20.015625 56 32.328125 56 
Q 43.359375 56 49.78125 48.890625 
Q 56.203125 41.796875 56.203125 29.59375 
z
M 47.21875 32.234375 
Q 47.125 39.59375 43.09375 43.984375 
Q 39.0625 48.390625 32.421875 48.390625 
Q 24.90625 48.390625 20.390625 44.140625 
Q 15.875 39.890625 15.1875 32.171875 
z
M 38.53125 79.984375 
L 48.25 79.984375 
L 32.34375 61.625 
L 24.859375 61.625 
z
" id="DejaVuSans-233"/>
      <path d="M 4.890625 31.390625 
L 31.203125 31.390625 
L 31.203125 23.390625 
L 4.890625 23.390625 
z
" id="DejaVuSans-45"/>
      <path d="M 25.390625 72.90625 
L 33.6875 72.90625 
L 8.296875 -9.28125 
L 0 -9.28125 
z
" id="DejaVuSans-47"/>
     </defs>
     <g transform="translate(109 314.687813)scale(0.1 -0.1)">
      <use xlink:href="#DejaVuSans-77"/>
      <use x="86.279297" xlink:href="#DejaVuSans-97"/>
      <use x="147.558594" xlink:href="#DejaVuSans-116"/>
      <use x="186.767578" xlink:href="#DejaVuSans-233"/>
      <use x="248.291016" xlink:href="#DejaVuSans-114"/>
      <use x="287.654297" xlink:href="#DejaVuSans-110"/>
      <use x="351.033203" xlink:href="#DejaVuSans-45"/>
      <use x="387.117188" xlink:href="#DejaVuSans-49"/>
      <use x="450.740234" xlink:href="#DejaVuSans-47"/>
      <use x="484.431641" xlink:href="#DejaVuSans-50"/>
     </g>
    </g>
    <g id="line2d_42">
     <path d="M 81 325.865938 
L 101 325.865938 
" style="fill:none;stroke:#d62728;stroke-linecap:square;stroke-width:1.5;"/>
    </g>
    <g id="line2d_43"/>
    <g id="text_20">
     <!-- Matrn-3/2 -->
     <g transform="translate(109 329.365938)scale(0.1 -0.1)">
      <use xlink:href="#DejaVuSans-77"/>
      <use x="86.279297" xlink:href="#DejaVuSans-97"/>
      <use x="147.558594" xlink:href="#DejaVuSans-116"/>
      <use x="186.767578" xlink:href="#DejaVuSans-233"/>
      <use x="248.291016" xlink:href="#DejaVuSans-114"/>
      <use x="287.654297" xlink:href="#DejaVuSans-110"/>
      <use x="351.033203" xlink:href="#DejaVuSans-45"/>
      <use x="387.117188" xlink:href="#DejaVuSans-51"/>
      <use x="450.740234" xlink:href="#DejaVuSans-47"/>
      <use x="484.431641" xlink:href="#DejaVuSans-50"/>
     </g>
    </g>
    <g id="line2d_44">
     <path d="M 81 340.544062 
L 101 340.544062 
" style="fill:none;stroke:#9467bd;stroke-linecap:square;stroke-width:1.5;"/>
    </g>
    <g id="line2d_45"/>
    <g id="text_21">
     <!-- Matrn-5/2 -->
     <g transform="translate(109 344.044062)scale(0.1 -0.1)">
      <use xlink:href="#DejaVuSans-77"/>
      <use x="86.279297" xlink:href="#DejaVuSans-97"/>
      <use x="147.558594" xlink:href="#DejaVuSans-116"/>
      <use x="186.767578" xlink:href="#DejaVuSans-233"/>
      <use x="248.291016" xlink:href="#DejaVuSans-114"/>
      <use x="287.654297" xlink:href="#DejaVuSans-110"/>
      <use x="351.033203" xlink:href="#DejaVuSans-45"/>
      <use x="387.117188" xlink:href="#DejaVuSans-53"/>
      <use x="450.740234" xlink:href="#DejaVuSans-47"/>
      <use x="484.431641" xlink:href="#DejaVuSans-50"/>
     </g>
    </g>
    <g id="line2d_46">
     <path d="M 81 355.222188 
L 101 355.222188 
" style="fill:none;stroke:#8c564b;stroke-linecap:square;stroke-width:1.5;"/>
    </g>
    <g id="line2d_47"/>
    <g id="text_22">
     <!-- RQ -->
     <defs>
      <path d="M 39.40625 66.21875 
Q 28.65625 66.21875 22.328125 58.203125 
Q 16.015625 50.203125 16.015625 36.375 
Q 16.015625 22.609375 22.328125 14.59375 
Q 28.65625 6.59375 39.40625 6.59375 
Q 50.140625 6.59375 56.421875 14.59375 
Q 62.703125 22.609375 62.703125 36.375 
Q 62.703125 50.203125 56.421875 58.203125 
Q 50.140625 66.21875 39.40625 66.21875 
z
M 53.21875 1.3125 
L 66.21875 -12.890625 
L 54.296875 -12.890625 
L 43.5 -1.21875 
Q 41.890625 -1.3125 41.03125 -1.359375 
Q 40.1875 -1.421875 39.40625 -1.421875 
Q 24.03125 -1.421875 14.8125 8.859375 
Q 5.609375 19.140625 5.609375 36.375 
Q 5.609375 53.65625 14.8125 63.9375 
Q 24.03125 74.21875 39.40625 74.21875 
Q 54.734375 74.21875 63.90625 63.9375 
Q 73.09375 53.65625 73.09375 36.375 
Q 73.09375 23.6875 67.984375 14.640625 
Q 62.890625 5.609375 53.21875 1.3125 
z
" id="DejaVuSans-81"/>
     </defs>
     <g transform="translate(109 358.722188)scale(0.1 -0.1)">
      <use xlink:href="#DejaVuSans-82"/>
      <use x="69.482422" xlink:href="#DejaVuSans-81"/>
     </g>
    </g>
    <g id="line2d_48">
     <path d="M 81 369.900313 
L 101 369.900313 
" style="fill:none;stroke:#e377c2;stroke-linecap:square;stroke-width:1.5;"/>
    </g>
    <g id="line2d_49"/>
    <g id="text_23">
     <!-- Dot Prod. -->
     <defs>
      <path d="M 19.671875 64.796875 
L 19.671875 8.109375 
L 31.59375 8.109375 
Q 46.6875 8.109375 53.6875 14.9375 
Q 60.6875 21.78125 60.6875 36.53125 
Q 60.6875 51.171875 53.6875 57.984375 
Q 46.6875 64.796875 31.59375 64.796875 
z
M 9.8125 72.90625 
L 30.078125 72.90625 
Q 51.265625 72.90625 61.171875 64.09375 
Q 71.09375 55.28125 71.09375 36.53125 
Q 71.09375 17.671875 61.125 8.828125 
Q 51.171875 0 30.078125 0 
L 9.8125 0 
z
" id="DejaVuSans-68"/>
      <path d="M 19.671875 64.796875 
L 19.671875 37.40625 
L 32.078125 37.40625 
Q 38.96875 37.40625 42.71875 40.96875 
Q 46.484375 44.53125 46.484375 51.125 
Q 46.484375 57.671875 42.71875 61.234375 
Q 38.96875 64.796875 32.078125 64.796875 
z
M 9.8125 72.90625 
L 32.078125 72.90625 
Q 44.34375 72.90625 50.609375 67.359375 
Q 56.890625 61.8125 56.890625 51.125 
Q 56.890625 40.328125 50.609375 34.8125 
Q 44.34375 29.296875 32.078125 29.296875 
L 19.671875 29.296875 
L 19.671875 0 
L 9.8125 0 
z
" id="DejaVuSans-80"/>
      <path d="M 10.6875 12.40625 
L 21 12.40625 
L 21 0 
L 10.6875 0 
z
" id="DejaVuSans-46"/>
     </defs>
     <g transform="translate(109 373.400313)scale(0.1 -0.1)">
      <use xlink:href="#DejaVuSans-68"/>
      <use x="77.001953" xlink:href="#DejaVuSans-111"/>
      <use x="138.183594" xlink:href="#DejaVuSans-116"/>
      <use x="177.392578" xlink:href="#DejaVuSans-32"/>
      <use x="209.179688" xlink:href="#DejaVuSans-80"/>
      <use x="267.732422" xlink:href="#DejaVuSans-114"/>
      <use x="306.595703" xlink:href="#DejaVuSans-111"/>
      <use x="367.777344" xlink:href="#DejaVuSans-100"/>
      <use x="431.253906" xlink:href="#DejaVuSans-46"/>
     </g>
    </g>
   </g>
  </g>
 </g>
 <defs>
  <clipPath id="pbbaa67385a">
   <rect height="332.64" width="446.4" x="72" y="51.84"/>
  </clipPath>
 </defs>
</svg>
