<?xml version="1.0" encoding="utf-8" standalone="no"?>
<!DOCTYPE svg PUBLIC "-//W3C//DTD SVG 1.1//EN"
  "http://www.w3.org/Graphics/SVG/1.1/DTD/svg11.dtd">
<!-- Created with matplotlib (https://matplotlib.org/) -->
<svg height="432pt" version="1.1" viewBox="0 0 576 432" width="576pt" xmlns="http://www.w3.org/2000/svg" xmlns:xlink="http://www.w3.org/1999/xlink">
 <defs>
  <style type="text/css">
*{stroke-linecap:butt;stroke-linejoin:round;}
  </style>
 </defs>
 <g id="figure_1">
  <g id="patch_1">
   <path d="M 0 432 
L 576 432 
L 576 0 
L 0 0 
z
" style="fill:#ffffff;"/>
  </g>
  <g id="axes_1">
   <g id="patch_2">
    <path d="M 72 384.48 
L 518.4 384.48 
L 518.4 51.84 
L 72 51.84 
z
" style="fill:#ffffff;"/>
   </g>
   <g id="PolyCollection_1">
    <path clip-path="url(#pd037c6df77)" d="M 80.928 244.406002 
L 80.928 229.67529 
L 89.856 226.927213 
L 98.784 4.651263 
L 98.784 229.411856 
L 98.784 229.411856 
L 89.856 270.118888 
L 80.928 244.406002 
z
" style="fill:#1f77b4;fill-opacity:0.3;"/>
    <path clip-path="url(#pd037c6df77)" d="M 116.64 331.870831 
L 116.64 249.788652 
L 125.568 -3.871522 
L 134.496 347.398761 
L 143.424 -35.543465 
L 143.424 152.218203 
L 143.424 152.218203 
L 134.496 347.39915 
L 125.568 -3.871522 
L 116.64 331.870831 
z
" style="fill:#1f77b4;fill-opacity:0.3;"/>
    <path clip-path="url(#pd037c6df77)" d="M 161.28 -22.454808 
L 161.28 -32.5588 
L 170.208 5.583568 
L 179.136 -57.091612 
L 188.064 -43.588447 
L 196.992 -35.273411 
L 205.92 -6.684099 
L 205.92 237.568214 
L 205.92 237.568214 
L 196.992 -35.273411 
L 188.064 186.116862 
L 179.136 177.63737 
L 170.208 305.0583 
L 161.28 -22.454808 
z
" style="fill:#1f77b4;fill-opacity:0.3;"/>
    <path clip-path="url(#pd037c6df77)" d="M 232.704 213.689123 
L 232.704 4.867056 
L 241.632 -77.878245 
L 250.56 355.446366 
L 259.488 355.869297 
L 268.416 -44.805378 
L 277.344 -45.863342 
L 286.272 357.038763 
L 295.2 357.397007 
L 304.128 357.750744 
L 313.056 358.081442 
L 321.984 -86.769881 
L 330.912 -30.786895 
L 339.84 -28.721358 
L 348.768 359.327308 
L 348.768 359.337307 
L 348.768 359.337307 
L 339.84 11.809155 
L 330.912 -12.628278 
L 321.984 313.443033 
L 313.056 358.094836 
L 304.128 357.7567 
L 295.2 357.400685 
L 286.272 357.039119 
L 277.344 -45.863342 
L 268.416 -21.077922 
L 259.488 355.871283 
L 250.56 355.449961 
L 241.632 311.278248 
L 232.704 213.689123 
z
" style="fill:#1f77b4;fill-opacity:0.3;"/>
    <path clip-path="url(#pd037c6df77)" d="M 366.624 -38.958267 
L 366.624 -38.958267 
L 375.552 360.187303 
L 384.48 -40.700934 
L 384.48 -40.700934 
L 384.48 -40.700934 
L 375.552 360.202296 
L 366.624 -38.958267 
z
" style="fill:#1f77b4;fill-opacity:0.3;"/>
    <path clip-path="url(#pd037c6df77)" d="M 402.336 315.116268 
L 402.336 -92.749101 
L 411.264 6.057012 
L 420.192 0.174711 
L 429.12 -81.850468 
L 438.048 -48.546874 
L 446.976 -83.409874 
L 446.976 317.166688 
L 446.976 317.166688 
L 438.048 -48.546874 
L 429.12 316.86971 
L 420.192 397.960578 
L 411.264 397.137375 
L 402.336 315.116268 
z
" style="fill:#1f77b4;fill-opacity:0.3;"/>
    <path clip-path="url(#pd037c6df77)" d="M 473.76 362.875626 
L 473.76 362.831755 
L 482.688 -77.306224 
L 491.616 -50.276127 
L 500.544 -51.967949 
L 509.472 -9.08483 
L 509.472 401.288263 
L 509.472 401.288263 
L 500.544 -51.967949 
L 491.616 -44.688368 
L 482.688 318.536064 
L 473.76 362.875626 
z
" style="fill:#1f77b4;fill-opacity:0.3;"/>
   </g>
   <g id="PolyCollection_2">
    <path clip-path="url(#pd037c6df77)" d="M 72 160.016838 
L 72 109.76318 
L 80.928 102.443655 
L 89.856 111.515296 
L 98.784 85.117091 
L 107.712 85.127467 
L 116.64 85.137853 
L 125.568 85.137853 
L 134.496 85.137853 
L 143.424 85.137853 
L 152.352 85.137853 
L 161.28 85.137853 
L 170.208 85.137853 
L 179.136 85.137853 
L 188.064 85.137853 
L 196.992 85.137853 
L 205.92 85.137853 
L 214.848 85.137853 
L 223.776 85.137853 
L 232.704 85.137853 
L 241.632 85.137853 
L 250.56 85.137853 
L 259.488 85.137853 
L 268.416 85.137853 
L 277.344 85.137853 
L 286.272 85.137853 
L 295.2 85.137853 
L 304.128 85.137853 
L 313.056 85.137853 
L 321.984 85.137853 
L 330.912 85.137853 
L 339.84 85.137853 
L 348.768 85.137853 
L 357.696 85.137853 
L 366.624 85.137853 
L 375.552 85.137853 
L 384.48 85.137853 
L 393.408 85.137853 
L 402.336 85.137853 
L 411.264 85.137853 
L 420.192 85.137853 
L 429.12 85.137853 
L 438.048 85.137853 
L 446.976 85.137853 
L 455.904 85.137853 
L 464.832 85.137853 
L 473.76 85.137853 
L 482.688 85.137853 
L 491.616 85.137853 
L 500.544 85.137853 
L 509.472 85.137853 
L 518.4 85.137853 
L 518.4 85.137855 
L 518.4 85.137855 
L 509.472 85.137855 
L 500.544 85.137855 
L 491.616 85.137855 
L 482.688 85.137855 
L 473.76 85.137855 
L 464.832 85.137855 
L 455.904 85.137855 
L 446.976 85.137855 
L 438.048 85.137855 
L 429.12 85.137855 
L 420.192 85.137855 
L 411.264 85.137855 
L 402.336 85.137855 
L 393.408 85.137855 
L 384.48 85.137855 
L 375.552 85.137855 
L 366.624 85.137855 
L 357.696 85.137855 
L 348.768 85.137855 
L 339.84 85.137855 
L 330.912 85.137855 
L 321.984 85.137855 
L 313.056 85.137855 
L 304.128 85.137855 
L 295.2 85.137855 
L 286.272 85.137855 
L 277.344 85.137855 
L 268.416 85.137855 
L 259.488 85.137855 
L 250.56 85.137855 
L 241.632 85.137855 
L 232.704 85.137855 
L 223.776 85.137855 
L 214.848 85.137855 
L 205.92 85.137855 
L 196.992 85.137855 
L 188.064 85.137855 
L 179.136 85.137855 
L 170.208 85.137855 
L 161.28 85.137855 
L 152.352 85.137855 
L 143.424 85.137855 
L 134.496 85.137855 
L 125.568 85.137855 
L 116.64 85.137855 
L 107.712 85.127469 
L 98.784 85.117093 
L 89.856 163.12486 
L 80.928 146.124678 
L 72 160.016838 
z
" style="fill:#ff7f0e;fill-opacity:0.3;"/>
   </g>
   <g id="PolyCollection_3">
    <path clip-path="url(#pd037c6df77)" d="M 72 117.647967 
L 72 95.043741 
L 80.928 102.944487 
L 89.856 108.909167 
L 98.784 108.766624 
L 107.712 112.831176 
L 116.64 115.707178 
L 125.568 117.34112 
L 134.496 113.373133 
L 143.424 115.805169 
L 152.352 117.243479 
L 161.28 119.340249 
L 170.208 120.721339 
L 179.136 122.135603 
L 188.064 123.601231 
L 196.992 124.402984 
L 205.92 118.973534 
L 214.848 120.240256 
L 223.776 121.009757 
L 232.704 121.76151 
L 241.632 122.479107 
L 250.56 123.198042 
L 259.488 123.905372 
L 268.416 124.617744 
L 277.344 125.299337 
L 286.272 126.0135 
L 295.2 126.725278 
L 304.128 127.853114 
L 313.056 128.578742 
L 321.984 129.343821 
L 330.912 130.109576 
L 339.84 130.511448 
L 348.768 124.792006 
L 357.696 125.451626 
L 366.624 125.847407 
L 375.552 126.235888 
L 384.48 126.61779 
L 393.408 126.997164 
L 402.336 127.367279 
L 411.264 127.7414 
L 420.192 128.100327 
L 429.12 128.468669 
L 438.048 132.75806 
L 446.976 133.208363 
L 455.904 133.647345 
L 464.832 134.089312 
L 473.76 134.523358 
L 482.688 134.963465 
L 491.616 135.40242 
L 500.544 135.828847 
L 509.472 136.265099 
L 518.4 136.70311 
L 518.4 144.203861 
L 518.4 144.203861 
L 509.472 143.780719 
L 500.544 143.361038 
L 491.616 142.956033 
L 482.688 142.535778 
L 473.76 142.115992 
L 464.832 141.706713 
L 455.904 141.289607 
L 446.976 140.879671 
L 438.048 140.458456 
L 429.12 142.913177 
L 420.192 142.42203 
L 411.264 141.943375 
L 402.336 141.444526 
L 393.408 140.950947 
L 384.48 140.44508 
L 375.552 139.935802 
L 366.624 139.417792 
L 357.696 138.890072 
L 348.768 138.01155 
L 339.84 145.637247 
L 330.912 145.10136 
L 321.984 144.081496 
L 313.056 143.061249 
L 304.128 142.094842 
L 295.2 140.595378 
L 286.272 139.645949 
L 277.344 138.693199 
L 268.416 137.784111 
L 259.488 136.833932 
L 250.56 135.89033 
L 241.632 134.931203 
L 232.704 133.973761 
L 223.776 132.97112 
L 214.848 131.944858 
L 205.92 130.265535 
L 196.992 137.502296 
L 188.064 136.432721 
L 179.136 134.484202 
L 170.208 132.602537 
L 161.28 130.760146 
L 152.352 127.975493 
L 143.424 126.05334 
L 134.496 122.908263 
L 125.568 128.872268 
L 116.64 126.7467 
L 107.712 123.12642 
L 98.784 118.281469 
L 89.856 122.435033 
L 80.928 116.884946 
L 72 117.647967 
z
" style="fill:#2ca02c;fill-opacity:0.3;"/>
   </g>
   <g id="PolyCollection_4">
    <path clip-path="url(#pd037c6df77)" d="M 72 139.077347 
L 72 103.735958 
L 80.928 104.741676 
L 89.856 112.85623 
L 98.784 107.217456 
L 107.712 114.016256 
L 116.64 119.543415 
L 125.568 122.097534 
L 134.496 110.156067 
L 143.424 115.720172 
L 152.352 118.062811 
L 161.28 122.613578 
L 170.208 124.903251 
L 179.136 125.910072 
L 188.064 129.667123 
L 196.992 130.721255 
L 205.92 85.137737 
L 214.848 85.137737 
L 223.776 85.137737 
L 232.704 85.137737 
L 241.632 77.314542 
L 250.56 76.409121 
L 259.488 119.973747 
L 268.416 123.797607 
L 277.344 124.632049 
L 286.272 125.630619 
L 295.2 126.623053 
L 304.128 129.761129 
L 313.056 135.024308 
L 321.984 131.01618 
L 330.912 133.286978 
L 339.84 137.991271 
L 348.768 85.137737 
L 357.696 85.137737 
L 366.624 85.137737 
L 375.552 85.137737 
L 384.48 85.137737 
L 393.408 85.137737 
L 402.336 85.137737 
L 411.264 85.137737 
L 420.192 85.137737 
L 429.12 85.137737 
L 438.048 85.137737 
L 446.976 85.137737 
L 455.904 85.137737 
L 464.832 85.137737 
L 473.76 85.137737 
L 482.688 85.137737 
L 491.616 85.137737 
L 500.544 85.137737 
L 509.472 85.137737 
L 518.4 85.137737 
L 518.4 85.138011 
L 518.4 85.138011 
L 509.472 85.138011 
L 500.544 85.138011 
L 491.616 85.138011 
L 482.688 85.138011 
L 473.76 85.138011 
L 464.832 85.138011 
L 455.904 85.138011 
L 446.976 85.138011 
L 438.048 85.138011 
L 429.12 85.138011 
L 420.192 85.138011 
L 411.264 85.138011 
L 402.336 85.138011 
L 393.408 85.138011 
L 384.48 85.138011 
L 375.552 85.138011 
L 366.624 85.138011 
L 357.696 85.138011 
L 348.768 85.138011 
L 339.84 165.150618 
L 330.912 165.864558 
L 321.984 162.060542 
L 313.056 160.671582 
L 304.128 159.952526 
L 295.2 154.822617 
L 286.272 153.130421 
L 277.344 151.437646 
L 268.416 150.020769 
L 259.488 149.1753 
L 250.56 122.789815 
L 241.632 96.974207 
L 232.704 85.138011 
L 223.776 85.138011 
L 214.848 85.138011 
L 205.92 85.138011 
L 196.992 154.433978 
L 188.064 152.823627 
L 179.136 147.142579 
L 170.208 145.596121 
L 161.28 142.141285 
L 152.352 135.800203 
L 143.424 132.138682 
L 134.496 124.514843 
L 125.568 144.124173 
L 116.64 140.553292 
L 107.712 132.092747 
L 98.784 124.820183 
L 89.856 141.141252 
L 80.928 130.835735 
L 72 139.077347 
z
" style="fill:#d62728;fill-opacity:0.3;"/>
   </g>
   <g id="PolyCollection_5">
    <path clip-path="url(#pd037c6df77)" d="M 72 146.149512 
L 72 106.317554 
L 80.928 103.80288 
L 89.856 112.015249 
L 98.784 103.037503 
L 107.712 106.958281 
L 116.64 111.972213 
L 125.568 114.743138 
L 134.496 85.137854 
L 143.424 85.137854 
L 152.352 85.137854 
L 161.28 85.137854 
L 170.208 78.72813 
L 179.136 78.825819 
L 188.064 77.945852 
L 196.992 77.740544 
L 205.92 80.690441 
L 214.848 79.837939 
L 223.776 79.581568 
L 232.704 79.237957 
L 241.632 79.074881 
L 250.56 78.915625 
L 259.488 78.610343 
L 268.416 78.425412 
L 277.344 78.383364 
L 286.272 78.171156 
L 295.2 77.9846 
L 304.128 77.076204 
L 313.056 76.893315 
L 321.984 77.196208 
L 330.912 76.494037 
L 339.84 76.383604 
L 348.768 79.647393 
L 357.696 79.107814 
L 366.624 78.964809 
L 375.552 78.819537 
L 384.48 78.691122 
L 393.408 78.55067 
L 402.336 78.405 
L 411.264 78.275364 
L 420.192 78.168719 
L 429.12 78.032471 
L 438.048 77.896876 
L 446.976 77.674495 
L 455.904 77.586577 
L 464.832 77.552297 
L 473.76 77.360929 
L 482.688 77.264046 
L 491.616 77.314053 
L 500.544 77.192668 
L 509.472 77.092086 
L 518.4 76.986597 
L 518.4 96.006196 
L 518.4 96.006196 
L 509.472 95.865545 
L 500.544 95.731435 
L 491.616 95.569589 
L 482.688 95.636265 
L 473.76 95.507088 
L 464.832 95.25193 
L 455.904 95.206223 
L 446.976 95.088999 
L 438.048 94.792492 
L 429.12 94.611698 
L 420.192 94.430034 
L 411.264 94.287841 
L 402.336 94.114993 
L 393.408 93.920767 
L 384.48 93.733497 
L 375.552 93.562277 
L 366.624 93.368581 
L 357.696 93.177908 
L 348.768 92.458469 
L 339.84 96.810188 
L 330.912 96.662943 
L 321.984 95.726716 
L 313.056 96.130573 
L 304.128 95.88672 
L 295.2 94.675526 
L 286.272 94.426786 
L 277.344 94.143841 
L 268.416 94.087778 
L 259.488 93.841202 
L 250.56 93.43416 
L 241.632 93.221818 
L 232.704 93.004384 
L 223.776 92.546236 
L 214.848 92.204408 
L 205.92 91.067739 
L 196.992 95.000935 
L 188.064 94.72719 
L 179.136 93.553901 
L 170.208 93.684153 
L 161.28 85.137854 
L 152.352 85.137854 
L 143.424 85.137854 
L 134.496 85.137854 
L 125.568 151.754297 
L 116.64 146.167975 
L 107.712 133.974612 
L 98.784 126.566582 
L 89.856 148.345927 
L 80.928 134.886626 
L 72 146.149512 
z
" style="fill:#9467bd;fill-opacity:0.3;"/>
   </g>
   <g id="PolyCollection_6">
    <path clip-path="url(#pd037c6df77)" d="M 72 145.286814 
L 72 106.494387 
L 80.928 105.755542 
L 89.856 117.552945 
L 98.784 112.618742 
L 107.712 118.580007 
L 116.64 124.020744 
L 125.568 127.978794 
L 134.496 116.368934 
L 143.424 120.181468 
L 152.352 122.957396 
L 161.28 127.359898 
L 170.208 130.549088 
L 179.136 132.213203 
L 188.064 136.098547 
L 196.992 138.320304 
L 205.92 122.198877 
L 214.848 124.250071 
L 223.776 125.886998 
L 232.704 127.486121 
L 241.632 129.079862 
L 250.56 130.645654 
L 259.488 132.269285 
L 268.416 133.92149 
L 277.344 135.29176 
L 286.272 136.946881 
L 295.2 138.637946 
L 304.128 142.400578 
L 313.056 144.814787 
L 321.984 144.292149 
L 330.912 146.93087 
L 339.84 148.288774 
L 348.768 129.197447 
L 357.696 130.297978 
L 366.624 131.221172 
L 375.552 132.128401 
L 384.48 133.024791 
L 393.408 133.901562 
L 402.336 134.772694 
L 411.264 135.640681 
L 420.192 136.512066 
L 429.12 137.373822 
L 438.048 138.238374 
L 446.976 139.113831 
L 455.904 139.993745 
L 464.832 140.844944 
L 473.76 141.755471 
L 482.688 142.673797 
L 491.616 143.300286 
L 500.544 144.21426 
L 509.472 145.140174 
L 518.4 146.085493 
L 518.4 150.503394 
L 518.4 150.503394 
L 509.472 149.410475 
L 500.544 148.342502 
L 491.616 147.289406 
L 482.688 146.677152 
L 473.76 145.610253 
L 464.832 144.554054 
L 455.904 143.599088 
L 446.976 142.587004 
L 438.048 141.581297 
L 429.12 140.592714 
L 420.192 139.610339 
L 411.264 138.620227 
L 402.336 137.632325 
L 393.408 136.642711 
L 384.48 135.652566 
L 375.552 134.63567 
L 366.624 133.606559 
L 357.696 132.559647 
L 348.768 131.319613 
L 339.84 157.686765 
L 330.912 156.089841 
L 321.984 152.789637 
L 313.056 154.315568 
L 304.128 151.177578 
L 295.2 146.307555 
L 286.272 144.184099 
L 277.344 142.135531 
L 268.416 140.542205 
L 259.488 138.502125 
L 250.56 136.524664 
L 241.632 134.665175 
L 232.704 132.75562 
L 223.776 130.852567 
L 214.848 128.908761 
L 205.92 126.452286 
L 196.992 150.224102 
L 188.064 147.318611 
L 179.136 142.151872 
L 170.208 140.556826 
L 161.28 136.376003 
L 152.352 130.455581 
L 143.424 126.853074 
L 134.496 121.989048 
L 125.568 144.221298 
L 116.64 138.039055 
L 107.712 129.920048 
L 98.784 121.930773 
L 89.856 145.275656 
L 80.928 130.927948 
L 72 145.286814 
z
" style="fill:#8c564b;fill-opacity:0.3;"/>
   </g>
   <g id="PolyCollection_7">
    <path clip-path="url(#pd037c6df77)" d="M 72 265.364081 
L 72 201.468847 
L 80.928 203.654935 
L 89.856 183.79207 
L 89.856 261.820869 
L 89.856 261.820869 
L 80.928 268.413069 
L 72 265.364081 
z
" style="fill:#e377c2;fill-opacity:0.3;"/>
    <path clip-path="url(#pd037c6df77)" d="M 143.424 253.346131 
L 143.424 187.251048 
L 152.352 179.113559 
L 161.28 170.638892 
L 170.208 177.283116 
L 179.136 178.932776 
L 188.064 169.383433 
L 196.992 188.073822 
L 205.92 192.079494 
L 214.848 178.673749 
L 223.776 189.31503 
L 223.776 237.623726 
L 223.776 237.623726 
L 214.848 270.271484 
L 205.92 229.151714 
L 196.992 234.808575 
L 188.064 255.629916 
L 179.136 259.117793 
L 170.208 270.825938 
L 161.28 277.994486 
L 152.352 268.720788 
L 143.424 253.346131 
z
" style="fill:#e377c2;fill-opacity:0.3;"/>
    <path clip-path="url(#pd037c6df77)" d="M 241.632 258.625021 
L 241.632 183.674832 
L 250.56 175.729612 
L 259.488 165.803074 
L 268.416 167.290683 
L 277.344 178.07557 
L 277.344 275.248195 
L 277.344 275.248195 
L 268.416 258.988661 
L 259.488 294.951864 
L 250.56 281.846806 
L 241.632 258.625021 
z
" style="fill:#e377c2;fill-opacity:0.3;"/>
    <path clip-path="url(#pd037c6df77)" d="M 295.2 256.144019 
L 295.2 178.375127 
L 304.128 194.665019 
L 304.128 229.475999 
L 304.128 229.475999 
L 295.2 256.144019 
z
" style="fill:#e377c2;fill-opacity:0.3;"/>
    <path clip-path="url(#pd037c6df77)" d="M 339.84 272.458965 
L 339.84 167.691446 
L 339.84 272.458965 
L 339.84 272.458965 
z
" style="fill:#e377c2;fill-opacity:0.3;"/>
    <path clip-path="url(#pd037c6df77)" d="M 366.624 263.900169 
L 366.624 167.436562 
L 366.624 263.900169 
L 366.624 263.900169 
z
" style="fill:#e377c2;fill-opacity:0.3;"/>
    <path clip-path="url(#pd037c6df77)" d="M 384.48 258.915661 
L 384.48 180.440319 
L 384.48 258.915661 
L 384.48 258.915661 
z
" style="fill:#e377c2;fill-opacity:0.3;"/>
    <path clip-path="url(#pd037c6df77)" d="M 411.264 287.632689 
L 411.264 147.322736 
L 420.192 179.18441 
L 420.192 224.495249 
L 420.192 224.495249 
L 411.264 287.632689 
z
" style="fill:#e377c2;fill-opacity:0.3;"/>
    <path clip-path="url(#pd037c6df77)" d="M 455.904 311.943505 
L 455.904 156.639273 
L 455.904 311.943505 
L 455.904 311.943505 
z
" style="fill:#e377c2;fill-opacity:0.3;"/>
    <path clip-path="url(#pd037c6df77)" d="M 482.688 266.628204 
L 482.688 159.242356 
L 482.688 266.628204 
L 482.688 266.628204 
z
" style="fill:#e377c2;fill-opacity:0.3;"/>
    <path clip-path="url(#pd037c6df77)" d="M 500.544 309.022325 
L 500.544 149.079635 
L 509.472 164.991183 
L 518.4 177.635911 
L 518.4 237.576404 
L 518.4 237.576404 
L 509.472 254.324953 
L 500.544 309.022325 
z
" style="fill:#e377c2;fill-opacity:0.3;"/>
   </g>
   <g id="matplotlib.axis_1">
    <g id="xtick_1">
     <g id="line2d_1">
      <path clip-path="url(#pd037c6df77)" d="M 72 384.48 
L 72 51.84 
" style="fill:none;stroke:#b0b0b0;stroke-linecap:square;stroke-width:0.8;"/>
     </g>
     <g id="line2d_2">
      <defs>
       <path d="M 0 0 
L 0 3.5 
" id="m8029038164" style="stroke:#000000;stroke-width:0.8;"/>
      </defs>
      <g>
       <use style="stroke:#000000;stroke-width:0.8;" x="72" xlink:href="#m8029038164" y="384.48"/>
      </g>
     </g>
     <g id="text_1">
      <!-- 0 -->
      <defs>
       <path d="M 31.78125 66.40625 
Q 24.171875 66.40625 20.328125 58.90625 
Q 16.5 51.421875 16.5 36.375 
Q 16.5 21.390625 20.328125 13.890625 
Q 24.171875 6.390625 31.78125 6.390625 
Q 39.453125 6.390625 43.28125 13.890625 
Q 47.125 21.390625 47.125 36.375 
Q 47.125 51.421875 43.28125 58.90625 
Q 39.453125 66.40625 31.78125 66.40625 
z
M 31.78125 74.21875 
Q 44.046875 74.21875 50.515625 64.515625 
Q 56.984375 54.828125 56.984375 36.375 
Q 56.984375 17.96875 50.515625 8.265625 
Q 44.046875 -1.421875 31.78125 -1.421875 
Q 19.53125 -1.421875 13.0625 8.265625 
Q 6.59375 17.96875 6.59375 36.375 
Q 6.59375 54.828125 13.0625 64.515625 
Q 19.53125 74.21875 31.78125 74.21875 
z
" id="DejaVuSans-48"/>
      </defs>
      <g transform="translate(68.81875 399.078438)scale(0.1 -0.1)">
       <use xlink:href="#DejaVuSans-48"/>
      </g>
     </g>
    </g>
    <g id="xtick_2">
     <g id="line2d_3">
      <path clip-path="url(#pd037c6df77)" d="M 161.28 384.48 
L 161.28 51.84 
" style="fill:none;stroke:#b0b0b0;stroke-linecap:square;stroke-width:0.8;"/>
     </g>
     <g id="line2d_4">
      <g>
       <use style="stroke:#000000;stroke-width:0.8;" x="161.28" xlink:href="#m8029038164" y="384.48"/>
      </g>
     </g>
     <g id="text_2">
      <!-- 10 -->
      <defs>
       <path d="M 12.40625 8.296875 
L 28.515625 8.296875 
L 28.515625 63.921875 
L 10.984375 60.40625 
L 10.984375 69.390625 
L 28.421875 72.90625 
L 38.28125 72.90625 
L 38.28125 8.296875 
L 54.390625 8.296875 
L 54.390625 0 
L 12.40625 0 
z
" id="DejaVuSans-49"/>
      </defs>
      <g transform="translate(154.9175 399.078438)scale(0.1 -0.1)">
       <use xlink:href="#DejaVuSans-49"/>
       <use x="63.623047" xlink:href="#DejaVuSans-48"/>
      </g>
     </g>
    </g>
    <g id="xtick_3">
     <g id="line2d_5">
      <path clip-path="url(#pd037c6df77)" d="M 250.56 384.48 
L 250.56 51.84 
" style="fill:none;stroke:#b0b0b0;stroke-linecap:square;stroke-width:0.8;"/>
     </g>
     <g id="line2d_6">
      <g>
       <use style="stroke:#000000;stroke-width:0.8;" x="250.56" xlink:href="#m8029038164" y="384.48"/>
      </g>
     </g>
     <g id="text_3">
      <!-- 20 -->
      <defs>
       <path d="M 19.1875 8.296875 
L 53.609375 8.296875 
L 53.609375 0 
L 7.328125 0 
L 7.328125 8.296875 
Q 12.9375 14.109375 22.625 23.890625 
Q 32.328125 33.6875 34.8125 36.53125 
Q 39.546875 41.84375 41.421875 45.53125 
Q 43.3125 49.21875 43.3125 52.78125 
Q 43.3125 58.59375 39.234375 62.25 
Q 35.15625 65.921875 28.609375 65.921875 
Q 23.96875 65.921875 18.8125 64.3125 
Q 13.671875 62.703125 7.8125 59.421875 
L 7.8125 69.390625 
Q 13.765625 71.78125 18.9375 73 
Q 24.125 74.21875 28.421875 74.21875 
Q 39.75 74.21875 46.484375 68.546875 
Q 53.21875 62.890625 53.21875 53.421875 
Q 53.21875 48.921875 51.53125 44.890625 
Q 49.859375 40.875 45.40625 35.40625 
Q 44.1875 33.984375 37.640625 27.21875 
Q 31.109375 20.453125 19.1875 8.296875 
z
" id="DejaVuSans-50"/>
      </defs>
      <g transform="translate(244.1975 399.078438)scale(0.1 -0.1)">
       <use xlink:href="#DejaVuSans-50"/>
       <use x="63.623047" xlink:href="#DejaVuSans-48"/>
      </g>
     </g>
    </g>
    <g id="xtick_4">
     <g id="line2d_7">
      <path clip-path="url(#pd037c6df77)" d="M 339.84 384.48 
L 339.84 51.84 
" style="fill:none;stroke:#b0b0b0;stroke-linecap:square;stroke-width:0.8;"/>
     </g>
     <g id="line2d_8">
      <g>
       <use style="stroke:#000000;stroke-width:0.8;" x="339.84" xlink:href="#m8029038164" y="384.48"/>
      </g>
     </g>
     <g id="text_4">
      <!-- 30 -->
      <defs>
       <path d="M 40.578125 39.3125 
Q 47.65625 37.796875 51.625 33 
Q 55.609375 28.21875 55.609375 21.1875 
Q 55.609375 10.40625 48.1875 4.484375 
Q 40.765625 -1.421875 27.09375 -1.421875 
Q 22.515625 -1.421875 17.65625 -0.515625 
Q 12.796875 0.390625 7.625 2.203125 
L 7.625 11.71875 
Q 11.71875 9.328125 16.59375 8.109375 
Q 21.484375 6.890625 26.8125 6.890625 
Q 36.078125 6.890625 40.9375 10.546875 
Q 45.796875 14.203125 45.796875 21.1875 
Q 45.796875 27.640625 41.28125 31.265625 
Q 36.765625 34.90625 28.71875 34.90625 
L 20.21875 34.90625 
L 20.21875 43.015625 
L 29.109375 43.015625 
Q 36.375 43.015625 40.234375 45.921875 
Q 44.09375 48.828125 44.09375 54.296875 
Q 44.09375 59.90625 40.109375 62.90625 
Q 36.140625 65.921875 28.71875 65.921875 
Q 24.65625 65.921875 20.015625 65.03125 
Q 15.375 64.15625 9.8125 62.3125 
L 9.8125 71.09375 
Q 15.4375 72.65625 20.34375 73.4375 
Q 25.25 74.21875 29.59375 74.21875 
Q 40.828125 74.21875 47.359375 69.109375 
Q 53.90625 64.015625 53.90625 55.328125 
Q 53.90625 49.265625 50.4375 45.09375 
Q 46.96875 40.921875 40.578125 39.3125 
z
" id="DejaVuSans-51"/>
      </defs>
      <g transform="translate(333.4775 399.078438)scale(0.1 -0.1)">
       <use xlink:href="#DejaVuSans-51"/>
       <use x="63.623047" xlink:href="#DejaVuSans-48"/>
      </g>
     </g>
    </g>
    <g id="xtick_5">
     <g id="line2d_9">
      <path clip-path="url(#pd037c6df77)" d="M 429.12 384.48 
L 429.12 51.84 
" style="fill:none;stroke:#b0b0b0;stroke-linecap:square;stroke-width:0.8;"/>
     </g>
     <g id="line2d_10">
      <g>
       <use style="stroke:#000000;stroke-width:0.8;" x="429.12" xlink:href="#m8029038164" y="384.48"/>
      </g>
     </g>
     <g id="text_5">
      <!-- 40 -->
      <defs>
       <path d="M 37.796875 64.3125 
L 12.890625 25.390625 
L 37.796875 25.390625 
z
M 35.203125 72.90625 
L 47.609375 72.90625 
L 47.609375 25.390625 
L 58.015625 25.390625 
L 58.015625 17.1875 
L 47.609375 17.1875 
L 47.609375 0 
L 37.796875 0 
L 37.796875 17.1875 
L 4.890625 17.1875 
L 4.890625 26.703125 
z
" id="DejaVuSans-52"/>
      </defs>
      <g transform="translate(422.7575 399.078438)scale(0.1 -0.1)">
       <use xlink:href="#DejaVuSans-52"/>
       <use x="63.623047" xlink:href="#DejaVuSans-48"/>
      </g>
     </g>
    </g>
    <g id="xtick_6">
     <g id="line2d_11">
      <path clip-path="url(#pd037c6df77)" d="M 518.4 384.48 
L 518.4 51.84 
" style="fill:none;stroke:#b0b0b0;stroke-linecap:square;stroke-width:0.8;"/>
     </g>
     <g id="line2d_12">
      <g>
       <use style="stroke:#000000;stroke-width:0.8;" x="518.4" xlink:href="#m8029038164" y="384.48"/>
      </g>
     </g>
     <g id="text_6">
      <!-- 50 -->
      <defs>
       <path d="M 10.796875 72.90625 
L 49.515625 72.90625 
L 49.515625 64.59375 
L 19.828125 64.59375 
L 19.828125 46.734375 
Q 21.96875 47.46875 24.109375 47.828125 
Q 26.265625 48.1875 28.421875 48.1875 
Q 40.625 48.1875 47.75 41.5 
Q 54.890625 34.8125 54.890625 23.390625 
Q 54.890625 11.625 47.5625 5.09375 
Q 40.234375 -1.421875 26.90625 -1.421875 
Q 22.3125 -1.421875 17.546875 -0.640625 
Q 12.796875 0.140625 7.71875 1.703125 
L 7.71875 11.625 
Q 12.109375 9.234375 16.796875 8.0625 
Q 21.484375 6.890625 26.703125 6.890625 
Q 35.15625 6.890625 40.078125 11.328125 
Q 45.015625 15.765625 45.015625 23.390625 
Q 45.015625 31 40.078125 35.4375 
Q 35.15625 39.890625 26.703125 39.890625 
Q 22.75 39.890625 18.8125 39.015625 
Q 14.890625 38.140625 10.796875 36.28125 
z
" id="DejaVuSans-53"/>
      </defs>
      <g transform="translate(512.0375 399.078438)scale(0.1 -0.1)">
       <use xlink:href="#DejaVuSans-53"/>
       <use x="63.623047" xlink:href="#DejaVuSans-48"/>
      </g>
     </g>
    </g>
    <g id="text_7">
     <!-- Iteration -->
     <defs>
      <path d="M 9.8125 72.90625 
L 19.671875 72.90625 
L 19.671875 0 
L 9.8125 0 
z
" id="DejaVuSans-73"/>
      <path d="M 18.3125 70.21875 
L 18.3125 54.6875 
L 36.8125 54.6875 
L 36.8125 47.703125 
L 18.3125 47.703125 
L 18.3125 18.015625 
Q 18.3125 11.328125 20.140625 9.421875 
Q 21.96875 7.515625 27.59375 7.515625 
L 36.8125 7.515625 
L 36.8125 0 
L 27.59375 0 
Q 17.1875 0 13.234375 3.875 
Q 9.28125 7.765625 9.28125 18.015625 
L 9.28125 47.703125 
L 2.6875 47.703125 
L 2.6875 54.6875 
L 9.28125 54.6875 
L 9.28125 70.21875 
z
" id="DejaVuSans-116"/>
      <path d="M 56.203125 29.59375 
L 56.203125 25.203125 
L 14.890625 25.203125 
Q 15.484375 15.921875 20.484375 11.0625 
Q 25.484375 6.203125 34.421875 6.203125 
Q 39.59375 6.203125 44.453125 7.46875 
Q 49.3125 8.734375 54.109375 11.28125 
L 54.109375 2.78125 
Q 49.265625 0.734375 44.1875 -0.34375 
Q 39.109375 -1.421875 33.890625 -1.421875 
Q 20.796875 -1.421875 13.15625 6.1875 
Q 5.515625 13.8125 5.515625 26.8125 
Q 5.515625 40.234375 12.765625 48.109375 
Q 20.015625 56 32.328125 56 
Q 43.359375 56 49.78125 48.890625 
Q 56.203125 41.796875 56.203125 29.59375 
z
M 47.21875 32.234375 
Q 47.125 39.59375 43.09375 43.984375 
Q 39.0625 48.390625 32.421875 48.390625 
Q 24.90625 48.390625 20.390625 44.140625 
Q 15.875 39.890625 15.1875 32.171875 
z
" id="DejaVuSans-101"/>
      <path d="M 41.109375 46.296875 
Q 39.59375 47.171875 37.8125 47.578125 
Q 36.03125 48 33.890625 48 
Q 26.265625 48 22.1875 43.046875 
Q 18.109375 38.09375 18.109375 28.8125 
L 18.109375 0 
L 9.078125 0 
L 9.078125 54.6875 
L 18.109375 54.6875 
L 18.109375 46.1875 
Q 20.953125 51.171875 25.484375 53.578125 
Q 30.03125 56 36.53125 56 
Q 37.453125 56 38.578125 55.875 
Q 39.703125 55.765625 41.0625 55.515625 
z
" id="DejaVuSans-114"/>
      <path d="M 34.28125 27.484375 
Q 23.390625 27.484375 19.1875 25 
Q 14.984375 22.515625 14.984375 16.5 
Q 14.984375 11.71875 18.140625 8.90625 
Q 21.296875 6.109375 26.703125 6.109375 
Q 34.1875 6.109375 38.703125 11.40625 
Q 43.21875 16.703125 43.21875 25.484375 
L 43.21875 27.484375 
z
M 52.203125 31.203125 
L 52.203125 0 
L 43.21875 0 
L 43.21875 8.296875 
Q 40.140625 3.328125 35.546875 0.953125 
Q 30.953125 -1.421875 24.3125 -1.421875 
Q 15.921875 -1.421875 10.953125 3.296875 
Q 6 8.015625 6 15.921875 
Q 6 25.140625 12.171875 29.828125 
Q 18.359375 34.515625 30.609375 34.515625 
L 43.21875 34.515625 
L 43.21875 35.40625 
Q 43.21875 41.609375 39.140625 45 
Q 35.0625 48.390625 27.6875 48.390625 
Q 23 48.390625 18.546875 47.265625 
Q 14.109375 46.140625 10.015625 43.890625 
L 10.015625 52.203125 
Q 14.9375 54.109375 19.578125 55.046875 
Q 24.21875 56 28.609375 56 
Q 40.484375 56 46.34375 49.84375 
Q 52.203125 43.703125 52.203125 31.203125 
z
" id="DejaVuSans-97"/>
      <path d="M 9.421875 54.6875 
L 18.40625 54.6875 
L 18.40625 0 
L 9.421875 0 
z
M 9.421875 75.984375 
L 18.40625 75.984375 
L 18.40625 64.59375 
L 9.421875 64.59375 
z
" id="DejaVuSans-105"/>
      <path d="M 30.609375 48.390625 
Q 23.390625 48.390625 19.1875 42.75 
Q 14.984375 37.109375 14.984375 27.296875 
Q 14.984375 17.484375 19.15625 11.84375 
Q 23.34375 6.203125 30.609375 6.203125 
Q 37.796875 6.203125 41.984375 11.859375 
Q 46.1875 17.53125 46.1875 27.296875 
Q 46.1875 37.015625 41.984375 42.703125 
Q 37.796875 48.390625 30.609375 48.390625 
z
M 30.609375 56 
Q 42.328125 56 49.015625 48.375 
Q 55.71875 40.765625 55.71875 27.296875 
Q 55.71875 13.875 49.015625 6.21875 
Q 42.328125 -1.421875 30.609375 -1.421875 
Q 18.84375 -1.421875 12.171875 6.21875 
Q 5.515625 13.875 5.515625 27.296875 
Q 5.515625 40.765625 12.171875 48.375 
Q 18.84375 56 30.609375 56 
z
" id="DejaVuSans-111"/>
      <path d="M 54.890625 33.015625 
L 54.890625 0 
L 45.90625 0 
L 45.90625 32.71875 
Q 45.90625 40.484375 42.875 44.328125 
Q 39.84375 48.1875 33.796875 48.1875 
Q 26.515625 48.1875 22.3125 43.546875 
Q 18.109375 38.921875 18.109375 30.90625 
L 18.109375 0 
L 9.078125 0 
L 9.078125 54.6875 
L 18.109375 54.6875 
L 18.109375 46.1875 
Q 21.34375 51.125 25.703125 53.5625 
Q 30.078125 56 35.796875 56 
Q 45.21875 56 50.046875 50.171875 
Q 54.890625 44.34375 54.890625 33.015625 
z
" id="DejaVuSans-110"/>
     </defs>
     <g transform="translate(273.991406 412.756563)scale(0.1 -0.1)">
      <use xlink:href="#DejaVuSans-73"/>
      <use x="29.492188" xlink:href="#DejaVuSans-116"/>
      <use x="68.701172" xlink:href="#DejaVuSans-101"/>
      <use x="130.224609" xlink:href="#DejaVuSans-114"/>
      <use x="171.337891" xlink:href="#DejaVuSans-97"/>
      <use x="232.617188" xlink:href="#DejaVuSans-116"/>
      <use x="271.826172" xlink:href="#DejaVuSans-105"/>
      <use x="299.609375" xlink:href="#DejaVuSans-111"/>
      <use x="360.791016" xlink:href="#DejaVuSans-110"/>
     </g>
    </g>
   </g>
   <g id="matplotlib.axis_2">
    <g id="ytick_1">
     <g id="line2d_13">
      <path clip-path="url(#pd037c6df77)" d="M 72 384.48 
L 518.4 384.48 
" style="fill:none;stroke:#b0b0b0;stroke-linecap:square;stroke-width:0.8;"/>
     </g>
     <g id="line2d_14">
      <defs>
       <path d="M 0 0 
L -3.5 0 
" id="m01fdfe942f" style="stroke:#000000;stroke-width:0.8;"/>
      </defs>
      <g>
       <use style="stroke:#000000;stroke-width:0.8;" x="72" xlink:href="#m01fdfe942f" y="384.48"/>
      </g>
     </g>
     <g id="text_8">
      <!-- $\mathdefault{10^{-12}}$ -->
      <defs>
       <path d="M 10.59375 35.5 
L 73.1875 35.5 
L 73.1875 27.203125 
L 10.59375 27.203125 
z
" id="DejaVuSans-8722"/>
      </defs>
      <g transform="translate(37.1 388.279219)scale(0.1 -0.1)">
       <use transform="translate(0 0.765625)" xlink:href="#DejaVuSans-49"/>
       <use transform="translate(63.623047 0.765625)" xlink:href="#DejaVuSans-48"/>
       <use transform="translate(128.203125 39.046875)scale(0.7)" xlink:href="#DejaVuSans-8722"/>
       <use transform="translate(186.855469 39.046875)scale(0.7)" xlink:href="#DejaVuSans-49"/>
       <use transform="translate(231.391602 39.046875)scale(0.7)" xlink:href="#DejaVuSans-50"/>
      </g>
     </g>
    </g>
    <g id="ytick_2">
     <g id="line2d_15">
      <path clip-path="url(#pd037c6df77)" d="M 72 336.96 
L 518.4 336.96 
" style="fill:none;stroke:#b0b0b0;stroke-linecap:square;stroke-width:0.8;"/>
     </g>
     <g id="line2d_16">
      <g>
       <use style="stroke:#000000;stroke-width:0.8;" x="72" xlink:href="#m01fdfe942f" y="336.96"/>
      </g>
     </g>
     <g id="text_9">
      <!-- $\mathdefault{10^{-10}}$ -->
      <g transform="translate(37.1 340.759219)scale(0.1 -0.1)">
       <use transform="translate(0 0.765625)" xlink:href="#DejaVuSans-49"/>
       <use transform="translate(63.623047 0.765625)" xlink:href="#DejaVuSans-48"/>
       <use transform="translate(128.203125 39.046875)scale(0.7)" xlink:href="#DejaVuSans-8722"/>
       <use transform="translate(186.855469 39.046875)scale(0.7)" xlink:href="#DejaVuSans-49"/>
       <use transform="translate(231.391602 39.046875)scale(0.7)" xlink:href="#DejaVuSans-48"/>
      </g>
     </g>
    </g>
    <g id="ytick_3">
     <g id="line2d_17">
      <path clip-path="url(#pd037c6df77)" d="M 72 289.44 
L 518.4 289.44 
" style="fill:none;stroke:#b0b0b0;stroke-linecap:square;stroke-width:0.8;"/>
     </g>
     <g id="line2d_18">
      <g>
       <use style="stroke:#000000;stroke-width:0.8;" x="72" xlink:href="#m01fdfe942f" y="289.44"/>
      </g>
     </g>
     <g id="text_10">
      <!-- $\mathdefault{10^{-8}}$ -->
      <defs>
       <path d="M 31.78125 34.625 
Q 24.75 34.625 20.71875 30.859375 
Q 16.703125 27.09375 16.703125 20.515625 
Q 16.703125 13.921875 20.71875 10.15625 
Q 24.75 6.390625 31.78125 6.390625 
Q 38.8125 6.390625 42.859375 10.171875 
Q 46.921875 13.96875 46.921875 20.515625 
Q 46.921875 27.09375 42.890625 30.859375 
Q 38.875 34.625 31.78125 34.625 
z
M 21.921875 38.8125 
Q 15.578125 40.375 12.03125 44.71875 
Q 8.5 49.078125 8.5 55.328125 
Q 8.5 64.0625 14.71875 69.140625 
Q 20.953125 74.21875 31.78125 74.21875 
Q 42.671875 74.21875 48.875 69.140625 
Q 55.078125 64.0625 55.078125 55.328125 
Q 55.078125 49.078125 51.53125 44.71875 
Q 48 40.375 41.703125 38.8125 
Q 48.828125 37.15625 52.796875 32.3125 
Q 56.78125 27.484375 56.78125 20.515625 
Q 56.78125 9.90625 50.3125 4.234375 
Q 43.84375 -1.421875 31.78125 -1.421875 
Q 19.734375 -1.421875 13.25 4.234375 
Q 6.78125 9.90625 6.78125 20.515625 
Q 6.78125 27.484375 10.78125 32.3125 
Q 14.796875 37.15625 21.921875 38.8125 
z
M 18.3125 54.390625 
Q 18.3125 48.734375 21.84375 45.5625 
Q 25.390625 42.390625 31.78125 42.390625 
Q 38.140625 42.390625 41.71875 45.5625 
Q 45.3125 48.734375 45.3125 54.390625 
Q 45.3125 60.0625 41.71875 63.234375 
Q 38.140625 66.40625 31.78125 66.40625 
Q 25.390625 66.40625 21.84375 63.234375 
Q 18.3125 60.0625 18.3125 54.390625 
z
" id="DejaVuSans-56"/>
      </defs>
      <g transform="translate(41.5 293.239219)scale(0.1 -0.1)">
       <use transform="translate(0 0.765625)" xlink:href="#DejaVuSans-49"/>
       <use transform="translate(63.623047 0.765625)" xlink:href="#DejaVuSans-48"/>
       <use transform="translate(128.203125 39.046875)scale(0.7)" xlink:href="#DejaVuSans-8722"/>
       <use transform="translate(186.855469 39.046875)scale(0.7)" xlink:href="#DejaVuSans-56"/>
      </g>
     </g>
    </g>
    <g id="ytick_4">
     <g id="line2d_19">
      <path clip-path="url(#pd037c6df77)" d="M 72 241.92 
L 518.4 241.92 
" style="fill:none;stroke:#b0b0b0;stroke-linecap:square;stroke-width:0.8;"/>
     </g>
     <g id="line2d_20">
      <g>
       <use style="stroke:#000000;stroke-width:0.8;" x="72" xlink:href="#m01fdfe942f" y="241.92"/>
      </g>
     </g>
     <g id="text_11">
      <!-- $\mathdefault{10^{-6}}$ -->
      <defs>
       <path d="M 33.015625 40.375 
Q 26.375 40.375 22.484375 35.828125 
Q 18.609375 31.296875 18.609375 23.390625 
Q 18.609375 15.53125 22.484375 10.953125 
Q 26.375 6.390625 33.015625 6.390625 
Q 39.65625 6.390625 43.53125 10.953125 
Q 47.40625 15.53125 47.40625 23.390625 
Q 47.40625 31.296875 43.53125 35.828125 
Q 39.65625 40.375 33.015625 40.375 
z
M 52.59375 71.296875 
L 52.59375 62.3125 
Q 48.875 64.0625 45.09375 64.984375 
Q 41.3125 65.921875 37.59375 65.921875 
Q 27.828125 65.921875 22.671875 59.328125 
Q 17.53125 52.734375 16.796875 39.40625 
Q 19.671875 43.65625 24.015625 45.921875 
Q 28.375 48.1875 33.59375 48.1875 
Q 44.578125 48.1875 50.953125 41.515625 
Q 57.328125 34.859375 57.328125 23.390625 
Q 57.328125 12.15625 50.6875 5.359375 
Q 44.046875 -1.421875 33.015625 -1.421875 
Q 20.359375 -1.421875 13.671875 8.265625 
Q 6.984375 17.96875 6.984375 36.375 
Q 6.984375 53.65625 15.1875 63.9375 
Q 23.390625 74.21875 37.203125 74.21875 
Q 40.921875 74.21875 44.703125 73.484375 
Q 48.484375 72.75 52.59375 71.296875 
z
" id="DejaVuSans-54"/>
      </defs>
      <g transform="translate(41.5 245.719219)scale(0.1 -0.1)">
       <use transform="translate(0 0.765625)" xlink:href="#DejaVuSans-49"/>
       <use transform="translate(63.623047 0.765625)" xlink:href="#DejaVuSans-48"/>
       <use transform="translate(128.203125 39.046875)scale(0.7)" xlink:href="#DejaVuSans-8722"/>
       <use transform="translate(186.855469 39.046875)scale(0.7)" xlink:href="#DejaVuSans-54"/>
      </g>
     </g>
    </g>
    <g id="ytick_5">
     <g id="line2d_21">
      <path clip-path="url(#pd037c6df77)" d="M 72 194.4 
L 518.4 194.4 
" style="fill:none;stroke:#b0b0b0;stroke-linecap:square;stroke-width:0.8;"/>
     </g>
     <g id="line2d_22">
      <g>
       <use style="stroke:#000000;stroke-width:0.8;" x="72" xlink:href="#m01fdfe942f" y="194.4"/>
      </g>
     </g>
     <g id="text_12">
      <!-- $\mathdefault{10^{-4}}$ -->
      <g transform="translate(41.5 198.199219)scale(0.1 -0.1)">
       <use transform="translate(0 0.684375)" xlink:href="#DejaVuSans-49"/>
       <use transform="translate(63.623047 0.684375)" xlink:href="#DejaVuSans-48"/>
       <use transform="translate(128.203125 38.965625)scale(0.7)" xlink:href="#DejaVuSans-8722"/>
       <use transform="translate(186.855469 38.965625)scale(0.7)" xlink:href="#DejaVuSans-52"/>
      </g>
     </g>
    </g>
    <g id="ytick_6">
     <g id="line2d_23">
      <path clip-path="url(#pd037c6df77)" d="M 72 146.88 
L 518.4 146.88 
" style="fill:none;stroke:#b0b0b0;stroke-linecap:square;stroke-width:0.8;"/>
     </g>
     <g id="line2d_24">
      <g>
       <use style="stroke:#000000;stroke-width:0.8;" x="72" xlink:href="#m01fdfe942f" y="146.88"/>
      </g>
     </g>
     <g id="text_13">
      <!-- $\mathdefault{10^{-2}}$ -->
      <g transform="translate(41.5 150.679219)scale(0.1 -0.1)">
       <use transform="translate(0 0.765625)" xlink:href="#DejaVuSans-49"/>
       <use transform="translate(63.623047 0.765625)" xlink:href="#DejaVuSans-48"/>
       <use transform="translate(128.203125 39.046875)scale(0.7)" xlink:href="#DejaVuSans-8722"/>
       <use transform="translate(186.855469 39.046875)scale(0.7)" xlink:href="#DejaVuSans-50"/>
      </g>
     </g>
    </g>
    <g id="ytick_7">
     <g id="line2d_25">
      <path clip-path="url(#pd037c6df77)" d="M 72 99.36 
L 518.4 99.36 
" style="fill:none;stroke:#b0b0b0;stroke-linecap:square;stroke-width:0.8;"/>
     </g>
     <g id="line2d_26">
      <g>
       <use style="stroke:#000000;stroke-width:0.8;" x="72" xlink:href="#m01fdfe942f" y="99.36"/>
      </g>
     </g>
     <g id="text_14">
      <!-- $\mathdefault{10^{0}}$ -->
      <g transform="translate(47.4 103.159219)scale(0.1 -0.1)">
       <use transform="translate(0 0.765625)" xlink:href="#DejaVuSans-49"/>
       <use transform="translate(63.623047 0.765625)" xlink:href="#DejaVuSans-48"/>
       <use transform="translate(128.203125 39.046875)scale(0.7)" xlink:href="#DejaVuSans-48"/>
      </g>
     </g>
    </g>
    <g id="ytick_8">
     <g id="line2d_27">
      <path clip-path="url(#pd037c6df77)" d="M 72 51.84 
L 518.4 51.84 
" style="fill:none;stroke:#b0b0b0;stroke-linecap:square;stroke-width:0.8;"/>
     </g>
     <g id="line2d_28">
      <g>
       <use style="stroke:#000000;stroke-width:0.8;" x="72" xlink:href="#m01fdfe942f" y="51.84"/>
      </g>
     </g>
     <g id="text_15">
      <!-- $\mathdefault{10^{2}}$ -->
      <g transform="translate(47.4 55.639219)scale(0.1 -0.1)">
       <use transform="translate(0 0.765625)" xlink:href="#DejaVuSans-49"/>
       <use transform="translate(63.623047 0.765625)" xlink:href="#DejaVuSans-48"/>
       <use transform="translate(128.203125 39.046875)scale(0.7)" xlink:href="#DejaVuSans-50"/>
      </g>
     </g>
    </g>
    <g id="text_16">
     <!-- Integrated Variance -->
     <defs>
      <path d="M 45.40625 27.984375 
Q 45.40625 37.75 41.375 43.109375 
Q 37.359375 48.484375 30.078125 48.484375 
Q 22.859375 48.484375 18.828125 43.109375 
Q 14.796875 37.75 14.796875 27.984375 
Q 14.796875 18.265625 18.828125 12.890625 
Q 22.859375 7.515625 30.078125 7.515625 
Q 37.359375 7.515625 41.375 12.890625 
Q 45.40625 18.265625 45.40625 27.984375 
z
M 54.390625 6.78125 
Q 54.390625 -7.171875 48.1875 -13.984375 
Q 42 -20.796875 29.203125 -20.796875 
Q 24.46875 -20.796875 20.265625 -20.09375 
Q 16.0625 -19.390625 12.109375 -17.921875 
L 12.109375 -9.1875 
Q 16.0625 -11.328125 19.921875 -12.34375 
Q 23.78125 -13.375 27.78125 -13.375 
Q 36.625 -13.375 41.015625 -8.765625 
Q 45.40625 -4.15625 45.40625 5.171875 
L 45.40625 9.625 
Q 42.625 4.78125 38.28125 2.390625 
Q 33.9375 0 27.875 0 
Q 17.828125 0 11.671875 7.65625 
Q 5.515625 15.328125 5.515625 27.984375 
Q 5.515625 40.671875 11.671875 48.328125 
Q 17.828125 56 27.875 56 
Q 33.9375 56 38.28125 53.609375 
Q 42.625 51.21875 45.40625 46.390625 
L 45.40625 54.6875 
L 54.390625 54.6875 
z
" id="DejaVuSans-103"/>
      <path d="M 45.40625 46.390625 
L 45.40625 75.984375 
L 54.390625 75.984375 
L 54.390625 0 
L 45.40625 0 
L 45.40625 8.203125 
Q 42.578125 3.328125 38.25 0.953125 
Q 33.9375 -1.421875 27.875 -1.421875 
Q 17.96875 -1.421875 11.734375 6.484375 
Q 5.515625 14.40625 5.515625 27.296875 
Q 5.515625 40.1875 11.734375 48.09375 
Q 17.96875 56 27.875 56 
Q 33.9375 56 38.25 53.625 
Q 42.578125 51.265625 45.40625 46.390625 
z
M 14.796875 27.296875 
Q 14.796875 17.390625 18.875 11.75 
Q 22.953125 6.109375 30.078125 6.109375 
Q 37.203125 6.109375 41.296875 11.75 
Q 45.40625 17.390625 45.40625 27.296875 
Q 45.40625 37.203125 41.296875 42.84375 
Q 37.203125 48.484375 30.078125 48.484375 
Q 22.953125 48.484375 18.875 42.84375 
Q 14.796875 37.203125 14.796875 27.296875 
z
" id="DejaVuSans-100"/>
      <path id="DejaVuSans-32"/>
      <path d="M 28.609375 0 
L 0.78125 72.90625 
L 11.078125 72.90625 
L 34.1875 11.53125 
L 57.328125 72.90625 
L 67.578125 72.90625 
L 39.796875 0 
z
" id="DejaVuSans-86"/>
      <path d="M 48.78125 52.59375 
L 48.78125 44.1875 
Q 44.96875 46.296875 41.140625 47.34375 
Q 37.3125 48.390625 33.40625 48.390625 
Q 24.65625 48.390625 19.8125 42.84375 
Q 14.984375 37.3125 14.984375 27.296875 
Q 14.984375 17.28125 19.8125 11.734375 
Q 24.65625 6.203125 33.40625 6.203125 
Q 37.3125 6.203125 41.140625 7.25 
Q 44.96875 8.296875 48.78125 10.40625 
L 48.78125 2.09375 
Q 45.015625 0.34375 40.984375 -0.53125 
Q 36.96875 -1.421875 32.421875 -1.421875 
Q 20.0625 -1.421875 12.78125 6.34375 
Q 5.515625 14.109375 5.515625 27.296875 
Q 5.515625 40.671875 12.859375 48.328125 
Q 20.21875 56 33.015625 56 
Q 37.15625 56 41.109375 55.140625 
Q 45.0625 54.296875 48.78125 52.59375 
z
" id="DejaVuSans-99"/>
     </defs>
     <g transform="translate(31.020312 267.534219)rotate(-90)scale(0.1 -0.1)">
      <use xlink:href="#DejaVuSans-73"/>
      <use x="29.492188" xlink:href="#DejaVuSans-110"/>
      <use x="92.871094" xlink:href="#DejaVuSans-116"/>
      <use x="132.080078" xlink:href="#DejaVuSans-101"/>
      <use x="193.603516" xlink:href="#DejaVuSans-103"/>
      <use x="257.080078" xlink:href="#DejaVuSans-114"/>
      <use x="298.193359" xlink:href="#DejaVuSans-97"/>
      <use x="359.472656" xlink:href="#DejaVuSans-116"/>
      <use x="398.681641" xlink:href="#DejaVuSans-101"/>
      <use x="460.205078" xlink:href="#DejaVuSans-100"/>
      <use x="523.681641" xlink:href="#DejaVuSans-32"/>
      <use x="555.46875" xlink:href="#DejaVuSans-86"/>
      <use x="616.126953" xlink:href="#DejaVuSans-97"/>
      <use x="677.40625" xlink:href="#DejaVuSans-114"/>
      <use x="718.519531" xlink:href="#DejaVuSans-105"/>
      <use x="746.302734" xlink:href="#DejaVuSans-97"/>
      <use x="807.582031" xlink:href="#DejaVuSans-110"/>
      <use x="870.960938" xlink:href="#DejaVuSans-99"/>
      <use x="925.941406" xlink:href="#DejaVuSans-101"/>
     </g>
    </g>
   </g>
   <g id="line2d_29">
    <path clip-path="url(#pd037c6df77)" d="M 80.853938 433 
L 80.928 237.040646 
L 89.856 248.523051 
L 98.784 117.031559 
L 98.902816 433 
M 116.586144 433 
L 116.64 290.829741 
L 125.481007 -1 
M 125.640983 -1 
L 134.496 347.398955 
L 143.424 58.337369 
L 143.56454 433 
M 161.10788 433 
L 161.270093 -1 
M 162.574403 -1 
L 170.208 155.320934 
L 179.136 60.272879 
L 188.064 71.264208 
L 194.119841 -1 
M 199.022269 -1 
L 205.92 115.442057 
L 206.039406 433 
M 232.582308 433 
L 232.704 109.27809 
L 241.632 116.700002 
L 250.56 355.448164 
L 259.488 355.87029 
L 267.682548 -1 
M 278.338137 -1 
L 286.272 357.038941 
L 295.2 357.398846 
L 304.128 357.753722 
L 313.056 358.088139 
L 321.984 113.336576 
L 329.542986 -1 
M 340.020996 -1 
L 348.768 359.332308 
L 348.795987 433 
M 366.447685 433 
L 366.609819 -1 
M 367.473026 -1 
L 375.552 360.1948 
L 383.595855 -1 
M 384.494831 -1 
L 384.656954 433 
M 402.215015 433 
L 402.336 111.183583 
L 411.264 201.597194 
L 420.192 199.067645 
L 429.12 117.509621 
L 435.49165 -1 
M 440.614104 -1 
L 446.976 116.878407 
L 447.094873 433 
M 473.733346 433 
L 473.76 362.853691 
L 482.688 120.61492 
L 489.147228 -1 
M 502.378331 -1 
L 509.472 196.101717 
L 509.56138 433 
" style="fill:none;stroke:#1f77b4;stroke-linecap:square;stroke-width:1.5;"/>
   </g>
   <g id="line2d_30">
    <path clip-path="url(#pd037c6df77)" d="M 72 134.890009 
L 80.928 124.284166 
L 89.856 137.320078 
L 98.784 85.117092 
L 107.712 85.127468 
L 116.64 85.137854 
L 125.568 85.137854 
L 134.496 85.137854 
L 143.424 85.137854 
L 152.352 85.137854 
L 161.28 85.137854 
L 170.208 85.137854 
L 179.136 85.137854 
L 188.064 85.137854 
L 196.992 85.137854 
L 205.92 85.137854 
L 214.848 85.137854 
L 223.776 85.137854 
L 232.704 85.137854 
L 241.632 85.137854 
L 250.56 85.137854 
L 259.488 85.137854 
L 268.416 85.137854 
L 277.344 85.137854 
L 286.272 85.137854 
L 295.2 85.137854 
L 304.128 85.137854 
L 313.056 85.137854 
L 321.984 85.137854 
L 330.912 85.137854 
L 339.84 85.137854 
L 348.768 85.137854 
L 357.696 85.137854 
L 366.624 85.137854 
L 375.552 85.137854 
L 384.48 85.137854 
L 393.408 85.137854 
L 402.336 85.137854 
L 411.264 85.137854 
L 420.192 85.137854 
L 429.12 85.137854 
L 438.048 85.137854 
L 446.976 85.137854 
L 455.904 85.137854 
L 464.832 85.137854 
L 473.76 85.137854 
L 482.688 85.137854 
L 491.616 85.137854 
L 500.544 85.137854 
L 509.472 85.137854 
L 518.4 85.137854 
" style="fill:none;stroke:#ff7f0e;stroke-linecap:square;stroke-width:1.5;"/>
   </g>
   <g id="line2d_31">
    <path clip-path="url(#pd037c6df77)" d="M 72 106.345854 
L 80.928 109.914717 
L 89.856 115.6721 
L 98.784 113.524047 
L 107.712 117.978798 
L 116.64 121.226939 
L 125.568 123.106694 
L 134.496 118.140698 
L 143.424 120.929255 
L 152.352 122.609486 
L 161.28 125.050198 
L 170.208 126.661938 
L 179.136 128.309902 
L 188.064 130.016976 
L 196.992 130.95264 
L 205.92 124.619535 
L 214.848 126.092557 
L 223.776 126.990438 
L 232.704 127.867636 
L 241.632 128.705155 
L 250.56 129.544186 
L 259.488 130.369652 
L 268.416 131.200928 
L 277.344 131.996268 
L 286.272 132.829725 
L 295.2 133.660328 
L 304.128 134.973978 
L 313.056 135.819996 
L 321.984 136.712658 
L 330.912 137.605468 
L 339.84 138.074347 
L 348.768 131.401778 
L 357.696 132.170849 
L 366.624 132.632599 
L 375.552 133.085845 
L 384.48 133.531435 
L 393.408 133.974055 
L 402.336 134.405903 
L 411.264 134.842387 
L 420.192 135.261178 
L 429.12 135.690923 
L 438.048 136.608258 
L 446.976 137.044017 
L 455.904 137.468476 
L 464.832 137.898012 
L 473.76 138.319675 
L 482.688 138.749622 
L 491.616 139.179226 
L 500.544 139.594943 
L 509.472 140.022909 
L 518.4 140.453485 
" style="fill:none;stroke:#2ca02c;stroke-linecap:square;stroke-width:1.5;"/>
   </g>
   <g id="line2d_32">
    <path clip-path="url(#pd037c6df77)" d="M 72 121.406652 
L 80.928 117.788706 
L 89.856 126.998741 
L 98.784 116.018819 
L 107.712 123.054502 
L 116.64 130.048353 
L 125.568 133.110854 
L 134.496 117.335455 
L 143.424 123.929427 
L 152.352 126.931507 
L 161.28 132.377431 
L 170.208 135.249686 
L 179.136 136.526326 
L 188.064 141.245375 
L 196.992 142.577617 
L 205.92 85.137874 
L 214.848 85.137874 
L 223.776 85.137874 
L 232.704 85.137874 
L 241.632 87.144374 
L 250.56 99.599468 
L 259.488 134.574523 
L 268.416 136.909188 
L 277.344 138.034848 
L 286.272 139.38052 
L 295.2 140.722835 
L 304.128 144.856827 
L 313.056 147.847945 
L 321.984 146.538361 
L 330.912 149.575768 
L 339.84 151.570945 
L 348.768 85.137874 
L 357.696 85.137874 
L 366.624 85.137874 
L 375.552 85.137874 
L 384.48 85.137874 
L 393.408 85.137874 
L 402.336 85.137874 
L 411.264 85.137874 
L 420.192 85.137874 
L 429.12 85.137874 
L 438.048 85.137874 
L 446.976 85.137874 
L 455.904 85.137874 
L 464.832 85.137874 
L 473.76 85.137874 
L 482.688 85.137874 
L 491.616 85.137874 
L 500.544 85.137874 
L 509.472 85.137874 
L 518.4 85.137874 
" style="fill:none;stroke:#d62728;stroke-linecap:square;stroke-width:1.5;"/>
   </g>
   <g id="line2d_33">
    <path clip-path="url(#pd037c6df77)" d="M 72 126.233533 
L 80.928 119.344753 
L 89.856 130.180588 
L 98.784 114.802042 
L 107.712 120.466447 
L 116.64 129.070094 
L 125.568 133.248717 
L 134.496 85.137854 
L 143.424 85.137854 
L 152.352 85.137854 
L 161.28 85.137854 
L 170.208 86.206142 
L 179.136 86.18986 
L 188.064 86.336521 
L 196.992 86.370739 
L 205.92 85.87909 
L 214.848 86.021173 
L 223.776 86.063902 
L 232.704 86.12117 
L 241.632 86.14835 
L 250.56 86.174892 
L 259.488 86.225773 
L 268.416 86.256595 
L 277.344 86.263602 
L 286.272 86.298971 
L 295.2 86.330063 
L 304.128 86.481462 
L 313.056 86.511944 
L 321.984 86.461462 
L 330.912 86.57849 
L 339.84 86.596896 
L 348.768 86.052931 
L 357.696 86.142861 
L 366.624 86.166695 
L 375.552 86.190907 
L 384.48 86.212309 
L 393.408 86.235718 
L 402.336 86.259996 
L 411.264 86.281603 
L 420.192 86.299377 
L 429.12 86.322085 
L 438.048 86.344684 
L 446.976 86.381747 
L 455.904 86.3964 
L 464.832 86.402114 
L 473.76 86.434008 
L 482.688 86.450156 
L 491.616 86.441821 
L 500.544 86.462052 
L 509.472 86.478816 
L 518.4 86.496397 
" style="fill:none;stroke:#9467bd;stroke-linecap:square;stroke-width:1.5;"/>
   </g>
   <g id="line2d_34">
    <path clip-path="url(#pd037c6df77)" d="M 72 125.8906 
L 80.928 118.341745 
L 89.856 131.4143 
L 98.784 117.274758 
L 107.712 124.250028 
L 116.64 131.029899 
L 125.568 136.100046 
L 134.496 119.178991 
L 143.424 123.517271 
L 152.352 126.706489 
L 161.28 131.867951 
L 170.208 135.552957 
L 179.136 137.182538 
L 188.064 141.708579 
L 196.992 144.272203 
L 205.92 124.325581 
L 214.848 126.579416 
L 223.776 128.369782 
L 232.704 130.12087 
L 241.632 131.872518 
L 250.56 133.585159 
L 259.488 135.385705 
L 268.416 137.231847 
L 277.344 138.713645 
L 286.272 140.56549 
L 295.2 142.472751 
L 304.128 146.789078 
L 313.056 149.565177 
L 321.984 148.540893 
L 330.912 151.510355 
L 339.84 152.98777 
L 348.768 130.25853 
L 357.696 131.428812 
L 366.624 132.413866 
L 375.552 133.382035 
L 384.48 134.338678 
L 393.408 135.272137 
L 402.336 136.202509 
L 411.264 137.130454 
L 420.192 138.061203 
L 429.12 138.983268 
L 438.048 139.909836 
L 446.976 140.850418 
L 455.904 141.796416 
L 464.832 142.699499 
L 473.76 143.682862 
L 482.688 144.675475 
L 491.616 145.294846 
L 500.544 146.278381 
L 509.472 147.275325 
L 518.4 148.294444 
" style="fill:none;stroke:#8c564b;stroke-linecap:square;stroke-width:1.5;"/>
   </g>
   <g id="line2d_35">
    <path clip-path="url(#pd037c6df77)" d="M 72 233.416464 
L 80.928 236.034002 
L 89.856 222.80647 
L 89.935394 433 
M 143.343667 433 
L 143.424 220.29859 
L 152.352 223.917173 
L 161.28 224.316689 
L 170.208 224.054527 
L 179.136 219.025284 
L 188.064 212.506675 
L 196.992 211.441199 
L 205.92 210.615604 
L 214.848 224.472617 
L 223.776 213.469378 
L 223.858888 433 
M 241.551986 433 
L 241.632 221.149926 
L 250.56 228.788209 
L 259.488 230.377469 
L 268.416 213.139672 
L 277.344 226.661882 
L 277.421951 433 
M 295.11853 433 
L 295.2 217.259573 
L 304.128 212.070509 
L 304.211412 433 
M 339.759583 433 
L 339.84 220.075206 
L 339.920417 433 
M 366.541934 433 
L 366.624 215.668365 
L 366.706066 433 
M 384.399435 433 
L 384.48 219.67799 
L 384.560565 433 
M 411.182611 433 
L 411.264 217.477713 
L 420.192 201.83983 
L 420.279236 433 
M 455.828907 433 
L 455.904 234.291389 
L 455.979093 433 
M 482.604912 433 
L 482.688 212.93528 
L 482.771088 433 
M 500.466944 433 
L 500.544 229.05098 
L 509.472 209.658068 
L 518.4 207.606157 
" style="fill:none;stroke:#e377c2;stroke-linecap:square;stroke-width:1.5;"/>
   </g>
   <g id="patch_3">
    <path d="M 72 384.48 
L 72 51.84 
" style="fill:none;stroke:#000000;stroke-linecap:square;stroke-linejoin:miter;stroke-width:0.8;"/>
   </g>
   <g id="patch_4">
    <path d="M 518.4 384.48 
L 518.4 51.84 
" style="fill:none;stroke:#000000;stroke-linecap:square;stroke-linejoin:miter;stroke-width:0.8;"/>
   </g>
   <g id="patch_5">
    <path d="M 72 384.48 
L 518.4 384.48 
" style="fill:none;stroke:#000000;stroke-linecap:square;stroke-linejoin:miter;stroke-width:0.8;"/>
   </g>
   <g id="patch_6">
    <path d="M 72 51.84 
L 518.4 51.84 
" style="fill:none;stroke:#000000;stroke-linecap:square;stroke-linejoin:miter;stroke-width:0.8;"/>
   </g>
   <g id="legend_1">
    <g id="patch_7">
     <path d="M 424.595312 379.48 
L 511.4 379.48 
Q 513.4 379.48 513.4 377.48 
L 513.4 275.733125 
Q 513.4 273.733125 511.4 273.733125 
L 424.595312 273.733125 
Q 422.595312 273.733125 422.595312 275.733125 
L 422.595312 377.48 
Q 422.595312 379.48 424.595312 379.48 
z
" style="fill:#ffffff;opacity:0.8;stroke:#cccccc;stroke-linejoin:miter;"/>
    </g>
    <g id="line2d_36">
     <path d="M 426.595312 281.831563 
L 446.595312 281.831563 
" style="fill:none;stroke:#1f77b4;stroke-linecap:square;stroke-width:1.5;"/>
    </g>
    <g id="line2d_37"/>
    <g id="text_17">
     <!-- Constant -->
     <defs>
      <path d="M 64.40625 67.28125 
L 64.40625 56.890625 
Q 59.421875 61.53125 53.78125 63.8125 
Q 48.140625 66.109375 41.796875 66.109375 
Q 29.296875 66.109375 22.65625 58.46875 
Q 16.015625 50.828125 16.015625 36.375 
Q 16.015625 21.96875 22.65625 14.328125 
Q 29.296875 6.6875 41.796875 6.6875 
Q 48.140625 6.6875 53.78125 8.984375 
Q 59.421875 11.28125 64.40625 15.921875 
L 64.40625 5.609375 
Q 59.234375 2.09375 53.4375 0.328125 
Q 47.65625 -1.421875 41.21875 -1.421875 
Q 24.65625 -1.421875 15.125 8.703125 
Q 5.609375 18.84375 5.609375 36.375 
Q 5.609375 53.953125 15.125 64.078125 
Q 24.65625 74.21875 41.21875 74.21875 
Q 47.75 74.21875 53.53125 72.484375 
Q 59.328125 70.75 64.40625 67.28125 
z
" id="DejaVuSans-67"/>
      <path d="M 44.28125 53.078125 
L 44.28125 44.578125 
Q 40.484375 46.53125 36.375 47.5 
Q 32.28125 48.484375 27.875 48.484375 
Q 21.1875 48.484375 17.84375 46.4375 
Q 14.5 44.390625 14.5 40.28125 
Q 14.5 37.15625 16.890625 35.375 
Q 19.28125 33.59375 26.515625 31.984375 
L 29.59375 31.296875 
Q 39.15625 29.25 43.1875 25.515625 
Q 47.21875 21.78125 47.21875 15.09375 
Q 47.21875 7.46875 41.1875 3.015625 
Q 35.15625 -1.421875 24.609375 -1.421875 
Q 20.21875 -1.421875 15.453125 -0.5625 
Q 10.6875 0.296875 5.421875 2 
L 5.421875 11.28125 
Q 10.40625 8.6875 15.234375 7.390625 
Q 20.0625 6.109375 24.8125 6.109375 
Q 31.15625 6.109375 34.5625 8.28125 
Q 37.984375 10.453125 37.984375 14.40625 
Q 37.984375 18.0625 35.515625 20.015625 
Q 33.0625 21.96875 24.703125 23.78125 
L 21.578125 24.515625 
Q 13.234375 26.265625 9.515625 29.90625 
Q 5.8125 33.546875 5.8125 39.890625 
Q 5.8125 47.609375 11.28125 51.796875 
Q 16.75 56 26.8125 56 
Q 31.78125 56 36.171875 55.265625 
Q 40.578125 54.546875 44.28125 53.078125 
z
" id="DejaVuSans-115"/>
     </defs>
     <g transform="translate(454.595312 285.331563)scale(0.1 -0.1)">
      <use xlink:href="#DejaVuSans-67"/>
      <use x="69.824219" xlink:href="#DejaVuSans-111"/>
      <use x="131.005859" xlink:href="#DejaVuSans-110"/>
      <use x="194.384766" xlink:href="#DejaVuSans-115"/>
      <use x="246.484375" xlink:href="#DejaVuSans-116"/>
      <use x="285.693359" xlink:href="#DejaVuSans-97"/>
      <use x="346.972656" xlink:href="#DejaVuSans-110"/>
      <use x="410.351562" xlink:href="#DejaVuSans-116"/>
     </g>
    </g>
    <g id="line2d_38">
     <path d="M 426.595312 296.509688 
L 446.595312 296.509688 
" style="fill:none;stroke:#ff7f0e;stroke-linecap:square;stroke-width:1.5;"/>
    </g>
    <g id="line2d_39"/>
    <g id="text_18">
     <!-- RBF -->
     <defs>
      <path d="M 44.390625 34.1875 
Q 47.5625 33.109375 50.5625 29.59375 
Q 53.5625 26.078125 56.59375 19.921875 
L 66.609375 0 
L 56 0 
L 46.6875 18.703125 
Q 43.0625 26.03125 39.671875 28.421875 
Q 36.28125 30.8125 30.421875 30.8125 
L 19.671875 30.8125 
L 19.671875 0 
L 9.8125 0 
L 9.8125 72.90625 
L 32.078125 72.90625 
Q 44.578125 72.90625 50.734375 67.671875 
Q 56.890625 62.453125 56.890625 51.90625 
Q 56.890625 45.015625 53.6875 40.46875 
Q 50.484375 35.9375 44.390625 34.1875 
z
M 19.671875 64.796875 
L 19.671875 38.921875 
L 32.078125 38.921875 
Q 39.203125 38.921875 42.84375 42.21875 
Q 46.484375 45.515625 46.484375 51.90625 
Q 46.484375 58.296875 42.84375 61.546875 
Q 39.203125 64.796875 32.078125 64.796875 
z
" id="DejaVuSans-82"/>
      <path d="M 19.671875 34.8125 
L 19.671875 8.109375 
L 35.5 8.109375 
Q 43.453125 8.109375 47.28125 11.40625 
Q 51.125 14.703125 51.125 21.484375 
Q 51.125 28.328125 47.28125 31.5625 
Q 43.453125 34.8125 35.5 34.8125 
z
M 19.671875 64.796875 
L 19.671875 42.828125 
L 34.28125 42.828125 
Q 41.5 42.828125 45.03125 45.53125 
Q 48.578125 48.25 48.578125 53.8125 
Q 48.578125 59.328125 45.03125 62.0625 
Q 41.5 64.796875 34.28125 64.796875 
z
M 9.8125 72.90625 
L 35.015625 72.90625 
Q 46.296875 72.90625 52.390625 68.21875 
Q 58.5 63.53125 58.5 54.890625 
Q 58.5 48.1875 55.375 44.234375 
Q 52.25 40.28125 46.1875 39.3125 
Q 53.46875 37.75 57.5 32.78125 
Q 61.53125 27.828125 61.53125 20.40625 
Q 61.53125 10.640625 54.890625 5.3125 
Q 48.25 0 35.984375 0 
L 9.8125 0 
z
" id="DejaVuSans-66"/>
      <path d="M 9.8125 72.90625 
L 51.703125 72.90625 
L 51.703125 64.59375 
L 19.671875 64.59375 
L 19.671875 43.109375 
L 48.578125 43.109375 
L 48.578125 34.8125 
L 19.671875 34.8125 
L 19.671875 0 
L 9.8125 0 
z
" id="DejaVuSans-70"/>
     </defs>
     <g transform="translate(454.595312 300.009688)scale(0.1 -0.1)">
      <use xlink:href="#DejaVuSans-82"/>
      <use x="69.482422" xlink:href="#DejaVuSans-66"/>
      <use x="138.085938" xlink:href="#DejaVuSans-70"/>
     </g>
    </g>
    <g id="line2d_40">
     <path d="M 426.595312 311.187813 
L 446.595312 311.187813 
" style="fill:none;stroke:#2ca02c;stroke-linecap:square;stroke-width:1.5;"/>
    </g>
    <g id="line2d_41"/>
    <g id="text_19">
     <!-- Matrn-1/2 -->
     <defs>
      <path d="M 9.8125 72.90625 
L 24.515625 72.90625 
L 43.109375 23.296875 
L 61.8125 72.90625 
L 76.515625 72.90625 
L 76.515625 0 
L 66.890625 0 
L 66.890625 64.015625 
L 48.09375 14.015625 
L 38.1875 14.015625 
L 19.390625 64.015625 
L 19.390625 0 
L 9.8125 0 
z
" id="DejaVuSans-77"/>
      <path d="M 56.203125 29.59375 
L 56.203125 25.203125 
L 14.890625 25.203125 
Q 15.484375 15.921875 20.484375 11.0625 
Q 25.484375 6.203125 34.421875 6.203125 
Q 39.59375 6.203125 44.453125 7.46875 
Q 49.3125 8.734375 54.109375 11.28125 
L 54.109375 2.78125 
Q 49.265625 0.734375 44.1875 -0.34375 
Q 39.109375 -1.421875 33.890625 -1.421875 
Q 20.796875 -1.421875 13.15625 6.1875 
Q 5.515625 13.8125 5.515625 26.8125 
Q 5.515625 40.234375 12.765625 48.109375 
Q 20.015625 56 32.328125 56 
Q 43.359375 56 49.78125 48.890625 
Q 56.203125 41.796875 56.203125 29.59375 
z
M 47.21875 32.234375 
Q 47.125 39.59375 43.09375 43.984375 
Q 39.0625 48.390625 32.421875 48.390625 
Q 24.90625 48.390625 20.390625 44.140625 
Q 15.875 39.890625 15.1875 32.171875 
z
M 38.53125 79.984375 
L 48.25 79.984375 
L 32.34375 61.625 
L 24.859375 61.625 
z
" id="DejaVuSans-233"/>
      <path d="M 4.890625 31.390625 
L 31.203125 31.390625 
L 31.203125 23.390625 
L 4.890625 23.390625 
z
" id="DejaVuSans-45"/>
      <path d="M 25.390625 72.90625 
L 33.6875 72.90625 
L 8.296875 -9.28125 
L 0 -9.28125 
z
" id="DejaVuSans-47"/>
     </defs>
     <g transform="translate(454.595312 314.687813)scale(0.1 -0.1)">
      <use xlink:href="#DejaVuSans-77"/>
      <use x="86.279297" xlink:href="#DejaVuSans-97"/>
      <use x="147.558594" xlink:href="#DejaVuSans-116"/>
      <use x="186.767578" xlink:href="#DejaVuSans-233"/>
      <use x="248.291016" xlink:href="#DejaVuSans-114"/>
      <use x="287.654297" xlink:href="#DejaVuSans-110"/>
      <use x="351.033203" xlink:href="#DejaVuSans-45"/>
      <use x="387.117188" xlink:href="#DejaVuSans-49"/>
      <use x="450.740234" xlink:href="#DejaVuSans-47"/>
      <use x="484.431641" xlink:href="#DejaVuSans-50"/>
     </g>
    </g>
    <g id="line2d_42">
     <path d="M 426.595312 325.865938 
L 446.595312 325.865938 
" style="fill:none;stroke:#d62728;stroke-linecap:square;stroke-width:1.5;"/>
    </g>
    <g id="line2d_43"/>
    <g id="text_20">
     <!-- Matrn-3/2 -->
     <g transform="translate(454.595312 329.365938)scale(0.1 -0.1)">
      <use xlink:href="#DejaVuSans-77"/>
      <use x="86.279297" xlink:href="#DejaVuSans-97"/>
      <use x="147.558594" xlink:href="#DejaVuSans-116"/>
      <use x="186.767578" xlink:href="#DejaVuSans-233"/>
      <use x="248.291016" xlink:href="#DejaVuSans-114"/>
      <use x="287.654297" xlink:href="#DejaVuSans-110"/>
      <use x="351.033203" xlink:href="#DejaVuSans-45"/>
      <use x="387.117188" xlink:href="#DejaVuSans-51"/>
      <use x="450.740234" xlink:href="#DejaVuSans-47"/>
      <use x="484.431641" xlink:href="#DejaVuSans-50"/>
     </g>
    </g>
    <g id="line2d_44">
     <path d="M 426.595312 340.544062 
L 446.595312 340.544062 
" style="fill:none;stroke:#9467bd;stroke-linecap:square;stroke-width:1.5;"/>
    </g>
    <g id="line2d_45"/>
    <g id="text_21">
     <!-- Matrn-5/2 -->
     <g transform="translate(454.595312 344.044062)scale(0.1 -0.1)">
      <use xlink:href="#DejaVuSans-77"/>
      <use x="86.279297" xlink:href="#DejaVuSans-97"/>
      <use x="147.558594" xlink:href="#DejaVuSans-116"/>
      <use x="186.767578" xlink:href="#DejaVuSans-233"/>
      <use x="248.291016" xlink:href="#DejaVuSans-114"/>
      <use x="287.654297" xlink:href="#DejaVuSans-110"/>
      <use x="351.033203" xlink:href="#DejaVuSans-45"/>
      <use x="387.117188" xlink:href="#DejaVuSans-53"/>
      <use x="450.740234" xlink:href="#DejaVuSans-47"/>
      <use x="484.431641" xlink:href="#DejaVuSans-50"/>
     </g>
    </g>
    <g id="line2d_46">
     <path d="M 426.595312 355.222188 
L 446.595312 355.222188 
" style="fill:none;stroke:#8c564b;stroke-linecap:square;stroke-width:1.5;"/>
    </g>
    <g id="line2d_47"/>
    <g id="text_22">
     <!-- RQ -->
     <defs>
      <path d="M 39.40625 66.21875 
Q 28.65625 66.21875 22.328125 58.203125 
Q 16.015625 50.203125 16.015625 36.375 
Q 16.015625 22.609375 22.328125 14.59375 
Q 28.65625 6.59375 39.40625 6.59375 
Q 50.140625 6.59375 56.421875 14.59375 
Q 62.703125 22.609375 62.703125 36.375 
Q 62.703125 50.203125 56.421875 58.203125 
Q 50.140625 66.21875 39.40625 66.21875 
z
M 53.21875 1.3125 
L 66.21875 -12.890625 
L 54.296875 -12.890625 
L 43.5 -1.21875 
Q 41.890625 -1.3125 41.03125 -1.359375 
Q 40.1875 -1.421875 39.40625 -1.421875 
Q 24.03125 -1.421875 14.8125 8.859375 
Q 5.609375 19.140625 5.609375 36.375 
Q 5.609375 53.65625 14.8125 63.9375 
Q 24.03125 74.21875 39.40625 74.21875 
Q 54.734375 74.21875 63.90625 63.9375 
Q 73.09375 53.65625 73.09375 36.375 
Q 73.09375 23.6875 67.984375 14.640625 
Q 62.890625 5.609375 53.21875 1.3125 
z
" id="DejaVuSans-81"/>
     </defs>
     <g transform="translate(454.595312 358.722188)scale(0.1 -0.1)">
      <use xlink:href="#DejaVuSans-82"/>
      <use x="69.482422" xlink:href="#DejaVuSans-81"/>
     </g>
    </g>
    <g id="line2d_48">
     <path d="M 426.595312 369.900313 
L 446.595312 369.900313 
" style="fill:none;stroke:#e377c2;stroke-linecap:square;stroke-width:1.5;"/>
    </g>
    <g id="line2d_49"/>
    <g id="text_23">
     <!-- Dot Prod. -->
     <defs>
      <path d="M 19.671875 64.796875 
L 19.671875 8.109375 
L 31.59375 8.109375 
Q 46.6875 8.109375 53.6875 14.9375 
Q 60.6875 21.78125 60.6875 36.53125 
Q 60.6875 51.171875 53.6875 57.984375 
Q 46.6875 64.796875 31.59375 64.796875 
z
M 9.8125 72.90625 
L 30.078125 72.90625 
Q 51.265625 72.90625 61.171875 64.09375 
Q 71.09375 55.28125 71.09375 36.53125 
Q 71.09375 17.671875 61.125 8.828125 
Q 51.171875 0 30.078125 0 
L 9.8125 0 
z
" id="DejaVuSans-68"/>
      <path d="M 19.671875 64.796875 
L 19.671875 37.40625 
L 32.078125 37.40625 
Q 38.96875 37.40625 42.71875 40.96875 
Q 46.484375 44.53125 46.484375 51.125 
Q 46.484375 57.671875 42.71875 61.234375 
Q 38.96875 64.796875 32.078125 64.796875 
z
M 9.8125 72.90625 
L 32.078125 72.90625 
Q 44.34375 72.90625 50.609375 67.359375 
Q 56.890625 61.8125 56.890625 51.125 
Q 56.890625 40.328125 50.609375 34.8125 
Q 44.34375 29.296875 32.078125 29.296875 
L 19.671875 29.296875 
L 19.671875 0 
L 9.8125 0 
z
" id="DejaVuSans-80"/>
      <path d="M 10.6875 12.40625 
L 21 12.40625 
L 21 0 
L 10.6875 0 
z
" id="DejaVuSans-46"/>
     </defs>
     <g transform="translate(454.595312 373.400313)scale(0.1 -0.1)">
      <use xlink:href="#DejaVuSans-68"/>
      <use x="77.001953" xlink:href="#DejaVuSans-111"/>
      <use x="138.183594" xlink:href="#DejaVuSans-116"/>
      <use x="177.392578" xlink:href="#DejaVuSans-32"/>
      <use x="209.179688" xlink:href="#DejaVuSans-80"/>
      <use x="267.732422" xlink:href="#DejaVuSans-114"/>
      <use x="306.595703" xlink:href="#DejaVuSans-111"/>
      <use x="367.777344" xlink:href="#DejaVuSans-100"/>
      <use x="431.253906" xlink:href="#DejaVuSans-46"/>
     </g>
    </g>
   </g>
  </g>
 </g>
 <defs>
  <clipPath id="pd037c6df77">
   <rect height="332.64" width="446.4" x="72" y="51.84"/>
  </clipPath>
 </defs>
</svg>
