<?xml version="1.0" encoding="utf-8" standalone="no"?>
<!DOCTYPE svg PUBLIC "-//W3C//DTD SVG 1.1//EN"
  "http://www.w3.org/Graphics/SVG/1.1/DTD/svg11.dtd">
<!-- Created with matplotlib (https://matplotlib.org/) -->
<svg height="432pt" version="1.1" viewBox="0 0 576 432" width="576pt" xmlns="http://www.w3.org/2000/svg" xmlns:xlink="http://www.w3.org/1999/xlink">
 <defs>
  <style type="text/css">
*{stroke-linecap:butt;stroke-linejoin:round;}
  </style>
 </defs>
 <g id="figure_1">
  <g id="patch_1">
   <path d="M 0 432 
L 576 432 
L 576 0 
L 0 0 
z
" style="fill:#ffffff;"/>
  </g>
  <g id="axes_1">
   <g id="patch_2">
    <path d="M 72 384.48 
L 518.4 384.48 
L 518.4 51.84 
L 72 51.84 
z
" style="fill:#ffffff;"/>
   </g>
   <g id="PolyCollection_1">
    <path clip-path="url(#p486e57c34f)" d="M 72 144.425593 
L 72 142.487014 
L 80.928 141.550048 
L 89.856 141.98477 
L 98.784 142.971265 
L 107.712 143.679522 
L 116.64 143.257602 
L 125.568 140.132621 
L 134.496 140.508764 
L 143.424 139.119932 
L 152.352 141.172986 
L 161.28 139.601778 
L 170.208 141.061399 
L 179.136 140.546607 
L 188.064 139.218651 
L 196.992 140.5645 
L 205.92 139.102442 
L 214.848 141.758394 
L 223.776 140.464213 
L 232.704 138.411794 
L 241.632 140.080904 
L 250.56 139.688877 
L 259.488 139.278163 
L 268.416 139.821781 
L 277.344 141.403833 
L 286.272 140.92559 
L 295.2 139.320126 
L 304.128 139.760302 
L 313.056 138.363847 
L 321.984 141.048603 
L 330.912 139.266237 
L 339.84 138.372137 
L 348.768 139.917013 
L 357.696 138.755399 
L 366.624 139.835912 
L 375.552 140.590614 
L 384.48 137.499767 
L 393.408 140.080566 
L 402.336 139.44773 
L 411.264 138.836422 
L 420.192 138.840226 
L 429.12 137.160505 
L 438.048 137.609674 
L 446.976 139.397118 
L 455.904 138.645389 
L 464.832 139.586005 
L 473.76 138.302353 
L 482.688 139.872443 
L 491.616 136.998697 
L 500.544 138.451195 
L 509.472 137.516395 
L 518.4 136.335915 
L 518.4 146.035899 
L 518.4 146.035899 
L 509.472 146.090959 
L 500.544 146.374402 
L 491.616 146.036763 
L 482.688 145.557795 
L 473.76 145.185367 
L 464.832 145.051623 
L 455.904 145.318298 
L 446.976 145.161458 
L 438.048 145.36179 
L 429.12 145.303693 
L 420.192 145.239658 
L 411.264 145.092136 
L 402.336 145.201664 
L 393.408 144.945027 
L 384.48 145.764221 
L 375.552 144.896654 
L 366.624 145.219544 
L 357.696 145.511841 
L 348.768 144.923694 
L 339.84 144.362548 
L 330.912 145.07401 
L 321.984 144.77668 
L 313.056 145.271664 
L 304.128 145.006893 
L 295.2 144.877281 
L 286.272 145.135667 
L 277.344 144.85457 
L 268.416 145.356129 
L 259.488 145.239228 
L 250.56 144.36609 
L 241.632 145.101413 
L 232.704 145.115721 
L 223.776 145.101579 
L 214.848 145.181855 
L 205.92 144.64824 
L 196.992 145.430106 
L 188.064 145.478631 
L 179.136 145.134205 
L 170.208 144.719557 
L 161.28 145.936691 
L 152.352 145.039656 
L 143.424 145.008262 
L 134.496 144.585934 
L 125.568 145.425495 
L 116.64 144.493389 
L 107.712 144.212345 
L 98.784 144.259372 
L 89.856 143.99324 
L 80.928 144.669323 
L 72 144.425593 
z
" style="fill:#1f77b4;fill-opacity:0.3;"/>
   </g>
   <g id="PolyCollection_2">
    <path clip-path="url(#p486e57c34f)" d="M 72 130.494489 
L 72 109.266911 
L 80.928 115.616739 
L 89.856 115.620154 
L 98.784 115.63531 
L 107.712 115.647485 
L 116.64 115.658622 
L 125.568 115.664604 
L 134.496 115.664604 
L 143.424 115.664604 
L 152.352 115.664604 
L 161.28 115.664604 
L 170.208 115.664604 
L 179.136 115.664604 
L 188.064 115.664604 
L 196.992 115.664604 
L 205.92 115.664604 
L 214.848 115.664604 
L 223.776 115.664604 
L 232.704 115.664604 
L 241.632 115.664604 
L 250.56 115.664604 
L 259.488 115.664604 
L 268.416 115.664604 
L 277.344 115.664604 
L 286.272 115.664604 
L 295.2 115.664604 
L 304.128 115.664604 
L 313.056 115.664604 
L 321.984 115.664604 
L 330.912 115.664604 
L 339.84 115.664604 
L 348.768 115.664604 
L 357.696 115.664604 
L 366.624 115.664604 
L 375.552 115.664604 
L 384.48 115.664604 
L 393.408 115.664604 
L 402.336 115.664604 
L 411.264 115.664604 
L 420.192 115.664604 
L 429.12 115.664604 
L 438.048 115.664604 
L 446.976 115.664604 
L 455.904 115.664604 
L 464.832 115.664604 
L 473.76 115.664604 
L 482.688 115.664604 
L 491.616 115.664604 
L 500.544 115.664604 
L 509.472 115.664604 
L 518.4 115.664604 
L 518.4 115.666577 
L 518.4 115.666577 
L 509.472 115.666577 
L 500.544 115.666577 
L 491.616 115.666577 
L 482.688 115.666577 
L 473.76 115.666577 
L 464.832 115.666577 
L 455.904 115.666577 
L 446.976 115.666577 
L 438.048 115.666577 
L 429.12 115.666577 
L 420.192 115.666577 
L 411.264 115.666577 
L 402.336 115.666577 
L 393.408 115.666577 
L 384.48 115.666577 
L 375.552 115.666577 
L 366.624 115.666577 
L 357.696 115.666577 
L 348.768 115.666577 
L 339.84 115.666577 
L 330.912 115.666577 
L 321.984 115.666577 
L 313.056 115.666577 
L 304.128 115.666577 
L 295.2 115.666577 
L 286.272 115.666577 
L 277.344 115.666577 
L 268.416 115.666577 
L 259.488 115.666577 
L 250.56 115.666577 
L 241.632 115.666577 
L 232.704 115.666577 
L 223.776 115.666577 
L 214.848 115.666577 
L 205.92 115.666577 
L 196.992 115.666577 
L 188.064 115.666577 
L 179.136 115.666577 
L 170.208 115.666577 
L 161.28 115.666577 
L 152.352 115.666577 
L 143.424 115.666577 
L 134.496 115.666577 
L 125.568 115.666577 
L 116.64 115.660594 
L 107.712 115.649454 
L 98.784 115.637277 
L 89.856 115.622118 
L 80.928 115.618702 
L 72 130.494489 
z
" style="fill:#ff7f0e;fill-opacity:0.3;"/>
   </g>
   <g id="PolyCollection_3">
    <path clip-path="url(#p486e57c34f)" d="M 72 153.596598 
L 72 148.994977 
L 80.928 152.246723 
L 89.856 151.039246 
L 98.784 153.538558 
L 107.712 153.544841 
L 116.64 153.958384 
L 125.568 162.812451 
L 134.496 163.165109 
L 143.424 163.189091 
L 152.352 163.19281 
L 161.28 164.186386 
L 170.208 167.234238 
L 179.136 167.23462 
L 188.064 167.291567 
L 196.992 168.295309 
L 205.92 168.7224 
L 214.848 168.725728 
L 223.776 168.72573 
L 232.704 168.747689 
L 241.632 168.760203 
L 250.56 168.760847 
L 259.488 168.761532 
L 268.416 168.988109 
L 277.344 169.229024 
L 286.272 169.231424 
L 295.2 169.231466 
L 304.128 169.35672 
L 313.056 169.972897 
L 321.984 169.972978 
L 330.912 169.97378 
L 339.84 188.041316 
L 348.768 191.578361 
L 357.696 191.578886 
L 366.624 191.578892 
L 375.552 191.690058 
L 384.48 191.716799 
L 393.408 191.716827 
L 402.336 191.717364 
L 411.264 191.743238 
L 420.192 191.743472 
L 429.12 191.743601 
L 438.048 191.74392 
L 446.976 191.745061 
L 455.904 191.775184 
L 464.832 191.775183 
L 473.76 191.776177 
L 482.688 192.587101 
L 491.616 197.72952 
L 500.544 197.731281 
L 509.472 197.731281 
L 518.4 197.733363 
L 518.4 197.890824 
L 518.4 197.890824 
L 509.472 197.888709 
L 500.544 197.888709 
L 491.616 197.886915 
L 482.688 193.73944 
L 473.76 192.836162 
L 464.832 192.83503 
L 455.904 192.83503 
L 446.976 192.800978 
L 438.048 192.799689 
L 429.12 192.799324 
L 420.192 192.799176 
L 411.264 192.798931 
L 402.336 192.769458 
L 393.408 192.768851 
L 384.48 192.76882 
L 375.552 192.738368 
L 366.624 192.610999 
L 357.696 192.610991 
L 348.768 192.610388 
L 339.84 188.76744 
L 330.912 170.876802 
L 321.984 170.875898 
L 313.056 170.875808 
L 304.128 170.254109 
L 295.2 170.111185 
L 286.272 170.111138 
L 277.344 170.108475 
L 268.416 169.840754 
L 259.488 169.588425 
L 250.56 169.587653 
L 241.632 169.586895 
L 232.704 169.572627 
L 223.776 169.548593 
L 214.848 169.54859 
L 205.92 169.544835 
L 196.992 169.098389 
L 188.064 168.162806 
L 179.136 168.098721 
L 170.208 168.098303 
L 161.28 166.226685 
L 152.352 165.018286 
L 143.424 165.01288 
L 134.496 164.981772 
L 125.568 164.552511 
L 116.64 158.322892 
L 107.712 157.493433 
L 98.784 157.479188 
L 89.856 154.569425 
L 80.928 155.713506 
L 72 153.596598 
z
" style="fill:#2ca02c;fill-opacity:0.3;"/>
   </g>
   <g id="PolyCollection_4">
    <path clip-path="url(#p486e57c34f)" d="M 72 155.513421 
L 72 135.784883 
L 80.928 140.37696 
L 89.856 136.457908 
L 98.784 130.579734 
L 107.712 130.581989 
L 116.64 138.209822 
L 125.568 148.420638 
L 134.496 149.170724 
L 143.424 149.182343 
L 152.352 149.202179 
L 161.28 152.096157 
L 170.208 155.710586 
L 179.136 155.717181 
L 188.064 155.725104 
L 196.992 150.219303 
L 205.92 143.954555 
L 214.848 143.95642 
L 223.776 143.95816 
L 232.704 143.99537 
L 241.632 143.997059 
L 250.56 146.3422 
L 259.488 146.343648 
L 268.416 146.85342 
L 277.344 147.497064 
L 286.272 147.499005 
L 295.2 147.500848 
L 304.128 150.09704 
L 313.056 150.110619 
L 321.984 150.11235 
L 330.912 150.114015 
L 339.84 115.665306 
L 348.768 115.665306 
L 357.696 115.665306 
L 366.624 115.665306 
L 375.552 115.665306 
L 384.48 115.665306 
L 393.408 115.665306 
L 402.336 106.266641 
L 411.264 106.266546 
L 420.192 106.26736 
L 429.12 106.268233 
L 438.048 106.268891 
L 446.976 106.26971 
L 455.904 106.270504 
L 464.832 106.271273 
L 473.76 106.272018 
L 482.688 106.222267 
L 491.616 106.218051 
L 500.544 106.218791 
L 509.472 106.21951 
L 518.4 106.220204 
L 518.4 128.259167 
L 518.4 128.259167 
L 509.472 128.260092 
L 500.544 128.261051 
L 491.616 128.262038 
L 482.688 128.256417 
L 473.76 128.190081 
L 464.832 128.191075 
L 455.904 128.1921 
L 446.976 128.193158 
L 438.048 128.194251 
L 429.12 128.195129 
L 420.192 128.196292 
L 411.264 128.197378 
L 402.336 128.197251 
L 393.408 115.665644 
L 384.48 115.665644 
L 375.552 115.665644 
L 366.624 115.665644 
L 357.696 115.665644 
L 348.768 115.665644 
L 339.84 115.665644 
L 330.912 184.634184 
L 321.984 184.630875 
L 313.056 184.627437 
L 304.128 184.599971 
L 295.2 184.845835 
L 286.272 184.841867 
L 277.344 184.837685 
L 268.416 183.432727 
L 259.488 182.323072 
L 250.56 182.319933 
L 241.632 182.372592 
L 232.704 182.368631 
L 223.776 182.280942 
L 214.848 182.276865 
L 205.92 182.272495 
L 196.992 179.203858 
L 188.064 176.650326 
L 179.136 176.63753 
L 170.208 176.626765 
L 161.28 176.857645 
L 152.352 177.38046 
L 143.424 177.342778 
L 134.496 177.32104 
L 125.568 175.96378 
L 116.64 161.22121 
L 107.712 158.80807 
L 98.784 158.816933 
L 89.856 157.769553 
L 80.928 156.92365 
L 72 155.513421 
z
" style="fill:#d62728;fill-opacity:0.3;"/>
   </g>
   <g id="PolyCollection_5">
    <path clip-path="url(#p486e57c34f)" d="M 72 153.083583 
L 72 138.50331 
L 80.928 135.705825 
L 89.856 111.08549 
L 98.784 115.636087 
L 107.712 115.648263 
L 116.64 115.659401 
L 125.568 115.665383 
L 134.496 115.665383 
L 143.424 115.665383 
L 152.352 115.665383 
L 161.28 115.665383 
L 170.208 115.665383 
L 179.136 115.665383 
L 188.064 115.665383 
L 196.992 115.665383 
L 205.92 115.665383 
L 214.848 115.665383 
L 223.776 115.665383 
L 232.704 115.665383 
L 241.632 115.665383 
L 250.56 115.665383 
L 259.488 115.665383 
L 268.416 115.665383 
L 277.344 115.665383 
L 286.272 115.665383 
L 295.2 115.665383 
L 304.128 115.665383 
L 313.056 115.665383 
L 321.984 115.665383 
L 330.912 115.665383 
L 339.84 115.665383 
L 348.768 115.665383 
L 357.696 115.665383 
L 366.624 115.665383 
L 375.552 115.665383 
L 384.48 115.665383 
L 393.408 115.665383 
L 402.336 115.665383 
L 411.264 115.665383 
L 420.192 115.665383 
L 429.12 115.665383 
L 438.048 115.665383 
L 446.976 115.665383 
L 455.904 115.665383 
L 464.832 115.665383 
L 473.76 115.665383 
L 482.688 115.665383 
L 491.616 115.665383 
L 500.544 115.665383 
L 509.472 115.665383 
L 518.4 115.665383 
L 518.4 115.665542 
L 518.4 115.665542 
L 509.472 115.665542 
L 500.544 115.665542 
L 491.616 115.665542 
L 482.688 115.665542 
L 473.76 115.665542 
L 464.832 115.665542 
L 455.904 115.665542 
L 446.976 115.665542 
L 438.048 115.665542 
L 429.12 115.665542 
L 420.192 115.665542 
L 411.264 115.665542 
L 402.336 115.665542 
L 393.408 115.665542 
L 384.48 115.665542 
L 375.552 115.665542 
L 366.624 115.665542 
L 357.696 115.665542 
L 348.768 115.665542 
L 339.84 115.665542 
L 330.912 115.665542 
L 321.984 115.665542 
L 313.056 115.665542 
L 304.128 115.665542 
L 295.2 115.665542 
L 286.272 115.665542 
L 277.344 115.665542 
L 268.416 115.665542 
L 259.488 115.665542 
L 250.56 115.665542 
L 241.632 115.665542 
L 232.704 115.665542 
L 223.776 115.665542 
L 214.848 115.665542 
L 205.92 115.665542 
L 196.992 115.665542 
L 188.064 115.665542 
L 179.136 115.665542 
L 170.208 115.665542 
L 161.28 115.665542 
L 152.352 115.665542 
L 143.424 115.665542 
L 134.496 115.665542 
L 125.568 115.665542 
L 116.64 115.65956 
L 107.712 115.648421 
L 98.784 115.636245 
L 89.856 143.221508 
L 80.928 154.482353 
L 72 153.083583 
z
" style="fill:#9467bd;fill-opacity:0.3;"/>
   </g>
   <g id="PolyCollection_6">
    <path clip-path="url(#p486e57c34f)" d="M 72 154.422929 
L 72 146.457264 
L 80.928 149.05886 
L 89.856 149.754094 
L 98.784 148.494209 
L 107.712 147.400482 
L 116.64 145.919606 
L 125.568 163.503773 
L 134.496 164.498967 
L 143.424 164.961363 
L 152.352 165.219317 
L 161.28 165.733781 
L 170.208 166.632314 
L 179.136 166.70397 
L 188.064 166.77262 
L 196.992 167.916315 
L 205.92 169.771072 
L 214.848 169.876862 
L 223.776 169.965002 
L 232.704 170.170384 
L 241.632 170.235823 
L 250.56 170.291906 
L 259.488 170.384447 
L 268.416 171.34916 
L 277.344 171.666896 
L 286.272 171.801926 
L 295.2 171.922918 
L 304.128 171.951934 
L 313.056 171.866466 
L 321.984 171.980971 
L 330.912 172.090084 
L 339.84 191.385773 
L 348.768 200.929871 
L 357.696 200.859095 
L 366.624 200.73184 
L 375.552 200.577526 
L 384.48 200.407857 
L 393.408 200.252658 
L 402.336 200.099541 
L 411.264 199.969389 
L 420.192 199.81947 
L 429.12 199.680988 
L 438.048 199.613121 
L 446.976 199.501464 
L 455.904 199.349373 
L 464.832 199.255707 
L 473.76 199.238346 
L 482.688 199.253184 
L 491.616 200.471229 
L 500.544 200.550756 
L 509.472 200.651396 
L 518.4 197.855647 
L 518.4 205.408633 
L 518.4 205.408633 
L 509.472 201.303468 
L 500.544 201.193955 
L 491.616 201.152474 
L 482.688 200.266337 
L 473.76 199.907908 
L 464.832 200.170764 
L 455.904 200.133612 
L 446.976 200.018124 
L 438.048 200.075258 
L 429.12 200.110103 
L 420.192 200.189473 
L 411.264 200.278843 
L 402.336 200.348233 
L 393.408 200.451832 
L 384.48 200.564838 
L 375.552 200.697032 
L 366.624 200.863963 
L 357.696 201.032839 
L 348.768 201.216293 
L 339.84 193.778662 
L 330.912 175.436602 
L 321.984 175.256519 
L 313.056 175.074946 
L 304.128 174.339098 
L 295.2 173.934113 
L 286.272 173.739802 
L 277.344 173.532822 
L 268.416 173.10463 
L 259.488 172.314144 
L 250.56 172.163403 
L 241.632 172.027888 
L 232.704 171.808771 
L 223.776 171.557734 
L 214.848 171.383424 
L 205.92 171.194207 
L 196.992 169.867474 
L 188.064 168.458748 
L 179.136 168.307604 
L 170.208 168.150529 
L 161.28 167.261733 
L 152.352 166.892811 
L 143.424 166.605034 
L 134.496 166.102136 
L 125.568 165.416162 
L 116.64 159.055176 
L 107.712 158.653702 
L 98.784 158.761503 
L 89.856 154.587825 
L 80.928 154.226432 
L 72 154.422929 
z
" style="fill:#8c564b;fill-opacity:0.3;"/>
   </g>
   <g id="PolyCollection_7">
    <path clip-path="url(#p486e57c34f)" d="M 72 147.601946 
L 72 145.999514 
L 80.928 145.207496 
L 89.856 144.9259 
L 98.784 147.574542 
L 107.712 147.813016 
L 116.64 147.88099 
L 125.568 148.491194 
L 134.496 148.643866 
L 143.424 148.608122 
L 152.352 148.589456 
L 161.28 149.228787 
L 170.208 149.129159 
L 179.136 149.124032 
L 188.064 149.212643 
L 196.992 149.042092 
L 205.92 148.873061 
L 214.848 148.903299 
L 223.776 148.801394 
L 232.704 149.068306 
L 241.632 149.216766 
L 250.56 149.296559 
L 259.488 149.297602 
L 268.416 149.265066 
L 277.344 149.224965 
L 286.272 149.219438 
L 295.2 149.222536 
L 304.128 149.385086 
L 313.056 149.26941 
L 321.984 149.263617 
L 330.912 149.322477 
L 339.84 149.402262 
L 348.768 149.425054 
L 357.696 149.411159 
L 366.624 149.422479 
L 375.552 149.411649 
L 384.48 149.403996 
L 393.408 149.414092 
L 402.336 149.418513 
L 411.264 149.429741 
L 420.192 149.425466 
L 429.12 149.420172 
L 438.048 149.412908 
L 446.976 149.429767 
L 455.904 149.406886 
L 464.832 149.40646 
L 473.76 149.405591 
L 482.688 149.41537 
L 491.616 149.432056 
L 500.544 149.434102 
L 509.472 149.434255 
L 518.4 149.433087 
L 518.4 149.447939 
L 518.4 149.447939 
L 509.472 149.447919 
L 500.544 149.447724 
L 491.616 149.447845 
L 482.688 149.444339 
L 473.76 149.442092 
L 464.832 149.441657 
L 455.904 149.446299 
L 446.976 149.447786 
L 438.048 149.441992 
L 429.12 149.446766 
L 420.192 149.4476 
L 411.264 149.448378 
L 402.336 149.448842 
L 393.408 149.450511 
L 384.48 149.450124 
L 375.552 149.446603 
L 366.624 149.450031 
L 357.696 149.451096 
L 348.768 149.448088 
L 339.84 149.444149 
L 330.912 149.41541 
L 321.984 149.396288 
L 313.056 149.390601 
L 304.128 149.439477 
L 295.2 149.384717 
L 286.272 149.368665 
L 277.344 149.366931 
L 268.416 149.397583 
L 259.488 149.417842 
L 250.56 149.403287 
L 241.632 149.337955 
L 232.704 149.293489 
L 223.776 149.289162 
L 214.848 149.166225 
L 205.92 149.16307 
L 196.992 149.302621 
L 188.064 149.414518 
L 179.136 149.40662 
L 170.208 149.367877 
L 161.28 149.409296 
L 152.352 149.232903 
L 143.424 149.153593 
L 134.496 149.105141 
L 125.568 149.095926 
L 116.64 148.931972 
L 107.712 148.909087 
L 98.784 148.357917 
L 89.856 147.386152 
L 80.928 148.609226 
L 72 147.601946 
z
" style="fill:#e377c2;fill-opacity:0.3;"/>
   </g>
   <g id="matplotlib.axis_1">
    <g id="xtick_1">
     <g id="line2d_1">
      <path clip-path="url(#p486e57c34f)" d="M 72 384.48 
L 72 51.84 
" style="fill:none;stroke:#b0b0b0;stroke-linecap:square;stroke-width:0.8;"/>
     </g>
     <g id="line2d_2">
      <defs>
       <path d="M 0 0 
L 0 3.5 
" id="mda4f408d3b" style="stroke:#000000;stroke-width:0.8;"/>
      </defs>
      <g>
       <use style="stroke:#000000;stroke-width:0.8;" x="72" xlink:href="#mda4f408d3b" y="384.48"/>
      </g>
     </g>
     <g id="text_1">
      <!-- 0 -->
      <defs>
       <path d="M 31.78125 66.40625 
Q 24.171875 66.40625 20.328125 58.90625 
Q 16.5 51.421875 16.5 36.375 
Q 16.5 21.390625 20.328125 13.890625 
Q 24.171875 6.390625 31.78125 6.390625 
Q 39.453125 6.390625 43.28125 13.890625 
Q 47.125 21.390625 47.125 36.375 
Q 47.125 51.421875 43.28125 58.90625 
Q 39.453125 66.40625 31.78125 66.40625 
z
M 31.78125 74.21875 
Q 44.046875 74.21875 50.515625 64.515625 
Q 56.984375 54.828125 56.984375 36.375 
Q 56.984375 17.96875 50.515625 8.265625 
Q 44.046875 -1.421875 31.78125 -1.421875 
Q 19.53125 -1.421875 13.0625 8.265625 
Q 6.59375 17.96875 6.59375 36.375 
Q 6.59375 54.828125 13.0625 64.515625 
Q 19.53125 74.21875 31.78125 74.21875 
z
" id="DejaVuSans-48"/>
      </defs>
      <g transform="translate(68.81875 399.078438)scale(0.1 -0.1)">
       <use xlink:href="#DejaVuSans-48"/>
      </g>
     </g>
    </g>
    <g id="xtick_2">
     <g id="line2d_3">
      <path clip-path="url(#p486e57c34f)" d="M 161.28 384.48 
L 161.28 51.84 
" style="fill:none;stroke:#b0b0b0;stroke-linecap:square;stroke-width:0.8;"/>
     </g>
     <g id="line2d_4">
      <g>
       <use style="stroke:#000000;stroke-width:0.8;" x="161.28" xlink:href="#mda4f408d3b" y="384.48"/>
      </g>
     </g>
     <g id="text_2">
      <!-- 10 -->
      <defs>
       <path d="M 12.40625 8.296875 
L 28.515625 8.296875 
L 28.515625 63.921875 
L 10.984375 60.40625 
L 10.984375 69.390625 
L 28.421875 72.90625 
L 38.28125 72.90625 
L 38.28125 8.296875 
L 54.390625 8.296875 
L 54.390625 0 
L 12.40625 0 
z
" id="DejaVuSans-49"/>
      </defs>
      <g transform="translate(154.9175 399.078438)scale(0.1 -0.1)">
       <use xlink:href="#DejaVuSans-49"/>
       <use x="63.623047" xlink:href="#DejaVuSans-48"/>
      </g>
     </g>
    </g>
    <g id="xtick_3">
     <g id="line2d_5">
      <path clip-path="url(#p486e57c34f)" d="M 250.56 384.48 
L 250.56 51.84 
" style="fill:none;stroke:#b0b0b0;stroke-linecap:square;stroke-width:0.8;"/>
     </g>
     <g id="line2d_6">
      <g>
       <use style="stroke:#000000;stroke-width:0.8;" x="250.56" xlink:href="#mda4f408d3b" y="384.48"/>
      </g>
     </g>
     <g id="text_3">
      <!-- 20 -->
      <defs>
       <path d="M 19.1875 8.296875 
L 53.609375 8.296875 
L 53.609375 0 
L 7.328125 0 
L 7.328125 8.296875 
Q 12.9375 14.109375 22.625 23.890625 
Q 32.328125 33.6875 34.8125 36.53125 
Q 39.546875 41.84375 41.421875 45.53125 
Q 43.3125 49.21875 43.3125 52.78125 
Q 43.3125 58.59375 39.234375 62.25 
Q 35.15625 65.921875 28.609375 65.921875 
Q 23.96875 65.921875 18.8125 64.3125 
Q 13.671875 62.703125 7.8125 59.421875 
L 7.8125 69.390625 
Q 13.765625 71.78125 18.9375 73 
Q 24.125 74.21875 28.421875 74.21875 
Q 39.75 74.21875 46.484375 68.546875 
Q 53.21875 62.890625 53.21875 53.421875 
Q 53.21875 48.921875 51.53125 44.890625 
Q 49.859375 40.875 45.40625 35.40625 
Q 44.1875 33.984375 37.640625 27.21875 
Q 31.109375 20.453125 19.1875 8.296875 
z
" id="DejaVuSans-50"/>
      </defs>
      <g transform="translate(244.1975 399.078438)scale(0.1 -0.1)">
       <use xlink:href="#DejaVuSans-50"/>
       <use x="63.623047" xlink:href="#DejaVuSans-48"/>
      </g>
     </g>
    </g>
    <g id="xtick_4">
     <g id="line2d_7">
      <path clip-path="url(#p486e57c34f)" d="M 339.84 384.48 
L 339.84 51.84 
" style="fill:none;stroke:#b0b0b0;stroke-linecap:square;stroke-width:0.8;"/>
     </g>
     <g id="line2d_8">
      <g>
       <use style="stroke:#000000;stroke-width:0.8;" x="339.84" xlink:href="#mda4f408d3b" y="384.48"/>
      </g>
     </g>
     <g id="text_4">
      <!-- 30 -->
      <defs>
       <path d="M 40.578125 39.3125 
Q 47.65625 37.796875 51.625 33 
Q 55.609375 28.21875 55.609375 21.1875 
Q 55.609375 10.40625 48.1875 4.484375 
Q 40.765625 -1.421875 27.09375 -1.421875 
Q 22.515625 -1.421875 17.65625 -0.515625 
Q 12.796875 0.390625 7.625 2.203125 
L 7.625 11.71875 
Q 11.71875 9.328125 16.59375 8.109375 
Q 21.484375 6.890625 26.8125 6.890625 
Q 36.078125 6.890625 40.9375 10.546875 
Q 45.796875 14.203125 45.796875 21.1875 
Q 45.796875 27.640625 41.28125 31.265625 
Q 36.765625 34.90625 28.71875 34.90625 
L 20.21875 34.90625 
L 20.21875 43.015625 
L 29.109375 43.015625 
Q 36.375 43.015625 40.234375 45.921875 
Q 44.09375 48.828125 44.09375 54.296875 
Q 44.09375 59.90625 40.109375 62.90625 
Q 36.140625 65.921875 28.71875 65.921875 
Q 24.65625 65.921875 20.015625 65.03125 
Q 15.375 64.15625 9.8125 62.3125 
L 9.8125 71.09375 
Q 15.4375 72.65625 20.34375 73.4375 
Q 25.25 74.21875 29.59375 74.21875 
Q 40.828125 74.21875 47.359375 69.109375 
Q 53.90625 64.015625 53.90625 55.328125 
Q 53.90625 49.265625 50.4375 45.09375 
Q 46.96875 40.921875 40.578125 39.3125 
z
" id="DejaVuSans-51"/>
      </defs>
      <g transform="translate(333.4775 399.078438)scale(0.1 -0.1)">
       <use xlink:href="#DejaVuSans-51"/>
       <use x="63.623047" xlink:href="#DejaVuSans-48"/>
      </g>
     </g>
    </g>
    <g id="xtick_5">
     <g id="line2d_9">
      <path clip-path="url(#p486e57c34f)" d="M 429.12 384.48 
L 429.12 51.84 
" style="fill:none;stroke:#b0b0b0;stroke-linecap:square;stroke-width:0.8;"/>
     </g>
     <g id="line2d_10">
      <g>
       <use style="stroke:#000000;stroke-width:0.8;" x="429.12" xlink:href="#mda4f408d3b" y="384.48"/>
      </g>
     </g>
     <g id="text_5">
      <!-- 40 -->
      <defs>
       <path d="M 37.796875 64.3125 
L 12.890625 25.390625 
L 37.796875 25.390625 
z
M 35.203125 72.90625 
L 47.609375 72.90625 
L 47.609375 25.390625 
L 58.015625 25.390625 
L 58.015625 17.1875 
L 47.609375 17.1875 
L 47.609375 0 
L 37.796875 0 
L 37.796875 17.1875 
L 4.890625 17.1875 
L 4.890625 26.703125 
z
" id="DejaVuSans-52"/>
      </defs>
      <g transform="translate(422.7575 399.078438)scale(0.1 -0.1)">
       <use xlink:href="#DejaVuSans-52"/>
       <use x="63.623047" xlink:href="#DejaVuSans-48"/>
      </g>
     </g>
    </g>
    <g id="xtick_6">
     <g id="line2d_11">
      <path clip-path="url(#p486e57c34f)" d="M 518.4 384.48 
L 518.4 51.84 
" style="fill:none;stroke:#b0b0b0;stroke-linecap:square;stroke-width:0.8;"/>
     </g>
     <g id="line2d_12">
      <g>
       <use style="stroke:#000000;stroke-width:0.8;" x="518.4" xlink:href="#mda4f408d3b" y="384.48"/>
      </g>
     </g>
     <g id="text_6">
      <!-- 50 -->
      <defs>
       <path d="M 10.796875 72.90625 
L 49.515625 72.90625 
L 49.515625 64.59375 
L 19.828125 64.59375 
L 19.828125 46.734375 
Q 21.96875 47.46875 24.109375 47.828125 
Q 26.265625 48.1875 28.421875 48.1875 
Q 40.625 48.1875 47.75 41.5 
Q 54.890625 34.8125 54.890625 23.390625 
Q 54.890625 11.625 47.5625 5.09375 
Q 40.234375 -1.421875 26.90625 -1.421875 
Q 22.3125 -1.421875 17.546875 -0.640625 
Q 12.796875 0.140625 7.71875 1.703125 
L 7.71875 11.625 
Q 12.109375 9.234375 16.796875 8.0625 
Q 21.484375 6.890625 26.703125 6.890625 
Q 35.15625 6.890625 40.078125 11.328125 
Q 45.015625 15.765625 45.015625 23.390625 
Q 45.015625 31 40.078125 35.4375 
Q 35.15625 39.890625 26.703125 39.890625 
Q 22.75 39.890625 18.8125 39.015625 
Q 14.890625 38.140625 10.796875 36.28125 
z
" id="DejaVuSans-53"/>
      </defs>
      <g transform="translate(512.0375 399.078438)scale(0.1 -0.1)">
       <use xlink:href="#DejaVuSans-53"/>
       <use x="63.623047" xlink:href="#DejaVuSans-48"/>
      </g>
     </g>
    </g>
    <g id="text_7">
     <!-- Iteration -->
     <defs>
      <path d="M 9.8125 72.90625 
L 19.671875 72.90625 
L 19.671875 0 
L 9.8125 0 
z
" id="DejaVuSans-73"/>
      <path d="M 18.3125 70.21875 
L 18.3125 54.6875 
L 36.8125 54.6875 
L 36.8125 47.703125 
L 18.3125 47.703125 
L 18.3125 18.015625 
Q 18.3125 11.328125 20.140625 9.421875 
Q 21.96875 7.515625 27.59375 7.515625 
L 36.8125 7.515625 
L 36.8125 0 
L 27.59375 0 
Q 17.1875 0 13.234375 3.875 
Q 9.28125 7.765625 9.28125 18.015625 
L 9.28125 47.703125 
L 2.6875 47.703125 
L 2.6875 54.6875 
L 9.28125 54.6875 
L 9.28125 70.21875 
z
" id="DejaVuSans-116"/>
      <path d="M 56.203125 29.59375 
L 56.203125 25.203125 
L 14.890625 25.203125 
Q 15.484375 15.921875 20.484375 11.0625 
Q 25.484375 6.203125 34.421875 6.203125 
Q 39.59375 6.203125 44.453125 7.46875 
Q 49.3125 8.734375 54.109375 11.28125 
L 54.109375 2.78125 
Q 49.265625 0.734375 44.1875 -0.34375 
Q 39.109375 -1.421875 33.890625 -1.421875 
Q 20.796875 -1.421875 13.15625 6.1875 
Q 5.515625 13.8125 5.515625 26.8125 
Q 5.515625 40.234375 12.765625 48.109375 
Q 20.015625 56 32.328125 56 
Q 43.359375 56 49.78125 48.890625 
Q 56.203125 41.796875 56.203125 29.59375 
z
M 47.21875 32.234375 
Q 47.125 39.59375 43.09375 43.984375 
Q 39.0625 48.390625 32.421875 48.390625 
Q 24.90625 48.390625 20.390625 44.140625 
Q 15.875 39.890625 15.1875 32.171875 
z
" id="DejaVuSans-101"/>
      <path d="M 41.109375 46.296875 
Q 39.59375 47.171875 37.8125 47.578125 
Q 36.03125 48 33.890625 48 
Q 26.265625 48 22.1875 43.046875 
Q 18.109375 38.09375 18.109375 28.8125 
L 18.109375 0 
L 9.078125 0 
L 9.078125 54.6875 
L 18.109375 54.6875 
L 18.109375 46.1875 
Q 20.953125 51.171875 25.484375 53.578125 
Q 30.03125 56 36.53125 56 
Q 37.453125 56 38.578125 55.875 
Q 39.703125 55.765625 41.0625 55.515625 
z
" id="DejaVuSans-114"/>
      <path d="M 34.28125 27.484375 
Q 23.390625 27.484375 19.1875 25 
Q 14.984375 22.515625 14.984375 16.5 
Q 14.984375 11.71875 18.140625 8.90625 
Q 21.296875 6.109375 26.703125 6.109375 
Q 34.1875 6.109375 38.703125 11.40625 
Q 43.21875 16.703125 43.21875 25.484375 
L 43.21875 27.484375 
z
M 52.203125 31.203125 
L 52.203125 0 
L 43.21875 0 
L 43.21875 8.296875 
Q 40.140625 3.328125 35.546875 0.953125 
Q 30.953125 -1.421875 24.3125 -1.421875 
Q 15.921875 -1.421875 10.953125 3.296875 
Q 6 8.015625 6 15.921875 
Q 6 25.140625 12.171875 29.828125 
Q 18.359375 34.515625 30.609375 34.515625 
L 43.21875 34.515625 
L 43.21875 35.40625 
Q 43.21875 41.609375 39.140625 45 
Q 35.0625 48.390625 27.6875 48.390625 
Q 23 48.390625 18.546875 47.265625 
Q 14.109375 46.140625 10.015625 43.890625 
L 10.015625 52.203125 
Q 14.9375 54.109375 19.578125 55.046875 
Q 24.21875 56 28.609375 56 
Q 40.484375 56 46.34375 49.84375 
Q 52.203125 43.703125 52.203125 31.203125 
z
" id="DejaVuSans-97"/>
      <path d="M 9.421875 54.6875 
L 18.40625 54.6875 
L 18.40625 0 
L 9.421875 0 
z
M 9.421875 75.984375 
L 18.40625 75.984375 
L 18.40625 64.59375 
L 9.421875 64.59375 
z
" id="DejaVuSans-105"/>
      <path d="M 30.609375 48.390625 
Q 23.390625 48.390625 19.1875 42.75 
Q 14.984375 37.109375 14.984375 27.296875 
Q 14.984375 17.484375 19.15625 11.84375 
Q 23.34375 6.203125 30.609375 6.203125 
Q 37.796875 6.203125 41.984375 11.859375 
Q 46.1875 17.53125 46.1875 27.296875 
Q 46.1875 37.015625 41.984375 42.703125 
Q 37.796875 48.390625 30.609375 48.390625 
z
M 30.609375 56 
Q 42.328125 56 49.015625 48.375 
Q 55.71875 40.765625 55.71875 27.296875 
Q 55.71875 13.875 49.015625 6.21875 
Q 42.328125 -1.421875 30.609375 -1.421875 
Q 18.84375 -1.421875 12.171875 6.21875 
Q 5.515625 13.875 5.515625 27.296875 
Q 5.515625 40.765625 12.171875 48.375 
Q 18.84375 56 30.609375 56 
z
" id="DejaVuSans-111"/>
      <path d="M 54.890625 33.015625 
L 54.890625 0 
L 45.90625 0 
L 45.90625 32.71875 
Q 45.90625 40.484375 42.875 44.328125 
Q 39.84375 48.1875 33.796875 48.1875 
Q 26.515625 48.1875 22.3125 43.546875 
Q 18.109375 38.921875 18.109375 30.90625 
L 18.109375 0 
L 9.078125 0 
L 9.078125 54.6875 
L 18.109375 54.6875 
L 18.109375 46.1875 
Q 21.34375 51.125 25.703125 53.5625 
Q 30.078125 56 35.796875 56 
Q 45.21875 56 50.046875 50.171875 
Q 54.890625 44.34375 54.890625 33.015625 
z
" id="DejaVuSans-110"/>
     </defs>
     <g transform="translate(273.991406 412.756563)scale(0.1 -0.1)">
      <use xlink:href="#DejaVuSans-73"/>
      <use x="29.492188" xlink:href="#DejaVuSans-116"/>
      <use x="68.701172" xlink:href="#DejaVuSans-101"/>
      <use x="130.224609" xlink:href="#DejaVuSans-114"/>
      <use x="171.337891" xlink:href="#DejaVuSans-97"/>
      <use x="232.617188" xlink:href="#DejaVuSans-116"/>
      <use x="271.826172" xlink:href="#DejaVuSans-105"/>
      <use x="299.609375" xlink:href="#DejaVuSans-111"/>
      <use x="360.791016" xlink:href="#DejaVuSans-110"/>
     </g>
    </g>
   </g>
   <g id="matplotlib.axis_2">
    <g id="ytick_1">
     <g id="line2d_13">
      <path clip-path="url(#p486e57c34f)" d="M 72 384.48 
L 518.4 384.48 
" style="fill:none;stroke:#b0b0b0;stroke-linecap:square;stroke-width:0.8;"/>
     </g>
     <g id="line2d_14">
      <defs>
       <path d="M 0 0 
L -3.5 0 
" id="maaf9858aaf" style="stroke:#000000;stroke-width:0.8;"/>
      </defs>
      <g>
       <use style="stroke:#000000;stroke-width:0.8;" x="72" xlink:href="#maaf9858aaf" y="384.48"/>
      </g>
     </g>
     <g id="text_8">
      <!-- $\mathdefault{10^{-12}}$ -->
      <defs>
       <path d="M 10.59375 35.5 
L 73.1875 35.5 
L 73.1875 27.203125 
L 10.59375 27.203125 
z
" id="DejaVuSans-8722"/>
      </defs>
      <g transform="translate(37.1 388.279219)scale(0.1 -0.1)">
       <use transform="translate(0 0.765625)" xlink:href="#DejaVuSans-49"/>
       <use transform="translate(63.623047 0.765625)" xlink:href="#DejaVuSans-48"/>
       <use transform="translate(128.203125 39.046875)scale(0.7)" xlink:href="#DejaVuSans-8722"/>
       <use transform="translate(186.855469 39.046875)scale(0.7)" xlink:href="#DejaVuSans-49"/>
       <use transform="translate(231.391602 39.046875)scale(0.7)" xlink:href="#DejaVuSans-50"/>
      </g>
     </g>
    </g>
    <g id="ytick_2">
     <g id="line2d_15">
      <path clip-path="url(#p486e57c34f)" d="M 72 336.96 
L 518.4 336.96 
" style="fill:none;stroke:#b0b0b0;stroke-linecap:square;stroke-width:0.8;"/>
     </g>
     <g id="line2d_16">
      <g>
       <use style="stroke:#000000;stroke-width:0.8;" x="72" xlink:href="#maaf9858aaf" y="336.96"/>
      </g>
     </g>
     <g id="text_9">
      <!-- $\mathdefault{10^{-10}}$ -->
      <g transform="translate(37.1 340.759219)scale(0.1 -0.1)">
       <use transform="translate(0 0.765625)" xlink:href="#DejaVuSans-49"/>
       <use transform="translate(63.623047 0.765625)" xlink:href="#DejaVuSans-48"/>
       <use transform="translate(128.203125 39.046875)scale(0.7)" xlink:href="#DejaVuSans-8722"/>
       <use transform="translate(186.855469 39.046875)scale(0.7)" xlink:href="#DejaVuSans-49"/>
       <use transform="translate(231.391602 39.046875)scale(0.7)" xlink:href="#DejaVuSans-48"/>
      </g>
     </g>
    </g>
    <g id="ytick_3">
     <g id="line2d_17">
      <path clip-path="url(#p486e57c34f)" d="M 72 289.44 
L 518.4 289.44 
" style="fill:none;stroke:#b0b0b0;stroke-linecap:square;stroke-width:0.8;"/>
     </g>
     <g id="line2d_18">
      <g>
       <use style="stroke:#000000;stroke-width:0.8;" x="72" xlink:href="#maaf9858aaf" y="289.44"/>
      </g>
     </g>
     <g id="text_10">
      <!-- $\mathdefault{10^{-8}}$ -->
      <defs>
       <path d="M 31.78125 34.625 
Q 24.75 34.625 20.71875 30.859375 
Q 16.703125 27.09375 16.703125 20.515625 
Q 16.703125 13.921875 20.71875 10.15625 
Q 24.75 6.390625 31.78125 6.390625 
Q 38.8125 6.390625 42.859375 10.171875 
Q 46.921875 13.96875 46.921875 20.515625 
Q 46.921875 27.09375 42.890625 30.859375 
Q 38.875 34.625 31.78125 34.625 
z
M 21.921875 38.8125 
Q 15.578125 40.375 12.03125 44.71875 
Q 8.5 49.078125 8.5 55.328125 
Q 8.5 64.0625 14.71875 69.140625 
Q 20.953125 74.21875 31.78125 74.21875 
Q 42.671875 74.21875 48.875 69.140625 
Q 55.078125 64.0625 55.078125 55.328125 
Q 55.078125 49.078125 51.53125 44.71875 
Q 48 40.375 41.703125 38.8125 
Q 48.828125 37.15625 52.796875 32.3125 
Q 56.78125 27.484375 56.78125 20.515625 
Q 56.78125 9.90625 50.3125 4.234375 
Q 43.84375 -1.421875 31.78125 -1.421875 
Q 19.734375 -1.421875 13.25 4.234375 
Q 6.78125 9.90625 6.78125 20.515625 
Q 6.78125 27.484375 10.78125 32.3125 
Q 14.796875 37.15625 21.921875 38.8125 
z
M 18.3125 54.390625 
Q 18.3125 48.734375 21.84375 45.5625 
Q 25.390625 42.390625 31.78125 42.390625 
Q 38.140625 42.390625 41.71875 45.5625 
Q 45.3125 48.734375 45.3125 54.390625 
Q 45.3125 60.0625 41.71875 63.234375 
Q 38.140625 66.40625 31.78125 66.40625 
Q 25.390625 66.40625 21.84375 63.234375 
Q 18.3125 60.0625 18.3125 54.390625 
z
" id="DejaVuSans-56"/>
      </defs>
      <g transform="translate(41.5 293.239219)scale(0.1 -0.1)">
       <use transform="translate(0 0.765625)" xlink:href="#DejaVuSans-49"/>
       <use transform="translate(63.623047 0.765625)" xlink:href="#DejaVuSans-48"/>
       <use transform="translate(128.203125 39.046875)scale(0.7)" xlink:href="#DejaVuSans-8722"/>
       <use transform="translate(186.855469 39.046875)scale(0.7)" xlink:href="#DejaVuSans-56"/>
      </g>
     </g>
    </g>
    <g id="ytick_4">
     <g id="line2d_19">
      <path clip-path="url(#p486e57c34f)" d="M 72 241.92 
L 518.4 241.92 
" style="fill:none;stroke:#b0b0b0;stroke-linecap:square;stroke-width:0.8;"/>
     </g>
     <g id="line2d_20">
      <g>
       <use style="stroke:#000000;stroke-width:0.8;" x="72" xlink:href="#maaf9858aaf" y="241.92"/>
      </g>
     </g>
     <g id="text_11">
      <!-- $\mathdefault{10^{-6}}$ -->
      <defs>
       <path d="M 33.015625 40.375 
Q 26.375 40.375 22.484375 35.828125 
Q 18.609375 31.296875 18.609375 23.390625 
Q 18.609375 15.53125 22.484375 10.953125 
Q 26.375 6.390625 33.015625 6.390625 
Q 39.65625 6.390625 43.53125 10.953125 
Q 47.40625 15.53125 47.40625 23.390625 
Q 47.40625 31.296875 43.53125 35.828125 
Q 39.65625 40.375 33.015625 40.375 
z
M 52.59375 71.296875 
L 52.59375 62.3125 
Q 48.875 64.0625 45.09375 64.984375 
Q 41.3125 65.921875 37.59375 65.921875 
Q 27.828125 65.921875 22.671875 59.328125 
Q 17.53125 52.734375 16.796875 39.40625 
Q 19.671875 43.65625 24.015625 45.921875 
Q 28.375 48.1875 33.59375 48.1875 
Q 44.578125 48.1875 50.953125 41.515625 
Q 57.328125 34.859375 57.328125 23.390625 
Q 57.328125 12.15625 50.6875 5.359375 
Q 44.046875 -1.421875 33.015625 -1.421875 
Q 20.359375 -1.421875 13.671875 8.265625 
Q 6.984375 17.96875 6.984375 36.375 
Q 6.984375 53.65625 15.1875 63.9375 
Q 23.390625 74.21875 37.203125 74.21875 
Q 40.921875 74.21875 44.703125 73.484375 
Q 48.484375 72.75 52.59375 71.296875 
z
" id="DejaVuSans-54"/>
      </defs>
      <g transform="translate(41.5 245.719219)scale(0.1 -0.1)">
       <use transform="translate(0 0.765625)" xlink:href="#DejaVuSans-49"/>
       <use transform="translate(63.623047 0.765625)" xlink:href="#DejaVuSans-48"/>
       <use transform="translate(128.203125 39.046875)scale(0.7)" xlink:href="#DejaVuSans-8722"/>
       <use transform="translate(186.855469 39.046875)scale(0.7)" xlink:href="#DejaVuSans-54"/>
      </g>
     </g>
    </g>
    <g id="ytick_5">
     <g id="line2d_21">
      <path clip-path="url(#p486e57c34f)" d="M 72 194.4 
L 518.4 194.4 
" style="fill:none;stroke:#b0b0b0;stroke-linecap:square;stroke-width:0.8;"/>
     </g>
     <g id="line2d_22">
      <g>
       <use style="stroke:#000000;stroke-width:0.8;" x="72" xlink:href="#maaf9858aaf" y="194.4"/>
      </g>
     </g>
     <g id="text_12">
      <!-- $\mathdefault{10^{-4}}$ -->
      <g transform="translate(41.5 198.199219)scale(0.1 -0.1)">
       <use transform="translate(0 0.684375)" xlink:href="#DejaVuSans-49"/>
       <use transform="translate(63.623047 0.684375)" xlink:href="#DejaVuSans-48"/>
       <use transform="translate(128.203125 38.965625)scale(0.7)" xlink:href="#DejaVuSans-8722"/>
       <use transform="translate(186.855469 38.965625)scale(0.7)" xlink:href="#DejaVuSans-52"/>
      </g>
     </g>
    </g>
    <g id="ytick_6">
     <g id="line2d_23">
      <path clip-path="url(#p486e57c34f)" d="M 72 146.88 
L 518.4 146.88 
" style="fill:none;stroke:#b0b0b0;stroke-linecap:square;stroke-width:0.8;"/>
     </g>
     <g id="line2d_24">
      <g>
       <use style="stroke:#000000;stroke-width:0.8;" x="72" xlink:href="#maaf9858aaf" y="146.88"/>
      </g>
     </g>
     <g id="text_13">
      <!-- $\mathdefault{10^{-2}}$ -->
      <g transform="translate(41.5 150.679219)scale(0.1 -0.1)">
       <use transform="translate(0 0.765625)" xlink:href="#DejaVuSans-49"/>
       <use transform="translate(63.623047 0.765625)" xlink:href="#DejaVuSans-48"/>
       <use transform="translate(128.203125 39.046875)scale(0.7)" xlink:href="#DejaVuSans-8722"/>
       <use transform="translate(186.855469 39.046875)scale(0.7)" xlink:href="#DejaVuSans-50"/>
      </g>
     </g>
    </g>
    <g id="ytick_7">
     <g id="line2d_25">
      <path clip-path="url(#p486e57c34f)" d="M 72 99.36 
L 518.4 99.36 
" style="fill:none;stroke:#b0b0b0;stroke-linecap:square;stroke-width:0.8;"/>
     </g>
     <g id="line2d_26">
      <g>
       <use style="stroke:#000000;stroke-width:0.8;" x="72" xlink:href="#maaf9858aaf" y="99.36"/>
      </g>
     </g>
     <g id="text_14">
      <!-- $\mathdefault{10^{0}}$ -->
      <g transform="translate(47.4 103.159219)scale(0.1 -0.1)">
       <use transform="translate(0 0.765625)" xlink:href="#DejaVuSans-49"/>
       <use transform="translate(63.623047 0.765625)" xlink:href="#DejaVuSans-48"/>
       <use transform="translate(128.203125 39.046875)scale(0.7)" xlink:href="#DejaVuSans-48"/>
      </g>
     </g>
    </g>
    <g id="ytick_8">
     <g id="line2d_27">
      <path clip-path="url(#p486e57c34f)" d="M 72 51.84 
L 518.4 51.84 
" style="fill:none;stroke:#b0b0b0;stroke-linecap:square;stroke-width:0.8;"/>
     </g>
     <g id="line2d_28">
      <g>
       <use style="stroke:#000000;stroke-width:0.8;" x="72" xlink:href="#maaf9858aaf" y="51.84"/>
      </g>
     </g>
     <g id="text_15">
      <!-- $\mathdefault{10^{2}}$ -->
      <g transform="translate(47.4 55.639219)scale(0.1 -0.1)">
       <use transform="translate(0 0.765625)" xlink:href="#DejaVuSans-49"/>
       <use transform="translate(63.623047 0.765625)" xlink:href="#DejaVuSans-48"/>
       <use transform="translate(128.203125 39.046875)scale(0.7)" xlink:href="#DejaVuSans-50"/>
      </g>
     </g>
    </g>
    <g id="text_16">
     <!-- Integrated Squared Error -->
     <defs>
      <path d="M 45.40625 27.984375 
Q 45.40625 37.75 41.375 43.109375 
Q 37.359375 48.484375 30.078125 48.484375 
Q 22.859375 48.484375 18.828125 43.109375 
Q 14.796875 37.75 14.796875 27.984375 
Q 14.796875 18.265625 18.828125 12.890625 
Q 22.859375 7.515625 30.078125 7.515625 
Q 37.359375 7.515625 41.375 12.890625 
Q 45.40625 18.265625 45.40625 27.984375 
z
M 54.390625 6.78125 
Q 54.390625 -7.171875 48.1875 -13.984375 
Q 42 -20.796875 29.203125 -20.796875 
Q 24.46875 -20.796875 20.265625 -20.09375 
Q 16.0625 -19.390625 12.109375 -17.921875 
L 12.109375 -9.1875 
Q 16.0625 -11.328125 19.921875 -12.34375 
Q 23.78125 -13.375 27.78125 -13.375 
Q 36.625 -13.375 41.015625 -8.765625 
Q 45.40625 -4.15625 45.40625 5.171875 
L 45.40625 9.625 
Q 42.625 4.78125 38.28125 2.390625 
Q 33.9375 0 27.875 0 
Q 17.828125 0 11.671875 7.65625 
Q 5.515625 15.328125 5.515625 27.984375 
Q 5.515625 40.671875 11.671875 48.328125 
Q 17.828125 56 27.875 56 
Q 33.9375 56 38.28125 53.609375 
Q 42.625 51.21875 45.40625 46.390625 
L 45.40625 54.6875 
L 54.390625 54.6875 
z
" id="DejaVuSans-103"/>
      <path d="M 45.40625 46.390625 
L 45.40625 75.984375 
L 54.390625 75.984375 
L 54.390625 0 
L 45.40625 0 
L 45.40625 8.203125 
Q 42.578125 3.328125 38.25 0.953125 
Q 33.9375 -1.421875 27.875 -1.421875 
Q 17.96875 -1.421875 11.734375 6.484375 
Q 5.515625 14.40625 5.515625 27.296875 
Q 5.515625 40.1875 11.734375 48.09375 
Q 17.96875 56 27.875 56 
Q 33.9375 56 38.25 53.625 
Q 42.578125 51.265625 45.40625 46.390625 
z
M 14.796875 27.296875 
Q 14.796875 17.390625 18.875 11.75 
Q 22.953125 6.109375 30.078125 6.109375 
Q 37.203125 6.109375 41.296875 11.75 
Q 45.40625 17.390625 45.40625 27.296875 
Q 45.40625 37.203125 41.296875 42.84375 
Q 37.203125 48.484375 30.078125 48.484375 
Q 22.953125 48.484375 18.875 42.84375 
Q 14.796875 37.203125 14.796875 27.296875 
z
" id="DejaVuSans-100"/>
      <path id="DejaVuSans-32"/>
      <path d="M 53.515625 70.515625 
L 53.515625 60.890625 
Q 47.90625 63.578125 42.921875 64.890625 
Q 37.9375 66.21875 33.296875 66.21875 
Q 25.25 66.21875 20.875 63.09375 
Q 16.5 59.96875 16.5 54.203125 
Q 16.5 49.359375 19.40625 46.890625 
Q 22.3125 44.4375 30.421875 42.921875 
L 36.375 41.703125 
Q 47.40625 39.59375 52.65625 34.296875 
Q 57.90625 29 57.90625 20.125 
Q 57.90625 9.515625 50.796875 4.046875 
Q 43.703125 -1.421875 29.984375 -1.421875 
Q 24.8125 -1.421875 18.96875 -0.25 
Q 13.140625 0.921875 6.890625 3.21875 
L 6.890625 13.375 
Q 12.890625 10.015625 18.65625 8.296875 
Q 24.421875 6.59375 29.984375 6.59375 
Q 38.421875 6.59375 43.015625 9.90625 
Q 47.609375 13.234375 47.609375 19.390625 
Q 47.609375 24.75 44.3125 27.78125 
Q 41.015625 30.8125 33.5 32.328125 
L 27.484375 33.5 
Q 16.453125 35.6875 11.515625 40.375 
Q 6.59375 45.0625 6.59375 53.421875 
Q 6.59375 63.09375 13.40625 68.65625 
Q 20.21875 74.21875 32.171875 74.21875 
Q 37.3125 74.21875 42.625 73.28125 
Q 47.953125 72.359375 53.515625 70.515625 
z
" id="DejaVuSans-83"/>
      <path d="M 14.796875 27.296875 
Q 14.796875 17.390625 18.875 11.75 
Q 22.953125 6.109375 30.078125 6.109375 
Q 37.203125 6.109375 41.296875 11.75 
Q 45.40625 17.390625 45.40625 27.296875 
Q 45.40625 37.203125 41.296875 42.84375 
Q 37.203125 48.484375 30.078125 48.484375 
Q 22.953125 48.484375 18.875 42.84375 
Q 14.796875 37.203125 14.796875 27.296875 
z
M 45.40625 8.203125 
Q 42.578125 3.328125 38.25 0.953125 
Q 33.9375 -1.421875 27.875 -1.421875 
Q 17.96875 -1.421875 11.734375 6.484375 
Q 5.515625 14.40625 5.515625 27.296875 
Q 5.515625 40.1875 11.734375 48.09375 
Q 17.96875 56 27.875 56 
Q 33.9375 56 38.25 53.625 
Q 42.578125 51.265625 45.40625 46.390625 
L 45.40625 54.6875 
L 54.390625 54.6875 
L 54.390625 -20.796875 
L 45.40625 -20.796875 
z
" id="DejaVuSans-113"/>
      <path d="M 8.5 21.578125 
L 8.5 54.6875 
L 17.484375 54.6875 
L 17.484375 21.921875 
Q 17.484375 14.15625 20.5 10.265625 
Q 23.53125 6.390625 29.59375 6.390625 
Q 36.859375 6.390625 41.078125 11.03125 
Q 45.3125 15.671875 45.3125 23.6875 
L 45.3125 54.6875 
L 54.296875 54.6875 
L 54.296875 0 
L 45.3125 0 
L 45.3125 8.40625 
Q 42.046875 3.421875 37.71875 1 
Q 33.40625 -1.421875 27.6875 -1.421875 
Q 18.265625 -1.421875 13.375 4.4375 
Q 8.5 10.296875 8.5 21.578125 
z
M 31.109375 56 
z
" id="DejaVuSans-117"/>
      <path d="M 9.8125 72.90625 
L 55.90625 72.90625 
L 55.90625 64.59375 
L 19.671875 64.59375 
L 19.671875 43.015625 
L 54.390625 43.015625 
L 54.390625 34.71875 
L 19.671875 34.71875 
L 19.671875 8.296875 
L 56.78125 8.296875 
L 56.78125 0 
L 9.8125 0 
z
" id="DejaVuSans-69"/>
     </defs>
     <g transform="translate(31.020312 280.483437)rotate(-90)scale(0.1 -0.1)">
      <use xlink:href="#DejaVuSans-73"/>
      <use x="29.492188" xlink:href="#DejaVuSans-110"/>
      <use x="92.871094" xlink:href="#DejaVuSans-116"/>
      <use x="132.080078" xlink:href="#DejaVuSans-101"/>
      <use x="193.603516" xlink:href="#DejaVuSans-103"/>
      <use x="257.080078" xlink:href="#DejaVuSans-114"/>
      <use x="298.193359" xlink:href="#DejaVuSans-97"/>
      <use x="359.472656" xlink:href="#DejaVuSans-116"/>
      <use x="398.681641" xlink:href="#DejaVuSans-101"/>
      <use x="460.205078" xlink:href="#DejaVuSans-100"/>
      <use x="523.681641" xlink:href="#DejaVuSans-32"/>
      <use x="555.46875" xlink:href="#DejaVuSans-83"/>
      <use x="618.945312" xlink:href="#DejaVuSans-113"/>
      <use x="682.421875" xlink:href="#DejaVuSans-117"/>
      <use x="745.800781" xlink:href="#DejaVuSans-97"/>
      <use x="807.080078" xlink:href="#DejaVuSans-114"/>
      <use x="845.943359" xlink:href="#DejaVuSans-101"/>
      <use x="907.466797" xlink:href="#DejaVuSans-100"/>
      <use x="970.943359" xlink:href="#DejaVuSans-32"/>
      <use x="1002.730469" xlink:href="#DejaVuSans-69"/>
      <use x="1065.914062" xlink:href="#DejaVuSans-114"/>
      <use x="1105.277344" xlink:href="#DejaVuSans-114"/>
      <use x="1144.140625" xlink:href="#DejaVuSans-111"/>
      <use x="1205.322266" xlink:href="#DejaVuSans-114"/>
     </g>
    </g>
   </g>
   <g id="line2d_29">
    <path clip-path="url(#p486e57c34f)" d="M 72 143.456303 
L 80.928 143.109686 
L 89.856 142.989005 
L 98.784 143.615318 
L 107.712 143.945934 
L 116.64 143.875495 
L 125.568 142.779058 
L 134.496 142.547349 
L 143.424 142.064097 
L 152.352 143.106321 
L 161.28 142.769234 
L 170.208 142.890478 
L 179.136 142.840406 
L 188.064 142.348641 
L 196.992 142.997303 
L 205.92 141.875341 
L 214.848 143.470125 
L 223.776 142.782896 
L 232.704 141.763758 
L 241.632 142.591159 
L 250.56 142.027484 
L 259.488 142.258696 
L 268.416 142.588955 
L 277.344 143.129201 
L 286.272 143.030629 
L 295.2 142.098703 
L 304.128 142.383597 
L 313.056 141.817756 
L 321.984 142.912642 
L 330.912 142.170124 
L 339.84 141.367342 
L 348.768 142.420354 
L 357.696 142.13362 
L 366.624 142.527728 
L 375.552 142.743634 
L 384.48 141.631994 
L 393.408 142.512797 
L 402.336 142.324697 
L 411.264 141.964279 
L 420.192 142.039942 
L 429.12 141.232099 
L 438.048 141.485732 
L 446.976 142.279288 
L 455.904 141.981844 
L 464.832 142.318814 
L 473.76 141.74386 
L 482.688 142.715119 
L 491.616 141.51773 
L 500.544 142.412799 
L 509.472 141.803677 
L 518.4 141.185907 
" style="fill:none;stroke:#1f77b4;stroke-linecap:square;stroke-width:1.5;"/>
   </g>
   <g id="line2d_30">
    <path clip-path="url(#p486e57c34f)" d="M 72 119.8807 
L 80.928 115.617721 
L 89.856 115.621136 
L 98.784 115.636294 
L 107.712 115.64847 
L 116.64 115.659608 
L 125.568 115.66559 
L 134.496 115.66559 
L 143.424 115.66559 
L 152.352 115.66559 
L 161.28 115.66559 
L 170.208 115.66559 
L 179.136 115.66559 
L 188.064 115.66559 
L 196.992 115.66559 
L 205.92 115.66559 
L 214.848 115.66559 
L 223.776 115.66559 
L 232.704 115.66559 
L 241.632 115.66559 
L 250.56 115.66559 
L 259.488 115.66559 
L 268.416 115.66559 
L 277.344 115.66559 
L 286.272 115.66559 
L 295.2 115.66559 
L 304.128 115.66559 
L 313.056 115.66559 
L 321.984 115.66559 
L 330.912 115.66559 
L 339.84 115.66559 
L 348.768 115.66559 
L 357.696 115.66559 
L 366.624 115.66559 
L 375.552 115.66559 
L 384.48 115.66559 
L 393.408 115.66559 
L 402.336 115.66559 
L 411.264 115.66559 
L 420.192 115.66559 
L 429.12 115.66559 
L 438.048 115.66559 
L 446.976 115.66559 
L 455.904 115.66559 
L 464.832 115.66559 
L 473.76 115.66559 
L 482.688 115.66559 
L 491.616 115.66559 
L 500.544 115.66559 
L 509.472 115.66559 
L 518.4 115.66559 
" style="fill:none;stroke:#ff7f0e;stroke-linecap:square;stroke-width:1.5;"/>
   </g>
   <g id="line2d_31">
    <path clip-path="url(#p486e57c34f)" d="M 72 151.295787 
L 80.928 153.980115 
L 89.856 152.804335 
L 98.784 155.508873 
L 107.712 155.519137 
L 116.64 156.140638 
L 125.568 163.682481 
L 134.496 164.073441 
L 143.424 164.100985 
L 152.352 164.105548 
L 161.28 165.206536 
L 170.208 167.66627 
L 179.136 167.666671 
L 188.064 167.727187 
L 196.992 168.696849 
L 205.92 169.133617 
L 214.848 169.137159 
L 223.776 169.137161 
L 232.704 169.160158 
L 241.632 169.173549 
L 250.56 169.17425 
L 259.488 169.174979 
L 268.416 169.414432 
L 277.344 169.668749 
L 286.272 169.671281 
L 295.2 169.671325 
L 304.128 169.805415 
L 313.056 170.424352 
L 321.984 170.424438 
L 330.912 170.425291 
L 339.84 188.404378 
L 348.768 192.094374 
L 357.696 192.094939 
L 366.624 192.094945 
L 375.552 192.214213 
L 384.48 192.242809 
L 393.408 192.242839 
L 402.336 192.243411 
L 411.264 192.271084 
L 420.192 192.271324 
L 429.12 192.271462 
L 438.048 192.271805 
L 446.976 192.27302 
L 455.904 192.305107 
L 464.832 192.305107 
L 473.76 192.306169 
L 482.688 193.16327 
L 491.616 197.808218 
L 500.544 197.809995 
L 509.472 197.809995 
L 518.4 197.812093 
" style="fill:none;stroke:#2ca02c;stroke-linecap:square;stroke-width:1.5;"/>
   </g>
   <g id="line2d_32">
    <path clip-path="url(#p486e57c34f)" d="M 72 145.649152 
L 80.928 148.650305 
L 89.856 147.113731 
L 98.784 144.698334 
L 107.712 144.695029 
L 116.64 149.715516 
L 125.568 162.192209 
L 134.496 163.245882 
L 143.424 163.262561 
L 152.352 163.291319 
L 161.28 164.476901 
L 170.208 166.168675 
L 179.136 166.177356 
L 188.064 166.187715 
L 196.992 164.71158 
L 205.92 163.113525 
L 214.848 163.116642 
L 223.776 163.119551 
L 232.704 163.182 
L 241.632 163.184826 
L 250.56 164.331066 
L 259.488 164.33336 
L 268.416 165.143074 
L 277.344 166.167375 
L 286.272 166.170436 
L 295.2 166.173341 
L 304.128 167.348506 
L 313.056 167.369028 
L 321.984 167.371612 
L 330.912 167.3741 
L 339.84 115.665475 
L 348.768 115.665475 
L 357.696 115.665475 
L 366.624 115.665475 
L 375.552 115.665475 
L 384.48 115.665475 
L 393.408 115.665475 
L 402.336 117.231946 
L 411.264 117.231962 
L 420.192 117.231826 
L 429.12 117.231681 
L 438.048 117.231571 
L 446.976 117.231434 
L 455.904 117.231302 
L 464.832 117.231174 
L 473.76 117.23105 
L 482.688 117.239342 
L 491.616 117.240044 
L 500.544 117.239921 
L 509.472 117.239801 
L 518.4 117.239685 
" style="fill:none;stroke:#d62728;stroke-linecap:square;stroke-width:1.5;"/>
   </g>
   <g id="line2d_33">
    <path clip-path="url(#p486e57c34f)" d="M 72 145.793447 
L 80.928 145.094089 
L 89.856 127.153499 
L 98.784 115.636166 
L 107.712 115.648342 
L 116.64 115.65948 
L 125.568 115.665462 
L 134.496 115.665462 
L 143.424 115.665462 
L 152.352 115.665462 
L 161.28 115.665462 
L 170.208 115.665462 
L 179.136 115.665462 
L 188.064 115.665462 
L 196.992 115.665462 
L 205.92 115.665462 
L 214.848 115.665462 
L 223.776 115.665462 
L 232.704 115.665462 
L 241.632 115.665462 
L 250.56 115.665462 
L 259.488 115.665462 
L 268.416 115.665462 
L 277.344 115.665462 
L 286.272 115.665462 
L 295.2 115.665462 
L 304.128 115.665462 
L 313.056 115.665462 
L 321.984 115.665462 
L 330.912 115.665462 
L 339.84 115.665462 
L 348.768 115.665462 
L 357.696 115.665462 
L 366.624 115.665462 
L 375.552 115.665462 
L 384.48 115.665462 
L 393.408 115.665462 
L 402.336 115.665462 
L 411.264 115.665462 
L 420.192 115.665462 
L 429.12 115.665462 
L 438.048 115.665462 
L 446.976 115.665462 
L 455.904 115.665462 
L 464.832 115.665462 
L 473.76 115.665462 
L 482.688 115.665462 
L 491.616 115.665462 
L 500.544 115.665462 
L 509.472 115.665462 
L 518.4 115.665462 
" style="fill:none;stroke:#9467bd;stroke-linecap:square;stroke-width:1.5;"/>
   </g>
   <g id="line2d_34">
    <path clip-path="url(#p486e57c34f)" d="M 72 150.440097 
L 80.928 151.642646 
L 89.856 152.17096 
L 98.784 153.627856 
L 107.712 153.027092 
L 116.64 152.487391 
L 125.568 164.459967 
L 134.496 165.300551 
L 143.424 165.783199 
L 152.352 166.056064 
L 161.28 166.497757 
L 170.208 167.391422 
L 179.136 167.505787 
L 188.064 167.615684 
L 196.992 168.891894 
L 205.92 170.48264 
L 214.848 170.630143 
L 223.776 170.761368 
L 232.704 170.989578 
L 241.632 171.131856 
L 250.56 171.227655 
L 259.488 171.349295 
L 268.416 172.226895 
L 277.344 172.599859 
L 286.272 172.770864 
L 295.2 172.928515 
L 304.128 173.145516 
L 313.056 173.470706 
L 321.984 173.618745 
L 330.912 173.763343 
L 339.84 192.582218 
L 348.768 201.073082 
L 357.696 200.945967 
L 366.624 200.797901 
L 375.552 200.637279 
L 384.48 200.486347 
L 393.408 200.352245 
L 402.336 200.223887 
L 411.264 200.124116 
L 420.192 200.004471 
L 429.12 199.895545 
L 438.048 199.844189 
L 446.976 199.759794 
L 455.904 199.741493 
L 464.832 199.713235 
L 473.76 199.573127 
L 482.688 199.75976 
L 491.616 200.811851 
L 500.544 200.872355 
L 509.472 200.977432 
L 518.4 201.63214 
" style="fill:none;stroke:#8c564b;stroke-linecap:square;stroke-width:1.5;"/>
   </g>
   <g id="line2d_35">
    <path clip-path="url(#p486e57c34f)" d="M 72 146.80073 
L 80.928 146.908361 
L 89.856 146.156026 
L 98.784 147.966229 
L 107.712 148.361052 
L 116.64 148.406481 
L 125.568 148.79356 
L 134.496 148.874503 
L 143.424 148.880857 
L 152.352 148.91118 
L 161.28 149.319042 
L 170.208 149.248518 
L 179.136 149.265326 
L 188.064 149.313581 
L 196.992 149.172356 
L 205.92 149.018066 
L 214.848 149.034762 
L 223.776 149.045278 
L 232.704 149.180898 
L 241.632 149.27736 
L 250.56 149.349923 
L 259.488 149.357722 
L 268.416 149.331324 
L 277.344 149.295948 
L 286.272 149.294051 
L 295.2 149.303627 
L 304.128 149.412281 
L 313.056 149.330005 
L 321.984 149.329952 
L 330.912 149.368943 
L 339.84 149.423205 
L 348.768 149.436571 
L 357.696 149.431127 
L 366.624 149.436255 
L 375.552 149.429126 
L 384.48 149.42706 
L 393.408 149.432302 
L 402.336 149.433677 
L 411.264 149.439059 
L 420.192 149.436533 
L 429.12 149.433469 
L 438.048 149.42745 
L 446.976 149.438777 
L 455.904 149.426593 
L 464.832 149.424059 
L 473.76 149.423841 
L 482.688 149.429854 
L 491.616 149.439951 
L 500.544 149.440913 
L 509.472 149.441087 
L 518.4 149.440513 
" style="fill:none;stroke:#e377c2;stroke-linecap:square;stroke-width:1.5;"/>
   </g>
   <g id="patch_3">
    <path d="M 72 384.48 
L 72 51.84 
" style="fill:none;stroke:#000000;stroke-linecap:square;stroke-linejoin:miter;stroke-width:0.8;"/>
   </g>
   <g id="patch_4">
    <path d="M 518.4 384.48 
L 518.4 51.84 
" style="fill:none;stroke:#000000;stroke-linecap:square;stroke-linejoin:miter;stroke-width:0.8;"/>
   </g>
   <g id="patch_5">
    <path d="M 72 384.48 
L 518.4 384.48 
" style="fill:none;stroke:#000000;stroke-linecap:square;stroke-linejoin:miter;stroke-width:0.8;"/>
   </g>
   <g id="patch_6">
    <path d="M 72 51.84 
L 518.4 51.84 
" style="fill:none;stroke:#000000;stroke-linecap:square;stroke-linejoin:miter;stroke-width:0.8;"/>
   </g>
   <g id="legend_1">
    <g id="patch_7">
     <path d="M 79 379.48 
L 165.804688 379.48 
Q 167.804688 379.48 167.804688 377.48 
L 167.804688 275.733125 
Q 167.804688 273.733125 165.804688 273.733125 
L 79 273.733125 
Q 77 273.733125 77 275.733125 
L 77 377.48 
Q 77 379.48 79 379.48 
z
" style="fill:#ffffff;opacity:0.8;stroke:#cccccc;stroke-linejoin:miter;"/>
    </g>
    <g id="line2d_36">
     <path d="M 81 281.831563 
L 101 281.831563 
" style="fill:none;stroke:#1f77b4;stroke-linecap:square;stroke-width:1.5;"/>
    </g>
    <g id="line2d_37"/>
    <g id="text_17">
     <!-- Constant -->
     <defs>
      <path d="M 64.40625 67.28125 
L 64.40625 56.890625 
Q 59.421875 61.53125 53.78125 63.8125 
Q 48.140625 66.109375 41.796875 66.109375 
Q 29.296875 66.109375 22.65625 58.46875 
Q 16.015625 50.828125 16.015625 36.375 
Q 16.015625 21.96875 22.65625 14.328125 
Q 29.296875 6.6875 41.796875 6.6875 
Q 48.140625 6.6875 53.78125 8.984375 
Q 59.421875 11.28125 64.40625 15.921875 
L 64.40625 5.609375 
Q 59.234375 2.09375 53.4375 0.328125 
Q 47.65625 -1.421875 41.21875 -1.421875 
Q 24.65625 -1.421875 15.125 8.703125 
Q 5.609375 18.84375 5.609375 36.375 
Q 5.609375 53.953125 15.125 64.078125 
Q 24.65625 74.21875 41.21875 74.21875 
Q 47.75 74.21875 53.53125 72.484375 
Q 59.328125 70.75 64.40625 67.28125 
z
" id="DejaVuSans-67"/>
      <path d="M 44.28125 53.078125 
L 44.28125 44.578125 
Q 40.484375 46.53125 36.375 47.5 
Q 32.28125 48.484375 27.875 48.484375 
Q 21.1875 48.484375 17.84375 46.4375 
Q 14.5 44.390625 14.5 40.28125 
Q 14.5 37.15625 16.890625 35.375 
Q 19.28125 33.59375 26.515625 31.984375 
L 29.59375 31.296875 
Q 39.15625 29.25 43.1875 25.515625 
Q 47.21875 21.78125 47.21875 15.09375 
Q 47.21875 7.46875 41.1875 3.015625 
Q 35.15625 -1.421875 24.609375 -1.421875 
Q 20.21875 -1.421875 15.453125 -0.5625 
Q 10.6875 0.296875 5.421875 2 
L 5.421875 11.28125 
Q 10.40625 8.6875 15.234375 7.390625 
Q 20.0625 6.109375 24.8125 6.109375 
Q 31.15625 6.109375 34.5625 8.28125 
Q 37.984375 10.453125 37.984375 14.40625 
Q 37.984375 18.0625 35.515625 20.015625 
Q 33.0625 21.96875 24.703125 23.78125 
L 21.578125 24.515625 
Q 13.234375 26.265625 9.515625 29.90625 
Q 5.8125 33.546875 5.8125 39.890625 
Q 5.8125 47.609375 11.28125 51.796875 
Q 16.75 56 26.8125 56 
Q 31.78125 56 36.171875 55.265625 
Q 40.578125 54.546875 44.28125 53.078125 
z
" id="DejaVuSans-115"/>
     </defs>
     <g transform="translate(109 285.331563)scale(0.1 -0.1)">
      <use xlink:href="#DejaVuSans-67"/>
      <use x="69.824219" xlink:href="#DejaVuSans-111"/>
      <use x="131.005859" xlink:href="#DejaVuSans-110"/>
      <use x="194.384766" xlink:href="#DejaVuSans-115"/>
      <use x="246.484375" xlink:href="#DejaVuSans-116"/>
      <use x="285.693359" xlink:href="#DejaVuSans-97"/>
      <use x="346.972656" xlink:href="#DejaVuSans-110"/>
      <use x="410.351562" xlink:href="#DejaVuSans-116"/>
     </g>
    </g>
    <g id="line2d_38">
     <path d="M 81 296.509688 
L 101 296.509688 
" style="fill:none;stroke:#ff7f0e;stroke-linecap:square;stroke-width:1.5;"/>
    </g>
    <g id="line2d_39"/>
    <g id="text_18">
     <!-- RBF -->
     <defs>
      <path d="M 44.390625 34.1875 
Q 47.5625 33.109375 50.5625 29.59375 
Q 53.5625 26.078125 56.59375 19.921875 
L 66.609375 0 
L 56 0 
L 46.6875 18.703125 
Q 43.0625 26.03125 39.671875 28.421875 
Q 36.28125 30.8125 30.421875 30.8125 
L 19.671875 30.8125 
L 19.671875 0 
L 9.8125 0 
L 9.8125 72.90625 
L 32.078125 72.90625 
Q 44.578125 72.90625 50.734375 67.671875 
Q 56.890625 62.453125 56.890625 51.90625 
Q 56.890625 45.015625 53.6875 40.46875 
Q 50.484375 35.9375 44.390625 34.1875 
z
M 19.671875 64.796875 
L 19.671875 38.921875 
L 32.078125 38.921875 
Q 39.203125 38.921875 42.84375 42.21875 
Q 46.484375 45.515625 46.484375 51.90625 
Q 46.484375 58.296875 42.84375 61.546875 
Q 39.203125 64.796875 32.078125 64.796875 
z
" id="DejaVuSans-82"/>
      <path d="M 19.671875 34.8125 
L 19.671875 8.109375 
L 35.5 8.109375 
Q 43.453125 8.109375 47.28125 11.40625 
Q 51.125 14.703125 51.125 21.484375 
Q 51.125 28.328125 47.28125 31.5625 
Q 43.453125 34.8125 35.5 34.8125 
z
M 19.671875 64.796875 
L 19.671875 42.828125 
L 34.28125 42.828125 
Q 41.5 42.828125 45.03125 45.53125 
Q 48.578125 48.25 48.578125 53.8125 
Q 48.578125 59.328125 45.03125 62.0625 
Q 41.5 64.796875 34.28125 64.796875 
z
M 9.8125 72.90625 
L 35.015625 72.90625 
Q 46.296875 72.90625 52.390625 68.21875 
Q 58.5 63.53125 58.5 54.890625 
Q 58.5 48.1875 55.375 44.234375 
Q 52.25 40.28125 46.1875 39.3125 
Q 53.46875 37.75 57.5 32.78125 
Q 61.53125 27.828125 61.53125 20.40625 
Q 61.53125 10.640625 54.890625 5.3125 
Q 48.25 0 35.984375 0 
L 9.8125 0 
z
" id="DejaVuSans-66"/>
      <path d="M 9.8125 72.90625 
L 51.703125 72.90625 
L 51.703125 64.59375 
L 19.671875 64.59375 
L 19.671875 43.109375 
L 48.578125 43.109375 
L 48.578125 34.8125 
L 19.671875 34.8125 
L 19.671875 0 
L 9.8125 0 
z
" id="DejaVuSans-70"/>
     </defs>
     <g transform="translate(109 300.009688)scale(0.1 -0.1)">
      <use xlink:href="#DejaVuSans-82"/>
      <use x="69.482422" xlink:href="#DejaVuSans-66"/>
      <use x="138.085938" xlink:href="#DejaVuSans-70"/>
     </g>
    </g>
    <g id="line2d_40">
     <path d="M 81 311.187813 
L 101 311.187813 
" style="fill:none;stroke:#2ca02c;stroke-linecap:square;stroke-width:1.5;"/>
    </g>
    <g id="line2d_41"/>
    <g id="text_19">
     <!-- Matrn-1/2 -->
     <defs>
      <path d="M 9.8125 72.90625 
L 24.515625 72.90625 
L 43.109375 23.296875 
L 61.8125 72.90625 
L 76.515625 72.90625 
L 76.515625 0 
L 66.890625 0 
L 66.890625 64.015625 
L 48.09375 14.015625 
L 38.1875 14.015625 
L 19.390625 64.015625 
L 19.390625 0 
L 9.8125 0 
z
" id="DejaVuSans-77"/>
      <path d="M 56.203125 29.59375 
L 56.203125 25.203125 
L 14.890625 25.203125 
Q 15.484375 15.921875 20.484375 11.0625 
Q 25.484375 6.203125 34.421875 6.203125 
Q 39.59375 6.203125 44.453125 7.46875 
Q 49.3125 8.734375 54.109375 11.28125 
L 54.109375 2.78125 
Q 49.265625 0.734375 44.1875 -0.34375 
Q 39.109375 -1.421875 33.890625 -1.421875 
Q 20.796875 -1.421875 13.15625 6.1875 
Q 5.515625 13.8125 5.515625 26.8125 
Q 5.515625 40.234375 12.765625 48.109375 
Q 20.015625 56 32.328125 56 
Q 43.359375 56 49.78125 48.890625 
Q 56.203125 41.796875 56.203125 29.59375 
z
M 47.21875 32.234375 
Q 47.125 39.59375 43.09375 43.984375 
Q 39.0625 48.390625 32.421875 48.390625 
Q 24.90625 48.390625 20.390625 44.140625 
Q 15.875 39.890625 15.1875 32.171875 
z
M 38.53125 79.984375 
L 48.25 79.984375 
L 32.34375 61.625 
L 24.859375 61.625 
z
" id="DejaVuSans-233"/>
      <path d="M 4.890625 31.390625 
L 31.203125 31.390625 
L 31.203125 23.390625 
L 4.890625 23.390625 
z
" id="DejaVuSans-45"/>
      <path d="M 25.390625 72.90625 
L 33.6875 72.90625 
L 8.296875 -9.28125 
L 0 -9.28125 
z
" id="DejaVuSans-47"/>
     </defs>
     <g transform="translate(109 314.687813)scale(0.1 -0.1)">
      <use xlink:href="#DejaVuSans-77"/>
      <use x="86.279297" xlink:href="#DejaVuSans-97"/>
      <use x="147.558594" xlink:href="#DejaVuSans-116"/>
      <use x="186.767578" xlink:href="#DejaVuSans-233"/>
      <use x="248.291016" xlink:href="#DejaVuSans-114"/>
      <use x="287.654297" xlink:href="#DejaVuSans-110"/>
      <use x="351.033203" xlink:href="#DejaVuSans-45"/>
      <use x="387.117188" xlink:href="#DejaVuSans-49"/>
      <use x="450.740234" xlink:href="#DejaVuSans-47"/>
      <use x="484.431641" xlink:href="#DejaVuSans-50"/>
     </g>
    </g>
    <g id="line2d_42">
     <path d="M 81 325.865938 
L 101 325.865938 
" style="fill:none;stroke:#d62728;stroke-linecap:square;stroke-width:1.5;"/>
    </g>
    <g id="line2d_43"/>
    <g id="text_20">
     <!-- Matrn-3/2 -->
     <g transform="translate(109 329.365938)scale(0.1 -0.1)">
      <use xlink:href="#DejaVuSans-77"/>
      <use x="86.279297" xlink:href="#DejaVuSans-97"/>
      <use x="147.558594" xlink:href="#DejaVuSans-116"/>
      <use x="186.767578" xlink:href="#DejaVuSans-233"/>
      <use x="248.291016" xlink:href="#DejaVuSans-114"/>
      <use x="287.654297" xlink:href="#DejaVuSans-110"/>
      <use x="351.033203" xlink:href="#DejaVuSans-45"/>
      <use x="387.117188" xlink:href="#DejaVuSans-51"/>
      <use x="450.740234" xlink:href="#DejaVuSans-47"/>
      <use x="484.431641" xlink:href="#DejaVuSans-50"/>
     </g>
    </g>
    <g id="line2d_44">
     <path d="M 81 340.544062 
L 101 340.544062 
" style="fill:none;stroke:#9467bd;stroke-linecap:square;stroke-width:1.5;"/>
    </g>
    <g id="line2d_45"/>
    <g id="text_21">
     <!-- Matrn-5/2 -->
     <g transform="translate(109 344.044062)scale(0.1 -0.1)">
      <use xlink:href="#DejaVuSans-77"/>
      <use x="86.279297" xlink:href="#DejaVuSans-97"/>
      <use x="147.558594" xlink:href="#DejaVuSans-116"/>
      <use x="186.767578" xlink:href="#DejaVuSans-233"/>
      <use x="248.291016" xlink:href="#DejaVuSans-114"/>
      <use x="287.654297" xlink:href="#DejaVuSans-110"/>
      <use x="351.033203" xlink:href="#DejaVuSans-45"/>
      <use x="387.117188" xlink:href="#DejaVuSans-53"/>
      <use x="450.740234" xlink:href="#DejaVuSans-47"/>
      <use x="484.431641" xlink:href="#DejaVuSans-50"/>
     </g>
    </g>
    <g id="line2d_46">
     <path d="M 81 355.222188 
L 101 355.222188 
" style="fill:none;stroke:#8c564b;stroke-linecap:square;stroke-width:1.5;"/>
    </g>
    <g id="line2d_47"/>
    <g id="text_22">
     <!-- RQ -->
     <defs>
      <path d="M 39.40625 66.21875 
Q 28.65625 66.21875 22.328125 58.203125 
Q 16.015625 50.203125 16.015625 36.375 
Q 16.015625 22.609375 22.328125 14.59375 
Q 28.65625 6.59375 39.40625 6.59375 
Q 50.140625 6.59375 56.421875 14.59375 
Q 62.703125 22.609375 62.703125 36.375 
Q 62.703125 50.203125 56.421875 58.203125 
Q 50.140625 66.21875 39.40625 66.21875 
z
M 53.21875 1.3125 
L 66.21875 -12.890625 
L 54.296875 -12.890625 
L 43.5 -1.21875 
Q 41.890625 -1.3125 41.03125 -1.359375 
Q 40.1875 -1.421875 39.40625 -1.421875 
Q 24.03125 -1.421875 14.8125 8.859375 
Q 5.609375 19.140625 5.609375 36.375 
Q 5.609375 53.65625 14.8125 63.9375 
Q 24.03125 74.21875 39.40625 74.21875 
Q 54.734375 74.21875 63.90625 63.9375 
Q 73.09375 53.65625 73.09375 36.375 
Q 73.09375 23.6875 67.984375 14.640625 
Q 62.890625 5.609375 53.21875 1.3125 
z
" id="DejaVuSans-81"/>
     </defs>
     <g transform="translate(109 358.722188)scale(0.1 -0.1)">
      <use xlink:href="#DejaVuSans-82"/>
      <use x="69.482422" xlink:href="#DejaVuSans-81"/>
     </g>
    </g>
    <g id="line2d_48">
     <path d="M 81 369.900313 
L 101 369.900313 
" style="fill:none;stroke:#e377c2;stroke-linecap:square;stroke-width:1.5;"/>
    </g>
    <g id="line2d_49"/>
    <g id="text_23">
     <!-- Dot Prod. -->
     <defs>
      <path d="M 19.671875 64.796875 
L 19.671875 8.109375 
L 31.59375 8.109375 
Q 46.6875 8.109375 53.6875 14.9375 
Q 60.6875 21.78125 60.6875 36.53125 
Q 60.6875 51.171875 53.6875 57.984375 
Q 46.6875 64.796875 31.59375 64.796875 
z
M 9.8125 72.90625 
L 30.078125 72.90625 
Q 51.265625 72.90625 61.171875 64.09375 
Q 71.09375 55.28125 71.09375 36.53125 
Q 71.09375 17.671875 61.125 8.828125 
Q 51.171875 0 30.078125 0 
L 9.8125 0 
z
" id="DejaVuSans-68"/>
      <path d="M 19.671875 64.796875 
L 19.671875 37.40625 
L 32.078125 37.40625 
Q 38.96875 37.40625 42.71875 40.96875 
Q 46.484375 44.53125 46.484375 51.125 
Q 46.484375 57.671875 42.71875 61.234375 
Q 38.96875 64.796875 32.078125 64.796875 
z
M 9.8125 72.90625 
L 32.078125 72.90625 
Q 44.34375 72.90625 50.609375 67.359375 
Q 56.890625 61.8125 56.890625 51.125 
Q 56.890625 40.328125 50.609375 34.8125 
Q 44.34375 29.296875 32.078125 29.296875 
L 19.671875 29.296875 
L 19.671875 0 
L 9.8125 0 
z
" id="DejaVuSans-80"/>
      <path d="M 10.6875 12.40625 
L 21 12.40625 
L 21 0 
L 10.6875 0 
z
" id="DejaVuSans-46"/>
     </defs>
     <g transform="translate(109 373.400313)scale(0.1 -0.1)">
      <use xlink:href="#DejaVuSans-68"/>
      <use x="77.001953" xlink:href="#DejaVuSans-111"/>
      <use x="138.183594" xlink:href="#DejaVuSans-116"/>
      <use x="177.392578" xlink:href="#DejaVuSans-32"/>
      <use x="209.179688" xlink:href="#DejaVuSans-80"/>
      <use x="267.732422" xlink:href="#DejaVuSans-114"/>
      <use x="306.595703" xlink:href="#DejaVuSans-111"/>
      <use x="367.777344" xlink:href="#DejaVuSans-100"/>
      <use x="431.253906" xlink:href="#DejaVuSans-46"/>
     </g>
    </g>
   </g>
  </g>
 </g>
 <defs>
  <clipPath id="p486e57c34f">
   <rect height="332.64" width="446.4" x="72" y="51.84"/>
  </clipPath>
 </defs>
</svg>
