<?xml version="1.0" encoding="utf-8" standalone="no"?>
<!DOCTYPE svg PUBLIC "-//W3C//DTD SVG 1.1//EN"
  "http://www.w3.org/Graphics/SVG/1.1/DTD/svg11.dtd">
<!-- Created with matplotlib (https://matplotlib.org/) -->
<svg height="432pt" version="1.1" viewBox="0 0 576 432" width="576pt" xmlns="http://www.w3.org/2000/svg" xmlns:xlink="http://www.w3.org/1999/xlink">
 <defs>
  <style type="text/css">
*{stroke-linecap:butt;stroke-linejoin:round;}
  </style>
 </defs>
 <g id="figure_1">
  <g id="patch_1">
   <path d="M 0 432 
L 576 432 
L 576 0 
L 0 0 
z
" style="fill:#ffffff;"/>
  </g>
  <g id="axes_1">
   <g id="patch_2">
    <path d="M 72 384.48 
L 518.4 384.48 
L 518.4 51.84 
L 72 51.84 
z
" style="fill:#ffffff;"/>
   </g>
   <g id="PolyCollection_1">
    <path clip-path="url(#p5d8b1ec762)" d="M 72 100.086667 
L 72 98.730498 
L 80.928 99.03365 
L 89.856 99.589187 
L 98.784 99.485233 
L 107.712 99.707613 
L 116.64 99.766162 
L 125.568 99.646744 
L 134.496 99.525123 
L 143.424 99.432611 
L 152.352 99.421879 
L 161.28 98.666956 
L 170.208 98.749989 
L 179.136 98.245581 
L 188.064 98.817657 
L 196.992 99.066832 
L 205.92 98.030492 
L 214.848 97.703069 
L 223.776 98.188941 
L 232.704 98.045553 
L 241.632 98.638824 
L 250.56 98.174304 
L 259.488 98.620871 
L 268.416 97.663191 
L 277.344 99.397258 
L 286.272 98.83011 
L 295.2 98.001708 
L 304.128 95.619044 
L 313.056 94.641106 
L 321.984 94.679499 
L 330.912 96.183594 
L 339.84 97.355291 
L 348.768 94.31705 
L 357.696 92.417745 
L 366.624 94.567786 
L 375.552 94.713619 
L 384.48 94.933824 
L 393.408 95.927258 
L 402.336 97.858668 
L 411.264 94.130247 
L 420.192 97.345963 
L 429.12 96.478115 
L 438.048 95.910799 
L 446.976 99.971342 
L 455.904 99.88034 
L 464.832 99.945595 
L 473.76 99.954025 
L 482.688 99.949721 
L 491.616 99.944298 
L 500.544 99.950264 
L 509.472 99.946535 
L 518.4 99.894785 
L 518.4 99.971987 
L 518.4 99.971987 
L 509.472 100.001229 
L 500.544 100.012447 
L 491.616 99.992278 
L 482.688 100.017232 
L 473.76 100.006056 
L 464.832 100.006074 
L 455.904 100.049764 
L 446.976 100.015567 
L 438.048 101.227359 
L 429.12 101.279077 
L 420.192 101.341253 
L 411.264 102.00149 
L 402.336 101.080116 
L 393.408 102.724574 
L 384.48 102.169324 
L 375.552 101.904116 
L 366.624 102.845715 
L 357.696 102.408602 
L 348.768 101.140596 
L 339.84 100.922926 
L 330.912 101.079268 
L 321.984 100.949305 
L 313.056 100.24863 
L 304.128 101.265328 
L 295.2 100.078832 
L 286.272 100.180937 
L 277.344 99.898607 
L 268.416 100.556793 
L 259.488 100.187513 
L 250.56 100.162052 
L 241.632 100.401113 
L 232.704 100.444362 
L 223.776 100.645451 
L 214.848 100.963807 
L 205.92 99.944441 
L 196.992 99.504879 
L 188.064 99.621433 
L 179.136 99.830765 
L 170.208 99.699843 
L 161.28 99.678089 
L 152.352 99.686739 
L 143.424 99.710641 
L 134.496 100.100187 
L 125.568 100.012073 
L 116.64 100.096002 
L 107.712 100.111875 
L 98.784 99.948125 
L 89.856 100.080054 
L 80.928 99.881332 
L 72 100.086667 
z
" style="fill:#1f77b4;fill-opacity:0.3;"/>
   </g>
   <g id="PolyCollection_2">
    <path clip-path="url(#p5d8b1ec762)" d="M 72 101.122024 
L 72 96.414408 
L 80.928 95.937891 
L 89.856 92.796283 
L 98.784 91.189973 
L 107.712 95.312903 
L 116.64 95.626023 
L 125.568 94.270237 
L 134.496 93.267893 
L 143.424 91.089222 
L 152.352 90.914095 
L 161.28 85.821529 
L 170.208 85.932254 
L 179.136 83.846465 
L 188.064 83.918361 
L 196.992 82.182783 
L 205.92 81.128852 
L 214.848 118.305803 
L 223.776 119.396392 
L 232.704 124.22091 
L 241.632 125.428299 
L 250.56 142.025759 
L 259.488 142.200001 
L 268.416 159.179439 
L 277.344 164.206454 
L 286.272 195.735508 
L 295.2 195.381084 
L 304.128 197.259674 
L 313.056 196.288852 
L 321.984 194.15318 
L 330.912 234.405578 
L 339.84 255.699769 
L 348.768 258.166176 
L 357.696 259.306769 
L 366.624 276.205887 
L 375.552 276.755107 
L 384.48 279.694535 
L 393.408 281.540137 
L 402.336 296.083095 
L 411.264 295.929372 
L 420.192 295.675114 
L 429.12 295.26945 
L 438.048 294.030537 
L 446.976 293.667207 
L 455.904 293.453405 
L 464.832 293.293481 
L 473.76 305.130325 
L 482.688 304.106075 
L 491.616 304.080724 
L 500.544 304.060956 
L 509.472 304.085443 
L 518.4 304.013489 
L 518.4 318.994949 
L 518.4 318.994949 
L 509.472 318.908193 
L 500.544 318.866913 
L 491.616 318.884811 
L 482.688 318.903082 
L 473.76 315.23409 
L 464.832 306.147327 
L 455.904 306.249387 
L 446.976 306.36378 
L 438.048 306.250059 
L 429.12 306.963423 
L 420.192 307.194607 
L 411.264 307.356485 
L 402.336 302.139855 
L 393.408 295.142041 
L 384.48 293.582423 
L 375.552 291.799763 
L 366.624 286.077057 
L 357.696 278.526744 
L 348.768 270.687032 
L 339.84 269.150968 
L 330.912 252.575443 
L 321.984 210.705403 
L 313.056 210.349376 
L 304.128 208.889935 
L 295.2 205.991629 
L 286.272 207.512387 
L 277.344 192.793202 
L 268.416 192.428799 
L 259.488 175.642205 
L 250.56 155.120855 
L 241.632 145.435491 
L 232.704 138.551799 
L 223.776 132.834665 
L 214.848 130.704261 
L 205.92 106.910416 
L 196.992 105.24237 
L 188.064 103.696334 
L 179.136 103.728098 
L 170.208 100.451376 
L 161.28 101.204013 
L 152.352 96.419315 
L 143.424 96.519028 
L 134.496 101.60295 
L 125.568 103.525148 
L 116.64 103.177686 
L 107.712 102.486204 
L 98.784 101.179802 
L 89.856 102.268176 
L 80.928 101.633739 
L 72 101.122024 
z
" style="fill:#ff7f0e;fill-opacity:0.3;"/>
   </g>
   <g id="PolyCollection_3">
    <path clip-path="url(#p5d8b1ec762)" d="M 72 101.266624 
L 72 98.02169 
L 80.928 97.773007 
L 89.856 99.428912 
L 98.784 99.399476 
L 107.712 100.565923 
L 116.64 100.555144 
L 125.568 100.696731 
L 134.496 100.708408 
L 143.424 96.150971 
L 152.352 96.155045 
L 161.28 91.68686 
L 170.208 91.674103 
L 179.136 91.533684 
L 188.064 91.526715 
L 196.992 91.448291 
L 205.92 91.401361 
L 214.848 103.472462 
L 223.776 103.467265 
L 232.704 103.460952 
L 241.632 103.458068 
L 250.56 103.427101 
L 259.488 103.425953 
L 268.416 103.389944 
L 277.344 103.38558 
L 286.272 103.371457 
L 295.2 103.369929 
L 304.128 113.824812 
L 313.056 113.836853 
L 321.984 113.892105 
L 330.912 113.893083 
L 339.84 113.893675 
L 348.768 113.894402 
L 357.696 127.55065 
L 366.624 127.556414 
L 375.552 127.649839 
L 384.48 127.653028 
L 393.408 127.666681 
L 402.336 127.668002 
L 411.264 127.734199 
L 420.192 127.747853 
L 429.12 127.97412 
L 438.048 127.979387 
L 446.976 128.198355 
L 455.904 128.198979 
L 464.832 128.203488 
L 473.76 128.203782 
L 482.688 128.20838 
L 491.616 128.208678 
L 500.544 128.363997 
L 509.472 128.3642 
L 518.4 128.495181 
L 518.4 134.384273 
L 518.4 134.384273 
L 509.472 133.617798 
L 500.544 133.617283 
L 491.616 132.954139 
L 482.688 132.953456 
L 473.76 132.939285 
L 464.832 132.938595 
L 455.904 132.924526 
L 446.976 132.922757 
L 438.048 132.309487 
L 429.12 132.296241 
L 420.192 131.758235 
L 411.264 131.723441 
L 402.336 131.579026 
L 393.408 131.576217 
L 384.48 131.546746 
L 375.552 131.540011 
L 366.624 131.34037 
L 357.696 131.328844 
L 348.768 120.718299 
L 339.84 120.696205 
L 330.912 120.675753 
L 321.984 120.617124 
L 313.056 119.988493 
L 304.128 119.87217 
L 295.2 112.396698 
L 286.272 112.389227 
L 277.344 112.312753 
L 268.416 112.294377 
L 259.488 112.089262 
L 250.56 112.081702 
L 241.632 111.891923 
L 232.704 111.872481 
L 223.776 111.807138 
L 214.848 111.75657 
L 205.92 103.437337 
L 196.992 103.313939 
L 188.064 103.096685 
L 179.136 103.076886 
L 170.208 102.662234 
L 161.28 102.617363 
L 152.352 100.696706 
L 143.424 100.69305 
L 134.496 101.84642 
L 125.568 101.832873 
L 116.64 101.67609 
L 107.712 101.686147 
L 98.784 101.631522 
L 89.856 101.644637 
L 80.928 100.774775 
L 72 101.266624 
z
" style="fill:#2ca02c;fill-opacity:0.3;"/>
   </g>
   <g id="PolyCollection_4">
    <path clip-path="url(#p5d8b1ec762)" d="M 72 101.962631 
L 72 96.913905 
L 80.928 97.121624 
L 89.856 95.687552 
L 98.784 95.722103 
L 107.712 97.808338 
L 116.64 97.784255 
L 125.568 98.198902 
L 134.496 98.263642 
L 143.424 93.786517 
L 152.352 93.789469 
L 161.28 88.026209 
L 170.208 88.075369 
L 179.136 87.311518 
L 188.064 87.305005 
L 196.992 86.917151 
L 205.92 86.661576 
L 214.848 110.964869 
L 223.776 111.023077 
L 232.704 110.803207 
L 241.632 110.830856 
L 250.56 110.511993 
L 259.488 110.50085 
L 268.416 110.312357 
L 277.344 110.335876 
L 286.272 110.724328 
L 295.2 110.744677 
L 304.128 132.123916 
L 313.056 132.169126 
L 321.984 131.52216 
L 330.912 130.887371 
L 339.84 130.916297 
L 348.768 130.929483 
L 357.696 158.928239 
L 366.624 158.965842 
L 375.552 158.770574 
L 384.48 158.805614 
L 393.408 158.841785 
L 402.336 158.872118 
L 411.264 158.828711 
L 420.192 158.827981 
L 429.12 158.916784 
L 438.048 158.927814 
L 446.976 164.060463 
L 455.904 164.084216 
L 464.832 164.076825 
L 473.76 164.100353 
L 482.688 164.114966 
L 491.616 164.136244 
L 500.544 163.508317 
L 509.472 163.527576 
L 518.4 163.56648 
L 518.4 175.55437 
L 518.4 175.55437 
L 509.472 175.111564 
L 500.544 175.092164 
L 491.616 174.716219 
L 482.688 174.695728 
L 473.76 174.625786 
L 464.832 174.604492 
L 455.904 174.347776 
L 446.976 174.302894 
L 438.048 170.828046 
L 429.12 170.739518 
L 420.192 170.301281 
L 411.264 170.117923 
L 402.336 169.56044 
L 393.408 169.528428 
L 384.48 169.496685 
L 375.552 169.458769 
L 366.624 169.092898 
L 357.696 169.029317 
L 348.768 146.574382 
L 339.84 146.508989 
L 330.912 146.469457 
L 321.984 144.924164 
L 313.056 141.020612 
L 304.128 140.484958 
L 295.2 127.534327 
L 286.272 127.48782 
L 277.344 126.633022 
L 268.416 126.586226 
L 259.488 125.53036 
L 250.56 125.344517 
L 241.632 121.957907 
L 232.704 121.790261 
L 223.776 120.950008 
L 214.848 120.645461 
L 205.92 105.376664 
L 196.992 104.769028 
L 188.064 103.980748 
L 179.136 103.95763 
L 170.208 102.671339 
L 161.28 102.707906 
L 152.352 97.39109 
L 143.424 97.408541 
L 134.496 104.041077 
L 125.568 104.00481 
L 116.64 103.209048 
L 107.712 103.193994 
L 98.784 103.246502 
L 89.856 103.267554 
L 80.928 101.905548 
L 72 101.962631 
z
" style="fill:#d62728;fill-opacity:0.3;"/>
   </g>
   <g id="PolyCollection_5">
    <path clip-path="url(#p5d8b1ec762)" d="M 72 102.388596 
L 72 96.126097 
L 80.928 96.848374 
L 89.856 95.1795 
L 98.784 95.279993 
L 107.712 97.439822 
L 116.64 97.448428 
L 125.568 97.709846 
L 134.496 97.67692 
L 143.424 92.834931 
L 152.352 92.838339 
L 161.28 87.569893 
L 170.208 87.686669 
L 179.136 86.416539 
L 188.064 86.412632 
L 196.992 85.784597 
L 205.92 85.449798 
L 214.848 114.957065 
L 223.776 115.151939 
L 232.704 115.071889 
L 241.632 115.157467 
L 250.56 116.176139 
L 259.488 116.089303 
L 268.416 116.328532 
L 277.344 116.429038 
L 286.272 118.931986 
L 295.2 119.033908 
L 304.128 146.846761 
L 313.056 147.08189 
L 321.984 147.127812 
L 330.912 145.023337 
L 339.84 144.997944 
L 348.768 145.102401 
L 357.696 184.903759 
L 366.624 185.030296 
L 375.552 184.712788 
L 384.48 184.824405 
L 393.408 184.980263 
L 402.336 185.078566 
L 411.264 185.115131 
L 420.192 185.194188 
L 429.12 185.854289 
L 438.048 185.92955 
L 446.976 197.647006 
L 455.904 197.732118 
L 464.832 197.789732 
L 473.76 197.862502 
L 482.688 197.939092 
L 491.616 198.012186 
L 500.544 197.57288 
L 509.472 197.640097 
L 518.4 198.171138 
L 518.4 208.556531 
L 518.4 208.556531 
L 509.472 207.943862 
L 500.544 207.879281 
L 491.616 207.273976 
L 482.688 207.203437 
L 473.76 207.13154 
L 464.832 207.00152 
L 455.904 206.353606 
L 446.976 206.225171 
L 438.048 197.945947 
L 429.12 197.795948 
L 420.192 196.991368 
L 411.264 196.75545 
L 402.336 196.370458 
L 393.408 196.267275 
L 384.48 196.102063 
L 375.552 195.990847 
L 366.624 195.850739 
L 357.696 195.71769 
L 348.768 166.97993 
L 339.84 166.855913 
L 330.912 166.510535 
L 321.984 161.042654 
L 313.056 155.991532 
L 304.128 155.132841 
L 295.2 138.225554 
L 286.272 138.072558 
L 277.344 136.154509 
L 268.416 136.016318 
L 259.488 134.342087 
L 250.56 133.501569 
L 241.632 126.659 
L 232.704 126.234807 
L 223.776 125.148225 
L 214.848 124.532362 
L 205.92 107.149269 
L 196.992 106.254423 
L 188.064 105.304906 
L 179.136 105.28871 
L 170.208 103.255042 
L 161.28 103.421891 
L 152.352 97.345396 
L 143.424 97.520461 
L 134.496 104.35474 
L 125.568 104.556564 
L 116.64 103.669109 
L 107.712 103.554242 
L 98.784 102.965015 
L 89.856 103.058565 
L 80.928 102.771598 
L 72 102.388596 
z
" style="fill:#9467bd;fill-opacity:0.3;"/>
   </g>
   <g id="PolyCollection_6">
    <path clip-path="url(#p5d8b1ec762)" d="M 72 100.032305 
L 72 98.880102 
L 80.928 99.178365 
L 89.856 99.814546 
L 98.784 99.73953 
L 107.712 100.302536 
L 116.64 100.193029 
L 125.568 99.605929 
L 134.496 99.5174 
L 143.424 98.805395 
L 152.352 98.775006 
L 161.28 97.922934 
L 170.208 98.011789 
L 179.136 97.230542 
L 188.064 97.936099 
L 196.992 98.164101 
L 205.92 98.129244 
L 214.848 100.294487 
L 223.776 100.301669 
L 232.704 100.176636 
L 241.632 100.182671 
L 250.56 100.132658 
L 259.488 100.122463 
L 268.416 100.077743 
L 277.344 100.080165 
L 286.272 95.242591 
L 295.2 79.671467 
L 304.128 197.435565 
L 313.056 197.291057 
L 321.984 195.006367 
L 330.912 232.585728 
L 339.84 257.732145 
L 348.768 259.854296 
L 357.696 261.654318 
L 366.624 277.209894 
L 375.552 278.434115 
L 384.48 281.698439 
L 393.408 279.424415 
L 402.336 295.961481 
L 411.264 296.237347 
L 420.192 296.010539 
L 429.12 295.676295 
L 438.048 294.396682 
L 446.976 293.963129 
L 455.904 293.671841 
L 464.832 293.717242 
L 473.76 305.942274 
L 482.688 305.222054 
L 491.616 305.269802 
L 500.544 305.119424 
L 509.472 305.115364 
L 518.4 305.154824 
L 518.4 319.153493 
L 518.4 319.153493 
L 509.472 319.336343 
L 500.544 318.954677 
L 491.616 318.878029 
L 482.688 318.961277 
L 473.76 315.725272 
L 464.832 307.941454 
L 455.904 308.025432 
L 446.976 308.054232 
L 438.048 307.960613 
L 429.12 308.540201 
L 420.192 308.808575 
L 411.264 308.810943 
L 402.336 303.071585 
L 393.408 301.266366 
L 384.48 298.118454 
L 375.552 297.123382 
L 366.624 290.086136 
L 357.696 287.40124 
L 348.768 276.647099 
L 339.84 275.865487 
L 330.912 248.453045 
L 321.984 218.473435 
L 313.056 217.186971 
L 304.128 213.921817 
L 295.2 146.10234 
L 286.272 108.173491 
L 277.344 101.793409 
L 268.416 101.793814 
L 259.488 101.841238 
L 250.56 101.830354 
L 241.632 101.85486 
L 232.704 101.852346 
L 223.776 101.924221 
L 214.848 101.91968 
L 205.92 100.150308 
L 196.992 100.185168 
L 188.064 100.078475 
L 179.136 100.491145 
L 170.208 100.161816 
L 161.28 100.125714 
L 152.352 100.495381 
L 143.424 100.487662 
L 134.496 101.001006 
L 125.568 100.99524 
L 116.64 101.949063 
L 107.712 101.933541 
L 98.784 101.148389 
L 89.856 100.417277 
L 80.928 99.956946 
L 72 100.032305 
z
" style="fill:#8c564b;fill-opacity:0.3;"/>
   </g>
   <g id="PolyCollection_7">
    <path clip-path="url(#p5d8b1ec762)" d="M 72 100.23633 
L 72 97.888217 
L 80.928 98.236685 
L 89.856 99.231768 
L 98.784 99.422215 
L 107.712 99.671505 
L 116.64 99.665915 
L 125.568 99.752057 
L 134.496 99.786537 
L 143.424 99.296093 
L 152.352 99.284526 
L 161.28 98.709628 
L 170.208 98.737763 
L 179.136 98.646135 
L 188.064 98.653872 
L 196.992 98.992123 
L 205.92 98.936408 
L 214.848 99.792979 
L 223.776 99.799279 
L 232.704 99.656665 
L 241.632 99.661188 
L 250.56 99.610005 
L 259.488 99.611301 
L 268.416 99.530395 
L 277.344 99.538756 
L 286.272 99.464088 
L 295.2 99.463777 
L 304.128 99.991432 
L 313.056 99.983177 
L 321.984 100.011827 
L 330.912 100.007197 
L 339.84 100.024578 
L 348.768 99.994964 
L 357.696 100.429687 
L 366.624 100.429918 
L 375.552 100.432027 
L 384.48 100.428009 
L 393.408 100.431039 
L 402.336 100.430295 
L 411.264 100.356309 
L 420.192 100.358935 
L 429.12 100.274908 
L 438.048 100.275128 
L 446.976 100.281484 
L 455.904 100.279736 
L 464.832 100.275268 
L 473.76 100.274177 
L 482.688 100.248424 
L 491.616 100.242017 
L 500.544 100.250804 
L 509.472 100.248915 
L 518.4 100.137083 
L 518.4 100.309805 
L 518.4 100.309805 
L 509.472 100.389489 
L 500.544 100.390007 
L 491.616 100.386492 
L 482.688 100.391691 
L 473.76 100.410711 
L 464.832 100.411656 
L 455.904 100.415039 
L 446.976 100.415861 
L 438.048 100.414744 
L 429.12 100.413993 
L 420.192 100.456834 
L 411.264 100.455861 
L 402.336 100.488094 
L 393.408 100.488763 
L 384.48 100.487535 
L 375.552 100.488078 
L 366.624 100.487405 
L 357.696 100.487602 
L 348.768 100.271026 
L 339.84 100.290169 
L 330.912 100.292014 
L 321.984 100.295482 
L 313.056 100.281728 
L 304.128 100.286354 
L 295.2 99.965463 
L 286.272 99.96522 
L 277.344 100.0255 
L 268.416 100.022921 
L 259.488 100.098564 
L 250.56 100.097465 
L 241.632 100.132198 
L 232.704 100.131276 
L 223.776 100.222317 
L 214.848 100.220638 
L 205.92 99.752082 
L 196.992 99.794982 
L 188.064 99.656966 
L 179.136 99.651171 
L 170.208 99.716596 
L 161.28 99.704851 
L 152.352 100.010558 
L 143.424 100.003483 
L 134.496 100.166658 
L 125.568 100.144712 
L 116.64 100.521742 
L 107.712 100.519832 
L 98.784 100.324298 
L 89.856 100.511482 
L 80.928 100.108777 
L 72 100.23633 
z
" style="fill:#e377c2;fill-opacity:0.3;"/>
   </g>
   <g id="matplotlib.axis_1">
    <g id="xtick_1">
     <g id="line2d_1">
      <path clip-path="url(#p5d8b1ec762)" d="M 72 384.48 
L 72 51.84 
" style="fill:none;stroke:#b0b0b0;stroke-linecap:square;stroke-width:0.8;"/>
     </g>
     <g id="line2d_2">
      <defs>
       <path d="M 0 0 
L 0 3.5 
" id="m9d53642015" style="stroke:#000000;stroke-width:0.8;"/>
      </defs>
      <g>
       <use style="stroke:#000000;stroke-width:0.8;" x="72" xlink:href="#m9d53642015" y="384.48"/>
      </g>
     </g>
     <g id="text_1">
      <!-- 0 -->
      <defs>
       <path d="M 31.78125 66.40625 
Q 24.171875 66.40625 20.328125 58.90625 
Q 16.5 51.421875 16.5 36.375 
Q 16.5 21.390625 20.328125 13.890625 
Q 24.171875 6.390625 31.78125 6.390625 
Q 39.453125 6.390625 43.28125 13.890625 
Q 47.125 21.390625 47.125 36.375 
Q 47.125 51.421875 43.28125 58.90625 
Q 39.453125 66.40625 31.78125 66.40625 
z
M 31.78125 74.21875 
Q 44.046875 74.21875 50.515625 64.515625 
Q 56.984375 54.828125 56.984375 36.375 
Q 56.984375 17.96875 50.515625 8.265625 
Q 44.046875 -1.421875 31.78125 -1.421875 
Q 19.53125 -1.421875 13.0625 8.265625 
Q 6.59375 17.96875 6.59375 36.375 
Q 6.59375 54.828125 13.0625 64.515625 
Q 19.53125 74.21875 31.78125 74.21875 
z
" id="DejaVuSans-48"/>
      </defs>
      <g transform="translate(68.81875 399.078438)scale(0.1 -0.1)">
       <use xlink:href="#DejaVuSans-48"/>
      </g>
     </g>
    </g>
    <g id="xtick_2">
     <g id="line2d_3">
      <path clip-path="url(#p5d8b1ec762)" d="M 161.28 384.48 
L 161.28 51.84 
" style="fill:none;stroke:#b0b0b0;stroke-linecap:square;stroke-width:0.8;"/>
     </g>
     <g id="line2d_4">
      <g>
       <use style="stroke:#000000;stroke-width:0.8;" x="161.28" xlink:href="#m9d53642015" y="384.48"/>
      </g>
     </g>
     <g id="text_2">
      <!-- 10 -->
      <defs>
       <path d="M 12.40625 8.296875 
L 28.515625 8.296875 
L 28.515625 63.921875 
L 10.984375 60.40625 
L 10.984375 69.390625 
L 28.421875 72.90625 
L 38.28125 72.90625 
L 38.28125 8.296875 
L 54.390625 8.296875 
L 54.390625 0 
L 12.40625 0 
z
" id="DejaVuSans-49"/>
      </defs>
      <g transform="translate(154.9175 399.078438)scale(0.1 -0.1)">
       <use xlink:href="#DejaVuSans-49"/>
       <use x="63.623047" xlink:href="#DejaVuSans-48"/>
      </g>
     </g>
    </g>
    <g id="xtick_3">
     <g id="line2d_5">
      <path clip-path="url(#p5d8b1ec762)" d="M 250.56 384.48 
L 250.56 51.84 
" style="fill:none;stroke:#b0b0b0;stroke-linecap:square;stroke-width:0.8;"/>
     </g>
     <g id="line2d_6">
      <g>
       <use style="stroke:#000000;stroke-width:0.8;" x="250.56" xlink:href="#m9d53642015" y="384.48"/>
      </g>
     </g>
     <g id="text_3">
      <!-- 20 -->
      <defs>
       <path d="M 19.1875 8.296875 
L 53.609375 8.296875 
L 53.609375 0 
L 7.328125 0 
L 7.328125 8.296875 
Q 12.9375 14.109375 22.625 23.890625 
Q 32.328125 33.6875 34.8125 36.53125 
Q 39.546875 41.84375 41.421875 45.53125 
Q 43.3125 49.21875 43.3125 52.78125 
Q 43.3125 58.59375 39.234375 62.25 
Q 35.15625 65.921875 28.609375 65.921875 
Q 23.96875 65.921875 18.8125 64.3125 
Q 13.671875 62.703125 7.8125 59.421875 
L 7.8125 69.390625 
Q 13.765625 71.78125 18.9375 73 
Q 24.125 74.21875 28.421875 74.21875 
Q 39.75 74.21875 46.484375 68.546875 
Q 53.21875 62.890625 53.21875 53.421875 
Q 53.21875 48.921875 51.53125 44.890625 
Q 49.859375 40.875 45.40625 35.40625 
Q 44.1875 33.984375 37.640625 27.21875 
Q 31.109375 20.453125 19.1875 8.296875 
z
" id="DejaVuSans-50"/>
      </defs>
      <g transform="translate(244.1975 399.078438)scale(0.1 -0.1)">
       <use xlink:href="#DejaVuSans-50"/>
       <use x="63.623047" xlink:href="#DejaVuSans-48"/>
      </g>
     </g>
    </g>
    <g id="xtick_4">
     <g id="line2d_7">
      <path clip-path="url(#p5d8b1ec762)" d="M 339.84 384.48 
L 339.84 51.84 
" style="fill:none;stroke:#b0b0b0;stroke-linecap:square;stroke-width:0.8;"/>
     </g>
     <g id="line2d_8">
      <g>
       <use style="stroke:#000000;stroke-width:0.8;" x="339.84" xlink:href="#m9d53642015" y="384.48"/>
      </g>
     </g>
     <g id="text_4">
      <!-- 30 -->
      <defs>
       <path d="M 40.578125 39.3125 
Q 47.65625 37.796875 51.625 33 
Q 55.609375 28.21875 55.609375 21.1875 
Q 55.609375 10.40625 48.1875 4.484375 
Q 40.765625 -1.421875 27.09375 -1.421875 
Q 22.515625 -1.421875 17.65625 -0.515625 
Q 12.796875 0.390625 7.625 2.203125 
L 7.625 11.71875 
Q 11.71875 9.328125 16.59375 8.109375 
Q 21.484375 6.890625 26.8125 6.890625 
Q 36.078125 6.890625 40.9375 10.546875 
Q 45.796875 14.203125 45.796875 21.1875 
Q 45.796875 27.640625 41.28125 31.265625 
Q 36.765625 34.90625 28.71875 34.90625 
L 20.21875 34.90625 
L 20.21875 43.015625 
L 29.109375 43.015625 
Q 36.375 43.015625 40.234375 45.921875 
Q 44.09375 48.828125 44.09375 54.296875 
Q 44.09375 59.90625 40.109375 62.90625 
Q 36.140625 65.921875 28.71875 65.921875 
Q 24.65625 65.921875 20.015625 65.03125 
Q 15.375 64.15625 9.8125 62.3125 
L 9.8125 71.09375 
Q 15.4375 72.65625 20.34375 73.4375 
Q 25.25 74.21875 29.59375 74.21875 
Q 40.828125 74.21875 47.359375 69.109375 
Q 53.90625 64.015625 53.90625 55.328125 
Q 53.90625 49.265625 50.4375 45.09375 
Q 46.96875 40.921875 40.578125 39.3125 
z
" id="DejaVuSans-51"/>
      </defs>
      <g transform="translate(333.4775 399.078438)scale(0.1 -0.1)">
       <use xlink:href="#DejaVuSans-51"/>
       <use x="63.623047" xlink:href="#DejaVuSans-48"/>
      </g>
     </g>
    </g>
    <g id="xtick_5">
     <g id="line2d_9">
      <path clip-path="url(#p5d8b1ec762)" d="M 429.12 384.48 
L 429.12 51.84 
" style="fill:none;stroke:#b0b0b0;stroke-linecap:square;stroke-width:0.8;"/>
     </g>
     <g id="line2d_10">
      <g>
       <use style="stroke:#000000;stroke-width:0.8;" x="429.12" xlink:href="#m9d53642015" y="384.48"/>
      </g>
     </g>
     <g id="text_5">
      <!-- 40 -->
      <defs>
       <path d="M 37.796875 64.3125 
L 12.890625 25.390625 
L 37.796875 25.390625 
z
M 35.203125 72.90625 
L 47.609375 72.90625 
L 47.609375 25.390625 
L 58.015625 25.390625 
L 58.015625 17.1875 
L 47.609375 17.1875 
L 47.609375 0 
L 37.796875 0 
L 37.796875 17.1875 
L 4.890625 17.1875 
L 4.890625 26.703125 
z
" id="DejaVuSans-52"/>
      </defs>
      <g transform="translate(422.7575 399.078438)scale(0.1 -0.1)">
       <use xlink:href="#DejaVuSans-52"/>
       <use x="63.623047" xlink:href="#DejaVuSans-48"/>
      </g>
     </g>
    </g>
    <g id="xtick_6">
     <g id="line2d_11">
      <path clip-path="url(#p5d8b1ec762)" d="M 518.4 384.48 
L 518.4 51.84 
" style="fill:none;stroke:#b0b0b0;stroke-linecap:square;stroke-width:0.8;"/>
     </g>
     <g id="line2d_12">
      <g>
       <use style="stroke:#000000;stroke-width:0.8;" x="518.4" xlink:href="#m9d53642015" y="384.48"/>
      </g>
     </g>
     <g id="text_6">
      <!-- 50 -->
      <defs>
       <path d="M 10.796875 72.90625 
L 49.515625 72.90625 
L 49.515625 64.59375 
L 19.828125 64.59375 
L 19.828125 46.734375 
Q 21.96875 47.46875 24.109375 47.828125 
Q 26.265625 48.1875 28.421875 48.1875 
Q 40.625 48.1875 47.75 41.5 
Q 54.890625 34.8125 54.890625 23.390625 
Q 54.890625 11.625 47.5625 5.09375 
Q 40.234375 -1.421875 26.90625 -1.421875 
Q 22.3125 -1.421875 17.546875 -0.640625 
Q 12.796875 0.140625 7.71875 1.703125 
L 7.71875 11.625 
Q 12.109375 9.234375 16.796875 8.0625 
Q 21.484375 6.890625 26.703125 6.890625 
Q 35.15625 6.890625 40.078125 11.328125 
Q 45.015625 15.765625 45.015625 23.390625 
Q 45.015625 31 40.078125 35.4375 
Q 35.15625 39.890625 26.703125 39.890625 
Q 22.75 39.890625 18.8125 39.015625 
Q 14.890625 38.140625 10.796875 36.28125 
z
" id="DejaVuSans-53"/>
      </defs>
      <g transform="translate(512.0375 399.078438)scale(0.1 -0.1)">
       <use xlink:href="#DejaVuSans-53"/>
       <use x="63.623047" xlink:href="#DejaVuSans-48"/>
      </g>
     </g>
    </g>
    <g id="text_7">
     <!-- Iteration -->
     <defs>
      <path d="M 9.8125 72.90625 
L 19.671875 72.90625 
L 19.671875 0 
L 9.8125 0 
z
" id="DejaVuSans-73"/>
      <path d="M 18.3125 70.21875 
L 18.3125 54.6875 
L 36.8125 54.6875 
L 36.8125 47.703125 
L 18.3125 47.703125 
L 18.3125 18.015625 
Q 18.3125 11.328125 20.140625 9.421875 
Q 21.96875 7.515625 27.59375 7.515625 
L 36.8125 7.515625 
L 36.8125 0 
L 27.59375 0 
Q 17.1875 0 13.234375 3.875 
Q 9.28125 7.765625 9.28125 18.015625 
L 9.28125 47.703125 
L 2.6875 47.703125 
L 2.6875 54.6875 
L 9.28125 54.6875 
L 9.28125 70.21875 
z
" id="DejaVuSans-116"/>
      <path d="M 56.203125 29.59375 
L 56.203125 25.203125 
L 14.890625 25.203125 
Q 15.484375 15.921875 20.484375 11.0625 
Q 25.484375 6.203125 34.421875 6.203125 
Q 39.59375 6.203125 44.453125 7.46875 
Q 49.3125 8.734375 54.109375 11.28125 
L 54.109375 2.78125 
Q 49.265625 0.734375 44.1875 -0.34375 
Q 39.109375 -1.421875 33.890625 -1.421875 
Q 20.796875 -1.421875 13.15625 6.1875 
Q 5.515625 13.8125 5.515625 26.8125 
Q 5.515625 40.234375 12.765625 48.109375 
Q 20.015625 56 32.328125 56 
Q 43.359375 56 49.78125 48.890625 
Q 56.203125 41.796875 56.203125 29.59375 
z
M 47.21875 32.234375 
Q 47.125 39.59375 43.09375 43.984375 
Q 39.0625 48.390625 32.421875 48.390625 
Q 24.90625 48.390625 20.390625 44.140625 
Q 15.875 39.890625 15.1875 32.171875 
z
" id="DejaVuSans-101"/>
      <path d="M 41.109375 46.296875 
Q 39.59375 47.171875 37.8125 47.578125 
Q 36.03125 48 33.890625 48 
Q 26.265625 48 22.1875 43.046875 
Q 18.109375 38.09375 18.109375 28.8125 
L 18.109375 0 
L 9.078125 0 
L 9.078125 54.6875 
L 18.109375 54.6875 
L 18.109375 46.1875 
Q 20.953125 51.171875 25.484375 53.578125 
Q 30.03125 56 36.53125 56 
Q 37.453125 56 38.578125 55.875 
Q 39.703125 55.765625 41.0625 55.515625 
z
" id="DejaVuSans-114"/>
      <path d="M 34.28125 27.484375 
Q 23.390625 27.484375 19.1875 25 
Q 14.984375 22.515625 14.984375 16.5 
Q 14.984375 11.71875 18.140625 8.90625 
Q 21.296875 6.109375 26.703125 6.109375 
Q 34.1875 6.109375 38.703125 11.40625 
Q 43.21875 16.703125 43.21875 25.484375 
L 43.21875 27.484375 
z
M 52.203125 31.203125 
L 52.203125 0 
L 43.21875 0 
L 43.21875 8.296875 
Q 40.140625 3.328125 35.546875 0.953125 
Q 30.953125 -1.421875 24.3125 -1.421875 
Q 15.921875 -1.421875 10.953125 3.296875 
Q 6 8.015625 6 15.921875 
Q 6 25.140625 12.171875 29.828125 
Q 18.359375 34.515625 30.609375 34.515625 
L 43.21875 34.515625 
L 43.21875 35.40625 
Q 43.21875 41.609375 39.140625 45 
Q 35.0625 48.390625 27.6875 48.390625 
Q 23 48.390625 18.546875 47.265625 
Q 14.109375 46.140625 10.015625 43.890625 
L 10.015625 52.203125 
Q 14.9375 54.109375 19.578125 55.046875 
Q 24.21875 56 28.609375 56 
Q 40.484375 56 46.34375 49.84375 
Q 52.203125 43.703125 52.203125 31.203125 
z
" id="DejaVuSans-97"/>
      <path d="M 9.421875 54.6875 
L 18.40625 54.6875 
L 18.40625 0 
L 9.421875 0 
z
M 9.421875 75.984375 
L 18.40625 75.984375 
L 18.40625 64.59375 
L 9.421875 64.59375 
z
" id="DejaVuSans-105"/>
      <path d="M 30.609375 48.390625 
Q 23.390625 48.390625 19.1875 42.75 
Q 14.984375 37.109375 14.984375 27.296875 
Q 14.984375 17.484375 19.15625 11.84375 
Q 23.34375 6.203125 30.609375 6.203125 
Q 37.796875 6.203125 41.984375 11.859375 
Q 46.1875 17.53125 46.1875 27.296875 
Q 46.1875 37.015625 41.984375 42.703125 
Q 37.796875 48.390625 30.609375 48.390625 
z
M 30.609375 56 
Q 42.328125 56 49.015625 48.375 
Q 55.71875 40.765625 55.71875 27.296875 
Q 55.71875 13.875 49.015625 6.21875 
Q 42.328125 -1.421875 30.609375 -1.421875 
Q 18.84375 -1.421875 12.171875 6.21875 
Q 5.515625 13.875 5.515625 27.296875 
Q 5.515625 40.765625 12.171875 48.375 
Q 18.84375 56 30.609375 56 
z
" id="DejaVuSans-111"/>
      <path d="M 54.890625 33.015625 
L 54.890625 0 
L 45.90625 0 
L 45.90625 32.71875 
Q 45.90625 40.484375 42.875 44.328125 
Q 39.84375 48.1875 33.796875 48.1875 
Q 26.515625 48.1875 22.3125 43.546875 
Q 18.109375 38.921875 18.109375 30.90625 
L 18.109375 0 
L 9.078125 0 
L 9.078125 54.6875 
L 18.109375 54.6875 
L 18.109375 46.1875 
Q 21.34375 51.125 25.703125 53.5625 
Q 30.078125 56 35.796875 56 
Q 45.21875 56 50.046875 50.171875 
Q 54.890625 44.34375 54.890625 33.015625 
z
" id="DejaVuSans-110"/>
     </defs>
     <g transform="translate(273.991406 412.756563)scale(0.1 -0.1)">
      <use xlink:href="#DejaVuSans-73"/>
      <use x="29.492188" xlink:href="#DejaVuSans-116"/>
      <use x="68.701172" xlink:href="#DejaVuSans-101"/>
      <use x="130.224609" xlink:href="#DejaVuSans-114"/>
      <use x="171.337891" xlink:href="#DejaVuSans-97"/>
      <use x="232.617188" xlink:href="#DejaVuSans-116"/>
      <use x="271.826172" xlink:href="#DejaVuSans-105"/>
      <use x="299.609375" xlink:href="#DejaVuSans-111"/>
      <use x="360.791016" xlink:href="#DejaVuSans-110"/>
     </g>
    </g>
   </g>
   <g id="matplotlib.axis_2">
    <g id="ytick_1">
     <g id="line2d_13">
      <path clip-path="url(#p5d8b1ec762)" d="M 72 384.48 
L 518.4 384.48 
" style="fill:none;stroke:#b0b0b0;stroke-linecap:square;stroke-width:0.8;"/>
     </g>
     <g id="line2d_14">
      <defs>
       <path d="M 0 0 
L -3.5 0 
" id="m0758c5822a" style="stroke:#000000;stroke-width:0.8;"/>
      </defs>
      <g>
       <use style="stroke:#000000;stroke-width:0.8;" x="72" xlink:href="#m0758c5822a" y="384.48"/>
      </g>
     </g>
     <g id="text_8">
      <!-- $\mathdefault{10^{-12}}$ -->
      <defs>
       <path d="M 10.59375 35.5 
L 73.1875 35.5 
L 73.1875 27.203125 
L 10.59375 27.203125 
z
" id="DejaVuSans-8722"/>
      </defs>
      <g transform="translate(37.1 388.279219)scale(0.1 -0.1)">
       <use transform="translate(0 0.765625)" xlink:href="#DejaVuSans-49"/>
       <use transform="translate(63.623047 0.765625)" xlink:href="#DejaVuSans-48"/>
       <use transform="translate(128.203125 39.046875)scale(0.7)" xlink:href="#DejaVuSans-8722"/>
       <use transform="translate(186.855469 39.046875)scale(0.7)" xlink:href="#DejaVuSans-49"/>
       <use transform="translate(231.391602 39.046875)scale(0.7)" xlink:href="#DejaVuSans-50"/>
      </g>
     </g>
    </g>
    <g id="ytick_2">
     <g id="line2d_15">
      <path clip-path="url(#p5d8b1ec762)" d="M 72 336.96 
L 518.4 336.96 
" style="fill:none;stroke:#b0b0b0;stroke-linecap:square;stroke-width:0.8;"/>
     </g>
     <g id="line2d_16">
      <g>
       <use style="stroke:#000000;stroke-width:0.8;" x="72" xlink:href="#m0758c5822a" y="336.96"/>
      </g>
     </g>
     <g id="text_9">
      <!-- $\mathdefault{10^{-10}}$ -->
      <g transform="translate(37.1 340.759219)scale(0.1 -0.1)">
       <use transform="translate(0 0.765625)" xlink:href="#DejaVuSans-49"/>
       <use transform="translate(63.623047 0.765625)" xlink:href="#DejaVuSans-48"/>
       <use transform="translate(128.203125 39.046875)scale(0.7)" xlink:href="#DejaVuSans-8722"/>
       <use transform="translate(186.855469 39.046875)scale(0.7)" xlink:href="#DejaVuSans-49"/>
       <use transform="translate(231.391602 39.046875)scale(0.7)" xlink:href="#DejaVuSans-48"/>
      </g>
     </g>
    </g>
    <g id="ytick_3">
     <g id="line2d_17">
      <path clip-path="url(#p5d8b1ec762)" d="M 72 289.44 
L 518.4 289.44 
" style="fill:none;stroke:#b0b0b0;stroke-linecap:square;stroke-width:0.8;"/>
     </g>
     <g id="line2d_18">
      <g>
       <use style="stroke:#000000;stroke-width:0.8;" x="72" xlink:href="#m0758c5822a" y="289.44"/>
      </g>
     </g>
     <g id="text_10">
      <!-- $\mathdefault{10^{-8}}$ -->
      <defs>
       <path d="M 31.78125 34.625 
Q 24.75 34.625 20.71875 30.859375 
Q 16.703125 27.09375 16.703125 20.515625 
Q 16.703125 13.921875 20.71875 10.15625 
Q 24.75 6.390625 31.78125 6.390625 
Q 38.8125 6.390625 42.859375 10.171875 
Q 46.921875 13.96875 46.921875 20.515625 
Q 46.921875 27.09375 42.890625 30.859375 
Q 38.875 34.625 31.78125 34.625 
z
M 21.921875 38.8125 
Q 15.578125 40.375 12.03125 44.71875 
Q 8.5 49.078125 8.5 55.328125 
Q 8.5 64.0625 14.71875 69.140625 
Q 20.953125 74.21875 31.78125 74.21875 
Q 42.671875 74.21875 48.875 69.140625 
Q 55.078125 64.0625 55.078125 55.328125 
Q 55.078125 49.078125 51.53125 44.71875 
Q 48 40.375 41.703125 38.8125 
Q 48.828125 37.15625 52.796875 32.3125 
Q 56.78125 27.484375 56.78125 20.515625 
Q 56.78125 9.90625 50.3125 4.234375 
Q 43.84375 -1.421875 31.78125 -1.421875 
Q 19.734375 -1.421875 13.25 4.234375 
Q 6.78125 9.90625 6.78125 20.515625 
Q 6.78125 27.484375 10.78125 32.3125 
Q 14.796875 37.15625 21.921875 38.8125 
z
M 18.3125 54.390625 
Q 18.3125 48.734375 21.84375 45.5625 
Q 25.390625 42.390625 31.78125 42.390625 
Q 38.140625 42.390625 41.71875 45.5625 
Q 45.3125 48.734375 45.3125 54.390625 
Q 45.3125 60.0625 41.71875 63.234375 
Q 38.140625 66.40625 31.78125 66.40625 
Q 25.390625 66.40625 21.84375 63.234375 
Q 18.3125 60.0625 18.3125 54.390625 
z
" id="DejaVuSans-56"/>
      </defs>
      <g transform="translate(41.5 293.239219)scale(0.1 -0.1)">
       <use transform="translate(0 0.765625)" xlink:href="#DejaVuSans-49"/>
       <use transform="translate(63.623047 0.765625)" xlink:href="#DejaVuSans-48"/>
       <use transform="translate(128.203125 39.046875)scale(0.7)" xlink:href="#DejaVuSans-8722"/>
       <use transform="translate(186.855469 39.046875)scale(0.7)" xlink:href="#DejaVuSans-56"/>
      </g>
     </g>
    </g>
    <g id="ytick_4">
     <g id="line2d_19">
      <path clip-path="url(#p5d8b1ec762)" d="M 72 241.92 
L 518.4 241.92 
" style="fill:none;stroke:#b0b0b0;stroke-linecap:square;stroke-width:0.8;"/>
     </g>
     <g id="line2d_20">
      <g>
       <use style="stroke:#000000;stroke-width:0.8;" x="72" xlink:href="#m0758c5822a" y="241.92"/>
      </g>
     </g>
     <g id="text_11">
      <!-- $\mathdefault{10^{-6}}$ -->
      <defs>
       <path d="M 33.015625 40.375 
Q 26.375 40.375 22.484375 35.828125 
Q 18.609375 31.296875 18.609375 23.390625 
Q 18.609375 15.53125 22.484375 10.953125 
Q 26.375 6.390625 33.015625 6.390625 
Q 39.65625 6.390625 43.53125 10.953125 
Q 47.40625 15.53125 47.40625 23.390625 
Q 47.40625 31.296875 43.53125 35.828125 
Q 39.65625 40.375 33.015625 40.375 
z
M 52.59375 71.296875 
L 52.59375 62.3125 
Q 48.875 64.0625 45.09375 64.984375 
Q 41.3125 65.921875 37.59375 65.921875 
Q 27.828125 65.921875 22.671875 59.328125 
Q 17.53125 52.734375 16.796875 39.40625 
Q 19.671875 43.65625 24.015625 45.921875 
Q 28.375 48.1875 33.59375 48.1875 
Q 44.578125 48.1875 50.953125 41.515625 
Q 57.328125 34.859375 57.328125 23.390625 
Q 57.328125 12.15625 50.6875 5.359375 
Q 44.046875 -1.421875 33.015625 -1.421875 
Q 20.359375 -1.421875 13.671875 8.265625 
Q 6.984375 17.96875 6.984375 36.375 
Q 6.984375 53.65625 15.1875 63.9375 
Q 23.390625 74.21875 37.203125 74.21875 
Q 40.921875 74.21875 44.703125 73.484375 
Q 48.484375 72.75 52.59375 71.296875 
z
" id="DejaVuSans-54"/>
      </defs>
      <g transform="translate(41.5 245.719219)scale(0.1 -0.1)">
       <use transform="translate(0 0.765625)" xlink:href="#DejaVuSans-49"/>
       <use transform="translate(63.623047 0.765625)" xlink:href="#DejaVuSans-48"/>
       <use transform="translate(128.203125 39.046875)scale(0.7)" xlink:href="#DejaVuSans-8722"/>
       <use transform="translate(186.855469 39.046875)scale(0.7)" xlink:href="#DejaVuSans-54"/>
      </g>
     </g>
    </g>
    <g id="ytick_5">
     <g id="line2d_21">
      <path clip-path="url(#p5d8b1ec762)" d="M 72 194.4 
L 518.4 194.4 
" style="fill:none;stroke:#b0b0b0;stroke-linecap:square;stroke-width:0.8;"/>
     </g>
     <g id="line2d_22">
      <g>
       <use style="stroke:#000000;stroke-width:0.8;" x="72" xlink:href="#m0758c5822a" y="194.4"/>
      </g>
     </g>
     <g id="text_12">
      <!-- $\mathdefault{10^{-4}}$ -->
      <g transform="translate(41.5 198.199219)scale(0.1 -0.1)">
       <use transform="translate(0 0.684375)" xlink:href="#DejaVuSans-49"/>
       <use transform="translate(63.623047 0.684375)" xlink:href="#DejaVuSans-48"/>
       <use transform="translate(128.203125 38.965625)scale(0.7)" xlink:href="#DejaVuSans-8722"/>
       <use transform="translate(186.855469 38.965625)scale(0.7)" xlink:href="#DejaVuSans-52"/>
      </g>
     </g>
    </g>
    <g id="ytick_6">
     <g id="line2d_23">
      <path clip-path="url(#p5d8b1ec762)" d="M 72 146.88 
L 518.4 146.88 
" style="fill:none;stroke:#b0b0b0;stroke-linecap:square;stroke-width:0.8;"/>
     </g>
     <g id="line2d_24">
      <g>
       <use style="stroke:#000000;stroke-width:0.8;" x="72" xlink:href="#m0758c5822a" y="146.88"/>
      </g>
     </g>
     <g id="text_13">
      <!-- $\mathdefault{10^{-2}}$ -->
      <g transform="translate(41.5 150.679219)scale(0.1 -0.1)">
       <use transform="translate(0 0.765625)" xlink:href="#DejaVuSans-49"/>
       <use transform="translate(63.623047 0.765625)" xlink:href="#DejaVuSans-48"/>
       <use transform="translate(128.203125 39.046875)scale(0.7)" xlink:href="#DejaVuSans-8722"/>
       <use transform="translate(186.855469 39.046875)scale(0.7)" xlink:href="#DejaVuSans-50"/>
      </g>
     </g>
    </g>
    <g id="ytick_7">
     <g id="line2d_25">
      <path clip-path="url(#p5d8b1ec762)" d="M 72 99.36 
L 518.4 99.36 
" style="fill:none;stroke:#b0b0b0;stroke-linecap:square;stroke-width:0.8;"/>
     </g>
     <g id="line2d_26">
      <g>
       <use style="stroke:#000000;stroke-width:0.8;" x="72" xlink:href="#m0758c5822a" y="99.36"/>
      </g>
     </g>
     <g id="text_14">
      <!-- $\mathdefault{10^{0}}$ -->
      <g transform="translate(47.4 103.159219)scale(0.1 -0.1)">
       <use transform="translate(0 0.765625)" xlink:href="#DejaVuSans-49"/>
       <use transform="translate(63.623047 0.765625)" xlink:href="#DejaVuSans-48"/>
       <use transform="translate(128.203125 39.046875)scale(0.7)" xlink:href="#DejaVuSans-48"/>
      </g>
     </g>
    </g>
    <g id="ytick_8">
     <g id="line2d_27">
      <path clip-path="url(#p5d8b1ec762)" d="M 72 51.84 
L 518.4 51.84 
" style="fill:none;stroke:#b0b0b0;stroke-linecap:square;stroke-width:0.8;"/>
     </g>
     <g id="line2d_28">
      <g>
       <use style="stroke:#000000;stroke-width:0.8;" x="72" xlink:href="#m0758c5822a" y="51.84"/>
      </g>
     </g>
     <g id="text_15">
      <!-- $\mathdefault{10^{2}}$ -->
      <g transform="translate(47.4 55.639219)scale(0.1 -0.1)">
       <use transform="translate(0 0.765625)" xlink:href="#DejaVuSans-49"/>
       <use transform="translate(63.623047 0.765625)" xlink:href="#DejaVuSans-48"/>
       <use transform="translate(128.203125 39.046875)scale(0.7)" xlink:href="#DejaVuSans-50"/>
      </g>
     </g>
    </g>
    <g id="text_16">
     <!-- Integrated Squared Error -->
     <defs>
      <path d="M 45.40625 27.984375 
Q 45.40625 37.75 41.375 43.109375 
Q 37.359375 48.484375 30.078125 48.484375 
Q 22.859375 48.484375 18.828125 43.109375 
Q 14.796875 37.75 14.796875 27.984375 
Q 14.796875 18.265625 18.828125 12.890625 
Q 22.859375 7.515625 30.078125 7.515625 
Q 37.359375 7.515625 41.375 12.890625 
Q 45.40625 18.265625 45.40625 27.984375 
z
M 54.390625 6.78125 
Q 54.390625 -7.171875 48.1875 -13.984375 
Q 42 -20.796875 29.203125 -20.796875 
Q 24.46875 -20.796875 20.265625 -20.09375 
Q 16.0625 -19.390625 12.109375 -17.921875 
L 12.109375 -9.1875 
Q 16.0625 -11.328125 19.921875 -12.34375 
Q 23.78125 -13.375 27.78125 -13.375 
Q 36.625 -13.375 41.015625 -8.765625 
Q 45.40625 -4.15625 45.40625 5.171875 
L 45.40625 9.625 
Q 42.625 4.78125 38.28125 2.390625 
Q 33.9375 0 27.875 0 
Q 17.828125 0 11.671875 7.65625 
Q 5.515625 15.328125 5.515625 27.984375 
Q 5.515625 40.671875 11.671875 48.328125 
Q 17.828125 56 27.875 56 
Q 33.9375 56 38.28125 53.609375 
Q 42.625 51.21875 45.40625 46.390625 
L 45.40625 54.6875 
L 54.390625 54.6875 
z
" id="DejaVuSans-103"/>
      <path d="M 45.40625 46.390625 
L 45.40625 75.984375 
L 54.390625 75.984375 
L 54.390625 0 
L 45.40625 0 
L 45.40625 8.203125 
Q 42.578125 3.328125 38.25 0.953125 
Q 33.9375 -1.421875 27.875 -1.421875 
Q 17.96875 -1.421875 11.734375 6.484375 
Q 5.515625 14.40625 5.515625 27.296875 
Q 5.515625 40.1875 11.734375 48.09375 
Q 17.96875 56 27.875 56 
Q 33.9375 56 38.25 53.625 
Q 42.578125 51.265625 45.40625 46.390625 
z
M 14.796875 27.296875 
Q 14.796875 17.390625 18.875 11.75 
Q 22.953125 6.109375 30.078125 6.109375 
Q 37.203125 6.109375 41.296875 11.75 
Q 45.40625 17.390625 45.40625 27.296875 
Q 45.40625 37.203125 41.296875 42.84375 
Q 37.203125 48.484375 30.078125 48.484375 
Q 22.953125 48.484375 18.875 42.84375 
Q 14.796875 37.203125 14.796875 27.296875 
z
" id="DejaVuSans-100"/>
      <path id="DejaVuSans-32"/>
      <path d="M 53.515625 70.515625 
L 53.515625 60.890625 
Q 47.90625 63.578125 42.921875 64.890625 
Q 37.9375 66.21875 33.296875 66.21875 
Q 25.25 66.21875 20.875 63.09375 
Q 16.5 59.96875 16.5 54.203125 
Q 16.5 49.359375 19.40625 46.890625 
Q 22.3125 44.4375 30.421875 42.921875 
L 36.375 41.703125 
Q 47.40625 39.59375 52.65625 34.296875 
Q 57.90625 29 57.90625 20.125 
Q 57.90625 9.515625 50.796875 4.046875 
Q 43.703125 -1.421875 29.984375 -1.421875 
Q 24.8125 -1.421875 18.96875 -0.25 
Q 13.140625 0.921875 6.890625 3.21875 
L 6.890625 13.375 
Q 12.890625 10.015625 18.65625 8.296875 
Q 24.421875 6.59375 29.984375 6.59375 
Q 38.421875 6.59375 43.015625 9.90625 
Q 47.609375 13.234375 47.609375 19.390625 
Q 47.609375 24.75 44.3125 27.78125 
Q 41.015625 30.8125 33.5 32.328125 
L 27.484375 33.5 
Q 16.453125 35.6875 11.515625 40.375 
Q 6.59375 45.0625 6.59375 53.421875 
Q 6.59375 63.09375 13.40625 68.65625 
Q 20.21875 74.21875 32.171875 74.21875 
Q 37.3125 74.21875 42.625 73.28125 
Q 47.953125 72.359375 53.515625 70.515625 
z
" id="DejaVuSans-83"/>
      <path d="M 14.796875 27.296875 
Q 14.796875 17.390625 18.875 11.75 
Q 22.953125 6.109375 30.078125 6.109375 
Q 37.203125 6.109375 41.296875 11.75 
Q 45.40625 17.390625 45.40625 27.296875 
Q 45.40625 37.203125 41.296875 42.84375 
Q 37.203125 48.484375 30.078125 48.484375 
Q 22.953125 48.484375 18.875 42.84375 
Q 14.796875 37.203125 14.796875 27.296875 
z
M 45.40625 8.203125 
Q 42.578125 3.328125 38.25 0.953125 
Q 33.9375 -1.421875 27.875 -1.421875 
Q 17.96875 -1.421875 11.734375 6.484375 
Q 5.515625 14.40625 5.515625 27.296875 
Q 5.515625 40.1875 11.734375 48.09375 
Q 17.96875 56 27.875 56 
Q 33.9375 56 38.25 53.625 
Q 42.578125 51.265625 45.40625 46.390625 
L 45.40625 54.6875 
L 54.390625 54.6875 
L 54.390625 -20.796875 
L 45.40625 -20.796875 
z
" id="DejaVuSans-113"/>
      <path d="M 8.5 21.578125 
L 8.5 54.6875 
L 17.484375 54.6875 
L 17.484375 21.921875 
Q 17.484375 14.15625 20.5 10.265625 
Q 23.53125 6.390625 29.59375 6.390625 
Q 36.859375 6.390625 41.078125 11.03125 
Q 45.3125 15.671875 45.3125 23.6875 
L 45.3125 54.6875 
L 54.296875 54.6875 
L 54.296875 0 
L 45.3125 0 
L 45.3125 8.40625 
Q 42.046875 3.421875 37.71875 1 
Q 33.40625 -1.421875 27.6875 -1.421875 
Q 18.265625 -1.421875 13.375 4.4375 
Q 8.5 10.296875 8.5 21.578125 
z
M 31.109375 56 
z
" id="DejaVuSans-117"/>
      <path d="M 9.8125 72.90625 
L 55.90625 72.90625 
L 55.90625 64.59375 
L 19.671875 64.59375 
L 19.671875 43.015625 
L 54.390625 43.015625 
L 54.390625 34.71875 
L 19.671875 34.71875 
L 19.671875 8.296875 
L 56.78125 8.296875 
L 56.78125 0 
L 9.8125 0 
z
" id="DejaVuSans-69"/>
     </defs>
     <g transform="translate(31.020312 280.483437)rotate(-90)scale(0.1 -0.1)">
      <use xlink:href="#DejaVuSans-73"/>
      <use x="29.492188" xlink:href="#DejaVuSans-110"/>
      <use x="92.871094" xlink:href="#DejaVuSans-116"/>
      <use x="132.080078" xlink:href="#DejaVuSans-101"/>
      <use x="193.603516" xlink:href="#DejaVuSans-103"/>
      <use x="257.080078" xlink:href="#DejaVuSans-114"/>
      <use x="298.193359" xlink:href="#DejaVuSans-97"/>
      <use x="359.472656" xlink:href="#DejaVuSans-116"/>
      <use x="398.681641" xlink:href="#DejaVuSans-101"/>
      <use x="460.205078" xlink:href="#DejaVuSans-100"/>
      <use x="523.681641" xlink:href="#DejaVuSans-32"/>
      <use x="555.46875" xlink:href="#DejaVuSans-83"/>
      <use x="618.945312" xlink:href="#DejaVuSans-113"/>
      <use x="682.421875" xlink:href="#DejaVuSans-117"/>
      <use x="745.800781" xlink:href="#DejaVuSans-97"/>
      <use x="807.080078" xlink:href="#DejaVuSans-114"/>
      <use x="845.943359" xlink:href="#DejaVuSans-101"/>
      <use x="907.466797" xlink:href="#DejaVuSans-100"/>
      <use x="970.943359" xlink:href="#DejaVuSans-32"/>
      <use x="1002.730469" xlink:href="#DejaVuSans-69"/>
      <use x="1065.914062" xlink:href="#DejaVuSans-114"/>
      <use x="1105.277344" xlink:href="#DejaVuSans-114"/>
      <use x="1144.140625" xlink:href="#DejaVuSans-111"/>
      <use x="1205.322266" xlink:href="#DejaVuSans-114"/>
     </g>
    </g>
   </g>
   <g id="line2d_29">
    <path clip-path="url(#p5d8b1ec762)" d="M 72 99.408583 
L 80.928 99.457491 
L 89.856 99.83462 
L 98.784 99.716679 
L 107.712 99.909744 
L 116.64 99.931082 
L 125.568 99.829409 
L 134.496 99.812655 
L 143.424 99.571626 
L 152.352 99.554309 
L 161.28 99.172522 
L 170.208 99.224916 
L 179.136 99.038173 
L 188.064 99.219545 
L 196.992 99.285855 
L 205.92 98.987466 
L 214.848 99.333438 
L 223.776 99.417196 
L 232.704 99.244957 
L 241.632 99.519968 
L 250.56 99.168178 
L 259.488 99.404192 
L 268.416 99.109992 
L 277.344 99.647932 
L 286.272 99.505523 
L 295.2 99.04027 
L 304.128 98.442186 
L 313.056 97.444868 
L 321.984 97.814402 
L 330.912 98.631431 
L 339.84 99.139109 
L 348.768 97.728823 
L 357.696 97.413173 
L 366.624 98.706751 
L 375.552 98.308867 
L 384.48 98.551574 
L 393.408 99.325916 
L 402.336 99.469392 
L 411.264 98.065868 
L 420.192 99.343608 
L 429.12 98.878596 
L 438.048 98.569079 
L 446.976 99.993455 
L 455.904 99.965052 
L 464.832 99.975835 
L 473.76 99.980041 
L 482.688 99.983476 
L 491.616 99.968288 
L 500.544 99.981355 
L 509.472 99.973882 
L 518.4 99.933386 
" style="fill:none;stroke:#1f77b4;stroke-linecap:square;stroke-width:1.5;"/>
   </g>
   <g id="line2d_30">
    <path clip-path="url(#p5d8b1ec762)" d="M 72 98.768216 
L 80.928 98.785815 
L 89.856 97.53223 
L 98.784 96.184887 
L 107.712 98.899553 
L 116.64 99.401855 
L 125.568 98.897693 
L 134.496 97.435421 
L 143.424 93.804125 
L 152.352 93.666705 
L 161.28 93.512771 
L 170.208 93.191815 
L 179.136 93.787281 
L 188.064 93.807348 
L 196.992 93.712576 
L 205.92 94.019634 
L 214.848 124.505032 
L 223.776 126.115528 
L 232.704 131.386354 
L 241.632 135.431895 
L 250.56 148.573307 
L 259.488 158.921103 
L 268.416 175.804119 
L 277.344 178.499828 
L 286.272 201.623947 
L 295.2 200.686357 
L 304.128 203.074804 
L 313.056 203.319114 
L 321.984 202.429292 
L 330.912 243.49051 
L 339.84 262.425369 
L 348.768 264.426604 
L 357.696 268.916757 
L 366.624 281.141472 
L 375.552 284.277435 
L 384.48 286.638479 
L 393.408 288.341089 
L 402.336 299.111475 
L 411.264 301.642928 
L 420.192 301.43486 
L 429.12 301.116436 
L 438.048 300.140298 
L 446.976 300.015493 
L 455.904 299.851396 
L 464.832 299.720404 
L 473.76 310.182207 
L 482.688 311.504578 
L 491.616 311.482767 
L 500.544 311.463935 
L 509.472 311.496818 
L 518.4 311.504219 
" style="fill:none;stroke:#ff7f0e;stroke-linecap:square;stroke-width:1.5;"/>
   </g>
   <g id="line2d_31">
    <path clip-path="url(#p5d8b1ec762)" d="M 72 99.644157 
L 80.928 99.273891 
L 89.856 100.536774 
L 98.784 100.515499 
L 107.712 101.126035 
L 116.64 101.115617 
L 125.568 101.264802 
L 134.496 101.277414 
L 143.424 98.422011 
L 152.352 98.425876 
L 161.28 97.152112 
L 170.208 97.168168 
L 179.136 97.305285 
L 188.064 97.3117 
L 196.992 97.381115 
L 205.92 97.419349 
L 214.848 107.614516 
L 223.776 107.637201 
L 232.704 107.666716 
L 241.632 107.674995 
L 250.56 107.754402 
L 259.488 107.757607 
L 268.416 107.84216 
L 277.344 107.849166 
L 286.272 107.880342 
L 295.2 107.883314 
L 304.128 116.848491 
L 313.056 116.912673 
L 321.984 117.254615 
L 330.912 117.284418 
L 339.84 117.29494 
L 348.768 117.306351 
L 357.696 129.439747 
L 366.624 129.448392 
L 375.552 129.594925 
L 384.48 129.599887 
L 393.408 129.621449 
L 402.336 129.623514 
L 411.264 129.72882 
L 420.192 129.753044 
L 429.12 130.135181 
L 438.048 130.144437 
L 446.976 130.560556 
L 455.904 130.561753 
L 464.832 130.571042 
L 473.76 130.571533 
L 482.688 130.580918 
L 491.616 130.581409 
L 500.544 130.99064 
L 509.472 130.990999 
L 518.4 131.439727 
" style="fill:none;stroke:#2ca02c;stroke-linecap:square;stroke-width:1.5;"/>
   </g>
   <g id="line2d_32">
    <path clip-path="url(#p5d8b1ec762)" d="M 72 99.438268 
L 80.928 99.513586 
L 89.856 99.477553 
L 98.784 99.484302 
L 107.712 100.501166 
L 116.64 100.496651 
L 125.568 101.101856 
L 134.496 101.15236 
L 143.424 95.597529 
L 152.352 95.59028 
L 161.28 95.367057 
L 170.208 95.373354 
L 179.136 95.634574 
L 188.064 95.642877 
L 196.992 95.843089 
L 205.92 96.01912 
L 214.848 115.805165 
L 223.776 115.986542 
L 232.704 116.296734 
L 241.632 116.394381 
L 250.56 117.928255 
L 259.488 118.015605 
L 268.416 118.449291 
L 277.344 118.484449 
L 286.272 119.106074 
L 295.2 119.139502 
L 304.128 136.304437 
L 313.056 136.594869 
L 321.984 138.223162 
L 330.912 138.678414 
L 339.84 138.712643 
L 348.768 138.751932 
L 357.696 163.978778 
L 366.624 164.02937 
L 375.552 164.114671 
L 384.48 164.151149 
L 393.408 164.185107 
L 402.336 164.216279 
L 411.264 164.473317 
L 420.192 164.564631 
L 429.12 164.828151 
L 438.048 164.87793 
L 446.976 169.181679 
L 455.904 169.215996 
L 464.832 169.340658 
L 473.76 169.363069 
L 482.688 169.405347 
L 491.616 169.426231 
L 500.544 169.300241 
L 509.472 169.31957 
L 518.4 169.560425 
" style="fill:none;stroke:#d62728;stroke-linecap:square;stroke-width:1.5;"/>
   </g>
   <g id="line2d_33">
    <path clip-path="url(#p5d8b1ec762)" d="M 72 99.257346 
L 80.928 99.809986 
L 89.856 99.119032 
L 98.784 99.122504 
L 107.712 100.497032 
L 116.64 100.558768 
L 125.568 101.133205 
L 134.496 101.01583 
L 143.424 95.177696 
L 152.352 95.091868 
L 161.28 95.495892 
L 170.208 95.470856 
L 179.136 95.852625 
L 188.064 95.858769 
L 196.992 96.01951 
L 205.92 96.299534 
L 214.848 119.744713 
L 223.776 120.150082 
L 232.704 120.653348 
L 241.632 120.908234 
L 250.56 124.838854 
L 259.488 125.215695 
L 268.416 126.172425 
L 277.344 126.291774 
L 286.272 128.502272 
L 295.2 128.629731 
L 304.128 150.989801 
L 313.056 151.536711 
L 321.984 154.085233 
L 330.912 155.766936 
L 339.84 155.926929 
L 348.768 156.041166 
L 357.696 190.310725 
L 366.624 190.440518 
L 375.552 190.351817 
L 384.48 190.463234 
L 393.408 190.623769 
L 402.336 190.724512 
L 411.264 190.93529 
L 420.192 191.092778 
L 429.12 191.825118 
L 438.048 191.937749 
L 446.976 201.936089 
L 455.904 202.042862 
L 464.832 202.395626 
L 473.76 202.497021 
L 482.688 202.571265 
L 491.616 202.643081 
L 500.544 202.72608 
L 509.472 202.791979 
L 518.4 203.363835 
" style="fill:none;stroke:#9467bd;stroke-linecap:square;stroke-width:1.5;"/>
   </g>
   <g id="line2d_34">
    <path clip-path="url(#p5d8b1ec762)" d="M 72 99.456203 
L 80.928 99.567656 
L 89.856 100.115911 
L 98.784 100.44396 
L 107.712 101.118039 
L 116.64 101.071046 
L 125.568 100.300584 
L 134.496 100.259203 
L 143.424 99.646529 
L 152.352 99.635193 
L 161.28 99.024324 
L 170.208 99.086803 
L 179.136 98.860843 
L 188.064 99.007287 
L 196.992 99.174635 
L 205.92 99.139776 
L 214.848 101.107084 
L 223.776 101.112945 
L 232.704 101.014491 
L 241.632 101.018766 
L 250.56 100.981506 
L 259.488 100.981851 
L 268.416 100.935778 
L 277.344 100.936787 
L 286.272 101.708041 
L 295.2 112.886903 
L 304.128 205.678691 
L 313.056 207.239014 
L 321.984 206.739901 
L 330.912 240.519386 
L 339.84 266.798816 
L 348.768 268.250698 
L 357.696 274.527779 
L 366.624 283.648015 
L 375.552 287.778748 
L 384.48 289.908447 
L 393.408 290.345391 
L 402.336 299.516533 
L 411.264 302.524145 
L 420.192 302.409557 
L 429.12 302.108248 
L 438.048 301.178648 
L 446.976 301.008681 
L 455.904 300.848636 
L 464.832 300.829348 
L 473.76 310.833773 
L 482.688 312.091665 
L 491.616 312.073916 
L 500.544 312.037051 
L 509.472 312.225853 
L 518.4 312.154158 
" style="fill:none;stroke:#8c564b;stroke-linecap:square;stroke-width:1.5;"/>
   </g>
   <g id="line2d_35">
    <path clip-path="url(#p5d8b1ec762)" d="M 72 99.062274 
L 80.928 99.172731 
L 89.856 99.871625 
L 98.784 99.873256 
L 107.712 100.095668 
L 116.64 100.093829 
L 125.568 99.948385 
L 134.496 99.976597 
L 143.424 99.649788 
L 152.352 99.647542 
L 161.28 99.20724 
L 170.208 99.227179 
L 179.136 99.148653 
L 188.064 99.155419 
L 196.992 99.393553 
L 205.92 99.344245 
L 214.848 100.006808 
L 223.776 100.010798 
L 232.704 99.893971 
L 241.632 99.896693 
L 250.56 99.853735 
L 259.488 99.854932 
L 268.416 99.776658 
L 277.344 99.782128 
L 286.272 99.714654 
L 295.2 99.71462 
L 304.128 100.138893 
L 313.056 100.132452 
L 321.984 100.153655 
L 330.912 100.149606 
L 339.84 100.157374 
L 348.768 100.132995 
L 357.696 100.458645 
L 366.624 100.458661 
L 375.552 100.460053 
L 384.48 100.457772 
L 393.408 100.459901 
L 402.336 100.459194 
L 411.264 100.406085 
L 420.192 100.407885 
L 429.12 100.34445 
L 438.048 100.344936 
L 446.976 100.348673 
L 455.904 100.347388 
L 464.832 100.343462 
L 473.76 100.342444 
L 482.688 100.320057 
L 491.616 100.314255 
L 500.544 100.320406 
L 509.472 100.319202 
L 518.4 100.223444 
" style="fill:none;stroke:#e377c2;stroke-linecap:square;stroke-width:1.5;"/>
   </g>
   <g id="patch_3">
    <path d="M 72 384.48 
L 72 51.84 
" style="fill:none;stroke:#000000;stroke-linecap:square;stroke-linejoin:miter;stroke-width:0.8;"/>
   </g>
   <g id="patch_4">
    <path d="M 518.4 384.48 
L 518.4 51.84 
" style="fill:none;stroke:#000000;stroke-linecap:square;stroke-linejoin:miter;stroke-width:0.8;"/>
   </g>
   <g id="patch_5">
    <path d="M 72 384.48 
L 518.4 384.48 
" style="fill:none;stroke:#000000;stroke-linecap:square;stroke-linejoin:miter;stroke-width:0.8;"/>
   </g>
   <g id="patch_6">
    <path d="M 72 51.84 
L 518.4 51.84 
" style="fill:none;stroke:#000000;stroke-linecap:square;stroke-linejoin:miter;stroke-width:0.8;"/>
   </g>
   <g id="legend_1">
    <g id="patch_7">
     <path d="M 79 379.48 
L 165.804688 379.48 
Q 167.804688 379.48 167.804688 377.48 
L 167.804688 275.733125 
Q 167.804688 273.733125 165.804688 273.733125 
L 79 273.733125 
Q 77 273.733125 77 275.733125 
L 77 377.48 
Q 77 379.48 79 379.48 
z
" style="fill:#ffffff;opacity:0.8;stroke:#cccccc;stroke-linejoin:miter;"/>
    </g>
    <g id="line2d_36">
     <path d="M 81 281.831563 
L 101 281.831563 
" style="fill:none;stroke:#1f77b4;stroke-linecap:square;stroke-width:1.5;"/>
    </g>
    <g id="line2d_37"/>
    <g id="text_17">
     <!-- Constant -->
     <defs>
      <path d="M 64.40625 67.28125 
L 64.40625 56.890625 
Q 59.421875 61.53125 53.78125 63.8125 
Q 48.140625 66.109375 41.796875 66.109375 
Q 29.296875 66.109375 22.65625 58.46875 
Q 16.015625 50.828125 16.015625 36.375 
Q 16.015625 21.96875 22.65625 14.328125 
Q 29.296875 6.6875 41.796875 6.6875 
Q 48.140625 6.6875 53.78125 8.984375 
Q 59.421875 11.28125 64.40625 15.921875 
L 64.40625 5.609375 
Q 59.234375 2.09375 53.4375 0.328125 
Q 47.65625 -1.421875 41.21875 -1.421875 
Q 24.65625 -1.421875 15.125 8.703125 
Q 5.609375 18.84375 5.609375 36.375 
Q 5.609375 53.953125 15.125 64.078125 
Q 24.65625 74.21875 41.21875 74.21875 
Q 47.75 74.21875 53.53125 72.484375 
Q 59.328125 70.75 64.40625 67.28125 
z
" id="DejaVuSans-67"/>
      <path d="M 44.28125 53.078125 
L 44.28125 44.578125 
Q 40.484375 46.53125 36.375 47.5 
Q 32.28125 48.484375 27.875 48.484375 
Q 21.1875 48.484375 17.84375 46.4375 
Q 14.5 44.390625 14.5 40.28125 
Q 14.5 37.15625 16.890625 35.375 
Q 19.28125 33.59375 26.515625 31.984375 
L 29.59375 31.296875 
Q 39.15625 29.25 43.1875 25.515625 
Q 47.21875 21.78125 47.21875 15.09375 
Q 47.21875 7.46875 41.1875 3.015625 
Q 35.15625 -1.421875 24.609375 -1.421875 
Q 20.21875 -1.421875 15.453125 -0.5625 
Q 10.6875 0.296875 5.421875 2 
L 5.421875 11.28125 
Q 10.40625 8.6875 15.234375 7.390625 
Q 20.0625 6.109375 24.8125 6.109375 
Q 31.15625 6.109375 34.5625 8.28125 
Q 37.984375 10.453125 37.984375 14.40625 
Q 37.984375 18.0625 35.515625 20.015625 
Q 33.0625 21.96875 24.703125 23.78125 
L 21.578125 24.515625 
Q 13.234375 26.265625 9.515625 29.90625 
Q 5.8125 33.546875 5.8125 39.890625 
Q 5.8125 47.609375 11.28125 51.796875 
Q 16.75 56 26.8125 56 
Q 31.78125 56 36.171875 55.265625 
Q 40.578125 54.546875 44.28125 53.078125 
z
" id="DejaVuSans-115"/>
     </defs>
     <g transform="translate(109 285.331563)scale(0.1 -0.1)">
      <use xlink:href="#DejaVuSans-67"/>
      <use x="69.824219" xlink:href="#DejaVuSans-111"/>
      <use x="131.005859" xlink:href="#DejaVuSans-110"/>
      <use x="194.384766" xlink:href="#DejaVuSans-115"/>
      <use x="246.484375" xlink:href="#DejaVuSans-116"/>
      <use x="285.693359" xlink:href="#DejaVuSans-97"/>
      <use x="346.972656" xlink:href="#DejaVuSans-110"/>
      <use x="410.351562" xlink:href="#DejaVuSans-116"/>
     </g>
    </g>
    <g id="line2d_38">
     <path d="M 81 296.509688 
L 101 296.509688 
" style="fill:none;stroke:#ff7f0e;stroke-linecap:square;stroke-width:1.5;"/>
    </g>
    <g id="line2d_39"/>
    <g id="text_18">
     <!-- RBF -->
     <defs>
      <path d="M 44.390625 34.1875 
Q 47.5625 33.109375 50.5625 29.59375 
Q 53.5625 26.078125 56.59375 19.921875 
L 66.609375 0 
L 56 0 
L 46.6875 18.703125 
Q 43.0625 26.03125 39.671875 28.421875 
Q 36.28125 30.8125 30.421875 30.8125 
L 19.671875 30.8125 
L 19.671875 0 
L 9.8125 0 
L 9.8125 72.90625 
L 32.078125 72.90625 
Q 44.578125 72.90625 50.734375 67.671875 
Q 56.890625 62.453125 56.890625 51.90625 
Q 56.890625 45.015625 53.6875 40.46875 
Q 50.484375 35.9375 44.390625 34.1875 
z
M 19.671875 64.796875 
L 19.671875 38.921875 
L 32.078125 38.921875 
Q 39.203125 38.921875 42.84375 42.21875 
Q 46.484375 45.515625 46.484375 51.90625 
Q 46.484375 58.296875 42.84375 61.546875 
Q 39.203125 64.796875 32.078125 64.796875 
z
" id="DejaVuSans-82"/>
      <path d="M 19.671875 34.8125 
L 19.671875 8.109375 
L 35.5 8.109375 
Q 43.453125 8.109375 47.28125 11.40625 
Q 51.125 14.703125 51.125 21.484375 
Q 51.125 28.328125 47.28125 31.5625 
Q 43.453125 34.8125 35.5 34.8125 
z
M 19.671875 64.796875 
L 19.671875 42.828125 
L 34.28125 42.828125 
Q 41.5 42.828125 45.03125 45.53125 
Q 48.578125 48.25 48.578125 53.8125 
Q 48.578125 59.328125 45.03125 62.0625 
Q 41.5 64.796875 34.28125 64.796875 
z
M 9.8125 72.90625 
L 35.015625 72.90625 
Q 46.296875 72.90625 52.390625 68.21875 
Q 58.5 63.53125 58.5 54.890625 
Q 58.5 48.1875 55.375 44.234375 
Q 52.25 40.28125 46.1875 39.3125 
Q 53.46875 37.75 57.5 32.78125 
Q 61.53125 27.828125 61.53125 20.40625 
Q 61.53125 10.640625 54.890625 5.3125 
Q 48.25 0 35.984375 0 
L 9.8125 0 
z
" id="DejaVuSans-66"/>
      <path d="M 9.8125 72.90625 
L 51.703125 72.90625 
L 51.703125 64.59375 
L 19.671875 64.59375 
L 19.671875 43.109375 
L 48.578125 43.109375 
L 48.578125 34.8125 
L 19.671875 34.8125 
L 19.671875 0 
L 9.8125 0 
z
" id="DejaVuSans-70"/>
     </defs>
     <g transform="translate(109 300.009688)scale(0.1 -0.1)">
      <use xlink:href="#DejaVuSans-82"/>
      <use x="69.482422" xlink:href="#DejaVuSans-66"/>
      <use x="138.085938" xlink:href="#DejaVuSans-70"/>
     </g>
    </g>
    <g id="line2d_40">
     <path d="M 81 311.187813 
L 101 311.187813 
" style="fill:none;stroke:#2ca02c;stroke-linecap:square;stroke-width:1.5;"/>
    </g>
    <g id="line2d_41"/>
    <g id="text_19">
     <!-- Matrn-1/2 -->
     <defs>
      <path d="M 9.8125 72.90625 
L 24.515625 72.90625 
L 43.109375 23.296875 
L 61.8125 72.90625 
L 76.515625 72.90625 
L 76.515625 0 
L 66.890625 0 
L 66.890625 64.015625 
L 48.09375 14.015625 
L 38.1875 14.015625 
L 19.390625 64.015625 
L 19.390625 0 
L 9.8125 0 
z
" id="DejaVuSans-77"/>
      <path d="M 56.203125 29.59375 
L 56.203125 25.203125 
L 14.890625 25.203125 
Q 15.484375 15.921875 20.484375 11.0625 
Q 25.484375 6.203125 34.421875 6.203125 
Q 39.59375 6.203125 44.453125 7.46875 
Q 49.3125 8.734375 54.109375 11.28125 
L 54.109375 2.78125 
Q 49.265625 0.734375 44.1875 -0.34375 
Q 39.109375 -1.421875 33.890625 -1.421875 
Q 20.796875 -1.421875 13.15625 6.1875 
Q 5.515625 13.8125 5.515625 26.8125 
Q 5.515625 40.234375 12.765625 48.109375 
Q 20.015625 56 32.328125 56 
Q 43.359375 56 49.78125 48.890625 
Q 56.203125 41.796875 56.203125 29.59375 
z
M 47.21875 32.234375 
Q 47.125 39.59375 43.09375 43.984375 
Q 39.0625 48.390625 32.421875 48.390625 
Q 24.90625 48.390625 20.390625 44.140625 
Q 15.875 39.890625 15.1875 32.171875 
z
M 38.53125 79.984375 
L 48.25 79.984375 
L 32.34375 61.625 
L 24.859375 61.625 
z
" id="DejaVuSans-233"/>
      <path d="M 4.890625 31.390625 
L 31.203125 31.390625 
L 31.203125 23.390625 
L 4.890625 23.390625 
z
" id="DejaVuSans-45"/>
      <path d="M 25.390625 72.90625 
L 33.6875 72.90625 
L 8.296875 -9.28125 
L 0 -9.28125 
z
" id="DejaVuSans-47"/>
     </defs>
     <g transform="translate(109 314.687813)scale(0.1 -0.1)">
      <use xlink:href="#DejaVuSans-77"/>
      <use x="86.279297" xlink:href="#DejaVuSans-97"/>
      <use x="147.558594" xlink:href="#DejaVuSans-116"/>
      <use x="186.767578" xlink:href="#DejaVuSans-233"/>
      <use x="248.291016" xlink:href="#DejaVuSans-114"/>
      <use x="287.654297" xlink:href="#DejaVuSans-110"/>
      <use x="351.033203" xlink:href="#DejaVuSans-45"/>
      <use x="387.117188" xlink:href="#DejaVuSans-49"/>
      <use x="450.740234" xlink:href="#DejaVuSans-47"/>
      <use x="484.431641" xlink:href="#DejaVuSans-50"/>
     </g>
    </g>
    <g id="line2d_42">
     <path d="M 81 325.865938 
L 101 325.865938 
" style="fill:none;stroke:#d62728;stroke-linecap:square;stroke-width:1.5;"/>
    </g>
    <g id="line2d_43"/>
    <g id="text_20">
     <!-- Matrn-3/2 -->
     <g transform="translate(109 329.365938)scale(0.1 -0.1)">
      <use xlink:href="#DejaVuSans-77"/>
      <use x="86.279297" xlink:href="#DejaVuSans-97"/>
      <use x="147.558594" xlink:href="#DejaVuSans-116"/>
      <use x="186.767578" xlink:href="#DejaVuSans-233"/>
      <use x="248.291016" xlink:href="#DejaVuSans-114"/>
      <use x="287.654297" xlink:href="#DejaVuSans-110"/>
      <use x="351.033203" xlink:href="#DejaVuSans-45"/>
      <use x="387.117188" xlink:href="#DejaVuSans-51"/>
      <use x="450.740234" xlink:href="#DejaVuSans-47"/>
      <use x="484.431641" xlink:href="#DejaVuSans-50"/>
     </g>
    </g>
    <g id="line2d_44">
     <path d="M 81 340.544062 
L 101 340.544062 
" style="fill:none;stroke:#9467bd;stroke-linecap:square;stroke-width:1.5;"/>
    </g>
    <g id="line2d_45"/>
    <g id="text_21">
     <!-- Matrn-5/2 -->
     <g transform="translate(109 344.044062)scale(0.1 -0.1)">
      <use xlink:href="#DejaVuSans-77"/>
      <use x="86.279297" xlink:href="#DejaVuSans-97"/>
      <use x="147.558594" xlink:href="#DejaVuSans-116"/>
      <use x="186.767578" xlink:href="#DejaVuSans-233"/>
      <use x="248.291016" xlink:href="#DejaVuSans-114"/>
      <use x="287.654297" xlink:href="#DejaVuSans-110"/>
      <use x="351.033203" xlink:href="#DejaVuSans-45"/>
      <use x="387.117188" xlink:href="#DejaVuSans-53"/>
      <use x="450.740234" xlink:href="#DejaVuSans-47"/>
      <use x="484.431641" xlink:href="#DejaVuSans-50"/>
     </g>
    </g>
    <g id="line2d_46">
     <path d="M 81 355.222188 
L 101 355.222188 
" style="fill:none;stroke:#8c564b;stroke-linecap:square;stroke-width:1.5;"/>
    </g>
    <g id="line2d_47"/>
    <g id="text_22">
     <!-- RQ -->
     <defs>
      <path d="M 39.40625 66.21875 
Q 28.65625 66.21875 22.328125 58.203125 
Q 16.015625 50.203125 16.015625 36.375 
Q 16.015625 22.609375 22.328125 14.59375 
Q 28.65625 6.59375 39.40625 6.59375 
Q 50.140625 6.59375 56.421875 14.59375 
Q 62.703125 22.609375 62.703125 36.375 
Q 62.703125 50.203125 56.421875 58.203125 
Q 50.140625 66.21875 39.40625 66.21875 
z
M 53.21875 1.3125 
L 66.21875 -12.890625 
L 54.296875 -12.890625 
L 43.5 -1.21875 
Q 41.890625 -1.3125 41.03125 -1.359375 
Q 40.1875 -1.421875 39.40625 -1.421875 
Q 24.03125 -1.421875 14.8125 8.859375 
Q 5.609375 19.140625 5.609375 36.375 
Q 5.609375 53.65625 14.8125 63.9375 
Q 24.03125 74.21875 39.40625 74.21875 
Q 54.734375 74.21875 63.90625 63.9375 
Q 73.09375 53.65625 73.09375 36.375 
Q 73.09375 23.6875 67.984375 14.640625 
Q 62.890625 5.609375 53.21875 1.3125 
z
" id="DejaVuSans-81"/>
     </defs>
     <g transform="translate(109 358.722188)scale(0.1 -0.1)">
      <use xlink:href="#DejaVuSans-82"/>
      <use x="69.482422" xlink:href="#DejaVuSans-81"/>
     </g>
    </g>
    <g id="line2d_48">
     <path d="M 81 369.900313 
L 101 369.900313 
" style="fill:none;stroke:#e377c2;stroke-linecap:square;stroke-width:1.5;"/>
    </g>
    <g id="line2d_49"/>
    <g id="text_23">
     <!-- Dot Prod. -->
     <defs>
      <path d="M 19.671875 64.796875 
L 19.671875 8.109375 
L 31.59375 8.109375 
Q 46.6875 8.109375 53.6875 14.9375 
Q 60.6875 21.78125 60.6875 36.53125 
Q 60.6875 51.171875 53.6875 57.984375 
Q 46.6875 64.796875 31.59375 64.796875 
z
M 9.8125 72.90625 
L 30.078125 72.90625 
Q 51.265625 72.90625 61.171875 64.09375 
Q 71.09375 55.28125 71.09375 36.53125 
Q 71.09375 17.671875 61.125 8.828125 
Q 51.171875 0 30.078125 0 
L 9.8125 0 
z
" id="DejaVuSans-68"/>
      <path d="M 19.671875 64.796875 
L 19.671875 37.40625 
L 32.078125 37.40625 
Q 38.96875 37.40625 42.71875 40.96875 
Q 46.484375 44.53125 46.484375 51.125 
Q 46.484375 57.671875 42.71875 61.234375 
Q 38.96875 64.796875 32.078125 64.796875 
z
M 9.8125 72.90625 
L 32.078125 72.90625 
Q 44.34375 72.90625 50.609375 67.359375 
Q 56.890625 61.8125 56.890625 51.125 
Q 56.890625 40.328125 50.609375 34.8125 
Q 44.34375 29.296875 32.078125 29.296875 
L 19.671875 29.296875 
L 19.671875 0 
L 9.8125 0 
z
" id="DejaVuSans-80"/>
      <path d="M 10.6875 12.40625 
L 21 12.40625 
L 21 0 
L 10.6875 0 
z
" id="DejaVuSans-46"/>
     </defs>
     <g transform="translate(109 373.400313)scale(0.1 -0.1)">
      <use xlink:href="#DejaVuSans-68"/>
      <use x="77.001953" xlink:href="#DejaVuSans-111"/>
      <use x="138.183594" xlink:href="#DejaVuSans-116"/>
      <use x="177.392578" xlink:href="#DejaVuSans-32"/>
      <use x="209.179688" xlink:href="#DejaVuSans-80"/>
      <use x="267.732422" xlink:href="#DejaVuSans-114"/>
      <use x="306.595703" xlink:href="#DejaVuSans-111"/>
      <use x="367.777344" xlink:href="#DejaVuSans-100"/>
      <use x="431.253906" xlink:href="#DejaVuSans-46"/>
     </g>
    </g>
   </g>
  </g>
 </g>
 <defs>
  <clipPath id="p5d8b1ec762">
   <rect height="332.64" width="446.4" x="72" y="51.84"/>
  </clipPath>
 </defs>
</svg>
