<?xml version="1.0" encoding="utf-8" standalone="no"?>
<!DOCTYPE svg PUBLIC "-//W3C//DTD SVG 1.1//EN"
  "http://www.w3.org/Graphics/SVG/1.1/DTD/svg11.dtd">
<!-- Created with matplotlib (https://matplotlib.org/) -->
<svg height="345.6pt" version="1.1" viewBox="0 0 460.8 345.6" width="460.8pt" xmlns="http://www.w3.org/2000/svg" xmlns:xlink="http://www.w3.org/1999/xlink">
 <defs>
  <style type="text/css">
*{stroke-linecap:butt;stroke-linejoin:round;}
  </style>
 </defs>
 <g id="figure_1">
  <g id="patch_1">
   <path d="M 0 345.6 
L 460.8 345.6 
L 460.8 0 
L 0 0 
z
" style="fill:#ffffff;"/>
  </g>
  <g id="axes_1">
   <g id="patch_2">
    <path d="M 57.6 307.584 
L 414.72 307.584 
L 414.72 41.472 
L 57.6 41.472 
z
" style="fill:#ffffff;"/>
   </g>
   <g id="PolyCollection_1">
    <defs>
     <path d="M 87.36 -277.204376 
L 87.36 -277.222005 
L 88.848 -287.076052 
L 90.336 -278.674402 
L 91.824 -257.383557 
L 93.312 -226.414535 
L 94.8 -191.518803 
L 96.288 -212.006645 
L 97.776 -230.488554 
L 99.264 -242.061463 
L 100.752 -246.926721 
L 102.24 -244.882545 
L 103.728 -233.932486 
L 105.216 -212.586383 
L 106.704 -235.787176 
L 108.192 -250.279092 
L 109.68 -257.857375 
L 111.168 -261.34483 
L 112.656 -262.312106 
L 114.144 -261.482085 
L 115.632 -259.111216 
L 117.12 -255.142477 
L 118.608 -249.207403 
L 120.096 -240.495403 
L 121.584 -227.49051 
L 123.072 -208.008915 
L 124.56 -182.165898 
L 126.048 -206.085088 
L 127.536 -223.524242 
L 129.024 -234.364232 
L 130.512 -240.7609 
L 132 -244.175356 
L 133.488 -245.327909 
L 134.976 -244.438947 
L 136.464 -241.313868 
L 137.952 -235.255723 
L 139.44 -224.810728 
L 140.928 -207.758784 
L 142.416 -183.980925 
L 143.904 -209.514892 
L 145.392 -228.46406 
L 146.88 -240.979582 
L 148.368 -249.340094 
L 149.856 -255.088842 
L 151.344 -259.054033 
L 152.832 -261.628456 
L 154.32 -262.9054 
L 155.808 -262.678886 
L 157.296 -260.286475 
L 158.784 -254.189382 
L 160.272 -241.379713 
L 161.76 -219.181432 
L 163.248 -241.311655 
L 164.736 -253.988336 
L 166.224 -259.938562 
L 167.712 -262.205502 
L 169.2 -262.349789 
L 170.688 -261.04006 
L 172.176 -258.457385 
L 173.664 -254.408793 
L 175.152 -248.213527 
L 176.64 -238.298742 
L 178.128 -221.610499 
L 179.616 -195.41576 
L 181.104 -213.487415 
L 182.592 -222.081533 
L 184.08 -223.843808 
L 185.568 -221.753203 
L 187.056 -217.315552 
L 188.544 -211.152189 
L 190.032 -203.416419 
L 191.52 -193.947453 
L 193.008 -182.269951 
L 194.496 -167.47568 
L 195.984 -148.042463 
L 197.472 -122.206904 
L 198.96 -91.555472 
L 200.448 -113.483441 
L 201.936 -130.416319 
L 203.424 -140.696533 
L 204.912 -145.985548 
L 206.4 -147.665444 
L 207.888 -146.451967 
L 209.376 -142.546945 
L 210.864 -135.707659 
L 212.352 -125.180044 
L 213.84 -109.562263 
L 215.328 -87.258341 
L 216.816 -60.200819 
L 218.304 -86.195918 
L 219.792 -107.554283 
L 221.28 -122.348768 
L 222.768 -132.204967 
L 224.256 -138.581691 
L 225.744 -142.326214 
L 227.232 -143.832789 
L 228.72 -143.152102 
L 230.208 -139.99157 
L 231.696 -133.595094 
L 233.184 -122.51103 
L 234.672 -104.73324 
L 236.16 -80.844668 
L 237.648 -107.461416 
L 239.136 -128.003897 
L 240.624 -141.927157 
L 242.112 -151.279523 
L 243.6 -157.561675 
L 245.088 -161.588986 
L 246.576 -163.72782 
L 248.064 -164.020311 
L 249.552 -162.184571 
L 251.04 -157.48163 
L 252.528 -148.423248 
L 254.016 -132.680688 
L 255.504 -109.800458 
L 256.992 -135.503726 
L 258.48 -154.094393 
L 259.968 -166.052124 
L 261.456 -173.734391 
L 262.944 -178.66235 
L 264.432 -181.61413 
L 265.92 -182.919599 
L 267.408 -182.596149 
L 268.896 -180.348802 
L 270.384 -175.431455 
L 271.872 -166.33163 
L 273.36 -150.593096 
L 274.848 -127.373797 
L 276.336 -152.059239 
L 277.824 -169.272429 
L 279.312 -179.864575 
L 280.8 -186.301761 
L 282.288 -190.107476 
L 283.776 -192.040565 
L 285.264 -192.411184 
L 286.752 -191.220261 
L 288.24 -188.159406 
L 289.728 -182.471283 
L 291.216 -172.633993 
L 292.704 -156.187584 
L 294.192 -132.311857 
L 295.68 -156.325697 
L 297.168 -172.808257 
L 298.656 -182.590748 
L 300.144 -188.122712 
L 301.632 -190.892882 
L 303.12 -191.595899 
L 304.608 -190.427531 
L 306.096 -187.1791 
L 307.584 -181.144165 
L 309.072 -170.831085 
L 310.56 -153.831364 
L 312.048 -129.47575 
L 313.536 -153.238435 
L 315.024 -169.639469 
L 316.512 -179.341676 
L 318 -184.746419 
L 319.488 -187.337019 
L 320.976 -187.809816 
L 322.464 -186.360971 
L 323.952 -182.779616 
L 325.44 -176.356212 
L 326.928 -165.604063 
L 328.416 -148.162113 
L 329.904 -123.51388 
L 331.392 -147.265213 
L 332.88 -163.805294 
L 334.368 -173.643237 
L 335.856 -179.132222 
L 337.344 -181.7501 
L 338.832 -182.196019 
L 340.32 -180.668399 
L 341.808 -176.956649 
L 343.296 -170.351063 
L 344.784 -159.371721 
L 346.272 -141.696106 
L 347.76 -116.909826 
L 349.248 -140.792534 
L 350.736 -157.663878 
L 352.224 -167.918524 
L 353.712 -173.880612 
L 355.2 -177.053809 
L 356.688 -178.199717 
L 358.176 -177.628553 
L 359.664 -175.333379 
L 361.152 -170.990155 
L 362.64 -163.82468 
L 364.128 -152.328687 
L 365.616 -134.207194 
L 367.104 -109.170285 
L 368.592 -132.990887 
L 370.08 -149.791671 
L 371.568 -159.851439 
L 373.056 -165.432124 
L 374.544 -167.984171 
L 376.032 -168.190486 
L 377.52 -166.228906 
L 379.008 -161.86239 
L 380.496 -154.361402 
L 381.984 -142.289211 
L 383.472 -123.616412 
L 384.96 -98.693856 
L 384.96 -98.676225 
L 384.96 -98.676225 
L 383.472 -75.166538 
L 381.984 -59.899115 
L 380.496 -51.313055 
L 379.008 -46.797071 
L 377.52 -44.870115 
L 376.032 -44.867009 
L 374.544 -46.615269 
L 373.056 -50.33806 
L 371.568 -56.749151 
L 370.08 -67.345062 
L 368.592 -84.557011 
L 367.104 -109.152649 
L 365.616 -85.675202 
L 364.128 -69.506471 
L 362.64 -59.899022 
L 361.152 -54.423962 
L 359.664 -51.568938 
L 358.176 -50.580615 
L 356.688 -51.154262 
L 355.2 -53.295712 
L 353.712 -57.321571 
L 352.224 -63.996857 
L 350.736 -74.840208 
L 349.248 -92.257345 
L 347.76 -116.892193 
L 346.272 -93.279754 
L 344.784 -76.995416 
L 343.296 -67.387063 
L 341.808 -62.063062 
L 340.32 -59.542498 
L 338.832 -59.128479 
L 337.344 -60.623416 
L 335.856 -64.23653 
L 334.368 -70.675828 
L 332.88 -81.427516 
L 331.392 -98.856881 
L 329.904 -123.496258 
L 328.416 -99.755528 
L 326.928 -83.232319 
L 325.44 -73.400041 
L 323.952 -67.900007 
L 322.464 -65.25384 
L 320.976 -64.763067 
L 319.488 -66.230261 
L 318 -69.867315 
L 316.512 -76.385762 
L 315.024 -87.267492 
L 313.536 -104.831479 
L 312.048 -129.45813 
L 310.56 -105.424691 
L 309.072 -88.460099 
L 307.584 -78.190168 
L 306.096 -72.302928 
L 304.608 -69.324753 
L 303.12 -68.554188 
L 301.632 -69.791788 
L 300.144 -73.249784 
L 298.656 -79.640512 
L 297.168 -90.437727 
L 295.68 -107.909812 
L 294.192 -132.294216 
L 292.704 -107.657818 
L 291.216 -89.833391 
L 289.728 -78.596275 
L 288.24 -71.669793 
L 286.752 -67.549717 
L 285.264 -65.464597 
L 283.776 -65.094582 
L 282.288 -66.438864 
L 280.8 -69.815532 
L 279.312 -75.993616 
L 277.824 -86.472831 
L 276.336 -103.520794 
L 274.848 -127.356165 
L 273.36 -102.054397 
L 271.872 -83.531151 
L 270.384 -71.558847 
L 268.896 -63.860214 
L 267.408 -58.924715 
L 265.92 -55.970771 
L 264.432 -54.66531 
L 262.944 -54.990938 
L 261.456 -57.245833 
L 259.968 -62.179545 
L 258.48 -71.293931 
L 256.992 -86.96502 
L 255.504 -109.782835 
L 254.016 -84.14207 
L 252.528 -65.623091 
L 251.04 -53.609628 
L 249.552 -45.69686 
L 248.064 -40.349976 
L 246.576 -36.780232 
L 245.088 -34.641441 
L 243.6 -33.89145 
L 242.112 -34.791932 
L 240.624 -38.055213 
L 239.136 -45.203699 
L 237.648 -58.922738 
L 236.16 -80.827046 
L 234.672 -56.194978 
L 233.184 -39.712275 
L 231.696 -29.72586 
L 230.208 -23.507893 
L 228.72 -19.486669 
L 227.232 -16.890336 
L 225.744 -15.383193 
L 224.256 -14.914422 
L 222.768 -15.718024 
L 221.28 -18.475572 
L 219.792 -24.754544 
L 218.304 -37.666306 
L 216.816 -60.183182 
L 215.328 -38.842463 
L 213.84 -27.192101 
L 212.352 -22.230745 
L 210.864 -20.83627 
L 209.376 -21.448022 
L 207.888 -23.413175 
L 206.4 -26.566517 
L 204.912 -31.114149 
L 203.424 -37.747218 
L 201.936 -48.046141 
L 200.448 -65.067564 
L 198.96 -91.537843 
L 197.472 -73.677489 
L 195.984 -65.243385 
L 194.496 -63.603732 
L 193.008 -65.784788 
L 191.52 -70.282279 
L 190.032 -76.475414 
L 188.544 -84.211107 
L 187.056 -93.650179 
L 185.568 -105.26781 
L 184.08 -119.971714 
L 182.592 -139.282468 
L 181.104 -164.958085 
L 179.616 -195.398124 
L 178.128 -173.194286 
L 176.64 -155.927117 
L 175.152 -145.261327 
L 173.664 -139.533197 
L 172.176 -137.353332 
L 170.688 -137.995751 
L 169.2 -141.245578 
L 167.712 -147.329699 
L 166.224 -156.986278 
L 164.736 -171.61685 
L 163.248 -192.895624 
L 161.76 -219.163798 
L 160.272 -192.849512 
L 158.784 -171.386794 
L 157.296 -156.407375 
L 155.808 -146.183129 
L 154.32 -139.226998 
L 152.832 -134.672713 
L 151.344 -132.098003 
L 149.856 -131.409702 
L 148.368 -132.843483 
L 146.88 -137.099952 
L 145.392 -145.661542 
L 143.904 -160.985019 
L 142.416 -183.9633 
L 140.928 -159.341399 
L 139.44 -142.433479 
L 137.952 -132.291961 
L 136.464 -126.421344 
L 134.976 -123.314289 
L 133.488 -122.261562 
L 132 -123.050186 
L 130.512 -125.867734 
L 129.024 -131.400293 
L 127.536 -141.147609 
L 126.048 -157.668418 
L 124.56 -182.148273 
L 123.072 -159.475782 
L 121.584 -144.674649 
L 120.096 -136.588745 
L 118.608 -132.669637 
L 117.12 -131.409277 
L 115.632 -132.090335 
L 114.144 -134.453623 
L 112.656 -138.55773 
L 111.168 -144.779117 
L 109.68 -153.93603 
L 108.192 -167.510061 
L 106.704 -187.418812 
L 105.216 -212.568756 
L 103.728 -187.151179 
L 102.24 -168.334718 
L 100.752 -157.189263 
L 99.264 -152.38693 
L 97.776 -154.190246 
L 96.288 -165.74246 
L 94.8 -191.501176 
L 93.312 -182.332543 
L 91.824 -190.137192 
L 90.336 -211.334978 
L 88.848 -242.694825 
L 87.36 -277.204376 
z
" id="ma40237827d"/>
    </defs>
    <g clip-path="url(#p625eba6a72)">
     <use style="fill:#347aeb;fill-opacity:0.6;" x="0" xlink:href="#ma40237827d" y="345.6"/>
    </g>
   </g>
   <g id="PathCollection_1">
    <defs>
     <path d="M 0 3 
C 0.795609 3 1.55874 2.683901 2.12132 2.12132 
C 2.683901 1.55874 3 0.795609 3 0 
C 3 -0.795609 2.683901 -1.55874 2.12132 -2.12132 
C 1.55874 -2.683901 0.795609 -3 0 -3 
C -0.795609 -3 -1.55874 -2.683901 -2.12132 -2.12132 
C -2.683901 -1.55874 -3 -0.795609 -3 0 
C -3 0.795609 -2.683901 1.55874 -2.12132 2.12132 
C -1.55874 2.683901 -0.795609 3 0 3 
z
" id="m384279bc7f" style="stroke:#1f77b4;"/>
    </defs>
    <g clip-path="url(#p625eba6a72)">
     <use style="fill:#1f77b4;stroke:#1f77b4;" x="87.36" xlink:href="#m384279bc7f" y="68.386808"/>
     <use style="fill:#1f77b4;stroke:#1f77b4;" x="236.16" xlink:href="#m384279bc7f" y="264.764143"/>
     <use style="fill:#1f77b4;stroke:#1f77b4;" x="384.96" xlink:href="#m384279bc7f" y="246.914959"/>
     <use style="fill:#1f77b4;stroke:#1f77b4;" x="312.048" xlink:href="#m384279bc7f" y="216.13306"/>
     <use style="fill:#1f77b4;stroke:#1f77b4;" x="161.76" xlink:href="#m384279bc7f" y="126.427384"/>
     <use style="fill:#1f77b4;stroke:#1f77b4;" x="124.56" xlink:href="#m384279bc7f" y="163.442915"/>
     <use style="fill:#1f77b4;stroke:#1f77b4;" x="274.848" xlink:href="#m384279bc7f" y="218.235019"/>
     <use style="fill:#1f77b4;stroke:#1f77b4;" x="198.96" xlink:href="#m384279bc7f" y="254.053343"/>
     <use style="fill:#1f77b4;stroke:#1f77b4;" x="347.76" xlink:href="#m384279bc7f" y="228.698991"/>
     <use style="fill:#1f77b4;stroke:#1f77b4;" x="255.504" xlink:href="#m384279bc7f" y="235.808354"/>
     <use style="fill:#1f77b4;stroke:#1f77b4;" x="105.216" xlink:href="#m384279bc7f" y="133.02243"/>
     <use style="fill:#1f77b4;stroke:#1f77b4;" x="367.104" xlink:href="#m384279bc7f" y="236.438533"/>
     <use style="fill:#1f77b4;stroke:#1f77b4;" x="179.616" xlink:href="#m384279bc7f" y="150.193058"/>
     <use style="fill:#1f77b4;stroke:#1f77b4;" x="294.192" xlink:href="#m384279bc7f" y="213.296963"/>
     <use style="fill:#1f77b4;stroke:#1f77b4;" x="216.816" xlink:href="#m384279bc7f" y="285.408"/>
     <use style="fill:#1f77b4;stroke:#1f77b4;" x="142.416" xlink:href="#m384279bc7f" y="161.627888"/>
     <use style="fill:#1f77b4;stroke:#1f77b4;" x="329.904" xlink:href="#m384279bc7f" y="222.094931"/>
     <use style="fill:#1f77b4;stroke:#1f77b4;" x="94.8" xlink:href="#m384279bc7f" y="154.090011"/>
    </g>
   </g>
   <g id="matplotlib.axis_1">
    <g id="xtick_1">
     <g id="line2d_1">
      <defs>
       <path d="M 0 0 
L 0 3.5 
" id="m78e41c1d9e" style="stroke:#000000;stroke-width:0.8;"/>
      </defs>
      <g>
       <use style="stroke:#000000;stroke-width:0.8;" x="87.36" xlink:href="#m78e41c1d9e" y="307.584"/>
      </g>
     </g>
     <g id="text_1">
      <!-- 0.0 -->
      <defs>
       <path d="M 31.78125 66.40625 
Q 24.171875 66.40625 20.328125 58.90625 
Q 16.5 51.421875 16.5 36.375 
Q 16.5 21.390625 20.328125 13.890625 
Q 24.171875 6.390625 31.78125 6.390625 
Q 39.453125 6.390625 43.28125 13.890625 
Q 47.125 21.390625 47.125 36.375 
Q 47.125 51.421875 43.28125 58.90625 
Q 39.453125 66.40625 31.78125 66.40625 
z
M 31.78125 74.21875 
Q 44.046875 74.21875 50.515625 64.515625 
Q 56.984375 54.828125 56.984375 36.375 
Q 56.984375 17.96875 50.515625 8.265625 
Q 44.046875 -1.421875 31.78125 -1.421875 
Q 19.53125 -1.421875 13.0625 8.265625 
Q 6.59375 17.96875 6.59375 36.375 
Q 6.59375 54.828125 13.0625 64.515625 
Q 19.53125 74.21875 31.78125 74.21875 
z
" id="DejaVuSans-48"/>
       <path d="M 10.6875 12.40625 
L 21 12.40625 
L 21 0 
L 10.6875 0 
z
" id="DejaVuSans-46"/>
      </defs>
      <g transform="translate(79.408438 322.182437)scale(0.1 -0.1)">
       <use xlink:href="#DejaVuSans-48"/>
       <use x="63.623047" xlink:href="#DejaVuSans-46"/>
       <use x="95.410156" xlink:href="#DejaVuSans-48"/>
      </g>
     </g>
    </g>
    <g id="xtick_2">
     <g id="line2d_2">
      <g>
       <use style="stroke:#000000;stroke-width:0.8;" x="146.88" xlink:href="#m78e41c1d9e" y="307.584"/>
      </g>
     </g>
     <g id="text_2">
      <!-- 0.2 -->
      <defs>
       <path d="M 19.1875 8.296875 
L 53.609375 8.296875 
L 53.609375 0 
L 7.328125 0 
L 7.328125 8.296875 
Q 12.9375 14.109375 22.625 23.890625 
Q 32.328125 33.6875 34.8125 36.53125 
Q 39.546875 41.84375 41.421875 45.53125 
Q 43.3125 49.21875 43.3125 52.78125 
Q 43.3125 58.59375 39.234375 62.25 
Q 35.15625 65.921875 28.609375 65.921875 
Q 23.96875 65.921875 18.8125 64.3125 
Q 13.671875 62.703125 7.8125 59.421875 
L 7.8125 69.390625 
Q 13.765625 71.78125 18.9375 73 
Q 24.125 74.21875 28.421875 74.21875 
Q 39.75 74.21875 46.484375 68.546875 
Q 53.21875 62.890625 53.21875 53.421875 
Q 53.21875 48.921875 51.53125 44.890625 
Q 49.859375 40.875 45.40625 35.40625 
Q 44.1875 33.984375 37.640625 27.21875 
Q 31.109375 20.453125 19.1875 8.296875 
z
" id="DejaVuSans-50"/>
      </defs>
      <g transform="translate(138.928438 322.182437)scale(0.1 -0.1)">
       <use xlink:href="#DejaVuSans-48"/>
       <use x="63.623047" xlink:href="#DejaVuSans-46"/>
       <use x="95.410156" xlink:href="#DejaVuSans-50"/>
      </g>
     </g>
    </g>
    <g id="xtick_3">
     <g id="line2d_3">
      <g>
       <use style="stroke:#000000;stroke-width:0.8;" x="206.4" xlink:href="#m78e41c1d9e" y="307.584"/>
      </g>
     </g>
     <g id="text_3">
      <!-- 0.4 -->
      <defs>
       <path d="M 37.796875 64.3125 
L 12.890625 25.390625 
L 37.796875 25.390625 
z
M 35.203125 72.90625 
L 47.609375 72.90625 
L 47.609375 25.390625 
L 58.015625 25.390625 
L 58.015625 17.1875 
L 47.609375 17.1875 
L 47.609375 0 
L 37.796875 0 
L 37.796875 17.1875 
L 4.890625 17.1875 
L 4.890625 26.703125 
z
" id="DejaVuSans-52"/>
      </defs>
      <g transform="translate(198.448438 322.182437)scale(0.1 -0.1)">
       <use xlink:href="#DejaVuSans-48"/>
       <use x="63.623047" xlink:href="#DejaVuSans-46"/>
       <use x="95.410156" xlink:href="#DejaVuSans-52"/>
      </g>
     </g>
    </g>
    <g id="xtick_4">
     <g id="line2d_4">
      <g>
       <use style="stroke:#000000;stroke-width:0.8;" x="265.92" xlink:href="#m78e41c1d9e" y="307.584"/>
      </g>
     </g>
     <g id="text_4">
      <!-- 0.6 -->
      <defs>
       <path d="M 33.015625 40.375 
Q 26.375 40.375 22.484375 35.828125 
Q 18.609375 31.296875 18.609375 23.390625 
Q 18.609375 15.53125 22.484375 10.953125 
Q 26.375 6.390625 33.015625 6.390625 
Q 39.65625 6.390625 43.53125 10.953125 
Q 47.40625 15.53125 47.40625 23.390625 
Q 47.40625 31.296875 43.53125 35.828125 
Q 39.65625 40.375 33.015625 40.375 
z
M 52.59375 71.296875 
L 52.59375 62.3125 
Q 48.875 64.0625 45.09375 64.984375 
Q 41.3125 65.921875 37.59375 65.921875 
Q 27.828125 65.921875 22.671875 59.328125 
Q 17.53125 52.734375 16.796875 39.40625 
Q 19.671875 43.65625 24.015625 45.921875 
Q 28.375 48.1875 33.59375 48.1875 
Q 44.578125 48.1875 50.953125 41.515625 
Q 57.328125 34.859375 57.328125 23.390625 
Q 57.328125 12.15625 50.6875 5.359375 
Q 44.046875 -1.421875 33.015625 -1.421875 
Q 20.359375 -1.421875 13.671875 8.265625 
Q 6.984375 17.96875 6.984375 36.375 
Q 6.984375 53.65625 15.1875 63.9375 
Q 23.390625 74.21875 37.203125 74.21875 
Q 40.921875 74.21875 44.703125 73.484375 
Q 48.484375 72.75 52.59375 71.296875 
z
" id="DejaVuSans-54"/>
      </defs>
      <g transform="translate(257.968437 322.182437)scale(0.1 -0.1)">
       <use xlink:href="#DejaVuSans-48"/>
       <use x="63.623047" xlink:href="#DejaVuSans-46"/>
       <use x="95.410156" xlink:href="#DejaVuSans-54"/>
      </g>
     </g>
    </g>
    <g id="xtick_5">
     <g id="line2d_5">
      <g>
       <use style="stroke:#000000;stroke-width:0.8;" x="325.44" xlink:href="#m78e41c1d9e" y="307.584"/>
      </g>
     </g>
     <g id="text_5">
      <!-- 0.8 -->
      <defs>
       <path d="M 31.78125 34.625 
Q 24.75 34.625 20.71875 30.859375 
Q 16.703125 27.09375 16.703125 20.515625 
Q 16.703125 13.921875 20.71875 10.15625 
Q 24.75 6.390625 31.78125 6.390625 
Q 38.8125 6.390625 42.859375 10.171875 
Q 46.921875 13.96875 46.921875 20.515625 
Q 46.921875 27.09375 42.890625 30.859375 
Q 38.875 34.625 31.78125 34.625 
z
M 21.921875 38.8125 
Q 15.578125 40.375 12.03125 44.71875 
Q 8.5 49.078125 8.5 55.328125 
Q 8.5 64.0625 14.71875 69.140625 
Q 20.953125 74.21875 31.78125 74.21875 
Q 42.671875 74.21875 48.875 69.140625 
Q 55.078125 64.0625 55.078125 55.328125 
Q 55.078125 49.078125 51.53125 44.71875 
Q 48 40.375 41.703125 38.8125 
Q 48.828125 37.15625 52.796875 32.3125 
Q 56.78125 27.484375 56.78125 20.515625 
Q 56.78125 9.90625 50.3125 4.234375 
Q 43.84375 -1.421875 31.78125 -1.421875 
Q 19.734375 -1.421875 13.25 4.234375 
Q 6.78125 9.90625 6.78125 20.515625 
Q 6.78125 27.484375 10.78125 32.3125 
Q 14.796875 37.15625 21.921875 38.8125 
z
M 18.3125 54.390625 
Q 18.3125 48.734375 21.84375 45.5625 
Q 25.390625 42.390625 31.78125 42.390625 
Q 38.140625 42.390625 41.71875 45.5625 
Q 45.3125 48.734375 45.3125 54.390625 
Q 45.3125 60.0625 41.71875 63.234375 
Q 38.140625 66.40625 31.78125 66.40625 
Q 25.390625 66.40625 21.84375 63.234375 
Q 18.3125 60.0625 18.3125 54.390625 
z
" id="DejaVuSans-56"/>
      </defs>
      <g transform="translate(317.488437 322.182437)scale(0.1 -0.1)">
       <use xlink:href="#DejaVuSans-48"/>
       <use x="63.623047" xlink:href="#DejaVuSans-46"/>
       <use x="95.410156" xlink:href="#DejaVuSans-56"/>
      </g>
     </g>
    </g>
    <g id="xtick_6">
     <g id="line2d_6">
      <g>
       <use style="stroke:#000000;stroke-width:0.8;" x="384.96" xlink:href="#m78e41c1d9e" y="307.584"/>
      </g>
     </g>
     <g id="text_6">
      <!-- 1.0 -->
      <defs>
       <path d="M 12.40625 8.296875 
L 28.515625 8.296875 
L 28.515625 63.921875 
L 10.984375 60.40625 
L 10.984375 69.390625 
L 28.421875 72.90625 
L 38.28125 72.90625 
L 38.28125 8.296875 
L 54.390625 8.296875 
L 54.390625 0 
L 12.40625 0 
z
" id="DejaVuSans-49"/>
      </defs>
      <g transform="translate(377.008438 322.182437)scale(0.1 -0.1)">
       <use xlink:href="#DejaVuSans-49"/>
       <use x="63.623047" xlink:href="#DejaVuSans-46"/>
       <use x="95.410156" xlink:href="#DejaVuSans-48"/>
      </g>
     </g>
    </g>
   </g>
   <g id="matplotlib.axis_2">
    <g id="ytick_1">
     <g id="line2d_7">
      <defs>
       <path d="M 0 0 
L -3.5 0 
" id="mb59e47fda1" style="stroke:#000000;stroke-width:0.8;"/>
      </defs>
      <g>
       <use style="stroke:#000000;stroke-width:0.8;" x="57.6" xlink:href="#mb59e47fda1" y="275.540548"/>
      </g>
     </g>
     <g id="text_7">
      <!-- −0.6 -->
      <defs>
       <path d="M 10.59375 35.5 
L 73.1875 35.5 
L 73.1875 27.203125 
L 10.59375 27.203125 
z
" id="DejaVuSans-8722"/>
      </defs>
      <g transform="translate(26.317187 279.339767)scale(0.1 -0.1)">
       <use xlink:href="#DejaVuSans-8722"/>
       <use x="83.789062" xlink:href="#DejaVuSans-48"/>
       <use x="147.412109" xlink:href="#DejaVuSans-46"/>
       <use x="179.199219" xlink:href="#DejaVuSans-54"/>
      </g>
     </g>
    </g>
    <g id="ytick_2">
     <g id="line2d_8">
      <g>
       <use style="stroke:#000000;stroke-width:0.8;" x="57.6" xlink:href="#mb59e47fda1" y="231.451171"/>
      </g>
     </g>
     <g id="text_8">
      <!-- −0.5 -->
      <defs>
       <path d="M 10.796875 72.90625 
L 49.515625 72.90625 
L 49.515625 64.59375 
L 19.828125 64.59375 
L 19.828125 46.734375 
Q 21.96875 47.46875 24.109375 47.828125 
Q 26.265625 48.1875 28.421875 48.1875 
Q 40.625 48.1875 47.75 41.5 
Q 54.890625 34.8125 54.890625 23.390625 
Q 54.890625 11.625 47.5625 5.09375 
Q 40.234375 -1.421875 26.90625 -1.421875 
Q 22.3125 -1.421875 17.546875 -0.640625 
Q 12.796875 0.140625 7.71875 1.703125 
L 7.71875 11.625 
Q 12.109375 9.234375 16.796875 8.0625 
Q 21.484375 6.890625 26.703125 6.890625 
Q 35.15625 6.890625 40.078125 11.328125 
Q 45.015625 15.765625 45.015625 23.390625 
Q 45.015625 31 40.078125 35.4375 
Q 35.15625 39.890625 26.703125 39.890625 
Q 22.75 39.890625 18.8125 39.015625 
Q 14.890625 38.140625 10.796875 36.28125 
z
" id="DejaVuSans-53"/>
      </defs>
      <g transform="translate(26.317187 235.25039)scale(0.1 -0.1)">
       <use xlink:href="#DejaVuSans-8722"/>
       <use x="83.789062" xlink:href="#DejaVuSans-48"/>
       <use x="147.412109" xlink:href="#DejaVuSans-46"/>
       <use x="179.199219" xlink:href="#DejaVuSans-53"/>
      </g>
     </g>
    </g>
    <g id="ytick_3">
     <g id="line2d_9">
      <g>
       <use style="stroke:#000000;stroke-width:0.8;" x="57.6" xlink:href="#mb59e47fda1" y="187.361794"/>
      </g>
     </g>
     <g id="text_9">
      <!-- −0.4 -->
      <g transform="translate(26.317187 191.161012)scale(0.1 -0.1)">
       <use xlink:href="#DejaVuSans-8722"/>
       <use x="83.789062" xlink:href="#DejaVuSans-48"/>
       <use x="147.412109" xlink:href="#DejaVuSans-46"/>
       <use x="179.199219" xlink:href="#DejaVuSans-52"/>
      </g>
     </g>
    </g>
    <g id="ytick_4">
     <g id="line2d_10">
      <g>
       <use style="stroke:#000000;stroke-width:0.8;" x="57.6" xlink:href="#mb59e47fda1" y="143.272416"/>
      </g>
     </g>
     <g id="text_10">
      <!-- −0.3 -->
      <defs>
       <path d="M 40.578125 39.3125 
Q 47.65625 37.796875 51.625 33 
Q 55.609375 28.21875 55.609375 21.1875 
Q 55.609375 10.40625 48.1875 4.484375 
Q 40.765625 -1.421875 27.09375 -1.421875 
Q 22.515625 -1.421875 17.65625 -0.515625 
Q 12.796875 0.390625 7.625 2.203125 
L 7.625 11.71875 
Q 11.71875 9.328125 16.59375 8.109375 
Q 21.484375 6.890625 26.8125 6.890625 
Q 36.078125 6.890625 40.9375 10.546875 
Q 45.796875 14.203125 45.796875 21.1875 
Q 45.796875 27.640625 41.28125 31.265625 
Q 36.765625 34.90625 28.71875 34.90625 
L 20.21875 34.90625 
L 20.21875 43.015625 
L 29.109375 43.015625 
Q 36.375 43.015625 40.234375 45.921875 
Q 44.09375 48.828125 44.09375 54.296875 
Q 44.09375 59.90625 40.109375 62.90625 
Q 36.140625 65.921875 28.71875 65.921875 
Q 24.65625 65.921875 20.015625 65.03125 
Q 15.375 64.15625 9.8125 62.3125 
L 9.8125 71.09375 
Q 15.4375 72.65625 20.34375 73.4375 
Q 25.25 74.21875 29.59375 74.21875 
Q 40.828125 74.21875 47.359375 69.109375 
Q 53.90625 64.015625 53.90625 55.328125 
Q 53.90625 49.265625 50.4375 45.09375 
Q 46.96875 40.921875 40.578125 39.3125 
z
" id="DejaVuSans-51"/>
      </defs>
      <g transform="translate(26.317187 147.071635)scale(0.1 -0.1)">
       <use xlink:href="#DejaVuSans-8722"/>
       <use x="83.789062" xlink:href="#DejaVuSans-48"/>
       <use x="147.412109" xlink:href="#DejaVuSans-46"/>
       <use x="179.199219" xlink:href="#DejaVuSans-51"/>
      </g>
     </g>
    </g>
    <g id="ytick_5">
     <g id="line2d_11">
      <g>
       <use style="stroke:#000000;stroke-width:0.8;" x="57.6" xlink:href="#mb59e47fda1" y="99.183039"/>
      </g>
     </g>
     <g id="text_11">
      <!-- −0.2 -->
      <g transform="translate(26.317187 102.982258)scale(0.1 -0.1)">
       <use xlink:href="#DejaVuSans-8722"/>
       <use x="83.789062" xlink:href="#DejaVuSans-48"/>
       <use x="147.412109" xlink:href="#DejaVuSans-46"/>
       <use x="179.199219" xlink:href="#DejaVuSans-50"/>
      </g>
     </g>
    </g>
    <g id="ytick_6">
     <g id="line2d_12">
      <g>
       <use style="stroke:#000000;stroke-width:0.8;" x="57.6" xlink:href="#mb59e47fda1" y="55.093662"/>
      </g>
     </g>
     <g id="text_12">
      <!-- −0.1 -->
      <g transform="translate(26.317187 58.89288)scale(0.1 -0.1)">
       <use xlink:href="#DejaVuSans-8722"/>
       <use x="83.789062" xlink:href="#DejaVuSans-48"/>
       <use x="147.412109" xlink:href="#DejaVuSans-46"/>
       <use x="179.199219" xlink:href="#DejaVuSans-49"/>
      </g>
     </g>
    </g>
   </g>
   <g id="line2d_13">
    <path clip-path="url(#p625eba6a72)" d="M 87.36 68.386809 
L 88.848 80.714562 
L 93.312 141.226461 
L 94.8 154.09001 
L 96.288 156.725448 
L 97.776 153.2606 
L 100.752 143.542008 
L 102.24 138.991369 
L 103.728 135.058168 
L 105.216 133.02243 
L 106.704 133.997006 
L 108.192 136.705424 
L 111.168 142.538027 
L 114.144 147.632146 
L 123.072 161.857651 
L 124.56 163.442914 
L 126.048 163.723247 
L 132 161.987229 
L 134.976 161.723382 
L 137.952 161.826158 
L 140.928 162.049909 
L 142.416 161.627888 
L 143.904 160.350045 
L 146.88 156.560233 
L 149.856 152.350728 
L 151.344 150.023982 
L 152.832 147.449415 
L 154.32 144.533801 
L 155.808 141.168992 
L 157.296 137.253075 
L 160.272 128.485388 
L 161.76 126.427385 
L 163.248 128.496361 
L 166.224 137.13758 
L 167.712 140.832399 
L 169.2 143.802317 
L 170.688 146.082095 
L 172.176 147.694642 
L 173.664 148.629005 
L 175.152 148.862573 
L 178.128 148.197607 
L 179.616 150.193058 
L 181.104 156.37725 
L 187.056 190.117134 
L 193.008 221.57263 
L 197.472 247.657803 
L 198.96 254.053343 
L 200.448 256.324498 
L 203.424 256.378125 
L 204.912 257.050151 
L 206.4 258.484019 
L 207.888 260.667429 
L 209.376 263.602516 
L 210.864 267.328036 
L 212.352 271.894606 
L 215.328 282.549598 
L 216.816 285.407999 
L 218.304 283.668888 
L 221.28 275.18783 
L 222.768 271.638504 
L 224.256 268.851943 
L 225.744 266.745296 
L 227.232 265.238438 
L 228.72 264.280615 
L 230.208 263.850268 
L 231.696 263.939523 
L 234.672 265.135891 
L 236.16 264.764143 
L 237.648 262.407923 
L 240.624 255.608815 
L 242.112 252.564272 
L 243.6 249.873438 
L 245.088 247.484786 
L 246.576 245.345974 
L 249.552 241.659284 
L 252.528 238.576831 
L 267.408 224.839568 
L 271.872 220.668609 
L 273.36 219.276253 
L 274.848 218.235019 
L 276.336 217.809983 
L 280.8 217.541353 
L 283.776 217.032426 
L 286.752 216.215011 
L 289.728 215.066221 
L 292.704 213.677299 
L 294.192 213.296964 
L 295.68 213.482245 
L 300.144 214.913752 
L 303.12 215.524957 
L 306.096 215.858986 
L 312.048 216.13306 
L 313.536 216.565043 
L 319.488 218.81636 
L 325.44 220.721873 
L 338.832 224.937751 
L 341.808 226.090145 
L 347.76 228.698991 
L 350.736 229.347957 
L 353.712 229.998908 
L 356.688 230.92301 
L 359.664 232.148842 
L 362.64 233.738149 
L 365.616 235.658802 
L 367.104 236.438533 
L 368.592 236.826051 
L 371.568 237.299705 
L 373.056 237.714908 
L 374.544 238.30028 
L 376.032 239.071252 
L 377.52 240.050489 
L 379.008 241.270269 
L 380.496 242.762772 
L 383.472 246.208525 
L 384.96 246.914959 
L 384.96 246.914959 
" style="fill:none;stroke:#333333;stroke-linecap:square;stroke-width:1.5;"/>
   </g>
   <g id="line2d_14">
    <path clip-path="url(#p625eba6a72)" d="M 87.36 68.386808 
L 88.848 63.648 
L 90.336 74.659995 
L 91.824 97.463302 
L 94.8 154.090011 
L 96.288 176.147546 
L 97.776 188.806834 
L 99.264 190.930267 
L 100.752 183.506632 
L 102.24 169.10037 
L 105.216 133.02243 
L 106.704 117.790473 
L 108.192 107.438272 
L 109.68 102.895959 
L 111.168 104.052274 
L 112.656 109.964789 
L 114.144 119.158983 
L 117.12 140.722975 
L 118.608 150.163556 
L 120.096 157.374917 
L 121.584 161.928137 
L 123.072 163.830714 
L 124.56 163.442915 
L 126.048 161.363643 
L 127.536 158.30758 
L 129.024 154.991422 
L 130.512 152.041703 
L 132 149.931065 
L 133.488 148.944745 
L 134.976 149.175029 
L 136.464 150.538638 
L 137.952 152.810552 
L 140.928 158.734008 
L 142.416 161.627888 
L 143.904 163.997552 
L 145.392 165.552338 
L 146.88 166.082488 
L 148.368 165.469518 
L 149.856 163.687734 
L 151.344 160.798343 
L 152.832 156.937929 
L 154.32 152.303156 
L 157.296 141.693275 
L 160.272 131.084617 
L 161.76 126.427384 
L 163.248 122.499517 
L 164.736 119.480315 
L 166.224 117.508046 
L 167.712 116.678194 
L 169.2 117.043905 
L 170.688 118.618221 
L 172.176 121.377691 
L 173.664 125.266952 
L 175.152 130.203908 
L 176.64 136.085175 
L 178.128 142.791518 
L 181.104 158.154081 
L 184.08 175.207797 
L 190.032 210.293781 
L 193.008 226.630863 
L 195.984 241.342749 
L 197.472 247.964664 
L 198.96 254.053343 
L 200.448 259.588647 
L 201.936 264.559561 
L 203.424 268.963226 
L 204.912 272.80395 
L 206.4 276.092223 
L 207.888 278.84377 
L 209.376 281.078648 
L 210.864 282.820407 
L 212.352 284.095309 
L 213.84 284.93163 
L 215.328 285.35903 
L 216.816 285.408 
L 218.304 285.109375 
L 219.792 284.493926 
L 221.28 283.592006 
L 222.768 282.433265 
L 224.256 281.046413 
L 225.744 279.459032 
L 228.72 275.786586 
L 231.696 271.609637 
L 236.16 264.764143 
L 246.576 248.307645 
L 251.04 241.769017 
L 254.016 237.723759 
L 256.992 233.968658 
L 259.968 230.525594 
L 262.944 227.407928 
L 265.92 224.621927 
L 268.896 222.168009 
L 271.872 220.041796 
L 274.848 218.235019 
L 277.824 216.736279 
L 280.8 215.531693 
L 283.776 214.605439 
L 286.752 213.940221 
L 289.728 213.517672 
L 292.704 213.318699 
L 295.68 213.323786 
L 298.656 213.513272 
L 301.632 213.867586 
L 306.096 214.666146 
L 310.56 215.729832 
L 315.024 217.000155 
L 320.976 218.924386 
L 329.904 222.094931 
L 353.712 230.935994 
L 361.152 233.866976 
L 367.104 236.438533 
L 371.568 238.585221 
L 376.032 240.993803 
L 380.496 243.741768 
L 383.472 245.804367 
L 384.96 246.914959 
L 384.96 246.914959 
" style="fill:none;stroke:#000000;stroke-linecap:square;stroke-width:1.5;"/>
   </g>
   <g id="line2d_15">
    <path clip-path="url(#p625eba6a72)" d="M 94.8 154.090011 
L 94.8 154.090011 
" style="fill:none;stroke:#ff00ff;stroke-linecap:square;stroke-width:1.5;"/>
    <defs>
     <path d="M 0 3 
C 0.795609 3 1.55874 2.683901 2.12132 2.12132 
C 2.683901 1.55874 3 0.795609 3 0 
C 3 -0.795609 2.683901 -1.55874 2.12132 -2.12132 
C 1.55874 -2.683901 0.795609 -3 0 -3 
C -0.795609 -3 -1.55874 -2.683901 -2.12132 -2.12132 
C -2.683901 -1.55874 -3 -0.795609 -3 0 
C -3 0.795609 -2.683901 1.55874 -2.12132 2.12132 
C -1.55874 2.683901 -0.795609 3 0 3 
z
" id="ma6900acc0f" style="stroke:#ff00ff;"/>
    </defs>
    <g clip-path="url(#p625eba6a72)">
     <use style="fill:#ff00ff;stroke:#ff00ff;" x="94.8" xlink:href="#ma6900acc0f" y="154.090011"/>
     <use style="fill:#ff00ff;stroke:#ff00ff;" x="94.8" xlink:href="#ma6900acc0f" y="154.090011"/>
    </g>
   </g>
   <g id="patch_3">
    <path d="M 57.6 307.584 
L 57.6 41.472 
" style="fill:none;stroke:#000000;stroke-linecap:square;stroke-linejoin:miter;stroke-width:0.8;"/>
   </g>
   <g id="patch_4">
    <path d="M 414.72 307.584 
L 414.72 41.472 
" style="fill:none;stroke:#000000;stroke-linecap:square;stroke-linejoin:miter;stroke-width:0.8;"/>
   </g>
   <g id="patch_5">
    <path d="M 57.6 307.584 
L 414.72 307.584 
" style="fill:none;stroke:#000000;stroke-linecap:square;stroke-linejoin:miter;stroke-width:0.8;"/>
   </g>
   <g id="patch_6">
    <path d="M 57.6 41.472 
L 414.72 41.472 
" style="fill:none;stroke:#000000;stroke-linecap:square;stroke-linejoin:miter;stroke-width:0.8;"/>
   </g>
   <g id="legend_1">
    <g id="patch_7">
     <path d="M 279.791875 108.206375 
L 407.72 108.206375 
Q 409.72 108.206375 409.72 106.206375 
L 409.72 48.472 
Q 409.72 46.472 407.72 46.472 
L 279.791875 46.472 
Q 277.791875 46.472 277.791875 48.472 
L 277.791875 106.206375 
Q 277.791875 108.206375 279.791875 108.206375 
z
" style="fill:#ffffff;opacity:0.8;stroke:#cccccc;stroke-linejoin:miter;"/>
    </g>
    <g id="line2d_16">
     <path d="M 281.791875 54.570438 
L 301.791875 54.570438 
" style="fill:none;stroke:#333333;stroke-linecap:square;stroke-width:1.5;"/>
    </g>
    <g id="line2d_17"/>
    <g id="text_13">
     <!-- GP predicted mean -->
     <defs>
      <path d="M 59.515625 10.40625 
L 59.515625 29.984375 
L 43.40625 29.984375 
L 43.40625 38.09375 
L 69.28125 38.09375 
L 69.28125 6.78125 
Q 63.578125 2.734375 56.6875 0.65625 
Q 49.8125 -1.421875 42 -1.421875 
Q 24.90625 -1.421875 15.25 8.5625 
Q 5.609375 18.5625 5.609375 36.375 
Q 5.609375 54.25 15.25 64.234375 
Q 24.90625 74.21875 42 74.21875 
Q 49.125 74.21875 55.546875 72.453125 
Q 61.96875 70.703125 67.390625 67.28125 
L 67.390625 56.78125 
Q 61.921875 61.421875 55.765625 63.765625 
Q 49.609375 66.109375 42.828125 66.109375 
Q 29.4375 66.109375 22.71875 58.640625 
Q 16.015625 51.171875 16.015625 36.375 
Q 16.015625 21.625 22.71875 14.15625 
Q 29.4375 6.6875 42.828125 6.6875 
Q 48.046875 6.6875 52.140625 7.59375 
Q 56.25 8.5 59.515625 10.40625 
z
" id="DejaVuSans-71"/>
      <path d="M 19.671875 64.796875 
L 19.671875 37.40625 
L 32.078125 37.40625 
Q 38.96875 37.40625 42.71875 40.96875 
Q 46.484375 44.53125 46.484375 51.125 
Q 46.484375 57.671875 42.71875 61.234375 
Q 38.96875 64.796875 32.078125 64.796875 
z
M 9.8125 72.90625 
L 32.078125 72.90625 
Q 44.34375 72.90625 50.609375 67.359375 
Q 56.890625 61.8125 56.890625 51.125 
Q 56.890625 40.328125 50.609375 34.8125 
Q 44.34375 29.296875 32.078125 29.296875 
L 19.671875 29.296875 
L 19.671875 0 
L 9.8125 0 
z
" id="DejaVuSans-80"/>
      <path id="DejaVuSans-32"/>
      <path d="M 18.109375 8.203125 
L 18.109375 -20.796875 
L 9.078125 -20.796875 
L 9.078125 54.6875 
L 18.109375 54.6875 
L 18.109375 46.390625 
Q 20.953125 51.265625 25.265625 53.625 
Q 29.59375 56 35.59375 56 
Q 45.5625 56 51.78125 48.09375 
Q 58.015625 40.1875 58.015625 27.296875 
Q 58.015625 14.40625 51.78125 6.484375 
Q 45.5625 -1.421875 35.59375 -1.421875 
Q 29.59375 -1.421875 25.265625 0.953125 
Q 20.953125 3.328125 18.109375 8.203125 
z
M 48.6875 27.296875 
Q 48.6875 37.203125 44.609375 42.84375 
Q 40.53125 48.484375 33.40625 48.484375 
Q 26.265625 48.484375 22.1875 42.84375 
Q 18.109375 37.203125 18.109375 27.296875 
Q 18.109375 17.390625 22.1875 11.75 
Q 26.265625 6.109375 33.40625 6.109375 
Q 40.53125 6.109375 44.609375 11.75 
Q 48.6875 17.390625 48.6875 27.296875 
z
" id="DejaVuSans-112"/>
      <path d="M 41.109375 46.296875 
Q 39.59375 47.171875 37.8125 47.578125 
Q 36.03125 48 33.890625 48 
Q 26.265625 48 22.1875 43.046875 
Q 18.109375 38.09375 18.109375 28.8125 
L 18.109375 0 
L 9.078125 0 
L 9.078125 54.6875 
L 18.109375 54.6875 
L 18.109375 46.1875 
Q 20.953125 51.171875 25.484375 53.578125 
Q 30.03125 56 36.53125 56 
Q 37.453125 56 38.578125 55.875 
Q 39.703125 55.765625 41.0625 55.515625 
z
" id="DejaVuSans-114"/>
      <path d="M 56.203125 29.59375 
L 56.203125 25.203125 
L 14.890625 25.203125 
Q 15.484375 15.921875 20.484375 11.0625 
Q 25.484375 6.203125 34.421875 6.203125 
Q 39.59375 6.203125 44.453125 7.46875 
Q 49.3125 8.734375 54.109375 11.28125 
L 54.109375 2.78125 
Q 49.265625 0.734375 44.1875 -0.34375 
Q 39.109375 -1.421875 33.890625 -1.421875 
Q 20.796875 -1.421875 13.15625 6.1875 
Q 5.515625 13.8125 5.515625 26.8125 
Q 5.515625 40.234375 12.765625 48.109375 
Q 20.015625 56 32.328125 56 
Q 43.359375 56 49.78125 48.890625 
Q 56.203125 41.796875 56.203125 29.59375 
z
M 47.21875 32.234375 
Q 47.125 39.59375 43.09375 43.984375 
Q 39.0625 48.390625 32.421875 48.390625 
Q 24.90625 48.390625 20.390625 44.140625 
Q 15.875 39.890625 15.1875 32.171875 
z
" id="DejaVuSans-101"/>
      <path d="M 45.40625 46.390625 
L 45.40625 75.984375 
L 54.390625 75.984375 
L 54.390625 0 
L 45.40625 0 
L 45.40625 8.203125 
Q 42.578125 3.328125 38.25 0.953125 
Q 33.9375 -1.421875 27.875 -1.421875 
Q 17.96875 -1.421875 11.734375 6.484375 
Q 5.515625 14.40625 5.515625 27.296875 
Q 5.515625 40.1875 11.734375 48.09375 
Q 17.96875 56 27.875 56 
Q 33.9375 56 38.25 53.625 
Q 42.578125 51.265625 45.40625 46.390625 
z
M 14.796875 27.296875 
Q 14.796875 17.390625 18.875 11.75 
Q 22.953125 6.109375 30.078125 6.109375 
Q 37.203125 6.109375 41.296875 11.75 
Q 45.40625 17.390625 45.40625 27.296875 
Q 45.40625 37.203125 41.296875 42.84375 
Q 37.203125 48.484375 30.078125 48.484375 
Q 22.953125 48.484375 18.875 42.84375 
Q 14.796875 37.203125 14.796875 27.296875 
z
" id="DejaVuSans-100"/>
      <path d="M 9.421875 54.6875 
L 18.40625 54.6875 
L 18.40625 0 
L 9.421875 0 
z
M 9.421875 75.984375 
L 18.40625 75.984375 
L 18.40625 64.59375 
L 9.421875 64.59375 
z
" id="DejaVuSans-105"/>
      <path d="M 48.78125 52.59375 
L 48.78125 44.1875 
Q 44.96875 46.296875 41.140625 47.34375 
Q 37.3125 48.390625 33.40625 48.390625 
Q 24.65625 48.390625 19.8125 42.84375 
Q 14.984375 37.3125 14.984375 27.296875 
Q 14.984375 17.28125 19.8125 11.734375 
Q 24.65625 6.203125 33.40625 6.203125 
Q 37.3125 6.203125 41.140625 7.25 
Q 44.96875 8.296875 48.78125 10.40625 
L 48.78125 2.09375 
Q 45.015625 0.34375 40.984375 -0.53125 
Q 36.96875 -1.421875 32.421875 -1.421875 
Q 20.0625 -1.421875 12.78125 6.34375 
Q 5.515625 14.109375 5.515625 27.296875 
Q 5.515625 40.671875 12.859375 48.328125 
Q 20.21875 56 33.015625 56 
Q 37.15625 56 41.109375 55.140625 
Q 45.0625 54.296875 48.78125 52.59375 
z
" id="DejaVuSans-99"/>
      <path d="M 18.3125 70.21875 
L 18.3125 54.6875 
L 36.8125 54.6875 
L 36.8125 47.703125 
L 18.3125 47.703125 
L 18.3125 18.015625 
Q 18.3125 11.328125 20.140625 9.421875 
Q 21.96875 7.515625 27.59375 7.515625 
L 36.8125 7.515625 
L 36.8125 0 
L 27.59375 0 
Q 17.1875 0 13.234375 3.875 
Q 9.28125 7.765625 9.28125 18.015625 
L 9.28125 47.703125 
L 2.6875 47.703125 
L 2.6875 54.6875 
L 9.28125 54.6875 
L 9.28125 70.21875 
z
" id="DejaVuSans-116"/>
      <path d="M 52 44.1875 
Q 55.375 50.25 60.0625 53.125 
Q 64.75 56 71.09375 56 
Q 79.640625 56 84.28125 50.015625 
Q 88.921875 44.046875 88.921875 33.015625 
L 88.921875 0 
L 79.890625 0 
L 79.890625 32.71875 
Q 79.890625 40.578125 77.09375 44.375 
Q 74.3125 48.1875 68.609375 48.1875 
Q 61.625 48.1875 57.5625 43.546875 
Q 53.515625 38.921875 53.515625 30.90625 
L 53.515625 0 
L 44.484375 0 
L 44.484375 32.71875 
Q 44.484375 40.625 41.703125 44.40625 
Q 38.921875 48.1875 33.109375 48.1875 
Q 26.21875 48.1875 22.15625 43.53125 
Q 18.109375 38.875 18.109375 30.90625 
L 18.109375 0 
L 9.078125 0 
L 9.078125 54.6875 
L 18.109375 54.6875 
L 18.109375 46.1875 
Q 21.1875 51.21875 25.484375 53.609375 
Q 29.78125 56 35.6875 56 
Q 41.65625 56 45.828125 52.96875 
Q 50 49.953125 52 44.1875 
z
" id="DejaVuSans-109"/>
      <path d="M 34.28125 27.484375 
Q 23.390625 27.484375 19.1875 25 
Q 14.984375 22.515625 14.984375 16.5 
Q 14.984375 11.71875 18.140625 8.90625 
Q 21.296875 6.109375 26.703125 6.109375 
Q 34.1875 6.109375 38.703125 11.40625 
Q 43.21875 16.703125 43.21875 25.484375 
L 43.21875 27.484375 
z
M 52.203125 31.203125 
L 52.203125 0 
L 43.21875 0 
L 43.21875 8.296875 
Q 40.140625 3.328125 35.546875 0.953125 
Q 30.953125 -1.421875 24.3125 -1.421875 
Q 15.921875 -1.421875 10.953125 3.296875 
Q 6 8.015625 6 15.921875 
Q 6 25.140625 12.171875 29.828125 
Q 18.359375 34.515625 30.609375 34.515625 
L 43.21875 34.515625 
L 43.21875 35.40625 
Q 43.21875 41.609375 39.140625 45 
Q 35.0625 48.390625 27.6875 48.390625 
Q 23 48.390625 18.546875 47.265625 
Q 14.109375 46.140625 10.015625 43.890625 
L 10.015625 52.203125 
Q 14.9375 54.109375 19.578125 55.046875 
Q 24.21875 56 28.609375 56 
Q 40.484375 56 46.34375 49.84375 
Q 52.203125 43.703125 52.203125 31.203125 
z
" id="DejaVuSans-97"/>
      <path d="M 54.890625 33.015625 
L 54.890625 0 
L 45.90625 0 
L 45.90625 32.71875 
Q 45.90625 40.484375 42.875 44.328125 
Q 39.84375 48.1875 33.796875 48.1875 
Q 26.515625 48.1875 22.3125 43.546875 
Q 18.109375 38.921875 18.109375 30.90625 
L 18.109375 0 
L 9.078125 0 
L 9.078125 54.6875 
L 18.109375 54.6875 
L 18.109375 46.1875 
Q 21.34375 51.125 25.703125 53.5625 
Q 30.078125 56 35.796875 56 
Q 45.21875 56 50.046875 50.171875 
Q 54.890625 44.34375 54.890625 33.015625 
z
" id="DejaVuSans-110"/>
     </defs>
     <g transform="translate(309.791875 58.070438)scale(0.1 -0.1)">
      <use xlink:href="#DejaVuSans-71"/>
      <use x="77.490234" xlink:href="#DejaVuSans-80"/>
      <use x="137.792969" xlink:href="#DejaVuSans-32"/>
      <use x="169.580078" xlink:href="#DejaVuSans-112"/>
      <use x="233.056641" xlink:href="#DejaVuSans-114"/>
      <use x="271.919922" xlink:href="#DejaVuSans-101"/>
      <use x="333.443359" xlink:href="#DejaVuSans-100"/>
      <use x="396.919922" xlink:href="#DejaVuSans-105"/>
      <use x="424.703125" xlink:href="#DejaVuSans-99"/>
      <use x="479.683594" xlink:href="#DejaVuSans-116"/>
      <use x="518.892578" xlink:href="#DejaVuSans-101"/>
      <use x="580.416016" xlink:href="#DejaVuSans-100"/>
      <use x="643.892578" xlink:href="#DejaVuSans-32"/>
      <use x="675.679688" xlink:href="#DejaVuSans-109"/>
      <use x="773.091797" xlink:href="#DejaVuSans-101"/>
      <use x="834.615234" xlink:href="#DejaVuSans-97"/>
      <use x="895.894531" xlink:href="#DejaVuSans-110"/>
     </g>
    </g>
    <g id="line2d_18">
     <path d="M 281.791875 69.248563 
L 301.791875 69.248563 
" style="fill:none;stroke:#000000;stroke-linecap:square;stroke-width:1.5;"/>
    </g>
    <g id="line2d_19"/>
    <g id="text_14">
     <!-- true function -->
     <defs>
      <path d="M 8.5 21.578125 
L 8.5 54.6875 
L 17.484375 54.6875 
L 17.484375 21.921875 
Q 17.484375 14.15625 20.5 10.265625 
Q 23.53125 6.390625 29.59375 6.390625 
Q 36.859375 6.390625 41.078125 11.03125 
Q 45.3125 15.671875 45.3125 23.6875 
L 45.3125 54.6875 
L 54.296875 54.6875 
L 54.296875 0 
L 45.3125 0 
L 45.3125 8.40625 
Q 42.046875 3.421875 37.71875 1 
Q 33.40625 -1.421875 27.6875 -1.421875 
Q 18.265625 -1.421875 13.375 4.4375 
Q 8.5 10.296875 8.5 21.578125 
z
M 31.109375 56 
z
" id="DejaVuSans-117"/>
      <path d="M 37.109375 75.984375 
L 37.109375 68.5 
L 28.515625 68.5 
Q 23.6875 68.5 21.796875 66.546875 
Q 19.921875 64.59375 19.921875 59.515625 
L 19.921875 54.6875 
L 34.71875 54.6875 
L 34.71875 47.703125 
L 19.921875 47.703125 
L 19.921875 0 
L 10.890625 0 
L 10.890625 47.703125 
L 2.296875 47.703125 
L 2.296875 54.6875 
L 10.890625 54.6875 
L 10.890625 58.5 
Q 10.890625 67.625 15.140625 71.796875 
Q 19.390625 75.984375 28.609375 75.984375 
z
" id="DejaVuSans-102"/>
      <path d="M 30.609375 48.390625 
Q 23.390625 48.390625 19.1875 42.75 
Q 14.984375 37.109375 14.984375 27.296875 
Q 14.984375 17.484375 19.15625 11.84375 
Q 23.34375 6.203125 30.609375 6.203125 
Q 37.796875 6.203125 41.984375 11.859375 
Q 46.1875 17.53125 46.1875 27.296875 
Q 46.1875 37.015625 41.984375 42.703125 
Q 37.796875 48.390625 30.609375 48.390625 
z
M 30.609375 56 
Q 42.328125 56 49.015625 48.375 
Q 55.71875 40.765625 55.71875 27.296875 
Q 55.71875 13.875 49.015625 6.21875 
Q 42.328125 -1.421875 30.609375 -1.421875 
Q 18.84375 -1.421875 12.171875 6.21875 
Q 5.515625 13.875 5.515625 27.296875 
Q 5.515625 40.765625 12.171875 48.375 
Q 18.84375 56 30.609375 56 
z
" id="DejaVuSans-111"/>
     </defs>
     <g transform="translate(309.791875 72.748563)scale(0.1 -0.1)">
      <use xlink:href="#DejaVuSans-116"/>
      <use x="39.208984" xlink:href="#DejaVuSans-114"/>
      <use x="80.322266" xlink:href="#DejaVuSans-117"/>
      <use x="143.701172" xlink:href="#DejaVuSans-101"/>
      <use x="205.224609" xlink:href="#DejaVuSans-32"/>
      <use x="237.011719" xlink:href="#DejaVuSans-102"/>
      <use x="272.216797" xlink:href="#DejaVuSans-117"/>
      <use x="335.595703" xlink:href="#DejaVuSans-110"/>
      <use x="398.974609" xlink:href="#DejaVuSans-99"/>
      <use x="453.955078" xlink:href="#DejaVuSans-116"/>
      <use x="493.164062" xlink:href="#DejaVuSans-105"/>
      <use x="520.947266" xlink:href="#DejaVuSans-111"/>
      <use x="582.128906" xlink:href="#DejaVuSans-110"/>
     </g>
    </g>
    <g id="line2d_20">
     <path d="M 281.791875 83.926688 
L 301.791875 83.926688 
" style="fill:none;stroke:#ff00ff;stroke-linecap:square;stroke-width:1.5;"/>
    </g>
    <g id="line2d_21">
     <g>
      <use style="fill:#ff00ff;stroke:#ff00ff;" x="291.791875" xlink:href="#ma6900acc0f" y="83.926688"/>
     </g>
    </g>
    <g id="text_15">
     <!-- new sample -->
     <defs>
      <path d="M 4.203125 54.6875 
L 13.1875 54.6875 
L 24.421875 12.015625 
L 35.59375 54.6875 
L 46.1875 54.6875 
L 57.421875 12.015625 
L 68.609375 54.6875 
L 77.59375 54.6875 
L 63.28125 0 
L 52.6875 0 
L 40.921875 44.828125 
L 29.109375 0 
L 18.5 0 
z
" id="DejaVuSans-119"/>
      <path d="M 44.28125 53.078125 
L 44.28125 44.578125 
Q 40.484375 46.53125 36.375 47.5 
Q 32.28125 48.484375 27.875 48.484375 
Q 21.1875 48.484375 17.84375 46.4375 
Q 14.5 44.390625 14.5 40.28125 
Q 14.5 37.15625 16.890625 35.375 
Q 19.28125 33.59375 26.515625 31.984375 
L 29.59375 31.296875 
Q 39.15625 29.25 43.1875 25.515625 
Q 47.21875 21.78125 47.21875 15.09375 
Q 47.21875 7.46875 41.1875 3.015625 
Q 35.15625 -1.421875 24.609375 -1.421875 
Q 20.21875 -1.421875 15.453125 -0.5625 
Q 10.6875 0.296875 5.421875 2 
L 5.421875 11.28125 
Q 10.40625 8.6875 15.234375 7.390625 
Q 20.0625 6.109375 24.8125 6.109375 
Q 31.15625 6.109375 34.5625 8.28125 
Q 37.984375 10.453125 37.984375 14.40625 
Q 37.984375 18.0625 35.515625 20.015625 
Q 33.0625 21.96875 24.703125 23.78125 
L 21.578125 24.515625 
Q 13.234375 26.265625 9.515625 29.90625 
Q 5.8125 33.546875 5.8125 39.890625 
Q 5.8125 47.609375 11.28125 51.796875 
Q 16.75 56 26.8125 56 
Q 31.78125 56 36.171875 55.265625 
Q 40.578125 54.546875 44.28125 53.078125 
z
" id="DejaVuSans-115"/>
      <path d="M 9.421875 75.984375 
L 18.40625 75.984375 
L 18.40625 0 
L 9.421875 0 
z
" id="DejaVuSans-108"/>
     </defs>
     <g transform="translate(309.791875 87.426688)scale(0.1 -0.1)">
      <use xlink:href="#DejaVuSans-110"/>
      <use x="63.378906" xlink:href="#DejaVuSans-101"/>
      <use x="124.902344" xlink:href="#DejaVuSans-119"/>
      <use x="206.689453" xlink:href="#DejaVuSans-32"/>
      <use x="238.476562" xlink:href="#DejaVuSans-115"/>
      <use x="290.576172" xlink:href="#DejaVuSans-97"/>
      <use x="351.855469" xlink:href="#DejaVuSans-109"/>
      <use x="449.267578" xlink:href="#DejaVuSans-112"/>
      <use x="512.744141" xlink:href="#DejaVuSans-108"/>
      <use x="540.527344" xlink:href="#DejaVuSans-101"/>
     </g>
    </g>
    <g id="patch_8">
     <path d="M 281.791875 102.106375 
L 301.791875 102.106375 
L 301.791875 95.106375 
L 281.791875 95.106375 
z
" style="fill:#347aeb;opacity:0.6;"/>
    </g>
    <g id="text_16">
     <!-- GP predicted 2$\sigma$ -->
     <defs>
      <path d="M 34.671875 47.5625 
Q 27.25 47.5625 22.21875 42.1875 
Q 16.890625 36.578125 15.140625 27.296875 
Q 13.1875 17.484375 16.3125 11.8125 
Q 19.390625 6.203125 26.65625 6.203125 
Q 33.84375 6.203125 39.109375 11.859375 
Q 44.4375 17.53125 46.34375 27.296875 
Q 48.046875 36.234375 45.015625 42.1875 
Q 42.1875 47.5625 34.671875 47.5625 
z
M 36.078125 54.734375 
L 65.921875 54.6875 
L 64.15625 45.703125 
L 54.109375 45.703125 
Q 57.90625 38.09375 55.859375 27.296875 
Q 53.21875 13.875 45.0625 6.25 
Q 36.859375 -1.421875 25.140625 -1.421875 
Q 13.375 -1.421875 8.203125 6.25 
Q 3.03125 13.875 5.671875 27.296875 
Q 8.25 40.765625 16.40625 48.390625 
Q 23.1875 54.734375 36.078125 54.734375 
z
" id="DejaVuSans-Oblique-963"/>
     </defs>
     <g transform="translate(309.791875 102.106375)scale(0.1 -0.1)">
      <use transform="translate(0 0.015625)" xlink:href="#DejaVuSans-71"/>
      <use transform="translate(77.490234 0.015625)" xlink:href="#DejaVuSans-80"/>
      <use transform="translate(137.792969 0.015625)" xlink:href="#DejaVuSans-32"/>
      <use transform="translate(169.580078 0.015625)" xlink:href="#DejaVuSans-112"/>
      <use transform="translate(233.056641 0.015625)" xlink:href="#DejaVuSans-114"/>
      <use transform="translate(274.169922 0.015625)" xlink:href="#DejaVuSans-101"/>
      <use transform="translate(335.693359 0.015625)" xlink:href="#DejaVuSans-100"/>
      <use transform="translate(399.169922 0.015625)" xlink:href="#DejaVuSans-105"/>
      <use transform="translate(426.953125 0.015625)" xlink:href="#DejaVuSans-99"/>
      <use transform="translate(481.933594 0.015625)" xlink:href="#DejaVuSans-116"/>
      <use transform="translate(521.142578 0.015625)" xlink:href="#DejaVuSans-101"/>
      <use transform="translate(582.666016 0.015625)" xlink:href="#DejaVuSans-100"/>
      <use transform="translate(646.142578 0.015625)" xlink:href="#DejaVuSans-32"/>
      <use transform="translate(677.929688 0.015625)" xlink:href="#DejaVuSans-50"/>
      <use transform="translate(741.552734 0.015625)" xlink:href="#DejaVuSans-Oblique-963"/>
     </g>
    </g>
   </g>
  </g>
 </g>
 <defs>
  <clipPath id="p625eba6a72">
   <rect height="266.112" width="357.12" x="57.6" y="41.472"/>
  </clipPath>
 </defs>
</svg>
