<?xml version="1.0" encoding="utf-8" standalone="no"?>
<!DOCTYPE svg PUBLIC "-//W3C//DTD SVG 1.1//EN"
  "http://www.w3.org/Graphics/SVG/1.1/DTD/svg11.dtd">
<!-- Created with matplotlib (https://matplotlib.org/) -->
<svg height="345.6pt" version="1.1" viewBox="0 0 460.8 345.6" width="460.8pt" xmlns="http://www.w3.org/2000/svg" xmlns:xlink="http://www.w3.org/1999/xlink">
 <defs>
  <style type="text/css">
*{stroke-linecap:butt;stroke-linejoin:round;}
  </style>
 </defs>
 <g id="figure_1">
  <g id="patch_1">
   <path d="M 0 345.6 
L 460.8 345.6 
L 460.8 0 
L 0 0 
z
" style="fill:#ffffff;"/>
  </g>
  <g id="axes_1">
   <g id="patch_2">
    <path d="M 57.6 307.584 
L 414.72 307.584 
L 414.72 41.472 
L 57.6 41.472 
z
" style="fill:#ffffff;"/>
   </g>
   <g id="PolyCollection_1">
    <defs>
     <path d="M 87.36 -277.204373 
L 87.36 -277.22201 
L 88.848 -286.868763 
L 90.336 -295.121575 
L 91.824 -301.783631 
L 93.312 -306.81461 
L 94.8 -310.286242 
L 96.288 -312.333284 
L 97.776 -313.111246 
L 99.264 -312.768569 
L 100.752 -311.432079 
L 102.24 -309.201484 
L 103.728 -306.148867 
L 105.216 -302.320489 
L 106.704 -297.739376 
L 108.192 -292.408087 
L 109.68 -286.311584 
L 111.168 -279.420611 
L 112.656 -271.696339 
L 114.144 -263.097527 
L 115.632 -253.591855 
L 117.12 -243.173274 
L 118.608 -231.886374 
L 120.096 -219.855785 
L 121.584 -207.312567 
L 123.072 -194.602181 
L 124.56 -182.165904 
L 126.048 -192.368509 
L 127.536 -202.842473 
L 129.024 -213.143952 
L 130.512 -222.924934 
L 132 -231.951806 
L 133.488 -240.09737 
L 134.976 -247.314443 
L 136.464 -253.60647 
L 137.952 -259.003174 
L 139.44 -263.543259 
L 140.928 -267.263153 
L 142.416 -270.18999 
L 143.904 -272.337172 
L 145.392 -273.701339 
L 146.88 -274.259991 
L 148.368 -273.969497 
L 149.856 -272.763593 
L 151.344 -270.553127 
L 152.832 -267.228564 
L 154.32 -262.667837 
L 155.808 -256.753028 
L 157.296 -249.398998 
L 158.784 -240.593274 
L 160.272 -230.437805 
L 161.76 -219.181434 
L 163.248 -229.592966 
L 164.736 -239.12361 
L 166.224 -247.523044 
L 167.712 -254.68718 
L 169.2 -260.627812 
L 170.688 -265.4326 
L 172.176 -269.226318 
L 173.664 -272.142894 
L 175.152 -274.309119 
L 176.64 -275.837094 
L 178.128 -276.822041 
L 179.616 -277.342895 
L 181.104 -277.464114 
L 182.592 -277.237813 
L 184.08 -276.705823 
L 185.568 -275.901496 
L 187.056 -274.851211 
L 188.544 -273.575596 
L 190.032 -272.0905 
L 191.52 -270.407757 
L 193.008 -268.535771 
L 194.496 -266.479968 
L 195.984 -264.243121 
L 197.472 -261.825588 
L 198.96 -259.225459 
L 200.448 -256.438638 
L 201.936 -253.458852 
L 203.424 -250.277614 
L 204.912 -246.884113 
L 206.4 -243.265052 
L 207.888 -239.404433 
L 209.376 -235.283271 
L 210.864 -230.879254 
L 212.352 -226.166346 
L 213.84 -221.114339 
L 215.328 -215.688378 
L 216.816 -209.848521 
L 218.304 -203.549403 
L 219.792 -196.740191 
L 221.28 -189.365113 
L 222.768 -181.36504 
L 224.256 -172.680887 
L 225.744 -163.259978 
L 227.232 -153.066837 
L 228.72 -142.099917 
L 230.208 -130.41472 
L 231.696 -118.150583 
L 233.184 -105.552457 
L 234.672 -92.972444 
L 236.16 -80.844675 
L 237.648 -91.83519 
L 239.136 -103.082505 
L 240.624 -114.156808 
L 242.112 -124.711124 
L 243.6 -134.504504 
L 245.088 -143.398901 
L 246.576 -151.336336 
L 248.064 -158.31148 
L 249.552 -164.348126 
L 251.04 -169.482073 
L 252.528 -173.749854 
L 254.016 -177.18173 
L 255.504 -179.797433 
L 256.992 -181.603541 
L 258.48 -182.591754 
L 259.968 -182.737729 
L 261.456 -182.00049 
L 262.944 -180.3228 
L 264.432 -177.633435 
L 265.92 -173.852951 
L 267.408 -168.905314 
L 268.896 -162.737951 
L 270.384 -155.351412 
L 271.872 -146.834994 
L 273.36 -137.396257 
L 274.848 -127.373799 
L 276.336 -139.123558 
L 277.824 -150.273492 
L 279.312 -160.490723 
L 280.8 -169.573329 
L 282.288 -177.437391 
L 283.776 -184.087327 
L 285.264 -189.580133 
L 286.752 -193.995591 
L 288.24 -197.416066 
L 289.728 -199.914669 
L 291.216 -201.54919 
L 292.704 -202.35941 
L 294.192 -202.36616 
L 295.68 -201.57117 
L 297.168 -199.957273 
L 298.656 -197.488987 
L 300.144 -194.113901 
L 301.632 -189.765798 
L 303.12 -184.371083 
L 304.608 -177.860706 
L 306.096 -170.189876 
L 307.584 -161.36633 
L 309.072 -151.483223 
L 310.56 -140.744828 
L 312.048 -129.475759 
L 313.536 -140.470543 
L 315.024 -151.151315 
L 316.512 -161.188562 
L 318 -170.372376 
L 319.488 -178.605374 
L 320.976 -185.878762 
L 322.464 -192.240638 
L 323.952 -197.768466 
L 325.44 -202.549869 
L 326.928 -206.671205 
L 328.416 -210.211739 
L 329.904 -213.241313 
L 331.392 -215.819952 
L 332.88 -217.998435 
L 334.368 -219.819259 
L 335.856 -221.317698 
L 337.344 -222.522809 
L 338.832 -223.458321 
L 340.32 -224.143383 
L 341.808 -224.593189 
L 343.296 -224.819471 
L 344.784 -224.830892 
L 346.272 -224.633336 
L 347.76 -224.230123 
L 349.248 -223.622138 
L 350.736 -222.807907 
L 352.224 -221.78359 
L 353.712 -220.542925 
L 355.2 -219.077098 
L 356.688 -217.37455 
L 358.176 -215.420714 
L 359.664 -213.197665 
L 361.152 -210.683702 
L 362.64 -207.85283 
L 364.128 -204.67417 
L 365.616 -201.111303 
L 367.104 -197.121599 
L 368.592 -192.655631 
L 370.08 -187.656861 
L 371.568 -182.061956 
L 373.056 -175.802303 
L 374.544 -168.807695 
L 376.032 -161.013521 
L 377.52 -152.373117 
L 379.008 -142.876539 
L 380.496 -132.574924 
L 381.984 -121.604995 
L 383.472 -110.201822 
L 384.96 -98.693859 
L 384.96 -98.676223 
L 384.96 -98.676223 
L 383.472 -87.446499 
L 381.984 -76.886634 
L 380.496 -67.243264 
L 379.008 -58.641457 
L 377.52 -51.104262 
L 376.032 -44.58242 
L 374.544 -38.986293 
L 373.056 -34.210693 
L 371.568 -30.150592 
L 370.08 -26.709395 
L 368.592 -23.802316 
L 367.104 -21.35698 
L 365.616 -19.312638 
L 364.128 -17.618832 
L 362.64 -16.233938 
L 361.152 -15.123802 
L 359.664 -14.260548 
L 358.176 -13.621571 
L 356.688 -13.188725 
L 355.2 -12.947664 
L 353.712 -12.887324 
L 352.224 -12.999534 
L 350.736 -13.278712 
L 349.248 -13.721665 
L 347.76 -14.327456 
L 346.272 -15.097348 
L 344.784 -16.034813 
L 343.296 -17.145608 
L 341.808 -18.437917 
L 340.32 -19.92258 
L 338.832 -21.613383 
L 337.344 -23.527462 
L 335.856 -25.685795 
L 334.368 -28.113817 
L 332.88 -30.84216 
L 331.392 -33.907507 
L 329.904 -37.353556 
L 328.416 -41.231998 
L 326.928 -45.603368 
L 325.44 -50.537448 
L 323.952 -56.11263 
L 322.464 -62.413265 
L 320.976 -69.523433 
L 319.488 -77.515087 
L 318 -86.428524 
L 316.512 -96.244917 
L 315.024 -106.85541 
L 313.536 -118.03901 
L 312.048 -129.458121 
L 310.56 -118.532284 
L 309.072 -108.059951 
L 307.584 -98.375152 
L 306.096 -89.694585 
L 304.608 -82.124217 
L 303.12 -75.683161 
L 301.632 -70.335749 
L 300.144 -66.019722 
L 298.656 -62.666224 
L 297.168 -60.212078 
L 295.68 -58.606513 
L 294.192 -57.814437 
L 292.704 -57.817811 
L 291.216 -58.616013 
L 289.728 -60.225618 
L 288.24 -62.679513 
L 286.752 -66.024894 
L 285.264 -70.31912 
L 283.776 -75.621814 
L 282.288 -81.98107 
L 280.8 -89.411761 
L 279.312 -97.865959 
L 277.824 -107.200718 
L 276.336 -117.156539 
L 274.848 -127.356163 
L 273.36 -115.407458 
L 271.872 -103.675189 
L 270.384 -92.531026 
L 268.896 -82.228704 
L 267.408 -72.905024 
L 265.92 -64.601221 
L 264.432 -57.295062 
L 262.944 -50.930357 
L 261.456 -45.438624 
L 259.968 -40.752901 
L 258.48 -36.815716 
L 256.992 -33.583421 
L 255.504 -31.02854 
L 254.016 -29.141298 
L 252.528 -27.930975 
L 251.04 -27.427455 
L 249.552 -27.683008 
L 248.064 -28.774032 
L 246.576 -30.801945 
L 245.088 -33.891618 
L 243.6 -38.184623 
L 242.112 -43.823454 
L 240.624 -50.922963 
L 239.136 -59.528766 
L 237.648 -69.571292 
L 236.16 -80.82704 
L 234.672 -70.511263 
L 233.184 -61.212739 
L 231.696 -53.158764 
L 230.208 -46.423504 
L 228.72 -40.964809 
L 227.232 -36.668581 
L 225.744 -33.38932 
L 224.256 -30.978076 
L 222.768 -29.297846 
L 221.28 -28.229989 
L 219.792 -27.675387 
L 218.304 -27.553024 
L 216.816 -27.797564 
L 215.328 -28.356783 
L 213.84 -29.18921 
L 212.352 -30.262117 
L 210.864 -31.549879 
L 209.376 -33.032662 
L 207.888 -34.69539 
L 206.4 -36.526944 
L 204.912 -38.519552 
L 203.424 -40.668325 
L 201.936 -42.970919 
L 200.448 -45.427292 
L 198.96 -48.039556 
L 197.472 -50.811894 
L 195.984 -53.750545 
L 194.496 -56.863848 
L 193.008 -60.162355 
L 191.52 -63.658986 
L 190.032 -67.369264 
L 188.544 -71.311601 
L 187.056 -75.507655 
L 185.568 -79.982758 
L 184.08 -84.766397 
L 182.592 -89.892747 
L 181.104 -95.40121 
L 179.616 -101.336876 
L 178.128 -107.750775 
L 176.64 -114.69964 
L 175.152 -122.244745 
L 173.664 -130.449085 
L 172.176 -139.371796 
L 170.688 -149.058299 
L 169.2 -159.524569 
L 167.712 -170.7347 
L 166.224 -182.573854 
L 164.736 -194.824404 
L 163.248 -207.159888 
L 161.76 -219.163796 
L 160.272 -208.223736 
L 158.784 -197.166865 
L 157.296 -186.402954 
L 155.808 -176.251044 
L 154.32 -166.922793 
L 152.832 -158.530277 
L 151.344 -151.11106 
L 149.856 -144.656022 
L 148.368 -139.132374 
L 146.88 -134.500009 
L 145.392 -130.722144 
L 143.904 -127.771982 
L 142.416 -125.636945 
L 140.928 -124.321629 
L 139.44 -123.850133 
L 137.952 -124.268052 
L 136.464 -125.643927 
L 134.976 -128.069382 
L 133.488 -131.656317 
L 132 -136.528455 
L 130.512 -142.80359 
L 129.024 -150.56337 
L 127.536 -159.811478 
L 126.048 -170.430287 
L 124.56 -182.148268 
L 123.072 -172.663803 
L 121.584 -164.280995 
L 120.096 -157.274058 
L 118.608 -151.76335 
L 117.12 -147.74795 
L 115.632 -145.14899 
L 114.144 -143.851454 
L 112.656 -143.73436 
L 111.168 -144.688463 
L 109.68 -146.624629 
L 108.192 -149.476529 
L 106.704 -153.200325 
L 105.216 -157.772961 
L 103.728 -163.189799 
L 102.24 -169.461747 
L 100.752 -176.611565 
L 99.264 -184.668604 
L 97.776 -193.66086 
L 96.288 -203.602831 
L 94.8 -214.477757 
L 93.312 -226.213945 
L 91.824 -238.65816 
L 90.336 -251.555025 
L 88.848 -264.547551 
L 87.36 -277.204373 
z
" id="m3f2a0808b1"/>
    </defs>
    <g clip-path="url(#pe814fe7800)">
     <use style="fill:#347aeb;fill-opacity:0.6;" x="0" xlink:href="#m3f2a0808b1" y="345.6"/>
    </g>
   </g>
   <g id="PathCollection_1">
    <defs>
     <path d="M 0 3 
C 0.795609 3 1.55874 2.683901 2.12132 2.12132 
C 2.683901 1.55874 3 0.795609 3 0 
C 3 -0.795609 2.683901 -1.55874 2.12132 -2.12132 
C 1.55874 -2.683901 0.795609 -3 0 -3 
C -0.795609 -3 -1.55874 -2.683901 -2.12132 -2.12132 
C -2.683901 -1.55874 -3 -0.795609 -3 0 
C -3 0.795609 -2.683901 1.55874 -2.12132 2.12132 
C -1.55874 2.683901 -0.795609 3 0 3 
z
" id="m579766a3c1" style="stroke:#1f77b4;"/>
    </defs>
    <g clip-path="url(#pe814fe7800)">
     <use style="fill:#1f77b4;stroke:#1f77b4;" x="87.36" xlink:href="#m579766a3c1" y="68.386808"/>
     <use style="fill:#1f77b4;stroke:#1f77b4;" x="236.16" xlink:href="#m579766a3c1" y="264.764143"/>
     <use style="fill:#1f77b4;stroke:#1f77b4;" x="384.96" xlink:href="#m579766a3c1" y="246.914959"/>
     <use style="fill:#1f77b4;stroke:#1f77b4;" x="312.048" xlink:href="#m579766a3c1" y="216.13306"/>
     <use style="fill:#1f77b4;stroke:#1f77b4;" x="161.76" xlink:href="#m579766a3c1" y="126.427384"/>
     <use style="fill:#1f77b4;stroke:#1f77b4;" x="124.56" xlink:href="#m579766a3c1" y="163.442915"/>
     <use style="fill:#1f77b4;stroke:#1f77b4;" x="274.848" xlink:href="#m579766a3c1" y="218.235019"/>
    </g>
   </g>
   <g id="matplotlib.axis_1">
    <g id="xtick_1">
     <g id="line2d_1">
      <defs>
       <path d="M 0 0 
L 0 3.5 
" id="m77b2660641" style="stroke:#000000;stroke-width:0.8;"/>
      </defs>
      <g>
       <use style="stroke:#000000;stroke-width:0.8;" x="87.36" xlink:href="#m77b2660641" y="307.584"/>
      </g>
     </g>
     <g id="text_1">
      <!-- 0.0 -->
      <defs>
       <path d="M 31.78125 66.40625 
Q 24.171875 66.40625 20.328125 58.90625 
Q 16.5 51.421875 16.5 36.375 
Q 16.5 21.390625 20.328125 13.890625 
Q 24.171875 6.390625 31.78125 6.390625 
Q 39.453125 6.390625 43.28125 13.890625 
Q 47.125 21.390625 47.125 36.375 
Q 47.125 51.421875 43.28125 58.90625 
Q 39.453125 66.40625 31.78125 66.40625 
z
M 31.78125 74.21875 
Q 44.046875 74.21875 50.515625 64.515625 
Q 56.984375 54.828125 56.984375 36.375 
Q 56.984375 17.96875 50.515625 8.265625 
Q 44.046875 -1.421875 31.78125 -1.421875 
Q 19.53125 -1.421875 13.0625 8.265625 
Q 6.59375 17.96875 6.59375 36.375 
Q 6.59375 54.828125 13.0625 64.515625 
Q 19.53125 74.21875 31.78125 74.21875 
z
" id="DejaVuSans-48"/>
       <path d="M 10.6875 12.40625 
L 21 12.40625 
L 21 0 
L 10.6875 0 
z
" id="DejaVuSans-46"/>
      </defs>
      <g transform="translate(79.408438 322.182437)scale(0.1 -0.1)">
       <use xlink:href="#DejaVuSans-48"/>
       <use x="63.623047" xlink:href="#DejaVuSans-46"/>
       <use x="95.410156" xlink:href="#DejaVuSans-48"/>
      </g>
     </g>
    </g>
    <g id="xtick_2">
     <g id="line2d_2">
      <g>
       <use style="stroke:#000000;stroke-width:0.8;" x="146.88" xlink:href="#m77b2660641" y="307.584"/>
      </g>
     </g>
     <g id="text_2">
      <!-- 0.2 -->
      <defs>
       <path d="M 19.1875 8.296875 
L 53.609375 8.296875 
L 53.609375 0 
L 7.328125 0 
L 7.328125 8.296875 
Q 12.9375 14.109375 22.625 23.890625 
Q 32.328125 33.6875 34.8125 36.53125 
Q 39.546875 41.84375 41.421875 45.53125 
Q 43.3125 49.21875 43.3125 52.78125 
Q 43.3125 58.59375 39.234375 62.25 
Q 35.15625 65.921875 28.609375 65.921875 
Q 23.96875 65.921875 18.8125 64.3125 
Q 13.671875 62.703125 7.8125 59.421875 
L 7.8125 69.390625 
Q 13.765625 71.78125 18.9375 73 
Q 24.125 74.21875 28.421875 74.21875 
Q 39.75 74.21875 46.484375 68.546875 
Q 53.21875 62.890625 53.21875 53.421875 
Q 53.21875 48.921875 51.53125 44.890625 
Q 49.859375 40.875 45.40625 35.40625 
Q 44.1875 33.984375 37.640625 27.21875 
Q 31.109375 20.453125 19.1875 8.296875 
z
" id="DejaVuSans-50"/>
      </defs>
      <g transform="translate(138.928438 322.182437)scale(0.1 -0.1)">
       <use xlink:href="#DejaVuSans-48"/>
       <use x="63.623047" xlink:href="#DejaVuSans-46"/>
       <use x="95.410156" xlink:href="#DejaVuSans-50"/>
      </g>
     </g>
    </g>
    <g id="xtick_3">
     <g id="line2d_3">
      <g>
       <use style="stroke:#000000;stroke-width:0.8;" x="206.4" xlink:href="#m77b2660641" y="307.584"/>
      </g>
     </g>
     <g id="text_3">
      <!-- 0.4 -->
      <defs>
       <path d="M 37.796875 64.3125 
L 12.890625 25.390625 
L 37.796875 25.390625 
z
M 35.203125 72.90625 
L 47.609375 72.90625 
L 47.609375 25.390625 
L 58.015625 25.390625 
L 58.015625 17.1875 
L 47.609375 17.1875 
L 47.609375 0 
L 37.796875 0 
L 37.796875 17.1875 
L 4.890625 17.1875 
L 4.890625 26.703125 
z
" id="DejaVuSans-52"/>
      </defs>
      <g transform="translate(198.448438 322.182437)scale(0.1 -0.1)">
       <use xlink:href="#DejaVuSans-48"/>
       <use x="63.623047" xlink:href="#DejaVuSans-46"/>
       <use x="95.410156" xlink:href="#DejaVuSans-52"/>
      </g>
     </g>
    </g>
    <g id="xtick_4">
     <g id="line2d_4">
      <g>
       <use style="stroke:#000000;stroke-width:0.8;" x="265.92" xlink:href="#m77b2660641" y="307.584"/>
      </g>
     </g>
     <g id="text_4">
      <!-- 0.6 -->
      <defs>
       <path d="M 33.015625 40.375 
Q 26.375 40.375 22.484375 35.828125 
Q 18.609375 31.296875 18.609375 23.390625 
Q 18.609375 15.53125 22.484375 10.953125 
Q 26.375 6.390625 33.015625 6.390625 
Q 39.65625 6.390625 43.53125 10.953125 
Q 47.40625 15.53125 47.40625 23.390625 
Q 47.40625 31.296875 43.53125 35.828125 
Q 39.65625 40.375 33.015625 40.375 
z
M 52.59375 71.296875 
L 52.59375 62.3125 
Q 48.875 64.0625 45.09375 64.984375 
Q 41.3125 65.921875 37.59375 65.921875 
Q 27.828125 65.921875 22.671875 59.328125 
Q 17.53125 52.734375 16.796875 39.40625 
Q 19.671875 43.65625 24.015625 45.921875 
Q 28.375 48.1875 33.59375 48.1875 
Q 44.578125 48.1875 50.953125 41.515625 
Q 57.328125 34.859375 57.328125 23.390625 
Q 57.328125 12.15625 50.6875 5.359375 
Q 44.046875 -1.421875 33.015625 -1.421875 
Q 20.359375 -1.421875 13.671875 8.265625 
Q 6.984375 17.96875 6.984375 36.375 
Q 6.984375 53.65625 15.1875 63.9375 
Q 23.390625 74.21875 37.203125 74.21875 
Q 40.921875 74.21875 44.703125 73.484375 
Q 48.484375 72.75 52.59375 71.296875 
z
" id="DejaVuSans-54"/>
      </defs>
      <g transform="translate(257.968437 322.182437)scale(0.1 -0.1)">
       <use xlink:href="#DejaVuSans-48"/>
       <use x="63.623047" xlink:href="#DejaVuSans-46"/>
       <use x="95.410156" xlink:href="#DejaVuSans-54"/>
      </g>
     </g>
    </g>
    <g id="xtick_5">
     <g id="line2d_5">
      <g>
       <use style="stroke:#000000;stroke-width:0.8;" x="325.44" xlink:href="#m77b2660641" y="307.584"/>
      </g>
     </g>
     <g id="text_5">
      <!-- 0.8 -->
      <defs>
       <path d="M 31.78125 34.625 
Q 24.75 34.625 20.71875 30.859375 
Q 16.703125 27.09375 16.703125 20.515625 
Q 16.703125 13.921875 20.71875 10.15625 
Q 24.75 6.390625 31.78125 6.390625 
Q 38.8125 6.390625 42.859375 10.171875 
Q 46.921875 13.96875 46.921875 20.515625 
Q 46.921875 27.09375 42.890625 30.859375 
Q 38.875 34.625 31.78125 34.625 
z
M 21.921875 38.8125 
Q 15.578125 40.375 12.03125 44.71875 
Q 8.5 49.078125 8.5 55.328125 
Q 8.5 64.0625 14.71875 69.140625 
Q 20.953125 74.21875 31.78125 74.21875 
Q 42.671875 74.21875 48.875 69.140625 
Q 55.078125 64.0625 55.078125 55.328125 
Q 55.078125 49.078125 51.53125 44.71875 
Q 48 40.375 41.703125 38.8125 
Q 48.828125 37.15625 52.796875 32.3125 
Q 56.78125 27.484375 56.78125 20.515625 
Q 56.78125 9.90625 50.3125 4.234375 
Q 43.84375 -1.421875 31.78125 -1.421875 
Q 19.734375 -1.421875 13.25 4.234375 
Q 6.78125 9.90625 6.78125 20.515625 
Q 6.78125 27.484375 10.78125 32.3125 
Q 14.796875 37.15625 21.921875 38.8125 
z
M 18.3125 54.390625 
Q 18.3125 48.734375 21.84375 45.5625 
Q 25.390625 42.390625 31.78125 42.390625 
Q 38.140625 42.390625 41.71875 45.5625 
Q 45.3125 48.734375 45.3125 54.390625 
Q 45.3125 60.0625 41.71875 63.234375 
Q 38.140625 66.40625 31.78125 66.40625 
Q 25.390625 66.40625 21.84375 63.234375 
Q 18.3125 60.0625 18.3125 54.390625 
z
" id="DejaVuSans-56"/>
      </defs>
      <g transform="translate(317.488437 322.182437)scale(0.1 -0.1)">
       <use xlink:href="#DejaVuSans-48"/>
       <use x="63.623047" xlink:href="#DejaVuSans-46"/>
       <use x="95.410156" xlink:href="#DejaVuSans-56"/>
      </g>
     </g>
    </g>
    <g id="xtick_6">
     <g id="line2d_6">
      <g>
       <use style="stroke:#000000;stroke-width:0.8;" x="384.96" xlink:href="#m77b2660641" y="307.584"/>
      </g>
     </g>
     <g id="text_6">
      <!-- 1.0 -->
      <defs>
       <path d="M 12.40625 8.296875 
L 28.515625 8.296875 
L 28.515625 63.921875 
L 10.984375 60.40625 
L 10.984375 69.390625 
L 28.421875 72.90625 
L 38.28125 72.90625 
L 38.28125 8.296875 
L 54.390625 8.296875 
L 54.390625 0 
L 12.40625 0 
z
" id="DejaVuSans-49"/>
      </defs>
      <g transform="translate(377.008438 322.182437)scale(0.1 -0.1)">
       <use xlink:href="#DejaVuSans-49"/>
       <use x="63.623047" xlink:href="#DejaVuSans-46"/>
       <use x="95.410156" xlink:href="#DejaVuSans-48"/>
      </g>
     </g>
    </g>
   </g>
   <g id="matplotlib.axis_2">
    <g id="ytick_1">
     <g id="line2d_7">
      <defs>
       <path d="M 0 0 
L -3.5 0 
" id="mc5cdc93d8d" style="stroke:#000000;stroke-width:0.8;"/>
      </defs>
      <g>
       <use style="stroke:#000000;stroke-width:0.8;" x="57.6" xlink:href="#mc5cdc93d8d" y="275.540548"/>
      </g>
     </g>
     <g id="text_7">
      <!-- −0.6 -->
      <defs>
       <path d="M 10.59375 35.5 
L 73.1875 35.5 
L 73.1875 27.203125 
L 10.59375 27.203125 
z
" id="DejaVuSans-8722"/>
      </defs>
      <g transform="translate(26.317187 279.339767)scale(0.1 -0.1)">
       <use xlink:href="#DejaVuSans-8722"/>
       <use x="83.789062" xlink:href="#DejaVuSans-48"/>
       <use x="147.412109" xlink:href="#DejaVuSans-46"/>
       <use x="179.199219" xlink:href="#DejaVuSans-54"/>
      </g>
     </g>
    </g>
    <g id="ytick_2">
     <g id="line2d_8">
      <g>
       <use style="stroke:#000000;stroke-width:0.8;" x="57.6" xlink:href="#mc5cdc93d8d" y="231.451171"/>
      </g>
     </g>
     <g id="text_8">
      <!-- −0.5 -->
      <defs>
       <path d="M 10.796875 72.90625 
L 49.515625 72.90625 
L 49.515625 64.59375 
L 19.828125 64.59375 
L 19.828125 46.734375 
Q 21.96875 47.46875 24.109375 47.828125 
Q 26.265625 48.1875 28.421875 48.1875 
Q 40.625 48.1875 47.75 41.5 
Q 54.890625 34.8125 54.890625 23.390625 
Q 54.890625 11.625 47.5625 5.09375 
Q 40.234375 -1.421875 26.90625 -1.421875 
Q 22.3125 -1.421875 17.546875 -0.640625 
Q 12.796875 0.140625 7.71875 1.703125 
L 7.71875 11.625 
Q 12.109375 9.234375 16.796875 8.0625 
Q 21.484375 6.890625 26.703125 6.890625 
Q 35.15625 6.890625 40.078125 11.328125 
Q 45.015625 15.765625 45.015625 23.390625 
Q 45.015625 31 40.078125 35.4375 
Q 35.15625 39.890625 26.703125 39.890625 
Q 22.75 39.890625 18.8125 39.015625 
Q 14.890625 38.140625 10.796875 36.28125 
z
" id="DejaVuSans-53"/>
      </defs>
      <g transform="translate(26.317187 235.25039)scale(0.1 -0.1)">
       <use xlink:href="#DejaVuSans-8722"/>
       <use x="83.789062" xlink:href="#DejaVuSans-48"/>
       <use x="147.412109" xlink:href="#DejaVuSans-46"/>
       <use x="179.199219" xlink:href="#DejaVuSans-53"/>
      </g>
     </g>
    </g>
    <g id="ytick_3">
     <g id="line2d_9">
      <g>
       <use style="stroke:#000000;stroke-width:0.8;" x="57.6" xlink:href="#mc5cdc93d8d" y="187.361794"/>
      </g>
     </g>
     <g id="text_9">
      <!-- −0.4 -->
      <g transform="translate(26.317187 191.161012)scale(0.1 -0.1)">
       <use xlink:href="#DejaVuSans-8722"/>
       <use x="83.789062" xlink:href="#DejaVuSans-48"/>
       <use x="147.412109" xlink:href="#DejaVuSans-46"/>
       <use x="179.199219" xlink:href="#DejaVuSans-52"/>
      </g>
     </g>
    </g>
    <g id="ytick_4">
     <g id="line2d_10">
      <g>
       <use style="stroke:#000000;stroke-width:0.8;" x="57.6" xlink:href="#mc5cdc93d8d" y="143.272416"/>
      </g>
     </g>
     <g id="text_10">
      <!-- −0.3 -->
      <defs>
       <path d="M 40.578125 39.3125 
Q 47.65625 37.796875 51.625 33 
Q 55.609375 28.21875 55.609375 21.1875 
Q 55.609375 10.40625 48.1875 4.484375 
Q 40.765625 -1.421875 27.09375 -1.421875 
Q 22.515625 -1.421875 17.65625 -0.515625 
Q 12.796875 0.390625 7.625 2.203125 
L 7.625 11.71875 
Q 11.71875 9.328125 16.59375 8.109375 
Q 21.484375 6.890625 26.8125 6.890625 
Q 36.078125 6.890625 40.9375 10.546875 
Q 45.796875 14.203125 45.796875 21.1875 
Q 45.796875 27.640625 41.28125 31.265625 
Q 36.765625 34.90625 28.71875 34.90625 
L 20.21875 34.90625 
L 20.21875 43.015625 
L 29.109375 43.015625 
Q 36.375 43.015625 40.234375 45.921875 
Q 44.09375 48.828125 44.09375 54.296875 
Q 44.09375 59.90625 40.109375 62.90625 
Q 36.140625 65.921875 28.71875 65.921875 
Q 24.65625 65.921875 20.015625 65.03125 
Q 15.375 64.15625 9.8125 62.3125 
L 9.8125 71.09375 
Q 15.4375 72.65625 20.34375 73.4375 
Q 25.25 74.21875 29.59375 74.21875 
Q 40.828125 74.21875 47.359375 69.109375 
Q 53.90625 64.015625 53.90625 55.328125 
Q 53.90625 49.265625 50.4375 45.09375 
Q 46.96875 40.921875 40.578125 39.3125 
z
" id="DejaVuSans-51"/>
      </defs>
      <g transform="translate(26.317187 147.071635)scale(0.1 -0.1)">
       <use xlink:href="#DejaVuSans-8722"/>
       <use x="83.789062" xlink:href="#DejaVuSans-48"/>
       <use x="147.412109" xlink:href="#DejaVuSans-46"/>
       <use x="179.199219" xlink:href="#DejaVuSans-51"/>
      </g>
     </g>
    </g>
    <g id="ytick_5">
     <g id="line2d_11">
      <g>
       <use style="stroke:#000000;stroke-width:0.8;" x="57.6" xlink:href="#mc5cdc93d8d" y="99.183039"/>
      </g>
     </g>
     <g id="text_11">
      <!-- −0.2 -->
      <g transform="translate(26.317187 102.982258)scale(0.1 -0.1)">
       <use xlink:href="#DejaVuSans-8722"/>
       <use x="83.789062" xlink:href="#DejaVuSans-48"/>
       <use x="147.412109" xlink:href="#DejaVuSans-46"/>
       <use x="179.199219" xlink:href="#DejaVuSans-50"/>
      </g>
     </g>
    </g>
    <g id="ytick_6">
     <g id="line2d_12">
      <g>
       <use style="stroke:#000000;stroke-width:0.8;" x="57.6" xlink:href="#mc5cdc93d8d" y="55.093662"/>
      </g>
     </g>
     <g id="text_12">
      <!-- −0.1 -->
      <g transform="translate(26.317187 58.89288)scale(0.1 -0.1)">
       <use xlink:href="#DejaVuSans-8722"/>
       <use x="83.789062" xlink:href="#DejaVuSans-48"/>
       <use x="147.412109" xlink:href="#DejaVuSans-46"/>
       <use x="179.199219" xlink:href="#DejaVuSans-49"/>
      </g>
     </g>
    </g>
   </g>
   <g id="line2d_13">
    <path clip-path="url(#pe814fe7800)" d="M 87.36 68.386808 
L 88.848 69.891843 
L 90.336 72.2617 
L 91.824 75.379105 
L 93.312 79.085723 
L 96.288 87.631943 
L 102.24 106.268384 
L 108.192 124.657692 
L 112.656 137.88465 
L 115.632 146.229577 
L 118.608 153.775138 
L 120.096 157.035078 
L 121.584 159.803219 
L 123.072 161.967008 
L 124.56 163.442914 
L 126.048 164.200602 
L 127.536 164.273025 
L 129.024 163.746339 
L 130.512 162.735738 
L 132 161.359869 
L 133.488 159.723156 
L 136.464 155.974802 
L 140.928 149.807609 
L 154.32 130.804685 
L 155.808 129.097964 
L 157.296 127.699024 
L 158.784 126.71993 
L 160.272 126.269229 
L 161.76 126.427385 
L 163.248 127.223573 
L 164.736 128.625993 
L 166.224 130.551551 
L 167.712 132.88906 
L 170.688 138.354551 
L 185.568 167.657873 
L 193.008 181.250937 
L 203.424 200.12703 
L 209.376 211.442033 
L 213.84 220.448226 
L 218.304 230.048787 
L 222.768 240.268557 
L 228.72 254.067637 
L 230.208 257.180888 
L 231.696 259.945327 
L 233.184 262.217402 
L 234.672 263.858147 
L 236.16 264.764142 
L 237.648 264.896759 
L 239.136 264.294365 
L 240.624 263.060115 
L 242.112 261.332711 
L 243.6 259.255436 
L 246.576 254.530859 
L 252.528 244.759585 
L 255.504 240.187014 
L 258.48 235.896265 
L 261.456 231.880443 
L 264.432 228.135752 
L 267.408 224.694831 
L 270.384 221.658781 
L 271.872 220.344908 
L 273.36 219.198142 
L 274.848 218.235019 
L 276.336 217.459951 
L 277.824 216.862895 
L 279.312 216.421659 
L 282.288 215.89077 
L 285.264 215.650374 
L 291.216 215.517398 
L 303.12 215.572878 
L 307.584 215.729259 
L 312.048 216.13306 
L 315.024 216.596637 
L 319.488 217.539769 
L 325.44 219.056342 
L 332.88 221.179703 
L 338.832 223.064148 
L 344.784 225.167147 
L 349.248 226.928098 
L 353.712 228.884875 
L 358.176 231.078858 
L 362.64 233.556616 
L 367.104 236.360711 
L 371.568 239.493726 
L 377.52 243.86131 
L 380.496 245.690906 
L 381.984 246.354186 
L 383.472 246.77584 
L 384.96 246.914959 
L 384.96 246.914959 
" style="fill:none;stroke:#333333;stroke-linecap:square;stroke-width:1.5;"/>
   </g>
   <g id="line2d_14">
    <path clip-path="url(#pe814fe7800)" d="M 87.36 68.386808 
L 88.848 63.648 
L 90.336 74.659995 
L 91.824 97.463302 
L 94.8 154.090011 
L 96.288 176.147546 
L 97.776 188.806834 
L 99.264 190.930267 
L 100.752 183.506632 
L 102.24 169.10037 
L 105.216 133.02243 
L 106.704 117.790473 
L 108.192 107.438272 
L 109.68 102.895959 
L 111.168 104.052274 
L 112.656 109.964789 
L 114.144 119.158983 
L 117.12 140.722975 
L 118.608 150.163556 
L 120.096 157.374917 
L 121.584 161.928137 
L 123.072 163.830714 
L 124.56 163.442915 
L 126.048 161.363643 
L 127.536 158.30758 
L 129.024 154.991422 
L 130.512 152.041703 
L 132 149.931065 
L 133.488 148.944745 
L 134.976 149.175029 
L 136.464 150.538638 
L 137.952 152.810552 
L 140.928 158.734008 
L 142.416 161.627888 
L 143.904 163.997552 
L 145.392 165.552338 
L 146.88 166.082488 
L 148.368 165.469518 
L 149.856 163.687734 
L 151.344 160.798343 
L 152.832 156.937929 
L 154.32 152.303156 
L 157.296 141.693275 
L 160.272 131.084617 
L 161.76 126.427384 
L 163.248 122.499517 
L 164.736 119.480315 
L 166.224 117.508046 
L 167.712 116.678194 
L 169.2 117.043905 
L 170.688 118.618221 
L 172.176 121.377691 
L 173.664 125.266952 
L 175.152 130.203908 
L 176.64 136.085175 
L 178.128 142.791518 
L 181.104 158.154081 
L 184.08 175.207797 
L 190.032 210.293781 
L 193.008 226.630863 
L 195.984 241.342749 
L 197.472 247.964664 
L 198.96 254.053343 
L 200.448 259.588647 
L 201.936 264.559561 
L 203.424 268.963226 
L 204.912 272.80395 
L 206.4 276.092223 
L 207.888 278.84377 
L 209.376 281.078648 
L 210.864 282.820407 
L 212.352 284.095309 
L 213.84 284.93163 
L 215.328 285.35903 
L 216.816 285.408 
L 218.304 285.109375 
L 219.792 284.493926 
L 221.28 283.592006 
L 222.768 282.433265 
L 224.256 281.046413 
L 225.744 279.459032 
L 228.72 275.786586 
L 231.696 271.609637 
L 236.16 264.764143 
L 246.576 248.307645 
L 251.04 241.769017 
L 254.016 237.723759 
L 256.992 233.968658 
L 259.968 230.525594 
L 262.944 227.407928 
L 265.92 224.621927 
L 268.896 222.168009 
L 271.872 220.041796 
L 274.848 218.235019 
L 277.824 216.736279 
L 280.8 215.531693 
L 283.776 214.605439 
L 286.752 213.940221 
L 289.728 213.517672 
L 292.704 213.318699 
L 295.68 213.323786 
L 298.656 213.513272 
L 301.632 213.867586 
L 306.096 214.666146 
L 310.56 215.729832 
L 315.024 217.000155 
L 320.976 218.924386 
L 329.904 222.094931 
L 353.712 230.935994 
L 361.152 233.866976 
L 367.104 236.438533 
L 371.568 238.585221 
L 376.032 240.993803 
L 380.496 243.741768 
L 383.472 245.804367 
L 384.96 246.914959 
L 384.96 246.914959 
" style="fill:none;stroke:#000000;stroke-linecap:square;stroke-width:1.5;"/>
   </g>
   <g id="line2d_15">
    <path clip-path="url(#pe814fe7800)" d="M 274.848 218.235019 
L 274.848 218.235019 
" style="fill:none;stroke:#ff00ff;stroke-linecap:square;stroke-width:1.5;"/>
    <defs>
     <path d="M 0 3 
C 0.795609 3 1.55874 2.683901 2.12132 2.12132 
C 2.683901 1.55874 3 0.795609 3 0 
C 3 -0.795609 2.683901 -1.55874 2.12132 -2.12132 
C 1.55874 -2.683901 0.795609 -3 0 -3 
C -0.795609 -3 -1.55874 -2.683901 -2.12132 -2.12132 
C -2.683901 -1.55874 -3 -0.795609 -3 0 
C -3 0.795609 -2.683901 1.55874 -2.12132 2.12132 
C -1.55874 2.683901 -0.795609 3 0 3 
z
" id="mc6d85aed87" style="stroke:#ff00ff;"/>
    </defs>
    <g clip-path="url(#pe814fe7800)">
     <use style="fill:#ff00ff;stroke:#ff00ff;" x="274.848" xlink:href="#mc6d85aed87" y="218.235019"/>
     <use style="fill:#ff00ff;stroke:#ff00ff;" x="274.848" xlink:href="#mc6d85aed87" y="218.235019"/>
    </g>
   </g>
   <g id="patch_3">
    <path d="M 57.6 307.584 
L 57.6 41.472 
" style="fill:none;stroke:#000000;stroke-linecap:square;stroke-linejoin:miter;stroke-width:0.8;"/>
   </g>
   <g id="patch_4">
    <path d="M 414.72 307.584 
L 414.72 41.472 
" style="fill:none;stroke:#000000;stroke-linecap:square;stroke-linejoin:miter;stroke-width:0.8;"/>
   </g>
   <g id="patch_5">
    <path d="M 57.6 307.584 
L 414.72 307.584 
" style="fill:none;stroke:#000000;stroke-linecap:square;stroke-linejoin:miter;stroke-width:0.8;"/>
   </g>
   <g id="patch_6">
    <path d="M 57.6 41.472 
L 414.72 41.472 
" style="fill:none;stroke:#000000;stroke-linecap:square;stroke-linejoin:miter;stroke-width:0.8;"/>
   </g>
   <g id="legend_1">
    <g id="patch_7">
     <path d="M 279.791875 108.206375 
L 407.72 108.206375 
Q 409.72 108.206375 409.72 106.206375 
L 409.72 48.472 
Q 409.72 46.472 407.72 46.472 
L 279.791875 46.472 
Q 277.791875 46.472 277.791875 48.472 
L 277.791875 106.206375 
Q 277.791875 108.206375 279.791875 108.206375 
z
" style="fill:#ffffff;opacity:0.8;stroke:#cccccc;stroke-linejoin:miter;"/>
    </g>
    <g id="line2d_16">
     <path d="M 281.791875 54.570438 
L 301.791875 54.570438 
" style="fill:none;stroke:#333333;stroke-linecap:square;stroke-width:1.5;"/>
    </g>
    <g id="line2d_17"/>
    <g id="text_13">
     <!-- GP predicted mean -->
     <defs>
      <path d="M 59.515625 10.40625 
L 59.515625 29.984375 
L 43.40625 29.984375 
L 43.40625 38.09375 
L 69.28125 38.09375 
L 69.28125 6.78125 
Q 63.578125 2.734375 56.6875 0.65625 
Q 49.8125 -1.421875 42 -1.421875 
Q 24.90625 -1.421875 15.25 8.5625 
Q 5.609375 18.5625 5.609375 36.375 
Q 5.609375 54.25 15.25 64.234375 
Q 24.90625 74.21875 42 74.21875 
Q 49.125 74.21875 55.546875 72.453125 
Q 61.96875 70.703125 67.390625 67.28125 
L 67.390625 56.78125 
Q 61.921875 61.421875 55.765625 63.765625 
Q 49.609375 66.109375 42.828125 66.109375 
Q 29.4375 66.109375 22.71875 58.640625 
Q 16.015625 51.171875 16.015625 36.375 
Q 16.015625 21.625 22.71875 14.15625 
Q 29.4375 6.6875 42.828125 6.6875 
Q 48.046875 6.6875 52.140625 7.59375 
Q 56.25 8.5 59.515625 10.40625 
z
" id="DejaVuSans-71"/>
      <path d="M 19.671875 64.796875 
L 19.671875 37.40625 
L 32.078125 37.40625 
Q 38.96875 37.40625 42.71875 40.96875 
Q 46.484375 44.53125 46.484375 51.125 
Q 46.484375 57.671875 42.71875 61.234375 
Q 38.96875 64.796875 32.078125 64.796875 
z
M 9.8125 72.90625 
L 32.078125 72.90625 
Q 44.34375 72.90625 50.609375 67.359375 
Q 56.890625 61.8125 56.890625 51.125 
Q 56.890625 40.328125 50.609375 34.8125 
Q 44.34375 29.296875 32.078125 29.296875 
L 19.671875 29.296875 
L 19.671875 0 
L 9.8125 0 
z
" id="DejaVuSans-80"/>
      <path id="DejaVuSans-32"/>
      <path d="M 18.109375 8.203125 
L 18.109375 -20.796875 
L 9.078125 -20.796875 
L 9.078125 54.6875 
L 18.109375 54.6875 
L 18.109375 46.390625 
Q 20.953125 51.265625 25.265625 53.625 
Q 29.59375 56 35.59375 56 
Q 45.5625 56 51.78125 48.09375 
Q 58.015625 40.1875 58.015625 27.296875 
Q 58.015625 14.40625 51.78125 6.484375 
Q 45.5625 -1.421875 35.59375 -1.421875 
Q 29.59375 -1.421875 25.265625 0.953125 
Q 20.953125 3.328125 18.109375 8.203125 
z
M 48.6875 27.296875 
Q 48.6875 37.203125 44.609375 42.84375 
Q 40.53125 48.484375 33.40625 48.484375 
Q 26.265625 48.484375 22.1875 42.84375 
Q 18.109375 37.203125 18.109375 27.296875 
Q 18.109375 17.390625 22.1875 11.75 
Q 26.265625 6.109375 33.40625 6.109375 
Q 40.53125 6.109375 44.609375 11.75 
Q 48.6875 17.390625 48.6875 27.296875 
z
" id="DejaVuSans-112"/>
      <path d="M 41.109375 46.296875 
Q 39.59375 47.171875 37.8125 47.578125 
Q 36.03125 48 33.890625 48 
Q 26.265625 48 22.1875 43.046875 
Q 18.109375 38.09375 18.109375 28.8125 
L 18.109375 0 
L 9.078125 0 
L 9.078125 54.6875 
L 18.109375 54.6875 
L 18.109375 46.1875 
Q 20.953125 51.171875 25.484375 53.578125 
Q 30.03125 56 36.53125 56 
Q 37.453125 56 38.578125 55.875 
Q 39.703125 55.765625 41.0625 55.515625 
z
" id="DejaVuSans-114"/>
      <path d="M 56.203125 29.59375 
L 56.203125 25.203125 
L 14.890625 25.203125 
Q 15.484375 15.921875 20.484375 11.0625 
Q 25.484375 6.203125 34.421875 6.203125 
Q 39.59375 6.203125 44.453125 7.46875 
Q 49.3125 8.734375 54.109375 11.28125 
L 54.109375 2.78125 
Q 49.265625 0.734375 44.1875 -0.34375 
Q 39.109375 -1.421875 33.890625 -1.421875 
Q 20.796875 -1.421875 13.15625 6.1875 
Q 5.515625 13.8125 5.515625 26.8125 
Q 5.515625 40.234375 12.765625 48.109375 
Q 20.015625 56 32.328125 56 
Q 43.359375 56 49.78125 48.890625 
Q 56.203125 41.796875 56.203125 29.59375 
z
M 47.21875 32.234375 
Q 47.125 39.59375 43.09375 43.984375 
Q 39.0625 48.390625 32.421875 48.390625 
Q 24.90625 48.390625 20.390625 44.140625 
Q 15.875 39.890625 15.1875 32.171875 
z
" id="DejaVuSans-101"/>
      <path d="M 45.40625 46.390625 
L 45.40625 75.984375 
L 54.390625 75.984375 
L 54.390625 0 
L 45.40625 0 
L 45.40625 8.203125 
Q 42.578125 3.328125 38.25 0.953125 
Q 33.9375 -1.421875 27.875 -1.421875 
Q 17.96875 -1.421875 11.734375 6.484375 
Q 5.515625 14.40625 5.515625 27.296875 
Q 5.515625 40.1875 11.734375 48.09375 
Q 17.96875 56 27.875 56 
Q 33.9375 56 38.25 53.625 
Q 42.578125 51.265625 45.40625 46.390625 
z
M 14.796875 27.296875 
Q 14.796875 17.390625 18.875 11.75 
Q 22.953125 6.109375 30.078125 6.109375 
Q 37.203125 6.109375 41.296875 11.75 
Q 45.40625 17.390625 45.40625 27.296875 
Q 45.40625 37.203125 41.296875 42.84375 
Q 37.203125 48.484375 30.078125 48.484375 
Q 22.953125 48.484375 18.875 42.84375 
Q 14.796875 37.203125 14.796875 27.296875 
z
" id="DejaVuSans-100"/>
      <path d="M 9.421875 54.6875 
L 18.40625 54.6875 
L 18.40625 0 
L 9.421875 0 
z
M 9.421875 75.984375 
L 18.40625 75.984375 
L 18.40625 64.59375 
L 9.421875 64.59375 
z
" id="DejaVuSans-105"/>
      <path d="M 48.78125 52.59375 
L 48.78125 44.1875 
Q 44.96875 46.296875 41.140625 47.34375 
Q 37.3125 48.390625 33.40625 48.390625 
Q 24.65625 48.390625 19.8125 42.84375 
Q 14.984375 37.3125 14.984375 27.296875 
Q 14.984375 17.28125 19.8125 11.734375 
Q 24.65625 6.203125 33.40625 6.203125 
Q 37.3125 6.203125 41.140625 7.25 
Q 44.96875 8.296875 48.78125 10.40625 
L 48.78125 2.09375 
Q 45.015625 0.34375 40.984375 -0.53125 
Q 36.96875 -1.421875 32.421875 -1.421875 
Q 20.0625 -1.421875 12.78125 6.34375 
Q 5.515625 14.109375 5.515625 27.296875 
Q 5.515625 40.671875 12.859375 48.328125 
Q 20.21875 56 33.015625 56 
Q 37.15625 56 41.109375 55.140625 
Q 45.0625 54.296875 48.78125 52.59375 
z
" id="DejaVuSans-99"/>
      <path d="M 18.3125 70.21875 
L 18.3125 54.6875 
L 36.8125 54.6875 
L 36.8125 47.703125 
L 18.3125 47.703125 
L 18.3125 18.015625 
Q 18.3125 11.328125 20.140625 9.421875 
Q 21.96875 7.515625 27.59375 7.515625 
L 36.8125 7.515625 
L 36.8125 0 
L 27.59375 0 
Q 17.1875 0 13.234375 3.875 
Q 9.28125 7.765625 9.28125 18.015625 
L 9.28125 47.703125 
L 2.6875 47.703125 
L 2.6875 54.6875 
L 9.28125 54.6875 
L 9.28125 70.21875 
z
" id="DejaVuSans-116"/>
      <path d="M 52 44.1875 
Q 55.375 50.25 60.0625 53.125 
Q 64.75 56 71.09375 56 
Q 79.640625 56 84.28125 50.015625 
Q 88.921875 44.046875 88.921875 33.015625 
L 88.921875 0 
L 79.890625 0 
L 79.890625 32.71875 
Q 79.890625 40.578125 77.09375 44.375 
Q 74.3125 48.1875 68.609375 48.1875 
Q 61.625 48.1875 57.5625 43.546875 
Q 53.515625 38.921875 53.515625 30.90625 
L 53.515625 0 
L 44.484375 0 
L 44.484375 32.71875 
Q 44.484375 40.625 41.703125 44.40625 
Q 38.921875 48.1875 33.109375 48.1875 
Q 26.21875 48.1875 22.15625 43.53125 
Q 18.109375 38.875 18.109375 30.90625 
L 18.109375 0 
L 9.078125 0 
L 9.078125 54.6875 
L 18.109375 54.6875 
L 18.109375 46.1875 
Q 21.1875 51.21875 25.484375 53.609375 
Q 29.78125 56 35.6875 56 
Q 41.65625 56 45.828125 52.96875 
Q 50 49.953125 52 44.1875 
z
" id="DejaVuSans-109"/>
      <path d="M 34.28125 27.484375 
Q 23.390625 27.484375 19.1875 25 
Q 14.984375 22.515625 14.984375 16.5 
Q 14.984375 11.71875 18.140625 8.90625 
Q 21.296875 6.109375 26.703125 6.109375 
Q 34.1875 6.109375 38.703125 11.40625 
Q 43.21875 16.703125 43.21875 25.484375 
L 43.21875 27.484375 
z
M 52.203125 31.203125 
L 52.203125 0 
L 43.21875 0 
L 43.21875 8.296875 
Q 40.140625 3.328125 35.546875 0.953125 
Q 30.953125 -1.421875 24.3125 -1.421875 
Q 15.921875 -1.421875 10.953125 3.296875 
Q 6 8.015625 6 15.921875 
Q 6 25.140625 12.171875 29.828125 
Q 18.359375 34.515625 30.609375 34.515625 
L 43.21875 34.515625 
L 43.21875 35.40625 
Q 43.21875 41.609375 39.140625 45 
Q 35.0625 48.390625 27.6875 48.390625 
Q 23 48.390625 18.546875 47.265625 
Q 14.109375 46.140625 10.015625 43.890625 
L 10.015625 52.203125 
Q 14.9375 54.109375 19.578125 55.046875 
Q 24.21875 56 28.609375 56 
Q 40.484375 56 46.34375 49.84375 
Q 52.203125 43.703125 52.203125 31.203125 
z
" id="DejaVuSans-97"/>
      <path d="M 54.890625 33.015625 
L 54.890625 0 
L 45.90625 0 
L 45.90625 32.71875 
Q 45.90625 40.484375 42.875 44.328125 
Q 39.84375 48.1875 33.796875 48.1875 
Q 26.515625 48.1875 22.3125 43.546875 
Q 18.109375 38.921875 18.109375 30.90625 
L 18.109375 0 
L 9.078125 0 
L 9.078125 54.6875 
L 18.109375 54.6875 
L 18.109375 46.1875 
Q 21.34375 51.125 25.703125 53.5625 
Q 30.078125 56 35.796875 56 
Q 45.21875 56 50.046875 50.171875 
Q 54.890625 44.34375 54.890625 33.015625 
z
" id="DejaVuSans-110"/>
     </defs>
     <g transform="translate(309.791875 58.070438)scale(0.1 -0.1)">
      <use xlink:href="#DejaVuSans-71"/>
      <use x="77.490234" xlink:href="#DejaVuSans-80"/>
      <use x="137.792969" xlink:href="#DejaVuSans-32"/>
      <use x="169.580078" xlink:href="#DejaVuSans-112"/>
      <use x="233.056641" xlink:href="#DejaVuSans-114"/>
      <use x="271.919922" xlink:href="#DejaVuSans-101"/>
      <use x="333.443359" xlink:href="#DejaVuSans-100"/>
      <use x="396.919922" xlink:href="#DejaVuSans-105"/>
      <use x="424.703125" xlink:href="#DejaVuSans-99"/>
      <use x="479.683594" xlink:href="#DejaVuSans-116"/>
      <use x="518.892578" xlink:href="#DejaVuSans-101"/>
      <use x="580.416016" xlink:href="#DejaVuSans-100"/>
      <use x="643.892578" xlink:href="#DejaVuSans-32"/>
      <use x="675.679688" xlink:href="#DejaVuSans-109"/>
      <use x="773.091797" xlink:href="#DejaVuSans-101"/>
      <use x="834.615234" xlink:href="#DejaVuSans-97"/>
      <use x="895.894531" xlink:href="#DejaVuSans-110"/>
     </g>
    </g>
    <g id="line2d_18">
     <path d="M 281.791875 69.248563 
L 301.791875 69.248563 
" style="fill:none;stroke:#000000;stroke-linecap:square;stroke-width:1.5;"/>
    </g>
    <g id="line2d_19"/>
    <g id="text_14">
     <!-- true function -->
     <defs>
      <path d="M 8.5 21.578125 
L 8.5 54.6875 
L 17.484375 54.6875 
L 17.484375 21.921875 
Q 17.484375 14.15625 20.5 10.265625 
Q 23.53125 6.390625 29.59375 6.390625 
Q 36.859375 6.390625 41.078125 11.03125 
Q 45.3125 15.671875 45.3125 23.6875 
L 45.3125 54.6875 
L 54.296875 54.6875 
L 54.296875 0 
L 45.3125 0 
L 45.3125 8.40625 
Q 42.046875 3.421875 37.71875 1 
Q 33.40625 -1.421875 27.6875 -1.421875 
Q 18.265625 -1.421875 13.375 4.4375 
Q 8.5 10.296875 8.5 21.578125 
z
M 31.109375 56 
z
" id="DejaVuSans-117"/>
      <path d="M 37.109375 75.984375 
L 37.109375 68.5 
L 28.515625 68.5 
Q 23.6875 68.5 21.796875 66.546875 
Q 19.921875 64.59375 19.921875 59.515625 
L 19.921875 54.6875 
L 34.71875 54.6875 
L 34.71875 47.703125 
L 19.921875 47.703125 
L 19.921875 0 
L 10.890625 0 
L 10.890625 47.703125 
L 2.296875 47.703125 
L 2.296875 54.6875 
L 10.890625 54.6875 
L 10.890625 58.5 
Q 10.890625 67.625 15.140625 71.796875 
Q 19.390625 75.984375 28.609375 75.984375 
z
" id="DejaVuSans-102"/>
      <path d="M 30.609375 48.390625 
Q 23.390625 48.390625 19.1875 42.75 
Q 14.984375 37.109375 14.984375 27.296875 
Q 14.984375 17.484375 19.15625 11.84375 
Q 23.34375 6.203125 30.609375 6.203125 
Q 37.796875 6.203125 41.984375 11.859375 
Q 46.1875 17.53125 46.1875 27.296875 
Q 46.1875 37.015625 41.984375 42.703125 
Q 37.796875 48.390625 30.609375 48.390625 
z
M 30.609375 56 
Q 42.328125 56 49.015625 48.375 
Q 55.71875 40.765625 55.71875 27.296875 
Q 55.71875 13.875 49.015625 6.21875 
Q 42.328125 -1.421875 30.609375 -1.421875 
Q 18.84375 -1.421875 12.171875 6.21875 
Q 5.515625 13.875 5.515625 27.296875 
Q 5.515625 40.765625 12.171875 48.375 
Q 18.84375 56 30.609375 56 
z
" id="DejaVuSans-111"/>
     </defs>
     <g transform="translate(309.791875 72.748563)scale(0.1 -0.1)">
      <use xlink:href="#DejaVuSans-116"/>
      <use x="39.208984" xlink:href="#DejaVuSans-114"/>
      <use x="80.322266" xlink:href="#DejaVuSans-117"/>
      <use x="143.701172" xlink:href="#DejaVuSans-101"/>
      <use x="205.224609" xlink:href="#DejaVuSans-32"/>
      <use x="237.011719" xlink:href="#DejaVuSans-102"/>
      <use x="272.216797" xlink:href="#DejaVuSans-117"/>
      <use x="335.595703" xlink:href="#DejaVuSans-110"/>
      <use x="398.974609" xlink:href="#DejaVuSans-99"/>
      <use x="453.955078" xlink:href="#DejaVuSans-116"/>
      <use x="493.164062" xlink:href="#DejaVuSans-105"/>
      <use x="520.947266" xlink:href="#DejaVuSans-111"/>
      <use x="582.128906" xlink:href="#DejaVuSans-110"/>
     </g>
    </g>
    <g id="line2d_20">
     <path d="M 281.791875 83.926688 
L 301.791875 83.926688 
" style="fill:none;stroke:#ff00ff;stroke-linecap:square;stroke-width:1.5;"/>
    </g>
    <g id="line2d_21">
     <g>
      <use style="fill:#ff00ff;stroke:#ff00ff;" x="291.791875" xlink:href="#mc6d85aed87" y="83.926688"/>
     </g>
    </g>
    <g id="text_15">
     <!-- new sample -->
     <defs>
      <path d="M 4.203125 54.6875 
L 13.1875 54.6875 
L 24.421875 12.015625 
L 35.59375 54.6875 
L 46.1875 54.6875 
L 57.421875 12.015625 
L 68.609375 54.6875 
L 77.59375 54.6875 
L 63.28125 0 
L 52.6875 0 
L 40.921875 44.828125 
L 29.109375 0 
L 18.5 0 
z
" id="DejaVuSans-119"/>
      <path d="M 44.28125 53.078125 
L 44.28125 44.578125 
Q 40.484375 46.53125 36.375 47.5 
Q 32.28125 48.484375 27.875 48.484375 
Q 21.1875 48.484375 17.84375 46.4375 
Q 14.5 44.390625 14.5 40.28125 
Q 14.5 37.15625 16.890625 35.375 
Q 19.28125 33.59375 26.515625 31.984375 
L 29.59375 31.296875 
Q 39.15625 29.25 43.1875 25.515625 
Q 47.21875 21.78125 47.21875 15.09375 
Q 47.21875 7.46875 41.1875 3.015625 
Q 35.15625 -1.421875 24.609375 -1.421875 
Q 20.21875 -1.421875 15.453125 -0.5625 
Q 10.6875 0.296875 5.421875 2 
L 5.421875 11.28125 
Q 10.40625 8.6875 15.234375 7.390625 
Q 20.0625 6.109375 24.8125 6.109375 
Q 31.15625 6.109375 34.5625 8.28125 
Q 37.984375 10.453125 37.984375 14.40625 
Q 37.984375 18.0625 35.515625 20.015625 
Q 33.0625 21.96875 24.703125 23.78125 
L 21.578125 24.515625 
Q 13.234375 26.265625 9.515625 29.90625 
Q 5.8125 33.546875 5.8125 39.890625 
Q 5.8125 47.609375 11.28125 51.796875 
Q 16.75 56 26.8125 56 
Q 31.78125 56 36.171875 55.265625 
Q 40.578125 54.546875 44.28125 53.078125 
z
" id="DejaVuSans-115"/>
      <path d="M 9.421875 75.984375 
L 18.40625 75.984375 
L 18.40625 0 
L 9.421875 0 
z
" id="DejaVuSans-108"/>
     </defs>
     <g transform="translate(309.791875 87.426688)scale(0.1 -0.1)">
      <use xlink:href="#DejaVuSans-110"/>
      <use x="63.378906" xlink:href="#DejaVuSans-101"/>
      <use x="124.902344" xlink:href="#DejaVuSans-119"/>
      <use x="206.689453" xlink:href="#DejaVuSans-32"/>
      <use x="238.476562" xlink:href="#DejaVuSans-115"/>
      <use x="290.576172" xlink:href="#DejaVuSans-97"/>
      <use x="351.855469" xlink:href="#DejaVuSans-109"/>
      <use x="449.267578" xlink:href="#DejaVuSans-112"/>
      <use x="512.744141" xlink:href="#DejaVuSans-108"/>
      <use x="540.527344" xlink:href="#DejaVuSans-101"/>
     </g>
    </g>
    <g id="patch_8">
     <path d="M 281.791875 102.106375 
L 301.791875 102.106375 
L 301.791875 95.106375 
L 281.791875 95.106375 
z
" style="fill:#347aeb;opacity:0.6;"/>
    </g>
    <g id="text_16">
     <!-- GP predicted 2$\sigma$ -->
     <defs>
      <path d="M 34.671875 47.5625 
Q 27.25 47.5625 22.21875 42.1875 
Q 16.890625 36.578125 15.140625 27.296875 
Q 13.1875 17.484375 16.3125 11.8125 
Q 19.390625 6.203125 26.65625 6.203125 
Q 33.84375 6.203125 39.109375 11.859375 
Q 44.4375 17.53125 46.34375 27.296875 
Q 48.046875 36.234375 45.015625 42.1875 
Q 42.1875 47.5625 34.671875 47.5625 
z
M 36.078125 54.734375 
L 65.921875 54.6875 
L 64.15625 45.703125 
L 54.109375 45.703125 
Q 57.90625 38.09375 55.859375 27.296875 
Q 53.21875 13.875 45.0625 6.25 
Q 36.859375 -1.421875 25.140625 -1.421875 
Q 13.375 -1.421875 8.203125 6.25 
Q 3.03125 13.875 5.671875 27.296875 
Q 8.25 40.765625 16.40625 48.390625 
Q 23.1875 54.734375 36.078125 54.734375 
z
" id="DejaVuSans-Oblique-963"/>
     </defs>
     <g transform="translate(309.791875 102.106375)scale(0.1 -0.1)">
      <use transform="translate(0 0.015625)" xlink:href="#DejaVuSans-71"/>
      <use transform="translate(77.490234 0.015625)" xlink:href="#DejaVuSans-80"/>
      <use transform="translate(137.792969 0.015625)" xlink:href="#DejaVuSans-32"/>
      <use transform="translate(169.580078 0.015625)" xlink:href="#DejaVuSans-112"/>
      <use transform="translate(233.056641 0.015625)" xlink:href="#DejaVuSans-114"/>
      <use transform="translate(274.169922 0.015625)" xlink:href="#DejaVuSans-101"/>
      <use transform="translate(335.693359 0.015625)" xlink:href="#DejaVuSans-100"/>
      <use transform="translate(399.169922 0.015625)" xlink:href="#DejaVuSans-105"/>
      <use transform="translate(426.953125 0.015625)" xlink:href="#DejaVuSans-99"/>
      <use transform="translate(481.933594 0.015625)" xlink:href="#DejaVuSans-116"/>
      <use transform="translate(521.142578 0.015625)" xlink:href="#DejaVuSans-101"/>
      <use transform="translate(582.666016 0.015625)" xlink:href="#DejaVuSans-100"/>
      <use transform="translate(646.142578 0.015625)" xlink:href="#DejaVuSans-32"/>
      <use transform="translate(677.929688 0.015625)" xlink:href="#DejaVuSans-50"/>
      <use transform="translate(741.552734 0.015625)" xlink:href="#DejaVuSans-Oblique-963"/>
     </g>
    </g>
   </g>
  </g>
 </g>
 <defs>
  <clipPath id="pe814fe7800">
   <rect height="266.112" width="357.12" x="57.6" y="41.472"/>
  </clipPath>
 </defs>
</svg>
