<?xml version="1.0" encoding="utf-8" standalone="no"?>
<!DOCTYPE svg PUBLIC "-//W3C//DTD SVG 1.1//EN"
  "http://www.w3.org/Graphics/SVG/1.1/DTD/svg11.dtd">
<!-- Created with matplotlib (https://matplotlib.org/) -->
<svg height="432pt" version="1.1" viewBox="0 0 576 432" width="576pt" xmlns="http://www.w3.org/2000/svg" xmlns:xlink="http://www.w3.org/1999/xlink">
 <defs>
  <style type="text/css">
*{stroke-linecap:butt;stroke-linejoin:round;}
  </style>
 </defs>
 <g id="figure_1">
  <g id="patch_1">
   <path d="M 0 432 
L 576 432 
L 576 0 
L 0 0 
z
" style="fill:#ffffff;"/>
  </g>
  <g id="axes_1">
   <g id="patch_2">
    <path d="M 72 384.48 
L 518.4 384.48 
L 518.4 51.84 
L 72 51.84 
z
" style="fill:#ffffff;"/>
   </g>
   <g id="PolyCollection_1">
    <path clip-path="url(#p502b6d258f)" d="M 72 144.44535 
L 72 142.265068 
L 80.928 138.591746 
L 89.856 134.965024 
L 98.784 132.22865 
L 107.712 129.82005 
L 116.64 128.040684 
L 125.568 128.33641 
L 134.496 126.357804 
L 143.424 127.620447 
L 152.352 125.479728 
L 161.28 127.462554 
L 170.208 127.086772 
L 179.136 127.004685 
L 188.064 127.237115 
L 196.992 123.503168 
L 205.92 125.172356 
L 214.848 126.037602 
L 223.776 125.795835 
L 232.704 126.230112 
L 241.632 125.098305 
L 250.56 124.985731 
L 259.488 124.39397 
L 268.416 121.876986 
L 277.344 122.945223 
L 286.272 124.668238 
L 295.2 124.720981 
L 304.128 123.782055 
L 313.056 123.69208 
L 321.984 121.5896 
L 330.912 120.379561 
L 339.84 120.014797 
L 348.768 121.848709 
L 357.696 120.811036 
L 366.624 120.963466 
L 375.552 121.798547 
L 384.48 121.057959 
L 393.408 120.23813 
L 402.336 120.51605 
L 411.264 116.978735 
L 420.192 121.145614 
L 429.12 120.691145 
L 438.048 119.486704 
L 446.976 118.912363 
L 455.904 120.396865 
L 464.832 117.718494 
L 473.76 116.620578 
L 482.688 120.501273 
L 491.616 118.63649 
L 500.544 121.720196 
L 509.472 119.863974 
L 518.4 116.209765 
L 518.4 128.604336 
L 518.4 128.604336 
L 509.472 130.047124 
L 500.544 128.744021 
L 491.616 131.506045 
L 482.688 129.879215 
L 473.76 129.974723 
L 464.832 131.510694 
L 455.904 132.427021 
L 446.976 129.817377 
L 438.048 130.896513 
L 429.12 129.608542 
L 420.192 132.207012 
L 411.264 130.561255 
L 402.336 130.94359 
L 393.408 129.94453 
L 384.48 131.555195 
L 375.552 128.75804 
L 366.624 129.579164 
L 357.696 131.150458 
L 348.768 132.246323 
L 339.84 129.689324 
L 330.912 130.67529 
L 321.984 131.114304 
L 313.056 132.909562 
L 304.128 131.641056 
L 295.2 131.854908 
L 286.272 133.473144 
L 277.344 136.285506 
L 268.416 133.9714 
L 259.488 134.57076 
L 250.56 133.490307 
L 241.632 132.982336 
L 232.704 135.536152 
L 223.776 134.510727 
L 214.848 133.887448 
L 205.92 139.018755 
L 196.992 137.736395 
L 188.064 138.857866 
L 179.136 137.454868 
L 170.208 135.71504 
L 161.28 135.492516 
L 152.352 137.152379 
L 143.424 135.383482 
L 134.496 137.995082 
L 125.568 134.425907 
L 116.64 134.140216 
L 107.712 136.60704 
L 98.784 136.109907 
L 89.856 139.170613 
L 80.928 142.140182 
L 72 144.44535 
z
" style="fill:#1f77b4;fill-opacity:0.3;"/>
   </g>
   <g id="PolyCollection_2">
    <path clip-path="url(#p502b6d258f)" d="M 72 134.288122 
L 72 109.372412 
L 80.928 115.605587 
L 89.856 115.606311 
L 98.784 115.607014 
L 107.712 115.607712 
L 116.64 115.608423 
L 125.568 115.609166 
L 134.496 115.609957 
L 143.424 115.610817 
L 152.352 115.611764 
L 161.28 115.612821 
L 170.208 115.614008 
L 179.136 115.61535 
L 188.064 115.616871 
L 196.992 115.618596 
L 205.92 115.620551 
L 214.848 115.622759 
L 223.776 115.625246 
L 232.704 115.628035 
L 241.632 115.631146 
L 250.56 115.634598 
L 259.488 115.638407 
L 268.416 115.642585 
L 277.344 115.647141 
L 286.272 115.652078 
L 295.2 115.657396 
L 304.128 115.663091 
L 313.056 115.669154 
L 321.984 115.675571 
L 330.912 115.682324 
L 339.84 115.68939 
L 348.768 115.696745 
L 357.696 115.70436 
L 366.624 115.712203 
L 375.552 115.72024 
L 384.48 115.728435 
L 393.408 115.73675 
L 402.336 115.745149 
L 411.264 115.753591 
L 420.192 115.76204 
L 429.12 115.770456 
L 438.048 115.778805 
L 446.976 115.787052 
L 455.904 115.795164 
L 464.832 115.803111 
L 473.76 115.810867 
L 482.688 115.818409 
L 491.616 115.825716 
L 500.544 115.832773 
L 509.472 115.839565 
L 518.4 115.846084 
L 518.4 115.851114 
L 518.4 115.851114 
L 509.472 115.844425 
L 500.544 115.837471 
L 491.616 115.830266 
L 482.688 115.822823 
L 473.76 115.815161 
L 464.832 115.807299 
L 455.904 115.799263 
L 446.976 115.791079 
L 438.048 115.782778 
L 429.12 115.774391 
L 420.192 115.765953 
L 411.264 115.757502 
L 402.336 115.749074 
L 393.408 115.74071 
L 384.48 115.732448 
L 375.552 115.724327 
L 366.624 115.716385 
L 357.696 115.70866 
L 348.768 115.701185 
L 339.84 115.693992 
L 330.912 115.687108 
L 321.984 115.680558 
L 313.056 115.674361 
L 304.128 115.668532 
L 295.2 115.663083 
L 286.272 115.658018 
L 277.344 115.653338 
L 268.416 115.649041 
L 259.488 115.645119 
L 250.56 115.641559 
L 241.632 115.638347 
L 232.704 115.635464 
L 223.776 115.63289 
L 214.848 115.630602 
L 205.92 115.628576 
L 196.992 115.626786 
L 188.064 115.625208 
L 179.136 115.623815 
L 170.208 115.622584 
L 161.28 115.621491 
L 152.352 115.620512 
L 143.424 115.619627 
L 134.496 115.618815 
L 125.568 115.618057 
L 116.64 115.617335 
L 107.712 115.61663 
L 98.784 115.615926 
L 89.856 115.615204 
L 80.928 115.614446 
L 72 134.288122 
z
" style="fill:#ff7f0e;fill-opacity:0.3;"/>
   </g>
   <g id="PolyCollection_3">
    <path clip-path="url(#p502b6d258f)" d="M 72 154.9617 
L 72 149.942692 
L 80.928 149.974359 
L 89.856 151.61618 
L 98.784 154.456319 
L 107.712 156.77969 
L 116.64 160.149535 
L 125.568 162.549501 
L 134.496 162.936399 
L 143.424 163.583272 
L 152.352 164.215043 
L 161.28 164.757145 
L 170.208 165.547418 
L 179.136 166.128563 
L 188.064 166.68898 
L 196.992 166.5202 
L 205.92 166.374995 
L 214.848 165.908243 
L 223.776 166.71626 
L 232.704 168.024396 
L 241.632 169.891679 
L 250.56 170.589421 
L 259.488 171.688594 
L 268.416 174.046811 
L 277.344 175.248046 
L 286.272 178.227158 
L 295.2 180.155803 
L 304.128 181.458206 
L 313.056 182.882206 
L 321.984 183.889564 
L 330.912 185.013876 
L 339.84 186.434213 
L 348.768 186.564899 
L 357.696 186.749831 
L 366.624 186.8153 
L 375.552 186.958917 
L 384.48 186.905852 
L 393.408 187.008747 
L 402.336 187.047825 
L 411.264 187.302699 
L 420.192 187.5581 
L 429.12 188.395991 
L 438.048 189.114499 
L 446.976 189.460512 
L 455.904 189.926121 
L 464.832 190.189361 
L 473.76 190.832937 
L 482.688 191.445194 
L 491.616 192.417428 
L 500.544 192.958981 
L 509.472 194.241406 
L 518.4 195.355357 
L 518.4 209.92962 
L 518.4 209.92962 
L 509.472 209.28211 
L 500.544 206.64229 
L 491.616 205.565345 
L 482.688 204.380743 
L 473.76 203.267893 
L 464.832 201.303997 
L 455.904 200.734343 
L 446.976 199.778553 
L 438.048 198.60039 
L 429.12 197.81039 
L 420.192 197.293962 
L 411.264 197.064925 
L 402.336 196.828387 
L 393.408 195.918497 
L 384.48 194.855028 
L 375.552 194.110974 
L 366.624 193.260272 
L 357.696 192.696924 
L 348.768 192.198769 
L 339.84 191.639731 
L 330.912 191.777115 
L 321.984 191.620297 
L 313.056 191.564934 
L 304.128 191.894126 
L 295.2 191.932255 
L 286.272 191.585414 
L 277.344 190.909113 
L 268.416 189.971946 
L 259.488 188.309053 
L 250.56 187.04066 
L 241.632 186.290186 
L 232.704 184.560323 
L 223.776 183.204688 
L 214.848 179.158662 
L 205.92 175.220733 
L 196.992 172.945511 
L 188.064 169.997832 
L 179.136 169.555819 
L 170.208 169.340944 
L 161.28 168.461868 
L 152.352 167.356391 
L 143.424 166.556303 
L 134.496 165.712265 
L 125.568 164.828476 
L 116.64 164.601045 
L 107.712 163.753866 
L 98.784 156.977653 
L 89.856 154.345147 
L 80.928 153.447733 
L 72 154.9617 
z
" style="fill:#2ca02c;fill-opacity:0.3;"/>
   </g>
   <g id="PolyCollection_4">
    <path clip-path="url(#p502b6d258f)" d="M 72 154.613747 
L 72 139.845617 
L 80.928 142.077122 
L 89.856 142.298284 
L 98.784 142.741136 
L 107.712 145.710048 
L 116.64 147.66476 
L 125.568 146.475265 
L 134.496 147.227045 
L 143.424 147.953669 
L 152.352 148.74467 
L 161.28 146.753172 
L 170.208 131.342037 
L 179.136 128.29028 
L 188.064 119.010141 
L 196.992 113.577422 
L 205.92 109.097263 
L 214.848 109.096257 
L 223.776 106.906871 
L 232.704 105.748894 
L 241.632 105.734214 
L 250.56 105.708639 
L 259.488 105.693067 
L 268.416 105.672525 
L 277.344 105.137902 
L 286.272 105.681592 
L 295.2 105.612701 
L 304.128 115.714297 
L 313.056 115.716976 
L 321.984 115.719937 
L 330.912 115.723197 
L 339.84 115.726773 
L 348.768 115.73068 
L 357.696 115.734929 
L 366.624 115.739532 
L 375.552 115.744494 
L 384.48 115.74982 
L 393.408 115.755509 
L 402.336 115.761557 
L 411.264 115.767957 
L 420.192 115.774694 
L 429.12 115.781752 
L 438.048 115.789109 
L 446.976 115.79674 
L 455.904 115.804614 
L 464.832 115.812698 
L 473.76 115.820957 
L 482.688 115.829347 
L 491.616 115.837828 
L 500.544 115.846358 
L 509.472 115.854886 
L 518.4 115.863369 
L 518.4 115.903895 
L 518.4 115.903895 
L 509.472 115.897205 
L 500.544 115.890864 
L 491.616 115.884906 
L 482.688 115.879312 
L 473.76 115.874085 
L 464.832 115.869219 
L 455.904 115.86472 
L 446.976 115.860571 
L 438.048 115.856762 
L 429.12 115.853285 
L 420.192 115.850125 
L 411.264 115.847268 
L 402.336 115.844698 
L 393.408 115.842397 
L 384.48 115.840347 
L 375.552 115.838527 
L 366.624 115.836918 
L 357.696 115.835497 
L 348.768 115.834242 
L 339.84 115.833133 
L 330.912 115.832146 
L 321.984 115.83126 
L 313.056 115.83045 
L 304.128 115.829696 
L 295.2 132.777921 
L 286.272 132.65802 
L 277.344 153.54091 
L 268.416 155.092056 
L 259.488 155.006257 
L 250.56 154.940432 
L 241.632 154.835551 
L 232.704 154.773305 
L 223.776 157.984824 
L 214.848 161.96429 
L 205.92 161.980676 
L 196.992 167.363946 
L 188.064 172.0051 
L 179.136 176.811751 
L 170.208 177.63113 
L 161.28 178.31657 
L 152.352 176.920978 
L 143.424 175.327055 
L 134.496 173.943996 
L 125.568 172.582663 
L 116.64 170.438291 
L 107.712 167.652385 
L 98.784 161.780217 
L 89.856 160.53434 
L 80.928 157.802753 
L 72 154.613747 
z
" style="fill:#d62728;fill-opacity:0.3;"/>
   </g>
   <g id="PolyCollection_5">
    <path clip-path="url(#p502b6d258f)" d="M 72 152.452753 
L 72 135.918782 
L 80.928 130.499931 
L 89.856 122.516308 
L 98.784 114.808945 
L 107.712 108.318354 
L 116.64 106.821153 
L 125.568 108.884208 
L 134.496 110.378926 
L 143.424 115.623167 
L 152.352 115.623969 
L 161.28 115.624845 
L 170.208 115.625814 
L 179.136 115.626898 
L 188.064 115.628118 
L 196.992 115.629497 
L 205.92 115.631062 
L 214.848 115.632835 
L 223.776 115.634842 
L 232.704 115.637107 
L 241.632 115.639655 
L 250.56 115.642508 
L 259.488 115.645685 
L 268.416 115.649205 
L 277.344 115.653081 
L 286.272 115.657326 
L 295.2 115.661945 
L 304.128 115.666942 
L 313.056 115.672315 
L 321.984 115.678058 
L 330.912 115.68416 
L 339.84 115.690607 
L 348.768 115.697379 
L 357.696 115.704454 
L 366.624 115.711808 
L 375.552 115.719411 
L 384.48 115.727236 
L 393.408 115.735251 
L 402.336 115.743424 
L 411.264 115.751722 
L 420.192 115.760111 
L 429.12 115.768555 
L 438.048 115.77702 
L 446.976 115.785467 
L 455.904 115.79386 
L 464.832 115.802161 
L 473.76 115.810334 
L 482.688 115.818344 
L 491.616 115.826162 
L 500.544 115.83376 
L 509.472 115.841114 
L 518.4 115.848206 
L 518.4 115.861898 
L 518.4 115.861898 
L 509.472 115.85419 
L 500.544 115.846305 
L 491.616 115.838265 
L 482.688 115.830095 
L 473.76 115.821824 
L 464.832 115.813478 
L 455.904 115.805088 
L 446.976 115.796687 
L 438.048 115.78831 
L 429.12 115.779993 
L 420.192 115.771775 
L 411.264 115.763697 
L 402.336 115.755798 
L 393.408 115.748118 
L 384.48 115.740694 
L 375.552 115.733561 
L 366.624 115.726747 
L 357.696 115.720279 
L 348.768 115.714175 
L 339.84 115.70845 
L 330.912 115.703114 
L 321.984 115.698171 
L 313.056 115.693618 
L 304.128 115.68945 
L 295.2 115.685657 
L 286.272 115.682226 
L 277.344 115.679139 
L 268.416 115.676375 
L 259.488 115.673913 
L 250.56 115.671729 
L 241.632 115.669798 
L 232.704 115.668093 
L 223.776 115.66659 
L 214.848 115.665263 
L 205.92 115.664087 
L 196.992 115.66304 
L 188.064 115.662097 
L 179.136 115.661238 
L 170.208 115.660444 
L 161.28 115.659694 
L 152.352 115.65897 
L 143.424 115.658254 
L 134.496 122.652135 
L 125.568 125.854205 
L 116.64 134.762255 
L 107.712 144.069927 
L 98.784 153.074964 
L 89.856 157.949195 
L 80.928 158.128307 
L 72 152.452753 
z
" style="fill:#9467bd;fill-opacity:0.3;"/>
   </g>
   <g id="PolyCollection_6">
    <path clip-path="url(#p502b6d258f)" d="M 72 154.765737 
L 72 146.436366 
L 80.928 148.446705 
L 89.856 151.407676 
L 98.784 154.514155 
L 107.712 157.434153 
L 116.64 160.059898 
L 125.568 162.642886 
L 134.496 163.724114 
L 143.424 164.177258 
L 152.352 164.538501 
L 161.28 165.15763 
L 170.208 165.415643 
L 179.136 166.989993 
L 188.064 167.477148 
L 196.992 168.244217 
L 205.92 169.981045 
L 214.848 172.013235 
L 223.776 172.602733 
L 232.704 173.435663 
L 241.632 174.813077 
L 250.56 175.378428 
L 259.488 177.170148 
L 268.416 178.006784 
L 277.344 179.411144 
L 286.272 180.262653 
L 295.2 182.235655 
L 304.128 182.464471 
L 313.056 185.148009 
L 321.984 186.320191 
L 330.912 188.397984 
L 339.84 189.846008 
L 348.768 188.98314 
L 357.696 188.505214 
L 366.624 188.119985 
L 375.552 190.360041 
L 384.48 193.04623 
L 393.408 196.944666 
L 402.336 197.345804 
L 411.264 198.906248 
L 420.192 199.163549 
L 429.12 199.72882 
L 438.048 201.789747 
L 446.976 202.959944 
L 455.904 203.88055 
L 464.832 205.35241 
L 473.76 207.941985 
L 482.688 208.511578 
L 491.616 210.151831 
L 500.544 214.75085 
L 509.472 217.865138 
L 518.4 220.343057 
L 518.4 244.997841 
L 518.4 244.997841 
L 509.472 243.777209 
L 500.544 240.961407 
L 491.616 236.181526 
L 482.688 233.885901 
L 473.76 231.805757 
L 464.832 228.562501 
L 455.904 226.328961 
L 446.976 223.556514 
L 438.048 222.483108 
L 429.12 221.220338 
L 420.192 220.76025 
L 411.264 220.433445 
L 402.336 218.64577 
L 393.408 217.280177 
L 384.48 211.84743 
L 375.552 209.573617 
L 366.624 202.561029 
L 357.696 202.048351 
L 348.768 200.01063 
L 339.84 198.411918 
L 330.912 198.12896 
L 321.984 198.180034 
L 313.056 197.877658 
L 304.128 196.531513 
L 295.2 196.376045 
L 286.272 195.223514 
L 277.344 193.177184 
L 268.416 191.958062 
L 259.488 190.140334 
L 250.56 187.459193 
L 241.632 184.645844 
L 232.704 183.038895 
L 223.776 181.921637 
L 214.848 179.863172 
L 205.92 177.647761 
L 196.992 174.52896 
L 188.064 172.82262 
L 179.136 171.510095 
L 170.208 170.552359 
L 161.28 169.486484 
L 152.352 168.897822 
L 143.424 167.562861 
L 134.496 166.862444 
L 125.568 164.991604 
L 116.64 164.1848 
L 107.712 163.068403 
L 98.784 158.109143 
L 89.856 154.286342 
L 80.928 153.182776 
L 72 154.765737 
z
" style="fill:#8c564b;fill-opacity:0.3;"/>
   </g>
   <g id="PolyCollection_7">
    <path clip-path="url(#p502b6d258f)" d="M 72 147.430313 
L 72 145.366699 
L 80.928 145.156551 
L 89.856 144.979022 
L 98.784 144.66441 
L 107.712 144.490142 
L 116.64 144.217163 
L 125.568 144.179859 
L 134.496 143.858894 
L 143.424 143.794838 
L 152.352 143.809793 
L 161.28 143.708774 
L 170.208 143.669656 
L 179.136 143.703393 
L 188.064 143.652304 
L 196.992 143.524581 
L 205.92 143.329653 
L 214.848 143.331901 
L 223.776 143.244549 
L 232.704 143.224781 
L 241.632 143.394337 
L 250.56 143.515833 
L 259.488 143.534022 
L 268.416 143.44457 
L 277.344 143.381625 
L 286.272 143.279928 
L 295.2 143.213068 
L 304.128 143.249479 
L 313.056 143.116775 
L 321.984 143.122074 
L 330.912 143.156274 
L 339.84 143.156872 
L 348.768 143.103953 
L 357.696 143.173954 
L 366.624 143.065547 
L 375.552 142.968357 
L 384.48 142.949681 
L 393.408 142.959744 
L 402.336 142.910417 
L 411.264 142.786826 
L 420.192 142.848918 
L 429.12 142.792782 
L 438.048 142.817173 
L 446.976 142.851194 
L 455.904 142.916711 
L 464.832 142.924508 
L 473.76 142.900281 
L 482.688 142.853874 
L 491.616 142.859841 
L 500.544 142.866183 
L 509.472 142.807801 
L 518.4 142.908642 
L 518.4 146.301338 
L 518.4 146.301338 
L 509.472 146.319098 
L 500.544 146.308319 
L 491.616 146.169672 
L 482.688 146.216891 
L 473.76 146.170513 
L 464.832 146.21366 
L 455.904 146.193461 
L 446.976 146.276138 
L 438.048 146.398592 
L 429.12 146.502393 
L 420.192 146.507924 
L 411.264 146.581121 
L 402.336 146.667821 
L 393.408 146.754911 
L 384.48 146.791203 
L 375.552 146.788774 
L 366.624 147.022057 
L 357.696 147.006877 
L 348.768 147.032607 
L 339.84 147.084165 
L 330.912 147.128162 
L 321.984 147.085591 
L 313.056 147.150966 
L 304.128 147.23044 
L 295.2 147.332876 
L 286.272 147.380913 
L 277.344 147.615503 
L 268.416 147.646076 
L 259.488 147.691941 
L 250.56 147.683551 
L 241.632 147.716516 
L 232.704 147.660998 
L 223.776 147.632771 
L 214.848 147.59249 
L 205.92 147.631109 
L 196.992 147.716145 
L 188.064 147.760724 
L 179.136 147.745462 
L 170.208 147.730721 
L 161.28 147.787583 
L 152.352 147.850263 
L 143.424 147.843548 
L 134.496 147.754924 
L 125.568 147.850742 
L 116.64 147.827168 
L 107.712 147.950144 
L 98.784 147.995031 
L 89.856 148.074123 
L 80.928 147.913707 
L 72 147.430313 
z
" style="fill:#e377c2;fill-opacity:0.3;"/>
   </g>
   <g id="matplotlib.axis_1">
    <g id="xtick_1">
     <g id="line2d_1">
      <path clip-path="url(#p502b6d258f)" d="M 72 384.48 
L 72 51.84 
" style="fill:none;stroke:#b0b0b0;stroke-linecap:square;stroke-width:0.8;"/>
     </g>
     <g id="line2d_2">
      <defs>
       <path d="M 0 0 
L 0 3.5 
" id="m3f97fd302b" style="stroke:#000000;stroke-width:0.8;"/>
      </defs>
      <g>
       <use style="stroke:#000000;stroke-width:0.8;" x="72" xlink:href="#m3f97fd302b" y="384.48"/>
      </g>
     </g>
     <g id="text_1">
      <!-- 0 -->
      <defs>
       <path d="M 31.78125 66.40625 
Q 24.171875 66.40625 20.328125 58.90625 
Q 16.5 51.421875 16.5 36.375 
Q 16.5 21.390625 20.328125 13.890625 
Q 24.171875 6.390625 31.78125 6.390625 
Q 39.453125 6.390625 43.28125 13.890625 
Q 47.125 21.390625 47.125 36.375 
Q 47.125 51.421875 43.28125 58.90625 
Q 39.453125 66.40625 31.78125 66.40625 
z
M 31.78125 74.21875 
Q 44.046875 74.21875 50.515625 64.515625 
Q 56.984375 54.828125 56.984375 36.375 
Q 56.984375 17.96875 50.515625 8.265625 
Q 44.046875 -1.421875 31.78125 -1.421875 
Q 19.53125 -1.421875 13.0625 8.265625 
Q 6.59375 17.96875 6.59375 36.375 
Q 6.59375 54.828125 13.0625 64.515625 
Q 19.53125 74.21875 31.78125 74.21875 
z
" id="DejaVuSans-48"/>
      </defs>
      <g transform="translate(68.81875 399.078438)scale(0.1 -0.1)">
       <use xlink:href="#DejaVuSans-48"/>
      </g>
     </g>
    </g>
    <g id="xtick_2">
     <g id="line2d_3">
      <path clip-path="url(#p502b6d258f)" d="M 161.28 384.48 
L 161.28 51.84 
" style="fill:none;stroke:#b0b0b0;stroke-linecap:square;stroke-width:0.8;"/>
     </g>
     <g id="line2d_4">
      <g>
       <use style="stroke:#000000;stroke-width:0.8;" x="161.28" xlink:href="#m3f97fd302b" y="384.48"/>
      </g>
     </g>
     <g id="text_2">
      <!-- 10 -->
      <defs>
       <path d="M 12.40625 8.296875 
L 28.515625 8.296875 
L 28.515625 63.921875 
L 10.984375 60.40625 
L 10.984375 69.390625 
L 28.421875 72.90625 
L 38.28125 72.90625 
L 38.28125 8.296875 
L 54.390625 8.296875 
L 54.390625 0 
L 12.40625 0 
z
" id="DejaVuSans-49"/>
      </defs>
      <g transform="translate(154.9175 399.078438)scale(0.1 -0.1)">
       <use xlink:href="#DejaVuSans-49"/>
       <use x="63.623047" xlink:href="#DejaVuSans-48"/>
      </g>
     </g>
    </g>
    <g id="xtick_3">
     <g id="line2d_5">
      <path clip-path="url(#p502b6d258f)" d="M 250.56 384.48 
L 250.56 51.84 
" style="fill:none;stroke:#b0b0b0;stroke-linecap:square;stroke-width:0.8;"/>
     </g>
     <g id="line2d_6">
      <g>
       <use style="stroke:#000000;stroke-width:0.8;" x="250.56" xlink:href="#m3f97fd302b" y="384.48"/>
      </g>
     </g>
     <g id="text_3">
      <!-- 20 -->
      <defs>
       <path d="M 19.1875 8.296875 
L 53.609375 8.296875 
L 53.609375 0 
L 7.328125 0 
L 7.328125 8.296875 
Q 12.9375 14.109375 22.625 23.890625 
Q 32.328125 33.6875 34.8125 36.53125 
Q 39.546875 41.84375 41.421875 45.53125 
Q 43.3125 49.21875 43.3125 52.78125 
Q 43.3125 58.59375 39.234375 62.25 
Q 35.15625 65.921875 28.609375 65.921875 
Q 23.96875 65.921875 18.8125 64.3125 
Q 13.671875 62.703125 7.8125 59.421875 
L 7.8125 69.390625 
Q 13.765625 71.78125 18.9375 73 
Q 24.125 74.21875 28.421875 74.21875 
Q 39.75 74.21875 46.484375 68.546875 
Q 53.21875 62.890625 53.21875 53.421875 
Q 53.21875 48.921875 51.53125 44.890625 
Q 49.859375 40.875 45.40625 35.40625 
Q 44.1875 33.984375 37.640625 27.21875 
Q 31.109375 20.453125 19.1875 8.296875 
z
" id="DejaVuSans-50"/>
      </defs>
      <g transform="translate(244.1975 399.078438)scale(0.1 -0.1)">
       <use xlink:href="#DejaVuSans-50"/>
       <use x="63.623047" xlink:href="#DejaVuSans-48"/>
      </g>
     </g>
    </g>
    <g id="xtick_4">
     <g id="line2d_7">
      <path clip-path="url(#p502b6d258f)" d="M 339.84 384.48 
L 339.84 51.84 
" style="fill:none;stroke:#b0b0b0;stroke-linecap:square;stroke-width:0.8;"/>
     </g>
     <g id="line2d_8">
      <g>
       <use style="stroke:#000000;stroke-width:0.8;" x="339.84" xlink:href="#m3f97fd302b" y="384.48"/>
      </g>
     </g>
     <g id="text_4">
      <!-- 30 -->
      <defs>
       <path d="M 40.578125 39.3125 
Q 47.65625 37.796875 51.625 33 
Q 55.609375 28.21875 55.609375 21.1875 
Q 55.609375 10.40625 48.1875 4.484375 
Q 40.765625 -1.421875 27.09375 -1.421875 
Q 22.515625 -1.421875 17.65625 -0.515625 
Q 12.796875 0.390625 7.625 2.203125 
L 7.625 11.71875 
Q 11.71875 9.328125 16.59375 8.109375 
Q 21.484375 6.890625 26.8125 6.890625 
Q 36.078125 6.890625 40.9375 10.546875 
Q 45.796875 14.203125 45.796875 21.1875 
Q 45.796875 27.640625 41.28125 31.265625 
Q 36.765625 34.90625 28.71875 34.90625 
L 20.21875 34.90625 
L 20.21875 43.015625 
L 29.109375 43.015625 
Q 36.375 43.015625 40.234375 45.921875 
Q 44.09375 48.828125 44.09375 54.296875 
Q 44.09375 59.90625 40.109375 62.90625 
Q 36.140625 65.921875 28.71875 65.921875 
Q 24.65625 65.921875 20.015625 65.03125 
Q 15.375 64.15625 9.8125 62.3125 
L 9.8125 71.09375 
Q 15.4375 72.65625 20.34375 73.4375 
Q 25.25 74.21875 29.59375 74.21875 
Q 40.828125 74.21875 47.359375 69.109375 
Q 53.90625 64.015625 53.90625 55.328125 
Q 53.90625 49.265625 50.4375 45.09375 
Q 46.96875 40.921875 40.578125 39.3125 
z
" id="DejaVuSans-51"/>
      </defs>
      <g transform="translate(333.4775 399.078438)scale(0.1 -0.1)">
       <use xlink:href="#DejaVuSans-51"/>
       <use x="63.623047" xlink:href="#DejaVuSans-48"/>
      </g>
     </g>
    </g>
    <g id="xtick_5">
     <g id="line2d_9">
      <path clip-path="url(#p502b6d258f)" d="M 429.12 384.48 
L 429.12 51.84 
" style="fill:none;stroke:#b0b0b0;stroke-linecap:square;stroke-width:0.8;"/>
     </g>
     <g id="line2d_10">
      <g>
       <use style="stroke:#000000;stroke-width:0.8;" x="429.12" xlink:href="#m3f97fd302b" y="384.48"/>
      </g>
     </g>
     <g id="text_5">
      <!-- 40 -->
      <defs>
       <path d="M 37.796875 64.3125 
L 12.890625 25.390625 
L 37.796875 25.390625 
z
M 35.203125 72.90625 
L 47.609375 72.90625 
L 47.609375 25.390625 
L 58.015625 25.390625 
L 58.015625 17.1875 
L 47.609375 17.1875 
L 47.609375 0 
L 37.796875 0 
L 37.796875 17.1875 
L 4.890625 17.1875 
L 4.890625 26.703125 
z
" id="DejaVuSans-52"/>
      </defs>
      <g transform="translate(422.7575 399.078438)scale(0.1 -0.1)">
       <use xlink:href="#DejaVuSans-52"/>
       <use x="63.623047" xlink:href="#DejaVuSans-48"/>
      </g>
     </g>
    </g>
    <g id="xtick_6">
     <g id="line2d_11">
      <path clip-path="url(#p502b6d258f)" d="M 518.4 384.48 
L 518.4 51.84 
" style="fill:none;stroke:#b0b0b0;stroke-linecap:square;stroke-width:0.8;"/>
     </g>
     <g id="line2d_12">
      <g>
       <use style="stroke:#000000;stroke-width:0.8;" x="518.4" xlink:href="#m3f97fd302b" y="384.48"/>
      </g>
     </g>
     <g id="text_6">
      <!-- 50 -->
      <defs>
       <path d="M 10.796875 72.90625 
L 49.515625 72.90625 
L 49.515625 64.59375 
L 19.828125 64.59375 
L 19.828125 46.734375 
Q 21.96875 47.46875 24.109375 47.828125 
Q 26.265625 48.1875 28.421875 48.1875 
Q 40.625 48.1875 47.75 41.5 
Q 54.890625 34.8125 54.890625 23.390625 
Q 54.890625 11.625 47.5625 5.09375 
Q 40.234375 -1.421875 26.90625 -1.421875 
Q 22.3125 -1.421875 17.546875 -0.640625 
Q 12.796875 0.140625 7.71875 1.703125 
L 7.71875 11.625 
Q 12.109375 9.234375 16.796875 8.0625 
Q 21.484375 6.890625 26.703125 6.890625 
Q 35.15625 6.890625 40.078125 11.328125 
Q 45.015625 15.765625 45.015625 23.390625 
Q 45.015625 31 40.078125 35.4375 
Q 35.15625 39.890625 26.703125 39.890625 
Q 22.75 39.890625 18.8125 39.015625 
Q 14.890625 38.140625 10.796875 36.28125 
z
" id="DejaVuSans-53"/>
      </defs>
      <g transform="translate(512.0375 399.078438)scale(0.1 -0.1)">
       <use xlink:href="#DejaVuSans-53"/>
       <use x="63.623047" xlink:href="#DejaVuSans-48"/>
      </g>
     </g>
    </g>
    <g id="text_7">
     <!-- Iteration -->
     <defs>
      <path d="M 9.8125 72.90625 
L 19.671875 72.90625 
L 19.671875 0 
L 9.8125 0 
z
" id="DejaVuSans-73"/>
      <path d="M 18.3125 70.21875 
L 18.3125 54.6875 
L 36.8125 54.6875 
L 36.8125 47.703125 
L 18.3125 47.703125 
L 18.3125 18.015625 
Q 18.3125 11.328125 20.140625 9.421875 
Q 21.96875 7.515625 27.59375 7.515625 
L 36.8125 7.515625 
L 36.8125 0 
L 27.59375 0 
Q 17.1875 0 13.234375 3.875 
Q 9.28125 7.765625 9.28125 18.015625 
L 9.28125 47.703125 
L 2.6875 47.703125 
L 2.6875 54.6875 
L 9.28125 54.6875 
L 9.28125 70.21875 
z
" id="DejaVuSans-116"/>
      <path d="M 56.203125 29.59375 
L 56.203125 25.203125 
L 14.890625 25.203125 
Q 15.484375 15.921875 20.484375 11.0625 
Q 25.484375 6.203125 34.421875 6.203125 
Q 39.59375 6.203125 44.453125 7.46875 
Q 49.3125 8.734375 54.109375 11.28125 
L 54.109375 2.78125 
Q 49.265625 0.734375 44.1875 -0.34375 
Q 39.109375 -1.421875 33.890625 -1.421875 
Q 20.796875 -1.421875 13.15625 6.1875 
Q 5.515625 13.8125 5.515625 26.8125 
Q 5.515625 40.234375 12.765625 48.109375 
Q 20.015625 56 32.328125 56 
Q 43.359375 56 49.78125 48.890625 
Q 56.203125 41.796875 56.203125 29.59375 
z
M 47.21875 32.234375 
Q 47.125 39.59375 43.09375 43.984375 
Q 39.0625 48.390625 32.421875 48.390625 
Q 24.90625 48.390625 20.390625 44.140625 
Q 15.875 39.890625 15.1875 32.171875 
z
" id="DejaVuSans-101"/>
      <path d="M 41.109375 46.296875 
Q 39.59375 47.171875 37.8125 47.578125 
Q 36.03125 48 33.890625 48 
Q 26.265625 48 22.1875 43.046875 
Q 18.109375 38.09375 18.109375 28.8125 
L 18.109375 0 
L 9.078125 0 
L 9.078125 54.6875 
L 18.109375 54.6875 
L 18.109375 46.1875 
Q 20.953125 51.171875 25.484375 53.578125 
Q 30.03125 56 36.53125 56 
Q 37.453125 56 38.578125 55.875 
Q 39.703125 55.765625 41.0625 55.515625 
z
" id="DejaVuSans-114"/>
      <path d="M 34.28125 27.484375 
Q 23.390625 27.484375 19.1875 25 
Q 14.984375 22.515625 14.984375 16.5 
Q 14.984375 11.71875 18.140625 8.90625 
Q 21.296875 6.109375 26.703125 6.109375 
Q 34.1875 6.109375 38.703125 11.40625 
Q 43.21875 16.703125 43.21875 25.484375 
L 43.21875 27.484375 
z
M 52.203125 31.203125 
L 52.203125 0 
L 43.21875 0 
L 43.21875 8.296875 
Q 40.140625 3.328125 35.546875 0.953125 
Q 30.953125 -1.421875 24.3125 -1.421875 
Q 15.921875 -1.421875 10.953125 3.296875 
Q 6 8.015625 6 15.921875 
Q 6 25.140625 12.171875 29.828125 
Q 18.359375 34.515625 30.609375 34.515625 
L 43.21875 34.515625 
L 43.21875 35.40625 
Q 43.21875 41.609375 39.140625 45 
Q 35.0625 48.390625 27.6875 48.390625 
Q 23 48.390625 18.546875 47.265625 
Q 14.109375 46.140625 10.015625 43.890625 
L 10.015625 52.203125 
Q 14.9375 54.109375 19.578125 55.046875 
Q 24.21875 56 28.609375 56 
Q 40.484375 56 46.34375 49.84375 
Q 52.203125 43.703125 52.203125 31.203125 
z
" id="DejaVuSans-97"/>
      <path d="M 9.421875 54.6875 
L 18.40625 54.6875 
L 18.40625 0 
L 9.421875 0 
z
M 9.421875 75.984375 
L 18.40625 75.984375 
L 18.40625 64.59375 
L 9.421875 64.59375 
z
" id="DejaVuSans-105"/>
      <path d="M 30.609375 48.390625 
Q 23.390625 48.390625 19.1875 42.75 
Q 14.984375 37.109375 14.984375 27.296875 
Q 14.984375 17.484375 19.15625 11.84375 
Q 23.34375 6.203125 30.609375 6.203125 
Q 37.796875 6.203125 41.984375 11.859375 
Q 46.1875 17.53125 46.1875 27.296875 
Q 46.1875 37.015625 41.984375 42.703125 
Q 37.796875 48.390625 30.609375 48.390625 
z
M 30.609375 56 
Q 42.328125 56 49.015625 48.375 
Q 55.71875 40.765625 55.71875 27.296875 
Q 55.71875 13.875 49.015625 6.21875 
Q 42.328125 -1.421875 30.609375 -1.421875 
Q 18.84375 -1.421875 12.171875 6.21875 
Q 5.515625 13.875 5.515625 27.296875 
Q 5.515625 40.765625 12.171875 48.375 
Q 18.84375 56 30.609375 56 
z
" id="DejaVuSans-111"/>
      <path d="M 54.890625 33.015625 
L 54.890625 0 
L 45.90625 0 
L 45.90625 32.71875 
Q 45.90625 40.484375 42.875 44.328125 
Q 39.84375 48.1875 33.796875 48.1875 
Q 26.515625 48.1875 22.3125 43.546875 
Q 18.109375 38.921875 18.109375 30.90625 
L 18.109375 0 
L 9.078125 0 
L 9.078125 54.6875 
L 18.109375 54.6875 
L 18.109375 46.1875 
Q 21.34375 51.125 25.703125 53.5625 
Q 30.078125 56 35.796875 56 
Q 45.21875 56 50.046875 50.171875 
Q 54.890625 44.34375 54.890625 33.015625 
z
" id="DejaVuSans-110"/>
     </defs>
     <g transform="translate(273.991406 412.756563)scale(0.1 -0.1)">
      <use xlink:href="#DejaVuSans-73"/>
      <use x="29.492188" xlink:href="#DejaVuSans-116"/>
      <use x="68.701172" xlink:href="#DejaVuSans-101"/>
      <use x="130.224609" xlink:href="#DejaVuSans-114"/>
      <use x="171.337891" xlink:href="#DejaVuSans-97"/>
      <use x="232.617188" xlink:href="#DejaVuSans-116"/>
      <use x="271.826172" xlink:href="#DejaVuSans-105"/>
      <use x="299.609375" xlink:href="#DejaVuSans-111"/>
      <use x="360.791016" xlink:href="#DejaVuSans-110"/>
     </g>
    </g>
   </g>
   <g id="matplotlib.axis_2">
    <g id="ytick_1">
     <g id="line2d_13">
      <path clip-path="url(#p502b6d258f)" d="M 72 384.48 
L 518.4 384.48 
" style="fill:none;stroke:#b0b0b0;stroke-linecap:square;stroke-width:0.8;"/>
     </g>
     <g id="line2d_14">
      <defs>
       <path d="M 0 0 
L -3.5 0 
" id="md182899962" style="stroke:#000000;stroke-width:0.8;"/>
      </defs>
      <g>
       <use style="stroke:#000000;stroke-width:0.8;" x="72" xlink:href="#md182899962" y="384.48"/>
      </g>
     </g>
     <g id="text_8">
      <!-- $\mathdefault{10^{-12}}$ -->
      <defs>
       <path d="M 10.59375 35.5 
L 73.1875 35.5 
L 73.1875 27.203125 
L 10.59375 27.203125 
z
" id="DejaVuSans-8722"/>
      </defs>
      <g transform="translate(37.1 388.279219)scale(0.1 -0.1)">
       <use transform="translate(0 0.765625)" xlink:href="#DejaVuSans-49"/>
       <use transform="translate(63.623047 0.765625)" xlink:href="#DejaVuSans-48"/>
       <use transform="translate(128.203125 39.046875)scale(0.7)" xlink:href="#DejaVuSans-8722"/>
       <use transform="translate(186.855469 39.046875)scale(0.7)" xlink:href="#DejaVuSans-49"/>
       <use transform="translate(231.391602 39.046875)scale(0.7)" xlink:href="#DejaVuSans-50"/>
      </g>
     </g>
    </g>
    <g id="ytick_2">
     <g id="line2d_15">
      <path clip-path="url(#p502b6d258f)" d="M 72 336.96 
L 518.4 336.96 
" style="fill:none;stroke:#b0b0b0;stroke-linecap:square;stroke-width:0.8;"/>
     </g>
     <g id="line2d_16">
      <g>
       <use style="stroke:#000000;stroke-width:0.8;" x="72" xlink:href="#md182899962" y="336.96"/>
      </g>
     </g>
     <g id="text_9">
      <!-- $\mathdefault{10^{-10}}$ -->
      <g transform="translate(37.1 340.759219)scale(0.1 -0.1)">
       <use transform="translate(0 0.765625)" xlink:href="#DejaVuSans-49"/>
       <use transform="translate(63.623047 0.765625)" xlink:href="#DejaVuSans-48"/>
       <use transform="translate(128.203125 39.046875)scale(0.7)" xlink:href="#DejaVuSans-8722"/>
       <use transform="translate(186.855469 39.046875)scale(0.7)" xlink:href="#DejaVuSans-49"/>
       <use transform="translate(231.391602 39.046875)scale(0.7)" xlink:href="#DejaVuSans-48"/>
      </g>
     </g>
    </g>
    <g id="ytick_3">
     <g id="line2d_17">
      <path clip-path="url(#p502b6d258f)" d="M 72 289.44 
L 518.4 289.44 
" style="fill:none;stroke:#b0b0b0;stroke-linecap:square;stroke-width:0.8;"/>
     </g>
     <g id="line2d_18">
      <g>
       <use style="stroke:#000000;stroke-width:0.8;" x="72" xlink:href="#md182899962" y="289.44"/>
      </g>
     </g>
     <g id="text_10">
      <!-- $\mathdefault{10^{-8}}$ -->
      <defs>
       <path d="M 31.78125 34.625 
Q 24.75 34.625 20.71875 30.859375 
Q 16.703125 27.09375 16.703125 20.515625 
Q 16.703125 13.921875 20.71875 10.15625 
Q 24.75 6.390625 31.78125 6.390625 
Q 38.8125 6.390625 42.859375 10.171875 
Q 46.921875 13.96875 46.921875 20.515625 
Q 46.921875 27.09375 42.890625 30.859375 
Q 38.875 34.625 31.78125 34.625 
z
M 21.921875 38.8125 
Q 15.578125 40.375 12.03125 44.71875 
Q 8.5 49.078125 8.5 55.328125 
Q 8.5 64.0625 14.71875 69.140625 
Q 20.953125 74.21875 31.78125 74.21875 
Q 42.671875 74.21875 48.875 69.140625 
Q 55.078125 64.0625 55.078125 55.328125 
Q 55.078125 49.078125 51.53125 44.71875 
Q 48 40.375 41.703125 38.8125 
Q 48.828125 37.15625 52.796875 32.3125 
Q 56.78125 27.484375 56.78125 20.515625 
Q 56.78125 9.90625 50.3125 4.234375 
Q 43.84375 -1.421875 31.78125 -1.421875 
Q 19.734375 -1.421875 13.25 4.234375 
Q 6.78125 9.90625 6.78125 20.515625 
Q 6.78125 27.484375 10.78125 32.3125 
Q 14.796875 37.15625 21.921875 38.8125 
z
M 18.3125 54.390625 
Q 18.3125 48.734375 21.84375 45.5625 
Q 25.390625 42.390625 31.78125 42.390625 
Q 38.140625 42.390625 41.71875 45.5625 
Q 45.3125 48.734375 45.3125 54.390625 
Q 45.3125 60.0625 41.71875 63.234375 
Q 38.140625 66.40625 31.78125 66.40625 
Q 25.390625 66.40625 21.84375 63.234375 
Q 18.3125 60.0625 18.3125 54.390625 
z
" id="DejaVuSans-56"/>
      </defs>
      <g transform="translate(41.5 293.239219)scale(0.1 -0.1)">
       <use transform="translate(0 0.765625)" xlink:href="#DejaVuSans-49"/>
       <use transform="translate(63.623047 0.765625)" xlink:href="#DejaVuSans-48"/>
       <use transform="translate(128.203125 39.046875)scale(0.7)" xlink:href="#DejaVuSans-8722"/>
       <use transform="translate(186.855469 39.046875)scale(0.7)" xlink:href="#DejaVuSans-56"/>
      </g>
     </g>
    </g>
    <g id="ytick_4">
     <g id="line2d_19">
      <path clip-path="url(#p502b6d258f)" d="M 72 241.92 
L 518.4 241.92 
" style="fill:none;stroke:#b0b0b0;stroke-linecap:square;stroke-width:0.8;"/>
     </g>
     <g id="line2d_20">
      <g>
       <use style="stroke:#000000;stroke-width:0.8;" x="72" xlink:href="#md182899962" y="241.92"/>
      </g>
     </g>
     <g id="text_11">
      <!-- $\mathdefault{10^{-6}}$ -->
      <defs>
       <path d="M 33.015625 40.375 
Q 26.375 40.375 22.484375 35.828125 
Q 18.609375 31.296875 18.609375 23.390625 
Q 18.609375 15.53125 22.484375 10.953125 
Q 26.375 6.390625 33.015625 6.390625 
Q 39.65625 6.390625 43.53125 10.953125 
Q 47.40625 15.53125 47.40625 23.390625 
Q 47.40625 31.296875 43.53125 35.828125 
Q 39.65625 40.375 33.015625 40.375 
z
M 52.59375 71.296875 
L 52.59375 62.3125 
Q 48.875 64.0625 45.09375 64.984375 
Q 41.3125 65.921875 37.59375 65.921875 
Q 27.828125 65.921875 22.671875 59.328125 
Q 17.53125 52.734375 16.796875 39.40625 
Q 19.671875 43.65625 24.015625 45.921875 
Q 28.375 48.1875 33.59375 48.1875 
Q 44.578125 48.1875 50.953125 41.515625 
Q 57.328125 34.859375 57.328125 23.390625 
Q 57.328125 12.15625 50.6875 5.359375 
Q 44.046875 -1.421875 33.015625 -1.421875 
Q 20.359375 -1.421875 13.671875 8.265625 
Q 6.984375 17.96875 6.984375 36.375 
Q 6.984375 53.65625 15.1875 63.9375 
Q 23.390625 74.21875 37.203125 74.21875 
Q 40.921875 74.21875 44.703125 73.484375 
Q 48.484375 72.75 52.59375 71.296875 
z
" id="DejaVuSans-54"/>
      </defs>
      <g transform="translate(41.5 245.719219)scale(0.1 -0.1)">
       <use transform="translate(0 0.765625)" xlink:href="#DejaVuSans-49"/>
       <use transform="translate(63.623047 0.765625)" xlink:href="#DejaVuSans-48"/>
       <use transform="translate(128.203125 39.046875)scale(0.7)" xlink:href="#DejaVuSans-8722"/>
       <use transform="translate(186.855469 39.046875)scale(0.7)" xlink:href="#DejaVuSans-54"/>
      </g>
     </g>
    </g>
    <g id="ytick_5">
     <g id="line2d_21">
      <path clip-path="url(#p502b6d258f)" d="M 72 194.4 
L 518.4 194.4 
" style="fill:none;stroke:#b0b0b0;stroke-linecap:square;stroke-width:0.8;"/>
     </g>
     <g id="line2d_22">
      <g>
       <use style="stroke:#000000;stroke-width:0.8;" x="72" xlink:href="#md182899962" y="194.4"/>
      </g>
     </g>
     <g id="text_12">
      <!-- $\mathdefault{10^{-4}}$ -->
      <g transform="translate(41.5 198.199219)scale(0.1 -0.1)">
       <use transform="translate(0 0.684375)" xlink:href="#DejaVuSans-49"/>
       <use transform="translate(63.623047 0.684375)" xlink:href="#DejaVuSans-48"/>
       <use transform="translate(128.203125 38.965625)scale(0.7)" xlink:href="#DejaVuSans-8722"/>
       <use transform="translate(186.855469 38.965625)scale(0.7)" xlink:href="#DejaVuSans-52"/>
      </g>
     </g>
    </g>
    <g id="ytick_6">
     <g id="line2d_23">
      <path clip-path="url(#p502b6d258f)" d="M 72 146.88 
L 518.4 146.88 
" style="fill:none;stroke:#b0b0b0;stroke-linecap:square;stroke-width:0.8;"/>
     </g>
     <g id="line2d_24">
      <g>
       <use style="stroke:#000000;stroke-width:0.8;" x="72" xlink:href="#md182899962" y="146.88"/>
      </g>
     </g>
     <g id="text_13">
      <!-- $\mathdefault{10^{-2}}$ -->
      <g transform="translate(41.5 150.679219)scale(0.1 -0.1)">
       <use transform="translate(0 0.765625)" xlink:href="#DejaVuSans-49"/>
       <use transform="translate(63.623047 0.765625)" xlink:href="#DejaVuSans-48"/>
       <use transform="translate(128.203125 39.046875)scale(0.7)" xlink:href="#DejaVuSans-8722"/>
       <use transform="translate(186.855469 39.046875)scale(0.7)" xlink:href="#DejaVuSans-50"/>
      </g>
     </g>
    </g>
    <g id="ytick_7">
     <g id="line2d_25">
      <path clip-path="url(#p502b6d258f)" d="M 72 99.36 
L 518.4 99.36 
" style="fill:none;stroke:#b0b0b0;stroke-linecap:square;stroke-width:0.8;"/>
     </g>
     <g id="line2d_26">
      <g>
       <use style="stroke:#000000;stroke-width:0.8;" x="72" xlink:href="#md182899962" y="99.36"/>
      </g>
     </g>
     <g id="text_14">
      <!-- $\mathdefault{10^{0}}$ -->
      <g transform="translate(47.4 103.159219)scale(0.1 -0.1)">
       <use transform="translate(0 0.765625)" xlink:href="#DejaVuSans-49"/>
       <use transform="translate(63.623047 0.765625)" xlink:href="#DejaVuSans-48"/>
       <use transform="translate(128.203125 39.046875)scale(0.7)" xlink:href="#DejaVuSans-48"/>
      </g>
     </g>
    </g>
    <g id="ytick_8">
     <g id="line2d_27">
      <path clip-path="url(#p502b6d258f)" d="M 72 51.84 
L 518.4 51.84 
" style="fill:none;stroke:#b0b0b0;stroke-linecap:square;stroke-width:0.8;"/>
     </g>
     <g id="line2d_28">
      <g>
       <use style="stroke:#000000;stroke-width:0.8;" x="72" xlink:href="#md182899962" y="51.84"/>
      </g>
     </g>
     <g id="text_15">
      <!-- $\mathdefault{10^{2}}$ -->
      <g transform="translate(47.4 55.639219)scale(0.1 -0.1)">
       <use transform="translate(0 0.765625)" xlink:href="#DejaVuSans-49"/>
       <use transform="translate(63.623047 0.765625)" xlink:href="#DejaVuSans-48"/>
       <use transform="translate(128.203125 39.046875)scale(0.7)" xlink:href="#DejaVuSans-50"/>
      </g>
     </g>
    </g>
    <g id="text_16">
     <!-- Integrated Squared Error -->
     <defs>
      <path d="M 45.40625 27.984375 
Q 45.40625 37.75 41.375 43.109375 
Q 37.359375 48.484375 30.078125 48.484375 
Q 22.859375 48.484375 18.828125 43.109375 
Q 14.796875 37.75 14.796875 27.984375 
Q 14.796875 18.265625 18.828125 12.890625 
Q 22.859375 7.515625 30.078125 7.515625 
Q 37.359375 7.515625 41.375 12.890625 
Q 45.40625 18.265625 45.40625 27.984375 
z
M 54.390625 6.78125 
Q 54.390625 -7.171875 48.1875 -13.984375 
Q 42 -20.796875 29.203125 -20.796875 
Q 24.46875 -20.796875 20.265625 -20.09375 
Q 16.0625 -19.390625 12.109375 -17.921875 
L 12.109375 -9.1875 
Q 16.0625 -11.328125 19.921875 -12.34375 
Q 23.78125 -13.375 27.78125 -13.375 
Q 36.625 -13.375 41.015625 -8.765625 
Q 45.40625 -4.15625 45.40625 5.171875 
L 45.40625 9.625 
Q 42.625 4.78125 38.28125 2.390625 
Q 33.9375 0 27.875 0 
Q 17.828125 0 11.671875 7.65625 
Q 5.515625 15.328125 5.515625 27.984375 
Q 5.515625 40.671875 11.671875 48.328125 
Q 17.828125 56 27.875 56 
Q 33.9375 56 38.28125 53.609375 
Q 42.625 51.21875 45.40625 46.390625 
L 45.40625 54.6875 
L 54.390625 54.6875 
z
" id="DejaVuSans-103"/>
      <path d="M 45.40625 46.390625 
L 45.40625 75.984375 
L 54.390625 75.984375 
L 54.390625 0 
L 45.40625 0 
L 45.40625 8.203125 
Q 42.578125 3.328125 38.25 0.953125 
Q 33.9375 -1.421875 27.875 -1.421875 
Q 17.96875 -1.421875 11.734375 6.484375 
Q 5.515625 14.40625 5.515625 27.296875 
Q 5.515625 40.1875 11.734375 48.09375 
Q 17.96875 56 27.875 56 
Q 33.9375 56 38.25 53.625 
Q 42.578125 51.265625 45.40625 46.390625 
z
M 14.796875 27.296875 
Q 14.796875 17.390625 18.875 11.75 
Q 22.953125 6.109375 30.078125 6.109375 
Q 37.203125 6.109375 41.296875 11.75 
Q 45.40625 17.390625 45.40625 27.296875 
Q 45.40625 37.203125 41.296875 42.84375 
Q 37.203125 48.484375 30.078125 48.484375 
Q 22.953125 48.484375 18.875 42.84375 
Q 14.796875 37.203125 14.796875 27.296875 
z
" id="DejaVuSans-100"/>
      <path id="DejaVuSans-32"/>
      <path d="M 53.515625 70.515625 
L 53.515625 60.890625 
Q 47.90625 63.578125 42.921875 64.890625 
Q 37.9375 66.21875 33.296875 66.21875 
Q 25.25 66.21875 20.875 63.09375 
Q 16.5 59.96875 16.5 54.203125 
Q 16.5 49.359375 19.40625 46.890625 
Q 22.3125 44.4375 30.421875 42.921875 
L 36.375 41.703125 
Q 47.40625 39.59375 52.65625 34.296875 
Q 57.90625 29 57.90625 20.125 
Q 57.90625 9.515625 50.796875 4.046875 
Q 43.703125 -1.421875 29.984375 -1.421875 
Q 24.8125 -1.421875 18.96875 -0.25 
Q 13.140625 0.921875 6.890625 3.21875 
L 6.890625 13.375 
Q 12.890625 10.015625 18.65625 8.296875 
Q 24.421875 6.59375 29.984375 6.59375 
Q 38.421875 6.59375 43.015625 9.90625 
Q 47.609375 13.234375 47.609375 19.390625 
Q 47.609375 24.75 44.3125 27.78125 
Q 41.015625 30.8125 33.5 32.328125 
L 27.484375 33.5 
Q 16.453125 35.6875 11.515625 40.375 
Q 6.59375 45.0625 6.59375 53.421875 
Q 6.59375 63.09375 13.40625 68.65625 
Q 20.21875 74.21875 32.171875 74.21875 
Q 37.3125 74.21875 42.625 73.28125 
Q 47.953125 72.359375 53.515625 70.515625 
z
" id="DejaVuSans-83"/>
      <path d="M 14.796875 27.296875 
Q 14.796875 17.390625 18.875 11.75 
Q 22.953125 6.109375 30.078125 6.109375 
Q 37.203125 6.109375 41.296875 11.75 
Q 45.40625 17.390625 45.40625 27.296875 
Q 45.40625 37.203125 41.296875 42.84375 
Q 37.203125 48.484375 30.078125 48.484375 
Q 22.953125 48.484375 18.875 42.84375 
Q 14.796875 37.203125 14.796875 27.296875 
z
M 45.40625 8.203125 
Q 42.578125 3.328125 38.25 0.953125 
Q 33.9375 -1.421875 27.875 -1.421875 
Q 17.96875 -1.421875 11.734375 6.484375 
Q 5.515625 14.40625 5.515625 27.296875 
Q 5.515625 40.1875 11.734375 48.09375 
Q 17.96875 56 27.875 56 
Q 33.9375 56 38.25 53.625 
Q 42.578125 51.265625 45.40625 46.390625 
L 45.40625 54.6875 
L 54.390625 54.6875 
L 54.390625 -20.796875 
L 45.40625 -20.796875 
z
" id="DejaVuSans-113"/>
      <path d="M 8.5 21.578125 
L 8.5 54.6875 
L 17.484375 54.6875 
L 17.484375 21.921875 
Q 17.484375 14.15625 20.5 10.265625 
Q 23.53125 6.390625 29.59375 6.390625 
Q 36.859375 6.390625 41.078125 11.03125 
Q 45.3125 15.671875 45.3125 23.6875 
L 45.3125 54.6875 
L 54.296875 54.6875 
L 54.296875 0 
L 45.3125 0 
L 45.3125 8.40625 
Q 42.046875 3.421875 37.71875 1 
Q 33.40625 -1.421875 27.6875 -1.421875 
Q 18.265625 -1.421875 13.375 4.4375 
Q 8.5 10.296875 8.5 21.578125 
z
M 31.109375 56 
z
" id="DejaVuSans-117"/>
      <path d="M 9.8125 72.90625 
L 55.90625 72.90625 
L 55.90625 64.59375 
L 19.671875 64.59375 
L 19.671875 43.015625 
L 54.390625 43.015625 
L 54.390625 34.71875 
L 19.671875 34.71875 
L 19.671875 8.296875 
L 56.78125 8.296875 
L 56.78125 0 
L 9.8125 0 
z
" id="DejaVuSans-69"/>
     </defs>
     <g transform="translate(31.020312 280.483437)rotate(-90)scale(0.1 -0.1)">
      <use xlink:href="#DejaVuSans-73"/>
      <use x="29.492188" xlink:href="#DejaVuSans-110"/>
      <use x="92.871094" xlink:href="#DejaVuSans-116"/>
      <use x="132.080078" xlink:href="#DejaVuSans-101"/>
      <use x="193.603516" xlink:href="#DejaVuSans-103"/>
      <use x="257.080078" xlink:href="#DejaVuSans-114"/>
      <use x="298.193359" xlink:href="#DejaVuSans-97"/>
      <use x="359.472656" xlink:href="#DejaVuSans-116"/>
      <use x="398.681641" xlink:href="#DejaVuSans-101"/>
      <use x="460.205078" xlink:href="#DejaVuSans-100"/>
      <use x="523.681641" xlink:href="#DejaVuSans-32"/>
      <use x="555.46875" xlink:href="#DejaVuSans-83"/>
      <use x="618.945312" xlink:href="#DejaVuSans-113"/>
      <use x="682.421875" xlink:href="#DejaVuSans-117"/>
      <use x="745.800781" xlink:href="#DejaVuSans-97"/>
      <use x="807.080078" xlink:href="#DejaVuSans-114"/>
      <use x="845.943359" xlink:href="#DejaVuSans-101"/>
      <use x="907.466797" xlink:href="#DejaVuSans-100"/>
      <use x="970.943359" xlink:href="#DejaVuSans-32"/>
      <use x="1002.730469" xlink:href="#DejaVuSans-69"/>
      <use x="1065.914062" xlink:href="#DejaVuSans-114"/>
      <use x="1105.277344" xlink:href="#DejaVuSans-114"/>
      <use x="1144.140625" xlink:href="#DejaVuSans-111"/>
      <use x="1205.322266" xlink:href="#DejaVuSans-114"/>
     </g>
    </g>
   </g>
   <g id="line2d_29">
    <path clip-path="url(#p502b6d258f)" d="M 72 143.355209 
L 80.928 140.365964 
L 89.856 137.067819 
L 98.784 134.169279 
L 107.712 133.213545 
L 116.64 131.09045 
L 125.568 131.381158 
L 134.496 132.176443 
L 143.424 131.501965 
L 152.352 131.316054 
L 161.28 131.477535 
L 170.208 131.400906 
L 179.136 132.229777 
L 188.064 133.047491 
L 196.992 130.619781 
L 205.92 132.095556 
L 214.848 129.962525 
L 223.776 130.153281 
L 232.704 130.883132 
L 241.632 129.04032 
L 250.56 129.238019 
L 259.488 129.482365 
L 268.416 127.924193 
L 277.344 129.615364 
L 286.272 129.070691 
L 295.2 128.287945 
L 304.128 127.711555 
L 313.056 128.300821 
L 321.984 126.351952 
L 330.912 125.527425 
L 339.84 124.85206 
L 348.768 127.047516 
L 357.696 125.980747 
L 366.624 125.271315 
L 375.552 125.278293 
L 384.48 126.306577 
L 393.408 125.09133 
L 402.336 125.72982 
L 411.264 123.769995 
L 420.192 126.676313 
L 429.12 125.149843 
L 438.048 125.191608 
L 446.976 124.36487 
L 455.904 126.411943 
L 464.832 124.614594 
L 473.76 123.29765 
L 482.688 125.190244 
L 491.616 125.071268 
L 500.544 125.232108 
L 509.472 124.955549 
L 518.4 122.40705 
" style="fill:none;stroke:#1f77b4;stroke-linecap:square;stroke-width:1.5;"/>
   </g>
   <g id="line2d_30">
    <path clip-path="url(#p502b6d258f)" d="M 72 121.830267 
L 80.928 115.610016 
L 89.856 115.610758 
L 98.784 115.61147 
L 107.712 115.612171 
L 116.64 115.612879 
L 125.568 115.613611 
L 134.496 115.614386 
L 143.424 115.615222 
L 152.352 115.616138 
L 161.28 115.617156 
L 170.208 115.618296 
L 179.136 115.619583 
L 188.064 115.621039 
L 196.992 115.622691 
L 205.92 115.624563 
L 214.848 115.626681 
L 223.776 115.629068 
L 232.704 115.63175 
L 241.632 115.634747 
L 250.56 115.638079 
L 259.488 115.641763 
L 268.416 115.645813 
L 277.344 115.650239 
L 286.272 115.655048 
L 295.2 115.660239 
L 304.128 115.665812 
L 313.056 115.671758 
L 321.984 115.678064 
L 330.912 115.684716 
L 339.84 115.691691 
L 348.768 115.698965 
L 357.696 115.70651 
L 366.624 115.714294 
L 375.552 115.722283 
L 384.48 115.730441 
L 393.408 115.73873 
L 402.336 115.747111 
L 411.264 115.755547 
L 420.192 115.763997 
L 429.12 115.772424 
L 438.048 115.780792 
L 446.976 115.789066 
L 455.904 115.797213 
L 464.832 115.805205 
L 473.76 115.813014 
L 482.688 115.820616 
L 491.616 115.827991 
L 500.544 115.835122 
L 509.472 115.841995 
L 518.4 115.848599 
" style="fill:none;stroke:#ff7f0e;stroke-linecap:square;stroke-width:1.5;"/>
   </g>
   <g id="line2d_31">
    <path clip-path="url(#p502b6d258f)" d="M 72 152.452196 
L 80.928 151.711046 
L 89.856 152.980664 
L 98.784 155.716986 
L 107.712 160.266778 
L 116.64 162.37529 
L 125.568 163.688988 
L 134.496 164.324332 
L 143.424 165.069788 
L 152.352 165.785717 
L 161.28 166.609507 
L 170.208 167.444181 
L 179.136 167.842191 
L 188.064 168.343406 
L 196.992 169.732856 
L 205.92 170.797864 
L 214.848 172.533453 
L 223.776 174.960474 
L 232.704 176.29236 
L 241.632 178.090933 
L 250.56 178.81504 
L 259.488 179.998824 
L 268.416 182.009379 
L 277.344 183.07858 
L 286.272 184.906286 
L 295.2 186.044029 
L 304.128 186.676166 
L 313.056 187.22357 
L 321.984 187.75493 
L 330.912 188.395495 
L 339.84 189.036972 
L 348.768 189.381834 
L 357.696 189.723377 
L 366.624 190.037786 
L 375.552 190.534945 
L 384.48 190.88044 
L 393.408 191.463622 
L 402.336 191.938106 
L 411.264 192.183812 
L 420.192 192.426031 
L 429.12 193.103191 
L 438.048 193.857444 
L 446.976 194.619532 
L 455.904 195.330232 
L 464.832 195.746679 
L 473.76 197.050415 
L 482.688 197.912968 
L 491.616 198.991386 
L 500.544 199.800635 
L 509.472 201.761758 
L 518.4 202.642488 
" style="fill:none;stroke:#2ca02c;stroke-linecap:square;stroke-width:1.5;"/>
   </g>
   <g id="line2d_32">
    <path clip-path="url(#p502b6d258f)" d="M 72 147.229682 
L 80.928 149.939938 
L 89.856 151.416312 
L 98.784 152.260677 
L 107.712 156.681217 
L 116.64 159.051525 
L 125.568 159.528964 
L 134.496 160.58552 
L 143.424 161.640362 
L 152.352 162.832824 
L 161.28 162.534871 
L 170.208 154.486583 
L 179.136 152.551016 
L 188.064 145.50762 
L 196.992 140.470684 
L 205.92 135.538969 
L 214.848 135.530274 
L 223.776 132.445848 
L 232.704 130.261099 
L 241.632 130.284882 
L 250.56 130.324535 
L 259.488 130.349662 
L 268.416 130.38229 
L 277.344 129.339406 
L 286.272 119.169806 
L 295.2 119.195311 
L 304.128 115.771996 
L 313.056 115.773713 
L 321.984 115.775598 
L 330.912 115.777672 
L 339.84 115.779953 
L 348.768 115.782461 
L 357.696 115.785213 
L 366.624 115.788225 
L 375.552 115.791511 
L 384.48 115.795083 
L 393.408 115.798953 
L 402.336 115.803128 
L 411.264 115.807612 
L 420.192 115.812409 
L 429.12 115.817518 
L 438.048 115.822936 
L 446.976 115.828655 
L 455.904 115.834667 
L 464.832 115.840958 
L 473.76 115.847521 
L 482.688 115.854329 
L 491.616 115.861367 
L 500.544 115.868611 
L 509.472 115.876045 
L 518.4 115.883632 
" style="fill:none;stroke:#d62728;stroke-linecap:square;stroke-width:1.5;"/>
   </g>
   <g id="line2d_33">
    <path clip-path="url(#p502b6d258f)" d="M 72 144.185768 
L 80.928 144.314119 
L 89.856 140.232751 
L 98.784 133.941955 
L 107.712 126.194141 
L 116.64 120.791704 
L 125.568 117.369207 
L 134.496 116.51553 
L 143.424 115.640711 
L 152.352 115.64147 
L 161.28 115.642269 
L 170.208 115.643129 
L 179.136 115.644068 
L 188.064 115.645107 
L 196.992 115.646268 
L 205.92 115.647575 
L 214.848 115.649049 
L 223.776 115.650716 
L 232.704 115.6526 
L 241.632 115.654727 
L 250.56 115.657118 
L 259.488 115.659799 
L 268.416 115.66279 
L 277.344 115.66611 
L 286.272 115.669776 
L 295.2 115.673801 
L 304.128 115.678196 
L 313.056 115.682966 
L 321.984 115.688114 
L 330.912 115.693637 
L 339.84 115.699529 
L 348.768 115.705777 
L 357.696 115.712366 
L 366.624 115.719277 
L 375.552 115.726486 
L 384.48 115.733965 
L 393.408 115.741685 
L 402.336 115.749611 
L 411.264 115.757709 
L 420.192 115.765943 
L 429.12 115.774274 
L 438.048 115.782665 
L 446.976 115.791077 
L 455.904 115.799474 
L 464.832 115.807819 
L 473.76 115.816079 
L 482.688 115.82422 
L 491.616 115.832213 
L 500.544 115.840032 
L 509.472 115.847652 
L 518.4 115.855052 
" style="fill:none;stroke:#9467bd;stroke-linecap:square;stroke-width:1.5;"/>
   </g>
   <g id="line2d_34">
    <path clip-path="url(#p502b6d258f)" d="M 72 150.601052 
L 80.928 150.81474 
L 89.856 152.847009 
L 98.784 156.311649 
L 107.712 160.251278 
L 116.64 162.122349 
L 125.568 163.817245 
L 134.496 165.293279 
L 143.424 165.87006 
L 152.352 166.718161 
L 161.28 167.322057 
L 170.208 167.984001 
L 179.136 169.250044 
L 188.064 170.149884 
L 196.992 171.386589 
L 205.92 173.814403 
L 214.848 175.938204 
L 223.776 177.262185 
L 232.704 178.237279 
L 241.632 179.72946 
L 250.56 181.41881 
L 259.488 183.655241 
L 268.416 184.982423 
L 277.344 186.294164 
L 286.272 187.743084 
L 295.2 189.30585 
L 304.128 189.497992 
L 313.056 191.512833 
L 321.984 192.250113 
L 330.912 193.263472 
L 339.84 194.128963 
L 348.768 194.496885 
L 357.696 195.276783 
L 366.624 195.340507 
L 375.552 199.966829 
L 384.48 202.44683 
L 393.408 207.112421 
L 402.336 207.995787 
L 411.264 209.669846 
L 420.192 209.961899 
L 429.12 210.474579 
L 438.048 212.136427 
L 446.976 213.258229 
L 455.904 215.104756 
L 464.832 216.957456 
L 473.76 219.873871 
L 482.688 221.198739 
L 491.616 223.166678 
L 500.544 227.856129 
L 509.472 230.821173 
L 518.4 232.670449 
" style="fill:none;stroke:#8c564b;stroke-linecap:square;stroke-width:1.5;"/>
   </g>
   <g id="line2d_35">
    <path clip-path="url(#p502b6d258f)" d="M 72 146.398506 
L 80.928 146.535129 
L 89.856 146.526573 
L 98.784 146.329721 
L 107.712 146.220143 
L 116.64 146.022166 
L 125.568 146.015301 
L 134.496 145.806909 
L 143.424 145.819193 
L 152.352 145.830028 
L 161.28 145.748178 
L 170.208 145.700188 
L 179.136 145.724428 
L 188.064 145.706514 
L 196.992 145.620363 
L 205.92 145.480381 
L 214.848 145.462195 
L 223.776 145.43866 
L 232.704 145.442889 
L 241.632 145.555427 
L 250.56 145.599692 
L 259.488 145.612982 
L 268.416 145.545323 
L 277.344 145.498564 
L 286.272 145.330421 
L 295.2 145.272972 
L 304.128 145.23996 
L 313.056 145.133871 
L 321.984 145.103832 
L 330.912 145.142218 
L 339.84 145.120519 
L 348.768 145.06828 
L 357.696 145.090415 
L 366.624 145.043802 
L 375.552 144.878566 
L 384.48 144.870442 
L 393.408 144.857328 
L 402.336 144.789119 
L 411.264 144.683974 
L 420.192 144.678421 
L 429.12 144.647587 
L 438.048 144.607882 
L 446.976 144.563666 
L 455.904 144.555086 
L 464.832 144.569084 
L 473.76 144.535397 
L 482.688 144.535382 
L 491.616 144.514756 
L 500.544 144.587251 
L 509.472 144.56345 
L 518.4 144.60499 
" style="fill:none;stroke:#e377c2;stroke-linecap:square;stroke-width:1.5;"/>
   </g>
   <g id="patch_3">
    <path d="M 72 384.48 
L 72 51.84 
" style="fill:none;stroke:#000000;stroke-linecap:square;stroke-linejoin:miter;stroke-width:0.8;"/>
   </g>
   <g id="patch_4">
    <path d="M 518.4 384.48 
L 518.4 51.84 
" style="fill:none;stroke:#000000;stroke-linecap:square;stroke-linejoin:miter;stroke-width:0.8;"/>
   </g>
   <g id="patch_5">
    <path d="M 72 384.48 
L 518.4 384.48 
" style="fill:none;stroke:#000000;stroke-linecap:square;stroke-linejoin:miter;stroke-width:0.8;"/>
   </g>
   <g id="patch_6">
    <path d="M 72 51.84 
L 518.4 51.84 
" style="fill:none;stroke:#000000;stroke-linecap:square;stroke-linejoin:miter;stroke-width:0.8;"/>
   </g>
   <g id="legend_1">
    <g id="patch_7">
     <path d="M 79 379.48 
L 165.804688 379.48 
Q 167.804688 379.48 167.804688 377.48 
L 167.804688 275.733125 
Q 167.804688 273.733125 165.804688 273.733125 
L 79 273.733125 
Q 77 273.733125 77 275.733125 
L 77 377.48 
Q 77 379.48 79 379.48 
z
" style="fill:#ffffff;opacity:0.8;stroke:#cccccc;stroke-linejoin:miter;"/>
    </g>
    <g id="line2d_36">
     <path d="M 81 281.831563 
L 101 281.831563 
" style="fill:none;stroke:#1f77b4;stroke-linecap:square;stroke-width:1.5;"/>
    </g>
    <g id="line2d_37"/>
    <g id="text_17">
     <!-- Constant -->
     <defs>
      <path d="M 64.40625 67.28125 
L 64.40625 56.890625 
Q 59.421875 61.53125 53.78125 63.8125 
Q 48.140625 66.109375 41.796875 66.109375 
Q 29.296875 66.109375 22.65625 58.46875 
Q 16.015625 50.828125 16.015625 36.375 
Q 16.015625 21.96875 22.65625 14.328125 
Q 29.296875 6.6875 41.796875 6.6875 
Q 48.140625 6.6875 53.78125 8.984375 
Q 59.421875 11.28125 64.40625 15.921875 
L 64.40625 5.609375 
Q 59.234375 2.09375 53.4375 0.328125 
Q 47.65625 -1.421875 41.21875 -1.421875 
Q 24.65625 -1.421875 15.125 8.703125 
Q 5.609375 18.84375 5.609375 36.375 
Q 5.609375 53.953125 15.125 64.078125 
Q 24.65625 74.21875 41.21875 74.21875 
Q 47.75 74.21875 53.53125 72.484375 
Q 59.328125 70.75 64.40625 67.28125 
z
" id="DejaVuSans-67"/>
      <path d="M 44.28125 53.078125 
L 44.28125 44.578125 
Q 40.484375 46.53125 36.375 47.5 
Q 32.28125 48.484375 27.875 48.484375 
Q 21.1875 48.484375 17.84375 46.4375 
Q 14.5 44.390625 14.5 40.28125 
Q 14.5 37.15625 16.890625 35.375 
Q 19.28125 33.59375 26.515625 31.984375 
L 29.59375 31.296875 
Q 39.15625 29.25 43.1875 25.515625 
Q 47.21875 21.78125 47.21875 15.09375 
Q 47.21875 7.46875 41.1875 3.015625 
Q 35.15625 -1.421875 24.609375 -1.421875 
Q 20.21875 -1.421875 15.453125 -0.5625 
Q 10.6875 0.296875 5.421875 2 
L 5.421875 11.28125 
Q 10.40625 8.6875 15.234375 7.390625 
Q 20.0625 6.109375 24.8125 6.109375 
Q 31.15625 6.109375 34.5625 8.28125 
Q 37.984375 10.453125 37.984375 14.40625 
Q 37.984375 18.0625 35.515625 20.015625 
Q 33.0625 21.96875 24.703125 23.78125 
L 21.578125 24.515625 
Q 13.234375 26.265625 9.515625 29.90625 
Q 5.8125 33.546875 5.8125 39.890625 
Q 5.8125 47.609375 11.28125 51.796875 
Q 16.75 56 26.8125 56 
Q 31.78125 56 36.171875 55.265625 
Q 40.578125 54.546875 44.28125 53.078125 
z
" id="DejaVuSans-115"/>
     </defs>
     <g transform="translate(109 285.331563)scale(0.1 -0.1)">
      <use xlink:href="#DejaVuSans-67"/>
      <use x="69.824219" xlink:href="#DejaVuSans-111"/>
      <use x="131.005859" xlink:href="#DejaVuSans-110"/>
      <use x="194.384766" xlink:href="#DejaVuSans-115"/>
      <use x="246.484375" xlink:href="#DejaVuSans-116"/>
      <use x="285.693359" xlink:href="#DejaVuSans-97"/>
      <use x="346.972656" xlink:href="#DejaVuSans-110"/>
      <use x="410.351562" xlink:href="#DejaVuSans-116"/>
     </g>
    </g>
    <g id="line2d_38">
     <path d="M 81 296.509688 
L 101 296.509688 
" style="fill:none;stroke:#ff7f0e;stroke-linecap:square;stroke-width:1.5;"/>
    </g>
    <g id="line2d_39"/>
    <g id="text_18">
     <!-- RBF -->
     <defs>
      <path d="M 44.390625 34.1875 
Q 47.5625 33.109375 50.5625 29.59375 
Q 53.5625 26.078125 56.59375 19.921875 
L 66.609375 0 
L 56 0 
L 46.6875 18.703125 
Q 43.0625 26.03125 39.671875 28.421875 
Q 36.28125 30.8125 30.421875 30.8125 
L 19.671875 30.8125 
L 19.671875 0 
L 9.8125 0 
L 9.8125 72.90625 
L 32.078125 72.90625 
Q 44.578125 72.90625 50.734375 67.671875 
Q 56.890625 62.453125 56.890625 51.90625 
Q 56.890625 45.015625 53.6875 40.46875 
Q 50.484375 35.9375 44.390625 34.1875 
z
M 19.671875 64.796875 
L 19.671875 38.921875 
L 32.078125 38.921875 
Q 39.203125 38.921875 42.84375 42.21875 
Q 46.484375 45.515625 46.484375 51.90625 
Q 46.484375 58.296875 42.84375 61.546875 
Q 39.203125 64.796875 32.078125 64.796875 
z
" id="DejaVuSans-82"/>
      <path d="M 19.671875 34.8125 
L 19.671875 8.109375 
L 35.5 8.109375 
Q 43.453125 8.109375 47.28125 11.40625 
Q 51.125 14.703125 51.125 21.484375 
Q 51.125 28.328125 47.28125 31.5625 
Q 43.453125 34.8125 35.5 34.8125 
z
M 19.671875 64.796875 
L 19.671875 42.828125 
L 34.28125 42.828125 
Q 41.5 42.828125 45.03125 45.53125 
Q 48.578125 48.25 48.578125 53.8125 
Q 48.578125 59.328125 45.03125 62.0625 
Q 41.5 64.796875 34.28125 64.796875 
z
M 9.8125 72.90625 
L 35.015625 72.90625 
Q 46.296875 72.90625 52.390625 68.21875 
Q 58.5 63.53125 58.5 54.890625 
Q 58.5 48.1875 55.375 44.234375 
Q 52.25 40.28125 46.1875 39.3125 
Q 53.46875 37.75 57.5 32.78125 
Q 61.53125 27.828125 61.53125 20.40625 
Q 61.53125 10.640625 54.890625 5.3125 
Q 48.25 0 35.984375 0 
L 9.8125 0 
z
" id="DejaVuSans-66"/>
      <path d="M 9.8125 72.90625 
L 51.703125 72.90625 
L 51.703125 64.59375 
L 19.671875 64.59375 
L 19.671875 43.109375 
L 48.578125 43.109375 
L 48.578125 34.8125 
L 19.671875 34.8125 
L 19.671875 0 
L 9.8125 0 
z
" id="DejaVuSans-70"/>
     </defs>
     <g transform="translate(109 300.009688)scale(0.1 -0.1)">
      <use xlink:href="#DejaVuSans-82"/>
      <use x="69.482422" xlink:href="#DejaVuSans-66"/>
      <use x="138.085938" xlink:href="#DejaVuSans-70"/>
     </g>
    </g>
    <g id="line2d_40">
     <path d="M 81 311.187813 
L 101 311.187813 
" style="fill:none;stroke:#2ca02c;stroke-linecap:square;stroke-width:1.5;"/>
    </g>
    <g id="line2d_41"/>
    <g id="text_19">
     <!-- Matrn-1/2 -->
     <defs>
      <path d="M 9.8125 72.90625 
L 24.515625 72.90625 
L 43.109375 23.296875 
L 61.8125 72.90625 
L 76.515625 72.90625 
L 76.515625 0 
L 66.890625 0 
L 66.890625 64.015625 
L 48.09375 14.015625 
L 38.1875 14.015625 
L 19.390625 64.015625 
L 19.390625 0 
L 9.8125 0 
z
" id="DejaVuSans-77"/>
      <path d="M 56.203125 29.59375 
L 56.203125 25.203125 
L 14.890625 25.203125 
Q 15.484375 15.921875 20.484375 11.0625 
Q 25.484375 6.203125 34.421875 6.203125 
Q 39.59375 6.203125 44.453125 7.46875 
Q 49.3125 8.734375 54.109375 11.28125 
L 54.109375 2.78125 
Q 49.265625 0.734375 44.1875 -0.34375 
Q 39.109375 -1.421875 33.890625 -1.421875 
Q 20.796875 -1.421875 13.15625 6.1875 
Q 5.515625 13.8125 5.515625 26.8125 
Q 5.515625 40.234375 12.765625 48.109375 
Q 20.015625 56 32.328125 56 
Q 43.359375 56 49.78125 48.890625 
Q 56.203125 41.796875 56.203125 29.59375 
z
M 47.21875 32.234375 
Q 47.125 39.59375 43.09375 43.984375 
Q 39.0625 48.390625 32.421875 48.390625 
Q 24.90625 48.390625 20.390625 44.140625 
Q 15.875 39.890625 15.1875 32.171875 
z
M 38.53125 79.984375 
L 48.25 79.984375 
L 32.34375 61.625 
L 24.859375 61.625 
z
" id="DejaVuSans-233"/>
      <path d="M 4.890625 31.390625 
L 31.203125 31.390625 
L 31.203125 23.390625 
L 4.890625 23.390625 
z
" id="DejaVuSans-45"/>
      <path d="M 25.390625 72.90625 
L 33.6875 72.90625 
L 8.296875 -9.28125 
L 0 -9.28125 
z
" id="DejaVuSans-47"/>
     </defs>
     <g transform="translate(109 314.687813)scale(0.1 -0.1)">
      <use xlink:href="#DejaVuSans-77"/>
      <use x="86.279297" xlink:href="#DejaVuSans-97"/>
      <use x="147.558594" xlink:href="#DejaVuSans-116"/>
      <use x="186.767578" xlink:href="#DejaVuSans-233"/>
      <use x="248.291016" xlink:href="#DejaVuSans-114"/>
      <use x="287.654297" xlink:href="#DejaVuSans-110"/>
      <use x="351.033203" xlink:href="#DejaVuSans-45"/>
      <use x="387.117188" xlink:href="#DejaVuSans-49"/>
      <use x="450.740234" xlink:href="#DejaVuSans-47"/>
      <use x="484.431641" xlink:href="#DejaVuSans-50"/>
     </g>
    </g>
    <g id="line2d_42">
     <path d="M 81 325.865938 
L 101 325.865938 
" style="fill:none;stroke:#d62728;stroke-linecap:square;stroke-width:1.5;"/>
    </g>
    <g id="line2d_43"/>
    <g id="text_20">
     <!-- Matrn-3/2 -->
     <g transform="translate(109 329.365938)scale(0.1 -0.1)">
      <use xlink:href="#DejaVuSans-77"/>
      <use x="86.279297" xlink:href="#DejaVuSans-97"/>
      <use x="147.558594" xlink:href="#DejaVuSans-116"/>
      <use x="186.767578" xlink:href="#DejaVuSans-233"/>
      <use x="248.291016" xlink:href="#DejaVuSans-114"/>
      <use x="287.654297" xlink:href="#DejaVuSans-110"/>
      <use x="351.033203" xlink:href="#DejaVuSans-45"/>
      <use x="387.117188" xlink:href="#DejaVuSans-51"/>
      <use x="450.740234" xlink:href="#DejaVuSans-47"/>
      <use x="484.431641" xlink:href="#DejaVuSans-50"/>
     </g>
    </g>
    <g id="line2d_44">
     <path d="M 81 340.544062 
L 101 340.544062 
" style="fill:none;stroke:#9467bd;stroke-linecap:square;stroke-width:1.5;"/>
    </g>
    <g id="line2d_45"/>
    <g id="text_21">
     <!-- Matrn-5/2 -->
     <g transform="translate(109 344.044062)scale(0.1 -0.1)">
      <use xlink:href="#DejaVuSans-77"/>
      <use x="86.279297" xlink:href="#DejaVuSans-97"/>
      <use x="147.558594" xlink:href="#DejaVuSans-116"/>
      <use x="186.767578" xlink:href="#DejaVuSans-233"/>
      <use x="248.291016" xlink:href="#DejaVuSans-114"/>
      <use x="287.654297" xlink:href="#DejaVuSans-110"/>
      <use x="351.033203" xlink:href="#DejaVuSans-45"/>
      <use x="387.117188" xlink:href="#DejaVuSans-53"/>
      <use x="450.740234" xlink:href="#DejaVuSans-47"/>
      <use x="484.431641" xlink:href="#DejaVuSans-50"/>
     </g>
    </g>
    <g id="line2d_46">
     <path d="M 81 355.222188 
L 101 355.222188 
" style="fill:none;stroke:#8c564b;stroke-linecap:square;stroke-width:1.5;"/>
    </g>
    <g id="line2d_47"/>
    <g id="text_22">
     <!-- RQ -->
     <defs>
      <path d="M 39.40625 66.21875 
Q 28.65625 66.21875 22.328125 58.203125 
Q 16.015625 50.203125 16.015625 36.375 
Q 16.015625 22.609375 22.328125 14.59375 
Q 28.65625 6.59375 39.40625 6.59375 
Q 50.140625 6.59375 56.421875 14.59375 
Q 62.703125 22.609375 62.703125 36.375 
Q 62.703125 50.203125 56.421875 58.203125 
Q 50.140625 66.21875 39.40625 66.21875 
z
M 53.21875 1.3125 
L 66.21875 -12.890625 
L 54.296875 -12.890625 
L 43.5 -1.21875 
Q 41.890625 -1.3125 41.03125 -1.359375 
Q 40.1875 -1.421875 39.40625 -1.421875 
Q 24.03125 -1.421875 14.8125 8.859375 
Q 5.609375 19.140625 5.609375 36.375 
Q 5.609375 53.65625 14.8125 63.9375 
Q 24.03125 74.21875 39.40625 74.21875 
Q 54.734375 74.21875 63.90625 63.9375 
Q 73.09375 53.65625 73.09375 36.375 
Q 73.09375 23.6875 67.984375 14.640625 
Q 62.890625 5.609375 53.21875 1.3125 
z
" id="DejaVuSans-81"/>
     </defs>
     <g transform="translate(109 358.722188)scale(0.1 -0.1)">
      <use xlink:href="#DejaVuSans-82"/>
      <use x="69.482422" xlink:href="#DejaVuSans-81"/>
     </g>
    </g>
    <g id="line2d_48">
     <path d="M 81 369.900313 
L 101 369.900313 
" style="fill:none;stroke:#e377c2;stroke-linecap:square;stroke-width:1.5;"/>
    </g>
    <g id="line2d_49"/>
    <g id="text_23">
     <!-- Dot Prod. -->
     <defs>
      <path d="M 19.671875 64.796875 
L 19.671875 8.109375 
L 31.59375 8.109375 
Q 46.6875 8.109375 53.6875 14.9375 
Q 60.6875 21.78125 60.6875 36.53125 
Q 60.6875 51.171875 53.6875 57.984375 
Q 46.6875 64.796875 31.59375 64.796875 
z
M 9.8125 72.90625 
L 30.078125 72.90625 
Q 51.265625 72.90625 61.171875 64.09375 
Q 71.09375 55.28125 71.09375 36.53125 
Q 71.09375 17.671875 61.125 8.828125 
Q 51.171875 0 30.078125 0 
L 9.8125 0 
z
" id="DejaVuSans-68"/>
      <path d="M 19.671875 64.796875 
L 19.671875 37.40625 
L 32.078125 37.40625 
Q 38.96875 37.40625 42.71875 40.96875 
Q 46.484375 44.53125 46.484375 51.125 
Q 46.484375 57.671875 42.71875 61.234375 
Q 38.96875 64.796875 32.078125 64.796875 
z
M 9.8125 72.90625 
L 32.078125 72.90625 
Q 44.34375 72.90625 50.609375 67.359375 
Q 56.890625 61.8125 56.890625 51.125 
Q 56.890625 40.328125 50.609375 34.8125 
Q 44.34375 29.296875 32.078125 29.296875 
L 19.671875 29.296875 
L 19.671875 0 
L 9.8125 0 
z
" id="DejaVuSans-80"/>
      <path d="M 10.6875 12.40625 
L 21 12.40625 
L 21 0 
L 10.6875 0 
z
" id="DejaVuSans-46"/>
     </defs>
     <g transform="translate(109 373.400313)scale(0.1 -0.1)">
      <use xlink:href="#DejaVuSans-68"/>
      <use x="77.001953" xlink:href="#DejaVuSans-111"/>
      <use x="138.183594" xlink:href="#DejaVuSans-116"/>
      <use x="177.392578" xlink:href="#DejaVuSans-32"/>
      <use x="209.179688" xlink:href="#DejaVuSans-80"/>
      <use x="267.732422" xlink:href="#DejaVuSans-114"/>
      <use x="306.595703" xlink:href="#DejaVuSans-111"/>
      <use x="367.777344" xlink:href="#DejaVuSans-100"/>
      <use x="431.253906" xlink:href="#DejaVuSans-46"/>
     </g>
    </g>
   </g>
  </g>
 </g>
 <defs>
  <clipPath id="p502b6d258f">
   <rect height="332.64" width="446.4" x="72" y="51.84"/>
  </clipPath>
 </defs>
</svg>
