<?xml version="1.0" encoding="utf-8" standalone="no"?>
<!DOCTYPE svg PUBLIC "-//W3C//DTD SVG 1.1//EN"
  "http://www.w3.org/Graphics/SVG/1.1/DTD/svg11.dtd">
<!-- Created with matplotlib (https://matplotlib.org/) -->
<svg height="432pt" version="1.1" viewBox="0 0 576 432" width="576pt" xmlns="http://www.w3.org/2000/svg" xmlns:xlink="http://www.w3.org/1999/xlink">
 <defs>
  <style type="text/css">
*{stroke-linecap:butt;stroke-linejoin:round;}
  </style>
 </defs>
 <g id="figure_1">
  <g id="patch_1">
   <path d="M 0 432 
L 576 432 
L 576 0 
L 0 0 
z
" style="fill:#ffffff;"/>
  </g>
  <g id="axes_1">
   <g id="patch_2">
    <path d="M 72 384.48 
L 518.4 384.48 
L 518.4 51.84 
L 72 51.84 
z
" style="fill:#ffffff;"/>
   </g>
   <g id="PolyCollection_1">
    <path clip-path="url(#p982956dca3)" d="M 170.208 236.97222 
L 170.208 30.853727 
L 170.208 236.97222 
L 170.208 236.97222 
z
" style="fill:#1f77b4;fill-opacity:0.3;"/>
    <path clip-path="url(#p982956dca3)" d="M 188.064 77.182593 
L 188.064 -79.591541 
L 188.064 77.182593 
L 188.064 77.182593 
z
" style="fill:#1f77b4;fill-opacity:0.3;"/>
    <path clip-path="url(#p982956dca3)" d="M 259.488 -34.398072 
L 259.488 -55.174912 
L 259.488 -34.398072 
L 259.488 -34.398072 
z
" style="fill:#1f77b4;fill-opacity:0.3;"/>
    <path clip-path="url(#p982956dca3)" d="M 286.272 -39.793794 
L 286.272 -52.503237 
L 286.272 -39.793794 
L 286.272 -39.793794 
z
" style="fill:#1f77b4;fill-opacity:0.3;"/>
    <path clip-path="url(#p982956dca3)" d="M 429.12 108.678648 
L 429.12 -129.845541 
L 429.12 108.678648 
L 429.12 108.678648 
z
" style="fill:#1f77b4;fill-opacity:0.3;"/>
   </g>
   <g id="PolyCollection_2">
    <path clip-path="url(#p982956dca3)" d="M 72 102.635896 
L 72 82.290303 
L 80.928 80.732061 
L 89.856 90.473085 
L 98.784 98.073893 
L 107.712 102.557956 
L 116.64 99.45663 
L 125.568 116.077986 
L 134.496 121.461461 
L 143.424 122.124195 
L 152.352 127.622637 
L 161.28 119.246977 
L 170.208 106.281314 
L 179.136 105.741611 
L 188.064 75.693196 
L 196.992 75.693196 
L 205.92 75.693196 
L 214.848 75.693196 
L 223.776 75.693196 
L 232.704 75.693196 
L 241.632 75.693196 
L 250.56 75.693196 
L 259.488 75.693196 
L 268.416 75.693196 
L 277.344 75.693196 
L 286.272 75.693196 
L 295.2 75.693196 
L 304.128 75.693196 
L 313.056 75.693196 
L 321.984 75.693196 
L 330.912 75.693196 
L 339.84 75.693196 
L 348.768 75.693196 
L 357.696 75.693196 
L 366.624 75.693196 
L 375.552 75.693196 
L 384.48 75.693196 
L 393.408 75.693196 
L 402.336 75.693196 
L 411.264 75.693196 
L 420.192 75.693196 
L 429.12 75.693196 
L 438.048 75.693196 
L 446.976 75.693196 
L 455.904 75.693196 
L 464.832 75.693196 
L 473.76 75.693196 
L 482.688 75.693196 
L 491.616 75.693196 
L 500.544 75.693196 
L 509.472 75.693196 
L 518.4 75.693196 
L 518.4 75.693196 
L 518.4 75.693196 
L 509.472 75.693196 
L 500.544 75.693196 
L 491.616 75.693196 
L 482.688 75.693196 
L 473.76 75.693196 
L 464.832 75.693196 
L 455.904 75.693196 
L 446.976 75.693196 
L 438.048 75.693196 
L 429.12 75.693196 
L 420.192 75.693196 
L 411.264 75.693196 
L 402.336 75.693196 
L 393.408 75.693196 
L 384.48 75.693196 
L 375.552 75.693196 
L 366.624 75.693196 
L 357.696 75.693196 
L 348.768 75.693196 
L 339.84 75.693196 
L 330.912 75.693196 
L 321.984 75.693196 
L 313.056 75.693196 
L 304.128 75.693196 
L 295.2 75.693196 
L 286.272 75.693196 
L 277.344 75.693196 
L 268.416 75.693196 
L 259.488 75.693196 
L 250.56 75.693196 
L 241.632 75.693196 
L 232.704 75.693196 
L 223.776 75.693196 
L 214.848 75.693196 
L 205.92 75.693196 
L 196.992 75.693196 
L 188.064 75.693196 
L 179.136 163.14863 
L 170.208 155.272696 
L 161.28 153.649927 
L 152.352 137.082371 
L 143.424 129.197416 
L 134.496 130.345112 
L 125.568 124.853525 
L 116.64 110.929677 
L 107.712 123.749414 
L 98.784 116.010027 
L 89.856 111.658209 
L 80.928 97.27528 
L 72 102.635896 
z
" style="fill:#ff7f0e;fill-opacity:0.3;"/>
   </g>
   <g id="PolyCollection_3">
    <path clip-path="url(#p982956dca3)" d="M 72 87.408567 
L 72 80.10607 
L 80.928 79.587061 
L 89.856 85.836891 
L 98.784 88.312599 
L 107.712 90.002091 
L 116.64 89.431549 
L 125.568 91.984381 
L 134.496 92.848648 
L 143.424 93.703476 
L 152.352 94.623987 
L 161.28 95.254185 
L 170.208 96.297567 
L 179.136 97.43399 
L 188.064 98.042083 
L 196.992 99.493625 
L 205.92 99.9943 
L 214.848 100.405962 
L 223.776 100.923111 
L 232.704 101.455172 
L 241.632 101.727266 
L 250.56 102.256699 
L 259.488 102.816226 
L 268.416 103.390387 
L 277.344 103.983255 
L 286.272 104.588821 
L 295.2 105.221559 
L 304.128 105.889803 
L 313.056 106.600508 
L 321.984 107.313294 
L 330.912 108.069912 
L 339.84 108.849363 
L 348.768 109.165871 
L 357.696 109.466578 
L 366.624 109.787566 
L 375.552 110.100849 
L 384.48 110.422292 
L 393.408 110.748166 
L 402.336 111.075273 
L 411.264 111.401105 
L 420.192 111.723639 
L 429.12 112.054666 
L 438.048 112.387546 
L 446.976 112.667902 
L 455.904 113.007149 
L 464.832 113.348919 
L 473.76 113.685515 
L 482.688 114.033326 
L 491.616 114.385038 
L 500.544 114.722779 
L 509.472 115.081597 
L 518.4 115.444936 
L 518.4 115.590689 
L 518.4 115.590689 
L 509.472 115.223993 
L 500.544 114.86176 
L 491.616 114.520322 
L 482.688 114.167674 
L 473.76 113.820501 
L 464.832 113.483132 
L 455.904 113.139545 
L 446.976 112.797286 
L 438.048 112.514377 
L 429.12 112.17966 
L 420.192 111.847583 
L 411.264 111.524896 
L 402.336 111.196309 
L 393.408 110.867076 
L 384.48 110.53915 
L 375.552 110.215671 
L 366.624 109.898226 
L 357.696 109.575431 
L 348.768 109.268996 
L 339.84 108.949178 
L 330.912 108.164605 
L 321.984 107.454716 
L 313.056 106.733504 
L 304.128 106.145237 
L 295.2 105.5142 
L 286.272 104.886633 
L 277.344 104.267903 
L 268.416 103.674426 
L 259.488 103.09238 
L 250.56 102.52428 
L 241.632 101.982924 
L 232.704 101.698897 
L 223.776 101.158158 
L 214.848 100.632782 
L 205.92 100.208024 
L 196.992 99.698132 
L 188.064 98.488132 
L 179.136 97.853176 
L 170.208 96.70681 
L 161.28 95.748457 
L 152.352 95.094953 
L 143.424 94.202247 
L 134.496 93.328672 
L 125.568 92.437949 
L 116.64 90.557517 
L 107.712 91.529173 
L 98.784 90.026077 
L 89.856 88.270571 
L 80.928 85.765992 
L 72 87.408567 
z
" style="fill:#2ca02c;fill-opacity:0.3;"/>
   </g>
   <g id="PolyCollection_4">
    <path clip-path="url(#p982956dca3)" d="M 72 93.660744 
L 72 78.090851 
L 80.928 77.952989 
L 89.856 86.683586 
L 98.784 93.530237 
L 107.712 96.992448 
L 116.64 96.497027 
L 125.568 103.559323 
L 134.496 105.528106 
L 143.424 107.229376 
L 152.352 109.526805 
L 161.28 111.889099 
L 170.208 114.294554 
L 179.136 117.178478 
L 188.064 117.8652 
L 196.992 124.238333 
L 205.92 125.383782 
L 214.848 126.511512 
L 223.776 127.776458 
L 232.704 129.009506 
L 241.632 129.967029 
L 250.56 131.427188 
L 259.488 132.904062 
L 268.416 134.576343 
L 277.344 135.899007 
L 286.272 137.218439 
L 295.2 138.681502 
L 304.128 140.265433 
L 313.056 142.012911 
L 321.984 144.012265 
L 330.912 146.186535 
L 339.84 150.746481 
L 348.768 151.401558 
L 357.696 152.048793 
L 366.624 152.728549 
L 375.552 153.395837 
L 384.48 154.088914 
L 393.408 154.780021 
L 402.336 155.471465 
L 411.264 156.212891 
L 420.192 156.932013 
L 429.12 157.654415 
L 438.048 158.49126 
L 446.976 159.260741 
L 455.904 160.040725 
L 464.832 160.872917 
L 473.76 161.729578 
L 482.688 162.636588 
L 491.616 163.317007 
L 500.544 164.004577 
L 509.472 164.727214 
L 518.4 165.44073 
L 518.4 165.865955 
L 518.4 165.865955 
L 509.472 165.114814 
L 500.544 164.366648 
L 491.616 163.653261 
L 482.688 162.948412 
L 473.76 162.058353 
L 464.832 161.204291 
L 455.904 160.361379 
L 446.976 159.563476 
L 438.048 158.780409 
L 429.12 157.931395 
L 420.192 157.192832 
L 411.264 156.46174 
L 402.336 155.717847 
L 393.408 155.015326 
L 384.48 154.303501 
L 375.552 153.595833 
L 366.624 152.898842 
L 357.696 152.205442 
L 348.768 151.524744 
L 339.84 150.825436 
L 330.912 147.962234 
L 321.984 145.565932 
L 313.056 143.277358 
L 304.128 141.388427 
L 295.2 139.659132 
L 286.272 138.072721 
L 277.344 136.626181 
L 268.416 135.217419 
L 259.488 133.563763 
L 250.56 132.089463 
L 241.632 130.582539 
L 232.704 129.55958 
L 223.776 128.274701 
L 214.848 126.958389 
L 205.92 125.71094 
L 196.992 124.457509 
L 188.064 120.19371 
L 179.136 118.975677 
L 170.208 115.931177 
L 161.28 113.649298 
L 152.352 111.618098 
L 143.424 109.366761 
L 134.496 107.815598 
L 125.568 105.868124 
L 116.64 100.166358 
L 107.712 103.807459 
L 98.784 100.416305 
L 89.856 97.940048 
L 80.928 90.244162 
L 72 93.660744 
z
" style="fill:#d62728;fill-opacity:0.3;"/>
   </g>
   <g id="PolyCollection_5">
    <path clip-path="url(#p982956dca3)" d="M 72 95.897839 
L 72 80.718798 
L 80.928 79.4571 
L 89.856 88.579905 
L 98.784 95.440109 
L 107.712 99.120394 
L 116.64 98.05218 
L 125.568 107.984989 
L 134.496 110.687952 
L 143.424 112.637143 
L 152.352 115.647042 
L 161.28 118.563539 
L 170.208 121.370095 
L 179.136 124.690532 
L 188.064 124.442355 
L 196.992 136.585596 
L 205.92 138.370922 
L 214.848 139.85149 
L 223.776 141.881042 
L 232.704 144.004314 
L 241.632 145.325052 
L 250.56 147.715042 
L 259.488 150.158937 
L 268.416 153.15338 
L 277.344 154.665414 
L 286.272 156.231887 
L 295.2 157.793893 
L 304.128 159.601129 
L 313.056 161.578529 
L 321.984 163.808582 
L 330.912 165.98183 
L 339.84 177.648987 
L 348.768 178.709275 
L 357.696 179.655365 
L 366.624 180.649431 
L 375.552 181.657858 
L 384.48 182.656026 
L 393.408 183.790468 
L 402.336 184.913138 
L 411.264 186.101617 
L 420.192 187.072211 
L 429.12 188.080675 
L 438.048 189.814379 
L 446.976 190.95987 
L 455.904 192.211097 
L 464.832 193.555884 
L 473.76 195.047365 
L 482.688 196.769619 
L 491.616 197.545858 
L 500.544 198.365836 
L 509.472 199.201418 
L 518.4 200.066126 
L 518.4 200.467942 
L 518.4 200.467942 
L 509.472 199.565187 
L 500.544 198.705769 
L 491.616 197.865432 
L 482.688 197.046649 
L 473.76 195.561199 
L 464.832 194.091362 
L 455.904 192.761474 
L 446.976 191.493714 
L 438.048 190.313781 
L 429.12 188.722805 
L 420.192 187.650752 
L 411.264 186.623452 
L 402.336 185.433358 
L 393.408 184.295006 
L 384.48 183.207454 
L 375.552 182.132341 
L 366.624 181.060997 
L 357.696 180.0209 
L 348.768 179.001284 
L 339.84 177.810275 
L 330.912 169.94526 
L 321.984 166.656244 
L 313.056 163.780321 
L 304.128 161.389399 
L 295.2 159.290722 
L 286.272 157.456678 
L 277.344 155.655019 
L 268.416 153.97323 
L 259.488 151.202709 
L 250.56 148.728926 
L 241.632 146.35403 
L 232.704 144.766293 
L 223.776 142.644319 
L 214.848 140.724101 
L 205.92 139.132296 
L 196.992 137.238677 
L 188.064 130.231923 
L 179.136 129.170952 
L 170.208 125.289825 
L 161.28 122.330664 
L 152.352 118.859522 
L 143.424 115.952882 
L 134.496 114.51163 
L 125.568 111.803193 
L 116.64 104.496223 
L 107.712 109.584959 
L 98.784 105.837813 
L 89.856 102.451602 
L 80.928 91.080061 
L 72 95.897839 
z
" style="fill:#9467bd;fill-opacity:0.3;"/>
   </g>
   <g id="PolyCollection_6">
    <path clip-path="url(#p982956dca3)" d="M 72 97.161122 
L 72 77.443914 
L 80.928 77.044942 
L 89.856 85.330133 
L 98.784 93.31023 
L 107.712 96.962352 
L 116.64 95.877679 
L 125.568 102.445013 
L 134.496 106.74305 
L 143.424 108.520922 
L 152.352 112.744008 
L 161.28 119.412069 
L 170.208 123.005249 
L 179.136 127.897232 
L 188.064 125.980888 
L 196.992 143.406906 
L 205.92 148.61623 
L 214.848 149.404053 
L 223.776 154.69271 
L 232.704 160.450658 
L 241.632 161.661064 
L 250.56 168.975608 
L 259.488 173.821983 
L 268.416 180.907227 
L 277.344 186.546081 
L 286.272 187.787864 
L 295.2 189.840539 
L 304.128 189.197819 
L 313.056 190.501925 
L 321.984 191.408064 
L 330.912 189.094965 
L 339.84 228.339912 
L 348.768 231.041865 
L 357.696 231.031867 
L 366.624 232.429405 
L 375.552 233.589233 
L 384.48 231.139823 
L 393.408 242.944695 
L 402.336 237.40814 
L 411.264 241.685945 
L 420.192 235.078077 
L 429.12 232.919533 
L 438.048 230.298408 
L 446.976 224.208085 
L 455.904 224.816721 
L 464.832 220.597852 
L 473.76 220.945853 
L 482.688 217.436462 
L 491.616 215.664307 
L 500.544 212.87307 
L 509.472 213.774964 
L 518.4 214.143497 
L 518.4 233.643334 
L 518.4 233.643334 
L 509.472 232.527185 
L 500.544 244.098866 
L 491.616 248.6285 
L 482.688 254.346544 
L 473.76 248.607849 
L 464.832 249.498807 
L 455.904 249.087382 
L 446.976 260.074259 
L 438.048 258.698082 
L 429.12 254.262815 
L 420.192 256.999409 
L 411.264 257.400682 
L 402.336 257.626688 
L 393.408 257.433255 
L 384.48 247.458619 
L 375.552 246.933437 
L 366.624 245.134954 
L 357.696 241.76749 
L 348.768 244.014917 
L 339.84 233.463817 
L 330.912 198.481187 
L 321.984 201.710487 
L 313.056 200.024777 
L 304.128 198.364729 
L 295.2 199.310546 
L 286.272 195.739651 
L 277.344 194.839467 
L 268.416 188.550866 
L 259.488 181.081167 
L 250.56 175.257311 
L 241.632 167.583223 
L 232.704 162.933606 
L 223.776 157.120143 
L 214.848 151.301439 
L 205.92 152.774392 
L 196.992 146.878767 
L 188.064 133.218366 
L 179.136 138.880308 
L 170.208 132.163072 
L 161.28 128.871999 
L 152.352 120.459084 
L 143.424 115.232572 
L 134.496 116.344519 
L 125.568 109.767366 
L 116.64 101.704486 
L 107.712 112.166676 
L 98.784 111.066631 
L 89.856 101.498914 
L 80.928 90.439837 
L 72 97.161122 
z
" style="fill:#8c564b;fill-opacity:0.3;"/>
   </g>
   <g id="PolyCollection_7">
    <path clip-path="url(#p982956dca3)" d="M 80.928 211.948331 
L 80.928 160.705048 
L 89.856 160.259192 
L 89.856 202.948687 
L 89.856 202.948687 
L 80.928 211.948331 
z
" style="fill:#e377c2;fill-opacity:0.3;"/>
    <path clip-path="url(#p982956dca3)" d="M 107.712 186.638092 
L 107.712 160.148329 
L 116.64 158.117477 
L 125.568 149.365512 
L 134.496 143.349282 
L 143.424 153.397335 
L 152.352 159.000934 
L 161.28 157.542003 
L 170.208 157.407798 
L 179.136 158.134069 
L 179.136 194.876243 
L 179.136 194.876243 
L 170.208 199.071276 
L 161.28 207.124173 
L 152.352 202.72141 
L 143.424 210.660023 
L 134.496 222.089516 
L 125.568 205.393714 
L 116.64 205.391043 
L 107.712 186.638092 
z
" style="fill:#e377c2;fill-opacity:0.3;"/>
    <path clip-path="url(#p982956dca3)" d="M 196.992 189.412516 
L 196.992 148.731521 
L 205.92 151.730677 
L 214.848 134.066404 
L 223.776 139.400428 
L 223.776 225.627374 
L 223.776 225.627374 
L 214.848 229.60875 
L 205.92 198.199491 
L 196.992 189.412516 
z
" style="fill:#e377c2;fill-opacity:0.3;"/>
    <path clip-path="url(#p982956dca3)" d="M 241.632 182.244154 
L 241.632 141.682416 
L 241.632 182.244154 
L 241.632 182.244154 
z
" style="fill:#e377c2;fill-opacity:0.3;"/>
    <path clip-path="url(#p982956dca3)" d="M 259.488 191.547928 
L 259.488 145.458272 
L 268.416 149.287321 
L 268.416 213.892833 
L 268.416 213.892833 
L 259.488 191.547928 
z
" style="fill:#e377c2;fill-opacity:0.3;"/>
    <path clip-path="url(#p982956dca3)" d="M 286.272 230.89811 
L 286.272 137.852849 
L 286.272 230.89811 
L 286.272 230.89811 
z
" style="fill:#e377c2;fill-opacity:0.3;"/>
    <path clip-path="url(#p982956dca3)" d="M 313.056 201.051331 
L 313.056 141.689061 
L 313.056 201.051331 
L 313.056 201.051331 
z
" style="fill:#e377c2;fill-opacity:0.3;"/>
    <path clip-path="url(#p982956dca3)" d="M 330.912 194.486005 
L 330.912 136.147636 
L 330.912 194.486005 
L 330.912 194.486005 
z
" style="fill:#e377c2;fill-opacity:0.3;"/>
    <path clip-path="url(#p982956dca3)" d="M 366.624 207.573455 
L 366.624 126.23468 
L 366.624 207.573455 
L 366.624 207.573455 
z
" style="fill:#e377c2;fill-opacity:0.3;"/>
    <path clip-path="url(#p982956dca3)" d="M 393.408 190.246097 
L 393.408 132.784686 
L 393.408 190.246097 
L 393.408 190.246097 
z
" style="fill:#e377c2;fill-opacity:0.3;"/>
    <path clip-path="url(#p982956dca3)" d="M 411.264 193.524253 
L 411.264 130.561915 
L 411.264 193.524253 
L 411.264 193.524253 
z
" style="fill:#e377c2;fill-opacity:0.3;"/>
    <path clip-path="url(#p982956dca3)" d="M 446.976 200.896746 
L 446.976 127.486152 
L 446.976 200.896746 
L 446.976 200.896746 
z
" style="fill:#e377c2;fill-opacity:0.3;"/>
    <path clip-path="url(#p982956dca3)" d="M 482.688 189.61568 
L 482.688 135.726573 
L 491.616 118.215221 
L 491.616 220.100955 
L 491.616 220.100955 
L 482.688 189.61568 
z
" style="fill:#e377c2;fill-opacity:0.3;"/>
    <path clip-path="url(#p982956dca3)" d="M 509.472 186.820302 
L 509.472 132.247841 
L 518.4 123.714395 
L 518.4 197.455917 
L 518.4 197.455917 
L 509.472 186.820302 
z
" style="fill:#e377c2;fill-opacity:0.3;"/>
   </g>
   <g id="matplotlib.axis_1">
    <g id="xtick_1">
     <g id="line2d_1">
      <path clip-path="url(#p982956dca3)" d="M 72 384.48 
L 72 51.84 
" style="fill:none;stroke:#b0b0b0;stroke-linecap:square;stroke-width:0.8;"/>
     </g>
     <g id="line2d_2">
      <defs>
       <path d="M 0 0 
L 0 3.5 
" id="m5caa7f2ec5" style="stroke:#000000;stroke-width:0.8;"/>
      </defs>
      <g>
       <use style="stroke:#000000;stroke-width:0.8;" x="72" xlink:href="#m5caa7f2ec5" y="384.48"/>
      </g>
     </g>
     <g id="text_1">
      <!-- 0 -->
      <defs>
       <path d="M 31.78125 66.40625 
Q 24.171875 66.40625 20.328125 58.90625 
Q 16.5 51.421875 16.5 36.375 
Q 16.5 21.390625 20.328125 13.890625 
Q 24.171875 6.390625 31.78125 6.390625 
Q 39.453125 6.390625 43.28125 13.890625 
Q 47.125 21.390625 47.125 36.375 
Q 47.125 51.421875 43.28125 58.90625 
Q 39.453125 66.40625 31.78125 66.40625 
z
M 31.78125 74.21875 
Q 44.046875 74.21875 50.515625 64.515625 
Q 56.984375 54.828125 56.984375 36.375 
Q 56.984375 17.96875 50.515625 8.265625 
Q 44.046875 -1.421875 31.78125 -1.421875 
Q 19.53125 -1.421875 13.0625 8.265625 
Q 6.59375 17.96875 6.59375 36.375 
Q 6.59375 54.828125 13.0625 64.515625 
Q 19.53125 74.21875 31.78125 74.21875 
z
" id="DejaVuSans-48"/>
      </defs>
      <g transform="translate(68.81875 399.078438)scale(0.1 -0.1)">
       <use xlink:href="#DejaVuSans-48"/>
      </g>
     </g>
    </g>
    <g id="xtick_2">
     <g id="line2d_3">
      <path clip-path="url(#p982956dca3)" d="M 161.28 384.48 
L 161.28 51.84 
" style="fill:none;stroke:#b0b0b0;stroke-linecap:square;stroke-width:0.8;"/>
     </g>
     <g id="line2d_4">
      <g>
       <use style="stroke:#000000;stroke-width:0.8;" x="161.28" xlink:href="#m5caa7f2ec5" y="384.48"/>
      </g>
     </g>
     <g id="text_2">
      <!-- 10 -->
      <defs>
       <path d="M 12.40625 8.296875 
L 28.515625 8.296875 
L 28.515625 63.921875 
L 10.984375 60.40625 
L 10.984375 69.390625 
L 28.421875 72.90625 
L 38.28125 72.90625 
L 38.28125 8.296875 
L 54.390625 8.296875 
L 54.390625 0 
L 12.40625 0 
z
" id="DejaVuSans-49"/>
      </defs>
      <g transform="translate(154.9175 399.078438)scale(0.1 -0.1)">
       <use xlink:href="#DejaVuSans-49"/>
       <use x="63.623047" xlink:href="#DejaVuSans-48"/>
      </g>
     </g>
    </g>
    <g id="xtick_3">
     <g id="line2d_5">
      <path clip-path="url(#p982956dca3)" d="M 250.56 384.48 
L 250.56 51.84 
" style="fill:none;stroke:#b0b0b0;stroke-linecap:square;stroke-width:0.8;"/>
     </g>
     <g id="line2d_6">
      <g>
       <use style="stroke:#000000;stroke-width:0.8;" x="250.56" xlink:href="#m5caa7f2ec5" y="384.48"/>
      </g>
     </g>
     <g id="text_3">
      <!-- 20 -->
      <defs>
       <path d="M 19.1875 8.296875 
L 53.609375 8.296875 
L 53.609375 0 
L 7.328125 0 
L 7.328125 8.296875 
Q 12.9375 14.109375 22.625 23.890625 
Q 32.328125 33.6875 34.8125 36.53125 
Q 39.546875 41.84375 41.421875 45.53125 
Q 43.3125 49.21875 43.3125 52.78125 
Q 43.3125 58.59375 39.234375 62.25 
Q 35.15625 65.921875 28.609375 65.921875 
Q 23.96875 65.921875 18.8125 64.3125 
Q 13.671875 62.703125 7.8125 59.421875 
L 7.8125 69.390625 
Q 13.765625 71.78125 18.9375 73 
Q 24.125 74.21875 28.421875 74.21875 
Q 39.75 74.21875 46.484375 68.546875 
Q 53.21875 62.890625 53.21875 53.421875 
Q 53.21875 48.921875 51.53125 44.890625 
Q 49.859375 40.875 45.40625 35.40625 
Q 44.1875 33.984375 37.640625 27.21875 
Q 31.109375 20.453125 19.1875 8.296875 
z
" id="DejaVuSans-50"/>
      </defs>
      <g transform="translate(244.1975 399.078438)scale(0.1 -0.1)">
       <use xlink:href="#DejaVuSans-50"/>
       <use x="63.623047" xlink:href="#DejaVuSans-48"/>
      </g>
     </g>
    </g>
    <g id="xtick_4">
     <g id="line2d_7">
      <path clip-path="url(#p982956dca3)" d="M 339.84 384.48 
L 339.84 51.84 
" style="fill:none;stroke:#b0b0b0;stroke-linecap:square;stroke-width:0.8;"/>
     </g>
     <g id="line2d_8">
      <g>
       <use style="stroke:#000000;stroke-width:0.8;" x="339.84" xlink:href="#m5caa7f2ec5" y="384.48"/>
      </g>
     </g>
     <g id="text_4">
      <!-- 30 -->
      <defs>
       <path d="M 40.578125 39.3125 
Q 47.65625 37.796875 51.625 33 
Q 55.609375 28.21875 55.609375 21.1875 
Q 55.609375 10.40625 48.1875 4.484375 
Q 40.765625 -1.421875 27.09375 -1.421875 
Q 22.515625 -1.421875 17.65625 -0.515625 
Q 12.796875 0.390625 7.625 2.203125 
L 7.625 11.71875 
Q 11.71875 9.328125 16.59375 8.109375 
Q 21.484375 6.890625 26.8125 6.890625 
Q 36.078125 6.890625 40.9375 10.546875 
Q 45.796875 14.203125 45.796875 21.1875 
Q 45.796875 27.640625 41.28125 31.265625 
Q 36.765625 34.90625 28.71875 34.90625 
L 20.21875 34.90625 
L 20.21875 43.015625 
L 29.109375 43.015625 
Q 36.375 43.015625 40.234375 45.921875 
Q 44.09375 48.828125 44.09375 54.296875 
Q 44.09375 59.90625 40.109375 62.90625 
Q 36.140625 65.921875 28.71875 65.921875 
Q 24.65625 65.921875 20.015625 65.03125 
Q 15.375 64.15625 9.8125 62.3125 
L 9.8125 71.09375 
Q 15.4375 72.65625 20.34375 73.4375 
Q 25.25 74.21875 29.59375 74.21875 
Q 40.828125 74.21875 47.359375 69.109375 
Q 53.90625 64.015625 53.90625 55.328125 
Q 53.90625 49.265625 50.4375 45.09375 
Q 46.96875 40.921875 40.578125 39.3125 
z
" id="DejaVuSans-51"/>
      </defs>
      <g transform="translate(333.4775 399.078438)scale(0.1 -0.1)">
       <use xlink:href="#DejaVuSans-51"/>
       <use x="63.623047" xlink:href="#DejaVuSans-48"/>
      </g>
     </g>
    </g>
    <g id="xtick_5">
     <g id="line2d_9">
      <path clip-path="url(#p982956dca3)" d="M 429.12 384.48 
L 429.12 51.84 
" style="fill:none;stroke:#b0b0b0;stroke-linecap:square;stroke-width:0.8;"/>
     </g>
     <g id="line2d_10">
      <g>
       <use style="stroke:#000000;stroke-width:0.8;" x="429.12" xlink:href="#m5caa7f2ec5" y="384.48"/>
      </g>
     </g>
     <g id="text_5">
      <!-- 40 -->
      <defs>
       <path d="M 37.796875 64.3125 
L 12.890625 25.390625 
L 37.796875 25.390625 
z
M 35.203125 72.90625 
L 47.609375 72.90625 
L 47.609375 25.390625 
L 58.015625 25.390625 
L 58.015625 17.1875 
L 47.609375 17.1875 
L 47.609375 0 
L 37.796875 0 
L 37.796875 17.1875 
L 4.890625 17.1875 
L 4.890625 26.703125 
z
" id="DejaVuSans-52"/>
      </defs>
      <g transform="translate(422.7575 399.078438)scale(0.1 -0.1)">
       <use xlink:href="#DejaVuSans-52"/>
       <use x="63.623047" xlink:href="#DejaVuSans-48"/>
      </g>
     </g>
    </g>
    <g id="xtick_6">
     <g id="line2d_11">
      <path clip-path="url(#p982956dca3)" d="M 518.4 384.48 
L 518.4 51.84 
" style="fill:none;stroke:#b0b0b0;stroke-linecap:square;stroke-width:0.8;"/>
     </g>
     <g id="line2d_12">
      <g>
       <use style="stroke:#000000;stroke-width:0.8;" x="518.4" xlink:href="#m5caa7f2ec5" y="384.48"/>
      </g>
     </g>
     <g id="text_6">
      <!-- 50 -->
      <defs>
       <path d="M 10.796875 72.90625 
L 49.515625 72.90625 
L 49.515625 64.59375 
L 19.828125 64.59375 
L 19.828125 46.734375 
Q 21.96875 47.46875 24.109375 47.828125 
Q 26.265625 48.1875 28.421875 48.1875 
Q 40.625 48.1875 47.75 41.5 
Q 54.890625 34.8125 54.890625 23.390625 
Q 54.890625 11.625 47.5625 5.09375 
Q 40.234375 -1.421875 26.90625 -1.421875 
Q 22.3125 -1.421875 17.546875 -0.640625 
Q 12.796875 0.140625 7.71875 1.703125 
L 7.71875 11.625 
Q 12.109375 9.234375 16.796875 8.0625 
Q 21.484375 6.890625 26.703125 6.890625 
Q 35.15625 6.890625 40.078125 11.328125 
Q 45.015625 15.765625 45.015625 23.390625 
Q 45.015625 31 40.078125 35.4375 
Q 35.15625 39.890625 26.703125 39.890625 
Q 22.75 39.890625 18.8125 39.015625 
Q 14.890625 38.140625 10.796875 36.28125 
z
" id="DejaVuSans-53"/>
      </defs>
      <g transform="translate(512.0375 399.078438)scale(0.1 -0.1)">
       <use xlink:href="#DejaVuSans-53"/>
       <use x="63.623047" xlink:href="#DejaVuSans-48"/>
      </g>
     </g>
    </g>
    <g id="text_7">
     <!-- Iteration -->
     <defs>
      <path d="M 9.8125 72.90625 
L 19.671875 72.90625 
L 19.671875 0 
L 9.8125 0 
z
" id="DejaVuSans-73"/>
      <path d="M 18.3125 70.21875 
L 18.3125 54.6875 
L 36.8125 54.6875 
L 36.8125 47.703125 
L 18.3125 47.703125 
L 18.3125 18.015625 
Q 18.3125 11.328125 20.140625 9.421875 
Q 21.96875 7.515625 27.59375 7.515625 
L 36.8125 7.515625 
L 36.8125 0 
L 27.59375 0 
Q 17.1875 0 13.234375 3.875 
Q 9.28125 7.765625 9.28125 18.015625 
L 9.28125 47.703125 
L 2.6875 47.703125 
L 2.6875 54.6875 
L 9.28125 54.6875 
L 9.28125 70.21875 
z
" id="DejaVuSans-116"/>
      <path d="M 56.203125 29.59375 
L 56.203125 25.203125 
L 14.890625 25.203125 
Q 15.484375 15.921875 20.484375 11.0625 
Q 25.484375 6.203125 34.421875 6.203125 
Q 39.59375 6.203125 44.453125 7.46875 
Q 49.3125 8.734375 54.109375 11.28125 
L 54.109375 2.78125 
Q 49.265625 0.734375 44.1875 -0.34375 
Q 39.109375 -1.421875 33.890625 -1.421875 
Q 20.796875 -1.421875 13.15625 6.1875 
Q 5.515625 13.8125 5.515625 26.8125 
Q 5.515625 40.234375 12.765625 48.109375 
Q 20.015625 56 32.328125 56 
Q 43.359375 56 49.78125 48.890625 
Q 56.203125 41.796875 56.203125 29.59375 
z
M 47.21875 32.234375 
Q 47.125 39.59375 43.09375 43.984375 
Q 39.0625 48.390625 32.421875 48.390625 
Q 24.90625 48.390625 20.390625 44.140625 
Q 15.875 39.890625 15.1875 32.171875 
z
" id="DejaVuSans-101"/>
      <path d="M 41.109375 46.296875 
Q 39.59375 47.171875 37.8125 47.578125 
Q 36.03125 48 33.890625 48 
Q 26.265625 48 22.1875 43.046875 
Q 18.109375 38.09375 18.109375 28.8125 
L 18.109375 0 
L 9.078125 0 
L 9.078125 54.6875 
L 18.109375 54.6875 
L 18.109375 46.1875 
Q 20.953125 51.171875 25.484375 53.578125 
Q 30.03125 56 36.53125 56 
Q 37.453125 56 38.578125 55.875 
Q 39.703125 55.765625 41.0625 55.515625 
z
" id="DejaVuSans-114"/>
      <path d="M 34.28125 27.484375 
Q 23.390625 27.484375 19.1875 25 
Q 14.984375 22.515625 14.984375 16.5 
Q 14.984375 11.71875 18.140625 8.90625 
Q 21.296875 6.109375 26.703125 6.109375 
Q 34.1875 6.109375 38.703125 11.40625 
Q 43.21875 16.703125 43.21875 25.484375 
L 43.21875 27.484375 
z
M 52.203125 31.203125 
L 52.203125 0 
L 43.21875 0 
L 43.21875 8.296875 
Q 40.140625 3.328125 35.546875 0.953125 
Q 30.953125 -1.421875 24.3125 -1.421875 
Q 15.921875 -1.421875 10.953125 3.296875 
Q 6 8.015625 6 15.921875 
Q 6 25.140625 12.171875 29.828125 
Q 18.359375 34.515625 30.609375 34.515625 
L 43.21875 34.515625 
L 43.21875 35.40625 
Q 43.21875 41.609375 39.140625 45 
Q 35.0625 48.390625 27.6875 48.390625 
Q 23 48.390625 18.546875 47.265625 
Q 14.109375 46.140625 10.015625 43.890625 
L 10.015625 52.203125 
Q 14.9375 54.109375 19.578125 55.046875 
Q 24.21875 56 28.609375 56 
Q 40.484375 56 46.34375 49.84375 
Q 52.203125 43.703125 52.203125 31.203125 
z
" id="DejaVuSans-97"/>
      <path d="M 9.421875 54.6875 
L 18.40625 54.6875 
L 18.40625 0 
L 9.421875 0 
z
M 9.421875 75.984375 
L 18.40625 75.984375 
L 18.40625 64.59375 
L 9.421875 64.59375 
z
" id="DejaVuSans-105"/>
      <path d="M 30.609375 48.390625 
Q 23.390625 48.390625 19.1875 42.75 
Q 14.984375 37.109375 14.984375 27.296875 
Q 14.984375 17.484375 19.15625 11.84375 
Q 23.34375 6.203125 30.609375 6.203125 
Q 37.796875 6.203125 41.984375 11.859375 
Q 46.1875 17.53125 46.1875 27.296875 
Q 46.1875 37.015625 41.984375 42.703125 
Q 37.796875 48.390625 30.609375 48.390625 
z
M 30.609375 56 
Q 42.328125 56 49.015625 48.375 
Q 55.71875 40.765625 55.71875 27.296875 
Q 55.71875 13.875 49.015625 6.21875 
Q 42.328125 -1.421875 30.609375 -1.421875 
Q 18.84375 -1.421875 12.171875 6.21875 
Q 5.515625 13.875 5.515625 27.296875 
Q 5.515625 40.765625 12.171875 48.375 
Q 18.84375 56 30.609375 56 
z
" id="DejaVuSans-111"/>
      <path d="M 54.890625 33.015625 
L 54.890625 0 
L 45.90625 0 
L 45.90625 32.71875 
Q 45.90625 40.484375 42.875 44.328125 
Q 39.84375 48.1875 33.796875 48.1875 
Q 26.515625 48.1875 22.3125 43.546875 
Q 18.109375 38.921875 18.109375 30.90625 
L 18.109375 0 
L 9.078125 0 
L 9.078125 54.6875 
L 18.109375 54.6875 
L 18.109375 46.1875 
Q 21.34375 51.125 25.703125 53.5625 
Q 30.078125 56 35.796875 56 
Q 45.21875 56 50.046875 50.171875 
Q 54.890625 44.34375 54.890625 33.015625 
z
" id="DejaVuSans-110"/>
     </defs>
     <g transform="translate(273.991406 412.756563)scale(0.1 -0.1)">
      <use xlink:href="#DejaVuSans-73"/>
      <use x="29.492188" xlink:href="#DejaVuSans-116"/>
      <use x="68.701172" xlink:href="#DejaVuSans-101"/>
      <use x="130.224609" xlink:href="#DejaVuSans-114"/>
      <use x="171.337891" xlink:href="#DejaVuSans-97"/>
      <use x="232.617188" xlink:href="#DejaVuSans-116"/>
      <use x="271.826172" xlink:href="#DejaVuSans-105"/>
      <use x="299.609375" xlink:href="#DejaVuSans-111"/>
      <use x="360.791016" xlink:href="#DejaVuSans-110"/>
     </g>
    </g>
   </g>
   <g id="matplotlib.axis_2">
    <g id="ytick_1">
     <g id="line2d_13">
      <path clip-path="url(#p982956dca3)" d="M 72 384.48 
L 518.4 384.48 
" style="fill:none;stroke:#b0b0b0;stroke-linecap:square;stroke-width:0.8;"/>
     </g>
     <g id="line2d_14">
      <defs>
       <path d="M 0 0 
L -3.5 0 
" id="m9daba31b3b" style="stroke:#000000;stroke-width:0.8;"/>
      </defs>
      <g>
       <use style="stroke:#000000;stroke-width:0.8;" x="72" xlink:href="#m9daba31b3b" y="384.48"/>
      </g>
     </g>
     <g id="text_8">
      <!-- $\mathdefault{10^{-12}}$ -->
      <defs>
       <path d="M 10.59375 35.5 
L 73.1875 35.5 
L 73.1875 27.203125 
L 10.59375 27.203125 
z
" id="DejaVuSans-8722"/>
      </defs>
      <g transform="translate(37.1 388.279219)scale(0.1 -0.1)">
       <use transform="translate(0 0.765625)" xlink:href="#DejaVuSans-49"/>
       <use transform="translate(63.623047 0.765625)" xlink:href="#DejaVuSans-48"/>
       <use transform="translate(128.203125 39.046875)scale(0.7)" xlink:href="#DejaVuSans-8722"/>
       <use transform="translate(186.855469 39.046875)scale(0.7)" xlink:href="#DejaVuSans-49"/>
       <use transform="translate(231.391602 39.046875)scale(0.7)" xlink:href="#DejaVuSans-50"/>
      </g>
     </g>
    </g>
    <g id="ytick_2">
     <g id="line2d_15">
      <path clip-path="url(#p982956dca3)" d="M 72 336.96 
L 518.4 336.96 
" style="fill:none;stroke:#b0b0b0;stroke-linecap:square;stroke-width:0.8;"/>
     </g>
     <g id="line2d_16">
      <g>
       <use style="stroke:#000000;stroke-width:0.8;" x="72" xlink:href="#m9daba31b3b" y="336.96"/>
      </g>
     </g>
     <g id="text_9">
      <!-- $\mathdefault{10^{-10}}$ -->
      <g transform="translate(37.1 340.759219)scale(0.1 -0.1)">
       <use transform="translate(0 0.765625)" xlink:href="#DejaVuSans-49"/>
       <use transform="translate(63.623047 0.765625)" xlink:href="#DejaVuSans-48"/>
       <use transform="translate(128.203125 39.046875)scale(0.7)" xlink:href="#DejaVuSans-8722"/>
       <use transform="translate(186.855469 39.046875)scale(0.7)" xlink:href="#DejaVuSans-49"/>
       <use transform="translate(231.391602 39.046875)scale(0.7)" xlink:href="#DejaVuSans-48"/>
      </g>
     </g>
    </g>
    <g id="ytick_3">
     <g id="line2d_17">
      <path clip-path="url(#p982956dca3)" d="M 72 289.44 
L 518.4 289.44 
" style="fill:none;stroke:#b0b0b0;stroke-linecap:square;stroke-width:0.8;"/>
     </g>
     <g id="line2d_18">
      <g>
       <use style="stroke:#000000;stroke-width:0.8;" x="72" xlink:href="#m9daba31b3b" y="289.44"/>
      </g>
     </g>
     <g id="text_10">
      <!-- $\mathdefault{10^{-8}}$ -->
      <defs>
       <path d="M 31.78125 34.625 
Q 24.75 34.625 20.71875 30.859375 
Q 16.703125 27.09375 16.703125 20.515625 
Q 16.703125 13.921875 20.71875 10.15625 
Q 24.75 6.390625 31.78125 6.390625 
Q 38.8125 6.390625 42.859375 10.171875 
Q 46.921875 13.96875 46.921875 20.515625 
Q 46.921875 27.09375 42.890625 30.859375 
Q 38.875 34.625 31.78125 34.625 
z
M 21.921875 38.8125 
Q 15.578125 40.375 12.03125 44.71875 
Q 8.5 49.078125 8.5 55.328125 
Q 8.5 64.0625 14.71875 69.140625 
Q 20.953125 74.21875 31.78125 74.21875 
Q 42.671875 74.21875 48.875 69.140625 
Q 55.078125 64.0625 55.078125 55.328125 
Q 55.078125 49.078125 51.53125 44.71875 
Q 48 40.375 41.703125 38.8125 
Q 48.828125 37.15625 52.796875 32.3125 
Q 56.78125 27.484375 56.78125 20.515625 
Q 56.78125 9.90625 50.3125 4.234375 
Q 43.84375 -1.421875 31.78125 -1.421875 
Q 19.734375 -1.421875 13.25 4.234375 
Q 6.78125 9.90625 6.78125 20.515625 
Q 6.78125 27.484375 10.78125 32.3125 
Q 14.796875 37.15625 21.921875 38.8125 
z
M 18.3125 54.390625 
Q 18.3125 48.734375 21.84375 45.5625 
Q 25.390625 42.390625 31.78125 42.390625 
Q 38.140625 42.390625 41.71875 45.5625 
Q 45.3125 48.734375 45.3125 54.390625 
Q 45.3125 60.0625 41.71875 63.234375 
Q 38.140625 66.40625 31.78125 66.40625 
Q 25.390625 66.40625 21.84375 63.234375 
Q 18.3125 60.0625 18.3125 54.390625 
z
" id="DejaVuSans-56"/>
      </defs>
      <g transform="translate(41.5 293.239219)scale(0.1 -0.1)">
       <use transform="translate(0 0.765625)" xlink:href="#DejaVuSans-49"/>
       <use transform="translate(63.623047 0.765625)" xlink:href="#DejaVuSans-48"/>
       <use transform="translate(128.203125 39.046875)scale(0.7)" xlink:href="#DejaVuSans-8722"/>
       <use transform="translate(186.855469 39.046875)scale(0.7)" xlink:href="#DejaVuSans-56"/>
      </g>
     </g>
    </g>
    <g id="ytick_4">
     <g id="line2d_19">
      <path clip-path="url(#p982956dca3)" d="M 72 241.92 
L 518.4 241.92 
" style="fill:none;stroke:#b0b0b0;stroke-linecap:square;stroke-width:0.8;"/>
     </g>
     <g id="line2d_20">
      <g>
       <use style="stroke:#000000;stroke-width:0.8;" x="72" xlink:href="#m9daba31b3b" y="241.92"/>
      </g>
     </g>
     <g id="text_11">
      <!-- $\mathdefault{10^{-6}}$ -->
      <defs>
       <path d="M 33.015625 40.375 
Q 26.375 40.375 22.484375 35.828125 
Q 18.609375 31.296875 18.609375 23.390625 
Q 18.609375 15.53125 22.484375 10.953125 
Q 26.375 6.390625 33.015625 6.390625 
Q 39.65625 6.390625 43.53125 10.953125 
Q 47.40625 15.53125 47.40625 23.390625 
Q 47.40625 31.296875 43.53125 35.828125 
Q 39.65625 40.375 33.015625 40.375 
z
M 52.59375 71.296875 
L 52.59375 62.3125 
Q 48.875 64.0625 45.09375 64.984375 
Q 41.3125 65.921875 37.59375 65.921875 
Q 27.828125 65.921875 22.671875 59.328125 
Q 17.53125 52.734375 16.796875 39.40625 
Q 19.671875 43.65625 24.015625 45.921875 
Q 28.375 48.1875 33.59375 48.1875 
Q 44.578125 48.1875 50.953125 41.515625 
Q 57.328125 34.859375 57.328125 23.390625 
Q 57.328125 12.15625 50.6875 5.359375 
Q 44.046875 -1.421875 33.015625 -1.421875 
Q 20.359375 -1.421875 13.671875 8.265625 
Q 6.984375 17.96875 6.984375 36.375 
Q 6.984375 53.65625 15.1875 63.9375 
Q 23.390625 74.21875 37.203125 74.21875 
Q 40.921875 74.21875 44.703125 73.484375 
Q 48.484375 72.75 52.59375 71.296875 
z
" id="DejaVuSans-54"/>
      </defs>
      <g transform="translate(41.5 245.719219)scale(0.1 -0.1)">
       <use transform="translate(0 0.765625)" xlink:href="#DejaVuSans-49"/>
       <use transform="translate(63.623047 0.765625)" xlink:href="#DejaVuSans-48"/>
       <use transform="translate(128.203125 39.046875)scale(0.7)" xlink:href="#DejaVuSans-8722"/>
       <use transform="translate(186.855469 39.046875)scale(0.7)" xlink:href="#DejaVuSans-54"/>
      </g>
     </g>
    </g>
    <g id="ytick_5">
     <g id="line2d_21">
      <path clip-path="url(#p982956dca3)" d="M 72 194.4 
L 518.4 194.4 
" style="fill:none;stroke:#b0b0b0;stroke-linecap:square;stroke-width:0.8;"/>
     </g>
     <g id="line2d_22">
      <g>
       <use style="stroke:#000000;stroke-width:0.8;" x="72" xlink:href="#m9daba31b3b" y="194.4"/>
      </g>
     </g>
     <g id="text_12">
      <!-- $\mathdefault{10^{-4}}$ -->
      <g transform="translate(41.5 198.199219)scale(0.1 -0.1)">
       <use transform="translate(0 0.684375)" xlink:href="#DejaVuSans-49"/>
       <use transform="translate(63.623047 0.684375)" xlink:href="#DejaVuSans-48"/>
       <use transform="translate(128.203125 38.965625)scale(0.7)" xlink:href="#DejaVuSans-8722"/>
       <use transform="translate(186.855469 38.965625)scale(0.7)" xlink:href="#DejaVuSans-52"/>
      </g>
     </g>
    </g>
    <g id="ytick_6">
     <g id="line2d_23">
      <path clip-path="url(#p982956dca3)" d="M 72 146.88 
L 518.4 146.88 
" style="fill:none;stroke:#b0b0b0;stroke-linecap:square;stroke-width:0.8;"/>
     </g>
     <g id="line2d_24">
      <g>
       <use style="stroke:#000000;stroke-width:0.8;" x="72" xlink:href="#m9daba31b3b" y="146.88"/>
      </g>
     </g>
     <g id="text_13">
      <!-- $\mathdefault{10^{-2}}$ -->
      <g transform="translate(41.5 150.679219)scale(0.1 -0.1)">
       <use transform="translate(0 0.765625)" xlink:href="#DejaVuSans-49"/>
       <use transform="translate(63.623047 0.765625)" xlink:href="#DejaVuSans-48"/>
       <use transform="translate(128.203125 39.046875)scale(0.7)" xlink:href="#DejaVuSans-8722"/>
       <use transform="translate(186.855469 39.046875)scale(0.7)" xlink:href="#DejaVuSans-50"/>
      </g>
     </g>
    </g>
    <g id="ytick_7">
     <g id="line2d_25">
      <path clip-path="url(#p982956dca3)" d="M 72 99.36 
L 518.4 99.36 
" style="fill:none;stroke:#b0b0b0;stroke-linecap:square;stroke-width:0.8;"/>
     </g>
     <g id="line2d_26">
      <g>
       <use style="stroke:#000000;stroke-width:0.8;" x="72" xlink:href="#m9daba31b3b" y="99.36"/>
      </g>
     </g>
     <g id="text_14">
      <!-- $\mathdefault{10^{0}}$ -->
      <g transform="translate(47.4 103.159219)scale(0.1 -0.1)">
       <use transform="translate(0 0.765625)" xlink:href="#DejaVuSans-49"/>
       <use transform="translate(63.623047 0.765625)" xlink:href="#DejaVuSans-48"/>
       <use transform="translate(128.203125 39.046875)scale(0.7)" xlink:href="#DejaVuSans-48"/>
      </g>
     </g>
    </g>
    <g id="ytick_8">
     <g id="line2d_27">
      <path clip-path="url(#p982956dca3)" d="M 72 51.84 
L 518.4 51.84 
" style="fill:none;stroke:#b0b0b0;stroke-linecap:square;stroke-width:0.8;"/>
     </g>
     <g id="line2d_28">
      <g>
       <use style="stroke:#000000;stroke-width:0.8;" x="72" xlink:href="#m9daba31b3b" y="51.84"/>
      </g>
     </g>
     <g id="text_15">
      <!-- $\mathdefault{10^{2}}$ -->
      <g transform="translate(47.4 55.639219)scale(0.1 -0.1)">
       <use transform="translate(0 0.765625)" xlink:href="#DejaVuSans-49"/>
       <use transform="translate(63.623047 0.765625)" xlink:href="#DejaVuSans-48"/>
       <use transform="translate(128.203125 39.046875)scale(0.7)" xlink:href="#DejaVuSans-50"/>
      </g>
     </g>
    </g>
    <g id="text_16">
     <!-- Integrated Variance -->
     <defs>
      <path d="M 45.40625 27.984375 
Q 45.40625 37.75 41.375 43.109375 
Q 37.359375 48.484375 30.078125 48.484375 
Q 22.859375 48.484375 18.828125 43.109375 
Q 14.796875 37.75 14.796875 27.984375 
Q 14.796875 18.265625 18.828125 12.890625 
Q 22.859375 7.515625 30.078125 7.515625 
Q 37.359375 7.515625 41.375 12.890625 
Q 45.40625 18.265625 45.40625 27.984375 
z
M 54.390625 6.78125 
Q 54.390625 -7.171875 48.1875 -13.984375 
Q 42 -20.796875 29.203125 -20.796875 
Q 24.46875 -20.796875 20.265625 -20.09375 
Q 16.0625 -19.390625 12.109375 -17.921875 
L 12.109375 -9.1875 
Q 16.0625 -11.328125 19.921875 -12.34375 
Q 23.78125 -13.375 27.78125 -13.375 
Q 36.625 -13.375 41.015625 -8.765625 
Q 45.40625 -4.15625 45.40625 5.171875 
L 45.40625 9.625 
Q 42.625 4.78125 38.28125 2.390625 
Q 33.9375 0 27.875 0 
Q 17.828125 0 11.671875 7.65625 
Q 5.515625 15.328125 5.515625 27.984375 
Q 5.515625 40.671875 11.671875 48.328125 
Q 17.828125 56 27.875 56 
Q 33.9375 56 38.28125 53.609375 
Q 42.625 51.21875 45.40625 46.390625 
L 45.40625 54.6875 
L 54.390625 54.6875 
z
" id="DejaVuSans-103"/>
      <path d="M 45.40625 46.390625 
L 45.40625 75.984375 
L 54.390625 75.984375 
L 54.390625 0 
L 45.40625 0 
L 45.40625 8.203125 
Q 42.578125 3.328125 38.25 0.953125 
Q 33.9375 -1.421875 27.875 -1.421875 
Q 17.96875 -1.421875 11.734375 6.484375 
Q 5.515625 14.40625 5.515625 27.296875 
Q 5.515625 40.1875 11.734375 48.09375 
Q 17.96875 56 27.875 56 
Q 33.9375 56 38.25 53.625 
Q 42.578125 51.265625 45.40625 46.390625 
z
M 14.796875 27.296875 
Q 14.796875 17.390625 18.875 11.75 
Q 22.953125 6.109375 30.078125 6.109375 
Q 37.203125 6.109375 41.296875 11.75 
Q 45.40625 17.390625 45.40625 27.296875 
Q 45.40625 37.203125 41.296875 42.84375 
Q 37.203125 48.484375 30.078125 48.484375 
Q 22.953125 48.484375 18.875 42.84375 
Q 14.796875 37.203125 14.796875 27.296875 
z
" id="DejaVuSans-100"/>
      <path id="DejaVuSans-32"/>
      <path d="M 28.609375 0 
L 0.78125 72.90625 
L 11.078125 72.90625 
L 34.1875 11.53125 
L 57.328125 72.90625 
L 67.578125 72.90625 
L 39.796875 0 
z
" id="DejaVuSans-86"/>
      <path d="M 48.78125 52.59375 
L 48.78125 44.1875 
Q 44.96875 46.296875 41.140625 47.34375 
Q 37.3125 48.390625 33.40625 48.390625 
Q 24.65625 48.390625 19.8125 42.84375 
Q 14.984375 37.3125 14.984375 27.296875 
Q 14.984375 17.28125 19.8125 11.734375 
Q 24.65625 6.203125 33.40625 6.203125 
Q 37.3125 6.203125 41.140625 7.25 
Q 44.96875 8.296875 48.78125 10.40625 
L 48.78125 2.09375 
Q 45.015625 0.34375 40.984375 -0.53125 
Q 36.96875 -1.421875 32.421875 -1.421875 
Q 20.0625 -1.421875 12.78125 6.34375 
Q 5.515625 14.109375 5.515625 27.296875 
Q 5.515625 40.671875 12.859375 48.328125 
Q 20.21875 56 33.015625 56 
Q 37.15625 56 41.109375 55.140625 
Q 45.0625 54.296875 48.78125 52.59375 
z
" id="DejaVuSans-99"/>
     </defs>
     <g transform="translate(31.020312 267.534219)rotate(-90)scale(0.1 -0.1)">
      <use xlink:href="#DejaVuSans-73"/>
      <use x="29.492188" xlink:href="#DejaVuSans-110"/>
      <use x="92.871094" xlink:href="#DejaVuSans-116"/>
      <use x="132.080078" xlink:href="#DejaVuSans-101"/>
      <use x="193.603516" xlink:href="#DejaVuSans-103"/>
      <use x="257.080078" xlink:href="#DejaVuSans-114"/>
      <use x="298.193359" xlink:href="#DejaVuSans-97"/>
      <use x="359.472656" xlink:href="#DejaVuSans-116"/>
      <use x="398.681641" xlink:href="#DejaVuSans-101"/>
      <use x="460.205078" xlink:href="#DejaVuSans-100"/>
      <use x="523.681641" xlink:href="#DejaVuSans-32"/>
      <use x="555.46875" xlink:href="#DejaVuSans-86"/>
      <use x="616.126953" xlink:href="#DejaVuSans-97"/>
      <use x="677.40625" xlink:href="#DejaVuSans-114"/>
      <use x="718.519531" xlink:href="#DejaVuSans-105"/>
      <use x="746.302734" xlink:href="#DejaVuSans-97"/>
      <use x="807.582031" xlink:href="#DejaVuSans-110"/>
      <use x="870.960938" xlink:href="#DejaVuSans-99"/>
      <use x="925.941406" xlink:href="#DejaVuSans-101"/>
     </g>
    </g>
   </g>
   <g id="line2d_29">
    <path clip-path="url(#p982956dca3)" d="M 170.095452 433 
L 170.208 133.912974 
L 170.320548 433 
M 187.901532 433 
L 188.063923 -1 
M 188.064077 -1 
L 188.226468 433 
M 259.309551 433 
L 259.471646 -1 
M 259.504354 -1 
L 259.666449 433 
M 286.093052 433 
L 286.255138 -1 
M 286.288862 -1 
L 286.450948 433 
M 428.954088 433 
L 429.116416 -1 
M 429.123584 -1 
L 429.285912 433 
" style="fill:none;stroke:#1f77b4;stroke-linecap:square;stroke-width:1.5;"/>
   </g>
   <g id="line2d_30">
    <path clip-path="url(#p982956dca3)" d="M 72 92.4631 
L 80.928 89.00367 
L 89.856 101.065647 
L 98.784 107.04196 
L 107.712 113.153685 
L 116.64 105.193154 
L 125.568 120.465755 
L 134.496 125.903287 
L 143.424 125.660806 
L 152.352 132.352504 
L 161.28 136.448452 
L 170.208 130.777005 
L 179.136 134.44512 
L 188.064 75.693196 
L 196.992 75.693196 
L 205.92 75.693196 
L 214.848 75.693196 
L 223.776 75.693196 
L 232.704 75.693196 
L 241.632 75.693196 
L 250.56 75.693196 
L 259.488 75.693196 
L 268.416 75.693196 
L 277.344 75.693196 
L 286.272 75.693196 
L 295.2 75.693196 
L 304.128 75.693196 
L 313.056 75.693196 
L 321.984 75.693196 
L 330.912 75.693196 
L 339.84 75.693196 
L 348.768 75.693196 
L 357.696 75.693196 
L 366.624 75.693196 
L 375.552 75.693196 
L 384.48 75.693196 
L 393.408 75.693196 
L 402.336 75.693196 
L 411.264 75.693196 
L 420.192 75.693196 
L 429.12 75.693196 
L 438.048 75.693196 
L 446.976 75.693196 
L 455.904 75.693196 
L 464.832 75.693196 
L 473.76 75.693196 
L 482.688 75.693196 
L 491.616 75.693196 
L 500.544 75.693196 
L 509.472 75.693196 
L 518.4 75.693196 
" style="fill:none;stroke:#ff7f0e;stroke-linecap:square;stroke-width:1.5;"/>
   </g>
   <g id="line2d_31">
    <path clip-path="url(#p982956dca3)" d="M 72 83.757319 
L 80.928 82.676526 
L 89.856 87.053731 
L 98.784 89.169338 
L 107.712 90.765632 
L 116.64 89.994533 
L 125.568 92.211165 
L 134.496 93.08866 
L 143.424 93.952861 
L 152.352 94.85947 
L 161.28 95.501321 
L 170.208 96.502189 
L 179.136 97.643583 
L 188.064 98.265107 
L 196.992 99.595878 
L 205.92 100.101162 
L 214.848 100.519372 
L 223.776 101.040634 
L 232.704 101.577035 
L 241.632 101.855095 
L 250.56 102.390489 
L 259.488 102.954303 
L 268.416 103.532407 
L 277.344 104.125579 
L 286.272 104.737727 
L 295.2 105.367879 
L 304.128 106.01752 
L 313.056 106.667006 
L 321.984 107.384005 
L 330.912 108.117258 
L 339.84 108.899271 
L 348.768 109.217433 
L 357.696 109.521005 
L 366.624 109.842896 
L 375.552 110.15826 
L 384.48 110.480721 
L 393.408 110.807621 
L 402.336 111.135791 
L 411.264 111.463001 
L 420.192 111.785611 
L 429.12 112.117163 
L 438.048 112.450962 
L 446.976 112.732594 
L 455.904 113.073347 
L 464.832 113.416026 
L 473.76 113.753008 
L 482.688 114.1005 
L 491.616 114.45268 
L 500.544 114.79227 
L 509.472 115.152795 
L 518.4 115.517813 
" style="fill:none;stroke:#2ca02c;stroke-linecap:square;stroke-width:1.5;"/>
   </g>
   <g id="line2d_32">
    <path clip-path="url(#p982956dca3)" d="M 72 85.875797 
L 80.928 84.098575 
L 89.856 92.311817 
L 98.784 96.973271 
L 107.712 100.399953 
L 116.64 98.331693 
L 125.568 104.713723 
L 134.496 106.671852 
L 143.424 108.298069 
L 152.352 110.572452 
L 161.28 112.769199 
L 170.208 115.112866 
L 179.136 118.077077 
L 188.064 119.029455 
L 196.992 124.347921 
L 205.92 125.547361 
L 214.848 126.734951 
L 223.776 128.02558 
L 232.704 129.284543 
L 241.632 130.274784 
L 250.56 131.758325 
L 259.488 133.233913 
L 268.416 134.896881 
L 277.344 136.262594 
L 286.272 137.64558 
L 295.2 139.170317 
L 304.128 140.82693 
L 313.056 142.645135 
L 321.984 144.789098 
L 330.912 147.074385 
L 339.84 150.785958 
L 348.768 151.463151 
L 357.696 152.127117 
L 366.624 152.813695 
L 375.552 153.495835 
L 384.48 154.196207 
L 393.408 154.897674 
L 402.336 155.594656 
L 411.264 156.337315 
L 420.192 157.062422 
L 429.12 157.792905 
L 438.048 158.635834 
L 446.976 159.412109 
L 455.904 160.201052 
L 464.832 161.038604 
L 473.76 161.893966 
L 482.688 162.7925 
L 491.616 163.485134 
L 500.544 164.185612 
L 509.472 164.921014 
L 518.4 165.653343 
" style="fill:none;stroke:#d62728;stroke-linecap:square;stroke-width:1.5;"/>
   </g>
   <g id="line2d_33">
    <path clip-path="url(#p982956dca3)" d="M 72 88.308318 
L 80.928 85.268581 
L 89.856 95.515753 
L 98.784 100.638961 
L 107.712 104.352677 
L 116.64 101.274201 
L 125.568 109.894091 
L 134.496 112.599791 
L 143.424 114.295013 
L 152.352 117.253282 
L 161.28 120.447101 
L 170.208 123.32996 
L 179.136 126.930742 
L 188.064 127.337139 
L 196.992 136.912137 
L 205.92 138.751609 
L 214.848 140.287795 
L 223.776 142.262681 
L 232.704 144.385303 
L 241.632 145.839541 
L 250.56 148.221984 
L 259.488 150.680823 
L 268.416 153.563305 
L 277.344 155.160217 
L 286.272 156.844282 
L 295.2 158.542308 
L 304.128 160.495264 
L 313.056 162.679425 
L 321.984 165.232413 
L 330.912 167.963545 
L 339.84 177.729631 
L 348.768 178.855279 
L 357.696 179.838133 
L 366.624 180.855214 
L 375.552 181.8951 
L 384.48 182.93174 
L 393.408 184.042737 
L 402.336 185.173248 
L 411.264 186.362534 
L 420.192 187.361482 
L 429.12 188.40174 
L 438.048 190.06408 
L 446.976 191.226792 
L 455.904 192.486285 
L 464.832 193.823623 
L 473.76 195.304282 
L 482.688 196.908134 
L 491.616 197.705645 
L 500.544 198.535803 
L 509.472 199.383303 
L 518.4 200.267034 
" style="fill:none;stroke:#9467bd;stroke-linecap:square;stroke-width:1.5;"/>
   </g>
   <g id="line2d_34">
    <path clip-path="url(#p982956dca3)" d="M 72 87.302518 
L 80.928 83.742389 
L 89.856 93.414523 
L 98.784 102.18843 
L 107.712 104.564514 
L 116.64 98.791082 
L 125.568 106.10619 
L 134.496 111.543785 
L 143.424 111.876747 
L 152.352 116.601546 
L 161.28 124.142034 
L 170.208 127.584161 
L 179.136 133.38877 
L 188.064 129.599627 
L 196.992 145.142836 
L 205.92 150.695311 
L 214.848 150.352746 
L 223.776 155.906426 
L 232.704 161.692132 
L 241.632 164.622143 
L 250.56 172.116459 
L 259.488 177.451575 
L 268.416 184.729046 
L 277.344 190.692774 
L 286.272 191.763757 
L 295.2 194.575543 
L 304.128 193.781274 
L 313.056 195.263351 
L 321.984 196.559276 
L 330.912 193.788076 
L 339.84 230.901864 
L 348.768 237.528391 
L 357.696 236.399679 
L 366.624 238.78218 
L 375.552 240.261335 
L 384.48 239.299221 
L 393.408 250.188975 
L 402.336 247.517414 
L 411.264 249.543314 
L 420.192 246.038743 
L 429.12 243.591174 
L 438.048 244.498245 
L 446.976 242.141172 
L 455.904 236.952051 
L 464.832 235.048329 
L 473.76 234.776851 
L 482.688 235.891503 
L 491.616 232.146403 
L 500.544 228.485968 
L 509.472 223.151074 
L 518.4 223.893415 
" style="fill:none;stroke:#8c564b;stroke-linecap:square;stroke-width:1.5;"/>
   </g>
   <g id="line2d_35">
    <path clip-path="url(#p982956dca3)" d="M 80.83497 433 
L 80.928 186.32669 
L 89.856 181.603939 
L 89.950792 433 
M 107.614146 433 
L 107.712 173.39321 
L 116.64 181.75426 
L 125.568 177.379613 
L 134.496 182.719399 
L 143.424 182.028679 
L 152.352 180.861172 
L 161.28 182.333088 
L 170.208 178.239537 
L 179.136 176.505156 
L 179.232694 433 
M 196.892535 433 
L 196.992 169.072019 
L 205.92 174.965084 
L 214.848 181.837577 
L 223.776 182.513901 
L 223.870453 433 
M 241.529887 433 
L 241.632 161.963285 
L 241.734113 433 
M 259.388323 433 
L 259.488 168.5031 
L 268.416 181.590077 
L 268.510797 433 
M 286.178242 433 
L 286.272 184.37548 
L 286.365758 433 
M 312.957392 433 
L 313.056 171.370196 
L 313.154608 433 
M 330.811136 433 
L 330.912 165.31682 
L 331.012864 433 
M 366.523727 433 
L 366.624 166.904068 
L 366.724273 433 
M 393.30572 433 
L 393.408 161.515392 
L 393.51028 433 
M 411.161917 433 
L 411.264 162.043084 
L 411.366083 433 
M 446.874717 433 
L 446.976 164.191449 
L 447.077283 433 
M 482.58615 433 
L 482.688 162.671126 
L 491.616 169.158088 
L 491.715433 433 
M 509.368982 433 
L 509.472 159.534072 
L 518.4 160.585156 
" style="fill:none;stroke:#e377c2;stroke-linecap:square;stroke-width:1.5;"/>
   </g>
   <g id="patch_3">
    <path d="M 72 384.48 
L 72 51.84 
" style="fill:none;stroke:#000000;stroke-linecap:square;stroke-linejoin:miter;stroke-width:0.8;"/>
   </g>
   <g id="patch_4">
    <path d="M 518.4 384.48 
L 518.4 51.84 
" style="fill:none;stroke:#000000;stroke-linecap:square;stroke-linejoin:miter;stroke-width:0.8;"/>
   </g>
   <g id="patch_5">
    <path d="M 72 384.48 
L 518.4 384.48 
" style="fill:none;stroke:#000000;stroke-linecap:square;stroke-linejoin:miter;stroke-width:0.8;"/>
   </g>
   <g id="patch_6">
    <path d="M 72 51.84 
L 518.4 51.84 
" style="fill:none;stroke:#000000;stroke-linecap:square;stroke-linejoin:miter;stroke-width:0.8;"/>
   </g>
   <g id="legend_1">
    <g id="patch_7">
     <path d="M 79 379.48 
L 165.804688 379.48 
Q 167.804688 379.48 167.804688 377.48 
L 167.804688 275.733125 
Q 167.804688 273.733125 165.804688 273.733125 
L 79 273.733125 
Q 77 273.733125 77 275.733125 
L 77 377.48 
Q 77 379.48 79 379.48 
z
" style="fill:#ffffff;opacity:0.8;stroke:#cccccc;stroke-linejoin:miter;"/>
    </g>
    <g id="line2d_36">
     <path d="M 81 281.831563 
L 101 281.831563 
" style="fill:none;stroke:#1f77b4;stroke-linecap:square;stroke-width:1.5;"/>
    </g>
    <g id="line2d_37"/>
    <g id="text_17">
     <!-- Constant -->
     <defs>
      <path d="M 64.40625 67.28125 
L 64.40625 56.890625 
Q 59.421875 61.53125 53.78125 63.8125 
Q 48.140625 66.109375 41.796875 66.109375 
Q 29.296875 66.109375 22.65625 58.46875 
Q 16.015625 50.828125 16.015625 36.375 
Q 16.015625 21.96875 22.65625 14.328125 
Q 29.296875 6.6875 41.796875 6.6875 
Q 48.140625 6.6875 53.78125 8.984375 
Q 59.421875 11.28125 64.40625 15.921875 
L 64.40625 5.609375 
Q 59.234375 2.09375 53.4375 0.328125 
Q 47.65625 -1.421875 41.21875 -1.421875 
Q 24.65625 -1.421875 15.125 8.703125 
Q 5.609375 18.84375 5.609375 36.375 
Q 5.609375 53.953125 15.125 64.078125 
Q 24.65625 74.21875 41.21875 74.21875 
Q 47.75 74.21875 53.53125 72.484375 
Q 59.328125 70.75 64.40625 67.28125 
z
" id="DejaVuSans-67"/>
      <path d="M 44.28125 53.078125 
L 44.28125 44.578125 
Q 40.484375 46.53125 36.375 47.5 
Q 32.28125 48.484375 27.875 48.484375 
Q 21.1875 48.484375 17.84375 46.4375 
Q 14.5 44.390625 14.5 40.28125 
Q 14.5 37.15625 16.890625 35.375 
Q 19.28125 33.59375 26.515625 31.984375 
L 29.59375 31.296875 
Q 39.15625 29.25 43.1875 25.515625 
Q 47.21875 21.78125 47.21875 15.09375 
Q 47.21875 7.46875 41.1875 3.015625 
Q 35.15625 -1.421875 24.609375 -1.421875 
Q 20.21875 -1.421875 15.453125 -0.5625 
Q 10.6875 0.296875 5.421875 2 
L 5.421875 11.28125 
Q 10.40625 8.6875 15.234375 7.390625 
Q 20.0625 6.109375 24.8125 6.109375 
Q 31.15625 6.109375 34.5625 8.28125 
Q 37.984375 10.453125 37.984375 14.40625 
Q 37.984375 18.0625 35.515625 20.015625 
Q 33.0625 21.96875 24.703125 23.78125 
L 21.578125 24.515625 
Q 13.234375 26.265625 9.515625 29.90625 
Q 5.8125 33.546875 5.8125 39.890625 
Q 5.8125 47.609375 11.28125 51.796875 
Q 16.75 56 26.8125 56 
Q 31.78125 56 36.171875 55.265625 
Q 40.578125 54.546875 44.28125 53.078125 
z
" id="DejaVuSans-115"/>
     </defs>
     <g transform="translate(109 285.331563)scale(0.1 -0.1)">
      <use xlink:href="#DejaVuSans-67"/>
      <use x="69.824219" xlink:href="#DejaVuSans-111"/>
      <use x="131.005859" xlink:href="#DejaVuSans-110"/>
      <use x="194.384766" xlink:href="#DejaVuSans-115"/>
      <use x="246.484375" xlink:href="#DejaVuSans-116"/>
      <use x="285.693359" xlink:href="#DejaVuSans-97"/>
      <use x="346.972656" xlink:href="#DejaVuSans-110"/>
      <use x="410.351562" xlink:href="#DejaVuSans-116"/>
     </g>
    </g>
    <g id="line2d_38">
     <path d="M 81 296.509688 
L 101 296.509688 
" style="fill:none;stroke:#ff7f0e;stroke-linecap:square;stroke-width:1.5;"/>
    </g>
    <g id="line2d_39"/>
    <g id="text_18">
     <!-- RBF -->
     <defs>
      <path d="M 44.390625 34.1875 
Q 47.5625 33.109375 50.5625 29.59375 
Q 53.5625 26.078125 56.59375 19.921875 
L 66.609375 0 
L 56 0 
L 46.6875 18.703125 
Q 43.0625 26.03125 39.671875 28.421875 
Q 36.28125 30.8125 30.421875 30.8125 
L 19.671875 30.8125 
L 19.671875 0 
L 9.8125 0 
L 9.8125 72.90625 
L 32.078125 72.90625 
Q 44.578125 72.90625 50.734375 67.671875 
Q 56.890625 62.453125 56.890625 51.90625 
Q 56.890625 45.015625 53.6875 40.46875 
Q 50.484375 35.9375 44.390625 34.1875 
z
M 19.671875 64.796875 
L 19.671875 38.921875 
L 32.078125 38.921875 
Q 39.203125 38.921875 42.84375 42.21875 
Q 46.484375 45.515625 46.484375 51.90625 
Q 46.484375 58.296875 42.84375 61.546875 
Q 39.203125 64.796875 32.078125 64.796875 
z
" id="DejaVuSans-82"/>
      <path d="M 19.671875 34.8125 
L 19.671875 8.109375 
L 35.5 8.109375 
Q 43.453125 8.109375 47.28125 11.40625 
Q 51.125 14.703125 51.125 21.484375 
Q 51.125 28.328125 47.28125 31.5625 
Q 43.453125 34.8125 35.5 34.8125 
z
M 19.671875 64.796875 
L 19.671875 42.828125 
L 34.28125 42.828125 
Q 41.5 42.828125 45.03125 45.53125 
Q 48.578125 48.25 48.578125 53.8125 
Q 48.578125 59.328125 45.03125 62.0625 
Q 41.5 64.796875 34.28125 64.796875 
z
M 9.8125 72.90625 
L 35.015625 72.90625 
Q 46.296875 72.90625 52.390625 68.21875 
Q 58.5 63.53125 58.5 54.890625 
Q 58.5 48.1875 55.375 44.234375 
Q 52.25 40.28125 46.1875 39.3125 
Q 53.46875 37.75 57.5 32.78125 
Q 61.53125 27.828125 61.53125 20.40625 
Q 61.53125 10.640625 54.890625 5.3125 
Q 48.25 0 35.984375 0 
L 9.8125 0 
z
" id="DejaVuSans-66"/>
      <path d="M 9.8125 72.90625 
L 51.703125 72.90625 
L 51.703125 64.59375 
L 19.671875 64.59375 
L 19.671875 43.109375 
L 48.578125 43.109375 
L 48.578125 34.8125 
L 19.671875 34.8125 
L 19.671875 0 
L 9.8125 0 
z
" id="DejaVuSans-70"/>
     </defs>
     <g transform="translate(109 300.009688)scale(0.1 -0.1)">
      <use xlink:href="#DejaVuSans-82"/>
      <use x="69.482422" xlink:href="#DejaVuSans-66"/>
      <use x="138.085938" xlink:href="#DejaVuSans-70"/>
     </g>
    </g>
    <g id="line2d_40">
     <path d="M 81 311.187813 
L 101 311.187813 
" style="fill:none;stroke:#2ca02c;stroke-linecap:square;stroke-width:1.5;"/>
    </g>
    <g id="line2d_41"/>
    <g id="text_19">
     <!-- Matrn-1/2 -->
     <defs>
      <path d="M 9.8125 72.90625 
L 24.515625 72.90625 
L 43.109375 23.296875 
L 61.8125 72.90625 
L 76.515625 72.90625 
L 76.515625 0 
L 66.890625 0 
L 66.890625 64.015625 
L 48.09375 14.015625 
L 38.1875 14.015625 
L 19.390625 64.015625 
L 19.390625 0 
L 9.8125 0 
z
" id="DejaVuSans-77"/>
      <path d="M 56.203125 29.59375 
L 56.203125 25.203125 
L 14.890625 25.203125 
Q 15.484375 15.921875 20.484375 11.0625 
Q 25.484375 6.203125 34.421875 6.203125 
Q 39.59375 6.203125 44.453125 7.46875 
Q 49.3125 8.734375 54.109375 11.28125 
L 54.109375 2.78125 
Q 49.265625 0.734375 44.1875 -0.34375 
Q 39.109375 -1.421875 33.890625 -1.421875 
Q 20.796875 -1.421875 13.15625 6.1875 
Q 5.515625 13.8125 5.515625 26.8125 
Q 5.515625 40.234375 12.765625 48.109375 
Q 20.015625 56 32.328125 56 
Q 43.359375 56 49.78125 48.890625 
Q 56.203125 41.796875 56.203125 29.59375 
z
M 47.21875 32.234375 
Q 47.125 39.59375 43.09375 43.984375 
Q 39.0625 48.390625 32.421875 48.390625 
Q 24.90625 48.390625 20.390625 44.140625 
Q 15.875 39.890625 15.1875 32.171875 
z
M 38.53125 79.984375 
L 48.25 79.984375 
L 32.34375 61.625 
L 24.859375 61.625 
z
" id="DejaVuSans-233"/>
      <path d="M 4.890625 31.390625 
L 31.203125 31.390625 
L 31.203125 23.390625 
L 4.890625 23.390625 
z
" id="DejaVuSans-45"/>
      <path d="M 25.390625 72.90625 
L 33.6875 72.90625 
L 8.296875 -9.28125 
L 0 -9.28125 
z
" id="DejaVuSans-47"/>
     </defs>
     <g transform="translate(109 314.687813)scale(0.1 -0.1)">
      <use xlink:href="#DejaVuSans-77"/>
      <use x="86.279297" xlink:href="#DejaVuSans-97"/>
      <use x="147.558594" xlink:href="#DejaVuSans-116"/>
      <use x="186.767578" xlink:href="#DejaVuSans-233"/>
      <use x="248.291016" xlink:href="#DejaVuSans-114"/>
      <use x="287.654297" xlink:href="#DejaVuSans-110"/>
      <use x="351.033203" xlink:href="#DejaVuSans-45"/>
      <use x="387.117188" xlink:href="#DejaVuSans-49"/>
      <use x="450.740234" xlink:href="#DejaVuSans-47"/>
      <use x="484.431641" xlink:href="#DejaVuSans-50"/>
     </g>
    </g>
    <g id="line2d_42">
     <path d="M 81 325.865938 
L 101 325.865938 
" style="fill:none;stroke:#d62728;stroke-linecap:square;stroke-width:1.5;"/>
    </g>
    <g id="line2d_43"/>
    <g id="text_20">
     <!-- Matrn-3/2 -->
     <g transform="translate(109 329.365938)scale(0.1 -0.1)">
      <use xlink:href="#DejaVuSans-77"/>
      <use x="86.279297" xlink:href="#DejaVuSans-97"/>
      <use x="147.558594" xlink:href="#DejaVuSans-116"/>
      <use x="186.767578" xlink:href="#DejaVuSans-233"/>
      <use x="248.291016" xlink:href="#DejaVuSans-114"/>
      <use x="287.654297" xlink:href="#DejaVuSans-110"/>
      <use x="351.033203" xlink:href="#DejaVuSans-45"/>
      <use x="387.117188" xlink:href="#DejaVuSans-51"/>
      <use x="450.740234" xlink:href="#DejaVuSans-47"/>
      <use x="484.431641" xlink:href="#DejaVuSans-50"/>
     </g>
    </g>
    <g id="line2d_44">
     <path d="M 81 340.544062 
L 101 340.544062 
" style="fill:none;stroke:#9467bd;stroke-linecap:square;stroke-width:1.5;"/>
    </g>
    <g id="line2d_45"/>
    <g id="text_21">
     <!-- Matrn-5/2 -->
     <g transform="translate(109 344.044062)scale(0.1 -0.1)">
      <use xlink:href="#DejaVuSans-77"/>
      <use x="86.279297" xlink:href="#DejaVuSans-97"/>
      <use x="147.558594" xlink:href="#DejaVuSans-116"/>
      <use x="186.767578" xlink:href="#DejaVuSans-233"/>
      <use x="248.291016" xlink:href="#DejaVuSans-114"/>
      <use x="287.654297" xlink:href="#DejaVuSans-110"/>
      <use x="351.033203" xlink:href="#DejaVuSans-45"/>
      <use x="387.117188" xlink:href="#DejaVuSans-53"/>
      <use x="450.740234" xlink:href="#DejaVuSans-47"/>
      <use x="484.431641" xlink:href="#DejaVuSans-50"/>
     </g>
    </g>
    <g id="line2d_46">
     <path d="M 81 355.222188 
L 101 355.222188 
" style="fill:none;stroke:#8c564b;stroke-linecap:square;stroke-width:1.5;"/>
    </g>
    <g id="line2d_47"/>
    <g id="text_22">
     <!-- RQ -->
     <defs>
      <path d="M 39.40625 66.21875 
Q 28.65625 66.21875 22.328125 58.203125 
Q 16.015625 50.203125 16.015625 36.375 
Q 16.015625 22.609375 22.328125 14.59375 
Q 28.65625 6.59375 39.40625 6.59375 
Q 50.140625 6.59375 56.421875 14.59375 
Q 62.703125 22.609375 62.703125 36.375 
Q 62.703125 50.203125 56.421875 58.203125 
Q 50.140625 66.21875 39.40625 66.21875 
z
M 53.21875 1.3125 
L 66.21875 -12.890625 
L 54.296875 -12.890625 
L 43.5 -1.21875 
Q 41.890625 -1.3125 41.03125 -1.359375 
Q 40.1875 -1.421875 39.40625 -1.421875 
Q 24.03125 -1.421875 14.8125 8.859375 
Q 5.609375 19.140625 5.609375 36.375 
Q 5.609375 53.65625 14.8125 63.9375 
Q 24.03125 74.21875 39.40625 74.21875 
Q 54.734375 74.21875 63.90625 63.9375 
Q 73.09375 53.65625 73.09375 36.375 
Q 73.09375 23.6875 67.984375 14.640625 
Q 62.890625 5.609375 53.21875 1.3125 
z
" id="DejaVuSans-81"/>
     </defs>
     <g transform="translate(109 358.722188)scale(0.1 -0.1)">
      <use xlink:href="#DejaVuSans-82"/>
      <use x="69.482422" xlink:href="#DejaVuSans-81"/>
     </g>
    </g>
    <g id="line2d_48">
     <path d="M 81 369.900313 
L 101 369.900313 
" style="fill:none;stroke:#e377c2;stroke-linecap:square;stroke-width:1.5;"/>
    </g>
    <g id="line2d_49"/>
    <g id="text_23">
     <!-- Dot Prod. -->
     <defs>
      <path d="M 19.671875 64.796875 
L 19.671875 8.109375 
L 31.59375 8.109375 
Q 46.6875 8.109375 53.6875 14.9375 
Q 60.6875 21.78125 60.6875 36.53125 
Q 60.6875 51.171875 53.6875 57.984375 
Q 46.6875 64.796875 31.59375 64.796875 
z
M 9.8125 72.90625 
L 30.078125 72.90625 
Q 51.265625 72.90625 61.171875 64.09375 
Q 71.09375 55.28125 71.09375 36.53125 
Q 71.09375 17.671875 61.125 8.828125 
Q 51.171875 0 30.078125 0 
L 9.8125 0 
z
" id="DejaVuSans-68"/>
      <path d="M 19.671875 64.796875 
L 19.671875 37.40625 
L 32.078125 37.40625 
Q 38.96875 37.40625 42.71875 40.96875 
Q 46.484375 44.53125 46.484375 51.125 
Q 46.484375 57.671875 42.71875 61.234375 
Q 38.96875 64.796875 32.078125 64.796875 
z
M 9.8125 72.90625 
L 32.078125 72.90625 
Q 44.34375 72.90625 50.609375 67.359375 
Q 56.890625 61.8125 56.890625 51.125 
Q 56.890625 40.328125 50.609375 34.8125 
Q 44.34375 29.296875 32.078125 29.296875 
L 19.671875 29.296875 
L 19.671875 0 
L 9.8125 0 
z
" id="DejaVuSans-80"/>
      <path d="M 10.6875 12.40625 
L 21 12.40625 
L 21 0 
L 10.6875 0 
z
" id="DejaVuSans-46"/>
     </defs>
     <g transform="translate(109 373.400313)scale(0.1 -0.1)">
      <use xlink:href="#DejaVuSans-68"/>
      <use x="77.001953" xlink:href="#DejaVuSans-111"/>
      <use x="138.183594" xlink:href="#DejaVuSans-116"/>
      <use x="177.392578" xlink:href="#DejaVuSans-32"/>
      <use x="209.179688" xlink:href="#DejaVuSans-80"/>
      <use x="267.732422" xlink:href="#DejaVuSans-114"/>
      <use x="306.595703" xlink:href="#DejaVuSans-111"/>
      <use x="367.777344" xlink:href="#DejaVuSans-100"/>
      <use x="431.253906" xlink:href="#DejaVuSans-46"/>
     </g>
    </g>
   </g>
  </g>
 </g>
 <defs>
  <clipPath id="p982956dca3">
   <rect height="332.64" width="446.4" x="72" y="51.84"/>
  </clipPath>
 </defs>
</svg>
