<?xml version="1.0" encoding="utf-8" standalone="no"?>
<!DOCTYPE svg PUBLIC "-//W3C//DTD SVG 1.1//EN"
  "http://www.w3.org/Graphics/SVG/1.1/DTD/svg11.dtd">
<!-- Created with matplotlib (https://matplotlib.org/) -->
<svg height="432pt" version="1.1" viewBox="0 0 576 432" width="576pt" xmlns="http://www.w3.org/2000/svg" xmlns:xlink="http://www.w3.org/1999/xlink">
 <defs>
  <style type="text/css">
*{stroke-linecap:butt;stroke-linejoin:round;}
  </style>
 </defs>
 <g id="figure_1">
  <g id="patch_1">
   <path d="M 0 432 
L 576 432 
L 576 0 
L 0 0 
z
" style="fill:#ffffff;"/>
  </g>
  <g id="axes_1">
   <g id="patch_2">
    <path d="M 72 384.48 
L 518.4 384.48 
L 518.4 51.84 
L 72 51.84 
z
" style="fill:#ffffff;"/>
   </g>
   <g id="PolyCollection_1">
    <path clip-path="url(#p0a8eeec557)" d="M 482.688 32.270445 
L 482.688 -114.664801 
L 482.688 32.270445 
L 482.688 32.270445 
z
" style="fill:#1f77b4;fill-opacity:0.3;"/>
   </g>
   <g id="PolyCollection_2">
    <path clip-path="url(#p0a8eeec557)" d="M 72 102.635896 
L 72 82.290303 
L 80.928 75.452548 
L 89.856 84.179861 
L 98.784 89.261235 
L 107.712 89.784269 
L 116.64 93.886308 
L 125.568 93.136028 
L 134.496 92.350889 
L 143.424 78.542516 
L 152.352 70.768192 
L 161.28 75.630604 
L 170.208 75.630604 
L 179.136 75.630604 
L 188.064 75.630901 
L 196.992 75.630901 
L 205.92 75.630901 
L 214.848 75.630901 
L 223.776 75.630901 
L 232.704 75.630901 
L 241.632 74.054865 
L 250.56 73.25797 
L 259.488 73.058673 
L 268.416 71.450346 
L 277.344 70.734695 
L 286.272 71.152639 
L 295.2 70.536092 
L 304.128 70.188345 
L 313.056 69.174169 
L 321.984 68.662976 
L 330.912 65.919235 
L 339.84 66.895173 
L 348.768 65.405713 
L 357.696 66.368755 
L 366.624 64.121366 
L 375.552 64.472312 
L 384.48 63.989132 
L 393.408 62.443985 
L 402.336 62.398601 
L 411.264 61.444347 
L 420.192 62.716415 
L 429.12 63.312662 
L 438.048 62.291497 
L 446.976 62.920409 
L 455.904 62.319044 
L 464.832 61.521852 
L 473.76 61.057439 
L 482.688 60.489425 
L 491.616 60.866686 
L 500.544 59.558637 
L 509.472 59.538811 
L 518.4 59.154481 
L 518.4 123.051538 
L 518.4 123.051538 
L 509.472 123.41948 
L 500.544 128.726675 
L 491.616 130.101078 
L 482.688 124.417334 
L 473.76 121.410103 
L 464.832 121.542416 
L 455.904 120.396895 
L 446.976 117.913595 
L 438.048 118.146465 
L 429.12 112.580948 
L 420.192 112.254063 
L 411.264 113.622463 
L 402.336 114.072015 
L 393.408 107.903471 
L 384.48 107.786062 
L 375.552 106.811019 
L 366.624 107.18149 
L 357.696 100.376855 
L 348.768 101.914915 
L 339.84 96.847635 
L 330.912 98.846191 
L 321.984 93.327956 
L 313.056 93.055425 
L 304.128 89.309739 
L 295.2 88.775937 
L 286.272 89.922149 
L 277.344 86.257672 
L 268.416 83.341951 
L 259.488 79.548669 
L 250.56 79.273841 
L 241.632 77.954802 
L 232.704 75.674477 
L 223.776 75.674477 
L 214.848 75.674477 
L 205.92 75.674477 
L 196.992 75.674477 
L 188.064 75.674477 
L 179.136 75.674444 
L 170.208 75.674444 
L 161.28 75.674444 
L 152.352 101.131044 
L 143.424 113.967198 
L 134.496 118.653143 
L 125.568 110.048256 
L 116.64 107.815914 
L 107.712 108.182915 
L 98.784 113.170508 
L 89.856 105.738413 
L 80.928 92.78293 
L 72 102.635896 
z
" style="fill:#ff7f0e;fill-opacity:0.3;"/>
   </g>
   <g id="PolyCollection_3">
    <path clip-path="url(#p0a8eeec557)" d="M 72 87.408567 
L 72 80.10607 
L 80.928 81.059343 
L 89.856 85.078998 
L 98.784 86.75968 
L 107.712 87.417981 
L 116.64 88.429296 
L 125.568 88.984543 
L 134.496 89.82412 
L 143.424 90.629912 
L 152.352 91.948733 
L 161.28 92.372492 
L 170.208 92.890872 
L 179.136 93.249743 
L 188.064 93.616538 
L 196.992 93.934977 
L 205.92 94.248393 
L 214.848 94.589992 
L 223.776 95.040216 
L 232.704 95.378675 
L 241.632 95.818643 
L 250.56 96.114859 
L 259.488 96.617066 
L 268.416 96.928064 
L 277.344 97.165321 
L 286.272 98.102493 
L 295.2 98.894353 
L 304.128 99.594163 
L 313.056 99.942424 
L 321.984 100.534865 
L 330.912 101.444973 
L 339.84 101.915937 
L 348.768 102.541384 
L 357.696 103.25216 
L 366.624 103.558988 
L 375.552 103.869777 
L 384.48 104.313603 
L 393.408 104.601809 
L 402.336 104.969109 
L 411.264 105.407863 
L 420.192 105.798694 
L 429.12 106.249623 
L 438.048 106.469348 
L 446.976 106.81315 
L 455.904 107.043414 
L 464.832 107.225987 
L 473.76 107.406157 
L 482.688 107.610831 
L 491.616 107.789251 
L 500.544 108.070544 
L 509.472 108.291327 
L 518.4 108.489993 
L 518.4 109.941866 
L 518.4 109.941866 
L 509.472 109.773159 
L 500.544 109.526124 
L 491.616 109.102311 
L 482.688 108.828551 
L 473.76 108.613898 
L 464.832 108.383539 
L 455.904 108.167011 
L 446.976 107.901796 
L 438.048 107.55356 
L 429.12 107.213925 
L 420.192 107.007574 
L 411.264 106.672286 
L 402.336 106.326189 
L 393.408 106.025444 
L 384.48 105.704401 
L 375.552 105.333706 
L 366.624 104.96777 
L 357.696 104.613625 
L 348.768 104.387676 
L 339.84 104.043197 
L 330.912 103.661556 
L 321.984 102.933498 
L 313.056 102.048431 
L 304.128 101.594799 
L 295.2 101.170883 
L 286.272 100.532143 
L 277.344 99.634083 
L 268.416 99.374884 
L 259.488 99.102936 
L 250.56 98.663741 
L 241.632 98.294524 
L 232.704 97.693834 
L 223.776 97.232852 
L 214.848 96.806426 
L 205.92 96.321514 
L 196.992 95.888675 
L 188.064 95.503573 
L 179.136 95.07268 
L 170.208 94.64666 
L 161.28 94.352579 
L 152.352 93.67973 
L 143.424 92.82134 
L 134.496 92.267287 
L 125.568 91.60049 
L 116.64 90.84394 
L 107.712 89.919362 
L 98.784 89.458446 
L 89.856 87.940165 
L 80.928 86.316761 
L 72 87.408567 
z
" style="fill:#2ca02c;fill-opacity:0.3;"/>
   </g>
   <g id="PolyCollection_4">
    <path clip-path="url(#p0a8eeec557)" d="M 72 93.660744 
L 72 78.090851 
L 80.928 78.788145 
L 89.856 85.14673 
L 98.784 88.887087 
L 107.712 90.16273 
L 116.64 94.527437 
L 125.568 96.687528 
L 134.496 98.643288 
L 143.424 98.923704 
L 152.352 100.450394 
L 161.28 101.225808 
L 170.208 102.427502 
L 179.136 103.210224 
L 188.064 103.625041 
L 196.992 104.3184 
L 205.92 104.943244 
L 214.848 105.487261 
L 223.776 106.024911 
L 232.704 106.418406 
L 241.632 106.889923 
L 250.56 107.295701 
L 259.488 107.630417 
L 268.416 108.489003 
L 277.344 108.828929 
L 286.272 109.163723 
L 295.2 109.503433 
L 304.128 109.871771 
L 313.056 110.149593 
L 321.984 110.385914 
L 330.912 110.645422 
L 339.84 110.965288 
L 348.768 111.223419 
L 357.696 111.548145 
L 366.624 111.821239 
L 375.552 112.079654 
L 384.48 112.387004 
L 393.408 112.829795 
L 402.336 113.459873 
L 411.264 113.920464 
L 420.192 114.92547 
L 429.12 116.12087 
L 438.048 116.651897 
L 446.976 117.213723 
L 455.904 117.963192 
L 464.832 118.20364 
L 473.76 118.43028 
L 482.688 118.70229 
L 491.616 118.976227 
L 500.544 119.162557 
L 509.472 119.373675 
L 518.4 119.538064 
L 518.4 139.075862 
L 518.4 139.075862 
L 509.472 138.283656 
L 500.544 137.943446 
L 491.616 137.62724 
L 482.688 136.955964 
L 473.76 136.631917 
L 464.832 136.002994 
L 455.904 135.548446 
L 446.976 134.848813 
L 438.048 134.457739 
L 429.12 133.76793 
L 420.192 132.63324 
L 411.264 130.998502 
L 402.336 129.765784 
L 393.408 127.9842 
L 384.48 124.017664 
L 375.552 123.33151 
L 366.624 122.883542 
L 357.696 122.60612 
L 348.768 122.302131 
L 339.84 121.699013 
L 330.912 121.385101 
L 321.984 121.07681 
L 313.056 120.605401 
L 304.128 120.157133 
L 295.2 119.75214 
L 286.272 119.346368 
L 277.344 118.968186 
L 268.416 118.419098 
L 259.488 117.884243 
L 250.56 117.333885 
L 241.632 116.829508 
L 232.704 116.307403 
L 223.776 115.681448 
L 214.848 115.038035 
L 205.92 114.340387 
L 196.992 113.425633 
L 188.064 112.756563 
L 179.136 111.321141 
L 170.208 110.352413 
L 161.28 108.170377 
L 152.352 107.545597 
L 143.424 106.949792 
L 134.496 105.909262 
L 125.568 105.225784 
L 116.64 102.447538 
L 107.712 101.553447 
L 98.784 99.156421 
L 89.856 94.759115 
L 80.928 89.064322 
L 72 93.660744 
z
" style="fill:#d62728;fill-opacity:0.3;"/>
   </g>
   <g id="PolyCollection_5">
    <path clip-path="url(#p0a8eeec557)" d="M 72 95.897839 
L 72 80.718798 
L 80.928 77.556123 
L 89.856 85.445587 
L 98.784 89.592348 
L 107.712 92.820739 
L 116.64 94.78105 
L 125.568 96.707433 
L 134.496 98.991955 
L 143.424 100.547281 
L 152.352 101.255555 
L 161.28 102.389055 
L 170.208 103.084961 
L 179.136 103.513174 
L 188.064 104.537042 
L 196.992 104.907033 
L 205.92 105.493055 
L 214.848 106.078719 
L 223.776 106.61243 
L 232.704 107.140852 
L 241.632 107.5708 
L 250.56 108.007121 
L 259.488 108.377701 
L 268.416 108.767203 
L 277.344 109.116102 
L 286.272 109.493175 
L 295.2 109.792945 
L 304.128 110.585307 
L 313.056 110.887537 
L 321.984 111.783767 
L 330.912 112.255055 
L 339.84 112.907514 
L 348.768 113.385643 
L 357.696 113.674106 
L 366.624 113.381697 
L 375.552 114.057998 
L 384.48 116.292231 
L 393.408 117.2581 
L 402.336 118.614301 
L 411.264 119.975282 
L 420.192 120.525851 
L 429.12 121.504588 
L 438.048 123.485212 
L 446.976 124.109253 
L 455.904 125.167209 
L 464.832 126.704435 
L 473.76 127.168945 
L 482.688 127.797282 
L 491.616 130.085702 
L 500.544 131.096775 
L 509.472 131.308938 
L 518.4 133.72712 
L 518.4 153.079879 
L 518.4 153.079879 
L 509.472 153.353108 
L 500.544 153.060831 
L 491.616 151.924606 
L 482.688 151.365766 
L 473.76 150.634759 
L 464.832 150.086895 
L 455.904 149.073962 
L 446.976 148.252535 
L 438.048 146.929062 
L 429.12 145.070595 
L 420.192 144.244132 
L 411.264 143.760617 
L 402.336 142.576119 
L 393.408 140.44863 
L 384.48 139.083769 
L 375.552 136.400212 
L 366.624 135.209153 
L 357.696 131.41795 
L 348.768 130.840222 
L 339.84 129.625076 
L 330.912 127.764458 
L 321.984 125.941746 
L 313.056 125.43747 
L 304.128 124.826848 
L 295.2 124.222559 
L 286.272 123.843282 
L 277.344 123.428464 
L 268.416 123.021047 
L 259.488 122.60065 
L 250.56 122.127782 
L 241.632 121.571123 
L 232.704 121.028001 
L 223.776 120.25035 
L 214.848 119.522195 
L 205.92 118.744045 
L 196.992 117.938369 
L 188.064 115.740175 
L 179.136 114.239575 
L 170.208 112.520476 
L 161.28 111.199338 
L 152.352 110.228842 
L 143.424 111.05989 
L 134.496 110.862594 
L 125.568 107.256283 
L 116.64 103.830463 
L 107.712 103.348516 
L 98.784 102.622731 
L 89.856 99.271725 
L 80.928 89.396245 
L 72 95.897839 
z
" style="fill:#9467bd;fill-opacity:0.3;"/>
   </g>
   <g id="PolyCollection_6">
    <path clip-path="url(#p0a8eeec557)" d="M 72 97.161122 
L 72 77.443914 
L 80.928 76.868841 
L 89.856 83.06844 
L 98.784 86.995054 
L 107.712 88.769392 
L 116.64 88.680841 
L 125.568 92.837465 
L 134.496 94.492601 
L 143.424 95.963578 
L 152.352 97.461436 
L 161.28 98.358043 
L 170.208 99.012978 
L 179.136 100.173326 
L 188.064 100.83896 
L 196.992 101.436079 
L 205.92 102.257621 
L 214.848 104.597421 
L 223.776 106.395057 
L 232.704 106.787765 
L 241.632 107.056656 
L 250.56 107.294866 
L 259.488 107.723326 
L 268.416 109.405915 
L 277.344 112.030567 
L 286.272 112.39439 
L 295.2 113.909176 
L 304.128 114.549909 
L 313.056 115.09289 
L 321.984 114.536856 
L 330.912 115.442182 
L 339.84 116.011728 
L 348.768 117.944038 
L 357.696 121.345156 
L 366.624 124.433129 
L 375.552 125.044004 
L 384.48 126.619892 
L 393.408 129.406333 
L 402.336 131.822408 
L 411.264 132.572477 
L 420.192 135.335242 
L 429.12 137.320139 
L 438.048 138.823076 
L 446.976 137.874349 
L 455.904 138.826176 
L 464.832 141.3287 
L 473.76 144.534233 
L 482.688 145.22039 
L 491.616 147.147761 
L 500.544 148.77443 
L 509.472 150.568656 
L 518.4 150.568272 
L 518.4 171.311522 
L 518.4 171.311522 
L 509.472 167.707061 
L 500.544 168.237334 
L 491.616 167.334321 
L 482.688 165.817416 
L 473.76 162.8426 
L 464.832 157.839939 
L 455.904 156.385416 
L 446.976 156.031083 
L 438.048 154.39697 
L 429.12 153.823345 
L 420.192 151.925039 
L 411.264 150.072344 
L 402.336 149.325218 
L 393.408 146.54724 
L 384.48 145.884219 
L 375.552 144.628552 
L 366.624 143.819307 
L 357.696 140.807447 
L 348.768 137.202949 
L 339.84 132.391242 
L 330.912 131.363841 
L 321.984 129.703494 
L 313.056 126.741776 
L 304.128 126.165296 
L 295.2 125.592837 
L 286.272 125.204531 
L 277.344 124.981926 
L 268.416 123.49776 
L 259.488 122.502702 
L 250.56 122.016629 
L 241.632 121.754082 
L 232.704 121.286572 
L 223.776 120.489532 
L 214.848 119.366328 
L 205.92 117.966425 
L 196.992 116.842842 
L 188.064 114.089053 
L 179.136 112.719216 
L 170.208 110.788356 
L 161.28 109.333393 
L 152.352 108.099864 
L 143.424 109.301905 
L 134.496 107.938553 
L 125.568 104.820861 
L 116.64 104.767301 
L 107.712 101.127035 
L 98.784 99.594518 
L 89.856 96.538974 
L 80.928 89.07162 
L 72 97.161122 
z
" style="fill:#8c564b;fill-opacity:0.3;"/>
   </g>
   <g id="PolyCollection_7">
    <path clip-path="url(#p0a8eeec557)" d="M 80.928 207.561053 
L 80.928 161.509596 
L 89.856 164.429822 
L 98.784 161.444235 
L 107.712 165.668457 
L 116.64 157.07235 
L 125.568 163.782225 
L 134.496 161.132943 
L 143.424 160.125668 
L 152.352 161.438553 
L 161.28 157.440886 
L 170.208 156.901885 
L 179.136 155.487089 
L 188.064 156.526779 
L 196.992 154.726785 
L 205.92 149.361383 
L 214.848 137.456093 
L 223.776 149.524087 
L 232.704 150.271254 
L 241.632 156.057986 
L 250.56 137.61883 
L 259.488 153.362347 
L 259.488 198.095271 
L 259.488 198.095271 
L 250.56 224.956925 
L 241.632 191.477861 
L 232.704 211.970856 
L 223.776 190.992848 
L 214.848 216.758507 
L 205.92 198.447753 
L 196.992 196.987183 
L 188.064 191.763649 
L 179.136 190.062276 
L 170.208 187.693177 
L 161.28 197.943576 
L 152.352 190.939202 
L 143.424 198.506896 
L 134.496 190.773695 
L 125.568 192.481645 
L 116.64 210.496872 
L 107.712 193.611762 
L 98.784 202.163018 
L 89.856 200.700298 
L 80.928 207.561053 
z
" style="fill:#e377c2;fill-opacity:0.3;"/>
    <path clip-path="url(#p0a8eeec557)" d="M 304.128 231.972633 
L 304.128 137.741015 
L 313.056 127.503035 
L 313.056 215.335459 
L 313.056 215.335459 
L 304.128 231.972633 
z
" style="fill:#e377c2;fill-opacity:0.3;"/>
    <path clip-path="url(#p0a8eeec557)" d="M 446.976 222.955096 
L 446.976 135.25635 
L 446.976 222.955096 
L 446.976 222.955096 
z
" style="fill:#e377c2;fill-opacity:0.3;"/>
    <path clip-path="url(#p0a8eeec557)" d="M 509.472 234.76501 
L 509.472 135.583644 
L 509.472 234.76501 
L 509.472 234.76501 
z
" style="fill:#e377c2;fill-opacity:0.3;"/>
   </g>
   <g id="matplotlib.axis_1">
    <g id="xtick_1">
     <g id="line2d_1">
      <path clip-path="url(#p0a8eeec557)" d="M 72 384.48 
L 72 51.84 
" style="fill:none;stroke:#b0b0b0;stroke-linecap:square;stroke-width:0.8;"/>
     </g>
     <g id="line2d_2">
      <defs>
       <path d="M 0 0 
L 0 3.5 
" id="m41167c532f" style="stroke:#000000;stroke-width:0.8;"/>
      </defs>
      <g>
       <use style="stroke:#000000;stroke-width:0.8;" x="72" xlink:href="#m41167c532f" y="384.48"/>
      </g>
     </g>
     <g id="text_1">
      <!-- 0 -->
      <defs>
       <path d="M 31.78125 66.40625 
Q 24.171875 66.40625 20.328125 58.90625 
Q 16.5 51.421875 16.5 36.375 
Q 16.5 21.390625 20.328125 13.890625 
Q 24.171875 6.390625 31.78125 6.390625 
Q 39.453125 6.390625 43.28125 13.890625 
Q 47.125 21.390625 47.125 36.375 
Q 47.125 51.421875 43.28125 58.90625 
Q 39.453125 66.40625 31.78125 66.40625 
z
M 31.78125 74.21875 
Q 44.046875 74.21875 50.515625 64.515625 
Q 56.984375 54.828125 56.984375 36.375 
Q 56.984375 17.96875 50.515625 8.265625 
Q 44.046875 -1.421875 31.78125 -1.421875 
Q 19.53125 -1.421875 13.0625 8.265625 
Q 6.59375 17.96875 6.59375 36.375 
Q 6.59375 54.828125 13.0625 64.515625 
Q 19.53125 74.21875 31.78125 74.21875 
z
" id="DejaVuSans-48"/>
      </defs>
      <g transform="translate(68.81875 399.078438)scale(0.1 -0.1)">
       <use xlink:href="#DejaVuSans-48"/>
      </g>
     </g>
    </g>
    <g id="xtick_2">
     <g id="line2d_3">
      <path clip-path="url(#p0a8eeec557)" d="M 161.28 384.48 
L 161.28 51.84 
" style="fill:none;stroke:#b0b0b0;stroke-linecap:square;stroke-width:0.8;"/>
     </g>
     <g id="line2d_4">
      <g>
       <use style="stroke:#000000;stroke-width:0.8;" x="161.28" xlink:href="#m41167c532f" y="384.48"/>
      </g>
     </g>
     <g id="text_2">
      <!-- 10 -->
      <defs>
       <path d="M 12.40625 8.296875 
L 28.515625 8.296875 
L 28.515625 63.921875 
L 10.984375 60.40625 
L 10.984375 69.390625 
L 28.421875 72.90625 
L 38.28125 72.90625 
L 38.28125 8.296875 
L 54.390625 8.296875 
L 54.390625 0 
L 12.40625 0 
z
" id="DejaVuSans-49"/>
      </defs>
      <g transform="translate(154.9175 399.078438)scale(0.1 -0.1)">
       <use xlink:href="#DejaVuSans-49"/>
       <use x="63.623047" xlink:href="#DejaVuSans-48"/>
      </g>
     </g>
    </g>
    <g id="xtick_3">
     <g id="line2d_5">
      <path clip-path="url(#p0a8eeec557)" d="M 250.56 384.48 
L 250.56 51.84 
" style="fill:none;stroke:#b0b0b0;stroke-linecap:square;stroke-width:0.8;"/>
     </g>
     <g id="line2d_6">
      <g>
       <use style="stroke:#000000;stroke-width:0.8;" x="250.56" xlink:href="#m41167c532f" y="384.48"/>
      </g>
     </g>
     <g id="text_3">
      <!-- 20 -->
      <defs>
       <path d="M 19.1875 8.296875 
L 53.609375 8.296875 
L 53.609375 0 
L 7.328125 0 
L 7.328125 8.296875 
Q 12.9375 14.109375 22.625 23.890625 
Q 32.328125 33.6875 34.8125 36.53125 
Q 39.546875 41.84375 41.421875 45.53125 
Q 43.3125 49.21875 43.3125 52.78125 
Q 43.3125 58.59375 39.234375 62.25 
Q 35.15625 65.921875 28.609375 65.921875 
Q 23.96875 65.921875 18.8125 64.3125 
Q 13.671875 62.703125 7.8125 59.421875 
L 7.8125 69.390625 
Q 13.765625 71.78125 18.9375 73 
Q 24.125 74.21875 28.421875 74.21875 
Q 39.75 74.21875 46.484375 68.546875 
Q 53.21875 62.890625 53.21875 53.421875 
Q 53.21875 48.921875 51.53125 44.890625 
Q 49.859375 40.875 45.40625 35.40625 
Q 44.1875 33.984375 37.640625 27.21875 
Q 31.109375 20.453125 19.1875 8.296875 
z
" id="DejaVuSans-50"/>
      </defs>
      <g transform="translate(244.1975 399.078438)scale(0.1 -0.1)">
       <use xlink:href="#DejaVuSans-50"/>
       <use x="63.623047" xlink:href="#DejaVuSans-48"/>
      </g>
     </g>
    </g>
    <g id="xtick_4">
     <g id="line2d_7">
      <path clip-path="url(#p0a8eeec557)" d="M 339.84 384.48 
L 339.84 51.84 
" style="fill:none;stroke:#b0b0b0;stroke-linecap:square;stroke-width:0.8;"/>
     </g>
     <g id="line2d_8">
      <g>
       <use style="stroke:#000000;stroke-width:0.8;" x="339.84" xlink:href="#m41167c532f" y="384.48"/>
      </g>
     </g>
     <g id="text_4">
      <!-- 30 -->
      <defs>
       <path d="M 40.578125 39.3125 
Q 47.65625 37.796875 51.625 33 
Q 55.609375 28.21875 55.609375 21.1875 
Q 55.609375 10.40625 48.1875 4.484375 
Q 40.765625 -1.421875 27.09375 -1.421875 
Q 22.515625 -1.421875 17.65625 -0.515625 
Q 12.796875 0.390625 7.625 2.203125 
L 7.625 11.71875 
Q 11.71875 9.328125 16.59375 8.109375 
Q 21.484375 6.890625 26.8125 6.890625 
Q 36.078125 6.890625 40.9375 10.546875 
Q 45.796875 14.203125 45.796875 21.1875 
Q 45.796875 27.640625 41.28125 31.265625 
Q 36.765625 34.90625 28.71875 34.90625 
L 20.21875 34.90625 
L 20.21875 43.015625 
L 29.109375 43.015625 
Q 36.375 43.015625 40.234375 45.921875 
Q 44.09375 48.828125 44.09375 54.296875 
Q 44.09375 59.90625 40.109375 62.90625 
Q 36.140625 65.921875 28.71875 65.921875 
Q 24.65625 65.921875 20.015625 65.03125 
Q 15.375 64.15625 9.8125 62.3125 
L 9.8125 71.09375 
Q 15.4375 72.65625 20.34375 73.4375 
Q 25.25 74.21875 29.59375 74.21875 
Q 40.828125 74.21875 47.359375 69.109375 
Q 53.90625 64.015625 53.90625 55.328125 
Q 53.90625 49.265625 50.4375 45.09375 
Q 46.96875 40.921875 40.578125 39.3125 
z
" id="DejaVuSans-51"/>
      </defs>
      <g transform="translate(333.4775 399.078438)scale(0.1 -0.1)">
       <use xlink:href="#DejaVuSans-51"/>
       <use x="63.623047" xlink:href="#DejaVuSans-48"/>
      </g>
     </g>
    </g>
    <g id="xtick_5">
     <g id="line2d_9">
      <path clip-path="url(#p0a8eeec557)" d="M 429.12 384.48 
L 429.12 51.84 
" style="fill:none;stroke:#b0b0b0;stroke-linecap:square;stroke-width:0.8;"/>
     </g>
     <g id="line2d_10">
      <g>
       <use style="stroke:#000000;stroke-width:0.8;" x="429.12" xlink:href="#m41167c532f" y="384.48"/>
      </g>
     </g>
     <g id="text_5">
      <!-- 40 -->
      <defs>
       <path d="M 37.796875 64.3125 
L 12.890625 25.390625 
L 37.796875 25.390625 
z
M 35.203125 72.90625 
L 47.609375 72.90625 
L 47.609375 25.390625 
L 58.015625 25.390625 
L 58.015625 17.1875 
L 47.609375 17.1875 
L 47.609375 0 
L 37.796875 0 
L 37.796875 17.1875 
L 4.890625 17.1875 
L 4.890625 26.703125 
z
" id="DejaVuSans-52"/>
      </defs>
      <g transform="translate(422.7575 399.078438)scale(0.1 -0.1)">
       <use xlink:href="#DejaVuSans-52"/>
       <use x="63.623047" xlink:href="#DejaVuSans-48"/>
      </g>
     </g>
    </g>
    <g id="xtick_6">
     <g id="line2d_11">
      <path clip-path="url(#p0a8eeec557)" d="M 518.4 384.48 
L 518.4 51.84 
" style="fill:none;stroke:#b0b0b0;stroke-linecap:square;stroke-width:0.8;"/>
     </g>
     <g id="line2d_12">
      <g>
       <use style="stroke:#000000;stroke-width:0.8;" x="518.4" xlink:href="#m41167c532f" y="384.48"/>
      </g>
     </g>
     <g id="text_6">
      <!-- 50 -->
      <defs>
       <path d="M 10.796875 72.90625 
L 49.515625 72.90625 
L 49.515625 64.59375 
L 19.828125 64.59375 
L 19.828125 46.734375 
Q 21.96875 47.46875 24.109375 47.828125 
Q 26.265625 48.1875 28.421875 48.1875 
Q 40.625 48.1875 47.75 41.5 
Q 54.890625 34.8125 54.890625 23.390625 
Q 54.890625 11.625 47.5625 5.09375 
Q 40.234375 -1.421875 26.90625 -1.421875 
Q 22.3125 -1.421875 17.546875 -0.640625 
Q 12.796875 0.140625 7.71875 1.703125 
L 7.71875 11.625 
Q 12.109375 9.234375 16.796875 8.0625 
Q 21.484375 6.890625 26.703125 6.890625 
Q 35.15625 6.890625 40.078125 11.328125 
Q 45.015625 15.765625 45.015625 23.390625 
Q 45.015625 31 40.078125 35.4375 
Q 35.15625 39.890625 26.703125 39.890625 
Q 22.75 39.890625 18.8125 39.015625 
Q 14.890625 38.140625 10.796875 36.28125 
z
" id="DejaVuSans-53"/>
      </defs>
      <g transform="translate(512.0375 399.078438)scale(0.1 -0.1)">
       <use xlink:href="#DejaVuSans-53"/>
       <use x="63.623047" xlink:href="#DejaVuSans-48"/>
      </g>
     </g>
    </g>
    <g id="text_7">
     <!-- Iteration -->
     <defs>
      <path d="M 9.8125 72.90625 
L 19.671875 72.90625 
L 19.671875 0 
L 9.8125 0 
z
" id="DejaVuSans-73"/>
      <path d="M 18.3125 70.21875 
L 18.3125 54.6875 
L 36.8125 54.6875 
L 36.8125 47.703125 
L 18.3125 47.703125 
L 18.3125 18.015625 
Q 18.3125 11.328125 20.140625 9.421875 
Q 21.96875 7.515625 27.59375 7.515625 
L 36.8125 7.515625 
L 36.8125 0 
L 27.59375 0 
Q 17.1875 0 13.234375 3.875 
Q 9.28125 7.765625 9.28125 18.015625 
L 9.28125 47.703125 
L 2.6875 47.703125 
L 2.6875 54.6875 
L 9.28125 54.6875 
L 9.28125 70.21875 
z
" id="DejaVuSans-116"/>
      <path d="M 56.203125 29.59375 
L 56.203125 25.203125 
L 14.890625 25.203125 
Q 15.484375 15.921875 20.484375 11.0625 
Q 25.484375 6.203125 34.421875 6.203125 
Q 39.59375 6.203125 44.453125 7.46875 
Q 49.3125 8.734375 54.109375 11.28125 
L 54.109375 2.78125 
Q 49.265625 0.734375 44.1875 -0.34375 
Q 39.109375 -1.421875 33.890625 -1.421875 
Q 20.796875 -1.421875 13.15625 6.1875 
Q 5.515625 13.8125 5.515625 26.8125 
Q 5.515625 40.234375 12.765625 48.109375 
Q 20.015625 56 32.328125 56 
Q 43.359375 56 49.78125 48.890625 
Q 56.203125 41.796875 56.203125 29.59375 
z
M 47.21875 32.234375 
Q 47.125 39.59375 43.09375 43.984375 
Q 39.0625 48.390625 32.421875 48.390625 
Q 24.90625 48.390625 20.390625 44.140625 
Q 15.875 39.890625 15.1875 32.171875 
z
" id="DejaVuSans-101"/>
      <path d="M 41.109375 46.296875 
Q 39.59375 47.171875 37.8125 47.578125 
Q 36.03125 48 33.890625 48 
Q 26.265625 48 22.1875 43.046875 
Q 18.109375 38.09375 18.109375 28.8125 
L 18.109375 0 
L 9.078125 0 
L 9.078125 54.6875 
L 18.109375 54.6875 
L 18.109375 46.1875 
Q 20.953125 51.171875 25.484375 53.578125 
Q 30.03125 56 36.53125 56 
Q 37.453125 56 38.578125 55.875 
Q 39.703125 55.765625 41.0625 55.515625 
z
" id="DejaVuSans-114"/>
      <path d="M 34.28125 27.484375 
Q 23.390625 27.484375 19.1875 25 
Q 14.984375 22.515625 14.984375 16.5 
Q 14.984375 11.71875 18.140625 8.90625 
Q 21.296875 6.109375 26.703125 6.109375 
Q 34.1875 6.109375 38.703125 11.40625 
Q 43.21875 16.703125 43.21875 25.484375 
L 43.21875 27.484375 
z
M 52.203125 31.203125 
L 52.203125 0 
L 43.21875 0 
L 43.21875 8.296875 
Q 40.140625 3.328125 35.546875 0.953125 
Q 30.953125 -1.421875 24.3125 -1.421875 
Q 15.921875 -1.421875 10.953125 3.296875 
Q 6 8.015625 6 15.921875 
Q 6 25.140625 12.171875 29.828125 
Q 18.359375 34.515625 30.609375 34.515625 
L 43.21875 34.515625 
L 43.21875 35.40625 
Q 43.21875 41.609375 39.140625 45 
Q 35.0625 48.390625 27.6875 48.390625 
Q 23 48.390625 18.546875 47.265625 
Q 14.109375 46.140625 10.015625 43.890625 
L 10.015625 52.203125 
Q 14.9375 54.109375 19.578125 55.046875 
Q 24.21875 56 28.609375 56 
Q 40.484375 56 46.34375 49.84375 
Q 52.203125 43.703125 52.203125 31.203125 
z
" id="DejaVuSans-97"/>
      <path d="M 9.421875 54.6875 
L 18.40625 54.6875 
L 18.40625 0 
L 9.421875 0 
z
M 9.421875 75.984375 
L 18.40625 75.984375 
L 18.40625 64.59375 
L 9.421875 64.59375 
z
" id="DejaVuSans-105"/>
      <path d="M 30.609375 48.390625 
Q 23.390625 48.390625 19.1875 42.75 
Q 14.984375 37.109375 14.984375 27.296875 
Q 14.984375 17.484375 19.15625 11.84375 
Q 23.34375 6.203125 30.609375 6.203125 
Q 37.796875 6.203125 41.984375 11.859375 
Q 46.1875 17.53125 46.1875 27.296875 
Q 46.1875 37.015625 41.984375 42.703125 
Q 37.796875 48.390625 30.609375 48.390625 
z
M 30.609375 56 
Q 42.328125 56 49.015625 48.375 
Q 55.71875 40.765625 55.71875 27.296875 
Q 55.71875 13.875 49.015625 6.21875 
Q 42.328125 -1.421875 30.609375 -1.421875 
Q 18.84375 -1.421875 12.171875 6.21875 
Q 5.515625 13.875 5.515625 27.296875 
Q 5.515625 40.765625 12.171875 48.375 
Q 18.84375 56 30.609375 56 
z
" id="DejaVuSans-111"/>
      <path d="M 54.890625 33.015625 
L 54.890625 0 
L 45.90625 0 
L 45.90625 32.71875 
Q 45.90625 40.484375 42.875 44.328125 
Q 39.84375 48.1875 33.796875 48.1875 
Q 26.515625 48.1875 22.3125 43.546875 
Q 18.109375 38.921875 18.109375 30.90625 
L 18.109375 0 
L 9.078125 0 
L 9.078125 54.6875 
L 18.109375 54.6875 
L 18.109375 46.1875 
Q 21.34375 51.125 25.703125 53.5625 
Q 30.078125 56 35.796875 56 
Q 45.21875 56 50.046875 50.171875 
Q 54.890625 44.34375 54.890625 33.015625 
z
" id="DejaVuSans-110"/>
     </defs>
     <g transform="translate(273.991406 412.756563)scale(0.1 -0.1)">
      <use xlink:href="#DejaVuSans-73"/>
      <use x="29.492188" xlink:href="#DejaVuSans-116"/>
      <use x="68.701172" xlink:href="#DejaVuSans-101"/>
      <use x="130.224609" xlink:href="#DejaVuSans-114"/>
      <use x="171.337891" xlink:href="#DejaVuSans-97"/>
      <use x="232.617188" xlink:href="#DejaVuSans-116"/>
      <use x="271.826172" xlink:href="#DejaVuSans-105"/>
      <use x="299.609375" xlink:href="#DejaVuSans-111"/>
      <use x="360.791016" xlink:href="#DejaVuSans-110"/>
     </g>
    </g>
   </g>
   <g id="matplotlib.axis_2">
    <g id="ytick_1">
     <g id="line2d_13">
      <path clip-path="url(#p0a8eeec557)" d="M 72 384.48 
L 518.4 384.48 
" style="fill:none;stroke:#b0b0b0;stroke-linecap:square;stroke-width:0.8;"/>
     </g>
     <g id="line2d_14">
      <defs>
       <path d="M 0 0 
L -3.5 0 
" id="me49dd5e6ec" style="stroke:#000000;stroke-width:0.8;"/>
      </defs>
      <g>
       <use style="stroke:#000000;stroke-width:0.8;" x="72" xlink:href="#me49dd5e6ec" y="384.48"/>
      </g>
     </g>
     <g id="text_8">
      <!-- $\mathdefault{10^{-12}}$ -->
      <defs>
       <path d="M 10.59375 35.5 
L 73.1875 35.5 
L 73.1875 27.203125 
L 10.59375 27.203125 
z
" id="DejaVuSans-8722"/>
      </defs>
      <g transform="translate(37.1 388.279219)scale(0.1 -0.1)">
       <use transform="translate(0 0.765625)" xlink:href="#DejaVuSans-49"/>
       <use transform="translate(63.623047 0.765625)" xlink:href="#DejaVuSans-48"/>
       <use transform="translate(128.203125 39.046875)scale(0.7)" xlink:href="#DejaVuSans-8722"/>
       <use transform="translate(186.855469 39.046875)scale(0.7)" xlink:href="#DejaVuSans-49"/>
       <use transform="translate(231.391602 39.046875)scale(0.7)" xlink:href="#DejaVuSans-50"/>
      </g>
     </g>
    </g>
    <g id="ytick_2">
     <g id="line2d_15">
      <path clip-path="url(#p0a8eeec557)" d="M 72 336.96 
L 518.4 336.96 
" style="fill:none;stroke:#b0b0b0;stroke-linecap:square;stroke-width:0.8;"/>
     </g>
     <g id="line2d_16">
      <g>
       <use style="stroke:#000000;stroke-width:0.8;" x="72" xlink:href="#me49dd5e6ec" y="336.96"/>
      </g>
     </g>
     <g id="text_9">
      <!-- $\mathdefault{10^{-10}}$ -->
      <g transform="translate(37.1 340.759219)scale(0.1 -0.1)">
       <use transform="translate(0 0.765625)" xlink:href="#DejaVuSans-49"/>
       <use transform="translate(63.623047 0.765625)" xlink:href="#DejaVuSans-48"/>
       <use transform="translate(128.203125 39.046875)scale(0.7)" xlink:href="#DejaVuSans-8722"/>
       <use transform="translate(186.855469 39.046875)scale(0.7)" xlink:href="#DejaVuSans-49"/>
       <use transform="translate(231.391602 39.046875)scale(0.7)" xlink:href="#DejaVuSans-48"/>
      </g>
     </g>
    </g>
    <g id="ytick_3">
     <g id="line2d_17">
      <path clip-path="url(#p0a8eeec557)" d="M 72 289.44 
L 518.4 289.44 
" style="fill:none;stroke:#b0b0b0;stroke-linecap:square;stroke-width:0.8;"/>
     </g>
     <g id="line2d_18">
      <g>
       <use style="stroke:#000000;stroke-width:0.8;" x="72" xlink:href="#me49dd5e6ec" y="289.44"/>
      </g>
     </g>
     <g id="text_10">
      <!-- $\mathdefault{10^{-8}}$ -->
      <defs>
       <path d="M 31.78125 34.625 
Q 24.75 34.625 20.71875 30.859375 
Q 16.703125 27.09375 16.703125 20.515625 
Q 16.703125 13.921875 20.71875 10.15625 
Q 24.75 6.390625 31.78125 6.390625 
Q 38.8125 6.390625 42.859375 10.171875 
Q 46.921875 13.96875 46.921875 20.515625 
Q 46.921875 27.09375 42.890625 30.859375 
Q 38.875 34.625 31.78125 34.625 
z
M 21.921875 38.8125 
Q 15.578125 40.375 12.03125 44.71875 
Q 8.5 49.078125 8.5 55.328125 
Q 8.5 64.0625 14.71875 69.140625 
Q 20.953125 74.21875 31.78125 74.21875 
Q 42.671875 74.21875 48.875 69.140625 
Q 55.078125 64.0625 55.078125 55.328125 
Q 55.078125 49.078125 51.53125 44.71875 
Q 48 40.375 41.703125 38.8125 
Q 48.828125 37.15625 52.796875 32.3125 
Q 56.78125 27.484375 56.78125 20.515625 
Q 56.78125 9.90625 50.3125 4.234375 
Q 43.84375 -1.421875 31.78125 -1.421875 
Q 19.734375 -1.421875 13.25 4.234375 
Q 6.78125 9.90625 6.78125 20.515625 
Q 6.78125 27.484375 10.78125 32.3125 
Q 14.796875 37.15625 21.921875 38.8125 
z
M 18.3125 54.390625 
Q 18.3125 48.734375 21.84375 45.5625 
Q 25.390625 42.390625 31.78125 42.390625 
Q 38.140625 42.390625 41.71875 45.5625 
Q 45.3125 48.734375 45.3125 54.390625 
Q 45.3125 60.0625 41.71875 63.234375 
Q 38.140625 66.40625 31.78125 66.40625 
Q 25.390625 66.40625 21.84375 63.234375 
Q 18.3125 60.0625 18.3125 54.390625 
z
" id="DejaVuSans-56"/>
      </defs>
      <g transform="translate(41.5 293.239219)scale(0.1 -0.1)">
       <use transform="translate(0 0.765625)" xlink:href="#DejaVuSans-49"/>
       <use transform="translate(63.623047 0.765625)" xlink:href="#DejaVuSans-48"/>
       <use transform="translate(128.203125 39.046875)scale(0.7)" xlink:href="#DejaVuSans-8722"/>
       <use transform="translate(186.855469 39.046875)scale(0.7)" xlink:href="#DejaVuSans-56"/>
      </g>
     </g>
    </g>
    <g id="ytick_4">
     <g id="line2d_19">
      <path clip-path="url(#p0a8eeec557)" d="M 72 241.92 
L 518.4 241.92 
" style="fill:none;stroke:#b0b0b0;stroke-linecap:square;stroke-width:0.8;"/>
     </g>
     <g id="line2d_20">
      <g>
       <use style="stroke:#000000;stroke-width:0.8;" x="72" xlink:href="#me49dd5e6ec" y="241.92"/>
      </g>
     </g>
     <g id="text_11">
      <!-- $\mathdefault{10^{-6}}$ -->
      <defs>
       <path d="M 33.015625 40.375 
Q 26.375 40.375 22.484375 35.828125 
Q 18.609375 31.296875 18.609375 23.390625 
Q 18.609375 15.53125 22.484375 10.953125 
Q 26.375 6.390625 33.015625 6.390625 
Q 39.65625 6.390625 43.53125 10.953125 
Q 47.40625 15.53125 47.40625 23.390625 
Q 47.40625 31.296875 43.53125 35.828125 
Q 39.65625 40.375 33.015625 40.375 
z
M 52.59375 71.296875 
L 52.59375 62.3125 
Q 48.875 64.0625 45.09375 64.984375 
Q 41.3125 65.921875 37.59375 65.921875 
Q 27.828125 65.921875 22.671875 59.328125 
Q 17.53125 52.734375 16.796875 39.40625 
Q 19.671875 43.65625 24.015625 45.921875 
Q 28.375 48.1875 33.59375 48.1875 
Q 44.578125 48.1875 50.953125 41.515625 
Q 57.328125 34.859375 57.328125 23.390625 
Q 57.328125 12.15625 50.6875 5.359375 
Q 44.046875 -1.421875 33.015625 -1.421875 
Q 20.359375 -1.421875 13.671875 8.265625 
Q 6.984375 17.96875 6.984375 36.375 
Q 6.984375 53.65625 15.1875 63.9375 
Q 23.390625 74.21875 37.203125 74.21875 
Q 40.921875 74.21875 44.703125 73.484375 
Q 48.484375 72.75 52.59375 71.296875 
z
" id="DejaVuSans-54"/>
      </defs>
      <g transform="translate(41.5 245.719219)scale(0.1 -0.1)">
       <use transform="translate(0 0.765625)" xlink:href="#DejaVuSans-49"/>
       <use transform="translate(63.623047 0.765625)" xlink:href="#DejaVuSans-48"/>
       <use transform="translate(128.203125 39.046875)scale(0.7)" xlink:href="#DejaVuSans-8722"/>
       <use transform="translate(186.855469 39.046875)scale(0.7)" xlink:href="#DejaVuSans-54"/>
      </g>
     </g>
    </g>
    <g id="ytick_5">
     <g id="line2d_21">
      <path clip-path="url(#p0a8eeec557)" d="M 72 194.4 
L 518.4 194.4 
" style="fill:none;stroke:#b0b0b0;stroke-linecap:square;stroke-width:0.8;"/>
     </g>
     <g id="line2d_22">
      <g>
       <use style="stroke:#000000;stroke-width:0.8;" x="72" xlink:href="#me49dd5e6ec" y="194.4"/>
      </g>
     </g>
     <g id="text_12">
      <!-- $\mathdefault{10^{-4}}$ -->
      <g transform="translate(41.5 198.199219)scale(0.1 -0.1)">
       <use transform="translate(0 0.684375)" xlink:href="#DejaVuSans-49"/>
       <use transform="translate(63.623047 0.684375)" xlink:href="#DejaVuSans-48"/>
       <use transform="translate(128.203125 38.965625)scale(0.7)" xlink:href="#DejaVuSans-8722"/>
       <use transform="translate(186.855469 38.965625)scale(0.7)" xlink:href="#DejaVuSans-52"/>
      </g>
     </g>
    </g>
    <g id="ytick_6">
     <g id="line2d_23">
      <path clip-path="url(#p0a8eeec557)" d="M 72 146.88 
L 518.4 146.88 
" style="fill:none;stroke:#b0b0b0;stroke-linecap:square;stroke-width:0.8;"/>
     </g>
     <g id="line2d_24">
      <g>
       <use style="stroke:#000000;stroke-width:0.8;" x="72" xlink:href="#me49dd5e6ec" y="146.88"/>
      </g>
     </g>
     <g id="text_13">
      <!-- $\mathdefault{10^{-2}}$ -->
      <g transform="translate(41.5 150.679219)scale(0.1 -0.1)">
       <use transform="translate(0 0.765625)" xlink:href="#DejaVuSans-49"/>
       <use transform="translate(63.623047 0.765625)" xlink:href="#DejaVuSans-48"/>
       <use transform="translate(128.203125 39.046875)scale(0.7)" xlink:href="#DejaVuSans-8722"/>
       <use transform="translate(186.855469 39.046875)scale(0.7)" xlink:href="#DejaVuSans-50"/>
      </g>
     </g>
    </g>
    <g id="ytick_7">
     <g id="line2d_25">
      <path clip-path="url(#p0a8eeec557)" d="M 72 99.36 
L 518.4 99.36 
" style="fill:none;stroke:#b0b0b0;stroke-linecap:square;stroke-width:0.8;"/>
     </g>
     <g id="line2d_26">
      <g>
       <use style="stroke:#000000;stroke-width:0.8;" x="72" xlink:href="#me49dd5e6ec" y="99.36"/>
      </g>
     </g>
     <g id="text_14">
      <!-- $\mathdefault{10^{0}}$ -->
      <g transform="translate(47.4 103.159219)scale(0.1 -0.1)">
       <use transform="translate(0 0.765625)" xlink:href="#DejaVuSans-49"/>
       <use transform="translate(63.623047 0.765625)" xlink:href="#DejaVuSans-48"/>
       <use transform="translate(128.203125 39.046875)scale(0.7)" xlink:href="#DejaVuSans-48"/>
      </g>
     </g>
    </g>
    <g id="ytick_8">
     <g id="line2d_27">
      <path clip-path="url(#p0a8eeec557)" d="M 72 51.84 
L 518.4 51.84 
" style="fill:none;stroke:#b0b0b0;stroke-linecap:square;stroke-width:0.8;"/>
     </g>
     <g id="line2d_28">
      <g>
       <use style="stroke:#000000;stroke-width:0.8;" x="72" xlink:href="#me49dd5e6ec" y="51.84"/>
      </g>
     </g>
     <g id="text_15">
      <!-- $\mathdefault{10^{2}}$ -->
      <g transform="translate(47.4 55.639219)scale(0.1 -0.1)">
       <use transform="translate(0 0.765625)" xlink:href="#DejaVuSans-49"/>
       <use transform="translate(63.623047 0.765625)" xlink:href="#DejaVuSans-48"/>
       <use transform="translate(128.203125 39.046875)scale(0.7)" xlink:href="#DejaVuSans-50"/>
      </g>
     </g>
    </g>
    <g id="text_16">
     <!-- Integrated Variance -->
     <defs>
      <path d="M 45.40625 27.984375 
Q 45.40625 37.75 41.375 43.109375 
Q 37.359375 48.484375 30.078125 48.484375 
Q 22.859375 48.484375 18.828125 43.109375 
Q 14.796875 37.75 14.796875 27.984375 
Q 14.796875 18.265625 18.828125 12.890625 
Q 22.859375 7.515625 30.078125 7.515625 
Q 37.359375 7.515625 41.375 12.890625 
Q 45.40625 18.265625 45.40625 27.984375 
z
M 54.390625 6.78125 
Q 54.390625 -7.171875 48.1875 -13.984375 
Q 42 -20.796875 29.203125 -20.796875 
Q 24.46875 -20.796875 20.265625 -20.09375 
Q 16.0625 -19.390625 12.109375 -17.921875 
L 12.109375 -9.1875 
Q 16.0625 -11.328125 19.921875 -12.34375 
Q 23.78125 -13.375 27.78125 -13.375 
Q 36.625 -13.375 41.015625 -8.765625 
Q 45.40625 -4.15625 45.40625 5.171875 
L 45.40625 9.625 
Q 42.625 4.78125 38.28125 2.390625 
Q 33.9375 0 27.875 0 
Q 17.828125 0 11.671875 7.65625 
Q 5.515625 15.328125 5.515625 27.984375 
Q 5.515625 40.671875 11.671875 48.328125 
Q 17.828125 56 27.875 56 
Q 33.9375 56 38.28125 53.609375 
Q 42.625 51.21875 45.40625 46.390625 
L 45.40625 54.6875 
L 54.390625 54.6875 
z
" id="DejaVuSans-103"/>
      <path d="M 45.40625 46.390625 
L 45.40625 75.984375 
L 54.390625 75.984375 
L 54.390625 0 
L 45.40625 0 
L 45.40625 8.203125 
Q 42.578125 3.328125 38.25 0.953125 
Q 33.9375 -1.421875 27.875 -1.421875 
Q 17.96875 -1.421875 11.734375 6.484375 
Q 5.515625 14.40625 5.515625 27.296875 
Q 5.515625 40.1875 11.734375 48.09375 
Q 17.96875 56 27.875 56 
Q 33.9375 56 38.25 53.625 
Q 42.578125 51.265625 45.40625 46.390625 
z
M 14.796875 27.296875 
Q 14.796875 17.390625 18.875 11.75 
Q 22.953125 6.109375 30.078125 6.109375 
Q 37.203125 6.109375 41.296875 11.75 
Q 45.40625 17.390625 45.40625 27.296875 
Q 45.40625 37.203125 41.296875 42.84375 
Q 37.203125 48.484375 30.078125 48.484375 
Q 22.953125 48.484375 18.875 42.84375 
Q 14.796875 37.203125 14.796875 27.296875 
z
" id="DejaVuSans-100"/>
      <path id="DejaVuSans-32"/>
      <path d="M 28.609375 0 
L 0.78125 72.90625 
L 11.078125 72.90625 
L 34.1875 11.53125 
L 57.328125 72.90625 
L 67.578125 72.90625 
L 39.796875 0 
z
" id="DejaVuSans-86"/>
      <path d="M 48.78125 52.59375 
L 48.78125 44.1875 
Q 44.96875 46.296875 41.140625 47.34375 
Q 37.3125 48.390625 33.40625 48.390625 
Q 24.65625 48.390625 19.8125 42.84375 
Q 14.984375 37.3125 14.984375 27.296875 
Q 14.984375 17.28125 19.8125 11.734375 
Q 24.65625 6.203125 33.40625 6.203125 
Q 37.3125 6.203125 41.140625 7.25 
Q 44.96875 8.296875 48.78125 10.40625 
L 48.78125 2.09375 
Q 45.015625 0.34375 40.984375 -0.53125 
Q 36.96875 -1.421875 32.421875 -1.421875 
Q 20.0625 -1.421875 12.78125 6.34375 
Q 5.515625 14.109375 5.515625 27.296875 
Q 5.515625 40.671875 12.859375 48.328125 
Q 20.21875 56 33.015625 56 
Q 37.15625 56 41.109375 55.140625 
Q 45.0625 54.296875 48.78125 52.59375 
z
" id="DejaVuSans-99"/>
     </defs>
     <g transform="translate(31.020312 267.534219)rotate(-90)scale(0.1 -0.1)">
      <use xlink:href="#DejaVuSans-73"/>
      <use x="29.492188" xlink:href="#DejaVuSans-110"/>
      <use x="92.871094" xlink:href="#DejaVuSans-116"/>
      <use x="132.080078" xlink:href="#DejaVuSans-101"/>
      <use x="193.603516" xlink:href="#DejaVuSans-103"/>
      <use x="257.080078" xlink:href="#DejaVuSans-114"/>
      <use x="298.193359" xlink:href="#DejaVuSans-97"/>
      <use x="359.472656" xlink:href="#DejaVuSans-116"/>
      <use x="398.681641" xlink:href="#DejaVuSans-101"/>
      <use x="460.205078" xlink:href="#DejaVuSans-100"/>
      <use x="523.681641" xlink:href="#DejaVuSans-32"/>
      <use x="555.46875" xlink:href="#DejaVuSans-86"/>
      <use x="616.126953" xlink:href="#DejaVuSans-97"/>
      <use x="677.40625" xlink:href="#DejaVuSans-114"/>
      <use x="718.519531" xlink:href="#DejaVuSans-105"/>
      <use x="746.302734" xlink:href="#DejaVuSans-97"/>
      <use x="807.582031" xlink:href="#DejaVuSans-110"/>
      <use x="870.960938" xlink:href="#DejaVuSans-99"/>
      <use x="925.941406" xlink:href="#DejaVuSans-101"/>
     </g>
    </g>
   </g>
   <g id="line2d_29">
    <path clip-path="url(#p0a8eeec557)" d="M 482.510865 433 
L 482.672984 -1 
M 482.703016 -1 
L 482.865135 433 
" style="fill:none;stroke:#1f77b4;stroke-linecap:square;stroke-width:1.5;"/>
   </g>
   <g id="line2d_30">
    <path clip-path="url(#p0a8eeec557)" d="M 72 92.4631 
L 80.928 84.117739 
L 89.856 94.959137 
L 98.784 101.215871 
L 107.712 98.983592 
L 116.64 100.851111 
L 125.568 101.592142 
L 134.496 105.502016 
L 143.424 96.254857 
L 152.352 85.949618 
L 161.28 75.652524 
L 170.208 75.652524 
L 179.136 75.652524 
L 188.064 75.652689 
L 196.992 75.652689 
L 205.92 75.652689 
L 214.848 75.652689 
L 223.776 75.652689 
L 232.704 75.652689 
L 241.632 76.004833 
L 250.56 76.265905 
L 259.488 76.303671 
L 268.416 77.396148 
L 277.344 78.496183 
L 286.272 80.537394 
L 295.2 79.656015 
L 304.128 79.749042 
L 313.056 81.114797 
L 321.984 80.995466 
L 330.912 82.382713 
L 339.84 81.871404 
L 348.768 83.660314 
L 357.696 83.372805 
L 366.624 85.651428 
L 375.552 85.641666 
L 384.48 85.887597 
L 393.408 85.173728 
L 402.336 88.235308 
L 411.264 87.533405 
L 420.192 87.485239 
L 429.12 87.946805 
L 438.048 90.218981 
L 446.976 90.417002 
L 455.904 91.35797 
L 464.832 91.532134 
L 473.76 91.233771 
L 482.688 92.453379 
L 491.616 95.483882 
L 500.544 94.142656 
L 509.472 91.479145 
L 518.4 91.10301 
" style="fill:none;stroke:#ff7f0e;stroke-linecap:square;stroke-width:1.5;"/>
   </g>
   <g id="line2d_31">
    <path clip-path="url(#p0a8eeec557)" d="M 72 83.757319 
L 80.928 83.688052 
L 89.856 86.509581 
L 98.784 88.109063 
L 107.712 88.668672 
L 116.64 89.636618 
L 125.568 90.292516 
L 134.496 91.045704 
L 143.424 91.725626 
L 152.352 92.814232 
L 161.28 93.362536 
L 170.208 93.768766 
L 179.136 94.161211 
L 188.064 94.560055 
L 196.992 94.911826 
L 205.92 95.284954 
L 214.848 95.698209 
L 223.776 96.136534 
L 232.704 96.536255 
L 241.632 97.056584 
L 250.56 97.3893 
L 259.488 97.860001 
L 268.416 98.151474 
L 277.344 98.399702 
L 286.272 99.317318 
L 295.2 100.032618 
L 304.128 100.594481 
L 313.056 100.995427 
L 321.984 101.734181 
L 330.912 102.553265 
L 339.84 102.979567 
L 348.768 103.46453 
L 357.696 103.932893 
L 366.624 104.263379 
L 375.552 104.601742 
L 384.48 105.009002 
L 393.408 105.313626 
L 402.336 105.647649 
L 411.264 106.040074 
L 420.192 106.403134 
L 429.12 106.731774 
L 438.048 107.011454 
L 446.976 107.357473 
L 455.904 107.605213 
L 464.832 107.804763 
L 473.76 108.010027 
L 482.688 108.219691 
L 491.616 108.445781 
L 500.544 108.798334 
L 509.472 109.032243 
L 518.4 109.21593 
" style="fill:none;stroke:#2ca02c;stroke-linecap:square;stroke-width:1.5;"/>
   </g>
   <g id="line2d_32">
    <path clip-path="url(#p0a8eeec557)" d="M 72 85.875797 
L 80.928 83.926233 
L 89.856 89.952922 
L 98.784 94.021754 
L 107.712 95.858088 
L 116.64 98.487488 
L 125.568 100.956656 
L 134.496 102.276275 
L 143.424 102.936748 
L 152.352 103.997995 
L 161.28 104.698092 
L 170.208 106.389957 
L 179.136 107.265683 
L 188.064 108.190802 
L 196.992 108.872016 
L 205.92 109.641815 
L 214.848 110.262648 
L 223.776 110.85318 
L 232.704 111.362905 
L 241.632 111.859716 
L 250.56 112.314793 
L 259.488 112.75733 
L 268.416 113.454051 
L 277.344 113.898557 
L 286.272 114.255045 
L 295.2 114.627787 
L 304.128 115.014452 
L 313.056 115.377497 
L 321.984 115.731362 
L 330.912 116.015261 
L 339.84 116.332151 
L 348.768 116.762775 
L 357.696 117.077133 
L 366.624 117.35239 
L 375.552 117.705582 
L 384.48 118.202334 
L 393.408 120.406997 
L 402.336 121.612829 
L 411.264 122.459483 
L 420.192 123.779355 
L 429.12 124.9444 
L 438.048 125.554818 
L 446.976 126.031268 
L 455.904 126.755819 
L 464.832 127.103317 
L 473.76 127.531099 
L 482.688 127.829127 
L 491.616 128.301734 
L 500.544 128.553001 
L 509.472 128.828666 
L 518.4 129.306963 
" style="fill:none;stroke:#d62728;stroke-linecap:square;stroke-width:1.5;"/>
   </g>
   <g id="line2d_33">
    <path clip-path="url(#p0a8eeec557)" d="M 72 88.308318 
L 80.928 83.476184 
L 89.856 92.358656 
L 98.784 96.107539 
L 107.712 98.084627 
L 116.64 99.305757 
L 125.568 101.981858 
L 134.496 104.927274 
L 143.424 105.803585 
L 152.352 105.742198 
L 161.28 106.794197 
L 170.208 107.802719 
L 179.136 108.876375 
L 188.064 110.138609 
L 196.992 111.422701 
L 205.92 112.11855 
L 214.848 112.800457 
L 223.776 113.43139 
L 232.704 114.084427 
L 241.632 114.570961 
L 250.56 115.067452 
L 259.488 115.489176 
L 268.416 115.894125 
L 277.344 116.272283 
L 286.272 116.668229 
L 295.2 117.007752 
L 304.128 117.706078 
L 313.056 118.162504 
L 321.984 118.862756 
L 330.912 120.009756 
L 339.84 121.266295 
L 348.768 122.112932 
L 357.696 122.546028 
L 366.624 124.295425 
L 375.552 125.229105 
L 384.48 127.688 
L 393.408 128.853365 
L 402.336 130.59521 
L 411.264 131.867949 
L 420.192 132.384991 
L 429.12 133.287592 
L 438.048 135.207137 
L 446.976 136.180894 
L 455.904 137.120586 
L 464.832 138.395665 
L 473.76 138.901852 
L 482.688 139.581524 
L 491.616 141.005154 
L 500.544 142.078803 
L 509.472 142.331023 
L 518.4 143.4035 
" style="fill:none;stroke:#9467bd;stroke-linecap:square;stroke-width:1.5;"/>
   </g>
   <g id="line2d_34">
    <path clip-path="url(#p0a8eeec557)" d="M 72 87.302518 
L 80.928 82.97023 
L 89.856 89.803707 
L 98.784 93.294786 
L 107.712 94.948214 
L 116.64 96.724071 
L 125.568 98.829163 
L 134.496 101.215577 
L 143.424 102.632741 
L 152.352 102.78065 
L 161.28 103.845718 
L 170.208 104.900667 
L 179.136 106.446271 
L 188.064 107.464007 
L 196.992 109.139461 
L 205.92 110.112023 
L 214.848 111.981875 
L 223.776 113.442295 
L 232.704 114.037169 
L 241.632 114.405369 
L 250.56 114.655747 
L 259.488 115.113014 
L 268.416 116.451837 
L 277.344 118.506247 
L 286.272 118.799461 
L 295.2 119.751007 
L 304.128 120.357602 
L 313.056 120.917333 
L 321.984 122.120175 
L 330.912 123.403012 
L 339.84 124.201485 
L 348.768 127.573494 
L 357.696 131.076302 
L 366.624 134.126218 
L 375.552 134.836278 
L 384.48 136.252056 
L 393.408 137.976786 
L 402.336 140.573813 
L 411.264 141.32241 
L 420.192 143.630141 
L 429.12 145.571742 
L 438.048 146.610023 
L 446.976 146.952716 
L 455.904 147.605796 
L 464.832 149.58432 
L 473.76 153.688416 
L 482.688 155.518903 
L 491.616 157.241041 
L 500.544 158.505882 
L 509.472 159.137858 
L 518.4 160.939897 
" style="fill:none;stroke:#8c564b;stroke-linecap:square;stroke-width:1.5;"/>
   </g>
   <g id="line2d_35">
    <path clip-path="url(#p0a8eeec557)" d="M 80.834302 433 
L 80.928 184.535325 
L 89.856 182.56506 
L 98.784 181.803627 
L 107.712 179.640109 
L 116.64 183.784611 
L 125.568 178.131935 
L 134.496 175.953319 
L 143.424 179.316282 
L 152.352 176.188878 
L 161.28 177.692231 
L 170.208 172.297531 
L 179.136 172.774682 
L 188.064 174.145214 
L 196.992 175.856984 
L 205.92 173.904568 
L 214.848 177.1073 
L 223.776 170.258468 
L 232.704 181.121055 
L 241.632 173.767923 
L 250.56 181.287878 
L 259.488 175.728809 
L 259.584983 433 
M 304.034422 433 
L 304.128 184.856824 
L 313.056 171.419247 
L 313.15459 433 
M 446.880276 433 
L 446.976 179.105723 
L 447.071724 433 
M 509.37854 433 
L 509.472 185.174327 
L 509.56546 433 
" style="fill:none;stroke:#e377c2;stroke-linecap:square;stroke-width:1.5;"/>
   </g>
   <g id="patch_3">
    <path d="M 72 384.48 
L 72 51.84 
" style="fill:none;stroke:#000000;stroke-linecap:square;stroke-linejoin:miter;stroke-width:0.8;"/>
   </g>
   <g id="patch_4">
    <path d="M 518.4 384.48 
L 518.4 51.84 
" style="fill:none;stroke:#000000;stroke-linecap:square;stroke-linejoin:miter;stroke-width:0.8;"/>
   </g>
   <g id="patch_5">
    <path d="M 72 384.48 
L 518.4 384.48 
" style="fill:none;stroke:#000000;stroke-linecap:square;stroke-linejoin:miter;stroke-width:0.8;"/>
   </g>
   <g id="patch_6">
    <path d="M 72 51.84 
L 518.4 51.84 
" style="fill:none;stroke:#000000;stroke-linecap:square;stroke-linejoin:miter;stroke-width:0.8;"/>
   </g>
   <g id="legend_1">
    <g id="patch_7">
     <path d="M 79 379.48 
L 165.804688 379.48 
Q 167.804688 379.48 167.804688 377.48 
L 167.804688 275.733125 
Q 167.804688 273.733125 165.804688 273.733125 
L 79 273.733125 
Q 77 273.733125 77 275.733125 
L 77 377.48 
Q 77 379.48 79 379.48 
z
" style="fill:#ffffff;opacity:0.8;stroke:#cccccc;stroke-linejoin:miter;"/>
    </g>
    <g id="line2d_36">
     <path d="M 81 281.831563 
L 101 281.831563 
" style="fill:none;stroke:#1f77b4;stroke-linecap:square;stroke-width:1.5;"/>
    </g>
    <g id="line2d_37"/>
    <g id="text_17">
     <!-- Constant -->
     <defs>
      <path d="M 64.40625 67.28125 
L 64.40625 56.890625 
Q 59.421875 61.53125 53.78125 63.8125 
Q 48.140625 66.109375 41.796875 66.109375 
Q 29.296875 66.109375 22.65625 58.46875 
Q 16.015625 50.828125 16.015625 36.375 
Q 16.015625 21.96875 22.65625 14.328125 
Q 29.296875 6.6875 41.796875 6.6875 
Q 48.140625 6.6875 53.78125 8.984375 
Q 59.421875 11.28125 64.40625 15.921875 
L 64.40625 5.609375 
Q 59.234375 2.09375 53.4375 0.328125 
Q 47.65625 -1.421875 41.21875 -1.421875 
Q 24.65625 -1.421875 15.125 8.703125 
Q 5.609375 18.84375 5.609375 36.375 
Q 5.609375 53.953125 15.125 64.078125 
Q 24.65625 74.21875 41.21875 74.21875 
Q 47.75 74.21875 53.53125 72.484375 
Q 59.328125 70.75 64.40625 67.28125 
z
" id="DejaVuSans-67"/>
      <path d="M 44.28125 53.078125 
L 44.28125 44.578125 
Q 40.484375 46.53125 36.375 47.5 
Q 32.28125 48.484375 27.875 48.484375 
Q 21.1875 48.484375 17.84375 46.4375 
Q 14.5 44.390625 14.5 40.28125 
Q 14.5 37.15625 16.890625 35.375 
Q 19.28125 33.59375 26.515625 31.984375 
L 29.59375 31.296875 
Q 39.15625 29.25 43.1875 25.515625 
Q 47.21875 21.78125 47.21875 15.09375 
Q 47.21875 7.46875 41.1875 3.015625 
Q 35.15625 -1.421875 24.609375 -1.421875 
Q 20.21875 -1.421875 15.453125 -0.5625 
Q 10.6875 0.296875 5.421875 2 
L 5.421875 11.28125 
Q 10.40625 8.6875 15.234375 7.390625 
Q 20.0625 6.109375 24.8125 6.109375 
Q 31.15625 6.109375 34.5625 8.28125 
Q 37.984375 10.453125 37.984375 14.40625 
Q 37.984375 18.0625 35.515625 20.015625 
Q 33.0625 21.96875 24.703125 23.78125 
L 21.578125 24.515625 
Q 13.234375 26.265625 9.515625 29.90625 
Q 5.8125 33.546875 5.8125 39.890625 
Q 5.8125 47.609375 11.28125 51.796875 
Q 16.75 56 26.8125 56 
Q 31.78125 56 36.171875 55.265625 
Q 40.578125 54.546875 44.28125 53.078125 
z
" id="DejaVuSans-115"/>
     </defs>
     <g transform="translate(109 285.331563)scale(0.1 -0.1)">
      <use xlink:href="#DejaVuSans-67"/>
      <use x="69.824219" xlink:href="#DejaVuSans-111"/>
      <use x="131.005859" xlink:href="#DejaVuSans-110"/>
      <use x="194.384766" xlink:href="#DejaVuSans-115"/>
      <use x="246.484375" xlink:href="#DejaVuSans-116"/>
      <use x="285.693359" xlink:href="#DejaVuSans-97"/>
      <use x="346.972656" xlink:href="#DejaVuSans-110"/>
      <use x="410.351562" xlink:href="#DejaVuSans-116"/>
     </g>
    </g>
    <g id="line2d_38">
     <path d="M 81 296.509688 
L 101 296.509688 
" style="fill:none;stroke:#ff7f0e;stroke-linecap:square;stroke-width:1.5;"/>
    </g>
    <g id="line2d_39"/>
    <g id="text_18">
     <!-- RBF -->
     <defs>
      <path d="M 44.390625 34.1875 
Q 47.5625 33.109375 50.5625 29.59375 
Q 53.5625 26.078125 56.59375 19.921875 
L 66.609375 0 
L 56 0 
L 46.6875 18.703125 
Q 43.0625 26.03125 39.671875 28.421875 
Q 36.28125 30.8125 30.421875 30.8125 
L 19.671875 30.8125 
L 19.671875 0 
L 9.8125 0 
L 9.8125 72.90625 
L 32.078125 72.90625 
Q 44.578125 72.90625 50.734375 67.671875 
Q 56.890625 62.453125 56.890625 51.90625 
Q 56.890625 45.015625 53.6875 40.46875 
Q 50.484375 35.9375 44.390625 34.1875 
z
M 19.671875 64.796875 
L 19.671875 38.921875 
L 32.078125 38.921875 
Q 39.203125 38.921875 42.84375 42.21875 
Q 46.484375 45.515625 46.484375 51.90625 
Q 46.484375 58.296875 42.84375 61.546875 
Q 39.203125 64.796875 32.078125 64.796875 
z
" id="DejaVuSans-82"/>
      <path d="M 19.671875 34.8125 
L 19.671875 8.109375 
L 35.5 8.109375 
Q 43.453125 8.109375 47.28125 11.40625 
Q 51.125 14.703125 51.125 21.484375 
Q 51.125 28.328125 47.28125 31.5625 
Q 43.453125 34.8125 35.5 34.8125 
z
M 19.671875 64.796875 
L 19.671875 42.828125 
L 34.28125 42.828125 
Q 41.5 42.828125 45.03125 45.53125 
Q 48.578125 48.25 48.578125 53.8125 
Q 48.578125 59.328125 45.03125 62.0625 
Q 41.5 64.796875 34.28125 64.796875 
z
M 9.8125 72.90625 
L 35.015625 72.90625 
Q 46.296875 72.90625 52.390625 68.21875 
Q 58.5 63.53125 58.5 54.890625 
Q 58.5 48.1875 55.375 44.234375 
Q 52.25 40.28125 46.1875 39.3125 
Q 53.46875 37.75 57.5 32.78125 
Q 61.53125 27.828125 61.53125 20.40625 
Q 61.53125 10.640625 54.890625 5.3125 
Q 48.25 0 35.984375 0 
L 9.8125 0 
z
" id="DejaVuSans-66"/>
      <path d="M 9.8125 72.90625 
L 51.703125 72.90625 
L 51.703125 64.59375 
L 19.671875 64.59375 
L 19.671875 43.109375 
L 48.578125 43.109375 
L 48.578125 34.8125 
L 19.671875 34.8125 
L 19.671875 0 
L 9.8125 0 
z
" id="DejaVuSans-70"/>
     </defs>
     <g transform="translate(109 300.009688)scale(0.1 -0.1)">
      <use xlink:href="#DejaVuSans-82"/>
      <use x="69.482422" xlink:href="#DejaVuSans-66"/>
      <use x="138.085938" xlink:href="#DejaVuSans-70"/>
     </g>
    </g>
    <g id="line2d_40">
     <path d="M 81 311.187813 
L 101 311.187813 
" style="fill:none;stroke:#2ca02c;stroke-linecap:square;stroke-width:1.5;"/>
    </g>
    <g id="line2d_41"/>
    <g id="text_19">
     <!-- Matrn-1/2 -->
     <defs>
      <path d="M 9.8125 72.90625 
L 24.515625 72.90625 
L 43.109375 23.296875 
L 61.8125 72.90625 
L 76.515625 72.90625 
L 76.515625 0 
L 66.890625 0 
L 66.890625 64.015625 
L 48.09375 14.015625 
L 38.1875 14.015625 
L 19.390625 64.015625 
L 19.390625 0 
L 9.8125 0 
z
" id="DejaVuSans-77"/>
      <path d="M 56.203125 29.59375 
L 56.203125 25.203125 
L 14.890625 25.203125 
Q 15.484375 15.921875 20.484375 11.0625 
Q 25.484375 6.203125 34.421875 6.203125 
Q 39.59375 6.203125 44.453125 7.46875 
Q 49.3125 8.734375 54.109375 11.28125 
L 54.109375 2.78125 
Q 49.265625 0.734375 44.1875 -0.34375 
Q 39.109375 -1.421875 33.890625 -1.421875 
Q 20.796875 -1.421875 13.15625 6.1875 
Q 5.515625 13.8125 5.515625 26.8125 
Q 5.515625 40.234375 12.765625 48.109375 
Q 20.015625 56 32.328125 56 
Q 43.359375 56 49.78125 48.890625 
Q 56.203125 41.796875 56.203125 29.59375 
z
M 47.21875 32.234375 
Q 47.125 39.59375 43.09375 43.984375 
Q 39.0625 48.390625 32.421875 48.390625 
Q 24.90625 48.390625 20.390625 44.140625 
Q 15.875 39.890625 15.1875 32.171875 
z
M 38.53125 79.984375 
L 48.25 79.984375 
L 32.34375 61.625 
L 24.859375 61.625 
z
" id="DejaVuSans-233"/>
      <path d="M 4.890625 31.390625 
L 31.203125 31.390625 
L 31.203125 23.390625 
L 4.890625 23.390625 
z
" id="DejaVuSans-45"/>
      <path d="M 25.390625 72.90625 
L 33.6875 72.90625 
L 8.296875 -9.28125 
L 0 -9.28125 
z
" id="DejaVuSans-47"/>
     </defs>
     <g transform="translate(109 314.687813)scale(0.1 -0.1)">
      <use xlink:href="#DejaVuSans-77"/>
      <use x="86.279297" xlink:href="#DejaVuSans-97"/>
      <use x="147.558594" xlink:href="#DejaVuSans-116"/>
      <use x="186.767578" xlink:href="#DejaVuSans-233"/>
      <use x="248.291016" xlink:href="#DejaVuSans-114"/>
      <use x="287.654297" xlink:href="#DejaVuSans-110"/>
      <use x="351.033203" xlink:href="#DejaVuSans-45"/>
      <use x="387.117188" xlink:href="#DejaVuSans-49"/>
      <use x="450.740234" xlink:href="#DejaVuSans-47"/>
      <use x="484.431641" xlink:href="#DejaVuSans-50"/>
     </g>
    </g>
    <g id="line2d_42">
     <path d="M 81 325.865938 
L 101 325.865938 
" style="fill:none;stroke:#d62728;stroke-linecap:square;stroke-width:1.5;"/>
    </g>
    <g id="line2d_43"/>
    <g id="text_20">
     <!-- Matrn-3/2 -->
     <g transform="translate(109 329.365938)scale(0.1 -0.1)">
      <use xlink:href="#DejaVuSans-77"/>
      <use x="86.279297" xlink:href="#DejaVuSans-97"/>
      <use x="147.558594" xlink:href="#DejaVuSans-116"/>
      <use x="186.767578" xlink:href="#DejaVuSans-233"/>
      <use x="248.291016" xlink:href="#DejaVuSans-114"/>
      <use x="287.654297" xlink:href="#DejaVuSans-110"/>
      <use x="351.033203" xlink:href="#DejaVuSans-45"/>
      <use x="387.117188" xlink:href="#DejaVuSans-51"/>
      <use x="450.740234" xlink:href="#DejaVuSans-47"/>
      <use x="484.431641" xlink:href="#DejaVuSans-50"/>
     </g>
    </g>
    <g id="line2d_44">
     <path d="M 81 340.544062 
L 101 340.544062 
" style="fill:none;stroke:#9467bd;stroke-linecap:square;stroke-width:1.5;"/>
    </g>
    <g id="line2d_45"/>
    <g id="text_21">
     <!-- Matrn-5/2 -->
     <g transform="translate(109 344.044062)scale(0.1 -0.1)">
      <use xlink:href="#DejaVuSans-77"/>
      <use x="86.279297" xlink:href="#DejaVuSans-97"/>
      <use x="147.558594" xlink:href="#DejaVuSans-116"/>
      <use x="186.767578" xlink:href="#DejaVuSans-233"/>
      <use x="248.291016" xlink:href="#DejaVuSans-114"/>
      <use x="287.654297" xlink:href="#DejaVuSans-110"/>
      <use x="351.033203" xlink:href="#DejaVuSans-45"/>
      <use x="387.117188" xlink:href="#DejaVuSans-53"/>
      <use x="450.740234" xlink:href="#DejaVuSans-47"/>
      <use x="484.431641" xlink:href="#DejaVuSans-50"/>
     </g>
    </g>
    <g id="line2d_46">
     <path d="M 81 355.222188 
L 101 355.222188 
" style="fill:none;stroke:#8c564b;stroke-linecap:square;stroke-width:1.5;"/>
    </g>
    <g id="line2d_47"/>
    <g id="text_22">
     <!-- RQ -->
     <defs>
      <path d="M 39.40625 66.21875 
Q 28.65625 66.21875 22.328125 58.203125 
Q 16.015625 50.203125 16.015625 36.375 
Q 16.015625 22.609375 22.328125 14.59375 
Q 28.65625 6.59375 39.40625 6.59375 
Q 50.140625 6.59375 56.421875 14.59375 
Q 62.703125 22.609375 62.703125 36.375 
Q 62.703125 50.203125 56.421875 58.203125 
Q 50.140625 66.21875 39.40625 66.21875 
z
M 53.21875 1.3125 
L 66.21875 -12.890625 
L 54.296875 -12.890625 
L 43.5 -1.21875 
Q 41.890625 -1.3125 41.03125 -1.359375 
Q 40.1875 -1.421875 39.40625 -1.421875 
Q 24.03125 -1.421875 14.8125 8.859375 
Q 5.609375 19.140625 5.609375 36.375 
Q 5.609375 53.65625 14.8125 63.9375 
Q 24.03125 74.21875 39.40625 74.21875 
Q 54.734375 74.21875 63.90625 63.9375 
Q 73.09375 53.65625 73.09375 36.375 
Q 73.09375 23.6875 67.984375 14.640625 
Q 62.890625 5.609375 53.21875 1.3125 
z
" id="DejaVuSans-81"/>
     </defs>
     <g transform="translate(109 358.722188)scale(0.1 -0.1)">
      <use xlink:href="#DejaVuSans-82"/>
      <use x="69.482422" xlink:href="#DejaVuSans-81"/>
     </g>
    </g>
    <g id="line2d_48">
     <path d="M 81 369.900313 
L 101 369.900313 
" style="fill:none;stroke:#e377c2;stroke-linecap:square;stroke-width:1.5;"/>
    </g>
    <g id="line2d_49"/>
    <g id="text_23">
     <!-- Dot Prod. -->
     <defs>
      <path d="M 19.671875 64.796875 
L 19.671875 8.109375 
L 31.59375 8.109375 
Q 46.6875 8.109375 53.6875 14.9375 
Q 60.6875 21.78125 60.6875 36.53125 
Q 60.6875 51.171875 53.6875 57.984375 
Q 46.6875 64.796875 31.59375 64.796875 
z
M 9.8125 72.90625 
L 30.078125 72.90625 
Q 51.265625 72.90625 61.171875 64.09375 
Q 71.09375 55.28125 71.09375 36.53125 
Q 71.09375 17.671875 61.125 8.828125 
Q 51.171875 0 30.078125 0 
L 9.8125 0 
z
" id="DejaVuSans-68"/>
      <path d="M 19.671875 64.796875 
L 19.671875 37.40625 
L 32.078125 37.40625 
Q 38.96875 37.40625 42.71875 40.96875 
Q 46.484375 44.53125 46.484375 51.125 
Q 46.484375 57.671875 42.71875 61.234375 
Q 38.96875 64.796875 32.078125 64.796875 
z
M 9.8125 72.90625 
L 32.078125 72.90625 
Q 44.34375 72.90625 50.609375 67.359375 
Q 56.890625 61.8125 56.890625 51.125 
Q 56.890625 40.328125 50.609375 34.8125 
Q 44.34375 29.296875 32.078125 29.296875 
L 19.671875 29.296875 
L 19.671875 0 
L 9.8125 0 
z
" id="DejaVuSans-80"/>
      <path d="M 10.6875 12.40625 
L 21 12.40625 
L 21 0 
L 10.6875 0 
z
" id="DejaVuSans-46"/>
     </defs>
     <g transform="translate(109 373.400313)scale(0.1 -0.1)">
      <use xlink:href="#DejaVuSans-68"/>
      <use x="77.001953" xlink:href="#DejaVuSans-111"/>
      <use x="138.183594" xlink:href="#DejaVuSans-116"/>
      <use x="177.392578" xlink:href="#DejaVuSans-32"/>
      <use x="209.179688" xlink:href="#DejaVuSans-80"/>
      <use x="267.732422" xlink:href="#DejaVuSans-114"/>
      <use x="306.595703" xlink:href="#DejaVuSans-111"/>
      <use x="367.777344" xlink:href="#DejaVuSans-100"/>
      <use x="431.253906" xlink:href="#DejaVuSans-46"/>
     </g>
    </g>
   </g>
  </g>
 </g>
 <defs>
  <clipPath id="p0a8eeec557">
   <rect height="332.64" width="446.4" x="72" y="51.84"/>
  </clipPath>
 </defs>
</svg>
