<?xml version="1.0" encoding="utf-8" standalone="no"?>
<!DOCTYPE svg PUBLIC "-//W3C//DTD SVG 1.1//EN"
  "http://www.w3.org/Graphics/SVG/1.1/DTD/svg11.dtd">
<!-- Created with matplotlib (https://matplotlib.org/) -->
<svg height="432pt" version="1.1" viewBox="0 0 576 432" width="576pt" xmlns="http://www.w3.org/2000/svg" xmlns:xlink="http://www.w3.org/1999/xlink">
 <defs>
  <style type="text/css">
*{stroke-linecap:butt;stroke-linejoin:round;}
  </style>
 </defs>
 <g id="figure_1">
  <g id="patch_1">
   <path d="M 0 432 
L 576 432 
L 576 0 
L 0 0 
z
" style="fill:#ffffff;"/>
  </g>
  <g id="axes_1">
   <g id="patch_2">
    <path d="M 72 384.48 
L 518.4 384.48 
L 518.4 51.84 
L 72 51.84 
z
" style="fill:#ffffff;"/>
   </g>
   <g id="PolyCollection_1"/>
   <g id="PolyCollection_2">
    <path clip-path="url(#pe20c18acf1)" d="M 72 178.665265 
L 72 81.855967 
L 80.928 84.23039 
L 89.856 76.507882 
L 98.784 77.039165 
L 107.712 77.552064 
L 116.64 74.016872 
L 125.568 76.288961 
L 134.496 76.663455 
L 143.424 77.847845 
L 152.352 80.071547 
L 161.28 81.647192 
L 170.208 82.084979 
L 179.136 83.878669 
L 188.064 85.721364 
L 196.992 88.629496 
L 205.92 88.464614 
L 214.848 91.673095 
L 223.776 92.044518 
L 232.704 94.818691 
L 241.632 97.081058 
L 250.56 100.146743 
L 259.488 101.99823 
L 268.416 105.557799 
L 277.344 108.943041 
L 286.272 112.63225 
L 295.2 115.46563 
L 304.128 119.062341 
L 313.056 120.986403 
L 321.984 125.489046 
L 330.912 127.737632 
L 339.84 129.993878 
L 348.768 132.364347 
L 357.696 136.108747 
L 366.624 138.078756 
L 375.552 140.801812 
L 384.48 144.587358 
L 393.408 150.148886 
L 402.336 153.177089 
L 411.264 155.290915 
L 420.192 157.090787 
L 429.12 160.591936 
L 438.048 161.527849 
L 446.976 163.778112 
L 455.904 165.377848 
L 464.832 166.261604 
L 473.76 171.020657 
L 482.688 171.806648 
L 491.616 175.125463 
L 500.544 176.685601 
L 509.472 179.097345 
L 518.4 183.266802 
L 518.4 223.290383 
L 518.4 223.290383 
L 509.472 218.960296 
L 500.544 218.515372 
L 491.616 218.793139 
L 482.688 219.711606 
L 473.76 216.42485 
L 464.832 220.610436 
L 455.904 220.334454 
L 446.976 220.638984 
L 438.048 218.845419 
L 429.12 216.466298 
L 420.192 212.488913 
L 411.264 212.188403 
L 402.336 210.307367 
L 393.408 206.76926 
L 384.48 200.322467 
L 375.552 196.574612 
L 366.624 191.048672 
L 357.696 183.505775 
L 348.768 177.087683 
L 339.84 175.335857 
L 330.912 168.378058 
L 321.984 162.820794 
L 313.056 157.948284 
L 304.128 151.732161 
L 295.2 145.161148 
L 286.272 140.019279 
L 277.344 135.227423 
L 268.416 128.920023 
L 259.488 123.049751 
L 250.56 118.046033 
L 241.632 114.050573 
L 232.704 111.342443 
L 223.776 108.7666 
L 214.848 103.808929 
L 205.92 103.813824 
L 196.992 100.127151 
L 188.064 101.407072 
L 179.136 100.741698 
L 170.208 101.680782 
L 161.28 98.416477 
L 152.352 99.596829 
L 143.424 106.517268 
L 134.496 106.992921 
L 125.568 108.397406 
L 116.64 119.767751 
L 107.712 117.00492 
L 98.784 119.625784 
L 89.856 144.200268 
L 80.928 166.957775 
L 72 178.665265 
z
" style="fill:#ff7f0e;fill-opacity:0.3;"/>
   </g>
   <g id="PolyCollection_3">
    <path clip-path="url(#pe20c18acf1)" d="M 72 165.402824 
L 72 114.628738 
L 80.928 102.28036 
L 89.856 102.098015 
L 98.784 99.30337 
L 107.712 100.366582 
L 116.64 101.737185 
L 125.568 102.675644 
L 134.496 102.175488 
L 143.424 102.461873 
L 152.352 102.646151 
L 161.28 101.303254 
L 170.208 102.096695 
L 179.136 101.785769 
L 188.064 102.257361 
L 196.992 103.245543 
L 205.92 103.91673 
L 214.848 104.264084 
L 223.776 104.705914 
L 232.704 105.133565 
L 241.632 105.746565 
L 250.56 106.447835 
L 259.488 106.510476 
L 268.416 107.062139 
L 277.344 107.647029 
L 286.272 108.008535 
L 295.2 108.695531 
L 304.128 109.134809 
L 313.056 109.964218 
L 321.984 110.538938 
L 330.912 110.908456 
L 339.84 111.438504 
L 348.768 112.119601 
L 357.696 112.504762 
L 366.624 112.879283 
L 375.552 113.369646 
L 384.48 113.710172 
L 393.408 114.205596 
L 402.336 114.605061 
L 411.264 114.87199 
L 420.192 115.170931 
L 429.12 115.592376 
L 438.048 115.742716 
L 446.976 116.060643 
L 455.904 116.461666 
L 464.832 116.784888 
L 473.76 117.153658 
L 482.688 117.596112 
L 491.616 118.365443 
L 500.544 118.891459 
L 509.472 119.223283 
L 518.4 119.477547 
L 518.4 127.697 
L 518.4 127.697 
L 509.472 127.425664 
L 500.544 127.02848 
L 491.616 127.430106 
L 482.688 127.815587 
L 473.76 127.749911 
L 464.832 127.418397 
L 455.904 127.116825 
L 446.976 126.820381 
L 438.048 127.281334 
L 429.12 127.068802 
L 420.192 126.648322 
L 411.264 126.653167 
L 402.336 126.45597 
L 393.408 126.066936 
L 384.48 125.73585 
L 375.552 125.977367 
L 366.624 125.585215 
L 357.696 125.207803 
L 348.768 124.733721 
L 339.84 124.221079 
L 330.912 123.533719 
L 321.984 123.96293 
L 313.056 123.280463 
L 304.128 123.518686 
L 295.2 123.381004 
L 286.272 123.766396 
L 277.344 123.345376 
L 268.416 123.627288 
L 259.488 124.226805 
L 250.56 124.431356 
L 241.632 124.882189 
L 232.704 124.432093 
L 223.776 124.466723 
L 214.848 124.927496 
L 205.92 124.412422 
L 196.992 124.173511 
L 188.064 124.223793 
L 179.136 126.320719 
L 170.208 126.910305 
L 161.28 127.925817 
L 152.352 129.596457 
L 143.424 131.131948 
L 134.496 133.329431 
L 125.568 136.344128 
L 116.64 137.413191 
L 107.712 138.427112 
L 98.784 141.687984 
L 89.856 147.481001 
L 80.928 152.640405 
L 72 165.402824 
z
" style="fill:#2ca02c;fill-opacity:0.3;"/>
   </g>
   <g id="PolyCollection_4">
    <path clip-path="url(#pe20c18acf1)" d="M 72 162.971923 
L 72 102.180894 
L 80.928 98.040019 
L 89.856 93.849687 
L 98.784 93.657393 
L 107.712 94.504874 
L 116.64 92.143758 
L 125.568 92.672285 
L 134.496 92.794883 
L 143.424 95.357264 
L 152.352 95.848582 
L 161.28 96.243034 
L 170.208 96.937864 
L 179.136 97.926612 
L 188.064 98.069051 
L 196.992 99.444816 
L 205.92 100.951587 
L 214.848 101.863652 
L 223.776 103.321185 
L 232.704 104.779581 
L 241.632 105.803714 
L 250.56 107.039484 
L 259.488 108.552284 
L 268.416 108.969627 
L 277.344 111.159089 
L 286.272 112.284768 
L 295.2 112.938768 
L 304.128 114.788127 
L 313.056 115.552833 
L 321.984 116.748217 
L 330.912 118.346063 
L 339.84 119.725933 
L 348.768 120.301156 
L 357.696 121.21656 
L 366.624 122.407243 
L 375.552 123.51477 
L 384.48 123.839022 
L 393.408 124.62658 
L 402.336 125.159282 
L 411.264 125.846316 
L 420.192 126.423307 
L 429.12 126.97172 
L 438.048 127.44381 
L 446.976 127.992164 
L 455.904 128.61806 
L 464.832 129.236489 
L 473.76 130.109971 
L 482.688 131.284814 
L 491.616 132.017144 
L 500.544 132.829418 
L 509.472 133.576518 
L 518.4 134.124414 
L 518.4 142.128676 
L 518.4 142.128676 
L 509.472 141.116778 
L 500.544 140.495286 
L 491.616 139.888425 
L 482.688 139.159102 
L 473.76 138.877707 
L 464.832 138.216965 
L 455.904 137.579654 
L 446.976 137.190471 
L 438.048 136.516881 
L 429.12 135.703311 
L 420.192 134.627987 
L 411.264 133.895151 
L 402.336 133.114978 
L 393.408 132.493661 
L 384.48 131.689867 
L 375.552 130.962391 
L 366.624 130.54682 
L 357.696 130.083347 
L 348.768 129.642534 
L 339.84 128.942706 
L 330.912 127.925056 
L 321.984 127.502105 
L 313.056 126.927877 
L 304.128 125.672874 
L 295.2 124.687791 
L 286.272 124.314195 
L 277.344 123.042445 
L 268.416 123.67433 
L 259.488 122.529272 
L 250.56 121.891122 
L 241.632 122.341979 
L 232.704 122.177629 
L 223.776 121.248785 
L 214.848 120.833326 
L 205.92 119.862883 
L 196.992 118.614845 
L 188.064 117.998949 
L 179.136 120.046498 
L 170.208 120.222863 
L 161.28 122.191328 
L 152.352 124.136486 
L 143.424 125.660277 
L 134.496 124.325513 
L 125.568 128.137393 
L 116.64 128.91926 
L 107.712 130.02083 
L 98.784 132.98706 
L 89.856 135.760937 
L 80.928 141.560471 
L 72 162.971923 
z
" style="fill:#d62728;fill-opacity:0.3;"/>
   </g>
   <g id="PolyCollection_5">
    <path clip-path="url(#pe20c18acf1)" d="M 72 172.498478 
L 72 94.085505 
L 80.928 99.162896 
L 89.856 95.783048 
L 98.784 88.971548 
L 107.712 85.839502 
L 116.64 84.875458 
L 125.568 85.137739 
L 134.496 85.113715 
L 143.424 87.457103 
L 152.352 88.797402 
L 161.28 88.537096 
L 170.208 89.378404 
L 179.136 90.015254 
L 188.064 90.537138 
L 196.992 93.549137 
L 205.92 94.411715 
L 214.848 96.948443 
L 223.776 98.694061 
L 232.704 100.891937 
L 241.632 101.385566 
L 250.56 103.438295 
L 259.488 105.503224 
L 268.416 108.067295 
L 277.344 109.210405 
L 286.272 110.088357 
L 295.2 111.999925 
L 304.128 114.101941 
L 313.056 115.117471 
L 321.984 116.762592 
L 330.912 118.52805 
L 339.84 120.702652 
L 348.768 122.131319 
L 357.696 122.863017 
L 366.624 124.156857 
L 375.552 125.22599 
L 384.48 126.245292 
L 393.408 127.052804 
L 402.336 128.243144 
L 411.264 128.789876 
L 420.192 130.098147 
L 429.12 131.018568 
L 438.048 132.194797 
L 446.976 133.179602 
L 455.904 134.157947 
L 464.832 135.160474 
L 473.76 138.357504 
L 482.688 139.158114 
L 491.616 140.256233 
L 500.544 141.899665 
L 509.472 143.518174 
L 518.4 144.11836 
L 518.4 158.907468 
L 518.4 158.907468 
L 509.472 157.851761 
L 500.544 157.288864 
L 491.616 155.938328 
L 482.688 154.857697 
L 473.76 153.659361 
L 464.832 151.952542 
L 455.904 149.943057 
L 446.976 148.309117 
L 438.048 147.647095 
L 429.12 146.162702 
L 420.192 144.670896 
L 411.264 143.741328 
L 402.336 142.620545 
L 393.408 140.429982 
L 384.48 139.623325 
L 375.552 138.701726 
L 366.624 137.119616 
L 357.696 135.75605 
L 348.768 134.595208 
L 339.84 132.950063 
L 330.912 131.608543 
L 321.984 130.071376 
L 313.056 129.024533 
L 304.128 127.706824 
L 295.2 126.367319 
L 286.272 124.9261 
L 277.344 123.804843 
L 268.416 122.245683 
L 259.488 122.006473 
L 250.56 120.943978 
L 241.632 119.683543 
L 232.704 119.660928 
L 223.776 119.462146 
L 214.848 118.868553 
L 205.92 118.144333 
L 196.992 116.958349 
L 188.064 118.605001 
L 179.136 116.696736 
L 170.208 116.100434 
L 161.28 115.178575 
L 152.352 112.910372 
L 143.424 110.94562 
L 134.496 113.573556 
L 125.568 116.392987 
L 116.64 121.703223 
L 107.712 128.541142 
L 98.784 138.582445 
L 89.856 147.745788 
L 80.928 149.153052 
L 72 172.498478 
z
" style="fill:#9467bd;fill-opacity:0.3;"/>
   </g>
   <g id="PolyCollection_6">
    <path clip-path="url(#pe20c18acf1)" d="M 72 190.270659 
L 72 116.125459 
L 80.928 114.567257 
L 89.856 110.581304 
L 98.784 106.976272 
L 107.712 105.756762 
L 116.64 104.661354 
L 125.568 104.856089 
L 134.496 103.925734 
L 143.424 102.702837 
L 152.352 104.776682 
L 161.28 104.239855 
L 170.208 102.650491 
L 179.136 101.609057 
L 188.064 102.400571 
L 196.992 103.293877 
L 205.92 102.480062 
L 214.848 102.929284 
L 223.776 102.526622 
L 232.704 103.593562 
L 241.632 104.445762 
L 250.56 105.283921 
L 259.488 106.53123 
L 268.416 108.111852 
L 277.344 110.083919 
L 286.272 110.954554 
L 295.2 113.671289 
L 304.128 119.256377 
L 313.056 120.862697 
L 321.984 125.02705 
L 330.912 129.135599 
L 339.84 137.208138 
L 348.768 140.446107 
L 357.696 143.296464 
L 366.624 148.31685 
L 375.552 150.254445 
L 384.48 151.158424 
L 393.408 155.875136 
L 402.336 159.53901 
L 411.264 166.498229 
L 420.192 169.034597 
L 429.12 173.266731 
L 438.048 172.391933 
L 446.976 180.284249 
L 455.904 182.858137 
L 464.832 185.927165 
L 473.76 189.421549 
L 482.688 191.900831 
L 491.616 193.98587 
L 500.544 195.67793 
L 509.472 196.272203 
L 518.4 197.615496 
L 518.4 221.575765 
L 518.4 221.575765 
L 509.472 224.618339 
L 500.544 220.228334 
L 491.616 222.779126 
L 482.688 221.771754 
L 473.76 223.077809 
L 464.832 222.324263 
L 455.904 220.360122 
L 446.976 223.087761 
L 438.048 221.403527 
L 429.12 221.643941 
L 420.192 217.501355 
L 411.264 218.045691 
L 402.336 214.336906 
L 393.408 210.039262 
L 384.48 203.725781 
L 375.552 199.688567 
L 366.624 197.125915 
L 357.696 191.929794 
L 348.768 183.914537 
L 339.84 177.999365 
L 330.912 170.750653 
L 321.984 164.33216 
L 313.056 157.968144 
L 304.128 152.370854 
L 295.2 142.071976 
L 286.272 136.280769 
L 277.344 131.211162 
L 268.416 126.822324 
L 259.488 125.266726 
L 250.56 126.707625 
L 241.632 125.769746 
L 232.704 126.957377 
L 223.776 126.588237 
L 214.848 126.978977 
L 205.92 129.340833 
L 196.992 130.089518 
L 188.064 129.210454 
L 179.136 130.500357 
L 170.208 132.254113 
L 161.28 132.466783 
L 152.352 133.218582 
L 143.424 137.555716 
L 134.496 138.433088 
L 125.568 138.333115 
L 116.64 138.973257 
L 107.712 139.982475 
L 98.784 144.613152 
L 89.856 154.37033 
L 80.928 155.996152 
L 72 190.270659 
z
" style="fill:#8c564b;fill-opacity:0.3;"/>
   </g>
   <g id="PolyCollection_7">
    <path clip-path="url(#pe20c18acf1)" d="M 89.856 165.233125 
L 89.856 114.319214 
L 98.784 102.517471 
L 107.712 111.620197 
L 116.64 95.122934 
L 125.568 97.58279 
L 134.496 114.531252 
L 143.424 92.566985 
L 143.424 180.84312 
L 143.424 180.84312 
L 134.496 153.382016 
L 125.568 178.963814 
L 116.64 192.203006 
L 107.712 165.791965 
L 98.784 188.141143 
L 89.856 165.233125 
z
" style="fill:#e377c2;fill-opacity:0.3;"/>
    <path clip-path="url(#pe20c18acf1)" d="M 161.28 142.105384 
L 161.28 107.388594 
L 161.28 142.105384 
L 161.28 142.105384 
z
" style="fill:#e377c2;fill-opacity:0.3;"/>
    <path clip-path="url(#pe20c18acf1)" d="M 188.064 169.304928 
L 188.064 96.32516 
L 196.992 110.996068 
L 205.92 104.545122 
L 205.92 147.63545 
L 205.92 147.63545 
L 196.992 144.729962 
L 188.064 169.304928 
z
" style="fill:#e377c2;fill-opacity:0.3;"/>
    <path clip-path="url(#pe20c18acf1)" d="M 232.704 147.919104 
L 232.704 106.571282 
L 241.632 111.032399 
L 241.632 153.346212 
L 241.632 153.346212 
L 232.704 147.919104 
z
" style="fill:#e377c2;fill-opacity:0.3;"/>
    <path clip-path="url(#pe20c18acf1)" d="M 268.416 178.180515 
L 268.416 80.040991 
L 268.416 178.180515 
L 268.416 178.180515 
z
" style="fill:#e377c2;fill-opacity:0.3;"/>
    <path clip-path="url(#pe20c18acf1)" d="M 304.128 148.716065 
L 304.128 100.092489 
L 304.128 148.716065 
L 304.128 148.716065 
z
" style="fill:#e377c2;fill-opacity:0.3;"/>
    <path clip-path="url(#pe20c18acf1)" d="M 321.984 158.646822 
L 321.984 95.956711 
L 330.912 98.150915 
L 339.84 98.315029 
L 339.84 153.681837 
L 339.84 153.681837 
L 330.912 155.538408 
L 321.984 158.646822 
z
" style="fill:#e377c2;fill-opacity:0.3;"/>
    <path clip-path="url(#pe20c18acf1)" d="M 357.696 140.539506 
L 357.696 103.541035 
L 366.624 100.673481 
L 366.624 132.463432 
L 366.624 132.463432 
L 357.696 140.539506 
z
" style="fill:#e377c2;fill-opacity:0.3;"/>
    <path clip-path="url(#pe20c18acf1)" d="M 384.48 151.283634 
L 384.48 91.184294 
L 384.48 151.283634 
L 384.48 151.283634 
z
" style="fill:#e377c2;fill-opacity:0.3;"/>
    <path clip-path="url(#pe20c18acf1)" d="M 411.264 146.624432 
L 411.264 93.242842 
L 420.192 86.298412 
L 429.12 86.749922 
L 429.12 157.603687 
L 429.12 157.603687 
L 420.192 159.363751 
L 411.264 146.624432 
z
" style="fill:#e377c2;fill-opacity:0.3;"/>
    <path clip-path="url(#pe20c18acf1)" d="M 455.904 139.519852 
L 455.904 95.487506 
L 464.832 93.019067 
L 464.832 147.189537 
L 464.832 147.189537 
L 455.904 139.519852 
z
" style="fill:#e377c2;fill-opacity:0.3;"/>
    <path clip-path="url(#pe20c18acf1)" d="M 482.688 152.146306 
L 482.688 86.386979 
L 482.688 152.146306 
L 482.688 152.146306 
z
" style="fill:#e377c2;fill-opacity:0.3;"/>
    <path clip-path="url(#pe20c18acf1)" d="M 500.544 159.848073 
L 500.544 94.503914 
L 500.544 159.848073 
L 500.544 159.848073 
z
" style="fill:#e377c2;fill-opacity:0.3;"/>
   </g>
   <g id="matplotlib.axis_1">
    <g id="xtick_1">
     <g id="line2d_1">
      <path clip-path="url(#pe20c18acf1)" d="M 72 384.48 
L 72 51.84 
" style="fill:none;stroke:#b0b0b0;stroke-linecap:square;stroke-width:0.8;"/>
     </g>
     <g id="line2d_2">
      <defs>
       <path d="M 0 0 
L 0 3.5 
" id="mba6f2b5d81" style="stroke:#000000;stroke-width:0.8;"/>
      </defs>
      <g>
       <use style="stroke:#000000;stroke-width:0.8;" x="72" xlink:href="#mba6f2b5d81" y="384.48"/>
      </g>
     </g>
     <g id="text_1">
      <!-- 0 -->
      <defs>
       <path d="M 31.78125 66.40625 
Q 24.171875 66.40625 20.328125 58.90625 
Q 16.5 51.421875 16.5 36.375 
Q 16.5 21.390625 20.328125 13.890625 
Q 24.171875 6.390625 31.78125 6.390625 
Q 39.453125 6.390625 43.28125 13.890625 
Q 47.125 21.390625 47.125 36.375 
Q 47.125 51.421875 43.28125 58.90625 
Q 39.453125 66.40625 31.78125 66.40625 
z
M 31.78125 74.21875 
Q 44.046875 74.21875 50.515625 64.515625 
Q 56.984375 54.828125 56.984375 36.375 
Q 56.984375 17.96875 50.515625 8.265625 
Q 44.046875 -1.421875 31.78125 -1.421875 
Q 19.53125 -1.421875 13.0625 8.265625 
Q 6.59375 17.96875 6.59375 36.375 
Q 6.59375 54.828125 13.0625 64.515625 
Q 19.53125 74.21875 31.78125 74.21875 
z
" id="DejaVuSans-48"/>
      </defs>
      <g transform="translate(68.81875 399.078438)scale(0.1 -0.1)">
       <use xlink:href="#DejaVuSans-48"/>
      </g>
     </g>
    </g>
    <g id="xtick_2">
     <g id="line2d_3">
      <path clip-path="url(#pe20c18acf1)" d="M 161.28 384.48 
L 161.28 51.84 
" style="fill:none;stroke:#b0b0b0;stroke-linecap:square;stroke-width:0.8;"/>
     </g>
     <g id="line2d_4">
      <g>
       <use style="stroke:#000000;stroke-width:0.8;" x="161.28" xlink:href="#mba6f2b5d81" y="384.48"/>
      </g>
     </g>
     <g id="text_2">
      <!-- 10 -->
      <defs>
       <path d="M 12.40625 8.296875 
L 28.515625 8.296875 
L 28.515625 63.921875 
L 10.984375 60.40625 
L 10.984375 69.390625 
L 28.421875 72.90625 
L 38.28125 72.90625 
L 38.28125 8.296875 
L 54.390625 8.296875 
L 54.390625 0 
L 12.40625 0 
z
" id="DejaVuSans-49"/>
      </defs>
      <g transform="translate(154.9175 399.078438)scale(0.1 -0.1)">
       <use xlink:href="#DejaVuSans-49"/>
       <use x="63.623047" xlink:href="#DejaVuSans-48"/>
      </g>
     </g>
    </g>
    <g id="xtick_3">
     <g id="line2d_5">
      <path clip-path="url(#pe20c18acf1)" d="M 250.56 384.48 
L 250.56 51.84 
" style="fill:none;stroke:#b0b0b0;stroke-linecap:square;stroke-width:0.8;"/>
     </g>
     <g id="line2d_6">
      <g>
       <use style="stroke:#000000;stroke-width:0.8;" x="250.56" xlink:href="#mba6f2b5d81" y="384.48"/>
      </g>
     </g>
     <g id="text_3">
      <!-- 20 -->
      <defs>
       <path d="M 19.1875 8.296875 
L 53.609375 8.296875 
L 53.609375 0 
L 7.328125 0 
L 7.328125 8.296875 
Q 12.9375 14.109375 22.625 23.890625 
Q 32.328125 33.6875 34.8125 36.53125 
Q 39.546875 41.84375 41.421875 45.53125 
Q 43.3125 49.21875 43.3125 52.78125 
Q 43.3125 58.59375 39.234375 62.25 
Q 35.15625 65.921875 28.609375 65.921875 
Q 23.96875 65.921875 18.8125 64.3125 
Q 13.671875 62.703125 7.8125 59.421875 
L 7.8125 69.390625 
Q 13.765625 71.78125 18.9375 73 
Q 24.125 74.21875 28.421875 74.21875 
Q 39.75 74.21875 46.484375 68.546875 
Q 53.21875 62.890625 53.21875 53.421875 
Q 53.21875 48.921875 51.53125 44.890625 
Q 49.859375 40.875 45.40625 35.40625 
Q 44.1875 33.984375 37.640625 27.21875 
Q 31.109375 20.453125 19.1875 8.296875 
z
" id="DejaVuSans-50"/>
      </defs>
      <g transform="translate(244.1975 399.078438)scale(0.1 -0.1)">
       <use xlink:href="#DejaVuSans-50"/>
       <use x="63.623047" xlink:href="#DejaVuSans-48"/>
      </g>
     </g>
    </g>
    <g id="xtick_4">
     <g id="line2d_7">
      <path clip-path="url(#pe20c18acf1)" d="M 339.84 384.48 
L 339.84 51.84 
" style="fill:none;stroke:#b0b0b0;stroke-linecap:square;stroke-width:0.8;"/>
     </g>
     <g id="line2d_8">
      <g>
       <use style="stroke:#000000;stroke-width:0.8;" x="339.84" xlink:href="#mba6f2b5d81" y="384.48"/>
      </g>
     </g>
     <g id="text_4">
      <!-- 30 -->
      <defs>
       <path d="M 40.578125 39.3125 
Q 47.65625 37.796875 51.625 33 
Q 55.609375 28.21875 55.609375 21.1875 
Q 55.609375 10.40625 48.1875 4.484375 
Q 40.765625 -1.421875 27.09375 -1.421875 
Q 22.515625 -1.421875 17.65625 -0.515625 
Q 12.796875 0.390625 7.625 2.203125 
L 7.625 11.71875 
Q 11.71875 9.328125 16.59375 8.109375 
Q 21.484375 6.890625 26.8125 6.890625 
Q 36.078125 6.890625 40.9375 10.546875 
Q 45.796875 14.203125 45.796875 21.1875 
Q 45.796875 27.640625 41.28125 31.265625 
Q 36.765625 34.90625 28.71875 34.90625 
L 20.21875 34.90625 
L 20.21875 43.015625 
L 29.109375 43.015625 
Q 36.375 43.015625 40.234375 45.921875 
Q 44.09375 48.828125 44.09375 54.296875 
Q 44.09375 59.90625 40.109375 62.90625 
Q 36.140625 65.921875 28.71875 65.921875 
Q 24.65625 65.921875 20.015625 65.03125 
Q 15.375 64.15625 9.8125 62.3125 
L 9.8125 71.09375 
Q 15.4375 72.65625 20.34375 73.4375 
Q 25.25 74.21875 29.59375 74.21875 
Q 40.828125 74.21875 47.359375 69.109375 
Q 53.90625 64.015625 53.90625 55.328125 
Q 53.90625 49.265625 50.4375 45.09375 
Q 46.96875 40.921875 40.578125 39.3125 
z
" id="DejaVuSans-51"/>
      </defs>
      <g transform="translate(333.4775 399.078438)scale(0.1 -0.1)">
       <use xlink:href="#DejaVuSans-51"/>
       <use x="63.623047" xlink:href="#DejaVuSans-48"/>
      </g>
     </g>
    </g>
    <g id="xtick_5">
     <g id="line2d_9">
      <path clip-path="url(#pe20c18acf1)" d="M 429.12 384.48 
L 429.12 51.84 
" style="fill:none;stroke:#b0b0b0;stroke-linecap:square;stroke-width:0.8;"/>
     </g>
     <g id="line2d_10">
      <g>
       <use style="stroke:#000000;stroke-width:0.8;" x="429.12" xlink:href="#mba6f2b5d81" y="384.48"/>
      </g>
     </g>
     <g id="text_5">
      <!-- 40 -->
      <defs>
       <path d="M 37.796875 64.3125 
L 12.890625 25.390625 
L 37.796875 25.390625 
z
M 35.203125 72.90625 
L 47.609375 72.90625 
L 47.609375 25.390625 
L 58.015625 25.390625 
L 58.015625 17.1875 
L 47.609375 17.1875 
L 47.609375 0 
L 37.796875 0 
L 37.796875 17.1875 
L 4.890625 17.1875 
L 4.890625 26.703125 
z
" id="DejaVuSans-52"/>
      </defs>
      <g transform="translate(422.7575 399.078438)scale(0.1 -0.1)">
       <use xlink:href="#DejaVuSans-52"/>
       <use x="63.623047" xlink:href="#DejaVuSans-48"/>
      </g>
     </g>
    </g>
    <g id="xtick_6">
     <g id="line2d_11">
      <path clip-path="url(#pe20c18acf1)" d="M 518.4 384.48 
L 518.4 51.84 
" style="fill:none;stroke:#b0b0b0;stroke-linecap:square;stroke-width:0.8;"/>
     </g>
     <g id="line2d_12">
      <g>
       <use style="stroke:#000000;stroke-width:0.8;" x="518.4" xlink:href="#mba6f2b5d81" y="384.48"/>
      </g>
     </g>
     <g id="text_6">
      <!-- 50 -->
      <defs>
       <path d="M 10.796875 72.90625 
L 49.515625 72.90625 
L 49.515625 64.59375 
L 19.828125 64.59375 
L 19.828125 46.734375 
Q 21.96875 47.46875 24.109375 47.828125 
Q 26.265625 48.1875 28.421875 48.1875 
Q 40.625 48.1875 47.75 41.5 
Q 54.890625 34.8125 54.890625 23.390625 
Q 54.890625 11.625 47.5625 5.09375 
Q 40.234375 -1.421875 26.90625 -1.421875 
Q 22.3125 -1.421875 17.546875 -0.640625 
Q 12.796875 0.140625 7.71875 1.703125 
L 7.71875 11.625 
Q 12.109375 9.234375 16.796875 8.0625 
Q 21.484375 6.890625 26.703125 6.890625 
Q 35.15625 6.890625 40.078125 11.328125 
Q 45.015625 15.765625 45.015625 23.390625 
Q 45.015625 31 40.078125 35.4375 
Q 35.15625 39.890625 26.703125 39.890625 
Q 22.75 39.890625 18.8125 39.015625 
Q 14.890625 38.140625 10.796875 36.28125 
z
" id="DejaVuSans-53"/>
      </defs>
      <g transform="translate(512.0375 399.078438)scale(0.1 -0.1)">
       <use xlink:href="#DejaVuSans-53"/>
       <use x="63.623047" xlink:href="#DejaVuSans-48"/>
      </g>
     </g>
    </g>
    <g id="text_7">
     <!-- Iteration -->
     <defs>
      <path d="M 9.8125 72.90625 
L 19.671875 72.90625 
L 19.671875 0 
L 9.8125 0 
z
" id="DejaVuSans-73"/>
      <path d="M 18.3125 70.21875 
L 18.3125 54.6875 
L 36.8125 54.6875 
L 36.8125 47.703125 
L 18.3125 47.703125 
L 18.3125 18.015625 
Q 18.3125 11.328125 20.140625 9.421875 
Q 21.96875 7.515625 27.59375 7.515625 
L 36.8125 7.515625 
L 36.8125 0 
L 27.59375 0 
Q 17.1875 0 13.234375 3.875 
Q 9.28125 7.765625 9.28125 18.015625 
L 9.28125 47.703125 
L 2.6875 47.703125 
L 2.6875 54.6875 
L 9.28125 54.6875 
L 9.28125 70.21875 
z
" id="DejaVuSans-116"/>
      <path d="M 56.203125 29.59375 
L 56.203125 25.203125 
L 14.890625 25.203125 
Q 15.484375 15.921875 20.484375 11.0625 
Q 25.484375 6.203125 34.421875 6.203125 
Q 39.59375 6.203125 44.453125 7.46875 
Q 49.3125 8.734375 54.109375 11.28125 
L 54.109375 2.78125 
Q 49.265625 0.734375 44.1875 -0.34375 
Q 39.109375 -1.421875 33.890625 -1.421875 
Q 20.796875 -1.421875 13.15625 6.1875 
Q 5.515625 13.8125 5.515625 26.8125 
Q 5.515625 40.234375 12.765625 48.109375 
Q 20.015625 56 32.328125 56 
Q 43.359375 56 49.78125 48.890625 
Q 56.203125 41.796875 56.203125 29.59375 
z
M 47.21875 32.234375 
Q 47.125 39.59375 43.09375 43.984375 
Q 39.0625 48.390625 32.421875 48.390625 
Q 24.90625 48.390625 20.390625 44.140625 
Q 15.875 39.890625 15.1875 32.171875 
z
" id="DejaVuSans-101"/>
      <path d="M 41.109375 46.296875 
Q 39.59375 47.171875 37.8125 47.578125 
Q 36.03125 48 33.890625 48 
Q 26.265625 48 22.1875 43.046875 
Q 18.109375 38.09375 18.109375 28.8125 
L 18.109375 0 
L 9.078125 0 
L 9.078125 54.6875 
L 18.109375 54.6875 
L 18.109375 46.1875 
Q 20.953125 51.171875 25.484375 53.578125 
Q 30.03125 56 36.53125 56 
Q 37.453125 56 38.578125 55.875 
Q 39.703125 55.765625 41.0625 55.515625 
z
" id="DejaVuSans-114"/>
      <path d="M 34.28125 27.484375 
Q 23.390625 27.484375 19.1875 25 
Q 14.984375 22.515625 14.984375 16.5 
Q 14.984375 11.71875 18.140625 8.90625 
Q 21.296875 6.109375 26.703125 6.109375 
Q 34.1875 6.109375 38.703125 11.40625 
Q 43.21875 16.703125 43.21875 25.484375 
L 43.21875 27.484375 
z
M 52.203125 31.203125 
L 52.203125 0 
L 43.21875 0 
L 43.21875 8.296875 
Q 40.140625 3.328125 35.546875 0.953125 
Q 30.953125 -1.421875 24.3125 -1.421875 
Q 15.921875 -1.421875 10.953125 3.296875 
Q 6 8.015625 6 15.921875 
Q 6 25.140625 12.171875 29.828125 
Q 18.359375 34.515625 30.609375 34.515625 
L 43.21875 34.515625 
L 43.21875 35.40625 
Q 43.21875 41.609375 39.140625 45 
Q 35.0625 48.390625 27.6875 48.390625 
Q 23 48.390625 18.546875 47.265625 
Q 14.109375 46.140625 10.015625 43.890625 
L 10.015625 52.203125 
Q 14.9375 54.109375 19.578125 55.046875 
Q 24.21875 56 28.609375 56 
Q 40.484375 56 46.34375 49.84375 
Q 52.203125 43.703125 52.203125 31.203125 
z
" id="DejaVuSans-97"/>
      <path d="M 9.421875 54.6875 
L 18.40625 54.6875 
L 18.40625 0 
L 9.421875 0 
z
M 9.421875 75.984375 
L 18.40625 75.984375 
L 18.40625 64.59375 
L 9.421875 64.59375 
z
" id="DejaVuSans-105"/>
      <path d="M 30.609375 48.390625 
Q 23.390625 48.390625 19.1875 42.75 
Q 14.984375 37.109375 14.984375 27.296875 
Q 14.984375 17.484375 19.15625 11.84375 
Q 23.34375 6.203125 30.609375 6.203125 
Q 37.796875 6.203125 41.984375 11.859375 
Q 46.1875 17.53125 46.1875 27.296875 
Q 46.1875 37.015625 41.984375 42.703125 
Q 37.796875 48.390625 30.609375 48.390625 
z
M 30.609375 56 
Q 42.328125 56 49.015625 48.375 
Q 55.71875 40.765625 55.71875 27.296875 
Q 55.71875 13.875 49.015625 6.21875 
Q 42.328125 -1.421875 30.609375 -1.421875 
Q 18.84375 -1.421875 12.171875 6.21875 
Q 5.515625 13.875 5.515625 27.296875 
Q 5.515625 40.765625 12.171875 48.375 
Q 18.84375 56 30.609375 56 
z
" id="DejaVuSans-111"/>
      <path d="M 54.890625 33.015625 
L 54.890625 0 
L 45.90625 0 
L 45.90625 32.71875 
Q 45.90625 40.484375 42.875 44.328125 
Q 39.84375 48.1875 33.796875 48.1875 
Q 26.515625 48.1875 22.3125 43.546875 
Q 18.109375 38.921875 18.109375 30.90625 
L 18.109375 0 
L 9.078125 0 
L 9.078125 54.6875 
L 18.109375 54.6875 
L 18.109375 46.1875 
Q 21.34375 51.125 25.703125 53.5625 
Q 30.078125 56 35.796875 56 
Q 45.21875 56 50.046875 50.171875 
Q 54.890625 44.34375 54.890625 33.015625 
z
" id="DejaVuSans-110"/>
     </defs>
     <g transform="translate(273.991406 412.756563)scale(0.1 -0.1)">
      <use xlink:href="#DejaVuSans-73"/>
      <use x="29.492188" xlink:href="#DejaVuSans-116"/>
      <use x="68.701172" xlink:href="#DejaVuSans-101"/>
      <use x="130.224609" xlink:href="#DejaVuSans-114"/>
      <use x="171.337891" xlink:href="#DejaVuSans-97"/>
      <use x="232.617188" xlink:href="#DejaVuSans-116"/>
      <use x="271.826172" xlink:href="#DejaVuSans-105"/>
      <use x="299.609375" xlink:href="#DejaVuSans-111"/>
      <use x="360.791016" xlink:href="#DejaVuSans-110"/>
     </g>
    </g>
   </g>
   <g id="matplotlib.axis_2">
    <g id="ytick_1">
     <g id="line2d_13">
      <path clip-path="url(#pe20c18acf1)" d="M 72 384.48 
L 518.4 384.48 
" style="fill:none;stroke:#b0b0b0;stroke-linecap:square;stroke-width:0.8;"/>
     </g>
     <g id="line2d_14">
      <defs>
       <path d="M 0 0 
L -3.5 0 
" id="m64367dc30f" style="stroke:#000000;stroke-width:0.8;"/>
      </defs>
      <g>
       <use style="stroke:#000000;stroke-width:0.8;" x="72" xlink:href="#m64367dc30f" y="384.48"/>
      </g>
     </g>
     <g id="text_8">
      <!-- $\mathdefault{10^{-12}}$ -->
      <defs>
       <path d="M 10.59375 35.5 
L 73.1875 35.5 
L 73.1875 27.203125 
L 10.59375 27.203125 
z
" id="DejaVuSans-8722"/>
      </defs>
      <g transform="translate(37.1 388.279219)scale(0.1 -0.1)">
       <use transform="translate(0 0.765625)" xlink:href="#DejaVuSans-49"/>
       <use transform="translate(63.623047 0.765625)" xlink:href="#DejaVuSans-48"/>
       <use transform="translate(128.203125 39.046875)scale(0.7)" xlink:href="#DejaVuSans-8722"/>
       <use transform="translate(186.855469 39.046875)scale(0.7)" xlink:href="#DejaVuSans-49"/>
       <use transform="translate(231.391602 39.046875)scale(0.7)" xlink:href="#DejaVuSans-50"/>
      </g>
     </g>
    </g>
    <g id="ytick_2">
     <g id="line2d_15">
      <path clip-path="url(#pe20c18acf1)" d="M 72 336.96 
L 518.4 336.96 
" style="fill:none;stroke:#b0b0b0;stroke-linecap:square;stroke-width:0.8;"/>
     </g>
     <g id="line2d_16">
      <g>
       <use style="stroke:#000000;stroke-width:0.8;" x="72" xlink:href="#m64367dc30f" y="336.96"/>
      </g>
     </g>
     <g id="text_9">
      <!-- $\mathdefault{10^{-10}}$ -->
      <g transform="translate(37.1 340.759219)scale(0.1 -0.1)">
       <use transform="translate(0 0.765625)" xlink:href="#DejaVuSans-49"/>
       <use transform="translate(63.623047 0.765625)" xlink:href="#DejaVuSans-48"/>
       <use transform="translate(128.203125 39.046875)scale(0.7)" xlink:href="#DejaVuSans-8722"/>
       <use transform="translate(186.855469 39.046875)scale(0.7)" xlink:href="#DejaVuSans-49"/>
       <use transform="translate(231.391602 39.046875)scale(0.7)" xlink:href="#DejaVuSans-48"/>
      </g>
     </g>
    </g>
    <g id="ytick_3">
     <g id="line2d_17">
      <path clip-path="url(#pe20c18acf1)" d="M 72 289.44 
L 518.4 289.44 
" style="fill:none;stroke:#b0b0b0;stroke-linecap:square;stroke-width:0.8;"/>
     </g>
     <g id="line2d_18">
      <g>
       <use style="stroke:#000000;stroke-width:0.8;" x="72" xlink:href="#m64367dc30f" y="289.44"/>
      </g>
     </g>
     <g id="text_10">
      <!-- $\mathdefault{10^{-8}}$ -->
      <defs>
       <path d="M 31.78125 34.625 
Q 24.75 34.625 20.71875 30.859375 
Q 16.703125 27.09375 16.703125 20.515625 
Q 16.703125 13.921875 20.71875 10.15625 
Q 24.75 6.390625 31.78125 6.390625 
Q 38.8125 6.390625 42.859375 10.171875 
Q 46.921875 13.96875 46.921875 20.515625 
Q 46.921875 27.09375 42.890625 30.859375 
Q 38.875 34.625 31.78125 34.625 
z
M 21.921875 38.8125 
Q 15.578125 40.375 12.03125 44.71875 
Q 8.5 49.078125 8.5 55.328125 
Q 8.5 64.0625 14.71875 69.140625 
Q 20.953125 74.21875 31.78125 74.21875 
Q 42.671875 74.21875 48.875 69.140625 
Q 55.078125 64.0625 55.078125 55.328125 
Q 55.078125 49.078125 51.53125 44.71875 
Q 48 40.375 41.703125 38.8125 
Q 48.828125 37.15625 52.796875 32.3125 
Q 56.78125 27.484375 56.78125 20.515625 
Q 56.78125 9.90625 50.3125 4.234375 
Q 43.84375 -1.421875 31.78125 -1.421875 
Q 19.734375 -1.421875 13.25 4.234375 
Q 6.78125 9.90625 6.78125 20.515625 
Q 6.78125 27.484375 10.78125 32.3125 
Q 14.796875 37.15625 21.921875 38.8125 
z
M 18.3125 54.390625 
Q 18.3125 48.734375 21.84375 45.5625 
Q 25.390625 42.390625 31.78125 42.390625 
Q 38.140625 42.390625 41.71875 45.5625 
Q 45.3125 48.734375 45.3125 54.390625 
Q 45.3125 60.0625 41.71875 63.234375 
Q 38.140625 66.40625 31.78125 66.40625 
Q 25.390625 66.40625 21.84375 63.234375 
Q 18.3125 60.0625 18.3125 54.390625 
z
" id="DejaVuSans-56"/>
      </defs>
      <g transform="translate(41.5 293.239219)scale(0.1 -0.1)">
       <use transform="translate(0 0.765625)" xlink:href="#DejaVuSans-49"/>
       <use transform="translate(63.623047 0.765625)" xlink:href="#DejaVuSans-48"/>
       <use transform="translate(128.203125 39.046875)scale(0.7)" xlink:href="#DejaVuSans-8722"/>
       <use transform="translate(186.855469 39.046875)scale(0.7)" xlink:href="#DejaVuSans-56"/>
      </g>
     </g>
    </g>
    <g id="ytick_4">
     <g id="line2d_19">
      <path clip-path="url(#pe20c18acf1)" d="M 72 241.92 
L 518.4 241.92 
" style="fill:none;stroke:#b0b0b0;stroke-linecap:square;stroke-width:0.8;"/>
     </g>
     <g id="line2d_20">
      <g>
       <use style="stroke:#000000;stroke-width:0.8;" x="72" xlink:href="#m64367dc30f" y="241.92"/>
      </g>
     </g>
     <g id="text_11">
      <!-- $\mathdefault{10^{-6}}$ -->
      <defs>
       <path d="M 33.015625 40.375 
Q 26.375 40.375 22.484375 35.828125 
Q 18.609375 31.296875 18.609375 23.390625 
Q 18.609375 15.53125 22.484375 10.953125 
Q 26.375 6.390625 33.015625 6.390625 
Q 39.65625 6.390625 43.53125 10.953125 
Q 47.40625 15.53125 47.40625 23.390625 
Q 47.40625 31.296875 43.53125 35.828125 
Q 39.65625 40.375 33.015625 40.375 
z
M 52.59375 71.296875 
L 52.59375 62.3125 
Q 48.875 64.0625 45.09375 64.984375 
Q 41.3125 65.921875 37.59375 65.921875 
Q 27.828125 65.921875 22.671875 59.328125 
Q 17.53125 52.734375 16.796875 39.40625 
Q 19.671875 43.65625 24.015625 45.921875 
Q 28.375 48.1875 33.59375 48.1875 
Q 44.578125 48.1875 50.953125 41.515625 
Q 57.328125 34.859375 57.328125 23.390625 
Q 57.328125 12.15625 50.6875 5.359375 
Q 44.046875 -1.421875 33.015625 -1.421875 
Q 20.359375 -1.421875 13.671875 8.265625 
Q 6.984375 17.96875 6.984375 36.375 
Q 6.984375 53.65625 15.1875 63.9375 
Q 23.390625 74.21875 37.203125 74.21875 
Q 40.921875 74.21875 44.703125 73.484375 
Q 48.484375 72.75 52.59375 71.296875 
z
" id="DejaVuSans-54"/>
      </defs>
      <g transform="translate(41.5 245.719219)scale(0.1 -0.1)">
       <use transform="translate(0 0.765625)" xlink:href="#DejaVuSans-49"/>
       <use transform="translate(63.623047 0.765625)" xlink:href="#DejaVuSans-48"/>
       <use transform="translate(128.203125 39.046875)scale(0.7)" xlink:href="#DejaVuSans-8722"/>
       <use transform="translate(186.855469 39.046875)scale(0.7)" xlink:href="#DejaVuSans-54"/>
      </g>
     </g>
    </g>
    <g id="ytick_5">
     <g id="line2d_21">
      <path clip-path="url(#pe20c18acf1)" d="M 72 194.4 
L 518.4 194.4 
" style="fill:none;stroke:#b0b0b0;stroke-linecap:square;stroke-width:0.8;"/>
     </g>
     <g id="line2d_22">
      <g>
       <use style="stroke:#000000;stroke-width:0.8;" x="72" xlink:href="#m64367dc30f" y="194.4"/>
      </g>
     </g>
     <g id="text_12">
      <!-- $\mathdefault{10^{-4}}$ -->
      <g transform="translate(41.5 198.199219)scale(0.1 -0.1)">
       <use transform="translate(0 0.684375)" xlink:href="#DejaVuSans-49"/>
       <use transform="translate(63.623047 0.684375)" xlink:href="#DejaVuSans-48"/>
       <use transform="translate(128.203125 38.965625)scale(0.7)" xlink:href="#DejaVuSans-8722"/>
       <use transform="translate(186.855469 38.965625)scale(0.7)" xlink:href="#DejaVuSans-52"/>
      </g>
     </g>
    </g>
    <g id="ytick_6">
     <g id="line2d_23">
      <path clip-path="url(#pe20c18acf1)" d="M 72 146.88 
L 518.4 146.88 
" style="fill:none;stroke:#b0b0b0;stroke-linecap:square;stroke-width:0.8;"/>
     </g>
     <g id="line2d_24">
      <g>
       <use style="stroke:#000000;stroke-width:0.8;" x="72" xlink:href="#m64367dc30f" y="146.88"/>
      </g>
     </g>
     <g id="text_13">
      <!-- $\mathdefault{10^{-2}}$ -->
      <g transform="translate(41.5 150.679219)scale(0.1 -0.1)">
       <use transform="translate(0 0.765625)" xlink:href="#DejaVuSans-49"/>
       <use transform="translate(63.623047 0.765625)" xlink:href="#DejaVuSans-48"/>
       <use transform="translate(128.203125 39.046875)scale(0.7)" xlink:href="#DejaVuSans-8722"/>
       <use transform="translate(186.855469 39.046875)scale(0.7)" xlink:href="#DejaVuSans-50"/>
      </g>
     </g>
    </g>
    <g id="ytick_7">
     <g id="line2d_25">
      <path clip-path="url(#pe20c18acf1)" d="M 72 99.36 
L 518.4 99.36 
" style="fill:none;stroke:#b0b0b0;stroke-linecap:square;stroke-width:0.8;"/>
     </g>
     <g id="line2d_26">
      <g>
       <use style="stroke:#000000;stroke-width:0.8;" x="72" xlink:href="#m64367dc30f" y="99.36"/>
      </g>
     </g>
     <g id="text_14">
      <!-- $\mathdefault{10^{0}}$ -->
      <g transform="translate(47.4 103.159219)scale(0.1 -0.1)">
       <use transform="translate(0 0.765625)" xlink:href="#DejaVuSans-49"/>
       <use transform="translate(63.623047 0.765625)" xlink:href="#DejaVuSans-48"/>
       <use transform="translate(128.203125 39.046875)scale(0.7)" xlink:href="#DejaVuSans-48"/>
      </g>
     </g>
    </g>
    <g id="ytick_8">
     <g id="line2d_27">
      <path clip-path="url(#pe20c18acf1)" d="M 72 51.84 
L 518.4 51.84 
" style="fill:none;stroke:#b0b0b0;stroke-linecap:square;stroke-width:0.8;"/>
     </g>
     <g id="line2d_28">
      <g>
       <use style="stroke:#000000;stroke-width:0.8;" x="72" xlink:href="#m64367dc30f" y="51.84"/>
      </g>
     </g>
     <g id="text_15">
      <!-- $\mathdefault{10^{2}}$ -->
      <g transform="translate(47.4 55.639219)scale(0.1 -0.1)">
       <use transform="translate(0 0.765625)" xlink:href="#DejaVuSans-49"/>
       <use transform="translate(63.623047 0.765625)" xlink:href="#DejaVuSans-48"/>
       <use transform="translate(128.203125 39.046875)scale(0.7)" xlink:href="#DejaVuSans-50"/>
      </g>
     </g>
    </g>
    <g id="text_16">
     <!-- Integrated Variance -->
     <defs>
      <path d="M 45.40625 27.984375 
Q 45.40625 37.75 41.375 43.109375 
Q 37.359375 48.484375 30.078125 48.484375 
Q 22.859375 48.484375 18.828125 43.109375 
Q 14.796875 37.75 14.796875 27.984375 
Q 14.796875 18.265625 18.828125 12.890625 
Q 22.859375 7.515625 30.078125 7.515625 
Q 37.359375 7.515625 41.375 12.890625 
Q 45.40625 18.265625 45.40625 27.984375 
z
M 54.390625 6.78125 
Q 54.390625 -7.171875 48.1875 -13.984375 
Q 42 -20.796875 29.203125 -20.796875 
Q 24.46875 -20.796875 20.265625 -20.09375 
Q 16.0625 -19.390625 12.109375 -17.921875 
L 12.109375 -9.1875 
Q 16.0625 -11.328125 19.921875 -12.34375 
Q 23.78125 -13.375 27.78125 -13.375 
Q 36.625 -13.375 41.015625 -8.765625 
Q 45.40625 -4.15625 45.40625 5.171875 
L 45.40625 9.625 
Q 42.625 4.78125 38.28125 2.390625 
Q 33.9375 0 27.875 0 
Q 17.828125 0 11.671875 7.65625 
Q 5.515625 15.328125 5.515625 27.984375 
Q 5.515625 40.671875 11.671875 48.328125 
Q 17.828125 56 27.875 56 
Q 33.9375 56 38.28125 53.609375 
Q 42.625 51.21875 45.40625 46.390625 
L 45.40625 54.6875 
L 54.390625 54.6875 
z
" id="DejaVuSans-103"/>
      <path d="M 45.40625 46.390625 
L 45.40625 75.984375 
L 54.390625 75.984375 
L 54.390625 0 
L 45.40625 0 
L 45.40625 8.203125 
Q 42.578125 3.328125 38.25 0.953125 
Q 33.9375 -1.421875 27.875 -1.421875 
Q 17.96875 -1.421875 11.734375 6.484375 
Q 5.515625 14.40625 5.515625 27.296875 
Q 5.515625 40.1875 11.734375 48.09375 
Q 17.96875 56 27.875 56 
Q 33.9375 56 38.25 53.625 
Q 42.578125 51.265625 45.40625 46.390625 
z
M 14.796875 27.296875 
Q 14.796875 17.390625 18.875 11.75 
Q 22.953125 6.109375 30.078125 6.109375 
Q 37.203125 6.109375 41.296875 11.75 
Q 45.40625 17.390625 45.40625 27.296875 
Q 45.40625 37.203125 41.296875 42.84375 
Q 37.203125 48.484375 30.078125 48.484375 
Q 22.953125 48.484375 18.875 42.84375 
Q 14.796875 37.203125 14.796875 27.296875 
z
" id="DejaVuSans-100"/>
      <path id="DejaVuSans-32"/>
      <path d="M 28.609375 0 
L 0.78125 72.90625 
L 11.078125 72.90625 
L 34.1875 11.53125 
L 57.328125 72.90625 
L 67.578125 72.90625 
L 39.796875 0 
z
" id="DejaVuSans-86"/>
      <path d="M 48.78125 52.59375 
L 48.78125 44.1875 
Q 44.96875 46.296875 41.140625 47.34375 
Q 37.3125 48.390625 33.40625 48.390625 
Q 24.65625 48.390625 19.8125 42.84375 
Q 14.984375 37.3125 14.984375 27.296875 
Q 14.984375 17.28125 19.8125 11.734375 
Q 24.65625 6.203125 33.40625 6.203125 
Q 37.3125 6.203125 41.140625 7.25 
Q 44.96875 8.296875 48.78125 10.40625 
L 48.78125 2.09375 
Q 45.015625 0.34375 40.984375 -0.53125 
Q 36.96875 -1.421875 32.421875 -1.421875 
Q 20.0625 -1.421875 12.78125 6.34375 
Q 5.515625 14.109375 5.515625 27.296875 
Q 5.515625 40.671875 12.859375 48.328125 
Q 20.21875 56 33.015625 56 
Q 37.15625 56 41.109375 55.140625 
Q 45.0625 54.296875 48.78125 52.59375 
z
" id="DejaVuSans-99"/>
     </defs>
     <g transform="translate(31.020312 267.534219)rotate(-90)scale(0.1 -0.1)">
      <use xlink:href="#DejaVuSans-73"/>
      <use x="29.492188" xlink:href="#DejaVuSans-110"/>
      <use x="92.871094" xlink:href="#DejaVuSans-116"/>
      <use x="132.080078" xlink:href="#DejaVuSans-101"/>
      <use x="193.603516" xlink:href="#DejaVuSans-103"/>
      <use x="257.080078" xlink:href="#DejaVuSans-114"/>
      <use x="298.193359" xlink:href="#DejaVuSans-97"/>
      <use x="359.472656" xlink:href="#DejaVuSans-116"/>
      <use x="398.681641" xlink:href="#DejaVuSans-101"/>
      <use x="460.205078" xlink:href="#DejaVuSans-100"/>
      <use x="523.681641" xlink:href="#DejaVuSans-32"/>
      <use x="555.46875" xlink:href="#DejaVuSans-86"/>
      <use x="616.126953" xlink:href="#DejaVuSans-97"/>
      <use x="677.40625" xlink:href="#DejaVuSans-114"/>
      <use x="718.519531" xlink:href="#DejaVuSans-105"/>
      <use x="746.302734" xlink:href="#DejaVuSans-97"/>
      <use x="807.582031" xlink:href="#DejaVuSans-110"/>
      <use x="870.960938" xlink:href="#DejaVuSans-99"/>
      <use x="925.941406" xlink:href="#DejaVuSans-101"/>
     </g>
    </g>
   </g>
   <g id="line2d_29">
    <path clip-path="url(#pe20c18acf1)" style="fill:none;stroke:#1f77b4;stroke-linecap:square;stroke-width:1.5;"/>
   </g>
   <g id="line2d_30">
    <path clip-path="url(#pe20c18acf1)" d="M 72 130.260616 
L 80.928 125.594083 
L 89.856 110.354075 
L 98.784 98.332475 
L 107.712 97.278492 
L 116.64 96.892312 
L 125.568 92.343183 
L 134.496 91.828188 
L 143.424 92.182557 
L 152.352 89.834188 
L 161.28 90.031834 
L 170.208 91.88288 
L 179.136 92.310184 
L 188.064 93.564218 
L 196.992 94.378323 
L 205.92 96.139219 
L 214.848 97.741012 
L 223.776 100.405559 
L 232.704 103.080567 
L 241.632 105.565816 
L 250.56 109.096388 
L 259.488 112.52399 
L 268.416 117.238911 
L 277.344 122.085232 
L 286.272 126.325764 
L 295.2 130.313389 
L 304.128 135.397251 
L 313.056 139.467343 
L 321.984 144.15492 
L 330.912 148.057845 
L 339.84 152.664867 
L 348.768 154.726015 
L 357.696 159.807261 
L 366.624 164.563714 
L 375.552 168.688212 
L 384.48 172.454913 
L 393.408 178.459073 
L 402.336 181.742228 
L 411.264 183.739659 
L 420.192 184.78985 
L 429.12 188.529117 
L 438.048 190.186634 
L 446.976 192.208548 
L 455.904 192.856151 
L 464.832 193.43602 
L 473.76 193.722754 
L 482.688 195.759127 
L 491.616 196.959301 
L 500.544 197.600486 
L 509.472 199.028821 
L 518.4 203.278593 
" style="fill:none;stroke:#ff7f0e;stroke-linecap:square;stroke-width:1.5;"/>
   </g>
   <g id="line2d_31">
    <path clip-path="url(#pe20c18acf1)" d="M 72 140.015781 
L 80.928 127.460382 
L 89.856 124.789508 
L 98.784 120.495677 
L 107.712 119.396847 
L 116.64 119.575188 
L 125.568 119.509886 
L 134.496 117.752459 
L 143.424 116.79691 
L 152.352 116.121304 
L 161.28 114.614536 
L 170.208 114.5035 
L 179.136 114.053244 
L 188.064 113.240577 
L 196.992 113.709527 
L 205.92 114.164576 
L 214.848 114.59579 
L 223.776 114.586319 
L 232.704 114.782829 
L 241.632 115.314377 
L 250.56 115.439595 
L 259.488 115.368641 
L 268.416 115.344714 
L 277.344 115.496203 
L 286.272 115.887465 
L 295.2 116.038267 
L 304.128 116.326748 
L 313.056 116.622341 
L 321.984 117.250934 
L 330.912 117.221087 
L 339.84 117.829792 
L 348.768 118.426661 
L 357.696 118.856282 
L 366.624 119.232249 
L 375.552 119.673507 
L 384.48 119.723011 
L 393.408 120.136266 
L 402.336 120.530516 
L 411.264 120.762578 
L 420.192 120.909627 
L 429.12 121.330589 
L 438.048 121.512025 
L 446.976 121.440512 
L 455.904 121.789246 
L 464.832 122.101643 
L 473.76 122.451785 
L 482.688 122.705849 
L 491.616 122.897774 
L 500.544 122.95997 
L 509.472 123.324474 
L 518.4 123.587274 
" style="fill:none;stroke:#2ca02c;stroke-linecap:square;stroke-width:1.5;"/>
   </g>
   <g id="line2d_32">
    <path clip-path="url(#pe20c18acf1)" d="M 72 132.576409 
L 80.928 119.800245 
L 89.856 114.805312 
L 98.784 113.322226 
L 107.712 112.262852 
L 116.64 110.531509 
L 125.568 110.404839 
L 134.496 108.560198 
L 143.424 110.508771 
L 152.352 109.992534 
L 161.28 109.217181 
L 170.208 108.580364 
L 179.136 108.986555 
L 188.064 108.034 
L 196.992 109.02983 
L 205.92 110.407235 
L 214.848 111.348489 
L 223.776 112.284985 
L 232.704 113.478605 
L 241.632 114.072846 
L 250.56 114.465303 
L 259.488 115.540778 
L 268.416 116.321979 
L 277.344 117.100767 
L 286.272 118.299481 
L 295.2 118.813279 
L 304.128 120.230501 
L 313.056 121.240355 
L 321.984 122.125161 
L 330.912 123.13556 
L 339.84 124.334319 
L 348.768 124.971845 
L 357.696 125.649953 
L 366.624 126.477031 
L 375.552 127.23858 
L 384.48 127.764444 
L 393.408 128.56012 
L 402.336 129.13713 
L 411.264 129.870734 
L 420.192 130.525647 
L 429.12 131.337515 
L 438.048 131.980345 
L 446.976 132.591318 
L 455.904 133.098857 
L 464.832 133.726727 
L 473.76 134.493839 
L 482.688 135.221958 
L 491.616 135.952784 
L 500.544 136.662352 
L 509.472 137.346648 
L 518.4 138.126545 
" style="fill:none;stroke:#d62728;stroke-linecap:square;stroke-width:1.5;"/>
   </g>
   <g id="line2d_33">
    <path clip-path="url(#pe20c18acf1)" d="M 72 133.291991 
L 80.928 124.157974 
L 89.856 121.764418 
L 98.784 113.776996 
L 107.712 107.190322 
L 116.64 103.28934 
L 125.568 100.765363 
L 134.496 99.343636 
L 143.424 99.201361 
L 152.352 100.853887 
L 161.28 101.857835 
L 170.208 102.739419 
L 179.136 103.355995 
L 188.064 104.571069 
L 196.992 105.253743 
L 205.92 106.278024 
L 214.848 107.908498 
L 223.776 109.078103 
L 232.704 110.276433 
L 241.632 110.534555 
L 250.56 112.191137 
L 259.488 113.754849 
L 268.416 115.156489 
L 277.344 116.507624 
L 286.272 117.507228 
L 295.2 119.183622 
L 304.128 120.904383 
L 313.056 122.071002 
L 321.984 123.416984 
L 330.912 125.068296 
L 339.84 126.826357 
L 348.768 128.363263 
L 357.696 129.309534 
L 366.624 130.638236 
L 375.552 131.963858 
L 384.48 132.934309 
L 393.408 133.741393 
L 402.336 135.431845 
L 411.264 136.265602 
L 420.192 137.384521 
L 429.12 138.590635 
L 438.048 139.920946 
L 446.976 140.744359 
L 455.904 142.050502 
L 464.832 143.556508 
L 473.76 146.008433 
L 482.688 147.007905 
L 491.616 148.09728 
L 500.544 149.594264 
L 509.472 150.684967 
L 518.4 151.512914 
" style="fill:none;stroke:#9467bd;stroke-linecap:square;stroke-width:1.5;"/>
   </g>
   <g id="line2d_34">
    <path clip-path="url(#pe20c18acf1)" d="M 72 153.198059 
L 80.928 135.281704 
L 89.856 132.475817 
L 98.784 125.794712 
L 107.712 122.869619 
L 116.64 121.817305 
L 125.568 121.594602 
L 134.496 121.179411 
L 143.424 120.129277 
L 152.352 118.997632 
L 161.28 118.353319 
L 170.208 117.452302 
L 179.136 116.054707 
L 188.064 115.805513 
L 196.992 116.691697 
L 205.92 115.910447 
L 214.848 114.95413 
L 223.776 114.55743 
L 232.704 115.275469 
L 241.632 115.107754 
L 250.56 115.995773 
L 259.488 115.898978 
L 268.416 117.467088 
L 277.344 120.647541 
L 286.272 123.617661 
L 295.2 127.871632 
L 304.128 135.813615 
L 313.056 139.415421 
L 321.984 144.679605 
L 330.912 149.943126 
L 339.84 157.603751 
L 348.768 162.180322 
L 357.696 167.613129 
L 366.624 172.721382 
L 375.552 174.971506 
L 384.48 177.442103 
L 393.408 182.957199 
L 402.336 186.937958 
L 411.264 192.27196 
L 420.192 193.267976 
L 429.12 197.455336 
L 438.048 196.89773 
L 446.976 201.686005 
L 455.904 201.609129 
L 464.832 204.125714 
L 473.76 206.249679 
L 482.688 206.836293 
L 491.616 208.382498 
L 500.544 207.953132 
L 509.472 210.445271 
L 518.4 209.59563 
" style="fill:none;stroke:#8c564b;stroke-linecap:square;stroke-width:1.5;"/>
   </g>
   <g id="line2d_35">
    <path clip-path="url(#pe20c18acf1)" d="M 89.745631 433 
L 89.856 139.77617 
L 98.784 145.329307 
L 107.712 138.706081 
L 116.64 143.66297 
L 125.568 138.273302 
L 134.496 133.956634 
L 143.424 136.705052 
L 143.53551 433 
M 161.164048 433 
L 161.28 124.746989 
L 161.395952 433 
M 187.951044 433 
L 188.064 132.815044 
L 196.992 127.863015 
L 205.92 126.090286 
L 206.035454 433 
M 232.588975 433 
L 232.704 127.245193 
L 241.632 132.189306 
L 241.745188 433 
M 268.301668 433 
L 268.416 129.110753 
L 268.530332 433 
M 304.01192 433 
L 304.128 124.404277 
L 304.24408 433 
M 321.868996 433 
L 321.984 127.301766 
L 330.912 126.844661 
L 339.84 125.998433 
L 339.955488 433 
M 357.579043 433 
L 357.696 122.04027 
L 366.624 116.568457 
L 366.742988 433 
M 384.362744 433 
L 384.48 121.233964 
L 384.597256 433 
M 411.146261 433 
L 411.264 119.933637 
L 420.192 122.831082 
L 429.12 122.176805 
L 429.236906 433 
M 455.785359 433 
L 455.904 117.503679 
L 464.832 120.104302 
L 464.949676 433 
M 482.570013 433 
L 482.688 119.266642 
L 482.805987 433 
M 500.42895 433 
L 500.544 127.175993 
L 500.65905 433 
" style="fill:none;stroke:#e377c2;stroke-linecap:square;stroke-width:1.5;"/>
   </g>
   <g id="patch_3">
    <path d="M 72 384.48 
L 72 51.84 
" style="fill:none;stroke:#000000;stroke-linecap:square;stroke-linejoin:miter;stroke-width:0.8;"/>
   </g>
   <g id="patch_4">
    <path d="M 518.4 384.48 
L 518.4 51.84 
" style="fill:none;stroke:#000000;stroke-linecap:square;stroke-linejoin:miter;stroke-width:0.8;"/>
   </g>
   <g id="patch_5">
    <path d="M 72 384.48 
L 518.4 384.48 
" style="fill:none;stroke:#000000;stroke-linecap:square;stroke-linejoin:miter;stroke-width:0.8;"/>
   </g>
   <g id="patch_6">
    <path d="M 72 51.84 
L 518.4 51.84 
" style="fill:none;stroke:#000000;stroke-linecap:square;stroke-linejoin:miter;stroke-width:0.8;"/>
   </g>
   <g id="legend_1">
    <g id="patch_7">
     <path d="M 79 379.48 
L 165.804688 379.48 
Q 167.804688 379.48 167.804688 377.48 
L 167.804688 275.733125 
Q 167.804688 273.733125 165.804688 273.733125 
L 79 273.733125 
Q 77 273.733125 77 275.733125 
L 77 377.48 
Q 77 379.48 79 379.48 
z
" style="fill:#ffffff;opacity:0.8;stroke:#cccccc;stroke-linejoin:miter;"/>
    </g>
    <g id="line2d_36">
     <path d="M 81 281.831563 
L 101 281.831563 
" style="fill:none;stroke:#1f77b4;stroke-linecap:square;stroke-width:1.5;"/>
    </g>
    <g id="line2d_37"/>
    <g id="text_17">
     <!-- Constant -->
     <defs>
      <path d="M 64.40625 67.28125 
L 64.40625 56.890625 
Q 59.421875 61.53125 53.78125 63.8125 
Q 48.140625 66.109375 41.796875 66.109375 
Q 29.296875 66.109375 22.65625 58.46875 
Q 16.015625 50.828125 16.015625 36.375 
Q 16.015625 21.96875 22.65625 14.328125 
Q 29.296875 6.6875 41.796875 6.6875 
Q 48.140625 6.6875 53.78125 8.984375 
Q 59.421875 11.28125 64.40625 15.921875 
L 64.40625 5.609375 
Q 59.234375 2.09375 53.4375 0.328125 
Q 47.65625 -1.421875 41.21875 -1.421875 
Q 24.65625 -1.421875 15.125 8.703125 
Q 5.609375 18.84375 5.609375 36.375 
Q 5.609375 53.953125 15.125 64.078125 
Q 24.65625 74.21875 41.21875 74.21875 
Q 47.75 74.21875 53.53125 72.484375 
Q 59.328125 70.75 64.40625 67.28125 
z
" id="DejaVuSans-67"/>
      <path d="M 44.28125 53.078125 
L 44.28125 44.578125 
Q 40.484375 46.53125 36.375 47.5 
Q 32.28125 48.484375 27.875 48.484375 
Q 21.1875 48.484375 17.84375 46.4375 
Q 14.5 44.390625 14.5 40.28125 
Q 14.5 37.15625 16.890625 35.375 
Q 19.28125 33.59375 26.515625 31.984375 
L 29.59375 31.296875 
Q 39.15625 29.25 43.1875 25.515625 
Q 47.21875 21.78125 47.21875 15.09375 
Q 47.21875 7.46875 41.1875 3.015625 
Q 35.15625 -1.421875 24.609375 -1.421875 
Q 20.21875 -1.421875 15.453125 -0.5625 
Q 10.6875 0.296875 5.421875 2 
L 5.421875 11.28125 
Q 10.40625 8.6875 15.234375 7.390625 
Q 20.0625 6.109375 24.8125 6.109375 
Q 31.15625 6.109375 34.5625 8.28125 
Q 37.984375 10.453125 37.984375 14.40625 
Q 37.984375 18.0625 35.515625 20.015625 
Q 33.0625 21.96875 24.703125 23.78125 
L 21.578125 24.515625 
Q 13.234375 26.265625 9.515625 29.90625 
Q 5.8125 33.546875 5.8125 39.890625 
Q 5.8125 47.609375 11.28125 51.796875 
Q 16.75 56 26.8125 56 
Q 31.78125 56 36.171875 55.265625 
Q 40.578125 54.546875 44.28125 53.078125 
z
" id="DejaVuSans-115"/>
     </defs>
     <g transform="translate(109 285.331563)scale(0.1 -0.1)">
      <use xlink:href="#DejaVuSans-67"/>
      <use x="69.824219" xlink:href="#DejaVuSans-111"/>
      <use x="131.005859" xlink:href="#DejaVuSans-110"/>
      <use x="194.384766" xlink:href="#DejaVuSans-115"/>
      <use x="246.484375" xlink:href="#DejaVuSans-116"/>
      <use x="285.693359" xlink:href="#DejaVuSans-97"/>
      <use x="346.972656" xlink:href="#DejaVuSans-110"/>
      <use x="410.351562" xlink:href="#DejaVuSans-116"/>
     </g>
    </g>
    <g id="line2d_38">
     <path d="M 81 296.509688 
L 101 296.509688 
" style="fill:none;stroke:#ff7f0e;stroke-linecap:square;stroke-width:1.5;"/>
    </g>
    <g id="line2d_39"/>
    <g id="text_18">
     <!-- RBF -->
     <defs>
      <path d="M 44.390625 34.1875 
Q 47.5625 33.109375 50.5625 29.59375 
Q 53.5625 26.078125 56.59375 19.921875 
L 66.609375 0 
L 56 0 
L 46.6875 18.703125 
Q 43.0625 26.03125 39.671875 28.421875 
Q 36.28125 30.8125 30.421875 30.8125 
L 19.671875 30.8125 
L 19.671875 0 
L 9.8125 0 
L 9.8125 72.90625 
L 32.078125 72.90625 
Q 44.578125 72.90625 50.734375 67.671875 
Q 56.890625 62.453125 56.890625 51.90625 
Q 56.890625 45.015625 53.6875 40.46875 
Q 50.484375 35.9375 44.390625 34.1875 
z
M 19.671875 64.796875 
L 19.671875 38.921875 
L 32.078125 38.921875 
Q 39.203125 38.921875 42.84375 42.21875 
Q 46.484375 45.515625 46.484375 51.90625 
Q 46.484375 58.296875 42.84375 61.546875 
Q 39.203125 64.796875 32.078125 64.796875 
z
" id="DejaVuSans-82"/>
      <path d="M 19.671875 34.8125 
L 19.671875 8.109375 
L 35.5 8.109375 
Q 43.453125 8.109375 47.28125 11.40625 
Q 51.125 14.703125 51.125 21.484375 
Q 51.125 28.328125 47.28125 31.5625 
Q 43.453125 34.8125 35.5 34.8125 
z
M 19.671875 64.796875 
L 19.671875 42.828125 
L 34.28125 42.828125 
Q 41.5 42.828125 45.03125 45.53125 
Q 48.578125 48.25 48.578125 53.8125 
Q 48.578125 59.328125 45.03125 62.0625 
Q 41.5 64.796875 34.28125 64.796875 
z
M 9.8125 72.90625 
L 35.015625 72.90625 
Q 46.296875 72.90625 52.390625 68.21875 
Q 58.5 63.53125 58.5 54.890625 
Q 58.5 48.1875 55.375 44.234375 
Q 52.25 40.28125 46.1875 39.3125 
Q 53.46875 37.75 57.5 32.78125 
Q 61.53125 27.828125 61.53125 20.40625 
Q 61.53125 10.640625 54.890625 5.3125 
Q 48.25 0 35.984375 0 
L 9.8125 0 
z
" id="DejaVuSans-66"/>
      <path d="M 9.8125 72.90625 
L 51.703125 72.90625 
L 51.703125 64.59375 
L 19.671875 64.59375 
L 19.671875 43.109375 
L 48.578125 43.109375 
L 48.578125 34.8125 
L 19.671875 34.8125 
L 19.671875 0 
L 9.8125 0 
z
" id="DejaVuSans-70"/>
     </defs>
     <g transform="translate(109 300.009688)scale(0.1 -0.1)">
      <use xlink:href="#DejaVuSans-82"/>
      <use x="69.482422" xlink:href="#DejaVuSans-66"/>
      <use x="138.085938" xlink:href="#DejaVuSans-70"/>
     </g>
    </g>
    <g id="line2d_40">
     <path d="M 81 311.187813 
L 101 311.187813 
" style="fill:none;stroke:#2ca02c;stroke-linecap:square;stroke-width:1.5;"/>
    </g>
    <g id="line2d_41"/>
    <g id="text_19">
     <!-- Matrn-1/2 -->
     <defs>
      <path d="M 9.8125 72.90625 
L 24.515625 72.90625 
L 43.109375 23.296875 
L 61.8125 72.90625 
L 76.515625 72.90625 
L 76.515625 0 
L 66.890625 0 
L 66.890625 64.015625 
L 48.09375 14.015625 
L 38.1875 14.015625 
L 19.390625 64.015625 
L 19.390625 0 
L 9.8125 0 
z
" id="DejaVuSans-77"/>
      <path d="M 56.203125 29.59375 
L 56.203125 25.203125 
L 14.890625 25.203125 
Q 15.484375 15.921875 20.484375 11.0625 
Q 25.484375 6.203125 34.421875 6.203125 
Q 39.59375 6.203125 44.453125 7.46875 
Q 49.3125 8.734375 54.109375 11.28125 
L 54.109375 2.78125 
Q 49.265625 0.734375 44.1875 -0.34375 
Q 39.109375 -1.421875 33.890625 -1.421875 
Q 20.796875 -1.421875 13.15625 6.1875 
Q 5.515625 13.8125 5.515625 26.8125 
Q 5.515625 40.234375 12.765625 48.109375 
Q 20.015625 56 32.328125 56 
Q 43.359375 56 49.78125 48.890625 
Q 56.203125 41.796875 56.203125 29.59375 
z
M 47.21875 32.234375 
Q 47.125 39.59375 43.09375 43.984375 
Q 39.0625 48.390625 32.421875 48.390625 
Q 24.90625 48.390625 20.390625 44.140625 
Q 15.875 39.890625 15.1875 32.171875 
z
M 38.53125 79.984375 
L 48.25 79.984375 
L 32.34375 61.625 
L 24.859375 61.625 
z
" id="DejaVuSans-233"/>
      <path d="M 4.890625 31.390625 
L 31.203125 31.390625 
L 31.203125 23.390625 
L 4.890625 23.390625 
z
" id="DejaVuSans-45"/>
      <path d="M 25.390625 72.90625 
L 33.6875 72.90625 
L 8.296875 -9.28125 
L 0 -9.28125 
z
" id="DejaVuSans-47"/>
     </defs>
     <g transform="translate(109 314.687813)scale(0.1 -0.1)">
      <use xlink:href="#DejaVuSans-77"/>
      <use x="86.279297" xlink:href="#DejaVuSans-97"/>
      <use x="147.558594" xlink:href="#DejaVuSans-116"/>
      <use x="186.767578" xlink:href="#DejaVuSans-233"/>
      <use x="248.291016" xlink:href="#DejaVuSans-114"/>
      <use x="287.654297" xlink:href="#DejaVuSans-110"/>
      <use x="351.033203" xlink:href="#DejaVuSans-45"/>
      <use x="387.117188" xlink:href="#DejaVuSans-49"/>
      <use x="450.740234" xlink:href="#DejaVuSans-47"/>
      <use x="484.431641" xlink:href="#DejaVuSans-50"/>
     </g>
    </g>
    <g id="line2d_42">
     <path d="M 81 325.865938 
L 101 325.865938 
" style="fill:none;stroke:#d62728;stroke-linecap:square;stroke-width:1.5;"/>
    </g>
    <g id="line2d_43"/>
    <g id="text_20">
     <!-- Matrn-3/2 -->
     <g transform="translate(109 329.365938)scale(0.1 -0.1)">
      <use xlink:href="#DejaVuSans-77"/>
      <use x="86.279297" xlink:href="#DejaVuSans-97"/>
      <use x="147.558594" xlink:href="#DejaVuSans-116"/>
      <use x="186.767578" xlink:href="#DejaVuSans-233"/>
      <use x="248.291016" xlink:href="#DejaVuSans-114"/>
      <use x="287.654297" xlink:href="#DejaVuSans-110"/>
      <use x="351.033203" xlink:href="#DejaVuSans-45"/>
      <use x="387.117188" xlink:href="#DejaVuSans-51"/>
      <use x="450.740234" xlink:href="#DejaVuSans-47"/>
      <use x="484.431641" xlink:href="#DejaVuSans-50"/>
     </g>
    </g>
    <g id="line2d_44">
     <path d="M 81 340.544062 
L 101 340.544062 
" style="fill:none;stroke:#9467bd;stroke-linecap:square;stroke-width:1.5;"/>
    </g>
    <g id="line2d_45"/>
    <g id="text_21">
     <!-- Matrn-5/2 -->
     <g transform="translate(109 344.044062)scale(0.1 -0.1)">
      <use xlink:href="#DejaVuSans-77"/>
      <use x="86.279297" xlink:href="#DejaVuSans-97"/>
      <use x="147.558594" xlink:href="#DejaVuSans-116"/>
      <use x="186.767578" xlink:href="#DejaVuSans-233"/>
      <use x="248.291016" xlink:href="#DejaVuSans-114"/>
      <use x="287.654297" xlink:href="#DejaVuSans-110"/>
      <use x="351.033203" xlink:href="#DejaVuSans-45"/>
      <use x="387.117188" xlink:href="#DejaVuSans-53"/>
      <use x="450.740234" xlink:href="#DejaVuSans-47"/>
      <use x="484.431641" xlink:href="#DejaVuSans-50"/>
     </g>
    </g>
    <g id="line2d_46">
     <path d="M 81 355.222188 
L 101 355.222188 
" style="fill:none;stroke:#8c564b;stroke-linecap:square;stroke-width:1.5;"/>
    </g>
    <g id="line2d_47"/>
    <g id="text_22">
     <!-- RQ -->
     <defs>
      <path d="M 39.40625 66.21875 
Q 28.65625 66.21875 22.328125 58.203125 
Q 16.015625 50.203125 16.015625 36.375 
Q 16.015625 22.609375 22.328125 14.59375 
Q 28.65625 6.59375 39.40625 6.59375 
Q 50.140625 6.59375 56.421875 14.59375 
Q 62.703125 22.609375 62.703125 36.375 
Q 62.703125 50.203125 56.421875 58.203125 
Q 50.140625 66.21875 39.40625 66.21875 
z
M 53.21875 1.3125 
L 66.21875 -12.890625 
L 54.296875 -12.890625 
L 43.5 -1.21875 
Q 41.890625 -1.3125 41.03125 -1.359375 
Q 40.1875 -1.421875 39.40625 -1.421875 
Q 24.03125 -1.421875 14.8125 8.859375 
Q 5.609375 19.140625 5.609375 36.375 
Q 5.609375 53.65625 14.8125 63.9375 
Q 24.03125 74.21875 39.40625 74.21875 
Q 54.734375 74.21875 63.90625 63.9375 
Q 73.09375 53.65625 73.09375 36.375 
Q 73.09375 23.6875 67.984375 14.640625 
Q 62.890625 5.609375 53.21875 1.3125 
z
" id="DejaVuSans-81"/>
     </defs>
     <g transform="translate(109 358.722188)scale(0.1 -0.1)">
      <use xlink:href="#DejaVuSans-82"/>
      <use x="69.482422" xlink:href="#DejaVuSans-81"/>
     </g>
    </g>
    <g id="line2d_48">
     <path d="M 81 369.900313 
L 101 369.900313 
" style="fill:none;stroke:#e377c2;stroke-linecap:square;stroke-width:1.5;"/>
    </g>
    <g id="line2d_49"/>
    <g id="text_23">
     <!-- Dot Prod. -->
     <defs>
      <path d="M 19.671875 64.796875 
L 19.671875 8.109375 
L 31.59375 8.109375 
Q 46.6875 8.109375 53.6875 14.9375 
Q 60.6875 21.78125 60.6875 36.53125 
Q 60.6875 51.171875 53.6875 57.984375 
Q 46.6875 64.796875 31.59375 64.796875 
z
M 9.8125 72.90625 
L 30.078125 72.90625 
Q 51.265625 72.90625 61.171875 64.09375 
Q 71.09375 55.28125 71.09375 36.53125 
Q 71.09375 17.671875 61.125 8.828125 
Q 51.171875 0 30.078125 0 
L 9.8125 0 
z
" id="DejaVuSans-68"/>
      <path d="M 19.671875 64.796875 
L 19.671875 37.40625 
L 32.078125 37.40625 
Q 38.96875 37.40625 42.71875 40.96875 
Q 46.484375 44.53125 46.484375 51.125 
Q 46.484375 57.671875 42.71875 61.234375 
Q 38.96875 64.796875 32.078125 64.796875 
z
M 9.8125 72.90625 
L 32.078125 72.90625 
Q 44.34375 72.90625 50.609375 67.359375 
Q 56.890625 61.8125 56.890625 51.125 
Q 56.890625 40.328125 50.609375 34.8125 
Q 44.34375 29.296875 32.078125 29.296875 
L 19.671875 29.296875 
L 19.671875 0 
L 9.8125 0 
z
" id="DejaVuSans-80"/>
      <path d="M 10.6875 12.40625 
L 21 12.40625 
L 21 0 
L 10.6875 0 
z
" id="DejaVuSans-46"/>
     </defs>
     <g transform="translate(109 373.400313)scale(0.1 -0.1)">
      <use xlink:href="#DejaVuSans-68"/>
      <use x="77.001953" xlink:href="#DejaVuSans-111"/>
      <use x="138.183594" xlink:href="#DejaVuSans-116"/>
      <use x="177.392578" xlink:href="#DejaVuSans-32"/>
      <use x="209.179688" xlink:href="#DejaVuSans-80"/>
      <use x="267.732422" xlink:href="#DejaVuSans-114"/>
      <use x="306.595703" xlink:href="#DejaVuSans-111"/>
      <use x="367.777344" xlink:href="#DejaVuSans-100"/>
      <use x="431.253906" xlink:href="#DejaVuSans-46"/>
     </g>
    </g>
   </g>
  </g>
 </g>
 <defs>
  <clipPath id="pe20c18acf1">
   <rect height="332.64" width="446.4" x="72" y="51.84"/>
  </clipPath>
 </defs>
</svg>
