<?xml version="1.0" encoding="utf-8" standalone="no"?>
<!DOCTYPE svg PUBLIC "-//W3C//DTD SVG 1.1//EN"
  "http://www.w3.org/Graphics/SVG/1.1/DTD/svg11.dtd">
<!-- Created with matplotlib (https://matplotlib.org/) -->
<svg height="432pt" version="1.1" viewBox="0 0 576 432" width="576pt" xmlns="http://www.w3.org/2000/svg" xmlns:xlink="http://www.w3.org/1999/xlink">
 <defs>
  <style type="text/css">
*{stroke-linecap:butt;stroke-linejoin:round;}
  </style>
 </defs>
 <g id="figure_1">
  <g id="patch_1">
   <path d="M 0 432 
L 576 432 
L 576 0 
L 0 0 
z
" style="fill:#ffffff;"/>
  </g>
  <g id="axes_1">
   <g id="patch_2">
    <path d="M 72 384.48 
L 518.4 384.48 
L 518.4 51.84 
L 72 51.84 
z
" style="fill:#ffffff;"/>
   </g>
   <g id="PolyCollection_1">
    <path clip-path="url(#p5958b94ccc)" d="M 72 99.404969 
L 72 97.112458 
L 80.928 98.951165 
L 89.856 98.301026 
L 98.784 97.650114 
L 107.712 98.039532 
L 116.64 99.231033 
L 125.568 98.735031 
L 134.496 98.638222 
L 143.424 97.025078 
L 152.352 99.297488 
L 161.28 97.06316 
L 170.208 92.084395 
L 179.136 99.106834 
L 188.064 98.720829 
L 196.992 98.723277 
L 205.92 97.025617 
L 214.848 99.261421 
L 223.776 99.335608 
L 232.704 98.036625 
L 241.632 99.191683 
L 250.56 99.291718 
L 259.488 99.342647 
L 268.416 96.036275 
L 277.344 97.981567 
L 286.272 99.309993 
L 295.2 99.347 
L 304.128 99.316514 
L 313.056 99.267505 
L 321.984 94.671411 
L 330.912 92.849709 
L 339.84 96.553108 
L 348.768 99.287565 
L 357.696 89.470695 
L 366.624 94.132427 
L 375.552 99.333098 
L 384.48 92.269482 
L 393.408 79.345136 
L 402.336 98.18672 
L 411.264 89.858086 
L 420.192 97.02047 
L 429.12 95.900489 
L 438.048 95.310757 
L 446.976 99.199831 
L 455.904 99.320098 
L 464.832 83.784015 
L 473.76 99.355266 
L 482.688 92.241858 
L 491.616 86.969653 
L 500.544 97.06316 
L 509.472 92.993097 
L 518.4 99.346891 
L 518.4 99.360262 
L 518.4 99.360262 
L 509.472 99.483246 
L 500.544 97.066639 
L 491.616 99.078348 
L 482.688 99.20222 
L 473.76 99.356107 
L 464.832 99.031655 
L 455.904 99.356482 
L 446.976 99.338574 
L 438.048 98.646925 
L 429.12 99.270827 
L 420.192 99.265491 
L 411.264 99.550114 
L 402.336 99.331004 
L 393.408 99.760458 
L 384.48 94.814662 
L 375.552 99.360538 
L 366.624 94.139217 
L 357.696 99.132091 
L 348.768 99.353461 
L 339.84 97.581649 
L 330.912 93.490557 
L 321.984 99.228024 
L 313.056 99.351582 
L 304.128 99.36087 
L 295.2 99.348419 
L 286.272 99.361001 
L 277.344 99.210558 
L 268.416 99.420588 
L 259.488 99.344293 
L 250.56 99.361366 
L 241.632 99.344403 
L 232.704 99.386478 
L 223.776 99.337573 
L 214.848 99.361973 
L 205.92 99.067403 
L 196.992 98.741299 
L 188.064 99.313462 
L 179.136 99.200652 
L 170.208 98.821713 
L 161.28 97.066639 
L 152.352 99.300637 
L 143.424 99.035221 
L 134.496 99.289709 
L 125.568 98.735031 
L 116.64 99.235558 
L 107.712 99.386424 
L 98.784 98.761069 
L 89.856 99.381188 
L 80.928 98.959103 
L 72 99.404969 
z
" style="fill:#1f77b4;fill-opacity:0.3;"/>
   </g>
   <g id="PolyCollection_2">
    <path clip-path="url(#p5958b94ccc)" d="M 72 104.166317 
L 72 99.346173 
L 80.928 102.964496 
L 89.856 103.450701 
L 98.784 101.499997 
L 107.712 97.864624 
L 116.64 99.442765 
L 125.568 99.453162 
L 134.496 99.453162 
L 143.424 99.453162 
L 152.352 99.453162 
L 161.28 99.453162 
L 170.208 99.453162 
L 179.136 99.453162 
L 188.064 99.453162 
L 196.992 99.453162 
L 205.92 99.453162 
L 214.848 99.453162 
L 223.776 99.453162 
L 232.704 99.453162 
L 241.632 99.453162 
L 250.56 99.453162 
L 259.488 99.453162 
L 268.416 99.453162 
L 277.344 99.453162 
L 286.272 99.453162 
L 295.2 99.453162 
L 304.128 99.453162 
L 313.056 99.453162 
L 321.984 99.453162 
L 330.912 99.453162 
L 339.84 99.453162 
L 348.768 99.453162 
L 357.696 99.453162 
L 366.624 99.453162 
L 375.552 99.453162 
L 384.48 99.453162 
L 393.408 99.453162 
L 402.336 99.453162 
L 411.264 99.453162 
L 420.192 99.453162 
L 429.12 99.453162 
L 438.048 99.453162 
L 446.976 99.453162 
L 455.904 99.453162 
L 464.832 99.453162 
L 473.76 99.453162 
L 482.688 99.453162 
L 491.616 99.453162 
L 500.544 99.453162 
L 509.472 99.453162 
L 518.4 99.453162 
L 518.4 99.453242 
L 518.4 99.453242 
L 509.472 99.453242 
L 500.544 99.453242 
L 491.616 99.453242 
L 482.688 99.453242 
L 473.76 99.453242 
L 464.832 99.453242 
L 455.904 99.453242 
L 446.976 99.453242 
L 438.048 99.453242 
L 429.12 99.453242 
L 420.192 99.453242 
L 411.264 99.453242 
L 402.336 99.453242 
L 393.408 99.453242 
L 384.48 99.453242 
L 375.552 99.453242 
L 366.624 99.453242 
L 357.696 99.453242 
L 348.768 99.453242 
L 339.84 99.453242 
L 330.912 99.453242 
L 321.984 99.453242 
L 313.056 99.453242 
L 304.128 99.453242 
L 295.2 99.453242 
L 286.272 99.453242 
L 277.344 99.453242 
L 268.416 99.453242 
L 259.488 99.453242 
L 250.56 99.453242 
L 241.632 99.453242 
L 232.704 99.453242 
L 223.776 99.453242 
L 214.848 99.453242 
L 205.92 99.453242 
L 196.992 99.453242 
L 188.064 99.453242 
L 179.136 99.453242 
L 170.208 99.453242 
L 161.28 99.453242 
L 152.352 99.453242 
L 143.424 99.453242 
L 134.496 99.453242 
L 125.568 99.453242 
L 116.64 99.442845 
L 107.712 101.853865 
L 98.784 108.092893 
L 89.856 111.02422 
L 80.928 109.418636 
L 72 104.166317 
z
" style="fill:#ff7f0e;fill-opacity:0.3;"/>
   </g>
   <g id="PolyCollection_3">
    <path clip-path="url(#p5958b94ccc)" d="M 72 108.150244 
L 72 101.073803 
L 80.928 106.65343 
L 89.856 107.161654 
L 98.784 107.074863 
L 107.712 107.068242 
L 116.64 113.517264 
L 125.568 113.519322 
L 134.496 113.520095 
L 143.424 113.523142 
L 152.352 113.527982 
L 161.28 113.529237 
L 170.208 113.530106 
L 179.136 113.532166 
L 188.064 119.242447 
L 196.992 120.125351 
L 205.92 120.10637 
L 214.848 120.096218 
L 223.776 120.090269 
L 232.704 120.086558 
L 241.632 120.084135 
L 250.56 120.082497 
L 259.488 120.081359 
L 268.416 120.080551 
L 277.344 120.079966 
L 286.272 120.079538 
L 295.2 120.079219 
L 304.128 120.078981 
L 313.056 119.986095 
L 321.984 119.94041 
L 330.912 128.330211 
L 339.84 128.304157 
L 348.768 128.300298 
L 357.696 128.297291 
L 366.624 128.294915 
L 375.552 128.293016 
L 384.48 128.291483 
L 393.408 128.290234 
L 402.336 128.289207 
L 411.264 128.288358 
L 420.192 128.287651 
L 429.12 128.287059 
L 438.048 128.28656 
L 446.976 128.286139 
L 455.904 128.28578 
L 464.832 128.285474 
L 473.76 128.285212 
L 482.688 128.284987 
L 491.616 128.284793 
L 500.544 128.284626 
L 509.472 128.284481 
L 518.4 128.284355 
L 518.4 139.195403 
L 518.4 139.195403 
L 509.472 139.195227 
L 500.544 139.195025 
L 491.616 139.194792 
L 482.688 139.194522 
L 473.76 139.194209 
L 464.832 139.193844 
L 455.904 139.193418 
L 446.976 139.192918 
L 438.048 139.19233 
L 429.12 139.191635 
L 420.192 139.190809 
L 411.264 139.189822 
L 402.336 139.188638 
L 393.408 139.187206 
L 384.48 139.185462 
L 375.552 139.183322 
L 366.624 139.180672 
L 357.696 139.177355 
L 348.768 139.173155 
L 339.84 139.167766 
L 330.912 139.131346 
L 321.984 133.49003 
L 313.056 133.425227 
L 304.128 130.690133 
L 295.2 130.689782 
L 286.272 130.689312 
L 277.344 130.688679 
L 268.416 130.687813 
L 259.488 130.686615 
L 250.56 130.684925 
L 241.632 130.68249 
L 232.704 130.678885 
L 223.776 130.673356 
L 214.848 130.664485 
L 205.92 130.649328 
L 196.992 130.620937 
L 188.064 129.419914 
L 179.136 121.942825 
L 170.208 121.944133 
L 161.28 121.944704 
L 152.352 121.945521 
L 143.424 121.948585 
L 134.496 121.95054 
L 125.568 121.95108 
L 116.64 121.951759 
L 107.712 116.204283 
L 98.784 116.190789 
L 89.856 116.03319 
L 80.928 114.349103 
L 72 108.150244 
z
" style="fill:#2ca02c;fill-opacity:0.3;"/>
   </g>
   <g id="PolyCollection_4">
    <path clip-path="url(#p5958b94ccc)" d="M 72 108.07075 
L 72 99.908368 
L 80.928 105.243764 
L 89.856 105.960144 
L 98.784 105.992608 
L 107.712 106.474322 
L 116.64 111.168731 
L 125.568 111.178928 
L 134.496 111.178733 
L 143.424 111.537857 
L 152.352 112.557877 
L 161.28 111.360137 
L 170.208 112.135415 
L 179.136 112.137232 
L 188.064 115.744148 
L 196.992 117.130376 
L 205.92 117.13011 
L 214.848 117.578383 
L 223.776 117.578928 
L 232.704 117.580395 
L 241.632 117.196704 
L 250.56 117.196795 
L 259.488 117.196911 
L 268.416 117.196867 
L 277.344 117.196826 
L 286.272 117.198664 
L 295.2 118.762568 
L 304.128 118.760704 
L 313.056 118.760673 
L 321.984 118.760645 
L 330.912 122.255378 
L 339.84 122.25607 
L 348.768 122.255972 
L 357.696 122.745553 
L 366.624 122.745742 
L 375.552 124.803353 
L 384.48 124.804884 
L 393.408 124.805061 
L 402.336 124.805227 
L 411.264 124.805382 
L 420.192 124.80553 
L 429.12 124.80567 
L 438.048 124.805857 
L 446.976 124.37128 
L 455.904 124.371263 
L 464.832 124.371246 
L 473.76 124.371467 
L 482.688 124.371452 
L 491.616 124.371438 
L 500.544 124.373791 
L 509.472 124.373779 
L 518.4 124.373768 
L 518.4 137.163982 
L 518.4 137.163982 
L 509.472 137.163998 
L 500.544 137.164015 
L 491.616 137.160491 
L 482.688 137.160512 
L 473.76 137.160533 
L 464.832 137.160201 
L 455.904 137.160225 
L 446.976 137.160249 
L 438.048 137.816661 
L 429.12 137.816376 
L 420.192 137.816163 
L 411.264 137.815939 
L 402.336 137.815702 
L 393.408 137.815449 
L 384.48 137.815181 
L 375.552 137.812833 
L 366.624 138.494147 
L 357.696 138.49383 
L 348.768 137.67558 
L 339.84 137.67574 
L 330.912 137.674574 
L 321.984 129.013589 
L 313.056 129.013632 
L 304.128 129.013678 
L 295.2 129.015604 
L 286.272 129.274729 
L 277.344 129.271741 
L 268.416 129.271793 
L 259.488 129.271851 
L 250.56 129.271645 
L 241.632 129.271442 
L 232.704 129.893395 
L 223.776 129.890563 
L 214.848 129.889707 
L 205.92 129.167961 
L 196.992 129.168401 
L 188.064 129.378798 
L 179.136 121.475144 
L 170.208 121.473731 
L 161.28 121.238564 
L 152.352 121.799498 
L 143.424 121.858222 
L 134.496 121.298276 
L 125.568 121.29799 
L 116.64 121.284757 
L 107.712 115.052367 
L 98.784 114.679789 
L 89.856 114.375075 
L 80.928 113.051838 
L 72 108.07075 
z
" style="fill:#d62728;fill-opacity:0.3;"/>
   </g>
   <g id="PolyCollection_5">
    <path clip-path="url(#p5958b94ccc)" d="M 72 106.735891 
L 72 100.159155 
L 80.928 105.375363 
L 89.856 106.013928 
L 98.784 105.340559 
L 107.712 106.236429 
L 116.64 110.854614 
L 125.568 110.898657 
L 134.496 110.892834 
L 143.424 111.624565 
L 152.352 111.630093 
L 161.28 111.028152 
L 170.208 111.010914 
L 179.136 111.03198 
L 188.064 99.453196 
L 196.992 99.453196 
L 205.92 99.453196 
L 214.848 99.453196 
L 223.776 99.453196 
L 232.704 99.453196 
L 241.632 99.453196 
L 250.56 99.453196 
L 259.488 99.453196 
L 268.416 99.453196 
L 277.344 99.453196 
L 286.272 99.453196 
L 295.2 99.453196 
L 304.128 99.453196 
L 313.056 99.453196 
L 321.984 99.453196 
L 330.912 99.453196 
L 339.84 99.453196 
L 348.768 99.453196 
L 357.696 99.453196 
L 366.624 99.453196 
L 375.552 99.453196 
L 384.48 99.453196 
L 393.408 99.453196 
L 402.336 99.453196 
L 411.264 99.453196 
L 420.192 99.453196 
L 429.12 99.453196 
L 438.048 99.453196 
L 446.976 99.453196 
L 455.904 99.453196 
L 464.832 99.453196 
L 473.76 99.453196 
L 482.688 99.453196 
L 491.616 99.453196 
L 500.544 99.453196 
L 509.472 99.453196 
L 518.4 99.453196 
L 518.4 99.453196 
L 518.4 99.453196 
L 509.472 99.453196 
L 500.544 99.453196 
L 491.616 99.453196 
L 482.688 99.453196 
L 473.76 99.453196 
L 464.832 99.453196 
L 455.904 99.453196 
L 446.976 99.453196 
L 438.048 99.453196 
L 429.12 99.453196 
L 420.192 99.453196 
L 411.264 99.453196 
L 402.336 99.453196 
L 393.408 99.453196 
L 384.48 99.453196 
L 375.552 99.453196 
L 366.624 99.453196 
L 357.696 99.453196 
L 348.768 99.453196 
L 339.84 99.453196 
L 330.912 99.453196 
L 321.984 99.453196 
L 313.056 99.453196 
L 304.128 99.453196 
L 295.2 99.453196 
L 286.272 99.453196 
L 277.344 99.453196 
L 268.416 99.453196 
L 259.488 99.453196 
L 250.56 99.453196 
L 241.632 99.453196 
L 232.704 99.453196 
L 223.776 99.453196 
L 214.848 99.453196 
L 205.92 99.453196 
L 196.992 99.453196 
L 188.064 99.453196 
L 179.136 120.791521 
L 170.208 120.75493 
L 161.28 120.786825 
L 152.352 121.899404 
L 143.424 121.888404 
L 134.496 120.645434 
L 125.568 120.650566 
L 116.64 120.55685 
L 107.712 113.368583 
L 98.784 112.421014 
L 89.856 113.062248 
L 80.928 111.498619 
L 72 106.735891 
z
" style="fill:#9467bd;fill-opacity:0.3;"/>
   </g>
   <g id="PolyCollection_6">
    <path clip-path="url(#p5958b94ccc)" d="M 72 106.891907 
L 72 99.849225 
L 80.928 105.978659 
L 89.856 107.76124 
L 98.784 106.690681 
L 107.712 108.368499 
L 116.64 115.905065 
L 125.568 116.347108 
L 134.496 116.349888 
L 143.424 117.430587 
L 152.352 117.431666 
L 161.28 116.00685 
L 170.208 115.786388 
L 179.136 115.712323 
L 188.064 123.376635 
L 196.992 123.231858 
L 205.92 123.114929 
L 214.848 123.966023 
L 223.776 123.96854 
L 232.704 123.952689 
L 241.632 122.680155 
L 250.56 122.639207 
L 259.488 122.605438 
L 268.416 122.578164 
L 277.344 122.555808 
L 286.272 122.582082 
L 295.2 122.571948 
L 304.128 122.468608 
L 313.056 122.452831 
L 321.984 122.440499 
L 330.912 130.792223 
L 339.84 130.77809 
L 348.768 130.758085 
L 357.696 131.694921 
L 366.624 131.733456 
L 375.552 131.770972 
L 384.48 131.805333 
L 393.408 131.838641 
L 402.336 131.871802 
L 411.264 131.905852 
L 420.192 131.933876 
L 429.12 131.964607 
L 438.048 131.987317 
L 446.976 130.852087 
L 455.904 130.849278 
L 464.832 130.8468 
L 473.76 130.850226 
L 482.688 130.848368 
L 491.616 130.845373 
L 500.544 130.898492 
L 509.472 130.899889 
L 518.4 130.901502 
L 518.4 133.512327 
L 518.4 133.512327 
L 509.472 133.511794 
L 500.544 133.511468 
L 491.616 133.474664 
L 482.688 133.477271 
L 473.76 133.479261 
L 464.832 133.477711 
L 455.904 133.480123 
L 446.976 133.482737 
L 438.048 134.240845 
L 429.12 134.232885 
L 420.192 134.218986 
L 411.264 134.206761 
L 402.336 134.188833 
L 393.408 134.170955 
L 384.48 134.151913 
L 375.552 134.130495 
L 366.624 134.105304 
L 357.696 134.077515 
L 348.768 133.415485 
L 339.84 133.421498 
L 330.912 133.411379 
L 321.984 127.630381 
L 313.056 127.61844 
L 304.128 127.603728 
L 295.2 127.589512 
L 286.272 127.568285 
L 277.344 127.490522 
L 268.416 127.470514 
L 259.488 127.438697 
L 250.56 127.390675 
L 241.632 127.339582 
L 232.704 127.635103 
L 223.776 127.480669 
L 214.848 127.350214 
L 205.92 126.479082 
L 196.992 126.359378 
L 188.064 126.152195 
L 179.136 120.067968 
L 170.208 119.825968 
L 161.28 119.600968 
L 152.352 119.626193 
L 143.424 119.396725 
L 134.496 118.551775 
L 125.568 118.468599 
L 116.64 118.662625 
L 107.712 114.013366 
L 98.784 113.486803 
L 89.856 113.539391 
L 80.928 113.0151 
L 72 106.891907 
z
" style="fill:#8c564b;fill-opacity:0.3;"/>
   </g>
   <g id="PolyCollection_7">
    <path clip-path="url(#p5958b94ccc)" d="M 72 110.947562 
L 72 106.471164 
L 80.928 110.399133 
L 89.856 110.210011 
L 98.784 109.331954 
L 107.712 110.515803 
L 116.64 112.149103 
L 125.568 112.369347 
L 134.496 112.374746 
L 143.424 113.111525 
L 152.352 112.983149 
L 161.28 112.515952 
L 170.208 112.30819 
L 179.136 112.564877 
L 188.064 113.171482 
L 196.992 113.260957 
L 205.92 113.269142 
L 214.848 113.493409 
L 223.776 113.508755 
L 232.704 113.490573 
L 241.632 113.287383 
L 250.56 113.15892 
L 259.488 113.333248 
L 268.416 113.316297 
L 277.344 113.329013 
L 286.272 113.486754 
L 295.2 113.455273 
L 304.128 113.333699 
L 313.056 113.278195 
L 321.984 113.342399 
L 330.912 113.520671 
L 339.84 113.55296 
L 348.768 113.543846 
L 357.696 113.585603 
L 366.624 113.592692 
L 375.552 113.618892 
L 384.48 113.595542 
L 393.408 113.567039 
L 402.336 113.61567 
L 411.264 113.616249 
L 420.192 113.612255 
L 429.12 113.635539 
L 438.048 113.596874 
L 446.976 113.530881 
L 455.904 113.485134 
L 464.832 113.485768 
L 473.76 113.559909 
L 482.688 113.570428 
L 491.616 113.576665 
L 500.544 113.623306 
L 509.472 113.627474 
L 518.4 113.616169 
L 518.4 113.653289 
L 518.4 113.653289 
L 509.472 113.652891 
L 500.544 113.651473 
L 491.616 113.630821 
L 482.688 113.632833 
L 473.76 113.630319 
L 464.832 113.582217 
L 455.904 113.586233 
L 446.976 113.612184 
L 438.048 113.642146 
L 429.12 113.662729 
L 420.192 113.656107 
L 411.264 113.653356 
L 402.336 113.652432 
L 393.408 113.632348 
L 384.48 113.65052 
L 375.552 113.647297 
L 366.624 113.635023 
L 357.696 113.626512 
L 348.768 113.61159 
L 339.84 113.635135 
L 330.912 113.637153 
L 321.984 113.542061 
L 313.056 113.503627 
L 304.128 113.539707 
L 295.2 113.600504 
L 286.272 113.624862 
L 277.344 113.544964 
L 268.416 113.543579 
L 259.488 113.55001 
L 250.56 113.449368 
L 241.632 113.553354 
L 232.704 113.625657 
L 223.776 113.592064 
L 214.848 113.587998 
L 205.92 113.524106 
L 196.992 113.552192 
L 188.064 113.565107 
L 179.136 113.249713 
L 170.208 113.113987 
L 161.28 113.254565 
L 152.352 113.443231 
L 143.424 113.55956 
L 134.496 113.294551 
L 125.568 113.281628 
L 116.64 113.334632 
L 107.712 112.478638 
L 98.784 112.043399 
L 89.856 112.539986 
L 80.928 112.253852 
L 72 110.947562 
z
" style="fill:#e377c2;fill-opacity:0.3;"/>
   </g>
   <g id="matplotlib.axis_1">
    <g id="xtick_1">
     <g id="line2d_1">
      <path clip-path="url(#p5958b94ccc)" d="M 72 384.48 
L 72 51.84 
" style="fill:none;stroke:#b0b0b0;stroke-linecap:square;stroke-width:0.8;"/>
     </g>
     <g id="line2d_2">
      <defs>
       <path d="M 0 0 
L 0 3.5 
" id="m054ea68c78" style="stroke:#000000;stroke-width:0.8;"/>
      </defs>
      <g>
       <use style="stroke:#000000;stroke-width:0.8;" x="72" xlink:href="#m054ea68c78" y="384.48"/>
      </g>
     </g>
     <g id="text_1">
      <!-- 0 -->
      <defs>
       <path d="M 31.78125 66.40625 
Q 24.171875 66.40625 20.328125 58.90625 
Q 16.5 51.421875 16.5 36.375 
Q 16.5 21.390625 20.328125 13.890625 
Q 24.171875 6.390625 31.78125 6.390625 
Q 39.453125 6.390625 43.28125 13.890625 
Q 47.125 21.390625 47.125 36.375 
Q 47.125 51.421875 43.28125 58.90625 
Q 39.453125 66.40625 31.78125 66.40625 
z
M 31.78125 74.21875 
Q 44.046875 74.21875 50.515625 64.515625 
Q 56.984375 54.828125 56.984375 36.375 
Q 56.984375 17.96875 50.515625 8.265625 
Q 44.046875 -1.421875 31.78125 -1.421875 
Q 19.53125 -1.421875 13.0625 8.265625 
Q 6.59375 17.96875 6.59375 36.375 
Q 6.59375 54.828125 13.0625 64.515625 
Q 19.53125 74.21875 31.78125 74.21875 
z
" id="DejaVuSans-48"/>
      </defs>
      <g transform="translate(68.81875 399.078438)scale(0.1 -0.1)">
       <use xlink:href="#DejaVuSans-48"/>
      </g>
     </g>
    </g>
    <g id="xtick_2">
     <g id="line2d_3">
      <path clip-path="url(#p5958b94ccc)" d="M 161.28 384.48 
L 161.28 51.84 
" style="fill:none;stroke:#b0b0b0;stroke-linecap:square;stroke-width:0.8;"/>
     </g>
     <g id="line2d_4">
      <g>
       <use style="stroke:#000000;stroke-width:0.8;" x="161.28" xlink:href="#m054ea68c78" y="384.48"/>
      </g>
     </g>
     <g id="text_2">
      <!-- 10 -->
      <defs>
       <path d="M 12.40625 8.296875 
L 28.515625 8.296875 
L 28.515625 63.921875 
L 10.984375 60.40625 
L 10.984375 69.390625 
L 28.421875 72.90625 
L 38.28125 72.90625 
L 38.28125 8.296875 
L 54.390625 8.296875 
L 54.390625 0 
L 12.40625 0 
z
" id="DejaVuSans-49"/>
      </defs>
      <g transform="translate(154.9175 399.078438)scale(0.1 -0.1)">
       <use xlink:href="#DejaVuSans-49"/>
       <use x="63.623047" xlink:href="#DejaVuSans-48"/>
      </g>
     </g>
    </g>
    <g id="xtick_3">
     <g id="line2d_5">
      <path clip-path="url(#p5958b94ccc)" d="M 250.56 384.48 
L 250.56 51.84 
" style="fill:none;stroke:#b0b0b0;stroke-linecap:square;stroke-width:0.8;"/>
     </g>
     <g id="line2d_6">
      <g>
       <use style="stroke:#000000;stroke-width:0.8;" x="250.56" xlink:href="#m054ea68c78" y="384.48"/>
      </g>
     </g>
     <g id="text_3">
      <!-- 20 -->
      <defs>
       <path d="M 19.1875 8.296875 
L 53.609375 8.296875 
L 53.609375 0 
L 7.328125 0 
L 7.328125 8.296875 
Q 12.9375 14.109375 22.625 23.890625 
Q 32.328125 33.6875 34.8125 36.53125 
Q 39.546875 41.84375 41.421875 45.53125 
Q 43.3125 49.21875 43.3125 52.78125 
Q 43.3125 58.59375 39.234375 62.25 
Q 35.15625 65.921875 28.609375 65.921875 
Q 23.96875 65.921875 18.8125 64.3125 
Q 13.671875 62.703125 7.8125 59.421875 
L 7.8125 69.390625 
Q 13.765625 71.78125 18.9375 73 
Q 24.125 74.21875 28.421875 74.21875 
Q 39.75 74.21875 46.484375 68.546875 
Q 53.21875 62.890625 53.21875 53.421875 
Q 53.21875 48.921875 51.53125 44.890625 
Q 49.859375 40.875 45.40625 35.40625 
Q 44.1875 33.984375 37.640625 27.21875 
Q 31.109375 20.453125 19.1875 8.296875 
z
" id="DejaVuSans-50"/>
      </defs>
      <g transform="translate(244.1975 399.078438)scale(0.1 -0.1)">
       <use xlink:href="#DejaVuSans-50"/>
       <use x="63.623047" xlink:href="#DejaVuSans-48"/>
      </g>
     </g>
    </g>
    <g id="xtick_4">
     <g id="line2d_7">
      <path clip-path="url(#p5958b94ccc)" d="M 339.84 384.48 
L 339.84 51.84 
" style="fill:none;stroke:#b0b0b0;stroke-linecap:square;stroke-width:0.8;"/>
     </g>
     <g id="line2d_8">
      <g>
       <use style="stroke:#000000;stroke-width:0.8;" x="339.84" xlink:href="#m054ea68c78" y="384.48"/>
      </g>
     </g>
     <g id="text_4">
      <!-- 30 -->
      <defs>
       <path d="M 40.578125 39.3125 
Q 47.65625 37.796875 51.625 33 
Q 55.609375 28.21875 55.609375 21.1875 
Q 55.609375 10.40625 48.1875 4.484375 
Q 40.765625 -1.421875 27.09375 -1.421875 
Q 22.515625 -1.421875 17.65625 -0.515625 
Q 12.796875 0.390625 7.625 2.203125 
L 7.625 11.71875 
Q 11.71875 9.328125 16.59375 8.109375 
Q 21.484375 6.890625 26.8125 6.890625 
Q 36.078125 6.890625 40.9375 10.546875 
Q 45.796875 14.203125 45.796875 21.1875 
Q 45.796875 27.640625 41.28125 31.265625 
Q 36.765625 34.90625 28.71875 34.90625 
L 20.21875 34.90625 
L 20.21875 43.015625 
L 29.109375 43.015625 
Q 36.375 43.015625 40.234375 45.921875 
Q 44.09375 48.828125 44.09375 54.296875 
Q 44.09375 59.90625 40.109375 62.90625 
Q 36.140625 65.921875 28.71875 65.921875 
Q 24.65625 65.921875 20.015625 65.03125 
Q 15.375 64.15625 9.8125 62.3125 
L 9.8125 71.09375 
Q 15.4375 72.65625 20.34375 73.4375 
Q 25.25 74.21875 29.59375 74.21875 
Q 40.828125 74.21875 47.359375 69.109375 
Q 53.90625 64.015625 53.90625 55.328125 
Q 53.90625 49.265625 50.4375 45.09375 
Q 46.96875 40.921875 40.578125 39.3125 
z
" id="DejaVuSans-51"/>
      </defs>
      <g transform="translate(333.4775 399.078438)scale(0.1 -0.1)">
       <use xlink:href="#DejaVuSans-51"/>
       <use x="63.623047" xlink:href="#DejaVuSans-48"/>
      </g>
     </g>
    </g>
    <g id="xtick_5">
     <g id="line2d_9">
      <path clip-path="url(#p5958b94ccc)" d="M 429.12 384.48 
L 429.12 51.84 
" style="fill:none;stroke:#b0b0b0;stroke-linecap:square;stroke-width:0.8;"/>
     </g>
     <g id="line2d_10">
      <g>
       <use style="stroke:#000000;stroke-width:0.8;" x="429.12" xlink:href="#m054ea68c78" y="384.48"/>
      </g>
     </g>
     <g id="text_5">
      <!-- 40 -->
      <defs>
       <path d="M 37.796875 64.3125 
L 12.890625 25.390625 
L 37.796875 25.390625 
z
M 35.203125 72.90625 
L 47.609375 72.90625 
L 47.609375 25.390625 
L 58.015625 25.390625 
L 58.015625 17.1875 
L 47.609375 17.1875 
L 47.609375 0 
L 37.796875 0 
L 37.796875 17.1875 
L 4.890625 17.1875 
L 4.890625 26.703125 
z
" id="DejaVuSans-52"/>
      </defs>
      <g transform="translate(422.7575 399.078438)scale(0.1 -0.1)">
       <use xlink:href="#DejaVuSans-52"/>
       <use x="63.623047" xlink:href="#DejaVuSans-48"/>
      </g>
     </g>
    </g>
    <g id="xtick_6">
     <g id="line2d_11">
      <path clip-path="url(#p5958b94ccc)" d="M 518.4 384.48 
L 518.4 51.84 
" style="fill:none;stroke:#b0b0b0;stroke-linecap:square;stroke-width:0.8;"/>
     </g>
     <g id="line2d_12">
      <g>
       <use style="stroke:#000000;stroke-width:0.8;" x="518.4" xlink:href="#m054ea68c78" y="384.48"/>
      </g>
     </g>
     <g id="text_6">
      <!-- 50 -->
      <defs>
       <path d="M 10.796875 72.90625 
L 49.515625 72.90625 
L 49.515625 64.59375 
L 19.828125 64.59375 
L 19.828125 46.734375 
Q 21.96875 47.46875 24.109375 47.828125 
Q 26.265625 48.1875 28.421875 48.1875 
Q 40.625 48.1875 47.75 41.5 
Q 54.890625 34.8125 54.890625 23.390625 
Q 54.890625 11.625 47.5625 5.09375 
Q 40.234375 -1.421875 26.90625 -1.421875 
Q 22.3125 -1.421875 17.546875 -0.640625 
Q 12.796875 0.140625 7.71875 1.703125 
L 7.71875 11.625 
Q 12.109375 9.234375 16.796875 8.0625 
Q 21.484375 6.890625 26.703125 6.890625 
Q 35.15625 6.890625 40.078125 11.328125 
Q 45.015625 15.765625 45.015625 23.390625 
Q 45.015625 31 40.078125 35.4375 
Q 35.15625 39.890625 26.703125 39.890625 
Q 22.75 39.890625 18.8125 39.015625 
Q 14.890625 38.140625 10.796875 36.28125 
z
" id="DejaVuSans-53"/>
      </defs>
      <g transform="translate(512.0375 399.078438)scale(0.1 -0.1)">
       <use xlink:href="#DejaVuSans-53"/>
       <use x="63.623047" xlink:href="#DejaVuSans-48"/>
      </g>
     </g>
    </g>
    <g id="text_7">
     <!-- Iteration -->
     <defs>
      <path d="M 9.8125 72.90625 
L 19.671875 72.90625 
L 19.671875 0 
L 9.8125 0 
z
" id="DejaVuSans-73"/>
      <path d="M 18.3125 70.21875 
L 18.3125 54.6875 
L 36.8125 54.6875 
L 36.8125 47.703125 
L 18.3125 47.703125 
L 18.3125 18.015625 
Q 18.3125 11.328125 20.140625 9.421875 
Q 21.96875 7.515625 27.59375 7.515625 
L 36.8125 7.515625 
L 36.8125 0 
L 27.59375 0 
Q 17.1875 0 13.234375 3.875 
Q 9.28125 7.765625 9.28125 18.015625 
L 9.28125 47.703125 
L 2.6875 47.703125 
L 2.6875 54.6875 
L 9.28125 54.6875 
L 9.28125 70.21875 
z
" id="DejaVuSans-116"/>
      <path d="M 56.203125 29.59375 
L 56.203125 25.203125 
L 14.890625 25.203125 
Q 15.484375 15.921875 20.484375 11.0625 
Q 25.484375 6.203125 34.421875 6.203125 
Q 39.59375 6.203125 44.453125 7.46875 
Q 49.3125 8.734375 54.109375 11.28125 
L 54.109375 2.78125 
Q 49.265625 0.734375 44.1875 -0.34375 
Q 39.109375 -1.421875 33.890625 -1.421875 
Q 20.796875 -1.421875 13.15625 6.1875 
Q 5.515625 13.8125 5.515625 26.8125 
Q 5.515625 40.234375 12.765625 48.109375 
Q 20.015625 56 32.328125 56 
Q 43.359375 56 49.78125 48.890625 
Q 56.203125 41.796875 56.203125 29.59375 
z
M 47.21875 32.234375 
Q 47.125 39.59375 43.09375 43.984375 
Q 39.0625 48.390625 32.421875 48.390625 
Q 24.90625 48.390625 20.390625 44.140625 
Q 15.875 39.890625 15.1875 32.171875 
z
" id="DejaVuSans-101"/>
      <path d="M 41.109375 46.296875 
Q 39.59375 47.171875 37.8125 47.578125 
Q 36.03125 48 33.890625 48 
Q 26.265625 48 22.1875 43.046875 
Q 18.109375 38.09375 18.109375 28.8125 
L 18.109375 0 
L 9.078125 0 
L 9.078125 54.6875 
L 18.109375 54.6875 
L 18.109375 46.1875 
Q 20.953125 51.171875 25.484375 53.578125 
Q 30.03125 56 36.53125 56 
Q 37.453125 56 38.578125 55.875 
Q 39.703125 55.765625 41.0625 55.515625 
z
" id="DejaVuSans-114"/>
      <path d="M 34.28125 27.484375 
Q 23.390625 27.484375 19.1875 25 
Q 14.984375 22.515625 14.984375 16.5 
Q 14.984375 11.71875 18.140625 8.90625 
Q 21.296875 6.109375 26.703125 6.109375 
Q 34.1875 6.109375 38.703125 11.40625 
Q 43.21875 16.703125 43.21875 25.484375 
L 43.21875 27.484375 
z
M 52.203125 31.203125 
L 52.203125 0 
L 43.21875 0 
L 43.21875 8.296875 
Q 40.140625 3.328125 35.546875 0.953125 
Q 30.953125 -1.421875 24.3125 -1.421875 
Q 15.921875 -1.421875 10.953125 3.296875 
Q 6 8.015625 6 15.921875 
Q 6 25.140625 12.171875 29.828125 
Q 18.359375 34.515625 30.609375 34.515625 
L 43.21875 34.515625 
L 43.21875 35.40625 
Q 43.21875 41.609375 39.140625 45 
Q 35.0625 48.390625 27.6875 48.390625 
Q 23 48.390625 18.546875 47.265625 
Q 14.109375 46.140625 10.015625 43.890625 
L 10.015625 52.203125 
Q 14.9375 54.109375 19.578125 55.046875 
Q 24.21875 56 28.609375 56 
Q 40.484375 56 46.34375 49.84375 
Q 52.203125 43.703125 52.203125 31.203125 
z
" id="DejaVuSans-97"/>
      <path d="M 9.421875 54.6875 
L 18.40625 54.6875 
L 18.40625 0 
L 9.421875 0 
z
M 9.421875 75.984375 
L 18.40625 75.984375 
L 18.40625 64.59375 
L 9.421875 64.59375 
z
" id="DejaVuSans-105"/>
      <path d="M 30.609375 48.390625 
Q 23.390625 48.390625 19.1875 42.75 
Q 14.984375 37.109375 14.984375 27.296875 
Q 14.984375 17.484375 19.15625 11.84375 
Q 23.34375 6.203125 30.609375 6.203125 
Q 37.796875 6.203125 41.984375 11.859375 
Q 46.1875 17.53125 46.1875 27.296875 
Q 46.1875 37.015625 41.984375 42.703125 
Q 37.796875 48.390625 30.609375 48.390625 
z
M 30.609375 56 
Q 42.328125 56 49.015625 48.375 
Q 55.71875 40.765625 55.71875 27.296875 
Q 55.71875 13.875 49.015625 6.21875 
Q 42.328125 -1.421875 30.609375 -1.421875 
Q 18.84375 -1.421875 12.171875 6.21875 
Q 5.515625 13.875 5.515625 27.296875 
Q 5.515625 40.765625 12.171875 48.375 
Q 18.84375 56 30.609375 56 
z
" id="DejaVuSans-111"/>
      <path d="M 54.890625 33.015625 
L 54.890625 0 
L 45.90625 0 
L 45.90625 32.71875 
Q 45.90625 40.484375 42.875 44.328125 
Q 39.84375 48.1875 33.796875 48.1875 
Q 26.515625 48.1875 22.3125 43.546875 
Q 18.109375 38.921875 18.109375 30.90625 
L 18.109375 0 
L 9.078125 0 
L 9.078125 54.6875 
L 18.109375 54.6875 
L 18.109375 46.1875 
Q 21.34375 51.125 25.703125 53.5625 
Q 30.078125 56 35.796875 56 
Q 45.21875 56 50.046875 50.171875 
Q 54.890625 44.34375 54.890625 33.015625 
z
" id="DejaVuSans-110"/>
     </defs>
     <g transform="translate(273.991406 412.756563)scale(0.1 -0.1)">
      <use xlink:href="#DejaVuSans-73"/>
      <use x="29.492188" xlink:href="#DejaVuSans-116"/>
      <use x="68.701172" xlink:href="#DejaVuSans-101"/>
      <use x="130.224609" xlink:href="#DejaVuSans-114"/>
      <use x="171.337891" xlink:href="#DejaVuSans-97"/>
      <use x="232.617188" xlink:href="#DejaVuSans-116"/>
      <use x="271.826172" xlink:href="#DejaVuSans-105"/>
      <use x="299.609375" xlink:href="#DejaVuSans-111"/>
      <use x="360.791016" xlink:href="#DejaVuSans-110"/>
     </g>
    </g>
   </g>
   <g id="matplotlib.axis_2">
    <g id="ytick_1">
     <g id="line2d_13">
      <path clip-path="url(#p5958b94ccc)" d="M 72 384.48 
L 518.4 384.48 
" style="fill:none;stroke:#b0b0b0;stroke-linecap:square;stroke-width:0.8;"/>
     </g>
     <g id="line2d_14">
      <defs>
       <path d="M 0 0 
L -3.5 0 
" id="mabe1ec1a1c" style="stroke:#000000;stroke-width:0.8;"/>
      </defs>
      <g>
       <use style="stroke:#000000;stroke-width:0.8;" x="72" xlink:href="#mabe1ec1a1c" y="384.48"/>
      </g>
     </g>
     <g id="text_8">
      <!-- $\mathdefault{10^{-12}}$ -->
      <defs>
       <path d="M 10.59375 35.5 
L 73.1875 35.5 
L 73.1875 27.203125 
L 10.59375 27.203125 
z
" id="DejaVuSans-8722"/>
      </defs>
      <g transform="translate(37.1 388.279219)scale(0.1 -0.1)">
       <use transform="translate(0 0.765625)" xlink:href="#DejaVuSans-49"/>
       <use transform="translate(63.623047 0.765625)" xlink:href="#DejaVuSans-48"/>
       <use transform="translate(128.203125 39.046875)scale(0.7)" xlink:href="#DejaVuSans-8722"/>
       <use transform="translate(186.855469 39.046875)scale(0.7)" xlink:href="#DejaVuSans-49"/>
       <use transform="translate(231.391602 39.046875)scale(0.7)" xlink:href="#DejaVuSans-50"/>
      </g>
     </g>
    </g>
    <g id="ytick_2">
     <g id="line2d_15">
      <path clip-path="url(#p5958b94ccc)" d="M 72 336.96 
L 518.4 336.96 
" style="fill:none;stroke:#b0b0b0;stroke-linecap:square;stroke-width:0.8;"/>
     </g>
     <g id="line2d_16">
      <g>
       <use style="stroke:#000000;stroke-width:0.8;" x="72" xlink:href="#mabe1ec1a1c" y="336.96"/>
      </g>
     </g>
     <g id="text_9">
      <!-- $\mathdefault{10^{-10}}$ -->
      <g transform="translate(37.1 340.759219)scale(0.1 -0.1)">
       <use transform="translate(0 0.765625)" xlink:href="#DejaVuSans-49"/>
       <use transform="translate(63.623047 0.765625)" xlink:href="#DejaVuSans-48"/>
       <use transform="translate(128.203125 39.046875)scale(0.7)" xlink:href="#DejaVuSans-8722"/>
       <use transform="translate(186.855469 39.046875)scale(0.7)" xlink:href="#DejaVuSans-49"/>
       <use transform="translate(231.391602 39.046875)scale(0.7)" xlink:href="#DejaVuSans-48"/>
      </g>
     </g>
    </g>
    <g id="ytick_3">
     <g id="line2d_17">
      <path clip-path="url(#p5958b94ccc)" d="M 72 289.44 
L 518.4 289.44 
" style="fill:none;stroke:#b0b0b0;stroke-linecap:square;stroke-width:0.8;"/>
     </g>
     <g id="line2d_18">
      <g>
       <use style="stroke:#000000;stroke-width:0.8;" x="72" xlink:href="#mabe1ec1a1c" y="289.44"/>
      </g>
     </g>
     <g id="text_10">
      <!-- $\mathdefault{10^{-8}}$ -->
      <defs>
       <path d="M 31.78125 34.625 
Q 24.75 34.625 20.71875 30.859375 
Q 16.703125 27.09375 16.703125 20.515625 
Q 16.703125 13.921875 20.71875 10.15625 
Q 24.75 6.390625 31.78125 6.390625 
Q 38.8125 6.390625 42.859375 10.171875 
Q 46.921875 13.96875 46.921875 20.515625 
Q 46.921875 27.09375 42.890625 30.859375 
Q 38.875 34.625 31.78125 34.625 
z
M 21.921875 38.8125 
Q 15.578125 40.375 12.03125 44.71875 
Q 8.5 49.078125 8.5 55.328125 
Q 8.5 64.0625 14.71875 69.140625 
Q 20.953125 74.21875 31.78125 74.21875 
Q 42.671875 74.21875 48.875 69.140625 
Q 55.078125 64.0625 55.078125 55.328125 
Q 55.078125 49.078125 51.53125 44.71875 
Q 48 40.375 41.703125 38.8125 
Q 48.828125 37.15625 52.796875 32.3125 
Q 56.78125 27.484375 56.78125 20.515625 
Q 56.78125 9.90625 50.3125 4.234375 
Q 43.84375 -1.421875 31.78125 -1.421875 
Q 19.734375 -1.421875 13.25 4.234375 
Q 6.78125 9.90625 6.78125 20.515625 
Q 6.78125 27.484375 10.78125 32.3125 
Q 14.796875 37.15625 21.921875 38.8125 
z
M 18.3125 54.390625 
Q 18.3125 48.734375 21.84375 45.5625 
Q 25.390625 42.390625 31.78125 42.390625 
Q 38.140625 42.390625 41.71875 45.5625 
Q 45.3125 48.734375 45.3125 54.390625 
Q 45.3125 60.0625 41.71875 63.234375 
Q 38.140625 66.40625 31.78125 66.40625 
Q 25.390625 66.40625 21.84375 63.234375 
Q 18.3125 60.0625 18.3125 54.390625 
z
" id="DejaVuSans-56"/>
      </defs>
      <g transform="translate(41.5 293.239219)scale(0.1 -0.1)">
       <use transform="translate(0 0.765625)" xlink:href="#DejaVuSans-49"/>
       <use transform="translate(63.623047 0.765625)" xlink:href="#DejaVuSans-48"/>
       <use transform="translate(128.203125 39.046875)scale(0.7)" xlink:href="#DejaVuSans-8722"/>
       <use transform="translate(186.855469 39.046875)scale(0.7)" xlink:href="#DejaVuSans-56"/>
      </g>
     </g>
    </g>
    <g id="ytick_4">
     <g id="line2d_19">
      <path clip-path="url(#p5958b94ccc)" d="M 72 241.92 
L 518.4 241.92 
" style="fill:none;stroke:#b0b0b0;stroke-linecap:square;stroke-width:0.8;"/>
     </g>
     <g id="line2d_20">
      <g>
       <use style="stroke:#000000;stroke-width:0.8;" x="72" xlink:href="#mabe1ec1a1c" y="241.92"/>
      </g>
     </g>
     <g id="text_11">
      <!-- $\mathdefault{10^{-6}}$ -->
      <defs>
       <path d="M 33.015625 40.375 
Q 26.375 40.375 22.484375 35.828125 
Q 18.609375 31.296875 18.609375 23.390625 
Q 18.609375 15.53125 22.484375 10.953125 
Q 26.375 6.390625 33.015625 6.390625 
Q 39.65625 6.390625 43.53125 10.953125 
Q 47.40625 15.53125 47.40625 23.390625 
Q 47.40625 31.296875 43.53125 35.828125 
Q 39.65625 40.375 33.015625 40.375 
z
M 52.59375 71.296875 
L 52.59375 62.3125 
Q 48.875 64.0625 45.09375 64.984375 
Q 41.3125 65.921875 37.59375 65.921875 
Q 27.828125 65.921875 22.671875 59.328125 
Q 17.53125 52.734375 16.796875 39.40625 
Q 19.671875 43.65625 24.015625 45.921875 
Q 28.375 48.1875 33.59375 48.1875 
Q 44.578125 48.1875 50.953125 41.515625 
Q 57.328125 34.859375 57.328125 23.390625 
Q 57.328125 12.15625 50.6875 5.359375 
Q 44.046875 -1.421875 33.015625 -1.421875 
Q 20.359375 -1.421875 13.671875 8.265625 
Q 6.984375 17.96875 6.984375 36.375 
Q 6.984375 53.65625 15.1875 63.9375 
Q 23.390625 74.21875 37.203125 74.21875 
Q 40.921875 74.21875 44.703125 73.484375 
Q 48.484375 72.75 52.59375 71.296875 
z
" id="DejaVuSans-54"/>
      </defs>
      <g transform="translate(41.5 245.719219)scale(0.1 -0.1)">
       <use transform="translate(0 0.765625)" xlink:href="#DejaVuSans-49"/>
       <use transform="translate(63.623047 0.765625)" xlink:href="#DejaVuSans-48"/>
       <use transform="translate(128.203125 39.046875)scale(0.7)" xlink:href="#DejaVuSans-8722"/>
       <use transform="translate(186.855469 39.046875)scale(0.7)" xlink:href="#DejaVuSans-54"/>
      </g>
     </g>
    </g>
    <g id="ytick_5">
     <g id="line2d_21">
      <path clip-path="url(#p5958b94ccc)" d="M 72 194.4 
L 518.4 194.4 
" style="fill:none;stroke:#b0b0b0;stroke-linecap:square;stroke-width:0.8;"/>
     </g>
     <g id="line2d_22">
      <g>
       <use style="stroke:#000000;stroke-width:0.8;" x="72" xlink:href="#mabe1ec1a1c" y="194.4"/>
      </g>
     </g>
     <g id="text_12">
      <!-- $\mathdefault{10^{-4}}$ -->
      <g transform="translate(41.5 198.199219)scale(0.1 -0.1)">
       <use transform="translate(0 0.684375)" xlink:href="#DejaVuSans-49"/>
       <use transform="translate(63.623047 0.684375)" xlink:href="#DejaVuSans-48"/>
       <use transform="translate(128.203125 38.965625)scale(0.7)" xlink:href="#DejaVuSans-8722"/>
       <use transform="translate(186.855469 38.965625)scale(0.7)" xlink:href="#DejaVuSans-52"/>
      </g>
     </g>
    </g>
    <g id="ytick_6">
     <g id="line2d_23">
      <path clip-path="url(#p5958b94ccc)" d="M 72 146.88 
L 518.4 146.88 
" style="fill:none;stroke:#b0b0b0;stroke-linecap:square;stroke-width:0.8;"/>
     </g>
     <g id="line2d_24">
      <g>
       <use style="stroke:#000000;stroke-width:0.8;" x="72" xlink:href="#mabe1ec1a1c" y="146.88"/>
      </g>
     </g>
     <g id="text_13">
      <!-- $\mathdefault{10^{-2}}$ -->
      <g transform="translate(41.5 150.679219)scale(0.1 -0.1)">
       <use transform="translate(0 0.765625)" xlink:href="#DejaVuSans-49"/>
       <use transform="translate(63.623047 0.765625)" xlink:href="#DejaVuSans-48"/>
       <use transform="translate(128.203125 39.046875)scale(0.7)" xlink:href="#DejaVuSans-8722"/>
       <use transform="translate(186.855469 39.046875)scale(0.7)" xlink:href="#DejaVuSans-50"/>
      </g>
     </g>
    </g>
    <g id="ytick_7">
     <g id="line2d_25">
      <path clip-path="url(#p5958b94ccc)" d="M 72 99.36 
L 518.4 99.36 
" style="fill:none;stroke:#b0b0b0;stroke-linecap:square;stroke-width:0.8;"/>
     </g>
     <g id="line2d_26">
      <g>
       <use style="stroke:#000000;stroke-width:0.8;" x="72" xlink:href="#mabe1ec1a1c" y="99.36"/>
      </g>
     </g>
     <g id="text_14">
      <!-- $\mathdefault{10^{0}}$ -->
      <g transform="translate(47.4 103.159219)scale(0.1 -0.1)">
       <use transform="translate(0 0.765625)" xlink:href="#DejaVuSans-49"/>
       <use transform="translate(63.623047 0.765625)" xlink:href="#DejaVuSans-48"/>
       <use transform="translate(128.203125 39.046875)scale(0.7)" xlink:href="#DejaVuSans-48"/>
      </g>
     </g>
    </g>
    <g id="ytick_8">
     <g id="line2d_27">
      <path clip-path="url(#p5958b94ccc)" d="M 72 51.84 
L 518.4 51.84 
" style="fill:none;stroke:#b0b0b0;stroke-linecap:square;stroke-width:0.8;"/>
     </g>
     <g id="line2d_28">
      <g>
       <use style="stroke:#000000;stroke-width:0.8;" x="72" xlink:href="#mabe1ec1a1c" y="51.84"/>
      </g>
     </g>
     <g id="text_15">
      <!-- $\mathdefault{10^{2}}$ -->
      <g transform="translate(47.4 55.639219)scale(0.1 -0.1)">
       <use transform="translate(0 0.765625)" xlink:href="#DejaVuSans-49"/>
       <use transform="translate(63.623047 0.765625)" xlink:href="#DejaVuSans-48"/>
       <use transform="translate(128.203125 39.046875)scale(0.7)" xlink:href="#DejaVuSans-50"/>
      </g>
     </g>
    </g>
    <g id="text_16">
     <!-- Integrated Squared Error -->
     <defs>
      <path d="M 45.40625 27.984375 
Q 45.40625 37.75 41.375 43.109375 
Q 37.359375 48.484375 30.078125 48.484375 
Q 22.859375 48.484375 18.828125 43.109375 
Q 14.796875 37.75 14.796875 27.984375 
Q 14.796875 18.265625 18.828125 12.890625 
Q 22.859375 7.515625 30.078125 7.515625 
Q 37.359375 7.515625 41.375 12.890625 
Q 45.40625 18.265625 45.40625 27.984375 
z
M 54.390625 6.78125 
Q 54.390625 -7.171875 48.1875 -13.984375 
Q 42 -20.796875 29.203125 -20.796875 
Q 24.46875 -20.796875 20.265625 -20.09375 
Q 16.0625 -19.390625 12.109375 -17.921875 
L 12.109375 -9.1875 
Q 16.0625 -11.328125 19.921875 -12.34375 
Q 23.78125 -13.375 27.78125 -13.375 
Q 36.625 -13.375 41.015625 -8.765625 
Q 45.40625 -4.15625 45.40625 5.171875 
L 45.40625 9.625 
Q 42.625 4.78125 38.28125 2.390625 
Q 33.9375 0 27.875 0 
Q 17.828125 0 11.671875 7.65625 
Q 5.515625 15.328125 5.515625 27.984375 
Q 5.515625 40.671875 11.671875 48.328125 
Q 17.828125 56 27.875 56 
Q 33.9375 56 38.28125 53.609375 
Q 42.625 51.21875 45.40625 46.390625 
L 45.40625 54.6875 
L 54.390625 54.6875 
z
" id="DejaVuSans-103"/>
      <path d="M 45.40625 46.390625 
L 45.40625 75.984375 
L 54.390625 75.984375 
L 54.390625 0 
L 45.40625 0 
L 45.40625 8.203125 
Q 42.578125 3.328125 38.25 0.953125 
Q 33.9375 -1.421875 27.875 -1.421875 
Q 17.96875 -1.421875 11.734375 6.484375 
Q 5.515625 14.40625 5.515625 27.296875 
Q 5.515625 40.1875 11.734375 48.09375 
Q 17.96875 56 27.875 56 
Q 33.9375 56 38.25 53.625 
Q 42.578125 51.265625 45.40625 46.390625 
z
M 14.796875 27.296875 
Q 14.796875 17.390625 18.875 11.75 
Q 22.953125 6.109375 30.078125 6.109375 
Q 37.203125 6.109375 41.296875 11.75 
Q 45.40625 17.390625 45.40625 27.296875 
Q 45.40625 37.203125 41.296875 42.84375 
Q 37.203125 48.484375 30.078125 48.484375 
Q 22.953125 48.484375 18.875 42.84375 
Q 14.796875 37.203125 14.796875 27.296875 
z
" id="DejaVuSans-100"/>
      <path id="DejaVuSans-32"/>
      <path d="M 53.515625 70.515625 
L 53.515625 60.890625 
Q 47.90625 63.578125 42.921875 64.890625 
Q 37.9375 66.21875 33.296875 66.21875 
Q 25.25 66.21875 20.875 63.09375 
Q 16.5 59.96875 16.5 54.203125 
Q 16.5 49.359375 19.40625 46.890625 
Q 22.3125 44.4375 30.421875 42.921875 
L 36.375 41.703125 
Q 47.40625 39.59375 52.65625 34.296875 
Q 57.90625 29 57.90625 20.125 
Q 57.90625 9.515625 50.796875 4.046875 
Q 43.703125 -1.421875 29.984375 -1.421875 
Q 24.8125 -1.421875 18.96875 -0.25 
Q 13.140625 0.921875 6.890625 3.21875 
L 6.890625 13.375 
Q 12.890625 10.015625 18.65625 8.296875 
Q 24.421875 6.59375 29.984375 6.59375 
Q 38.421875 6.59375 43.015625 9.90625 
Q 47.609375 13.234375 47.609375 19.390625 
Q 47.609375 24.75 44.3125 27.78125 
Q 41.015625 30.8125 33.5 32.328125 
L 27.484375 33.5 
Q 16.453125 35.6875 11.515625 40.375 
Q 6.59375 45.0625 6.59375 53.421875 
Q 6.59375 63.09375 13.40625 68.65625 
Q 20.21875 74.21875 32.171875 74.21875 
Q 37.3125 74.21875 42.625 73.28125 
Q 47.953125 72.359375 53.515625 70.515625 
z
" id="DejaVuSans-83"/>
      <path d="M 14.796875 27.296875 
Q 14.796875 17.390625 18.875 11.75 
Q 22.953125 6.109375 30.078125 6.109375 
Q 37.203125 6.109375 41.296875 11.75 
Q 45.40625 17.390625 45.40625 27.296875 
Q 45.40625 37.203125 41.296875 42.84375 
Q 37.203125 48.484375 30.078125 48.484375 
Q 22.953125 48.484375 18.875 42.84375 
Q 14.796875 37.203125 14.796875 27.296875 
z
M 45.40625 8.203125 
Q 42.578125 3.328125 38.25 0.953125 
Q 33.9375 -1.421875 27.875 -1.421875 
Q 17.96875 -1.421875 11.734375 6.484375 
Q 5.515625 14.40625 5.515625 27.296875 
Q 5.515625 40.1875 11.734375 48.09375 
Q 17.96875 56 27.875 56 
Q 33.9375 56 38.25 53.625 
Q 42.578125 51.265625 45.40625 46.390625 
L 45.40625 54.6875 
L 54.390625 54.6875 
L 54.390625 -20.796875 
L 45.40625 -20.796875 
z
" id="DejaVuSans-113"/>
      <path d="M 8.5 21.578125 
L 8.5 54.6875 
L 17.484375 54.6875 
L 17.484375 21.921875 
Q 17.484375 14.15625 20.5 10.265625 
Q 23.53125 6.390625 29.59375 6.390625 
Q 36.859375 6.390625 41.078125 11.03125 
Q 45.3125 15.671875 45.3125 23.6875 
L 45.3125 54.6875 
L 54.296875 54.6875 
L 54.296875 0 
L 45.3125 0 
L 45.3125 8.40625 
Q 42.046875 3.421875 37.71875 1 
Q 33.40625 -1.421875 27.6875 -1.421875 
Q 18.265625 -1.421875 13.375 4.4375 
Q 8.5 10.296875 8.5 21.578125 
z
M 31.109375 56 
z
" id="DejaVuSans-117"/>
      <path d="M 9.8125 72.90625 
L 55.90625 72.90625 
L 55.90625 64.59375 
L 19.671875 64.59375 
L 19.671875 43.015625 
L 54.390625 43.015625 
L 54.390625 34.71875 
L 19.671875 34.71875 
L 19.671875 8.296875 
L 56.78125 8.296875 
L 56.78125 0 
L 9.8125 0 
z
" id="DejaVuSans-69"/>
     </defs>
     <g transform="translate(31.020312 280.483437)rotate(-90)scale(0.1 -0.1)">
      <use xlink:href="#DejaVuSans-73"/>
      <use x="29.492188" xlink:href="#DejaVuSans-110"/>
      <use x="92.871094" xlink:href="#DejaVuSans-116"/>
      <use x="132.080078" xlink:href="#DejaVuSans-101"/>
      <use x="193.603516" xlink:href="#DejaVuSans-103"/>
      <use x="257.080078" xlink:href="#DejaVuSans-114"/>
      <use x="298.193359" xlink:href="#DejaVuSans-97"/>
      <use x="359.472656" xlink:href="#DejaVuSans-116"/>
      <use x="398.681641" xlink:href="#DejaVuSans-101"/>
      <use x="460.205078" xlink:href="#DejaVuSans-100"/>
      <use x="523.681641" xlink:href="#DejaVuSans-32"/>
      <use x="555.46875" xlink:href="#DejaVuSans-83"/>
      <use x="618.945312" xlink:href="#DejaVuSans-113"/>
      <use x="682.421875" xlink:href="#DejaVuSans-117"/>
      <use x="745.800781" xlink:href="#DejaVuSans-97"/>
      <use x="807.080078" xlink:href="#DejaVuSans-114"/>
      <use x="845.943359" xlink:href="#DejaVuSans-101"/>
      <use x="907.466797" xlink:href="#DejaVuSans-100"/>
      <use x="970.943359" xlink:href="#DejaVuSans-32"/>
      <use x="1002.730469" xlink:href="#DejaVuSans-69"/>
      <use x="1065.914062" xlink:href="#DejaVuSans-114"/>
      <use x="1105.277344" xlink:href="#DejaVuSans-114"/>
      <use x="1144.140625" xlink:href="#DejaVuSans-111"/>
      <use x="1205.322266" xlink:href="#DejaVuSans-114"/>
     </g>
    </g>
   </g>
   <g id="line2d_29">
    <path clip-path="url(#p5958b94ccc)" d="M 72 98.258713 
L 80.928 98.955134 
L 89.856 98.841107 
L 98.784 98.205591 
L 107.712 98.712978 
L 116.64 99.233295 
L 125.568 98.735031 
L 134.496 98.963966 
L 143.424 98.030149 
L 152.352 99.299063 
L 161.28 97.0649 
L 170.208 95.453054 
L 179.136 99.153743 
L 188.064 99.017145 
L 196.992 98.732288 
L 205.92 98.04651 
L 214.848 99.311697 
L 223.776 99.33659 
L 232.704 98.711551 
L 241.632 99.268043 
L 250.56 99.326542 
L 259.488 99.34347 
L 268.416 97.728432 
L 277.344 98.596063 
L 286.272 99.335497 
L 295.2 99.347709 
L 304.128 99.338692 
L 313.056 99.309543 
L 321.984 96.949717 
L 330.912 93.170133 
L 339.84 97.067378 
L 348.768 99.320513 
L 357.696 94.301393 
L 366.624 94.135822 
L 375.552 99.346818 
L 384.48 93.542072 
L 393.408 89.552797 
L 402.336 98.758862 
L 411.264 94.7041 
L 420.192 98.142981 
L 429.12 97.585658 
L 438.048 96.978841 
L 446.976 99.269203 
L 455.904 99.33829 
L 464.832 91.407835 
L 473.76 99.355686 
L 482.688 95.722039 
L 491.616 93.024 
L 500.544 97.0649 
L 509.472 96.238171 
L 518.4 99.353577 
" style="fill:none;stroke:#1f77b4;stroke-linecap:square;stroke-width:1.5;"/>
   </g>
   <g id="line2d_30">
    <path clip-path="url(#p5958b94ccc)" d="M 72 101.756245 
L 80.928 106.191566 
L 89.856 107.23746 
L 98.784 104.796445 
L 107.712 99.859244 
L 116.64 99.442805 
L 125.568 99.453202 
L 134.496 99.453202 
L 143.424 99.453202 
L 152.352 99.453202 
L 161.28 99.453202 
L 170.208 99.453202 
L 179.136 99.453202 
L 188.064 99.453202 
L 196.992 99.453202 
L 205.92 99.453202 
L 214.848 99.453202 
L 223.776 99.453202 
L 232.704 99.453202 
L 241.632 99.453202 
L 250.56 99.453202 
L 259.488 99.453202 
L 268.416 99.453202 
L 277.344 99.453202 
L 286.272 99.453202 
L 295.2 99.453202 
L 304.128 99.453202 
L 313.056 99.453202 
L 321.984 99.453202 
L 330.912 99.453202 
L 339.84 99.453202 
L 348.768 99.453202 
L 357.696 99.453202 
L 366.624 99.453202 
L 375.552 99.453202 
L 384.48 99.453202 
L 393.408 99.453202 
L 402.336 99.453202 
L 411.264 99.453202 
L 420.192 99.453202 
L 429.12 99.453202 
L 438.048 99.453202 
L 446.976 99.453202 
L 455.904 99.453202 
L 464.832 99.453202 
L 473.76 99.453202 
L 482.688 99.453202 
L 491.616 99.453202 
L 500.544 99.453202 
L 509.472 99.453202 
L 518.4 99.453202 
" style="fill:none;stroke:#ff7f0e;stroke-linecap:square;stroke-width:1.5;"/>
   </g>
   <g id="line2d_31">
    <path clip-path="url(#p5958b94ccc)" d="M 72 104.612024 
L 80.928 110.501266 
L 89.856 111.597422 
L 98.784 111.632826 
L 107.712 111.636263 
L 116.64 117.734511 
L 125.568 117.735201 
L 134.496 117.735318 
L 143.424 117.735864 
L 152.352 117.736752 
L 161.28 117.73697 
L 170.208 117.73712 
L 179.136 117.737495 
L 188.064 124.331181 
L 196.992 125.373144 
L 205.92 125.377849 
L 214.848 125.380351 
L 223.776 125.381813 
L 232.704 125.382721 
L 241.632 125.383312 
L 250.56 125.383711 
L 259.488 125.383987 
L 268.416 125.384182 
L 277.344 125.384322 
L 286.272 125.384425 
L 295.2 125.384501 
L 304.128 125.384557 
L 313.056 126.705661 
L 321.984 126.71522 
L 330.912 133.730778 
L 339.84 133.735962 
L 348.768 133.736727 
L 357.696 133.737323 
L 366.624 133.737793 
L 375.552 133.738169 
L 384.48 133.738473 
L 393.408 133.73872 
L 402.336 133.738923 
L 411.264 133.73909 
L 420.192 133.73923 
L 429.12 133.739347 
L 438.048 133.739445 
L 446.976 133.739528 
L 455.904 133.739599 
L 464.832 133.739659 
L 473.76 133.739711 
L 482.688 133.739755 
L 491.616 133.739793 
L 500.544 133.739826 
L 509.472 133.739854 
L 518.4 133.739879 
" style="fill:none;stroke:#2ca02c;stroke-linecap:square;stroke-width:1.5;"/>
   </g>
   <g id="line2d_32">
    <path clip-path="url(#p5958b94ccc)" d="M 72 103.989559 
L 80.928 109.147801 
L 89.856 110.16761 
L 98.784 110.336199 
L 107.712 110.763345 
L 116.64 116.226744 
L 125.568 116.238459 
L 134.496 116.238504 
L 143.424 116.69804 
L 152.352 117.178688 
L 161.28 116.299351 
L 170.208 116.804573 
L 179.136 116.806188 
L 188.064 122.561473 
L 196.992 123.149388 
L 205.92 123.149036 
L 214.848 123.734045 
L 223.776 123.734745 
L 232.704 123.736895 
L 241.632 123.234073 
L 250.56 123.23422 
L 259.488 123.234381 
L 268.416 123.23433 
L 277.344 123.234283 
L 286.272 123.236697 
L 295.2 123.889086 
L 304.128 123.887191 
L 313.056 123.887152 
L 321.984 123.887117 
L 330.912 129.964976 
L 339.84 129.965905 
L 348.768 129.965776 
L 357.696 130.619692 
L 366.624 130.619944 
L 375.552 131.308093 
L 384.48 131.310033 
L 393.408 131.310255 
L 402.336 131.310465 
L 411.264 131.310661 
L 420.192 131.310846 
L 429.12 131.311023 
L 438.048 131.311259 
L 446.976 130.765765 
L 455.904 130.765744 
L 464.832 130.765724 
L 473.76 130.766 
L 482.688 130.765982 
L 491.616 130.765965 
L 500.544 130.768903 
L 509.472 130.768889 
L 518.4 130.768875 
" style="fill:none;stroke:#d62728;stroke-linecap:square;stroke-width:1.5;"/>
   </g>
   <g id="line2d_33">
    <path clip-path="url(#p5958b94ccc)" d="M 72 103.447523 
L 80.928 108.436991 
L 89.856 109.538088 
L 98.784 108.880786 
L 107.712 109.802506 
L 116.64 115.705732 
L 125.568 115.774611 
L 134.496 115.769134 
L 143.424 116.756485 
L 152.352 116.764749 
L 161.28 115.907488 
L 170.208 115.882922 
L 179.136 115.911751 
L 188.064 99.453196 
L 196.992 99.453196 
L 205.92 99.453196 
L 214.848 99.453196 
L 223.776 99.453196 
L 232.704 99.453196 
L 241.632 99.453196 
L 250.56 99.453196 
L 259.488 99.453196 
L 268.416 99.453196 
L 277.344 99.453196 
L 286.272 99.453196 
L 295.2 99.453196 
L 304.128 99.453196 
L 313.056 99.453196 
L 321.984 99.453196 
L 330.912 99.453196 
L 339.84 99.453196 
L 348.768 99.453196 
L 357.696 99.453196 
L 366.624 99.453196 
L 375.552 99.453196 
L 384.48 99.453196 
L 393.408 99.453196 
L 402.336 99.453196 
L 411.264 99.453196 
L 420.192 99.453196 
L 429.12 99.453196 
L 438.048 99.453196 
L 446.976 99.453196 
L 455.904 99.453196 
L 464.832 99.453196 
L 473.76 99.453196 
L 482.688 99.453196 
L 491.616 99.453196 
L 500.544 99.453196 
L 509.472 99.453196 
L 518.4 99.453196 
" style="fill:none;stroke:#9467bd;stroke-linecap:square;stroke-width:1.5;"/>
   </g>
   <g id="line2d_34">
    <path clip-path="url(#p5958b94ccc)" d="M 72 103.370566 
L 80.928 109.496879 
L 89.856 110.650315 
L 98.784 110.088742 
L 107.712 111.190933 
L 116.64 117.283845 
L 125.568 117.407854 
L 134.496 117.450831 
L 143.424 118.413656 
L 152.352 118.52893 
L 161.28 117.803909 
L 170.208 117.806178 
L 179.136 117.890146 
L 188.064 124.764415 
L 196.992 124.795618 
L 205.92 124.797006 
L 214.848 125.658118 
L 223.776 125.724604 
L 232.704 125.793896 
L 241.632 125.009868 
L 250.56 125.014941 
L 259.488 125.022067 
L 268.416 125.024339 
L 277.344 125.023165 
L 286.272 125.075184 
L 295.2 125.08073 
L 304.128 125.036168 
L 313.056 125.035636 
L 321.984 125.03544 
L 330.912 132.101801 
L 339.84 132.099794 
L 348.768 132.086785 
L 357.696 132.886218 
L 366.624 132.91938 
L 375.552 132.950733 
L 384.48 132.978623 
L 393.408 133.004798 
L 402.336 133.030318 
L 411.264 133.056307 
L 420.192 133.076431 
L 429.12 133.098746 
L 438.048 133.114081 
L 446.976 132.167412 
L 455.904 132.164701 
L 464.832 132.162255 
L 473.76 132.164744 
L 482.688 132.162819 
L 491.616 132.160019 
L 500.544 132.20498 
L 509.472 132.205842 
L 518.4 132.206914 
" style="fill:none;stroke:#8c564b;stroke-linecap:square;stroke-width:1.5;"/>
   </g>
   <g id="line2d_35">
    <path clip-path="url(#p5958b94ccc)" d="M 72 108.709363 
L 80.928 111.326493 
L 89.856 111.374998 
L 98.784 110.687676 
L 107.712 111.497221 
L 116.64 112.741867 
L 125.568 112.825488 
L 134.496 112.834649 
L 143.424 113.335543 
L 152.352 113.21319 
L 161.28 112.885258 
L 170.208 112.711089 
L 179.136 112.907295 
L 188.064 113.368294 
L 196.992 113.406575 
L 205.92 113.396624 
L 214.848 113.540704 
L 223.776 113.55041 
L 232.704 113.558115 
L 241.632 113.420368 
L 250.56 113.304144 
L 259.488 113.441629 
L 268.416 113.429938 
L 277.344 113.436989 
L 286.272 113.555808 
L 295.2 113.527889 
L 304.128 113.436703 
L 313.056 113.390911 
L 321.984 113.44223 
L 330.912 113.578912 
L 339.84 113.594047 
L 348.768 113.577718 
L 357.696 113.606057 
L 366.624 113.613857 
L 375.552 113.633095 
L 384.48 113.623031 
L 393.408 113.599694 
L 402.336 113.634051 
L 411.264 113.634803 
L 420.192 113.634181 
L 429.12 113.649134 
L 438.048 113.61951 
L 446.976 113.571533 
L 455.904 113.535683 
L 464.832 113.533993 
L 473.76 113.595114 
L 482.688 113.60163 
L 491.616 113.603743 
L 500.544 113.637389 
L 509.472 113.640183 
L 518.4 113.634729 
" style="fill:none;stroke:#e377c2;stroke-linecap:square;stroke-width:1.5;"/>
   </g>
   <g id="patch_3">
    <path d="M 72 384.48 
L 72 51.84 
" style="fill:none;stroke:#000000;stroke-linecap:square;stroke-linejoin:miter;stroke-width:0.8;"/>
   </g>
   <g id="patch_4">
    <path d="M 518.4 384.48 
L 518.4 51.84 
" style="fill:none;stroke:#000000;stroke-linecap:square;stroke-linejoin:miter;stroke-width:0.8;"/>
   </g>
   <g id="patch_5">
    <path d="M 72 384.48 
L 518.4 384.48 
" style="fill:none;stroke:#000000;stroke-linecap:square;stroke-linejoin:miter;stroke-width:0.8;"/>
   </g>
   <g id="patch_6">
    <path d="M 72 51.84 
L 518.4 51.84 
" style="fill:none;stroke:#000000;stroke-linecap:square;stroke-linejoin:miter;stroke-width:0.8;"/>
   </g>
   <g id="legend_1">
    <g id="patch_7">
     <path d="M 79 379.48 
L 165.804688 379.48 
Q 167.804688 379.48 167.804688 377.48 
L 167.804688 275.733125 
Q 167.804688 273.733125 165.804688 273.733125 
L 79 273.733125 
Q 77 273.733125 77 275.733125 
L 77 377.48 
Q 77 379.48 79 379.48 
z
" style="fill:#ffffff;opacity:0.8;stroke:#cccccc;stroke-linejoin:miter;"/>
    </g>
    <g id="line2d_36">
     <path d="M 81 281.831563 
L 101 281.831563 
" style="fill:none;stroke:#1f77b4;stroke-linecap:square;stroke-width:1.5;"/>
    </g>
    <g id="line2d_37"/>
    <g id="text_17">
     <!-- Constant -->
     <defs>
      <path d="M 64.40625 67.28125 
L 64.40625 56.890625 
Q 59.421875 61.53125 53.78125 63.8125 
Q 48.140625 66.109375 41.796875 66.109375 
Q 29.296875 66.109375 22.65625 58.46875 
Q 16.015625 50.828125 16.015625 36.375 
Q 16.015625 21.96875 22.65625 14.328125 
Q 29.296875 6.6875 41.796875 6.6875 
Q 48.140625 6.6875 53.78125 8.984375 
Q 59.421875 11.28125 64.40625 15.921875 
L 64.40625 5.609375 
Q 59.234375 2.09375 53.4375 0.328125 
Q 47.65625 -1.421875 41.21875 -1.421875 
Q 24.65625 -1.421875 15.125 8.703125 
Q 5.609375 18.84375 5.609375 36.375 
Q 5.609375 53.953125 15.125 64.078125 
Q 24.65625 74.21875 41.21875 74.21875 
Q 47.75 74.21875 53.53125 72.484375 
Q 59.328125 70.75 64.40625 67.28125 
z
" id="DejaVuSans-67"/>
      <path d="M 44.28125 53.078125 
L 44.28125 44.578125 
Q 40.484375 46.53125 36.375 47.5 
Q 32.28125 48.484375 27.875 48.484375 
Q 21.1875 48.484375 17.84375 46.4375 
Q 14.5 44.390625 14.5 40.28125 
Q 14.5 37.15625 16.890625 35.375 
Q 19.28125 33.59375 26.515625 31.984375 
L 29.59375 31.296875 
Q 39.15625 29.25 43.1875 25.515625 
Q 47.21875 21.78125 47.21875 15.09375 
Q 47.21875 7.46875 41.1875 3.015625 
Q 35.15625 -1.421875 24.609375 -1.421875 
Q 20.21875 -1.421875 15.453125 -0.5625 
Q 10.6875 0.296875 5.421875 2 
L 5.421875 11.28125 
Q 10.40625 8.6875 15.234375 7.390625 
Q 20.0625 6.109375 24.8125 6.109375 
Q 31.15625 6.109375 34.5625 8.28125 
Q 37.984375 10.453125 37.984375 14.40625 
Q 37.984375 18.0625 35.515625 20.015625 
Q 33.0625 21.96875 24.703125 23.78125 
L 21.578125 24.515625 
Q 13.234375 26.265625 9.515625 29.90625 
Q 5.8125 33.546875 5.8125 39.890625 
Q 5.8125 47.609375 11.28125 51.796875 
Q 16.75 56 26.8125 56 
Q 31.78125 56 36.171875 55.265625 
Q 40.578125 54.546875 44.28125 53.078125 
z
" id="DejaVuSans-115"/>
     </defs>
     <g transform="translate(109 285.331563)scale(0.1 -0.1)">
      <use xlink:href="#DejaVuSans-67"/>
      <use x="69.824219" xlink:href="#DejaVuSans-111"/>
      <use x="131.005859" xlink:href="#DejaVuSans-110"/>
      <use x="194.384766" xlink:href="#DejaVuSans-115"/>
      <use x="246.484375" xlink:href="#DejaVuSans-116"/>
      <use x="285.693359" xlink:href="#DejaVuSans-97"/>
      <use x="346.972656" xlink:href="#DejaVuSans-110"/>
      <use x="410.351562" xlink:href="#DejaVuSans-116"/>
     </g>
    </g>
    <g id="line2d_38">
     <path d="M 81 296.509688 
L 101 296.509688 
" style="fill:none;stroke:#ff7f0e;stroke-linecap:square;stroke-width:1.5;"/>
    </g>
    <g id="line2d_39"/>
    <g id="text_18">
     <!-- RBF -->
     <defs>
      <path d="M 44.390625 34.1875 
Q 47.5625 33.109375 50.5625 29.59375 
Q 53.5625 26.078125 56.59375 19.921875 
L 66.609375 0 
L 56 0 
L 46.6875 18.703125 
Q 43.0625 26.03125 39.671875 28.421875 
Q 36.28125 30.8125 30.421875 30.8125 
L 19.671875 30.8125 
L 19.671875 0 
L 9.8125 0 
L 9.8125 72.90625 
L 32.078125 72.90625 
Q 44.578125 72.90625 50.734375 67.671875 
Q 56.890625 62.453125 56.890625 51.90625 
Q 56.890625 45.015625 53.6875 40.46875 
Q 50.484375 35.9375 44.390625 34.1875 
z
M 19.671875 64.796875 
L 19.671875 38.921875 
L 32.078125 38.921875 
Q 39.203125 38.921875 42.84375 42.21875 
Q 46.484375 45.515625 46.484375 51.90625 
Q 46.484375 58.296875 42.84375 61.546875 
Q 39.203125 64.796875 32.078125 64.796875 
z
" id="DejaVuSans-82"/>
      <path d="M 19.671875 34.8125 
L 19.671875 8.109375 
L 35.5 8.109375 
Q 43.453125 8.109375 47.28125 11.40625 
Q 51.125 14.703125 51.125 21.484375 
Q 51.125 28.328125 47.28125 31.5625 
Q 43.453125 34.8125 35.5 34.8125 
z
M 19.671875 64.796875 
L 19.671875 42.828125 
L 34.28125 42.828125 
Q 41.5 42.828125 45.03125 45.53125 
Q 48.578125 48.25 48.578125 53.8125 
Q 48.578125 59.328125 45.03125 62.0625 
Q 41.5 64.796875 34.28125 64.796875 
z
M 9.8125 72.90625 
L 35.015625 72.90625 
Q 46.296875 72.90625 52.390625 68.21875 
Q 58.5 63.53125 58.5 54.890625 
Q 58.5 48.1875 55.375 44.234375 
Q 52.25 40.28125 46.1875 39.3125 
Q 53.46875 37.75 57.5 32.78125 
Q 61.53125 27.828125 61.53125 20.40625 
Q 61.53125 10.640625 54.890625 5.3125 
Q 48.25 0 35.984375 0 
L 9.8125 0 
z
" id="DejaVuSans-66"/>
      <path d="M 9.8125 72.90625 
L 51.703125 72.90625 
L 51.703125 64.59375 
L 19.671875 64.59375 
L 19.671875 43.109375 
L 48.578125 43.109375 
L 48.578125 34.8125 
L 19.671875 34.8125 
L 19.671875 0 
L 9.8125 0 
z
" id="DejaVuSans-70"/>
     </defs>
     <g transform="translate(109 300.009688)scale(0.1 -0.1)">
      <use xlink:href="#DejaVuSans-82"/>
      <use x="69.482422" xlink:href="#DejaVuSans-66"/>
      <use x="138.085938" xlink:href="#DejaVuSans-70"/>
     </g>
    </g>
    <g id="line2d_40">
     <path d="M 81 311.187813 
L 101 311.187813 
" style="fill:none;stroke:#2ca02c;stroke-linecap:square;stroke-width:1.5;"/>
    </g>
    <g id="line2d_41"/>
    <g id="text_19">
     <!-- Matrn-1/2 -->
     <defs>
      <path d="M 9.8125 72.90625 
L 24.515625 72.90625 
L 43.109375 23.296875 
L 61.8125 72.90625 
L 76.515625 72.90625 
L 76.515625 0 
L 66.890625 0 
L 66.890625 64.015625 
L 48.09375 14.015625 
L 38.1875 14.015625 
L 19.390625 64.015625 
L 19.390625 0 
L 9.8125 0 
z
" id="DejaVuSans-77"/>
      <path d="M 56.203125 29.59375 
L 56.203125 25.203125 
L 14.890625 25.203125 
Q 15.484375 15.921875 20.484375 11.0625 
Q 25.484375 6.203125 34.421875 6.203125 
Q 39.59375 6.203125 44.453125 7.46875 
Q 49.3125 8.734375 54.109375 11.28125 
L 54.109375 2.78125 
Q 49.265625 0.734375 44.1875 -0.34375 
Q 39.109375 -1.421875 33.890625 -1.421875 
Q 20.796875 -1.421875 13.15625 6.1875 
Q 5.515625 13.8125 5.515625 26.8125 
Q 5.515625 40.234375 12.765625 48.109375 
Q 20.015625 56 32.328125 56 
Q 43.359375 56 49.78125 48.890625 
Q 56.203125 41.796875 56.203125 29.59375 
z
M 47.21875 32.234375 
Q 47.125 39.59375 43.09375 43.984375 
Q 39.0625 48.390625 32.421875 48.390625 
Q 24.90625 48.390625 20.390625 44.140625 
Q 15.875 39.890625 15.1875 32.171875 
z
M 38.53125 79.984375 
L 48.25 79.984375 
L 32.34375 61.625 
L 24.859375 61.625 
z
" id="DejaVuSans-233"/>
      <path d="M 4.890625 31.390625 
L 31.203125 31.390625 
L 31.203125 23.390625 
L 4.890625 23.390625 
z
" id="DejaVuSans-45"/>
      <path d="M 25.390625 72.90625 
L 33.6875 72.90625 
L 8.296875 -9.28125 
L 0 -9.28125 
z
" id="DejaVuSans-47"/>
     </defs>
     <g transform="translate(109 314.687813)scale(0.1 -0.1)">
      <use xlink:href="#DejaVuSans-77"/>
      <use x="86.279297" xlink:href="#DejaVuSans-97"/>
      <use x="147.558594" xlink:href="#DejaVuSans-116"/>
      <use x="186.767578" xlink:href="#DejaVuSans-233"/>
      <use x="248.291016" xlink:href="#DejaVuSans-114"/>
      <use x="287.654297" xlink:href="#DejaVuSans-110"/>
      <use x="351.033203" xlink:href="#DejaVuSans-45"/>
      <use x="387.117188" xlink:href="#DejaVuSans-49"/>
      <use x="450.740234" xlink:href="#DejaVuSans-47"/>
      <use x="484.431641" xlink:href="#DejaVuSans-50"/>
     </g>
    </g>
    <g id="line2d_42">
     <path d="M 81 325.865938 
L 101 325.865938 
" style="fill:none;stroke:#d62728;stroke-linecap:square;stroke-width:1.5;"/>
    </g>
    <g id="line2d_43"/>
    <g id="text_20">
     <!-- Matrn-3/2 -->
     <g transform="translate(109 329.365938)scale(0.1 -0.1)">
      <use xlink:href="#DejaVuSans-77"/>
      <use x="86.279297" xlink:href="#DejaVuSans-97"/>
      <use x="147.558594" xlink:href="#DejaVuSans-116"/>
      <use x="186.767578" xlink:href="#DejaVuSans-233"/>
      <use x="248.291016" xlink:href="#DejaVuSans-114"/>
      <use x="287.654297" xlink:href="#DejaVuSans-110"/>
      <use x="351.033203" xlink:href="#DejaVuSans-45"/>
      <use x="387.117188" xlink:href="#DejaVuSans-51"/>
      <use x="450.740234" xlink:href="#DejaVuSans-47"/>
      <use x="484.431641" xlink:href="#DejaVuSans-50"/>
     </g>
    </g>
    <g id="line2d_44">
     <path d="M 81 340.544062 
L 101 340.544062 
" style="fill:none;stroke:#9467bd;stroke-linecap:square;stroke-width:1.5;"/>
    </g>
    <g id="line2d_45"/>
    <g id="text_21">
     <!-- Matrn-5/2 -->
     <g transform="translate(109 344.044062)scale(0.1 -0.1)">
      <use xlink:href="#DejaVuSans-77"/>
      <use x="86.279297" xlink:href="#DejaVuSans-97"/>
      <use x="147.558594" xlink:href="#DejaVuSans-116"/>
      <use x="186.767578" xlink:href="#DejaVuSans-233"/>
      <use x="248.291016" xlink:href="#DejaVuSans-114"/>
      <use x="287.654297" xlink:href="#DejaVuSans-110"/>
      <use x="351.033203" xlink:href="#DejaVuSans-45"/>
      <use x="387.117188" xlink:href="#DejaVuSans-53"/>
      <use x="450.740234" xlink:href="#DejaVuSans-47"/>
      <use x="484.431641" xlink:href="#DejaVuSans-50"/>
     </g>
    </g>
    <g id="line2d_46">
     <path d="M 81 355.222188 
L 101 355.222188 
" style="fill:none;stroke:#8c564b;stroke-linecap:square;stroke-width:1.5;"/>
    </g>
    <g id="line2d_47"/>
    <g id="text_22">
     <!-- RQ -->
     <defs>
      <path d="M 39.40625 66.21875 
Q 28.65625 66.21875 22.328125 58.203125 
Q 16.015625 50.203125 16.015625 36.375 
Q 16.015625 22.609375 22.328125 14.59375 
Q 28.65625 6.59375 39.40625 6.59375 
Q 50.140625 6.59375 56.421875 14.59375 
Q 62.703125 22.609375 62.703125 36.375 
Q 62.703125 50.203125 56.421875 58.203125 
Q 50.140625 66.21875 39.40625 66.21875 
z
M 53.21875 1.3125 
L 66.21875 -12.890625 
L 54.296875 -12.890625 
L 43.5 -1.21875 
Q 41.890625 -1.3125 41.03125 -1.359375 
Q 40.1875 -1.421875 39.40625 -1.421875 
Q 24.03125 -1.421875 14.8125 8.859375 
Q 5.609375 19.140625 5.609375 36.375 
Q 5.609375 53.65625 14.8125 63.9375 
Q 24.03125 74.21875 39.40625 74.21875 
Q 54.734375 74.21875 63.90625 63.9375 
Q 73.09375 53.65625 73.09375 36.375 
Q 73.09375 23.6875 67.984375 14.640625 
Q 62.890625 5.609375 53.21875 1.3125 
z
" id="DejaVuSans-81"/>
     </defs>
     <g transform="translate(109 358.722188)scale(0.1 -0.1)">
      <use xlink:href="#DejaVuSans-82"/>
      <use x="69.482422" xlink:href="#DejaVuSans-81"/>
     </g>
    </g>
    <g id="line2d_48">
     <path d="M 81 369.900313 
L 101 369.900313 
" style="fill:none;stroke:#e377c2;stroke-linecap:square;stroke-width:1.5;"/>
    </g>
    <g id="line2d_49"/>
    <g id="text_23">
     <!-- Dot Prod. -->
     <defs>
      <path d="M 19.671875 64.796875 
L 19.671875 8.109375 
L 31.59375 8.109375 
Q 46.6875 8.109375 53.6875 14.9375 
Q 60.6875 21.78125 60.6875 36.53125 
Q 60.6875 51.171875 53.6875 57.984375 
Q 46.6875 64.796875 31.59375 64.796875 
z
M 9.8125 72.90625 
L 30.078125 72.90625 
Q 51.265625 72.90625 61.171875 64.09375 
Q 71.09375 55.28125 71.09375 36.53125 
Q 71.09375 17.671875 61.125 8.828125 
Q 51.171875 0 30.078125 0 
L 9.8125 0 
z
" id="DejaVuSans-68"/>
      <path d="M 19.671875 64.796875 
L 19.671875 37.40625 
L 32.078125 37.40625 
Q 38.96875 37.40625 42.71875 40.96875 
Q 46.484375 44.53125 46.484375 51.125 
Q 46.484375 57.671875 42.71875 61.234375 
Q 38.96875 64.796875 32.078125 64.796875 
z
M 9.8125 72.90625 
L 32.078125 72.90625 
Q 44.34375 72.90625 50.609375 67.359375 
Q 56.890625 61.8125 56.890625 51.125 
Q 56.890625 40.328125 50.609375 34.8125 
Q 44.34375 29.296875 32.078125 29.296875 
L 19.671875 29.296875 
L 19.671875 0 
L 9.8125 0 
z
" id="DejaVuSans-80"/>
      <path d="M 10.6875 12.40625 
L 21 12.40625 
L 21 0 
L 10.6875 0 
z
" id="DejaVuSans-46"/>
     </defs>
     <g transform="translate(109 373.400313)scale(0.1 -0.1)">
      <use xlink:href="#DejaVuSans-68"/>
      <use x="77.001953" xlink:href="#DejaVuSans-111"/>
      <use x="138.183594" xlink:href="#DejaVuSans-116"/>
      <use x="177.392578" xlink:href="#DejaVuSans-32"/>
      <use x="209.179688" xlink:href="#DejaVuSans-80"/>
      <use x="267.732422" xlink:href="#DejaVuSans-114"/>
      <use x="306.595703" xlink:href="#DejaVuSans-111"/>
      <use x="367.777344" xlink:href="#DejaVuSans-100"/>
      <use x="431.253906" xlink:href="#DejaVuSans-46"/>
     </g>
    </g>
   </g>
  </g>
 </g>
 <defs>
  <clipPath id="p5958b94ccc">
   <rect height="332.64" width="446.4" x="72" y="51.84"/>
  </clipPath>
 </defs>
</svg>
