<?xml version="1.0" encoding="utf-8" standalone="no"?>
<!DOCTYPE svg PUBLIC "-//W3C//DTD SVG 1.1//EN"
  "http://www.w3.org/Graphics/SVG/1.1/DTD/svg11.dtd">
<!-- Created with matplotlib (https://matplotlib.org/) -->
<svg height="432pt" version="1.1" viewBox="0 0 576 432" width="576pt" xmlns="http://www.w3.org/2000/svg" xmlns:xlink="http://www.w3.org/1999/xlink">
 <defs>
  <style type="text/css">
*{stroke-linecap:butt;stroke-linejoin:round;}
  </style>
 </defs>
 <g id="figure_1">
  <g id="patch_1">
   <path d="M 0 432 
L 576 432 
L 576 0 
L 0 0 
z
" style="fill:#ffffff;"/>
  </g>
  <g id="axes_1">
   <g id="patch_2">
    <path d="M 72 384.48 
L 518.4 384.48 
L 518.4 51.84 
L 72 51.84 
z
" style="fill:#ffffff;"/>
   </g>
   <g id="PolyCollection_1">
    <path clip-path="url(#p5b6849e186)" d="M 80.928 243.349107 
L 80.928 228.32667 
L 89.856 230.026117 
L 98.784 -25.226943 
L 98.784 210.367439 
L 98.784 210.367439 
L 89.856 274.073156 
L 80.928 243.349107 
z
" style="fill:#1f77b4;fill-opacity:0.3;"/>
    <path clip-path="url(#p5b6849e186)" d="M 116.64 339.385586 
L 116.64 255.67786 
L 125.568 -3.871522 
L 134.496 347.390702 
L 143.424 -22.071996 
L 143.424 169.408085 
L 143.424 169.408085 
L 134.496 347.799323 
L 125.568 -3.871522 
L 116.64 339.385586 
z
" style="fill:#1f77b4;fill-opacity:0.3;"/>
    <path clip-path="url(#p5b6849e186)" d="M 161.28 -23.179746 
L 161.28 -33.483837 
L 170.208 -32.602861 
L 179.136 -40.250346 
L 188.064 -27.107617 
L 196.992 -35.273411 
L 196.992 -35.273411 
L 196.992 -35.273411 
L 188.064 207.146752 
L 179.136 199.127186 
L 170.208 198.526346 
L 161.28 -23.179746 
z
" style="fill:#1f77b4;fill-opacity:0.3;"/>
    <path clip-path="url(#p5b6849e186)" d="M 232.704 198.706619 
L 232.704 -14.25094 
L 241.632 355.008644 
L 250.56 355.446624 
L 259.488 355.86944 
L 268.416 -43.102987 
L 277.344 -53.75276 
L 286.272 357.038731 
L 295.2 357.39667 
L 304.128 357.751171 
L 313.056 358.079699 
L 321.984 -58.055522 
L 330.912 -32.449345 
L 339.84 -32.431992 
L 348.768 359.338325 
L 348.768 359.343744 
L 348.768 359.343744 
L 339.84 8.901183 
L 330.912 -13.931117 
L 321.984 350.083169 
L 313.056 358.091802 
L 304.128 357.757245 
L 295.2 357.400421 
L 286.272 357.039094 
L 277.344 348.449691 
L 268.416 -18.905636 
L 259.488 355.871464 
L 250.56 355.450291 
L 241.632 355.012102 
L 232.704 198.706619 
z
" style="fill:#1f77b4;fill-opacity:0.3;"/>
    <path clip-path="url(#p5b6849e186)" d="M 366.624 -38.958267 
L 366.624 -38.958267 
L 375.552 360.188379 
L 384.48 -40.930504 
L 384.48 -29.227007 
L 384.48 -29.227007 
L 375.552 360.203669 
L 366.624 -38.958267 
z
" style="fill:#1f77b4;fill-opacity:0.3;"/>
    <path clip-path="url(#p5b6849e186)" d="M 402.336 352.456999 
L 402.336 -63.485696 
L 411.264 -29.747024 
L 420.192 -52.482656 
L 429.12 -53.243209 
L 438.048 -48.546874 
L 446.976 -54.669425 
L 455.904 362.360901 
L 455.904 362.414696 
L 455.904 362.414696 
L 446.976 353.840117 
L 438.048 -48.546874 
L 429.12 353.373184 
L 420.192 353.175383 
L 411.264 369.078256 
L 402.336 352.456999 
z
" style="fill:#1f77b4;fill-opacity:0.3;"/>
    <path clip-path="url(#p5b6849e186)" d="M 473.76 362.872479 
L 473.76 362.827738 
L 482.688 -48.905448 
L 491.616 -59.020903 
L 500.544 -51.967949 
L 509.472 -46.655147 
L 509.472 371.844935 
L 509.472 371.844935 
L 500.544 -51.967949 
L 491.616 354.776854 
L 482.688 354.776063 
L 473.76 362.872479 
z
" style="fill:#1f77b4;fill-opacity:0.3;"/>
   </g>
   <g id="PolyCollection_2">
    <path clip-path="url(#p5b6849e186)" d="M 72 158.984564 
L 72 114.131224 
L 80.928 104.431533 
L 89.856 114.408305 
L 98.784 106.417233 
L 107.712 72.713102 
L 116.64 85.137854 
L 125.568 85.148251 
L 134.496 85.148251 
L 143.424 85.148251 
L 152.352 85.148251 
L 161.28 85.148251 
L 170.208 85.148251 
L 179.136 85.148251 
L 188.064 85.148251 
L 196.992 85.148251 
L 205.92 85.148251 
L 214.848 85.148251 
L 223.776 85.148251 
L 232.704 85.148251 
L 241.632 85.148251 
L 250.56 85.148251 
L 259.488 85.148251 
L 268.416 85.148251 
L 277.344 85.148251 
L 286.272 85.148251 
L 295.2 85.148251 
L 304.128 85.148251 
L 313.056 85.148251 
L 321.984 85.148251 
L 330.912 85.148251 
L 339.84 85.148251 
L 348.768 85.148251 
L 357.696 85.148251 
L 366.624 85.148251 
L 375.552 85.148251 
L 384.48 85.148251 
L 393.408 85.148251 
L 402.336 85.148251 
L 411.264 85.148251 
L 420.192 85.148251 
L 429.12 85.148251 
L 438.048 85.148251 
L 446.976 85.148251 
L 455.904 85.148251 
L 464.832 85.148251 
L 473.76 85.148251 
L 482.688 85.148251 
L 491.616 85.148251 
L 500.544 85.148251 
L 509.472 85.148251 
L 518.4 85.148251 
L 518.4 85.148251 
L 518.4 85.148251 
L 509.472 85.148251 
L 500.544 85.148251 
L 491.616 85.148251 
L 482.688 85.148251 
L 473.76 85.148251 
L 464.832 85.148251 
L 455.904 85.148251 
L 446.976 85.148251 
L 438.048 85.148251 
L 429.12 85.148251 
L 420.192 85.148251 
L 411.264 85.148251 
L 402.336 85.148251 
L 393.408 85.148251 
L 384.48 85.148251 
L 375.552 85.148251 
L 366.624 85.148251 
L 357.696 85.148251 
L 348.768 85.148251 
L 339.84 85.148251 
L 330.912 85.148251 
L 321.984 85.148251 
L 313.056 85.148251 
L 304.128 85.148251 
L 295.2 85.148251 
L 286.272 85.148251 
L 277.344 85.148251 
L 268.416 85.148251 
L 259.488 85.148251 
L 250.56 85.148251 
L 241.632 85.148251 
L 232.704 85.148251 
L 223.776 85.148251 
L 214.848 85.148251 
L 205.92 85.148251 
L 196.992 85.148251 
L 188.064 85.148251 
L 179.136 85.148251 
L 170.208 85.148251 
L 161.28 85.148251 
L 152.352 85.148251 
L 143.424 85.148251 
L 134.496 85.148251 
L 125.568 85.148251 
L 116.64 85.137854 
L 107.712 103.943775 
L 98.784 161.476747 
L 89.856 161.951523 
L 80.928 143.108688 
L 72 158.984564 
z
" style="fill:#ff7f0e;fill-opacity:0.3;"/>
   </g>
   <g id="PolyCollection_3">
    <path clip-path="url(#p5b6849e186)" d="M 72 120.243777 
L 72 100.2574 
L 80.928 102.921255 
L 89.856 109.074225 
L 98.784 112.218701 
L 107.712 114.938244 
L 116.64 113.041906 
L 125.568 115.806146 
L 134.496 117.243352 
L 143.424 118.607543 
L 152.352 119.899741 
L 161.28 121.173919 
L 170.208 122.452189 
L 179.136 123.786887 
L 188.064 120.001573 
L 196.992 123.461544 
L 205.92 124.326966 
L 214.848 125.15016 
L 223.776 125.948187 
L 232.704 126.731599 
L 241.632 127.491066 
L 250.56 128.228178 
L 259.488 128.969273 
L 268.416 129.703686 
L 277.344 130.434712 
L 286.272 131.176228 
L 295.2 131.912081 
L 304.128 132.64356 
L 313.056 136.607727 
L 321.984 137.546205 
L 330.912 133.021438 
L 339.84 134.000628 
L 348.768 134.50417 
L 357.696 134.994123 
L 366.624 135.479859 
L 375.552 135.951703 
L 384.48 136.420749 
L 393.408 136.885862 
L 402.336 137.345658 
L 411.264 137.797805 
L 420.192 138.240504 
L 429.12 138.684937 
L 438.048 139.126174 
L 446.976 139.567575 
L 455.904 140.006779 
L 464.832 140.442894 
L 473.76 140.877219 
L 482.688 141.310331 
L 491.616 141.744218 
L 500.544 142.17972 
L 509.472 142.615021 
L 518.4 143.052331 
L 518.4 152.019126 
L 518.4 152.019126 
L 509.472 151.5896 
L 500.544 151.163123 
L 491.616 150.736639 
L 482.688 150.313184 
L 473.76 149.891581 
L 464.832 149.469258 
L 455.904 149.045631 
L 446.976 148.619076 
L 438.048 148.191289 
L 429.12 147.766154 
L 420.192 147.339036 
L 411.264 146.917728 
L 402.336 146.48606 
L 393.408 146.04715 
L 384.48 145.605076 
L 375.552 145.162579 
L 366.624 144.722109 
L 357.696 144.268077 
L 348.768 143.815971 
L 339.84 143.353205 
L 330.912 142.412639 
L 321.984 149.724618 
L 313.056 148.839372 
L 304.128 150.226939 
L 295.2 149.291136 
L 286.272 148.348946 
L 277.344 147.399469 
L 268.416 146.468752 
L 259.488 145.536678 
L 250.56 144.599854 
L 241.632 143.676211 
L 232.704 142.728336 
L 223.776 141.75703 
L 214.848 140.781251 
L 205.92 139.792698 
L 196.992 138.779166 
L 188.064 137.917291 
L 179.136 144.011334 
L 170.208 142.02036 
L 161.28 140.123935 
L 152.352 138.236107 
L 143.424 136.32511 
L 134.496 134.304999 
L 125.568 132.184033 
L 116.64 128.190984 
L 107.712 132.544386 
L 98.784 128.982035 
L 89.856 125.346045 
L 80.928 119.650518 
L 72 120.243777 
z
" style="fill:#2ca02c;fill-opacity:0.3;"/>
   </g>
   <g id="PolyCollection_4">
    <path clip-path="url(#p5b6849e186)" d="M 72 137.444196 
L 72 99.868011 
L 80.928 102.152762 
L 89.856 111.215244 
L 98.784 115.537057 
L 107.712 119.502552 
L 116.64 114.101663 
L 125.568 120.989901 
L 134.496 123.103738 
L 143.424 124.109624 
L 152.352 128.896809 
L 161.28 127.360304 
L 170.208 132.023301 
L 179.136 134.461344 
L 188.064 122.577266 
L 196.992 129.908898 
L 205.92 131.030114 
L 214.848 130.805409 
L 223.776 131.921691 
L 232.704 132.98053 
L 241.632 132.688461 
L 250.56 133.914072 
L 259.488 135.081764 
L 268.416 136.371777 
L 277.344 137.42496 
L 286.272 138.471987 
L 295.2 143.884673 
L 304.128 145.238018 
L 313.056 146.699459 
L 321.984 148.398482 
L 330.912 132.850167 
L 339.84 135.50094 
L 348.768 136.049137 
L 357.696 135.160843 
L 366.624 135.70902 
L 375.552 140.650395 
L 384.48 141.237937 
L 393.408 141.829039 
L 402.336 142.412289 
L 411.264 143.027211 
L 420.192 143.625388 
L 429.12 144.224189 
L 438.048 144.899435 
L 446.976 144.003692 
L 455.904 144.640913 
L 464.832 145.313226 
L 473.76 145.996303 
L 482.688 146.710644 
L 491.616 147.267735 
L 500.544 147.823614 
L 509.472 148.410124 
L 518.4 148.992045 
L 518.4 181.766082 
L 518.4 181.766082 
L 509.472 180.885815 
L 500.544 179.998396 
L 491.616 179.157586 
L 482.688 178.31477 
L 473.76 177.234921 
L 464.832 176.202233 
L 455.904 175.185412 
L 446.976 174.221883 
L 438.048 175.57538 
L 429.12 174.553899 
L 420.192 173.648351 
L 411.264 172.743624 
L 402.336 171.813607 
L 393.408 170.931925 
L 384.48 170.038053 
L 375.552 169.149401 
L 366.624 169.895384 
L 357.696 168.976512 
L 348.768 170.473428 
L 339.84 169.554774 
L 330.912 165.176404 
L 321.984 181.455377 
L 313.056 178.914753 
L 304.128 176.741788 
L 295.2 174.724032 
L 286.272 174.698678 
L 277.344 172.949783 
L 268.416 171.188961 
L 259.488 169.037524 
L 250.56 167.092743 
L 241.632 165.045112 
L 232.704 165.51976 
L 223.776 163.756342 
L 214.848 161.89401 
L 205.92 162.363661 
L 196.992 160.502597 
L 188.064 154.112859 
L 179.136 169.173507 
L 170.208 165.241509 
L 161.28 163.05454 
L 152.352 160.143618 
L 143.424 157.310799 
L 134.496 155.711354 
L 125.568 151.968852 
L 116.64 140.308916 
L 107.712 152.60703 
L 98.784 146.992313 
L 89.856 142.672425 
L 80.928 129.534981 
L 72 137.444196 
z
" style="fill:#d62728;fill-opacity:0.3;"/>
   </g>
   <g id="PolyCollection_5">
    <path clip-path="url(#p5b6849e186)" d="M 72 144.235037 
L 72 107.761477 
L 80.928 105.830691 
L 89.856 117.493632 
L 98.784 120.434157 
L 107.712 123.584019 
L 116.64 114.391081 
L 125.568 124.68009 
L 134.496 127.527279 
L 143.424 127.416916 
L 152.352 130.326027 
L 161.28 130.612547 
L 170.208 132.710099 
L 179.136 135.000875 
L 188.064 85.148251 
L 196.992 85.148251 
L 205.92 85.148251 
L 214.848 85.148251 
L 223.776 85.148251 
L 232.704 85.148251 
L 241.632 85.148251 
L 250.56 85.148251 
L 259.488 85.148251 
L 268.416 85.148251 
L 277.344 85.148251 
L 286.272 85.148251 
L 295.2 85.148251 
L 304.128 85.148251 
L 313.056 85.148251 
L 321.984 85.148251 
L 330.912 85.148251 
L 339.84 85.148251 
L 348.768 85.148251 
L 357.696 85.148251 
L 366.624 85.148251 
L 375.552 85.148251 
L 384.48 85.148251 
L 393.408 85.148251 
L 402.336 85.148251 
L 411.264 85.148251 
L 420.192 85.148251 
L 429.12 85.148251 
L 438.048 85.148251 
L 446.976 85.148251 
L 455.904 85.148251 
L 464.832 85.148251 
L 473.76 85.148251 
L 482.688 85.148251 
L 491.616 85.148251 
L 500.544 85.148251 
L 509.472 85.148251 
L 518.4 85.148251 
L 518.4 85.148251 
L 518.4 85.148251 
L 509.472 85.148251 
L 500.544 85.148251 
L 491.616 85.148251 
L 482.688 85.148251 
L 473.76 85.148251 
L 464.832 85.148251 
L 455.904 85.148251 
L 446.976 85.148251 
L 438.048 85.148251 
L 429.12 85.148251 
L 420.192 85.148251 
L 411.264 85.148251 
L 402.336 85.148251 
L 393.408 85.148251 
L 384.48 85.148251 
L 375.552 85.148251 
L 366.624 85.148251 
L 357.696 85.148251 
L 348.768 85.148251 
L 339.84 85.148251 
L 330.912 85.148251 
L 321.984 85.148251 
L 313.056 85.148251 
L 304.128 85.148251 
L 295.2 85.148251 
L 286.272 85.148251 
L 277.344 85.148251 
L 268.416 85.148251 
L 259.488 85.148251 
L 250.56 85.148251 
L 241.632 85.148251 
L 232.704 85.148251 
L 223.776 85.148251 
L 214.848 85.148251 
L 205.92 85.148251 
L 196.992 85.148251 
L 188.064 85.148251 
L 179.136 177.311451 
L 170.208 172.932102 
L 161.28 169.032068 
L 152.352 168.42964 
L 143.424 163.264509 
L 134.496 163.65604 
L 125.568 158.569746 
L 116.64 142.509996 
L 107.712 158.92551 
L 98.784 153.776879 
L 89.856 149.053828 
L 80.928 132.151467 
L 72 144.235037 
z
" style="fill:#9467bd;fill-opacity:0.3;"/>
   </g>
   <g id="PolyCollection_6">
    <path clip-path="url(#p5b6849e186)" d="M 72 145.781182 
L 72 105.155365 
L 80.928 106.590033 
L 89.856 120.049708 
L 98.784 125.269166 
L 107.712 130.153521 
L 116.64 123.090627 
L 125.568 131.533783 
L 134.496 136.655736 
L 143.424 137.078593 
L 152.352 141.250714 
L 161.28 141.798418 
L 170.208 145.363823 
L 179.136 149.160468 
L 188.064 135.230059 
L 196.992 140.893532 
L 205.92 144.107327 
L 214.848 141.709929 
L 223.776 144.146965 
L 232.704 146.605229 
L 241.632 144.926671 
L 250.56 147.000543 
L 259.488 149.361645 
L 268.416 152.057892 
L 277.344 154.301214 
L 286.272 156.167129 
L 295.2 158.504135 
L 304.128 160.53794 
L 313.056 163.144122 
L 321.984 166.063984 
L 330.912 147.155751 
L 339.84 150.689207 
L 348.768 152.491389 
L 357.696 148.898142 
L 366.624 150.281887 
L 375.552 151.653928 
L 384.48 152.968859 
L 393.408 154.334312 
L 402.336 155.718457 
L 411.264 157.160961 
L 420.192 158.540671 
L 429.12 159.976627 
L 438.048 161.334503 
L 446.976 157.415564 
L 455.904 158.69428 
L 464.832 160.055467 
L 473.76 161.470416 
L 482.688 163.004108 
L 491.616 164.246225 
L 500.544 165.109453 
L 509.472 166.362559 
L 518.4 167.629231 
L 518.4 176.875121 
L 518.4 176.875121 
L 509.472 175.472783 
L 500.544 174.076121 
L 491.616 173.254461 
L 482.688 171.854238 
L 473.76 170.030829 
L 464.832 168.365796 
L 455.904 166.770419 
L 446.976 165.291906 
L 438.048 170.892796 
L 429.12 169.327656 
L 420.192 167.65864 
L 411.264 166.110383 
L 402.336 164.390946 
L 393.408 162.799827 
L 384.48 161.239847 
L 375.552 159.766388 
L 366.624 158.20986 
L 357.696 156.645241 
L 348.768 162.593164 
L 339.84 160.42103 
L 330.912 155.775982 
L 321.984 184.369186 
L 313.056 180.710521 
L 304.128 177.457835 
L 295.2 175.066581 
L 286.272 172.146869 
L 277.344 169.946305 
L 268.416 167.129704 
L 259.488 163.626568 
L 250.56 160.626353 
L 241.632 158.066657 
L 232.704 161.574316 
L 223.776 158.428783 
L 214.848 155.282003 
L 205.92 160.129749 
L 196.992 155.744724 
L 188.064 147.849762 
L 179.136 171.065642 
L 170.208 165.95388 
L 161.28 161.247241 
L 152.352 161.527145 
L 143.424 155.709497 
L 134.496 157.809312 
L 125.568 150.247932 
L 116.64 138.043923 
L 107.712 154.560989 
L 98.784 149.743492 
L 89.856 145.398052 
L 80.928 130.590704 
L 72 145.781182 
z
" style="fill:#8c564b;fill-opacity:0.3;"/>
   </g>
   <g id="PolyCollection_7">
    <path clip-path="url(#p5b6849e186)" d="M 72 241.447299 
L 72 215.342552 
L 80.928 212.655926 
L 89.856 193.003564 
L 98.784 209.138373 
L 107.712 189.976002 
L 116.64 173.076123 
L 125.568 184.375266 
L 134.496 183.703051 
L 143.424 203.035782 
L 152.352 202.159089 
L 161.28 193.592541 
L 170.208 173.35577 
L 170.208 256.292671 
L 170.208 256.292671 
L 161.28 230.211266 
L 152.352 229.136694 
L 143.424 238.467478 
L 134.496 264.788178 
L 125.568 237.87098 
L 116.64 254.480489 
L 107.712 254.980055 
L 98.784 250.779734 
L 89.856 246.733861 
L 80.928 243.09167 
L 72 241.447299 
z
" style="fill:#e377c2;fill-opacity:0.3;"/>
    <path clip-path="url(#p5b6849e186)" d="M 188.064 273.252385 
L 188.064 168.128584 
L 196.992 191.262984 
L 205.92 196.098347 
L 214.848 166.645682 
L 214.848 270.978529 
L 214.848 270.978529 
L 205.92 238.113044 
L 196.992 241.354957 
L 188.064 273.252385 
z
" style="fill:#e377c2;fill-opacity:0.3;"/>
    <path clip-path="url(#p5b6849e186)" d="M 232.704 262.376425 
L 232.704 178.46499 
L 232.704 262.376425 
L 232.704 262.376425 
z
" style="fill:#e377c2;fill-opacity:0.3;"/>
    <path clip-path="url(#p5b6849e186)" d="M 250.56 255.81911 
L 250.56 178.130107 
L 250.56 255.81911 
L 250.56 255.81911 
z
" style="fill:#e377c2;fill-opacity:0.3;"/>
    <path clip-path="url(#p5b6849e186)" d="M 268.416 266.69833 
L 268.416 181.930508 
L 277.344 184.38949 
L 277.344 226.818089 
L 277.344 226.818089 
L 268.416 266.69833 
z
" style="fill:#e377c2;fill-opacity:0.3;"/>
    <path clip-path="url(#p5b6849e186)" d="M 339.84 280.914079 
L 339.84 168.549816 
L 348.768 182.943958 
L 348.768 261.830618 
L 348.768 261.830618 
L 339.84 280.914079 
z
" style="fill:#e377c2;fill-opacity:0.3;"/>
    <path clip-path="url(#p5b6849e186)" d="M 393.408 268.055725 
L 393.408 169.32239 
L 393.408 268.055725 
L 393.408 268.055725 
z
" style="fill:#e377c2;fill-opacity:0.3;"/>
    <path clip-path="url(#p5b6849e186)" d="M 438.048 297.547153 
L 438.048 160.295109 
L 438.048 297.547153 
L 438.048 297.547153 
z
" style="fill:#e377c2;fill-opacity:0.3;"/>
    <path clip-path="url(#p5b6849e186)" d="M 491.616 248.021942 
L 491.616 164.028846 
L 500.544 166.868032 
L 500.544 247.100352 
L 500.544 247.100352 
L 491.616 248.021942 
z
" style="fill:#e377c2;fill-opacity:0.3;"/>
    <path clip-path="url(#p5b6849e186)" d="M 518.4 267.259093 
L 518.4 163.969756 
L 518.4 267.259093 
L 518.4 267.259093 
z
" style="fill:#e377c2;fill-opacity:0.3;"/>
   </g>
   <g id="matplotlib.axis_1">
    <g id="xtick_1">
     <g id="line2d_1">
      <path clip-path="url(#p5b6849e186)" d="M 72 384.48 
L 72 51.84 
" style="fill:none;stroke:#b0b0b0;stroke-linecap:square;stroke-width:0.8;"/>
     </g>
     <g id="line2d_2">
      <defs>
       <path d="M 0 0 
L 0 3.5 
" id="me0df1ad70b" style="stroke:#000000;stroke-width:0.8;"/>
      </defs>
      <g>
       <use style="stroke:#000000;stroke-width:0.8;" x="72" xlink:href="#me0df1ad70b" y="384.48"/>
      </g>
     </g>
     <g id="text_1">
      <!-- 0 -->
      <defs>
       <path d="M 31.78125 66.40625 
Q 24.171875 66.40625 20.328125 58.90625 
Q 16.5 51.421875 16.5 36.375 
Q 16.5 21.390625 20.328125 13.890625 
Q 24.171875 6.390625 31.78125 6.390625 
Q 39.453125 6.390625 43.28125 13.890625 
Q 47.125 21.390625 47.125 36.375 
Q 47.125 51.421875 43.28125 58.90625 
Q 39.453125 66.40625 31.78125 66.40625 
z
M 31.78125 74.21875 
Q 44.046875 74.21875 50.515625 64.515625 
Q 56.984375 54.828125 56.984375 36.375 
Q 56.984375 17.96875 50.515625 8.265625 
Q 44.046875 -1.421875 31.78125 -1.421875 
Q 19.53125 -1.421875 13.0625 8.265625 
Q 6.59375 17.96875 6.59375 36.375 
Q 6.59375 54.828125 13.0625 64.515625 
Q 19.53125 74.21875 31.78125 74.21875 
z
" id="DejaVuSans-48"/>
      </defs>
      <g transform="translate(68.81875 399.078438)scale(0.1 -0.1)">
       <use xlink:href="#DejaVuSans-48"/>
      </g>
     </g>
    </g>
    <g id="xtick_2">
     <g id="line2d_3">
      <path clip-path="url(#p5b6849e186)" d="M 161.28 384.48 
L 161.28 51.84 
" style="fill:none;stroke:#b0b0b0;stroke-linecap:square;stroke-width:0.8;"/>
     </g>
     <g id="line2d_4">
      <g>
       <use style="stroke:#000000;stroke-width:0.8;" x="161.28" xlink:href="#me0df1ad70b" y="384.48"/>
      </g>
     </g>
     <g id="text_2">
      <!-- 10 -->
      <defs>
       <path d="M 12.40625 8.296875 
L 28.515625 8.296875 
L 28.515625 63.921875 
L 10.984375 60.40625 
L 10.984375 69.390625 
L 28.421875 72.90625 
L 38.28125 72.90625 
L 38.28125 8.296875 
L 54.390625 8.296875 
L 54.390625 0 
L 12.40625 0 
z
" id="DejaVuSans-49"/>
      </defs>
      <g transform="translate(154.9175 399.078438)scale(0.1 -0.1)">
       <use xlink:href="#DejaVuSans-49"/>
       <use x="63.623047" xlink:href="#DejaVuSans-48"/>
      </g>
     </g>
    </g>
    <g id="xtick_3">
     <g id="line2d_5">
      <path clip-path="url(#p5b6849e186)" d="M 250.56 384.48 
L 250.56 51.84 
" style="fill:none;stroke:#b0b0b0;stroke-linecap:square;stroke-width:0.8;"/>
     </g>
     <g id="line2d_6">
      <g>
       <use style="stroke:#000000;stroke-width:0.8;" x="250.56" xlink:href="#me0df1ad70b" y="384.48"/>
      </g>
     </g>
     <g id="text_3">
      <!-- 20 -->
      <defs>
       <path d="M 19.1875 8.296875 
L 53.609375 8.296875 
L 53.609375 0 
L 7.328125 0 
L 7.328125 8.296875 
Q 12.9375 14.109375 22.625 23.890625 
Q 32.328125 33.6875 34.8125 36.53125 
Q 39.546875 41.84375 41.421875 45.53125 
Q 43.3125 49.21875 43.3125 52.78125 
Q 43.3125 58.59375 39.234375 62.25 
Q 35.15625 65.921875 28.609375 65.921875 
Q 23.96875 65.921875 18.8125 64.3125 
Q 13.671875 62.703125 7.8125 59.421875 
L 7.8125 69.390625 
Q 13.765625 71.78125 18.9375 73 
Q 24.125 74.21875 28.421875 74.21875 
Q 39.75 74.21875 46.484375 68.546875 
Q 53.21875 62.890625 53.21875 53.421875 
Q 53.21875 48.921875 51.53125 44.890625 
Q 49.859375 40.875 45.40625 35.40625 
Q 44.1875 33.984375 37.640625 27.21875 
Q 31.109375 20.453125 19.1875 8.296875 
z
" id="DejaVuSans-50"/>
      </defs>
      <g transform="translate(244.1975 399.078438)scale(0.1 -0.1)">
       <use xlink:href="#DejaVuSans-50"/>
       <use x="63.623047" xlink:href="#DejaVuSans-48"/>
      </g>
     </g>
    </g>
    <g id="xtick_4">
     <g id="line2d_7">
      <path clip-path="url(#p5b6849e186)" d="M 339.84 384.48 
L 339.84 51.84 
" style="fill:none;stroke:#b0b0b0;stroke-linecap:square;stroke-width:0.8;"/>
     </g>
     <g id="line2d_8">
      <g>
       <use style="stroke:#000000;stroke-width:0.8;" x="339.84" xlink:href="#me0df1ad70b" y="384.48"/>
      </g>
     </g>
     <g id="text_4">
      <!-- 30 -->
      <defs>
       <path d="M 40.578125 39.3125 
Q 47.65625 37.796875 51.625 33 
Q 55.609375 28.21875 55.609375 21.1875 
Q 55.609375 10.40625 48.1875 4.484375 
Q 40.765625 -1.421875 27.09375 -1.421875 
Q 22.515625 -1.421875 17.65625 -0.515625 
Q 12.796875 0.390625 7.625 2.203125 
L 7.625 11.71875 
Q 11.71875 9.328125 16.59375 8.109375 
Q 21.484375 6.890625 26.8125 6.890625 
Q 36.078125 6.890625 40.9375 10.546875 
Q 45.796875 14.203125 45.796875 21.1875 
Q 45.796875 27.640625 41.28125 31.265625 
Q 36.765625 34.90625 28.71875 34.90625 
L 20.21875 34.90625 
L 20.21875 43.015625 
L 29.109375 43.015625 
Q 36.375 43.015625 40.234375 45.921875 
Q 44.09375 48.828125 44.09375 54.296875 
Q 44.09375 59.90625 40.109375 62.90625 
Q 36.140625 65.921875 28.71875 65.921875 
Q 24.65625 65.921875 20.015625 65.03125 
Q 15.375 64.15625 9.8125 62.3125 
L 9.8125 71.09375 
Q 15.4375 72.65625 20.34375 73.4375 
Q 25.25 74.21875 29.59375 74.21875 
Q 40.828125 74.21875 47.359375 69.109375 
Q 53.90625 64.015625 53.90625 55.328125 
Q 53.90625 49.265625 50.4375 45.09375 
Q 46.96875 40.921875 40.578125 39.3125 
z
" id="DejaVuSans-51"/>
      </defs>
      <g transform="translate(333.4775 399.078438)scale(0.1 -0.1)">
       <use xlink:href="#DejaVuSans-51"/>
       <use x="63.623047" xlink:href="#DejaVuSans-48"/>
      </g>
     </g>
    </g>
    <g id="xtick_5">
     <g id="line2d_9">
      <path clip-path="url(#p5b6849e186)" d="M 429.12 384.48 
L 429.12 51.84 
" style="fill:none;stroke:#b0b0b0;stroke-linecap:square;stroke-width:0.8;"/>
     </g>
     <g id="line2d_10">
      <g>
       <use style="stroke:#000000;stroke-width:0.8;" x="429.12" xlink:href="#me0df1ad70b" y="384.48"/>
      </g>
     </g>
     <g id="text_5">
      <!-- 40 -->
      <defs>
       <path d="M 37.796875 64.3125 
L 12.890625 25.390625 
L 37.796875 25.390625 
z
M 35.203125 72.90625 
L 47.609375 72.90625 
L 47.609375 25.390625 
L 58.015625 25.390625 
L 58.015625 17.1875 
L 47.609375 17.1875 
L 47.609375 0 
L 37.796875 0 
L 37.796875 17.1875 
L 4.890625 17.1875 
L 4.890625 26.703125 
z
" id="DejaVuSans-52"/>
      </defs>
      <g transform="translate(422.7575 399.078438)scale(0.1 -0.1)">
       <use xlink:href="#DejaVuSans-52"/>
       <use x="63.623047" xlink:href="#DejaVuSans-48"/>
      </g>
     </g>
    </g>
    <g id="xtick_6">
     <g id="line2d_11">
      <path clip-path="url(#p5b6849e186)" d="M 518.4 384.48 
L 518.4 51.84 
" style="fill:none;stroke:#b0b0b0;stroke-linecap:square;stroke-width:0.8;"/>
     </g>
     <g id="line2d_12">
      <g>
       <use style="stroke:#000000;stroke-width:0.8;" x="518.4" xlink:href="#me0df1ad70b" y="384.48"/>
      </g>
     </g>
     <g id="text_6">
      <!-- 50 -->
      <defs>
       <path d="M 10.796875 72.90625 
L 49.515625 72.90625 
L 49.515625 64.59375 
L 19.828125 64.59375 
L 19.828125 46.734375 
Q 21.96875 47.46875 24.109375 47.828125 
Q 26.265625 48.1875 28.421875 48.1875 
Q 40.625 48.1875 47.75 41.5 
Q 54.890625 34.8125 54.890625 23.390625 
Q 54.890625 11.625 47.5625 5.09375 
Q 40.234375 -1.421875 26.90625 -1.421875 
Q 22.3125 -1.421875 17.546875 -0.640625 
Q 12.796875 0.140625 7.71875 1.703125 
L 7.71875 11.625 
Q 12.109375 9.234375 16.796875 8.0625 
Q 21.484375 6.890625 26.703125 6.890625 
Q 35.15625 6.890625 40.078125 11.328125 
Q 45.015625 15.765625 45.015625 23.390625 
Q 45.015625 31 40.078125 35.4375 
Q 35.15625 39.890625 26.703125 39.890625 
Q 22.75 39.890625 18.8125 39.015625 
Q 14.890625 38.140625 10.796875 36.28125 
z
" id="DejaVuSans-53"/>
      </defs>
      <g transform="translate(512.0375 399.078438)scale(0.1 -0.1)">
       <use xlink:href="#DejaVuSans-53"/>
       <use x="63.623047" xlink:href="#DejaVuSans-48"/>
      </g>
     </g>
    </g>
    <g id="text_7">
     <!-- Iteration -->
     <defs>
      <path d="M 9.8125 72.90625 
L 19.671875 72.90625 
L 19.671875 0 
L 9.8125 0 
z
" id="DejaVuSans-73"/>
      <path d="M 18.3125 70.21875 
L 18.3125 54.6875 
L 36.8125 54.6875 
L 36.8125 47.703125 
L 18.3125 47.703125 
L 18.3125 18.015625 
Q 18.3125 11.328125 20.140625 9.421875 
Q 21.96875 7.515625 27.59375 7.515625 
L 36.8125 7.515625 
L 36.8125 0 
L 27.59375 0 
Q 17.1875 0 13.234375 3.875 
Q 9.28125 7.765625 9.28125 18.015625 
L 9.28125 47.703125 
L 2.6875 47.703125 
L 2.6875 54.6875 
L 9.28125 54.6875 
L 9.28125 70.21875 
z
" id="DejaVuSans-116"/>
      <path d="M 56.203125 29.59375 
L 56.203125 25.203125 
L 14.890625 25.203125 
Q 15.484375 15.921875 20.484375 11.0625 
Q 25.484375 6.203125 34.421875 6.203125 
Q 39.59375 6.203125 44.453125 7.46875 
Q 49.3125 8.734375 54.109375 11.28125 
L 54.109375 2.78125 
Q 49.265625 0.734375 44.1875 -0.34375 
Q 39.109375 -1.421875 33.890625 -1.421875 
Q 20.796875 -1.421875 13.15625 6.1875 
Q 5.515625 13.8125 5.515625 26.8125 
Q 5.515625 40.234375 12.765625 48.109375 
Q 20.015625 56 32.328125 56 
Q 43.359375 56 49.78125 48.890625 
Q 56.203125 41.796875 56.203125 29.59375 
z
M 47.21875 32.234375 
Q 47.125 39.59375 43.09375 43.984375 
Q 39.0625 48.390625 32.421875 48.390625 
Q 24.90625 48.390625 20.390625 44.140625 
Q 15.875 39.890625 15.1875 32.171875 
z
" id="DejaVuSans-101"/>
      <path d="M 41.109375 46.296875 
Q 39.59375 47.171875 37.8125 47.578125 
Q 36.03125 48 33.890625 48 
Q 26.265625 48 22.1875 43.046875 
Q 18.109375 38.09375 18.109375 28.8125 
L 18.109375 0 
L 9.078125 0 
L 9.078125 54.6875 
L 18.109375 54.6875 
L 18.109375 46.1875 
Q 20.953125 51.171875 25.484375 53.578125 
Q 30.03125 56 36.53125 56 
Q 37.453125 56 38.578125 55.875 
Q 39.703125 55.765625 41.0625 55.515625 
z
" id="DejaVuSans-114"/>
      <path d="M 34.28125 27.484375 
Q 23.390625 27.484375 19.1875 25 
Q 14.984375 22.515625 14.984375 16.5 
Q 14.984375 11.71875 18.140625 8.90625 
Q 21.296875 6.109375 26.703125 6.109375 
Q 34.1875 6.109375 38.703125 11.40625 
Q 43.21875 16.703125 43.21875 25.484375 
L 43.21875 27.484375 
z
M 52.203125 31.203125 
L 52.203125 0 
L 43.21875 0 
L 43.21875 8.296875 
Q 40.140625 3.328125 35.546875 0.953125 
Q 30.953125 -1.421875 24.3125 -1.421875 
Q 15.921875 -1.421875 10.953125 3.296875 
Q 6 8.015625 6 15.921875 
Q 6 25.140625 12.171875 29.828125 
Q 18.359375 34.515625 30.609375 34.515625 
L 43.21875 34.515625 
L 43.21875 35.40625 
Q 43.21875 41.609375 39.140625 45 
Q 35.0625 48.390625 27.6875 48.390625 
Q 23 48.390625 18.546875 47.265625 
Q 14.109375 46.140625 10.015625 43.890625 
L 10.015625 52.203125 
Q 14.9375 54.109375 19.578125 55.046875 
Q 24.21875 56 28.609375 56 
Q 40.484375 56 46.34375 49.84375 
Q 52.203125 43.703125 52.203125 31.203125 
z
" id="DejaVuSans-97"/>
      <path d="M 9.421875 54.6875 
L 18.40625 54.6875 
L 18.40625 0 
L 9.421875 0 
z
M 9.421875 75.984375 
L 18.40625 75.984375 
L 18.40625 64.59375 
L 9.421875 64.59375 
z
" id="DejaVuSans-105"/>
      <path d="M 30.609375 48.390625 
Q 23.390625 48.390625 19.1875 42.75 
Q 14.984375 37.109375 14.984375 27.296875 
Q 14.984375 17.484375 19.15625 11.84375 
Q 23.34375 6.203125 30.609375 6.203125 
Q 37.796875 6.203125 41.984375 11.859375 
Q 46.1875 17.53125 46.1875 27.296875 
Q 46.1875 37.015625 41.984375 42.703125 
Q 37.796875 48.390625 30.609375 48.390625 
z
M 30.609375 56 
Q 42.328125 56 49.015625 48.375 
Q 55.71875 40.765625 55.71875 27.296875 
Q 55.71875 13.875 49.015625 6.21875 
Q 42.328125 -1.421875 30.609375 -1.421875 
Q 18.84375 -1.421875 12.171875 6.21875 
Q 5.515625 13.875 5.515625 27.296875 
Q 5.515625 40.765625 12.171875 48.375 
Q 18.84375 56 30.609375 56 
z
" id="DejaVuSans-111"/>
      <path d="M 54.890625 33.015625 
L 54.890625 0 
L 45.90625 0 
L 45.90625 32.71875 
Q 45.90625 40.484375 42.875 44.328125 
Q 39.84375 48.1875 33.796875 48.1875 
Q 26.515625 48.1875 22.3125 43.546875 
Q 18.109375 38.921875 18.109375 30.90625 
L 18.109375 0 
L 9.078125 0 
L 9.078125 54.6875 
L 18.109375 54.6875 
L 18.109375 46.1875 
Q 21.34375 51.125 25.703125 53.5625 
Q 30.078125 56 35.796875 56 
Q 45.21875 56 50.046875 50.171875 
Q 54.890625 44.34375 54.890625 33.015625 
z
" id="DejaVuSans-110"/>
     </defs>
     <g transform="translate(273.991406 412.756563)scale(0.1 -0.1)">
      <use xlink:href="#DejaVuSans-73"/>
      <use x="29.492188" xlink:href="#DejaVuSans-116"/>
      <use x="68.701172" xlink:href="#DejaVuSans-101"/>
      <use x="130.224609" xlink:href="#DejaVuSans-114"/>
      <use x="171.337891" xlink:href="#DejaVuSans-97"/>
      <use x="232.617188" xlink:href="#DejaVuSans-116"/>
      <use x="271.826172" xlink:href="#DejaVuSans-105"/>
      <use x="299.609375" xlink:href="#DejaVuSans-111"/>
      <use x="360.791016" xlink:href="#DejaVuSans-110"/>
     </g>
    </g>
   </g>
   <g id="matplotlib.axis_2">
    <g id="ytick_1">
     <g id="line2d_13">
      <path clip-path="url(#p5b6849e186)" d="M 72 384.48 
L 518.4 384.48 
" style="fill:none;stroke:#b0b0b0;stroke-linecap:square;stroke-width:0.8;"/>
     </g>
     <g id="line2d_14">
      <defs>
       <path d="M 0 0 
L -3.5 0 
" id="md0766ad6aa" style="stroke:#000000;stroke-width:0.8;"/>
      </defs>
      <g>
       <use style="stroke:#000000;stroke-width:0.8;" x="72" xlink:href="#md0766ad6aa" y="384.48"/>
      </g>
     </g>
     <g id="text_8">
      <!-- $\mathdefault{10^{-12}}$ -->
      <defs>
       <path d="M 10.59375 35.5 
L 73.1875 35.5 
L 73.1875 27.203125 
L 10.59375 27.203125 
z
" id="DejaVuSans-8722"/>
      </defs>
      <g transform="translate(37.1 388.279219)scale(0.1 -0.1)">
       <use transform="translate(0 0.765625)" xlink:href="#DejaVuSans-49"/>
       <use transform="translate(63.623047 0.765625)" xlink:href="#DejaVuSans-48"/>
       <use transform="translate(128.203125 39.046875)scale(0.7)" xlink:href="#DejaVuSans-8722"/>
       <use transform="translate(186.855469 39.046875)scale(0.7)" xlink:href="#DejaVuSans-49"/>
       <use transform="translate(231.391602 39.046875)scale(0.7)" xlink:href="#DejaVuSans-50"/>
      </g>
     </g>
    </g>
    <g id="ytick_2">
     <g id="line2d_15">
      <path clip-path="url(#p5b6849e186)" d="M 72 336.96 
L 518.4 336.96 
" style="fill:none;stroke:#b0b0b0;stroke-linecap:square;stroke-width:0.8;"/>
     </g>
     <g id="line2d_16">
      <g>
       <use style="stroke:#000000;stroke-width:0.8;" x="72" xlink:href="#md0766ad6aa" y="336.96"/>
      </g>
     </g>
     <g id="text_9">
      <!-- $\mathdefault{10^{-10}}$ -->
      <g transform="translate(37.1 340.759219)scale(0.1 -0.1)">
       <use transform="translate(0 0.765625)" xlink:href="#DejaVuSans-49"/>
       <use transform="translate(63.623047 0.765625)" xlink:href="#DejaVuSans-48"/>
       <use transform="translate(128.203125 39.046875)scale(0.7)" xlink:href="#DejaVuSans-8722"/>
       <use transform="translate(186.855469 39.046875)scale(0.7)" xlink:href="#DejaVuSans-49"/>
       <use transform="translate(231.391602 39.046875)scale(0.7)" xlink:href="#DejaVuSans-48"/>
      </g>
     </g>
    </g>
    <g id="ytick_3">
     <g id="line2d_17">
      <path clip-path="url(#p5b6849e186)" d="M 72 289.44 
L 518.4 289.44 
" style="fill:none;stroke:#b0b0b0;stroke-linecap:square;stroke-width:0.8;"/>
     </g>
     <g id="line2d_18">
      <g>
       <use style="stroke:#000000;stroke-width:0.8;" x="72" xlink:href="#md0766ad6aa" y="289.44"/>
      </g>
     </g>
     <g id="text_10">
      <!-- $\mathdefault{10^{-8}}$ -->
      <defs>
       <path d="M 31.78125 34.625 
Q 24.75 34.625 20.71875 30.859375 
Q 16.703125 27.09375 16.703125 20.515625 
Q 16.703125 13.921875 20.71875 10.15625 
Q 24.75 6.390625 31.78125 6.390625 
Q 38.8125 6.390625 42.859375 10.171875 
Q 46.921875 13.96875 46.921875 20.515625 
Q 46.921875 27.09375 42.890625 30.859375 
Q 38.875 34.625 31.78125 34.625 
z
M 21.921875 38.8125 
Q 15.578125 40.375 12.03125 44.71875 
Q 8.5 49.078125 8.5 55.328125 
Q 8.5 64.0625 14.71875 69.140625 
Q 20.953125 74.21875 31.78125 74.21875 
Q 42.671875 74.21875 48.875 69.140625 
Q 55.078125 64.0625 55.078125 55.328125 
Q 55.078125 49.078125 51.53125 44.71875 
Q 48 40.375 41.703125 38.8125 
Q 48.828125 37.15625 52.796875 32.3125 
Q 56.78125 27.484375 56.78125 20.515625 
Q 56.78125 9.90625 50.3125 4.234375 
Q 43.84375 -1.421875 31.78125 -1.421875 
Q 19.734375 -1.421875 13.25 4.234375 
Q 6.78125 9.90625 6.78125 20.515625 
Q 6.78125 27.484375 10.78125 32.3125 
Q 14.796875 37.15625 21.921875 38.8125 
z
M 18.3125 54.390625 
Q 18.3125 48.734375 21.84375 45.5625 
Q 25.390625 42.390625 31.78125 42.390625 
Q 38.140625 42.390625 41.71875 45.5625 
Q 45.3125 48.734375 45.3125 54.390625 
Q 45.3125 60.0625 41.71875 63.234375 
Q 38.140625 66.40625 31.78125 66.40625 
Q 25.390625 66.40625 21.84375 63.234375 
Q 18.3125 60.0625 18.3125 54.390625 
z
" id="DejaVuSans-56"/>
      </defs>
      <g transform="translate(41.5 293.239219)scale(0.1 -0.1)">
       <use transform="translate(0 0.765625)" xlink:href="#DejaVuSans-49"/>
       <use transform="translate(63.623047 0.765625)" xlink:href="#DejaVuSans-48"/>
       <use transform="translate(128.203125 39.046875)scale(0.7)" xlink:href="#DejaVuSans-8722"/>
       <use transform="translate(186.855469 39.046875)scale(0.7)" xlink:href="#DejaVuSans-56"/>
      </g>
     </g>
    </g>
    <g id="ytick_4">
     <g id="line2d_19">
      <path clip-path="url(#p5b6849e186)" d="M 72 241.92 
L 518.4 241.92 
" style="fill:none;stroke:#b0b0b0;stroke-linecap:square;stroke-width:0.8;"/>
     </g>
     <g id="line2d_20">
      <g>
       <use style="stroke:#000000;stroke-width:0.8;" x="72" xlink:href="#md0766ad6aa" y="241.92"/>
      </g>
     </g>
     <g id="text_11">
      <!-- $\mathdefault{10^{-6}}$ -->
      <defs>
       <path d="M 33.015625 40.375 
Q 26.375 40.375 22.484375 35.828125 
Q 18.609375 31.296875 18.609375 23.390625 
Q 18.609375 15.53125 22.484375 10.953125 
Q 26.375 6.390625 33.015625 6.390625 
Q 39.65625 6.390625 43.53125 10.953125 
Q 47.40625 15.53125 47.40625 23.390625 
Q 47.40625 31.296875 43.53125 35.828125 
Q 39.65625 40.375 33.015625 40.375 
z
M 52.59375 71.296875 
L 52.59375 62.3125 
Q 48.875 64.0625 45.09375 64.984375 
Q 41.3125 65.921875 37.59375 65.921875 
Q 27.828125 65.921875 22.671875 59.328125 
Q 17.53125 52.734375 16.796875 39.40625 
Q 19.671875 43.65625 24.015625 45.921875 
Q 28.375 48.1875 33.59375 48.1875 
Q 44.578125 48.1875 50.953125 41.515625 
Q 57.328125 34.859375 57.328125 23.390625 
Q 57.328125 12.15625 50.6875 5.359375 
Q 44.046875 -1.421875 33.015625 -1.421875 
Q 20.359375 -1.421875 13.671875 8.265625 
Q 6.984375 17.96875 6.984375 36.375 
Q 6.984375 53.65625 15.1875 63.9375 
Q 23.390625 74.21875 37.203125 74.21875 
Q 40.921875 74.21875 44.703125 73.484375 
Q 48.484375 72.75 52.59375 71.296875 
z
" id="DejaVuSans-54"/>
      </defs>
      <g transform="translate(41.5 245.719219)scale(0.1 -0.1)">
       <use transform="translate(0 0.765625)" xlink:href="#DejaVuSans-49"/>
       <use transform="translate(63.623047 0.765625)" xlink:href="#DejaVuSans-48"/>
       <use transform="translate(128.203125 39.046875)scale(0.7)" xlink:href="#DejaVuSans-8722"/>
       <use transform="translate(186.855469 39.046875)scale(0.7)" xlink:href="#DejaVuSans-54"/>
      </g>
     </g>
    </g>
    <g id="ytick_5">
     <g id="line2d_21">
      <path clip-path="url(#p5b6849e186)" d="M 72 194.4 
L 518.4 194.4 
" style="fill:none;stroke:#b0b0b0;stroke-linecap:square;stroke-width:0.8;"/>
     </g>
     <g id="line2d_22">
      <g>
       <use style="stroke:#000000;stroke-width:0.8;" x="72" xlink:href="#md0766ad6aa" y="194.4"/>
      </g>
     </g>
     <g id="text_12">
      <!-- $\mathdefault{10^{-4}}$ -->
      <g transform="translate(41.5 198.199219)scale(0.1 -0.1)">
       <use transform="translate(0 0.684375)" xlink:href="#DejaVuSans-49"/>
       <use transform="translate(63.623047 0.684375)" xlink:href="#DejaVuSans-48"/>
       <use transform="translate(128.203125 38.965625)scale(0.7)" xlink:href="#DejaVuSans-8722"/>
       <use transform="translate(186.855469 38.965625)scale(0.7)" xlink:href="#DejaVuSans-52"/>
      </g>
     </g>
    </g>
    <g id="ytick_6">
     <g id="line2d_23">
      <path clip-path="url(#p5b6849e186)" d="M 72 146.88 
L 518.4 146.88 
" style="fill:none;stroke:#b0b0b0;stroke-linecap:square;stroke-width:0.8;"/>
     </g>
     <g id="line2d_24">
      <g>
       <use style="stroke:#000000;stroke-width:0.8;" x="72" xlink:href="#md0766ad6aa" y="146.88"/>
      </g>
     </g>
     <g id="text_13">
      <!-- $\mathdefault{10^{-2}}$ -->
      <g transform="translate(41.5 150.679219)scale(0.1 -0.1)">
       <use transform="translate(0 0.765625)" xlink:href="#DejaVuSans-49"/>
       <use transform="translate(63.623047 0.765625)" xlink:href="#DejaVuSans-48"/>
       <use transform="translate(128.203125 39.046875)scale(0.7)" xlink:href="#DejaVuSans-8722"/>
       <use transform="translate(186.855469 39.046875)scale(0.7)" xlink:href="#DejaVuSans-50"/>
      </g>
     </g>
    </g>
    <g id="ytick_7">
     <g id="line2d_25">
      <path clip-path="url(#p5b6849e186)" d="M 72 99.36 
L 518.4 99.36 
" style="fill:none;stroke:#b0b0b0;stroke-linecap:square;stroke-width:0.8;"/>
     </g>
     <g id="line2d_26">
      <g>
       <use style="stroke:#000000;stroke-width:0.8;" x="72" xlink:href="#md0766ad6aa" y="99.36"/>
      </g>
     </g>
     <g id="text_14">
      <!-- $\mathdefault{10^{0}}$ -->
      <g transform="translate(47.4 103.159219)scale(0.1 -0.1)">
       <use transform="translate(0 0.765625)" xlink:href="#DejaVuSans-49"/>
       <use transform="translate(63.623047 0.765625)" xlink:href="#DejaVuSans-48"/>
       <use transform="translate(128.203125 39.046875)scale(0.7)" xlink:href="#DejaVuSans-48"/>
      </g>
     </g>
    </g>
    <g id="ytick_8">
     <g id="line2d_27">
      <path clip-path="url(#p5b6849e186)" d="M 72 51.84 
L 518.4 51.84 
" style="fill:none;stroke:#b0b0b0;stroke-linecap:square;stroke-width:0.8;"/>
     </g>
     <g id="line2d_28">
      <g>
       <use style="stroke:#000000;stroke-width:0.8;" x="72" xlink:href="#md0766ad6aa" y="51.84"/>
      </g>
     </g>
     <g id="text_15">
      <!-- $\mathdefault{10^{2}}$ -->
      <g transform="translate(47.4 55.639219)scale(0.1 -0.1)">
       <use transform="translate(0 0.765625)" xlink:href="#DejaVuSans-49"/>
       <use transform="translate(63.623047 0.765625)" xlink:href="#DejaVuSans-48"/>
       <use transform="translate(128.203125 39.046875)scale(0.7)" xlink:href="#DejaVuSans-50"/>
      </g>
     </g>
    </g>
    <g id="text_16">
     <!-- Integrated Variance -->
     <defs>
      <path d="M 45.40625 27.984375 
Q 45.40625 37.75 41.375 43.109375 
Q 37.359375 48.484375 30.078125 48.484375 
Q 22.859375 48.484375 18.828125 43.109375 
Q 14.796875 37.75 14.796875 27.984375 
Q 14.796875 18.265625 18.828125 12.890625 
Q 22.859375 7.515625 30.078125 7.515625 
Q 37.359375 7.515625 41.375 12.890625 
Q 45.40625 18.265625 45.40625 27.984375 
z
M 54.390625 6.78125 
Q 54.390625 -7.171875 48.1875 -13.984375 
Q 42 -20.796875 29.203125 -20.796875 
Q 24.46875 -20.796875 20.265625 -20.09375 
Q 16.0625 -19.390625 12.109375 -17.921875 
L 12.109375 -9.1875 
Q 16.0625 -11.328125 19.921875 -12.34375 
Q 23.78125 -13.375 27.78125 -13.375 
Q 36.625 -13.375 41.015625 -8.765625 
Q 45.40625 -4.15625 45.40625 5.171875 
L 45.40625 9.625 
Q 42.625 4.78125 38.28125 2.390625 
Q 33.9375 0 27.875 0 
Q 17.828125 0 11.671875 7.65625 
Q 5.515625 15.328125 5.515625 27.984375 
Q 5.515625 40.671875 11.671875 48.328125 
Q 17.828125 56 27.875 56 
Q 33.9375 56 38.28125 53.609375 
Q 42.625 51.21875 45.40625 46.390625 
L 45.40625 54.6875 
L 54.390625 54.6875 
z
" id="DejaVuSans-103"/>
      <path d="M 45.40625 46.390625 
L 45.40625 75.984375 
L 54.390625 75.984375 
L 54.390625 0 
L 45.40625 0 
L 45.40625 8.203125 
Q 42.578125 3.328125 38.25 0.953125 
Q 33.9375 -1.421875 27.875 -1.421875 
Q 17.96875 -1.421875 11.734375 6.484375 
Q 5.515625 14.40625 5.515625 27.296875 
Q 5.515625 40.1875 11.734375 48.09375 
Q 17.96875 56 27.875 56 
Q 33.9375 56 38.25 53.625 
Q 42.578125 51.265625 45.40625 46.390625 
z
M 14.796875 27.296875 
Q 14.796875 17.390625 18.875 11.75 
Q 22.953125 6.109375 30.078125 6.109375 
Q 37.203125 6.109375 41.296875 11.75 
Q 45.40625 17.390625 45.40625 27.296875 
Q 45.40625 37.203125 41.296875 42.84375 
Q 37.203125 48.484375 30.078125 48.484375 
Q 22.953125 48.484375 18.875 42.84375 
Q 14.796875 37.203125 14.796875 27.296875 
z
" id="DejaVuSans-100"/>
      <path id="DejaVuSans-32"/>
      <path d="M 28.609375 0 
L 0.78125 72.90625 
L 11.078125 72.90625 
L 34.1875 11.53125 
L 57.328125 72.90625 
L 67.578125 72.90625 
L 39.796875 0 
z
" id="DejaVuSans-86"/>
      <path d="M 48.78125 52.59375 
L 48.78125 44.1875 
Q 44.96875 46.296875 41.140625 47.34375 
Q 37.3125 48.390625 33.40625 48.390625 
Q 24.65625 48.390625 19.8125 42.84375 
Q 14.984375 37.3125 14.984375 27.296875 
Q 14.984375 17.28125 19.8125 11.734375 
Q 24.65625 6.203125 33.40625 6.203125 
Q 37.3125 6.203125 41.140625 7.25 
Q 44.96875 8.296875 48.78125 10.40625 
L 48.78125 2.09375 
Q 45.015625 0.34375 40.984375 -0.53125 
Q 36.96875 -1.421875 32.421875 -1.421875 
Q 20.0625 -1.421875 12.78125 6.34375 
Q 5.515625 14.109375 5.515625 27.296875 
Q 5.515625 40.671875 12.859375 48.328125 
Q 20.21875 56 33.015625 56 
Q 37.15625 56 41.109375 55.140625 
Q 45.0625 54.296875 48.78125 52.59375 
z
" id="DejaVuSans-99"/>
     </defs>
     <g transform="translate(31.020312 267.534219)rotate(-90)scale(0.1 -0.1)">
      <use xlink:href="#DejaVuSans-73"/>
      <use x="29.492188" xlink:href="#DejaVuSans-110"/>
      <use x="92.871094" xlink:href="#DejaVuSans-116"/>
      <use x="132.080078" xlink:href="#DejaVuSans-101"/>
      <use x="193.603516" xlink:href="#DejaVuSans-103"/>
      <use x="257.080078" xlink:href="#DejaVuSans-114"/>
      <use x="298.193359" xlink:href="#DejaVuSans-97"/>
      <use x="359.472656" xlink:href="#DejaVuSans-116"/>
      <use x="398.681641" xlink:href="#DejaVuSans-101"/>
      <use x="460.205078" xlink:href="#DejaVuSans-100"/>
      <use x="523.681641" xlink:href="#DejaVuSans-32"/>
      <use x="555.46875" xlink:href="#DejaVuSans-86"/>
      <use x="616.126953" xlink:href="#DejaVuSans-97"/>
      <use x="677.40625" xlink:href="#DejaVuSans-114"/>
      <use x="718.519531" xlink:href="#DejaVuSans-105"/>
      <use x="746.302734" xlink:href="#DejaVuSans-97"/>
      <use x="807.582031" xlink:href="#DejaVuSans-110"/>
      <use x="870.960938" xlink:href="#DejaVuSans-99"/>
      <use x="925.941406" xlink:href="#DejaVuSans-101"/>
     </g>
    </g>
   </g>
   <g id="line2d_29">
    <path clip-path="url(#p5b6849e186)" d="M 80.853487 433 
L 80.928 235.837889 
L 89.856 252.049636 
L 98.784 92.570248 
L 98.911883 433 
M 116.588669 433 
L 116.64 297.531723 
L 125.482941 -1 
M 125.640943 -1 
L 134.496 347.595013 
L 143.424 73.668045 
L 143.558876 433 
M 161.107578 433 
L 161.269785 -1 
M 163.472564 -1 
L 170.208 82.961742 
L 179.136 79.43842 
L 188.064 90.019567 
L 194.54978 -1 
M 197.004806 -1 
L 197.166966 433 
M 232.575991 433 
L 232.704 92.22784 
L 241.632 355.010373 
L 250.56 355.448457 
L 259.488 355.870452 
L 267.723583 -1 
M 269.917959 -1 
L 277.344 147.348466 
L 286.272 357.038912 
L 295.2 357.398546 
L 304.128 357.754208 
L 313.056 358.085751 
L 321.984 146.013824 
L 329.741139 -1 
M 340.098992 -1 
L 348.768 359.341035 
L 348.795984 433 
M 366.447685 433 
L 366.609819 -1 
M 367.473024 -1 
L 375.552 360.196024 
L 383.710269 -1 
M 384.492733 -1 
L 384.654895 433 
M 402.227382 433 
L 402.336 144.485651 
L 411.264 169.665616 
L 420.192 150.346363 
L 429.12 150.064987 
L 435.910673 -1 
M 440.190501 -1 
L 446.976 149.585346 
L 455.904 362.387798 
L 455.93083 433 
M 473.733345 433 
L 473.76 362.850108 
L 482.688 152.935308 
L 491.616 147.877976 
L 498.267037 -1 
M 502.664786 -1 
L 509.472 162.594894 
L 509.573878 433 
" style="fill:none;stroke:#1f77b4;stroke-linecap:square;stroke-width:1.5;"/>
   </g>
   <g id="line2d_30">
    <path clip-path="url(#p5b6849e186)" d="M 72 136.557894 
L 80.928 123.77011 
L 89.856 138.179914 
L 98.784 133.94699 
L 107.712 88.328439 
L 116.64 85.137854 
L 125.568 85.148251 
L 134.496 85.148251 
L 143.424 85.148251 
L 152.352 85.148251 
L 161.28 85.148251 
L 170.208 85.148251 
L 179.136 85.148251 
L 188.064 85.148251 
L 196.992 85.148251 
L 205.92 85.148251 
L 214.848 85.148251 
L 223.776 85.148251 
L 232.704 85.148251 
L 241.632 85.148251 
L 250.56 85.148251 
L 259.488 85.148251 
L 268.416 85.148251 
L 277.344 85.148251 
L 286.272 85.148251 
L 295.2 85.148251 
L 304.128 85.148251 
L 313.056 85.148251 
L 321.984 85.148251 
L 330.912 85.148251 
L 339.84 85.148251 
L 348.768 85.148251 
L 357.696 85.148251 
L 366.624 85.148251 
L 375.552 85.148251 
L 384.48 85.148251 
L 393.408 85.148251 
L 402.336 85.148251 
L 411.264 85.148251 
L 420.192 85.148251 
L 429.12 85.148251 
L 438.048 85.148251 
L 446.976 85.148251 
L 455.904 85.148251 
L 464.832 85.148251 
L 473.76 85.148251 
L 482.688 85.148251 
L 491.616 85.148251 
L 500.544 85.148251 
L 509.472 85.148251 
L 518.4 85.148251 
" style="fill:none;stroke:#ff7f0e;stroke-linecap:square;stroke-width:1.5;"/>
   </g>
   <g id="line2d_31">
    <path clip-path="url(#p5b6849e186)" d="M 72 110.250589 
L 80.928 111.285886 
L 89.856 117.210135 
L 98.784 120.600368 
L 107.712 123.741315 
L 116.64 120.616445 
L 125.568 123.995089 
L 134.496 125.774175 
L 143.424 127.466326 
L 152.352 129.067924 
L 161.28 130.648927 
L 170.208 132.236275 
L 179.136 133.89911 
L 188.064 128.959432 
L 196.992 131.120355 
L 205.92 132.059832 
L 214.848 132.965705 
L 223.776 133.852609 
L 232.704 134.729967 
L 241.632 135.583639 
L 250.56 136.414016 
L 259.488 137.252976 
L 268.416 138.086219 
L 277.344 138.91709 
L 286.272 139.762587 
L 295.2 140.601609 
L 304.128 141.435249 
L 313.056 142.72355 
L 321.984 143.635411 
L 330.912 137.717038 
L 339.84 138.676917 
L 348.768 139.16007 
L 357.696 139.6311 
L 366.624 140.100984 
L 375.552 140.557141 
L 384.48 141.012913 
L 393.408 141.466506 
L 402.336 141.915859 
L 411.264 142.357766 
L 420.192 142.78977 
L 429.12 143.225546 
L 438.048 143.658731 
L 446.976 144.093326 
L 455.904 144.526205 
L 464.832 144.956076 
L 473.76 145.3844 
L 482.688 145.811758 
L 491.616 146.240428 
L 500.544 146.671421 
L 509.472 147.102311 
L 518.4 147.535728 
" style="fill:none;stroke:#2ca02c;stroke-linecap:square;stroke-width:1.5;"/>
   </g>
   <g id="line2d_32">
    <path clip-path="url(#p5b6849e186)" d="M 72 118.656103 
L 80.928 115.843871 
L 89.856 126.943834 
L 98.784 131.264685 
L 107.712 136.054791 
L 116.64 127.20529 
L 125.568 136.479376 
L 134.496 139.407546 
L 143.424 140.710212 
L 152.352 144.520213 
L 161.28 145.207422 
L 170.208 148.632405 
L 179.136 151.817425 
L 188.064 138.345062 
L 196.992 145.205748 
L 205.92 146.696888 
L 214.848 146.34971 
L 223.776 147.839017 
L 232.704 149.250145 
L 241.632 148.866787 
L 250.56 150.503408 
L 259.488 152.059644 
L 268.416 153.780369 
L 277.344 155.187372 
L 286.272 156.585332 
L 295.2 159.304352 
L 304.128 160.989903 
L 313.056 162.807106 
L 321.984 164.926929 
L 330.912 149.013285 
L 339.84 152.527857 
L 348.768 153.261282 
L 357.696 152.068677 
L 366.624 152.802202 
L 375.552 154.899898 
L 384.48 155.637995 
L 393.408 156.380482 
L 402.336 157.112948 
L 411.264 157.885417 
L 420.192 158.636869 
L 429.12 159.389044 
L 438.048 160.237407 
L 446.976 159.112787 
L 455.904 159.913163 
L 464.832 160.757729 
L 473.76 161.615612 
L 482.688 162.512707 
L 491.616 163.21266 
L 500.544 163.911005 
L 509.472 164.64797 
L 518.4 165.379064 
" style="fill:none;stroke:#d62728;stroke-linecap:square;stroke-width:1.5;"/>
   </g>
   <g id="line2d_33">
    <path clip-path="url(#p5b6849e186)" d="M 72 125.998257 
L 80.928 118.991079 
L 89.856 133.27373 
L 98.784 137.105518 
L 107.712 141.254765 
L 116.64 128.450539 
L 125.568 141.624918 
L 134.496 145.59166 
L 143.424 145.340713 
L 152.352 149.377833 
L 161.28 149.822308 
L 170.208 152.821101 
L 179.136 156.156163 
L 188.064 85.148251 
L 196.992 85.148251 
L 205.92 85.148251 
L 214.848 85.148251 
L 223.776 85.148251 
L 232.704 85.148251 
L 241.632 85.148251 
L 250.56 85.148251 
L 259.488 85.148251 
L 268.416 85.148251 
L 277.344 85.148251 
L 286.272 85.148251 
L 295.2 85.148251 
L 304.128 85.148251 
L 313.056 85.148251 
L 321.984 85.148251 
L 330.912 85.148251 
L 339.84 85.148251 
L 348.768 85.148251 
L 357.696 85.148251 
L 366.624 85.148251 
L 375.552 85.148251 
L 384.48 85.148251 
L 393.408 85.148251 
L 402.336 85.148251 
L 411.264 85.148251 
L 420.192 85.148251 
L 429.12 85.148251 
L 438.048 85.148251 
L 446.976 85.148251 
L 455.904 85.148251 
L 464.832 85.148251 
L 473.76 85.148251 
L 482.688 85.148251 
L 491.616 85.148251 
L 500.544 85.148251 
L 509.472 85.148251 
L 518.4 85.148251 
" style="fill:none;stroke:#9467bd;stroke-linecap:square;stroke-width:1.5;"/>
   </g>
   <g id="line2d_34">
    <path clip-path="url(#p5b6849e186)" d="M 72 125.468274 
L 80.928 118.590368 
L 89.856 132.72388 
L 98.784 137.506329 
L 107.712 142.357255 
L 116.64 130.567275 
L 125.568 140.890858 
L 134.496 147.232524 
L 143.424 146.394045 
L 152.352 151.388929 
L 161.28 151.522829 
L 170.208 155.658852 
L 179.136 160.113055 
L 188.064 141.53991 
L 196.992 148.319128 
L 205.92 152.118538 
L 214.848 148.495966 
L 223.776 151.287874 
L 232.704 154.089773 
L 241.632 151.496664 
L 250.56 153.813448 
L 259.488 156.494107 
L 268.416 159.593798 
L 277.344 162.12376 
L 286.272 164.156999 
L 295.2 166.785358 
L 304.128 168.997888 
L 313.056 171.927321 
L 321.984 175.216585 
L 330.912 151.465866 
L 339.84 155.555119 
L 348.768 157.542277 
L 357.696 152.771691 
L 366.624 154.245874 
L 375.552 155.710158 
L 384.48 157.104353 
L 393.408 158.567069 
L 402.336 160.054701 
L 411.264 161.635672 
L 420.192 163.099656 
L 429.12 164.652141 
L 438.048 166.113649 
L 446.976 161.353735 
L 455.904 162.73235 
L 464.832 164.210632 
L 473.76 165.750622 
L 482.688 167.429173 
L 491.616 168.750343 
L 500.544 169.592787 
L 509.472 170.917671 
L 518.4 172.252176 
" style="fill:none;stroke:#8c564b;stroke-linecap:square;stroke-width:1.5;"/>
   </g>
   <g id="line2d_35">
    <path clip-path="url(#p5b6849e186)" d="M 72 228.394926 
L 80.928 227.873798 
L 89.856 219.868713 
L 98.784 229.959054 
L 107.712 222.478029 
L 116.64 213.778306 
L 125.568 211.123123 
L 134.496 224.245615 
L 143.424 220.75163 
L 152.352 215.647892 
L 161.28 211.901903 
L 170.208 214.824221 
L 170.290382 433 
M 187.983814 433 
L 188.064 220.690485 
L 196.992 216.30897 
L 205.92 217.105695 
L 214.848 218.812106 
L 214.928889 433 
M 232.623713 433 
L 232.704 220.420708 
L 232.784287 433 
M 250.478423 433 
L 250.56 216.974608 
L 250.641577 433 
M 268.33717 433 
L 268.416 224.314419 
L 277.344 205.603789 
L 277.42983 433 
M 339.761327 433 
L 339.84 224.731948 
L 348.768 222.387288 
L 348.847551 433 
M 393.327065 433 
L 393.408 218.689057 
L 393.488935 433 
M 437.970895 433 
L 438.048 228.921131 
L 438.125105 433 
M 491.530328 433 
L 491.616 206.025394 
L 500.544 206.984192 
L 500.629314 433 
M 518.317914 433 
L 518.4 215.614425 
" style="fill:none;stroke:#e377c2;stroke-linecap:square;stroke-width:1.5;"/>
   </g>
   <g id="patch_3">
    <path d="M 72 384.48 
L 72 51.84 
" style="fill:none;stroke:#000000;stroke-linecap:square;stroke-linejoin:miter;stroke-width:0.8;"/>
   </g>
   <g id="patch_4">
    <path d="M 518.4 384.48 
L 518.4 51.84 
" style="fill:none;stroke:#000000;stroke-linecap:square;stroke-linejoin:miter;stroke-width:0.8;"/>
   </g>
   <g id="patch_5">
    <path d="M 72 384.48 
L 518.4 384.48 
" style="fill:none;stroke:#000000;stroke-linecap:square;stroke-linejoin:miter;stroke-width:0.8;"/>
   </g>
   <g id="patch_6">
    <path d="M 72 51.84 
L 518.4 51.84 
" style="fill:none;stroke:#000000;stroke-linecap:square;stroke-linejoin:miter;stroke-width:0.8;"/>
   </g>
   <g id="legend_1">
    <g id="patch_7">
     <path d="M 79 379.48 
L 165.804688 379.48 
Q 167.804688 379.48 167.804688 377.48 
L 167.804688 275.733125 
Q 167.804688 273.733125 165.804688 273.733125 
L 79 273.733125 
Q 77 273.733125 77 275.733125 
L 77 377.48 
Q 77 379.48 79 379.48 
z
" style="fill:#ffffff;opacity:0.8;stroke:#cccccc;stroke-linejoin:miter;"/>
    </g>
    <g id="line2d_36">
     <path d="M 81 281.831563 
L 101 281.831563 
" style="fill:none;stroke:#1f77b4;stroke-linecap:square;stroke-width:1.5;"/>
    </g>
    <g id="line2d_37"/>
    <g id="text_17">
     <!-- Constant -->
     <defs>
      <path d="M 64.40625 67.28125 
L 64.40625 56.890625 
Q 59.421875 61.53125 53.78125 63.8125 
Q 48.140625 66.109375 41.796875 66.109375 
Q 29.296875 66.109375 22.65625 58.46875 
Q 16.015625 50.828125 16.015625 36.375 
Q 16.015625 21.96875 22.65625 14.328125 
Q 29.296875 6.6875 41.796875 6.6875 
Q 48.140625 6.6875 53.78125 8.984375 
Q 59.421875 11.28125 64.40625 15.921875 
L 64.40625 5.609375 
Q 59.234375 2.09375 53.4375 0.328125 
Q 47.65625 -1.421875 41.21875 -1.421875 
Q 24.65625 -1.421875 15.125 8.703125 
Q 5.609375 18.84375 5.609375 36.375 
Q 5.609375 53.953125 15.125 64.078125 
Q 24.65625 74.21875 41.21875 74.21875 
Q 47.75 74.21875 53.53125 72.484375 
Q 59.328125 70.75 64.40625 67.28125 
z
" id="DejaVuSans-67"/>
      <path d="M 44.28125 53.078125 
L 44.28125 44.578125 
Q 40.484375 46.53125 36.375 47.5 
Q 32.28125 48.484375 27.875 48.484375 
Q 21.1875 48.484375 17.84375 46.4375 
Q 14.5 44.390625 14.5 40.28125 
Q 14.5 37.15625 16.890625 35.375 
Q 19.28125 33.59375 26.515625 31.984375 
L 29.59375 31.296875 
Q 39.15625 29.25 43.1875 25.515625 
Q 47.21875 21.78125 47.21875 15.09375 
Q 47.21875 7.46875 41.1875 3.015625 
Q 35.15625 -1.421875 24.609375 -1.421875 
Q 20.21875 -1.421875 15.453125 -0.5625 
Q 10.6875 0.296875 5.421875 2 
L 5.421875 11.28125 
Q 10.40625 8.6875 15.234375 7.390625 
Q 20.0625 6.109375 24.8125 6.109375 
Q 31.15625 6.109375 34.5625 8.28125 
Q 37.984375 10.453125 37.984375 14.40625 
Q 37.984375 18.0625 35.515625 20.015625 
Q 33.0625 21.96875 24.703125 23.78125 
L 21.578125 24.515625 
Q 13.234375 26.265625 9.515625 29.90625 
Q 5.8125 33.546875 5.8125 39.890625 
Q 5.8125 47.609375 11.28125 51.796875 
Q 16.75 56 26.8125 56 
Q 31.78125 56 36.171875 55.265625 
Q 40.578125 54.546875 44.28125 53.078125 
z
" id="DejaVuSans-115"/>
     </defs>
     <g transform="translate(109 285.331563)scale(0.1 -0.1)">
      <use xlink:href="#DejaVuSans-67"/>
      <use x="69.824219" xlink:href="#DejaVuSans-111"/>
      <use x="131.005859" xlink:href="#DejaVuSans-110"/>
      <use x="194.384766" xlink:href="#DejaVuSans-115"/>
      <use x="246.484375" xlink:href="#DejaVuSans-116"/>
      <use x="285.693359" xlink:href="#DejaVuSans-97"/>
      <use x="346.972656" xlink:href="#DejaVuSans-110"/>
      <use x="410.351562" xlink:href="#DejaVuSans-116"/>
     </g>
    </g>
    <g id="line2d_38">
     <path d="M 81 296.509688 
L 101 296.509688 
" style="fill:none;stroke:#ff7f0e;stroke-linecap:square;stroke-width:1.5;"/>
    </g>
    <g id="line2d_39"/>
    <g id="text_18">
     <!-- RBF -->
     <defs>
      <path d="M 44.390625 34.1875 
Q 47.5625 33.109375 50.5625 29.59375 
Q 53.5625 26.078125 56.59375 19.921875 
L 66.609375 0 
L 56 0 
L 46.6875 18.703125 
Q 43.0625 26.03125 39.671875 28.421875 
Q 36.28125 30.8125 30.421875 30.8125 
L 19.671875 30.8125 
L 19.671875 0 
L 9.8125 0 
L 9.8125 72.90625 
L 32.078125 72.90625 
Q 44.578125 72.90625 50.734375 67.671875 
Q 56.890625 62.453125 56.890625 51.90625 
Q 56.890625 45.015625 53.6875 40.46875 
Q 50.484375 35.9375 44.390625 34.1875 
z
M 19.671875 64.796875 
L 19.671875 38.921875 
L 32.078125 38.921875 
Q 39.203125 38.921875 42.84375 42.21875 
Q 46.484375 45.515625 46.484375 51.90625 
Q 46.484375 58.296875 42.84375 61.546875 
Q 39.203125 64.796875 32.078125 64.796875 
z
" id="DejaVuSans-82"/>
      <path d="M 19.671875 34.8125 
L 19.671875 8.109375 
L 35.5 8.109375 
Q 43.453125 8.109375 47.28125 11.40625 
Q 51.125 14.703125 51.125 21.484375 
Q 51.125 28.328125 47.28125 31.5625 
Q 43.453125 34.8125 35.5 34.8125 
z
M 19.671875 64.796875 
L 19.671875 42.828125 
L 34.28125 42.828125 
Q 41.5 42.828125 45.03125 45.53125 
Q 48.578125 48.25 48.578125 53.8125 
Q 48.578125 59.328125 45.03125 62.0625 
Q 41.5 64.796875 34.28125 64.796875 
z
M 9.8125 72.90625 
L 35.015625 72.90625 
Q 46.296875 72.90625 52.390625 68.21875 
Q 58.5 63.53125 58.5 54.890625 
Q 58.5 48.1875 55.375 44.234375 
Q 52.25 40.28125 46.1875 39.3125 
Q 53.46875 37.75 57.5 32.78125 
Q 61.53125 27.828125 61.53125 20.40625 
Q 61.53125 10.640625 54.890625 5.3125 
Q 48.25 0 35.984375 0 
L 9.8125 0 
z
" id="DejaVuSans-66"/>
      <path d="M 9.8125 72.90625 
L 51.703125 72.90625 
L 51.703125 64.59375 
L 19.671875 64.59375 
L 19.671875 43.109375 
L 48.578125 43.109375 
L 48.578125 34.8125 
L 19.671875 34.8125 
L 19.671875 0 
L 9.8125 0 
z
" id="DejaVuSans-70"/>
     </defs>
     <g transform="translate(109 300.009688)scale(0.1 -0.1)">
      <use xlink:href="#DejaVuSans-82"/>
      <use x="69.482422" xlink:href="#DejaVuSans-66"/>
      <use x="138.085938" xlink:href="#DejaVuSans-70"/>
     </g>
    </g>
    <g id="line2d_40">
     <path d="M 81 311.187813 
L 101 311.187813 
" style="fill:none;stroke:#2ca02c;stroke-linecap:square;stroke-width:1.5;"/>
    </g>
    <g id="line2d_41"/>
    <g id="text_19">
     <!-- Matrn-1/2 -->
     <defs>
      <path d="M 9.8125 72.90625 
L 24.515625 72.90625 
L 43.109375 23.296875 
L 61.8125 72.90625 
L 76.515625 72.90625 
L 76.515625 0 
L 66.890625 0 
L 66.890625 64.015625 
L 48.09375 14.015625 
L 38.1875 14.015625 
L 19.390625 64.015625 
L 19.390625 0 
L 9.8125 0 
z
" id="DejaVuSans-77"/>
      <path d="M 56.203125 29.59375 
L 56.203125 25.203125 
L 14.890625 25.203125 
Q 15.484375 15.921875 20.484375 11.0625 
Q 25.484375 6.203125 34.421875 6.203125 
Q 39.59375 6.203125 44.453125 7.46875 
Q 49.3125 8.734375 54.109375 11.28125 
L 54.109375 2.78125 
Q 49.265625 0.734375 44.1875 -0.34375 
Q 39.109375 -1.421875 33.890625 -1.421875 
Q 20.796875 -1.421875 13.15625 6.1875 
Q 5.515625 13.8125 5.515625 26.8125 
Q 5.515625 40.234375 12.765625 48.109375 
Q 20.015625 56 32.328125 56 
Q 43.359375 56 49.78125 48.890625 
Q 56.203125 41.796875 56.203125 29.59375 
z
M 47.21875 32.234375 
Q 47.125 39.59375 43.09375 43.984375 
Q 39.0625 48.390625 32.421875 48.390625 
Q 24.90625 48.390625 20.390625 44.140625 
Q 15.875 39.890625 15.1875 32.171875 
z
M 38.53125 79.984375 
L 48.25 79.984375 
L 32.34375 61.625 
L 24.859375 61.625 
z
" id="DejaVuSans-233"/>
      <path d="M 4.890625 31.390625 
L 31.203125 31.390625 
L 31.203125 23.390625 
L 4.890625 23.390625 
z
" id="DejaVuSans-45"/>
      <path d="M 25.390625 72.90625 
L 33.6875 72.90625 
L 8.296875 -9.28125 
L 0 -9.28125 
z
" id="DejaVuSans-47"/>
     </defs>
     <g transform="translate(109 314.687813)scale(0.1 -0.1)">
      <use xlink:href="#DejaVuSans-77"/>
      <use x="86.279297" xlink:href="#DejaVuSans-97"/>
      <use x="147.558594" xlink:href="#DejaVuSans-116"/>
      <use x="186.767578" xlink:href="#DejaVuSans-233"/>
      <use x="248.291016" xlink:href="#DejaVuSans-114"/>
      <use x="287.654297" xlink:href="#DejaVuSans-110"/>
      <use x="351.033203" xlink:href="#DejaVuSans-45"/>
      <use x="387.117188" xlink:href="#DejaVuSans-49"/>
      <use x="450.740234" xlink:href="#DejaVuSans-47"/>
      <use x="484.431641" xlink:href="#DejaVuSans-50"/>
     </g>
    </g>
    <g id="line2d_42">
     <path d="M 81 325.865938 
L 101 325.865938 
" style="fill:none;stroke:#d62728;stroke-linecap:square;stroke-width:1.5;"/>
    </g>
    <g id="line2d_43"/>
    <g id="text_20">
     <!-- Matrn-3/2 -->
     <g transform="translate(109 329.365938)scale(0.1 -0.1)">
      <use xlink:href="#DejaVuSans-77"/>
      <use x="86.279297" xlink:href="#DejaVuSans-97"/>
      <use x="147.558594" xlink:href="#DejaVuSans-116"/>
      <use x="186.767578" xlink:href="#DejaVuSans-233"/>
      <use x="248.291016" xlink:href="#DejaVuSans-114"/>
      <use x="287.654297" xlink:href="#DejaVuSans-110"/>
      <use x="351.033203" xlink:href="#DejaVuSans-45"/>
      <use x="387.117188" xlink:href="#DejaVuSans-51"/>
      <use x="450.740234" xlink:href="#DejaVuSans-47"/>
      <use x="484.431641" xlink:href="#DejaVuSans-50"/>
     </g>
    </g>
    <g id="line2d_44">
     <path d="M 81 340.544062 
L 101 340.544062 
" style="fill:none;stroke:#9467bd;stroke-linecap:square;stroke-width:1.5;"/>
    </g>
    <g id="line2d_45"/>
    <g id="text_21">
     <!-- Matrn-5/2 -->
     <g transform="translate(109 344.044062)scale(0.1 -0.1)">
      <use xlink:href="#DejaVuSans-77"/>
      <use x="86.279297" xlink:href="#DejaVuSans-97"/>
      <use x="147.558594" xlink:href="#DejaVuSans-116"/>
      <use x="186.767578" xlink:href="#DejaVuSans-233"/>
      <use x="248.291016" xlink:href="#DejaVuSans-114"/>
      <use x="287.654297" xlink:href="#DejaVuSans-110"/>
      <use x="351.033203" xlink:href="#DejaVuSans-45"/>
      <use x="387.117188" xlink:href="#DejaVuSans-53"/>
      <use x="450.740234" xlink:href="#DejaVuSans-47"/>
      <use x="484.431641" xlink:href="#DejaVuSans-50"/>
     </g>
    </g>
    <g id="line2d_46">
     <path d="M 81 355.222188 
L 101 355.222188 
" style="fill:none;stroke:#8c564b;stroke-linecap:square;stroke-width:1.5;"/>
    </g>
    <g id="line2d_47"/>
    <g id="text_22">
     <!-- RQ -->
     <defs>
      <path d="M 39.40625 66.21875 
Q 28.65625 66.21875 22.328125 58.203125 
Q 16.015625 50.203125 16.015625 36.375 
Q 16.015625 22.609375 22.328125 14.59375 
Q 28.65625 6.59375 39.40625 6.59375 
Q 50.140625 6.59375 56.421875 14.59375 
Q 62.703125 22.609375 62.703125 36.375 
Q 62.703125 50.203125 56.421875 58.203125 
Q 50.140625 66.21875 39.40625 66.21875 
z
M 53.21875 1.3125 
L 66.21875 -12.890625 
L 54.296875 -12.890625 
L 43.5 -1.21875 
Q 41.890625 -1.3125 41.03125 -1.359375 
Q 40.1875 -1.421875 39.40625 -1.421875 
Q 24.03125 -1.421875 14.8125 8.859375 
Q 5.609375 19.140625 5.609375 36.375 
Q 5.609375 53.65625 14.8125 63.9375 
Q 24.03125 74.21875 39.40625 74.21875 
Q 54.734375 74.21875 63.90625 63.9375 
Q 73.09375 53.65625 73.09375 36.375 
Q 73.09375 23.6875 67.984375 14.640625 
Q 62.890625 5.609375 53.21875 1.3125 
z
" id="DejaVuSans-81"/>
     </defs>
     <g transform="translate(109 358.722188)scale(0.1 -0.1)">
      <use xlink:href="#DejaVuSans-82"/>
      <use x="69.482422" xlink:href="#DejaVuSans-81"/>
     </g>
    </g>
    <g id="line2d_48">
     <path d="M 81 369.900313 
L 101 369.900313 
" style="fill:none;stroke:#e377c2;stroke-linecap:square;stroke-width:1.5;"/>
    </g>
    <g id="line2d_49"/>
    <g id="text_23">
     <!-- Dot Prod. -->
     <defs>
      <path d="M 19.671875 64.796875 
L 19.671875 8.109375 
L 31.59375 8.109375 
Q 46.6875 8.109375 53.6875 14.9375 
Q 60.6875 21.78125 60.6875 36.53125 
Q 60.6875 51.171875 53.6875 57.984375 
Q 46.6875 64.796875 31.59375 64.796875 
z
M 9.8125 72.90625 
L 30.078125 72.90625 
Q 51.265625 72.90625 61.171875 64.09375 
Q 71.09375 55.28125 71.09375 36.53125 
Q 71.09375 17.671875 61.125 8.828125 
Q 51.171875 0 30.078125 0 
L 9.8125 0 
z
" id="DejaVuSans-68"/>
      <path d="M 19.671875 64.796875 
L 19.671875 37.40625 
L 32.078125 37.40625 
Q 38.96875 37.40625 42.71875 40.96875 
Q 46.484375 44.53125 46.484375 51.125 
Q 46.484375 57.671875 42.71875 61.234375 
Q 38.96875 64.796875 32.078125 64.796875 
z
M 9.8125 72.90625 
L 32.078125 72.90625 
Q 44.34375 72.90625 50.609375 67.359375 
Q 56.890625 61.8125 56.890625 51.125 
Q 56.890625 40.328125 50.609375 34.8125 
Q 44.34375 29.296875 32.078125 29.296875 
L 19.671875 29.296875 
L 19.671875 0 
L 9.8125 0 
z
" id="DejaVuSans-80"/>
      <path d="M 10.6875 12.40625 
L 21 12.40625 
L 21 0 
L 10.6875 0 
z
" id="DejaVuSans-46"/>
     </defs>
     <g transform="translate(109 373.400313)scale(0.1 -0.1)">
      <use xlink:href="#DejaVuSans-68"/>
      <use x="77.001953" xlink:href="#DejaVuSans-111"/>
      <use x="138.183594" xlink:href="#DejaVuSans-116"/>
      <use x="177.392578" xlink:href="#DejaVuSans-32"/>
      <use x="209.179688" xlink:href="#DejaVuSans-80"/>
      <use x="267.732422" xlink:href="#DejaVuSans-114"/>
      <use x="306.595703" xlink:href="#DejaVuSans-111"/>
      <use x="367.777344" xlink:href="#DejaVuSans-100"/>
      <use x="431.253906" xlink:href="#DejaVuSans-46"/>
     </g>
    </g>
   </g>
  </g>
 </g>
 <defs>
  <clipPath id="p5b6849e186">
   <rect height="332.64" width="446.4" x="72" y="51.84"/>
  </clipPath>
 </defs>
</svg>
