<?xml version="1.0" encoding="utf-8" standalone="no"?>
<!DOCTYPE svg PUBLIC "-//W3C//DTD SVG 1.1//EN"
  "http://www.w3.org/Graphics/SVG/1.1/DTD/svg11.dtd">
<!-- Created with matplotlib (https://matplotlib.org/) -->
<svg height="432pt" version="1.1" viewBox="0 0 576 432" width="576pt" xmlns="http://www.w3.org/2000/svg" xmlns:xlink="http://www.w3.org/1999/xlink">
 <defs>
  <style type="text/css">
*{stroke-linecap:butt;stroke-linejoin:round;}
  </style>
 </defs>
 <g id="figure_1">
  <g id="patch_1">
   <path d="M 0 432 
L 576 432 
L 576 0 
L 0 0 
z
" style="fill:#ffffff;"/>
  </g>
  <g id="axes_1">
   <g id="patch_2">
    <path d="M 72 384.48 
L 518.4 384.48 
L 518.4 51.84 
L 72 51.84 
z
" style="fill:#ffffff;"/>
   </g>
   <g id="PolyCollection_1">
    <path clip-path="url(#p4e2cc6aee9)" d="M 72 100.232813 
L 72 94.675627 
L 80.928 96.371609 
L 89.856 97.001855 
L 98.784 98.028747 
L 107.712 99.17938 
L 116.64 100.26289 
L 125.568 98.399437 
L 134.496 99.179483 
L 143.424 98.396246 
L 152.352 99.029624 
L 161.28 98.875062 
L 170.208 98.420167 
L 179.136 97.389356 
L 188.064 99.740455 
L 196.992 98.208804 
L 205.92 98.440243 
L 214.848 98.873643 
L 223.776 99.037786 
L 232.704 99.334064 
L 241.632 99.861736 
L 250.56 99.959295 
L 259.488 100.261058 
L 268.416 100.750794 
L 277.344 100.74108 
L 286.272 100.681774 
L 295.2 100.665661 
L 304.128 100.661546 
L 313.056 100.666535 
L 321.984 100.661991 
L 330.912 98.915117 
L 339.84 100.765154 
L 348.768 100.767502 
L 357.696 100.726503 
L 366.624 100.740471 
L 375.552 100.7512 
L 384.48 99.645553 
L 393.408 98.914087 
L 402.336 100.72678 
L 411.264 99.20204 
L 420.192 99.648884 
L 429.12 97.765423 
L 438.048 98.242991 
L 446.976 97.380013 
L 455.904 96.866062 
L 464.832 99.073721 
L 473.76 97.896135 
L 482.688 100.77637 
L 491.616 100.77799 
L 500.544 100.776765 
L 509.472 100.77857 
L 518.4 100.770451 
L 518.4 100.78227 
L 518.4 100.78227 
L 509.472 100.786022 
L 500.544 100.790521 
L 491.616 100.786615 
L 482.688 100.788563 
L 473.76 101.571124 
L 464.832 101.099684 
L 455.904 102.140767 
L 446.976 101.865953 
L 438.048 101.680629 
L 429.12 101.734597 
L 420.192 101.188343 
L 411.264 101.639418 
L 402.336 100.818115 
L 393.408 101.698181 
L 384.48 101.364975 
L 375.552 100.799028 
L 366.624 100.799504 
L 357.696 100.798679 
L 348.768 100.78667 
L 339.84 100.788348 
L 330.912 101.55641 
L 321.984 100.744342 
L 313.056 100.749211 
L 304.128 100.746544 
L 295.2 100.748106 
L 286.272 100.756043 
L 277.344 100.773873 
L 268.416 100.788982 
L 259.488 101.083801 
L 250.56 101.195246 
L 241.632 101.290931 
L 232.704 101.185058 
L 223.776 101.191409 
L 214.848 101.653163 
L 205.92 101.768692 
L 196.992 101.357989 
L 188.064 101.388669 
L 179.136 101.558657 
L 170.208 101.425699 
L 161.28 101.503657 
L 152.352 101.068468 
L 143.424 100.934937 
L 134.496 101.167042 
L 125.568 101.104466 
L 116.64 100.962297 
L 107.712 101.324471 
L 98.784 101.066218 
L 89.856 100.506213 
L 80.928 100.263824 
L 72 100.232813 
z
" style="fill:#1f77b4;fill-opacity:0.3;"/>
   </g>
   <g id="PolyCollection_2">
    <path clip-path="url(#p4e2cc6aee9)" d="M 72 105.844152 
L 72 82.655273 
L 80.928 86.126344 
L 89.856 92.55733 
L 98.784 93.100385 
L 107.712 89.269726 
L 116.64 114.614065 
L 125.568 122.485977 
L 134.496 120.510915 
L 143.424 145.695741 
L 152.352 176.626311 
L 161.28 181.175454 
L 170.208 183.934353 
L 179.136 177.48219 
L 188.064 178.015196 
L 196.992 230.097441 
L 205.92 229.209975 
L 214.848 247.757042 
L 223.776 286.088983 
L 232.704 282.931494 
L 241.632 282.272841 
L 250.56 282.743746 
L 259.488 282.174607 
L 268.416 287.7241 
L 277.344 292.972354 
L 286.272 292.946484 
L 295.2 291.709886 
L 304.128 292.048199 
L 313.056 292.002836 
L 321.984 291.962798 
L 330.912 291.942847 
L 339.84 341.649776 
L 348.768 343.974179 
L 357.696 343.972011 
L 366.624 343.930217 
L 375.552 343.917398 
L 384.48 343.913792 
L 393.408 344.80761 
L 402.336 344.849534 
L 411.264 344.938666 
L 420.192 344.952412 
L 429.12 344.998485 
L 438.048 352.845718 
L 446.976 352.844458 
L 455.904 352.848862 
L 464.832 352.841079 
L 473.76 352.832743 
L 482.688 352.70799 
L 491.616 354.417019 
L 500.544 354.409017 
L 509.472 354.400431 
L 518.4 354.457251 
L 518.4 361.896686 
L 518.4 361.896686 
L 509.472 361.862675 
L 500.544 361.790602 
L 491.616 361.792213 
L 482.688 360.463807 
L 473.76 360.460855 
L 464.832 360.476889 
L 455.904 360.500077 
L 446.976 360.496129 
L 438.048 360.501375 
L 429.12 349.836391 
L 420.192 349.805665 
L 411.264 349.783179 
L 402.336 349.600123 
L 393.408 349.57403 
L 384.48 348.968668 
L 375.552 348.964841 
L 366.624 348.987636 
L 357.696 349.017773 
L 348.768 349.026363 
L 339.84 345.581588 
L 330.912 314.333204 
L 321.984 314.351365 
L 313.056 314.137796 
L 304.128 314.043181 
L 295.2 313.861263 
L 286.272 310.3656 
L 277.344 310.150239 
L 268.416 307.37061 
L 259.488 304.163155 
L 250.56 303.572007 
L 241.632 286.258979 
L 232.704 286.404171 
L 223.776 298.551767 
L 214.848 283.870699 
L 205.92 282.326921 
L 196.992 232.26929 
L 188.064 206.624736 
L 179.136 197.849989 
L 170.208 189.298123 
L 161.28 189.58649 
L 152.352 189.157272 
L 143.424 171.167945 
L 134.496 151.06798 
L 125.568 128.570163 
L 116.64 124.6658 
L 107.712 103.602908 
L 98.784 104.387673 
L 89.856 103.846365 
L 80.928 104.517521 
L 72 105.844152 
z
" style="fill:#ff7f0e;fill-opacity:0.3;"/>
   </g>
   <g id="PolyCollection_3">
    <path clip-path="url(#p4e2cc6aee9)" d="M 72 102.171534 
L 72 90.072439 
L 80.928 93.974514 
L 89.856 98.055943 
L 98.784 102.522255 
L 107.712 102.419015 
L 116.64 128.750635 
L 125.568 131.434414 
L 134.496 132.140282 
L 143.424 132.424824 
L 152.352 133.836231 
L 161.28 134.717363 
L 170.208 135.130796 
L 179.136 136.143148 
L 188.064 137.182312 
L 196.992 139.744769 
L 205.92 139.767394 
L 214.848 140.782981 
L 223.776 141.074776 
L 232.704 142.2201 
L 241.632 145.145062 
L 250.56 145.267566 
L 259.488 145.922539 
L 268.416 146.015499 
L 277.344 146.492728 
L 286.272 148.480332 
L 295.2 148.528458 
L 304.128 151.062986 
L 313.056 152.140283 
L 321.984 152.320363 
L 330.912 166.325357 
L 339.84 167.472788 
L 348.768 167.548972 
L 357.696 167.887961 
L 366.624 167.89082 
L 375.552 167.953167 
L 384.48 168.071465 
L 393.408 168.126532 
L 402.336 168.274226 
L 411.264 168.401203 
L 420.192 168.533583 
L 429.12 168.852275 
L 438.048 168.862297 
L 446.976 170.884543 
L 455.904 172.12066 
L 464.832 172.279783 
L 473.76 173.819398 
L 482.688 173.823081 
L 491.616 173.916457 
L 500.544 174.13239 
L 509.472 174.359511 
L 518.4 174.630168 
L 518.4 175.721743 
L 518.4 175.721743 
L 509.472 175.419218 
L 500.544 175.163731 
L 491.616 174.922493 
L 482.688 174.817295 
L 473.76 174.813167 
L 464.832 173.183743 
L 455.904 173.007088 
L 446.976 171.66013 
L 438.048 169.490578 
L 429.12 169.479631 
L 420.192 169.138347 
L 411.264 168.989453 
L 402.336 168.852415 
L 393.408 168.696031 
L 384.48 168.63777 
L 375.552 168.51012 
L 366.624 168.439876 
L 357.696 168.436876 
L 348.768 168.076302 
L 339.84 167.994909 
L 330.912 166.793828 
L 321.984 155.082117 
L 313.056 154.827215 
L 304.128 153.370696 
L 295.2 150.519709 
L 286.272 150.458159 
L 277.344 148.078126 
L 268.416 147.499168 
L 259.488 147.382361 
L 250.56 146.607927 
L 241.632 146.450717 
L 232.704 143.427579 
L 223.776 142.14075 
L 214.848 141.806184 
L 205.92 140.712104 
L 196.992 140.686451 
L 188.064 138.296813 
L 179.136 137.355258 
L 170.208 136.245553 
L 161.28 135.848022 
L 152.352 135.025401 
L 143.424 133.665719 
L 134.496 133.358414 
L 125.568 132.580063 
L 116.64 130.394992 
L 107.712 112.339082 
L 98.784 111.825164 
L 89.856 102.917509 
L 80.928 100.728638 
L 72 102.171534 
z
" style="fill:#2ca02c;fill-opacity:0.3;"/>
   </g>
   <g id="PolyCollection_4">
    <path clip-path="url(#p4e2cc6aee9)" d="M 72 105.899448 
L 72 87.599984 
L 80.928 89.110997 
L 89.856 96.070416 
L 98.784 97.163551 
L 107.712 95.166407 
L 116.64 123.494633 
L 125.568 131.67203 
L 134.496 134.933853 
L 143.424 137.299325 
L 152.352 146.825797 
L 161.28 147.030221 
L 170.208 147.409848 
L 179.136 148.924258 
L 188.064 148.916534 
L 196.992 182.63429 
L 205.92 182.937056 
L 214.848 183.84673 
L 223.776 184.246032 
L 232.704 184.418421 
L 241.632 187.078846 
L 250.56 187.542089 
L 259.488 192.205172 
L 268.416 192.296378 
L 277.344 193.482368 
L 286.272 194.623056 
L 295.2 194.861317 
L 304.128 199.262421 
L 313.056 202.577557 
L 321.984 202.697902 
L 330.912 212.407052 
L 339.84 249.403679 
L 348.768 249.344078 
L 357.696 249.435782 
L 366.624 249.532808 
L 375.552 249.611453 
L 384.48 249.67865 
L 393.408 249.901276 
L 402.336 249.99238 
L 411.264 250.057727 
L 420.192 250.097164 
L 429.12 250.226249 
L 438.048 250.803967 
L 446.976 250.614871 
L 455.904 250.570585 
L 464.832 250.613033 
L 473.76 250.649521 
L 482.688 250.6986 
L 491.616 250.943284 
L 500.544 251.48456 
L 509.472 252.087214 
L 518.4 252.147148 
L 518.4 253.322295 
L 518.4 253.322295 
L 509.472 253.257555 
L 500.544 252.576377 
L 491.616 252.003888 
L 482.688 251.722639 
L 473.76 251.680248 
L 464.832 251.617901 
L 455.904 251.576796 
L 446.976 251.60986 
L 438.048 251.400291 
L 429.12 250.814906 
L 420.192 250.677194 
L 411.264 250.611797 
L 402.336 250.561754 
L 393.408 250.49167 
L 384.48 250.267511 
L 375.552 250.208534 
L 366.624 250.143364 
L 357.696 250.05853 
L 348.768 249.950591 
L 339.84 249.919151 
L 330.912 229.830054 
L 321.984 209.2939 
L 313.056 209.041471 
L 304.128 202.894163 
L 295.2 197.436438 
L 286.272 197.115989 
L 277.344 195.589254 
L 268.416 194.118739 
L 259.488 193.967216 
L 250.56 190.460916 
L 241.632 189.833045 
L 232.704 186.850443 
L 223.776 186.402325 
L 214.848 185.545532 
L 205.92 183.721974 
L 196.992 183.431549 
L 188.064 163.987081 
L 179.136 163.625463 
L 170.208 153.435905 
L 161.28 151.964807 
L 152.352 151.372855 
L 143.424 143.013789 
L 134.496 140.560462 
L 125.568 135.012554 
L 116.64 129.303358 
L 107.712 114.357523 
L 98.784 110.558428 
L 89.856 102.297494 
L 80.928 102.838835 
L 72 105.899448 
z
" style="fill:#d62728;fill-opacity:0.3;"/>
   </g>
   <g id="PolyCollection_5">
    <path clip-path="url(#p4e2cc6aee9)" d="M 72 102.107672 
L 72 84.803802 
L 80.928 87.169385 
L 89.856 94.514454 
L 98.784 95.603407 
L 107.712 92.410395 
L 116.64 120.34255 
L 125.568 128.642244 
L 134.496 131.635573 
L 143.424 137.697459 
L 152.352 152.465468 
L 161.28 153.51457 
L 170.208 153.494346 
L 179.136 151.715621 
L 188.064 149.889498 
L 196.992 213.66154 
L 205.92 214.766882 
L 214.848 214.956355 
L 223.776 214.950986 
L 232.704 215.143208 
L 241.632 217.657657 
L 250.56 218.153466 
L 259.488 228.494725 
L 268.416 229.327032 
L 277.344 230.524228 
L 286.272 231.432781 
L 295.2 231.448357 
L 304.128 237.427793 
L 313.056 240.473999 
L 321.984 240.037735 
L 330.912 243.286485 
L 339.84 258.226409 
L 348.768 260.552923 
L 357.696 260.29539 
L 366.624 260.059394 
L 375.552 259.829243 
L 384.48 259.612042 
L 393.408 260.679806 
L 402.336 260.489134 
L 411.264 260.309134 
L 420.192 260.135607 
L 429.12 259.969237 
L 438.048 271.226161 
L 446.976 271.077634 
L 455.904 270.93607 
L 464.832 270.803023 
L 473.76 270.670071 
L 482.688 270.602412 
L 491.616 270.880703 
L 500.544 270.769281 
L 509.472 270.663832 
L 518.4 270.555308 
L 518.4 272.843968 
L 518.4 272.843968 
L 509.472 272.949605 
L 500.544 273.049064 
L 491.616 273.155583 
L 482.688 273.023432 
L 473.76 273.103745 
L 464.832 273.23545 
L 455.904 273.36398 
L 446.976 273.50367 
L 438.048 273.65084 
L 429.12 265.227313 
L 420.192 265.389993 
L 411.264 265.559143 
L 402.336 265.72955 
L 393.408 265.91535 
L 384.48 265.358601 
L 375.552 265.567646 
L 366.624 265.790688 
L 357.696 266.02205 
L 348.768 266.269849 
L 339.84 262.005669 
L 330.912 248.031424 
L 321.984 243.187829 
L 313.056 243.654661 
L 304.128 239.798152 
L 295.2 235.268265 
L 286.272 235.433271 
L 277.344 234.265386 
L 268.416 232.773059 
L 259.488 232.15068 
L 250.56 223.571662 
L 241.632 222.541896 
L 232.704 218.863473 
L 223.776 218.146882 
L 214.848 216.614278 
L 205.92 216.142112 
L 196.992 214.797204 
L 188.064 182.273417 
L 179.136 177.097311 
L 170.208 161.397439 
L 161.28 159.048087 
L 152.352 155.928377 
L 143.424 149.30411 
L 134.496 143.387239 
L 125.568 133.291389 
L 116.64 127.137805 
L 107.712 108.726435 
L 98.784 107.250233 
L 89.856 100.952977 
L 80.928 100.013671 
L 72 102.107672 
z
" style="fill:#9467bd;fill-opacity:0.3;"/>
   </g>
   <g id="PolyCollection_6">
    <path clip-path="url(#p4e2cc6aee9)" d="M 72 104.493873 
L 72 88.606376 
L 80.928 90.163258 
L 89.856 96.391982 
L 98.784 100.206416 
L 107.712 101.029316 
L 116.64 100.500445 
L 125.568 100.146168 
L 134.496 102.889996 
L 143.424 117.324375 
L 152.352 135.428068 
L 161.28 160.476184 
L 170.208 183.990109 
L 179.136 177.363888 
L 188.064 178.266009 
L 196.992 229.938664 
L 205.92 230.654915 
L 214.848 247.792708 
L 223.776 286.014499 
L 232.704 282.655505 
L 241.632 281.874542 
L 250.56 287.509632 
L 259.488 287.221832 
L 268.416 293.835602 
L 277.344 298.808621 
L 286.272 298.962435 
L 295.2 299.315032 
L 304.128 299.620498 
L 313.056 293.272355 
L 321.984 299.755016 
L 330.912 299.769195 
L 339.84 342.72878 
L 348.768 345.057393 
L 357.696 344.806294 
L 366.624 344.788373 
L 375.552 341.639571 
L 384.48 337.737312 
L 393.408 342.161041 
L 402.336 342.69134 
L 411.264 345.91927 
L 420.192 345.940003 
L 429.12 346.019878 
L 438.048 355.797359 
L 446.976 355.647875 
L 455.904 355.894241 
L 464.832 355.817958 
L 473.76 355.946641 
L 482.688 355.860873 
L 491.616 357.406878 
L 500.544 357.459246 
L 509.472 354.965177 
L 518.4 357.526231 
L 518.4 358.66305 
L 518.4 358.66305 
L 509.472 360.207408 
L 500.544 358.653685 
L 491.616 358.53143 
L 482.688 357.139501 
L 473.76 357.038594 
L 464.832 356.938073 
L 455.904 357.145871 
L 446.976 356.850772 
L 438.048 357.005274 
L 429.12 349.184274 
L 420.192 349.231964 
L 411.264 349.076479 
L 402.336 349.978064 
L 393.408 350.350037 
L 384.48 351.519152 
L 375.552 350.280627 
L 366.624 348.242137 
L 357.696 348.496345 
L 348.768 348.433377 
L 339.84 345.076762 
L 330.912 300.595054 
L 321.984 300.608581 
L 313.056 305.458627 
L 304.128 300.574596 
L 295.2 300.395759 
L 286.272 299.752149 
L 277.344 299.785951 
L 268.416 295.788506 
L 259.488 292.307107 
L 250.56 292.388577 
L 241.632 285.638319 
L 232.704 285.902005 
L 223.776 297.174217 
L 214.848 282.348386 
L 205.92 279.128639 
L 196.992 232.023966 
L 188.064 201.987156 
L 179.136 194.888706 
L 170.208 188.908832 
L 161.28 187.847599 
L 152.352 157.533354 
L 143.424 147.227514 
L 134.496 135.417442 
L 125.568 125.781438 
L 116.64 123.270026 
L 107.712 108.993403 
L 98.784 108.798566 
L 89.856 102.316017 
L 80.928 102.610928 
L 72 104.493873 
z
" style="fill:#8c564b;fill-opacity:0.3;"/>
   </g>
   <g id="PolyCollection_7">
    <path clip-path="url(#p4e2cc6aee9)" d="M 72 100.024088 
L 72 93.240862 
L 80.928 96.093637 
L 89.856 97.288316 
L 98.784 98.97739 
L 107.712 99.744376 
L 116.64 100.221114 
L 125.568 100.49625 
L 134.496 100.497536 
L 143.424 100.404349 
L 152.352 100.411044 
L 161.28 100.623555 
L 170.208 100.631815 
L 179.136 100.580382 
L 188.064 100.672637 
L 196.992 100.692618 
L 205.92 100.69862 
L 214.848 100.705974 
L 223.776 100.665142 
L 232.704 100.552425 
L 241.632 100.71746 
L 250.56 100.725414 
L 259.488 100.730244 
L 268.416 100.73959 
L 277.344 100.735884 
L 286.272 100.679582 
L 295.2 100.663859 
L 304.128 100.661497 
L 313.056 100.662612 
L 321.984 100.660884 
L 330.912 100.755402 
L 339.84 100.7601 
L 348.768 100.761832 
L 357.696 100.713067 
L 366.624 100.731834 
L 375.552 100.742154 
L 384.48 100.729234 
L 393.408 100.739224 
L 402.336 100.758374 
L 411.264 100.768697 
L 420.192 100.769396 
L 429.12 100.76986 
L 438.048 100.771911 
L 446.976 100.713733 
L 455.904 100.748382 
L 464.832 100.759675 
L 473.76 100.766859 
L 482.688 100.774281 
L 491.616 100.775692 
L 500.544 100.773768 
L 509.472 100.775193 
L 518.4 100.769633 
L 518.4 100.781652 
L 518.4 100.781652 
L 509.472 100.785399 
L 500.544 100.790853 
L 491.616 100.786705 
L 482.688 100.788209 
L 473.76 100.789725 
L 464.832 100.793995 
L 455.904 100.795451 
L 446.976 100.785663 
L 438.048 100.787342 
L 429.12 100.790134 
L 420.192 100.789781 
L 411.264 100.789727 
L 402.336 100.794932 
L 393.408 100.799152 
L 384.48 100.798627 
L 375.552 100.799748 
L 366.624 100.801055 
L 357.696 100.798772 
L 348.768 100.787108 
L 339.84 100.789211 
L 330.912 100.792349 
L 321.984 100.742476 
L 313.056 100.744523 
L 304.128 100.744246 
L 295.2 100.745336 
L 286.272 100.752762 
L 277.344 100.768682 
L 268.416 100.789319 
L 259.488 100.794531 
L 250.56 100.79772 
L 241.632 100.804878 
L 232.704 100.707799 
L 223.776 100.745334 
L 214.848 100.765793 
L 205.92 100.771877 
L 196.992 100.791453 
L 188.064 100.80234 
L 179.136 100.71466 
L 170.208 100.735545 
L 161.28 100.789735 
L 152.352 100.664719 
L 143.424 100.6574 
L 134.496 100.691024 
L 125.568 100.775692 
L 116.64 100.906115 
L 107.712 101.047122 
L 98.784 100.946816 
L 89.856 100.306803 
L 80.928 100.105826 
L 72 100.024088 
z
" style="fill:#e377c2;fill-opacity:0.3;"/>
   </g>
   <g id="matplotlib.axis_1">
    <g id="xtick_1">
     <g id="line2d_1">
      <path clip-path="url(#p4e2cc6aee9)" d="M 72 384.48 
L 72 51.84 
" style="fill:none;stroke:#b0b0b0;stroke-linecap:square;stroke-width:0.8;"/>
     </g>
     <g id="line2d_2">
      <defs>
       <path d="M 0 0 
L 0 3.5 
" id="m72dd89c9b7" style="stroke:#000000;stroke-width:0.8;"/>
      </defs>
      <g>
       <use style="stroke:#000000;stroke-width:0.8;" x="72" xlink:href="#m72dd89c9b7" y="384.48"/>
      </g>
     </g>
     <g id="text_1">
      <!-- 0 -->
      <defs>
       <path d="M 31.78125 66.40625 
Q 24.171875 66.40625 20.328125 58.90625 
Q 16.5 51.421875 16.5 36.375 
Q 16.5 21.390625 20.328125 13.890625 
Q 24.171875 6.390625 31.78125 6.390625 
Q 39.453125 6.390625 43.28125 13.890625 
Q 47.125 21.390625 47.125 36.375 
Q 47.125 51.421875 43.28125 58.90625 
Q 39.453125 66.40625 31.78125 66.40625 
z
M 31.78125 74.21875 
Q 44.046875 74.21875 50.515625 64.515625 
Q 56.984375 54.828125 56.984375 36.375 
Q 56.984375 17.96875 50.515625 8.265625 
Q 44.046875 -1.421875 31.78125 -1.421875 
Q 19.53125 -1.421875 13.0625 8.265625 
Q 6.59375 17.96875 6.59375 36.375 
Q 6.59375 54.828125 13.0625 64.515625 
Q 19.53125 74.21875 31.78125 74.21875 
z
" id="DejaVuSans-48"/>
      </defs>
      <g transform="translate(68.81875 399.078438)scale(0.1 -0.1)">
       <use xlink:href="#DejaVuSans-48"/>
      </g>
     </g>
    </g>
    <g id="xtick_2">
     <g id="line2d_3">
      <path clip-path="url(#p4e2cc6aee9)" d="M 161.28 384.48 
L 161.28 51.84 
" style="fill:none;stroke:#b0b0b0;stroke-linecap:square;stroke-width:0.8;"/>
     </g>
     <g id="line2d_4">
      <g>
       <use style="stroke:#000000;stroke-width:0.8;" x="161.28" xlink:href="#m72dd89c9b7" y="384.48"/>
      </g>
     </g>
     <g id="text_2">
      <!-- 10 -->
      <defs>
       <path d="M 12.40625 8.296875 
L 28.515625 8.296875 
L 28.515625 63.921875 
L 10.984375 60.40625 
L 10.984375 69.390625 
L 28.421875 72.90625 
L 38.28125 72.90625 
L 38.28125 8.296875 
L 54.390625 8.296875 
L 54.390625 0 
L 12.40625 0 
z
" id="DejaVuSans-49"/>
      </defs>
      <g transform="translate(154.9175 399.078438)scale(0.1 -0.1)">
       <use xlink:href="#DejaVuSans-49"/>
       <use x="63.623047" xlink:href="#DejaVuSans-48"/>
      </g>
     </g>
    </g>
    <g id="xtick_3">
     <g id="line2d_5">
      <path clip-path="url(#p4e2cc6aee9)" d="M 250.56 384.48 
L 250.56 51.84 
" style="fill:none;stroke:#b0b0b0;stroke-linecap:square;stroke-width:0.8;"/>
     </g>
     <g id="line2d_6">
      <g>
       <use style="stroke:#000000;stroke-width:0.8;" x="250.56" xlink:href="#m72dd89c9b7" y="384.48"/>
      </g>
     </g>
     <g id="text_3">
      <!-- 20 -->
      <defs>
       <path d="M 19.1875 8.296875 
L 53.609375 8.296875 
L 53.609375 0 
L 7.328125 0 
L 7.328125 8.296875 
Q 12.9375 14.109375 22.625 23.890625 
Q 32.328125 33.6875 34.8125 36.53125 
Q 39.546875 41.84375 41.421875 45.53125 
Q 43.3125 49.21875 43.3125 52.78125 
Q 43.3125 58.59375 39.234375 62.25 
Q 35.15625 65.921875 28.609375 65.921875 
Q 23.96875 65.921875 18.8125 64.3125 
Q 13.671875 62.703125 7.8125 59.421875 
L 7.8125 69.390625 
Q 13.765625 71.78125 18.9375 73 
Q 24.125 74.21875 28.421875 74.21875 
Q 39.75 74.21875 46.484375 68.546875 
Q 53.21875 62.890625 53.21875 53.421875 
Q 53.21875 48.921875 51.53125 44.890625 
Q 49.859375 40.875 45.40625 35.40625 
Q 44.1875 33.984375 37.640625 27.21875 
Q 31.109375 20.453125 19.1875 8.296875 
z
" id="DejaVuSans-50"/>
      </defs>
      <g transform="translate(244.1975 399.078438)scale(0.1 -0.1)">
       <use xlink:href="#DejaVuSans-50"/>
       <use x="63.623047" xlink:href="#DejaVuSans-48"/>
      </g>
     </g>
    </g>
    <g id="xtick_4">
     <g id="line2d_7">
      <path clip-path="url(#p4e2cc6aee9)" d="M 339.84 384.48 
L 339.84 51.84 
" style="fill:none;stroke:#b0b0b0;stroke-linecap:square;stroke-width:0.8;"/>
     </g>
     <g id="line2d_8">
      <g>
       <use style="stroke:#000000;stroke-width:0.8;" x="339.84" xlink:href="#m72dd89c9b7" y="384.48"/>
      </g>
     </g>
     <g id="text_4">
      <!-- 30 -->
      <defs>
       <path d="M 40.578125 39.3125 
Q 47.65625 37.796875 51.625 33 
Q 55.609375 28.21875 55.609375 21.1875 
Q 55.609375 10.40625 48.1875 4.484375 
Q 40.765625 -1.421875 27.09375 -1.421875 
Q 22.515625 -1.421875 17.65625 -0.515625 
Q 12.796875 0.390625 7.625 2.203125 
L 7.625 11.71875 
Q 11.71875 9.328125 16.59375 8.109375 
Q 21.484375 6.890625 26.8125 6.890625 
Q 36.078125 6.890625 40.9375 10.546875 
Q 45.796875 14.203125 45.796875 21.1875 
Q 45.796875 27.640625 41.28125 31.265625 
Q 36.765625 34.90625 28.71875 34.90625 
L 20.21875 34.90625 
L 20.21875 43.015625 
L 29.109375 43.015625 
Q 36.375 43.015625 40.234375 45.921875 
Q 44.09375 48.828125 44.09375 54.296875 
Q 44.09375 59.90625 40.109375 62.90625 
Q 36.140625 65.921875 28.71875 65.921875 
Q 24.65625 65.921875 20.015625 65.03125 
Q 15.375 64.15625 9.8125 62.3125 
L 9.8125 71.09375 
Q 15.4375 72.65625 20.34375 73.4375 
Q 25.25 74.21875 29.59375 74.21875 
Q 40.828125 74.21875 47.359375 69.109375 
Q 53.90625 64.015625 53.90625 55.328125 
Q 53.90625 49.265625 50.4375 45.09375 
Q 46.96875 40.921875 40.578125 39.3125 
z
" id="DejaVuSans-51"/>
      </defs>
      <g transform="translate(333.4775 399.078438)scale(0.1 -0.1)">
       <use xlink:href="#DejaVuSans-51"/>
       <use x="63.623047" xlink:href="#DejaVuSans-48"/>
      </g>
     </g>
    </g>
    <g id="xtick_5">
     <g id="line2d_9">
      <path clip-path="url(#p4e2cc6aee9)" d="M 429.12 384.48 
L 429.12 51.84 
" style="fill:none;stroke:#b0b0b0;stroke-linecap:square;stroke-width:0.8;"/>
     </g>
     <g id="line2d_10">
      <g>
       <use style="stroke:#000000;stroke-width:0.8;" x="429.12" xlink:href="#m72dd89c9b7" y="384.48"/>
      </g>
     </g>
     <g id="text_5">
      <!-- 40 -->
      <defs>
       <path d="M 37.796875 64.3125 
L 12.890625 25.390625 
L 37.796875 25.390625 
z
M 35.203125 72.90625 
L 47.609375 72.90625 
L 47.609375 25.390625 
L 58.015625 25.390625 
L 58.015625 17.1875 
L 47.609375 17.1875 
L 47.609375 0 
L 37.796875 0 
L 37.796875 17.1875 
L 4.890625 17.1875 
L 4.890625 26.703125 
z
" id="DejaVuSans-52"/>
      </defs>
      <g transform="translate(422.7575 399.078438)scale(0.1 -0.1)">
       <use xlink:href="#DejaVuSans-52"/>
       <use x="63.623047" xlink:href="#DejaVuSans-48"/>
      </g>
     </g>
    </g>
    <g id="xtick_6">
     <g id="line2d_11">
      <path clip-path="url(#p4e2cc6aee9)" d="M 518.4 384.48 
L 518.4 51.84 
" style="fill:none;stroke:#b0b0b0;stroke-linecap:square;stroke-width:0.8;"/>
     </g>
     <g id="line2d_12">
      <g>
       <use style="stroke:#000000;stroke-width:0.8;" x="518.4" xlink:href="#m72dd89c9b7" y="384.48"/>
      </g>
     </g>
     <g id="text_6">
      <!-- 50 -->
      <defs>
       <path d="M 10.796875 72.90625 
L 49.515625 72.90625 
L 49.515625 64.59375 
L 19.828125 64.59375 
L 19.828125 46.734375 
Q 21.96875 47.46875 24.109375 47.828125 
Q 26.265625 48.1875 28.421875 48.1875 
Q 40.625 48.1875 47.75 41.5 
Q 54.890625 34.8125 54.890625 23.390625 
Q 54.890625 11.625 47.5625 5.09375 
Q 40.234375 -1.421875 26.90625 -1.421875 
Q 22.3125 -1.421875 17.546875 -0.640625 
Q 12.796875 0.140625 7.71875 1.703125 
L 7.71875 11.625 
Q 12.109375 9.234375 16.796875 8.0625 
Q 21.484375 6.890625 26.703125 6.890625 
Q 35.15625 6.890625 40.078125 11.328125 
Q 45.015625 15.765625 45.015625 23.390625 
Q 45.015625 31 40.078125 35.4375 
Q 35.15625 39.890625 26.703125 39.890625 
Q 22.75 39.890625 18.8125 39.015625 
Q 14.890625 38.140625 10.796875 36.28125 
z
" id="DejaVuSans-53"/>
      </defs>
      <g transform="translate(512.0375 399.078438)scale(0.1 -0.1)">
       <use xlink:href="#DejaVuSans-53"/>
       <use x="63.623047" xlink:href="#DejaVuSans-48"/>
      </g>
     </g>
    </g>
    <g id="text_7">
     <!-- Iteration -->
     <defs>
      <path d="M 9.8125 72.90625 
L 19.671875 72.90625 
L 19.671875 0 
L 9.8125 0 
z
" id="DejaVuSans-73"/>
      <path d="M 18.3125 70.21875 
L 18.3125 54.6875 
L 36.8125 54.6875 
L 36.8125 47.703125 
L 18.3125 47.703125 
L 18.3125 18.015625 
Q 18.3125 11.328125 20.140625 9.421875 
Q 21.96875 7.515625 27.59375 7.515625 
L 36.8125 7.515625 
L 36.8125 0 
L 27.59375 0 
Q 17.1875 0 13.234375 3.875 
Q 9.28125 7.765625 9.28125 18.015625 
L 9.28125 47.703125 
L 2.6875 47.703125 
L 2.6875 54.6875 
L 9.28125 54.6875 
L 9.28125 70.21875 
z
" id="DejaVuSans-116"/>
      <path d="M 56.203125 29.59375 
L 56.203125 25.203125 
L 14.890625 25.203125 
Q 15.484375 15.921875 20.484375 11.0625 
Q 25.484375 6.203125 34.421875 6.203125 
Q 39.59375 6.203125 44.453125 7.46875 
Q 49.3125 8.734375 54.109375 11.28125 
L 54.109375 2.78125 
Q 49.265625 0.734375 44.1875 -0.34375 
Q 39.109375 -1.421875 33.890625 -1.421875 
Q 20.796875 -1.421875 13.15625 6.1875 
Q 5.515625 13.8125 5.515625 26.8125 
Q 5.515625 40.234375 12.765625 48.109375 
Q 20.015625 56 32.328125 56 
Q 43.359375 56 49.78125 48.890625 
Q 56.203125 41.796875 56.203125 29.59375 
z
M 47.21875 32.234375 
Q 47.125 39.59375 43.09375 43.984375 
Q 39.0625 48.390625 32.421875 48.390625 
Q 24.90625 48.390625 20.390625 44.140625 
Q 15.875 39.890625 15.1875 32.171875 
z
" id="DejaVuSans-101"/>
      <path d="M 41.109375 46.296875 
Q 39.59375 47.171875 37.8125 47.578125 
Q 36.03125 48 33.890625 48 
Q 26.265625 48 22.1875 43.046875 
Q 18.109375 38.09375 18.109375 28.8125 
L 18.109375 0 
L 9.078125 0 
L 9.078125 54.6875 
L 18.109375 54.6875 
L 18.109375 46.1875 
Q 20.953125 51.171875 25.484375 53.578125 
Q 30.03125 56 36.53125 56 
Q 37.453125 56 38.578125 55.875 
Q 39.703125 55.765625 41.0625 55.515625 
z
" id="DejaVuSans-114"/>
      <path d="M 34.28125 27.484375 
Q 23.390625 27.484375 19.1875 25 
Q 14.984375 22.515625 14.984375 16.5 
Q 14.984375 11.71875 18.140625 8.90625 
Q 21.296875 6.109375 26.703125 6.109375 
Q 34.1875 6.109375 38.703125 11.40625 
Q 43.21875 16.703125 43.21875 25.484375 
L 43.21875 27.484375 
z
M 52.203125 31.203125 
L 52.203125 0 
L 43.21875 0 
L 43.21875 8.296875 
Q 40.140625 3.328125 35.546875 0.953125 
Q 30.953125 -1.421875 24.3125 -1.421875 
Q 15.921875 -1.421875 10.953125 3.296875 
Q 6 8.015625 6 15.921875 
Q 6 25.140625 12.171875 29.828125 
Q 18.359375 34.515625 30.609375 34.515625 
L 43.21875 34.515625 
L 43.21875 35.40625 
Q 43.21875 41.609375 39.140625 45 
Q 35.0625 48.390625 27.6875 48.390625 
Q 23 48.390625 18.546875 47.265625 
Q 14.109375 46.140625 10.015625 43.890625 
L 10.015625 52.203125 
Q 14.9375 54.109375 19.578125 55.046875 
Q 24.21875 56 28.609375 56 
Q 40.484375 56 46.34375 49.84375 
Q 52.203125 43.703125 52.203125 31.203125 
z
" id="DejaVuSans-97"/>
      <path d="M 9.421875 54.6875 
L 18.40625 54.6875 
L 18.40625 0 
L 9.421875 0 
z
M 9.421875 75.984375 
L 18.40625 75.984375 
L 18.40625 64.59375 
L 9.421875 64.59375 
z
" id="DejaVuSans-105"/>
      <path d="M 30.609375 48.390625 
Q 23.390625 48.390625 19.1875 42.75 
Q 14.984375 37.109375 14.984375 27.296875 
Q 14.984375 17.484375 19.15625 11.84375 
Q 23.34375 6.203125 30.609375 6.203125 
Q 37.796875 6.203125 41.984375 11.859375 
Q 46.1875 17.53125 46.1875 27.296875 
Q 46.1875 37.015625 41.984375 42.703125 
Q 37.796875 48.390625 30.609375 48.390625 
z
M 30.609375 56 
Q 42.328125 56 49.015625 48.375 
Q 55.71875 40.765625 55.71875 27.296875 
Q 55.71875 13.875 49.015625 6.21875 
Q 42.328125 -1.421875 30.609375 -1.421875 
Q 18.84375 -1.421875 12.171875 6.21875 
Q 5.515625 13.875 5.515625 27.296875 
Q 5.515625 40.765625 12.171875 48.375 
Q 18.84375 56 30.609375 56 
z
" id="DejaVuSans-111"/>
      <path d="M 54.890625 33.015625 
L 54.890625 0 
L 45.90625 0 
L 45.90625 32.71875 
Q 45.90625 40.484375 42.875 44.328125 
Q 39.84375 48.1875 33.796875 48.1875 
Q 26.515625 48.1875 22.3125 43.546875 
Q 18.109375 38.921875 18.109375 30.90625 
L 18.109375 0 
L 9.078125 0 
L 9.078125 54.6875 
L 18.109375 54.6875 
L 18.109375 46.1875 
Q 21.34375 51.125 25.703125 53.5625 
Q 30.078125 56 35.796875 56 
Q 45.21875 56 50.046875 50.171875 
Q 54.890625 44.34375 54.890625 33.015625 
z
" id="DejaVuSans-110"/>
     </defs>
     <g transform="translate(273.991406 412.756563)scale(0.1 -0.1)">
      <use xlink:href="#DejaVuSans-73"/>
      <use x="29.492188" xlink:href="#DejaVuSans-116"/>
      <use x="68.701172" xlink:href="#DejaVuSans-101"/>
      <use x="130.224609" xlink:href="#DejaVuSans-114"/>
      <use x="171.337891" xlink:href="#DejaVuSans-97"/>
      <use x="232.617188" xlink:href="#DejaVuSans-116"/>
      <use x="271.826172" xlink:href="#DejaVuSans-105"/>
      <use x="299.609375" xlink:href="#DejaVuSans-111"/>
      <use x="360.791016" xlink:href="#DejaVuSans-110"/>
     </g>
    </g>
   </g>
   <g id="matplotlib.axis_2">
    <g id="ytick_1">
     <g id="line2d_13">
      <path clip-path="url(#p4e2cc6aee9)" d="M 72 384.48 
L 518.4 384.48 
" style="fill:none;stroke:#b0b0b0;stroke-linecap:square;stroke-width:0.8;"/>
     </g>
     <g id="line2d_14">
      <defs>
       <path d="M 0 0 
L -3.5 0 
" id="mf028d8914f" style="stroke:#000000;stroke-width:0.8;"/>
      </defs>
      <g>
       <use style="stroke:#000000;stroke-width:0.8;" x="72" xlink:href="#mf028d8914f" y="384.48"/>
      </g>
     </g>
     <g id="text_8">
      <!-- $\mathdefault{10^{-12}}$ -->
      <defs>
       <path d="M 10.59375 35.5 
L 73.1875 35.5 
L 73.1875 27.203125 
L 10.59375 27.203125 
z
" id="DejaVuSans-8722"/>
      </defs>
      <g transform="translate(37.1 388.279219)scale(0.1 -0.1)">
       <use transform="translate(0 0.765625)" xlink:href="#DejaVuSans-49"/>
       <use transform="translate(63.623047 0.765625)" xlink:href="#DejaVuSans-48"/>
       <use transform="translate(128.203125 39.046875)scale(0.7)" xlink:href="#DejaVuSans-8722"/>
       <use transform="translate(186.855469 39.046875)scale(0.7)" xlink:href="#DejaVuSans-49"/>
       <use transform="translate(231.391602 39.046875)scale(0.7)" xlink:href="#DejaVuSans-50"/>
      </g>
     </g>
    </g>
    <g id="ytick_2">
     <g id="line2d_15">
      <path clip-path="url(#p4e2cc6aee9)" d="M 72 336.96 
L 518.4 336.96 
" style="fill:none;stroke:#b0b0b0;stroke-linecap:square;stroke-width:0.8;"/>
     </g>
     <g id="line2d_16">
      <g>
       <use style="stroke:#000000;stroke-width:0.8;" x="72" xlink:href="#mf028d8914f" y="336.96"/>
      </g>
     </g>
     <g id="text_9">
      <!-- $\mathdefault{10^{-10}}$ -->
      <g transform="translate(37.1 340.759219)scale(0.1 -0.1)">
       <use transform="translate(0 0.765625)" xlink:href="#DejaVuSans-49"/>
       <use transform="translate(63.623047 0.765625)" xlink:href="#DejaVuSans-48"/>
       <use transform="translate(128.203125 39.046875)scale(0.7)" xlink:href="#DejaVuSans-8722"/>
       <use transform="translate(186.855469 39.046875)scale(0.7)" xlink:href="#DejaVuSans-49"/>
       <use transform="translate(231.391602 39.046875)scale(0.7)" xlink:href="#DejaVuSans-48"/>
      </g>
     </g>
    </g>
    <g id="ytick_3">
     <g id="line2d_17">
      <path clip-path="url(#p4e2cc6aee9)" d="M 72 289.44 
L 518.4 289.44 
" style="fill:none;stroke:#b0b0b0;stroke-linecap:square;stroke-width:0.8;"/>
     </g>
     <g id="line2d_18">
      <g>
       <use style="stroke:#000000;stroke-width:0.8;" x="72" xlink:href="#mf028d8914f" y="289.44"/>
      </g>
     </g>
     <g id="text_10">
      <!-- $\mathdefault{10^{-8}}$ -->
      <defs>
       <path d="M 31.78125 34.625 
Q 24.75 34.625 20.71875 30.859375 
Q 16.703125 27.09375 16.703125 20.515625 
Q 16.703125 13.921875 20.71875 10.15625 
Q 24.75 6.390625 31.78125 6.390625 
Q 38.8125 6.390625 42.859375 10.171875 
Q 46.921875 13.96875 46.921875 20.515625 
Q 46.921875 27.09375 42.890625 30.859375 
Q 38.875 34.625 31.78125 34.625 
z
M 21.921875 38.8125 
Q 15.578125 40.375 12.03125 44.71875 
Q 8.5 49.078125 8.5 55.328125 
Q 8.5 64.0625 14.71875 69.140625 
Q 20.953125 74.21875 31.78125 74.21875 
Q 42.671875 74.21875 48.875 69.140625 
Q 55.078125 64.0625 55.078125 55.328125 
Q 55.078125 49.078125 51.53125 44.71875 
Q 48 40.375 41.703125 38.8125 
Q 48.828125 37.15625 52.796875 32.3125 
Q 56.78125 27.484375 56.78125 20.515625 
Q 56.78125 9.90625 50.3125 4.234375 
Q 43.84375 -1.421875 31.78125 -1.421875 
Q 19.734375 -1.421875 13.25 4.234375 
Q 6.78125 9.90625 6.78125 20.515625 
Q 6.78125 27.484375 10.78125 32.3125 
Q 14.796875 37.15625 21.921875 38.8125 
z
M 18.3125 54.390625 
Q 18.3125 48.734375 21.84375 45.5625 
Q 25.390625 42.390625 31.78125 42.390625 
Q 38.140625 42.390625 41.71875 45.5625 
Q 45.3125 48.734375 45.3125 54.390625 
Q 45.3125 60.0625 41.71875 63.234375 
Q 38.140625 66.40625 31.78125 66.40625 
Q 25.390625 66.40625 21.84375 63.234375 
Q 18.3125 60.0625 18.3125 54.390625 
z
" id="DejaVuSans-56"/>
      </defs>
      <g transform="translate(41.5 293.239219)scale(0.1 -0.1)">
       <use transform="translate(0 0.765625)" xlink:href="#DejaVuSans-49"/>
       <use transform="translate(63.623047 0.765625)" xlink:href="#DejaVuSans-48"/>
       <use transform="translate(128.203125 39.046875)scale(0.7)" xlink:href="#DejaVuSans-8722"/>
       <use transform="translate(186.855469 39.046875)scale(0.7)" xlink:href="#DejaVuSans-56"/>
      </g>
     </g>
    </g>
    <g id="ytick_4">
     <g id="line2d_19">
      <path clip-path="url(#p4e2cc6aee9)" d="M 72 241.92 
L 518.4 241.92 
" style="fill:none;stroke:#b0b0b0;stroke-linecap:square;stroke-width:0.8;"/>
     </g>
     <g id="line2d_20">
      <g>
       <use style="stroke:#000000;stroke-width:0.8;" x="72" xlink:href="#mf028d8914f" y="241.92"/>
      </g>
     </g>
     <g id="text_11">
      <!-- $\mathdefault{10^{-6}}$ -->
      <defs>
       <path d="M 33.015625 40.375 
Q 26.375 40.375 22.484375 35.828125 
Q 18.609375 31.296875 18.609375 23.390625 
Q 18.609375 15.53125 22.484375 10.953125 
Q 26.375 6.390625 33.015625 6.390625 
Q 39.65625 6.390625 43.53125 10.953125 
Q 47.40625 15.53125 47.40625 23.390625 
Q 47.40625 31.296875 43.53125 35.828125 
Q 39.65625 40.375 33.015625 40.375 
z
M 52.59375 71.296875 
L 52.59375 62.3125 
Q 48.875 64.0625 45.09375 64.984375 
Q 41.3125 65.921875 37.59375 65.921875 
Q 27.828125 65.921875 22.671875 59.328125 
Q 17.53125 52.734375 16.796875 39.40625 
Q 19.671875 43.65625 24.015625 45.921875 
Q 28.375 48.1875 33.59375 48.1875 
Q 44.578125 48.1875 50.953125 41.515625 
Q 57.328125 34.859375 57.328125 23.390625 
Q 57.328125 12.15625 50.6875 5.359375 
Q 44.046875 -1.421875 33.015625 -1.421875 
Q 20.359375 -1.421875 13.671875 8.265625 
Q 6.984375 17.96875 6.984375 36.375 
Q 6.984375 53.65625 15.1875 63.9375 
Q 23.390625 74.21875 37.203125 74.21875 
Q 40.921875 74.21875 44.703125 73.484375 
Q 48.484375 72.75 52.59375 71.296875 
z
" id="DejaVuSans-54"/>
      </defs>
      <g transform="translate(41.5 245.719219)scale(0.1 -0.1)">
       <use transform="translate(0 0.765625)" xlink:href="#DejaVuSans-49"/>
       <use transform="translate(63.623047 0.765625)" xlink:href="#DejaVuSans-48"/>
       <use transform="translate(128.203125 39.046875)scale(0.7)" xlink:href="#DejaVuSans-8722"/>
       <use transform="translate(186.855469 39.046875)scale(0.7)" xlink:href="#DejaVuSans-54"/>
      </g>
     </g>
    </g>
    <g id="ytick_5">
     <g id="line2d_21">
      <path clip-path="url(#p4e2cc6aee9)" d="M 72 194.4 
L 518.4 194.4 
" style="fill:none;stroke:#b0b0b0;stroke-linecap:square;stroke-width:0.8;"/>
     </g>
     <g id="line2d_22">
      <g>
       <use style="stroke:#000000;stroke-width:0.8;" x="72" xlink:href="#mf028d8914f" y="194.4"/>
      </g>
     </g>
     <g id="text_12">
      <!-- $\mathdefault{10^{-4}}$ -->
      <g transform="translate(41.5 198.199219)scale(0.1 -0.1)">
       <use transform="translate(0 0.684375)" xlink:href="#DejaVuSans-49"/>
       <use transform="translate(63.623047 0.684375)" xlink:href="#DejaVuSans-48"/>
       <use transform="translate(128.203125 38.965625)scale(0.7)" xlink:href="#DejaVuSans-8722"/>
       <use transform="translate(186.855469 38.965625)scale(0.7)" xlink:href="#DejaVuSans-52"/>
      </g>
     </g>
    </g>
    <g id="ytick_6">
     <g id="line2d_23">
      <path clip-path="url(#p4e2cc6aee9)" d="M 72 146.88 
L 518.4 146.88 
" style="fill:none;stroke:#b0b0b0;stroke-linecap:square;stroke-width:0.8;"/>
     </g>
     <g id="line2d_24">
      <g>
       <use style="stroke:#000000;stroke-width:0.8;" x="72" xlink:href="#mf028d8914f" y="146.88"/>
      </g>
     </g>
     <g id="text_13">
      <!-- $\mathdefault{10^{-2}}$ -->
      <g transform="translate(41.5 150.679219)scale(0.1 -0.1)">
       <use transform="translate(0 0.765625)" xlink:href="#DejaVuSans-49"/>
       <use transform="translate(63.623047 0.765625)" xlink:href="#DejaVuSans-48"/>
       <use transform="translate(128.203125 39.046875)scale(0.7)" xlink:href="#DejaVuSans-8722"/>
       <use transform="translate(186.855469 39.046875)scale(0.7)" xlink:href="#DejaVuSans-50"/>
      </g>
     </g>
    </g>
    <g id="ytick_7">
     <g id="line2d_25">
      <path clip-path="url(#p4e2cc6aee9)" d="M 72 99.36 
L 518.4 99.36 
" style="fill:none;stroke:#b0b0b0;stroke-linecap:square;stroke-width:0.8;"/>
     </g>
     <g id="line2d_26">
      <g>
       <use style="stroke:#000000;stroke-width:0.8;" x="72" xlink:href="#mf028d8914f" y="99.36"/>
      </g>
     </g>
     <g id="text_14">
      <!-- $\mathdefault{10^{0}}$ -->
      <g transform="translate(47.4 103.159219)scale(0.1 -0.1)">
       <use transform="translate(0 0.765625)" xlink:href="#DejaVuSans-49"/>
       <use transform="translate(63.623047 0.765625)" xlink:href="#DejaVuSans-48"/>
       <use transform="translate(128.203125 39.046875)scale(0.7)" xlink:href="#DejaVuSans-48"/>
      </g>
     </g>
    </g>
    <g id="ytick_8">
     <g id="line2d_27">
      <path clip-path="url(#p4e2cc6aee9)" d="M 72 51.84 
L 518.4 51.84 
" style="fill:none;stroke:#b0b0b0;stroke-linecap:square;stroke-width:0.8;"/>
     </g>
     <g id="line2d_28">
      <g>
       <use style="stroke:#000000;stroke-width:0.8;" x="72" xlink:href="#mf028d8914f" y="51.84"/>
      </g>
     </g>
     <g id="text_15">
      <!-- $\mathdefault{10^{2}}$ -->
      <g transform="translate(47.4 55.639219)scale(0.1 -0.1)">
       <use transform="translate(0 0.765625)" xlink:href="#DejaVuSans-49"/>
       <use transform="translate(63.623047 0.765625)" xlink:href="#DejaVuSans-48"/>
       <use transform="translate(128.203125 39.046875)scale(0.7)" xlink:href="#DejaVuSans-50"/>
      </g>
     </g>
    </g>
    <g id="text_16">
     <!-- Integrated Squared Error -->
     <defs>
      <path d="M 45.40625 27.984375 
Q 45.40625 37.75 41.375 43.109375 
Q 37.359375 48.484375 30.078125 48.484375 
Q 22.859375 48.484375 18.828125 43.109375 
Q 14.796875 37.75 14.796875 27.984375 
Q 14.796875 18.265625 18.828125 12.890625 
Q 22.859375 7.515625 30.078125 7.515625 
Q 37.359375 7.515625 41.375 12.890625 
Q 45.40625 18.265625 45.40625 27.984375 
z
M 54.390625 6.78125 
Q 54.390625 -7.171875 48.1875 -13.984375 
Q 42 -20.796875 29.203125 -20.796875 
Q 24.46875 -20.796875 20.265625 -20.09375 
Q 16.0625 -19.390625 12.109375 -17.921875 
L 12.109375 -9.1875 
Q 16.0625 -11.328125 19.921875 -12.34375 
Q 23.78125 -13.375 27.78125 -13.375 
Q 36.625 -13.375 41.015625 -8.765625 
Q 45.40625 -4.15625 45.40625 5.171875 
L 45.40625 9.625 
Q 42.625 4.78125 38.28125 2.390625 
Q 33.9375 0 27.875 0 
Q 17.828125 0 11.671875 7.65625 
Q 5.515625 15.328125 5.515625 27.984375 
Q 5.515625 40.671875 11.671875 48.328125 
Q 17.828125 56 27.875 56 
Q 33.9375 56 38.28125 53.609375 
Q 42.625 51.21875 45.40625 46.390625 
L 45.40625 54.6875 
L 54.390625 54.6875 
z
" id="DejaVuSans-103"/>
      <path d="M 45.40625 46.390625 
L 45.40625 75.984375 
L 54.390625 75.984375 
L 54.390625 0 
L 45.40625 0 
L 45.40625 8.203125 
Q 42.578125 3.328125 38.25 0.953125 
Q 33.9375 -1.421875 27.875 -1.421875 
Q 17.96875 -1.421875 11.734375 6.484375 
Q 5.515625 14.40625 5.515625 27.296875 
Q 5.515625 40.1875 11.734375 48.09375 
Q 17.96875 56 27.875 56 
Q 33.9375 56 38.25 53.625 
Q 42.578125 51.265625 45.40625 46.390625 
z
M 14.796875 27.296875 
Q 14.796875 17.390625 18.875 11.75 
Q 22.953125 6.109375 30.078125 6.109375 
Q 37.203125 6.109375 41.296875 11.75 
Q 45.40625 17.390625 45.40625 27.296875 
Q 45.40625 37.203125 41.296875 42.84375 
Q 37.203125 48.484375 30.078125 48.484375 
Q 22.953125 48.484375 18.875 42.84375 
Q 14.796875 37.203125 14.796875 27.296875 
z
" id="DejaVuSans-100"/>
      <path id="DejaVuSans-32"/>
      <path d="M 53.515625 70.515625 
L 53.515625 60.890625 
Q 47.90625 63.578125 42.921875 64.890625 
Q 37.9375 66.21875 33.296875 66.21875 
Q 25.25 66.21875 20.875 63.09375 
Q 16.5 59.96875 16.5 54.203125 
Q 16.5 49.359375 19.40625 46.890625 
Q 22.3125 44.4375 30.421875 42.921875 
L 36.375 41.703125 
Q 47.40625 39.59375 52.65625 34.296875 
Q 57.90625 29 57.90625 20.125 
Q 57.90625 9.515625 50.796875 4.046875 
Q 43.703125 -1.421875 29.984375 -1.421875 
Q 24.8125 -1.421875 18.96875 -0.25 
Q 13.140625 0.921875 6.890625 3.21875 
L 6.890625 13.375 
Q 12.890625 10.015625 18.65625 8.296875 
Q 24.421875 6.59375 29.984375 6.59375 
Q 38.421875 6.59375 43.015625 9.90625 
Q 47.609375 13.234375 47.609375 19.390625 
Q 47.609375 24.75 44.3125 27.78125 
Q 41.015625 30.8125 33.5 32.328125 
L 27.484375 33.5 
Q 16.453125 35.6875 11.515625 40.375 
Q 6.59375 45.0625 6.59375 53.421875 
Q 6.59375 63.09375 13.40625 68.65625 
Q 20.21875 74.21875 32.171875 74.21875 
Q 37.3125 74.21875 42.625 73.28125 
Q 47.953125 72.359375 53.515625 70.515625 
z
" id="DejaVuSans-83"/>
      <path d="M 14.796875 27.296875 
Q 14.796875 17.390625 18.875 11.75 
Q 22.953125 6.109375 30.078125 6.109375 
Q 37.203125 6.109375 41.296875 11.75 
Q 45.40625 17.390625 45.40625 27.296875 
Q 45.40625 37.203125 41.296875 42.84375 
Q 37.203125 48.484375 30.078125 48.484375 
Q 22.953125 48.484375 18.875 42.84375 
Q 14.796875 37.203125 14.796875 27.296875 
z
M 45.40625 8.203125 
Q 42.578125 3.328125 38.25 0.953125 
Q 33.9375 -1.421875 27.875 -1.421875 
Q 17.96875 -1.421875 11.734375 6.484375 
Q 5.515625 14.40625 5.515625 27.296875 
Q 5.515625 40.1875 11.734375 48.09375 
Q 17.96875 56 27.875 56 
Q 33.9375 56 38.25 53.625 
Q 42.578125 51.265625 45.40625 46.390625 
L 45.40625 54.6875 
L 54.390625 54.6875 
L 54.390625 -20.796875 
L 45.40625 -20.796875 
z
" id="DejaVuSans-113"/>
      <path d="M 8.5 21.578125 
L 8.5 54.6875 
L 17.484375 54.6875 
L 17.484375 21.921875 
Q 17.484375 14.15625 20.5 10.265625 
Q 23.53125 6.390625 29.59375 6.390625 
Q 36.859375 6.390625 41.078125 11.03125 
Q 45.3125 15.671875 45.3125 23.6875 
L 45.3125 54.6875 
L 54.296875 54.6875 
L 54.296875 0 
L 45.3125 0 
L 45.3125 8.40625 
Q 42.046875 3.421875 37.71875 1 
Q 33.40625 -1.421875 27.6875 -1.421875 
Q 18.265625 -1.421875 13.375 4.4375 
Q 8.5 10.296875 8.5 21.578125 
z
M 31.109375 56 
z
" id="DejaVuSans-117"/>
      <path d="M 9.8125 72.90625 
L 55.90625 72.90625 
L 55.90625 64.59375 
L 19.671875 64.59375 
L 19.671875 43.015625 
L 54.390625 43.015625 
L 54.390625 34.71875 
L 19.671875 34.71875 
L 19.671875 8.296875 
L 56.78125 8.296875 
L 56.78125 0 
L 9.8125 0 
z
" id="DejaVuSans-69"/>
     </defs>
     <g transform="translate(31.020312 280.483437)rotate(-90)scale(0.1 -0.1)">
      <use xlink:href="#DejaVuSans-73"/>
      <use x="29.492188" xlink:href="#DejaVuSans-110"/>
      <use x="92.871094" xlink:href="#DejaVuSans-116"/>
      <use x="132.080078" xlink:href="#DejaVuSans-101"/>
      <use x="193.603516" xlink:href="#DejaVuSans-103"/>
      <use x="257.080078" xlink:href="#DejaVuSans-114"/>
      <use x="298.193359" xlink:href="#DejaVuSans-97"/>
      <use x="359.472656" xlink:href="#DejaVuSans-116"/>
      <use x="398.681641" xlink:href="#DejaVuSans-101"/>
      <use x="460.205078" xlink:href="#DejaVuSans-100"/>
      <use x="523.681641" xlink:href="#DejaVuSans-32"/>
      <use x="555.46875" xlink:href="#DejaVuSans-83"/>
      <use x="618.945312" xlink:href="#DejaVuSans-113"/>
      <use x="682.421875" xlink:href="#DejaVuSans-117"/>
      <use x="745.800781" xlink:href="#DejaVuSans-97"/>
      <use x="807.080078" xlink:href="#DejaVuSans-114"/>
      <use x="845.943359" xlink:href="#DejaVuSans-101"/>
      <use x="907.466797" xlink:href="#DejaVuSans-100"/>
      <use x="970.943359" xlink:href="#DejaVuSans-32"/>
      <use x="1002.730469" xlink:href="#DejaVuSans-69"/>
      <use x="1065.914062" xlink:href="#DejaVuSans-114"/>
      <use x="1105.277344" xlink:href="#DejaVuSans-114"/>
      <use x="1144.140625" xlink:href="#DejaVuSans-111"/>
      <use x="1205.322266" xlink:href="#DejaVuSans-114"/>
     </g>
    </g>
   </g>
   <g id="line2d_29">
    <path clip-path="url(#p4e2cc6aee9)" d="M 72 97.45422 
L 80.928 98.317716 
L 89.856 98.754034 
L 98.784 99.547482 
L 107.712 100.251926 
L 116.64 100.612594 
L 125.568 99.751952 
L 134.496 100.173263 
L 143.424 99.665591 
L 152.352 100.049046 
L 161.28 100.18936 
L 170.208 99.922933 
L 179.136 99.474007 
L 188.064 100.564562 
L 196.992 99.783397 
L 205.92 100.104467 
L 214.848 100.263403 
L 223.776 100.114598 
L 232.704 100.259561 
L 241.632 100.576333 
L 250.56 100.57727 
L 259.488 100.67243 
L 268.416 100.769888 
L 277.344 100.757477 
L 286.272 100.718908 
L 295.2 100.706884 
L 304.128 100.704045 
L 313.056 100.707873 
L 321.984 100.703166 
L 330.912 100.235763 
L 339.84 100.776751 
L 348.768 100.777086 
L 357.696 100.762591 
L 366.624 100.769987 
L 375.552 100.775114 
L 384.48 100.505264 
L 393.408 100.306134 
L 402.336 100.772447 
L 411.264 100.420729 
L 420.192 100.418613 
L 429.12 99.75001 
L 438.048 99.96181 
L 446.976 99.622983 
L 455.904 99.503415 
L 464.832 100.086703 
L 473.76 99.733629 
L 482.688 100.782467 
L 491.616 100.782302 
L 500.544 100.783643 
L 509.472 100.782296 
L 518.4 100.776361 
" style="fill:none;stroke:#1f77b4;stroke-linecap:square;stroke-width:1.5;"/>
   </g>
   <g id="line2d_30">
    <path clip-path="url(#p4e2cc6aee9)" d="M 72 94.249713 
L 80.928 95.321933 
L 89.856 98.201848 
L 98.784 98.744029 
L 107.712 96.436317 
L 116.64 119.639933 
L 125.568 125.52807 
L 134.496 135.789448 
L 143.424 158.431843 
L 152.352 182.891792 
L 161.28 185.380972 
L 170.208 186.616238 
L 179.136 187.666089 
L 188.064 192.319966 
L 196.992 231.183365 
L 205.92 255.768448 
L 214.848 265.813871 
L 223.776 292.320375 
L 232.704 284.667832 
L 241.632 284.26591 
L 250.56 293.157877 
L 259.488 293.168881 
L 268.416 297.547355 
L 277.344 301.561297 
L 286.272 301.656042 
L 295.2 302.785575 
L 304.128 303.04569 
L 313.056 303.070316 
L 321.984 303.157082 
L 330.912 303.138025 
L 339.84 343.615682 
L 348.768 346.500271 
L 357.696 346.494892 
L 366.624 346.458926 
L 375.552 346.441119 
L 384.48 346.44123 
L 393.408 347.19082 
L 402.336 347.224829 
L 411.264 347.360923 
L 420.192 347.379039 
L 429.12 347.417438 
L 438.048 356.673547 
L 446.976 356.670294 
L 455.904 356.67447 
L 464.832 356.658984 
L 473.76 356.646799 
L 482.688 356.585899 
L 491.616 358.104616 
L 500.544 358.09981 
L 509.472 358.131553 
L 518.4 358.176969 
" style="fill:none;stroke:#ff7f0e;stroke-linecap:square;stroke-width:1.5;"/>
   </g>
   <g id="line2d_31">
    <path clip-path="url(#p4e2cc6aee9)" d="M 72 96.121986 
L 80.928 97.351576 
L 89.856 100.486726 
L 98.784 107.173709 
L 107.712 107.379048 
L 116.64 129.572813 
L 125.568 132.007238 
L 134.496 132.749348 
L 143.424 133.045271 
L 152.352 134.430816 
L 161.28 135.282692 
L 170.208 135.688175 
L 179.136 136.749203 
L 188.064 137.739563 
L 196.992 140.21561 
L 205.92 140.239749 
L 214.848 141.294582 
L 223.776 141.607763 
L 232.704 142.82384 
L 241.632 145.79789 
L 250.56 145.937746 
L 259.488 146.65245 
L 268.416 146.757333 
L 277.344 147.285427 
L 286.272 149.469246 
L 295.2 149.524084 
L 304.128 152.216841 
L 313.056 153.483749 
L 321.984 153.70124 
L 330.912 166.559592 
L 339.84 167.733849 
L 348.768 167.812637 
L 357.696 168.162419 
L 366.624 168.165348 
L 375.552 168.231644 
L 384.48 168.354618 
L 393.408 168.411281 
L 402.336 168.56332 
L 411.264 168.695328 
L 420.192 168.835965 
L 429.12 169.165953 
L 438.048 169.176438 
L 446.976 171.272337 
L 455.904 172.563874 
L 464.832 172.731763 
L 473.76 174.316282 
L 482.688 174.320188 
L 491.616 174.419475 
L 500.544 174.648061 
L 509.472 174.889364 
L 518.4 175.175955 
" style="fill:none;stroke:#2ca02c;stroke-linecap:square;stroke-width:1.5;"/>
   </g>
   <g id="line2d_32">
    <path clip-path="url(#p4e2cc6aee9)" d="M 72 96.749716 
L 80.928 95.974916 
L 89.856 99.183955 
L 98.784 103.86099 
L 107.712 104.761965 
L 116.64 126.398996 
L 125.568 133.342292 
L 134.496 137.747157 
L 143.424 140.156557 
L 152.352 149.099326 
L 161.28 149.497514 
L 170.208 150.422877 
L 179.136 156.27486 
L 188.064 156.451807 
L 196.992 183.03292 
L 205.92 183.329515 
L 214.848 184.696131 
L 223.776 185.324178 
L 232.704 185.634432 
L 241.632 188.455946 
L 250.56 189.001503 
L 259.488 193.086194 
L 268.416 193.207559 
L 277.344 194.535811 
L 286.272 195.869523 
L 295.2 196.148878 
L 304.128 201.078292 
L 313.056 205.809514 
L 321.984 205.995901 
L 330.912 221.118553 
L 339.84 249.661415 
L 348.768 249.647334 
L 357.696 249.747156 
L 366.624 249.838086 
L 375.552 249.909993 
L 384.48 249.97308 
L 393.408 250.196473 
L 402.336 250.277067 
L 411.264 250.334762 
L 420.192 250.387179 
L 429.12 250.520578 
L 438.048 251.102129 
L 446.976 251.112366 
L 455.904 251.07369 
L 464.832 251.115467 
L 473.76 251.164884 
L 482.688 251.21062 
L 491.616 251.473586 
L 500.544 252.030469 
L 509.472 252.672384 
L 518.4 252.734721 
" style="fill:none;stroke:#d62728;stroke-linecap:square;stroke-width:1.5;"/>
   </g>
   <g id="line2d_33">
    <path clip-path="url(#p4e2cc6aee9)" d="M 72 93.455737 
L 80.928 93.591528 
L 89.856 97.733716 
L 98.784 101.42682 
L 107.712 100.568415 
L 116.64 123.740177 
L 125.568 130.966816 
L 134.496 137.511406 
L 143.424 143.500785 
L 152.352 154.196923 
L 161.28 156.281329 
L 170.208 157.445892 
L 179.136 164.406466 
L 188.064 166.081458 
L 196.992 214.229372 
L 205.92 215.454497 
L 214.848 215.785317 
L 223.776 216.548934 
L 232.704 217.003341 
L 241.632 220.099777 
L 250.56 220.862564 
L 259.488 230.322702 
L 268.416 231.050046 
L 277.344 232.394807 
L 286.272 233.433026 
L 295.2 233.358311 
L 304.128 238.612972 
L 313.056 242.06433 
L 321.984 241.612782 
L 330.912 245.658954 
L 339.84 260.116039 
L 348.768 263.411386 
L 357.696 263.15872 
L 366.624 262.925041 
L 375.552 262.698445 
L 384.48 262.485321 
L 393.408 263.297578 
L 402.336 263.109342 
L 411.264 262.934138 
L 420.192 262.7628 
L 429.12 262.598275 
L 438.048 272.438501 
L 446.976 272.290652 
L 455.904 272.150025 
L 464.832 272.019237 
L 473.76 271.886908 
L 482.688 271.812922 
L 491.616 272.018143 
L 500.544 271.909173 
L 509.472 271.806719 
L 518.4 271.699638 
" style="fill:none;stroke:#9467bd;stroke-linecap:square;stroke-width:1.5;"/>
   </g>
   <g id="line2d_34">
    <path clip-path="url(#p4e2cc6aee9)" d="M 72 96.550124 
L 80.928 96.387093 
L 89.856 99.353999 
L 98.784 104.502491 
L 107.712 105.01136 
L 116.64 111.885235 
L 125.568 112.963803 
L 134.496 119.153719 
L 143.424 132.275945 
L 152.352 146.480711 
L 161.28 174.161892 
L 170.208 186.44947 
L 179.136 186.126297 
L 188.064 190.126582 
L 196.992 230.981315 
L 205.92 254.891777 
L 214.848 265.070547 
L 223.776 291.594358 
L 232.704 284.278755 
L 241.632 283.75643 
L 250.56 289.949104 
L 259.488 289.76447 
L 268.416 294.812054 
L 277.344 299.297286 
L 286.272 299.357292 
L 295.2 299.855395 
L 304.128 300.097547 
L 313.056 299.365491 
L 321.984 300.181799 
L 330.912 300.182124 
L 339.84 343.902771 
L 348.768 346.745385 
L 357.696 346.65132 
L 366.624 346.515255 
L 375.552 345.960099 
L 384.48 344.628232 
L 393.408 346.255539 
L 402.336 346.334702 
L 411.264 347.497874 
L 420.192 347.585983 
L 429.12 347.602076 
L 438.048 356.401316 
L 446.976 356.249323 
L 455.904 356.520056 
L 464.832 356.378016 
L 473.76 356.492617 
L 482.688 356.500187 
L 491.616 357.969154 
L 500.544 358.056466 
L 509.472 357.586292 
L 518.4 358.09464 
" style="fill:none;stroke:#8c564b;stroke-linecap:square;stroke-width:1.5;"/>
   </g>
   <g id="line2d_35">
    <path clip-path="url(#p4e2cc6aee9)" d="M 72 96.632475 
L 80.928 98.099732 
L 89.856 98.79756 
L 98.784 99.962103 
L 107.712 100.395749 
L 116.64 100.563615 
L 125.568 100.635971 
L 134.496 100.59428 
L 143.424 100.530875 
L 152.352 100.537881 
L 161.28 100.706645 
L 170.208 100.68368 
L 179.136 100.647521 
L 188.064 100.737489 
L 196.992 100.742035 
L 205.92 100.735248 
L 214.848 100.735884 
L 223.776 100.705238 
L 232.704 100.630112 
L 241.632 100.761169 
L 250.56 100.761567 
L 259.488 100.762388 
L 268.416 100.764454 
L 277.344 100.752283 
L 286.272 100.716172 
L 295.2 100.704598 
L 304.128 100.702872 
L 313.056 100.703568 
L 321.984 100.70168 
L 330.912 100.773876 
L 339.84 100.774656 
L 348.768 100.77447 
L 357.696 100.755919 
L 366.624 100.766444 
L 375.552 100.770951 
L 384.48 100.763931 
L 393.408 100.769188 
L 402.336 100.776653 
L 411.264 100.779212 
L 420.192 100.779588 
L 429.12 100.779997 
L 438.048 100.779626 
L 446.976 100.749698 
L 455.904 100.771917 
L 464.832 100.776835 
L 473.76 100.778292 
L 482.688 100.781245 
L 491.616 100.781199 
L 500.544 100.782311 
L 509.472 100.780296 
L 518.4 100.775642 
" style="fill:none;stroke:#e377c2;stroke-linecap:square;stroke-width:1.5;"/>
   </g>
   <g id="patch_3">
    <path d="M 72 384.48 
L 72 51.84 
" style="fill:none;stroke:#000000;stroke-linecap:square;stroke-linejoin:miter;stroke-width:0.8;"/>
   </g>
   <g id="patch_4">
    <path d="M 518.4 384.48 
L 518.4 51.84 
" style="fill:none;stroke:#000000;stroke-linecap:square;stroke-linejoin:miter;stroke-width:0.8;"/>
   </g>
   <g id="patch_5">
    <path d="M 72 384.48 
L 518.4 384.48 
" style="fill:none;stroke:#000000;stroke-linecap:square;stroke-linejoin:miter;stroke-width:0.8;"/>
   </g>
   <g id="patch_6">
    <path d="M 72 51.84 
L 518.4 51.84 
" style="fill:none;stroke:#000000;stroke-linecap:square;stroke-linejoin:miter;stroke-width:0.8;"/>
   </g>
   <g id="legend_1">
    <g id="patch_7">
     <path d="M 79 379.48 
L 165.804688 379.48 
Q 167.804688 379.48 167.804688 377.48 
L 167.804688 275.733125 
Q 167.804688 273.733125 165.804688 273.733125 
L 79 273.733125 
Q 77 273.733125 77 275.733125 
L 77 377.48 
Q 77 379.48 79 379.48 
z
" style="fill:#ffffff;opacity:0.8;stroke:#cccccc;stroke-linejoin:miter;"/>
    </g>
    <g id="line2d_36">
     <path d="M 81 281.831563 
L 101 281.831563 
" style="fill:none;stroke:#1f77b4;stroke-linecap:square;stroke-width:1.5;"/>
    </g>
    <g id="line2d_37"/>
    <g id="text_17">
     <!-- Constant -->
     <defs>
      <path d="M 64.40625 67.28125 
L 64.40625 56.890625 
Q 59.421875 61.53125 53.78125 63.8125 
Q 48.140625 66.109375 41.796875 66.109375 
Q 29.296875 66.109375 22.65625 58.46875 
Q 16.015625 50.828125 16.015625 36.375 
Q 16.015625 21.96875 22.65625 14.328125 
Q 29.296875 6.6875 41.796875 6.6875 
Q 48.140625 6.6875 53.78125 8.984375 
Q 59.421875 11.28125 64.40625 15.921875 
L 64.40625 5.609375 
Q 59.234375 2.09375 53.4375 0.328125 
Q 47.65625 -1.421875 41.21875 -1.421875 
Q 24.65625 -1.421875 15.125 8.703125 
Q 5.609375 18.84375 5.609375 36.375 
Q 5.609375 53.953125 15.125 64.078125 
Q 24.65625 74.21875 41.21875 74.21875 
Q 47.75 74.21875 53.53125 72.484375 
Q 59.328125 70.75 64.40625 67.28125 
z
" id="DejaVuSans-67"/>
      <path d="M 44.28125 53.078125 
L 44.28125 44.578125 
Q 40.484375 46.53125 36.375 47.5 
Q 32.28125 48.484375 27.875 48.484375 
Q 21.1875 48.484375 17.84375 46.4375 
Q 14.5 44.390625 14.5 40.28125 
Q 14.5 37.15625 16.890625 35.375 
Q 19.28125 33.59375 26.515625 31.984375 
L 29.59375 31.296875 
Q 39.15625 29.25 43.1875 25.515625 
Q 47.21875 21.78125 47.21875 15.09375 
Q 47.21875 7.46875 41.1875 3.015625 
Q 35.15625 -1.421875 24.609375 -1.421875 
Q 20.21875 -1.421875 15.453125 -0.5625 
Q 10.6875 0.296875 5.421875 2 
L 5.421875 11.28125 
Q 10.40625 8.6875 15.234375 7.390625 
Q 20.0625 6.109375 24.8125 6.109375 
Q 31.15625 6.109375 34.5625 8.28125 
Q 37.984375 10.453125 37.984375 14.40625 
Q 37.984375 18.0625 35.515625 20.015625 
Q 33.0625 21.96875 24.703125 23.78125 
L 21.578125 24.515625 
Q 13.234375 26.265625 9.515625 29.90625 
Q 5.8125 33.546875 5.8125 39.890625 
Q 5.8125 47.609375 11.28125 51.796875 
Q 16.75 56 26.8125 56 
Q 31.78125 56 36.171875 55.265625 
Q 40.578125 54.546875 44.28125 53.078125 
z
" id="DejaVuSans-115"/>
     </defs>
     <g transform="translate(109 285.331563)scale(0.1 -0.1)">
      <use xlink:href="#DejaVuSans-67"/>
      <use x="69.824219" xlink:href="#DejaVuSans-111"/>
      <use x="131.005859" xlink:href="#DejaVuSans-110"/>
      <use x="194.384766" xlink:href="#DejaVuSans-115"/>
      <use x="246.484375" xlink:href="#DejaVuSans-116"/>
      <use x="285.693359" xlink:href="#DejaVuSans-97"/>
      <use x="346.972656" xlink:href="#DejaVuSans-110"/>
      <use x="410.351562" xlink:href="#DejaVuSans-116"/>
     </g>
    </g>
    <g id="line2d_38">
     <path d="M 81 296.509688 
L 101 296.509688 
" style="fill:none;stroke:#ff7f0e;stroke-linecap:square;stroke-width:1.5;"/>
    </g>
    <g id="line2d_39"/>
    <g id="text_18">
     <!-- RBF -->
     <defs>
      <path d="M 44.390625 34.1875 
Q 47.5625 33.109375 50.5625 29.59375 
Q 53.5625 26.078125 56.59375 19.921875 
L 66.609375 0 
L 56 0 
L 46.6875 18.703125 
Q 43.0625 26.03125 39.671875 28.421875 
Q 36.28125 30.8125 30.421875 30.8125 
L 19.671875 30.8125 
L 19.671875 0 
L 9.8125 0 
L 9.8125 72.90625 
L 32.078125 72.90625 
Q 44.578125 72.90625 50.734375 67.671875 
Q 56.890625 62.453125 56.890625 51.90625 
Q 56.890625 45.015625 53.6875 40.46875 
Q 50.484375 35.9375 44.390625 34.1875 
z
M 19.671875 64.796875 
L 19.671875 38.921875 
L 32.078125 38.921875 
Q 39.203125 38.921875 42.84375 42.21875 
Q 46.484375 45.515625 46.484375 51.90625 
Q 46.484375 58.296875 42.84375 61.546875 
Q 39.203125 64.796875 32.078125 64.796875 
z
" id="DejaVuSans-82"/>
      <path d="M 19.671875 34.8125 
L 19.671875 8.109375 
L 35.5 8.109375 
Q 43.453125 8.109375 47.28125 11.40625 
Q 51.125 14.703125 51.125 21.484375 
Q 51.125 28.328125 47.28125 31.5625 
Q 43.453125 34.8125 35.5 34.8125 
z
M 19.671875 64.796875 
L 19.671875 42.828125 
L 34.28125 42.828125 
Q 41.5 42.828125 45.03125 45.53125 
Q 48.578125 48.25 48.578125 53.8125 
Q 48.578125 59.328125 45.03125 62.0625 
Q 41.5 64.796875 34.28125 64.796875 
z
M 9.8125 72.90625 
L 35.015625 72.90625 
Q 46.296875 72.90625 52.390625 68.21875 
Q 58.5 63.53125 58.5 54.890625 
Q 58.5 48.1875 55.375 44.234375 
Q 52.25 40.28125 46.1875 39.3125 
Q 53.46875 37.75 57.5 32.78125 
Q 61.53125 27.828125 61.53125 20.40625 
Q 61.53125 10.640625 54.890625 5.3125 
Q 48.25 0 35.984375 0 
L 9.8125 0 
z
" id="DejaVuSans-66"/>
      <path d="M 9.8125 72.90625 
L 51.703125 72.90625 
L 51.703125 64.59375 
L 19.671875 64.59375 
L 19.671875 43.109375 
L 48.578125 43.109375 
L 48.578125 34.8125 
L 19.671875 34.8125 
L 19.671875 0 
L 9.8125 0 
z
" id="DejaVuSans-70"/>
     </defs>
     <g transform="translate(109 300.009688)scale(0.1 -0.1)">
      <use xlink:href="#DejaVuSans-82"/>
      <use x="69.482422" xlink:href="#DejaVuSans-66"/>
      <use x="138.085938" xlink:href="#DejaVuSans-70"/>
     </g>
    </g>
    <g id="line2d_40">
     <path d="M 81 311.187813 
L 101 311.187813 
" style="fill:none;stroke:#2ca02c;stroke-linecap:square;stroke-width:1.5;"/>
    </g>
    <g id="line2d_41"/>
    <g id="text_19">
     <!-- Matrn-1/2 -->
     <defs>
      <path d="M 9.8125 72.90625 
L 24.515625 72.90625 
L 43.109375 23.296875 
L 61.8125 72.90625 
L 76.515625 72.90625 
L 76.515625 0 
L 66.890625 0 
L 66.890625 64.015625 
L 48.09375 14.015625 
L 38.1875 14.015625 
L 19.390625 64.015625 
L 19.390625 0 
L 9.8125 0 
z
" id="DejaVuSans-77"/>
      <path d="M 56.203125 29.59375 
L 56.203125 25.203125 
L 14.890625 25.203125 
Q 15.484375 15.921875 20.484375 11.0625 
Q 25.484375 6.203125 34.421875 6.203125 
Q 39.59375 6.203125 44.453125 7.46875 
Q 49.3125 8.734375 54.109375 11.28125 
L 54.109375 2.78125 
Q 49.265625 0.734375 44.1875 -0.34375 
Q 39.109375 -1.421875 33.890625 -1.421875 
Q 20.796875 -1.421875 13.15625 6.1875 
Q 5.515625 13.8125 5.515625 26.8125 
Q 5.515625 40.234375 12.765625 48.109375 
Q 20.015625 56 32.328125 56 
Q 43.359375 56 49.78125 48.890625 
Q 56.203125 41.796875 56.203125 29.59375 
z
M 47.21875 32.234375 
Q 47.125 39.59375 43.09375 43.984375 
Q 39.0625 48.390625 32.421875 48.390625 
Q 24.90625 48.390625 20.390625 44.140625 
Q 15.875 39.890625 15.1875 32.171875 
z
M 38.53125 79.984375 
L 48.25 79.984375 
L 32.34375 61.625 
L 24.859375 61.625 
z
" id="DejaVuSans-233"/>
      <path d="M 4.890625 31.390625 
L 31.203125 31.390625 
L 31.203125 23.390625 
L 4.890625 23.390625 
z
" id="DejaVuSans-45"/>
      <path d="M 25.390625 72.90625 
L 33.6875 72.90625 
L 8.296875 -9.28125 
L 0 -9.28125 
z
" id="DejaVuSans-47"/>
     </defs>
     <g transform="translate(109 314.687813)scale(0.1 -0.1)">
      <use xlink:href="#DejaVuSans-77"/>
      <use x="86.279297" xlink:href="#DejaVuSans-97"/>
      <use x="147.558594" xlink:href="#DejaVuSans-116"/>
      <use x="186.767578" xlink:href="#DejaVuSans-233"/>
      <use x="248.291016" xlink:href="#DejaVuSans-114"/>
      <use x="287.654297" xlink:href="#DejaVuSans-110"/>
      <use x="351.033203" xlink:href="#DejaVuSans-45"/>
      <use x="387.117188" xlink:href="#DejaVuSans-49"/>
      <use x="450.740234" xlink:href="#DejaVuSans-47"/>
      <use x="484.431641" xlink:href="#DejaVuSans-50"/>
     </g>
    </g>
    <g id="line2d_42">
     <path d="M 81 325.865938 
L 101 325.865938 
" style="fill:none;stroke:#d62728;stroke-linecap:square;stroke-width:1.5;"/>
    </g>
    <g id="line2d_43"/>
    <g id="text_20">
     <!-- Matrn-3/2 -->
     <g transform="translate(109 329.365938)scale(0.1 -0.1)">
      <use xlink:href="#DejaVuSans-77"/>
      <use x="86.279297" xlink:href="#DejaVuSans-97"/>
      <use x="147.558594" xlink:href="#DejaVuSans-116"/>
      <use x="186.767578" xlink:href="#DejaVuSans-233"/>
      <use x="248.291016" xlink:href="#DejaVuSans-114"/>
      <use x="287.654297" xlink:href="#DejaVuSans-110"/>
      <use x="351.033203" xlink:href="#DejaVuSans-45"/>
      <use x="387.117188" xlink:href="#DejaVuSans-51"/>
      <use x="450.740234" xlink:href="#DejaVuSans-47"/>
      <use x="484.431641" xlink:href="#DejaVuSans-50"/>
     </g>
    </g>
    <g id="line2d_44">
     <path d="M 81 340.544062 
L 101 340.544062 
" style="fill:none;stroke:#9467bd;stroke-linecap:square;stroke-width:1.5;"/>
    </g>
    <g id="line2d_45"/>
    <g id="text_21">
     <!-- Matrn-5/2 -->
     <g transform="translate(109 344.044062)scale(0.1 -0.1)">
      <use xlink:href="#DejaVuSans-77"/>
      <use x="86.279297" xlink:href="#DejaVuSans-97"/>
      <use x="147.558594" xlink:href="#DejaVuSans-116"/>
      <use x="186.767578" xlink:href="#DejaVuSans-233"/>
      <use x="248.291016" xlink:href="#DejaVuSans-114"/>
      <use x="287.654297" xlink:href="#DejaVuSans-110"/>
      <use x="351.033203" xlink:href="#DejaVuSans-45"/>
      <use x="387.117188" xlink:href="#DejaVuSans-53"/>
      <use x="450.740234" xlink:href="#DejaVuSans-47"/>
      <use x="484.431641" xlink:href="#DejaVuSans-50"/>
     </g>
    </g>
    <g id="line2d_46">
     <path d="M 81 355.222188 
L 101 355.222188 
" style="fill:none;stroke:#8c564b;stroke-linecap:square;stroke-width:1.5;"/>
    </g>
    <g id="line2d_47"/>
    <g id="text_22">
     <!-- RQ -->
     <defs>
      <path d="M 39.40625 66.21875 
Q 28.65625 66.21875 22.328125 58.203125 
Q 16.015625 50.203125 16.015625 36.375 
Q 16.015625 22.609375 22.328125 14.59375 
Q 28.65625 6.59375 39.40625 6.59375 
Q 50.140625 6.59375 56.421875 14.59375 
Q 62.703125 22.609375 62.703125 36.375 
Q 62.703125 50.203125 56.421875 58.203125 
Q 50.140625 66.21875 39.40625 66.21875 
z
M 53.21875 1.3125 
L 66.21875 -12.890625 
L 54.296875 -12.890625 
L 43.5 -1.21875 
Q 41.890625 -1.3125 41.03125 -1.359375 
Q 40.1875 -1.421875 39.40625 -1.421875 
Q 24.03125 -1.421875 14.8125 8.859375 
Q 5.609375 19.140625 5.609375 36.375 
Q 5.609375 53.65625 14.8125 63.9375 
Q 24.03125 74.21875 39.40625 74.21875 
Q 54.734375 74.21875 63.90625 63.9375 
Q 73.09375 53.65625 73.09375 36.375 
Q 73.09375 23.6875 67.984375 14.640625 
Q 62.890625 5.609375 53.21875 1.3125 
z
" id="DejaVuSans-81"/>
     </defs>
     <g transform="translate(109 358.722188)scale(0.1 -0.1)">
      <use xlink:href="#DejaVuSans-82"/>
      <use x="69.482422" xlink:href="#DejaVuSans-81"/>
     </g>
    </g>
    <g id="line2d_48">
     <path d="M 81 369.900313 
L 101 369.900313 
" style="fill:none;stroke:#e377c2;stroke-linecap:square;stroke-width:1.5;"/>
    </g>
    <g id="line2d_49"/>
    <g id="text_23">
     <!-- Dot Prod. -->
     <defs>
      <path d="M 19.671875 64.796875 
L 19.671875 8.109375 
L 31.59375 8.109375 
Q 46.6875 8.109375 53.6875 14.9375 
Q 60.6875 21.78125 60.6875 36.53125 
Q 60.6875 51.171875 53.6875 57.984375 
Q 46.6875 64.796875 31.59375 64.796875 
z
M 9.8125 72.90625 
L 30.078125 72.90625 
Q 51.265625 72.90625 61.171875 64.09375 
Q 71.09375 55.28125 71.09375 36.53125 
Q 71.09375 17.671875 61.125 8.828125 
Q 51.171875 0 30.078125 0 
L 9.8125 0 
z
" id="DejaVuSans-68"/>
      <path d="M 19.671875 64.796875 
L 19.671875 37.40625 
L 32.078125 37.40625 
Q 38.96875 37.40625 42.71875 40.96875 
Q 46.484375 44.53125 46.484375 51.125 
Q 46.484375 57.671875 42.71875 61.234375 
Q 38.96875 64.796875 32.078125 64.796875 
z
M 9.8125 72.90625 
L 32.078125 72.90625 
Q 44.34375 72.90625 50.609375 67.359375 
Q 56.890625 61.8125 56.890625 51.125 
Q 56.890625 40.328125 50.609375 34.8125 
Q 44.34375 29.296875 32.078125 29.296875 
L 19.671875 29.296875 
L 19.671875 0 
L 9.8125 0 
z
" id="DejaVuSans-80"/>
      <path d="M 10.6875 12.40625 
L 21 12.40625 
L 21 0 
L 10.6875 0 
z
" id="DejaVuSans-46"/>
     </defs>
     <g transform="translate(109 373.400313)scale(0.1 -0.1)">
      <use xlink:href="#DejaVuSans-68"/>
      <use x="77.001953" xlink:href="#DejaVuSans-111"/>
      <use x="138.183594" xlink:href="#DejaVuSans-116"/>
      <use x="177.392578" xlink:href="#DejaVuSans-32"/>
      <use x="209.179688" xlink:href="#DejaVuSans-80"/>
      <use x="267.732422" xlink:href="#DejaVuSans-114"/>
      <use x="306.595703" xlink:href="#DejaVuSans-111"/>
      <use x="367.777344" xlink:href="#DejaVuSans-100"/>
      <use x="431.253906" xlink:href="#DejaVuSans-46"/>
     </g>
    </g>
   </g>
  </g>
 </g>
 <defs>
  <clipPath id="p4e2cc6aee9">
   <rect height="332.64" width="446.4" x="72" y="51.84"/>
  </clipPath>
 </defs>
</svg>
