<?xml version="1.0" encoding="utf-8" standalone="no"?>
<!DOCTYPE svg PUBLIC "-//W3C//DTD SVG 1.1//EN"
  "http://www.w3.org/Graphics/SVG/1.1/DTD/svg11.dtd">
<!-- Created with matplotlib (https://matplotlib.org/) -->
<svg height="432pt" version="1.1" viewBox="0 0 576 432" width="576pt" xmlns="http://www.w3.org/2000/svg" xmlns:xlink="http://www.w3.org/1999/xlink">
 <defs>
  <style type="text/css">
*{stroke-linecap:butt;stroke-linejoin:round;}
  </style>
 </defs>
 <g id="figure_1">
  <g id="patch_1">
   <path d="M 0 432 
L 576 432 
L 576 0 
L 0 0 
z
" style="fill:#ffffff;"/>
  </g>
  <g id="axes_1">
   <g id="patch_2">
    <path d="M 72 384.48 
L 518.4 384.48 
L 518.4 51.84 
L 72 51.84 
z
" style="fill:#ffffff;"/>
   </g>
   <g id="PolyCollection_1">
    <path clip-path="url(#p2ebb287376)" d="M 72 151.213981 
L 72 149.693073 
L 80.928 148.254886 
L 89.856 148.866711 
L 98.784 148.605886 
L 107.712 148.757868 
L 116.64 148.37627 
L 125.568 148.618002 
L 134.496 148.936581 
L 143.424 149.507313 
L 152.352 149.129128 
L 161.28 148.915059 
L 170.208 149.699391 
L 179.136 149.854695 
L 188.064 148.831303 
L 196.992 148.889857 
L 205.92 149.525105 
L 214.848 149.522139 
L 223.776 149.907781 
L 232.704 149.101046 
L 241.632 149.78187 
L 250.56 149.551519 
L 259.488 149.915446 
L 268.416 148.118799 
L 277.344 149.406705 
L 286.272 149.889337 
L 295.2 149.585747 
L 304.128 150.011187 
L 313.056 150.18536 
L 321.984 150.036039 
L 330.912 148.595886 
L 339.84 149.907241 
L 348.768 149.298376 
L 357.696 148.916226 
L 366.624 147.445884 
L 375.552 147.855098 
L 384.48 147.915512 
L 393.408 148.731092 
L 402.336 148.95118 
L 411.264 148.307565 
L 420.192 148.114537 
L 429.12 146.961958 
L 438.048 148.302672 
L 446.976 146.504955 
L 455.904 145.242454 
L 464.832 147.683734 
L 473.76 147.767002 
L 482.688 145.270539 
L 491.616 146.652162 
L 500.544 148.364824 
L 509.472 147.369504 
L 518.4 148.540184 
L 518.4 151.753286 
L 518.4 151.753286 
L 509.472 151.937634 
L 500.544 151.539802 
L 491.616 151.75437 
L 482.688 152.970467 
L 473.76 151.468903 
L 464.832 151.865728 
L 455.904 151.937081 
L 446.976 151.921315 
L 438.048 151.549688 
L 429.12 151.889325 
L 420.192 151.840595 
L 411.264 151.382593 
L 402.336 151.594256 
L 393.408 151.271516 
L 384.48 151.74774 
L 375.552 151.641052 
L 366.624 152.152915 
L 357.696 151.437025 
L 348.768 151.211237 
L 339.84 150.97901 
L 330.912 151.395867 
L 321.984 150.977536 
L 313.056 150.922824 
L 304.128 150.981413 
L 295.2 151.342513 
L 286.272 150.99479 
L 277.344 151.372476 
L 268.416 152.153815 
L 259.488 150.906688 
L 250.56 151.059795 
L 241.632 151.015899 
L 232.704 151.332441 
L 223.776 150.852685 
L 214.848 151.164122 
L 205.92 151.048319 
L 196.992 151.420237 
L 188.064 151.518345 
L 179.136 150.889387 
L 170.208 150.88608 
L 161.28 151.018417 
L 152.352 151.169347 
L 143.424 150.851077 
L 134.496 151.156067 
L 125.568 151.133771 
L 116.64 151.12614 
L 107.712 151.059806 
L 98.784 150.922916 
L 89.856 150.945319 
L 80.928 151.534836 
L 72 151.213981 
z
" style="fill:#1f77b4;fill-opacity:0.3;"/>
   </g>
   <g id="PolyCollection_2">
    <path clip-path="url(#p2ebb287376)" d="M 72 154.571242 
L 72 142.299702 
L 80.928 128.752744 
L 89.856 122.39823 
L 98.784 119.880487 
L 107.712 112.162856 
L 116.64 108.376686 
L 125.568 108.842004 
L 134.496 111.218521 
L 143.424 115.95574 
L 152.352 117.11971 
L 161.28 119.120784 
L 170.208 123.91689 
L 179.136 129.181565 
L 188.064 131.175438 
L 196.992 138.980934 
L 205.92 139.424728 
L 214.848 147.717541 
L 223.776 152.466263 
L 232.704 156.727308 
L 241.632 163.58787 
L 250.56 170.297181 
L 259.488 175.273036 
L 268.416 183.254061 
L 277.344 192.260019 
L 286.272 200.56915 
L 295.2 205.246285 
L 304.128 209.638165 
L 313.056 212.297552 
L 321.984 216.63917 
L 330.912 216.712716 
L 339.84 218.262388 
L 348.768 220.622281 
L 357.696 226.271945 
L 366.624 227.453696 
L 375.552 234.698094 
L 384.48 234.199614 
L 393.408 238.472096 
L 402.336 240.607737 
L 411.264 243.673826 
L 420.192 247.065215 
L 429.12 250.153601 
L 438.048 251.672848 
L 446.976 253.360443 
L 455.904 252.288672 
L 464.832 254.38267 
L 473.76 259.727334 
L 482.688 262.056597 
L 491.616 262.688978 
L 500.544 265.601254 
L 509.472 268.402689 
L 518.4 274.416072 
L 518.4 330.167284 
L 518.4 330.167284 
L 509.472 329.014653 
L 500.544 325.545227 
L 491.616 320.229524 
L 482.688 319.355987 
L 473.76 317.45471 
L 464.832 315.963768 
L 455.904 313.515498 
L 446.976 312.668422 
L 438.048 308.885545 
L 429.12 307.739708 
L 420.192 306.50123 
L 411.264 306.078157 
L 402.336 303.1733 
L 393.408 300.449871 
L 384.48 294.80669 
L 375.552 294.408411 
L 366.624 291.404424 
L 357.696 286.819409 
L 348.768 283.53981 
L 339.84 281.445549 
L 330.912 276.13219 
L 321.984 271.215214 
L 313.056 266.740232 
L 304.128 260.075022 
L 295.2 255.454355 
L 286.272 251.917651 
L 277.344 247.812306 
L 268.416 239.162992 
L 259.488 229.67568 
L 250.56 220.454522 
L 241.632 216.079201 
L 232.704 207.84473 
L 223.776 202.565521 
L 214.848 185.918621 
L 205.92 182.067439 
L 196.992 179.30451 
L 188.064 168.594268 
L 179.136 161.855223 
L 170.208 157.13293 
L 161.28 152.536281 
L 152.352 152.856153 
L 143.424 148.639396 
L 134.496 149.644741 
L 125.568 148.022405 
L 116.64 146.465946 
L 107.712 150.197279 
L 98.784 152.901831 
L 89.856 153.632037 
L 80.928 153.684425 
L 72 154.571242 
z
" style="fill:#ff7f0e;fill-opacity:0.3;"/>
   </g>
   <g id="PolyCollection_3">
    <path clip-path="url(#p2ebb287376)" d="M 72 152.92968 
L 72 150.668973 
L 80.928 150.519194 
L 89.856 151.301728 
L 98.784 152.137474 
L 107.712 153.460575 
L 116.64 153.396021 
L 125.568 154.652712 
L 134.496 155.694787 
L 143.424 156.389396 
L 152.352 157.384581 
L 161.28 158.581232 
L 170.208 159.992277 
L 179.136 161.020359 
L 188.064 162.469504 
L 196.992 163.932498 
L 205.92 165.926745 
L 214.848 166.816692 
L 223.776 167.437661 
L 232.704 168.313936 
L 241.632 168.994398 
L 250.56 169.608471 
L 259.488 169.697285 
L 268.416 170.585826 
L 277.344 171.575774 
L 286.272 172.55516 
L 295.2 172.965984 
L 304.128 174.586858 
L 313.056 175.619612 
L 321.984 176.600137 
L 330.912 177.9927 
L 339.84 178.468123 
L 348.768 180.456069 
L 357.696 181.12938 
L 366.624 181.289839 
L 375.552 181.365831 
L 384.48 181.61063 
L 393.408 182.812668 
L 402.336 184.117711 
L 411.264 184.973009 
L 420.192 185.514361 
L 429.12 185.679989 
L 438.048 185.938853 
L 446.976 186.206944 
L 455.904 188.56311 
L 464.832 189.575439 
L 473.76 190.065856 
L 482.688 191.007078 
L 491.616 193.093122 
L 500.544 194.235328 
L 509.472 195.035093 
L 518.4 195.329012 
L 518.4 214.835724 
L 518.4 214.835724 
L 509.472 213.69188 
L 500.544 213.658554 
L 491.616 212.279338 
L 482.688 211.813946 
L 473.76 211.367842 
L 464.832 210.464044 
L 455.904 210.018577 
L 446.976 209.789645 
L 438.048 209.552103 
L 429.12 209.332116 
L 420.192 208.658969 
L 411.264 208.317803 
L 402.336 207.637873 
L 393.408 207.025917 
L 384.48 205.076908 
L 375.552 204.69477 
L 366.624 203.688237 
L 357.696 203.58605 
L 348.768 203.41238 
L 339.84 203.036826 
L 330.912 201.49069 
L 321.984 200.553157 
L 313.056 198.871769 
L 304.128 198.691723 
L 295.2 198.124635 
L 286.272 197.404801 
L 277.344 195.70326 
L 268.416 193.821199 
L 259.488 192.440207 
L 250.56 192.188609 
L 241.632 189.837827 
L 232.704 189.183502 
L 223.776 188.743686 
L 214.848 187.220046 
L 205.92 186.213139 
L 196.992 185.180953 
L 188.064 183.728364 
L 179.136 181.845162 
L 170.208 180.449506 
L 161.28 178.44063 
L 152.352 176.914103 
L 143.424 173.317609 
L 134.496 169.975416 
L 125.568 168.270742 
L 116.64 165.86435 
L 107.712 160.777508 
L 98.784 158.917015 
L 89.856 157.108253 
L 80.928 155.128662 
L 72 152.92968 
z
" style="fill:#2ca02c;fill-opacity:0.3;"/>
   </g>
   <g id="PolyCollection_4">
    <path clip-path="url(#p2ebb287376)" d="M 72 153.928806 
L 72 147.097533 
L 80.928 146.466638 
L 89.856 147.112967 
L 98.784 148.906454 
L 107.712 150.560541 
L 116.64 151.566014 
L 125.568 152.237995 
L 134.496 153.955833 
L 143.424 157.602707 
L 152.352 159.692757 
L 161.28 161.159373 
L 170.208 163.321112 
L 179.136 163.849541 
L 188.064 165.24216 
L 196.992 166.936158 
L 205.92 167.647217 
L 214.848 170.015726 
L 223.776 170.981266 
L 232.704 173.451041 
L 241.632 176.208748 
L 250.56 176.67265 
L 259.488 178.944618 
L 268.416 180.449456 
L 277.344 183.314646 
L 286.272 186.447085 
L 295.2 187.936371 
L 304.128 189.723017 
L 313.056 191.643863 
L 321.984 194.121105 
L 330.912 195.582109 
L 339.84 199.171541 
L 348.768 200.066474 
L 357.696 201.682318 
L 366.624 203.275485 
L 375.552 204.111691 
L 384.48 205.234465 
L 393.408 206.995152 
L 402.336 207.238149 
L 411.264 208.596587 
L 420.192 209.676784 
L 429.12 212.325013 
L 438.048 212.665723 
L 446.976 213.139755 
L 455.904 213.726591 
L 464.832 215.229904 
L 473.76 216.478163 
L 482.688 219.431796 
L 491.616 219.642067 
L 500.544 220.976401 
L 509.472 221.139903 
L 518.4 221.993069 
L 518.4 255.654646 
L 518.4 255.654646 
L 509.472 254.391643 
L 500.544 253.443357 
L 491.616 252.882157 
L 482.688 252.461901 
L 473.76 253.217547 
L 464.832 252.081544 
L 455.904 251.264015 
L 446.976 250.817362 
L 438.048 249.834419 
L 429.12 248.306543 
L 420.192 246.729178 
L 411.264 245.637557 
L 402.336 244.645302 
L 393.408 242.716906 
L 384.48 241.816265 
L 375.552 241.154352 
L 366.624 239.561267 
L 357.696 236.058046 
L 348.768 234.391274 
L 339.84 232.421309 
L 330.912 229.309293 
L 321.984 227.962443 
L 313.056 225.164613 
L 304.128 223.978442 
L 295.2 221.47416 
L 286.272 219.672657 
L 277.344 215.770304 
L 268.416 213.759484 
L 259.488 210.702943 
L 250.56 208.538705 
L 241.632 207.101867 
L 232.704 205.811424 
L 223.776 203.60623 
L 214.848 201.069783 
L 205.92 198.047868 
L 196.992 192.968509 
L 188.064 191.809555 
L 179.136 187.729885 
L 170.208 184.154611 
L 161.28 182.264789 
L 152.352 179.748452 
L 143.424 175.537483 
L 134.496 172.714254 
L 125.568 169.152162 
L 116.64 165.245989 
L 107.712 163.449208 
L 98.784 160.712486 
L 89.856 157.502113 
L 80.928 155.189636 
L 72 153.928806 
z
" style="fill:#d62728;fill-opacity:0.3;"/>
   </g>
   <g id="PolyCollection_5">
    <path clip-path="url(#p2ebb287376)" d="M 72 153.558853 
L 72 143.147612 
L 80.928 138.902727 
L 89.856 140.476643 
L 98.784 139.171997 
L 107.712 143.207702 
L 116.64 146.006066 
L 125.568 147.150075 
L 134.496 150.007568 
L 143.424 155.580302 
L 152.352 156.464801 
L 161.28 157.795588 
L 170.208 159.736012 
L 179.136 163.098276 
L 188.064 166.084668 
L 196.992 168.242659 
L 205.92 171.506094 
L 214.848 176.519614 
L 223.776 178.099121 
L 232.704 181.676196 
L 241.632 183.2286 
L 250.56 184.448902 
L 259.488 187.353221 
L 268.416 190.933999 
L 277.344 192.633838 
L 286.272 197.77202 
L 295.2 201.751478 
L 304.128 203.069388 
L 313.056 204.311874 
L 321.984 206.432338 
L 330.912 208.110548 
L 339.84 211.525036 
L 348.768 216.610989 
L 357.696 218.008438 
L 366.624 220.924051 
L 375.552 222.693618 
L 384.48 222.896035 
L 393.408 225.103204 
L 402.336 226.464408 
L 411.264 227.24542 
L 420.192 229.395707 
L 429.12 231.430618 
L 438.048 233.739382 
L 446.976 235.143616 
L 455.904 238.001263 
L 464.832 240.353304 
L 473.76 245.572471 
L 482.688 246.266185 
L 491.616 248.380405 
L 500.544 248.932223 
L 509.472 253.44148 
L 518.4 255.142214 
L 518.4 312.508662 
L 518.4 312.508662 
L 509.472 308.662474 
L 500.544 303.518401 
L 491.616 302.724017 
L 482.688 300.793943 
L 473.76 299.1714 
L 464.832 294.796823 
L 455.904 291.19173 
L 446.976 289.912224 
L 438.048 287.756186 
L 429.12 282.545335 
L 420.192 279.97252 
L 411.264 279.528767 
L 402.336 278.955908 
L 393.408 274.523631 
L 384.48 272.258951 
L 375.552 272.091411 
L 366.624 269.393724 
L 357.696 266.674592 
L 348.768 263.166165 
L 339.84 260.142872 
L 330.912 257.339161 
L 321.984 253.845146 
L 313.056 250.345043 
L 304.128 246.981984 
L 295.2 242.88038 
L 286.272 240.125787 
L 277.344 239.946411 
L 268.416 238.643921 
L 259.488 236.536294 
L 250.56 233.685552 
L 241.632 231.053294 
L 232.704 227.074191 
L 223.776 222.739326 
L 214.848 218.733953 
L 205.92 215.309859 
L 196.992 210.384942 
L 188.064 202.807952 
L 179.136 198.177464 
L 170.208 190.964315 
L 161.28 185.446311 
L 152.352 182.462922 
L 143.424 174.647627 
L 134.496 168.636552 
L 125.568 168.261338 
L 116.64 167.83592 
L 107.712 165.354582 
L 98.784 161.302602 
L 89.856 157.734694 
L 80.928 152.746677 
L 72 153.558853 
z
" style="fill:#9467bd;fill-opacity:0.3;"/>
   </g>
   <g id="PolyCollection_6">
    <path clip-path="url(#p2ebb287376)" d="M 72 151.282092 
L 72 149.519561 
L 80.928 149.906382 
L 89.856 149.849529 
L 98.784 150.366078 
L 107.712 151.871261 
L 116.64 152.176339 
L 125.568 153.85786 
L 134.496 153.930815 
L 143.424 155.552042 
L 152.352 157.085027 
L 161.28 158.995309 
L 170.208 160.877516 
L 179.136 162.563492 
L 188.064 164.247962 
L 196.992 167.298588 
L 205.92 170.253706 
L 214.848 174.814684 
L 223.776 177.897714 
L 232.704 182.654657 
L 241.632 186.946905 
L 250.56 191.246436 
L 259.488 195.388021 
L 268.416 199.906599 
L 277.344 205.397036 
L 286.272 212.222142 
L 295.2 218.791484 
L 304.128 225.587103 
L 313.056 230.285504 
L 321.984 236.805665 
L 330.912 241.112755 
L 339.84 251.464998 
L 348.768 258.024185 
L 357.696 266.632615 
L 366.624 272.544846 
L 375.552 277.623128 
L 384.48 278.676397 
L 393.408 283.026239 
L 402.336 289.262706 
L 411.264 294.24674 
L 420.192 297.069006 
L 429.12 301.20599 
L 438.048 304.822046 
L 446.976 313.992095 
L 455.904 318.635994 
L 464.832 325.156989 
L 473.76 328.829486 
L 482.688 335.554624 
L 491.616 340.109511 
L 500.544 346.64173 
L 509.472 349.886966 
L 518.4 352.352437 
L 518.4 412.326881 
L 518.4 412.326881 
L 509.472 406.322972 
L 500.544 404.551988 
L 491.616 401.809311 
L 482.688 401.890356 
L 473.76 399.378247 
L 464.832 395.45308 
L 455.904 394.134305 
L 446.976 389.68915 
L 438.048 383.87631 
L 429.12 381.853411 
L 420.192 377.987685 
L 411.264 373.398556 
L 402.336 372.10858 
L 393.408 367.363545 
L 384.48 360.888734 
L 375.552 356.178186 
L 366.624 352.268503 
L 357.696 349.064206 
L 348.768 340.510662 
L 339.84 335.409591 
L 330.912 328.091319 
L 321.984 322.471022 
L 313.056 316.79847 
L 304.128 308.056404 
L 295.2 304.678919 
L 286.272 295.238516 
L 277.344 283.673439 
L 268.416 278.342096 
L 259.488 273.213833 
L 250.56 261.624865 
L 241.632 251.036455 
L 232.704 237.443812 
L 223.776 231.951553 
L 214.848 221.448772 
L 205.92 216.041868 
L 196.992 211.472841 
L 188.064 203.236695 
L 179.136 196.601415 
L 170.208 191.834972 
L 161.28 182.175613 
L 152.352 179.200514 
L 143.424 175.554245 
L 134.496 172.053256 
L 125.568 170.088735 
L 116.64 167.454746 
L 107.712 161.035492 
L 98.784 158.550415 
L 89.856 155.36031 
L 80.928 152.598372 
L 72 151.282092 
z
" style="fill:#8c564b;fill-opacity:0.3;"/>
   </g>
   <g id="PolyCollection_7">
    <path clip-path="url(#p2ebb287376)" d="M 72 151.192251 
L 72 149.738539 
L 80.928 148.986942 
L 89.856 149.488872 
L 98.784 149.464803 
L 107.712 149.511947 
L 116.64 149.779885 
L 125.568 149.566433 
L 134.496 149.686282 
L 143.424 149.906785 
L 152.352 149.981074 
L 161.28 149.881787 
L 170.208 149.925545 
L 179.136 150.011156 
L 188.064 150.156007 
L 196.992 150.215279 
L 205.92 150.418385 
L 214.848 150.510205 
L 223.776 150.528614 
L 232.704 150.436166 
L 241.632 150.451991 
L 250.56 150.361479 
L 259.488 150.416327 
L 268.416 150.452182 
L 277.344 150.451859 
L 286.272 150.579215 
L 295.2 150.59211 
L 304.128 150.591008 
L 313.056 150.645205 
L 321.984 150.644781 
L 330.912 150.63567 
L 339.84 150.59993 
L 348.768 150.6674 
L 357.696 150.658449 
L 366.624 150.665676 
L 375.552 150.684126 
L 384.48 150.707951 
L 393.408 150.748786 
L 402.336 150.764553 
L 411.264 150.835906 
L 420.192 150.82833 
L 429.12 150.871229 
L 438.048 150.883016 
L 446.976 150.885694 
L 455.904 150.917251 
L 464.832 150.916262 
L 473.76 150.91043 
L 482.688 150.913476 
L 491.616 150.905187 
L 500.544 150.915524 
L 509.472 150.915805 
L 518.4 150.946153 
L 518.4 151.444444 
L 518.4 151.444444 
L 509.472 151.441103 
L 500.544 151.439518 
L 491.616 151.431997 
L 482.688 151.417993 
L 473.76 151.415278 
L 464.832 151.417763 
L 455.904 151.412241 
L 446.976 151.424693 
L 438.048 151.419716 
L 429.12 151.419213 
L 420.192 151.430903 
L 411.264 151.430404 
L 402.336 151.439718 
L 393.408 151.43257 
L 384.48 151.438501 
L 375.552 151.432204 
L 366.624 151.435084 
L 357.696 151.439265 
L 348.768 151.446348 
L 339.84 151.436883 
L 330.912 151.453987 
L 321.984 151.438802 
L 313.056 151.430789 
L 304.128 151.473875 
L 295.2 151.445688 
L 286.272 151.413596 
L 277.344 151.47984 
L 268.416 151.478121 
L 259.488 151.491687 
L 250.56 151.471597 
L 241.632 151.426908 
L 232.704 151.399958 
L 223.776 151.385319 
L 214.848 151.364374 
L 205.92 151.339257 
L 196.992 151.436146 
L 188.064 151.474755 
L 179.136 151.53294 
L 170.208 151.530945 
L 161.28 151.457749 
L 152.352 151.446202 
L 143.424 151.430346 
L 134.496 151.399515 
L 125.568 151.489733 
L 116.64 151.376805 
L 107.712 151.297871 
L 98.784 151.107015 
L 89.856 151.083259 
L 80.928 150.918294 
L 72 151.192251 
z
" style="fill:#e377c2;fill-opacity:0.3;"/>
   </g>
   <g id="matplotlib.axis_1">
    <g id="xtick_1">
     <g id="line2d_1">
      <path clip-path="url(#p2ebb287376)" d="M 72 384.48 
L 72 51.84 
" style="fill:none;stroke:#b0b0b0;stroke-linecap:square;stroke-width:0.8;"/>
     </g>
     <g id="line2d_2">
      <defs>
       <path d="M 0 0 
L 0 3.5 
" id="m8577c7d074" style="stroke:#000000;stroke-width:0.8;"/>
      </defs>
      <g>
       <use style="stroke:#000000;stroke-width:0.8;" x="72" xlink:href="#m8577c7d074" y="384.48"/>
      </g>
     </g>
     <g id="text_1">
      <!-- 0 -->
      <defs>
       <path d="M 31.78125 66.40625 
Q 24.171875 66.40625 20.328125 58.90625 
Q 16.5 51.421875 16.5 36.375 
Q 16.5 21.390625 20.328125 13.890625 
Q 24.171875 6.390625 31.78125 6.390625 
Q 39.453125 6.390625 43.28125 13.890625 
Q 47.125 21.390625 47.125 36.375 
Q 47.125 51.421875 43.28125 58.90625 
Q 39.453125 66.40625 31.78125 66.40625 
z
M 31.78125 74.21875 
Q 44.046875 74.21875 50.515625 64.515625 
Q 56.984375 54.828125 56.984375 36.375 
Q 56.984375 17.96875 50.515625 8.265625 
Q 44.046875 -1.421875 31.78125 -1.421875 
Q 19.53125 -1.421875 13.0625 8.265625 
Q 6.59375 17.96875 6.59375 36.375 
Q 6.59375 54.828125 13.0625 64.515625 
Q 19.53125 74.21875 31.78125 74.21875 
z
" id="DejaVuSans-48"/>
      </defs>
      <g transform="translate(68.81875 399.078438)scale(0.1 -0.1)">
       <use xlink:href="#DejaVuSans-48"/>
      </g>
     </g>
    </g>
    <g id="xtick_2">
     <g id="line2d_3">
      <path clip-path="url(#p2ebb287376)" d="M 161.28 384.48 
L 161.28 51.84 
" style="fill:none;stroke:#b0b0b0;stroke-linecap:square;stroke-width:0.8;"/>
     </g>
     <g id="line2d_4">
      <g>
       <use style="stroke:#000000;stroke-width:0.8;" x="161.28" xlink:href="#m8577c7d074" y="384.48"/>
      </g>
     </g>
     <g id="text_2">
      <!-- 10 -->
      <defs>
       <path d="M 12.40625 8.296875 
L 28.515625 8.296875 
L 28.515625 63.921875 
L 10.984375 60.40625 
L 10.984375 69.390625 
L 28.421875 72.90625 
L 38.28125 72.90625 
L 38.28125 8.296875 
L 54.390625 8.296875 
L 54.390625 0 
L 12.40625 0 
z
" id="DejaVuSans-49"/>
      </defs>
      <g transform="translate(154.9175 399.078438)scale(0.1 -0.1)">
       <use xlink:href="#DejaVuSans-49"/>
       <use x="63.623047" xlink:href="#DejaVuSans-48"/>
      </g>
     </g>
    </g>
    <g id="xtick_3">
     <g id="line2d_5">
      <path clip-path="url(#p2ebb287376)" d="M 250.56 384.48 
L 250.56 51.84 
" style="fill:none;stroke:#b0b0b0;stroke-linecap:square;stroke-width:0.8;"/>
     </g>
     <g id="line2d_6">
      <g>
       <use style="stroke:#000000;stroke-width:0.8;" x="250.56" xlink:href="#m8577c7d074" y="384.48"/>
      </g>
     </g>
     <g id="text_3">
      <!-- 20 -->
      <defs>
       <path d="M 19.1875 8.296875 
L 53.609375 8.296875 
L 53.609375 0 
L 7.328125 0 
L 7.328125 8.296875 
Q 12.9375 14.109375 22.625 23.890625 
Q 32.328125 33.6875 34.8125 36.53125 
Q 39.546875 41.84375 41.421875 45.53125 
Q 43.3125 49.21875 43.3125 52.78125 
Q 43.3125 58.59375 39.234375 62.25 
Q 35.15625 65.921875 28.609375 65.921875 
Q 23.96875 65.921875 18.8125 64.3125 
Q 13.671875 62.703125 7.8125 59.421875 
L 7.8125 69.390625 
Q 13.765625 71.78125 18.9375 73 
Q 24.125 74.21875 28.421875 74.21875 
Q 39.75 74.21875 46.484375 68.546875 
Q 53.21875 62.890625 53.21875 53.421875 
Q 53.21875 48.921875 51.53125 44.890625 
Q 49.859375 40.875 45.40625 35.40625 
Q 44.1875 33.984375 37.640625 27.21875 
Q 31.109375 20.453125 19.1875 8.296875 
z
" id="DejaVuSans-50"/>
      </defs>
      <g transform="translate(244.1975 399.078438)scale(0.1 -0.1)">
       <use xlink:href="#DejaVuSans-50"/>
       <use x="63.623047" xlink:href="#DejaVuSans-48"/>
      </g>
     </g>
    </g>
    <g id="xtick_4">
     <g id="line2d_7">
      <path clip-path="url(#p2ebb287376)" d="M 339.84 384.48 
L 339.84 51.84 
" style="fill:none;stroke:#b0b0b0;stroke-linecap:square;stroke-width:0.8;"/>
     </g>
     <g id="line2d_8">
      <g>
       <use style="stroke:#000000;stroke-width:0.8;" x="339.84" xlink:href="#m8577c7d074" y="384.48"/>
      </g>
     </g>
     <g id="text_4">
      <!-- 30 -->
      <defs>
       <path d="M 40.578125 39.3125 
Q 47.65625 37.796875 51.625 33 
Q 55.609375 28.21875 55.609375 21.1875 
Q 55.609375 10.40625 48.1875 4.484375 
Q 40.765625 -1.421875 27.09375 -1.421875 
Q 22.515625 -1.421875 17.65625 -0.515625 
Q 12.796875 0.390625 7.625 2.203125 
L 7.625 11.71875 
Q 11.71875 9.328125 16.59375 8.109375 
Q 21.484375 6.890625 26.8125 6.890625 
Q 36.078125 6.890625 40.9375 10.546875 
Q 45.796875 14.203125 45.796875 21.1875 
Q 45.796875 27.640625 41.28125 31.265625 
Q 36.765625 34.90625 28.71875 34.90625 
L 20.21875 34.90625 
L 20.21875 43.015625 
L 29.109375 43.015625 
Q 36.375 43.015625 40.234375 45.921875 
Q 44.09375 48.828125 44.09375 54.296875 
Q 44.09375 59.90625 40.109375 62.90625 
Q 36.140625 65.921875 28.71875 65.921875 
Q 24.65625 65.921875 20.015625 65.03125 
Q 15.375 64.15625 9.8125 62.3125 
L 9.8125 71.09375 
Q 15.4375 72.65625 20.34375 73.4375 
Q 25.25 74.21875 29.59375 74.21875 
Q 40.828125 74.21875 47.359375 69.109375 
Q 53.90625 64.015625 53.90625 55.328125 
Q 53.90625 49.265625 50.4375 45.09375 
Q 46.96875 40.921875 40.578125 39.3125 
z
" id="DejaVuSans-51"/>
      </defs>
      <g transform="translate(333.4775 399.078438)scale(0.1 -0.1)">
       <use xlink:href="#DejaVuSans-51"/>
       <use x="63.623047" xlink:href="#DejaVuSans-48"/>
      </g>
     </g>
    </g>
    <g id="xtick_5">
     <g id="line2d_9">
      <path clip-path="url(#p2ebb287376)" d="M 429.12 384.48 
L 429.12 51.84 
" style="fill:none;stroke:#b0b0b0;stroke-linecap:square;stroke-width:0.8;"/>
     </g>
     <g id="line2d_10">
      <g>
       <use style="stroke:#000000;stroke-width:0.8;" x="429.12" xlink:href="#m8577c7d074" y="384.48"/>
      </g>
     </g>
     <g id="text_5">
      <!-- 40 -->
      <defs>
       <path d="M 37.796875 64.3125 
L 12.890625 25.390625 
L 37.796875 25.390625 
z
M 35.203125 72.90625 
L 47.609375 72.90625 
L 47.609375 25.390625 
L 58.015625 25.390625 
L 58.015625 17.1875 
L 47.609375 17.1875 
L 47.609375 0 
L 37.796875 0 
L 37.796875 17.1875 
L 4.890625 17.1875 
L 4.890625 26.703125 
z
" id="DejaVuSans-52"/>
      </defs>
      <g transform="translate(422.7575 399.078438)scale(0.1 -0.1)">
       <use xlink:href="#DejaVuSans-52"/>
       <use x="63.623047" xlink:href="#DejaVuSans-48"/>
      </g>
     </g>
    </g>
    <g id="xtick_6">
     <g id="line2d_11">
      <path clip-path="url(#p2ebb287376)" d="M 518.4 384.48 
L 518.4 51.84 
" style="fill:none;stroke:#b0b0b0;stroke-linecap:square;stroke-width:0.8;"/>
     </g>
     <g id="line2d_12">
      <g>
       <use style="stroke:#000000;stroke-width:0.8;" x="518.4" xlink:href="#m8577c7d074" y="384.48"/>
      </g>
     </g>
     <g id="text_6">
      <!-- 50 -->
      <defs>
       <path d="M 10.796875 72.90625 
L 49.515625 72.90625 
L 49.515625 64.59375 
L 19.828125 64.59375 
L 19.828125 46.734375 
Q 21.96875 47.46875 24.109375 47.828125 
Q 26.265625 48.1875 28.421875 48.1875 
Q 40.625 48.1875 47.75 41.5 
Q 54.890625 34.8125 54.890625 23.390625 
Q 54.890625 11.625 47.5625 5.09375 
Q 40.234375 -1.421875 26.90625 -1.421875 
Q 22.3125 -1.421875 17.546875 -0.640625 
Q 12.796875 0.140625 7.71875 1.703125 
L 7.71875 11.625 
Q 12.109375 9.234375 16.796875 8.0625 
Q 21.484375 6.890625 26.703125 6.890625 
Q 35.15625 6.890625 40.078125 11.328125 
Q 45.015625 15.765625 45.015625 23.390625 
Q 45.015625 31 40.078125 35.4375 
Q 35.15625 39.890625 26.703125 39.890625 
Q 22.75 39.890625 18.8125 39.015625 
Q 14.890625 38.140625 10.796875 36.28125 
z
" id="DejaVuSans-53"/>
      </defs>
      <g transform="translate(512.0375 399.078438)scale(0.1 -0.1)">
       <use xlink:href="#DejaVuSans-53"/>
       <use x="63.623047" xlink:href="#DejaVuSans-48"/>
      </g>
     </g>
    </g>
    <g id="text_7">
     <!-- Iteration -->
     <defs>
      <path d="M 9.8125 72.90625 
L 19.671875 72.90625 
L 19.671875 0 
L 9.8125 0 
z
" id="DejaVuSans-73"/>
      <path d="M 18.3125 70.21875 
L 18.3125 54.6875 
L 36.8125 54.6875 
L 36.8125 47.703125 
L 18.3125 47.703125 
L 18.3125 18.015625 
Q 18.3125 11.328125 20.140625 9.421875 
Q 21.96875 7.515625 27.59375 7.515625 
L 36.8125 7.515625 
L 36.8125 0 
L 27.59375 0 
Q 17.1875 0 13.234375 3.875 
Q 9.28125 7.765625 9.28125 18.015625 
L 9.28125 47.703125 
L 2.6875 47.703125 
L 2.6875 54.6875 
L 9.28125 54.6875 
L 9.28125 70.21875 
z
" id="DejaVuSans-116"/>
      <path d="M 56.203125 29.59375 
L 56.203125 25.203125 
L 14.890625 25.203125 
Q 15.484375 15.921875 20.484375 11.0625 
Q 25.484375 6.203125 34.421875 6.203125 
Q 39.59375 6.203125 44.453125 7.46875 
Q 49.3125 8.734375 54.109375 11.28125 
L 54.109375 2.78125 
Q 49.265625 0.734375 44.1875 -0.34375 
Q 39.109375 -1.421875 33.890625 -1.421875 
Q 20.796875 -1.421875 13.15625 6.1875 
Q 5.515625 13.8125 5.515625 26.8125 
Q 5.515625 40.234375 12.765625 48.109375 
Q 20.015625 56 32.328125 56 
Q 43.359375 56 49.78125 48.890625 
Q 56.203125 41.796875 56.203125 29.59375 
z
M 47.21875 32.234375 
Q 47.125 39.59375 43.09375 43.984375 
Q 39.0625 48.390625 32.421875 48.390625 
Q 24.90625 48.390625 20.390625 44.140625 
Q 15.875 39.890625 15.1875 32.171875 
z
" id="DejaVuSans-101"/>
      <path d="M 41.109375 46.296875 
Q 39.59375 47.171875 37.8125 47.578125 
Q 36.03125 48 33.890625 48 
Q 26.265625 48 22.1875 43.046875 
Q 18.109375 38.09375 18.109375 28.8125 
L 18.109375 0 
L 9.078125 0 
L 9.078125 54.6875 
L 18.109375 54.6875 
L 18.109375 46.1875 
Q 20.953125 51.171875 25.484375 53.578125 
Q 30.03125 56 36.53125 56 
Q 37.453125 56 38.578125 55.875 
Q 39.703125 55.765625 41.0625 55.515625 
z
" id="DejaVuSans-114"/>
      <path d="M 34.28125 27.484375 
Q 23.390625 27.484375 19.1875 25 
Q 14.984375 22.515625 14.984375 16.5 
Q 14.984375 11.71875 18.140625 8.90625 
Q 21.296875 6.109375 26.703125 6.109375 
Q 34.1875 6.109375 38.703125 11.40625 
Q 43.21875 16.703125 43.21875 25.484375 
L 43.21875 27.484375 
z
M 52.203125 31.203125 
L 52.203125 0 
L 43.21875 0 
L 43.21875 8.296875 
Q 40.140625 3.328125 35.546875 0.953125 
Q 30.953125 -1.421875 24.3125 -1.421875 
Q 15.921875 -1.421875 10.953125 3.296875 
Q 6 8.015625 6 15.921875 
Q 6 25.140625 12.171875 29.828125 
Q 18.359375 34.515625 30.609375 34.515625 
L 43.21875 34.515625 
L 43.21875 35.40625 
Q 43.21875 41.609375 39.140625 45 
Q 35.0625 48.390625 27.6875 48.390625 
Q 23 48.390625 18.546875 47.265625 
Q 14.109375 46.140625 10.015625 43.890625 
L 10.015625 52.203125 
Q 14.9375 54.109375 19.578125 55.046875 
Q 24.21875 56 28.609375 56 
Q 40.484375 56 46.34375 49.84375 
Q 52.203125 43.703125 52.203125 31.203125 
z
" id="DejaVuSans-97"/>
      <path d="M 9.421875 54.6875 
L 18.40625 54.6875 
L 18.40625 0 
L 9.421875 0 
z
M 9.421875 75.984375 
L 18.40625 75.984375 
L 18.40625 64.59375 
L 9.421875 64.59375 
z
" id="DejaVuSans-105"/>
      <path d="M 30.609375 48.390625 
Q 23.390625 48.390625 19.1875 42.75 
Q 14.984375 37.109375 14.984375 27.296875 
Q 14.984375 17.484375 19.15625 11.84375 
Q 23.34375 6.203125 30.609375 6.203125 
Q 37.796875 6.203125 41.984375 11.859375 
Q 46.1875 17.53125 46.1875 27.296875 
Q 46.1875 37.015625 41.984375 42.703125 
Q 37.796875 48.390625 30.609375 48.390625 
z
M 30.609375 56 
Q 42.328125 56 49.015625 48.375 
Q 55.71875 40.765625 55.71875 27.296875 
Q 55.71875 13.875 49.015625 6.21875 
Q 42.328125 -1.421875 30.609375 -1.421875 
Q 18.84375 -1.421875 12.171875 6.21875 
Q 5.515625 13.875 5.515625 27.296875 
Q 5.515625 40.765625 12.171875 48.375 
Q 18.84375 56 30.609375 56 
z
" id="DejaVuSans-111"/>
      <path d="M 54.890625 33.015625 
L 54.890625 0 
L 45.90625 0 
L 45.90625 32.71875 
Q 45.90625 40.484375 42.875 44.328125 
Q 39.84375 48.1875 33.796875 48.1875 
Q 26.515625 48.1875 22.3125 43.546875 
Q 18.109375 38.921875 18.109375 30.90625 
L 18.109375 0 
L 9.078125 0 
L 9.078125 54.6875 
L 18.109375 54.6875 
L 18.109375 46.1875 
Q 21.34375 51.125 25.703125 53.5625 
Q 30.078125 56 35.796875 56 
Q 45.21875 56 50.046875 50.171875 
Q 54.890625 44.34375 54.890625 33.015625 
z
" id="DejaVuSans-110"/>
     </defs>
     <g transform="translate(273.991406 412.756563)scale(0.1 -0.1)">
      <use xlink:href="#DejaVuSans-73"/>
      <use x="29.492188" xlink:href="#DejaVuSans-116"/>
      <use x="68.701172" xlink:href="#DejaVuSans-101"/>
      <use x="130.224609" xlink:href="#DejaVuSans-114"/>
      <use x="171.337891" xlink:href="#DejaVuSans-97"/>
      <use x="232.617188" xlink:href="#DejaVuSans-116"/>
      <use x="271.826172" xlink:href="#DejaVuSans-105"/>
      <use x="299.609375" xlink:href="#DejaVuSans-111"/>
      <use x="360.791016" xlink:href="#DejaVuSans-110"/>
     </g>
    </g>
   </g>
   <g id="matplotlib.axis_2">
    <g id="ytick_1">
     <g id="line2d_13">
      <path clip-path="url(#p2ebb287376)" d="M 72 384.48 
L 518.4 384.48 
" style="fill:none;stroke:#b0b0b0;stroke-linecap:square;stroke-width:0.8;"/>
     </g>
     <g id="line2d_14">
      <defs>
       <path d="M 0 0 
L -3.5 0 
" id="m83d994ad0c" style="stroke:#000000;stroke-width:0.8;"/>
      </defs>
      <g>
       <use style="stroke:#000000;stroke-width:0.8;" x="72" xlink:href="#m83d994ad0c" y="384.48"/>
      </g>
     </g>
     <g id="text_8">
      <!-- $\mathdefault{10^{-12}}$ -->
      <defs>
       <path d="M 10.59375 35.5 
L 73.1875 35.5 
L 73.1875 27.203125 
L 10.59375 27.203125 
z
" id="DejaVuSans-8722"/>
      </defs>
      <g transform="translate(37.1 388.279219)scale(0.1 -0.1)">
       <use transform="translate(0 0.765625)" xlink:href="#DejaVuSans-49"/>
       <use transform="translate(63.623047 0.765625)" xlink:href="#DejaVuSans-48"/>
       <use transform="translate(128.203125 39.046875)scale(0.7)" xlink:href="#DejaVuSans-8722"/>
       <use transform="translate(186.855469 39.046875)scale(0.7)" xlink:href="#DejaVuSans-49"/>
       <use transform="translate(231.391602 39.046875)scale(0.7)" xlink:href="#DejaVuSans-50"/>
      </g>
     </g>
    </g>
    <g id="ytick_2">
     <g id="line2d_15">
      <path clip-path="url(#p2ebb287376)" d="M 72 336.96 
L 518.4 336.96 
" style="fill:none;stroke:#b0b0b0;stroke-linecap:square;stroke-width:0.8;"/>
     </g>
     <g id="line2d_16">
      <g>
       <use style="stroke:#000000;stroke-width:0.8;" x="72" xlink:href="#m83d994ad0c" y="336.96"/>
      </g>
     </g>
     <g id="text_9">
      <!-- $\mathdefault{10^{-10}}$ -->
      <g transform="translate(37.1 340.759219)scale(0.1 -0.1)">
       <use transform="translate(0 0.765625)" xlink:href="#DejaVuSans-49"/>
       <use transform="translate(63.623047 0.765625)" xlink:href="#DejaVuSans-48"/>
       <use transform="translate(128.203125 39.046875)scale(0.7)" xlink:href="#DejaVuSans-8722"/>
       <use transform="translate(186.855469 39.046875)scale(0.7)" xlink:href="#DejaVuSans-49"/>
       <use transform="translate(231.391602 39.046875)scale(0.7)" xlink:href="#DejaVuSans-48"/>
      </g>
     </g>
    </g>
    <g id="ytick_3">
     <g id="line2d_17">
      <path clip-path="url(#p2ebb287376)" d="M 72 289.44 
L 518.4 289.44 
" style="fill:none;stroke:#b0b0b0;stroke-linecap:square;stroke-width:0.8;"/>
     </g>
     <g id="line2d_18">
      <g>
       <use style="stroke:#000000;stroke-width:0.8;" x="72" xlink:href="#m83d994ad0c" y="289.44"/>
      </g>
     </g>
     <g id="text_10">
      <!-- $\mathdefault{10^{-8}}$ -->
      <defs>
       <path d="M 31.78125 34.625 
Q 24.75 34.625 20.71875 30.859375 
Q 16.703125 27.09375 16.703125 20.515625 
Q 16.703125 13.921875 20.71875 10.15625 
Q 24.75 6.390625 31.78125 6.390625 
Q 38.8125 6.390625 42.859375 10.171875 
Q 46.921875 13.96875 46.921875 20.515625 
Q 46.921875 27.09375 42.890625 30.859375 
Q 38.875 34.625 31.78125 34.625 
z
M 21.921875 38.8125 
Q 15.578125 40.375 12.03125 44.71875 
Q 8.5 49.078125 8.5 55.328125 
Q 8.5 64.0625 14.71875 69.140625 
Q 20.953125 74.21875 31.78125 74.21875 
Q 42.671875 74.21875 48.875 69.140625 
Q 55.078125 64.0625 55.078125 55.328125 
Q 55.078125 49.078125 51.53125 44.71875 
Q 48 40.375 41.703125 38.8125 
Q 48.828125 37.15625 52.796875 32.3125 
Q 56.78125 27.484375 56.78125 20.515625 
Q 56.78125 9.90625 50.3125 4.234375 
Q 43.84375 -1.421875 31.78125 -1.421875 
Q 19.734375 -1.421875 13.25 4.234375 
Q 6.78125 9.90625 6.78125 20.515625 
Q 6.78125 27.484375 10.78125 32.3125 
Q 14.796875 37.15625 21.921875 38.8125 
z
M 18.3125 54.390625 
Q 18.3125 48.734375 21.84375 45.5625 
Q 25.390625 42.390625 31.78125 42.390625 
Q 38.140625 42.390625 41.71875 45.5625 
Q 45.3125 48.734375 45.3125 54.390625 
Q 45.3125 60.0625 41.71875 63.234375 
Q 38.140625 66.40625 31.78125 66.40625 
Q 25.390625 66.40625 21.84375 63.234375 
Q 18.3125 60.0625 18.3125 54.390625 
z
" id="DejaVuSans-56"/>
      </defs>
      <g transform="translate(41.5 293.239219)scale(0.1 -0.1)">
       <use transform="translate(0 0.765625)" xlink:href="#DejaVuSans-49"/>
       <use transform="translate(63.623047 0.765625)" xlink:href="#DejaVuSans-48"/>
       <use transform="translate(128.203125 39.046875)scale(0.7)" xlink:href="#DejaVuSans-8722"/>
       <use transform="translate(186.855469 39.046875)scale(0.7)" xlink:href="#DejaVuSans-56"/>
      </g>
     </g>
    </g>
    <g id="ytick_4">
     <g id="line2d_19">
      <path clip-path="url(#p2ebb287376)" d="M 72 241.92 
L 518.4 241.92 
" style="fill:none;stroke:#b0b0b0;stroke-linecap:square;stroke-width:0.8;"/>
     </g>
     <g id="line2d_20">
      <g>
       <use style="stroke:#000000;stroke-width:0.8;" x="72" xlink:href="#m83d994ad0c" y="241.92"/>
      </g>
     </g>
     <g id="text_11">
      <!-- $\mathdefault{10^{-6}}$ -->
      <defs>
       <path d="M 33.015625 40.375 
Q 26.375 40.375 22.484375 35.828125 
Q 18.609375 31.296875 18.609375 23.390625 
Q 18.609375 15.53125 22.484375 10.953125 
Q 26.375 6.390625 33.015625 6.390625 
Q 39.65625 6.390625 43.53125 10.953125 
Q 47.40625 15.53125 47.40625 23.390625 
Q 47.40625 31.296875 43.53125 35.828125 
Q 39.65625 40.375 33.015625 40.375 
z
M 52.59375 71.296875 
L 52.59375 62.3125 
Q 48.875 64.0625 45.09375 64.984375 
Q 41.3125 65.921875 37.59375 65.921875 
Q 27.828125 65.921875 22.671875 59.328125 
Q 17.53125 52.734375 16.796875 39.40625 
Q 19.671875 43.65625 24.015625 45.921875 
Q 28.375 48.1875 33.59375 48.1875 
Q 44.578125 48.1875 50.953125 41.515625 
Q 57.328125 34.859375 57.328125 23.390625 
Q 57.328125 12.15625 50.6875 5.359375 
Q 44.046875 -1.421875 33.015625 -1.421875 
Q 20.359375 -1.421875 13.671875 8.265625 
Q 6.984375 17.96875 6.984375 36.375 
Q 6.984375 53.65625 15.1875 63.9375 
Q 23.390625 74.21875 37.203125 74.21875 
Q 40.921875 74.21875 44.703125 73.484375 
Q 48.484375 72.75 52.59375 71.296875 
z
" id="DejaVuSans-54"/>
      </defs>
      <g transform="translate(41.5 245.719219)scale(0.1 -0.1)">
       <use transform="translate(0 0.765625)" xlink:href="#DejaVuSans-49"/>
       <use transform="translate(63.623047 0.765625)" xlink:href="#DejaVuSans-48"/>
       <use transform="translate(128.203125 39.046875)scale(0.7)" xlink:href="#DejaVuSans-8722"/>
       <use transform="translate(186.855469 39.046875)scale(0.7)" xlink:href="#DejaVuSans-54"/>
      </g>
     </g>
    </g>
    <g id="ytick_5">
     <g id="line2d_21">
      <path clip-path="url(#p2ebb287376)" d="M 72 194.4 
L 518.4 194.4 
" style="fill:none;stroke:#b0b0b0;stroke-linecap:square;stroke-width:0.8;"/>
     </g>
     <g id="line2d_22">
      <g>
       <use style="stroke:#000000;stroke-width:0.8;" x="72" xlink:href="#m83d994ad0c" y="194.4"/>
      </g>
     </g>
     <g id="text_12">
      <!-- $\mathdefault{10^{-4}}$ -->
      <g transform="translate(41.5 198.199219)scale(0.1 -0.1)">
       <use transform="translate(0 0.684375)" xlink:href="#DejaVuSans-49"/>
       <use transform="translate(63.623047 0.684375)" xlink:href="#DejaVuSans-48"/>
       <use transform="translate(128.203125 38.965625)scale(0.7)" xlink:href="#DejaVuSans-8722"/>
       <use transform="translate(186.855469 38.965625)scale(0.7)" xlink:href="#DejaVuSans-52"/>
      </g>
     </g>
    </g>
    <g id="ytick_6">
     <g id="line2d_23">
      <path clip-path="url(#p2ebb287376)" d="M 72 146.88 
L 518.4 146.88 
" style="fill:none;stroke:#b0b0b0;stroke-linecap:square;stroke-width:0.8;"/>
     </g>
     <g id="line2d_24">
      <g>
       <use style="stroke:#000000;stroke-width:0.8;" x="72" xlink:href="#m83d994ad0c" y="146.88"/>
      </g>
     </g>
     <g id="text_13">
      <!-- $\mathdefault{10^{-2}}$ -->
      <g transform="translate(41.5 150.679219)scale(0.1 -0.1)">
       <use transform="translate(0 0.765625)" xlink:href="#DejaVuSans-49"/>
       <use transform="translate(63.623047 0.765625)" xlink:href="#DejaVuSans-48"/>
       <use transform="translate(128.203125 39.046875)scale(0.7)" xlink:href="#DejaVuSans-8722"/>
       <use transform="translate(186.855469 39.046875)scale(0.7)" xlink:href="#DejaVuSans-50"/>
      </g>
     </g>
    </g>
    <g id="ytick_7">
     <g id="line2d_25">
      <path clip-path="url(#p2ebb287376)" d="M 72 99.36 
L 518.4 99.36 
" style="fill:none;stroke:#b0b0b0;stroke-linecap:square;stroke-width:0.8;"/>
     </g>
     <g id="line2d_26">
      <g>
       <use style="stroke:#000000;stroke-width:0.8;" x="72" xlink:href="#m83d994ad0c" y="99.36"/>
      </g>
     </g>
     <g id="text_14">
      <!-- $\mathdefault{10^{0}}$ -->
      <g transform="translate(47.4 103.159219)scale(0.1 -0.1)">
       <use transform="translate(0 0.765625)" xlink:href="#DejaVuSans-49"/>
       <use transform="translate(63.623047 0.765625)" xlink:href="#DejaVuSans-48"/>
       <use transform="translate(128.203125 39.046875)scale(0.7)" xlink:href="#DejaVuSans-48"/>
      </g>
     </g>
    </g>
    <g id="ytick_8">
     <g id="line2d_27">
      <path clip-path="url(#p2ebb287376)" d="M 72 51.84 
L 518.4 51.84 
" style="fill:none;stroke:#b0b0b0;stroke-linecap:square;stroke-width:0.8;"/>
     </g>
     <g id="line2d_28">
      <g>
       <use style="stroke:#000000;stroke-width:0.8;" x="72" xlink:href="#m83d994ad0c" y="51.84"/>
      </g>
     </g>
     <g id="text_15">
      <!-- $\mathdefault{10^{2}}$ -->
      <g transform="translate(47.4 55.639219)scale(0.1 -0.1)">
       <use transform="translate(0 0.765625)" xlink:href="#DejaVuSans-49"/>
       <use transform="translate(63.623047 0.765625)" xlink:href="#DejaVuSans-48"/>
       <use transform="translate(128.203125 39.046875)scale(0.7)" xlink:href="#DejaVuSans-50"/>
      </g>
     </g>
    </g>
    <g id="text_16">
     <!-- Integrated Squared Error -->
     <defs>
      <path d="M 45.40625 27.984375 
Q 45.40625 37.75 41.375 43.109375 
Q 37.359375 48.484375 30.078125 48.484375 
Q 22.859375 48.484375 18.828125 43.109375 
Q 14.796875 37.75 14.796875 27.984375 
Q 14.796875 18.265625 18.828125 12.890625 
Q 22.859375 7.515625 30.078125 7.515625 
Q 37.359375 7.515625 41.375 12.890625 
Q 45.40625 18.265625 45.40625 27.984375 
z
M 54.390625 6.78125 
Q 54.390625 -7.171875 48.1875 -13.984375 
Q 42 -20.796875 29.203125 -20.796875 
Q 24.46875 -20.796875 20.265625 -20.09375 
Q 16.0625 -19.390625 12.109375 -17.921875 
L 12.109375 -9.1875 
Q 16.0625 -11.328125 19.921875 -12.34375 
Q 23.78125 -13.375 27.78125 -13.375 
Q 36.625 -13.375 41.015625 -8.765625 
Q 45.40625 -4.15625 45.40625 5.171875 
L 45.40625 9.625 
Q 42.625 4.78125 38.28125 2.390625 
Q 33.9375 0 27.875 0 
Q 17.828125 0 11.671875 7.65625 
Q 5.515625 15.328125 5.515625 27.984375 
Q 5.515625 40.671875 11.671875 48.328125 
Q 17.828125 56 27.875 56 
Q 33.9375 56 38.28125 53.609375 
Q 42.625 51.21875 45.40625 46.390625 
L 45.40625 54.6875 
L 54.390625 54.6875 
z
" id="DejaVuSans-103"/>
      <path d="M 45.40625 46.390625 
L 45.40625 75.984375 
L 54.390625 75.984375 
L 54.390625 0 
L 45.40625 0 
L 45.40625 8.203125 
Q 42.578125 3.328125 38.25 0.953125 
Q 33.9375 -1.421875 27.875 -1.421875 
Q 17.96875 -1.421875 11.734375 6.484375 
Q 5.515625 14.40625 5.515625 27.296875 
Q 5.515625 40.1875 11.734375 48.09375 
Q 17.96875 56 27.875 56 
Q 33.9375 56 38.25 53.625 
Q 42.578125 51.265625 45.40625 46.390625 
z
M 14.796875 27.296875 
Q 14.796875 17.390625 18.875 11.75 
Q 22.953125 6.109375 30.078125 6.109375 
Q 37.203125 6.109375 41.296875 11.75 
Q 45.40625 17.390625 45.40625 27.296875 
Q 45.40625 37.203125 41.296875 42.84375 
Q 37.203125 48.484375 30.078125 48.484375 
Q 22.953125 48.484375 18.875 42.84375 
Q 14.796875 37.203125 14.796875 27.296875 
z
" id="DejaVuSans-100"/>
      <path id="DejaVuSans-32"/>
      <path d="M 53.515625 70.515625 
L 53.515625 60.890625 
Q 47.90625 63.578125 42.921875 64.890625 
Q 37.9375 66.21875 33.296875 66.21875 
Q 25.25 66.21875 20.875 63.09375 
Q 16.5 59.96875 16.5 54.203125 
Q 16.5 49.359375 19.40625 46.890625 
Q 22.3125 44.4375 30.421875 42.921875 
L 36.375 41.703125 
Q 47.40625 39.59375 52.65625 34.296875 
Q 57.90625 29 57.90625 20.125 
Q 57.90625 9.515625 50.796875 4.046875 
Q 43.703125 -1.421875 29.984375 -1.421875 
Q 24.8125 -1.421875 18.96875 -0.25 
Q 13.140625 0.921875 6.890625 3.21875 
L 6.890625 13.375 
Q 12.890625 10.015625 18.65625 8.296875 
Q 24.421875 6.59375 29.984375 6.59375 
Q 38.421875 6.59375 43.015625 9.90625 
Q 47.609375 13.234375 47.609375 19.390625 
Q 47.609375 24.75 44.3125 27.78125 
Q 41.015625 30.8125 33.5 32.328125 
L 27.484375 33.5 
Q 16.453125 35.6875 11.515625 40.375 
Q 6.59375 45.0625 6.59375 53.421875 
Q 6.59375 63.09375 13.40625 68.65625 
Q 20.21875 74.21875 32.171875 74.21875 
Q 37.3125 74.21875 42.625 73.28125 
Q 47.953125 72.359375 53.515625 70.515625 
z
" id="DejaVuSans-83"/>
      <path d="M 14.796875 27.296875 
Q 14.796875 17.390625 18.875 11.75 
Q 22.953125 6.109375 30.078125 6.109375 
Q 37.203125 6.109375 41.296875 11.75 
Q 45.40625 17.390625 45.40625 27.296875 
Q 45.40625 37.203125 41.296875 42.84375 
Q 37.203125 48.484375 30.078125 48.484375 
Q 22.953125 48.484375 18.875 42.84375 
Q 14.796875 37.203125 14.796875 27.296875 
z
M 45.40625 8.203125 
Q 42.578125 3.328125 38.25 0.953125 
Q 33.9375 -1.421875 27.875 -1.421875 
Q 17.96875 -1.421875 11.734375 6.484375 
Q 5.515625 14.40625 5.515625 27.296875 
Q 5.515625 40.1875 11.734375 48.09375 
Q 17.96875 56 27.875 56 
Q 33.9375 56 38.25 53.625 
Q 42.578125 51.265625 45.40625 46.390625 
L 45.40625 54.6875 
L 54.390625 54.6875 
L 54.390625 -20.796875 
L 45.40625 -20.796875 
z
" id="DejaVuSans-113"/>
      <path d="M 8.5 21.578125 
L 8.5 54.6875 
L 17.484375 54.6875 
L 17.484375 21.921875 
Q 17.484375 14.15625 20.5 10.265625 
Q 23.53125 6.390625 29.59375 6.390625 
Q 36.859375 6.390625 41.078125 11.03125 
Q 45.3125 15.671875 45.3125 23.6875 
L 45.3125 54.6875 
L 54.296875 54.6875 
L 54.296875 0 
L 45.3125 0 
L 45.3125 8.40625 
Q 42.046875 3.421875 37.71875 1 
Q 33.40625 -1.421875 27.6875 -1.421875 
Q 18.265625 -1.421875 13.375 4.4375 
Q 8.5 10.296875 8.5 21.578125 
z
M 31.109375 56 
z
" id="DejaVuSans-117"/>
      <path d="M 9.8125 72.90625 
L 55.90625 72.90625 
L 55.90625 64.59375 
L 19.671875 64.59375 
L 19.671875 43.015625 
L 54.390625 43.015625 
L 54.390625 34.71875 
L 19.671875 34.71875 
L 19.671875 8.296875 
L 56.78125 8.296875 
L 56.78125 0 
L 9.8125 0 
z
" id="DejaVuSans-69"/>
     </defs>
     <g transform="translate(31.020312 280.483437)rotate(-90)scale(0.1 -0.1)">
      <use xlink:href="#DejaVuSans-73"/>
      <use x="29.492188" xlink:href="#DejaVuSans-110"/>
      <use x="92.871094" xlink:href="#DejaVuSans-116"/>
      <use x="132.080078" xlink:href="#DejaVuSans-101"/>
      <use x="193.603516" xlink:href="#DejaVuSans-103"/>
      <use x="257.080078" xlink:href="#DejaVuSans-114"/>
      <use x="298.193359" xlink:href="#DejaVuSans-97"/>
      <use x="359.472656" xlink:href="#DejaVuSans-116"/>
      <use x="398.681641" xlink:href="#DejaVuSans-101"/>
      <use x="460.205078" xlink:href="#DejaVuSans-100"/>
      <use x="523.681641" xlink:href="#DejaVuSans-32"/>
      <use x="555.46875" xlink:href="#DejaVuSans-83"/>
      <use x="618.945312" xlink:href="#DejaVuSans-113"/>
      <use x="682.421875" xlink:href="#DejaVuSans-117"/>
      <use x="745.800781" xlink:href="#DejaVuSans-97"/>
      <use x="807.080078" xlink:href="#DejaVuSans-114"/>
      <use x="845.943359" xlink:href="#DejaVuSans-101"/>
      <use x="907.466797" xlink:href="#DejaVuSans-100"/>
      <use x="970.943359" xlink:href="#DejaVuSans-32"/>
      <use x="1002.730469" xlink:href="#DejaVuSans-69"/>
      <use x="1065.914062" xlink:href="#DejaVuSans-114"/>
      <use x="1105.277344" xlink:href="#DejaVuSans-114"/>
      <use x="1144.140625" xlink:href="#DejaVuSans-111"/>
      <use x="1205.322266" xlink:href="#DejaVuSans-114"/>
     </g>
    </g>
   </g>
   <g id="line2d_29">
    <path clip-path="url(#p2ebb287376)" d="M 72 150.453527 
L 80.928 149.894861 
L 89.856 149.906015 
L 98.784 149.764401 
L 107.712 149.908837 
L 116.64 149.751205 
L 125.568 149.875887 
L 134.496 150.046324 
L 143.424 150.179195 
L 152.352 150.149237 
L 161.28 149.966738 
L 170.208 150.292735 
L 179.136 150.372041 
L 188.064 150.174824 
L 196.992 150.155047 
L 205.92 150.286712 
L 214.848 150.343131 
L 223.776 150.380233 
L 232.704 150.216743 
L 241.632 150.398884 
L 250.56 150.305657 
L 259.488 150.411067 
L 268.416 150.136307 
L 277.344 150.389591 
L 286.272 150.442064 
L 295.2 150.46413 
L 304.128 150.4963 
L 313.056 150.554092 
L 321.984 150.506787 
L 330.912 149.995876 
L 339.84 150.443125 
L 348.768 150.254807 
L 357.696 150.176626 
L 366.624 149.7994 
L 375.552 149.748075 
L 384.48 149.831626 
L 393.408 150.001304 
L 402.336 150.272718 
L 411.264 149.845079 
L 420.192 149.977566 
L 429.12 149.425641 
L 438.048 149.92618 
L 446.976 149.213135 
L 455.904 148.589768 
L 464.832 149.774731 
L 473.76 149.617953 
L 482.688 149.120503 
L 491.616 149.203266 
L 500.544 149.952313 
L 509.472 149.653569 
L 518.4 150.146735 
" style="fill:none;stroke:#1f77b4;stroke-linecap:square;stroke-width:1.5;"/>
   </g>
   <g id="line2d_30">
    <path clip-path="url(#p2ebb287376)" d="M 72 148.435472 
L 80.928 141.218584 
L 89.856 138.015133 
L 98.784 136.391159 
L 107.712 131.180067 
L 116.64 127.421316 
L 125.568 128.432204 
L 134.496 130.431631 
L 143.424 132.297568 
L 152.352 134.987932 
L 161.28 135.828533 
L 170.208 140.52491 
L 179.136 145.518394 
L 188.064 149.884853 
L 196.992 159.142722 
L 205.92 160.746084 
L 214.848 166.818081 
L 223.776 177.515892 
L 232.704 182.286019 
L 241.632 189.833536 
L 250.56 195.375851 
L 259.488 202.474358 
L 268.416 211.208527 
L 277.344 220.036162 
L 286.272 226.243401 
L 295.2 230.35032 
L 304.128 234.856594 
L 313.056 239.518892 
L 321.984 243.927192 
L 330.912 246.422453 
L 339.84 249.853969 
L 348.768 252.081046 
L 357.696 256.545677 
L 366.624 259.42906 
L 375.552 264.553252 
L 384.48 264.503152 
L 393.408 269.460984 
L 402.336 271.890519 
L 411.264 274.875991 
L 420.192 276.783222 
L 429.12 278.946655 
L 438.048 280.279196 
L 446.976 283.014433 
L 455.904 282.902085 
L 464.832 285.173219 
L 473.76 288.591022 
L 482.688 290.706292 
L 491.616 291.459251 
L 500.544 295.57324 
L 509.472 298.708671 
L 518.4 302.291678 
" style="fill:none;stroke:#ff7f0e;stroke-linecap:square;stroke-width:1.5;"/>
   </g>
   <g id="line2d_31">
    <path clip-path="url(#p2ebb287376)" d="M 72 151.799326 
L 80.928 152.823928 
L 89.856 154.20499 
L 98.784 155.527245 
L 107.712 157.119042 
L 116.64 159.630186 
L 125.568 161.461727 
L 134.496 162.835102 
L 143.424 164.853502 
L 152.352 167.149342 
L 161.28 168.510931 
L 170.208 170.220892 
L 179.136 171.432761 
L 188.064 173.098934 
L 196.992 174.556726 
L 205.92 176.069942 
L 214.848 177.018369 
L 223.776 178.090673 
L 232.704 178.748719 
L 241.632 179.416113 
L 250.56 180.89854 
L 259.488 181.068746 
L 268.416 182.203513 
L 277.344 183.639517 
L 286.272 184.979981 
L 295.2 185.54531 
L 304.128 186.639291 
L 313.056 187.245691 
L 321.984 188.576647 
L 330.912 189.741695 
L 339.84 190.752474 
L 348.768 191.934225 
L 357.696 192.357715 
L 366.624 192.489038 
L 375.552 193.0303 
L 384.48 193.343769 
L 393.408 194.919292 
L 402.336 195.877792 
L 411.264 196.645406 
L 420.192 197.086665 
L 429.12 197.506052 
L 438.048 197.745478 
L 446.976 197.998294 
L 455.904 199.290844 
L 464.832 200.019742 
L 473.76 200.716849 
L 482.688 201.410512 
L 491.616 202.68623 
L 500.544 203.946941 
L 509.472 204.363487 
L 518.4 205.082368 
" style="fill:none;stroke:#2ca02c;stroke-linecap:square;stroke-width:1.5;"/>
   </g>
   <g id="line2d_32">
    <path clip-path="url(#p2ebb287376)" d="M 72 150.513169 
L 80.928 150.828137 
L 89.856 152.30754 
L 98.784 154.80947 
L 107.712 157.004874 
L 116.64 158.406002 
L 125.568 160.695079 
L 134.496 163.335044 
L 143.424 166.570095 
L 152.352 169.720605 
L 161.28 171.712081 
L 170.208 173.737861 
L 179.136 175.789713 
L 188.064 178.525857 
L 196.992 179.952333 
L 205.92 182.847542 
L 214.848 185.542755 
L 223.776 187.293748 
L 232.704 189.631232 
L 241.632 191.655307 
L 250.56 192.605677 
L 259.488 194.823781 
L 268.416 197.10447 
L 277.344 199.542475 
L 286.272 203.059871 
L 295.2 204.705265 
L 304.128 206.85073 
L 313.056 208.404238 
L 321.984 211.041774 
L 330.912 212.445701 
L 339.84 215.796425 
L 348.768 217.228874 
L 357.696 218.870182 
L 366.624 221.418376 
L 375.552 222.633021 
L 384.48 223.525365 
L 393.408 224.856029 
L 402.336 225.941725 
L 411.264 227.117072 
L 420.192 228.202981 
L 429.12 230.315778 
L 438.048 231.250071 
L 446.976 231.978558 
L 455.904 232.495303 
L 464.832 233.655724 
L 473.76 234.847855 
L 482.688 235.946849 
L 491.616 236.262112 
L 500.544 237.209879 
L 509.472 237.765773 
L 518.4 238.823858 
" style="fill:none;stroke:#d62728;stroke-linecap:square;stroke-width:1.5;"/>
   </g>
   <g id="line2d_33">
    <path clip-path="url(#p2ebb287376)" d="M 72 148.353233 
L 80.928 145.824702 
L 89.856 149.105669 
L 98.784 150.2373 
L 107.712 154.281142 
L 116.64 156.920993 
L 125.568 157.705707 
L 134.496 159.32206 
L 143.424 165.113965 
L 152.352 169.463861 
L 161.28 171.62095 
L 170.208 175.350164 
L 179.136 180.63787 
L 188.064 184.44631 
L 196.992 189.313801 
L 205.92 193.407976 
L 214.848 197.626784 
L 223.776 200.419223 
L 232.704 204.375194 
L 241.632 207.140947 
L 250.56 209.067227 
L 259.488 211.944758 
L 268.416 214.78896 
L 277.344 216.290124 
L 286.272 218.948904 
L 295.2 222.315929 
L 304.128 225.025686 
L 313.056 227.328459 
L 321.984 230.138742 
L 330.912 232.724854 
L 339.84 235.833954 
L 348.768 239.888577 
L 357.696 242.341515 
L 366.624 245.158887 
L 375.552 247.392515 
L 384.48 247.577493 
L 393.408 249.813417 
L 402.336 252.710158 
L 411.264 253.387093 
L 420.192 254.684113 
L 429.12 256.987977 
L 438.048 260.747784 
L 446.976 262.52792 
L 455.904 264.596497 
L 464.832 267.575063 
L 473.76 272.371936 
L 482.688 273.530064 
L 491.616 275.552211 
L 500.544 276.225312 
L 509.472 281.051977 
L 518.4 283.825438 
" style="fill:none;stroke:#9467bd;stroke-linecap:square;stroke-width:1.5;"/>
   </g>
   <g id="line2d_34">
    <path clip-path="url(#p2ebb287376)" d="M 72 150.400827 
L 80.928 151.252377 
L 89.856 152.60492 
L 98.784 154.458247 
L 107.712 156.453376 
L 116.64 159.815543 
L 125.568 161.973298 
L 134.496 162.992036 
L 143.424 165.553144 
L 152.352 168.142771 
L 161.28 170.585461 
L 170.208 176.356244 
L 179.136 179.582454 
L 188.064 183.742328 
L 196.992 189.385715 
L 205.92 193.147787 
L 214.848 198.131728 
L 223.776 204.924633 
L 232.704 210.049235 
L 241.632 218.99168 
L 250.56 226.43565 
L 259.488 234.300927 
L 268.416 239.124348 
L 277.344 244.535237 
L 286.272 253.730329 
L 295.2 261.735202 
L 304.128 266.821753 
L 313.056 273.541987 
L 321.984 279.638344 
L 330.912 284.602037 
L 339.84 293.437294 
L 348.768 299.267423 
L 357.696 307.848411 
L 366.624 312.406674 
L 375.552 316.900657 
L 384.48 319.782566 
L 393.408 325.194892 
L 402.336 330.685643 
L 411.264 333.822648 
L 420.192 337.528346 
L 429.12 341.529701 
L 438.048 344.349178 
L 446.976 351.840622 
L 455.904 356.385149 
L 464.832 360.305035 
L 473.76 364.103867 
L 482.688 368.72249 
L 491.616 370.959411 
L 500.544 375.596859 
L 509.472 378.104969 
L 518.4 382.339659 
" style="fill:none;stroke:#8c564b;stroke-linecap:square;stroke-width:1.5;"/>
   </g>
   <g id="line2d_35">
    <path clip-path="url(#p2ebb287376)" d="M 72 150.465395 
L 80.928 149.952618 
L 89.856 150.286065 
L 98.784 150.285909 
L 107.712 150.404909 
L 116.64 150.578345 
L 125.568 150.528083 
L 134.496 150.542898 
L 143.424 150.668565 
L 152.352 150.713638 
L 161.28 150.669768 
L 170.208 150.728245 
L 179.136 150.772048 
L 188.064 150.815381 
L 196.992 150.825713 
L 205.92 150.878821 
L 214.848 150.93729 
L 223.776 150.956967 
L 232.704 150.918062 
L 241.632 150.939449 
L 250.56 150.916538 
L 259.488 150.954007 
L 268.416 150.965152 
L 277.344 150.965849 
L 286.272 150.996405 
L 295.2 151.018899 
L 304.128 151.032442 
L 313.056 151.037997 
L 321.984 151.041791 
L 330.912 151.044828 
L 339.84 151.018407 
L 348.768 151.056874 
L 357.696 151.048857 
L 366.624 151.05038 
L 375.552 151.058165 
L 384.48 151.073226 
L 393.408 151.090678 
L 402.336 151.102136 
L 411.264 151.133155 
L 420.192 151.129616 
L 429.12 151.145221 
L 438.048 151.151366 
L 446.976 151.155194 
L 455.904 151.164746 
L 464.832 151.167012 
L 473.76 151.162854 
L 482.688 151.165735 
L 491.616 151.168592 
L 500.544 151.177521 
L 509.472 151.178454 
L 518.4 151.195299 
" style="fill:none;stroke:#e377c2;stroke-linecap:square;stroke-width:1.5;"/>
   </g>
   <g id="patch_3">
    <path d="M 72 384.48 
L 72 51.84 
" style="fill:none;stroke:#000000;stroke-linecap:square;stroke-linejoin:miter;stroke-width:0.8;"/>
   </g>
   <g id="patch_4">
    <path d="M 518.4 384.48 
L 518.4 51.84 
" style="fill:none;stroke:#000000;stroke-linecap:square;stroke-linejoin:miter;stroke-width:0.8;"/>
   </g>
   <g id="patch_5">
    <path d="M 72 384.48 
L 518.4 384.48 
" style="fill:none;stroke:#000000;stroke-linecap:square;stroke-linejoin:miter;stroke-width:0.8;"/>
   </g>
   <g id="patch_6">
    <path d="M 72 51.84 
L 518.4 51.84 
" style="fill:none;stroke:#000000;stroke-linecap:square;stroke-linejoin:miter;stroke-width:0.8;"/>
   </g>
   <g id="legend_1">
    <g id="patch_7">
     <path d="M 79 379.48 
L 165.804688 379.48 
Q 167.804688 379.48 167.804688 377.48 
L 167.804688 275.733125 
Q 167.804688 273.733125 165.804688 273.733125 
L 79 273.733125 
Q 77 273.733125 77 275.733125 
L 77 377.48 
Q 77 379.48 79 379.48 
z
" style="fill:#ffffff;opacity:0.8;stroke:#cccccc;stroke-linejoin:miter;"/>
    </g>
    <g id="line2d_36">
     <path d="M 81 281.831563 
L 101 281.831563 
" style="fill:none;stroke:#1f77b4;stroke-linecap:square;stroke-width:1.5;"/>
    </g>
    <g id="line2d_37"/>
    <g id="text_17">
     <!-- Constant -->
     <defs>
      <path d="M 64.40625 67.28125 
L 64.40625 56.890625 
Q 59.421875 61.53125 53.78125 63.8125 
Q 48.140625 66.109375 41.796875 66.109375 
Q 29.296875 66.109375 22.65625 58.46875 
Q 16.015625 50.828125 16.015625 36.375 
Q 16.015625 21.96875 22.65625 14.328125 
Q 29.296875 6.6875 41.796875 6.6875 
Q 48.140625 6.6875 53.78125 8.984375 
Q 59.421875 11.28125 64.40625 15.921875 
L 64.40625 5.609375 
Q 59.234375 2.09375 53.4375 0.328125 
Q 47.65625 -1.421875 41.21875 -1.421875 
Q 24.65625 -1.421875 15.125 8.703125 
Q 5.609375 18.84375 5.609375 36.375 
Q 5.609375 53.953125 15.125 64.078125 
Q 24.65625 74.21875 41.21875 74.21875 
Q 47.75 74.21875 53.53125 72.484375 
Q 59.328125 70.75 64.40625 67.28125 
z
" id="DejaVuSans-67"/>
      <path d="M 44.28125 53.078125 
L 44.28125 44.578125 
Q 40.484375 46.53125 36.375 47.5 
Q 32.28125 48.484375 27.875 48.484375 
Q 21.1875 48.484375 17.84375 46.4375 
Q 14.5 44.390625 14.5 40.28125 
Q 14.5 37.15625 16.890625 35.375 
Q 19.28125 33.59375 26.515625 31.984375 
L 29.59375 31.296875 
Q 39.15625 29.25 43.1875 25.515625 
Q 47.21875 21.78125 47.21875 15.09375 
Q 47.21875 7.46875 41.1875 3.015625 
Q 35.15625 -1.421875 24.609375 -1.421875 
Q 20.21875 -1.421875 15.453125 -0.5625 
Q 10.6875 0.296875 5.421875 2 
L 5.421875 11.28125 
Q 10.40625 8.6875 15.234375 7.390625 
Q 20.0625 6.109375 24.8125 6.109375 
Q 31.15625 6.109375 34.5625 8.28125 
Q 37.984375 10.453125 37.984375 14.40625 
Q 37.984375 18.0625 35.515625 20.015625 
Q 33.0625 21.96875 24.703125 23.78125 
L 21.578125 24.515625 
Q 13.234375 26.265625 9.515625 29.90625 
Q 5.8125 33.546875 5.8125 39.890625 
Q 5.8125 47.609375 11.28125 51.796875 
Q 16.75 56 26.8125 56 
Q 31.78125 56 36.171875 55.265625 
Q 40.578125 54.546875 44.28125 53.078125 
z
" id="DejaVuSans-115"/>
     </defs>
     <g transform="translate(109 285.331563)scale(0.1 -0.1)">
      <use xlink:href="#DejaVuSans-67"/>
      <use x="69.824219" xlink:href="#DejaVuSans-111"/>
      <use x="131.005859" xlink:href="#DejaVuSans-110"/>
      <use x="194.384766" xlink:href="#DejaVuSans-115"/>
      <use x="246.484375" xlink:href="#DejaVuSans-116"/>
      <use x="285.693359" xlink:href="#DejaVuSans-97"/>
      <use x="346.972656" xlink:href="#DejaVuSans-110"/>
      <use x="410.351562" xlink:href="#DejaVuSans-116"/>
     </g>
    </g>
    <g id="line2d_38">
     <path d="M 81 296.509688 
L 101 296.509688 
" style="fill:none;stroke:#ff7f0e;stroke-linecap:square;stroke-width:1.5;"/>
    </g>
    <g id="line2d_39"/>
    <g id="text_18">
     <!-- RBF -->
     <defs>
      <path d="M 44.390625 34.1875 
Q 47.5625 33.109375 50.5625 29.59375 
Q 53.5625 26.078125 56.59375 19.921875 
L 66.609375 0 
L 56 0 
L 46.6875 18.703125 
Q 43.0625 26.03125 39.671875 28.421875 
Q 36.28125 30.8125 30.421875 30.8125 
L 19.671875 30.8125 
L 19.671875 0 
L 9.8125 0 
L 9.8125 72.90625 
L 32.078125 72.90625 
Q 44.578125 72.90625 50.734375 67.671875 
Q 56.890625 62.453125 56.890625 51.90625 
Q 56.890625 45.015625 53.6875 40.46875 
Q 50.484375 35.9375 44.390625 34.1875 
z
M 19.671875 64.796875 
L 19.671875 38.921875 
L 32.078125 38.921875 
Q 39.203125 38.921875 42.84375 42.21875 
Q 46.484375 45.515625 46.484375 51.90625 
Q 46.484375 58.296875 42.84375 61.546875 
Q 39.203125 64.796875 32.078125 64.796875 
z
" id="DejaVuSans-82"/>
      <path d="M 19.671875 34.8125 
L 19.671875 8.109375 
L 35.5 8.109375 
Q 43.453125 8.109375 47.28125 11.40625 
Q 51.125 14.703125 51.125 21.484375 
Q 51.125 28.328125 47.28125 31.5625 
Q 43.453125 34.8125 35.5 34.8125 
z
M 19.671875 64.796875 
L 19.671875 42.828125 
L 34.28125 42.828125 
Q 41.5 42.828125 45.03125 45.53125 
Q 48.578125 48.25 48.578125 53.8125 
Q 48.578125 59.328125 45.03125 62.0625 
Q 41.5 64.796875 34.28125 64.796875 
z
M 9.8125 72.90625 
L 35.015625 72.90625 
Q 46.296875 72.90625 52.390625 68.21875 
Q 58.5 63.53125 58.5 54.890625 
Q 58.5 48.1875 55.375 44.234375 
Q 52.25 40.28125 46.1875 39.3125 
Q 53.46875 37.75 57.5 32.78125 
Q 61.53125 27.828125 61.53125 20.40625 
Q 61.53125 10.640625 54.890625 5.3125 
Q 48.25 0 35.984375 0 
L 9.8125 0 
z
" id="DejaVuSans-66"/>
      <path d="M 9.8125 72.90625 
L 51.703125 72.90625 
L 51.703125 64.59375 
L 19.671875 64.59375 
L 19.671875 43.109375 
L 48.578125 43.109375 
L 48.578125 34.8125 
L 19.671875 34.8125 
L 19.671875 0 
L 9.8125 0 
z
" id="DejaVuSans-70"/>
     </defs>
     <g transform="translate(109 300.009688)scale(0.1 -0.1)">
      <use xlink:href="#DejaVuSans-82"/>
      <use x="69.482422" xlink:href="#DejaVuSans-66"/>
      <use x="138.085938" xlink:href="#DejaVuSans-70"/>
     </g>
    </g>
    <g id="line2d_40">
     <path d="M 81 311.187813 
L 101 311.187813 
" style="fill:none;stroke:#2ca02c;stroke-linecap:square;stroke-width:1.5;"/>
    </g>
    <g id="line2d_41"/>
    <g id="text_19">
     <!-- Matrn-1/2 -->
     <defs>
      <path d="M 9.8125 72.90625 
L 24.515625 72.90625 
L 43.109375 23.296875 
L 61.8125 72.90625 
L 76.515625 72.90625 
L 76.515625 0 
L 66.890625 0 
L 66.890625 64.015625 
L 48.09375 14.015625 
L 38.1875 14.015625 
L 19.390625 64.015625 
L 19.390625 0 
L 9.8125 0 
z
" id="DejaVuSans-77"/>
      <path d="M 56.203125 29.59375 
L 56.203125 25.203125 
L 14.890625 25.203125 
Q 15.484375 15.921875 20.484375 11.0625 
Q 25.484375 6.203125 34.421875 6.203125 
Q 39.59375 6.203125 44.453125 7.46875 
Q 49.3125 8.734375 54.109375 11.28125 
L 54.109375 2.78125 
Q 49.265625 0.734375 44.1875 -0.34375 
Q 39.109375 -1.421875 33.890625 -1.421875 
Q 20.796875 -1.421875 13.15625 6.1875 
Q 5.515625 13.8125 5.515625 26.8125 
Q 5.515625 40.234375 12.765625 48.109375 
Q 20.015625 56 32.328125 56 
Q 43.359375 56 49.78125 48.890625 
Q 56.203125 41.796875 56.203125 29.59375 
z
M 47.21875 32.234375 
Q 47.125 39.59375 43.09375 43.984375 
Q 39.0625 48.390625 32.421875 48.390625 
Q 24.90625 48.390625 20.390625 44.140625 
Q 15.875 39.890625 15.1875 32.171875 
z
M 38.53125 79.984375 
L 48.25 79.984375 
L 32.34375 61.625 
L 24.859375 61.625 
z
" id="DejaVuSans-233"/>
      <path d="M 4.890625 31.390625 
L 31.203125 31.390625 
L 31.203125 23.390625 
L 4.890625 23.390625 
z
" id="DejaVuSans-45"/>
      <path d="M 25.390625 72.90625 
L 33.6875 72.90625 
L 8.296875 -9.28125 
L 0 -9.28125 
z
" id="DejaVuSans-47"/>
     </defs>
     <g transform="translate(109 314.687813)scale(0.1 -0.1)">
      <use xlink:href="#DejaVuSans-77"/>
      <use x="86.279297" xlink:href="#DejaVuSans-97"/>
      <use x="147.558594" xlink:href="#DejaVuSans-116"/>
      <use x="186.767578" xlink:href="#DejaVuSans-233"/>
      <use x="248.291016" xlink:href="#DejaVuSans-114"/>
      <use x="287.654297" xlink:href="#DejaVuSans-110"/>
      <use x="351.033203" xlink:href="#DejaVuSans-45"/>
      <use x="387.117188" xlink:href="#DejaVuSans-49"/>
      <use x="450.740234" xlink:href="#DejaVuSans-47"/>
      <use x="484.431641" xlink:href="#DejaVuSans-50"/>
     </g>
    </g>
    <g id="line2d_42">
     <path d="M 81 325.865938 
L 101 325.865938 
" style="fill:none;stroke:#d62728;stroke-linecap:square;stroke-width:1.5;"/>
    </g>
    <g id="line2d_43"/>
    <g id="text_20">
     <!-- Matrn-3/2 -->
     <g transform="translate(109 329.365938)scale(0.1 -0.1)">
      <use xlink:href="#DejaVuSans-77"/>
      <use x="86.279297" xlink:href="#DejaVuSans-97"/>
      <use x="147.558594" xlink:href="#DejaVuSans-116"/>
      <use x="186.767578" xlink:href="#DejaVuSans-233"/>
      <use x="248.291016" xlink:href="#DejaVuSans-114"/>
      <use x="287.654297" xlink:href="#DejaVuSans-110"/>
      <use x="351.033203" xlink:href="#DejaVuSans-45"/>
      <use x="387.117188" xlink:href="#DejaVuSans-51"/>
      <use x="450.740234" xlink:href="#DejaVuSans-47"/>
      <use x="484.431641" xlink:href="#DejaVuSans-50"/>
     </g>
    </g>
    <g id="line2d_44">
     <path d="M 81 340.544062 
L 101 340.544062 
" style="fill:none;stroke:#9467bd;stroke-linecap:square;stroke-width:1.5;"/>
    </g>
    <g id="line2d_45"/>
    <g id="text_21">
     <!-- Matrn-5/2 -->
     <g transform="translate(109 344.044062)scale(0.1 -0.1)">
      <use xlink:href="#DejaVuSans-77"/>
      <use x="86.279297" xlink:href="#DejaVuSans-97"/>
      <use x="147.558594" xlink:href="#DejaVuSans-116"/>
      <use x="186.767578" xlink:href="#DejaVuSans-233"/>
      <use x="248.291016" xlink:href="#DejaVuSans-114"/>
      <use x="287.654297" xlink:href="#DejaVuSans-110"/>
      <use x="351.033203" xlink:href="#DejaVuSans-45"/>
      <use x="387.117188" xlink:href="#DejaVuSans-53"/>
      <use x="450.740234" xlink:href="#DejaVuSans-47"/>
      <use x="484.431641" xlink:href="#DejaVuSans-50"/>
     </g>
    </g>
    <g id="line2d_46">
     <path d="M 81 355.222188 
L 101 355.222188 
" style="fill:none;stroke:#8c564b;stroke-linecap:square;stroke-width:1.5;"/>
    </g>
    <g id="line2d_47"/>
    <g id="text_22">
     <!-- RQ -->
     <defs>
      <path d="M 39.40625 66.21875 
Q 28.65625 66.21875 22.328125 58.203125 
Q 16.015625 50.203125 16.015625 36.375 
Q 16.015625 22.609375 22.328125 14.59375 
Q 28.65625 6.59375 39.40625 6.59375 
Q 50.140625 6.59375 56.421875 14.59375 
Q 62.703125 22.609375 62.703125 36.375 
Q 62.703125 50.203125 56.421875 58.203125 
Q 50.140625 66.21875 39.40625 66.21875 
z
M 53.21875 1.3125 
L 66.21875 -12.890625 
L 54.296875 -12.890625 
L 43.5 -1.21875 
Q 41.890625 -1.3125 41.03125 -1.359375 
Q 40.1875 -1.421875 39.40625 -1.421875 
Q 24.03125 -1.421875 14.8125 8.859375 
Q 5.609375 19.140625 5.609375 36.375 
Q 5.609375 53.65625 14.8125 63.9375 
Q 24.03125 74.21875 39.40625 74.21875 
Q 54.734375 74.21875 63.90625 63.9375 
Q 73.09375 53.65625 73.09375 36.375 
Q 73.09375 23.6875 67.984375 14.640625 
Q 62.890625 5.609375 53.21875 1.3125 
z
" id="DejaVuSans-81"/>
     </defs>
     <g transform="translate(109 358.722188)scale(0.1 -0.1)">
      <use xlink:href="#DejaVuSans-82"/>
      <use x="69.482422" xlink:href="#DejaVuSans-81"/>
     </g>
    </g>
    <g id="line2d_48">
     <path d="M 81 369.900313 
L 101 369.900313 
" style="fill:none;stroke:#e377c2;stroke-linecap:square;stroke-width:1.5;"/>
    </g>
    <g id="line2d_49"/>
    <g id="text_23">
     <!-- Dot Prod. -->
     <defs>
      <path d="M 19.671875 64.796875 
L 19.671875 8.109375 
L 31.59375 8.109375 
Q 46.6875 8.109375 53.6875 14.9375 
Q 60.6875 21.78125 60.6875 36.53125 
Q 60.6875 51.171875 53.6875 57.984375 
Q 46.6875 64.796875 31.59375 64.796875 
z
M 9.8125 72.90625 
L 30.078125 72.90625 
Q 51.265625 72.90625 61.171875 64.09375 
Q 71.09375 55.28125 71.09375 36.53125 
Q 71.09375 17.671875 61.125 8.828125 
Q 51.171875 0 30.078125 0 
L 9.8125 0 
z
" id="DejaVuSans-68"/>
      <path d="M 19.671875 64.796875 
L 19.671875 37.40625 
L 32.078125 37.40625 
Q 38.96875 37.40625 42.71875 40.96875 
Q 46.484375 44.53125 46.484375 51.125 
Q 46.484375 57.671875 42.71875 61.234375 
Q 38.96875 64.796875 32.078125 64.796875 
z
M 9.8125 72.90625 
L 32.078125 72.90625 
Q 44.34375 72.90625 50.609375 67.359375 
Q 56.890625 61.8125 56.890625 51.125 
Q 56.890625 40.328125 50.609375 34.8125 
Q 44.34375 29.296875 32.078125 29.296875 
L 19.671875 29.296875 
L 19.671875 0 
L 9.8125 0 
z
" id="DejaVuSans-80"/>
      <path d="M 10.6875 12.40625 
L 21 12.40625 
L 21 0 
L 10.6875 0 
z
" id="DejaVuSans-46"/>
     </defs>
     <g transform="translate(109 373.400313)scale(0.1 -0.1)">
      <use xlink:href="#DejaVuSans-68"/>
      <use x="77.001953" xlink:href="#DejaVuSans-111"/>
      <use x="138.183594" xlink:href="#DejaVuSans-116"/>
      <use x="177.392578" xlink:href="#DejaVuSans-32"/>
      <use x="209.179688" xlink:href="#DejaVuSans-80"/>
      <use x="267.732422" xlink:href="#DejaVuSans-114"/>
      <use x="306.595703" xlink:href="#DejaVuSans-111"/>
      <use x="367.777344" xlink:href="#DejaVuSans-100"/>
      <use x="431.253906" xlink:href="#DejaVuSans-46"/>
     </g>
    </g>
   </g>
  </g>
 </g>
 <defs>
  <clipPath id="p2ebb287376">
   <rect height="332.64" width="446.4" x="72" y="51.84"/>
  </clipPath>
 </defs>
</svg>
