<?xml version="1.0" encoding="utf-8" standalone="no"?>
<!DOCTYPE svg PUBLIC "-//W3C//DTD SVG 1.1//EN"
  "http://www.w3.org/Graphics/SVG/1.1/DTD/svg11.dtd">
<!-- Created with matplotlib (https://matplotlib.org/) -->
<svg height="432pt" version="1.1" viewBox="0 0 576 432" width="576pt" xmlns="http://www.w3.org/2000/svg" xmlns:xlink="http://www.w3.org/1999/xlink">
 <defs>
  <style type="text/css">
*{stroke-linecap:butt;stroke-linejoin:round;}
  </style>
 </defs>
 <g id="figure_1">
  <g id="patch_1">
   <path d="M 0 432 
L 576 432 
L 576 0 
L 0 0 
z
" style="fill:#ffffff;"/>
  </g>
  <g id="axes_1">
   <g id="patch_2">
    <path d="M 72 384.48 
L 518.4 384.48 
L 518.4 51.84 
L 72 51.84 
z
" style="fill:#ffffff;"/>
   </g>
   <g id="PolyCollection_1"/>
   <g id="PolyCollection_2">
    <path clip-path="url(#p9f62cb1f92)" d="M 72 168.379319 
L 72 76.145354 
L 80.928 87.859793 
L 89.856 99.390271 
L 98.784 99.389693 
L 107.712 96.03756 
L 116.64 96.428132 
L 125.568 96.948171 
L 134.496 96.130447 
L 143.424 96.616572 
L 152.352 96.993912 
L 161.28 89.514349 
L 170.208 91.263495 
L 179.136 89.786462 
L 188.064 95.893681 
L 196.992 95.512623 
L 205.92 95.270897 
L 214.848 95.05909 
L 223.776 94.093891 
L 232.704 93.458959 
L 241.632 93.728586 
L 250.56 92.789407 
L 259.488 93.071112 
L 268.416 92.532207 
L 277.344 92.284048 
L 286.272 91.737792 
L 295.2 91.264948 
L 304.128 90.874185 
L 313.056 87.992011 
L 321.984 82.324053 
L 330.912 82.19966 
L 339.84 87.071754 
L 348.768 83.790504 
L 357.696 83.300035 
L 366.624 81.508723 
L 375.552 79.378202 
L 384.48 79.244792 
L 393.408 80.104814 
L 402.336 79.529144 
L 411.264 80.125258 
L 420.192 80.039323 
L 429.12 79.298244 
L 438.048 78.413908 
L 446.976 78.252103 
L 455.904 78.236623 
L 464.832 78.130529 
L 473.76 77.61331 
L 482.688 77.003715 
L 491.616 77.010931 
L 500.544 76.662267 
L 509.472 76.208328 
L 518.4 75.998859 
L 518.4 160.31053 
L 518.4 160.31053 
L 509.472 159.826124 
L 500.544 158.594611 
L 491.616 157.813168 
L 482.688 157.226802 
L 473.76 155.867068 
L 464.832 149.902209 
L 455.904 149.51784 
L 446.976 146.483102 
L 438.048 145.692064 
L 429.12 143.941095 
L 420.192 142.286364 
L 411.264 141.951403 
L 402.336 143.147172 
L 393.408 136.431438 
L 384.48 138.936749 
L 375.552 139.016241 
L 366.624 132.169574 
L 357.696 126.308901 
L 348.768 125.443549 
L 339.84 118.039763 
L 330.912 127.846573 
L 321.984 127.642751 
L 313.056 116.64718 
L 304.128 112.275387 
L 295.2 111.68906 
L 286.272 110.979649 
L 277.344 110.152724 
L 268.416 109.731137 
L 259.488 108.942045 
L 250.56 109.350746 
L 241.632 107.816147 
L 232.704 108.152475 
L 223.776 107.145096 
L 214.848 105.816026 
L 205.92 105.526327 
L 196.992 105.251847 
L 188.064 104.687511 
L 179.136 112.938903 
L 170.208 111.009431 
L 161.28 113.38298 
L 152.352 102.590388 
L 143.424 103.093474 
L 134.496 103.741262 
L 125.568 102.650632 
L 116.64 103.343537 
L 107.712 103.863815 
L 98.784 99.393345 
L 89.856 99.392178 
L 80.928 114.766335 
L 72 168.379319 
z
" style="fill:#ff7f0e;fill-opacity:0.3;"/>
   </g>
   <g id="PolyCollection_3">
    <path clip-path="url(#p9f62cb1f92)" d="M 72 148.801186 
L 72 141.905003 
L 80.928 144.957338 
L 89.856 148.511753 
L 98.784 150.056592 
L 107.712 151.841176 
L 116.64 152.978161 
L 125.568 152.820889 
L 134.496 153.833058 
L 143.424 153.747469 
L 152.352 154.947286 
L 161.28 154.803394 
L 170.208 156.597954 
L 179.136 157.50395 
L 188.064 158.42223 
L 196.992 159.235719 
L 205.92 159.788754 
L 214.848 160.514506 
L 223.776 160.737716 
L 232.704 161.511543 
L 241.632 162.327387 
L 250.56 162.769019 
L 259.488 163.498984 
L 268.416 164.182869 
L 277.344 164.637159 
L 286.272 164.542061 
L 295.2 165.012975 
L 304.128 165.521577 
L 313.056 165.860445 
L 321.984 166.486218 
L 330.912 167.104451 
L 339.84 167.309097 
L 348.768 167.775448 
L 357.696 168.249238 
L 366.624 168.781418 
L 375.552 169.102092 
L 384.48 169.535845 
L 393.408 169.849598 
L 402.336 170.276146 
L 411.264 170.621342 
L 420.192 170.853769 
L 429.12 171.308268 
L 438.048 171.662739 
L 446.976 172.083966 
L 455.904 172.57269 
L 464.832 172.883097 
L 473.76 173.290971 
L 482.688 173.681085 
L 491.616 174.196501 
L 500.544 174.457712 
L 509.472 174.713495 
L 518.4 175.051688 
L 518.4 181.949753 
L 518.4 181.949753 
L 509.472 181.772774 
L 500.544 181.424203 
L 491.616 181.281477 
L 482.688 180.935074 
L 473.76 180.826894 
L 464.832 180.478808 
L 455.904 180.072218 
L 446.976 179.794001 
L 438.048 179.48211 
L 429.12 179.166252 
L 420.192 178.794359 
L 411.264 178.418457 
L 402.336 177.965184 
L 393.408 178.284259 
L 384.48 177.763743 
L 375.552 177.640343 
L 366.624 177.343466 
L 357.696 176.8685 
L 348.768 176.542146 
L 339.84 176.082031 
L 330.912 175.630632 
L 321.984 175.395474 
L 313.056 175.116463 
L 304.128 174.678776 
L 295.2 174.407639 
L 286.272 173.76516 
L 277.344 173.48974 
L 268.416 173.180181 
L 259.488 173.069419 
L 250.56 172.329661 
L 241.632 171.93964 
L 232.704 171.301032 
L 223.776 170.83618 
L 214.848 170.853162 
L 205.92 170.134613 
L 196.992 169.747608 
L 188.064 169.166745 
L 179.136 168.638912 
L 170.208 167.838591 
L 161.28 166.833572 
L 152.352 166.756425 
L 143.424 165.559352 
L 134.496 164.536826 
L 125.568 162.898735 
L 116.64 161.681428 
L 107.712 159.860212 
L 98.784 157.403737 
L 89.856 154.739227 
L 80.928 152.227304 
L 72 148.801186 
z
" style="fill:#2ca02c;fill-opacity:0.3;"/>
   </g>
   <g id="PolyCollection_4">
    <path clip-path="url(#p9f62cb1f92)" d="M 72 169.083072 
L 72 140.258876 
L 80.928 129.791776 
L 89.856 120.596884 
L 98.784 121.961327 
L 107.712 119.458794 
L 116.64 122.071401 
L 125.568 118.641171 
L 134.496 113.676793 
L 143.424 112.002855 
L 152.352 106.802512 
L 161.28 106.929006 
L 170.208 105.341809 
L 179.136 102.159219 
L 188.064 102.323468 
L 196.992 104.05016 
L 205.92 103.931408 
L 214.848 107.380084 
L 223.776 105.702128 
L 232.704 103.951777 
L 241.632 98.871154 
L 250.56 97.176416 
L 259.488 95.583064 
L 268.416 93.975463 
L 277.344 92.439591 
L 286.272 89.501088 
L 295.2 89.436696 
L 304.128 89.322083 
L 313.056 90.77647 
L 321.984 89.256527 
L 330.912 87.75656 
L 339.84 87.702229 
L 348.768 87.895042 
L 357.696 84.232776 
L 366.624 83.162311 
L 375.552 79.74096 
L 384.48 81.331998 
L 393.408 81.194822 
L 402.336 82.019808 
L 411.264 81.870519 
L 420.192 81.774088 
L 429.12 82.734288 
L 438.048 81.659559 
L 446.976 81.646698 
L 455.904 80.866617 
L 464.832 80.826776 
L 473.76 80.858181 
L 482.688 80.762029 
L 491.616 80.669538 
L 500.544 81.819757 
L 509.472 80.925967 
L 518.4 81.004181 
L 518.4 164.560214 
L 518.4 164.560214 
L 509.472 164.839934 
L 500.544 167.667293 
L 491.616 166.009018 
L 482.688 165.679885 
L 473.76 165.347243 
L 464.832 165.386707 
L 455.904 165.2364 
L 446.976 168.511677 
L 438.048 168.449245 
L 429.12 170.871497 
L 420.192 168.010299 
L 411.264 167.585363 
L 402.336 166.983556 
L 393.408 163.987836 
L 384.48 163.47188 
L 375.552 158.17198 
L 366.624 169.004208 
L 357.696 171.560472 
L 348.768 178.893104 
L 339.84 179.78437 
L 330.912 179.369675 
L 321.984 180.981834 
L 313.056 182.792964 
L 304.128 180.689003 
L 295.2 179.602789 
L 286.272 178.482953 
L 277.344 180.962764 
L 268.416 182.178064 
L 259.488 183.117392 
L 250.56 183.569651 
L 241.632 183.431674 
L 232.704 186.518663 
L 223.776 186.387354 
L 214.848 187.226634 
L 205.92 184.152687 
L 196.992 183.393431 
L 188.064 182.06181 
L 179.136 181.918292 
L 170.208 182.384004 
L 161.28 181.304986 
L 152.352 181.829331 
L 143.424 183.856168 
L 134.496 182.528397 
L 125.568 181.589119 
L 116.64 181.345403 
L 107.712 180.164086 
L 98.784 178.011446 
L 89.856 175.182688 
L 80.928 173.31 
L 72 169.083072 
z
" style="fill:#d62728;fill-opacity:0.3;"/>
   </g>
   <g id="PolyCollection_5">
    <path clip-path="url(#p9f62cb1f92)" d="M 72 180.774032 
L 72 141.661955 
L 80.928 114.793937 
L 89.856 103.104283 
L 98.784 93.113214 
L 107.712 84.534338 
L 116.64 83.834486 
L 125.568 83.898724 
L 134.496 83.753995 
L 143.424 84.654078 
L 152.352 83.452796 
L 161.28 82.928636 
L 170.208 84.311361 
L 179.136 83.516802 
L 188.064 84.688879 
L 196.992 83.944805 
L 205.92 83.428216 
L 214.848 84.03984 
L 223.776 83.912331 
L 232.704 83.868391 
L 241.632 83.949123 
L 250.56 85.218299 
L 259.488 85.022792 
L 268.416 85.299214 
L 277.344 85.805955 
L 286.272 85.593805 
L 295.2 86.591303 
L 304.128 85.652518 
L 313.056 85.203867 
L 321.984 84.996532 
L 330.912 85.169814 
L 339.84 84.686934 
L 348.768 84.763137 
L 357.696 84.573374 
L 366.624 84.586172 
L 375.552 84.250754 
L 384.48 84.103375 
L 393.408 83.89278 
L 402.336 83.312977 
L 411.264 83.172456 
L 420.192 82.9561 
L 429.12 83.119529 
L 438.048 82.794231 
L 446.976 82.637713 
L 455.904 82.291325 
L 464.832 82.081061 
L 473.76 81.870214 
L 482.688 82.544644 
L 491.616 82.366582 
L 500.544 82.074829 
L 509.472 81.9139 
L 518.4 81.699584 
L 518.4 156.206478 
L 518.4 156.206478 
L 509.472 155.51684 
L 500.544 155.021575 
L 491.616 153.815947 
L 482.688 153.240453 
L 473.76 151.231286 
L 464.832 150.169822 
L 455.904 149.563068 
L 446.976 144.841263 
L 438.048 144.401257 
L 429.12 143.599632 
L 420.192 143.828104 
L 411.264 143.000461 
L 402.336 142.708578 
L 393.408 137.906375 
L 384.48 137.3029 
L 375.552 136.796256 
L 366.624 136.051851 
L 357.696 136.37549 
L 348.768 135.90463 
L 339.84 135.855036 
L 330.912 134.706456 
L 321.984 134.989068 
L 313.056 134.400625 
L 304.128 133.43349 
L 295.2 128.891851 
L 286.272 130.623027 
L 277.344 130.077704 
L 268.416 129.024096 
L 259.488 126.880145 
L 250.56 126.408811 
L 241.632 128.725721 
L 232.704 125.194937 
L 223.776 125.090823 
L 214.848 124.960236 
L 205.92 128.49518 
L 196.992 127.383824 
L 188.064 126.102207 
L 179.136 130.154213 
L 170.208 128.454036 
L 161.28 131.754952 
L 152.352 130.693578 
L 143.424 128.522766 
L 134.496 132.907664 
L 125.568 132.793315 
L 116.64 145.19864 
L 107.712 147.206296 
L 98.784 168.376142 
L 89.856 176.653936 
L 80.928 180.247635 
L 72 180.774032 
z
" style="fill:#9467bd;fill-opacity:0.3;"/>
   </g>
   <g id="PolyCollection_6">
    <path clip-path="url(#p9f62cb1f92)" d="M 72 194.663831 
L 72 135.743701 
L 80.928 140.984046 
L 89.856 143.709346 
L 98.784 145.256794 
L 107.712 144.12617 
L 116.64 145.646043 
L 125.568 148.199016 
L 134.496 149.535069 
L 143.424 150.89111 
L 152.352 154.271598 
L 161.28 154.122146 
L 170.208 154.762742 
L 179.136 155.12822 
L 188.064 155.229171 
L 196.992 154.776144 
L 205.92 156.127148 
L 214.848 154.611788 
L 223.776 156.062525 
L 232.704 158.077253 
L 241.632 159.284356 
L 250.56 158.750079 
L 259.488 159.941785 
L 268.416 159.487439 
L 277.344 157.960723 
L 286.272 158.614474 
L 295.2 159.158761 
L 304.128 160.877609 
L 313.056 161.841395 
L 321.984 162.675625 
L 330.912 164.053751 
L 339.84 165.245198 
L 348.768 164.965058 
L 357.696 166.409736 
L 366.624 166.22007 
L 375.552 165.221746 
L 384.48 166.145743 
L 393.408 166.903127 
L 402.336 169.295605 
L 411.264 167.462824 
L 420.192 169.401116 
L 429.12 169.912495 
L 438.048 169.608068 
L 446.976 169.947359 
L 455.904 170.462594 
L 464.832 172.022255 
L 473.76 172.939317 
L 482.688 174.487702 
L 491.616 175.624078 
L 500.544 175.213705 
L 509.472 177.567103 
L 518.4 178.178348 
L 518.4 198.105675 
L 518.4 198.105675 
L 509.472 193.954309 
L 500.544 200.236788 
L 491.616 197.74847 
L 482.688 195.844307 
L 473.76 196.781097 
L 464.832 195.679936 
L 455.904 200.371322 
L 446.976 199.671058 
L 438.048 199.185097 
L 429.12 198.804813 
L 420.192 197.602599 
L 411.264 197.515104 
L 402.336 194.682143 
L 393.408 199.332642 
L 384.48 200.370278 
L 375.552 200.248688 
L 366.624 201.035867 
L 357.696 196.793063 
L 348.768 195.272859 
L 339.84 195.507765 
L 330.912 193.319605 
L 321.984 193.464045 
L 313.056 193.691184 
L 304.128 195.006895 
L 295.2 198.264938 
L 286.272 196.443465 
L 277.344 197.069655 
L 268.416 199.752329 
L 259.488 196.649331 
L 250.56 198.632206 
L 241.632 201.58811 
L 232.704 198.027714 
L 223.776 195.799463 
L 214.848 195.978615 
L 205.92 190.50417 
L 196.992 186.867913 
L 188.064 184.388469 
L 179.136 183.662713 
L 170.208 182.514869 
L 161.28 183.421877 
L 152.352 182.608369 
L 143.424 177.716988 
L 134.496 177.044855 
L 125.568 177.218457 
L 116.64 178.822772 
L 107.712 178.8232 
L 98.784 174.451649 
L 89.856 171.969704 
L 80.928 172.853504 
L 72 194.663831 
z
" style="fill:#8c564b;fill-opacity:0.3;"/>
   </g>
   <g id="PolyCollection_7">
    <path clip-path="url(#p9f62cb1f92)" d="M 72 286.823307 
L 72 239.298817 
L 72 286.823307 
L 72 286.823307 
z
" style="fill:#e377c2;fill-opacity:0.3;"/>
   </g>
   <g id="matplotlib.axis_1">
    <g id="xtick_1">
     <g id="line2d_1">
      <path clip-path="url(#p9f62cb1f92)" d="M 72 384.48 
L 72 51.84 
" style="fill:none;stroke:#b0b0b0;stroke-linecap:square;stroke-width:0.8;"/>
     </g>
     <g id="line2d_2">
      <defs>
       <path d="M 0 0 
L 0 3.5 
" id="m717f91cd18" style="stroke:#000000;stroke-width:0.8;"/>
      </defs>
      <g>
       <use style="stroke:#000000;stroke-width:0.8;" x="72" xlink:href="#m717f91cd18" y="384.48"/>
      </g>
     </g>
     <g id="text_1">
      <!-- 0 -->
      <defs>
       <path d="M 31.78125 66.40625 
Q 24.171875 66.40625 20.328125 58.90625 
Q 16.5 51.421875 16.5 36.375 
Q 16.5 21.390625 20.328125 13.890625 
Q 24.171875 6.390625 31.78125 6.390625 
Q 39.453125 6.390625 43.28125 13.890625 
Q 47.125 21.390625 47.125 36.375 
Q 47.125 51.421875 43.28125 58.90625 
Q 39.453125 66.40625 31.78125 66.40625 
z
M 31.78125 74.21875 
Q 44.046875 74.21875 50.515625 64.515625 
Q 56.984375 54.828125 56.984375 36.375 
Q 56.984375 17.96875 50.515625 8.265625 
Q 44.046875 -1.421875 31.78125 -1.421875 
Q 19.53125 -1.421875 13.0625 8.265625 
Q 6.59375 17.96875 6.59375 36.375 
Q 6.59375 54.828125 13.0625 64.515625 
Q 19.53125 74.21875 31.78125 74.21875 
z
" id="DejaVuSans-48"/>
      </defs>
      <g transform="translate(68.81875 399.078438)scale(0.1 -0.1)">
       <use xlink:href="#DejaVuSans-48"/>
      </g>
     </g>
    </g>
    <g id="xtick_2">
     <g id="line2d_3">
      <path clip-path="url(#p9f62cb1f92)" d="M 161.28 384.48 
L 161.28 51.84 
" style="fill:none;stroke:#b0b0b0;stroke-linecap:square;stroke-width:0.8;"/>
     </g>
     <g id="line2d_4">
      <g>
       <use style="stroke:#000000;stroke-width:0.8;" x="161.28" xlink:href="#m717f91cd18" y="384.48"/>
      </g>
     </g>
     <g id="text_2">
      <!-- 10 -->
      <defs>
       <path d="M 12.40625 8.296875 
L 28.515625 8.296875 
L 28.515625 63.921875 
L 10.984375 60.40625 
L 10.984375 69.390625 
L 28.421875 72.90625 
L 38.28125 72.90625 
L 38.28125 8.296875 
L 54.390625 8.296875 
L 54.390625 0 
L 12.40625 0 
z
" id="DejaVuSans-49"/>
      </defs>
      <g transform="translate(154.9175 399.078438)scale(0.1 -0.1)">
       <use xlink:href="#DejaVuSans-49"/>
       <use x="63.623047" xlink:href="#DejaVuSans-48"/>
      </g>
     </g>
    </g>
    <g id="xtick_3">
     <g id="line2d_5">
      <path clip-path="url(#p9f62cb1f92)" d="M 250.56 384.48 
L 250.56 51.84 
" style="fill:none;stroke:#b0b0b0;stroke-linecap:square;stroke-width:0.8;"/>
     </g>
     <g id="line2d_6">
      <g>
       <use style="stroke:#000000;stroke-width:0.8;" x="250.56" xlink:href="#m717f91cd18" y="384.48"/>
      </g>
     </g>
     <g id="text_3">
      <!-- 20 -->
      <defs>
       <path d="M 19.1875 8.296875 
L 53.609375 8.296875 
L 53.609375 0 
L 7.328125 0 
L 7.328125 8.296875 
Q 12.9375 14.109375 22.625 23.890625 
Q 32.328125 33.6875 34.8125 36.53125 
Q 39.546875 41.84375 41.421875 45.53125 
Q 43.3125 49.21875 43.3125 52.78125 
Q 43.3125 58.59375 39.234375 62.25 
Q 35.15625 65.921875 28.609375 65.921875 
Q 23.96875 65.921875 18.8125 64.3125 
Q 13.671875 62.703125 7.8125 59.421875 
L 7.8125 69.390625 
Q 13.765625 71.78125 18.9375 73 
Q 24.125 74.21875 28.421875 74.21875 
Q 39.75 74.21875 46.484375 68.546875 
Q 53.21875 62.890625 53.21875 53.421875 
Q 53.21875 48.921875 51.53125 44.890625 
Q 49.859375 40.875 45.40625 35.40625 
Q 44.1875 33.984375 37.640625 27.21875 
Q 31.109375 20.453125 19.1875 8.296875 
z
" id="DejaVuSans-50"/>
      </defs>
      <g transform="translate(244.1975 399.078438)scale(0.1 -0.1)">
       <use xlink:href="#DejaVuSans-50"/>
       <use x="63.623047" xlink:href="#DejaVuSans-48"/>
      </g>
     </g>
    </g>
    <g id="xtick_4">
     <g id="line2d_7">
      <path clip-path="url(#p9f62cb1f92)" d="M 339.84 384.48 
L 339.84 51.84 
" style="fill:none;stroke:#b0b0b0;stroke-linecap:square;stroke-width:0.8;"/>
     </g>
     <g id="line2d_8">
      <g>
       <use style="stroke:#000000;stroke-width:0.8;" x="339.84" xlink:href="#m717f91cd18" y="384.48"/>
      </g>
     </g>
     <g id="text_4">
      <!-- 30 -->
      <defs>
       <path d="M 40.578125 39.3125 
Q 47.65625 37.796875 51.625 33 
Q 55.609375 28.21875 55.609375 21.1875 
Q 55.609375 10.40625 48.1875 4.484375 
Q 40.765625 -1.421875 27.09375 -1.421875 
Q 22.515625 -1.421875 17.65625 -0.515625 
Q 12.796875 0.390625 7.625 2.203125 
L 7.625 11.71875 
Q 11.71875 9.328125 16.59375 8.109375 
Q 21.484375 6.890625 26.8125 6.890625 
Q 36.078125 6.890625 40.9375 10.546875 
Q 45.796875 14.203125 45.796875 21.1875 
Q 45.796875 27.640625 41.28125 31.265625 
Q 36.765625 34.90625 28.71875 34.90625 
L 20.21875 34.90625 
L 20.21875 43.015625 
L 29.109375 43.015625 
Q 36.375 43.015625 40.234375 45.921875 
Q 44.09375 48.828125 44.09375 54.296875 
Q 44.09375 59.90625 40.109375 62.90625 
Q 36.140625 65.921875 28.71875 65.921875 
Q 24.65625 65.921875 20.015625 65.03125 
Q 15.375 64.15625 9.8125 62.3125 
L 9.8125 71.09375 
Q 15.4375 72.65625 20.34375 73.4375 
Q 25.25 74.21875 29.59375 74.21875 
Q 40.828125 74.21875 47.359375 69.109375 
Q 53.90625 64.015625 53.90625 55.328125 
Q 53.90625 49.265625 50.4375 45.09375 
Q 46.96875 40.921875 40.578125 39.3125 
z
" id="DejaVuSans-51"/>
      </defs>
      <g transform="translate(333.4775 399.078438)scale(0.1 -0.1)">
       <use xlink:href="#DejaVuSans-51"/>
       <use x="63.623047" xlink:href="#DejaVuSans-48"/>
      </g>
     </g>
    </g>
    <g id="xtick_5">
     <g id="line2d_9">
      <path clip-path="url(#p9f62cb1f92)" d="M 429.12 384.48 
L 429.12 51.84 
" style="fill:none;stroke:#b0b0b0;stroke-linecap:square;stroke-width:0.8;"/>
     </g>
     <g id="line2d_10">
      <g>
       <use style="stroke:#000000;stroke-width:0.8;" x="429.12" xlink:href="#m717f91cd18" y="384.48"/>
      </g>
     </g>
     <g id="text_5">
      <!-- 40 -->
      <defs>
       <path d="M 37.796875 64.3125 
L 12.890625 25.390625 
L 37.796875 25.390625 
z
M 35.203125 72.90625 
L 47.609375 72.90625 
L 47.609375 25.390625 
L 58.015625 25.390625 
L 58.015625 17.1875 
L 47.609375 17.1875 
L 47.609375 0 
L 37.796875 0 
L 37.796875 17.1875 
L 4.890625 17.1875 
L 4.890625 26.703125 
z
" id="DejaVuSans-52"/>
      </defs>
      <g transform="translate(422.7575 399.078438)scale(0.1 -0.1)">
       <use xlink:href="#DejaVuSans-52"/>
       <use x="63.623047" xlink:href="#DejaVuSans-48"/>
      </g>
     </g>
    </g>
    <g id="xtick_6">
     <g id="line2d_11">
      <path clip-path="url(#p9f62cb1f92)" d="M 518.4 384.48 
L 518.4 51.84 
" style="fill:none;stroke:#b0b0b0;stroke-linecap:square;stroke-width:0.8;"/>
     </g>
     <g id="line2d_12">
      <g>
       <use style="stroke:#000000;stroke-width:0.8;" x="518.4" xlink:href="#m717f91cd18" y="384.48"/>
      </g>
     </g>
     <g id="text_6">
      <!-- 50 -->
      <defs>
       <path d="M 10.796875 72.90625 
L 49.515625 72.90625 
L 49.515625 64.59375 
L 19.828125 64.59375 
L 19.828125 46.734375 
Q 21.96875 47.46875 24.109375 47.828125 
Q 26.265625 48.1875 28.421875 48.1875 
Q 40.625 48.1875 47.75 41.5 
Q 54.890625 34.8125 54.890625 23.390625 
Q 54.890625 11.625 47.5625 5.09375 
Q 40.234375 -1.421875 26.90625 -1.421875 
Q 22.3125 -1.421875 17.546875 -0.640625 
Q 12.796875 0.140625 7.71875 1.703125 
L 7.71875 11.625 
Q 12.109375 9.234375 16.796875 8.0625 
Q 21.484375 6.890625 26.703125 6.890625 
Q 35.15625 6.890625 40.078125 11.328125 
Q 45.015625 15.765625 45.015625 23.390625 
Q 45.015625 31 40.078125 35.4375 
Q 35.15625 39.890625 26.703125 39.890625 
Q 22.75 39.890625 18.8125 39.015625 
Q 14.890625 38.140625 10.796875 36.28125 
z
" id="DejaVuSans-53"/>
      </defs>
      <g transform="translate(512.0375 399.078438)scale(0.1 -0.1)">
       <use xlink:href="#DejaVuSans-53"/>
       <use x="63.623047" xlink:href="#DejaVuSans-48"/>
      </g>
     </g>
    </g>
    <g id="text_7">
     <!-- Iteration -->
     <defs>
      <path d="M 9.8125 72.90625 
L 19.671875 72.90625 
L 19.671875 0 
L 9.8125 0 
z
" id="DejaVuSans-73"/>
      <path d="M 18.3125 70.21875 
L 18.3125 54.6875 
L 36.8125 54.6875 
L 36.8125 47.703125 
L 18.3125 47.703125 
L 18.3125 18.015625 
Q 18.3125 11.328125 20.140625 9.421875 
Q 21.96875 7.515625 27.59375 7.515625 
L 36.8125 7.515625 
L 36.8125 0 
L 27.59375 0 
Q 17.1875 0 13.234375 3.875 
Q 9.28125 7.765625 9.28125 18.015625 
L 9.28125 47.703125 
L 2.6875 47.703125 
L 2.6875 54.6875 
L 9.28125 54.6875 
L 9.28125 70.21875 
z
" id="DejaVuSans-116"/>
      <path d="M 56.203125 29.59375 
L 56.203125 25.203125 
L 14.890625 25.203125 
Q 15.484375 15.921875 20.484375 11.0625 
Q 25.484375 6.203125 34.421875 6.203125 
Q 39.59375 6.203125 44.453125 7.46875 
Q 49.3125 8.734375 54.109375 11.28125 
L 54.109375 2.78125 
Q 49.265625 0.734375 44.1875 -0.34375 
Q 39.109375 -1.421875 33.890625 -1.421875 
Q 20.796875 -1.421875 13.15625 6.1875 
Q 5.515625 13.8125 5.515625 26.8125 
Q 5.515625 40.234375 12.765625 48.109375 
Q 20.015625 56 32.328125 56 
Q 43.359375 56 49.78125 48.890625 
Q 56.203125 41.796875 56.203125 29.59375 
z
M 47.21875 32.234375 
Q 47.125 39.59375 43.09375 43.984375 
Q 39.0625 48.390625 32.421875 48.390625 
Q 24.90625 48.390625 20.390625 44.140625 
Q 15.875 39.890625 15.1875 32.171875 
z
" id="DejaVuSans-101"/>
      <path d="M 41.109375 46.296875 
Q 39.59375 47.171875 37.8125 47.578125 
Q 36.03125 48 33.890625 48 
Q 26.265625 48 22.1875 43.046875 
Q 18.109375 38.09375 18.109375 28.8125 
L 18.109375 0 
L 9.078125 0 
L 9.078125 54.6875 
L 18.109375 54.6875 
L 18.109375 46.1875 
Q 20.953125 51.171875 25.484375 53.578125 
Q 30.03125 56 36.53125 56 
Q 37.453125 56 38.578125 55.875 
Q 39.703125 55.765625 41.0625 55.515625 
z
" id="DejaVuSans-114"/>
      <path d="M 34.28125 27.484375 
Q 23.390625 27.484375 19.1875 25 
Q 14.984375 22.515625 14.984375 16.5 
Q 14.984375 11.71875 18.140625 8.90625 
Q 21.296875 6.109375 26.703125 6.109375 
Q 34.1875 6.109375 38.703125 11.40625 
Q 43.21875 16.703125 43.21875 25.484375 
L 43.21875 27.484375 
z
M 52.203125 31.203125 
L 52.203125 0 
L 43.21875 0 
L 43.21875 8.296875 
Q 40.140625 3.328125 35.546875 0.953125 
Q 30.953125 -1.421875 24.3125 -1.421875 
Q 15.921875 -1.421875 10.953125 3.296875 
Q 6 8.015625 6 15.921875 
Q 6 25.140625 12.171875 29.828125 
Q 18.359375 34.515625 30.609375 34.515625 
L 43.21875 34.515625 
L 43.21875 35.40625 
Q 43.21875 41.609375 39.140625 45 
Q 35.0625 48.390625 27.6875 48.390625 
Q 23 48.390625 18.546875 47.265625 
Q 14.109375 46.140625 10.015625 43.890625 
L 10.015625 52.203125 
Q 14.9375 54.109375 19.578125 55.046875 
Q 24.21875 56 28.609375 56 
Q 40.484375 56 46.34375 49.84375 
Q 52.203125 43.703125 52.203125 31.203125 
z
" id="DejaVuSans-97"/>
      <path d="M 9.421875 54.6875 
L 18.40625 54.6875 
L 18.40625 0 
L 9.421875 0 
z
M 9.421875 75.984375 
L 18.40625 75.984375 
L 18.40625 64.59375 
L 9.421875 64.59375 
z
" id="DejaVuSans-105"/>
      <path d="M 30.609375 48.390625 
Q 23.390625 48.390625 19.1875 42.75 
Q 14.984375 37.109375 14.984375 27.296875 
Q 14.984375 17.484375 19.15625 11.84375 
Q 23.34375 6.203125 30.609375 6.203125 
Q 37.796875 6.203125 41.984375 11.859375 
Q 46.1875 17.53125 46.1875 27.296875 
Q 46.1875 37.015625 41.984375 42.703125 
Q 37.796875 48.390625 30.609375 48.390625 
z
M 30.609375 56 
Q 42.328125 56 49.015625 48.375 
Q 55.71875 40.765625 55.71875 27.296875 
Q 55.71875 13.875 49.015625 6.21875 
Q 42.328125 -1.421875 30.609375 -1.421875 
Q 18.84375 -1.421875 12.171875 6.21875 
Q 5.515625 13.875 5.515625 27.296875 
Q 5.515625 40.765625 12.171875 48.375 
Q 18.84375 56 30.609375 56 
z
" id="DejaVuSans-111"/>
      <path d="M 54.890625 33.015625 
L 54.890625 0 
L 45.90625 0 
L 45.90625 32.71875 
Q 45.90625 40.484375 42.875 44.328125 
Q 39.84375 48.1875 33.796875 48.1875 
Q 26.515625 48.1875 22.3125 43.546875 
Q 18.109375 38.921875 18.109375 30.90625 
L 18.109375 0 
L 9.078125 0 
L 9.078125 54.6875 
L 18.109375 54.6875 
L 18.109375 46.1875 
Q 21.34375 51.125 25.703125 53.5625 
Q 30.078125 56 35.796875 56 
Q 45.21875 56 50.046875 50.171875 
Q 54.890625 44.34375 54.890625 33.015625 
z
" id="DejaVuSans-110"/>
     </defs>
     <g transform="translate(273.991406 412.756563)scale(0.1 -0.1)">
      <use xlink:href="#DejaVuSans-73"/>
      <use x="29.492188" xlink:href="#DejaVuSans-116"/>
      <use x="68.701172" xlink:href="#DejaVuSans-101"/>
      <use x="130.224609" xlink:href="#DejaVuSans-114"/>
      <use x="171.337891" xlink:href="#DejaVuSans-97"/>
      <use x="232.617188" xlink:href="#DejaVuSans-116"/>
      <use x="271.826172" xlink:href="#DejaVuSans-105"/>
      <use x="299.609375" xlink:href="#DejaVuSans-111"/>
      <use x="360.791016" xlink:href="#DejaVuSans-110"/>
     </g>
    </g>
   </g>
   <g id="matplotlib.axis_2">
    <g id="ytick_1">
     <g id="line2d_13">
      <path clip-path="url(#p9f62cb1f92)" d="M 72 384.48 
L 518.4 384.48 
" style="fill:none;stroke:#b0b0b0;stroke-linecap:square;stroke-width:0.8;"/>
     </g>
     <g id="line2d_14">
      <defs>
       <path d="M 0 0 
L -3.5 0 
" id="m4103249f9d" style="stroke:#000000;stroke-width:0.8;"/>
      </defs>
      <g>
       <use style="stroke:#000000;stroke-width:0.8;" x="72" xlink:href="#m4103249f9d" y="384.48"/>
      </g>
     </g>
     <g id="text_8">
      <!-- $\mathdefault{10^{-12}}$ -->
      <defs>
       <path d="M 10.59375 35.5 
L 73.1875 35.5 
L 73.1875 27.203125 
L 10.59375 27.203125 
z
" id="DejaVuSans-8722"/>
      </defs>
      <g transform="translate(37.1 388.279219)scale(0.1 -0.1)">
       <use transform="translate(0 0.765625)" xlink:href="#DejaVuSans-49"/>
       <use transform="translate(63.623047 0.765625)" xlink:href="#DejaVuSans-48"/>
       <use transform="translate(128.203125 39.046875)scale(0.7)" xlink:href="#DejaVuSans-8722"/>
       <use transform="translate(186.855469 39.046875)scale(0.7)" xlink:href="#DejaVuSans-49"/>
       <use transform="translate(231.391602 39.046875)scale(0.7)" xlink:href="#DejaVuSans-50"/>
      </g>
     </g>
    </g>
    <g id="ytick_2">
     <g id="line2d_15">
      <path clip-path="url(#p9f62cb1f92)" d="M 72 336.96 
L 518.4 336.96 
" style="fill:none;stroke:#b0b0b0;stroke-linecap:square;stroke-width:0.8;"/>
     </g>
     <g id="line2d_16">
      <g>
       <use style="stroke:#000000;stroke-width:0.8;" x="72" xlink:href="#m4103249f9d" y="336.96"/>
      </g>
     </g>
     <g id="text_9">
      <!-- $\mathdefault{10^{-10}}$ -->
      <g transform="translate(37.1 340.759219)scale(0.1 -0.1)">
       <use transform="translate(0 0.765625)" xlink:href="#DejaVuSans-49"/>
       <use transform="translate(63.623047 0.765625)" xlink:href="#DejaVuSans-48"/>
       <use transform="translate(128.203125 39.046875)scale(0.7)" xlink:href="#DejaVuSans-8722"/>
       <use transform="translate(186.855469 39.046875)scale(0.7)" xlink:href="#DejaVuSans-49"/>
       <use transform="translate(231.391602 39.046875)scale(0.7)" xlink:href="#DejaVuSans-48"/>
      </g>
     </g>
    </g>
    <g id="ytick_3">
     <g id="line2d_17">
      <path clip-path="url(#p9f62cb1f92)" d="M 72 289.44 
L 518.4 289.44 
" style="fill:none;stroke:#b0b0b0;stroke-linecap:square;stroke-width:0.8;"/>
     </g>
     <g id="line2d_18">
      <g>
       <use style="stroke:#000000;stroke-width:0.8;" x="72" xlink:href="#m4103249f9d" y="289.44"/>
      </g>
     </g>
     <g id="text_10">
      <!-- $\mathdefault{10^{-8}}$ -->
      <defs>
       <path d="M 31.78125 34.625 
Q 24.75 34.625 20.71875 30.859375 
Q 16.703125 27.09375 16.703125 20.515625 
Q 16.703125 13.921875 20.71875 10.15625 
Q 24.75 6.390625 31.78125 6.390625 
Q 38.8125 6.390625 42.859375 10.171875 
Q 46.921875 13.96875 46.921875 20.515625 
Q 46.921875 27.09375 42.890625 30.859375 
Q 38.875 34.625 31.78125 34.625 
z
M 21.921875 38.8125 
Q 15.578125 40.375 12.03125 44.71875 
Q 8.5 49.078125 8.5 55.328125 
Q 8.5 64.0625 14.71875 69.140625 
Q 20.953125 74.21875 31.78125 74.21875 
Q 42.671875 74.21875 48.875 69.140625 
Q 55.078125 64.0625 55.078125 55.328125 
Q 55.078125 49.078125 51.53125 44.71875 
Q 48 40.375 41.703125 38.8125 
Q 48.828125 37.15625 52.796875 32.3125 
Q 56.78125 27.484375 56.78125 20.515625 
Q 56.78125 9.90625 50.3125 4.234375 
Q 43.84375 -1.421875 31.78125 -1.421875 
Q 19.734375 -1.421875 13.25 4.234375 
Q 6.78125 9.90625 6.78125 20.515625 
Q 6.78125 27.484375 10.78125 32.3125 
Q 14.796875 37.15625 21.921875 38.8125 
z
M 18.3125 54.390625 
Q 18.3125 48.734375 21.84375 45.5625 
Q 25.390625 42.390625 31.78125 42.390625 
Q 38.140625 42.390625 41.71875 45.5625 
Q 45.3125 48.734375 45.3125 54.390625 
Q 45.3125 60.0625 41.71875 63.234375 
Q 38.140625 66.40625 31.78125 66.40625 
Q 25.390625 66.40625 21.84375 63.234375 
Q 18.3125 60.0625 18.3125 54.390625 
z
" id="DejaVuSans-56"/>
      </defs>
      <g transform="translate(41.5 293.239219)scale(0.1 -0.1)">
       <use transform="translate(0 0.765625)" xlink:href="#DejaVuSans-49"/>
       <use transform="translate(63.623047 0.765625)" xlink:href="#DejaVuSans-48"/>
       <use transform="translate(128.203125 39.046875)scale(0.7)" xlink:href="#DejaVuSans-8722"/>
       <use transform="translate(186.855469 39.046875)scale(0.7)" xlink:href="#DejaVuSans-56"/>
      </g>
     </g>
    </g>
    <g id="ytick_4">
     <g id="line2d_19">
      <path clip-path="url(#p9f62cb1f92)" d="M 72 241.92 
L 518.4 241.92 
" style="fill:none;stroke:#b0b0b0;stroke-linecap:square;stroke-width:0.8;"/>
     </g>
     <g id="line2d_20">
      <g>
       <use style="stroke:#000000;stroke-width:0.8;" x="72" xlink:href="#m4103249f9d" y="241.92"/>
      </g>
     </g>
     <g id="text_11">
      <!-- $\mathdefault{10^{-6}}$ -->
      <defs>
       <path d="M 33.015625 40.375 
Q 26.375 40.375 22.484375 35.828125 
Q 18.609375 31.296875 18.609375 23.390625 
Q 18.609375 15.53125 22.484375 10.953125 
Q 26.375 6.390625 33.015625 6.390625 
Q 39.65625 6.390625 43.53125 10.953125 
Q 47.40625 15.53125 47.40625 23.390625 
Q 47.40625 31.296875 43.53125 35.828125 
Q 39.65625 40.375 33.015625 40.375 
z
M 52.59375 71.296875 
L 52.59375 62.3125 
Q 48.875 64.0625 45.09375 64.984375 
Q 41.3125 65.921875 37.59375 65.921875 
Q 27.828125 65.921875 22.671875 59.328125 
Q 17.53125 52.734375 16.796875 39.40625 
Q 19.671875 43.65625 24.015625 45.921875 
Q 28.375 48.1875 33.59375 48.1875 
Q 44.578125 48.1875 50.953125 41.515625 
Q 57.328125 34.859375 57.328125 23.390625 
Q 57.328125 12.15625 50.6875 5.359375 
Q 44.046875 -1.421875 33.015625 -1.421875 
Q 20.359375 -1.421875 13.671875 8.265625 
Q 6.984375 17.96875 6.984375 36.375 
Q 6.984375 53.65625 15.1875 63.9375 
Q 23.390625 74.21875 37.203125 74.21875 
Q 40.921875 74.21875 44.703125 73.484375 
Q 48.484375 72.75 52.59375 71.296875 
z
" id="DejaVuSans-54"/>
      </defs>
      <g transform="translate(41.5 245.719219)scale(0.1 -0.1)">
       <use transform="translate(0 0.765625)" xlink:href="#DejaVuSans-49"/>
       <use transform="translate(63.623047 0.765625)" xlink:href="#DejaVuSans-48"/>
       <use transform="translate(128.203125 39.046875)scale(0.7)" xlink:href="#DejaVuSans-8722"/>
       <use transform="translate(186.855469 39.046875)scale(0.7)" xlink:href="#DejaVuSans-54"/>
      </g>
     </g>
    </g>
    <g id="ytick_5">
     <g id="line2d_21">
      <path clip-path="url(#p9f62cb1f92)" d="M 72 194.4 
L 518.4 194.4 
" style="fill:none;stroke:#b0b0b0;stroke-linecap:square;stroke-width:0.8;"/>
     </g>
     <g id="line2d_22">
      <g>
       <use style="stroke:#000000;stroke-width:0.8;" x="72" xlink:href="#m4103249f9d" y="194.4"/>
      </g>
     </g>
     <g id="text_12">
      <!-- $\mathdefault{10^{-4}}$ -->
      <g transform="translate(41.5 198.199219)scale(0.1 -0.1)">
       <use transform="translate(0 0.684375)" xlink:href="#DejaVuSans-49"/>
       <use transform="translate(63.623047 0.684375)" xlink:href="#DejaVuSans-48"/>
       <use transform="translate(128.203125 38.965625)scale(0.7)" xlink:href="#DejaVuSans-8722"/>
       <use transform="translate(186.855469 38.965625)scale(0.7)" xlink:href="#DejaVuSans-52"/>
      </g>
     </g>
    </g>
    <g id="ytick_6">
     <g id="line2d_23">
      <path clip-path="url(#p9f62cb1f92)" d="M 72 146.88 
L 518.4 146.88 
" style="fill:none;stroke:#b0b0b0;stroke-linecap:square;stroke-width:0.8;"/>
     </g>
     <g id="line2d_24">
      <g>
       <use style="stroke:#000000;stroke-width:0.8;" x="72" xlink:href="#m4103249f9d" y="146.88"/>
      </g>
     </g>
     <g id="text_13">
      <!-- $\mathdefault{10^{-2}}$ -->
      <g transform="translate(41.5 150.679219)scale(0.1 -0.1)">
       <use transform="translate(0 0.765625)" xlink:href="#DejaVuSans-49"/>
       <use transform="translate(63.623047 0.765625)" xlink:href="#DejaVuSans-48"/>
       <use transform="translate(128.203125 39.046875)scale(0.7)" xlink:href="#DejaVuSans-8722"/>
       <use transform="translate(186.855469 39.046875)scale(0.7)" xlink:href="#DejaVuSans-50"/>
      </g>
     </g>
    </g>
    <g id="ytick_7">
     <g id="line2d_25">
      <path clip-path="url(#p9f62cb1f92)" d="M 72 99.36 
L 518.4 99.36 
" style="fill:none;stroke:#b0b0b0;stroke-linecap:square;stroke-width:0.8;"/>
     </g>
     <g id="line2d_26">
      <g>
       <use style="stroke:#000000;stroke-width:0.8;" x="72" xlink:href="#m4103249f9d" y="99.36"/>
      </g>
     </g>
     <g id="text_14">
      <!-- $\mathdefault{10^{0}}$ -->
      <g transform="translate(47.4 103.159219)scale(0.1 -0.1)">
       <use transform="translate(0 0.765625)" xlink:href="#DejaVuSans-49"/>
       <use transform="translate(63.623047 0.765625)" xlink:href="#DejaVuSans-48"/>
       <use transform="translate(128.203125 39.046875)scale(0.7)" xlink:href="#DejaVuSans-48"/>
      </g>
     </g>
    </g>
    <g id="ytick_8">
     <g id="line2d_27">
      <path clip-path="url(#p9f62cb1f92)" d="M 72 51.84 
L 518.4 51.84 
" style="fill:none;stroke:#b0b0b0;stroke-linecap:square;stroke-width:0.8;"/>
     </g>
     <g id="line2d_28">
      <g>
       <use style="stroke:#000000;stroke-width:0.8;" x="72" xlink:href="#m4103249f9d" y="51.84"/>
      </g>
     </g>
     <g id="text_15">
      <!-- $\mathdefault{10^{2}}$ -->
      <g transform="translate(47.4 55.639219)scale(0.1 -0.1)">
       <use transform="translate(0 0.765625)" xlink:href="#DejaVuSans-49"/>
       <use transform="translate(63.623047 0.765625)" xlink:href="#DejaVuSans-48"/>
       <use transform="translate(128.203125 39.046875)scale(0.7)" xlink:href="#DejaVuSans-50"/>
      </g>
     </g>
    </g>
    <g id="text_16">
     <!-- Integrated Variance -->
     <defs>
      <path d="M 45.40625 27.984375 
Q 45.40625 37.75 41.375 43.109375 
Q 37.359375 48.484375 30.078125 48.484375 
Q 22.859375 48.484375 18.828125 43.109375 
Q 14.796875 37.75 14.796875 27.984375 
Q 14.796875 18.265625 18.828125 12.890625 
Q 22.859375 7.515625 30.078125 7.515625 
Q 37.359375 7.515625 41.375 12.890625 
Q 45.40625 18.265625 45.40625 27.984375 
z
M 54.390625 6.78125 
Q 54.390625 -7.171875 48.1875 -13.984375 
Q 42 -20.796875 29.203125 -20.796875 
Q 24.46875 -20.796875 20.265625 -20.09375 
Q 16.0625 -19.390625 12.109375 -17.921875 
L 12.109375 -9.1875 
Q 16.0625 -11.328125 19.921875 -12.34375 
Q 23.78125 -13.375 27.78125 -13.375 
Q 36.625 -13.375 41.015625 -8.765625 
Q 45.40625 -4.15625 45.40625 5.171875 
L 45.40625 9.625 
Q 42.625 4.78125 38.28125 2.390625 
Q 33.9375 0 27.875 0 
Q 17.828125 0 11.671875 7.65625 
Q 5.515625 15.328125 5.515625 27.984375 
Q 5.515625 40.671875 11.671875 48.328125 
Q 17.828125 56 27.875 56 
Q 33.9375 56 38.28125 53.609375 
Q 42.625 51.21875 45.40625 46.390625 
L 45.40625 54.6875 
L 54.390625 54.6875 
z
" id="DejaVuSans-103"/>
      <path d="M 45.40625 46.390625 
L 45.40625 75.984375 
L 54.390625 75.984375 
L 54.390625 0 
L 45.40625 0 
L 45.40625 8.203125 
Q 42.578125 3.328125 38.25 0.953125 
Q 33.9375 -1.421875 27.875 -1.421875 
Q 17.96875 -1.421875 11.734375 6.484375 
Q 5.515625 14.40625 5.515625 27.296875 
Q 5.515625 40.1875 11.734375 48.09375 
Q 17.96875 56 27.875 56 
Q 33.9375 56 38.25 53.625 
Q 42.578125 51.265625 45.40625 46.390625 
z
M 14.796875 27.296875 
Q 14.796875 17.390625 18.875 11.75 
Q 22.953125 6.109375 30.078125 6.109375 
Q 37.203125 6.109375 41.296875 11.75 
Q 45.40625 17.390625 45.40625 27.296875 
Q 45.40625 37.203125 41.296875 42.84375 
Q 37.203125 48.484375 30.078125 48.484375 
Q 22.953125 48.484375 18.875 42.84375 
Q 14.796875 37.203125 14.796875 27.296875 
z
" id="DejaVuSans-100"/>
      <path id="DejaVuSans-32"/>
      <path d="M 28.609375 0 
L 0.78125 72.90625 
L 11.078125 72.90625 
L 34.1875 11.53125 
L 57.328125 72.90625 
L 67.578125 72.90625 
L 39.796875 0 
z
" id="DejaVuSans-86"/>
      <path d="M 48.78125 52.59375 
L 48.78125 44.1875 
Q 44.96875 46.296875 41.140625 47.34375 
Q 37.3125 48.390625 33.40625 48.390625 
Q 24.65625 48.390625 19.8125 42.84375 
Q 14.984375 37.3125 14.984375 27.296875 
Q 14.984375 17.28125 19.8125 11.734375 
Q 24.65625 6.203125 33.40625 6.203125 
Q 37.3125 6.203125 41.140625 7.25 
Q 44.96875 8.296875 48.78125 10.40625 
L 48.78125 2.09375 
Q 45.015625 0.34375 40.984375 -0.53125 
Q 36.96875 -1.421875 32.421875 -1.421875 
Q 20.0625 -1.421875 12.78125 6.34375 
Q 5.515625 14.109375 5.515625 27.296875 
Q 5.515625 40.671875 12.859375 48.328125 
Q 20.21875 56 33.015625 56 
Q 37.15625 56 41.109375 55.140625 
Q 45.0625 54.296875 48.78125 52.59375 
z
" id="DejaVuSans-99"/>
     </defs>
     <g transform="translate(31.020312 267.534219)rotate(-90)scale(0.1 -0.1)">
      <use xlink:href="#DejaVuSans-73"/>
      <use x="29.492188" xlink:href="#DejaVuSans-110"/>
      <use x="92.871094" xlink:href="#DejaVuSans-116"/>
      <use x="132.080078" xlink:href="#DejaVuSans-101"/>
      <use x="193.603516" xlink:href="#DejaVuSans-103"/>
      <use x="257.080078" xlink:href="#DejaVuSans-114"/>
      <use x="298.193359" xlink:href="#DejaVuSans-97"/>
      <use x="359.472656" xlink:href="#DejaVuSans-116"/>
      <use x="398.681641" xlink:href="#DejaVuSans-101"/>
      <use x="460.205078" xlink:href="#DejaVuSans-100"/>
      <use x="523.681641" xlink:href="#DejaVuSans-32"/>
      <use x="555.46875" xlink:href="#DejaVuSans-86"/>
      <use x="616.126953" xlink:href="#DejaVuSans-97"/>
      <use x="677.40625" xlink:href="#DejaVuSans-114"/>
      <use x="718.519531" xlink:href="#DejaVuSans-105"/>
      <use x="746.302734" xlink:href="#DejaVuSans-97"/>
      <use x="807.582031" xlink:href="#DejaVuSans-110"/>
      <use x="870.960938" xlink:href="#DejaVuSans-99"/>
      <use x="925.941406" xlink:href="#DejaVuSans-101"/>
     </g>
    </g>
   </g>
   <g id="line2d_29">
    <path clip-path="url(#p9f62cb1f92)" style="fill:none;stroke:#1f77b4;stroke-linecap:square;stroke-width:1.5;"/>
   </g>
   <g id="line2d_30">
    <path clip-path="url(#p9f62cb1f92)" d="M 72 122.262337 
L 80.928 101.313064 
L 89.856 99.391225 
L 98.784 99.391519 
L 107.712 99.950688 
L 116.64 99.885834 
L 125.568 99.799402 
L 134.496 99.935854 
L 143.424 99.855023 
L 152.352 99.79215 
L 161.28 101.448665 
L 170.208 101.136463 
L 179.136 101.362683 
L 188.064 100.290596 
L 196.992 100.382235 
L 205.92 100.398612 
L 214.848 100.437558 
L 223.776 100.619493 
L 232.704 100.805717 
L 241.632 100.772367 
L 250.56 101.070076 
L 259.488 101.006578 
L 268.416 101.131672 
L 277.344 101.218386 
L 286.272 101.358721 
L 295.2 101.477004 
L 304.128 101.574786 
L 313.056 102.319596 
L 321.984 104.983402 
L 330.912 105.023117 
L 339.84 102.555759 
L 348.768 104.617026 
L 357.696 104.804468 
L 366.624 106.839149 
L 375.552 109.197222 
L 384.48 109.090771 
L 393.408 108.268126 
L 402.336 111.338158 
L 411.264 111.038331 
L 420.192 111.162844 
L 429.12 111.619669 
L 438.048 112.052986 
L 446.976 112.367603 
L 455.904 113.877231 
L 464.832 114.016369 
L 473.76 116.740189 
L 482.688 117.115258 
L 491.616 117.41205 
L 500.544 117.628439 
L 509.472 118.017226 
L 518.4 118.154695 
" style="fill:none;stroke:#ff7f0e;stroke-linecap:square;stroke-width:1.5;"/>
   </g>
   <g id="line2d_31">
    <path clip-path="url(#p9f62cb1f92)" d="M 72 145.353094 
L 80.928 148.592321 
L 89.856 151.62549 
L 98.784 153.730165 
L 107.712 155.850694 
L 116.64 157.329794 
L 125.568 157.859812 
L 134.496 159.184942 
L 143.424 159.653411 
L 152.352 160.851855 
L 161.28 160.818483 
L 170.208 162.218272 
L 179.136 163.071431 
L 188.064 163.794488 
L 196.992 164.491664 
L 205.92 164.961684 
L 214.848 165.683834 
L 223.776 165.786948 
L 232.704 166.406288 
L 241.632 167.133513 
L 250.56 167.54934 
L 259.488 168.284202 
L 268.416 168.681525 
L 277.344 169.063449 
L 286.272 169.153611 
L 295.2 169.710307 
L 304.128 170.100176 
L 313.056 170.488454 
L 321.984 170.940846 
L 330.912 171.367541 
L 339.84 171.695564 
L 348.768 172.158797 
L 357.696 172.558869 
L 366.624 173.062442 
L 375.552 173.371218 
L 384.48 173.649794 
L 393.408 174.066929 
L 402.336 174.120665 
L 411.264 174.519899 
L 420.192 174.824064 
L 429.12 175.23726 
L 438.048 175.572425 
L 446.976 175.938983 
L 455.904 176.322454 
L 464.832 176.680953 
L 473.76 177.058933 
L 482.688 177.30808 
L 491.616 177.738989 
L 500.544 177.940957 
L 509.472 178.243134 
L 518.4 178.50072 
" style="fill:none;stroke:#2ca02c;stroke-linecap:square;stroke-width:1.5;"/>
   </g>
   <g id="line2d_32">
    <path clip-path="url(#p9f62cb1f92)" d="M 72 154.670974 
L 80.928 151.550888 
L 89.856 147.889786 
L 98.784 149.986387 
L 107.712 149.81144 
L 116.64 151.708402 
L 125.568 150.115145 
L 134.496 148.102595 
L 143.424 147.929512 
L 152.352 144.315921 
L 161.28 144.116996 
L 170.208 143.862907 
L 179.136 142.038755 
L 188.064 142.192639 
L 196.992 143.721796 
L 205.92 144.042048 
L 214.848 147.303359 
L 223.776 146.044741 
L 232.704 145.23522 
L 241.632 141.151414 
L 250.56 140.373033 
L 259.488 139.350228 
L 268.416 138.076764 
L 277.344 136.701178 
L 286.272 133.992021 
L 295.2 134.519743 
L 304.128 135.005543 
L 313.056 136.784717 
L 321.984 135.11918 
L 330.912 133.563118 
L 339.84 133.743299 
L 348.768 133.394073 
L 357.696 127.896624 
L 366.624 126.08326 
L 375.552 118.95647 
L 384.48 122.401939 
L 393.408 122.591329 
L 402.336 124.501682 
L 411.264 124.727941 
L 420.192 124.892193 
L 429.12 126.802893 
L 438.048 125.054402 
L 446.976 125.079188 
L 455.904 123.051508 
L 464.832 123.106742 
L 473.76 123.102712 
L 482.688 123.220957 
L 491.616 123.339278 
L 500.544 124.743525 
L 509.472 122.88295 
L 518.4 122.782198 
" style="fill:none;stroke:#d62728;stroke-linecap:square;stroke-width:1.5;"/>
   </g>
   <g id="line2d_33">
    <path clip-path="url(#p9f62cb1f92)" d="M 72 161.217993 
L 80.928 147.520786 
L 89.856 139.87911 
L 98.784 130.744678 
L 107.712 115.870317 
L 116.64 114.516563 
L 125.568 108.34602 
L 134.496 108.330829 
L 143.424 106.588422 
L 152.352 107.073187 
L 161.28 107.341794 
L 170.208 106.382698 
L 179.136 106.835507 
L 188.064 105.395543 
L 196.992 105.664315 
L 205.92 105.961698 
L 214.848 104.500038 
L 223.776 104.501577 
L 232.704 104.531664 
L 241.632 106.337422 
L 250.56 105.813555 
L 259.488 105.951469 
L 268.416 107.161655 
L 277.344 107.941829 
L 286.272 108.108416 
L 295.2 107.741577 
L 304.128 109.543004 
L 313.056 109.802246 
L 321.984 109.9928 
L 330.912 109.938135 
L 339.84 110.270985 
L 348.768 110.333884 
L 357.696 110.474432 
L 366.624 110.319011 
L 375.552 110.523505 
L 384.48 110.703137 
L 393.408 110.899577 
L 402.336 113.010777 
L 411.264 113.086459 
L 420.192 113.392102 
L 429.12 113.359581 
L 438.048 113.597744 
L 446.976 113.739488 
L 455.904 115.927196 
L 464.832 116.125441 
L 473.76 116.55075 
L 482.688 117.892548 
L 491.616 118.091265 
L 500.544 118.548202 
L 509.472 118.71537 
L 518.4 118.953031 
" style="fill:none;stroke:#9467bd;stroke-linecap:square;stroke-width:1.5;"/>
   </g>
   <g id="line2d_34">
    <path clip-path="url(#p9f62cb1f92)" d="M 72 165.203766 
L 80.928 156.918775 
L 89.856 157.839525 
L 98.784 159.854222 
L 107.712 161.474685 
L 116.64 162.234407 
L 125.568 162.708737 
L 134.496 163.289962 
L 143.424 164.304049 
L 152.352 168.439983 
L 161.28 168.772012 
L 170.208 168.638805 
L 179.136 169.395467 
L 188.064 169.80882 
L 196.992 170.822028 
L 205.92 173.315659 
L 214.848 175.295201 
L 223.776 175.930994 
L 232.704 178.052483 
L 241.632 180.436233 
L 250.56 178.691143 
L 259.488 178.295558 
L 268.416 179.619884 
L 277.344 177.515189 
L 286.272 177.52897 
L 295.2 178.71185 
L 304.128 177.942252 
L 313.056 177.766289 
L 321.984 178.069835 
L 330.912 178.686678 
L 339.84 180.376482 
L 348.768 180.118959 
L 357.696 181.601399 
L 366.624 183.627969 
L 375.552 182.735217 
L 384.48 183.258011 
L 393.408 183.117884 
L 402.336 181.988874 
L 411.264 182.488964 
L 420.192 183.501858 
L 429.12 184.358654 
L 438.048 184.396582 
L 446.976 184.809209 
L 455.904 185.416958 
L 464.832 183.851096 
L 473.76 184.860207 
L 482.688 185.166005 
L 491.616 186.686274 
L 500.544 187.725246 
L 509.472 185.760706 
L 518.4 188.142012 
" style="fill:none;stroke:#8c564b;stroke-linecap:square;stroke-width:1.5;"/>
   </g>
   <g id="line2d_35">
    <path clip-path="url(#p9f62cb1f92)" d="M 72 263.061062 
L 72.064299 433 
" style="fill:none;stroke:#e377c2;stroke-linecap:square;stroke-width:1.5;"/>
   </g>
   <g id="patch_3">
    <path d="M 72 384.48 
L 72 51.84 
" style="fill:none;stroke:#000000;stroke-linecap:square;stroke-linejoin:miter;stroke-width:0.8;"/>
   </g>
   <g id="patch_4">
    <path d="M 518.4 384.48 
L 518.4 51.84 
" style="fill:none;stroke:#000000;stroke-linecap:square;stroke-linejoin:miter;stroke-width:0.8;"/>
   </g>
   <g id="patch_5">
    <path d="M 72 384.48 
L 518.4 384.48 
" style="fill:none;stroke:#000000;stroke-linecap:square;stroke-linejoin:miter;stroke-width:0.8;"/>
   </g>
   <g id="patch_6">
    <path d="M 72 51.84 
L 518.4 51.84 
" style="fill:none;stroke:#000000;stroke-linecap:square;stroke-linejoin:miter;stroke-width:0.8;"/>
   </g>
   <g id="legend_1">
    <g id="patch_7">
     <path d="M 79 379.48 
L 165.804688 379.48 
Q 167.804688 379.48 167.804688 377.48 
L 167.804688 275.733125 
Q 167.804688 273.733125 165.804688 273.733125 
L 79 273.733125 
Q 77 273.733125 77 275.733125 
L 77 377.48 
Q 77 379.48 79 379.48 
z
" style="fill:#ffffff;opacity:0.8;stroke:#cccccc;stroke-linejoin:miter;"/>
    </g>
    <g id="line2d_36">
     <path d="M 81 281.831563 
L 101 281.831563 
" style="fill:none;stroke:#1f77b4;stroke-linecap:square;stroke-width:1.5;"/>
    </g>
    <g id="line2d_37"/>
    <g id="text_17">
     <!-- Constant -->
     <defs>
      <path d="M 64.40625 67.28125 
L 64.40625 56.890625 
Q 59.421875 61.53125 53.78125 63.8125 
Q 48.140625 66.109375 41.796875 66.109375 
Q 29.296875 66.109375 22.65625 58.46875 
Q 16.015625 50.828125 16.015625 36.375 
Q 16.015625 21.96875 22.65625 14.328125 
Q 29.296875 6.6875 41.796875 6.6875 
Q 48.140625 6.6875 53.78125 8.984375 
Q 59.421875 11.28125 64.40625 15.921875 
L 64.40625 5.609375 
Q 59.234375 2.09375 53.4375 0.328125 
Q 47.65625 -1.421875 41.21875 -1.421875 
Q 24.65625 -1.421875 15.125 8.703125 
Q 5.609375 18.84375 5.609375 36.375 
Q 5.609375 53.953125 15.125 64.078125 
Q 24.65625 74.21875 41.21875 74.21875 
Q 47.75 74.21875 53.53125 72.484375 
Q 59.328125 70.75 64.40625 67.28125 
z
" id="DejaVuSans-67"/>
      <path d="M 44.28125 53.078125 
L 44.28125 44.578125 
Q 40.484375 46.53125 36.375 47.5 
Q 32.28125 48.484375 27.875 48.484375 
Q 21.1875 48.484375 17.84375 46.4375 
Q 14.5 44.390625 14.5 40.28125 
Q 14.5 37.15625 16.890625 35.375 
Q 19.28125 33.59375 26.515625 31.984375 
L 29.59375 31.296875 
Q 39.15625 29.25 43.1875 25.515625 
Q 47.21875 21.78125 47.21875 15.09375 
Q 47.21875 7.46875 41.1875 3.015625 
Q 35.15625 -1.421875 24.609375 -1.421875 
Q 20.21875 -1.421875 15.453125 -0.5625 
Q 10.6875 0.296875 5.421875 2 
L 5.421875 11.28125 
Q 10.40625 8.6875 15.234375 7.390625 
Q 20.0625 6.109375 24.8125 6.109375 
Q 31.15625 6.109375 34.5625 8.28125 
Q 37.984375 10.453125 37.984375 14.40625 
Q 37.984375 18.0625 35.515625 20.015625 
Q 33.0625 21.96875 24.703125 23.78125 
L 21.578125 24.515625 
Q 13.234375 26.265625 9.515625 29.90625 
Q 5.8125 33.546875 5.8125 39.890625 
Q 5.8125 47.609375 11.28125 51.796875 
Q 16.75 56 26.8125 56 
Q 31.78125 56 36.171875 55.265625 
Q 40.578125 54.546875 44.28125 53.078125 
z
" id="DejaVuSans-115"/>
     </defs>
     <g transform="translate(109 285.331563)scale(0.1 -0.1)">
      <use xlink:href="#DejaVuSans-67"/>
      <use x="69.824219" xlink:href="#DejaVuSans-111"/>
      <use x="131.005859" xlink:href="#DejaVuSans-110"/>
      <use x="194.384766" xlink:href="#DejaVuSans-115"/>
      <use x="246.484375" xlink:href="#DejaVuSans-116"/>
      <use x="285.693359" xlink:href="#DejaVuSans-97"/>
      <use x="346.972656" xlink:href="#DejaVuSans-110"/>
      <use x="410.351562" xlink:href="#DejaVuSans-116"/>
     </g>
    </g>
    <g id="line2d_38">
     <path d="M 81 296.509688 
L 101 296.509688 
" style="fill:none;stroke:#ff7f0e;stroke-linecap:square;stroke-width:1.5;"/>
    </g>
    <g id="line2d_39"/>
    <g id="text_18">
     <!-- RBF -->
     <defs>
      <path d="M 44.390625 34.1875 
Q 47.5625 33.109375 50.5625 29.59375 
Q 53.5625 26.078125 56.59375 19.921875 
L 66.609375 0 
L 56 0 
L 46.6875 18.703125 
Q 43.0625 26.03125 39.671875 28.421875 
Q 36.28125 30.8125 30.421875 30.8125 
L 19.671875 30.8125 
L 19.671875 0 
L 9.8125 0 
L 9.8125 72.90625 
L 32.078125 72.90625 
Q 44.578125 72.90625 50.734375 67.671875 
Q 56.890625 62.453125 56.890625 51.90625 
Q 56.890625 45.015625 53.6875 40.46875 
Q 50.484375 35.9375 44.390625 34.1875 
z
M 19.671875 64.796875 
L 19.671875 38.921875 
L 32.078125 38.921875 
Q 39.203125 38.921875 42.84375 42.21875 
Q 46.484375 45.515625 46.484375 51.90625 
Q 46.484375 58.296875 42.84375 61.546875 
Q 39.203125 64.796875 32.078125 64.796875 
z
" id="DejaVuSans-82"/>
      <path d="M 19.671875 34.8125 
L 19.671875 8.109375 
L 35.5 8.109375 
Q 43.453125 8.109375 47.28125 11.40625 
Q 51.125 14.703125 51.125 21.484375 
Q 51.125 28.328125 47.28125 31.5625 
Q 43.453125 34.8125 35.5 34.8125 
z
M 19.671875 64.796875 
L 19.671875 42.828125 
L 34.28125 42.828125 
Q 41.5 42.828125 45.03125 45.53125 
Q 48.578125 48.25 48.578125 53.8125 
Q 48.578125 59.328125 45.03125 62.0625 
Q 41.5 64.796875 34.28125 64.796875 
z
M 9.8125 72.90625 
L 35.015625 72.90625 
Q 46.296875 72.90625 52.390625 68.21875 
Q 58.5 63.53125 58.5 54.890625 
Q 58.5 48.1875 55.375 44.234375 
Q 52.25 40.28125 46.1875 39.3125 
Q 53.46875 37.75 57.5 32.78125 
Q 61.53125 27.828125 61.53125 20.40625 
Q 61.53125 10.640625 54.890625 5.3125 
Q 48.25 0 35.984375 0 
L 9.8125 0 
z
" id="DejaVuSans-66"/>
      <path d="M 9.8125 72.90625 
L 51.703125 72.90625 
L 51.703125 64.59375 
L 19.671875 64.59375 
L 19.671875 43.109375 
L 48.578125 43.109375 
L 48.578125 34.8125 
L 19.671875 34.8125 
L 19.671875 0 
L 9.8125 0 
z
" id="DejaVuSans-70"/>
     </defs>
     <g transform="translate(109 300.009688)scale(0.1 -0.1)">
      <use xlink:href="#DejaVuSans-82"/>
      <use x="69.482422" xlink:href="#DejaVuSans-66"/>
      <use x="138.085938" xlink:href="#DejaVuSans-70"/>
     </g>
    </g>
    <g id="line2d_40">
     <path d="M 81 311.187813 
L 101 311.187813 
" style="fill:none;stroke:#2ca02c;stroke-linecap:square;stroke-width:1.5;"/>
    </g>
    <g id="line2d_41"/>
    <g id="text_19">
     <!-- Matrn-1/2 -->
     <defs>
      <path d="M 9.8125 72.90625 
L 24.515625 72.90625 
L 43.109375 23.296875 
L 61.8125 72.90625 
L 76.515625 72.90625 
L 76.515625 0 
L 66.890625 0 
L 66.890625 64.015625 
L 48.09375 14.015625 
L 38.1875 14.015625 
L 19.390625 64.015625 
L 19.390625 0 
L 9.8125 0 
z
" id="DejaVuSans-77"/>
      <path d="M 56.203125 29.59375 
L 56.203125 25.203125 
L 14.890625 25.203125 
Q 15.484375 15.921875 20.484375 11.0625 
Q 25.484375 6.203125 34.421875 6.203125 
Q 39.59375 6.203125 44.453125 7.46875 
Q 49.3125 8.734375 54.109375 11.28125 
L 54.109375 2.78125 
Q 49.265625 0.734375 44.1875 -0.34375 
Q 39.109375 -1.421875 33.890625 -1.421875 
Q 20.796875 -1.421875 13.15625 6.1875 
Q 5.515625 13.8125 5.515625 26.8125 
Q 5.515625 40.234375 12.765625 48.109375 
Q 20.015625 56 32.328125 56 
Q 43.359375 56 49.78125 48.890625 
Q 56.203125 41.796875 56.203125 29.59375 
z
M 47.21875 32.234375 
Q 47.125 39.59375 43.09375 43.984375 
Q 39.0625 48.390625 32.421875 48.390625 
Q 24.90625 48.390625 20.390625 44.140625 
Q 15.875 39.890625 15.1875 32.171875 
z
M 38.53125 79.984375 
L 48.25 79.984375 
L 32.34375 61.625 
L 24.859375 61.625 
z
" id="DejaVuSans-233"/>
      <path d="M 4.890625 31.390625 
L 31.203125 31.390625 
L 31.203125 23.390625 
L 4.890625 23.390625 
z
" id="DejaVuSans-45"/>
      <path d="M 25.390625 72.90625 
L 33.6875 72.90625 
L 8.296875 -9.28125 
L 0 -9.28125 
z
" id="DejaVuSans-47"/>
     </defs>
     <g transform="translate(109 314.687813)scale(0.1 -0.1)">
      <use xlink:href="#DejaVuSans-77"/>
      <use x="86.279297" xlink:href="#DejaVuSans-97"/>
      <use x="147.558594" xlink:href="#DejaVuSans-116"/>
      <use x="186.767578" xlink:href="#DejaVuSans-233"/>
      <use x="248.291016" xlink:href="#DejaVuSans-114"/>
      <use x="287.654297" xlink:href="#DejaVuSans-110"/>
      <use x="351.033203" xlink:href="#DejaVuSans-45"/>
      <use x="387.117188" xlink:href="#DejaVuSans-49"/>
      <use x="450.740234" xlink:href="#DejaVuSans-47"/>
      <use x="484.431641" xlink:href="#DejaVuSans-50"/>
     </g>
    </g>
    <g id="line2d_42">
     <path d="M 81 325.865938 
L 101 325.865938 
" style="fill:none;stroke:#d62728;stroke-linecap:square;stroke-width:1.5;"/>
    </g>
    <g id="line2d_43"/>
    <g id="text_20">
     <!-- Matrn-3/2 -->
     <g transform="translate(109 329.365938)scale(0.1 -0.1)">
      <use xlink:href="#DejaVuSans-77"/>
      <use x="86.279297" xlink:href="#DejaVuSans-97"/>
      <use x="147.558594" xlink:href="#DejaVuSans-116"/>
      <use x="186.767578" xlink:href="#DejaVuSans-233"/>
      <use x="248.291016" xlink:href="#DejaVuSans-114"/>
      <use x="287.654297" xlink:href="#DejaVuSans-110"/>
      <use x="351.033203" xlink:href="#DejaVuSans-45"/>
      <use x="387.117188" xlink:href="#DejaVuSans-51"/>
      <use x="450.740234" xlink:href="#DejaVuSans-47"/>
      <use x="484.431641" xlink:href="#DejaVuSans-50"/>
     </g>
    </g>
    <g id="line2d_44">
     <path d="M 81 340.544062 
L 101 340.544062 
" style="fill:none;stroke:#9467bd;stroke-linecap:square;stroke-width:1.5;"/>
    </g>
    <g id="line2d_45"/>
    <g id="text_21">
     <!-- Matrn-5/2 -->
     <g transform="translate(109 344.044062)scale(0.1 -0.1)">
      <use xlink:href="#DejaVuSans-77"/>
      <use x="86.279297" xlink:href="#DejaVuSans-97"/>
      <use x="147.558594" xlink:href="#DejaVuSans-116"/>
      <use x="186.767578" xlink:href="#DejaVuSans-233"/>
      <use x="248.291016" xlink:href="#DejaVuSans-114"/>
      <use x="287.654297" xlink:href="#DejaVuSans-110"/>
      <use x="351.033203" xlink:href="#DejaVuSans-45"/>
      <use x="387.117188" xlink:href="#DejaVuSans-53"/>
      <use x="450.740234" xlink:href="#DejaVuSans-47"/>
      <use x="484.431641" xlink:href="#DejaVuSans-50"/>
     </g>
    </g>
    <g id="line2d_46">
     <path d="M 81 355.222188 
L 101 355.222188 
" style="fill:none;stroke:#8c564b;stroke-linecap:square;stroke-width:1.5;"/>
    </g>
    <g id="line2d_47"/>
    <g id="text_22">
     <!-- RQ -->
     <defs>
      <path d="M 39.40625 66.21875 
Q 28.65625 66.21875 22.328125 58.203125 
Q 16.015625 50.203125 16.015625 36.375 
Q 16.015625 22.609375 22.328125 14.59375 
Q 28.65625 6.59375 39.40625 6.59375 
Q 50.140625 6.59375 56.421875 14.59375 
Q 62.703125 22.609375 62.703125 36.375 
Q 62.703125 50.203125 56.421875 58.203125 
Q 50.140625 66.21875 39.40625 66.21875 
z
M 53.21875 1.3125 
L 66.21875 -12.890625 
L 54.296875 -12.890625 
L 43.5 -1.21875 
Q 41.890625 -1.3125 41.03125 -1.359375 
Q 40.1875 -1.421875 39.40625 -1.421875 
Q 24.03125 -1.421875 14.8125 8.859375 
Q 5.609375 19.140625 5.609375 36.375 
Q 5.609375 53.65625 14.8125 63.9375 
Q 24.03125 74.21875 39.40625 74.21875 
Q 54.734375 74.21875 63.90625 63.9375 
Q 73.09375 53.65625 73.09375 36.375 
Q 73.09375 23.6875 67.984375 14.640625 
Q 62.890625 5.609375 53.21875 1.3125 
z
" id="DejaVuSans-81"/>
     </defs>
     <g transform="translate(109 358.722188)scale(0.1 -0.1)">
      <use xlink:href="#DejaVuSans-82"/>
      <use x="69.482422" xlink:href="#DejaVuSans-81"/>
     </g>
    </g>
    <g id="line2d_48">
     <path d="M 81 369.900313 
L 101 369.900313 
" style="fill:none;stroke:#e377c2;stroke-linecap:square;stroke-width:1.5;"/>
    </g>
    <g id="line2d_49"/>
    <g id="text_23">
     <!-- Dot Prod. -->
     <defs>
      <path d="M 19.671875 64.796875 
L 19.671875 8.109375 
L 31.59375 8.109375 
Q 46.6875 8.109375 53.6875 14.9375 
Q 60.6875 21.78125 60.6875 36.53125 
Q 60.6875 51.171875 53.6875 57.984375 
Q 46.6875 64.796875 31.59375 64.796875 
z
M 9.8125 72.90625 
L 30.078125 72.90625 
Q 51.265625 72.90625 61.171875 64.09375 
Q 71.09375 55.28125 71.09375 36.53125 
Q 71.09375 17.671875 61.125 8.828125 
Q 51.171875 0 30.078125 0 
L 9.8125 0 
z
" id="DejaVuSans-68"/>
      <path d="M 19.671875 64.796875 
L 19.671875 37.40625 
L 32.078125 37.40625 
Q 38.96875 37.40625 42.71875 40.96875 
Q 46.484375 44.53125 46.484375 51.125 
Q 46.484375 57.671875 42.71875 61.234375 
Q 38.96875 64.796875 32.078125 64.796875 
z
M 9.8125 72.90625 
L 32.078125 72.90625 
Q 44.34375 72.90625 50.609375 67.359375 
Q 56.890625 61.8125 56.890625 51.125 
Q 56.890625 40.328125 50.609375 34.8125 
Q 44.34375 29.296875 32.078125 29.296875 
L 19.671875 29.296875 
L 19.671875 0 
L 9.8125 0 
z
" id="DejaVuSans-80"/>
      <path d="M 10.6875 12.40625 
L 21 12.40625 
L 21 0 
L 10.6875 0 
z
" id="DejaVuSans-46"/>
     </defs>
     <g transform="translate(109 373.400313)scale(0.1 -0.1)">
      <use xlink:href="#DejaVuSans-68"/>
      <use x="77.001953" xlink:href="#DejaVuSans-111"/>
      <use x="138.183594" xlink:href="#DejaVuSans-116"/>
      <use x="177.392578" xlink:href="#DejaVuSans-32"/>
      <use x="209.179688" xlink:href="#DejaVuSans-80"/>
      <use x="267.732422" xlink:href="#DejaVuSans-114"/>
      <use x="306.595703" xlink:href="#DejaVuSans-111"/>
      <use x="367.777344" xlink:href="#DejaVuSans-100"/>
      <use x="431.253906" xlink:href="#DejaVuSans-46"/>
     </g>
    </g>
   </g>
  </g>
 </g>
 <defs>
  <clipPath id="p9f62cb1f92">
   <rect height="332.64" width="446.4" x="72" y="51.84"/>
  </clipPath>
 </defs>
</svg>
