<?xml version="1.0" encoding="utf-8" standalone="no"?>
<!DOCTYPE svg PUBLIC "-//W3C//DTD SVG 1.1//EN"
  "http://www.w3.org/Graphics/SVG/1.1/DTD/svg11.dtd">
<!-- Created with matplotlib (https://matplotlib.org/) -->
<svg height="432pt" version="1.1" viewBox="0 0 576 432" width="576pt" xmlns="http://www.w3.org/2000/svg" xmlns:xlink="http://www.w3.org/1999/xlink">
 <defs>
  <style type="text/css">
*{stroke-linecap:butt;stroke-linejoin:round;}
  </style>
 </defs>
 <g id="figure_1">
  <g id="patch_1">
   <path d="M 0 432 
L 576 432 
L 576 0 
L 0 0 
z
" style="fill:#ffffff;"/>
  </g>
  <g id="axes_1">
   <g id="patch_2">
    <path d="M 72 384.48 
L 518.4 384.48 
L 518.4 51.84 
L 72 51.84 
z
" style="fill:#ffffff;"/>
   </g>
   <g id="PolyCollection_1">
    <path clip-path="url(#p5f8292701e)" d="M 72 144.445504 
L 72 142.11475 
L 80.928 141.423283 
L 89.856 141.01077 
L 98.784 140.854759 
L 107.712 141.97888 
L 116.64 141.977839 
L 125.568 141.07047 
L 134.496 138.730682 
L 143.424 141.28361 
L 152.352 138.956505 
L 161.28 140.230824 
L 170.208 139.630998 
L 179.136 139.444295 
L 188.064 140.686637 
L 196.992 137.287547 
L 205.92 137.579992 
L 214.848 140.583958 
L 223.776 138.696837 
L 232.704 136.038105 
L 241.632 139.800984 
L 250.56 137.201597 
L 259.488 139.904301 
L 268.416 137.455021 
L 277.344 137.615579 
L 286.272 138.160666 
L 295.2 138.307115 
L 304.128 137.240066 
L 313.056 137.642908 
L 321.984 137.734428 
L 330.912 135.58059 
L 339.84 135.957549 
L 348.768 135.725678 
L 357.696 139.396928 
L 366.624 137.060171 
L 375.552 137.128646 
L 384.48 137.731962 
L 393.408 137.081953 
L 402.336 139.08033 
L 411.264 135.163889 
L 420.192 137.155899 
L 429.12 136.499301 
L 438.048 138.373357 
L 446.976 135.640925 
L 455.904 134.91188 
L 464.832 133.898463 
L 473.76 133.263263 
L 482.688 136.850079 
L 491.616 135.923194 
L 500.544 136.127664 
L 509.472 136.837705 
L 518.4 137.375165 
L 518.4 145.618694 
L 518.4 145.618694 
L 509.472 146.960553 
L 500.544 145.808534 
L 491.616 145.526312 
L 482.688 146.232349 
L 473.76 146.470895 
L 464.832 145.709998 
L 455.904 144.982486 
L 446.976 144.758087 
L 438.048 144.976434 
L 429.12 146.048574 
L 420.192 145.415981 
L 411.264 144.928342 
L 402.336 145.678825 
L 393.408 144.731659 
L 384.48 144.864173 
L 375.552 145.723988 
L 366.624 145.617352 
L 357.696 145.709992 
L 348.768 145.390027 
L 339.84 144.804671 
L 330.912 144.341429 
L 321.984 144.604361 
L 313.056 145.099936 
L 304.128 145.58591 
L 295.2 144.688385 
L 286.272 145.351637 
L 277.344 145.117459 
L 268.416 145.083308 
L 259.488 144.542717 
L 250.56 144.88204 
L 241.632 144.935194 
L 232.704 144.922807 
L 223.776 145.031953 
L 214.848 144.617017 
L 205.92 144.692777 
L 196.992 145.520086 
L 188.064 144.641228 
L 179.136 144.592959 
L 170.208 145.196426 
L 161.28 144.930119 
L 152.352 144.783677 
L 143.424 144.820368 
L 134.496 144.778912 
L 125.568 144.836576 
L 116.64 144.383022 
L 107.712 144.253623 
L 98.784 144.586444 
L 89.856 144.816913 
L 80.928 144.423033 
L 72 144.445504 
z
" style="fill:#1f77b4;fill-opacity:0.3;"/>
   </g>
   <g id="PolyCollection_2">
    <path clip-path="url(#p5f8292701e)" d="M 72 134.098438 
L 72 109.426522 
L 80.928 111.530798 
L 89.856 115.605651 
L 98.784 115.605025 
L 107.712 113.766135 
L 116.64 114.627014 
L 125.568 112.220586 
L 134.496 112.245108 
L 143.424 112.278994 
L 152.352 112.501903 
L 161.28 109.737482 
L 170.208 109.269148 
L 179.136 109.373867 
L 188.064 110.307172 
L 196.992 109.620917 
L 205.92 110.168988 
L 214.848 110.459029 
L 223.776 110.253459 
L 232.704 109.51179 
L 241.632 109.566769 
L 250.56 108.255412 
L 259.488 107.952159 
L 268.416 107.948156 
L 277.344 107.740261 
L 286.272 107.672225 
L 295.2 107.289745 
L 304.128 107.354733 
L 313.056 106.909417 
L 321.984 106.313204 
L 330.912 106.298169 
L 339.84 108.558869 
L 348.768 107.946087 
L 357.696 107.333211 
L 366.624 107.202011 
L 375.552 106.28711 
L 384.48 104.447757 
L 393.408 104.381201 
L 402.336 104.277118 
L 411.264 102.508612 
L 420.192 102.296273 
L 429.12 102.216499 
L 438.048 101.475881 
L 446.976 101.327278 
L 455.904 100.149372 
L 464.832 99.415135 
L 473.76 98.842997 
L 482.688 98.805976 
L 491.616 96.888626 
L 500.544 95.924685 
L 509.472 95.592224 
L 518.4 95.84377 
L 518.4 165.392478 
L 518.4 165.392478 
L 509.472 165.87945 
L 500.544 164.194525 
L 491.616 162.01754 
L 482.688 157.740613 
L 473.76 157.623455 
L 464.832 153.569784 
L 455.904 151.762188 
L 446.976 146.730304 
L 438.048 146.570741 
L 429.12 144.66703 
L 420.192 144.625682 
L 411.264 144.271839 
L 402.336 140.828379 
L 393.408 136.665047 
L 384.48 137.190697 
L 375.552 134.139982 
L 366.624 130.968799 
L 357.696 129.485624 
L 348.768 128.454102 
L 339.84 126.289717 
L 330.912 131.115183 
L 321.984 131.072469 
L 313.056 128.699009 
L 304.128 128.049318 
L 295.2 128.144563 
L 286.272 127.528599 
L 277.344 127.423852 
L 268.416 127.188326 
L 259.488 127.185986 
L 250.56 126.696327 
L 241.632 124.755941 
L 232.704 124.83532 
L 223.776 123.63034 
L 214.848 123.2716 
L 205.92 123.757155 
L 196.992 124.458911 
L 188.064 123.53315 
L 179.136 124.749208 
L 170.208 125.001946 
L 161.28 124.3306 
L 152.352 119.754114 
L 143.424 120.051039 
L 134.496 120.095362 
L 125.568 120.127193 
L 116.64 116.918057 
L 107.712 118.064429 
L 98.784 115.610701 
L 89.856 115.609358 
L 80.928 121.042912 
L 72 134.098438 
z
" style="fill:#ff7f0e;fill-opacity:0.3;"/>
   </g>
   <g id="PolyCollection_3">
    <path clip-path="url(#p5f8292701e)" d="M 72 154.447689 
L 72 149.101097 
L 80.928 150.466558 
L 89.856 151.09802 
L 98.784 152.235023 
L 107.712 152.892263 
L 116.64 153.270476 
L 125.568 153.567391 
L 134.496 153.711711 
L 143.424 154.105004 
L 152.352 154.442751 
L 161.28 155.477113 
L 170.208 156.105736 
L 179.136 156.61673 
L 188.064 157.574146 
L 196.992 157.807173 
L 205.92 158.298262 
L 214.848 159.09397 
L 223.776 159.838653 
L 232.704 160.254012 
L 241.632 160.563431 
L 250.56 161.160205 
L 259.488 161.294543 
L 268.416 162.063681 
L 277.344 162.969691 
L 286.272 163.331087 
L 295.2 163.471142 
L 304.128 164.378005 
L 313.056 164.403757 
L 321.984 165.040281 
L 330.912 166.095031 
L 339.84 166.740609 
L 348.768 167.469749 
L 357.696 167.849294 
L 366.624 168.033272 
L 375.552 168.328326 
L 384.48 168.855048 
L 393.408 169.231482 
L 402.336 170.541476 
L 411.264 170.54546 
L 420.192 170.743136 
L 429.12 170.964241 
L 438.048 171.180096 
L 446.976 171.398793 
L 455.904 172.197424 
L 464.832 172.284989 
L 473.76 172.555012 
L 482.688 173.046613 
L 491.616 173.441576 
L 500.544 173.599505 
L 509.472 173.995633 
L 518.4 174.319422 
L 518.4 192.035698 
L 518.4 192.035698 
L 509.472 191.934467 
L 500.544 191.196678 
L 491.616 190.303301 
L 482.688 189.997039 
L 473.76 189.870267 
L 464.832 189.695357 
L 455.904 189.612993 
L 446.976 189.50399 
L 438.048 189.053649 
L 429.12 188.670772 
L 420.192 188.427211 
L 411.264 187.791523 
L 402.336 187.55733 
L 393.408 186.715405 
L 384.48 185.634923 
L 375.552 185.261773 
L 366.624 184.982048 
L 357.696 185.00122 
L 348.768 184.651509 
L 339.84 183.735465 
L 330.912 183.275705 
L 321.984 182.184322 
L 313.056 181.953574 
L 304.128 180.362026 
L 295.2 179.449854 
L 286.272 177.891194 
L 277.344 176.449522 
L 268.416 175.649719 
L 259.488 174.849489 
L 250.56 174.414213 
L 241.632 173.294433 
L 232.704 172.88166 
L 223.776 172.482172 
L 214.848 171.125609 
L 205.92 170.411557 
L 196.992 169.357667 
L 188.064 168.797014 
L 179.136 167.488342 
L 170.208 165.360101 
L 161.28 164.740038 
L 152.352 163.624588 
L 143.424 163.100278 
L 134.496 162.18299 
L 125.568 161.03465 
L 116.64 158.938217 
L 107.712 157.323021 
L 98.784 156.651015 
L 89.856 155.804313 
L 80.928 155.055154 
L 72 154.447689 
z
" style="fill:#2ca02c;fill-opacity:0.3;"/>
   </g>
   <g id="PolyCollection_4">
    <path clip-path="url(#p5f8292701e)" d="M 72 154.393927 
L 72 139.241692 
L 80.928 133.118405 
L 89.856 127.26401 
L 98.784 128.61844 
L 107.712 127.059181 
L 116.64 129.511493 
L 125.568 127.189667 
L 134.496 123.888778 
L 143.424 122.934941 
L 152.352 119.748629 
L 161.28 119.815353 
L 170.208 118.938207 
L 179.136 117.351692 
L 188.064 117.445243 
L 196.992 118.595845 
L 205.92 118.600129 
L 214.848 120.886825 
L 223.776 119.720078 
L 232.704 118.605726 
L 241.632 115.444007 
L 250.56 114.43176 
L 259.488 113.498629 
L 268.416 112.592502 
L 277.344 111.647601 
L 286.272 109.981023 
L 295.2 109.975621 
L 304.128 109.965091 
L 313.056 110.72442 
L 321.984 109.914825 
L 330.912 109.128217 
L 339.84 109.073729 
L 348.768 109.074467 
L 357.696 107.10288 
L 366.624 106.44696 
L 375.552 104.944457 
L 384.48 105.218253 
L 393.408 105.217959 
L 402.336 105.480417 
L 411.264 105.571025 
L 420.192 105.570223 
L 429.12 105.81615 
L 438.048 105.265013 
L 446.976 105.105198 
L 455.904 104.599234 
L 464.832 104.492092 
L 473.76 104.546015 
L 482.688 104.546063 
L 491.616 104.546719 
L 500.544 104.612986 
L 509.472 104.141982 
L 518.4 103.9636 
L 518.4 155.219485 
L 518.4 155.219485 
L 509.472 154.773798 
L 500.544 156.756462 
L 491.616 153.911367 
L 482.688 153.91136 
L 473.76 153.911421 
L 464.832 154.147458 
L 455.904 153.86872 
L 446.976 155.573898 
L 438.048 155.151246 
L 429.12 156.822891 
L 420.192 154.221059 
L 411.264 154.211825 
L 402.336 154.523566 
L 393.408 152.151011 
L 384.48 152.142868 
L 375.552 147.335377 
L 366.624 154.667171 
L 357.696 155.800351 
L 348.768 160.279546 
L 339.84 160.319974 
L 330.912 160.068203 
L 321.984 161.117471 
L 313.056 162.286758 
L 304.128 160.798402 
L 295.2 160.676944 
L 286.272 160.611501 
L 277.344 162.890272 
L 268.416 163.736991 
L 259.488 164.77119 
L 250.56 165.637441 
L 241.632 166.418722 
L 232.704 168.98063 
L 223.776 169.491326 
L 214.848 169.918052 
L 205.92 168.134904 
L 196.992 168.075731 
L 188.064 166.4245 
L 179.136 165.434634 
L 170.208 164.74402 
L 161.28 164.189773 
L 152.352 164.029199 
L 143.424 165.164559 
L 134.496 164.847749 
L 125.568 165.024131 
L 116.64 165.094262 
L 107.712 160.858213 
L 98.784 159.004322 
L 89.856 156.458256 
L 80.928 155.97215 
L 72 154.393927 
z
" style="fill:#d62728;fill-opacity:0.3;"/>
   </g>
   <g id="PolyCollection_5">
    <path clip-path="url(#p5f8292701e)" d="M 72 153.406972 
L 72 136.956453 
L 80.928 122.73883 
L 89.856 117.100244 
L 98.784 112.735275 
L 107.712 109.8355 
L 116.64 108.947054 
L 125.568 109.663897 
L 134.496 108.803642 
L 143.424 108.052209 
L 152.352 107.450616 
L 161.28 107.243947 
L 170.208 107.597898 
L 179.136 107.69961 
L 188.064 108.371918 
L 196.992 108.319284 
L 205.92 107.635245 
L 214.848 107.36181 
L 223.776 107.520374 
L 232.704 107.507543 
L 241.632 104.619643 
L 250.56 104.327227 
L 259.488 104.181844 
L 268.416 103.841461 
L 277.344 102.090588 
L 286.272 101.494605 
L 295.2 101.074482 
L 304.128 100.458667 
L 313.056 100.419676 
L 321.984 100.402523 
L 330.912 100.269588 
L 339.84 100.280642 
L 348.768 100.109552 
L 357.696 100.10835 
L 366.624 99.240964 
L 375.552 99.103731 
L 384.48 98.997806 
L 393.408 98.828354 
L 402.336 99.131287 
L 411.264 98.684969 
L 420.192 98.290823 
L 429.12 97.626281 
L 438.048 97.63607 
L 446.976 97.59442 
L 455.904 98.123862 
L 464.832 98.182551 
L 473.76 96.635762 
L 482.688 97.4316 
L 491.616 97.425123 
L 500.544 97.261655 
L 509.472 97.25353 
L 518.4 97.148399 
L 518.4 174.402413 
L 518.4 174.402413 
L 509.472 174.080165 
L 500.544 174.059326 
L 491.616 173.399651 
L 482.688 173.380472 
L 473.76 171.445934 
L 464.832 166.685745 
L 455.904 167.045757 
L 446.976 164.655361 
L 438.048 164.566615 
L 429.12 164.592579 
L 420.192 162.910656 
L 411.264 162.0379 
L 402.336 160.741076 
L 393.408 158.023872 
L 384.48 157.645929 
L 375.552 157.425605 
L 366.624 157.086791 
L 357.696 154.957472 
L 348.768 154.954208 
L 339.84 154.480096 
L 330.912 154.503277 
L 321.984 154.094684 
L 313.056 154.052561 
L 304.128 153.944643 
L 295.2 149.546831 
L 286.272 148.374938 
L 277.344 147.059316 
L 268.416 140.912244 
L 259.488 138.229389 
L 250.56 137.948519 
L 241.632 137.326661 
L 232.704 129.146988 
L 223.776 129.125976 
L 214.848 129.420719 
L 205.92 129.847738 
L 196.992 128.137978 
L 188.064 127.848682 
L 179.136 130.107573 
L 170.208 130.705458 
L 161.28 132.066167 
L 152.352 131.593477 
L 143.424 129.908443 
L 134.496 129.757404 
L 125.568 127.729824 
L 116.64 134.065868 
L 107.712 133.219504 
L 98.784 143.571728 
L 89.856 149.766126 
L 80.928 151.785442 
L 72 153.406972 
z
" style="fill:#9467bd;fill-opacity:0.3;"/>
   </g>
   <g id="PolyCollection_6">
    <path clip-path="url(#p5f8292701e)" d="M 72 154.089046 
L 72 145.771789 
L 80.928 148.5871 
L 89.856 146.513684 
L 98.784 146.505294 
L 107.712 148.263755 
L 116.64 147.115642 
L 125.568 147.862821 
L 134.496 148.699494 
L 143.424 152.362692 
L 152.352 151.265158 
L 161.28 152.209064 
L 170.208 152.989179 
L 179.136 154.894047 
L 188.064 151.590045 
L 196.992 152.092385 
L 205.92 152.592791 
L 214.848 156.830726 
L 223.776 159.103949 
L 232.704 159.760575 
L 241.632 160.142816 
L 250.56 160.08802 
L 259.488 160.868619 
L 268.416 162.077858 
L 277.344 162.247965 
L 286.272 162.303197 
L 295.2 161.62663 
L 304.128 162.213131 
L 313.056 164.147994 
L 321.984 164.142866 
L 330.912 163.806845 
L 339.84 165.151555 
L 348.768 165.345848 
L 357.696 166.329711 
L 366.624 166.982712 
L 375.552 168.030744 
L 384.48 169.072384 
L 393.408 169.95111 
L 402.336 172.019729 
L 411.264 174.928248 
L 420.192 175.330811 
L 429.12 174.972935 
L 438.048 177.267267 
L 446.976 178.857641 
L 455.904 179.26574 
L 464.832 183.109498 
L 473.76 183.945327 
L 482.688 185.194459 
L 491.616 184.329158 
L 500.544 186.633503 
L 509.472 187.646943 
L 518.4 189.852155 
L 518.4 228.232587 
L 518.4 228.232587 
L 509.472 221.978588 
L 500.544 223.814097 
L 491.616 219.615922 
L 482.688 219.276874 
L 473.76 214.695022 
L 464.832 213.461931 
L 455.904 212.914437 
L 446.976 210.456175 
L 438.048 208.478461 
L 429.12 207.420276 
L 420.192 206.595871 
L 411.264 205.356332 
L 402.336 203.94021 
L 393.408 201.866559 
L 384.48 200.771336 
L 375.552 198.765512 
L 366.624 194.696014 
L 357.696 193.743514 
L 348.768 192.76543 
L 339.84 192.153566 
L 330.912 189.787741 
L 321.984 189.401339 
L 313.056 187.475131 
L 304.128 185.938049 
L 295.2 184.853605 
L 286.272 183.970031 
L 277.344 183.788485 
L 268.416 181.292762 
L 259.488 179.331388 
L 250.56 177.366348 
L 241.632 175.834801 
L 232.704 174.335491 
L 223.776 172.898312 
L 214.848 173.755503 
L 205.92 172.57697 
L 196.992 171.785725 
L 188.064 170.537289 
L 179.136 169.302432 
L 170.208 168.847099 
L 161.28 167.879152 
L 152.352 167.153131 
L 143.424 166.38591 
L 134.496 165.780497 
L 125.568 164.7848 
L 116.64 163.046254 
L 107.712 159.808953 
L 98.784 158.525163 
L 89.856 156.892824 
L 80.928 154.581827 
L 72 154.089046 
z
" style="fill:#8c564b;fill-opacity:0.3;"/>
   </g>
   <g id="PolyCollection_7">
    <path clip-path="url(#p5f8292701e)" d="M 72 147.335319 
L 72 145.636973 
L 80.928 145.759665 
L 89.856 146.07583 
L 98.784 146.227866 
L 107.712 146.414827 
L 116.64 146.900211 
L 125.568 146.828551 
L 134.496 147.029745 
L 143.424 147.208906 
L 152.352 147.470396 
L 161.28 147.454 
L 170.208 147.694244 
L 179.136 147.731949 
L 188.064 147.858121 
L 196.992 147.888803 
L 205.92 147.721531 
L 214.848 147.85767 
L 223.776 147.967368 
L 232.704 148.000291 
L 241.632 148.116594 
L 250.56 148.082229 
L 259.488 148.209274 
L 268.416 148.252915 
L 277.344 148.265025 
L 286.272 148.267519 
L 295.2 148.249529 
L 304.128 148.313648 
L 313.056 148.32828 
L 321.984 148.434993 
L 330.912 148.472483 
L 339.84 148.525825 
L 348.768 148.606832 
L 357.696 148.625175 
L 366.624 148.711562 
L 375.552 148.756789 
L 384.48 148.749952 
L 393.408 148.767549 
L 402.336 148.840036 
L 411.264 148.896282 
L 420.192 148.893913 
L 429.12 148.914788 
L 438.048 148.902653 
L 446.976 148.937453 
L 455.904 148.935838 
L 464.832 148.9552 
L 473.76 148.950231 
L 482.688 148.939078 
L 491.616 148.959698 
L 500.544 148.962636 
L 509.472 148.942787 
L 518.4 148.935184 
L 518.4 149.442084 
L 518.4 149.442084 
L 509.472 149.44555 
L 500.544 149.45001 
L 491.616 149.443023 
L 482.688 149.434983 
L 473.76 149.440353 
L 464.832 149.440391 
L 455.904 149.436304 
L 446.976 149.431911 
L 438.048 149.427749 
L 429.12 149.415168 
L 420.192 149.396913 
L 411.264 149.390252 
L 402.336 149.398233 
L 393.408 149.432692 
L 384.48 149.414887 
L 375.552 149.401031 
L 366.624 149.406711 
L 357.696 149.432751 
L 348.768 149.411528 
L 339.84 149.435313 
L 330.912 149.420691 
L 321.984 149.406967 
L 313.056 149.410315 
L 304.128 149.392798 
L 295.2 149.374708 
L 286.272 149.349795 
L 277.344 149.308722 
L 268.416 149.29606 
L 259.488 149.336953 
L 250.56 149.353074 
L 241.632 149.372847 
L 232.704 149.393614 
L 223.776 149.401166 
L 214.848 149.401898 
L 205.92 149.469193 
L 196.992 149.394471 
L 188.064 149.380452 
L 179.136 149.357692 
L 170.208 149.362725 
L 161.28 149.317722 
L 152.352 149.277914 
L 143.424 149.321605 
L 134.496 149.289919 
L 125.568 149.237179 
L 116.64 149.064456 
L 107.712 149.113761 
L 98.784 149.022409 
L 89.856 148.450312 
L 80.928 148.017074 
L 72 147.335319 
z
" style="fill:#e377c2;fill-opacity:0.3;"/>
   </g>
   <g id="matplotlib.axis_1">
    <g id="xtick_1">
     <g id="line2d_1">
      <path clip-path="url(#p5f8292701e)" d="M 72 384.48 
L 72 51.84 
" style="fill:none;stroke:#b0b0b0;stroke-linecap:square;stroke-width:0.8;"/>
     </g>
     <g id="line2d_2">
      <defs>
       <path d="M 0 0 
L 0 3.5 
" id="meeee7f6272" style="stroke:#000000;stroke-width:0.8;"/>
      </defs>
      <g>
       <use style="stroke:#000000;stroke-width:0.8;" x="72" xlink:href="#meeee7f6272" y="384.48"/>
      </g>
     </g>
     <g id="text_1">
      <!-- 0 -->
      <defs>
       <path d="M 31.78125 66.40625 
Q 24.171875 66.40625 20.328125 58.90625 
Q 16.5 51.421875 16.5 36.375 
Q 16.5 21.390625 20.328125 13.890625 
Q 24.171875 6.390625 31.78125 6.390625 
Q 39.453125 6.390625 43.28125 13.890625 
Q 47.125 21.390625 47.125 36.375 
Q 47.125 51.421875 43.28125 58.90625 
Q 39.453125 66.40625 31.78125 66.40625 
z
M 31.78125 74.21875 
Q 44.046875 74.21875 50.515625 64.515625 
Q 56.984375 54.828125 56.984375 36.375 
Q 56.984375 17.96875 50.515625 8.265625 
Q 44.046875 -1.421875 31.78125 -1.421875 
Q 19.53125 -1.421875 13.0625 8.265625 
Q 6.59375 17.96875 6.59375 36.375 
Q 6.59375 54.828125 13.0625 64.515625 
Q 19.53125 74.21875 31.78125 74.21875 
z
" id="DejaVuSans-48"/>
      </defs>
      <g transform="translate(68.81875 399.078438)scale(0.1 -0.1)">
       <use xlink:href="#DejaVuSans-48"/>
      </g>
     </g>
    </g>
    <g id="xtick_2">
     <g id="line2d_3">
      <path clip-path="url(#p5f8292701e)" d="M 161.28 384.48 
L 161.28 51.84 
" style="fill:none;stroke:#b0b0b0;stroke-linecap:square;stroke-width:0.8;"/>
     </g>
     <g id="line2d_4">
      <g>
       <use style="stroke:#000000;stroke-width:0.8;" x="161.28" xlink:href="#meeee7f6272" y="384.48"/>
      </g>
     </g>
     <g id="text_2">
      <!-- 10 -->
      <defs>
       <path d="M 12.40625 8.296875 
L 28.515625 8.296875 
L 28.515625 63.921875 
L 10.984375 60.40625 
L 10.984375 69.390625 
L 28.421875 72.90625 
L 38.28125 72.90625 
L 38.28125 8.296875 
L 54.390625 8.296875 
L 54.390625 0 
L 12.40625 0 
z
" id="DejaVuSans-49"/>
      </defs>
      <g transform="translate(154.9175 399.078438)scale(0.1 -0.1)">
       <use xlink:href="#DejaVuSans-49"/>
       <use x="63.623047" xlink:href="#DejaVuSans-48"/>
      </g>
     </g>
    </g>
    <g id="xtick_3">
     <g id="line2d_5">
      <path clip-path="url(#p5f8292701e)" d="M 250.56 384.48 
L 250.56 51.84 
" style="fill:none;stroke:#b0b0b0;stroke-linecap:square;stroke-width:0.8;"/>
     </g>
     <g id="line2d_6">
      <g>
       <use style="stroke:#000000;stroke-width:0.8;" x="250.56" xlink:href="#meeee7f6272" y="384.48"/>
      </g>
     </g>
     <g id="text_3">
      <!-- 20 -->
      <defs>
       <path d="M 19.1875 8.296875 
L 53.609375 8.296875 
L 53.609375 0 
L 7.328125 0 
L 7.328125 8.296875 
Q 12.9375 14.109375 22.625 23.890625 
Q 32.328125 33.6875 34.8125 36.53125 
Q 39.546875 41.84375 41.421875 45.53125 
Q 43.3125 49.21875 43.3125 52.78125 
Q 43.3125 58.59375 39.234375 62.25 
Q 35.15625 65.921875 28.609375 65.921875 
Q 23.96875 65.921875 18.8125 64.3125 
Q 13.671875 62.703125 7.8125 59.421875 
L 7.8125 69.390625 
Q 13.765625 71.78125 18.9375 73 
Q 24.125 74.21875 28.421875 74.21875 
Q 39.75 74.21875 46.484375 68.546875 
Q 53.21875 62.890625 53.21875 53.421875 
Q 53.21875 48.921875 51.53125 44.890625 
Q 49.859375 40.875 45.40625 35.40625 
Q 44.1875 33.984375 37.640625 27.21875 
Q 31.109375 20.453125 19.1875 8.296875 
z
" id="DejaVuSans-50"/>
      </defs>
      <g transform="translate(244.1975 399.078438)scale(0.1 -0.1)">
       <use xlink:href="#DejaVuSans-50"/>
       <use x="63.623047" xlink:href="#DejaVuSans-48"/>
      </g>
     </g>
    </g>
    <g id="xtick_4">
     <g id="line2d_7">
      <path clip-path="url(#p5f8292701e)" d="M 339.84 384.48 
L 339.84 51.84 
" style="fill:none;stroke:#b0b0b0;stroke-linecap:square;stroke-width:0.8;"/>
     </g>
     <g id="line2d_8">
      <g>
       <use style="stroke:#000000;stroke-width:0.8;" x="339.84" xlink:href="#meeee7f6272" y="384.48"/>
      </g>
     </g>
     <g id="text_4">
      <!-- 30 -->
      <defs>
       <path d="M 40.578125 39.3125 
Q 47.65625 37.796875 51.625 33 
Q 55.609375 28.21875 55.609375 21.1875 
Q 55.609375 10.40625 48.1875 4.484375 
Q 40.765625 -1.421875 27.09375 -1.421875 
Q 22.515625 -1.421875 17.65625 -0.515625 
Q 12.796875 0.390625 7.625 2.203125 
L 7.625 11.71875 
Q 11.71875 9.328125 16.59375 8.109375 
Q 21.484375 6.890625 26.8125 6.890625 
Q 36.078125 6.890625 40.9375 10.546875 
Q 45.796875 14.203125 45.796875 21.1875 
Q 45.796875 27.640625 41.28125 31.265625 
Q 36.765625 34.90625 28.71875 34.90625 
L 20.21875 34.90625 
L 20.21875 43.015625 
L 29.109375 43.015625 
Q 36.375 43.015625 40.234375 45.921875 
Q 44.09375 48.828125 44.09375 54.296875 
Q 44.09375 59.90625 40.109375 62.90625 
Q 36.140625 65.921875 28.71875 65.921875 
Q 24.65625 65.921875 20.015625 65.03125 
Q 15.375 64.15625 9.8125 62.3125 
L 9.8125 71.09375 
Q 15.4375 72.65625 20.34375 73.4375 
Q 25.25 74.21875 29.59375 74.21875 
Q 40.828125 74.21875 47.359375 69.109375 
Q 53.90625 64.015625 53.90625 55.328125 
Q 53.90625 49.265625 50.4375 45.09375 
Q 46.96875 40.921875 40.578125 39.3125 
z
" id="DejaVuSans-51"/>
      </defs>
      <g transform="translate(333.4775 399.078438)scale(0.1 -0.1)">
       <use xlink:href="#DejaVuSans-51"/>
       <use x="63.623047" xlink:href="#DejaVuSans-48"/>
      </g>
     </g>
    </g>
    <g id="xtick_5">
     <g id="line2d_9">
      <path clip-path="url(#p5f8292701e)" d="M 429.12 384.48 
L 429.12 51.84 
" style="fill:none;stroke:#b0b0b0;stroke-linecap:square;stroke-width:0.8;"/>
     </g>
     <g id="line2d_10">
      <g>
       <use style="stroke:#000000;stroke-width:0.8;" x="429.12" xlink:href="#meeee7f6272" y="384.48"/>
      </g>
     </g>
     <g id="text_5">
      <!-- 40 -->
      <defs>
       <path d="M 37.796875 64.3125 
L 12.890625 25.390625 
L 37.796875 25.390625 
z
M 35.203125 72.90625 
L 47.609375 72.90625 
L 47.609375 25.390625 
L 58.015625 25.390625 
L 58.015625 17.1875 
L 47.609375 17.1875 
L 47.609375 0 
L 37.796875 0 
L 37.796875 17.1875 
L 4.890625 17.1875 
L 4.890625 26.703125 
z
" id="DejaVuSans-52"/>
      </defs>
      <g transform="translate(422.7575 399.078438)scale(0.1 -0.1)">
       <use xlink:href="#DejaVuSans-52"/>
       <use x="63.623047" xlink:href="#DejaVuSans-48"/>
      </g>
     </g>
    </g>
    <g id="xtick_6">
     <g id="line2d_11">
      <path clip-path="url(#p5f8292701e)" d="M 518.4 384.48 
L 518.4 51.84 
" style="fill:none;stroke:#b0b0b0;stroke-linecap:square;stroke-width:0.8;"/>
     </g>
     <g id="line2d_12">
      <g>
       <use style="stroke:#000000;stroke-width:0.8;" x="518.4" xlink:href="#meeee7f6272" y="384.48"/>
      </g>
     </g>
     <g id="text_6">
      <!-- 50 -->
      <defs>
       <path d="M 10.796875 72.90625 
L 49.515625 72.90625 
L 49.515625 64.59375 
L 19.828125 64.59375 
L 19.828125 46.734375 
Q 21.96875 47.46875 24.109375 47.828125 
Q 26.265625 48.1875 28.421875 48.1875 
Q 40.625 48.1875 47.75 41.5 
Q 54.890625 34.8125 54.890625 23.390625 
Q 54.890625 11.625 47.5625 5.09375 
Q 40.234375 -1.421875 26.90625 -1.421875 
Q 22.3125 -1.421875 17.546875 -0.640625 
Q 12.796875 0.140625 7.71875 1.703125 
L 7.71875 11.625 
Q 12.109375 9.234375 16.796875 8.0625 
Q 21.484375 6.890625 26.703125 6.890625 
Q 35.15625 6.890625 40.078125 11.328125 
Q 45.015625 15.765625 45.015625 23.390625 
Q 45.015625 31 40.078125 35.4375 
Q 35.15625 39.890625 26.703125 39.890625 
Q 22.75 39.890625 18.8125 39.015625 
Q 14.890625 38.140625 10.796875 36.28125 
z
" id="DejaVuSans-53"/>
      </defs>
      <g transform="translate(512.0375 399.078438)scale(0.1 -0.1)">
       <use xlink:href="#DejaVuSans-53"/>
       <use x="63.623047" xlink:href="#DejaVuSans-48"/>
      </g>
     </g>
    </g>
    <g id="text_7">
     <!-- Iteration -->
     <defs>
      <path d="M 9.8125 72.90625 
L 19.671875 72.90625 
L 19.671875 0 
L 9.8125 0 
z
" id="DejaVuSans-73"/>
      <path d="M 18.3125 70.21875 
L 18.3125 54.6875 
L 36.8125 54.6875 
L 36.8125 47.703125 
L 18.3125 47.703125 
L 18.3125 18.015625 
Q 18.3125 11.328125 20.140625 9.421875 
Q 21.96875 7.515625 27.59375 7.515625 
L 36.8125 7.515625 
L 36.8125 0 
L 27.59375 0 
Q 17.1875 0 13.234375 3.875 
Q 9.28125 7.765625 9.28125 18.015625 
L 9.28125 47.703125 
L 2.6875 47.703125 
L 2.6875 54.6875 
L 9.28125 54.6875 
L 9.28125 70.21875 
z
" id="DejaVuSans-116"/>
      <path d="M 56.203125 29.59375 
L 56.203125 25.203125 
L 14.890625 25.203125 
Q 15.484375 15.921875 20.484375 11.0625 
Q 25.484375 6.203125 34.421875 6.203125 
Q 39.59375 6.203125 44.453125 7.46875 
Q 49.3125 8.734375 54.109375 11.28125 
L 54.109375 2.78125 
Q 49.265625 0.734375 44.1875 -0.34375 
Q 39.109375 -1.421875 33.890625 -1.421875 
Q 20.796875 -1.421875 13.15625 6.1875 
Q 5.515625 13.8125 5.515625 26.8125 
Q 5.515625 40.234375 12.765625 48.109375 
Q 20.015625 56 32.328125 56 
Q 43.359375 56 49.78125 48.890625 
Q 56.203125 41.796875 56.203125 29.59375 
z
M 47.21875 32.234375 
Q 47.125 39.59375 43.09375 43.984375 
Q 39.0625 48.390625 32.421875 48.390625 
Q 24.90625 48.390625 20.390625 44.140625 
Q 15.875 39.890625 15.1875 32.171875 
z
" id="DejaVuSans-101"/>
      <path d="M 41.109375 46.296875 
Q 39.59375 47.171875 37.8125 47.578125 
Q 36.03125 48 33.890625 48 
Q 26.265625 48 22.1875 43.046875 
Q 18.109375 38.09375 18.109375 28.8125 
L 18.109375 0 
L 9.078125 0 
L 9.078125 54.6875 
L 18.109375 54.6875 
L 18.109375 46.1875 
Q 20.953125 51.171875 25.484375 53.578125 
Q 30.03125 56 36.53125 56 
Q 37.453125 56 38.578125 55.875 
Q 39.703125 55.765625 41.0625 55.515625 
z
" id="DejaVuSans-114"/>
      <path d="M 34.28125 27.484375 
Q 23.390625 27.484375 19.1875 25 
Q 14.984375 22.515625 14.984375 16.5 
Q 14.984375 11.71875 18.140625 8.90625 
Q 21.296875 6.109375 26.703125 6.109375 
Q 34.1875 6.109375 38.703125 11.40625 
Q 43.21875 16.703125 43.21875 25.484375 
L 43.21875 27.484375 
z
M 52.203125 31.203125 
L 52.203125 0 
L 43.21875 0 
L 43.21875 8.296875 
Q 40.140625 3.328125 35.546875 0.953125 
Q 30.953125 -1.421875 24.3125 -1.421875 
Q 15.921875 -1.421875 10.953125 3.296875 
Q 6 8.015625 6 15.921875 
Q 6 25.140625 12.171875 29.828125 
Q 18.359375 34.515625 30.609375 34.515625 
L 43.21875 34.515625 
L 43.21875 35.40625 
Q 43.21875 41.609375 39.140625 45 
Q 35.0625 48.390625 27.6875 48.390625 
Q 23 48.390625 18.546875 47.265625 
Q 14.109375 46.140625 10.015625 43.890625 
L 10.015625 52.203125 
Q 14.9375 54.109375 19.578125 55.046875 
Q 24.21875 56 28.609375 56 
Q 40.484375 56 46.34375 49.84375 
Q 52.203125 43.703125 52.203125 31.203125 
z
" id="DejaVuSans-97"/>
      <path d="M 9.421875 54.6875 
L 18.40625 54.6875 
L 18.40625 0 
L 9.421875 0 
z
M 9.421875 75.984375 
L 18.40625 75.984375 
L 18.40625 64.59375 
L 9.421875 64.59375 
z
" id="DejaVuSans-105"/>
      <path d="M 30.609375 48.390625 
Q 23.390625 48.390625 19.1875 42.75 
Q 14.984375 37.109375 14.984375 27.296875 
Q 14.984375 17.484375 19.15625 11.84375 
Q 23.34375 6.203125 30.609375 6.203125 
Q 37.796875 6.203125 41.984375 11.859375 
Q 46.1875 17.53125 46.1875 27.296875 
Q 46.1875 37.015625 41.984375 42.703125 
Q 37.796875 48.390625 30.609375 48.390625 
z
M 30.609375 56 
Q 42.328125 56 49.015625 48.375 
Q 55.71875 40.765625 55.71875 27.296875 
Q 55.71875 13.875 49.015625 6.21875 
Q 42.328125 -1.421875 30.609375 -1.421875 
Q 18.84375 -1.421875 12.171875 6.21875 
Q 5.515625 13.875 5.515625 27.296875 
Q 5.515625 40.765625 12.171875 48.375 
Q 18.84375 56 30.609375 56 
z
" id="DejaVuSans-111"/>
      <path d="M 54.890625 33.015625 
L 54.890625 0 
L 45.90625 0 
L 45.90625 32.71875 
Q 45.90625 40.484375 42.875 44.328125 
Q 39.84375 48.1875 33.796875 48.1875 
Q 26.515625 48.1875 22.3125 43.546875 
Q 18.109375 38.921875 18.109375 30.90625 
L 18.109375 0 
L 9.078125 0 
L 9.078125 54.6875 
L 18.109375 54.6875 
L 18.109375 46.1875 
Q 21.34375 51.125 25.703125 53.5625 
Q 30.078125 56 35.796875 56 
Q 45.21875 56 50.046875 50.171875 
Q 54.890625 44.34375 54.890625 33.015625 
z
" id="DejaVuSans-110"/>
     </defs>
     <g transform="translate(273.991406 412.756563)scale(0.1 -0.1)">
      <use xlink:href="#DejaVuSans-73"/>
      <use x="29.492188" xlink:href="#DejaVuSans-116"/>
      <use x="68.701172" xlink:href="#DejaVuSans-101"/>
      <use x="130.224609" xlink:href="#DejaVuSans-114"/>
      <use x="171.337891" xlink:href="#DejaVuSans-97"/>
      <use x="232.617188" xlink:href="#DejaVuSans-116"/>
      <use x="271.826172" xlink:href="#DejaVuSans-105"/>
      <use x="299.609375" xlink:href="#DejaVuSans-111"/>
      <use x="360.791016" xlink:href="#DejaVuSans-110"/>
     </g>
    </g>
   </g>
   <g id="matplotlib.axis_2">
    <g id="ytick_1">
     <g id="line2d_13">
      <path clip-path="url(#p5f8292701e)" d="M 72 384.48 
L 518.4 384.48 
" style="fill:none;stroke:#b0b0b0;stroke-linecap:square;stroke-width:0.8;"/>
     </g>
     <g id="line2d_14">
      <defs>
       <path d="M 0 0 
L -3.5 0 
" id="m8ad7d2555f" style="stroke:#000000;stroke-width:0.8;"/>
      </defs>
      <g>
       <use style="stroke:#000000;stroke-width:0.8;" x="72" xlink:href="#m8ad7d2555f" y="384.48"/>
      </g>
     </g>
     <g id="text_8">
      <!-- $\mathdefault{10^{-12}}$ -->
      <defs>
       <path d="M 10.59375 35.5 
L 73.1875 35.5 
L 73.1875 27.203125 
L 10.59375 27.203125 
z
" id="DejaVuSans-8722"/>
      </defs>
      <g transform="translate(37.1 388.279219)scale(0.1 -0.1)">
       <use transform="translate(0 0.765625)" xlink:href="#DejaVuSans-49"/>
       <use transform="translate(63.623047 0.765625)" xlink:href="#DejaVuSans-48"/>
       <use transform="translate(128.203125 39.046875)scale(0.7)" xlink:href="#DejaVuSans-8722"/>
       <use transform="translate(186.855469 39.046875)scale(0.7)" xlink:href="#DejaVuSans-49"/>
       <use transform="translate(231.391602 39.046875)scale(0.7)" xlink:href="#DejaVuSans-50"/>
      </g>
     </g>
    </g>
    <g id="ytick_2">
     <g id="line2d_15">
      <path clip-path="url(#p5f8292701e)" d="M 72 336.96 
L 518.4 336.96 
" style="fill:none;stroke:#b0b0b0;stroke-linecap:square;stroke-width:0.8;"/>
     </g>
     <g id="line2d_16">
      <g>
       <use style="stroke:#000000;stroke-width:0.8;" x="72" xlink:href="#m8ad7d2555f" y="336.96"/>
      </g>
     </g>
     <g id="text_9">
      <!-- $\mathdefault{10^{-10}}$ -->
      <g transform="translate(37.1 340.759219)scale(0.1 -0.1)">
       <use transform="translate(0 0.765625)" xlink:href="#DejaVuSans-49"/>
       <use transform="translate(63.623047 0.765625)" xlink:href="#DejaVuSans-48"/>
       <use transform="translate(128.203125 39.046875)scale(0.7)" xlink:href="#DejaVuSans-8722"/>
       <use transform="translate(186.855469 39.046875)scale(0.7)" xlink:href="#DejaVuSans-49"/>
       <use transform="translate(231.391602 39.046875)scale(0.7)" xlink:href="#DejaVuSans-48"/>
      </g>
     </g>
    </g>
    <g id="ytick_3">
     <g id="line2d_17">
      <path clip-path="url(#p5f8292701e)" d="M 72 289.44 
L 518.4 289.44 
" style="fill:none;stroke:#b0b0b0;stroke-linecap:square;stroke-width:0.8;"/>
     </g>
     <g id="line2d_18">
      <g>
       <use style="stroke:#000000;stroke-width:0.8;" x="72" xlink:href="#m8ad7d2555f" y="289.44"/>
      </g>
     </g>
     <g id="text_10">
      <!-- $\mathdefault{10^{-8}}$ -->
      <defs>
       <path d="M 31.78125 34.625 
Q 24.75 34.625 20.71875 30.859375 
Q 16.703125 27.09375 16.703125 20.515625 
Q 16.703125 13.921875 20.71875 10.15625 
Q 24.75 6.390625 31.78125 6.390625 
Q 38.8125 6.390625 42.859375 10.171875 
Q 46.921875 13.96875 46.921875 20.515625 
Q 46.921875 27.09375 42.890625 30.859375 
Q 38.875 34.625 31.78125 34.625 
z
M 21.921875 38.8125 
Q 15.578125 40.375 12.03125 44.71875 
Q 8.5 49.078125 8.5 55.328125 
Q 8.5 64.0625 14.71875 69.140625 
Q 20.953125 74.21875 31.78125 74.21875 
Q 42.671875 74.21875 48.875 69.140625 
Q 55.078125 64.0625 55.078125 55.328125 
Q 55.078125 49.078125 51.53125 44.71875 
Q 48 40.375 41.703125 38.8125 
Q 48.828125 37.15625 52.796875 32.3125 
Q 56.78125 27.484375 56.78125 20.515625 
Q 56.78125 9.90625 50.3125 4.234375 
Q 43.84375 -1.421875 31.78125 -1.421875 
Q 19.734375 -1.421875 13.25 4.234375 
Q 6.78125 9.90625 6.78125 20.515625 
Q 6.78125 27.484375 10.78125 32.3125 
Q 14.796875 37.15625 21.921875 38.8125 
z
M 18.3125 54.390625 
Q 18.3125 48.734375 21.84375 45.5625 
Q 25.390625 42.390625 31.78125 42.390625 
Q 38.140625 42.390625 41.71875 45.5625 
Q 45.3125 48.734375 45.3125 54.390625 
Q 45.3125 60.0625 41.71875 63.234375 
Q 38.140625 66.40625 31.78125 66.40625 
Q 25.390625 66.40625 21.84375 63.234375 
Q 18.3125 60.0625 18.3125 54.390625 
z
" id="DejaVuSans-56"/>
      </defs>
      <g transform="translate(41.5 293.239219)scale(0.1 -0.1)">
       <use transform="translate(0 0.765625)" xlink:href="#DejaVuSans-49"/>
       <use transform="translate(63.623047 0.765625)" xlink:href="#DejaVuSans-48"/>
       <use transform="translate(128.203125 39.046875)scale(0.7)" xlink:href="#DejaVuSans-8722"/>
       <use transform="translate(186.855469 39.046875)scale(0.7)" xlink:href="#DejaVuSans-56"/>
      </g>
     </g>
    </g>
    <g id="ytick_4">
     <g id="line2d_19">
      <path clip-path="url(#p5f8292701e)" d="M 72 241.92 
L 518.4 241.92 
" style="fill:none;stroke:#b0b0b0;stroke-linecap:square;stroke-width:0.8;"/>
     </g>
     <g id="line2d_20">
      <g>
       <use style="stroke:#000000;stroke-width:0.8;" x="72" xlink:href="#m8ad7d2555f" y="241.92"/>
      </g>
     </g>
     <g id="text_11">
      <!-- $\mathdefault{10^{-6}}$ -->
      <defs>
       <path d="M 33.015625 40.375 
Q 26.375 40.375 22.484375 35.828125 
Q 18.609375 31.296875 18.609375 23.390625 
Q 18.609375 15.53125 22.484375 10.953125 
Q 26.375 6.390625 33.015625 6.390625 
Q 39.65625 6.390625 43.53125 10.953125 
Q 47.40625 15.53125 47.40625 23.390625 
Q 47.40625 31.296875 43.53125 35.828125 
Q 39.65625 40.375 33.015625 40.375 
z
M 52.59375 71.296875 
L 52.59375 62.3125 
Q 48.875 64.0625 45.09375 64.984375 
Q 41.3125 65.921875 37.59375 65.921875 
Q 27.828125 65.921875 22.671875 59.328125 
Q 17.53125 52.734375 16.796875 39.40625 
Q 19.671875 43.65625 24.015625 45.921875 
Q 28.375 48.1875 33.59375 48.1875 
Q 44.578125 48.1875 50.953125 41.515625 
Q 57.328125 34.859375 57.328125 23.390625 
Q 57.328125 12.15625 50.6875 5.359375 
Q 44.046875 -1.421875 33.015625 -1.421875 
Q 20.359375 -1.421875 13.671875 8.265625 
Q 6.984375 17.96875 6.984375 36.375 
Q 6.984375 53.65625 15.1875 63.9375 
Q 23.390625 74.21875 37.203125 74.21875 
Q 40.921875 74.21875 44.703125 73.484375 
Q 48.484375 72.75 52.59375 71.296875 
z
" id="DejaVuSans-54"/>
      </defs>
      <g transform="translate(41.5 245.719219)scale(0.1 -0.1)">
       <use transform="translate(0 0.765625)" xlink:href="#DejaVuSans-49"/>
       <use transform="translate(63.623047 0.765625)" xlink:href="#DejaVuSans-48"/>
       <use transform="translate(128.203125 39.046875)scale(0.7)" xlink:href="#DejaVuSans-8722"/>
       <use transform="translate(186.855469 39.046875)scale(0.7)" xlink:href="#DejaVuSans-54"/>
      </g>
     </g>
    </g>
    <g id="ytick_5">
     <g id="line2d_21">
      <path clip-path="url(#p5f8292701e)" d="M 72 194.4 
L 518.4 194.4 
" style="fill:none;stroke:#b0b0b0;stroke-linecap:square;stroke-width:0.8;"/>
     </g>
     <g id="line2d_22">
      <g>
       <use style="stroke:#000000;stroke-width:0.8;" x="72" xlink:href="#m8ad7d2555f" y="194.4"/>
      </g>
     </g>
     <g id="text_12">
      <!-- $\mathdefault{10^{-4}}$ -->
      <g transform="translate(41.5 198.199219)scale(0.1 -0.1)">
       <use transform="translate(0 0.684375)" xlink:href="#DejaVuSans-49"/>
       <use transform="translate(63.623047 0.684375)" xlink:href="#DejaVuSans-48"/>
       <use transform="translate(128.203125 38.965625)scale(0.7)" xlink:href="#DejaVuSans-8722"/>
       <use transform="translate(186.855469 38.965625)scale(0.7)" xlink:href="#DejaVuSans-52"/>
      </g>
     </g>
    </g>
    <g id="ytick_6">
     <g id="line2d_23">
      <path clip-path="url(#p5f8292701e)" d="M 72 146.88 
L 518.4 146.88 
" style="fill:none;stroke:#b0b0b0;stroke-linecap:square;stroke-width:0.8;"/>
     </g>
     <g id="line2d_24">
      <g>
       <use style="stroke:#000000;stroke-width:0.8;" x="72" xlink:href="#m8ad7d2555f" y="146.88"/>
      </g>
     </g>
     <g id="text_13">
      <!-- $\mathdefault{10^{-2}}$ -->
      <g transform="translate(41.5 150.679219)scale(0.1 -0.1)">
       <use transform="translate(0 0.765625)" xlink:href="#DejaVuSans-49"/>
       <use transform="translate(63.623047 0.765625)" xlink:href="#DejaVuSans-48"/>
       <use transform="translate(128.203125 39.046875)scale(0.7)" xlink:href="#DejaVuSans-8722"/>
       <use transform="translate(186.855469 39.046875)scale(0.7)" xlink:href="#DejaVuSans-50"/>
      </g>
     </g>
    </g>
    <g id="ytick_7">
     <g id="line2d_25">
      <path clip-path="url(#p5f8292701e)" d="M 72 99.36 
L 518.4 99.36 
" style="fill:none;stroke:#b0b0b0;stroke-linecap:square;stroke-width:0.8;"/>
     </g>
     <g id="line2d_26">
      <g>
       <use style="stroke:#000000;stroke-width:0.8;" x="72" xlink:href="#m8ad7d2555f" y="99.36"/>
      </g>
     </g>
     <g id="text_14">
      <!-- $\mathdefault{10^{0}}$ -->
      <g transform="translate(47.4 103.159219)scale(0.1 -0.1)">
       <use transform="translate(0 0.765625)" xlink:href="#DejaVuSans-49"/>
       <use transform="translate(63.623047 0.765625)" xlink:href="#DejaVuSans-48"/>
       <use transform="translate(128.203125 39.046875)scale(0.7)" xlink:href="#DejaVuSans-48"/>
      </g>
     </g>
    </g>
    <g id="ytick_8">
     <g id="line2d_27">
      <path clip-path="url(#p5f8292701e)" d="M 72 51.84 
L 518.4 51.84 
" style="fill:none;stroke:#b0b0b0;stroke-linecap:square;stroke-width:0.8;"/>
     </g>
     <g id="line2d_28">
      <g>
       <use style="stroke:#000000;stroke-width:0.8;" x="72" xlink:href="#m8ad7d2555f" y="51.84"/>
      </g>
     </g>
     <g id="text_15">
      <!-- $\mathdefault{10^{2}}$ -->
      <g transform="translate(47.4 55.639219)scale(0.1 -0.1)">
       <use transform="translate(0 0.765625)" xlink:href="#DejaVuSans-49"/>
       <use transform="translate(63.623047 0.765625)" xlink:href="#DejaVuSans-48"/>
       <use transform="translate(128.203125 39.046875)scale(0.7)" xlink:href="#DejaVuSans-50"/>
      </g>
     </g>
    </g>
    <g id="text_16">
     <!-- Integrated Squared Error -->
     <defs>
      <path d="M 45.40625 27.984375 
Q 45.40625 37.75 41.375 43.109375 
Q 37.359375 48.484375 30.078125 48.484375 
Q 22.859375 48.484375 18.828125 43.109375 
Q 14.796875 37.75 14.796875 27.984375 
Q 14.796875 18.265625 18.828125 12.890625 
Q 22.859375 7.515625 30.078125 7.515625 
Q 37.359375 7.515625 41.375 12.890625 
Q 45.40625 18.265625 45.40625 27.984375 
z
M 54.390625 6.78125 
Q 54.390625 -7.171875 48.1875 -13.984375 
Q 42 -20.796875 29.203125 -20.796875 
Q 24.46875 -20.796875 20.265625 -20.09375 
Q 16.0625 -19.390625 12.109375 -17.921875 
L 12.109375 -9.1875 
Q 16.0625 -11.328125 19.921875 -12.34375 
Q 23.78125 -13.375 27.78125 -13.375 
Q 36.625 -13.375 41.015625 -8.765625 
Q 45.40625 -4.15625 45.40625 5.171875 
L 45.40625 9.625 
Q 42.625 4.78125 38.28125 2.390625 
Q 33.9375 0 27.875 0 
Q 17.828125 0 11.671875 7.65625 
Q 5.515625 15.328125 5.515625 27.984375 
Q 5.515625 40.671875 11.671875 48.328125 
Q 17.828125 56 27.875 56 
Q 33.9375 56 38.28125 53.609375 
Q 42.625 51.21875 45.40625 46.390625 
L 45.40625 54.6875 
L 54.390625 54.6875 
z
" id="DejaVuSans-103"/>
      <path d="M 45.40625 46.390625 
L 45.40625 75.984375 
L 54.390625 75.984375 
L 54.390625 0 
L 45.40625 0 
L 45.40625 8.203125 
Q 42.578125 3.328125 38.25 0.953125 
Q 33.9375 -1.421875 27.875 -1.421875 
Q 17.96875 -1.421875 11.734375 6.484375 
Q 5.515625 14.40625 5.515625 27.296875 
Q 5.515625 40.1875 11.734375 48.09375 
Q 17.96875 56 27.875 56 
Q 33.9375 56 38.25 53.625 
Q 42.578125 51.265625 45.40625 46.390625 
z
M 14.796875 27.296875 
Q 14.796875 17.390625 18.875 11.75 
Q 22.953125 6.109375 30.078125 6.109375 
Q 37.203125 6.109375 41.296875 11.75 
Q 45.40625 17.390625 45.40625 27.296875 
Q 45.40625 37.203125 41.296875 42.84375 
Q 37.203125 48.484375 30.078125 48.484375 
Q 22.953125 48.484375 18.875 42.84375 
Q 14.796875 37.203125 14.796875 27.296875 
z
" id="DejaVuSans-100"/>
      <path id="DejaVuSans-32"/>
      <path d="M 53.515625 70.515625 
L 53.515625 60.890625 
Q 47.90625 63.578125 42.921875 64.890625 
Q 37.9375 66.21875 33.296875 66.21875 
Q 25.25 66.21875 20.875 63.09375 
Q 16.5 59.96875 16.5 54.203125 
Q 16.5 49.359375 19.40625 46.890625 
Q 22.3125 44.4375 30.421875 42.921875 
L 36.375 41.703125 
Q 47.40625 39.59375 52.65625 34.296875 
Q 57.90625 29 57.90625 20.125 
Q 57.90625 9.515625 50.796875 4.046875 
Q 43.703125 -1.421875 29.984375 -1.421875 
Q 24.8125 -1.421875 18.96875 -0.25 
Q 13.140625 0.921875 6.890625 3.21875 
L 6.890625 13.375 
Q 12.890625 10.015625 18.65625 8.296875 
Q 24.421875 6.59375 29.984375 6.59375 
Q 38.421875 6.59375 43.015625 9.90625 
Q 47.609375 13.234375 47.609375 19.390625 
Q 47.609375 24.75 44.3125 27.78125 
Q 41.015625 30.8125 33.5 32.328125 
L 27.484375 33.5 
Q 16.453125 35.6875 11.515625 40.375 
Q 6.59375 45.0625 6.59375 53.421875 
Q 6.59375 63.09375 13.40625 68.65625 
Q 20.21875 74.21875 32.171875 74.21875 
Q 37.3125 74.21875 42.625 73.28125 
Q 47.953125 72.359375 53.515625 70.515625 
z
" id="DejaVuSans-83"/>
      <path d="M 14.796875 27.296875 
Q 14.796875 17.390625 18.875 11.75 
Q 22.953125 6.109375 30.078125 6.109375 
Q 37.203125 6.109375 41.296875 11.75 
Q 45.40625 17.390625 45.40625 27.296875 
Q 45.40625 37.203125 41.296875 42.84375 
Q 37.203125 48.484375 30.078125 48.484375 
Q 22.953125 48.484375 18.875 42.84375 
Q 14.796875 37.203125 14.796875 27.296875 
z
M 45.40625 8.203125 
Q 42.578125 3.328125 38.25 0.953125 
Q 33.9375 -1.421875 27.875 -1.421875 
Q 17.96875 -1.421875 11.734375 6.484375 
Q 5.515625 14.40625 5.515625 27.296875 
Q 5.515625 40.1875 11.734375 48.09375 
Q 17.96875 56 27.875 56 
Q 33.9375 56 38.25 53.625 
Q 42.578125 51.265625 45.40625 46.390625 
L 45.40625 54.6875 
L 54.390625 54.6875 
L 54.390625 -20.796875 
L 45.40625 -20.796875 
z
" id="DejaVuSans-113"/>
      <path d="M 8.5 21.578125 
L 8.5 54.6875 
L 17.484375 54.6875 
L 17.484375 21.921875 
Q 17.484375 14.15625 20.5 10.265625 
Q 23.53125 6.390625 29.59375 6.390625 
Q 36.859375 6.390625 41.078125 11.03125 
Q 45.3125 15.671875 45.3125 23.6875 
L 45.3125 54.6875 
L 54.296875 54.6875 
L 54.296875 0 
L 45.3125 0 
L 45.3125 8.40625 
Q 42.046875 3.421875 37.71875 1 
Q 33.40625 -1.421875 27.6875 -1.421875 
Q 18.265625 -1.421875 13.375 4.4375 
Q 8.5 10.296875 8.5 21.578125 
z
M 31.109375 56 
z
" id="DejaVuSans-117"/>
      <path d="M 9.8125 72.90625 
L 55.90625 72.90625 
L 55.90625 64.59375 
L 19.671875 64.59375 
L 19.671875 43.015625 
L 54.390625 43.015625 
L 54.390625 34.71875 
L 19.671875 34.71875 
L 19.671875 8.296875 
L 56.78125 8.296875 
L 56.78125 0 
L 9.8125 0 
z
" id="DejaVuSans-69"/>
     </defs>
     <g transform="translate(31.020312 280.483437)rotate(-90)scale(0.1 -0.1)">
      <use xlink:href="#DejaVuSans-73"/>
      <use x="29.492188" xlink:href="#DejaVuSans-110"/>
      <use x="92.871094" xlink:href="#DejaVuSans-116"/>
      <use x="132.080078" xlink:href="#DejaVuSans-101"/>
      <use x="193.603516" xlink:href="#DejaVuSans-103"/>
      <use x="257.080078" xlink:href="#DejaVuSans-114"/>
      <use x="298.193359" xlink:href="#DejaVuSans-97"/>
      <use x="359.472656" xlink:href="#DejaVuSans-116"/>
      <use x="398.681641" xlink:href="#DejaVuSans-101"/>
      <use x="460.205078" xlink:href="#DejaVuSans-100"/>
      <use x="523.681641" xlink:href="#DejaVuSans-32"/>
      <use x="555.46875" xlink:href="#DejaVuSans-83"/>
      <use x="618.945312" xlink:href="#DejaVuSans-113"/>
      <use x="682.421875" xlink:href="#DejaVuSans-117"/>
      <use x="745.800781" xlink:href="#DejaVuSans-97"/>
      <use x="807.080078" xlink:href="#DejaVuSans-114"/>
      <use x="845.943359" xlink:href="#DejaVuSans-101"/>
      <use x="907.466797" xlink:href="#DejaVuSans-100"/>
      <use x="970.943359" xlink:href="#DejaVuSans-32"/>
      <use x="1002.730469" xlink:href="#DejaVuSans-69"/>
      <use x="1065.914062" xlink:href="#DejaVuSans-114"/>
      <use x="1105.277344" xlink:href="#DejaVuSans-114"/>
      <use x="1144.140625" xlink:href="#DejaVuSans-111"/>
      <use x="1205.322266" xlink:href="#DejaVuSans-114"/>
     </g>
    </g>
   </g>
   <g id="line2d_29">
    <path clip-path="url(#p5f8292701e)" d="M 72 143.280127 
L 80.928 142.923158 
L 89.856 142.913841 
L 98.784 142.720602 
L 107.712 143.116251 
L 116.64 143.180431 
L 125.568 142.953523 
L 134.496 141.754797 
L 143.424 143.051989 
L 152.352 141.870091 
L 161.28 142.580472 
L 170.208 142.413712 
L 179.136 142.018627 
L 188.064 142.663933 
L 196.992 141.403817 
L 205.92 141.136384 
L 214.848 142.600488 
L 223.776 141.864395 
L 232.704 140.480456 
L 241.632 142.368089 
L 250.56 141.041819 
L 259.488 142.223509 
L 268.416 141.269165 
L 277.344 141.366519 
L 286.272 141.756152 
L 295.2 141.49775 
L 304.128 141.412988 
L 313.056 141.371422 
L 321.984 141.169394 
L 330.912 139.961009 
L 339.84 140.38111 
L 348.768 140.557853 
L 357.696 142.55346 
L 366.624 141.338761 
L 375.552 141.426317 
L 384.48 141.298067 
L 393.408 140.906806 
L 402.336 142.379577 
L 411.264 140.046116 
L 420.192 141.28594 
L 429.12 141.273938 
L 438.048 141.674896 
L 446.976 140.199506 
L 455.904 139.947183 
L 464.832 139.80423 
L 473.76 139.867079 
L 482.688 141.541214 
L 491.616 140.724753 
L 500.544 140.968099 
L 509.472 141.899129 
L 518.4 141.49693 
" style="fill:none;stroke:#1f77b4;stroke-linecap:square;stroke-width:1.5;"/>
   </g>
   <g id="line2d_30">
    <path clip-path="url(#p5f8292701e)" d="M 72 121.76248 
L 80.928 116.286855 
L 89.856 115.607505 
L 98.784 115.607863 
L 107.712 115.915282 
L 116.64 115.772535 
L 125.568 116.173889 
L 134.496 116.170235 
L 143.424 116.165016 
L 152.352 116.128009 
L 161.28 117.034041 
L 170.208 117.135547 
L 179.136 117.061538 
L 188.064 116.920161 
L 196.992 117.039914 
L 205.92 116.963072 
L 214.848 116.865314 
L 223.776 116.941899 
L 232.704 117.173555 
L 241.632 117.161355 
L 250.56 117.475869 
L 259.488 117.569072 
L 268.416 117.568241 
L 277.344 117.582056 
L 286.272 117.600412 
L 295.2 117.717154 
L 304.128 117.702026 
L 313.056 117.804213 
L 321.984 118.692837 
L 330.912 118.706676 
L 339.84 117.424293 
L 348.768 118.200095 
L 357.696 118.409418 
L 366.624 119.085405 
L 375.552 120.213546 
L 384.48 120.819227 
L 393.408 120.523124 
L 402.336 122.552748 
L 411.264 123.390226 
L 420.192 123.460977 
L 429.12 123.441764 
L 438.048 124.023311 
L 446.976 124.028791 
L 455.904 125.95578 
L 464.832 126.49246 
L 473.76 128.233226 
L 482.688 128.273294 
L 491.616 129.453083 
L 500.544 130.059605 
L 509.472 130.735837 
L 518.4 130.618124 
" style="fill:none;stroke:#ff7f0e;stroke-linecap:square;stroke-width:1.5;"/>
   </g>
   <g id="line2d_31">
    <path clip-path="url(#p5f8292701e)" d="M 72 151.774393 
L 80.928 152.760856 
L 89.856 153.451167 
L 98.784 154.443019 
L 107.712 155.107642 
L 116.64 156.104347 
L 125.568 157.30102 
L 134.496 157.947351 
L 143.424 158.602641 
L 152.352 159.033669 
L 161.28 160.108575 
L 170.208 160.732919 
L 179.136 162.052536 
L 188.064 163.18558 
L 196.992 163.58242 
L 205.92 164.354909 
L 214.848 165.109789 
L 223.776 166.160412 
L 232.704 166.567836 
L 241.632 166.928932 
L 250.56 167.787209 
L 259.488 168.072016 
L 268.416 168.8567 
L 277.344 169.709606 
L 286.272 170.61114 
L 295.2 171.460498 
L 304.128 172.370015 
L 313.056 173.178666 
L 321.984 173.612302 
L 330.912 174.685368 
L 339.84 175.238037 
L 348.768 176.060629 
L 357.696 176.425257 
L 366.624 176.50766 
L 375.552 176.795049 
L 384.48 177.244985 
L 393.408 177.973444 
L 402.336 179.049403 
L 411.264 179.168491 
L 420.192 179.585173 
L 429.12 179.817506 
L 438.048 180.116872 
L 446.976 180.451392 
L 455.904 180.905208 
L 464.832 180.990173 
L 473.76 181.21264 
L 482.688 181.521826 
L 491.616 181.872438 
L 500.544 182.398092 
L 509.472 182.96505 
L 518.4 183.17756 
" style="fill:none;stroke:#2ca02c;stroke-linecap:square;stroke-width:1.5;"/>
   </g>
   <g id="line2d_32">
    <path clip-path="url(#p5f8292701e)" d="M 72 146.817809 
L 80.928 144.545277 
L 89.856 141.861133 
L 98.784 143.811381 
L 107.712 143.958697 
L 116.64 147.302877 
L 125.568 146.106899 
L 134.496 144.368264 
L 143.424 144.04975 
L 152.352 141.888914 
L 161.28 142.002563 
L 170.208 141.841113 
L 179.136 141.393163 
L 188.064 141.934871 
L 196.992 143.335788 
L 205.92 143.367516 
L 214.848 145.402439 
L 223.776 144.605702 
L 232.704 143.793178 
L 241.632 140.931365 
L 250.56 140.0346 
L 259.488 139.134909 
L 268.416 138.164746 
L 277.344 137.268937 
L 286.272 135.296262 
L 295.2 135.326282 
L 304.128 135.381746 
L 313.056 136.505589 
L 321.984 135.516148 
L 330.912 134.59821 
L 339.84 134.696851 
L 348.768 134.677007 
L 357.696 131.451615 
L 366.624 130.557065 
L 375.552 126.139917 
L 384.48 128.680561 
L 393.408 128.684485 
L 402.336 130.001992 
L 411.264 129.891425 
L 420.192 129.895641 
L 429.12 131.31952 
L 438.048 130.20813 
L 446.976 130.339548 
L 455.904 129.233977 
L 464.832 129.319775 
L 473.76 129.228718 
L 482.688 129.228711 
L 491.616 129.229043 
L 500.544 130.684724 
L 509.472 129.45789 
L 518.4 129.591543 
" style="fill:none;stroke:#d62728;stroke-linecap:square;stroke-width:1.5;"/>
   </g>
   <g id="line2d_33">
    <path clip-path="url(#p5f8292701e)" d="M 72 145.181713 
L 80.928 137.262136 
L 89.856 133.433185 
L 98.784 128.153502 
L 107.712 121.527502 
L 116.64 121.506461 
L 125.568 118.696861 
L 134.496 119.280523 
L 143.424 118.980326 
L 152.352 119.522047 
L 161.28 119.655057 
L 170.208 119.151678 
L 179.136 118.903591 
L 188.064 118.1103 
L 196.992 118.228631 
L 205.92 118.741492 
L 214.848 118.391265 
L 223.776 118.323175 
L 232.704 118.327265 
L 241.632 120.973152 
L 250.56 121.137873 
L 259.488 121.205617 
L 268.416 122.376852 
L 277.344 124.574952 
L 286.272 124.934772 
L 295.2 125.310656 
L 304.128 127.201655 
L 313.056 127.236119 
L 321.984 127.248603 
L 330.912 127.386433 
L 339.84 127.380369 
L 348.768 127.53188 
L 357.696 127.532911 
L 366.624 128.163878 
L 375.552 128.264668 
L 384.48 128.321867 
L 393.408 128.426113 
L 402.336 129.936182 
L 411.264 130.361435 
L 420.192 130.60074 
L 429.12 131.10943 
L 438.048 131.101343 
L 446.976 131.124891 
L 455.904 132.584809 
L 464.832 132.434148 
L 473.76 134.040848 
L 482.688 135.406036 
L 491.616 135.412387 
L 500.544 135.66049 
L 509.472 135.666847 
L 518.4 135.775406 
" style="fill:none;stroke:#9467bd;stroke-linecap:square;stroke-width:1.5;"/>
   </g>
   <g id="line2d_34">
    <path clip-path="url(#p5f8292701e)" d="M 72 149.930417 
L 80.928 151.584464 
L 89.856 151.703254 
L 98.784 152.515229 
L 107.712 154.036354 
L 116.64 155.080948 
L 125.568 156.32381 
L 134.496 157.239995 
L 143.424 159.374301 
L 152.352 159.209144 
L 161.28 160.044108 
L 170.208 160.918139 
L 179.136 162.09824 
L 188.064 161.063667 
L 196.992 161.939055 
L 205.92 162.584881 
L 214.848 165.293114 
L 223.776 166.001131 
L 232.704 167.048033 
L 241.632 167.988809 
L 250.56 168.727184 
L 259.488 170.100004 
L 268.416 171.68531 
L 277.344 173.018225 
L 286.272 173.136614 
L 295.2 173.240118 
L 304.128 174.07559 
L 313.056 175.811563 
L 321.984 176.772103 
L 330.912 176.797293 
L 339.84 178.652561 
L 348.768 179.055639 
L 357.696 180.036613 
L 366.624 180.839363 
L 375.552 183.398128 
L 384.48 184.92186 
L 393.408 185.908834 
L 402.336 187.979969 
L 411.264 190.14229 
L 420.192 190.963341 
L 429.12 191.196605 
L 438.048 192.872864 
L 446.976 194.656908 
L 455.904 196.090089 
L 464.832 198.285715 
L 473.76 199.320174 
L 482.688 202.235667 
L 491.616 201.97254 
L 500.544 205.2238 
L 509.472 204.812766 
L 518.4 209.042371 
" style="fill:none;stroke:#8c564b;stroke-linecap:square;stroke-width:1.5;"/>
   </g>
   <g id="line2d_35">
    <path clip-path="url(#p5f8292701e)" d="M 72 146.486146 
L 80.928 146.888369 
L 89.856 147.263071 
L 98.784 147.625137 
L 107.712 147.764294 
L 116.64 147.982333 
L 125.568 148.032865 
L 134.496 148.159832 
L 143.424 148.265256 
L 152.352 148.374155 
L 161.28 148.385861 
L 170.208 148.528484 
L 179.136 148.544821 
L 188.064 148.619286 
L 196.992 148.641637 
L 205.92 148.595362 
L 214.848 148.629784 
L 223.776 148.684267 
L 232.704 148.696953 
L 241.632 148.744721 
L 250.56 148.717651 
L 259.488 148.773113 
L 268.416 148.774487 
L 277.344 148.786874 
L 286.272 148.808657 
L 295.2 148.812118 
L 304.128 148.853223 
L 313.056 148.869297 
L 321.984 148.92098 
L 330.912 148.946587 
L 339.84 148.980569 
L 348.768 149.00918 
L 357.696 149.028963 
L 366.624 149.059136 
L 375.552 149.07891 
L 384.48 149.082419 
L 393.408 149.10012 
L 402.336 149.119135 
L 411.264 149.143267 
L 420.192 149.145413 
L 429.12 149.164978 
L 438.048 149.165201 
L 446.976 149.184682 
L 455.904 149.186071 
L 464.832 149.197795 
L 473.76 149.195292 
L 482.688 149.18703 
L 491.616 149.201361 
L 500.544 149.206323 
L 509.472 149.194169 
L 518.4 149.188634 
" style="fill:none;stroke:#e377c2;stroke-linecap:square;stroke-width:1.5;"/>
   </g>
   <g id="patch_3">
    <path d="M 72 384.48 
L 72 51.84 
" style="fill:none;stroke:#000000;stroke-linecap:square;stroke-linejoin:miter;stroke-width:0.8;"/>
   </g>
   <g id="patch_4">
    <path d="M 518.4 384.48 
L 518.4 51.84 
" style="fill:none;stroke:#000000;stroke-linecap:square;stroke-linejoin:miter;stroke-width:0.8;"/>
   </g>
   <g id="patch_5">
    <path d="M 72 384.48 
L 518.4 384.48 
" style="fill:none;stroke:#000000;stroke-linecap:square;stroke-linejoin:miter;stroke-width:0.8;"/>
   </g>
   <g id="patch_6">
    <path d="M 72 51.84 
L 518.4 51.84 
" style="fill:none;stroke:#000000;stroke-linecap:square;stroke-linejoin:miter;stroke-width:0.8;"/>
   </g>
   <g id="legend_1">
    <g id="patch_7">
     <path d="M 79 379.48 
L 165.804688 379.48 
Q 167.804688 379.48 167.804688 377.48 
L 167.804688 275.733125 
Q 167.804688 273.733125 165.804688 273.733125 
L 79 273.733125 
Q 77 273.733125 77 275.733125 
L 77 377.48 
Q 77 379.48 79 379.48 
z
" style="fill:#ffffff;opacity:0.8;stroke:#cccccc;stroke-linejoin:miter;"/>
    </g>
    <g id="line2d_36">
     <path d="M 81 281.831563 
L 101 281.831563 
" style="fill:none;stroke:#1f77b4;stroke-linecap:square;stroke-width:1.5;"/>
    </g>
    <g id="line2d_37"/>
    <g id="text_17">
     <!-- Constant -->
     <defs>
      <path d="M 64.40625 67.28125 
L 64.40625 56.890625 
Q 59.421875 61.53125 53.78125 63.8125 
Q 48.140625 66.109375 41.796875 66.109375 
Q 29.296875 66.109375 22.65625 58.46875 
Q 16.015625 50.828125 16.015625 36.375 
Q 16.015625 21.96875 22.65625 14.328125 
Q 29.296875 6.6875 41.796875 6.6875 
Q 48.140625 6.6875 53.78125 8.984375 
Q 59.421875 11.28125 64.40625 15.921875 
L 64.40625 5.609375 
Q 59.234375 2.09375 53.4375 0.328125 
Q 47.65625 -1.421875 41.21875 -1.421875 
Q 24.65625 -1.421875 15.125 8.703125 
Q 5.609375 18.84375 5.609375 36.375 
Q 5.609375 53.953125 15.125 64.078125 
Q 24.65625 74.21875 41.21875 74.21875 
Q 47.75 74.21875 53.53125 72.484375 
Q 59.328125 70.75 64.40625 67.28125 
z
" id="DejaVuSans-67"/>
      <path d="M 44.28125 53.078125 
L 44.28125 44.578125 
Q 40.484375 46.53125 36.375 47.5 
Q 32.28125 48.484375 27.875 48.484375 
Q 21.1875 48.484375 17.84375 46.4375 
Q 14.5 44.390625 14.5 40.28125 
Q 14.5 37.15625 16.890625 35.375 
Q 19.28125 33.59375 26.515625 31.984375 
L 29.59375 31.296875 
Q 39.15625 29.25 43.1875 25.515625 
Q 47.21875 21.78125 47.21875 15.09375 
Q 47.21875 7.46875 41.1875 3.015625 
Q 35.15625 -1.421875 24.609375 -1.421875 
Q 20.21875 -1.421875 15.453125 -0.5625 
Q 10.6875 0.296875 5.421875 2 
L 5.421875 11.28125 
Q 10.40625 8.6875 15.234375 7.390625 
Q 20.0625 6.109375 24.8125 6.109375 
Q 31.15625 6.109375 34.5625 8.28125 
Q 37.984375 10.453125 37.984375 14.40625 
Q 37.984375 18.0625 35.515625 20.015625 
Q 33.0625 21.96875 24.703125 23.78125 
L 21.578125 24.515625 
Q 13.234375 26.265625 9.515625 29.90625 
Q 5.8125 33.546875 5.8125 39.890625 
Q 5.8125 47.609375 11.28125 51.796875 
Q 16.75 56 26.8125 56 
Q 31.78125 56 36.171875 55.265625 
Q 40.578125 54.546875 44.28125 53.078125 
z
" id="DejaVuSans-115"/>
     </defs>
     <g transform="translate(109 285.331563)scale(0.1 -0.1)">
      <use xlink:href="#DejaVuSans-67"/>
      <use x="69.824219" xlink:href="#DejaVuSans-111"/>
      <use x="131.005859" xlink:href="#DejaVuSans-110"/>
      <use x="194.384766" xlink:href="#DejaVuSans-115"/>
      <use x="246.484375" xlink:href="#DejaVuSans-116"/>
      <use x="285.693359" xlink:href="#DejaVuSans-97"/>
      <use x="346.972656" xlink:href="#DejaVuSans-110"/>
      <use x="410.351562" xlink:href="#DejaVuSans-116"/>
     </g>
    </g>
    <g id="line2d_38">
     <path d="M 81 296.509688 
L 101 296.509688 
" style="fill:none;stroke:#ff7f0e;stroke-linecap:square;stroke-width:1.5;"/>
    </g>
    <g id="line2d_39"/>
    <g id="text_18">
     <!-- RBF -->
     <defs>
      <path d="M 44.390625 34.1875 
Q 47.5625 33.109375 50.5625 29.59375 
Q 53.5625 26.078125 56.59375 19.921875 
L 66.609375 0 
L 56 0 
L 46.6875 18.703125 
Q 43.0625 26.03125 39.671875 28.421875 
Q 36.28125 30.8125 30.421875 30.8125 
L 19.671875 30.8125 
L 19.671875 0 
L 9.8125 0 
L 9.8125 72.90625 
L 32.078125 72.90625 
Q 44.578125 72.90625 50.734375 67.671875 
Q 56.890625 62.453125 56.890625 51.90625 
Q 56.890625 45.015625 53.6875 40.46875 
Q 50.484375 35.9375 44.390625 34.1875 
z
M 19.671875 64.796875 
L 19.671875 38.921875 
L 32.078125 38.921875 
Q 39.203125 38.921875 42.84375 42.21875 
Q 46.484375 45.515625 46.484375 51.90625 
Q 46.484375 58.296875 42.84375 61.546875 
Q 39.203125 64.796875 32.078125 64.796875 
z
" id="DejaVuSans-82"/>
      <path d="M 19.671875 34.8125 
L 19.671875 8.109375 
L 35.5 8.109375 
Q 43.453125 8.109375 47.28125 11.40625 
Q 51.125 14.703125 51.125 21.484375 
Q 51.125 28.328125 47.28125 31.5625 
Q 43.453125 34.8125 35.5 34.8125 
z
M 19.671875 64.796875 
L 19.671875 42.828125 
L 34.28125 42.828125 
Q 41.5 42.828125 45.03125 45.53125 
Q 48.578125 48.25 48.578125 53.8125 
Q 48.578125 59.328125 45.03125 62.0625 
Q 41.5 64.796875 34.28125 64.796875 
z
M 9.8125 72.90625 
L 35.015625 72.90625 
Q 46.296875 72.90625 52.390625 68.21875 
Q 58.5 63.53125 58.5 54.890625 
Q 58.5 48.1875 55.375 44.234375 
Q 52.25 40.28125 46.1875 39.3125 
Q 53.46875 37.75 57.5 32.78125 
Q 61.53125 27.828125 61.53125 20.40625 
Q 61.53125 10.640625 54.890625 5.3125 
Q 48.25 0 35.984375 0 
L 9.8125 0 
z
" id="DejaVuSans-66"/>
      <path d="M 9.8125 72.90625 
L 51.703125 72.90625 
L 51.703125 64.59375 
L 19.671875 64.59375 
L 19.671875 43.109375 
L 48.578125 43.109375 
L 48.578125 34.8125 
L 19.671875 34.8125 
L 19.671875 0 
L 9.8125 0 
z
" id="DejaVuSans-70"/>
     </defs>
     <g transform="translate(109 300.009688)scale(0.1 -0.1)">
      <use xlink:href="#DejaVuSans-82"/>
      <use x="69.482422" xlink:href="#DejaVuSans-66"/>
      <use x="138.085938" xlink:href="#DejaVuSans-70"/>
     </g>
    </g>
    <g id="line2d_40">
     <path d="M 81 311.187813 
L 101 311.187813 
" style="fill:none;stroke:#2ca02c;stroke-linecap:square;stroke-width:1.5;"/>
    </g>
    <g id="line2d_41"/>
    <g id="text_19">
     <!-- Matrn-1/2 -->
     <defs>
      <path d="M 9.8125 72.90625 
L 24.515625 72.90625 
L 43.109375 23.296875 
L 61.8125 72.90625 
L 76.515625 72.90625 
L 76.515625 0 
L 66.890625 0 
L 66.890625 64.015625 
L 48.09375 14.015625 
L 38.1875 14.015625 
L 19.390625 64.015625 
L 19.390625 0 
L 9.8125 0 
z
" id="DejaVuSans-77"/>
      <path d="M 56.203125 29.59375 
L 56.203125 25.203125 
L 14.890625 25.203125 
Q 15.484375 15.921875 20.484375 11.0625 
Q 25.484375 6.203125 34.421875 6.203125 
Q 39.59375 6.203125 44.453125 7.46875 
Q 49.3125 8.734375 54.109375 11.28125 
L 54.109375 2.78125 
Q 49.265625 0.734375 44.1875 -0.34375 
Q 39.109375 -1.421875 33.890625 -1.421875 
Q 20.796875 -1.421875 13.15625 6.1875 
Q 5.515625 13.8125 5.515625 26.8125 
Q 5.515625 40.234375 12.765625 48.109375 
Q 20.015625 56 32.328125 56 
Q 43.359375 56 49.78125 48.890625 
Q 56.203125 41.796875 56.203125 29.59375 
z
M 47.21875 32.234375 
Q 47.125 39.59375 43.09375 43.984375 
Q 39.0625 48.390625 32.421875 48.390625 
Q 24.90625 48.390625 20.390625 44.140625 
Q 15.875 39.890625 15.1875 32.171875 
z
M 38.53125 79.984375 
L 48.25 79.984375 
L 32.34375 61.625 
L 24.859375 61.625 
z
" id="DejaVuSans-233"/>
      <path d="M 4.890625 31.390625 
L 31.203125 31.390625 
L 31.203125 23.390625 
L 4.890625 23.390625 
z
" id="DejaVuSans-45"/>
      <path d="M 25.390625 72.90625 
L 33.6875 72.90625 
L 8.296875 -9.28125 
L 0 -9.28125 
z
" id="DejaVuSans-47"/>
     </defs>
     <g transform="translate(109 314.687813)scale(0.1 -0.1)">
      <use xlink:href="#DejaVuSans-77"/>
      <use x="86.279297" xlink:href="#DejaVuSans-97"/>
      <use x="147.558594" xlink:href="#DejaVuSans-116"/>
      <use x="186.767578" xlink:href="#DejaVuSans-233"/>
      <use x="248.291016" xlink:href="#DejaVuSans-114"/>
      <use x="287.654297" xlink:href="#DejaVuSans-110"/>
      <use x="351.033203" xlink:href="#DejaVuSans-45"/>
      <use x="387.117188" xlink:href="#DejaVuSans-49"/>
      <use x="450.740234" xlink:href="#DejaVuSans-47"/>
      <use x="484.431641" xlink:href="#DejaVuSans-50"/>
     </g>
    </g>
    <g id="line2d_42">
     <path d="M 81 325.865938 
L 101 325.865938 
" style="fill:none;stroke:#d62728;stroke-linecap:square;stroke-width:1.5;"/>
    </g>
    <g id="line2d_43"/>
    <g id="text_20">
     <!-- Matrn-3/2 -->
     <g transform="translate(109 329.365938)scale(0.1 -0.1)">
      <use xlink:href="#DejaVuSans-77"/>
      <use x="86.279297" xlink:href="#DejaVuSans-97"/>
      <use x="147.558594" xlink:href="#DejaVuSans-116"/>
      <use x="186.767578" xlink:href="#DejaVuSans-233"/>
      <use x="248.291016" xlink:href="#DejaVuSans-114"/>
      <use x="287.654297" xlink:href="#DejaVuSans-110"/>
      <use x="351.033203" xlink:href="#DejaVuSans-45"/>
      <use x="387.117188" xlink:href="#DejaVuSans-51"/>
      <use x="450.740234" xlink:href="#DejaVuSans-47"/>
      <use x="484.431641" xlink:href="#DejaVuSans-50"/>
     </g>
    </g>
    <g id="line2d_44">
     <path d="M 81 340.544062 
L 101 340.544062 
" style="fill:none;stroke:#9467bd;stroke-linecap:square;stroke-width:1.5;"/>
    </g>
    <g id="line2d_45"/>
    <g id="text_21">
     <!-- Matrn-5/2 -->
     <g transform="translate(109 344.044062)scale(0.1 -0.1)">
      <use xlink:href="#DejaVuSans-77"/>
      <use x="86.279297" xlink:href="#DejaVuSans-97"/>
      <use x="147.558594" xlink:href="#DejaVuSans-116"/>
      <use x="186.767578" xlink:href="#DejaVuSans-233"/>
      <use x="248.291016" xlink:href="#DejaVuSans-114"/>
      <use x="287.654297" xlink:href="#DejaVuSans-110"/>
      <use x="351.033203" xlink:href="#DejaVuSans-45"/>
      <use x="387.117188" xlink:href="#DejaVuSans-53"/>
      <use x="450.740234" xlink:href="#DejaVuSans-47"/>
      <use x="484.431641" xlink:href="#DejaVuSans-50"/>
     </g>
    </g>
    <g id="line2d_46">
     <path d="M 81 355.222188 
L 101 355.222188 
" style="fill:none;stroke:#8c564b;stroke-linecap:square;stroke-width:1.5;"/>
    </g>
    <g id="line2d_47"/>
    <g id="text_22">
     <!-- RQ -->
     <defs>
      <path d="M 39.40625 66.21875 
Q 28.65625 66.21875 22.328125 58.203125 
Q 16.015625 50.203125 16.015625 36.375 
Q 16.015625 22.609375 22.328125 14.59375 
Q 28.65625 6.59375 39.40625 6.59375 
Q 50.140625 6.59375 56.421875 14.59375 
Q 62.703125 22.609375 62.703125 36.375 
Q 62.703125 50.203125 56.421875 58.203125 
Q 50.140625 66.21875 39.40625 66.21875 
z
M 53.21875 1.3125 
L 66.21875 -12.890625 
L 54.296875 -12.890625 
L 43.5 -1.21875 
Q 41.890625 -1.3125 41.03125 -1.359375 
Q 40.1875 -1.421875 39.40625 -1.421875 
Q 24.03125 -1.421875 14.8125 8.859375 
Q 5.609375 19.140625 5.609375 36.375 
Q 5.609375 53.65625 14.8125 63.9375 
Q 24.03125 74.21875 39.40625 74.21875 
Q 54.734375 74.21875 63.90625 63.9375 
Q 73.09375 53.65625 73.09375 36.375 
Q 73.09375 23.6875 67.984375 14.640625 
Q 62.890625 5.609375 53.21875 1.3125 
z
" id="DejaVuSans-81"/>
     </defs>
     <g transform="translate(109 358.722188)scale(0.1 -0.1)">
      <use xlink:href="#DejaVuSans-82"/>
      <use x="69.482422" xlink:href="#DejaVuSans-81"/>
     </g>
    </g>
    <g id="line2d_48">
     <path d="M 81 369.900313 
L 101 369.900313 
" style="fill:none;stroke:#e377c2;stroke-linecap:square;stroke-width:1.5;"/>
    </g>
    <g id="line2d_49"/>
    <g id="text_23">
     <!-- Dot Prod. -->
     <defs>
      <path d="M 19.671875 64.796875 
L 19.671875 8.109375 
L 31.59375 8.109375 
Q 46.6875 8.109375 53.6875 14.9375 
Q 60.6875 21.78125 60.6875 36.53125 
Q 60.6875 51.171875 53.6875 57.984375 
Q 46.6875 64.796875 31.59375 64.796875 
z
M 9.8125 72.90625 
L 30.078125 72.90625 
Q 51.265625 72.90625 61.171875 64.09375 
Q 71.09375 55.28125 71.09375 36.53125 
Q 71.09375 17.671875 61.125 8.828125 
Q 51.171875 0 30.078125 0 
L 9.8125 0 
z
" id="DejaVuSans-68"/>
      <path d="M 19.671875 64.796875 
L 19.671875 37.40625 
L 32.078125 37.40625 
Q 38.96875 37.40625 42.71875 40.96875 
Q 46.484375 44.53125 46.484375 51.125 
Q 46.484375 57.671875 42.71875 61.234375 
Q 38.96875 64.796875 32.078125 64.796875 
z
M 9.8125 72.90625 
L 32.078125 72.90625 
Q 44.34375 72.90625 50.609375 67.359375 
Q 56.890625 61.8125 56.890625 51.125 
Q 56.890625 40.328125 50.609375 34.8125 
Q 44.34375 29.296875 32.078125 29.296875 
L 19.671875 29.296875 
L 19.671875 0 
L 9.8125 0 
z
" id="DejaVuSans-80"/>
      <path d="M 10.6875 12.40625 
L 21 12.40625 
L 21 0 
L 10.6875 0 
z
" id="DejaVuSans-46"/>
     </defs>
     <g transform="translate(109 373.400313)scale(0.1 -0.1)">
      <use xlink:href="#DejaVuSans-68"/>
      <use x="77.001953" xlink:href="#DejaVuSans-111"/>
      <use x="138.183594" xlink:href="#DejaVuSans-116"/>
      <use x="177.392578" xlink:href="#DejaVuSans-32"/>
      <use x="209.179688" xlink:href="#DejaVuSans-80"/>
      <use x="267.732422" xlink:href="#DejaVuSans-114"/>
      <use x="306.595703" xlink:href="#DejaVuSans-111"/>
      <use x="367.777344" xlink:href="#DejaVuSans-100"/>
      <use x="431.253906" xlink:href="#DejaVuSans-46"/>
     </g>
    </g>
   </g>
  </g>
 </g>
 <defs>
  <clipPath id="p5f8292701e">
   <rect height="332.64" width="446.4" x="72" y="51.84"/>
  </clipPath>
 </defs>
</svg>
