<?xml version="1.0" encoding="utf-8" standalone="no"?>
<!DOCTYPE svg PUBLIC "-//W3C//DTD SVG 1.1//EN"
  "http://www.w3.org/Graphics/SVG/1.1/DTD/svg11.dtd">
<!-- Created with matplotlib (https://matplotlib.org/) -->
<svg height="432pt" version="1.1" viewBox="0 0 576 432" width="576pt" xmlns="http://www.w3.org/2000/svg" xmlns:xlink="http://www.w3.org/1999/xlink">
 <defs>
  <style type="text/css">
*{stroke-linecap:butt;stroke-linejoin:round;}
  </style>
 </defs>
 <g id="figure_1">
  <g id="patch_1">
   <path d="M 0 432 
L 576 432 
L 576 0 
L 0 0 
z
" style="fill:#ffffff;"/>
  </g>
  <g id="axes_1">
   <g id="patch_2">
    <path d="M 72 384.48 
L 518.4 384.48 
L 518.4 51.84 
L 72 51.84 
z
" style="fill:#ffffff;"/>
   </g>
   <g id="PolyCollection_1">
    <path clip-path="url(#p72c1c1fe87)" d="M 80.928 231.93115 
L 80.928 32.538925 
L 80.928 231.93115 
L 80.928 231.93115 
z
" style="fill:#1f77b4;fill-opacity:0.3;"/>
    <path clip-path="url(#p72c1c1fe87)" d="M 98.784 210.367439 
L 98.784 -25.226943 
L 98.784 210.367439 
L 98.784 210.367439 
z
" style="fill:#1f77b4;fill-opacity:0.3;"/>
    <path clip-path="url(#p72c1c1fe87)" d="M 116.64 339.385586 
L 116.64 255.67786 
L 125.568 -3.871522 
L 134.496 347.398717 
L 143.424 -18.316011 
L 143.424 -18.316011 
L 143.424 -18.316011 
L 134.496 347.398717 
L 125.568 -3.871522 
L 116.64 339.385586 
z
" style="fill:#1f77b4;fill-opacity:0.3;"/>
    <path clip-path="url(#p72c1c1fe87)" d="M 161.28 -23.381866 
L 161.28 -23.381866 
L 170.208 -28.069138 
L 179.136 -35.554827 
L 188.064 211.929407 
L 196.992 -35.273411 
L 205.92 215.157647 
L 205.92 215.157647 
L 205.92 215.157647 
L 196.992 -35.273411 
L 188.064 211.929407 
L 179.136 -35.554827 
L 170.208 -28.069138 
L 161.28 -23.381866 
z
" style="fill:#1f77b4;fill-opacity:0.3;"/>
    <path clip-path="url(#p72c1c1fe87)" d="M 232.704 194.529342 
L 232.704 194.529342 
L 241.632 -42.172471 
L 250.56 355.446696 
L 259.488 355.86948 
L 268.416 -42.628343 
L 277.344 -45.863342 
L 286.272 357.038723 
L 295.2 357.396593 
L 304.128 357.75129 
L 313.056 358.079937 
L 321.984 -50.049662 
L 330.912 -14.294362 
L 339.84 -36.552603 
L 348.768 359.333653 
L 348.768 359.333653 
L 348.768 359.333653 
L 339.84 -36.552603 
L 330.912 -14.294362 
L 321.984 -50.049662 
L 313.056 358.079937 
L 304.128 357.75129 
L 295.2 357.396593 
L 286.272 357.038723 
L 277.344 -45.863342 
L 268.416 -42.628343 
L 259.488 355.86948 
L 250.56 355.446696 
L 241.632 -42.172471 
L 232.704 194.529342 
z
" style="fill:#1f77b4;fill-opacity:0.3;"/>
    <path clip-path="url(#p72c1c1fe87)" d="M 366.624 -38.958267 
L 366.624 -38.958267 
L 375.552 -40.328972 
L 375.552 -40.328972 
L 375.552 -40.328972 
L 366.624 -38.958267 
z
" style="fill:#1f77b4;fill-opacity:0.3;"/>
    <path clip-path="url(#p72c1c1fe87)" d="M 393.408 -38.710571 
L 393.408 -38.710571 
L 402.336 360.979392 
L 411.264 361.264126 
L 420.192 -48.751 
L 429.12 -45.26721 
L 438.048 -48.546874 
L 446.976 362.129558 
L 446.976 362.129558 
L 446.976 362.129558 
L 438.048 -48.546874 
L 429.12 -45.26721 
L 420.192 -48.751 
L 411.264 361.264126 
L 402.336 360.979392 
L 393.408 -38.710571 
z
" style="fill:#1f77b4;fill-opacity:0.3;"/>
    <path clip-path="url(#p72c1c1fe87)" d="M 473.76 362.871601 
L 473.76 362.871601 
L 482.688 -40.987017 
L 491.616 -45.201054 
L 500.544 -41.207879 
L 509.472 -40.223082 
L 518.4 363.847604 
L 518.4 363.847604 
L 518.4 363.847604 
L 509.472 -40.223082 
L 500.544 -41.207879 
L 491.616 -45.201054 
L 482.688 -40.987017 
L 473.76 362.871601 
z
" style="fill:#1f77b4;fill-opacity:0.3;"/>
   </g>
   <g id="PolyCollection_2">
    <path clip-path="url(#p72c1c1fe87)" d="M 72 158.984564 
L 72 114.131224 
L 80.928 81.753163 
L 89.856 75.059495 
L 98.784 72.516868 
L 107.712 70.986702 
L 116.64 79.240923 
L 125.568 85.083565 
L 134.496 78.649984 
L 143.424 71.094126 
L 152.352 72.15412 
L 161.28 85.083425 
L 170.208 73.612041 
L 179.136 68.597181 
L 188.064 69.273584 
L 196.992 71.055915 
L 205.92 85.083425 
L 214.848 77.92977 
L 223.776 74.823901 
L 232.704 78.090826 
L 241.632 85.083425 
L 250.56 70.303333 
L 259.488 85.083425 
L 268.416 73.347299 
L 277.344 85.083425 
L 286.272 74.881766 
L 295.2 73.573678 
L 304.128 80.671383 
L 313.056 72.328998 
L 321.984 78.25024 
L 330.912 85.083425 
L 339.84 76.514062 
L 348.768 85.083425 
L 357.696 85.083425 
L 366.624 85.083425 
L 375.552 85.083425 
L 384.48 84.606284 
L 393.408 85.083425 
L 402.336 85.083528 
L 411.264 85.083865 
L 420.192 85.083865 
L 429.12 73.534241 
L 438.048 85.083866 
L 446.976 85.083866 
L 455.904 85.083866 
L 464.832 85.083866 
L 473.76 85.084114 
L 482.688 85.084475 
L 491.616 85.084475 
L 500.544 83.409009 
L 509.472 85.084478 
L 518.4 75.864206 
L 518.4 97.41145 
L 518.4 97.41145 
L 509.472 85.112979 
L 500.544 87.352136 
L 491.616 85.112976 
L 482.688 85.112976 
L 473.76 85.11291 
L 464.832 85.112846 
L 455.904 85.112846 
L 446.976 85.112846 
L 438.048 85.112846 
L 429.12 100.516279 
L 420.192 85.112846 
L 411.264 85.112846 
L 402.336 85.112765 
L 393.408 85.112748 
L 384.48 85.754337 
L 375.552 85.112748 
L 366.624 85.112748 
L 357.696 85.112748 
L 348.768 85.112748 
L 339.84 97.728497 
L 330.912 85.112748 
L 321.984 94.229119 
L 313.056 107.218527 
L 304.128 91.000926 
L 295.2 100.463058 
L 286.272 98.718446 
L 277.344 85.112748 
L 268.416 102.329075 
L 259.488 85.112748 
L 250.56 107.797507 
L 241.632 85.112748 
L 232.704 94.440686 
L 223.776 100.446725 
L 214.848 94.655426 
L 205.92 85.112748 
L 196.992 120.435511 
L 188.064 114.05338 
L 179.136 121.646904 
L 170.208 103.000865 
L 161.28 85.112748 
L 152.352 104.679728 
L 143.424 111.774515 
L 134.496 97.743492 
L 125.568 85.112193 
L 116.64 94.885381 
L 107.712 123.830325 
L 98.784 119.237797 
L 89.856 135.256998 
L 80.928 138.596663 
L 72 158.984564 
z
" style="fill:#ff7f0e;fill-opacity:0.3;"/>
   </g>
   <g id="PolyCollection_3">
    <path clip-path="url(#p72c1c1fe87)" d="M 72 120.243777 
L 72 100.2574 
L 80.928 97.224058 
L 89.856 103.365751 
L 98.784 107.666502 
L 107.712 110.908317 
L 116.64 113.569804 
L 125.568 115.781902 
L 134.496 117.608073 
L 143.424 119.552986 
L 152.352 121.038793 
L 161.28 122.482183 
L 170.208 123.837884 
L 179.136 125.453381 
L 188.064 126.692071 
L 196.992 127.925162 
L 205.92 129.031653 
L 214.848 130.074767 
L 223.776 131.045891 
L 232.704 132.018799 
L 241.632 132.953951 
L 250.56 133.803834 
L 259.488 134.648009 
L 268.416 135.494783 
L 277.344 136.310887 
L 286.272 137.02372 
L 295.2 137.70594 
L 304.128 138.377615 
L 313.056 139.02072 
L 321.984 139.656567 
L 330.912 140.286912 
L 339.84 140.913357 
L 348.768 141.48805 
L 357.696 142.060303 
L 366.624 142.600641 
L 375.552 143.139619 
L 384.48 143.608743 
L 393.408 144.074411 
L 402.336 144.53752 
L 411.264 144.999067 
L 420.192 145.382337 
L 429.12 145.760271 
L 438.048 146.132312 
L 446.976 146.499973 
L 455.904 146.861515 
L 464.832 147.219203 
L 473.76 147.57327 
L 482.688 147.924158 
L 491.616 148.259938 
L 500.544 148.588936 
L 509.472 148.911869 
L 518.4 149.232244 
L 518.4 162.682184 
L 518.4 162.682184 
L 509.472 162.438902 
L 500.544 162.192555 
L 491.616 161.938648 
L 482.688 161.675369 
L 473.76 161.387703 
L 464.832 161.096797 
L 455.904 160.802397 
L 446.976 160.504346 
L 438.048 160.199317 
L 429.12 159.890104 
L 420.192 159.574832 
L 411.264 159.25481 
L 402.336 158.943617 
L 393.408 158.625414 
L 384.48 158.300174 
L 375.552 157.967769 
L 366.624 157.635603 
L 357.696 157.294945 
L 348.768 156.945148 
L 339.84 156.586682 
L 330.912 156.168951 
L 321.984 155.745044 
L 313.056 155.31436 
L 304.128 154.876175 
L 295.2 154.404497 
L 286.272 153.925405 
L 277.344 153.410212 
L 268.416 152.895618 
L 259.488 152.306732 
L 250.56 151.697531 
L 241.632 151.054354 
L 232.704 150.424668 
L 223.776 149.704526 
L 214.848 148.955475 
L 205.92 148.144294 
L 196.992 147.297861 
L 188.064 146.313602 
L 179.136 145.301028 
L 170.208 144.387916 
L 161.28 142.983767 
L 152.352 141.402867 
L 143.424 139.709388 
L 134.496 138.012571 
L 125.568 135.890988 
L 116.64 133.511315 
L 107.712 130.32476 
L 98.784 126.667642 
L 89.856 122.434742 
L 80.928 115.217321 
L 72 120.243777 
z
" style="fill:#2ca02c;fill-opacity:0.3;"/>
   </g>
   <g id="PolyCollection_4">
    <path clip-path="url(#p72c1c1fe87)" d="M 72 137.444196 
L 72 99.868011 
L 80.928 90.864686 
L 89.856 94.749211 
L 98.784 98.565663 
L 107.712 100.359979 
L 116.64 101.192023 
L 125.568 102.974167 
L 134.496 103.113871 
L 143.424 100.684527 
L 152.352 101.12278 
L 161.28 98.689053 
L 170.208 99.267105 
L 179.136 100.107457 
L 188.064 98.751949 
L 196.992 94.672608 
L 205.92 91.87207 
L 214.848 83.031159 
L 223.776 81.783643 
L 232.704 79.977139 
L 241.632 80.138827 
L 250.56 77.780926 
L 259.488 78.462317 
L 268.416 77.622428 
L 277.344 78.377435 
L 286.272 78.730105 
L 295.2 79.053737 
L 304.128 78.493037 
L 313.056 78.831311 
L 321.984 79.27509 
L 330.912 80.409015 
L 339.84 79.374263 
L 348.768 81.091445 
L 357.696 77.729089 
L 366.624 78.047297 
L 375.552 77.950097 
L 384.48 78.313064 
L 393.408 78.211169 
L 402.336 78.203922 
L 411.264 78.734912 
L 420.192 77.952812 
L 429.12 79.493189 
L 438.048 78.144342 
L 446.976 78.283994 
L 455.904 77.754506 
L 464.832 77.794746 
L 473.76 78.216288 
L 482.688 78.042998 
L 491.616 78.269137 
L 500.544 78.269935 
L 509.472 77.46557 
L 518.4 77.325933 
L 518.4 105.747604 
L 518.4 105.747604 
L 509.472 103.732441 
L 500.544 97.658003 
L 491.616 98.285705 
L 482.688 102.538044 
L 473.76 100.031746 
L 464.832 108.44499 
L 455.904 102.735291 
L 446.976 100.401392 
L 438.048 107.639285 
L 429.12 96.298721 
L 420.192 103.254285 
L 411.264 107.014298 
L 402.336 105.546903 
L 393.408 105.58095 
L 384.48 105.09231 
L 375.552 101.575643 
L 366.624 102.79801 
L 357.696 106.612892 
L 348.768 118.995177 
L 339.84 116.069379 
L 330.912 114.20211 
L 321.984 110.528446 
L 313.056 109.169571 
L 304.128 105.624207 
L 295.2 108.171518 
L 286.272 100.998937 
L 277.344 106.536924 
L 268.416 104.291496 
L 259.488 108.68495 
L 250.56 112.384218 
L 241.632 114.21095 
L 232.704 112.178773 
L 223.776 115.832411 
L 214.848 120.241665 
L 205.92 128.138151 
L 196.992 127.980082 
L 188.064 129.57218 
L 179.136 131.530726 
L 170.208 131.888338 
L 161.28 134.219347 
L 152.352 137.07696 
L 143.424 138.670903 
L 134.496 141.173482 
L 125.568 142.192299 
L 116.64 140.558854 
L 107.712 138.75031 
L 98.784 136.384191 
L 89.856 131.160075 
L 80.928 119.021127 
L 72 137.444196 
z
" style="fill:#d62728;fill-opacity:0.3;"/>
   </g>
   <g id="PolyCollection_5">
    <path clip-path="url(#p72c1c1fe87)" d="M 72 144.235037 
L 72 107.761477 
L 80.928 89.462096 
L 89.856 95.692624 
L 98.784 101.485284 
L 107.712 102.858577 
L 116.64 102.164101 
L 125.568 98.966139 
L 134.496 100.080327 
L 143.424 84.086319 
L 152.352 76.000374 
L 161.28 76.686361 
L 170.208 75.983647 
L 179.136 77.126645 
L 188.064 76.3277 
L 196.992 75.86942 
L 205.92 76.226953 
L 214.848 77.281831 
L 223.776 78.649563 
L 232.704 77.208266 
L 241.632 77.663289 
L 250.56 76.986782 
L 259.488 78.327022 
L 268.416 76.775596 
L 277.344 78.695434 
L 286.272 78.681537 
L 295.2 78.416473 
L 304.128 77.08999 
L 313.056 75.547799 
L 321.984 76.025485 
L 330.912 78.604433 
L 339.84 81.13391 
L 348.768 80.020705 
L 357.696 76.471633 
L 366.624 78.122667 
L 375.552 83.927928 
L 384.48 80.545175 
L 393.408 76.84279 
L 402.336 76.769391 
L 411.264 80.231922 
L 420.192 80.530706 
L 429.12 79.209899 
L 438.048 83.403974 
L 446.976 80.331984 
L 455.904 80.458831 
L 464.832 85.086964 
L 473.76 84.100675 
L 482.688 85.086965 
L 491.616 85.086965 
L 500.544 82.4189 
L 509.472 76.320269 
L 518.4 80.558482 
L 518.4 91.178734 
L 518.4 91.178734 
L 509.472 102.468592 
L 500.544 88.698166 
L 491.616 85.132129 
L 482.688 85.132129 
L 473.76 86.455758 
L 464.832 85.132129 
L 455.904 91.311606 
L 446.976 91.479256 
L 438.048 87.38471 
L 429.12 96.571373 
L 420.192 91.780609 
L 411.264 91.612662 
L 402.336 103.573032 
L 393.408 101.325609 
L 384.48 92.505143 
L 375.552 86.685427 
L 366.624 96.760682 
L 357.696 117.544246 
L 348.768 91.893625 
L 339.84 90.410827 
L 330.912 94.948382 
L 321.984 103.193933 
L 313.056 107.286956 
L 304.128 121.879733 
L 295.2 119.238945 
L 286.272 96.752885 
L 277.344 94.777132 
L 268.416 100.170879 
L 259.488 96.312534 
L 250.56 100.5425 
L 241.632 120.550244 
L 232.704 106.673687 
L 223.776 95.222206 
L 214.848 99.004878 
L 205.92 105.660594 
L 196.992 101.887259 
L 188.064 100.834298 
L 179.136 100.411817 
L 170.208 112.7372 
L 161.28 108.727375 
L 152.352 114.867822 
L 143.424 127.827844 
L 134.496 136.923219 
L 125.568 140.939284 
L 116.64 146.95007 
L 107.712 146.847822 
L 98.784 145.882052 
L 89.856 136.753095 
L 80.928 125.727007 
L 72 144.235037 
z
" style="fill:#9467bd;fill-opacity:0.3;"/>
   </g>
   <g id="PolyCollection_6">
    <path clip-path="url(#p72c1c1fe87)" d="M 72 145.781182 
L 72 105.155365 
L 80.928 91.65788 
L 89.856 98.963246 
L 98.784 107.005482 
L 107.712 110.894063 
L 116.64 113.789202 
L 125.568 114.292771 
L 134.496 115.770335 
L 143.424 115.012006 
L 152.352 115.719399 
L 161.28 118.292507 
L 170.208 118.971889 
L 179.136 117.492224 
L 188.064 116.726352 
L 196.992 117.124579 
L 205.92 118.854824 
L 214.848 120.1958 
L 223.776 121.395597 
L 232.704 121.131968 
L 241.632 121.243236 
L 250.56 121.565995 
L 259.488 121.432405 
L 268.416 119.957349 
L 277.344 121.794933 
L 286.272 121.786405 
L 295.2 122.323711 
L 304.128 122.814862 
L 313.056 122.824702 
L 321.984 122.222221 
L 330.912 121.36837 
L 339.84 121.827348 
L 348.768 122.044759 
L 357.696 122.437417 
L 366.624 121.568606 
L 375.552 121.697034 
L 384.48 122.224621 
L 393.408 122.351317 
L 402.336 122.624921 
L 411.264 123.209755 
L 420.192 123.596177 
L 429.12 123.891864 
L 438.048 124.214871 
L 446.976 124.506766 
L 455.904 124.301978 
L 464.832 123.452973 
L 473.76 122.777244 
L 482.688 122.712915 
L 491.616 122.73 
L 500.544 123.098197 
L 509.472 123.313942 
L 518.4 123.605901 
L 518.4 130.182422 
L 518.4 130.182422 
L 509.472 129.746247 
L 500.544 129.350263 
L 491.616 130.177319 
L 482.688 131.234002 
L 473.76 131.868057 
L 464.832 132.701819 
L 455.904 132.391154 
L 446.976 132.330537 
L 438.048 131.742248 
L 429.12 131.202933 
L 420.192 130.436583 
L 411.264 129.900049 
L 402.336 129.796713 
L 393.408 129.742158 
L 384.48 130.265961 
L 375.552 129.909908 
L 366.624 129.41526 
L 357.696 129.751615 
L 348.768 130.230036 
L 339.84 132.553923 
L 330.912 133.620804 
L 321.984 133.512259 
L 313.056 133.156133 
L 304.128 132.491009 
L 295.2 131.911549 
L 286.272 131.557348 
L 277.344 130.610095 
L 268.416 130.414746 
L 259.488 128.906284 
L 250.56 128.771409 
L 241.632 130.008527 
L 232.704 130.402648 
L 223.776 129.42438 
L 214.848 128.275755 
L 205.92 126.827986 
L 196.992 125.781648 
L 188.064 125.300967 
L 179.136 130.42539 
L 170.208 132.289857 
L 161.28 131.94219 
L 152.352 131.964498 
L 143.424 133.292209 
L 134.496 135.064922 
L 125.568 135.987185 
L 116.64 140.323679 
L 107.712 140.322406 
L 98.784 137.110762 
L 89.856 129.08025 
L 80.928 120.408584 
L 72 145.781182 
z
" style="fill:#8c564b;fill-opacity:0.3;"/>
   </g>
   <g id="PolyCollection_7">
    <path clip-path="url(#p72c1c1fe87)" d="M 72 241.447299 
L 72 215.342552 
L 80.928 212.193333 
L 89.856 188.851902 
L 98.784 186.350245 
L 107.712 178.066251 
L 107.712 259.229717 
L 107.712 259.229717 
L 98.784 263.185199 
L 89.856 261.495484 
L 80.928 240.616937 
L 72 241.447299 
z
" style="fill:#e377c2;fill-opacity:0.3;"/>
    <path clip-path="url(#p72c1c1fe87)" d="M 125.568 243.949561 
L 125.568 191.882025 
L 134.496 191.124325 
L 143.424 174.001754 
L 152.352 204.647535 
L 161.28 205.510165 
L 161.28 232.670738 
L 161.28 232.670738 
L 152.352 237.581628 
L 143.424 262.91653 
L 134.496 242.23091 
L 125.568 243.949561 
z
" style="fill:#e377c2;fill-opacity:0.3;"/>
    <path clip-path="url(#p72c1c1fe87)" d="M 179.136 232.580927 
L 179.136 201.137593 
L 188.064 196.747348 
L 196.992 173.951269 
L 196.992 250.633318 
L 196.992 250.633318 
L 188.064 235.975518 
L 179.136 232.580927 
z
" style="fill:#e377c2;fill-opacity:0.3;"/>
    <path clip-path="url(#p72c1c1fe87)" d="M 214.848 228.772792 
L 214.848 200.02473 
L 223.776 165.109563 
L 223.776 265.255486 
L 223.776 265.255486 
L 214.848 228.772792 
z
" style="fill:#e377c2;fill-opacity:0.3;"/>
    <path clip-path="url(#p72c1c1fe87)" d="M 241.632 257.602988 
L 241.632 184.03085 
L 250.56 181.363141 
L 250.56 253.351841 
L 250.56 253.351841 
L 241.632 257.602988 
z
" style="fill:#e377c2;fill-opacity:0.3;"/>
    <path clip-path="url(#p72c1c1fe87)" d="M 268.416 268.451415 
L 268.416 162.709549 
L 268.416 268.451415 
L 268.416 268.451415 
z
" style="fill:#e377c2;fill-opacity:0.3;"/>
    <path clip-path="url(#p72c1c1fe87)" d="M 286.272 239.246414 
L 286.272 184.501265 
L 286.272 239.246414 
L 286.272 239.246414 
z
" style="fill:#e377c2;fill-opacity:0.3;"/>
    <path clip-path="url(#p72c1c1fe87)" d="M 304.128 254.161367 
L 304.128 167.383183 
L 304.128 254.161367 
L 304.128 254.161367 
z
" style="fill:#e377c2;fill-opacity:0.3;"/>
    <path clip-path="url(#p72c1c1fe87)" d="M 321.984 263.171342 
L 321.984 176.54911 
L 330.912 188.055031 
L 339.84 175.50711 
L 339.84 253.627642 
L 339.84 253.627642 
L 330.912 234.719744 
L 321.984 263.171342 
z
" style="fill:#e377c2;fill-opacity:0.3;"/>
    <path clip-path="url(#p72c1c1fe87)" d="M 384.48 234.770779 
L 384.48 184.528494 
L 384.48 234.770779 
L 384.48 234.770779 
z
" style="fill:#e377c2;fill-opacity:0.3;"/>
    <path clip-path="url(#p72c1c1fe87)" d="M 411.264 231.679727 
L 411.264 174.992125 
L 411.264 231.679727 
L 411.264 231.679727 
z
" style="fill:#e377c2;fill-opacity:0.3;"/>
    <path clip-path="url(#p72c1c1fe87)" d="M 429.12 253.935398 
L 429.12 176.058733 
L 438.048 181.023384 
L 438.048 241.390064 
L 438.048 241.390064 
L 429.12 253.935398 
z
" style="fill:#e377c2;fill-opacity:0.3;"/>
    <path clip-path="url(#p72c1c1fe87)" d="M 473.76 224.753454 
L 473.76 188.641906 
L 473.76 224.753454 
L 473.76 224.753454 
z
" style="fill:#e377c2;fill-opacity:0.3;"/>
   </g>
   <g id="matplotlib.axis_1">
    <g id="xtick_1">
     <g id="line2d_1">
      <path clip-path="url(#p72c1c1fe87)" d="M 72 384.48 
L 72 51.84 
" style="fill:none;stroke:#b0b0b0;stroke-linecap:square;stroke-width:0.8;"/>
     </g>
     <g id="line2d_2">
      <defs>
       <path d="M 0 0 
L 0 3.5 
" id="m74209aae6e" style="stroke:#000000;stroke-width:0.8;"/>
      </defs>
      <g>
       <use style="stroke:#000000;stroke-width:0.8;" x="72" xlink:href="#m74209aae6e" y="384.48"/>
      </g>
     </g>
     <g id="text_1">
      <!-- 0 -->
      <defs>
       <path d="M 31.78125 66.40625 
Q 24.171875 66.40625 20.328125 58.90625 
Q 16.5 51.421875 16.5 36.375 
Q 16.5 21.390625 20.328125 13.890625 
Q 24.171875 6.390625 31.78125 6.390625 
Q 39.453125 6.390625 43.28125 13.890625 
Q 47.125 21.390625 47.125 36.375 
Q 47.125 51.421875 43.28125 58.90625 
Q 39.453125 66.40625 31.78125 66.40625 
z
M 31.78125 74.21875 
Q 44.046875 74.21875 50.515625 64.515625 
Q 56.984375 54.828125 56.984375 36.375 
Q 56.984375 17.96875 50.515625 8.265625 
Q 44.046875 -1.421875 31.78125 -1.421875 
Q 19.53125 -1.421875 13.0625 8.265625 
Q 6.59375 17.96875 6.59375 36.375 
Q 6.59375 54.828125 13.0625 64.515625 
Q 19.53125 74.21875 31.78125 74.21875 
z
" id="DejaVuSans-48"/>
      </defs>
      <g transform="translate(68.81875 399.078438)scale(0.1 -0.1)">
       <use xlink:href="#DejaVuSans-48"/>
      </g>
     </g>
    </g>
    <g id="xtick_2">
     <g id="line2d_3">
      <path clip-path="url(#p72c1c1fe87)" d="M 161.28 384.48 
L 161.28 51.84 
" style="fill:none;stroke:#b0b0b0;stroke-linecap:square;stroke-width:0.8;"/>
     </g>
     <g id="line2d_4">
      <g>
       <use style="stroke:#000000;stroke-width:0.8;" x="161.28" xlink:href="#m74209aae6e" y="384.48"/>
      </g>
     </g>
     <g id="text_2">
      <!-- 10 -->
      <defs>
       <path d="M 12.40625 8.296875 
L 28.515625 8.296875 
L 28.515625 63.921875 
L 10.984375 60.40625 
L 10.984375 69.390625 
L 28.421875 72.90625 
L 38.28125 72.90625 
L 38.28125 8.296875 
L 54.390625 8.296875 
L 54.390625 0 
L 12.40625 0 
z
" id="DejaVuSans-49"/>
      </defs>
      <g transform="translate(154.9175 399.078438)scale(0.1 -0.1)">
       <use xlink:href="#DejaVuSans-49"/>
       <use x="63.623047" xlink:href="#DejaVuSans-48"/>
      </g>
     </g>
    </g>
    <g id="xtick_3">
     <g id="line2d_5">
      <path clip-path="url(#p72c1c1fe87)" d="M 250.56 384.48 
L 250.56 51.84 
" style="fill:none;stroke:#b0b0b0;stroke-linecap:square;stroke-width:0.8;"/>
     </g>
     <g id="line2d_6">
      <g>
       <use style="stroke:#000000;stroke-width:0.8;" x="250.56" xlink:href="#m74209aae6e" y="384.48"/>
      </g>
     </g>
     <g id="text_3">
      <!-- 20 -->
      <defs>
       <path d="M 19.1875 8.296875 
L 53.609375 8.296875 
L 53.609375 0 
L 7.328125 0 
L 7.328125 8.296875 
Q 12.9375 14.109375 22.625 23.890625 
Q 32.328125 33.6875 34.8125 36.53125 
Q 39.546875 41.84375 41.421875 45.53125 
Q 43.3125 49.21875 43.3125 52.78125 
Q 43.3125 58.59375 39.234375 62.25 
Q 35.15625 65.921875 28.609375 65.921875 
Q 23.96875 65.921875 18.8125 64.3125 
Q 13.671875 62.703125 7.8125 59.421875 
L 7.8125 69.390625 
Q 13.765625 71.78125 18.9375 73 
Q 24.125 74.21875 28.421875 74.21875 
Q 39.75 74.21875 46.484375 68.546875 
Q 53.21875 62.890625 53.21875 53.421875 
Q 53.21875 48.921875 51.53125 44.890625 
Q 49.859375 40.875 45.40625 35.40625 
Q 44.1875 33.984375 37.640625 27.21875 
Q 31.109375 20.453125 19.1875 8.296875 
z
" id="DejaVuSans-50"/>
      </defs>
      <g transform="translate(244.1975 399.078438)scale(0.1 -0.1)">
       <use xlink:href="#DejaVuSans-50"/>
       <use x="63.623047" xlink:href="#DejaVuSans-48"/>
      </g>
     </g>
    </g>
    <g id="xtick_4">
     <g id="line2d_7">
      <path clip-path="url(#p72c1c1fe87)" d="M 339.84 384.48 
L 339.84 51.84 
" style="fill:none;stroke:#b0b0b0;stroke-linecap:square;stroke-width:0.8;"/>
     </g>
     <g id="line2d_8">
      <g>
       <use style="stroke:#000000;stroke-width:0.8;" x="339.84" xlink:href="#m74209aae6e" y="384.48"/>
      </g>
     </g>
     <g id="text_4">
      <!-- 30 -->
      <defs>
       <path d="M 40.578125 39.3125 
Q 47.65625 37.796875 51.625 33 
Q 55.609375 28.21875 55.609375 21.1875 
Q 55.609375 10.40625 48.1875 4.484375 
Q 40.765625 -1.421875 27.09375 -1.421875 
Q 22.515625 -1.421875 17.65625 -0.515625 
Q 12.796875 0.390625 7.625 2.203125 
L 7.625 11.71875 
Q 11.71875 9.328125 16.59375 8.109375 
Q 21.484375 6.890625 26.8125 6.890625 
Q 36.078125 6.890625 40.9375 10.546875 
Q 45.796875 14.203125 45.796875 21.1875 
Q 45.796875 27.640625 41.28125 31.265625 
Q 36.765625 34.90625 28.71875 34.90625 
L 20.21875 34.90625 
L 20.21875 43.015625 
L 29.109375 43.015625 
Q 36.375 43.015625 40.234375 45.921875 
Q 44.09375 48.828125 44.09375 54.296875 
Q 44.09375 59.90625 40.109375 62.90625 
Q 36.140625 65.921875 28.71875 65.921875 
Q 24.65625 65.921875 20.015625 65.03125 
Q 15.375 64.15625 9.8125 62.3125 
L 9.8125 71.09375 
Q 15.4375 72.65625 20.34375 73.4375 
Q 25.25 74.21875 29.59375 74.21875 
Q 40.828125 74.21875 47.359375 69.109375 
Q 53.90625 64.015625 53.90625 55.328125 
Q 53.90625 49.265625 50.4375 45.09375 
Q 46.96875 40.921875 40.578125 39.3125 
z
" id="DejaVuSans-51"/>
      </defs>
      <g transform="translate(333.4775 399.078438)scale(0.1 -0.1)">
       <use xlink:href="#DejaVuSans-51"/>
       <use x="63.623047" xlink:href="#DejaVuSans-48"/>
      </g>
     </g>
    </g>
    <g id="xtick_5">
     <g id="line2d_9">
      <path clip-path="url(#p72c1c1fe87)" d="M 429.12 384.48 
L 429.12 51.84 
" style="fill:none;stroke:#b0b0b0;stroke-linecap:square;stroke-width:0.8;"/>
     </g>
     <g id="line2d_10">
      <g>
       <use style="stroke:#000000;stroke-width:0.8;" x="429.12" xlink:href="#m74209aae6e" y="384.48"/>
      </g>
     </g>
     <g id="text_5">
      <!-- 40 -->
      <defs>
       <path d="M 37.796875 64.3125 
L 12.890625 25.390625 
L 37.796875 25.390625 
z
M 35.203125 72.90625 
L 47.609375 72.90625 
L 47.609375 25.390625 
L 58.015625 25.390625 
L 58.015625 17.1875 
L 47.609375 17.1875 
L 47.609375 0 
L 37.796875 0 
L 37.796875 17.1875 
L 4.890625 17.1875 
L 4.890625 26.703125 
z
" id="DejaVuSans-52"/>
      </defs>
      <g transform="translate(422.7575 399.078438)scale(0.1 -0.1)">
       <use xlink:href="#DejaVuSans-52"/>
       <use x="63.623047" xlink:href="#DejaVuSans-48"/>
      </g>
     </g>
    </g>
    <g id="xtick_6">
     <g id="line2d_11">
      <path clip-path="url(#p72c1c1fe87)" d="M 518.4 384.48 
L 518.4 51.84 
" style="fill:none;stroke:#b0b0b0;stroke-linecap:square;stroke-width:0.8;"/>
     </g>
     <g id="line2d_12">
      <g>
       <use style="stroke:#000000;stroke-width:0.8;" x="518.4" xlink:href="#m74209aae6e" y="384.48"/>
      </g>
     </g>
     <g id="text_6">
      <!-- 50 -->
      <defs>
       <path d="M 10.796875 72.90625 
L 49.515625 72.90625 
L 49.515625 64.59375 
L 19.828125 64.59375 
L 19.828125 46.734375 
Q 21.96875 47.46875 24.109375 47.828125 
Q 26.265625 48.1875 28.421875 48.1875 
Q 40.625 48.1875 47.75 41.5 
Q 54.890625 34.8125 54.890625 23.390625 
Q 54.890625 11.625 47.5625 5.09375 
Q 40.234375 -1.421875 26.90625 -1.421875 
Q 22.3125 -1.421875 17.546875 -0.640625 
Q 12.796875 0.140625 7.71875 1.703125 
L 7.71875 11.625 
Q 12.109375 9.234375 16.796875 8.0625 
Q 21.484375 6.890625 26.703125 6.890625 
Q 35.15625 6.890625 40.078125 11.328125 
Q 45.015625 15.765625 45.015625 23.390625 
Q 45.015625 31 40.078125 35.4375 
Q 35.15625 39.890625 26.703125 39.890625 
Q 22.75 39.890625 18.8125 39.015625 
Q 14.890625 38.140625 10.796875 36.28125 
z
" id="DejaVuSans-53"/>
      </defs>
      <g transform="translate(512.0375 399.078438)scale(0.1 -0.1)">
       <use xlink:href="#DejaVuSans-53"/>
       <use x="63.623047" xlink:href="#DejaVuSans-48"/>
      </g>
     </g>
    </g>
    <g id="text_7">
     <!-- Iteration -->
     <defs>
      <path d="M 9.8125 72.90625 
L 19.671875 72.90625 
L 19.671875 0 
L 9.8125 0 
z
" id="DejaVuSans-73"/>
      <path d="M 18.3125 70.21875 
L 18.3125 54.6875 
L 36.8125 54.6875 
L 36.8125 47.703125 
L 18.3125 47.703125 
L 18.3125 18.015625 
Q 18.3125 11.328125 20.140625 9.421875 
Q 21.96875 7.515625 27.59375 7.515625 
L 36.8125 7.515625 
L 36.8125 0 
L 27.59375 0 
Q 17.1875 0 13.234375 3.875 
Q 9.28125 7.765625 9.28125 18.015625 
L 9.28125 47.703125 
L 2.6875 47.703125 
L 2.6875 54.6875 
L 9.28125 54.6875 
L 9.28125 70.21875 
z
" id="DejaVuSans-116"/>
      <path d="M 56.203125 29.59375 
L 56.203125 25.203125 
L 14.890625 25.203125 
Q 15.484375 15.921875 20.484375 11.0625 
Q 25.484375 6.203125 34.421875 6.203125 
Q 39.59375 6.203125 44.453125 7.46875 
Q 49.3125 8.734375 54.109375 11.28125 
L 54.109375 2.78125 
Q 49.265625 0.734375 44.1875 -0.34375 
Q 39.109375 -1.421875 33.890625 -1.421875 
Q 20.796875 -1.421875 13.15625 6.1875 
Q 5.515625 13.8125 5.515625 26.8125 
Q 5.515625 40.234375 12.765625 48.109375 
Q 20.015625 56 32.328125 56 
Q 43.359375 56 49.78125 48.890625 
Q 56.203125 41.796875 56.203125 29.59375 
z
M 47.21875 32.234375 
Q 47.125 39.59375 43.09375 43.984375 
Q 39.0625 48.390625 32.421875 48.390625 
Q 24.90625 48.390625 20.390625 44.140625 
Q 15.875 39.890625 15.1875 32.171875 
z
" id="DejaVuSans-101"/>
      <path d="M 41.109375 46.296875 
Q 39.59375 47.171875 37.8125 47.578125 
Q 36.03125 48 33.890625 48 
Q 26.265625 48 22.1875 43.046875 
Q 18.109375 38.09375 18.109375 28.8125 
L 18.109375 0 
L 9.078125 0 
L 9.078125 54.6875 
L 18.109375 54.6875 
L 18.109375 46.1875 
Q 20.953125 51.171875 25.484375 53.578125 
Q 30.03125 56 36.53125 56 
Q 37.453125 56 38.578125 55.875 
Q 39.703125 55.765625 41.0625 55.515625 
z
" id="DejaVuSans-114"/>
      <path d="M 34.28125 27.484375 
Q 23.390625 27.484375 19.1875 25 
Q 14.984375 22.515625 14.984375 16.5 
Q 14.984375 11.71875 18.140625 8.90625 
Q 21.296875 6.109375 26.703125 6.109375 
Q 34.1875 6.109375 38.703125 11.40625 
Q 43.21875 16.703125 43.21875 25.484375 
L 43.21875 27.484375 
z
M 52.203125 31.203125 
L 52.203125 0 
L 43.21875 0 
L 43.21875 8.296875 
Q 40.140625 3.328125 35.546875 0.953125 
Q 30.953125 -1.421875 24.3125 -1.421875 
Q 15.921875 -1.421875 10.953125 3.296875 
Q 6 8.015625 6 15.921875 
Q 6 25.140625 12.171875 29.828125 
Q 18.359375 34.515625 30.609375 34.515625 
L 43.21875 34.515625 
L 43.21875 35.40625 
Q 43.21875 41.609375 39.140625 45 
Q 35.0625 48.390625 27.6875 48.390625 
Q 23 48.390625 18.546875 47.265625 
Q 14.109375 46.140625 10.015625 43.890625 
L 10.015625 52.203125 
Q 14.9375 54.109375 19.578125 55.046875 
Q 24.21875 56 28.609375 56 
Q 40.484375 56 46.34375 49.84375 
Q 52.203125 43.703125 52.203125 31.203125 
z
" id="DejaVuSans-97"/>
      <path d="M 9.421875 54.6875 
L 18.40625 54.6875 
L 18.40625 0 
L 9.421875 0 
z
M 9.421875 75.984375 
L 18.40625 75.984375 
L 18.40625 64.59375 
L 9.421875 64.59375 
z
" id="DejaVuSans-105"/>
      <path d="M 30.609375 48.390625 
Q 23.390625 48.390625 19.1875 42.75 
Q 14.984375 37.109375 14.984375 27.296875 
Q 14.984375 17.484375 19.15625 11.84375 
Q 23.34375 6.203125 30.609375 6.203125 
Q 37.796875 6.203125 41.984375 11.859375 
Q 46.1875 17.53125 46.1875 27.296875 
Q 46.1875 37.015625 41.984375 42.703125 
Q 37.796875 48.390625 30.609375 48.390625 
z
M 30.609375 56 
Q 42.328125 56 49.015625 48.375 
Q 55.71875 40.765625 55.71875 27.296875 
Q 55.71875 13.875 49.015625 6.21875 
Q 42.328125 -1.421875 30.609375 -1.421875 
Q 18.84375 -1.421875 12.171875 6.21875 
Q 5.515625 13.875 5.515625 27.296875 
Q 5.515625 40.765625 12.171875 48.375 
Q 18.84375 56 30.609375 56 
z
" id="DejaVuSans-111"/>
      <path d="M 54.890625 33.015625 
L 54.890625 0 
L 45.90625 0 
L 45.90625 32.71875 
Q 45.90625 40.484375 42.875 44.328125 
Q 39.84375 48.1875 33.796875 48.1875 
Q 26.515625 48.1875 22.3125 43.546875 
Q 18.109375 38.921875 18.109375 30.90625 
L 18.109375 0 
L 9.078125 0 
L 9.078125 54.6875 
L 18.109375 54.6875 
L 18.109375 46.1875 
Q 21.34375 51.125 25.703125 53.5625 
Q 30.078125 56 35.796875 56 
Q 45.21875 56 50.046875 50.171875 
Q 54.890625 44.34375 54.890625 33.015625 
z
" id="DejaVuSans-110"/>
     </defs>
     <g transform="translate(273.991406 412.756563)scale(0.1 -0.1)">
      <use xlink:href="#DejaVuSans-73"/>
      <use x="29.492188" xlink:href="#DejaVuSans-116"/>
      <use x="68.701172" xlink:href="#DejaVuSans-101"/>
      <use x="130.224609" xlink:href="#DejaVuSans-114"/>
      <use x="171.337891" xlink:href="#DejaVuSans-97"/>
      <use x="232.617188" xlink:href="#DejaVuSans-116"/>
      <use x="271.826172" xlink:href="#DejaVuSans-105"/>
      <use x="299.609375" xlink:href="#DejaVuSans-111"/>
      <use x="360.791016" xlink:href="#DejaVuSans-110"/>
     </g>
    </g>
   </g>
   <g id="matplotlib.axis_2">
    <g id="ytick_1">
     <g id="line2d_13">
      <path clip-path="url(#p72c1c1fe87)" d="M 72 384.48 
L 518.4 384.48 
" style="fill:none;stroke:#b0b0b0;stroke-linecap:square;stroke-width:0.8;"/>
     </g>
     <g id="line2d_14">
      <defs>
       <path d="M 0 0 
L -3.5 0 
" id="mc379166101" style="stroke:#000000;stroke-width:0.8;"/>
      </defs>
      <g>
       <use style="stroke:#000000;stroke-width:0.8;" x="72" xlink:href="#mc379166101" y="384.48"/>
      </g>
     </g>
     <g id="text_8">
      <!-- $\mathdefault{10^{-12}}$ -->
      <defs>
       <path d="M 10.59375 35.5 
L 73.1875 35.5 
L 73.1875 27.203125 
L 10.59375 27.203125 
z
" id="DejaVuSans-8722"/>
      </defs>
      <g transform="translate(37.1 388.279219)scale(0.1 -0.1)">
       <use transform="translate(0 0.765625)" xlink:href="#DejaVuSans-49"/>
       <use transform="translate(63.623047 0.765625)" xlink:href="#DejaVuSans-48"/>
       <use transform="translate(128.203125 39.046875)scale(0.7)" xlink:href="#DejaVuSans-8722"/>
       <use transform="translate(186.855469 39.046875)scale(0.7)" xlink:href="#DejaVuSans-49"/>
       <use transform="translate(231.391602 39.046875)scale(0.7)" xlink:href="#DejaVuSans-50"/>
      </g>
     </g>
    </g>
    <g id="ytick_2">
     <g id="line2d_15">
      <path clip-path="url(#p72c1c1fe87)" d="M 72 336.96 
L 518.4 336.96 
" style="fill:none;stroke:#b0b0b0;stroke-linecap:square;stroke-width:0.8;"/>
     </g>
     <g id="line2d_16">
      <g>
       <use style="stroke:#000000;stroke-width:0.8;" x="72" xlink:href="#mc379166101" y="336.96"/>
      </g>
     </g>
     <g id="text_9">
      <!-- $\mathdefault{10^{-10}}$ -->
      <g transform="translate(37.1 340.759219)scale(0.1 -0.1)">
       <use transform="translate(0 0.765625)" xlink:href="#DejaVuSans-49"/>
       <use transform="translate(63.623047 0.765625)" xlink:href="#DejaVuSans-48"/>
       <use transform="translate(128.203125 39.046875)scale(0.7)" xlink:href="#DejaVuSans-8722"/>
       <use transform="translate(186.855469 39.046875)scale(0.7)" xlink:href="#DejaVuSans-49"/>
       <use transform="translate(231.391602 39.046875)scale(0.7)" xlink:href="#DejaVuSans-48"/>
      </g>
     </g>
    </g>
    <g id="ytick_3">
     <g id="line2d_17">
      <path clip-path="url(#p72c1c1fe87)" d="M 72 289.44 
L 518.4 289.44 
" style="fill:none;stroke:#b0b0b0;stroke-linecap:square;stroke-width:0.8;"/>
     </g>
     <g id="line2d_18">
      <g>
       <use style="stroke:#000000;stroke-width:0.8;" x="72" xlink:href="#mc379166101" y="289.44"/>
      </g>
     </g>
     <g id="text_10">
      <!-- $\mathdefault{10^{-8}}$ -->
      <defs>
       <path d="M 31.78125 34.625 
Q 24.75 34.625 20.71875 30.859375 
Q 16.703125 27.09375 16.703125 20.515625 
Q 16.703125 13.921875 20.71875 10.15625 
Q 24.75 6.390625 31.78125 6.390625 
Q 38.8125 6.390625 42.859375 10.171875 
Q 46.921875 13.96875 46.921875 20.515625 
Q 46.921875 27.09375 42.890625 30.859375 
Q 38.875 34.625 31.78125 34.625 
z
M 21.921875 38.8125 
Q 15.578125 40.375 12.03125 44.71875 
Q 8.5 49.078125 8.5 55.328125 
Q 8.5 64.0625 14.71875 69.140625 
Q 20.953125 74.21875 31.78125 74.21875 
Q 42.671875 74.21875 48.875 69.140625 
Q 55.078125 64.0625 55.078125 55.328125 
Q 55.078125 49.078125 51.53125 44.71875 
Q 48 40.375 41.703125 38.8125 
Q 48.828125 37.15625 52.796875 32.3125 
Q 56.78125 27.484375 56.78125 20.515625 
Q 56.78125 9.90625 50.3125 4.234375 
Q 43.84375 -1.421875 31.78125 -1.421875 
Q 19.734375 -1.421875 13.25 4.234375 
Q 6.78125 9.90625 6.78125 20.515625 
Q 6.78125 27.484375 10.78125 32.3125 
Q 14.796875 37.15625 21.921875 38.8125 
z
M 18.3125 54.390625 
Q 18.3125 48.734375 21.84375 45.5625 
Q 25.390625 42.390625 31.78125 42.390625 
Q 38.140625 42.390625 41.71875 45.5625 
Q 45.3125 48.734375 45.3125 54.390625 
Q 45.3125 60.0625 41.71875 63.234375 
Q 38.140625 66.40625 31.78125 66.40625 
Q 25.390625 66.40625 21.84375 63.234375 
Q 18.3125 60.0625 18.3125 54.390625 
z
" id="DejaVuSans-56"/>
      </defs>
      <g transform="translate(41.5 293.239219)scale(0.1 -0.1)">
       <use transform="translate(0 0.765625)" xlink:href="#DejaVuSans-49"/>
       <use transform="translate(63.623047 0.765625)" xlink:href="#DejaVuSans-48"/>
       <use transform="translate(128.203125 39.046875)scale(0.7)" xlink:href="#DejaVuSans-8722"/>
       <use transform="translate(186.855469 39.046875)scale(0.7)" xlink:href="#DejaVuSans-56"/>
      </g>
     </g>
    </g>
    <g id="ytick_4">
     <g id="line2d_19">
      <path clip-path="url(#p72c1c1fe87)" d="M 72 241.92 
L 518.4 241.92 
" style="fill:none;stroke:#b0b0b0;stroke-linecap:square;stroke-width:0.8;"/>
     </g>
     <g id="line2d_20">
      <g>
       <use style="stroke:#000000;stroke-width:0.8;" x="72" xlink:href="#mc379166101" y="241.92"/>
      </g>
     </g>
     <g id="text_11">
      <!-- $\mathdefault{10^{-6}}$ -->
      <defs>
       <path d="M 33.015625 40.375 
Q 26.375 40.375 22.484375 35.828125 
Q 18.609375 31.296875 18.609375 23.390625 
Q 18.609375 15.53125 22.484375 10.953125 
Q 26.375 6.390625 33.015625 6.390625 
Q 39.65625 6.390625 43.53125 10.953125 
Q 47.40625 15.53125 47.40625 23.390625 
Q 47.40625 31.296875 43.53125 35.828125 
Q 39.65625 40.375 33.015625 40.375 
z
M 52.59375 71.296875 
L 52.59375 62.3125 
Q 48.875 64.0625 45.09375 64.984375 
Q 41.3125 65.921875 37.59375 65.921875 
Q 27.828125 65.921875 22.671875 59.328125 
Q 17.53125 52.734375 16.796875 39.40625 
Q 19.671875 43.65625 24.015625 45.921875 
Q 28.375 48.1875 33.59375 48.1875 
Q 44.578125 48.1875 50.953125 41.515625 
Q 57.328125 34.859375 57.328125 23.390625 
Q 57.328125 12.15625 50.6875 5.359375 
Q 44.046875 -1.421875 33.015625 -1.421875 
Q 20.359375 -1.421875 13.671875 8.265625 
Q 6.984375 17.96875 6.984375 36.375 
Q 6.984375 53.65625 15.1875 63.9375 
Q 23.390625 74.21875 37.203125 74.21875 
Q 40.921875 74.21875 44.703125 73.484375 
Q 48.484375 72.75 52.59375 71.296875 
z
" id="DejaVuSans-54"/>
      </defs>
      <g transform="translate(41.5 245.719219)scale(0.1 -0.1)">
       <use transform="translate(0 0.765625)" xlink:href="#DejaVuSans-49"/>
       <use transform="translate(63.623047 0.765625)" xlink:href="#DejaVuSans-48"/>
       <use transform="translate(128.203125 39.046875)scale(0.7)" xlink:href="#DejaVuSans-8722"/>
       <use transform="translate(186.855469 39.046875)scale(0.7)" xlink:href="#DejaVuSans-54"/>
      </g>
     </g>
    </g>
    <g id="ytick_5">
     <g id="line2d_21">
      <path clip-path="url(#p72c1c1fe87)" d="M 72 194.4 
L 518.4 194.4 
" style="fill:none;stroke:#b0b0b0;stroke-linecap:square;stroke-width:0.8;"/>
     </g>
     <g id="line2d_22">
      <g>
       <use style="stroke:#000000;stroke-width:0.8;" x="72" xlink:href="#mc379166101" y="194.4"/>
      </g>
     </g>
     <g id="text_12">
      <!-- $\mathdefault{10^{-4}}$ -->
      <g transform="translate(41.5 198.199219)scale(0.1 -0.1)">
       <use transform="translate(0 0.684375)" xlink:href="#DejaVuSans-49"/>
       <use transform="translate(63.623047 0.684375)" xlink:href="#DejaVuSans-48"/>
       <use transform="translate(128.203125 38.965625)scale(0.7)" xlink:href="#DejaVuSans-8722"/>
       <use transform="translate(186.855469 38.965625)scale(0.7)" xlink:href="#DejaVuSans-52"/>
      </g>
     </g>
    </g>
    <g id="ytick_6">
     <g id="line2d_23">
      <path clip-path="url(#p72c1c1fe87)" d="M 72 146.88 
L 518.4 146.88 
" style="fill:none;stroke:#b0b0b0;stroke-linecap:square;stroke-width:0.8;"/>
     </g>
     <g id="line2d_24">
      <g>
       <use style="stroke:#000000;stroke-width:0.8;" x="72" xlink:href="#mc379166101" y="146.88"/>
      </g>
     </g>
     <g id="text_13">
      <!-- $\mathdefault{10^{-2}}$ -->
      <g transform="translate(41.5 150.679219)scale(0.1 -0.1)">
       <use transform="translate(0 0.765625)" xlink:href="#DejaVuSans-49"/>
       <use transform="translate(63.623047 0.765625)" xlink:href="#DejaVuSans-48"/>
       <use transform="translate(128.203125 39.046875)scale(0.7)" xlink:href="#DejaVuSans-8722"/>
       <use transform="translate(186.855469 39.046875)scale(0.7)" xlink:href="#DejaVuSans-50"/>
      </g>
     </g>
    </g>
    <g id="ytick_7">
     <g id="line2d_25">
      <path clip-path="url(#p72c1c1fe87)" d="M 72 99.36 
L 518.4 99.36 
" style="fill:none;stroke:#b0b0b0;stroke-linecap:square;stroke-width:0.8;"/>
     </g>
     <g id="line2d_26">
      <g>
       <use style="stroke:#000000;stroke-width:0.8;" x="72" xlink:href="#mc379166101" y="99.36"/>
      </g>
     </g>
     <g id="text_14">
      <!-- $\mathdefault{10^{0}}$ -->
      <g transform="translate(47.4 103.159219)scale(0.1 -0.1)">
       <use transform="translate(0 0.765625)" xlink:href="#DejaVuSans-49"/>
       <use transform="translate(63.623047 0.765625)" xlink:href="#DejaVuSans-48"/>
       <use transform="translate(128.203125 39.046875)scale(0.7)" xlink:href="#DejaVuSans-48"/>
      </g>
     </g>
    </g>
    <g id="ytick_8">
     <g id="line2d_27">
      <path clip-path="url(#p72c1c1fe87)" d="M 72 51.84 
L 518.4 51.84 
" style="fill:none;stroke:#b0b0b0;stroke-linecap:square;stroke-width:0.8;"/>
     </g>
     <g id="line2d_28">
      <g>
       <use style="stroke:#000000;stroke-width:0.8;" x="72" xlink:href="#mc379166101" y="51.84"/>
      </g>
     </g>
     <g id="text_15">
      <!-- $\mathdefault{10^{2}}$ -->
      <g transform="translate(47.4 55.639219)scale(0.1 -0.1)">
       <use transform="translate(0 0.765625)" xlink:href="#DejaVuSans-49"/>
       <use transform="translate(63.623047 0.765625)" xlink:href="#DejaVuSans-48"/>
       <use transform="translate(128.203125 39.046875)scale(0.7)" xlink:href="#DejaVuSans-50"/>
      </g>
     </g>
    </g>
    <g id="text_16">
     <!-- Integrated Variance -->
     <defs>
      <path d="M 45.40625 27.984375 
Q 45.40625 37.75 41.375 43.109375 
Q 37.359375 48.484375 30.078125 48.484375 
Q 22.859375 48.484375 18.828125 43.109375 
Q 14.796875 37.75 14.796875 27.984375 
Q 14.796875 18.265625 18.828125 12.890625 
Q 22.859375 7.515625 30.078125 7.515625 
Q 37.359375 7.515625 41.375 12.890625 
Q 45.40625 18.265625 45.40625 27.984375 
z
M 54.390625 6.78125 
Q 54.390625 -7.171875 48.1875 -13.984375 
Q 42 -20.796875 29.203125 -20.796875 
Q 24.46875 -20.796875 20.265625 -20.09375 
Q 16.0625 -19.390625 12.109375 -17.921875 
L 12.109375 -9.1875 
Q 16.0625 -11.328125 19.921875 -12.34375 
Q 23.78125 -13.375 27.78125 -13.375 
Q 36.625 -13.375 41.015625 -8.765625 
Q 45.40625 -4.15625 45.40625 5.171875 
L 45.40625 9.625 
Q 42.625 4.78125 38.28125 2.390625 
Q 33.9375 0 27.875 0 
Q 17.828125 0 11.671875 7.65625 
Q 5.515625 15.328125 5.515625 27.984375 
Q 5.515625 40.671875 11.671875 48.328125 
Q 17.828125 56 27.875 56 
Q 33.9375 56 38.28125 53.609375 
Q 42.625 51.21875 45.40625 46.390625 
L 45.40625 54.6875 
L 54.390625 54.6875 
z
" id="DejaVuSans-103"/>
      <path d="M 45.40625 46.390625 
L 45.40625 75.984375 
L 54.390625 75.984375 
L 54.390625 0 
L 45.40625 0 
L 45.40625 8.203125 
Q 42.578125 3.328125 38.25 0.953125 
Q 33.9375 -1.421875 27.875 -1.421875 
Q 17.96875 -1.421875 11.734375 6.484375 
Q 5.515625 14.40625 5.515625 27.296875 
Q 5.515625 40.1875 11.734375 48.09375 
Q 17.96875 56 27.875 56 
Q 33.9375 56 38.25 53.625 
Q 42.578125 51.265625 45.40625 46.390625 
z
M 14.796875 27.296875 
Q 14.796875 17.390625 18.875 11.75 
Q 22.953125 6.109375 30.078125 6.109375 
Q 37.203125 6.109375 41.296875 11.75 
Q 45.40625 17.390625 45.40625 27.296875 
Q 45.40625 37.203125 41.296875 42.84375 
Q 37.203125 48.484375 30.078125 48.484375 
Q 22.953125 48.484375 18.875 42.84375 
Q 14.796875 37.203125 14.796875 27.296875 
z
" id="DejaVuSans-100"/>
      <path id="DejaVuSans-32"/>
      <path d="M 28.609375 0 
L 0.78125 72.90625 
L 11.078125 72.90625 
L 34.1875 11.53125 
L 57.328125 72.90625 
L 67.578125 72.90625 
L 39.796875 0 
z
" id="DejaVuSans-86"/>
      <path d="M 48.78125 52.59375 
L 48.78125 44.1875 
Q 44.96875 46.296875 41.140625 47.34375 
Q 37.3125 48.390625 33.40625 48.390625 
Q 24.65625 48.390625 19.8125 42.84375 
Q 14.984375 37.3125 14.984375 27.296875 
Q 14.984375 17.28125 19.8125 11.734375 
Q 24.65625 6.203125 33.40625 6.203125 
Q 37.3125 6.203125 41.140625 7.25 
Q 44.96875 8.296875 48.78125 10.40625 
L 48.78125 2.09375 
Q 45.015625 0.34375 40.984375 -0.53125 
Q 36.96875 -1.421875 32.421875 -1.421875 
Q 20.0625 -1.421875 12.78125 6.34375 
Q 5.515625 14.109375 5.515625 27.296875 
Q 5.515625 40.671875 12.859375 48.328125 
Q 20.21875 56 33.015625 56 
Q 37.15625 56 41.109375 55.140625 
Q 45.0625 54.296875 48.78125 52.59375 
z
" id="DejaVuSans-99"/>
     </defs>
     <g transform="translate(31.020312 267.534219)rotate(-90)scale(0.1 -0.1)">
      <use xlink:href="#DejaVuSans-73"/>
      <use x="29.492188" xlink:href="#DejaVuSans-110"/>
      <use x="92.871094" xlink:href="#DejaVuSans-116"/>
      <use x="132.080078" xlink:href="#DejaVuSans-101"/>
      <use x="193.603516" xlink:href="#DejaVuSans-103"/>
      <use x="257.080078" xlink:href="#DejaVuSans-114"/>
      <use x="298.193359" xlink:href="#DejaVuSans-97"/>
      <use x="359.472656" xlink:href="#DejaVuSans-116"/>
      <use x="398.681641" xlink:href="#DejaVuSans-101"/>
      <use x="460.205078" xlink:href="#DejaVuSans-100"/>
      <use x="523.681641" xlink:href="#DejaVuSans-32"/>
      <use x="555.46875" xlink:href="#DejaVuSans-86"/>
      <use x="616.126953" xlink:href="#DejaVuSans-97"/>
      <use x="677.40625" xlink:href="#DejaVuSans-114"/>
      <use x="718.519531" xlink:href="#DejaVuSans-105"/>
      <use x="746.302734" xlink:href="#DejaVuSans-97"/>
      <use x="807.582031" xlink:href="#DejaVuSans-110"/>
      <use x="870.960938" xlink:href="#DejaVuSans-99"/>
      <use x="925.941406" xlink:href="#DejaVuSans-101"/>
     </g>
    </g>
   </g>
   <g id="line2d_29">
    <path clip-path="url(#p72c1c1fe87)" d="M 80.814829 433 
L 80.928 132.235037 
L 81.041171 433 
M 98.656117 433 
L 98.784 92.570248 
L 98.911883 433 
M 116.588669 433 
L 116.64 297.531723 
L 125.482941 -1 
M 125.640984 -1 
L 134.496 347.398717 
L 143.001273 -1 
M 143.430475 -1 
L 143.59275 433 
M 161.109392 433 
L 161.271633 -1 
M 180.382566 -1 
L 188.064 211.929407 
L 195.754178 -1 
M 198.213865 -1 
L 205.92 215.157647 
L 206.002257 433 
M 232.614032 433 
L 232.704 194.529342 
L 240.079043 -1 
M 242.556472 -1 
L 250.56 355.446696 
L 259.488 355.86948 
L 267.483353 -1 
M 278.338137 -1 
L 286.272 357.038723 
L 295.2 357.396593 
L 304.128 357.75129 
L 313.056 358.079937 
L 320.911019 -1 
M 340.64178 -1 
L 348.768 359.333653 
L 348.795987 433 
M 366.447685 433 
L 366.609819 -1 
M 375.566692 -1 
L 375.728817 433 
M 393.231775 433 
L 393.393912 -1 
M 394.250353 -1 
L 402.336 360.979392 
L 411.264 361.264126 
L 419.152231 -1 
M 439.081657 -1 
L 446.976 362.129558 
L 447.002928 433 
M 473.733353 433 
L 473.76 362.871601 
L 481.804017 -1 
M 510.33864 -1 
L 518.4 363.847604 
" style="fill:none;stroke:#1f77b4;stroke-linecap:square;stroke-width:1.5;"/>
   </g>
   <g id="line2d_30">
    <path clip-path="url(#p72c1c1fe87)" d="M 72 136.557894 
L 80.928 110.174913 
L 89.856 105.158246 
L 98.784 95.877333 
L 107.712 97.408514 
L 116.64 87.063152 
L 125.568 85.097879 
L 134.496 88.196738 
L 143.424 91.43432 
L 152.352 88.416924 
L 161.28 85.098087 
L 170.208 88.306453 
L 179.136 95.122042 
L 188.064 91.663482 
L 196.992 95.745713 
L 205.92 85.098087 
L 214.848 86.292598 
L 223.776 87.635313 
L 232.704 86.265756 
L 241.632 85.098087 
L 250.56 89.05042 
L 259.488 85.098087 
L 268.416 87.838187 
L 277.344 85.098087 
L 286.272 86.800106 
L 295.2 87.018368 
L 304.128 85.836154 
L 313.056 89.773763 
L 321.984 86.239679 
L 330.912 85.098087 
L 339.84 87.12128 
L 348.768 85.098087 
L 357.696 85.098087 
L 366.624 85.098087 
L 375.552 85.098087 
L 384.48 85.18031 
L 393.408 85.098087 
L 402.336 85.098147 
L 411.264 85.098355 
L 420.192 85.098355 
L 429.12 87.02526 
L 438.048 85.098356 
L 446.976 85.098356 
L 455.904 85.098356 
L 464.832 85.098356 
L 473.76 85.098512 
L 482.688 85.098725 
L 491.616 85.098726 
L 500.544 85.380573 
L 509.472 85.098729 
L 518.4 86.637828 
" style="fill:none;stroke:#ff7f0e;stroke-linecap:square;stroke-width:1.5;"/>
   </g>
   <g id="line2d_31">
    <path clip-path="url(#p72c1c1fe87)" d="M 72 110.250589 
L 80.928 106.22069 
L 89.856 112.900246 
L 98.784 117.167072 
L 107.712 120.616538 
L 116.64 123.54056 
L 125.568 125.836445 
L 134.496 127.810322 
L 143.424 129.631187 
L 152.352 131.22083 
L 161.28 132.732975 
L 170.208 134.1129 
L 179.136 135.377204 
L 188.064 136.502837 
L 196.992 137.611512 
L 205.92 138.587973 
L 214.848 139.515121 
L 223.776 140.375208 
L 232.704 141.221733 
L 241.632 142.004153 
L 250.56 142.750683 
L 259.488 143.477371 
L 268.416 144.195201 
L 277.344 144.86055 
L 286.272 145.474563 
L 295.2 146.055218 
L 304.128 146.626895 
L 313.056 147.16754 
L 321.984 147.700805 
L 330.912 148.227931 
L 339.84 148.75002 
L 348.768 149.216599 
L 357.696 149.677624 
L 366.624 150.118122 
L 375.552 150.553694 
L 384.48 150.954459 
L 393.408 151.349913 
L 402.336 151.740568 
L 411.264 152.126939 
L 420.192 152.478584 
L 429.12 152.825187 
L 438.048 153.165814 
L 446.976 153.502159 
L 455.904 153.831956 
L 464.832 154.158 
L 473.76 154.480486 
L 482.688 154.799764 
L 491.616 155.099293 
L 500.544 155.390746 
L 509.472 155.675385 
L 518.4 155.957214 
" style="fill:none;stroke:#2ca02c;stroke-linecap:square;stroke-width:1.5;"/>
   </g>
   <g id="line2d_32">
    <path clip-path="url(#p72c1c1fe87)" d="M 72 118.656103 
L 80.928 104.942907 
L 89.856 112.954643 
L 98.784 117.474927 
L 107.712 119.555144 
L 116.64 120.875439 
L 125.568 122.583233 
L 134.496 122.143676 
L 143.424 119.677715 
L 152.352 119.09987 
L 161.28 116.4542 
L 170.208 115.577721 
L 179.136 115.819092 
L 188.064 114.162065 
L 196.992 111.326345 
L 205.92 110.005111 
L 214.848 101.636412 
L 223.776 98.808027 
L 232.704 96.077956 
L 241.632 97.174888 
L 250.56 95.082572 
L 259.488 93.573633 
L 268.416 90.956962 
L 277.344 92.457179 
L 286.272 89.864521 
L 295.2 93.612628 
L 304.128 92.058622 
L 313.056 94.000441 
L 321.984 94.901768 
L 330.912 97.305562 
L 339.84 97.721821 
L 348.768 100.043311 
L 357.696 92.17099 
L 366.624 90.422653 
L 375.552 89.76287 
L 384.48 91.702687 
L 393.408 91.89606 
L 402.336 91.875413 
L 411.264 92.874605 
L 420.192 90.603549 
L 429.12 87.895955 
L 438.048 92.891813 
L 446.976 89.342693 
L 455.904 90.244898 
L 464.832 93.119868 
L 473.76 89.124017 
L 482.688 90.290521 
L 491.616 88.277421 
L 500.544 87.963969 
L 509.472 90.599005 
L 518.4 91.536769 
" style="fill:none;stroke:#d62728;stroke-linecap:square;stroke-width:1.5;"/>
   </g>
   <g id="line2d_33">
    <path clip-path="url(#p72c1c1fe87)" d="M 72 125.998257 
L 80.928 107.594552 
L 89.856 116.222859 
L 98.784 123.683668 
L 107.712 124.853199 
L 116.64 124.557085 
L 125.568 119.952712 
L 134.496 118.501773 
L 143.424 105.957081 
L 152.352 95.434098 
L 161.28 92.706868 
L 170.208 94.360424 
L 179.136 88.769231 
L 188.064 88.580999 
L 196.992 88.87834 
L 205.92 90.943773 
L 214.848 88.143354 
L 223.776 86.935884 
L 232.704 91.940976 
L 241.632 99.106767 
L 250.56 88.764641 
L 259.488 87.319778 
L 268.416 88.473238 
L 277.344 86.736283 
L 286.272 87.717211 
L 295.2 98.827709 
L 304.128 99.484861 
L 313.056 91.417378 
L 321.984 89.609709 
L 330.912 86.776408 
L 339.84 85.772369 
L 348.768 85.957165 
L 357.696 97.00794 
L 366.624 87.441674 
L 375.552 85.306677 
L 384.48 86.525159 
L 393.408 89.084199 
L 402.336 90.171212 
L 411.264 85.922292 
L 420.192 86.155657 
L 429.12 87.890636 
L 438.048 85.394342 
L 446.976 85.90562 
L 455.904 85.885218 
L 464.832 85.109547 
L 473.76 85.278217 
L 482.688 85.109547 
L 491.616 85.109547 
L 500.544 85.558533 
L 509.472 89.39443 
L 518.4 85.868608 
" style="fill:none;stroke:#9467bd;stroke-linecap:square;stroke-width:1.5;"/>
   </g>
   <g id="line2d_34">
    <path clip-path="url(#p72c1c1fe87)" d="M 72 125.468274 
L 80.928 106.033232 
L 89.856 114.021748 
L 98.784 122.058122 
L 107.712 125.608234 
L 116.64 127.05644 
L 125.568 125.139978 
L 134.496 125.417629 
L 143.424 124.152107 
L 152.352 123.841948 
L 161.28 125.117348 
L 170.208 125.630873 
L 179.136 123.958807 
L 188.064 121.013659 
L 196.992 121.453114 
L 205.92 122.841405 
L 214.848 124.235778 
L 223.776 125.409989 
L 232.704 125.767308 
L 241.632 125.625881 
L 250.56 125.168702 
L 259.488 125.169344 
L 268.416 125.186048 
L 277.344 126.202514 
L 286.272 126.671876 
L 295.2 127.11763 
L 304.128 127.652936 
L 313.056 127.990417 
L 321.984 127.86724 
L 330.912 127.494587 
L 339.84 127.190636 
L 348.768 126.137398 
L 357.696 126.094516 
L 366.624 125.491933 
L 375.552 125.803471 
L 384.48 126.245291 
L 393.408 126.046737 
L 402.336 126.210817 
L 411.264 126.554902 
L 420.192 127.01638 
L 429.12 127.547399 
L 438.048 127.97856 
L 446.976 128.418652 
L 455.904 128.346566 
L 464.832 128.077396 
L 473.76 127.32265 
L 482.688 126.973459 
L 491.616 126.45366 
L 500.544 126.22423 
L 509.472 126.530094 
L 518.4 126.894162 
" style="fill:none;stroke:#8c564b;stroke-linecap:square;stroke-width:1.5;"/>
   </g>
   <g id="line2d_35">
    <path clip-path="url(#p72c1c1fe87)" d="M 72 228.394926 
L 80.928 226.405135 
L 89.856 225.173693 
L 98.784 224.767722 
L 107.712 218.647984 
L 107.792951 433 
M 125.486775 433 
L 125.568 217.915793 
L 134.496 216.677617 
L 143.424 218.459142 
L 152.352 221.114581 
L 161.28 219.090451 
L 161.360785 433 
M 179.05438 433 
L 179.136 216.85926 
L 188.064 216.361433 
L 196.992 212.292294 
L 197.075329 433 
M 214.765459 433 
L 214.848 214.398761 
L 223.776 215.182525 
L 223.858247 433 
M 241.551861 433 
L 241.632 220.816919 
L 250.56 217.357491 
L 250.641434 433 
M 268.333901 433 
L 268.416 215.580482 
L 268.498099 433 
M 286.188515 433 
L 286.272 211.87384 
L 286.355485 433 
M 304.044103 433 
L 304.128 210.772275 
L 304.211897 433 
M 321.903503 433 
L 321.984 219.860226 
L 330.912 211.387388 
L 339.84 214.567376 
L 339.922478 433 
M 384.395683 433 
L 384.48 209.649636 
L 384.564317 433 
M 411.177323 433 
L 411.264 203.335926 
L 411.350677 433 
M 429.037683 433 
L 429.12 214.997066 
L 438.048 211.206724 
L 438.131735 433 
M 473.674579 433 
L 473.76 206.69768 
L 473.845421 433 
" style="fill:none;stroke:#e377c2;stroke-linecap:square;stroke-width:1.5;"/>
   </g>
   <g id="patch_3">
    <path d="M 72 384.48 
L 72 51.84 
" style="fill:none;stroke:#000000;stroke-linecap:square;stroke-linejoin:miter;stroke-width:0.8;"/>
   </g>
   <g id="patch_4">
    <path d="M 518.4 384.48 
L 518.4 51.84 
" style="fill:none;stroke:#000000;stroke-linecap:square;stroke-linejoin:miter;stroke-width:0.8;"/>
   </g>
   <g id="patch_5">
    <path d="M 72 384.48 
L 518.4 384.48 
" style="fill:none;stroke:#000000;stroke-linecap:square;stroke-linejoin:miter;stroke-width:0.8;"/>
   </g>
   <g id="patch_6">
    <path d="M 72 51.84 
L 518.4 51.84 
" style="fill:none;stroke:#000000;stroke-linecap:square;stroke-linejoin:miter;stroke-width:0.8;"/>
   </g>
   <g id="legend_1">
    <g id="patch_7">
     <path d="M 79 379.48 
L 165.804688 379.48 
Q 167.804688 379.48 167.804688 377.48 
L 167.804688 275.733125 
Q 167.804688 273.733125 165.804688 273.733125 
L 79 273.733125 
Q 77 273.733125 77 275.733125 
L 77 377.48 
Q 77 379.48 79 379.48 
z
" style="fill:#ffffff;opacity:0.8;stroke:#cccccc;stroke-linejoin:miter;"/>
    </g>
    <g id="line2d_36">
     <path d="M 81 281.831563 
L 101 281.831563 
" style="fill:none;stroke:#1f77b4;stroke-linecap:square;stroke-width:1.5;"/>
    </g>
    <g id="line2d_37"/>
    <g id="text_17">
     <!-- Constant -->
     <defs>
      <path d="M 64.40625 67.28125 
L 64.40625 56.890625 
Q 59.421875 61.53125 53.78125 63.8125 
Q 48.140625 66.109375 41.796875 66.109375 
Q 29.296875 66.109375 22.65625 58.46875 
Q 16.015625 50.828125 16.015625 36.375 
Q 16.015625 21.96875 22.65625 14.328125 
Q 29.296875 6.6875 41.796875 6.6875 
Q 48.140625 6.6875 53.78125 8.984375 
Q 59.421875 11.28125 64.40625 15.921875 
L 64.40625 5.609375 
Q 59.234375 2.09375 53.4375 0.328125 
Q 47.65625 -1.421875 41.21875 -1.421875 
Q 24.65625 -1.421875 15.125 8.703125 
Q 5.609375 18.84375 5.609375 36.375 
Q 5.609375 53.953125 15.125 64.078125 
Q 24.65625 74.21875 41.21875 74.21875 
Q 47.75 74.21875 53.53125 72.484375 
Q 59.328125 70.75 64.40625 67.28125 
z
" id="DejaVuSans-67"/>
      <path d="M 44.28125 53.078125 
L 44.28125 44.578125 
Q 40.484375 46.53125 36.375 47.5 
Q 32.28125 48.484375 27.875 48.484375 
Q 21.1875 48.484375 17.84375 46.4375 
Q 14.5 44.390625 14.5 40.28125 
Q 14.5 37.15625 16.890625 35.375 
Q 19.28125 33.59375 26.515625 31.984375 
L 29.59375 31.296875 
Q 39.15625 29.25 43.1875 25.515625 
Q 47.21875 21.78125 47.21875 15.09375 
Q 47.21875 7.46875 41.1875 3.015625 
Q 35.15625 -1.421875 24.609375 -1.421875 
Q 20.21875 -1.421875 15.453125 -0.5625 
Q 10.6875 0.296875 5.421875 2 
L 5.421875 11.28125 
Q 10.40625 8.6875 15.234375 7.390625 
Q 20.0625 6.109375 24.8125 6.109375 
Q 31.15625 6.109375 34.5625 8.28125 
Q 37.984375 10.453125 37.984375 14.40625 
Q 37.984375 18.0625 35.515625 20.015625 
Q 33.0625 21.96875 24.703125 23.78125 
L 21.578125 24.515625 
Q 13.234375 26.265625 9.515625 29.90625 
Q 5.8125 33.546875 5.8125 39.890625 
Q 5.8125 47.609375 11.28125 51.796875 
Q 16.75 56 26.8125 56 
Q 31.78125 56 36.171875 55.265625 
Q 40.578125 54.546875 44.28125 53.078125 
z
" id="DejaVuSans-115"/>
     </defs>
     <g transform="translate(109 285.331563)scale(0.1 -0.1)">
      <use xlink:href="#DejaVuSans-67"/>
      <use x="69.824219" xlink:href="#DejaVuSans-111"/>
      <use x="131.005859" xlink:href="#DejaVuSans-110"/>
      <use x="194.384766" xlink:href="#DejaVuSans-115"/>
      <use x="246.484375" xlink:href="#DejaVuSans-116"/>
      <use x="285.693359" xlink:href="#DejaVuSans-97"/>
      <use x="346.972656" xlink:href="#DejaVuSans-110"/>
      <use x="410.351562" xlink:href="#DejaVuSans-116"/>
     </g>
    </g>
    <g id="line2d_38">
     <path d="M 81 296.509688 
L 101 296.509688 
" style="fill:none;stroke:#ff7f0e;stroke-linecap:square;stroke-width:1.5;"/>
    </g>
    <g id="line2d_39"/>
    <g id="text_18">
     <!-- RBF -->
     <defs>
      <path d="M 44.390625 34.1875 
Q 47.5625 33.109375 50.5625 29.59375 
Q 53.5625 26.078125 56.59375 19.921875 
L 66.609375 0 
L 56 0 
L 46.6875 18.703125 
Q 43.0625 26.03125 39.671875 28.421875 
Q 36.28125 30.8125 30.421875 30.8125 
L 19.671875 30.8125 
L 19.671875 0 
L 9.8125 0 
L 9.8125 72.90625 
L 32.078125 72.90625 
Q 44.578125 72.90625 50.734375 67.671875 
Q 56.890625 62.453125 56.890625 51.90625 
Q 56.890625 45.015625 53.6875 40.46875 
Q 50.484375 35.9375 44.390625 34.1875 
z
M 19.671875 64.796875 
L 19.671875 38.921875 
L 32.078125 38.921875 
Q 39.203125 38.921875 42.84375 42.21875 
Q 46.484375 45.515625 46.484375 51.90625 
Q 46.484375 58.296875 42.84375 61.546875 
Q 39.203125 64.796875 32.078125 64.796875 
z
" id="DejaVuSans-82"/>
      <path d="M 19.671875 34.8125 
L 19.671875 8.109375 
L 35.5 8.109375 
Q 43.453125 8.109375 47.28125 11.40625 
Q 51.125 14.703125 51.125 21.484375 
Q 51.125 28.328125 47.28125 31.5625 
Q 43.453125 34.8125 35.5 34.8125 
z
M 19.671875 64.796875 
L 19.671875 42.828125 
L 34.28125 42.828125 
Q 41.5 42.828125 45.03125 45.53125 
Q 48.578125 48.25 48.578125 53.8125 
Q 48.578125 59.328125 45.03125 62.0625 
Q 41.5 64.796875 34.28125 64.796875 
z
M 9.8125 72.90625 
L 35.015625 72.90625 
Q 46.296875 72.90625 52.390625 68.21875 
Q 58.5 63.53125 58.5 54.890625 
Q 58.5 48.1875 55.375 44.234375 
Q 52.25 40.28125 46.1875 39.3125 
Q 53.46875 37.75 57.5 32.78125 
Q 61.53125 27.828125 61.53125 20.40625 
Q 61.53125 10.640625 54.890625 5.3125 
Q 48.25 0 35.984375 0 
L 9.8125 0 
z
" id="DejaVuSans-66"/>
      <path d="M 9.8125 72.90625 
L 51.703125 72.90625 
L 51.703125 64.59375 
L 19.671875 64.59375 
L 19.671875 43.109375 
L 48.578125 43.109375 
L 48.578125 34.8125 
L 19.671875 34.8125 
L 19.671875 0 
L 9.8125 0 
z
" id="DejaVuSans-70"/>
     </defs>
     <g transform="translate(109 300.009688)scale(0.1 -0.1)">
      <use xlink:href="#DejaVuSans-82"/>
      <use x="69.482422" xlink:href="#DejaVuSans-66"/>
      <use x="138.085938" xlink:href="#DejaVuSans-70"/>
     </g>
    </g>
    <g id="line2d_40">
     <path d="M 81 311.187813 
L 101 311.187813 
" style="fill:none;stroke:#2ca02c;stroke-linecap:square;stroke-width:1.5;"/>
    </g>
    <g id="line2d_41"/>
    <g id="text_19">
     <!-- Matrn-1/2 -->
     <defs>
      <path d="M 9.8125 72.90625 
L 24.515625 72.90625 
L 43.109375 23.296875 
L 61.8125 72.90625 
L 76.515625 72.90625 
L 76.515625 0 
L 66.890625 0 
L 66.890625 64.015625 
L 48.09375 14.015625 
L 38.1875 14.015625 
L 19.390625 64.015625 
L 19.390625 0 
L 9.8125 0 
z
" id="DejaVuSans-77"/>
      <path d="M 56.203125 29.59375 
L 56.203125 25.203125 
L 14.890625 25.203125 
Q 15.484375 15.921875 20.484375 11.0625 
Q 25.484375 6.203125 34.421875 6.203125 
Q 39.59375 6.203125 44.453125 7.46875 
Q 49.3125 8.734375 54.109375 11.28125 
L 54.109375 2.78125 
Q 49.265625 0.734375 44.1875 -0.34375 
Q 39.109375 -1.421875 33.890625 -1.421875 
Q 20.796875 -1.421875 13.15625 6.1875 
Q 5.515625 13.8125 5.515625 26.8125 
Q 5.515625 40.234375 12.765625 48.109375 
Q 20.015625 56 32.328125 56 
Q 43.359375 56 49.78125 48.890625 
Q 56.203125 41.796875 56.203125 29.59375 
z
M 47.21875 32.234375 
Q 47.125 39.59375 43.09375 43.984375 
Q 39.0625 48.390625 32.421875 48.390625 
Q 24.90625 48.390625 20.390625 44.140625 
Q 15.875 39.890625 15.1875 32.171875 
z
M 38.53125 79.984375 
L 48.25 79.984375 
L 32.34375 61.625 
L 24.859375 61.625 
z
" id="DejaVuSans-233"/>
      <path d="M 4.890625 31.390625 
L 31.203125 31.390625 
L 31.203125 23.390625 
L 4.890625 23.390625 
z
" id="DejaVuSans-45"/>
      <path d="M 25.390625 72.90625 
L 33.6875 72.90625 
L 8.296875 -9.28125 
L 0 -9.28125 
z
" id="DejaVuSans-47"/>
     </defs>
     <g transform="translate(109 314.687813)scale(0.1 -0.1)">
      <use xlink:href="#DejaVuSans-77"/>
      <use x="86.279297" xlink:href="#DejaVuSans-97"/>
      <use x="147.558594" xlink:href="#DejaVuSans-116"/>
      <use x="186.767578" xlink:href="#DejaVuSans-233"/>
      <use x="248.291016" xlink:href="#DejaVuSans-114"/>
      <use x="287.654297" xlink:href="#DejaVuSans-110"/>
      <use x="351.033203" xlink:href="#DejaVuSans-45"/>
      <use x="387.117188" xlink:href="#DejaVuSans-49"/>
      <use x="450.740234" xlink:href="#DejaVuSans-47"/>
      <use x="484.431641" xlink:href="#DejaVuSans-50"/>
     </g>
    </g>
    <g id="line2d_42">
     <path d="M 81 325.865938 
L 101 325.865938 
" style="fill:none;stroke:#d62728;stroke-linecap:square;stroke-width:1.5;"/>
    </g>
    <g id="line2d_43"/>
    <g id="text_20">
     <!-- Matrn-3/2 -->
     <g transform="translate(109 329.365938)scale(0.1 -0.1)">
      <use xlink:href="#DejaVuSans-77"/>
      <use x="86.279297" xlink:href="#DejaVuSans-97"/>
      <use x="147.558594" xlink:href="#DejaVuSans-116"/>
      <use x="186.767578" xlink:href="#DejaVuSans-233"/>
      <use x="248.291016" xlink:href="#DejaVuSans-114"/>
      <use x="287.654297" xlink:href="#DejaVuSans-110"/>
      <use x="351.033203" xlink:href="#DejaVuSans-45"/>
      <use x="387.117188" xlink:href="#DejaVuSans-51"/>
      <use x="450.740234" xlink:href="#DejaVuSans-47"/>
      <use x="484.431641" xlink:href="#DejaVuSans-50"/>
     </g>
    </g>
    <g id="line2d_44">
     <path d="M 81 340.544062 
L 101 340.544062 
" style="fill:none;stroke:#9467bd;stroke-linecap:square;stroke-width:1.5;"/>
    </g>
    <g id="line2d_45"/>
    <g id="text_21">
     <!-- Matrn-5/2 -->
     <g transform="translate(109 344.044062)scale(0.1 -0.1)">
      <use xlink:href="#DejaVuSans-77"/>
      <use x="86.279297" xlink:href="#DejaVuSans-97"/>
      <use x="147.558594" xlink:href="#DejaVuSans-116"/>
      <use x="186.767578" xlink:href="#DejaVuSans-233"/>
      <use x="248.291016" xlink:href="#DejaVuSans-114"/>
      <use x="287.654297" xlink:href="#DejaVuSans-110"/>
      <use x="351.033203" xlink:href="#DejaVuSans-45"/>
      <use x="387.117188" xlink:href="#DejaVuSans-53"/>
      <use x="450.740234" xlink:href="#DejaVuSans-47"/>
      <use x="484.431641" xlink:href="#DejaVuSans-50"/>
     </g>
    </g>
    <g id="line2d_46">
     <path d="M 81 355.222188 
L 101 355.222188 
" style="fill:none;stroke:#8c564b;stroke-linecap:square;stroke-width:1.5;"/>
    </g>
    <g id="line2d_47"/>
    <g id="text_22">
     <!-- RQ -->
     <defs>
      <path d="M 39.40625 66.21875 
Q 28.65625 66.21875 22.328125 58.203125 
Q 16.015625 50.203125 16.015625 36.375 
Q 16.015625 22.609375 22.328125 14.59375 
Q 28.65625 6.59375 39.40625 6.59375 
Q 50.140625 6.59375 56.421875 14.59375 
Q 62.703125 22.609375 62.703125 36.375 
Q 62.703125 50.203125 56.421875 58.203125 
Q 50.140625 66.21875 39.40625 66.21875 
z
M 53.21875 1.3125 
L 66.21875 -12.890625 
L 54.296875 -12.890625 
L 43.5 -1.21875 
Q 41.890625 -1.3125 41.03125 -1.359375 
Q 40.1875 -1.421875 39.40625 -1.421875 
Q 24.03125 -1.421875 14.8125 8.859375 
Q 5.609375 19.140625 5.609375 36.375 
Q 5.609375 53.65625 14.8125 63.9375 
Q 24.03125 74.21875 39.40625 74.21875 
Q 54.734375 74.21875 63.90625 63.9375 
Q 73.09375 53.65625 73.09375 36.375 
Q 73.09375 23.6875 67.984375 14.640625 
Q 62.890625 5.609375 53.21875 1.3125 
z
" id="DejaVuSans-81"/>
     </defs>
     <g transform="translate(109 358.722188)scale(0.1 -0.1)">
      <use xlink:href="#DejaVuSans-82"/>
      <use x="69.482422" xlink:href="#DejaVuSans-81"/>
     </g>
    </g>
    <g id="line2d_48">
     <path d="M 81 369.900313 
L 101 369.900313 
" style="fill:none;stroke:#e377c2;stroke-linecap:square;stroke-width:1.5;"/>
    </g>
    <g id="line2d_49"/>
    <g id="text_23">
     <!-- Dot Prod. -->
     <defs>
      <path d="M 19.671875 64.796875 
L 19.671875 8.109375 
L 31.59375 8.109375 
Q 46.6875 8.109375 53.6875 14.9375 
Q 60.6875 21.78125 60.6875 36.53125 
Q 60.6875 51.171875 53.6875 57.984375 
Q 46.6875 64.796875 31.59375 64.796875 
z
M 9.8125 72.90625 
L 30.078125 72.90625 
Q 51.265625 72.90625 61.171875 64.09375 
Q 71.09375 55.28125 71.09375 36.53125 
Q 71.09375 17.671875 61.125 8.828125 
Q 51.171875 0 30.078125 0 
L 9.8125 0 
z
" id="DejaVuSans-68"/>
      <path d="M 19.671875 64.796875 
L 19.671875 37.40625 
L 32.078125 37.40625 
Q 38.96875 37.40625 42.71875 40.96875 
Q 46.484375 44.53125 46.484375 51.125 
Q 46.484375 57.671875 42.71875 61.234375 
Q 38.96875 64.796875 32.078125 64.796875 
z
M 9.8125 72.90625 
L 32.078125 72.90625 
Q 44.34375 72.90625 50.609375 67.359375 
Q 56.890625 61.8125 56.890625 51.125 
Q 56.890625 40.328125 50.609375 34.8125 
Q 44.34375 29.296875 32.078125 29.296875 
L 19.671875 29.296875 
L 19.671875 0 
L 9.8125 0 
z
" id="DejaVuSans-80"/>
      <path d="M 10.6875 12.40625 
L 21 12.40625 
L 21 0 
L 10.6875 0 
z
" id="DejaVuSans-46"/>
     </defs>
     <g transform="translate(109 373.400313)scale(0.1 -0.1)">
      <use xlink:href="#DejaVuSans-68"/>
      <use x="77.001953" xlink:href="#DejaVuSans-111"/>
      <use x="138.183594" xlink:href="#DejaVuSans-116"/>
      <use x="177.392578" xlink:href="#DejaVuSans-32"/>
      <use x="209.179688" xlink:href="#DejaVuSans-80"/>
      <use x="267.732422" xlink:href="#DejaVuSans-114"/>
      <use x="306.595703" xlink:href="#DejaVuSans-111"/>
      <use x="367.777344" xlink:href="#DejaVuSans-100"/>
      <use x="431.253906" xlink:href="#DejaVuSans-46"/>
     </g>
    </g>
   </g>
  </g>
 </g>
 <defs>
  <clipPath id="p72c1c1fe87">
   <rect height="332.64" width="446.4" x="72" y="51.84"/>
  </clipPath>
 </defs>
</svg>
