<?xml version="1.0" encoding="utf-8" standalone="no"?>
<!DOCTYPE svg PUBLIC "-//W3C//DTD SVG 1.1//EN"
  "http://www.w3.org/Graphics/SVG/1.1/DTD/svg11.dtd">
<!-- Created with matplotlib (https://matplotlib.org/) -->
<svg height="432pt" version="1.1" viewBox="0 0 576 432" width="576pt" xmlns="http://www.w3.org/2000/svg" xmlns:xlink="http://www.w3.org/1999/xlink">
 <defs>
  <style type="text/css">
*{stroke-linecap:butt;stroke-linejoin:round;}
  </style>
 </defs>
 <g id="figure_1">
  <g id="patch_1">
   <path d="M 0 432 
L 576 432 
L 576 0 
L 0 0 
z
" style="fill:#ffffff;"/>
  </g>
  <g id="axes_1">
   <g id="patch_2">
    <path d="M 72 384.48 
L 518.4 384.48 
L 518.4 51.84 
L 72 51.84 
z
" style="fill:#ffffff;"/>
   </g>
   <g id="PolyCollection_1">
    <path clip-path="url(#p83542a46f0)" d="M 72 99.404969 
L 72 97.112458 
L 80.928 97.104298 
L 89.856 95.652248 
L 98.784 97.650114 
L 107.712 98.039532 
L 116.64 99.231033 
L 125.568 98.735031 
L 134.496 99.27693 
L 143.424 97.064508 
L 152.352 99.29755 
L 161.28 97.066571 
L 170.208 92.216551 
L 179.136 99.108674 
L 188.064 99.325561 
L 196.992 98.740945 
L 205.92 99.330394 
L 214.848 99.36 
L 223.776 99.335646 
L 232.704 99.36 
L 241.632 93.496612 
L 250.56 99.36 
L 259.488 99.34268 
L 268.416 99.354203 
L 277.344 98.005675 
L 286.272 99.308952 
L 295.2 99.348448 
L 304.128 99.36 
L 313.056 99.349932 
L 321.984 94.760791 
L 330.912 92.86228 
L 339.84 97.05948 
L 348.768 99.282711 
L 357.696 97.560966 
L 366.624 99.209694 
L 375.552 99.197478 
L 384.48 88.11143 
L 393.408 98.739277 
L 402.336 99.20519 
L 411.264 99.264881 
L 420.192 97.067216 
L 429.12 98.88553 
L 438.048 99.296372 
L 446.976 99.339617 
L 455.904 99.354885 
L 464.832 84.083106 
L 473.76 99.355283 
L 482.688 92.378389 
L 491.616 95.9666 
L 500.544 98.009065 
L 509.472 90.770377 
L 518.4 99.302017 
L 518.4 99.302017 
L 518.4 99.302017 
L 509.472 90.770377 
L 500.544 98.009065 
L 491.616 95.9666 
L 482.688 92.378389 
L 473.76 99.355283 
L 464.832 84.083106 
L 455.904 99.354885 
L 446.976 99.339617 
L 438.048 99.296372 
L 429.12 98.88553 
L 420.192 97.067216 
L 411.264 99.264881 
L 402.336 99.20519 
L 393.408 98.739277 
L 384.48 88.11143 
L 375.552 99.197478 
L 366.624 99.209694 
L 357.696 97.560966 
L 348.768 99.282711 
L 339.84 97.05948 
L 330.912 92.86228 
L 321.984 94.760791 
L 313.056 99.349932 
L 304.128 99.36 
L 295.2 99.348448 
L 286.272 99.308952 
L 277.344 98.005675 
L 268.416 99.354203 
L 259.488 99.34268 
L 250.56 99.36 
L 241.632 93.496612 
L 232.704 99.36 
L 223.776 99.335646 
L 214.848 99.36 
L 205.92 99.330394 
L 196.992 98.740945 
L 188.064 99.325561 
L 179.136 99.108674 
L 170.208 92.216551 
L 161.28 97.066571 
L 152.352 99.29755 
L 143.424 97.064508 
L 134.496 99.27693 
L 125.568 98.735031 
L 116.64 99.235558 
L 107.712 99.386424 
L 98.784 98.761069 
L 89.856 99.434185 
L 80.928 98.99638 
L 72 99.404969 
z
" style="fill:#1f77b4;fill-opacity:0.3;"/>
   </g>
   <g id="PolyCollection_2">
    <path clip-path="url(#p83542a46f0)" d="M 72 104.166317 
L 72 99.346173 
L 80.928 99.226282 
L 89.856 97.810365 
L 98.784 97.579267 
L 107.712 97.622677 
L 116.64 98.678278 
L 125.568 99.388768 
L 134.496 97.823721 
L 143.424 96.644015 
L 152.352 97.942066 
L 161.28 99.388628 
L 170.208 96.924266 
L 179.136 96.788636 
L 188.064 97.353487 
L 196.992 96.682843 
L 205.92 99.388628 
L 214.848 97.710143 
L 223.776 97.819132 
L 232.704 97.730852 
L 241.632 99.388628 
L 250.56 97.591385 
L 259.488 99.388628 
L 268.416 98.18503 
L 277.344 99.388628 
L 286.272 97.634717 
L 295.2 98.16157 
L 304.128 99.339466 
L 313.056 97.021048 
L 321.984 97.717766 
L 330.912 99.388628 
L 339.84 97.824956 
L 348.768 99.388628 
L 357.696 99.388628 
L 366.624 99.388628 
L 375.552 99.388628 
L 384.48 98.73165 
L 393.408 99.388628 
L 402.336 99.388949 
L 411.264 99.389507 
L 420.192 99.389507 
L 429.12 98.060332 
L 438.048 99.389558 
L 446.976 99.389558 
L 455.904 99.389558 
L 464.832 99.389558 
L 473.76 99.389877 
L 482.688 99.390492 
L 491.616 99.390509 
L 500.544 98.486278 
L 509.472 99.390573 
L 518.4 97.500438 
L 518.4 101.943693 
L 518.4 101.943693 
L 509.472 99.418632 
L 500.544 100.093482 
L 491.616 99.41838 
L 482.688 99.418323 
L 473.76 99.418161 
L 464.832 99.418059 
L 455.904 99.418059 
L 446.976 99.418059 
L 438.048 99.418059 
L 429.12 101.194155 
L 420.192 99.418055 
L 411.264 99.418055 
L 402.336 99.417899 
L 393.408 99.417822 
L 384.48 99.907388 
L 375.552 99.417822 
L 366.624 99.417822 
L 357.696 99.417822 
L 348.768 99.417822 
L 339.84 101.337472 
L 330.912 99.417822 
L 321.984 101.651069 
L 313.056 103.123358 
L 304.128 99.488345 
L 295.2 101.057846 
L 286.272 101.75983 
L 277.344 99.417822 
L 268.416 101.178819 
L 259.488 99.417822 
L 250.56 101.793276 
L 241.632 99.417822 
L 232.704 101.632636 
L 223.776 101.795559 
L 214.848 101.660248 
L 205.92 99.417822 
L 196.992 106.204353 
L 188.064 103.047169 
L 179.136 104.226801 
L 170.208 102.484068 
L 161.28 99.417822 
L 152.352 101.611877 
L 143.424 103.826593 
L 134.496 100.250331 
L 125.568 99.417267 
L 116.64 99.883583 
L 107.712 103.511438 
L 98.784 104.444486 
L 89.856 106.118068 
L 80.928 106.438164 
L 72 104.166317 
z
" style="fill:#ff7f0e;fill-opacity:0.3;"/>
   </g>
   <g id="PolyCollection_3">
    <path clip-path="url(#p83542a46f0)" d="M 72 108.150244 
L 72 101.073803 
L 80.928 107.412529 
L 89.856 109.09141 
L 98.784 108.910857 
L 107.712 108.765016 
L 116.64 108.740658 
L 125.568 108.736143 
L 134.496 108.736426 
L 143.424 109.360574 
L 152.352 109.520773 
L 161.28 109.508642 
L 170.208 109.369947 
L 179.136 109.342773 
L 188.064 109.312523 
L 196.992 109.272127 
L 205.92 109.268067 
L 214.848 109.260141 
L 223.776 109.206358 
L 232.704 109.136758 
L 241.632 109.038744 
L 250.56 108.908682 
L 259.488 108.716879 
L 268.416 108.432203 
L 277.344 107.967603 
L 286.272 107.853357 
L 295.2 107.759003 
L 304.128 107.682101 
L 313.056 107.620016 
L 321.984 107.570207 
L 330.912 107.530406 
L 339.84 107.498669 
L 348.768 107.473611 
L 357.696 107.453642 
L 366.624 107.437717 
L 375.552 107.425008 
L 384.48 107.414873 
L 393.408 107.406774 
L 402.336 107.4003 
L 411.264 107.395128 
L 420.192 107.394508 
L 429.12 107.393985 
L 438.048 107.393544 
L 446.976 107.393169 
L 455.904 107.392848 
L 464.832 107.392574 
L 473.76 107.392337 
L 482.688 107.392133 
L 491.616 107.391956 
L 500.544 107.391803 
L 509.472 107.391669 
L 518.4 107.391552 
L 518.4 128.208052 
L 518.4 128.208052 
L 509.472 128.207873 
L 500.544 128.207667 
L 491.616 128.207431 
L 482.688 128.20716 
L 473.76 128.206846 
L 464.832 128.206483 
L 455.904 128.206061 
L 446.976 128.205568 
L 438.048 128.204991 
L 429.12 128.204312 
L 420.192 128.203509 
L 411.264 128.202554 
L 402.336 128.194586 
L 393.408 128.184608 
L 384.48 128.172118 
L 375.552 128.156481 
L 366.624 128.136848 
L 357.696 128.112224 
L 348.768 128.081306 
L 339.84 128.042446 
L 330.912 127.99313 
L 321.984 127.931115 
L 313.056 127.853237 
L 304.128 127.75572 
L 295.2 127.634202 
L 286.272 127.483901 
L 277.344 127.299927 
L 268.416 126.52067 
L 259.488 126.001039 
L 250.56 125.611939 
L 241.632 125.307388 
L 232.704 125.041975 
L 223.776 124.813859 
L 214.848 124.605981 
L 205.92 124.295584 
L 196.992 124.069392 
L 188.064 123.822979 
L 179.136 123.523749 
L 170.208 122.747799 
L 161.28 122.331278 
L 152.352 122.105778 
L 143.424 121.928196 
L 134.496 122.057854 
L 125.568 122.054857 
L 116.64 122.042806 
L 107.712 121.986864 
L 98.784 121.619247 
L 89.856 120.15604 
L 80.928 118.382252 
L 72 108.150244 
z
" style="fill:#2ca02c;fill-opacity:0.3;"/>
   </g>
   <g id="PolyCollection_4">
    <path clip-path="url(#p83542a46f0)" d="M 72 108.07075 
L 72 99.908368 
L 80.928 102.11927 
L 89.856 103.481538 
L 98.784 104.675869 
L 107.712 105.250408 
L 116.64 105.69783 
L 125.568 106.191427 
L 134.496 106.584512 
L 143.424 106.857638 
L 152.352 107.808022 
L 161.28 107.380767 
L 170.208 109.049448 
L 179.136 109.956195 
L 188.064 109.252044 
L 196.992 107.05448 
L 205.92 105.0275 
L 214.848 98.187008 
L 223.776 96.713139 
L 232.704 95.18778 
L 241.632 95.384537 
L 250.56 94.246874 
L 259.488 94.145061 
L 268.416 93.129493 
L 277.344 93.561029 
L 286.272 92.863072 
L 295.2 93.693955 
L 304.128 93.247435 
L 313.056 93.613301 
L 321.984 93.713135 
L 330.912 95.079793 
L 339.84 94.586025 
L 348.768 96.426442 
L 357.696 92.660319 
L 366.624 92.312611 
L 375.552 92.278571 
L 384.48 92.480215 
L 393.408 92.450323 
L 402.336 92.404581 
L 411.264 92.948559 
L 420.192 92.147814 
L 429.12 92.511285 
L 438.048 92.555776 
L 446.976 92.135604 
L 455.904 91.985794 
L 464.832 92.408131 
L 473.76 91.905719 
L 482.688 92.07784 
L 491.616 92.642941 
L 500.544 92.36011 
L 509.472 92.132113 
L 518.4 92.202502 
L 518.4 119.040653 
L 518.4 119.040653 
L 509.472 117.253477 
L 500.544 112.371081 
L 491.616 112.279639 
L 482.688 118.083268 
L 473.76 115.716302 
L 464.832 122.300671 
L 455.904 116.899873 
L 446.976 115.307618 
L 438.048 121.804188 
L 429.12 111.994084 
L 420.192 117.933648 
L 411.264 122.423558 
L 402.336 120.440714 
L 393.408 120.30432 
L 384.48 120.211257 
L 375.552 116.201742 
L 366.624 117.50209 
L 357.696 119.654471 
L 348.768 128.474795 
L 339.84 125.29227 
L 330.912 126.355028 
L 321.984 123.122974 
L 313.056 122.06748 
L 304.128 118.938838 
L 295.2 121.735386 
L 286.272 116.095514 
L 277.344 119.054889 
L 268.416 114.687717 
L 259.488 118.678209 
L 250.56 119.581882 
L 241.632 123.014716 
L 232.704 121.077972 
L 223.776 124.628603 
L 214.848 124.803482 
L 205.92 129.094234 
L 196.992 130.078479 
L 188.064 128.582867 
L 179.136 127.411032 
L 170.208 126.26983 
L 161.28 124.507889 
L 152.352 123.050987 
L 143.424 121.878075 
L 134.496 119.643794 
L 125.568 118.444438 
L 116.64 117.972241 
L 107.712 117.835988 
L 98.784 116.905348 
L 89.856 116.2467 
L 80.928 114.112818 
L 72 108.07075 
z
" style="fill:#d62728;fill-opacity:0.3;"/>
   </g>
   <g id="PolyCollection_5">
    <path clip-path="url(#p83542a46f0)" d="M 72 106.735891 
L 72 100.159155 
L 80.928 100.943041 
L 89.856 102.861187 
L 98.784 103.631513 
L 107.712 104.131056 
L 116.64 102.987367 
L 125.568 103.876743 
L 134.496 104.456447 
L 143.424 98.881148 
L 152.352 95.346823 
L 161.28 94.714067 
L 170.208 95.377957 
L 179.136 95.436859 
L 188.064 95.590481 
L 196.992 95.266763 
L 205.92 94.830415 
L 214.848 95.44792 
L 223.776 96.189696 
L 232.704 94.868246 
L 241.632 95.675367 
L 250.56 94.857962 
L 259.488 95.064698 
L 268.416 94.848738 
L 277.344 95.493549 
L 286.272 94.628638 
L 295.2 95.724481 
L 304.128 95.413585 
L 313.056 94.132697 
L 321.984 94.302536 
L 330.912 95.393501 
L 339.84 96.249364 
L 348.768 96.260051 
L 357.696 94.821142 
L 366.624 95.150046 
L 375.552 98.711756 
L 384.48 96.370291 
L 393.408 94.292832 
L 402.336 94.141292 
L 411.264 96.452646 
L 420.192 96.262502 
L 429.12 94.410442 
L 438.048 98.750189 
L 446.976 96.402105 
L 455.904 96.033663 
L 464.832 99.392801 
L 473.76 99.14671 
L 482.688 99.392837 
L 491.616 99.392842 
L 500.544 96.17086 
L 509.472 94.081901 
L 518.4 96.124462 
L 518.4 103.80339 
L 518.4 103.80339 
L 509.472 110.077912 
L 500.544 103.741525 
L 491.616 99.437129 
L 482.688 99.437128 
L 473.76 99.773497 
L 464.832 99.437129 
L 455.904 103.92449 
L 446.976 103.431752 
L 438.048 100.302193 
L 429.12 108.867666 
L 420.192 103.854834 
L 411.264 103.36423 
L 402.336 111.112552 
L 393.408 109.64206 
L 384.48 104.091662 
L 375.552 100.352462 
L 366.624 106.56256 
L 357.696 117.306226 
L 348.768 103.62 
L 339.84 103.635727 
L 330.912 105.49868 
L 321.984 109.636086 
L 313.056 111.841844 
L 304.128 118.530402 
L 295.2 119.160631 
L 286.272 108.199681 
L 277.344 105.346691 
L 268.416 107.7919 
L 259.488 106.702698 
L 250.56 108.093086 
L 241.632 117.291744 
L 232.704 111.696879 
L 223.776 104.533388 
L 214.848 106.0303 
L 205.92 110.197439 
L 196.992 107.020648 
L 188.064 106.091339 
L 179.136 106.963783 
L 170.208 111.65996 
L 161.28 109.677169 
L 152.352 111.586204 
L 143.424 115.709907 
L 134.496 120.202577 
L 125.568 118.719326 
L 116.64 116.240054 
L 107.712 116.186755 
L 98.784 114.036681 
L 89.856 114.246103 
L 80.928 110.323494 
L 72 106.735891 
z
" style="fill:#9467bd;fill-opacity:0.3;"/>
   </g>
   <g id="PolyCollection_6">
    <path clip-path="url(#p83542a46f0)" d="M 72 106.891907 
L 72 99.849225 
L 80.928 101.847859 
L 89.856 106.829627 
L 98.784 109.732707 
L 107.712 110.977795 
L 116.64 111.311519 
L 125.568 114.695723 
L 134.496 115.312463 
L 143.424 117.330725 
L 152.352 119.845978 
L 161.28 121.0168 
L 170.208 122.199437 
L 179.136 123.334172 
L 188.064 126.75593 
L 196.992 127.27329 
L 205.92 127.546737 
L 214.848 127.857042 
L 223.776 128.431467 
L 232.704 128.722849 
L 241.632 129.566242 
L 250.56 130.831547 
L 259.488 131.224067 
L 268.416 130.251162 
L 277.344 131.529868 
L 286.272 131.434575 
L 295.2 131.867569 
L 304.128 132.131776 
L 313.056 132.245932 
L 321.984 132.556757 
L 330.912 133.110366 
L 339.84 134.098623 
L 348.768 136.206942 
L 357.696 136.609134 
L 366.624 137.305771 
L 375.552 137.549734 
L 384.48 137.688712 
L 393.408 138.53622 
L 402.336 139.185064 
L 411.264 139.508788 
L 420.192 139.770615 
L 429.12 139.804521 
L 438.048 139.814266 
L 446.976 139.888278 
L 455.904 139.924826 
L 464.832 140.029213 
L 473.76 141.269965 
L 482.688 142.162687 
L 491.616 143.174734 
L 500.544 144.310751 
L 509.472 144.301757 
L 518.4 144.291798 
L 518.4 150.138724 
L 518.4 150.138724 
L 509.472 149.952327 
L 500.544 149.831453 
L 491.616 149.831807 
L 482.688 149.134689 
L 473.76 148.370084 
L 464.832 147.152294 
L 455.904 146.218721 
L 446.976 145.774218 
L 438.048 145.531127 
L 429.12 145.441197 
L 420.192 145.507091 
L 411.264 145.388611 
L 402.336 145.184595 
L 393.408 144.777862 
L 384.48 144.107129 
L 375.552 143.853064 
L 366.624 143.427268 
L 357.696 142.175687 
L 348.768 142.058466 
L 339.84 141.444193 
L 330.912 140.818014 
L 321.984 140.204175 
L 313.056 139.047843 
L 304.128 138.630597 
L 295.2 138.238077 
L 286.272 138.107137 
L 277.344 137.576461 
L 268.416 137.517764 
L 259.488 136.141211 
L 250.56 135.545557 
L 241.632 135.39624 
L 232.704 134.60668 
L 223.776 133.48949 
L 214.848 133.318774 
L 205.92 132.859094 
L 196.992 132.654402 
L 188.064 131.966371 
L 179.136 129.971435 
L 170.208 128.19839 
L 161.28 126.970632 
L 152.352 126.315725 
L 143.424 125.055745 
L 134.496 123.333088 
L 125.568 122.514989 
L 116.64 120.788316 
L 107.712 119.172381 
L 98.784 117.336973 
L 89.856 115.749191 
L 80.928 113.678259 
L 72 106.891907 
z
" style="fill:#8c564b;fill-opacity:0.3;"/>
   </g>
   <g id="PolyCollection_7">
    <path clip-path="url(#p83542a46f0)" d="M 72 110.947562 
L 72 106.471164 
L 80.928 110.39075 
L 89.856 109.149577 
L 98.784 107.740068 
L 107.712 107.085421 
L 116.64 108.169239 
L 125.568 108.729145 
L 134.496 108.606188 
L 143.424 108.234969 
L 152.352 108.063003 
L 161.28 107.436586 
L 170.208 107.54055 
L 179.136 107.353206 
L 188.064 107.591807 
L 196.992 107.453482 
L 205.92 107.729105 
L 214.848 108.216948 
L 223.776 108.646415 
L 232.704 108.839695 
L 241.632 108.992779 
L 250.56 109.240585 
L 259.488 109.357437 
L 268.416 109.379884 
L 277.344 109.48588 
L 286.272 109.231074 
L 295.2 109.452836 
L 304.128 109.461319 
L 313.056 109.388021 
L 321.984 109.419721 
L 330.912 109.444204 
L 339.84 109.31996 
L 348.768 109.455471 
L 357.696 109.49198 
L 366.624 109.341014 
L 375.552 109.313735 
L 384.48 109.357056 
L 393.408 109.360491 
L 402.336 109.431102 
L 411.264 109.550186 
L 420.192 109.410254 
L 429.12 109.396678 
L 438.048 109.428813 
L 446.976 109.329574 
L 455.904 109.377583 
L 464.832 109.464359 
L 473.76 109.404517 
L 482.688 109.389505 
L 491.616 109.42445 
L 500.544 109.395985 
L 509.472 109.403063 
L 518.4 109.506519 
L 518.4 111.976946 
L 518.4 111.976946 
L 509.472 111.990346 
L 500.544 111.992988 
L 491.616 111.9848 
L 482.688 111.953153 
L 473.76 111.970564 
L 464.832 111.93843 
L 455.904 111.916591 
L 446.976 111.943066 
L 438.048 111.94131 
L 429.12 112.028506 
L 420.192 112.042268 
L 411.264 112.055424 
L 402.336 112.041703 
L 393.408 112.075896 
L 384.48 112.097102 
L 375.552 112.169826 
L 366.624 112.16234 
L 357.696 112.25343 
L 348.768 112.255996 
L 339.84 112.279882 
L 330.912 112.286931 
L 321.984 112.363617 
L 313.056 112.310617 
L 304.128 112.366178 
L 295.2 112.38371 
L 286.272 112.373655 
L 277.344 112.445453 
L 268.416 112.43909 
L 259.488 112.465076 
L 250.56 112.41348 
L 241.632 112.568169 
L 232.704 112.581448 
L 223.776 112.76567 
L 214.848 112.501471 
L 205.92 112.671121 
L 196.992 112.603104 
L 188.064 112.667766 
L 179.136 112.474315 
L 170.208 112.589815 
L 161.28 112.450684 
L 152.352 112.708718 
L 143.424 112.66621 
L 134.496 112.988804 
L 125.568 113.34404 
L 116.64 113.31368 
L 107.712 112.651628 
L 98.784 112.383185 
L 89.856 112.543581 
L 80.928 112.257176 
L 72 110.947562 
z
" style="fill:#e377c2;fill-opacity:0.3;"/>
   </g>
   <g id="matplotlib.axis_1">
    <g id="xtick_1">
     <g id="line2d_1">
      <path clip-path="url(#p83542a46f0)" d="M 72 384.48 
L 72 51.84 
" style="fill:none;stroke:#b0b0b0;stroke-linecap:square;stroke-width:0.8;"/>
     </g>
     <g id="line2d_2">
      <defs>
       <path d="M 0 0 
L 0 3.5 
" id="me3a79e865a" style="stroke:#000000;stroke-width:0.8;"/>
      </defs>
      <g>
       <use style="stroke:#000000;stroke-width:0.8;" x="72" xlink:href="#me3a79e865a" y="384.48"/>
      </g>
     </g>
     <g id="text_1">
      <!-- 0 -->
      <defs>
       <path d="M 31.78125 66.40625 
Q 24.171875 66.40625 20.328125 58.90625 
Q 16.5 51.421875 16.5 36.375 
Q 16.5 21.390625 20.328125 13.890625 
Q 24.171875 6.390625 31.78125 6.390625 
Q 39.453125 6.390625 43.28125 13.890625 
Q 47.125 21.390625 47.125 36.375 
Q 47.125 51.421875 43.28125 58.90625 
Q 39.453125 66.40625 31.78125 66.40625 
z
M 31.78125 74.21875 
Q 44.046875 74.21875 50.515625 64.515625 
Q 56.984375 54.828125 56.984375 36.375 
Q 56.984375 17.96875 50.515625 8.265625 
Q 44.046875 -1.421875 31.78125 -1.421875 
Q 19.53125 -1.421875 13.0625 8.265625 
Q 6.59375 17.96875 6.59375 36.375 
Q 6.59375 54.828125 13.0625 64.515625 
Q 19.53125 74.21875 31.78125 74.21875 
z
" id="DejaVuSans-48"/>
      </defs>
      <g transform="translate(68.81875 399.078438)scale(0.1 -0.1)">
       <use xlink:href="#DejaVuSans-48"/>
      </g>
     </g>
    </g>
    <g id="xtick_2">
     <g id="line2d_3">
      <path clip-path="url(#p83542a46f0)" d="M 161.28 384.48 
L 161.28 51.84 
" style="fill:none;stroke:#b0b0b0;stroke-linecap:square;stroke-width:0.8;"/>
     </g>
     <g id="line2d_4">
      <g>
       <use style="stroke:#000000;stroke-width:0.8;" x="161.28" xlink:href="#me3a79e865a" y="384.48"/>
      </g>
     </g>
     <g id="text_2">
      <!-- 10 -->
      <defs>
       <path d="M 12.40625 8.296875 
L 28.515625 8.296875 
L 28.515625 63.921875 
L 10.984375 60.40625 
L 10.984375 69.390625 
L 28.421875 72.90625 
L 38.28125 72.90625 
L 38.28125 8.296875 
L 54.390625 8.296875 
L 54.390625 0 
L 12.40625 0 
z
" id="DejaVuSans-49"/>
      </defs>
      <g transform="translate(154.9175 399.078438)scale(0.1 -0.1)">
       <use xlink:href="#DejaVuSans-49"/>
       <use x="63.623047" xlink:href="#DejaVuSans-48"/>
      </g>
     </g>
    </g>
    <g id="xtick_3">
     <g id="line2d_5">
      <path clip-path="url(#p83542a46f0)" d="M 250.56 384.48 
L 250.56 51.84 
" style="fill:none;stroke:#b0b0b0;stroke-linecap:square;stroke-width:0.8;"/>
     </g>
     <g id="line2d_6">
      <g>
       <use style="stroke:#000000;stroke-width:0.8;" x="250.56" xlink:href="#me3a79e865a" y="384.48"/>
      </g>
     </g>
     <g id="text_3">
      <!-- 20 -->
      <defs>
       <path d="M 19.1875 8.296875 
L 53.609375 8.296875 
L 53.609375 0 
L 7.328125 0 
L 7.328125 8.296875 
Q 12.9375 14.109375 22.625 23.890625 
Q 32.328125 33.6875 34.8125 36.53125 
Q 39.546875 41.84375 41.421875 45.53125 
Q 43.3125 49.21875 43.3125 52.78125 
Q 43.3125 58.59375 39.234375 62.25 
Q 35.15625 65.921875 28.609375 65.921875 
Q 23.96875 65.921875 18.8125 64.3125 
Q 13.671875 62.703125 7.8125 59.421875 
L 7.8125 69.390625 
Q 13.765625 71.78125 18.9375 73 
Q 24.125 74.21875 28.421875 74.21875 
Q 39.75 74.21875 46.484375 68.546875 
Q 53.21875 62.890625 53.21875 53.421875 
Q 53.21875 48.921875 51.53125 44.890625 
Q 49.859375 40.875 45.40625 35.40625 
Q 44.1875 33.984375 37.640625 27.21875 
Q 31.109375 20.453125 19.1875 8.296875 
z
" id="DejaVuSans-50"/>
      </defs>
      <g transform="translate(244.1975 399.078438)scale(0.1 -0.1)">
       <use xlink:href="#DejaVuSans-50"/>
       <use x="63.623047" xlink:href="#DejaVuSans-48"/>
      </g>
     </g>
    </g>
    <g id="xtick_4">
     <g id="line2d_7">
      <path clip-path="url(#p83542a46f0)" d="M 339.84 384.48 
L 339.84 51.84 
" style="fill:none;stroke:#b0b0b0;stroke-linecap:square;stroke-width:0.8;"/>
     </g>
     <g id="line2d_8">
      <g>
       <use style="stroke:#000000;stroke-width:0.8;" x="339.84" xlink:href="#me3a79e865a" y="384.48"/>
      </g>
     </g>
     <g id="text_4">
      <!-- 30 -->
      <defs>
       <path d="M 40.578125 39.3125 
Q 47.65625 37.796875 51.625 33 
Q 55.609375 28.21875 55.609375 21.1875 
Q 55.609375 10.40625 48.1875 4.484375 
Q 40.765625 -1.421875 27.09375 -1.421875 
Q 22.515625 -1.421875 17.65625 -0.515625 
Q 12.796875 0.390625 7.625 2.203125 
L 7.625 11.71875 
Q 11.71875 9.328125 16.59375 8.109375 
Q 21.484375 6.890625 26.8125 6.890625 
Q 36.078125 6.890625 40.9375 10.546875 
Q 45.796875 14.203125 45.796875 21.1875 
Q 45.796875 27.640625 41.28125 31.265625 
Q 36.765625 34.90625 28.71875 34.90625 
L 20.21875 34.90625 
L 20.21875 43.015625 
L 29.109375 43.015625 
Q 36.375 43.015625 40.234375 45.921875 
Q 44.09375 48.828125 44.09375 54.296875 
Q 44.09375 59.90625 40.109375 62.90625 
Q 36.140625 65.921875 28.71875 65.921875 
Q 24.65625 65.921875 20.015625 65.03125 
Q 15.375 64.15625 9.8125 62.3125 
L 9.8125 71.09375 
Q 15.4375 72.65625 20.34375 73.4375 
Q 25.25 74.21875 29.59375 74.21875 
Q 40.828125 74.21875 47.359375 69.109375 
Q 53.90625 64.015625 53.90625 55.328125 
Q 53.90625 49.265625 50.4375 45.09375 
Q 46.96875 40.921875 40.578125 39.3125 
z
" id="DejaVuSans-51"/>
      </defs>
      <g transform="translate(333.4775 399.078438)scale(0.1 -0.1)">
       <use xlink:href="#DejaVuSans-51"/>
       <use x="63.623047" xlink:href="#DejaVuSans-48"/>
      </g>
     </g>
    </g>
    <g id="xtick_5">
     <g id="line2d_9">
      <path clip-path="url(#p83542a46f0)" d="M 429.12 384.48 
L 429.12 51.84 
" style="fill:none;stroke:#b0b0b0;stroke-linecap:square;stroke-width:0.8;"/>
     </g>
     <g id="line2d_10">
      <g>
       <use style="stroke:#000000;stroke-width:0.8;" x="429.12" xlink:href="#me3a79e865a" y="384.48"/>
      </g>
     </g>
     <g id="text_5">
      <!-- 40 -->
      <defs>
       <path d="M 37.796875 64.3125 
L 12.890625 25.390625 
L 37.796875 25.390625 
z
M 35.203125 72.90625 
L 47.609375 72.90625 
L 47.609375 25.390625 
L 58.015625 25.390625 
L 58.015625 17.1875 
L 47.609375 17.1875 
L 47.609375 0 
L 37.796875 0 
L 37.796875 17.1875 
L 4.890625 17.1875 
L 4.890625 26.703125 
z
" id="DejaVuSans-52"/>
      </defs>
      <g transform="translate(422.7575 399.078438)scale(0.1 -0.1)">
       <use xlink:href="#DejaVuSans-52"/>
       <use x="63.623047" xlink:href="#DejaVuSans-48"/>
      </g>
     </g>
    </g>
    <g id="xtick_6">
     <g id="line2d_11">
      <path clip-path="url(#p83542a46f0)" d="M 518.4 384.48 
L 518.4 51.84 
" style="fill:none;stroke:#b0b0b0;stroke-linecap:square;stroke-width:0.8;"/>
     </g>
     <g id="line2d_12">
      <g>
       <use style="stroke:#000000;stroke-width:0.8;" x="518.4" xlink:href="#me3a79e865a" y="384.48"/>
      </g>
     </g>
     <g id="text_6">
      <!-- 50 -->
      <defs>
       <path d="M 10.796875 72.90625 
L 49.515625 72.90625 
L 49.515625 64.59375 
L 19.828125 64.59375 
L 19.828125 46.734375 
Q 21.96875 47.46875 24.109375 47.828125 
Q 26.265625 48.1875 28.421875 48.1875 
Q 40.625 48.1875 47.75 41.5 
Q 54.890625 34.8125 54.890625 23.390625 
Q 54.890625 11.625 47.5625 5.09375 
Q 40.234375 -1.421875 26.90625 -1.421875 
Q 22.3125 -1.421875 17.546875 -0.640625 
Q 12.796875 0.140625 7.71875 1.703125 
L 7.71875 11.625 
Q 12.109375 9.234375 16.796875 8.0625 
Q 21.484375 6.890625 26.703125 6.890625 
Q 35.15625 6.890625 40.078125 11.328125 
Q 45.015625 15.765625 45.015625 23.390625 
Q 45.015625 31 40.078125 35.4375 
Q 35.15625 39.890625 26.703125 39.890625 
Q 22.75 39.890625 18.8125 39.015625 
Q 14.890625 38.140625 10.796875 36.28125 
z
" id="DejaVuSans-53"/>
      </defs>
      <g transform="translate(512.0375 399.078438)scale(0.1 -0.1)">
       <use xlink:href="#DejaVuSans-53"/>
       <use x="63.623047" xlink:href="#DejaVuSans-48"/>
      </g>
     </g>
    </g>
    <g id="text_7">
     <!-- Iteration -->
     <defs>
      <path d="M 9.8125 72.90625 
L 19.671875 72.90625 
L 19.671875 0 
L 9.8125 0 
z
" id="DejaVuSans-73"/>
      <path d="M 18.3125 70.21875 
L 18.3125 54.6875 
L 36.8125 54.6875 
L 36.8125 47.703125 
L 18.3125 47.703125 
L 18.3125 18.015625 
Q 18.3125 11.328125 20.140625 9.421875 
Q 21.96875 7.515625 27.59375 7.515625 
L 36.8125 7.515625 
L 36.8125 0 
L 27.59375 0 
Q 17.1875 0 13.234375 3.875 
Q 9.28125 7.765625 9.28125 18.015625 
L 9.28125 47.703125 
L 2.6875 47.703125 
L 2.6875 54.6875 
L 9.28125 54.6875 
L 9.28125 70.21875 
z
" id="DejaVuSans-116"/>
      <path d="M 56.203125 29.59375 
L 56.203125 25.203125 
L 14.890625 25.203125 
Q 15.484375 15.921875 20.484375 11.0625 
Q 25.484375 6.203125 34.421875 6.203125 
Q 39.59375 6.203125 44.453125 7.46875 
Q 49.3125 8.734375 54.109375 11.28125 
L 54.109375 2.78125 
Q 49.265625 0.734375 44.1875 -0.34375 
Q 39.109375 -1.421875 33.890625 -1.421875 
Q 20.796875 -1.421875 13.15625 6.1875 
Q 5.515625 13.8125 5.515625 26.8125 
Q 5.515625 40.234375 12.765625 48.109375 
Q 20.015625 56 32.328125 56 
Q 43.359375 56 49.78125 48.890625 
Q 56.203125 41.796875 56.203125 29.59375 
z
M 47.21875 32.234375 
Q 47.125 39.59375 43.09375 43.984375 
Q 39.0625 48.390625 32.421875 48.390625 
Q 24.90625 48.390625 20.390625 44.140625 
Q 15.875 39.890625 15.1875 32.171875 
z
" id="DejaVuSans-101"/>
      <path d="M 41.109375 46.296875 
Q 39.59375 47.171875 37.8125 47.578125 
Q 36.03125 48 33.890625 48 
Q 26.265625 48 22.1875 43.046875 
Q 18.109375 38.09375 18.109375 28.8125 
L 18.109375 0 
L 9.078125 0 
L 9.078125 54.6875 
L 18.109375 54.6875 
L 18.109375 46.1875 
Q 20.953125 51.171875 25.484375 53.578125 
Q 30.03125 56 36.53125 56 
Q 37.453125 56 38.578125 55.875 
Q 39.703125 55.765625 41.0625 55.515625 
z
" id="DejaVuSans-114"/>
      <path d="M 34.28125 27.484375 
Q 23.390625 27.484375 19.1875 25 
Q 14.984375 22.515625 14.984375 16.5 
Q 14.984375 11.71875 18.140625 8.90625 
Q 21.296875 6.109375 26.703125 6.109375 
Q 34.1875 6.109375 38.703125 11.40625 
Q 43.21875 16.703125 43.21875 25.484375 
L 43.21875 27.484375 
z
M 52.203125 31.203125 
L 52.203125 0 
L 43.21875 0 
L 43.21875 8.296875 
Q 40.140625 3.328125 35.546875 0.953125 
Q 30.953125 -1.421875 24.3125 -1.421875 
Q 15.921875 -1.421875 10.953125 3.296875 
Q 6 8.015625 6 15.921875 
Q 6 25.140625 12.171875 29.828125 
Q 18.359375 34.515625 30.609375 34.515625 
L 43.21875 34.515625 
L 43.21875 35.40625 
Q 43.21875 41.609375 39.140625 45 
Q 35.0625 48.390625 27.6875 48.390625 
Q 23 48.390625 18.546875 47.265625 
Q 14.109375 46.140625 10.015625 43.890625 
L 10.015625 52.203125 
Q 14.9375 54.109375 19.578125 55.046875 
Q 24.21875 56 28.609375 56 
Q 40.484375 56 46.34375 49.84375 
Q 52.203125 43.703125 52.203125 31.203125 
z
" id="DejaVuSans-97"/>
      <path d="M 9.421875 54.6875 
L 18.40625 54.6875 
L 18.40625 0 
L 9.421875 0 
z
M 9.421875 75.984375 
L 18.40625 75.984375 
L 18.40625 64.59375 
L 9.421875 64.59375 
z
" id="DejaVuSans-105"/>
      <path d="M 30.609375 48.390625 
Q 23.390625 48.390625 19.1875 42.75 
Q 14.984375 37.109375 14.984375 27.296875 
Q 14.984375 17.484375 19.15625 11.84375 
Q 23.34375 6.203125 30.609375 6.203125 
Q 37.796875 6.203125 41.984375 11.859375 
Q 46.1875 17.53125 46.1875 27.296875 
Q 46.1875 37.015625 41.984375 42.703125 
Q 37.796875 48.390625 30.609375 48.390625 
z
M 30.609375 56 
Q 42.328125 56 49.015625 48.375 
Q 55.71875 40.765625 55.71875 27.296875 
Q 55.71875 13.875 49.015625 6.21875 
Q 42.328125 -1.421875 30.609375 -1.421875 
Q 18.84375 -1.421875 12.171875 6.21875 
Q 5.515625 13.875 5.515625 27.296875 
Q 5.515625 40.765625 12.171875 48.375 
Q 18.84375 56 30.609375 56 
z
" id="DejaVuSans-111"/>
      <path d="M 54.890625 33.015625 
L 54.890625 0 
L 45.90625 0 
L 45.90625 32.71875 
Q 45.90625 40.484375 42.875 44.328125 
Q 39.84375 48.1875 33.796875 48.1875 
Q 26.515625 48.1875 22.3125 43.546875 
Q 18.109375 38.921875 18.109375 30.90625 
L 18.109375 0 
L 9.078125 0 
L 9.078125 54.6875 
L 18.109375 54.6875 
L 18.109375 46.1875 
Q 21.34375 51.125 25.703125 53.5625 
Q 30.078125 56 35.796875 56 
Q 45.21875 56 50.046875 50.171875 
Q 54.890625 44.34375 54.890625 33.015625 
z
" id="DejaVuSans-110"/>
     </defs>
     <g transform="translate(273.991406 412.756563)scale(0.1 -0.1)">
      <use xlink:href="#DejaVuSans-73"/>
      <use x="29.492188" xlink:href="#DejaVuSans-116"/>
      <use x="68.701172" xlink:href="#DejaVuSans-101"/>
      <use x="130.224609" xlink:href="#DejaVuSans-114"/>
      <use x="171.337891" xlink:href="#DejaVuSans-97"/>
      <use x="232.617188" xlink:href="#DejaVuSans-116"/>
      <use x="271.826172" xlink:href="#DejaVuSans-105"/>
      <use x="299.609375" xlink:href="#DejaVuSans-111"/>
      <use x="360.791016" xlink:href="#DejaVuSans-110"/>
     </g>
    </g>
   </g>
   <g id="matplotlib.axis_2">
    <g id="ytick_1">
     <g id="line2d_13">
      <path clip-path="url(#p83542a46f0)" d="M 72 384.48 
L 518.4 384.48 
" style="fill:none;stroke:#b0b0b0;stroke-linecap:square;stroke-width:0.8;"/>
     </g>
     <g id="line2d_14">
      <defs>
       <path d="M 0 0 
L -3.5 0 
" id="m9918b36e2b" style="stroke:#000000;stroke-width:0.8;"/>
      </defs>
      <g>
       <use style="stroke:#000000;stroke-width:0.8;" x="72" xlink:href="#m9918b36e2b" y="384.48"/>
      </g>
     </g>
     <g id="text_8">
      <!-- $\mathdefault{10^{-12}}$ -->
      <defs>
       <path d="M 10.59375 35.5 
L 73.1875 35.5 
L 73.1875 27.203125 
L 10.59375 27.203125 
z
" id="DejaVuSans-8722"/>
      </defs>
      <g transform="translate(37.1 388.279219)scale(0.1 -0.1)">
       <use transform="translate(0 0.765625)" xlink:href="#DejaVuSans-49"/>
       <use transform="translate(63.623047 0.765625)" xlink:href="#DejaVuSans-48"/>
       <use transform="translate(128.203125 39.046875)scale(0.7)" xlink:href="#DejaVuSans-8722"/>
       <use transform="translate(186.855469 39.046875)scale(0.7)" xlink:href="#DejaVuSans-49"/>
       <use transform="translate(231.391602 39.046875)scale(0.7)" xlink:href="#DejaVuSans-50"/>
      </g>
     </g>
    </g>
    <g id="ytick_2">
     <g id="line2d_15">
      <path clip-path="url(#p83542a46f0)" d="M 72 336.96 
L 518.4 336.96 
" style="fill:none;stroke:#b0b0b0;stroke-linecap:square;stroke-width:0.8;"/>
     </g>
     <g id="line2d_16">
      <g>
       <use style="stroke:#000000;stroke-width:0.8;" x="72" xlink:href="#m9918b36e2b" y="336.96"/>
      </g>
     </g>
     <g id="text_9">
      <!-- $\mathdefault{10^{-10}}$ -->
      <g transform="translate(37.1 340.759219)scale(0.1 -0.1)">
       <use transform="translate(0 0.765625)" xlink:href="#DejaVuSans-49"/>
       <use transform="translate(63.623047 0.765625)" xlink:href="#DejaVuSans-48"/>
       <use transform="translate(128.203125 39.046875)scale(0.7)" xlink:href="#DejaVuSans-8722"/>
       <use transform="translate(186.855469 39.046875)scale(0.7)" xlink:href="#DejaVuSans-49"/>
       <use transform="translate(231.391602 39.046875)scale(0.7)" xlink:href="#DejaVuSans-48"/>
      </g>
     </g>
    </g>
    <g id="ytick_3">
     <g id="line2d_17">
      <path clip-path="url(#p83542a46f0)" d="M 72 289.44 
L 518.4 289.44 
" style="fill:none;stroke:#b0b0b0;stroke-linecap:square;stroke-width:0.8;"/>
     </g>
     <g id="line2d_18">
      <g>
       <use style="stroke:#000000;stroke-width:0.8;" x="72" xlink:href="#m9918b36e2b" y="289.44"/>
      </g>
     </g>
     <g id="text_10">
      <!-- $\mathdefault{10^{-8}}$ -->
      <defs>
       <path d="M 31.78125 34.625 
Q 24.75 34.625 20.71875 30.859375 
Q 16.703125 27.09375 16.703125 20.515625 
Q 16.703125 13.921875 20.71875 10.15625 
Q 24.75 6.390625 31.78125 6.390625 
Q 38.8125 6.390625 42.859375 10.171875 
Q 46.921875 13.96875 46.921875 20.515625 
Q 46.921875 27.09375 42.890625 30.859375 
Q 38.875 34.625 31.78125 34.625 
z
M 21.921875 38.8125 
Q 15.578125 40.375 12.03125 44.71875 
Q 8.5 49.078125 8.5 55.328125 
Q 8.5 64.0625 14.71875 69.140625 
Q 20.953125 74.21875 31.78125 74.21875 
Q 42.671875 74.21875 48.875 69.140625 
Q 55.078125 64.0625 55.078125 55.328125 
Q 55.078125 49.078125 51.53125 44.71875 
Q 48 40.375 41.703125 38.8125 
Q 48.828125 37.15625 52.796875 32.3125 
Q 56.78125 27.484375 56.78125 20.515625 
Q 56.78125 9.90625 50.3125 4.234375 
Q 43.84375 -1.421875 31.78125 -1.421875 
Q 19.734375 -1.421875 13.25 4.234375 
Q 6.78125 9.90625 6.78125 20.515625 
Q 6.78125 27.484375 10.78125 32.3125 
Q 14.796875 37.15625 21.921875 38.8125 
z
M 18.3125 54.390625 
Q 18.3125 48.734375 21.84375 45.5625 
Q 25.390625 42.390625 31.78125 42.390625 
Q 38.140625 42.390625 41.71875 45.5625 
Q 45.3125 48.734375 45.3125 54.390625 
Q 45.3125 60.0625 41.71875 63.234375 
Q 38.140625 66.40625 31.78125 66.40625 
Q 25.390625 66.40625 21.84375 63.234375 
Q 18.3125 60.0625 18.3125 54.390625 
z
" id="DejaVuSans-56"/>
      </defs>
      <g transform="translate(41.5 293.239219)scale(0.1 -0.1)">
       <use transform="translate(0 0.765625)" xlink:href="#DejaVuSans-49"/>
       <use transform="translate(63.623047 0.765625)" xlink:href="#DejaVuSans-48"/>
       <use transform="translate(128.203125 39.046875)scale(0.7)" xlink:href="#DejaVuSans-8722"/>
       <use transform="translate(186.855469 39.046875)scale(0.7)" xlink:href="#DejaVuSans-56"/>
      </g>
     </g>
    </g>
    <g id="ytick_4">
     <g id="line2d_19">
      <path clip-path="url(#p83542a46f0)" d="M 72 241.92 
L 518.4 241.92 
" style="fill:none;stroke:#b0b0b0;stroke-linecap:square;stroke-width:0.8;"/>
     </g>
     <g id="line2d_20">
      <g>
       <use style="stroke:#000000;stroke-width:0.8;" x="72" xlink:href="#m9918b36e2b" y="241.92"/>
      </g>
     </g>
     <g id="text_11">
      <!-- $\mathdefault{10^{-6}}$ -->
      <defs>
       <path d="M 33.015625 40.375 
Q 26.375 40.375 22.484375 35.828125 
Q 18.609375 31.296875 18.609375 23.390625 
Q 18.609375 15.53125 22.484375 10.953125 
Q 26.375 6.390625 33.015625 6.390625 
Q 39.65625 6.390625 43.53125 10.953125 
Q 47.40625 15.53125 47.40625 23.390625 
Q 47.40625 31.296875 43.53125 35.828125 
Q 39.65625 40.375 33.015625 40.375 
z
M 52.59375 71.296875 
L 52.59375 62.3125 
Q 48.875 64.0625 45.09375 64.984375 
Q 41.3125 65.921875 37.59375 65.921875 
Q 27.828125 65.921875 22.671875 59.328125 
Q 17.53125 52.734375 16.796875 39.40625 
Q 19.671875 43.65625 24.015625 45.921875 
Q 28.375 48.1875 33.59375 48.1875 
Q 44.578125 48.1875 50.953125 41.515625 
Q 57.328125 34.859375 57.328125 23.390625 
Q 57.328125 12.15625 50.6875 5.359375 
Q 44.046875 -1.421875 33.015625 -1.421875 
Q 20.359375 -1.421875 13.671875 8.265625 
Q 6.984375 17.96875 6.984375 36.375 
Q 6.984375 53.65625 15.1875 63.9375 
Q 23.390625 74.21875 37.203125 74.21875 
Q 40.921875 74.21875 44.703125 73.484375 
Q 48.484375 72.75 52.59375 71.296875 
z
" id="DejaVuSans-54"/>
      </defs>
      <g transform="translate(41.5 245.719219)scale(0.1 -0.1)">
       <use transform="translate(0 0.765625)" xlink:href="#DejaVuSans-49"/>
       <use transform="translate(63.623047 0.765625)" xlink:href="#DejaVuSans-48"/>
       <use transform="translate(128.203125 39.046875)scale(0.7)" xlink:href="#DejaVuSans-8722"/>
       <use transform="translate(186.855469 39.046875)scale(0.7)" xlink:href="#DejaVuSans-54"/>
      </g>
     </g>
    </g>
    <g id="ytick_5">
     <g id="line2d_21">
      <path clip-path="url(#p83542a46f0)" d="M 72 194.4 
L 518.4 194.4 
" style="fill:none;stroke:#b0b0b0;stroke-linecap:square;stroke-width:0.8;"/>
     </g>
     <g id="line2d_22">
      <g>
       <use style="stroke:#000000;stroke-width:0.8;" x="72" xlink:href="#m9918b36e2b" y="194.4"/>
      </g>
     </g>
     <g id="text_12">
      <!-- $\mathdefault{10^{-4}}$ -->
      <g transform="translate(41.5 198.199219)scale(0.1 -0.1)">
       <use transform="translate(0 0.684375)" xlink:href="#DejaVuSans-49"/>
       <use transform="translate(63.623047 0.684375)" xlink:href="#DejaVuSans-48"/>
       <use transform="translate(128.203125 38.965625)scale(0.7)" xlink:href="#DejaVuSans-8722"/>
       <use transform="translate(186.855469 38.965625)scale(0.7)" xlink:href="#DejaVuSans-52"/>
      </g>
     </g>
    </g>
    <g id="ytick_6">
     <g id="line2d_23">
      <path clip-path="url(#p83542a46f0)" d="M 72 146.88 
L 518.4 146.88 
" style="fill:none;stroke:#b0b0b0;stroke-linecap:square;stroke-width:0.8;"/>
     </g>
     <g id="line2d_24">
      <g>
       <use style="stroke:#000000;stroke-width:0.8;" x="72" xlink:href="#m9918b36e2b" y="146.88"/>
      </g>
     </g>
     <g id="text_13">
      <!-- $\mathdefault{10^{-2}}$ -->
      <g transform="translate(41.5 150.679219)scale(0.1 -0.1)">
       <use transform="translate(0 0.765625)" xlink:href="#DejaVuSans-49"/>
       <use transform="translate(63.623047 0.765625)" xlink:href="#DejaVuSans-48"/>
       <use transform="translate(128.203125 39.046875)scale(0.7)" xlink:href="#DejaVuSans-8722"/>
       <use transform="translate(186.855469 39.046875)scale(0.7)" xlink:href="#DejaVuSans-50"/>
      </g>
     </g>
    </g>
    <g id="ytick_7">
     <g id="line2d_25">
      <path clip-path="url(#p83542a46f0)" d="M 72 99.36 
L 518.4 99.36 
" style="fill:none;stroke:#b0b0b0;stroke-linecap:square;stroke-width:0.8;"/>
     </g>
     <g id="line2d_26">
      <g>
       <use style="stroke:#000000;stroke-width:0.8;" x="72" xlink:href="#m9918b36e2b" y="99.36"/>
      </g>
     </g>
     <g id="text_14">
      <!-- $\mathdefault{10^{0}}$ -->
      <g transform="translate(47.4 103.159219)scale(0.1 -0.1)">
       <use transform="translate(0 0.765625)" xlink:href="#DejaVuSans-49"/>
       <use transform="translate(63.623047 0.765625)" xlink:href="#DejaVuSans-48"/>
       <use transform="translate(128.203125 39.046875)scale(0.7)" xlink:href="#DejaVuSans-48"/>
      </g>
     </g>
    </g>
    <g id="ytick_8">
     <g id="line2d_27">
      <path clip-path="url(#p83542a46f0)" d="M 72 51.84 
L 518.4 51.84 
" style="fill:none;stroke:#b0b0b0;stroke-linecap:square;stroke-width:0.8;"/>
     </g>
     <g id="line2d_28">
      <g>
       <use style="stroke:#000000;stroke-width:0.8;" x="72" xlink:href="#m9918b36e2b" y="51.84"/>
      </g>
     </g>
     <g id="text_15">
      <!-- $\mathdefault{10^{2}}$ -->
      <g transform="translate(47.4 55.639219)scale(0.1 -0.1)">
       <use transform="translate(0 0.765625)" xlink:href="#DejaVuSans-49"/>
       <use transform="translate(63.623047 0.765625)" xlink:href="#DejaVuSans-48"/>
       <use transform="translate(128.203125 39.046875)scale(0.7)" xlink:href="#DejaVuSans-50"/>
      </g>
     </g>
    </g>
    <g id="text_16">
     <!-- Integrated Squared Error -->
     <defs>
      <path d="M 45.40625 27.984375 
Q 45.40625 37.75 41.375 43.109375 
Q 37.359375 48.484375 30.078125 48.484375 
Q 22.859375 48.484375 18.828125 43.109375 
Q 14.796875 37.75 14.796875 27.984375 
Q 14.796875 18.265625 18.828125 12.890625 
Q 22.859375 7.515625 30.078125 7.515625 
Q 37.359375 7.515625 41.375 12.890625 
Q 45.40625 18.265625 45.40625 27.984375 
z
M 54.390625 6.78125 
Q 54.390625 -7.171875 48.1875 -13.984375 
Q 42 -20.796875 29.203125 -20.796875 
Q 24.46875 -20.796875 20.265625 -20.09375 
Q 16.0625 -19.390625 12.109375 -17.921875 
L 12.109375 -9.1875 
Q 16.0625 -11.328125 19.921875 -12.34375 
Q 23.78125 -13.375 27.78125 -13.375 
Q 36.625 -13.375 41.015625 -8.765625 
Q 45.40625 -4.15625 45.40625 5.171875 
L 45.40625 9.625 
Q 42.625 4.78125 38.28125 2.390625 
Q 33.9375 0 27.875 0 
Q 17.828125 0 11.671875 7.65625 
Q 5.515625 15.328125 5.515625 27.984375 
Q 5.515625 40.671875 11.671875 48.328125 
Q 17.828125 56 27.875 56 
Q 33.9375 56 38.28125 53.609375 
Q 42.625 51.21875 45.40625 46.390625 
L 45.40625 54.6875 
L 54.390625 54.6875 
z
" id="DejaVuSans-103"/>
      <path d="M 45.40625 46.390625 
L 45.40625 75.984375 
L 54.390625 75.984375 
L 54.390625 0 
L 45.40625 0 
L 45.40625 8.203125 
Q 42.578125 3.328125 38.25 0.953125 
Q 33.9375 -1.421875 27.875 -1.421875 
Q 17.96875 -1.421875 11.734375 6.484375 
Q 5.515625 14.40625 5.515625 27.296875 
Q 5.515625 40.1875 11.734375 48.09375 
Q 17.96875 56 27.875 56 
Q 33.9375 56 38.25 53.625 
Q 42.578125 51.265625 45.40625 46.390625 
z
M 14.796875 27.296875 
Q 14.796875 17.390625 18.875 11.75 
Q 22.953125 6.109375 30.078125 6.109375 
Q 37.203125 6.109375 41.296875 11.75 
Q 45.40625 17.390625 45.40625 27.296875 
Q 45.40625 37.203125 41.296875 42.84375 
Q 37.203125 48.484375 30.078125 48.484375 
Q 22.953125 48.484375 18.875 42.84375 
Q 14.796875 37.203125 14.796875 27.296875 
z
" id="DejaVuSans-100"/>
      <path id="DejaVuSans-32"/>
      <path d="M 53.515625 70.515625 
L 53.515625 60.890625 
Q 47.90625 63.578125 42.921875 64.890625 
Q 37.9375 66.21875 33.296875 66.21875 
Q 25.25 66.21875 20.875 63.09375 
Q 16.5 59.96875 16.5 54.203125 
Q 16.5 49.359375 19.40625 46.890625 
Q 22.3125 44.4375 30.421875 42.921875 
L 36.375 41.703125 
Q 47.40625 39.59375 52.65625 34.296875 
Q 57.90625 29 57.90625 20.125 
Q 57.90625 9.515625 50.796875 4.046875 
Q 43.703125 -1.421875 29.984375 -1.421875 
Q 24.8125 -1.421875 18.96875 -0.25 
Q 13.140625 0.921875 6.890625 3.21875 
L 6.890625 13.375 
Q 12.890625 10.015625 18.65625 8.296875 
Q 24.421875 6.59375 29.984375 6.59375 
Q 38.421875 6.59375 43.015625 9.90625 
Q 47.609375 13.234375 47.609375 19.390625 
Q 47.609375 24.75 44.3125 27.78125 
Q 41.015625 30.8125 33.5 32.328125 
L 27.484375 33.5 
Q 16.453125 35.6875 11.515625 40.375 
Q 6.59375 45.0625 6.59375 53.421875 
Q 6.59375 63.09375 13.40625 68.65625 
Q 20.21875 74.21875 32.171875 74.21875 
Q 37.3125 74.21875 42.625 73.28125 
Q 47.953125 72.359375 53.515625 70.515625 
z
" id="DejaVuSans-83"/>
      <path d="M 14.796875 27.296875 
Q 14.796875 17.390625 18.875 11.75 
Q 22.953125 6.109375 30.078125 6.109375 
Q 37.203125 6.109375 41.296875 11.75 
Q 45.40625 17.390625 45.40625 27.296875 
Q 45.40625 37.203125 41.296875 42.84375 
Q 37.203125 48.484375 30.078125 48.484375 
Q 22.953125 48.484375 18.875 42.84375 
Q 14.796875 37.203125 14.796875 27.296875 
z
M 45.40625 8.203125 
Q 42.578125 3.328125 38.25 0.953125 
Q 33.9375 -1.421875 27.875 -1.421875 
Q 17.96875 -1.421875 11.734375 6.484375 
Q 5.515625 14.40625 5.515625 27.296875 
Q 5.515625 40.1875 11.734375 48.09375 
Q 17.96875 56 27.875 56 
Q 33.9375 56 38.25 53.625 
Q 42.578125 51.265625 45.40625 46.390625 
L 45.40625 54.6875 
L 54.390625 54.6875 
L 54.390625 -20.796875 
L 45.40625 -20.796875 
z
" id="DejaVuSans-113"/>
      <path d="M 8.5 21.578125 
L 8.5 54.6875 
L 17.484375 54.6875 
L 17.484375 21.921875 
Q 17.484375 14.15625 20.5 10.265625 
Q 23.53125 6.390625 29.59375 6.390625 
Q 36.859375 6.390625 41.078125 11.03125 
Q 45.3125 15.671875 45.3125 23.6875 
L 45.3125 54.6875 
L 54.296875 54.6875 
L 54.296875 0 
L 45.3125 0 
L 45.3125 8.40625 
Q 42.046875 3.421875 37.71875 1 
Q 33.40625 -1.421875 27.6875 -1.421875 
Q 18.265625 -1.421875 13.375 4.4375 
Q 8.5 10.296875 8.5 21.578125 
z
M 31.109375 56 
z
" id="DejaVuSans-117"/>
      <path d="M 9.8125 72.90625 
L 55.90625 72.90625 
L 55.90625 64.59375 
L 19.671875 64.59375 
L 19.671875 43.015625 
L 54.390625 43.015625 
L 54.390625 34.71875 
L 19.671875 34.71875 
L 19.671875 8.296875 
L 56.78125 8.296875 
L 56.78125 0 
L 9.8125 0 
z
" id="DejaVuSans-69"/>
     </defs>
     <g transform="translate(31.020312 280.483437)rotate(-90)scale(0.1 -0.1)">
      <use xlink:href="#DejaVuSans-73"/>
      <use x="29.492188" xlink:href="#DejaVuSans-110"/>
      <use x="92.871094" xlink:href="#DejaVuSans-116"/>
      <use x="132.080078" xlink:href="#DejaVuSans-101"/>
      <use x="193.603516" xlink:href="#DejaVuSans-103"/>
      <use x="257.080078" xlink:href="#DejaVuSans-114"/>
      <use x="298.193359" xlink:href="#DejaVuSans-97"/>
      <use x="359.472656" xlink:href="#DejaVuSans-116"/>
      <use x="398.681641" xlink:href="#DejaVuSans-101"/>
      <use x="460.205078" xlink:href="#DejaVuSans-100"/>
      <use x="523.681641" xlink:href="#DejaVuSans-32"/>
      <use x="555.46875" xlink:href="#DejaVuSans-83"/>
      <use x="618.945312" xlink:href="#DejaVuSans-113"/>
      <use x="682.421875" xlink:href="#DejaVuSans-117"/>
      <use x="745.800781" xlink:href="#DejaVuSans-97"/>
      <use x="807.080078" xlink:href="#DejaVuSans-114"/>
      <use x="845.943359" xlink:href="#DejaVuSans-101"/>
      <use x="907.466797" xlink:href="#DejaVuSans-100"/>
      <use x="970.943359" xlink:href="#DejaVuSans-32"/>
      <use x="1002.730469" xlink:href="#DejaVuSans-69"/>
      <use x="1065.914062" xlink:href="#DejaVuSans-114"/>
      <use x="1105.277344" xlink:href="#DejaVuSans-114"/>
      <use x="1144.140625" xlink:href="#DejaVuSans-111"/>
      <use x="1205.322266" xlink:href="#DejaVuSans-114"/>
     </g>
    </g>
   </g>
   <g id="line2d_29">
    <path clip-path="url(#p83542a46f0)" d="M 72 98.258713 
L 80.928 98.050339 
L 89.856 97.543216 
L 98.784 98.205591 
L 107.712 98.712978 
L 116.64 99.233295 
L 125.568 98.735031 
L 134.496 99.27693 
L 143.424 97.064508 
L 152.352 99.29755 
L 161.28 97.066571 
L 170.208 92.216551 
L 179.136 99.108674 
L 188.064 99.325561 
L 196.992 98.740945 
L 205.92 99.330394 
L 214.848 99.36 
L 223.776 99.335646 
L 232.704 99.36 
L 241.632 93.496612 
L 250.56 99.36 
L 259.488 99.34268 
L 268.416 99.354203 
L 277.344 98.005675 
L 286.272 99.308952 
L 295.2 99.348448 
L 304.128 99.36 
L 313.056 99.349932 
L 321.984 94.760791 
L 330.912 92.86228 
L 339.84 97.05948 
L 348.768 99.282711 
L 357.696 97.560966 
L 366.624 99.209694 
L 375.552 99.197478 
L 384.48 88.11143 
L 393.408 98.739277 
L 402.336 99.20519 
L 411.264 99.264881 
L 420.192 97.067216 
L 429.12 98.88553 
L 438.048 99.296372 
L 446.976 99.339617 
L 455.904 99.354885 
L 464.832 84.083106 
L 473.76 99.355283 
L 482.688 92.378389 
L 491.616 95.9666 
L 500.544 98.009065 
L 509.472 90.770377 
L 518.4 99.302017 
" style="fill:none;stroke:#1f77b4;stroke-linecap:square;stroke-width:1.5;"/>
   </g>
   <g id="line2d_30">
    <path clip-path="url(#p83542a46f0)" d="M 72 101.756245 
L 80.928 102.832223 
L 89.856 101.964216 
L 98.784 101.011876 
L 107.712 100.567057 
L 116.64 99.280931 
L 125.568 99.403017 
L 134.496 99.037026 
L 143.424 100.235304 
L 152.352 99.776972 
L 161.28 99.403225 
L 170.208 99.704167 
L 179.136 100.507718 
L 188.064 100.200328 
L 196.992 101.443598 
L 205.92 99.403225 
L 214.848 99.685195 
L 223.776 99.807345 
L 232.704 99.681744 
L 241.632 99.403225 
L 250.56 99.69233 
L 259.488 99.403225 
L 268.416 99.681924 
L 277.344 99.403225 
L 286.272 99.697273 
L 295.2 99.609708 
L 304.128 99.413906 
L 313.056 100.072203 
L 321.984 99.684418 
L 330.912 99.403225 
L 339.84 99.581214 
L 348.768 99.403225 
L 357.696 99.403225 
L 366.624 99.403225 
L 375.552 99.403225 
L 384.48 99.319519 
L 393.408 99.403225 
L 402.336 99.403424 
L 411.264 99.403781 
L 420.192 99.403781 
L 429.12 99.627244 
L 438.048 99.403809 
L 446.976 99.403809 
L 455.904 99.403809 
L 464.832 99.403809 
L 473.76 99.404019 
L 482.688 99.404408 
L 491.616 99.404445 
L 500.544 99.28988 
L 509.472 99.404602 
L 518.4 99.722066 
" style="fill:none;stroke:#ff7f0e;stroke-linecap:square;stroke-width:1.5;"/>
   </g>
   <g id="line2d_31">
    <path clip-path="url(#p83542a46f0)" d="M 72 104.612024 
L 80.928 112.89739 
L 89.856 114.623725 
L 98.784 115.265052 
L 107.712 115.37594 
L 116.64 115.391732 
L 125.568 115.3955 
L 134.496 115.39714 
L 143.424 115.644385 
L 152.352 115.813276 
L 161.28 115.91996 
L 170.208 116.058873 
L 179.136 116.433261 
L 188.064 116.567751 
L 196.992 116.670759 
L 205.92 116.781825 
L 214.848 116.933061 
L 223.776 117.010109 
L 232.704 117.089366 
L 241.632 117.173066 
L 250.56 117.260311 
L 259.488 117.358959 
L 268.416 117.476437 
L 277.344 117.633765 
L 286.272 117.668629 
L 295.2 117.696602 
L 304.128 117.718911 
L 313.056 117.736626 
L 321.984 117.750661 
L 330.912 117.761768 
L 339.84 117.770558 
L 348.768 117.777458 
L 357.696 117.782933 
L 366.624 117.787282 
L 375.552 117.790744 
L 384.48 117.793496 
L 393.408 117.795691 
L 402.336 117.797443 
L 411.264 117.798841 
L 420.192 117.799008 
L 429.12 117.799149 
L 438.048 117.799267 
L 446.976 117.799368 
L 455.904 117.799454 
L 464.832 117.799528 
L 473.76 117.799592 
L 482.688 117.799646 
L 491.616 117.799694 
L 500.544 117.799735 
L 509.472 117.799771 
L 518.4 117.799802 
" style="fill:none;stroke:#2ca02c;stroke-linecap:square;stroke-width:1.5;"/>
   </g>
   <g id="line2d_32">
    <path clip-path="url(#p83542a46f0)" d="M 72 103.989559 
L 80.928 108.116044 
L 89.856 109.864119 
L 98.784 110.790608 
L 107.712 111.543198 
L 116.64 111.835035 
L 125.568 112.317932 
L 134.496 113.114153 
L 143.424 114.367856 
L 152.352 115.429504 
L 161.28 115.944328 
L 170.208 117.659639 
L 179.136 118.683614 
L 188.064 118.917456 
L 196.992 118.56648 
L 205.92 117.060867 
L 214.848 111.495245 
L 223.776 110.670871 
L 232.704 108.132876 
L 241.632 109.199627 
L 250.56 106.914378 
L 259.488 106.411635 
L 268.416 103.908605 
L 277.344 106.307959 
L 286.272 104.479293 
L 295.2 107.71467 
L 304.128 106.093136 
L 313.056 107.84039 
L 321.984 108.418055 
L 330.912 110.71741 
L 339.84 109.939148 
L 348.768 112.450619 
L 357.696 106.157395 
L 366.624 104.907351 
L 375.552 104.240157 
L 384.48 106.345736 
L 393.408 106.377322 
L 402.336 106.422648 
L 411.264 107.686059 
L 420.192 105.040731 
L 429.12 102.252684 
L 438.048 107.179982 
L 446.976 103.721611 
L 455.904 104.442833 
L 464.832 107.354401 
L 473.76 103.81101 
L 482.688 105.080554 
L 491.616 102.46129 
L 500.544 102.365595 
L 509.472 104.692795 
L 518.4 105.621577 
" style="fill:none;stroke:#d62728;stroke-linecap:square;stroke-width:1.5;"/>
   </g>
   <g id="line2d_33">
    <path clip-path="url(#p83542a46f0)" d="M 72 103.447523 
L 80.928 105.633267 
L 89.856 108.553645 
L 98.784 108.834097 
L 107.712 110.158906 
L 116.64 109.613711 
L 125.568 111.298034 
L 134.496 112.329512 
L 143.424 107.295527 
L 152.352 103.466514 
L 161.28 102.195618 
L 170.208 103.518959 
L 179.136 101.200321 
L 188.064 100.84091 
L 196.992 101.143705 
L 205.92 102.513927 
L 214.848 100.73911 
L 223.776 100.361542 
L 232.704 103.282563 
L 241.632 106.483556 
L 250.56 101.475524 
L 259.488 100.883698 
L 268.416 101.320319 
L 277.344 100.42012 
L 286.272 101.414159 
L 295.2 107.442556 
L 304.128 106.971994 
L 313.056 102.987271 
L 321.984 101.969311 
L 330.912 100.44609 
L 339.84 99.942546 
L 348.768 99.940025 
L 357.696 106.063684 
L 366.624 100.856303 
L 375.552 99.532109 
L 384.48 100.230977 
L 393.408 101.967446 
L 402.336 102.626922 
L 411.264 99.908438 
L 420.192 100.058668 
L 429.12 101.639054 
L 438.048 99.526191 
L 446.976 99.916928 
L 455.904 99.979076 
L 464.832 99.414965 
L 473.76 99.460104 
L 482.688 99.414983 
L 491.616 99.414985 
L 500.544 99.956193 
L 509.472 102.079906 
L 518.4 99.963926 
" style="fill:none;stroke:#9467bd;stroke-linecap:square;stroke-width:1.5;"/>
   </g>
   <g id="line2d_34">
    <path clip-path="url(#p83542a46f0)" d="M 72 103.370566 
L 80.928 107.763059 
L 89.856 111.289409 
L 98.784 113.53484 
L 107.712 115.075088 
L 116.64 116.049917 
L 125.568 118.605356 
L 134.496 119.322776 
L 143.424 121.193235 
L 152.352 123.080851 
L 161.28 123.993716 
L 170.208 125.198914 
L 179.136 126.652804 
L 188.064 129.36115 
L 196.992 129.963846 
L 205.92 130.202916 
L 214.848 130.587908 
L 223.776 130.960478 
L 232.704 131.664765 
L 241.632 132.481241 
L 250.56 133.188552 
L 259.488 133.682639 
L 268.416 133.884463 
L 277.344 134.553165 
L 286.272 134.770856 
L 295.2 135.052823 
L 304.128 135.381186 
L 313.056 135.646887 
L 321.984 136.380466 
L 330.912 136.96419 
L 339.84 137.771408 
L 348.768 139.132704 
L 357.696 139.392411 
L 366.624 140.366519 
L 375.552 140.701399 
L 384.48 140.89792 
L 393.408 141.657041 
L 402.336 142.184829 
L 411.264 142.4487 
L 420.192 142.638853 
L 429.12 142.622859 
L 438.048 142.672696 
L 446.976 142.831248 
L 455.904 143.071773 
L 464.832 143.590754 
L 473.76 144.820024 
L 482.688 145.648688 
L 491.616 146.503271 
L 500.544 147.071102 
L 509.472 147.127042 
L 518.4 147.215261 
" style="fill:none;stroke:#8c564b;stroke-linecap:square;stroke-width:1.5;"/>
   </g>
   <g id="line2d_35">
    <path clip-path="url(#p83542a46f0)" d="M 72 108.709363 
L 80.928 111.323963 
L 89.856 110.846579 
L 98.784 110.061627 
L 107.712 109.868524 
L 116.64 110.741459 
L 125.568 111.036592 
L 134.496 110.797496 
L 143.424 110.45059 
L 152.352 110.385861 
L 161.28 109.943635 
L 170.208 110.065182 
L 179.136 109.913761 
L 188.064 110.129786 
L 196.992 110.028293 
L 205.92 110.200113 
L 214.848 110.359209 
L 223.776 110.706043 
L 232.704 110.710572 
L 241.632 110.780474 
L 250.56 110.827032 
L 259.488 110.911256 
L 268.416 110.909487 
L 277.344 110.965666 
L 286.272 110.802365 
L 295.2 110.918273 
L 304.128 110.913749 
L 313.056 110.849319 
L 321.984 110.891669 
L 330.912 110.865567 
L 339.84 110.799921 
L 348.768 110.855733 
L 357.696 110.872705 
L 366.624 110.751677 
L 375.552 110.741781 
L 384.48 110.727079 
L 393.408 110.718193 
L 402.336 110.736403 
L 411.264 110.802805 
L 420.192 110.726261 
L 429.12 110.712592 
L 438.048 110.685061 
L 446.976 110.63632 
L 455.904 110.647087 
L 464.832 110.701395 
L 473.76 110.68754 
L 482.688 110.671329 
L 491.616 110.704625 
L 500.544 110.694487 
L 509.472 110.696704 
L 518.4 110.741733 
" style="fill:none;stroke:#e377c2;stroke-linecap:square;stroke-width:1.5;"/>
   </g>
   <g id="patch_3">
    <path d="M 72 384.48 
L 72 51.84 
" style="fill:none;stroke:#000000;stroke-linecap:square;stroke-linejoin:miter;stroke-width:0.8;"/>
   </g>
   <g id="patch_4">
    <path d="M 518.4 384.48 
L 518.4 51.84 
" style="fill:none;stroke:#000000;stroke-linecap:square;stroke-linejoin:miter;stroke-width:0.8;"/>
   </g>
   <g id="patch_5">
    <path d="M 72 384.48 
L 518.4 384.48 
" style="fill:none;stroke:#000000;stroke-linecap:square;stroke-linejoin:miter;stroke-width:0.8;"/>
   </g>
   <g id="patch_6">
    <path d="M 72 51.84 
L 518.4 51.84 
" style="fill:none;stroke:#000000;stroke-linecap:square;stroke-linejoin:miter;stroke-width:0.8;"/>
   </g>
   <g id="legend_1">
    <g id="patch_7">
     <path d="M 79 379.48 
L 165.804688 379.48 
Q 167.804688 379.48 167.804688 377.48 
L 167.804688 275.733125 
Q 167.804688 273.733125 165.804688 273.733125 
L 79 273.733125 
Q 77 273.733125 77 275.733125 
L 77 377.48 
Q 77 379.48 79 379.48 
z
" style="fill:#ffffff;opacity:0.8;stroke:#cccccc;stroke-linejoin:miter;"/>
    </g>
    <g id="line2d_36">
     <path d="M 81 281.831563 
L 101 281.831563 
" style="fill:none;stroke:#1f77b4;stroke-linecap:square;stroke-width:1.5;"/>
    </g>
    <g id="line2d_37"/>
    <g id="text_17">
     <!-- Constant -->
     <defs>
      <path d="M 64.40625 67.28125 
L 64.40625 56.890625 
Q 59.421875 61.53125 53.78125 63.8125 
Q 48.140625 66.109375 41.796875 66.109375 
Q 29.296875 66.109375 22.65625 58.46875 
Q 16.015625 50.828125 16.015625 36.375 
Q 16.015625 21.96875 22.65625 14.328125 
Q 29.296875 6.6875 41.796875 6.6875 
Q 48.140625 6.6875 53.78125 8.984375 
Q 59.421875 11.28125 64.40625 15.921875 
L 64.40625 5.609375 
Q 59.234375 2.09375 53.4375 0.328125 
Q 47.65625 -1.421875 41.21875 -1.421875 
Q 24.65625 -1.421875 15.125 8.703125 
Q 5.609375 18.84375 5.609375 36.375 
Q 5.609375 53.953125 15.125 64.078125 
Q 24.65625 74.21875 41.21875 74.21875 
Q 47.75 74.21875 53.53125 72.484375 
Q 59.328125 70.75 64.40625 67.28125 
z
" id="DejaVuSans-67"/>
      <path d="M 44.28125 53.078125 
L 44.28125 44.578125 
Q 40.484375 46.53125 36.375 47.5 
Q 32.28125 48.484375 27.875 48.484375 
Q 21.1875 48.484375 17.84375 46.4375 
Q 14.5 44.390625 14.5 40.28125 
Q 14.5 37.15625 16.890625 35.375 
Q 19.28125 33.59375 26.515625 31.984375 
L 29.59375 31.296875 
Q 39.15625 29.25 43.1875 25.515625 
Q 47.21875 21.78125 47.21875 15.09375 
Q 47.21875 7.46875 41.1875 3.015625 
Q 35.15625 -1.421875 24.609375 -1.421875 
Q 20.21875 -1.421875 15.453125 -0.5625 
Q 10.6875 0.296875 5.421875 2 
L 5.421875 11.28125 
Q 10.40625 8.6875 15.234375 7.390625 
Q 20.0625 6.109375 24.8125 6.109375 
Q 31.15625 6.109375 34.5625 8.28125 
Q 37.984375 10.453125 37.984375 14.40625 
Q 37.984375 18.0625 35.515625 20.015625 
Q 33.0625 21.96875 24.703125 23.78125 
L 21.578125 24.515625 
Q 13.234375 26.265625 9.515625 29.90625 
Q 5.8125 33.546875 5.8125 39.890625 
Q 5.8125 47.609375 11.28125 51.796875 
Q 16.75 56 26.8125 56 
Q 31.78125 56 36.171875 55.265625 
Q 40.578125 54.546875 44.28125 53.078125 
z
" id="DejaVuSans-115"/>
     </defs>
     <g transform="translate(109 285.331563)scale(0.1 -0.1)">
      <use xlink:href="#DejaVuSans-67"/>
      <use x="69.824219" xlink:href="#DejaVuSans-111"/>
      <use x="131.005859" xlink:href="#DejaVuSans-110"/>
      <use x="194.384766" xlink:href="#DejaVuSans-115"/>
      <use x="246.484375" xlink:href="#DejaVuSans-116"/>
      <use x="285.693359" xlink:href="#DejaVuSans-97"/>
      <use x="346.972656" xlink:href="#DejaVuSans-110"/>
      <use x="410.351562" xlink:href="#DejaVuSans-116"/>
     </g>
    </g>
    <g id="line2d_38">
     <path d="M 81 296.509688 
L 101 296.509688 
" style="fill:none;stroke:#ff7f0e;stroke-linecap:square;stroke-width:1.5;"/>
    </g>
    <g id="line2d_39"/>
    <g id="text_18">
     <!-- RBF -->
     <defs>
      <path d="M 44.390625 34.1875 
Q 47.5625 33.109375 50.5625 29.59375 
Q 53.5625 26.078125 56.59375 19.921875 
L 66.609375 0 
L 56 0 
L 46.6875 18.703125 
Q 43.0625 26.03125 39.671875 28.421875 
Q 36.28125 30.8125 30.421875 30.8125 
L 19.671875 30.8125 
L 19.671875 0 
L 9.8125 0 
L 9.8125 72.90625 
L 32.078125 72.90625 
Q 44.578125 72.90625 50.734375 67.671875 
Q 56.890625 62.453125 56.890625 51.90625 
Q 56.890625 45.015625 53.6875 40.46875 
Q 50.484375 35.9375 44.390625 34.1875 
z
M 19.671875 64.796875 
L 19.671875 38.921875 
L 32.078125 38.921875 
Q 39.203125 38.921875 42.84375 42.21875 
Q 46.484375 45.515625 46.484375 51.90625 
Q 46.484375 58.296875 42.84375 61.546875 
Q 39.203125 64.796875 32.078125 64.796875 
z
" id="DejaVuSans-82"/>
      <path d="M 19.671875 34.8125 
L 19.671875 8.109375 
L 35.5 8.109375 
Q 43.453125 8.109375 47.28125 11.40625 
Q 51.125 14.703125 51.125 21.484375 
Q 51.125 28.328125 47.28125 31.5625 
Q 43.453125 34.8125 35.5 34.8125 
z
M 19.671875 64.796875 
L 19.671875 42.828125 
L 34.28125 42.828125 
Q 41.5 42.828125 45.03125 45.53125 
Q 48.578125 48.25 48.578125 53.8125 
Q 48.578125 59.328125 45.03125 62.0625 
Q 41.5 64.796875 34.28125 64.796875 
z
M 9.8125 72.90625 
L 35.015625 72.90625 
Q 46.296875 72.90625 52.390625 68.21875 
Q 58.5 63.53125 58.5 54.890625 
Q 58.5 48.1875 55.375 44.234375 
Q 52.25 40.28125 46.1875 39.3125 
Q 53.46875 37.75 57.5 32.78125 
Q 61.53125 27.828125 61.53125 20.40625 
Q 61.53125 10.640625 54.890625 5.3125 
Q 48.25 0 35.984375 0 
L 9.8125 0 
z
" id="DejaVuSans-66"/>
      <path d="M 9.8125 72.90625 
L 51.703125 72.90625 
L 51.703125 64.59375 
L 19.671875 64.59375 
L 19.671875 43.109375 
L 48.578125 43.109375 
L 48.578125 34.8125 
L 19.671875 34.8125 
L 19.671875 0 
L 9.8125 0 
z
" id="DejaVuSans-70"/>
     </defs>
     <g transform="translate(109 300.009688)scale(0.1 -0.1)">
      <use xlink:href="#DejaVuSans-82"/>
      <use x="69.482422" xlink:href="#DejaVuSans-66"/>
      <use x="138.085938" xlink:href="#DejaVuSans-70"/>
     </g>
    </g>
    <g id="line2d_40">
     <path d="M 81 311.187813 
L 101 311.187813 
" style="fill:none;stroke:#2ca02c;stroke-linecap:square;stroke-width:1.5;"/>
    </g>
    <g id="line2d_41"/>
    <g id="text_19">
     <!-- Matrn-1/2 -->
     <defs>
      <path d="M 9.8125 72.90625 
L 24.515625 72.90625 
L 43.109375 23.296875 
L 61.8125 72.90625 
L 76.515625 72.90625 
L 76.515625 0 
L 66.890625 0 
L 66.890625 64.015625 
L 48.09375 14.015625 
L 38.1875 14.015625 
L 19.390625 64.015625 
L 19.390625 0 
L 9.8125 0 
z
" id="DejaVuSans-77"/>
      <path d="M 56.203125 29.59375 
L 56.203125 25.203125 
L 14.890625 25.203125 
Q 15.484375 15.921875 20.484375 11.0625 
Q 25.484375 6.203125 34.421875 6.203125 
Q 39.59375 6.203125 44.453125 7.46875 
Q 49.3125 8.734375 54.109375 11.28125 
L 54.109375 2.78125 
Q 49.265625 0.734375 44.1875 -0.34375 
Q 39.109375 -1.421875 33.890625 -1.421875 
Q 20.796875 -1.421875 13.15625 6.1875 
Q 5.515625 13.8125 5.515625 26.8125 
Q 5.515625 40.234375 12.765625 48.109375 
Q 20.015625 56 32.328125 56 
Q 43.359375 56 49.78125 48.890625 
Q 56.203125 41.796875 56.203125 29.59375 
z
M 47.21875 32.234375 
Q 47.125 39.59375 43.09375 43.984375 
Q 39.0625 48.390625 32.421875 48.390625 
Q 24.90625 48.390625 20.390625 44.140625 
Q 15.875 39.890625 15.1875 32.171875 
z
M 38.53125 79.984375 
L 48.25 79.984375 
L 32.34375 61.625 
L 24.859375 61.625 
z
" id="DejaVuSans-233"/>
      <path d="M 4.890625 31.390625 
L 31.203125 31.390625 
L 31.203125 23.390625 
L 4.890625 23.390625 
z
" id="DejaVuSans-45"/>
      <path d="M 25.390625 72.90625 
L 33.6875 72.90625 
L 8.296875 -9.28125 
L 0 -9.28125 
z
" id="DejaVuSans-47"/>
     </defs>
     <g transform="translate(109 314.687813)scale(0.1 -0.1)">
      <use xlink:href="#DejaVuSans-77"/>
      <use x="86.279297" xlink:href="#DejaVuSans-97"/>
      <use x="147.558594" xlink:href="#DejaVuSans-116"/>
      <use x="186.767578" xlink:href="#DejaVuSans-233"/>
      <use x="248.291016" xlink:href="#DejaVuSans-114"/>
      <use x="287.654297" xlink:href="#DejaVuSans-110"/>
      <use x="351.033203" xlink:href="#DejaVuSans-45"/>
      <use x="387.117188" xlink:href="#DejaVuSans-49"/>
      <use x="450.740234" xlink:href="#DejaVuSans-47"/>
      <use x="484.431641" xlink:href="#DejaVuSans-50"/>
     </g>
    </g>
    <g id="line2d_42">
     <path d="M 81 325.865938 
L 101 325.865938 
" style="fill:none;stroke:#d62728;stroke-linecap:square;stroke-width:1.5;"/>
    </g>
    <g id="line2d_43"/>
    <g id="text_20">
     <!-- Matrn-3/2 -->
     <g transform="translate(109 329.365938)scale(0.1 -0.1)">
      <use xlink:href="#DejaVuSans-77"/>
      <use x="86.279297" xlink:href="#DejaVuSans-97"/>
      <use x="147.558594" xlink:href="#DejaVuSans-116"/>
      <use x="186.767578" xlink:href="#DejaVuSans-233"/>
      <use x="248.291016" xlink:href="#DejaVuSans-114"/>
      <use x="287.654297" xlink:href="#DejaVuSans-110"/>
      <use x="351.033203" xlink:href="#DejaVuSans-45"/>
      <use x="387.117188" xlink:href="#DejaVuSans-51"/>
      <use x="450.740234" xlink:href="#DejaVuSans-47"/>
      <use x="484.431641" xlink:href="#DejaVuSans-50"/>
     </g>
    </g>
    <g id="line2d_44">
     <path d="M 81 340.544062 
L 101 340.544062 
" style="fill:none;stroke:#9467bd;stroke-linecap:square;stroke-width:1.5;"/>
    </g>
    <g id="line2d_45"/>
    <g id="text_21">
     <!-- Matrn-5/2 -->
     <g transform="translate(109 344.044062)scale(0.1 -0.1)">
      <use xlink:href="#DejaVuSans-77"/>
      <use x="86.279297" xlink:href="#DejaVuSans-97"/>
      <use x="147.558594" xlink:href="#DejaVuSans-116"/>
      <use x="186.767578" xlink:href="#DejaVuSans-233"/>
      <use x="248.291016" xlink:href="#DejaVuSans-114"/>
      <use x="287.654297" xlink:href="#DejaVuSans-110"/>
      <use x="351.033203" xlink:href="#DejaVuSans-45"/>
      <use x="387.117188" xlink:href="#DejaVuSans-53"/>
      <use x="450.740234" xlink:href="#DejaVuSans-47"/>
      <use x="484.431641" xlink:href="#DejaVuSans-50"/>
     </g>
    </g>
    <g id="line2d_46">
     <path d="M 81 355.222188 
L 101 355.222188 
" style="fill:none;stroke:#8c564b;stroke-linecap:square;stroke-width:1.5;"/>
    </g>
    <g id="line2d_47"/>
    <g id="text_22">
     <!-- RQ -->
     <defs>
      <path d="M 39.40625 66.21875 
Q 28.65625 66.21875 22.328125 58.203125 
Q 16.015625 50.203125 16.015625 36.375 
Q 16.015625 22.609375 22.328125 14.59375 
Q 28.65625 6.59375 39.40625 6.59375 
Q 50.140625 6.59375 56.421875 14.59375 
Q 62.703125 22.609375 62.703125 36.375 
Q 62.703125 50.203125 56.421875 58.203125 
Q 50.140625 66.21875 39.40625 66.21875 
z
M 53.21875 1.3125 
L 66.21875 -12.890625 
L 54.296875 -12.890625 
L 43.5 -1.21875 
Q 41.890625 -1.3125 41.03125 -1.359375 
Q 40.1875 -1.421875 39.40625 -1.421875 
Q 24.03125 -1.421875 14.8125 8.859375 
Q 5.609375 19.140625 5.609375 36.375 
Q 5.609375 53.65625 14.8125 63.9375 
Q 24.03125 74.21875 39.40625 74.21875 
Q 54.734375 74.21875 63.90625 63.9375 
Q 73.09375 53.65625 73.09375 36.375 
Q 73.09375 23.6875 67.984375 14.640625 
Q 62.890625 5.609375 53.21875 1.3125 
z
" id="DejaVuSans-81"/>
     </defs>
     <g transform="translate(109 358.722188)scale(0.1 -0.1)">
      <use xlink:href="#DejaVuSans-82"/>
      <use x="69.482422" xlink:href="#DejaVuSans-81"/>
     </g>
    </g>
    <g id="line2d_48">
     <path d="M 81 369.900313 
L 101 369.900313 
" style="fill:none;stroke:#e377c2;stroke-linecap:square;stroke-width:1.5;"/>
    </g>
    <g id="line2d_49"/>
    <g id="text_23">
     <!-- Dot Prod. -->
     <defs>
      <path d="M 19.671875 64.796875 
L 19.671875 8.109375 
L 31.59375 8.109375 
Q 46.6875 8.109375 53.6875 14.9375 
Q 60.6875 21.78125 60.6875 36.53125 
Q 60.6875 51.171875 53.6875 57.984375 
Q 46.6875 64.796875 31.59375 64.796875 
z
M 9.8125 72.90625 
L 30.078125 72.90625 
Q 51.265625 72.90625 61.171875 64.09375 
Q 71.09375 55.28125 71.09375 36.53125 
Q 71.09375 17.671875 61.125 8.828125 
Q 51.171875 0 30.078125 0 
L 9.8125 0 
z
" id="DejaVuSans-68"/>
      <path d="M 19.671875 64.796875 
L 19.671875 37.40625 
L 32.078125 37.40625 
Q 38.96875 37.40625 42.71875 40.96875 
Q 46.484375 44.53125 46.484375 51.125 
Q 46.484375 57.671875 42.71875 61.234375 
Q 38.96875 64.796875 32.078125 64.796875 
z
M 9.8125 72.90625 
L 32.078125 72.90625 
Q 44.34375 72.90625 50.609375 67.359375 
Q 56.890625 61.8125 56.890625 51.125 
Q 56.890625 40.328125 50.609375 34.8125 
Q 44.34375 29.296875 32.078125 29.296875 
L 19.671875 29.296875 
L 19.671875 0 
L 9.8125 0 
z
" id="DejaVuSans-80"/>
      <path d="M 10.6875 12.40625 
L 21 12.40625 
L 21 0 
L 10.6875 0 
z
" id="DejaVuSans-46"/>
     </defs>
     <g transform="translate(109 373.400313)scale(0.1 -0.1)">
      <use xlink:href="#DejaVuSans-68"/>
      <use x="77.001953" xlink:href="#DejaVuSans-111"/>
      <use x="138.183594" xlink:href="#DejaVuSans-116"/>
      <use x="177.392578" xlink:href="#DejaVuSans-32"/>
      <use x="209.179688" xlink:href="#DejaVuSans-80"/>
      <use x="267.732422" xlink:href="#DejaVuSans-114"/>
      <use x="306.595703" xlink:href="#DejaVuSans-111"/>
      <use x="367.777344" xlink:href="#DejaVuSans-100"/>
      <use x="431.253906" xlink:href="#DejaVuSans-46"/>
     </g>
    </g>
   </g>
  </g>
 </g>
 <defs>
  <clipPath id="p83542a46f0">
   <rect height="332.64" width="446.4" x="72" y="51.84"/>
  </clipPath>
 </defs>
</svg>
