<?xml version="1.0" encoding="utf-8" standalone="no"?>
<!DOCTYPE svg PUBLIC "-//W3C//DTD SVG 1.1//EN"
  "http://www.w3.org/Graphics/SVG/1.1/DTD/svg11.dtd">
<!-- Created with matplotlib (https://matplotlib.org/) -->
<svg height="432pt" version="1.1" viewBox="0 0 576 432" width="576pt" xmlns="http://www.w3.org/2000/svg" xmlns:xlink="http://www.w3.org/1999/xlink">
 <defs>
  <style type="text/css">
*{stroke-linecap:butt;stroke-linejoin:round;}
  </style>
 </defs>
 <g id="figure_1">
  <g id="patch_1">
   <path d="M 0 432 
L 576 432 
L 576 0 
L 0 0 
z
" style="fill:#ffffff;"/>
  </g>
  <g id="axes_1">
   <g id="patch_2">
    <path d="M 72 384.48 
L 518.4 384.48 
L 518.4 51.84 
L 72 51.84 
z
" style="fill:#ffffff;"/>
   </g>
   <g id="PolyCollection_1">
    <path clip-path="url(#pc4d4edd9ac)" d="M 72 151.104076 
L 72 148.845925 
L 80.928 149.421737 
L 89.856 149.780758 
L 98.784 147.267656 
L 107.712 150.118948 
L 116.64 149.001 
L 125.568 149.261092 
L 134.496 148.771385 
L 143.424 149.81889 
L 152.352 149.557615 
L 161.28 150.185329 
L 170.208 149.724487 
L 179.136 149.749256 
L 188.064 150.041219 
L 196.992 150.011646 
L 205.92 149.742084 
L 214.848 149.619389 
L 223.776 149.677664 
L 232.704 150.687572 
L 241.632 150.559722 
L 250.56 150.695002 
L 259.488 150.67798 
L 268.416 150.708591 
L 277.344 150.608905 
L 286.272 150.71114 
L 295.2 150.438458 
L 304.128 150.527864 
L 313.056 150.712476 
L 321.984 150.718886 
L 330.912 148.754189 
L 339.84 149.455258 
L 348.768 149.088739 
L 357.696 148.320609 
L 366.624 147.880573 
L 375.552 148.464979 
L 384.48 149.122543 
L 393.408 146.236312 
L 402.336 147.448709 
L 411.264 148.067068 
L 420.192 146.880156 
L 429.12 147.85721 
L 438.048 146.03371 
L 446.976 149.580022 
L 455.904 148.718524 
L 464.832 146.420951 
L 473.76 149.911009 
L 482.688 146.465803 
L 491.616 145.283957 
L 500.544 147.017497 
L 509.472 145.405208 
L 518.4 148.055941 
L 518.4 152.221841 
L 518.4 152.221841 
L 509.472 152.246505 
L 500.544 151.774241 
L 491.616 152.530947 
L 482.688 152.199616 
L 473.76 151.222691 
L 464.832 152.344917 
L 455.904 152.109331 
L 446.976 151.45846 
L 438.048 151.847189 
L 429.12 152.168816 
L 420.192 151.292818 
L 411.264 151.593527 
L 402.336 151.490271 
L 393.408 151.845054 
L 384.48 151.460285 
L 375.552 151.520656 
L 366.624 151.088871 
L 357.696 151.4636 
L 348.768 151.291794 
L 339.84 151.351283 
L 330.912 151.265417 
L 321.984 150.761335 
L 313.056 150.762431 
L 304.128 150.902047 
L 295.2 150.96295 
L 286.272 150.763754 
L 277.344 150.754314 
L 268.416 150.764162 
L 259.488 150.776152 
L 250.56 150.766393 
L 241.632 150.750612 
L 232.704 150.768069 
L 223.776 151.090004 
L 214.848 151.307245 
L 205.92 151.107559 
L 196.992 150.946147 
L 188.064 150.973857 
L 179.136 151.097512 
L 170.208 150.941182 
L 161.28 150.7969 
L 152.352 150.966539 
L 143.424 151.001788 
L 134.496 151.338901 
L 125.568 151.064687 
L 116.64 151.192031 
L 107.712 150.815692 
L 98.784 150.531016 
L 89.856 150.954827 
L 80.928 150.999621 
L 72 151.104076 
z
" style="fill:#1f77b4;fill-opacity:0.3;"/>
   </g>
   <g id="PolyCollection_2">
    <path clip-path="url(#pc4d4edd9ac)" d="M 72 154.619278 
L 72 141.977537 
L 80.928 133.832679 
L 89.856 148.693468 
L 98.784 131.965321 
L 107.712 137.600775 
L 116.64 146.199656 
L 125.568 154.392285 
L 134.496 132.049331 
L 143.424 145.209021 
L 152.352 147.986418 
L 161.28 159.661874 
L 170.208 160.841673 
L 179.136 159.415481 
L 188.064 185.70383 
L 196.992 193.379552 
L 205.92 186.256817 
L 214.848 198.851648 
L 223.776 212.260811 
L 232.704 207.705301 
L 241.632 223.3541 
L 250.56 208.968483 
L 259.488 241.662508 
L 268.416 235.583365 
L 277.344 239.892182 
L 286.272 242.081943 
L 295.2 292.48821 
L 304.128 289.453525 
L 313.056 286.235054 
L 321.984 281.159425 
L 330.912 327.557347 
L 339.84 331.170459 
L 348.768 332.150771 
L 357.696 332.92565 
L 366.624 334.301085 
L 375.552 334.378503 
L 384.48 335.516307 
L 393.408 336.341042 
L 402.336 338.832633 
L 411.264 338.79269 
L 420.192 338.853373 
L 429.12 338.762931 
L 438.048 338.673292 
L 446.976 338.575215 
L 455.904 338.664892 
L 464.832 338.615857 
L 473.76 346.266354 
L 482.688 346.23793 
L 491.616 346.330289 
L 500.544 346.60145 
L 509.472 346.555554 
L 518.4 346.685861 
L 518.4 347.169334 
L 518.4 347.169334 
L 509.472 347.043951 
L 500.544 347.08681 
L 491.616 346.839128 
L 482.688 346.755639 
L 473.76 346.781823 
L 464.832 341.923303 
L 455.904 341.940868 
L 446.976 341.808603 
L 438.048 341.902719 
L 429.12 341.933438 
L 420.192 342.016565 
L 411.264 341.900292 
L 402.336 341.939292 
L 393.408 340.426328 
L 384.48 339.68434 
L 375.552 338.918747 
L 366.624 338.833162 
L 357.696 338.004608 
L 348.768 337.092046 
L 339.84 336.254322 
L 330.912 330.709075 
L 321.984 301.22786 
L 313.056 302.549796 
L 304.128 303.892545 
L 295.2 299.989878 
L 286.272 274.826779 
L 277.344 275.058084 
L 268.416 273.022518 
L 259.488 262.987099 
L 250.56 240.29409 
L 241.632 240.991335 
L 232.704 237.222632 
L 223.776 220.576917 
L 214.848 218.039874 
L 205.92 203.010731 
L 196.992 206.79103 
L 188.064 203.445807 
L 179.136 178.797685 
L 170.208 169.0914 
L 161.28 171.824384 
L 152.352 165.285731 
L 143.424 155.053412 
L 134.496 154.240902 
L 125.568 173.132833 
L 116.64 169.250834 
L 107.712 161.614425 
L 98.784 146.311914 
L 89.856 155.140697 
L 80.928 156.190371 
L 72 154.619278 
z
" style="fill:#ff7f0e;fill-opacity:0.3;"/>
   </g>
   <g id="PolyCollection_3">
    <path clip-path="url(#pc4d4edd9ac)" d="M 72 154.178422 
L 72 150.927944 
L 80.928 151.256929 
L 89.856 151.325848 
L 98.784 155.334275 
L 107.712 167.023709 
L 116.64 167.023916 
L 125.568 167.023914 
L 134.496 167.1124 
L 143.424 180.708686 
L 152.352 180.752271 
L 161.28 185.91545 
L 170.208 186.658538 
L 179.136 187.200384 
L 188.064 187.200384 
L 196.992 187.200383 
L 205.92 188.483368 
L 214.848 193.212274 
L 223.776 193.241579 
L 232.704 193.241695 
L 241.632 193.5967 
L 250.56 196.52677 
L 259.488 196.526769 
L 268.416 196.526768 
L 277.344 201.270546 
L 286.272 202.170886 
L 295.2 202.171158 
L 304.128 203.555609 
L 313.056 204.830726 
L 321.984 217.424466 
L 330.912 217.424463 
L 339.84 217.42446 
L 348.768 217.84735 
L 357.696 219.874112 
L 366.624 219.905089 
L 375.552 219.905091 
L 384.48 220.722538 
L 393.408 223.211302 
L 402.336 223.211299 
L 411.264 223.211295 
L 420.192 223.480626 
L 429.12 223.485299 
L 438.048 223.485551 
L 446.976 223.490105 
L 455.904 223.783693 
L 464.832 225.137933 
L 473.76 225.13793 
L 482.688 225.137926 
L 491.616 226.700341 
L 500.544 227.092222 
L 509.472 227.098471 
L 518.4 227.098827 
L 518.4 228.999141 
L 518.4 228.999141 
L 509.472 228.998695 
L 500.544 228.99077 
L 491.616 228.489089 
L 482.688 226.605115 
L 473.76 226.605118 
L 464.832 226.605121 
L 455.904 225.057183 
L 446.976 224.71055 
L 438.048 224.705348 
L 429.12 224.705059 
L 420.192 224.699721 
L 411.264 224.37392 
L 402.336 224.373923 
L 393.408 224.373927 
L 384.48 221.767699 
L 375.552 220.8646 
L 366.624 220.864597 
L 357.696 220.830378 
L 348.768 218.88594 
L 339.84 218.415093 
L 330.912 218.415096 
L 321.984 218.415099 
L 313.056 206.375051 
L 304.128 204.99079 
L 295.2 203.54294 
L 286.272 203.542616 
L 277.344 202.511806 
L 268.416 198.974682 
L 259.488 198.974683 
L 250.56 198.974684 
L 241.632 195.469144 
L 232.704 194.995946 
L 223.776 194.995804 
L 214.848 194.960324 
L 205.92 190.98246 
L 196.992 189.333261 
L 188.064 189.333262 
L 179.136 189.333263 
L 170.208 188.746756 
L 161.28 187.853214 
L 152.352 184.678817 
L 143.424 184.602545 
L 134.496 178.234067 
L 125.568 177.961301 
L 116.64 177.961302 
L 107.712 177.825144 
L 98.784 164.26769 
L 89.856 156.065961 
L 80.928 155.79568 
L 72 154.178422 
z
" style="fill:#2ca02c;fill-opacity:0.3;"/>
   </g>
   <g id="PolyCollection_4">
    <path clip-path="url(#pc4d4edd9ac)" d="M 72 153.34989 
L 72 147.510138 
L 80.928 149.732066 
L 89.856 149.809315 
L 98.784 161.844379 
L 107.712 158.908067 
L 116.64 159.882469 
L 125.568 161.159414 
L 134.496 160.116563 
L 143.424 179.440579 
L 152.352 181.408426 
L 161.28 181.402972 
L 170.208 184.594721 
L 179.136 203.559028 
L 188.064 203.559299 
L 196.992 203.559535 
L 205.92 214.634114 
L 214.848 214.826388 
L 223.776 214.833066 
L 232.704 214.834703 
L 241.632 215.163879 
L 250.56 227.366936 
L 259.488 227.367537 
L 268.416 227.368095 
L 277.344 229.002643 
L 286.272 228.918159 
L 295.2 228.918308 
L 304.128 228.836167 
L 313.056 228.757073 
L 321.984 283.228484 
L 330.912 283.228367 
L 339.84 283.228248 
L 348.768 283.44832 
L 357.696 284.20319 
L 366.624 284.204062 
L 375.552 284.20427 
L 384.48 284.204327 
L 393.408 284.135031 
L 402.336 284.135174 
L 411.264 284.135304 
L 420.192 284.815496 
L 429.12 285.225905 
L 438.048 285.225902 
L 446.976 285.225284 
L 455.904 285.198555 
L 464.832 288.063341 
L 473.76 288.063385 
L 482.688 288.063421 
L 491.616 292.862449 
L 500.544 293.153174 
L 509.472 293.161006 
L 518.4 293.160676 
L 518.4 295.99978 
L 518.4 295.99978 
L 509.472 296.000606 
L 500.544 295.989112 
L 491.616 295.585451 
L 482.688 290.049767 
L 473.76 290.049761 
L 464.832 290.049748 
L 455.904 286.907476 
L 446.976 286.934362 
L 438.048 286.935563 
L 429.12 286.935659 
L 420.192 286.429719 
L 411.264 285.547722 
L 402.336 285.547621 
L 393.408 285.547507 
L 384.48 285.318249 
L 375.552 285.310752 
L 366.624 285.310553 
L 357.696 285.310539 
L 348.768 284.51178 
L 339.84 283.723436 
L 330.912 283.72344 
L 321.984 283.723436 
L 313.056 237.915424 
L 304.128 237.451582 
L 295.2 236.529702 
L 286.272 236.52616 
L 277.344 236.413575 
L 268.416 231.030406 
L 259.488 231.029687 
L 250.56 231.028931 
L 241.632 221.828419 
L 232.704 220.727689 
L 223.776 220.705001 
L 214.848 220.698908 
L 205.92 220.602946 
L 196.992 210.023728 
L 188.064 210.023392 
L 179.136 210.022691 
L 170.208 195.876857 
L 161.28 187.03284 
L 152.352 186.689289 
L 143.424 184.790707 
L 134.496 171.175908 
L 125.568 169.807452 
L 116.64 169.436146 
L 107.712 165.767958 
L 98.784 169.891654 
L 89.856 160.126801 
L 80.928 155.069137 
L 72 153.34989 
z
" style="fill:#d62728;fill-opacity:0.3;"/>
   </g>
   <g id="PolyCollection_5">
    <path clip-path="url(#pc4d4edd9ac)" d="M 72 154.509924 
L 72 144.099587 
L 80.928 144.099667 
L 89.856 151.072651 
L 98.784 151.336635 
L 107.712 151.94467 
L 116.64 157.235846 
L 125.568 160.292069 
L 134.496 156.203733 
L 143.424 172.677647 
L 152.352 178.37271 
L 161.28 179.39094 
L 170.208 188.545303 
L 179.136 201.603191 
L 188.064 201.609082 
L 196.992 201.733704 
L 205.92 206.984393 
L 214.848 227.302682 
L 223.776 227.396937 
L 232.704 227.376948 
L 241.632 227.083749 
L 250.56 254.501356 
L 259.488 254.509323 
L 268.416 254.528595 
L 277.344 254.258626 
L 286.272 253.983711 
L 295.2 253.989252 
L 304.128 251.457482 
L 313.056 251.303475 
L 321.984 309.453089 
L 330.912 309.452806 
L 339.84 309.453047 
L 348.768 309.534338 
L 357.696 331.507363 
L 366.624 331.510139 
L 375.552 331.547068 
L 384.48 331.263852 
L 393.408 330.472026 
L 402.336 330.473206 
L 411.264 330.474422 
L 420.192 333.11541 
L 429.12 333.689627 
L 438.048 333.690521 
L 446.976 334.206638 
L 455.904 334.357629 
L 464.832 339.203843 
L 473.76 339.204538 
L 482.688 339.20515 
L 491.616 344.899266 
L 500.544 344.930745 
L 509.472 344.931068 
L 518.4 344.971962 
L 518.4 346.883696 
L 518.4 346.883696 
L 509.472 346.834387 
L 500.544 346.83475 
L 491.616 346.80037 
L 482.688 341.626449 
L 473.76 341.629702 
L 464.832 341.632897 
L 455.904 336.914481 
L 446.976 336.718034 
L 438.048 336.001007 
L 429.12 336.000561 
L 420.192 335.116041 
L 411.264 332.450765 
L 402.336 332.449721 
L 393.408 332.448766 
L 384.48 333.335909 
L 375.552 333.292692 
L 366.624 333.256972 
L 357.696 333.255819 
L 348.768 320.192117 
L 339.84 320.506774 
L 330.912 320.507003 
L 321.984 320.507431 
L 313.056 270.655127 
L 304.128 270.376378 
L 295.2 263.026736 
L 286.272 263.018703 
L 277.344 264.146473 
L 268.416 258.12415 
L 259.488 258.099935 
L 250.56 258.092352 
L 241.632 240.863297 
L 232.704 235.612454 
L 223.776 235.491288 
L 214.848 234.861729 
L 205.92 222.207807 
L 196.992 210.63643 
L 188.064 210.531147 
L 179.136 210.457581 
L 170.208 199.063296 
L 161.28 190.39228 
L 152.352 183.294104 
L 143.424 180.986948 
L 134.496 169.581233 
L 125.568 171.093674 
L 116.64 170.353999 
L 107.712 163.274751 
L 98.784 160.271455 
L 89.856 158.182094 
L 80.928 154.755017 
L 72 154.509924 
z
" style="fill:#9467bd;fill-opacity:0.3;"/>
   </g>
   <g id="PolyCollection_6">
    <path clip-path="url(#pc4d4edd9ac)" d="M 72 151.405013 
L 72 149.788991 
L 80.928 150.594854 
L 89.856 150.913562 
L 98.784 150.525815 
L 107.712 158.27154 
L 116.64 160.703129 
L 125.568 162.212854 
L 134.496 165.123987 
L 143.424 185.151536 
L 152.352 184.751861 
L 161.28 183.338789 
L 170.208 189.856724 
L 179.136 203.300131 
L 188.064 204.560429 
L 196.992 204.993133 
L 205.92 225.396016 
L 214.848 227.098565 
L 223.776 229.632891 
L 232.704 232.019162 
L 241.632 234.358421 
L 250.56 288.482407 
L 259.488 295.046662 
L 268.416 302.828164 
L 277.344 308.548506 
L 286.272 312.05884 
L 295.2 317.251063 
L 304.128 330.777467 
L 313.056 341.800296 
L 321.984 415.061524 
L 330.912 421.392 
L 339.84 419.969877 
L 348.768 421.868938 
L 357.696 419.898532 
L 366.624 419.696667 
L 375.552 419.460065 
L 384.48 419.412654 
L 393.408 419.35464 
L 402.336 419.007511 
L 411.264 418.79067 
L 420.192 420.303389 
L 429.12 420.177009 
L 438.048 419.984555 
L 446.976 419.716944 
L 455.904 419.559398 
L 464.832 419.582128 
L 473.76 418.959381 
L 482.688 418.809428 
L 491.616 418.804619 
L 500.544 418.649494 
L 509.472 418.483899 
L 518.4 418.273814 
L 518.4 420.228225 
L 518.4 420.228225 
L 509.472 420.4368 
L 500.544 420.597358 
L 491.616 420.752755 
L 482.688 420.739671 
L 473.76 420.885686 
L 464.832 421.577623 
L 455.904 421.580161 
L 446.976 421.734053 
L 438.048 421.998304 
L 429.12 422.192328 
L 420.192 422.29739 
L 411.264 420.523619 
L 402.336 420.732988 
L 393.408 421.138305 
L 384.48 421.200584 
L 375.552 421.226284 
L 366.624 421.464842 
L 357.696 421.672543 
L 348.768 423.654887 
L 339.84 421.833768 
L 330.912 423.182556 
L 321.984 420.182641 
L 313.056 364.0848 
L 304.128 356.167326 
L 295.2 337.700718 
L 286.272 332.482435 
L 277.344 317.886703 
L 268.416 306.889681 
L 259.488 299.364117 
L 250.56 294.282026 
L 241.632 245.473808 
L 232.704 240.951074 
L 223.776 237.036405 
L 214.848 234.096636 
L 205.92 230.233962 
L 196.992 214.846423 
L 188.064 211.698655 
L 179.136 210.113379 
L 170.208 199.362751 
L 161.28 192.286502 
L 152.352 190.159385 
L 143.424 189.981481 
L 134.496 178.681034 
L 125.568 176.627172 
L 116.64 173.086057 
L 107.712 173.760088 
L 98.784 155.441982 
L 89.856 151.89124 
L 80.928 151.920977 
L 72 151.405013 
z
" style="fill:#8c564b;fill-opacity:0.3;"/>
   </g>
   <g id="PolyCollection_7">
    <path clip-path="url(#pc4d4edd9ac)" d="M 72 151.178507 
L 72 149.667183 
L 80.928 150.202685 
L 89.856 150.424191 
L 98.784 149.192172 
L 107.712 151.114313 
L 116.64 151.133454 
L 125.568 151.198119 
L 134.496 151.079197 
L 143.424 151.306899 
L 152.352 151.321081 
L 161.28 151.333341 
L 170.208 151.267215 
L 179.136 151.374512 
L 188.064 151.36831 
L 196.992 151.365227 
L 205.92 151.369342 
L 214.848 151.388763 
L 223.776 151.381839 
L 232.704 151.374411 
L 241.632 151.300879 
L 250.56 151.425484 
L 259.488 151.415669 
L 268.416 151.418565 
L 277.344 151.350342 
L 286.272 151.431889 
L 295.2 151.43716 
L 304.128 151.442195 
L 313.056 151.441912 
L 321.984 151.444086 
L 330.912 151.441933 
L 339.84 151.436404 
L 348.768 151.437184 
L 357.696 151.439767 
L 366.624 151.437667 
L 375.552 151.430169 
L 384.48 151.387113 
L 393.408 151.453551 
L 402.336 151.452594 
L 411.264 151.451446 
L 420.192 151.427942 
L 429.12 151.454754 
L 438.048 151.457068 
L 446.976 151.456906 
L 455.904 151.452283 
L 464.832 151.45751 
L 473.76 151.457924 
L 482.688 151.453586 
L 491.616 151.449897 
L 500.544 151.458097 
L 509.472 151.416456 
L 518.4 151.454187 
L 518.4 151.462088 
L 518.4 151.462088 
L 509.472 151.494639 
L 500.544 151.466402 
L 491.616 151.462908 
L 482.688 151.462609 
L 473.76 151.468357 
L 464.832 151.470149 
L 455.904 151.468136 
L 446.976 151.468545 
L 438.048 151.470776 
L 429.12 151.47069 
L 420.192 151.459791 
L 411.264 151.46339 
L 402.336 151.470468 
L 393.408 151.471867 
L 384.48 151.442677 
L 375.552 151.445718 
L 366.624 151.453348 
L 357.696 151.455527 
L 348.768 151.453968 
L 339.84 151.453996 
L 330.912 151.469008 
L 321.984 151.473096 
L 313.056 151.471841 
L 304.128 151.472988 
L 295.2 151.477497 
L 286.272 151.475277 
L 277.344 151.440289 
L 268.416 151.453161 
L 259.488 151.471164 
L 250.56 151.477668 
L 241.632 151.423951 
L 232.704 151.413887 
L 223.776 151.43312 
L 214.848 151.440811 
L 205.92 151.424729 
L 196.992 151.426004 
L 188.064 151.470419 
L 179.136 151.482977 
L 170.208 151.441644 
L 161.28 151.443052 
L 152.352 151.472856 
L 143.424 151.483296 
L 134.496 151.391834 
L 125.568 151.42086 
L 116.64 151.527869 
L 107.712 151.538934 
L 98.784 150.676794 
L 89.856 151.016039 
L 80.928 151.092579 
L 72 151.178507 
z
" style="fill:#e377c2;fill-opacity:0.3;"/>
   </g>
   <g id="matplotlib.axis_1">
    <g id="xtick_1">
     <g id="line2d_1">
      <path clip-path="url(#pc4d4edd9ac)" d="M 72 384.48 
L 72 51.84 
" style="fill:none;stroke:#b0b0b0;stroke-linecap:square;stroke-width:0.8;"/>
     </g>
     <g id="line2d_2">
      <defs>
       <path d="M 0 0 
L 0 3.5 
" id="m230ef64696" style="stroke:#000000;stroke-width:0.8;"/>
      </defs>
      <g>
       <use style="stroke:#000000;stroke-width:0.8;" x="72" xlink:href="#m230ef64696" y="384.48"/>
      </g>
     </g>
     <g id="text_1">
      <!-- 0 -->
      <defs>
       <path d="M 31.78125 66.40625 
Q 24.171875 66.40625 20.328125 58.90625 
Q 16.5 51.421875 16.5 36.375 
Q 16.5 21.390625 20.328125 13.890625 
Q 24.171875 6.390625 31.78125 6.390625 
Q 39.453125 6.390625 43.28125 13.890625 
Q 47.125 21.390625 47.125 36.375 
Q 47.125 51.421875 43.28125 58.90625 
Q 39.453125 66.40625 31.78125 66.40625 
z
M 31.78125 74.21875 
Q 44.046875 74.21875 50.515625 64.515625 
Q 56.984375 54.828125 56.984375 36.375 
Q 56.984375 17.96875 50.515625 8.265625 
Q 44.046875 -1.421875 31.78125 -1.421875 
Q 19.53125 -1.421875 13.0625 8.265625 
Q 6.59375 17.96875 6.59375 36.375 
Q 6.59375 54.828125 13.0625 64.515625 
Q 19.53125 74.21875 31.78125 74.21875 
z
" id="DejaVuSans-48"/>
      </defs>
      <g transform="translate(68.81875 399.078438)scale(0.1 -0.1)">
       <use xlink:href="#DejaVuSans-48"/>
      </g>
     </g>
    </g>
    <g id="xtick_2">
     <g id="line2d_3">
      <path clip-path="url(#pc4d4edd9ac)" d="M 161.28 384.48 
L 161.28 51.84 
" style="fill:none;stroke:#b0b0b0;stroke-linecap:square;stroke-width:0.8;"/>
     </g>
     <g id="line2d_4">
      <g>
       <use style="stroke:#000000;stroke-width:0.8;" x="161.28" xlink:href="#m230ef64696" y="384.48"/>
      </g>
     </g>
     <g id="text_2">
      <!-- 10 -->
      <defs>
       <path d="M 12.40625 8.296875 
L 28.515625 8.296875 
L 28.515625 63.921875 
L 10.984375 60.40625 
L 10.984375 69.390625 
L 28.421875 72.90625 
L 38.28125 72.90625 
L 38.28125 8.296875 
L 54.390625 8.296875 
L 54.390625 0 
L 12.40625 0 
z
" id="DejaVuSans-49"/>
      </defs>
      <g transform="translate(154.9175 399.078438)scale(0.1 -0.1)">
       <use xlink:href="#DejaVuSans-49"/>
       <use x="63.623047" xlink:href="#DejaVuSans-48"/>
      </g>
     </g>
    </g>
    <g id="xtick_3">
     <g id="line2d_5">
      <path clip-path="url(#pc4d4edd9ac)" d="M 250.56 384.48 
L 250.56 51.84 
" style="fill:none;stroke:#b0b0b0;stroke-linecap:square;stroke-width:0.8;"/>
     </g>
     <g id="line2d_6">
      <g>
       <use style="stroke:#000000;stroke-width:0.8;" x="250.56" xlink:href="#m230ef64696" y="384.48"/>
      </g>
     </g>
     <g id="text_3">
      <!-- 20 -->
      <defs>
       <path d="M 19.1875 8.296875 
L 53.609375 8.296875 
L 53.609375 0 
L 7.328125 0 
L 7.328125 8.296875 
Q 12.9375 14.109375 22.625 23.890625 
Q 32.328125 33.6875 34.8125 36.53125 
Q 39.546875 41.84375 41.421875 45.53125 
Q 43.3125 49.21875 43.3125 52.78125 
Q 43.3125 58.59375 39.234375 62.25 
Q 35.15625 65.921875 28.609375 65.921875 
Q 23.96875 65.921875 18.8125 64.3125 
Q 13.671875 62.703125 7.8125 59.421875 
L 7.8125 69.390625 
Q 13.765625 71.78125 18.9375 73 
Q 24.125 74.21875 28.421875 74.21875 
Q 39.75 74.21875 46.484375 68.546875 
Q 53.21875 62.890625 53.21875 53.421875 
Q 53.21875 48.921875 51.53125 44.890625 
Q 49.859375 40.875 45.40625 35.40625 
Q 44.1875 33.984375 37.640625 27.21875 
Q 31.109375 20.453125 19.1875 8.296875 
z
" id="DejaVuSans-50"/>
      </defs>
      <g transform="translate(244.1975 399.078438)scale(0.1 -0.1)">
       <use xlink:href="#DejaVuSans-50"/>
       <use x="63.623047" xlink:href="#DejaVuSans-48"/>
      </g>
     </g>
    </g>
    <g id="xtick_4">
     <g id="line2d_7">
      <path clip-path="url(#pc4d4edd9ac)" d="M 339.84 384.48 
L 339.84 51.84 
" style="fill:none;stroke:#b0b0b0;stroke-linecap:square;stroke-width:0.8;"/>
     </g>
     <g id="line2d_8">
      <g>
       <use style="stroke:#000000;stroke-width:0.8;" x="339.84" xlink:href="#m230ef64696" y="384.48"/>
      </g>
     </g>
     <g id="text_4">
      <!-- 30 -->
      <defs>
       <path d="M 40.578125 39.3125 
Q 47.65625 37.796875 51.625 33 
Q 55.609375 28.21875 55.609375 21.1875 
Q 55.609375 10.40625 48.1875 4.484375 
Q 40.765625 -1.421875 27.09375 -1.421875 
Q 22.515625 -1.421875 17.65625 -0.515625 
Q 12.796875 0.390625 7.625 2.203125 
L 7.625 11.71875 
Q 11.71875 9.328125 16.59375 8.109375 
Q 21.484375 6.890625 26.8125 6.890625 
Q 36.078125 6.890625 40.9375 10.546875 
Q 45.796875 14.203125 45.796875 21.1875 
Q 45.796875 27.640625 41.28125 31.265625 
Q 36.765625 34.90625 28.71875 34.90625 
L 20.21875 34.90625 
L 20.21875 43.015625 
L 29.109375 43.015625 
Q 36.375 43.015625 40.234375 45.921875 
Q 44.09375 48.828125 44.09375 54.296875 
Q 44.09375 59.90625 40.109375 62.90625 
Q 36.140625 65.921875 28.71875 65.921875 
Q 24.65625 65.921875 20.015625 65.03125 
Q 15.375 64.15625 9.8125 62.3125 
L 9.8125 71.09375 
Q 15.4375 72.65625 20.34375 73.4375 
Q 25.25 74.21875 29.59375 74.21875 
Q 40.828125 74.21875 47.359375 69.109375 
Q 53.90625 64.015625 53.90625 55.328125 
Q 53.90625 49.265625 50.4375 45.09375 
Q 46.96875 40.921875 40.578125 39.3125 
z
" id="DejaVuSans-51"/>
      </defs>
      <g transform="translate(333.4775 399.078438)scale(0.1 -0.1)">
       <use xlink:href="#DejaVuSans-51"/>
       <use x="63.623047" xlink:href="#DejaVuSans-48"/>
      </g>
     </g>
    </g>
    <g id="xtick_5">
     <g id="line2d_9">
      <path clip-path="url(#pc4d4edd9ac)" d="M 429.12 384.48 
L 429.12 51.84 
" style="fill:none;stroke:#b0b0b0;stroke-linecap:square;stroke-width:0.8;"/>
     </g>
     <g id="line2d_10">
      <g>
       <use style="stroke:#000000;stroke-width:0.8;" x="429.12" xlink:href="#m230ef64696" y="384.48"/>
      </g>
     </g>
     <g id="text_5">
      <!-- 40 -->
      <defs>
       <path d="M 37.796875 64.3125 
L 12.890625 25.390625 
L 37.796875 25.390625 
z
M 35.203125 72.90625 
L 47.609375 72.90625 
L 47.609375 25.390625 
L 58.015625 25.390625 
L 58.015625 17.1875 
L 47.609375 17.1875 
L 47.609375 0 
L 37.796875 0 
L 37.796875 17.1875 
L 4.890625 17.1875 
L 4.890625 26.703125 
z
" id="DejaVuSans-52"/>
      </defs>
      <g transform="translate(422.7575 399.078438)scale(0.1 -0.1)">
       <use xlink:href="#DejaVuSans-52"/>
       <use x="63.623047" xlink:href="#DejaVuSans-48"/>
      </g>
     </g>
    </g>
    <g id="xtick_6">
     <g id="line2d_11">
      <path clip-path="url(#pc4d4edd9ac)" d="M 518.4 384.48 
L 518.4 51.84 
" style="fill:none;stroke:#b0b0b0;stroke-linecap:square;stroke-width:0.8;"/>
     </g>
     <g id="line2d_12">
      <g>
       <use style="stroke:#000000;stroke-width:0.8;" x="518.4" xlink:href="#m230ef64696" y="384.48"/>
      </g>
     </g>
     <g id="text_6">
      <!-- 50 -->
      <defs>
       <path d="M 10.796875 72.90625 
L 49.515625 72.90625 
L 49.515625 64.59375 
L 19.828125 64.59375 
L 19.828125 46.734375 
Q 21.96875 47.46875 24.109375 47.828125 
Q 26.265625 48.1875 28.421875 48.1875 
Q 40.625 48.1875 47.75 41.5 
Q 54.890625 34.8125 54.890625 23.390625 
Q 54.890625 11.625 47.5625 5.09375 
Q 40.234375 -1.421875 26.90625 -1.421875 
Q 22.3125 -1.421875 17.546875 -0.640625 
Q 12.796875 0.140625 7.71875 1.703125 
L 7.71875 11.625 
Q 12.109375 9.234375 16.796875 8.0625 
Q 21.484375 6.890625 26.703125 6.890625 
Q 35.15625 6.890625 40.078125 11.328125 
Q 45.015625 15.765625 45.015625 23.390625 
Q 45.015625 31 40.078125 35.4375 
Q 35.15625 39.890625 26.703125 39.890625 
Q 22.75 39.890625 18.8125 39.015625 
Q 14.890625 38.140625 10.796875 36.28125 
z
" id="DejaVuSans-53"/>
      </defs>
      <g transform="translate(512.0375 399.078438)scale(0.1 -0.1)">
       <use xlink:href="#DejaVuSans-53"/>
       <use x="63.623047" xlink:href="#DejaVuSans-48"/>
      </g>
     </g>
    </g>
    <g id="text_7">
     <!-- Iteration -->
     <defs>
      <path d="M 9.8125 72.90625 
L 19.671875 72.90625 
L 19.671875 0 
L 9.8125 0 
z
" id="DejaVuSans-73"/>
      <path d="M 18.3125 70.21875 
L 18.3125 54.6875 
L 36.8125 54.6875 
L 36.8125 47.703125 
L 18.3125 47.703125 
L 18.3125 18.015625 
Q 18.3125 11.328125 20.140625 9.421875 
Q 21.96875 7.515625 27.59375 7.515625 
L 36.8125 7.515625 
L 36.8125 0 
L 27.59375 0 
Q 17.1875 0 13.234375 3.875 
Q 9.28125 7.765625 9.28125 18.015625 
L 9.28125 47.703125 
L 2.6875 47.703125 
L 2.6875 54.6875 
L 9.28125 54.6875 
L 9.28125 70.21875 
z
" id="DejaVuSans-116"/>
      <path d="M 56.203125 29.59375 
L 56.203125 25.203125 
L 14.890625 25.203125 
Q 15.484375 15.921875 20.484375 11.0625 
Q 25.484375 6.203125 34.421875 6.203125 
Q 39.59375 6.203125 44.453125 7.46875 
Q 49.3125 8.734375 54.109375 11.28125 
L 54.109375 2.78125 
Q 49.265625 0.734375 44.1875 -0.34375 
Q 39.109375 -1.421875 33.890625 -1.421875 
Q 20.796875 -1.421875 13.15625 6.1875 
Q 5.515625 13.8125 5.515625 26.8125 
Q 5.515625 40.234375 12.765625 48.109375 
Q 20.015625 56 32.328125 56 
Q 43.359375 56 49.78125 48.890625 
Q 56.203125 41.796875 56.203125 29.59375 
z
M 47.21875 32.234375 
Q 47.125 39.59375 43.09375 43.984375 
Q 39.0625 48.390625 32.421875 48.390625 
Q 24.90625 48.390625 20.390625 44.140625 
Q 15.875 39.890625 15.1875 32.171875 
z
" id="DejaVuSans-101"/>
      <path d="M 41.109375 46.296875 
Q 39.59375 47.171875 37.8125 47.578125 
Q 36.03125 48 33.890625 48 
Q 26.265625 48 22.1875 43.046875 
Q 18.109375 38.09375 18.109375 28.8125 
L 18.109375 0 
L 9.078125 0 
L 9.078125 54.6875 
L 18.109375 54.6875 
L 18.109375 46.1875 
Q 20.953125 51.171875 25.484375 53.578125 
Q 30.03125 56 36.53125 56 
Q 37.453125 56 38.578125 55.875 
Q 39.703125 55.765625 41.0625 55.515625 
z
" id="DejaVuSans-114"/>
      <path d="M 34.28125 27.484375 
Q 23.390625 27.484375 19.1875 25 
Q 14.984375 22.515625 14.984375 16.5 
Q 14.984375 11.71875 18.140625 8.90625 
Q 21.296875 6.109375 26.703125 6.109375 
Q 34.1875 6.109375 38.703125 11.40625 
Q 43.21875 16.703125 43.21875 25.484375 
L 43.21875 27.484375 
z
M 52.203125 31.203125 
L 52.203125 0 
L 43.21875 0 
L 43.21875 8.296875 
Q 40.140625 3.328125 35.546875 0.953125 
Q 30.953125 -1.421875 24.3125 -1.421875 
Q 15.921875 -1.421875 10.953125 3.296875 
Q 6 8.015625 6 15.921875 
Q 6 25.140625 12.171875 29.828125 
Q 18.359375 34.515625 30.609375 34.515625 
L 43.21875 34.515625 
L 43.21875 35.40625 
Q 43.21875 41.609375 39.140625 45 
Q 35.0625 48.390625 27.6875 48.390625 
Q 23 48.390625 18.546875 47.265625 
Q 14.109375 46.140625 10.015625 43.890625 
L 10.015625 52.203125 
Q 14.9375 54.109375 19.578125 55.046875 
Q 24.21875 56 28.609375 56 
Q 40.484375 56 46.34375 49.84375 
Q 52.203125 43.703125 52.203125 31.203125 
z
" id="DejaVuSans-97"/>
      <path d="M 9.421875 54.6875 
L 18.40625 54.6875 
L 18.40625 0 
L 9.421875 0 
z
M 9.421875 75.984375 
L 18.40625 75.984375 
L 18.40625 64.59375 
L 9.421875 64.59375 
z
" id="DejaVuSans-105"/>
      <path d="M 30.609375 48.390625 
Q 23.390625 48.390625 19.1875 42.75 
Q 14.984375 37.109375 14.984375 27.296875 
Q 14.984375 17.484375 19.15625 11.84375 
Q 23.34375 6.203125 30.609375 6.203125 
Q 37.796875 6.203125 41.984375 11.859375 
Q 46.1875 17.53125 46.1875 27.296875 
Q 46.1875 37.015625 41.984375 42.703125 
Q 37.796875 48.390625 30.609375 48.390625 
z
M 30.609375 56 
Q 42.328125 56 49.015625 48.375 
Q 55.71875 40.765625 55.71875 27.296875 
Q 55.71875 13.875 49.015625 6.21875 
Q 42.328125 -1.421875 30.609375 -1.421875 
Q 18.84375 -1.421875 12.171875 6.21875 
Q 5.515625 13.875 5.515625 27.296875 
Q 5.515625 40.765625 12.171875 48.375 
Q 18.84375 56 30.609375 56 
z
" id="DejaVuSans-111"/>
      <path d="M 54.890625 33.015625 
L 54.890625 0 
L 45.90625 0 
L 45.90625 32.71875 
Q 45.90625 40.484375 42.875 44.328125 
Q 39.84375 48.1875 33.796875 48.1875 
Q 26.515625 48.1875 22.3125 43.546875 
Q 18.109375 38.921875 18.109375 30.90625 
L 18.109375 0 
L 9.078125 0 
L 9.078125 54.6875 
L 18.109375 54.6875 
L 18.109375 46.1875 
Q 21.34375 51.125 25.703125 53.5625 
Q 30.078125 56 35.796875 56 
Q 45.21875 56 50.046875 50.171875 
Q 54.890625 44.34375 54.890625 33.015625 
z
" id="DejaVuSans-110"/>
     </defs>
     <g transform="translate(273.991406 412.756563)scale(0.1 -0.1)">
      <use xlink:href="#DejaVuSans-73"/>
      <use x="29.492188" xlink:href="#DejaVuSans-116"/>
      <use x="68.701172" xlink:href="#DejaVuSans-101"/>
      <use x="130.224609" xlink:href="#DejaVuSans-114"/>
      <use x="171.337891" xlink:href="#DejaVuSans-97"/>
      <use x="232.617188" xlink:href="#DejaVuSans-116"/>
      <use x="271.826172" xlink:href="#DejaVuSans-105"/>
      <use x="299.609375" xlink:href="#DejaVuSans-111"/>
      <use x="360.791016" xlink:href="#DejaVuSans-110"/>
     </g>
    </g>
   </g>
   <g id="matplotlib.axis_2">
    <g id="ytick_1">
     <g id="line2d_13">
      <path clip-path="url(#pc4d4edd9ac)" d="M 72 384.48 
L 518.4 384.48 
" style="fill:none;stroke:#b0b0b0;stroke-linecap:square;stroke-width:0.8;"/>
     </g>
     <g id="line2d_14">
      <defs>
       <path d="M 0 0 
L -3.5 0 
" id="ma4b4dc358a" style="stroke:#000000;stroke-width:0.8;"/>
      </defs>
      <g>
       <use style="stroke:#000000;stroke-width:0.8;" x="72" xlink:href="#ma4b4dc358a" y="384.48"/>
      </g>
     </g>
     <g id="text_8">
      <!-- $\mathdefault{10^{-12}}$ -->
      <defs>
       <path d="M 10.59375 35.5 
L 73.1875 35.5 
L 73.1875 27.203125 
L 10.59375 27.203125 
z
" id="DejaVuSans-8722"/>
      </defs>
      <g transform="translate(37.1 388.279219)scale(0.1 -0.1)">
       <use transform="translate(0 0.765625)" xlink:href="#DejaVuSans-49"/>
       <use transform="translate(63.623047 0.765625)" xlink:href="#DejaVuSans-48"/>
       <use transform="translate(128.203125 39.046875)scale(0.7)" xlink:href="#DejaVuSans-8722"/>
       <use transform="translate(186.855469 39.046875)scale(0.7)" xlink:href="#DejaVuSans-49"/>
       <use transform="translate(231.391602 39.046875)scale(0.7)" xlink:href="#DejaVuSans-50"/>
      </g>
     </g>
    </g>
    <g id="ytick_2">
     <g id="line2d_15">
      <path clip-path="url(#pc4d4edd9ac)" d="M 72 336.96 
L 518.4 336.96 
" style="fill:none;stroke:#b0b0b0;stroke-linecap:square;stroke-width:0.8;"/>
     </g>
     <g id="line2d_16">
      <g>
       <use style="stroke:#000000;stroke-width:0.8;" x="72" xlink:href="#ma4b4dc358a" y="336.96"/>
      </g>
     </g>
     <g id="text_9">
      <!-- $\mathdefault{10^{-10}}$ -->
      <g transform="translate(37.1 340.759219)scale(0.1 -0.1)">
       <use transform="translate(0 0.765625)" xlink:href="#DejaVuSans-49"/>
       <use transform="translate(63.623047 0.765625)" xlink:href="#DejaVuSans-48"/>
       <use transform="translate(128.203125 39.046875)scale(0.7)" xlink:href="#DejaVuSans-8722"/>
       <use transform="translate(186.855469 39.046875)scale(0.7)" xlink:href="#DejaVuSans-49"/>
       <use transform="translate(231.391602 39.046875)scale(0.7)" xlink:href="#DejaVuSans-48"/>
      </g>
     </g>
    </g>
    <g id="ytick_3">
     <g id="line2d_17">
      <path clip-path="url(#pc4d4edd9ac)" d="M 72 289.44 
L 518.4 289.44 
" style="fill:none;stroke:#b0b0b0;stroke-linecap:square;stroke-width:0.8;"/>
     </g>
     <g id="line2d_18">
      <g>
       <use style="stroke:#000000;stroke-width:0.8;" x="72" xlink:href="#ma4b4dc358a" y="289.44"/>
      </g>
     </g>
     <g id="text_10">
      <!-- $\mathdefault{10^{-8}}$ -->
      <defs>
       <path d="M 31.78125 34.625 
Q 24.75 34.625 20.71875 30.859375 
Q 16.703125 27.09375 16.703125 20.515625 
Q 16.703125 13.921875 20.71875 10.15625 
Q 24.75 6.390625 31.78125 6.390625 
Q 38.8125 6.390625 42.859375 10.171875 
Q 46.921875 13.96875 46.921875 20.515625 
Q 46.921875 27.09375 42.890625 30.859375 
Q 38.875 34.625 31.78125 34.625 
z
M 21.921875 38.8125 
Q 15.578125 40.375 12.03125 44.71875 
Q 8.5 49.078125 8.5 55.328125 
Q 8.5 64.0625 14.71875 69.140625 
Q 20.953125 74.21875 31.78125 74.21875 
Q 42.671875 74.21875 48.875 69.140625 
Q 55.078125 64.0625 55.078125 55.328125 
Q 55.078125 49.078125 51.53125 44.71875 
Q 48 40.375 41.703125 38.8125 
Q 48.828125 37.15625 52.796875 32.3125 
Q 56.78125 27.484375 56.78125 20.515625 
Q 56.78125 9.90625 50.3125 4.234375 
Q 43.84375 -1.421875 31.78125 -1.421875 
Q 19.734375 -1.421875 13.25 4.234375 
Q 6.78125 9.90625 6.78125 20.515625 
Q 6.78125 27.484375 10.78125 32.3125 
Q 14.796875 37.15625 21.921875 38.8125 
z
M 18.3125 54.390625 
Q 18.3125 48.734375 21.84375 45.5625 
Q 25.390625 42.390625 31.78125 42.390625 
Q 38.140625 42.390625 41.71875 45.5625 
Q 45.3125 48.734375 45.3125 54.390625 
Q 45.3125 60.0625 41.71875 63.234375 
Q 38.140625 66.40625 31.78125 66.40625 
Q 25.390625 66.40625 21.84375 63.234375 
Q 18.3125 60.0625 18.3125 54.390625 
z
" id="DejaVuSans-56"/>
      </defs>
      <g transform="translate(41.5 293.239219)scale(0.1 -0.1)">
       <use transform="translate(0 0.765625)" xlink:href="#DejaVuSans-49"/>
       <use transform="translate(63.623047 0.765625)" xlink:href="#DejaVuSans-48"/>
       <use transform="translate(128.203125 39.046875)scale(0.7)" xlink:href="#DejaVuSans-8722"/>
       <use transform="translate(186.855469 39.046875)scale(0.7)" xlink:href="#DejaVuSans-56"/>
      </g>
     </g>
    </g>
    <g id="ytick_4">
     <g id="line2d_19">
      <path clip-path="url(#pc4d4edd9ac)" d="M 72 241.92 
L 518.4 241.92 
" style="fill:none;stroke:#b0b0b0;stroke-linecap:square;stroke-width:0.8;"/>
     </g>
     <g id="line2d_20">
      <g>
       <use style="stroke:#000000;stroke-width:0.8;" x="72" xlink:href="#ma4b4dc358a" y="241.92"/>
      </g>
     </g>
     <g id="text_11">
      <!-- $\mathdefault{10^{-6}}$ -->
      <defs>
       <path d="M 33.015625 40.375 
Q 26.375 40.375 22.484375 35.828125 
Q 18.609375 31.296875 18.609375 23.390625 
Q 18.609375 15.53125 22.484375 10.953125 
Q 26.375 6.390625 33.015625 6.390625 
Q 39.65625 6.390625 43.53125 10.953125 
Q 47.40625 15.53125 47.40625 23.390625 
Q 47.40625 31.296875 43.53125 35.828125 
Q 39.65625 40.375 33.015625 40.375 
z
M 52.59375 71.296875 
L 52.59375 62.3125 
Q 48.875 64.0625 45.09375 64.984375 
Q 41.3125 65.921875 37.59375 65.921875 
Q 27.828125 65.921875 22.671875 59.328125 
Q 17.53125 52.734375 16.796875 39.40625 
Q 19.671875 43.65625 24.015625 45.921875 
Q 28.375 48.1875 33.59375 48.1875 
Q 44.578125 48.1875 50.953125 41.515625 
Q 57.328125 34.859375 57.328125 23.390625 
Q 57.328125 12.15625 50.6875 5.359375 
Q 44.046875 -1.421875 33.015625 -1.421875 
Q 20.359375 -1.421875 13.671875 8.265625 
Q 6.984375 17.96875 6.984375 36.375 
Q 6.984375 53.65625 15.1875 63.9375 
Q 23.390625 74.21875 37.203125 74.21875 
Q 40.921875 74.21875 44.703125 73.484375 
Q 48.484375 72.75 52.59375 71.296875 
z
" id="DejaVuSans-54"/>
      </defs>
      <g transform="translate(41.5 245.719219)scale(0.1 -0.1)">
       <use transform="translate(0 0.765625)" xlink:href="#DejaVuSans-49"/>
       <use transform="translate(63.623047 0.765625)" xlink:href="#DejaVuSans-48"/>
       <use transform="translate(128.203125 39.046875)scale(0.7)" xlink:href="#DejaVuSans-8722"/>
       <use transform="translate(186.855469 39.046875)scale(0.7)" xlink:href="#DejaVuSans-54"/>
      </g>
     </g>
    </g>
    <g id="ytick_5">
     <g id="line2d_21">
      <path clip-path="url(#pc4d4edd9ac)" d="M 72 194.4 
L 518.4 194.4 
" style="fill:none;stroke:#b0b0b0;stroke-linecap:square;stroke-width:0.8;"/>
     </g>
     <g id="line2d_22">
      <g>
       <use style="stroke:#000000;stroke-width:0.8;" x="72" xlink:href="#ma4b4dc358a" y="194.4"/>
      </g>
     </g>
     <g id="text_12">
      <!-- $\mathdefault{10^{-4}}$ -->
      <g transform="translate(41.5 198.199219)scale(0.1 -0.1)">
       <use transform="translate(0 0.684375)" xlink:href="#DejaVuSans-49"/>
       <use transform="translate(63.623047 0.684375)" xlink:href="#DejaVuSans-48"/>
       <use transform="translate(128.203125 38.965625)scale(0.7)" xlink:href="#DejaVuSans-8722"/>
       <use transform="translate(186.855469 38.965625)scale(0.7)" xlink:href="#DejaVuSans-52"/>
      </g>
     </g>
    </g>
    <g id="ytick_6">
     <g id="line2d_23">
      <path clip-path="url(#pc4d4edd9ac)" d="M 72 146.88 
L 518.4 146.88 
" style="fill:none;stroke:#b0b0b0;stroke-linecap:square;stroke-width:0.8;"/>
     </g>
     <g id="line2d_24">
      <g>
       <use style="stroke:#000000;stroke-width:0.8;" x="72" xlink:href="#ma4b4dc358a" y="146.88"/>
      </g>
     </g>
     <g id="text_13">
      <!-- $\mathdefault{10^{-2}}$ -->
      <g transform="translate(41.5 150.679219)scale(0.1 -0.1)">
       <use transform="translate(0 0.765625)" xlink:href="#DejaVuSans-49"/>
       <use transform="translate(63.623047 0.765625)" xlink:href="#DejaVuSans-48"/>
       <use transform="translate(128.203125 39.046875)scale(0.7)" xlink:href="#DejaVuSans-8722"/>
       <use transform="translate(186.855469 39.046875)scale(0.7)" xlink:href="#DejaVuSans-50"/>
      </g>
     </g>
    </g>
    <g id="ytick_7">
     <g id="line2d_25">
      <path clip-path="url(#pc4d4edd9ac)" d="M 72 99.36 
L 518.4 99.36 
" style="fill:none;stroke:#b0b0b0;stroke-linecap:square;stroke-width:0.8;"/>
     </g>
     <g id="line2d_26">
      <g>
       <use style="stroke:#000000;stroke-width:0.8;" x="72" xlink:href="#ma4b4dc358a" y="99.36"/>
      </g>
     </g>
     <g id="text_14">
      <!-- $\mathdefault{10^{0}}$ -->
      <g transform="translate(47.4 103.159219)scale(0.1 -0.1)">
       <use transform="translate(0 0.765625)" xlink:href="#DejaVuSans-49"/>
       <use transform="translate(63.623047 0.765625)" xlink:href="#DejaVuSans-48"/>
       <use transform="translate(128.203125 39.046875)scale(0.7)" xlink:href="#DejaVuSans-48"/>
      </g>
     </g>
    </g>
    <g id="ytick_8">
     <g id="line2d_27">
      <path clip-path="url(#pc4d4edd9ac)" d="M 72 51.84 
L 518.4 51.84 
" style="fill:none;stroke:#b0b0b0;stroke-linecap:square;stroke-width:0.8;"/>
     </g>
     <g id="line2d_28">
      <g>
       <use style="stroke:#000000;stroke-width:0.8;" x="72" xlink:href="#ma4b4dc358a" y="51.84"/>
      </g>
     </g>
     <g id="text_15">
      <!-- $\mathdefault{10^{2}}$ -->
      <g transform="translate(47.4 55.639219)scale(0.1 -0.1)">
       <use transform="translate(0 0.765625)" xlink:href="#DejaVuSans-49"/>
       <use transform="translate(63.623047 0.765625)" xlink:href="#DejaVuSans-48"/>
       <use transform="translate(128.203125 39.046875)scale(0.7)" xlink:href="#DejaVuSans-50"/>
      </g>
     </g>
    </g>
    <g id="text_16">
     <!-- Integrated Squared Error -->
     <defs>
      <path d="M 45.40625 27.984375 
Q 45.40625 37.75 41.375 43.109375 
Q 37.359375 48.484375 30.078125 48.484375 
Q 22.859375 48.484375 18.828125 43.109375 
Q 14.796875 37.75 14.796875 27.984375 
Q 14.796875 18.265625 18.828125 12.890625 
Q 22.859375 7.515625 30.078125 7.515625 
Q 37.359375 7.515625 41.375 12.890625 
Q 45.40625 18.265625 45.40625 27.984375 
z
M 54.390625 6.78125 
Q 54.390625 -7.171875 48.1875 -13.984375 
Q 42 -20.796875 29.203125 -20.796875 
Q 24.46875 -20.796875 20.265625 -20.09375 
Q 16.0625 -19.390625 12.109375 -17.921875 
L 12.109375 -9.1875 
Q 16.0625 -11.328125 19.921875 -12.34375 
Q 23.78125 -13.375 27.78125 -13.375 
Q 36.625 -13.375 41.015625 -8.765625 
Q 45.40625 -4.15625 45.40625 5.171875 
L 45.40625 9.625 
Q 42.625 4.78125 38.28125 2.390625 
Q 33.9375 0 27.875 0 
Q 17.828125 0 11.671875 7.65625 
Q 5.515625 15.328125 5.515625 27.984375 
Q 5.515625 40.671875 11.671875 48.328125 
Q 17.828125 56 27.875 56 
Q 33.9375 56 38.28125 53.609375 
Q 42.625 51.21875 45.40625 46.390625 
L 45.40625 54.6875 
L 54.390625 54.6875 
z
" id="DejaVuSans-103"/>
      <path d="M 45.40625 46.390625 
L 45.40625 75.984375 
L 54.390625 75.984375 
L 54.390625 0 
L 45.40625 0 
L 45.40625 8.203125 
Q 42.578125 3.328125 38.25 0.953125 
Q 33.9375 -1.421875 27.875 -1.421875 
Q 17.96875 -1.421875 11.734375 6.484375 
Q 5.515625 14.40625 5.515625 27.296875 
Q 5.515625 40.1875 11.734375 48.09375 
Q 17.96875 56 27.875 56 
Q 33.9375 56 38.25 53.625 
Q 42.578125 51.265625 45.40625 46.390625 
z
M 14.796875 27.296875 
Q 14.796875 17.390625 18.875 11.75 
Q 22.953125 6.109375 30.078125 6.109375 
Q 37.203125 6.109375 41.296875 11.75 
Q 45.40625 17.390625 45.40625 27.296875 
Q 45.40625 37.203125 41.296875 42.84375 
Q 37.203125 48.484375 30.078125 48.484375 
Q 22.953125 48.484375 18.875 42.84375 
Q 14.796875 37.203125 14.796875 27.296875 
z
" id="DejaVuSans-100"/>
      <path id="DejaVuSans-32"/>
      <path d="M 53.515625 70.515625 
L 53.515625 60.890625 
Q 47.90625 63.578125 42.921875 64.890625 
Q 37.9375 66.21875 33.296875 66.21875 
Q 25.25 66.21875 20.875 63.09375 
Q 16.5 59.96875 16.5 54.203125 
Q 16.5 49.359375 19.40625 46.890625 
Q 22.3125 44.4375 30.421875 42.921875 
L 36.375 41.703125 
Q 47.40625 39.59375 52.65625 34.296875 
Q 57.90625 29 57.90625 20.125 
Q 57.90625 9.515625 50.796875 4.046875 
Q 43.703125 -1.421875 29.984375 -1.421875 
Q 24.8125 -1.421875 18.96875 -0.25 
Q 13.140625 0.921875 6.890625 3.21875 
L 6.890625 13.375 
Q 12.890625 10.015625 18.65625 8.296875 
Q 24.421875 6.59375 29.984375 6.59375 
Q 38.421875 6.59375 43.015625 9.90625 
Q 47.609375 13.234375 47.609375 19.390625 
Q 47.609375 24.75 44.3125 27.78125 
Q 41.015625 30.8125 33.5 32.328125 
L 27.484375 33.5 
Q 16.453125 35.6875 11.515625 40.375 
Q 6.59375 45.0625 6.59375 53.421875 
Q 6.59375 63.09375 13.40625 68.65625 
Q 20.21875 74.21875 32.171875 74.21875 
Q 37.3125 74.21875 42.625 73.28125 
Q 47.953125 72.359375 53.515625 70.515625 
z
" id="DejaVuSans-83"/>
      <path d="M 14.796875 27.296875 
Q 14.796875 17.390625 18.875 11.75 
Q 22.953125 6.109375 30.078125 6.109375 
Q 37.203125 6.109375 41.296875 11.75 
Q 45.40625 17.390625 45.40625 27.296875 
Q 45.40625 37.203125 41.296875 42.84375 
Q 37.203125 48.484375 30.078125 48.484375 
Q 22.953125 48.484375 18.875 42.84375 
Q 14.796875 37.203125 14.796875 27.296875 
z
M 45.40625 8.203125 
Q 42.578125 3.328125 38.25 0.953125 
Q 33.9375 -1.421875 27.875 -1.421875 
Q 17.96875 -1.421875 11.734375 6.484375 
Q 5.515625 14.40625 5.515625 27.296875 
Q 5.515625 40.1875 11.734375 48.09375 
Q 17.96875 56 27.875 56 
Q 33.9375 56 38.25 53.625 
Q 42.578125 51.265625 45.40625 46.390625 
L 45.40625 54.6875 
L 54.390625 54.6875 
L 54.390625 -20.796875 
L 45.40625 -20.796875 
z
" id="DejaVuSans-113"/>
      <path d="M 8.5 21.578125 
L 8.5 54.6875 
L 17.484375 54.6875 
L 17.484375 21.921875 
Q 17.484375 14.15625 20.5 10.265625 
Q 23.53125 6.390625 29.59375 6.390625 
Q 36.859375 6.390625 41.078125 11.03125 
Q 45.3125 15.671875 45.3125 23.6875 
L 45.3125 54.6875 
L 54.296875 54.6875 
L 54.296875 0 
L 45.3125 0 
L 45.3125 8.40625 
Q 42.046875 3.421875 37.71875 1 
Q 33.40625 -1.421875 27.6875 -1.421875 
Q 18.265625 -1.421875 13.375 4.4375 
Q 8.5 10.296875 8.5 21.578125 
z
M 31.109375 56 
z
" id="DejaVuSans-117"/>
      <path d="M 9.8125 72.90625 
L 55.90625 72.90625 
L 55.90625 64.59375 
L 19.671875 64.59375 
L 19.671875 43.015625 
L 54.390625 43.015625 
L 54.390625 34.71875 
L 19.671875 34.71875 
L 19.671875 8.296875 
L 56.78125 8.296875 
L 56.78125 0 
L 9.8125 0 
z
" id="DejaVuSans-69"/>
     </defs>
     <g transform="translate(31.020312 280.483437)rotate(-90)scale(0.1 -0.1)">
      <use xlink:href="#DejaVuSans-73"/>
      <use x="29.492188" xlink:href="#DejaVuSans-110"/>
      <use x="92.871094" xlink:href="#DejaVuSans-116"/>
      <use x="132.080078" xlink:href="#DejaVuSans-101"/>
      <use x="193.603516" xlink:href="#DejaVuSans-103"/>
      <use x="257.080078" xlink:href="#DejaVuSans-114"/>
      <use x="298.193359" xlink:href="#DejaVuSans-97"/>
      <use x="359.472656" xlink:href="#DejaVuSans-116"/>
      <use x="398.681641" xlink:href="#DejaVuSans-101"/>
      <use x="460.205078" xlink:href="#DejaVuSans-100"/>
      <use x="523.681641" xlink:href="#DejaVuSans-32"/>
      <use x="555.46875" xlink:href="#DejaVuSans-83"/>
      <use x="618.945312" xlink:href="#DejaVuSans-113"/>
      <use x="682.421875" xlink:href="#DejaVuSans-117"/>
      <use x="745.800781" xlink:href="#DejaVuSans-97"/>
      <use x="807.080078" xlink:href="#DejaVuSans-114"/>
      <use x="845.943359" xlink:href="#DejaVuSans-101"/>
      <use x="907.466797" xlink:href="#DejaVuSans-100"/>
      <use x="970.943359" xlink:href="#DejaVuSans-32"/>
      <use x="1002.730469" xlink:href="#DejaVuSans-69"/>
      <use x="1065.914062" xlink:href="#DejaVuSans-114"/>
      <use x="1105.277344" xlink:href="#DejaVuSans-114"/>
      <use x="1144.140625" xlink:href="#DejaVuSans-111"/>
      <use x="1205.322266" xlink:href="#DejaVuSans-114"/>
     </g>
    </g>
   </g>
   <g id="line2d_29">
    <path clip-path="url(#pc4d4edd9ac)" d="M 72 149.975 
L 80.928 150.210679 
L 89.856 150.367792 
L 98.784 148.899336 
L 107.712 150.46732 
L 116.64 150.096515 
L 125.568 150.16289 
L 134.496 150.055143 
L 143.424 150.410339 
L 152.352 150.262077 
L 161.28 150.491114 
L 170.208 150.332835 
L 179.136 150.423384 
L 188.064 150.507538 
L 196.992 150.478896 
L 205.92 150.424821 
L 214.848 150.463317 
L 223.776 150.383834 
L 232.704 150.72782 
L 241.632 150.655167 
L 250.56 150.730698 
L 259.488 150.727066 
L 268.416 150.736376 
L 277.344 150.68161 
L 286.272 150.737447 
L 295.2 150.700704 
L 304.128 150.714955 
L 313.056 150.737453 
L 321.984 150.740111 
L 330.912 150.009803 
L 339.84 150.403271 
L 348.768 150.190266 
L 357.696 149.892104 
L 366.624 149.484722 
L 375.552 149.992818 
L 384.48 150.291414 
L 393.408 149.040683 
L 402.336 149.46949 
L 411.264 149.830298 
L 420.192 149.086487 
L 429.12 150.013013 
L 438.048 148.94045 
L 446.976 150.519241 
L 455.904 150.413928 
L 464.832 149.382934 
L 473.76 150.56685 
L 482.688 149.33271 
L 491.616 148.907452 
L 500.544 149.395869 
L 509.472 148.825856 
L 518.4 150.138891 
" style="fill:none;stroke:#1f77b4;stroke-linecap:square;stroke-width:1.5;"/>
   </g>
   <g id="line2d_30">
    <path clip-path="url(#pc4d4edd9ac)" d="M 72 148.298407 
L 80.928 145.011525 
L 89.856 151.917082 
L 98.784 139.138618 
L 107.712 149.6076 
L 116.64 157.725245 
L 125.568 163.762559 
L 134.496 143.145116 
L 143.424 150.131216 
L 152.352 156.636075 
L 161.28 165.743129 
L 170.208 164.966537 
L 179.136 169.106583 
L 188.064 194.574819 
L 196.992 200.085291 
L 205.92 194.633774 
L 214.848 208.445761 
L 223.776 216.418864 
L 232.704 222.463966 
L 241.632 232.172718 
L 250.56 224.631286 
L 259.488 252.324803 
L 268.416 254.302942 
L 277.344 257.475133 
L 286.272 258.454361 
L 295.2 296.239044 
L 304.128 296.673035 
L 313.056 294.392425 
L 321.984 291.193642 
L 330.912 329.133211 
L 339.84 333.712391 
L 348.768 334.621409 
L 357.696 335.465129 
L 366.624 336.567123 
L 375.552 336.648625 
L 384.48 337.600323 
L 393.408 338.383685 
L 402.336 340.385962 
L 411.264 340.346491 
L 420.192 340.434969 
L 429.12 340.348185 
L 438.048 340.288005 
L 446.976 340.191909 
L 455.904 340.30288 
L 464.832 340.26958 
L 473.76 346.524088 
L 482.688 346.496784 
L 491.616 346.584708 
L 500.544 346.84413 
L 509.472 346.799753 
L 518.4 346.927598 
" style="fill:none;stroke:#ff7f0e;stroke-linecap:square;stroke-width:1.5;"/>
   </g>
   <g id="line2d_31">
    <path clip-path="url(#pc4d4edd9ac)" d="M 72 152.553183 
L 80.928 153.526304 
L 89.856 153.695904 
L 98.784 159.800983 
L 107.712 172.424426 
L 116.64 172.492609 
L 125.568 172.492607 
L 134.496 172.673233 
L 143.424 182.655615 
L 152.352 182.715544 
L 161.28 186.884332 
L 170.208 187.702647 
L 179.136 188.266824 
L 188.064 188.266823 
L 196.992 188.266822 
L 205.92 189.732914 
L 214.848 194.086299 
L 223.776 194.118692 
L 232.704 194.118821 
L 241.632 194.532922 
L 250.56 197.750727 
L 259.488 197.750726 
L 268.416 197.750725 
L 277.344 201.891176 
L 286.272 202.856751 
L 295.2 202.857049 
L 304.128 204.2732 
L 313.056 205.602889 
L 321.984 217.919783 
L 330.912 217.91978 
L 339.84 217.919776 
L 348.768 218.366645 
L 357.696 220.352245 
L 366.624 220.384843 
L 375.552 220.384845 
L 384.48 221.245118 
L 393.408 223.792614 
L 402.336 223.792611 
L 411.264 223.792608 
L 420.192 224.090173 
L 429.12 224.095179 
L 438.048 224.095449 
L 446.976 224.100328 
L 455.904 224.420438 
L 464.832 225.871527 
L 473.76 225.871524 
L 482.688 225.87152 
L 491.616 227.594715 
L 500.544 228.041496 
L 509.472 228.048583 
L 518.4 228.048984 
" style="fill:none;stroke:#2ca02c;stroke-linecap:square;stroke-width:1.5;"/>
   </g>
   <g id="line2d_32">
    <path clip-path="url(#pc4d4edd9ac)" d="M 72 150.430014 
L 80.928 152.400601 
L 89.856 154.968058 
L 98.784 165.868017 
L 107.712 162.338012 
L 116.64 164.659307 
L 125.568 165.483433 
L 134.496 165.646235 
L 143.424 182.115643 
L 152.352 184.048858 
L 161.28 184.217906 
L 170.208 190.235789 
L 179.136 206.79086 
L 188.064 206.791346 
L 196.992 206.791632 
L 205.92 217.61853 
L 214.848 217.762648 
L 223.776 217.769033 
L 232.704 217.781196 
L 241.632 218.496149 
L 250.56 229.197933 
L 259.488 229.198612 
L 268.416 229.19925 
L 277.344 232.708109 
L 286.272 232.72216 
L 295.2 232.724005 
L 304.128 233.143874 
L 313.056 233.336248 
L 321.984 283.47596 
L 330.912 283.475904 
L 339.84 283.475842 
L 348.768 283.98005 
L 357.696 284.756865 
L 366.624 284.757307 
L 375.552 284.757511 
L 384.48 284.761288 
L 393.408 284.841269 
L 402.336 284.841398 
L 411.264 284.841513 
L 420.192 285.622607 
L 429.12 286.080782 
L 438.048 286.080733 
L 446.976 286.079823 
L 455.904 286.053015 
L 464.832 289.056545 
L 473.76 289.056573 
L 482.688 289.056594 
L 491.616 294.22395 
L 500.544 294.571143 
L 509.472 294.580806 
L 518.4 294.580228 
" style="fill:none;stroke:#d62728;stroke-linecap:square;stroke-width:1.5;"/>
   </g>
   <g id="line2d_33">
    <path clip-path="url(#pc4d4edd9ac)" d="M 72 149.304756 
L 80.928 149.427342 
L 89.856 154.627372 
L 98.784 155.804045 
L 107.712 157.609711 
L 116.64 163.794923 
L 125.568 165.692872 
L 134.496 162.892483 
L 143.424 176.832298 
L 152.352 180.833407 
L 161.28 184.89161 
L 170.208 193.8043 
L 179.136 206.030386 
L 188.064 206.070114 
L 196.992 206.185067 
L 205.92 214.5961 
L 214.848 231.082206 
L 223.776 231.444112 
L 232.704 231.494701 
L 241.632 233.973523 
L 250.56 256.296854 
L 259.488 256.304629 
L 268.416 256.326373 
L 277.344 259.202549 
L 286.272 258.501207 
L 295.2 258.507994 
L 304.128 260.91693 
L 313.056 260.979301 
L 321.984 314.98026 
L 330.912 314.979905 
L 339.84 314.97991 
L 348.768 314.863228 
L 357.696 332.381591 
L 366.624 332.383555 
L 375.552 332.41988 
L 384.48 332.29988 
L 393.408 331.460396 
L 402.336 331.461464 
L 411.264 331.462593 
L 420.192 334.115725 
L 429.12 334.845094 
L 438.048 334.845764 
L 446.976 335.462336 
L 455.904 335.636055 
L 464.832 340.41837 
L 473.76 340.41712 
L 482.688 340.4158 
L 491.616 345.849818 
L 500.544 345.882747 
L 509.472 345.882727 
L 518.4 345.927829 
" style="fill:none;stroke:#9467bd;stroke-linecap:square;stroke-width:1.5;"/>
   </g>
   <g id="line2d_34">
    <path clip-path="url(#pc4d4edd9ac)" d="M 72 150.597002 
L 80.928 151.257915 
L 89.856 151.402401 
L 98.784 152.983899 
L 107.712 166.015814 
L 116.64 166.894593 
L 125.568 169.420013 
L 134.496 171.90251 
L 143.424 187.566509 
L 152.352 187.455623 
L 161.28 187.812646 
L 170.208 194.609737 
L 179.136 206.706755 
L 188.064 208.129542 
L 196.992 209.919778 
L 205.92 227.814989 
L 214.848 230.5976 
L 223.776 233.334648 
L 232.704 236.485118 
L 241.632 239.916114 
L 250.56 291.382217 
L 259.488 297.20539 
L 268.416 304.858923 
L 277.344 313.217604 
L 286.272 322.270638 
L 295.2 327.47589 
L 304.128 343.472396 
L 313.056 352.942548 
L 321.984 417.622082 
L 330.912 422.287278 
L 339.84 420.901822 
L 348.768 422.761913 
L 357.696 420.785538 
L 366.624 420.580754 
L 375.552 420.343175 
L 384.48 420.306619 
L 393.408 420.246473 
L 402.336 419.87025 
L 411.264 419.657144 
L 420.192 421.300389 
L 429.12 421.184669 
L 438.048 420.99143 
L 446.976 420.725498 
L 455.904 420.56978 
L 464.832 420.579876 
L 473.76 419.922533 
L 482.688 419.77455 
L 491.616 419.778687 
L 500.544 419.623426 
L 509.472 419.460349 
L 518.4 419.25102 
" style="fill:none;stroke:#8c564b;stroke-linecap:square;stroke-width:1.5;"/>
   </g>
   <g id="line2d_35">
    <path clip-path="url(#pc4d4edd9ac)" d="M 72 150.422845 
L 80.928 150.647632 
L 89.856 150.720115 
L 98.784 149.934483 
L 107.712 151.326623 
L 116.64 151.330662 
L 125.568 151.309489 
L 134.496 151.235515 
L 143.424 151.395098 
L 152.352 151.396968 
L 161.28 151.388197 
L 170.208 151.35443 
L 179.136 151.428745 
L 188.064 151.419365 
L 196.992 151.395615 
L 205.92 151.397036 
L 214.848 151.414787 
L 223.776 151.407479 
L 232.704 151.394149 
L 241.632 151.362415 
L 250.56 151.451576 
L 259.488 151.443417 
L 268.416 151.435863 
L 277.344 151.395316 
L 286.272 151.453583 
L 295.2 151.457329 
L 304.128 151.457592 
L 313.056 151.456876 
L 321.984 151.458591 
L 330.912 151.45547 
L 339.84 151.4452 
L 348.768 151.445576 
L 357.696 151.447647 
L 366.624 151.445507 
L 375.552 151.437943 
L 384.48 151.414895 
L 393.408 151.462709 
L 402.336 151.461531 
L 411.264 151.457418 
L 420.192 151.443866 
L 429.12 151.462722 
L 438.048 151.463922 
L 446.976 151.462725 
L 455.904 151.46021 
L 464.832 151.463829 
L 473.76 151.463141 
L 482.688 151.458098 
L 491.616 151.456402 
L 500.544 151.462249 
L 509.472 151.455547 
L 518.4 151.458138 
" style="fill:none;stroke:#e377c2;stroke-linecap:square;stroke-width:1.5;"/>
   </g>
   <g id="patch_3">
    <path d="M 72 384.48 
L 72 51.84 
" style="fill:none;stroke:#000000;stroke-linecap:square;stroke-linejoin:miter;stroke-width:0.8;"/>
   </g>
   <g id="patch_4">
    <path d="M 518.4 384.48 
L 518.4 51.84 
" style="fill:none;stroke:#000000;stroke-linecap:square;stroke-linejoin:miter;stroke-width:0.8;"/>
   </g>
   <g id="patch_5">
    <path d="M 72 384.48 
L 518.4 384.48 
" style="fill:none;stroke:#000000;stroke-linecap:square;stroke-linejoin:miter;stroke-width:0.8;"/>
   </g>
   <g id="patch_6">
    <path d="M 72 51.84 
L 518.4 51.84 
" style="fill:none;stroke:#000000;stroke-linecap:square;stroke-linejoin:miter;stroke-width:0.8;"/>
   </g>
   <g id="legend_1">
    <g id="patch_7">
     <path d="M 79 379.48 
L 165.804688 379.48 
Q 167.804688 379.48 167.804688 377.48 
L 167.804688 275.733125 
Q 167.804688 273.733125 165.804688 273.733125 
L 79 273.733125 
Q 77 273.733125 77 275.733125 
L 77 377.48 
Q 77 379.48 79 379.48 
z
" style="fill:#ffffff;opacity:0.8;stroke:#cccccc;stroke-linejoin:miter;"/>
    </g>
    <g id="line2d_36">
     <path d="M 81 281.831563 
L 101 281.831563 
" style="fill:none;stroke:#1f77b4;stroke-linecap:square;stroke-width:1.5;"/>
    </g>
    <g id="line2d_37"/>
    <g id="text_17">
     <!-- Constant -->
     <defs>
      <path d="M 64.40625 67.28125 
L 64.40625 56.890625 
Q 59.421875 61.53125 53.78125 63.8125 
Q 48.140625 66.109375 41.796875 66.109375 
Q 29.296875 66.109375 22.65625 58.46875 
Q 16.015625 50.828125 16.015625 36.375 
Q 16.015625 21.96875 22.65625 14.328125 
Q 29.296875 6.6875 41.796875 6.6875 
Q 48.140625 6.6875 53.78125 8.984375 
Q 59.421875 11.28125 64.40625 15.921875 
L 64.40625 5.609375 
Q 59.234375 2.09375 53.4375 0.328125 
Q 47.65625 -1.421875 41.21875 -1.421875 
Q 24.65625 -1.421875 15.125 8.703125 
Q 5.609375 18.84375 5.609375 36.375 
Q 5.609375 53.953125 15.125 64.078125 
Q 24.65625 74.21875 41.21875 74.21875 
Q 47.75 74.21875 53.53125 72.484375 
Q 59.328125 70.75 64.40625 67.28125 
z
" id="DejaVuSans-67"/>
      <path d="M 44.28125 53.078125 
L 44.28125 44.578125 
Q 40.484375 46.53125 36.375 47.5 
Q 32.28125 48.484375 27.875 48.484375 
Q 21.1875 48.484375 17.84375 46.4375 
Q 14.5 44.390625 14.5 40.28125 
Q 14.5 37.15625 16.890625 35.375 
Q 19.28125 33.59375 26.515625 31.984375 
L 29.59375 31.296875 
Q 39.15625 29.25 43.1875 25.515625 
Q 47.21875 21.78125 47.21875 15.09375 
Q 47.21875 7.46875 41.1875 3.015625 
Q 35.15625 -1.421875 24.609375 -1.421875 
Q 20.21875 -1.421875 15.453125 -0.5625 
Q 10.6875 0.296875 5.421875 2 
L 5.421875 11.28125 
Q 10.40625 8.6875 15.234375 7.390625 
Q 20.0625 6.109375 24.8125 6.109375 
Q 31.15625 6.109375 34.5625 8.28125 
Q 37.984375 10.453125 37.984375 14.40625 
Q 37.984375 18.0625 35.515625 20.015625 
Q 33.0625 21.96875 24.703125 23.78125 
L 21.578125 24.515625 
Q 13.234375 26.265625 9.515625 29.90625 
Q 5.8125 33.546875 5.8125 39.890625 
Q 5.8125 47.609375 11.28125 51.796875 
Q 16.75 56 26.8125 56 
Q 31.78125 56 36.171875 55.265625 
Q 40.578125 54.546875 44.28125 53.078125 
z
" id="DejaVuSans-115"/>
     </defs>
     <g transform="translate(109 285.331563)scale(0.1 -0.1)">
      <use xlink:href="#DejaVuSans-67"/>
      <use x="69.824219" xlink:href="#DejaVuSans-111"/>
      <use x="131.005859" xlink:href="#DejaVuSans-110"/>
      <use x="194.384766" xlink:href="#DejaVuSans-115"/>
      <use x="246.484375" xlink:href="#DejaVuSans-116"/>
      <use x="285.693359" xlink:href="#DejaVuSans-97"/>
      <use x="346.972656" xlink:href="#DejaVuSans-110"/>
      <use x="410.351562" xlink:href="#DejaVuSans-116"/>
     </g>
    </g>
    <g id="line2d_38">
     <path d="M 81 296.509688 
L 101 296.509688 
" style="fill:none;stroke:#ff7f0e;stroke-linecap:square;stroke-width:1.5;"/>
    </g>
    <g id="line2d_39"/>
    <g id="text_18">
     <!-- RBF -->
     <defs>
      <path d="M 44.390625 34.1875 
Q 47.5625 33.109375 50.5625 29.59375 
Q 53.5625 26.078125 56.59375 19.921875 
L 66.609375 0 
L 56 0 
L 46.6875 18.703125 
Q 43.0625 26.03125 39.671875 28.421875 
Q 36.28125 30.8125 30.421875 30.8125 
L 19.671875 30.8125 
L 19.671875 0 
L 9.8125 0 
L 9.8125 72.90625 
L 32.078125 72.90625 
Q 44.578125 72.90625 50.734375 67.671875 
Q 56.890625 62.453125 56.890625 51.90625 
Q 56.890625 45.015625 53.6875 40.46875 
Q 50.484375 35.9375 44.390625 34.1875 
z
M 19.671875 64.796875 
L 19.671875 38.921875 
L 32.078125 38.921875 
Q 39.203125 38.921875 42.84375 42.21875 
Q 46.484375 45.515625 46.484375 51.90625 
Q 46.484375 58.296875 42.84375 61.546875 
Q 39.203125 64.796875 32.078125 64.796875 
z
" id="DejaVuSans-82"/>
      <path d="M 19.671875 34.8125 
L 19.671875 8.109375 
L 35.5 8.109375 
Q 43.453125 8.109375 47.28125 11.40625 
Q 51.125 14.703125 51.125 21.484375 
Q 51.125 28.328125 47.28125 31.5625 
Q 43.453125 34.8125 35.5 34.8125 
z
M 19.671875 64.796875 
L 19.671875 42.828125 
L 34.28125 42.828125 
Q 41.5 42.828125 45.03125 45.53125 
Q 48.578125 48.25 48.578125 53.8125 
Q 48.578125 59.328125 45.03125 62.0625 
Q 41.5 64.796875 34.28125 64.796875 
z
M 9.8125 72.90625 
L 35.015625 72.90625 
Q 46.296875 72.90625 52.390625 68.21875 
Q 58.5 63.53125 58.5 54.890625 
Q 58.5 48.1875 55.375 44.234375 
Q 52.25 40.28125 46.1875 39.3125 
Q 53.46875 37.75 57.5 32.78125 
Q 61.53125 27.828125 61.53125 20.40625 
Q 61.53125 10.640625 54.890625 5.3125 
Q 48.25 0 35.984375 0 
L 9.8125 0 
z
" id="DejaVuSans-66"/>
      <path d="M 9.8125 72.90625 
L 51.703125 72.90625 
L 51.703125 64.59375 
L 19.671875 64.59375 
L 19.671875 43.109375 
L 48.578125 43.109375 
L 48.578125 34.8125 
L 19.671875 34.8125 
L 19.671875 0 
L 9.8125 0 
z
" id="DejaVuSans-70"/>
     </defs>
     <g transform="translate(109 300.009688)scale(0.1 -0.1)">
      <use xlink:href="#DejaVuSans-82"/>
      <use x="69.482422" xlink:href="#DejaVuSans-66"/>
      <use x="138.085938" xlink:href="#DejaVuSans-70"/>
     </g>
    </g>
    <g id="line2d_40">
     <path d="M 81 311.187813 
L 101 311.187813 
" style="fill:none;stroke:#2ca02c;stroke-linecap:square;stroke-width:1.5;"/>
    </g>
    <g id="line2d_41"/>
    <g id="text_19">
     <!-- Matrn-1/2 -->
     <defs>
      <path d="M 9.8125 72.90625 
L 24.515625 72.90625 
L 43.109375 23.296875 
L 61.8125 72.90625 
L 76.515625 72.90625 
L 76.515625 0 
L 66.890625 0 
L 66.890625 64.015625 
L 48.09375 14.015625 
L 38.1875 14.015625 
L 19.390625 64.015625 
L 19.390625 0 
L 9.8125 0 
z
" id="DejaVuSans-77"/>
      <path d="M 56.203125 29.59375 
L 56.203125 25.203125 
L 14.890625 25.203125 
Q 15.484375 15.921875 20.484375 11.0625 
Q 25.484375 6.203125 34.421875 6.203125 
Q 39.59375 6.203125 44.453125 7.46875 
Q 49.3125 8.734375 54.109375 11.28125 
L 54.109375 2.78125 
Q 49.265625 0.734375 44.1875 -0.34375 
Q 39.109375 -1.421875 33.890625 -1.421875 
Q 20.796875 -1.421875 13.15625 6.1875 
Q 5.515625 13.8125 5.515625 26.8125 
Q 5.515625 40.234375 12.765625 48.109375 
Q 20.015625 56 32.328125 56 
Q 43.359375 56 49.78125 48.890625 
Q 56.203125 41.796875 56.203125 29.59375 
z
M 47.21875 32.234375 
Q 47.125 39.59375 43.09375 43.984375 
Q 39.0625 48.390625 32.421875 48.390625 
Q 24.90625 48.390625 20.390625 44.140625 
Q 15.875 39.890625 15.1875 32.171875 
z
M 38.53125 79.984375 
L 48.25 79.984375 
L 32.34375 61.625 
L 24.859375 61.625 
z
" id="DejaVuSans-233"/>
      <path d="M 4.890625 31.390625 
L 31.203125 31.390625 
L 31.203125 23.390625 
L 4.890625 23.390625 
z
" id="DejaVuSans-45"/>
      <path d="M 25.390625 72.90625 
L 33.6875 72.90625 
L 8.296875 -9.28125 
L 0 -9.28125 
z
" id="DejaVuSans-47"/>
     </defs>
     <g transform="translate(109 314.687813)scale(0.1 -0.1)">
      <use xlink:href="#DejaVuSans-77"/>
      <use x="86.279297" xlink:href="#DejaVuSans-97"/>
      <use x="147.558594" xlink:href="#DejaVuSans-116"/>
      <use x="186.767578" xlink:href="#DejaVuSans-233"/>
      <use x="248.291016" xlink:href="#DejaVuSans-114"/>
      <use x="287.654297" xlink:href="#DejaVuSans-110"/>
      <use x="351.033203" xlink:href="#DejaVuSans-45"/>
      <use x="387.117188" xlink:href="#DejaVuSans-49"/>
      <use x="450.740234" xlink:href="#DejaVuSans-47"/>
      <use x="484.431641" xlink:href="#DejaVuSans-50"/>
     </g>
    </g>
    <g id="line2d_42">
     <path d="M 81 325.865938 
L 101 325.865938 
" style="fill:none;stroke:#d62728;stroke-linecap:square;stroke-width:1.5;"/>
    </g>
    <g id="line2d_43"/>
    <g id="text_20">
     <!-- Matrn-3/2 -->
     <g transform="translate(109 329.365938)scale(0.1 -0.1)">
      <use xlink:href="#DejaVuSans-77"/>
      <use x="86.279297" xlink:href="#DejaVuSans-97"/>
      <use x="147.558594" xlink:href="#DejaVuSans-116"/>
      <use x="186.767578" xlink:href="#DejaVuSans-233"/>
      <use x="248.291016" xlink:href="#DejaVuSans-114"/>
      <use x="287.654297" xlink:href="#DejaVuSans-110"/>
      <use x="351.033203" xlink:href="#DejaVuSans-45"/>
      <use x="387.117188" xlink:href="#DejaVuSans-51"/>
      <use x="450.740234" xlink:href="#DejaVuSans-47"/>
      <use x="484.431641" xlink:href="#DejaVuSans-50"/>
     </g>
    </g>
    <g id="line2d_44">
     <path d="M 81 340.544062 
L 101 340.544062 
" style="fill:none;stroke:#9467bd;stroke-linecap:square;stroke-width:1.5;"/>
    </g>
    <g id="line2d_45"/>
    <g id="text_21">
     <!-- Matrn-5/2 -->
     <g transform="translate(109 344.044062)scale(0.1 -0.1)">
      <use xlink:href="#DejaVuSans-77"/>
      <use x="86.279297" xlink:href="#DejaVuSans-97"/>
      <use x="147.558594" xlink:href="#DejaVuSans-116"/>
      <use x="186.767578" xlink:href="#DejaVuSans-233"/>
      <use x="248.291016" xlink:href="#DejaVuSans-114"/>
      <use x="287.654297" xlink:href="#DejaVuSans-110"/>
      <use x="351.033203" xlink:href="#DejaVuSans-45"/>
      <use x="387.117188" xlink:href="#DejaVuSans-53"/>
      <use x="450.740234" xlink:href="#DejaVuSans-47"/>
      <use x="484.431641" xlink:href="#DejaVuSans-50"/>
     </g>
    </g>
    <g id="line2d_46">
     <path d="M 81 355.222188 
L 101 355.222188 
" style="fill:none;stroke:#8c564b;stroke-linecap:square;stroke-width:1.5;"/>
    </g>
    <g id="line2d_47"/>
    <g id="text_22">
     <!-- RQ -->
     <defs>
      <path d="M 39.40625 66.21875 
Q 28.65625 66.21875 22.328125 58.203125 
Q 16.015625 50.203125 16.015625 36.375 
Q 16.015625 22.609375 22.328125 14.59375 
Q 28.65625 6.59375 39.40625 6.59375 
Q 50.140625 6.59375 56.421875 14.59375 
Q 62.703125 22.609375 62.703125 36.375 
Q 62.703125 50.203125 56.421875 58.203125 
Q 50.140625 66.21875 39.40625 66.21875 
z
M 53.21875 1.3125 
L 66.21875 -12.890625 
L 54.296875 -12.890625 
L 43.5 -1.21875 
Q 41.890625 -1.3125 41.03125 -1.359375 
Q 40.1875 -1.421875 39.40625 -1.421875 
Q 24.03125 -1.421875 14.8125 8.859375 
Q 5.609375 19.140625 5.609375 36.375 
Q 5.609375 53.65625 14.8125 63.9375 
Q 24.03125 74.21875 39.40625 74.21875 
Q 54.734375 74.21875 63.90625 63.9375 
Q 73.09375 53.65625 73.09375 36.375 
Q 73.09375 23.6875 67.984375 14.640625 
Q 62.890625 5.609375 53.21875 1.3125 
z
" id="DejaVuSans-81"/>
     </defs>
     <g transform="translate(109 358.722188)scale(0.1 -0.1)">
      <use xlink:href="#DejaVuSans-82"/>
      <use x="69.482422" xlink:href="#DejaVuSans-81"/>
     </g>
    </g>
    <g id="line2d_48">
     <path d="M 81 369.900313 
L 101 369.900313 
" style="fill:none;stroke:#e377c2;stroke-linecap:square;stroke-width:1.5;"/>
    </g>
    <g id="line2d_49"/>
    <g id="text_23">
     <!-- Dot Prod. -->
     <defs>
      <path d="M 19.671875 64.796875 
L 19.671875 8.109375 
L 31.59375 8.109375 
Q 46.6875 8.109375 53.6875 14.9375 
Q 60.6875 21.78125 60.6875 36.53125 
Q 60.6875 51.171875 53.6875 57.984375 
Q 46.6875 64.796875 31.59375 64.796875 
z
M 9.8125 72.90625 
L 30.078125 72.90625 
Q 51.265625 72.90625 61.171875 64.09375 
Q 71.09375 55.28125 71.09375 36.53125 
Q 71.09375 17.671875 61.125 8.828125 
Q 51.171875 0 30.078125 0 
L 9.8125 0 
z
" id="DejaVuSans-68"/>
      <path d="M 19.671875 64.796875 
L 19.671875 37.40625 
L 32.078125 37.40625 
Q 38.96875 37.40625 42.71875 40.96875 
Q 46.484375 44.53125 46.484375 51.125 
Q 46.484375 57.671875 42.71875 61.234375 
Q 38.96875 64.796875 32.078125 64.796875 
z
M 9.8125 72.90625 
L 32.078125 72.90625 
Q 44.34375 72.90625 50.609375 67.359375 
Q 56.890625 61.8125 56.890625 51.125 
Q 56.890625 40.328125 50.609375 34.8125 
Q 44.34375 29.296875 32.078125 29.296875 
L 19.671875 29.296875 
L 19.671875 0 
L 9.8125 0 
z
" id="DejaVuSans-80"/>
      <path d="M 10.6875 12.40625 
L 21 12.40625 
L 21 0 
L 10.6875 0 
z
" id="DejaVuSans-46"/>
     </defs>
     <g transform="translate(109 373.400313)scale(0.1 -0.1)">
      <use xlink:href="#DejaVuSans-68"/>
      <use x="77.001953" xlink:href="#DejaVuSans-111"/>
      <use x="138.183594" xlink:href="#DejaVuSans-116"/>
      <use x="177.392578" xlink:href="#DejaVuSans-32"/>
      <use x="209.179688" xlink:href="#DejaVuSans-80"/>
      <use x="267.732422" xlink:href="#DejaVuSans-114"/>
      <use x="306.595703" xlink:href="#DejaVuSans-111"/>
      <use x="367.777344" xlink:href="#DejaVuSans-100"/>
      <use x="431.253906" xlink:href="#DejaVuSans-46"/>
     </g>
    </g>
   </g>
  </g>
 </g>
 <defs>
  <clipPath id="pc4d4edd9ac">
   <rect height="332.64" width="446.4" x="72" y="51.84"/>
  </clipPath>
 </defs>
</svg>
