<?xml version="1.0" encoding="utf-8" standalone="no"?>
<!DOCTYPE svg PUBLIC "-//W3C//DTD SVG 1.1//EN"
  "http://www.w3.org/Graphics/SVG/1.1/DTD/svg11.dtd">
<!-- Created with matplotlib (https://matplotlib.org/) -->
<svg height="432pt" version="1.1" viewBox="0 0 576 432" width="576pt" xmlns="http://www.w3.org/2000/svg" xmlns:xlink="http://www.w3.org/1999/xlink">
 <defs>
  <style type="text/css">
*{stroke-linecap:butt;stroke-linejoin:round;}
  </style>
 </defs>
 <g id="figure_1">
  <g id="patch_1">
   <path d="M 0 432 
L 576 432 
L 576 0 
L 0 0 
z
" style="fill:#ffffff;"/>
  </g>
  <g id="axes_1">
   <g id="patch_2">
    <path d="M 72 384.48 
L 518.4 384.48 
L 518.4 51.84 
L 72 51.84 
z
" style="fill:#ffffff;"/>
   </g>
   <g id="PolyCollection_1">
    <path clip-path="url(#p2993352700)" d="M 357.696 334.451421 
L 357.696 -50.134045 
L 366.624 -110.974424 
L 366.624 231.103329 
L 366.624 231.103329 
L 357.696 334.451421 
z
" style="fill:#1f77b4;fill-opacity:0.3;"/>
   </g>
   <g id="PolyCollection_2">
    <path clip-path="url(#p2993352700)" d="M 72 245.359952 
L 72 181.858092 
L 80.928 168.598803 
L 89.856 185.47014 
L 98.784 152.153481 
L 107.712 155.598205 
L 116.64 161.182067 
L 125.568 178.861435 
L 134.496 148.689297 
L 143.424 154.609294 
L 152.352 161.133137 
L 161.28 167.862155 
L 170.208 167.234694 
L 179.136 161.336009 
L 188.064 188.346993 
L 196.992 200.025824 
L 205.92 198.023016 
L 214.848 199.270543 
L 223.776 210.117177 
L 232.704 206.912397 
L 241.632 208.599795 
L 250.56 208.08184 
L 259.488 235.95694 
L 268.416 227.335427 
L 277.344 227.286811 
L 286.272 225.575701 
L 295.2 226.184701 
L 304.128 221.612197 
L 313.056 220.39197 
L 321.984 216.548881 
L 330.912 216.851603 
L 339.84 216.064875 
L 348.768 212.149253 
L 357.696 212.145617 
L 357.696 237.68419 
L 357.696 237.68419 
L 348.768 246.928367 
L 339.84 245.514111 
L 330.912 243.106152 
L 321.984 241.742446 
L 313.056 241.328049 
L 304.128 243.01668 
L 295.2 246.732934 
L 286.272 240.181899 
L 277.344 245.808429 
L 268.416 255.45381 
L 259.488 251.087977 
L 250.56 231.371515 
L 241.632 231.709313 
L 232.704 228.695776 
L 223.776 220.690343 
L 214.848 213.646086 
L 205.92 201.660376 
L 196.992 221.120697 
L 188.064 215.269071 
L 179.136 182.994623 
L 170.208 178.540096 
L 161.28 187.402699 
L 152.352 181.911754 
L 143.424 173.324041 
L 134.496 178.845351 
L 125.568 212.556054 
L 116.64 207.195894 
L 107.712 185.005585 
L 98.784 175.204752 
L 89.856 260.532681 
L 80.928 275.269807 
L 72 245.359952 
z
" style="fill:#ff7f0e;fill-opacity:0.3;"/>
    <path clip-path="url(#p2993352700)" d="M 375.552 245.896356 
L 375.552 208.109473 
L 384.48 208.184184 
L 384.48 243.044629 
L 384.48 243.044629 
L 375.552 245.896356 
z
" style="fill:#ff7f0e;fill-opacity:0.3;"/>
    <path clip-path="url(#p2993352700)" d="M 402.336 240.166406 
L 402.336 206.709647 
L 411.264 208.590386 
L 420.192 211.282051 
L 429.12 210.453422 
L 438.048 206.023977 
L 438.048 233.183306 
L 438.048 233.183306 
L 429.12 231.745615 
L 420.192 226.871259 
L 411.264 224.717484 
L 402.336 240.166406 
z
" style="fill:#ff7f0e;fill-opacity:0.3;"/>
    <path clip-path="url(#p2993352700)" d="M 455.904 233.0896 
L 455.904 206.938331 
L 464.832 207.028887 
L 473.76 203.384021 
L 473.76 235.016014 
L 473.76 235.016014 
L 464.832 226.772971 
L 455.904 233.0896 
z
" style="fill:#ff7f0e;fill-opacity:0.3;"/>
    <path clip-path="url(#p2993352700)" d="M 491.616 223.926714 
L 491.616 207.228538 
L 491.616 223.926714 
L 491.616 223.926714 
z
" style="fill:#ff7f0e;fill-opacity:0.3;"/>
    <path clip-path="url(#p2993352700)" d="M 518.4 225.194397 
L 518.4 205.819416 
L 518.4 225.194397 
L 518.4 225.194397 
z
" style="fill:#ff7f0e;fill-opacity:0.3;"/>
   </g>
   <g id="PolyCollection_3">
    <path clip-path="url(#p2993352700)" d="M 72 190.43018 
L 72 154.586429 
L 80.928 157.287765 
L 89.856 162.417107 
L 98.784 155.069217 
L 107.712 154.424245 
L 116.64 157.784204 
L 125.568 159.519601 
L 134.496 160.919088 
L 143.424 163.068662 
L 152.352 164.65068 
L 161.28 166.934738 
L 170.208 168.424908 
L 179.136 170.021094 
L 188.064 171.81439 
L 196.992 172.729204 
L 205.92 173.201388 
L 214.848 174.472295 
L 223.776 175.337473 
L 232.704 176.192765 
L 241.632 176.949631 
L 250.56 177.348322 
L 259.488 178.166288 
L 268.416 178.990862 
L 277.344 179.392711 
L 286.272 180.154202 
L 295.2 180.981411 
L 304.128 182.349983 
L 313.056 183.149719 
L 321.984 183.690277 
L 330.912 184.628785 
L 339.84 185.096497 
L 348.768 185.534941 
L 357.696 186.314429 
L 366.624 186.769725 
L 375.552 187.218262 
L 384.48 187.621784 
L 393.408 187.969899 
L 402.336 188.39768 
L 411.264 188.832834 
L 420.192 189.239862 
L 429.12 189.669104 
L 438.048 190.09568 
L 446.976 190.520988 
L 455.904 190.925736 
L 464.832 191.306084 
L 473.76 191.72096 
L 482.688 192.14256 
L 491.616 192.523812 
L 500.544 192.926972 
L 509.472 193.347945 
L 518.4 193.771403 
L 518.4 193.937305 
L 518.4 193.937305 
L 509.472 193.509999 
L 500.544 193.086299 
L 491.616 192.688508 
L 482.688 192.303703 
L 473.76 191.878717 
L 464.832 191.464545 
L 455.904 191.081013 
L 446.976 190.672523 
L 438.048 190.2443 
L 429.12 189.81427 
L 420.192 189.382345 
L 411.264 188.969574 
L 402.336 188.532002 
L 393.408 188.097616 
L 384.48 187.74586 
L 375.552 187.335723 
L 366.624 186.884055 
L 357.696 186.426991 
L 348.768 185.716723 
L 339.84 185.274979 
L 330.912 184.803042 
L 321.984 183.937639 
L 313.056 183.383864 
L 304.128 182.619038 
L 295.2 181.391154 
L 286.272 180.551809 
L 277.344 179.771446 
L 268.416 179.359524 
L 259.488 178.528558 
L 250.56 177.70807 
L 241.632 177.308827 
L 232.704 176.546308 
L 223.776 175.683257 
L 214.848 174.810546 
L 205.92 173.686722 
L 196.992 173.203301 
L 188.064 172.276596 
L 179.136 170.664939 
L 170.208 169.132379 
L 161.28 167.642326 
L 152.352 165.400913 
L 143.424 163.778398 
L 134.496 161.832932 
L 125.568 160.194504 
L 116.64 158.383199 
L 107.712 155.539303 
L 98.784 157.651203 
L 89.856 195.177999 
L 80.928 192.539438 
L 72 190.43018 
z
" style="fill:#2ca02c;fill-opacity:0.3;"/>
   </g>
   <g id="PolyCollection_4">
    <path clip-path="url(#p2993352700)" d="M 72 253.057696 
L 72 166.930213 
L 80.928 161.928265 
L 89.856 174.083135 
L 98.784 153.893942 
L 107.712 161.529901 
L 116.64 168.544753 
L 125.568 171.332831 
L 134.496 168.982173 
L 143.424 173.642707 
L 152.352 175.766985 
L 161.28 182.327207 
L 170.208 183.550198 
L 179.136 184.799693 
L 188.064 190.231059 
L 196.992 191.338579 
L 205.92 191.137096 
L 214.848 196.798394 
L 223.776 198.041976 
L 232.704 199.602983 
L 241.632 200.841532 
L 250.56 201.679061 
L 259.488 203.142951 
L 268.416 204.221841 
L 277.344 205.120085 
L 286.272 206.276352 
L 295.2 207.420995 
L 304.128 212.558902 
L 313.056 214.320683 
L 321.984 215.880731 
L 330.912 219.563041 
L 339.84 220.129389 
L 348.768 220.711071 
L 357.696 223.685727 
L 366.624 224.533631 
L 375.552 224.984559 
L 384.48 225.628001 
L 393.408 226.248448 
L 402.336 226.957197 
L 411.264 227.568412 
L 420.192 228.083377 
L 429.12 229.134747 
L 438.048 228.999503 
L 446.976 230.258026 
L 455.904 231.000628 
L 464.832 230.867301 
L 473.76 231.770347 
L 482.688 232.736064 
L 491.616 233.490574 
L 500.544 232.980935 
L 509.472 232.745769 
L 518.4 234.225888 
L 518.4 238.886386 
L 518.4 238.886386 
L 509.472 239.981998 
L 500.544 237.196947 
L 491.616 236.227857 
L 482.688 235.416091 
L 473.76 234.968063 
L 464.832 233.988798 
L 455.904 232.902854 
L 446.976 232.276291 
L 438.048 231.208462 
L 429.12 229.986185 
L 420.192 229.667732 
L 411.264 228.940847 
L 402.336 227.872923 
L 393.408 227.371648 
L 384.48 226.45932 
L 375.552 225.750067 
L 366.624 225.090706 
L 357.696 224.466938 
L 348.768 222.039213 
L 339.84 221.354399 
L 330.912 220.722245 
L 321.984 217.116788 
L 313.056 215.345236 
L 304.128 213.582026 
L 295.2 209.975113 
L 286.272 208.562805 
L 277.344 207.191192 
L 268.416 206.082173 
L 259.488 204.840705 
L 250.56 203.192366 
L 241.632 202.212206 
L 232.704 200.843107 
L 223.776 199.424081 
L 214.848 198.060289 
L 205.92 194.091158 
L 196.992 194.345233 
L 188.064 193.058107 
L 179.136 187.686854 
L 170.208 186.104421 
L 161.28 185.099191 
L 152.352 180.765349 
L 143.424 178.156335 
L 134.496 174.952368 
L 125.568 177.123737 
L 116.64 174.545334 
L 107.712 167.534604 
L 98.784 161.053738 
L 89.856 234.247011 
L 80.928 227.88984 
L 72 253.057696 
z
" style="fill:#d62728;fill-opacity:0.3;"/>
   </g>
   <g id="PolyCollection_5">
    <path clip-path="url(#p2993352700)" d="M 80.928 235.238812 
L 80.928 157.376007 
L 89.856 172.076626 
L 98.784 149.562453 
L 107.712 158.048577 
L 116.64 166.990536 
L 125.568 172.975419 
L 134.496 164.134617 
L 143.424 172.010187 
L 152.352 175.263626 
L 161.28 183.670784 
L 170.208 184.019837 
L 179.136 184.912454 
L 188.064 195.837073 
L 196.992 197.373831 
L 205.92 196.597147 
L 214.848 206.692406 
L 223.776 208.348364 
L 232.704 211.081838 
L 241.632 212.377169 
L 250.56 213.607633 
L 259.488 216.708337 
L 268.416 217.676328 
L 277.344 217.686594 
L 286.272 219.972824 
L 295.2 221.130504 
L 304.128 227.767789 
L 313.056 228.878415 
L 321.984 229.656342 
L 330.912 237.470198 
L 339.84 236.417662 
L 348.768 237.674981 
L 357.696 242.550321 
L 366.624 239.140333 
L 366.624 258.493037 
L 366.624 258.493037 
L 357.696 255.593351 
L 348.768 249.275487 
L 339.84 251.438922 
L 330.912 246.53553 
L 321.984 235.20401 
L 313.056 233.795366 
L 304.128 230.851608 
L 295.2 224.872366 
L 286.272 223.534913 
L 277.344 222.322374 
L 268.416 220.718252 
L 259.488 219.438091 
L 250.56 215.921019 
L 241.632 214.811723 
L 232.704 212.985564 
L 223.776 210.655555 
L 214.848 208.727587 
L 205.92 202.82851 
L 196.992 203.727809 
L 188.064 201.744279 
L 179.136 190.549612 
L 170.208 188.765201 
L 161.28 190.430915 
L 152.352 184.767055 
L 143.424 181.319946 
L 134.496 177.438261 
L 125.568 186.897424 
L 116.64 182.541509 
L 107.712 171.341491 
L 98.784 163.914337 
L 89.856 243.763873 
L 80.928 235.238812 
z
" style="fill:#9467bd;fill-opacity:0.3;"/>
    <path clip-path="url(#p2993352700)" d="M 393.408 268.916843 
L 393.408 238.377062 
L 393.408 268.916843 
L 393.408 268.916843 
z
" style="fill:#9467bd;fill-opacity:0.3;"/>
    <path clip-path="url(#p2993352700)" d="M 411.264 266.839619 
L 411.264 244.407532 
L 411.264 266.839619 
L 411.264 266.839619 
z
" style="fill:#9467bd;fill-opacity:0.3;"/>
    <path clip-path="url(#p2993352700)" d="M 429.12 268.839756 
L 429.12 241.134255 
L 429.12 268.839756 
L 429.12 268.839756 
z
" style="fill:#9467bd;fill-opacity:0.3;"/>
   </g>
   <g id="PolyCollection_6">
    <path clip-path="url(#p2993352700)" d="M 80.928 224.088814 
L 80.928 170.162938 
L 89.856 174.691842 
L 98.784 149.597336 
L 107.712 148.351245 
L 116.64 156.539224 
L 125.568 166.881895 
L 134.496 166.17245 
L 143.424 168.652508 
L 152.352 171.968438 
L 161.28 178.146102 
L 170.208 180.102563 
L 179.136 183.130098 
L 188.064 188.534284 
L 196.992 191.58733 
L 205.92 192.437882 
L 214.848 202.400937 
L 223.776 206.574655 
L 232.704 211.356091 
L 241.632 216.722576 
L 250.56 221.433913 
L 259.488 226.873883 
L 268.416 230.44082 
L 277.344 231.835188 
L 277.344 245.11568 
L 277.344 245.11568 
L 268.416 238.697473 
L 259.488 232.529051 
L 250.56 223.99784 
L 241.632 218.889675 
L 232.704 215.437036 
L 223.776 208.381009 
L 214.848 203.811638 
L 205.92 196.032966 
L 196.992 195.840953 
L 188.064 192.000857 
L 179.136 185.945504 
L 170.208 184.236766 
L 161.28 183.561587 
L 152.352 176.310747 
L 143.424 172.152253 
L 134.496 169.884343 
L 125.568 176.862062 
L 116.64 171.057085 
L 107.712 161.933646 
L 98.784 156.643285 
L 89.856 235.703703 
L 80.928 224.088814 
z
" style="fill:#8c564b;fill-opacity:0.3;"/>
   </g>
   <g id="PolyCollection_7">
    <path clip-path="url(#p2993352700)" d="M 72 229.607879 
L 72 163.471471 
L 80.928 134.290758 
L 89.856 161.017474 
L 89.856 208.425734 
L 89.856 208.425734 
L 80.928 247.868982 
L 72 229.607879 
z
" style="fill:#e377c2;fill-opacity:0.3;"/>
    <path clip-path="url(#p2993352700)" d="M 107.712 206.966052 
L 107.712 151.489989 
L 116.64 148.489246 
L 116.64 205.536002 
L 116.64 205.536002 
L 107.712 206.966052 
z
" style="fill:#e377c2;fill-opacity:0.3;"/>
    <path clip-path="url(#p2993352700)" d="M 134.496 220.31255 
L 134.496 142.117076 
L 134.496 220.31255 
L 134.496 220.31255 
z
" style="fill:#e377c2;fill-opacity:0.3;"/>
    <path clip-path="url(#p2993352700)" d="M 152.352 204.633142 
L 152.352 154.51517 
L 161.28 146.035741 
L 170.208 146.474369 
L 170.208 189.110764 
L 170.208 189.110764 
L 161.28 183.247325 
L 152.352 204.633142 
z
" style="fill:#e377c2;fill-opacity:0.3;"/>
    <path clip-path="url(#p2993352700)" d="M 205.92 193.670009 
L 205.92 142.456445 
L 214.848 144.427534 
L 223.776 143.14845 
L 223.776 232.607274 
L 223.776 232.607274 
L 214.848 201.116718 
L 205.92 193.670009 
z
" style="fill:#e377c2;fill-opacity:0.3;"/>
    <path clip-path="url(#p2993352700)" d="M 295.2 235.977041 
L 295.2 120.45172 
L 295.2 235.977041 
L 295.2 235.977041 
z
" style="fill:#e377c2;fill-opacity:0.3;"/>
    <path clip-path="url(#p2993352700)" d="M 313.056 198.847513 
L 313.056 145.995971 
L 313.056 198.847513 
L 313.056 198.847513 
z
" style="fill:#e377c2;fill-opacity:0.3;"/>
    <path clip-path="url(#p2993352700)" d="M 357.696 205.300373 
L 357.696 133.304179 
L 366.624 122.792947 
L 366.624 217.030491 
L 366.624 217.030491 
L 357.696 205.300373 
z
" style="fill:#e377c2;fill-opacity:0.3;"/>
    <path clip-path="url(#p2993352700)" d="M 384.48 195.088043 
L 384.48 131.457518 
L 393.408 131.00511 
L 393.408 174.144294 
L 393.408 174.144294 
L 384.48 195.088043 
z
" style="fill:#e377c2;fill-opacity:0.3;"/>
    <path clip-path="url(#p2993352700)" d="M 420.192 204.411683 
L 420.192 130.041463 
L 429.12 121.760348 
L 429.12 234.991951 
L 429.12 234.991951 
L 420.192 204.411683 
z
" style="fill:#e377c2;fill-opacity:0.3;"/>
    <path clip-path="url(#p2993352700)" d="M 464.832 228.062806 
L 464.832 138.440254 
L 464.832 228.062806 
L 464.832 228.062806 
z
" style="fill:#e377c2;fill-opacity:0.3;"/>
   </g>
   <g id="matplotlib.axis_1">
    <g id="xtick_1">
     <g id="line2d_1">
      <path clip-path="url(#p2993352700)" d="M 72 384.48 
L 72 51.84 
" style="fill:none;stroke:#b0b0b0;stroke-linecap:square;stroke-width:0.8;"/>
     </g>
     <g id="line2d_2">
      <defs>
       <path d="M 0 0 
L 0 3.5 
" id="me51c73f7ee" style="stroke:#000000;stroke-width:0.8;"/>
      </defs>
      <g>
       <use style="stroke:#000000;stroke-width:0.8;" x="72" xlink:href="#me51c73f7ee" y="384.48"/>
      </g>
     </g>
     <g id="text_1">
      <!-- 0 -->
      <defs>
       <path d="M 31.78125 66.40625 
Q 24.171875 66.40625 20.328125 58.90625 
Q 16.5 51.421875 16.5 36.375 
Q 16.5 21.390625 20.328125 13.890625 
Q 24.171875 6.390625 31.78125 6.390625 
Q 39.453125 6.390625 43.28125 13.890625 
Q 47.125 21.390625 47.125 36.375 
Q 47.125 51.421875 43.28125 58.90625 
Q 39.453125 66.40625 31.78125 66.40625 
z
M 31.78125 74.21875 
Q 44.046875 74.21875 50.515625 64.515625 
Q 56.984375 54.828125 56.984375 36.375 
Q 56.984375 17.96875 50.515625 8.265625 
Q 44.046875 -1.421875 31.78125 -1.421875 
Q 19.53125 -1.421875 13.0625 8.265625 
Q 6.59375 17.96875 6.59375 36.375 
Q 6.59375 54.828125 13.0625 64.515625 
Q 19.53125 74.21875 31.78125 74.21875 
z
" id="DejaVuSans-48"/>
      </defs>
      <g transform="translate(68.81875 399.078438)scale(0.1 -0.1)">
       <use xlink:href="#DejaVuSans-48"/>
      </g>
     </g>
    </g>
    <g id="xtick_2">
     <g id="line2d_3">
      <path clip-path="url(#p2993352700)" d="M 161.28 384.48 
L 161.28 51.84 
" style="fill:none;stroke:#b0b0b0;stroke-linecap:square;stroke-width:0.8;"/>
     </g>
     <g id="line2d_4">
      <g>
       <use style="stroke:#000000;stroke-width:0.8;" x="161.28" xlink:href="#me51c73f7ee" y="384.48"/>
      </g>
     </g>
     <g id="text_2">
      <!-- 10 -->
      <defs>
       <path d="M 12.40625 8.296875 
L 28.515625 8.296875 
L 28.515625 63.921875 
L 10.984375 60.40625 
L 10.984375 69.390625 
L 28.421875 72.90625 
L 38.28125 72.90625 
L 38.28125 8.296875 
L 54.390625 8.296875 
L 54.390625 0 
L 12.40625 0 
z
" id="DejaVuSans-49"/>
      </defs>
      <g transform="translate(154.9175 399.078438)scale(0.1 -0.1)">
       <use xlink:href="#DejaVuSans-49"/>
       <use x="63.623047" xlink:href="#DejaVuSans-48"/>
      </g>
     </g>
    </g>
    <g id="xtick_3">
     <g id="line2d_5">
      <path clip-path="url(#p2993352700)" d="M 250.56 384.48 
L 250.56 51.84 
" style="fill:none;stroke:#b0b0b0;stroke-linecap:square;stroke-width:0.8;"/>
     </g>
     <g id="line2d_6">
      <g>
       <use style="stroke:#000000;stroke-width:0.8;" x="250.56" xlink:href="#me51c73f7ee" y="384.48"/>
      </g>
     </g>
     <g id="text_3">
      <!-- 20 -->
      <defs>
       <path d="M 19.1875 8.296875 
L 53.609375 8.296875 
L 53.609375 0 
L 7.328125 0 
L 7.328125 8.296875 
Q 12.9375 14.109375 22.625 23.890625 
Q 32.328125 33.6875 34.8125 36.53125 
Q 39.546875 41.84375 41.421875 45.53125 
Q 43.3125 49.21875 43.3125 52.78125 
Q 43.3125 58.59375 39.234375 62.25 
Q 35.15625 65.921875 28.609375 65.921875 
Q 23.96875 65.921875 18.8125 64.3125 
Q 13.671875 62.703125 7.8125 59.421875 
L 7.8125 69.390625 
Q 13.765625 71.78125 18.9375 73 
Q 24.125 74.21875 28.421875 74.21875 
Q 39.75 74.21875 46.484375 68.546875 
Q 53.21875 62.890625 53.21875 53.421875 
Q 53.21875 48.921875 51.53125 44.890625 
Q 49.859375 40.875 45.40625 35.40625 
Q 44.1875 33.984375 37.640625 27.21875 
Q 31.109375 20.453125 19.1875 8.296875 
z
" id="DejaVuSans-50"/>
      </defs>
      <g transform="translate(244.1975 399.078438)scale(0.1 -0.1)">
       <use xlink:href="#DejaVuSans-50"/>
       <use x="63.623047" xlink:href="#DejaVuSans-48"/>
      </g>
     </g>
    </g>
    <g id="xtick_4">
     <g id="line2d_7">
      <path clip-path="url(#p2993352700)" d="M 339.84 384.48 
L 339.84 51.84 
" style="fill:none;stroke:#b0b0b0;stroke-linecap:square;stroke-width:0.8;"/>
     </g>
     <g id="line2d_8">
      <g>
       <use style="stroke:#000000;stroke-width:0.8;" x="339.84" xlink:href="#me51c73f7ee" y="384.48"/>
      </g>
     </g>
     <g id="text_4">
      <!-- 30 -->
      <defs>
       <path d="M 40.578125 39.3125 
Q 47.65625 37.796875 51.625 33 
Q 55.609375 28.21875 55.609375 21.1875 
Q 55.609375 10.40625 48.1875 4.484375 
Q 40.765625 -1.421875 27.09375 -1.421875 
Q 22.515625 -1.421875 17.65625 -0.515625 
Q 12.796875 0.390625 7.625 2.203125 
L 7.625 11.71875 
Q 11.71875 9.328125 16.59375 8.109375 
Q 21.484375 6.890625 26.8125 6.890625 
Q 36.078125 6.890625 40.9375 10.546875 
Q 45.796875 14.203125 45.796875 21.1875 
Q 45.796875 27.640625 41.28125 31.265625 
Q 36.765625 34.90625 28.71875 34.90625 
L 20.21875 34.90625 
L 20.21875 43.015625 
L 29.109375 43.015625 
Q 36.375 43.015625 40.234375 45.921875 
Q 44.09375 48.828125 44.09375 54.296875 
Q 44.09375 59.90625 40.109375 62.90625 
Q 36.140625 65.921875 28.71875 65.921875 
Q 24.65625 65.921875 20.015625 65.03125 
Q 15.375 64.15625 9.8125 62.3125 
L 9.8125 71.09375 
Q 15.4375 72.65625 20.34375 73.4375 
Q 25.25 74.21875 29.59375 74.21875 
Q 40.828125 74.21875 47.359375 69.109375 
Q 53.90625 64.015625 53.90625 55.328125 
Q 53.90625 49.265625 50.4375 45.09375 
Q 46.96875 40.921875 40.578125 39.3125 
z
" id="DejaVuSans-51"/>
      </defs>
      <g transform="translate(333.4775 399.078438)scale(0.1 -0.1)">
       <use xlink:href="#DejaVuSans-51"/>
       <use x="63.623047" xlink:href="#DejaVuSans-48"/>
      </g>
     </g>
    </g>
    <g id="xtick_5">
     <g id="line2d_9">
      <path clip-path="url(#p2993352700)" d="M 429.12 384.48 
L 429.12 51.84 
" style="fill:none;stroke:#b0b0b0;stroke-linecap:square;stroke-width:0.8;"/>
     </g>
     <g id="line2d_10">
      <g>
       <use style="stroke:#000000;stroke-width:0.8;" x="429.12" xlink:href="#me51c73f7ee" y="384.48"/>
      </g>
     </g>
     <g id="text_5">
      <!-- 40 -->
      <defs>
       <path d="M 37.796875 64.3125 
L 12.890625 25.390625 
L 37.796875 25.390625 
z
M 35.203125 72.90625 
L 47.609375 72.90625 
L 47.609375 25.390625 
L 58.015625 25.390625 
L 58.015625 17.1875 
L 47.609375 17.1875 
L 47.609375 0 
L 37.796875 0 
L 37.796875 17.1875 
L 4.890625 17.1875 
L 4.890625 26.703125 
z
" id="DejaVuSans-52"/>
      </defs>
      <g transform="translate(422.7575 399.078438)scale(0.1 -0.1)">
       <use xlink:href="#DejaVuSans-52"/>
       <use x="63.623047" xlink:href="#DejaVuSans-48"/>
      </g>
     </g>
    </g>
    <g id="xtick_6">
     <g id="line2d_11">
      <path clip-path="url(#p2993352700)" d="M 518.4 384.48 
L 518.4 51.84 
" style="fill:none;stroke:#b0b0b0;stroke-linecap:square;stroke-width:0.8;"/>
     </g>
     <g id="line2d_12">
      <g>
       <use style="stroke:#000000;stroke-width:0.8;" x="518.4" xlink:href="#me51c73f7ee" y="384.48"/>
      </g>
     </g>
     <g id="text_6">
      <!-- 50 -->
      <defs>
       <path d="M 10.796875 72.90625 
L 49.515625 72.90625 
L 49.515625 64.59375 
L 19.828125 64.59375 
L 19.828125 46.734375 
Q 21.96875 47.46875 24.109375 47.828125 
Q 26.265625 48.1875 28.421875 48.1875 
Q 40.625 48.1875 47.75 41.5 
Q 54.890625 34.8125 54.890625 23.390625 
Q 54.890625 11.625 47.5625 5.09375 
Q 40.234375 -1.421875 26.90625 -1.421875 
Q 22.3125 -1.421875 17.546875 -0.640625 
Q 12.796875 0.140625 7.71875 1.703125 
L 7.71875 11.625 
Q 12.109375 9.234375 16.796875 8.0625 
Q 21.484375 6.890625 26.703125 6.890625 
Q 35.15625 6.890625 40.078125 11.328125 
Q 45.015625 15.765625 45.015625 23.390625 
Q 45.015625 31 40.078125 35.4375 
Q 35.15625 39.890625 26.703125 39.890625 
Q 22.75 39.890625 18.8125 39.015625 
Q 14.890625 38.140625 10.796875 36.28125 
z
" id="DejaVuSans-53"/>
      </defs>
      <g transform="translate(512.0375 399.078438)scale(0.1 -0.1)">
       <use xlink:href="#DejaVuSans-53"/>
       <use x="63.623047" xlink:href="#DejaVuSans-48"/>
      </g>
     </g>
    </g>
    <g id="text_7">
     <!-- Iteration -->
     <defs>
      <path d="M 9.8125 72.90625 
L 19.671875 72.90625 
L 19.671875 0 
L 9.8125 0 
z
" id="DejaVuSans-73"/>
      <path d="M 18.3125 70.21875 
L 18.3125 54.6875 
L 36.8125 54.6875 
L 36.8125 47.703125 
L 18.3125 47.703125 
L 18.3125 18.015625 
Q 18.3125 11.328125 20.140625 9.421875 
Q 21.96875 7.515625 27.59375 7.515625 
L 36.8125 7.515625 
L 36.8125 0 
L 27.59375 0 
Q 17.1875 0 13.234375 3.875 
Q 9.28125 7.765625 9.28125 18.015625 
L 9.28125 47.703125 
L 2.6875 47.703125 
L 2.6875 54.6875 
L 9.28125 54.6875 
L 9.28125 70.21875 
z
" id="DejaVuSans-116"/>
      <path d="M 56.203125 29.59375 
L 56.203125 25.203125 
L 14.890625 25.203125 
Q 15.484375 15.921875 20.484375 11.0625 
Q 25.484375 6.203125 34.421875 6.203125 
Q 39.59375 6.203125 44.453125 7.46875 
Q 49.3125 8.734375 54.109375 11.28125 
L 54.109375 2.78125 
Q 49.265625 0.734375 44.1875 -0.34375 
Q 39.109375 -1.421875 33.890625 -1.421875 
Q 20.796875 -1.421875 13.15625 6.1875 
Q 5.515625 13.8125 5.515625 26.8125 
Q 5.515625 40.234375 12.765625 48.109375 
Q 20.015625 56 32.328125 56 
Q 43.359375 56 49.78125 48.890625 
Q 56.203125 41.796875 56.203125 29.59375 
z
M 47.21875 32.234375 
Q 47.125 39.59375 43.09375 43.984375 
Q 39.0625 48.390625 32.421875 48.390625 
Q 24.90625 48.390625 20.390625 44.140625 
Q 15.875 39.890625 15.1875 32.171875 
z
" id="DejaVuSans-101"/>
      <path d="M 41.109375 46.296875 
Q 39.59375 47.171875 37.8125 47.578125 
Q 36.03125 48 33.890625 48 
Q 26.265625 48 22.1875 43.046875 
Q 18.109375 38.09375 18.109375 28.8125 
L 18.109375 0 
L 9.078125 0 
L 9.078125 54.6875 
L 18.109375 54.6875 
L 18.109375 46.1875 
Q 20.953125 51.171875 25.484375 53.578125 
Q 30.03125 56 36.53125 56 
Q 37.453125 56 38.578125 55.875 
Q 39.703125 55.765625 41.0625 55.515625 
z
" id="DejaVuSans-114"/>
      <path d="M 34.28125 27.484375 
Q 23.390625 27.484375 19.1875 25 
Q 14.984375 22.515625 14.984375 16.5 
Q 14.984375 11.71875 18.140625 8.90625 
Q 21.296875 6.109375 26.703125 6.109375 
Q 34.1875 6.109375 38.703125 11.40625 
Q 43.21875 16.703125 43.21875 25.484375 
L 43.21875 27.484375 
z
M 52.203125 31.203125 
L 52.203125 0 
L 43.21875 0 
L 43.21875 8.296875 
Q 40.140625 3.328125 35.546875 0.953125 
Q 30.953125 -1.421875 24.3125 -1.421875 
Q 15.921875 -1.421875 10.953125 3.296875 
Q 6 8.015625 6 15.921875 
Q 6 25.140625 12.171875 29.828125 
Q 18.359375 34.515625 30.609375 34.515625 
L 43.21875 34.515625 
L 43.21875 35.40625 
Q 43.21875 41.609375 39.140625 45 
Q 35.0625 48.390625 27.6875 48.390625 
Q 23 48.390625 18.546875 47.265625 
Q 14.109375 46.140625 10.015625 43.890625 
L 10.015625 52.203125 
Q 14.9375 54.109375 19.578125 55.046875 
Q 24.21875 56 28.609375 56 
Q 40.484375 56 46.34375 49.84375 
Q 52.203125 43.703125 52.203125 31.203125 
z
" id="DejaVuSans-97"/>
      <path d="M 9.421875 54.6875 
L 18.40625 54.6875 
L 18.40625 0 
L 9.421875 0 
z
M 9.421875 75.984375 
L 18.40625 75.984375 
L 18.40625 64.59375 
L 9.421875 64.59375 
z
" id="DejaVuSans-105"/>
      <path d="M 30.609375 48.390625 
Q 23.390625 48.390625 19.1875 42.75 
Q 14.984375 37.109375 14.984375 27.296875 
Q 14.984375 17.484375 19.15625 11.84375 
Q 23.34375 6.203125 30.609375 6.203125 
Q 37.796875 6.203125 41.984375 11.859375 
Q 46.1875 17.53125 46.1875 27.296875 
Q 46.1875 37.015625 41.984375 42.703125 
Q 37.796875 48.390625 30.609375 48.390625 
z
M 30.609375 56 
Q 42.328125 56 49.015625 48.375 
Q 55.71875 40.765625 55.71875 27.296875 
Q 55.71875 13.875 49.015625 6.21875 
Q 42.328125 -1.421875 30.609375 -1.421875 
Q 18.84375 -1.421875 12.171875 6.21875 
Q 5.515625 13.875 5.515625 27.296875 
Q 5.515625 40.765625 12.171875 48.375 
Q 18.84375 56 30.609375 56 
z
" id="DejaVuSans-111"/>
      <path d="M 54.890625 33.015625 
L 54.890625 0 
L 45.90625 0 
L 45.90625 32.71875 
Q 45.90625 40.484375 42.875 44.328125 
Q 39.84375 48.1875 33.796875 48.1875 
Q 26.515625 48.1875 22.3125 43.546875 
Q 18.109375 38.921875 18.109375 30.90625 
L 18.109375 0 
L 9.078125 0 
L 9.078125 54.6875 
L 18.109375 54.6875 
L 18.109375 46.1875 
Q 21.34375 51.125 25.703125 53.5625 
Q 30.078125 56 35.796875 56 
Q 45.21875 56 50.046875 50.171875 
Q 54.890625 44.34375 54.890625 33.015625 
z
" id="DejaVuSans-110"/>
     </defs>
     <g transform="translate(273.991406 412.756563)scale(0.1 -0.1)">
      <use xlink:href="#DejaVuSans-73"/>
      <use x="29.492188" xlink:href="#DejaVuSans-116"/>
      <use x="68.701172" xlink:href="#DejaVuSans-101"/>
      <use x="130.224609" xlink:href="#DejaVuSans-114"/>
      <use x="171.337891" xlink:href="#DejaVuSans-97"/>
      <use x="232.617188" xlink:href="#DejaVuSans-116"/>
      <use x="271.826172" xlink:href="#DejaVuSans-105"/>
      <use x="299.609375" xlink:href="#DejaVuSans-111"/>
      <use x="360.791016" xlink:href="#DejaVuSans-110"/>
     </g>
    </g>
   </g>
   <g id="matplotlib.axis_2">
    <g id="ytick_1">
     <g id="line2d_13">
      <path clip-path="url(#p2993352700)" d="M 72 384.48 
L 518.4 384.48 
" style="fill:none;stroke:#b0b0b0;stroke-linecap:square;stroke-width:0.8;"/>
     </g>
     <g id="line2d_14">
      <defs>
       <path d="M 0 0 
L -3.5 0 
" id="m1456b3bd09" style="stroke:#000000;stroke-width:0.8;"/>
      </defs>
      <g>
       <use style="stroke:#000000;stroke-width:0.8;" x="72" xlink:href="#m1456b3bd09" y="384.48"/>
      </g>
     </g>
     <g id="text_8">
      <!-- $\mathdefault{10^{-12}}$ -->
      <defs>
       <path d="M 10.59375 35.5 
L 73.1875 35.5 
L 73.1875 27.203125 
L 10.59375 27.203125 
z
" id="DejaVuSans-8722"/>
      </defs>
      <g transform="translate(37.1 388.279219)scale(0.1 -0.1)">
       <use transform="translate(0 0.765625)" xlink:href="#DejaVuSans-49"/>
       <use transform="translate(63.623047 0.765625)" xlink:href="#DejaVuSans-48"/>
       <use transform="translate(128.203125 39.046875)scale(0.7)" xlink:href="#DejaVuSans-8722"/>
       <use transform="translate(186.855469 39.046875)scale(0.7)" xlink:href="#DejaVuSans-49"/>
       <use transform="translate(231.391602 39.046875)scale(0.7)" xlink:href="#DejaVuSans-50"/>
      </g>
     </g>
    </g>
    <g id="ytick_2">
     <g id="line2d_15">
      <path clip-path="url(#p2993352700)" d="M 72 336.96 
L 518.4 336.96 
" style="fill:none;stroke:#b0b0b0;stroke-linecap:square;stroke-width:0.8;"/>
     </g>
     <g id="line2d_16">
      <g>
       <use style="stroke:#000000;stroke-width:0.8;" x="72" xlink:href="#m1456b3bd09" y="336.96"/>
      </g>
     </g>
     <g id="text_9">
      <!-- $\mathdefault{10^{-10}}$ -->
      <g transform="translate(37.1 340.759219)scale(0.1 -0.1)">
       <use transform="translate(0 0.765625)" xlink:href="#DejaVuSans-49"/>
       <use transform="translate(63.623047 0.765625)" xlink:href="#DejaVuSans-48"/>
       <use transform="translate(128.203125 39.046875)scale(0.7)" xlink:href="#DejaVuSans-8722"/>
       <use transform="translate(186.855469 39.046875)scale(0.7)" xlink:href="#DejaVuSans-49"/>
       <use transform="translate(231.391602 39.046875)scale(0.7)" xlink:href="#DejaVuSans-48"/>
      </g>
     </g>
    </g>
    <g id="ytick_3">
     <g id="line2d_17">
      <path clip-path="url(#p2993352700)" d="M 72 289.44 
L 518.4 289.44 
" style="fill:none;stroke:#b0b0b0;stroke-linecap:square;stroke-width:0.8;"/>
     </g>
     <g id="line2d_18">
      <g>
       <use style="stroke:#000000;stroke-width:0.8;" x="72" xlink:href="#m1456b3bd09" y="289.44"/>
      </g>
     </g>
     <g id="text_10">
      <!-- $\mathdefault{10^{-8}}$ -->
      <defs>
       <path d="M 31.78125 34.625 
Q 24.75 34.625 20.71875 30.859375 
Q 16.703125 27.09375 16.703125 20.515625 
Q 16.703125 13.921875 20.71875 10.15625 
Q 24.75 6.390625 31.78125 6.390625 
Q 38.8125 6.390625 42.859375 10.171875 
Q 46.921875 13.96875 46.921875 20.515625 
Q 46.921875 27.09375 42.890625 30.859375 
Q 38.875 34.625 31.78125 34.625 
z
M 21.921875 38.8125 
Q 15.578125 40.375 12.03125 44.71875 
Q 8.5 49.078125 8.5 55.328125 
Q 8.5 64.0625 14.71875 69.140625 
Q 20.953125 74.21875 31.78125 74.21875 
Q 42.671875 74.21875 48.875 69.140625 
Q 55.078125 64.0625 55.078125 55.328125 
Q 55.078125 49.078125 51.53125 44.71875 
Q 48 40.375 41.703125 38.8125 
Q 48.828125 37.15625 52.796875 32.3125 
Q 56.78125 27.484375 56.78125 20.515625 
Q 56.78125 9.90625 50.3125 4.234375 
Q 43.84375 -1.421875 31.78125 -1.421875 
Q 19.734375 -1.421875 13.25 4.234375 
Q 6.78125 9.90625 6.78125 20.515625 
Q 6.78125 27.484375 10.78125 32.3125 
Q 14.796875 37.15625 21.921875 38.8125 
z
M 18.3125 54.390625 
Q 18.3125 48.734375 21.84375 45.5625 
Q 25.390625 42.390625 31.78125 42.390625 
Q 38.140625 42.390625 41.71875 45.5625 
Q 45.3125 48.734375 45.3125 54.390625 
Q 45.3125 60.0625 41.71875 63.234375 
Q 38.140625 66.40625 31.78125 66.40625 
Q 25.390625 66.40625 21.84375 63.234375 
Q 18.3125 60.0625 18.3125 54.390625 
z
" id="DejaVuSans-56"/>
      </defs>
      <g transform="translate(41.5 293.239219)scale(0.1 -0.1)">
       <use transform="translate(0 0.765625)" xlink:href="#DejaVuSans-49"/>
       <use transform="translate(63.623047 0.765625)" xlink:href="#DejaVuSans-48"/>
       <use transform="translate(128.203125 39.046875)scale(0.7)" xlink:href="#DejaVuSans-8722"/>
       <use transform="translate(186.855469 39.046875)scale(0.7)" xlink:href="#DejaVuSans-56"/>
      </g>
     </g>
    </g>
    <g id="ytick_4">
     <g id="line2d_19">
      <path clip-path="url(#p2993352700)" d="M 72 241.92 
L 518.4 241.92 
" style="fill:none;stroke:#b0b0b0;stroke-linecap:square;stroke-width:0.8;"/>
     </g>
     <g id="line2d_20">
      <g>
       <use style="stroke:#000000;stroke-width:0.8;" x="72" xlink:href="#m1456b3bd09" y="241.92"/>
      </g>
     </g>
     <g id="text_11">
      <!-- $\mathdefault{10^{-6}}$ -->
      <defs>
       <path d="M 33.015625 40.375 
Q 26.375 40.375 22.484375 35.828125 
Q 18.609375 31.296875 18.609375 23.390625 
Q 18.609375 15.53125 22.484375 10.953125 
Q 26.375 6.390625 33.015625 6.390625 
Q 39.65625 6.390625 43.53125 10.953125 
Q 47.40625 15.53125 47.40625 23.390625 
Q 47.40625 31.296875 43.53125 35.828125 
Q 39.65625 40.375 33.015625 40.375 
z
M 52.59375 71.296875 
L 52.59375 62.3125 
Q 48.875 64.0625 45.09375 64.984375 
Q 41.3125 65.921875 37.59375 65.921875 
Q 27.828125 65.921875 22.671875 59.328125 
Q 17.53125 52.734375 16.796875 39.40625 
Q 19.671875 43.65625 24.015625 45.921875 
Q 28.375 48.1875 33.59375 48.1875 
Q 44.578125 48.1875 50.953125 41.515625 
Q 57.328125 34.859375 57.328125 23.390625 
Q 57.328125 12.15625 50.6875 5.359375 
Q 44.046875 -1.421875 33.015625 -1.421875 
Q 20.359375 -1.421875 13.671875 8.265625 
Q 6.984375 17.96875 6.984375 36.375 
Q 6.984375 53.65625 15.1875 63.9375 
Q 23.390625 74.21875 37.203125 74.21875 
Q 40.921875 74.21875 44.703125 73.484375 
Q 48.484375 72.75 52.59375 71.296875 
z
" id="DejaVuSans-54"/>
      </defs>
      <g transform="translate(41.5 245.719219)scale(0.1 -0.1)">
       <use transform="translate(0 0.765625)" xlink:href="#DejaVuSans-49"/>
       <use transform="translate(63.623047 0.765625)" xlink:href="#DejaVuSans-48"/>
       <use transform="translate(128.203125 39.046875)scale(0.7)" xlink:href="#DejaVuSans-8722"/>
       <use transform="translate(186.855469 39.046875)scale(0.7)" xlink:href="#DejaVuSans-54"/>
      </g>
     </g>
    </g>
    <g id="ytick_5">
     <g id="line2d_21">
      <path clip-path="url(#p2993352700)" d="M 72 194.4 
L 518.4 194.4 
" style="fill:none;stroke:#b0b0b0;stroke-linecap:square;stroke-width:0.8;"/>
     </g>
     <g id="line2d_22">
      <g>
       <use style="stroke:#000000;stroke-width:0.8;" x="72" xlink:href="#m1456b3bd09" y="194.4"/>
      </g>
     </g>
     <g id="text_12">
      <!-- $\mathdefault{10^{-4}}$ -->
      <g transform="translate(41.5 198.199219)scale(0.1 -0.1)">
       <use transform="translate(0 0.684375)" xlink:href="#DejaVuSans-49"/>
       <use transform="translate(63.623047 0.684375)" xlink:href="#DejaVuSans-48"/>
       <use transform="translate(128.203125 38.965625)scale(0.7)" xlink:href="#DejaVuSans-8722"/>
       <use transform="translate(186.855469 38.965625)scale(0.7)" xlink:href="#DejaVuSans-52"/>
      </g>
     </g>
    </g>
    <g id="ytick_6">
     <g id="line2d_23">
      <path clip-path="url(#p2993352700)" d="M 72 146.88 
L 518.4 146.88 
" style="fill:none;stroke:#b0b0b0;stroke-linecap:square;stroke-width:0.8;"/>
     </g>
     <g id="line2d_24">
      <g>
       <use style="stroke:#000000;stroke-width:0.8;" x="72" xlink:href="#m1456b3bd09" y="146.88"/>
      </g>
     </g>
     <g id="text_13">
      <!-- $\mathdefault{10^{-2}}$ -->
      <g transform="translate(41.5 150.679219)scale(0.1 -0.1)">
       <use transform="translate(0 0.765625)" xlink:href="#DejaVuSans-49"/>
       <use transform="translate(63.623047 0.765625)" xlink:href="#DejaVuSans-48"/>
       <use transform="translate(128.203125 39.046875)scale(0.7)" xlink:href="#DejaVuSans-8722"/>
       <use transform="translate(186.855469 39.046875)scale(0.7)" xlink:href="#DejaVuSans-50"/>
      </g>
     </g>
    </g>
    <g id="ytick_7">
     <g id="line2d_25">
      <path clip-path="url(#p2993352700)" d="M 72 99.36 
L 518.4 99.36 
" style="fill:none;stroke:#b0b0b0;stroke-linecap:square;stroke-width:0.8;"/>
     </g>
     <g id="line2d_26">
      <g>
       <use style="stroke:#000000;stroke-width:0.8;" x="72" xlink:href="#m1456b3bd09" y="99.36"/>
      </g>
     </g>
     <g id="text_14">
      <!-- $\mathdefault{10^{0}}$ -->
      <g transform="translate(47.4 103.159219)scale(0.1 -0.1)">
       <use transform="translate(0 0.765625)" xlink:href="#DejaVuSans-49"/>
       <use transform="translate(63.623047 0.765625)" xlink:href="#DejaVuSans-48"/>
       <use transform="translate(128.203125 39.046875)scale(0.7)" xlink:href="#DejaVuSans-48"/>
      </g>
     </g>
    </g>
    <g id="ytick_8">
     <g id="line2d_27">
      <path clip-path="url(#p2993352700)" d="M 72 51.84 
L 518.4 51.84 
" style="fill:none;stroke:#b0b0b0;stroke-linecap:square;stroke-width:0.8;"/>
     </g>
     <g id="line2d_28">
      <g>
       <use style="stroke:#000000;stroke-width:0.8;" x="72" xlink:href="#m1456b3bd09" y="51.84"/>
      </g>
     </g>
     <g id="text_15">
      <!-- $\mathdefault{10^{2}}$ -->
      <g transform="translate(47.4 55.639219)scale(0.1 -0.1)">
       <use transform="translate(0 0.765625)" xlink:href="#DejaVuSans-49"/>
       <use transform="translate(63.623047 0.765625)" xlink:href="#DejaVuSans-48"/>
       <use transform="translate(128.203125 39.046875)scale(0.7)" xlink:href="#DejaVuSans-50"/>
      </g>
     </g>
    </g>
    <g id="text_16">
     <!-- Integrated Variance -->
     <defs>
      <path d="M 45.40625 27.984375 
Q 45.40625 37.75 41.375 43.109375 
Q 37.359375 48.484375 30.078125 48.484375 
Q 22.859375 48.484375 18.828125 43.109375 
Q 14.796875 37.75 14.796875 27.984375 
Q 14.796875 18.265625 18.828125 12.890625 
Q 22.859375 7.515625 30.078125 7.515625 
Q 37.359375 7.515625 41.375 12.890625 
Q 45.40625 18.265625 45.40625 27.984375 
z
M 54.390625 6.78125 
Q 54.390625 -7.171875 48.1875 -13.984375 
Q 42 -20.796875 29.203125 -20.796875 
Q 24.46875 -20.796875 20.265625 -20.09375 
Q 16.0625 -19.390625 12.109375 -17.921875 
L 12.109375 -9.1875 
Q 16.0625 -11.328125 19.921875 -12.34375 
Q 23.78125 -13.375 27.78125 -13.375 
Q 36.625 -13.375 41.015625 -8.765625 
Q 45.40625 -4.15625 45.40625 5.171875 
L 45.40625 9.625 
Q 42.625 4.78125 38.28125 2.390625 
Q 33.9375 0 27.875 0 
Q 17.828125 0 11.671875 7.65625 
Q 5.515625 15.328125 5.515625 27.984375 
Q 5.515625 40.671875 11.671875 48.328125 
Q 17.828125 56 27.875 56 
Q 33.9375 56 38.28125 53.609375 
Q 42.625 51.21875 45.40625 46.390625 
L 45.40625 54.6875 
L 54.390625 54.6875 
z
" id="DejaVuSans-103"/>
      <path d="M 45.40625 46.390625 
L 45.40625 75.984375 
L 54.390625 75.984375 
L 54.390625 0 
L 45.40625 0 
L 45.40625 8.203125 
Q 42.578125 3.328125 38.25 0.953125 
Q 33.9375 -1.421875 27.875 -1.421875 
Q 17.96875 -1.421875 11.734375 6.484375 
Q 5.515625 14.40625 5.515625 27.296875 
Q 5.515625 40.1875 11.734375 48.09375 
Q 17.96875 56 27.875 56 
Q 33.9375 56 38.25 53.625 
Q 42.578125 51.265625 45.40625 46.390625 
z
M 14.796875 27.296875 
Q 14.796875 17.390625 18.875 11.75 
Q 22.953125 6.109375 30.078125 6.109375 
Q 37.203125 6.109375 41.296875 11.75 
Q 45.40625 17.390625 45.40625 27.296875 
Q 45.40625 37.203125 41.296875 42.84375 
Q 37.203125 48.484375 30.078125 48.484375 
Q 22.953125 48.484375 18.875 42.84375 
Q 14.796875 37.203125 14.796875 27.296875 
z
" id="DejaVuSans-100"/>
      <path id="DejaVuSans-32"/>
      <path d="M 28.609375 0 
L 0.78125 72.90625 
L 11.078125 72.90625 
L 34.1875 11.53125 
L 57.328125 72.90625 
L 67.578125 72.90625 
L 39.796875 0 
z
" id="DejaVuSans-86"/>
      <path d="M 48.78125 52.59375 
L 48.78125 44.1875 
Q 44.96875 46.296875 41.140625 47.34375 
Q 37.3125 48.390625 33.40625 48.390625 
Q 24.65625 48.390625 19.8125 42.84375 
Q 14.984375 37.3125 14.984375 27.296875 
Q 14.984375 17.28125 19.8125 11.734375 
Q 24.65625 6.203125 33.40625 6.203125 
Q 37.3125 6.203125 41.140625 7.25 
Q 44.96875 8.296875 48.78125 10.40625 
L 48.78125 2.09375 
Q 45.015625 0.34375 40.984375 -0.53125 
Q 36.96875 -1.421875 32.421875 -1.421875 
Q 20.0625 -1.421875 12.78125 6.34375 
Q 5.515625 14.109375 5.515625 27.296875 
Q 5.515625 40.671875 12.859375 48.328125 
Q 20.21875 56 33.015625 56 
Q 37.15625 56 41.109375 55.140625 
Q 45.0625 54.296875 48.78125 52.59375 
z
" id="DejaVuSans-99"/>
     </defs>
     <g transform="translate(31.020312 267.534219)rotate(-90)scale(0.1 -0.1)">
      <use xlink:href="#DejaVuSans-73"/>
      <use x="29.492188" xlink:href="#DejaVuSans-110"/>
      <use x="92.871094" xlink:href="#DejaVuSans-116"/>
      <use x="132.080078" xlink:href="#DejaVuSans-101"/>
      <use x="193.603516" xlink:href="#DejaVuSans-103"/>
      <use x="257.080078" xlink:href="#DejaVuSans-114"/>
      <use x="298.193359" xlink:href="#DejaVuSans-97"/>
      <use x="359.472656" xlink:href="#DejaVuSans-116"/>
      <use x="398.681641" xlink:href="#DejaVuSans-101"/>
      <use x="460.205078" xlink:href="#DejaVuSans-100"/>
      <use x="523.681641" xlink:href="#DejaVuSans-32"/>
      <use x="555.46875" xlink:href="#DejaVuSans-86"/>
      <use x="616.126953" xlink:href="#DejaVuSans-97"/>
      <use x="677.40625" xlink:href="#DejaVuSans-114"/>
      <use x="718.519531" xlink:href="#DejaVuSans-105"/>
      <use x="746.302734" xlink:href="#DejaVuSans-97"/>
      <use x="807.582031" xlink:href="#DejaVuSans-110"/>
      <use x="870.960938" xlink:href="#DejaVuSans-99"/>
      <use x="925.941406" xlink:href="#DejaVuSans-101"/>
     </g>
    </g>
   </g>
   <g id="line2d_29">
    <path clip-path="url(#p2993352700)" d="M 357.586517 433 
L 357.696 142.158688 
L 366.624 60.064452 
L 366.763902 433 
" style="fill:none;stroke:#1f77b4;stroke-linecap:square;stroke-width:1.5;"/>
   </g>
   <g id="line2d_30">
    <path clip-path="url(#p2993352700)" d="M 72 213.609022 
L 80.928 221.934305 
L 89.856 223.001411 
L 98.784 163.679116 
L 107.712 170.301895 
L 116.64 184.18898 
L 125.568 195.708744 
L 134.496 163.767324 
L 143.424 163.966667 
L 152.352 171.522445 
L 161.28 177.632427 
L 170.208 172.887395 
L 179.136 172.165316 
L 188.064 201.808032 
L 196.992 210.573261 
L 205.92 199.841696 
L 214.848 206.458315 
L 223.776 215.40376 
L 232.704 217.804087 
L 241.632 220.154554 
L 250.56 219.726678 
L 259.488 243.522459 
L 268.416 241.394619 
L 277.344 236.54762 
L 286.272 232.8788 
L 295.2 236.458818 
L 304.128 232.314439 
L 313.056 230.860009 
L 321.984 229.145664 
L 330.912 229.978878 
L 339.84 230.789493 
L 348.768 229.53881 
L 357.696 224.914904 
L 357.774605 433 
M 375.474177 433 
L 375.552 227.002915 
L 384.48 225.614406 
L 384.558343 433 
M 402.256842 433 
L 402.336 223.438026 
L 411.264 216.653935 
L 420.192 219.076655 
L 429.12 221.099518 
L 438.048 219.603641 
L 438.128593 433 
M 455.82356 433 
L 455.904 220.013966 
L 464.832 216.900929 
L 473.76 219.200018 
L 473.840744 433 
M 491.5339 433 
L 491.616 215.577626 
L 491.6981 433 
M 518.317874 433 
L 518.4 215.506907 
" style="fill:none;stroke:#ff7f0e;stroke-linecap:square;stroke-width:1.5;"/>
   </g>
   <g id="line2d_31">
    <path clip-path="url(#p2993352700)" d="M 72 172.508304 
L 80.928 174.913602 
L 89.856 178.797553 
L 98.784 156.36021 
L 107.712 154.981774 
L 116.64 158.083702 
L 125.568 159.857052 
L 134.496 161.37601 
L 143.424 163.42353 
L 152.352 165.025797 
L 161.28 167.288532 
L 170.208 168.778644 
L 179.136 170.343016 
L 188.064 172.045493 
L 196.992 172.966253 
L 205.92 173.444055 
L 214.848 174.64142 
L 223.776 175.510365 
L 232.704 176.369537 
L 241.632 177.129229 
L 250.56 177.528196 
L 259.488 178.347423 
L 268.416 179.175193 
L 277.344 179.582079 
L 286.272 180.353005 
L 295.2 181.186282 
L 304.128 182.48451 
L 313.056 183.266791 
L 321.984 183.813958 
L 330.912 184.715914 
L 339.84 185.185738 
L 348.768 185.625832 
L 357.696 186.37071 
L 366.624 186.82689 
L 375.552 187.276993 
L 384.48 187.683822 
L 393.408 188.033757 
L 402.336 188.464841 
L 411.264 188.901204 
L 420.192 189.311104 
L 429.12 189.741687 
L 438.048 190.16999 
L 446.976 190.596755 
L 455.904 191.003374 
L 464.832 191.385315 
L 473.76 191.799839 
L 482.688 192.223132 
L 491.616 192.60616 
L 500.544 193.006636 
L 509.472 193.428972 
L 518.4 193.854354 
" style="fill:none;stroke:#2ca02c;stroke-linecap:square;stroke-width:1.5;"/>
   </g>
   <g id="line2d_32">
    <path clip-path="url(#p2993352700)" d="M 72 209.993954 
L 80.928 194.909053 
L 89.856 204.165073 
L 98.784 157.47384 
L 107.712 164.532252 
L 116.64 171.545043 
L 125.568 174.228284 
L 134.496 171.96727 
L 143.424 175.899521 
L 152.352 178.266167 
L 161.28 183.713199 
L 170.208 184.827309 
L 179.136 186.243274 
L 188.064 191.644583 
L 196.992 192.841906 
L 205.92 192.614127 
L 214.848 197.429341 
L 223.776 198.733029 
L 232.704 200.223045 
L 241.632 201.526869 
L 250.56 202.435714 
L 259.488 203.991828 
L 268.416 205.152007 
L 277.344 206.155638 
L 286.272 207.419579 
L 295.2 208.698054 
L 304.128 213.070464 
L 313.056 214.83296 
L 321.984 216.49876 
L 330.912 220.142643 
L 339.84 220.741894 
L 348.768 221.375142 
L 357.696 224.076332 
L 366.624 224.812169 
L 375.552 225.367313 
L 384.48 226.04366 
L 393.408 226.810048 
L 402.336 227.41506 
L 411.264 228.25463 
L 420.192 228.875555 
L 429.12 229.560466 
L 438.048 230.103982 
L 446.976 231.267158 
L 455.904 231.951741 
L 464.832 232.428049 
L 473.76 233.369205 
L 482.688 234.076077 
L 491.616 234.859216 
L 500.544 235.088941 
L 509.472 236.363883 
L 518.4 236.556137 
" style="fill:none;stroke:#d62728;stroke-linecap:square;stroke-width:1.5;"/>
   </g>
   <g id="line2d_33">
    <path clip-path="url(#p2993352700)" d="M 80.838697 433 
L 80.928 196.30741 
L 89.856 207.920249 
L 98.784 156.738395 
L 107.712 164.695034 
L 116.64 174.766023 
L 125.568 179.936422 
L 134.496 170.786439 
L 143.424 176.665066 
L 152.352 180.015341 
L 161.28 187.05085 
L 170.208 186.392519 
L 179.136 187.731033 
L 188.064 198.790676 
L 196.992 200.55082 
L 205.92 199.712829 
L 214.848 207.709996 
L 223.776 209.501959 
L 232.704 212.033701 
L 241.632 213.594446 
L 250.56 214.764326 
L 259.488 218.073214 
L 268.416 219.19729 
L 277.344 220.004484 
L 286.272 221.753869 
L 295.2 223.001435 
L 304.128 229.309699 
L 313.056 231.336891 
L 321.984 232.430176 
L 330.912 242.002864 
L 339.84 243.928292 
L 348.768 243.475234 
L 357.696 249.071836 
L 366.624 248.816685 
L 366.693646 433 
M 393.340166 433 
L 393.408 253.646952 
L 393.475834 433 
M 411.196908 433 
L 411.264 255.623575 
L 411.331092 433 
M 429.052669 433 
L 429.12 254.987006 
L 429.187331 433 
" style="fill:none;stroke:#9467bd;stroke-linecap:square;stroke-width:1.5;"/>
   </g>
   <g id="line2d_34">
    <path clip-path="url(#p2993352700)" d="M 80.839002 433 
L 80.928 197.125876 
L 89.856 205.197773 
L 98.784 153.120311 
L 107.712 155.142446 
L 116.64 163.798154 
L 125.568 171.871979 
L 134.496 168.028397 
L 143.424 170.40238 
L 152.352 174.139592 
L 161.28 180.853845 
L 170.208 182.169665 
L 179.136 184.537801 
L 188.064 190.267571 
L 196.992 193.714142 
L 205.92 194.235424 
L 214.848 203.106288 
L 223.776 207.477832 
L 232.704 213.396564 
L 241.632 217.806126 
L 250.56 222.715876 
L 259.488 229.701467 
L 268.416 234.569147 
L 277.344 238.475434 
L 277.417525 433 
" style="fill:none;stroke:#8c564b;stroke-linecap:square;stroke-width:1.5;"/>
   </g>
   <g id="line2d_35">
    <path clip-path="url(#p2993352700)" d="M 72 196.539675 
L 80.928 191.07987 
L 89.856 184.721604 
L 89.949629 433 
M 107.616322 433 
L 107.712 179.22802 
L 116.64 177.012624 
L 116.736505 433 
M 134.401063 433 
L 134.496 181.214813 
L 134.590937 433 
M 152.256451 433 
L 152.352 179.574156 
L 161.28 164.641533 
L 170.208 167.792566 
L 170.307942 433 
M 205.820159 433 
L 205.92 168.063227 
L 214.848 172.772126 
L 223.776 187.877862 
L 223.868451 433 
M 295.103944 433 
L 295.2 178.21438 
L 295.296056 433 
M 312.957784 433 
L 313.056 172.421742 
L 313.154216 433 
M 357.596621 433 
L 357.696 169.302276 
L 366.624 169.911719 
L 366.723152 433 
M 384.378375 433 
L 384.48 163.272781 
L 393.408 152.574702 
L 393.513608 433 
M 420.091848 433 
L 420.192 167.226573 
L 429.12 178.376149 
L 429.215996 433 
M 464.737823 433 
L 464.832 183.25153 
L 464.926177 433 
" style="fill:none;stroke:#e377c2;stroke-linecap:square;stroke-width:1.5;"/>
   </g>
   <g id="patch_3">
    <path d="M 72 384.48 
L 72 51.84 
" style="fill:none;stroke:#000000;stroke-linecap:square;stroke-linejoin:miter;stroke-width:0.8;"/>
   </g>
   <g id="patch_4">
    <path d="M 518.4 384.48 
L 518.4 51.84 
" style="fill:none;stroke:#000000;stroke-linecap:square;stroke-linejoin:miter;stroke-width:0.8;"/>
   </g>
   <g id="patch_5">
    <path d="M 72 384.48 
L 518.4 384.48 
" style="fill:none;stroke:#000000;stroke-linecap:square;stroke-linejoin:miter;stroke-width:0.8;"/>
   </g>
   <g id="patch_6">
    <path d="M 72 51.84 
L 518.4 51.84 
" style="fill:none;stroke:#000000;stroke-linecap:square;stroke-linejoin:miter;stroke-width:0.8;"/>
   </g>
   <g id="legend_1">
    <g id="patch_7">
     <path d="M 424.595312 162.586875 
L 511.4 162.586875 
Q 513.4 162.586875 513.4 160.586875 
L 513.4 58.84 
Q 513.4 56.84 511.4 56.84 
L 424.595312 56.84 
Q 422.595312 56.84 422.595312 58.84 
L 422.595312 160.586875 
Q 422.595312 162.586875 424.595312 162.586875 
z
" style="fill:#ffffff;opacity:0.8;stroke:#cccccc;stroke-linejoin:miter;"/>
    </g>
    <g id="line2d_36">
     <path d="M 426.595312 64.938437 
L 446.595312 64.938437 
" style="fill:none;stroke:#1f77b4;stroke-linecap:square;stroke-width:1.5;"/>
    </g>
    <g id="line2d_37"/>
    <g id="text_17">
     <!-- Constant -->
     <defs>
      <path d="M 64.40625 67.28125 
L 64.40625 56.890625 
Q 59.421875 61.53125 53.78125 63.8125 
Q 48.140625 66.109375 41.796875 66.109375 
Q 29.296875 66.109375 22.65625 58.46875 
Q 16.015625 50.828125 16.015625 36.375 
Q 16.015625 21.96875 22.65625 14.328125 
Q 29.296875 6.6875 41.796875 6.6875 
Q 48.140625 6.6875 53.78125 8.984375 
Q 59.421875 11.28125 64.40625 15.921875 
L 64.40625 5.609375 
Q 59.234375 2.09375 53.4375 0.328125 
Q 47.65625 -1.421875 41.21875 -1.421875 
Q 24.65625 -1.421875 15.125 8.703125 
Q 5.609375 18.84375 5.609375 36.375 
Q 5.609375 53.953125 15.125 64.078125 
Q 24.65625 74.21875 41.21875 74.21875 
Q 47.75 74.21875 53.53125 72.484375 
Q 59.328125 70.75 64.40625 67.28125 
z
" id="DejaVuSans-67"/>
      <path d="M 44.28125 53.078125 
L 44.28125 44.578125 
Q 40.484375 46.53125 36.375 47.5 
Q 32.28125 48.484375 27.875 48.484375 
Q 21.1875 48.484375 17.84375 46.4375 
Q 14.5 44.390625 14.5 40.28125 
Q 14.5 37.15625 16.890625 35.375 
Q 19.28125 33.59375 26.515625 31.984375 
L 29.59375 31.296875 
Q 39.15625 29.25 43.1875 25.515625 
Q 47.21875 21.78125 47.21875 15.09375 
Q 47.21875 7.46875 41.1875 3.015625 
Q 35.15625 -1.421875 24.609375 -1.421875 
Q 20.21875 -1.421875 15.453125 -0.5625 
Q 10.6875 0.296875 5.421875 2 
L 5.421875 11.28125 
Q 10.40625 8.6875 15.234375 7.390625 
Q 20.0625 6.109375 24.8125 6.109375 
Q 31.15625 6.109375 34.5625 8.28125 
Q 37.984375 10.453125 37.984375 14.40625 
Q 37.984375 18.0625 35.515625 20.015625 
Q 33.0625 21.96875 24.703125 23.78125 
L 21.578125 24.515625 
Q 13.234375 26.265625 9.515625 29.90625 
Q 5.8125 33.546875 5.8125 39.890625 
Q 5.8125 47.609375 11.28125 51.796875 
Q 16.75 56 26.8125 56 
Q 31.78125 56 36.171875 55.265625 
Q 40.578125 54.546875 44.28125 53.078125 
z
" id="DejaVuSans-115"/>
     </defs>
     <g transform="translate(454.595312 68.438437)scale(0.1 -0.1)">
      <use xlink:href="#DejaVuSans-67"/>
      <use x="69.824219" xlink:href="#DejaVuSans-111"/>
      <use x="131.005859" xlink:href="#DejaVuSans-110"/>
      <use x="194.384766" xlink:href="#DejaVuSans-115"/>
      <use x="246.484375" xlink:href="#DejaVuSans-116"/>
      <use x="285.693359" xlink:href="#DejaVuSans-97"/>
      <use x="346.972656" xlink:href="#DejaVuSans-110"/>
      <use x="410.351562" xlink:href="#DejaVuSans-116"/>
     </g>
    </g>
    <g id="line2d_38">
     <path d="M 426.595312 79.616562 
L 446.595312 79.616562 
" style="fill:none;stroke:#ff7f0e;stroke-linecap:square;stroke-width:1.5;"/>
    </g>
    <g id="line2d_39"/>
    <g id="text_18">
     <!-- RBF -->
     <defs>
      <path d="M 44.390625 34.1875 
Q 47.5625 33.109375 50.5625 29.59375 
Q 53.5625 26.078125 56.59375 19.921875 
L 66.609375 0 
L 56 0 
L 46.6875 18.703125 
Q 43.0625 26.03125 39.671875 28.421875 
Q 36.28125 30.8125 30.421875 30.8125 
L 19.671875 30.8125 
L 19.671875 0 
L 9.8125 0 
L 9.8125 72.90625 
L 32.078125 72.90625 
Q 44.578125 72.90625 50.734375 67.671875 
Q 56.890625 62.453125 56.890625 51.90625 
Q 56.890625 45.015625 53.6875 40.46875 
Q 50.484375 35.9375 44.390625 34.1875 
z
M 19.671875 64.796875 
L 19.671875 38.921875 
L 32.078125 38.921875 
Q 39.203125 38.921875 42.84375 42.21875 
Q 46.484375 45.515625 46.484375 51.90625 
Q 46.484375 58.296875 42.84375 61.546875 
Q 39.203125 64.796875 32.078125 64.796875 
z
" id="DejaVuSans-82"/>
      <path d="M 19.671875 34.8125 
L 19.671875 8.109375 
L 35.5 8.109375 
Q 43.453125 8.109375 47.28125 11.40625 
Q 51.125 14.703125 51.125 21.484375 
Q 51.125 28.328125 47.28125 31.5625 
Q 43.453125 34.8125 35.5 34.8125 
z
M 19.671875 64.796875 
L 19.671875 42.828125 
L 34.28125 42.828125 
Q 41.5 42.828125 45.03125 45.53125 
Q 48.578125 48.25 48.578125 53.8125 
Q 48.578125 59.328125 45.03125 62.0625 
Q 41.5 64.796875 34.28125 64.796875 
z
M 9.8125 72.90625 
L 35.015625 72.90625 
Q 46.296875 72.90625 52.390625 68.21875 
Q 58.5 63.53125 58.5 54.890625 
Q 58.5 48.1875 55.375 44.234375 
Q 52.25 40.28125 46.1875 39.3125 
Q 53.46875 37.75 57.5 32.78125 
Q 61.53125 27.828125 61.53125 20.40625 
Q 61.53125 10.640625 54.890625 5.3125 
Q 48.25 0 35.984375 0 
L 9.8125 0 
z
" id="DejaVuSans-66"/>
      <path d="M 9.8125 72.90625 
L 51.703125 72.90625 
L 51.703125 64.59375 
L 19.671875 64.59375 
L 19.671875 43.109375 
L 48.578125 43.109375 
L 48.578125 34.8125 
L 19.671875 34.8125 
L 19.671875 0 
L 9.8125 0 
z
" id="DejaVuSans-70"/>
     </defs>
     <g transform="translate(454.595312 83.116562)scale(0.1 -0.1)">
      <use xlink:href="#DejaVuSans-82"/>
      <use x="69.482422" xlink:href="#DejaVuSans-66"/>
      <use x="138.085938" xlink:href="#DejaVuSans-70"/>
     </g>
    </g>
    <g id="line2d_40">
     <path d="M 426.595312 94.294687 
L 446.595312 94.294687 
" style="fill:none;stroke:#2ca02c;stroke-linecap:square;stroke-width:1.5;"/>
    </g>
    <g id="line2d_41"/>
    <g id="text_19">
     <!-- Matrn-1/2 -->
     <defs>
      <path d="M 9.8125 72.90625 
L 24.515625 72.90625 
L 43.109375 23.296875 
L 61.8125 72.90625 
L 76.515625 72.90625 
L 76.515625 0 
L 66.890625 0 
L 66.890625 64.015625 
L 48.09375 14.015625 
L 38.1875 14.015625 
L 19.390625 64.015625 
L 19.390625 0 
L 9.8125 0 
z
" id="DejaVuSans-77"/>
      <path d="M 56.203125 29.59375 
L 56.203125 25.203125 
L 14.890625 25.203125 
Q 15.484375 15.921875 20.484375 11.0625 
Q 25.484375 6.203125 34.421875 6.203125 
Q 39.59375 6.203125 44.453125 7.46875 
Q 49.3125 8.734375 54.109375 11.28125 
L 54.109375 2.78125 
Q 49.265625 0.734375 44.1875 -0.34375 
Q 39.109375 -1.421875 33.890625 -1.421875 
Q 20.796875 -1.421875 13.15625 6.1875 
Q 5.515625 13.8125 5.515625 26.8125 
Q 5.515625 40.234375 12.765625 48.109375 
Q 20.015625 56 32.328125 56 
Q 43.359375 56 49.78125 48.890625 
Q 56.203125 41.796875 56.203125 29.59375 
z
M 47.21875 32.234375 
Q 47.125 39.59375 43.09375 43.984375 
Q 39.0625 48.390625 32.421875 48.390625 
Q 24.90625 48.390625 20.390625 44.140625 
Q 15.875 39.890625 15.1875 32.171875 
z
M 38.53125 79.984375 
L 48.25 79.984375 
L 32.34375 61.625 
L 24.859375 61.625 
z
" id="DejaVuSans-233"/>
      <path d="M 4.890625 31.390625 
L 31.203125 31.390625 
L 31.203125 23.390625 
L 4.890625 23.390625 
z
" id="DejaVuSans-45"/>
      <path d="M 25.390625 72.90625 
L 33.6875 72.90625 
L 8.296875 -9.28125 
L 0 -9.28125 
z
" id="DejaVuSans-47"/>
     </defs>
     <g transform="translate(454.595312 97.794687)scale(0.1 -0.1)">
      <use xlink:href="#DejaVuSans-77"/>
      <use x="86.279297" xlink:href="#DejaVuSans-97"/>
      <use x="147.558594" xlink:href="#DejaVuSans-116"/>
      <use x="186.767578" xlink:href="#DejaVuSans-233"/>
      <use x="248.291016" xlink:href="#DejaVuSans-114"/>
      <use x="287.654297" xlink:href="#DejaVuSans-110"/>
      <use x="351.033203" xlink:href="#DejaVuSans-45"/>
      <use x="387.117188" xlink:href="#DejaVuSans-49"/>
      <use x="450.740234" xlink:href="#DejaVuSans-47"/>
      <use x="484.431641" xlink:href="#DejaVuSans-50"/>
     </g>
    </g>
    <g id="line2d_42">
     <path d="M 426.595312 108.972812 
L 446.595312 108.972812 
" style="fill:none;stroke:#d62728;stroke-linecap:square;stroke-width:1.5;"/>
    </g>
    <g id="line2d_43"/>
    <g id="text_20">
     <!-- Matrn-3/2 -->
     <g transform="translate(454.595312 112.472812)scale(0.1 -0.1)">
      <use xlink:href="#DejaVuSans-77"/>
      <use x="86.279297" xlink:href="#DejaVuSans-97"/>
      <use x="147.558594" xlink:href="#DejaVuSans-116"/>
      <use x="186.767578" xlink:href="#DejaVuSans-233"/>
      <use x="248.291016" xlink:href="#DejaVuSans-114"/>
      <use x="287.654297" xlink:href="#DejaVuSans-110"/>
      <use x="351.033203" xlink:href="#DejaVuSans-45"/>
      <use x="387.117188" xlink:href="#DejaVuSans-51"/>
      <use x="450.740234" xlink:href="#DejaVuSans-47"/>
      <use x="484.431641" xlink:href="#DejaVuSans-50"/>
     </g>
    </g>
    <g id="line2d_44">
     <path d="M 426.595312 123.650937 
L 446.595312 123.650937 
" style="fill:none;stroke:#9467bd;stroke-linecap:square;stroke-width:1.5;"/>
    </g>
    <g id="line2d_45"/>
    <g id="text_21">
     <!-- Matrn-5/2 -->
     <g transform="translate(454.595312 127.150937)scale(0.1 -0.1)">
      <use xlink:href="#DejaVuSans-77"/>
      <use x="86.279297" xlink:href="#DejaVuSans-97"/>
      <use x="147.558594" xlink:href="#DejaVuSans-116"/>
      <use x="186.767578" xlink:href="#DejaVuSans-233"/>
      <use x="248.291016" xlink:href="#DejaVuSans-114"/>
      <use x="287.654297" xlink:href="#DejaVuSans-110"/>
      <use x="351.033203" xlink:href="#DejaVuSans-45"/>
      <use x="387.117188" xlink:href="#DejaVuSans-53"/>
      <use x="450.740234" xlink:href="#DejaVuSans-47"/>
      <use x="484.431641" xlink:href="#DejaVuSans-50"/>
     </g>
    </g>
    <g id="line2d_46">
     <path d="M 426.595312 138.329062 
L 446.595312 138.329062 
" style="fill:none;stroke:#8c564b;stroke-linecap:square;stroke-width:1.5;"/>
    </g>
    <g id="line2d_47"/>
    <g id="text_22">
     <!-- RQ -->
     <defs>
      <path d="M 39.40625 66.21875 
Q 28.65625 66.21875 22.328125 58.203125 
Q 16.015625 50.203125 16.015625 36.375 
Q 16.015625 22.609375 22.328125 14.59375 
Q 28.65625 6.59375 39.40625 6.59375 
Q 50.140625 6.59375 56.421875 14.59375 
Q 62.703125 22.609375 62.703125 36.375 
Q 62.703125 50.203125 56.421875 58.203125 
Q 50.140625 66.21875 39.40625 66.21875 
z
M 53.21875 1.3125 
L 66.21875 -12.890625 
L 54.296875 -12.890625 
L 43.5 -1.21875 
Q 41.890625 -1.3125 41.03125 -1.359375 
Q 40.1875 -1.421875 39.40625 -1.421875 
Q 24.03125 -1.421875 14.8125 8.859375 
Q 5.609375 19.140625 5.609375 36.375 
Q 5.609375 53.65625 14.8125 63.9375 
Q 24.03125 74.21875 39.40625 74.21875 
Q 54.734375 74.21875 63.90625 63.9375 
Q 73.09375 53.65625 73.09375 36.375 
Q 73.09375 23.6875 67.984375 14.640625 
Q 62.890625 5.609375 53.21875 1.3125 
z
" id="DejaVuSans-81"/>
     </defs>
     <g transform="translate(454.595312 141.829062)scale(0.1 -0.1)">
      <use xlink:href="#DejaVuSans-82"/>
      <use x="69.482422" xlink:href="#DejaVuSans-81"/>
     </g>
    </g>
    <g id="line2d_48">
     <path d="M 426.595312 153.007187 
L 446.595312 153.007187 
" style="fill:none;stroke:#e377c2;stroke-linecap:square;stroke-width:1.5;"/>
    </g>
    <g id="line2d_49"/>
    <g id="text_23">
     <!-- Dot Prod. -->
     <defs>
      <path d="M 19.671875 64.796875 
L 19.671875 8.109375 
L 31.59375 8.109375 
Q 46.6875 8.109375 53.6875 14.9375 
Q 60.6875 21.78125 60.6875 36.53125 
Q 60.6875 51.171875 53.6875 57.984375 
Q 46.6875 64.796875 31.59375 64.796875 
z
M 9.8125 72.90625 
L 30.078125 72.90625 
Q 51.265625 72.90625 61.171875 64.09375 
Q 71.09375 55.28125 71.09375 36.53125 
Q 71.09375 17.671875 61.125 8.828125 
Q 51.171875 0 30.078125 0 
L 9.8125 0 
z
" id="DejaVuSans-68"/>
      <path d="M 19.671875 64.796875 
L 19.671875 37.40625 
L 32.078125 37.40625 
Q 38.96875 37.40625 42.71875 40.96875 
Q 46.484375 44.53125 46.484375 51.125 
Q 46.484375 57.671875 42.71875 61.234375 
Q 38.96875 64.796875 32.078125 64.796875 
z
M 9.8125 72.90625 
L 32.078125 72.90625 
Q 44.34375 72.90625 50.609375 67.359375 
Q 56.890625 61.8125 56.890625 51.125 
Q 56.890625 40.328125 50.609375 34.8125 
Q 44.34375 29.296875 32.078125 29.296875 
L 19.671875 29.296875 
L 19.671875 0 
L 9.8125 0 
z
" id="DejaVuSans-80"/>
      <path d="M 10.6875 12.40625 
L 21 12.40625 
L 21 0 
L 10.6875 0 
z
" id="DejaVuSans-46"/>
     </defs>
     <g transform="translate(454.595312 156.507187)scale(0.1 -0.1)">
      <use xlink:href="#DejaVuSans-68"/>
      <use x="77.001953" xlink:href="#DejaVuSans-111"/>
      <use x="138.183594" xlink:href="#DejaVuSans-116"/>
      <use x="177.392578" xlink:href="#DejaVuSans-32"/>
      <use x="209.179688" xlink:href="#DejaVuSans-80"/>
      <use x="267.732422" xlink:href="#DejaVuSans-114"/>
      <use x="306.595703" xlink:href="#DejaVuSans-111"/>
      <use x="367.777344" xlink:href="#DejaVuSans-100"/>
      <use x="431.253906" xlink:href="#DejaVuSans-46"/>
     </g>
    </g>
   </g>
  </g>
 </g>
 <defs>
  <clipPath id="p2993352700">
   <rect height="332.64" width="446.4" x="72" y="51.84"/>
  </clipPath>
 </defs>
</svg>
