<?xml version="1.0" encoding="utf-8" standalone="no"?>
<!DOCTYPE svg PUBLIC "-//W3C//DTD SVG 1.1//EN"
  "http://www.w3.org/Graphics/SVG/1.1/DTD/svg11.dtd">
<!-- Created with matplotlib (https://matplotlib.org/) -->
<svg height="432pt" version="1.1" viewBox="0 0 576 432" width="576pt" xmlns="http://www.w3.org/2000/svg" xmlns:xlink="http://www.w3.org/1999/xlink">
 <defs>
  <style type="text/css">
*{stroke-linecap:butt;stroke-linejoin:round;}
  </style>
 </defs>
 <g id="figure_1">
  <g id="patch_1">
   <path d="M 0 432 
L 576 432 
L 576 0 
L 0 0 
z
" style="fill:#ffffff;"/>
  </g>
  <g id="axes_1">
   <g id="patch_2">
    <path d="M 72 384.48 
L 518.4 384.48 
L 518.4 51.84 
L 72 51.84 
z
" style="fill:#ffffff;"/>
   </g>
   <g id="PolyCollection_1">
    <path clip-path="url(#p1d0791a3ff)" d="M 72 59.29844 
L 72 57.798677 
L 80.928 57.490335 
L 89.856 56.830868 
L 98.784 57.116633 
L 107.712 57.170171 
L 116.64 57.235996 
L 125.568 57.363408 
L 134.496 56.268087 
L 143.424 56.902005 
L 152.352 57.087527 
L 161.28 57.151742 
L 170.208 58.299927 
L 179.136 58.124676 
L 188.064 57.080583 
L 196.992 55.940872 
L 205.92 57.178783 
L 214.848 57.963503 
L 223.776 57.127046 
L 232.704 56.600477 
L 241.632 55.805391 
L 250.56 55.767152 
L 259.488 56.185211 
L 268.416 57.596764 
L 277.344 54.385342 
L 286.272 55.378827 
L 295.2 55.457958 
L 304.128 58.319627 
L 313.056 56.781365 
L 321.984 58.41638 
L 330.912 55.18331 
L 339.84 54.374448 
L 348.768 54.810853 
L 357.696 56.376416 
L 366.624 55.626389 
L 375.552 54.232398 
L 384.48 57.632891 
L 393.408 55.214176 
L 402.336 53.025012 
L 411.264 53.429333 
L 420.192 52.15728 
L 429.12 52.99271 
L 438.048 53.888407 
L 446.976 51.394092 
L 455.904 52.747976 
L 464.832 57.513318 
L 473.76 50.869841 
L 482.688 51.106411 
L 491.616 51.129534 
L 500.544 52.682348 
L 509.472 49.213678 
L 518.4 50.690006 
L 518.4 60.009636 
L 518.4 60.009636 
L 509.472 60.814493 
L 500.544 62.3292 
L 491.616 60.59528 
L 482.688 60.205637 
L 473.76 61.592784 
L 464.832 59.527281 
L 455.904 60.098895 
L 446.976 59.222701 
L 438.048 60.901714 
L 429.12 60.036815 
L 420.192 61.387113 
L 411.264 59.655374 
L 402.336 59.068233 
L 393.408 60.394473 
L 384.48 59.584071 
L 375.552 59.581352 
L 366.624 59.836225 
L 357.696 59.909116 
L 348.768 60.042121 
L 339.84 60.099256 
L 330.912 59.614167 
L 321.984 59.226931 
L 313.056 59.95483 
L 304.128 59.212249 
L 295.2 59.596676 
L 286.272 59.442143 
L 277.344 59.846064 
L 268.416 59.572722 
L 259.488 59.719104 
L 250.56 59.994692 
L 241.632 59.995601 
L 232.704 59.338134 
L 223.776 59.523475 
L 214.848 59.147 
L 205.92 59.807648 
L 196.992 59.562996 
L 188.064 59.40765 
L 179.136 59.297421 
L 170.208 59.062707 
L 161.28 59.281965 
L 152.352 59.437396 
L 143.424 59.252883 
L 134.496 59.471915 
L 125.568 59.336556 
L 116.64 59.210682 
L 107.712 59.30361 
L 98.784 59.415808 
L 89.856 59.320231 
L 80.928 59.128307 
L 72 59.29844 
z
" style="fill:#1f77b4;fill-opacity:0.3;"/>
   </g>
   <g id="PolyCollection_2">
    <path clip-path="url(#p1d0791a3ff)" d="M 72 63.738628 
L 72 54.529366 
L 80.928 54.112096 
L 89.856 55.016547 
L 98.784 58.855846 
L 107.712 60.50633 
L 116.64 63.79867 
L 125.568 68.615444 
L 134.496 72.528816 
L 143.424 74.222793 
L 152.352 66.830193 
L 161.28 54.70189 
L 170.208 51.79936 
L 179.136 46.333744 
L 188.064 42.076725 
L 196.992 38.998257 
L 205.92 37.840431 
L 214.848 37.532984 
L 223.776 36.830211 
L 232.704 38.413721 
L 241.632 38.215416 
L 250.56 38.137417 
L 259.488 38.099689 
L 268.416 51.270601 
L 277.344 51.270638 
L 286.272 51.270638 
L 295.2 51.270638 
L 304.128 51.270638 
L 313.056 51.270638 
L 321.984 51.270638 
L 330.912 51.270638 
L 339.84 51.270638 
L 348.768 51.270638 
L 357.696 51.270638 
L 366.624 51.270638 
L 375.552 51.270638 
L 384.48 51.270638 
L 393.408 51.270638 
L 402.336 51.270638 
L 411.264 51.270646 
L 420.192 51.270646 
L 429.12 51.270646 
L 438.048 51.270656 
L 446.976 51.270656 
L 455.904 51.270656 
L 464.832 51.270656 
L 473.76 51.270656 
L 482.688 51.270656 
L 491.616 51.270656 
L 500.544 51.270696 
L 509.472 51.270696 
L 518.4 51.270696 
L 518.4 51.276363 
L 518.4 51.276363 
L 509.472 51.276363 
L 500.544 51.276362 
L 491.616 51.276273 
L 482.688 51.276273 
L 473.76 51.276273 
L 464.832 51.276273 
L 455.904 51.276273 
L 446.976 51.276273 
L 438.048 51.276273 
L 429.12 51.276265 
L 420.192 51.276265 
L 411.264 51.276265 
L 402.336 51.276259 
L 393.408 51.276259 
L 384.48 51.276259 
L 375.552 51.276259 
L 366.624 51.276259 
L 357.696 51.276259 
L 348.768 51.276259 
L 339.84 51.276259 
L 330.912 51.276259 
L 321.984 51.276258 
L 313.056 51.276258 
L 304.128 51.276258 
L 295.2 51.276258 
L 286.272 51.276258 
L 277.344 51.276258 
L 268.416 51.276182 
L 259.488 71.188181 
L 250.56 71.132331 
L 241.632 75.000215 
L 232.704 74.663946 
L 223.776 82.231057 
L 214.848 83.071512 
L 205.92 87.145845 
L 196.992 89.477378 
L 188.064 102.58706 
L 179.136 109.921355 
L 170.208 114.160111 
L 161.28 111.739397 
L 152.352 116.678119 
L 143.424 116.902628 
L 134.496 109.412464 
L 125.568 105.024122 
L 116.64 95.237405 
L 107.712 89.043137 
L 98.784 83.3893 
L 89.856 77.06819 
L 80.928 70.316785 
L 72 63.738628 
z
" style="fill:#ff7f0e;fill-opacity:0.3;"/>
   </g>
   <g id="PolyCollection_3">
    <path clip-path="url(#p1d0791a3ff)" d="M 72 67.693285 
L 72 58.493615 
L 80.928 60.504276 
L 89.856 63.895312 
L 98.784 65.211649 
L 107.712 68.683315 
L 116.64 71.398754 
L 125.568 75.025424 
L 134.496 78.363648 
L 143.424 80.954439 
L 152.352 82.526312 
L 161.28 84.095519 
L 170.208 85.487827 
L 179.136 88.416554 
L 188.064 89.481058 
L 196.992 90.448599 
L 205.92 93.694437 
L 214.848 97.493327 
L 223.776 98.457313 
L 232.704 99.616472 
L 241.632 101.374911 
L 250.56 101.900516 
L 259.488 102.506286 
L 268.416 102.83789 
L 277.344 103.158625 
L 286.272 103.453193 
L 295.2 104.318762 
L 304.128 105.275932 
L 313.056 106.694294 
L 321.984 107.958852 
L 330.912 108.757892 
L 339.84 109.431577 
L 348.768 111.938102 
L 357.696 113.523948 
L 366.624 114.098823 
L 375.552 114.31624 
L 384.48 114.384186 
L 393.408 114.716986 
L 402.336 115.365853 
L 411.264 117.11394 
L 420.192 117.179215 
L 429.12 117.457979 
L 438.048 117.667986 
L 446.976 117.896994 
L 455.904 118.913937 
L 464.832 119.359276 
L 473.76 121.21447 
L 482.688 122.056436 
L 491.616 124.425271 
L 500.544 124.967975 
L 509.472 125.608476 
L 518.4 125.803236 
L 518.4 150.813377 
L 518.4 150.813377 
L 509.472 150.035774 
L 500.544 149.148891 
L 491.616 148.008169 
L 482.688 147.672149 
L 473.76 146.969113 
L 464.832 146.55796 
L 455.904 145.699718 
L 446.976 144.426414 
L 438.048 143.406009 
L 429.12 142.968543 
L 420.192 142.742109 
L 411.264 142.562356 
L 402.336 142.232337 
L 393.408 141.727253 
L 384.48 140.904688 
L 375.552 140.588251 
L 366.624 140.260282 
L 357.696 139.367359 
L 348.768 138.71812 
L 339.84 137.540905 
L 330.912 136.688738 
L 321.984 135.554228 
L 313.056 135.177282 
L 304.128 133.324277 
L 295.2 132.278281 
L 286.272 131.45567 
L 277.344 130.906416 
L 268.416 129.252012 
L 259.488 127.499476 
L 250.56 126.389351 
L 241.632 125.646603 
L 232.704 124.346324 
L 223.776 123.273492 
L 214.848 122.070804 
L 205.92 119.183729 
L 196.992 116.525628 
L 188.064 113.653436 
L 179.136 112.374885 
L 170.208 109.89612 
L 161.28 108.365976 
L 152.352 105.422006 
L 143.424 103.186608 
L 134.496 101.334052 
L 125.568 99.210718 
L 116.64 95.593736 
L 107.712 89.607668 
L 98.784 85.766019 
L 89.856 79.510565 
L 80.928 73.643414 
L 72 67.693285 
z
" style="fill:#2ca02c;fill-opacity:0.3;"/>
   </g>
   <g id="PolyCollection_4">
    <path clip-path="url(#p1d0791a3ff)" d="M 72 66.373172 
L 72 55.508241 
L 80.928 56.764074 
L 89.856 61.073144 
L 98.784 63.937984 
L 107.712 68.834438 
L 116.64 72.286706 
L 125.568 76.875533 
L 134.496 82.813575 
L 143.424 87.315021 
L 152.352 91.412478 
L 161.28 95.096378 
L 170.208 99.02844 
L 179.136 103.384918 
L 188.064 106.503824 
L 196.992 109.762126 
L 205.92 113.375949 
L 214.848 116.564775 
L 223.776 119.787086 
L 232.704 122.621877 
L 241.632 125.027165 
L 250.56 125.799787 
L 259.488 127.103306 
L 268.416 127.88195 
L 277.344 130.436763 
L 286.272 134.849596 
L 295.2 135.541189 
L 304.128 136.831824 
L 313.056 138.460856 
L 321.984 141.157075 
L 330.912 146.511299 
L 339.84 150.890276 
L 348.768 153.053844 
L 357.696 153.595224 
L 366.624 156.583804 
L 375.552 160.667505 
L 384.48 161.34315 
L 393.408 162.508567 
L 402.336 163.37794 
L 411.264 164.41908 
L 420.192 164.686096 
L 429.12 166.249349 
L 438.048 166.496675 
L 446.976 166.794433 
L 455.904 167.714565 
L 464.832 170.268113 
L 473.76 170.99704 
L 482.688 175.316084 
L 491.616 176.184537 
L 500.544 178.469351 
L 509.472 178.62697 
L 518.4 179.054011 
L 518.4 211.702157 
L 518.4 211.702157 
L 509.472 210.880799 
L 500.544 208.896931 
L 491.616 208.265224 
L 482.688 208.157102 
L 473.76 209.347855 
L 464.832 207.286464 
L 455.904 206.000839 
L 446.976 205.246928 
L 438.048 203.759233 
L 429.12 203.341909 
L 420.192 201.649883 
L 411.264 201.061006 
L 402.336 199.42894 
L 393.408 198.364789 
L 384.48 194.898904 
L 375.552 194.440181 
L 366.624 193.621879 
L 357.696 192.474623 
L 348.768 191.019225 
L 339.84 189.711466 
L 330.912 185.271901 
L 321.984 184.408842 
L 313.056 180.873685 
L 304.128 179.45114 
L 295.2 176.716115 
L 286.272 175.062212 
L 277.344 171.852943 
L 268.416 169.520116 
L 259.488 165.714475 
L 250.56 163.548589 
L 241.632 159.167042 
L 232.704 156.506445 
L 223.776 153.862348 
L 214.848 152.582255 
L 205.92 148.890123 
L 196.992 144.357795 
L 188.064 141.122892 
L 179.136 137.844974 
L 170.208 136.003885 
L 161.28 132.0936 
L 152.352 125.26577 
L 143.424 119.440432 
L 134.496 113.519175 
L 125.568 106.742787 
L 116.64 100.846106 
L 107.712 94.852338 
L 98.784 89.004006 
L 89.856 79.380406 
L 80.928 72.45763 
L 72 66.373172 
z
" style="fill:#d62728;fill-opacity:0.3;"/>
   </g>
   <g id="PolyCollection_5">
    <path clip-path="url(#p1d0791a3ff)" d="M 72 65.666664 
L 72 56.228267 
L 80.928 55.06455 
L 89.856 58.720183 
L 98.784 61.021819 
L 107.712 67.003112 
L 116.64 73.720065 
L 125.568 77.586083 
L 134.496 82.994425 
L 143.424 87.638334 
L 152.352 93.423672 
L 161.28 98.178441 
L 170.208 102.276974 
L 179.136 105.691594 
L 188.064 110.604905 
L 196.992 112.207585 
L 205.92 116.440646 
L 214.848 123.073819 
L 223.776 124.541589 
L 232.704 127.659151 
L 241.632 128.624195 
L 250.56 130.329052 
L 259.488 132.073805 
L 268.416 137.015529 
L 277.344 138.223473 
L 286.272 142.019406 
L 295.2 145.340238 
L 304.128 147.430694 
L 313.056 148.573702 
L 321.984 153.107592 
L 330.912 154.969538 
L 339.84 158.10518 
L 348.768 159.920671 
L 357.696 162.956052 
L 366.624 165.546224 
L 375.552 166.600059 
L 384.48 167.568837 
L 393.408 167.974708 
L 402.336 170.806201 
L 411.264 171.236181 
L 420.192 172.994208 
L 429.12 177.222928 
L 438.048 178.663275 
L 446.976 180.349872 
L 455.904 181.037702 
L 464.832 182.613378 
L 473.76 185.38953 
L 482.688 186.808665 
L 491.616 184.983714 
L 500.544 189.843326 
L 509.472 193.1228 
L 518.4 193.565988 
L 518.4 252.431416 
L 518.4 252.431416 
L 509.472 248.047621 
L 500.544 244.931485 
L 491.616 242.646217 
L 482.688 241.601044 
L 473.76 240.477931 
L 464.832 238.162514 
L 455.904 234.76245 
L 446.976 234.654671 
L 438.048 230.866188 
L 429.12 226.104094 
L 420.192 224.343423 
L 411.264 221.88696 
L 402.336 221.756465 
L 393.408 217.991353 
L 384.48 217.141309 
L 375.552 214.502391 
L 366.624 213.831335 
L 357.696 211.892484 
L 348.768 207.068749 
L 339.84 206.063071 
L 330.912 203.555337 
L 321.984 198.3789 
L 313.056 194.403637 
L 304.128 193.134849 
L 295.2 191.015498 
L 286.272 189.334565 
L 277.344 187.034406 
L 268.416 186.238622 
L 259.488 181.717776 
L 250.56 177.3331 
L 241.632 175.741971 
L 232.704 172.833887 
L 223.776 168.175634 
L 214.848 162.916037 
L 205.92 158.979442 
L 196.992 153.31335 
L 188.064 150.319864 
L 179.136 144.738897 
L 170.208 140.426189 
L 161.28 137.45805 
L 152.352 134.357702 
L 143.424 131.111716 
L 134.496 122.178102 
L 125.568 112.466232 
L 116.64 104.207714 
L 107.712 97.468077 
L 98.784 87.288925 
L 89.856 76.274752 
L 80.928 72.75858 
L 72 65.666664 
z
" style="fill:#9467bd;fill-opacity:0.3;"/>
   </g>
   <g id="PolyCollection_6">
    <path clip-path="url(#p1d0791a3ff)" d="M 72 66.802029 
L 72 56.216437 
L 80.928 56.595651 
L 89.856 58.582252 
L 98.784 60.843388 
L 107.712 65.187569 
L 116.64 68.076961 
L 125.568 73.043441 
L 134.496 75.12469 
L 143.424 83.243621 
L 152.352 87.661478 
L 161.28 92.456482 
L 170.208 99.714067 
L 179.136 106.848257 
L 188.064 110.425627 
L 196.992 112.668054 
L 205.92 116.112795 
L 214.848 121.316825 
L 223.776 125.590249 
L 232.704 135.76711 
L 241.632 138.449 
L 250.56 143.563891 
L 259.488 145.062829 
L 268.416 150.839261 
L 277.344 153.748691 
L 286.272 158.258759 
L 295.2 158.636883 
L 304.128 160.752563 
L 313.056 164.032327 
L 321.984 167.894822 
L 330.912 168.746024 
L 339.84 177.061986 
L 348.768 178.001535 
L 357.696 185.938687 
L 366.624 191.338321 
L 375.552 193.673392 
L 384.48 191.021571 
L 393.408 193.926748 
L 402.336 197.199595 
L 411.264 204.774483 
L 420.192 209.140793 
L 429.12 210.143997 
L 438.048 210.36851 
L 446.976 215.11374 
L 455.904 216.479694 
L 464.832 225.894506 
L 473.76 228.430017 
L 482.688 231.93383 
L 491.616 234.0242 
L 500.544 235.721432 
L 509.472 239.752091 
L 518.4 242.760771 
L 518.4 290.816552 
L 518.4 290.816552 
L 509.472 287.917343 
L 500.544 283.811365 
L 491.616 280.806799 
L 482.688 278.359273 
L 473.76 272.853492 
L 464.832 269.544909 
L 455.904 269.284595 
L 446.976 265.026662 
L 438.048 260.648927 
L 429.12 257.595682 
L 420.192 255.528036 
L 411.264 253.473217 
L 402.336 248.277705 
L 393.408 241.874983 
L 384.48 239.247027 
L 375.552 235.564192 
L 366.624 234.57441 
L 357.696 230.558302 
L 348.768 226.317157 
L 339.84 225.856127 
L 330.912 218.683404 
L 321.984 214.682281 
L 313.056 212.335234 
L 304.128 211.05575 
L 295.2 208.678554 
L 286.272 201.398664 
L 277.344 199.53313 
L 268.416 198.022546 
L 259.488 191.276574 
L 250.56 183.781108 
L 241.632 179.673578 
L 232.704 175.311867 
L 223.776 169.099999 
L 214.848 166.200799 
L 205.92 160.735893 
L 196.992 157.793346 
L 188.064 152.139851 
L 179.136 149.37504 
L 170.208 143.05048 
L 161.28 134.306682 
L 152.352 129.483045 
L 143.424 119.848948 
L 134.496 110.149771 
L 125.568 105.54667 
L 116.64 95.596346 
L 107.712 87.193757 
L 98.784 82.220279 
L 89.856 76.312202 
L 80.928 72.969446 
L 72 66.802029 
z
" style="fill:#8c564b;fill-opacity:0.3;"/>
   </g>
   <g id="PolyCollection_7">
    <path clip-path="url(#p1d0791a3ff)" d="M 72 65.350357 
L 72 52.659057 
L 80.928 59.565323 
L 89.856 59.908723 
L 98.784 59.791914 
L 107.712 60.022018 
L 116.64 60.646563 
L 125.568 60.653823 
L 134.496 60.940386 
L 143.424 61.093245 
L 152.352 61.174718 
L 161.28 60.955276 
L 170.208 61.067575 
L 179.136 61.119446 
L 188.064 61.34391 
L 196.992 61.585391 
L 205.92 61.633241 
L 214.848 61.592913 
L 223.776 61.648144 
L 232.704 61.604825 
L 241.632 61.542947 
L 250.56 61.385867 
L 259.488 61.49318 
L 268.416 61.552145 
L 277.344 61.496821 
L 286.272 61.620434 
L 295.2 61.595647 
L 304.128 61.674842 
L 313.056 61.681548 
L 321.984 61.756393 
L 330.912 61.812966 
L 339.84 61.806577 
L 348.768 61.904493 
L 357.696 61.929494 
L 366.624 62.015653 
L 375.552 62.078163 
L 384.48 62.102753 
L 393.408 62.109772 
L 402.336 62.176586 
L 411.264 62.260623 
L 420.192 62.260437 
L 429.12 62.348499 
L 438.048 62.367877 
L 446.976 62.396937 
L 455.904 62.392893 
L 464.832 62.403454 
L 473.76 62.389266 
L 482.688 62.403863 
L 491.616 62.414237 
L 500.544 62.435645 
L 509.472 62.392488 
L 518.4 62.425881 
L 518.4 62.883787 
L 518.4 62.883787 
L 509.472 62.892563 
L 500.544 62.874613 
L 491.616 62.895976 
L 482.688 62.891091 
L 473.76 62.909195 
L 464.832 62.899455 
L 455.904 62.877339 
L 446.976 62.868468 
L 438.048 62.879489 
L 429.12 62.887491 
L 420.192 62.89629 
L 411.264 62.894931 
L 402.336 62.928797 
L 393.408 62.944168 
L 384.48 62.957831 
L 375.552 62.956156 
L 366.624 62.985078 
L 357.696 63.006361 
L 348.768 63.006363 
L 339.84 63.041597 
L 330.912 63.000318 
L 321.984 62.986792 
L 313.056 62.993966 
L 304.128 63.022427 
L 295.2 63.001604 
L 286.272 62.95249 
L 277.344 62.925283 
L 268.416 62.915425 
L 259.488 62.94574 
L 250.56 63.016734 
L 241.632 62.972033 
L 232.704 62.885101 
L 223.776 62.874287 
L 214.848 62.855001 
L 205.92 62.778065 
L 196.992 62.814115 
L 188.064 62.95868 
L 179.136 62.989368 
L 170.208 62.901765 
L 161.28 62.933215 
L 152.352 62.85418 
L 143.424 62.904655 
L 134.496 62.930563 
L 125.568 63.094194 
L 116.64 62.92634 
L 107.712 63.084272 
L 98.784 63.022343 
L 89.856 62.749804 
L 80.928 62.563289 
L 72 65.350357 
z
" style="fill:#e377c2;fill-opacity:0.3;"/>
   </g>
   <g id="matplotlib.axis_1">
    <g id="xtick_1">
     <g id="line2d_1">
      <path clip-path="url(#p1d0791a3ff)" d="M 72 384.48 
L 72 51.84 
" style="fill:none;stroke:#b0b0b0;stroke-linecap:square;stroke-width:0.8;"/>
     </g>
     <g id="line2d_2">
      <defs>
       <path d="M 0 0 
L 0 3.5 
" id="mb41fd5704c" style="stroke:#000000;stroke-width:0.8;"/>
      </defs>
      <g>
       <use style="stroke:#000000;stroke-width:0.8;" x="72" xlink:href="#mb41fd5704c" y="384.48"/>
      </g>
     </g>
     <g id="text_1">
      <!-- 0 -->
      <defs>
       <path d="M 31.78125 66.40625 
Q 24.171875 66.40625 20.328125 58.90625 
Q 16.5 51.421875 16.5 36.375 
Q 16.5 21.390625 20.328125 13.890625 
Q 24.171875 6.390625 31.78125 6.390625 
Q 39.453125 6.390625 43.28125 13.890625 
Q 47.125 21.390625 47.125 36.375 
Q 47.125 51.421875 43.28125 58.90625 
Q 39.453125 66.40625 31.78125 66.40625 
z
M 31.78125 74.21875 
Q 44.046875 74.21875 50.515625 64.515625 
Q 56.984375 54.828125 56.984375 36.375 
Q 56.984375 17.96875 50.515625 8.265625 
Q 44.046875 -1.421875 31.78125 -1.421875 
Q 19.53125 -1.421875 13.0625 8.265625 
Q 6.59375 17.96875 6.59375 36.375 
Q 6.59375 54.828125 13.0625 64.515625 
Q 19.53125 74.21875 31.78125 74.21875 
z
" id="DejaVuSans-48"/>
      </defs>
      <g transform="translate(68.81875 399.078438)scale(0.1 -0.1)">
       <use xlink:href="#DejaVuSans-48"/>
      </g>
     </g>
    </g>
    <g id="xtick_2">
     <g id="line2d_3">
      <path clip-path="url(#p1d0791a3ff)" d="M 161.28 384.48 
L 161.28 51.84 
" style="fill:none;stroke:#b0b0b0;stroke-linecap:square;stroke-width:0.8;"/>
     </g>
     <g id="line2d_4">
      <g>
       <use style="stroke:#000000;stroke-width:0.8;" x="161.28" xlink:href="#mb41fd5704c" y="384.48"/>
      </g>
     </g>
     <g id="text_2">
      <!-- 10 -->
      <defs>
       <path d="M 12.40625 8.296875 
L 28.515625 8.296875 
L 28.515625 63.921875 
L 10.984375 60.40625 
L 10.984375 69.390625 
L 28.421875 72.90625 
L 38.28125 72.90625 
L 38.28125 8.296875 
L 54.390625 8.296875 
L 54.390625 0 
L 12.40625 0 
z
" id="DejaVuSans-49"/>
      </defs>
      <g transform="translate(154.9175 399.078438)scale(0.1 -0.1)">
       <use xlink:href="#DejaVuSans-49"/>
       <use x="63.623047" xlink:href="#DejaVuSans-48"/>
      </g>
     </g>
    </g>
    <g id="xtick_3">
     <g id="line2d_5">
      <path clip-path="url(#p1d0791a3ff)" d="M 250.56 384.48 
L 250.56 51.84 
" style="fill:none;stroke:#b0b0b0;stroke-linecap:square;stroke-width:0.8;"/>
     </g>
     <g id="line2d_6">
      <g>
       <use style="stroke:#000000;stroke-width:0.8;" x="250.56" xlink:href="#mb41fd5704c" y="384.48"/>
      </g>
     </g>
     <g id="text_3">
      <!-- 20 -->
      <defs>
       <path d="M 19.1875 8.296875 
L 53.609375 8.296875 
L 53.609375 0 
L 7.328125 0 
L 7.328125 8.296875 
Q 12.9375 14.109375 22.625 23.890625 
Q 32.328125 33.6875 34.8125 36.53125 
Q 39.546875 41.84375 41.421875 45.53125 
Q 43.3125 49.21875 43.3125 52.78125 
Q 43.3125 58.59375 39.234375 62.25 
Q 35.15625 65.921875 28.609375 65.921875 
Q 23.96875 65.921875 18.8125 64.3125 
Q 13.671875 62.703125 7.8125 59.421875 
L 7.8125 69.390625 
Q 13.765625 71.78125 18.9375 73 
Q 24.125 74.21875 28.421875 74.21875 
Q 39.75 74.21875 46.484375 68.546875 
Q 53.21875 62.890625 53.21875 53.421875 
Q 53.21875 48.921875 51.53125 44.890625 
Q 49.859375 40.875 45.40625 35.40625 
Q 44.1875 33.984375 37.640625 27.21875 
Q 31.109375 20.453125 19.1875 8.296875 
z
" id="DejaVuSans-50"/>
      </defs>
      <g transform="translate(244.1975 399.078438)scale(0.1 -0.1)">
       <use xlink:href="#DejaVuSans-50"/>
       <use x="63.623047" xlink:href="#DejaVuSans-48"/>
      </g>
     </g>
    </g>
    <g id="xtick_4">
     <g id="line2d_7">
      <path clip-path="url(#p1d0791a3ff)" d="M 339.84 384.48 
L 339.84 51.84 
" style="fill:none;stroke:#b0b0b0;stroke-linecap:square;stroke-width:0.8;"/>
     </g>
     <g id="line2d_8">
      <g>
       <use style="stroke:#000000;stroke-width:0.8;" x="339.84" xlink:href="#mb41fd5704c" y="384.48"/>
      </g>
     </g>
     <g id="text_4">
      <!-- 30 -->
      <defs>
       <path d="M 40.578125 39.3125 
Q 47.65625 37.796875 51.625 33 
Q 55.609375 28.21875 55.609375 21.1875 
Q 55.609375 10.40625 48.1875 4.484375 
Q 40.765625 -1.421875 27.09375 -1.421875 
Q 22.515625 -1.421875 17.65625 -0.515625 
Q 12.796875 0.390625 7.625 2.203125 
L 7.625 11.71875 
Q 11.71875 9.328125 16.59375 8.109375 
Q 21.484375 6.890625 26.8125 6.890625 
Q 36.078125 6.890625 40.9375 10.546875 
Q 45.796875 14.203125 45.796875 21.1875 
Q 45.796875 27.640625 41.28125 31.265625 
Q 36.765625 34.90625 28.71875 34.90625 
L 20.21875 34.90625 
L 20.21875 43.015625 
L 29.109375 43.015625 
Q 36.375 43.015625 40.234375 45.921875 
Q 44.09375 48.828125 44.09375 54.296875 
Q 44.09375 59.90625 40.109375 62.90625 
Q 36.140625 65.921875 28.71875 65.921875 
Q 24.65625 65.921875 20.015625 65.03125 
Q 15.375 64.15625 9.8125 62.3125 
L 9.8125 71.09375 
Q 15.4375 72.65625 20.34375 73.4375 
Q 25.25 74.21875 29.59375 74.21875 
Q 40.828125 74.21875 47.359375 69.109375 
Q 53.90625 64.015625 53.90625 55.328125 
Q 53.90625 49.265625 50.4375 45.09375 
Q 46.96875 40.921875 40.578125 39.3125 
z
" id="DejaVuSans-51"/>
      </defs>
      <g transform="translate(333.4775 399.078438)scale(0.1 -0.1)">
       <use xlink:href="#DejaVuSans-51"/>
       <use x="63.623047" xlink:href="#DejaVuSans-48"/>
      </g>
     </g>
    </g>
    <g id="xtick_5">
     <g id="line2d_9">
      <path clip-path="url(#p1d0791a3ff)" d="M 429.12 384.48 
L 429.12 51.84 
" style="fill:none;stroke:#b0b0b0;stroke-linecap:square;stroke-width:0.8;"/>
     </g>
     <g id="line2d_10">
      <g>
       <use style="stroke:#000000;stroke-width:0.8;" x="429.12" xlink:href="#mb41fd5704c" y="384.48"/>
      </g>
     </g>
     <g id="text_5">
      <!-- 40 -->
      <defs>
       <path d="M 37.796875 64.3125 
L 12.890625 25.390625 
L 37.796875 25.390625 
z
M 35.203125 72.90625 
L 47.609375 72.90625 
L 47.609375 25.390625 
L 58.015625 25.390625 
L 58.015625 17.1875 
L 47.609375 17.1875 
L 47.609375 0 
L 37.796875 0 
L 37.796875 17.1875 
L 4.890625 17.1875 
L 4.890625 26.703125 
z
" id="DejaVuSans-52"/>
      </defs>
      <g transform="translate(422.7575 399.078438)scale(0.1 -0.1)">
       <use xlink:href="#DejaVuSans-52"/>
       <use x="63.623047" xlink:href="#DejaVuSans-48"/>
      </g>
     </g>
    </g>
    <g id="xtick_6">
     <g id="line2d_11">
      <path clip-path="url(#p1d0791a3ff)" d="M 518.4 384.48 
L 518.4 51.84 
" style="fill:none;stroke:#b0b0b0;stroke-linecap:square;stroke-width:0.8;"/>
     </g>
     <g id="line2d_12">
      <g>
       <use style="stroke:#000000;stroke-width:0.8;" x="518.4" xlink:href="#mb41fd5704c" y="384.48"/>
      </g>
     </g>
     <g id="text_6">
      <!-- 50 -->
      <defs>
       <path d="M 10.796875 72.90625 
L 49.515625 72.90625 
L 49.515625 64.59375 
L 19.828125 64.59375 
L 19.828125 46.734375 
Q 21.96875 47.46875 24.109375 47.828125 
Q 26.265625 48.1875 28.421875 48.1875 
Q 40.625 48.1875 47.75 41.5 
Q 54.890625 34.8125 54.890625 23.390625 
Q 54.890625 11.625 47.5625 5.09375 
Q 40.234375 -1.421875 26.90625 -1.421875 
Q 22.3125 -1.421875 17.546875 -0.640625 
Q 12.796875 0.140625 7.71875 1.703125 
L 7.71875 11.625 
Q 12.109375 9.234375 16.796875 8.0625 
Q 21.484375 6.890625 26.703125 6.890625 
Q 35.15625 6.890625 40.078125 11.328125 
Q 45.015625 15.765625 45.015625 23.390625 
Q 45.015625 31 40.078125 35.4375 
Q 35.15625 39.890625 26.703125 39.890625 
Q 22.75 39.890625 18.8125 39.015625 
Q 14.890625 38.140625 10.796875 36.28125 
z
" id="DejaVuSans-53"/>
      </defs>
      <g transform="translate(512.0375 399.078438)scale(0.1 -0.1)">
       <use xlink:href="#DejaVuSans-53"/>
       <use x="63.623047" xlink:href="#DejaVuSans-48"/>
      </g>
     </g>
    </g>
    <g id="text_7">
     <!-- Iteration -->
     <defs>
      <path d="M 9.8125 72.90625 
L 19.671875 72.90625 
L 19.671875 0 
L 9.8125 0 
z
" id="DejaVuSans-73"/>
      <path d="M 18.3125 70.21875 
L 18.3125 54.6875 
L 36.8125 54.6875 
L 36.8125 47.703125 
L 18.3125 47.703125 
L 18.3125 18.015625 
Q 18.3125 11.328125 20.140625 9.421875 
Q 21.96875 7.515625 27.59375 7.515625 
L 36.8125 7.515625 
L 36.8125 0 
L 27.59375 0 
Q 17.1875 0 13.234375 3.875 
Q 9.28125 7.765625 9.28125 18.015625 
L 9.28125 47.703125 
L 2.6875 47.703125 
L 2.6875 54.6875 
L 9.28125 54.6875 
L 9.28125 70.21875 
z
" id="DejaVuSans-116"/>
      <path d="M 56.203125 29.59375 
L 56.203125 25.203125 
L 14.890625 25.203125 
Q 15.484375 15.921875 20.484375 11.0625 
Q 25.484375 6.203125 34.421875 6.203125 
Q 39.59375 6.203125 44.453125 7.46875 
Q 49.3125 8.734375 54.109375 11.28125 
L 54.109375 2.78125 
Q 49.265625 0.734375 44.1875 -0.34375 
Q 39.109375 -1.421875 33.890625 -1.421875 
Q 20.796875 -1.421875 13.15625 6.1875 
Q 5.515625 13.8125 5.515625 26.8125 
Q 5.515625 40.234375 12.765625 48.109375 
Q 20.015625 56 32.328125 56 
Q 43.359375 56 49.78125 48.890625 
Q 56.203125 41.796875 56.203125 29.59375 
z
M 47.21875 32.234375 
Q 47.125 39.59375 43.09375 43.984375 
Q 39.0625 48.390625 32.421875 48.390625 
Q 24.90625 48.390625 20.390625 44.140625 
Q 15.875 39.890625 15.1875 32.171875 
z
" id="DejaVuSans-101"/>
      <path d="M 41.109375 46.296875 
Q 39.59375 47.171875 37.8125 47.578125 
Q 36.03125 48 33.890625 48 
Q 26.265625 48 22.1875 43.046875 
Q 18.109375 38.09375 18.109375 28.8125 
L 18.109375 0 
L 9.078125 0 
L 9.078125 54.6875 
L 18.109375 54.6875 
L 18.109375 46.1875 
Q 20.953125 51.171875 25.484375 53.578125 
Q 30.03125 56 36.53125 56 
Q 37.453125 56 38.578125 55.875 
Q 39.703125 55.765625 41.0625 55.515625 
z
" id="DejaVuSans-114"/>
      <path d="M 34.28125 27.484375 
Q 23.390625 27.484375 19.1875 25 
Q 14.984375 22.515625 14.984375 16.5 
Q 14.984375 11.71875 18.140625 8.90625 
Q 21.296875 6.109375 26.703125 6.109375 
Q 34.1875 6.109375 38.703125 11.40625 
Q 43.21875 16.703125 43.21875 25.484375 
L 43.21875 27.484375 
z
M 52.203125 31.203125 
L 52.203125 0 
L 43.21875 0 
L 43.21875 8.296875 
Q 40.140625 3.328125 35.546875 0.953125 
Q 30.953125 -1.421875 24.3125 -1.421875 
Q 15.921875 -1.421875 10.953125 3.296875 
Q 6 8.015625 6 15.921875 
Q 6 25.140625 12.171875 29.828125 
Q 18.359375 34.515625 30.609375 34.515625 
L 43.21875 34.515625 
L 43.21875 35.40625 
Q 43.21875 41.609375 39.140625 45 
Q 35.0625 48.390625 27.6875 48.390625 
Q 23 48.390625 18.546875 47.265625 
Q 14.109375 46.140625 10.015625 43.890625 
L 10.015625 52.203125 
Q 14.9375 54.109375 19.578125 55.046875 
Q 24.21875 56 28.609375 56 
Q 40.484375 56 46.34375 49.84375 
Q 52.203125 43.703125 52.203125 31.203125 
z
" id="DejaVuSans-97"/>
      <path d="M 9.421875 54.6875 
L 18.40625 54.6875 
L 18.40625 0 
L 9.421875 0 
z
M 9.421875 75.984375 
L 18.40625 75.984375 
L 18.40625 64.59375 
L 9.421875 64.59375 
z
" id="DejaVuSans-105"/>
      <path d="M 30.609375 48.390625 
Q 23.390625 48.390625 19.1875 42.75 
Q 14.984375 37.109375 14.984375 27.296875 
Q 14.984375 17.484375 19.15625 11.84375 
Q 23.34375 6.203125 30.609375 6.203125 
Q 37.796875 6.203125 41.984375 11.859375 
Q 46.1875 17.53125 46.1875 27.296875 
Q 46.1875 37.015625 41.984375 42.703125 
Q 37.796875 48.390625 30.609375 48.390625 
z
M 30.609375 56 
Q 42.328125 56 49.015625 48.375 
Q 55.71875 40.765625 55.71875 27.296875 
Q 55.71875 13.875 49.015625 6.21875 
Q 42.328125 -1.421875 30.609375 -1.421875 
Q 18.84375 -1.421875 12.171875 6.21875 
Q 5.515625 13.875 5.515625 27.296875 
Q 5.515625 40.765625 12.171875 48.375 
Q 18.84375 56 30.609375 56 
z
" id="DejaVuSans-111"/>
      <path d="M 54.890625 33.015625 
L 54.890625 0 
L 45.90625 0 
L 45.90625 32.71875 
Q 45.90625 40.484375 42.875 44.328125 
Q 39.84375 48.1875 33.796875 48.1875 
Q 26.515625 48.1875 22.3125 43.546875 
Q 18.109375 38.921875 18.109375 30.90625 
L 18.109375 0 
L 9.078125 0 
L 9.078125 54.6875 
L 18.109375 54.6875 
L 18.109375 46.1875 
Q 21.34375 51.125 25.703125 53.5625 
Q 30.078125 56 35.796875 56 
Q 45.21875 56 50.046875 50.171875 
Q 54.890625 44.34375 54.890625 33.015625 
z
" id="DejaVuSans-110"/>
     </defs>
     <g transform="translate(273.991406 412.756563)scale(0.1 -0.1)">
      <use xlink:href="#DejaVuSans-73"/>
      <use x="29.492188" xlink:href="#DejaVuSans-116"/>
      <use x="68.701172" xlink:href="#DejaVuSans-101"/>
      <use x="130.224609" xlink:href="#DejaVuSans-114"/>
      <use x="171.337891" xlink:href="#DejaVuSans-97"/>
      <use x="232.617188" xlink:href="#DejaVuSans-116"/>
      <use x="271.826172" xlink:href="#DejaVuSans-105"/>
      <use x="299.609375" xlink:href="#DejaVuSans-111"/>
      <use x="360.791016" xlink:href="#DejaVuSans-110"/>
     </g>
    </g>
   </g>
   <g id="matplotlib.axis_2">
    <g id="ytick_1">
     <g id="line2d_13">
      <path clip-path="url(#p1d0791a3ff)" d="M 72 384.48 
L 518.4 384.48 
" style="fill:none;stroke:#b0b0b0;stroke-linecap:square;stroke-width:0.8;"/>
     </g>
     <g id="line2d_14">
      <defs>
       <path d="M 0 0 
L -3.5 0 
" id="ma2899651c4" style="stroke:#000000;stroke-width:0.8;"/>
      </defs>
      <g>
       <use style="stroke:#000000;stroke-width:0.8;" x="72" xlink:href="#ma2899651c4" y="384.48"/>
      </g>
     </g>
     <g id="text_8">
      <!-- $\mathdefault{10^{-12}}$ -->
      <defs>
       <path d="M 10.59375 35.5 
L 73.1875 35.5 
L 73.1875 27.203125 
L 10.59375 27.203125 
z
" id="DejaVuSans-8722"/>
      </defs>
      <g transform="translate(37.1 388.279219)scale(0.1 -0.1)">
       <use transform="translate(0 0.765625)" xlink:href="#DejaVuSans-49"/>
       <use transform="translate(63.623047 0.765625)" xlink:href="#DejaVuSans-48"/>
       <use transform="translate(128.203125 39.046875)scale(0.7)" xlink:href="#DejaVuSans-8722"/>
       <use transform="translate(186.855469 39.046875)scale(0.7)" xlink:href="#DejaVuSans-49"/>
       <use transform="translate(231.391602 39.046875)scale(0.7)" xlink:href="#DejaVuSans-50"/>
      </g>
     </g>
    </g>
    <g id="ytick_2">
     <g id="line2d_15">
      <path clip-path="url(#p1d0791a3ff)" d="M 72 336.96 
L 518.4 336.96 
" style="fill:none;stroke:#b0b0b0;stroke-linecap:square;stroke-width:0.8;"/>
     </g>
     <g id="line2d_16">
      <g>
       <use style="stroke:#000000;stroke-width:0.8;" x="72" xlink:href="#ma2899651c4" y="336.96"/>
      </g>
     </g>
     <g id="text_9">
      <!-- $\mathdefault{10^{-10}}$ -->
      <g transform="translate(37.1 340.759219)scale(0.1 -0.1)">
       <use transform="translate(0 0.765625)" xlink:href="#DejaVuSans-49"/>
       <use transform="translate(63.623047 0.765625)" xlink:href="#DejaVuSans-48"/>
       <use transform="translate(128.203125 39.046875)scale(0.7)" xlink:href="#DejaVuSans-8722"/>
       <use transform="translate(186.855469 39.046875)scale(0.7)" xlink:href="#DejaVuSans-49"/>
       <use transform="translate(231.391602 39.046875)scale(0.7)" xlink:href="#DejaVuSans-48"/>
      </g>
     </g>
    </g>
    <g id="ytick_3">
     <g id="line2d_17">
      <path clip-path="url(#p1d0791a3ff)" d="M 72 289.44 
L 518.4 289.44 
" style="fill:none;stroke:#b0b0b0;stroke-linecap:square;stroke-width:0.8;"/>
     </g>
     <g id="line2d_18">
      <g>
       <use style="stroke:#000000;stroke-width:0.8;" x="72" xlink:href="#ma2899651c4" y="289.44"/>
      </g>
     </g>
     <g id="text_10">
      <!-- $\mathdefault{10^{-8}}$ -->
      <defs>
       <path d="M 31.78125 34.625 
Q 24.75 34.625 20.71875 30.859375 
Q 16.703125 27.09375 16.703125 20.515625 
Q 16.703125 13.921875 20.71875 10.15625 
Q 24.75 6.390625 31.78125 6.390625 
Q 38.8125 6.390625 42.859375 10.171875 
Q 46.921875 13.96875 46.921875 20.515625 
Q 46.921875 27.09375 42.890625 30.859375 
Q 38.875 34.625 31.78125 34.625 
z
M 21.921875 38.8125 
Q 15.578125 40.375 12.03125 44.71875 
Q 8.5 49.078125 8.5 55.328125 
Q 8.5 64.0625 14.71875 69.140625 
Q 20.953125 74.21875 31.78125 74.21875 
Q 42.671875 74.21875 48.875 69.140625 
Q 55.078125 64.0625 55.078125 55.328125 
Q 55.078125 49.078125 51.53125 44.71875 
Q 48 40.375 41.703125 38.8125 
Q 48.828125 37.15625 52.796875 32.3125 
Q 56.78125 27.484375 56.78125 20.515625 
Q 56.78125 9.90625 50.3125 4.234375 
Q 43.84375 -1.421875 31.78125 -1.421875 
Q 19.734375 -1.421875 13.25 4.234375 
Q 6.78125 9.90625 6.78125 20.515625 
Q 6.78125 27.484375 10.78125 32.3125 
Q 14.796875 37.15625 21.921875 38.8125 
z
M 18.3125 54.390625 
Q 18.3125 48.734375 21.84375 45.5625 
Q 25.390625 42.390625 31.78125 42.390625 
Q 38.140625 42.390625 41.71875 45.5625 
Q 45.3125 48.734375 45.3125 54.390625 
Q 45.3125 60.0625 41.71875 63.234375 
Q 38.140625 66.40625 31.78125 66.40625 
Q 25.390625 66.40625 21.84375 63.234375 
Q 18.3125 60.0625 18.3125 54.390625 
z
" id="DejaVuSans-56"/>
      </defs>
      <g transform="translate(41.5 293.239219)scale(0.1 -0.1)">
       <use transform="translate(0 0.765625)" xlink:href="#DejaVuSans-49"/>
       <use transform="translate(63.623047 0.765625)" xlink:href="#DejaVuSans-48"/>
       <use transform="translate(128.203125 39.046875)scale(0.7)" xlink:href="#DejaVuSans-8722"/>
       <use transform="translate(186.855469 39.046875)scale(0.7)" xlink:href="#DejaVuSans-56"/>
      </g>
     </g>
    </g>
    <g id="ytick_4">
     <g id="line2d_19">
      <path clip-path="url(#p1d0791a3ff)" d="M 72 241.92 
L 518.4 241.92 
" style="fill:none;stroke:#b0b0b0;stroke-linecap:square;stroke-width:0.8;"/>
     </g>
     <g id="line2d_20">
      <g>
       <use style="stroke:#000000;stroke-width:0.8;" x="72" xlink:href="#ma2899651c4" y="241.92"/>
      </g>
     </g>
     <g id="text_11">
      <!-- $\mathdefault{10^{-6}}$ -->
      <defs>
       <path d="M 33.015625 40.375 
Q 26.375 40.375 22.484375 35.828125 
Q 18.609375 31.296875 18.609375 23.390625 
Q 18.609375 15.53125 22.484375 10.953125 
Q 26.375 6.390625 33.015625 6.390625 
Q 39.65625 6.390625 43.53125 10.953125 
Q 47.40625 15.53125 47.40625 23.390625 
Q 47.40625 31.296875 43.53125 35.828125 
Q 39.65625 40.375 33.015625 40.375 
z
M 52.59375 71.296875 
L 52.59375 62.3125 
Q 48.875 64.0625 45.09375 64.984375 
Q 41.3125 65.921875 37.59375 65.921875 
Q 27.828125 65.921875 22.671875 59.328125 
Q 17.53125 52.734375 16.796875 39.40625 
Q 19.671875 43.65625 24.015625 45.921875 
Q 28.375 48.1875 33.59375 48.1875 
Q 44.578125 48.1875 50.953125 41.515625 
Q 57.328125 34.859375 57.328125 23.390625 
Q 57.328125 12.15625 50.6875 5.359375 
Q 44.046875 -1.421875 33.015625 -1.421875 
Q 20.359375 -1.421875 13.671875 8.265625 
Q 6.984375 17.96875 6.984375 36.375 
Q 6.984375 53.65625 15.1875 63.9375 
Q 23.390625 74.21875 37.203125 74.21875 
Q 40.921875 74.21875 44.703125 73.484375 
Q 48.484375 72.75 52.59375 71.296875 
z
" id="DejaVuSans-54"/>
      </defs>
      <g transform="translate(41.5 245.719219)scale(0.1 -0.1)">
       <use transform="translate(0 0.765625)" xlink:href="#DejaVuSans-49"/>
       <use transform="translate(63.623047 0.765625)" xlink:href="#DejaVuSans-48"/>
       <use transform="translate(128.203125 39.046875)scale(0.7)" xlink:href="#DejaVuSans-8722"/>
       <use transform="translate(186.855469 39.046875)scale(0.7)" xlink:href="#DejaVuSans-54"/>
      </g>
     </g>
    </g>
    <g id="ytick_5">
     <g id="line2d_21">
      <path clip-path="url(#p1d0791a3ff)" d="M 72 194.4 
L 518.4 194.4 
" style="fill:none;stroke:#b0b0b0;stroke-linecap:square;stroke-width:0.8;"/>
     </g>
     <g id="line2d_22">
      <g>
       <use style="stroke:#000000;stroke-width:0.8;" x="72" xlink:href="#ma2899651c4" y="194.4"/>
      </g>
     </g>
     <g id="text_12">
      <!-- $\mathdefault{10^{-4}}$ -->
      <g transform="translate(41.5 198.199219)scale(0.1 -0.1)">
       <use transform="translate(0 0.684375)" xlink:href="#DejaVuSans-49"/>
       <use transform="translate(63.623047 0.684375)" xlink:href="#DejaVuSans-48"/>
       <use transform="translate(128.203125 38.965625)scale(0.7)" xlink:href="#DejaVuSans-8722"/>
       <use transform="translate(186.855469 38.965625)scale(0.7)" xlink:href="#DejaVuSans-52"/>
      </g>
     </g>
    </g>
    <g id="ytick_6">
     <g id="line2d_23">
      <path clip-path="url(#p1d0791a3ff)" d="M 72 146.88 
L 518.4 146.88 
" style="fill:none;stroke:#b0b0b0;stroke-linecap:square;stroke-width:0.8;"/>
     </g>
     <g id="line2d_24">
      <g>
       <use style="stroke:#000000;stroke-width:0.8;" x="72" xlink:href="#ma2899651c4" y="146.88"/>
      </g>
     </g>
     <g id="text_13">
      <!-- $\mathdefault{10^{-2}}$ -->
      <g transform="translate(41.5 150.679219)scale(0.1 -0.1)">
       <use transform="translate(0 0.765625)" xlink:href="#DejaVuSans-49"/>
       <use transform="translate(63.623047 0.765625)" xlink:href="#DejaVuSans-48"/>
       <use transform="translate(128.203125 39.046875)scale(0.7)" xlink:href="#DejaVuSans-8722"/>
       <use transform="translate(186.855469 39.046875)scale(0.7)" xlink:href="#DejaVuSans-50"/>
      </g>
     </g>
    </g>
    <g id="ytick_7">
     <g id="line2d_25">
      <path clip-path="url(#p1d0791a3ff)" d="M 72 99.36 
L 518.4 99.36 
" style="fill:none;stroke:#b0b0b0;stroke-linecap:square;stroke-width:0.8;"/>
     </g>
     <g id="line2d_26">
      <g>
       <use style="stroke:#000000;stroke-width:0.8;" x="72" xlink:href="#ma2899651c4" y="99.36"/>
      </g>
     </g>
     <g id="text_14">
      <!-- $\mathdefault{10^{0}}$ -->
      <g transform="translate(47.4 103.159219)scale(0.1 -0.1)">
       <use transform="translate(0 0.765625)" xlink:href="#DejaVuSans-49"/>
       <use transform="translate(63.623047 0.765625)" xlink:href="#DejaVuSans-48"/>
       <use transform="translate(128.203125 39.046875)scale(0.7)" xlink:href="#DejaVuSans-48"/>
      </g>
     </g>
    </g>
    <g id="ytick_8">
     <g id="line2d_27">
      <path clip-path="url(#p1d0791a3ff)" d="M 72 51.84 
L 518.4 51.84 
" style="fill:none;stroke:#b0b0b0;stroke-linecap:square;stroke-width:0.8;"/>
     </g>
     <g id="line2d_28">
      <g>
       <use style="stroke:#000000;stroke-width:0.8;" x="72" xlink:href="#ma2899651c4" y="51.84"/>
      </g>
     </g>
     <g id="text_15">
      <!-- $\mathdefault{10^{2}}$ -->
      <g transform="translate(47.4 55.639219)scale(0.1 -0.1)">
       <use transform="translate(0 0.765625)" xlink:href="#DejaVuSans-49"/>
       <use transform="translate(63.623047 0.765625)" xlink:href="#DejaVuSans-48"/>
       <use transform="translate(128.203125 39.046875)scale(0.7)" xlink:href="#DejaVuSans-50"/>
      </g>
     </g>
    </g>
    <g id="text_16">
     <!-- Integrated Squared Error -->
     <defs>
      <path d="M 45.40625 27.984375 
Q 45.40625 37.75 41.375 43.109375 
Q 37.359375 48.484375 30.078125 48.484375 
Q 22.859375 48.484375 18.828125 43.109375 
Q 14.796875 37.75 14.796875 27.984375 
Q 14.796875 18.265625 18.828125 12.890625 
Q 22.859375 7.515625 30.078125 7.515625 
Q 37.359375 7.515625 41.375 12.890625 
Q 45.40625 18.265625 45.40625 27.984375 
z
M 54.390625 6.78125 
Q 54.390625 -7.171875 48.1875 -13.984375 
Q 42 -20.796875 29.203125 -20.796875 
Q 24.46875 -20.796875 20.265625 -20.09375 
Q 16.0625 -19.390625 12.109375 -17.921875 
L 12.109375 -9.1875 
Q 16.0625 -11.328125 19.921875 -12.34375 
Q 23.78125 -13.375 27.78125 -13.375 
Q 36.625 -13.375 41.015625 -8.765625 
Q 45.40625 -4.15625 45.40625 5.171875 
L 45.40625 9.625 
Q 42.625 4.78125 38.28125 2.390625 
Q 33.9375 0 27.875 0 
Q 17.828125 0 11.671875 7.65625 
Q 5.515625 15.328125 5.515625 27.984375 
Q 5.515625 40.671875 11.671875 48.328125 
Q 17.828125 56 27.875 56 
Q 33.9375 56 38.28125 53.609375 
Q 42.625 51.21875 45.40625 46.390625 
L 45.40625 54.6875 
L 54.390625 54.6875 
z
" id="DejaVuSans-103"/>
      <path d="M 45.40625 46.390625 
L 45.40625 75.984375 
L 54.390625 75.984375 
L 54.390625 0 
L 45.40625 0 
L 45.40625 8.203125 
Q 42.578125 3.328125 38.25 0.953125 
Q 33.9375 -1.421875 27.875 -1.421875 
Q 17.96875 -1.421875 11.734375 6.484375 
Q 5.515625 14.40625 5.515625 27.296875 
Q 5.515625 40.1875 11.734375 48.09375 
Q 17.96875 56 27.875 56 
Q 33.9375 56 38.25 53.625 
Q 42.578125 51.265625 45.40625 46.390625 
z
M 14.796875 27.296875 
Q 14.796875 17.390625 18.875 11.75 
Q 22.953125 6.109375 30.078125 6.109375 
Q 37.203125 6.109375 41.296875 11.75 
Q 45.40625 17.390625 45.40625 27.296875 
Q 45.40625 37.203125 41.296875 42.84375 
Q 37.203125 48.484375 30.078125 48.484375 
Q 22.953125 48.484375 18.875 42.84375 
Q 14.796875 37.203125 14.796875 27.296875 
z
" id="DejaVuSans-100"/>
      <path id="DejaVuSans-32"/>
      <path d="M 53.515625 70.515625 
L 53.515625 60.890625 
Q 47.90625 63.578125 42.921875 64.890625 
Q 37.9375 66.21875 33.296875 66.21875 
Q 25.25 66.21875 20.875 63.09375 
Q 16.5 59.96875 16.5 54.203125 
Q 16.5 49.359375 19.40625 46.890625 
Q 22.3125 44.4375 30.421875 42.921875 
L 36.375 41.703125 
Q 47.40625 39.59375 52.65625 34.296875 
Q 57.90625 29 57.90625 20.125 
Q 57.90625 9.515625 50.796875 4.046875 
Q 43.703125 -1.421875 29.984375 -1.421875 
Q 24.8125 -1.421875 18.96875 -0.25 
Q 13.140625 0.921875 6.890625 3.21875 
L 6.890625 13.375 
Q 12.890625 10.015625 18.65625 8.296875 
Q 24.421875 6.59375 29.984375 6.59375 
Q 38.421875 6.59375 43.015625 9.90625 
Q 47.609375 13.234375 47.609375 19.390625 
Q 47.609375 24.75 44.3125 27.78125 
Q 41.015625 30.8125 33.5 32.328125 
L 27.484375 33.5 
Q 16.453125 35.6875 11.515625 40.375 
Q 6.59375 45.0625 6.59375 53.421875 
Q 6.59375 63.09375 13.40625 68.65625 
Q 20.21875 74.21875 32.171875 74.21875 
Q 37.3125 74.21875 42.625 73.28125 
Q 47.953125 72.359375 53.515625 70.515625 
z
" id="DejaVuSans-83"/>
      <path d="M 14.796875 27.296875 
Q 14.796875 17.390625 18.875 11.75 
Q 22.953125 6.109375 30.078125 6.109375 
Q 37.203125 6.109375 41.296875 11.75 
Q 45.40625 17.390625 45.40625 27.296875 
Q 45.40625 37.203125 41.296875 42.84375 
Q 37.203125 48.484375 30.078125 48.484375 
Q 22.953125 48.484375 18.875 42.84375 
Q 14.796875 37.203125 14.796875 27.296875 
z
M 45.40625 8.203125 
Q 42.578125 3.328125 38.25 0.953125 
Q 33.9375 -1.421875 27.875 -1.421875 
Q 17.96875 -1.421875 11.734375 6.484375 
Q 5.515625 14.40625 5.515625 27.296875 
Q 5.515625 40.1875 11.734375 48.09375 
Q 17.96875 56 27.875 56 
Q 33.9375 56 38.25 53.625 
Q 42.578125 51.265625 45.40625 46.390625 
L 45.40625 54.6875 
L 54.390625 54.6875 
L 54.390625 -20.796875 
L 45.40625 -20.796875 
z
" id="DejaVuSans-113"/>
      <path d="M 8.5 21.578125 
L 8.5 54.6875 
L 17.484375 54.6875 
L 17.484375 21.921875 
Q 17.484375 14.15625 20.5 10.265625 
Q 23.53125 6.390625 29.59375 6.390625 
Q 36.859375 6.390625 41.078125 11.03125 
Q 45.3125 15.671875 45.3125 23.6875 
L 45.3125 54.6875 
L 54.296875 54.6875 
L 54.296875 0 
L 45.3125 0 
L 45.3125 8.40625 
Q 42.046875 3.421875 37.71875 1 
Q 33.40625 -1.421875 27.6875 -1.421875 
Q 18.265625 -1.421875 13.375 4.4375 
Q 8.5 10.296875 8.5 21.578125 
z
M 31.109375 56 
z
" id="DejaVuSans-117"/>
      <path d="M 9.8125 72.90625 
L 55.90625 72.90625 
L 55.90625 64.59375 
L 19.671875 64.59375 
L 19.671875 43.015625 
L 54.390625 43.015625 
L 54.390625 34.71875 
L 19.671875 34.71875 
L 19.671875 8.296875 
L 56.78125 8.296875 
L 56.78125 0 
L 9.8125 0 
z
" id="DejaVuSans-69"/>
     </defs>
     <g transform="translate(31.020312 280.483437)rotate(-90)scale(0.1 -0.1)">
      <use xlink:href="#DejaVuSans-73"/>
      <use x="29.492188" xlink:href="#DejaVuSans-110"/>
      <use x="92.871094" xlink:href="#DejaVuSans-116"/>
      <use x="132.080078" xlink:href="#DejaVuSans-101"/>
      <use x="193.603516" xlink:href="#DejaVuSans-103"/>
      <use x="257.080078" xlink:href="#DejaVuSans-114"/>
      <use x="298.193359" xlink:href="#DejaVuSans-97"/>
      <use x="359.472656" xlink:href="#DejaVuSans-116"/>
      <use x="398.681641" xlink:href="#DejaVuSans-101"/>
      <use x="460.205078" xlink:href="#DejaVuSans-100"/>
      <use x="523.681641" xlink:href="#DejaVuSans-32"/>
      <use x="555.46875" xlink:href="#DejaVuSans-83"/>
      <use x="618.945312" xlink:href="#DejaVuSans-113"/>
      <use x="682.421875" xlink:href="#DejaVuSans-117"/>
      <use x="745.800781" xlink:href="#DejaVuSans-97"/>
      <use x="807.080078" xlink:href="#DejaVuSans-114"/>
      <use x="845.943359" xlink:href="#DejaVuSans-101"/>
      <use x="907.466797" xlink:href="#DejaVuSans-100"/>
      <use x="970.943359" xlink:href="#DejaVuSans-32"/>
      <use x="1002.730469" xlink:href="#DejaVuSans-69"/>
      <use x="1065.914062" xlink:href="#DejaVuSans-114"/>
      <use x="1105.277344" xlink:href="#DejaVuSans-114"/>
      <use x="1144.140625" xlink:href="#DejaVuSans-111"/>
      <use x="1205.322266" xlink:href="#DejaVuSans-114"/>
     </g>
    </g>
   </g>
   <g id="line2d_29">
    <path clip-path="url(#p1d0791a3ff)" d="M 72 58.548558 
L 80.928 58.309321 
L 89.856 58.075549 
L 98.784 58.266221 
L 107.712 58.23689 
L 116.64 58.223339 
L 125.568 58.349982 
L 134.496 57.870001 
L 143.424 58.077444 
L 152.352 58.262461 
L 161.28 58.216854 
L 170.208 58.681317 
L 179.136 58.711048 
L 188.064 58.244117 
L 196.992 57.751934 
L 205.92 58.493215 
L 214.848 58.555251 
L 223.776 58.32526 
L 232.704 57.969305 
L 241.632 57.900496 
L 250.56 57.880922 
L 259.488 57.952158 
L 268.416 58.584743 
L 277.344 57.115703 
L 286.272 57.410485 
L 295.2 57.527317 
L 304.128 58.765938 
L 313.056 58.368098 
L 321.984 58.821655 
L 330.912 57.398739 
L 339.84 57.236852 
L 348.768 57.426487 
L 357.696 58.142766 
L 366.624 57.731307 
L 375.552 56.906875 
L 384.48 58.608481 
L 393.408 57.804324 
L 402.336 56.046622 
L 411.264 56.542354 
L 420.192 56.772196 
L 429.12 56.514763 
L 438.048 57.395061 
L 446.976 55.308396 
L 455.904 56.423435 
L 464.832 58.520299 
L 473.76 56.231313 
L 482.688 55.656024 
L 491.616 55.862407 
L 500.544 57.505774 
L 509.472 55.014086 
L 518.4 55.349821 
" style="fill:none;stroke:#1f77b4;stroke-linecap:square;stroke-width:1.5;"/>
   </g>
   <g id="line2d_30">
    <path clip-path="url(#p1d0791a3ff)" d="M 72 59.133997 
L 80.928 62.21444 
L 89.856 66.042368 
L 98.784 71.122573 
L 107.712 74.774734 
L 116.64 79.518038 
L 125.568 86.819783 
L 134.496 90.97064 
L 143.424 95.562711 
L 152.352 91.754156 
L 161.28 83.220644 
L 170.208 82.979735 
L 179.136 78.127549 
L 188.064 72.331892 
L 196.992 64.237818 
L 205.92 62.493138 
L 214.848 60.302248 
L 223.776 59.530634 
L 232.704 56.538834 
L 241.632 56.607816 
L 250.56 54.634874 
L 259.488 54.643935 
L 268.416 51.273391 
L 277.344 51.273448 
L 286.272 51.273448 
L 295.2 51.273448 
L 304.128 51.273448 
L 313.056 51.273448 
L 321.984 51.273448 
L 330.912 51.273448 
L 339.84 51.273448 
L 348.768 51.273448 
L 357.696 51.273448 
L 366.624 51.273448 
L 375.552 51.273448 
L 384.48 51.273448 
L 393.408 51.273448 
L 402.336 51.273448 
L 411.264 51.273455 
L 420.192 51.273455 
L 429.12 51.273455 
L 438.048 51.273464 
L 446.976 51.273464 
L 455.904 51.273464 
L 464.832 51.273464 
L 473.76 51.273464 
L 482.688 51.273464 
L 491.616 51.273464 
L 500.544 51.273529 
L 509.472 51.273529 
L 518.4 51.273529 
" style="fill:none;stroke:#ff7f0e;stroke-linecap:square;stroke-width:1.5;"/>
   </g>
   <g id="line2d_31">
    <path clip-path="url(#p1d0791a3ff)" d="M 72 63.09345 
L 80.928 67.073845 
L 89.856 71.702938 
L 98.784 75.488834 
L 107.712 79.145491 
L 116.64 83.496245 
L 125.568 87.118071 
L 134.496 89.84885 
L 143.424 92.070524 
L 152.352 93.974159 
L 161.28 96.230747 
L 170.208 97.691974 
L 179.136 100.395719 
L 188.064 101.567247 
L 196.992 103.487114 
L 205.92 106.439083 
L 214.848 109.782065 
L 223.776 110.865403 
L 232.704 111.981398 
L 241.632 113.510757 
L 250.56 114.144933 
L 259.488 115.002881 
L 268.416 116.044951 
L 277.344 117.03252 
L 286.272 117.454432 
L 295.2 118.298522 
L 304.128 119.300104 
L 313.056 120.935788 
L 321.984 121.75654 
L 330.912 122.723315 
L 339.84 123.486241 
L 348.768 125.328111 
L 357.696 126.445654 
L 366.624 127.179553 
L 375.552 127.452246 
L 384.48 127.644437 
L 393.408 128.222119 
L 402.336 128.799095 
L 411.264 129.838148 
L 420.192 129.960662 
L 429.12 130.213261 
L 438.048 130.536998 
L 446.976 131.161704 
L 455.904 132.306828 
L 464.832 132.958618 
L 473.76 134.091791 
L 482.688 134.864292 
L 491.616 136.21672 
L 500.544 137.058433 
L 509.472 137.822125 
L 518.4 138.308307 
" style="fill:none;stroke:#2ca02c;stroke-linecap:square;stroke-width:1.5;"/>
   </g>
   <g id="line2d_32">
    <path clip-path="url(#p1d0791a3ff)" d="M 72 60.940707 
L 80.928 64.610852 
L 89.856 70.226775 
L 98.784 76.470995 
L 107.712 81.843388 
L 116.64 86.566406 
L 125.568 91.80916 
L 134.496 98.166375 
L 143.424 103.377727 
L 152.352 108.339124 
L 161.28 113.594989 
L 170.208 117.516163 
L 179.136 120.614946 
L 188.064 123.813358 
L 196.992 127.059961 
L 205.92 131.133036 
L 214.848 134.573515 
L 223.776 136.824717 
L 232.704 139.564161 
L 241.632 142.097104 
L 250.56 144.674188 
L 259.488 146.408891 
L 268.416 148.701033 
L 277.344 151.144853 
L 286.272 154.955904 
L 295.2 156.128652 
L 304.128 158.141482 
L 313.056 159.667271 
L 321.984 162.782959 
L 330.912 165.8916 
L 339.84 170.300871 
L 348.768 172.036534 
L 357.696 173.034924 
L 366.624 175.102842 
L 375.552 177.553843 
L 384.48 178.121027 
L 393.408 180.436678 
L 402.336 181.40344 
L 411.264 182.740043 
L 420.192 183.16799 
L 429.12 184.795629 
L 438.048 185.127954 
L 446.976 186.020681 
L 455.904 186.857702 
L 464.832 188.777289 
L 473.76 190.172447 
L 482.688 191.736593 
L 491.616 192.224881 
L 500.544 193.683141 
L 509.472 194.753884 
L 518.4 195.378084 
" style="fill:none;stroke:#d62728;stroke-linecap:square;stroke-width:1.5;"/>
   </g>
   <g id="line2d_33">
    <path clip-path="url(#p1d0791a3ff)" d="M 72 60.947466 
L 80.928 63.911565 
L 89.856 67.497468 
L 98.784 74.155372 
L 107.712 82.235595 
L 116.64 88.96389 
L 125.568 95.026157 
L 134.496 102.586263 
L 143.424 109.375025 
L 152.352 113.890687 
L 161.28 117.818245 
L 170.208 121.351581 
L 179.136 125.215245 
L 188.064 130.462384 
L 196.992 132.760468 
L 205.92 137.710044 
L 214.848 142.994928 
L 223.776 146.358611 
L 232.704 150.246519 
L 241.632 152.183083 
L 250.56 153.831076 
L 259.488 156.895791 
L 268.416 161.627076 
L 277.344 162.62894 
L 286.272 165.676986 
L 295.2 168.177868 
L 304.128 170.282772 
L 313.056 171.488669 
L 321.984 175.743246 
L 330.912 179.262438 
L 339.84 182.084126 
L 348.768 183.49471 
L 357.696 187.424268 
L 366.624 189.68878 
L 375.552 190.551225 
L 384.48 192.355073 
L 393.408 192.983031 
L 402.336 196.281333 
L 411.264 196.561571 
L 420.192 198.668816 
L 429.12 201.663511 
L 438.048 204.764731 
L 446.976 207.502271 
L 455.904 207.900076 
L 464.832 210.387946 
L 473.76 212.933731 
L 482.688 214.204855 
L 491.616 213.814966 
L 500.544 217.387406 
L 509.472 220.585211 
L 518.4 222.998702 
" style="fill:none;stroke:#9467bd;stroke-linecap:square;stroke-width:1.5;"/>
   </g>
   <g id="line2d_34">
    <path clip-path="url(#p1d0791a3ff)" d="M 72 61.509233 
L 80.928 64.782548 
L 89.856 67.447227 
L 98.784 71.531834 
L 107.712 76.190663 
L 116.64 81.836654 
L 125.568 89.295056 
L 134.496 92.637231 
L 143.424 101.546285 
L 152.352 108.572261 
L 161.28 113.381582 
L 170.208 121.382273 
L 179.136 128.111648 
L 188.064 131.282739 
L 196.992 135.2307 
L 205.92 138.424344 
L 214.848 143.758812 
L 223.776 147.345124 
L 232.704 155.539488 
L 241.632 159.061289 
L 250.56 163.672499 
L 259.488 168.169702 
L 268.416 174.430904 
L 277.344 176.640911 
L 286.272 179.828711 
L 295.2 183.657718 
L 304.128 185.904156 
L 313.056 188.183781 
L 321.984 191.288551 
L 330.912 193.714714 
L 339.84 201.459056 
L 348.768 202.159346 
L 357.696 208.248494 
L 366.624 212.956365 
L 375.552 214.618792 
L 384.48 215.134299 
L 393.408 217.900865 
L 402.336 222.73865 
L 411.264 229.12385 
L 420.192 232.334414 
L 429.12 233.86984 
L 438.048 235.508718 
L 446.976 240.070201 
L 455.904 242.882144 
L 464.832 247.719708 
L 473.76 250.641755 
L 482.688 255.146551 
L 491.616 257.415499 
L 500.544 259.766399 
L 509.472 263.834717 
L 518.4 266.788661 
" style="fill:none;stroke:#8c564b;stroke-linecap:square;stroke-width:1.5;"/>
   </g>
   <g id="line2d_35">
    <path clip-path="url(#p1d0791a3ff)" d="M 72 59.004707 
L 80.928 61.064306 
L 89.856 61.329263 
L 98.784 61.407129 
L 107.712 61.553145 
L 116.64 61.786452 
L 125.568 61.874009 
L 134.496 61.935474 
L 143.424 61.99895 
L 152.352 62.014449 
L 161.28 61.944245 
L 170.208 61.98467 
L 179.136 62.054407 
L 188.064 62.151295 
L 196.992 62.199753 
L 205.92 62.205653 
L 214.848 62.223957 
L 223.776 62.261215 
L 232.704 62.244963 
L 241.632 62.25749 
L 250.56 62.2013 
L 259.488 62.21946 
L 268.416 62.233785 
L 277.344 62.211052 
L 286.272 62.286462 
L 295.2 62.298625 
L 304.128 62.348635 
L 313.056 62.337757 
L 321.984 62.371592 
L 330.912 62.406642 
L 339.84 62.424087 
L 348.768 62.455428 
L 357.696 62.467928 
L 366.624 62.500365 
L 375.552 62.517159 
L 384.48 62.530292 
L 393.408 62.52697 
L 402.336 62.552691 
L 411.264 62.577777 
L 420.192 62.578364 
L 429.12 62.617995 
L 438.048 62.623683 
L 446.976 62.632703 
L 455.904 62.635116 
L 464.832 62.651454 
L 473.76 62.649231 
L 482.688 62.647477 
L 491.616 62.655106 
L 500.544 62.655129 
L 509.472 62.642525 
L 518.4 62.654834 
" style="fill:none;stroke:#e377c2;stroke-linecap:square;stroke-width:1.5;"/>
   </g>
   <g id="patch_3">
    <path d="M 72 384.48 
L 72 51.84 
" style="fill:none;stroke:#000000;stroke-linecap:square;stroke-linejoin:miter;stroke-width:0.8;"/>
   </g>
   <g id="patch_4">
    <path d="M 518.4 384.48 
L 518.4 51.84 
" style="fill:none;stroke:#000000;stroke-linecap:square;stroke-linejoin:miter;stroke-width:0.8;"/>
   </g>
   <g id="patch_5">
    <path d="M 72 384.48 
L 518.4 384.48 
" style="fill:none;stroke:#000000;stroke-linecap:square;stroke-linejoin:miter;stroke-width:0.8;"/>
   </g>
   <g id="patch_6">
    <path d="M 72 51.84 
L 518.4 51.84 
" style="fill:none;stroke:#000000;stroke-linecap:square;stroke-linejoin:miter;stroke-width:0.8;"/>
   </g>
   <g id="legend_1">
    <g id="patch_7">
     <path d="M 79 379.48 
L 165.804688 379.48 
Q 167.804688 379.48 167.804688 377.48 
L 167.804688 275.733125 
Q 167.804688 273.733125 165.804688 273.733125 
L 79 273.733125 
Q 77 273.733125 77 275.733125 
L 77 377.48 
Q 77 379.48 79 379.48 
z
" style="fill:#ffffff;opacity:0.8;stroke:#cccccc;stroke-linejoin:miter;"/>
    </g>
    <g id="line2d_36">
     <path d="M 81 281.831563 
L 101 281.831563 
" style="fill:none;stroke:#1f77b4;stroke-linecap:square;stroke-width:1.5;"/>
    </g>
    <g id="line2d_37"/>
    <g id="text_17">
     <!-- Constant -->
     <defs>
      <path d="M 64.40625 67.28125 
L 64.40625 56.890625 
Q 59.421875 61.53125 53.78125 63.8125 
Q 48.140625 66.109375 41.796875 66.109375 
Q 29.296875 66.109375 22.65625 58.46875 
Q 16.015625 50.828125 16.015625 36.375 
Q 16.015625 21.96875 22.65625 14.328125 
Q 29.296875 6.6875 41.796875 6.6875 
Q 48.140625 6.6875 53.78125 8.984375 
Q 59.421875 11.28125 64.40625 15.921875 
L 64.40625 5.609375 
Q 59.234375 2.09375 53.4375 0.328125 
Q 47.65625 -1.421875 41.21875 -1.421875 
Q 24.65625 -1.421875 15.125 8.703125 
Q 5.609375 18.84375 5.609375 36.375 
Q 5.609375 53.953125 15.125 64.078125 
Q 24.65625 74.21875 41.21875 74.21875 
Q 47.75 74.21875 53.53125 72.484375 
Q 59.328125 70.75 64.40625 67.28125 
z
" id="DejaVuSans-67"/>
      <path d="M 44.28125 53.078125 
L 44.28125 44.578125 
Q 40.484375 46.53125 36.375 47.5 
Q 32.28125 48.484375 27.875 48.484375 
Q 21.1875 48.484375 17.84375 46.4375 
Q 14.5 44.390625 14.5 40.28125 
Q 14.5 37.15625 16.890625 35.375 
Q 19.28125 33.59375 26.515625 31.984375 
L 29.59375 31.296875 
Q 39.15625 29.25 43.1875 25.515625 
Q 47.21875 21.78125 47.21875 15.09375 
Q 47.21875 7.46875 41.1875 3.015625 
Q 35.15625 -1.421875 24.609375 -1.421875 
Q 20.21875 -1.421875 15.453125 -0.5625 
Q 10.6875 0.296875 5.421875 2 
L 5.421875 11.28125 
Q 10.40625 8.6875 15.234375 7.390625 
Q 20.0625 6.109375 24.8125 6.109375 
Q 31.15625 6.109375 34.5625 8.28125 
Q 37.984375 10.453125 37.984375 14.40625 
Q 37.984375 18.0625 35.515625 20.015625 
Q 33.0625 21.96875 24.703125 23.78125 
L 21.578125 24.515625 
Q 13.234375 26.265625 9.515625 29.90625 
Q 5.8125 33.546875 5.8125 39.890625 
Q 5.8125 47.609375 11.28125 51.796875 
Q 16.75 56 26.8125 56 
Q 31.78125 56 36.171875 55.265625 
Q 40.578125 54.546875 44.28125 53.078125 
z
" id="DejaVuSans-115"/>
     </defs>
     <g transform="translate(109 285.331563)scale(0.1 -0.1)">
      <use xlink:href="#DejaVuSans-67"/>
      <use x="69.824219" xlink:href="#DejaVuSans-111"/>
      <use x="131.005859" xlink:href="#DejaVuSans-110"/>
      <use x="194.384766" xlink:href="#DejaVuSans-115"/>
      <use x="246.484375" xlink:href="#DejaVuSans-116"/>
      <use x="285.693359" xlink:href="#DejaVuSans-97"/>
      <use x="346.972656" xlink:href="#DejaVuSans-110"/>
      <use x="410.351562" xlink:href="#DejaVuSans-116"/>
     </g>
    </g>
    <g id="line2d_38">
     <path d="M 81 296.509688 
L 101 296.509688 
" style="fill:none;stroke:#ff7f0e;stroke-linecap:square;stroke-width:1.5;"/>
    </g>
    <g id="line2d_39"/>
    <g id="text_18">
     <!-- RBF -->
     <defs>
      <path d="M 44.390625 34.1875 
Q 47.5625 33.109375 50.5625 29.59375 
Q 53.5625 26.078125 56.59375 19.921875 
L 66.609375 0 
L 56 0 
L 46.6875 18.703125 
Q 43.0625 26.03125 39.671875 28.421875 
Q 36.28125 30.8125 30.421875 30.8125 
L 19.671875 30.8125 
L 19.671875 0 
L 9.8125 0 
L 9.8125 72.90625 
L 32.078125 72.90625 
Q 44.578125 72.90625 50.734375 67.671875 
Q 56.890625 62.453125 56.890625 51.90625 
Q 56.890625 45.015625 53.6875 40.46875 
Q 50.484375 35.9375 44.390625 34.1875 
z
M 19.671875 64.796875 
L 19.671875 38.921875 
L 32.078125 38.921875 
Q 39.203125 38.921875 42.84375 42.21875 
Q 46.484375 45.515625 46.484375 51.90625 
Q 46.484375 58.296875 42.84375 61.546875 
Q 39.203125 64.796875 32.078125 64.796875 
z
" id="DejaVuSans-82"/>
      <path d="M 19.671875 34.8125 
L 19.671875 8.109375 
L 35.5 8.109375 
Q 43.453125 8.109375 47.28125 11.40625 
Q 51.125 14.703125 51.125 21.484375 
Q 51.125 28.328125 47.28125 31.5625 
Q 43.453125 34.8125 35.5 34.8125 
z
M 19.671875 64.796875 
L 19.671875 42.828125 
L 34.28125 42.828125 
Q 41.5 42.828125 45.03125 45.53125 
Q 48.578125 48.25 48.578125 53.8125 
Q 48.578125 59.328125 45.03125 62.0625 
Q 41.5 64.796875 34.28125 64.796875 
z
M 9.8125 72.90625 
L 35.015625 72.90625 
Q 46.296875 72.90625 52.390625 68.21875 
Q 58.5 63.53125 58.5 54.890625 
Q 58.5 48.1875 55.375 44.234375 
Q 52.25 40.28125 46.1875 39.3125 
Q 53.46875 37.75 57.5 32.78125 
Q 61.53125 27.828125 61.53125 20.40625 
Q 61.53125 10.640625 54.890625 5.3125 
Q 48.25 0 35.984375 0 
L 9.8125 0 
z
" id="DejaVuSans-66"/>
      <path d="M 9.8125 72.90625 
L 51.703125 72.90625 
L 51.703125 64.59375 
L 19.671875 64.59375 
L 19.671875 43.109375 
L 48.578125 43.109375 
L 48.578125 34.8125 
L 19.671875 34.8125 
L 19.671875 0 
L 9.8125 0 
z
" id="DejaVuSans-70"/>
     </defs>
     <g transform="translate(109 300.009688)scale(0.1 -0.1)">
      <use xlink:href="#DejaVuSans-82"/>
      <use x="69.482422" xlink:href="#DejaVuSans-66"/>
      <use x="138.085938" xlink:href="#DejaVuSans-70"/>
     </g>
    </g>
    <g id="line2d_40">
     <path d="M 81 311.187813 
L 101 311.187813 
" style="fill:none;stroke:#2ca02c;stroke-linecap:square;stroke-width:1.5;"/>
    </g>
    <g id="line2d_41"/>
    <g id="text_19">
     <!-- Matrn-1/2 -->
     <defs>
      <path d="M 9.8125 72.90625 
L 24.515625 72.90625 
L 43.109375 23.296875 
L 61.8125 72.90625 
L 76.515625 72.90625 
L 76.515625 0 
L 66.890625 0 
L 66.890625 64.015625 
L 48.09375 14.015625 
L 38.1875 14.015625 
L 19.390625 64.015625 
L 19.390625 0 
L 9.8125 0 
z
" id="DejaVuSans-77"/>
      <path d="M 56.203125 29.59375 
L 56.203125 25.203125 
L 14.890625 25.203125 
Q 15.484375 15.921875 20.484375 11.0625 
Q 25.484375 6.203125 34.421875 6.203125 
Q 39.59375 6.203125 44.453125 7.46875 
Q 49.3125 8.734375 54.109375 11.28125 
L 54.109375 2.78125 
Q 49.265625 0.734375 44.1875 -0.34375 
Q 39.109375 -1.421875 33.890625 -1.421875 
Q 20.796875 -1.421875 13.15625 6.1875 
Q 5.515625 13.8125 5.515625 26.8125 
Q 5.515625 40.234375 12.765625 48.109375 
Q 20.015625 56 32.328125 56 
Q 43.359375 56 49.78125 48.890625 
Q 56.203125 41.796875 56.203125 29.59375 
z
M 47.21875 32.234375 
Q 47.125 39.59375 43.09375 43.984375 
Q 39.0625 48.390625 32.421875 48.390625 
Q 24.90625 48.390625 20.390625 44.140625 
Q 15.875 39.890625 15.1875 32.171875 
z
M 38.53125 79.984375 
L 48.25 79.984375 
L 32.34375 61.625 
L 24.859375 61.625 
z
" id="DejaVuSans-233"/>
      <path d="M 4.890625 31.390625 
L 31.203125 31.390625 
L 31.203125 23.390625 
L 4.890625 23.390625 
z
" id="DejaVuSans-45"/>
      <path d="M 25.390625 72.90625 
L 33.6875 72.90625 
L 8.296875 -9.28125 
L 0 -9.28125 
z
" id="DejaVuSans-47"/>
     </defs>
     <g transform="translate(109 314.687813)scale(0.1 -0.1)">
      <use xlink:href="#DejaVuSans-77"/>
      <use x="86.279297" xlink:href="#DejaVuSans-97"/>
      <use x="147.558594" xlink:href="#DejaVuSans-116"/>
      <use x="186.767578" xlink:href="#DejaVuSans-233"/>
      <use x="248.291016" xlink:href="#DejaVuSans-114"/>
      <use x="287.654297" xlink:href="#DejaVuSans-110"/>
      <use x="351.033203" xlink:href="#DejaVuSans-45"/>
      <use x="387.117188" xlink:href="#DejaVuSans-49"/>
      <use x="450.740234" xlink:href="#DejaVuSans-47"/>
      <use x="484.431641" xlink:href="#DejaVuSans-50"/>
     </g>
    </g>
    <g id="line2d_42">
     <path d="M 81 325.865938 
L 101 325.865938 
" style="fill:none;stroke:#d62728;stroke-linecap:square;stroke-width:1.5;"/>
    </g>
    <g id="line2d_43"/>
    <g id="text_20">
     <!-- Matrn-3/2 -->
     <g transform="translate(109 329.365938)scale(0.1 -0.1)">
      <use xlink:href="#DejaVuSans-77"/>
      <use x="86.279297" xlink:href="#DejaVuSans-97"/>
      <use x="147.558594" xlink:href="#DejaVuSans-116"/>
      <use x="186.767578" xlink:href="#DejaVuSans-233"/>
      <use x="248.291016" xlink:href="#DejaVuSans-114"/>
      <use x="287.654297" xlink:href="#DejaVuSans-110"/>
      <use x="351.033203" xlink:href="#DejaVuSans-45"/>
      <use x="387.117188" xlink:href="#DejaVuSans-51"/>
      <use x="450.740234" xlink:href="#DejaVuSans-47"/>
      <use x="484.431641" xlink:href="#DejaVuSans-50"/>
     </g>
    </g>
    <g id="line2d_44">
     <path d="M 81 340.544062 
L 101 340.544062 
" style="fill:none;stroke:#9467bd;stroke-linecap:square;stroke-width:1.5;"/>
    </g>
    <g id="line2d_45"/>
    <g id="text_21">
     <!-- Matrn-5/2 -->
     <g transform="translate(109 344.044062)scale(0.1 -0.1)">
      <use xlink:href="#DejaVuSans-77"/>
      <use x="86.279297" xlink:href="#DejaVuSans-97"/>
      <use x="147.558594" xlink:href="#DejaVuSans-116"/>
      <use x="186.767578" xlink:href="#DejaVuSans-233"/>
      <use x="248.291016" xlink:href="#DejaVuSans-114"/>
      <use x="287.654297" xlink:href="#DejaVuSans-110"/>
      <use x="351.033203" xlink:href="#DejaVuSans-45"/>
      <use x="387.117188" xlink:href="#DejaVuSans-53"/>
      <use x="450.740234" xlink:href="#DejaVuSans-47"/>
      <use x="484.431641" xlink:href="#DejaVuSans-50"/>
     </g>
    </g>
    <g id="line2d_46">
     <path d="M 81 355.222188 
L 101 355.222188 
" style="fill:none;stroke:#8c564b;stroke-linecap:square;stroke-width:1.5;"/>
    </g>
    <g id="line2d_47"/>
    <g id="text_22">
     <!-- RQ -->
     <defs>
      <path d="M 39.40625 66.21875 
Q 28.65625 66.21875 22.328125 58.203125 
Q 16.015625 50.203125 16.015625 36.375 
Q 16.015625 22.609375 22.328125 14.59375 
Q 28.65625 6.59375 39.40625 6.59375 
Q 50.140625 6.59375 56.421875 14.59375 
Q 62.703125 22.609375 62.703125 36.375 
Q 62.703125 50.203125 56.421875 58.203125 
Q 50.140625 66.21875 39.40625 66.21875 
z
M 53.21875 1.3125 
L 66.21875 -12.890625 
L 54.296875 -12.890625 
L 43.5 -1.21875 
Q 41.890625 -1.3125 41.03125 -1.359375 
Q 40.1875 -1.421875 39.40625 -1.421875 
Q 24.03125 -1.421875 14.8125 8.859375 
Q 5.609375 19.140625 5.609375 36.375 
Q 5.609375 53.65625 14.8125 63.9375 
Q 24.03125 74.21875 39.40625 74.21875 
Q 54.734375 74.21875 63.90625 63.9375 
Q 73.09375 53.65625 73.09375 36.375 
Q 73.09375 23.6875 67.984375 14.640625 
Q 62.890625 5.609375 53.21875 1.3125 
z
" id="DejaVuSans-81"/>
     </defs>
     <g transform="translate(109 358.722188)scale(0.1 -0.1)">
      <use xlink:href="#DejaVuSans-82"/>
      <use x="69.482422" xlink:href="#DejaVuSans-81"/>
     </g>
    </g>
    <g id="line2d_48">
     <path d="M 81 369.900313 
L 101 369.900313 
" style="fill:none;stroke:#e377c2;stroke-linecap:square;stroke-width:1.5;"/>
    </g>
    <g id="line2d_49"/>
    <g id="text_23">
     <!-- Dot Prod. -->
     <defs>
      <path d="M 19.671875 64.796875 
L 19.671875 8.109375 
L 31.59375 8.109375 
Q 46.6875 8.109375 53.6875 14.9375 
Q 60.6875 21.78125 60.6875 36.53125 
Q 60.6875 51.171875 53.6875 57.984375 
Q 46.6875 64.796875 31.59375 64.796875 
z
M 9.8125 72.90625 
L 30.078125 72.90625 
Q 51.265625 72.90625 61.171875 64.09375 
Q 71.09375 55.28125 71.09375 36.53125 
Q 71.09375 17.671875 61.125 8.828125 
Q 51.171875 0 30.078125 0 
L 9.8125 0 
z
" id="DejaVuSans-68"/>
      <path d="M 19.671875 64.796875 
L 19.671875 37.40625 
L 32.078125 37.40625 
Q 38.96875 37.40625 42.71875 40.96875 
Q 46.484375 44.53125 46.484375 51.125 
Q 46.484375 57.671875 42.71875 61.234375 
Q 38.96875 64.796875 32.078125 64.796875 
z
M 9.8125 72.90625 
L 32.078125 72.90625 
Q 44.34375 72.90625 50.609375 67.359375 
Q 56.890625 61.8125 56.890625 51.125 
Q 56.890625 40.328125 50.609375 34.8125 
Q 44.34375 29.296875 32.078125 29.296875 
L 19.671875 29.296875 
L 19.671875 0 
L 9.8125 0 
z
" id="DejaVuSans-80"/>
      <path d="M 10.6875 12.40625 
L 21 12.40625 
L 21 0 
L 10.6875 0 
z
" id="DejaVuSans-46"/>
     </defs>
     <g transform="translate(109 373.400313)scale(0.1 -0.1)">
      <use xlink:href="#DejaVuSans-68"/>
      <use x="77.001953" xlink:href="#DejaVuSans-111"/>
      <use x="138.183594" xlink:href="#DejaVuSans-116"/>
      <use x="177.392578" xlink:href="#DejaVuSans-32"/>
      <use x="209.179688" xlink:href="#DejaVuSans-80"/>
      <use x="267.732422" xlink:href="#DejaVuSans-114"/>
      <use x="306.595703" xlink:href="#DejaVuSans-111"/>
      <use x="367.777344" xlink:href="#DejaVuSans-100"/>
      <use x="431.253906" xlink:href="#DejaVuSans-46"/>
     </g>
    </g>
   </g>
  </g>
 </g>
 <defs>
  <clipPath id="p1d0791a3ff">
   <rect height="332.64" width="446.4" x="72" y="51.84"/>
  </clipPath>
 </defs>
</svg>
