<?xml version="1.0" encoding="utf-8" standalone="no"?>
<!DOCTYPE svg PUBLIC "-//W3C//DTD SVG 1.1//EN"
  "http://www.w3.org/Graphics/SVG/1.1/DTD/svg11.dtd">
<!-- Created with matplotlib (https://matplotlib.org/) -->
<svg height="432pt" version="1.1" viewBox="0 0 576 432" width="576pt" xmlns="http://www.w3.org/2000/svg" xmlns:xlink="http://www.w3.org/1999/xlink">
 <defs>
  <style type="text/css">
*{stroke-linecap:butt;stroke-linejoin:round;}
  </style>
 </defs>
 <g id="figure_1">
  <g id="patch_1">
   <path d="M 0 432 
L 576 432 
L 576 0 
L 0 0 
z
" style="fill:#ffffff;"/>
  </g>
  <g id="axes_1">
   <g id="patch_2">
    <path d="M 72 384.48 
L 518.4 384.48 
L 518.4 51.84 
L 72 51.84 
z
" style="fill:#ffffff;"/>
   </g>
   <g id="PolyCollection_1"/>
   <g id="PolyCollection_2">
    <path clip-path="url(#p3e71e3efaf)" d="M 72 100.74293 
L 72 80.951604 
L 80.928 83.670826 
L 89.856 88.818622 
L 98.784 92.566309 
L 107.712 96.64043 
L 116.64 105.934363 
L 125.568 114.330648 
L 134.496 116.94669 
L 143.424 121.539208 
L 152.352 128.376685 
L 161.28 124.612951 
L 170.208 112.122119 
L 179.136 105.366038 
L 188.064 82.819448 
L 196.992 92.262455 
L 205.92 68.126092 
L 214.848 58.2961 
L 223.776 57.326509 
L 232.704 57.210099 
L 241.632 57.065287 
L 250.56 58.320818 
L 259.488 56.326875 
L 268.416 56.528912 
L 277.344 58.001287 
L 286.272 57.543871 
L 295.2 63.99003 
L 304.128 63.59191 
L 313.056 63.384601 
L 321.984 62.496441 
L 330.912 65.830861 
L 339.84 64.82057 
L 348.768 64.065051 
L 357.696 62.605987 
L 366.624 56.403777 
L 375.552 59.291385 
L 384.48 55.318461 
L 393.408 60.92358 
L 402.336 60.991623 
L 411.264 76.031549 
L 420.192 76.042304 
L 429.12 63.757761 
L 438.048 76.063846 
L 446.976 76.074634 
L 455.904 76.085434 
L 464.832 74.712442 
L 473.76 76.107066 
L 482.688 76.1179 
L 491.616 63.35482 
L 500.544 56.882073 
L 509.472 62.238824 
L 518.4 58.217311 
L 518.4 103.309595 
L 518.4 103.309595 
L 509.472 94.699328 
L 500.544 108.342121 
L 491.616 93.160644 
L 482.688 76.1179 
L 473.76 76.107066 
L 464.832 77.941314 
L 455.904 76.085434 
L 446.976 76.074634 
L 438.048 76.063846 
L 429.12 92.446814 
L 420.192 76.042304 
L 411.264 76.031549 
L 402.336 98.756931 
L 393.408 96.1254 
L 384.48 112.29367 
L 375.552 101.25084 
L 366.624 111.887888 
L 357.696 93.782284 
L 348.768 91.811953 
L 339.84 90.779708 
L 330.912 89.407793 
L 321.984 96.150884 
L 313.056 92.61983 
L 304.128 92.318634 
L 295.2 91.763049 
L 286.272 106.906479 
L 277.344 102.837762 
L 268.416 117.781487 
L 259.488 117.929504 
L 250.56 144.282566 
L 241.632 132.42318 
L 232.704 116.193622 
L 223.776 119.577792 
L 214.848 149.226682 
L 205.92 165.221087 
L 196.992 179.809712 
L 188.064 166.725856 
L 179.136 168.566094 
L 170.208 157.486667 
L 161.28 146.767896 
L 152.352 141.170041 
L 143.424 136.843155 
L 134.496 130.457319 
L 125.568 128.866894 
L 116.64 122.404947 
L 107.712 114.142302 
L 98.784 114.650133 
L 89.856 111.963818 
L 80.928 101.472347 
L 72 100.74293 
z
" style="fill:#ff7f0e;fill-opacity:0.3;"/>
   </g>
   <g id="PolyCollection_3">
    <path clip-path="url(#p3e71e3efaf)" d="M 72 85.99365 
L 72 77.66461 
L 80.928 82.786066 
L 89.856 84.655301 
L 98.784 86.781651 
L 107.712 88.841642 
L 116.64 90.409996 
L 125.568 92.156336 
L 134.496 93.026101 
L 143.424 93.877807 
L 152.352 94.850946 
L 161.28 95.84844 
L 170.208 96.788425 
L 179.136 97.71409 
L 188.064 98.670509 
L 196.992 99.55896 
L 205.92 100.234519 
L 214.848 100.78607 
L 223.776 101.322619 
L 232.704 101.831021 
L 241.632 102.377681 
L 250.56 102.952124 
L 259.488 103.542901 
L 268.416 104.143701 
L 277.344 104.750836 
L 286.272 105.324436 
L 295.2 105.897775 
L 304.128 106.456223 
L 313.056 107.032249 
L 321.984 107.597597 
L 330.912 108.139882 
L 339.84 108.661035 
L 348.768 109.127492 
L 357.696 109.55829 
L 366.624 109.963219 
L 375.552 110.346211 
L 384.48 110.720505 
L 393.408 111.077857 
L 402.336 111.425187 
L 411.264 111.755785 
L 420.192 112.092863 
L 429.12 112.430289 
L 438.048 112.773524 
L 446.976 113.117619 
L 455.904 113.459636 
L 464.832 113.806651 
L 473.76 114.15853 
L 482.688 114.509669 
L 491.616 114.864293 
L 500.544 115.220693 
L 509.472 115.579814 
L 518.4 115.925586 
L 518.4 116.296883 
L 518.4 116.296883 
L 509.472 115.944726 
L 500.544 115.573676 
L 491.616 115.207523 
L 482.688 114.849319 
L 473.76 114.491286 
L 464.832 114.140522 
L 455.904 113.795642 
L 446.976 113.44987 
L 438.048 113.104906 
L 429.12 112.753306 
L 420.192 112.407232 
L 411.264 112.064184 
L 402.336 111.724279 
L 393.408 111.332983 
L 384.48 110.959585 
L 375.552 110.611135 
L 366.624 110.267505 
L 357.696 109.829924 
L 348.768 109.452134 
L 339.84 108.961923 
L 330.912 108.461861 
L 321.984 107.885345 
L 313.056 107.363687 
L 304.128 106.854769 
L 295.2 106.389377 
L 286.272 105.747161 
L 277.344 105.159812 
L 268.416 104.537495 
L 259.488 103.952873 
L 250.56 103.369262 
L 241.632 102.811658 
L 232.704 102.233092 
L 223.776 101.728709 
L 214.848 101.127006 
L 205.92 100.560156 
L 196.992 99.90222 
L 188.064 99.099776 
L 179.136 98.211038 
L 170.208 97.468994 
L 161.28 96.501597 
L 152.352 95.481766 
L 143.424 94.564849 
L 134.496 93.629304 
L 125.568 92.85958 
L 116.64 92.10606 
L 107.712 91.310849 
L 98.784 89.099083 
L 89.856 88.36428 
L 80.928 87.366593 
L 72 85.99365 
z
" style="fill:#2ca02c;fill-opacity:0.3;"/>
   </g>
   <g id="PolyCollection_4">
    <path clip-path="url(#p3e71e3efaf)" d="M 72 93.895819 
L 72 79.240689 
L 80.928 83.097175 
L 89.856 87.426284 
L 98.784 89.141668 
L 107.712 93.967281 
L 116.64 98.127841 
L 125.568 102.596568 
L 134.496 105.318097 
L 143.424 107.049213 
L 152.352 109.169546 
L 161.28 111.634739 
L 170.208 114.311795 
L 179.136 117.18662 
L 188.064 120.222426 
L 196.992 123.200968 
L 205.92 125.342979 
L 214.848 127.042819 
L 223.776 128.544584 
L 232.704 129.985488 
L 241.632 131.401082 
L 250.56 132.851593 
L 259.488 134.275542 
L 268.416 135.731603 
L 277.344 137.245628 
L 286.272 138.809483 
L 295.2 140.433926 
L 304.128 142.290244 
L 313.056 144.166732 
L 321.984 145.963598 
L 330.912 147.579358 
L 339.84 149.11693 
L 348.768 150.451873 
L 357.696 151.700909 
L 366.624 152.798386 
L 375.552 153.793908 
L 384.48 154.689203 
L 393.408 155.550604 
L 402.336 156.386676 
L 411.264 157.193763 
L 420.192 157.993215 
L 429.12 158.778654 
L 438.048 159.554661 
L 446.976 160.338906 
L 455.904 161.113993 
L 464.832 161.888578 
L 473.76 162.646108 
L 482.688 163.425628 
L 491.616 164.237918 
L 500.544 165.029955 
L 509.472 165.831968 
L 518.4 166.660115 
L 518.4 168.446605 
L 518.4 168.446605 
L 509.472 167.560462 
L 500.544 166.700955 
L 491.616 165.847984 
L 482.688 164.978801 
L 473.76 164.138245 
L 464.832 163.254244 
L 455.904 162.355718 
L 446.976 161.447849 
L 438.048 160.552406 
L 429.12 159.676037 
L 420.192 158.82428 
L 411.264 157.999325 
L 402.336 157.166795 
L 393.408 156.324992 
L 384.48 155.512312 
L 375.552 154.658385 
L 366.624 153.790097 
L 357.696 152.873736 
L 348.768 151.99148 
L 339.84 150.820008 
L 330.912 149.384484 
L 321.984 147.46699 
L 313.056 145.871655 
L 304.128 144.241795 
L 295.2 142.788102 
L 286.272 140.876235 
L 277.344 139.120737 
L 268.416 137.496246 
L 259.488 135.904325 
L 250.56 134.112929 
L 241.632 132.441434 
L 232.704 130.864889 
L 223.776 129.376648 
L 214.848 127.839174 
L 205.92 126.434718 
L 196.992 124.942298 
L 188.064 122.795418 
L 179.136 120.137943 
L 170.208 117.620316 
L 161.28 114.547698 
L 152.352 113.051589 
L 143.424 110.559674 
L 134.496 108.471151 
L 125.568 106.531988 
L 116.64 105.001514 
L 107.712 102.614432 
L 98.784 100.875848 
L 89.856 99.149986 
L 80.928 95.008056 
L 72 93.895819 
z
" style="fill:#d62728;fill-opacity:0.3;"/>
   </g>
   <g id="PolyCollection_5">
    <path clip-path="url(#p3e71e3efaf)" d="M 72 96.714986 
L 72 79.367017 
L 80.928 83.090303 
L 89.856 87.70096 
L 98.784 89.83932 
L 107.712 93.851605 
L 116.64 101.301592 
L 125.568 106.471242 
L 134.496 109.444169 
L 143.424 111.902566 
L 152.352 115.152551 
L 161.28 117.433191 
L 170.208 121.293536 
L 179.136 126.095923 
L 188.064 130.618642 
L 196.992 135.032389 
L 205.92 138.147983 
L 214.848 140.627813 
L 223.776 142.945662 
L 232.704 145.232222 
L 241.632 147.494051 
L 250.56 149.830837 
L 259.488 152.004976 
L 268.416 154.28442 
L 277.344 156.761786 
L 286.272 159.178819 
L 295.2 161.621118 
L 304.128 164.283363 
L 313.056 167.080633 
L 321.984 169.937248 
L 330.912 172.466632 
L 339.84 174.885484 
L 348.768 176.913725 
L 357.696 178.796796 
L 366.624 180.551817 
L 375.552 182.085485 
L 384.48 183.525052 
L 393.408 184.870846 
L 402.336 186.164375 
L 411.264 187.533411 
L 420.192 188.885078 
L 429.12 190.188263 
L 438.048 191.506429 
L 446.976 192.796758 
L 455.904 194.041886 
L 464.832 195.323795 
L 473.76 196.537005 
L 482.688 197.788285 
L 491.616 198.995473 
L 500.544 200.260518 
L 509.472 201.478345 
L 518.4 202.72104 
L 518.4 204.827094 
L 518.4 204.827094 
L 509.472 203.664288 
L 500.544 202.477476 
L 491.616 201.293432 
L 482.688 200.056414 
L 473.76 198.786171 
L 464.832 197.438708 
L 455.904 196.08158 
L 446.976 194.593289 
L 438.048 193.240846 
L 429.12 191.836221 
L 420.192 190.422097 
L 411.264 189.046664 
L 402.336 187.719466 
L 393.408 186.355301 
L 384.48 184.992247 
L 375.552 183.602522 
L 366.624 182.264871 
L 357.696 180.889742 
L 348.768 179.488593 
L 339.84 177.680885 
L 330.912 175.38643 
L 321.984 172.298596 
L 313.056 169.699437 
L 304.128 166.71807 
L 295.2 164.143165 
L 286.272 161.543596 
L 277.344 159.263497 
L 268.416 157.005225 
L 259.488 154.581151 
L 250.56 151.976977 
L 241.632 149.356698 
L 232.704 146.753905 
L 223.776 144.240429 
L 214.848 141.886691 
L 205.92 140.0097 
L 196.992 137.748171 
L 188.064 134.501802 
L 179.136 130.065187 
L 170.208 126.036759 
L 161.28 121.968246 
L 152.352 121.299562 
L 143.424 117.35567 
L 134.496 114.903483 
L 125.568 112.922992 
L 116.64 110.817848 
L 107.712 106.314713 
L 98.784 104.105223 
L 89.856 103.350616 
L 80.928 97.447784 
L 72 96.714986 
z
" style="fill:#9467bd;fill-opacity:0.3;"/>
   </g>
   <g id="PolyCollection_6">
    <path clip-path="url(#p3e71e3efaf)" d="M 72 93.667839 
L 72 78.547573 
L 80.928 82.049603 
L 89.856 82.879052 
L 98.784 85.404628 
L 107.712 86.166438 
L 116.64 94.075642 
L 125.568 98.55794 
L 134.496 102.6165 
L 143.424 106.275093 
L 152.352 109.889985 
L 161.28 114.797447 
L 170.208 119.922713 
L 179.136 126.897822 
L 188.064 133.924356 
L 196.992 140.417052 
L 205.92 146.111453 
L 214.848 151.033047 
L 223.776 156.320047 
L 232.704 162.016019 
L 241.632 167.526296 
L 250.56 173.912668 
L 259.488 178.162569 
L 268.416 183.731758 
L 277.344 189.674978 
L 286.272 194.152002 
L 295.2 203.891526 
L 304.128 210.041384 
L 313.056 216.636066 
L 321.984 223.234549 
L 330.912 229.308454 
L 339.84 235.383693 
L 348.768 241.924785 
L 357.696 247.99738 
L 366.624 253.148233 
L 375.552 253.59876 
L 384.48 259.4543 
L 393.408 262.576767 
L 402.336 259.675799 
L 411.264 246.677379 
L 420.192 233.28999 
L 429.12 224.144447 
L 438.048 214.70483 
L 446.976 214.908132 
L 455.904 213.053154 
L 455.904 271.275134 
L 455.904 271.275134 
L 446.976 276.952093 
L 438.048 278.267281 
L 429.12 278.333614 
L 420.192 279.282432 
L 411.264 287.028386 
L 402.336 287.437341 
L 393.408 277.760133 
L 384.48 273.994177 
L 375.552 269.609636 
L 366.624 262.511375 
L 357.696 258.840087 
L 348.768 251.234922 
L 339.84 243.78876 
L 330.912 235.831613 
L 321.984 230.802576 
L 313.056 223.444461 
L 304.128 216.920011 
L 295.2 212.014682 
L 286.272 206.164915 
L 277.344 199.507722 
L 268.416 195.325133 
L 259.488 189.492426 
L 250.56 181.734627 
L 241.632 175.997159 
L 232.704 169.796379 
L 223.776 163.9974 
L 214.848 158.180714 
L 205.92 152.22698 
L 196.992 146.014013 
L 188.064 144.988178 
L 179.136 138.013097 
L 170.208 131.991523 
L 161.28 125.564093 
L 152.352 122.519269 
L 143.424 119.416644 
L 134.496 115.386327 
L 125.568 110.869464 
L 116.64 111.758696 
L 107.712 111.476069 
L 98.784 100.448545 
L 89.856 100.854622 
L 80.928 95.477229 
L 72 93.667839 
z
" style="fill:#8c564b;fill-opacity:0.3;"/>
    <path clip-path="url(#p3e71e3efaf)" d="M 473.76 264.85649 
L 473.76 213.805846 
L 473.76 264.85649 
L 473.76 264.85649 
z
" style="fill:#8c564b;fill-opacity:0.3;"/>
    <path clip-path="url(#p3e71e3efaf)" d="M 500.544 256.327996 
L 500.544 215.163904 
L 500.544 256.327996 
L 500.544 256.327996 
z
" style="fill:#8c564b;fill-opacity:0.3;"/>
   </g>
   <g id="PolyCollection_7">
    <path clip-path="url(#p3e71e3efaf)" d="M 72 241.535086 
L 72 116.077024 
L 80.928 149.3975 
L 80.928 235.617715 
L 80.928 235.617715 
L 72 241.535086 
z
" style="fill:#e377c2;fill-opacity:0.3;"/>
    <path clip-path="url(#p3e71e3efaf)" d="M 98.784 211.356452 
L 98.784 148.990671 
L 98.784 211.356452 
L 98.784 211.356452 
z
" style="fill:#e377c2;fill-opacity:0.3;"/>
    <path clip-path="url(#p3e71e3efaf)" d="M 134.496 204.624997 
L 134.496 150.583771 
L 143.424 146.792553 
L 143.424 206.594545 
L 143.424 206.594545 
L 134.496 204.624997 
z
" style="fill:#e377c2;fill-opacity:0.3;"/>
    <path clip-path="url(#p3e71e3efaf)" d="M 179.136 242.285442 
L 179.136 125.09171 
L 179.136 242.285442 
L 179.136 242.285442 
z
" style="fill:#e377c2;fill-opacity:0.3;"/>
    <path clip-path="url(#p3e71e3efaf)" d="M 205.92 212.465415 
L 205.92 137.9835 
L 205.92 212.465415 
L 205.92 212.465415 
z
" style="fill:#e377c2;fill-opacity:0.3;"/>
    <path clip-path="url(#p3e71e3efaf)" d="M 232.704 210.113612 
L 232.704 133.741496 
L 232.704 210.113612 
L 232.704 210.113612 
z
" style="fill:#e377c2;fill-opacity:0.3;"/>
    <path clip-path="url(#p3e71e3efaf)" d="M 330.912 193.445386 
L 330.912 132.996262 
L 330.912 193.445386 
L 330.912 193.445386 
z
" style="fill:#e377c2;fill-opacity:0.3;"/>
   </g>
   <g id="matplotlib.axis_1">
    <g id="xtick_1">
     <g id="line2d_1">
      <path clip-path="url(#p3e71e3efaf)" d="M 72 384.48 
L 72 51.84 
" style="fill:none;stroke:#b0b0b0;stroke-linecap:square;stroke-width:0.8;"/>
     </g>
     <g id="line2d_2">
      <defs>
       <path d="M 0 0 
L 0 3.5 
" id="m3d2fc30f02" style="stroke:#000000;stroke-width:0.8;"/>
      </defs>
      <g>
       <use style="stroke:#000000;stroke-width:0.8;" x="72" xlink:href="#m3d2fc30f02" y="384.48"/>
      </g>
     </g>
     <g id="text_1">
      <!-- 0 -->
      <defs>
       <path d="M 31.78125 66.40625 
Q 24.171875 66.40625 20.328125 58.90625 
Q 16.5 51.421875 16.5 36.375 
Q 16.5 21.390625 20.328125 13.890625 
Q 24.171875 6.390625 31.78125 6.390625 
Q 39.453125 6.390625 43.28125 13.890625 
Q 47.125 21.390625 47.125 36.375 
Q 47.125 51.421875 43.28125 58.90625 
Q 39.453125 66.40625 31.78125 66.40625 
z
M 31.78125 74.21875 
Q 44.046875 74.21875 50.515625 64.515625 
Q 56.984375 54.828125 56.984375 36.375 
Q 56.984375 17.96875 50.515625 8.265625 
Q 44.046875 -1.421875 31.78125 -1.421875 
Q 19.53125 -1.421875 13.0625 8.265625 
Q 6.59375 17.96875 6.59375 36.375 
Q 6.59375 54.828125 13.0625 64.515625 
Q 19.53125 74.21875 31.78125 74.21875 
z
" id="DejaVuSans-48"/>
      </defs>
      <g transform="translate(68.81875 399.078438)scale(0.1 -0.1)">
       <use xlink:href="#DejaVuSans-48"/>
      </g>
     </g>
    </g>
    <g id="xtick_2">
     <g id="line2d_3">
      <path clip-path="url(#p3e71e3efaf)" d="M 161.28 384.48 
L 161.28 51.84 
" style="fill:none;stroke:#b0b0b0;stroke-linecap:square;stroke-width:0.8;"/>
     </g>
     <g id="line2d_4">
      <g>
       <use style="stroke:#000000;stroke-width:0.8;" x="161.28" xlink:href="#m3d2fc30f02" y="384.48"/>
      </g>
     </g>
     <g id="text_2">
      <!-- 10 -->
      <defs>
       <path d="M 12.40625 8.296875 
L 28.515625 8.296875 
L 28.515625 63.921875 
L 10.984375 60.40625 
L 10.984375 69.390625 
L 28.421875 72.90625 
L 38.28125 72.90625 
L 38.28125 8.296875 
L 54.390625 8.296875 
L 54.390625 0 
L 12.40625 0 
z
" id="DejaVuSans-49"/>
      </defs>
      <g transform="translate(154.9175 399.078438)scale(0.1 -0.1)">
       <use xlink:href="#DejaVuSans-49"/>
       <use x="63.623047" xlink:href="#DejaVuSans-48"/>
      </g>
     </g>
    </g>
    <g id="xtick_3">
     <g id="line2d_5">
      <path clip-path="url(#p3e71e3efaf)" d="M 250.56 384.48 
L 250.56 51.84 
" style="fill:none;stroke:#b0b0b0;stroke-linecap:square;stroke-width:0.8;"/>
     </g>
     <g id="line2d_6">
      <g>
       <use style="stroke:#000000;stroke-width:0.8;" x="250.56" xlink:href="#m3d2fc30f02" y="384.48"/>
      </g>
     </g>
     <g id="text_3">
      <!-- 20 -->
      <defs>
       <path d="M 19.1875 8.296875 
L 53.609375 8.296875 
L 53.609375 0 
L 7.328125 0 
L 7.328125 8.296875 
Q 12.9375 14.109375 22.625 23.890625 
Q 32.328125 33.6875 34.8125 36.53125 
Q 39.546875 41.84375 41.421875 45.53125 
Q 43.3125 49.21875 43.3125 52.78125 
Q 43.3125 58.59375 39.234375 62.25 
Q 35.15625 65.921875 28.609375 65.921875 
Q 23.96875 65.921875 18.8125 64.3125 
Q 13.671875 62.703125 7.8125 59.421875 
L 7.8125 69.390625 
Q 13.765625 71.78125 18.9375 73 
Q 24.125 74.21875 28.421875 74.21875 
Q 39.75 74.21875 46.484375 68.546875 
Q 53.21875 62.890625 53.21875 53.421875 
Q 53.21875 48.921875 51.53125 44.890625 
Q 49.859375 40.875 45.40625 35.40625 
Q 44.1875 33.984375 37.640625 27.21875 
Q 31.109375 20.453125 19.1875 8.296875 
z
" id="DejaVuSans-50"/>
      </defs>
      <g transform="translate(244.1975 399.078438)scale(0.1 -0.1)">
       <use xlink:href="#DejaVuSans-50"/>
       <use x="63.623047" xlink:href="#DejaVuSans-48"/>
      </g>
     </g>
    </g>
    <g id="xtick_4">
     <g id="line2d_7">
      <path clip-path="url(#p3e71e3efaf)" d="M 339.84 384.48 
L 339.84 51.84 
" style="fill:none;stroke:#b0b0b0;stroke-linecap:square;stroke-width:0.8;"/>
     </g>
     <g id="line2d_8">
      <g>
       <use style="stroke:#000000;stroke-width:0.8;" x="339.84" xlink:href="#m3d2fc30f02" y="384.48"/>
      </g>
     </g>
     <g id="text_4">
      <!-- 30 -->
      <defs>
       <path d="M 40.578125 39.3125 
Q 47.65625 37.796875 51.625 33 
Q 55.609375 28.21875 55.609375 21.1875 
Q 55.609375 10.40625 48.1875 4.484375 
Q 40.765625 -1.421875 27.09375 -1.421875 
Q 22.515625 -1.421875 17.65625 -0.515625 
Q 12.796875 0.390625 7.625 2.203125 
L 7.625 11.71875 
Q 11.71875 9.328125 16.59375 8.109375 
Q 21.484375 6.890625 26.8125 6.890625 
Q 36.078125 6.890625 40.9375 10.546875 
Q 45.796875 14.203125 45.796875 21.1875 
Q 45.796875 27.640625 41.28125 31.265625 
Q 36.765625 34.90625 28.71875 34.90625 
L 20.21875 34.90625 
L 20.21875 43.015625 
L 29.109375 43.015625 
Q 36.375 43.015625 40.234375 45.921875 
Q 44.09375 48.828125 44.09375 54.296875 
Q 44.09375 59.90625 40.109375 62.90625 
Q 36.140625 65.921875 28.71875 65.921875 
Q 24.65625 65.921875 20.015625 65.03125 
Q 15.375 64.15625 9.8125 62.3125 
L 9.8125 71.09375 
Q 15.4375 72.65625 20.34375 73.4375 
Q 25.25 74.21875 29.59375 74.21875 
Q 40.828125 74.21875 47.359375 69.109375 
Q 53.90625 64.015625 53.90625 55.328125 
Q 53.90625 49.265625 50.4375 45.09375 
Q 46.96875 40.921875 40.578125 39.3125 
z
" id="DejaVuSans-51"/>
      </defs>
      <g transform="translate(333.4775 399.078438)scale(0.1 -0.1)">
       <use xlink:href="#DejaVuSans-51"/>
       <use x="63.623047" xlink:href="#DejaVuSans-48"/>
      </g>
     </g>
    </g>
    <g id="xtick_5">
     <g id="line2d_9">
      <path clip-path="url(#p3e71e3efaf)" d="M 429.12 384.48 
L 429.12 51.84 
" style="fill:none;stroke:#b0b0b0;stroke-linecap:square;stroke-width:0.8;"/>
     </g>
     <g id="line2d_10">
      <g>
       <use style="stroke:#000000;stroke-width:0.8;" x="429.12" xlink:href="#m3d2fc30f02" y="384.48"/>
      </g>
     </g>
     <g id="text_5">
      <!-- 40 -->
      <defs>
       <path d="M 37.796875 64.3125 
L 12.890625 25.390625 
L 37.796875 25.390625 
z
M 35.203125 72.90625 
L 47.609375 72.90625 
L 47.609375 25.390625 
L 58.015625 25.390625 
L 58.015625 17.1875 
L 47.609375 17.1875 
L 47.609375 0 
L 37.796875 0 
L 37.796875 17.1875 
L 4.890625 17.1875 
L 4.890625 26.703125 
z
" id="DejaVuSans-52"/>
      </defs>
      <g transform="translate(422.7575 399.078438)scale(0.1 -0.1)">
       <use xlink:href="#DejaVuSans-52"/>
       <use x="63.623047" xlink:href="#DejaVuSans-48"/>
      </g>
     </g>
    </g>
    <g id="xtick_6">
     <g id="line2d_11">
      <path clip-path="url(#p3e71e3efaf)" d="M 518.4 384.48 
L 518.4 51.84 
" style="fill:none;stroke:#b0b0b0;stroke-linecap:square;stroke-width:0.8;"/>
     </g>
     <g id="line2d_12">
      <g>
       <use style="stroke:#000000;stroke-width:0.8;" x="518.4" xlink:href="#m3d2fc30f02" y="384.48"/>
      </g>
     </g>
     <g id="text_6">
      <!-- 50 -->
      <defs>
       <path d="M 10.796875 72.90625 
L 49.515625 72.90625 
L 49.515625 64.59375 
L 19.828125 64.59375 
L 19.828125 46.734375 
Q 21.96875 47.46875 24.109375 47.828125 
Q 26.265625 48.1875 28.421875 48.1875 
Q 40.625 48.1875 47.75 41.5 
Q 54.890625 34.8125 54.890625 23.390625 
Q 54.890625 11.625 47.5625 5.09375 
Q 40.234375 -1.421875 26.90625 -1.421875 
Q 22.3125 -1.421875 17.546875 -0.640625 
Q 12.796875 0.140625 7.71875 1.703125 
L 7.71875 11.625 
Q 12.109375 9.234375 16.796875 8.0625 
Q 21.484375 6.890625 26.703125 6.890625 
Q 35.15625 6.890625 40.078125 11.328125 
Q 45.015625 15.765625 45.015625 23.390625 
Q 45.015625 31 40.078125 35.4375 
Q 35.15625 39.890625 26.703125 39.890625 
Q 22.75 39.890625 18.8125 39.015625 
Q 14.890625 38.140625 10.796875 36.28125 
z
" id="DejaVuSans-53"/>
      </defs>
      <g transform="translate(512.0375 399.078438)scale(0.1 -0.1)">
       <use xlink:href="#DejaVuSans-53"/>
       <use x="63.623047" xlink:href="#DejaVuSans-48"/>
      </g>
     </g>
    </g>
    <g id="text_7">
     <!-- Iteration -->
     <defs>
      <path d="M 9.8125 72.90625 
L 19.671875 72.90625 
L 19.671875 0 
L 9.8125 0 
z
" id="DejaVuSans-73"/>
      <path d="M 18.3125 70.21875 
L 18.3125 54.6875 
L 36.8125 54.6875 
L 36.8125 47.703125 
L 18.3125 47.703125 
L 18.3125 18.015625 
Q 18.3125 11.328125 20.140625 9.421875 
Q 21.96875 7.515625 27.59375 7.515625 
L 36.8125 7.515625 
L 36.8125 0 
L 27.59375 0 
Q 17.1875 0 13.234375 3.875 
Q 9.28125 7.765625 9.28125 18.015625 
L 9.28125 47.703125 
L 2.6875 47.703125 
L 2.6875 54.6875 
L 9.28125 54.6875 
L 9.28125 70.21875 
z
" id="DejaVuSans-116"/>
      <path d="M 56.203125 29.59375 
L 56.203125 25.203125 
L 14.890625 25.203125 
Q 15.484375 15.921875 20.484375 11.0625 
Q 25.484375 6.203125 34.421875 6.203125 
Q 39.59375 6.203125 44.453125 7.46875 
Q 49.3125 8.734375 54.109375 11.28125 
L 54.109375 2.78125 
Q 49.265625 0.734375 44.1875 -0.34375 
Q 39.109375 -1.421875 33.890625 -1.421875 
Q 20.796875 -1.421875 13.15625 6.1875 
Q 5.515625 13.8125 5.515625 26.8125 
Q 5.515625 40.234375 12.765625 48.109375 
Q 20.015625 56 32.328125 56 
Q 43.359375 56 49.78125 48.890625 
Q 56.203125 41.796875 56.203125 29.59375 
z
M 47.21875 32.234375 
Q 47.125 39.59375 43.09375 43.984375 
Q 39.0625 48.390625 32.421875 48.390625 
Q 24.90625 48.390625 20.390625 44.140625 
Q 15.875 39.890625 15.1875 32.171875 
z
" id="DejaVuSans-101"/>
      <path d="M 41.109375 46.296875 
Q 39.59375 47.171875 37.8125 47.578125 
Q 36.03125 48 33.890625 48 
Q 26.265625 48 22.1875 43.046875 
Q 18.109375 38.09375 18.109375 28.8125 
L 18.109375 0 
L 9.078125 0 
L 9.078125 54.6875 
L 18.109375 54.6875 
L 18.109375 46.1875 
Q 20.953125 51.171875 25.484375 53.578125 
Q 30.03125 56 36.53125 56 
Q 37.453125 56 38.578125 55.875 
Q 39.703125 55.765625 41.0625 55.515625 
z
" id="DejaVuSans-114"/>
      <path d="M 34.28125 27.484375 
Q 23.390625 27.484375 19.1875 25 
Q 14.984375 22.515625 14.984375 16.5 
Q 14.984375 11.71875 18.140625 8.90625 
Q 21.296875 6.109375 26.703125 6.109375 
Q 34.1875 6.109375 38.703125 11.40625 
Q 43.21875 16.703125 43.21875 25.484375 
L 43.21875 27.484375 
z
M 52.203125 31.203125 
L 52.203125 0 
L 43.21875 0 
L 43.21875 8.296875 
Q 40.140625 3.328125 35.546875 0.953125 
Q 30.953125 -1.421875 24.3125 -1.421875 
Q 15.921875 -1.421875 10.953125 3.296875 
Q 6 8.015625 6 15.921875 
Q 6 25.140625 12.171875 29.828125 
Q 18.359375 34.515625 30.609375 34.515625 
L 43.21875 34.515625 
L 43.21875 35.40625 
Q 43.21875 41.609375 39.140625 45 
Q 35.0625 48.390625 27.6875 48.390625 
Q 23 48.390625 18.546875 47.265625 
Q 14.109375 46.140625 10.015625 43.890625 
L 10.015625 52.203125 
Q 14.9375 54.109375 19.578125 55.046875 
Q 24.21875 56 28.609375 56 
Q 40.484375 56 46.34375 49.84375 
Q 52.203125 43.703125 52.203125 31.203125 
z
" id="DejaVuSans-97"/>
      <path d="M 9.421875 54.6875 
L 18.40625 54.6875 
L 18.40625 0 
L 9.421875 0 
z
M 9.421875 75.984375 
L 18.40625 75.984375 
L 18.40625 64.59375 
L 9.421875 64.59375 
z
" id="DejaVuSans-105"/>
      <path d="M 30.609375 48.390625 
Q 23.390625 48.390625 19.1875 42.75 
Q 14.984375 37.109375 14.984375 27.296875 
Q 14.984375 17.484375 19.15625 11.84375 
Q 23.34375 6.203125 30.609375 6.203125 
Q 37.796875 6.203125 41.984375 11.859375 
Q 46.1875 17.53125 46.1875 27.296875 
Q 46.1875 37.015625 41.984375 42.703125 
Q 37.796875 48.390625 30.609375 48.390625 
z
M 30.609375 56 
Q 42.328125 56 49.015625 48.375 
Q 55.71875 40.765625 55.71875 27.296875 
Q 55.71875 13.875 49.015625 6.21875 
Q 42.328125 -1.421875 30.609375 -1.421875 
Q 18.84375 -1.421875 12.171875 6.21875 
Q 5.515625 13.875 5.515625 27.296875 
Q 5.515625 40.765625 12.171875 48.375 
Q 18.84375 56 30.609375 56 
z
" id="DejaVuSans-111"/>
      <path d="M 54.890625 33.015625 
L 54.890625 0 
L 45.90625 0 
L 45.90625 32.71875 
Q 45.90625 40.484375 42.875 44.328125 
Q 39.84375 48.1875 33.796875 48.1875 
Q 26.515625 48.1875 22.3125 43.546875 
Q 18.109375 38.921875 18.109375 30.90625 
L 18.109375 0 
L 9.078125 0 
L 9.078125 54.6875 
L 18.109375 54.6875 
L 18.109375 46.1875 
Q 21.34375 51.125 25.703125 53.5625 
Q 30.078125 56 35.796875 56 
Q 45.21875 56 50.046875 50.171875 
Q 54.890625 44.34375 54.890625 33.015625 
z
" id="DejaVuSans-110"/>
     </defs>
     <g transform="translate(273.991406 412.756563)scale(0.1 -0.1)">
      <use xlink:href="#DejaVuSans-73"/>
      <use x="29.492188" xlink:href="#DejaVuSans-116"/>
      <use x="68.701172" xlink:href="#DejaVuSans-101"/>
      <use x="130.224609" xlink:href="#DejaVuSans-114"/>
      <use x="171.337891" xlink:href="#DejaVuSans-97"/>
      <use x="232.617188" xlink:href="#DejaVuSans-116"/>
      <use x="271.826172" xlink:href="#DejaVuSans-105"/>
      <use x="299.609375" xlink:href="#DejaVuSans-111"/>
      <use x="360.791016" xlink:href="#DejaVuSans-110"/>
     </g>
    </g>
   </g>
   <g id="matplotlib.axis_2">
    <g id="ytick_1">
     <g id="line2d_13">
      <path clip-path="url(#p3e71e3efaf)" d="M 72 384.48 
L 518.4 384.48 
" style="fill:none;stroke:#b0b0b0;stroke-linecap:square;stroke-width:0.8;"/>
     </g>
     <g id="line2d_14">
      <defs>
       <path d="M 0 0 
L -3.5 0 
" id="me6ab66c93f" style="stroke:#000000;stroke-width:0.8;"/>
      </defs>
      <g>
       <use style="stroke:#000000;stroke-width:0.8;" x="72" xlink:href="#me6ab66c93f" y="384.48"/>
      </g>
     </g>
     <g id="text_8">
      <!-- $\mathdefault{10^{-12}}$ -->
      <defs>
       <path d="M 10.59375 35.5 
L 73.1875 35.5 
L 73.1875 27.203125 
L 10.59375 27.203125 
z
" id="DejaVuSans-8722"/>
      </defs>
      <g transform="translate(37.1 388.279219)scale(0.1 -0.1)">
       <use transform="translate(0 0.765625)" xlink:href="#DejaVuSans-49"/>
       <use transform="translate(63.623047 0.765625)" xlink:href="#DejaVuSans-48"/>
       <use transform="translate(128.203125 39.046875)scale(0.7)" xlink:href="#DejaVuSans-8722"/>
       <use transform="translate(186.855469 39.046875)scale(0.7)" xlink:href="#DejaVuSans-49"/>
       <use transform="translate(231.391602 39.046875)scale(0.7)" xlink:href="#DejaVuSans-50"/>
      </g>
     </g>
    </g>
    <g id="ytick_2">
     <g id="line2d_15">
      <path clip-path="url(#p3e71e3efaf)" d="M 72 336.96 
L 518.4 336.96 
" style="fill:none;stroke:#b0b0b0;stroke-linecap:square;stroke-width:0.8;"/>
     </g>
     <g id="line2d_16">
      <g>
       <use style="stroke:#000000;stroke-width:0.8;" x="72" xlink:href="#me6ab66c93f" y="336.96"/>
      </g>
     </g>
     <g id="text_9">
      <!-- $\mathdefault{10^{-10}}$ -->
      <g transform="translate(37.1 340.759219)scale(0.1 -0.1)">
       <use transform="translate(0 0.765625)" xlink:href="#DejaVuSans-49"/>
       <use transform="translate(63.623047 0.765625)" xlink:href="#DejaVuSans-48"/>
       <use transform="translate(128.203125 39.046875)scale(0.7)" xlink:href="#DejaVuSans-8722"/>
       <use transform="translate(186.855469 39.046875)scale(0.7)" xlink:href="#DejaVuSans-49"/>
       <use transform="translate(231.391602 39.046875)scale(0.7)" xlink:href="#DejaVuSans-48"/>
      </g>
     </g>
    </g>
    <g id="ytick_3">
     <g id="line2d_17">
      <path clip-path="url(#p3e71e3efaf)" d="M 72 289.44 
L 518.4 289.44 
" style="fill:none;stroke:#b0b0b0;stroke-linecap:square;stroke-width:0.8;"/>
     </g>
     <g id="line2d_18">
      <g>
       <use style="stroke:#000000;stroke-width:0.8;" x="72" xlink:href="#me6ab66c93f" y="289.44"/>
      </g>
     </g>
     <g id="text_10">
      <!-- $\mathdefault{10^{-8}}$ -->
      <defs>
       <path d="M 31.78125 34.625 
Q 24.75 34.625 20.71875 30.859375 
Q 16.703125 27.09375 16.703125 20.515625 
Q 16.703125 13.921875 20.71875 10.15625 
Q 24.75 6.390625 31.78125 6.390625 
Q 38.8125 6.390625 42.859375 10.171875 
Q 46.921875 13.96875 46.921875 20.515625 
Q 46.921875 27.09375 42.890625 30.859375 
Q 38.875 34.625 31.78125 34.625 
z
M 21.921875 38.8125 
Q 15.578125 40.375 12.03125 44.71875 
Q 8.5 49.078125 8.5 55.328125 
Q 8.5 64.0625 14.71875 69.140625 
Q 20.953125 74.21875 31.78125 74.21875 
Q 42.671875 74.21875 48.875 69.140625 
Q 55.078125 64.0625 55.078125 55.328125 
Q 55.078125 49.078125 51.53125 44.71875 
Q 48 40.375 41.703125 38.8125 
Q 48.828125 37.15625 52.796875 32.3125 
Q 56.78125 27.484375 56.78125 20.515625 
Q 56.78125 9.90625 50.3125 4.234375 
Q 43.84375 -1.421875 31.78125 -1.421875 
Q 19.734375 -1.421875 13.25 4.234375 
Q 6.78125 9.90625 6.78125 20.515625 
Q 6.78125 27.484375 10.78125 32.3125 
Q 14.796875 37.15625 21.921875 38.8125 
z
M 18.3125 54.390625 
Q 18.3125 48.734375 21.84375 45.5625 
Q 25.390625 42.390625 31.78125 42.390625 
Q 38.140625 42.390625 41.71875 45.5625 
Q 45.3125 48.734375 45.3125 54.390625 
Q 45.3125 60.0625 41.71875 63.234375 
Q 38.140625 66.40625 31.78125 66.40625 
Q 25.390625 66.40625 21.84375 63.234375 
Q 18.3125 60.0625 18.3125 54.390625 
z
" id="DejaVuSans-56"/>
      </defs>
      <g transform="translate(41.5 293.239219)scale(0.1 -0.1)">
       <use transform="translate(0 0.765625)" xlink:href="#DejaVuSans-49"/>
       <use transform="translate(63.623047 0.765625)" xlink:href="#DejaVuSans-48"/>
       <use transform="translate(128.203125 39.046875)scale(0.7)" xlink:href="#DejaVuSans-8722"/>
       <use transform="translate(186.855469 39.046875)scale(0.7)" xlink:href="#DejaVuSans-56"/>
      </g>
     </g>
    </g>
    <g id="ytick_4">
     <g id="line2d_19">
      <path clip-path="url(#p3e71e3efaf)" d="M 72 241.92 
L 518.4 241.92 
" style="fill:none;stroke:#b0b0b0;stroke-linecap:square;stroke-width:0.8;"/>
     </g>
     <g id="line2d_20">
      <g>
       <use style="stroke:#000000;stroke-width:0.8;" x="72" xlink:href="#me6ab66c93f" y="241.92"/>
      </g>
     </g>
     <g id="text_11">
      <!-- $\mathdefault{10^{-6}}$ -->
      <defs>
       <path d="M 33.015625 40.375 
Q 26.375 40.375 22.484375 35.828125 
Q 18.609375 31.296875 18.609375 23.390625 
Q 18.609375 15.53125 22.484375 10.953125 
Q 26.375 6.390625 33.015625 6.390625 
Q 39.65625 6.390625 43.53125 10.953125 
Q 47.40625 15.53125 47.40625 23.390625 
Q 47.40625 31.296875 43.53125 35.828125 
Q 39.65625 40.375 33.015625 40.375 
z
M 52.59375 71.296875 
L 52.59375 62.3125 
Q 48.875 64.0625 45.09375 64.984375 
Q 41.3125 65.921875 37.59375 65.921875 
Q 27.828125 65.921875 22.671875 59.328125 
Q 17.53125 52.734375 16.796875 39.40625 
Q 19.671875 43.65625 24.015625 45.921875 
Q 28.375 48.1875 33.59375 48.1875 
Q 44.578125 48.1875 50.953125 41.515625 
Q 57.328125 34.859375 57.328125 23.390625 
Q 57.328125 12.15625 50.6875 5.359375 
Q 44.046875 -1.421875 33.015625 -1.421875 
Q 20.359375 -1.421875 13.671875 8.265625 
Q 6.984375 17.96875 6.984375 36.375 
Q 6.984375 53.65625 15.1875 63.9375 
Q 23.390625 74.21875 37.203125 74.21875 
Q 40.921875 74.21875 44.703125 73.484375 
Q 48.484375 72.75 52.59375 71.296875 
z
" id="DejaVuSans-54"/>
      </defs>
      <g transform="translate(41.5 245.719219)scale(0.1 -0.1)">
       <use transform="translate(0 0.765625)" xlink:href="#DejaVuSans-49"/>
       <use transform="translate(63.623047 0.765625)" xlink:href="#DejaVuSans-48"/>
       <use transform="translate(128.203125 39.046875)scale(0.7)" xlink:href="#DejaVuSans-8722"/>
       <use transform="translate(186.855469 39.046875)scale(0.7)" xlink:href="#DejaVuSans-54"/>
      </g>
     </g>
    </g>
    <g id="ytick_5">
     <g id="line2d_21">
      <path clip-path="url(#p3e71e3efaf)" d="M 72 194.4 
L 518.4 194.4 
" style="fill:none;stroke:#b0b0b0;stroke-linecap:square;stroke-width:0.8;"/>
     </g>
     <g id="line2d_22">
      <g>
       <use style="stroke:#000000;stroke-width:0.8;" x="72" xlink:href="#me6ab66c93f" y="194.4"/>
      </g>
     </g>
     <g id="text_12">
      <!-- $\mathdefault{10^{-4}}$ -->
      <g transform="translate(41.5 198.199219)scale(0.1 -0.1)">
       <use transform="translate(0 0.684375)" xlink:href="#DejaVuSans-49"/>
       <use transform="translate(63.623047 0.684375)" xlink:href="#DejaVuSans-48"/>
       <use transform="translate(128.203125 38.965625)scale(0.7)" xlink:href="#DejaVuSans-8722"/>
       <use transform="translate(186.855469 38.965625)scale(0.7)" xlink:href="#DejaVuSans-52"/>
      </g>
     </g>
    </g>
    <g id="ytick_6">
     <g id="line2d_23">
      <path clip-path="url(#p3e71e3efaf)" d="M 72 146.88 
L 518.4 146.88 
" style="fill:none;stroke:#b0b0b0;stroke-linecap:square;stroke-width:0.8;"/>
     </g>
     <g id="line2d_24">
      <g>
       <use style="stroke:#000000;stroke-width:0.8;" x="72" xlink:href="#me6ab66c93f" y="146.88"/>
      </g>
     </g>
     <g id="text_13">
      <!-- $\mathdefault{10^{-2}}$ -->
      <g transform="translate(41.5 150.679219)scale(0.1 -0.1)">
       <use transform="translate(0 0.765625)" xlink:href="#DejaVuSans-49"/>
       <use transform="translate(63.623047 0.765625)" xlink:href="#DejaVuSans-48"/>
       <use transform="translate(128.203125 39.046875)scale(0.7)" xlink:href="#DejaVuSans-8722"/>
       <use transform="translate(186.855469 39.046875)scale(0.7)" xlink:href="#DejaVuSans-50"/>
      </g>
     </g>
    </g>
    <g id="ytick_7">
     <g id="line2d_25">
      <path clip-path="url(#p3e71e3efaf)" d="M 72 99.36 
L 518.4 99.36 
" style="fill:none;stroke:#b0b0b0;stroke-linecap:square;stroke-width:0.8;"/>
     </g>
     <g id="line2d_26">
      <g>
       <use style="stroke:#000000;stroke-width:0.8;" x="72" xlink:href="#me6ab66c93f" y="99.36"/>
      </g>
     </g>
     <g id="text_14">
      <!-- $\mathdefault{10^{0}}$ -->
      <g transform="translate(47.4 103.159219)scale(0.1 -0.1)">
       <use transform="translate(0 0.765625)" xlink:href="#DejaVuSans-49"/>
       <use transform="translate(63.623047 0.765625)" xlink:href="#DejaVuSans-48"/>
       <use transform="translate(128.203125 39.046875)scale(0.7)" xlink:href="#DejaVuSans-48"/>
      </g>
     </g>
    </g>
    <g id="ytick_8">
     <g id="line2d_27">
      <path clip-path="url(#p3e71e3efaf)" d="M 72 51.84 
L 518.4 51.84 
" style="fill:none;stroke:#b0b0b0;stroke-linecap:square;stroke-width:0.8;"/>
     </g>
     <g id="line2d_28">
      <g>
       <use style="stroke:#000000;stroke-width:0.8;" x="72" xlink:href="#me6ab66c93f" y="51.84"/>
      </g>
     </g>
     <g id="text_15">
      <!-- $\mathdefault{10^{2}}$ -->
      <g transform="translate(47.4 55.639219)scale(0.1 -0.1)">
       <use transform="translate(0 0.765625)" xlink:href="#DejaVuSans-49"/>
       <use transform="translate(63.623047 0.765625)" xlink:href="#DejaVuSans-48"/>
       <use transform="translate(128.203125 39.046875)scale(0.7)" xlink:href="#DejaVuSans-50"/>
      </g>
     </g>
    </g>
    <g id="text_16">
     <!-- Integrated Variance -->
     <defs>
      <path d="M 45.40625 27.984375 
Q 45.40625 37.75 41.375 43.109375 
Q 37.359375 48.484375 30.078125 48.484375 
Q 22.859375 48.484375 18.828125 43.109375 
Q 14.796875 37.75 14.796875 27.984375 
Q 14.796875 18.265625 18.828125 12.890625 
Q 22.859375 7.515625 30.078125 7.515625 
Q 37.359375 7.515625 41.375 12.890625 
Q 45.40625 18.265625 45.40625 27.984375 
z
M 54.390625 6.78125 
Q 54.390625 -7.171875 48.1875 -13.984375 
Q 42 -20.796875 29.203125 -20.796875 
Q 24.46875 -20.796875 20.265625 -20.09375 
Q 16.0625 -19.390625 12.109375 -17.921875 
L 12.109375 -9.1875 
Q 16.0625 -11.328125 19.921875 -12.34375 
Q 23.78125 -13.375 27.78125 -13.375 
Q 36.625 -13.375 41.015625 -8.765625 
Q 45.40625 -4.15625 45.40625 5.171875 
L 45.40625 9.625 
Q 42.625 4.78125 38.28125 2.390625 
Q 33.9375 0 27.875 0 
Q 17.828125 0 11.671875 7.65625 
Q 5.515625 15.328125 5.515625 27.984375 
Q 5.515625 40.671875 11.671875 48.328125 
Q 17.828125 56 27.875 56 
Q 33.9375 56 38.28125 53.609375 
Q 42.625 51.21875 45.40625 46.390625 
L 45.40625 54.6875 
L 54.390625 54.6875 
z
" id="DejaVuSans-103"/>
      <path d="M 45.40625 46.390625 
L 45.40625 75.984375 
L 54.390625 75.984375 
L 54.390625 0 
L 45.40625 0 
L 45.40625 8.203125 
Q 42.578125 3.328125 38.25 0.953125 
Q 33.9375 -1.421875 27.875 -1.421875 
Q 17.96875 -1.421875 11.734375 6.484375 
Q 5.515625 14.40625 5.515625 27.296875 
Q 5.515625 40.1875 11.734375 48.09375 
Q 17.96875 56 27.875 56 
Q 33.9375 56 38.25 53.625 
Q 42.578125 51.265625 45.40625 46.390625 
z
M 14.796875 27.296875 
Q 14.796875 17.390625 18.875 11.75 
Q 22.953125 6.109375 30.078125 6.109375 
Q 37.203125 6.109375 41.296875 11.75 
Q 45.40625 17.390625 45.40625 27.296875 
Q 45.40625 37.203125 41.296875 42.84375 
Q 37.203125 48.484375 30.078125 48.484375 
Q 22.953125 48.484375 18.875 42.84375 
Q 14.796875 37.203125 14.796875 27.296875 
z
" id="DejaVuSans-100"/>
      <path id="DejaVuSans-32"/>
      <path d="M 28.609375 0 
L 0.78125 72.90625 
L 11.078125 72.90625 
L 34.1875 11.53125 
L 57.328125 72.90625 
L 67.578125 72.90625 
L 39.796875 0 
z
" id="DejaVuSans-86"/>
      <path d="M 48.78125 52.59375 
L 48.78125 44.1875 
Q 44.96875 46.296875 41.140625 47.34375 
Q 37.3125 48.390625 33.40625 48.390625 
Q 24.65625 48.390625 19.8125 42.84375 
Q 14.984375 37.3125 14.984375 27.296875 
Q 14.984375 17.28125 19.8125 11.734375 
Q 24.65625 6.203125 33.40625 6.203125 
Q 37.3125 6.203125 41.140625 7.25 
Q 44.96875 8.296875 48.78125 10.40625 
L 48.78125 2.09375 
Q 45.015625 0.34375 40.984375 -0.53125 
Q 36.96875 -1.421875 32.421875 -1.421875 
Q 20.0625 -1.421875 12.78125 6.34375 
Q 5.515625 14.109375 5.515625 27.296875 
Q 5.515625 40.671875 12.859375 48.328125 
Q 20.21875 56 33.015625 56 
Q 37.15625 56 41.109375 55.140625 
Q 45.0625 54.296875 48.78125 52.59375 
z
" id="DejaVuSans-99"/>
     </defs>
     <g transform="translate(31.020312 267.534219)rotate(-90)scale(0.1 -0.1)">
      <use xlink:href="#DejaVuSans-73"/>
      <use x="29.492188" xlink:href="#DejaVuSans-110"/>
      <use x="92.871094" xlink:href="#DejaVuSans-116"/>
      <use x="132.080078" xlink:href="#DejaVuSans-101"/>
      <use x="193.603516" xlink:href="#DejaVuSans-103"/>
      <use x="257.080078" xlink:href="#DejaVuSans-114"/>
      <use x="298.193359" xlink:href="#DejaVuSans-97"/>
      <use x="359.472656" xlink:href="#DejaVuSans-116"/>
      <use x="398.681641" xlink:href="#DejaVuSans-101"/>
      <use x="460.205078" xlink:href="#DejaVuSans-100"/>
      <use x="523.681641" xlink:href="#DejaVuSans-32"/>
      <use x="555.46875" xlink:href="#DejaVuSans-86"/>
      <use x="616.126953" xlink:href="#DejaVuSans-97"/>
      <use x="677.40625" xlink:href="#DejaVuSans-114"/>
      <use x="718.519531" xlink:href="#DejaVuSans-105"/>
      <use x="746.302734" xlink:href="#DejaVuSans-97"/>
      <use x="807.582031" xlink:href="#DejaVuSans-110"/>
      <use x="870.960938" xlink:href="#DejaVuSans-99"/>
      <use x="925.941406" xlink:href="#DejaVuSans-101"/>
     </g>
    </g>
   </g>
   <g id="line2d_29">
    <path clip-path="url(#p3e71e3efaf)" style="fill:none;stroke:#1f77b4;stroke-linecap:square;stroke-width:1.5;"/>
   </g>
   <g id="line2d_30">
    <path clip-path="url(#p3e71e3efaf)" d="M 72 90.847267 
L 80.928 92.571586 
L 89.856 100.39122 
L 98.784 103.608221 
L 107.712 105.391366 
L 116.64 114.169655 
L 125.568 121.598771 
L 134.496 123.702004 
L 143.424 129.191181 
L 152.352 134.773363 
L 161.28 135.690424 
L 170.208 134.804393 
L 179.136 136.966066 
L 188.064 124.772652 
L 196.992 136.036084 
L 205.92 116.673589 
L 214.848 103.761391 
L 223.776 88.452151 
L 232.704 86.701861 
L 241.632 94.744233 
L 250.56 101.301692 
L 259.488 87.12819 
L 268.416 87.155199 
L 277.344 80.419524 
L 286.272 82.225175 
L 295.2 77.87654 
L 304.128 77.955272 
L 313.056 78.002215 
L 321.984 79.323663 
L 330.912 77.619327 
L 339.84 77.800139 
L 348.768 77.938502 
L 357.696 78.194135 
L 366.624 84.145832 
L 375.552 80.271112 
L 384.48 83.806066 
L 393.408 78.52449 
L 402.336 79.874277 
L 411.264 76.031549 
L 420.192 76.042304 
L 429.12 78.102287 
L 438.048 76.063846 
L 446.976 76.074634 
L 455.904 76.085434 
L 464.832 76.326878 
L 473.76 76.107066 
L 482.688 76.1179 
L 491.616 78.257732 
L 500.544 82.612097 
L 509.472 78.469076 
L 518.4 80.763453 
" style="fill:none;stroke:#ff7f0e;stroke-linecap:square;stroke-width:1.5;"/>
   </g>
   <g id="line2d_31">
    <path clip-path="url(#p3e71e3efaf)" d="M 72 81.82913 
L 80.928 85.07633 
L 89.856 86.509791 
L 98.784 87.940367 
L 107.712 90.076246 
L 116.64 91.258028 
L 125.568 92.507958 
L 134.496 93.327702 
L 143.424 94.221328 
L 152.352 95.166356 
L 161.28 96.175019 
L 170.208 97.128709 
L 179.136 97.962564 
L 188.064 98.885143 
L 196.992 99.73059 
L 205.92 100.397337 
L 214.848 100.956538 
L 223.776 101.525664 
L 232.704 102.032056 
L 241.632 102.59467 
L 250.56 103.160693 
L 259.488 103.747887 
L 268.416 104.340598 
L 277.344 104.955324 
L 286.272 105.535799 
L 295.2 106.143576 
L 304.128 106.655496 
L 313.056 107.197968 
L 321.984 107.741471 
L 330.912 108.300871 
L 339.84 108.811479 
L 348.768 109.289813 
L 357.696 109.694107 
L 366.624 110.115362 
L 375.552 110.478673 
L 384.48 110.840045 
L 393.408 111.20542 
L 402.336 111.574733 
L 411.264 111.909985 
L 420.192 112.250048 
L 429.12 112.591797 
L 438.048 112.939215 
L 446.976 113.283744 
L 455.904 113.627639 
L 464.832 113.973587 
L 473.76 114.324908 
L 482.688 114.679494 
L 491.616 115.035908 
L 500.544 115.397184 
L 509.472 115.76227 
L 518.4 116.111234 
" style="fill:none;stroke:#2ca02c;stroke-linecap:square;stroke-width:1.5;"/>
   </g>
   <g id="line2d_32">
    <path clip-path="url(#p3e71e3efaf)" d="M 72 86.568254 
L 80.928 89.052615 
L 89.856 93.288135 
L 98.784 95.008758 
L 107.712 98.290857 
L 116.64 101.564678 
L 125.568 104.564278 
L 134.496 106.894624 
L 143.424 108.804444 
L 152.352 111.110567 
L 161.28 113.091218 
L 170.208 115.966056 
L 179.136 118.662281 
L 188.064 121.508922 
L 196.992 124.071633 
L 205.92 125.888849 
L 214.848 127.440996 
L 223.776 128.960616 
L 232.704 130.425188 
L 241.632 131.921258 
L 250.56 133.482261 
L 259.488 135.089934 
L 268.416 136.613925 
L 277.344 138.183183 
L 286.272 139.842859 
L 295.2 141.611014 
L 304.128 143.266019 
L 313.056 145.019194 
L 321.984 146.715294 
L 330.912 148.481921 
L 339.84 149.968469 
L 348.768 151.221676 
L 357.696 152.287323 
L 366.624 153.294241 
L 375.552 154.226147 
L 384.48 155.100757 
L 393.408 155.937798 
L 402.336 156.776736 
L 411.264 157.596544 
L 420.192 158.408747 
L 429.12 159.227345 
L 438.048 160.053534 
L 446.976 160.893377 
L 455.904 161.734855 
L 464.832 162.571411 
L 473.76 163.392177 
L 482.688 164.202215 
L 491.616 165.042951 
L 500.544 165.865455 
L 509.472 166.696215 
L 518.4 167.55336 
" style="fill:none;stroke:#d62728;stroke-linecap:square;stroke-width:1.5;"/>
   </g>
   <g id="line2d_33">
    <path clip-path="url(#p3e71e3efaf)" d="M 72 88.041002 
L 80.928 90.269044 
L 89.856 95.525788 
L 98.784 96.972272 
L 107.712 100.083159 
L 116.64 106.05972 
L 125.568 109.697117 
L 134.496 112.173826 
L 143.424 114.629118 
L 152.352 118.226057 
L 161.28 119.700718 
L 170.208 123.665147 
L 179.136 128.080555 
L 188.064 132.560222 
L 196.992 136.39028 
L 205.92 139.078841 
L 214.848 141.257252 
L 223.776 143.593046 
L 232.704 145.993064 
L 241.632 148.425375 
L 250.56 150.903907 
L 259.488 153.293064 
L 268.416 155.644823 
L 277.344 158.012641 
L 286.272 160.361207 
L 295.2 162.882141 
L 304.128 165.500716 
L 313.056 168.390035 
L 321.984 171.117922 
L 330.912 173.926531 
L 339.84 176.283185 
L 348.768 178.201159 
L 357.696 179.843269 
L 366.624 181.408344 
L 375.552 182.844003 
L 384.48 184.25865 
L 393.408 185.613074 
L 402.336 186.94192 
L 411.264 188.290037 
L 420.192 189.653588 
L 429.12 191.012242 
L 438.048 192.373638 
L 446.976 193.695024 
L 455.904 195.061733 
L 464.832 196.381251 
L 473.76 197.661588 
L 482.688 198.92235 
L 491.616 200.144452 
L 500.544 201.368997 
L 509.472 202.571316 
L 518.4 203.774067 
" style="fill:none;stroke:#9467bd;stroke-linecap:square;stroke-width:1.5;"/>
   </g>
   <g id="line2d_34">
    <path clip-path="url(#p3e71e3efaf)" d="M 72 86.107706 
L 80.928 88.763416 
L 89.856 91.866837 
L 98.784 92.926587 
L 107.712 98.821254 
L 116.64 102.917169 
L 125.568 104.713702 
L 134.496 109.001413 
L 143.424 112.845868 
L 152.352 116.204627 
L 161.28 120.18077 
L 170.208 125.957118 
L 179.136 132.45546 
L 188.064 139.456267 
L 196.992 143.215533 
L 205.92 149.169217 
L 214.848 154.606881 
L 223.776 160.158723 
L 232.704 165.906199 
L 241.632 171.761728 
L 250.56 177.823647 
L 259.488 183.827497 
L 268.416 189.528446 
L 277.344 194.59135 
L 286.272 200.158459 
L 295.2 207.953104 
L 304.128 213.480697 
L 313.056 220.040263 
L 321.984 227.018563 
L 330.912 232.570033 
L 339.84 239.586226 
L 348.768 246.579854 
L 357.696 253.418734 
L 366.624 257.829804 
L 375.552 261.604198 
L 384.48 266.724238 
L 393.408 270.16845 
L 402.336 273.55657 
L 411.264 266.852882 
L 420.192 256.286211 
L 429.12 251.23903 
L 438.048 246.486055 
L 446.976 245.930113 
L 455.904 242.164144 
L 455.976142 433 
M 473.686796 433 
L 473.76 239.331168 
L 473.833204 433 
M 500.469452 433 
L 500.544 235.74595 
L 500.618548 433 
" style="fill:none;stroke:#8c564b;stroke-linecap:square;stroke-width:1.5;"/>
   </g>
   <g id="line2d_35">
    <path clip-path="url(#p3e71e3efaf)" d="M 72 178.806055 
L 80.928 192.507607 
L 81.018723 433 
M 98.688674 433 
L 98.784 180.173561 
L 98.879326 433 
M 134.399716 433 
L 134.496 177.604384 
L 143.424 176.693549 
L 143.520624 433 
M 179.041986 433 
L 179.136 183.688576 
L 179.230014 433 
M 205.822829 433 
L 205.92 175.224458 
L 206.017171 433 
M 232.6056 433 
L 232.704 171.927554 
L 232.8024 433 
M 330.810355 433 
L 330.912 163.220824 
L 331.013645 433 
" style="fill:none;stroke:#e377c2;stroke-linecap:square;stroke-width:1.5;"/>
   </g>
   <g id="patch_3">
    <path d="M 72 384.48 
L 72 51.84 
" style="fill:none;stroke:#000000;stroke-linecap:square;stroke-linejoin:miter;stroke-width:0.8;"/>
   </g>
   <g id="patch_4">
    <path d="M 518.4 384.48 
L 518.4 51.84 
" style="fill:none;stroke:#000000;stroke-linecap:square;stroke-linejoin:miter;stroke-width:0.8;"/>
   </g>
   <g id="patch_5">
    <path d="M 72 384.48 
L 518.4 384.48 
" style="fill:none;stroke:#000000;stroke-linecap:square;stroke-linejoin:miter;stroke-width:0.8;"/>
   </g>
   <g id="patch_6">
    <path d="M 72 51.84 
L 518.4 51.84 
" style="fill:none;stroke:#000000;stroke-linecap:square;stroke-linejoin:miter;stroke-width:0.8;"/>
   </g>
   <g id="legend_1">
    <g id="patch_7">
     <path d="M 79 379.48 
L 165.804688 379.48 
Q 167.804688 379.48 167.804688 377.48 
L 167.804688 275.733125 
Q 167.804688 273.733125 165.804688 273.733125 
L 79 273.733125 
Q 77 273.733125 77 275.733125 
L 77 377.48 
Q 77 379.48 79 379.48 
z
" style="fill:#ffffff;opacity:0.8;stroke:#cccccc;stroke-linejoin:miter;"/>
    </g>
    <g id="line2d_36">
     <path d="M 81 281.831563 
L 101 281.831563 
" style="fill:none;stroke:#1f77b4;stroke-linecap:square;stroke-width:1.5;"/>
    </g>
    <g id="line2d_37"/>
    <g id="text_17">
     <!-- Constant -->
     <defs>
      <path d="M 64.40625 67.28125 
L 64.40625 56.890625 
Q 59.421875 61.53125 53.78125 63.8125 
Q 48.140625 66.109375 41.796875 66.109375 
Q 29.296875 66.109375 22.65625 58.46875 
Q 16.015625 50.828125 16.015625 36.375 
Q 16.015625 21.96875 22.65625 14.328125 
Q 29.296875 6.6875 41.796875 6.6875 
Q 48.140625 6.6875 53.78125 8.984375 
Q 59.421875 11.28125 64.40625 15.921875 
L 64.40625 5.609375 
Q 59.234375 2.09375 53.4375 0.328125 
Q 47.65625 -1.421875 41.21875 -1.421875 
Q 24.65625 -1.421875 15.125 8.703125 
Q 5.609375 18.84375 5.609375 36.375 
Q 5.609375 53.953125 15.125 64.078125 
Q 24.65625 74.21875 41.21875 74.21875 
Q 47.75 74.21875 53.53125 72.484375 
Q 59.328125 70.75 64.40625 67.28125 
z
" id="DejaVuSans-67"/>
      <path d="M 44.28125 53.078125 
L 44.28125 44.578125 
Q 40.484375 46.53125 36.375 47.5 
Q 32.28125 48.484375 27.875 48.484375 
Q 21.1875 48.484375 17.84375 46.4375 
Q 14.5 44.390625 14.5 40.28125 
Q 14.5 37.15625 16.890625 35.375 
Q 19.28125 33.59375 26.515625 31.984375 
L 29.59375 31.296875 
Q 39.15625 29.25 43.1875 25.515625 
Q 47.21875 21.78125 47.21875 15.09375 
Q 47.21875 7.46875 41.1875 3.015625 
Q 35.15625 -1.421875 24.609375 -1.421875 
Q 20.21875 -1.421875 15.453125 -0.5625 
Q 10.6875 0.296875 5.421875 2 
L 5.421875 11.28125 
Q 10.40625 8.6875 15.234375 7.390625 
Q 20.0625 6.109375 24.8125 6.109375 
Q 31.15625 6.109375 34.5625 8.28125 
Q 37.984375 10.453125 37.984375 14.40625 
Q 37.984375 18.0625 35.515625 20.015625 
Q 33.0625 21.96875 24.703125 23.78125 
L 21.578125 24.515625 
Q 13.234375 26.265625 9.515625 29.90625 
Q 5.8125 33.546875 5.8125 39.890625 
Q 5.8125 47.609375 11.28125 51.796875 
Q 16.75 56 26.8125 56 
Q 31.78125 56 36.171875 55.265625 
Q 40.578125 54.546875 44.28125 53.078125 
z
" id="DejaVuSans-115"/>
     </defs>
     <g transform="translate(109 285.331563)scale(0.1 -0.1)">
      <use xlink:href="#DejaVuSans-67"/>
      <use x="69.824219" xlink:href="#DejaVuSans-111"/>
      <use x="131.005859" xlink:href="#DejaVuSans-110"/>
      <use x="194.384766" xlink:href="#DejaVuSans-115"/>
      <use x="246.484375" xlink:href="#DejaVuSans-116"/>
      <use x="285.693359" xlink:href="#DejaVuSans-97"/>
      <use x="346.972656" xlink:href="#DejaVuSans-110"/>
      <use x="410.351562" xlink:href="#DejaVuSans-116"/>
     </g>
    </g>
    <g id="line2d_38">
     <path d="M 81 296.509688 
L 101 296.509688 
" style="fill:none;stroke:#ff7f0e;stroke-linecap:square;stroke-width:1.5;"/>
    </g>
    <g id="line2d_39"/>
    <g id="text_18">
     <!-- RBF -->
     <defs>
      <path d="M 44.390625 34.1875 
Q 47.5625 33.109375 50.5625 29.59375 
Q 53.5625 26.078125 56.59375 19.921875 
L 66.609375 0 
L 56 0 
L 46.6875 18.703125 
Q 43.0625 26.03125 39.671875 28.421875 
Q 36.28125 30.8125 30.421875 30.8125 
L 19.671875 30.8125 
L 19.671875 0 
L 9.8125 0 
L 9.8125 72.90625 
L 32.078125 72.90625 
Q 44.578125 72.90625 50.734375 67.671875 
Q 56.890625 62.453125 56.890625 51.90625 
Q 56.890625 45.015625 53.6875 40.46875 
Q 50.484375 35.9375 44.390625 34.1875 
z
M 19.671875 64.796875 
L 19.671875 38.921875 
L 32.078125 38.921875 
Q 39.203125 38.921875 42.84375 42.21875 
Q 46.484375 45.515625 46.484375 51.90625 
Q 46.484375 58.296875 42.84375 61.546875 
Q 39.203125 64.796875 32.078125 64.796875 
z
" id="DejaVuSans-82"/>
      <path d="M 19.671875 34.8125 
L 19.671875 8.109375 
L 35.5 8.109375 
Q 43.453125 8.109375 47.28125 11.40625 
Q 51.125 14.703125 51.125 21.484375 
Q 51.125 28.328125 47.28125 31.5625 
Q 43.453125 34.8125 35.5 34.8125 
z
M 19.671875 64.796875 
L 19.671875 42.828125 
L 34.28125 42.828125 
Q 41.5 42.828125 45.03125 45.53125 
Q 48.578125 48.25 48.578125 53.8125 
Q 48.578125 59.328125 45.03125 62.0625 
Q 41.5 64.796875 34.28125 64.796875 
z
M 9.8125 72.90625 
L 35.015625 72.90625 
Q 46.296875 72.90625 52.390625 68.21875 
Q 58.5 63.53125 58.5 54.890625 
Q 58.5 48.1875 55.375 44.234375 
Q 52.25 40.28125 46.1875 39.3125 
Q 53.46875 37.75 57.5 32.78125 
Q 61.53125 27.828125 61.53125 20.40625 
Q 61.53125 10.640625 54.890625 5.3125 
Q 48.25 0 35.984375 0 
L 9.8125 0 
z
" id="DejaVuSans-66"/>
      <path d="M 9.8125 72.90625 
L 51.703125 72.90625 
L 51.703125 64.59375 
L 19.671875 64.59375 
L 19.671875 43.109375 
L 48.578125 43.109375 
L 48.578125 34.8125 
L 19.671875 34.8125 
L 19.671875 0 
L 9.8125 0 
z
" id="DejaVuSans-70"/>
     </defs>
     <g transform="translate(109 300.009688)scale(0.1 -0.1)">
      <use xlink:href="#DejaVuSans-82"/>
      <use x="69.482422" xlink:href="#DejaVuSans-66"/>
      <use x="138.085938" xlink:href="#DejaVuSans-70"/>
     </g>
    </g>
    <g id="line2d_40">
     <path d="M 81 311.187813 
L 101 311.187813 
" style="fill:none;stroke:#2ca02c;stroke-linecap:square;stroke-width:1.5;"/>
    </g>
    <g id="line2d_41"/>
    <g id="text_19">
     <!-- Matrn-1/2 -->
     <defs>
      <path d="M 9.8125 72.90625 
L 24.515625 72.90625 
L 43.109375 23.296875 
L 61.8125 72.90625 
L 76.515625 72.90625 
L 76.515625 0 
L 66.890625 0 
L 66.890625 64.015625 
L 48.09375 14.015625 
L 38.1875 14.015625 
L 19.390625 64.015625 
L 19.390625 0 
L 9.8125 0 
z
" id="DejaVuSans-77"/>
      <path d="M 56.203125 29.59375 
L 56.203125 25.203125 
L 14.890625 25.203125 
Q 15.484375 15.921875 20.484375 11.0625 
Q 25.484375 6.203125 34.421875 6.203125 
Q 39.59375 6.203125 44.453125 7.46875 
Q 49.3125 8.734375 54.109375 11.28125 
L 54.109375 2.78125 
Q 49.265625 0.734375 44.1875 -0.34375 
Q 39.109375 -1.421875 33.890625 -1.421875 
Q 20.796875 -1.421875 13.15625 6.1875 
Q 5.515625 13.8125 5.515625 26.8125 
Q 5.515625 40.234375 12.765625 48.109375 
Q 20.015625 56 32.328125 56 
Q 43.359375 56 49.78125 48.890625 
Q 56.203125 41.796875 56.203125 29.59375 
z
M 47.21875 32.234375 
Q 47.125 39.59375 43.09375 43.984375 
Q 39.0625 48.390625 32.421875 48.390625 
Q 24.90625 48.390625 20.390625 44.140625 
Q 15.875 39.890625 15.1875 32.171875 
z
M 38.53125 79.984375 
L 48.25 79.984375 
L 32.34375 61.625 
L 24.859375 61.625 
z
" id="DejaVuSans-233"/>
      <path d="M 4.890625 31.390625 
L 31.203125 31.390625 
L 31.203125 23.390625 
L 4.890625 23.390625 
z
" id="DejaVuSans-45"/>
      <path d="M 25.390625 72.90625 
L 33.6875 72.90625 
L 8.296875 -9.28125 
L 0 -9.28125 
z
" id="DejaVuSans-47"/>
     </defs>
     <g transform="translate(109 314.687813)scale(0.1 -0.1)">
      <use xlink:href="#DejaVuSans-77"/>
      <use x="86.279297" xlink:href="#DejaVuSans-97"/>
      <use x="147.558594" xlink:href="#DejaVuSans-116"/>
      <use x="186.767578" xlink:href="#DejaVuSans-233"/>
      <use x="248.291016" xlink:href="#DejaVuSans-114"/>
      <use x="287.654297" xlink:href="#DejaVuSans-110"/>
      <use x="351.033203" xlink:href="#DejaVuSans-45"/>
      <use x="387.117188" xlink:href="#DejaVuSans-49"/>
      <use x="450.740234" xlink:href="#DejaVuSans-47"/>
      <use x="484.431641" xlink:href="#DejaVuSans-50"/>
     </g>
    </g>
    <g id="line2d_42">
     <path d="M 81 325.865938 
L 101 325.865938 
" style="fill:none;stroke:#d62728;stroke-linecap:square;stroke-width:1.5;"/>
    </g>
    <g id="line2d_43"/>
    <g id="text_20">
     <!-- Matrn-3/2 -->
     <g transform="translate(109 329.365938)scale(0.1 -0.1)">
      <use xlink:href="#DejaVuSans-77"/>
      <use x="86.279297" xlink:href="#DejaVuSans-97"/>
      <use x="147.558594" xlink:href="#DejaVuSans-116"/>
      <use x="186.767578" xlink:href="#DejaVuSans-233"/>
      <use x="248.291016" xlink:href="#DejaVuSans-114"/>
      <use x="287.654297" xlink:href="#DejaVuSans-110"/>
      <use x="351.033203" xlink:href="#DejaVuSans-45"/>
      <use x="387.117188" xlink:href="#DejaVuSans-51"/>
      <use x="450.740234" xlink:href="#DejaVuSans-47"/>
      <use x="484.431641" xlink:href="#DejaVuSans-50"/>
     </g>
    </g>
    <g id="line2d_44">
     <path d="M 81 340.544062 
L 101 340.544062 
" style="fill:none;stroke:#9467bd;stroke-linecap:square;stroke-width:1.5;"/>
    </g>
    <g id="line2d_45"/>
    <g id="text_21">
     <!-- Matrn-5/2 -->
     <g transform="translate(109 344.044062)scale(0.1 -0.1)">
      <use xlink:href="#DejaVuSans-77"/>
      <use x="86.279297" xlink:href="#DejaVuSans-97"/>
      <use x="147.558594" xlink:href="#DejaVuSans-116"/>
      <use x="186.767578" xlink:href="#DejaVuSans-233"/>
      <use x="248.291016" xlink:href="#DejaVuSans-114"/>
      <use x="287.654297" xlink:href="#DejaVuSans-110"/>
      <use x="351.033203" xlink:href="#DejaVuSans-45"/>
      <use x="387.117188" xlink:href="#DejaVuSans-53"/>
      <use x="450.740234" xlink:href="#DejaVuSans-47"/>
      <use x="484.431641" xlink:href="#DejaVuSans-50"/>
     </g>
    </g>
    <g id="line2d_46">
     <path d="M 81 355.222188 
L 101 355.222188 
" style="fill:none;stroke:#8c564b;stroke-linecap:square;stroke-width:1.5;"/>
    </g>
    <g id="line2d_47"/>
    <g id="text_22">
     <!-- RQ -->
     <defs>
      <path d="M 39.40625 66.21875 
Q 28.65625 66.21875 22.328125 58.203125 
Q 16.015625 50.203125 16.015625 36.375 
Q 16.015625 22.609375 22.328125 14.59375 
Q 28.65625 6.59375 39.40625 6.59375 
Q 50.140625 6.59375 56.421875 14.59375 
Q 62.703125 22.609375 62.703125 36.375 
Q 62.703125 50.203125 56.421875 58.203125 
Q 50.140625 66.21875 39.40625 66.21875 
z
M 53.21875 1.3125 
L 66.21875 -12.890625 
L 54.296875 -12.890625 
L 43.5 -1.21875 
Q 41.890625 -1.3125 41.03125 -1.359375 
Q 40.1875 -1.421875 39.40625 -1.421875 
Q 24.03125 -1.421875 14.8125 8.859375 
Q 5.609375 19.140625 5.609375 36.375 
Q 5.609375 53.65625 14.8125 63.9375 
Q 24.03125 74.21875 39.40625 74.21875 
Q 54.734375 74.21875 63.90625 63.9375 
Q 73.09375 53.65625 73.09375 36.375 
Q 73.09375 23.6875 67.984375 14.640625 
Q 62.890625 5.609375 53.21875 1.3125 
z
" id="DejaVuSans-81"/>
     </defs>
     <g transform="translate(109 358.722188)scale(0.1 -0.1)">
      <use xlink:href="#DejaVuSans-82"/>
      <use x="69.482422" xlink:href="#DejaVuSans-81"/>
     </g>
    </g>
    <g id="line2d_48">
     <path d="M 81 369.900313 
L 101 369.900313 
" style="fill:none;stroke:#e377c2;stroke-linecap:square;stroke-width:1.5;"/>
    </g>
    <g id="line2d_49"/>
    <g id="text_23">
     <!-- Dot Prod. -->
     <defs>
      <path d="M 19.671875 64.796875 
L 19.671875 8.109375 
L 31.59375 8.109375 
Q 46.6875 8.109375 53.6875 14.9375 
Q 60.6875 21.78125 60.6875 36.53125 
Q 60.6875 51.171875 53.6875 57.984375 
Q 46.6875 64.796875 31.59375 64.796875 
z
M 9.8125 72.90625 
L 30.078125 72.90625 
Q 51.265625 72.90625 61.171875 64.09375 
Q 71.09375 55.28125 71.09375 36.53125 
Q 71.09375 17.671875 61.125 8.828125 
Q 51.171875 0 30.078125 0 
L 9.8125 0 
z
" id="DejaVuSans-68"/>
      <path d="M 19.671875 64.796875 
L 19.671875 37.40625 
L 32.078125 37.40625 
Q 38.96875 37.40625 42.71875 40.96875 
Q 46.484375 44.53125 46.484375 51.125 
Q 46.484375 57.671875 42.71875 61.234375 
Q 38.96875 64.796875 32.078125 64.796875 
z
M 9.8125 72.90625 
L 32.078125 72.90625 
Q 44.34375 72.90625 50.609375 67.359375 
Q 56.890625 61.8125 56.890625 51.125 
Q 56.890625 40.328125 50.609375 34.8125 
Q 44.34375 29.296875 32.078125 29.296875 
L 19.671875 29.296875 
L 19.671875 0 
L 9.8125 0 
z
" id="DejaVuSans-80"/>
      <path d="M 10.6875 12.40625 
L 21 12.40625 
L 21 0 
L 10.6875 0 
z
" id="DejaVuSans-46"/>
     </defs>
     <g transform="translate(109 373.400313)scale(0.1 -0.1)">
      <use xlink:href="#DejaVuSans-68"/>
      <use x="77.001953" xlink:href="#DejaVuSans-111"/>
      <use x="138.183594" xlink:href="#DejaVuSans-116"/>
      <use x="177.392578" xlink:href="#DejaVuSans-32"/>
      <use x="209.179688" xlink:href="#DejaVuSans-80"/>
      <use x="267.732422" xlink:href="#DejaVuSans-114"/>
      <use x="306.595703" xlink:href="#DejaVuSans-111"/>
      <use x="367.777344" xlink:href="#DejaVuSans-100"/>
      <use x="431.253906" xlink:href="#DejaVuSans-46"/>
     </g>
    </g>
   </g>
  </g>
 </g>
 <defs>
  <clipPath id="p3e71e3efaf">
   <rect height="332.64" width="446.4" x="72" y="51.84"/>
  </clipPath>
 </defs>
</svg>
