<?xml version="1.0" encoding="utf-8" standalone="no"?>
<!DOCTYPE svg PUBLIC "-//W3C//DTD SVG 1.1//EN"
  "http://www.w3.org/Graphics/SVG/1.1/DTD/svg11.dtd">
<!-- Created with matplotlib (https://matplotlib.org/) -->
<svg height="432pt" version="1.1" viewBox="0 0 576 432" width="576pt" xmlns="http://www.w3.org/2000/svg" xmlns:xlink="http://www.w3.org/1999/xlink">
 <defs>
  <style type="text/css">
*{stroke-linecap:butt;stroke-linejoin:round;}
  </style>
 </defs>
 <g id="figure_1">
  <g id="patch_1">
   <path d="M 0 432 
L 576 432 
L 576 0 
L 0 0 
z
" style="fill:#ffffff;"/>
  </g>
  <g id="axes_1">
   <g id="patch_2">
    <path d="M 72 384.48 
L 518.4 384.48 
L 518.4 51.84 
L 72 51.84 
z
" style="fill:#ffffff;"/>
   </g>
   <g id="PolyCollection_1">
    <path clip-path="url(#p1120eeb03c)" d="M 72 59.522436 
L 72 56.75015 
L 80.928 56.849833 
L 89.856 57.632717 
L 98.784 58.231595 
L 107.712 58.231529 
L 116.64 58.475648 
L 125.568 58.533261 
L 134.496 58.410533 
L 143.424 57.747266 
L 152.352 58.117982 
L 161.28 57.626753 
L 170.208 58.345226 
L 179.136 58.35178 
L 188.064 57.707141 
L 196.992 58.627219 
L 205.92 58.301536 
L 214.848 58.184671 
L 223.776 58.71277 
L 232.704 58.201408 
L 241.632 57.97547 
L 250.56 58.273984 
L 259.488 58.675495 
L 268.416 58.484921 
L 277.344 58.124636 
L 286.272 58.529408 
L 295.2 58.879545 
L 304.128 58.733346 
L 313.056 58.455152 
L 321.984 58.933239 
L 330.912 57.223583 
L 339.84 56.923781 
L 348.768 57.393602 
L 357.696 58.58531 
L 366.624 58.317696 
L 375.552 58.210781 
L 384.48 57.836595 
L 393.408 57.792968 
L 402.336 57.244522 
L 411.264 57.444946 
L 420.192 56.615608 
L 429.12 57.879292 
L 438.048 57.850531 
L 446.976 58.345821 
L 455.904 58.171127 
L 464.832 57.990609 
L 473.76 58.128831 
L 482.688 55.542913 
L 491.616 56.261168 
L 500.544 57.442347 
L 509.472 58.065726 
L 518.4 57.543457 
L 518.4 59.381431 
L 518.4 59.381431 
L 509.472 59.393964 
L 500.544 59.598263 
L 491.616 59.803142 
L 482.688 59.561284 
L 473.76 59.372316 
L 464.832 59.354938 
L 455.904 59.342934 
L 446.976 59.226841 
L 438.048 59.358146 
L 429.12 59.568 
L 420.192 59.721993 
L 411.264 59.722293 
L 402.336 59.729592 
L 393.408 59.236804 
L 384.48 59.430423 
L 375.552 59.276026 
L 366.624 59.181267 
L 357.696 59.218865 
L 348.768 59.391683 
L 339.84 59.350981 
L 330.912 59.468541 
L 321.984 59.046739 
L 313.056 59.38087 
L 304.128 59.152369 
L 295.2 59.045606 
L 286.272 59.232658 
L 277.344 59.453037 
L 268.416 59.201094 
L 259.488 59.129838 
L 250.56 59.322597 
L 241.632 59.549596 
L 232.704 59.313788 
L 223.776 59.027341 
L 214.848 59.226062 
L 205.92 59.111832 
L 196.992 59.052179 
L 188.064 59.317817 
L 179.136 59.008105 
L 170.208 59.030446 
L 161.28 59.308604 
L 152.352 59.202781 
L 143.424 58.999359 
L 134.496 59.147758 
L 125.568 59.153141 
L 116.64 59.122788 
L 107.712 59.286022 
L 98.784 59.128145 
L 89.856 59.242217 
L 80.928 59.382179 
L 72 59.522436 
z
" style="fill:#1f77b4;fill-opacity:0.3;"/>
   </g>
   <g id="PolyCollection_2">
    <path clip-path="url(#p1120eeb03c)" d="M 72 63.848477 
L 72 54.72207 
L 80.928 62.629678 
L 89.856 66.171767 
L 98.784 70.95458 
L 107.712 83.688758 
L 116.64 90.157781 
L 125.568 95.975879 
L 134.496 103.285519 
L 143.424 105.955814 
L 152.352 112.631485 
L 161.28 112.893492 
L 170.208 94.875845 
L 179.136 83.57118 
L 188.064 59.079633 
L 196.992 68.438162 
L 205.92 44.314928 
L 214.848 34.692422 
L 223.776 31.356359 
L 232.704 30.769615 
L 241.632 31.793229 
L 250.56 33.642772 
L 259.488 31.270997 
L 268.416 30.869997 
L 277.344 35.523909 
L 286.272 33.880102 
L 295.2 39.721552 
L 304.128 38.680407 
L 313.056 38.74144 
L 321.984 36.375891 
L 330.912 38.691678 
L 339.84 39.852387 
L 348.768 38.501273 
L 357.696 38.622865 
L 366.624 31.112175 
L 375.552 34.881174 
L 384.48 31.860565 
L 393.408 37.814989 
L 402.336 35.011608 
L 411.264 51.503641 
L 420.192 51.508541 
L 429.12 38.507011 
L 438.048 51.518461 
L 446.976 51.523406 
L 455.904 51.528367 
L 464.832 47.523182 
L 473.76 51.538308 
L 482.688 51.543316 
L 491.616 37.904142 
L 500.544 31.889233 
L 509.472 38.480059 
L 518.4 34.077449 
L 518.4 78.059477 
L 518.4 78.059477 
L 509.472 69.035463 
L 500.544 84.54194 
L 491.616 69.778087 
L 482.688 51.576225 
L 473.76 51.571213 
L 464.832 56.917296 
L 455.904 51.561099 
L 446.976 51.556133 
L 438.048 51.551182 
L 429.12 68.892457 
L 420.192 51.541597 
L 411.264 51.53669 
L 402.336 76.484263 
L 393.408 69.768484 
L 384.48 87.35224 
L 375.552 76.642272 
L 366.624 88.924424 
L 357.696 68.646854 
L 348.768 68.796431 
L 339.84 66.984878 
L 330.912 68.521296 
L 321.984 74.309964 
L 313.056 68.433476 
L 304.128 68.502415 
L 295.2 67.104339 
L 286.272 82.220519 
L 277.344 75.532349 
L 268.416 96.071725 
L 259.488 95.166402 
L 250.56 121.775088 
L 241.632 111.714873 
L 232.704 96.234437 
L 223.776 99.123934 
L 214.848 123.487682 
L 205.92 138.025189 
L 196.992 156.343146 
L 188.064 148.307242 
L 179.136 149.801057 
L 170.208 147.270774 
L 161.28 137.76014 
L 152.352 124.965133 
L 143.424 120.346036 
L 134.496 117.526117 
L 125.568 106.878085 
L 116.64 100.455861 
L 107.712 99.93398 
L 98.784 88.3891 
L 89.856 81.1598 
L 80.928 73.731694 
L 72 63.848477 
z
" style="fill:#ff7f0e;fill-opacity:0.3;"/>
   </g>
   <g id="PolyCollection_3">
    <path clip-path="url(#p1120eeb03c)" d="M 72 67.736131 
L 72 57.040215 
L 80.928 69.869193 
L 89.856 75.274604 
L 98.784 76.7346 
L 107.712 81.861431 
L 116.64 86.883305 
L 125.568 91.785533 
L 134.496 92.754653 
L 143.424 93.257766 
L 152.352 95.479295 
L 161.28 100.543211 
L 170.208 106.196426 
L 179.136 109.02979 
L 188.064 111.270013 
L 196.992 114.496568 
L 205.92 115.543264 
L 214.848 116.686827 
L 223.776 118.7806 
L 232.704 122.18547 
L 241.632 123.34204 
L 250.56 125.110622 
L 259.488 126.495808 
L 268.416 128.282399 
L 277.344 129.190172 
L 286.272 130.87268 
L 295.2 131.834439 
L 304.128 134.57166 
L 313.056 135.119356 
L 321.984 137.402628 
L 330.912 139.824257 
L 339.84 140.871922 
L 348.768 142.23953 
L 357.696 145.321793 
L 366.624 146.151992 
L 375.552 146.585444 
L 384.48 147.505073 
L 393.408 148.260248 
L 402.336 149.272772 
L 411.264 149.950971 
L 420.192 150.489997 
L 429.12 150.753534 
L 438.048 151.362954 
L 446.976 151.422896 
L 455.904 152.142288 
L 464.832 153.35864 
L 473.76 154.245518 
L 482.688 155.247465 
L 491.616 156.894611 
L 500.544 157.549548 
L 509.472 158.218933 
L 518.4 158.663017 
L 518.4 171.049967 
L 518.4 171.049967 
L 509.472 170.926849 
L 500.544 170.033103 
L 491.616 169.454989 
L 482.688 167.93125 
L 473.76 167.411957 
L 464.832 166.333615 
L 455.904 164.728864 
L 446.976 163.020974 
L 438.048 162.195718 
L 429.12 161.963631 
L 420.192 159.409709 
L 411.264 158.501718 
L 402.336 156.83121 
L 393.408 156.252061 
L 384.48 154.964862 
L 375.552 153.727298 
L 366.624 153.034791 
L 357.696 151.651122 
L 348.768 150.424055 
L 339.84 150.063997 
L 330.912 149.76485 
L 321.984 149.04387 
L 313.056 147.823165 
L 304.128 147.21258 
L 295.2 145.276591 
L 286.272 144.80718 
L 277.344 143.334312 
L 268.416 142.549585 
L 259.488 141.386401 
L 250.56 140.678846 
L 241.632 139.2511 
L 232.704 138.231392 
L 223.776 133.671899 
L 214.848 130.361672 
L 205.92 126.246098 
L 196.992 122.350018 
L 188.064 121.873922 
L 179.136 120.269955 
L 170.208 117.836835 
L 161.28 115.918526 
L 152.352 112.470128 
L 143.424 109.661956 
L 134.496 105.157655 
L 125.568 100.132215 
L 116.64 98.856514 
L 107.712 94.748479 
L 98.784 90.175123 
L 89.856 80.145746 
L 80.928 79.557706 
L 72 67.736131 
z
" style="fill:#2ca02c;fill-opacity:0.3;"/>
   </g>
   <g id="PolyCollection_4">
    <path clip-path="url(#p1120eeb03c)" d="M 72 66.408888 
L 72 55.409586 
L 80.928 64.143748 
L 89.856 72.733946 
L 98.784 74.206854 
L 107.712 85.129215 
L 116.64 90.07735 
L 125.568 99.704142 
L 134.496 101.998501 
L 143.424 105.420132 
L 152.352 108.133102 
L 161.28 118.071418 
L 170.208 120.256297 
L 179.136 123.794511 
L 188.064 128.315546 
L 196.992 137.325611 
L 205.92 142.011069 
L 214.848 147.204029 
L 223.776 149.898782 
L 232.704 150.32538 
L 241.632 154.338733 
L 250.56 156.071607 
L 259.488 158.312464 
L 268.416 160.328518 
L 277.344 165.431331 
L 286.272 170.782911 
L 295.2 177.381657 
L 304.128 178.527998 
L 313.056 180.366878 
L 321.984 187.967854 
L 330.912 191.556466 
L 339.84 196.151066 
L 348.768 198.655051 
L 357.696 200.485895 
L 366.624 206.79182 
L 375.552 209.389956 
L 384.48 211.182708 
L 393.408 214.254468 
L 402.336 215.929216 
L 411.264 216.914893 
L 420.192 217.882988 
L 429.12 218.634051 
L 438.048 218.513498 
L 446.976 218.51154 
L 455.904 219.982756 
L 464.832 220.244592 
L 473.76 221.256799 
L 482.688 221.458589 
L 491.616 222.479965 
L 500.544 225.749411 
L 509.472 226.66198 
L 518.4 227.575047 
L 518.4 251.842745 
L 518.4 251.842745 
L 509.472 250.135614 
L 500.544 247.281783 
L 491.616 245.29658 
L 482.688 241.418506 
L 473.76 240.556616 
L 464.832 238.510505 
L 455.904 236.85865 
L 446.976 234.230153 
L 438.048 233.789438 
L 429.12 232.147132 
L 420.192 231.147899 
L 411.264 229.83923 
L 402.336 229.525082 
L 393.408 226.648486 
L 384.48 225.728073 
L 375.552 224.70713 
L 366.624 223.581553 
L 357.696 220.252213 
L 348.768 217.360918 
L 339.84 215.203876 
L 330.912 213.480764 
L 321.984 211.830995 
L 313.056 206.710726 
L 304.128 206.227895 
L 295.2 203.978939 
L 286.272 200.740263 
L 277.344 197.532242 
L 268.416 190.338467 
L 259.488 185.402633 
L 250.56 181.138627 
L 241.632 179.47108 
L 232.704 172.565796 
L 223.776 171.089002 
L 214.848 165.892555 
L 205.92 159.257511 
L 196.992 152.676343 
L 188.064 148.563283 
L 179.136 144.472897 
L 170.208 139.862369 
L 161.28 136.019453 
L 152.352 127.0135 
L 143.424 123.080539 
L 134.496 117.995562 
L 125.568 110.66583 
L 116.64 105.49397 
L 107.712 100.873767 
L 98.784 91.255878 
L 89.856 82.465323 
L 80.928 77.666837 
L 72 66.408888 
z
" style="fill:#d62728;fill-opacity:0.3;"/>
   </g>
   <g id="PolyCollection_5">
    <path clip-path="url(#p1120eeb03c)" d="M 72 65.709939 
L 72 55.027832 
L 80.928 63.480859 
L 89.856 69.561631 
L 98.784 74.428819 
L 107.712 80.383175 
L 116.64 88.709904 
L 125.568 97.554689 
L 134.496 101.780903 
L 143.424 107.443995 
L 152.352 108.05573 
L 161.28 124.993314 
L 170.208 127.476791 
L 179.136 129.588547 
L 188.064 134.643735 
L 196.992 141.576195 
L 205.92 149.965584 
L 214.848 157.14948 
L 223.776 160.799719 
L 232.704 162.276041 
L 241.632 163.943354 
L 250.56 165.516659 
L 259.488 170.729301 
L 268.416 174.32083 
L 277.344 177.638486 
L 286.272 186.170526 
L 295.2 191.554402 
L 304.128 200.369092 
L 313.056 203.214311 
L 321.984 207.322385 
L 330.912 214.408114 
L 339.84 217.919762 
L 348.768 222.970796 
L 357.696 228.619151 
L 366.624 233.686686 
L 375.552 237.876299 
L 384.48 240.719994 
L 393.408 243.153385 
L 402.336 244.719499 
L 411.264 246.602232 
L 420.192 248.758938 
L 429.12 249.884209 
L 438.048 250.566918 
L 446.976 252.065253 
L 455.904 254.17124 
L 464.832 255.850552 
L 473.76 257.222943 
L 482.688 259.194341 
L 491.616 263.860162 
L 500.544 264.762558 
L 509.472 265.888889 
L 518.4 266.660634 
L 518.4 285.073237 
L 518.4 285.073237 
L 509.472 284.456953 
L 500.544 284.080983 
L 491.616 282.345188 
L 482.688 278.597508 
L 473.76 276.497148 
L 464.832 275.356874 
L 455.904 273.747365 
L 446.976 271.437008 
L 438.048 268.716709 
L 429.12 266.756243 
L 420.192 265.695551 
L 411.264 261.820049 
L 402.336 260.188006 
L 393.408 258.80586 
L 384.48 257.475278 
L 375.552 254.175935 
L 366.624 250.436331 
L 357.696 248.961397 
L 348.768 242.522106 
L 339.84 239.305263 
L 330.912 234.178759 
L 321.984 229.033989 
L 313.056 227.32168 
L 304.128 224.249452 
L 295.2 218.996471 
L 286.272 215.661848 
L 277.344 209.921983 
L 268.416 205.309625 
L 259.488 203.451407 
L 250.56 193.032335 
L 241.632 187.311064 
L 232.704 183.189141 
L 223.776 180.082893 
L 214.848 175.599684 
L 205.92 170.03327 
L 196.992 161.931519 
L 188.064 157.376247 
L 179.136 150.992505 
L 170.208 148.112971 
L 161.28 144.017123 
L 152.352 131.919716 
L 143.424 129.361048 
L 134.496 125.415967 
L 125.568 118.472111 
L 116.64 110.284617 
L 107.712 106.276316 
L 98.784 93.542943 
L 89.856 82.521013 
L 80.928 76.25002 
L 72 65.709939 
z
" style="fill:#9467bd;fill-opacity:0.3;"/>
   </g>
   <g id="PolyCollection_6">
    <path clip-path="url(#p1120eeb03c)" d="M 72 66.857784 
L 72 56.19208 
L 80.928 62.655586 
L 89.856 68.405961 
L 98.784 73.785892 
L 107.712 76.695882 
L 116.64 82.161792 
L 125.568 95.979128 
L 134.496 100.748076 
L 143.424 104.110643 
L 152.352 108.791337 
L 161.28 120.187717 
L 170.208 122.935661 
L 179.136 128.969248 
L 188.064 132.795688 
L 196.992 147.749247 
L 205.92 151.548951 
L 214.848 154.838154 
L 223.776 160.266284 
L 232.704 166.820962 
L 241.632 170.9317 
L 250.56 175.979734 
L 259.488 182.670702 
L 268.416 188.75044 
L 277.344 194.218792 
L 286.272 201.351367 
L 295.2 205.817205 
L 304.128 213.690791 
L 313.056 219.679407 
L 321.984 224.746522 
L 330.912 228.352288 
L 339.84 233.127452 
L 348.768 239.83588 
L 357.696 245.212663 
L 366.624 253.310292 
L 375.552 258.755304 
L 384.48 262.411143 
L 393.408 267.93625 
L 402.336 269.184048 
L 411.264 275.86194 
L 420.192 277.339532 
L 429.12 280.581581 
L 438.048 281.589266 
L 446.976 282.607218 
L 455.904 282.444313 
L 464.832 283.071143 
L 473.76 283.733476 
L 482.688 283.970704 
L 491.616 284.596651 
L 500.544 284.998083 
L 509.472 284.889476 
L 518.4 284.843964 
L 518.4 317.350867 
L 518.4 317.350867 
L 509.472 316.745337 
L 500.544 314.126144 
L 491.616 314.235882 
L 482.688 312.06657 
L 473.76 313.51267 
L 464.832 311.37558 
L 455.904 308.634906 
L 446.976 309.014234 
L 438.048 307.848878 
L 429.12 305.951045 
L 420.192 304.190758 
L 411.264 300.5274 
L 402.336 296.58295 
L 393.408 291.942586 
L 384.48 286.279679 
L 375.552 280.864451 
L 366.624 275.539494 
L 357.696 270.075782 
L 348.768 259.8642 
L 339.84 253.199084 
L 330.912 250.75085 
L 321.984 246.631271 
L 313.056 239.414605 
L 304.128 233.884084 
L 295.2 226.384825 
L 286.272 218.652052 
L 277.344 213.653526 
L 268.416 204.693992 
L 259.488 199.969494 
L 250.56 195.985704 
L 241.632 191.699525 
L 232.704 187.395752 
L 223.776 181.232419 
L 214.848 176.806388 
L 205.92 173.090459 
L 196.992 167.067211 
L 188.064 154.08644 
L 179.136 146.111303 
L 170.208 141.414604 
L 161.28 137.705331 
L 152.352 126.430145 
L 143.424 121.259555 
L 134.496 112.986192 
L 125.568 111.191142 
L 116.64 99.78313 
L 107.712 90.736744 
L 98.784 86.459022 
L 89.856 79.768205 
L 80.928 74.331314 
L 72 66.857784 
z
" style="fill:#8c564b;fill-opacity:0.3;"/>
   </g>
   <g id="PolyCollection_7">
    <path clip-path="url(#p1120eeb03c)" d="M 72 63.788957 
L 72 56.926217 
L 80.928 59.872217 
L 89.856 59.667247 
L 98.784 59.965101 
L 107.712 59.954841 
L 116.64 59.943394 
L 125.568 60.232495 
L 134.496 60.153963 
L 143.424 60.198648 
L 152.352 60.157507 
L 161.28 60.050157 
L 170.208 59.97579 
L 179.136 59.913012 
L 188.064 59.891027 
L 196.992 59.889809 
L 205.92 59.882355 
L 214.848 59.855272 
L 223.776 59.846886 
L 232.704 59.804484 
L 241.632 59.765424 
L 250.56 59.709672 
L 259.488 59.732009 
L 268.416 59.728033 
L 277.344 59.683317 
L 286.272 59.688856 
L 295.2 59.654336 
L 304.128 59.661212 
L 313.056 59.642556 
L 321.984 59.600222 
L 330.912 59.564558 
L 339.84 59.52248 
L 348.768 59.508319 
L 357.696 59.503714 
L 366.624 59.486147 
L 375.552 59.492714 
L 384.48 59.498408 
L 393.408 59.491129 
L 402.336 59.497449 
L 411.264 59.479523 
L 420.192 59.474695 
L 429.12 59.472458 
L 438.048 59.460408 
L 446.976 59.445289 
L 455.904 59.443112 
L 464.832 59.424712 
L 473.76 59.425501 
L 482.688 59.433234 
L 491.616 59.422389 
L 500.544 59.440748 
L 509.472 59.43361 
L 518.4 59.417551 
L 518.4 60.493644 
L 518.4 60.493644 
L 509.472 60.504551 
L 500.544 60.502182 
L 491.616 60.521353 
L 482.688 60.551187 
L 473.76 60.537248 
L 464.832 60.537249 
L 455.904 60.562933 
L 446.976 60.580434 
L 438.048 60.626412 
L 429.12 60.662166 
L 420.192 60.643582 
L 411.264 60.690625 
L 402.336 60.708718 
L 393.408 60.752311 
L 384.48 60.76717 
L 375.552 60.794552 
L 366.624 60.824676 
L 357.696 60.864884 
L 348.768 60.894556 
L 339.84 60.924912 
L 330.912 60.930133 
L 321.984 60.928593 
L 313.056 60.968803 
L 304.128 61.014224 
L 295.2 61.044764 
L 286.272 61.05424 
L 277.344 61.08421 
L 268.416 61.094725 
L 259.488 61.143013 
L 250.56 61.127466 
L 241.632 61.162742 
L 232.704 61.165022 
L 223.776 61.14197 
L 214.848 61.193612 
L 205.92 61.245559 
L 196.992 61.351996 
L 188.064 61.457969 
L 179.136 61.485775 
L 170.208 61.520567 
L 161.28 61.587301 
L 152.352 61.657895 
L 143.424 61.667594 
L 134.496 61.796902 
L 125.568 61.867507 
L 116.64 61.959333 
L 107.712 62.044129 
L 98.784 62.204448 
L 89.856 62.233744 
L 80.928 62.250388 
L 72 63.788957 
z
" style="fill:#e377c2;fill-opacity:0.3;"/>
   </g>
   <g id="matplotlib.axis_1">
    <g id="xtick_1">
     <g id="line2d_1">
      <path clip-path="url(#p1120eeb03c)" d="M 72 384.48 
L 72 51.84 
" style="fill:none;stroke:#b0b0b0;stroke-linecap:square;stroke-width:0.8;"/>
     </g>
     <g id="line2d_2">
      <defs>
       <path d="M 0 0 
L 0 3.5 
" id="m6294f44eaa" style="stroke:#000000;stroke-width:0.8;"/>
      </defs>
      <g>
       <use style="stroke:#000000;stroke-width:0.8;" x="72" xlink:href="#m6294f44eaa" y="384.48"/>
      </g>
     </g>
     <g id="text_1">
      <!-- 0 -->
      <defs>
       <path d="M 31.78125 66.40625 
Q 24.171875 66.40625 20.328125 58.90625 
Q 16.5 51.421875 16.5 36.375 
Q 16.5 21.390625 20.328125 13.890625 
Q 24.171875 6.390625 31.78125 6.390625 
Q 39.453125 6.390625 43.28125 13.890625 
Q 47.125 21.390625 47.125 36.375 
Q 47.125 51.421875 43.28125 58.90625 
Q 39.453125 66.40625 31.78125 66.40625 
z
M 31.78125 74.21875 
Q 44.046875 74.21875 50.515625 64.515625 
Q 56.984375 54.828125 56.984375 36.375 
Q 56.984375 17.96875 50.515625 8.265625 
Q 44.046875 -1.421875 31.78125 -1.421875 
Q 19.53125 -1.421875 13.0625 8.265625 
Q 6.59375 17.96875 6.59375 36.375 
Q 6.59375 54.828125 13.0625 64.515625 
Q 19.53125 74.21875 31.78125 74.21875 
z
" id="DejaVuSans-48"/>
      </defs>
      <g transform="translate(68.81875 399.078438)scale(0.1 -0.1)">
       <use xlink:href="#DejaVuSans-48"/>
      </g>
     </g>
    </g>
    <g id="xtick_2">
     <g id="line2d_3">
      <path clip-path="url(#p1120eeb03c)" d="M 161.28 384.48 
L 161.28 51.84 
" style="fill:none;stroke:#b0b0b0;stroke-linecap:square;stroke-width:0.8;"/>
     </g>
     <g id="line2d_4">
      <g>
       <use style="stroke:#000000;stroke-width:0.8;" x="161.28" xlink:href="#m6294f44eaa" y="384.48"/>
      </g>
     </g>
     <g id="text_2">
      <!-- 10 -->
      <defs>
       <path d="M 12.40625 8.296875 
L 28.515625 8.296875 
L 28.515625 63.921875 
L 10.984375 60.40625 
L 10.984375 69.390625 
L 28.421875 72.90625 
L 38.28125 72.90625 
L 38.28125 8.296875 
L 54.390625 8.296875 
L 54.390625 0 
L 12.40625 0 
z
" id="DejaVuSans-49"/>
      </defs>
      <g transform="translate(154.9175 399.078438)scale(0.1 -0.1)">
       <use xlink:href="#DejaVuSans-49"/>
       <use x="63.623047" xlink:href="#DejaVuSans-48"/>
      </g>
     </g>
    </g>
    <g id="xtick_3">
     <g id="line2d_5">
      <path clip-path="url(#p1120eeb03c)" d="M 250.56 384.48 
L 250.56 51.84 
" style="fill:none;stroke:#b0b0b0;stroke-linecap:square;stroke-width:0.8;"/>
     </g>
     <g id="line2d_6">
      <g>
       <use style="stroke:#000000;stroke-width:0.8;" x="250.56" xlink:href="#m6294f44eaa" y="384.48"/>
      </g>
     </g>
     <g id="text_3">
      <!-- 20 -->
      <defs>
       <path d="M 19.1875 8.296875 
L 53.609375 8.296875 
L 53.609375 0 
L 7.328125 0 
L 7.328125 8.296875 
Q 12.9375 14.109375 22.625 23.890625 
Q 32.328125 33.6875 34.8125 36.53125 
Q 39.546875 41.84375 41.421875 45.53125 
Q 43.3125 49.21875 43.3125 52.78125 
Q 43.3125 58.59375 39.234375 62.25 
Q 35.15625 65.921875 28.609375 65.921875 
Q 23.96875 65.921875 18.8125 64.3125 
Q 13.671875 62.703125 7.8125 59.421875 
L 7.8125 69.390625 
Q 13.765625 71.78125 18.9375 73 
Q 24.125 74.21875 28.421875 74.21875 
Q 39.75 74.21875 46.484375 68.546875 
Q 53.21875 62.890625 53.21875 53.421875 
Q 53.21875 48.921875 51.53125 44.890625 
Q 49.859375 40.875 45.40625 35.40625 
Q 44.1875 33.984375 37.640625 27.21875 
Q 31.109375 20.453125 19.1875 8.296875 
z
" id="DejaVuSans-50"/>
      </defs>
      <g transform="translate(244.1975 399.078438)scale(0.1 -0.1)">
       <use xlink:href="#DejaVuSans-50"/>
       <use x="63.623047" xlink:href="#DejaVuSans-48"/>
      </g>
     </g>
    </g>
    <g id="xtick_4">
     <g id="line2d_7">
      <path clip-path="url(#p1120eeb03c)" d="M 339.84 384.48 
L 339.84 51.84 
" style="fill:none;stroke:#b0b0b0;stroke-linecap:square;stroke-width:0.8;"/>
     </g>
     <g id="line2d_8">
      <g>
       <use style="stroke:#000000;stroke-width:0.8;" x="339.84" xlink:href="#m6294f44eaa" y="384.48"/>
      </g>
     </g>
     <g id="text_4">
      <!-- 30 -->
      <defs>
       <path d="M 40.578125 39.3125 
Q 47.65625 37.796875 51.625 33 
Q 55.609375 28.21875 55.609375 21.1875 
Q 55.609375 10.40625 48.1875 4.484375 
Q 40.765625 -1.421875 27.09375 -1.421875 
Q 22.515625 -1.421875 17.65625 -0.515625 
Q 12.796875 0.390625 7.625 2.203125 
L 7.625 11.71875 
Q 11.71875 9.328125 16.59375 8.109375 
Q 21.484375 6.890625 26.8125 6.890625 
Q 36.078125 6.890625 40.9375 10.546875 
Q 45.796875 14.203125 45.796875 21.1875 
Q 45.796875 27.640625 41.28125 31.265625 
Q 36.765625 34.90625 28.71875 34.90625 
L 20.21875 34.90625 
L 20.21875 43.015625 
L 29.109375 43.015625 
Q 36.375 43.015625 40.234375 45.921875 
Q 44.09375 48.828125 44.09375 54.296875 
Q 44.09375 59.90625 40.109375 62.90625 
Q 36.140625 65.921875 28.71875 65.921875 
Q 24.65625 65.921875 20.015625 65.03125 
Q 15.375 64.15625 9.8125 62.3125 
L 9.8125 71.09375 
Q 15.4375 72.65625 20.34375 73.4375 
Q 25.25 74.21875 29.59375 74.21875 
Q 40.828125 74.21875 47.359375 69.109375 
Q 53.90625 64.015625 53.90625 55.328125 
Q 53.90625 49.265625 50.4375 45.09375 
Q 46.96875 40.921875 40.578125 39.3125 
z
" id="DejaVuSans-51"/>
      </defs>
      <g transform="translate(333.4775 399.078438)scale(0.1 -0.1)">
       <use xlink:href="#DejaVuSans-51"/>
       <use x="63.623047" xlink:href="#DejaVuSans-48"/>
      </g>
     </g>
    </g>
    <g id="xtick_5">
     <g id="line2d_9">
      <path clip-path="url(#p1120eeb03c)" d="M 429.12 384.48 
L 429.12 51.84 
" style="fill:none;stroke:#b0b0b0;stroke-linecap:square;stroke-width:0.8;"/>
     </g>
     <g id="line2d_10">
      <g>
       <use style="stroke:#000000;stroke-width:0.8;" x="429.12" xlink:href="#m6294f44eaa" y="384.48"/>
      </g>
     </g>
     <g id="text_5">
      <!-- 40 -->
      <defs>
       <path d="M 37.796875 64.3125 
L 12.890625 25.390625 
L 37.796875 25.390625 
z
M 35.203125 72.90625 
L 47.609375 72.90625 
L 47.609375 25.390625 
L 58.015625 25.390625 
L 58.015625 17.1875 
L 47.609375 17.1875 
L 47.609375 0 
L 37.796875 0 
L 37.796875 17.1875 
L 4.890625 17.1875 
L 4.890625 26.703125 
z
" id="DejaVuSans-52"/>
      </defs>
      <g transform="translate(422.7575 399.078438)scale(0.1 -0.1)">
       <use xlink:href="#DejaVuSans-52"/>
       <use x="63.623047" xlink:href="#DejaVuSans-48"/>
      </g>
     </g>
    </g>
    <g id="xtick_6">
     <g id="line2d_11">
      <path clip-path="url(#p1120eeb03c)" d="M 518.4 384.48 
L 518.4 51.84 
" style="fill:none;stroke:#b0b0b0;stroke-linecap:square;stroke-width:0.8;"/>
     </g>
     <g id="line2d_12">
      <g>
       <use style="stroke:#000000;stroke-width:0.8;" x="518.4" xlink:href="#m6294f44eaa" y="384.48"/>
      </g>
     </g>
     <g id="text_6">
      <!-- 50 -->
      <defs>
       <path d="M 10.796875 72.90625 
L 49.515625 72.90625 
L 49.515625 64.59375 
L 19.828125 64.59375 
L 19.828125 46.734375 
Q 21.96875 47.46875 24.109375 47.828125 
Q 26.265625 48.1875 28.421875 48.1875 
Q 40.625 48.1875 47.75 41.5 
Q 54.890625 34.8125 54.890625 23.390625 
Q 54.890625 11.625 47.5625 5.09375 
Q 40.234375 -1.421875 26.90625 -1.421875 
Q 22.3125 -1.421875 17.546875 -0.640625 
Q 12.796875 0.140625 7.71875 1.703125 
L 7.71875 11.625 
Q 12.109375 9.234375 16.796875 8.0625 
Q 21.484375 6.890625 26.703125 6.890625 
Q 35.15625 6.890625 40.078125 11.328125 
Q 45.015625 15.765625 45.015625 23.390625 
Q 45.015625 31 40.078125 35.4375 
Q 35.15625 39.890625 26.703125 39.890625 
Q 22.75 39.890625 18.8125 39.015625 
Q 14.890625 38.140625 10.796875 36.28125 
z
" id="DejaVuSans-53"/>
      </defs>
      <g transform="translate(512.0375 399.078438)scale(0.1 -0.1)">
       <use xlink:href="#DejaVuSans-53"/>
       <use x="63.623047" xlink:href="#DejaVuSans-48"/>
      </g>
     </g>
    </g>
    <g id="text_7">
     <!-- Iteration -->
     <defs>
      <path d="M 9.8125 72.90625 
L 19.671875 72.90625 
L 19.671875 0 
L 9.8125 0 
z
" id="DejaVuSans-73"/>
      <path d="M 18.3125 70.21875 
L 18.3125 54.6875 
L 36.8125 54.6875 
L 36.8125 47.703125 
L 18.3125 47.703125 
L 18.3125 18.015625 
Q 18.3125 11.328125 20.140625 9.421875 
Q 21.96875 7.515625 27.59375 7.515625 
L 36.8125 7.515625 
L 36.8125 0 
L 27.59375 0 
Q 17.1875 0 13.234375 3.875 
Q 9.28125 7.765625 9.28125 18.015625 
L 9.28125 47.703125 
L 2.6875 47.703125 
L 2.6875 54.6875 
L 9.28125 54.6875 
L 9.28125 70.21875 
z
" id="DejaVuSans-116"/>
      <path d="M 56.203125 29.59375 
L 56.203125 25.203125 
L 14.890625 25.203125 
Q 15.484375 15.921875 20.484375 11.0625 
Q 25.484375 6.203125 34.421875 6.203125 
Q 39.59375 6.203125 44.453125 7.46875 
Q 49.3125 8.734375 54.109375 11.28125 
L 54.109375 2.78125 
Q 49.265625 0.734375 44.1875 -0.34375 
Q 39.109375 -1.421875 33.890625 -1.421875 
Q 20.796875 -1.421875 13.15625 6.1875 
Q 5.515625 13.8125 5.515625 26.8125 
Q 5.515625 40.234375 12.765625 48.109375 
Q 20.015625 56 32.328125 56 
Q 43.359375 56 49.78125 48.890625 
Q 56.203125 41.796875 56.203125 29.59375 
z
M 47.21875 32.234375 
Q 47.125 39.59375 43.09375 43.984375 
Q 39.0625 48.390625 32.421875 48.390625 
Q 24.90625 48.390625 20.390625 44.140625 
Q 15.875 39.890625 15.1875 32.171875 
z
" id="DejaVuSans-101"/>
      <path d="M 41.109375 46.296875 
Q 39.59375 47.171875 37.8125 47.578125 
Q 36.03125 48 33.890625 48 
Q 26.265625 48 22.1875 43.046875 
Q 18.109375 38.09375 18.109375 28.8125 
L 18.109375 0 
L 9.078125 0 
L 9.078125 54.6875 
L 18.109375 54.6875 
L 18.109375 46.1875 
Q 20.953125 51.171875 25.484375 53.578125 
Q 30.03125 56 36.53125 56 
Q 37.453125 56 38.578125 55.875 
Q 39.703125 55.765625 41.0625 55.515625 
z
" id="DejaVuSans-114"/>
      <path d="M 34.28125 27.484375 
Q 23.390625 27.484375 19.1875 25 
Q 14.984375 22.515625 14.984375 16.5 
Q 14.984375 11.71875 18.140625 8.90625 
Q 21.296875 6.109375 26.703125 6.109375 
Q 34.1875 6.109375 38.703125 11.40625 
Q 43.21875 16.703125 43.21875 25.484375 
L 43.21875 27.484375 
z
M 52.203125 31.203125 
L 52.203125 0 
L 43.21875 0 
L 43.21875 8.296875 
Q 40.140625 3.328125 35.546875 0.953125 
Q 30.953125 -1.421875 24.3125 -1.421875 
Q 15.921875 -1.421875 10.953125 3.296875 
Q 6 8.015625 6 15.921875 
Q 6 25.140625 12.171875 29.828125 
Q 18.359375 34.515625 30.609375 34.515625 
L 43.21875 34.515625 
L 43.21875 35.40625 
Q 43.21875 41.609375 39.140625 45 
Q 35.0625 48.390625 27.6875 48.390625 
Q 23 48.390625 18.546875 47.265625 
Q 14.109375 46.140625 10.015625 43.890625 
L 10.015625 52.203125 
Q 14.9375 54.109375 19.578125 55.046875 
Q 24.21875 56 28.609375 56 
Q 40.484375 56 46.34375 49.84375 
Q 52.203125 43.703125 52.203125 31.203125 
z
" id="DejaVuSans-97"/>
      <path d="M 9.421875 54.6875 
L 18.40625 54.6875 
L 18.40625 0 
L 9.421875 0 
z
M 9.421875 75.984375 
L 18.40625 75.984375 
L 18.40625 64.59375 
L 9.421875 64.59375 
z
" id="DejaVuSans-105"/>
      <path d="M 30.609375 48.390625 
Q 23.390625 48.390625 19.1875 42.75 
Q 14.984375 37.109375 14.984375 27.296875 
Q 14.984375 17.484375 19.15625 11.84375 
Q 23.34375 6.203125 30.609375 6.203125 
Q 37.796875 6.203125 41.984375 11.859375 
Q 46.1875 17.53125 46.1875 27.296875 
Q 46.1875 37.015625 41.984375 42.703125 
Q 37.796875 48.390625 30.609375 48.390625 
z
M 30.609375 56 
Q 42.328125 56 49.015625 48.375 
Q 55.71875 40.765625 55.71875 27.296875 
Q 55.71875 13.875 49.015625 6.21875 
Q 42.328125 -1.421875 30.609375 -1.421875 
Q 18.84375 -1.421875 12.171875 6.21875 
Q 5.515625 13.875 5.515625 27.296875 
Q 5.515625 40.765625 12.171875 48.375 
Q 18.84375 56 30.609375 56 
z
" id="DejaVuSans-111"/>
      <path d="M 54.890625 33.015625 
L 54.890625 0 
L 45.90625 0 
L 45.90625 32.71875 
Q 45.90625 40.484375 42.875 44.328125 
Q 39.84375 48.1875 33.796875 48.1875 
Q 26.515625 48.1875 22.3125 43.546875 
Q 18.109375 38.921875 18.109375 30.90625 
L 18.109375 0 
L 9.078125 0 
L 9.078125 54.6875 
L 18.109375 54.6875 
L 18.109375 46.1875 
Q 21.34375 51.125 25.703125 53.5625 
Q 30.078125 56 35.796875 56 
Q 45.21875 56 50.046875 50.171875 
Q 54.890625 44.34375 54.890625 33.015625 
z
" id="DejaVuSans-110"/>
     </defs>
     <g transform="translate(273.991406 412.756563)scale(0.1 -0.1)">
      <use xlink:href="#DejaVuSans-73"/>
      <use x="29.492188" xlink:href="#DejaVuSans-116"/>
      <use x="68.701172" xlink:href="#DejaVuSans-101"/>
      <use x="130.224609" xlink:href="#DejaVuSans-114"/>
      <use x="171.337891" xlink:href="#DejaVuSans-97"/>
      <use x="232.617188" xlink:href="#DejaVuSans-116"/>
      <use x="271.826172" xlink:href="#DejaVuSans-105"/>
      <use x="299.609375" xlink:href="#DejaVuSans-111"/>
      <use x="360.791016" xlink:href="#DejaVuSans-110"/>
     </g>
    </g>
   </g>
   <g id="matplotlib.axis_2">
    <g id="ytick_1">
     <g id="line2d_13">
      <path clip-path="url(#p1120eeb03c)" d="M 72 384.48 
L 518.4 384.48 
" style="fill:none;stroke:#b0b0b0;stroke-linecap:square;stroke-width:0.8;"/>
     </g>
     <g id="line2d_14">
      <defs>
       <path d="M 0 0 
L -3.5 0 
" id="mea80dc6b23" style="stroke:#000000;stroke-width:0.8;"/>
      </defs>
      <g>
       <use style="stroke:#000000;stroke-width:0.8;" x="72" xlink:href="#mea80dc6b23" y="384.48"/>
      </g>
     </g>
     <g id="text_8">
      <!-- $\mathdefault{10^{-12}}$ -->
      <defs>
       <path d="M 10.59375 35.5 
L 73.1875 35.5 
L 73.1875 27.203125 
L 10.59375 27.203125 
z
" id="DejaVuSans-8722"/>
      </defs>
      <g transform="translate(37.1 388.279219)scale(0.1 -0.1)">
       <use transform="translate(0 0.765625)" xlink:href="#DejaVuSans-49"/>
       <use transform="translate(63.623047 0.765625)" xlink:href="#DejaVuSans-48"/>
       <use transform="translate(128.203125 39.046875)scale(0.7)" xlink:href="#DejaVuSans-8722"/>
       <use transform="translate(186.855469 39.046875)scale(0.7)" xlink:href="#DejaVuSans-49"/>
       <use transform="translate(231.391602 39.046875)scale(0.7)" xlink:href="#DejaVuSans-50"/>
      </g>
     </g>
    </g>
    <g id="ytick_2">
     <g id="line2d_15">
      <path clip-path="url(#p1120eeb03c)" d="M 72 336.96 
L 518.4 336.96 
" style="fill:none;stroke:#b0b0b0;stroke-linecap:square;stroke-width:0.8;"/>
     </g>
     <g id="line2d_16">
      <g>
       <use style="stroke:#000000;stroke-width:0.8;" x="72" xlink:href="#mea80dc6b23" y="336.96"/>
      </g>
     </g>
     <g id="text_9">
      <!-- $\mathdefault{10^{-10}}$ -->
      <g transform="translate(37.1 340.759219)scale(0.1 -0.1)">
       <use transform="translate(0 0.765625)" xlink:href="#DejaVuSans-49"/>
       <use transform="translate(63.623047 0.765625)" xlink:href="#DejaVuSans-48"/>
       <use transform="translate(128.203125 39.046875)scale(0.7)" xlink:href="#DejaVuSans-8722"/>
       <use transform="translate(186.855469 39.046875)scale(0.7)" xlink:href="#DejaVuSans-49"/>
       <use transform="translate(231.391602 39.046875)scale(0.7)" xlink:href="#DejaVuSans-48"/>
      </g>
     </g>
    </g>
    <g id="ytick_3">
     <g id="line2d_17">
      <path clip-path="url(#p1120eeb03c)" d="M 72 289.44 
L 518.4 289.44 
" style="fill:none;stroke:#b0b0b0;stroke-linecap:square;stroke-width:0.8;"/>
     </g>
     <g id="line2d_18">
      <g>
       <use style="stroke:#000000;stroke-width:0.8;" x="72" xlink:href="#mea80dc6b23" y="289.44"/>
      </g>
     </g>
     <g id="text_10">
      <!-- $\mathdefault{10^{-8}}$ -->
      <defs>
       <path d="M 31.78125 34.625 
Q 24.75 34.625 20.71875 30.859375 
Q 16.703125 27.09375 16.703125 20.515625 
Q 16.703125 13.921875 20.71875 10.15625 
Q 24.75 6.390625 31.78125 6.390625 
Q 38.8125 6.390625 42.859375 10.171875 
Q 46.921875 13.96875 46.921875 20.515625 
Q 46.921875 27.09375 42.890625 30.859375 
Q 38.875 34.625 31.78125 34.625 
z
M 21.921875 38.8125 
Q 15.578125 40.375 12.03125 44.71875 
Q 8.5 49.078125 8.5 55.328125 
Q 8.5 64.0625 14.71875 69.140625 
Q 20.953125 74.21875 31.78125 74.21875 
Q 42.671875 74.21875 48.875 69.140625 
Q 55.078125 64.0625 55.078125 55.328125 
Q 55.078125 49.078125 51.53125 44.71875 
Q 48 40.375 41.703125 38.8125 
Q 48.828125 37.15625 52.796875 32.3125 
Q 56.78125 27.484375 56.78125 20.515625 
Q 56.78125 9.90625 50.3125 4.234375 
Q 43.84375 -1.421875 31.78125 -1.421875 
Q 19.734375 -1.421875 13.25 4.234375 
Q 6.78125 9.90625 6.78125 20.515625 
Q 6.78125 27.484375 10.78125 32.3125 
Q 14.796875 37.15625 21.921875 38.8125 
z
M 18.3125 54.390625 
Q 18.3125 48.734375 21.84375 45.5625 
Q 25.390625 42.390625 31.78125 42.390625 
Q 38.140625 42.390625 41.71875 45.5625 
Q 45.3125 48.734375 45.3125 54.390625 
Q 45.3125 60.0625 41.71875 63.234375 
Q 38.140625 66.40625 31.78125 66.40625 
Q 25.390625 66.40625 21.84375 63.234375 
Q 18.3125 60.0625 18.3125 54.390625 
z
" id="DejaVuSans-56"/>
      </defs>
      <g transform="translate(41.5 293.239219)scale(0.1 -0.1)">
       <use transform="translate(0 0.765625)" xlink:href="#DejaVuSans-49"/>
       <use transform="translate(63.623047 0.765625)" xlink:href="#DejaVuSans-48"/>
       <use transform="translate(128.203125 39.046875)scale(0.7)" xlink:href="#DejaVuSans-8722"/>
       <use transform="translate(186.855469 39.046875)scale(0.7)" xlink:href="#DejaVuSans-56"/>
      </g>
     </g>
    </g>
    <g id="ytick_4">
     <g id="line2d_19">
      <path clip-path="url(#p1120eeb03c)" d="M 72 241.92 
L 518.4 241.92 
" style="fill:none;stroke:#b0b0b0;stroke-linecap:square;stroke-width:0.8;"/>
     </g>
     <g id="line2d_20">
      <g>
       <use style="stroke:#000000;stroke-width:0.8;" x="72" xlink:href="#mea80dc6b23" y="241.92"/>
      </g>
     </g>
     <g id="text_11">
      <!-- $\mathdefault{10^{-6}}$ -->
      <defs>
       <path d="M 33.015625 40.375 
Q 26.375 40.375 22.484375 35.828125 
Q 18.609375 31.296875 18.609375 23.390625 
Q 18.609375 15.53125 22.484375 10.953125 
Q 26.375 6.390625 33.015625 6.390625 
Q 39.65625 6.390625 43.53125 10.953125 
Q 47.40625 15.53125 47.40625 23.390625 
Q 47.40625 31.296875 43.53125 35.828125 
Q 39.65625 40.375 33.015625 40.375 
z
M 52.59375 71.296875 
L 52.59375 62.3125 
Q 48.875 64.0625 45.09375 64.984375 
Q 41.3125 65.921875 37.59375 65.921875 
Q 27.828125 65.921875 22.671875 59.328125 
Q 17.53125 52.734375 16.796875 39.40625 
Q 19.671875 43.65625 24.015625 45.921875 
Q 28.375 48.1875 33.59375 48.1875 
Q 44.578125 48.1875 50.953125 41.515625 
Q 57.328125 34.859375 57.328125 23.390625 
Q 57.328125 12.15625 50.6875 5.359375 
Q 44.046875 -1.421875 33.015625 -1.421875 
Q 20.359375 -1.421875 13.671875 8.265625 
Q 6.984375 17.96875 6.984375 36.375 
Q 6.984375 53.65625 15.1875 63.9375 
Q 23.390625 74.21875 37.203125 74.21875 
Q 40.921875 74.21875 44.703125 73.484375 
Q 48.484375 72.75 52.59375 71.296875 
z
" id="DejaVuSans-54"/>
      </defs>
      <g transform="translate(41.5 245.719219)scale(0.1 -0.1)">
       <use transform="translate(0 0.765625)" xlink:href="#DejaVuSans-49"/>
       <use transform="translate(63.623047 0.765625)" xlink:href="#DejaVuSans-48"/>
       <use transform="translate(128.203125 39.046875)scale(0.7)" xlink:href="#DejaVuSans-8722"/>
       <use transform="translate(186.855469 39.046875)scale(0.7)" xlink:href="#DejaVuSans-54"/>
      </g>
     </g>
    </g>
    <g id="ytick_5">
     <g id="line2d_21">
      <path clip-path="url(#p1120eeb03c)" d="M 72 194.4 
L 518.4 194.4 
" style="fill:none;stroke:#b0b0b0;stroke-linecap:square;stroke-width:0.8;"/>
     </g>
     <g id="line2d_22">
      <g>
       <use style="stroke:#000000;stroke-width:0.8;" x="72" xlink:href="#mea80dc6b23" y="194.4"/>
      </g>
     </g>
     <g id="text_12">
      <!-- $\mathdefault{10^{-4}}$ -->
      <g transform="translate(41.5 198.199219)scale(0.1 -0.1)">
       <use transform="translate(0 0.684375)" xlink:href="#DejaVuSans-49"/>
       <use transform="translate(63.623047 0.684375)" xlink:href="#DejaVuSans-48"/>
       <use transform="translate(128.203125 38.965625)scale(0.7)" xlink:href="#DejaVuSans-8722"/>
       <use transform="translate(186.855469 38.965625)scale(0.7)" xlink:href="#DejaVuSans-52"/>
      </g>
     </g>
    </g>
    <g id="ytick_6">
     <g id="line2d_23">
      <path clip-path="url(#p1120eeb03c)" d="M 72 146.88 
L 518.4 146.88 
" style="fill:none;stroke:#b0b0b0;stroke-linecap:square;stroke-width:0.8;"/>
     </g>
     <g id="line2d_24">
      <g>
       <use style="stroke:#000000;stroke-width:0.8;" x="72" xlink:href="#mea80dc6b23" y="146.88"/>
      </g>
     </g>
     <g id="text_13">
      <!-- $\mathdefault{10^{-2}}$ -->
      <g transform="translate(41.5 150.679219)scale(0.1 -0.1)">
       <use transform="translate(0 0.765625)" xlink:href="#DejaVuSans-49"/>
       <use transform="translate(63.623047 0.765625)" xlink:href="#DejaVuSans-48"/>
       <use transform="translate(128.203125 39.046875)scale(0.7)" xlink:href="#DejaVuSans-8722"/>
       <use transform="translate(186.855469 39.046875)scale(0.7)" xlink:href="#DejaVuSans-50"/>
      </g>
     </g>
    </g>
    <g id="ytick_7">
     <g id="line2d_25">
      <path clip-path="url(#p1120eeb03c)" d="M 72 99.36 
L 518.4 99.36 
" style="fill:none;stroke:#b0b0b0;stroke-linecap:square;stroke-width:0.8;"/>
     </g>
     <g id="line2d_26">
      <g>
       <use style="stroke:#000000;stroke-width:0.8;" x="72" xlink:href="#mea80dc6b23" y="99.36"/>
      </g>
     </g>
     <g id="text_14">
      <!-- $\mathdefault{10^{0}}$ -->
      <g transform="translate(47.4 103.159219)scale(0.1 -0.1)">
       <use transform="translate(0 0.765625)" xlink:href="#DejaVuSans-49"/>
       <use transform="translate(63.623047 0.765625)" xlink:href="#DejaVuSans-48"/>
       <use transform="translate(128.203125 39.046875)scale(0.7)" xlink:href="#DejaVuSans-48"/>
      </g>
     </g>
    </g>
    <g id="ytick_8">
     <g id="line2d_27">
      <path clip-path="url(#p1120eeb03c)" d="M 72 51.84 
L 518.4 51.84 
" style="fill:none;stroke:#b0b0b0;stroke-linecap:square;stroke-width:0.8;"/>
     </g>
     <g id="line2d_28">
      <g>
       <use style="stroke:#000000;stroke-width:0.8;" x="72" xlink:href="#mea80dc6b23" y="51.84"/>
      </g>
     </g>
     <g id="text_15">
      <!-- $\mathdefault{10^{2}}$ -->
      <g transform="translate(47.4 55.639219)scale(0.1 -0.1)">
       <use transform="translate(0 0.765625)" xlink:href="#DejaVuSans-49"/>
       <use transform="translate(63.623047 0.765625)" xlink:href="#DejaVuSans-48"/>
       <use transform="translate(128.203125 39.046875)scale(0.7)" xlink:href="#DejaVuSans-50"/>
      </g>
     </g>
    </g>
    <g id="text_16">
     <!-- Integrated Squared Error -->
     <defs>
      <path d="M 45.40625 27.984375 
Q 45.40625 37.75 41.375 43.109375 
Q 37.359375 48.484375 30.078125 48.484375 
Q 22.859375 48.484375 18.828125 43.109375 
Q 14.796875 37.75 14.796875 27.984375 
Q 14.796875 18.265625 18.828125 12.890625 
Q 22.859375 7.515625 30.078125 7.515625 
Q 37.359375 7.515625 41.375 12.890625 
Q 45.40625 18.265625 45.40625 27.984375 
z
M 54.390625 6.78125 
Q 54.390625 -7.171875 48.1875 -13.984375 
Q 42 -20.796875 29.203125 -20.796875 
Q 24.46875 -20.796875 20.265625 -20.09375 
Q 16.0625 -19.390625 12.109375 -17.921875 
L 12.109375 -9.1875 
Q 16.0625 -11.328125 19.921875 -12.34375 
Q 23.78125 -13.375 27.78125 -13.375 
Q 36.625 -13.375 41.015625 -8.765625 
Q 45.40625 -4.15625 45.40625 5.171875 
L 45.40625 9.625 
Q 42.625 4.78125 38.28125 2.390625 
Q 33.9375 0 27.875 0 
Q 17.828125 0 11.671875 7.65625 
Q 5.515625 15.328125 5.515625 27.984375 
Q 5.515625 40.671875 11.671875 48.328125 
Q 17.828125 56 27.875 56 
Q 33.9375 56 38.28125 53.609375 
Q 42.625 51.21875 45.40625 46.390625 
L 45.40625 54.6875 
L 54.390625 54.6875 
z
" id="DejaVuSans-103"/>
      <path d="M 45.40625 46.390625 
L 45.40625 75.984375 
L 54.390625 75.984375 
L 54.390625 0 
L 45.40625 0 
L 45.40625 8.203125 
Q 42.578125 3.328125 38.25 0.953125 
Q 33.9375 -1.421875 27.875 -1.421875 
Q 17.96875 -1.421875 11.734375 6.484375 
Q 5.515625 14.40625 5.515625 27.296875 
Q 5.515625 40.1875 11.734375 48.09375 
Q 17.96875 56 27.875 56 
Q 33.9375 56 38.25 53.625 
Q 42.578125 51.265625 45.40625 46.390625 
z
M 14.796875 27.296875 
Q 14.796875 17.390625 18.875 11.75 
Q 22.953125 6.109375 30.078125 6.109375 
Q 37.203125 6.109375 41.296875 11.75 
Q 45.40625 17.390625 45.40625 27.296875 
Q 45.40625 37.203125 41.296875 42.84375 
Q 37.203125 48.484375 30.078125 48.484375 
Q 22.953125 48.484375 18.875 42.84375 
Q 14.796875 37.203125 14.796875 27.296875 
z
" id="DejaVuSans-100"/>
      <path id="DejaVuSans-32"/>
      <path d="M 53.515625 70.515625 
L 53.515625 60.890625 
Q 47.90625 63.578125 42.921875 64.890625 
Q 37.9375 66.21875 33.296875 66.21875 
Q 25.25 66.21875 20.875 63.09375 
Q 16.5 59.96875 16.5 54.203125 
Q 16.5 49.359375 19.40625 46.890625 
Q 22.3125 44.4375 30.421875 42.921875 
L 36.375 41.703125 
Q 47.40625 39.59375 52.65625 34.296875 
Q 57.90625 29 57.90625 20.125 
Q 57.90625 9.515625 50.796875 4.046875 
Q 43.703125 -1.421875 29.984375 -1.421875 
Q 24.8125 -1.421875 18.96875 -0.25 
Q 13.140625 0.921875 6.890625 3.21875 
L 6.890625 13.375 
Q 12.890625 10.015625 18.65625 8.296875 
Q 24.421875 6.59375 29.984375 6.59375 
Q 38.421875 6.59375 43.015625 9.90625 
Q 47.609375 13.234375 47.609375 19.390625 
Q 47.609375 24.75 44.3125 27.78125 
Q 41.015625 30.8125 33.5 32.328125 
L 27.484375 33.5 
Q 16.453125 35.6875 11.515625 40.375 
Q 6.59375 45.0625 6.59375 53.421875 
Q 6.59375 63.09375 13.40625 68.65625 
Q 20.21875 74.21875 32.171875 74.21875 
Q 37.3125 74.21875 42.625 73.28125 
Q 47.953125 72.359375 53.515625 70.515625 
z
" id="DejaVuSans-83"/>
      <path d="M 14.796875 27.296875 
Q 14.796875 17.390625 18.875 11.75 
Q 22.953125 6.109375 30.078125 6.109375 
Q 37.203125 6.109375 41.296875 11.75 
Q 45.40625 17.390625 45.40625 27.296875 
Q 45.40625 37.203125 41.296875 42.84375 
Q 37.203125 48.484375 30.078125 48.484375 
Q 22.953125 48.484375 18.875 42.84375 
Q 14.796875 37.203125 14.796875 27.296875 
z
M 45.40625 8.203125 
Q 42.578125 3.328125 38.25 0.953125 
Q 33.9375 -1.421875 27.875 -1.421875 
Q 17.96875 -1.421875 11.734375 6.484375 
Q 5.515625 14.40625 5.515625 27.296875 
Q 5.515625 40.1875 11.734375 48.09375 
Q 17.96875 56 27.875 56 
Q 33.9375 56 38.25 53.625 
Q 42.578125 51.265625 45.40625 46.390625 
L 45.40625 54.6875 
L 54.390625 54.6875 
L 54.390625 -20.796875 
L 45.40625 -20.796875 
z
" id="DejaVuSans-113"/>
      <path d="M 8.5 21.578125 
L 8.5 54.6875 
L 17.484375 54.6875 
L 17.484375 21.921875 
Q 17.484375 14.15625 20.5 10.265625 
Q 23.53125 6.390625 29.59375 6.390625 
Q 36.859375 6.390625 41.078125 11.03125 
Q 45.3125 15.671875 45.3125 23.6875 
L 45.3125 54.6875 
L 54.296875 54.6875 
L 54.296875 0 
L 45.3125 0 
L 45.3125 8.40625 
Q 42.046875 3.421875 37.71875 1 
Q 33.40625 -1.421875 27.6875 -1.421875 
Q 18.265625 -1.421875 13.375 4.4375 
Q 8.5 10.296875 8.5 21.578125 
z
M 31.109375 56 
z
" id="DejaVuSans-117"/>
      <path d="M 9.8125 72.90625 
L 55.90625 72.90625 
L 55.90625 64.59375 
L 19.671875 64.59375 
L 19.671875 43.015625 
L 54.390625 43.015625 
L 54.390625 34.71875 
L 19.671875 34.71875 
L 19.671875 8.296875 
L 56.78125 8.296875 
L 56.78125 0 
L 9.8125 0 
z
" id="DejaVuSans-69"/>
     </defs>
     <g transform="translate(31.020312 280.483437)rotate(-90)scale(0.1 -0.1)">
      <use xlink:href="#DejaVuSans-73"/>
      <use x="29.492188" xlink:href="#DejaVuSans-110"/>
      <use x="92.871094" xlink:href="#DejaVuSans-116"/>
      <use x="132.080078" xlink:href="#DejaVuSans-101"/>
      <use x="193.603516" xlink:href="#DejaVuSans-103"/>
      <use x="257.080078" xlink:href="#DejaVuSans-114"/>
      <use x="298.193359" xlink:href="#DejaVuSans-97"/>
      <use x="359.472656" xlink:href="#DejaVuSans-116"/>
      <use x="398.681641" xlink:href="#DejaVuSans-101"/>
      <use x="460.205078" xlink:href="#DejaVuSans-100"/>
      <use x="523.681641" xlink:href="#DejaVuSans-32"/>
      <use x="555.46875" xlink:href="#DejaVuSans-83"/>
      <use x="618.945312" xlink:href="#DejaVuSans-113"/>
      <use x="682.421875" xlink:href="#DejaVuSans-117"/>
      <use x="745.800781" xlink:href="#DejaVuSans-97"/>
      <use x="807.080078" xlink:href="#DejaVuSans-114"/>
      <use x="845.943359" xlink:href="#DejaVuSans-101"/>
      <use x="907.466797" xlink:href="#DejaVuSans-100"/>
      <use x="970.943359" xlink:href="#DejaVuSans-32"/>
      <use x="1002.730469" xlink:href="#DejaVuSans-69"/>
      <use x="1065.914062" xlink:href="#DejaVuSans-114"/>
      <use x="1105.277344" xlink:href="#DejaVuSans-114"/>
      <use x="1144.140625" xlink:href="#DejaVuSans-111"/>
      <use x="1205.322266" xlink:href="#DejaVuSans-114"/>
     </g>
    </g>
   </g>
   <g id="line2d_29">
    <path clip-path="url(#p1120eeb03c)" d="M 72 58.136293 
L 80.928 58.116006 
L 89.856 58.437467 
L 98.784 58.67987 
L 107.712 58.758776 
L 116.64 58.799218 
L 125.568 58.843201 
L 134.496 58.779145 
L 143.424 58.373312 
L 152.352 58.660382 
L 161.28 58.467678 
L 170.208 58.687836 
L 179.136 58.679942 
L 188.064 58.512479 
L 196.992 58.839699 
L 205.92 58.706684 
L 214.848 58.705366 
L 223.776 58.870056 
L 232.704 58.757598 
L 241.632 58.762533 
L 250.56 58.798291 
L 259.488 58.902667 
L 268.416 58.843008 
L 277.344 58.788836 
L 286.272 58.881033 
L 295.2 58.962576 
L 304.128 58.942858 
L 313.056 58.918011 
L 321.984 58.989989 
L 330.912 58.346062 
L 339.84 58.137381 
L 348.768 58.392643 
L 357.696 58.902088 
L 366.624 58.749481 
L 375.552 58.743403 
L 384.48 58.633509 
L 393.408 58.514886 
L 402.336 58.487057 
L 411.264 58.58362 
L 420.192 58.1688 
L 429.12 58.723646 
L 438.048 58.604338 
L 446.976 58.786331 
L 455.904 58.757031 
L 464.832 58.672774 
L 473.76 58.750574 
L 482.688 57.552098 
L 491.616 58.032155 
L 500.544 58.520305 
L 509.472 58.729845 
L 518.4 58.462444 
" style="fill:none;stroke:#1f77b4;stroke-linecap:square;stroke-width:1.5;"/>
   </g>
   <g id="line2d_30">
    <path clip-path="url(#p1120eeb03c)" d="M 72 59.285274 
L 80.928 68.180686 
L 89.856 73.665783 
L 98.784 79.67184 
L 107.712 91.811369 
L 116.64 95.306821 
L 125.568 101.426982 
L 134.496 110.405818 
L 143.424 113.150925 
L 152.352 118.798309 
L 161.28 125.326816 
L 170.208 121.07331 
L 179.136 116.686118 
L 188.064 103.693438 
L 196.992 112.390654 
L 205.92 91.170058 
L 214.848 79.090052 
L 223.776 65.240146 
L 232.704 63.502026 
L 241.632 71.754051 
L 250.56 77.70893 
L 259.488 63.218699 
L 268.416 63.470861 
L 277.344 55.528129 
L 286.272 58.050311 
L 295.2 53.412945 
L 304.128 53.591411 
L 313.056 53.587458 
L 321.984 55.342928 
L 330.912 53.606487 
L 339.84 53.418633 
L 348.768 53.648852 
L 357.696 53.63486 
L 366.624 60.018299 
L 375.552 55.761723 
L 384.48 59.606402 
L 393.408 53.791736 
L 402.336 55.747935 
L 411.264 51.520165 
L 420.192 51.525069 
L 429.12 53.699734 
L 438.048 51.534822 
L 446.976 51.53977 
L 455.904 51.544733 
L 464.832 52.220239 
L 473.76 51.55476 
L 482.688 51.559771 
L 491.616 53.841114 
L 500.544 58.215587 
L 509.472 53.757761 
L 518.4 56.068463 
" style="fill:none;stroke:#ff7f0e;stroke-linecap:square;stroke-width:1.5;"/>
   </g>
   <g id="line2d_31">
    <path clip-path="url(#p1120eeb03c)" d="M 72 62.388173 
L 80.928 74.713449 
L 89.856 77.710175 
L 98.784 83.454861 
L 107.712 88.304955 
L 116.64 92.86991 
L 125.568 95.958874 
L 134.496 98.956154 
L 143.424 101.459861 
L 152.352 103.974712 
L 161.28 108.230868 
L 170.208 112.01663 
L 179.136 114.649873 
L 188.064 116.571967 
L 196.992 118.423293 
L 205.92 120.894681 
L 214.848 123.524249 
L 223.776 126.226249 
L 232.704 130.208431 
L 241.632 131.29657 
L 250.56 132.894734 
L 259.488 133.941105 
L 268.416 135.415992 
L 277.344 136.262242 
L 286.272 137.83993 
L 295.2 138.555515 
L 304.128 140.89212 
L 313.056 141.47126 
L 321.984 143.223249 
L 330.912 144.794554 
L 339.84 145.467959 
L 348.768 146.331792 
L 357.696 148.486458 
L 366.624 149.593391 
L 375.552 150.156371 
L 384.48 151.234967 
L 393.408 152.256154 
L 402.336 153.051991 
L 411.264 154.226345 
L 420.192 154.949853 
L 429.12 156.358583 
L 438.048 156.779336 
L 446.976 157.221935 
L 455.904 158.435576 
L 464.832 159.846127 
L 473.76 160.828737 
L 482.688 161.589358 
L 491.616 163.1748 
L 500.544 163.791326 
L 509.472 164.572891 
L 518.4 164.856492 
" style="fill:none;stroke:#2ca02c;stroke-linecap:square;stroke-width:1.5;"/>
   </g>
   <g id="line2d_32">
    <path clip-path="url(#p1120eeb03c)" d="M 72 60.909237 
L 80.928 70.905292 
L 89.856 77.599634 
L 98.784 82.731366 
L 107.712 93.001491 
L 116.64 97.78566 
L 125.568 105.184986 
L 134.496 109.997032 
L 143.424 114.250335 
L 152.352 117.573301 
L 161.28 127.045435 
L 170.208 130.059333 
L 179.136 134.133704 
L 188.064 138.439415 
L 196.992 145.000977 
L 205.92 150.63429 
L 214.848 156.548292 
L 223.776 160.493892 
L 232.704 161.445588 
L 241.632 166.904907 
L 250.56 168.605117 
L 259.488 171.857549 
L 268.416 175.333493 
L 277.344 181.481787 
L 286.272 185.761587 
L 295.2 190.680298 
L 304.128 192.377947 
L 313.056 193.538802 
L 321.984 199.899425 
L 330.912 202.518615 
L 339.84 205.677471 
L 348.768 208.007985 
L 357.696 210.369054 
L 366.624 215.186686 
L 375.552 217.048543 
L 384.48 218.455391 
L 393.408 220.451477 
L 402.336 222.727149 
L 411.264 223.377061 
L 420.192 224.515443 
L 429.12 225.390591 
L 438.048 226.151468 
L 446.976 226.370846 
L 455.904 228.420703 
L 464.832 229.377549 
L 473.76 230.906707 
L 482.688 231.438547 
L 491.616 233.888273 
L 500.544 236.515597 
L 509.472 238.398797 
L 518.4 239.708896 
" style="fill:none;stroke:#d62728;stroke-linecap:square;stroke-width:1.5;"/>
   </g>
   <g id="line2d_33">
    <path clip-path="url(#p1120eeb03c)" d="M 72 60.368885 
L 80.928 69.86544 
L 89.856 76.041322 
L 98.784 83.985881 
L 107.712 93.329746 
L 116.64 99.497261 
L 125.568 108.0134 
L 134.496 113.598435 
L 143.424 118.402521 
L 152.352 119.987723 
L 161.28 134.505219 
L 170.208 137.794881 
L 179.136 140.290526 
L 188.064 146.009991 
L 196.992 151.753857 
L 205.92 159.999427 
L 214.848 166.374582 
L 223.776 170.441306 
L 232.704 172.732591 
L 241.632 175.627209 
L 250.56 179.274497 
L 259.488 187.090354 
L 268.416 189.815227 
L 277.344 193.780234 
L 286.272 200.916187 
L 295.2 205.275437 
L 304.128 212.309272 
L 313.056 215.267995 
L 321.984 218.178187 
L 330.912 224.293436 
L 339.84 228.612513 
L 348.768 232.746451 
L 357.696 238.790274 
L 366.624 242.061508 
L 375.552 246.026117 
L 384.48 249.097636 
L 393.408 250.979623 
L 402.336 252.453752 
L 411.264 254.21114 
L 420.192 257.227245 
L 429.12 258.320226 
L 438.048 259.641813 
L 446.976 261.75113 
L 455.904 263.959302 
L 464.832 265.603713 
L 473.76 266.860046 
L 482.688 268.895925 
L 491.616 273.102675 
L 500.544 274.42177 
L 509.472 275.172921 
L 518.4 275.866936 
" style="fill:none;stroke:#9467bd;stroke-linecap:square;stroke-width:1.5;"/>
   </g>
   <g id="line2d_34">
    <path clip-path="url(#p1120eeb03c)" d="M 72 61.524932 
L 80.928 68.49345 
L 89.856 74.087083 
L 98.784 80.122457 
L 107.712 83.716313 
L 116.64 90.972461 
L 125.568 103.585135 
L 134.496 106.867134 
L 143.424 112.685099 
L 152.352 117.610741 
L 161.28 128.946524 
L 170.208 132.175133 
L 179.136 137.540275 
L 188.064 143.441064 
L 196.992 157.408229 
L 205.92 162.319705 
L 214.848 165.822271 
L 223.776 170.749351 
L 232.704 177.108357 
L 241.632 181.315613 
L 250.56 185.982719 
L 259.488 191.320098 
L 268.416 196.722216 
L 277.344 203.936159 
L 286.272 210.001709 
L 295.2 216.101015 
L 304.128 223.787438 
L 313.056 229.547006 
L 321.984 235.688897 
L 330.912 239.551569 
L 339.84 243.163268 
L 348.768 249.85004 
L 357.696 257.644223 
L 366.624 264.424893 
L 375.552 269.809877 
L 384.48 274.345411 
L 393.408 279.939418 
L 402.336 282.883499 
L 411.264 288.19467 
L 420.192 290.765145 
L 429.12 293.266313 
L 438.048 294.719072 
L 446.976 295.810726 
L 455.904 295.53961 
L 464.832 297.223361 
L 473.76 298.623073 
L 482.688 298.018637 
L 491.616 299.416266 
L 500.544 299.562113 
L 509.472 300.817406 
L 518.4 301.097415 
" style="fill:none;stroke:#8c564b;stroke-linecap:square;stroke-width:1.5;"/>
   </g>
   <g id="line2d_35">
    <path clip-path="url(#p1120eeb03c)" d="M 72 60.357587 
L 80.928 61.061303 
L 89.856 60.950496 
L 98.784 61.084774 
L 107.712 60.999485 
L 116.64 60.951364 
L 125.568 61.050001 
L 134.496 60.975432 
L 143.424 60.933121 
L 152.352 60.907701 
L 161.28 60.818729 
L 170.208 60.748179 
L 179.136 60.699393 
L 188.064 60.674498 
L 196.992 60.620903 
L 205.92 60.563957 
L 214.848 60.524442 
L 223.776 60.494428 
L 232.704 60.484753 
L 241.632 60.464083 
L 250.56 60.418569 
L 259.488 60.437511 
L 268.416 60.411379 
L 277.344 60.383764 
L 286.272 60.371548 
L 295.2 60.34955 
L 304.128 60.337718 
L 313.056 60.30568 
L 321.984 60.264407 
L 330.912 60.247346 
L 339.84 60.223696 
L 348.768 60.201438 
L 357.696 60.184299 
L 366.624 60.155411 
L 375.552 60.143633 
L 384.48 60.132789 
L 393.408 60.12172 
L 402.336 60.103084 
L 411.264 60.085074 
L 420.192 60.059139 
L 429.12 60.067312 
L 438.048 60.04341 
L 446.976 60.012861 
L 455.904 60.003022 
L 464.832 59.980981 
L 473.76 59.981374 
L 482.688 59.992211 
L 491.616 59.971871 
L 500.544 59.971465 
L 509.472 59.969081 
L 518.4 59.955597 
" style="fill:none;stroke:#e377c2;stroke-linecap:square;stroke-width:1.5;"/>
   </g>
   <g id="patch_3">
    <path d="M 72 384.48 
L 72 51.84 
" style="fill:none;stroke:#000000;stroke-linecap:square;stroke-linejoin:miter;stroke-width:0.8;"/>
   </g>
   <g id="patch_4">
    <path d="M 518.4 384.48 
L 518.4 51.84 
" style="fill:none;stroke:#000000;stroke-linecap:square;stroke-linejoin:miter;stroke-width:0.8;"/>
   </g>
   <g id="patch_5">
    <path d="M 72 384.48 
L 518.4 384.48 
" style="fill:none;stroke:#000000;stroke-linecap:square;stroke-linejoin:miter;stroke-width:0.8;"/>
   </g>
   <g id="patch_6">
    <path d="M 72 51.84 
L 518.4 51.84 
" style="fill:none;stroke:#000000;stroke-linecap:square;stroke-linejoin:miter;stroke-width:0.8;"/>
   </g>
   <g id="legend_1">
    <g id="patch_7">
     <path d="M 79 379.48 
L 165.804688 379.48 
Q 167.804688 379.48 167.804688 377.48 
L 167.804688 275.733125 
Q 167.804688 273.733125 165.804688 273.733125 
L 79 273.733125 
Q 77 273.733125 77 275.733125 
L 77 377.48 
Q 77 379.48 79 379.48 
z
" style="fill:#ffffff;opacity:0.8;stroke:#cccccc;stroke-linejoin:miter;"/>
    </g>
    <g id="line2d_36">
     <path d="M 81 281.831563 
L 101 281.831563 
" style="fill:none;stroke:#1f77b4;stroke-linecap:square;stroke-width:1.5;"/>
    </g>
    <g id="line2d_37"/>
    <g id="text_17">
     <!-- Constant -->
     <defs>
      <path d="M 64.40625 67.28125 
L 64.40625 56.890625 
Q 59.421875 61.53125 53.78125 63.8125 
Q 48.140625 66.109375 41.796875 66.109375 
Q 29.296875 66.109375 22.65625 58.46875 
Q 16.015625 50.828125 16.015625 36.375 
Q 16.015625 21.96875 22.65625 14.328125 
Q 29.296875 6.6875 41.796875 6.6875 
Q 48.140625 6.6875 53.78125 8.984375 
Q 59.421875 11.28125 64.40625 15.921875 
L 64.40625 5.609375 
Q 59.234375 2.09375 53.4375 0.328125 
Q 47.65625 -1.421875 41.21875 -1.421875 
Q 24.65625 -1.421875 15.125 8.703125 
Q 5.609375 18.84375 5.609375 36.375 
Q 5.609375 53.953125 15.125 64.078125 
Q 24.65625 74.21875 41.21875 74.21875 
Q 47.75 74.21875 53.53125 72.484375 
Q 59.328125 70.75 64.40625 67.28125 
z
" id="DejaVuSans-67"/>
      <path d="M 44.28125 53.078125 
L 44.28125 44.578125 
Q 40.484375 46.53125 36.375 47.5 
Q 32.28125 48.484375 27.875 48.484375 
Q 21.1875 48.484375 17.84375 46.4375 
Q 14.5 44.390625 14.5 40.28125 
Q 14.5 37.15625 16.890625 35.375 
Q 19.28125 33.59375 26.515625 31.984375 
L 29.59375 31.296875 
Q 39.15625 29.25 43.1875 25.515625 
Q 47.21875 21.78125 47.21875 15.09375 
Q 47.21875 7.46875 41.1875 3.015625 
Q 35.15625 -1.421875 24.609375 -1.421875 
Q 20.21875 -1.421875 15.453125 -0.5625 
Q 10.6875 0.296875 5.421875 2 
L 5.421875 11.28125 
Q 10.40625 8.6875 15.234375 7.390625 
Q 20.0625 6.109375 24.8125 6.109375 
Q 31.15625 6.109375 34.5625 8.28125 
Q 37.984375 10.453125 37.984375 14.40625 
Q 37.984375 18.0625 35.515625 20.015625 
Q 33.0625 21.96875 24.703125 23.78125 
L 21.578125 24.515625 
Q 13.234375 26.265625 9.515625 29.90625 
Q 5.8125 33.546875 5.8125 39.890625 
Q 5.8125 47.609375 11.28125 51.796875 
Q 16.75 56 26.8125 56 
Q 31.78125 56 36.171875 55.265625 
Q 40.578125 54.546875 44.28125 53.078125 
z
" id="DejaVuSans-115"/>
     </defs>
     <g transform="translate(109 285.331563)scale(0.1 -0.1)">
      <use xlink:href="#DejaVuSans-67"/>
      <use x="69.824219" xlink:href="#DejaVuSans-111"/>
      <use x="131.005859" xlink:href="#DejaVuSans-110"/>
      <use x="194.384766" xlink:href="#DejaVuSans-115"/>
      <use x="246.484375" xlink:href="#DejaVuSans-116"/>
      <use x="285.693359" xlink:href="#DejaVuSans-97"/>
      <use x="346.972656" xlink:href="#DejaVuSans-110"/>
      <use x="410.351562" xlink:href="#DejaVuSans-116"/>
     </g>
    </g>
    <g id="line2d_38">
     <path d="M 81 296.509688 
L 101 296.509688 
" style="fill:none;stroke:#ff7f0e;stroke-linecap:square;stroke-width:1.5;"/>
    </g>
    <g id="line2d_39"/>
    <g id="text_18">
     <!-- RBF -->
     <defs>
      <path d="M 44.390625 34.1875 
Q 47.5625 33.109375 50.5625 29.59375 
Q 53.5625 26.078125 56.59375 19.921875 
L 66.609375 0 
L 56 0 
L 46.6875 18.703125 
Q 43.0625 26.03125 39.671875 28.421875 
Q 36.28125 30.8125 30.421875 30.8125 
L 19.671875 30.8125 
L 19.671875 0 
L 9.8125 0 
L 9.8125 72.90625 
L 32.078125 72.90625 
Q 44.578125 72.90625 50.734375 67.671875 
Q 56.890625 62.453125 56.890625 51.90625 
Q 56.890625 45.015625 53.6875 40.46875 
Q 50.484375 35.9375 44.390625 34.1875 
z
M 19.671875 64.796875 
L 19.671875 38.921875 
L 32.078125 38.921875 
Q 39.203125 38.921875 42.84375 42.21875 
Q 46.484375 45.515625 46.484375 51.90625 
Q 46.484375 58.296875 42.84375 61.546875 
Q 39.203125 64.796875 32.078125 64.796875 
z
" id="DejaVuSans-82"/>
      <path d="M 19.671875 34.8125 
L 19.671875 8.109375 
L 35.5 8.109375 
Q 43.453125 8.109375 47.28125 11.40625 
Q 51.125 14.703125 51.125 21.484375 
Q 51.125 28.328125 47.28125 31.5625 
Q 43.453125 34.8125 35.5 34.8125 
z
M 19.671875 64.796875 
L 19.671875 42.828125 
L 34.28125 42.828125 
Q 41.5 42.828125 45.03125 45.53125 
Q 48.578125 48.25 48.578125 53.8125 
Q 48.578125 59.328125 45.03125 62.0625 
Q 41.5 64.796875 34.28125 64.796875 
z
M 9.8125 72.90625 
L 35.015625 72.90625 
Q 46.296875 72.90625 52.390625 68.21875 
Q 58.5 63.53125 58.5 54.890625 
Q 58.5 48.1875 55.375 44.234375 
Q 52.25 40.28125 46.1875 39.3125 
Q 53.46875 37.75 57.5 32.78125 
Q 61.53125 27.828125 61.53125 20.40625 
Q 61.53125 10.640625 54.890625 5.3125 
Q 48.25 0 35.984375 0 
L 9.8125 0 
z
" id="DejaVuSans-66"/>
      <path d="M 9.8125 72.90625 
L 51.703125 72.90625 
L 51.703125 64.59375 
L 19.671875 64.59375 
L 19.671875 43.109375 
L 48.578125 43.109375 
L 48.578125 34.8125 
L 19.671875 34.8125 
L 19.671875 0 
L 9.8125 0 
z
" id="DejaVuSans-70"/>
     </defs>
     <g transform="translate(109 300.009688)scale(0.1 -0.1)">
      <use xlink:href="#DejaVuSans-82"/>
      <use x="69.482422" xlink:href="#DejaVuSans-66"/>
      <use x="138.085938" xlink:href="#DejaVuSans-70"/>
     </g>
    </g>
    <g id="line2d_40">
     <path d="M 81 311.187813 
L 101 311.187813 
" style="fill:none;stroke:#2ca02c;stroke-linecap:square;stroke-width:1.5;"/>
    </g>
    <g id="line2d_41"/>
    <g id="text_19">
     <!-- Matrn-1/2 -->
     <defs>
      <path d="M 9.8125 72.90625 
L 24.515625 72.90625 
L 43.109375 23.296875 
L 61.8125 72.90625 
L 76.515625 72.90625 
L 76.515625 0 
L 66.890625 0 
L 66.890625 64.015625 
L 48.09375 14.015625 
L 38.1875 14.015625 
L 19.390625 64.015625 
L 19.390625 0 
L 9.8125 0 
z
" id="DejaVuSans-77"/>
      <path d="M 56.203125 29.59375 
L 56.203125 25.203125 
L 14.890625 25.203125 
Q 15.484375 15.921875 20.484375 11.0625 
Q 25.484375 6.203125 34.421875 6.203125 
Q 39.59375 6.203125 44.453125 7.46875 
Q 49.3125 8.734375 54.109375 11.28125 
L 54.109375 2.78125 
Q 49.265625 0.734375 44.1875 -0.34375 
Q 39.109375 -1.421875 33.890625 -1.421875 
Q 20.796875 -1.421875 13.15625 6.1875 
Q 5.515625 13.8125 5.515625 26.8125 
Q 5.515625 40.234375 12.765625 48.109375 
Q 20.015625 56 32.328125 56 
Q 43.359375 56 49.78125 48.890625 
Q 56.203125 41.796875 56.203125 29.59375 
z
M 47.21875 32.234375 
Q 47.125 39.59375 43.09375 43.984375 
Q 39.0625 48.390625 32.421875 48.390625 
Q 24.90625 48.390625 20.390625 44.140625 
Q 15.875 39.890625 15.1875 32.171875 
z
M 38.53125 79.984375 
L 48.25 79.984375 
L 32.34375 61.625 
L 24.859375 61.625 
z
" id="DejaVuSans-233"/>
      <path d="M 4.890625 31.390625 
L 31.203125 31.390625 
L 31.203125 23.390625 
L 4.890625 23.390625 
z
" id="DejaVuSans-45"/>
      <path d="M 25.390625 72.90625 
L 33.6875 72.90625 
L 8.296875 -9.28125 
L 0 -9.28125 
z
" id="DejaVuSans-47"/>
     </defs>
     <g transform="translate(109 314.687813)scale(0.1 -0.1)">
      <use xlink:href="#DejaVuSans-77"/>
      <use x="86.279297" xlink:href="#DejaVuSans-97"/>
      <use x="147.558594" xlink:href="#DejaVuSans-116"/>
      <use x="186.767578" xlink:href="#DejaVuSans-233"/>
      <use x="248.291016" xlink:href="#DejaVuSans-114"/>
      <use x="287.654297" xlink:href="#DejaVuSans-110"/>
      <use x="351.033203" xlink:href="#DejaVuSans-45"/>
      <use x="387.117188" xlink:href="#DejaVuSans-49"/>
      <use x="450.740234" xlink:href="#DejaVuSans-47"/>
      <use x="484.431641" xlink:href="#DejaVuSans-50"/>
     </g>
    </g>
    <g id="line2d_42">
     <path d="M 81 325.865938 
L 101 325.865938 
" style="fill:none;stroke:#d62728;stroke-linecap:square;stroke-width:1.5;"/>
    </g>
    <g id="line2d_43"/>
    <g id="text_20">
     <!-- Matrn-3/2 -->
     <g transform="translate(109 329.365938)scale(0.1 -0.1)">
      <use xlink:href="#DejaVuSans-77"/>
      <use x="86.279297" xlink:href="#DejaVuSans-97"/>
      <use x="147.558594" xlink:href="#DejaVuSans-116"/>
      <use x="186.767578" xlink:href="#DejaVuSans-233"/>
      <use x="248.291016" xlink:href="#DejaVuSans-114"/>
      <use x="287.654297" xlink:href="#DejaVuSans-110"/>
      <use x="351.033203" xlink:href="#DejaVuSans-45"/>
      <use x="387.117188" xlink:href="#DejaVuSans-51"/>
      <use x="450.740234" xlink:href="#DejaVuSans-47"/>
      <use x="484.431641" xlink:href="#DejaVuSans-50"/>
     </g>
    </g>
    <g id="line2d_44">
     <path d="M 81 340.544062 
L 101 340.544062 
" style="fill:none;stroke:#9467bd;stroke-linecap:square;stroke-width:1.5;"/>
    </g>
    <g id="line2d_45"/>
    <g id="text_21">
     <!-- Matrn-5/2 -->
     <g transform="translate(109 344.044062)scale(0.1 -0.1)">
      <use xlink:href="#DejaVuSans-77"/>
      <use x="86.279297" xlink:href="#DejaVuSans-97"/>
      <use x="147.558594" xlink:href="#DejaVuSans-116"/>
      <use x="186.767578" xlink:href="#DejaVuSans-233"/>
      <use x="248.291016" xlink:href="#DejaVuSans-114"/>
      <use x="287.654297" xlink:href="#DejaVuSans-110"/>
      <use x="351.033203" xlink:href="#DejaVuSans-45"/>
      <use x="387.117188" xlink:href="#DejaVuSans-53"/>
      <use x="450.740234" xlink:href="#DejaVuSans-47"/>
      <use x="484.431641" xlink:href="#DejaVuSans-50"/>
     </g>
    </g>
    <g id="line2d_46">
     <path d="M 81 355.222188 
L 101 355.222188 
" style="fill:none;stroke:#8c564b;stroke-linecap:square;stroke-width:1.5;"/>
    </g>
    <g id="line2d_47"/>
    <g id="text_22">
     <!-- RQ -->
     <defs>
      <path d="M 39.40625 66.21875 
Q 28.65625 66.21875 22.328125 58.203125 
Q 16.015625 50.203125 16.015625 36.375 
Q 16.015625 22.609375 22.328125 14.59375 
Q 28.65625 6.59375 39.40625 6.59375 
Q 50.140625 6.59375 56.421875 14.59375 
Q 62.703125 22.609375 62.703125 36.375 
Q 62.703125 50.203125 56.421875 58.203125 
Q 50.140625 66.21875 39.40625 66.21875 
z
M 53.21875 1.3125 
L 66.21875 -12.890625 
L 54.296875 -12.890625 
L 43.5 -1.21875 
Q 41.890625 -1.3125 41.03125 -1.359375 
Q 40.1875 -1.421875 39.40625 -1.421875 
Q 24.03125 -1.421875 14.8125 8.859375 
Q 5.609375 19.140625 5.609375 36.375 
Q 5.609375 53.65625 14.8125 63.9375 
Q 24.03125 74.21875 39.40625 74.21875 
Q 54.734375 74.21875 63.90625 63.9375 
Q 73.09375 53.65625 73.09375 36.375 
Q 73.09375 23.6875 67.984375 14.640625 
Q 62.890625 5.609375 53.21875 1.3125 
z
" id="DejaVuSans-81"/>
     </defs>
     <g transform="translate(109 358.722188)scale(0.1 -0.1)">
      <use xlink:href="#DejaVuSans-82"/>
      <use x="69.482422" xlink:href="#DejaVuSans-81"/>
     </g>
    </g>
    <g id="line2d_48">
     <path d="M 81 369.900313 
L 101 369.900313 
" style="fill:none;stroke:#e377c2;stroke-linecap:square;stroke-width:1.5;"/>
    </g>
    <g id="line2d_49"/>
    <g id="text_23">
     <!-- Dot Prod. -->
     <defs>
      <path d="M 19.671875 64.796875 
L 19.671875 8.109375 
L 31.59375 8.109375 
Q 46.6875 8.109375 53.6875 14.9375 
Q 60.6875 21.78125 60.6875 36.53125 
Q 60.6875 51.171875 53.6875 57.984375 
Q 46.6875 64.796875 31.59375 64.796875 
z
M 9.8125 72.90625 
L 30.078125 72.90625 
Q 51.265625 72.90625 61.171875 64.09375 
Q 71.09375 55.28125 71.09375 36.53125 
Q 71.09375 17.671875 61.125 8.828125 
Q 51.171875 0 30.078125 0 
L 9.8125 0 
z
" id="DejaVuSans-68"/>
      <path d="M 19.671875 64.796875 
L 19.671875 37.40625 
L 32.078125 37.40625 
Q 38.96875 37.40625 42.71875 40.96875 
Q 46.484375 44.53125 46.484375 51.125 
Q 46.484375 57.671875 42.71875 61.234375 
Q 38.96875 64.796875 32.078125 64.796875 
z
M 9.8125 72.90625 
L 32.078125 72.90625 
Q 44.34375 72.90625 50.609375 67.359375 
Q 56.890625 61.8125 56.890625 51.125 
Q 56.890625 40.328125 50.609375 34.8125 
Q 44.34375 29.296875 32.078125 29.296875 
L 19.671875 29.296875 
L 19.671875 0 
L 9.8125 0 
z
" id="DejaVuSans-80"/>
      <path d="M 10.6875 12.40625 
L 21 12.40625 
L 21 0 
L 10.6875 0 
z
" id="DejaVuSans-46"/>
     </defs>
     <g transform="translate(109 373.400313)scale(0.1 -0.1)">
      <use xlink:href="#DejaVuSans-68"/>
      <use x="77.001953" xlink:href="#DejaVuSans-111"/>
      <use x="138.183594" xlink:href="#DejaVuSans-116"/>
      <use x="177.392578" xlink:href="#DejaVuSans-32"/>
      <use x="209.179688" xlink:href="#DejaVuSans-80"/>
      <use x="267.732422" xlink:href="#DejaVuSans-114"/>
      <use x="306.595703" xlink:href="#DejaVuSans-111"/>
      <use x="367.777344" xlink:href="#DejaVuSans-100"/>
      <use x="431.253906" xlink:href="#DejaVuSans-46"/>
     </g>
    </g>
   </g>
  </g>
 </g>
 <defs>
  <clipPath id="p1120eeb03c">
   <rect height="332.64" width="446.4" x="72" y="51.84"/>
  </clipPath>
 </defs>
</svg>
