<?xml version="1.0" encoding="utf-8" standalone="no"?>
<!DOCTYPE svg PUBLIC "-//W3C//DTD SVG 1.1//EN"
  "http://www.w3.org/Graphics/SVG/1.1/DTD/svg11.dtd">
<!-- Created with matplotlib (https://matplotlib.org/) -->
<svg height="432pt" version="1.1" viewBox="0 0 576 432" width="576pt" xmlns="http://www.w3.org/2000/svg" xmlns:xlink="http://www.w3.org/1999/xlink">
 <defs>
  <style type="text/css">
*{stroke-linecap:butt;stroke-linejoin:round;}
  </style>
 </defs>
 <g id="figure_1">
  <g id="patch_1">
   <path d="M 0 432 
L 576 432 
L 576 0 
L 0 0 
z
" style="fill:#ffffff;"/>
  </g>
  <g id="axes_1">
   <g id="patch_2">
    <path d="M 72 384.48 
L 518.4 384.48 
L 518.4 51.84 
L 72 51.84 
z
" style="fill:#ffffff;"/>
   </g>
   <g id="PolyCollection_1">
    <path clip-path="url(#pfe4b9bede5)" d="M 116.64 155.741713 
L 116.64 -86.123713 
L 125.568 -80.058905 
L 125.568 162.733679 
L 125.568 162.733679 
L 116.64 155.741713 
z
" style="fill:#1f77b4;fill-opacity:0.3;"/>
    <path clip-path="url(#pfe4b9bede5)" d="M 393.408 335.873573 
L 393.408 -60.047804 
L 393.408 335.873573 
L 393.408 335.873573 
z
" style="fill:#1f77b4;fill-opacity:0.3;"/>
   </g>
   <g id="PolyCollection_2">
    <path clip-path="url(#pfe4b9bede5)" d="M 72 256.135634 
L 72 180.005925 
L 72 256.135634 
L 72 256.135634 
z
" style="fill:#ff7f0e;fill-opacity:0.3;"/>
    <path clip-path="url(#pfe4b9bede5)" d="M 89.856 249.557037 
L 89.856 174.397161 
L 98.784 143.862353 
L 107.712 162.753681 
L 116.64 144.145905 
L 125.568 177.877219 
L 134.496 170.295446 
L 143.424 175.120975 
L 152.352 185.041773 
L 161.28 166.789502 
L 170.208 166.172022 
L 179.136 163.138335 
L 188.064 156.293274 
L 196.992 199.555134 
L 205.92 200.732245 
L 214.848 202.554941 
L 223.776 219.681273 
L 232.704 217.987511 
L 241.632 214.818565 
L 250.56 228.60317 
L 259.488 227.603732 
L 268.416 232.405183 
L 277.344 231.094823 
L 286.272 228.814867 
L 295.2 228.547044 
L 304.128 221.673772 
L 313.056 215.576024 
L 321.984 219.613262 
L 330.912 215.539078 
L 339.84 216.623567 
L 348.768 214.769621 
L 357.696 211.417008 
L 366.624 210.979183 
L 375.552 212.203465 
L 384.48 212.807473 
L 393.408 212.417187 
L 402.336 211.178288 
L 411.264 211.184744 
L 420.192 206.479994 
L 429.12 208.920559 
L 438.048 207.04297 
L 446.976 203.262283 
L 455.904 206.064218 
L 464.832 208.201823 
L 473.76 207.979259 
L 482.688 210.552209 
L 491.616 208.530889 
L 500.544 205.811411 
L 509.472 204.31467 
L 518.4 203.927396 
L 518.4 230.215523 
L 518.4 230.215523 
L 509.472 227.018939 
L 500.544 231.555568 
L 491.616 225.874896 
L 482.688 226.89476 
L 473.76 231.727965 
L 464.832 226.478207 
L 455.904 231.896966 
L 446.976 238.89343 
L 438.048 232.839666 
L 429.12 233.072355 
L 420.192 235.779762 
L 411.264 233.674284 
L 402.336 231.775638 
L 393.408 228.768405 
L 384.48 238.919699 
L 375.552 230.923962 
L 366.624 237.406882 
L 357.696 232.961645 
L 348.768 232.967434 
L 339.84 243.793261 
L 330.912 241.701285 
L 321.984 241.465519 
L 313.056 243.223516 
L 304.128 251.10373 
L 295.2 247.574167 
L 286.272 249.929554 
L 277.344 251.400349 
L 268.416 251.848585 
L 259.488 249.890676 
L 250.56 250.861911 
L 241.632 227.22671 
L 232.704 230.504766 
L 223.776 225.871531 
L 214.848 219.773138 
L 205.92 230.960184 
L 196.992 216.902885 
L 188.064 191.460524 
L 179.136 187.382532 
L 170.208 178.850076 
L 161.28 189.827886 
L 152.352 231.929495 
L 143.424 208.724876 
L 134.496 209.576059 
L 125.568 204.653387 
L 116.64 191.937666 
L 107.712 181.337585 
L 98.784 172.185853 
L 89.856 249.557037 
z
" style="fill:#ff7f0e;fill-opacity:0.3;"/>
   </g>
   <g id="PolyCollection_3">
    <path clip-path="url(#pfe4b9bede5)" d="M 72 196.039473 
L 72 162.412709 
L 80.928 166.564111 
L 89.856 170.145269 
L 98.784 155.910639 
L 107.712 159.111529 
L 116.64 156.372471 
L 125.568 160.153151 
L 134.496 161.882191 
L 143.424 163.457873 
L 152.352 165.084433 
L 161.28 166.57123 
L 170.208 168.12288 
L 179.136 169.813656 
L 188.064 171.479399 
L 196.992 173.417539 
L 205.92 174.337049 
L 214.848 174.787945 
L 223.776 175.667635 
L 232.704 176.468494 
L 241.632 176.944878 
L 250.56 177.782782 
L 259.488 178.5462 
L 268.416 179.382304 
L 277.344 180.228753 
L 286.272 181.011598 
L 295.2 181.875008 
L 304.128 182.31625 
L 313.056 183.156619 
L 321.984 184.050352 
L 330.912 184.614781 
L 339.84 185.560457 
L 348.768 186.030503 
L 357.696 186.448108 
L 366.624 186.907622 
L 375.552 187.343552 
L 384.48 187.780552 
L 393.408 188.225809 
L 402.336 188.667007 
L 411.264 189.102074 
L 420.192 189.527922 
L 429.12 189.951643 
L 438.048 190.379227 
L 446.976 190.783593 
L 455.904 191.1735 
L 464.832 191.598549 
L 473.76 191.931526 
L 482.688 192.355627 
L 491.616 192.780817 
L 500.544 193.197302 
L 509.472 193.623245 
L 518.4 194.052793 
L 518.4 194.191059 
L 518.4 194.191059 
L 509.472 193.758902 
L 500.544 193.329331 
L 491.616 192.909684 
L 482.688 192.484065 
L 473.76 192.060858 
L 464.832 191.725312 
L 455.904 191.298781 
L 446.976 190.90594 
L 438.048 190.499211 
L 429.12 190.070448 
L 420.192 189.646124 
L 411.264 189.222248 
L 402.336 188.785705 
L 393.408 188.342147 
L 384.48 187.894872 
L 375.552 187.456199 
L 366.624 187.016887 
L 357.696 186.555896 
L 348.768 186.132223 
L 339.84 185.659223 
L 330.912 184.709462 
L 321.984 184.144723 
L 313.056 183.244255 
L 304.128 182.53074 
L 295.2 182.078344 
L 286.272 181.246544 
L 277.344 180.454488 
L 268.416 179.627201 
L 259.488 178.797175 
L 250.56 178.031924 
L 241.632 177.207773 
L 232.704 176.734145 
L 223.776 175.929481 
L 214.848 175.053294 
L 205.92 174.622052 
L 196.992 173.705422 
L 188.064 172.019857 
L 179.136 170.374524 
L 170.208 168.667885 
L 161.28 167.145657 
L 152.352 165.56944 
L 143.424 163.963602 
L 134.496 162.34463 
L 125.568 160.581494 
L 116.64 157.593836 
L 107.712 161.725618 
L 98.784 158.791342 
L 89.856 201.054434 
L 80.928 198.81452 
L 72 196.039473 
z
" style="fill:#2ca02c;fill-opacity:0.3;"/>
   </g>
   <g id="PolyCollection_4">
    <path clip-path="url(#pfe4b9bede5)" d="M 72 238.141168 
L 72 153.737637 
L 80.928 154.071134 
L 89.856 162.702413 
L 98.784 157.57403 
L 107.712 163.9959 
L 116.64 162.77386 
L 125.568 175.227622 
L 134.496 177.744464 
L 143.424 178.929863 
L 152.352 182.346581 
L 161.28 182.50728 
L 170.208 183.727081 
L 179.136 186.698167 
L 188.064 188.118609 
L 196.992 196.676881 
L 205.92 198.07374 
L 214.848 198.82429 
L 223.776 200.232348 
L 232.704 201.50532 
L 241.632 201.870837 
L 250.56 203.608228 
L 259.488 205.159357 
L 268.416 206.904788 
L 277.344 208.261177 
L 286.272 209.598932 
L 295.2 211.072515 
L 304.128 212.510996 
L 313.056 214.243697 
L 321.984 216.158396 
L 330.912 217.683427 
L 339.84 222.83089 
L 348.768 222.621032 
L 357.696 224.244772 
L 366.624 223.598114 
L 375.552 225.504294 
L 384.48 225.867678 
L 393.408 227.010911 
L 402.336 226.490591 
L 402.336 229.184449 
L 402.336 229.184449 
L 393.408 227.83721 
L 384.48 227.769745 
L 375.552 226.448346 
L 366.624 227.748209 
L 357.696 224.970359 
L 348.768 224.984246 
L 339.84 223.883497 
L 330.912 220.77751 
L 321.984 217.93888 
L 313.056 215.703841 
L 304.128 213.764174 
L 295.2 212.145312 
L 286.272 210.535878 
L 277.344 209.066338 
L 268.416 207.62167 
L 259.488 205.887038 
L 250.56 204.33911 
L 241.632 202.568192 
L 232.704 202.24667 
L 223.776 200.950824 
L 214.848 199.529988 
L 205.92 198.93733 
L 196.992 197.567875 
L 188.064 191.952176 
L 179.136 189.511254 
L 170.208 186.128988 
L 161.28 185.101429 
L 152.352 186.113059 
L 143.424 182.965975 
L 134.496 181.432073 
L 125.568 179.06312 
L 116.64 170.294909 
L 107.712 168.033382 
L 98.784 161.966502 
L 89.856 219.680691 
L 80.928 217.583662 
L 72 238.141168 
z
" style="fill:#d62728;fill-opacity:0.3;"/>
    <path clip-path="url(#pfe4b9bede5)" d="M 420.192 230.952042 
L 420.192 227.939303 
L 429.12 226.636914 
L 438.048 228.351848 
L 446.976 229.304331 
L 455.904 222.581636 
L 464.832 230.176532 
L 473.76 232.478236 
L 482.688 224.927877 
L 482.688 249.137458 
L 482.688 249.137458 
L 473.76 236.7915 
L 464.832 235.979949 
L 455.904 247.233032 
L 446.976 234.16033 
L 438.048 235.247353 
L 429.12 233.050148 
L 420.192 230.952042 
z
" style="fill:#d62728;fill-opacity:0.3;"/>
    <path clip-path="url(#pfe4b9bede5)" d="M 500.544 245.422728 
L 500.544 228.537416 
L 500.544 245.422728 
L 500.544 245.422728 
z
" style="fill:#d62728;fill-opacity:0.3;"/>
   </g>
   <g id="PolyCollection_5">
    <path clip-path="url(#pfe4b9bede5)" d="M 80.928 229.904314 
L 80.928 161.049391 
L 89.856 173.821194 
L 98.784 153.107968 
L 107.712 162.590426 
L 116.64 158.183076 
L 125.568 178.517275 
L 134.496 181.245731 
L 143.424 181.805089 
L 152.352 187.676478 
L 161.28 183.404415 
L 170.208 183.68844 
L 179.136 186.191219 
L 188.064 186.537047 
L 196.992 206.046099 
L 205.92 208.302366 
L 214.848 209.042019 
L 223.776 211.29495 
L 232.704 212.941081 
L 241.632 213.676545 
L 250.56 217.168725 
L 259.488 219.456504 
L 268.416 222.329339 
L 277.344 223.677171 
L 286.272 225.048583 
L 295.2 226.237254 
L 304.128 227.609167 
L 313.056 229.343937 
L 321.984 230.560412 
L 330.912 231.748519 
L 339.84 244.083194 
L 348.768 242.910445 
L 357.696 243.779683 
L 366.624 242.174225 
L 375.552 243.08562 
L 384.48 243.67965 
L 393.408 245.615699 
L 393.408 266.172627 
L 393.408 266.172627 
L 384.48 260.508436 
L 375.552 261.387285 
L 366.624 255.431344 
L 357.696 256.614428 
L 348.768 255.433528 
L 339.84 250.687408 
L 330.912 238.280899 
L 321.984 235.046292 
L 313.056 232.428741 
L 304.128 230.487786 
L 295.2 228.489418 
L 286.272 226.767997 
L 277.344 225.159204 
L 268.416 223.592495 
L 259.488 220.777453 
L 250.56 218.359891 
L 241.632 215.281311 
L 232.704 214.41811 
L 223.776 212.613027 
L 214.848 210.716728 
L 205.92 210.343734 
L 196.992 208.189739 
L 188.064 197.046312 
L 179.136 193.388938 
L 170.208 189.365654 
L 161.28 190.91273 
L 152.352 198.421018 
L 143.424 194.051302 
L 134.496 192.473677 
L 125.568 190.021503 
L 116.64 176.81232 
L 107.712 170.957853 
L 98.784 163.880661 
L 89.856 235.551931 
L 80.928 229.904314 
z
" style="fill:#9467bd;fill-opacity:0.3;"/>
    <path clip-path="url(#pfe4b9bede5)" d="M 411.264 271.835865 
L 411.264 243.711343 
L 420.192 244.021061 
L 420.192 271.43525 
L 420.192 271.43525 
L 411.264 271.835865 
z
" style="fill:#9467bd;fill-opacity:0.3;"/>
   </g>
   <g id="PolyCollection_6">
    <path clip-path="url(#pfe4b9bede5)" d="M 72 249.108499 
L 72 153.326056 
L 80.928 158.145652 
L 89.856 160.451009 
L 98.784 148.654667 
L 107.712 150.532037 
L 116.64 151.533302 
L 125.568 164.668312 
L 134.496 173.398837 
L 143.424 176.825455 
L 152.352 182.625531 
L 161.28 178.061917 
L 170.208 180.550658 
L 179.136 184.996692 
L 188.064 188.383435 
L 196.992 197.903624 
L 205.92 202.51214 
L 214.848 205.253865 
L 223.776 210.694792 
L 232.704 214.941914 
L 241.632 219.237992 
L 250.56 221.608037 
L 259.488 228.270996 
L 259.488 235.51846 
L 259.488 235.51846 
L 250.56 230.148212 
L 241.632 221.746245 
L 232.704 216.642434 
L 223.776 212.285475 
L 214.848 208.19562 
L 205.92 206.727054 
L 196.992 200.71205 
L 188.064 191.836764 
L 179.136 188.979697 
L 170.208 183.626212 
L 161.28 183.428337 
L 152.352 194.750323 
L 143.424 186.339582 
L 134.496 182.484558 
L 125.568 172.093002 
L 116.64 163.777154 
L 107.712 160.718424 
L 98.784 157.400459 
L 89.856 220.478754 
L 80.928 218.326578 
L 72 249.108499 
z
" style="fill:#8c564b;fill-opacity:0.3;"/>
    <path clip-path="url(#pfe4b9bede5)" d="M 277.344 259.242561 
L 277.344 227.55929 
L 277.344 259.242561 
L 277.344 259.242561 
z
" style="fill:#8c564b;fill-opacity:0.3;"/>
   </g>
   <g id="PolyCollection_7">
    <path clip-path="url(#pfe4b9bede5)" d="M 80.928 232.203092 
L 80.928 135.338208 
L 89.856 166.045398 
L 98.784 160.95465 
L 107.712 150.208385 
L 107.712 202.539165 
L 107.712 202.539165 
L 98.784 196.413251 
L 89.856 204.558559 
L 80.928 232.203092 
z
" style="fill:#e377c2;fill-opacity:0.3;"/>
    <path clip-path="url(#pfe4b9bede5)" d="M 125.568 216.74326 
L 125.568 140.800478 
L 134.496 150.144924 
L 143.424 148.918374 
L 143.424 207.136952 
L 143.424 207.136952 
L 134.496 194.669757 
L 125.568 216.74326 
z
" style="fill:#e377c2;fill-opacity:0.3;"/>
    <path clip-path="url(#pfe4b9bede5)" d="M 161.28 206.618161 
L 161.28 144.989115 
L 170.208 157.226232 
L 179.136 156.23357 
L 188.064 152.837457 
L 196.992 144.86652 
L 205.92 152.622408 
L 214.848 133.015534 
L 214.848 222.98195 
L 214.848 222.98195 
L 205.92 201.524787 
L 196.992 185.135747 
L 188.064 198.770824 
L 179.136 197.671514 
L 170.208 204.734832 
L 161.28 206.618161 
z
" style="fill:#e377c2;fill-opacity:0.3;"/>
    <path clip-path="url(#pfe4b9bede5)" d="M 250.56 197.033753 
L 250.56 145.127058 
L 259.488 144.893311 
L 259.488 189.715461 
L 259.488 189.715461 
L 250.56 197.033753 
z
" style="fill:#e377c2;fill-opacity:0.3;"/>
    <path clip-path="url(#pfe4b9bede5)" d="M 295.2 228.936219 
L 295.2 136.287948 
L 304.128 148.14303 
L 313.056 129.577107 
L 321.984 135.23333 
L 330.912 141.415957 
L 330.912 196.571263 
L 330.912 196.571263 
L 321.984 197.956806 
L 313.056 246.886258 
L 304.128 211.134792 
L 295.2 228.936219 
z
" style="fill:#e377c2;fill-opacity:0.3;"/>
    <path clip-path="url(#pfe4b9bede5)" d="M 357.696 235.727183 
L 357.696 115.501827 
L 357.696 235.727183 
L 357.696 235.727183 
z
" style="fill:#e377c2;fill-opacity:0.3;"/>
    <path clip-path="url(#pfe4b9bede5)" d="M 393.408 248.583005 
L 393.408 113.043774 
L 393.408 248.583005 
L 393.408 248.583005 
z
" style="fill:#e377c2;fill-opacity:0.3;"/>
    <path clip-path="url(#pfe4b9bede5)" d="M 411.264 207.493408 
L 411.264 116.887139 
L 411.264 207.493408 
L 411.264 207.493408 
z
" style="fill:#e377c2;fill-opacity:0.3;"/>
    <path clip-path="url(#pfe4b9bede5)" d="M 438.048 234.253121 
L 438.048 117.259845 
L 438.048 234.253121 
L 438.048 234.253121 
z
" style="fill:#e377c2;fill-opacity:0.3;"/>
    <path clip-path="url(#pfe4b9bede5)" d="M 455.904 192.515295 
L 455.904 131.823835 
L 464.832 132.816096 
L 473.76 136.012477 
L 482.688 120.881124 
L 482.688 220.441316 
L 482.688 220.441316 
L 473.76 179.220274 
L 464.832 187.599578 
L 455.904 192.515295 
z
" style="fill:#e377c2;fill-opacity:0.3;"/>
    <path clip-path="url(#pfe4b9bede5)" d="M 500.544 235.396068 
L 500.544 113.677936 
L 500.544 235.396068 
L 500.544 235.396068 
z
" style="fill:#e377c2;fill-opacity:0.3;"/>
   </g>
   <g id="matplotlib.axis_1">
    <g id="xtick_1">
     <g id="line2d_1">
      <path clip-path="url(#pfe4b9bede5)" d="M 72 384.48 
L 72 51.84 
" style="fill:none;stroke:#b0b0b0;stroke-linecap:square;stroke-width:0.8;"/>
     </g>
     <g id="line2d_2">
      <defs>
       <path d="M 0 0 
L 0 3.5 
" id="m3c3c94060e" style="stroke:#000000;stroke-width:0.8;"/>
      </defs>
      <g>
       <use style="stroke:#000000;stroke-width:0.8;" x="72" xlink:href="#m3c3c94060e" y="384.48"/>
      </g>
     </g>
     <g id="text_1">
      <!-- 0 -->
      <defs>
       <path d="M 31.78125 66.40625 
Q 24.171875 66.40625 20.328125 58.90625 
Q 16.5 51.421875 16.5 36.375 
Q 16.5 21.390625 20.328125 13.890625 
Q 24.171875 6.390625 31.78125 6.390625 
Q 39.453125 6.390625 43.28125 13.890625 
Q 47.125 21.390625 47.125 36.375 
Q 47.125 51.421875 43.28125 58.90625 
Q 39.453125 66.40625 31.78125 66.40625 
z
M 31.78125 74.21875 
Q 44.046875 74.21875 50.515625 64.515625 
Q 56.984375 54.828125 56.984375 36.375 
Q 56.984375 17.96875 50.515625 8.265625 
Q 44.046875 -1.421875 31.78125 -1.421875 
Q 19.53125 -1.421875 13.0625 8.265625 
Q 6.59375 17.96875 6.59375 36.375 
Q 6.59375 54.828125 13.0625 64.515625 
Q 19.53125 74.21875 31.78125 74.21875 
z
" id="DejaVuSans-48"/>
      </defs>
      <g transform="translate(68.81875 399.078438)scale(0.1 -0.1)">
       <use xlink:href="#DejaVuSans-48"/>
      </g>
     </g>
    </g>
    <g id="xtick_2">
     <g id="line2d_3">
      <path clip-path="url(#pfe4b9bede5)" d="M 161.28 384.48 
L 161.28 51.84 
" style="fill:none;stroke:#b0b0b0;stroke-linecap:square;stroke-width:0.8;"/>
     </g>
     <g id="line2d_4">
      <g>
       <use style="stroke:#000000;stroke-width:0.8;" x="161.28" xlink:href="#m3c3c94060e" y="384.48"/>
      </g>
     </g>
     <g id="text_2">
      <!-- 10 -->
      <defs>
       <path d="M 12.40625 8.296875 
L 28.515625 8.296875 
L 28.515625 63.921875 
L 10.984375 60.40625 
L 10.984375 69.390625 
L 28.421875 72.90625 
L 38.28125 72.90625 
L 38.28125 8.296875 
L 54.390625 8.296875 
L 54.390625 0 
L 12.40625 0 
z
" id="DejaVuSans-49"/>
      </defs>
      <g transform="translate(154.9175 399.078438)scale(0.1 -0.1)">
       <use xlink:href="#DejaVuSans-49"/>
       <use x="63.623047" xlink:href="#DejaVuSans-48"/>
      </g>
     </g>
    </g>
    <g id="xtick_3">
     <g id="line2d_5">
      <path clip-path="url(#pfe4b9bede5)" d="M 250.56 384.48 
L 250.56 51.84 
" style="fill:none;stroke:#b0b0b0;stroke-linecap:square;stroke-width:0.8;"/>
     </g>
     <g id="line2d_6">
      <g>
       <use style="stroke:#000000;stroke-width:0.8;" x="250.56" xlink:href="#m3c3c94060e" y="384.48"/>
      </g>
     </g>
     <g id="text_3">
      <!-- 20 -->
      <defs>
       <path d="M 19.1875 8.296875 
L 53.609375 8.296875 
L 53.609375 0 
L 7.328125 0 
L 7.328125 8.296875 
Q 12.9375 14.109375 22.625 23.890625 
Q 32.328125 33.6875 34.8125 36.53125 
Q 39.546875 41.84375 41.421875 45.53125 
Q 43.3125 49.21875 43.3125 52.78125 
Q 43.3125 58.59375 39.234375 62.25 
Q 35.15625 65.921875 28.609375 65.921875 
Q 23.96875 65.921875 18.8125 64.3125 
Q 13.671875 62.703125 7.8125 59.421875 
L 7.8125 69.390625 
Q 13.765625 71.78125 18.9375 73 
Q 24.125 74.21875 28.421875 74.21875 
Q 39.75 74.21875 46.484375 68.546875 
Q 53.21875 62.890625 53.21875 53.421875 
Q 53.21875 48.921875 51.53125 44.890625 
Q 49.859375 40.875 45.40625 35.40625 
Q 44.1875 33.984375 37.640625 27.21875 
Q 31.109375 20.453125 19.1875 8.296875 
z
" id="DejaVuSans-50"/>
      </defs>
      <g transform="translate(244.1975 399.078438)scale(0.1 -0.1)">
       <use xlink:href="#DejaVuSans-50"/>
       <use x="63.623047" xlink:href="#DejaVuSans-48"/>
      </g>
     </g>
    </g>
    <g id="xtick_4">
     <g id="line2d_7">
      <path clip-path="url(#pfe4b9bede5)" d="M 339.84 384.48 
L 339.84 51.84 
" style="fill:none;stroke:#b0b0b0;stroke-linecap:square;stroke-width:0.8;"/>
     </g>
     <g id="line2d_8">
      <g>
       <use style="stroke:#000000;stroke-width:0.8;" x="339.84" xlink:href="#m3c3c94060e" y="384.48"/>
      </g>
     </g>
     <g id="text_4">
      <!-- 30 -->
      <defs>
       <path d="M 40.578125 39.3125 
Q 47.65625 37.796875 51.625 33 
Q 55.609375 28.21875 55.609375 21.1875 
Q 55.609375 10.40625 48.1875 4.484375 
Q 40.765625 -1.421875 27.09375 -1.421875 
Q 22.515625 -1.421875 17.65625 -0.515625 
Q 12.796875 0.390625 7.625 2.203125 
L 7.625 11.71875 
Q 11.71875 9.328125 16.59375 8.109375 
Q 21.484375 6.890625 26.8125 6.890625 
Q 36.078125 6.890625 40.9375 10.546875 
Q 45.796875 14.203125 45.796875 21.1875 
Q 45.796875 27.640625 41.28125 31.265625 
Q 36.765625 34.90625 28.71875 34.90625 
L 20.21875 34.90625 
L 20.21875 43.015625 
L 29.109375 43.015625 
Q 36.375 43.015625 40.234375 45.921875 
Q 44.09375 48.828125 44.09375 54.296875 
Q 44.09375 59.90625 40.109375 62.90625 
Q 36.140625 65.921875 28.71875 65.921875 
Q 24.65625 65.921875 20.015625 65.03125 
Q 15.375 64.15625 9.8125 62.3125 
L 9.8125 71.09375 
Q 15.4375 72.65625 20.34375 73.4375 
Q 25.25 74.21875 29.59375 74.21875 
Q 40.828125 74.21875 47.359375 69.109375 
Q 53.90625 64.015625 53.90625 55.328125 
Q 53.90625 49.265625 50.4375 45.09375 
Q 46.96875 40.921875 40.578125 39.3125 
z
" id="DejaVuSans-51"/>
      </defs>
      <g transform="translate(333.4775 399.078438)scale(0.1 -0.1)">
       <use xlink:href="#DejaVuSans-51"/>
       <use x="63.623047" xlink:href="#DejaVuSans-48"/>
      </g>
     </g>
    </g>
    <g id="xtick_5">
     <g id="line2d_9">
      <path clip-path="url(#pfe4b9bede5)" d="M 429.12 384.48 
L 429.12 51.84 
" style="fill:none;stroke:#b0b0b0;stroke-linecap:square;stroke-width:0.8;"/>
     </g>
     <g id="line2d_10">
      <g>
       <use style="stroke:#000000;stroke-width:0.8;" x="429.12" xlink:href="#m3c3c94060e" y="384.48"/>
      </g>
     </g>
     <g id="text_5">
      <!-- 40 -->
      <defs>
       <path d="M 37.796875 64.3125 
L 12.890625 25.390625 
L 37.796875 25.390625 
z
M 35.203125 72.90625 
L 47.609375 72.90625 
L 47.609375 25.390625 
L 58.015625 25.390625 
L 58.015625 17.1875 
L 47.609375 17.1875 
L 47.609375 0 
L 37.796875 0 
L 37.796875 17.1875 
L 4.890625 17.1875 
L 4.890625 26.703125 
z
" id="DejaVuSans-52"/>
      </defs>
      <g transform="translate(422.7575 399.078438)scale(0.1 -0.1)">
       <use xlink:href="#DejaVuSans-52"/>
       <use x="63.623047" xlink:href="#DejaVuSans-48"/>
      </g>
     </g>
    </g>
    <g id="xtick_6">
     <g id="line2d_11">
      <path clip-path="url(#pfe4b9bede5)" d="M 518.4 384.48 
L 518.4 51.84 
" style="fill:none;stroke:#b0b0b0;stroke-linecap:square;stroke-width:0.8;"/>
     </g>
     <g id="line2d_12">
      <g>
       <use style="stroke:#000000;stroke-width:0.8;" x="518.4" xlink:href="#m3c3c94060e" y="384.48"/>
      </g>
     </g>
     <g id="text_6">
      <!-- 50 -->
      <defs>
       <path d="M 10.796875 72.90625 
L 49.515625 72.90625 
L 49.515625 64.59375 
L 19.828125 64.59375 
L 19.828125 46.734375 
Q 21.96875 47.46875 24.109375 47.828125 
Q 26.265625 48.1875 28.421875 48.1875 
Q 40.625 48.1875 47.75 41.5 
Q 54.890625 34.8125 54.890625 23.390625 
Q 54.890625 11.625 47.5625 5.09375 
Q 40.234375 -1.421875 26.90625 -1.421875 
Q 22.3125 -1.421875 17.546875 -0.640625 
Q 12.796875 0.140625 7.71875 1.703125 
L 7.71875 11.625 
Q 12.109375 9.234375 16.796875 8.0625 
Q 21.484375 6.890625 26.703125 6.890625 
Q 35.15625 6.890625 40.078125 11.328125 
Q 45.015625 15.765625 45.015625 23.390625 
Q 45.015625 31 40.078125 35.4375 
Q 35.15625 39.890625 26.703125 39.890625 
Q 22.75 39.890625 18.8125 39.015625 
Q 14.890625 38.140625 10.796875 36.28125 
z
" id="DejaVuSans-53"/>
      </defs>
      <g transform="translate(512.0375 399.078438)scale(0.1 -0.1)">
       <use xlink:href="#DejaVuSans-53"/>
       <use x="63.623047" xlink:href="#DejaVuSans-48"/>
      </g>
     </g>
    </g>
    <g id="text_7">
     <!-- Iteration -->
     <defs>
      <path d="M 9.8125 72.90625 
L 19.671875 72.90625 
L 19.671875 0 
L 9.8125 0 
z
" id="DejaVuSans-73"/>
      <path d="M 18.3125 70.21875 
L 18.3125 54.6875 
L 36.8125 54.6875 
L 36.8125 47.703125 
L 18.3125 47.703125 
L 18.3125 18.015625 
Q 18.3125 11.328125 20.140625 9.421875 
Q 21.96875 7.515625 27.59375 7.515625 
L 36.8125 7.515625 
L 36.8125 0 
L 27.59375 0 
Q 17.1875 0 13.234375 3.875 
Q 9.28125 7.765625 9.28125 18.015625 
L 9.28125 47.703125 
L 2.6875 47.703125 
L 2.6875 54.6875 
L 9.28125 54.6875 
L 9.28125 70.21875 
z
" id="DejaVuSans-116"/>
      <path d="M 56.203125 29.59375 
L 56.203125 25.203125 
L 14.890625 25.203125 
Q 15.484375 15.921875 20.484375 11.0625 
Q 25.484375 6.203125 34.421875 6.203125 
Q 39.59375 6.203125 44.453125 7.46875 
Q 49.3125 8.734375 54.109375 11.28125 
L 54.109375 2.78125 
Q 49.265625 0.734375 44.1875 -0.34375 
Q 39.109375 -1.421875 33.890625 -1.421875 
Q 20.796875 -1.421875 13.15625 6.1875 
Q 5.515625 13.8125 5.515625 26.8125 
Q 5.515625 40.234375 12.765625 48.109375 
Q 20.015625 56 32.328125 56 
Q 43.359375 56 49.78125 48.890625 
Q 56.203125 41.796875 56.203125 29.59375 
z
M 47.21875 32.234375 
Q 47.125 39.59375 43.09375 43.984375 
Q 39.0625 48.390625 32.421875 48.390625 
Q 24.90625 48.390625 20.390625 44.140625 
Q 15.875 39.890625 15.1875 32.171875 
z
" id="DejaVuSans-101"/>
      <path d="M 41.109375 46.296875 
Q 39.59375 47.171875 37.8125 47.578125 
Q 36.03125 48 33.890625 48 
Q 26.265625 48 22.1875 43.046875 
Q 18.109375 38.09375 18.109375 28.8125 
L 18.109375 0 
L 9.078125 0 
L 9.078125 54.6875 
L 18.109375 54.6875 
L 18.109375 46.1875 
Q 20.953125 51.171875 25.484375 53.578125 
Q 30.03125 56 36.53125 56 
Q 37.453125 56 38.578125 55.875 
Q 39.703125 55.765625 41.0625 55.515625 
z
" id="DejaVuSans-114"/>
      <path d="M 34.28125 27.484375 
Q 23.390625 27.484375 19.1875 25 
Q 14.984375 22.515625 14.984375 16.5 
Q 14.984375 11.71875 18.140625 8.90625 
Q 21.296875 6.109375 26.703125 6.109375 
Q 34.1875 6.109375 38.703125 11.40625 
Q 43.21875 16.703125 43.21875 25.484375 
L 43.21875 27.484375 
z
M 52.203125 31.203125 
L 52.203125 0 
L 43.21875 0 
L 43.21875 8.296875 
Q 40.140625 3.328125 35.546875 0.953125 
Q 30.953125 -1.421875 24.3125 -1.421875 
Q 15.921875 -1.421875 10.953125 3.296875 
Q 6 8.015625 6 15.921875 
Q 6 25.140625 12.171875 29.828125 
Q 18.359375 34.515625 30.609375 34.515625 
L 43.21875 34.515625 
L 43.21875 35.40625 
Q 43.21875 41.609375 39.140625 45 
Q 35.0625 48.390625 27.6875 48.390625 
Q 23 48.390625 18.546875 47.265625 
Q 14.109375 46.140625 10.015625 43.890625 
L 10.015625 52.203125 
Q 14.9375 54.109375 19.578125 55.046875 
Q 24.21875 56 28.609375 56 
Q 40.484375 56 46.34375 49.84375 
Q 52.203125 43.703125 52.203125 31.203125 
z
" id="DejaVuSans-97"/>
      <path d="M 9.421875 54.6875 
L 18.40625 54.6875 
L 18.40625 0 
L 9.421875 0 
z
M 9.421875 75.984375 
L 18.40625 75.984375 
L 18.40625 64.59375 
L 9.421875 64.59375 
z
" id="DejaVuSans-105"/>
      <path d="M 30.609375 48.390625 
Q 23.390625 48.390625 19.1875 42.75 
Q 14.984375 37.109375 14.984375 27.296875 
Q 14.984375 17.484375 19.15625 11.84375 
Q 23.34375 6.203125 30.609375 6.203125 
Q 37.796875 6.203125 41.984375 11.859375 
Q 46.1875 17.53125 46.1875 27.296875 
Q 46.1875 37.015625 41.984375 42.703125 
Q 37.796875 48.390625 30.609375 48.390625 
z
M 30.609375 56 
Q 42.328125 56 49.015625 48.375 
Q 55.71875 40.765625 55.71875 27.296875 
Q 55.71875 13.875 49.015625 6.21875 
Q 42.328125 -1.421875 30.609375 -1.421875 
Q 18.84375 -1.421875 12.171875 6.21875 
Q 5.515625 13.875 5.515625 27.296875 
Q 5.515625 40.765625 12.171875 48.375 
Q 18.84375 56 30.609375 56 
z
" id="DejaVuSans-111"/>
      <path d="M 54.890625 33.015625 
L 54.890625 0 
L 45.90625 0 
L 45.90625 32.71875 
Q 45.90625 40.484375 42.875 44.328125 
Q 39.84375 48.1875 33.796875 48.1875 
Q 26.515625 48.1875 22.3125 43.546875 
Q 18.109375 38.921875 18.109375 30.90625 
L 18.109375 0 
L 9.078125 0 
L 9.078125 54.6875 
L 18.109375 54.6875 
L 18.109375 46.1875 
Q 21.34375 51.125 25.703125 53.5625 
Q 30.078125 56 35.796875 56 
Q 45.21875 56 50.046875 50.171875 
Q 54.890625 44.34375 54.890625 33.015625 
z
" id="DejaVuSans-110"/>
     </defs>
     <g transform="translate(273.991406 412.756563)scale(0.1 -0.1)">
      <use xlink:href="#DejaVuSans-73"/>
      <use x="29.492188" xlink:href="#DejaVuSans-116"/>
      <use x="68.701172" xlink:href="#DejaVuSans-101"/>
      <use x="130.224609" xlink:href="#DejaVuSans-114"/>
      <use x="171.337891" xlink:href="#DejaVuSans-97"/>
      <use x="232.617188" xlink:href="#DejaVuSans-116"/>
      <use x="271.826172" xlink:href="#DejaVuSans-105"/>
      <use x="299.609375" xlink:href="#DejaVuSans-111"/>
      <use x="360.791016" xlink:href="#DejaVuSans-110"/>
     </g>
    </g>
   </g>
   <g id="matplotlib.axis_2">
    <g id="ytick_1">
     <g id="line2d_13">
      <path clip-path="url(#pfe4b9bede5)" d="M 72 384.48 
L 518.4 384.48 
" style="fill:none;stroke:#b0b0b0;stroke-linecap:square;stroke-width:0.8;"/>
     </g>
     <g id="line2d_14">
      <defs>
       <path d="M 0 0 
L -3.5 0 
" id="m3766a1124d" style="stroke:#000000;stroke-width:0.8;"/>
      </defs>
      <g>
       <use style="stroke:#000000;stroke-width:0.8;" x="72" xlink:href="#m3766a1124d" y="384.48"/>
      </g>
     </g>
     <g id="text_8">
      <!-- $\mathdefault{10^{-12}}$ -->
      <defs>
       <path d="M 10.59375 35.5 
L 73.1875 35.5 
L 73.1875 27.203125 
L 10.59375 27.203125 
z
" id="DejaVuSans-8722"/>
      </defs>
      <g transform="translate(37.1 388.279219)scale(0.1 -0.1)">
       <use transform="translate(0 0.765625)" xlink:href="#DejaVuSans-49"/>
       <use transform="translate(63.623047 0.765625)" xlink:href="#DejaVuSans-48"/>
       <use transform="translate(128.203125 39.046875)scale(0.7)" xlink:href="#DejaVuSans-8722"/>
       <use transform="translate(186.855469 39.046875)scale(0.7)" xlink:href="#DejaVuSans-49"/>
       <use transform="translate(231.391602 39.046875)scale(0.7)" xlink:href="#DejaVuSans-50"/>
      </g>
     </g>
    </g>
    <g id="ytick_2">
     <g id="line2d_15">
      <path clip-path="url(#pfe4b9bede5)" d="M 72 336.96 
L 518.4 336.96 
" style="fill:none;stroke:#b0b0b0;stroke-linecap:square;stroke-width:0.8;"/>
     </g>
     <g id="line2d_16">
      <g>
       <use style="stroke:#000000;stroke-width:0.8;" x="72" xlink:href="#m3766a1124d" y="336.96"/>
      </g>
     </g>
     <g id="text_9">
      <!-- $\mathdefault{10^{-10}}$ -->
      <g transform="translate(37.1 340.759219)scale(0.1 -0.1)">
       <use transform="translate(0 0.765625)" xlink:href="#DejaVuSans-49"/>
       <use transform="translate(63.623047 0.765625)" xlink:href="#DejaVuSans-48"/>
       <use transform="translate(128.203125 39.046875)scale(0.7)" xlink:href="#DejaVuSans-8722"/>
       <use transform="translate(186.855469 39.046875)scale(0.7)" xlink:href="#DejaVuSans-49"/>
       <use transform="translate(231.391602 39.046875)scale(0.7)" xlink:href="#DejaVuSans-48"/>
      </g>
     </g>
    </g>
    <g id="ytick_3">
     <g id="line2d_17">
      <path clip-path="url(#pfe4b9bede5)" d="M 72 289.44 
L 518.4 289.44 
" style="fill:none;stroke:#b0b0b0;stroke-linecap:square;stroke-width:0.8;"/>
     </g>
     <g id="line2d_18">
      <g>
       <use style="stroke:#000000;stroke-width:0.8;" x="72" xlink:href="#m3766a1124d" y="289.44"/>
      </g>
     </g>
     <g id="text_10">
      <!-- $\mathdefault{10^{-8}}$ -->
      <defs>
       <path d="M 31.78125 34.625 
Q 24.75 34.625 20.71875 30.859375 
Q 16.703125 27.09375 16.703125 20.515625 
Q 16.703125 13.921875 20.71875 10.15625 
Q 24.75 6.390625 31.78125 6.390625 
Q 38.8125 6.390625 42.859375 10.171875 
Q 46.921875 13.96875 46.921875 20.515625 
Q 46.921875 27.09375 42.890625 30.859375 
Q 38.875 34.625 31.78125 34.625 
z
M 21.921875 38.8125 
Q 15.578125 40.375 12.03125 44.71875 
Q 8.5 49.078125 8.5 55.328125 
Q 8.5 64.0625 14.71875 69.140625 
Q 20.953125 74.21875 31.78125 74.21875 
Q 42.671875 74.21875 48.875 69.140625 
Q 55.078125 64.0625 55.078125 55.328125 
Q 55.078125 49.078125 51.53125 44.71875 
Q 48 40.375 41.703125 38.8125 
Q 48.828125 37.15625 52.796875 32.3125 
Q 56.78125 27.484375 56.78125 20.515625 
Q 56.78125 9.90625 50.3125 4.234375 
Q 43.84375 -1.421875 31.78125 -1.421875 
Q 19.734375 -1.421875 13.25 4.234375 
Q 6.78125 9.90625 6.78125 20.515625 
Q 6.78125 27.484375 10.78125 32.3125 
Q 14.796875 37.15625 21.921875 38.8125 
z
M 18.3125 54.390625 
Q 18.3125 48.734375 21.84375 45.5625 
Q 25.390625 42.390625 31.78125 42.390625 
Q 38.140625 42.390625 41.71875 45.5625 
Q 45.3125 48.734375 45.3125 54.390625 
Q 45.3125 60.0625 41.71875 63.234375 
Q 38.140625 66.40625 31.78125 66.40625 
Q 25.390625 66.40625 21.84375 63.234375 
Q 18.3125 60.0625 18.3125 54.390625 
z
" id="DejaVuSans-56"/>
      </defs>
      <g transform="translate(41.5 293.239219)scale(0.1 -0.1)">
       <use transform="translate(0 0.765625)" xlink:href="#DejaVuSans-49"/>
       <use transform="translate(63.623047 0.765625)" xlink:href="#DejaVuSans-48"/>
       <use transform="translate(128.203125 39.046875)scale(0.7)" xlink:href="#DejaVuSans-8722"/>
       <use transform="translate(186.855469 39.046875)scale(0.7)" xlink:href="#DejaVuSans-56"/>
      </g>
     </g>
    </g>
    <g id="ytick_4">
     <g id="line2d_19">
      <path clip-path="url(#pfe4b9bede5)" d="M 72 241.92 
L 518.4 241.92 
" style="fill:none;stroke:#b0b0b0;stroke-linecap:square;stroke-width:0.8;"/>
     </g>
     <g id="line2d_20">
      <g>
       <use style="stroke:#000000;stroke-width:0.8;" x="72" xlink:href="#m3766a1124d" y="241.92"/>
      </g>
     </g>
     <g id="text_11">
      <!-- $\mathdefault{10^{-6}}$ -->
      <defs>
       <path d="M 33.015625 40.375 
Q 26.375 40.375 22.484375 35.828125 
Q 18.609375 31.296875 18.609375 23.390625 
Q 18.609375 15.53125 22.484375 10.953125 
Q 26.375 6.390625 33.015625 6.390625 
Q 39.65625 6.390625 43.53125 10.953125 
Q 47.40625 15.53125 47.40625 23.390625 
Q 47.40625 31.296875 43.53125 35.828125 
Q 39.65625 40.375 33.015625 40.375 
z
M 52.59375 71.296875 
L 52.59375 62.3125 
Q 48.875 64.0625 45.09375 64.984375 
Q 41.3125 65.921875 37.59375 65.921875 
Q 27.828125 65.921875 22.671875 59.328125 
Q 17.53125 52.734375 16.796875 39.40625 
Q 19.671875 43.65625 24.015625 45.921875 
Q 28.375 48.1875 33.59375 48.1875 
Q 44.578125 48.1875 50.953125 41.515625 
Q 57.328125 34.859375 57.328125 23.390625 
Q 57.328125 12.15625 50.6875 5.359375 
Q 44.046875 -1.421875 33.015625 -1.421875 
Q 20.359375 -1.421875 13.671875 8.265625 
Q 6.984375 17.96875 6.984375 36.375 
Q 6.984375 53.65625 15.1875 63.9375 
Q 23.390625 74.21875 37.203125 74.21875 
Q 40.921875 74.21875 44.703125 73.484375 
Q 48.484375 72.75 52.59375 71.296875 
z
" id="DejaVuSans-54"/>
      </defs>
      <g transform="translate(41.5 245.719219)scale(0.1 -0.1)">
       <use transform="translate(0 0.765625)" xlink:href="#DejaVuSans-49"/>
       <use transform="translate(63.623047 0.765625)" xlink:href="#DejaVuSans-48"/>
       <use transform="translate(128.203125 39.046875)scale(0.7)" xlink:href="#DejaVuSans-8722"/>
       <use transform="translate(186.855469 39.046875)scale(0.7)" xlink:href="#DejaVuSans-54"/>
      </g>
     </g>
    </g>
    <g id="ytick_5">
     <g id="line2d_21">
      <path clip-path="url(#pfe4b9bede5)" d="M 72 194.4 
L 518.4 194.4 
" style="fill:none;stroke:#b0b0b0;stroke-linecap:square;stroke-width:0.8;"/>
     </g>
     <g id="line2d_22">
      <g>
       <use style="stroke:#000000;stroke-width:0.8;" x="72" xlink:href="#m3766a1124d" y="194.4"/>
      </g>
     </g>
     <g id="text_12">
      <!-- $\mathdefault{10^{-4}}$ -->
      <g transform="translate(41.5 198.199219)scale(0.1 -0.1)">
       <use transform="translate(0 0.684375)" xlink:href="#DejaVuSans-49"/>
       <use transform="translate(63.623047 0.684375)" xlink:href="#DejaVuSans-48"/>
       <use transform="translate(128.203125 38.965625)scale(0.7)" xlink:href="#DejaVuSans-8722"/>
       <use transform="translate(186.855469 38.965625)scale(0.7)" xlink:href="#DejaVuSans-52"/>
      </g>
     </g>
    </g>
    <g id="ytick_6">
     <g id="line2d_23">
      <path clip-path="url(#pfe4b9bede5)" d="M 72 146.88 
L 518.4 146.88 
" style="fill:none;stroke:#b0b0b0;stroke-linecap:square;stroke-width:0.8;"/>
     </g>
     <g id="line2d_24">
      <g>
       <use style="stroke:#000000;stroke-width:0.8;" x="72" xlink:href="#m3766a1124d" y="146.88"/>
      </g>
     </g>
     <g id="text_13">
      <!-- $\mathdefault{10^{-2}}$ -->
      <g transform="translate(41.5 150.679219)scale(0.1 -0.1)">
       <use transform="translate(0 0.765625)" xlink:href="#DejaVuSans-49"/>
       <use transform="translate(63.623047 0.765625)" xlink:href="#DejaVuSans-48"/>
       <use transform="translate(128.203125 39.046875)scale(0.7)" xlink:href="#DejaVuSans-8722"/>
       <use transform="translate(186.855469 39.046875)scale(0.7)" xlink:href="#DejaVuSans-50"/>
      </g>
     </g>
    </g>
    <g id="ytick_7">
     <g id="line2d_25">
      <path clip-path="url(#pfe4b9bede5)" d="M 72 99.36 
L 518.4 99.36 
" style="fill:none;stroke:#b0b0b0;stroke-linecap:square;stroke-width:0.8;"/>
     </g>
     <g id="line2d_26">
      <g>
       <use style="stroke:#000000;stroke-width:0.8;" x="72" xlink:href="#m3766a1124d" y="99.36"/>
      </g>
     </g>
     <g id="text_14">
      <!-- $\mathdefault{10^{0}}$ -->
      <g transform="translate(47.4 103.159219)scale(0.1 -0.1)">
       <use transform="translate(0 0.765625)" xlink:href="#DejaVuSans-49"/>
       <use transform="translate(63.623047 0.765625)" xlink:href="#DejaVuSans-48"/>
       <use transform="translate(128.203125 39.046875)scale(0.7)" xlink:href="#DejaVuSans-48"/>
      </g>
     </g>
    </g>
    <g id="ytick_8">
     <g id="line2d_27">
      <path clip-path="url(#pfe4b9bede5)" d="M 72 51.84 
L 518.4 51.84 
" style="fill:none;stroke:#b0b0b0;stroke-linecap:square;stroke-width:0.8;"/>
     </g>
     <g id="line2d_28">
      <g>
       <use style="stroke:#000000;stroke-width:0.8;" x="72" xlink:href="#m3766a1124d" y="51.84"/>
      </g>
     </g>
     <g id="text_15">
      <!-- $\mathdefault{10^{2}}$ -->
      <g transform="translate(47.4 55.639219)scale(0.1 -0.1)">
       <use transform="translate(0 0.765625)" xlink:href="#DejaVuSans-49"/>
       <use transform="translate(63.623047 0.765625)" xlink:href="#DejaVuSans-48"/>
       <use transform="translate(128.203125 39.046875)scale(0.7)" xlink:href="#DejaVuSans-50"/>
      </g>
     </g>
    </g>
    <g id="text_16">
     <!-- Integrated Variance -->
     <defs>
      <path d="M 45.40625 27.984375 
Q 45.40625 37.75 41.375 43.109375 
Q 37.359375 48.484375 30.078125 48.484375 
Q 22.859375 48.484375 18.828125 43.109375 
Q 14.796875 37.75 14.796875 27.984375 
Q 14.796875 18.265625 18.828125 12.890625 
Q 22.859375 7.515625 30.078125 7.515625 
Q 37.359375 7.515625 41.375 12.890625 
Q 45.40625 18.265625 45.40625 27.984375 
z
M 54.390625 6.78125 
Q 54.390625 -7.171875 48.1875 -13.984375 
Q 42 -20.796875 29.203125 -20.796875 
Q 24.46875 -20.796875 20.265625 -20.09375 
Q 16.0625 -19.390625 12.109375 -17.921875 
L 12.109375 -9.1875 
Q 16.0625 -11.328125 19.921875 -12.34375 
Q 23.78125 -13.375 27.78125 -13.375 
Q 36.625 -13.375 41.015625 -8.765625 
Q 45.40625 -4.15625 45.40625 5.171875 
L 45.40625 9.625 
Q 42.625 4.78125 38.28125 2.390625 
Q 33.9375 0 27.875 0 
Q 17.828125 0 11.671875 7.65625 
Q 5.515625 15.328125 5.515625 27.984375 
Q 5.515625 40.671875 11.671875 48.328125 
Q 17.828125 56 27.875 56 
Q 33.9375 56 38.28125 53.609375 
Q 42.625 51.21875 45.40625 46.390625 
L 45.40625 54.6875 
L 54.390625 54.6875 
z
" id="DejaVuSans-103"/>
      <path d="M 45.40625 46.390625 
L 45.40625 75.984375 
L 54.390625 75.984375 
L 54.390625 0 
L 45.40625 0 
L 45.40625 8.203125 
Q 42.578125 3.328125 38.25 0.953125 
Q 33.9375 -1.421875 27.875 -1.421875 
Q 17.96875 -1.421875 11.734375 6.484375 
Q 5.515625 14.40625 5.515625 27.296875 
Q 5.515625 40.1875 11.734375 48.09375 
Q 17.96875 56 27.875 56 
Q 33.9375 56 38.25 53.625 
Q 42.578125 51.265625 45.40625 46.390625 
z
M 14.796875 27.296875 
Q 14.796875 17.390625 18.875 11.75 
Q 22.953125 6.109375 30.078125 6.109375 
Q 37.203125 6.109375 41.296875 11.75 
Q 45.40625 17.390625 45.40625 27.296875 
Q 45.40625 37.203125 41.296875 42.84375 
Q 37.203125 48.484375 30.078125 48.484375 
Q 22.953125 48.484375 18.875 42.84375 
Q 14.796875 37.203125 14.796875 27.296875 
z
" id="DejaVuSans-100"/>
      <path id="DejaVuSans-32"/>
      <path d="M 28.609375 0 
L 0.78125 72.90625 
L 11.078125 72.90625 
L 34.1875 11.53125 
L 57.328125 72.90625 
L 67.578125 72.90625 
L 39.796875 0 
z
" id="DejaVuSans-86"/>
      <path d="M 48.78125 52.59375 
L 48.78125 44.1875 
Q 44.96875 46.296875 41.140625 47.34375 
Q 37.3125 48.390625 33.40625 48.390625 
Q 24.65625 48.390625 19.8125 42.84375 
Q 14.984375 37.3125 14.984375 27.296875 
Q 14.984375 17.28125 19.8125 11.734375 
Q 24.65625 6.203125 33.40625 6.203125 
Q 37.3125 6.203125 41.140625 7.25 
Q 44.96875 8.296875 48.78125 10.40625 
L 48.78125 2.09375 
Q 45.015625 0.34375 40.984375 -0.53125 
Q 36.96875 -1.421875 32.421875 -1.421875 
Q 20.0625 -1.421875 12.78125 6.34375 
Q 5.515625 14.109375 5.515625 27.296875 
Q 5.515625 40.671875 12.859375 48.328125 
Q 20.21875 56 33.015625 56 
Q 37.15625 56 41.109375 55.140625 
Q 45.0625 54.296875 48.78125 52.59375 
z
" id="DejaVuSans-99"/>
     </defs>
     <g transform="translate(31.020312 267.534219)rotate(-90)scale(0.1 -0.1)">
      <use xlink:href="#DejaVuSans-73"/>
      <use x="29.492188" xlink:href="#DejaVuSans-110"/>
      <use x="92.871094" xlink:href="#DejaVuSans-116"/>
      <use x="132.080078" xlink:href="#DejaVuSans-101"/>
      <use x="193.603516" xlink:href="#DejaVuSans-103"/>
      <use x="257.080078" xlink:href="#DejaVuSans-114"/>
      <use x="298.193359" xlink:href="#DejaVuSans-97"/>
      <use x="359.472656" xlink:href="#DejaVuSans-116"/>
      <use x="398.681641" xlink:href="#DejaVuSans-101"/>
      <use x="460.205078" xlink:href="#DejaVuSans-100"/>
      <use x="523.681641" xlink:href="#DejaVuSans-32"/>
      <use x="555.46875" xlink:href="#DejaVuSans-86"/>
      <use x="616.126953" xlink:href="#DejaVuSans-97"/>
      <use x="677.40625" xlink:href="#DejaVuSans-114"/>
      <use x="718.519531" xlink:href="#DejaVuSans-105"/>
      <use x="746.302734" xlink:href="#DejaVuSans-97"/>
      <use x="807.582031" xlink:href="#DejaVuSans-110"/>
      <use x="870.960938" xlink:href="#DejaVuSans-99"/>
      <use x="925.941406" xlink:href="#DejaVuSans-101"/>
     </g>
    </g>
   </g>
   <g id="line2d_29">
    <path clip-path="url(#pfe4b9bede5)" d="M 116.490782 433 
L 116.64 34.809 
L 125.568 41.337387 
L 125.714812 433 
M 393.296939 433 
L 393.408 137.912885 
L 393.519061 433 
" style="fill:none;stroke:#1f77b4;stroke-linecap:square;stroke-width:1.5;"/>
   </g>
   <g id="line2d_30">
    <path clip-path="url(#pfe4b9bede5)" d="M 72 218.07078 
L 72.081167 433 
M 89.772553 433 
L 89.856 211.977099 
L 98.784 158.024103 
L 107.712 172.045633 
L 116.64 168.041786 
L 125.568 191.265303 
L 134.496 189.935753 
L 143.424 191.922926 
L 152.352 208.485634 
L 161.28 178.308694 
L 170.208 172.511049 
L 179.136 175.260434 
L 188.064 173.876899 
L 196.992 208.229009 
L 205.92 215.846214 
L 214.848 211.164039 
L 223.776 222.776402 
L 232.704 224.246139 
L 241.632 221.022637 
L 250.56 239.73254 
L 259.488 238.747204 
L 268.416 242.126884 
L 277.344 241.247586 
L 286.272 239.37221 
L 295.2 238.060605 
L 304.128 236.388751 
L 313.056 229.39977 
L 321.984 230.53939 
L 330.912 228.620181 
L 339.84 230.208414 
L 348.768 223.868528 
L 357.696 222.189327 
L 366.624 224.193032 
L 375.552 221.563713 
L 384.48 225.863586 
L 393.408 220.592796 
L 402.336 221.476963 
L 411.264 222.429514 
L 420.192 221.129878 
L 429.12 220.996457 
L 438.048 219.941318 
L 446.976 221.077856 
L 455.904 218.980592 
L 464.832 217.340015 
L 473.76 219.853612 
L 482.688 218.723485 
L 491.616 217.202892 
L 500.544 218.683489 
L 509.472 215.666805 
L 518.4 217.071459 
" style="fill:none;stroke:#ff7f0e;stroke-linecap:square;stroke-width:1.5;"/>
   </g>
   <g id="line2d_31">
    <path clip-path="url(#pfe4b9bede5)" d="M 72 179.226091 
L 80.928 182.689315 
L 89.856 185.599852 
L 98.784 157.35099 
L 107.712 160.418573 
L 116.64 156.983154 
L 125.568 160.367322 
L 134.496 162.113411 
L 143.424 163.710737 
L 152.352 165.326937 
L 161.28 166.858443 
L 170.208 168.395382 
L 179.136 170.09409 
L 188.064 171.749628 
L 196.992 173.561481 
L 205.92 174.47955 
L 214.848 174.92062 
L 223.776 175.798558 
L 232.704 176.601319 
L 241.632 177.076325 
L 250.56 177.907353 
L 259.488 178.671688 
L 268.416 179.504752 
L 277.344 180.34162 
L 286.272 181.129071 
L 295.2 181.976676 
L 304.128 182.423495 
L 313.056 183.200437 
L 321.984 184.097537 
L 330.912 184.662121 
L 339.84 185.60984 
L 348.768 186.081363 
L 357.696 186.502002 
L 366.624 186.962255 
L 375.552 187.399876 
L 384.48 187.837712 
L 393.408 188.283978 
L 402.336 188.726356 
L 411.264 189.162161 
L 420.192 189.587023 
L 429.12 190.011045 
L 438.048 190.439219 
L 446.976 190.844766 
L 455.904 191.23614 
L 464.832 191.661931 
L 473.76 191.996192 
L 482.688 192.419846 
L 491.616 192.845251 
L 500.544 193.263317 
L 509.472 193.691073 
L 518.4 194.121926 
" style="fill:none;stroke:#2ca02c;stroke-linecap:square;stroke-width:1.5;"/>
   </g>
   <g id="line2d_32">
    <path clip-path="url(#pfe4b9bede5)" d="M 72 195.939403 
L 80.928 185.827398 
L 89.856 191.191552 
L 98.784 159.770266 
L 107.712 166.014641 
L 116.64 166.534385 
L 125.568 177.145371 
L 134.496 179.588269 
L 143.424 180.947919 
L 152.352 184.22982 
L 161.28 183.804355 
L 170.208 184.928034 
L 179.136 188.104711 
L 188.064 190.035392 
L 196.992 197.122378 
L 205.92 198.505535 
L 214.848 199.177139 
L 223.776 200.591586 
L 232.704 201.875995 
L 241.632 202.219514 
L 250.56 203.973669 
L 259.488 205.523197 
L 268.416 207.263229 
L 277.344 208.663757 
L 286.272 210.067405 
L 295.2 211.608913 
L 304.128 213.137585 
L 313.056 214.973769 
L 321.984 217.048638 
L 330.912 219.230469 
L 339.84 223.357194 
L 348.768 223.802639 
L 357.696 224.607566 
L 366.624 225.673162 
L 375.552 225.97632 
L 384.48 226.818711 
L 393.408 227.424061 
L 402.336 227.83752 
L 402.41351 433 
M 420.115092 433 
L 420.192 229.445672 
L 429.12 229.843531 
L 438.048 231.7996 
L 446.976 231.732331 
L 455.904 234.907334 
L 464.832 233.078241 
L 473.76 234.634868 
L 482.688 237.032668 
L 482.762065 433 
M 500.469915 433 
L 500.544 236.980072 
L 500.618085 433 
" style="fill:none;stroke:#d62728;stroke-linecap:square;stroke-width:1.5;"/>
   </g>
   <g id="line2d_33">
    <path clip-path="url(#pfe4b9bede5)" d="M 80.838386 433 
L 80.928 195.476852 
L 89.856 204.686563 
L 98.784 158.494315 
L 107.712 166.77414 
L 116.64 167.497698 
L 125.568 184.269389 
L 134.496 186.859704 
L 143.424 187.928196 
L 152.352 193.048748 
L 161.28 187.158572 
L 170.208 186.527047 
L 179.136 189.790078 
L 188.064 191.791679 
L 196.992 207.117919 
L 205.92 209.32305 
L 214.848 209.879374 
L 223.776 211.953988 
L 232.704 213.679596 
L 241.632 214.478928 
L 250.56 217.764308 
L 259.488 220.116978 
L 268.416 222.960917 
L 277.344 224.418187 
L 286.272 225.90829 
L 295.2 227.363336 
L 304.128 229.048477 
L 313.056 230.886339 
L 321.984 232.803352 
L 330.912 235.014709 
L 339.84 247.385301 
L 348.768 249.171986 
L 357.696 250.197055 
L 366.624 248.802785 
L 375.552 252.236452 
L 384.48 252.094043 
L 393.408 255.894163 
L 393.47499 433 
M 411.197715 433 
L 411.264 257.773604 
L 420.192 257.728155 
L 420.258302 433 
" style="fill:none;stroke:#9467bd;stroke-linecap:square;stroke-width:1.5;"/>
   </g>
   <g id="line2d_34">
    <path clip-path="url(#pfe4b9bede5)" d="M 72 201.217277 
L 80.928 188.236115 
L 89.856 190.464881 
L 98.784 153.027563 
L 107.712 155.62523 
L 116.64 157.655228 
L 125.568 168.380657 
L 134.496 177.941698 
L 143.424 181.582519 
L 152.352 188.687927 
L 161.28 180.745127 
L 170.208 182.088435 
L 179.136 186.988194 
L 188.064 190.110099 
L 196.992 199.307837 
L 205.92 204.619597 
L 214.848 206.724743 
L 223.776 211.490133 
L 232.704 215.792174 
L 241.632 220.492119 
L 250.56 225.878124 
L 259.488 231.894728 
L 259.563991 433 
M 277.272322 433 
L 277.344 243.400926 
L 277.415678 433 
" style="fill:none;stroke:#8c564b;stroke-linecap:square;stroke-width:1.5;"/>
   </g>
   <g id="line2d_35">
    <path clip-path="url(#pfe4b9bede5)" d="M 80.834016 433 
L 80.928 183.77065 
L 89.856 185.301978 
L 98.784 178.683951 
L 107.712 176.373775 
L 107.808743 433 
M 125.472152 433 
L 125.568 178.771869 
L 134.496 172.407341 
L 143.424 178.027663 
L 143.520126 433 
M 161.183045 433 
L 161.28 175.803638 
L 170.208 180.980532 
L 179.136 176.952542 
L 188.064 175.804141 
L 196.992 165.001133 
L 205.92 177.073598 
L 214.848 177.998742 
L 214.944137 433 
M 250.461284 433 
L 250.56 171.080405 
L 259.488 167.304386 
L 259.588123 433 
M 295.105584 433 
L 295.2 182.612083 
L 304.128 179.638911 
L 313.056 188.231683 
L 321.984 166.595068 
L 330.912 168.99361 
L 331.011494 433 
M 357.598974 433 
L 357.696 175.614505 
L 357.793026 433 
M 393.312913 433 
L 393.408 180.813389 
L 393.503087 433 
M 411.161971 433 
L 411.264 162.190274 
L 411.366029 433 
M 437.951027 433 
L 438.048 175.756483 
L 438.144973 433 
M 455.801964 433 
L 455.904 162.169565 
L 464.832 160.207837 
L 473.76 157.616375 
L 482.688 170.66122 
L 482.786872 433 
M 500.446572 433 
L 500.544 174.537002 
L 500.641428 433 
" style="fill:none;stroke:#e377c2;stroke-linecap:square;stroke-width:1.5;"/>
   </g>
   <g id="patch_3">
    <path d="M 72 384.48 
L 72 51.84 
" style="fill:none;stroke:#000000;stroke-linecap:square;stroke-linejoin:miter;stroke-width:0.8;"/>
   </g>
   <g id="patch_4">
    <path d="M 518.4 384.48 
L 518.4 51.84 
" style="fill:none;stroke:#000000;stroke-linecap:square;stroke-linejoin:miter;stroke-width:0.8;"/>
   </g>
   <g id="patch_5">
    <path d="M 72 384.48 
L 518.4 384.48 
" style="fill:none;stroke:#000000;stroke-linecap:square;stroke-linejoin:miter;stroke-width:0.8;"/>
   </g>
   <g id="patch_6">
    <path d="M 72 51.84 
L 518.4 51.84 
" style="fill:none;stroke:#000000;stroke-linecap:square;stroke-linejoin:miter;stroke-width:0.8;"/>
   </g>
   <g id="legend_1">
    <g id="patch_7">
     <path d="M 251.797656 162.586875 
L 338.602344 162.586875 
Q 340.602344 162.586875 340.602344 160.586875 
L 340.602344 58.84 
Q 340.602344 56.84 338.602344 56.84 
L 251.797656 56.84 
Q 249.797656 56.84 249.797656 58.84 
L 249.797656 160.586875 
Q 249.797656 162.586875 251.797656 162.586875 
z
" style="fill:#ffffff;opacity:0.8;stroke:#cccccc;stroke-linejoin:miter;"/>
    </g>
    <g id="line2d_36">
     <path d="M 253.797656 64.938437 
L 273.797656 64.938437 
" style="fill:none;stroke:#1f77b4;stroke-linecap:square;stroke-width:1.5;"/>
    </g>
    <g id="line2d_37"/>
    <g id="text_17">
     <!-- Constant -->
     <defs>
      <path d="M 64.40625 67.28125 
L 64.40625 56.890625 
Q 59.421875 61.53125 53.78125 63.8125 
Q 48.140625 66.109375 41.796875 66.109375 
Q 29.296875 66.109375 22.65625 58.46875 
Q 16.015625 50.828125 16.015625 36.375 
Q 16.015625 21.96875 22.65625 14.328125 
Q 29.296875 6.6875 41.796875 6.6875 
Q 48.140625 6.6875 53.78125 8.984375 
Q 59.421875 11.28125 64.40625 15.921875 
L 64.40625 5.609375 
Q 59.234375 2.09375 53.4375 0.328125 
Q 47.65625 -1.421875 41.21875 -1.421875 
Q 24.65625 -1.421875 15.125 8.703125 
Q 5.609375 18.84375 5.609375 36.375 
Q 5.609375 53.953125 15.125 64.078125 
Q 24.65625 74.21875 41.21875 74.21875 
Q 47.75 74.21875 53.53125 72.484375 
Q 59.328125 70.75 64.40625 67.28125 
z
" id="DejaVuSans-67"/>
      <path d="M 44.28125 53.078125 
L 44.28125 44.578125 
Q 40.484375 46.53125 36.375 47.5 
Q 32.28125 48.484375 27.875 48.484375 
Q 21.1875 48.484375 17.84375 46.4375 
Q 14.5 44.390625 14.5 40.28125 
Q 14.5 37.15625 16.890625 35.375 
Q 19.28125 33.59375 26.515625 31.984375 
L 29.59375 31.296875 
Q 39.15625 29.25 43.1875 25.515625 
Q 47.21875 21.78125 47.21875 15.09375 
Q 47.21875 7.46875 41.1875 3.015625 
Q 35.15625 -1.421875 24.609375 -1.421875 
Q 20.21875 -1.421875 15.453125 -0.5625 
Q 10.6875 0.296875 5.421875 2 
L 5.421875 11.28125 
Q 10.40625 8.6875 15.234375 7.390625 
Q 20.0625 6.109375 24.8125 6.109375 
Q 31.15625 6.109375 34.5625 8.28125 
Q 37.984375 10.453125 37.984375 14.40625 
Q 37.984375 18.0625 35.515625 20.015625 
Q 33.0625 21.96875 24.703125 23.78125 
L 21.578125 24.515625 
Q 13.234375 26.265625 9.515625 29.90625 
Q 5.8125 33.546875 5.8125 39.890625 
Q 5.8125 47.609375 11.28125 51.796875 
Q 16.75 56 26.8125 56 
Q 31.78125 56 36.171875 55.265625 
Q 40.578125 54.546875 44.28125 53.078125 
z
" id="DejaVuSans-115"/>
     </defs>
     <g transform="translate(281.797656 68.438437)scale(0.1 -0.1)">
      <use xlink:href="#DejaVuSans-67"/>
      <use x="69.824219" xlink:href="#DejaVuSans-111"/>
      <use x="131.005859" xlink:href="#DejaVuSans-110"/>
      <use x="194.384766" xlink:href="#DejaVuSans-115"/>
      <use x="246.484375" xlink:href="#DejaVuSans-116"/>
      <use x="285.693359" xlink:href="#DejaVuSans-97"/>
      <use x="346.972656" xlink:href="#DejaVuSans-110"/>
      <use x="410.351562" xlink:href="#DejaVuSans-116"/>
     </g>
    </g>
    <g id="line2d_38">
     <path d="M 253.797656 79.616562 
L 273.797656 79.616562 
" style="fill:none;stroke:#ff7f0e;stroke-linecap:square;stroke-width:1.5;"/>
    </g>
    <g id="line2d_39"/>
    <g id="text_18">
     <!-- RBF -->
     <defs>
      <path d="M 44.390625 34.1875 
Q 47.5625 33.109375 50.5625 29.59375 
Q 53.5625 26.078125 56.59375 19.921875 
L 66.609375 0 
L 56 0 
L 46.6875 18.703125 
Q 43.0625 26.03125 39.671875 28.421875 
Q 36.28125 30.8125 30.421875 30.8125 
L 19.671875 30.8125 
L 19.671875 0 
L 9.8125 0 
L 9.8125 72.90625 
L 32.078125 72.90625 
Q 44.578125 72.90625 50.734375 67.671875 
Q 56.890625 62.453125 56.890625 51.90625 
Q 56.890625 45.015625 53.6875 40.46875 
Q 50.484375 35.9375 44.390625 34.1875 
z
M 19.671875 64.796875 
L 19.671875 38.921875 
L 32.078125 38.921875 
Q 39.203125 38.921875 42.84375 42.21875 
Q 46.484375 45.515625 46.484375 51.90625 
Q 46.484375 58.296875 42.84375 61.546875 
Q 39.203125 64.796875 32.078125 64.796875 
z
" id="DejaVuSans-82"/>
      <path d="M 19.671875 34.8125 
L 19.671875 8.109375 
L 35.5 8.109375 
Q 43.453125 8.109375 47.28125 11.40625 
Q 51.125 14.703125 51.125 21.484375 
Q 51.125 28.328125 47.28125 31.5625 
Q 43.453125 34.8125 35.5 34.8125 
z
M 19.671875 64.796875 
L 19.671875 42.828125 
L 34.28125 42.828125 
Q 41.5 42.828125 45.03125 45.53125 
Q 48.578125 48.25 48.578125 53.8125 
Q 48.578125 59.328125 45.03125 62.0625 
Q 41.5 64.796875 34.28125 64.796875 
z
M 9.8125 72.90625 
L 35.015625 72.90625 
Q 46.296875 72.90625 52.390625 68.21875 
Q 58.5 63.53125 58.5 54.890625 
Q 58.5 48.1875 55.375 44.234375 
Q 52.25 40.28125 46.1875 39.3125 
Q 53.46875 37.75 57.5 32.78125 
Q 61.53125 27.828125 61.53125 20.40625 
Q 61.53125 10.640625 54.890625 5.3125 
Q 48.25 0 35.984375 0 
L 9.8125 0 
z
" id="DejaVuSans-66"/>
      <path d="M 9.8125 72.90625 
L 51.703125 72.90625 
L 51.703125 64.59375 
L 19.671875 64.59375 
L 19.671875 43.109375 
L 48.578125 43.109375 
L 48.578125 34.8125 
L 19.671875 34.8125 
L 19.671875 0 
L 9.8125 0 
z
" id="DejaVuSans-70"/>
     </defs>
     <g transform="translate(281.797656 83.116562)scale(0.1 -0.1)">
      <use xlink:href="#DejaVuSans-82"/>
      <use x="69.482422" xlink:href="#DejaVuSans-66"/>
      <use x="138.085938" xlink:href="#DejaVuSans-70"/>
     </g>
    </g>
    <g id="line2d_40">
     <path d="M 253.797656 94.294687 
L 273.797656 94.294687 
" style="fill:none;stroke:#2ca02c;stroke-linecap:square;stroke-width:1.5;"/>
    </g>
    <g id="line2d_41"/>
    <g id="text_19">
     <!-- Matrn-1/2 -->
     <defs>
      <path d="M 9.8125 72.90625 
L 24.515625 72.90625 
L 43.109375 23.296875 
L 61.8125 72.90625 
L 76.515625 72.90625 
L 76.515625 0 
L 66.890625 0 
L 66.890625 64.015625 
L 48.09375 14.015625 
L 38.1875 14.015625 
L 19.390625 64.015625 
L 19.390625 0 
L 9.8125 0 
z
" id="DejaVuSans-77"/>
      <path d="M 56.203125 29.59375 
L 56.203125 25.203125 
L 14.890625 25.203125 
Q 15.484375 15.921875 20.484375 11.0625 
Q 25.484375 6.203125 34.421875 6.203125 
Q 39.59375 6.203125 44.453125 7.46875 
Q 49.3125 8.734375 54.109375 11.28125 
L 54.109375 2.78125 
Q 49.265625 0.734375 44.1875 -0.34375 
Q 39.109375 -1.421875 33.890625 -1.421875 
Q 20.796875 -1.421875 13.15625 6.1875 
Q 5.515625 13.8125 5.515625 26.8125 
Q 5.515625 40.234375 12.765625 48.109375 
Q 20.015625 56 32.328125 56 
Q 43.359375 56 49.78125 48.890625 
Q 56.203125 41.796875 56.203125 29.59375 
z
M 47.21875 32.234375 
Q 47.125 39.59375 43.09375 43.984375 
Q 39.0625 48.390625 32.421875 48.390625 
Q 24.90625 48.390625 20.390625 44.140625 
Q 15.875 39.890625 15.1875 32.171875 
z
M 38.53125 79.984375 
L 48.25 79.984375 
L 32.34375 61.625 
L 24.859375 61.625 
z
" id="DejaVuSans-233"/>
      <path d="M 4.890625 31.390625 
L 31.203125 31.390625 
L 31.203125 23.390625 
L 4.890625 23.390625 
z
" id="DejaVuSans-45"/>
      <path d="M 25.390625 72.90625 
L 33.6875 72.90625 
L 8.296875 -9.28125 
L 0 -9.28125 
z
" id="DejaVuSans-47"/>
     </defs>
     <g transform="translate(281.797656 97.794687)scale(0.1 -0.1)">
      <use xlink:href="#DejaVuSans-77"/>
      <use x="86.279297" xlink:href="#DejaVuSans-97"/>
      <use x="147.558594" xlink:href="#DejaVuSans-116"/>
      <use x="186.767578" xlink:href="#DejaVuSans-233"/>
      <use x="248.291016" xlink:href="#DejaVuSans-114"/>
      <use x="287.654297" xlink:href="#DejaVuSans-110"/>
      <use x="351.033203" xlink:href="#DejaVuSans-45"/>
      <use x="387.117188" xlink:href="#DejaVuSans-49"/>
      <use x="450.740234" xlink:href="#DejaVuSans-47"/>
      <use x="484.431641" xlink:href="#DejaVuSans-50"/>
     </g>
    </g>
    <g id="line2d_42">
     <path d="M 253.797656 108.972812 
L 273.797656 108.972812 
" style="fill:none;stroke:#d62728;stroke-linecap:square;stroke-width:1.5;"/>
    </g>
    <g id="line2d_43"/>
    <g id="text_20">
     <!-- Matrn-3/2 -->
     <g transform="translate(281.797656 112.472812)scale(0.1 -0.1)">
      <use xlink:href="#DejaVuSans-77"/>
      <use x="86.279297" xlink:href="#DejaVuSans-97"/>
      <use x="147.558594" xlink:href="#DejaVuSans-116"/>
      <use x="186.767578" xlink:href="#DejaVuSans-233"/>
      <use x="248.291016" xlink:href="#DejaVuSans-114"/>
      <use x="287.654297" xlink:href="#DejaVuSans-110"/>
      <use x="351.033203" xlink:href="#DejaVuSans-45"/>
      <use x="387.117188" xlink:href="#DejaVuSans-51"/>
      <use x="450.740234" xlink:href="#DejaVuSans-47"/>
      <use x="484.431641" xlink:href="#DejaVuSans-50"/>
     </g>
    </g>
    <g id="line2d_44">
     <path d="M 253.797656 123.650937 
L 273.797656 123.650937 
" style="fill:none;stroke:#9467bd;stroke-linecap:square;stroke-width:1.5;"/>
    </g>
    <g id="line2d_45"/>
    <g id="text_21">
     <!-- Matrn-5/2 -->
     <g transform="translate(281.797656 127.150937)scale(0.1 -0.1)">
      <use xlink:href="#DejaVuSans-77"/>
      <use x="86.279297" xlink:href="#DejaVuSans-97"/>
      <use x="147.558594" xlink:href="#DejaVuSans-116"/>
      <use x="186.767578" xlink:href="#DejaVuSans-233"/>
      <use x="248.291016" xlink:href="#DejaVuSans-114"/>
      <use x="287.654297" xlink:href="#DejaVuSans-110"/>
      <use x="351.033203" xlink:href="#DejaVuSans-45"/>
      <use x="387.117188" xlink:href="#DejaVuSans-53"/>
      <use x="450.740234" xlink:href="#DejaVuSans-47"/>
      <use x="484.431641" xlink:href="#DejaVuSans-50"/>
     </g>
    </g>
    <g id="line2d_46">
     <path d="M 253.797656 138.329062 
L 273.797656 138.329062 
" style="fill:none;stroke:#8c564b;stroke-linecap:square;stroke-width:1.5;"/>
    </g>
    <g id="line2d_47"/>
    <g id="text_22">
     <!-- RQ -->
     <defs>
      <path d="M 39.40625 66.21875 
Q 28.65625 66.21875 22.328125 58.203125 
Q 16.015625 50.203125 16.015625 36.375 
Q 16.015625 22.609375 22.328125 14.59375 
Q 28.65625 6.59375 39.40625 6.59375 
Q 50.140625 6.59375 56.421875 14.59375 
Q 62.703125 22.609375 62.703125 36.375 
Q 62.703125 50.203125 56.421875 58.203125 
Q 50.140625 66.21875 39.40625 66.21875 
z
M 53.21875 1.3125 
L 66.21875 -12.890625 
L 54.296875 -12.890625 
L 43.5 -1.21875 
Q 41.890625 -1.3125 41.03125 -1.359375 
Q 40.1875 -1.421875 39.40625 -1.421875 
Q 24.03125 -1.421875 14.8125 8.859375 
Q 5.609375 19.140625 5.609375 36.375 
Q 5.609375 53.65625 14.8125 63.9375 
Q 24.03125 74.21875 39.40625 74.21875 
Q 54.734375 74.21875 63.90625 63.9375 
Q 73.09375 53.65625 73.09375 36.375 
Q 73.09375 23.6875 67.984375 14.640625 
Q 62.890625 5.609375 53.21875 1.3125 
z
" id="DejaVuSans-81"/>
     </defs>
     <g transform="translate(281.797656 141.829062)scale(0.1 -0.1)">
      <use xlink:href="#DejaVuSans-82"/>
      <use x="69.482422" xlink:href="#DejaVuSans-81"/>
     </g>
    </g>
    <g id="line2d_48">
     <path d="M 253.797656 153.007187 
L 273.797656 153.007187 
" style="fill:none;stroke:#e377c2;stroke-linecap:square;stroke-width:1.5;"/>
    </g>
    <g id="line2d_49"/>
    <g id="text_23">
     <!-- Dot Prod. -->
     <defs>
      <path d="M 19.671875 64.796875 
L 19.671875 8.109375 
L 31.59375 8.109375 
Q 46.6875 8.109375 53.6875 14.9375 
Q 60.6875 21.78125 60.6875 36.53125 
Q 60.6875 51.171875 53.6875 57.984375 
Q 46.6875 64.796875 31.59375 64.796875 
z
M 9.8125 72.90625 
L 30.078125 72.90625 
Q 51.265625 72.90625 61.171875 64.09375 
Q 71.09375 55.28125 71.09375 36.53125 
Q 71.09375 17.671875 61.125 8.828125 
Q 51.171875 0 30.078125 0 
L 9.8125 0 
z
" id="DejaVuSans-68"/>
      <path d="M 19.671875 64.796875 
L 19.671875 37.40625 
L 32.078125 37.40625 
Q 38.96875 37.40625 42.71875 40.96875 
Q 46.484375 44.53125 46.484375 51.125 
Q 46.484375 57.671875 42.71875 61.234375 
Q 38.96875 64.796875 32.078125 64.796875 
z
M 9.8125 72.90625 
L 32.078125 72.90625 
Q 44.34375 72.90625 50.609375 67.359375 
Q 56.890625 61.8125 56.890625 51.125 
Q 56.890625 40.328125 50.609375 34.8125 
Q 44.34375 29.296875 32.078125 29.296875 
L 19.671875 29.296875 
L 19.671875 0 
L 9.8125 0 
z
" id="DejaVuSans-80"/>
      <path d="M 10.6875 12.40625 
L 21 12.40625 
L 21 0 
L 10.6875 0 
z
" id="DejaVuSans-46"/>
     </defs>
     <g transform="translate(281.797656 156.507187)scale(0.1 -0.1)">
      <use xlink:href="#DejaVuSans-68"/>
      <use x="77.001953" xlink:href="#DejaVuSans-111"/>
      <use x="138.183594" xlink:href="#DejaVuSans-116"/>
      <use x="177.392578" xlink:href="#DejaVuSans-32"/>
      <use x="209.179688" xlink:href="#DejaVuSans-80"/>
      <use x="267.732422" xlink:href="#DejaVuSans-114"/>
      <use x="306.595703" xlink:href="#DejaVuSans-111"/>
      <use x="367.777344" xlink:href="#DejaVuSans-100"/>
      <use x="431.253906" xlink:href="#DejaVuSans-46"/>
     </g>
    </g>
   </g>
  </g>
 </g>
 <defs>
  <clipPath id="pfe4b9bede5">
   <rect height="332.64" width="446.4" x="72" y="51.84"/>
  </clipPath>
 </defs>
</svg>
