<?xml version="1.0" encoding="utf-8" standalone="no"?>
<!DOCTYPE svg PUBLIC "-//W3C//DTD SVG 1.1//EN"
  "http://www.w3.org/Graphics/SVG/1.1/DTD/svg11.dtd">
<!-- Created with matplotlib (https://matplotlib.org/) -->
<svg height="432pt" version="1.1" viewBox="0 0 576 432" width="576pt" xmlns="http://www.w3.org/2000/svg" xmlns:xlink="http://www.w3.org/1999/xlink">
 <defs>
  <style type="text/css">
*{stroke-linecap:butt;stroke-linejoin:round;}
  </style>
 </defs>
 <g id="figure_1">
  <g id="patch_1">
   <path d="M 0 432 
L 576 432 
L 576 0 
L 0 0 
z
" style="fill:#ffffff;"/>
  </g>
  <g id="axes_1">
   <g id="patch_2">
    <path d="M 72 384.48 
L 518.4 384.48 
L 518.4 51.84 
L 72 51.84 
z
" style="fill:#ffffff;"/>
   </g>
   <g id="PolyCollection_1">
    <path clip-path="url(#p655f1b4982)" d="M 72 151.215528 
L 72 149.526862 
L 80.928 149.836895 
L 89.856 149.819809 
L 98.784 149.046751 
L 107.712 148.012535 
L 116.64 147.112187 
L 125.568 145.571184 
L 134.496 145.092916 
L 143.424 145.437946 
L 152.352 145.308734 
L 161.28 145.204827 
L 170.208 144.581772 
L 179.136 144.632217 
L 188.064 144.516491 
L 196.992 143.197295 
L 205.92 144.776723 
L 214.848 144.750485 
L 223.776 144.709858 
L 232.704 145.094519 
L 241.632 144.733192 
L 250.56 144.723616 
L 259.488 145.316131 
L 268.416 144.09052 
L 277.344 144.003895 
L 286.272 145.2569 
L 295.2 145.067153 
L 304.128 144.592627 
L 313.056 144.585896 
L 321.984 144.74297 
L 330.912 145.132391 
L 339.84 144.214296 
L 348.768 145.977051 
L 357.696 145.215993 
L 366.624 145.136342 
L 375.552 144.107247 
L 384.48 144.739781 
L 393.408 144.095655 
L 402.336 144.100744 
L 411.264 142.748261 
L 420.192 145.333655 
L 429.12 146.346181 
L 438.048 144.023425 
L 446.976 145.473512 
L 455.904 143.927765 
L 464.832 142.553976 
L 473.76 143.591176 
L 482.688 144.410121 
L 491.616 144.083405 
L 500.544 142.705752 
L 509.472 143.569737 
L 518.4 143.353004 
L 518.4 152.540181 
L 518.4 152.540181 
L 509.472 152.09053 
L 500.544 152.892098 
L 491.616 152.883621 
L 482.688 152.26347 
L 473.76 154.347301 
L 464.832 154.238392 
L 455.904 152.316323 
L 446.976 152.4754 
L 438.048 153.064356 
L 429.12 151.912899 
L 420.192 152.231462 
L 411.264 153.345003 
L 402.336 152.304184 
L 393.408 152.569936 
L 384.48 152.254081 
L 375.552 151.85578 
L 366.624 152.650356 
L 357.696 152.366063 
L 348.768 152.001525 
L 339.84 152.289969 
L 330.912 152.20194 
L 321.984 151.915306 
L 313.056 151.988883 
L 304.128 151.989026 
L 295.2 151.771573 
L 286.272 151.801681 
L 277.344 152.477892 
L 268.416 152.117956 
L 259.488 151.903285 
L 250.56 151.978958 
L 241.632 151.877341 
L 232.704 151.883005 
L 223.776 152.082977 
L 214.848 151.833084 
L 205.92 152.069534 
L 196.992 152.845792 
L 188.064 152.297897 
L 179.136 151.918311 
L 170.208 152.140828 
L 161.28 152.12873 
L 152.352 151.850586 
L 143.424 151.780818 
L 134.496 152.040732 
L 125.568 152.043878 
L 116.64 151.758717 
L 107.712 151.597071 
L 98.784 151.294418 
L 89.856 151.026609 
L 80.928 151.044825 
L 72 151.215528 
z
" style="fill:#1f77b4;fill-opacity:0.3;"/>
   </g>
   <g id="PolyCollection_2">
    <path clip-path="url(#p655f1b4982)" d="M 72 154.313689 
L 72 142.376514 
L 80.928 130.937992 
L 89.856 147.933175 
L 98.784 143.283374 
L 107.712 158.357222 
L 116.64 154.359281 
L 125.568 160.448417 
L 134.496 151.160534 
L 143.424 162.819185 
L 152.352 162.285376 
L 161.28 173.62235 
L 170.208 177.084122 
L 179.136 187.006456 
L 188.064 190.730062 
L 196.992 193.585618 
L 205.92 197.196137 
L 214.848 208.309761 
L 223.776 206.092891 
L 232.704 210.338544 
L 241.632 230.710419 
L 250.56 227.939736 
L 259.488 228.680883 
L 268.416 231.996202 
L 277.344 235.006846 
L 286.272 235.344993 
L 295.2 242.250084 
L 304.128 245.054106 
L 313.056 247.166794 
L 321.984 247.732855 
L 330.912 251.561148 
L 339.84 252.258385 
L 348.768 253.779356 
L 357.696 253.762491 
L 366.624 254.625914 
L 375.552 253.362255 
L 384.48 253.532802 
L 393.408 253.409728 
L 402.336 258.466215 
L 411.264 260.12502 
L 420.192 262.172316 
L 429.12 264.063726 
L 438.048 268.090654 
L 446.976 270.317413 
L 455.904 277.243306 
L 464.832 277.351109 
L 473.76 278.945272 
L 482.688 279.049569 
L 491.616 279.199751 
L 500.544 281.134345 
L 509.472 281.307079 
L 518.4 284.098129 
L 518.4 316.925615 
L 518.4 316.925615 
L 509.472 316.721256 
L 500.544 316.322255 
L 491.616 315.668886 
L 482.688 314.879075 
L 473.76 314.612163 
L 464.832 313.83796 
L 455.904 313.601952 
L 446.976 312.797695 
L 438.048 311.409313 
L 429.12 309.960116 
L 420.192 308.792676 
L 411.264 306.95445 
L 402.336 304.74567 
L 393.408 284.752464 
L 384.48 275.474919 
L 375.552 274.360461 
L 366.624 268.35712 
L 357.696 266.62415 
L 348.768 265.534188 
L 339.84 266.312102 
L 330.912 267.821255 
L 321.984 268.191248 
L 313.056 267.813224 
L 304.128 268.009662 
L 295.2 268.808721 
L 286.272 263.369805 
L 277.344 262.936609 
L 268.416 260.737033 
L 259.488 255.50774 
L 250.56 244.42843 
L 241.632 243.009486 
L 232.704 235.636843 
L 223.776 220.501171 
L 214.848 223.677101 
L 205.92 212.01141 
L 196.992 213.88992 
L 188.064 202.494206 
L 179.136 200.464939 
L 170.208 182.351025 
L 161.28 181.701681 
L 152.352 172.623278 
L 143.424 171.163219 
L 134.496 164.10361 
L 125.568 175.514489 
L 116.64 169.833339 
L 107.712 171.408949 
L 98.784 155.622944 
L 89.856 155.922924 
L 80.928 153.889235 
L 72 154.313689 
z
" style="fill:#ff7f0e;fill-opacity:0.3;"/>
   </g>
   <g id="PolyCollection_3">
    <path clip-path="url(#p655f1b4982)" d="M 72 153.24906 
L 72 150.456103 
L 80.928 150.49284 
L 89.856 157.30354 
L 98.784 157.620341 
L 107.712 157.635706 
L 116.64 157.636721 
L 125.568 157.636196 
L 134.496 157.605672 
L 143.424 154.239787 
L 152.352 152.494794 
L 161.28 151.469954 
L 170.208 151.309283 
L 179.136 151.117606 
L 188.064 151.060664 
L 196.992 151.059785 
L 205.92 151.041113 
L 214.848 151.016146 
L 223.776 151.015634 
L 232.704 151.015643 
L 241.632 151.015782 
L 250.56 150.997057 
L 259.488 150.964522 
L 268.416 150.935643 
L 277.344 150.928343 
L 286.272 150.932846 
L 295.2 150.936079 
L 304.128 150.938111 
L 313.056 151.516063 
L 321.984 163.730674 
L 330.912 163.81392 
L 339.84 164.096839 
L 348.768 164.114601 
L 357.696 164.11714 
L 366.624 164.117754 
L 375.552 164.117832 
L 384.48 164.120133 
L 393.408 164.12094 
L 402.336 164.121753 
L 411.264 164.136693 
L 420.192 164.183407 
L 429.12 164.19937 
L 438.048 164.203555 
L 446.976 164.204123 
L 455.904 164.204182 
L 464.832 164.20425 
L 473.76 164.204279 
L 482.688 164.206151 
L 491.616 164.22289 
L 500.544 164.485543 
L 509.472 164.493837 
L 518.4 164.49421 
L 518.4 198.806149 
L 518.4 198.806149 
L 509.472 198.803279 
L 500.544 198.739491 
L 491.616 196.894395 
L 482.688 196.723292 
L 473.76 196.710766 
L 464.832 196.710771 
L 455.904 196.710682 
L 446.976 196.710328 
L 438.048 196.706587 
L 429.12 196.68094 
L 420.192 196.57661 
L 411.264 196.27581 
L 402.336 196.1674 
L 393.408 196.16231 
L 384.48 196.156971 
L 375.552 196.142972 
L 366.624 196.142873 
L 357.696 196.139591 
L 348.768 196.125027 
L 339.84 196.009769 
L 330.912 194.291049 
L 321.984 193.824892 
L 313.056 175.364549 
L 304.128 175.132324 
L 295.2 175.131496 
L 286.272 175.129171 
L 277.344 175.123395 
L 268.416 175.100822 
L 259.488 175.02492 
L 250.56 174.935687 
L 241.632 174.88797 
L 232.704 174.887746 
L 223.776 174.887705 
L 214.848 174.883896 
L 205.92 174.810076 
L 196.992 174.753341 
L 188.064 174.74238 
L 179.136 174.586361 
L 170.208 174.089586 
L 161.28 172.499581 
L 152.352 166.646281 
L 143.424 162.416003 
L 134.496 157.82808 
L 125.568 157.735788 
L 116.64 157.727371 
L 107.712 157.725024 
L 98.784 157.699363 
L 89.856 157.700966 
L 80.928 155.687701 
L 72 153.24906 
z
" style="fill:#2ca02c;fill-opacity:0.3;"/>
   </g>
   <g id="PolyCollection_4">
    <path clip-path="url(#p655f1b4982)" d="M 72 153.214499 
L 72 147.635852 
L 80.928 151.749616 
L 89.856 151.524377 
L 98.784 158.053888 
L 107.712 162.638941 
L 116.64 165.538957 
L 125.568 167.996398 
L 134.496 169.671821 
L 143.424 172.552706 
L 152.352 174.42148 
L 161.28 177.970086 
L 170.208 180.514651 
L 179.136 182.310933 
L 188.064 183.894831 
L 196.992 185.915616 
L 205.92 187.621422 
L 214.848 190.261347 
L 223.776 193.796277 
L 232.704 201.053671 
L 241.632 205.251006 
L 250.56 210.805579 
L 259.488 220.583385 
L 268.416 228.260714 
L 277.344 229.259352 
L 286.272 230.396235 
L 295.2 233.088417 
L 304.128 238.364883 
L 313.056 241.704232 
L 321.984 244.547958 
L 330.912 249.108369 
L 339.84 250.252032 
L 348.768 255.145121 
L 357.696 255.80026 
L 366.624 258.760499 
L 375.552 263.912998 
L 384.48 265.263978 
L 393.408 265.617384 
L 402.336 266.763424 
L 411.264 266.828176 
L 420.192 266.810909 
L 429.12 267.459776 
L 438.048 268.737901 
L 446.976 271.790725 
L 455.904 273.164284 
L 464.832 274.831559 
L 473.76 276.211445 
L 482.688 276.364714 
L 491.616 276.491747 
L 500.544 276.675485 
L 509.472 276.844169 
L 518.4 276.939956 
L 518.4 324.590313 
L 518.4 324.590313 
L 509.472 324.35928 
L 500.544 324.001501 
L 491.616 323.80869 
L 482.688 323.502193 
L 473.76 323.264314 
L 464.832 322.948969 
L 455.904 322.732468 
L 446.976 323.071391 
L 438.048 323.207696 
L 429.12 323.035724 
L 420.192 322.172868 
L 411.264 322.166077 
L 402.336 321.980644 
L 393.408 321.231517 
L 384.48 320.77216 
L 375.552 319.81965 
L 366.624 316.437603 
L 357.696 314.720139 
L 348.768 312.697855 
L 339.84 312.656847 
L 330.912 311.305364 
L 321.984 304.508204 
L 313.056 299.736203 
L 304.128 296.910215 
L 295.2 294.750036 
L 286.272 293.260217 
L 277.344 292.381674 
L 268.416 291.666285 
L 259.488 285.371225 
L 250.56 281.072429 
L 241.632 272.965871 
L 232.704 268.089641 
L 223.776 251.56713 
L 214.848 246.3293 
L 205.92 242.535274 
L 196.992 232.41552 
L 188.064 223.811242 
L 179.136 217.107152 
L 170.208 212.458702 
L 161.28 208.691094 
L 152.352 198.293219 
L 143.424 191.900946 
L 134.496 186.525112 
L 125.568 182.482613 
L 116.64 177.850537 
L 107.712 171.848667 
L 98.784 168.699769 
L 89.856 160.900658 
L 80.928 156.902066 
L 72 153.214499 
z
" style="fill:#d62728;fill-opacity:0.3;"/>
   </g>
   <g id="PolyCollection_5">
    <path clip-path="url(#p655f1b4982)" d="M 72 153.848247 
L 72 144.963011 
L 80.928 143.338037 
L 89.856 151.177978 
L 98.784 153.458643 
L 107.712 154.50428 
L 116.64 157.966216 
L 125.568 160.992452 
L 134.496 163.940198 
L 143.424 172.411234 
L 152.352 176.53649 
L 161.28 181.357646 
L 170.208 184.664105 
L 179.136 188.774894 
L 188.064 199.321573 
L 196.992 206.770828 
L 205.92 219.55105 
L 214.848 224.971505 
L 223.776 231.176536 
L 232.704 234.121356 
L 241.632 238.575639 
L 250.56 240.107363 
L 259.488 240.782004 
L 268.416 242.120368 
L 277.344 243.179539 
L 286.272 244.875386 
L 295.2 244.91849 
L 304.128 246.222825 
L 313.056 246.32379 
L 321.984 247.863812 
L 330.912 248.290569 
L 339.84 248.414803 
L 348.768 249.29165 
L 357.696 251.948127 
L 366.624 258.779973 
L 375.552 260.132259 
L 384.48 261.061689 
L 393.408 261.584439 
L 402.336 262.416036 
L 411.264 262.947762 
L 420.192 264.208236 
L 429.12 265.484056 
L 438.048 265.427748 
L 446.976 265.367137 
L 455.904 265.42797 
L 464.832 265.656493 
L 473.76 266.06022 
L 482.688 266.157253 
L 491.616 266.132976 
L 500.544 265.965598 
L 509.472 265.616446 
L 518.4 265.528757 
L 518.4 352.2765 
L 518.4 352.2765 
L 509.472 352.523158 
L 500.544 353.496148 
L 491.616 353.909794 
L 482.688 354.01114 
L 473.76 354.131772 
L 464.832 353.980907 
L 455.904 353.323777 
L 446.976 352.978062 
L 438.048 353.050659 
L 429.12 353.080779 
L 420.192 352.044216 
L 411.264 351.667615 
L 402.336 351.38886 
L 393.408 350.833366 
L 384.48 348.712422 
L 375.552 346.91768 
L 366.624 343.623946 
L 357.696 327.358762 
L 348.768 320.742124 
L 339.84 319.588337 
L 330.912 319.269674 
L 321.984 318.166341 
L 313.056 315.57206 
L 304.128 315.38607 
L 295.2 314.056848 
L 286.272 313.766744 
L 277.344 311.988114 
L 268.416 310.730556 
L 259.488 310.717348 
L 250.56 309.920689 
L 241.632 308.950839 
L 232.704 303.806958 
L 223.776 296.768838 
L 214.848 288.11346 
L 205.92 279.13373 
L 196.992 262.382125 
L 188.064 244.669164 
L 179.136 225.671482 
L 170.208 216.84913 
L 161.28 210.042748 
L 152.352 201.28691 
L 143.424 192.634044 
L 134.496 181.868293 
L 125.568 176.235595 
L 116.64 174.12266 
L 107.712 166.830873 
L 98.784 168.794916 
L 89.856 160.500223 
L 80.928 155.082914 
L 72 153.848247 
z
" style="fill:#9467bd;fill-opacity:0.3;"/>
   </g>
   <g id="PolyCollection_6">
    <path clip-path="url(#p655f1b4982)" d="M 72 151.391887 
L 72 149.877589 
L 80.928 150.520508 
L 89.856 149.632117 
L 98.784 149.917558 
L 107.712 152.00044 
L 116.64 152.676795 
L 125.568 152.590002 
L 134.496 153.644252 
L 143.424 159.771304 
L 152.352 183.031434 
L 161.28 193.088641 
L 170.208 199.584849 
L 179.136 207.470514 
L 188.064 212.431683 
L 196.992 221.24707 
L 205.92 226.984641 
L 214.848 244.351088 
L 223.776 248.646292 
L 232.704 275.096886 
L 241.632 285.317738 
L 250.56 294.136672 
L 259.488 296.801948 
L 268.416 300.982265 
L 277.344 306.541408 
L 286.272 308.458078 
L 295.2 315.153786 
L 304.128 323.579839 
L 313.056 340.354577 
L 321.984 342.885513 
L 330.912 345.547197 
L 339.84 346.885335 
L 348.768 347.37363 
L 357.696 346.478338 
L 366.624 345.386508 
L 375.552 345.672959 
L 384.48 346.03028 
L 393.408 346.109074 
L 402.336 346.061254 
L 411.264 347.034205 
L 420.192 347.241903 
L 429.12 347.419592 
L 438.048 348.113113 
L 446.976 348.217491 
L 455.904 348.16467 
L 464.832 348.397618 
L 473.76 348.56542 
L 482.688 353.086655 
L 491.616 352.835053 
L 500.544 353.64172 
L 509.472 354.255958 
L 518.4 354.638496 
L 518.4 360.566988 
L 518.4 360.566988 
L 509.472 360.324621 
L 500.544 359.941679 
L 491.616 359.383461 
L 482.688 359.935701 
L 473.76 361.41488 
L 464.832 361.342514 
L 455.904 361.177946 
L 446.976 361.052236 
L 438.048 361.047151 
L 429.12 360.933862 
L 420.192 360.546165 
L 411.264 360.501102 
L 402.336 361.039257 
L 393.408 361.205311 
L 384.48 361.294771 
L 375.552 360.922688 
L 366.624 360.505843 
L 357.696 363.304376 
L 348.768 365.525836 
L 339.84 365.820751 
L 330.912 365.230061 
L 321.984 361.037018 
L 313.056 359.554742 
L 304.128 350.444901 
L 295.2 345.781762 
L 286.272 330.921475 
L 277.344 325.602132 
L 268.416 325.524845 
L 259.488 323.863833 
L 250.56 318.406762 
L 241.632 312.975046 
L 232.704 305.280155 
L 223.776 297.480253 
L 214.848 285.10961 
L 205.92 265.165564 
L 196.992 252.679648 
L 188.064 239.131135 
L 179.136 230.426149 
L 170.208 221.189904 
L 161.28 216.201105 
L 152.352 204.792592 
L 143.424 194.512184 
L 134.496 187.844359 
L 125.568 182.828966 
L 116.64 180.071085 
L 107.712 169.64869 
L 98.784 156.71718 
L 89.856 152.033705 
L 80.928 151.773499 
L 72 151.391887 
z
" style="fill:#8c564b;fill-opacity:0.3;"/>
   </g>
   <g id="PolyCollection_7">
    <path clip-path="url(#p655f1b4982)" d="M 72 151.796719 
L 72 148.034564 
L 80.928 149.413603 
L 89.856 148.636556 
L 98.784 147.026431 
L 107.712 145.39313 
L 116.64 143.682703 
L 125.568 142.615274 
L 134.496 141.90823 
L 143.424 141.362354 
L 152.352 141.784633 
L 161.28 141.971523 
L 170.208 142.364042 
L 179.136 141.902719 
L 188.064 142.361713 
L 196.992 142.568535 
L 205.92 142.655719 
L 214.848 142.504622 
L 223.776 142.701461 
L 232.704 142.555365 
L 241.632 143.715475 
L 250.56 143.766912 
L 259.488 143.844343 
L 268.416 143.894764 
L 277.344 144.236735 
L 286.272 144.431776 
L 295.2 144.378997 
L 304.128 144.267928 
L 313.056 144.248924 
L 321.984 144.300465 
L 330.912 144.306684 
L 339.84 144.131244 
L 348.768 143.926041 
L 357.696 143.663005 
L 366.624 143.838663 
L 375.552 144.073243 
L 384.48 143.930323 
L 393.408 143.773641 
L 402.336 143.78914 
L 411.264 143.838825 
L 420.192 143.834113 
L 429.12 143.74533 
L 438.048 143.755384 
L 446.976 143.596179 
L 455.904 143.530045 
L 464.832 143.719132 
L 473.76 143.746456 
L 482.688 143.54219 
L 491.616 143.439585 
L 500.544 143.52297 
L 509.472 143.556336 
L 518.4 143.534198 
L 518.4 148.360713 
L 518.4 148.360713 
L 509.472 148.347724 
L 500.544 148.364936 
L 491.616 148.287203 
L 482.688 148.29078 
L 473.76 148.388917 
L 464.832 148.430767 
L 455.904 148.328983 
L 446.976 148.308678 
L 438.048 148.43442 
L 429.12 148.43636 
L 420.192 148.508348 
L 411.264 148.479293 
L 402.336 148.420386 
L 393.408 148.524072 
L 384.48 148.544596 
L 375.552 148.584395 
L 366.624 148.632551 
L 357.696 148.504835 
L 348.768 148.61016 
L 339.84 148.721771 
L 330.912 148.917212 
L 321.984 148.984779 
L 313.056 149.155237 
L 304.128 149.170903 
L 295.2 149.488881 
L 286.272 149.559956 
L 277.344 149.472703 
L 268.416 149.141423 
L 259.488 148.990714 
L 250.56 148.915294 
L 241.632 149.193601 
L 232.704 149.554722 
L 223.776 149.924526 
L 214.848 150.008298 
L 205.92 149.798826 
L 196.992 149.671537 
L 188.064 149.563948 
L 179.136 149.413915 
L 170.208 149.44797 
L 161.28 149.468325 
L 152.352 149.432511 
L 143.424 149.414564 
L 134.496 149.510465 
L 125.568 149.594857 
L 116.64 149.902411 
L 107.712 150.257546 
L 98.784 150.492775 
L 89.856 150.551058 
L 80.928 151.025943 
L 72 151.796719 
z
" style="fill:#e377c2;fill-opacity:0.3;"/>
   </g>
   <g id="matplotlib.axis_1">
    <g id="xtick_1">
     <g id="line2d_1">
      <path clip-path="url(#p655f1b4982)" d="M 72 384.48 
L 72 51.84 
" style="fill:none;stroke:#b0b0b0;stroke-linecap:square;stroke-width:0.8;"/>
     </g>
     <g id="line2d_2">
      <defs>
       <path d="M 0 0 
L 0 3.5 
" id="m974d34396d" style="stroke:#000000;stroke-width:0.8;"/>
      </defs>
      <g>
       <use style="stroke:#000000;stroke-width:0.8;" x="72" xlink:href="#m974d34396d" y="384.48"/>
      </g>
     </g>
     <g id="text_1">
      <!-- 0 -->
      <defs>
       <path d="M 31.78125 66.40625 
Q 24.171875 66.40625 20.328125 58.90625 
Q 16.5 51.421875 16.5 36.375 
Q 16.5 21.390625 20.328125 13.890625 
Q 24.171875 6.390625 31.78125 6.390625 
Q 39.453125 6.390625 43.28125 13.890625 
Q 47.125 21.390625 47.125 36.375 
Q 47.125 51.421875 43.28125 58.90625 
Q 39.453125 66.40625 31.78125 66.40625 
z
M 31.78125 74.21875 
Q 44.046875 74.21875 50.515625 64.515625 
Q 56.984375 54.828125 56.984375 36.375 
Q 56.984375 17.96875 50.515625 8.265625 
Q 44.046875 -1.421875 31.78125 -1.421875 
Q 19.53125 -1.421875 13.0625 8.265625 
Q 6.59375 17.96875 6.59375 36.375 
Q 6.59375 54.828125 13.0625 64.515625 
Q 19.53125 74.21875 31.78125 74.21875 
z
" id="DejaVuSans-48"/>
      </defs>
      <g transform="translate(68.81875 399.078438)scale(0.1 -0.1)">
       <use xlink:href="#DejaVuSans-48"/>
      </g>
     </g>
    </g>
    <g id="xtick_2">
     <g id="line2d_3">
      <path clip-path="url(#p655f1b4982)" d="M 161.28 384.48 
L 161.28 51.84 
" style="fill:none;stroke:#b0b0b0;stroke-linecap:square;stroke-width:0.8;"/>
     </g>
     <g id="line2d_4">
      <g>
       <use style="stroke:#000000;stroke-width:0.8;" x="161.28" xlink:href="#m974d34396d" y="384.48"/>
      </g>
     </g>
     <g id="text_2">
      <!-- 10 -->
      <defs>
       <path d="M 12.40625 8.296875 
L 28.515625 8.296875 
L 28.515625 63.921875 
L 10.984375 60.40625 
L 10.984375 69.390625 
L 28.421875 72.90625 
L 38.28125 72.90625 
L 38.28125 8.296875 
L 54.390625 8.296875 
L 54.390625 0 
L 12.40625 0 
z
" id="DejaVuSans-49"/>
      </defs>
      <g transform="translate(154.9175 399.078438)scale(0.1 -0.1)">
       <use xlink:href="#DejaVuSans-49"/>
       <use x="63.623047" xlink:href="#DejaVuSans-48"/>
      </g>
     </g>
    </g>
    <g id="xtick_3">
     <g id="line2d_5">
      <path clip-path="url(#p655f1b4982)" d="M 250.56 384.48 
L 250.56 51.84 
" style="fill:none;stroke:#b0b0b0;stroke-linecap:square;stroke-width:0.8;"/>
     </g>
     <g id="line2d_6">
      <g>
       <use style="stroke:#000000;stroke-width:0.8;" x="250.56" xlink:href="#m974d34396d" y="384.48"/>
      </g>
     </g>
     <g id="text_3">
      <!-- 20 -->
      <defs>
       <path d="M 19.1875 8.296875 
L 53.609375 8.296875 
L 53.609375 0 
L 7.328125 0 
L 7.328125 8.296875 
Q 12.9375 14.109375 22.625 23.890625 
Q 32.328125 33.6875 34.8125 36.53125 
Q 39.546875 41.84375 41.421875 45.53125 
Q 43.3125 49.21875 43.3125 52.78125 
Q 43.3125 58.59375 39.234375 62.25 
Q 35.15625 65.921875 28.609375 65.921875 
Q 23.96875 65.921875 18.8125 64.3125 
Q 13.671875 62.703125 7.8125 59.421875 
L 7.8125 69.390625 
Q 13.765625 71.78125 18.9375 73 
Q 24.125 74.21875 28.421875 74.21875 
Q 39.75 74.21875 46.484375 68.546875 
Q 53.21875 62.890625 53.21875 53.421875 
Q 53.21875 48.921875 51.53125 44.890625 
Q 49.859375 40.875 45.40625 35.40625 
Q 44.1875 33.984375 37.640625 27.21875 
Q 31.109375 20.453125 19.1875 8.296875 
z
" id="DejaVuSans-50"/>
      </defs>
      <g transform="translate(244.1975 399.078438)scale(0.1 -0.1)">
       <use xlink:href="#DejaVuSans-50"/>
       <use x="63.623047" xlink:href="#DejaVuSans-48"/>
      </g>
     </g>
    </g>
    <g id="xtick_4">
     <g id="line2d_7">
      <path clip-path="url(#p655f1b4982)" d="M 339.84 384.48 
L 339.84 51.84 
" style="fill:none;stroke:#b0b0b0;stroke-linecap:square;stroke-width:0.8;"/>
     </g>
     <g id="line2d_8">
      <g>
       <use style="stroke:#000000;stroke-width:0.8;" x="339.84" xlink:href="#m974d34396d" y="384.48"/>
      </g>
     </g>
     <g id="text_4">
      <!-- 30 -->
      <defs>
       <path d="M 40.578125 39.3125 
Q 47.65625 37.796875 51.625 33 
Q 55.609375 28.21875 55.609375 21.1875 
Q 55.609375 10.40625 48.1875 4.484375 
Q 40.765625 -1.421875 27.09375 -1.421875 
Q 22.515625 -1.421875 17.65625 -0.515625 
Q 12.796875 0.390625 7.625 2.203125 
L 7.625 11.71875 
Q 11.71875 9.328125 16.59375 8.109375 
Q 21.484375 6.890625 26.8125 6.890625 
Q 36.078125 6.890625 40.9375 10.546875 
Q 45.796875 14.203125 45.796875 21.1875 
Q 45.796875 27.640625 41.28125 31.265625 
Q 36.765625 34.90625 28.71875 34.90625 
L 20.21875 34.90625 
L 20.21875 43.015625 
L 29.109375 43.015625 
Q 36.375 43.015625 40.234375 45.921875 
Q 44.09375 48.828125 44.09375 54.296875 
Q 44.09375 59.90625 40.109375 62.90625 
Q 36.140625 65.921875 28.71875 65.921875 
Q 24.65625 65.921875 20.015625 65.03125 
Q 15.375 64.15625 9.8125 62.3125 
L 9.8125 71.09375 
Q 15.4375 72.65625 20.34375 73.4375 
Q 25.25 74.21875 29.59375 74.21875 
Q 40.828125 74.21875 47.359375 69.109375 
Q 53.90625 64.015625 53.90625 55.328125 
Q 53.90625 49.265625 50.4375 45.09375 
Q 46.96875 40.921875 40.578125 39.3125 
z
" id="DejaVuSans-51"/>
      </defs>
      <g transform="translate(333.4775 399.078438)scale(0.1 -0.1)">
       <use xlink:href="#DejaVuSans-51"/>
       <use x="63.623047" xlink:href="#DejaVuSans-48"/>
      </g>
     </g>
    </g>
    <g id="xtick_5">
     <g id="line2d_9">
      <path clip-path="url(#p655f1b4982)" d="M 429.12 384.48 
L 429.12 51.84 
" style="fill:none;stroke:#b0b0b0;stroke-linecap:square;stroke-width:0.8;"/>
     </g>
     <g id="line2d_10">
      <g>
       <use style="stroke:#000000;stroke-width:0.8;" x="429.12" xlink:href="#m974d34396d" y="384.48"/>
      </g>
     </g>
     <g id="text_5">
      <!-- 40 -->
      <defs>
       <path d="M 37.796875 64.3125 
L 12.890625 25.390625 
L 37.796875 25.390625 
z
M 35.203125 72.90625 
L 47.609375 72.90625 
L 47.609375 25.390625 
L 58.015625 25.390625 
L 58.015625 17.1875 
L 47.609375 17.1875 
L 47.609375 0 
L 37.796875 0 
L 37.796875 17.1875 
L 4.890625 17.1875 
L 4.890625 26.703125 
z
" id="DejaVuSans-52"/>
      </defs>
      <g transform="translate(422.7575 399.078438)scale(0.1 -0.1)">
       <use xlink:href="#DejaVuSans-52"/>
       <use x="63.623047" xlink:href="#DejaVuSans-48"/>
      </g>
     </g>
    </g>
    <g id="xtick_6">
     <g id="line2d_11">
      <path clip-path="url(#p655f1b4982)" d="M 518.4 384.48 
L 518.4 51.84 
" style="fill:none;stroke:#b0b0b0;stroke-linecap:square;stroke-width:0.8;"/>
     </g>
     <g id="line2d_12">
      <g>
       <use style="stroke:#000000;stroke-width:0.8;" x="518.4" xlink:href="#m974d34396d" y="384.48"/>
      </g>
     </g>
     <g id="text_6">
      <!-- 50 -->
      <defs>
       <path d="M 10.796875 72.90625 
L 49.515625 72.90625 
L 49.515625 64.59375 
L 19.828125 64.59375 
L 19.828125 46.734375 
Q 21.96875 47.46875 24.109375 47.828125 
Q 26.265625 48.1875 28.421875 48.1875 
Q 40.625 48.1875 47.75 41.5 
Q 54.890625 34.8125 54.890625 23.390625 
Q 54.890625 11.625 47.5625 5.09375 
Q 40.234375 -1.421875 26.90625 -1.421875 
Q 22.3125 -1.421875 17.546875 -0.640625 
Q 12.796875 0.140625 7.71875 1.703125 
L 7.71875 11.625 
Q 12.109375 9.234375 16.796875 8.0625 
Q 21.484375 6.890625 26.703125 6.890625 
Q 35.15625 6.890625 40.078125 11.328125 
Q 45.015625 15.765625 45.015625 23.390625 
Q 45.015625 31 40.078125 35.4375 
Q 35.15625 39.890625 26.703125 39.890625 
Q 22.75 39.890625 18.8125 39.015625 
Q 14.890625 38.140625 10.796875 36.28125 
z
" id="DejaVuSans-53"/>
      </defs>
      <g transform="translate(512.0375 399.078438)scale(0.1 -0.1)">
       <use xlink:href="#DejaVuSans-53"/>
       <use x="63.623047" xlink:href="#DejaVuSans-48"/>
      </g>
     </g>
    </g>
    <g id="text_7">
     <!-- Iteration -->
     <defs>
      <path d="M 9.8125 72.90625 
L 19.671875 72.90625 
L 19.671875 0 
L 9.8125 0 
z
" id="DejaVuSans-73"/>
      <path d="M 18.3125 70.21875 
L 18.3125 54.6875 
L 36.8125 54.6875 
L 36.8125 47.703125 
L 18.3125 47.703125 
L 18.3125 18.015625 
Q 18.3125 11.328125 20.140625 9.421875 
Q 21.96875 7.515625 27.59375 7.515625 
L 36.8125 7.515625 
L 36.8125 0 
L 27.59375 0 
Q 17.1875 0 13.234375 3.875 
Q 9.28125 7.765625 9.28125 18.015625 
L 9.28125 47.703125 
L 2.6875 47.703125 
L 2.6875 54.6875 
L 9.28125 54.6875 
L 9.28125 70.21875 
z
" id="DejaVuSans-116"/>
      <path d="M 56.203125 29.59375 
L 56.203125 25.203125 
L 14.890625 25.203125 
Q 15.484375 15.921875 20.484375 11.0625 
Q 25.484375 6.203125 34.421875 6.203125 
Q 39.59375 6.203125 44.453125 7.46875 
Q 49.3125 8.734375 54.109375 11.28125 
L 54.109375 2.78125 
Q 49.265625 0.734375 44.1875 -0.34375 
Q 39.109375 -1.421875 33.890625 -1.421875 
Q 20.796875 -1.421875 13.15625 6.1875 
Q 5.515625 13.8125 5.515625 26.8125 
Q 5.515625 40.234375 12.765625 48.109375 
Q 20.015625 56 32.328125 56 
Q 43.359375 56 49.78125 48.890625 
Q 56.203125 41.796875 56.203125 29.59375 
z
M 47.21875 32.234375 
Q 47.125 39.59375 43.09375 43.984375 
Q 39.0625 48.390625 32.421875 48.390625 
Q 24.90625 48.390625 20.390625 44.140625 
Q 15.875 39.890625 15.1875 32.171875 
z
" id="DejaVuSans-101"/>
      <path d="M 41.109375 46.296875 
Q 39.59375 47.171875 37.8125 47.578125 
Q 36.03125 48 33.890625 48 
Q 26.265625 48 22.1875 43.046875 
Q 18.109375 38.09375 18.109375 28.8125 
L 18.109375 0 
L 9.078125 0 
L 9.078125 54.6875 
L 18.109375 54.6875 
L 18.109375 46.1875 
Q 20.953125 51.171875 25.484375 53.578125 
Q 30.03125 56 36.53125 56 
Q 37.453125 56 38.578125 55.875 
Q 39.703125 55.765625 41.0625 55.515625 
z
" id="DejaVuSans-114"/>
      <path d="M 34.28125 27.484375 
Q 23.390625 27.484375 19.1875 25 
Q 14.984375 22.515625 14.984375 16.5 
Q 14.984375 11.71875 18.140625 8.90625 
Q 21.296875 6.109375 26.703125 6.109375 
Q 34.1875 6.109375 38.703125 11.40625 
Q 43.21875 16.703125 43.21875 25.484375 
L 43.21875 27.484375 
z
M 52.203125 31.203125 
L 52.203125 0 
L 43.21875 0 
L 43.21875 8.296875 
Q 40.140625 3.328125 35.546875 0.953125 
Q 30.953125 -1.421875 24.3125 -1.421875 
Q 15.921875 -1.421875 10.953125 3.296875 
Q 6 8.015625 6 15.921875 
Q 6 25.140625 12.171875 29.828125 
Q 18.359375 34.515625 30.609375 34.515625 
L 43.21875 34.515625 
L 43.21875 35.40625 
Q 43.21875 41.609375 39.140625 45 
Q 35.0625 48.390625 27.6875 48.390625 
Q 23 48.390625 18.546875 47.265625 
Q 14.109375 46.140625 10.015625 43.890625 
L 10.015625 52.203125 
Q 14.9375 54.109375 19.578125 55.046875 
Q 24.21875 56 28.609375 56 
Q 40.484375 56 46.34375 49.84375 
Q 52.203125 43.703125 52.203125 31.203125 
z
" id="DejaVuSans-97"/>
      <path d="M 9.421875 54.6875 
L 18.40625 54.6875 
L 18.40625 0 
L 9.421875 0 
z
M 9.421875 75.984375 
L 18.40625 75.984375 
L 18.40625 64.59375 
L 9.421875 64.59375 
z
" id="DejaVuSans-105"/>
      <path d="M 30.609375 48.390625 
Q 23.390625 48.390625 19.1875 42.75 
Q 14.984375 37.109375 14.984375 27.296875 
Q 14.984375 17.484375 19.15625 11.84375 
Q 23.34375 6.203125 30.609375 6.203125 
Q 37.796875 6.203125 41.984375 11.859375 
Q 46.1875 17.53125 46.1875 27.296875 
Q 46.1875 37.015625 41.984375 42.703125 
Q 37.796875 48.390625 30.609375 48.390625 
z
M 30.609375 56 
Q 42.328125 56 49.015625 48.375 
Q 55.71875 40.765625 55.71875 27.296875 
Q 55.71875 13.875 49.015625 6.21875 
Q 42.328125 -1.421875 30.609375 -1.421875 
Q 18.84375 -1.421875 12.171875 6.21875 
Q 5.515625 13.875 5.515625 27.296875 
Q 5.515625 40.765625 12.171875 48.375 
Q 18.84375 56 30.609375 56 
z
" id="DejaVuSans-111"/>
      <path d="M 54.890625 33.015625 
L 54.890625 0 
L 45.90625 0 
L 45.90625 32.71875 
Q 45.90625 40.484375 42.875 44.328125 
Q 39.84375 48.1875 33.796875 48.1875 
Q 26.515625 48.1875 22.3125 43.546875 
Q 18.109375 38.921875 18.109375 30.90625 
L 18.109375 0 
L 9.078125 0 
L 9.078125 54.6875 
L 18.109375 54.6875 
L 18.109375 46.1875 
Q 21.34375 51.125 25.703125 53.5625 
Q 30.078125 56 35.796875 56 
Q 45.21875 56 50.046875 50.171875 
Q 54.890625 44.34375 54.890625 33.015625 
z
" id="DejaVuSans-110"/>
     </defs>
     <g transform="translate(273.991406 412.756563)scale(0.1 -0.1)">
      <use xlink:href="#DejaVuSans-73"/>
      <use x="29.492188" xlink:href="#DejaVuSans-116"/>
      <use x="68.701172" xlink:href="#DejaVuSans-101"/>
      <use x="130.224609" xlink:href="#DejaVuSans-114"/>
      <use x="171.337891" xlink:href="#DejaVuSans-97"/>
      <use x="232.617188" xlink:href="#DejaVuSans-116"/>
      <use x="271.826172" xlink:href="#DejaVuSans-105"/>
      <use x="299.609375" xlink:href="#DejaVuSans-111"/>
      <use x="360.791016" xlink:href="#DejaVuSans-110"/>
     </g>
    </g>
   </g>
   <g id="matplotlib.axis_2">
    <g id="ytick_1">
     <g id="line2d_13">
      <path clip-path="url(#p655f1b4982)" d="M 72 384.48 
L 518.4 384.48 
" style="fill:none;stroke:#b0b0b0;stroke-linecap:square;stroke-width:0.8;"/>
     </g>
     <g id="line2d_14">
      <defs>
       <path d="M 0 0 
L -3.5 0 
" id="m23d9a8d6d7" style="stroke:#000000;stroke-width:0.8;"/>
      </defs>
      <g>
       <use style="stroke:#000000;stroke-width:0.8;" x="72" xlink:href="#m23d9a8d6d7" y="384.48"/>
      </g>
     </g>
     <g id="text_8">
      <!-- $\mathdefault{10^{-12}}$ -->
      <defs>
       <path d="M 10.59375 35.5 
L 73.1875 35.5 
L 73.1875 27.203125 
L 10.59375 27.203125 
z
" id="DejaVuSans-8722"/>
      </defs>
      <g transform="translate(37.1 388.279219)scale(0.1 -0.1)">
       <use transform="translate(0 0.765625)" xlink:href="#DejaVuSans-49"/>
       <use transform="translate(63.623047 0.765625)" xlink:href="#DejaVuSans-48"/>
       <use transform="translate(128.203125 39.046875)scale(0.7)" xlink:href="#DejaVuSans-8722"/>
       <use transform="translate(186.855469 39.046875)scale(0.7)" xlink:href="#DejaVuSans-49"/>
       <use transform="translate(231.391602 39.046875)scale(0.7)" xlink:href="#DejaVuSans-50"/>
      </g>
     </g>
    </g>
    <g id="ytick_2">
     <g id="line2d_15">
      <path clip-path="url(#p655f1b4982)" d="M 72 336.96 
L 518.4 336.96 
" style="fill:none;stroke:#b0b0b0;stroke-linecap:square;stroke-width:0.8;"/>
     </g>
     <g id="line2d_16">
      <g>
       <use style="stroke:#000000;stroke-width:0.8;" x="72" xlink:href="#m23d9a8d6d7" y="336.96"/>
      </g>
     </g>
     <g id="text_9">
      <!-- $\mathdefault{10^{-10}}$ -->
      <g transform="translate(37.1 340.759219)scale(0.1 -0.1)">
       <use transform="translate(0 0.765625)" xlink:href="#DejaVuSans-49"/>
       <use transform="translate(63.623047 0.765625)" xlink:href="#DejaVuSans-48"/>
       <use transform="translate(128.203125 39.046875)scale(0.7)" xlink:href="#DejaVuSans-8722"/>
       <use transform="translate(186.855469 39.046875)scale(0.7)" xlink:href="#DejaVuSans-49"/>
       <use transform="translate(231.391602 39.046875)scale(0.7)" xlink:href="#DejaVuSans-48"/>
      </g>
     </g>
    </g>
    <g id="ytick_3">
     <g id="line2d_17">
      <path clip-path="url(#p655f1b4982)" d="M 72 289.44 
L 518.4 289.44 
" style="fill:none;stroke:#b0b0b0;stroke-linecap:square;stroke-width:0.8;"/>
     </g>
     <g id="line2d_18">
      <g>
       <use style="stroke:#000000;stroke-width:0.8;" x="72" xlink:href="#m23d9a8d6d7" y="289.44"/>
      </g>
     </g>
     <g id="text_10">
      <!-- $\mathdefault{10^{-8}}$ -->
      <defs>
       <path d="M 31.78125 34.625 
Q 24.75 34.625 20.71875 30.859375 
Q 16.703125 27.09375 16.703125 20.515625 
Q 16.703125 13.921875 20.71875 10.15625 
Q 24.75 6.390625 31.78125 6.390625 
Q 38.8125 6.390625 42.859375 10.171875 
Q 46.921875 13.96875 46.921875 20.515625 
Q 46.921875 27.09375 42.890625 30.859375 
Q 38.875 34.625 31.78125 34.625 
z
M 21.921875 38.8125 
Q 15.578125 40.375 12.03125 44.71875 
Q 8.5 49.078125 8.5 55.328125 
Q 8.5 64.0625 14.71875 69.140625 
Q 20.953125 74.21875 31.78125 74.21875 
Q 42.671875 74.21875 48.875 69.140625 
Q 55.078125 64.0625 55.078125 55.328125 
Q 55.078125 49.078125 51.53125 44.71875 
Q 48 40.375 41.703125 38.8125 
Q 48.828125 37.15625 52.796875 32.3125 
Q 56.78125 27.484375 56.78125 20.515625 
Q 56.78125 9.90625 50.3125 4.234375 
Q 43.84375 -1.421875 31.78125 -1.421875 
Q 19.734375 -1.421875 13.25 4.234375 
Q 6.78125 9.90625 6.78125 20.515625 
Q 6.78125 27.484375 10.78125 32.3125 
Q 14.796875 37.15625 21.921875 38.8125 
z
M 18.3125 54.390625 
Q 18.3125 48.734375 21.84375 45.5625 
Q 25.390625 42.390625 31.78125 42.390625 
Q 38.140625 42.390625 41.71875 45.5625 
Q 45.3125 48.734375 45.3125 54.390625 
Q 45.3125 60.0625 41.71875 63.234375 
Q 38.140625 66.40625 31.78125 66.40625 
Q 25.390625 66.40625 21.84375 63.234375 
Q 18.3125 60.0625 18.3125 54.390625 
z
" id="DejaVuSans-56"/>
      </defs>
      <g transform="translate(41.5 293.239219)scale(0.1 -0.1)">
       <use transform="translate(0 0.765625)" xlink:href="#DejaVuSans-49"/>
       <use transform="translate(63.623047 0.765625)" xlink:href="#DejaVuSans-48"/>
       <use transform="translate(128.203125 39.046875)scale(0.7)" xlink:href="#DejaVuSans-8722"/>
       <use transform="translate(186.855469 39.046875)scale(0.7)" xlink:href="#DejaVuSans-56"/>
      </g>
     </g>
    </g>
    <g id="ytick_4">
     <g id="line2d_19">
      <path clip-path="url(#p655f1b4982)" d="M 72 241.92 
L 518.4 241.92 
" style="fill:none;stroke:#b0b0b0;stroke-linecap:square;stroke-width:0.8;"/>
     </g>
     <g id="line2d_20">
      <g>
       <use style="stroke:#000000;stroke-width:0.8;" x="72" xlink:href="#m23d9a8d6d7" y="241.92"/>
      </g>
     </g>
     <g id="text_11">
      <!-- $\mathdefault{10^{-6}}$ -->
      <defs>
       <path d="M 33.015625 40.375 
Q 26.375 40.375 22.484375 35.828125 
Q 18.609375 31.296875 18.609375 23.390625 
Q 18.609375 15.53125 22.484375 10.953125 
Q 26.375 6.390625 33.015625 6.390625 
Q 39.65625 6.390625 43.53125 10.953125 
Q 47.40625 15.53125 47.40625 23.390625 
Q 47.40625 31.296875 43.53125 35.828125 
Q 39.65625 40.375 33.015625 40.375 
z
M 52.59375 71.296875 
L 52.59375 62.3125 
Q 48.875 64.0625 45.09375 64.984375 
Q 41.3125 65.921875 37.59375 65.921875 
Q 27.828125 65.921875 22.671875 59.328125 
Q 17.53125 52.734375 16.796875 39.40625 
Q 19.671875 43.65625 24.015625 45.921875 
Q 28.375 48.1875 33.59375 48.1875 
Q 44.578125 48.1875 50.953125 41.515625 
Q 57.328125 34.859375 57.328125 23.390625 
Q 57.328125 12.15625 50.6875 5.359375 
Q 44.046875 -1.421875 33.015625 -1.421875 
Q 20.359375 -1.421875 13.671875 8.265625 
Q 6.984375 17.96875 6.984375 36.375 
Q 6.984375 53.65625 15.1875 63.9375 
Q 23.390625 74.21875 37.203125 74.21875 
Q 40.921875 74.21875 44.703125 73.484375 
Q 48.484375 72.75 52.59375 71.296875 
z
" id="DejaVuSans-54"/>
      </defs>
      <g transform="translate(41.5 245.719219)scale(0.1 -0.1)">
       <use transform="translate(0 0.765625)" xlink:href="#DejaVuSans-49"/>
       <use transform="translate(63.623047 0.765625)" xlink:href="#DejaVuSans-48"/>
       <use transform="translate(128.203125 39.046875)scale(0.7)" xlink:href="#DejaVuSans-8722"/>
       <use transform="translate(186.855469 39.046875)scale(0.7)" xlink:href="#DejaVuSans-54"/>
      </g>
     </g>
    </g>
    <g id="ytick_5">
     <g id="line2d_21">
      <path clip-path="url(#p655f1b4982)" d="M 72 194.4 
L 518.4 194.4 
" style="fill:none;stroke:#b0b0b0;stroke-linecap:square;stroke-width:0.8;"/>
     </g>
     <g id="line2d_22">
      <g>
       <use style="stroke:#000000;stroke-width:0.8;" x="72" xlink:href="#m23d9a8d6d7" y="194.4"/>
      </g>
     </g>
     <g id="text_12">
      <!-- $\mathdefault{10^{-4}}$ -->
      <g transform="translate(41.5 198.199219)scale(0.1 -0.1)">
       <use transform="translate(0 0.684375)" xlink:href="#DejaVuSans-49"/>
       <use transform="translate(63.623047 0.684375)" xlink:href="#DejaVuSans-48"/>
       <use transform="translate(128.203125 38.965625)scale(0.7)" xlink:href="#DejaVuSans-8722"/>
       <use transform="translate(186.855469 38.965625)scale(0.7)" xlink:href="#DejaVuSans-52"/>
      </g>
     </g>
    </g>
    <g id="ytick_6">
     <g id="line2d_23">
      <path clip-path="url(#p655f1b4982)" d="M 72 146.88 
L 518.4 146.88 
" style="fill:none;stroke:#b0b0b0;stroke-linecap:square;stroke-width:0.8;"/>
     </g>
     <g id="line2d_24">
      <g>
       <use style="stroke:#000000;stroke-width:0.8;" x="72" xlink:href="#m23d9a8d6d7" y="146.88"/>
      </g>
     </g>
     <g id="text_13">
      <!-- $\mathdefault{10^{-2}}$ -->
      <g transform="translate(41.5 150.679219)scale(0.1 -0.1)">
       <use transform="translate(0 0.765625)" xlink:href="#DejaVuSans-49"/>
       <use transform="translate(63.623047 0.765625)" xlink:href="#DejaVuSans-48"/>
       <use transform="translate(128.203125 39.046875)scale(0.7)" xlink:href="#DejaVuSans-8722"/>
       <use transform="translate(186.855469 39.046875)scale(0.7)" xlink:href="#DejaVuSans-50"/>
      </g>
     </g>
    </g>
    <g id="ytick_7">
     <g id="line2d_25">
      <path clip-path="url(#p655f1b4982)" d="M 72 99.36 
L 518.4 99.36 
" style="fill:none;stroke:#b0b0b0;stroke-linecap:square;stroke-width:0.8;"/>
     </g>
     <g id="line2d_26">
      <g>
       <use style="stroke:#000000;stroke-width:0.8;" x="72" xlink:href="#m23d9a8d6d7" y="99.36"/>
      </g>
     </g>
     <g id="text_14">
      <!-- $\mathdefault{10^{0}}$ -->
      <g transform="translate(47.4 103.159219)scale(0.1 -0.1)">
       <use transform="translate(0 0.765625)" xlink:href="#DejaVuSans-49"/>
       <use transform="translate(63.623047 0.765625)" xlink:href="#DejaVuSans-48"/>
       <use transform="translate(128.203125 39.046875)scale(0.7)" xlink:href="#DejaVuSans-48"/>
      </g>
     </g>
    </g>
    <g id="ytick_8">
     <g id="line2d_27">
      <path clip-path="url(#p655f1b4982)" d="M 72 51.84 
L 518.4 51.84 
" style="fill:none;stroke:#b0b0b0;stroke-linecap:square;stroke-width:0.8;"/>
     </g>
     <g id="line2d_28">
      <g>
       <use style="stroke:#000000;stroke-width:0.8;" x="72" xlink:href="#m23d9a8d6d7" y="51.84"/>
      </g>
     </g>
     <g id="text_15">
      <!-- $\mathdefault{10^{2}}$ -->
      <g transform="translate(47.4 55.639219)scale(0.1 -0.1)">
       <use transform="translate(0 0.765625)" xlink:href="#DejaVuSans-49"/>
       <use transform="translate(63.623047 0.765625)" xlink:href="#DejaVuSans-48"/>
       <use transform="translate(128.203125 39.046875)scale(0.7)" xlink:href="#DejaVuSans-50"/>
      </g>
     </g>
    </g>
    <g id="text_16">
     <!-- Integrated Squared Error -->
     <defs>
      <path d="M 45.40625 27.984375 
Q 45.40625 37.75 41.375 43.109375 
Q 37.359375 48.484375 30.078125 48.484375 
Q 22.859375 48.484375 18.828125 43.109375 
Q 14.796875 37.75 14.796875 27.984375 
Q 14.796875 18.265625 18.828125 12.890625 
Q 22.859375 7.515625 30.078125 7.515625 
Q 37.359375 7.515625 41.375 12.890625 
Q 45.40625 18.265625 45.40625 27.984375 
z
M 54.390625 6.78125 
Q 54.390625 -7.171875 48.1875 -13.984375 
Q 42 -20.796875 29.203125 -20.796875 
Q 24.46875 -20.796875 20.265625 -20.09375 
Q 16.0625 -19.390625 12.109375 -17.921875 
L 12.109375 -9.1875 
Q 16.0625 -11.328125 19.921875 -12.34375 
Q 23.78125 -13.375 27.78125 -13.375 
Q 36.625 -13.375 41.015625 -8.765625 
Q 45.40625 -4.15625 45.40625 5.171875 
L 45.40625 9.625 
Q 42.625 4.78125 38.28125 2.390625 
Q 33.9375 0 27.875 0 
Q 17.828125 0 11.671875 7.65625 
Q 5.515625 15.328125 5.515625 27.984375 
Q 5.515625 40.671875 11.671875 48.328125 
Q 17.828125 56 27.875 56 
Q 33.9375 56 38.28125 53.609375 
Q 42.625 51.21875 45.40625 46.390625 
L 45.40625 54.6875 
L 54.390625 54.6875 
z
" id="DejaVuSans-103"/>
      <path d="M 45.40625 46.390625 
L 45.40625 75.984375 
L 54.390625 75.984375 
L 54.390625 0 
L 45.40625 0 
L 45.40625 8.203125 
Q 42.578125 3.328125 38.25 0.953125 
Q 33.9375 -1.421875 27.875 -1.421875 
Q 17.96875 -1.421875 11.734375 6.484375 
Q 5.515625 14.40625 5.515625 27.296875 
Q 5.515625 40.1875 11.734375 48.09375 
Q 17.96875 56 27.875 56 
Q 33.9375 56 38.25 53.625 
Q 42.578125 51.265625 45.40625 46.390625 
z
M 14.796875 27.296875 
Q 14.796875 17.390625 18.875 11.75 
Q 22.953125 6.109375 30.078125 6.109375 
Q 37.203125 6.109375 41.296875 11.75 
Q 45.40625 17.390625 45.40625 27.296875 
Q 45.40625 37.203125 41.296875 42.84375 
Q 37.203125 48.484375 30.078125 48.484375 
Q 22.953125 48.484375 18.875 42.84375 
Q 14.796875 37.203125 14.796875 27.296875 
z
" id="DejaVuSans-100"/>
      <path id="DejaVuSans-32"/>
      <path d="M 53.515625 70.515625 
L 53.515625 60.890625 
Q 47.90625 63.578125 42.921875 64.890625 
Q 37.9375 66.21875 33.296875 66.21875 
Q 25.25 66.21875 20.875 63.09375 
Q 16.5 59.96875 16.5 54.203125 
Q 16.5 49.359375 19.40625 46.890625 
Q 22.3125 44.4375 30.421875 42.921875 
L 36.375 41.703125 
Q 47.40625 39.59375 52.65625 34.296875 
Q 57.90625 29 57.90625 20.125 
Q 57.90625 9.515625 50.796875 4.046875 
Q 43.703125 -1.421875 29.984375 -1.421875 
Q 24.8125 -1.421875 18.96875 -0.25 
Q 13.140625 0.921875 6.890625 3.21875 
L 6.890625 13.375 
Q 12.890625 10.015625 18.65625 8.296875 
Q 24.421875 6.59375 29.984375 6.59375 
Q 38.421875 6.59375 43.015625 9.90625 
Q 47.609375 13.234375 47.609375 19.390625 
Q 47.609375 24.75 44.3125 27.78125 
Q 41.015625 30.8125 33.5 32.328125 
L 27.484375 33.5 
Q 16.453125 35.6875 11.515625 40.375 
Q 6.59375 45.0625 6.59375 53.421875 
Q 6.59375 63.09375 13.40625 68.65625 
Q 20.21875 74.21875 32.171875 74.21875 
Q 37.3125 74.21875 42.625 73.28125 
Q 47.953125 72.359375 53.515625 70.515625 
z
" id="DejaVuSans-83"/>
      <path d="M 14.796875 27.296875 
Q 14.796875 17.390625 18.875 11.75 
Q 22.953125 6.109375 30.078125 6.109375 
Q 37.203125 6.109375 41.296875 11.75 
Q 45.40625 17.390625 45.40625 27.296875 
Q 45.40625 37.203125 41.296875 42.84375 
Q 37.203125 48.484375 30.078125 48.484375 
Q 22.953125 48.484375 18.875 42.84375 
Q 14.796875 37.203125 14.796875 27.296875 
z
M 45.40625 8.203125 
Q 42.578125 3.328125 38.25 0.953125 
Q 33.9375 -1.421875 27.875 -1.421875 
Q 17.96875 -1.421875 11.734375 6.484375 
Q 5.515625 14.40625 5.515625 27.296875 
Q 5.515625 40.1875 11.734375 48.09375 
Q 17.96875 56 27.875 56 
Q 33.9375 56 38.25 53.625 
Q 42.578125 51.265625 45.40625 46.390625 
L 45.40625 54.6875 
L 54.390625 54.6875 
L 54.390625 -20.796875 
L 45.40625 -20.796875 
z
" id="DejaVuSans-113"/>
      <path d="M 8.5 21.578125 
L 8.5 54.6875 
L 17.484375 54.6875 
L 17.484375 21.921875 
Q 17.484375 14.15625 20.5 10.265625 
Q 23.53125 6.390625 29.59375 6.390625 
Q 36.859375 6.390625 41.078125 11.03125 
Q 45.3125 15.671875 45.3125 23.6875 
L 45.3125 54.6875 
L 54.296875 54.6875 
L 54.296875 0 
L 45.3125 0 
L 45.3125 8.40625 
Q 42.046875 3.421875 37.71875 1 
Q 33.40625 -1.421875 27.6875 -1.421875 
Q 18.265625 -1.421875 13.375 4.4375 
Q 8.5 10.296875 8.5 21.578125 
z
M 31.109375 56 
z
" id="DejaVuSans-117"/>
      <path d="M 9.8125 72.90625 
L 55.90625 72.90625 
L 55.90625 64.59375 
L 19.671875 64.59375 
L 19.671875 43.015625 
L 54.390625 43.015625 
L 54.390625 34.71875 
L 19.671875 34.71875 
L 19.671875 8.296875 
L 56.78125 8.296875 
L 56.78125 0 
L 9.8125 0 
z
" id="DejaVuSans-69"/>
     </defs>
     <g transform="translate(31.020312 280.483437)rotate(-90)scale(0.1 -0.1)">
      <use xlink:href="#DejaVuSans-73"/>
      <use x="29.492188" xlink:href="#DejaVuSans-110"/>
      <use x="92.871094" xlink:href="#DejaVuSans-116"/>
      <use x="132.080078" xlink:href="#DejaVuSans-101"/>
      <use x="193.603516" xlink:href="#DejaVuSans-103"/>
      <use x="257.080078" xlink:href="#DejaVuSans-114"/>
      <use x="298.193359" xlink:href="#DejaVuSans-97"/>
      <use x="359.472656" xlink:href="#DejaVuSans-116"/>
      <use x="398.681641" xlink:href="#DejaVuSans-101"/>
      <use x="460.205078" xlink:href="#DejaVuSans-100"/>
      <use x="523.681641" xlink:href="#DejaVuSans-32"/>
      <use x="555.46875" xlink:href="#DejaVuSans-83"/>
      <use x="618.945312" xlink:href="#DejaVuSans-113"/>
      <use x="682.421875" xlink:href="#DejaVuSans-117"/>
      <use x="745.800781" xlink:href="#DejaVuSans-97"/>
      <use x="807.080078" xlink:href="#DejaVuSans-114"/>
      <use x="845.943359" xlink:href="#DejaVuSans-101"/>
      <use x="907.466797" xlink:href="#DejaVuSans-100"/>
      <use x="970.943359" xlink:href="#DejaVuSans-32"/>
      <use x="1002.730469" xlink:href="#DejaVuSans-69"/>
      <use x="1065.914062" xlink:href="#DejaVuSans-114"/>
      <use x="1105.277344" xlink:href="#DejaVuSans-114"/>
      <use x="1144.140625" xlink:href="#DejaVuSans-111"/>
      <use x="1205.322266" xlink:href="#DejaVuSans-114"/>
     </g>
    </g>
   </g>
   <g id="line2d_29">
    <path clip-path="url(#p655f1b4982)" d="M 72 150.371195 
L 80.928 150.44086 
L 89.856 150.423209 
L 98.784 150.170584 
L 107.712 149.804803 
L 116.64 149.435452 
L 125.568 148.807531 
L 134.496 148.566824 
L 143.424 148.609382 
L 152.352 148.57966 
L 161.28 148.666778 
L 170.208 148.3613 
L 179.136 148.275264 
L 188.064 148.407194 
L 196.992 148.021543 
L 205.92 148.423128 
L 214.848 148.291784 
L 223.776 148.396417 
L 232.704 148.488762 
L 241.632 148.305267 
L 250.56 148.351287 
L 259.488 148.609708 
L 268.416 148.104238 
L 277.344 148.240894 
L 286.272 148.52929 
L 295.2 148.419363 
L 304.128 148.290826 
L 313.056 148.28739 
L 321.984 148.329138 
L 330.912 148.667165 
L 339.84 148.252132 
L 348.768 148.989288 
L 357.696 148.791028 
L 366.624 148.893349 
L 375.552 147.981514 
L 384.48 148.496931 
L 393.408 148.332795 
L 402.336 148.202464 
L 411.264 148.046632 
L 420.192 148.782558 
L 429.12 149.12954 
L 438.048 148.543891 
L 446.976 148.974456 
L 455.904 148.122044 
L 464.832 148.396184 
L 473.76 148.969238 
L 482.688 148.336796 
L 491.616 148.483513 
L 500.544 147.798925 
L 509.472 147.830134 
L 518.4 147.946592 
" style="fill:none;stroke:#1f77b4;stroke-linecap:square;stroke-width:1.5;"/>
   </g>
   <g id="line2d_30">
    <path clip-path="url(#p655f1b4982)" d="M 72 148.345101 
L 80.928 142.413613 
L 89.856 151.92805 
L 98.784 149.453159 
L 107.712 164.883086 
L 116.64 162.09631 
L 125.568 167.981453 
L 134.496 157.632072 
L 143.424 166.991202 
L 152.352 167.454327 
L 161.28 177.662015 
L 170.208 179.717573 
L 179.136 193.735697 
L 188.064 196.612134 
L 196.992 203.737769 
L 205.92 204.603774 
L 214.848 215.993431 
L 223.776 213.297031 
L 232.704 222.987694 
L 241.632 236.859953 
L 250.56 236.184083 
L 259.488 242.094311 
L 268.416 246.366618 
L 277.344 248.971727 
L 286.272 249.357399 
L 295.2 255.529402 
L 304.128 256.531884 
L 313.056 257.490009 
L 321.984 257.962052 
L 330.912 259.691201 
L 339.84 259.285243 
L 348.768 259.656772 
L 357.696 260.19332 
L 366.624 261.491517 
L 375.552 263.861358 
L 384.48 264.503861 
L 393.408 269.081096 
L 402.336 281.605943 
L 411.264 283.539735 
L 420.192 285.482496 
L 429.12 287.011921 
L 438.048 289.749983 
L 446.976 291.557554 
L 455.904 295.422629 
L 464.832 295.594535 
L 473.76 296.778718 
L 482.688 296.964322 
L 491.616 297.434319 
L 500.544 298.7283 
L 509.472 299.014167 
L 518.4 300.511872 
" style="fill:none;stroke:#ff7f0e;stroke-linecap:square;stroke-width:1.5;"/>
   </g>
   <g id="line2d_31">
    <path clip-path="url(#p655f1b4982)" d="M 72 151.852581 
L 80.928 153.090271 
L 89.856 157.502253 
L 98.784 157.659852 
L 107.712 157.680365 
L 116.64 157.682046 
L 125.568 157.685992 
L 134.496 157.716876 
L 143.424 158.327895 
L 152.352 159.570537 
L 161.28 161.984768 
L 170.208 162.699434 
L 179.136 162.851983 
L 188.064 162.901522 
L 196.992 162.906563 
L 205.92 162.925595 
L 214.848 162.950021 
L 223.776 162.95167 
L 232.704 162.951694 
L 241.632 162.951876 
L 250.56 162.966372 
L 259.488 162.994721 
L 268.416 163.018232 
L 277.344 163.025869 
L 286.272 163.031008 
L 295.2 163.033788 
L 304.128 163.035217 
L 313.056 163.440306 
L 321.984 178.777783 
L 330.912 179.052484 
L 339.84 180.053304 
L 348.768 180.119814 
L 357.696 180.128365 
L 366.624 180.130313 
L 375.552 180.130402 
L 384.48 180.138552 
L 393.408 180.141625 
L 402.336 180.144577 
L 411.264 180.206252 
L 420.192 180.380009 
L 429.12 180.440155 
L 438.048 180.455071 
L 446.976 180.457225 
L 455.904 180.457432 
L 464.832 180.457511 
L 473.76 180.457523 
L 482.688 180.464722 
L 491.616 180.558642 
L 500.544 181.612517 
L 509.472 181.648558 
L 518.4 181.65018 
" style="fill:none;stroke:#2ca02c;stroke-linecap:square;stroke-width:1.5;"/>
   </g>
   <g id="line2d_32">
    <path clip-path="url(#p655f1b4982)" d="M 72 150.425175 
L 80.928 154.325841 
L 89.856 156.212517 
L 98.784 163.376828 
L 107.712 167.243804 
L 116.64 171.694747 
L 125.568 175.239505 
L 134.496 178.098466 
L 143.424 182.226826 
L 152.352 186.357349 
L 161.28 193.33059 
L 170.208 196.486677 
L 179.136 199.709043 
L 188.064 203.853036 
L 196.992 209.165568 
L 205.92 215.078348 
L 214.848 218.295324 
L 223.776 222.681704 
L 232.704 234.571656 
L 241.632 239.108439 
L 250.56 245.939004 
L 259.488 252.977305 
L 268.416 259.963499 
L 277.344 260.820513 
L 286.272 261.828226 
L 295.2 263.919227 
L 304.128 267.637549 
L 313.056 270.720218 
L 321.984 274.528081 
L 330.912 280.206867 
L 339.84 281.454439 
L 348.768 283.921488 
L 357.696 285.260199 
L 366.624 287.599051 
L 375.552 291.866324 
L 384.48 293.018069 
L 393.408 293.424451 
L 402.336 294.372034 
L 411.264 294.497127 
L 420.192 294.491889 
L 429.12 295.24775 
L 438.048 295.972799 
L 446.976 297.431058 
L 455.904 297.948376 
L 464.832 298.890264 
L 473.76 299.73788 
L 482.688 299.933454 
L 491.616 300.150219 
L 500.544 300.338493 
L 509.472 300.601724 
L 518.4 300.765135 
" style="fill:none;stroke:#d62728;stroke-linecap:square;stroke-width:1.5;"/>
   </g>
   <g id="line2d_33">
    <path clip-path="url(#p655f1b4982)" d="M 72 149.405629 
L 80.928 149.210475 
L 89.856 155.839101 
L 98.784 161.12678 
L 107.712 160.667577 
L 116.64 166.044438 
L 125.568 168.614024 
L 134.496 172.904246 
L 143.424 182.522639 
L 152.352 188.9117 
L 161.28 195.700197 
L 170.208 200.756618 
L 179.136 207.223188 
L 188.064 221.995368 
L 196.992 234.576477 
L 205.92 249.34239 
L 214.848 256.542482 
L 223.776 263.972687 
L 232.704 268.964157 
L 241.632 273.763239 
L 250.56 275.014026 
L 259.488 275.749676 
L 268.416 276.425462 
L 277.344 277.583827 
L 286.272 279.321065 
L 295.2 279.487669 
L 304.128 280.804447 
L 313.056 280.947925 
L 321.984 283.015077 
L 330.912 283.780122 
L 339.84 284.00157 
L 348.768 285.016887 
L 357.696 289.653444 
L 366.624 301.20196 
L 375.552 303.52497 
L 384.48 304.887055 
L 393.408 306.208902 
L 402.336 306.902448 
L 411.264 307.307688 
L 420.192 308.126226 
L 429.12 309.282418 
L 438.048 309.239204 
L 446.976 309.1726 
L 455.904 309.375874 
L 464.832 309.8187 
L 473.76 310.095996 
L 482.688 310.084197 
L 491.616 310.021385 
L 500.544 309.730873 
L 509.472 309.069802 
L 518.4 308.902629 
" style="fill:none;stroke:#9467bd;stroke-linecap:square;stroke-width:1.5;"/>
   </g>
   <g id="line2d_34">
    <path clip-path="url(#p655f1b4982)" d="M 72 150.634738 
L 80.928 151.147003 
L 89.856 150.832911 
L 98.784 153.317369 
L 107.712 160.824565 
L 116.64 166.37394 
L 125.568 167.709484 
L 134.496 170.744306 
L 143.424 177.141744 
L 152.352 193.912013 
L 161.28 204.644873 
L 170.208 210.387376 
L 179.136 218.948331 
L 188.064 225.781409 
L 196.992 236.963359 
L 205.92 246.075103 
L 214.848 264.730349 
L 223.776 273.063272 
L 232.704 290.188521 
L 241.632 299.146392 
L 250.56 306.271717 
L 259.488 310.33289 
L 268.416 313.253555 
L 277.344 316.07177 
L 286.272 319.689777 
L 295.2 330.467774 
L 304.128 337.01237 
L 313.056 349.954659 
L 321.984 351.961266 
L 330.912 355.388629 
L 339.84 356.353043 
L 348.768 356.449733 
L 357.696 354.891357 
L 366.624 352.946176 
L 375.552 353.297823 
L 384.48 353.662525 
L 393.408 353.657193 
L 402.336 353.550255 
L 411.264 353.767654 
L 420.192 353.894034 
L 429.12 354.176727 
L 438.048 354.580132 
L 446.976 354.634863 
L 455.904 354.671308 
L 464.832 354.870066 
L 473.76 354.99015 
L 482.688 356.511178 
L 491.616 356.109257 
L 500.544 356.791699 
L 509.472 357.29029 
L 518.4 357.602742 
" style="fill:none;stroke:#8c564b;stroke-linecap:square;stroke-width:1.5;"/>
   </g>
   <g id="line2d_35">
    <path clip-path="url(#p655f1b4982)" d="M 72 149.915641 
L 80.928 150.219773 
L 89.856 149.593807 
L 98.784 148.759603 
L 107.712 147.825338 
L 116.64 146.792557 
L 125.568 146.105066 
L 134.496 145.709347 
L 143.424 145.388459 
L 152.352 145.608572 
L 161.28 145.719924 
L 170.208 145.906006 
L 179.136 145.658317 
L 188.064 145.96283 
L 196.992 146.120036 
L 205.92 146.227273 
L 214.848 146.25646 
L 223.776 146.312993 
L 232.704 146.055043 
L 241.632 146.454538 
L 250.56 146.341103 
L 259.488 146.417529 
L 268.416 146.518094 
L 277.344 146.854719 
L 286.272 146.995866 
L 295.2 146.933939 
L 304.128 146.719415 
L 313.056 146.70208 
L 321.984 146.642622 
L 330.912 146.611948 
L 339.84 146.426508 
L 348.768 146.268101 
L 357.696 146.08392 
L 366.624 146.235607 
L 375.552 146.328819 
L 384.48 146.23746 
L 393.408 146.148856 
L 402.336 146.104763 
L 411.264 146.159059 
L 420.192 146.17123 
L 429.12 146.090845 
L 438.048 146.094902 
L 446.976 145.952428 
L 455.904 145.929514 
L 464.832 146.074949 
L 473.76 146.067687 
L 482.688 145.916485 
L 491.616 145.863394 
L 500.544 145.943953 
L 509.472 145.95203 
L 518.4 145.947455 
" style="fill:none;stroke:#e377c2;stroke-linecap:square;stroke-width:1.5;"/>
   </g>
   <g id="patch_3">
    <path d="M 72 384.48 
L 72 51.84 
" style="fill:none;stroke:#000000;stroke-linecap:square;stroke-linejoin:miter;stroke-width:0.8;"/>
   </g>
   <g id="patch_4">
    <path d="M 518.4 384.48 
L 518.4 51.84 
" style="fill:none;stroke:#000000;stroke-linecap:square;stroke-linejoin:miter;stroke-width:0.8;"/>
   </g>
   <g id="patch_5">
    <path d="M 72 384.48 
L 518.4 384.48 
" style="fill:none;stroke:#000000;stroke-linecap:square;stroke-linejoin:miter;stroke-width:0.8;"/>
   </g>
   <g id="patch_6">
    <path d="M 72 51.84 
L 518.4 51.84 
" style="fill:none;stroke:#000000;stroke-linecap:square;stroke-linejoin:miter;stroke-width:0.8;"/>
   </g>
   <g id="legend_1">
    <g id="patch_7">
     <path d="M 79 379.48 
L 165.804688 379.48 
Q 167.804688 379.48 167.804688 377.48 
L 167.804688 275.733125 
Q 167.804688 273.733125 165.804688 273.733125 
L 79 273.733125 
Q 77 273.733125 77 275.733125 
L 77 377.48 
Q 77 379.48 79 379.48 
z
" style="fill:#ffffff;opacity:0.8;stroke:#cccccc;stroke-linejoin:miter;"/>
    </g>
    <g id="line2d_36">
     <path d="M 81 281.831563 
L 101 281.831563 
" style="fill:none;stroke:#1f77b4;stroke-linecap:square;stroke-width:1.5;"/>
    </g>
    <g id="line2d_37"/>
    <g id="text_17">
     <!-- Constant -->
     <defs>
      <path d="M 64.40625 67.28125 
L 64.40625 56.890625 
Q 59.421875 61.53125 53.78125 63.8125 
Q 48.140625 66.109375 41.796875 66.109375 
Q 29.296875 66.109375 22.65625 58.46875 
Q 16.015625 50.828125 16.015625 36.375 
Q 16.015625 21.96875 22.65625 14.328125 
Q 29.296875 6.6875 41.796875 6.6875 
Q 48.140625 6.6875 53.78125 8.984375 
Q 59.421875 11.28125 64.40625 15.921875 
L 64.40625 5.609375 
Q 59.234375 2.09375 53.4375 0.328125 
Q 47.65625 -1.421875 41.21875 -1.421875 
Q 24.65625 -1.421875 15.125 8.703125 
Q 5.609375 18.84375 5.609375 36.375 
Q 5.609375 53.953125 15.125 64.078125 
Q 24.65625 74.21875 41.21875 74.21875 
Q 47.75 74.21875 53.53125 72.484375 
Q 59.328125 70.75 64.40625 67.28125 
z
" id="DejaVuSans-67"/>
      <path d="M 44.28125 53.078125 
L 44.28125 44.578125 
Q 40.484375 46.53125 36.375 47.5 
Q 32.28125 48.484375 27.875 48.484375 
Q 21.1875 48.484375 17.84375 46.4375 
Q 14.5 44.390625 14.5 40.28125 
Q 14.5 37.15625 16.890625 35.375 
Q 19.28125 33.59375 26.515625 31.984375 
L 29.59375 31.296875 
Q 39.15625 29.25 43.1875 25.515625 
Q 47.21875 21.78125 47.21875 15.09375 
Q 47.21875 7.46875 41.1875 3.015625 
Q 35.15625 -1.421875 24.609375 -1.421875 
Q 20.21875 -1.421875 15.453125 -0.5625 
Q 10.6875 0.296875 5.421875 2 
L 5.421875 11.28125 
Q 10.40625 8.6875 15.234375 7.390625 
Q 20.0625 6.109375 24.8125 6.109375 
Q 31.15625 6.109375 34.5625 8.28125 
Q 37.984375 10.453125 37.984375 14.40625 
Q 37.984375 18.0625 35.515625 20.015625 
Q 33.0625 21.96875 24.703125 23.78125 
L 21.578125 24.515625 
Q 13.234375 26.265625 9.515625 29.90625 
Q 5.8125 33.546875 5.8125 39.890625 
Q 5.8125 47.609375 11.28125 51.796875 
Q 16.75 56 26.8125 56 
Q 31.78125 56 36.171875 55.265625 
Q 40.578125 54.546875 44.28125 53.078125 
z
" id="DejaVuSans-115"/>
     </defs>
     <g transform="translate(109 285.331563)scale(0.1 -0.1)">
      <use xlink:href="#DejaVuSans-67"/>
      <use x="69.824219" xlink:href="#DejaVuSans-111"/>
      <use x="131.005859" xlink:href="#DejaVuSans-110"/>
      <use x="194.384766" xlink:href="#DejaVuSans-115"/>
      <use x="246.484375" xlink:href="#DejaVuSans-116"/>
      <use x="285.693359" xlink:href="#DejaVuSans-97"/>
      <use x="346.972656" xlink:href="#DejaVuSans-110"/>
      <use x="410.351562" xlink:href="#DejaVuSans-116"/>
     </g>
    </g>
    <g id="line2d_38">
     <path d="M 81 296.509688 
L 101 296.509688 
" style="fill:none;stroke:#ff7f0e;stroke-linecap:square;stroke-width:1.5;"/>
    </g>
    <g id="line2d_39"/>
    <g id="text_18">
     <!-- RBF -->
     <defs>
      <path d="M 44.390625 34.1875 
Q 47.5625 33.109375 50.5625 29.59375 
Q 53.5625 26.078125 56.59375 19.921875 
L 66.609375 0 
L 56 0 
L 46.6875 18.703125 
Q 43.0625 26.03125 39.671875 28.421875 
Q 36.28125 30.8125 30.421875 30.8125 
L 19.671875 30.8125 
L 19.671875 0 
L 9.8125 0 
L 9.8125 72.90625 
L 32.078125 72.90625 
Q 44.578125 72.90625 50.734375 67.671875 
Q 56.890625 62.453125 56.890625 51.90625 
Q 56.890625 45.015625 53.6875 40.46875 
Q 50.484375 35.9375 44.390625 34.1875 
z
M 19.671875 64.796875 
L 19.671875 38.921875 
L 32.078125 38.921875 
Q 39.203125 38.921875 42.84375 42.21875 
Q 46.484375 45.515625 46.484375 51.90625 
Q 46.484375 58.296875 42.84375 61.546875 
Q 39.203125 64.796875 32.078125 64.796875 
z
" id="DejaVuSans-82"/>
      <path d="M 19.671875 34.8125 
L 19.671875 8.109375 
L 35.5 8.109375 
Q 43.453125 8.109375 47.28125 11.40625 
Q 51.125 14.703125 51.125 21.484375 
Q 51.125 28.328125 47.28125 31.5625 
Q 43.453125 34.8125 35.5 34.8125 
z
M 19.671875 64.796875 
L 19.671875 42.828125 
L 34.28125 42.828125 
Q 41.5 42.828125 45.03125 45.53125 
Q 48.578125 48.25 48.578125 53.8125 
Q 48.578125 59.328125 45.03125 62.0625 
Q 41.5 64.796875 34.28125 64.796875 
z
M 9.8125 72.90625 
L 35.015625 72.90625 
Q 46.296875 72.90625 52.390625 68.21875 
Q 58.5 63.53125 58.5 54.890625 
Q 58.5 48.1875 55.375 44.234375 
Q 52.25 40.28125 46.1875 39.3125 
Q 53.46875 37.75 57.5 32.78125 
Q 61.53125 27.828125 61.53125 20.40625 
Q 61.53125 10.640625 54.890625 5.3125 
Q 48.25 0 35.984375 0 
L 9.8125 0 
z
" id="DejaVuSans-66"/>
      <path d="M 9.8125 72.90625 
L 51.703125 72.90625 
L 51.703125 64.59375 
L 19.671875 64.59375 
L 19.671875 43.109375 
L 48.578125 43.109375 
L 48.578125 34.8125 
L 19.671875 34.8125 
L 19.671875 0 
L 9.8125 0 
z
" id="DejaVuSans-70"/>
     </defs>
     <g transform="translate(109 300.009688)scale(0.1 -0.1)">
      <use xlink:href="#DejaVuSans-82"/>
      <use x="69.482422" xlink:href="#DejaVuSans-66"/>
      <use x="138.085938" xlink:href="#DejaVuSans-70"/>
     </g>
    </g>
    <g id="line2d_40">
     <path d="M 81 311.187813 
L 101 311.187813 
" style="fill:none;stroke:#2ca02c;stroke-linecap:square;stroke-width:1.5;"/>
    </g>
    <g id="line2d_41"/>
    <g id="text_19">
     <!-- Matrn-1/2 -->
     <defs>
      <path d="M 9.8125 72.90625 
L 24.515625 72.90625 
L 43.109375 23.296875 
L 61.8125 72.90625 
L 76.515625 72.90625 
L 76.515625 0 
L 66.890625 0 
L 66.890625 64.015625 
L 48.09375 14.015625 
L 38.1875 14.015625 
L 19.390625 64.015625 
L 19.390625 0 
L 9.8125 0 
z
" id="DejaVuSans-77"/>
      <path d="M 56.203125 29.59375 
L 56.203125 25.203125 
L 14.890625 25.203125 
Q 15.484375 15.921875 20.484375 11.0625 
Q 25.484375 6.203125 34.421875 6.203125 
Q 39.59375 6.203125 44.453125 7.46875 
Q 49.3125 8.734375 54.109375 11.28125 
L 54.109375 2.78125 
Q 49.265625 0.734375 44.1875 -0.34375 
Q 39.109375 -1.421875 33.890625 -1.421875 
Q 20.796875 -1.421875 13.15625 6.1875 
Q 5.515625 13.8125 5.515625 26.8125 
Q 5.515625 40.234375 12.765625 48.109375 
Q 20.015625 56 32.328125 56 
Q 43.359375 56 49.78125 48.890625 
Q 56.203125 41.796875 56.203125 29.59375 
z
M 47.21875 32.234375 
Q 47.125 39.59375 43.09375 43.984375 
Q 39.0625 48.390625 32.421875 48.390625 
Q 24.90625 48.390625 20.390625 44.140625 
Q 15.875 39.890625 15.1875 32.171875 
z
M 38.53125 79.984375 
L 48.25 79.984375 
L 32.34375 61.625 
L 24.859375 61.625 
z
" id="DejaVuSans-233"/>
      <path d="M 4.890625 31.390625 
L 31.203125 31.390625 
L 31.203125 23.390625 
L 4.890625 23.390625 
z
" id="DejaVuSans-45"/>
      <path d="M 25.390625 72.90625 
L 33.6875 72.90625 
L 8.296875 -9.28125 
L 0 -9.28125 
z
" id="DejaVuSans-47"/>
     </defs>
     <g transform="translate(109 314.687813)scale(0.1 -0.1)">
      <use xlink:href="#DejaVuSans-77"/>
      <use x="86.279297" xlink:href="#DejaVuSans-97"/>
      <use x="147.558594" xlink:href="#DejaVuSans-116"/>
      <use x="186.767578" xlink:href="#DejaVuSans-233"/>
      <use x="248.291016" xlink:href="#DejaVuSans-114"/>
      <use x="287.654297" xlink:href="#DejaVuSans-110"/>
      <use x="351.033203" xlink:href="#DejaVuSans-45"/>
      <use x="387.117188" xlink:href="#DejaVuSans-49"/>
      <use x="450.740234" xlink:href="#DejaVuSans-47"/>
      <use x="484.431641" xlink:href="#DejaVuSans-50"/>
     </g>
    </g>
    <g id="line2d_42">
     <path d="M 81 325.865938 
L 101 325.865938 
" style="fill:none;stroke:#d62728;stroke-linecap:square;stroke-width:1.5;"/>
    </g>
    <g id="line2d_43"/>
    <g id="text_20">
     <!-- Matrn-3/2 -->
     <g transform="translate(109 329.365938)scale(0.1 -0.1)">
      <use xlink:href="#DejaVuSans-77"/>
      <use x="86.279297" xlink:href="#DejaVuSans-97"/>
      <use x="147.558594" xlink:href="#DejaVuSans-116"/>
      <use x="186.767578" xlink:href="#DejaVuSans-233"/>
      <use x="248.291016" xlink:href="#DejaVuSans-114"/>
      <use x="287.654297" xlink:href="#DejaVuSans-110"/>
      <use x="351.033203" xlink:href="#DejaVuSans-45"/>
      <use x="387.117188" xlink:href="#DejaVuSans-51"/>
      <use x="450.740234" xlink:href="#DejaVuSans-47"/>
      <use x="484.431641" xlink:href="#DejaVuSans-50"/>
     </g>
    </g>
    <g id="line2d_44">
     <path d="M 81 340.544062 
L 101 340.544062 
" style="fill:none;stroke:#9467bd;stroke-linecap:square;stroke-width:1.5;"/>
    </g>
    <g id="line2d_45"/>
    <g id="text_21">
     <!-- Matrn-5/2 -->
     <g transform="translate(109 344.044062)scale(0.1 -0.1)">
      <use xlink:href="#DejaVuSans-77"/>
      <use x="86.279297" xlink:href="#DejaVuSans-97"/>
      <use x="147.558594" xlink:href="#DejaVuSans-116"/>
      <use x="186.767578" xlink:href="#DejaVuSans-233"/>
      <use x="248.291016" xlink:href="#DejaVuSans-114"/>
      <use x="287.654297" xlink:href="#DejaVuSans-110"/>
      <use x="351.033203" xlink:href="#DejaVuSans-45"/>
      <use x="387.117188" xlink:href="#DejaVuSans-53"/>
      <use x="450.740234" xlink:href="#DejaVuSans-47"/>
      <use x="484.431641" xlink:href="#DejaVuSans-50"/>
     </g>
    </g>
    <g id="line2d_46">
     <path d="M 81 355.222188 
L 101 355.222188 
" style="fill:none;stroke:#8c564b;stroke-linecap:square;stroke-width:1.5;"/>
    </g>
    <g id="line2d_47"/>
    <g id="text_22">
     <!-- RQ -->
     <defs>
      <path d="M 39.40625 66.21875 
Q 28.65625 66.21875 22.328125 58.203125 
Q 16.015625 50.203125 16.015625 36.375 
Q 16.015625 22.609375 22.328125 14.59375 
Q 28.65625 6.59375 39.40625 6.59375 
Q 50.140625 6.59375 56.421875 14.59375 
Q 62.703125 22.609375 62.703125 36.375 
Q 62.703125 50.203125 56.421875 58.203125 
Q 50.140625 66.21875 39.40625 66.21875 
z
M 53.21875 1.3125 
L 66.21875 -12.890625 
L 54.296875 -12.890625 
L 43.5 -1.21875 
Q 41.890625 -1.3125 41.03125 -1.359375 
Q 40.1875 -1.421875 39.40625 -1.421875 
Q 24.03125 -1.421875 14.8125 8.859375 
Q 5.609375 19.140625 5.609375 36.375 
Q 5.609375 53.65625 14.8125 63.9375 
Q 24.03125 74.21875 39.40625 74.21875 
Q 54.734375 74.21875 63.90625 63.9375 
Q 73.09375 53.65625 73.09375 36.375 
Q 73.09375 23.6875 67.984375 14.640625 
Q 62.890625 5.609375 53.21875 1.3125 
z
" id="DejaVuSans-81"/>
     </defs>
     <g transform="translate(109 358.722188)scale(0.1 -0.1)">
      <use xlink:href="#DejaVuSans-82"/>
      <use x="69.482422" xlink:href="#DejaVuSans-81"/>
     </g>
    </g>
    <g id="line2d_48">
     <path d="M 81 369.900313 
L 101 369.900313 
" style="fill:none;stroke:#e377c2;stroke-linecap:square;stroke-width:1.5;"/>
    </g>
    <g id="line2d_49"/>
    <g id="text_23">
     <!-- Dot Prod. -->
     <defs>
      <path d="M 19.671875 64.796875 
L 19.671875 8.109375 
L 31.59375 8.109375 
Q 46.6875 8.109375 53.6875 14.9375 
Q 60.6875 21.78125 60.6875 36.53125 
Q 60.6875 51.171875 53.6875 57.984375 
Q 46.6875 64.796875 31.59375 64.796875 
z
M 9.8125 72.90625 
L 30.078125 72.90625 
Q 51.265625 72.90625 61.171875 64.09375 
Q 71.09375 55.28125 71.09375 36.53125 
Q 71.09375 17.671875 61.125 8.828125 
Q 51.171875 0 30.078125 0 
L 9.8125 0 
z
" id="DejaVuSans-68"/>
      <path d="M 19.671875 64.796875 
L 19.671875 37.40625 
L 32.078125 37.40625 
Q 38.96875 37.40625 42.71875 40.96875 
Q 46.484375 44.53125 46.484375 51.125 
Q 46.484375 57.671875 42.71875 61.234375 
Q 38.96875 64.796875 32.078125 64.796875 
z
M 9.8125 72.90625 
L 32.078125 72.90625 
Q 44.34375 72.90625 50.609375 67.359375 
Q 56.890625 61.8125 56.890625 51.125 
Q 56.890625 40.328125 50.609375 34.8125 
Q 44.34375 29.296875 32.078125 29.296875 
L 19.671875 29.296875 
L 19.671875 0 
L 9.8125 0 
z
" id="DejaVuSans-80"/>
      <path d="M 10.6875 12.40625 
L 21 12.40625 
L 21 0 
L 10.6875 0 
z
" id="DejaVuSans-46"/>
     </defs>
     <g transform="translate(109 373.400313)scale(0.1 -0.1)">
      <use xlink:href="#DejaVuSans-68"/>
      <use x="77.001953" xlink:href="#DejaVuSans-111"/>
      <use x="138.183594" xlink:href="#DejaVuSans-116"/>
      <use x="177.392578" xlink:href="#DejaVuSans-32"/>
      <use x="209.179688" xlink:href="#DejaVuSans-80"/>
      <use x="267.732422" xlink:href="#DejaVuSans-114"/>
      <use x="306.595703" xlink:href="#DejaVuSans-111"/>
      <use x="367.777344" xlink:href="#DejaVuSans-100"/>
      <use x="431.253906" xlink:href="#DejaVuSans-46"/>
     </g>
    </g>
   </g>
  </g>
 </g>
 <defs>
  <clipPath id="p655f1b4982">
   <rect height="332.64" width="446.4" x="72" y="51.84"/>
  </clipPath>
 </defs>
</svg>
