<?xml version="1.0" encoding="utf-8" standalone="no"?>
<!DOCTYPE svg PUBLIC "-//W3C//DTD SVG 1.1//EN"
  "http://www.w3.org/Graphics/SVG/1.1/DTD/svg11.dtd">
<!-- Created with matplotlib (https://matplotlib.org/) -->
<svg height="432pt" version="1.1" viewBox="0 0 576 432" width="576pt" xmlns="http://www.w3.org/2000/svg" xmlns:xlink="http://www.w3.org/1999/xlink">
 <defs>
  <style type="text/css">
*{stroke-linecap:butt;stroke-linejoin:round;}
  </style>
 </defs>
 <g id="figure_1">
  <g id="patch_1">
   <path d="M 0 432 
L 576 432 
L 576 0 
L 0 0 
z
" style="fill:#ffffff;"/>
  </g>
  <g id="axes_1">
   <g id="patch_2">
    <path d="M 72 384.48 
L 518.4 384.48 
L 518.4 51.84 
L 72 51.84 
z
" style="fill:#ffffff;"/>
   </g>
   <g id="PolyCollection_1">
    <path clip-path="url(#pb8e3d60f6c)" d="M 72 100.255872 
L 72 98.120874 
L 80.928 98.671942 
L 89.856 95.172798 
L 98.784 94.440484 
L 107.712 96.978771 
L 116.64 94.439094 
L 125.568 95.650311 
L 134.496 96.771804 
L 143.424 98.42375 
L 152.352 98.215295 
L 161.28 99.499468 
L 170.208 96.774557 
L 179.136 97.943845 
L 188.064 97.820325 
L 196.992 94.727843 
L 205.92 98.335899 
L 214.848 97.117575 
L 223.776 95.757492 
L 232.704 95.94823 
L 241.632 95.635401 
L 250.56 95.23797 
L 259.488 95.328572 
L 268.416 96.564322 
L 277.344 94.615624 
L 286.272 95.011149 
L 295.2 90.944747 
L 304.128 97.744544 
L 313.056 93.997997 
L 321.984 92.419347 
L 330.912 92.702773 
L 339.84 92.296235 
L 348.768 97.31434 
L 357.696 94.153805 
L 366.624 93.19311 
L 375.552 95.375367 
L 384.48 95.316931 
L 393.408 97.642991 
L 402.336 96.251635 
L 411.264 97.430661 
L 420.192 98.598923 
L 429.12 97.653624 
L 438.048 98.300818 
L 446.976 97.521212 
L 455.904 97.752388 
L 464.832 97.142324 
L 473.76 97.876917 
L 482.688 97.980706 
L 491.616 100.030557 
L 500.544 100.028905 
L 509.472 99.8672 
L 518.4 100.000744 
L 518.4 100.084383 
L 518.4 100.084383 
L 509.472 100.214502 
L 500.544 100.092764 
L 491.616 100.094386 
L 482.688 100.912363 
L 473.76 100.457374 
L 464.832 101.308953 
L 455.904 100.792492 
L 446.976 100.790362 
L 438.048 101.012971 
L 429.12 100.849247 
L 420.192 100.885973 
L 411.264 101.097118 
L 402.336 101.320484 
L 393.408 101.258697 
L 384.48 101.414949 
L 375.552 101.988402 
L 366.624 102.419579 
L 357.696 102.653668 
L 348.768 101.577219 
L 339.84 100.715329 
L 330.912 101.159499 
L 321.984 100.008119 
L 313.056 101.339787 
L 304.128 101.318194 
L 295.2 102.095413 
L 286.272 101.175564 
L 277.344 101.829923 
L 268.416 100.984437 
L 259.488 101.78504 
L 250.56 101.332839 
L 241.632 101.087613 
L 232.704 100.56179 
L 223.776 101.345855 
L 214.848 101.013144 
L 205.92 100.686933 
L 196.992 100.604987 
L 188.064 100.82239 
L 179.136 101.465815 
L 170.208 101.077841 
L 161.28 100.198925 
L 152.352 100.887008 
L 143.424 100.48717 
L 134.496 100.415484 
L 125.568 100.117935 
L 116.64 100.619787 
L 107.712 99.247689 
L 98.784 99.252718 
L 89.856 98.869807 
L 80.928 99.965757 
L 72 100.255872 
z
" style="fill:#1f77b4;fill-opacity:0.3;"/>
   </g>
   <g id="PolyCollection_2">
    <path clip-path="url(#pb8e3d60f6c)" d="M 72 101.997228 
L 72 95.690817 
L 80.928 96.213461 
L 89.856 80.915295 
L 98.784 84.016395 
L 107.712 82.541623 
L 116.64 82.577363 
L 125.568 93.771734 
L 134.496 91.993012 
L 143.424 87.946939 
L 152.352 87.268897 
L 161.28 87.616761 
L 170.208 108.754579 
L 179.136 106.338266 
L 188.064 105.170695 
L 196.992 116.165862 
L 205.92 118.805217 
L 214.848 120.708744 
L 223.776 120.933924 
L 232.704 142.039837 
L 241.632 152.635762 
L 250.56 162.404518 
L 259.488 164.305595 
L 268.416 170.948012 
L 277.344 173.903719 
L 286.272 172.306413 
L 295.2 169.008007 
L 304.128 168.300296 
L 313.056 169.244688 
L 321.984 168.253407 
L 330.912 167.808616 
L 339.84 247.917644 
L 348.768 257.489489 
L 357.696 261.338289 
L 366.624 275.736741 
L 375.552 275.800356 
L 384.48 275.902496 
L 393.408 276.037561 
L 402.336 275.91069 
L 411.264 279.74043 
L 420.192 279.689142 
L 429.12 279.64681 
L 438.048 275.629657 
L 446.976 275.590121 
L 455.904 275.622324 
L 464.832 275.52137 
L 473.76 275.483026 
L 482.688 282.387377 
L 491.616 287.576064 
L 500.544 287.554665 
L 509.472 287.490956 
L 518.4 287.483947 
L 518.4 306.208032 
L 518.4 306.208032 
L 509.472 306.214464 
L 500.544 306.165517 
L 491.616 306.180335 
L 482.688 302.777369 
L 473.76 297.767604 
L 464.832 297.790288 
L 455.904 297.749385 
L 446.976 297.718127 
L 438.048 297.740385 
L 429.12 286.06237 
L 420.192 286.134414 
L 411.264 286.18212 
L 402.336 284.347126 
L 393.408 284.529772 
L 384.48 282.666281 
L 375.552 282.369131 
L 366.624 280.261371 
L 357.696 274.742438 
L 348.768 274.590864 
L 339.84 256.17825 
L 330.912 205.091541 
L 321.984 202.755862 
L 313.056 201.427263 
L 304.128 197.076985 
L 295.2 196.380352 
L 286.272 190.132321 
L 277.344 190.419008 
L 268.416 186.146946 
L 259.488 182.206886 
L 250.56 166.814767 
L 241.632 162.385076 
L 232.704 150.597782 
L 223.776 139.855754 
L 214.848 139.17295 
L 205.92 136.115777 
L 196.992 122.329019 
L 188.064 113.81338 
L 179.136 114.260399 
L 170.208 116.167526 
L 161.28 101.026628 
L 152.352 101.061761 
L 143.424 103.40049 
L 134.496 102.42282 
L 125.568 96.80435 
L 116.64 96.397404 
L 107.712 96.2245 
L 98.784 94.957078 
L 89.856 97.64155 
L 80.928 102.615592 
L 72 101.997228 
z
" style="fill:#ff7f0e;fill-opacity:0.3;"/>
   </g>
   <g id="PolyCollection_3">
    <path clip-path="url(#pb8e3d60f6c)" d="M 72 102.92605 
L 72 97.052461 
L 80.928 96.105579 
L 89.856 88.360932 
L 98.784 92.574346 
L 107.712 92.715476 
L 116.64 92.531391 
L 125.568 97.653063 
L 134.496 102.549233 
L 143.424 102.532499 
L 152.352 102.518104 
L 161.28 102.554768 
L 170.208 127.490465 
L 179.136 127.56107 
L 188.064 127.759115 
L 196.992 130.092253 
L 205.92 130.697662 
L 214.848 130.75403 
L 223.776 130.776978 
L 232.704 131.006706 
L 241.632 132.259891 
L 250.56 132.366967 
L 259.488 132.644345 
L 268.416 133.306513 
L 277.344 133.60674 
L 286.272 133.69656 
L 295.2 133.728067 
L 304.128 134.604524 
L 313.056 135.513684 
L 321.984 135.798701 
L 330.912 136.823481 
L 339.84 139.179555 
L 348.768 139.200073 
L 357.696 139.20116 
L 366.624 139.20192 
L 375.552 140.140511 
L 384.48 140.417085 
L 393.408 140.435573 
L 402.336 140.482608 
L 411.264 141.540059 
L 420.192 144.38855 
L 429.12 144.421195 
L 438.048 144.435864 
L 446.976 144.566572 
L 455.904 145.201126 
L 464.832 145.213645 
L 473.76 145.252865 
L 482.688 145.346036 
L 491.616 145.809343 
L 500.544 145.930529 
L 509.472 145.97033 
L 518.4 147.850064 
L 518.4 149.867434 
L 518.4 149.867434 
L 509.472 147.558588 
L 500.544 147.510713 
L 491.616 147.365867 
L 482.688 146.815573 
L 473.76 146.704844 
L 464.832 146.658289 
L 455.904 146.643447 
L 446.976 145.902941 
L 438.048 145.751867 
L 429.12 145.734651 
L 420.192 145.696413 
L 411.264 143.130801 
L 402.336 141.904906 
L 393.408 141.850384 
L 384.48 141.829007 
L 375.552 141.504865 
L 366.624 140.455884 
L 357.696 140.45508 
L 348.768 140.453901 
L 339.84 140.430559 
L 330.912 137.790531 
L 321.984 136.662093 
L 313.056 136.351265 
L 304.128 135.544806 
L 295.2 134.655636 
L 286.272 134.620908 
L 277.344 134.523116 
L 268.416 134.205826 
L 259.488 133.615744 
L 250.56 133.304562 
L 241.632 133.178408 
L 232.704 131.857953 
L 223.776 131.609667 
L 214.848 131.585033 
L 205.92 131.523009 
L 196.992 130.868545 
L 188.064 128.886321 
L 179.136 128.668477 
L 170.208 128.586244 
L 161.28 110.496259 
L 152.352 110.033534 
L 143.424 110.026848 
L 134.496 109.992829 
L 125.568 100.872667 
L 116.64 96.908488 
L 107.712 96.698443 
L 98.784 97.089607 
L 89.856 97.230093 
L 80.928 101.070139 
L 72 102.92605 
z
" style="fill:#2ca02c;fill-opacity:0.3;"/>
   </g>
   <g id="PolyCollection_4">
    <path clip-path="url(#pb8e3d60f6c)" d="M 72 101.417705 
L 72 97.618444 
L 80.928 97.823714 
L 89.856 83.664992 
L 98.784 86.924622 
L 107.712 86.823838 
L 116.64 87.129094 
L 125.568 95.693706 
L 134.496 95.303683 
L 143.424 94.562852 
L 152.352 94.406556 
L 161.28 93.74131 
L 170.208 119.606817 
L 179.136 119.104488 
L 188.064 118.784218 
L 196.992 127.735093 
L 205.92 131.189186 
L 214.848 131.498273 
L 223.776 131.502987 
L 232.704 134.09812 
L 241.632 141.987375 
L 250.56 142.567629 
L 259.488 144.567934 
L 268.416 144.994724 
L 277.344 145.580734 
L 286.272 145.759099 
L 295.2 145.830886 
L 304.128 148.091555 
L 313.056 148.148908 
L 321.984 148.463706 
L 330.912 148.241316 
L 339.84 182.482644 
L 348.768 182.681009 
L 357.696 182.733306 
L 366.624 182.770223 
L 375.552 183.58497 
L 384.48 183.945606 
L 393.408 184.015315 
L 402.336 184.158488 
L 411.264 184.13825 
L 420.192 186.472281 
L 429.12 186.619292 
L 438.048 186.723608 
L 446.976 187.071496 
L 455.904 191.415796 
L 464.832 191.547456 
L 473.76 191.928847 
L 482.688 191.963465 
L 491.616 193.028682 
L 500.544 193.302898 
L 509.472 193.416717 
L 518.4 194.512082 
L 518.4 196.433673 
L 518.4 196.433673 
L 509.472 195.130041 
L 500.544 194.994709 
L 491.616 194.65389 
L 482.688 193.397819 
L 473.76 193.366995 
L 464.832 192.910263 
L 455.904 192.757954 
L 446.976 189.409857 
L 438.048 188.95209 
L 429.12 188.82387 
L 420.192 188.636399 
L 411.264 186.267658 
L 402.336 185.847744 
L 393.408 185.67626 
L 384.48 185.596968 
L 375.552 184.917435 
L 366.624 183.453971 
L 357.696 183.41804 
L 348.768 183.369488 
L 339.84 183.172041 
L 330.912 163.295488 
L 321.984 156.715321 
L 313.056 155.469713 
L 304.128 155.297814 
L 295.2 150.153899 
L 286.272 150.013794 
L 277.344 149.646757 
L 268.416 148.482294 
L 259.488 147.789112 
L 250.56 145.010422 
L 241.632 144.179625 
L 232.704 136.850713 
L 223.776 134.722821 
L 214.848 134.665937 
L 205.92 134.42949 
L 196.992 130.416744 
L 188.064 123.821843 
L 179.136 124.193879 
L 170.208 124.591343 
L 161.28 107.093312 
L 152.352 106.237487 
L 143.424 106.942294 
L 134.496 106.983436 
L 125.568 97.862576 
L 116.64 92.664891 
L 107.712 94.414404 
L 98.784 95.84404 
L 89.856 99.183662 
L 80.928 101.398088 
L 72 101.417705 
z
" style="fill:#d62728;fill-opacity:0.3;"/>
   </g>
   <g id="PolyCollection_5">
    <path clip-path="url(#pb8e3d60f6c)" d="M 72 101.060851 
L 72 96.558457 
L 80.928 97.264173 
L 89.856 83.040512 
L 98.784 84.286527 
L 107.712 84.547767 
L 116.64 84.976003 
L 125.568 95.033636 
L 134.496 95.215964 
L 143.424 91.760988 
L 152.352 91.720192 
L 161.28 91.279582 
L 170.208 115.4699 
L 179.136 114.359076 
L 188.064 113.686224 
L 196.992 123.451149 
L 205.92 126.893126 
L 214.848 127.434074 
L 223.776 127.408826 
L 232.704 133.910252 
L 241.632 145.323773 
L 250.56 146.249342 
L 259.488 151.39605 
L 268.416 153.229504 
L 277.344 153.160523 
L 286.272 153.439828 
L 295.2 153.584723 
L 304.128 154.865753 
L 313.056 154.993266 
L 321.984 155.102931 
L 330.912 151.58906 
L 339.84 212.920489 
L 348.768 215.992252 
L 357.696 216.084215 
L 366.624 216.156211 
L 375.552 215.782912 
L 384.48 215.15159 
L 393.408 215.278825 
L 402.336 215.33218 
L 411.264 215.290869 
L 420.192 217.452029 
L 429.12 217.686664 
L 438.048 217.714323 
L 446.976 218.043005 
L 455.904 225.663889 
L 464.832 225.93825 
L 473.76 227.113624 
L 482.688 227.726509 
L 491.616 228.192395 
L 500.544 228.436939 
L 509.472 228.468964 
L 518.4 229.056641 
L 518.4 230.488169 
L 518.4 230.488169 
L 509.472 229.866819 
L 500.544 229.82536 
L 491.616 229.541731 
L 482.688 229.170189 
L 473.76 228.733384 
L 464.832 227.381707 
L 455.904 227.061119 
L 446.976 220.637747 
L 438.048 220.090122 
L 429.12 220.074347 
L 420.192 219.780805 
L 411.264 217.123641 
L 402.336 216.9978 
L 393.408 216.960095 
L 384.48 216.815615 
L 375.552 216.571924 
L 366.624 216.506576 
L 357.696 216.431519 
L 348.768 216.294249 
L 339.84 214.366606 
L 330.912 174.828975 
L 321.984 165.159319 
L 313.056 163.866723 
L 304.128 163.351645 
L 295.2 158.950159 
L 286.272 158.624629 
L 277.344 158.069553 
L 268.416 156.523682 
L 259.488 153.675316 
L 250.56 148.871855 
L 241.632 147.375126 
L 232.704 139.874418 
L 223.776 135.488075 
L 214.848 135.321728 
L 205.92 135.023462 
L 196.992 128.01024 
L 188.064 120.714006 
L 179.136 121.311538 
L 170.208 122.101738 
L 161.28 101.309142 
L 152.352 101.104971 
L 143.424 102.65758 
L 134.496 100.133932 
L 125.568 97.344304 
L 116.64 94.365243 
L 107.712 95.976527 
L 98.784 98.217892 
L 89.856 96.160576 
L 80.928 101.453012 
L 72 101.060851 
z
" style="fill:#9467bd;fill-opacity:0.3;"/>
   </g>
   <g id="PolyCollection_6">
    <path clip-path="url(#pb8e3d60f6c)" d="M 72 100.060993 
L 72 98.627174 
L 80.928 98.995971 
L 89.856 85.842461 
L 98.784 92.545912 
L 107.712 89.587814 
L 116.64 86.845192 
L 125.568 96.940994 
L 134.496 101.878529 
L 143.424 102.009494 
L 152.352 102.215659 
L 161.28 102.549806 
L 170.208 100.098781 
L 179.136 100.075567 
L 188.064 100.121677 
L 196.992 99.892422 
L 205.92 99.688532 
L 214.848 99.724421 
L 223.776 99.61827 
L 232.704 100.688672 
L 241.632 100.75494 
L 250.56 106.884938 
L 259.488 115.362843 
L 268.416 142.945106 
L 277.344 145.604752 
L 286.272 145.871012 
L 295.2 172.738318 
L 304.128 172.243725 
L 313.056 173.559562 
L 321.984 173.050776 
L 330.912 173.092874 
L 339.84 246.889132 
L 348.768 257.5448 
L 357.696 261.033841 
L 366.624 275.713316 
L 375.552 276.420791 
L 384.48 276.665338 
L 393.408 277.554802 
L 402.336 277.365539 
L 411.264 281.348726 
L 420.192 273.523356 
L 429.12 281.219635 
L 438.048 283.257676 
L 446.976 283.265234 
L 455.904 283.353221 
L 464.832 283.259899 
L 473.76 283.126327 
L 482.688 290.392954 
L 491.616 295.005598 
L 500.544 295.022773 
L 509.472 294.947547 
L 518.4 295.095578 
L 518.4 295.908516 
L 518.4 295.908516 
L 509.472 295.716074 
L 500.544 295.74417 
L 491.616 295.812841 
L 482.688 290.997765 
L 473.76 285.672563 
L 464.832 285.634051 
L 455.904 285.657176 
L 446.976 285.661469 
L 438.048 285.692338 
L 429.12 283.252848 
L 420.192 288.95294 
L 411.264 283.379604 
L 402.336 281.286623 
L 393.408 281.368331 
L 384.48 280.529631 
L 375.552 280.393288 
L 366.624 279.129261 
L 357.696 273.879639 
L 348.768 273.369724 
L 339.84 255.415582 
L 330.912 191.18289 
L 321.984 190.04075 
L 313.056 189.792146 
L 304.128 186.595142 
L 295.2 186.39069 
L 286.272 178.1763 
L 277.344 147.443551 
L 268.416 145.843929 
L 259.488 148.540444 
L 250.56 140.372511 
L 241.632 130.067523 
L 232.704 126.432213 
L 223.776 119.562468 
L 214.848 117.843843 
L 205.92 115.870616 
L 196.992 114.495942 
L 188.064 112.315611 
L 179.136 112.433884 
L 170.208 111.649202 
L 161.28 108.461101 
L 152.352 107.367187 
L 143.424 106.836563 
L 134.496 106.289965 
L 125.568 100.941154 
L 116.64 99.830338 
L 107.712 101.191153 
L 98.784 101.974852 
L 89.856 99.902155 
L 80.928 99.899686 
L 72 100.060993 
z
" style="fill:#8c564b;fill-opacity:0.3;"/>
   </g>
   <g id="PolyCollection_7">
    <path clip-path="url(#pb8e3d60f6c)" d="M 72 100.073394 
L 72 98.498456 
L 80.928 98.678099 
L 89.856 95.346643 
L 98.784 96.198885 
L 107.712 96.20683 
L 116.64 96.774217 
L 125.568 97.985927 
L 134.496 99.535434 
L 143.424 99.590042 
L 152.352 99.596919 
L 161.28 99.883122 
L 170.208 100.243761 
L 179.136 100.246611 
L 188.064 100.260617 
L 196.992 100.36974 
L 205.92 100.003007 
L 214.848 100.325941 
L 223.776 100.33593 
L 232.704 100.269589 
L 241.632 100.288097 
L 250.56 100.281632 
L 259.488 100.276182 
L 268.416 100.441708 
L 277.344 100.430468 
L 286.272 100.430739 
L 295.2 100.4312 
L 304.128 100.412457 
L 313.056 100.458391 
L 321.984 100.45755 
L 330.912 100.46564 
L 339.84 100.475944 
L 348.768 100.471487 
L 357.696 100.469615 
L 366.624 100.469743 
L 375.552 100.470992 
L 384.48 100.451222 
L 393.408 100.451571 
L 402.336 100.453033 
L 411.264 100.35418 
L 420.192 100.490392 
L 429.12 100.491108 
L 438.048 100.491402 
L 446.976 100.492159 
L 455.904 100.493251 
L 464.832 100.492871 
L 473.76 100.494955 
L 482.688 100.499077 
L 491.616 100.488255 
L 500.544 100.488724 
L 509.472 100.489563 
L 518.4 100.454869 
L 518.4 100.486903 
L 518.4 100.486903 
L 509.472 100.509631 
L 500.544 100.508963 
L 491.616 100.508707 
L 482.688 100.531687 
L 473.76 100.536836 
L 464.832 100.537814 
L 455.904 100.538078 
L 446.976 100.538649 
L 438.048 100.539098 
L 429.12 100.539573 
L 420.192 100.540223 
L 411.264 100.426116 
L 402.336 100.490154 
L 393.408 100.489286 
L 384.48 100.489099 
L 375.552 100.504984 
L 366.624 100.506181 
L 357.696 100.506171 
L 348.768 100.509816 
L 339.84 100.53418 
L 330.912 100.550084 
L 321.984 100.556532 
L 313.056 100.557099 
L 304.128 100.475052 
L 295.2 100.495109 
L 286.272 100.494873 
L 277.344 100.496109 
L 268.416 100.554081 
L 259.488 100.393092 
L 250.56 100.394931 
L 241.632 100.400675 
L 232.704 100.390455 
L 223.776 100.441084 
L 214.848 100.440629 
L 205.92 100.656837 
L 196.992 100.546166 
L 188.064 100.672289 
L 179.136 100.680231 
L 170.208 100.681458 
L 161.28 100.638347 
L 152.352 100.540837 
L 143.424 100.531316 
L 134.496 100.519768 
L 125.568 99.660693 
L 116.64 99.186862 
L 107.712 98.783463 
L 98.784 98.755754 
L 89.856 98.460314 
L 80.928 99.988477 
L 72 100.073394 
z
" style="fill:#e377c2;fill-opacity:0.3;"/>
   </g>
   <g id="matplotlib.axis_1">
    <g id="xtick_1">
     <g id="line2d_1">
      <path clip-path="url(#pb8e3d60f6c)" d="M 72 384.48 
L 72 51.84 
" style="fill:none;stroke:#b0b0b0;stroke-linecap:square;stroke-width:0.8;"/>
     </g>
     <g id="line2d_2">
      <defs>
       <path d="M 0 0 
L 0 3.5 
" id="mf65359d5a3" style="stroke:#000000;stroke-width:0.8;"/>
      </defs>
      <g>
       <use style="stroke:#000000;stroke-width:0.8;" x="72" xlink:href="#mf65359d5a3" y="384.48"/>
      </g>
     </g>
     <g id="text_1">
      <!-- 0 -->
      <defs>
       <path d="M 31.78125 66.40625 
Q 24.171875 66.40625 20.328125 58.90625 
Q 16.5 51.421875 16.5 36.375 
Q 16.5 21.390625 20.328125 13.890625 
Q 24.171875 6.390625 31.78125 6.390625 
Q 39.453125 6.390625 43.28125 13.890625 
Q 47.125 21.390625 47.125 36.375 
Q 47.125 51.421875 43.28125 58.90625 
Q 39.453125 66.40625 31.78125 66.40625 
z
M 31.78125 74.21875 
Q 44.046875 74.21875 50.515625 64.515625 
Q 56.984375 54.828125 56.984375 36.375 
Q 56.984375 17.96875 50.515625 8.265625 
Q 44.046875 -1.421875 31.78125 -1.421875 
Q 19.53125 -1.421875 13.0625 8.265625 
Q 6.59375 17.96875 6.59375 36.375 
Q 6.59375 54.828125 13.0625 64.515625 
Q 19.53125 74.21875 31.78125 74.21875 
z
" id="DejaVuSans-48"/>
      </defs>
      <g transform="translate(68.81875 399.078438)scale(0.1 -0.1)">
       <use xlink:href="#DejaVuSans-48"/>
      </g>
     </g>
    </g>
    <g id="xtick_2">
     <g id="line2d_3">
      <path clip-path="url(#pb8e3d60f6c)" d="M 161.28 384.48 
L 161.28 51.84 
" style="fill:none;stroke:#b0b0b0;stroke-linecap:square;stroke-width:0.8;"/>
     </g>
     <g id="line2d_4">
      <g>
       <use style="stroke:#000000;stroke-width:0.8;" x="161.28" xlink:href="#mf65359d5a3" y="384.48"/>
      </g>
     </g>
     <g id="text_2">
      <!-- 10 -->
      <defs>
       <path d="M 12.40625 8.296875 
L 28.515625 8.296875 
L 28.515625 63.921875 
L 10.984375 60.40625 
L 10.984375 69.390625 
L 28.421875 72.90625 
L 38.28125 72.90625 
L 38.28125 8.296875 
L 54.390625 8.296875 
L 54.390625 0 
L 12.40625 0 
z
" id="DejaVuSans-49"/>
      </defs>
      <g transform="translate(154.9175 399.078438)scale(0.1 -0.1)">
       <use xlink:href="#DejaVuSans-49"/>
       <use x="63.623047" xlink:href="#DejaVuSans-48"/>
      </g>
     </g>
    </g>
    <g id="xtick_3">
     <g id="line2d_5">
      <path clip-path="url(#pb8e3d60f6c)" d="M 250.56 384.48 
L 250.56 51.84 
" style="fill:none;stroke:#b0b0b0;stroke-linecap:square;stroke-width:0.8;"/>
     </g>
     <g id="line2d_6">
      <g>
       <use style="stroke:#000000;stroke-width:0.8;" x="250.56" xlink:href="#mf65359d5a3" y="384.48"/>
      </g>
     </g>
     <g id="text_3">
      <!-- 20 -->
      <defs>
       <path d="M 19.1875 8.296875 
L 53.609375 8.296875 
L 53.609375 0 
L 7.328125 0 
L 7.328125 8.296875 
Q 12.9375 14.109375 22.625 23.890625 
Q 32.328125 33.6875 34.8125 36.53125 
Q 39.546875 41.84375 41.421875 45.53125 
Q 43.3125 49.21875 43.3125 52.78125 
Q 43.3125 58.59375 39.234375 62.25 
Q 35.15625 65.921875 28.609375 65.921875 
Q 23.96875 65.921875 18.8125 64.3125 
Q 13.671875 62.703125 7.8125 59.421875 
L 7.8125 69.390625 
Q 13.765625 71.78125 18.9375 73 
Q 24.125 74.21875 28.421875 74.21875 
Q 39.75 74.21875 46.484375 68.546875 
Q 53.21875 62.890625 53.21875 53.421875 
Q 53.21875 48.921875 51.53125 44.890625 
Q 49.859375 40.875 45.40625 35.40625 
Q 44.1875 33.984375 37.640625 27.21875 
Q 31.109375 20.453125 19.1875 8.296875 
z
" id="DejaVuSans-50"/>
      </defs>
      <g transform="translate(244.1975 399.078438)scale(0.1 -0.1)">
       <use xlink:href="#DejaVuSans-50"/>
       <use x="63.623047" xlink:href="#DejaVuSans-48"/>
      </g>
     </g>
    </g>
    <g id="xtick_4">
     <g id="line2d_7">
      <path clip-path="url(#pb8e3d60f6c)" d="M 339.84 384.48 
L 339.84 51.84 
" style="fill:none;stroke:#b0b0b0;stroke-linecap:square;stroke-width:0.8;"/>
     </g>
     <g id="line2d_8">
      <g>
       <use style="stroke:#000000;stroke-width:0.8;" x="339.84" xlink:href="#mf65359d5a3" y="384.48"/>
      </g>
     </g>
     <g id="text_4">
      <!-- 30 -->
      <defs>
       <path d="M 40.578125 39.3125 
Q 47.65625 37.796875 51.625 33 
Q 55.609375 28.21875 55.609375 21.1875 
Q 55.609375 10.40625 48.1875 4.484375 
Q 40.765625 -1.421875 27.09375 -1.421875 
Q 22.515625 -1.421875 17.65625 -0.515625 
Q 12.796875 0.390625 7.625 2.203125 
L 7.625 11.71875 
Q 11.71875 9.328125 16.59375 8.109375 
Q 21.484375 6.890625 26.8125 6.890625 
Q 36.078125 6.890625 40.9375 10.546875 
Q 45.796875 14.203125 45.796875 21.1875 
Q 45.796875 27.640625 41.28125 31.265625 
Q 36.765625 34.90625 28.71875 34.90625 
L 20.21875 34.90625 
L 20.21875 43.015625 
L 29.109375 43.015625 
Q 36.375 43.015625 40.234375 45.921875 
Q 44.09375 48.828125 44.09375 54.296875 
Q 44.09375 59.90625 40.109375 62.90625 
Q 36.140625 65.921875 28.71875 65.921875 
Q 24.65625 65.921875 20.015625 65.03125 
Q 15.375 64.15625 9.8125 62.3125 
L 9.8125 71.09375 
Q 15.4375 72.65625 20.34375 73.4375 
Q 25.25 74.21875 29.59375 74.21875 
Q 40.828125 74.21875 47.359375 69.109375 
Q 53.90625 64.015625 53.90625 55.328125 
Q 53.90625 49.265625 50.4375 45.09375 
Q 46.96875 40.921875 40.578125 39.3125 
z
" id="DejaVuSans-51"/>
      </defs>
      <g transform="translate(333.4775 399.078438)scale(0.1 -0.1)">
       <use xlink:href="#DejaVuSans-51"/>
       <use x="63.623047" xlink:href="#DejaVuSans-48"/>
      </g>
     </g>
    </g>
    <g id="xtick_5">
     <g id="line2d_9">
      <path clip-path="url(#pb8e3d60f6c)" d="M 429.12 384.48 
L 429.12 51.84 
" style="fill:none;stroke:#b0b0b0;stroke-linecap:square;stroke-width:0.8;"/>
     </g>
     <g id="line2d_10">
      <g>
       <use style="stroke:#000000;stroke-width:0.8;" x="429.12" xlink:href="#mf65359d5a3" y="384.48"/>
      </g>
     </g>
     <g id="text_5">
      <!-- 40 -->
      <defs>
       <path d="M 37.796875 64.3125 
L 12.890625 25.390625 
L 37.796875 25.390625 
z
M 35.203125 72.90625 
L 47.609375 72.90625 
L 47.609375 25.390625 
L 58.015625 25.390625 
L 58.015625 17.1875 
L 47.609375 17.1875 
L 47.609375 0 
L 37.796875 0 
L 37.796875 17.1875 
L 4.890625 17.1875 
L 4.890625 26.703125 
z
" id="DejaVuSans-52"/>
      </defs>
      <g transform="translate(422.7575 399.078438)scale(0.1 -0.1)">
       <use xlink:href="#DejaVuSans-52"/>
       <use x="63.623047" xlink:href="#DejaVuSans-48"/>
      </g>
     </g>
    </g>
    <g id="xtick_6">
     <g id="line2d_11">
      <path clip-path="url(#pb8e3d60f6c)" d="M 518.4 384.48 
L 518.4 51.84 
" style="fill:none;stroke:#b0b0b0;stroke-linecap:square;stroke-width:0.8;"/>
     </g>
     <g id="line2d_12">
      <g>
       <use style="stroke:#000000;stroke-width:0.8;" x="518.4" xlink:href="#mf65359d5a3" y="384.48"/>
      </g>
     </g>
     <g id="text_6">
      <!-- 50 -->
      <defs>
       <path d="M 10.796875 72.90625 
L 49.515625 72.90625 
L 49.515625 64.59375 
L 19.828125 64.59375 
L 19.828125 46.734375 
Q 21.96875 47.46875 24.109375 47.828125 
Q 26.265625 48.1875 28.421875 48.1875 
Q 40.625 48.1875 47.75 41.5 
Q 54.890625 34.8125 54.890625 23.390625 
Q 54.890625 11.625 47.5625 5.09375 
Q 40.234375 -1.421875 26.90625 -1.421875 
Q 22.3125 -1.421875 17.546875 -0.640625 
Q 12.796875 0.140625 7.71875 1.703125 
L 7.71875 11.625 
Q 12.109375 9.234375 16.796875 8.0625 
Q 21.484375 6.890625 26.703125 6.890625 
Q 35.15625 6.890625 40.078125 11.328125 
Q 45.015625 15.765625 45.015625 23.390625 
Q 45.015625 31 40.078125 35.4375 
Q 35.15625 39.890625 26.703125 39.890625 
Q 22.75 39.890625 18.8125 39.015625 
Q 14.890625 38.140625 10.796875 36.28125 
z
" id="DejaVuSans-53"/>
      </defs>
      <g transform="translate(512.0375 399.078438)scale(0.1 -0.1)">
       <use xlink:href="#DejaVuSans-53"/>
       <use x="63.623047" xlink:href="#DejaVuSans-48"/>
      </g>
     </g>
    </g>
    <g id="text_7">
     <!-- Iteration -->
     <defs>
      <path d="M 9.8125 72.90625 
L 19.671875 72.90625 
L 19.671875 0 
L 9.8125 0 
z
" id="DejaVuSans-73"/>
      <path d="M 18.3125 70.21875 
L 18.3125 54.6875 
L 36.8125 54.6875 
L 36.8125 47.703125 
L 18.3125 47.703125 
L 18.3125 18.015625 
Q 18.3125 11.328125 20.140625 9.421875 
Q 21.96875 7.515625 27.59375 7.515625 
L 36.8125 7.515625 
L 36.8125 0 
L 27.59375 0 
Q 17.1875 0 13.234375 3.875 
Q 9.28125 7.765625 9.28125 18.015625 
L 9.28125 47.703125 
L 2.6875 47.703125 
L 2.6875 54.6875 
L 9.28125 54.6875 
L 9.28125 70.21875 
z
" id="DejaVuSans-116"/>
      <path d="M 56.203125 29.59375 
L 56.203125 25.203125 
L 14.890625 25.203125 
Q 15.484375 15.921875 20.484375 11.0625 
Q 25.484375 6.203125 34.421875 6.203125 
Q 39.59375 6.203125 44.453125 7.46875 
Q 49.3125 8.734375 54.109375 11.28125 
L 54.109375 2.78125 
Q 49.265625 0.734375 44.1875 -0.34375 
Q 39.109375 -1.421875 33.890625 -1.421875 
Q 20.796875 -1.421875 13.15625 6.1875 
Q 5.515625 13.8125 5.515625 26.8125 
Q 5.515625 40.234375 12.765625 48.109375 
Q 20.015625 56 32.328125 56 
Q 43.359375 56 49.78125 48.890625 
Q 56.203125 41.796875 56.203125 29.59375 
z
M 47.21875 32.234375 
Q 47.125 39.59375 43.09375 43.984375 
Q 39.0625 48.390625 32.421875 48.390625 
Q 24.90625 48.390625 20.390625 44.140625 
Q 15.875 39.890625 15.1875 32.171875 
z
" id="DejaVuSans-101"/>
      <path d="M 41.109375 46.296875 
Q 39.59375 47.171875 37.8125 47.578125 
Q 36.03125 48 33.890625 48 
Q 26.265625 48 22.1875 43.046875 
Q 18.109375 38.09375 18.109375 28.8125 
L 18.109375 0 
L 9.078125 0 
L 9.078125 54.6875 
L 18.109375 54.6875 
L 18.109375 46.1875 
Q 20.953125 51.171875 25.484375 53.578125 
Q 30.03125 56 36.53125 56 
Q 37.453125 56 38.578125 55.875 
Q 39.703125 55.765625 41.0625 55.515625 
z
" id="DejaVuSans-114"/>
      <path d="M 34.28125 27.484375 
Q 23.390625 27.484375 19.1875 25 
Q 14.984375 22.515625 14.984375 16.5 
Q 14.984375 11.71875 18.140625 8.90625 
Q 21.296875 6.109375 26.703125 6.109375 
Q 34.1875 6.109375 38.703125 11.40625 
Q 43.21875 16.703125 43.21875 25.484375 
L 43.21875 27.484375 
z
M 52.203125 31.203125 
L 52.203125 0 
L 43.21875 0 
L 43.21875 8.296875 
Q 40.140625 3.328125 35.546875 0.953125 
Q 30.953125 -1.421875 24.3125 -1.421875 
Q 15.921875 -1.421875 10.953125 3.296875 
Q 6 8.015625 6 15.921875 
Q 6 25.140625 12.171875 29.828125 
Q 18.359375 34.515625 30.609375 34.515625 
L 43.21875 34.515625 
L 43.21875 35.40625 
Q 43.21875 41.609375 39.140625 45 
Q 35.0625 48.390625 27.6875 48.390625 
Q 23 48.390625 18.546875 47.265625 
Q 14.109375 46.140625 10.015625 43.890625 
L 10.015625 52.203125 
Q 14.9375 54.109375 19.578125 55.046875 
Q 24.21875 56 28.609375 56 
Q 40.484375 56 46.34375 49.84375 
Q 52.203125 43.703125 52.203125 31.203125 
z
" id="DejaVuSans-97"/>
      <path d="M 9.421875 54.6875 
L 18.40625 54.6875 
L 18.40625 0 
L 9.421875 0 
z
M 9.421875 75.984375 
L 18.40625 75.984375 
L 18.40625 64.59375 
L 9.421875 64.59375 
z
" id="DejaVuSans-105"/>
      <path d="M 30.609375 48.390625 
Q 23.390625 48.390625 19.1875 42.75 
Q 14.984375 37.109375 14.984375 27.296875 
Q 14.984375 17.484375 19.15625 11.84375 
Q 23.34375 6.203125 30.609375 6.203125 
Q 37.796875 6.203125 41.984375 11.859375 
Q 46.1875 17.53125 46.1875 27.296875 
Q 46.1875 37.015625 41.984375 42.703125 
Q 37.796875 48.390625 30.609375 48.390625 
z
M 30.609375 56 
Q 42.328125 56 49.015625 48.375 
Q 55.71875 40.765625 55.71875 27.296875 
Q 55.71875 13.875 49.015625 6.21875 
Q 42.328125 -1.421875 30.609375 -1.421875 
Q 18.84375 -1.421875 12.171875 6.21875 
Q 5.515625 13.875 5.515625 27.296875 
Q 5.515625 40.765625 12.171875 48.375 
Q 18.84375 56 30.609375 56 
z
" id="DejaVuSans-111"/>
      <path d="M 54.890625 33.015625 
L 54.890625 0 
L 45.90625 0 
L 45.90625 32.71875 
Q 45.90625 40.484375 42.875 44.328125 
Q 39.84375 48.1875 33.796875 48.1875 
Q 26.515625 48.1875 22.3125 43.546875 
Q 18.109375 38.921875 18.109375 30.90625 
L 18.109375 0 
L 9.078125 0 
L 9.078125 54.6875 
L 18.109375 54.6875 
L 18.109375 46.1875 
Q 21.34375 51.125 25.703125 53.5625 
Q 30.078125 56 35.796875 56 
Q 45.21875 56 50.046875 50.171875 
Q 54.890625 44.34375 54.890625 33.015625 
z
" id="DejaVuSans-110"/>
     </defs>
     <g transform="translate(273.991406 412.756563)scale(0.1 -0.1)">
      <use xlink:href="#DejaVuSans-73"/>
      <use x="29.492188" xlink:href="#DejaVuSans-116"/>
      <use x="68.701172" xlink:href="#DejaVuSans-101"/>
      <use x="130.224609" xlink:href="#DejaVuSans-114"/>
      <use x="171.337891" xlink:href="#DejaVuSans-97"/>
      <use x="232.617188" xlink:href="#DejaVuSans-116"/>
      <use x="271.826172" xlink:href="#DejaVuSans-105"/>
      <use x="299.609375" xlink:href="#DejaVuSans-111"/>
      <use x="360.791016" xlink:href="#DejaVuSans-110"/>
     </g>
    </g>
   </g>
   <g id="matplotlib.axis_2">
    <g id="ytick_1">
     <g id="line2d_13">
      <path clip-path="url(#pb8e3d60f6c)" d="M 72 384.48 
L 518.4 384.48 
" style="fill:none;stroke:#b0b0b0;stroke-linecap:square;stroke-width:0.8;"/>
     </g>
     <g id="line2d_14">
      <defs>
       <path d="M 0 0 
L -3.5 0 
" id="m9ce6920291" style="stroke:#000000;stroke-width:0.8;"/>
      </defs>
      <g>
       <use style="stroke:#000000;stroke-width:0.8;" x="72" xlink:href="#m9ce6920291" y="384.48"/>
      </g>
     </g>
     <g id="text_8">
      <!-- $\mathdefault{10^{-12}}$ -->
      <defs>
       <path d="M 10.59375 35.5 
L 73.1875 35.5 
L 73.1875 27.203125 
L 10.59375 27.203125 
z
" id="DejaVuSans-8722"/>
      </defs>
      <g transform="translate(37.1 388.279219)scale(0.1 -0.1)">
       <use transform="translate(0 0.765625)" xlink:href="#DejaVuSans-49"/>
       <use transform="translate(63.623047 0.765625)" xlink:href="#DejaVuSans-48"/>
       <use transform="translate(128.203125 39.046875)scale(0.7)" xlink:href="#DejaVuSans-8722"/>
       <use transform="translate(186.855469 39.046875)scale(0.7)" xlink:href="#DejaVuSans-49"/>
       <use transform="translate(231.391602 39.046875)scale(0.7)" xlink:href="#DejaVuSans-50"/>
      </g>
     </g>
    </g>
    <g id="ytick_2">
     <g id="line2d_15">
      <path clip-path="url(#pb8e3d60f6c)" d="M 72 336.96 
L 518.4 336.96 
" style="fill:none;stroke:#b0b0b0;stroke-linecap:square;stroke-width:0.8;"/>
     </g>
     <g id="line2d_16">
      <g>
       <use style="stroke:#000000;stroke-width:0.8;" x="72" xlink:href="#m9ce6920291" y="336.96"/>
      </g>
     </g>
     <g id="text_9">
      <!-- $\mathdefault{10^{-10}}$ -->
      <g transform="translate(37.1 340.759219)scale(0.1 -0.1)">
       <use transform="translate(0 0.765625)" xlink:href="#DejaVuSans-49"/>
       <use transform="translate(63.623047 0.765625)" xlink:href="#DejaVuSans-48"/>
       <use transform="translate(128.203125 39.046875)scale(0.7)" xlink:href="#DejaVuSans-8722"/>
       <use transform="translate(186.855469 39.046875)scale(0.7)" xlink:href="#DejaVuSans-49"/>
       <use transform="translate(231.391602 39.046875)scale(0.7)" xlink:href="#DejaVuSans-48"/>
      </g>
     </g>
    </g>
    <g id="ytick_3">
     <g id="line2d_17">
      <path clip-path="url(#pb8e3d60f6c)" d="M 72 289.44 
L 518.4 289.44 
" style="fill:none;stroke:#b0b0b0;stroke-linecap:square;stroke-width:0.8;"/>
     </g>
     <g id="line2d_18">
      <g>
       <use style="stroke:#000000;stroke-width:0.8;" x="72" xlink:href="#m9ce6920291" y="289.44"/>
      </g>
     </g>
     <g id="text_10">
      <!-- $\mathdefault{10^{-8}}$ -->
      <defs>
       <path d="M 31.78125 34.625 
Q 24.75 34.625 20.71875 30.859375 
Q 16.703125 27.09375 16.703125 20.515625 
Q 16.703125 13.921875 20.71875 10.15625 
Q 24.75 6.390625 31.78125 6.390625 
Q 38.8125 6.390625 42.859375 10.171875 
Q 46.921875 13.96875 46.921875 20.515625 
Q 46.921875 27.09375 42.890625 30.859375 
Q 38.875 34.625 31.78125 34.625 
z
M 21.921875 38.8125 
Q 15.578125 40.375 12.03125 44.71875 
Q 8.5 49.078125 8.5 55.328125 
Q 8.5 64.0625 14.71875 69.140625 
Q 20.953125 74.21875 31.78125 74.21875 
Q 42.671875 74.21875 48.875 69.140625 
Q 55.078125 64.0625 55.078125 55.328125 
Q 55.078125 49.078125 51.53125 44.71875 
Q 48 40.375 41.703125 38.8125 
Q 48.828125 37.15625 52.796875 32.3125 
Q 56.78125 27.484375 56.78125 20.515625 
Q 56.78125 9.90625 50.3125 4.234375 
Q 43.84375 -1.421875 31.78125 -1.421875 
Q 19.734375 -1.421875 13.25 4.234375 
Q 6.78125 9.90625 6.78125 20.515625 
Q 6.78125 27.484375 10.78125 32.3125 
Q 14.796875 37.15625 21.921875 38.8125 
z
M 18.3125 54.390625 
Q 18.3125 48.734375 21.84375 45.5625 
Q 25.390625 42.390625 31.78125 42.390625 
Q 38.140625 42.390625 41.71875 45.5625 
Q 45.3125 48.734375 45.3125 54.390625 
Q 45.3125 60.0625 41.71875 63.234375 
Q 38.140625 66.40625 31.78125 66.40625 
Q 25.390625 66.40625 21.84375 63.234375 
Q 18.3125 60.0625 18.3125 54.390625 
z
" id="DejaVuSans-56"/>
      </defs>
      <g transform="translate(41.5 293.239219)scale(0.1 -0.1)">
       <use transform="translate(0 0.765625)" xlink:href="#DejaVuSans-49"/>
       <use transform="translate(63.623047 0.765625)" xlink:href="#DejaVuSans-48"/>
       <use transform="translate(128.203125 39.046875)scale(0.7)" xlink:href="#DejaVuSans-8722"/>
       <use transform="translate(186.855469 39.046875)scale(0.7)" xlink:href="#DejaVuSans-56"/>
      </g>
     </g>
    </g>
    <g id="ytick_4">
     <g id="line2d_19">
      <path clip-path="url(#pb8e3d60f6c)" d="M 72 241.92 
L 518.4 241.92 
" style="fill:none;stroke:#b0b0b0;stroke-linecap:square;stroke-width:0.8;"/>
     </g>
     <g id="line2d_20">
      <g>
       <use style="stroke:#000000;stroke-width:0.8;" x="72" xlink:href="#m9ce6920291" y="241.92"/>
      </g>
     </g>
     <g id="text_11">
      <!-- $\mathdefault{10^{-6}}$ -->
      <defs>
       <path d="M 33.015625 40.375 
Q 26.375 40.375 22.484375 35.828125 
Q 18.609375 31.296875 18.609375 23.390625 
Q 18.609375 15.53125 22.484375 10.953125 
Q 26.375 6.390625 33.015625 6.390625 
Q 39.65625 6.390625 43.53125 10.953125 
Q 47.40625 15.53125 47.40625 23.390625 
Q 47.40625 31.296875 43.53125 35.828125 
Q 39.65625 40.375 33.015625 40.375 
z
M 52.59375 71.296875 
L 52.59375 62.3125 
Q 48.875 64.0625 45.09375 64.984375 
Q 41.3125 65.921875 37.59375 65.921875 
Q 27.828125 65.921875 22.671875 59.328125 
Q 17.53125 52.734375 16.796875 39.40625 
Q 19.671875 43.65625 24.015625 45.921875 
Q 28.375 48.1875 33.59375 48.1875 
Q 44.578125 48.1875 50.953125 41.515625 
Q 57.328125 34.859375 57.328125 23.390625 
Q 57.328125 12.15625 50.6875 5.359375 
Q 44.046875 -1.421875 33.015625 -1.421875 
Q 20.359375 -1.421875 13.671875 8.265625 
Q 6.984375 17.96875 6.984375 36.375 
Q 6.984375 53.65625 15.1875 63.9375 
Q 23.390625 74.21875 37.203125 74.21875 
Q 40.921875 74.21875 44.703125 73.484375 
Q 48.484375 72.75 52.59375 71.296875 
z
" id="DejaVuSans-54"/>
      </defs>
      <g transform="translate(41.5 245.719219)scale(0.1 -0.1)">
       <use transform="translate(0 0.765625)" xlink:href="#DejaVuSans-49"/>
       <use transform="translate(63.623047 0.765625)" xlink:href="#DejaVuSans-48"/>
       <use transform="translate(128.203125 39.046875)scale(0.7)" xlink:href="#DejaVuSans-8722"/>
       <use transform="translate(186.855469 39.046875)scale(0.7)" xlink:href="#DejaVuSans-54"/>
      </g>
     </g>
    </g>
    <g id="ytick_5">
     <g id="line2d_21">
      <path clip-path="url(#pb8e3d60f6c)" d="M 72 194.4 
L 518.4 194.4 
" style="fill:none;stroke:#b0b0b0;stroke-linecap:square;stroke-width:0.8;"/>
     </g>
     <g id="line2d_22">
      <g>
       <use style="stroke:#000000;stroke-width:0.8;" x="72" xlink:href="#m9ce6920291" y="194.4"/>
      </g>
     </g>
     <g id="text_12">
      <!-- $\mathdefault{10^{-4}}$ -->
      <g transform="translate(41.5 198.199219)scale(0.1 -0.1)">
       <use transform="translate(0 0.684375)" xlink:href="#DejaVuSans-49"/>
       <use transform="translate(63.623047 0.684375)" xlink:href="#DejaVuSans-48"/>
       <use transform="translate(128.203125 38.965625)scale(0.7)" xlink:href="#DejaVuSans-8722"/>
       <use transform="translate(186.855469 38.965625)scale(0.7)" xlink:href="#DejaVuSans-52"/>
      </g>
     </g>
    </g>
    <g id="ytick_6">
     <g id="line2d_23">
      <path clip-path="url(#pb8e3d60f6c)" d="M 72 146.88 
L 518.4 146.88 
" style="fill:none;stroke:#b0b0b0;stroke-linecap:square;stroke-width:0.8;"/>
     </g>
     <g id="line2d_24">
      <g>
       <use style="stroke:#000000;stroke-width:0.8;" x="72" xlink:href="#m9ce6920291" y="146.88"/>
      </g>
     </g>
     <g id="text_13">
      <!-- $\mathdefault{10^{-2}}$ -->
      <g transform="translate(41.5 150.679219)scale(0.1 -0.1)">
       <use transform="translate(0 0.765625)" xlink:href="#DejaVuSans-49"/>
       <use transform="translate(63.623047 0.765625)" xlink:href="#DejaVuSans-48"/>
       <use transform="translate(128.203125 39.046875)scale(0.7)" xlink:href="#DejaVuSans-8722"/>
       <use transform="translate(186.855469 39.046875)scale(0.7)" xlink:href="#DejaVuSans-50"/>
      </g>
     </g>
    </g>
    <g id="ytick_7">
     <g id="line2d_25">
      <path clip-path="url(#pb8e3d60f6c)" d="M 72 99.36 
L 518.4 99.36 
" style="fill:none;stroke:#b0b0b0;stroke-linecap:square;stroke-width:0.8;"/>
     </g>
     <g id="line2d_26">
      <g>
       <use style="stroke:#000000;stroke-width:0.8;" x="72" xlink:href="#m9ce6920291" y="99.36"/>
      </g>
     </g>
     <g id="text_14">
      <!-- $\mathdefault{10^{0}}$ -->
      <g transform="translate(47.4 103.159219)scale(0.1 -0.1)">
       <use transform="translate(0 0.765625)" xlink:href="#DejaVuSans-49"/>
       <use transform="translate(63.623047 0.765625)" xlink:href="#DejaVuSans-48"/>
       <use transform="translate(128.203125 39.046875)scale(0.7)" xlink:href="#DejaVuSans-48"/>
      </g>
     </g>
    </g>
    <g id="ytick_8">
     <g id="line2d_27">
      <path clip-path="url(#pb8e3d60f6c)" d="M 72 51.84 
L 518.4 51.84 
" style="fill:none;stroke:#b0b0b0;stroke-linecap:square;stroke-width:0.8;"/>
     </g>
     <g id="line2d_28">
      <g>
       <use style="stroke:#000000;stroke-width:0.8;" x="72" xlink:href="#m9ce6920291" y="51.84"/>
      </g>
     </g>
     <g id="text_15">
      <!-- $\mathdefault{10^{2}}$ -->
      <g transform="translate(47.4 55.639219)scale(0.1 -0.1)">
       <use transform="translate(0 0.765625)" xlink:href="#DejaVuSans-49"/>
       <use transform="translate(63.623047 0.765625)" xlink:href="#DejaVuSans-48"/>
       <use transform="translate(128.203125 39.046875)scale(0.7)" xlink:href="#DejaVuSans-50"/>
      </g>
     </g>
    </g>
    <g id="text_16">
     <!-- Integrated Squared Error -->
     <defs>
      <path d="M 45.40625 27.984375 
Q 45.40625 37.75 41.375 43.109375 
Q 37.359375 48.484375 30.078125 48.484375 
Q 22.859375 48.484375 18.828125 43.109375 
Q 14.796875 37.75 14.796875 27.984375 
Q 14.796875 18.265625 18.828125 12.890625 
Q 22.859375 7.515625 30.078125 7.515625 
Q 37.359375 7.515625 41.375 12.890625 
Q 45.40625 18.265625 45.40625 27.984375 
z
M 54.390625 6.78125 
Q 54.390625 -7.171875 48.1875 -13.984375 
Q 42 -20.796875 29.203125 -20.796875 
Q 24.46875 -20.796875 20.265625 -20.09375 
Q 16.0625 -19.390625 12.109375 -17.921875 
L 12.109375 -9.1875 
Q 16.0625 -11.328125 19.921875 -12.34375 
Q 23.78125 -13.375 27.78125 -13.375 
Q 36.625 -13.375 41.015625 -8.765625 
Q 45.40625 -4.15625 45.40625 5.171875 
L 45.40625 9.625 
Q 42.625 4.78125 38.28125 2.390625 
Q 33.9375 0 27.875 0 
Q 17.828125 0 11.671875 7.65625 
Q 5.515625 15.328125 5.515625 27.984375 
Q 5.515625 40.671875 11.671875 48.328125 
Q 17.828125 56 27.875 56 
Q 33.9375 56 38.28125 53.609375 
Q 42.625 51.21875 45.40625 46.390625 
L 45.40625 54.6875 
L 54.390625 54.6875 
z
" id="DejaVuSans-103"/>
      <path d="M 45.40625 46.390625 
L 45.40625 75.984375 
L 54.390625 75.984375 
L 54.390625 0 
L 45.40625 0 
L 45.40625 8.203125 
Q 42.578125 3.328125 38.25 0.953125 
Q 33.9375 -1.421875 27.875 -1.421875 
Q 17.96875 -1.421875 11.734375 6.484375 
Q 5.515625 14.40625 5.515625 27.296875 
Q 5.515625 40.1875 11.734375 48.09375 
Q 17.96875 56 27.875 56 
Q 33.9375 56 38.25 53.625 
Q 42.578125 51.265625 45.40625 46.390625 
z
M 14.796875 27.296875 
Q 14.796875 17.390625 18.875 11.75 
Q 22.953125 6.109375 30.078125 6.109375 
Q 37.203125 6.109375 41.296875 11.75 
Q 45.40625 17.390625 45.40625 27.296875 
Q 45.40625 37.203125 41.296875 42.84375 
Q 37.203125 48.484375 30.078125 48.484375 
Q 22.953125 48.484375 18.875 42.84375 
Q 14.796875 37.203125 14.796875 27.296875 
z
" id="DejaVuSans-100"/>
      <path id="DejaVuSans-32"/>
      <path d="M 53.515625 70.515625 
L 53.515625 60.890625 
Q 47.90625 63.578125 42.921875 64.890625 
Q 37.9375 66.21875 33.296875 66.21875 
Q 25.25 66.21875 20.875 63.09375 
Q 16.5 59.96875 16.5 54.203125 
Q 16.5 49.359375 19.40625 46.890625 
Q 22.3125 44.4375 30.421875 42.921875 
L 36.375 41.703125 
Q 47.40625 39.59375 52.65625 34.296875 
Q 57.90625 29 57.90625 20.125 
Q 57.90625 9.515625 50.796875 4.046875 
Q 43.703125 -1.421875 29.984375 -1.421875 
Q 24.8125 -1.421875 18.96875 -0.25 
Q 13.140625 0.921875 6.890625 3.21875 
L 6.890625 13.375 
Q 12.890625 10.015625 18.65625 8.296875 
Q 24.421875 6.59375 29.984375 6.59375 
Q 38.421875 6.59375 43.015625 9.90625 
Q 47.609375 13.234375 47.609375 19.390625 
Q 47.609375 24.75 44.3125 27.78125 
Q 41.015625 30.8125 33.5 32.328125 
L 27.484375 33.5 
Q 16.453125 35.6875 11.515625 40.375 
Q 6.59375 45.0625 6.59375 53.421875 
Q 6.59375 63.09375 13.40625 68.65625 
Q 20.21875 74.21875 32.171875 74.21875 
Q 37.3125 74.21875 42.625 73.28125 
Q 47.953125 72.359375 53.515625 70.515625 
z
" id="DejaVuSans-83"/>
      <path d="M 14.796875 27.296875 
Q 14.796875 17.390625 18.875 11.75 
Q 22.953125 6.109375 30.078125 6.109375 
Q 37.203125 6.109375 41.296875 11.75 
Q 45.40625 17.390625 45.40625 27.296875 
Q 45.40625 37.203125 41.296875 42.84375 
Q 37.203125 48.484375 30.078125 48.484375 
Q 22.953125 48.484375 18.875 42.84375 
Q 14.796875 37.203125 14.796875 27.296875 
z
M 45.40625 8.203125 
Q 42.578125 3.328125 38.25 0.953125 
Q 33.9375 -1.421875 27.875 -1.421875 
Q 17.96875 -1.421875 11.734375 6.484375 
Q 5.515625 14.40625 5.515625 27.296875 
Q 5.515625 40.1875 11.734375 48.09375 
Q 17.96875 56 27.875 56 
Q 33.9375 56 38.25 53.625 
Q 42.578125 51.265625 45.40625 46.390625 
L 45.40625 54.6875 
L 54.390625 54.6875 
L 54.390625 -20.796875 
L 45.40625 -20.796875 
z
" id="DejaVuSans-113"/>
      <path d="M 8.5 21.578125 
L 8.5 54.6875 
L 17.484375 54.6875 
L 17.484375 21.921875 
Q 17.484375 14.15625 20.5 10.265625 
Q 23.53125 6.390625 29.59375 6.390625 
Q 36.859375 6.390625 41.078125 11.03125 
Q 45.3125 15.671875 45.3125 23.6875 
L 45.3125 54.6875 
L 54.296875 54.6875 
L 54.296875 0 
L 45.3125 0 
L 45.3125 8.40625 
Q 42.046875 3.421875 37.71875 1 
Q 33.40625 -1.421875 27.6875 -1.421875 
Q 18.265625 -1.421875 13.375 4.4375 
Q 8.5 10.296875 8.5 21.578125 
z
M 31.109375 56 
z
" id="DejaVuSans-117"/>
      <path d="M 9.8125 72.90625 
L 55.90625 72.90625 
L 55.90625 64.59375 
L 19.671875 64.59375 
L 19.671875 43.015625 
L 54.390625 43.015625 
L 54.390625 34.71875 
L 19.671875 34.71875 
L 19.671875 8.296875 
L 56.78125 8.296875 
L 56.78125 0 
L 9.8125 0 
z
" id="DejaVuSans-69"/>
     </defs>
     <g transform="translate(31.020312 280.483437)rotate(-90)scale(0.1 -0.1)">
      <use xlink:href="#DejaVuSans-73"/>
      <use x="29.492188" xlink:href="#DejaVuSans-110"/>
      <use x="92.871094" xlink:href="#DejaVuSans-116"/>
      <use x="132.080078" xlink:href="#DejaVuSans-101"/>
      <use x="193.603516" xlink:href="#DejaVuSans-103"/>
      <use x="257.080078" xlink:href="#DejaVuSans-114"/>
      <use x="298.193359" xlink:href="#DejaVuSans-97"/>
      <use x="359.472656" xlink:href="#DejaVuSans-116"/>
      <use x="398.681641" xlink:href="#DejaVuSans-101"/>
      <use x="460.205078" xlink:href="#DejaVuSans-100"/>
      <use x="523.681641" xlink:href="#DejaVuSans-32"/>
      <use x="555.46875" xlink:href="#DejaVuSans-83"/>
      <use x="618.945312" xlink:href="#DejaVuSans-113"/>
      <use x="682.421875" xlink:href="#DejaVuSans-117"/>
      <use x="745.800781" xlink:href="#DejaVuSans-97"/>
      <use x="807.080078" xlink:href="#DejaVuSans-114"/>
      <use x="845.943359" xlink:href="#DejaVuSans-101"/>
      <use x="907.466797" xlink:href="#DejaVuSans-100"/>
      <use x="970.943359" xlink:href="#DejaVuSans-32"/>
      <use x="1002.730469" xlink:href="#DejaVuSans-69"/>
      <use x="1065.914062" xlink:href="#DejaVuSans-114"/>
      <use x="1105.277344" xlink:href="#DejaVuSans-114"/>
      <use x="1144.140625" xlink:href="#DejaVuSans-111"/>
      <use x="1205.322266" xlink:href="#DejaVuSans-114"/>
     </g>
    </g>
   </g>
   <g id="line2d_29">
    <path clip-path="url(#pb8e3d60f6c)" d="M 72 99.188373 
L 80.928 99.31885 
L 89.856 97.021302 
L 98.784 96.846601 
L 107.712 98.11323 
L 116.64 97.52944 
L 125.568 97.884123 
L 134.496 98.593644 
L 143.424 99.45546 
L 152.352 99.551152 
L 161.28 99.849196 
L 170.208 98.926199 
L 179.136 99.70483 
L 188.064 99.321357 
L 196.992 97.666415 
L 205.92 99.511416 
L 214.848 99.065359 
L 223.776 98.551673 
L 232.704 98.25501 
L 241.632 98.361507 
L 250.56 98.285404 
L 259.488 98.556806 
L 268.416 98.774379 
L 277.344 98.222773 
L 286.272 98.093357 
L 295.2 96.52008 
L 304.128 99.531369 
L 313.056 97.668892 
L 321.984 96.213733 
L 330.912 96.931136 
L 339.84 96.505782 
L 348.768 99.445779 
L 357.696 98.403737 
L 366.624 97.806344 
L 375.552 98.681885 
L 384.48 98.36594 
L 393.408 99.450844 
L 402.336 98.786059 
L 411.264 99.263889 
L 420.192 99.742448 
L 429.12 99.251435 
L 438.048 99.656895 
L 446.976 99.155787 
L 455.904 99.27244 
L 464.832 99.225638 
L 473.76 99.167146 
L 482.688 99.446534 
L 491.616 100.062472 
L 500.544 100.060834 
L 509.472 100.040851 
L 518.4 100.042563 
" style="fill:none;stroke:#1f77b4;stroke-linecap:square;stroke-width:1.5;"/>
   </g>
   <g id="line2d_30">
    <path clip-path="url(#pb8e3d60f6c)" d="M 72 98.844023 
L 80.928 99.414526 
L 89.856 89.278423 
L 98.784 89.486736 
L 107.712 89.383061 
L 116.64 89.487384 
L 125.568 95.288042 
L 134.496 97.207916 
L 143.424 95.673714 
L 152.352 94.165329 
L 161.28 94.321694 
L 170.208 112.461053 
L 179.136 110.299333 
L 188.064 109.492038 
L 196.992 119.24744 
L 205.92 127.460497 
L 214.848 129.940847 
L 223.776 130.394839 
L 232.704 146.318809 
L 241.632 157.510419 
L 250.56 164.609643 
L 259.488 173.25624 
L 268.416 178.547479 
L 277.344 182.161364 
L 286.272 181.219367 
L 295.2 182.694179 
L 304.128 182.688641 
L 313.056 185.335975 
L 321.984 185.504635 
L 330.912 186.450078 
L 339.84 252.047947 
L 348.768 266.040176 
L 357.696 268.040364 
L 366.624 277.999056 
L 375.552 279.084744 
L 384.48 279.284389 
L 393.408 280.283667 
L 402.336 280.128908 
L 411.264 282.961275 
L 420.192 282.911778 
L 429.12 282.85459 
L 438.048 286.685021 
L 446.976 286.654124 
L 455.904 286.685854 
L 464.832 286.655829 
L 473.76 286.625315 
L 482.688 292.582373 
L 491.616 296.8782 
L 500.544 296.860091 
L 509.472 296.85271 
L 518.4 296.84599 
" style="fill:none;stroke:#ff7f0e;stroke-linecap:square;stroke-width:1.5;"/>
   </g>
   <g id="line2d_31">
    <path clip-path="url(#pb8e3d60f6c)" d="M 72 99.989255 
L 80.928 98.587859 
L 89.856 92.795513 
L 98.784 94.831976 
L 107.712 94.706959 
L 116.64 94.719939 
L 125.568 99.262865 
L 134.496 106.271031 
L 143.424 106.279673 
L 152.352 106.275819 
L 161.28 106.525513 
L 170.208 128.038354 
L 179.136 128.114774 
L 188.064 128.322718 
L 196.992 130.480399 
L 205.92 131.110336 
L 214.848 131.169532 
L 223.776 131.193322 
L 232.704 131.43233 
L 241.632 132.71915 
L 250.56 132.835764 
L 259.488 133.130044 
L 268.416 133.75617 
L 277.344 134.064928 
L 286.272 134.158734 
L 295.2 134.191852 
L 304.128 135.074665 
L 313.056 135.932474 
L 321.984 136.230397 
L 330.912 137.307006 
L 339.84 139.805057 
L 348.768 139.826987 
L 357.696 139.82812 
L 366.624 139.828902 
L 375.552 140.822688 
L 384.48 141.123046 
L 393.408 141.142979 
L 402.336 141.193757 
L 411.264 142.33543 
L 420.192 145.042482 
L 429.12 145.077923 
L 438.048 145.093865 
L 446.976 145.234756 
L 455.904 145.922287 
L 464.832 145.935967 
L 473.76 145.978854 
L 482.688 146.080805 
L 491.616 146.587605 
L 500.544 146.720621 
L 509.472 146.764459 
L 518.4 148.858749 
" style="fill:none;stroke:#2ca02c;stroke-linecap:square;stroke-width:1.5;"/>
   </g>
   <g id="line2d_32">
    <path clip-path="url(#pb8e3d60f6c)" d="M 72 99.518074 
L 80.928 99.610901 
L 89.856 91.424327 
L 98.784 91.384331 
L 107.712 90.619121 
L 116.64 89.896992 
L 125.568 96.778141 
L 134.496 101.14356 
L 143.424 100.752573 
L 152.352 100.322021 
L 161.28 100.417311 
L 170.208 122.09908 
L 179.136 121.649183 
L 188.064 121.303031 
L 196.992 129.075919 
L 205.92 132.809338 
L 214.848 133.082105 
L 223.776 133.112904 
L 232.704 135.474416 
L 241.632 143.0835 
L 250.56 143.789026 
L 259.488 146.178523 
L 268.416 146.738509 
L 277.344 147.613746 
L 286.272 147.886446 
L 295.2 147.992393 
L 304.128 151.694684 
L 313.056 151.809311 
L 321.984 152.589514 
L 330.912 155.768402 
L 339.84 182.827342 
L 348.768 183.025248 
L 357.696 183.075673 
L 366.624 183.112097 
L 375.552 184.251202 
L 384.48 184.771287 
L 393.408 184.845787 
L 402.336 185.003116 
L 411.264 185.202954 
L 420.192 187.55434 
L 429.12 187.721581 
L 438.048 187.837849 
L 446.976 188.240676 
L 455.904 192.086875 
L 464.832 192.228859 
L 473.76 192.647921 
L 482.688 192.680642 
L 491.616 193.841286 
L 500.544 194.148804 
L 509.472 194.273379 
L 518.4 195.472877 
" style="fill:none;stroke:#d62728;stroke-linecap:square;stroke-width:1.5;"/>
   </g>
   <g id="line2d_33">
    <path clip-path="url(#pb8e3d60f6c)" d="M 72 98.809654 
L 80.928 99.358593 
L 89.856 89.600544 
L 98.784 91.252209 
L 107.712 90.262147 
L 116.64 89.670623 
L 125.568 96.18897 
L 134.496 97.674948 
L 143.424 97.209284 
L 152.352 96.412581 
L 161.28 96.294362 
L 170.208 118.785819 
L 179.136 117.835307 
L 188.064 117.200115 
L 196.992 125.730694 
L 205.92 130.958294 
L 214.848 131.377901 
L 223.776 131.448451 
L 232.704 136.892335 
L 241.632 146.349449 
L 250.56 147.560598 
L 259.488 152.535683 
L 268.416 154.876593 
L 277.344 155.615038 
L 286.272 156.032229 
L 295.2 156.267441 
L 304.128 159.108699 
L 313.056 159.429995 
L 321.984 160.131125 
L 330.912 163.209017 
L 339.84 213.643548 
L 348.768 216.143251 
L 357.696 216.257867 
L 366.624 216.331394 
L 375.552 216.177418 
L 384.48 215.983603 
L 393.408 216.11946 
L 402.336 216.16499 
L 411.264 216.207255 
L 420.192 218.616417 
L 429.12 218.880506 
L 438.048 218.902223 
L 446.976 219.340376 
L 455.904 226.362504 
L 464.832 226.659979 
L 473.76 227.923504 
L 482.688 228.448349 
L 491.616 228.867063 
L 500.544 229.131149 
L 509.472 229.167891 
L 518.4 229.772405 
" style="fill:none;stroke:#9467bd;stroke-linecap:square;stroke-width:1.5;"/>
   </g>
   <g id="line2d_34">
    <path clip-path="url(#pb8e3d60f6c)" d="M 72 99.344083 
L 80.928 99.447828 
L 89.856 92.872308 
L 98.784 97.260382 
L 107.712 95.389484 
L 116.64 93.337765 
L 125.568 98.941074 
L 134.496 104.084247 
L 143.424 104.423029 
L 152.352 104.791423 
L 161.28 105.505453 
L 170.208 105.873992 
L 179.136 106.254726 
L 188.064 106.218644 
L 196.992 107.194182 
L 205.92 107.779574 
L 214.848 108.784132 
L 223.776 109.590369 
L 232.704 113.560443 
L 241.632 115.411232 
L 250.56 123.628725 
L 259.488 131.951644 
L 268.416 144.394517 
L 277.344 146.524152 
L 286.272 162.023656 
L 295.2 179.564504 
L 304.128 179.419433 
L 313.056 181.675854 
L 321.984 181.545763 
L 330.912 182.137882 
L 339.84 251.152357 
L 348.768 265.457262 
L 357.696 267.45674 
L 366.624 277.421289 
L 375.552 278.40704 
L 384.48 278.597484 
L 393.408 279.461567 
L 402.336 279.326081 
L 411.264 282.364165 
L 420.192 281.238148 
L 429.12 282.236242 
L 438.048 284.475007 
L 446.976 284.463351 
L 455.904 284.505198 
L 464.832 284.446975 
L 473.76 284.399445 
L 482.688 290.695359 
L 491.616 295.40922 
L 500.544 295.383472 
L 509.472 295.33181 
L 518.4 295.502047 
" style="fill:none;stroke:#8c564b;stroke-linecap:square;stroke-width:1.5;"/>
   </g>
   <g id="line2d_35">
    <path clip-path="url(#pb8e3d60f6c)" d="M 72 99.285925 
L 80.928 99.333288 
L 89.856 96.903478 
L 98.784 97.47732 
L 107.712 97.495147 
L 116.64 97.980539 
L 125.568 98.82331 
L 134.496 100.027601 
L 143.424 100.060679 
L 152.352 100.068878 
L 161.28 100.260734 
L 170.208 100.462609 
L 179.136 100.463421 
L 188.064 100.466453 
L 196.992 100.457953 
L 205.92 100.329922 
L 214.848 100.383285 
L 223.776 100.388507 
L 232.704 100.330022 
L 241.632 100.344386 
L 250.56 100.338282 
L 259.488 100.334637 
L 268.416 100.497895 
L 277.344 100.463289 
L 286.272 100.462806 
L 295.2 100.463154 
L 304.128 100.443754 
L 313.056 100.507745 
L 321.984 100.507041 
L 330.912 100.507862 
L 339.84 100.505062 
L 348.768 100.490652 
L 357.696 100.487893 
L 366.624 100.487962 
L 375.552 100.487988 
L 384.48 100.470161 
L 393.408 100.470429 
L 402.336 100.471593 
L 411.264 100.390148 
L 420.192 100.515307 
L 429.12 100.51534 
L 438.048 100.51525 
L 446.976 100.515404 
L 455.904 100.515665 
L 464.832 100.515342 
L 473.76 100.515896 
L 482.688 100.515382 
L 491.616 100.498481 
L 500.544 100.498844 
L 509.472 100.499597 
L 518.4 100.470886 
" style="fill:none;stroke:#e377c2;stroke-linecap:square;stroke-width:1.5;"/>
   </g>
   <g id="patch_3">
    <path d="M 72 384.48 
L 72 51.84 
" style="fill:none;stroke:#000000;stroke-linecap:square;stroke-linejoin:miter;stroke-width:0.8;"/>
   </g>
   <g id="patch_4">
    <path d="M 518.4 384.48 
L 518.4 51.84 
" style="fill:none;stroke:#000000;stroke-linecap:square;stroke-linejoin:miter;stroke-width:0.8;"/>
   </g>
   <g id="patch_5">
    <path d="M 72 384.48 
L 518.4 384.48 
" style="fill:none;stroke:#000000;stroke-linecap:square;stroke-linejoin:miter;stroke-width:0.8;"/>
   </g>
   <g id="patch_6">
    <path d="M 72 51.84 
L 518.4 51.84 
" style="fill:none;stroke:#000000;stroke-linecap:square;stroke-linejoin:miter;stroke-width:0.8;"/>
   </g>
   <g id="legend_1">
    <g id="patch_7">
     <path d="M 79 379.48 
L 165.804688 379.48 
Q 167.804688 379.48 167.804688 377.48 
L 167.804688 275.733125 
Q 167.804688 273.733125 165.804688 273.733125 
L 79 273.733125 
Q 77 273.733125 77 275.733125 
L 77 377.48 
Q 77 379.48 79 379.48 
z
" style="fill:#ffffff;opacity:0.8;stroke:#cccccc;stroke-linejoin:miter;"/>
    </g>
    <g id="line2d_36">
     <path d="M 81 281.831563 
L 101 281.831563 
" style="fill:none;stroke:#1f77b4;stroke-linecap:square;stroke-width:1.5;"/>
    </g>
    <g id="line2d_37"/>
    <g id="text_17">
     <!-- Constant -->
     <defs>
      <path d="M 64.40625 67.28125 
L 64.40625 56.890625 
Q 59.421875 61.53125 53.78125 63.8125 
Q 48.140625 66.109375 41.796875 66.109375 
Q 29.296875 66.109375 22.65625 58.46875 
Q 16.015625 50.828125 16.015625 36.375 
Q 16.015625 21.96875 22.65625 14.328125 
Q 29.296875 6.6875 41.796875 6.6875 
Q 48.140625 6.6875 53.78125 8.984375 
Q 59.421875 11.28125 64.40625 15.921875 
L 64.40625 5.609375 
Q 59.234375 2.09375 53.4375 0.328125 
Q 47.65625 -1.421875 41.21875 -1.421875 
Q 24.65625 -1.421875 15.125 8.703125 
Q 5.609375 18.84375 5.609375 36.375 
Q 5.609375 53.953125 15.125 64.078125 
Q 24.65625 74.21875 41.21875 74.21875 
Q 47.75 74.21875 53.53125 72.484375 
Q 59.328125 70.75 64.40625 67.28125 
z
" id="DejaVuSans-67"/>
      <path d="M 44.28125 53.078125 
L 44.28125 44.578125 
Q 40.484375 46.53125 36.375 47.5 
Q 32.28125 48.484375 27.875 48.484375 
Q 21.1875 48.484375 17.84375 46.4375 
Q 14.5 44.390625 14.5 40.28125 
Q 14.5 37.15625 16.890625 35.375 
Q 19.28125 33.59375 26.515625 31.984375 
L 29.59375 31.296875 
Q 39.15625 29.25 43.1875 25.515625 
Q 47.21875 21.78125 47.21875 15.09375 
Q 47.21875 7.46875 41.1875 3.015625 
Q 35.15625 -1.421875 24.609375 -1.421875 
Q 20.21875 -1.421875 15.453125 -0.5625 
Q 10.6875 0.296875 5.421875 2 
L 5.421875 11.28125 
Q 10.40625 8.6875 15.234375 7.390625 
Q 20.0625 6.109375 24.8125 6.109375 
Q 31.15625 6.109375 34.5625 8.28125 
Q 37.984375 10.453125 37.984375 14.40625 
Q 37.984375 18.0625 35.515625 20.015625 
Q 33.0625 21.96875 24.703125 23.78125 
L 21.578125 24.515625 
Q 13.234375 26.265625 9.515625 29.90625 
Q 5.8125 33.546875 5.8125 39.890625 
Q 5.8125 47.609375 11.28125 51.796875 
Q 16.75 56 26.8125 56 
Q 31.78125 56 36.171875 55.265625 
Q 40.578125 54.546875 44.28125 53.078125 
z
" id="DejaVuSans-115"/>
     </defs>
     <g transform="translate(109 285.331563)scale(0.1 -0.1)">
      <use xlink:href="#DejaVuSans-67"/>
      <use x="69.824219" xlink:href="#DejaVuSans-111"/>
      <use x="131.005859" xlink:href="#DejaVuSans-110"/>
      <use x="194.384766" xlink:href="#DejaVuSans-115"/>
      <use x="246.484375" xlink:href="#DejaVuSans-116"/>
      <use x="285.693359" xlink:href="#DejaVuSans-97"/>
      <use x="346.972656" xlink:href="#DejaVuSans-110"/>
      <use x="410.351562" xlink:href="#DejaVuSans-116"/>
     </g>
    </g>
    <g id="line2d_38">
     <path d="M 81 296.509688 
L 101 296.509688 
" style="fill:none;stroke:#ff7f0e;stroke-linecap:square;stroke-width:1.5;"/>
    </g>
    <g id="line2d_39"/>
    <g id="text_18">
     <!-- RBF -->
     <defs>
      <path d="M 44.390625 34.1875 
Q 47.5625 33.109375 50.5625 29.59375 
Q 53.5625 26.078125 56.59375 19.921875 
L 66.609375 0 
L 56 0 
L 46.6875 18.703125 
Q 43.0625 26.03125 39.671875 28.421875 
Q 36.28125 30.8125 30.421875 30.8125 
L 19.671875 30.8125 
L 19.671875 0 
L 9.8125 0 
L 9.8125 72.90625 
L 32.078125 72.90625 
Q 44.578125 72.90625 50.734375 67.671875 
Q 56.890625 62.453125 56.890625 51.90625 
Q 56.890625 45.015625 53.6875 40.46875 
Q 50.484375 35.9375 44.390625 34.1875 
z
M 19.671875 64.796875 
L 19.671875 38.921875 
L 32.078125 38.921875 
Q 39.203125 38.921875 42.84375 42.21875 
Q 46.484375 45.515625 46.484375 51.90625 
Q 46.484375 58.296875 42.84375 61.546875 
Q 39.203125 64.796875 32.078125 64.796875 
z
" id="DejaVuSans-82"/>
      <path d="M 19.671875 34.8125 
L 19.671875 8.109375 
L 35.5 8.109375 
Q 43.453125 8.109375 47.28125 11.40625 
Q 51.125 14.703125 51.125 21.484375 
Q 51.125 28.328125 47.28125 31.5625 
Q 43.453125 34.8125 35.5 34.8125 
z
M 19.671875 64.796875 
L 19.671875 42.828125 
L 34.28125 42.828125 
Q 41.5 42.828125 45.03125 45.53125 
Q 48.578125 48.25 48.578125 53.8125 
Q 48.578125 59.328125 45.03125 62.0625 
Q 41.5 64.796875 34.28125 64.796875 
z
M 9.8125 72.90625 
L 35.015625 72.90625 
Q 46.296875 72.90625 52.390625 68.21875 
Q 58.5 63.53125 58.5 54.890625 
Q 58.5 48.1875 55.375 44.234375 
Q 52.25 40.28125 46.1875 39.3125 
Q 53.46875 37.75 57.5 32.78125 
Q 61.53125 27.828125 61.53125 20.40625 
Q 61.53125 10.640625 54.890625 5.3125 
Q 48.25 0 35.984375 0 
L 9.8125 0 
z
" id="DejaVuSans-66"/>
      <path d="M 9.8125 72.90625 
L 51.703125 72.90625 
L 51.703125 64.59375 
L 19.671875 64.59375 
L 19.671875 43.109375 
L 48.578125 43.109375 
L 48.578125 34.8125 
L 19.671875 34.8125 
L 19.671875 0 
L 9.8125 0 
z
" id="DejaVuSans-70"/>
     </defs>
     <g transform="translate(109 300.009688)scale(0.1 -0.1)">
      <use xlink:href="#DejaVuSans-82"/>
      <use x="69.482422" xlink:href="#DejaVuSans-66"/>
      <use x="138.085938" xlink:href="#DejaVuSans-70"/>
     </g>
    </g>
    <g id="line2d_40">
     <path d="M 81 311.187813 
L 101 311.187813 
" style="fill:none;stroke:#2ca02c;stroke-linecap:square;stroke-width:1.5;"/>
    </g>
    <g id="line2d_41"/>
    <g id="text_19">
     <!-- Matrn-1/2 -->
     <defs>
      <path d="M 9.8125 72.90625 
L 24.515625 72.90625 
L 43.109375 23.296875 
L 61.8125 72.90625 
L 76.515625 72.90625 
L 76.515625 0 
L 66.890625 0 
L 66.890625 64.015625 
L 48.09375 14.015625 
L 38.1875 14.015625 
L 19.390625 64.015625 
L 19.390625 0 
L 9.8125 0 
z
" id="DejaVuSans-77"/>
      <path d="M 56.203125 29.59375 
L 56.203125 25.203125 
L 14.890625 25.203125 
Q 15.484375 15.921875 20.484375 11.0625 
Q 25.484375 6.203125 34.421875 6.203125 
Q 39.59375 6.203125 44.453125 7.46875 
Q 49.3125 8.734375 54.109375 11.28125 
L 54.109375 2.78125 
Q 49.265625 0.734375 44.1875 -0.34375 
Q 39.109375 -1.421875 33.890625 -1.421875 
Q 20.796875 -1.421875 13.15625 6.1875 
Q 5.515625 13.8125 5.515625 26.8125 
Q 5.515625 40.234375 12.765625 48.109375 
Q 20.015625 56 32.328125 56 
Q 43.359375 56 49.78125 48.890625 
Q 56.203125 41.796875 56.203125 29.59375 
z
M 47.21875 32.234375 
Q 47.125 39.59375 43.09375 43.984375 
Q 39.0625 48.390625 32.421875 48.390625 
Q 24.90625 48.390625 20.390625 44.140625 
Q 15.875 39.890625 15.1875 32.171875 
z
M 38.53125 79.984375 
L 48.25 79.984375 
L 32.34375 61.625 
L 24.859375 61.625 
z
" id="DejaVuSans-233"/>
      <path d="M 4.890625 31.390625 
L 31.203125 31.390625 
L 31.203125 23.390625 
L 4.890625 23.390625 
z
" id="DejaVuSans-45"/>
      <path d="M 25.390625 72.90625 
L 33.6875 72.90625 
L 8.296875 -9.28125 
L 0 -9.28125 
z
" id="DejaVuSans-47"/>
     </defs>
     <g transform="translate(109 314.687813)scale(0.1 -0.1)">
      <use xlink:href="#DejaVuSans-77"/>
      <use x="86.279297" xlink:href="#DejaVuSans-97"/>
      <use x="147.558594" xlink:href="#DejaVuSans-116"/>
      <use x="186.767578" xlink:href="#DejaVuSans-233"/>
      <use x="248.291016" xlink:href="#DejaVuSans-114"/>
      <use x="287.654297" xlink:href="#DejaVuSans-110"/>
      <use x="351.033203" xlink:href="#DejaVuSans-45"/>
      <use x="387.117188" xlink:href="#DejaVuSans-49"/>
      <use x="450.740234" xlink:href="#DejaVuSans-47"/>
      <use x="484.431641" xlink:href="#DejaVuSans-50"/>
     </g>
    </g>
    <g id="line2d_42">
     <path d="M 81 325.865938 
L 101 325.865938 
" style="fill:none;stroke:#d62728;stroke-linecap:square;stroke-width:1.5;"/>
    </g>
    <g id="line2d_43"/>
    <g id="text_20">
     <!-- Matrn-3/2 -->
     <g transform="translate(109 329.365938)scale(0.1 -0.1)">
      <use xlink:href="#DejaVuSans-77"/>
      <use x="86.279297" xlink:href="#DejaVuSans-97"/>
      <use x="147.558594" xlink:href="#DejaVuSans-116"/>
      <use x="186.767578" xlink:href="#DejaVuSans-233"/>
      <use x="248.291016" xlink:href="#DejaVuSans-114"/>
      <use x="287.654297" xlink:href="#DejaVuSans-110"/>
      <use x="351.033203" xlink:href="#DejaVuSans-45"/>
      <use x="387.117188" xlink:href="#DejaVuSans-51"/>
      <use x="450.740234" xlink:href="#DejaVuSans-47"/>
      <use x="484.431641" xlink:href="#DejaVuSans-50"/>
     </g>
    </g>
    <g id="line2d_44">
     <path d="M 81 340.544062 
L 101 340.544062 
" style="fill:none;stroke:#9467bd;stroke-linecap:square;stroke-width:1.5;"/>
    </g>
    <g id="line2d_45"/>
    <g id="text_21">
     <!-- Matrn-5/2 -->
     <g transform="translate(109 344.044062)scale(0.1 -0.1)">
      <use xlink:href="#DejaVuSans-77"/>
      <use x="86.279297" xlink:href="#DejaVuSans-97"/>
      <use x="147.558594" xlink:href="#DejaVuSans-116"/>
      <use x="186.767578" xlink:href="#DejaVuSans-233"/>
      <use x="248.291016" xlink:href="#DejaVuSans-114"/>
      <use x="287.654297" xlink:href="#DejaVuSans-110"/>
      <use x="351.033203" xlink:href="#DejaVuSans-45"/>
      <use x="387.117188" xlink:href="#DejaVuSans-53"/>
      <use x="450.740234" xlink:href="#DejaVuSans-47"/>
      <use x="484.431641" xlink:href="#DejaVuSans-50"/>
     </g>
    </g>
    <g id="line2d_46">
     <path d="M 81 355.222188 
L 101 355.222188 
" style="fill:none;stroke:#8c564b;stroke-linecap:square;stroke-width:1.5;"/>
    </g>
    <g id="line2d_47"/>
    <g id="text_22">
     <!-- RQ -->
     <defs>
      <path d="M 39.40625 66.21875 
Q 28.65625 66.21875 22.328125 58.203125 
Q 16.015625 50.203125 16.015625 36.375 
Q 16.015625 22.609375 22.328125 14.59375 
Q 28.65625 6.59375 39.40625 6.59375 
Q 50.140625 6.59375 56.421875 14.59375 
Q 62.703125 22.609375 62.703125 36.375 
Q 62.703125 50.203125 56.421875 58.203125 
Q 50.140625 66.21875 39.40625 66.21875 
z
M 53.21875 1.3125 
L 66.21875 -12.890625 
L 54.296875 -12.890625 
L 43.5 -1.21875 
Q 41.890625 -1.3125 41.03125 -1.359375 
Q 40.1875 -1.421875 39.40625 -1.421875 
Q 24.03125 -1.421875 14.8125 8.859375 
Q 5.609375 19.140625 5.609375 36.375 
Q 5.609375 53.65625 14.8125 63.9375 
Q 24.03125 74.21875 39.40625 74.21875 
Q 54.734375 74.21875 63.90625 63.9375 
Q 73.09375 53.65625 73.09375 36.375 
Q 73.09375 23.6875 67.984375 14.640625 
Q 62.890625 5.609375 53.21875 1.3125 
z
" id="DejaVuSans-81"/>
     </defs>
     <g transform="translate(109 358.722188)scale(0.1 -0.1)">
      <use xlink:href="#DejaVuSans-82"/>
      <use x="69.482422" xlink:href="#DejaVuSans-81"/>
     </g>
    </g>
    <g id="line2d_48">
     <path d="M 81 369.900313 
L 101 369.900313 
" style="fill:none;stroke:#e377c2;stroke-linecap:square;stroke-width:1.5;"/>
    </g>
    <g id="line2d_49"/>
    <g id="text_23">
     <!-- Dot Prod. -->
     <defs>
      <path d="M 19.671875 64.796875 
L 19.671875 8.109375 
L 31.59375 8.109375 
Q 46.6875 8.109375 53.6875 14.9375 
Q 60.6875 21.78125 60.6875 36.53125 
Q 60.6875 51.171875 53.6875 57.984375 
Q 46.6875 64.796875 31.59375 64.796875 
z
M 9.8125 72.90625 
L 30.078125 72.90625 
Q 51.265625 72.90625 61.171875 64.09375 
Q 71.09375 55.28125 71.09375 36.53125 
Q 71.09375 17.671875 61.125 8.828125 
Q 51.171875 0 30.078125 0 
L 9.8125 0 
z
" id="DejaVuSans-68"/>
      <path d="M 19.671875 64.796875 
L 19.671875 37.40625 
L 32.078125 37.40625 
Q 38.96875 37.40625 42.71875 40.96875 
Q 46.484375 44.53125 46.484375 51.125 
Q 46.484375 57.671875 42.71875 61.234375 
Q 38.96875 64.796875 32.078125 64.796875 
z
M 9.8125 72.90625 
L 32.078125 72.90625 
Q 44.34375 72.90625 50.609375 67.359375 
Q 56.890625 61.8125 56.890625 51.125 
Q 56.890625 40.328125 50.609375 34.8125 
Q 44.34375 29.296875 32.078125 29.296875 
L 19.671875 29.296875 
L 19.671875 0 
L 9.8125 0 
z
" id="DejaVuSans-80"/>
      <path d="M 10.6875 12.40625 
L 21 12.40625 
L 21 0 
L 10.6875 0 
z
" id="DejaVuSans-46"/>
     </defs>
     <g transform="translate(109 373.400313)scale(0.1 -0.1)">
      <use xlink:href="#DejaVuSans-68"/>
      <use x="77.001953" xlink:href="#DejaVuSans-111"/>
      <use x="138.183594" xlink:href="#DejaVuSans-116"/>
      <use x="177.392578" xlink:href="#DejaVuSans-32"/>
      <use x="209.179688" xlink:href="#DejaVuSans-80"/>
      <use x="267.732422" xlink:href="#DejaVuSans-114"/>
      <use x="306.595703" xlink:href="#DejaVuSans-111"/>
      <use x="367.777344" xlink:href="#DejaVuSans-100"/>
      <use x="431.253906" xlink:href="#DejaVuSans-46"/>
     </g>
    </g>
   </g>
  </g>
 </g>
 <defs>
  <clipPath id="pb8e3d60f6c">
   <rect height="332.64" width="446.4" x="72" y="51.84"/>
  </clipPath>
 </defs>
</svg>
