<?xml version="1.0" encoding="utf-8" standalone="no"?>
<!DOCTYPE svg PUBLIC "-//W3C//DTD SVG 1.1//EN"
  "http://www.w3.org/Graphics/SVG/1.1/DTD/svg11.dtd">
<!-- Created with matplotlib (https://matplotlib.org/) -->
<svg height="432pt" version="1.1" viewBox="0 0 576 432" width="576pt" xmlns="http://www.w3.org/2000/svg" xmlns:xlink="http://www.w3.org/1999/xlink">
 <defs>
  <style type="text/css">
*{stroke-linecap:butt;stroke-linejoin:round;}
  </style>
 </defs>
 <g id="figure_1">
  <g id="patch_1">
   <path d="M 0 432 
L 576 432 
L 576 0 
L 0 0 
z
" style="fill:#ffffff;"/>
  </g>
  <g id="axes_1">
   <g id="patch_2">
    <path d="M 72 384.48 
L 518.4 384.48 
L 518.4 51.84 
L 72 51.84 
z
" style="fill:#ffffff;"/>
   </g>
   <g id="PolyCollection_1">
    <path clip-path="url(#pe1b854cb97)" d="M 339.84 225.598164 
L 339.84 -119.068669 
L 348.768 92.967171 
L 357.696 70.00276 
L 366.624 35.472546 
L 375.552 -30.602434 
L 384.48 -20.394919 
L 393.408 131.640579 
L 402.336 -34.006976 
L 402.336 358.274389 
L 402.336 358.274389 
L 393.408 427.420219 
L 384.48 373.089715 
L 375.552 366.19555 
L 366.624 401.315927 
L 357.696 412.934364 
L 348.768 419.359161 
L 339.84 225.598164 
z
" style="fill:#1f77b4;fill-opacity:0.3;"/>
    <path clip-path="url(#pe1b854cb97)" d="M 420.192 426.469127 
L 420.192 100.86074 
L 429.12 -49.807803 
L 438.048 16.725766 
L 438.048 399.29028 
L 438.048 399.29028 
L 429.12 352.960445 
L 420.192 426.469127 
z
" style="fill:#1f77b4;fill-opacity:0.3;"/>
   </g>
   <g id="PolyCollection_2">
    <path clip-path="url(#pe1b854cb97)" d="M 72 182.33857 
L 72 87.451427 
L 80.928 93.460282 
L 89.856 88.201663 
L 98.784 85.867501 
L 107.712 93.350991 
L 116.64 97.099825 
L 125.568 107.216368 
L 134.496 81.835048 
L 143.424 89.006659 
L 152.352 94.02333 
L 161.28 100.025674 
L 170.208 92.212971 
L 179.136 97.176773 
L 188.064 102.478715 
L 196.992 114.580119 
L 205.92 114.960496 
L 214.848 119.530703 
L 223.776 125.882703 
L 232.704 130.160746 
L 241.632 133.668847 
L 250.56 140.260551 
L 259.488 144.97932 
L 268.416 153.844528 
L 277.344 161.96186 
L 286.272 164.361334 
L 295.2 165.420366 
L 304.128 166.435239 
L 313.056 169.998484 
L 321.984 170.445816 
L 330.912 171.724055 
L 339.84 220.6612 
L 348.768 222.907461 
L 357.696 223.726174 
L 366.624 226.506901 
L 375.552 225.913902 
L 384.48 221.838764 
L 393.408 221.14214 
L 402.336 219.449893 
L 411.264 215.537207 
L 420.192 212.878064 
L 429.12 212.813744 
L 438.048 210.677891 
L 446.976 214.001215 
L 455.904 210.07555 
L 464.832 209.896809 
L 473.76 208.935278 
L 482.688 203.822134 
L 491.616 207.397638 
L 500.544 206.903062 
L 509.472 206.161894 
L 518.4 203.420039 
L 518.4 226.387177 
L 518.4 226.387177 
L 509.472 222.883871 
L 500.544 224.94729 
L 491.616 220.303326 
L 482.688 227.913388 
L 473.76 228.493873 
L 464.832 228.469733 
L 455.904 226.533024 
L 446.976 229.38524 
L 438.048 232.546493 
L 429.12 232.085731 
L 420.192 231.613109 
L 411.264 240.615295 
L 402.336 238.359016 
L 393.408 245.397994 
L 384.48 239.835844 
L 375.552 241.706187 
L 366.624 244.737717 
L 357.696 242.559748 
L 348.768 242.349737 
L 339.84 225.619007 
L 330.912 194.496386 
L 321.984 192.123857 
L 313.056 188.599389 
L 304.128 184.18605 
L 295.2 178.16878 
L 286.272 171.877269 
L 277.344 166.75061 
L 268.416 160.664646 
L 259.488 150.890168 
L 250.56 143.233115 
L 241.632 135.817467 
L 232.704 131.57751 
L 223.776 129.12726 
L 214.848 123.555897 
L 205.92 118.602552 
L 196.992 122.14124 
L 188.064 110.083883 
L 179.136 101.55255 
L 170.208 95.65881 
L 161.28 118.925082 
L 152.352 109.85566 
L 143.424 102.229536 
L 134.496 93.502694 
L 125.568 139.538158 
L 116.64 127.744057 
L 107.712 123.835933 
L 98.784 111.981572 
L 89.856 126.79122 
L 80.928 176.937918 
L 72 182.33857 
z
" style="fill:#ff7f0e;fill-opacity:0.3;"/>
   </g>
   <g id="PolyCollection_3">
    <path clip-path="url(#pe1b854cb97)" d="M 72 174.416825 
L 72 110.138854 
L 80.928 120.292688 
L 89.856 84.724826 
L 98.784 89.769097 
L 107.712 93.128684 
L 116.64 99.382733 
L 125.568 101.371788 
L 134.496 94.748041 
L 143.424 96.887894 
L 152.352 98.842498 
L 161.28 100.548324 
L 170.208 97.919556 
L 179.136 99.813538 
L 188.064 101.732188 
L 196.992 103.664895 
L 205.92 104.620987 
L 214.848 105.603618 
L 223.776 106.558906 
L 232.704 107.474459 
L 241.632 108.253728 
L 250.56 109.128715 
L 259.488 109.987878 
L 268.416 110.794052 
L 277.344 111.643309 
L 286.272 112.51407 
L 295.2 113.39439 
L 304.128 114.211602 
L 313.056 115.046531 
L 321.984 115.9469 
L 330.912 116.831633 
L 339.84 117.674289 
L 348.768 118.157091 
L 357.696 118.633041 
L 366.624 119.105577 
L 375.552 119.414508 
L 384.48 119.831079 
L 393.408 120.284212 
L 402.336 120.728711 
L 411.264 121.027364 
L 420.192 121.190342 
L 429.12 121.625411 
L 438.048 122.059273 
L 446.976 122.482336 
L 455.904 122.857266 
L 464.832 123.287484 
L 473.76 123.71448 
L 482.688 124.13621 
L 491.616 124.52599 
L 500.544 124.946807 
L 509.472 125.374534 
L 518.4 125.668134 
L 518.4 125.818426 
L 518.4 125.818426 
L 509.472 125.522248 
L 500.544 125.092092 
L 491.616 124.668266 
L 482.688 124.277496 
L 473.76 123.857744 
L 464.832 123.431776 
L 455.904 123.000922 
L 446.976 122.623859 
L 438.048 122.19879 
L 429.12 121.764918 
L 420.192 121.330315 
L 411.264 121.195471 
L 402.336 120.896996 
L 393.408 120.45193 
L 384.48 119.998244 
L 375.552 119.582403 
L 366.624 119.275528 
L 357.696 118.802733 
L 348.768 118.330784 
L 339.84 117.847807 
L 330.912 117.007663 
L 321.984 116.163853 
L 313.056 115.259564 
L 304.128 114.467617 
L 295.2 113.685159 
L 286.272 112.82262 
L 277.344 111.943064 
L 268.416 111.092951 
L 259.488 110.241548 
L 250.56 109.382951 
L 241.632 108.51728 
L 232.704 107.734618 
L 223.776 106.813742 
L 214.848 105.859617 
L 205.92 104.881851 
L 196.992 103.92488 
L 188.064 102.192305 
L 179.136 100.395948 
L 170.208 98.480638 
L 161.28 102.29051 
L 152.352 100.728793 
L 143.424 98.925434 
L 134.496 96.958141 
L 125.568 105.964433 
L 116.64 104.516932 
L 107.712 102.957279 
L 98.784 99.202213 
L 89.856 99.165156 
L 80.928 174.580879 
L 72 174.416825 
z
" style="fill:#2ca02c;fill-opacity:0.3;"/>
   </g>
   <g id="PolyCollection_4">
    <path clip-path="url(#pe1b854cb97)" d="M 72 172.897762 
L 72 104.221455 
L 80.928 116.903159 
L 89.856 83.934547 
L 98.784 86.94916 
L 107.712 92.561147 
L 116.64 99.849594 
L 125.568 103.284654 
L 134.496 87.162938 
L 143.424 93.126345 
L 152.352 97.30405 
L 161.28 101.035191 
L 170.208 96.405203 
L 179.136 100.182743 
L 188.064 104.323505 
L 196.992 110.053856 
L 205.92 111.465905 
L 214.848 113.295873 
L 223.776 115.116974 
L 232.704 116.565829 
L 241.632 117.762711 
L 250.56 119.503137 
L 259.488 121.191361 
L 268.416 123.111702 
L 277.344 124.618185 
L 286.272 126.150415 
L 295.2 127.80825 
L 304.128 129.414463 
L 313.056 131.321425 
L 321.984 133.440997 
L 330.912 135.801228 
L 339.84 140.108936 
L 348.768 140.874691 
L 357.696 141.631791 
L 366.624 142.407286 
L 375.552 143.133042 
L 384.48 143.895394 
L 393.408 144.660838 
L 402.336 145.420269 
L 411.264 146.217806 
L 420.192 146.966113 
L 429.12 147.743291 
L 438.048 148.62544 
L 446.976 149.455282 
L 455.904 150.249752 
L 464.832 151.123511 
L 473.76 152.017842 
L 482.688 152.962114 
L 491.616 153.667799 
L 500.544 154.386815 
L 509.472 155.139786 
L 518.4 155.873985 
L 518.4 156.292911 
L 518.4 156.292911 
L 509.472 155.521196 
L 500.544 154.74273 
L 491.616 153.998295 
L 482.688 153.268242 
L 473.76 152.342167 
L 464.832 151.451442 
L 455.904 150.567661 
L 446.976 149.752215 
L 438.048 148.909117 
L 429.12 148.015408 
L 420.192 147.223786 
L 411.264 146.460658 
L 402.336 145.659999 
L 393.408 144.892601 
L 384.48 144.108488 
L 375.552 143.331816 
L 366.624 142.576295 
L 357.696 141.787803 
L 348.768 140.999843 
L 339.84 140.191608 
L 330.912 137.400818 
L 321.984 134.864146 
L 313.056 132.459728 
L 304.128 130.427113 
L 295.2 128.675544 
L 286.272 126.903797 
L 277.344 125.258427 
L 268.416 123.668461 
L 259.488 121.780142 
L 250.56 120.094163 
L 241.632 118.318579 
L 232.704 117.068151 
L 223.776 115.565937 
L 214.848 113.733493 
L 205.92 111.888216 
L 196.992 110.576804 
L 188.064 106.077359 
L 179.136 101.733437 
L 170.208 97.555808 
L 161.28 107.837202 
L 152.352 103.954988 
L 143.424 100.397446 
L 134.496 97.056106 
L 125.568 120.373252 
L 116.64 119.28936 
L 107.712 114.332495 
L 98.784 107.031662 
L 89.856 111.716019 
L 80.928 166.909165 
L 72 172.897762 
z
" style="fill:#d62728;fill-opacity:0.3;"/>
   </g>
   <g id="PolyCollection_5">
    <path clip-path="url(#pe1b854cb97)" d="M 72 177.683324 
L 72 107.948204 
L 80.928 113.820154 
L 89.856 88.763137 
L 98.784 87.186318 
L 107.712 95.007209 
L 116.64 101.272506 
L 125.568 106.638228 
L 134.496 86.616603 
L 143.424 93.542693 
L 152.352 98.217409 
L 161.28 102.932637 
L 170.208 95.044668 
L 179.136 99.388755 
L 188.064 104.157808 
L 196.992 112.142125 
L 205.92 113.575981 
L 214.848 116.124451 
L 223.776 118.730174 
L 232.704 120.56939 
L 241.632 122.060107 
L 250.56 124.405571 
L 259.488 126.922197 
L 268.416 130.017838 
L 277.344 131.755982 
L 286.272 133.589785 
L 295.2 135.409326 
L 304.128 137.33249 
L 313.056 139.563624 
L 321.984 142.070912 
L 330.912 144.85858 
L 339.84 155.031635 
L 348.768 156.144187 
L 357.696 157.201726 
L 366.624 158.294667 
L 375.552 159.387433 
L 384.48 160.468925 
L 393.408 161.648236 
L 402.336 162.839408 
L 411.264 164.091215 
L 420.192 165.121347 
L 429.12 166.191377 
L 438.048 167.815609 
L 446.976 169.021199 
L 455.904 170.303991 
L 464.832 171.688212 
L 473.76 173.214675 
L 482.688 174.969547 
L 491.616 175.77765 
L 500.544 176.634598 
L 509.472 177.506005 
L 518.4 178.405206 
L 518.4 178.799614 
L 518.4 178.799614 
L 509.472 177.862769 
L 500.544 176.96812 
L 491.616 176.091137 
L 482.688 175.23669 
L 473.76 173.720605 
L 464.832 172.217657 
L 455.904 170.850554 
L 446.976 169.551207 
L 438.048 168.314226 
L 429.12 166.780217 
L 420.192 165.650543 
L 411.264 164.566784 
L 402.336 163.322579 
L 393.408 162.123283 
L 384.48 160.974161 
L 375.552 159.823016 
L 366.624 158.67016 
L 357.696 157.533898 
L 348.768 156.407135 
L 339.84 155.14025 
L 330.912 148.197824 
L 321.984 144.512239 
L 313.056 141.430943 
L 304.128 138.833878 
L 295.2 136.660724 
L 286.272 134.621831 
L 277.344 132.571907 
L 268.416 130.663853 
L 259.488 127.786317 
L 250.56 125.222312 
L 241.632 122.806869 
L 232.704 121.227363 
L 223.776 119.571924 
L 214.848 117.191928 
L 205.92 114.657912 
L 196.992 113.709646 
L 188.064 107.566376 
L 179.136 101.530874 
L 170.208 96.723448 
L 161.28 109.980391 
L 152.352 105.161165 
L 143.424 100.796951 
L 134.496 96.161347 
L 125.568 127.545736 
L 116.64 124.371725 
L 107.712 117.254182 
L 98.784 109.641339 
L 89.856 116.697053 
L 80.928 172.311708 
L 72 177.683324 
z
" style="fill:#9467bd;fill-opacity:0.3;"/>
   </g>
   <g id="PolyCollection_6">
    <path clip-path="url(#pe1b854cb97)" d="M 72 174.534282 
L 72 122.825162 
L 80.928 125.658488 
L 89.856 82.694059 
L 98.784 86.35771 
L 107.712 90.143175 
L 116.64 96.277697 
L 125.568 99.36138 
L 134.496 90.890536 
L 143.424 91.83498 
L 152.352 92.67918 
L 161.28 93.30373 
L 170.208 93.643312 
L 179.136 94.276484 
L 188.064 94.913475 
L 196.992 95.338908 
L 205.92 95.776167 
L 214.848 96.283097 
L 223.776 96.712511 
L 232.704 97.387421 
L 241.632 97.905226 
L 250.56 100.750843 
L 259.488 104.898241 
L 268.416 118.128067 
L 277.344 122.517414 
L 286.272 123.852265 
L 295.2 166.082942 
L 304.128 167.935078 
L 313.056 171.63257 
L 321.984 172.776798 
L 330.912 174.306866 
L 339.84 220.254443 
L 348.768 222.211315 
L 357.696 222.009194 
L 366.624 227.800497 
L 375.552 224.619236 
L 384.48 218.979604 
L 393.408 222.370636 
L 402.336 219.457733 
L 411.264 216.838372 
L 420.192 209.546936 
L 429.12 212.782971 
L 438.048 210.094774 
L 446.976 208.96912 
L 455.904 207.239999 
L 464.832 209.745361 
L 473.76 207.31627 
L 482.688 206.664162 
L 491.616 201.410416 
L 500.544 203.538785 
L 509.472 205.173352 
L 518.4 200.78988 
L 518.4 226.892137 
L 518.4 226.892137 
L 509.472 226.781692 
L 500.544 225.277262 
L 491.616 231.077055 
L 482.688 223.535527 
L 473.76 223.40948 
L 464.832 225.225741 
L 455.904 226.440547 
L 446.976 227.747955 
L 438.048 234.38955 
L 429.12 232.506456 
L 420.192 235.463047 
L 411.264 233.258691 
L 402.336 237.349016 
L 393.408 239.926769 
L 384.48 235.892502 
L 375.552 240.808114 
L 366.624 244.071989 
L 357.696 242.820358 
L 348.768 241.621811 
L 339.84 224.857581 
L 330.912 186.698675 
L 321.984 184.935955 
L 313.056 183.063392 
L 304.128 179.090088 
L 295.2 175.261642 
L 286.272 164.996777 
L 277.344 124.206451 
L 268.416 120.738844 
L 259.488 119.149429 
L 250.56 114.082836 
L 241.632 108.6268 
L 232.704 106.642997 
L 223.776 103.302287 
L 214.848 101.833444 
L 205.92 100.363908 
L 196.992 99.221082 
L 188.064 97.937775 
L 179.136 96.988327 
L 170.208 95.81729 
L 161.28 98.7918 
L 152.352 97.141721 
L 143.424 95.370376 
L 134.496 93.612997 
L 125.568 113.807911 
L 116.64 119.621363 
L 107.712 111.786025 
L 98.784 100.157632 
L 89.856 122.090687 
L 80.928 174.471957 
L 72 174.534282 
z
" style="fill:#8c564b;fill-opacity:0.3;"/>
   </g>
   <g id="PolyCollection_7">
    <path clip-path="url(#pe1b854cb97)" d="M 80.928 155.187372 
L 80.928 120.605889 
L 89.856 117.981988 
L 98.784 119.199576 
L 107.712 113.02428 
L 116.64 109.473682 
L 125.568 113.090181 
L 134.496 111.468453 
L 143.424 112.275857 
L 143.424 142.984904 
L 143.424 142.984904 
L 134.496 165.858734 
L 125.568 162.346584 
L 116.64 165.56386 
L 107.712 155.008673 
L 98.784 146.175926 
L 89.856 167.741816 
L 80.928 155.187372 
z
" style="fill:#e377c2;fill-opacity:0.3;"/>
    <path clip-path="url(#pe1b854cb97)" d="M 161.28 154.882581 
L 161.28 110.710687 
L 161.28 154.882581 
L 161.28 154.882581 
z
" style="fill:#e377c2;fill-opacity:0.3;"/>
    <path clip-path="url(#pe1b854cb97)" d="M 196.992 147.898737 
L 196.992 94.9617 
L 196.992 147.898737 
L 196.992 147.898737 
z
" style="fill:#e377c2;fill-opacity:0.3;"/>
    <path clip-path="url(#pe1b854cb97)" d="M 214.848 144.229966 
L 214.848 97.395949 
L 223.776 103.160341 
L 232.704 100.494479 
L 241.632 100.677818 
L 250.56 105.966435 
L 259.488 84.724456 
L 268.416 100.377582 
L 277.344 90.875472 
L 286.272 100.661696 
L 286.272 141.018474 
L 286.272 141.018474 
L 277.344 159.422035 
L 268.416 152.117695 
L 259.488 185.192441 
L 250.56 146.38052 
L 241.632 147.176202 
L 232.704 151.788782 
L 223.776 142.796321 
L 214.848 144.229966 
z
" style="fill:#e377c2;fill-opacity:0.3;"/>
    <path clip-path="url(#pe1b854cb97)" d="M 313.056 164.644889 
L 313.056 92.833194 
L 313.056 164.644889 
L 313.056 164.644889 
z
" style="fill:#e377c2;fill-opacity:0.3;"/>
    <path clip-path="url(#pe1b854cb97)" d="M 330.912 156.502843 
L 330.912 101.777311 
L 330.912 156.502843 
L 330.912 156.502843 
z
" style="fill:#e377c2;fill-opacity:0.3;"/>
    <path clip-path="url(#pe1b854cb97)" d="M 384.48 163.018677 
L 384.48 93.43555 
L 384.48 163.018677 
L 384.48 163.018677 
z
" style="fill:#e377c2;fill-opacity:0.3;"/>
    <path clip-path="url(#pe1b854cb97)" d="M 420.192 172.601002 
L 420.192 95.106003 
L 420.192 172.601002 
L 420.192 172.601002 
z
" style="fill:#e377c2;fill-opacity:0.3;"/>
    <path clip-path="url(#pe1b854cb97)" d="M 438.048 168.542675 
L 438.048 90.251943 
L 438.048 168.542675 
L 438.048 168.542675 
z
" style="fill:#e377c2;fill-opacity:0.3;"/>
    <path clip-path="url(#pe1b854cb97)" d="M 455.904 151.100555 
L 455.904 94.252424 
L 455.904 151.100555 
L 455.904 151.100555 
z
" style="fill:#e377c2;fill-opacity:0.3;"/>
    <path clip-path="url(#pe1b854cb97)" d="M 491.616 147.348569 
L 491.616 85.721879 
L 500.544 94.786102 
L 500.544 137.465556 
L 500.544 137.465556 
L 491.616 147.348569 
z
" style="fill:#e377c2;fill-opacity:0.3;"/>
   </g>
   <g id="matplotlib.axis_1">
    <g id="xtick_1">
     <g id="line2d_1">
      <path clip-path="url(#pe1b854cb97)" d="M 72 384.48 
L 72 51.84 
" style="fill:none;stroke:#b0b0b0;stroke-linecap:square;stroke-width:0.8;"/>
     </g>
     <g id="line2d_2">
      <defs>
       <path d="M 0 0 
L 0 3.5 
" id="me95aee18f9" style="stroke:#000000;stroke-width:0.8;"/>
      </defs>
      <g>
       <use style="stroke:#000000;stroke-width:0.8;" x="72" xlink:href="#me95aee18f9" y="384.48"/>
      </g>
     </g>
     <g id="text_1">
      <!-- 0 -->
      <defs>
       <path d="M 31.78125 66.40625 
Q 24.171875 66.40625 20.328125 58.90625 
Q 16.5 51.421875 16.5 36.375 
Q 16.5 21.390625 20.328125 13.890625 
Q 24.171875 6.390625 31.78125 6.390625 
Q 39.453125 6.390625 43.28125 13.890625 
Q 47.125 21.390625 47.125 36.375 
Q 47.125 51.421875 43.28125 58.90625 
Q 39.453125 66.40625 31.78125 66.40625 
z
M 31.78125 74.21875 
Q 44.046875 74.21875 50.515625 64.515625 
Q 56.984375 54.828125 56.984375 36.375 
Q 56.984375 17.96875 50.515625 8.265625 
Q 44.046875 -1.421875 31.78125 -1.421875 
Q 19.53125 -1.421875 13.0625 8.265625 
Q 6.59375 17.96875 6.59375 36.375 
Q 6.59375 54.828125 13.0625 64.515625 
Q 19.53125 74.21875 31.78125 74.21875 
z
" id="DejaVuSans-48"/>
      </defs>
      <g transform="translate(68.81875 399.078438)scale(0.1 -0.1)">
       <use xlink:href="#DejaVuSans-48"/>
      </g>
     </g>
    </g>
    <g id="xtick_2">
     <g id="line2d_3">
      <path clip-path="url(#pe1b854cb97)" d="M 161.28 384.48 
L 161.28 51.84 
" style="fill:none;stroke:#b0b0b0;stroke-linecap:square;stroke-width:0.8;"/>
     </g>
     <g id="line2d_4">
      <g>
       <use style="stroke:#000000;stroke-width:0.8;" x="161.28" xlink:href="#me95aee18f9" y="384.48"/>
      </g>
     </g>
     <g id="text_2">
      <!-- 10 -->
      <defs>
       <path d="M 12.40625 8.296875 
L 28.515625 8.296875 
L 28.515625 63.921875 
L 10.984375 60.40625 
L 10.984375 69.390625 
L 28.421875 72.90625 
L 38.28125 72.90625 
L 38.28125 8.296875 
L 54.390625 8.296875 
L 54.390625 0 
L 12.40625 0 
z
" id="DejaVuSans-49"/>
      </defs>
      <g transform="translate(154.9175 399.078438)scale(0.1 -0.1)">
       <use xlink:href="#DejaVuSans-49"/>
       <use x="63.623047" xlink:href="#DejaVuSans-48"/>
      </g>
     </g>
    </g>
    <g id="xtick_3">
     <g id="line2d_5">
      <path clip-path="url(#pe1b854cb97)" d="M 250.56 384.48 
L 250.56 51.84 
" style="fill:none;stroke:#b0b0b0;stroke-linecap:square;stroke-width:0.8;"/>
     </g>
     <g id="line2d_6">
      <g>
       <use style="stroke:#000000;stroke-width:0.8;" x="250.56" xlink:href="#me95aee18f9" y="384.48"/>
      </g>
     </g>
     <g id="text_3">
      <!-- 20 -->
      <defs>
       <path d="M 19.1875 8.296875 
L 53.609375 8.296875 
L 53.609375 0 
L 7.328125 0 
L 7.328125 8.296875 
Q 12.9375 14.109375 22.625 23.890625 
Q 32.328125 33.6875 34.8125 36.53125 
Q 39.546875 41.84375 41.421875 45.53125 
Q 43.3125 49.21875 43.3125 52.78125 
Q 43.3125 58.59375 39.234375 62.25 
Q 35.15625 65.921875 28.609375 65.921875 
Q 23.96875 65.921875 18.8125 64.3125 
Q 13.671875 62.703125 7.8125 59.421875 
L 7.8125 69.390625 
Q 13.765625 71.78125 18.9375 73 
Q 24.125 74.21875 28.421875 74.21875 
Q 39.75 74.21875 46.484375 68.546875 
Q 53.21875 62.890625 53.21875 53.421875 
Q 53.21875 48.921875 51.53125 44.890625 
Q 49.859375 40.875 45.40625 35.40625 
Q 44.1875 33.984375 37.640625 27.21875 
Q 31.109375 20.453125 19.1875 8.296875 
z
" id="DejaVuSans-50"/>
      </defs>
      <g transform="translate(244.1975 399.078438)scale(0.1 -0.1)">
       <use xlink:href="#DejaVuSans-50"/>
       <use x="63.623047" xlink:href="#DejaVuSans-48"/>
      </g>
     </g>
    </g>
    <g id="xtick_4">
     <g id="line2d_7">
      <path clip-path="url(#pe1b854cb97)" d="M 339.84 384.48 
L 339.84 51.84 
" style="fill:none;stroke:#b0b0b0;stroke-linecap:square;stroke-width:0.8;"/>
     </g>
     <g id="line2d_8">
      <g>
       <use style="stroke:#000000;stroke-width:0.8;" x="339.84" xlink:href="#me95aee18f9" y="384.48"/>
      </g>
     </g>
     <g id="text_4">
      <!-- 30 -->
      <defs>
       <path d="M 40.578125 39.3125 
Q 47.65625 37.796875 51.625 33 
Q 55.609375 28.21875 55.609375 21.1875 
Q 55.609375 10.40625 48.1875 4.484375 
Q 40.765625 -1.421875 27.09375 -1.421875 
Q 22.515625 -1.421875 17.65625 -0.515625 
Q 12.796875 0.390625 7.625 2.203125 
L 7.625 11.71875 
Q 11.71875 9.328125 16.59375 8.109375 
Q 21.484375 6.890625 26.8125 6.890625 
Q 36.078125 6.890625 40.9375 10.546875 
Q 45.796875 14.203125 45.796875 21.1875 
Q 45.796875 27.640625 41.28125 31.265625 
Q 36.765625 34.90625 28.71875 34.90625 
L 20.21875 34.90625 
L 20.21875 43.015625 
L 29.109375 43.015625 
Q 36.375 43.015625 40.234375 45.921875 
Q 44.09375 48.828125 44.09375 54.296875 
Q 44.09375 59.90625 40.109375 62.90625 
Q 36.140625 65.921875 28.71875 65.921875 
Q 24.65625 65.921875 20.015625 65.03125 
Q 15.375 64.15625 9.8125 62.3125 
L 9.8125 71.09375 
Q 15.4375 72.65625 20.34375 73.4375 
Q 25.25 74.21875 29.59375 74.21875 
Q 40.828125 74.21875 47.359375 69.109375 
Q 53.90625 64.015625 53.90625 55.328125 
Q 53.90625 49.265625 50.4375 45.09375 
Q 46.96875 40.921875 40.578125 39.3125 
z
" id="DejaVuSans-51"/>
      </defs>
      <g transform="translate(333.4775 399.078438)scale(0.1 -0.1)">
       <use xlink:href="#DejaVuSans-51"/>
       <use x="63.623047" xlink:href="#DejaVuSans-48"/>
      </g>
     </g>
    </g>
    <g id="xtick_5">
     <g id="line2d_9">
      <path clip-path="url(#pe1b854cb97)" d="M 429.12 384.48 
L 429.12 51.84 
" style="fill:none;stroke:#b0b0b0;stroke-linecap:square;stroke-width:0.8;"/>
     </g>
     <g id="line2d_10">
      <g>
       <use style="stroke:#000000;stroke-width:0.8;" x="429.12" xlink:href="#me95aee18f9" y="384.48"/>
      </g>
     </g>
     <g id="text_5">
      <!-- 40 -->
      <defs>
       <path d="M 37.796875 64.3125 
L 12.890625 25.390625 
L 37.796875 25.390625 
z
M 35.203125 72.90625 
L 47.609375 72.90625 
L 47.609375 25.390625 
L 58.015625 25.390625 
L 58.015625 17.1875 
L 47.609375 17.1875 
L 47.609375 0 
L 37.796875 0 
L 37.796875 17.1875 
L 4.890625 17.1875 
L 4.890625 26.703125 
z
" id="DejaVuSans-52"/>
      </defs>
      <g transform="translate(422.7575 399.078438)scale(0.1 -0.1)">
       <use xlink:href="#DejaVuSans-52"/>
       <use x="63.623047" xlink:href="#DejaVuSans-48"/>
      </g>
     </g>
    </g>
    <g id="xtick_6">
     <g id="line2d_11">
      <path clip-path="url(#pe1b854cb97)" d="M 518.4 384.48 
L 518.4 51.84 
" style="fill:none;stroke:#b0b0b0;stroke-linecap:square;stroke-width:0.8;"/>
     </g>
     <g id="line2d_12">
      <g>
       <use style="stroke:#000000;stroke-width:0.8;" x="518.4" xlink:href="#me95aee18f9" y="384.48"/>
      </g>
     </g>
     <g id="text_6">
      <!-- 50 -->
      <defs>
       <path d="M 10.796875 72.90625 
L 49.515625 72.90625 
L 49.515625 64.59375 
L 19.828125 64.59375 
L 19.828125 46.734375 
Q 21.96875 47.46875 24.109375 47.828125 
Q 26.265625 48.1875 28.421875 48.1875 
Q 40.625 48.1875 47.75 41.5 
Q 54.890625 34.8125 54.890625 23.390625 
Q 54.890625 11.625 47.5625 5.09375 
Q 40.234375 -1.421875 26.90625 -1.421875 
Q 22.3125 -1.421875 17.546875 -0.640625 
Q 12.796875 0.140625 7.71875 1.703125 
L 7.71875 11.625 
Q 12.109375 9.234375 16.796875 8.0625 
Q 21.484375 6.890625 26.703125 6.890625 
Q 35.15625 6.890625 40.078125 11.328125 
Q 45.015625 15.765625 45.015625 23.390625 
Q 45.015625 31 40.078125 35.4375 
Q 35.15625 39.890625 26.703125 39.890625 
Q 22.75 39.890625 18.8125 39.015625 
Q 14.890625 38.140625 10.796875 36.28125 
z
" id="DejaVuSans-53"/>
      </defs>
      <g transform="translate(512.0375 399.078438)scale(0.1 -0.1)">
       <use xlink:href="#DejaVuSans-53"/>
       <use x="63.623047" xlink:href="#DejaVuSans-48"/>
      </g>
     </g>
    </g>
    <g id="text_7">
     <!-- Iteration -->
     <defs>
      <path d="M 9.8125 72.90625 
L 19.671875 72.90625 
L 19.671875 0 
L 9.8125 0 
z
" id="DejaVuSans-73"/>
      <path d="M 18.3125 70.21875 
L 18.3125 54.6875 
L 36.8125 54.6875 
L 36.8125 47.703125 
L 18.3125 47.703125 
L 18.3125 18.015625 
Q 18.3125 11.328125 20.140625 9.421875 
Q 21.96875 7.515625 27.59375 7.515625 
L 36.8125 7.515625 
L 36.8125 0 
L 27.59375 0 
Q 17.1875 0 13.234375 3.875 
Q 9.28125 7.765625 9.28125 18.015625 
L 9.28125 47.703125 
L 2.6875 47.703125 
L 2.6875 54.6875 
L 9.28125 54.6875 
L 9.28125 70.21875 
z
" id="DejaVuSans-116"/>
      <path d="M 56.203125 29.59375 
L 56.203125 25.203125 
L 14.890625 25.203125 
Q 15.484375 15.921875 20.484375 11.0625 
Q 25.484375 6.203125 34.421875 6.203125 
Q 39.59375 6.203125 44.453125 7.46875 
Q 49.3125 8.734375 54.109375 11.28125 
L 54.109375 2.78125 
Q 49.265625 0.734375 44.1875 -0.34375 
Q 39.109375 -1.421875 33.890625 -1.421875 
Q 20.796875 -1.421875 13.15625 6.1875 
Q 5.515625 13.8125 5.515625 26.8125 
Q 5.515625 40.234375 12.765625 48.109375 
Q 20.015625 56 32.328125 56 
Q 43.359375 56 49.78125 48.890625 
Q 56.203125 41.796875 56.203125 29.59375 
z
M 47.21875 32.234375 
Q 47.125 39.59375 43.09375 43.984375 
Q 39.0625 48.390625 32.421875 48.390625 
Q 24.90625 48.390625 20.390625 44.140625 
Q 15.875 39.890625 15.1875 32.171875 
z
" id="DejaVuSans-101"/>
      <path d="M 41.109375 46.296875 
Q 39.59375 47.171875 37.8125 47.578125 
Q 36.03125 48 33.890625 48 
Q 26.265625 48 22.1875 43.046875 
Q 18.109375 38.09375 18.109375 28.8125 
L 18.109375 0 
L 9.078125 0 
L 9.078125 54.6875 
L 18.109375 54.6875 
L 18.109375 46.1875 
Q 20.953125 51.171875 25.484375 53.578125 
Q 30.03125 56 36.53125 56 
Q 37.453125 56 38.578125 55.875 
Q 39.703125 55.765625 41.0625 55.515625 
z
" id="DejaVuSans-114"/>
      <path d="M 34.28125 27.484375 
Q 23.390625 27.484375 19.1875 25 
Q 14.984375 22.515625 14.984375 16.5 
Q 14.984375 11.71875 18.140625 8.90625 
Q 21.296875 6.109375 26.703125 6.109375 
Q 34.1875 6.109375 38.703125 11.40625 
Q 43.21875 16.703125 43.21875 25.484375 
L 43.21875 27.484375 
z
M 52.203125 31.203125 
L 52.203125 0 
L 43.21875 0 
L 43.21875 8.296875 
Q 40.140625 3.328125 35.546875 0.953125 
Q 30.953125 -1.421875 24.3125 -1.421875 
Q 15.921875 -1.421875 10.953125 3.296875 
Q 6 8.015625 6 15.921875 
Q 6 25.140625 12.171875 29.828125 
Q 18.359375 34.515625 30.609375 34.515625 
L 43.21875 34.515625 
L 43.21875 35.40625 
Q 43.21875 41.609375 39.140625 45 
Q 35.0625 48.390625 27.6875 48.390625 
Q 23 48.390625 18.546875 47.265625 
Q 14.109375 46.140625 10.015625 43.890625 
L 10.015625 52.203125 
Q 14.9375 54.109375 19.578125 55.046875 
Q 24.21875 56 28.609375 56 
Q 40.484375 56 46.34375 49.84375 
Q 52.203125 43.703125 52.203125 31.203125 
z
" id="DejaVuSans-97"/>
      <path d="M 9.421875 54.6875 
L 18.40625 54.6875 
L 18.40625 0 
L 9.421875 0 
z
M 9.421875 75.984375 
L 18.40625 75.984375 
L 18.40625 64.59375 
L 9.421875 64.59375 
z
" id="DejaVuSans-105"/>
      <path d="M 30.609375 48.390625 
Q 23.390625 48.390625 19.1875 42.75 
Q 14.984375 37.109375 14.984375 27.296875 
Q 14.984375 17.484375 19.15625 11.84375 
Q 23.34375 6.203125 30.609375 6.203125 
Q 37.796875 6.203125 41.984375 11.859375 
Q 46.1875 17.53125 46.1875 27.296875 
Q 46.1875 37.015625 41.984375 42.703125 
Q 37.796875 48.390625 30.609375 48.390625 
z
M 30.609375 56 
Q 42.328125 56 49.015625 48.375 
Q 55.71875 40.765625 55.71875 27.296875 
Q 55.71875 13.875 49.015625 6.21875 
Q 42.328125 -1.421875 30.609375 -1.421875 
Q 18.84375 -1.421875 12.171875 6.21875 
Q 5.515625 13.875 5.515625 27.296875 
Q 5.515625 40.765625 12.171875 48.375 
Q 18.84375 56 30.609375 56 
z
" id="DejaVuSans-111"/>
      <path d="M 54.890625 33.015625 
L 54.890625 0 
L 45.90625 0 
L 45.90625 32.71875 
Q 45.90625 40.484375 42.875 44.328125 
Q 39.84375 48.1875 33.796875 48.1875 
Q 26.515625 48.1875 22.3125 43.546875 
Q 18.109375 38.921875 18.109375 30.90625 
L 18.109375 0 
L 9.078125 0 
L 9.078125 54.6875 
L 18.109375 54.6875 
L 18.109375 46.1875 
Q 21.34375 51.125 25.703125 53.5625 
Q 30.078125 56 35.796875 56 
Q 45.21875 56 50.046875 50.171875 
Q 54.890625 44.34375 54.890625 33.015625 
z
" id="DejaVuSans-110"/>
     </defs>
     <g transform="translate(273.991406 412.756563)scale(0.1 -0.1)">
      <use xlink:href="#DejaVuSans-73"/>
      <use x="29.492188" xlink:href="#DejaVuSans-116"/>
      <use x="68.701172" xlink:href="#DejaVuSans-101"/>
      <use x="130.224609" xlink:href="#DejaVuSans-114"/>
      <use x="171.337891" xlink:href="#DejaVuSans-97"/>
      <use x="232.617188" xlink:href="#DejaVuSans-116"/>
      <use x="271.826172" xlink:href="#DejaVuSans-105"/>
      <use x="299.609375" xlink:href="#DejaVuSans-111"/>
      <use x="360.791016" xlink:href="#DejaVuSans-110"/>
     </g>
    </g>
   </g>
   <g id="matplotlib.axis_2">
    <g id="ytick_1">
     <g id="line2d_13">
      <path clip-path="url(#pe1b854cb97)" d="M 72 384.48 
L 518.4 384.48 
" style="fill:none;stroke:#b0b0b0;stroke-linecap:square;stroke-width:0.8;"/>
     </g>
     <g id="line2d_14">
      <defs>
       <path d="M 0 0 
L -3.5 0 
" id="mb72c863a87" style="stroke:#000000;stroke-width:0.8;"/>
      </defs>
      <g>
       <use style="stroke:#000000;stroke-width:0.8;" x="72" xlink:href="#mb72c863a87" y="384.48"/>
      </g>
     </g>
     <g id="text_8">
      <!-- $\mathdefault{10^{-12}}$ -->
      <defs>
       <path d="M 10.59375 35.5 
L 73.1875 35.5 
L 73.1875 27.203125 
L 10.59375 27.203125 
z
" id="DejaVuSans-8722"/>
      </defs>
      <g transform="translate(37.1 388.279219)scale(0.1 -0.1)">
       <use transform="translate(0 0.765625)" xlink:href="#DejaVuSans-49"/>
       <use transform="translate(63.623047 0.765625)" xlink:href="#DejaVuSans-48"/>
       <use transform="translate(128.203125 39.046875)scale(0.7)" xlink:href="#DejaVuSans-8722"/>
       <use transform="translate(186.855469 39.046875)scale(0.7)" xlink:href="#DejaVuSans-49"/>
       <use transform="translate(231.391602 39.046875)scale(0.7)" xlink:href="#DejaVuSans-50"/>
      </g>
     </g>
    </g>
    <g id="ytick_2">
     <g id="line2d_15">
      <path clip-path="url(#pe1b854cb97)" d="M 72 336.96 
L 518.4 336.96 
" style="fill:none;stroke:#b0b0b0;stroke-linecap:square;stroke-width:0.8;"/>
     </g>
     <g id="line2d_16">
      <g>
       <use style="stroke:#000000;stroke-width:0.8;" x="72" xlink:href="#mb72c863a87" y="336.96"/>
      </g>
     </g>
     <g id="text_9">
      <!-- $\mathdefault{10^{-10}}$ -->
      <g transform="translate(37.1 340.759219)scale(0.1 -0.1)">
       <use transform="translate(0 0.765625)" xlink:href="#DejaVuSans-49"/>
       <use transform="translate(63.623047 0.765625)" xlink:href="#DejaVuSans-48"/>
       <use transform="translate(128.203125 39.046875)scale(0.7)" xlink:href="#DejaVuSans-8722"/>
       <use transform="translate(186.855469 39.046875)scale(0.7)" xlink:href="#DejaVuSans-49"/>
       <use transform="translate(231.391602 39.046875)scale(0.7)" xlink:href="#DejaVuSans-48"/>
      </g>
     </g>
    </g>
    <g id="ytick_3">
     <g id="line2d_17">
      <path clip-path="url(#pe1b854cb97)" d="M 72 289.44 
L 518.4 289.44 
" style="fill:none;stroke:#b0b0b0;stroke-linecap:square;stroke-width:0.8;"/>
     </g>
     <g id="line2d_18">
      <g>
       <use style="stroke:#000000;stroke-width:0.8;" x="72" xlink:href="#mb72c863a87" y="289.44"/>
      </g>
     </g>
     <g id="text_10">
      <!-- $\mathdefault{10^{-8}}$ -->
      <defs>
       <path d="M 31.78125 34.625 
Q 24.75 34.625 20.71875 30.859375 
Q 16.703125 27.09375 16.703125 20.515625 
Q 16.703125 13.921875 20.71875 10.15625 
Q 24.75 6.390625 31.78125 6.390625 
Q 38.8125 6.390625 42.859375 10.171875 
Q 46.921875 13.96875 46.921875 20.515625 
Q 46.921875 27.09375 42.890625 30.859375 
Q 38.875 34.625 31.78125 34.625 
z
M 21.921875 38.8125 
Q 15.578125 40.375 12.03125 44.71875 
Q 8.5 49.078125 8.5 55.328125 
Q 8.5 64.0625 14.71875 69.140625 
Q 20.953125 74.21875 31.78125 74.21875 
Q 42.671875 74.21875 48.875 69.140625 
Q 55.078125 64.0625 55.078125 55.328125 
Q 55.078125 49.078125 51.53125 44.71875 
Q 48 40.375 41.703125 38.8125 
Q 48.828125 37.15625 52.796875 32.3125 
Q 56.78125 27.484375 56.78125 20.515625 
Q 56.78125 9.90625 50.3125 4.234375 
Q 43.84375 -1.421875 31.78125 -1.421875 
Q 19.734375 -1.421875 13.25 4.234375 
Q 6.78125 9.90625 6.78125 20.515625 
Q 6.78125 27.484375 10.78125 32.3125 
Q 14.796875 37.15625 21.921875 38.8125 
z
M 18.3125 54.390625 
Q 18.3125 48.734375 21.84375 45.5625 
Q 25.390625 42.390625 31.78125 42.390625 
Q 38.140625 42.390625 41.71875 45.5625 
Q 45.3125 48.734375 45.3125 54.390625 
Q 45.3125 60.0625 41.71875 63.234375 
Q 38.140625 66.40625 31.78125 66.40625 
Q 25.390625 66.40625 21.84375 63.234375 
Q 18.3125 60.0625 18.3125 54.390625 
z
" id="DejaVuSans-56"/>
      </defs>
      <g transform="translate(41.5 293.239219)scale(0.1 -0.1)">
       <use transform="translate(0 0.765625)" xlink:href="#DejaVuSans-49"/>
       <use transform="translate(63.623047 0.765625)" xlink:href="#DejaVuSans-48"/>
       <use transform="translate(128.203125 39.046875)scale(0.7)" xlink:href="#DejaVuSans-8722"/>
       <use transform="translate(186.855469 39.046875)scale(0.7)" xlink:href="#DejaVuSans-56"/>
      </g>
     </g>
    </g>
    <g id="ytick_4">
     <g id="line2d_19">
      <path clip-path="url(#pe1b854cb97)" d="M 72 241.92 
L 518.4 241.92 
" style="fill:none;stroke:#b0b0b0;stroke-linecap:square;stroke-width:0.8;"/>
     </g>
     <g id="line2d_20">
      <g>
       <use style="stroke:#000000;stroke-width:0.8;" x="72" xlink:href="#mb72c863a87" y="241.92"/>
      </g>
     </g>
     <g id="text_11">
      <!-- $\mathdefault{10^{-6}}$ -->
      <defs>
       <path d="M 33.015625 40.375 
Q 26.375 40.375 22.484375 35.828125 
Q 18.609375 31.296875 18.609375 23.390625 
Q 18.609375 15.53125 22.484375 10.953125 
Q 26.375 6.390625 33.015625 6.390625 
Q 39.65625 6.390625 43.53125 10.953125 
Q 47.40625 15.53125 47.40625 23.390625 
Q 47.40625 31.296875 43.53125 35.828125 
Q 39.65625 40.375 33.015625 40.375 
z
M 52.59375 71.296875 
L 52.59375 62.3125 
Q 48.875 64.0625 45.09375 64.984375 
Q 41.3125 65.921875 37.59375 65.921875 
Q 27.828125 65.921875 22.671875 59.328125 
Q 17.53125 52.734375 16.796875 39.40625 
Q 19.671875 43.65625 24.015625 45.921875 
Q 28.375 48.1875 33.59375 48.1875 
Q 44.578125 48.1875 50.953125 41.515625 
Q 57.328125 34.859375 57.328125 23.390625 
Q 57.328125 12.15625 50.6875 5.359375 
Q 44.046875 -1.421875 33.015625 -1.421875 
Q 20.359375 -1.421875 13.671875 8.265625 
Q 6.984375 17.96875 6.984375 36.375 
Q 6.984375 53.65625 15.1875 63.9375 
Q 23.390625 74.21875 37.203125 74.21875 
Q 40.921875 74.21875 44.703125 73.484375 
Q 48.484375 72.75 52.59375 71.296875 
z
" id="DejaVuSans-54"/>
      </defs>
      <g transform="translate(41.5 245.719219)scale(0.1 -0.1)">
       <use transform="translate(0 0.765625)" xlink:href="#DejaVuSans-49"/>
       <use transform="translate(63.623047 0.765625)" xlink:href="#DejaVuSans-48"/>
       <use transform="translate(128.203125 39.046875)scale(0.7)" xlink:href="#DejaVuSans-8722"/>
       <use transform="translate(186.855469 39.046875)scale(0.7)" xlink:href="#DejaVuSans-54"/>
      </g>
     </g>
    </g>
    <g id="ytick_5">
     <g id="line2d_21">
      <path clip-path="url(#pe1b854cb97)" d="M 72 194.4 
L 518.4 194.4 
" style="fill:none;stroke:#b0b0b0;stroke-linecap:square;stroke-width:0.8;"/>
     </g>
     <g id="line2d_22">
      <g>
       <use style="stroke:#000000;stroke-width:0.8;" x="72" xlink:href="#mb72c863a87" y="194.4"/>
      </g>
     </g>
     <g id="text_12">
      <!-- $\mathdefault{10^{-4}}$ -->
      <g transform="translate(41.5 198.199219)scale(0.1 -0.1)">
       <use transform="translate(0 0.684375)" xlink:href="#DejaVuSans-49"/>
       <use transform="translate(63.623047 0.684375)" xlink:href="#DejaVuSans-48"/>
       <use transform="translate(128.203125 38.965625)scale(0.7)" xlink:href="#DejaVuSans-8722"/>
       <use transform="translate(186.855469 38.965625)scale(0.7)" xlink:href="#DejaVuSans-52"/>
      </g>
     </g>
    </g>
    <g id="ytick_6">
     <g id="line2d_23">
      <path clip-path="url(#pe1b854cb97)" d="M 72 146.88 
L 518.4 146.88 
" style="fill:none;stroke:#b0b0b0;stroke-linecap:square;stroke-width:0.8;"/>
     </g>
     <g id="line2d_24">
      <g>
       <use style="stroke:#000000;stroke-width:0.8;" x="72" xlink:href="#mb72c863a87" y="146.88"/>
      </g>
     </g>
     <g id="text_13">
      <!-- $\mathdefault{10^{-2}}$ -->
      <g transform="translate(41.5 150.679219)scale(0.1 -0.1)">
       <use transform="translate(0 0.765625)" xlink:href="#DejaVuSans-49"/>
       <use transform="translate(63.623047 0.765625)" xlink:href="#DejaVuSans-48"/>
       <use transform="translate(128.203125 39.046875)scale(0.7)" xlink:href="#DejaVuSans-8722"/>
       <use transform="translate(186.855469 39.046875)scale(0.7)" xlink:href="#DejaVuSans-50"/>
      </g>
     </g>
    </g>
    <g id="ytick_7">
     <g id="line2d_25">
      <path clip-path="url(#pe1b854cb97)" d="M 72 99.36 
L 518.4 99.36 
" style="fill:none;stroke:#b0b0b0;stroke-linecap:square;stroke-width:0.8;"/>
     </g>
     <g id="line2d_26">
      <g>
       <use style="stroke:#000000;stroke-width:0.8;" x="72" xlink:href="#mb72c863a87" y="99.36"/>
      </g>
     </g>
     <g id="text_14">
      <!-- $\mathdefault{10^{0}}$ -->
      <g transform="translate(47.4 103.159219)scale(0.1 -0.1)">
       <use transform="translate(0 0.765625)" xlink:href="#DejaVuSans-49"/>
       <use transform="translate(63.623047 0.765625)" xlink:href="#DejaVuSans-48"/>
       <use transform="translate(128.203125 39.046875)scale(0.7)" xlink:href="#DejaVuSans-48"/>
      </g>
     </g>
    </g>
    <g id="ytick_8">
     <g id="line2d_27">
      <path clip-path="url(#pe1b854cb97)" d="M 72 51.84 
L 518.4 51.84 
" style="fill:none;stroke:#b0b0b0;stroke-linecap:square;stroke-width:0.8;"/>
     </g>
     <g id="line2d_28">
      <g>
       <use style="stroke:#000000;stroke-width:0.8;" x="72" xlink:href="#mb72c863a87" y="51.84"/>
      </g>
     </g>
     <g id="text_15">
      <!-- $\mathdefault{10^{2}}$ -->
      <g transform="translate(47.4 55.639219)scale(0.1 -0.1)">
       <use transform="translate(0 0.765625)" xlink:href="#DejaVuSans-49"/>
       <use transform="translate(63.623047 0.765625)" xlink:href="#DejaVuSans-48"/>
       <use transform="translate(128.203125 39.046875)scale(0.7)" xlink:href="#DejaVuSans-50"/>
      </g>
     </g>
    </g>
    <g id="text_16">
     <!-- Integrated Variance -->
     <defs>
      <path d="M 45.40625 27.984375 
Q 45.40625 37.75 41.375 43.109375 
Q 37.359375 48.484375 30.078125 48.484375 
Q 22.859375 48.484375 18.828125 43.109375 
Q 14.796875 37.75 14.796875 27.984375 
Q 14.796875 18.265625 18.828125 12.890625 
Q 22.859375 7.515625 30.078125 7.515625 
Q 37.359375 7.515625 41.375 12.890625 
Q 45.40625 18.265625 45.40625 27.984375 
z
M 54.390625 6.78125 
Q 54.390625 -7.171875 48.1875 -13.984375 
Q 42 -20.796875 29.203125 -20.796875 
Q 24.46875 -20.796875 20.265625 -20.09375 
Q 16.0625 -19.390625 12.109375 -17.921875 
L 12.109375 -9.1875 
Q 16.0625 -11.328125 19.921875 -12.34375 
Q 23.78125 -13.375 27.78125 -13.375 
Q 36.625 -13.375 41.015625 -8.765625 
Q 45.40625 -4.15625 45.40625 5.171875 
L 45.40625 9.625 
Q 42.625 4.78125 38.28125 2.390625 
Q 33.9375 0 27.875 0 
Q 17.828125 0 11.671875 7.65625 
Q 5.515625 15.328125 5.515625 27.984375 
Q 5.515625 40.671875 11.671875 48.328125 
Q 17.828125 56 27.875 56 
Q 33.9375 56 38.28125 53.609375 
Q 42.625 51.21875 45.40625 46.390625 
L 45.40625 54.6875 
L 54.390625 54.6875 
z
" id="DejaVuSans-103"/>
      <path d="M 45.40625 46.390625 
L 45.40625 75.984375 
L 54.390625 75.984375 
L 54.390625 0 
L 45.40625 0 
L 45.40625 8.203125 
Q 42.578125 3.328125 38.25 0.953125 
Q 33.9375 -1.421875 27.875 -1.421875 
Q 17.96875 -1.421875 11.734375 6.484375 
Q 5.515625 14.40625 5.515625 27.296875 
Q 5.515625 40.1875 11.734375 48.09375 
Q 17.96875 56 27.875 56 
Q 33.9375 56 38.25 53.625 
Q 42.578125 51.265625 45.40625 46.390625 
z
M 14.796875 27.296875 
Q 14.796875 17.390625 18.875 11.75 
Q 22.953125 6.109375 30.078125 6.109375 
Q 37.203125 6.109375 41.296875 11.75 
Q 45.40625 17.390625 45.40625 27.296875 
Q 45.40625 37.203125 41.296875 42.84375 
Q 37.203125 48.484375 30.078125 48.484375 
Q 22.953125 48.484375 18.875 42.84375 
Q 14.796875 37.203125 14.796875 27.296875 
z
" id="DejaVuSans-100"/>
      <path id="DejaVuSans-32"/>
      <path d="M 28.609375 0 
L 0.78125 72.90625 
L 11.078125 72.90625 
L 34.1875 11.53125 
L 57.328125 72.90625 
L 67.578125 72.90625 
L 39.796875 0 
z
" id="DejaVuSans-86"/>
      <path d="M 48.78125 52.59375 
L 48.78125 44.1875 
Q 44.96875 46.296875 41.140625 47.34375 
Q 37.3125 48.390625 33.40625 48.390625 
Q 24.65625 48.390625 19.8125 42.84375 
Q 14.984375 37.3125 14.984375 27.296875 
Q 14.984375 17.28125 19.8125 11.734375 
Q 24.65625 6.203125 33.40625 6.203125 
Q 37.3125 6.203125 41.140625 7.25 
Q 44.96875 8.296875 48.78125 10.40625 
L 48.78125 2.09375 
Q 45.015625 0.34375 40.984375 -0.53125 
Q 36.96875 -1.421875 32.421875 -1.421875 
Q 20.0625 -1.421875 12.78125 6.34375 
Q 5.515625 14.109375 5.515625 27.296875 
Q 5.515625 40.671875 12.859375 48.328125 
Q 20.21875 56 33.015625 56 
Q 37.15625 56 41.109375 55.140625 
Q 45.0625 54.296875 48.78125 52.59375 
z
" id="DejaVuSans-99"/>
     </defs>
     <g transform="translate(31.020312 267.534219)rotate(-90)scale(0.1 -0.1)">
      <use xlink:href="#DejaVuSans-73"/>
      <use x="29.492188" xlink:href="#DejaVuSans-110"/>
      <use x="92.871094" xlink:href="#DejaVuSans-116"/>
      <use x="132.080078" xlink:href="#DejaVuSans-101"/>
      <use x="193.603516" xlink:href="#DejaVuSans-103"/>
      <use x="257.080078" xlink:href="#DejaVuSans-114"/>
      <use x="298.193359" xlink:href="#DejaVuSans-97"/>
      <use x="359.472656" xlink:href="#DejaVuSans-116"/>
      <use x="398.681641" xlink:href="#DejaVuSans-101"/>
      <use x="460.205078" xlink:href="#DejaVuSans-100"/>
      <use x="523.681641" xlink:href="#DejaVuSans-32"/>
      <use x="555.46875" xlink:href="#DejaVuSans-86"/>
      <use x="616.126953" xlink:href="#DejaVuSans-97"/>
      <use x="677.40625" xlink:href="#DejaVuSans-114"/>
      <use x="718.519531" xlink:href="#DejaVuSans-105"/>
      <use x="746.302734" xlink:href="#DejaVuSans-97"/>
      <use x="807.582031" xlink:href="#DejaVuSans-110"/>
      <use x="870.960938" xlink:href="#DejaVuSans-99"/>
      <use x="925.941406" xlink:href="#DejaVuSans-101"/>
     </g>
    </g>
   </g>
   <g id="line2d_29">
    <path clip-path="url(#pe1b854cb97)" d="M 339.697588 433 
L 339.84 53.264748 
L 348.768 256.163166 
L 357.696 241.468562 
L 366.624 218.394237 
L 375.552 167.796558 
L 384.48 176.347398 
L 393.408 279.530399 
L 402.336 162.133707 
L 402.43805 433 
M 420.127928 433 
L 420.192 263.664934 
L 429.12 151.576321 
L 438.048 208.008023 
L 438.132931 433 
" style="fill:none;stroke:#1f77b4;stroke-linecap:square;stroke-width:1.5;"/>
   </g>
   <g id="line2d_30">
    <path clip-path="url(#pe1b854cb97)" d="M 72 134.894999 
L 80.928 135.1991 
L 89.856 107.496441 
L 98.784 98.924536 
L 107.712 108.593462 
L 116.64 112.421941 
L 125.568 123.377263 
L 134.496 87.668871 
L 143.424 95.618098 
L 152.352 101.939495 
L 161.28 109.475378 
L 170.208 93.93589 
L 179.136 99.364661 
L 188.064 106.281299 
L 196.992 118.360679 
L 205.92 116.781524 
L 214.848 121.5433 
L 223.776 127.504982 
L 232.704 130.869128 
L 241.632 134.743157 
L 250.56 141.746833 
L 259.488 147.934744 
L 268.416 157.254587 
L 277.344 164.356235 
L 286.272 168.119302 
L 295.2 171.794573 
L 304.128 175.310645 
L 313.056 179.298936 
L 321.984 181.284836 
L 330.912 183.11022 
L 339.84 223.140103 
L 348.768 232.628599 
L 357.696 233.142961 
L 366.624 235.622309 
L 375.552 233.810045 
L 384.48 230.837304 
L 393.408 233.270067 
L 402.336 228.904455 
L 411.264 228.076251 
L 420.192 222.245587 
L 429.12 222.449738 
L 438.048 221.612192 
L 446.976 221.693228 
L 455.904 218.304287 
L 464.832 219.183271 
L 473.76 218.714576 
L 482.688 215.867761 
L 491.616 213.850482 
L 500.544 215.925176 
L 509.472 214.522883 
L 518.4 214.903608 
" style="fill:none;stroke:#ff7f0e;stroke-linecap:square;stroke-width:1.5;"/>
   </g>
   <g id="line2d_31">
    <path clip-path="url(#pe1b854cb97)" d="M 72 142.277839 
L 80.928 147.436783 
L 89.856 91.944991 
L 98.784 94.485655 
L 107.712 98.042982 
L 116.64 101.949832 
L 125.568 103.668111 
L 134.496 95.853091 
L 143.424 97.906664 
L 152.352 99.785646 
L 161.28 101.419417 
L 170.208 98.200097 
L 179.136 100.104743 
L 188.064 101.962247 
L 196.992 103.794888 
L 205.92 104.751419 
L 214.848 105.731618 
L 223.776 106.686324 
L 232.704 107.604538 
L 241.632 108.385504 
L 250.56 109.255833 
L 259.488 110.114713 
L 268.416 110.943501 
L 277.344 111.793186 
L 286.272 112.668345 
L 295.2 113.539775 
L 304.128 114.33961 
L 313.056 115.153048 
L 321.984 116.055376 
L 330.912 116.919648 
L 339.84 117.761048 
L 348.768 118.243937 
L 357.696 118.717887 
L 366.624 119.190553 
L 375.552 119.498455 
L 384.48 119.914662 
L 393.408 120.368071 
L 402.336 120.812853 
L 411.264 121.111418 
L 420.192 121.260329 
L 429.12 121.695164 
L 438.048 122.129031 
L 446.976 122.553098 
L 455.904 122.929094 
L 464.832 123.35963 
L 473.76 123.786112 
L 482.688 124.206853 
L 491.616 124.597128 
L 500.544 125.019449 
L 509.472 125.448391 
L 518.4 125.74328 
" style="fill:none;stroke:#2ca02c;stroke-linecap:square;stroke-width:1.5;"/>
   </g>
   <g id="line2d_32">
    <path clip-path="url(#pe1b854cb97)" d="M 72 138.559609 
L 80.928 141.906162 
L 89.856 97.825283 
L 98.784 96.990411 
L 107.712 103.446821 
L 116.64 109.569477 
L 125.568 111.828953 
L 134.496 92.109522 
L 143.424 96.761896 
L 152.352 100.629519 
L 161.28 104.436197 
L 170.208 96.980506 
L 179.136 100.95809 
L 188.064 105.200432 
L 196.992 110.31533 
L 205.92 111.677061 
L 214.848 113.514683 
L 223.776 115.341455 
L 232.704 116.81699 
L 241.632 118.040645 
L 250.56 119.79865 
L 259.488 121.485751 
L 268.416 123.390082 
L 277.344 124.938306 
L 286.272 126.527106 
L 295.2 128.241897 
L 304.128 129.920788 
L 313.056 131.890577 
L 321.984 134.152572 
L 330.912 136.601023 
L 339.84 140.150272 
L 348.768 140.937267 
L 357.696 141.709797 
L 366.624 142.491791 
L 375.552 143.232429 
L 384.48 144.001941 
L 393.408 144.77672 
L 402.336 145.540134 
L 411.264 146.339232 
L 420.192 147.09495 
L 429.12 147.87935 
L 438.048 148.767279 
L 446.976 149.603749 
L 455.904 150.408706 
L 464.832 151.287476 
L 473.76 152.180005 
L 482.688 153.115178 
L 491.616 153.833047 
L 500.544 154.564773 
L 509.472 155.330491 
L 518.4 156.083448 
" style="fill:none;stroke:#d62728;stroke-linecap:square;stroke-width:1.5;"/>
   </g>
   <g id="line2d_33">
    <path clip-path="url(#pe1b854cb97)" d="M 72 142.815764 
L 80.928 143.065931 
L 89.856 102.730095 
L 98.784 98.413828 
L 107.712 106.130696 
L 116.64 112.822115 
L 125.568 117.091982 
L 134.496 91.388975 
L 143.424 97.169822 
L 152.352 101.689287 
L 161.28 106.456514 
L 170.208 95.884058 
L 179.136 100.459815 
L 188.064 105.862092 
L 196.992 112.925885 
L 205.92 114.116946 
L 214.848 116.658189 
L 223.776 119.151049 
L 232.704 120.898376 
L 241.632 122.433488 
L 250.56 124.813941 
L 259.488 127.354257 
L 268.416 130.340846 
L 277.344 132.163944 
L 286.272 134.105808 
L 295.2 136.035025 
L 304.128 138.083184 
L 313.056 140.497284 
L 321.984 143.291576 
L 330.912 146.528202 
L 339.84 155.085943 
L 348.768 156.275661 
L 357.696 157.367812 
L 366.624 158.482413 
L 375.552 159.605225 
L 384.48 160.721543 
L 393.408 161.88576 
L 402.336 163.080993 
L 411.264 164.328999 
L 420.192 165.385945 
L 429.12 166.485797 
L 438.048 168.064918 
L 446.976 169.286203 
L 455.904 170.577273 
L 464.832 171.952934 
L 473.76 173.46764 
L 482.688 175.103118 
L 491.616 175.934393 
L 500.544 176.801359 
L 509.472 177.684387 
L 518.4 178.60241 
" style="fill:none;stroke:#9467bd;stroke-linecap:square;stroke-width:1.5;"/>
   </g>
   <g id="line2d_34">
    <path clip-path="url(#pe1b854cb97)" d="M 72 148.679722 
L 80.928 150.065223 
L 89.856 102.392373 
L 98.784 93.257671 
L 107.712 100.9646 
L 116.64 107.94953 
L 125.568 106.584646 
L 134.496 92.251766 
L 143.424 93.602678 
L 152.352 94.910451 
L 161.28 96.047765 
L 170.208 94.730301 
L 179.136 95.632406 
L 188.064 96.425625 
L 196.992 97.279995 
L 205.92 98.070038 
L 214.848 99.05827 
L 223.776 100.007399 
L 232.704 102.015209 
L 241.632 103.266013 
L 250.56 107.416839 
L 259.488 112.023835 
L 268.416 119.433456 
L 277.344 123.361932 
L 286.272 144.424521 
L 295.2 170.672292 
L 304.128 173.512583 
L 313.056 177.347981 
L 321.984 178.856377 
L 330.912 180.502771 
L 339.84 222.556012 
L 348.768 231.916563 
L 357.696 232.414776 
L 366.624 235.936243 
L 375.552 232.713675 
L 384.48 227.436053 
L 393.408 231.148702 
L 402.336 228.403374 
L 411.264 225.048532 
L 420.192 222.504992 
L 429.12 222.644714 
L 438.048 222.242162 
L 446.976 218.358537 
L 455.904 216.840273 
L 464.832 217.485551 
L 473.76 215.362875 
L 482.688 215.099844 
L 491.616 216.243735 
L 500.544 214.408024 
L 509.472 215.977522 
L 518.4 213.841008 
" style="fill:none;stroke:#8c564b;stroke-linecap:square;stroke-width:1.5;"/>
   </g>
   <g id="line2d_35">
    <path clip-path="url(#pe1b854cb97)" d="M 80.816933 433 
L 80.928 137.896631 
L 89.856 142.861902 
L 98.784 132.687751 
L 107.712 134.016476 
L 116.64 137.518771 
L 125.568 137.718382 
L 134.496 138.663594 
L 143.424 127.63038 
L 143.538882 433 
M 161.167037 433 
L 161.28 132.796634 
L 161.392963 433 
M 196.874816 433 
L 196.992 121.430219 
L 197.109184 433 
M 214.730587 433 
L 214.848 120.812958 
L 223.776 122.978331 
L 232.704 126.14163 
L 241.632 123.92701 
L 250.56 126.173477 
L 259.488 134.958448 
L 268.416 126.247639 
L 277.344 125.148753 
L 286.272 120.840085 
L 286.389403 433 
M 312.94153 433 
L 313.056 128.739041 
L 313.17047 433 
M 330.797679 433 
L 330.912 129.140077 
L 331.026321 433 
M 384.36534 433 
L 384.48 128.227114 
L 384.59466 433 
M 420.07943 433 
L 420.192 133.853503 
L 420.30457 433 
M 437.933775 433 
L 438.048 129.397309 
L 438.162225 433 
M 455.787279 433 
L 455.904 122.67649 
L 456.020721 433 
M 491.497 433 
L 491.616 116.535224 
L 500.544 116.125829 
L 500.663152 433 
" style="fill:none;stroke:#e377c2;stroke-linecap:square;stroke-width:1.5;"/>
   </g>
   <g id="patch_3">
    <path d="M 72 384.48 
L 72 51.84 
" style="fill:none;stroke:#000000;stroke-linecap:square;stroke-linejoin:miter;stroke-width:0.8;"/>
   </g>
   <g id="patch_4">
    <path d="M 518.4 384.48 
L 518.4 51.84 
" style="fill:none;stroke:#000000;stroke-linecap:square;stroke-linejoin:miter;stroke-width:0.8;"/>
   </g>
   <g id="patch_5">
    <path d="M 72 384.48 
L 518.4 384.48 
" style="fill:none;stroke:#000000;stroke-linecap:square;stroke-linejoin:miter;stroke-width:0.8;"/>
   </g>
   <g id="patch_6">
    <path d="M 72 51.84 
L 518.4 51.84 
" style="fill:none;stroke:#000000;stroke-linecap:square;stroke-linejoin:miter;stroke-width:0.8;"/>
   </g>
   <g id="legend_1">
    <g id="patch_7">
     <path d="M 79 379.48 
L 165.804688 379.48 
Q 167.804688 379.48 167.804688 377.48 
L 167.804688 275.733125 
Q 167.804688 273.733125 165.804688 273.733125 
L 79 273.733125 
Q 77 273.733125 77 275.733125 
L 77 377.48 
Q 77 379.48 79 379.48 
z
" style="fill:#ffffff;opacity:0.8;stroke:#cccccc;stroke-linejoin:miter;"/>
    </g>
    <g id="line2d_36">
     <path d="M 81 281.831563 
L 101 281.831563 
" style="fill:none;stroke:#1f77b4;stroke-linecap:square;stroke-width:1.5;"/>
    </g>
    <g id="line2d_37"/>
    <g id="text_17">
     <!-- Constant -->
     <defs>
      <path d="M 64.40625 67.28125 
L 64.40625 56.890625 
Q 59.421875 61.53125 53.78125 63.8125 
Q 48.140625 66.109375 41.796875 66.109375 
Q 29.296875 66.109375 22.65625 58.46875 
Q 16.015625 50.828125 16.015625 36.375 
Q 16.015625 21.96875 22.65625 14.328125 
Q 29.296875 6.6875 41.796875 6.6875 
Q 48.140625 6.6875 53.78125 8.984375 
Q 59.421875 11.28125 64.40625 15.921875 
L 64.40625 5.609375 
Q 59.234375 2.09375 53.4375 0.328125 
Q 47.65625 -1.421875 41.21875 -1.421875 
Q 24.65625 -1.421875 15.125 8.703125 
Q 5.609375 18.84375 5.609375 36.375 
Q 5.609375 53.953125 15.125 64.078125 
Q 24.65625 74.21875 41.21875 74.21875 
Q 47.75 74.21875 53.53125 72.484375 
Q 59.328125 70.75 64.40625 67.28125 
z
" id="DejaVuSans-67"/>
      <path d="M 44.28125 53.078125 
L 44.28125 44.578125 
Q 40.484375 46.53125 36.375 47.5 
Q 32.28125 48.484375 27.875 48.484375 
Q 21.1875 48.484375 17.84375 46.4375 
Q 14.5 44.390625 14.5 40.28125 
Q 14.5 37.15625 16.890625 35.375 
Q 19.28125 33.59375 26.515625 31.984375 
L 29.59375 31.296875 
Q 39.15625 29.25 43.1875 25.515625 
Q 47.21875 21.78125 47.21875 15.09375 
Q 47.21875 7.46875 41.1875 3.015625 
Q 35.15625 -1.421875 24.609375 -1.421875 
Q 20.21875 -1.421875 15.453125 -0.5625 
Q 10.6875 0.296875 5.421875 2 
L 5.421875 11.28125 
Q 10.40625 8.6875 15.234375 7.390625 
Q 20.0625 6.109375 24.8125 6.109375 
Q 31.15625 6.109375 34.5625 8.28125 
Q 37.984375 10.453125 37.984375 14.40625 
Q 37.984375 18.0625 35.515625 20.015625 
Q 33.0625 21.96875 24.703125 23.78125 
L 21.578125 24.515625 
Q 13.234375 26.265625 9.515625 29.90625 
Q 5.8125 33.546875 5.8125 39.890625 
Q 5.8125 47.609375 11.28125 51.796875 
Q 16.75 56 26.8125 56 
Q 31.78125 56 36.171875 55.265625 
Q 40.578125 54.546875 44.28125 53.078125 
z
" id="DejaVuSans-115"/>
     </defs>
     <g transform="translate(109 285.331563)scale(0.1 -0.1)">
      <use xlink:href="#DejaVuSans-67"/>
      <use x="69.824219" xlink:href="#DejaVuSans-111"/>
      <use x="131.005859" xlink:href="#DejaVuSans-110"/>
      <use x="194.384766" xlink:href="#DejaVuSans-115"/>
      <use x="246.484375" xlink:href="#DejaVuSans-116"/>
      <use x="285.693359" xlink:href="#DejaVuSans-97"/>
      <use x="346.972656" xlink:href="#DejaVuSans-110"/>
      <use x="410.351562" xlink:href="#DejaVuSans-116"/>
     </g>
    </g>
    <g id="line2d_38">
     <path d="M 81 296.509688 
L 101 296.509688 
" style="fill:none;stroke:#ff7f0e;stroke-linecap:square;stroke-width:1.5;"/>
    </g>
    <g id="line2d_39"/>
    <g id="text_18">
     <!-- RBF -->
     <defs>
      <path d="M 44.390625 34.1875 
Q 47.5625 33.109375 50.5625 29.59375 
Q 53.5625 26.078125 56.59375 19.921875 
L 66.609375 0 
L 56 0 
L 46.6875 18.703125 
Q 43.0625 26.03125 39.671875 28.421875 
Q 36.28125 30.8125 30.421875 30.8125 
L 19.671875 30.8125 
L 19.671875 0 
L 9.8125 0 
L 9.8125 72.90625 
L 32.078125 72.90625 
Q 44.578125 72.90625 50.734375 67.671875 
Q 56.890625 62.453125 56.890625 51.90625 
Q 56.890625 45.015625 53.6875 40.46875 
Q 50.484375 35.9375 44.390625 34.1875 
z
M 19.671875 64.796875 
L 19.671875 38.921875 
L 32.078125 38.921875 
Q 39.203125 38.921875 42.84375 42.21875 
Q 46.484375 45.515625 46.484375 51.90625 
Q 46.484375 58.296875 42.84375 61.546875 
Q 39.203125 64.796875 32.078125 64.796875 
z
" id="DejaVuSans-82"/>
      <path d="M 19.671875 34.8125 
L 19.671875 8.109375 
L 35.5 8.109375 
Q 43.453125 8.109375 47.28125 11.40625 
Q 51.125 14.703125 51.125 21.484375 
Q 51.125 28.328125 47.28125 31.5625 
Q 43.453125 34.8125 35.5 34.8125 
z
M 19.671875 64.796875 
L 19.671875 42.828125 
L 34.28125 42.828125 
Q 41.5 42.828125 45.03125 45.53125 
Q 48.578125 48.25 48.578125 53.8125 
Q 48.578125 59.328125 45.03125 62.0625 
Q 41.5 64.796875 34.28125 64.796875 
z
M 9.8125 72.90625 
L 35.015625 72.90625 
Q 46.296875 72.90625 52.390625 68.21875 
Q 58.5 63.53125 58.5 54.890625 
Q 58.5 48.1875 55.375 44.234375 
Q 52.25 40.28125 46.1875 39.3125 
Q 53.46875 37.75 57.5 32.78125 
Q 61.53125 27.828125 61.53125 20.40625 
Q 61.53125 10.640625 54.890625 5.3125 
Q 48.25 0 35.984375 0 
L 9.8125 0 
z
" id="DejaVuSans-66"/>
      <path d="M 9.8125 72.90625 
L 51.703125 72.90625 
L 51.703125 64.59375 
L 19.671875 64.59375 
L 19.671875 43.109375 
L 48.578125 43.109375 
L 48.578125 34.8125 
L 19.671875 34.8125 
L 19.671875 0 
L 9.8125 0 
z
" id="DejaVuSans-70"/>
     </defs>
     <g transform="translate(109 300.009688)scale(0.1 -0.1)">
      <use xlink:href="#DejaVuSans-82"/>
      <use x="69.482422" xlink:href="#DejaVuSans-66"/>
      <use x="138.085938" xlink:href="#DejaVuSans-70"/>
     </g>
    </g>
    <g id="line2d_40">
     <path d="M 81 311.187813 
L 101 311.187813 
" style="fill:none;stroke:#2ca02c;stroke-linecap:square;stroke-width:1.5;"/>
    </g>
    <g id="line2d_41"/>
    <g id="text_19">
     <!-- Matrn-1/2 -->
     <defs>
      <path d="M 9.8125 72.90625 
L 24.515625 72.90625 
L 43.109375 23.296875 
L 61.8125 72.90625 
L 76.515625 72.90625 
L 76.515625 0 
L 66.890625 0 
L 66.890625 64.015625 
L 48.09375 14.015625 
L 38.1875 14.015625 
L 19.390625 64.015625 
L 19.390625 0 
L 9.8125 0 
z
" id="DejaVuSans-77"/>
      <path d="M 56.203125 29.59375 
L 56.203125 25.203125 
L 14.890625 25.203125 
Q 15.484375 15.921875 20.484375 11.0625 
Q 25.484375 6.203125 34.421875 6.203125 
Q 39.59375 6.203125 44.453125 7.46875 
Q 49.3125 8.734375 54.109375 11.28125 
L 54.109375 2.78125 
Q 49.265625 0.734375 44.1875 -0.34375 
Q 39.109375 -1.421875 33.890625 -1.421875 
Q 20.796875 -1.421875 13.15625 6.1875 
Q 5.515625 13.8125 5.515625 26.8125 
Q 5.515625 40.234375 12.765625 48.109375 
Q 20.015625 56 32.328125 56 
Q 43.359375 56 49.78125 48.890625 
Q 56.203125 41.796875 56.203125 29.59375 
z
M 47.21875 32.234375 
Q 47.125 39.59375 43.09375 43.984375 
Q 39.0625 48.390625 32.421875 48.390625 
Q 24.90625 48.390625 20.390625 44.140625 
Q 15.875 39.890625 15.1875 32.171875 
z
M 38.53125 79.984375 
L 48.25 79.984375 
L 32.34375 61.625 
L 24.859375 61.625 
z
" id="DejaVuSans-233"/>
      <path d="M 4.890625 31.390625 
L 31.203125 31.390625 
L 31.203125 23.390625 
L 4.890625 23.390625 
z
" id="DejaVuSans-45"/>
      <path d="M 25.390625 72.90625 
L 33.6875 72.90625 
L 8.296875 -9.28125 
L 0 -9.28125 
z
" id="DejaVuSans-47"/>
     </defs>
     <g transform="translate(109 314.687813)scale(0.1 -0.1)">
      <use xlink:href="#DejaVuSans-77"/>
      <use x="86.279297" xlink:href="#DejaVuSans-97"/>
      <use x="147.558594" xlink:href="#DejaVuSans-116"/>
      <use x="186.767578" xlink:href="#DejaVuSans-233"/>
      <use x="248.291016" xlink:href="#DejaVuSans-114"/>
      <use x="287.654297" xlink:href="#DejaVuSans-110"/>
      <use x="351.033203" xlink:href="#DejaVuSans-45"/>
      <use x="387.117188" xlink:href="#DejaVuSans-49"/>
      <use x="450.740234" xlink:href="#DejaVuSans-47"/>
      <use x="484.431641" xlink:href="#DejaVuSans-50"/>
     </g>
    </g>
    <g id="line2d_42">
     <path d="M 81 325.865938 
L 101 325.865938 
" style="fill:none;stroke:#d62728;stroke-linecap:square;stroke-width:1.5;"/>
    </g>
    <g id="line2d_43"/>
    <g id="text_20">
     <!-- Matrn-3/2 -->
     <g transform="translate(109 329.365938)scale(0.1 -0.1)">
      <use xlink:href="#DejaVuSans-77"/>
      <use x="86.279297" xlink:href="#DejaVuSans-97"/>
      <use x="147.558594" xlink:href="#DejaVuSans-116"/>
      <use x="186.767578" xlink:href="#DejaVuSans-233"/>
      <use x="248.291016" xlink:href="#DejaVuSans-114"/>
      <use x="287.654297" xlink:href="#DejaVuSans-110"/>
      <use x="351.033203" xlink:href="#DejaVuSans-45"/>
      <use x="387.117188" xlink:href="#DejaVuSans-51"/>
      <use x="450.740234" xlink:href="#DejaVuSans-47"/>
      <use x="484.431641" xlink:href="#DejaVuSans-50"/>
     </g>
    </g>
    <g id="line2d_44">
     <path d="M 81 340.544062 
L 101 340.544062 
" style="fill:none;stroke:#9467bd;stroke-linecap:square;stroke-width:1.5;"/>
    </g>
    <g id="line2d_45"/>
    <g id="text_21">
     <!-- Matrn-5/2 -->
     <g transform="translate(109 344.044062)scale(0.1 -0.1)">
      <use xlink:href="#DejaVuSans-77"/>
      <use x="86.279297" xlink:href="#DejaVuSans-97"/>
      <use x="147.558594" xlink:href="#DejaVuSans-116"/>
      <use x="186.767578" xlink:href="#DejaVuSans-233"/>
      <use x="248.291016" xlink:href="#DejaVuSans-114"/>
      <use x="287.654297" xlink:href="#DejaVuSans-110"/>
      <use x="351.033203" xlink:href="#DejaVuSans-45"/>
      <use x="387.117188" xlink:href="#DejaVuSans-53"/>
      <use x="450.740234" xlink:href="#DejaVuSans-47"/>
      <use x="484.431641" xlink:href="#DejaVuSans-50"/>
     </g>
    </g>
    <g id="line2d_46">
     <path d="M 81 355.222188 
L 101 355.222188 
" style="fill:none;stroke:#8c564b;stroke-linecap:square;stroke-width:1.5;"/>
    </g>
    <g id="line2d_47"/>
    <g id="text_22">
     <!-- RQ -->
     <defs>
      <path d="M 39.40625 66.21875 
Q 28.65625 66.21875 22.328125 58.203125 
Q 16.015625 50.203125 16.015625 36.375 
Q 16.015625 22.609375 22.328125 14.59375 
Q 28.65625 6.59375 39.40625 6.59375 
Q 50.140625 6.59375 56.421875 14.59375 
Q 62.703125 22.609375 62.703125 36.375 
Q 62.703125 50.203125 56.421875 58.203125 
Q 50.140625 66.21875 39.40625 66.21875 
z
M 53.21875 1.3125 
L 66.21875 -12.890625 
L 54.296875 -12.890625 
L 43.5 -1.21875 
Q 41.890625 -1.3125 41.03125 -1.359375 
Q 40.1875 -1.421875 39.40625 -1.421875 
Q 24.03125 -1.421875 14.8125 8.859375 
Q 5.609375 19.140625 5.609375 36.375 
Q 5.609375 53.65625 14.8125 63.9375 
Q 24.03125 74.21875 39.40625 74.21875 
Q 54.734375 74.21875 63.90625 63.9375 
Q 73.09375 53.65625 73.09375 36.375 
Q 73.09375 23.6875 67.984375 14.640625 
Q 62.890625 5.609375 53.21875 1.3125 
z
" id="DejaVuSans-81"/>
     </defs>
     <g transform="translate(109 358.722188)scale(0.1 -0.1)">
      <use xlink:href="#DejaVuSans-82"/>
      <use x="69.482422" xlink:href="#DejaVuSans-81"/>
     </g>
    </g>
    <g id="line2d_48">
     <path d="M 81 369.900313 
L 101 369.900313 
" style="fill:none;stroke:#e377c2;stroke-linecap:square;stroke-width:1.5;"/>
    </g>
    <g id="line2d_49"/>
    <g id="text_23">
     <!-- Dot Prod. -->
     <defs>
      <path d="M 19.671875 64.796875 
L 19.671875 8.109375 
L 31.59375 8.109375 
Q 46.6875 8.109375 53.6875 14.9375 
Q 60.6875 21.78125 60.6875 36.53125 
Q 60.6875 51.171875 53.6875 57.984375 
Q 46.6875 64.796875 31.59375 64.796875 
z
M 9.8125 72.90625 
L 30.078125 72.90625 
Q 51.265625 72.90625 61.171875 64.09375 
Q 71.09375 55.28125 71.09375 36.53125 
Q 71.09375 17.671875 61.125 8.828125 
Q 51.171875 0 30.078125 0 
L 9.8125 0 
z
" id="DejaVuSans-68"/>
      <path d="M 19.671875 64.796875 
L 19.671875 37.40625 
L 32.078125 37.40625 
Q 38.96875 37.40625 42.71875 40.96875 
Q 46.484375 44.53125 46.484375 51.125 
Q 46.484375 57.671875 42.71875 61.234375 
Q 38.96875 64.796875 32.078125 64.796875 
z
M 9.8125 72.90625 
L 32.078125 72.90625 
Q 44.34375 72.90625 50.609375 67.359375 
Q 56.890625 61.8125 56.890625 51.125 
Q 56.890625 40.328125 50.609375 34.8125 
Q 44.34375 29.296875 32.078125 29.296875 
L 19.671875 29.296875 
L 19.671875 0 
L 9.8125 0 
z
" id="DejaVuSans-80"/>
      <path d="M 10.6875 12.40625 
L 21 12.40625 
L 21 0 
L 10.6875 0 
z
" id="DejaVuSans-46"/>
     </defs>
     <g transform="translate(109 373.400313)scale(0.1 -0.1)">
      <use xlink:href="#DejaVuSans-68"/>
      <use x="77.001953" xlink:href="#DejaVuSans-111"/>
      <use x="138.183594" xlink:href="#DejaVuSans-116"/>
      <use x="177.392578" xlink:href="#DejaVuSans-32"/>
      <use x="209.179688" xlink:href="#DejaVuSans-80"/>
      <use x="267.732422" xlink:href="#DejaVuSans-114"/>
      <use x="306.595703" xlink:href="#DejaVuSans-111"/>
      <use x="367.777344" xlink:href="#DejaVuSans-100"/>
      <use x="431.253906" xlink:href="#DejaVuSans-46"/>
     </g>
    </g>
   </g>
  </g>
 </g>
 <defs>
  <clipPath id="pe1b854cb97">
   <rect height="332.64" width="446.4" x="72" y="51.84"/>
  </clipPath>
 </defs>
</svg>
