<?xml version="1.0" encoding="utf-8" standalone="no"?>
<!DOCTYPE svg PUBLIC "-//W3C//DTD SVG 1.1//EN"
  "http://www.w3.org/Graphics/SVG/1.1/DTD/svg11.dtd">
<!-- Created with matplotlib (https://matplotlib.org/) -->
<svg height="345.6pt" version="1.1" viewBox="0 0 460.8 345.6" width="460.8pt" xmlns="http://www.w3.org/2000/svg" xmlns:xlink="http://www.w3.org/1999/xlink">
 <defs>
  <style type="text/css">
*{stroke-linecap:butt;stroke-linejoin:round;}
  </style>
 </defs>
 <g id="figure_1">
  <g id="patch_1">
   <path d="M 0 345.6 
L 460.8 345.6 
L 460.8 0 
L 0 0 
z
" style="fill:#ffffff;"/>
  </g>
  <g id="axes_1">
   <g id="patch_2">
    <path d="M 57.6 307.584 
L 414.72 307.584 
L 414.72 41.472 
L 57.6 41.472 
z
" style="fill:#ffffff;"/>
   </g>
   <g id="PolyCollection_1">
    <defs>
     <path d="M 87.36 -277.204414 
L 87.36 -277.221968 
L 88.848 -274.652192 
L 90.336 -271.360373 
L 91.824 -267.368085 
L 93.312 -262.722408 
L 94.8 -257.487148 
L 96.288 -251.742132 
L 97.776 -245.581826 
L 99.264 -239.113296 
L 100.752 -232.453557 
L 102.24 -225.726415 
L 103.728 -219.058926 
L 105.216 -212.586349 
L 106.704 -209.770785 
L 108.192 -207.21151 
L 109.68 -204.840342 
L 111.168 -202.598493 
L 112.656 -200.430873 
L 114.144 -198.288891 
L 115.632 -196.132872 
L 117.12 -193.933973 
L 118.608 -191.675503 
L 120.096 -189.353595 
L 121.584 -186.977229 
L 123.072 -184.567633 
L 124.56 -182.165865 
L 126.048 -184.418656 
L 127.536 -187.078449 
L 129.024 -190.04445 
L 130.512 -193.223714 
L 132 -196.525069 
L 133.488 -199.861493 
L 134.976 -203.152167 
L 136.464 -206.324174 
L 137.952 -209.313826 
L 139.44 -212.06763 
L 140.928 -214.542914 
L 142.416 -216.708127 
L 143.904 -218.542838 
L 145.392 -220.037454 
L 146.88 -221.192667 
L 148.368 -222.018632 
L 149.856 -222.533891 
L 151.344 -222.76402 
L 152.832 -222.740029 
L 154.32 -222.496498 
L 155.808 -222.069506 
L 157.296 -221.494377 
L 158.784 -220.803322 
L 160.272 -220.02308 
L 161.76 -219.181391 
L 163.248 -222.103102 
L 164.736 -224.359371 
L 166.224 -225.83432 
L 167.712 -226.434319 
L 169.2 -226.082938 
L 170.688 -224.724265 
L 172.176 -222.325677 
L 173.664 -218.879905 
L 175.152 -214.406236 
L 176.64 -208.950756 
L 178.128 -202.58557 
L 179.616 -195.415712 
L 181.104 -190.667907 
L 182.592 -185.250455 
L 184.08 -179.141163 
L 185.568 -172.347133 
L 187.056 -164.897163 
L 188.544 -156.841869 
L 190.032 -148.252814 
L 191.52 -139.220693 
L 193.008 -129.8527 
L 194.496 -120.269228 
L 195.984 -110.600082 
L 197.472 -100.980434 
L 198.96 -91.555442 
L 200.448 -86.995825 
L 201.936 -83.216147 
L 203.424 -80.180115 
L 204.912 -77.843071 
L 206.4 -76.146241 
L 207.888 -75.019992 
L 209.376 -74.387167 
L 210.864 -74.166389 
L 212.352 -74.275198 
L 213.84 -74.632948 
L 215.328 -75.163398 
L 216.816 -75.79695 
L 218.304 -76.472541 
L 219.792 -77.139145 
L 221.28 -77.756908 
L 222.768 -78.297914 
L 224.256 -78.746564 
L 225.744 -79.099572 
L 227.232 -79.365575 
L 228.72 -79.564334 
L 230.208 -79.72553 
L 231.696 -79.887169 
L 233.184 -80.093603 
L 234.672 -80.393227 
L 236.16 -80.844641 
L 237.648 -85.517866 
L 239.136 -89.85181 
L 240.624 -93.778741 
L 242.112 -97.255665 
L 243.6 -100.256978 
L 245.088 -102.775269 
L 246.576 -104.82144 
L 248.064 -106.424092 
L 249.552 -107.628146 
L 251.04 -108.492735 
L 252.528 -109.088407 
L 254.016 -109.493773 
L 255.504 -109.800427 
L 256.992 -112.992183 
L 258.48 -116.019387 
L 259.968 -118.802815 
L 261.456 -121.281547 
L 262.944 -123.4074 
L 264.432 -125.147471 
L 265.92 -126.485905 
L 267.408 -127.424776 
L 268.896 -127.984016 
L 270.384 -128.200374 
L 271.872 -128.125451 
L 273.36 -127.822919 
L 274.848 -127.37376 
L 276.336 -129.563619 
L 277.824 -131.596413 
L 279.312 -133.391209 
L 280.8 -134.885378 
L 282.288 -136.029378 
L 283.776 -136.789535 
L 285.264 -137.149963 
L 286.752 -137.113529 
L 288.24 -136.70179 
L 289.728 -135.953947 
L 291.216 -134.92485 
L 292.704 -133.682203 
L 294.192 -132.311813 
L 295.68 -133.651928 
L 297.168 -134.887087 
L 298.656 -135.932939 
L 300.144 -136.719769 
L 301.632 -137.187319 
L 303.12 -137.287747 
L 304.608 -136.987889 
L 306.096 -136.270733 
L 307.584 -135.136045 
L 309.072 -133.600185 
L 310.56 -131.695156 
L 312.048 -129.475725 
L 313.536 -131.099006 
L 315.024 -132.880088 
L 316.512 -134.73965 
L 318 -136.603953 
L 319.488 -138.398948 
L 320.976 -140.052937 
L 322.464 -141.498988 
L 323.952 -142.677016 
L 325.44 -143.535534 
L 326.928 -144.033047 
L 328.416 -144.139098 
L 329.904 -143.834989 
L 331.392 -143.114191 
L 332.88 -141.982458 
L 334.368 -140.457658 
L 335.856 -138.569314 
L 337.344 -136.357865 
L 338.832 -133.873624 
L 340.32 -131.17544 
L 341.808 -128.329045 
L 343.296 -125.405112 
L 344.784 -122.477046 
L 346.272 -119.618552 
L 347.76 -116.90979 
L 349.248 -118.486468 
L 350.736 -119.798243 
L 352.224 -120.776978 
L 353.712 -121.374666 
L 355.2 -121.556832 
L 356.688 -121.304221 
L 358.176 -120.613926 
L 359.664 -119.499891 
L 361.152 -117.992728 
L 362.64 -116.138847 
L 364.128 -113.998915 
L 365.616 -111.645719 
L 367.104 -109.170241 
L 368.592 -109.986523 
L 370.08 -110.695545 
L 371.568 -111.21012 
L 373.056 -111.457937 
L 374.544 -111.375358 
L 376.032 -110.909442 
L 377.52 -110.019393 
L 379.008 -108.677402 
L 380.496 -106.868868 
L 381.984 -104.592038 
L 383.472 -101.857138 
L 384.96 -98.693803 
L 384.96 -98.676279 
L 384.96 -98.676279 
L 383.472 -96.944865 
L 381.984 -95.763412 
L 380.496 -95.14474 
L 379.008 -95.080205 
L 377.52 -95.547645 
L 376.032 -96.51111 
L 374.544 -97.921169 
L 373.056 -99.715827 
L 371.568 -101.822047 
L 370.08 -104.157844 
L 368.592 -106.634876 
L 367.104 -109.152692 
L 365.616 -108.302123 
L 364.128 -107.490355 
L 362.64 -106.804858 
L 361.152 -106.318149 
L 359.664 -106.09364 
L 358.176 -106.183151 
L 356.688 -106.62494 
L 355.2 -107.442333 
L 353.712 -108.643021 
L 352.224 -110.219017 
L 350.736 -112.14728 
L 349.248 -114.390928 
L 347.76 -116.892229 
L 346.272 -115.11019 
L 344.784 -113.188552 
L 343.296 -111.214017 
L 341.808 -109.265246 
L 340.32 -107.418981 
L 338.832 -105.747661 
L 337.344 -104.317292 
L 335.856 -103.185637 
L 334.368 -102.400716 
L 332.88 -101.999642 
L 331.392 -102.007753 
L 329.904 -102.438053 
L 328.416 -103.290926 
L 326.928 -104.554135 
L 325.44 -106.203083 
L 323.952 -108.201369 
L 322.464 -110.501631 
L 320.976 -113.04671 
L 319.488 -115.771141 
L 318 -118.602978 
L 316.512 -121.465945 
L 315.024 -124.281886 
L 313.536 -126.973442 
L 312.048 -129.458155 
L 310.56 -128.048416 
L 309.072 -126.89902 
L 307.584 -126.0627 
L 306.096 -125.569598 
L 304.608 -125.434246 
L 303.12 -125.65447 
L 301.632 -126.211045 
L 300.144 -127.068177 
L 298.656 -128.174831 
L 297.168 -129.466873 
L 295.68 -130.86995 
L 294.192 -132.29426 
L 292.704 -130.918079 
L 291.216 -129.57263 
L 289.728 -128.336043 
L 288.24 -127.267848 
L 286.752 -126.414434 
L 285.264 -125.806502 
L 283.776 -125.45735 
L 282.288 -125.362121 
L 280.8 -125.49804 
L 279.312 -125.825654 
L 277.824 -126.290999 
L 276.336 -126.828565 
L 274.848 -127.356202 
L 273.36 -125.078304 
L 271.872 -122.782637 
L 270.384 -120.553798 
L 268.896 -118.460326 
L 267.408 -116.559626 
L 265.92 -114.894805 
L 264.432 -113.49228 
L 262.944 -112.36029 
L 261.456 -111.488388 
L 259.968 -110.847923 
L 258.48 -110.393473 
L 256.992 -110.065141 
L 255.504 -109.782866 
L 254.016 -106.494298 
L 252.528 -103.178853 
L 251.04 -99.92233 
L 249.552 -96.796607 
L 248.064 -93.865168 
L 246.576 -91.180473 
L 245.088 -88.782008 
L 243.6 -86.695081 
L 242.112 -84.930401 
L 240.624 -83.484425 
L 239.136 -82.340411 
L 237.648 -81.470088 
L 236.16 -80.827072 
L 234.672 -75.878889 
L 233.184 -70.731932 
L 231.696 -65.489269 
L 230.208 -60.252006 
L 228.72 -55.125432 
L 227.232 -50.216521 
L 225.744 -45.63158 
L 224.256 -41.474091 
L 222.768 -37.842763 
L 221.28 -34.82979 
L 219.792 -32.519281 
L 218.304 -30.985848 
L 216.816 -30.293301 
L 215.328 -30.493434 
L 213.84 -31.624877 
L 212.352 -33.712021 
L 210.864 -36.764028 
L 209.376 -40.773971 
L 207.888 -45.718165 
L 206.4 -51.555758 
L 204.912 -58.228685 
L 203.424 -65.662056 
L 201.936 -73.765058 
L 200.448 -82.432443 
L 198.96 -91.537876 
L 197.472 -96.876518 
L 195.984 -102.971557 
L 194.496 -109.794878 
L 193.008 -117.286179 
L 191.52 -125.362206 
L 190.032 -133.918197 
L 188.544 -142.830289 
L 187.056 -151.958804 
L 185.568 -161.152305 
L 184.08 -170.252263 
L 182.592 -179.098136 
L 181.104 -187.532625 
L 179.616 -195.398168 
L 178.128 -199.499568 
L 176.64 -202.993456 
L 175.152 -205.948327 
L 173.664 -208.432172 
L 172.176 -210.517076 
L 170.688 -212.275162 
L 169.2 -213.774823 
L 167.712 -215.077431 
L 166.224 -216.234698 
L 164.736 -217.286787 
L 163.248 -218.261217 
L 161.76 -219.163842 
L 160.272 -215.684725 
L 158.784 -211.762028 
L 157.296 -207.529127 
L 155.808 -203.109302 
L 154.32 -198.621415 
L 152.832 -194.177307 
L 151.344 -189.879665 
L 149.856 -185.820357 
L 148.368 -182.07922 
L 146.88 -178.723251 
L 145.392 -175.806151 
L 143.904 -173.368175 
L 142.416 -171.436228 
L 140.928 -170.02418 
L 139.44 -169.133374 
L 137.952 -168.753302 
L 136.464 -168.862459 
L 134.976 -169.42939 
L 133.488 -170.41393 
L 132 -171.768663 
L 130.512 -173.440601 
L 129.024 -175.373085 
L 127.536 -177.507876 
L 126.048 -179.787395 
L 124.56 -182.148305 
L 123.072 -180.382064 
L 121.584 -179.175195 
L 120.096 -178.608356 
L 118.608 -178.740965 
L 117.12 -179.61738 
L 115.632 -181.264739 
L 114.144 -183.691295 
L 112.656 -186.885359 
L 111.168 -190.814931 
L 109.68 -195.428048 
L 108.192 -200.653878 
L 106.704 -206.40453 
L 105.216 -212.568793 
L 103.728 -215.688924 
L 102.24 -219.15652 
L 100.752 -223.023908 
L 99.264 -227.324409 
L 97.776 -232.079411 
L 96.288 -237.297346 
L 94.8 -242.973359 
L 93.312 -249.089629 
L 91.824 -255.616306 
L 90.336 -262.512971 
L 88.848 -269.730493 
L 87.36 -277.204414 
z
" id="m1e58ae2bc0"/>
    </defs>
    <g clip-path="url(#pe3bd55cb30)">
     <use style="fill:#347aeb;fill-opacity:0.6;" x="0" xlink:href="#m1e58ae2bc0" y="345.6"/>
    </g>
   </g>
   <g id="PathCollection_1">
    <defs>
     <path d="M 0 3 
C 0.795609 3 1.55874 2.683901 2.12132 2.12132 
C 2.683901 1.55874 3 0.795609 3 0 
C 3 -0.795609 2.683901 -1.55874 2.12132 -2.12132 
C 1.55874 -2.683901 0.795609 -3 0 -3 
C -0.795609 -3 -1.55874 -2.683901 -2.12132 -2.12132 
C -2.683901 -1.55874 -3 -0.795609 -3 0 
C -3 0.795609 -2.683901 1.55874 -2.12132 2.12132 
C -1.55874 2.683901 -0.795609 3 0 3 
z
" id="m8d56ff7163" style="stroke:#1f77b4;"/>
    </defs>
    <g clip-path="url(#pe3bd55cb30)">
     <use style="fill:#1f77b4;stroke:#1f77b4;" x="87.36" xlink:href="#m8d56ff7163" y="68.386808"/>
     <use style="fill:#1f77b4;stroke:#1f77b4;" x="105.216" xlink:href="#m8d56ff7163" y="133.02243"/>
     <use style="fill:#1f77b4;stroke:#1f77b4;" x="124.56" xlink:href="#m8d56ff7163" y="163.442915"/>
     <use style="fill:#1f77b4;stroke:#1f77b4;" x="161.76" xlink:href="#m8d56ff7163" y="126.427384"/>
     <use style="fill:#1f77b4;stroke:#1f77b4;" x="179.616" xlink:href="#m8d56ff7163" y="150.193058"/>
     <use style="fill:#1f77b4;stroke:#1f77b4;" x="198.96" xlink:href="#m8d56ff7163" y="254.053343"/>
     <use style="fill:#1f77b4;stroke:#1f77b4;" x="236.16" xlink:href="#m8d56ff7163" y="264.764143"/>
     <use style="fill:#1f77b4;stroke:#1f77b4;" x="255.504" xlink:href="#m8d56ff7163" y="235.808354"/>
     <use style="fill:#1f77b4;stroke:#1f77b4;" x="274.848" xlink:href="#m8d56ff7163" y="218.235019"/>
     <use style="fill:#1f77b4;stroke:#1f77b4;" x="294.192" xlink:href="#m8d56ff7163" y="213.296963"/>
     <use style="fill:#1f77b4;stroke:#1f77b4;" x="312.048" xlink:href="#m8d56ff7163" y="216.13306"/>
     <use style="fill:#1f77b4;stroke:#1f77b4;" x="347.76" xlink:href="#m8d56ff7163" y="228.698991"/>
     <use style="fill:#1f77b4;stroke:#1f77b4;" x="367.104" xlink:href="#m8d56ff7163" y="236.438533"/>
     <use style="fill:#1f77b4;stroke:#1f77b4;" x="384.96" xlink:href="#m8d56ff7163" y="246.914959"/>
    </g>
   </g>
   <g id="matplotlib.axis_1">
    <g id="xtick_1">
     <g id="line2d_1">
      <defs>
       <path d="M 0 0 
L 0 3.5 
" id="mb6809b1d72" style="stroke:#000000;stroke-width:0.8;"/>
      </defs>
      <g>
       <use style="stroke:#000000;stroke-width:0.8;" x="87.36" xlink:href="#mb6809b1d72" y="307.584"/>
      </g>
     </g>
     <g id="text_1">
      <!-- 0.0 -->
      <defs>
       <path d="M 31.78125 66.40625 
Q 24.171875 66.40625 20.328125 58.90625 
Q 16.5 51.421875 16.5 36.375 
Q 16.5 21.390625 20.328125 13.890625 
Q 24.171875 6.390625 31.78125 6.390625 
Q 39.453125 6.390625 43.28125 13.890625 
Q 47.125 21.390625 47.125 36.375 
Q 47.125 51.421875 43.28125 58.90625 
Q 39.453125 66.40625 31.78125 66.40625 
z
M 31.78125 74.21875 
Q 44.046875 74.21875 50.515625 64.515625 
Q 56.984375 54.828125 56.984375 36.375 
Q 56.984375 17.96875 50.515625 8.265625 
Q 44.046875 -1.421875 31.78125 -1.421875 
Q 19.53125 -1.421875 13.0625 8.265625 
Q 6.59375 17.96875 6.59375 36.375 
Q 6.59375 54.828125 13.0625 64.515625 
Q 19.53125 74.21875 31.78125 74.21875 
z
" id="DejaVuSans-48"/>
       <path d="M 10.6875 12.40625 
L 21 12.40625 
L 21 0 
L 10.6875 0 
z
" id="DejaVuSans-46"/>
      </defs>
      <g transform="translate(79.408438 322.182437)scale(0.1 -0.1)">
       <use xlink:href="#DejaVuSans-48"/>
       <use x="63.623047" xlink:href="#DejaVuSans-46"/>
       <use x="95.410156" xlink:href="#DejaVuSans-48"/>
      </g>
     </g>
    </g>
    <g id="xtick_2">
     <g id="line2d_2">
      <g>
       <use style="stroke:#000000;stroke-width:0.8;" x="146.88" xlink:href="#mb6809b1d72" y="307.584"/>
      </g>
     </g>
     <g id="text_2">
      <!-- 0.2 -->
      <defs>
       <path d="M 19.1875 8.296875 
L 53.609375 8.296875 
L 53.609375 0 
L 7.328125 0 
L 7.328125 8.296875 
Q 12.9375 14.109375 22.625 23.890625 
Q 32.328125 33.6875 34.8125 36.53125 
Q 39.546875 41.84375 41.421875 45.53125 
Q 43.3125 49.21875 43.3125 52.78125 
Q 43.3125 58.59375 39.234375 62.25 
Q 35.15625 65.921875 28.609375 65.921875 
Q 23.96875 65.921875 18.8125 64.3125 
Q 13.671875 62.703125 7.8125 59.421875 
L 7.8125 69.390625 
Q 13.765625 71.78125 18.9375 73 
Q 24.125 74.21875 28.421875 74.21875 
Q 39.75 74.21875 46.484375 68.546875 
Q 53.21875 62.890625 53.21875 53.421875 
Q 53.21875 48.921875 51.53125 44.890625 
Q 49.859375 40.875 45.40625 35.40625 
Q 44.1875 33.984375 37.640625 27.21875 
Q 31.109375 20.453125 19.1875 8.296875 
z
" id="DejaVuSans-50"/>
      </defs>
      <g transform="translate(138.928438 322.182437)scale(0.1 -0.1)">
       <use xlink:href="#DejaVuSans-48"/>
       <use x="63.623047" xlink:href="#DejaVuSans-46"/>
       <use x="95.410156" xlink:href="#DejaVuSans-50"/>
      </g>
     </g>
    </g>
    <g id="xtick_3">
     <g id="line2d_3">
      <g>
       <use style="stroke:#000000;stroke-width:0.8;" x="206.4" xlink:href="#mb6809b1d72" y="307.584"/>
      </g>
     </g>
     <g id="text_3">
      <!-- 0.4 -->
      <defs>
       <path d="M 37.796875 64.3125 
L 12.890625 25.390625 
L 37.796875 25.390625 
z
M 35.203125 72.90625 
L 47.609375 72.90625 
L 47.609375 25.390625 
L 58.015625 25.390625 
L 58.015625 17.1875 
L 47.609375 17.1875 
L 47.609375 0 
L 37.796875 0 
L 37.796875 17.1875 
L 4.890625 17.1875 
L 4.890625 26.703125 
z
" id="DejaVuSans-52"/>
      </defs>
      <g transform="translate(198.448438 322.182437)scale(0.1 -0.1)">
       <use xlink:href="#DejaVuSans-48"/>
       <use x="63.623047" xlink:href="#DejaVuSans-46"/>
       <use x="95.410156" xlink:href="#DejaVuSans-52"/>
      </g>
     </g>
    </g>
    <g id="xtick_4">
     <g id="line2d_4">
      <g>
       <use style="stroke:#000000;stroke-width:0.8;" x="265.92" xlink:href="#mb6809b1d72" y="307.584"/>
      </g>
     </g>
     <g id="text_4">
      <!-- 0.6 -->
      <defs>
       <path d="M 33.015625 40.375 
Q 26.375 40.375 22.484375 35.828125 
Q 18.609375 31.296875 18.609375 23.390625 
Q 18.609375 15.53125 22.484375 10.953125 
Q 26.375 6.390625 33.015625 6.390625 
Q 39.65625 6.390625 43.53125 10.953125 
Q 47.40625 15.53125 47.40625 23.390625 
Q 47.40625 31.296875 43.53125 35.828125 
Q 39.65625 40.375 33.015625 40.375 
z
M 52.59375 71.296875 
L 52.59375 62.3125 
Q 48.875 64.0625 45.09375 64.984375 
Q 41.3125 65.921875 37.59375 65.921875 
Q 27.828125 65.921875 22.671875 59.328125 
Q 17.53125 52.734375 16.796875 39.40625 
Q 19.671875 43.65625 24.015625 45.921875 
Q 28.375 48.1875 33.59375 48.1875 
Q 44.578125 48.1875 50.953125 41.515625 
Q 57.328125 34.859375 57.328125 23.390625 
Q 57.328125 12.15625 50.6875 5.359375 
Q 44.046875 -1.421875 33.015625 -1.421875 
Q 20.359375 -1.421875 13.671875 8.265625 
Q 6.984375 17.96875 6.984375 36.375 
Q 6.984375 53.65625 15.1875 63.9375 
Q 23.390625 74.21875 37.203125 74.21875 
Q 40.921875 74.21875 44.703125 73.484375 
Q 48.484375 72.75 52.59375 71.296875 
z
" id="DejaVuSans-54"/>
      </defs>
      <g transform="translate(257.968437 322.182437)scale(0.1 -0.1)">
       <use xlink:href="#DejaVuSans-48"/>
       <use x="63.623047" xlink:href="#DejaVuSans-46"/>
       <use x="95.410156" xlink:href="#DejaVuSans-54"/>
      </g>
     </g>
    </g>
    <g id="xtick_5">
     <g id="line2d_5">
      <g>
       <use style="stroke:#000000;stroke-width:0.8;" x="325.44" xlink:href="#mb6809b1d72" y="307.584"/>
      </g>
     </g>
     <g id="text_5">
      <!-- 0.8 -->
      <defs>
       <path d="M 31.78125 34.625 
Q 24.75 34.625 20.71875 30.859375 
Q 16.703125 27.09375 16.703125 20.515625 
Q 16.703125 13.921875 20.71875 10.15625 
Q 24.75 6.390625 31.78125 6.390625 
Q 38.8125 6.390625 42.859375 10.171875 
Q 46.921875 13.96875 46.921875 20.515625 
Q 46.921875 27.09375 42.890625 30.859375 
Q 38.875 34.625 31.78125 34.625 
z
M 21.921875 38.8125 
Q 15.578125 40.375 12.03125 44.71875 
Q 8.5 49.078125 8.5 55.328125 
Q 8.5 64.0625 14.71875 69.140625 
Q 20.953125 74.21875 31.78125 74.21875 
Q 42.671875 74.21875 48.875 69.140625 
Q 55.078125 64.0625 55.078125 55.328125 
Q 55.078125 49.078125 51.53125 44.71875 
Q 48 40.375 41.703125 38.8125 
Q 48.828125 37.15625 52.796875 32.3125 
Q 56.78125 27.484375 56.78125 20.515625 
Q 56.78125 9.90625 50.3125 4.234375 
Q 43.84375 -1.421875 31.78125 -1.421875 
Q 19.734375 -1.421875 13.25 4.234375 
Q 6.78125 9.90625 6.78125 20.515625 
Q 6.78125 27.484375 10.78125 32.3125 
Q 14.796875 37.15625 21.921875 38.8125 
z
M 18.3125 54.390625 
Q 18.3125 48.734375 21.84375 45.5625 
Q 25.390625 42.390625 31.78125 42.390625 
Q 38.140625 42.390625 41.71875 45.5625 
Q 45.3125 48.734375 45.3125 54.390625 
Q 45.3125 60.0625 41.71875 63.234375 
Q 38.140625 66.40625 31.78125 66.40625 
Q 25.390625 66.40625 21.84375 63.234375 
Q 18.3125 60.0625 18.3125 54.390625 
z
" id="DejaVuSans-56"/>
      </defs>
      <g transform="translate(317.488437 322.182437)scale(0.1 -0.1)">
       <use xlink:href="#DejaVuSans-48"/>
       <use x="63.623047" xlink:href="#DejaVuSans-46"/>
       <use x="95.410156" xlink:href="#DejaVuSans-56"/>
      </g>
     </g>
    </g>
    <g id="xtick_6">
     <g id="line2d_6">
      <g>
       <use style="stroke:#000000;stroke-width:0.8;" x="384.96" xlink:href="#mb6809b1d72" y="307.584"/>
      </g>
     </g>
     <g id="text_6">
      <!-- 1.0 -->
      <defs>
       <path d="M 12.40625 8.296875 
L 28.515625 8.296875 
L 28.515625 63.921875 
L 10.984375 60.40625 
L 10.984375 69.390625 
L 28.421875 72.90625 
L 38.28125 72.90625 
L 38.28125 8.296875 
L 54.390625 8.296875 
L 54.390625 0 
L 12.40625 0 
z
" id="DejaVuSans-49"/>
      </defs>
      <g transform="translate(377.008438 322.182437)scale(0.1 -0.1)">
       <use xlink:href="#DejaVuSans-49"/>
       <use x="63.623047" xlink:href="#DejaVuSans-46"/>
       <use x="95.410156" xlink:href="#DejaVuSans-48"/>
      </g>
     </g>
    </g>
   </g>
   <g id="matplotlib.axis_2">
    <g id="ytick_1">
     <g id="line2d_7">
      <defs>
       <path d="M 0 0 
L -3.5 0 
" id="mfbd8588da3" style="stroke:#000000;stroke-width:0.8;"/>
      </defs>
      <g>
       <use style="stroke:#000000;stroke-width:0.8;" x="57.6" xlink:href="#mfbd8588da3" y="275.540548"/>
      </g>
     </g>
     <g id="text_7">
      <!-- −0.6 -->
      <defs>
       <path d="M 10.59375 35.5 
L 73.1875 35.5 
L 73.1875 27.203125 
L 10.59375 27.203125 
z
" id="DejaVuSans-8722"/>
      </defs>
      <g transform="translate(26.317187 279.339767)scale(0.1 -0.1)">
       <use xlink:href="#DejaVuSans-8722"/>
       <use x="83.789062" xlink:href="#DejaVuSans-48"/>
       <use x="147.412109" xlink:href="#DejaVuSans-46"/>
       <use x="179.199219" xlink:href="#DejaVuSans-54"/>
      </g>
     </g>
    </g>
    <g id="ytick_2">
     <g id="line2d_8">
      <g>
       <use style="stroke:#000000;stroke-width:0.8;" x="57.6" xlink:href="#mfbd8588da3" y="231.451171"/>
      </g>
     </g>
     <g id="text_8">
      <!-- −0.5 -->
      <defs>
       <path d="M 10.796875 72.90625 
L 49.515625 72.90625 
L 49.515625 64.59375 
L 19.828125 64.59375 
L 19.828125 46.734375 
Q 21.96875 47.46875 24.109375 47.828125 
Q 26.265625 48.1875 28.421875 48.1875 
Q 40.625 48.1875 47.75 41.5 
Q 54.890625 34.8125 54.890625 23.390625 
Q 54.890625 11.625 47.5625 5.09375 
Q 40.234375 -1.421875 26.90625 -1.421875 
Q 22.3125 -1.421875 17.546875 -0.640625 
Q 12.796875 0.140625 7.71875 1.703125 
L 7.71875 11.625 
Q 12.109375 9.234375 16.796875 8.0625 
Q 21.484375 6.890625 26.703125 6.890625 
Q 35.15625 6.890625 40.078125 11.328125 
Q 45.015625 15.765625 45.015625 23.390625 
Q 45.015625 31 40.078125 35.4375 
Q 35.15625 39.890625 26.703125 39.890625 
Q 22.75 39.890625 18.8125 39.015625 
Q 14.890625 38.140625 10.796875 36.28125 
z
" id="DejaVuSans-53"/>
      </defs>
      <g transform="translate(26.317187 235.25039)scale(0.1 -0.1)">
       <use xlink:href="#DejaVuSans-8722"/>
       <use x="83.789062" xlink:href="#DejaVuSans-48"/>
       <use x="147.412109" xlink:href="#DejaVuSans-46"/>
       <use x="179.199219" xlink:href="#DejaVuSans-53"/>
      </g>
     </g>
    </g>
    <g id="ytick_3">
     <g id="line2d_9">
      <g>
       <use style="stroke:#000000;stroke-width:0.8;" x="57.6" xlink:href="#mfbd8588da3" y="187.361794"/>
      </g>
     </g>
     <g id="text_9">
      <!-- −0.4 -->
      <g transform="translate(26.317187 191.161012)scale(0.1 -0.1)">
       <use xlink:href="#DejaVuSans-8722"/>
       <use x="83.789062" xlink:href="#DejaVuSans-48"/>
       <use x="147.412109" xlink:href="#DejaVuSans-46"/>
       <use x="179.199219" xlink:href="#DejaVuSans-52"/>
      </g>
     </g>
    </g>
    <g id="ytick_4">
     <g id="line2d_10">
      <g>
       <use style="stroke:#000000;stroke-width:0.8;" x="57.6" xlink:href="#mfbd8588da3" y="143.272416"/>
      </g>
     </g>
     <g id="text_10">
      <!-- −0.3 -->
      <defs>
       <path d="M 40.578125 39.3125 
Q 47.65625 37.796875 51.625 33 
Q 55.609375 28.21875 55.609375 21.1875 
Q 55.609375 10.40625 48.1875 4.484375 
Q 40.765625 -1.421875 27.09375 -1.421875 
Q 22.515625 -1.421875 17.65625 -0.515625 
Q 12.796875 0.390625 7.625 2.203125 
L 7.625 11.71875 
Q 11.71875 9.328125 16.59375 8.109375 
Q 21.484375 6.890625 26.8125 6.890625 
Q 36.078125 6.890625 40.9375 10.546875 
Q 45.796875 14.203125 45.796875 21.1875 
Q 45.796875 27.640625 41.28125 31.265625 
Q 36.765625 34.90625 28.71875 34.90625 
L 20.21875 34.90625 
L 20.21875 43.015625 
L 29.109375 43.015625 
Q 36.375 43.015625 40.234375 45.921875 
Q 44.09375 48.828125 44.09375 54.296875 
Q 44.09375 59.90625 40.109375 62.90625 
Q 36.140625 65.921875 28.71875 65.921875 
Q 24.65625 65.921875 20.015625 65.03125 
Q 15.375 64.15625 9.8125 62.3125 
L 9.8125 71.09375 
Q 15.4375 72.65625 20.34375 73.4375 
Q 25.25 74.21875 29.59375 74.21875 
Q 40.828125 74.21875 47.359375 69.109375 
Q 53.90625 64.015625 53.90625 55.328125 
Q 53.90625 49.265625 50.4375 45.09375 
Q 46.96875 40.921875 40.578125 39.3125 
z
" id="DejaVuSans-51"/>
      </defs>
      <g transform="translate(26.317187 147.071635)scale(0.1 -0.1)">
       <use xlink:href="#DejaVuSans-8722"/>
       <use x="83.789062" xlink:href="#DejaVuSans-48"/>
       <use x="147.412109" xlink:href="#DejaVuSans-46"/>
       <use x="179.199219" xlink:href="#DejaVuSans-51"/>
      </g>
     </g>
    </g>
    <g id="ytick_5">
     <g id="line2d_11">
      <g>
       <use style="stroke:#000000;stroke-width:0.8;" x="57.6" xlink:href="#mfbd8588da3" y="99.183039"/>
      </g>
     </g>
     <g id="text_11">
      <!-- −0.2 -->
      <g transform="translate(26.317187 102.982258)scale(0.1 -0.1)">
       <use xlink:href="#DejaVuSans-8722"/>
       <use x="83.789062" xlink:href="#DejaVuSans-48"/>
       <use x="147.412109" xlink:href="#DejaVuSans-46"/>
       <use x="179.199219" xlink:href="#DejaVuSans-50"/>
      </g>
     </g>
    </g>
    <g id="ytick_6">
     <g id="line2d_12">
      <g>
       <use style="stroke:#000000;stroke-width:0.8;" x="57.6" xlink:href="#mfbd8588da3" y="55.093662"/>
      </g>
     </g>
     <g id="text_12">
      <!-- −0.1 -->
      <g transform="translate(26.317187 58.89288)scale(0.1 -0.1)">
       <use xlink:href="#DejaVuSans-8722"/>
       <use x="83.789062" xlink:href="#DejaVuSans-48"/>
       <use x="147.412109" xlink:href="#DejaVuSans-46"/>
       <use x="179.199219" xlink:href="#DejaVuSans-49"/>
      </g>
     </g>
    </g>
   </g>
   <g id="line2d_13">
    <path clip-path="url(#pe3bd55cb30)" d="M 87.36 68.386809 
L 90.336 78.663328 
L 94.8 95.369746 
L 100.752 117.861268 
L 103.728 128.226075 
L 106.704 137.512342 
L 108.192 141.667306 
L 109.68 145.465805 
L 111.168 148.893288 
L 112.656 151.941884 
L 114.144 154.609907 
L 115.632 156.901195 
L 117.12 158.824324 
L 118.608 160.391766 
L 120.096 161.619024 
L 121.584 162.523788 
L 123.072 163.125152 
L 124.56 163.442915 
L 126.048 163.496975 
L 127.536 163.306838 
L 129.024 162.891233 
L 130.512 162.267843 
L 132 161.453134 
L 133.488 160.462289 
L 134.976 159.309222 
L 137.952 156.566436 
L 140.928 153.316453 
L 143.904 149.644493 
L 146.88 145.642041 
L 157.296 131.088248 
L 158.784 129.317325 
L 160.272 127.746098 
L 161.76 126.427384 
L 163.248 125.417841 
L 164.736 124.776921 
L 166.224 124.565491 
L 167.712 124.844125 
L 169.2 125.671119 
L 170.688 127.100287 
L 172.176 129.178624 
L 173.664 131.943961 
L 175.152 135.422718 
L 176.64 139.627894 
L 178.128 144.557431 
L 179.616 150.19306 
L 181.104 156.499734 
L 182.592 163.425705 
L 185.568 178.850281 
L 188.544 195.763921 
L 194.496 230.567947 
L 197.472 246.671524 
L 200.448 260.885866 
L 201.936 267.109398 
L 203.424 272.678914 
L 204.912 277.564122 
L 206.4 281.749001 
L 207.888 285.230922 
L 209.376 288.019431 
L 210.864 290.134791 
L 212.352 291.606391 
L 213.84 292.471087 
L 215.328 292.771584 
L 216.816 292.554874 
L 218.304 291.870805 
L 219.792 290.770787 
L 221.28 289.306651 
L 222.768 287.529661 
L 224.256 285.489673 
L 227.232 280.808952 
L 230.208 275.611232 
L 239.136 259.503889 
L 242.112 254.506967 
L 245.088 249.821361 
L 248.064 245.45537 
L 251.04 241.392467 
L 254.016 237.605964 
L 256.992 234.071338 
L 259.968 230.774631 
L 262.944 227.716155 
L 265.92 224.909645 
L 268.896 222.377829 
L 271.872 220.145956 
L 274.848 218.235019 
L 277.824 216.656294 
L 280.8 215.408291 
L 283.776 214.476557 
L 286.752 213.836019 
L 289.728 213.455005 
L 292.704 213.299859 
L 295.68 213.339061 
L 298.656 213.546115 
L 303.12 214.128891 
L 307.584 215.000627 
L 312.048 216.13306 
L 316.512 217.497203 
L 322.464 219.599691 
L 341.808 226.802855 
L 358.176 232.201462 
L 361.152 233.444561 
L 364.128 234.855365 
L 368.592 237.289301 
L 374.544 240.951736 
L 380.496 244.593196 
L 383.472 246.198998 
L 384.96 246.914959 
L 384.96 246.914959 
" style="fill:none;stroke:#333333;stroke-linecap:square;stroke-width:1.5;"/>
   </g>
   <g id="line2d_14">
    <path clip-path="url(#pe3bd55cb30)" d="M 87.36 68.386808 
L 105.216 133.02243 
L 124.56 163.442915 
L 161.76 126.427384 
L 179.616 150.193058 
L 198.96 254.053343 
L 236.16 264.764143 
L 255.504 235.808354 
L 274.848 218.235019 
L 294.192 213.296963 
L 312.048 216.13306 
L 347.76 228.698991 
L 367.104 236.438533 
L 384.96 246.914959 
" style="fill:none;stroke:#666666;stroke-linecap:square;stroke-width:1.5;"/>
    <defs>
     <path d="M 0 3 
C 0.795609 3 1.55874 2.683901 2.12132 2.12132 
C 2.683901 1.55874 3 0.795609 3 0 
C 3 -0.795609 2.683901 -1.55874 2.12132 -2.12132 
C 1.55874 -2.683901 0.795609 -3 0 -3 
C -0.795609 -3 -1.55874 -2.683901 -2.12132 -2.12132 
C -2.683901 -1.55874 -3 -0.795609 -3 0 
C -3 0.795609 -2.683901 1.55874 -2.12132 2.12132 
C -1.55874 2.683901 -0.795609 3 0 3 
z
" id="md267441d88" style="stroke:#666666;"/>
    </defs>
    <g clip-path="url(#pe3bd55cb30)">
     <use style="fill:#666666;stroke:#666666;" x="87.36" xlink:href="#md267441d88" y="68.386808"/>
     <use style="fill:#666666;stroke:#666666;" x="105.216" xlink:href="#md267441d88" y="133.02243"/>
     <use style="fill:#666666;stroke:#666666;" x="124.56" xlink:href="#md267441d88" y="163.442915"/>
     <use style="fill:#666666;stroke:#666666;" x="161.76" xlink:href="#md267441d88" y="126.427384"/>
     <use style="fill:#666666;stroke:#666666;" x="179.616" xlink:href="#md267441d88" y="150.193058"/>
     <use style="fill:#666666;stroke:#666666;" x="198.96" xlink:href="#md267441d88" y="254.053343"/>
     <use style="fill:#666666;stroke:#666666;" x="236.16" xlink:href="#md267441d88" y="264.764143"/>
     <use style="fill:#666666;stroke:#666666;" x="255.504" xlink:href="#md267441d88" y="235.808354"/>
     <use style="fill:#666666;stroke:#666666;" x="274.848" xlink:href="#md267441d88" y="218.235019"/>
     <use style="fill:#666666;stroke:#666666;" x="294.192" xlink:href="#md267441d88" y="213.296963"/>
     <use style="fill:#666666;stroke:#666666;" x="312.048" xlink:href="#md267441d88" y="216.13306"/>
     <use style="fill:#666666;stroke:#666666;" x="347.76" xlink:href="#md267441d88" y="228.698991"/>
     <use style="fill:#666666;stroke:#666666;" x="367.104" xlink:href="#md267441d88" y="236.438533"/>
     <use style="fill:#666666;stroke:#666666;" x="384.96" xlink:href="#md267441d88" y="246.914959"/>
    </g>
   </g>
   <g id="line2d_15">
    <path clip-path="url(#pe3bd55cb30)" d="M 87.36 68.386808 
L 88.848 63.648 
L 90.336 74.659995 
L 91.824 97.463302 
L 94.8 154.090011 
L 96.288 176.147546 
L 97.776 188.806834 
L 99.264 190.930267 
L 100.752 183.506632 
L 102.24 169.10037 
L 105.216 133.02243 
L 106.704 117.790473 
L 108.192 107.438272 
L 109.68 102.895959 
L 111.168 104.052274 
L 112.656 109.964789 
L 114.144 119.158983 
L 117.12 140.722975 
L 118.608 150.163556 
L 120.096 157.374917 
L 121.584 161.928137 
L 123.072 163.830714 
L 124.56 163.442915 
L 126.048 161.363643 
L 127.536 158.30758 
L 129.024 154.991422 
L 130.512 152.041703 
L 132 149.931065 
L 133.488 148.944745 
L 134.976 149.175029 
L 136.464 150.538638 
L 137.952 152.810552 
L 140.928 158.734008 
L 142.416 161.627888 
L 143.904 163.997552 
L 145.392 165.552338 
L 146.88 166.082488 
L 148.368 165.469518 
L 149.856 163.687734 
L 151.344 160.798343 
L 152.832 156.937929 
L 154.32 152.303156 
L 157.296 141.693275 
L 160.272 131.084617 
L 161.76 126.427384 
L 163.248 122.499517 
L 164.736 119.480315 
L 166.224 117.508046 
L 167.712 116.678194 
L 169.2 117.043905 
L 170.688 118.618221 
L 172.176 121.377691 
L 173.664 125.266952 
L 175.152 130.203908 
L 176.64 136.085175 
L 178.128 142.791518 
L 181.104 158.154081 
L 184.08 175.207797 
L 190.032 210.293781 
L 193.008 226.630863 
L 195.984 241.342749 
L 197.472 247.964664 
L 198.96 254.053343 
L 200.448 259.588647 
L 201.936 264.559561 
L 203.424 268.963226 
L 204.912 272.80395 
L 206.4 276.092223 
L 207.888 278.84377 
L 209.376 281.078648 
L 210.864 282.820407 
L 212.352 284.095309 
L 213.84 284.93163 
L 215.328 285.35903 
L 216.816 285.408 
L 218.304 285.109375 
L 219.792 284.493926 
L 221.28 283.592006 
L 222.768 282.433265 
L 224.256 281.046413 
L 225.744 279.459032 
L 228.72 275.786586 
L 231.696 271.609637 
L 236.16 264.764143 
L 246.576 248.307645 
L 251.04 241.769017 
L 254.016 237.723759 
L 256.992 233.968658 
L 259.968 230.525594 
L 262.944 227.407928 
L 265.92 224.621927 
L 268.896 222.168009 
L 271.872 220.041796 
L 274.848 218.235019 
L 277.824 216.736279 
L 280.8 215.531693 
L 283.776 214.605439 
L 286.752 213.940221 
L 289.728 213.517672 
L 292.704 213.318699 
L 295.68 213.323786 
L 298.656 213.513272 
L 301.632 213.867586 
L 306.096 214.666146 
L 310.56 215.729832 
L 315.024 217.000155 
L 320.976 218.924386 
L 329.904 222.094931 
L 353.712 230.935994 
L 361.152 233.866976 
L 367.104 236.438533 
L 371.568 238.585221 
L 376.032 240.993803 
L 380.496 243.741768 
L 383.472 245.804367 
L 384.96 246.914959 
L 384.96 246.914959 
" style="fill:none;stroke:#000000;stroke-linecap:square;stroke-width:1.5;"/>
   </g>
   <g id="line2d_16">
    <path clip-path="url(#pe3bd55cb30)" d="M 294.192 213.296963 
L 294.192 213.296963 
" style="fill:none;stroke:#ff00ff;stroke-linecap:square;stroke-width:1.5;"/>
    <defs>
     <path d="M 0 3 
C 0.795609 3 1.55874 2.683901 2.12132 2.12132 
C 2.683901 1.55874 3 0.795609 3 0 
C 3 -0.795609 2.683901 -1.55874 2.12132 -2.12132 
C 1.55874 -2.683901 0.795609 -3 0 -3 
C -0.795609 -3 -1.55874 -2.683901 -2.12132 -2.12132 
C -2.683901 -1.55874 -3 -0.795609 -3 0 
C -3 0.795609 -2.683901 1.55874 -2.12132 2.12132 
C -1.55874 2.683901 -0.795609 3 0 3 
z
" id="m9121b73084" style="stroke:#ff00ff;"/>
    </defs>
    <g clip-path="url(#pe3bd55cb30)">
     <use style="fill:#ff00ff;stroke:#ff00ff;" x="294.192" xlink:href="#m9121b73084" y="213.296963"/>
     <use style="fill:#ff00ff;stroke:#ff00ff;" x="294.192" xlink:href="#m9121b73084" y="213.296963"/>
    </g>
   </g>
   <g id="patch_3">
    <path d="M 57.6 307.584 
L 57.6 41.472 
" style="fill:none;stroke:#000000;stroke-linecap:square;stroke-linejoin:miter;stroke-width:0.8;"/>
   </g>
   <g id="patch_4">
    <path d="M 414.72 307.584 
L 414.72 41.472 
" style="fill:none;stroke:#000000;stroke-linecap:square;stroke-linejoin:miter;stroke-width:0.8;"/>
   </g>
   <g id="patch_5">
    <path d="M 57.6 307.584 
L 414.72 307.584 
" style="fill:none;stroke:#000000;stroke-linecap:square;stroke-linejoin:miter;stroke-width:0.8;"/>
   </g>
   <g id="patch_6">
    <path d="M 57.6 41.472 
L 414.72 41.472 
" style="fill:none;stroke:#000000;stroke-linecap:square;stroke-linejoin:miter;stroke-width:0.8;"/>
   </g>
   <g id="legend_1">
    <g id="patch_7">
     <path d="M 279.791875 122.8845 
L 407.72 122.8845 
Q 409.72 122.8845 409.72 120.8845 
L 409.72 48.472 
Q 409.72 46.472 407.72 46.472 
L 279.791875 46.472 
Q 277.791875 46.472 277.791875 48.472 
L 277.791875 120.8845 
Q 277.791875 122.8845 279.791875 122.8845 
z
" style="fill:#ffffff;opacity:0.8;stroke:#cccccc;stroke-linejoin:miter;"/>
    </g>
    <g id="line2d_17">
     <path d="M 281.791875 54.570438 
L 301.791875 54.570438 
" style="fill:none;stroke:#333333;stroke-linecap:square;stroke-width:1.5;"/>
    </g>
    <g id="line2d_18"/>
    <g id="text_13">
     <!-- GP predicted mean -->
     <defs>
      <path d="M 59.515625 10.40625 
L 59.515625 29.984375 
L 43.40625 29.984375 
L 43.40625 38.09375 
L 69.28125 38.09375 
L 69.28125 6.78125 
Q 63.578125 2.734375 56.6875 0.65625 
Q 49.8125 -1.421875 42 -1.421875 
Q 24.90625 -1.421875 15.25 8.5625 
Q 5.609375 18.5625 5.609375 36.375 
Q 5.609375 54.25 15.25 64.234375 
Q 24.90625 74.21875 42 74.21875 
Q 49.125 74.21875 55.546875 72.453125 
Q 61.96875 70.703125 67.390625 67.28125 
L 67.390625 56.78125 
Q 61.921875 61.421875 55.765625 63.765625 
Q 49.609375 66.109375 42.828125 66.109375 
Q 29.4375 66.109375 22.71875 58.640625 
Q 16.015625 51.171875 16.015625 36.375 
Q 16.015625 21.625 22.71875 14.15625 
Q 29.4375 6.6875 42.828125 6.6875 
Q 48.046875 6.6875 52.140625 7.59375 
Q 56.25 8.5 59.515625 10.40625 
z
" id="DejaVuSans-71"/>
      <path d="M 19.671875 64.796875 
L 19.671875 37.40625 
L 32.078125 37.40625 
Q 38.96875 37.40625 42.71875 40.96875 
Q 46.484375 44.53125 46.484375 51.125 
Q 46.484375 57.671875 42.71875 61.234375 
Q 38.96875 64.796875 32.078125 64.796875 
z
M 9.8125 72.90625 
L 32.078125 72.90625 
Q 44.34375 72.90625 50.609375 67.359375 
Q 56.890625 61.8125 56.890625 51.125 
Q 56.890625 40.328125 50.609375 34.8125 
Q 44.34375 29.296875 32.078125 29.296875 
L 19.671875 29.296875 
L 19.671875 0 
L 9.8125 0 
z
" id="DejaVuSans-80"/>
      <path id="DejaVuSans-32"/>
      <path d="M 18.109375 8.203125 
L 18.109375 -20.796875 
L 9.078125 -20.796875 
L 9.078125 54.6875 
L 18.109375 54.6875 
L 18.109375 46.390625 
Q 20.953125 51.265625 25.265625 53.625 
Q 29.59375 56 35.59375 56 
Q 45.5625 56 51.78125 48.09375 
Q 58.015625 40.1875 58.015625 27.296875 
Q 58.015625 14.40625 51.78125 6.484375 
Q 45.5625 -1.421875 35.59375 -1.421875 
Q 29.59375 -1.421875 25.265625 0.953125 
Q 20.953125 3.328125 18.109375 8.203125 
z
M 48.6875 27.296875 
Q 48.6875 37.203125 44.609375 42.84375 
Q 40.53125 48.484375 33.40625 48.484375 
Q 26.265625 48.484375 22.1875 42.84375 
Q 18.109375 37.203125 18.109375 27.296875 
Q 18.109375 17.390625 22.1875 11.75 
Q 26.265625 6.109375 33.40625 6.109375 
Q 40.53125 6.109375 44.609375 11.75 
Q 48.6875 17.390625 48.6875 27.296875 
z
" id="DejaVuSans-112"/>
      <path d="M 41.109375 46.296875 
Q 39.59375 47.171875 37.8125 47.578125 
Q 36.03125 48 33.890625 48 
Q 26.265625 48 22.1875 43.046875 
Q 18.109375 38.09375 18.109375 28.8125 
L 18.109375 0 
L 9.078125 0 
L 9.078125 54.6875 
L 18.109375 54.6875 
L 18.109375 46.1875 
Q 20.953125 51.171875 25.484375 53.578125 
Q 30.03125 56 36.53125 56 
Q 37.453125 56 38.578125 55.875 
Q 39.703125 55.765625 41.0625 55.515625 
z
" id="DejaVuSans-114"/>
      <path d="M 56.203125 29.59375 
L 56.203125 25.203125 
L 14.890625 25.203125 
Q 15.484375 15.921875 20.484375 11.0625 
Q 25.484375 6.203125 34.421875 6.203125 
Q 39.59375 6.203125 44.453125 7.46875 
Q 49.3125 8.734375 54.109375 11.28125 
L 54.109375 2.78125 
Q 49.265625 0.734375 44.1875 -0.34375 
Q 39.109375 -1.421875 33.890625 -1.421875 
Q 20.796875 -1.421875 13.15625 6.1875 
Q 5.515625 13.8125 5.515625 26.8125 
Q 5.515625 40.234375 12.765625 48.109375 
Q 20.015625 56 32.328125 56 
Q 43.359375 56 49.78125 48.890625 
Q 56.203125 41.796875 56.203125 29.59375 
z
M 47.21875 32.234375 
Q 47.125 39.59375 43.09375 43.984375 
Q 39.0625 48.390625 32.421875 48.390625 
Q 24.90625 48.390625 20.390625 44.140625 
Q 15.875 39.890625 15.1875 32.171875 
z
" id="DejaVuSans-101"/>
      <path d="M 45.40625 46.390625 
L 45.40625 75.984375 
L 54.390625 75.984375 
L 54.390625 0 
L 45.40625 0 
L 45.40625 8.203125 
Q 42.578125 3.328125 38.25 0.953125 
Q 33.9375 -1.421875 27.875 -1.421875 
Q 17.96875 -1.421875 11.734375 6.484375 
Q 5.515625 14.40625 5.515625 27.296875 
Q 5.515625 40.1875 11.734375 48.09375 
Q 17.96875 56 27.875 56 
Q 33.9375 56 38.25 53.625 
Q 42.578125 51.265625 45.40625 46.390625 
z
M 14.796875 27.296875 
Q 14.796875 17.390625 18.875 11.75 
Q 22.953125 6.109375 30.078125 6.109375 
Q 37.203125 6.109375 41.296875 11.75 
Q 45.40625 17.390625 45.40625 27.296875 
Q 45.40625 37.203125 41.296875 42.84375 
Q 37.203125 48.484375 30.078125 48.484375 
Q 22.953125 48.484375 18.875 42.84375 
Q 14.796875 37.203125 14.796875 27.296875 
z
" id="DejaVuSans-100"/>
      <path d="M 9.421875 54.6875 
L 18.40625 54.6875 
L 18.40625 0 
L 9.421875 0 
z
M 9.421875 75.984375 
L 18.40625 75.984375 
L 18.40625 64.59375 
L 9.421875 64.59375 
z
" id="DejaVuSans-105"/>
      <path d="M 48.78125 52.59375 
L 48.78125 44.1875 
Q 44.96875 46.296875 41.140625 47.34375 
Q 37.3125 48.390625 33.40625 48.390625 
Q 24.65625 48.390625 19.8125 42.84375 
Q 14.984375 37.3125 14.984375 27.296875 
Q 14.984375 17.28125 19.8125 11.734375 
Q 24.65625 6.203125 33.40625 6.203125 
Q 37.3125 6.203125 41.140625 7.25 
Q 44.96875 8.296875 48.78125 10.40625 
L 48.78125 2.09375 
Q 45.015625 0.34375 40.984375 -0.53125 
Q 36.96875 -1.421875 32.421875 -1.421875 
Q 20.0625 -1.421875 12.78125 6.34375 
Q 5.515625 14.109375 5.515625 27.296875 
Q 5.515625 40.671875 12.859375 48.328125 
Q 20.21875 56 33.015625 56 
Q 37.15625 56 41.109375 55.140625 
Q 45.0625 54.296875 48.78125 52.59375 
z
" id="DejaVuSans-99"/>
      <path d="M 18.3125 70.21875 
L 18.3125 54.6875 
L 36.8125 54.6875 
L 36.8125 47.703125 
L 18.3125 47.703125 
L 18.3125 18.015625 
Q 18.3125 11.328125 20.140625 9.421875 
Q 21.96875 7.515625 27.59375 7.515625 
L 36.8125 7.515625 
L 36.8125 0 
L 27.59375 0 
Q 17.1875 0 13.234375 3.875 
Q 9.28125 7.765625 9.28125 18.015625 
L 9.28125 47.703125 
L 2.6875 47.703125 
L 2.6875 54.6875 
L 9.28125 54.6875 
L 9.28125 70.21875 
z
" id="DejaVuSans-116"/>
      <path d="M 52 44.1875 
Q 55.375 50.25 60.0625 53.125 
Q 64.75 56 71.09375 56 
Q 79.640625 56 84.28125 50.015625 
Q 88.921875 44.046875 88.921875 33.015625 
L 88.921875 0 
L 79.890625 0 
L 79.890625 32.71875 
Q 79.890625 40.578125 77.09375 44.375 
Q 74.3125 48.1875 68.609375 48.1875 
Q 61.625 48.1875 57.5625 43.546875 
Q 53.515625 38.921875 53.515625 30.90625 
L 53.515625 0 
L 44.484375 0 
L 44.484375 32.71875 
Q 44.484375 40.625 41.703125 44.40625 
Q 38.921875 48.1875 33.109375 48.1875 
Q 26.21875 48.1875 22.15625 43.53125 
Q 18.109375 38.875 18.109375 30.90625 
L 18.109375 0 
L 9.078125 0 
L 9.078125 54.6875 
L 18.109375 54.6875 
L 18.109375 46.1875 
Q 21.1875 51.21875 25.484375 53.609375 
Q 29.78125 56 35.6875 56 
Q 41.65625 56 45.828125 52.96875 
Q 50 49.953125 52 44.1875 
z
" id="DejaVuSans-109"/>
      <path d="M 34.28125 27.484375 
Q 23.390625 27.484375 19.1875 25 
Q 14.984375 22.515625 14.984375 16.5 
Q 14.984375 11.71875 18.140625 8.90625 
Q 21.296875 6.109375 26.703125 6.109375 
Q 34.1875 6.109375 38.703125 11.40625 
Q 43.21875 16.703125 43.21875 25.484375 
L 43.21875 27.484375 
z
M 52.203125 31.203125 
L 52.203125 0 
L 43.21875 0 
L 43.21875 8.296875 
Q 40.140625 3.328125 35.546875 0.953125 
Q 30.953125 -1.421875 24.3125 -1.421875 
Q 15.921875 -1.421875 10.953125 3.296875 
Q 6 8.015625 6 15.921875 
Q 6 25.140625 12.171875 29.828125 
Q 18.359375 34.515625 30.609375 34.515625 
L 43.21875 34.515625 
L 43.21875 35.40625 
Q 43.21875 41.609375 39.140625 45 
Q 35.0625 48.390625 27.6875 48.390625 
Q 23 48.390625 18.546875 47.265625 
Q 14.109375 46.140625 10.015625 43.890625 
L 10.015625 52.203125 
Q 14.9375 54.109375 19.578125 55.046875 
Q 24.21875 56 28.609375 56 
Q 40.484375 56 46.34375 49.84375 
Q 52.203125 43.703125 52.203125 31.203125 
z
" id="DejaVuSans-97"/>
      <path d="M 54.890625 33.015625 
L 54.890625 0 
L 45.90625 0 
L 45.90625 32.71875 
Q 45.90625 40.484375 42.875 44.328125 
Q 39.84375 48.1875 33.796875 48.1875 
Q 26.515625 48.1875 22.3125 43.546875 
Q 18.109375 38.921875 18.109375 30.90625 
L 18.109375 0 
L 9.078125 0 
L 9.078125 54.6875 
L 18.109375 54.6875 
L 18.109375 46.1875 
Q 21.34375 51.125 25.703125 53.5625 
Q 30.078125 56 35.796875 56 
Q 45.21875 56 50.046875 50.171875 
Q 54.890625 44.34375 54.890625 33.015625 
z
" id="DejaVuSans-110"/>
     </defs>
     <g transform="translate(309.791875 58.070438)scale(0.1 -0.1)">
      <use xlink:href="#DejaVuSans-71"/>
      <use x="77.490234" xlink:href="#DejaVuSans-80"/>
      <use x="137.792969" xlink:href="#DejaVuSans-32"/>
      <use x="169.580078" xlink:href="#DejaVuSans-112"/>
      <use x="233.056641" xlink:href="#DejaVuSans-114"/>
      <use x="271.919922" xlink:href="#DejaVuSans-101"/>
      <use x="333.443359" xlink:href="#DejaVuSans-100"/>
      <use x="396.919922" xlink:href="#DejaVuSans-105"/>
      <use x="424.703125" xlink:href="#DejaVuSans-99"/>
      <use x="479.683594" xlink:href="#DejaVuSans-116"/>
      <use x="518.892578" xlink:href="#DejaVuSans-101"/>
      <use x="580.416016" xlink:href="#DejaVuSans-100"/>
      <use x="643.892578" xlink:href="#DejaVuSans-32"/>
      <use x="675.679688" xlink:href="#DejaVuSans-109"/>
      <use x="773.091797" xlink:href="#DejaVuSans-101"/>
      <use x="834.615234" xlink:href="#DejaVuSans-97"/>
      <use x="895.894531" xlink:href="#DejaVuSans-110"/>
     </g>
    </g>
    <g id="line2d_19">
     <path d="M 281.791875 69.248563 
L 301.791875 69.248563 
" style="fill:none;stroke:#666666;stroke-linecap:square;stroke-width:1.5;"/>
    </g>
    <g id="line2d_20">
     <g>
      <use style="fill:#666666;stroke:#666666;" x="291.791875" xlink:href="#md267441d88" y="69.248563"/>
     </g>
    </g>
    <g id="text_14">
     <!-- local linear approx. -->
     <defs>
      <path d="M 9.421875 75.984375 
L 18.40625 75.984375 
L 18.40625 0 
L 9.421875 0 
z
" id="DejaVuSans-108"/>
      <path d="M 30.609375 48.390625 
Q 23.390625 48.390625 19.1875 42.75 
Q 14.984375 37.109375 14.984375 27.296875 
Q 14.984375 17.484375 19.15625 11.84375 
Q 23.34375 6.203125 30.609375 6.203125 
Q 37.796875 6.203125 41.984375 11.859375 
Q 46.1875 17.53125 46.1875 27.296875 
Q 46.1875 37.015625 41.984375 42.703125 
Q 37.796875 48.390625 30.609375 48.390625 
z
M 30.609375 56 
Q 42.328125 56 49.015625 48.375 
Q 55.71875 40.765625 55.71875 27.296875 
Q 55.71875 13.875 49.015625 6.21875 
Q 42.328125 -1.421875 30.609375 -1.421875 
Q 18.84375 -1.421875 12.171875 6.21875 
Q 5.515625 13.875 5.515625 27.296875 
Q 5.515625 40.765625 12.171875 48.375 
Q 18.84375 56 30.609375 56 
z
" id="DejaVuSans-111"/>
      <path d="M 54.890625 54.6875 
L 35.109375 28.078125 
L 55.90625 0 
L 45.3125 0 
L 29.390625 21.484375 
L 13.484375 0 
L 2.875 0 
L 24.125 28.609375 
L 4.6875 54.6875 
L 15.28125 54.6875 
L 29.78125 35.203125 
L 44.28125 54.6875 
z
" id="DejaVuSans-120"/>
     </defs>
     <g transform="translate(309.791875 72.748563)scale(0.1 -0.1)">
      <use xlink:href="#DejaVuSans-108"/>
      <use x="27.783203" xlink:href="#DejaVuSans-111"/>
      <use x="88.964844" xlink:href="#DejaVuSans-99"/>
      <use x="143.945312" xlink:href="#DejaVuSans-97"/>
      <use x="205.224609" xlink:href="#DejaVuSans-108"/>
      <use x="233.007812" xlink:href="#DejaVuSans-32"/>
      <use x="264.794922" xlink:href="#DejaVuSans-108"/>
      <use x="292.578125" xlink:href="#DejaVuSans-105"/>
      <use x="320.361328" xlink:href="#DejaVuSans-110"/>
      <use x="383.740234" xlink:href="#DejaVuSans-101"/>
      <use x="445.263672" xlink:href="#DejaVuSans-97"/>
      <use x="506.542969" xlink:href="#DejaVuSans-114"/>
      <use x="547.65625" xlink:href="#DejaVuSans-32"/>
      <use x="579.443359" xlink:href="#DejaVuSans-97"/>
      <use x="640.722656" xlink:href="#DejaVuSans-112"/>
      <use x="704.199219" xlink:href="#DejaVuSans-112"/>
      <use x="767.675781" xlink:href="#DejaVuSans-114"/>
      <use x="806.539062" xlink:href="#DejaVuSans-111"/>
      <use x="864.595703" xlink:href="#DejaVuSans-120"/>
      <use x="923.775391" xlink:href="#DejaVuSans-46"/>
     </g>
    </g>
    <g id="line2d_21">
     <path d="M 281.791875 83.926688 
L 301.791875 83.926688 
" style="fill:none;stroke:#000000;stroke-linecap:square;stroke-width:1.5;"/>
    </g>
    <g id="line2d_22"/>
    <g id="text_15">
     <!-- true function -->
     <defs>
      <path d="M 8.5 21.578125 
L 8.5 54.6875 
L 17.484375 54.6875 
L 17.484375 21.921875 
Q 17.484375 14.15625 20.5 10.265625 
Q 23.53125 6.390625 29.59375 6.390625 
Q 36.859375 6.390625 41.078125 11.03125 
Q 45.3125 15.671875 45.3125 23.6875 
L 45.3125 54.6875 
L 54.296875 54.6875 
L 54.296875 0 
L 45.3125 0 
L 45.3125 8.40625 
Q 42.046875 3.421875 37.71875 1 
Q 33.40625 -1.421875 27.6875 -1.421875 
Q 18.265625 -1.421875 13.375 4.4375 
Q 8.5 10.296875 8.5 21.578125 
z
M 31.109375 56 
z
" id="DejaVuSans-117"/>
      <path d="M 37.109375 75.984375 
L 37.109375 68.5 
L 28.515625 68.5 
Q 23.6875 68.5 21.796875 66.546875 
Q 19.921875 64.59375 19.921875 59.515625 
L 19.921875 54.6875 
L 34.71875 54.6875 
L 34.71875 47.703125 
L 19.921875 47.703125 
L 19.921875 0 
L 10.890625 0 
L 10.890625 47.703125 
L 2.296875 47.703125 
L 2.296875 54.6875 
L 10.890625 54.6875 
L 10.890625 58.5 
Q 10.890625 67.625 15.140625 71.796875 
Q 19.390625 75.984375 28.609375 75.984375 
z
" id="DejaVuSans-102"/>
     </defs>
     <g transform="translate(309.791875 87.426688)scale(0.1 -0.1)">
      <use xlink:href="#DejaVuSans-116"/>
      <use x="39.208984" xlink:href="#DejaVuSans-114"/>
      <use x="80.322266" xlink:href="#DejaVuSans-117"/>
      <use x="143.701172" xlink:href="#DejaVuSans-101"/>
      <use x="205.224609" xlink:href="#DejaVuSans-32"/>
      <use x="237.011719" xlink:href="#DejaVuSans-102"/>
      <use x="272.216797" xlink:href="#DejaVuSans-117"/>
      <use x="335.595703" xlink:href="#DejaVuSans-110"/>
      <use x="398.974609" xlink:href="#DejaVuSans-99"/>
      <use x="453.955078" xlink:href="#DejaVuSans-116"/>
      <use x="493.164062" xlink:href="#DejaVuSans-105"/>
      <use x="520.947266" xlink:href="#DejaVuSans-111"/>
      <use x="582.128906" xlink:href="#DejaVuSans-110"/>
     </g>
    </g>
    <g id="line2d_23">
     <path d="M 281.791875 98.604813 
L 301.791875 98.604813 
" style="fill:none;stroke:#ff00ff;stroke-linecap:square;stroke-width:1.5;"/>
    </g>
    <g id="line2d_24">
     <g>
      <use style="fill:#ff00ff;stroke:#ff00ff;" x="291.791875" xlink:href="#m9121b73084" y="98.604813"/>
     </g>
    </g>
    <g id="text_16">
     <!-- new sample -->
     <defs>
      <path d="M 4.203125 54.6875 
L 13.1875 54.6875 
L 24.421875 12.015625 
L 35.59375 54.6875 
L 46.1875 54.6875 
L 57.421875 12.015625 
L 68.609375 54.6875 
L 77.59375 54.6875 
L 63.28125 0 
L 52.6875 0 
L 40.921875 44.828125 
L 29.109375 0 
L 18.5 0 
z
" id="DejaVuSans-119"/>
      <path d="M 44.28125 53.078125 
L 44.28125 44.578125 
Q 40.484375 46.53125 36.375 47.5 
Q 32.28125 48.484375 27.875 48.484375 
Q 21.1875 48.484375 17.84375 46.4375 
Q 14.5 44.390625 14.5 40.28125 
Q 14.5 37.15625 16.890625 35.375 
Q 19.28125 33.59375 26.515625 31.984375 
L 29.59375 31.296875 
Q 39.15625 29.25 43.1875 25.515625 
Q 47.21875 21.78125 47.21875 15.09375 
Q 47.21875 7.46875 41.1875 3.015625 
Q 35.15625 -1.421875 24.609375 -1.421875 
Q 20.21875 -1.421875 15.453125 -0.5625 
Q 10.6875 0.296875 5.421875 2 
L 5.421875 11.28125 
Q 10.40625 8.6875 15.234375 7.390625 
Q 20.0625 6.109375 24.8125 6.109375 
Q 31.15625 6.109375 34.5625 8.28125 
Q 37.984375 10.453125 37.984375 14.40625 
Q 37.984375 18.0625 35.515625 20.015625 
Q 33.0625 21.96875 24.703125 23.78125 
L 21.578125 24.515625 
Q 13.234375 26.265625 9.515625 29.90625 
Q 5.8125 33.546875 5.8125 39.890625 
Q 5.8125 47.609375 11.28125 51.796875 
Q 16.75 56 26.8125 56 
Q 31.78125 56 36.171875 55.265625 
Q 40.578125 54.546875 44.28125 53.078125 
z
" id="DejaVuSans-115"/>
     </defs>
     <g transform="translate(309.791875 102.104813)scale(0.1 -0.1)">
      <use xlink:href="#DejaVuSans-110"/>
      <use x="63.378906" xlink:href="#DejaVuSans-101"/>
      <use x="124.902344" xlink:href="#DejaVuSans-119"/>
      <use x="206.689453" xlink:href="#DejaVuSans-32"/>
      <use x="238.476562" xlink:href="#DejaVuSans-115"/>
      <use x="290.576172" xlink:href="#DejaVuSans-97"/>
      <use x="351.855469" xlink:href="#DejaVuSans-109"/>
      <use x="449.267578" xlink:href="#DejaVuSans-112"/>
      <use x="512.744141" xlink:href="#DejaVuSans-108"/>
      <use x="540.527344" xlink:href="#DejaVuSans-101"/>
     </g>
    </g>
    <g id="patch_8">
     <path d="M 281.791875 116.7845 
L 301.791875 116.7845 
L 301.791875 109.7845 
L 281.791875 109.7845 
z
" style="fill:#347aeb;opacity:0.6;"/>
    </g>
    <g id="text_17">
     <!-- GP predicted 2$\sigma$ -->
     <defs>
      <path d="M 34.671875 47.5625 
Q 27.25 47.5625 22.21875 42.1875 
Q 16.890625 36.578125 15.140625 27.296875 
Q 13.1875 17.484375 16.3125 11.8125 
Q 19.390625 6.203125 26.65625 6.203125 
Q 33.84375 6.203125 39.109375 11.859375 
Q 44.4375 17.53125 46.34375 27.296875 
Q 48.046875 36.234375 45.015625 42.1875 
Q 42.1875 47.5625 34.671875 47.5625 
z
M 36.078125 54.734375 
L 65.921875 54.6875 
L 64.15625 45.703125 
L 54.109375 45.703125 
Q 57.90625 38.09375 55.859375 27.296875 
Q 53.21875 13.875 45.0625 6.25 
Q 36.859375 -1.421875 25.140625 -1.421875 
Q 13.375 -1.421875 8.203125 6.25 
Q 3.03125 13.875 5.671875 27.296875 
Q 8.25 40.765625 16.40625 48.390625 
Q 23.1875 54.734375 36.078125 54.734375 
z
" id="DejaVuSans-Oblique-963"/>
     </defs>
     <g transform="translate(309.791875 116.7845)scale(0.1 -0.1)">
      <use transform="translate(0 0.015625)" xlink:href="#DejaVuSans-71"/>
      <use transform="translate(77.490234 0.015625)" xlink:href="#DejaVuSans-80"/>
      <use transform="translate(137.792969 0.015625)" xlink:href="#DejaVuSans-32"/>
      <use transform="translate(169.580078 0.015625)" xlink:href="#DejaVuSans-112"/>
      <use transform="translate(233.056641 0.015625)" xlink:href="#DejaVuSans-114"/>
      <use transform="translate(274.169922 0.015625)" xlink:href="#DejaVuSans-101"/>
      <use transform="translate(335.693359 0.015625)" xlink:href="#DejaVuSans-100"/>
      <use transform="translate(399.169922 0.015625)" xlink:href="#DejaVuSans-105"/>
      <use transform="translate(426.953125 0.015625)" xlink:href="#DejaVuSans-99"/>
      <use transform="translate(481.933594 0.015625)" xlink:href="#DejaVuSans-116"/>
      <use transform="translate(521.142578 0.015625)" xlink:href="#DejaVuSans-101"/>
      <use transform="translate(582.666016 0.015625)" xlink:href="#DejaVuSans-100"/>
      <use transform="translate(646.142578 0.015625)" xlink:href="#DejaVuSans-32"/>
      <use transform="translate(677.929688 0.015625)" xlink:href="#DejaVuSans-50"/>
      <use transform="translate(741.552734 0.015625)" xlink:href="#DejaVuSans-Oblique-963"/>
     </g>
    </g>
   </g>
  </g>
 </g>
 <defs>
  <clipPath id="pe3bd55cb30">
   <rect height="266.112" width="357.12" x="57.6" y="41.472"/>
  </clipPath>
 </defs>
</svg>
