<?xml version="1.0" encoding="utf-8" standalone="no"?>
<!DOCTYPE svg PUBLIC "-//W3C//DTD SVG 1.1//EN"
  "http://www.w3.org/Graphics/SVG/1.1/DTD/svg11.dtd">
<!-- Created with matplotlib (https://matplotlib.org/) -->
<svg height="345.6pt" version="1.1" viewBox="0 0 460.8 345.6" width="460.8pt" xmlns="http://www.w3.org/2000/svg" xmlns:xlink="http://www.w3.org/1999/xlink">
 <defs>
  <style type="text/css">
*{stroke-linecap:butt;stroke-linejoin:round;}
  </style>
 </defs>
 <g id="figure_1">
  <g id="patch_1">
   <path d="M 0 345.6 
L 460.8 345.6 
L 460.8 0 
L 0 0 
z
" style="fill:#ffffff;"/>
  </g>
  <g id="axes_1">
   <g id="patch_2">
    <path d="M 57.6 307.584 
L 414.72 307.584 
L 414.72 41.472 
L 57.6 41.472 
z
" style="fill:#ffffff;"/>
   </g>
   <g id="PolyCollection_1">
    <defs>
     <path d="M 87.36 -277.204452 
L 87.36 -277.221929 
L 88.848 -273.355639 
L 90.336 -268.977599 
L 91.824 -264.133074 
L 93.312 -258.886921 
L 94.8 -253.313794 
L 96.288 -247.496587 
L 97.776 -241.524445 
L 99.264 -235.490397 
L 100.752 -229.488682 
L 102.24 -223.611893 
L 103.728 -217.948034 
L 105.216 -212.586321 
L 106.704 -209.628174 
L 108.192 -206.899944 
L 109.68 -204.343798 
L 111.168 -201.913462 
L 112.656 -199.568108 
L 114.144 -197.274667 
L 115.632 -195.009759 
L 117.12 -192.761117 
L 118.608 -190.528409 
L 120.096 -188.323389 
L 121.584 -186.169352 
L 123.072 -184.099918 
L 124.56 -182.165829 
L 126.048 -182.036624 
L 127.536 -181.988143 
L 129.024 -181.976013 
L 130.512 -181.977022 
L 132 -181.981682 
L 133.488 -181.994575 
L 134.976 -182.033838 
L 136.464 -182.129783 
L 137.952 -182.32271 
L 139.44 -182.660037 
L 140.928 -183.192873 
L 142.416 -183.980847 
L 143.904 -186.62364 
L 145.392 -189.525345 
L 146.88 -192.612085 
L 148.368 -195.814826 
L 149.856 -199.063159 
L 151.344 -202.287504 
L 152.832 -205.420996 
L 154.32 -208.400931 
L 155.808 -211.169729 
L 157.296 -213.67537 
L 158.784 -215.871351 
L 160.272 -217.716209 
L 161.76 -219.181342 
L 163.248 -221.731279 
L 164.736 -223.713639 
L 166.224 -225.001695 
L 167.712 -225.491122 
L 169.2 -225.095731 
L 170.688 -223.751148 
L 172.176 -221.41769 
L 173.664 -218.082273 
L 175.152 -213.759258 
L 176.64 -208.490203 
L 178.128 -202.342513 
L 179.616 -195.41568 
L 181.104 -189.337656 
L 182.592 -182.645803 
L 184.08 -175.377597 
L 185.568 -167.595759 
L 187.056 -159.379576 
L 188.544 -150.824006 
L 190.032 -142.037927 
L 191.52 -133.14156 
L 193.008 -124.26316 
L 194.496 -115.535108 
L 195.984 -107.089587 
L 197.472 -99.054061 
L 198.96 -91.555415 
L 200.448 -86.197797 
L 201.936 -81.451459 
L 203.424 -77.286591 
L 204.912 -73.672267 
L 206.4 -70.571272 
L 207.888 -67.943516 
L 209.376 -65.749189 
L 210.864 -63.951465 
L 212.352 -62.518605 
L 213.84 -61.425349 
L 215.328 -60.653561 
L 216.816 -60.200716 
L 218.304 -61.614606 
L 219.792 -63.27654 
L 221.28 -65.086295 
L 222.768 -66.962532 
L 224.256 -68.83715 
L 225.744 -70.657418 
L 227.232 -72.387221 
L 228.72 -74.007384 
L 230.208 -75.515077 
L 231.696 -76.92237 
L 233.184 -78.254038 
L 234.672 -79.544777 
L 236.16 -80.844576 
L 237.648 -83.84809 
L 239.136 -86.858052 
L 240.624 -89.812624 
L 242.112 -92.662568 
L 243.6 -95.365021 
L 245.088 -97.88556 
L 246.576 -100.199828 
L 248.064 -102.294603 
L 249.552 -104.16823 
L 251.04 -105.830385 
L 252.528 -107.30118 
L 254.016 -108.609656 
L 255.504 -109.800376 
L 256.992 -112.579503 
L 258.48 -115.22363 
L 259.968 -117.672025 
L 261.456 -119.880268 
L 262.944 -121.813984 
L 264.432 -123.450631 
L 265.92 -124.780628 
L 267.408 -125.807757 
L 268.896 -126.548812 
L 270.384 -127.032513 
L 271.872 -127.29776 
L 273.36 -127.391321 
L 274.848 -127.373699 
L 276.336 -128.929721 
L 277.824 -130.373984 
L 279.312 -131.655893 
L 280.8 -132.738923 
L 282.288 -133.594374 
L 283.776 -134.203275 
L 285.264 -134.557701 
L 286.752 -134.661427 
L 288.24 -134.529856 
L 289.728 -134.18923 
L 291.216 -133.675157 
L 292.704 -133.030562 
L 294.192 -132.311779 
L 295.68 -133.048803 
L 297.168 -133.677271 
L 298.656 -134.148143 
L 300.144 -134.428589 
L 301.632 -134.495527 
L 303.12 -134.337161 
L 304.608 -133.953818 
L 306.096 -133.358009 
L 307.584 -132.573714 
L 309.072 -131.634937 
L 310.56 -130.583623 
L 312.048 -129.475656 
L 313.536 -129.748614 
L 315.024 -129.964354 
L 316.512 -130.072107 
L 318 -130.035516 
L 319.488 -129.826535 
L 320.976 -129.427388 
L 322.464 -128.831864 
L 323.952 -128.045872 
L 325.44 -127.0872 
L 326.928 -125.984508 
L 328.416 -124.775615 
L 329.904 -123.513791 
L 331.392 -123.666737 
L 332.88 -123.782632 
L 334.368 -123.809246 
L 335.856 -123.70833 
L 337.344 -123.449487 
L 338.832 -123.012109 
L 340.32 -122.386707 
L 341.808 -121.575515 
L 343.296 -120.592365 
L 344.784 -119.461839 
L 346.272 -118.217758 
L 347.76 -116.909713 
L 349.248 -117.221351 
L 350.736 -117.524514 
L 352.224 -117.756674 
L 353.712 -117.866465 
L 355.2 -117.80799 
L 356.688 -117.543402 
L 358.176 -117.045065 
L 359.664 -116.297169 
L 361.152 -115.296733 
L 362.64 -114.053965 
L 364.128 -112.591983 
L 365.616 -110.945928 
L 367.104 -109.170247 
L 368.592 -109.428592 
L 370.08 -109.651387 
L 371.568 -109.772584 
L 373.056 -109.735691 
L 374.544 -109.487236 
L 376.032 -108.978665 
L 377.52 -108.167935 
L 379.008 -107.020723 
L 380.496 -105.51124 
L 381.984 -103.622631 
L 383.472 -101.347001 
L 384.96 -98.693711 
L 384.96 -98.676371 
L 384.96 -98.676371 
L 383.472 -97.635588 
L 381.984 -97.051742 
L 380.496 -96.918074 
L 379.008 -97.209659 
L 377.52 -97.892138 
L 376.032 -98.922221 
L 374.544 -100.248592 
L 373.056 -101.813215 
L 371.568 -103.553025 
L 370.08 -105.401939 
L 368.592 -107.293115 
L 367.104 -109.152686 
L 365.616 -108.905951 
L 364.128 -108.714186 
L 362.64 -108.632155 
L 361.152 -108.697833 
L 359.664 -108.939417 
L 358.176 -109.374081 
L 356.688 -110.007264 
L 355.2 -110.832554 
L 353.712 -111.832202 
L 352.224 -112.978248 
L 350.736 -114.234216 
L 349.248 -115.557294 
L 347.76 -116.892306 
L 346.272 -116.616993 
L 344.784 -116.419289 
L 343.296 -116.351406 
L 341.808 -116.448151 
L 340.32 -116.733576 
L 338.832 -117.219663 
L 337.344 -117.905723 
L 335.856 -118.778546 
L 334.368 -119.813317 
L 332.88 -120.975221 
L 331.392 -122.221662 
L 329.904 -123.496346 
L 328.416 -123.343846 
L 326.928 -123.228815 
L 325.44 -123.202071 
L 323.952 -123.299549 
L 322.464 -123.548498 
L 320.976 -123.965624 
L 319.488 -124.555905 
L 318 -125.312148 
L 316.512 -126.215334 
L 315.024 -127.23572 
L 313.536 -128.334627 
L 312.048 -129.458225 
L 310.56 -129.164486 
L 309.072 -128.886279 
L 307.584 -128.673999 
L 306.096 -128.563433 
L 304.608 -128.581916 
L 303.12 -128.74646 
L 301.632 -129.062532 
L 300.144 -129.523581 
L 298.656 -130.111342 
L 297.168 -130.796873 
L 295.68 -131.542264 
L 294.192 -132.294293 
L 292.704 -131.485354 
L 291.216 -130.643111 
L 289.728 -129.822385 
L 288.24 -129.065224 
L 286.752 -128.406777 
L 285.264 -127.872953 
L 283.776 -127.478647 
L 282.288 -127.226631 
L 280.8 -127.107182 
L 279.312 -127.098469 
L 277.824 -127.167672 
L 276.336 -127.272767 
L 274.848 -127.356263 
L 273.36 -125.724553 
L 271.872 -124.05316 
L 270.384 -122.392511 
L 268.896 -120.778958 
L 267.408 -119.24116 
L 265.92 -117.798366 
L 264.432 -116.459289 
L 262.944 -115.221654 
L 261.456 -114.072441 
L 259.968 -112.988809 
L 258.48 -111.939636 
L 256.992 -110.88758 
L 255.504 -109.782916 
L 254.016 -106.917084 
L 252.528 -104.014661 
L 251.04 -101.141728 
L 249.552 -98.351309 
L 248.064 -95.689194 
L 246.576 -93.191567 
L 245.088 -90.883202 
L 243.6 -88.776344 
L 242.112 -86.870342 
L 240.624 -85.152077 
L 239.136 -83.59717 
L 237.648 -82.171897 
L 236.16 -80.827141 
L 234.672 -77.876076 
L 233.184 -75.022392 
L 231.696 -72.324903 
L 230.208 -69.828414 
L 228.72 -67.570811 
L 227.232 -65.58212 
L 225.744 -63.884183 
L 224.256 -62.490981 
L 222.768 -61.409556 
L 221.28 -60.641476 
L 219.792 -60.18471 
L 218.304 -60.035757 
L 216.816 -60.18328 
L 215.328 -59.107018 
L 213.84 -58.460442 
L 212.352 -58.350897 
L 210.864 -58.870548 
L 209.376 -60.100556 
L 207.888 -62.107019 
L 206.4 -64.937462 
L 204.912 -68.618106 
L 203.424 -73.152019 
L 201.936 -78.518286 
L 200.448 -84.672207 
L 198.96 -91.537907 
L 197.472 -97.506212 
L 195.984 -104.06866 
L 194.496 -111.207821 
L 193.008 -118.877881 
L 191.52 -127.012705 
L 190.032 -135.526262 
L 188.544 -144.314064 
L 187.056 -153.255599 
L 185.568 -162.217664 
L 184.08 -171.058464 
L 182.592 -179.632281 
L 181.104 -187.794511 
L 179.616 -195.398197 
L 178.128 -200.823492 
L 176.64 -205.57168 
L 175.152 -209.64837 
L 173.664 -213.061035 
L 172.176 -215.825342 
L 170.688 -217.962929 
L 169.2 -219.499405 
L 167.712 -220.462709 
L 166.224 -220.881927 
L 164.736 -220.78662 
L 163.248 -220.206655 
L 161.76 -219.16389 
L 160.272 -216.164806 
L 158.784 -212.838985 
L 157.296 -209.325093 
L 155.808 -205.747351 
L 154.32 -202.219806 
L 152.832 -198.842604 
L 151.344 -195.699048 
L 149.856 -192.853535 
L 148.368 -190.350469 
L 146.88 -188.214162 
L 145.392 -186.449704 
L 143.904 -185.044734 
L 142.416 -183.963382 
L 140.928 -181.629841 
L 139.44 -179.647339 
L 137.952 -178.064393 
L 136.464 -176.908719 
L 134.976 -176.194838 
L 133.488 -175.923697 
L 132 -176.082996 
L 130.512 -176.6482 
L 129.024 -177.5842 
L 127.536 -178.847546 
L 126.048 -180.389098 
L 124.56 -182.148338 
L 123.072 -182.395852 
L 121.584 -182.807225 
L 120.096 -183.450221 
L 118.608 -184.385446 
L 117.12 -185.671481 
L 115.632 -187.361454 
L 114.144 -189.499855 
L 112.656 -192.119765 
L 111.168 -195.240634 
L 109.68 -198.866704 
L 108.192 -202.986151 
L 106.704 -207.570953 
L 105.216 -212.568823 
L 103.728 -215.797574 
L 102.24 -219.335264 
L 100.752 -223.232849 
L 99.264 -227.525772 
L 97.776 -232.240949 
L 96.288 -237.395572 
L 94.8 -242.996401 
L 93.312 -249.039567 
L 91.824 -255.510849 
L 90.336 -262.386382 
L 88.848 -269.633717 
L 87.36 -277.204452 
z
" id="mb4ad780d90"/>
    </defs>
    <g clip-path="url(#p01b5cde8cd)">
     <use style="fill:#347aeb;fill-opacity:0.6;" x="0" xlink:href="#mb4ad780d90" y="345.6"/>
    </g>
   </g>
   <g id="PathCollection_1">
    <defs>
     <path d="M 0 3 
C 0.795609 3 1.55874 2.683901 2.12132 2.12132 
C 2.683901 1.55874 3 0.795609 3 0 
C 3 -0.795609 2.683901 -1.55874 2.12132 -2.12132 
C 1.55874 -2.683901 0.795609 -3 0 -3 
C -0.795609 -3 -1.55874 -2.683901 -2.12132 -2.12132 
C -2.683901 -1.55874 -3 -0.795609 -3 0 
C -3 0.795609 -2.683901 1.55874 -2.12132 2.12132 
C -1.55874 2.683901 -0.795609 3 0 3 
z
" id="m90616633bf" style="stroke:#1f77b4;"/>
    </defs>
    <g clip-path="url(#p01b5cde8cd)">
     <use style="fill:#1f77b4;stroke:#1f77b4;" x="87.36" xlink:href="#m90616633bf" y="68.386808"/>
     <use style="fill:#1f77b4;stroke:#1f77b4;" x="105.216" xlink:href="#m90616633bf" y="133.02243"/>
     <use style="fill:#1f77b4;stroke:#1f77b4;" x="124.56" xlink:href="#m90616633bf" y="163.442915"/>
     <use style="fill:#1f77b4;stroke:#1f77b4;" x="142.416" xlink:href="#m90616633bf" y="161.627888"/>
     <use style="fill:#1f77b4;stroke:#1f77b4;" x="161.76" xlink:href="#m90616633bf" y="126.427384"/>
     <use style="fill:#1f77b4;stroke:#1f77b4;" x="179.616" xlink:href="#m90616633bf" y="150.193058"/>
     <use style="fill:#1f77b4;stroke:#1f77b4;" x="198.96" xlink:href="#m90616633bf" y="254.053343"/>
     <use style="fill:#1f77b4;stroke:#1f77b4;" x="216.816" xlink:href="#m90616633bf" y="285.408"/>
     <use style="fill:#1f77b4;stroke:#1f77b4;" x="236.16" xlink:href="#m90616633bf" y="264.764143"/>
     <use style="fill:#1f77b4;stroke:#1f77b4;" x="255.504" xlink:href="#m90616633bf" y="235.808354"/>
     <use style="fill:#1f77b4;stroke:#1f77b4;" x="274.848" xlink:href="#m90616633bf" y="218.235019"/>
     <use style="fill:#1f77b4;stroke:#1f77b4;" x="294.192" xlink:href="#m90616633bf" y="213.296963"/>
     <use style="fill:#1f77b4;stroke:#1f77b4;" x="312.048" xlink:href="#m90616633bf" y="216.13306"/>
     <use style="fill:#1f77b4;stroke:#1f77b4;" x="329.904" xlink:href="#m90616633bf" y="222.094931"/>
     <use style="fill:#1f77b4;stroke:#1f77b4;" x="347.76" xlink:href="#m90616633bf" y="228.698991"/>
     <use style="fill:#1f77b4;stroke:#1f77b4;" x="367.104" xlink:href="#m90616633bf" y="236.438533"/>
     <use style="fill:#1f77b4;stroke:#1f77b4;" x="384.96" xlink:href="#m90616633bf" y="246.914959"/>
    </g>
   </g>
   <g id="matplotlib.axis_1">
    <g id="xtick_1">
     <g id="line2d_1">
      <defs>
       <path d="M 0 0 
L 0 3.5 
" id="m6fab7658e1" style="stroke:#000000;stroke-width:0.8;"/>
      </defs>
      <g>
       <use style="stroke:#000000;stroke-width:0.8;" x="87.36" xlink:href="#m6fab7658e1" y="307.584"/>
      </g>
     </g>
     <g id="text_1">
      <!-- 0.0 -->
      <defs>
       <path d="M 31.78125 66.40625 
Q 24.171875 66.40625 20.328125 58.90625 
Q 16.5 51.421875 16.5 36.375 
Q 16.5 21.390625 20.328125 13.890625 
Q 24.171875 6.390625 31.78125 6.390625 
Q 39.453125 6.390625 43.28125 13.890625 
Q 47.125 21.390625 47.125 36.375 
Q 47.125 51.421875 43.28125 58.90625 
Q 39.453125 66.40625 31.78125 66.40625 
z
M 31.78125 74.21875 
Q 44.046875 74.21875 50.515625 64.515625 
Q 56.984375 54.828125 56.984375 36.375 
Q 56.984375 17.96875 50.515625 8.265625 
Q 44.046875 -1.421875 31.78125 -1.421875 
Q 19.53125 -1.421875 13.0625 8.265625 
Q 6.59375 17.96875 6.59375 36.375 
Q 6.59375 54.828125 13.0625 64.515625 
Q 19.53125 74.21875 31.78125 74.21875 
z
" id="DejaVuSans-48"/>
       <path d="M 10.6875 12.40625 
L 21 12.40625 
L 21 0 
L 10.6875 0 
z
" id="DejaVuSans-46"/>
      </defs>
      <g transform="translate(79.408438 322.182437)scale(0.1 -0.1)">
       <use xlink:href="#DejaVuSans-48"/>
       <use x="63.623047" xlink:href="#DejaVuSans-46"/>
       <use x="95.410156" xlink:href="#DejaVuSans-48"/>
      </g>
     </g>
    </g>
    <g id="xtick_2">
     <g id="line2d_2">
      <g>
       <use style="stroke:#000000;stroke-width:0.8;" x="146.88" xlink:href="#m6fab7658e1" y="307.584"/>
      </g>
     </g>
     <g id="text_2">
      <!-- 0.2 -->
      <defs>
       <path d="M 19.1875 8.296875 
L 53.609375 8.296875 
L 53.609375 0 
L 7.328125 0 
L 7.328125 8.296875 
Q 12.9375 14.109375 22.625 23.890625 
Q 32.328125 33.6875 34.8125 36.53125 
Q 39.546875 41.84375 41.421875 45.53125 
Q 43.3125 49.21875 43.3125 52.78125 
Q 43.3125 58.59375 39.234375 62.25 
Q 35.15625 65.921875 28.609375 65.921875 
Q 23.96875 65.921875 18.8125 64.3125 
Q 13.671875 62.703125 7.8125 59.421875 
L 7.8125 69.390625 
Q 13.765625 71.78125 18.9375 73 
Q 24.125 74.21875 28.421875 74.21875 
Q 39.75 74.21875 46.484375 68.546875 
Q 53.21875 62.890625 53.21875 53.421875 
Q 53.21875 48.921875 51.53125 44.890625 
Q 49.859375 40.875 45.40625 35.40625 
Q 44.1875 33.984375 37.640625 27.21875 
Q 31.109375 20.453125 19.1875 8.296875 
z
" id="DejaVuSans-50"/>
      </defs>
      <g transform="translate(138.928438 322.182437)scale(0.1 -0.1)">
       <use xlink:href="#DejaVuSans-48"/>
       <use x="63.623047" xlink:href="#DejaVuSans-46"/>
       <use x="95.410156" xlink:href="#DejaVuSans-50"/>
      </g>
     </g>
    </g>
    <g id="xtick_3">
     <g id="line2d_3">
      <g>
       <use style="stroke:#000000;stroke-width:0.8;" x="206.4" xlink:href="#m6fab7658e1" y="307.584"/>
      </g>
     </g>
     <g id="text_3">
      <!-- 0.4 -->
      <defs>
       <path d="M 37.796875 64.3125 
L 12.890625 25.390625 
L 37.796875 25.390625 
z
M 35.203125 72.90625 
L 47.609375 72.90625 
L 47.609375 25.390625 
L 58.015625 25.390625 
L 58.015625 17.1875 
L 47.609375 17.1875 
L 47.609375 0 
L 37.796875 0 
L 37.796875 17.1875 
L 4.890625 17.1875 
L 4.890625 26.703125 
z
" id="DejaVuSans-52"/>
      </defs>
      <g transform="translate(198.448438 322.182437)scale(0.1 -0.1)">
       <use xlink:href="#DejaVuSans-48"/>
       <use x="63.623047" xlink:href="#DejaVuSans-46"/>
       <use x="95.410156" xlink:href="#DejaVuSans-52"/>
      </g>
     </g>
    </g>
    <g id="xtick_4">
     <g id="line2d_4">
      <g>
       <use style="stroke:#000000;stroke-width:0.8;" x="265.92" xlink:href="#m6fab7658e1" y="307.584"/>
      </g>
     </g>
     <g id="text_4">
      <!-- 0.6 -->
      <defs>
       <path d="M 33.015625 40.375 
Q 26.375 40.375 22.484375 35.828125 
Q 18.609375 31.296875 18.609375 23.390625 
Q 18.609375 15.53125 22.484375 10.953125 
Q 26.375 6.390625 33.015625 6.390625 
Q 39.65625 6.390625 43.53125 10.953125 
Q 47.40625 15.53125 47.40625 23.390625 
Q 47.40625 31.296875 43.53125 35.828125 
Q 39.65625 40.375 33.015625 40.375 
z
M 52.59375 71.296875 
L 52.59375 62.3125 
Q 48.875 64.0625 45.09375 64.984375 
Q 41.3125 65.921875 37.59375 65.921875 
Q 27.828125 65.921875 22.671875 59.328125 
Q 17.53125 52.734375 16.796875 39.40625 
Q 19.671875 43.65625 24.015625 45.921875 
Q 28.375 48.1875 33.59375 48.1875 
Q 44.578125 48.1875 50.953125 41.515625 
Q 57.328125 34.859375 57.328125 23.390625 
Q 57.328125 12.15625 50.6875 5.359375 
Q 44.046875 -1.421875 33.015625 -1.421875 
Q 20.359375 -1.421875 13.671875 8.265625 
Q 6.984375 17.96875 6.984375 36.375 
Q 6.984375 53.65625 15.1875 63.9375 
Q 23.390625 74.21875 37.203125 74.21875 
Q 40.921875 74.21875 44.703125 73.484375 
Q 48.484375 72.75 52.59375 71.296875 
z
" id="DejaVuSans-54"/>
      </defs>
      <g transform="translate(257.968437 322.182437)scale(0.1 -0.1)">
       <use xlink:href="#DejaVuSans-48"/>
       <use x="63.623047" xlink:href="#DejaVuSans-46"/>
       <use x="95.410156" xlink:href="#DejaVuSans-54"/>
      </g>
     </g>
    </g>
    <g id="xtick_5">
     <g id="line2d_5">
      <g>
       <use style="stroke:#000000;stroke-width:0.8;" x="325.44" xlink:href="#m6fab7658e1" y="307.584"/>
      </g>
     </g>
     <g id="text_5">
      <!-- 0.8 -->
      <defs>
       <path d="M 31.78125 34.625 
Q 24.75 34.625 20.71875 30.859375 
Q 16.703125 27.09375 16.703125 20.515625 
Q 16.703125 13.921875 20.71875 10.15625 
Q 24.75 6.390625 31.78125 6.390625 
Q 38.8125 6.390625 42.859375 10.171875 
Q 46.921875 13.96875 46.921875 20.515625 
Q 46.921875 27.09375 42.890625 30.859375 
Q 38.875 34.625 31.78125 34.625 
z
M 21.921875 38.8125 
Q 15.578125 40.375 12.03125 44.71875 
Q 8.5 49.078125 8.5 55.328125 
Q 8.5 64.0625 14.71875 69.140625 
Q 20.953125 74.21875 31.78125 74.21875 
Q 42.671875 74.21875 48.875 69.140625 
Q 55.078125 64.0625 55.078125 55.328125 
Q 55.078125 49.078125 51.53125 44.71875 
Q 48 40.375 41.703125 38.8125 
Q 48.828125 37.15625 52.796875 32.3125 
Q 56.78125 27.484375 56.78125 20.515625 
Q 56.78125 9.90625 50.3125 4.234375 
Q 43.84375 -1.421875 31.78125 -1.421875 
Q 19.734375 -1.421875 13.25 4.234375 
Q 6.78125 9.90625 6.78125 20.515625 
Q 6.78125 27.484375 10.78125 32.3125 
Q 14.796875 37.15625 21.921875 38.8125 
z
M 18.3125 54.390625 
Q 18.3125 48.734375 21.84375 45.5625 
Q 25.390625 42.390625 31.78125 42.390625 
Q 38.140625 42.390625 41.71875 45.5625 
Q 45.3125 48.734375 45.3125 54.390625 
Q 45.3125 60.0625 41.71875 63.234375 
Q 38.140625 66.40625 31.78125 66.40625 
Q 25.390625 66.40625 21.84375 63.234375 
Q 18.3125 60.0625 18.3125 54.390625 
z
" id="DejaVuSans-56"/>
      </defs>
      <g transform="translate(317.488437 322.182437)scale(0.1 -0.1)">
       <use xlink:href="#DejaVuSans-48"/>
       <use x="63.623047" xlink:href="#DejaVuSans-46"/>
       <use x="95.410156" xlink:href="#DejaVuSans-56"/>
      </g>
     </g>
    </g>
    <g id="xtick_6">
     <g id="line2d_6">
      <g>
       <use style="stroke:#000000;stroke-width:0.8;" x="384.96" xlink:href="#m6fab7658e1" y="307.584"/>
      </g>
     </g>
     <g id="text_6">
      <!-- 1.0 -->
      <defs>
       <path d="M 12.40625 8.296875 
L 28.515625 8.296875 
L 28.515625 63.921875 
L 10.984375 60.40625 
L 10.984375 69.390625 
L 28.421875 72.90625 
L 38.28125 72.90625 
L 38.28125 8.296875 
L 54.390625 8.296875 
L 54.390625 0 
L 12.40625 0 
z
" id="DejaVuSans-49"/>
      </defs>
      <g transform="translate(377.008438 322.182437)scale(0.1 -0.1)">
       <use xlink:href="#DejaVuSans-49"/>
       <use x="63.623047" xlink:href="#DejaVuSans-46"/>
       <use x="95.410156" xlink:href="#DejaVuSans-48"/>
      </g>
     </g>
    </g>
   </g>
   <g id="matplotlib.axis_2">
    <g id="ytick_1">
     <g id="line2d_7">
      <defs>
       <path d="M 0 0 
L -3.5 0 
" id="m1c9f5075d1" style="stroke:#000000;stroke-width:0.8;"/>
      </defs>
      <g>
       <use style="stroke:#000000;stroke-width:0.8;" x="57.6" xlink:href="#m1c9f5075d1" y="275.540548"/>
      </g>
     </g>
     <g id="text_7">
      <!-- −0.6 -->
      <defs>
       <path d="M 10.59375 35.5 
L 73.1875 35.5 
L 73.1875 27.203125 
L 10.59375 27.203125 
z
" id="DejaVuSans-8722"/>
      </defs>
      <g transform="translate(26.317187 279.339767)scale(0.1 -0.1)">
       <use xlink:href="#DejaVuSans-8722"/>
       <use x="83.789062" xlink:href="#DejaVuSans-48"/>
       <use x="147.412109" xlink:href="#DejaVuSans-46"/>
       <use x="179.199219" xlink:href="#DejaVuSans-54"/>
      </g>
     </g>
    </g>
    <g id="ytick_2">
     <g id="line2d_8">
      <g>
       <use style="stroke:#000000;stroke-width:0.8;" x="57.6" xlink:href="#m1c9f5075d1" y="231.451171"/>
      </g>
     </g>
     <g id="text_8">
      <!-- −0.5 -->
      <defs>
       <path d="M 10.796875 72.90625 
L 49.515625 72.90625 
L 49.515625 64.59375 
L 19.828125 64.59375 
L 19.828125 46.734375 
Q 21.96875 47.46875 24.109375 47.828125 
Q 26.265625 48.1875 28.421875 48.1875 
Q 40.625 48.1875 47.75 41.5 
Q 54.890625 34.8125 54.890625 23.390625 
Q 54.890625 11.625 47.5625 5.09375 
Q 40.234375 -1.421875 26.90625 -1.421875 
Q 22.3125 -1.421875 17.546875 -0.640625 
Q 12.796875 0.140625 7.71875 1.703125 
L 7.71875 11.625 
Q 12.109375 9.234375 16.796875 8.0625 
Q 21.484375 6.890625 26.703125 6.890625 
Q 35.15625 6.890625 40.078125 11.328125 
Q 45.015625 15.765625 45.015625 23.390625 
Q 45.015625 31 40.078125 35.4375 
Q 35.15625 39.890625 26.703125 39.890625 
Q 22.75 39.890625 18.8125 39.015625 
Q 14.890625 38.140625 10.796875 36.28125 
z
" id="DejaVuSans-53"/>
      </defs>
      <g transform="translate(26.317187 235.25039)scale(0.1 -0.1)">
       <use xlink:href="#DejaVuSans-8722"/>
       <use x="83.789062" xlink:href="#DejaVuSans-48"/>
       <use x="147.412109" xlink:href="#DejaVuSans-46"/>
       <use x="179.199219" xlink:href="#DejaVuSans-53"/>
      </g>
     </g>
    </g>
    <g id="ytick_3">
     <g id="line2d_9">
      <g>
       <use style="stroke:#000000;stroke-width:0.8;" x="57.6" xlink:href="#m1c9f5075d1" y="187.361794"/>
      </g>
     </g>
     <g id="text_9">
      <!-- −0.4 -->
      <g transform="translate(26.317187 191.161012)scale(0.1 -0.1)">
       <use xlink:href="#DejaVuSans-8722"/>
       <use x="83.789062" xlink:href="#DejaVuSans-48"/>
       <use x="147.412109" xlink:href="#DejaVuSans-46"/>
       <use x="179.199219" xlink:href="#DejaVuSans-52"/>
      </g>
     </g>
    </g>
    <g id="ytick_4">
     <g id="line2d_10">
      <g>
       <use style="stroke:#000000;stroke-width:0.8;" x="57.6" xlink:href="#m1c9f5075d1" y="143.272416"/>
      </g>
     </g>
     <g id="text_10">
      <!-- −0.3 -->
      <defs>
       <path d="M 40.578125 39.3125 
Q 47.65625 37.796875 51.625 33 
Q 55.609375 28.21875 55.609375 21.1875 
Q 55.609375 10.40625 48.1875 4.484375 
Q 40.765625 -1.421875 27.09375 -1.421875 
Q 22.515625 -1.421875 17.65625 -0.515625 
Q 12.796875 0.390625 7.625 2.203125 
L 7.625 11.71875 
Q 11.71875 9.328125 16.59375 8.109375 
Q 21.484375 6.890625 26.8125 6.890625 
Q 36.078125 6.890625 40.9375 10.546875 
Q 45.796875 14.203125 45.796875 21.1875 
Q 45.796875 27.640625 41.28125 31.265625 
Q 36.765625 34.90625 28.71875 34.90625 
L 20.21875 34.90625 
L 20.21875 43.015625 
L 29.109375 43.015625 
Q 36.375 43.015625 40.234375 45.921875 
Q 44.09375 48.828125 44.09375 54.296875 
Q 44.09375 59.90625 40.109375 62.90625 
Q 36.140625 65.921875 28.71875 65.921875 
Q 24.65625 65.921875 20.015625 65.03125 
Q 15.375 64.15625 9.8125 62.3125 
L 9.8125 71.09375 
Q 15.4375 72.65625 20.34375 73.4375 
Q 25.25 74.21875 29.59375 74.21875 
Q 40.828125 74.21875 47.359375 69.109375 
Q 53.90625 64.015625 53.90625 55.328125 
Q 53.90625 49.265625 50.4375 45.09375 
Q 46.96875 40.921875 40.578125 39.3125 
z
" id="DejaVuSans-51"/>
      </defs>
      <g transform="translate(26.317187 147.071635)scale(0.1 -0.1)">
       <use xlink:href="#DejaVuSans-8722"/>
       <use x="83.789062" xlink:href="#DejaVuSans-48"/>
       <use x="147.412109" xlink:href="#DejaVuSans-46"/>
       <use x="179.199219" xlink:href="#DejaVuSans-51"/>
      </g>
     </g>
    </g>
    <g id="ytick_5">
     <g id="line2d_11">
      <g>
       <use style="stroke:#000000;stroke-width:0.8;" x="57.6" xlink:href="#m1c9f5075d1" y="99.183039"/>
      </g>
     </g>
     <g id="text_11">
      <!-- −0.2 -->
      <g transform="translate(26.317187 102.982258)scale(0.1 -0.1)">
       <use xlink:href="#DejaVuSans-8722"/>
       <use x="83.789062" xlink:href="#DejaVuSans-48"/>
       <use x="147.412109" xlink:href="#DejaVuSans-46"/>
       <use x="179.199219" xlink:href="#DejaVuSans-50"/>
      </g>
     </g>
    </g>
    <g id="ytick_6">
     <g id="line2d_12">
      <g>
       <use style="stroke:#000000;stroke-width:0.8;" x="57.6" xlink:href="#m1c9f5075d1" y="55.093662"/>
      </g>
     </g>
     <g id="text_12">
      <!-- −0.1 -->
      <g transform="translate(26.317187 58.89288)scale(0.1 -0.1)">
       <use xlink:href="#DejaVuSans-8722"/>
       <use x="83.789062" xlink:href="#DejaVuSans-48"/>
       <use x="147.412109" xlink:href="#DejaVuSans-46"/>
       <use x="179.199219" xlink:href="#DejaVuSans-49"/>
      </g>
     </g>
    </g>
   </g>
   <g id="line2d_13">
    <path clip-path="url(#p01b5cde8cd)" d="M 87.36 68.386809 
L 93.312 91.636756 
L 97.776 108.717303 
L 100.752 119.239234 
L 103.728 128.727196 
L 106.704 137.000437 
L 108.192 140.656952 
L 109.68 143.994749 
L 111.168 147.022952 
L 112.656 149.756063 
L 114.144 152.212739 
L 115.632 154.414394 
L 117.12 156.383701 
L 118.608 158.143073 
L 120.096 159.713195 
L 121.584 161.111711 
L 123.072 162.352115 
L 124.56 163.442917 
L 126.048 164.387139 
L 127.536 165.182155 
L 129.024 165.819893 
L 130.512 166.287389 
L 132 166.567661 
L 133.488 166.640864 
L 134.976 166.485662 
L 136.464 166.080749 
L 137.952 165.406449 
L 139.44 164.446312 
L 140.928 163.188643 
L 142.416 161.627886 
L 143.904 159.765813 
L 145.392 157.612476 
L 146.88 155.186877 
L 149.856 149.641653 
L 154.32 140.289632 
L 157.296 134.099769 
L 158.784 131.244832 
L 160.272 128.659493 
L 161.76 126.427384 
L 163.248 124.631033 
L 164.736 123.349871 
L 166.224 122.658189 
L 167.712 122.623084 
L 169.2 123.302432 
L 170.688 124.742962 
L 172.176 126.978484 
L 173.664 130.028346 
L 175.152 133.896186 
L 176.64 138.569059 
L 178.128 144.016997 
L 179.616 150.193061 
L 181.104 157.033917 
L 184.08 172.38197 
L 187.056 189.282413 
L 193.008 224.02948 
L 195.984 240.020876 
L 197.472 247.319863 
L 198.96 254.053339 
L 200.448 260.164998 
L 201.936 265.615128 
L 203.424 270.380695 
L 204.912 274.454813 
L 206.4 277.845633 
L 207.888 280.574733 
L 209.376 282.675127 
L 210.864 284.188994 
L 212.352 285.165249 
L 213.84 285.657104 
L 215.328 285.719711 
L 216.816 285.408002 
L 218.304 284.774818 
L 219.792 283.869375 
L 221.28 282.736115 
L 222.768 281.413956 
L 225.744 278.329199 
L 228.72 274.810902 
L 231.696 270.976364 
L 236.16 264.764142 
L 240.624 258.11765 
L 252.528 239.94208 
L 255.504 235.808354 
L 258.48 232.018367 
L 261.456 228.623645 
L 264.432 225.64504 
L 267.408 223.075541 
L 270.384 220.887488 
L 273.36 219.042063 
L 276.336 217.498756 
L 279.312 216.222819 
L 282.288 215.189497 
L 285.264 214.384673 
L 288.24 213.80246 
L 291.216 213.440866 
L 294.192 213.296964 
L 297.168 213.362928 
L 300.144 213.623915 
L 303.12 214.05819 
L 307.584 214.976143 
L 312.048 216.13306 
L 318 217.926168 
L 325.44 220.455365 
L 334.368 223.788719 
L 344.784 227.659436 
L 359.664 232.981707 
L 364.128 234.946915 
L 368.592 237.239146 
L 373.056 239.825547 
L 383.472 246.108705 
L 384.96 246.914959 
L 384.96 246.914959 
" style="fill:none;stroke:#333333;stroke-linecap:square;stroke-width:1.5;"/>
   </g>
   <g id="line2d_14">
    <path clip-path="url(#p01b5cde8cd)" d="M 87.36 68.386808 
L 105.216 133.02243 
L 124.56 163.442915 
L 142.416 161.627888 
L 161.76 126.427384 
L 179.616 150.193058 
L 198.96 254.053343 
L 216.816 285.408 
L 236.16 264.764143 
L 255.504 235.808354 
L 274.848 218.235019 
L 294.192 213.296963 
L 312.048 216.13306 
L 329.904 222.094931 
L 347.76 228.698991 
L 367.104 236.438533 
L 384.96 246.914959 
" style="fill:none;stroke:#666666;stroke-linecap:square;stroke-width:1.5;"/>
    <defs>
     <path d="M 0 3 
C 0.795609 3 1.55874 2.683901 2.12132 2.12132 
C 2.683901 1.55874 3 0.795609 3 0 
C 3 -0.795609 2.683901 -1.55874 2.12132 -2.12132 
C 1.55874 -2.683901 0.795609 -3 0 -3 
C -0.795609 -3 -1.55874 -2.683901 -2.12132 -2.12132 
C -2.683901 -1.55874 -3 -0.795609 -3 0 
C -3 0.795609 -2.683901 1.55874 -2.12132 2.12132 
C -1.55874 2.683901 -0.795609 3 0 3 
z
" id="m93e1886569" style="stroke:#666666;"/>
    </defs>
    <g clip-path="url(#p01b5cde8cd)">
     <use style="fill:#666666;stroke:#666666;" x="87.36" xlink:href="#m93e1886569" y="68.386808"/>
     <use style="fill:#666666;stroke:#666666;" x="105.216" xlink:href="#m93e1886569" y="133.02243"/>
     <use style="fill:#666666;stroke:#666666;" x="124.56" xlink:href="#m93e1886569" y="163.442915"/>
     <use style="fill:#666666;stroke:#666666;" x="142.416" xlink:href="#m93e1886569" y="161.627888"/>
     <use style="fill:#666666;stroke:#666666;" x="161.76" xlink:href="#m93e1886569" y="126.427384"/>
     <use style="fill:#666666;stroke:#666666;" x="179.616" xlink:href="#m93e1886569" y="150.193058"/>
     <use style="fill:#666666;stroke:#666666;" x="198.96" xlink:href="#m93e1886569" y="254.053343"/>
     <use style="fill:#666666;stroke:#666666;" x="216.816" xlink:href="#m93e1886569" y="285.408"/>
     <use style="fill:#666666;stroke:#666666;" x="236.16" xlink:href="#m93e1886569" y="264.764143"/>
     <use style="fill:#666666;stroke:#666666;" x="255.504" xlink:href="#m93e1886569" y="235.808354"/>
     <use style="fill:#666666;stroke:#666666;" x="274.848" xlink:href="#m93e1886569" y="218.235019"/>
     <use style="fill:#666666;stroke:#666666;" x="294.192" xlink:href="#m93e1886569" y="213.296963"/>
     <use style="fill:#666666;stroke:#666666;" x="312.048" xlink:href="#m93e1886569" y="216.13306"/>
     <use style="fill:#666666;stroke:#666666;" x="329.904" xlink:href="#m93e1886569" y="222.094931"/>
     <use style="fill:#666666;stroke:#666666;" x="347.76" xlink:href="#m93e1886569" y="228.698991"/>
     <use style="fill:#666666;stroke:#666666;" x="367.104" xlink:href="#m93e1886569" y="236.438533"/>
     <use style="fill:#666666;stroke:#666666;" x="384.96" xlink:href="#m93e1886569" y="246.914959"/>
    </g>
   </g>
   <g id="line2d_15">
    <path clip-path="url(#p01b5cde8cd)" d="M 87.36 68.386808 
L 88.848 63.648 
L 90.336 74.659995 
L 91.824 97.463302 
L 94.8 154.090011 
L 96.288 176.147546 
L 97.776 188.806834 
L 99.264 190.930267 
L 100.752 183.506632 
L 102.24 169.10037 
L 105.216 133.02243 
L 106.704 117.790473 
L 108.192 107.438272 
L 109.68 102.895959 
L 111.168 104.052274 
L 112.656 109.964789 
L 114.144 119.158983 
L 117.12 140.722975 
L 118.608 150.163556 
L 120.096 157.374917 
L 121.584 161.928137 
L 123.072 163.830714 
L 124.56 163.442915 
L 126.048 161.363643 
L 127.536 158.30758 
L 129.024 154.991422 
L 130.512 152.041703 
L 132 149.931065 
L 133.488 148.944745 
L 134.976 149.175029 
L 136.464 150.538638 
L 137.952 152.810552 
L 140.928 158.734008 
L 142.416 161.627888 
L 143.904 163.997552 
L 145.392 165.552338 
L 146.88 166.082488 
L 148.368 165.469518 
L 149.856 163.687734 
L 151.344 160.798343 
L 152.832 156.937929 
L 154.32 152.303156 
L 157.296 141.693275 
L 160.272 131.084617 
L 161.76 126.427384 
L 163.248 122.499517 
L 164.736 119.480315 
L 166.224 117.508046 
L 167.712 116.678194 
L 169.2 117.043905 
L 170.688 118.618221 
L 172.176 121.377691 
L 173.664 125.266952 
L 175.152 130.203908 
L 176.64 136.085175 
L 178.128 142.791518 
L 181.104 158.154081 
L 184.08 175.207797 
L 190.032 210.293781 
L 193.008 226.630863 
L 195.984 241.342749 
L 197.472 247.964664 
L 198.96 254.053343 
L 200.448 259.588647 
L 201.936 264.559561 
L 203.424 268.963226 
L 204.912 272.80395 
L 206.4 276.092223 
L 207.888 278.84377 
L 209.376 281.078648 
L 210.864 282.820407 
L 212.352 284.095309 
L 213.84 284.93163 
L 215.328 285.35903 
L 216.816 285.408 
L 218.304 285.109375 
L 219.792 284.493926 
L 221.28 283.592006 
L 222.768 282.433265 
L 224.256 281.046413 
L 225.744 279.459032 
L 228.72 275.786586 
L 231.696 271.609637 
L 236.16 264.764143 
L 246.576 248.307645 
L 251.04 241.769017 
L 254.016 237.723759 
L 256.992 233.968658 
L 259.968 230.525594 
L 262.944 227.407928 
L 265.92 224.621927 
L 268.896 222.168009 
L 271.872 220.041796 
L 274.848 218.235019 
L 277.824 216.736279 
L 280.8 215.531693 
L 283.776 214.605439 
L 286.752 213.940221 
L 289.728 213.517672 
L 292.704 213.318699 
L 295.68 213.323786 
L 298.656 213.513272 
L 301.632 213.867586 
L 306.096 214.666146 
L 310.56 215.729832 
L 315.024 217.000155 
L 320.976 218.924386 
L 329.904 222.094931 
L 353.712 230.935994 
L 361.152 233.866976 
L 367.104 236.438533 
L 371.568 238.585221 
L 376.032 240.993803 
L 380.496 243.741768 
L 383.472 245.804367 
L 384.96 246.914959 
L 384.96 246.914959 
" style="fill:none;stroke:#000000;stroke-linecap:square;stroke-width:1.5;"/>
   </g>
   <g id="line2d_16">
    <path clip-path="url(#p01b5cde8cd)" d="M 329.904 222.094931 
L 329.904 222.094931 
" style="fill:none;stroke:#ff00ff;stroke-linecap:square;stroke-width:1.5;"/>
    <defs>
     <path d="M 0 3 
C 0.795609 3 1.55874 2.683901 2.12132 2.12132 
C 2.683901 1.55874 3 0.795609 3 0 
C 3 -0.795609 2.683901 -1.55874 2.12132 -2.12132 
C 1.55874 -2.683901 0.795609 -3 0 -3 
C -0.795609 -3 -1.55874 -2.683901 -2.12132 -2.12132 
C -2.683901 -1.55874 -3 -0.795609 -3 0 
C -3 0.795609 -2.683901 1.55874 -2.12132 2.12132 
C -1.55874 2.683901 -0.795609 3 0 3 
z
" id="m8f06c93493" style="stroke:#ff00ff;"/>
    </defs>
    <g clip-path="url(#p01b5cde8cd)">
     <use style="fill:#ff00ff;stroke:#ff00ff;" x="329.904" xlink:href="#m8f06c93493" y="222.094931"/>
     <use style="fill:#ff00ff;stroke:#ff00ff;" x="329.904" xlink:href="#m8f06c93493" y="222.094931"/>
    </g>
   </g>
   <g id="patch_3">
    <path d="M 57.6 307.584 
L 57.6 41.472 
" style="fill:none;stroke:#000000;stroke-linecap:square;stroke-linejoin:miter;stroke-width:0.8;"/>
   </g>
   <g id="patch_4">
    <path d="M 414.72 307.584 
L 414.72 41.472 
" style="fill:none;stroke:#000000;stroke-linecap:square;stroke-linejoin:miter;stroke-width:0.8;"/>
   </g>
   <g id="patch_5">
    <path d="M 57.6 307.584 
L 414.72 307.584 
" style="fill:none;stroke:#000000;stroke-linecap:square;stroke-linejoin:miter;stroke-width:0.8;"/>
   </g>
   <g id="patch_6">
    <path d="M 57.6 41.472 
L 414.72 41.472 
" style="fill:none;stroke:#000000;stroke-linecap:square;stroke-linejoin:miter;stroke-width:0.8;"/>
   </g>
   <g id="legend_1">
    <g id="patch_7">
     <path d="M 279.791875 122.8845 
L 407.72 122.8845 
Q 409.72 122.8845 409.72 120.8845 
L 409.72 48.472 
Q 409.72 46.472 407.72 46.472 
L 279.791875 46.472 
Q 277.791875 46.472 277.791875 48.472 
L 277.791875 120.8845 
Q 277.791875 122.8845 279.791875 122.8845 
z
" style="fill:#ffffff;opacity:0.8;stroke:#cccccc;stroke-linejoin:miter;"/>
    </g>
    <g id="line2d_17">
     <path d="M 281.791875 54.570438 
L 301.791875 54.570438 
" style="fill:none;stroke:#333333;stroke-linecap:square;stroke-width:1.5;"/>
    </g>
    <g id="line2d_18"/>
    <g id="text_13">
     <!-- GP predicted mean -->
     <defs>
      <path d="M 59.515625 10.40625 
L 59.515625 29.984375 
L 43.40625 29.984375 
L 43.40625 38.09375 
L 69.28125 38.09375 
L 69.28125 6.78125 
Q 63.578125 2.734375 56.6875 0.65625 
Q 49.8125 -1.421875 42 -1.421875 
Q 24.90625 -1.421875 15.25 8.5625 
Q 5.609375 18.5625 5.609375 36.375 
Q 5.609375 54.25 15.25 64.234375 
Q 24.90625 74.21875 42 74.21875 
Q 49.125 74.21875 55.546875 72.453125 
Q 61.96875 70.703125 67.390625 67.28125 
L 67.390625 56.78125 
Q 61.921875 61.421875 55.765625 63.765625 
Q 49.609375 66.109375 42.828125 66.109375 
Q 29.4375 66.109375 22.71875 58.640625 
Q 16.015625 51.171875 16.015625 36.375 
Q 16.015625 21.625 22.71875 14.15625 
Q 29.4375 6.6875 42.828125 6.6875 
Q 48.046875 6.6875 52.140625 7.59375 
Q 56.25 8.5 59.515625 10.40625 
z
" id="DejaVuSans-71"/>
      <path d="M 19.671875 64.796875 
L 19.671875 37.40625 
L 32.078125 37.40625 
Q 38.96875 37.40625 42.71875 40.96875 
Q 46.484375 44.53125 46.484375 51.125 
Q 46.484375 57.671875 42.71875 61.234375 
Q 38.96875 64.796875 32.078125 64.796875 
z
M 9.8125 72.90625 
L 32.078125 72.90625 
Q 44.34375 72.90625 50.609375 67.359375 
Q 56.890625 61.8125 56.890625 51.125 
Q 56.890625 40.328125 50.609375 34.8125 
Q 44.34375 29.296875 32.078125 29.296875 
L 19.671875 29.296875 
L 19.671875 0 
L 9.8125 0 
z
" id="DejaVuSans-80"/>
      <path id="DejaVuSans-32"/>
      <path d="M 18.109375 8.203125 
L 18.109375 -20.796875 
L 9.078125 -20.796875 
L 9.078125 54.6875 
L 18.109375 54.6875 
L 18.109375 46.390625 
Q 20.953125 51.265625 25.265625 53.625 
Q 29.59375 56 35.59375 56 
Q 45.5625 56 51.78125 48.09375 
Q 58.015625 40.1875 58.015625 27.296875 
Q 58.015625 14.40625 51.78125 6.484375 
Q 45.5625 -1.421875 35.59375 -1.421875 
Q 29.59375 -1.421875 25.265625 0.953125 
Q 20.953125 3.328125 18.109375 8.203125 
z
M 48.6875 27.296875 
Q 48.6875 37.203125 44.609375 42.84375 
Q 40.53125 48.484375 33.40625 48.484375 
Q 26.265625 48.484375 22.1875 42.84375 
Q 18.109375 37.203125 18.109375 27.296875 
Q 18.109375 17.390625 22.1875 11.75 
Q 26.265625 6.109375 33.40625 6.109375 
Q 40.53125 6.109375 44.609375 11.75 
Q 48.6875 17.390625 48.6875 27.296875 
z
" id="DejaVuSans-112"/>
      <path d="M 41.109375 46.296875 
Q 39.59375 47.171875 37.8125 47.578125 
Q 36.03125 48 33.890625 48 
Q 26.265625 48 22.1875 43.046875 
Q 18.109375 38.09375 18.109375 28.8125 
L 18.109375 0 
L 9.078125 0 
L 9.078125 54.6875 
L 18.109375 54.6875 
L 18.109375 46.1875 
Q 20.953125 51.171875 25.484375 53.578125 
Q 30.03125 56 36.53125 56 
Q 37.453125 56 38.578125 55.875 
Q 39.703125 55.765625 41.0625 55.515625 
z
" id="DejaVuSans-114"/>
      <path d="M 56.203125 29.59375 
L 56.203125 25.203125 
L 14.890625 25.203125 
Q 15.484375 15.921875 20.484375 11.0625 
Q 25.484375 6.203125 34.421875 6.203125 
Q 39.59375 6.203125 44.453125 7.46875 
Q 49.3125 8.734375 54.109375 11.28125 
L 54.109375 2.78125 
Q 49.265625 0.734375 44.1875 -0.34375 
Q 39.109375 -1.421875 33.890625 -1.421875 
Q 20.796875 -1.421875 13.15625 6.1875 
Q 5.515625 13.8125 5.515625 26.8125 
Q 5.515625 40.234375 12.765625 48.109375 
Q 20.015625 56 32.328125 56 
Q 43.359375 56 49.78125 48.890625 
Q 56.203125 41.796875 56.203125 29.59375 
z
M 47.21875 32.234375 
Q 47.125 39.59375 43.09375 43.984375 
Q 39.0625 48.390625 32.421875 48.390625 
Q 24.90625 48.390625 20.390625 44.140625 
Q 15.875 39.890625 15.1875 32.171875 
z
" id="DejaVuSans-101"/>
      <path d="M 45.40625 46.390625 
L 45.40625 75.984375 
L 54.390625 75.984375 
L 54.390625 0 
L 45.40625 0 
L 45.40625 8.203125 
Q 42.578125 3.328125 38.25 0.953125 
Q 33.9375 -1.421875 27.875 -1.421875 
Q 17.96875 -1.421875 11.734375 6.484375 
Q 5.515625 14.40625 5.515625 27.296875 
Q 5.515625 40.1875 11.734375 48.09375 
Q 17.96875 56 27.875 56 
Q 33.9375 56 38.25 53.625 
Q 42.578125 51.265625 45.40625 46.390625 
z
M 14.796875 27.296875 
Q 14.796875 17.390625 18.875 11.75 
Q 22.953125 6.109375 30.078125 6.109375 
Q 37.203125 6.109375 41.296875 11.75 
Q 45.40625 17.390625 45.40625 27.296875 
Q 45.40625 37.203125 41.296875 42.84375 
Q 37.203125 48.484375 30.078125 48.484375 
Q 22.953125 48.484375 18.875 42.84375 
Q 14.796875 37.203125 14.796875 27.296875 
z
" id="DejaVuSans-100"/>
      <path d="M 9.421875 54.6875 
L 18.40625 54.6875 
L 18.40625 0 
L 9.421875 0 
z
M 9.421875 75.984375 
L 18.40625 75.984375 
L 18.40625 64.59375 
L 9.421875 64.59375 
z
" id="DejaVuSans-105"/>
      <path d="M 48.78125 52.59375 
L 48.78125 44.1875 
Q 44.96875 46.296875 41.140625 47.34375 
Q 37.3125 48.390625 33.40625 48.390625 
Q 24.65625 48.390625 19.8125 42.84375 
Q 14.984375 37.3125 14.984375 27.296875 
Q 14.984375 17.28125 19.8125 11.734375 
Q 24.65625 6.203125 33.40625 6.203125 
Q 37.3125 6.203125 41.140625 7.25 
Q 44.96875 8.296875 48.78125 10.40625 
L 48.78125 2.09375 
Q 45.015625 0.34375 40.984375 -0.53125 
Q 36.96875 -1.421875 32.421875 -1.421875 
Q 20.0625 -1.421875 12.78125 6.34375 
Q 5.515625 14.109375 5.515625 27.296875 
Q 5.515625 40.671875 12.859375 48.328125 
Q 20.21875 56 33.015625 56 
Q 37.15625 56 41.109375 55.140625 
Q 45.0625 54.296875 48.78125 52.59375 
z
" id="DejaVuSans-99"/>
      <path d="M 18.3125 70.21875 
L 18.3125 54.6875 
L 36.8125 54.6875 
L 36.8125 47.703125 
L 18.3125 47.703125 
L 18.3125 18.015625 
Q 18.3125 11.328125 20.140625 9.421875 
Q 21.96875 7.515625 27.59375 7.515625 
L 36.8125 7.515625 
L 36.8125 0 
L 27.59375 0 
Q 17.1875 0 13.234375 3.875 
Q 9.28125 7.765625 9.28125 18.015625 
L 9.28125 47.703125 
L 2.6875 47.703125 
L 2.6875 54.6875 
L 9.28125 54.6875 
L 9.28125 70.21875 
z
" id="DejaVuSans-116"/>
      <path d="M 52 44.1875 
Q 55.375 50.25 60.0625 53.125 
Q 64.75 56 71.09375 56 
Q 79.640625 56 84.28125 50.015625 
Q 88.921875 44.046875 88.921875 33.015625 
L 88.921875 0 
L 79.890625 0 
L 79.890625 32.71875 
Q 79.890625 40.578125 77.09375 44.375 
Q 74.3125 48.1875 68.609375 48.1875 
Q 61.625 48.1875 57.5625 43.546875 
Q 53.515625 38.921875 53.515625 30.90625 
L 53.515625 0 
L 44.484375 0 
L 44.484375 32.71875 
Q 44.484375 40.625 41.703125 44.40625 
Q 38.921875 48.1875 33.109375 48.1875 
Q 26.21875 48.1875 22.15625 43.53125 
Q 18.109375 38.875 18.109375 30.90625 
L 18.109375 0 
L 9.078125 0 
L 9.078125 54.6875 
L 18.109375 54.6875 
L 18.109375 46.1875 
Q 21.1875 51.21875 25.484375 53.609375 
Q 29.78125 56 35.6875 56 
Q 41.65625 56 45.828125 52.96875 
Q 50 49.953125 52 44.1875 
z
" id="DejaVuSans-109"/>
      <path d="M 34.28125 27.484375 
Q 23.390625 27.484375 19.1875 25 
Q 14.984375 22.515625 14.984375 16.5 
Q 14.984375 11.71875 18.140625 8.90625 
Q 21.296875 6.109375 26.703125 6.109375 
Q 34.1875 6.109375 38.703125 11.40625 
Q 43.21875 16.703125 43.21875 25.484375 
L 43.21875 27.484375 
z
M 52.203125 31.203125 
L 52.203125 0 
L 43.21875 0 
L 43.21875 8.296875 
Q 40.140625 3.328125 35.546875 0.953125 
Q 30.953125 -1.421875 24.3125 -1.421875 
Q 15.921875 -1.421875 10.953125 3.296875 
Q 6 8.015625 6 15.921875 
Q 6 25.140625 12.171875 29.828125 
Q 18.359375 34.515625 30.609375 34.515625 
L 43.21875 34.515625 
L 43.21875 35.40625 
Q 43.21875 41.609375 39.140625 45 
Q 35.0625 48.390625 27.6875 48.390625 
Q 23 48.390625 18.546875 47.265625 
Q 14.109375 46.140625 10.015625 43.890625 
L 10.015625 52.203125 
Q 14.9375 54.109375 19.578125 55.046875 
Q 24.21875 56 28.609375 56 
Q 40.484375 56 46.34375 49.84375 
Q 52.203125 43.703125 52.203125 31.203125 
z
" id="DejaVuSans-97"/>
      <path d="M 54.890625 33.015625 
L 54.890625 0 
L 45.90625 0 
L 45.90625 32.71875 
Q 45.90625 40.484375 42.875 44.328125 
Q 39.84375 48.1875 33.796875 48.1875 
Q 26.515625 48.1875 22.3125 43.546875 
Q 18.109375 38.921875 18.109375 30.90625 
L 18.109375 0 
L 9.078125 0 
L 9.078125 54.6875 
L 18.109375 54.6875 
L 18.109375 46.1875 
Q 21.34375 51.125 25.703125 53.5625 
Q 30.078125 56 35.796875 56 
Q 45.21875 56 50.046875 50.171875 
Q 54.890625 44.34375 54.890625 33.015625 
z
" id="DejaVuSans-110"/>
     </defs>
     <g transform="translate(309.791875 58.070438)scale(0.1 -0.1)">
      <use xlink:href="#DejaVuSans-71"/>
      <use x="77.490234" xlink:href="#DejaVuSans-80"/>
      <use x="137.792969" xlink:href="#DejaVuSans-32"/>
      <use x="169.580078" xlink:href="#DejaVuSans-112"/>
      <use x="233.056641" xlink:href="#DejaVuSans-114"/>
      <use x="271.919922" xlink:href="#DejaVuSans-101"/>
      <use x="333.443359" xlink:href="#DejaVuSans-100"/>
      <use x="396.919922" xlink:href="#DejaVuSans-105"/>
      <use x="424.703125" xlink:href="#DejaVuSans-99"/>
      <use x="479.683594" xlink:href="#DejaVuSans-116"/>
      <use x="518.892578" xlink:href="#DejaVuSans-101"/>
      <use x="580.416016" xlink:href="#DejaVuSans-100"/>
      <use x="643.892578" xlink:href="#DejaVuSans-32"/>
      <use x="675.679688" xlink:href="#DejaVuSans-109"/>
      <use x="773.091797" xlink:href="#DejaVuSans-101"/>
      <use x="834.615234" xlink:href="#DejaVuSans-97"/>
      <use x="895.894531" xlink:href="#DejaVuSans-110"/>
     </g>
    </g>
    <g id="line2d_19">
     <path d="M 281.791875 69.248563 
L 301.791875 69.248563 
" style="fill:none;stroke:#666666;stroke-linecap:square;stroke-width:1.5;"/>
    </g>
    <g id="line2d_20">
     <g>
      <use style="fill:#666666;stroke:#666666;" x="291.791875" xlink:href="#m93e1886569" y="69.248563"/>
     </g>
    </g>
    <g id="text_14">
     <!-- local linear approx. -->
     <defs>
      <path d="M 9.421875 75.984375 
L 18.40625 75.984375 
L 18.40625 0 
L 9.421875 0 
z
" id="DejaVuSans-108"/>
      <path d="M 30.609375 48.390625 
Q 23.390625 48.390625 19.1875 42.75 
Q 14.984375 37.109375 14.984375 27.296875 
Q 14.984375 17.484375 19.15625 11.84375 
Q 23.34375 6.203125 30.609375 6.203125 
Q 37.796875 6.203125 41.984375 11.859375 
Q 46.1875 17.53125 46.1875 27.296875 
Q 46.1875 37.015625 41.984375 42.703125 
Q 37.796875 48.390625 30.609375 48.390625 
z
M 30.609375 56 
Q 42.328125 56 49.015625 48.375 
Q 55.71875 40.765625 55.71875 27.296875 
Q 55.71875 13.875 49.015625 6.21875 
Q 42.328125 -1.421875 30.609375 -1.421875 
Q 18.84375 -1.421875 12.171875 6.21875 
Q 5.515625 13.875 5.515625 27.296875 
Q 5.515625 40.765625 12.171875 48.375 
Q 18.84375 56 30.609375 56 
z
" id="DejaVuSans-111"/>
      <path d="M 54.890625 54.6875 
L 35.109375 28.078125 
L 55.90625 0 
L 45.3125 0 
L 29.390625 21.484375 
L 13.484375 0 
L 2.875 0 
L 24.125 28.609375 
L 4.6875 54.6875 
L 15.28125 54.6875 
L 29.78125 35.203125 
L 44.28125 54.6875 
z
" id="DejaVuSans-120"/>
     </defs>
     <g transform="translate(309.791875 72.748563)scale(0.1 -0.1)">
      <use xlink:href="#DejaVuSans-108"/>
      <use x="27.783203" xlink:href="#DejaVuSans-111"/>
      <use x="88.964844" xlink:href="#DejaVuSans-99"/>
      <use x="143.945312" xlink:href="#DejaVuSans-97"/>
      <use x="205.224609" xlink:href="#DejaVuSans-108"/>
      <use x="233.007812" xlink:href="#DejaVuSans-32"/>
      <use x="264.794922" xlink:href="#DejaVuSans-108"/>
      <use x="292.578125" xlink:href="#DejaVuSans-105"/>
      <use x="320.361328" xlink:href="#DejaVuSans-110"/>
      <use x="383.740234" xlink:href="#DejaVuSans-101"/>
      <use x="445.263672" xlink:href="#DejaVuSans-97"/>
      <use x="506.542969" xlink:href="#DejaVuSans-114"/>
      <use x="547.65625" xlink:href="#DejaVuSans-32"/>
      <use x="579.443359" xlink:href="#DejaVuSans-97"/>
      <use x="640.722656" xlink:href="#DejaVuSans-112"/>
      <use x="704.199219" xlink:href="#DejaVuSans-112"/>
      <use x="767.675781" xlink:href="#DejaVuSans-114"/>
      <use x="806.539062" xlink:href="#DejaVuSans-111"/>
      <use x="864.595703" xlink:href="#DejaVuSans-120"/>
      <use x="923.775391" xlink:href="#DejaVuSans-46"/>
     </g>
    </g>
    <g id="line2d_21">
     <path d="M 281.791875 83.926688 
L 301.791875 83.926688 
" style="fill:none;stroke:#000000;stroke-linecap:square;stroke-width:1.5;"/>
    </g>
    <g id="line2d_22"/>
    <g id="text_15">
     <!-- true function -->
     <defs>
      <path d="M 8.5 21.578125 
L 8.5 54.6875 
L 17.484375 54.6875 
L 17.484375 21.921875 
Q 17.484375 14.15625 20.5 10.265625 
Q 23.53125 6.390625 29.59375 6.390625 
Q 36.859375 6.390625 41.078125 11.03125 
Q 45.3125 15.671875 45.3125 23.6875 
L 45.3125 54.6875 
L 54.296875 54.6875 
L 54.296875 0 
L 45.3125 0 
L 45.3125 8.40625 
Q 42.046875 3.421875 37.71875 1 
Q 33.40625 -1.421875 27.6875 -1.421875 
Q 18.265625 -1.421875 13.375 4.4375 
Q 8.5 10.296875 8.5 21.578125 
z
M 31.109375 56 
z
" id="DejaVuSans-117"/>
      <path d="M 37.109375 75.984375 
L 37.109375 68.5 
L 28.515625 68.5 
Q 23.6875 68.5 21.796875 66.546875 
Q 19.921875 64.59375 19.921875 59.515625 
L 19.921875 54.6875 
L 34.71875 54.6875 
L 34.71875 47.703125 
L 19.921875 47.703125 
L 19.921875 0 
L 10.890625 0 
L 10.890625 47.703125 
L 2.296875 47.703125 
L 2.296875 54.6875 
L 10.890625 54.6875 
L 10.890625 58.5 
Q 10.890625 67.625 15.140625 71.796875 
Q 19.390625 75.984375 28.609375 75.984375 
z
" id="DejaVuSans-102"/>
     </defs>
     <g transform="translate(309.791875 87.426688)scale(0.1 -0.1)">
      <use xlink:href="#DejaVuSans-116"/>
      <use x="39.208984" xlink:href="#DejaVuSans-114"/>
      <use x="80.322266" xlink:href="#DejaVuSans-117"/>
      <use x="143.701172" xlink:href="#DejaVuSans-101"/>
      <use x="205.224609" xlink:href="#DejaVuSans-32"/>
      <use x="237.011719" xlink:href="#DejaVuSans-102"/>
      <use x="272.216797" xlink:href="#DejaVuSans-117"/>
      <use x="335.595703" xlink:href="#DejaVuSans-110"/>
      <use x="398.974609" xlink:href="#DejaVuSans-99"/>
      <use x="453.955078" xlink:href="#DejaVuSans-116"/>
      <use x="493.164062" xlink:href="#DejaVuSans-105"/>
      <use x="520.947266" xlink:href="#DejaVuSans-111"/>
      <use x="582.128906" xlink:href="#DejaVuSans-110"/>
     </g>
    </g>
    <g id="line2d_23">
     <path d="M 281.791875 98.604813 
L 301.791875 98.604813 
" style="fill:none;stroke:#ff00ff;stroke-linecap:square;stroke-width:1.5;"/>
    </g>
    <g id="line2d_24">
     <g>
      <use style="fill:#ff00ff;stroke:#ff00ff;" x="291.791875" xlink:href="#m8f06c93493" y="98.604813"/>
     </g>
    </g>
    <g id="text_16">
     <!-- new sample -->
     <defs>
      <path d="M 4.203125 54.6875 
L 13.1875 54.6875 
L 24.421875 12.015625 
L 35.59375 54.6875 
L 46.1875 54.6875 
L 57.421875 12.015625 
L 68.609375 54.6875 
L 77.59375 54.6875 
L 63.28125 0 
L 52.6875 0 
L 40.921875 44.828125 
L 29.109375 0 
L 18.5 0 
z
" id="DejaVuSans-119"/>
      <path d="M 44.28125 53.078125 
L 44.28125 44.578125 
Q 40.484375 46.53125 36.375 47.5 
Q 32.28125 48.484375 27.875 48.484375 
Q 21.1875 48.484375 17.84375 46.4375 
Q 14.5 44.390625 14.5 40.28125 
Q 14.5 37.15625 16.890625 35.375 
Q 19.28125 33.59375 26.515625 31.984375 
L 29.59375 31.296875 
Q 39.15625 29.25 43.1875 25.515625 
Q 47.21875 21.78125 47.21875 15.09375 
Q 47.21875 7.46875 41.1875 3.015625 
Q 35.15625 -1.421875 24.609375 -1.421875 
Q 20.21875 -1.421875 15.453125 -0.5625 
Q 10.6875 0.296875 5.421875 2 
L 5.421875 11.28125 
Q 10.40625 8.6875 15.234375 7.390625 
Q 20.0625 6.109375 24.8125 6.109375 
Q 31.15625 6.109375 34.5625 8.28125 
Q 37.984375 10.453125 37.984375 14.40625 
Q 37.984375 18.0625 35.515625 20.015625 
Q 33.0625 21.96875 24.703125 23.78125 
L 21.578125 24.515625 
Q 13.234375 26.265625 9.515625 29.90625 
Q 5.8125 33.546875 5.8125 39.890625 
Q 5.8125 47.609375 11.28125 51.796875 
Q 16.75 56 26.8125 56 
Q 31.78125 56 36.171875 55.265625 
Q 40.578125 54.546875 44.28125 53.078125 
z
" id="DejaVuSans-115"/>
     </defs>
     <g transform="translate(309.791875 102.104813)scale(0.1 -0.1)">
      <use xlink:href="#DejaVuSans-110"/>
      <use x="63.378906" xlink:href="#DejaVuSans-101"/>
      <use x="124.902344" xlink:href="#DejaVuSans-119"/>
      <use x="206.689453" xlink:href="#DejaVuSans-32"/>
      <use x="238.476562" xlink:href="#DejaVuSans-115"/>
      <use x="290.576172" xlink:href="#DejaVuSans-97"/>
      <use x="351.855469" xlink:href="#DejaVuSans-109"/>
      <use x="449.267578" xlink:href="#DejaVuSans-112"/>
      <use x="512.744141" xlink:href="#DejaVuSans-108"/>
      <use x="540.527344" xlink:href="#DejaVuSans-101"/>
     </g>
    </g>
    <g id="patch_8">
     <path d="M 281.791875 116.7845 
L 301.791875 116.7845 
L 301.791875 109.7845 
L 281.791875 109.7845 
z
" style="fill:#347aeb;opacity:0.6;"/>
    </g>
    <g id="text_17">
     <!-- GP predicted 2$\sigma$ -->
     <defs>
      <path d="M 34.671875 47.5625 
Q 27.25 47.5625 22.21875 42.1875 
Q 16.890625 36.578125 15.140625 27.296875 
Q 13.1875 17.484375 16.3125 11.8125 
Q 19.390625 6.203125 26.65625 6.203125 
Q 33.84375 6.203125 39.109375 11.859375 
Q 44.4375 17.53125 46.34375 27.296875 
Q 48.046875 36.234375 45.015625 42.1875 
Q 42.1875 47.5625 34.671875 47.5625 
z
M 36.078125 54.734375 
L 65.921875 54.6875 
L 64.15625 45.703125 
L 54.109375 45.703125 
Q 57.90625 38.09375 55.859375 27.296875 
Q 53.21875 13.875 45.0625 6.25 
Q 36.859375 -1.421875 25.140625 -1.421875 
Q 13.375 -1.421875 8.203125 6.25 
Q 3.03125 13.875 5.671875 27.296875 
Q 8.25 40.765625 16.40625 48.390625 
Q 23.1875 54.734375 36.078125 54.734375 
z
" id="DejaVuSans-Oblique-963"/>
     </defs>
     <g transform="translate(309.791875 116.7845)scale(0.1 -0.1)">
      <use transform="translate(0 0.015625)" xlink:href="#DejaVuSans-71"/>
      <use transform="translate(77.490234 0.015625)" xlink:href="#DejaVuSans-80"/>
      <use transform="translate(137.792969 0.015625)" xlink:href="#DejaVuSans-32"/>
      <use transform="translate(169.580078 0.015625)" xlink:href="#DejaVuSans-112"/>
      <use transform="translate(233.056641 0.015625)" xlink:href="#DejaVuSans-114"/>
      <use transform="translate(274.169922 0.015625)" xlink:href="#DejaVuSans-101"/>
      <use transform="translate(335.693359 0.015625)" xlink:href="#DejaVuSans-100"/>
      <use transform="translate(399.169922 0.015625)" xlink:href="#DejaVuSans-105"/>
      <use transform="translate(426.953125 0.015625)" xlink:href="#DejaVuSans-99"/>
      <use transform="translate(481.933594 0.015625)" xlink:href="#DejaVuSans-116"/>
      <use transform="translate(521.142578 0.015625)" xlink:href="#DejaVuSans-101"/>
      <use transform="translate(582.666016 0.015625)" xlink:href="#DejaVuSans-100"/>
      <use transform="translate(646.142578 0.015625)" xlink:href="#DejaVuSans-32"/>
      <use transform="translate(677.929688 0.015625)" xlink:href="#DejaVuSans-50"/>
      <use transform="translate(741.552734 0.015625)" xlink:href="#DejaVuSans-Oblique-963"/>
     </g>
    </g>
   </g>
  </g>
 </g>
 <defs>
  <clipPath id="p01b5cde8cd">
   <rect height="266.112" width="357.12" x="57.6" y="41.472"/>
  </clipPath>
 </defs>
</svg>
