<?xml version="1.0" encoding="utf-8" standalone="no"?>
<!DOCTYPE svg PUBLIC "-//W3C//DTD SVG 1.1//EN"
  "http://www.w3.org/Graphics/SVG/1.1/DTD/svg11.dtd">
<!-- Created with matplotlib (https://matplotlib.org/) -->
<svg height="345.6pt" version="1.1" viewBox="0 0 460.8 345.6" width="460.8pt" xmlns="http://www.w3.org/2000/svg" xmlns:xlink="http://www.w3.org/1999/xlink">
 <defs>
  <style type="text/css">
*{stroke-linecap:butt;stroke-linejoin:round;}
  </style>
 </defs>
 <g id="figure_1">
  <g id="patch_1">
   <path d="M 0 345.6 
L 460.8 345.6 
L 460.8 0 
L 0 0 
z
" style="fill:#ffffff;"/>
  </g>
  <g id="axes_1">
   <g id="patch_2">
    <path d="M 57.6 307.584 
L 414.72 307.584 
L 414.72 41.472 
L 57.6 41.472 
z
" style="fill:#ffffff;"/>
   </g>
   <g id="PolyCollection_1">
    <defs>
     <path d="M 87.36 -277.204383 
L 87.36 -277.221998 
L 88.848 -287.076102 
L 90.336 -278.674476 
L 91.824 -257.383632 
L 93.312 -226.414585 
L 94.8 -191.518797 
L 96.288 -212.006699 
L 97.776 -230.488641 
L 99.264 -242.061563 
L 100.752 -246.92682 
L 102.24 -244.88263 
L 103.728 -233.932539 
L 105.216 -212.586378 
L 106.704 -235.787229 
L 108.192 -250.27918 
L 109.68 -257.857484 
L 111.168 -261.34495 
L 112.656 -262.312234 
L 114.144 -261.482216 
L 115.632 -259.111347 
L 117.12 -255.142605 
L 118.608 -249.207525 
L 120.096 -240.495513 
L 121.584 -227.4906 
L 123.072 -208.00897 
L 124.56 -182.165893 
L 126.048 -206.085143 
L 127.536 -223.524332 
L 129.024 -234.364343 
L 130.512 -240.761022 
L 132 -244.175484 
L 133.488 -245.328039 
L 134.976 -244.439074 
L 136.464 -241.31399 
L 137.952 -235.255833 
L 139.44 -224.810818 
L 140.928 -207.758838 
L 142.416 -183.980922 
L 143.904 -209.514946 
L 145.392 -228.464149 
L 146.88 -240.979692 
L 148.368 -249.340216 
L 149.856 -255.088969 
L 151.344 -259.054163 
L 152.832 -261.628586 
L 154.32 -262.905526 
L 155.808 -262.679006 
L 157.296 -260.286583 
L 158.784 -254.18947 
L 160.272 -241.379766 
L 161.76 -219.181424 
L 163.248 -241.311708 
L 164.736 -253.988423 
L 166.224 -259.938669 
L 167.712 -262.205619 
L 169.2 -262.349911 
L 170.688 -261.040184 
L 172.176 -258.457507 
L 173.664 -254.40891 
L 175.152 -248.213633 
L 176.64 -238.298828 
L 178.128 -221.610552 
L 179.616 -195.41575 
L 181.104 -213.487468 
L 182.592 -222.081621 
L 184.08 -223.843917 
L 185.568 -221.753324 
L 187.056 -217.31568 
L 188.544 -211.15232 
L 190.032 -203.416552 
L 191.52 -193.947583 
L 193.008 -182.270075 
L 194.496 -167.475792 
L 195.984 -148.042554 
L 197.472 -122.206959 
L 198.96 -91.555466 
L 200.448 -113.483496 
L 201.936 -130.416412 
L 203.424 -140.696646 
L 204.912 -145.985673 
L 206.4 -147.665575 
L 207.888 -146.4521 
L 209.376 -142.547076 
L 210.864 -135.707784 
L 212.352 -125.180157 
L 213.84 -109.562355 
L 215.328 -87.258397 
L 216.816 -60.200809 
L 218.304 -86.195973 
L 219.792 -107.554376 
L 221.28 -122.348882 
L 222.768 -132.205094 
L 224.256 -138.581824 
L 225.744 -142.32635 
L 227.232 -143.832925 
L 228.72 -143.152234 
L 230.208 -139.991695 
L 231.696 -133.595207 
L 233.184 -122.511121 
L 234.672 -104.733295 
L 236.16 -80.844667 
L 237.648 -107.461471 
L 239.136 -128.003988 
L 240.624 -141.927269 
L 242.112 -151.279647 
L 243.6 -157.561806 
L 245.088 -161.589119 
L 246.576 -163.727953 
L 248.064 -164.020441 
L 249.552 -162.184695 
L 251.04 -157.481741 
L 252.528 -148.423338 
L 254.016 -132.680742 
L 255.504 -109.800456 
L 256.992 -135.50378 
L 258.48 -154.094483 
L 259.968 -166.052234 
L 261.456 -173.734513 
L 262.944 -178.662479 
L 264.432 -181.614262 
L 265.92 -182.919731 
L 267.408 -182.596278 
L 268.896 -180.348924 
L 270.384 -175.431565 
L 271.872 -166.33172 
L 273.36 -150.59315 
L 274.848 -127.373791 
L 276.336 -152.059293 
L 277.824 -169.272518 
L 279.312 -179.864685 
L 280.8 -186.301883 
L 282.288 -190.107605 
L 283.776 -192.040697 
L 285.264 -192.411315 
L 286.752 -191.220389 
L 288.24 -188.159528 
L 289.728 -182.471393 
L 291.216 -172.634083 
L 292.704 -156.187638 
L 294.192 -132.311845 
L 295.68 -156.325751 
L 297.168 -172.808346 
L 298.656 -182.590857 
L 300.144 -188.122833 
L 301.632 -190.893008 
L 303.12 -191.596027 
L 304.608 -190.427658 
L 306.096 -187.179221 
L 307.584 -181.144274 
L 309.072 -170.831174 
L 310.56 -153.831418 
L 312.048 -129.47575 
L 313.536 -153.238489 
L 315.024 -169.639558 
L 316.512 -179.341785 
L 318 -184.74654 
L 319.488 -187.337145 
L 320.976 -187.809944 
L 322.464 -186.361098 
L 323.952 -182.779737 
L 325.44 -176.356322 
L 326.928 -165.604152 
L 328.416 -148.162167 
L 329.904 -123.513878 
L 331.392 -147.265267 
L 332.88 -163.805383 
L 334.368 -173.643347 
L 335.856 -179.132343 
L 337.344 -181.750227 
L 338.832 -182.196148 
L 340.32 -180.668526 
L 341.808 -176.95677 
L 343.296 -170.351173 
L 344.784 -159.371811 
L 346.272 -141.69616 
L 347.76 -116.909819 
L 349.248 -140.792588 
L 350.736 -157.663968 
L 352.224 -167.918634 
L 353.712 -173.880734 
L 355.2 -177.053938 
L 356.688 -178.19985 
L 358.176 -177.628686 
L 359.664 -175.333508 
L 361.152 -170.990278 
L 362.64 -163.824791 
L 364.128 -152.328777 
L 365.616 -134.207249 
L 367.104 -109.170277 
L 368.592 -132.990941 
L 370.08 -149.791761 
L 371.568 -159.851549 
L 373.056 -165.432246 
L 374.544 -167.9843 
L 376.032 -168.190616 
L 377.52 -166.229035 
L 379.008 -161.862512 
L 380.496 -154.361513 
L 381.984 -142.289302 
L 383.472 -123.616467 
L 384.96 -98.693853 
L 384.96 -98.676229 
L 384.96 -98.676229 
L 383.472 -75.166484 
L 381.984 -59.899027 
L 380.496 -51.312947 
L 379.008 -46.796952 
L 377.52 -44.86999 
L 376.032 -44.866882 
L 374.544 -46.615143 
L 373.056 -50.33794 
L 371.568 -56.749042 
L 370.08 -67.344973 
L 368.592 -84.556957 
L 367.104 -109.152657 
L 365.616 -85.675148 
L 364.128 -69.506381 
L 362.64 -59.898912 
L 361.152 -54.42384 
L 359.664 -51.568809 
L 358.176 -50.580484 
L 356.688 -51.154131 
L 355.2 -53.295583 
L 353.712 -57.32145 
L 352.224 -63.996747 
L 350.736 -74.840118 
L 349.248 -92.257291 
L 347.76 -116.8922 
L 346.272 -93.2797 
L 344.784 -76.995327 
L 343.296 -67.386954 
L 341.808 -62.062941 
L 340.32 -59.542372 
L 338.832 -59.128351 
L 337.344 -60.623289 
L 335.856 -64.23641 
L 334.368 -70.675718 
L 332.88 -81.427427 
L 331.392 -98.856827 
L 329.904 -123.49626 
L 328.416 -99.755474 
L 326.928 -83.232229 
L 325.44 -73.399932 
L 323.952 -67.899886 
L 322.464 -65.253714 
L 320.976 -64.762939 
L 319.488 -66.230134 
L 318 -69.867194 
L 316.512 -76.385652 
L 315.024 -87.267402 
L 313.536 -104.831425 
L 312.048 -129.45813 
L 310.56 -105.424637 
L 309.072 -88.460009 
L 307.584 -78.190058 
L 306.096 -72.302807 
L 304.608 -69.324626 
L 303.12 -68.554059 
L 301.632 -69.791661 
L 300.144 -73.249663 
L 298.656 -79.640402 
L 297.168 -90.437637 
L 295.68 -107.909758 
L 294.192 -132.294228 
L 292.704 -107.657764 
L 291.216 -89.833301 
L 289.728 -78.596164 
L 288.24 -71.669671 
L 286.752 -67.549588 
L 285.264 -65.464464 
L 283.776 -65.09445 
L 282.288 -66.438734 
L 280.8 -69.815409 
L 279.312 -75.993505 
L 277.824 -86.472741 
L 276.336 -103.52074 
L 274.848 -127.356171 
L 273.36 -102.054343 
L 271.872 -83.531061 
L 270.384 -71.558736 
L 268.896 -63.860091 
L 267.408 -58.924586 
L 265.92 -55.97064 
L 264.432 -54.665178 
L 262.944 -54.990809 
L 261.456 -57.245711 
L 259.968 -62.179435 
L 258.48 -71.293842 
L 256.992 -86.964966 
L 255.504 -109.782837 
L 254.016 -84.142016 
L 252.528 -65.623001 
L 251.04 -53.609518 
L 249.552 -45.696739 
L 248.064 -40.349848 
L 246.576 -36.780101 
L 245.088 -34.641311 
L 243.6 -33.891322 
L 242.112 -34.791812 
L 240.624 -38.055104 
L 239.136 -45.20361 
L 237.648 -58.922685 
L 236.16 -80.827048 
L 234.672 -56.194924 
L 233.184 -39.712187 
L 231.696 -29.725752 
L 230.208 -23.507774 
L 228.72 -19.486543 
L 227.232 -16.890207 
L 225.744 -15.383065 
L 224.256 -14.914297 
L 222.768 -15.717905 
L 221.28 -18.475465 
L 219.792 -24.754457 
L 218.304 -37.666253 
L 216.816 -60.183192 
L 215.328 -38.84241 
L 213.84 -27.192014 
L 212.352 -22.230639 
L 210.864 -20.836153 
L 209.376 -21.4479 
L 207.888 -23.413052 
L 206.4 -26.566395 
L 204.912 -31.114033 
L 203.424 -37.747112 
L 201.936 -48.046054 
L 200.448 -65.067511 
L 198.96 -91.537849 
L 197.472 -73.677435 
L 195.984 -65.243296 
L 194.496 -63.603623 
L 193.008 -65.784667 
L 191.52 -70.282151 
L 190.032 -76.475283 
L 188.544 -84.210975 
L 187.056 -93.65005 
L 185.568 -105.267686 
L 184.08 -119.971602 
L 182.592 -139.282377 
L 181.104 -164.95803 
L 179.616 -195.398134 
L 178.128 -173.194231 
L 176.64 -155.927025 
L 175.152 -145.261214 
L 173.664 -139.533072 
L 172.176 -137.353202 
L 170.688 -137.995618 
L 169.2 -141.245447 
L 167.712 -147.329574 
L 166.224 -156.986165 
L 164.736 -171.616758 
L 163.248 -192.895569 
L 161.76 -219.163806 
L 160.272 -192.849457 
L 158.784 -171.386702 
L 157.296 -156.407262 
L 155.808 -146.183005 
L 154.32 -139.226866 
L 152.832 -134.672579 
L 151.344 -132.09787 
L 149.856 -131.409571 
L 148.368 -132.84336 
L 146.88 -137.09984 
L 145.392 -145.661451 
L 143.904 -160.984965 
L 142.416 -183.963302 
L 140.928 -159.341345 
L 139.44 -142.43339 
L 137.952 -132.291852 
L 136.464 -126.421223 
L 134.976 -123.314163 
L 133.488 -122.261434 
L 132 -123.05006 
L 130.512 -125.867614 
L 129.024 -131.400184 
L 127.536 -141.14752 
L 126.048 -157.668364 
L 124.56 -182.148278 
L 123.072 -159.475728 
L 121.584 -144.674559 
L 120.096 -136.588635 
L 118.608 -132.669514 
L 117.12 -131.409147 
L 115.632 -132.090202 
L 114.144 -134.45349 
L 112.656 -138.557599 
L 111.168 -144.778993 
L 109.68 -153.935918 
L 108.192 -167.509969 
L 106.704 -187.418757 
L 105.216 -212.568761 
L 103.728 -187.151127 
L 102.24 -168.334635 
L 100.752 -157.189167 
L 99.264 -152.386835 
L 97.776 -154.190165 
L 96.288 -165.742409 
L 94.8 -191.501182 
L 93.312 -182.332493 
L 91.824 -190.137117 
L 90.336 -211.334902 
L 88.848 -242.694774 
L 87.36 -277.204383 
z
" id="m76df7dbd5f"/>
    </defs>
    <g clip-path="url(#p4f42e1a05d)">
     <use style="fill:#347aeb;fill-opacity:0.6;" x="0" xlink:href="#m76df7dbd5f" y="345.6"/>
    </g>
   </g>
   <g id="PathCollection_1">
    <defs>
     <path d="M 0 3 
C 0.795609 3 1.55874 2.683901 2.12132 2.12132 
C 2.683901 1.55874 3 0.795609 3 0 
C 3 -0.795609 2.683901 -1.55874 2.12132 -2.12132 
C 1.55874 -2.683901 0.795609 -3 0 -3 
C -0.795609 -3 -1.55874 -2.683901 -2.12132 -2.12132 
C -2.683901 -1.55874 -3 -0.795609 -3 0 
C -3 0.795609 -2.683901 1.55874 -2.12132 2.12132 
C -1.55874 2.683901 -0.795609 3 0 3 
z
" id="m3d75cdb289" style="stroke:#1f77b4;"/>
    </defs>
    <g clip-path="url(#p4f42e1a05d)">
     <use style="fill:#1f77b4;stroke:#1f77b4;" x="87.36" xlink:href="#m3d75cdb289" y="68.386808"/>
     <use style="fill:#1f77b4;stroke:#1f77b4;" x="94.8" xlink:href="#m3d75cdb289" y="154.090011"/>
     <use style="fill:#1f77b4;stroke:#1f77b4;" x="105.216" xlink:href="#m3d75cdb289" y="133.02243"/>
     <use style="fill:#1f77b4;stroke:#1f77b4;" x="124.56" xlink:href="#m3d75cdb289" y="163.442915"/>
     <use style="fill:#1f77b4;stroke:#1f77b4;" x="142.416" xlink:href="#m3d75cdb289" y="161.627888"/>
     <use style="fill:#1f77b4;stroke:#1f77b4;" x="161.76" xlink:href="#m3d75cdb289" y="126.427384"/>
     <use style="fill:#1f77b4;stroke:#1f77b4;" x="179.616" xlink:href="#m3d75cdb289" y="150.193058"/>
     <use style="fill:#1f77b4;stroke:#1f77b4;" x="198.96" xlink:href="#m3d75cdb289" y="254.053343"/>
     <use style="fill:#1f77b4;stroke:#1f77b4;" x="216.816" xlink:href="#m3d75cdb289" y="285.408"/>
     <use style="fill:#1f77b4;stroke:#1f77b4;" x="236.16" xlink:href="#m3d75cdb289" y="264.764143"/>
     <use style="fill:#1f77b4;stroke:#1f77b4;" x="255.504" xlink:href="#m3d75cdb289" y="235.808354"/>
     <use style="fill:#1f77b4;stroke:#1f77b4;" x="274.848" xlink:href="#m3d75cdb289" y="218.235019"/>
     <use style="fill:#1f77b4;stroke:#1f77b4;" x="294.192" xlink:href="#m3d75cdb289" y="213.296963"/>
     <use style="fill:#1f77b4;stroke:#1f77b4;" x="312.048" xlink:href="#m3d75cdb289" y="216.13306"/>
     <use style="fill:#1f77b4;stroke:#1f77b4;" x="329.904" xlink:href="#m3d75cdb289" y="222.094931"/>
     <use style="fill:#1f77b4;stroke:#1f77b4;" x="347.76" xlink:href="#m3d75cdb289" y="228.698991"/>
     <use style="fill:#1f77b4;stroke:#1f77b4;" x="367.104" xlink:href="#m3d75cdb289" y="236.438533"/>
     <use style="fill:#1f77b4;stroke:#1f77b4;" x="384.96" xlink:href="#m3d75cdb289" y="246.914959"/>
    </g>
   </g>
   <g id="matplotlib.axis_1">
    <g id="xtick_1">
     <g id="line2d_1">
      <defs>
       <path d="M 0 0 
L 0 3.5 
" id="m339021177f" style="stroke:#000000;stroke-width:0.8;"/>
      </defs>
      <g>
       <use style="stroke:#000000;stroke-width:0.8;" x="87.36" xlink:href="#m339021177f" y="307.584"/>
      </g>
     </g>
     <g id="text_1">
      <!-- 0.0 -->
      <defs>
       <path d="M 31.78125 66.40625 
Q 24.171875 66.40625 20.328125 58.90625 
Q 16.5 51.421875 16.5 36.375 
Q 16.5 21.390625 20.328125 13.890625 
Q 24.171875 6.390625 31.78125 6.390625 
Q 39.453125 6.390625 43.28125 13.890625 
Q 47.125 21.390625 47.125 36.375 
Q 47.125 51.421875 43.28125 58.90625 
Q 39.453125 66.40625 31.78125 66.40625 
z
M 31.78125 74.21875 
Q 44.046875 74.21875 50.515625 64.515625 
Q 56.984375 54.828125 56.984375 36.375 
Q 56.984375 17.96875 50.515625 8.265625 
Q 44.046875 -1.421875 31.78125 -1.421875 
Q 19.53125 -1.421875 13.0625 8.265625 
Q 6.59375 17.96875 6.59375 36.375 
Q 6.59375 54.828125 13.0625 64.515625 
Q 19.53125 74.21875 31.78125 74.21875 
z
" id="DejaVuSans-48"/>
       <path d="M 10.6875 12.40625 
L 21 12.40625 
L 21 0 
L 10.6875 0 
z
" id="DejaVuSans-46"/>
      </defs>
      <g transform="translate(79.408438 322.182437)scale(0.1 -0.1)">
       <use xlink:href="#DejaVuSans-48"/>
       <use x="63.623047" xlink:href="#DejaVuSans-46"/>
       <use x="95.410156" xlink:href="#DejaVuSans-48"/>
      </g>
     </g>
    </g>
    <g id="xtick_2">
     <g id="line2d_2">
      <g>
       <use style="stroke:#000000;stroke-width:0.8;" x="146.88" xlink:href="#m339021177f" y="307.584"/>
      </g>
     </g>
     <g id="text_2">
      <!-- 0.2 -->
      <defs>
       <path d="M 19.1875 8.296875 
L 53.609375 8.296875 
L 53.609375 0 
L 7.328125 0 
L 7.328125 8.296875 
Q 12.9375 14.109375 22.625 23.890625 
Q 32.328125 33.6875 34.8125 36.53125 
Q 39.546875 41.84375 41.421875 45.53125 
Q 43.3125 49.21875 43.3125 52.78125 
Q 43.3125 58.59375 39.234375 62.25 
Q 35.15625 65.921875 28.609375 65.921875 
Q 23.96875 65.921875 18.8125 64.3125 
Q 13.671875 62.703125 7.8125 59.421875 
L 7.8125 69.390625 
Q 13.765625 71.78125 18.9375 73 
Q 24.125 74.21875 28.421875 74.21875 
Q 39.75 74.21875 46.484375 68.546875 
Q 53.21875 62.890625 53.21875 53.421875 
Q 53.21875 48.921875 51.53125 44.890625 
Q 49.859375 40.875 45.40625 35.40625 
Q 44.1875 33.984375 37.640625 27.21875 
Q 31.109375 20.453125 19.1875 8.296875 
z
" id="DejaVuSans-50"/>
      </defs>
      <g transform="translate(138.928438 322.182437)scale(0.1 -0.1)">
       <use xlink:href="#DejaVuSans-48"/>
       <use x="63.623047" xlink:href="#DejaVuSans-46"/>
       <use x="95.410156" xlink:href="#DejaVuSans-50"/>
      </g>
     </g>
    </g>
    <g id="xtick_3">
     <g id="line2d_3">
      <g>
       <use style="stroke:#000000;stroke-width:0.8;" x="206.4" xlink:href="#m339021177f" y="307.584"/>
      </g>
     </g>
     <g id="text_3">
      <!-- 0.4 -->
      <defs>
       <path d="M 37.796875 64.3125 
L 12.890625 25.390625 
L 37.796875 25.390625 
z
M 35.203125 72.90625 
L 47.609375 72.90625 
L 47.609375 25.390625 
L 58.015625 25.390625 
L 58.015625 17.1875 
L 47.609375 17.1875 
L 47.609375 0 
L 37.796875 0 
L 37.796875 17.1875 
L 4.890625 17.1875 
L 4.890625 26.703125 
z
" id="DejaVuSans-52"/>
      </defs>
      <g transform="translate(198.448438 322.182437)scale(0.1 -0.1)">
       <use xlink:href="#DejaVuSans-48"/>
       <use x="63.623047" xlink:href="#DejaVuSans-46"/>
       <use x="95.410156" xlink:href="#DejaVuSans-52"/>
      </g>
     </g>
    </g>
    <g id="xtick_4">
     <g id="line2d_4">
      <g>
       <use style="stroke:#000000;stroke-width:0.8;" x="265.92" xlink:href="#m339021177f" y="307.584"/>
      </g>
     </g>
     <g id="text_4">
      <!-- 0.6 -->
      <defs>
       <path d="M 33.015625 40.375 
Q 26.375 40.375 22.484375 35.828125 
Q 18.609375 31.296875 18.609375 23.390625 
Q 18.609375 15.53125 22.484375 10.953125 
Q 26.375 6.390625 33.015625 6.390625 
Q 39.65625 6.390625 43.53125 10.953125 
Q 47.40625 15.53125 47.40625 23.390625 
Q 47.40625 31.296875 43.53125 35.828125 
Q 39.65625 40.375 33.015625 40.375 
z
M 52.59375 71.296875 
L 52.59375 62.3125 
Q 48.875 64.0625 45.09375 64.984375 
Q 41.3125 65.921875 37.59375 65.921875 
Q 27.828125 65.921875 22.671875 59.328125 
Q 17.53125 52.734375 16.796875 39.40625 
Q 19.671875 43.65625 24.015625 45.921875 
Q 28.375 48.1875 33.59375 48.1875 
Q 44.578125 48.1875 50.953125 41.515625 
Q 57.328125 34.859375 57.328125 23.390625 
Q 57.328125 12.15625 50.6875 5.359375 
Q 44.046875 -1.421875 33.015625 -1.421875 
Q 20.359375 -1.421875 13.671875 8.265625 
Q 6.984375 17.96875 6.984375 36.375 
Q 6.984375 53.65625 15.1875 63.9375 
Q 23.390625 74.21875 37.203125 74.21875 
Q 40.921875 74.21875 44.703125 73.484375 
Q 48.484375 72.75 52.59375 71.296875 
z
" id="DejaVuSans-54"/>
      </defs>
      <g transform="translate(257.968437 322.182437)scale(0.1 -0.1)">
       <use xlink:href="#DejaVuSans-48"/>
       <use x="63.623047" xlink:href="#DejaVuSans-46"/>
       <use x="95.410156" xlink:href="#DejaVuSans-54"/>
      </g>
     </g>
    </g>
    <g id="xtick_5">
     <g id="line2d_5">
      <g>
       <use style="stroke:#000000;stroke-width:0.8;" x="325.44" xlink:href="#m339021177f" y="307.584"/>
      </g>
     </g>
     <g id="text_5">
      <!-- 0.8 -->
      <defs>
       <path d="M 31.78125 34.625 
Q 24.75 34.625 20.71875 30.859375 
Q 16.703125 27.09375 16.703125 20.515625 
Q 16.703125 13.921875 20.71875 10.15625 
Q 24.75 6.390625 31.78125 6.390625 
Q 38.8125 6.390625 42.859375 10.171875 
Q 46.921875 13.96875 46.921875 20.515625 
Q 46.921875 27.09375 42.890625 30.859375 
Q 38.875 34.625 31.78125 34.625 
z
M 21.921875 38.8125 
Q 15.578125 40.375 12.03125 44.71875 
Q 8.5 49.078125 8.5 55.328125 
Q 8.5 64.0625 14.71875 69.140625 
Q 20.953125 74.21875 31.78125 74.21875 
Q 42.671875 74.21875 48.875 69.140625 
Q 55.078125 64.0625 55.078125 55.328125 
Q 55.078125 49.078125 51.53125 44.71875 
Q 48 40.375 41.703125 38.8125 
Q 48.828125 37.15625 52.796875 32.3125 
Q 56.78125 27.484375 56.78125 20.515625 
Q 56.78125 9.90625 50.3125 4.234375 
Q 43.84375 -1.421875 31.78125 -1.421875 
Q 19.734375 -1.421875 13.25 4.234375 
Q 6.78125 9.90625 6.78125 20.515625 
Q 6.78125 27.484375 10.78125 32.3125 
Q 14.796875 37.15625 21.921875 38.8125 
z
M 18.3125 54.390625 
Q 18.3125 48.734375 21.84375 45.5625 
Q 25.390625 42.390625 31.78125 42.390625 
Q 38.140625 42.390625 41.71875 45.5625 
Q 45.3125 48.734375 45.3125 54.390625 
Q 45.3125 60.0625 41.71875 63.234375 
Q 38.140625 66.40625 31.78125 66.40625 
Q 25.390625 66.40625 21.84375 63.234375 
Q 18.3125 60.0625 18.3125 54.390625 
z
" id="DejaVuSans-56"/>
      </defs>
      <g transform="translate(317.488437 322.182437)scale(0.1 -0.1)">
       <use xlink:href="#DejaVuSans-48"/>
       <use x="63.623047" xlink:href="#DejaVuSans-46"/>
       <use x="95.410156" xlink:href="#DejaVuSans-56"/>
      </g>
     </g>
    </g>
    <g id="xtick_6">
     <g id="line2d_6">
      <g>
       <use style="stroke:#000000;stroke-width:0.8;" x="384.96" xlink:href="#m339021177f" y="307.584"/>
      </g>
     </g>
     <g id="text_6">
      <!-- 1.0 -->
      <defs>
       <path d="M 12.40625 8.296875 
L 28.515625 8.296875 
L 28.515625 63.921875 
L 10.984375 60.40625 
L 10.984375 69.390625 
L 28.421875 72.90625 
L 38.28125 72.90625 
L 38.28125 8.296875 
L 54.390625 8.296875 
L 54.390625 0 
L 12.40625 0 
z
" id="DejaVuSans-49"/>
      </defs>
      <g transform="translate(377.008438 322.182437)scale(0.1 -0.1)">
       <use xlink:href="#DejaVuSans-49"/>
       <use x="63.623047" xlink:href="#DejaVuSans-46"/>
       <use x="95.410156" xlink:href="#DejaVuSans-48"/>
      </g>
     </g>
    </g>
   </g>
   <g id="matplotlib.axis_2">
    <g id="ytick_1">
     <g id="line2d_7">
      <defs>
       <path d="M 0 0 
L -3.5 0 
" id="mcdbc8551d3" style="stroke:#000000;stroke-width:0.8;"/>
      </defs>
      <g>
       <use style="stroke:#000000;stroke-width:0.8;" x="57.6" xlink:href="#mcdbc8551d3" y="275.540548"/>
      </g>
     </g>
     <g id="text_7">
      <!-- −0.6 -->
      <defs>
       <path d="M 10.59375 35.5 
L 73.1875 35.5 
L 73.1875 27.203125 
L 10.59375 27.203125 
z
" id="DejaVuSans-8722"/>
      </defs>
      <g transform="translate(26.317187 279.339767)scale(0.1 -0.1)">
       <use xlink:href="#DejaVuSans-8722"/>
       <use x="83.789062" xlink:href="#DejaVuSans-48"/>
       <use x="147.412109" xlink:href="#DejaVuSans-46"/>
       <use x="179.199219" xlink:href="#DejaVuSans-54"/>
      </g>
     </g>
    </g>
    <g id="ytick_2">
     <g id="line2d_8">
      <g>
       <use style="stroke:#000000;stroke-width:0.8;" x="57.6" xlink:href="#mcdbc8551d3" y="231.451171"/>
      </g>
     </g>
     <g id="text_8">
      <!-- −0.5 -->
      <defs>
       <path d="M 10.796875 72.90625 
L 49.515625 72.90625 
L 49.515625 64.59375 
L 19.828125 64.59375 
L 19.828125 46.734375 
Q 21.96875 47.46875 24.109375 47.828125 
Q 26.265625 48.1875 28.421875 48.1875 
Q 40.625 48.1875 47.75 41.5 
Q 54.890625 34.8125 54.890625 23.390625 
Q 54.890625 11.625 47.5625 5.09375 
Q 40.234375 -1.421875 26.90625 -1.421875 
Q 22.3125 -1.421875 17.546875 -0.640625 
Q 12.796875 0.140625 7.71875 1.703125 
L 7.71875 11.625 
Q 12.109375 9.234375 16.796875 8.0625 
Q 21.484375 6.890625 26.703125 6.890625 
Q 35.15625 6.890625 40.078125 11.328125 
Q 45.015625 15.765625 45.015625 23.390625 
Q 45.015625 31 40.078125 35.4375 
Q 35.15625 39.890625 26.703125 39.890625 
Q 22.75 39.890625 18.8125 39.015625 
Q 14.890625 38.140625 10.796875 36.28125 
z
" id="DejaVuSans-53"/>
      </defs>
      <g transform="translate(26.317187 235.25039)scale(0.1 -0.1)">
       <use xlink:href="#DejaVuSans-8722"/>
       <use x="83.789062" xlink:href="#DejaVuSans-48"/>
       <use x="147.412109" xlink:href="#DejaVuSans-46"/>
       <use x="179.199219" xlink:href="#DejaVuSans-53"/>
      </g>
     </g>
    </g>
    <g id="ytick_3">
     <g id="line2d_9">
      <g>
       <use style="stroke:#000000;stroke-width:0.8;" x="57.6" xlink:href="#mcdbc8551d3" y="187.361794"/>
      </g>
     </g>
     <g id="text_9">
      <!-- −0.4 -->
      <g transform="translate(26.317187 191.161012)scale(0.1 -0.1)">
       <use xlink:href="#DejaVuSans-8722"/>
       <use x="83.789062" xlink:href="#DejaVuSans-48"/>
       <use x="147.412109" xlink:href="#DejaVuSans-46"/>
       <use x="179.199219" xlink:href="#DejaVuSans-52"/>
      </g>
     </g>
    </g>
    <g id="ytick_4">
     <g id="line2d_10">
      <g>
       <use style="stroke:#000000;stroke-width:0.8;" x="57.6" xlink:href="#mcdbc8551d3" y="143.272416"/>
      </g>
     </g>
     <g id="text_10">
      <!-- −0.3 -->
      <defs>
       <path d="M 40.578125 39.3125 
Q 47.65625 37.796875 51.625 33 
Q 55.609375 28.21875 55.609375 21.1875 
Q 55.609375 10.40625 48.1875 4.484375 
Q 40.765625 -1.421875 27.09375 -1.421875 
Q 22.515625 -1.421875 17.65625 -0.515625 
Q 12.796875 0.390625 7.625 2.203125 
L 7.625 11.71875 
Q 11.71875 9.328125 16.59375 8.109375 
Q 21.484375 6.890625 26.8125 6.890625 
Q 36.078125 6.890625 40.9375 10.546875 
Q 45.796875 14.203125 45.796875 21.1875 
Q 45.796875 27.640625 41.28125 31.265625 
Q 36.765625 34.90625 28.71875 34.90625 
L 20.21875 34.90625 
L 20.21875 43.015625 
L 29.109375 43.015625 
Q 36.375 43.015625 40.234375 45.921875 
Q 44.09375 48.828125 44.09375 54.296875 
Q 44.09375 59.90625 40.109375 62.90625 
Q 36.140625 65.921875 28.71875 65.921875 
Q 24.65625 65.921875 20.015625 65.03125 
Q 15.375 64.15625 9.8125 62.3125 
L 9.8125 71.09375 
Q 15.4375 72.65625 20.34375 73.4375 
Q 25.25 74.21875 29.59375 74.21875 
Q 40.828125 74.21875 47.359375 69.109375 
Q 53.90625 64.015625 53.90625 55.328125 
Q 53.90625 49.265625 50.4375 45.09375 
Q 46.96875 40.921875 40.578125 39.3125 
z
" id="DejaVuSans-51"/>
      </defs>
      <g transform="translate(26.317187 147.071635)scale(0.1 -0.1)">
       <use xlink:href="#DejaVuSans-8722"/>
       <use x="83.789062" xlink:href="#DejaVuSans-48"/>
       <use x="147.412109" xlink:href="#DejaVuSans-46"/>
       <use x="179.199219" xlink:href="#DejaVuSans-51"/>
      </g>
     </g>
    </g>
    <g id="ytick_5">
     <g id="line2d_11">
      <g>
       <use style="stroke:#000000;stroke-width:0.8;" x="57.6" xlink:href="#mcdbc8551d3" y="99.183039"/>
      </g>
     </g>
     <g id="text_11">
      <!-- −0.2 -->
      <g transform="translate(26.317187 102.982258)scale(0.1 -0.1)">
       <use xlink:href="#DejaVuSans-8722"/>
       <use x="83.789062" xlink:href="#DejaVuSans-48"/>
       <use x="147.412109" xlink:href="#DejaVuSans-46"/>
       <use x="179.199219" xlink:href="#DejaVuSans-50"/>
      </g>
     </g>
    </g>
    <g id="ytick_6">
     <g id="line2d_12">
      <g>
       <use style="stroke:#000000;stroke-width:0.8;" x="57.6" xlink:href="#mcdbc8551d3" y="55.093662"/>
      </g>
     </g>
     <g id="text_12">
      <!-- −0.1 -->
      <g transform="translate(26.317187 58.89288)scale(0.1 -0.1)">
       <use xlink:href="#DejaVuSans-8722"/>
       <use x="83.789062" xlink:href="#DejaVuSans-48"/>
       <use x="147.412109" xlink:href="#DejaVuSans-46"/>
       <use x="179.199219" xlink:href="#DejaVuSans-49"/>
      </g>
     </g>
    </g>
   </g>
   <g id="line2d_13">
    <path clip-path="url(#p4f42e1a05d)" d="M 87.36 68.386809 
L 88.848 80.714562 
L 93.312 141.226461 
L 94.8 154.09001 
L 96.288 156.725446 
L 97.776 153.260597 
L 100.752 143.542006 
L 102.24 138.991368 
L 103.728 135.058167 
L 105.216 133.02243 
L 106.704 133.997007 
L 108.192 136.705425 
L 111.168 142.538028 
L 114.144 147.632147 
L 123.072 161.857651 
L 124.56 163.442914 
L 126.048 163.723247 
L 132 161.987228 
L 134.976 161.723381 
L 137.952 161.826158 
L 140.928 162.049909 
L 142.416 161.627888 
L 143.904 160.350045 
L 146.88 156.560234 
L 149.856 152.35073 
L 151.344 150.023983 
L 152.832 147.449417 
L 154.32 144.533804 
L 155.808 141.168995 
L 157.296 137.253078 
L 160.272 128.485388 
L 161.76 126.427385 
L 163.248 128.496362 
L 166.224 137.137583 
L 167.712 140.832403 
L 169.2 143.802321 
L 170.688 146.082099 
L 172.176 147.694646 
L 173.664 148.629009 
L 175.152 148.862576 
L 178.128 148.197608 
L 179.616 150.193058 
L 181.104 156.377251 
L 187.056 190.117135 
L 193.008 221.572629 
L 197.472 247.657803 
L 198.96 254.053343 
L 200.448 256.324496 
L 203.424 256.378121 
L 204.912 257.050147 
L 206.4 258.484015 
L 207.888 260.667424 
L 209.376 263.602512 
L 210.864 267.328031 
L 212.352 271.894602 
L 215.328 282.549597 
L 216.816 285.407999 
L 218.304 283.668887 
L 221.28 275.187827 
L 222.768 271.638501 
L 224.256 268.851939 
L 225.744 266.745292 
L 227.232 265.238434 
L 228.72 264.280611 
L 230.208 263.850265 
L 231.696 263.93952 
L 234.672 265.135891 
L 236.16 264.764143 
L 237.648 262.407922 
L 240.624 255.608813 
L 242.112 252.564271 
L 243.6 249.873436 
L 245.088 247.484785 
L 246.576 245.345973 
L 249.552 241.659283 
L 252.528 238.57683 
L 267.408 224.839568 
L 271.872 220.66861 
L 273.36 219.276254 
L 274.848 218.235019 
L 276.336 217.809983 
L 280.8 217.541354 
L 283.776 217.032427 
L 286.752 216.215011 
L 289.728 215.066221 
L 292.704 213.677299 
L 294.192 213.296964 
L 295.68 213.482246 
L 300.144 214.913752 
L 303.12 215.524957 
L 306.096 215.858986 
L 312.048 216.13306 
L 313.536 216.565043 
L 319.488 218.81636 
L 325.44 220.721873 
L 338.832 224.937751 
L 341.808 226.090144 
L 347.76 228.698991 
L 350.736 229.347957 
L 353.712 229.998908 
L 356.688 230.92301 
L 359.664 232.148841 
L 362.64 233.738148 
L 365.616 235.658802 
L 367.104 236.438533 
L 368.592 236.826051 
L 371.568 237.299704 
L 373.056 237.714907 
L 374.544 238.300279 
L 376.032 239.071251 
L 377.52 240.050488 
L 379.008 241.270268 
L 380.496 242.76277 
L 383.472 246.208524 
L 384.96 246.914959 
L 384.96 246.914959 
" style="fill:none;stroke:#333333;stroke-linecap:square;stroke-width:1.5;"/>
   </g>
   <g id="line2d_14">
    <path clip-path="url(#p4f42e1a05d)" d="M 87.36 68.386808 
L 94.8 154.090011 
L 105.216 133.02243 
L 124.56 163.442915 
L 142.416 161.627888 
L 161.76 126.427384 
L 179.616 150.193058 
L 198.96 254.053343 
L 216.816 285.408 
L 236.16 264.764143 
L 255.504 235.808354 
L 274.848 218.235019 
L 294.192 213.296963 
L 312.048 216.13306 
L 329.904 222.094931 
L 347.76 228.698991 
L 367.104 236.438533 
L 384.96 246.914959 
" style="fill:none;stroke:#666666;stroke-linecap:square;stroke-width:1.5;"/>
    <defs>
     <path d="M 0 3 
C 0.795609 3 1.55874 2.683901 2.12132 2.12132 
C 2.683901 1.55874 3 0.795609 3 0 
C 3 -0.795609 2.683901 -1.55874 2.12132 -2.12132 
C 1.55874 -2.683901 0.795609 -3 0 -3 
C -0.795609 -3 -1.55874 -2.683901 -2.12132 -2.12132 
C -2.683901 -1.55874 -3 -0.795609 -3 0 
C -3 0.795609 -2.683901 1.55874 -2.12132 2.12132 
C -1.55874 2.683901 -0.795609 3 0 3 
z
" id="m0a310a92a7" style="stroke:#666666;"/>
    </defs>
    <g clip-path="url(#p4f42e1a05d)">
     <use style="fill:#666666;stroke:#666666;" x="87.36" xlink:href="#m0a310a92a7" y="68.386808"/>
     <use style="fill:#666666;stroke:#666666;" x="94.8" xlink:href="#m0a310a92a7" y="154.090011"/>
     <use style="fill:#666666;stroke:#666666;" x="105.216" xlink:href="#m0a310a92a7" y="133.02243"/>
     <use style="fill:#666666;stroke:#666666;" x="124.56" xlink:href="#m0a310a92a7" y="163.442915"/>
     <use style="fill:#666666;stroke:#666666;" x="142.416" xlink:href="#m0a310a92a7" y="161.627888"/>
     <use style="fill:#666666;stroke:#666666;" x="161.76" xlink:href="#m0a310a92a7" y="126.427384"/>
     <use style="fill:#666666;stroke:#666666;" x="179.616" xlink:href="#m0a310a92a7" y="150.193058"/>
     <use style="fill:#666666;stroke:#666666;" x="198.96" xlink:href="#m0a310a92a7" y="254.053343"/>
     <use style="fill:#666666;stroke:#666666;" x="216.816" xlink:href="#m0a310a92a7" y="285.408"/>
     <use style="fill:#666666;stroke:#666666;" x="236.16" xlink:href="#m0a310a92a7" y="264.764143"/>
     <use style="fill:#666666;stroke:#666666;" x="255.504" xlink:href="#m0a310a92a7" y="235.808354"/>
     <use style="fill:#666666;stroke:#666666;" x="274.848" xlink:href="#m0a310a92a7" y="218.235019"/>
     <use style="fill:#666666;stroke:#666666;" x="294.192" xlink:href="#m0a310a92a7" y="213.296963"/>
     <use style="fill:#666666;stroke:#666666;" x="312.048" xlink:href="#m0a310a92a7" y="216.13306"/>
     <use style="fill:#666666;stroke:#666666;" x="329.904" xlink:href="#m0a310a92a7" y="222.094931"/>
     <use style="fill:#666666;stroke:#666666;" x="347.76" xlink:href="#m0a310a92a7" y="228.698991"/>
     <use style="fill:#666666;stroke:#666666;" x="367.104" xlink:href="#m0a310a92a7" y="236.438533"/>
     <use style="fill:#666666;stroke:#666666;" x="384.96" xlink:href="#m0a310a92a7" y="246.914959"/>
    </g>
   </g>
   <g id="line2d_15">
    <path clip-path="url(#p4f42e1a05d)" d="M 87.36 68.386808 
L 88.848 63.648 
L 90.336 74.659995 
L 91.824 97.463302 
L 94.8 154.090011 
L 96.288 176.147546 
L 97.776 188.806834 
L 99.264 190.930267 
L 100.752 183.506632 
L 102.24 169.10037 
L 105.216 133.02243 
L 106.704 117.790473 
L 108.192 107.438272 
L 109.68 102.895959 
L 111.168 104.052274 
L 112.656 109.964789 
L 114.144 119.158983 
L 117.12 140.722975 
L 118.608 150.163556 
L 120.096 157.374917 
L 121.584 161.928137 
L 123.072 163.830714 
L 124.56 163.442915 
L 126.048 161.363643 
L 127.536 158.30758 
L 129.024 154.991422 
L 130.512 152.041703 
L 132 149.931065 
L 133.488 148.944745 
L 134.976 149.175029 
L 136.464 150.538638 
L 137.952 152.810552 
L 140.928 158.734008 
L 142.416 161.627888 
L 143.904 163.997552 
L 145.392 165.552338 
L 146.88 166.082488 
L 148.368 165.469518 
L 149.856 163.687734 
L 151.344 160.798343 
L 152.832 156.937929 
L 154.32 152.303156 
L 157.296 141.693275 
L 160.272 131.084617 
L 161.76 126.427384 
L 163.248 122.499517 
L 164.736 119.480315 
L 166.224 117.508046 
L 167.712 116.678194 
L 169.2 117.043905 
L 170.688 118.618221 
L 172.176 121.377691 
L 173.664 125.266952 
L 175.152 130.203908 
L 176.64 136.085175 
L 178.128 142.791518 
L 181.104 158.154081 
L 184.08 175.207797 
L 190.032 210.293781 
L 193.008 226.630863 
L 195.984 241.342749 
L 197.472 247.964664 
L 198.96 254.053343 
L 200.448 259.588647 
L 201.936 264.559561 
L 203.424 268.963226 
L 204.912 272.80395 
L 206.4 276.092223 
L 207.888 278.84377 
L 209.376 281.078648 
L 210.864 282.820407 
L 212.352 284.095309 
L 213.84 284.93163 
L 215.328 285.35903 
L 216.816 285.408 
L 218.304 285.109375 
L 219.792 284.493926 
L 221.28 283.592006 
L 222.768 282.433265 
L 224.256 281.046413 
L 225.744 279.459032 
L 228.72 275.786586 
L 231.696 271.609637 
L 236.16 264.764143 
L 246.576 248.307645 
L 251.04 241.769017 
L 254.016 237.723759 
L 256.992 233.968658 
L 259.968 230.525594 
L 262.944 227.407928 
L 265.92 224.621927 
L 268.896 222.168009 
L 271.872 220.041796 
L 274.848 218.235019 
L 277.824 216.736279 
L 280.8 215.531693 
L 283.776 214.605439 
L 286.752 213.940221 
L 289.728 213.517672 
L 292.704 213.318699 
L 295.68 213.323786 
L 298.656 213.513272 
L 301.632 213.867586 
L 306.096 214.666146 
L 310.56 215.729832 
L 315.024 217.000155 
L 320.976 218.924386 
L 329.904 222.094931 
L 353.712 230.935994 
L 361.152 233.866976 
L 367.104 236.438533 
L 371.568 238.585221 
L 376.032 240.993803 
L 380.496 243.741768 
L 383.472 245.804367 
L 384.96 246.914959 
L 384.96 246.914959 
" style="fill:none;stroke:#000000;stroke-linecap:square;stroke-width:1.5;"/>
   </g>
   <g id="line2d_16">
    <path clip-path="url(#p4f42e1a05d)" d="M 94.8 154.090011 
L 94.8 154.090011 
" style="fill:none;stroke:#ff00ff;stroke-linecap:square;stroke-width:1.5;"/>
    <defs>
     <path d="M 0 3 
C 0.795609 3 1.55874 2.683901 2.12132 2.12132 
C 2.683901 1.55874 3 0.795609 3 0 
C 3 -0.795609 2.683901 -1.55874 2.12132 -2.12132 
C 1.55874 -2.683901 0.795609 -3 0 -3 
C -0.795609 -3 -1.55874 -2.683901 -2.12132 -2.12132 
C -2.683901 -1.55874 -3 -0.795609 -3 0 
C -3 0.795609 -2.683901 1.55874 -2.12132 2.12132 
C -1.55874 2.683901 -0.795609 3 0 3 
z
" id="m778778b7ac" style="stroke:#ff00ff;"/>
    </defs>
    <g clip-path="url(#p4f42e1a05d)">
     <use style="fill:#ff00ff;stroke:#ff00ff;" x="94.8" xlink:href="#m778778b7ac" y="154.090011"/>
     <use style="fill:#ff00ff;stroke:#ff00ff;" x="94.8" xlink:href="#m778778b7ac" y="154.090011"/>
    </g>
   </g>
   <g id="patch_3">
    <path d="M 57.6 307.584 
L 57.6 41.472 
" style="fill:none;stroke:#000000;stroke-linecap:square;stroke-linejoin:miter;stroke-width:0.8;"/>
   </g>
   <g id="patch_4">
    <path d="M 414.72 307.584 
L 414.72 41.472 
" style="fill:none;stroke:#000000;stroke-linecap:square;stroke-linejoin:miter;stroke-width:0.8;"/>
   </g>
   <g id="patch_5">
    <path d="M 57.6 307.584 
L 414.72 307.584 
" style="fill:none;stroke:#000000;stroke-linecap:square;stroke-linejoin:miter;stroke-width:0.8;"/>
   </g>
   <g id="patch_6">
    <path d="M 57.6 41.472 
L 414.72 41.472 
" style="fill:none;stroke:#000000;stroke-linecap:square;stroke-linejoin:miter;stroke-width:0.8;"/>
   </g>
   <g id="legend_1">
    <g id="patch_7">
     <path d="M 279.791875 122.8845 
L 407.72 122.8845 
Q 409.72 122.8845 409.72 120.8845 
L 409.72 48.472 
Q 409.72 46.472 407.72 46.472 
L 279.791875 46.472 
Q 277.791875 46.472 277.791875 48.472 
L 277.791875 120.8845 
Q 277.791875 122.8845 279.791875 122.8845 
z
" style="fill:#ffffff;opacity:0.8;stroke:#cccccc;stroke-linejoin:miter;"/>
    </g>
    <g id="line2d_17">
     <path d="M 281.791875 54.570438 
L 301.791875 54.570438 
" style="fill:none;stroke:#333333;stroke-linecap:square;stroke-width:1.5;"/>
    </g>
    <g id="line2d_18"/>
    <g id="text_13">
     <!-- GP predicted mean -->
     <defs>
      <path d="M 59.515625 10.40625 
L 59.515625 29.984375 
L 43.40625 29.984375 
L 43.40625 38.09375 
L 69.28125 38.09375 
L 69.28125 6.78125 
Q 63.578125 2.734375 56.6875 0.65625 
Q 49.8125 -1.421875 42 -1.421875 
Q 24.90625 -1.421875 15.25 8.5625 
Q 5.609375 18.5625 5.609375 36.375 
Q 5.609375 54.25 15.25 64.234375 
Q 24.90625 74.21875 42 74.21875 
Q 49.125 74.21875 55.546875 72.453125 
Q 61.96875 70.703125 67.390625 67.28125 
L 67.390625 56.78125 
Q 61.921875 61.421875 55.765625 63.765625 
Q 49.609375 66.109375 42.828125 66.109375 
Q 29.4375 66.109375 22.71875 58.640625 
Q 16.015625 51.171875 16.015625 36.375 
Q 16.015625 21.625 22.71875 14.15625 
Q 29.4375 6.6875 42.828125 6.6875 
Q 48.046875 6.6875 52.140625 7.59375 
Q 56.25 8.5 59.515625 10.40625 
z
" id="DejaVuSans-71"/>
      <path d="M 19.671875 64.796875 
L 19.671875 37.40625 
L 32.078125 37.40625 
Q 38.96875 37.40625 42.71875 40.96875 
Q 46.484375 44.53125 46.484375 51.125 
Q 46.484375 57.671875 42.71875 61.234375 
Q 38.96875 64.796875 32.078125 64.796875 
z
M 9.8125 72.90625 
L 32.078125 72.90625 
Q 44.34375 72.90625 50.609375 67.359375 
Q 56.890625 61.8125 56.890625 51.125 
Q 56.890625 40.328125 50.609375 34.8125 
Q 44.34375 29.296875 32.078125 29.296875 
L 19.671875 29.296875 
L 19.671875 0 
L 9.8125 0 
z
" id="DejaVuSans-80"/>
      <path id="DejaVuSans-32"/>
      <path d="M 18.109375 8.203125 
L 18.109375 -20.796875 
L 9.078125 -20.796875 
L 9.078125 54.6875 
L 18.109375 54.6875 
L 18.109375 46.390625 
Q 20.953125 51.265625 25.265625 53.625 
Q 29.59375 56 35.59375 56 
Q 45.5625 56 51.78125 48.09375 
Q 58.015625 40.1875 58.015625 27.296875 
Q 58.015625 14.40625 51.78125 6.484375 
Q 45.5625 -1.421875 35.59375 -1.421875 
Q 29.59375 -1.421875 25.265625 0.953125 
Q 20.953125 3.328125 18.109375 8.203125 
z
M 48.6875 27.296875 
Q 48.6875 37.203125 44.609375 42.84375 
Q 40.53125 48.484375 33.40625 48.484375 
Q 26.265625 48.484375 22.1875 42.84375 
Q 18.109375 37.203125 18.109375 27.296875 
Q 18.109375 17.390625 22.1875 11.75 
Q 26.265625 6.109375 33.40625 6.109375 
Q 40.53125 6.109375 44.609375 11.75 
Q 48.6875 17.390625 48.6875 27.296875 
z
" id="DejaVuSans-112"/>
      <path d="M 41.109375 46.296875 
Q 39.59375 47.171875 37.8125 47.578125 
Q 36.03125 48 33.890625 48 
Q 26.265625 48 22.1875 43.046875 
Q 18.109375 38.09375 18.109375 28.8125 
L 18.109375 0 
L 9.078125 0 
L 9.078125 54.6875 
L 18.109375 54.6875 
L 18.109375 46.1875 
Q 20.953125 51.171875 25.484375 53.578125 
Q 30.03125 56 36.53125 56 
Q 37.453125 56 38.578125 55.875 
Q 39.703125 55.765625 41.0625 55.515625 
z
" id="DejaVuSans-114"/>
      <path d="M 56.203125 29.59375 
L 56.203125 25.203125 
L 14.890625 25.203125 
Q 15.484375 15.921875 20.484375 11.0625 
Q 25.484375 6.203125 34.421875 6.203125 
Q 39.59375 6.203125 44.453125 7.46875 
Q 49.3125 8.734375 54.109375 11.28125 
L 54.109375 2.78125 
Q 49.265625 0.734375 44.1875 -0.34375 
Q 39.109375 -1.421875 33.890625 -1.421875 
Q 20.796875 -1.421875 13.15625 6.1875 
Q 5.515625 13.8125 5.515625 26.8125 
Q 5.515625 40.234375 12.765625 48.109375 
Q 20.015625 56 32.328125 56 
Q 43.359375 56 49.78125 48.890625 
Q 56.203125 41.796875 56.203125 29.59375 
z
M 47.21875 32.234375 
Q 47.125 39.59375 43.09375 43.984375 
Q 39.0625 48.390625 32.421875 48.390625 
Q 24.90625 48.390625 20.390625 44.140625 
Q 15.875 39.890625 15.1875 32.171875 
z
" id="DejaVuSans-101"/>
      <path d="M 45.40625 46.390625 
L 45.40625 75.984375 
L 54.390625 75.984375 
L 54.390625 0 
L 45.40625 0 
L 45.40625 8.203125 
Q 42.578125 3.328125 38.25 0.953125 
Q 33.9375 -1.421875 27.875 -1.421875 
Q 17.96875 -1.421875 11.734375 6.484375 
Q 5.515625 14.40625 5.515625 27.296875 
Q 5.515625 40.1875 11.734375 48.09375 
Q 17.96875 56 27.875 56 
Q 33.9375 56 38.25 53.625 
Q 42.578125 51.265625 45.40625 46.390625 
z
M 14.796875 27.296875 
Q 14.796875 17.390625 18.875 11.75 
Q 22.953125 6.109375 30.078125 6.109375 
Q 37.203125 6.109375 41.296875 11.75 
Q 45.40625 17.390625 45.40625 27.296875 
Q 45.40625 37.203125 41.296875 42.84375 
Q 37.203125 48.484375 30.078125 48.484375 
Q 22.953125 48.484375 18.875 42.84375 
Q 14.796875 37.203125 14.796875 27.296875 
z
" id="DejaVuSans-100"/>
      <path d="M 9.421875 54.6875 
L 18.40625 54.6875 
L 18.40625 0 
L 9.421875 0 
z
M 9.421875 75.984375 
L 18.40625 75.984375 
L 18.40625 64.59375 
L 9.421875 64.59375 
z
" id="DejaVuSans-105"/>
      <path d="M 48.78125 52.59375 
L 48.78125 44.1875 
Q 44.96875 46.296875 41.140625 47.34375 
Q 37.3125 48.390625 33.40625 48.390625 
Q 24.65625 48.390625 19.8125 42.84375 
Q 14.984375 37.3125 14.984375 27.296875 
Q 14.984375 17.28125 19.8125 11.734375 
Q 24.65625 6.203125 33.40625 6.203125 
Q 37.3125 6.203125 41.140625 7.25 
Q 44.96875 8.296875 48.78125 10.40625 
L 48.78125 2.09375 
Q 45.015625 0.34375 40.984375 -0.53125 
Q 36.96875 -1.421875 32.421875 -1.421875 
Q 20.0625 -1.421875 12.78125 6.34375 
Q 5.515625 14.109375 5.515625 27.296875 
Q 5.515625 40.671875 12.859375 48.328125 
Q 20.21875 56 33.015625 56 
Q 37.15625 56 41.109375 55.140625 
Q 45.0625 54.296875 48.78125 52.59375 
z
" id="DejaVuSans-99"/>
      <path d="M 18.3125 70.21875 
L 18.3125 54.6875 
L 36.8125 54.6875 
L 36.8125 47.703125 
L 18.3125 47.703125 
L 18.3125 18.015625 
Q 18.3125 11.328125 20.140625 9.421875 
Q 21.96875 7.515625 27.59375 7.515625 
L 36.8125 7.515625 
L 36.8125 0 
L 27.59375 0 
Q 17.1875 0 13.234375 3.875 
Q 9.28125 7.765625 9.28125 18.015625 
L 9.28125 47.703125 
L 2.6875 47.703125 
L 2.6875 54.6875 
L 9.28125 54.6875 
L 9.28125 70.21875 
z
" id="DejaVuSans-116"/>
      <path d="M 52 44.1875 
Q 55.375 50.25 60.0625 53.125 
Q 64.75 56 71.09375 56 
Q 79.640625 56 84.28125 50.015625 
Q 88.921875 44.046875 88.921875 33.015625 
L 88.921875 0 
L 79.890625 0 
L 79.890625 32.71875 
Q 79.890625 40.578125 77.09375 44.375 
Q 74.3125 48.1875 68.609375 48.1875 
Q 61.625 48.1875 57.5625 43.546875 
Q 53.515625 38.921875 53.515625 30.90625 
L 53.515625 0 
L 44.484375 0 
L 44.484375 32.71875 
Q 44.484375 40.625 41.703125 44.40625 
Q 38.921875 48.1875 33.109375 48.1875 
Q 26.21875 48.1875 22.15625 43.53125 
Q 18.109375 38.875 18.109375 30.90625 
L 18.109375 0 
L 9.078125 0 
L 9.078125 54.6875 
L 18.109375 54.6875 
L 18.109375 46.1875 
Q 21.1875 51.21875 25.484375 53.609375 
Q 29.78125 56 35.6875 56 
Q 41.65625 56 45.828125 52.96875 
Q 50 49.953125 52 44.1875 
z
" id="DejaVuSans-109"/>
      <path d="M 34.28125 27.484375 
Q 23.390625 27.484375 19.1875 25 
Q 14.984375 22.515625 14.984375 16.5 
Q 14.984375 11.71875 18.140625 8.90625 
Q 21.296875 6.109375 26.703125 6.109375 
Q 34.1875 6.109375 38.703125 11.40625 
Q 43.21875 16.703125 43.21875 25.484375 
L 43.21875 27.484375 
z
M 52.203125 31.203125 
L 52.203125 0 
L 43.21875 0 
L 43.21875 8.296875 
Q 40.140625 3.328125 35.546875 0.953125 
Q 30.953125 -1.421875 24.3125 -1.421875 
Q 15.921875 -1.421875 10.953125 3.296875 
Q 6 8.015625 6 15.921875 
Q 6 25.140625 12.171875 29.828125 
Q 18.359375 34.515625 30.609375 34.515625 
L 43.21875 34.515625 
L 43.21875 35.40625 
Q 43.21875 41.609375 39.140625 45 
Q 35.0625 48.390625 27.6875 48.390625 
Q 23 48.390625 18.546875 47.265625 
Q 14.109375 46.140625 10.015625 43.890625 
L 10.015625 52.203125 
Q 14.9375 54.109375 19.578125 55.046875 
Q 24.21875 56 28.609375 56 
Q 40.484375 56 46.34375 49.84375 
Q 52.203125 43.703125 52.203125 31.203125 
z
" id="DejaVuSans-97"/>
      <path d="M 54.890625 33.015625 
L 54.890625 0 
L 45.90625 0 
L 45.90625 32.71875 
Q 45.90625 40.484375 42.875 44.328125 
Q 39.84375 48.1875 33.796875 48.1875 
Q 26.515625 48.1875 22.3125 43.546875 
Q 18.109375 38.921875 18.109375 30.90625 
L 18.109375 0 
L 9.078125 0 
L 9.078125 54.6875 
L 18.109375 54.6875 
L 18.109375 46.1875 
Q 21.34375 51.125 25.703125 53.5625 
Q 30.078125 56 35.796875 56 
Q 45.21875 56 50.046875 50.171875 
Q 54.890625 44.34375 54.890625 33.015625 
z
" id="DejaVuSans-110"/>
     </defs>
     <g transform="translate(309.791875 58.070438)scale(0.1 -0.1)">
      <use xlink:href="#DejaVuSans-71"/>
      <use x="77.490234" xlink:href="#DejaVuSans-80"/>
      <use x="137.792969" xlink:href="#DejaVuSans-32"/>
      <use x="169.580078" xlink:href="#DejaVuSans-112"/>
      <use x="233.056641" xlink:href="#DejaVuSans-114"/>
      <use x="271.919922" xlink:href="#DejaVuSans-101"/>
      <use x="333.443359" xlink:href="#DejaVuSans-100"/>
      <use x="396.919922" xlink:href="#DejaVuSans-105"/>
      <use x="424.703125" xlink:href="#DejaVuSans-99"/>
      <use x="479.683594" xlink:href="#DejaVuSans-116"/>
      <use x="518.892578" xlink:href="#DejaVuSans-101"/>
      <use x="580.416016" xlink:href="#DejaVuSans-100"/>
      <use x="643.892578" xlink:href="#DejaVuSans-32"/>
      <use x="675.679688" xlink:href="#DejaVuSans-109"/>
      <use x="773.091797" xlink:href="#DejaVuSans-101"/>
      <use x="834.615234" xlink:href="#DejaVuSans-97"/>
      <use x="895.894531" xlink:href="#DejaVuSans-110"/>
     </g>
    </g>
    <g id="line2d_19">
     <path d="M 281.791875 69.248563 
L 301.791875 69.248563 
" style="fill:none;stroke:#666666;stroke-linecap:square;stroke-width:1.5;"/>
    </g>
    <g id="line2d_20">
     <g>
      <use style="fill:#666666;stroke:#666666;" x="291.791875" xlink:href="#m0a310a92a7" y="69.248563"/>
     </g>
    </g>
    <g id="text_14">
     <!-- local linear approx. -->
     <defs>
      <path d="M 9.421875 75.984375 
L 18.40625 75.984375 
L 18.40625 0 
L 9.421875 0 
z
" id="DejaVuSans-108"/>
      <path d="M 30.609375 48.390625 
Q 23.390625 48.390625 19.1875 42.75 
Q 14.984375 37.109375 14.984375 27.296875 
Q 14.984375 17.484375 19.15625 11.84375 
Q 23.34375 6.203125 30.609375 6.203125 
Q 37.796875 6.203125 41.984375 11.859375 
Q 46.1875 17.53125 46.1875 27.296875 
Q 46.1875 37.015625 41.984375 42.703125 
Q 37.796875 48.390625 30.609375 48.390625 
z
M 30.609375 56 
Q 42.328125 56 49.015625 48.375 
Q 55.71875 40.765625 55.71875 27.296875 
Q 55.71875 13.875 49.015625 6.21875 
Q 42.328125 -1.421875 30.609375 -1.421875 
Q 18.84375 -1.421875 12.171875 6.21875 
Q 5.515625 13.875 5.515625 27.296875 
Q 5.515625 40.765625 12.171875 48.375 
Q 18.84375 56 30.609375 56 
z
" id="DejaVuSans-111"/>
      <path d="M 54.890625 54.6875 
L 35.109375 28.078125 
L 55.90625 0 
L 45.3125 0 
L 29.390625 21.484375 
L 13.484375 0 
L 2.875 0 
L 24.125 28.609375 
L 4.6875 54.6875 
L 15.28125 54.6875 
L 29.78125 35.203125 
L 44.28125 54.6875 
z
" id="DejaVuSans-120"/>
     </defs>
     <g transform="translate(309.791875 72.748563)scale(0.1 -0.1)">
      <use xlink:href="#DejaVuSans-108"/>
      <use x="27.783203" xlink:href="#DejaVuSans-111"/>
      <use x="88.964844" xlink:href="#DejaVuSans-99"/>
      <use x="143.945312" xlink:href="#DejaVuSans-97"/>
      <use x="205.224609" xlink:href="#DejaVuSans-108"/>
      <use x="233.007812" xlink:href="#DejaVuSans-32"/>
      <use x="264.794922" xlink:href="#DejaVuSans-108"/>
      <use x="292.578125" xlink:href="#DejaVuSans-105"/>
      <use x="320.361328" xlink:href="#DejaVuSans-110"/>
      <use x="383.740234" xlink:href="#DejaVuSans-101"/>
      <use x="445.263672" xlink:href="#DejaVuSans-97"/>
      <use x="506.542969" xlink:href="#DejaVuSans-114"/>
      <use x="547.65625" xlink:href="#DejaVuSans-32"/>
      <use x="579.443359" xlink:href="#DejaVuSans-97"/>
      <use x="640.722656" xlink:href="#DejaVuSans-112"/>
      <use x="704.199219" xlink:href="#DejaVuSans-112"/>
      <use x="767.675781" xlink:href="#DejaVuSans-114"/>
      <use x="806.539062" xlink:href="#DejaVuSans-111"/>
      <use x="864.595703" xlink:href="#DejaVuSans-120"/>
      <use x="923.775391" xlink:href="#DejaVuSans-46"/>
     </g>
    </g>
    <g id="line2d_21">
     <path d="M 281.791875 83.926688 
L 301.791875 83.926688 
" style="fill:none;stroke:#000000;stroke-linecap:square;stroke-width:1.5;"/>
    </g>
    <g id="line2d_22"/>
    <g id="text_15">
     <!-- true function -->
     <defs>
      <path d="M 8.5 21.578125 
L 8.5 54.6875 
L 17.484375 54.6875 
L 17.484375 21.921875 
Q 17.484375 14.15625 20.5 10.265625 
Q 23.53125 6.390625 29.59375 6.390625 
Q 36.859375 6.390625 41.078125 11.03125 
Q 45.3125 15.671875 45.3125 23.6875 
L 45.3125 54.6875 
L 54.296875 54.6875 
L 54.296875 0 
L 45.3125 0 
L 45.3125 8.40625 
Q 42.046875 3.421875 37.71875 1 
Q 33.40625 -1.421875 27.6875 -1.421875 
Q 18.265625 -1.421875 13.375 4.4375 
Q 8.5 10.296875 8.5 21.578125 
z
M 31.109375 56 
z
" id="DejaVuSans-117"/>
      <path d="M 37.109375 75.984375 
L 37.109375 68.5 
L 28.515625 68.5 
Q 23.6875 68.5 21.796875 66.546875 
Q 19.921875 64.59375 19.921875 59.515625 
L 19.921875 54.6875 
L 34.71875 54.6875 
L 34.71875 47.703125 
L 19.921875 47.703125 
L 19.921875 0 
L 10.890625 0 
L 10.890625 47.703125 
L 2.296875 47.703125 
L 2.296875 54.6875 
L 10.890625 54.6875 
L 10.890625 58.5 
Q 10.890625 67.625 15.140625 71.796875 
Q 19.390625 75.984375 28.609375 75.984375 
z
" id="DejaVuSans-102"/>
     </defs>
     <g transform="translate(309.791875 87.426688)scale(0.1 -0.1)">
      <use xlink:href="#DejaVuSans-116"/>
      <use x="39.208984" xlink:href="#DejaVuSans-114"/>
      <use x="80.322266" xlink:href="#DejaVuSans-117"/>
      <use x="143.701172" xlink:href="#DejaVuSans-101"/>
      <use x="205.224609" xlink:href="#DejaVuSans-32"/>
      <use x="237.011719" xlink:href="#DejaVuSans-102"/>
      <use x="272.216797" xlink:href="#DejaVuSans-117"/>
      <use x="335.595703" xlink:href="#DejaVuSans-110"/>
      <use x="398.974609" xlink:href="#DejaVuSans-99"/>
      <use x="453.955078" xlink:href="#DejaVuSans-116"/>
      <use x="493.164062" xlink:href="#DejaVuSans-105"/>
      <use x="520.947266" xlink:href="#DejaVuSans-111"/>
      <use x="582.128906" xlink:href="#DejaVuSans-110"/>
     </g>
    </g>
    <g id="line2d_23">
     <path d="M 281.791875 98.604813 
L 301.791875 98.604813 
" style="fill:none;stroke:#ff00ff;stroke-linecap:square;stroke-width:1.5;"/>
    </g>
    <g id="line2d_24">
     <g>
      <use style="fill:#ff00ff;stroke:#ff00ff;" x="291.791875" xlink:href="#m778778b7ac" y="98.604813"/>
     </g>
    </g>
    <g id="text_16">
     <!-- new sample -->
     <defs>
      <path d="M 4.203125 54.6875 
L 13.1875 54.6875 
L 24.421875 12.015625 
L 35.59375 54.6875 
L 46.1875 54.6875 
L 57.421875 12.015625 
L 68.609375 54.6875 
L 77.59375 54.6875 
L 63.28125 0 
L 52.6875 0 
L 40.921875 44.828125 
L 29.109375 0 
L 18.5 0 
z
" id="DejaVuSans-119"/>
      <path d="M 44.28125 53.078125 
L 44.28125 44.578125 
Q 40.484375 46.53125 36.375 47.5 
Q 32.28125 48.484375 27.875 48.484375 
Q 21.1875 48.484375 17.84375 46.4375 
Q 14.5 44.390625 14.5 40.28125 
Q 14.5 37.15625 16.890625 35.375 
Q 19.28125 33.59375 26.515625 31.984375 
L 29.59375 31.296875 
Q 39.15625 29.25 43.1875 25.515625 
Q 47.21875 21.78125 47.21875 15.09375 
Q 47.21875 7.46875 41.1875 3.015625 
Q 35.15625 -1.421875 24.609375 -1.421875 
Q 20.21875 -1.421875 15.453125 -0.5625 
Q 10.6875 0.296875 5.421875 2 
L 5.421875 11.28125 
Q 10.40625 8.6875 15.234375 7.390625 
Q 20.0625 6.109375 24.8125 6.109375 
Q 31.15625 6.109375 34.5625 8.28125 
Q 37.984375 10.453125 37.984375 14.40625 
Q 37.984375 18.0625 35.515625 20.015625 
Q 33.0625 21.96875 24.703125 23.78125 
L 21.578125 24.515625 
Q 13.234375 26.265625 9.515625 29.90625 
Q 5.8125 33.546875 5.8125 39.890625 
Q 5.8125 47.609375 11.28125 51.796875 
Q 16.75 56 26.8125 56 
Q 31.78125 56 36.171875 55.265625 
Q 40.578125 54.546875 44.28125 53.078125 
z
" id="DejaVuSans-115"/>
     </defs>
     <g transform="translate(309.791875 102.104813)scale(0.1 -0.1)">
      <use xlink:href="#DejaVuSans-110"/>
      <use x="63.378906" xlink:href="#DejaVuSans-101"/>
      <use x="124.902344" xlink:href="#DejaVuSans-119"/>
      <use x="206.689453" xlink:href="#DejaVuSans-32"/>
      <use x="238.476562" xlink:href="#DejaVuSans-115"/>
      <use x="290.576172" xlink:href="#DejaVuSans-97"/>
      <use x="351.855469" xlink:href="#DejaVuSans-109"/>
      <use x="449.267578" xlink:href="#DejaVuSans-112"/>
      <use x="512.744141" xlink:href="#DejaVuSans-108"/>
      <use x="540.527344" xlink:href="#DejaVuSans-101"/>
     </g>
    </g>
    <g id="patch_8">
     <path d="M 281.791875 116.7845 
L 301.791875 116.7845 
L 301.791875 109.7845 
L 281.791875 109.7845 
z
" style="fill:#347aeb;opacity:0.6;"/>
    </g>
    <g id="text_17">
     <!-- GP predicted 2$\sigma$ -->
     <defs>
      <path d="M 34.671875 47.5625 
Q 27.25 47.5625 22.21875 42.1875 
Q 16.890625 36.578125 15.140625 27.296875 
Q 13.1875 17.484375 16.3125 11.8125 
Q 19.390625 6.203125 26.65625 6.203125 
Q 33.84375 6.203125 39.109375 11.859375 
Q 44.4375 17.53125 46.34375 27.296875 
Q 48.046875 36.234375 45.015625 42.1875 
Q 42.1875 47.5625 34.671875 47.5625 
z
M 36.078125 54.734375 
L 65.921875 54.6875 
L 64.15625 45.703125 
L 54.109375 45.703125 
Q 57.90625 38.09375 55.859375 27.296875 
Q 53.21875 13.875 45.0625 6.25 
Q 36.859375 -1.421875 25.140625 -1.421875 
Q 13.375 -1.421875 8.203125 6.25 
Q 3.03125 13.875 5.671875 27.296875 
Q 8.25 40.765625 16.40625 48.390625 
Q 23.1875 54.734375 36.078125 54.734375 
z
" id="DejaVuSans-Oblique-963"/>
     </defs>
     <g transform="translate(309.791875 116.7845)scale(0.1 -0.1)">
      <use transform="translate(0 0.015625)" xlink:href="#DejaVuSans-71"/>
      <use transform="translate(77.490234 0.015625)" xlink:href="#DejaVuSans-80"/>
      <use transform="translate(137.792969 0.015625)" xlink:href="#DejaVuSans-32"/>
      <use transform="translate(169.580078 0.015625)" xlink:href="#DejaVuSans-112"/>
      <use transform="translate(233.056641 0.015625)" xlink:href="#DejaVuSans-114"/>
      <use transform="translate(274.169922 0.015625)" xlink:href="#DejaVuSans-101"/>
      <use transform="translate(335.693359 0.015625)" xlink:href="#DejaVuSans-100"/>
      <use transform="translate(399.169922 0.015625)" xlink:href="#DejaVuSans-105"/>
      <use transform="translate(426.953125 0.015625)" xlink:href="#DejaVuSans-99"/>
      <use transform="translate(481.933594 0.015625)" xlink:href="#DejaVuSans-116"/>
      <use transform="translate(521.142578 0.015625)" xlink:href="#DejaVuSans-101"/>
      <use transform="translate(582.666016 0.015625)" xlink:href="#DejaVuSans-100"/>
      <use transform="translate(646.142578 0.015625)" xlink:href="#DejaVuSans-32"/>
      <use transform="translate(677.929688 0.015625)" xlink:href="#DejaVuSans-50"/>
      <use transform="translate(741.552734 0.015625)" xlink:href="#DejaVuSans-Oblique-963"/>
     </g>
    </g>
   </g>
  </g>
 </g>
 <defs>
  <clipPath id="p4f42e1a05d">
   <rect height="266.112" width="357.12" x="57.6" y="41.472"/>
  </clipPath>
 </defs>
</svg>
