<?xml version="1.0" encoding="utf-8" standalone="no"?>
<!DOCTYPE svg PUBLIC "-//W3C//DTD SVG 1.1//EN"
  "http://www.w3.org/Graphics/SVG/1.1/DTD/svg11.dtd">
<!-- Created with matplotlib (https://matplotlib.org/) -->
<svg height="345.6pt" version="1.1" viewBox="0 0 460.8 345.6" width="460.8pt" xmlns="http://www.w3.org/2000/svg" xmlns:xlink="http://www.w3.org/1999/xlink">
 <defs>
  <style type="text/css">
*{stroke-linecap:butt;stroke-linejoin:round;}
  </style>
 </defs>
 <g id="figure_1">
  <g id="patch_1">
   <path d="M 0 345.6 
L 460.8 345.6 
L 460.8 0 
L 0 0 
z
" style="fill:#ffffff;"/>
  </g>
  <g id="axes_1">
   <g id="patch_2">
    <path d="M 57.6 307.584 
L 414.72 307.584 
L 414.72 41.472 
L 57.6 41.472 
z
" style="fill:#ffffff;"/>
   </g>
   <g id="PolyCollection_1">
    <defs>
     <path d="M 87.36 -277.20432 
L 87.36 -277.222057 
L 88.848 -264.436985 
L 90.336 -247.534136 
L 91.824 -228.178895 
L 93.312 -208.675851 
L 94.8 -191.51887 
L 96.288 -188.155993 
L 97.776 -189.230029 
L 99.264 -193.258954 
L 100.752 -198.659877 
L 102.24 -204.121237 
L 103.728 -208.839591 
L 105.216 -212.58644 
L 106.704 -224.680317 
L 108.192 -233.80751 
L 109.68 -238.75158 
L 111.168 -238.9589 
L 112.656 -234.581928 
L 114.144 -226.449893 
L 115.632 -225.557639 
L 117.12 -222.21543 
L 118.608 -216.290041 
L 120.096 -208.20857 
L 121.584 -198.923315 
L 123.072 -189.759418 
L 124.56 -182.165958 
L 126.048 -186.376517 
L 127.536 -191.421589 
L 129.024 -195.842932 
L 130.512 -198.477928 
L 132 -198.722734 
L 133.488 -196.664121 
L 134.976 -201.62656 
L 136.464 -203.807476 
L 137.952 -202.652317 
L 139.44 -198.333942 
L 140.928 -191.678043 
L 142.416 -183.981 
L 143.904 -186.285797 
L 145.392 -188.748776 
L 146.88 -190.573243 
L 148.368 -191.279092 
L 149.856 -190.837771 
L 151.344 -189.693984 
L 152.832 -188.670935 
L 154.32 -197.710326 
L 155.808 -205.994627 
L 157.296 -212.5199 
L 158.784 -216.767591 
L 160.272 -218.791879 
L 161.76 -219.181472 
L 163.248 -227.346519 
L 164.736 -233.446024 
L 166.224 -236.539762 
L 167.712 -236.24545 
L 169.2 -232.798327 
L 170.688 -226.990651 
L 172.176 -228.511603 
L 173.664 -227.791822 
L 175.152 -224.071863 
L 176.64 -217.118679 
L 178.128 -207.278744 
L 179.616 -195.415815 
L 181.104 -192.261234 
L 182.592 -187.856695 
L 184.08 -181.417612 
L 185.568 -172.574961 
L 187.056 -161.460565 
L 188.544 -148.700023 
L 190.032 -135.315093 
L 191.52 -131.475652 
L 193.008 -126.639857 
L 194.496 -120.122389 
L 195.984 -111.75264 
L 197.472 -101.93131 
L 198.96 -91.555538 
L 200.448 -90.276887 
L 201.936 -88.422101 
L 203.424 -85.159806 
L 204.912 -80.182514 
L 206.4 -73.778883 
L 207.888 -66.765102 
L 209.376 -68.806309 
L 210.864 -70.251073 
L 212.352 -70.211809 
L 213.84 -68.306017 
L 215.328 -64.729915 
L 216.816 -60.200881 
L 218.304 -65.302095 
L 219.792 -69.911446 
L 221.28 -73.070223 
L 222.768 -74.234158 
L 224.256 -73.371342 
L 225.744 -70.96366 
L 227.232 -67.911425 
L 228.72 -74.303161 
L 230.208 -79.496206 
L 231.696 -82.720461 
L 233.184 -83.721636 
L 234.672 -82.820224 
L 236.16 -80.844729 
L 237.648 -87.534873 
L 239.136 -93.119414 
L 240.624 -96.735305 
L 242.112 -98.025622 
L 243.6 -97.208046 
L 245.088 -95.019 
L 246.576 -102.093259 
L 248.064 -108.310288 
L 249.552 -112.745355 
L 251.04 -114.883415 
L 252.528 -114.710698 
L 254.016 -112.715741 
L 255.504 -109.800513 
L 256.992 -116.22173 
L 258.48 -121.256307 
L 259.968 -124.129573 
L 261.456 -124.558241 
L 262.944 -122.807391 
L 264.432 -119.63556 
L 265.92 -125.879691 
L 267.408 -131.232542 
L 268.896 -134.775076 
L 270.384 -135.979747 
L 271.872 -134.795538 
L 273.36 -131.650198 
L 274.848 -127.373851 
L 276.336 -133.307657 
L 277.824 -138.134696 
L 279.312 -141.02048 
L 280.8 -141.526311 
L 282.288 -139.685088 
L 283.776 -136.000484 
L 285.264 -131.367538 
L 286.752 -136.487008 
L 288.24 -140.282852 
L 289.728 -141.929286 
L 291.216 -141.026083 
L 292.704 -137.649258 
L 294.192 -132.311904 
L 295.68 -138.713681 
L 297.168 -145.286624 
L 298.656 -151.192002 
L 300.144 -155.773209 
L 301.632 -158.583012 
L 303.12 -159.371566 
L 304.608 -158.061759 
L 306.096 -154.738204 
L 307.584 -149.65901 
L 309.072 -143.280829 
L 310.56 -136.270421 
L 312.048 -129.475815 
L 313.536 -134.351077 
L 315.024 -137.282099 
L 316.512 -137.778385 
L 318 -135.802277 
L 319.488 -131.808039 
L 320.976 -126.684486 
L 322.464 -130.779693 
L 323.952 -133.753682 
L 325.44 -134.722916 
L 326.928 -133.237432 
L 328.416 -129.337549 
L 329.904 -123.51394 
L 331.392 -129.417439 
L 332.88 -135.578637 
L 334.368 -141.148615 
L 335.856 -145.457538 
L 337.344 -148.044184 
L 338.832 -148.644402 
L 340.32 -147.164939 
L 341.808 -143.669261 
L 343.296 -138.385183 
L 344.784 -131.726489 
L 346.272 -124.304919 
L 347.76 -116.909878 
L 349.248 -122.339348 
L 350.736 -126.113126 
L 352.224 -127.643438 
L 353.712 -126.699317 
L 355.2 -123.469662 
L 356.688 -118.564652 
L 358.176 -112.941546 
L 359.664 -116.918419 
L 361.152 -119.462118 
L 362.64 -119.872672 
L 364.128 -117.963622 
L 365.616 -114.109087 
L 367.104 -109.17033 
L 368.592 -112.882268 
L 370.08 -115.433846 
L 371.568 -115.954363 
L 373.056 -114.082949 
L 374.544 -110.046729 
L 376.032 -104.615069 
L 377.52 -108.090265 
L 379.008 -110.541326 
L 380.496 -111.085082 
L 381.984 -109.244951 
L 383.472 -104.992255 
L 384.96 -98.69391 
L 384.96 -98.676172 
L 384.96 -98.676172 
L 383.472 -93.486671 
L 381.984 -90.915901 
L 380.496 -91.178164 
L 379.008 -94.053641 
L 377.52 -98.873826 
L 376.032 -104.597325 
L 374.544 -101.191933 
L 373.056 -98.923399 
L 371.568 -98.581146 
L 370.08 -100.449976 
L 368.592 -104.241603 
L 367.104 -109.152604 
L 365.616 -105.420092 
L 364.128 -102.802481 
L 362.64 -102.162071 
L 361.152 -103.858868 
L 359.664 -107.685916 
L 358.176 -112.923815 
L 356.688 -108.525873 
L 355.2 -104.804584 
L 353.712 -102.719356 
L 352.224 -102.888512 
L 350.736 -105.512579 
L 349.248 -110.37292 
L 347.76 -116.892141 
L 346.272 -110.596463 
L 344.784 -104.285563 
L 343.296 -98.746461 
L 341.808 -94.586086 
L 340.32 -92.212818 
L 338.832 -91.849882 
L 337.344 -93.557722 
L 335.856 -97.24185 
L 334.368 -102.638503 
L 332.88 -109.288057 
L 331.392 -116.522884 
L 329.904 -123.496198 
L 328.416 -118.740019 
L 326.928 -115.905524 
L 325.44 -115.482551 
L 323.952 -117.509495 
L 322.464 -121.533439 
L 320.976 -126.666741 
L 319.488 -122.563927 
L 318 -119.565974 
L 316.512 -118.553111 
L 315.024 -119.970221 
L 313.536 -123.770838 
L 312.048 -129.458065 
L 310.56 -123.415377 
L 309.072 -117.098894 
L 307.584 -111.362153 
L 306.096 -106.878754 
L 304.608 -104.111094 
L 303.12 -103.319919 
L 301.632 -104.58804 
L 300.144 -107.831503 
L 298.656 -112.788782 
L 297.168 -118.997302 
L 295.68 -125.783727 
L 294.192 -132.294169 
L 292.704 -126.949655 
L 291.216 -123.443941 
L 289.728 -122.288217 
L 288.24 -123.558416 
L 286.752 -126.854317 
L 285.264 -131.349807 
L 283.776 -125.968574 
L 282.288 -121.411181 
L 280.8 -118.571498 
L 279.312 -117.949472 
L 277.824 -119.570918 
L 276.336 -122.987689 
L 274.848 -127.35611 
L 273.36 -121.353184 
L 271.872 -116.318342 
L 270.384 -113.083167 
L 268.896 -112.077348 
L 267.408 -113.249925 
L 265.92 -116.070942 
L 264.432 -119.617802 
L 262.944 -113.580658 
L 261.456 -108.796141 
L 259.968 -106.024607 
L 258.48 -105.533957 
L 256.992 -107.043841 
L 255.504 -109.78278 
L 254.016 -103.032081 
L 252.528 -97.054999 
L 251.04 -92.762451 
L 249.552 -90.65387 
L 248.064 -90.727515 
L 246.576 -92.480755 
L 245.088 -95.00125 
L 243.6 -88.181049 
L 242.112 -82.668717 
L 240.624 -79.217238 
L 239.136 -78.064916 
L 237.648 -78.879738 
L 236.16 -80.826986 
L 234.672 -74.166374 
L 233.184 -68.671835 
L 231.696 -65.211285 
L 230.208 -64.150897 
L 228.72 -65.285911 
L 227.232 -67.893694 
L 225.744 -61.371373 
L 224.256 -55.839636 
L 222.768 -52.231015 
L 221.28 -51.070879 
L 219.792 -52.389135 
L 218.304 -55.718966 
L 216.816 -60.183119 
L 215.328 -55.731991 
L 213.84 -53.007302 
L 212.352 -52.776958 
L 210.864 -55.289988 
L 209.376 -60.223055 
L 207.888 -66.747359 
L 206.4 -65.258336 
L 204.912 -65.450804 
L 203.424 -68.159401 
L 201.936 -73.690487 
L 200.448 -81.756456 
L 198.96 -91.537776 
L 197.472 -93.348341 
L 195.984 -96.792265 
L 194.496 -102.688702 
L 193.008 -111.342561 
L 191.52 -122.478883 
L 190.032 -135.297346 
L 188.544 -139.11923 
L 187.056 -143.94413 
L 185.568 -150.585757 
L 184.08 -159.428408 
L 182.592 -170.34026 
L 181.104 -182.68044 
L 179.616 -195.398069 
L 178.128 -198.281975 
L 176.64 -201.821384 
L 175.152 -206.638176 
L 173.664 -212.831447 
L 172.176 -219.928634 
L 170.688 -226.972906 
L 169.2 -224.277896 
L 167.712 -221.513836 
L 166.224 -219.539357 
L 164.736 -218.714315 
L 163.248 -218.825972 
L 161.76 -219.163759 
L 160.272 -210.208626 
L 158.784 -201.806508 
L 157.296 -195.085054 
L 155.808 -190.695917 
L 154.32 -188.712406 
L 152.832 -188.653207 
L 151.344 -180.110862 
L 149.856 -173.31548 
L 148.368 -169.279782 
L 146.88 -168.570145 
L 145.392 -171.217119 
L 143.904 -176.693546 
L 142.416 -183.963227 
L 140.928 -182.660854 
L 139.44 -182.988774 
L 137.952 -185.14336 
L 136.464 -188.757933 
L 134.976 -192.972914 
L 133.488 -196.646385 
L 132 -190.067988 
L 130.512 -183.42436 
L 129.024 -178.326352 
L 127.536 -176.066473 
L 126.048 -177.350963 
L 124.56 -182.148218 
L 123.072 -180.149814 
L 121.584 -181.347836 
L 120.096 -186.129694 
L 118.608 -194.186464 
L 117.12 -204.578851 
L 115.632 -215.888431 
L 114.144 -226.432138 
L 112.656 -225.430045 
L 111.168 -223.29789 
L 109.68 -220.743811 
L 108.192 -218.161783 
L 106.704 -215.547227 
L 105.216 -212.568697 
L 103.728 -199.218738 
L 102.24 -186.611652 
L 100.752 -176.781982 
L 99.264 -171.498386 
L 97.776 -172.013401 
L 96.288 -178.826904 
L 94.8 -191.501116 
L 93.312 -200.225056 
L 91.824 -214.366858 
L 90.336 -233.051685 
L 88.848 -254.652686 
L 87.36 -277.20432 
z
" id="m25be3808de"/>
    </defs>
    <g clip-path="url(#p9b667371b1)">
     <use style="fill:#347aeb;fill-opacity:0.6;" x="0" xlink:href="#m25be3808de" y="345.6"/>
    </g>
   </g>
   <g id="PathCollection_1">
    <defs>
     <path d="M 0 3 
C 0.795609 3 1.55874 2.683901 2.12132 2.12132 
C 2.683901 1.55874 3 0.795609 3 0 
C 3 -0.795609 2.683901 -1.55874 2.12132 -2.12132 
C 1.55874 -2.683901 0.795609 -3 0 -3 
C -0.795609 -3 -1.55874 -2.683901 -2.12132 -2.12132 
C -2.683901 -1.55874 -3 -0.795609 -3 0 
C -3 0.795609 -2.683901 1.55874 -2.12132 2.12132 
C -1.55874 2.683901 -0.795609 3 0 3 
z
" id="mccfe563d28" style="stroke:#1f77b4;"/>
    </defs>
    <g clip-path="url(#p9b667371b1)">
     <use style="fill:#1f77b4;stroke:#1f77b4;" x="87.36" xlink:href="#mccfe563d28" y="68.386808"/>
     <use style="fill:#1f77b4;stroke:#1f77b4;" x="94.8" xlink:href="#mccfe563d28" y="154.090011"/>
     <use style="fill:#1f77b4;stroke:#1f77b4;" x="105.216" xlink:href="#mccfe563d28" y="133.02243"/>
     <use style="fill:#1f77b4;stroke:#1f77b4;" x="114.144" xlink:href="#mccfe563d28" y="119.158983"/>
     <use style="fill:#1f77b4;stroke:#1f77b4;" x="124.56" xlink:href="#mccfe563d28" y="163.442915"/>
     <use style="fill:#1f77b4;stroke:#1f77b4;" x="133.488" xlink:href="#mccfe563d28" y="148.944745"/>
     <use style="fill:#1f77b4;stroke:#1f77b4;" x="142.416" xlink:href="#mccfe563d28" y="161.627888"/>
     <use style="fill:#1f77b4;stroke:#1f77b4;" x="152.832" xlink:href="#mccfe563d28" y="156.937929"/>
     <use style="fill:#1f77b4;stroke:#1f77b4;" x="161.76" xlink:href="#mccfe563d28" y="126.427384"/>
     <use style="fill:#1f77b4;stroke:#1f77b4;" x="170.688" xlink:href="#mccfe563d28" y="118.618221"/>
     <use style="fill:#1f77b4;stroke:#1f77b4;" x="179.616" xlink:href="#mccfe563d28" y="150.193058"/>
     <use style="fill:#1f77b4;stroke:#1f77b4;" x="190.032" xlink:href="#mccfe563d28" y="210.293781"/>
     <use style="fill:#1f77b4;stroke:#1f77b4;" x="198.96" xlink:href="#mccfe563d28" y="254.053343"/>
     <use style="fill:#1f77b4;stroke:#1f77b4;" x="207.888" xlink:href="#mccfe563d28" y="278.84377"/>
     <use style="fill:#1f77b4;stroke:#1f77b4;" x="216.816" xlink:href="#mccfe563d28" y="285.408"/>
     <use style="fill:#1f77b4;stroke:#1f77b4;" x="227.232" xlink:href="#mccfe563d28" y="277.697441"/>
     <use style="fill:#1f77b4;stroke:#1f77b4;" x="236.16" xlink:href="#mccfe563d28" y="264.764143"/>
     <use style="fill:#1f77b4;stroke:#1f77b4;" x="245.088" xlink:href="#mccfe563d28" y="250.589875"/>
     <use style="fill:#1f77b4;stroke:#1f77b4;" x="255.504" xlink:href="#mccfe563d28" y="235.808354"/>
     <use style="fill:#1f77b4;stroke:#1f77b4;" x="264.432" xlink:href="#mccfe563d28" y="225.973319"/>
     <use style="fill:#1f77b4;stroke:#1f77b4;" x="274.848" xlink:href="#mccfe563d28" y="218.235019"/>
     <use style="fill:#1f77b4;stroke:#1f77b4;" x="285.264" xlink:href="#mccfe563d28" y="214.241327"/>
     <use style="fill:#1f77b4;stroke:#1f77b4;" x="294.192" xlink:href="#mccfe563d28" y="213.296963"/>
     <use style="fill:#1f77b4;stroke:#1f77b4;" x="312.048" xlink:href="#mccfe563d28" y="216.13306"/>
     <use style="fill:#1f77b4;stroke:#1f77b4;" x="320.976" xlink:href="#mccfe563d28" y="218.924386"/>
     <use style="fill:#1f77b4;stroke:#1f77b4;" x="329.904" xlink:href="#mccfe563d28" y="222.094931"/>
     <use style="fill:#1f77b4;stroke:#1f77b4;" x="347.76" xlink:href="#mccfe563d28" y="228.698991"/>
     <use style="fill:#1f77b4;stroke:#1f77b4;" x="358.176" xlink:href="#mccfe563d28" y="232.66732"/>
     <use style="fill:#1f77b4;stroke:#1f77b4;" x="367.104" xlink:href="#mccfe563d28" y="236.438533"/>
     <use style="fill:#1f77b4;stroke:#1f77b4;" x="376.032" xlink:href="#mccfe563d28" y="240.993803"/>
     <use style="fill:#1f77b4;stroke:#1f77b4;" x="384.96" xlink:href="#mccfe563d28" y="246.914959"/>
    </g>
   </g>
   <g id="matplotlib.axis_1">
    <g id="xtick_1">
     <g id="line2d_1">
      <defs>
       <path d="M 0 0 
L 0 3.5 
" id="m7b24c384ab" style="stroke:#000000;stroke-width:0.8;"/>
      </defs>
      <g>
       <use style="stroke:#000000;stroke-width:0.8;" x="87.36" xlink:href="#m7b24c384ab" y="307.584"/>
      </g>
     </g>
     <g id="text_1">
      <!-- 0.0 -->
      <defs>
       <path d="M 31.78125 66.40625 
Q 24.171875 66.40625 20.328125 58.90625 
Q 16.5 51.421875 16.5 36.375 
Q 16.5 21.390625 20.328125 13.890625 
Q 24.171875 6.390625 31.78125 6.390625 
Q 39.453125 6.390625 43.28125 13.890625 
Q 47.125 21.390625 47.125 36.375 
Q 47.125 51.421875 43.28125 58.90625 
Q 39.453125 66.40625 31.78125 66.40625 
z
M 31.78125 74.21875 
Q 44.046875 74.21875 50.515625 64.515625 
Q 56.984375 54.828125 56.984375 36.375 
Q 56.984375 17.96875 50.515625 8.265625 
Q 44.046875 -1.421875 31.78125 -1.421875 
Q 19.53125 -1.421875 13.0625 8.265625 
Q 6.59375 17.96875 6.59375 36.375 
Q 6.59375 54.828125 13.0625 64.515625 
Q 19.53125 74.21875 31.78125 74.21875 
z
" id="DejaVuSans-48"/>
       <path d="M 10.6875 12.40625 
L 21 12.40625 
L 21 0 
L 10.6875 0 
z
" id="DejaVuSans-46"/>
      </defs>
      <g transform="translate(79.408438 322.182437)scale(0.1 -0.1)">
       <use xlink:href="#DejaVuSans-48"/>
       <use x="63.623047" xlink:href="#DejaVuSans-46"/>
       <use x="95.410156" xlink:href="#DejaVuSans-48"/>
      </g>
     </g>
    </g>
    <g id="xtick_2">
     <g id="line2d_2">
      <g>
       <use style="stroke:#000000;stroke-width:0.8;" x="146.88" xlink:href="#m7b24c384ab" y="307.584"/>
      </g>
     </g>
     <g id="text_2">
      <!-- 0.2 -->
      <defs>
       <path d="M 19.1875 8.296875 
L 53.609375 8.296875 
L 53.609375 0 
L 7.328125 0 
L 7.328125 8.296875 
Q 12.9375 14.109375 22.625 23.890625 
Q 32.328125 33.6875 34.8125 36.53125 
Q 39.546875 41.84375 41.421875 45.53125 
Q 43.3125 49.21875 43.3125 52.78125 
Q 43.3125 58.59375 39.234375 62.25 
Q 35.15625 65.921875 28.609375 65.921875 
Q 23.96875 65.921875 18.8125 64.3125 
Q 13.671875 62.703125 7.8125 59.421875 
L 7.8125 69.390625 
Q 13.765625 71.78125 18.9375 73 
Q 24.125 74.21875 28.421875 74.21875 
Q 39.75 74.21875 46.484375 68.546875 
Q 53.21875 62.890625 53.21875 53.421875 
Q 53.21875 48.921875 51.53125 44.890625 
Q 49.859375 40.875 45.40625 35.40625 
Q 44.1875 33.984375 37.640625 27.21875 
Q 31.109375 20.453125 19.1875 8.296875 
z
" id="DejaVuSans-50"/>
      </defs>
      <g transform="translate(138.928438 322.182437)scale(0.1 -0.1)">
       <use xlink:href="#DejaVuSans-48"/>
       <use x="63.623047" xlink:href="#DejaVuSans-46"/>
       <use x="95.410156" xlink:href="#DejaVuSans-50"/>
      </g>
     </g>
    </g>
    <g id="xtick_3">
     <g id="line2d_3">
      <g>
       <use style="stroke:#000000;stroke-width:0.8;" x="206.4" xlink:href="#m7b24c384ab" y="307.584"/>
      </g>
     </g>
     <g id="text_3">
      <!-- 0.4 -->
      <defs>
       <path d="M 37.796875 64.3125 
L 12.890625 25.390625 
L 37.796875 25.390625 
z
M 35.203125 72.90625 
L 47.609375 72.90625 
L 47.609375 25.390625 
L 58.015625 25.390625 
L 58.015625 17.1875 
L 47.609375 17.1875 
L 47.609375 0 
L 37.796875 0 
L 37.796875 17.1875 
L 4.890625 17.1875 
L 4.890625 26.703125 
z
" id="DejaVuSans-52"/>
      </defs>
      <g transform="translate(198.448438 322.182437)scale(0.1 -0.1)">
       <use xlink:href="#DejaVuSans-48"/>
       <use x="63.623047" xlink:href="#DejaVuSans-46"/>
       <use x="95.410156" xlink:href="#DejaVuSans-52"/>
      </g>
     </g>
    </g>
    <g id="xtick_4">
     <g id="line2d_4">
      <g>
       <use style="stroke:#000000;stroke-width:0.8;" x="265.92" xlink:href="#m7b24c384ab" y="307.584"/>
      </g>
     </g>
     <g id="text_4">
      <!-- 0.6 -->
      <defs>
       <path d="M 33.015625 40.375 
Q 26.375 40.375 22.484375 35.828125 
Q 18.609375 31.296875 18.609375 23.390625 
Q 18.609375 15.53125 22.484375 10.953125 
Q 26.375 6.390625 33.015625 6.390625 
Q 39.65625 6.390625 43.53125 10.953125 
Q 47.40625 15.53125 47.40625 23.390625 
Q 47.40625 31.296875 43.53125 35.828125 
Q 39.65625 40.375 33.015625 40.375 
z
M 52.59375 71.296875 
L 52.59375 62.3125 
Q 48.875 64.0625 45.09375 64.984375 
Q 41.3125 65.921875 37.59375 65.921875 
Q 27.828125 65.921875 22.671875 59.328125 
Q 17.53125 52.734375 16.796875 39.40625 
Q 19.671875 43.65625 24.015625 45.921875 
Q 28.375 48.1875 33.59375 48.1875 
Q 44.578125 48.1875 50.953125 41.515625 
Q 57.328125 34.859375 57.328125 23.390625 
Q 57.328125 12.15625 50.6875 5.359375 
Q 44.046875 -1.421875 33.015625 -1.421875 
Q 20.359375 -1.421875 13.671875 8.265625 
Q 6.984375 17.96875 6.984375 36.375 
Q 6.984375 53.65625 15.1875 63.9375 
Q 23.390625 74.21875 37.203125 74.21875 
Q 40.921875 74.21875 44.703125 73.484375 
Q 48.484375 72.75 52.59375 71.296875 
z
" id="DejaVuSans-54"/>
      </defs>
      <g transform="translate(257.968437 322.182437)scale(0.1 -0.1)">
       <use xlink:href="#DejaVuSans-48"/>
       <use x="63.623047" xlink:href="#DejaVuSans-46"/>
       <use x="95.410156" xlink:href="#DejaVuSans-54"/>
      </g>
     </g>
    </g>
    <g id="xtick_5">
     <g id="line2d_5">
      <g>
       <use style="stroke:#000000;stroke-width:0.8;" x="325.44" xlink:href="#m7b24c384ab" y="307.584"/>
      </g>
     </g>
     <g id="text_5">
      <!-- 0.8 -->
      <defs>
       <path d="M 31.78125 34.625 
Q 24.75 34.625 20.71875 30.859375 
Q 16.703125 27.09375 16.703125 20.515625 
Q 16.703125 13.921875 20.71875 10.15625 
Q 24.75 6.390625 31.78125 6.390625 
Q 38.8125 6.390625 42.859375 10.171875 
Q 46.921875 13.96875 46.921875 20.515625 
Q 46.921875 27.09375 42.890625 30.859375 
Q 38.875 34.625 31.78125 34.625 
z
M 21.921875 38.8125 
Q 15.578125 40.375 12.03125 44.71875 
Q 8.5 49.078125 8.5 55.328125 
Q 8.5 64.0625 14.71875 69.140625 
Q 20.953125 74.21875 31.78125 74.21875 
Q 42.671875 74.21875 48.875 69.140625 
Q 55.078125 64.0625 55.078125 55.328125 
Q 55.078125 49.078125 51.53125 44.71875 
Q 48 40.375 41.703125 38.8125 
Q 48.828125 37.15625 52.796875 32.3125 
Q 56.78125 27.484375 56.78125 20.515625 
Q 56.78125 9.90625 50.3125 4.234375 
Q 43.84375 -1.421875 31.78125 -1.421875 
Q 19.734375 -1.421875 13.25 4.234375 
Q 6.78125 9.90625 6.78125 20.515625 
Q 6.78125 27.484375 10.78125 32.3125 
Q 14.796875 37.15625 21.921875 38.8125 
z
M 18.3125 54.390625 
Q 18.3125 48.734375 21.84375 45.5625 
Q 25.390625 42.390625 31.78125 42.390625 
Q 38.140625 42.390625 41.71875 45.5625 
Q 45.3125 48.734375 45.3125 54.390625 
Q 45.3125 60.0625 41.71875 63.234375 
Q 38.140625 66.40625 31.78125 66.40625 
Q 25.390625 66.40625 21.84375 63.234375 
Q 18.3125 60.0625 18.3125 54.390625 
z
" id="DejaVuSans-56"/>
      </defs>
      <g transform="translate(317.488437 322.182437)scale(0.1 -0.1)">
       <use xlink:href="#DejaVuSans-48"/>
       <use x="63.623047" xlink:href="#DejaVuSans-46"/>
       <use x="95.410156" xlink:href="#DejaVuSans-56"/>
      </g>
     </g>
    </g>
    <g id="xtick_6">
     <g id="line2d_6">
      <g>
       <use style="stroke:#000000;stroke-width:0.8;" x="384.96" xlink:href="#m7b24c384ab" y="307.584"/>
      </g>
     </g>
     <g id="text_6">
      <!-- 1.0 -->
      <defs>
       <path d="M 12.40625 8.296875 
L 28.515625 8.296875 
L 28.515625 63.921875 
L 10.984375 60.40625 
L 10.984375 69.390625 
L 28.421875 72.90625 
L 38.28125 72.90625 
L 38.28125 8.296875 
L 54.390625 8.296875 
L 54.390625 0 
L 12.40625 0 
z
" id="DejaVuSans-49"/>
      </defs>
      <g transform="translate(377.008438 322.182437)scale(0.1 -0.1)">
       <use xlink:href="#DejaVuSans-49"/>
       <use x="63.623047" xlink:href="#DejaVuSans-46"/>
       <use x="95.410156" xlink:href="#DejaVuSans-48"/>
      </g>
     </g>
    </g>
   </g>
   <g id="matplotlib.axis_2">
    <g id="ytick_1">
     <g id="line2d_7">
      <defs>
       <path d="M 0 0 
L -3.5 0 
" id="m3fdd0b948b" style="stroke:#000000;stroke-width:0.8;"/>
      </defs>
      <g>
       <use style="stroke:#000000;stroke-width:0.8;" x="57.6" xlink:href="#m3fdd0b948b" y="275.540548"/>
      </g>
     </g>
     <g id="text_7">
      <!-- −0.6 -->
      <defs>
       <path d="M 10.59375 35.5 
L 73.1875 35.5 
L 73.1875 27.203125 
L 10.59375 27.203125 
z
" id="DejaVuSans-8722"/>
      </defs>
      <g transform="translate(26.317187 279.339767)scale(0.1 -0.1)">
       <use xlink:href="#DejaVuSans-8722"/>
       <use x="83.789062" xlink:href="#DejaVuSans-48"/>
       <use x="147.412109" xlink:href="#DejaVuSans-46"/>
       <use x="179.199219" xlink:href="#DejaVuSans-54"/>
      </g>
     </g>
    </g>
    <g id="ytick_2">
     <g id="line2d_8">
      <g>
       <use style="stroke:#000000;stroke-width:0.8;" x="57.6" xlink:href="#m3fdd0b948b" y="231.451171"/>
      </g>
     </g>
     <g id="text_8">
      <!-- −0.5 -->
      <defs>
       <path d="M 10.796875 72.90625 
L 49.515625 72.90625 
L 49.515625 64.59375 
L 19.828125 64.59375 
L 19.828125 46.734375 
Q 21.96875 47.46875 24.109375 47.828125 
Q 26.265625 48.1875 28.421875 48.1875 
Q 40.625 48.1875 47.75 41.5 
Q 54.890625 34.8125 54.890625 23.390625 
Q 54.890625 11.625 47.5625 5.09375 
Q 40.234375 -1.421875 26.90625 -1.421875 
Q 22.3125 -1.421875 17.546875 -0.640625 
Q 12.796875 0.140625 7.71875 1.703125 
L 7.71875 11.625 
Q 12.109375 9.234375 16.796875 8.0625 
Q 21.484375 6.890625 26.703125 6.890625 
Q 35.15625 6.890625 40.078125 11.328125 
Q 45.015625 15.765625 45.015625 23.390625 
Q 45.015625 31 40.078125 35.4375 
Q 35.15625 39.890625 26.703125 39.890625 
Q 22.75 39.890625 18.8125 39.015625 
Q 14.890625 38.140625 10.796875 36.28125 
z
" id="DejaVuSans-53"/>
      </defs>
      <g transform="translate(26.317187 235.25039)scale(0.1 -0.1)">
       <use xlink:href="#DejaVuSans-8722"/>
       <use x="83.789062" xlink:href="#DejaVuSans-48"/>
       <use x="147.412109" xlink:href="#DejaVuSans-46"/>
       <use x="179.199219" xlink:href="#DejaVuSans-53"/>
      </g>
     </g>
    </g>
    <g id="ytick_3">
     <g id="line2d_9">
      <g>
       <use style="stroke:#000000;stroke-width:0.8;" x="57.6" xlink:href="#m3fdd0b948b" y="187.361794"/>
      </g>
     </g>
     <g id="text_9">
      <!-- −0.4 -->
      <g transform="translate(26.317187 191.161012)scale(0.1 -0.1)">
       <use xlink:href="#DejaVuSans-8722"/>
       <use x="83.789062" xlink:href="#DejaVuSans-48"/>
       <use x="147.412109" xlink:href="#DejaVuSans-46"/>
       <use x="179.199219" xlink:href="#DejaVuSans-52"/>
      </g>
     </g>
    </g>
    <g id="ytick_4">
     <g id="line2d_10">
      <g>
       <use style="stroke:#000000;stroke-width:0.8;" x="57.6" xlink:href="#m3fdd0b948b" y="143.272416"/>
      </g>
     </g>
     <g id="text_10">
      <!-- −0.3 -->
      <defs>
       <path d="M 40.578125 39.3125 
Q 47.65625 37.796875 51.625 33 
Q 55.609375 28.21875 55.609375 21.1875 
Q 55.609375 10.40625 48.1875 4.484375 
Q 40.765625 -1.421875 27.09375 -1.421875 
Q 22.515625 -1.421875 17.65625 -0.515625 
Q 12.796875 0.390625 7.625 2.203125 
L 7.625 11.71875 
Q 11.71875 9.328125 16.59375 8.109375 
Q 21.484375 6.890625 26.8125 6.890625 
Q 36.078125 6.890625 40.9375 10.546875 
Q 45.796875 14.203125 45.796875 21.1875 
Q 45.796875 27.640625 41.28125 31.265625 
Q 36.765625 34.90625 28.71875 34.90625 
L 20.21875 34.90625 
L 20.21875 43.015625 
L 29.109375 43.015625 
Q 36.375 43.015625 40.234375 45.921875 
Q 44.09375 48.828125 44.09375 54.296875 
Q 44.09375 59.90625 40.109375 62.90625 
Q 36.140625 65.921875 28.71875 65.921875 
Q 24.65625 65.921875 20.015625 65.03125 
Q 15.375 64.15625 9.8125 62.3125 
L 9.8125 71.09375 
Q 15.4375 72.65625 20.34375 73.4375 
Q 25.25 74.21875 29.59375 74.21875 
Q 40.828125 74.21875 47.359375 69.109375 
Q 53.90625 64.015625 53.90625 55.328125 
Q 53.90625 49.265625 50.4375 45.09375 
Q 46.96875 40.921875 40.578125 39.3125 
z
" id="DejaVuSans-51"/>
      </defs>
      <g transform="translate(26.317187 147.071635)scale(0.1 -0.1)">
       <use xlink:href="#DejaVuSans-8722"/>
       <use x="83.789062" xlink:href="#DejaVuSans-48"/>
       <use x="147.412109" xlink:href="#DejaVuSans-46"/>
       <use x="179.199219" xlink:href="#DejaVuSans-51"/>
      </g>
     </g>
    </g>
    <g id="ytick_5">
     <g id="line2d_11">
      <g>
       <use style="stroke:#000000;stroke-width:0.8;" x="57.6" xlink:href="#m3fdd0b948b" y="99.183039"/>
      </g>
     </g>
     <g id="text_11">
      <!-- −0.2 -->
      <g transform="translate(26.317187 102.982258)scale(0.1 -0.1)">
       <use xlink:href="#DejaVuSans-8722"/>
       <use x="83.789062" xlink:href="#DejaVuSans-48"/>
       <use x="147.412109" xlink:href="#DejaVuSans-46"/>
       <use x="179.199219" xlink:href="#DejaVuSans-50"/>
      </g>
     </g>
    </g>
    <g id="ytick_6">
     <g id="line2d_12">
      <g>
       <use style="stroke:#000000;stroke-width:0.8;" x="57.6" xlink:href="#m3fdd0b948b" y="55.093662"/>
      </g>
     </g>
     <g id="text_12">
      <!-- −0.1 -->
      <g transform="translate(26.317187 58.89288)scale(0.1 -0.1)">
       <use xlink:href="#DejaVuSans-8722"/>
       <use x="83.789062" xlink:href="#DejaVuSans-48"/>
       <use x="147.412109" xlink:href="#DejaVuSans-46"/>
       <use x="179.199219" xlink:href="#DejaVuSans-49"/>
      </g>
     </g>
    </g>
   </g>
   <g id="line2d_13">
    <path clip-path="url(#p9b667371b1)" d="M 87.36 68.386812 
L 88.848 86.055165 
L 91.824 124.327123 
L 93.312 141.149547 
L 94.8 154.090007 
L 96.288 162.108552 
L 97.776 164.978285 
L 99.264 163.22133 
L 100.752 157.87907 
L 102.24 150.233556 
L 105.216 133.022431 
L 106.704 125.486228 
L 108.192 119.615353 
L 109.68 115.852304 
L 111.168 114.471605 
L 112.656 115.594014 
L 114.144 119.158985 
L 115.632 124.876965 
L 117.12 132.202859 
L 120.096 148.430868 
L 121.584 155.464424 
L 123.072 160.645384 
L 124.56 163.442912 
L 126.048 163.73626 
L 127.536 161.855969 
L 129.024 158.515358 
L 130.512 154.648856 
L 132 151.204639 
L 133.488 148.944747 
L 134.976 148.300263 
L 136.464 149.317295 
L 137.952 151.702162 
L 142.416 161.627887 
L 143.904 164.110329 
L 145.392 165.617053 
L 146.88 166.028306 
L 148.368 165.320563 
L 149.856 163.523374 
L 151.344 160.697577 
L 152.832 156.937929 
L 154.32 152.388634 
L 157.296 141.797523 
L 160.272 131.099748 
L 161.76 126.427385 
L 163.248 122.513754 
L 164.736 119.51983 
L 166.224 117.56044 
L 167.712 116.720357 
L 169.2 117.061889 
L 170.688 118.618222 
L 172.176 121.379881 
L 173.664 125.288365 
L 175.152 130.244981 
L 176.64 136.129968 
L 178.128 142.819641 
L 179.616 150.193058 
L 182.592 166.501523 
L 193.008 226.608791 
L 195.984 241.327547 
L 197.472 247.960175 
L 198.96 254.053343 
L 200.448 259.583328 
L 201.936 264.543706 
L 203.424 268.940397 
L 204.912 272.783341 
L 206.4 276.081391 
L 207.888 278.84377 
L 209.376 281.085318 
L 210.864 282.82947 
L 212.352 284.105617 
L 213.84 284.943341 
L 215.328 285.369047 
L 216.816 285.408 
L 218.304 285.089469 
L 219.792 284.449709 
L 221.28 283.529449 
L 222.768 282.367413 
L 224.256 280.994511 
L 225.744 279.432484 
L 228.72 275.805464 
L 231.696 271.634127 
L 236.16 264.764143 
L 246.576 248.312993 
L 251.04 241.777067 
L 254.016 237.726089 
L 256.992 233.967214 
L 259.968 230.52291 
L 262.944 227.405976 
L 265.92 224.624684 
L 268.896 222.173788 
L 271.872 220.04306 
L 274.848 218.235019 
L 277.824 216.747193 
L 280.8 215.551095 
L 283.776 214.615471 
L 286.752 213.929338 
L 289.728 213.491249 
L 292.704 213.300543 
L 295.68 213.351296 
L 298.656 213.609608 
L 303.12 214.254258 
L 307.584 215.089418 
L 312.048 216.13306 
L 316.512 217.434252 
L 322.464 219.443434 
L 337.344 224.799047 
L 358.176 232.66732 
L 371.568 238.332245 
L 374.544 239.980669 
L 377.52 242.117954 
L 380.496 244.468377 
L 381.984 245.519574 
L 383.472 246.360537 
L 384.96 246.914959 
L 384.96 246.914959 
" style="fill:none;stroke:#333333;stroke-linecap:square;stroke-width:1.5;"/>
   </g>
   <g id="line2d_14">
    <path clip-path="url(#p9b667371b1)" d="M 87.36 68.386808 
L 94.8 154.090011 
L 105.216 133.02243 
L 114.144 119.158983 
L 124.56 163.442915 
L 133.488 148.944745 
L 142.416 161.627888 
L 152.832 156.937929 
L 161.76 126.427384 
L 170.688 118.618221 
L 179.616 150.193058 
L 190.032 210.293781 
L 198.96 254.053343 
L 207.888 278.84377 
L 216.816 285.408 
L 227.232 277.697441 
L 236.16 264.764143 
L 245.088 250.589875 
L 255.504 235.808354 
L 264.432 225.973319 
L 274.848 218.235019 
L 285.264 214.241327 
L 294.192 213.296963 
L 312.048 216.13306 
L 320.976 218.924386 
L 329.904 222.094931 
L 347.76 228.698991 
L 358.176 232.66732 
L 367.104 236.438533 
L 376.032 240.993803 
L 384.96 246.914959 
" style="fill:none;stroke:#666666;stroke-linecap:square;stroke-width:1.5;"/>
    <defs>
     <path d="M 0 3 
C 0.795609 3 1.55874 2.683901 2.12132 2.12132 
C 2.683901 1.55874 3 0.795609 3 0 
C 3 -0.795609 2.683901 -1.55874 2.12132 -2.12132 
C 1.55874 -2.683901 0.795609 -3 0 -3 
C -0.795609 -3 -1.55874 -2.683901 -2.12132 -2.12132 
C -2.683901 -1.55874 -3 -0.795609 -3 0 
C -3 0.795609 -2.683901 1.55874 -2.12132 2.12132 
C -1.55874 2.683901 -0.795609 3 0 3 
z
" id="m4db0520ff1" style="stroke:#666666;"/>
    </defs>
    <g clip-path="url(#p9b667371b1)">
     <use style="fill:#666666;stroke:#666666;" x="87.36" xlink:href="#m4db0520ff1" y="68.386808"/>
     <use style="fill:#666666;stroke:#666666;" x="94.8" xlink:href="#m4db0520ff1" y="154.090011"/>
     <use style="fill:#666666;stroke:#666666;" x="105.216" xlink:href="#m4db0520ff1" y="133.02243"/>
     <use style="fill:#666666;stroke:#666666;" x="114.144" xlink:href="#m4db0520ff1" y="119.158983"/>
     <use style="fill:#666666;stroke:#666666;" x="124.56" xlink:href="#m4db0520ff1" y="163.442915"/>
     <use style="fill:#666666;stroke:#666666;" x="133.488" xlink:href="#m4db0520ff1" y="148.944745"/>
     <use style="fill:#666666;stroke:#666666;" x="142.416" xlink:href="#m4db0520ff1" y="161.627888"/>
     <use style="fill:#666666;stroke:#666666;" x="152.832" xlink:href="#m4db0520ff1" y="156.937929"/>
     <use style="fill:#666666;stroke:#666666;" x="161.76" xlink:href="#m4db0520ff1" y="126.427384"/>
     <use style="fill:#666666;stroke:#666666;" x="170.688" xlink:href="#m4db0520ff1" y="118.618221"/>
     <use style="fill:#666666;stroke:#666666;" x="179.616" xlink:href="#m4db0520ff1" y="150.193058"/>
     <use style="fill:#666666;stroke:#666666;" x="190.032" xlink:href="#m4db0520ff1" y="210.293781"/>
     <use style="fill:#666666;stroke:#666666;" x="198.96" xlink:href="#m4db0520ff1" y="254.053343"/>
     <use style="fill:#666666;stroke:#666666;" x="207.888" xlink:href="#m4db0520ff1" y="278.84377"/>
     <use style="fill:#666666;stroke:#666666;" x="216.816" xlink:href="#m4db0520ff1" y="285.408"/>
     <use style="fill:#666666;stroke:#666666;" x="227.232" xlink:href="#m4db0520ff1" y="277.697441"/>
     <use style="fill:#666666;stroke:#666666;" x="236.16" xlink:href="#m4db0520ff1" y="264.764143"/>
     <use style="fill:#666666;stroke:#666666;" x="245.088" xlink:href="#m4db0520ff1" y="250.589875"/>
     <use style="fill:#666666;stroke:#666666;" x="255.504" xlink:href="#m4db0520ff1" y="235.808354"/>
     <use style="fill:#666666;stroke:#666666;" x="264.432" xlink:href="#m4db0520ff1" y="225.973319"/>
     <use style="fill:#666666;stroke:#666666;" x="274.848" xlink:href="#m4db0520ff1" y="218.235019"/>
     <use style="fill:#666666;stroke:#666666;" x="285.264" xlink:href="#m4db0520ff1" y="214.241327"/>
     <use style="fill:#666666;stroke:#666666;" x="294.192" xlink:href="#m4db0520ff1" y="213.296963"/>
     <use style="fill:#666666;stroke:#666666;" x="312.048" xlink:href="#m4db0520ff1" y="216.13306"/>
     <use style="fill:#666666;stroke:#666666;" x="320.976" xlink:href="#m4db0520ff1" y="218.924386"/>
     <use style="fill:#666666;stroke:#666666;" x="329.904" xlink:href="#m4db0520ff1" y="222.094931"/>
     <use style="fill:#666666;stroke:#666666;" x="347.76" xlink:href="#m4db0520ff1" y="228.698991"/>
     <use style="fill:#666666;stroke:#666666;" x="358.176" xlink:href="#m4db0520ff1" y="232.66732"/>
     <use style="fill:#666666;stroke:#666666;" x="367.104" xlink:href="#m4db0520ff1" y="236.438533"/>
     <use style="fill:#666666;stroke:#666666;" x="376.032" xlink:href="#m4db0520ff1" y="240.993803"/>
     <use style="fill:#666666;stroke:#666666;" x="384.96" xlink:href="#m4db0520ff1" y="246.914959"/>
    </g>
   </g>
   <g id="line2d_15">
    <path clip-path="url(#p9b667371b1)" d="M 87.36 68.386808 
L 88.848 63.648 
L 90.336 74.659995 
L 91.824 97.463302 
L 94.8 154.090011 
L 96.288 176.147546 
L 97.776 188.806834 
L 99.264 190.930267 
L 100.752 183.506632 
L 102.24 169.10037 
L 105.216 133.02243 
L 106.704 117.790473 
L 108.192 107.438272 
L 109.68 102.895959 
L 111.168 104.052274 
L 112.656 109.964789 
L 114.144 119.158983 
L 117.12 140.722975 
L 118.608 150.163556 
L 120.096 157.374917 
L 121.584 161.928137 
L 123.072 163.830714 
L 124.56 163.442915 
L 126.048 161.363643 
L 127.536 158.30758 
L 129.024 154.991422 
L 130.512 152.041703 
L 132 149.931065 
L 133.488 148.944745 
L 134.976 149.175029 
L 136.464 150.538638 
L 137.952 152.810552 
L 140.928 158.734008 
L 142.416 161.627888 
L 143.904 163.997552 
L 145.392 165.552338 
L 146.88 166.082488 
L 148.368 165.469518 
L 149.856 163.687734 
L 151.344 160.798343 
L 152.832 156.937929 
L 154.32 152.303156 
L 157.296 141.693275 
L 160.272 131.084617 
L 161.76 126.427384 
L 163.248 122.499517 
L 164.736 119.480315 
L 166.224 117.508046 
L 167.712 116.678194 
L 169.2 117.043905 
L 170.688 118.618221 
L 172.176 121.377691 
L 173.664 125.266952 
L 175.152 130.203908 
L 176.64 136.085175 
L 178.128 142.791518 
L 181.104 158.154081 
L 184.08 175.207797 
L 190.032 210.293781 
L 193.008 226.630863 
L 195.984 241.342749 
L 197.472 247.964664 
L 198.96 254.053343 
L 200.448 259.588647 
L 201.936 264.559561 
L 203.424 268.963226 
L 204.912 272.80395 
L 206.4 276.092223 
L 207.888 278.84377 
L 209.376 281.078648 
L 210.864 282.820407 
L 212.352 284.095309 
L 213.84 284.93163 
L 215.328 285.35903 
L 216.816 285.408 
L 218.304 285.109375 
L 219.792 284.493926 
L 221.28 283.592006 
L 222.768 282.433265 
L 224.256 281.046413 
L 225.744 279.459032 
L 228.72 275.786586 
L 231.696 271.609637 
L 236.16 264.764143 
L 246.576 248.307645 
L 251.04 241.769017 
L 254.016 237.723759 
L 256.992 233.968658 
L 259.968 230.525594 
L 262.944 227.407928 
L 265.92 224.621927 
L 268.896 222.168009 
L 271.872 220.041796 
L 274.848 218.235019 
L 277.824 216.736279 
L 280.8 215.531693 
L 283.776 214.605439 
L 286.752 213.940221 
L 289.728 213.517672 
L 292.704 213.318699 
L 295.68 213.323786 
L 298.656 213.513272 
L 301.632 213.867586 
L 306.096 214.666146 
L 310.56 215.729832 
L 315.024 217.000155 
L 320.976 218.924386 
L 329.904 222.094931 
L 353.712 230.935994 
L 361.152 233.866976 
L 367.104 236.438533 
L 371.568 238.585221 
L 376.032 240.993803 
L 380.496 243.741768 
L 383.472 245.804367 
L 384.96 246.914959 
L 384.96 246.914959 
" style="fill:none;stroke:#000000;stroke-linecap:square;stroke-width:1.5;"/>
   </g>
   <g id="line2d_16">
    <path clip-path="url(#p9b667371b1)" d="M 207.888 278.84377 
L 207.888 278.84377 
" style="fill:none;stroke:#ff00ff;stroke-linecap:square;stroke-width:1.5;"/>
    <defs>
     <path d="M 0 3 
C 0.795609 3 1.55874 2.683901 2.12132 2.12132 
C 2.683901 1.55874 3 0.795609 3 0 
C 3 -0.795609 2.683901 -1.55874 2.12132 -2.12132 
C 1.55874 -2.683901 0.795609 -3 0 -3 
C -0.795609 -3 -1.55874 -2.683901 -2.12132 -2.12132 
C -2.683901 -1.55874 -3 -0.795609 -3 0 
C -3 0.795609 -2.683901 1.55874 -2.12132 2.12132 
C -1.55874 2.683901 -0.795609 3 0 3 
z
" id="maba4cdbebe" style="stroke:#ff00ff;"/>
    </defs>
    <g clip-path="url(#p9b667371b1)">
     <use style="fill:#ff00ff;stroke:#ff00ff;" x="207.888" xlink:href="#maba4cdbebe" y="278.84377"/>
     <use style="fill:#ff00ff;stroke:#ff00ff;" x="207.888" xlink:href="#maba4cdbebe" y="278.84377"/>
    </g>
   </g>
   <g id="patch_3">
    <path d="M 57.6 307.584 
L 57.6 41.472 
" style="fill:none;stroke:#000000;stroke-linecap:square;stroke-linejoin:miter;stroke-width:0.8;"/>
   </g>
   <g id="patch_4">
    <path d="M 414.72 307.584 
L 414.72 41.472 
" style="fill:none;stroke:#000000;stroke-linecap:square;stroke-linejoin:miter;stroke-width:0.8;"/>
   </g>
   <g id="patch_5">
    <path d="M 57.6 307.584 
L 414.72 307.584 
" style="fill:none;stroke:#000000;stroke-linecap:square;stroke-linejoin:miter;stroke-width:0.8;"/>
   </g>
   <g id="patch_6">
    <path d="M 57.6 41.472 
L 414.72 41.472 
" style="fill:none;stroke:#000000;stroke-linecap:square;stroke-linejoin:miter;stroke-width:0.8;"/>
   </g>
   <g id="legend_1">
    <g id="patch_7">
     <path d="M 279.791875 122.8845 
L 407.72 122.8845 
Q 409.72 122.8845 409.72 120.8845 
L 409.72 48.472 
Q 409.72 46.472 407.72 46.472 
L 279.791875 46.472 
Q 277.791875 46.472 277.791875 48.472 
L 277.791875 120.8845 
Q 277.791875 122.8845 279.791875 122.8845 
z
" style="fill:#ffffff;opacity:0.8;stroke:#cccccc;stroke-linejoin:miter;"/>
    </g>
    <g id="line2d_17">
     <path d="M 281.791875 54.570438 
L 301.791875 54.570438 
" style="fill:none;stroke:#333333;stroke-linecap:square;stroke-width:1.5;"/>
    </g>
    <g id="line2d_18"/>
    <g id="text_13">
     <!-- GP predicted mean -->
     <defs>
      <path d="M 59.515625 10.40625 
L 59.515625 29.984375 
L 43.40625 29.984375 
L 43.40625 38.09375 
L 69.28125 38.09375 
L 69.28125 6.78125 
Q 63.578125 2.734375 56.6875 0.65625 
Q 49.8125 -1.421875 42 -1.421875 
Q 24.90625 -1.421875 15.25 8.5625 
Q 5.609375 18.5625 5.609375 36.375 
Q 5.609375 54.25 15.25 64.234375 
Q 24.90625 74.21875 42 74.21875 
Q 49.125 74.21875 55.546875 72.453125 
Q 61.96875 70.703125 67.390625 67.28125 
L 67.390625 56.78125 
Q 61.921875 61.421875 55.765625 63.765625 
Q 49.609375 66.109375 42.828125 66.109375 
Q 29.4375 66.109375 22.71875 58.640625 
Q 16.015625 51.171875 16.015625 36.375 
Q 16.015625 21.625 22.71875 14.15625 
Q 29.4375 6.6875 42.828125 6.6875 
Q 48.046875 6.6875 52.140625 7.59375 
Q 56.25 8.5 59.515625 10.40625 
z
" id="DejaVuSans-71"/>
      <path d="M 19.671875 64.796875 
L 19.671875 37.40625 
L 32.078125 37.40625 
Q 38.96875 37.40625 42.71875 40.96875 
Q 46.484375 44.53125 46.484375 51.125 
Q 46.484375 57.671875 42.71875 61.234375 
Q 38.96875 64.796875 32.078125 64.796875 
z
M 9.8125 72.90625 
L 32.078125 72.90625 
Q 44.34375 72.90625 50.609375 67.359375 
Q 56.890625 61.8125 56.890625 51.125 
Q 56.890625 40.328125 50.609375 34.8125 
Q 44.34375 29.296875 32.078125 29.296875 
L 19.671875 29.296875 
L 19.671875 0 
L 9.8125 0 
z
" id="DejaVuSans-80"/>
      <path id="DejaVuSans-32"/>
      <path d="M 18.109375 8.203125 
L 18.109375 -20.796875 
L 9.078125 -20.796875 
L 9.078125 54.6875 
L 18.109375 54.6875 
L 18.109375 46.390625 
Q 20.953125 51.265625 25.265625 53.625 
Q 29.59375 56 35.59375 56 
Q 45.5625 56 51.78125 48.09375 
Q 58.015625 40.1875 58.015625 27.296875 
Q 58.015625 14.40625 51.78125 6.484375 
Q 45.5625 -1.421875 35.59375 -1.421875 
Q 29.59375 -1.421875 25.265625 0.953125 
Q 20.953125 3.328125 18.109375 8.203125 
z
M 48.6875 27.296875 
Q 48.6875 37.203125 44.609375 42.84375 
Q 40.53125 48.484375 33.40625 48.484375 
Q 26.265625 48.484375 22.1875 42.84375 
Q 18.109375 37.203125 18.109375 27.296875 
Q 18.109375 17.390625 22.1875 11.75 
Q 26.265625 6.109375 33.40625 6.109375 
Q 40.53125 6.109375 44.609375 11.75 
Q 48.6875 17.390625 48.6875 27.296875 
z
" id="DejaVuSans-112"/>
      <path d="M 41.109375 46.296875 
Q 39.59375 47.171875 37.8125 47.578125 
Q 36.03125 48 33.890625 48 
Q 26.265625 48 22.1875 43.046875 
Q 18.109375 38.09375 18.109375 28.8125 
L 18.109375 0 
L 9.078125 0 
L 9.078125 54.6875 
L 18.109375 54.6875 
L 18.109375 46.1875 
Q 20.953125 51.171875 25.484375 53.578125 
Q 30.03125 56 36.53125 56 
Q 37.453125 56 38.578125 55.875 
Q 39.703125 55.765625 41.0625 55.515625 
z
" id="DejaVuSans-114"/>
      <path d="M 56.203125 29.59375 
L 56.203125 25.203125 
L 14.890625 25.203125 
Q 15.484375 15.921875 20.484375 11.0625 
Q 25.484375 6.203125 34.421875 6.203125 
Q 39.59375 6.203125 44.453125 7.46875 
Q 49.3125 8.734375 54.109375 11.28125 
L 54.109375 2.78125 
Q 49.265625 0.734375 44.1875 -0.34375 
Q 39.109375 -1.421875 33.890625 -1.421875 
Q 20.796875 -1.421875 13.15625 6.1875 
Q 5.515625 13.8125 5.515625 26.8125 
Q 5.515625 40.234375 12.765625 48.109375 
Q 20.015625 56 32.328125 56 
Q 43.359375 56 49.78125 48.890625 
Q 56.203125 41.796875 56.203125 29.59375 
z
M 47.21875 32.234375 
Q 47.125 39.59375 43.09375 43.984375 
Q 39.0625 48.390625 32.421875 48.390625 
Q 24.90625 48.390625 20.390625 44.140625 
Q 15.875 39.890625 15.1875 32.171875 
z
" id="DejaVuSans-101"/>
      <path d="M 45.40625 46.390625 
L 45.40625 75.984375 
L 54.390625 75.984375 
L 54.390625 0 
L 45.40625 0 
L 45.40625 8.203125 
Q 42.578125 3.328125 38.25 0.953125 
Q 33.9375 -1.421875 27.875 -1.421875 
Q 17.96875 -1.421875 11.734375 6.484375 
Q 5.515625 14.40625 5.515625 27.296875 
Q 5.515625 40.1875 11.734375 48.09375 
Q 17.96875 56 27.875 56 
Q 33.9375 56 38.25 53.625 
Q 42.578125 51.265625 45.40625 46.390625 
z
M 14.796875 27.296875 
Q 14.796875 17.390625 18.875 11.75 
Q 22.953125 6.109375 30.078125 6.109375 
Q 37.203125 6.109375 41.296875 11.75 
Q 45.40625 17.390625 45.40625 27.296875 
Q 45.40625 37.203125 41.296875 42.84375 
Q 37.203125 48.484375 30.078125 48.484375 
Q 22.953125 48.484375 18.875 42.84375 
Q 14.796875 37.203125 14.796875 27.296875 
z
" id="DejaVuSans-100"/>
      <path d="M 9.421875 54.6875 
L 18.40625 54.6875 
L 18.40625 0 
L 9.421875 0 
z
M 9.421875 75.984375 
L 18.40625 75.984375 
L 18.40625 64.59375 
L 9.421875 64.59375 
z
" id="DejaVuSans-105"/>
      <path d="M 48.78125 52.59375 
L 48.78125 44.1875 
Q 44.96875 46.296875 41.140625 47.34375 
Q 37.3125 48.390625 33.40625 48.390625 
Q 24.65625 48.390625 19.8125 42.84375 
Q 14.984375 37.3125 14.984375 27.296875 
Q 14.984375 17.28125 19.8125 11.734375 
Q 24.65625 6.203125 33.40625 6.203125 
Q 37.3125 6.203125 41.140625 7.25 
Q 44.96875 8.296875 48.78125 10.40625 
L 48.78125 2.09375 
Q 45.015625 0.34375 40.984375 -0.53125 
Q 36.96875 -1.421875 32.421875 -1.421875 
Q 20.0625 -1.421875 12.78125 6.34375 
Q 5.515625 14.109375 5.515625 27.296875 
Q 5.515625 40.671875 12.859375 48.328125 
Q 20.21875 56 33.015625 56 
Q 37.15625 56 41.109375 55.140625 
Q 45.0625 54.296875 48.78125 52.59375 
z
" id="DejaVuSans-99"/>
      <path d="M 18.3125 70.21875 
L 18.3125 54.6875 
L 36.8125 54.6875 
L 36.8125 47.703125 
L 18.3125 47.703125 
L 18.3125 18.015625 
Q 18.3125 11.328125 20.140625 9.421875 
Q 21.96875 7.515625 27.59375 7.515625 
L 36.8125 7.515625 
L 36.8125 0 
L 27.59375 0 
Q 17.1875 0 13.234375 3.875 
Q 9.28125 7.765625 9.28125 18.015625 
L 9.28125 47.703125 
L 2.6875 47.703125 
L 2.6875 54.6875 
L 9.28125 54.6875 
L 9.28125 70.21875 
z
" id="DejaVuSans-116"/>
      <path d="M 52 44.1875 
Q 55.375 50.25 60.0625 53.125 
Q 64.75 56 71.09375 56 
Q 79.640625 56 84.28125 50.015625 
Q 88.921875 44.046875 88.921875 33.015625 
L 88.921875 0 
L 79.890625 0 
L 79.890625 32.71875 
Q 79.890625 40.578125 77.09375 44.375 
Q 74.3125 48.1875 68.609375 48.1875 
Q 61.625 48.1875 57.5625 43.546875 
Q 53.515625 38.921875 53.515625 30.90625 
L 53.515625 0 
L 44.484375 0 
L 44.484375 32.71875 
Q 44.484375 40.625 41.703125 44.40625 
Q 38.921875 48.1875 33.109375 48.1875 
Q 26.21875 48.1875 22.15625 43.53125 
Q 18.109375 38.875 18.109375 30.90625 
L 18.109375 0 
L 9.078125 0 
L 9.078125 54.6875 
L 18.109375 54.6875 
L 18.109375 46.1875 
Q 21.1875 51.21875 25.484375 53.609375 
Q 29.78125 56 35.6875 56 
Q 41.65625 56 45.828125 52.96875 
Q 50 49.953125 52 44.1875 
z
" id="DejaVuSans-109"/>
      <path d="M 34.28125 27.484375 
Q 23.390625 27.484375 19.1875 25 
Q 14.984375 22.515625 14.984375 16.5 
Q 14.984375 11.71875 18.140625 8.90625 
Q 21.296875 6.109375 26.703125 6.109375 
Q 34.1875 6.109375 38.703125 11.40625 
Q 43.21875 16.703125 43.21875 25.484375 
L 43.21875 27.484375 
z
M 52.203125 31.203125 
L 52.203125 0 
L 43.21875 0 
L 43.21875 8.296875 
Q 40.140625 3.328125 35.546875 0.953125 
Q 30.953125 -1.421875 24.3125 -1.421875 
Q 15.921875 -1.421875 10.953125 3.296875 
Q 6 8.015625 6 15.921875 
Q 6 25.140625 12.171875 29.828125 
Q 18.359375 34.515625 30.609375 34.515625 
L 43.21875 34.515625 
L 43.21875 35.40625 
Q 43.21875 41.609375 39.140625 45 
Q 35.0625 48.390625 27.6875 48.390625 
Q 23 48.390625 18.546875 47.265625 
Q 14.109375 46.140625 10.015625 43.890625 
L 10.015625 52.203125 
Q 14.9375 54.109375 19.578125 55.046875 
Q 24.21875 56 28.609375 56 
Q 40.484375 56 46.34375 49.84375 
Q 52.203125 43.703125 52.203125 31.203125 
z
" id="DejaVuSans-97"/>
      <path d="M 54.890625 33.015625 
L 54.890625 0 
L 45.90625 0 
L 45.90625 32.71875 
Q 45.90625 40.484375 42.875 44.328125 
Q 39.84375 48.1875 33.796875 48.1875 
Q 26.515625 48.1875 22.3125 43.546875 
Q 18.109375 38.921875 18.109375 30.90625 
L 18.109375 0 
L 9.078125 0 
L 9.078125 54.6875 
L 18.109375 54.6875 
L 18.109375 46.1875 
Q 21.34375 51.125 25.703125 53.5625 
Q 30.078125 56 35.796875 56 
Q 45.21875 56 50.046875 50.171875 
Q 54.890625 44.34375 54.890625 33.015625 
z
" id="DejaVuSans-110"/>
     </defs>
     <g transform="translate(309.791875 58.070438)scale(0.1 -0.1)">
      <use xlink:href="#DejaVuSans-71"/>
      <use x="77.490234" xlink:href="#DejaVuSans-80"/>
      <use x="137.792969" xlink:href="#DejaVuSans-32"/>
      <use x="169.580078" xlink:href="#DejaVuSans-112"/>
      <use x="233.056641" xlink:href="#DejaVuSans-114"/>
      <use x="271.919922" xlink:href="#DejaVuSans-101"/>
      <use x="333.443359" xlink:href="#DejaVuSans-100"/>
      <use x="396.919922" xlink:href="#DejaVuSans-105"/>
      <use x="424.703125" xlink:href="#DejaVuSans-99"/>
      <use x="479.683594" xlink:href="#DejaVuSans-116"/>
      <use x="518.892578" xlink:href="#DejaVuSans-101"/>
      <use x="580.416016" xlink:href="#DejaVuSans-100"/>
      <use x="643.892578" xlink:href="#DejaVuSans-32"/>
      <use x="675.679688" xlink:href="#DejaVuSans-109"/>
      <use x="773.091797" xlink:href="#DejaVuSans-101"/>
      <use x="834.615234" xlink:href="#DejaVuSans-97"/>
      <use x="895.894531" xlink:href="#DejaVuSans-110"/>
     </g>
    </g>
    <g id="line2d_19">
     <path d="M 281.791875 69.248563 
L 301.791875 69.248563 
" style="fill:none;stroke:#666666;stroke-linecap:square;stroke-width:1.5;"/>
    </g>
    <g id="line2d_20">
     <g>
      <use style="fill:#666666;stroke:#666666;" x="291.791875" xlink:href="#m4db0520ff1" y="69.248563"/>
     </g>
    </g>
    <g id="text_14">
     <!-- local linear approx. -->
     <defs>
      <path d="M 9.421875 75.984375 
L 18.40625 75.984375 
L 18.40625 0 
L 9.421875 0 
z
" id="DejaVuSans-108"/>
      <path d="M 30.609375 48.390625 
Q 23.390625 48.390625 19.1875 42.75 
Q 14.984375 37.109375 14.984375 27.296875 
Q 14.984375 17.484375 19.15625 11.84375 
Q 23.34375 6.203125 30.609375 6.203125 
Q 37.796875 6.203125 41.984375 11.859375 
Q 46.1875 17.53125 46.1875 27.296875 
Q 46.1875 37.015625 41.984375 42.703125 
Q 37.796875 48.390625 30.609375 48.390625 
z
M 30.609375 56 
Q 42.328125 56 49.015625 48.375 
Q 55.71875 40.765625 55.71875 27.296875 
Q 55.71875 13.875 49.015625 6.21875 
Q 42.328125 -1.421875 30.609375 -1.421875 
Q 18.84375 -1.421875 12.171875 6.21875 
Q 5.515625 13.875 5.515625 27.296875 
Q 5.515625 40.765625 12.171875 48.375 
Q 18.84375 56 30.609375 56 
z
" id="DejaVuSans-111"/>
      <path d="M 54.890625 54.6875 
L 35.109375 28.078125 
L 55.90625 0 
L 45.3125 0 
L 29.390625 21.484375 
L 13.484375 0 
L 2.875 0 
L 24.125 28.609375 
L 4.6875 54.6875 
L 15.28125 54.6875 
L 29.78125 35.203125 
L 44.28125 54.6875 
z
" id="DejaVuSans-120"/>
     </defs>
     <g transform="translate(309.791875 72.748563)scale(0.1 -0.1)">
      <use xlink:href="#DejaVuSans-108"/>
      <use x="27.783203" xlink:href="#DejaVuSans-111"/>
      <use x="88.964844" xlink:href="#DejaVuSans-99"/>
      <use x="143.945312" xlink:href="#DejaVuSans-97"/>
      <use x="205.224609" xlink:href="#DejaVuSans-108"/>
      <use x="233.007812" xlink:href="#DejaVuSans-32"/>
      <use x="264.794922" xlink:href="#DejaVuSans-108"/>
      <use x="292.578125" xlink:href="#DejaVuSans-105"/>
      <use x="320.361328" xlink:href="#DejaVuSans-110"/>
      <use x="383.740234" xlink:href="#DejaVuSans-101"/>
      <use x="445.263672" xlink:href="#DejaVuSans-97"/>
      <use x="506.542969" xlink:href="#DejaVuSans-114"/>
      <use x="547.65625" xlink:href="#DejaVuSans-32"/>
      <use x="579.443359" xlink:href="#DejaVuSans-97"/>
      <use x="640.722656" xlink:href="#DejaVuSans-112"/>
      <use x="704.199219" xlink:href="#DejaVuSans-112"/>
      <use x="767.675781" xlink:href="#DejaVuSans-114"/>
      <use x="806.539062" xlink:href="#DejaVuSans-111"/>
      <use x="864.595703" xlink:href="#DejaVuSans-120"/>
      <use x="923.775391" xlink:href="#DejaVuSans-46"/>
     </g>
    </g>
    <g id="line2d_21">
     <path d="M 281.791875 83.926688 
L 301.791875 83.926688 
" style="fill:none;stroke:#000000;stroke-linecap:square;stroke-width:1.5;"/>
    </g>
    <g id="line2d_22"/>
    <g id="text_15">
     <!-- true function -->
     <defs>
      <path d="M 8.5 21.578125 
L 8.5 54.6875 
L 17.484375 54.6875 
L 17.484375 21.921875 
Q 17.484375 14.15625 20.5 10.265625 
Q 23.53125 6.390625 29.59375 6.390625 
Q 36.859375 6.390625 41.078125 11.03125 
Q 45.3125 15.671875 45.3125 23.6875 
L 45.3125 54.6875 
L 54.296875 54.6875 
L 54.296875 0 
L 45.3125 0 
L 45.3125 8.40625 
Q 42.046875 3.421875 37.71875 1 
Q 33.40625 -1.421875 27.6875 -1.421875 
Q 18.265625 -1.421875 13.375 4.4375 
Q 8.5 10.296875 8.5 21.578125 
z
M 31.109375 56 
z
" id="DejaVuSans-117"/>
      <path d="M 37.109375 75.984375 
L 37.109375 68.5 
L 28.515625 68.5 
Q 23.6875 68.5 21.796875 66.546875 
Q 19.921875 64.59375 19.921875 59.515625 
L 19.921875 54.6875 
L 34.71875 54.6875 
L 34.71875 47.703125 
L 19.921875 47.703125 
L 19.921875 0 
L 10.890625 0 
L 10.890625 47.703125 
L 2.296875 47.703125 
L 2.296875 54.6875 
L 10.890625 54.6875 
L 10.890625 58.5 
Q 10.890625 67.625 15.140625 71.796875 
Q 19.390625 75.984375 28.609375 75.984375 
z
" id="DejaVuSans-102"/>
     </defs>
     <g transform="translate(309.791875 87.426688)scale(0.1 -0.1)">
      <use xlink:href="#DejaVuSans-116"/>
      <use x="39.208984" xlink:href="#DejaVuSans-114"/>
      <use x="80.322266" xlink:href="#DejaVuSans-117"/>
      <use x="143.701172" xlink:href="#DejaVuSans-101"/>
      <use x="205.224609" xlink:href="#DejaVuSans-32"/>
      <use x="237.011719" xlink:href="#DejaVuSans-102"/>
      <use x="272.216797" xlink:href="#DejaVuSans-117"/>
      <use x="335.595703" xlink:href="#DejaVuSans-110"/>
      <use x="398.974609" xlink:href="#DejaVuSans-99"/>
      <use x="453.955078" xlink:href="#DejaVuSans-116"/>
      <use x="493.164062" xlink:href="#DejaVuSans-105"/>
      <use x="520.947266" xlink:href="#DejaVuSans-111"/>
      <use x="582.128906" xlink:href="#DejaVuSans-110"/>
     </g>
    </g>
    <g id="line2d_23">
     <path d="M 281.791875 98.604813 
L 301.791875 98.604813 
" style="fill:none;stroke:#ff00ff;stroke-linecap:square;stroke-width:1.5;"/>
    </g>
    <g id="line2d_24">
     <g>
      <use style="fill:#ff00ff;stroke:#ff00ff;" x="291.791875" xlink:href="#maba4cdbebe" y="98.604813"/>
     </g>
    </g>
    <g id="text_16">
     <!-- new sample -->
     <defs>
      <path d="M 4.203125 54.6875 
L 13.1875 54.6875 
L 24.421875 12.015625 
L 35.59375 54.6875 
L 46.1875 54.6875 
L 57.421875 12.015625 
L 68.609375 54.6875 
L 77.59375 54.6875 
L 63.28125 0 
L 52.6875 0 
L 40.921875 44.828125 
L 29.109375 0 
L 18.5 0 
z
" id="DejaVuSans-119"/>
      <path d="M 44.28125 53.078125 
L 44.28125 44.578125 
Q 40.484375 46.53125 36.375 47.5 
Q 32.28125 48.484375 27.875 48.484375 
Q 21.1875 48.484375 17.84375 46.4375 
Q 14.5 44.390625 14.5 40.28125 
Q 14.5 37.15625 16.890625 35.375 
Q 19.28125 33.59375 26.515625 31.984375 
L 29.59375 31.296875 
Q 39.15625 29.25 43.1875 25.515625 
Q 47.21875 21.78125 47.21875 15.09375 
Q 47.21875 7.46875 41.1875 3.015625 
Q 35.15625 -1.421875 24.609375 -1.421875 
Q 20.21875 -1.421875 15.453125 -0.5625 
Q 10.6875 0.296875 5.421875 2 
L 5.421875 11.28125 
Q 10.40625 8.6875 15.234375 7.390625 
Q 20.0625 6.109375 24.8125 6.109375 
Q 31.15625 6.109375 34.5625 8.28125 
Q 37.984375 10.453125 37.984375 14.40625 
Q 37.984375 18.0625 35.515625 20.015625 
Q 33.0625 21.96875 24.703125 23.78125 
L 21.578125 24.515625 
Q 13.234375 26.265625 9.515625 29.90625 
Q 5.8125 33.546875 5.8125 39.890625 
Q 5.8125 47.609375 11.28125 51.796875 
Q 16.75 56 26.8125 56 
Q 31.78125 56 36.171875 55.265625 
Q 40.578125 54.546875 44.28125 53.078125 
z
" id="DejaVuSans-115"/>
     </defs>
     <g transform="translate(309.791875 102.104813)scale(0.1 -0.1)">
      <use xlink:href="#DejaVuSans-110"/>
      <use x="63.378906" xlink:href="#DejaVuSans-101"/>
      <use x="124.902344" xlink:href="#DejaVuSans-119"/>
      <use x="206.689453" xlink:href="#DejaVuSans-32"/>
      <use x="238.476562" xlink:href="#DejaVuSans-115"/>
      <use x="290.576172" xlink:href="#DejaVuSans-97"/>
      <use x="351.855469" xlink:href="#DejaVuSans-109"/>
      <use x="449.267578" xlink:href="#DejaVuSans-112"/>
      <use x="512.744141" xlink:href="#DejaVuSans-108"/>
      <use x="540.527344" xlink:href="#DejaVuSans-101"/>
     </g>
    </g>
    <g id="patch_8">
     <path d="M 281.791875 116.7845 
L 301.791875 116.7845 
L 301.791875 109.7845 
L 281.791875 109.7845 
z
" style="fill:#347aeb;opacity:0.6;"/>
    </g>
    <g id="text_17">
     <!-- GP predicted 2$\sigma$ -->
     <defs>
      <path d="M 34.671875 47.5625 
Q 27.25 47.5625 22.21875 42.1875 
Q 16.890625 36.578125 15.140625 27.296875 
Q 13.1875 17.484375 16.3125 11.8125 
Q 19.390625 6.203125 26.65625 6.203125 
Q 33.84375 6.203125 39.109375 11.859375 
Q 44.4375 17.53125 46.34375 27.296875 
Q 48.046875 36.234375 45.015625 42.1875 
Q 42.1875 47.5625 34.671875 47.5625 
z
M 36.078125 54.734375 
L 65.921875 54.6875 
L 64.15625 45.703125 
L 54.109375 45.703125 
Q 57.90625 38.09375 55.859375 27.296875 
Q 53.21875 13.875 45.0625 6.25 
Q 36.859375 -1.421875 25.140625 -1.421875 
Q 13.375 -1.421875 8.203125 6.25 
Q 3.03125 13.875 5.671875 27.296875 
Q 8.25 40.765625 16.40625 48.390625 
Q 23.1875 54.734375 36.078125 54.734375 
z
" id="DejaVuSans-Oblique-963"/>
     </defs>
     <g transform="translate(309.791875 116.7845)scale(0.1 -0.1)">
      <use transform="translate(0 0.015625)" xlink:href="#DejaVuSans-71"/>
      <use transform="translate(77.490234 0.015625)" xlink:href="#DejaVuSans-80"/>
      <use transform="translate(137.792969 0.015625)" xlink:href="#DejaVuSans-32"/>
      <use transform="translate(169.580078 0.015625)" xlink:href="#DejaVuSans-112"/>
      <use transform="translate(233.056641 0.015625)" xlink:href="#DejaVuSans-114"/>
      <use transform="translate(274.169922 0.015625)" xlink:href="#DejaVuSans-101"/>
      <use transform="translate(335.693359 0.015625)" xlink:href="#DejaVuSans-100"/>
      <use transform="translate(399.169922 0.015625)" xlink:href="#DejaVuSans-105"/>
      <use transform="translate(426.953125 0.015625)" xlink:href="#DejaVuSans-99"/>
      <use transform="translate(481.933594 0.015625)" xlink:href="#DejaVuSans-116"/>
      <use transform="translate(521.142578 0.015625)" xlink:href="#DejaVuSans-101"/>
      <use transform="translate(582.666016 0.015625)" xlink:href="#DejaVuSans-100"/>
      <use transform="translate(646.142578 0.015625)" xlink:href="#DejaVuSans-32"/>
      <use transform="translate(677.929688 0.015625)" xlink:href="#DejaVuSans-50"/>
      <use transform="translate(741.552734 0.015625)" xlink:href="#DejaVuSans-Oblique-963"/>
     </g>
    </g>
   </g>
  </g>
 </g>
 <defs>
  <clipPath id="p9b667371b1">
   <rect height="266.112" width="357.12" x="57.6" y="41.472"/>
  </clipPath>
 </defs>
</svg>
