<?xml version="1.0" encoding="utf-8" standalone="no"?>
<!DOCTYPE svg PUBLIC "-//W3C//DTD SVG 1.1//EN"
  "http://www.w3.org/Graphics/SVG/1.1/DTD/svg11.dtd">
<!-- Created with matplotlib (https://matplotlib.org/) -->
<svg height="345.6pt" version="1.1" viewBox="0 0 460.8 345.6" width="460.8pt" xmlns="http://www.w3.org/2000/svg" xmlns:xlink="http://www.w3.org/1999/xlink">
 <defs>
  <style type="text/css">
*{stroke-linecap:butt;stroke-linejoin:round;}
  </style>
 </defs>
 <g id="figure_1">
  <g id="patch_1">
   <path d="M 0 345.6 
L 460.8 345.6 
L 460.8 0 
L 0 0 
z
" style="fill:#ffffff;"/>
  </g>
  <g id="axes_1">
   <g id="patch_2">
    <path d="M 57.6 307.584 
L 414.72 307.584 
L 414.72 41.472 
L 57.6 41.472 
z
" style="fill:#ffffff;"/>
   </g>
   <g id="PolyCollection_1">
    <defs>
     <path d="M 87.36 -277.204264 
L 87.36 -277.222113 
L 88.848 -263.26119 
L 90.336 -245.896803 
L 91.824 -226.734707 
L 93.312 -207.870904 
L 94.8 -191.518912 
L 96.288 -187.571811 
L 97.776 -187.988351 
L 99.264 -191.521391 
L 100.752 -196.777974 
L 102.24 -202.529784 
L 103.728 -207.928719 
L 105.216 -212.58649 
L 106.704 -224.244526 
L 108.192 -233.069443 
L 109.68 -237.901688 
L 111.168 -238.211122 
L 112.656 -234.136035 
L 114.144 -226.449926 
L 115.632 -224.634786 
L 117.12 -220.567887 
L 118.608 -214.268656 
L 120.096 -206.230684 
L 121.584 -197.381191 
L 123.072 -188.934736 
L 124.56 -182.166013 
L 126.048 -185.751879 
L 127.536 -190.308436 
L 129.024 -194.51846 
L 130.512 -197.295756 
L 132 -198.019887 
L 133.488 -196.664178 
L 134.976 -201.034511 
L 136.464 -202.808225 
L 137.952 -201.521748 
L 139.44 -197.367603 
L 140.928 -191.122619 
L 142.416 -183.981027 
L 143.904 -185.426262 
L 145.392 -187.184903 
L 146.88 -188.622919 
L 148.368 -189.343237 
L 149.856 -189.307916 
L 151.344 -188.864472 
L 152.832 -188.671 
L 154.32 -197.105425 
L 155.808 -204.933245 
L 157.296 -211.274038 
L 158.784 -215.669085 
L 160.272 -218.146397 
L 161.76 -219.181527 
L 163.248 -226.670054 
L 164.736 -232.284732 
L 166.224 -235.204984 
L 167.712 -235.08953 
L 169.2 -232.128521 
L 170.688 -226.99071 
L 172.176 -227.848811 
L 173.664 -226.649477 
L 175.152 -222.754585 
L 176.64 -215.972906 
L 178.128 -206.609524 
L 179.616 -195.415859 
L 181.104 -191.532759 
L 182.592 -186.539449 
L 184.08 -179.777955 
L 185.568 -170.942522 
L 187.056 -160.160331 
L 188.544 -147.98655 
L 190.032 -135.315172 
L 191.52 -130.784958 
L 193.008 -125.456171 
L 194.496 -118.765178 
L 195.984 -110.582964 
L 197.472 -101.258631 
L 198.96 -91.555575 
L 200.448 -89.60456 
L 201.936 -87.255239 
L 203.424 -83.81101 
L 204.912 -79.014143 
L 206.4 -73.104779 
L 207.888 -66.765146 
L 209.376 -68.13762 
L 210.864 -69.090414 
L 212.352 -68.867641 
L 213.84 -67.136024 
L 215.328 -64.048498 
L 216.816 -60.200916 
L 218.304 -64.578334 
L 219.792 -68.593435 
L 221.28 -71.419158 
L 222.768 -72.582194 
L 224.256 -72.051254 
L 225.744 -70.238153 
L 227.232 -67.91147 
L 228.72 -73.627928 
L 230.208 -78.33754 
L 231.696 -81.388994 
L 233.184 -82.570688 
L 234.672 -82.155931 
L 236.16 -80.844789 
L 237.648 -86.867402 
L 239.136 -91.962397 
L 240.624 -95.395456 
L 242.112 -96.857999 
L 243.6 -96.526484 
L 245.088 -95.019046 
L 246.576 -101.382395 
L 248.064 -107.019831 
L 249.552 -111.132727 
L 251.04 -113.2721 
L 252.528 -113.423325 
L 254.016 -112.007583 
L 255.504 -109.800556 
L 256.992 -115.547234 
L 258.48 -120.100791 
L 259.968 -122.800963 
L 261.456 -123.405116 
L 262.944 -122.135701 
L 264.432 -119.63561 
L 265.92 -125.179358 
L 267.408 -129.961784 
L 268.896 -133.185785 
L 270.384 -134.387343 
L 271.872 -133.515842 
L 273.36 -130.938839 
L 274.848 -127.373903 
L 276.336 -132.600573 
L 277.824 -136.868711 
L 279.312 -139.453072 
L 280.8 -139.970386 
L 282.288 -138.448118 
L 283.776 -135.322867 
L 285.264 -131.367596 
L 286.752 -135.840625 
L 288.24 -139.177987 
L 289.728 -140.659576 
L 291.216 -139.920904 
L 292.704 -136.999767 
L 294.192 -132.311964 
L 295.68 -138.0121 
L 297.168 -143.937185 
L 298.656 -149.323491 
L 300.144 -153.541741 
L 301.632 -156.13866 
L 303.12 -156.848647 
L 304.608 -155.588586 
L 306.096 -152.454174 
L 307.584 -147.724455 
L 309.072 -141.867201 
L 310.56 -135.526064 
L 312.048 -129.47587 
L 313.536 -133.639405 
L 315.024 -136.04462 
L 316.512 -136.318554 
L 318 -134.490298 
L 319.488 -131.009922 
L 320.976 -126.684531 
L 322.464 -129.853478 
L 323.952 -131.963815 
L 325.44 -132.355528 
L 326.928 -130.816669 
L 328.416 -127.630407 
L 329.904 -123.513979 
L 331.392 -126.535923 
L 332.88 -128.602399 
L 334.368 -129.013651 
L 335.856 -127.514607 
L 337.344 -124.352197 
L 338.832 -120.220036 
L 340.32 -123.271831 
L 341.808 -125.411143 
L 343.296 -125.910116 
L 344.784 -124.464824 
L 346.272 -121.256821 
L 347.76 -116.909941 
L 349.248 -120.43628 
L 350.736 -123.281219 
L 352.224 -124.648391 
L 353.712 -124.093109 
L 355.2 -121.608798 
L 356.688 -117.62855 
L 358.176 -112.941604 
L 359.664 -116.124043 
L 361.152 -118.157099 
L 362.64 -118.422479 
L 364.128 -116.742228 
L 365.616 -113.418542 
L 367.104 -109.170381 
L 368.592 -112.2096 
L 370.08 -114.279855 
L 371.568 -114.632483 
L 373.056 -112.945657 
L 374.544 -109.393817 
L 376.032 -104.615122 
L 377.52 -107.486153 
L 379.008 -109.519739 
L 380.496 -109.934658 
L 381.984 -108.272675 
L 383.472 -104.442989 
L 384.96 -98.693965 
L 384.96 -98.676116 
L 384.96 -98.676116 
L 383.472 -94.145848 
L 381.984 -92.038538 
L 380.496 -92.465714 
L 379.008 -95.168583 
L 377.52 -99.5199 
L 376.032 -104.597271 
L 374.544 -101.820721 
L 373.056 -100.030304 
L 371.568 -99.878634 
L 370.08 -101.590351 
L 368.592 -104.909928 
L 367.104 -109.152553 
L 365.616 -106.109827 
L 364.128 -104.019321 
L 362.64 -103.60418 
L 361.152 -105.154993 
L 359.664 -108.474283 
L 358.176 -112.923757 
L 356.688 -109.469548 
L 355.2 -106.680271 
L 353.712 -105.345592 
L 352.224 -105.905407 
L 350.736 -108.363829 
L 349.248 -112.288003 
L 347.76 -116.892078 
L 346.272 -113.628878 
L 344.784 -111.514145 
L 343.296 -111.171879 
L 341.808 -112.781377 
L 340.32 -116.035283 
L 338.832 -120.20219 
L 337.344 -117.182629 
L 335.856 -115.128092 
L 334.368 -114.730847 
L 332.88 -116.237239 
L 331.392 -119.392176 
L 329.904 -123.496159 
L 328.416 -120.455595 
L 326.928 -118.338998 
L 325.44 -117.863114 
L 323.952 -119.30996 
L 322.464 -122.465557 
L 320.976 -126.666696 
L 319.488 -123.355826 
L 318 -120.866203 
L 316.512 -119.997605 
L 315.024 -121.192234 
L 313.536 -124.471864 
L 312.048 -129.45801 
L 310.56 -124.175854 
L 309.072 -118.548408 
L 307.584 -113.353042 
L 306.096 -109.236877 
L 304.608 -106.670444 
L 303.12 -105.933362 
L 301.632 -107.118712 
L 300.144 -110.137136 
L 298.656 -114.713378 
L 297.168 -120.382042 
L 295.68 -126.500851 
L 294.192 -132.294109 
L 292.704 -127.589475 
L 291.216 -124.535468 
L 289.728 -123.544588 
L 288.24 -124.652974 
L 286.752 -127.495073 
L 285.264 -131.349749 
L 283.776 -126.651892 
L 282.288 -122.658285 
L 280.8 -120.139337 
L 279.312 -119.52735 
L 277.824 -120.843542 
L 276.336 -123.697214 
L 274.848 -127.356059 
L 273.36 -122.064839 
L 271.872 -117.600644 
L 270.384 -114.680648 
L 268.896 -113.672629 
L 267.408 -114.525487 
L 265.92 -116.773602 
L 264.432 -119.617751 
L 262.944 -114.251201 
L 261.456 -109.948204 
L 259.968 -107.352771 
L 258.48 -106.689444 
L 256.992 -107.718336 
L 255.504 -109.782737 
L 254.016 -103.740708 
L 252.528 -98.343948 
L 251.04 -94.376776 
L 249.552 -92.27061 
L 248.064 -92.022142 
L 246.576 -93.194371 
L 245.088 -95.001204 
L 243.6 -88.859352 
L 242.112 -83.830543 
L 240.624 -80.550463 
L 239.136 -79.21639 
L 237.648 -79.544088 
L 236.16 -80.826925 
L 234.672 -74.834456 
L 233.184 -69.831362 
L 231.696 -66.556508 
L 230.208 -65.32616 
L 228.72 -65.974075 
L 227.232 -67.893649 
L 225.744 -62.076588 
L 224.256 -57.118968 
L 222.768 -53.830685 
L 221.28 -52.672538 
L 219.792 -53.673167 
L 218.304 -56.428354 
L 216.816 -60.183084 
L 215.328 -56.418265 
L 213.84 -54.180387 
L 212.352 -54.122049 
L 210.864 -56.45232 
L 209.376 -60.894718 
L 207.888 -66.747315 
L 206.4 -65.923915 
L 204.912 -66.601408 
L 203.424 -69.487536 
L 201.936 -74.84267 
L 200.448 -82.423898 
L 198.96 -91.537739 
L 197.472 -94.016207 
L 195.984 -97.946044 
L 194.496 -104.021468 
L 193.008 -112.502784 
L 191.52 -123.156515 
L 190.032 -135.297267 
L 188.544 -139.84003 
L 187.056 -145.248566 
L 185.568 -152.210231 
L 184.08 -161.045664 
L 182.592 -171.627685 
L 181.104 -183.386239 
L 179.616 -195.398026 
L 178.128 -198.98108 
L 176.64 -203.019518 
L 175.152 -208.010876 
L 173.664 -214.012556 
L 172.176 -220.606387 
L 170.688 -226.972847 
L 169.2 -224.947859 
L 167.712 -222.676963 
L 166.224 -220.881512 
L 164.736 -219.871999 
L 163.248 -219.489192 
L 161.76 -219.163703 
L 160.272 -210.903497 
L 158.784 -203.030997 
L 157.296 -196.528454 
L 155.808 -191.977619 
L 154.32 -189.4752 
L 152.832 -188.653142 
L 151.344 -180.714508 
L 149.856 -174.387688 
L 148.368 -170.596682 
L 146.88 -169.871497 
L 145.392 -172.252709 
L 143.904 -177.264764 
L 142.416 -183.963199 
L 140.928 -183.468876 
L 139.44 -184.356471 
L 137.952 -186.689641 
L 136.464 -190.069333 
L 134.976 -193.713371 
L 133.488 -196.646327 
L 132 -190.697174 
L 130.512 -184.551154 
L 129.024 -179.67566 
L 127.536 -177.28356 
L 126.048 -178.086782 
L 124.56 -182.148164 
L 123.072 -180.750614 
L 121.584 -182.393087 
L 120.096 -187.384736 
L 118.608 -195.395061 
L 117.12 -205.511781 
L 115.632 -216.385035 
L 114.144 -226.432104 
L 112.656 -226.336354 
L 111.168 -224.866932 
L 109.68 -222.557265 
L 108.192 -219.733751 
L 106.704 -216.45525 
L 105.216 -212.568648 
L 103.728 -199.705389 
L 102.24 -187.542606 
L 100.752 -178.026289 
L 99.264 -172.847216 
L 97.776 -173.194949 
L 96.288 -179.542249 
L 94.8 -191.501075 
L 93.312 -200.548387 
L 91.824 -214.696572 
L 90.336 -233.175698 
L 88.848 -254.582881 
L 87.36 -277.204264 
z
" id="mf6df4b3ade"/>
    </defs>
    <g clip-path="url(#pb115bf5757)">
     <use style="fill:#347aeb;fill-opacity:0.6;" x="0" xlink:href="#mf6df4b3ade" y="345.6"/>
    </g>
   </g>
   <g id="PathCollection_1">
    <defs>
     <path d="M 0 3 
C 0.795609 3 1.55874 2.683901 2.12132 2.12132 
C 2.683901 1.55874 3 0.795609 3 0 
C 3 -0.795609 2.683901 -1.55874 2.12132 -2.12132 
C 1.55874 -2.683901 0.795609 -3 0 -3 
C -0.795609 -3 -1.55874 -2.683901 -2.12132 -2.12132 
C -2.683901 -1.55874 -3 -0.795609 -3 0 
C -3 0.795609 -2.683901 1.55874 -2.12132 2.12132 
C -1.55874 2.683901 -0.795609 3 0 3 
z
" id="m33a5515851" style="stroke:#1f77b4;"/>
    </defs>
    <g clip-path="url(#pb115bf5757)">
     <use style="fill:#1f77b4;stroke:#1f77b4;" x="87.36" xlink:href="#m33a5515851" y="68.386808"/>
     <use style="fill:#1f77b4;stroke:#1f77b4;" x="94.8" xlink:href="#m33a5515851" y="154.090011"/>
     <use style="fill:#1f77b4;stroke:#1f77b4;" x="105.216" xlink:href="#m33a5515851" y="133.02243"/>
     <use style="fill:#1f77b4;stroke:#1f77b4;" x="114.144" xlink:href="#m33a5515851" y="119.158983"/>
     <use style="fill:#1f77b4;stroke:#1f77b4;" x="124.56" xlink:href="#m33a5515851" y="163.442915"/>
     <use style="fill:#1f77b4;stroke:#1f77b4;" x="133.488" xlink:href="#m33a5515851" y="148.944745"/>
     <use style="fill:#1f77b4;stroke:#1f77b4;" x="142.416" xlink:href="#m33a5515851" y="161.627888"/>
     <use style="fill:#1f77b4;stroke:#1f77b4;" x="152.832" xlink:href="#m33a5515851" y="156.937929"/>
     <use style="fill:#1f77b4;stroke:#1f77b4;" x="161.76" xlink:href="#m33a5515851" y="126.427384"/>
     <use style="fill:#1f77b4;stroke:#1f77b4;" x="170.688" xlink:href="#m33a5515851" y="118.618221"/>
     <use style="fill:#1f77b4;stroke:#1f77b4;" x="179.616" xlink:href="#m33a5515851" y="150.193058"/>
     <use style="fill:#1f77b4;stroke:#1f77b4;" x="190.032" xlink:href="#m33a5515851" y="210.293781"/>
     <use style="fill:#1f77b4;stroke:#1f77b4;" x="198.96" xlink:href="#m33a5515851" y="254.053343"/>
     <use style="fill:#1f77b4;stroke:#1f77b4;" x="207.888" xlink:href="#m33a5515851" y="278.84377"/>
     <use style="fill:#1f77b4;stroke:#1f77b4;" x="216.816" xlink:href="#m33a5515851" y="285.408"/>
     <use style="fill:#1f77b4;stroke:#1f77b4;" x="227.232" xlink:href="#m33a5515851" y="277.697441"/>
     <use style="fill:#1f77b4;stroke:#1f77b4;" x="236.16" xlink:href="#m33a5515851" y="264.764143"/>
     <use style="fill:#1f77b4;stroke:#1f77b4;" x="245.088" xlink:href="#m33a5515851" y="250.589875"/>
     <use style="fill:#1f77b4;stroke:#1f77b4;" x="255.504" xlink:href="#m33a5515851" y="235.808354"/>
     <use style="fill:#1f77b4;stroke:#1f77b4;" x="264.432" xlink:href="#m33a5515851" y="225.973319"/>
     <use style="fill:#1f77b4;stroke:#1f77b4;" x="274.848" xlink:href="#m33a5515851" y="218.235019"/>
     <use style="fill:#1f77b4;stroke:#1f77b4;" x="285.264" xlink:href="#m33a5515851" y="214.241327"/>
     <use style="fill:#1f77b4;stroke:#1f77b4;" x="294.192" xlink:href="#m33a5515851" y="213.296963"/>
     <use style="fill:#1f77b4;stroke:#1f77b4;" x="312.048" xlink:href="#m33a5515851" y="216.13306"/>
     <use style="fill:#1f77b4;stroke:#1f77b4;" x="320.976" xlink:href="#m33a5515851" y="218.924386"/>
     <use style="fill:#1f77b4;stroke:#1f77b4;" x="329.904" xlink:href="#m33a5515851" y="222.094931"/>
     <use style="fill:#1f77b4;stroke:#1f77b4;" x="338.832" xlink:href="#m33a5515851" y="225.388887"/>
     <use style="fill:#1f77b4;stroke:#1f77b4;" x="347.76" xlink:href="#m33a5515851" y="228.698991"/>
     <use style="fill:#1f77b4;stroke:#1f77b4;" x="358.176" xlink:href="#m33a5515851" y="232.66732"/>
     <use style="fill:#1f77b4;stroke:#1f77b4;" x="367.104" xlink:href="#m33a5515851" y="236.438533"/>
     <use style="fill:#1f77b4;stroke:#1f77b4;" x="376.032" xlink:href="#m33a5515851" y="240.993803"/>
     <use style="fill:#1f77b4;stroke:#1f77b4;" x="384.96" xlink:href="#m33a5515851" y="246.914959"/>
    </g>
   </g>
   <g id="matplotlib.axis_1">
    <g id="xtick_1">
     <g id="line2d_1">
      <defs>
       <path d="M 0 0 
L 0 3.5 
" id="mada37b8a21" style="stroke:#000000;stroke-width:0.8;"/>
      </defs>
      <g>
       <use style="stroke:#000000;stroke-width:0.8;" x="87.36" xlink:href="#mada37b8a21" y="307.584"/>
      </g>
     </g>
     <g id="text_1">
      <!-- 0.0 -->
      <defs>
       <path d="M 31.78125 66.40625 
Q 24.171875 66.40625 20.328125 58.90625 
Q 16.5 51.421875 16.5 36.375 
Q 16.5 21.390625 20.328125 13.890625 
Q 24.171875 6.390625 31.78125 6.390625 
Q 39.453125 6.390625 43.28125 13.890625 
Q 47.125 21.390625 47.125 36.375 
Q 47.125 51.421875 43.28125 58.90625 
Q 39.453125 66.40625 31.78125 66.40625 
z
M 31.78125 74.21875 
Q 44.046875 74.21875 50.515625 64.515625 
Q 56.984375 54.828125 56.984375 36.375 
Q 56.984375 17.96875 50.515625 8.265625 
Q 44.046875 -1.421875 31.78125 -1.421875 
Q 19.53125 -1.421875 13.0625 8.265625 
Q 6.59375 17.96875 6.59375 36.375 
Q 6.59375 54.828125 13.0625 64.515625 
Q 19.53125 74.21875 31.78125 74.21875 
z
" id="DejaVuSans-48"/>
       <path d="M 10.6875 12.40625 
L 21 12.40625 
L 21 0 
L 10.6875 0 
z
" id="DejaVuSans-46"/>
      </defs>
      <g transform="translate(79.408438 322.182437)scale(0.1 -0.1)">
       <use xlink:href="#DejaVuSans-48"/>
       <use x="63.623047" xlink:href="#DejaVuSans-46"/>
       <use x="95.410156" xlink:href="#DejaVuSans-48"/>
      </g>
     </g>
    </g>
    <g id="xtick_2">
     <g id="line2d_2">
      <g>
       <use style="stroke:#000000;stroke-width:0.8;" x="146.88" xlink:href="#mada37b8a21" y="307.584"/>
      </g>
     </g>
     <g id="text_2">
      <!-- 0.2 -->
      <defs>
       <path d="M 19.1875 8.296875 
L 53.609375 8.296875 
L 53.609375 0 
L 7.328125 0 
L 7.328125 8.296875 
Q 12.9375 14.109375 22.625 23.890625 
Q 32.328125 33.6875 34.8125 36.53125 
Q 39.546875 41.84375 41.421875 45.53125 
Q 43.3125 49.21875 43.3125 52.78125 
Q 43.3125 58.59375 39.234375 62.25 
Q 35.15625 65.921875 28.609375 65.921875 
Q 23.96875 65.921875 18.8125 64.3125 
Q 13.671875 62.703125 7.8125 59.421875 
L 7.8125 69.390625 
Q 13.765625 71.78125 18.9375 73 
Q 24.125 74.21875 28.421875 74.21875 
Q 39.75 74.21875 46.484375 68.546875 
Q 53.21875 62.890625 53.21875 53.421875 
Q 53.21875 48.921875 51.53125 44.890625 
Q 49.859375 40.875 45.40625 35.40625 
Q 44.1875 33.984375 37.640625 27.21875 
Q 31.109375 20.453125 19.1875 8.296875 
z
" id="DejaVuSans-50"/>
      </defs>
      <g transform="translate(138.928438 322.182437)scale(0.1 -0.1)">
       <use xlink:href="#DejaVuSans-48"/>
       <use x="63.623047" xlink:href="#DejaVuSans-46"/>
       <use x="95.410156" xlink:href="#DejaVuSans-50"/>
      </g>
     </g>
    </g>
    <g id="xtick_3">
     <g id="line2d_3">
      <g>
       <use style="stroke:#000000;stroke-width:0.8;" x="206.4" xlink:href="#mada37b8a21" y="307.584"/>
      </g>
     </g>
     <g id="text_3">
      <!-- 0.4 -->
      <defs>
       <path d="M 37.796875 64.3125 
L 12.890625 25.390625 
L 37.796875 25.390625 
z
M 35.203125 72.90625 
L 47.609375 72.90625 
L 47.609375 25.390625 
L 58.015625 25.390625 
L 58.015625 17.1875 
L 47.609375 17.1875 
L 47.609375 0 
L 37.796875 0 
L 37.796875 17.1875 
L 4.890625 17.1875 
L 4.890625 26.703125 
z
" id="DejaVuSans-52"/>
      </defs>
      <g transform="translate(198.448438 322.182437)scale(0.1 -0.1)">
       <use xlink:href="#DejaVuSans-48"/>
       <use x="63.623047" xlink:href="#DejaVuSans-46"/>
       <use x="95.410156" xlink:href="#DejaVuSans-52"/>
      </g>
     </g>
    </g>
    <g id="xtick_4">
     <g id="line2d_4">
      <g>
       <use style="stroke:#000000;stroke-width:0.8;" x="265.92" xlink:href="#mada37b8a21" y="307.584"/>
      </g>
     </g>
     <g id="text_4">
      <!-- 0.6 -->
      <defs>
       <path d="M 33.015625 40.375 
Q 26.375 40.375 22.484375 35.828125 
Q 18.609375 31.296875 18.609375 23.390625 
Q 18.609375 15.53125 22.484375 10.953125 
Q 26.375 6.390625 33.015625 6.390625 
Q 39.65625 6.390625 43.53125 10.953125 
Q 47.40625 15.53125 47.40625 23.390625 
Q 47.40625 31.296875 43.53125 35.828125 
Q 39.65625 40.375 33.015625 40.375 
z
M 52.59375 71.296875 
L 52.59375 62.3125 
Q 48.875 64.0625 45.09375 64.984375 
Q 41.3125 65.921875 37.59375 65.921875 
Q 27.828125 65.921875 22.671875 59.328125 
Q 17.53125 52.734375 16.796875 39.40625 
Q 19.671875 43.65625 24.015625 45.921875 
Q 28.375 48.1875 33.59375 48.1875 
Q 44.578125 48.1875 50.953125 41.515625 
Q 57.328125 34.859375 57.328125 23.390625 
Q 57.328125 12.15625 50.6875 5.359375 
Q 44.046875 -1.421875 33.015625 -1.421875 
Q 20.359375 -1.421875 13.671875 8.265625 
Q 6.984375 17.96875 6.984375 36.375 
Q 6.984375 53.65625 15.1875 63.9375 
Q 23.390625 74.21875 37.203125 74.21875 
Q 40.921875 74.21875 44.703125 73.484375 
Q 48.484375 72.75 52.59375 71.296875 
z
" id="DejaVuSans-54"/>
      </defs>
      <g transform="translate(257.968437 322.182437)scale(0.1 -0.1)">
       <use xlink:href="#DejaVuSans-48"/>
       <use x="63.623047" xlink:href="#DejaVuSans-46"/>
       <use x="95.410156" xlink:href="#DejaVuSans-54"/>
      </g>
     </g>
    </g>
    <g id="xtick_5">
     <g id="line2d_5">
      <g>
       <use style="stroke:#000000;stroke-width:0.8;" x="325.44" xlink:href="#mada37b8a21" y="307.584"/>
      </g>
     </g>
     <g id="text_5">
      <!-- 0.8 -->
      <defs>
       <path d="M 31.78125 34.625 
Q 24.75 34.625 20.71875 30.859375 
Q 16.703125 27.09375 16.703125 20.515625 
Q 16.703125 13.921875 20.71875 10.15625 
Q 24.75 6.390625 31.78125 6.390625 
Q 38.8125 6.390625 42.859375 10.171875 
Q 46.921875 13.96875 46.921875 20.515625 
Q 46.921875 27.09375 42.890625 30.859375 
Q 38.875 34.625 31.78125 34.625 
z
M 21.921875 38.8125 
Q 15.578125 40.375 12.03125 44.71875 
Q 8.5 49.078125 8.5 55.328125 
Q 8.5 64.0625 14.71875 69.140625 
Q 20.953125 74.21875 31.78125 74.21875 
Q 42.671875 74.21875 48.875 69.140625 
Q 55.078125 64.0625 55.078125 55.328125 
Q 55.078125 49.078125 51.53125 44.71875 
Q 48 40.375 41.703125 38.8125 
Q 48.828125 37.15625 52.796875 32.3125 
Q 56.78125 27.484375 56.78125 20.515625 
Q 56.78125 9.90625 50.3125 4.234375 
Q 43.84375 -1.421875 31.78125 -1.421875 
Q 19.734375 -1.421875 13.25 4.234375 
Q 6.78125 9.90625 6.78125 20.515625 
Q 6.78125 27.484375 10.78125 32.3125 
Q 14.796875 37.15625 21.921875 38.8125 
z
M 18.3125 54.390625 
Q 18.3125 48.734375 21.84375 45.5625 
Q 25.390625 42.390625 31.78125 42.390625 
Q 38.140625 42.390625 41.71875 45.5625 
Q 45.3125 48.734375 45.3125 54.390625 
Q 45.3125 60.0625 41.71875 63.234375 
Q 38.140625 66.40625 31.78125 66.40625 
Q 25.390625 66.40625 21.84375 63.234375 
Q 18.3125 60.0625 18.3125 54.390625 
z
" id="DejaVuSans-56"/>
      </defs>
      <g transform="translate(317.488437 322.182437)scale(0.1 -0.1)">
       <use xlink:href="#DejaVuSans-48"/>
       <use x="63.623047" xlink:href="#DejaVuSans-46"/>
       <use x="95.410156" xlink:href="#DejaVuSans-56"/>
      </g>
     </g>
    </g>
    <g id="xtick_6">
     <g id="line2d_6">
      <g>
       <use style="stroke:#000000;stroke-width:0.8;" x="384.96" xlink:href="#mada37b8a21" y="307.584"/>
      </g>
     </g>
     <g id="text_6">
      <!-- 1.0 -->
      <defs>
       <path d="M 12.40625 8.296875 
L 28.515625 8.296875 
L 28.515625 63.921875 
L 10.984375 60.40625 
L 10.984375 69.390625 
L 28.421875 72.90625 
L 38.28125 72.90625 
L 38.28125 8.296875 
L 54.390625 8.296875 
L 54.390625 0 
L 12.40625 0 
z
" id="DejaVuSans-49"/>
      </defs>
      <g transform="translate(377.008438 322.182437)scale(0.1 -0.1)">
       <use xlink:href="#DejaVuSans-49"/>
       <use x="63.623047" xlink:href="#DejaVuSans-46"/>
       <use x="95.410156" xlink:href="#DejaVuSans-48"/>
      </g>
     </g>
    </g>
   </g>
   <g id="matplotlib.axis_2">
    <g id="ytick_1">
     <g id="line2d_7">
      <defs>
       <path d="M 0 0 
L -3.5 0 
" id="md2a2736d24" style="stroke:#000000;stroke-width:0.8;"/>
      </defs>
      <g>
       <use style="stroke:#000000;stroke-width:0.8;" x="57.6" xlink:href="#md2a2736d24" y="275.540548"/>
      </g>
     </g>
     <g id="text_7">
      <!-- −0.6 -->
      <defs>
       <path d="M 10.59375 35.5 
L 73.1875 35.5 
L 73.1875 27.203125 
L 10.59375 27.203125 
z
" id="DejaVuSans-8722"/>
      </defs>
      <g transform="translate(26.317187 279.339767)scale(0.1 -0.1)">
       <use xlink:href="#DejaVuSans-8722"/>
       <use x="83.789062" xlink:href="#DejaVuSans-48"/>
       <use x="147.412109" xlink:href="#DejaVuSans-46"/>
       <use x="179.199219" xlink:href="#DejaVuSans-54"/>
      </g>
     </g>
    </g>
    <g id="ytick_2">
     <g id="line2d_8">
      <g>
       <use style="stroke:#000000;stroke-width:0.8;" x="57.6" xlink:href="#md2a2736d24" y="231.451171"/>
      </g>
     </g>
     <g id="text_8">
      <!-- −0.5 -->
      <defs>
       <path d="M 10.796875 72.90625 
L 49.515625 72.90625 
L 49.515625 64.59375 
L 19.828125 64.59375 
L 19.828125 46.734375 
Q 21.96875 47.46875 24.109375 47.828125 
Q 26.265625 48.1875 28.421875 48.1875 
Q 40.625 48.1875 47.75 41.5 
Q 54.890625 34.8125 54.890625 23.390625 
Q 54.890625 11.625 47.5625 5.09375 
Q 40.234375 -1.421875 26.90625 -1.421875 
Q 22.3125 -1.421875 17.546875 -0.640625 
Q 12.796875 0.140625 7.71875 1.703125 
L 7.71875 11.625 
Q 12.109375 9.234375 16.796875 8.0625 
Q 21.484375 6.890625 26.703125 6.890625 
Q 35.15625 6.890625 40.078125 11.328125 
Q 45.015625 15.765625 45.015625 23.390625 
Q 45.015625 31 40.078125 35.4375 
Q 35.15625 39.890625 26.703125 39.890625 
Q 22.75 39.890625 18.8125 39.015625 
Q 14.890625 38.140625 10.796875 36.28125 
z
" id="DejaVuSans-53"/>
      </defs>
      <g transform="translate(26.317187 235.25039)scale(0.1 -0.1)">
       <use xlink:href="#DejaVuSans-8722"/>
       <use x="83.789062" xlink:href="#DejaVuSans-48"/>
       <use x="147.412109" xlink:href="#DejaVuSans-46"/>
       <use x="179.199219" xlink:href="#DejaVuSans-53"/>
      </g>
     </g>
    </g>
    <g id="ytick_3">
     <g id="line2d_9">
      <g>
       <use style="stroke:#000000;stroke-width:0.8;" x="57.6" xlink:href="#md2a2736d24" y="187.361794"/>
      </g>
     </g>
     <g id="text_9">
      <!-- −0.4 -->
      <g transform="translate(26.317187 191.161012)scale(0.1 -0.1)">
       <use xlink:href="#DejaVuSans-8722"/>
       <use x="83.789062" xlink:href="#DejaVuSans-48"/>
       <use x="147.412109" xlink:href="#DejaVuSans-46"/>
       <use x="179.199219" xlink:href="#DejaVuSans-52"/>
      </g>
     </g>
    </g>
    <g id="ytick_4">
     <g id="line2d_10">
      <g>
       <use style="stroke:#000000;stroke-width:0.8;" x="57.6" xlink:href="#md2a2736d24" y="143.272416"/>
      </g>
     </g>
     <g id="text_10">
      <!-- −0.3 -->
      <defs>
       <path d="M 40.578125 39.3125 
Q 47.65625 37.796875 51.625 33 
Q 55.609375 28.21875 55.609375 21.1875 
Q 55.609375 10.40625 48.1875 4.484375 
Q 40.765625 -1.421875 27.09375 -1.421875 
Q 22.515625 -1.421875 17.65625 -0.515625 
Q 12.796875 0.390625 7.625 2.203125 
L 7.625 11.71875 
Q 11.71875 9.328125 16.59375 8.109375 
Q 21.484375 6.890625 26.8125 6.890625 
Q 36.078125 6.890625 40.9375 10.546875 
Q 45.796875 14.203125 45.796875 21.1875 
Q 45.796875 27.640625 41.28125 31.265625 
Q 36.765625 34.90625 28.71875 34.90625 
L 20.21875 34.90625 
L 20.21875 43.015625 
L 29.109375 43.015625 
Q 36.375 43.015625 40.234375 45.921875 
Q 44.09375 48.828125 44.09375 54.296875 
Q 44.09375 59.90625 40.109375 62.90625 
Q 36.140625 65.921875 28.71875 65.921875 
Q 24.65625 65.921875 20.015625 65.03125 
Q 15.375 64.15625 9.8125 62.3125 
L 9.8125 71.09375 
Q 15.4375 72.65625 20.34375 73.4375 
Q 25.25 74.21875 29.59375 74.21875 
Q 40.828125 74.21875 47.359375 69.109375 
Q 53.90625 64.015625 53.90625 55.328125 
Q 53.90625 49.265625 50.4375 45.09375 
Q 46.96875 40.921875 40.578125 39.3125 
z
" id="DejaVuSans-51"/>
      </defs>
      <g transform="translate(26.317187 147.071635)scale(0.1 -0.1)">
       <use xlink:href="#DejaVuSans-8722"/>
       <use x="83.789062" xlink:href="#DejaVuSans-48"/>
       <use x="147.412109" xlink:href="#DejaVuSans-46"/>
       <use x="179.199219" xlink:href="#DejaVuSans-51"/>
      </g>
     </g>
    </g>
    <g id="ytick_5">
     <g id="line2d_11">
      <g>
       <use style="stroke:#000000;stroke-width:0.8;" x="57.6" xlink:href="#md2a2736d24" y="99.183039"/>
      </g>
     </g>
     <g id="text_11">
      <!-- −0.2 -->
      <g transform="translate(26.317187 102.982258)scale(0.1 -0.1)">
       <use xlink:href="#DejaVuSans-8722"/>
       <use x="83.789062" xlink:href="#DejaVuSans-48"/>
       <use x="147.412109" xlink:href="#DejaVuSans-46"/>
       <use x="179.199219" xlink:href="#DejaVuSans-50"/>
      </g>
     </g>
    </g>
    <g id="ytick_6">
     <g id="line2d_12">
      <g>
       <use style="stroke:#000000;stroke-width:0.8;" x="57.6" xlink:href="#md2a2736d24" y="55.093662"/>
      </g>
     </g>
     <g id="text_12">
      <!-- −0.1 -->
      <g transform="translate(26.317187 58.89288)scale(0.1 -0.1)">
       <use xlink:href="#DejaVuSans-8722"/>
       <use x="83.789062" xlink:href="#DejaVuSans-48"/>
       <use x="147.412109" xlink:href="#DejaVuSans-46"/>
       <use x="179.199219" xlink:href="#DejaVuSans-49"/>
      </g>
     </g>
    </g>
   </g>
   <g id="line2d_13">
    <path clip-path="url(#pb115bf5757)" d="M 87.36 68.386812 
L 90.336 106.06375 
L 91.824 124.88436 
L 93.312 141.390354 
L 94.8 154.090006 
L 96.288 162.04297 
L 97.776 165.00835 
L 99.264 163.415697 
L 100.752 158.197869 
L 102.24 150.563805 
L 105.216 133.022431 
L 106.704 125.250112 
L 108.192 119.198403 
L 109.68 115.370524 
L 111.168 114.060973 
L 112.656 115.363805 
L 114.144 119.158985 
L 115.632 125.09009 
L 117.12 132.560166 
L 120.096 148.79229 
L 121.584 155.712861 
L 123.072 160.757325 
L 124.56 163.442912 
L 126.048 163.680669 
L 127.536 161.804002 
L 129.024 158.50294 
L 130.512 154.676545 
L 132 151.241469 
L 133.488 148.944747 
L 134.976 148.226059 
L 136.464 149.161221 
L 137.952 151.494305 
L 139.44 154.737963 
L 142.416 161.627887 
L 143.904 164.254487 
L 145.392 165.881194 
L 146.88 166.352792 
L 148.368 165.630041 
L 149.856 163.752198 
L 151.344 160.81051 
L 152.832 156.937929 
L 154.32 152.309687 
L 157.296 141.698754 
L 160.272 131.075053 
L 161.76 126.427385 
L 163.248 122.520377 
L 164.736 119.521634 
L 166.224 117.556752 
L 167.712 116.716753 
L 169.2 117.06181 
L 170.688 118.618222 
L 172.176 121.372401 
L 173.664 125.268983 
L 175.152 130.21727 
L 176.64 136.103788 
L 178.128 142.804698 
L 181.104 158.140501 
L 184.08 175.18819 
L 190.032 210.29378 
L 193.008 226.620523 
L 195.984 241.335496 
L 197.472 247.962581 
L 198.96 254.053343 
L 200.448 259.585771 
L 201.936 264.551045 
L 203.424 268.950727 
L 204.912 272.792225 
L 206.4 276.085653 
L 207.888 278.84377 
L 209.376 281.083831 
L 210.864 282.828633 
L 212.352 284.105155 
L 213.84 284.941795 
L 215.328 285.366619 
L 216.816 285.408 
L 218.304 285.096656 
L 219.792 284.466699 
L 221.28 283.554152 
L 222.768 282.393561 
L 224.256 281.014889 
L 225.744 279.44263 
L 228.72 275.798999 
L 231.696 271.627249 
L 236.16 264.764143 
L 246.576 248.311617 
L 251.04 241.775562 
L 254.016 237.725855 
L 256.992 233.967215 
L 259.968 230.523133 
L 262.944 227.406549 
L 265.92 224.62352 
L 268.896 222.170793 
L 271.872 220.041757 
L 274.848 218.235019 
L 277.824 216.743873 
L 280.8 215.545138 
L 283.776 214.612621 
L 286.752 213.932151 
L 289.728 213.497918 
L 292.704 213.305379 
L 295.68 213.343524 
L 298.656 213.581566 
L 303.12 214.208996 
L 307.584 215.061252 
L 312.048 216.13306 
L 316.512 217.441921 
L 322.464 219.440483 
L 334.368 223.727751 
L 356.688 232.050951 
L 370.08 237.664897 
L 373.056 239.11202 
L 376.032 240.993803 
L 381.984 245.444394 
L 383.472 246.305581 
L 384.96 246.914959 
L 384.96 246.914959 
" style="fill:none;stroke:#333333;stroke-linecap:square;stroke-width:1.5;"/>
   </g>
   <g id="line2d_14">
    <path clip-path="url(#pb115bf5757)" d="M 87.36 68.386808 
L 94.8 154.090011 
L 105.216 133.02243 
L 114.144 119.158983 
L 124.56 163.442915 
L 133.488 148.944745 
L 142.416 161.627888 
L 152.832 156.937929 
L 161.76 126.427384 
L 170.688 118.618221 
L 179.616 150.193058 
L 190.032 210.293781 
L 198.96 254.053343 
L 207.888 278.84377 
L 216.816 285.408 
L 227.232 277.697441 
L 236.16 264.764143 
L 245.088 250.589875 
L 255.504 235.808354 
L 264.432 225.973319 
L 274.848 218.235019 
L 285.264 214.241327 
L 294.192 213.296963 
L 312.048 216.13306 
L 320.976 218.924386 
L 329.904 222.094931 
L 338.832 225.388887 
L 347.76 228.698991 
L 358.176 232.66732 
L 367.104 236.438533 
L 376.032 240.993803 
L 384.96 246.914959 
" style="fill:none;stroke:#666666;stroke-linecap:square;stroke-width:1.5;"/>
    <defs>
     <path d="M 0 3 
C 0.795609 3 1.55874 2.683901 2.12132 2.12132 
C 2.683901 1.55874 3 0.795609 3 0 
C 3 -0.795609 2.683901 -1.55874 2.12132 -2.12132 
C 1.55874 -2.683901 0.795609 -3 0 -3 
C -0.795609 -3 -1.55874 -2.683901 -2.12132 -2.12132 
C -2.683901 -1.55874 -3 -0.795609 -3 0 
C -3 0.795609 -2.683901 1.55874 -2.12132 2.12132 
C -1.55874 2.683901 -0.795609 3 0 3 
z
" id="m51ff277c6d" style="stroke:#666666;"/>
    </defs>
    <g clip-path="url(#pb115bf5757)">
     <use style="fill:#666666;stroke:#666666;" x="87.36" xlink:href="#m51ff277c6d" y="68.386808"/>
     <use style="fill:#666666;stroke:#666666;" x="94.8" xlink:href="#m51ff277c6d" y="154.090011"/>
     <use style="fill:#666666;stroke:#666666;" x="105.216" xlink:href="#m51ff277c6d" y="133.02243"/>
     <use style="fill:#666666;stroke:#666666;" x="114.144" xlink:href="#m51ff277c6d" y="119.158983"/>
     <use style="fill:#666666;stroke:#666666;" x="124.56" xlink:href="#m51ff277c6d" y="163.442915"/>
     <use style="fill:#666666;stroke:#666666;" x="133.488" xlink:href="#m51ff277c6d" y="148.944745"/>
     <use style="fill:#666666;stroke:#666666;" x="142.416" xlink:href="#m51ff277c6d" y="161.627888"/>
     <use style="fill:#666666;stroke:#666666;" x="152.832" xlink:href="#m51ff277c6d" y="156.937929"/>
     <use style="fill:#666666;stroke:#666666;" x="161.76" xlink:href="#m51ff277c6d" y="126.427384"/>
     <use style="fill:#666666;stroke:#666666;" x="170.688" xlink:href="#m51ff277c6d" y="118.618221"/>
     <use style="fill:#666666;stroke:#666666;" x="179.616" xlink:href="#m51ff277c6d" y="150.193058"/>
     <use style="fill:#666666;stroke:#666666;" x="190.032" xlink:href="#m51ff277c6d" y="210.293781"/>
     <use style="fill:#666666;stroke:#666666;" x="198.96" xlink:href="#m51ff277c6d" y="254.053343"/>
     <use style="fill:#666666;stroke:#666666;" x="207.888" xlink:href="#m51ff277c6d" y="278.84377"/>
     <use style="fill:#666666;stroke:#666666;" x="216.816" xlink:href="#m51ff277c6d" y="285.408"/>
     <use style="fill:#666666;stroke:#666666;" x="227.232" xlink:href="#m51ff277c6d" y="277.697441"/>
     <use style="fill:#666666;stroke:#666666;" x="236.16" xlink:href="#m51ff277c6d" y="264.764143"/>
     <use style="fill:#666666;stroke:#666666;" x="245.088" xlink:href="#m51ff277c6d" y="250.589875"/>
     <use style="fill:#666666;stroke:#666666;" x="255.504" xlink:href="#m51ff277c6d" y="235.808354"/>
     <use style="fill:#666666;stroke:#666666;" x="264.432" xlink:href="#m51ff277c6d" y="225.973319"/>
     <use style="fill:#666666;stroke:#666666;" x="274.848" xlink:href="#m51ff277c6d" y="218.235019"/>
     <use style="fill:#666666;stroke:#666666;" x="285.264" xlink:href="#m51ff277c6d" y="214.241327"/>
     <use style="fill:#666666;stroke:#666666;" x="294.192" xlink:href="#m51ff277c6d" y="213.296963"/>
     <use style="fill:#666666;stroke:#666666;" x="312.048" xlink:href="#m51ff277c6d" y="216.13306"/>
     <use style="fill:#666666;stroke:#666666;" x="320.976" xlink:href="#m51ff277c6d" y="218.924386"/>
     <use style="fill:#666666;stroke:#666666;" x="329.904" xlink:href="#m51ff277c6d" y="222.094931"/>
     <use style="fill:#666666;stroke:#666666;" x="338.832" xlink:href="#m51ff277c6d" y="225.388887"/>
     <use style="fill:#666666;stroke:#666666;" x="347.76" xlink:href="#m51ff277c6d" y="228.698991"/>
     <use style="fill:#666666;stroke:#666666;" x="358.176" xlink:href="#m51ff277c6d" y="232.66732"/>
     <use style="fill:#666666;stroke:#666666;" x="367.104" xlink:href="#m51ff277c6d" y="236.438533"/>
     <use style="fill:#666666;stroke:#666666;" x="376.032" xlink:href="#m51ff277c6d" y="240.993803"/>
     <use style="fill:#666666;stroke:#666666;" x="384.96" xlink:href="#m51ff277c6d" y="246.914959"/>
    </g>
   </g>
   <g id="line2d_15">
    <path clip-path="url(#pb115bf5757)" d="M 87.36 68.386808 
L 88.848 63.648 
L 90.336 74.659995 
L 91.824 97.463302 
L 94.8 154.090011 
L 96.288 176.147546 
L 97.776 188.806834 
L 99.264 190.930267 
L 100.752 183.506632 
L 102.24 169.10037 
L 105.216 133.02243 
L 106.704 117.790473 
L 108.192 107.438272 
L 109.68 102.895959 
L 111.168 104.052274 
L 112.656 109.964789 
L 114.144 119.158983 
L 117.12 140.722975 
L 118.608 150.163556 
L 120.096 157.374917 
L 121.584 161.928137 
L 123.072 163.830714 
L 124.56 163.442915 
L 126.048 161.363643 
L 127.536 158.30758 
L 129.024 154.991422 
L 130.512 152.041703 
L 132 149.931065 
L 133.488 148.944745 
L 134.976 149.175029 
L 136.464 150.538638 
L 137.952 152.810552 
L 140.928 158.734008 
L 142.416 161.627888 
L 143.904 163.997552 
L 145.392 165.552338 
L 146.88 166.082488 
L 148.368 165.469518 
L 149.856 163.687734 
L 151.344 160.798343 
L 152.832 156.937929 
L 154.32 152.303156 
L 157.296 141.693275 
L 160.272 131.084617 
L 161.76 126.427384 
L 163.248 122.499517 
L 164.736 119.480315 
L 166.224 117.508046 
L 167.712 116.678194 
L 169.2 117.043905 
L 170.688 118.618221 
L 172.176 121.377691 
L 173.664 125.266952 
L 175.152 130.203908 
L 176.64 136.085175 
L 178.128 142.791518 
L 181.104 158.154081 
L 184.08 175.207797 
L 190.032 210.293781 
L 193.008 226.630863 
L 195.984 241.342749 
L 197.472 247.964664 
L 198.96 254.053343 
L 200.448 259.588647 
L 201.936 264.559561 
L 203.424 268.963226 
L 204.912 272.80395 
L 206.4 276.092223 
L 207.888 278.84377 
L 209.376 281.078648 
L 210.864 282.820407 
L 212.352 284.095309 
L 213.84 284.93163 
L 215.328 285.35903 
L 216.816 285.408 
L 218.304 285.109375 
L 219.792 284.493926 
L 221.28 283.592006 
L 222.768 282.433265 
L 224.256 281.046413 
L 225.744 279.459032 
L 228.72 275.786586 
L 231.696 271.609637 
L 236.16 264.764143 
L 246.576 248.307645 
L 251.04 241.769017 
L 254.016 237.723759 
L 256.992 233.968658 
L 259.968 230.525594 
L 262.944 227.407928 
L 265.92 224.621927 
L 268.896 222.168009 
L 271.872 220.041796 
L 274.848 218.235019 
L 277.824 216.736279 
L 280.8 215.531693 
L 283.776 214.605439 
L 286.752 213.940221 
L 289.728 213.517672 
L 292.704 213.318699 
L 295.68 213.323786 
L 298.656 213.513272 
L 301.632 213.867586 
L 306.096 214.666146 
L 310.56 215.729832 
L 315.024 217.000155 
L 320.976 218.924386 
L 329.904 222.094931 
L 353.712 230.935994 
L 361.152 233.866976 
L 367.104 236.438533 
L 371.568 238.585221 
L 376.032 240.993803 
L 380.496 243.741768 
L 383.472 245.804367 
L 384.96 246.914959 
L 384.96 246.914959 
" style="fill:none;stroke:#000000;stroke-linecap:square;stroke-width:1.5;"/>
   </g>
   <g id="line2d_16">
    <path clip-path="url(#pb115bf5757)" d="M 338.832 225.388887 
L 338.832 225.388887 
" style="fill:none;stroke:#ff00ff;stroke-linecap:square;stroke-width:1.5;"/>
    <defs>
     <path d="M 0 3 
C 0.795609 3 1.55874 2.683901 2.12132 2.12132 
C 2.683901 1.55874 3 0.795609 3 0 
C 3 -0.795609 2.683901 -1.55874 2.12132 -2.12132 
C 1.55874 -2.683901 0.795609 -3 0 -3 
C -0.795609 -3 -1.55874 -2.683901 -2.12132 -2.12132 
C -2.683901 -1.55874 -3 -0.795609 -3 0 
C -3 0.795609 -2.683901 1.55874 -2.12132 2.12132 
C -1.55874 2.683901 -0.795609 3 0 3 
z
" id="me03a7814e5" style="stroke:#ff00ff;"/>
    </defs>
    <g clip-path="url(#pb115bf5757)">
     <use style="fill:#ff00ff;stroke:#ff00ff;" x="338.832" xlink:href="#me03a7814e5" y="225.388887"/>
     <use style="fill:#ff00ff;stroke:#ff00ff;" x="338.832" xlink:href="#me03a7814e5" y="225.388887"/>
    </g>
   </g>
   <g id="patch_3">
    <path d="M 57.6 307.584 
L 57.6 41.472 
" style="fill:none;stroke:#000000;stroke-linecap:square;stroke-linejoin:miter;stroke-width:0.8;"/>
   </g>
   <g id="patch_4">
    <path d="M 414.72 307.584 
L 414.72 41.472 
" style="fill:none;stroke:#000000;stroke-linecap:square;stroke-linejoin:miter;stroke-width:0.8;"/>
   </g>
   <g id="patch_5">
    <path d="M 57.6 307.584 
L 414.72 307.584 
" style="fill:none;stroke:#000000;stroke-linecap:square;stroke-linejoin:miter;stroke-width:0.8;"/>
   </g>
   <g id="patch_6">
    <path d="M 57.6 41.472 
L 414.72 41.472 
" style="fill:none;stroke:#000000;stroke-linecap:square;stroke-linejoin:miter;stroke-width:0.8;"/>
   </g>
   <g id="legend_1">
    <g id="patch_7">
     <path d="M 279.791875 122.8845 
L 407.72 122.8845 
Q 409.72 122.8845 409.72 120.8845 
L 409.72 48.472 
Q 409.72 46.472 407.72 46.472 
L 279.791875 46.472 
Q 277.791875 46.472 277.791875 48.472 
L 277.791875 120.8845 
Q 277.791875 122.8845 279.791875 122.8845 
z
" style="fill:#ffffff;opacity:0.8;stroke:#cccccc;stroke-linejoin:miter;"/>
    </g>
    <g id="line2d_17">
     <path d="M 281.791875 54.570438 
L 301.791875 54.570438 
" style="fill:none;stroke:#333333;stroke-linecap:square;stroke-width:1.5;"/>
    </g>
    <g id="line2d_18"/>
    <g id="text_13">
     <!-- GP predicted mean -->
     <defs>
      <path d="M 59.515625 10.40625 
L 59.515625 29.984375 
L 43.40625 29.984375 
L 43.40625 38.09375 
L 69.28125 38.09375 
L 69.28125 6.78125 
Q 63.578125 2.734375 56.6875 0.65625 
Q 49.8125 -1.421875 42 -1.421875 
Q 24.90625 -1.421875 15.25 8.5625 
Q 5.609375 18.5625 5.609375 36.375 
Q 5.609375 54.25 15.25 64.234375 
Q 24.90625 74.21875 42 74.21875 
Q 49.125 74.21875 55.546875 72.453125 
Q 61.96875 70.703125 67.390625 67.28125 
L 67.390625 56.78125 
Q 61.921875 61.421875 55.765625 63.765625 
Q 49.609375 66.109375 42.828125 66.109375 
Q 29.4375 66.109375 22.71875 58.640625 
Q 16.015625 51.171875 16.015625 36.375 
Q 16.015625 21.625 22.71875 14.15625 
Q 29.4375 6.6875 42.828125 6.6875 
Q 48.046875 6.6875 52.140625 7.59375 
Q 56.25 8.5 59.515625 10.40625 
z
" id="DejaVuSans-71"/>
      <path d="M 19.671875 64.796875 
L 19.671875 37.40625 
L 32.078125 37.40625 
Q 38.96875 37.40625 42.71875 40.96875 
Q 46.484375 44.53125 46.484375 51.125 
Q 46.484375 57.671875 42.71875 61.234375 
Q 38.96875 64.796875 32.078125 64.796875 
z
M 9.8125 72.90625 
L 32.078125 72.90625 
Q 44.34375 72.90625 50.609375 67.359375 
Q 56.890625 61.8125 56.890625 51.125 
Q 56.890625 40.328125 50.609375 34.8125 
Q 44.34375 29.296875 32.078125 29.296875 
L 19.671875 29.296875 
L 19.671875 0 
L 9.8125 0 
z
" id="DejaVuSans-80"/>
      <path id="DejaVuSans-32"/>
      <path d="M 18.109375 8.203125 
L 18.109375 -20.796875 
L 9.078125 -20.796875 
L 9.078125 54.6875 
L 18.109375 54.6875 
L 18.109375 46.390625 
Q 20.953125 51.265625 25.265625 53.625 
Q 29.59375 56 35.59375 56 
Q 45.5625 56 51.78125 48.09375 
Q 58.015625 40.1875 58.015625 27.296875 
Q 58.015625 14.40625 51.78125 6.484375 
Q 45.5625 -1.421875 35.59375 -1.421875 
Q 29.59375 -1.421875 25.265625 0.953125 
Q 20.953125 3.328125 18.109375 8.203125 
z
M 48.6875 27.296875 
Q 48.6875 37.203125 44.609375 42.84375 
Q 40.53125 48.484375 33.40625 48.484375 
Q 26.265625 48.484375 22.1875 42.84375 
Q 18.109375 37.203125 18.109375 27.296875 
Q 18.109375 17.390625 22.1875 11.75 
Q 26.265625 6.109375 33.40625 6.109375 
Q 40.53125 6.109375 44.609375 11.75 
Q 48.6875 17.390625 48.6875 27.296875 
z
" id="DejaVuSans-112"/>
      <path d="M 41.109375 46.296875 
Q 39.59375 47.171875 37.8125 47.578125 
Q 36.03125 48 33.890625 48 
Q 26.265625 48 22.1875 43.046875 
Q 18.109375 38.09375 18.109375 28.8125 
L 18.109375 0 
L 9.078125 0 
L 9.078125 54.6875 
L 18.109375 54.6875 
L 18.109375 46.1875 
Q 20.953125 51.171875 25.484375 53.578125 
Q 30.03125 56 36.53125 56 
Q 37.453125 56 38.578125 55.875 
Q 39.703125 55.765625 41.0625 55.515625 
z
" id="DejaVuSans-114"/>
      <path d="M 56.203125 29.59375 
L 56.203125 25.203125 
L 14.890625 25.203125 
Q 15.484375 15.921875 20.484375 11.0625 
Q 25.484375 6.203125 34.421875 6.203125 
Q 39.59375 6.203125 44.453125 7.46875 
Q 49.3125 8.734375 54.109375 11.28125 
L 54.109375 2.78125 
Q 49.265625 0.734375 44.1875 -0.34375 
Q 39.109375 -1.421875 33.890625 -1.421875 
Q 20.796875 -1.421875 13.15625 6.1875 
Q 5.515625 13.8125 5.515625 26.8125 
Q 5.515625 40.234375 12.765625 48.109375 
Q 20.015625 56 32.328125 56 
Q 43.359375 56 49.78125 48.890625 
Q 56.203125 41.796875 56.203125 29.59375 
z
M 47.21875 32.234375 
Q 47.125 39.59375 43.09375 43.984375 
Q 39.0625 48.390625 32.421875 48.390625 
Q 24.90625 48.390625 20.390625 44.140625 
Q 15.875 39.890625 15.1875 32.171875 
z
" id="DejaVuSans-101"/>
      <path d="M 45.40625 46.390625 
L 45.40625 75.984375 
L 54.390625 75.984375 
L 54.390625 0 
L 45.40625 0 
L 45.40625 8.203125 
Q 42.578125 3.328125 38.25 0.953125 
Q 33.9375 -1.421875 27.875 -1.421875 
Q 17.96875 -1.421875 11.734375 6.484375 
Q 5.515625 14.40625 5.515625 27.296875 
Q 5.515625 40.1875 11.734375 48.09375 
Q 17.96875 56 27.875 56 
Q 33.9375 56 38.25 53.625 
Q 42.578125 51.265625 45.40625 46.390625 
z
M 14.796875 27.296875 
Q 14.796875 17.390625 18.875 11.75 
Q 22.953125 6.109375 30.078125 6.109375 
Q 37.203125 6.109375 41.296875 11.75 
Q 45.40625 17.390625 45.40625 27.296875 
Q 45.40625 37.203125 41.296875 42.84375 
Q 37.203125 48.484375 30.078125 48.484375 
Q 22.953125 48.484375 18.875 42.84375 
Q 14.796875 37.203125 14.796875 27.296875 
z
" id="DejaVuSans-100"/>
      <path d="M 9.421875 54.6875 
L 18.40625 54.6875 
L 18.40625 0 
L 9.421875 0 
z
M 9.421875 75.984375 
L 18.40625 75.984375 
L 18.40625 64.59375 
L 9.421875 64.59375 
z
" id="DejaVuSans-105"/>
      <path d="M 48.78125 52.59375 
L 48.78125 44.1875 
Q 44.96875 46.296875 41.140625 47.34375 
Q 37.3125 48.390625 33.40625 48.390625 
Q 24.65625 48.390625 19.8125 42.84375 
Q 14.984375 37.3125 14.984375 27.296875 
Q 14.984375 17.28125 19.8125 11.734375 
Q 24.65625 6.203125 33.40625 6.203125 
Q 37.3125 6.203125 41.140625 7.25 
Q 44.96875 8.296875 48.78125 10.40625 
L 48.78125 2.09375 
Q 45.015625 0.34375 40.984375 -0.53125 
Q 36.96875 -1.421875 32.421875 -1.421875 
Q 20.0625 -1.421875 12.78125 6.34375 
Q 5.515625 14.109375 5.515625 27.296875 
Q 5.515625 40.671875 12.859375 48.328125 
Q 20.21875 56 33.015625 56 
Q 37.15625 56 41.109375 55.140625 
Q 45.0625 54.296875 48.78125 52.59375 
z
" id="DejaVuSans-99"/>
      <path d="M 18.3125 70.21875 
L 18.3125 54.6875 
L 36.8125 54.6875 
L 36.8125 47.703125 
L 18.3125 47.703125 
L 18.3125 18.015625 
Q 18.3125 11.328125 20.140625 9.421875 
Q 21.96875 7.515625 27.59375 7.515625 
L 36.8125 7.515625 
L 36.8125 0 
L 27.59375 0 
Q 17.1875 0 13.234375 3.875 
Q 9.28125 7.765625 9.28125 18.015625 
L 9.28125 47.703125 
L 2.6875 47.703125 
L 2.6875 54.6875 
L 9.28125 54.6875 
L 9.28125 70.21875 
z
" id="DejaVuSans-116"/>
      <path d="M 52 44.1875 
Q 55.375 50.25 60.0625 53.125 
Q 64.75 56 71.09375 56 
Q 79.640625 56 84.28125 50.015625 
Q 88.921875 44.046875 88.921875 33.015625 
L 88.921875 0 
L 79.890625 0 
L 79.890625 32.71875 
Q 79.890625 40.578125 77.09375 44.375 
Q 74.3125 48.1875 68.609375 48.1875 
Q 61.625 48.1875 57.5625 43.546875 
Q 53.515625 38.921875 53.515625 30.90625 
L 53.515625 0 
L 44.484375 0 
L 44.484375 32.71875 
Q 44.484375 40.625 41.703125 44.40625 
Q 38.921875 48.1875 33.109375 48.1875 
Q 26.21875 48.1875 22.15625 43.53125 
Q 18.109375 38.875 18.109375 30.90625 
L 18.109375 0 
L 9.078125 0 
L 9.078125 54.6875 
L 18.109375 54.6875 
L 18.109375 46.1875 
Q 21.1875 51.21875 25.484375 53.609375 
Q 29.78125 56 35.6875 56 
Q 41.65625 56 45.828125 52.96875 
Q 50 49.953125 52 44.1875 
z
" id="DejaVuSans-109"/>
      <path d="M 34.28125 27.484375 
Q 23.390625 27.484375 19.1875 25 
Q 14.984375 22.515625 14.984375 16.5 
Q 14.984375 11.71875 18.140625 8.90625 
Q 21.296875 6.109375 26.703125 6.109375 
Q 34.1875 6.109375 38.703125 11.40625 
Q 43.21875 16.703125 43.21875 25.484375 
L 43.21875 27.484375 
z
M 52.203125 31.203125 
L 52.203125 0 
L 43.21875 0 
L 43.21875 8.296875 
Q 40.140625 3.328125 35.546875 0.953125 
Q 30.953125 -1.421875 24.3125 -1.421875 
Q 15.921875 -1.421875 10.953125 3.296875 
Q 6 8.015625 6 15.921875 
Q 6 25.140625 12.171875 29.828125 
Q 18.359375 34.515625 30.609375 34.515625 
L 43.21875 34.515625 
L 43.21875 35.40625 
Q 43.21875 41.609375 39.140625 45 
Q 35.0625 48.390625 27.6875 48.390625 
Q 23 48.390625 18.546875 47.265625 
Q 14.109375 46.140625 10.015625 43.890625 
L 10.015625 52.203125 
Q 14.9375 54.109375 19.578125 55.046875 
Q 24.21875 56 28.609375 56 
Q 40.484375 56 46.34375 49.84375 
Q 52.203125 43.703125 52.203125 31.203125 
z
" id="DejaVuSans-97"/>
      <path d="M 54.890625 33.015625 
L 54.890625 0 
L 45.90625 0 
L 45.90625 32.71875 
Q 45.90625 40.484375 42.875 44.328125 
Q 39.84375 48.1875 33.796875 48.1875 
Q 26.515625 48.1875 22.3125 43.546875 
Q 18.109375 38.921875 18.109375 30.90625 
L 18.109375 0 
L 9.078125 0 
L 9.078125 54.6875 
L 18.109375 54.6875 
L 18.109375 46.1875 
Q 21.34375 51.125 25.703125 53.5625 
Q 30.078125 56 35.796875 56 
Q 45.21875 56 50.046875 50.171875 
Q 54.890625 44.34375 54.890625 33.015625 
z
" id="DejaVuSans-110"/>
     </defs>
     <g transform="translate(309.791875 58.070438)scale(0.1 -0.1)">
      <use xlink:href="#DejaVuSans-71"/>
      <use x="77.490234" xlink:href="#DejaVuSans-80"/>
      <use x="137.792969" xlink:href="#DejaVuSans-32"/>
      <use x="169.580078" xlink:href="#DejaVuSans-112"/>
      <use x="233.056641" xlink:href="#DejaVuSans-114"/>
      <use x="271.919922" xlink:href="#DejaVuSans-101"/>
      <use x="333.443359" xlink:href="#DejaVuSans-100"/>
      <use x="396.919922" xlink:href="#DejaVuSans-105"/>
      <use x="424.703125" xlink:href="#DejaVuSans-99"/>
      <use x="479.683594" xlink:href="#DejaVuSans-116"/>
      <use x="518.892578" xlink:href="#DejaVuSans-101"/>
      <use x="580.416016" xlink:href="#DejaVuSans-100"/>
      <use x="643.892578" xlink:href="#DejaVuSans-32"/>
      <use x="675.679688" xlink:href="#DejaVuSans-109"/>
      <use x="773.091797" xlink:href="#DejaVuSans-101"/>
      <use x="834.615234" xlink:href="#DejaVuSans-97"/>
      <use x="895.894531" xlink:href="#DejaVuSans-110"/>
     </g>
    </g>
    <g id="line2d_19">
     <path d="M 281.791875 69.248563 
L 301.791875 69.248563 
" style="fill:none;stroke:#666666;stroke-linecap:square;stroke-width:1.5;"/>
    </g>
    <g id="line2d_20">
     <g>
      <use style="fill:#666666;stroke:#666666;" x="291.791875" xlink:href="#m51ff277c6d" y="69.248563"/>
     </g>
    </g>
    <g id="text_14">
     <!-- local linear approx. -->
     <defs>
      <path d="M 9.421875 75.984375 
L 18.40625 75.984375 
L 18.40625 0 
L 9.421875 0 
z
" id="DejaVuSans-108"/>
      <path d="M 30.609375 48.390625 
Q 23.390625 48.390625 19.1875 42.75 
Q 14.984375 37.109375 14.984375 27.296875 
Q 14.984375 17.484375 19.15625 11.84375 
Q 23.34375 6.203125 30.609375 6.203125 
Q 37.796875 6.203125 41.984375 11.859375 
Q 46.1875 17.53125 46.1875 27.296875 
Q 46.1875 37.015625 41.984375 42.703125 
Q 37.796875 48.390625 30.609375 48.390625 
z
M 30.609375 56 
Q 42.328125 56 49.015625 48.375 
Q 55.71875 40.765625 55.71875 27.296875 
Q 55.71875 13.875 49.015625 6.21875 
Q 42.328125 -1.421875 30.609375 -1.421875 
Q 18.84375 -1.421875 12.171875 6.21875 
Q 5.515625 13.875 5.515625 27.296875 
Q 5.515625 40.765625 12.171875 48.375 
Q 18.84375 56 30.609375 56 
z
" id="DejaVuSans-111"/>
      <path d="M 54.890625 54.6875 
L 35.109375 28.078125 
L 55.90625 0 
L 45.3125 0 
L 29.390625 21.484375 
L 13.484375 0 
L 2.875 0 
L 24.125 28.609375 
L 4.6875 54.6875 
L 15.28125 54.6875 
L 29.78125 35.203125 
L 44.28125 54.6875 
z
" id="DejaVuSans-120"/>
     </defs>
     <g transform="translate(309.791875 72.748563)scale(0.1 -0.1)">
      <use xlink:href="#DejaVuSans-108"/>
      <use x="27.783203" xlink:href="#DejaVuSans-111"/>
      <use x="88.964844" xlink:href="#DejaVuSans-99"/>
      <use x="143.945312" xlink:href="#DejaVuSans-97"/>
      <use x="205.224609" xlink:href="#DejaVuSans-108"/>
      <use x="233.007812" xlink:href="#DejaVuSans-32"/>
      <use x="264.794922" xlink:href="#DejaVuSans-108"/>
      <use x="292.578125" xlink:href="#DejaVuSans-105"/>
      <use x="320.361328" xlink:href="#DejaVuSans-110"/>
      <use x="383.740234" xlink:href="#DejaVuSans-101"/>
      <use x="445.263672" xlink:href="#DejaVuSans-97"/>
      <use x="506.542969" xlink:href="#DejaVuSans-114"/>
      <use x="547.65625" xlink:href="#DejaVuSans-32"/>
      <use x="579.443359" xlink:href="#DejaVuSans-97"/>
      <use x="640.722656" xlink:href="#DejaVuSans-112"/>
      <use x="704.199219" xlink:href="#DejaVuSans-112"/>
      <use x="767.675781" xlink:href="#DejaVuSans-114"/>
      <use x="806.539062" xlink:href="#DejaVuSans-111"/>
      <use x="864.595703" xlink:href="#DejaVuSans-120"/>
      <use x="923.775391" xlink:href="#DejaVuSans-46"/>
     </g>
    </g>
    <g id="line2d_21">
     <path d="M 281.791875 83.926688 
L 301.791875 83.926688 
" style="fill:none;stroke:#000000;stroke-linecap:square;stroke-width:1.5;"/>
    </g>
    <g id="line2d_22"/>
    <g id="text_15">
     <!-- true function -->
     <defs>
      <path d="M 8.5 21.578125 
L 8.5 54.6875 
L 17.484375 54.6875 
L 17.484375 21.921875 
Q 17.484375 14.15625 20.5 10.265625 
Q 23.53125 6.390625 29.59375 6.390625 
Q 36.859375 6.390625 41.078125 11.03125 
Q 45.3125 15.671875 45.3125 23.6875 
L 45.3125 54.6875 
L 54.296875 54.6875 
L 54.296875 0 
L 45.3125 0 
L 45.3125 8.40625 
Q 42.046875 3.421875 37.71875 1 
Q 33.40625 -1.421875 27.6875 -1.421875 
Q 18.265625 -1.421875 13.375 4.4375 
Q 8.5 10.296875 8.5 21.578125 
z
M 31.109375 56 
z
" id="DejaVuSans-117"/>
      <path d="M 37.109375 75.984375 
L 37.109375 68.5 
L 28.515625 68.5 
Q 23.6875 68.5 21.796875 66.546875 
Q 19.921875 64.59375 19.921875 59.515625 
L 19.921875 54.6875 
L 34.71875 54.6875 
L 34.71875 47.703125 
L 19.921875 47.703125 
L 19.921875 0 
L 10.890625 0 
L 10.890625 47.703125 
L 2.296875 47.703125 
L 2.296875 54.6875 
L 10.890625 54.6875 
L 10.890625 58.5 
Q 10.890625 67.625 15.140625 71.796875 
Q 19.390625 75.984375 28.609375 75.984375 
z
" id="DejaVuSans-102"/>
     </defs>
     <g transform="translate(309.791875 87.426688)scale(0.1 -0.1)">
      <use xlink:href="#DejaVuSans-116"/>
      <use x="39.208984" xlink:href="#DejaVuSans-114"/>
      <use x="80.322266" xlink:href="#DejaVuSans-117"/>
      <use x="143.701172" xlink:href="#DejaVuSans-101"/>
      <use x="205.224609" xlink:href="#DejaVuSans-32"/>
      <use x="237.011719" xlink:href="#DejaVuSans-102"/>
      <use x="272.216797" xlink:href="#DejaVuSans-117"/>
      <use x="335.595703" xlink:href="#DejaVuSans-110"/>
      <use x="398.974609" xlink:href="#DejaVuSans-99"/>
      <use x="453.955078" xlink:href="#DejaVuSans-116"/>
      <use x="493.164062" xlink:href="#DejaVuSans-105"/>
      <use x="520.947266" xlink:href="#DejaVuSans-111"/>
      <use x="582.128906" xlink:href="#DejaVuSans-110"/>
     </g>
    </g>
    <g id="line2d_23">
     <path d="M 281.791875 98.604813 
L 301.791875 98.604813 
" style="fill:none;stroke:#ff00ff;stroke-linecap:square;stroke-width:1.5;"/>
    </g>
    <g id="line2d_24">
     <g>
      <use style="fill:#ff00ff;stroke:#ff00ff;" x="291.791875" xlink:href="#me03a7814e5" y="98.604813"/>
     </g>
    </g>
    <g id="text_16">
     <!-- new sample -->
     <defs>
      <path d="M 4.203125 54.6875 
L 13.1875 54.6875 
L 24.421875 12.015625 
L 35.59375 54.6875 
L 46.1875 54.6875 
L 57.421875 12.015625 
L 68.609375 54.6875 
L 77.59375 54.6875 
L 63.28125 0 
L 52.6875 0 
L 40.921875 44.828125 
L 29.109375 0 
L 18.5 0 
z
" id="DejaVuSans-119"/>
      <path d="M 44.28125 53.078125 
L 44.28125 44.578125 
Q 40.484375 46.53125 36.375 47.5 
Q 32.28125 48.484375 27.875 48.484375 
Q 21.1875 48.484375 17.84375 46.4375 
Q 14.5 44.390625 14.5 40.28125 
Q 14.5 37.15625 16.890625 35.375 
Q 19.28125 33.59375 26.515625 31.984375 
L 29.59375 31.296875 
Q 39.15625 29.25 43.1875 25.515625 
Q 47.21875 21.78125 47.21875 15.09375 
Q 47.21875 7.46875 41.1875 3.015625 
Q 35.15625 -1.421875 24.609375 -1.421875 
Q 20.21875 -1.421875 15.453125 -0.5625 
Q 10.6875 0.296875 5.421875 2 
L 5.421875 11.28125 
Q 10.40625 8.6875 15.234375 7.390625 
Q 20.0625 6.109375 24.8125 6.109375 
Q 31.15625 6.109375 34.5625 8.28125 
Q 37.984375 10.453125 37.984375 14.40625 
Q 37.984375 18.0625 35.515625 20.015625 
Q 33.0625 21.96875 24.703125 23.78125 
L 21.578125 24.515625 
Q 13.234375 26.265625 9.515625 29.90625 
Q 5.8125 33.546875 5.8125 39.890625 
Q 5.8125 47.609375 11.28125 51.796875 
Q 16.75 56 26.8125 56 
Q 31.78125 56 36.171875 55.265625 
Q 40.578125 54.546875 44.28125 53.078125 
z
" id="DejaVuSans-115"/>
     </defs>
     <g transform="translate(309.791875 102.104813)scale(0.1 -0.1)">
      <use xlink:href="#DejaVuSans-110"/>
      <use x="63.378906" xlink:href="#DejaVuSans-101"/>
      <use x="124.902344" xlink:href="#DejaVuSans-119"/>
      <use x="206.689453" xlink:href="#DejaVuSans-32"/>
      <use x="238.476562" xlink:href="#DejaVuSans-115"/>
      <use x="290.576172" xlink:href="#DejaVuSans-97"/>
      <use x="351.855469" xlink:href="#DejaVuSans-109"/>
      <use x="449.267578" xlink:href="#DejaVuSans-112"/>
      <use x="512.744141" xlink:href="#DejaVuSans-108"/>
      <use x="540.527344" xlink:href="#DejaVuSans-101"/>
     </g>
    </g>
    <g id="patch_8">
     <path d="M 281.791875 116.7845 
L 301.791875 116.7845 
L 301.791875 109.7845 
L 281.791875 109.7845 
z
" style="fill:#347aeb;opacity:0.6;"/>
    </g>
    <g id="text_17">
     <!-- GP predicted 2$\sigma$ -->
     <defs>
      <path d="M 34.671875 47.5625 
Q 27.25 47.5625 22.21875 42.1875 
Q 16.890625 36.578125 15.140625 27.296875 
Q 13.1875 17.484375 16.3125 11.8125 
Q 19.390625 6.203125 26.65625 6.203125 
Q 33.84375 6.203125 39.109375 11.859375 
Q 44.4375 17.53125 46.34375 27.296875 
Q 48.046875 36.234375 45.015625 42.1875 
Q 42.1875 47.5625 34.671875 47.5625 
z
M 36.078125 54.734375 
L 65.921875 54.6875 
L 64.15625 45.703125 
L 54.109375 45.703125 
Q 57.90625 38.09375 55.859375 27.296875 
Q 53.21875 13.875 45.0625 6.25 
Q 36.859375 -1.421875 25.140625 -1.421875 
Q 13.375 -1.421875 8.203125 6.25 
Q 3.03125 13.875 5.671875 27.296875 
Q 8.25 40.765625 16.40625 48.390625 
Q 23.1875 54.734375 36.078125 54.734375 
z
" id="DejaVuSans-Oblique-963"/>
     </defs>
     <g transform="translate(309.791875 116.7845)scale(0.1 -0.1)">
      <use transform="translate(0 0.015625)" xlink:href="#DejaVuSans-71"/>
      <use transform="translate(77.490234 0.015625)" xlink:href="#DejaVuSans-80"/>
      <use transform="translate(137.792969 0.015625)" xlink:href="#DejaVuSans-32"/>
      <use transform="translate(169.580078 0.015625)" xlink:href="#DejaVuSans-112"/>
      <use transform="translate(233.056641 0.015625)" xlink:href="#DejaVuSans-114"/>
      <use transform="translate(274.169922 0.015625)" xlink:href="#DejaVuSans-101"/>
      <use transform="translate(335.693359 0.015625)" xlink:href="#DejaVuSans-100"/>
      <use transform="translate(399.169922 0.015625)" xlink:href="#DejaVuSans-105"/>
      <use transform="translate(426.953125 0.015625)" xlink:href="#DejaVuSans-99"/>
      <use transform="translate(481.933594 0.015625)" xlink:href="#DejaVuSans-116"/>
      <use transform="translate(521.142578 0.015625)" xlink:href="#DejaVuSans-101"/>
      <use transform="translate(582.666016 0.015625)" xlink:href="#DejaVuSans-100"/>
      <use transform="translate(646.142578 0.015625)" xlink:href="#DejaVuSans-32"/>
      <use transform="translate(677.929688 0.015625)" xlink:href="#DejaVuSans-50"/>
      <use transform="translate(741.552734 0.015625)" xlink:href="#DejaVuSans-Oblique-963"/>
     </g>
    </g>
   </g>
  </g>
 </g>
 <defs>
  <clipPath id="pb115bf5757">
   <rect height="266.112" width="357.12" x="57.6" y="41.472"/>
  </clipPath>
 </defs>
</svg>
