<?xml version="1.0" encoding="utf-8" standalone="no"?>
<!DOCTYPE svg PUBLIC "-//W3C//DTD SVG 1.1//EN"
  "http://www.w3.org/Graphics/SVG/1.1/DTD/svg11.dtd">
<!-- Created with matplotlib (https://matplotlib.org/) -->
<svg height="345.6pt" version="1.1" viewBox="0 0 460.8 345.6" width="460.8pt" xmlns="http://www.w3.org/2000/svg" xmlns:xlink="http://www.w3.org/1999/xlink">
 <defs>
  <style type="text/css">
*{stroke-linecap:butt;stroke-linejoin:round;}
  </style>
 </defs>
 <g id="figure_1">
  <g id="patch_1">
   <path d="M 0 345.6 
L 460.8 345.6 
L 460.8 0 
L 0 0 
z
" style="fill:#ffffff;"/>
  </g>
  <g id="axes_1">
   <g id="patch_2">
    <path d="M 57.6 307.584 
L 414.72 307.584 
L 414.72 41.472 
L 57.6 41.472 
z
" style="fill:#ffffff;"/>
   </g>
   <g id="PolyCollection_1">
    <defs>
     <path d="M 87.36 -277.2043 
L 87.36 -277.222076 
L 88.848 -262.07639 
L 90.336 -244.251077 
L 91.824 -225.280255 
L 93.312 -207.055041 
L 94.8 -191.51887 
L 96.288 -187.104537 
L 97.776 -186.961537 
L 99.264 -190.047666 
L 100.752 -195.149702 
L 102.24 -201.131052 
L 103.728 -207.118183 
L 105.216 -212.586462 
L 106.704 -223.801092 
L 108.192 -232.327485 
L 109.68 -237.057731 
L 111.168 -237.477689 
L 112.656 -233.70368 
L 114.144 -226.449912 
L 115.632 -223.758642 
L 117.12 -218.994269 
L 118.608 -212.330288 
L 120.096 -204.330907 
L 121.584 -195.900267 
L 123.072 -188.143657 
L 124.56 -182.165975 
L 126.048 -185.168884 
L 127.536 -189.271406 
L 129.024 -193.285446 
L 130.512 -196.19531 
L 132 -197.365387 
L 133.488 -196.664153 
L 134.976 -200.473085 
L 136.464 -201.860582 
L 137.952 -200.44935 
L 139.44 -196.450737 
L 140.928 -190.59521 
L 142.416 -183.981005 
L 143.904 -184.608325 
L 145.392 -185.691778 
L 146.88 -186.756027 
L 148.368 -187.487647 
L 149.856 -187.841214 
L 151.344 -188.069586 
L 152.832 -188.670966 
L 154.32 -196.540404 
L 155.808 -203.94631 
L 157.296 -210.120082 
L 158.784 -214.65522 
L 160.272 -217.552455 
L 161.76 -219.181521 
L 163.248 -226.021763 
L 164.736 -231.171814 
L 166.224 -233.927153 
L 167.712 -233.985536 
L 169.2 -231.490872 
L 170.688 -226.990672 
L 172.176 -227.230573 
L 173.664 -225.578608 
L 175.152 -221.514412 
L 176.64 -214.89068 
L 178.128 -205.975869 
L 179.616 -195.415832 
L 181.104 -190.837077 
L 182.592 -185.276407 
L 184.08 -178.201253 
L 185.568 -169.371364 
L 187.056 -158.910307 
L 188.544 -147.302291 
L 190.032 -135.315103 
L 191.52 -130.134867 
L 193.008 -124.344202 
L 194.496 -117.491842 
L 195.984 -109.486479 
L 197.472 -100.62821 
L 198.96 -91.555553 
L 200.448 -88.974097 
L 201.936 -86.162243 
L 203.424 -82.548153 
L 204.912 -77.920145 
L 206.4 -72.473156 
L 207.888 -66.765112 
L 209.376 -67.509829 
L 210.864 -67.999643 
L 212.352 -67.602203 
L 213.84 -66.031922 
L 215.328 -63.403433 
L 216.816 -60.200904 
L 218.304 -63.890282 
L 219.792 -67.338376 
L 221.28 -69.845488 
L 222.768 -71.008233 
L 224.256 -70.795559 
L 225.744 -69.549631 
L 227.232 -67.911454 
L 228.72 -72.987373 
L 230.208 -77.241717 
L 231.696 -80.132924 
L 233.184 -81.487207 
L 234.672 -81.531505 
L 236.16 -80.844752 
L 237.648 -86.23979 
L 239.136 -90.873362 
L 240.624 -94.132531 
L 242.112 -95.755605 
L 243.6 -95.881709 
L 245.088 -95.019014 
L 246.576 -100.705588 
L 248.064 -105.78756 
L 249.552 -109.589804 
L 251.04 -111.730016 
L 252.528 -112.192938 
L 254.016 -111.332268 
L 255.504 -109.800564 
L 256.992 -114.906169 
L 258.48 -119.00279 
L 259.968 -121.537724 
L 261.456 -122.307221 
L 262.944 -121.494613 
L 264.432 -119.635576 
L 265.92 -124.502111 
L 267.408 -128.72335 
L 268.896 -131.623905 
L 270.384 -132.808897 
L 271.872 -132.235596 
L 273.36 -130.219211 
L 274.848 -127.373874 
L 276.336 -131.864125 
L 277.824 -135.516485 
L 279.312 -137.725719 
L 280.8 -138.189049 
L 282.288 -136.964176 
L 283.776 -134.461285 
L 285.264 -131.367569 
L 286.752 -134.86619 
L 288.24 -137.317991 
L 289.728 -138.222871 
L 291.216 -137.452239 
L 292.704 -135.276732 
L 294.192 -132.311927 
L 295.68 -135.228749 
L 297.168 -137.293227 
L 298.656 -137.943134 
L 300.144 -136.98714 
L 301.632 -134.646862 
L 303.12 -131.508392 
L 304.608 -134.138928 
L 306.096 -135.963055 
L 307.584 -136.408776 
L 309.072 -135.273394 
L 310.56 -132.769065 
L 312.048 -129.47585 
L 313.536 -131.941332 
L 315.024 -133.619605 
L 316.512 -133.935992 
L 318 -132.684587 
L 319.488 -130.074717 
L 320.976 -126.68451 
L 322.464 -129.062555 
L 323.952 -130.665396 
L 325.44 -130.917061 
L 326.928 -129.60965 
L 328.416 -126.950046 
L 329.904 -123.513961 
L 331.392 -125.874691 
L 332.88 -127.470636 
L 334.368 -127.718677 
L 335.856 -126.400717 
L 337.344 -123.712258 
L 338.832 -120.220009 
L 340.32 -122.635125 
L 341.808 -124.308067 
L 343.296 -124.632705 
L 344.784 -123.351072 
L 346.272 -120.605964 
L 347.76 -116.9099 
L 349.248 -119.753348 
L 350.736 -122.038706 
L 352.224 -123.093585 
L 353.712 -122.540023 
L 355.2 -120.37043 
L 356.688 -116.949466 
L 358.176 -112.941565 
L 359.664 -115.480951 
L 361.152 -117.061116 
L 362.64 -117.171723 
L 364.128 -115.668813 
L 365.616 -112.803661 
L 367.104 -109.170394 
L 368.592 -111.594314 
L 370.08 -113.218083 
L 371.568 -113.41093 
L 373.056 -111.891398 
L 374.544 -108.78707 
L 376.032 -104.615107 
L 377.52 -106.931629 
L 379.008 -108.579313 
L 380.496 -108.871909 
L 381.984 -107.370893 
L 383.472 -103.931194 
L 384.96 -98.693832 
L 384.96 -98.676249 
L 384.96 -98.676249 
L 383.472 -94.773621 
L 381.984 -93.101997 
L 380.496 -93.679552 
L 379.008 -96.214993 
L 377.52 -100.123839 
L 376.032 -104.597286 
L 374.544 -102.39596 
L 373.056 -101.041728 
L 371.568 -101.061975 
L 370.08 -102.627085 
L 368.592 -105.51459 
L 367.104 -109.15254 
L 365.616 -106.729652 
L 364.128 -105.097796 
L 362.64 -104.857634 
L 361.152 -106.251251 
L 359.664 -109.116656 
L 358.176 -112.923796 
L 356.688 -110.15043 
L 355.2 -107.92232 
L 353.712 -106.903488 
L 352.224 -107.465001 
L 350.736 -109.610033 
L 349.248 -112.972848 
L 347.76 -116.892119 
L 346.272 -114.278223 
L 344.784 -112.625668 
L 343.296 -112.447241 
L 341.808 -113.883211 
L 340.32 -116.671628 
L 338.832 -120.202217 
L 337.344 -117.822081 
L 335.856 -116.240301 
L 334.368 -116.022838 
L 332.88 -117.365447 
L 331.392 -120.050745 
L 329.904 -123.496177 
L 328.416 -121.140042 
L 326.928 -119.554572 
L 325.44 -119.313422 
L 323.952 -120.620609 
L 322.464 -123.264878 
L 320.976 -126.666717 
L 319.488 -124.27917 
L 318 -122.647453 
L 316.512 -122.346421 
L 315.024 -123.582146 
L 313.536 -126.145396 
L 312.048 -129.45803 
L 310.56 -126.970492 
L 309.072 -125.226462 
L 307.584 -124.801791 
L 306.096 -125.904111 
L 304.608 -128.325969 
L 303.12 -131.490565 
L 301.632 -128.81778 
L 300.144 -126.870247 
L 298.656 -126.229522 
L 297.168 -127.112562 
L 295.68 -129.32318 
L 294.192 -132.294146 
L 292.704 -129.286463 
L 291.216 -126.966051 
L 289.728 -125.943455 
L 288.24 -126.484206 
L 286.752 -128.454623 
L 285.264 -131.349776 
L 283.776 -127.526166 
L 282.288 -124.163089 
L 280.8 -121.944029 
L 279.312 -121.27517 
L 277.824 -122.209678 
L 276.336 -124.439921 
L 274.848 -127.356088 
L 273.36 -122.781045 
L 271.872 -118.876883 
L 270.384 -116.256233 
L 268.896 -115.233146 
L 267.408 -115.763528 
L 265.92 -117.450784 
L 264.432 -119.617786 
L 262.944 -114.892456 
L 261.456 -111.046554 
L 259.968 -108.616629 
L 258.48 -107.787921 
L 256.992 -108.359544 
L 255.504 -109.782729 
L 254.016 -104.41642 
L 252.528 -99.575713 
L 251.04 -95.921458 
L 249.552 -93.817004 
L 248.064 -93.257849 
L 246.576 -93.873396 
L 245.088 -95.001237 
L 243.6 -89.501538 
L 242.112 -84.92824 
L 240.624 -81.807778 
L 239.136 -80.300395 
L 237.648 -80.168626 
L 236.16 -80.826963 
L 234.672 -75.46287 
L 233.184 -70.923365 
L 231.696 -67.82508 
L 230.208 -66.435787 
L 228.72 -66.62462 
L 227.232 -67.893665 
L 225.744 -62.75083 
L 224.256 -58.346639 
L 222.768 -55.369026 
L 221.28 -54.212365 
L 219.792 -54.904335 
L 218.304 -57.105676 
L 216.816 -60.183096 
L 215.328 -57.068711 
L 213.84 -55.290827 
L 212.352 -55.393212 
L 210.864 -57.548301 
L 209.376 -61.526422 
L 207.888 -66.747349 
L 206.4 -66.549079 
L 204.912 -67.682963 
L 203.424 -70.736275 
L 201.936 -75.925342 
L 200.448 -83.050357 
L 198.96 -91.537761 
L 197.472 -94.645583 
L 195.984 -99.037016 
L 194.496 -105.285812 
L 193.008 -113.606574 
L 191.52 -123.802846 
L 190.032 -135.297336 
L 188.544 -140.522676 
L 187.056 -146.488247 
L 185.568 -153.757956 
L 184.08 -162.587845 
L 182.592 -172.854346 
L 181.104 -184.057462 
L 179.616 -195.398053 
L 178.128 -199.643849 
L 176.64 -204.153052 
L 175.152 -209.308384 
L 173.664 -215.129146 
L 172.176 -221.247946 
L 170.688 -226.972884 
L 169.2 -225.567133 
L 167.712 -223.748636 
L 166.224 -222.115278 
L 164.736 -220.934636 
L 163.248 -220.097689 
L 161.76 -219.16371 
L 160.272 -211.569053 
L 158.784 -204.203889 
L 157.296 -197.911109 
L 155.808 -193.205235 
L 154.32 -190.205698 
L 152.832 -188.653176 
L 151.344 -181.285007 
L 149.856 -175.407238 
L 148.368 -171.854632 
L 146.88 -171.116959 
L 145.392 -173.243002 
L 143.904 -177.809626 
L 142.416 -183.963222 
L 140.928 -184.232618 
L 139.44 -185.645165 
L 137.952 -188.142037 
L 136.464 -191.297334 
L 134.976 -194.404897 
L 133.488 -196.646352 
L 132 -191.294986 
L 130.512 -185.624081 
L 129.024 -180.963343 
L 127.536 -178.447083 
L 126.048 -178.791056 
L 124.56 -182.148202 
L 123.072 -181.315752 
L 121.584 -183.380839 
L 120.096 -188.575032 
L 118.608 -196.543918 
L 117.12 -206.400211 
L 115.632 -216.859409 
L 114.144 -226.432118 
L 112.656 -227.183987 
L 111.168 -226.323191 
L 109.68 -224.227658 
L 108.192 -221.170634 
L 106.704 -217.278609 
L 105.216 -212.568674 
L 103.728 -200.212871 
L 102.24 -188.523267 
L 100.752 -179.344023 
L 99.264 -174.273643 
L 97.776 -174.434682 
L 96.288 -180.283964 
L 94.8 -191.501118 
L 93.312 -200.774012 
L 91.824 -214.878602 
L 90.336 -233.158314 
L 88.848 -254.425568 
L 87.36 -277.2043 
z
" id="mdf3b1d373a"/>
    </defs>
    <g clip-path="url(#p7c94970279)">
     <use style="fill:#347aeb;fill-opacity:0.6;" x="0" xlink:href="#mdf3b1d373a" y="345.6"/>
    </g>
   </g>
   <g id="PathCollection_1">
    <defs>
     <path d="M 0 3 
C 0.795609 3 1.55874 2.683901 2.12132 2.12132 
C 2.683901 1.55874 3 0.795609 3 0 
C 3 -0.795609 2.683901 -1.55874 2.12132 -2.12132 
C 1.55874 -2.683901 0.795609 -3 0 -3 
C -0.795609 -3 -1.55874 -2.683901 -2.12132 -2.12132 
C -2.683901 -1.55874 -3 -0.795609 -3 0 
C -3 0.795609 -2.683901 1.55874 -2.12132 2.12132 
C -1.55874 2.683901 -0.795609 3 0 3 
z
" id="m04b13da776" style="stroke:#1f77b4;"/>
    </defs>
    <g clip-path="url(#p7c94970279)">
     <use style="fill:#1f77b4;stroke:#1f77b4;" x="87.36" xlink:href="#m04b13da776" y="68.386808"/>
     <use style="fill:#1f77b4;stroke:#1f77b4;" x="94.8" xlink:href="#m04b13da776" y="154.090011"/>
     <use style="fill:#1f77b4;stroke:#1f77b4;" x="105.216" xlink:href="#m04b13da776" y="133.02243"/>
     <use style="fill:#1f77b4;stroke:#1f77b4;" x="114.144" xlink:href="#m04b13da776" y="119.158983"/>
     <use style="fill:#1f77b4;stroke:#1f77b4;" x="124.56" xlink:href="#m04b13da776" y="163.442915"/>
     <use style="fill:#1f77b4;stroke:#1f77b4;" x="133.488" xlink:href="#m04b13da776" y="148.944745"/>
     <use style="fill:#1f77b4;stroke:#1f77b4;" x="142.416" xlink:href="#m04b13da776" y="161.627888"/>
     <use style="fill:#1f77b4;stroke:#1f77b4;" x="152.832" xlink:href="#m04b13da776" y="156.937929"/>
     <use style="fill:#1f77b4;stroke:#1f77b4;" x="161.76" xlink:href="#m04b13da776" y="126.427384"/>
     <use style="fill:#1f77b4;stroke:#1f77b4;" x="170.688" xlink:href="#m04b13da776" y="118.618221"/>
     <use style="fill:#1f77b4;stroke:#1f77b4;" x="179.616" xlink:href="#m04b13da776" y="150.193058"/>
     <use style="fill:#1f77b4;stroke:#1f77b4;" x="190.032" xlink:href="#m04b13da776" y="210.293781"/>
     <use style="fill:#1f77b4;stroke:#1f77b4;" x="198.96" xlink:href="#m04b13da776" y="254.053343"/>
     <use style="fill:#1f77b4;stroke:#1f77b4;" x="207.888" xlink:href="#m04b13da776" y="278.84377"/>
     <use style="fill:#1f77b4;stroke:#1f77b4;" x="216.816" xlink:href="#m04b13da776" y="285.408"/>
     <use style="fill:#1f77b4;stroke:#1f77b4;" x="227.232" xlink:href="#m04b13da776" y="277.697441"/>
     <use style="fill:#1f77b4;stroke:#1f77b4;" x="236.16" xlink:href="#m04b13da776" y="264.764143"/>
     <use style="fill:#1f77b4;stroke:#1f77b4;" x="245.088" xlink:href="#m04b13da776" y="250.589875"/>
     <use style="fill:#1f77b4;stroke:#1f77b4;" x="255.504" xlink:href="#m04b13da776" y="235.808354"/>
     <use style="fill:#1f77b4;stroke:#1f77b4;" x="264.432" xlink:href="#m04b13da776" y="225.973319"/>
     <use style="fill:#1f77b4;stroke:#1f77b4;" x="274.848" xlink:href="#m04b13da776" y="218.235019"/>
     <use style="fill:#1f77b4;stroke:#1f77b4;" x="285.264" xlink:href="#m04b13da776" y="214.241327"/>
     <use style="fill:#1f77b4;stroke:#1f77b4;" x="294.192" xlink:href="#m04b13da776" y="213.296963"/>
     <use style="fill:#1f77b4;stroke:#1f77b4;" x="303.12" xlink:href="#m04b13da776" y="214.100522"/>
     <use style="fill:#1f77b4;stroke:#1f77b4;" x="312.048" xlink:href="#m04b13da776" y="216.13306"/>
     <use style="fill:#1f77b4;stroke:#1f77b4;" x="320.976" xlink:href="#m04b13da776" y="218.924386"/>
     <use style="fill:#1f77b4;stroke:#1f77b4;" x="329.904" xlink:href="#m04b13da776" y="222.094931"/>
     <use style="fill:#1f77b4;stroke:#1f77b4;" x="338.832" xlink:href="#m04b13da776" y="225.388887"/>
     <use style="fill:#1f77b4;stroke:#1f77b4;" x="347.76" xlink:href="#m04b13da776" y="228.698991"/>
     <use style="fill:#1f77b4;stroke:#1f77b4;" x="358.176" xlink:href="#m04b13da776" y="232.66732"/>
     <use style="fill:#1f77b4;stroke:#1f77b4;" x="367.104" xlink:href="#m04b13da776" y="236.438533"/>
     <use style="fill:#1f77b4;stroke:#1f77b4;" x="376.032" xlink:href="#m04b13da776" y="240.993803"/>
     <use style="fill:#1f77b4;stroke:#1f77b4;" x="384.96" xlink:href="#m04b13da776" y="246.914959"/>
    </g>
   </g>
   <g id="matplotlib.axis_1">
    <g id="xtick_1">
     <g id="line2d_1">
      <defs>
       <path d="M 0 0 
L 0 3.5 
" id="m70310f2c3b" style="stroke:#000000;stroke-width:0.8;"/>
      </defs>
      <g>
       <use style="stroke:#000000;stroke-width:0.8;" x="87.36" xlink:href="#m70310f2c3b" y="307.584"/>
      </g>
     </g>
     <g id="text_1">
      <!-- 0.0 -->
      <defs>
       <path d="M 31.78125 66.40625 
Q 24.171875 66.40625 20.328125 58.90625 
Q 16.5 51.421875 16.5 36.375 
Q 16.5 21.390625 20.328125 13.890625 
Q 24.171875 6.390625 31.78125 6.390625 
Q 39.453125 6.390625 43.28125 13.890625 
Q 47.125 21.390625 47.125 36.375 
Q 47.125 51.421875 43.28125 58.90625 
Q 39.453125 66.40625 31.78125 66.40625 
z
M 31.78125 74.21875 
Q 44.046875 74.21875 50.515625 64.515625 
Q 56.984375 54.828125 56.984375 36.375 
Q 56.984375 17.96875 50.515625 8.265625 
Q 44.046875 -1.421875 31.78125 -1.421875 
Q 19.53125 -1.421875 13.0625 8.265625 
Q 6.59375 17.96875 6.59375 36.375 
Q 6.59375 54.828125 13.0625 64.515625 
Q 19.53125 74.21875 31.78125 74.21875 
z
" id="DejaVuSans-48"/>
       <path d="M 10.6875 12.40625 
L 21 12.40625 
L 21 0 
L 10.6875 0 
z
" id="DejaVuSans-46"/>
      </defs>
      <g transform="translate(79.408438 322.182437)scale(0.1 -0.1)">
       <use xlink:href="#DejaVuSans-48"/>
       <use x="63.623047" xlink:href="#DejaVuSans-46"/>
       <use x="95.410156" xlink:href="#DejaVuSans-48"/>
      </g>
     </g>
    </g>
    <g id="xtick_2">
     <g id="line2d_2">
      <g>
       <use style="stroke:#000000;stroke-width:0.8;" x="146.88" xlink:href="#m70310f2c3b" y="307.584"/>
      </g>
     </g>
     <g id="text_2">
      <!-- 0.2 -->
      <defs>
       <path d="M 19.1875 8.296875 
L 53.609375 8.296875 
L 53.609375 0 
L 7.328125 0 
L 7.328125 8.296875 
Q 12.9375 14.109375 22.625 23.890625 
Q 32.328125 33.6875 34.8125 36.53125 
Q 39.546875 41.84375 41.421875 45.53125 
Q 43.3125 49.21875 43.3125 52.78125 
Q 43.3125 58.59375 39.234375 62.25 
Q 35.15625 65.921875 28.609375 65.921875 
Q 23.96875 65.921875 18.8125 64.3125 
Q 13.671875 62.703125 7.8125 59.421875 
L 7.8125 69.390625 
Q 13.765625 71.78125 18.9375 73 
Q 24.125 74.21875 28.421875 74.21875 
Q 39.75 74.21875 46.484375 68.546875 
Q 53.21875 62.890625 53.21875 53.421875 
Q 53.21875 48.921875 51.53125 44.890625 
Q 49.859375 40.875 45.40625 35.40625 
Q 44.1875 33.984375 37.640625 27.21875 
Q 31.109375 20.453125 19.1875 8.296875 
z
" id="DejaVuSans-50"/>
      </defs>
      <g transform="translate(138.928438 322.182437)scale(0.1 -0.1)">
       <use xlink:href="#DejaVuSans-48"/>
       <use x="63.623047" xlink:href="#DejaVuSans-46"/>
       <use x="95.410156" xlink:href="#DejaVuSans-50"/>
      </g>
     </g>
    </g>
    <g id="xtick_3">
     <g id="line2d_3">
      <g>
       <use style="stroke:#000000;stroke-width:0.8;" x="206.4" xlink:href="#m70310f2c3b" y="307.584"/>
      </g>
     </g>
     <g id="text_3">
      <!-- 0.4 -->
      <defs>
       <path d="M 37.796875 64.3125 
L 12.890625 25.390625 
L 37.796875 25.390625 
z
M 35.203125 72.90625 
L 47.609375 72.90625 
L 47.609375 25.390625 
L 58.015625 25.390625 
L 58.015625 17.1875 
L 47.609375 17.1875 
L 47.609375 0 
L 37.796875 0 
L 37.796875 17.1875 
L 4.890625 17.1875 
L 4.890625 26.703125 
z
" id="DejaVuSans-52"/>
      </defs>
      <g transform="translate(198.448438 322.182437)scale(0.1 -0.1)">
       <use xlink:href="#DejaVuSans-48"/>
       <use x="63.623047" xlink:href="#DejaVuSans-46"/>
       <use x="95.410156" xlink:href="#DejaVuSans-52"/>
      </g>
     </g>
    </g>
    <g id="xtick_4">
     <g id="line2d_4">
      <g>
       <use style="stroke:#000000;stroke-width:0.8;" x="265.92" xlink:href="#m70310f2c3b" y="307.584"/>
      </g>
     </g>
     <g id="text_4">
      <!-- 0.6 -->
      <defs>
       <path d="M 33.015625 40.375 
Q 26.375 40.375 22.484375 35.828125 
Q 18.609375 31.296875 18.609375 23.390625 
Q 18.609375 15.53125 22.484375 10.953125 
Q 26.375 6.390625 33.015625 6.390625 
Q 39.65625 6.390625 43.53125 10.953125 
Q 47.40625 15.53125 47.40625 23.390625 
Q 47.40625 31.296875 43.53125 35.828125 
Q 39.65625 40.375 33.015625 40.375 
z
M 52.59375 71.296875 
L 52.59375 62.3125 
Q 48.875 64.0625 45.09375 64.984375 
Q 41.3125 65.921875 37.59375 65.921875 
Q 27.828125 65.921875 22.671875 59.328125 
Q 17.53125 52.734375 16.796875 39.40625 
Q 19.671875 43.65625 24.015625 45.921875 
Q 28.375 48.1875 33.59375 48.1875 
Q 44.578125 48.1875 50.953125 41.515625 
Q 57.328125 34.859375 57.328125 23.390625 
Q 57.328125 12.15625 50.6875 5.359375 
Q 44.046875 -1.421875 33.015625 -1.421875 
Q 20.359375 -1.421875 13.671875 8.265625 
Q 6.984375 17.96875 6.984375 36.375 
Q 6.984375 53.65625 15.1875 63.9375 
Q 23.390625 74.21875 37.203125 74.21875 
Q 40.921875 74.21875 44.703125 73.484375 
Q 48.484375 72.75 52.59375 71.296875 
z
" id="DejaVuSans-54"/>
      </defs>
      <g transform="translate(257.968437 322.182437)scale(0.1 -0.1)">
       <use xlink:href="#DejaVuSans-48"/>
       <use x="63.623047" xlink:href="#DejaVuSans-46"/>
       <use x="95.410156" xlink:href="#DejaVuSans-54"/>
      </g>
     </g>
    </g>
    <g id="xtick_5">
     <g id="line2d_5">
      <g>
       <use style="stroke:#000000;stroke-width:0.8;" x="325.44" xlink:href="#m70310f2c3b" y="307.584"/>
      </g>
     </g>
     <g id="text_5">
      <!-- 0.8 -->
      <defs>
       <path d="M 31.78125 34.625 
Q 24.75 34.625 20.71875 30.859375 
Q 16.703125 27.09375 16.703125 20.515625 
Q 16.703125 13.921875 20.71875 10.15625 
Q 24.75 6.390625 31.78125 6.390625 
Q 38.8125 6.390625 42.859375 10.171875 
Q 46.921875 13.96875 46.921875 20.515625 
Q 46.921875 27.09375 42.890625 30.859375 
Q 38.875 34.625 31.78125 34.625 
z
M 21.921875 38.8125 
Q 15.578125 40.375 12.03125 44.71875 
Q 8.5 49.078125 8.5 55.328125 
Q 8.5 64.0625 14.71875 69.140625 
Q 20.953125 74.21875 31.78125 74.21875 
Q 42.671875 74.21875 48.875 69.140625 
Q 55.078125 64.0625 55.078125 55.328125 
Q 55.078125 49.078125 51.53125 44.71875 
Q 48 40.375 41.703125 38.8125 
Q 48.828125 37.15625 52.796875 32.3125 
Q 56.78125 27.484375 56.78125 20.515625 
Q 56.78125 9.90625 50.3125 4.234375 
Q 43.84375 -1.421875 31.78125 -1.421875 
Q 19.734375 -1.421875 13.25 4.234375 
Q 6.78125 9.90625 6.78125 20.515625 
Q 6.78125 27.484375 10.78125 32.3125 
Q 14.796875 37.15625 21.921875 38.8125 
z
M 18.3125 54.390625 
Q 18.3125 48.734375 21.84375 45.5625 
Q 25.390625 42.390625 31.78125 42.390625 
Q 38.140625 42.390625 41.71875 45.5625 
Q 45.3125 48.734375 45.3125 54.390625 
Q 45.3125 60.0625 41.71875 63.234375 
Q 38.140625 66.40625 31.78125 66.40625 
Q 25.390625 66.40625 21.84375 63.234375 
Q 18.3125 60.0625 18.3125 54.390625 
z
" id="DejaVuSans-56"/>
      </defs>
      <g transform="translate(317.488437 322.182437)scale(0.1 -0.1)">
       <use xlink:href="#DejaVuSans-48"/>
       <use x="63.623047" xlink:href="#DejaVuSans-46"/>
       <use x="95.410156" xlink:href="#DejaVuSans-56"/>
      </g>
     </g>
    </g>
    <g id="xtick_6">
     <g id="line2d_6">
      <g>
       <use style="stroke:#000000;stroke-width:0.8;" x="384.96" xlink:href="#m70310f2c3b" y="307.584"/>
      </g>
     </g>
     <g id="text_6">
      <!-- 1.0 -->
      <defs>
       <path d="M 12.40625 8.296875 
L 28.515625 8.296875 
L 28.515625 63.921875 
L 10.984375 60.40625 
L 10.984375 69.390625 
L 28.421875 72.90625 
L 38.28125 72.90625 
L 38.28125 8.296875 
L 54.390625 8.296875 
L 54.390625 0 
L 12.40625 0 
z
" id="DejaVuSans-49"/>
      </defs>
      <g transform="translate(377.008438 322.182437)scale(0.1 -0.1)">
       <use xlink:href="#DejaVuSans-49"/>
       <use x="63.623047" xlink:href="#DejaVuSans-46"/>
       <use x="95.410156" xlink:href="#DejaVuSans-48"/>
      </g>
     </g>
    </g>
   </g>
   <g id="matplotlib.axis_2">
    <g id="ytick_1">
     <g id="line2d_7">
      <defs>
       <path d="M 0 0 
L -3.5 0 
" id="m228c89def9" style="stroke:#000000;stroke-width:0.8;"/>
      </defs>
      <g>
       <use style="stroke:#000000;stroke-width:0.8;" x="57.6" xlink:href="#m228c89def9" y="275.540548"/>
      </g>
     </g>
     <g id="text_7">
      <!-- −0.6 -->
      <defs>
       <path d="M 10.59375 35.5 
L 73.1875 35.5 
L 73.1875 27.203125 
L 10.59375 27.203125 
z
" id="DejaVuSans-8722"/>
      </defs>
      <g transform="translate(26.317187 279.339767)scale(0.1 -0.1)">
       <use xlink:href="#DejaVuSans-8722"/>
       <use x="83.789062" xlink:href="#DejaVuSans-48"/>
       <use x="147.412109" xlink:href="#DejaVuSans-46"/>
       <use x="179.199219" xlink:href="#DejaVuSans-54"/>
      </g>
     </g>
    </g>
    <g id="ytick_2">
     <g id="line2d_8">
      <g>
       <use style="stroke:#000000;stroke-width:0.8;" x="57.6" xlink:href="#m228c89def9" y="231.451171"/>
      </g>
     </g>
     <g id="text_8">
      <!-- −0.5 -->
      <defs>
       <path d="M 10.796875 72.90625 
L 49.515625 72.90625 
L 49.515625 64.59375 
L 19.828125 64.59375 
L 19.828125 46.734375 
Q 21.96875 47.46875 24.109375 47.828125 
Q 26.265625 48.1875 28.421875 48.1875 
Q 40.625 48.1875 47.75 41.5 
Q 54.890625 34.8125 54.890625 23.390625 
Q 54.890625 11.625 47.5625 5.09375 
Q 40.234375 -1.421875 26.90625 -1.421875 
Q 22.3125 -1.421875 17.546875 -0.640625 
Q 12.796875 0.140625 7.71875 1.703125 
L 7.71875 11.625 
Q 12.109375 9.234375 16.796875 8.0625 
Q 21.484375 6.890625 26.703125 6.890625 
Q 35.15625 6.890625 40.078125 11.328125 
Q 45.015625 15.765625 45.015625 23.390625 
Q 45.015625 31 40.078125 35.4375 
Q 35.15625 39.890625 26.703125 39.890625 
Q 22.75 39.890625 18.8125 39.015625 
Q 14.890625 38.140625 10.796875 36.28125 
z
" id="DejaVuSans-53"/>
      </defs>
      <g transform="translate(26.317187 235.25039)scale(0.1 -0.1)">
       <use xlink:href="#DejaVuSans-8722"/>
       <use x="83.789062" xlink:href="#DejaVuSans-48"/>
       <use x="147.412109" xlink:href="#DejaVuSans-46"/>
       <use x="179.199219" xlink:href="#DejaVuSans-53"/>
      </g>
     </g>
    </g>
    <g id="ytick_3">
     <g id="line2d_9">
      <g>
       <use style="stroke:#000000;stroke-width:0.8;" x="57.6" xlink:href="#m228c89def9" y="187.361794"/>
      </g>
     </g>
     <g id="text_9">
      <!-- −0.4 -->
      <g transform="translate(26.317187 191.161012)scale(0.1 -0.1)">
       <use xlink:href="#DejaVuSans-8722"/>
       <use x="83.789062" xlink:href="#DejaVuSans-48"/>
       <use x="147.412109" xlink:href="#DejaVuSans-46"/>
       <use x="179.199219" xlink:href="#DejaVuSans-52"/>
      </g>
     </g>
    </g>
    <g id="ytick_4">
     <g id="line2d_10">
      <g>
       <use style="stroke:#000000;stroke-width:0.8;" x="57.6" xlink:href="#m228c89def9" y="143.272416"/>
      </g>
     </g>
     <g id="text_10">
      <!-- −0.3 -->
      <defs>
       <path d="M 40.578125 39.3125 
Q 47.65625 37.796875 51.625 33 
Q 55.609375 28.21875 55.609375 21.1875 
Q 55.609375 10.40625 48.1875 4.484375 
Q 40.765625 -1.421875 27.09375 -1.421875 
Q 22.515625 -1.421875 17.65625 -0.515625 
Q 12.796875 0.390625 7.625 2.203125 
L 7.625 11.71875 
Q 11.71875 9.328125 16.59375 8.109375 
Q 21.484375 6.890625 26.8125 6.890625 
Q 36.078125 6.890625 40.9375 10.546875 
Q 45.796875 14.203125 45.796875 21.1875 
Q 45.796875 27.640625 41.28125 31.265625 
Q 36.765625 34.90625 28.71875 34.90625 
L 20.21875 34.90625 
L 20.21875 43.015625 
L 29.109375 43.015625 
Q 36.375 43.015625 40.234375 45.921875 
Q 44.09375 48.828125 44.09375 54.296875 
Q 44.09375 59.90625 40.109375 62.90625 
Q 36.140625 65.921875 28.71875 65.921875 
Q 24.65625 65.921875 20.015625 65.03125 
Q 15.375 64.15625 9.8125 62.3125 
L 9.8125 71.09375 
Q 15.4375 72.65625 20.34375 73.4375 
Q 25.25 74.21875 29.59375 74.21875 
Q 40.828125 74.21875 47.359375 69.109375 
Q 53.90625 64.015625 53.90625 55.328125 
Q 53.90625 49.265625 50.4375 45.09375 
Q 46.96875 40.921875 40.578125 39.3125 
z
" id="DejaVuSans-51"/>
      </defs>
      <g transform="translate(26.317187 147.071635)scale(0.1 -0.1)">
       <use xlink:href="#DejaVuSans-8722"/>
       <use x="83.789062" xlink:href="#DejaVuSans-48"/>
       <use x="147.412109" xlink:href="#DejaVuSans-46"/>
       <use x="179.199219" xlink:href="#DejaVuSans-51"/>
      </g>
     </g>
    </g>
    <g id="ytick_5">
     <g id="line2d_11">
      <g>
       <use style="stroke:#000000;stroke-width:0.8;" x="57.6" xlink:href="#m228c89def9" y="99.183039"/>
      </g>
     </g>
     <g id="text_11">
      <!-- −0.2 -->
      <g transform="translate(26.317187 102.982258)scale(0.1 -0.1)">
       <use xlink:href="#DejaVuSans-8722"/>
       <use x="83.789062" xlink:href="#DejaVuSans-48"/>
       <use x="147.412109" xlink:href="#DejaVuSans-46"/>
       <use x="179.199219" xlink:href="#DejaVuSans-50"/>
      </g>
     </g>
    </g>
    <g id="ytick_6">
     <g id="line2d_12">
      <g>
       <use style="stroke:#000000;stroke-width:0.8;" x="57.6" xlink:href="#m228c89def9" y="55.093662"/>
      </g>
     </g>
     <g id="text_12">
      <!-- −0.1 -->
      <g transform="translate(26.317187 58.89288)scale(0.1 -0.1)">
       <use xlink:href="#DejaVuSans-8722"/>
       <use x="83.789062" xlink:href="#DejaVuSans-48"/>
       <use x="147.412109" xlink:href="#DejaVuSans-46"/>
       <use x="179.199219" xlink:href="#DejaVuSans-49"/>
      </g>
     </g>
    </g>
   </g>
   <g id="line2d_13">
    <path clip-path="url(#p7c94970279)" d="M 87.36 68.386812 
L 91.824 125.520572 
L 93.312 141.685473 
L 94.8 154.090006 
L 96.288 161.905749 
L 97.776 164.901891 
L 99.264 163.439345 
L 100.752 158.353138 
L 102.24 150.77284 
L 105.216 133.022432 
L 106.704 125.06015 
L 108.192 118.850941 
L 109.68 114.957305 
L 111.168 113.69956 
L 112.656 115.156167 
L 114.144 119.158985 
L 115.632 125.290975 
L 117.12 132.90276 
L 120.096 149.147031 
L 121.584 155.959447 
L 123.072 160.870296 
L 124.56 163.442911 
L 126.048 163.62003 
L 127.536 161.740756 
L 129.024 158.475605 
L 130.512 154.690304 
L 132 151.269813 
L 133.488 148.944748 
L 134.976 148.161009 
L 136.464 149.021042 
L 137.952 151.304306 
L 139.44 154.552049 
L 142.416 161.627886 
L 143.904 164.391025 
L 145.392 166.13261 
L 146.88 166.663507 
L 148.368 165.928861 
L 149.856 163.975774 
L 151.344 160.922703 
L 152.832 156.937929 
L 154.32 152.226949 
L 157.296 141.584404 
L 160.272 131.039246 
L 161.76 126.427385 
L 163.248 122.540274 
L 164.736 119.546775 
L 166.224 117.578785 
L 167.712 116.732914 
L 169.2 117.070998 
L 170.688 118.618222 
L 172.176 121.360741 
L 173.664 125.246123 
L 175.152 130.188602 
L 176.64 136.078134 
L 178.128 142.790141 
L 181.104 158.15273 
L 184.08 175.205451 
L 190.032 210.29378 
L 193.008 226.624612 
L 195.984 241.338252 
L 197.472 247.963103 
L 198.96 254.053343 
L 200.448 259.587773 
L 201.936 264.556208 
L 203.424 268.957786 
L 204.912 272.798446 
L 206.4 276.088882 
L 207.888 278.84377 
L 209.376 281.081874 
L 210.864 282.826028 
L 212.352 284.102292 
L 213.84 284.938625 
L 215.328 285.363928 
L 216.816 285.408 
L 218.304 285.102021 
L 219.792 284.478644 
L 221.28 283.571074 
L 222.768 282.41137 
L 224.256 281.028901 
L 225.744 279.449769 
L 228.72 275.794003 
L 231.696 271.620998 
L 236.16 264.764143 
L 246.576 248.310508 
L 251.04 241.774263 
L 254.016 237.725656 
L 256.992 233.967144 
L 259.968 230.522823 
L 262.944 227.406466 
L 265.92 224.623553 
L 268.896 222.171474 
L 271.872 220.043761 
L 274.848 218.235019 
L 277.824 216.736918 
L 280.8 215.533461 
L 283.776 214.606275 
L 286.752 213.939593 
L 289.728 213.516837 
L 292.704 213.318402 
L 295.68 213.324036 
L 298.656 213.513672 
L 301.632 213.867679 
L 306.096 214.666417 
L 310.56 215.730222 
L 315.024 216.999124 
L 320.976 218.924386 
L 329.904 222.094931 
L 353.712 230.878244 
L 358.176 232.66732 
L 371.568 238.363547 
L 374.544 240.008485 
L 377.52 242.072266 
L 381.984 245.363555 
L 383.472 246.247593 
L 384.96 246.914959 
L 384.96 246.914959 
" style="fill:none;stroke:#333333;stroke-linecap:square;stroke-width:1.5;"/>
   </g>
   <g id="line2d_14">
    <path clip-path="url(#p7c94970279)" d="M 87.36 68.386808 
L 94.8 154.090011 
L 105.216 133.02243 
L 114.144 119.158983 
L 124.56 163.442915 
L 133.488 148.944745 
L 142.416 161.627888 
L 152.832 156.937929 
L 161.76 126.427384 
L 170.688 118.618221 
L 179.616 150.193058 
L 190.032 210.293781 
L 198.96 254.053343 
L 207.888 278.84377 
L 216.816 285.408 
L 227.232 277.697441 
L 236.16 264.764143 
L 245.088 250.589875 
L 255.504 235.808354 
L 264.432 225.973319 
L 274.848 218.235019 
L 285.264 214.241327 
L 294.192 213.296963 
L 303.12 214.100522 
L 312.048 216.13306 
L 320.976 218.924386 
L 329.904 222.094931 
L 338.832 225.388887 
L 347.76 228.698991 
L 358.176 232.66732 
L 367.104 236.438533 
L 376.032 240.993803 
L 384.96 246.914959 
" style="fill:none;stroke:#666666;stroke-linecap:square;stroke-width:1.5;"/>
    <defs>
     <path d="M 0 3 
C 0.795609 3 1.55874 2.683901 2.12132 2.12132 
C 2.683901 1.55874 3 0.795609 3 0 
C 3 -0.795609 2.683901 -1.55874 2.12132 -2.12132 
C 1.55874 -2.683901 0.795609 -3 0 -3 
C -0.795609 -3 -1.55874 -2.683901 -2.12132 -2.12132 
C -2.683901 -1.55874 -3 -0.795609 -3 0 
C -3 0.795609 -2.683901 1.55874 -2.12132 2.12132 
C -1.55874 2.683901 -0.795609 3 0 3 
z
" id="m4f41a75760" style="stroke:#666666;"/>
    </defs>
    <g clip-path="url(#p7c94970279)">
     <use style="fill:#666666;stroke:#666666;" x="87.36" xlink:href="#m4f41a75760" y="68.386808"/>
     <use style="fill:#666666;stroke:#666666;" x="94.8" xlink:href="#m4f41a75760" y="154.090011"/>
     <use style="fill:#666666;stroke:#666666;" x="105.216" xlink:href="#m4f41a75760" y="133.02243"/>
     <use style="fill:#666666;stroke:#666666;" x="114.144" xlink:href="#m4f41a75760" y="119.158983"/>
     <use style="fill:#666666;stroke:#666666;" x="124.56" xlink:href="#m4f41a75760" y="163.442915"/>
     <use style="fill:#666666;stroke:#666666;" x="133.488" xlink:href="#m4f41a75760" y="148.944745"/>
     <use style="fill:#666666;stroke:#666666;" x="142.416" xlink:href="#m4f41a75760" y="161.627888"/>
     <use style="fill:#666666;stroke:#666666;" x="152.832" xlink:href="#m4f41a75760" y="156.937929"/>
     <use style="fill:#666666;stroke:#666666;" x="161.76" xlink:href="#m4f41a75760" y="126.427384"/>
     <use style="fill:#666666;stroke:#666666;" x="170.688" xlink:href="#m4f41a75760" y="118.618221"/>
     <use style="fill:#666666;stroke:#666666;" x="179.616" xlink:href="#m4f41a75760" y="150.193058"/>
     <use style="fill:#666666;stroke:#666666;" x="190.032" xlink:href="#m4f41a75760" y="210.293781"/>
     <use style="fill:#666666;stroke:#666666;" x="198.96" xlink:href="#m4f41a75760" y="254.053343"/>
     <use style="fill:#666666;stroke:#666666;" x="207.888" xlink:href="#m4f41a75760" y="278.84377"/>
     <use style="fill:#666666;stroke:#666666;" x="216.816" xlink:href="#m4f41a75760" y="285.408"/>
     <use style="fill:#666666;stroke:#666666;" x="227.232" xlink:href="#m4f41a75760" y="277.697441"/>
     <use style="fill:#666666;stroke:#666666;" x="236.16" xlink:href="#m4f41a75760" y="264.764143"/>
     <use style="fill:#666666;stroke:#666666;" x="245.088" xlink:href="#m4f41a75760" y="250.589875"/>
     <use style="fill:#666666;stroke:#666666;" x="255.504" xlink:href="#m4f41a75760" y="235.808354"/>
     <use style="fill:#666666;stroke:#666666;" x="264.432" xlink:href="#m4f41a75760" y="225.973319"/>
     <use style="fill:#666666;stroke:#666666;" x="274.848" xlink:href="#m4f41a75760" y="218.235019"/>
     <use style="fill:#666666;stroke:#666666;" x="285.264" xlink:href="#m4f41a75760" y="214.241327"/>
     <use style="fill:#666666;stroke:#666666;" x="294.192" xlink:href="#m4f41a75760" y="213.296963"/>
     <use style="fill:#666666;stroke:#666666;" x="303.12" xlink:href="#m4f41a75760" y="214.100522"/>
     <use style="fill:#666666;stroke:#666666;" x="312.048" xlink:href="#m4f41a75760" y="216.13306"/>
     <use style="fill:#666666;stroke:#666666;" x="320.976" xlink:href="#m4f41a75760" y="218.924386"/>
     <use style="fill:#666666;stroke:#666666;" x="329.904" xlink:href="#m4f41a75760" y="222.094931"/>
     <use style="fill:#666666;stroke:#666666;" x="338.832" xlink:href="#m4f41a75760" y="225.388887"/>
     <use style="fill:#666666;stroke:#666666;" x="347.76" xlink:href="#m4f41a75760" y="228.698991"/>
     <use style="fill:#666666;stroke:#666666;" x="358.176" xlink:href="#m4f41a75760" y="232.66732"/>
     <use style="fill:#666666;stroke:#666666;" x="367.104" xlink:href="#m4f41a75760" y="236.438533"/>
     <use style="fill:#666666;stroke:#666666;" x="376.032" xlink:href="#m4f41a75760" y="240.993803"/>
     <use style="fill:#666666;stroke:#666666;" x="384.96" xlink:href="#m4f41a75760" y="246.914959"/>
    </g>
   </g>
   <g id="line2d_15">
    <path clip-path="url(#p7c94970279)" d="M 87.36 68.386808 
L 88.848 63.648 
L 90.336 74.659995 
L 91.824 97.463302 
L 94.8 154.090011 
L 96.288 176.147546 
L 97.776 188.806834 
L 99.264 190.930267 
L 100.752 183.506632 
L 102.24 169.10037 
L 105.216 133.02243 
L 106.704 117.790473 
L 108.192 107.438272 
L 109.68 102.895959 
L 111.168 104.052274 
L 112.656 109.964789 
L 114.144 119.158983 
L 117.12 140.722975 
L 118.608 150.163556 
L 120.096 157.374917 
L 121.584 161.928137 
L 123.072 163.830714 
L 124.56 163.442915 
L 126.048 161.363643 
L 127.536 158.30758 
L 129.024 154.991422 
L 130.512 152.041703 
L 132 149.931065 
L 133.488 148.944745 
L 134.976 149.175029 
L 136.464 150.538638 
L 137.952 152.810552 
L 140.928 158.734008 
L 142.416 161.627888 
L 143.904 163.997552 
L 145.392 165.552338 
L 146.88 166.082488 
L 148.368 165.469518 
L 149.856 163.687734 
L 151.344 160.798343 
L 152.832 156.937929 
L 154.32 152.303156 
L 157.296 141.693275 
L 160.272 131.084617 
L 161.76 126.427384 
L 163.248 122.499517 
L 164.736 119.480315 
L 166.224 117.508046 
L 167.712 116.678194 
L 169.2 117.043905 
L 170.688 118.618221 
L 172.176 121.377691 
L 173.664 125.266952 
L 175.152 130.203908 
L 176.64 136.085175 
L 178.128 142.791518 
L 181.104 158.154081 
L 184.08 175.207797 
L 190.032 210.293781 
L 193.008 226.630863 
L 195.984 241.342749 
L 197.472 247.964664 
L 198.96 254.053343 
L 200.448 259.588647 
L 201.936 264.559561 
L 203.424 268.963226 
L 204.912 272.80395 
L 206.4 276.092223 
L 207.888 278.84377 
L 209.376 281.078648 
L 210.864 282.820407 
L 212.352 284.095309 
L 213.84 284.93163 
L 215.328 285.35903 
L 216.816 285.408 
L 218.304 285.109375 
L 219.792 284.493926 
L 221.28 283.592006 
L 222.768 282.433265 
L 224.256 281.046413 
L 225.744 279.459032 
L 228.72 275.786586 
L 231.696 271.609637 
L 236.16 264.764143 
L 246.576 248.307645 
L 251.04 241.769017 
L 254.016 237.723759 
L 256.992 233.968658 
L 259.968 230.525594 
L 262.944 227.407928 
L 265.92 224.621927 
L 268.896 222.168009 
L 271.872 220.041796 
L 274.848 218.235019 
L 277.824 216.736279 
L 280.8 215.531693 
L 283.776 214.605439 
L 286.752 213.940221 
L 289.728 213.517672 
L 292.704 213.318699 
L 295.68 213.323786 
L 298.656 213.513272 
L 301.632 213.867586 
L 306.096 214.666146 
L 310.56 215.729832 
L 315.024 217.000155 
L 320.976 218.924386 
L 329.904 222.094931 
L 353.712 230.935994 
L 361.152 233.866976 
L 367.104 236.438533 
L 371.568 238.585221 
L 376.032 240.993803 
L 380.496 243.741768 
L 383.472 245.804367 
L 384.96 246.914959 
L 384.96 246.914959 
" style="fill:none;stroke:#000000;stroke-linecap:square;stroke-width:1.5;"/>
   </g>
   <g id="line2d_16">
    <path clip-path="url(#p7c94970279)" d="M 303.12 214.100522 
L 303.12 214.100522 
" style="fill:none;stroke:#ff00ff;stroke-linecap:square;stroke-width:1.5;"/>
    <defs>
     <path d="M 0 3 
C 0.795609 3 1.55874 2.683901 2.12132 2.12132 
C 2.683901 1.55874 3 0.795609 3 0 
C 3 -0.795609 2.683901 -1.55874 2.12132 -2.12132 
C 1.55874 -2.683901 0.795609 -3 0 -3 
C -0.795609 -3 -1.55874 -2.683901 -2.12132 -2.12132 
C -2.683901 -1.55874 -3 -0.795609 -3 0 
C -3 0.795609 -2.683901 1.55874 -2.12132 2.12132 
C -1.55874 2.683901 -0.795609 3 0 3 
z
" id="m0f2f41350c" style="stroke:#ff00ff;"/>
    </defs>
    <g clip-path="url(#p7c94970279)">
     <use style="fill:#ff00ff;stroke:#ff00ff;" x="303.12" xlink:href="#m0f2f41350c" y="214.100522"/>
     <use style="fill:#ff00ff;stroke:#ff00ff;" x="303.12" xlink:href="#m0f2f41350c" y="214.100522"/>
    </g>
   </g>
   <g id="patch_3">
    <path d="M 57.6 307.584 
L 57.6 41.472 
" style="fill:none;stroke:#000000;stroke-linecap:square;stroke-linejoin:miter;stroke-width:0.8;"/>
   </g>
   <g id="patch_4">
    <path d="M 414.72 307.584 
L 414.72 41.472 
" style="fill:none;stroke:#000000;stroke-linecap:square;stroke-linejoin:miter;stroke-width:0.8;"/>
   </g>
   <g id="patch_5">
    <path d="M 57.6 307.584 
L 414.72 307.584 
" style="fill:none;stroke:#000000;stroke-linecap:square;stroke-linejoin:miter;stroke-width:0.8;"/>
   </g>
   <g id="patch_6">
    <path d="M 57.6 41.472 
L 414.72 41.472 
" style="fill:none;stroke:#000000;stroke-linecap:square;stroke-linejoin:miter;stroke-width:0.8;"/>
   </g>
   <g id="legend_1">
    <g id="patch_7">
     <path d="M 279.791875 122.8845 
L 407.72 122.8845 
Q 409.72 122.8845 409.72 120.8845 
L 409.72 48.472 
Q 409.72 46.472 407.72 46.472 
L 279.791875 46.472 
Q 277.791875 46.472 277.791875 48.472 
L 277.791875 120.8845 
Q 277.791875 122.8845 279.791875 122.8845 
z
" style="fill:#ffffff;opacity:0.8;stroke:#cccccc;stroke-linejoin:miter;"/>
    </g>
    <g id="line2d_17">
     <path d="M 281.791875 54.570438 
L 301.791875 54.570438 
" style="fill:none;stroke:#333333;stroke-linecap:square;stroke-width:1.5;"/>
    </g>
    <g id="line2d_18"/>
    <g id="text_13">
     <!-- GP predicted mean -->
     <defs>
      <path d="M 59.515625 10.40625 
L 59.515625 29.984375 
L 43.40625 29.984375 
L 43.40625 38.09375 
L 69.28125 38.09375 
L 69.28125 6.78125 
Q 63.578125 2.734375 56.6875 0.65625 
Q 49.8125 -1.421875 42 -1.421875 
Q 24.90625 -1.421875 15.25 8.5625 
Q 5.609375 18.5625 5.609375 36.375 
Q 5.609375 54.25 15.25 64.234375 
Q 24.90625 74.21875 42 74.21875 
Q 49.125 74.21875 55.546875 72.453125 
Q 61.96875 70.703125 67.390625 67.28125 
L 67.390625 56.78125 
Q 61.921875 61.421875 55.765625 63.765625 
Q 49.609375 66.109375 42.828125 66.109375 
Q 29.4375 66.109375 22.71875 58.640625 
Q 16.015625 51.171875 16.015625 36.375 
Q 16.015625 21.625 22.71875 14.15625 
Q 29.4375 6.6875 42.828125 6.6875 
Q 48.046875 6.6875 52.140625 7.59375 
Q 56.25 8.5 59.515625 10.40625 
z
" id="DejaVuSans-71"/>
      <path d="M 19.671875 64.796875 
L 19.671875 37.40625 
L 32.078125 37.40625 
Q 38.96875 37.40625 42.71875 40.96875 
Q 46.484375 44.53125 46.484375 51.125 
Q 46.484375 57.671875 42.71875 61.234375 
Q 38.96875 64.796875 32.078125 64.796875 
z
M 9.8125 72.90625 
L 32.078125 72.90625 
Q 44.34375 72.90625 50.609375 67.359375 
Q 56.890625 61.8125 56.890625 51.125 
Q 56.890625 40.328125 50.609375 34.8125 
Q 44.34375 29.296875 32.078125 29.296875 
L 19.671875 29.296875 
L 19.671875 0 
L 9.8125 0 
z
" id="DejaVuSans-80"/>
      <path id="DejaVuSans-32"/>
      <path d="M 18.109375 8.203125 
L 18.109375 -20.796875 
L 9.078125 -20.796875 
L 9.078125 54.6875 
L 18.109375 54.6875 
L 18.109375 46.390625 
Q 20.953125 51.265625 25.265625 53.625 
Q 29.59375 56 35.59375 56 
Q 45.5625 56 51.78125 48.09375 
Q 58.015625 40.1875 58.015625 27.296875 
Q 58.015625 14.40625 51.78125 6.484375 
Q 45.5625 -1.421875 35.59375 -1.421875 
Q 29.59375 -1.421875 25.265625 0.953125 
Q 20.953125 3.328125 18.109375 8.203125 
z
M 48.6875 27.296875 
Q 48.6875 37.203125 44.609375 42.84375 
Q 40.53125 48.484375 33.40625 48.484375 
Q 26.265625 48.484375 22.1875 42.84375 
Q 18.109375 37.203125 18.109375 27.296875 
Q 18.109375 17.390625 22.1875 11.75 
Q 26.265625 6.109375 33.40625 6.109375 
Q 40.53125 6.109375 44.609375 11.75 
Q 48.6875 17.390625 48.6875 27.296875 
z
" id="DejaVuSans-112"/>
      <path d="M 41.109375 46.296875 
Q 39.59375 47.171875 37.8125 47.578125 
Q 36.03125 48 33.890625 48 
Q 26.265625 48 22.1875 43.046875 
Q 18.109375 38.09375 18.109375 28.8125 
L 18.109375 0 
L 9.078125 0 
L 9.078125 54.6875 
L 18.109375 54.6875 
L 18.109375 46.1875 
Q 20.953125 51.171875 25.484375 53.578125 
Q 30.03125 56 36.53125 56 
Q 37.453125 56 38.578125 55.875 
Q 39.703125 55.765625 41.0625 55.515625 
z
" id="DejaVuSans-114"/>
      <path d="M 56.203125 29.59375 
L 56.203125 25.203125 
L 14.890625 25.203125 
Q 15.484375 15.921875 20.484375 11.0625 
Q 25.484375 6.203125 34.421875 6.203125 
Q 39.59375 6.203125 44.453125 7.46875 
Q 49.3125 8.734375 54.109375 11.28125 
L 54.109375 2.78125 
Q 49.265625 0.734375 44.1875 -0.34375 
Q 39.109375 -1.421875 33.890625 -1.421875 
Q 20.796875 -1.421875 13.15625 6.1875 
Q 5.515625 13.8125 5.515625 26.8125 
Q 5.515625 40.234375 12.765625 48.109375 
Q 20.015625 56 32.328125 56 
Q 43.359375 56 49.78125 48.890625 
Q 56.203125 41.796875 56.203125 29.59375 
z
M 47.21875 32.234375 
Q 47.125 39.59375 43.09375 43.984375 
Q 39.0625 48.390625 32.421875 48.390625 
Q 24.90625 48.390625 20.390625 44.140625 
Q 15.875 39.890625 15.1875 32.171875 
z
" id="DejaVuSans-101"/>
      <path d="M 45.40625 46.390625 
L 45.40625 75.984375 
L 54.390625 75.984375 
L 54.390625 0 
L 45.40625 0 
L 45.40625 8.203125 
Q 42.578125 3.328125 38.25 0.953125 
Q 33.9375 -1.421875 27.875 -1.421875 
Q 17.96875 -1.421875 11.734375 6.484375 
Q 5.515625 14.40625 5.515625 27.296875 
Q 5.515625 40.1875 11.734375 48.09375 
Q 17.96875 56 27.875 56 
Q 33.9375 56 38.25 53.625 
Q 42.578125 51.265625 45.40625 46.390625 
z
M 14.796875 27.296875 
Q 14.796875 17.390625 18.875 11.75 
Q 22.953125 6.109375 30.078125 6.109375 
Q 37.203125 6.109375 41.296875 11.75 
Q 45.40625 17.390625 45.40625 27.296875 
Q 45.40625 37.203125 41.296875 42.84375 
Q 37.203125 48.484375 30.078125 48.484375 
Q 22.953125 48.484375 18.875 42.84375 
Q 14.796875 37.203125 14.796875 27.296875 
z
" id="DejaVuSans-100"/>
      <path d="M 9.421875 54.6875 
L 18.40625 54.6875 
L 18.40625 0 
L 9.421875 0 
z
M 9.421875 75.984375 
L 18.40625 75.984375 
L 18.40625 64.59375 
L 9.421875 64.59375 
z
" id="DejaVuSans-105"/>
      <path d="M 48.78125 52.59375 
L 48.78125 44.1875 
Q 44.96875 46.296875 41.140625 47.34375 
Q 37.3125 48.390625 33.40625 48.390625 
Q 24.65625 48.390625 19.8125 42.84375 
Q 14.984375 37.3125 14.984375 27.296875 
Q 14.984375 17.28125 19.8125 11.734375 
Q 24.65625 6.203125 33.40625 6.203125 
Q 37.3125 6.203125 41.140625 7.25 
Q 44.96875 8.296875 48.78125 10.40625 
L 48.78125 2.09375 
Q 45.015625 0.34375 40.984375 -0.53125 
Q 36.96875 -1.421875 32.421875 -1.421875 
Q 20.0625 -1.421875 12.78125 6.34375 
Q 5.515625 14.109375 5.515625 27.296875 
Q 5.515625 40.671875 12.859375 48.328125 
Q 20.21875 56 33.015625 56 
Q 37.15625 56 41.109375 55.140625 
Q 45.0625 54.296875 48.78125 52.59375 
z
" id="DejaVuSans-99"/>
      <path d="M 18.3125 70.21875 
L 18.3125 54.6875 
L 36.8125 54.6875 
L 36.8125 47.703125 
L 18.3125 47.703125 
L 18.3125 18.015625 
Q 18.3125 11.328125 20.140625 9.421875 
Q 21.96875 7.515625 27.59375 7.515625 
L 36.8125 7.515625 
L 36.8125 0 
L 27.59375 0 
Q 17.1875 0 13.234375 3.875 
Q 9.28125 7.765625 9.28125 18.015625 
L 9.28125 47.703125 
L 2.6875 47.703125 
L 2.6875 54.6875 
L 9.28125 54.6875 
L 9.28125 70.21875 
z
" id="DejaVuSans-116"/>
      <path d="M 52 44.1875 
Q 55.375 50.25 60.0625 53.125 
Q 64.75 56 71.09375 56 
Q 79.640625 56 84.28125 50.015625 
Q 88.921875 44.046875 88.921875 33.015625 
L 88.921875 0 
L 79.890625 0 
L 79.890625 32.71875 
Q 79.890625 40.578125 77.09375 44.375 
Q 74.3125 48.1875 68.609375 48.1875 
Q 61.625 48.1875 57.5625 43.546875 
Q 53.515625 38.921875 53.515625 30.90625 
L 53.515625 0 
L 44.484375 0 
L 44.484375 32.71875 
Q 44.484375 40.625 41.703125 44.40625 
Q 38.921875 48.1875 33.109375 48.1875 
Q 26.21875 48.1875 22.15625 43.53125 
Q 18.109375 38.875 18.109375 30.90625 
L 18.109375 0 
L 9.078125 0 
L 9.078125 54.6875 
L 18.109375 54.6875 
L 18.109375 46.1875 
Q 21.1875 51.21875 25.484375 53.609375 
Q 29.78125 56 35.6875 56 
Q 41.65625 56 45.828125 52.96875 
Q 50 49.953125 52 44.1875 
z
" id="DejaVuSans-109"/>
      <path d="M 34.28125 27.484375 
Q 23.390625 27.484375 19.1875 25 
Q 14.984375 22.515625 14.984375 16.5 
Q 14.984375 11.71875 18.140625 8.90625 
Q 21.296875 6.109375 26.703125 6.109375 
Q 34.1875 6.109375 38.703125 11.40625 
Q 43.21875 16.703125 43.21875 25.484375 
L 43.21875 27.484375 
z
M 52.203125 31.203125 
L 52.203125 0 
L 43.21875 0 
L 43.21875 8.296875 
Q 40.140625 3.328125 35.546875 0.953125 
Q 30.953125 -1.421875 24.3125 -1.421875 
Q 15.921875 -1.421875 10.953125 3.296875 
Q 6 8.015625 6 15.921875 
Q 6 25.140625 12.171875 29.828125 
Q 18.359375 34.515625 30.609375 34.515625 
L 43.21875 34.515625 
L 43.21875 35.40625 
Q 43.21875 41.609375 39.140625 45 
Q 35.0625 48.390625 27.6875 48.390625 
Q 23 48.390625 18.546875 47.265625 
Q 14.109375 46.140625 10.015625 43.890625 
L 10.015625 52.203125 
Q 14.9375 54.109375 19.578125 55.046875 
Q 24.21875 56 28.609375 56 
Q 40.484375 56 46.34375 49.84375 
Q 52.203125 43.703125 52.203125 31.203125 
z
" id="DejaVuSans-97"/>
      <path d="M 54.890625 33.015625 
L 54.890625 0 
L 45.90625 0 
L 45.90625 32.71875 
Q 45.90625 40.484375 42.875 44.328125 
Q 39.84375 48.1875 33.796875 48.1875 
Q 26.515625 48.1875 22.3125 43.546875 
Q 18.109375 38.921875 18.109375 30.90625 
L 18.109375 0 
L 9.078125 0 
L 9.078125 54.6875 
L 18.109375 54.6875 
L 18.109375 46.1875 
Q 21.34375 51.125 25.703125 53.5625 
Q 30.078125 56 35.796875 56 
Q 45.21875 56 50.046875 50.171875 
Q 54.890625 44.34375 54.890625 33.015625 
z
" id="DejaVuSans-110"/>
     </defs>
     <g transform="translate(309.791875 58.070438)scale(0.1 -0.1)">
      <use xlink:href="#DejaVuSans-71"/>
      <use x="77.490234" xlink:href="#DejaVuSans-80"/>
      <use x="137.792969" xlink:href="#DejaVuSans-32"/>
      <use x="169.580078" xlink:href="#DejaVuSans-112"/>
      <use x="233.056641" xlink:href="#DejaVuSans-114"/>
      <use x="271.919922" xlink:href="#DejaVuSans-101"/>
      <use x="333.443359" xlink:href="#DejaVuSans-100"/>
      <use x="396.919922" xlink:href="#DejaVuSans-105"/>
      <use x="424.703125" xlink:href="#DejaVuSans-99"/>
      <use x="479.683594" xlink:href="#DejaVuSans-116"/>
      <use x="518.892578" xlink:href="#DejaVuSans-101"/>
      <use x="580.416016" xlink:href="#DejaVuSans-100"/>
      <use x="643.892578" xlink:href="#DejaVuSans-32"/>
      <use x="675.679688" xlink:href="#DejaVuSans-109"/>
      <use x="773.091797" xlink:href="#DejaVuSans-101"/>
      <use x="834.615234" xlink:href="#DejaVuSans-97"/>
      <use x="895.894531" xlink:href="#DejaVuSans-110"/>
     </g>
    </g>
    <g id="line2d_19">
     <path d="M 281.791875 69.248563 
L 301.791875 69.248563 
" style="fill:none;stroke:#666666;stroke-linecap:square;stroke-width:1.5;"/>
    </g>
    <g id="line2d_20">
     <g>
      <use style="fill:#666666;stroke:#666666;" x="291.791875" xlink:href="#m4f41a75760" y="69.248563"/>
     </g>
    </g>
    <g id="text_14">
     <!-- local linear approx. -->
     <defs>
      <path d="M 9.421875 75.984375 
L 18.40625 75.984375 
L 18.40625 0 
L 9.421875 0 
z
" id="DejaVuSans-108"/>
      <path d="M 30.609375 48.390625 
Q 23.390625 48.390625 19.1875 42.75 
Q 14.984375 37.109375 14.984375 27.296875 
Q 14.984375 17.484375 19.15625 11.84375 
Q 23.34375 6.203125 30.609375 6.203125 
Q 37.796875 6.203125 41.984375 11.859375 
Q 46.1875 17.53125 46.1875 27.296875 
Q 46.1875 37.015625 41.984375 42.703125 
Q 37.796875 48.390625 30.609375 48.390625 
z
M 30.609375 56 
Q 42.328125 56 49.015625 48.375 
Q 55.71875 40.765625 55.71875 27.296875 
Q 55.71875 13.875 49.015625 6.21875 
Q 42.328125 -1.421875 30.609375 -1.421875 
Q 18.84375 -1.421875 12.171875 6.21875 
Q 5.515625 13.875 5.515625 27.296875 
Q 5.515625 40.765625 12.171875 48.375 
Q 18.84375 56 30.609375 56 
z
" id="DejaVuSans-111"/>
      <path d="M 54.890625 54.6875 
L 35.109375 28.078125 
L 55.90625 0 
L 45.3125 0 
L 29.390625 21.484375 
L 13.484375 0 
L 2.875 0 
L 24.125 28.609375 
L 4.6875 54.6875 
L 15.28125 54.6875 
L 29.78125 35.203125 
L 44.28125 54.6875 
z
" id="DejaVuSans-120"/>
     </defs>
     <g transform="translate(309.791875 72.748563)scale(0.1 -0.1)">
      <use xlink:href="#DejaVuSans-108"/>
      <use x="27.783203" xlink:href="#DejaVuSans-111"/>
      <use x="88.964844" xlink:href="#DejaVuSans-99"/>
      <use x="143.945312" xlink:href="#DejaVuSans-97"/>
      <use x="205.224609" xlink:href="#DejaVuSans-108"/>
      <use x="233.007812" xlink:href="#DejaVuSans-32"/>
      <use x="264.794922" xlink:href="#DejaVuSans-108"/>
      <use x="292.578125" xlink:href="#DejaVuSans-105"/>
      <use x="320.361328" xlink:href="#DejaVuSans-110"/>
      <use x="383.740234" xlink:href="#DejaVuSans-101"/>
      <use x="445.263672" xlink:href="#DejaVuSans-97"/>
      <use x="506.542969" xlink:href="#DejaVuSans-114"/>
      <use x="547.65625" xlink:href="#DejaVuSans-32"/>
      <use x="579.443359" xlink:href="#DejaVuSans-97"/>
      <use x="640.722656" xlink:href="#DejaVuSans-112"/>
      <use x="704.199219" xlink:href="#DejaVuSans-112"/>
      <use x="767.675781" xlink:href="#DejaVuSans-114"/>
      <use x="806.539062" xlink:href="#DejaVuSans-111"/>
      <use x="864.595703" xlink:href="#DejaVuSans-120"/>
      <use x="923.775391" xlink:href="#DejaVuSans-46"/>
     </g>
    </g>
    <g id="line2d_21">
     <path d="M 281.791875 83.926688 
L 301.791875 83.926688 
" style="fill:none;stroke:#000000;stroke-linecap:square;stroke-width:1.5;"/>
    </g>
    <g id="line2d_22"/>
    <g id="text_15">
     <!-- true function -->
     <defs>
      <path d="M 8.5 21.578125 
L 8.5 54.6875 
L 17.484375 54.6875 
L 17.484375 21.921875 
Q 17.484375 14.15625 20.5 10.265625 
Q 23.53125 6.390625 29.59375 6.390625 
Q 36.859375 6.390625 41.078125 11.03125 
Q 45.3125 15.671875 45.3125 23.6875 
L 45.3125 54.6875 
L 54.296875 54.6875 
L 54.296875 0 
L 45.3125 0 
L 45.3125 8.40625 
Q 42.046875 3.421875 37.71875 1 
Q 33.40625 -1.421875 27.6875 -1.421875 
Q 18.265625 -1.421875 13.375 4.4375 
Q 8.5 10.296875 8.5 21.578125 
z
M 31.109375 56 
z
" id="DejaVuSans-117"/>
      <path d="M 37.109375 75.984375 
L 37.109375 68.5 
L 28.515625 68.5 
Q 23.6875 68.5 21.796875 66.546875 
Q 19.921875 64.59375 19.921875 59.515625 
L 19.921875 54.6875 
L 34.71875 54.6875 
L 34.71875 47.703125 
L 19.921875 47.703125 
L 19.921875 0 
L 10.890625 0 
L 10.890625 47.703125 
L 2.296875 47.703125 
L 2.296875 54.6875 
L 10.890625 54.6875 
L 10.890625 58.5 
Q 10.890625 67.625 15.140625 71.796875 
Q 19.390625 75.984375 28.609375 75.984375 
z
" id="DejaVuSans-102"/>
     </defs>
     <g transform="translate(309.791875 87.426688)scale(0.1 -0.1)">
      <use xlink:href="#DejaVuSans-116"/>
      <use x="39.208984" xlink:href="#DejaVuSans-114"/>
      <use x="80.322266" xlink:href="#DejaVuSans-117"/>
      <use x="143.701172" xlink:href="#DejaVuSans-101"/>
      <use x="205.224609" xlink:href="#DejaVuSans-32"/>
      <use x="237.011719" xlink:href="#DejaVuSans-102"/>
      <use x="272.216797" xlink:href="#DejaVuSans-117"/>
      <use x="335.595703" xlink:href="#DejaVuSans-110"/>
      <use x="398.974609" xlink:href="#DejaVuSans-99"/>
      <use x="453.955078" xlink:href="#DejaVuSans-116"/>
      <use x="493.164062" xlink:href="#DejaVuSans-105"/>
      <use x="520.947266" xlink:href="#DejaVuSans-111"/>
      <use x="582.128906" xlink:href="#DejaVuSans-110"/>
     </g>
    </g>
    <g id="line2d_23">
     <path d="M 281.791875 98.604813 
L 301.791875 98.604813 
" style="fill:none;stroke:#ff00ff;stroke-linecap:square;stroke-width:1.5;"/>
    </g>
    <g id="line2d_24">
     <g>
      <use style="fill:#ff00ff;stroke:#ff00ff;" x="291.791875" xlink:href="#m0f2f41350c" y="98.604813"/>
     </g>
    </g>
    <g id="text_16">
     <!-- new sample -->
     <defs>
      <path d="M 4.203125 54.6875 
L 13.1875 54.6875 
L 24.421875 12.015625 
L 35.59375 54.6875 
L 46.1875 54.6875 
L 57.421875 12.015625 
L 68.609375 54.6875 
L 77.59375 54.6875 
L 63.28125 0 
L 52.6875 0 
L 40.921875 44.828125 
L 29.109375 0 
L 18.5 0 
z
" id="DejaVuSans-119"/>
      <path d="M 44.28125 53.078125 
L 44.28125 44.578125 
Q 40.484375 46.53125 36.375 47.5 
Q 32.28125 48.484375 27.875 48.484375 
Q 21.1875 48.484375 17.84375 46.4375 
Q 14.5 44.390625 14.5 40.28125 
Q 14.5 37.15625 16.890625 35.375 
Q 19.28125 33.59375 26.515625 31.984375 
L 29.59375 31.296875 
Q 39.15625 29.25 43.1875 25.515625 
Q 47.21875 21.78125 47.21875 15.09375 
Q 47.21875 7.46875 41.1875 3.015625 
Q 35.15625 -1.421875 24.609375 -1.421875 
Q 20.21875 -1.421875 15.453125 -0.5625 
Q 10.6875 0.296875 5.421875 2 
L 5.421875 11.28125 
Q 10.40625 8.6875 15.234375 7.390625 
Q 20.0625 6.109375 24.8125 6.109375 
Q 31.15625 6.109375 34.5625 8.28125 
Q 37.984375 10.453125 37.984375 14.40625 
Q 37.984375 18.0625 35.515625 20.015625 
Q 33.0625 21.96875 24.703125 23.78125 
L 21.578125 24.515625 
Q 13.234375 26.265625 9.515625 29.90625 
Q 5.8125 33.546875 5.8125 39.890625 
Q 5.8125 47.609375 11.28125 51.796875 
Q 16.75 56 26.8125 56 
Q 31.78125 56 36.171875 55.265625 
Q 40.578125 54.546875 44.28125 53.078125 
z
" id="DejaVuSans-115"/>
     </defs>
     <g transform="translate(309.791875 102.104813)scale(0.1 -0.1)">
      <use xlink:href="#DejaVuSans-110"/>
      <use x="63.378906" xlink:href="#DejaVuSans-101"/>
      <use x="124.902344" xlink:href="#DejaVuSans-119"/>
      <use x="206.689453" xlink:href="#DejaVuSans-32"/>
      <use x="238.476562" xlink:href="#DejaVuSans-115"/>
      <use x="290.576172" xlink:href="#DejaVuSans-97"/>
      <use x="351.855469" xlink:href="#DejaVuSans-109"/>
      <use x="449.267578" xlink:href="#DejaVuSans-112"/>
      <use x="512.744141" xlink:href="#DejaVuSans-108"/>
      <use x="540.527344" xlink:href="#DejaVuSans-101"/>
     </g>
    </g>
    <g id="patch_8">
     <path d="M 281.791875 116.7845 
L 301.791875 116.7845 
L 301.791875 109.7845 
L 281.791875 109.7845 
z
" style="fill:#347aeb;opacity:0.6;"/>
    </g>
    <g id="text_17">
     <!-- GP predicted 2$\sigma$ -->
     <defs>
      <path d="M 34.671875 47.5625 
Q 27.25 47.5625 22.21875 42.1875 
Q 16.890625 36.578125 15.140625 27.296875 
Q 13.1875 17.484375 16.3125 11.8125 
Q 19.390625 6.203125 26.65625 6.203125 
Q 33.84375 6.203125 39.109375 11.859375 
Q 44.4375 17.53125 46.34375 27.296875 
Q 48.046875 36.234375 45.015625 42.1875 
Q 42.1875 47.5625 34.671875 47.5625 
z
M 36.078125 54.734375 
L 65.921875 54.6875 
L 64.15625 45.703125 
L 54.109375 45.703125 
Q 57.90625 38.09375 55.859375 27.296875 
Q 53.21875 13.875 45.0625 6.25 
Q 36.859375 -1.421875 25.140625 -1.421875 
Q 13.375 -1.421875 8.203125 6.25 
Q 3.03125 13.875 5.671875 27.296875 
Q 8.25 40.765625 16.40625 48.390625 
Q 23.1875 54.734375 36.078125 54.734375 
z
" id="DejaVuSans-Oblique-963"/>
     </defs>
     <g transform="translate(309.791875 116.7845)scale(0.1 -0.1)">
      <use transform="translate(0 0.015625)" xlink:href="#DejaVuSans-71"/>
      <use transform="translate(77.490234 0.015625)" xlink:href="#DejaVuSans-80"/>
      <use transform="translate(137.792969 0.015625)" xlink:href="#DejaVuSans-32"/>
      <use transform="translate(169.580078 0.015625)" xlink:href="#DejaVuSans-112"/>
      <use transform="translate(233.056641 0.015625)" xlink:href="#DejaVuSans-114"/>
      <use transform="translate(274.169922 0.015625)" xlink:href="#DejaVuSans-101"/>
      <use transform="translate(335.693359 0.015625)" xlink:href="#DejaVuSans-100"/>
      <use transform="translate(399.169922 0.015625)" xlink:href="#DejaVuSans-105"/>
      <use transform="translate(426.953125 0.015625)" xlink:href="#DejaVuSans-99"/>
      <use transform="translate(481.933594 0.015625)" xlink:href="#DejaVuSans-116"/>
      <use transform="translate(521.142578 0.015625)" xlink:href="#DejaVuSans-101"/>
      <use transform="translate(582.666016 0.015625)" xlink:href="#DejaVuSans-100"/>
      <use transform="translate(646.142578 0.015625)" xlink:href="#DejaVuSans-32"/>
      <use transform="translate(677.929688 0.015625)" xlink:href="#DejaVuSans-50"/>
      <use transform="translate(741.552734 0.015625)" xlink:href="#DejaVuSans-Oblique-963"/>
     </g>
    </g>
   </g>
  </g>
 </g>
 <defs>
  <clipPath id="p7c94970279">
   <rect height="266.112" width="357.12" x="57.6" y="41.472"/>
  </clipPath>
 </defs>
</svg>
