<?xml version="1.0" encoding="utf-8" standalone="no"?>
<!DOCTYPE svg PUBLIC "-//W3C//DTD SVG 1.1//EN"
  "http://www.w3.org/Graphics/SVG/1.1/DTD/svg11.dtd">
<!-- Created with matplotlib (https://matplotlib.org/) -->
<svg height="432pt" version="1.1" viewBox="0 0 576 432" width="576pt" xmlns="http://www.w3.org/2000/svg" xmlns:xlink="http://www.w3.org/1999/xlink">
 <defs>
  <style type="text/css">
*{stroke-linecap:butt;stroke-linejoin:round;}
  </style>
 </defs>
 <g id="figure_1">
  <g id="patch_1">
   <path d="M 0 432 
L 576 432 
L 576 0 
L 0 0 
z
" style="fill:#ffffff;"/>
  </g>
  <g id="axes_1">
   <g id="patch_2">
    <path d="M 72 384.48 
L 518.4 384.48 
L 518.4 51.84 
L 72 51.84 
z
" style="fill:#ffffff;"/>
   </g>
   <g id="PolyCollection_1">
    <path clip-path="url(#p5f67b7dba7)" d="M 72 144.425593 
L 72 142.487014 
L 80.928 142.311345 
L 89.856 140.897914 
L 98.784 140.035103 
L 107.712 139.887117 
L 116.64 139.548937 
L 125.568 138.044587 
L 134.496 138.366701 
L 143.424 136.518761 
L 152.352 134.413018 
L 161.28 134.197846 
L 170.208 134.422757 
L 179.136 135.190287 
L 188.064 135.272633 
L 196.992 133.042246 
L 205.92 132.312093 
L 214.848 134.718782 
L 223.776 132.844411 
L 232.704 132.608659 
L 241.632 134.260118 
L 250.56 133.253589 
L 259.488 129.778753 
L 268.416 132.900596 
L 277.344 126.615717 
L 286.272 132.474798 
L 295.2 132.341707 
L 304.128 133.41409 
L 313.056 129.312276 
L 321.984 130.336931 
L 330.912 126.789064 
L 339.84 130.226676 
L 348.768 127.196521 
L 357.696 127.164372 
L 366.624 126.735189 
L 375.552 123.3025 
L 384.48 122.132016 
L 393.408 122.272334 
L 402.336 121.927154 
L 411.264 123.826015 
L 420.192 126.695744 
L 429.12 121.215682 
L 438.048 121.11802 
L 446.976 123.762998 
L 455.904 122.754987 
L 464.832 120.949924 
L 473.76 124.063749 
L 482.688 125.447465 
L 491.616 125.646257 
L 500.544 123.560553 
L 509.472 126.646293 
L 518.4 121.012802 
L 518.4 137.42568 
L 518.4 137.42568 
L 509.472 143.920089 
L 500.544 141.155035 
L 491.616 142.274004 
L 482.688 142.870023 
L 473.76 141.304966 
L 464.832 139.069989 
L 455.904 138.206237 
L 446.976 141.812454 
L 438.048 137.123549 
L 429.12 135.860309 
L 420.192 143.648387 
L 411.264 142.240909 
L 402.336 139.765586 
L 393.408 140.218004 
L 384.48 141.689066 
L 375.552 135.712893 
L 366.624 143.06091 
L 357.696 141.815559 
L 348.768 141.222255 
L 339.84 142.423676 
L 330.912 140.314039 
L 321.984 143.270822 
L 313.056 143.456116 
L 304.128 142.355062 
L 295.2 143.3234 
L 286.272 142.828561 
L 277.344 142.144507 
L 268.416 142.939075 
L 259.488 141.048067 
L 250.56 142.105684 
L 241.632 141.598641 
L 232.704 142.07298 
L 223.776 141.664752 
L 214.848 141.283014 
L 205.92 141.560448 
L 196.992 142.834393 
L 188.064 142.156934 
L 179.136 142.503082 
L 170.208 142.814087 
L 161.28 143.208048 
L 152.352 143.603655 
L 143.424 144.054148 
L 134.496 144.367088 
L 125.568 144.851884 
L 116.64 143.768439 
L 107.712 144.204508 
L 98.784 144.32897 
L 89.856 144.403154 
L 80.928 144.443133 
L 72 144.425593 
z
" style="fill:#1f77b4;fill-opacity:0.3;"/>
   </g>
   <g id="PolyCollection_2">
    <path clip-path="url(#p5f67b7dba7)" d="M 72 130.494489 
L 72 109.266911 
L 80.928 115.609703 
L 89.856 115.610246 
L 98.784 115.610246 
L 107.712 115.610246 
L 116.64 115.61076 
L 125.568 115.611662 
L 134.496 115.611662 
L 143.424 115.61207 
L 152.352 115.611988 
L 161.28 112.521597 
L 170.208 110.269025 
L 179.136 108.827831 
L 188.064 108.855941 
L 196.992 108.537633 
L 205.92 107.694774 
L 214.848 107.066521 
L 223.776 107.007705 
L 232.704 107.238785 
L 241.632 107.335551 
L 250.56 107.787007 
L 259.488 108.377697 
L 268.416 108.257057 
L 277.344 107.403328 
L 286.272 106.935838 
L 295.2 107.015977 
L 304.128 107.037392 
L 313.056 107.067003 
L 321.984 106.357384 
L 330.912 104.25129 
L 339.84 102.436073 
L 348.768 102.313135 
L 357.696 102.01489 
L 366.624 102.026117 
L 375.552 100.783574 
L 384.48 100.717307 
L 393.408 100.531055 
L 402.336 99.487268 
L 411.264 99.604658 
L 420.192 99.122423 
L 429.12 99.115261 
L 438.048 99.309555 
L 446.976 97.692083 
L 455.904 98.006336 
L 464.832 96.49634 
L 473.76 96.134619 
L 482.688 95.020243 
L 491.616 94.811832 
L 500.544 94.394128 
L 509.472 94.132702 
L 518.4 94.197849 
L 518.4 194.414828 
L 518.4 194.414828 
L 509.472 193.978327 
L 500.544 193.311544 
L 491.616 192.064449 
L 482.688 190.894597 
L 473.76 187.45402 
L 464.832 185.506516 
L 455.904 180.54241 
L 446.976 181.006979 
L 438.048 179.273158 
L 429.12 179.895555 
L 420.192 177.895888 
L 411.264 178.786346 
L 402.336 174.943205 
L 393.408 171.383585 
L 384.48 170.577662 
L 375.552 170.869094 
L 366.624 166.669724 
L 357.696 167.505896 
L 348.768 165.134776 
L 339.84 164.174157 
L 330.912 162.122434 
L 321.984 161.336808 
L 313.056 157.62075 
L 304.128 155.523441 
L 295.2 155.87378 
L 286.272 155.791992 
L 277.344 154.341942 
L 268.416 153.45946 
L 259.488 152.617024 
L 250.56 150.74473 
L 241.632 150.569222 
L 232.704 149.689485 
L 223.776 147.584033 
L 214.848 145.455872 
L 205.92 141.209497 
L 196.992 137.194899 
L 188.064 133.673499 
L 179.136 130.233953 
L 170.208 127.010938 
L 161.28 120.31191 
L 152.352 115.631063 
L 143.424 115.628566 
L 134.496 115.628563 
L 125.568 115.628563 
L 116.64 115.628392 
L 107.712 115.628271 
L 98.784 115.628271 
L 89.856 115.628271 
L 80.928 115.619727 
L 72 130.494489 
z
" style="fill:#ff7f0e;fill-opacity:0.3;"/>
   </g>
   <g id="PolyCollection_3">
    <path clip-path="url(#p5f67b7dba7)" d="M 72 153.596598 
L 72 148.994977 
L 80.928 151.335212 
L 89.856 151.066495 
L 98.784 152.10442 
L 107.712 152.662245 
L 116.64 153.755108 
L 125.568 162.054586 
L 134.496 163.402311 
L 143.424 163.564218 
L 152.352 163.754903 
L 161.28 164.413254 
L 170.208 164.921314 
L 179.136 165.523051 
L 188.064 165.902609 
L 196.992 166.224608 
L 205.92 166.443461 
L 214.848 166.687215 
L 223.776 166.832377 
L 232.704 166.973551 
L 241.632 167.084986 
L 250.56 167.174018 
L 259.488 167.213092 
L 268.416 166.332657 
L 277.344 166.393582 
L 286.272 166.453779 
L 295.2 165.227985 
L 304.128 165.463682 
L 313.056 165.753064 
L 321.984 165.985628 
L 330.912 166.236698 
L 339.84 171.826254 
L 348.768 176.564446 
L 357.696 177.009191 
L 366.624 186.265038 
L 375.552 186.83164 
L 384.48 186.959662 
L 393.408 186.935664 
L 402.336 186.87337 
L 411.264 186.760488 
L 420.192 186.730529 
L 429.12 186.583272 
L 438.048 186.538531 
L 446.976 186.52954 
L 455.904 186.46625 
L 464.832 186.633631 
L 473.76 186.828375 
L 482.688 186.847381 
L 491.616 187.000303 
L 500.544 186.97777 
L 509.472 187.494285 
L 518.4 187.412091 
L 518.4 196.360288 
L 518.4 196.360288 
L 509.472 196.102802 
L 500.544 194.87494 
L 491.616 194.62762 
L 482.688 194.049533 
L 473.76 193.925237 
L 464.832 193.469301 
L 455.904 193.232753 
L 446.976 193.087323 
L 438.048 193.062905 
L 429.12 192.940921 
L 420.192 192.626738 
L 411.264 192.552149 
L 402.336 192.214055 
L 393.408 192.05204 
L 384.48 191.98409 
L 375.552 191.772683 
L 366.624 191.902482 
L 357.696 193.157083 
L 348.768 192.848973 
L 339.84 190.880188 
L 330.912 182.9579 
L 321.984 175.349376 
L 313.056 175.163559 
L 304.128 174.900872 
L 295.2 174.735841 
L 286.272 171.859502 
L 277.344 171.796194 
L 268.416 171.746751 
L 259.488 169.878328 
L 250.56 169.762161 
L 241.632 169.790443 
L 232.704 169.839029 
L 223.776 169.880406 
L 214.848 169.841331 
L 205.92 169.59182 
L 196.992 169.281525 
L 188.064 168.779712 
L 179.136 168.16177 
L 170.208 167.789975 
L 161.28 167.502558 
L 152.352 166.447212 
L 143.424 165.821656 
L 134.496 165.571467 
L 125.568 165.030418 
L 116.64 161.678557 
L 107.712 157.870407 
L 98.784 155.332507 
L 89.856 154.456449 
L 80.928 155.295313 
L 72 153.596598 
z
" style="fill:#2ca02c;fill-opacity:0.3;"/>
   </g>
   <g id="PolyCollection_4">
    <path clip-path="url(#p5f67b7dba7)" d="M 72 155.513421 
L 72 135.784883 
L 80.928 140.057026 
L 89.856 132.609738 
L 98.784 138.600658 
L 107.712 145.380044 
L 116.64 148.766662 
L 125.568 140.561656 
L 134.496 140.765021 
L 143.424 147.797256 
L 152.352 142.044223 
L 161.28 134.490454 
L 170.208 134.568925 
L 179.136 123.903066 
L 188.064 105.301627 
L 196.992 105.964018 
L 205.92 104.894041 
L 214.848 121.702881 
L 223.776 105.394816 
L 232.704 105.353328 
L 241.632 105.534384 
L 250.56 105.875867 
L 259.488 105.269914 
L 268.416 105.080149 
L 277.344 106.69818 
L 286.272 106.551036 
L 295.2 106.529305 
L 304.128 107.382455 
L 313.056 107.211029 
L 321.984 106.936719 
L 330.912 105.856179 
L 339.84 106.713799 
L 348.768 108.02876 
L 357.696 107.986739 
L 366.624 107.66886 
L 375.552 107.417587 
L 384.48 108.684693 
L 393.408 121.835503 
L 402.336 140.815076 
L 411.264 109.210106 
L 420.192 107.400507 
L 429.12 107.143935 
L 438.048 109.739987 
L 446.976 109.772409 
L 455.904 109.861691 
L 464.832 109.806642 
L 473.76 109.832954 
L 482.688 109.919754 
L 491.616 110.097164 
L 500.544 109.912264 
L 509.472 109.765161 
L 518.4 109.739313 
L 518.4 231.746145 
L 518.4 231.746145 
L 509.472 231.061892 
L 500.544 226.02475 
L 491.616 224.3762 
L 482.688 222.827839 
L 473.76 222.211657 
L 464.832 221.618618 
L 455.904 219.128835 
L 446.976 216.915454 
L 438.048 216.038882 
L 429.12 208.441762 
L 420.192 205.812522 
L 411.264 204.792955 
L 402.336 217.854199 
L 393.408 208.192811 
L 384.48 196.738932 
L 375.552 194.360606 
L 366.624 192.878596 
L 357.696 190.139441 
L 348.768 189.210926 
L 339.84 183.904683 
L 330.912 180.387733 
L 321.984 179.746318 
L 313.056 177.086825 
L 304.128 176.095063 
L 295.2 171.92654 
L 286.272 164.644719 
L 277.344 164.183257 
L 268.416 155.257254 
L 259.488 143.939083 
L 250.56 149.856186 
L 241.632 148.184463 
L 232.704 141.734505 
L 223.776 146.123215 
L 214.848 176.642282 
L 205.92 142.933856 
L 196.992 147.043823 
L 188.064 141.948252 
L 179.136 174.18969 
L 170.208 178.046196 
L 161.28 177.840699 
L 152.352 178.368664 
L 143.424 176.514565 
L 134.496 175.76406 
L 125.568 175.103694 
L 116.64 172.80382 
L 107.712 171.037159 
L 98.784 162.881108 
L 89.856 159.680147 
L 80.928 156.341845 
L 72 155.513421 
z
" style="fill:#d62728;fill-opacity:0.3;"/>
   </g>
   <g id="PolyCollection_5">
    <path clip-path="url(#p5f67b7dba7)" d="M 72 153.083583 
L 72 138.50331 
L 80.928 114.966113 
L 89.856 109.084039 
L 98.784 111.825299 
L 107.712 109.776249 
L 116.64 109.299392 
L 125.568 110.335697 
L 134.496 108.990773 
L 143.424 108.916466 
L 152.352 108.437415 
L 161.28 107.468324 
L 170.208 108.428344 
L 179.136 105.422304 
L 188.064 106.451557 
L 196.992 115.283645 
L 205.92 116.409357 
L 214.848 117.550618 
L 223.776 117.627639 
L 232.704 122.353858 
L 241.632 122.165131 
L 250.56 121.043133 
L 259.488 125.130287 
L 268.416 125.1423 
L 277.344 128.186623 
L 286.272 143.207323 
L 295.2 139.549212 
L 304.128 154.370347 
L 313.056 155.384037 
L 321.984 156.653446 
L 330.912 157.401353 
L 339.84 168.061599 
L 348.768 167.486771 
L 357.696 168.247672 
L 366.624 170.360438 
L 375.552 176.364473 
L 384.48 179.893588 
L 393.408 183.743736 
L 402.336 194.039779 
L 411.264 196.29493 
L 420.192 197.73661 
L 429.12 199.290374 
L 438.048 201.470603 
L 446.976 202.294949 
L 455.904 205.676638 
L 464.832 206.740192 
L 473.76 207.572248 
L 482.688 209.287792 
L 491.616 211.625429 
L 500.544 211.85452 
L 509.472 214.102415 
L 518.4 215.082052 
L 518.4 263.634606 
L 518.4 263.634606 
L 509.472 262.740403 
L 500.544 261.718903 
L 491.616 261.057879 
L 482.688 259.027391 
L 473.76 256.989856 
L 464.832 254.689605 
L 455.904 254.121704 
L 446.976 251.745688 
L 438.048 249.13568 
L 429.12 245.019116 
L 420.192 241.472677 
L 411.264 240.025147 
L 402.336 237.623644 
L 393.408 233.980237 
L 384.48 230.476833 
L 375.552 226.279693 
L 366.624 217.970081 
L 357.696 214.005036 
L 348.768 207.061172 
L 339.84 203.014149 
L 330.912 202.126429 
L 321.984 200.280727 
L 313.056 197.403239 
L 304.128 195.65496 
L 295.2 191.285242 
L 286.272 187.705313 
L 277.344 182.626956 
L 268.416 179.008299 
L 259.488 175.972926 
L 250.56 171.749925 
L 241.632 172.240903 
L 232.704 172.014207 
L 223.776 168.252626 
L 214.848 166.512602 
L 205.92 165.316182 
L 196.992 164.684861 
L 188.064 148.144679 
L 179.136 139.550497 
L 170.208 127.573061 
L 161.28 133.168936 
L 152.352 131.030944 
L 143.424 128.260863 
L 134.496 134.448512 
L 125.568 138.383507 
L 116.64 133.055981 
L 107.712 125.394259 
L 98.784 120.666784 
L 89.856 127.600788 
L 80.928 146.659924 
L 72 153.083583 
z
" style="fill:#9467bd;fill-opacity:0.3;"/>
   </g>
   <g id="PolyCollection_6">
    <path clip-path="url(#p5f67b7dba7)" d="M 72 154.422929 
L 72 146.457264 
L 80.928 150.971935 
L 89.856 150.246459 
L 98.784 151.244648 
L 107.712 155.986369 
L 116.64 159.212903 
L 125.568 161.912704 
L 134.496 161.815363 
L 143.424 163.458138 
L 152.352 163.331337 
L 161.28 164.478803 
L 170.208 165.079724 
L 179.136 165.604082 
L 188.064 165.909538 
L 196.992 165.442773 
L 205.92 167.770949 
L 214.848 169.000883 
L 223.776 172.78659 
L 232.704 181.971265 
L 241.632 190.136592 
L 250.56 192.154996 
L 259.488 195.838441 
L 268.416 199.98511 
L 277.344 202.9819 
L 286.272 208.274951 
L 295.2 211.319885 
L 304.128 212.420201 
L 313.056 217.352876 
L 321.984 220.749152 
L 330.912 222.506861 
L 339.84 224.163771 
L 348.768 223.748812 
L 357.696 224.070629 
L 366.624 191.585806 
L 375.552 215.581102 
L 384.48 224.508499 
L 393.408 210.744551 
L 402.336 215.917411 
L 411.264 217.848787 
L 420.192 217.769496 
L 429.12 223.500667 
L 438.048 223.905272 
L 446.976 221.261231 
L 455.904 208.336329 
L 464.832 220.290908 
L 473.76 229.83282 
L 482.688 205.308583 
L 491.616 222.305906 
L 500.544 228.726368 
L 509.472 235.763002 
L 518.4 245.545563 
L 518.4 270.925126 
L 518.4 270.925126 
L 509.472 265.621677 
L 500.544 260.110323 
L 491.616 259.837407 
L 482.688 259.272565 
L 473.76 253.192602 
L 464.832 254.211664 
L 455.904 253.237609 
L 446.976 249.560026 
L 438.048 246.993425 
L 429.12 246.680409 
L 420.192 244.13737 
L 411.264 244.777717 
L 402.336 245.219567 
L 393.408 246.672966 
L 384.48 238.818042 
L 375.552 243.250872 
L 366.624 245.958348 
L 357.696 233.807865 
L 348.768 232.315372 
L 339.84 232.521338 
L 330.912 230.454161 
L 321.984 228.996791 
L 313.056 228.313468 
L 304.128 228.721771 
L 295.2 226.489405 
L 286.272 223.913752 
L 277.344 218.360764 
L 268.416 214.043011 
L 259.488 210.471238 
L 250.56 208.448334 
L 241.632 204.945292 
L 232.704 201.052366 
L 223.776 195.59971 
L 214.848 188.218908 
L 205.92 182.167267 
L 196.992 175.13895 
L 188.064 171.799239 
L 179.136 170.480507 
L 170.208 170.101298 
L 161.28 168.744666 
L 152.352 168.683809 
L 143.424 168.427147 
L 134.496 168.343514 
L 125.568 166.900706 
L 116.64 164.764362 
L 107.712 162.892017 
L 98.784 158.851846 
L 89.856 156.029021 
L 80.928 154.008322 
L 72 154.422929 
z
" style="fill:#8c564b;fill-opacity:0.3;"/>
   </g>
   <g id="PolyCollection_7">
    <path clip-path="url(#p5f67b7dba7)" d="M 72 147.601946 
L 72 145.999514 
L 80.928 145.680252 
L 89.856 145.558243 
L 98.784 144.761874 
L 107.712 144.382975 
L 116.64 143.64297 
L 125.568 142.734599 
L 134.496 142.03204 
L 143.424 142.296523 
L 152.352 143.027394 
L 161.28 142.982002 
L 170.208 144.009598 
L 179.136 144.559174 
L 188.064 145.318329 
L 196.992 145.352273 
L 205.92 145.08822 
L 214.848 145.043338 
L 223.776 144.905427 
L 232.704 145.208328 
L 241.632 145.074162 
L 250.56 145.486834 
L 259.488 145.418424 
L 268.416 145.459454 
L 277.344 145.130554 
L 286.272 145.622759 
L 295.2 145.468246 
L 304.128 145.506302 
L 313.056 145.376182 
L 321.984 145.21954 
L 330.912 145.440142 
L 339.84 145.273582 
L 348.768 145.489544 
L 357.696 145.32191 
L 366.624 145.500579 
L 375.552 145.353226 
L 384.48 145.367438 
L 393.408 145.404976 
L 402.336 145.269704 
L 411.264 145.125715 
L 420.192 145.314778 
L 429.12 145.393902 
L 438.048 145.343737 
L 446.976 145.198454 
L 455.904 145.442664 
L 464.832 145.380959 
L 473.76 145.322761 
L 482.688 145.290317 
L 491.616 145.440657 
L 500.544 145.364661 
L 509.472 145.324729 
L 518.4 145.246636 
L 518.4 147.231366 
L 518.4 147.231366 
L 509.472 147.276987 
L 500.544 147.339852 
L 491.616 147.254924 
L 482.688 147.202104 
L 473.76 147.260187 
L 464.832 147.291417 
L 455.904 147.295412 
L 446.976 147.302427 
L 438.048 147.238812 
L 429.12 147.276387 
L 420.192 147.316418 
L 411.264 147.324247 
L 402.336 147.32903 
L 393.408 147.280525 
L 384.48 147.272084 
L 375.552 147.255052 
L 366.624 147.29704 
L 357.696 147.398271 
L 348.768 147.189314 
L 339.84 147.208083 
L 330.912 147.307973 
L 321.984 147.310249 
L 313.056 147.300701 
L 304.128 147.212717 
L 295.2 147.513691 
L 286.272 147.586378 
L 277.344 147.715392 
L 268.416 147.716411 
L 259.488 147.783 
L 250.56 147.908961 
L 241.632 147.955787 
L 232.704 148.105072 
L 223.776 148.221551 
L 214.848 148.161461 
L 205.92 148.275436 
L 196.992 148.195278 
L 188.064 147.946401 
L 179.136 147.957217 
L 170.208 147.983304 
L 161.28 148.945998 
L 152.352 148.669523 
L 143.424 148.527673 
L 134.496 148.366188 
L 125.568 148.392678 
L 116.64 148.55319 
L 107.712 148.288025 
L 98.784 147.94058 
L 89.856 147.505551 
L 80.928 147.786103 
L 72 147.601946 
z
" style="fill:#e377c2;fill-opacity:0.3;"/>
   </g>
   <g id="matplotlib.axis_1">
    <g id="xtick_1">
     <g id="line2d_1">
      <path clip-path="url(#p5f67b7dba7)" d="M 72 384.48 
L 72 51.84 
" style="fill:none;stroke:#b0b0b0;stroke-linecap:square;stroke-width:0.8;"/>
     </g>
     <g id="line2d_2">
      <defs>
       <path d="M 0 0 
L 0 3.5 
" id="m0339b944dc" style="stroke:#000000;stroke-width:0.8;"/>
      </defs>
      <g>
       <use style="stroke:#000000;stroke-width:0.8;" x="72" xlink:href="#m0339b944dc" y="384.48"/>
      </g>
     </g>
     <g id="text_1">
      <!-- 0 -->
      <defs>
       <path d="M 31.78125 66.40625 
Q 24.171875 66.40625 20.328125 58.90625 
Q 16.5 51.421875 16.5 36.375 
Q 16.5 21.390625 20.328125 13.890625 
Q 24.171875 6.390625 31.78125 6.390625 
Q 39.453125 6.390625 43.28125 13.890625 
Q 47.125 21.390625 47.125 36.375 
Q 47.125 51.421875 43.28125 58.90625 
Q 39.453125 66.40625 31.78125 66.40625 
z
M 31.78125 74.21875 
Q 44.046875 74.21875 50.515625 64.515625 
Q 56.984375 54.828125 56.984375 36.375 
Q 56.984375 17.96875 50.515625 8.265625 
Q 44.046875 -1.421875 31.78125 -1.421875 
Q 19.53125 -1.421875 13.0625 8.265625 
Q 6.59375 17.96875 6.59375 36.375 
Q 6.59375 54.828125 13.0625 64.515625 
Q 19.53125 74.21875 31.78125 74.21875 
z
" id="DejaVuSans-48"/>
      </defs>
      <g transform="translate(68.81875 399.078438)scale(0.1 -0.1)">
       <use xlink:href="#DejaVuSans-48"/>
      </g>
     </g>
    </g>
    <g id="xtick_2">
     <g id="line2d_3">
      <path clip-path="url(#p5f67b7dba7)" d="M 161.28 384.48 
L 161.28 51.84 
" style="fill:none;stroke:#b0b0b0;stroke-linecap:square;stroke-width:0.8;"/>
     </g>
     <g id="line2d_4">
      <g>
       <use style="stroke:#000000;stroke-width:0.8;" x="161.28" xlink:href="#m0339b944dc" y="384.48"/>
      </g>
     </g>
     <g id="text_2">
      <!-- 10 -->
      <defs>
       <path d="M 12.40625 8.296875 
L 28.515625 8.296875 
L 28.515625 63.921875 
L 10.984375 60.40625 
L 10.984375 69.390625 
L 28.421875 72.90625 
L 38.28125 72.90625 
L 38.28125 8.296875 
L 54.390625 8.296875 
L 54.390625 0 
L 12.40625 0 
z
" id="DejaVuSans-49"/>
      </defs>
      <g transform="translate(154.9175 399.078438)scale(0.1 -0.1)">
       <use xlink:href="#DejaVuSans-49"/>
       <use x="63.623047" xlink:href="#DejaVuSans-48"/>
      </g>
     </g>
    </g>
    <g id="xtick_3">
     <g id="line2d_5">
      <path clip-path="url(#p5f67b7dba7)" d="M 250.56 384.48 
L 250.56 51.84 
" style="fill:none;stroke:#b0b0b0;stroke-linecap:square;stroke-width:0.8;"/>
     </g>
     <g id="line2d_6">
      <g>
       <use style="stroke:#000000;stroke-width:0.8;" x="250.56" xlink:href="#m0339b944dc" y="384.48"/>
      </g>
     </g>
     <g id="text_3">
      <!-- 20 -->
      <defs>
       <path d="M 19.1875 8.296875 
L 53.609375 8.296875 
L 53.609375 0 
L 7.328125 0 
L 7.328125 8.296875 
Q 12.9375 14.109375 22.625 23.890625 
Q 32.328125 33.6875 34.8125 36.53125 
Q 39.546875 41.84375 41.421875 45.53125 
Q 43.3125 49.21875 43.3125 52.78125 
Q 43.3125 58.59375 39.234375 62.25 
Q 35.15625 65.921875 28.609375 65.921875 
Q 23.96875 65.921875 18.8125 64.3125 
Q 13.671875 62.703125 7.8125 59.421875 
L 7.8125 69.390625 
Q 13.765625 71.78125 18.9375 73 
Q 24.125 74.21875 28.421875 74.21875 
Q 39.75 74.21875 46.484375 68.546875 
Q 53.21875 62.890625 53.21875 53.421875 
Q 53.21875 48.921875 51.53125 44.890625 
Q 49.859375 40.875 45.40625 35.40625 
Q 44.1875 33.984375 37.640625 27.21875 
Q 31.109375 20.453125 19.1875 8.296875 
z
" id="DejaVuSans-50"/>
      </defs>
      <g transform="translate(244.1975 399.078438)scale(0.1 -0.1)">
       <use xlink:href="#DejaVuSans-50"/>
       <use x="63.623047" xlink:href="#DejaVuSans-48"/>
      </g>
     </g>
    </g>
    <g id="xtick_4">
     <g id="line2d_7">
      <path clip-path="url(#p5f67b7dba7)" d="M 339.84 384.48 
L 339.84 51.84 
" style="fill:none;stroke:#b0b0b0;stroke-linecap:square;stroke-width:0.8;"/>
     </g>
     <g id="line2d_8">
      <g>
       <use style="stroke:#000000;stroke-width:0.8;" x="339.84" xlink:href="#m0339b944dc" y="384.48"/>
      </g>
     </g>
     <g id="text_4">
      <!-- 30 -->
      <defs>
       <path d="M 40.578125 39.3125 
Q 47.65625 37.796875 51.625 33 
Q 55.609375 28.21875 55.609375 21.1875 
Q 55.609375 10.40625 48.1875 4.484375 
Q 40.765625 -1.421875 27.09375 -1.421875 
Q 22.515625 -1.421875 17.65625 -0.515625 
Q 12.796875 0.390625 7.625 2.203125 
L 7.625 11.71875 
Q 11.71875 9.328125 16.59375 8.109375 
Q 21.484375 6.890625 26.8125 6.890625 
Q 36.078125 6.890625 40.9375 10.546875 
Q 45.796875 14.203125 45.796875 21.1875 
Q 45.796875 27.640625 41.28125 31.265625 
Q 36.765625 34.90625 28.71875 34.90625 
L 20.21875 34.90625 
L 20.21875 43.015625 
L 29.109375 43.015625 
Q 36.375 43.015625 40.234375 45.921875 
Q 44.09375 48.828125 44.09375 54.296875 
Q 44.09375 59.90625 40.109375 62.90625 
Q 36.140625 65.921875 28.71875 65.921875 
Q 24.65625 65.921875 20.015625 65.03125 
Q 15.375 64.15625 9.8125 62.3125 
L 9.8125 71.09375 
Q 15.4375 72.65625 20.34375 73.4375 
Q 25.25 74.21875 29.59375 74.21875 
Q 40.828125 74.21875 47.359375 69.109375 
Q 53.90625 64.015625 53.90625 55.328125 
Q 53.90625 49.265625 50.4375 45.09375 
Q 46.96875 40.921875 40.578125 39.3125 
z
" id="DejaVuSans-51"/>
      </defs>
      <g transform="translate(333.4775 399.078438)scale(0.1 -0.1)">
       <use xlink:href="#DejaVuSans-51"/>
       <use x="63.623047" xlink:href="#DejaVuSans-48"/>
      </g>
     </g>
    </g>
    <g id="xtick_5">
     <g id="line2d_9">
      <path clip-path="url(#p5f67b7dba7)" d="M 429.12 384.48 
L 429.12 51.84 
" style="fill:none;stroke:#b0b0b0;stroke-linecap:square;stroke-width:0.8;"/>
     </g>
     <g id="line2d_10">
      <g>
       <use style="stroke:#000000;stroke-width:0.8;" x="429.12" xlink:href="#m0339b944dc" y="384.48"/>
      </g>
     </g>
     <g id="text_5">
      <!-- 40 -->
      <defs>
       <path d="M 37.796875 64.3125 
L 12.890625 25.390625 
L 37.796875 25.390625 
z
M 35.203125 72.90625 
L 47.609375 72.90625 
L 47.609375 25.390625 
L 58.015625 25.390625 
L 58.015625 17.1875 
L 47.609375 17.1875 
L 47.609375 0 
L 37.796875 0 
L 37.796875 17.1875 
L 4.890625 17.1875 
L 4.890625 26.703125 
z
" id="DejaVuSans-52"/>
      </defs>
      <g transform="translate(422.7575 399.078438)scale(0.1 -0.1)">
       <use xlink:href="#DejaVuSans-52"/>
       <use x="63.623047" xlink:href="#DejaVuSans-48"/>
      </g>
     </g>
    </g>
    <g id="xtick_6">
     <g id="line2d_11">
      <path clip-path="url(#p5f67b7dba7)" d="M 518.4 384.48 
L 518.4 51.84 
" style="fill:none;stroke:#b0b0b0;stroke-linecap:square;stroke-width:0.8;"/>
     </g>
     <g id="line2d_12">
      <g>
       <use style="stroke:#000000;stroke-width:0.8;" x="518.4" xlink:href="#m0339b944dc" y="384.48"/>
      </g>
     </g>
     <g id="text_6">
      <!-- 50 -->
      <defs>
       <path d="M 10.796875 72.90625 
L 49.515625 72.90625 
L 49.515625 64.59375 
L 19.828125 64.59375 
L 19.828125 46.734375 
Q 21.96875 47.46875 24.109375 47.828125 
Q 26.265625 48.1875 28.421875 48.1875 
Q 40.625 48.1875 47.75 41.5 
Q 54.890625 34.8125 54.890625 23.390625 
Q 54.890625 11.625 47.5625 5.09375 
Q 40.234375 -1.421875 26.90625 -1.421875 
Q 22.3125 -1.421875 17.546875 -0.640625 
Q 12.796875 0.140625 7.71875 1.703125 
L 7.71875 11.625 
Q 12.109375 9.234375 16.796875 8.0625 
Q 21.484375 6.890625 26.703125 6.890625 
Q 35.15625 6.890625 40.078125 11.328125 
Q 45.015625 15.765625 45.015625 23.390625 
Q 45.015625 31 40.078125 35.4375 
Q 35.15625 39.890625 26.703125 39.890625 
Q 22.75 39.890625 18.8125 39.015625 
Q 14.890625 38.140625 10.796875 36.28125 
z
" id="DejaVuSans-53"/>
      </defs>
      <g transform="translate(512.0375 399.078438)scale(0.1 -0.1)">
       <use xlink:href="#DejaVuSans-53"/>
       <use x="63.623047" xlink:href="#DejaVuSans-48"/>
      </g>
     </g>
    </g>
    <g id="text_7">
     <!-- Iteration -->
     <defs>
      <path d="M 9.8125 72.90625 
L 19.671875 72.90625 
L 19.671875 0 
L 9.8125 0 
z
" id="DejaVuSans-73"/>
      <path d="M 18.3125 70.21875 
L 18.3125 54.6875 
L 36.8125 54.6875 
L 36.8125 47.703125 
L 18.3125 47.703125 
L 18.3125 18.015625 
Q 18.3125 11.328125 20.140625 9.421875 
Q 21.96875 7.515625 27.59375 7.515625 
L 36.8125 7.515625 
L 36.8125 0 
L 27.59375 0 
Q 17.1875 0 13.234375 3.875 
Q 9.28125 7.765625 9.28125 18.015625 
L 9.28125 47.703125 
L 2.6875 47.703125 
L 2.6875 54.6875 
L 9.28125 54.6875 
L 9.28125 70.21875 
z
" id="DejaVuSans-116"/>
      <path d="M 56.203125 29.59375 
L 56.203125 25.203125 
L 14.890625 25.203125 
Q 15.484375 15.921875 20.484375 11.0625 
Q 25.484375 6.203125 34.421875 6.203125 
Q 39.59375 6.203125 44.453125 7.46875 
Q 49.3125 8.734375 54.109375 11.28125 
L 54.109375 2.78125 
Q 49.265625 0.734375 44.1875 -0.34375 
Q 39.109375 -1.421875 33.890625 -1.421875 
Q 20.796875 -1.421875 13.15625 6.1875 
Q 5.515625 13.8125 5.515625 26.8125 
Q 5.515625 40.234375 12.765625 48.109375 
Q 20.015625 56 32.328125 56 
Q 43.359375 56 49.78125 48.890625 
Q 56.203125 41.796875 56.203125 29.59375 
z
M 47.21875 32.234375 
Q 47.125 39.59375 43.09375 43.984375 
Q 39.0625 48.390625 32.421875 48.390625 
Q 24.90625 48.390625 20.390625 44.140625 
Q 15.875 39.890625 15.1875 32.171875 
z
" id="DejaVuSans-101"/>
      <path d="M 41.109375 46.296875 
Q 39.59375 47.171875 37.8125 47.578125 
Q 36.03125 48 33.890625 48 
Q 26.265625 48 22.1875 43.046875 
Q 18.109375 38.09375 18.109375 28.8125 
L 18.109375 0 
L 9.078125 0 
L 9.078125 54.6875 
L 18.109375 54.6875 
L 18.109375 46.1875 
Q 20.953125 51.171875 25.484375 53.578125 
Q 30.03125 56 36.53125 56 
Q 37.453125 56 38.578125 55.875 
Q 39.703125 55.765625 41.0625 55.515625 
z
" id="DejaVuSans-114"/>
      <path d="M 34.28125 27.484375 
Q 23.390625 27.484375 19.1875 25 
Q 14.984375 22.515625 14.984375 16.5 
Q 14.984375 11.71875 18.140625 8.90625 
Q 21.296875 6.109375 26.703125 6.109375 
Q 34.1875 6.109375 38.703125 11.40625 
Q 43.21875 16.703125 43.21875 25.484375 
L 43.21875 27.484375 
z
M 52.203125 31.203125 
L 52.203125 0 
L 43.21875 0 
L 43.21875 8.296875 
Q 40.140625 3.328125 35.546875 0.953125 
Q 30.953125 -1.421875 24.3125 -1.421875 
Q 15.921875 -1.421875 10.953125 3.296875 
Q 6 8.015625 6 15.921875 
Q 6 25.140625 12.171875 29.828125 
Q 18.359375 34.515625 30.609375 34.515625 
L 43.21875 34.515625 
L 43.21875 35.40625 
Q 43.21875 41.609375 39.140625 45 
Q 35.0625 48.390625 27.6875 48.390625 
Q 23 48.390625 18.546875 47.265625 
Q 14.109375 46.140625 10.015625 43.890625 
L 10.015625 52.203125 
Q 14.9375 54.109375 19.578125 55.046875 
Q 24.21875 56 28.609375 56 
Q 40.484375 56 46.34375 49.84375 
Q 52.203125 43.703125 52.203125 31.203125 
z
" id="DejaVuSans-97"/>
      <path d="M 9.421875 54.6875 
L 18.40625 54.6875 
L 18.40625 0 
L 9.421875 0 
z
M 9.421875 75.984375 
L 18.40625 75.984375 
L 18.40625 64.59375 
L 9.421875 64.59375 
z
" id="DejaVuSans-105"/>
      <path d="M 30.609375 48.390625 
Q 23.390625 48.390625 19.1875 42.75 
Q 14.984375 37.109375 14.984375 27.296875 
Q 14.984375 17.484375 19.15625 11.84375 
Q 23.34375 6.203125 30.609375 6.203125 
Q 37.796875 6.203125 41.984375 11.859375 
Q 46.1875 17.53125 46.1875 27.296875 
Q 46.1875 37.015625 41.984375 42.703125 
Q 37.796875 48.390625 30.609375 48.390625 
z
M 30.609375 56 
Q 42.328125 56 49.015625 48.375 
Q 55.71875 40.765625 55.71875 27.296875 
Q 55.71875 13.875 49.015625 6.21875 
Q 42.328125 -1.421875 30.609375 -1.421875 
Q 18.84375 -1.421875 12.171875 6.21875 
Q 5.515625 13.875 5.515625 27.296875 
Q 5.515625 40.765625 12.171875 48.375 
Q 18.84375 56 30.609375 56 
z
" id="DejaVuSans-111"/>
      <path d="M 54.890625 33.015625 
L 54.890625 0 
L 45.90625 0 
L 45.90625 32.71875 
Q 45.90625 40.484375 42.875 44.328125 
Q 39.84375 48.1875 33.796875 48.1875 
Q 26.515625 48.1875 22.3125 43.546875 
Q 18.109375 38.921875 18.109375 30.90625 
L 18.109375 0 
L 9.078125 0 
L 9.078125 54.6875 
L 18.109375 54.6875 
L 18.109375 46.1875 
Q 21.34375 51.125 25.703125 53.5625 
Q 30.078125 56 35.796875 56 
Q 45.21875 56 50.046875 50.171875 
Q 54.890625 44.34375 54.890625 33.015625 
z
" id="DejaVuSans-110"/>
     </defs>
     <g transform="translate(273.991406 412.756563)scale(0.1 -0.1)">
      <use xlink:href="#DejaVuSans-73"/>
      <use x="29.492188" xlink:href="#DejaVuSans-116"/>
      <use x="68.701172" xlink:href="#DejaVuSans-101"/>
      <use x="130.224609" xlink:href="#DejaVuSans-114"/>
      <use x="171.337891" xlink:href="#DejaVuSans-97"/>
      <use x="232.617188" xlink:href="#DejaVuSans-116"/>
      <use x="271.826172" xlink:href="#DejaVuSans-105"/>
      <use x="299.609375" xlink:href="#DejaVuSans-111"/>
      <use x="360.791016" xlink:href="#DejaVuSans-110"/>
     </g>
    </g>
   </g>
   <g id="matplotlib.axis_2">
    <g id="ytick_1">
     <g id="line2d_13">
      <path clip-path="url(#p5f67b7dba7)" d="M 72 384.48 
L 518.4 384.48 
" style="fill:none;stroke:#b0b0b0;stroke-linecap:square;stroke-width:0.8;"/>
     </g>
     <g id="line2d_14">
      <defs>
       <path d="M 0 0 
L -3.5 0 
" id="m7c6c31725b" style="stroke:#000000;stroke-width:0.8;"/>
      </defs>
      <g>
       <use style="stroke:#000000;stroke-width:0.8;" x="72" xlink:href="#m7c6c31725b" y="384.48"/>
      </g>
     </g>
     <g id="text_8">
      <!-- $\mathdefault{10^{-12}}$ -->
      <defs>
       <path d="M 10.59375 35.5 
L 73.1875 35.5 
L 73.1875 27.203125 
L 10.59375 27.203125 
z
" id="DejaVuSans-8722"/>
      </defs>
      <g transform="translate(37.1 388.279219)scale(0.1 -0.1)">
       <use transform="translate(0 0.765625)" xlink:href="#DejaVuSans-49"/>
       <use transform="translate(63.623047 0.765625)" xlink:href="#DejaVuSans-48"/>
       <use transform="translate(128.203125 39.046875)scale(0.7)" xlink:href="#DejaVuSans-8722"/>
       <use transform="translate(186.855469 39.046875)scale(0.7)" xlink:href="#DejaVuSans-49"/>
       <use transform="translate(231.391602 39.046875)scale(0.7)" xlink:href="#DejaVuSans-50"/>
      </g>
     </g>
    </g>
    <g id="ytick_2">
     <g id="line2d_15">
      <path clip-path="url(#p5f67b7dba7)" d="M 72 336.96 
L 518.4 336.96 
" style="fill:none;stroke:#b0b0b0;stroke-linecap:square;stroke-width:0.8;"/>
     </g>
     <g id="line2d_16">
      <g>
       <use style="stroke:#000000;stroke-width:0.8;" x="72" xlink:href="#m7c6c31725b" y="336.96"/>
      </g>
     </g>
     <g id="text_9">
      <!-- $\mathdefault{10^{-10}}$ -->
      <g transform="translate(37.1 340.759219)scale(0.1 -0.1)">
       <use transform="translate(0 0.765625)" xlink:href="#DejaVuSans-49"/>
       <use transform="translate(63.623047 0.765625)" xlink:href="#DejaVuSans-48"/>
       <use transform="translate(128.203125 39.046875)scale(0.7)" xlink:href="#DejaVuSans-8722"/>
       <use transform="translate(186.855469 39.046875)scale(0.7)" xlink:href="#DejaVuSans-49"/>
       <use transform="translate(231.391602 39.046875)scale(0.7)" xlink:href="#DejaVuSans-48"/>
      </g>
     </g>
    </g>
    <g id="ytick_3">
     <g id="line2d_17">
      <path clip-path="url(#p5f67b7dba7)" d="M 72 289.44 
L 518.4 289.44 
" style="fill:none;stroke:#b0b0b0;stroke-linecap:square;stroke-width:0.8;"/>
     </g>
     <g id="line2d_18">
      <g>
       <use style="stroke:#000000;stroke-width:0.8;" x="72" xlink:href="#m7c6c31725b" y="289.44"/>
      </g>
     </g>
     <g id="text_10">
      <!-- $\mathdefault{10^{-8}}$ -->
      <defs>
       <path d="M 31.78125 34.625 
Q 24.75 34.625 20.71875 30.859375 
Q 16.703125 27.09375 16.703125 20.515625 
Q 16.703125 13.921875 20.71875 10.15625 
Q 24.75 6.390625 31.78125 6.390625 
Q 38.8125 6.390625 42.859375 10.171875 
Q 46.921875 13.96875 46.921875 20.515625 
Q 46.921875 27.09375 42.890625 30.859375 
Q 38.875 34.625 31.78125 34.625 
z
M 21.921875 38.8125 
Q 15.578125 40.375 12.03125 44.71875 
Q 8.5 49.078125 8.5 55.328125 
Q 8.5 64.0625 14.71875 69.140625 
Q 20.953125 74.21875 31.78125 74.21875 
Q 42.671875 74.21875 48.875 69.140625 
Q 55.078125 64.0625 55.078125 55.328125 
Q 55.078125 49.078125 51.53125 44.71875 
Q 48 40.375 41.703125 38.8125 
Q 48.828125 37.15625 52.796875 32.3125 
Q 56.78125 27.484375 56.78125 20.515625 
Q 56.78125 9.90625 50.3125 4.234375 
Q 43.84375 -1.421875 31.78125 -1.421875 
Q 19.734375 -1.421875 13.25 4.234375 
Q 6.78125 9.90625 6.78125 20.515625 
Q 6.78125 27.484375 10.78125 32.3125 
Q 14.796875 37.15625 21.921875 38.8125 
z
M 18.3125 54.390625 
Q 18.3125 48.734375 21.84375 45.5625 
Q 25.390625 42.390625 31.78125 42.390625 
Q 38.140625 42.390625 41.71875 45.5625 
Q 45.3125 48.734375 45.3125 54.390625 
Q 45.3125 60.0625 41.71875 63.234375 
Q 38.140625 66.40625 31.78125 66.40625 
Q 25.390625 66.40625 21.84375 63.234375 
Q 18.3125 60.0625 18.3125 54.390625 
z
" id="DejaVuSans-56"/>
      </defs>
      <g transform="translate(41.5 293.239219)scale(0.1 -0.1)">
       <use transform="translate(0 0.765625)" xlink:href="#DejaVuSans-49"/>
       <use transform="translate(63.623047 0.765625)" xlink:href="#DejaVuSans-48"/>
       <use transform="translate(128.203125 39.046875)scale(0.7)" xlink:href="#DejaVuSans-8722"/>
       <use transform="translate(186.855469 39.046875)scale(0.7)" xlink:href="#DejaVuSans-56"/>
      </g>
     </g>
    </g>
    <g id="ytick_4">
     <g id="line2d_19">
      <path clip-path="url(#p5f67b7dba7)" d="M 72 241.92 
L 518.4 241.92 
" style="fill:none;stroke:#b0b0b0;stroke-linecap:square;stroke-width:0.8;"/>
     </g>
     <g id="line2d_20">
      <g>
       <use style="stroke:#000000;stroke-width:0.8;" x="72" xlink:href="#m7c6c31725b" y="241.92"/>
      </g>
     </g>
     <g id="text_11">
      <!-- $\mathdefault{10^{-6}}$ -->
      <defs>
       <path d="M 33.015625 40.375 
Q 26.375 40.375 22.484375 35.828125 
Q 18.609375 31.296875 18.609375 23.390625 
Q 18.609375 15.53125 22.484375 10.953125 
Q 26.375 6.390625 33.015625 6.390625 
Q 39.65625 6.390625 43.53125 10.953125 
Q 47.40625 15.53125 47.40625 23.390625 
Q 47.40625 31.296875 43.53125 35.828125 
Q 39.65625 40.375 33.015625 40.375 
z
M 52.59375 71.296875 
L 52.59375 62.3125 
Q 48.875 64.0625 45.09375 64.984375 
Q 41.3125 65.921875 37.59375 65.921875 
Q 27.828125 65.921875 22.671875 59.328125 
Q 17.53125 52.734375 16.796875 39.40625 
Q 19.671875 43.65625 24.015625 45.921875 
Q 28.375 48.1875 33.59375 48.1875 
Q 44.578125 48.1875 50.953125 41.515625 
Q 57.328125 34.859375 57.328125 23.390625 
Q 57.328125 12.15625 50.6875 5.359375 
Q 44.046875 -1.421875 33.015625 -1.421875 
Q 20.359375 -1.421875 13.671875 8.265625 
Q 6.984375 17.96875 6.984375 36.375 
Q 6.984375 53.65625 15.1875 63.9375 
Q 23.390625 74.21875 37.203125 74.21875 
Q 40.921875 74.21875 44.703125 73.484375 
Q 48.484375 72.75 52.59375 71.296875 
z
" id="DejaVuSans-54"/>
      </defs>
      <g transform="translate(41.5 245.719219)scale(0.1 -0.1)">
       <use transform="translate(0 0.765625)" xlink:href="#DejaVuSans-49"/>
       <use transform="translate(63.623047 0.765625)" xlink:href="#DejaVuSans-48"/>
       <use transform="translate(128.203125 39.046875)scale(0.7)" xlink:href="#DejaVuSans-8722"/>
       <use transform="translate(186.855469 39.046875)scale(0.7)" xlink:href="#DejaVuSans-54"/>
      </g>
     </g>
    </g>
    <g id="ytick_5">
     <g id="line2d_21">
      <path clip-path="url(#p5f67b7dba7)" d="M 72 194.4 
L 518.4 194.4 
" style="fill:none;stroke:#b0b0b0;stroke-linecap:square;stroke-width:0.8;"/>
     </g>
     <g id="line2d_22">
      <g>
       <use style="stroke:#000000;stroke-width:0.8;" x="72" xlink:href="#m7c6c31725b" y="194.4"/>
      </g>
     </g>
     <g id="text_12">
      <!-- $\mathdefault{10^{-4}}$ -->
      <g transform="translate(41.5 198.199219)scale(0.1 -0.1)">
       <use transform="translate(0 0.684375)" xlink:href="#DejaVuSans-49"/>
       <use transform="translate(63.623047 0.684375)" xlink:href="#DejaVuSans-48"/>
       <use transform="translate(128.203125 38.965625)scale(0.7)" xlink:href="#DejaVuSans-8722"/>
       <use transform="translate(186.855469 38.965625)scale(0.7)" xlink:href="#DejaVuSans-52"/>
      </g>
     </g>
    </g>
    <g id="ytick_6">
     <g id="line2d_23">
      <path clip-path="url(#p5f67b7dba7)" d="M 72 146.88 
L 518.4 146.88 
" style="fill:none;stroke:#b0b0b0;stroke-linecap:square;stroke-width:0.8;"/>
     </g>
     <g id="line2d_24">
      <g>
       <use style="stroke:#000000;stroke-width:0.8;" x="72" xlink:href="#m7c6c31725b" y="146.88"/>
      </g>
     </g>
     <g id="text_13">
      <!-- $\mathdefault{10^{-2}}$ -->
      <g transform="translate(41.5 150.679219)scale(0.1 -0.1)">
       <use transform="translate(0 0.765625)" xlink:href="#DejaVuSans-49"/>
       <use transform="translate(63.623047 0.765625)" xlink:href="#DejaVuSans-48"/>
       <use transform="translate(128.203125 39.046875)scale(0.7)" xlink:href="#DejaVuSans-8722"/>
       <use transform="translate(186.855469 39.046875)scale(0.7)" xlink:href="#DejaVuSans-50"/>
      </g>
     </g>
    </g>
    <g id="ytick_7">
     <g id="line2d_25">
      <path clip-path="url(#p5f67b7dba7)" d="M 72 99.36 
L 518.4 99.36 
" style="fill:none;stroke:#b0b0b0;stroke-linecap:square;stroke-width:0.8;"/>
     </g>
     <g id="line2d_26">
      <g>
       <use style="stroke:#000000;stroke-width:0.8;" x="72" xlink:href="#m7c6c31725b" y="99.36"/>
      </g>
     </g>
     <g id="text_14">
      <!-- $\mathdefault{10^{0}}$ -->
      <g transform="translate(47.4 103.159219)scale(0.1 -0.1)">
       <use transform="translate(0 0.765625)" xlink:href="#DejaVuSans-49"/>
       <use transform="translate(63.623047 0.765625)" xlink:href="#DejaVuSans-48"/>
       <use transform="translate(128.203125 39.046875)scale(0.7)" xlink:href="#DejaVuSans-48"/>
      </g>
     </g>
    </g>
    <g id="ytick_8">
     <g id="line2d_27">
      <path clip-path="url(#p5f67b7dba7)" d="M 72 51.84 
L 518.4 51.84 
" style="fill:none;stroke:#b0b0b0;stroke-linecap:square;stroke-width:0.8;"/>
     </g>
     <g id="line2d_28">
      <g>
       <use style="stroke:#000000;stroke-width:0.8;" x="72" xlink:href="#m7c6c31725b" y="51.84"/>
      </g>
     </g>
     <g id="text_15">
      <!-- $\mathdefault{10^{2}}$ -->
      <g transform="translate(47.4 55.639219)scale(0.1 -0.1)">
       <use transform="translate(0 0.765625)" xlink:href="#DejaVuSans-49"/>
       <use transform="translate(63.623047 0.765625)" xlink:href="#DejaVuSans-48"/>
       <use transform="translate(128.203125 39.046875)scale(0.7)" xlink:href="#DejaVuSans-50"/>
      </g>
     </g>
    </g>
    <g id="text_16">
     <!-- Integrated Squared Error -->
     <defs>
      <path d="M 45.40625 27.984375 
Q 45.40625 37.75 41.375 43.109375 
Q 37.359375 48.484375 30.078125 48.484375 
Q 22.859375 48.484375 18.828125 43.109375 
Q 14.796875 37.75 14.796875 27.984375 
Q 14.796875 18.265625 18.828125 12.890625 
Q 22.859375 7.515625 30.078125 7.515625 
Q 37.359375 7.515625 41.375 12.890625 
Q 45.40625 18.265625 45.40625 27.984375 
z
M 54.390625 6.78125 
Q 54.390625 -7.171875 48.1875 -13.984375 
Q 42 -20.796875 29.203125 -20.796875 
Q 24.46875 -20.796875 20.265625 -20.09375 
Q 16.0625 -19.390625 12.109375 -17.921875 
L 12.109375 -9.1875 
Q 16.0625 -11.328125 19.921875 -12.34375 
Q 23.78125 -13.375 27.78125 -13.375 
Q 36.625 -13.375 41.015625 -8.765625 
Q 45.40625 -4.15625 45.40625 5.171875 
L 45.40625 9.625 
Q 42.625 4.78125 38.28125 2.390625 
Q 33.9375 0 27.875 0 
Q 17.828125 0 11.671875 7.65625 
Q 5.515625 15.328125 5.515625 27.984375 
Q 5.515625 40.671875 11.671875 48.328125 
Q 17.828125 56 27.875 56 
Q 33.9375 56 38.28125 53.609375 
Q 42.625 51.21875 45.40625 46.390625 
L 45.40625 54.6875 
L 54.390625 54.6875 
z
" id="DejaVuSans-103"/>
      <path d="M 45.40625 46.390625 
L 45.40625 75.984375 
L 54.390625 75.984375 
L 54.390625 0 
L 45.40625 0 
L 45.40625 8.203125 
Q 42.578125 3.328125 38.25 0.953125 
Q 33.9375 -1.421875 27.875 -1.421875 
Q 17.96875 -1.421875 11.734375 6.484375 
Q 5.515625 14.40625 5.515625 27.296875 
Q 5.515625 40.1875 11.734375 48.09375 
Q 17.96875 56 27.875 56 
Q 33.9375 56 38.25 53.625 
Q 42.578125 51.265625 45.40625 46.390625 
z
M 14.796875 27.296875 
Q 14.796875 17.390625 18.875 11.75 
Q 22.953125 6.109375 30.078125 6.109375 
Q 37.203125 6.109375 41.296875 11.75 
Q 45.40625 17.390625 45.40625 27.296875 
Q 45.40625 37.203125 41.296875 42.84375 
Q 37.203125 48.484375 30.078125 48.484375 
Q 22.953125 48.484375 18.875 42.84375 
Q 14.796875 37.203125 14.796875 27.296875 
z
" id="DejaVuSans-100"/>
      <path id="DejaVuSans-32"/>
      <path d="M 53.515625 70.515625 
L 53.515625 60.890625 
Q 47.90625 63.578125 42.921875 64.890625 
Q 37.9375 66.21875 33.296875 66.21875 
Q 25.25 66.21875 20.875 63.09375 
Q 16.5 59.96875 16.5 54.203125 
Q 16.5 49.359375 19.40625 46.890625 
Q 22.3125 44.4375 30.421875 42.921875 
L 36.375 41.703125 
Q 47.40625 39.59375 52.65625 34.296875 
Q 57.90625 29 57.90625 20.125 
Q 57.90625 9.515625 50.796875 4.046875 
Q 43.703125 -1.421875 29.984375 -1.421875 
Q 24.8125 -1.421875 18.96875 -0.25 
Q 13.140625 0.921875 6.890625 3.21875 
L 6.890625 13.375 
Q 12.890625 10.015625 18.65625 8.296875 
Q 24.421875 6.59375 29.984375 6.59375 
Q 38.421875 6.59375 43.015625 9.90625 
Q 47.609375 13.234375 47.609375 19.390625 
Q 47.609375 24.75 44.3125 27.78125 
Q 41.015625 30.8125 33.5 32.328125 
L 27.484375 33.5 
Q 16.453125 35.6875 11.515625 40.375 
Q 6.59375 45.0625 6.59375 53.421875 
Q 6.59375 63.09375 13.40625 68.65625 
Q 20.21875 74.21875 32.171875 74.21875 
Q 37.3125 74.21875 42.625 73.28125 
Q 47.953125 72.359375 53.515625 70.515625 
z
" id="DejaVuSans-83"/>
      <path d="M 14.796875 27.296875 
Q 14.796875 17.390625 18.875 11.75 
Q 22.953125 6.109375 30.078125 6.109375 
Q 37.203125 6.109375 41.296875 11.75 
Q 45.40625 17.390625 45.40625 27.296875 
Q 45.40625 37.203125 41.296875 42.84375 
Q 37.203125 48.484375 30.078125 48.484375 
Q 22.953125 48.484375 18.875 42.84375 
Q 14.796875 37.203125 14.796875 27.296875 
z
M 45.40625 8.203125 
Q 42.578125 3.328125 38.25 0.953125 
Q 33.9375 -1.421875 27.875 -1.421875 
Q 17.96875 -1.421875 11.734375 6.484375 
Q 5.515625 14.40625 5.515625 27.296875 
Q 5.515625 40.1875 11.734375 48.09375 
Q 17.96875 56 27.875 56 
Q 33.9375 56 38.25 53.625 
Q 42.578125 51.265625 45.40625 46.390625 
L 45.40625 54.6875 
L 54.390625 54.6875 
L 54.390625 -20.796875 
L 45.40625 -20.796875 
z
" id="DejaVuSans-113"/>
      <path d="M 8.5 21.578125 
L 8.5 54.6875 
L 17.484375 54.6875 
L 17.484375 21.921875 
Q 17.484375 14.15625 20.5 10.265625 
Q 23.53125 6.390625 29.59375 6.390625 
Q 36.859375 6.390625 41.078125 11.03125 
Q 45.3125 15.671875 45.3125 23.6875 
L 45.3125 54.6875 
L 54.296875 54.6875 
L 54.296875 0 
L 45.3125 0 
L 45.3125 8.40625 
Q 42.046875 3.421875 37.71875 1 
Q 33.40625 -1.421875 27.6875 -1.421875 
Q 18.265625 -1.421875 13.375 4.4375 
Q 8.5 10.296875 8.5 21.578125 
z
M 31.109375 56 
z
" id="DejaVuSans-117"/>
      <path d="M 9.8125 72.90625 
L 55.90625 72.90625 
L 55.90625 64.59375 
L 19.671875 64.59375 
L 19.671875 43.015625 
L 54.390625 43.015625 
L 54.390625 34.71875 
L 19.671875 34.71875 
L 19.671875 8.296875 
L 56.78125 8.296875 
L 56.78125 0 
L 9.8125 0 
z
" id="DejaVuSans-69"/>
     </defs>
     <g transform="translate(31.020312 280.483437)rotate(-90)scale(0.1 -0.1)">
      <use xlink:href="#DejaVuSans-73"/>
      <use x="29.492188" xlink:href="#DejaVuSans-110"/>
      <use x="92.871094" xlink:href="#DejaVuSans-116"/>
      <use x="132.080078" xlink:href="#DejaVuSans-101"/>
      <use x="193.603516" xlink:href="#DejaVuSans-103"/>
      <use x="257.080078" xlink:href="#DejaVuSans-114"/>
      <use x="298.193359" xlink:href="#DejaVuSans-97"/>
      <use x="359.472656" xlink:href="#DejaVuSans-116"/>
      <use x="398.681641" xlink:href="#DejaVuSans-101"/>
      <use x="460.205078" xlink:href="#DejaVuSans-100"/>
      <use x="523.681641" xlink:href="#DejaVuSans-32"/>
      <use x="555.46875" xlink:href="#DejaVuSans-83"/>
      <use x="618.945312" xlink:href="#DejaVuSans-113"/>
      <use x="682.421875" xlink:href="#DejaVuSans-117"/>
      <use x="745.800781" xlink:href="#DejaVuSans-97"/>
      <use x="807.080078" xlink:href="#DejaVuSans-114"/>
      <use x="845.943359" xlink:href="#DejaVuSans-101"/>
      <use x="907.466797" xlink:href="#DejaVuSans-100"/>
      <use x="970.943359" xlink:href="#DejaVuSans-32"/>
      <use x="1002.730469" xlink:href="#DejaVuSans-69"/>
      <use x="1065.914062" xlink:href="#DejaVuSans-114"/>
      <use x="1105.277344" xlink:href="#DejaVuSans-114"/>
      <use x="1144.140625" xlink:href="#DejaVuSans-111"/>
      <use x="1205.322266" xlink:href="#DejaVuSans-114"/>
     </g>
    </g>
   </g>
   <g id="line2d_29">
    <path clip-path="url(#p5f67b7dba7)" d="M 72 143.456303 
L 80.928 143.377239 
L 89.856 142.650534 
L 98.784 142.182036 
L 107.712 142.045812 
L 116.64 141.658688 
L 125.568 141.448236 
L 134.496 141.366894 
L 143.424 140.286455 
L 152.352 139.008336 
L 161.28 138.702947 
L 170.208 138.618422 
L 179.136 138.846685 
L 188.064 138.714784 
L 196.992 137.93832 
L 205.92 136.93627 
L 214.848 138.000898 
L 223.776 137.254582 
L 232.704 137.34082 
L 241.632 137.929379 
L 250.56 137.679637 
L 259.488 135.41341 
L 268.416 137.919836 
L 277.344 134.380112 
L 286.272 137.651679 
L 295.2 137.832553 
L 304.128 137.884576 
L 313.056 136.384196 
L 321.984 136.803876 
L 330.912 133.551552 
L 339.84 136.325176 
L 348.768 134.209388 
L 357.696 134.489966 
L 366.624 134.89805 
L 375.552 129.507696 
L 384.48 131.910541 
L 393.408 131.245169 
L 402.336 130.84637 
L 411.264 133.033462 
L 420.192 135.172065 
L 429.12 128.537995 
L 438.048 129.120785 
L 446.976 132.787726 
L 455.904 130.480612 
L 464.832 130.009956 
L 473.76 132.684358 
L 482.688 134.158744 
L 491.616 133.96013 
L 500.544 132.357794 
L 509.472 135.283191 
L 518.4 129.219241 
" style="fill:none;stroke:#1f77b4;stroke-linecap:square;stroke-width:1.5;"/>
   </g>
   <g id="line2d_30">
    <path clip-path="url(#p5f67b7dba7)" d="M 72 119.8807 
L 80.928 115.614715 
L 89.856 115.619259 
L 98.784 115.619259 
L 107.712 115.619259 
L 116.64 115.619576 
L 125.568 115.620113 
L 134.496 115.620113 
L 143.424 115.620318 
L 152.352 115.621525 
L 161.28 116.416754 
L 170.208 118.639982 
L 179.136 119.530892 
L 188.064 121.26472 
L 196.992 122.866266 
L 205.92 124.452136 
L 214.848 126.261196 
L 223.776 127.295869 
L 232.704 128.464135 
L 241.632 128.952386 
L 250.56 129.265869 
L 259.488 130.497361 
L 268.416 130.858258 
L 277.344 130.872635 
L 286.272 131.363915 
L 295.2 131.444878 
L 304.128 131.280416 
L 313.056 132.343876 
L 321.984 133.847096 
L 330.912 133.186862 
L 339.84 133.305115 
L 348.768 133.723955 
L 357.696 134.760393 
L 366.624 134.347921 
L 375.552 135.826334 
L 384.48 135.647485 
L 393.408 135.95732 
L 402.336 137.215236 
L 411.264 139.195502 
L 420.192 138.509156 
L 429.12 139.505408 
L 438.048 139.291357 
L 446.976 139.349531 
L 455.904 139.274373 
L 464.832 141.001428 
L 473.76 141.79432 
L 482.688 142.95742 
L 491.616 143.43814 
L 500.544 143.852836 
L 509.472 144.055514 
L 518.4 144.306338 
" style="fill:none;stroke:#ff7f0e;stroke-linecap:square;stroke-width:1.5;"/>
   </g>
   <g id="line2d_31">
    <path clip-path="url(#p5f67b7dba7)" d="M 72 151.295787 
L 80.928 153.315262 
L 89.856 152.761472 
L 98.784 153.718464 
L 107.712 155.266326 
L 116.64 157.716833 
L 125.568 163.542502 
L 134.496 164.486889 
L 143.424 164.692937 
L 152.352 165.101058 
L 161.28 165.957906 
L 170.208 166.355645 
L 179.136 166.84241 
L 188.064 167.34116 
L 196.992 167.753067 
L 205.92 168.017641 
L 214.848 168.264273 
L 223.776 168.356391 
L 232.704 168.40629 
L 241.632 168.437714 
L 250.56 168.468089 
L 259.488 168.54571 
L 268.416 169.039704 
L 277.344 169.094888 
L 286.272 169.15664 
L 295.2 169.981913 
L 304.128 170.182277 
L 313.056 170.458311 
L 321.984 170.667502 
L 330.912 174.597299 
L 339.84 181.353221 
L 348.768 184.706709 
L 357.696 185.083137 
L 366.624 189.08376 
L 375.552 189.302162 
L 384.48 189.471876 
L 393.408 189.493852 
L 402.336 189.543712 
L 411.264 189.656318 
L 420.192 189.678634 
L 429.12 189.762096 
L 438.048 189.800718 
L 446.976 189.808431 
L 455.904 189.849502 
L 464.832 190.051466 
L 473.76 190.376806 
L 482.688 190.448457 
L 491.616 190.813962 
L 500.544 190.926355 
L 509.472 191.798544 
L 518.4 191.886189 
" style="fill:none;stroke:#2ca02c;stroke-linecap:square;stroke-width:1.5;"/>
   </g>
   <g id="line2d_32">
    <path clip-path="url(#p5f67b7dba7)" d="M 72 145.649152 
L 80.928 148.199435 
L 89.856 146.144943 
L 98.784 150.740883 
L 107.712 158.208602 
L 116.64 160.785241 
L 125.568 157.832675 
L 134.496 158.26454 
L 143.424 162.155911 
L 152.352 160.206444 
L 161.28 156.165577 
L 170.208 156.30756 
L 179.136 149.046378 
L 188.064 123.62494 
L 196.992 126.503921 
L 205.92 123.913948 
L 214.848 149.172582 
L 223.776 125.759016 
L 232.704 123.543917 
L 241.632 126.859424 
L 250.56 127.866026 
L 259.488 124.604499 
L 268.416 130.168702 
L 277.344 135.440718 
L 286.272 135.597878 
L 295.2 139.227923 
L 304.128 141.738759 
L 313.056 142.148927 
L 321.984 143.341519 
L 330.912 143.121956 
L 339.84 145.309241 
L 348.768 148.619843 
L 357.696 149.06309 
L 366.624 150.273728 
L 375.552 150.889096 
L 384.48 152.711813 
L 393.408 165.014157 
L 402.336 179.334638 
L 411.264 157.001531 
L 420.192 156.606514 
L 429.12 157.792848 
L 438.048 162.889435 
L 446.976 163.343932 
L 455.904 164.495263 
L 464.832 165.71263 
L 473.76 166.022306 
L 482.688 166.373797 
L 491.616 167.236682 
L 500.544 167.968507 
L 509.472 170.413526 
L 518.4 170.742729 
" style="fill:none;stroke:#d62728;stroke-linecap:square;stroke-width:1.5;"/>
   </g>
   <g id="line2d_33">
    <path clip-path="url(#p5f67b7dba7)" d="M 72 145.793447 
L 80.928 130.813018 
L 89.856 118.342413 
L 98.784 116.246042 
L 107.712 117.585254 
L 116.64 121.177686 
L 125.568 124.359602 
L 134.496 121.719643 
L 143.424 118.588665 
L 152.352 119.73418 
L 161.28 120.31863 
L 170.208 118.000703 
L 179.136 122.486401 
L 188.064 127.298118 
L 196.992 139.984253 
L 205.92 140.862769 
L 214.848 142.03161 
L 223.776 142.940133 
L 232.704 147.184033 
L 241.632 147.203017 
L 250.56 146.396529 
L 259.488 150.551607 
L 268.416 152.0753 
L 277.344 155.406789 
L 286.272 165.456318 
L 295.2 165.417227 
L 304.128 175.012653 
L 313.056 176.393638 
L 321.984 178.467086 
L 330.912 179.763891 
L 339.84 185.537874 
L 348.768 187.273971 
L 357.696 191.126354 
L 366.624 194.16526 
L 375.552 201.322083 
L 384.48 205.185211 
L 393.408 208.861986 
L 402.336 215.831711 
L 411.264 218.160038 
L 420.192 219.604644 
L 429.12 222.154745 
L 438.048 225.303141 
L 446.976 227.020318 
L 455.904 229.899171 
L 464.832 230.714899 
L 473.76 232.281052 
L 482.688 234.157591 
L 491.616 236.341654 
L 500.544 236.786712 
L 509.472 238.421409 
L 518.4 239.358329 
" style="fill:none;stroke:#9467bd;stroke-linecap:square;stroke-width:1.5;"/>
   </g>
   <g id="line2d_34">
    <path clip-path="url(#p5f67b7dba7)" d="M 72 150.440097 
L 80.928 152.490129 
L 89.856 153.13774 
L 98.784 155.048247 
L 107.712 159.439193 
L 116.64 161.988632 
L 125.568 164.406705 
L 134.496 165.079439 
L 143.424 165.942643 
L 152.352 166.007573 
L 161.28 166.611735 
L 170.208 167.590511 
L 179.136 168.042294 
L 188.064 168.854389 
L 196.992 170.290861 
L 205.92 174.969108 
L 214.848 178.609895 
L 223.776 184.19315 
L 232.704 191.511816 
L 241.632 197.540942 
L 250.56 200.301665 
L 259.488 203.15484 
L 268.416 207.014061 
L 277.344 210.671332 
L 286.272 216.094352 
L 295.2 218.904645 
L 304.128 220.570986 
L 313.056 222.833172 
L 321.984 224.872972 
L 330.912 226.480511 
L 339.84 228.342555 
L 348.768 228.032092 
L 357.696 228.939247 
L 366.624 218.772077 
L 375.552 229.415987 
L 384.48 231.663271 
L 393.408 228.708759 
L 402.336 230.568489 
L 411.264 231.313252 
L 420.192 230.953433 
L 429.12 235.090538 
L 438.048 235.449348 
L 446.976 235.410629 
L 455.904 230.786969 
L 464.832 237.251286 
L 473.76 241.512711 
L 482.688 232.290574 
L 491.616 241.071656 
L 500.544 244.418345 
L 509.472 250.692339 
L 518.4 258.235344 
" style="fill:none;stroke:#8c564b;stroke-linecap:square;stroke-width:1.5;"/>
   </g>
   <g id="line2d_35">
    <path clip-path="url(#p5f67b7dba7)" d="M 72 146.80073 
L 80.928 146.733178 
L 89.856 146.531897 
L 98.784 146.351227 
L 107.712 146.3355 
L 116.64 146.09808 
L 125.568 145.563639 
L 134.496 145.199114 
L 143.424 145.412098 
L 152.352 145.848458 
L 161.28 145.964 
L 170.208 145.996451 
L 179.136 146.258196 
L 188.064 146.632365 
L 196.992 146.773776 
L 205.92 146.681828 
L 214.848 146.6024 
L 223.776 146.563489 
L 232.704 146.6567 
L 241.632 146.514974 
L 250.56 146.697897 
L 259.488 146.600712 
L 268.416 146.587933 
L 277.344 146.422973 
L 286.272 146.604569 
L 295.2 146.490969 
L 304.128 146.359509 
L 313.056 146.338442 
L 321.984 146.264895 
L 330.912 146.374058 
L 339.84 146.240832 
L 348.768 146.339429 
L 357.696 146.36009 
L 366.624 146.39881 
L 375.552 146.304139 
L 384.48 146.319761 
L 393.408 146.34275 
L 402.336 146.299367 
L 411.264 146.224981 
L 420.192 146.315598 
L 429.12 146.335145 
L 438.048 146.291274 
L 446.976 146.250441 
L 455.904 146.369038 
L 464.832 146.336188 
L 473.76 146.291474 
L 482.688 146.246211 
L 491.616 146.347791 
L 500.544 146.352256 
L 509.472 146.300858 
L 518.4 146.239001 
" style="fill:none;stroke:#e377c2;stroke-linecap:square;stroke-width:1.5;"/>
   </g>
   <g id="patch_3">
    <path d="M 72 384.48 
L 72 51.84 
" style="fill:none;stroke:#000000;stroke-linecap:square;stroke-linejoin:miter;stroke-width:0.8;"/>
   </g>
   <g id="patch_4">
    <path d="M 518.4 384.48 
L 518.4 51.84 
" style="fill:none;stroke:#000000;stroke-linecap:square;stroke-linejoin:miter;stroke-width:0.8;"/>
   </g>
   <g id="patch_5">
    <path d="M 72 384.48 
L 518.4 384.48 
" style="fill:none;stroke:#000000;stroke-linecap:square;stroke-linejoin:miter;stroke-width:0.8;"/>
   </g>
   <g id="patch_6">
    <path d="M 72 51.84 
L 518.4 51.84 
" style="fill:none;stroke:#000000;stroke-linecap:square;stroke-linejoin:miter;stroke-width:0.8;"/>
   </g>
   <g id="legend_1">
    <g id="patch_7">
     <path d="M 79 379.48 
L 165.804688 379.48 
Q 167.804688 379.48 167.804688 377.48 
L 167.804688 275.733125 
Q 167.804688 273.733125 165.804688 273.733125 
L 79 273.733125 
Q 77 273.733125 77 275.733125 
L 77 377.48 
Q 77 379.48 79 379.48 
z
" style="fill:#ffffff;opacity:0.8;stroke:#cccccc;stroke-linejoin:miter;"/>
    </g>
    <g id="line2d_36">
     <path d="M 81 281.831563 
L 101 281.831563 
" style="fill:none;stroke:#1f77b4;stroke-linecap:square;stroke-width:1.5;"/>
    </g>
    <g id="line2d_37"/>
    <g id="text_17">
     <!-- Constant -->
     <defs>
      <path d="M 64.40625 67.28125 
L 64.40625 56.890625 
Q 59.421875 61.53125 53.78125 63.8125 
Q 48.140625 66.109375 41.796875 66.109375 
Q 29.296875 66.109375 22.65625 58.46875 
Q 16.015625 50.828125 16.015625 36.375 
Q 16.015625 21.96875 22.65625 14.328125 
Q 29.296875 6.6875 41.796875 6.6875 
Q 48.140625 6.6875 53.78125 8.984375 
Q 59.421875 11.28125 64.40625 15.921875 
L 64.40625 5.609375 
Q 59.234375 2.09375 53.4375 0.328125 
Q 47.65625 -1.421875 41.21875 -1.421875 
Q 24.65625 -1.421875 15.125 8.703125 
Q 5.609375 18.84375 5.609375 36.375 
Q 5.609375 53.953125 15.125 64.078125 
Q 24.65625 74.21875 41.21875 74.21875 
Q 47.75 74.21875 53.53125 72.484375 
Q 59.328125 70.75 64.40625 67.28125 
z
" id="DejaVuSans-67"/>
      <path d="M 44.28125 53.078125 
L 44.28125 44.578125 
Q 40.484375 46.53125 36.375 47.5 
Q 32.28125 48.484375 27.875 48.484375 
Q 21.1875 48.484375 17.84375 46.4375 
Q 14.5 44.390625 14.5 40.28125 
Q 14.5 37.15625 16.890625 35.375 
Q 19.28125 33.59375 26.515625 31.984375 
L 29.59375 31.296875 
Q 39.15625 29.25 43.1875 25.515625 
Q 47.21875 21.78125 47.21875 15.09375 
Q 47.21875 7.46875 41.1875 3.015625 
Q 35.15625 -1.421875 24.609375 -1.421875 
Q 20.21875 -1.421875 15.453125 -0.5625 
Q 10.6875 0.296875 5.421875 2 
L 5.421875 11.28125 
Q 10.40625 8.6875 15.234375 7.390625 
Q 20.0625 6.109375 24.8125 6.109375 
Q 31.15625 6.109375 34.5625 8.28125 
Q 37.984375 10.453125 37.984375 14.40625 
Q 37.984375 18.0625 35.515625 20.015625 
Q 33.0625 21.96875 24.703125 23.78125 
L 21.578125 24.515625 
Q 13.234375 26.265625 9.515625 29.90625 
Q 5.8125 33.546875 5.8125 39.890625 
Q 5.8125 47.609375 11.28125 51.796875 
Q 16.75 56 26.8125 56 
Q 31.78125 56 36.171875 55.265625 
Q 40.578125 54.546875 44.28125 53.078125 
z
" id="DejaVuSans-115"/>
     </defs>
     <g transform="translate(109 285.331563)scale(0.1 -0.1)">
      <use xlink:href="#DejaVuSans-67"/>
      <use x="69.824219" xlink:href="#DejaVuSans-111"/>
      <use x="131.005859" xlink:href="#DejaVuSans-110"/>
      <use x="194.384766" xlink:href="#DejaVuSans-115"/>
      <use x="246.484375" xlink:href="#DejaVuSans-116"/>
      <use x="285.693359" xlink:href="#DejaVuSans-97"/>
      <use x="346.972656" xlink:href="#DejaVuSans-110"/>
      <use x="410.351562" xlink:href="#DejaVuSans-116"/>
     </g>
    </g>
    <g id="line2d_38">
     <path d="M 81 296.509688 
L 101 296.509688 
" style="fill:none;stroke:#ff7f0e;stroke-linecap:square;stroke-width:1.5;"/>
    </g>
    <g id="line2d_39"/>
    <g id="text_18">
     <!-- RBF -->
     <defs>
      <path d="M 44.390625 34.1875 
Q 47.5625 33.109375 50.5625 29.59375 
Q 53.5625 26.078125 56.59375 19.921875 
L 66.609375 0 
L 56 0 
L 46.6875 18.703125 
Q 43.0625 26.03125 39.671875 28.421875 
Q 36.28125 30.8125 30.421875 30.8125 
L 19.671875 30.8125 
L 19.671875 0 
L 9.8125 0 
L 9.8125 72.90625 
L 32.078125 72.90625 
Q 44.578125 72.90625 50.734375 67.671875 
Q 56.890625 62.453125 56.890625 51.90625 
Q 56.890625 45.015625 53.6875 40.46875 
Q 50.484375 35.9375 44.390625 34.1875 
z
M 19.671875 64.796875 
L 19.671875 38.921875 
L 32.078125 38.921875 
Q 39.203125 38.921875 42.84375 42.21875 
Q 46.484375 45.515625 46.484375 51.90625 
Q 46.484375 58.296875 42.84375 61.546875 
Q 39.203125 64.796875 32.078125 64.796875 
z
" id="DejaVuSans-82"/>
      <path d="M 19.671875 34.8125 
L 19.671875 8.109375 
L 35.5 8.109375 
Q 43.453125 8.109375 47.28125 11.40625 
Q 51.125 14.703125 51.125 21.484375 
Q 51.125 28.328125 47.28125 31.5625 
Q 43.453125 34.8125 35.5 34.8125 
z
M 19.671875 64.796875 
L 19.671875 42.828125 
L 34.28125 42.828125 
Q 41.5 42.828125 45.03125 45.53125 
Q 48.578125 48.25 48.578125 53.8125 
Q 48.578125 59.328125 45.03125 62.0625 
Q 41.5 64.796875 34.28125 64.796875 
z
M 9.8125 72.90625 
L 35.015625 72.90625 
Q 46.296875 72.90625 52.390625 68.21875 
Q 58.5 63.53125 58.5 54.890625 
Q 58.5 48.1875 55.375 44.234375 
Q 52.25 40.28125 46.1875 39.3125 
Q 53.46875 37.75 57.5 32.78125 
Q 61.53125 27.828125 61.53125 20.40625 
Q 61.53125 10.640625 54.890625 5.3125 
Q 48.25 0 35.984375 0 
L 9.8125 0 
z
" id="DejaVuSans-66"/>
      <path d="M 9.8125 72.90625 
L 51.703125 72.90625 
L 51.703125 64.59375 
L 19.671875 64.59375 
L 19.671875 43.109375 
L 48.578125 43.109375 
L 48.578125 34.8125 
L 19.671875 34.8125 
L 19.671875 0 
L 9.8125 0 
z
" id="DejaVuSans-70"/>
     </defs>
     <g transform="translate(109 300.009688)scale(0.1 -0.1)">
      <use xlink:href="#DejaVuSans-82"/>
      <use x="69.482422" xlink:href="#DejaVuSans-66"/>
      <use x="138.085938" xlink:href="#DejaVuSans-70"/>
     </g>
    </g>
    <g id="line2d_40">
     <path d="M 81 311.187813 
L 101 311.187813 
" style="fill:none;stroke:#2ca02c;stroke-linecap:square;stroke-width:1.5;"/>
    </g>
    <g id="line2d_41"/>
    <g id="text_19">
     <!-- Matrn-1/2 -->
     <defs>
      <path d="M 9.8125 72.90625 
L 24.515625 72.90625 
L 43.109375 23.296875 
L 61.8125 72.90625 
L 76.515625 72.90625 
L 76.515625 0 
L 66.890625 0 
L 66.890625 64.015625 
L 48.09375 14.015625 
L 38.1875 14.015625 
L 19.390625 64.015625 
L 19.390625 0 
L 9.8125 0 
z
" id="DejaVuSans-77"/>
      <path d="M 56.203125 29.59375 
L 56.203125 25.203125 
L 14.890625 25.203125 
Q 15.484375 15.921875 20.484375 11.0625 
Q 25.484375 6.203125 34.421875 6.203125 
Q 39.59375 6.203125 44.453125 7.46875 
Q 49.3125 8.734375 54.109375 11.28125 
L 54.109375 2.78125 
Q 49.265625 0.734375 44.1875 -0.34375 
Q 39.109375 -1.421875 33.890625 -1.421875 
Q 20.796875 -1.421875 13.15625 6.1875 
Q 5.515625 13.8125 5.515625 26.8125 
Q 5.515625 40.234375 12.765625 48.109375 
Q 20.015625 56 32.328125 56 
Q 43.359375 56 49.78125 48.890625 
Q 56.203125 41.796875 56.203125 29.59375 
z
M 47.21875 32.234375 
Q 47.125 39.59375 43.09375 43.984375 
Q 39.0625 48.390625 32.421875 48.390625 
Q 24.90625 48.390625 20.390625 44.140625 
Q 15.875 39.890625 15.1875 32.171875 
z
M 38.53125 79.984375 
L 48.25 79.984375 
L 32.34375 61.625 
L 24.859375 61.625 
z
" id="DejaVuSans-233"/>
      <path d="M 4.890625 31.390625 
L 31.203125 31.390625 
L 31.203125 23.390625 
L 4.890625 23.390625 
z
" id="DejaVuSans-45"/>
      <path d="M 25.390625 72.90625 
L 33.6875 72.90625 
L 8.296875 -9.28125 
L 0 -9.28125 
z
" id="DejaVuSans-47"/>
     </defs>
     <g transform="translate(109 314.687813)scale(0.1 -0.1)">
      <use xlink:href="#DejaVuSans-77"/>
      <use x="86.279297" xlink:href="#DejaVuSans-97"/>
      <use x="147.558594" xlink:href="#DejaVuSans-116"/>
      <use x="186.767578" xlink:href="#DejaVuSans-233"/>
      <use x="248.291016" xlink:href="#DejaVuSans-114"/>
      <use x="287.654297" xlink:href="#DejaVuSans-110"/>
      <use x="351.033203" xlink:href="#DejaVuSans-45"/>
      <use x="387.117188" xlink:href="#DejaVuSans-49"/>
      <use x="450.740234" xlink:href="#DejaVuSans-47"/>
      <use x="484.431641" xlink:href="#DejaVuSans-50"/>
     </g>
    </g>
    <g id="line2d_42">
     <path d="M 81 325.865938 
L 101 325.865938 
" style="fill:none;stroke:#d62728;stroke-linecap:square;stroke-width:1.5;"/>
    </g>
    <g id="line2d_43"/>
    <g id="text_20">
     <!-- Matrn-3/2 -->
     <g transform="translate(109 329.365938)scale(0.1 -0.1)">
      <use xlink:href="#DejaVuSans-77"/>
      <use x="86.279297" xlink:href="#DejaVuSans-97"/>
      <use x="147.558594" xlink:href="#DejaVuSans-116"/>
      <use x="186.767578" xlink:href="#DejaVuSans-233"/>
      <use x="248.291016" xlink:href="#DejaVuSans-114"/>
      <use x="287.654297" xlink:href="#DejaVuSans-110"/>
      <use x="351.033203" xlink:href="#DejaVuSans-45"/>
      <use x="387.117188" xlink:href="#DejaVuSans-51"/>
      <use x="450.740234" xlink:href="#DejaVuSans-47"/>
      <use x="484.431641" xlink:href="#DejaVuSans-50"/>
     </g>
    </g>
    <g id="line2d_44">
     <path d="M 81 340.544062 
L 101 340.544062 
" style="fill:none;stroke:#9467bd;stroke-linecap:square;stroke-width:1.5;"/>
    </g>
    <g id="line2d_45"/>
    <g id="text_21">
     <!-- Matrn-5/2 -->
     <g transform="translate(109 344.044062)scale(0.1 -0.1)">
      <use xlink:href="#DejaVuSans-77"/>
      <use x="86.279297" xlink:href="#DejaVuSans-97"/>
      <use x="147.558594" xlink:href="#DejaVuSans-116"/>
      <use x="186.767578" xlink:href="#DejaVuSans-233"/>
      <use x="248.291016" xlink:href="#DejaVuSans-114"/>
      <use x="287.654297" xlink:href="#DejaVuSans-110"/>
      <use x="351.033203" xlink:href="#DejaVuSans-45"/>
      <use x="387.117188" xlink:href="#DejaVuSans-53"/>
      <use x="450.740234" xlink:href="#DejaVuSans-47"/>
      <use x="484.431641" xlink:href="#DejaVuSans-50"/>
     </g>
    </g>
    <g id="line2d_46">
     <path d="M 81 355.222188 
L 101 355.222188 
" style="fill:none;stroke:#8c564b;stroke-linecap:square;stroke-width:1.5;"/>
    </g>
    <g id="line2d_47"/>
    <g id="text_22">
     <!-- RQ -->
     <defs>
      <path d="M 39.40625 66.21875 
Q 28.65625 66.21875 22.328125 58.203125 
Q 16.015625 50.203125 16.015625 36.375 
Q 16.015625 22.609375 22.328125 14.59375 
Q 28.65625 6.59375 39.40625 6.59375 
Q 50.140625 6.59375 56.421875 14.59375 
Q 62.703125 22.609375 62.703125 36.375 
Q 62.703125 50.203125 56.421875 58.203125 
Q 50.140625 66.21875 39.40625 66.21875 
z
M 53.21875 1.3125 
L 66.21875 -12.890625 
L 54.296875 -12.890625 
L 43.5 -1.21875 
Q 41.890625 -1.3125 41.03125 -1.359375 
Q 40.1875 -1.421875 39.40625 -1.421875 
Q 24.03125 -1.421875 14.8125 8.859375 
Q 5.609375 19.140625 5.609375 36.375 
Q 5.609375 53.65625 14.8125 63.9375 
Q 24.03125 74.21875 39.40625 74.21875 
Q 54.734375 74.21875 63.90625 63.9375 
Q 73.09375 53.65625 73.09375 36.375 
Q 73.09375 23.6875 67.984375 14.640625 
Q 62.890625 5.609375 53.21875 1.3125 
z
" id="DejaVuSans-81"/>
     </defs>
     <g transform="translate(109 358.722188)scale(0.1 -0.1)">
      <use xlink:href="#DejaVuSans-82"/>
      <use x="69.482422" xlink:href="#DejaVuSans-81"/>
     </g>
    </g>
    <g id="line2d_48">
     <path d="M 81 369.900313 
L 101 369.900313 
" style="fill:none;stroke:#e377c2;stroke-linecap:square;stroke-width:1.5;"/>
    </g>
    <g id="line2d_49"/>
    <g id="text_23">
     <!-- Dot Prod. -->
     <defs>
      <path d="M 19.671875 64.796875 
L 19.671875 8.109375 
L 31.59375 8.109375 
Q 46.6875 8.109375 53.6875 14.9375 
Q 60.6875 21.78125 60.6875 36.53125 
Q 60.6875 51.171875 53.6875 57.984375 
Q 46.6875 64.796875 31.59375 64.796875 
z
M 9.8125 72.90625 
L 30.078125 72.90625 
Q 51.265625 72.90625 61.171875 64.09375 
Q 71.09375 55.28125 71.09375 36.53125 
Q 71.09375 17.671875 61.125 8.828125 
Q 51.171875 0 30.078125 0 
L 9.8125 0 
z
" id="DejaVuSans-68"/>
      <path d="M 19.671875 64.796875 
L 19.671875 37.40625 
L 32.078125 37.40625 
Q 38.96875 37.40625 42.71875 40.96875 
Q 46.484375 44.53125 46.484375 51.125 
Q 46.484375 57.671875 42.71875 61.234375 
Q 38.96875 64.796875 32.078125 64.796875 
z
M 9.8125 72.90625 
L 32.078125 72.90625 
Q 44.34375 72.90625 50.609375 67.359375 
Q 56.890625 61.8125 56.890625 51.125 
Q 56.890625 40.328125 50.609375 34.8125 
Q 44.34375 29.296875 32.078125 29.296875 
L 19.671875 29.296875 
L 19.671875 0 
L 9.8125 0 
z
" id="DejaVuSans-80"/>
      <path d="M 10.6875 12.40625 
L 21 12.40625 
L 21 0 
L 10.6875 0 
z
" id="DejaVuSans-46"/>
     </defs>
     <g transform="translate(109 373.400313)scale(0.1 -0.1)">
      <use xlink:href="#DejaVuSans-68"/>
      <use x="77.001953" xlink:href="#DejaVuSans-111"/>
      <use x="138.183594" xlink:href="#DejaVuSans-116"/>
      <use x="177.392578" xlink:href="#DejaVuSans-32"/>
      <use x="209.179688" xlink:href="#DejaVuSans-80"/>
      <use x="267.732422" xlink:href="#DejaVuSans-114"/>
      <use x="306.595703" xlink:href="#DejaVuSans-111"/>
      <use x="367.777344" xlink:href="#DejaVuSans-100"/>
      <use x="431.253906" xlink:href="#DejaVuSans-46"/>
     </g>
    </g>
   </g>
  </g>
 </g>
 <defs>
  <clipPath id="p5f67b7dba7">
   <rect height="332.64" width="446.4" x="72" y="51.84"/>
  </clipPath>
 </defs>
</svg>
