<?xml version="1.0" encoding="utf-8" standalone="no"?>
<!DOCTYPE svg PUBLIC "-//W3C//DTD SVG 1.1//EN"
  "http://www.w3.org/Graphics/SVG/1.1/DTD/svg11.dtd">
<!-- Created with matplotlib (https://matplotlib.org/) -->
<svg height="432pt" version="1.1" viewBox="0 0 576 432" width="576pt" xmlns="http://www.w3.org/2000/svg" xmlns:xlink="http://www.w3.org/1999/xlink">
 <defs>
  <style type="text/css">
*{stroke-linecap:butt;stroke-linejoin:round;}
  </style>
 </defs>
 <g id="figure_1">
  <g id="patch_1">
   <path d="M 0 432 
L 576 432 
L 576 0 
L 0 0 
z
" style="fill:#ffffff;"/>
  </g>
  <g id="axes_1">
   <g id="patch_2">
    <path d="M 72 384.48 
L 518.4 384.48 
L 518.4 51.84 
L 72 51.84 
z
" style="fill:#ffffff;"/>
   </g>
   <g id="PolyCollection_1">
    <path clip-path="url(#p78af0c36d5)" d="M 72 59.522436 
L 72 56.75015 
L 80.928 57.974336 
L 89.856 57.181803 
L 98.784 57.242494 
L 107.712 58.199206 
L 116.64 58.555697 
L 125.568 57.875266 
L 134.496 57.627369 
L 143.424 57.844671 
L 152.352 57.445654 
L 161.28 57.829531 
L 170.208 58.044974 
L 179.136 58.538627 
L 188.064 57.557134 
L 196.992 56.932516 
L 205.92 57.903821 
L 214.848 58.193951 
L 223.776 57.760167 
L 232.704 56.953894 
L 241.632 58.092838 
L 250.56 57.329297 
L 259.488 56.688104 
L 268.416 58.481686 
L 277.344 55.159338 
L 286.272 56.002204 
L 295.2 55.90711 
L 304.128 57.190527 
L 313.056 56.505894 
L 321.984 57.84866 
L 330.912 54.824468 
L 339.84 55.659496 
L 348.768 54.829363 
L 357.696 56.316185 
L 366.624 55.752132 
L 375.552 53.223396 
L 384.48 55.084347 
L 393.408 53.713185 
L 402.336 52.861818 
L 411.264 50.712007 
L 420.192 53.108842 
L 429.12 50.852581 
L 438.048 53.144959 
L 446.976 51.195817 
L 455.904 51.013396 
L 464.832 54.476584 
L 473.76 53.341118 
L 482.688 49.277355 
L 491.616 47.763545 
L 500.544 53.36201 
L 509.472 52.599631 
L 518.4 52.426534 
L 518.4 60.921726 
L 518.4 60.921726 
L 509.472 60.353779 
L 500.544 61.922318 
L 491.616 60.542012 
L 482.688 60.251468 
L 473.76 60.331278 
L 464.832 60.927138 
L 455.904 60.195895 
L 446.976 59.848396 
L 438.048 61.105373 
L 429.12 59.977888 
L 420.192 60.139253 
L 411.264 59.315103 
L 402.336 59.435658 
L 393.408 60.265844 
L 384.48 60.677288 
L 375.552 60.352522 
L 366.624 59.768472 
L 357.696 59.649717 
L 348.768 59.289582 
L 339.84 59.54812 
L 330.912 59.763057 
L 321.984 59.824217 
L 313.056 60.251268 
L 304.128 59.938004 
L 295.2 60.008892 
L 286.272 59.454899 
L 277.344 60.026423 
L 268.416 59.268382 
L 259.488 59.601024 
L 250.56 59.534713 
L 241.632 59.45721 
L 232.704 59.573687 
L 223.776 59.542607 
L 214.848 59.18378 
L 205.92 59.648175 
L 196.992 59.36636 
L 188.064 59.222956 
L 179.136 59.272117 
L 170.208 59.18059 
L 161.28 59.110418 
L 152.352 59.250672 
L 143.424 59.242362 
L 134.496 59.120765 
L 125.568 59.317459 
L 116.64 58.998227 
L 107.712 59.242728 
L 98.784 59.073392 
L 89.856 59.186754 
L 80.928 58.855203 
L 72 59.522436 
z
" style="fill:#1f77b4;fill-opacity:0.3;"/>
   </g>
   <g id="PolyCollection_2">
    <path clip-path="url(#p78af0c36d5)" d="M 72 63.848477 
L 72 54.72207 
L 80.928 57.553757 
L 89.856 63.24025 
L 98.784 51.795969 
L 107.712 89.381016 
L 116.64 90.009752 
L 125.568 94.422831 
L 134.496 84.646401 
L 143.424 117.715355 
L 152.352 122.301076 
L 161.28 125.076191 
L 170.208 82.270676 
L 179.136 41.481983 
L 188.064 41.125698 
L 196.992 40.289482 
L 205.92 51.308117 
L 214.848 51.308117 
L 223.776 51.308117 
L 232.704 51.308117 
L 241.632 51.308117 
L 250.56 51.308117 
L 259.488 51.308117 
L 268.416 51.308117 
L 277.344 51.308117 
L 286.272 51.308117 
L 295.2 51.308117 
L 304.128 51.308117 
L 313.056 51.308117 
L 321.984 51.308117 
L 330.912 51.308117 
L 339.84 51.308117 
L 348.768 51.308117 
L 357.696 51.308117 
L 366.624 51.308117 
L 375.552 51.308117 
L 384.48 51.308117 
L 393.408 51.308117 
L 402.336 51.308117 
L 411.264 51.308117 
L 420.192 51.308117 
L 429.12 51.308117 
L 438.048 51.308117 
L 446.976 51.308117 
L 455.904 51.308117 
L 464.832 51.308117 
L 473.76 51.308117 
L 482.688 51.308117 
L 491.616 51.308117 
L 500.544 51.308117 
L 509.472 51.308117 
L 518.4 51.308117 
L 518.4 51.308117 
L 518.4 51.308117 
L 509.472 51.308117 
L 500.544 51.308117 
L 491.616 51.308117 
L 482.688 51.308117 
L 473.76 51.308117 
L 464.832 51.308117 
L 455.904 51.308117 
L 446.976 51.308117 
L 438.048 51.308117 
L 429.12 51.308117 
L 420.192 51.308117 
L 411.264 51.308117 
L 402.336 51.308117 
L 393.408 51.308117 
L 384.48 51.308117 
L 375.552 51.308117 
L 366.624 51.308117 
L 357.696 51.308117 
L 348.768 51.308117 
L 339.84 51.308117 
L 330.912 51.308117 
L 321.984 51.308117 
L 313.056 51.308117 
L 304.128 51.308117 
L 295.2 51.308117 
L 286.272 51.308117 
L 277.344 51.308117 
L 268.416 51.308117 
L 259.488 51.308117 
L 250.56 51.308117 
L 241.632 51.308117 
L 232.704 51.308117 
L 223.776 51.308117 
L 214.848 51.308117 
L 205.92 51.308117 
L 196.992 66.066143 
L 188.064 64.884677 
L 179.136 64.474534 
L 170.208 144.44273 
L 161.28 130.176822 
L 152.352 128.44664 
L 143.424 121.671444 
L 134.496 106.308196 
L 125.568 102.328149 
L 116.64 101.19919 
L 107.712 98.124194 
L 98.784 79.907617 
L 89.856 78.036702 
L 80.928 75.100495 
L 72 63.848477 
z
" style="fill:#ff7f0e;fill-opacity:0.3;"/>
   </g>
   <g id="PolyCollection_3">
    <path clip-path="url(#p78af0c36d5)" d="M 72 67.736131 
L 72 57.040215 
L 80.928 57.7946 
L 89.856 67.648353 
L 98.784 61.07558 
L 107.712 90.870016 
L 116.64 91.048597 
L 125.568 91.275629 
L 134.496 91.379399 
L 143.424 91.514126 
L 152.352 91.676198 
L 161.28 91.812476 
L 170.208 91.84639 
L 179.136 117.643946 
L 188.064 117.734244 
L 196.992 117.826285 
L 205.92 117.905494 
L 214.848 117.976987 
L 223.776 118.045503 
L 232.704 118.113106 
L 241.632 118.300426 
L 250.56 118.534087 
L 259.488 118.584838 
L 268.416 118.636067 
L 277.344 119.896921 
L 286.272 119.964551 
L 295.2 120.019457 
L 304.128 120.073361 
L 313.056 120.137108 
L 321.984 146.428832 
L 330.912 146.468268 
L 339.84 146.505295 
L 348.768 147.134604 
L 357.696 147.191067 
L 366.624 147.223204 
L 375.552 147.253285 
L 384.48 147.417073 
L 393.408 147.445873 
L 402.336 147.472408 
L 411.264 147.498129 
L 420.192 148.52228 
L 429.12 148.566708 
L 438.048 148.594659 
L 446.976 148.621991 
L 455.904 148.659963 
L 464.832 152.109423 
L 473.76 152.127497 
L 482.688 152.145024 
L 491.616 153.116606 
L 500.544 153.154221 
L 509.472 153.175019 
L 518.4 153.195213 
L 518.4 153.528001 
L 518.4 153.528001 
L 509.472 153.507931 
L 500.544 153.487273 
L 491.616 153.44823 
L 482.688 152.446566 
L 473.76 152.429422 
L 464.832 152.41176 
L 455.904 149.435114 
L 446.976 149.396996 
L 438.048 149.371089 
L 429.12 149.344645 
L 420.192 149.300416 
L 411.264 148.367059 
L 402.336 148.341038 
L 393.408 148.314232 
L 384.48 148.285011 
L 375.552 148.104164 
L 366.624 148.073811 
L 357.696 148.041339 
L 348.768 147.981635 
L 339.84 147.297136 
L 330.912 147.259814 
L 321.984 147.219915 
L 313.056 122.150043 
L 304.128 122.082163 
L 295.2 122.028984 
L 286.272 121.975035 
L 277.344 121.904927 
L 268.416 120.453024 
L 259.488 120.400457 
L 250.56 120.349177 
L 241.632 120.057581 
L 232.704 119.82634 
L 223.776 119.755462 
L 214.848 119.684164 
L 205.92 119.607884 
L 196.992 119.523329 
L 188.064 119.423344 
L 179.136 119.325532 
L 170.208 104.112418 
L 161.28 103.394249 
L 152.352 102.897539 
L 143.424 102.703188 
L 134.496 101.759357 
L 125.568 98.289775 
L 116.64 98.040383 
L 107.712 97.874599 
L 98.784 84.21007 
L 89.856 77.903487 
L 80.928 74.892655 
L 72 67.736131 
z
" style="fill:#2ca02c;fill-opacity:0.3;"/>
   </g>
   <g id="PolyCollection_4">
    <path clip-path="url(#p78af0c36d5)" d="M 72 66.408888 
L 72 55.409586 
L 80.928 58.393818 
L 89.856 67.418674 
L 98.784 59.041367 
L 107.712 99.252972 
L 116.64 99.567307 
L 125.568 99.869908 
L 134.496 102.960728 
L 143.424 112.086059 
L 152.352 113.013273 
L 161.28 115.190321 
L 170.208 115.905215 
L 179.136 143.544575 
L 188.064 143.73484 
L 196.992 144.001924 
L 205.92 151.358365 
L 214.848 151.674697 
L 223.776 151.805748 
L 232.704 151.930988 
L 241.632 152.053813 
L 250.56 157.804512 
L 259.488 157.975908 
L 268.416 158.138596 
L 277.344 158.408849 
L 286.272 158.558401 
L 295.2 158.694392 
L 304.128 158.798332 
L 313.056 158.920997 
L 321.984 206.078255 
L 330.912 208.886698 
L 339.84 213.306942 
L 348.768 213.187051 
L 357.696 213.600569 
L 366.624 213.656737 
L 375.552 213.710054 
L 384.48 213.763225 
L 393.408 213.816586 
L 402.336 213.863501 
L 411.264 213.909767 
L 420.192 213.900576 
L 429.12 213.942377 
L 438.048 213.982073 
L 446.976 214.020799 
L 455.904 214.057182 
L 464.832 214.3225 
L 473.76 214.405495 
L 482.688 214.44921 
L 491.616 216.517094 
L 500.544 216.556556 
L 509.472 216.59462 
L 518.4 216.631438 
L 518.4 222.843325 
L 518.4 222.843325 
L 509.472 222.796125 
L 500.544 222.747392 
L 491.616 222.692728 
L 482.688 217.911678 
L 473.76 217.863946 
L 464.832 217.743197 
L 455.904 217.270397 
L 446.976 217.230682 
L 438.048 217.187562 
L 429.12 217.144004 
L 420.192 217.098076 
L 411.264 217.152722 
L 402.336 217.100243 
L 393.408 217.048302 
L 384.48 217.021573 
L 375.552 216.961958 
L 366.624 216.90277 
L 357.696 216.840125 
L 348.768 216.146807 
L 339.84 215.165039 
L 330.912 210.911207 
L 321.984 207.75961 
L 313.056 167.254271 
L 304.128 167.122455 
L 295.2 166.596486 
L 286.272 166.419094 
L 277.344 166.222505 
L 268.416 165.66019 
L 259.488 165.443659 
L 250.56 165.189812 
L 241.632 160.39629 
L 232.704 160.081454 
L 223.776 159.883914 
L 214.848 159.677009 
L 205.92 155.844526 
L 196.992 149.932526 
L 188.064 149.027691 
L 179.136 148.569414 
L 170.208 128.659028 
L 161.28 127.990494 
L 152.352 119.892675 
L 143.424 118.960672 
L 134.496 112.142937 
L 125.568 102.599028 
L 116.64 101.518687 
L 107.712 101.096406 
L 98.784 82.147421 
L 89.856 78.281297 
L 80.928 75.821623 
L 72 66.408888 
z
" style="fill:#d62728;fill-opacity:0.3;"/>
   </g>
   <g id="PolyCollection_5">
    <path clip-path="url(#p78af0c36d5)" d="M 72 65.709939 
L 72 55.027832 
L 80.928 58.163863 
L 89.856 64.325419 
L 98.784 57.940186 
L 107.712 96.845456 
L 116.64 97.331486 
L 125.568 99.303974 
L 134.496 95.957682 
L 143.424 118.993609 
L 152.352 120.830037 
L 161.28 129.79443 
L 170.208 131.951563 
L 179.136 148.513595 
L 188.064 148.65549 
L 196.992 148.277043 
L 205.92 171.064807 
L 214.848 172.617732 
L 223.776 172.912077 
L 232.704 173.689371 
L 241.632 173.839682 
L 250.56 186.26606 
L 259.488 186.653226 
L 268.416 186.908728 
L 277.344 186.740657 
L 286.272 186.781888 
L 295.2 186.989169 
L 304.128 187.001457 
L 313.056 187.191906 
L 321.984 219.169952 
L 330.912 225.569482 
L 339.84 237.911545 
L 348.768 243.013994 
L 357.696 243.324769 
L 366.624 243.425165 
L 375.552 243.530233 
L 384.48 243.6961 
L 393.408 244.040133 
L 402.336 244.165763 
L 411.264 244.36529 
L 420.192 245.547079 
L 429.12 244.90127 
L 438.048 245.680488 
L 446.976 245.743559 
L 455.904 245.802059 
L 464.832 253.178206 
L 473.76 255.303282 
L 482.688 256.10798 
L 491.616 260.168063 
L 500.544 260.276692 
L 509.472 260.380186 
L 518.4 260.479911 
L 518.4 263.948572 
L 518.4 263.948572 
L 509.472 263.813661 
L 500.544 263.674369 
L 491.616 263.528251 
L 482.688 261.702565 
L 473.76 260.951191 
L 464.832 258.693994 
L 455.904 251.143803 
L 446.976 251.02829 
L 438.048 250.904756 
L 429.12 251.054525 
L 420.192 250.647268 
L 411.264 248.997134 
L 402.336 248.60545 
L 393.408 248.384093 
L 384.48 248.024362 
L 375.552 247.781837 
L 366.624 247.611979 
L 357.696 247.454179 
L 348.768 246.773145 
L 339.84 243.044952 
L 330.912 230.812507 
L 321.984 222.471459 
L 313.056 199.525806 
L 304.128 199.265662 
L 295.2 197.917797 
L 286.272 197.528414 
L 277.344 196.624392 
L 268.416 195.637538 
L 259.488 194.622184 
L 250.56 193.603868 
L 241.632 185.885062 
L 232.704 185.243287 
L 223.776 184.778912 
L 214.848 184.277685 
L 205.92 174.901196 
L 196.992 159.95643 
L 188.064 156.872006 
L 179.136 155.942165 
L 170.208 146.404962 
L 161.28 143.859703 
L 152.352 130.074464 
L 143.424 128.42515 
L 134.496 117.019574 
L 125.568 101.810576 
L 116.64 101.071852 
L 107.712 100.395189 
L 98.784 84.349618 
L 89.856 79.564416 
L 80.928 76.115242 
L 72 65.709939 
z
" style="fill:#9467bd;fill-opacity:0.3;"/>
   </g>
   <g id="PolyCollection_6">
    <path clip-path="url(#p78af0c36d5)" d="M 72 66.857784 
L 72 56.19208 
L 80.928 57.269772 
L 89.856 64.241346 
L 98.784 51.465972 
L 107.712 97.788781 
L 116.64 98.68343 
L 125.568 99.767518 
L 134.496 103.758357 
L 143.424 105.196438 
L 152.352 108.838734 
L 161.28 111.759468 
L 170.208 117.972674 
L 179.136 150.172545 
L 188.064 150.522828 
L 196.992 150.347079 
L 205.92 167.481869 
L 214.848 189.754408 
L 223.776 185.353317 
L 232.704 184.513263 
L 241.632 179.866316 
L 250.56 199.499808 
L 259.488 198.428121 
L 268.416 204.020577 
L 277.344 198.877529 
L 286.272 207.855855 
L 295.2 206.327245 
L 304.128 219.239889 
L 313.056 218.828173 
L 321.984 230.485 
L 330.912 245.992474 
L 339.84 253.864065 
L 348.768 248.846254 
L 357.696 269.322168 
L 366.624 268.564926 
L 375.552 272.352567 
L 384.48 271.977349 
L 393.408 280.882042 
L 402.336 287.247259 
L 411.264 292.170189 
L 420.192 292.05655 
L 429.12 295.924583 
L 438.048 294.864918 
L 446.976 295.80331 
L 455.904 298.679223 
L 464.832 299.099182 
L 473.76 321.953164 
L 482.688 324.996436 
L 491.616 324.960404 
L 500.544 325.031455 
L 509.472 325.107339 
L 518.4 325.133706 
L 518.4 333.766853 
L 518.4 333.766853 
L 509.472 333.817608 
L 500.544 333.815606 
L 491.616 333.739707 
L 482.688 333.304425 
L 473.76 330.513269 
L 464.832 318.083323 
L 455.904 308.01124 
L 446.976 307.100683 
L 438.048 302.258646 
L 429.12 302.183611 
L 420.192 296.95182 
L 411.264 299.592278 
L 402.336 296.447231 
L 393.408 288.39708 
L 384.48 277.130747 
L 375.552 279.822026 
L 366.624 278.078223 
L 357.696 274.583535 
L 348.768 261.28189 
L 339.84 261.158283 
L 330.912 252.028211 
L 321.984 247.895609 
L 313.056 224.523716 
L 304.128 227.44965 
L 295.2 220.124618 
L 286.272 217.541097 
L 277.344 209.612262 
L 268.416 209.024193 
L 259.488 208.940747 
L 250.56 205.536997 
L 241.632 190.026169 
L 232.704 189.759151 
L 223.776 191.639141 
L 214.848 193.221439 
L 205.92 185.108406 
L 196.992 161.708653 
L 188.064 158.443631 
L 179.136 157.798568 
L 170.208 136.24469 
L 161.28 129.93802 
L 152.352 119.94319 
L 143.424 116.490925 
L 134.496 107.264007 
L 125.568 103.648299 
L 116.64 102.685179 
L 107.712 102.083603 
L 98.784 75.395795 
L 89.856 78.602316 
L 80.928 74.125502 
L 72 66.857784 
z
" style="fill:#8c564b;fill-opacity:0.3;"/>
   </g>
   <g id="PolyCollection_7">
    <path clip-path="url(#p78af0c36d5)" d="M 72 63.788957 
L 72 56.926217 
L 80.928 61.599932 
L 89.856 61.482996 
L 98.784 61.245034 
L 107.712 62.177266 
L 116.64 62.402516 
L 125.568 61.976169 
L 134.496 62.052482 
L 143.424 62.35902 
L 152.352 62.405782 
L 161.28 62.365121 
L 170.208 62.240235 
L 179.136 62.739366 
L 188.064 62.774498 
L 196.992 62.515592 
L 205.92 62.598034 
L 214.848 62.654835 
L 223.776 62.711708 
L 232.704 62.640286 
L 241.632 62.602862 
L 250.56 62.80322 
L 259.488 62.825427 
L 268.416 62.716974 
L 277.344 62.698389 
L 286.272 62.802961 
L 295.2 62.808656 
L 304.128 62.800734 
L 313.056 62.770876 
L 321.984 62.904509 
L 330.912 62.909977 
L 339.84 62.803652 
L 348.768 62.836618 
L 357.696 62.846526 
L 366.624 62.871596 
L 375.552 62.830745 
L 384.48 62.822375 
L 393.408 62.889171 
L 402.336 62.899815 
L 411.264 62.839904 
L 420.192 62.837107 
L 429.12 62.874645 
L 438.048 62.880611 
L 446.976 62.868897 
L 455.904 62.856996 
L 464.832 62.924278 
L 473.76 62.927823 
L 482.688 62.876239 
L 491.616 62.883778 
L 500.544 62.898861 
L 509.472 62.90599 
L 518.4 62.888587 
L 518.4 62.93485 
L 518.4 62.93485 
L 509.472 62.946996 
L 500.544 62.940353 
L 491.616 62.932049 
L 482.688 62.9289 
L 473.76 62.960263 
L 464.832 62.958489 
L 455.904 62.923937 
L 446.976 62.929144 
L 438.048 62.938146 
L 429.12 62.931769 
L 420.192 62.90994 
L 411.264 62.911011 
L 402.336 62.950744 
L 393.408 62.943276 
L 384.48 62.907227 
L 375.552 62.907358 
L 366.624 62.936503 
L 357.696 62.91735 
L 348.768 62.912551 
L 339.84 62.89913 
L 330.912 62.961861 
L 321.984 62.960178 
L 313.056 62.898609 
L 304.128 62.912267 
L 295.2 62.92146 
L 286.272 62.911761 
L 277.344 62.85406 
L 268.416 62.860669 
L 259.488 62.935107 
L 250.56 62.919592 
L 241.632 62.81305 
L 232.704 62.818048 
L 223.776 62.877837 
L 214.848 62.82861 
L 205.92 62.793526 
L 196.992 62.76078 
L 188.064 62.939412 
L 179.136 62.922644 
L 170.208 62.684257 
L 161.28 62.714159 
L 152.352 62.773352 
L 143.424 62.680732 
L 134.496 62.500802 
L 125.568 62.472921 
L 116.64 62.826987 
L 107.712 62.70981 
L 98.784 62.191122 
L 89.856 62.091447 
L 80.928 62.463029 
L 72 63.788957 
z
" style="fill:#e377c2;fill-opacity:0.3;"/>
   </g>
   <g id="matplotlib.axis_1">
    <g id="xtick_1">
     <g id="line2d_1">
      <path clip-path="url(#p78af0c36d5)" d="M 72 384.48 
L 72 51.84 
" style="fill:none;stroke:#b0b0b0;stroke-linecap:square;stroke-width:0.8;"/>
     </g>
     <g id="line2d_2">
      <defs>
       <path d="M 0 0 
L 0 3.5 
" id="m17b3fafe17" style="stroke:#000000;stroke-width:0.8;"/>
      </defs>
      <g>
       <use style="stroke:#000000;stroke-width:0.8;" x="72" xlink:href="#m17b3fafe17" y="384.48"/>
      </g>
     </g>
     <g id="text_1">
      <!-- 0 -->
      <defs>
       <path d="M 31.78125 66.40625 
Q 24.171875 66.40625 20.328125 58.90625 
Q 16.5 51.421875 16.5 36.375 
Q 16.5 21.390625 20.328125 13.890625 
Q 24.171875 6.390625 31.78125 6.390625 
Q 39.453125 6.390625 43.28125 13.890625 
Q 47.125 21.390625 47.125 36.375 
Q 47.125 51.421875 43.28125 58.90625 
Q 39.453125 66.40625 31.78125 66.40625 
z
M 31.78125 74.21875 
Q 44.046875 74.21875 50.515625 64.515625 
Q 56.984375 54.828125 56.984375 36.375 
Q 56.984375 17.96875 50.515625 8.265625 
Q 44.046875 -1.421875 31.78125 -1.421875 
Q 19.53125 -1.421875 13.0625 8.265625 
Q 6.59375 17.96875 6.59375 36.375 
Q 6.59375 54.828125 13.0625 64.515625 
Q 19.53125 74.21875 31.78125 74.21875 
z
" id="DejaVuSans-48"/>
      </defs>
      <g transform="translate(68.81875 399.078438)scale(0.1 -0.1)">
       <use xlink:href="#DejaVuSans-48"/>
      </g>
     </g>
    </g>
    <g id="xtick_2">
     <g id="line2d_3">
      <path clip-path="url(#p78af0c36d5)" d="M 161.28 384.48 
L 161.28 51.84 
" style="fill:none;stroke:#b0b0b0;stroke-linecap:square;stroke-width:0.8;"/>
     </g>
     <g id="line2d_4">
      <g>
       <use style="stroke:#000000;stroke-width:0.8;" x="161.28" xlink:href="#m17b3fafe17" y="384.48"/>
      </g>
     </g>
     <g id="text_2">
      <!-- 10 -->
      <defs>
       <path d="M 12.40625 8.296875 
L 28.515625 8.296875 
L 28.515625 63.921875 
L 10.984375 60.40625 
L 10.984375 69.390625 
L 28.421875 72.90625 
L 38.28125 72.90625 
L 38.28125 8.296875 
L 54.390625 8.296875 
L 54.390625 0 
L 12.40625 0 
z
" id="DejaVuSans-49"/>
      </defs>
      <g transform="translate(154.9175 399.078438)scale(0.1 -0.1)">
       <use xlink:href="#DejaVuSans-49"/>
       <use x="63.623047" xlink:href="#DejaVuSans-48"/>
      </g>
     </g>
    </g>
    <g id="xtick_3">
     <g id="line2d_5">
      <path clip-path="url(#p78af0c36d5)" d="M 250.56 384.48 
L 250.56 51.84 
" style="fill:none;stroke:#b0b0b0;stroke-linecap:square;stroke-width:0.8;"/>
     </g>
     <g id="line2d_6">
      <g>
       <use style="stroke:#000000;stroke-width:0.8;" x="250.56" xlink:href="#m17b3fafe17" y="384.48"/>
      </g>
     </g>
     <g id="text_3">
      <!-- 20 -->
      <defs>
       <path d="M 19.1875 8.296875 
L 53.609375 8.296875 
L 53.609375 0 
L 7.328125 0 
L 7.328125 8.296875 
Q 12.9375 14.109375 22.625 23.890625 
Q 32.328125 33.6875 34.8125 36.53125 
Q 39.546875 41.84375 41.421875 45.53125 
Q 43.3125 49.21875 43.3125 52.78125 
Q 43.3125 58.59375 39.234375 62.25 
Q 35.15625 65.921875 28.609375 65.921875 
Q 23.96875 65.921875 18.8125 64.3125 
Q 13.671875 62.703125 7.8125 59.421875 
L 7.8125 69.390625 
Q 13.765625 71.78125 18.9375 73 
Q 24.125 74.21875 28.421875 74.21875 
Q 39.75 74.21875 46.484375 68.546875 
Q 53.21875 62.890625 53.21875 53.421875 
Q 53.21875 48.921875 51.53125 44.890625 
Q 49.859375 40.875 45.40625 35.40625 
Q 44.1875 33.984375 37.640625 27.21875 
Q 31.109375 20.453125 19.1875 8.296875 
z
" id="DejaVuSans-50"/>
      </defs>
      <g transform="translate(244.1975 399.078438)scale(0.1 -0.1)">
       <use xlink:href="#DejaVuSans-50"/>
       <use x="63.623047" xlink:href="#DejaVuSans-48"/>
      </g>
     </g>
    </g>
    <g id="xtick_4">
     <g id="line2d_7">
      <path clip-path="url(#p78af0c36d5)" d="M 339.84 384.48 
L 339.84 51.84 
" style="fill:none;stroke:#b0b0b0;stroke-linecap:square;stroke-width:0.8;"/>
     </g>
     <g id="line2d_8">
      <g>
       <use style="stroke:#000000;stroke-width:0.8;" x="339.84" xlink:href="#m17b3fafe17" y="384.48"/>
      </g>
     </g>
     <g id="text_4">
      <!-- 30 -->
      <defs>
       <path d="M 40.578125 39.3125 
Q 47.65625 37.796875 51.625 33 
Q 55.609375 28.21875 55.609375 21.1875 
Q 55.609375 10.40625 48.1875 4.484375 
Q 40.765625 -1.421875 27.09375 -1.421875 
Q 22.515625 -1.421875 17.65625 -0.515625 
Q 12.796875 0.390625 7.625 2.203125 
L 7.625 11.71875 
Q 11.71875 9.328125 16.59375 8.109375 
Q 21.484375 6.890625 26.8125 6.890625 
Q 36.078125 6.890625 40.9375 10.546875 
Q 45.796875 14.203125 45.796875 21.1875 
Q 45.796875 27.640625 41.28125 31.265625 
Q 36.765625 34.90625 28.71875 34.90625 
L 20.21875 34.90625 
L 20.21875 43.015625 
L 29.109375 43.015625 
Q 36.375 43.015625 40.234375 45.921875 
Q 44.09375 48.828125 44.09375 54.296875 
Q 44.09375 59.90625 40.109375 62.90625 
Q 36.140625 65.921875 28.71875 65.921875 
Q 24.65625 65.921875 20.015625 65.03125 
Q 15.375 64.15625 9.8125 62.3125 
L 9.8125 71.09375 
Q 15.4375 72.65625 20.34375 73.4375 
Q 25.25 74.21875 29.59375 74.21875 
Q 40.828125 74.21875 47.359375 69.109375 
Q 53.90625 64.015625 53.90625 55.328125 
Q 53.90625 49.265625 50.4375 45.09375 
Q 46.96875 40.921875 40.578125 39.3125 
z
" id="DejaVuSans-51"/>
      </defs>
      <g transform="translate(333.4775 399.078438)scale(0.1 -0.1)">
       <use xlink:href="#DejaVuSans-51"/>
       <use x="63.623047" xlink:href="#DejaVuSans-48"/>
      </g>
     </g>
    </g>
    <g id="xtick_5">
     <g id="line2d_9">
      <path clip-path="url(#p78af0c36d5)" d="M 429.12 384.48 
L 429.12 51.84 
" style="fill:none;stroke:#b0b0b0;stroke-linecap:square;stroke-width:0.8;"/>
     </g>
     <g id="line2d_10">
      <g>
       <use style="stroke:#000000;stroke-width:0.8;" x="429.12" xlink:href="#m17b3fafe17" y="384.48"/>
      </g>
     </g>
     <g id="text_5">
      <!-- 40 -->
      <defs>
       <path d="M 37.796875 64.3125 
L 12.890625 25.390625 
L 37.796875 25.390625 
z
M 35.203125 72.90625 
L 47.609375 72.90625 
L 47.609375 25.390625 
L 58.015625 25.390625 
L 58.015625 17.1875 
L 47.609375 17.1875 
L 47.609375 0 
L 37.796875 0 
L 37.796875 17.1875 
L 4.890625 17.1875 
L 4.890625 26.703125 
z
" id="DejaVuSans-52"/>
      </defs>
      <g transform="translate(422.7575 399.078438)scale(0.1 -0.1)">
       <use xlink:href="#DejaVuSans-52"/>
       <use x="63.623047" xlink:href="#DejaVuSans-48"/>
      </g>
     </g>
    </g>
    <g id="xtick_6">
     <g id="line2d_11">
      <path clip-path="url(#p78af0c36d5)" d="M 518.4 384.48 
L 518.4 51.84 
" style="fill:none;stroke:#b0b0b0;stroke-linecap:square;stroke-width:0.8;"/>
     </g>
     <g id="line2d_12">
      <g>
       <use style="stroke:#000000;stroke-width:0.8;" x="518.4" xlink:href="#m17b3fafe17" y="384.48"/>
      </g>
     </g>
     <g id="text_6">
      <!-- 50 -->
      <defs>
       <path d="M 10.796875 72.90625 
L 49.515625 72.90625 
L 49.515625 64.59375 
L 19.828125 64.59375 
L 19.828125 46.734375 
Q 21.96875 47.46875 24.109375 47.828125 
Q 26.265625 48.1875 28.421875 48.1875 
Q 40.625 48.1875 47.75 41.5 
Q 54.890625 34.8125 54.890625 23.390625 
Q 54.890625 11.625 47.5625 5.09375 
Q 40.234375 -1.421875 26.90625 -1.421875 
Q 22.3125 -1.421875 17.546875 -0.640625 
Q 12.796875 0.140625 7.71875 1.703125 
L 7.71875 11.625 
Q 12.109375 9.234375 16.796875 8.0625 
Q 21.484375 6.890625 26.703125 6.890625 
Q 35.15625 6.890625 40.078125 11.328125 
Q 45.015625 15.765625 45.015625 23.390625 
Q 45.015625 31 40.078125 35.4375 
Q 35.15625 39.890625 26.703125 39.890625 
Q 22.75 39.890625 18.8125 39.015625 
Q 14.890625 38.140625 10.796875 36.28125 
z
" id="DejaVuSans-53"/>
      </defs>
      <g transform="translate(512.0375 399.078438)scale(0.1 -0.1)">
       <use xlink:href="#DejaVuSans-53"/>
       <use x="63.623047" xlink:href="#DejaVuSans-48"/>
      </g>
     </g>
    </g>
    <g id="text_7">
     <!-- Iteration -->
     <defs>
      <path d="M 9.8125 72.90625 
L 19.671875 72.90625 
L 19.671875 0 
L 9.8125 0 
z
" id="DejaVuSans-73"/>
      <path d="M 18.3125 70.21875 
L 18.3125 54.6875 
L 36.8125 54.6875 
L 36.8125 47.703125 
L 18.3125 47.703125 
L 18.3125 18.015625 
Q 18.3125 11.328125 20.140625 9.421875 
Q 21.96875 7.515625 27.59375 7.515625 
L 36.8125 7.515625 
L 36.8125 0 
L 27.59375 0 
Q 17.1875 0 13.234375 3.875 
Q 9.28125 7.765625 9.28125 18.015625 
L 9.28125 47.703125 
L 2.6875 47.703125 
L 2.6875 54.6875 
L 9.28125 54.6875 
L 9.28125 70.21875 
z
" id="DejaVuSans-116"/>
      <path d="M 56.203125 29.59375 
L 56.203125 25.203125 
L 14.890625 25.203125 
Q 15.484375 15.921875 20.484375 11.0625 
Q 25.484375 6.203125 34.421875 6.203125 
Q 39.59375 6.203125 44.453125 7.46875 
Q 49.3125 8.734375 54.109375 11.28125 
L 54.109375 2.78125 
Q 49.265625 0.734375 44.1875 -0.34375 
Q 39.109375 -1.421875 33.890625 -1.421875 
Q 20.796875 -1.421875 13.15625 6.1875 
Q 5.515625 13.8125 5.515625 26.8125 
Q 5.515625 40.234375 12.765625 48.109375 
Q 20.015625 56 32.328125 56 
Q 43.359375 56 49.78125 48.890625 
Q 56.203125 41.796875 56.203125 29.59375 
z
M 47.21875 32.234375 
Q 47.125 39.59375 43.09375 43.984375 
Q 39.0625 48.390625 32.421875 48.390625 
Q 24.90625 48.390625 20.390625 44.140625 
Q 15.875 39.890625 15.1875 32.171875 
z
" id="DejaVuSans-101"/>
      <path d="M 41.109375 46.296875 
Q 39.59375 47.171875 37.8125 47.578125 
Q 36.03125 48 33.890625 48 
Q 26.265625 48 22.1875 43.046875 
Q 18.109375 38.09375 18.109375 28.8125 
L 18.109375 0 
L 9.078125 0 
L 9.078125 54.6875 
L 18.109375 54.6875 
L 18.109375 46.1875 
Q 20.953125 51.171875 25.484375 53.578125 
Q 30.03125 56 36.53125 56 
Q 37.453125 56 38.578125 55.875 
Q 39.703125 55.765625 41.0625 55.515625 
z
" id="DejaVuSans-114"/>
      <path d="M 34.28125 27.484375 
Q 23.390625 27.484375 19.1875 25 
Q 14.984375 22.515625 14.984375 16.5 
Q 14.984375 11.71875 18.140625 8.90625 
Q 21.296875 6.109375 26.703125 6.109375 
Q 34.1875 6.109375 38.703125 11.40625 
Q 43.21875 16.703125 43.21875 25.484375 
L 43.21875 27.484375 
z
M 52.203125 31.203125 
L 52.203125 0 
L 43.21875 0 
L 43.21875 8.296875 
Q 40.140625 3.328125 35.546875 0.953125 
Q 30.953125 -1.421875 24.3125 -1.421875 
Q 15.921875 -1.421875 10.953125 3.296875 
Q 6 8.015625 6 15.921875 
Q 6 25.140625 12.171875 29.828125 
Q 18.359375 34.515625 30.609375 34.515625 
L 43.21875 34.515625 
L 43.21875 35.40625 
Q 43.21875 41.609375 39.140625 45 
Q 35.0625 48.390625 27.6875 48.390625 
Q 23 48.390625 18.546875 47.265625 
Q 14.109375 46.140625 10.015625 43.890625 
L 10.015625 52.203125 
Q 14.9375 54.109375 19.578125 55.046875 
Q 24.21875 56 28.609375 56 
Q 40.484375 56 46.34375 49.84375 
Q 52.203125 43.703125 52.203125 31.203125 
z
" id="DejaVuSans-97"/>
      <path d="M 9.421875 54.6875 
L 18.40625 54.6875 
L 18.40625 0 
L 9.421875 0 
z
M 9.421875 75.984375 
L 18.40625 75.984375 
L 18.40625 64.59375 
L 9.421875 64.59375 
z
" id="DejaVuSans-105"/>
      <path d="M 30.609375 48.390625 
Q 23.390625 48.390625 19.1875 42.75 
Q 14.984375 37.109375 14.984375 27.296875 
Q 14.984375 17.484375 19.15625 11.84375 
Q 23.34375 6.203125 30.609375 6.203125 
Q 37.796875 6.203125 41.984375 11.859375 
Q 46.1875 17.53125 46.1875 27.296875 
Q 46.1875 37.015625 41.984375 42.703125 
Q 37.796875 48.390625 30.609375 48.390625 
z
M 30.609375 56 
Q 42.328125 56 49.015625 48.375 
Q 55.71875 40.765625 55.71875 27.296875 
Q 55.71875 13.875 49.015625 6.21875 
Q 42.328125 -1.421875 30.609375 -1.421875 
Q 18.84375 -1.421875 12.171875 6.21875 
Q 5.515625 13.875 5.515625 27.296875 
Q 5.515625 40.765625 12.171875 48.375 
Q 18.84375 56 30.609375 56 
z
" id="DejaVuSans-111"/>
      <path d="M 54.890625 33.015625 
L 54.890625 0 
L 45.90625 0 
L 45.90625 32.71875 
Q 45.90625 40.484375 42.875 44.328125 
Q 39.84375 48.1875 33.796875 48.1875 
Q 26.515625 48.1875 22.3125 43.546875 
Q 18.109375 38.921875 18.109375 30.90625 
L 18.109375 0 
L 9.078125 0 
L 9.078125 54.6875 
L 18.109375 54.6875 
L 18.109375 46.1875 
Q 21.34375 51.125 25.703125 53.5625 
Q 30.078125 56 35.796875 56 
Q 45.21875 56 50.046875 50.171875 
Q 54.890625 44.34375 54.890625 33.015625 
z
" id="DejaVuSans-110"/>
     </defs>
     <g transform="translate(273.991406 412.756563)scale(0.1 -0.1)">
      <use xlink:href="#DejaVuSans-73"/>
      <use x="29.492188" xlink:href="#DejaVuSans-116"/>
      <use x="68.701172" xlink:href="#DejaVuSans-101"/>
      <use x="130.224609" xlink:href="#DejaVuSans-114"/>
      <use x="171.337891" xlink:href="#DejaVuSans-97"/>
      <use x="232.617188" xlink:href="#DejaVuSans-116"/>
      <use x="271.826172" xlink:href="#DejaVuSans-105"/>
      <use x="299.609375" xlink:href="#DejaVuSans-111"/>
      <use x="360.791016" xlink:href="#DejaVuSans-110"/>
     </g>
    </g>
   </g>
   <g id="matplotlib.axis_2">
    <g id="ytick_1">
     <g id="line2d_13">
      <path clip-path="url(#p78af0c36d5)" d="M 72 384.48 
L 518.4 384.48 
" style="fill:none;stroke:#b0b0b0;stroke-linecap:square;stroke-width:0.8;"/>
     </g>
     <g id="line2d_14">
      <defs>
       <path d="M 0 0 
L -3.5 0 
" id="m7a69b645d6" style="stroke:#000000;stroke-width:0.8;"/>
      </defs>
      <g>
       <use style="stroke:#000000;stroke-width:0.8;" x="72" xlink:href="#m7a69b645d6" y="384.48"/>
      </g>
     </g>
     <g id="text_8">
      <!-- $\mathdefault{10^{-12}}$ -->
      <defs>
       <path d="M 10.59375 35.5 
L 73.1875 35.5 
L 73.1875 27.203125 
L 10.59375 27.203125 
z
" id="DejaVuSans-8722"/>
      </defs>
      <g transform="translate(37.1 388.279219)scale(0.1 -0.1)">
       <use transform="translate(0 0.765625)" xlink:href="#DejaVuSans-49"/>
       <use transform="translate(63.623047 0.765625)" xlink:href="#DejaVuSans-48"/>
       <use transform="translate(128.203125 39.046875)scale(0.7)" xlink:href="#DejaVuSans-8722"/>
       <use transform="translate(186.855469 39.046875)scale(0.7)" xlink:href="#DejaVuSans-49"/>
       <use transform="translate(231.391602 39.046875)scale(0.7)" xlink:href="#DejaVuSans-50"/>
      </g>
     </g>
    </g>
    <g id="ytick_2">
     <g id="line2d_15">
      <path clip-path="url(#p78af0c36d5)" d="M 72 336.96 
L 518.4 336.96 
" style="fill:none;stroke:#b0b0b0;stroke-linecap:square;stroke-width:0.8;"/>
     </g>
     <g id="line2d_16">
      <g>
       <use style="stroke:#000000;stroke-width:0.8;" x="72" xlink:href="#m7a69b645d6" y="336.96"/>
      </g>
     </g>
     <g id="text_9">
      <!-- $\mathdefault{10^{-10}}$ -->
      <g transform="translate(37.1 340.759219)scale(0.1 -0.1)">
       <use transform="translate(0 0.765625)" xlink:href="#DejaVuSans-49"/>
       <use transform="translate(63.623047 0.765625)" xlink:href="#DejaVuSans-48"/>
       <use transform="translate(128.203125 39.046875)scale(0.7)" xlink:href="#DejaVuSans-8722"/>
       <use transform="translate(186.855469 39.046875)scale(0.7)" xlink:href="#DejaVuSans-49"/>
       <use transform="translate(231.391602 39.046875)scale(0.7)" xlink:href="#DejaVuSans-48"/>
      </g>
     </g>
    </g>
    <g id="ytick_3">
     <g id="line2d_17">
      <path clip-path="url(#p78af0c36d5)" d="M 72 289.44 
L 518.4 289.44 
" style="fill:none;stroke:#b0b0b0;stroke-linecap:square;stroke-width:0.8;"/>
     </g>
     <g id="line2d_18">
      <g>
       <use style="stroke:#000000;stroke-width:0.8;" x="72" xlink:href="#m7a69b645d6" y="289.44"/>
      </g>
     </g>
     <g id="text_10">
      <!-- $\mathdefault{10^{-8}}$ -->
      <defs>
       <path d="M 31.78125 34.625 
Q 24.75 34.625 20.71875 30.859375 
Q 16.703125 27.09375 16.703125 20.515625 
Q 16.703125 13.921875 20.71875 10.15625 
Q 24.75 6.390625 31.78125 6.390625 
Q 38.8125 6.390625 42.859375 10.171875 
Q 46.921875 13.96875 46.921875 20.515625 
Q 46.921875 27.09375 42.890625 30.859375 
Q 38.875 34.625 31.78125 34.625 
z
M 21.921875 38.8125 
Q 15.578125 40.375 12.03125 44.71875 
Q 8.5 49.078125 8.5 55.328125 
Q 8.5 64.0625 14.71875 69.140625 
Q 20.953125 74.21875 31.78125 74.21875 
Q 42.671875 74.21875 48.875 69.140625 
Q 55.078125 64.0625 55.078125 55.328125 
Q 55.078125 49.078125 51.53125 44.71875 
Q 48 40.375 41.703125 38.8125 
Q 48.828125 37.15625 52.796875 32.3125 
Q 56.78125 27.484375 56.78125 20.515625 
Q 56.78125 9.90625 50.3125 4.234375 
Q 43.84375 -1.421875 31.78125 -1.421875 
Q 19.734375 -1.421875 13.25 4.234375 
Q 6.78125 9.90625 6.78125 20.515625 
Q 6.78125 27.484375 10.78125 32.3125 
Q 14.796875 37.15625 21.921875 38.8125 
z
M 18.3125 54.390625 
Q 18.3125 48.734375 21.84375 45.5625 
Q 25.390625 42.390625 31.78125 42.390625 
Q 38.140625 42.390625 41.71875 45.5625 
Q 45.3125 48.734375 45.3125 54.390625 
Q 45.3125 60.0625 41.71875 63.234375 
Q 38.140625 66.40625 31.78125 66.40625 
Q 25.390625 66.40625 21.84375 63.234375 
Q 18.3125 60.0625 18.3125 54.390625 
z
" id="DejaVuSans-56"/>
      </defs>
      <g transform="translate(41.5 293.239219)scale(0.1 -0.1)">
       <use transform="translate(0 0.765625)" xlink:href="#DejaVuSans-49"/>
       <use transform="translate(63.623047 0.765625)" xlink:href="#DejaVuSans-48"/>
       <use transform="translate(128.203125 39.046875)scale(0.7)" xlink:href="#DejaVuSans-8722"/>
       <use transform="translate(186.855469 39.046875)scale(0.7)" xlink:href="#DejaVuSans-56"/>
      </g>
     </g>
    </g>
    <g id="ytick_4">
     <g id="line2d_19">
      <path clip-path="url(#p78af0c36d5)" d="M 72 241.92 
L 518.4 241.92 
" style="fill:none;stroke:#b0b0b0;stroke-linecap:square;stroke-width:0.8;"/>
     </g>
     <g id="line2d_20">
      <g>
       <use style="stroke:#000000;stroke-width:0.8;" x="72" xlink:href="#m7a69b645d6" y="241.92"/>
      </g>
     </g>
     <g id="text_11">
      <!-- $\mathdefault{10^{-6}}$ -->
      <defs>
       <path d="M 33.015625 40.375 
Q 26.375 40.375 22.484375 35.828125 
Q 18.609375 31.296875 18.609375 23.390625 
Q 18.609375 15.53125 22.484375 10.953125 
Q 26.375 6.390625 33.015625 6.390625 
Q 39.65625 6.390625 43.53125 10.953125 
Q 47.40625 15.53125 47.40625 23.390625 
Q 47.40625 31.296875 43.53125 35.828125 
Q 39.65625 40.375 33.015625 40.375 
z
M 52.59375 71.296875 
L 52.59375 62.3125 
Q 48.875 64.0625 45.09375 64.984375 
Q 41.3125 65.921875 37.59375 65.921875 
Q 27.828125 65.921875 22.671875 59.328125 
Q 17.53125 52.734375 16.796875 39.40625 
Q 19.671875 43.65625 24.015625 45.921875 
Q 28.375 48.1875 33.59375 48.1875 
Q 44.578125 48.1875 50.953125 41.515625 
Q 57.328125 34.859375 57.328125 23.390625 
Q 57.328125 12.15625 50.6875 5.359375 
Q 44.046875 -1.421875 33.015625 -1.421875 
Q 20.359375 -1.421875 13.671875 8.265625 
Q 6.984375 17.96875 6.984375 36.375 
Q 6.984375 53.65625 15.1875 63.9375 
Q 23.390625 74.21875 37.203125 74.21875 
Q 40.921875 74.21875 44.703125 73.484375 
Q 48.484375 72.75 52.59375 71.296875 
z
" id="DejaVuSans-54"/>
      </defs>
      <g transform="translate(41.5 245.719219)scale(0.1 -0.1)">
       <use transform="translate(0 0.765625)" xlink:href="#DejaVuSans-49"/>
       <use transform="translate(63.623047 0.765625)" xlink:href="#DejaVuSans-48"/>
       <use transform="translate(128.203125 39.046875)scale(0.7)" xlink:href="#DejaVuSans-8722"/>
       <use transform="translate(186.855469 39.046875)scale(0.7)" xlink:href="#DejaVuSans-54"/>
      </g>
     </g>
    </g>
    <g id="ytick_5">
     <g id="line2d_21">
      <path clip-path="url(#p78af0c36d5)" d="M 72 194.4 
L 518.4 194.4 
" style="fill:none;stroke:#b0b0b0;stroke-linecap:square;stroke-width:0.8;"/>
     </g>
     <g id="line2d_22">
      <g>
       <use style="stroke:#000000;stroke-width:0.8;" x="72" xlink:href="#m7a69b645d6" y="194.4"/>
      </g>
     </g>
     <g id="text_12">
      <!-- $\mathdefault{10^{-4}}$ -->
      <g transform="translate(41.5 198.199219)scale(0.1 -0.1)">
       <use transform="translate(0 0.684375)" xlink:href="#DejaVuSans-49"/>
       <use transform="translate(63.623047 0.684375)" xlink:href="#DejaVuSans-48"/>
       <use transform="translate(128.203125 38.965625)scale(0.7)" xlink:href="#DejaVuSans-8722"/>
       <use transform="translate(186.855469 38.965625)scale(0.7)" xlink:href="#DejaVuSans-52"/>
      </g>
     </g>
    </g>
    <g id="ytick_6">
     <g id="line2d_23">
      <path clip-path="url(#p78af0c36d5)" d="M 72 146.88 
L 518.4 146.88 
" style="fill:none;stroke:#b0b0b0;stroke-linecap:square;stroke-width:0.8;"/>
     </g>
     <g id="line2d_24">
      <g>
       <use style="stroke:#000000;stroke-width:0.8;" x="72" xlink:href="#m7a69b645d6" y="146.88"/>
      </g>
     </g>
     <g id="text_13">
      <!-- $\mathdefault{10^{-2}}$ -->
      <g transform="translate(41.5 150.679219)scale(0.1 -0.1)">
       <use transform="translate(0 0.765625)" xlink:href="#DejaVuSans-49"/>
       <use transform="translate(63.623047 0.765625)" xlink:href="#DejaVuSans-48"/>
       <use transform="translate(128.203125 39.046875)scale(0.7)" xlink:href="#DejaVuSans-8722"/>
       <use transform="translate(186.855469 39.046875)scale(0.7)" xlink:href="#DejaVuSans-50"/>
      </g>
     </g>
    </g>
    <g id="ytick_7">
     <g id="line2d_25">
      <path clip-path="url(#p78af0c36d5)" d="M 72 99.36 
L 518.4 99.36 
" style="fill:none;stroke:#b0b0b0;stroke-linecap:square;stroke-width:0.8;"/>
     </g>
     <g id="line2d_26">
      <g>
       <use style="stroke:#000000;stroke-width:0.8;" x="72" xlink:href="#m7a69b645d6" y="99.36"/>
      </g>
     </g>
     <g id="text_14">
      <!-- $\mathdefault{10^{0}}$ -->
      <g transform="translate(47.4 103.159219)scale(0.1 -0.1)">
       <use transform="translate(0 0.765625)" xlink:href="#DejaVuSans-49"/>
       <use transform="translate(63.623047 0.765625)" xlink:href="#DejaVuSans-48"/>
       <use transform="translate(128.203125 39.046875)scale(0.7)" xlink:href="#DejaVuSans-48"/>
      </g>
     </g>
    </g>
    <g id="ytick_8">
     <g id="line2d_27">
      <path clip-path="url(#p78af0c36d5)" d="M 72 51.84 
L 518.4 51.84 
" style="fill:none;stroke:#b0b0b0;stroke-linecap:square;stroke-width:0.8;"/>
     </g>
     <g id="line2d_28">
      <g>
       <use style="stroke:#000000;stroke-width:0.8;" x="72" xlink:href="#m7a69b645d6" y="51.84"/>
      </g>
     </g>
     <g id="text_15">
      <!-- $\mathdefault{10^{2}}$ -->
      <g transform="translate(47.4 55.639219)scale(0.1 -0.1)">
       <use transform="translate(0 0.765625)" xlink:href="#DejaVuSans-49"/>
       <use transform="translate(63.623047 0.765625)" xlink:href="#DejaVuSans-48"/>
       <use transform="translate(128.203125 39.046875)scale(0.7)" xlink:href="#DejaVuSans-50"/>
      </g>
     </g>
    </g>
    <g id="text_16">
     <!-- Integrated Squared Error -->
     <defs>
      <path d="M 45.40625 27.984375 
Q 45.40625 37.75 41.375 43.109375 
Q 37.359375 48.484375 30.078125 48.484375 
Q 22.859375 48.484375 18.828125 43.109375 
Q 14.796875 37.75 14.796875 27.984375 
Q 14.796875 18.265625 18.828125 12.890625 
Q 22.859375 7.515625 30.078125 7.515625 
Q 37.359375 7.515625 41.375 12.890625 
Q 45.40625 18.265625 45.40625 27.984375 
z
M 54.390625 6.78125 
Q 54.390625 -7.171875 48.1875 -13.984375 
Q 42 -20.796875 29.203125 -20.796875 
Q 24.46875 -20.796875 20.265625 -20.09375 
Q 16.0625 -19.390625 12.109375 -17.921875 
L 12.109375 -9.1875 
Q 16.0625 -11.328125 19.921875 -12.34375 
Q 23.78125 -13.375 27.78125 -13.375 
Q 36.625 -13.375 41.015625 -8.765625 
Q 45.40625 -4.15625 45.40625 5.171875 
L 45.40625 9.625 
Q 42.625 4.78125 38.28125 2.390625 
Q 33.9375 0 27.875 0 
Q 17.828125 0 11.671875 7.65625 
Q 5.515625 15.328125 5.515625 27.984375 
Q 5.515625 40.671875 11.671875 48.328125 
Q 17.828125 56 27.875 56 
Q 33.9375 56 38.28125 53.609375 
Q 42.625 51.21875 45.40625 46.390625 
L 45.40625 54.6875 
L 54.390625 54.6875 
z
" id="DejaVuSans-103"/>
      <path d="M 45.40625 46.390625 
L 45.40625 75.984375 
L 54.390625 75.984375 
L 54.390625 0 
L 45.40625 0 
L 45.40625 8.203125 
Q 42.578125 3.328125 38.25 0.953125 
Q 33.9375 -1.421875 27.875 -1.421875 
Q 17.96875 -1.421875 11.734375 6.484375 
Q 5.515625 14.40625 5.515625 27.296875 
Q 5.515625 40.1875 11.734375 48.09375 
Q 17.96875 56 27.875 56 
Q 33.9375 56 38.25 53.625 
Q 42.578125 51.265625 45.40625 46.390625 
z
M 14.796875 27.296875 
Q 14.796875 17.390625 18.875 11.75 
Q 22.953125 6.109375 30.078125 6.109375 
Q 37.203125 6.109375 41.296875 11.75 
Q 45.40625 17.390625 45.40625 27.296875 
Q 45.40625 37.203125 41.296875 42.84375 
Q 37.203125 48.484375 30.078125 48.484375 
Q 22.953125 48.484375 18.875 42.84375 
Q 14.796875 37.203125 14.796875 27.296875 
z
" id="DejaVuSans-100"/>
      <path id="DejaVuSans-32"/>
      <path d="M 53.515625 70.515625 
L 53.515625 60.890625 
Q 47.90625 63.578125 42.921875 64.890625 
Q 37.9375 66.21875 33.296875 66.21875 
Q 25.25 66.21875 20.875 63.09375 
Q 16.5 59.96875 16.5 54.203125 
Q 16.5 49.359375 19.40625 46.890625 
Q 22.3125 44.4375 30.421875 42.921875 
L 36.375 41.703125 
Q 47.40625 39.59375 52.65625 34.296875 
Q 57.90625 29 57.90625 20.125 
Q 57.90625 9.515625 50.796875 4.046875 
Q 43.703125 -1.421875 29.984375 -1.421875 
Q 24.8125 -1.421875 18.96875 -0.25 
Q 13.140625 0.921875 6.890625 3.21875 
L 6.890625 13.375 
Q 12.890625 10.015625 18.65625 8.296875 
Q 24.421875 6.59375 29.984375 6.59375 
Q 38.421875 6.59375 43.015625 9.90625 
Q 47.609375 13.234375 47.609375 19.390625 
Q 47.609375 24.75 44.3125 27.78125 
Q 41.015625 30.8125 33.5 32.328125 
L 27.484375 33.5 
Q 16.453125 35.6875 11.515625 40.375 
Q 6.59375 45.0625 6.59375 53.421875 
Q 6.59375 63.09375 13.40625 68.65625 
Q 20.21875 74.21875 32.171875 74.21875 
Q 37.3125 74.21875 42.625 73.28125 
Q 47.953125 72.359375 53.515625 70.515625 
z
" id="DejaVuSans-83"/>
      <path d="M 14.796875 27.296875 
Q 14.796875 17.390625 18.875 11.75 
Q 22.953125 6.109375 30.078125 6.109375 
Q 37.203125 6.109375 41.296875 11.75 
Q 45.40625 17.390625 45.40625 27.296875 
Q 45.40625 37.203125 41.296875 42.84375 
Q 37.203125 48.484375 30.078125 48.484375 
Q 22.953125 48.484375 18.875 42.84375 
Q 14.796875 37.203125 14.796875 27.296875 
z
M 45.40625 8.203125 
Q 42.578125 3.328125 38.25 0.953125 
Q 33.9375 -1.421875 27.875 -1.421875 
Q 17.96875 -1.421875 11.734375 6.484375 
Q 5.515625 14.40625 5.515625 27.296875 
Q 5.515625 40.1875 11.734375 48.09375 
Q 17.96875 56 27.875 56 
Q 33.9375 56 38.25 53.625 
Q 42.578125 51.265625 45.40625 46.390625 
L 45.40625 54.6875 
L 54.390625 54.6875 
L 54.390625 -20.796875 
L 45.40625 -20.796875 
z
" id="DejaVuSans-113"/>
      <path d="M 8.5 21.578125 
L 8.5 54.6875 
L 17.484375 54.6875 
L 17.484375 21.921875 
Q 17.484375 14.15625 20.5 10.265625 
Q 23.53125 6.390625 29.59375 6.390625 
Q 36.859375 6.390625 41.078125 11.03125 
Q 45.3125 15.671875 45.3125 23.6875 
L 45.3125 54.6875 
L 54.296875 54.6875 
L 54.296875 0 
L 45.3125 0 
L 45.3125 8.40625 
Q 42.046875 3.421875 37.71875 1 
Q 33.40625 -1.421875 27.6875 -1.421875 
Q 18.265625 -1.421875 13.375 4.4375 
Q 8.5 10.296875 8.5 21.578125 
z
M 31.109375 56 
z
" id="DejaVuSans-117"/>
      <path d="M 9.8125 72.90625 
L 55.90625 72.90625 
L 55.90625 64.59375 
L 19.671875 64.59375 
L 19.671875 43.015625 
L 54.390625 43.015625 
L 54.390625 34.71875 
L 19.671875 34.71875 
L 19.671875 8.296875 
L 56.78125 8.296875 
L 56.78125 0 
L 9.8125 0 
z
" id="DejaVuSans-69"/>
     </defs>
     <g transform="translate(31.020312 280.483437)rotate(-90)scale(0.1 -0.1)">
      <use xlink:href="#DejaVuSans-73"/>
      <use x="29.492188" xlink:href="#DejaVuSans-110"/>
      <use x="92.871094" xlink:href="#DejaVuSans-116"/>
      <use x="132.080078" xlink:href="#DejaVuSans-101"/>
      <use x="193.603516" xlink:href="#DejaVuSans-103"/>
      <use x="257.080078" xlink:href="#DejaVuSans-114"/>
      <use x="298.193359" xlink:href="#DejaVuSans-97"/>
      <use x="359.472656" xlink:href="#DejaVuSans-116"/>
      <use x="398.681641" xlink:href="#DejaVuSans-101"/>
      <use x="460.205078" xlink:href="#DejaVuSans-100"/>
      <use x="523.681641" xlink:href="#DejaVuSans-32"/>
      <use x="555.46875" xlink:href="#DejaVuSans-83"/>
      <use x="618.945312" xlink:href="#DejaVuSans-113"/>
      <use x="682.421875" xlink:href="#DejaVuSans-117"/>
      <use x="745.800781" xlink:href="#DejaVuSans-97"/>
      <use x="807.080078" xlink:href="#DejaVuSans-114"/>
      <use x="845.943359" xlink:href="#DejaVuSans-101"/>
      <use x="907.466797" xlink:href="#DejaVuSans-100"/>
      <use x="970.943359" xlink:href="#DejaVuSans-32"/>
      <use x="1002.730469" xlink:href="#DejaVuSans-69"/>
      <use x="1065.914062" xlink:href="#DejaVuSans-114"/>
      <use x="1105.277344" xlink:href="#DejaVuSans-114"/>
      <use x="1144.140625" xlink:href="#DejaVuSans-111"/>
      <use x="1205.322266" xlink:href="#DejaVuSans-114"/>
     </g>
    </g>
   </g>
   <g id="line2d_29">
    <path clip-path="url(#p78af0c36d5)" d="M 72 58.136293 
L 80.928 58.41477 
L 89.856 58.184278 
L 98.784 58.157943 
L 107.712 58.720967 
L 116.64 58.776962 
L 125.568 58.596363 
L 134.496 58.374067 
L 143.424 58.543516 
L 152.352 58.348163 
L 161.28 58.469974 
L 170.208 58.612782 
L 179.136 58.905372 
L 188.064 58.390045 
L 196.992 58.149438 
L 205.92 58.775998 
L 214.848 58.688865 
L 223.776 58.651387 
L 232.704 58.26379 
L 241.632 58.775024 
L 250.56 58.432005 
L 259.488 58.144564 
L 268.416 58.875034 
L 277.344 57.592881 
L 286.272 57.728551 
L 295.2 57.958001 
L 304.128 58.564265 
L 313.056 58.378581 
L 321.984 58.836438 
L 330.912 57.293762 
L 339.84 57.603808 
L 348.768 57.059472 
L 357.696 57.982951 
L 366.624 57.760302 
L 375.552 56.787959 
L 384.48 57.880818 
L 393.408 56.989515 
L 402.336 56.148738 
L 411.264 55.013555 
L 420.192 56.624047 
L 429.12 55.415234 
L 438.048 57.125166 
L 446.976 55.522106 
L 455.904 55.604645 
L 464.832 57.701861 
L 473.76 56.836198 
L 482.688 54.764411 
L 491.616 54.152779 
L 500.544 57.642164 
L 509.472 56.476705 
L 518.4 56.67413 
" style="fill:none;stroke:#1f77b4;stroke-linecap:square;stroke-width:1.5;"/>
   </g>
   <g id="line2d_30">
    <path clip-path="url(#p78af0c36d5)" d="M 72 59.285274 
L 80.928 66.327126 
L 89.856 70.638476 
L 98.784 65.851793 
L 107.712 93.752605 
L 116.64 95.604471 
L 125.568 98.37549 
L 134.496 95.477298 
L 143.424 119.6934 
L 152.352 125.373858 
L 161.28 127.626507 
L 170.208 113.356703 
L 179.136 52.978258 
L 188.064 53.005187 
L 196.992 53.177813 
L 205.92 51.308117 
L 214.848 51.308117 
L 223.776 51.308117 
L 232.704 51.308117 
L 241.632 51.308117 
L 250.56 51.308117 
L 259.488 51.308117 
L 268.416 51.308117 
L 277.344 51.308117 
L 286.272 51.308117 
L 295.2 51.308117 
L 304.128 51.308117 
L 313.056 51.308117 
L 321.984 51.308117 
L 330.912 51.308117 
L 339.84 51.308117 
L 348.768 51.308117 
L 357.696 51.308117 
L 366.624 51.308117 
L 375.552 51.308117 
L 384.48 51.308117 
L 393.408 51.308117 
L 402.336 51.308117 
L 411.264 51.308117 
L 420.192 51.308117 
L 429.12 51.308117 
L 438.048 51.308117 
L 446.976 51.308117 
L 455.904 51.308117 
L 464.832 51.308117 
L 473.76 51.308117 
L 482.688 51.308117 
L 491.616 51.308117 
L 500.544 51.308117 
L 509.472 51.308117 
L 518.4 51.308117 
" style="fill:none;stroke:#ff7f0e;stroke-linecap:square;stroke-width:1.5;"/>
   </g>
   <g id="line2d_31">
    <path clip-path="url(#p78af0c36d5)" d="M 72 62.388173 
L 80.928 66.343628 
L 89.856 72.77592 
L 98.784 72.642825 
L 107.712 94.372308 
L 116.64 94.54449 
L 125.568 94.782702 
L 134.496 96.569378 
L 143.424 97.108657 
L 152.352 97.286869 
L 161.28 97.603363 
L 170.208 97.979404 
L 179.136 118.484739 
L 188.064 118.578794 
L 196.992 118.674807 
L 205.92 118.756689 
L 214.848 118.830576 
L 223.776 118.900482 
L 232.704 118.969723 
L 241.632 119.179004 
L 250.56 119.441632 
L 259.488 119.492647 
L 268.416 119.544545 
L 277.344 120.900924 
L 286.272 120.969793 
L 295.2 121.02422 
L 304.128 121.077762 
L 313.056 121.143575 
L 321.984 146.824373 
L 330.912 146.864041 
L 339.84 146.901215 
L 348.768 147.558119 
L 357.696 147.616203 
L 366.624 147.648508 
L 375.552 147.678724 
L 384.48 147.851042 
L 393.408 147.880052 
L 402.336 147.906723 
L 411.264 147.932594 
L 420.192 148.911348 
L 429.12 148.955676 
L 438.048 148.982874 
L 446.976 149.009494 
L 455.904 149.047539 
L 464.832 152.260591 
L 473.76 152.278459 
L 482.688 152.295795 
L 491.616 153.282418 
L 500.544 153.320747 
L 509.472 153.341475 
L 518.4 153.361607 
" style="fill:none;stroke:#2ca02c;stroke-linecap:square;stroke-width:1.5;"/>
   </g>
   <g id="line2d_32">
    <path clip-path="url(#p78af0c36d5)" d="M 72 60.909237 
L 80.928 67.107721 
L 89.856 72.849985 
L 98.784 70.594394 
L 107.712 100.174689 
L 116.64 100.542997 
L 125.568 101.234468 
L 134.496 107.551832 
L 143.424 115.523366 
L 152.352 116.452974 
L 161.28 121.590408 
L 170.208 122.282122 
L 179.136 146.056994 
L 188.064 146.381265 
L 196.992 146.967225 
L 205.92 153.601446 
L 214.848 155.675853 
L 223.776 155.844831 
L 232.704 156.006221 
L 241.632 156.225051 
L 250.56 161.497162 
L 259.488 161.709783 
L 268.416 161.899393 
L 277.344 162.315677 
L 286.272 162.488748 
L 295.2 162.645439 
L 304.128 162.960394 
L 313.056 163.087634 
L 321.984 206.918933 
L 330.912 209.898953 
L 339.84 214.235991 
L 348.768 214.666929 
L 357.696 215.220347 
L 366.624 215.279754 
L 375.552 215.336006 
L 384.48 215.392399 
L 393.408 215.432444 
L 402.336 215.481872 
L 411.264 215.531245 
L 420.192 215.499326 
L 429.12 215.54319 
L 438.048 215.584818 
L 446.976 215.62574 
L 455.904 215.66379 
L 464.832 216.032849 
L 473.76 216.13472 
L 482.688 216.180444 
L 491.616 219.604911 
L 500.544 219.651974 
L 509.472 219.695373 
L 518.4 219.737382 
" style="fill:none;stroke:#d62728;stroke-linecap:square;stroke-width:1.5;"/>
   </g>
   <g id="line2d_33">
    <path clip-path="url(#p78af0c36d5)" d="M 72 60.368885 
L 80.928 67.139553 
L 89.856 71.944918 
L 98.784 71.144902 
L 107.712 98.620323 
L 116.64 99.201669 
L 125.568 100.557275 
L 134.496 106.488628 
L 143.424 123.70938 
L 152.352 125.452251 
L 161.28 136.827066 
L 170.208 139.178262 
L 179.136 152.22788 
L 188.064 152.763748 
L 196.992 154.116737 
L 205.92 172.983001 
L 214.848 178.447709 
L 223.776 178.845494 
L 232.704 179.466329 
L 241.632 179.862372 
L 250.56 189.934964 
L 259.488 190.637705 
L 268.416 191.273133 
L 277.344 191.682525 
L 286.272 192.155151 
L 295.2 192.453483 
L 304.128 193.133559 
L 313.056 193.358856 
L 321.984 220.820706 
L 330.912 228.190995 
L 339.84 240.478249 
L 348.768 244.893569 
L 357.696 245.389474 
L 366.624 245.518572 
L 375.552 245.656035 
L 384.48 245.860231 
L 393.408 246.212113 
L 402.336 246.385606 
L 411.264 246.681212 
L 420.192 248.097173 
L 429.12 247.977898 
L 438.048 248.292622 
L 446.976 248.385925 
L 455.904 248.472931 
L 464.832 255.9361 
L 473.76 258.127237 
L 482.688 258.905273 
L 491.616 261.848157 
L 500.544 261.97553 
L 509.472 262.096924 
L 518.4 262.214241 
" style="fill:none;stroke:#9467bd;stroke-linecap:square;stroke-width:1.5;"/>
   </g>
   <g id="line2d_34">
    <path clip-path="url(#p78af0c36d5)" d="M 72 61.524932 
L 80.928 65.697637 
L 89.856 71.421831 
L 98.784 63.430884 
L 107.712 99.936192 
L 116.64 100.684304 
L 125.568 101.707909 
L 134.496 105.511182 
L 143.424 110.843682 
L 152.352 114.390962 
L 161.28 120.848744 
L 170.208 127.108682 
L 179.136 153.985556 
L 188.064 154.48323 
L 196.992 156.027866 
L 205.92 176.295137 
L 214.848 191.487923 
L 223.776 188.496229 
L 232.704 187.136207 
L 241.632 184.946243 
L 250.56 202.518402 
L 259.488 203.684434 
L 268.416 206.522385 
L 277.344 204.244896 
L 286.272 212.698476 
L 295.2 213.225931 
L 304.128 223.344769 
L 313.056 221.675945 
L 321.984 239.190305 
L 330.912 249.010343 
L 339.84 257.511174 
L 348.768 255.064072 
L 357.696 271.952852 
L 366.624 273.321575 
L 375.552 276.087296 
L 384.48 274.554048 
L 393.408 284.639561 
L 402.336 291.847245 
L 411.264 295.881233 
L 420.192 294.504185 
L 429.12 299.054097 
L 438.048 298.561782 
L 446.976 301.451997 
L 455.904 303.345231 
L 464.832 308.591252 
L 473.76 326.233217 
L 482.688 329.15043 
L 491.616 329.350056 
L 500.544 329.423531 
L 509.472 329.462474 
L 518.4 329.450279 
" style="fill:none;stroke:#8c564b;stroke-linecap:square;stroke-width:1.5;"/>
   </g>
   <g id="line2d_35">
    <path clip-path="url(#p78af0c36d5)" d="M 72 60.357587 
L 80.928 62.03148 
L 89.856 61.787222 
L 98.784 61.718078 
L 107.712 62.443538 
L 116.64 62.614752 
L 125.568 62.224545 
L 134.496 62.276642 
L 143.424 62.519876 
L 152.352 62.589567 
L 161.28 62.53964 
L 170.208 62.462246 
L 179.136 62.831005 
L 188.064 62.856955 
L 196.992 62.638186 
L 205.92 62.69578 
L 214.848 62.741723 
L 223.776 62.794773 
L 232.704 62.729167 
L 241.632 62.707956 
L 250.56 62.861406 
L 259.488 62.880267 
L 268.416 62.788822 
L 277.344 62.776225 
L 286.272 62.857361 
L 295.2 62.865058 
L 304.128 62.856501 
L 313.056 62.834742 
L 321.984 62.932343 
L 330.912 62.935919 
L 339.84 62.851391 
L 348.768 62.874584 
L 357.696 62.881938 
L 366.624 62.904049 
L 375.552 62.869051 
L 384.48 62.864801 
L 393.408 62.916224 
L 402.336 62.925279 
L 411.264 62.875458 
L 420.192 62.873523 
L 429.12 62.903207 
L 438.048 62.909378 
L 446.976 62.899021 
L 455.904 62.890466 
L 464.832 62.941383 
L 473.76 62.944043 
L 482.688 62.902569 
L 491.616 62.907913 
L 500.544 62.919607 
L 509.472 62.926493 
L 518.4 62.911718 
" style="fill:none;stroke:#e377c2;stroke-linecap:square;stroke-width:1.5;"/>
   </g>
   <g id="patch_3">
    <path d="M 72 384.48 
L 72 51.84 
" style="fill:none;stroke:#000000;stroke-linecap:square;stroke-linejoin:miter;stroke-width:0.8;"/>
   </g>
   <g id="patch_4">
    <path d="M 518.4 384.48 
L 518.4 51.84 
" style="fill:none;stroke:#000000;stroke-linecap:square;stroke-linejoin:miter;stroke-width:0.8;"/>
   </g>
   <g id="patch_5">
    <path d="M 72 384.48 
L 518.4 384.48 
" style="fill:none;stroke:#000000;stroke-linecap:square;stroke-linejoin:miter;stroke-width:0.8;"/>
   </g>
   <g id="patch_6">
    <path d="M 72 51.84 
L 518.4 51.84 
" style="fill:none;stroke:#000000;stroke-linecap:square;stroke-linejoin:miter;stroke-width:0.8;"/>
   </g>
   <g id="legend_1">
    <g id="patch_7">
     <path d="M 79 379.48 
L 165.804688 379.48 
Q 167.804688 379.48 167.804688 377.48 
L 167.804688 275.733125 
Q 167.804688 273.733125 165.804688 273.733125 
L 79 273.733125 
Q 77 273.733125 77 275.733125 
L 77 377.48 
Q 77 379.48 79 379.48 
z
" style="fill:#ffffff;opacity:0.8;stroke:#cccccc;stroke-linejoin:miter;"/>
    </g>
    <g id="line2d_36">
     <path d="M 81 281.831563 
L 101 281.831563 
" style="fill:none;stroke:#1f77b4;stroke-linecap:square;stroke-width:1.5;"/>
    </g>
    <g id="line2d_37"/>
    <g id="text_17">
     <!-- Constant -->
     <defs>
      <path d="M 64.40625 67.28125 
L 64.40625 56.890625 
Q 59.421875 61.53125 53.78125 63.8125 
Q 48.140625 66.109375 41.796875 66.109375 
Q 29.296875 66.109375 22.65625 58.46875 
Q 16.015625 50.828125 16.015625 36.375 
Q 16.015625 21.96875 22.65625 14.328125 
Q 29.296875 6.6875 41.796875 6.6875 
Q 48.140625 6.6875 53.78125 8.984375 
Q 59.421875 11.28125 64.40625 15.921875 
L 64.40625 5.609375 
Q 59.234375 2.09375 53.4375 0.328125 
Q 47.65625 -1.421875 41.21875 -1.421875 
Q 24.65625 -1.421875 15.125 8.703125 
Q 5.609375 18.84375 5.609375 36.375 
Q 5.609375 53.953125 15.125 64.078125 
Q 24.65625 74.21875 41.21875 74.21875 
Q 47.75 74.21875 53.53125 72.484375 
Q 59.328125 70.75 64.40625 67.28125 
z
" id="DejaVuSans-67"/>
      <path d="M 44.28125 53.078125 
L 44.28125 44.578125 
Q 40.484375 46.53125 36.375 47.5 
Q 32.28125 48.484375 27.875 48.484375 
Q 21.1875 48.484375 17.84375 46.4375 
Q 14.5 44.390625 14.5 40.28125 
Q 14.5 37.15625 16.890625 35.375 
Q 19.28125 33.59375 26.515625 31.984375 
L 29.59375 31.296875 
Q 39.15625 29.25 43.1875 25.515625 
Q 47.21875 21.78125 47.21875 15.09375 
Q 47.21875 7.46875 41.1875 3.015625 
Q 35.15625 -1.421875 24.609375 -1.421875 
Q 20.21875 -1.421875 15.453125 -0.5625 
Q 10.6875 0.296875 5.421875 2 
L 5.421875 11.28125 
Q 10.40625 8.6875 15.234375 7.390625 
Q 20.0625 6.109375 24.8125 6.109375 
Q 31.15625 6.109375 34.5625 8.28125 
Q 37.984375 10.453125 37.984375 14.40625 
Q 37.984375 18.0625 35.515625 20.015625 
Q 33.0625 21.96875 24.703125 23.78125 
L 21.578125 24.515625 
Q 13.234375 26.265625 9.515625 29.90625 
Q 5.8125 33.546875 5.8125 39.890625 
Q 5.8125 47.609375 11.28125 51.796875 
Q 16.75 56 26.8125 56 
Q 31.78125 56 36.171875 55.265625 
Q 40.578125 54.546875 44.28125 53.078125 
z
" id="DejaVuSans-115"/>
     </defs>
     <g transform="translate(109 285.331563)scale(0.1 -0.1)">
      <use xlink:href="#DejaVuSans-67"/>
      <use x="69.824219" xlink:href="#DejaVuSans-111"/>
      <use x="131.005859" xlink:href="#DejaVuSans-110"/>
      <use x="194.384766" xlink:href="#DejaVuSans-115"/>
      <use x="246.484375" xlink:href="#DejaVuSans-116"/>
      <use x="285.693359" xlink:href="#DejaVuSans-97"/>
      <use x="346.972656" xlink:href="#DejaVuSans-110"/>
      <use x="410.351562" xlink:href="#DejaVuSans-116"/>
     </g>
    </g>
    <g id="line2d_38">
     <path d="M 81 296.509688 
L 101 296.509688 
" style="fill:none;stroke:#ff7f0e;stroke-linecap:square;stroke-width:1.5;"/>
    </g>
    <g id="line2d_39"/>
    <g id="text_18">
     <!-- RBF -->
     <defs>
      <path d="M 44.390625 34.1875 
Q 47.5625 33.109375 50.5625 29.59375 
Q 53.5625 26.078125 56.59375 19.921875 
L 66.609375 0 
L 56 0 
L 46.6875 18.703125 
Q 43.0625 26.03125 39.671875 28.421875 
Q 36.28125 30.8125 30.421875 30.8125 
L 19.671875 30.8125 
L 19.671875 0 
L 9.8125 0 
L 9.8125 72.90625 
L 32.078125 72.90625 
Q 44.578125 72.90625 50.734375 67.671875 
Q 56.890625 62.453125 56.890625 51.90625 
Q 56.890625 45.015625 53.6875 40.46875 
Q 50.484375 35.9375 44.390625 34.1875 
z
M 19.671875 64.796875 
L 19.671875 38.921875 
L 32.078125 38.921875 
Q 39.203125 38.921875 42.84375 42.21875 
Q 46.484375 45.515625 46.484375 51.90625 
Q 46.484375 58.296875 42.84375 61.546875 
Q 39.203125 64.796875 32.078125 64.796875 
z
" id="DejaVuSans-82"/>
      <path d="M 19.671875 34.8125 
L 19.671875 8.109375 
L 35.5 8.109375 
Q 43.453125 8.109375 47.28125 11.40625 
Q 51.125 14.703125 51.125 21.484375 
Q 51.125 28.328125 47.28125 31.5625 
Q 43.453125 34.8125 35.5 34.8125 
z
M 19.671875 64.796875 
L 19.671875 42.828125 
L 34.28125 42.828125 
Q 41.5 42.828125 45.03125 45.53125 
Q 48.578125 48.25 48.578125 53.8125 
Q 48.578125 59.328125 45.03125 62.0625 
Q 41.5 64.796875 34.28125 64.796875 
z
M 9.8125 72.90625 
L 35.015625 72.90625 
Q 46.296875 72.90625 52.390625 68.21875 
Q 58.5 63.53125 58.5 54.890625 
Q 58.5 48.1875 55.375 44.234375 
Q 52.25 40.28125 46.1875 39.3125 
Q 53.46875 37.75 57.5 32.78125 
Q 61.53125 27.828125 61.53125 20.40625 
Q 61.53125 10.640625 54.890625 5.3125 
Q 48.25 0 35.984375 0 
L 9.8125 0 
z
" id="DejaVuSans-66"/>
      <path d="M 9.8125 72.90625 
L 51.703125 72.90625 
L 51.703125 64.59375 
L 19.671875 64.59375 
L 19.671875 43.109375 
L 48.578125 43.109375 
L 48.578125 34.8125 
L 19.671875 34.8125 
L 19.671875 0 
L 9.8125 0 
z
" id="DejaVuSans-70"/>
     </defs>
     <g transform="translate(109 300.009688)scale(0.1 -0.1)">
      <use xlink:href="#DejaVuSans-82"/>
      <use x="69.482422" xlink:href="#DejaVuSans-66"/>
      <use x="138.085938" xlink:href="#DejaVuSans-70"/>
     </g>
    </g>
    <g id="line2d_40">
     <path d="M 81 311.187813 
L 101 311.187813 
" style="fill:none;stroke:#2ca02c;stroke-linecap:square;stroke-width:1.5;"/>
    </g>
    <g id="line2d_41"/>
    <g id="text_19">
     <!-- Matrn-1/2 -->
     <defs>
      <path d="M 9.8125 72.90625 
L 24.515625 72.90625 
L 43.109375 23.296875 
L 61.8125 72.90625 
L 76.515625 72.90625 
L 76.515625 0 
L 66.890625 0 
L 66.890625 64.015625 
L 48.09375 14.015625 
L 38.1875 14.015625 
L 19.390625 64.015625 
L 19.390625 0 
L 9.8125 0 
z
" id="DejaVuSans-77"/>
      <path d="M 56.203125 29.59375 
L 56.203125 25.203125 
L 14.890625 25.203125 
Q 15.484375 15.921875 20.484375 11.0625 
Q 25.484375 6.203125 34.421875 6.203125 
Q 39.59375 6.203125 44.453125 7.46875 
Q 49.3125 8.734375 54.109375 11.28125 
L 54.109375 2.78125 
Q 49.265625 0.734375 44.1875 -0.34375 
Q 39.109375 -1.421875 33.890625 -1.421875 
Q 20.796875 -1.421875 13.15625 6.1875 
Q 5.515625 13.8125 5.515625 26.8125 
Q 5.515625 40.234375 12.765625 48.109375 
Q 20.015625 56 32.328125 56 
Q 43.359375 56 49.78125 48.890625 
Q 56.203125 41.796875 56.203125 29.59375 
z
M 47.21875 32.234375 
Q 47.125 39.59375 43.09375 43.984375 
Q 39.0625 48.390625 32.421875 48.390625 
Q 24.90625 48.390625 20.390625 44.140625 
Q 15.875 39.890625 15.1875 32.171875 
z
M 38.53125 79.984375 
L 48.25 79.984375 
L 32.34375 61.625 
L 24.859375 61.625 
z
" id="DejaVuSans-233"/>
      <path d="M 4.890625 31.390625 
L 31.203125 31.390625 
L 31.203125 23.390625 
L 4.890625 23.390625 
z
" id="DejaVuSans-45"/>
      <path d="M 25.390625 72.90625 
L 33.6875 72.90625 
L 8.296875 -9.28125 
L 0 -9.28125 
z
" id="DejaVuSans-47"/>
     </defs>
     <g transform="translate(109 314.687813)scale(0.1 -0.1)">
      <use xlink:href="#DejaVuSans-77"/>
      <use x="86.279297" xlink:href="#DejaVuSans-97"/>
      <use x="147.558594" xlink:href="#DejaVuSans-116"/>
      <use x="186.767578" xlink:href="#DejaVuSans-233"/>
      <use x="248.291016" xlink:href="#DejaVuSans-114"/>
      <use x="287.654297" xlink:href="#DejaVuSans-110"/>
      <use x="351.033203" xlink:href="#DejaVuSans-45"/>
      <use x="387.117188" xlink:href="#DejaVuSans-49"/>
      <use x="450.740234" xlink:href="#DejaVuSans-47"/>
      <use x="484.431641" xlink:href="#DejaVuSans-50"/>
     </g>
    </g>
    <g id="line2d_42">
     <path d="M 81 325.865938 
L 101 325.865938 
" style="fill:none;stroke:#d62728;stroke-linecap:square;stroke-width:1.5;"/>
    </g>
    <g id="line2d_43"/>
    <g id="text_20">
     <!-- Matrn-3/2 -->
     <g transform="translate(109 329.365938)scale(0.1 -0.1)">
      <use xlink:href="#DejaVuSans-77"/>
      <use x="86.279297" xlink:href="#DejaVuSans-97"/>
      <use x="147.558594" xlink:href="#DejaVuSans-116"/>
      <use x="186.767578" xlink:href="#DejaVuSans-233"/>
      <use x="248.291016" xlink:href="#DejaVuSans-114"/>
      <use x="287.654297" xlink:href="#DejaVuSans-110"/>
      <use x="351.033203" xlink:href="#DejaVuSans-45"/>
      <use x="387.117188" xlink:href="#DejaVuSans-51"/>
      <use x="450.740234" xlink:href="#DejaVuSans-47"/>
      <use x="484.431641" xlink:href="#DejaVuSans-50"/>
     </g>
    </g>
    <g id="line2d_44">
     <path d="M 81 340.544062 
L 101 340.544062 
" style="fill:none;stroke:#9467bd;stroke-linecap:square;stroke-width:1.5;"/>
    </g>
    <g id="line2d_45"/>
    <g id="text_21">
     <!-- Matrn-5/2 -->
     <g transform="translate(109 344.044062)scale(0.1 -0.1)">
      <use xlink:href="#DejaVuSans-77"/>
      <use x="86.279297" xlink:href="#DejaVuSans-97"/>
      <use x="147.558594" xlink:href="#DejaVuSans-116"/>
      <use x="186.767578" xlink:href="#DejaVuSans-233"/>
      <use x="248.291016" xlink:href="#DejaVuSans-114"/>
      <use x="287.654297" xlink:href="#DejaVuSans-110"/>
      <use x="351.033203" xlink:href="#DejaVuSans-45"/>
      <use x="387.117188" xlink:href="#DejaVuSans-53"/>
      <use x="450.740234" xlink:href="#DejaVuSans-47"/>
      <use x="484.431641" xlink:href="#DejaVuSans-50"/>
     </g>
    </g>
    <g id="line2d_46">
     <path d="M 81 355.222188 
L 101 355.222188 
" style="fill:none;stroke:#8c564b;stroke-linecap:square;stroke-width:1.5;"/>
    </g>
    <g id="line2d_47"/>
    <g id="text_22">
     <!-- RQ -->
     <defs>
      <path d="M 39.40625 66.21875 
Q 28.65625 66.21875 22.328125 58.203125 
Q 16.015625 50.203125 16.015625 36.375 
Q 16.015625 22.609375 22.328125 14.59375 
Q 28.65625 6.59375 39.40625 6.59375 
Q 50.140625 6.59375 56.421875 14.59375 
Q 62.703125 22.609375 62.703125 36.375 
Q 62.703125 50.203125 56.421875 58.203125 
Q 50.140625 66.21875 39.40625 66.21875 
z
M 53.21875 1.3125 
L 66.21875 -12.890625 
L 54.296875 -12.890625 
L 43.5 -1.21875 
Q 41.890625 -1.3125 41.03125 -1.359375 
Q 40.1875 -1.421875 39.40625 -1.421875 
Q 24.03125 -1.421875 14.8125 8.859375 
Q 5.609375 19.140625 5.609375 36.375 
Q 5.609375 53.65625 14.8125 63.9375 
Q 24.03125 74.21875 39.40625 74.21875 
Q 54.734375 74.21875 63.90625 63.9375 
Q 73.09375 53.65625 73.09375 36.375 
Q 73.09375 23.6875 67.984375 14.640625 
Q 62.890625 5.609375 53.21875 1.3125 
z
" id="DejaVuSans-81"/>
     </defs>
     <g transform="translate(109 358.722188)scale(0.1 -0.1)">
      <use xlink:href="#DejaVuSans-82"/>
      <use x="69.482422" xlink:href="#DejaVuSans-81"/>
     </g>
    </g>
    <g id="line2d_48">
     <path d="M 81 369.900313 
L 101 369.900313 
" style="fill:none;stroke:#e377c2;stroke-linecap:square;stroke-width:1.5;"/>
    </g>
    <g id="line2d_49"/>
    <g id="text_23">
     <!-- Dot Prod. -->
     <defs>
      <path d="M 19.671875 64.796875 
L 19.671875 8.109375 
L 31.59375 8.109375 
Q 46.6875 8.109375 53.6875 14.9375 
Q 60.6875 21.78125 60.6875 36.53125 
Q 60.6875 51.171875 53.6875 57.984375 
Q 46.6875 64.796875 31.59375 64.796875 
z
M 9.8125 72.90625 
L 30.078125 72.90625 
Q 51.265625 72.90625 61.171875 64.09375 
Q 71.09375 55.28125 71.09375 36.53125 
Q 71.09375 17.671875 61.125 8.828125 
Q 51.171875 0 30.078125 0 
L 9.8125 0 
z
" id="DejaVuSans-68"/>
      <path d="M 19.671875 64.796875 
L 19.671875 37.40625 
L 32.078125 37.40625 
Q 38.96875 37.40625 42.71875 40.96875 
Q 46.484375 44.53125 46.484375 51.125 
Q 46.484375 57.671875 42.71875 61.234375 
Q 38.96875 64.796875 32.078125 64.796875 
z
M 9.8125 72.90625 
L 32.078125 72.90625 
Q 44.34375 72.90625 50.609375 67.359375 
Q 56.890625 61.8125 56.890625 51.125 
Q 56.890625 40.328125 50.609375 34.8125 
Q 44.34375 29.296875 32.078125 29.296875 
L 19.671875 29.296875 
L 19.671875 0 
L 9.8125 0 
z
" id="DejaVuSans-80"/>
      <path d="M 10.6875 12.40625 
L 21 12.40625 
L 21 0 
L 10.6875 0 
z
" id="DejaVuSans-46"/>
     </defs>
     <g transform="translate(109 373.400313)scale(0.1 -0.1)">
      <use xlink:href="#DejaVuSans-68"/>
      <use x="77.001953" xlink:href="#DejaVuSans-111"/>
      <use x="138.183594" xlink:href="#DejaVuSans-116"/>
      <use x="177.392578" xlink:href="#DejaVuSans-32"/>
      <use x="209.179688" xlink:href="#DejaVuSans-80"/>
      <use x="267.732422" xlink:href="#DejaVuSans-114"/>
      <use x="306.595703" xlink:href="#DejaVuSans-111"/>
      <use x="367.777344" xlink:href="#DejaVuSans-100"/>
      <use x="431.253906" xlink:href="#DejaVuSans-46"/>
     </g>
    </g>
   </g>
  </g>
 </g>
 <defs>
  <clipPath id="p78af0c36d5">
   <rect height="332.64" width="446.4" x="72" y="51.84"/>
  </clipPath>
 </defs>
</svg>
