<?xml version="1.0" encoding="utf-8" standalone="no"?>
<!DOCTYPE svg PUBLIC "-//W3C//DTD SVG 1.1//EN"
  "http://www.w3.org/Graphics/SVG/1.1/DTD/svg11.dtd">
<!-- Created with matplotlib (https://matplotlib.org/) -->
<svg height="432pt" version="1.1" viewBox="0 0 576 432" width="576pt" xmlns="http://www.w3.org/2000/svg" xmlns:xlink="http://www.w3.org/1999/xlink">
 <defs>
  <style type="text/css">
*{stroke-linecap:butt;stroke-linejoin:round;}
  </style>
 </defs>
 <g id="figure_1">
  <g id="patch_1">
   <path d="M 0 432 
L 576 432 
L 576 0 
L 0 0 
z
" style="fill:#ffffff;"/>
  </g>
  <g id="axes_1">
   <g id="patch_2">
    <path d="M 72 384.48 
L 518.4 384.48 
L 518.4 51.84 
L 72 51.84 
z
" style="fill:#ffffff;"/>
   </g>
   <g id="PolyCollection_1">
    <path clip-path="url(#p0c62c6cca4)" d="M 170.208 206.194707 
L 170.208 -26.537557 
L 170.208 206.194707 
L 170.208 206.194707 
z
" style="fill:#1f77b4;fill-opacity:0.3;"/>
    <path clip-path="url(#p0c62c6cca4)" d="M 259.488 -22.539126 
L 259.488 -57.27428 
L 259.488 -22.539126 
L 259.488 -22.539126 
z
" style="fill:#1f77b4;fill-opacity:0.3;"/>
    <path clip-path="url(#p0c62c6cca4)" d="M 286.272 18.275921 
L 286.272 -93.532577 
L 286.272 18.275921 
L 286.272 18.275921 
z
" style="fill:#1f77b4;fill-opacity:0.3;"/>
    <path clip-path="url(#p0c62c6cca4)" d="M 446.976 91.677355 
L 446.976 -126.107842 
L 446.976 91.677355 
L 446.976 91.677355 
z
" style="fill:#1f77b4;fill-opacity:0.3;"/>
   </g>
   <g id="PolyCollection_2">
    <path clip-path="url(#p0c62c6cca4)" d="M 72 100.74293 
L 72 80.951604 
L 80.928 79.624215 
L 89.856 86.206191 
L 98.784 77.487685 
L 107.712 95.285003 
L 116.64 100.46247 
L 125.568 104.155583 
L 134.496 98.855299 
L 143.424 107.670281 
L 152.352 110.96642 
L 161.28 125.532968 
L 170.208 97.45306 
L 179.136 69.289127 
L 188.064 67.336061 
L 196.992 66.741525 
L 205.92 75.6828 
L 214.848 75.6828 
L 223.776 75.6828 
L 232.704 75.6828 
L 241.632 75.6828 
L 250.56 75.6828 
L 259.488 75.6828 
L 268.416 75.6828 
L 277.344 75.6828 
L 286.272 75.6828 
L 295.2 75.6828 
L 304.128 75.6828 
L 313.056 75.6828 
L 321.984 75.6828 
L 330.912 75.6828 
L 339.84 75.6828 
L 348.768 75.6828 
L 357.696 75.6828 
L 366.624 75.6828 
L 375.552 75.6828 
L 384.48 75.6828 
L 393.408 75.6828 
L 402.336 75.6828 
L 411.264 75.6828 
L 420.192 75.6828 
L 429.12 75.6828 
L 438.048 75.6828 
L 446.976 75.6828 
L 455.904 75.6828 
L 464.832 75.6828 
L 473.76 75.6828 
L 482.688 75.6828 
L 491.616 75.6828 
L 500.544 75.6828 
L 509.472 75.6828 
L 518.4 75.6828 
L 518.4 75.6828 
L 518.4 75.6828 
L 509.472 75.6828 
L 500.544 75.6828 
L 491.616 75.6828 
L 482.688 75.6828 
L 473.76 75.6828 
L 464.832 75.6828 
L 455.904 75.6828 
L 446.976 75.6828 
L 438.048 75.6828 
L 429.12 75.6828 
L 420.192 75.6828 
L 411.264 75.6828 
L 402.336 75.6828 
L 393.408 75.6828 
L 384.48 75.6828 
L 375.552 75.6828 
L 366.624 75.6828 
L 357.696 75.6828 
L 348.768 75.6828 
L 339.84 75.6828 
L 330.912 75.6828 
L 321.984 75.6828 
L 313.056 75.6828 
L 304.128 75.6828 
L 295.2 75.6828 
L 286.272 75.6828 
L 277.344 75.6828 
L 268.416 75.6828 
L 259.488 75.6828 
L 250.56 75.6828 
L 241.632 75.6828 
L 232.704 75.6828 
L 223.776 75.6828 
L 214.848 75.6828 
L 205.92 75.6828 
L 196.992 87.633845 
L 188.064 86.811785 
L 179.136 84.233166 
L 170.208 140.673241 
L 161.28 129.118018 
L 152.352 120.720688 
L 143.424 113.438942 
L 134.496 106.772296 
L 125.568 118.803594 
L 116.64 113.101664 
L 107.712 102.014045 
L 98.784 91.368139 
L 89.856 107.607866 
L 80.928 96.621568 
L 72 100.74293 
z
" style="fill:#ff7f0e;fill-opacity:0.3;"/>
   </g>
   <g id="PolyCollection_3">
    <path clip-path="url(#p0c62c6cca4)" d="M 72 85.99365 
L 72 77.66461 
L 80.928 78.042401 
L 89.856 82.226658 
L 98.784 81.025286 
L 107.712 87.669793 
L 116.64 89.425607 
L 125.568 90.199902 
L 134.496 90.326502 
L 143.424 92.416264 
L 152.352 93.285019 
L 161.28 95.067066 
L 170.208 96.035799 
L 179.136 96.84771 
L 188.064 98.07566 
L 196.992 98.541872 
L 205.92 99.018621 
L 214.848 100.173582 
L 223.776 100.685862 
L 232.704 101.209114 
L 241.632 101.705659 
L 250.56 102.253573 
L 259.488 102.795282 
L 268.416 103.364467 
L 277.344 103.822651 
L 286.272 104.417178 
L 295.2 105.03171 
L 304.128 106.215684 
L 313.056 106.904656 
L 321.984 107.294832 
L 330.912 108.055602 
L 339.84 108.361394 
L 348.768 108.666964 
L 357.696 109.323919 
L 366.624 109.64208 
L 375.552 109.958614 
L 384.48 110.270622 
L 393.408 110.590822 
L 402.336 110.904215 
L 411.264 111.230895 
L 420.192 111.526018 
L 429.12 111.855589 
L 438.048 112.187613 
L 446.976 112.522588 
L 455.904 112.850187 
L 464.832 113.159963 
L 473.76 113.494655 
L 482.688 113.840033 
L 491.616 114.176384 
L 500.544 114.518319 
L 509.472 114.872013 
L 518.4 115.230861 
L 518.4 115.404341 
L 518.4 115.404341 
L 509.472 115.041633 
L 500.544 114.684923 
L 491.616 114.34837 
L 482.688 114.008434 
L 473.76 113.659618 
L 464.832 113.324296 
L 455.904 113.011302 
L 446.976 112.679652 
L 438.048 112.341711 
L 429.12 112.006175 
L 420.192 111.673864 
L 411.264 111.369767 
L 402.336 111.040625 
L 393.408 110.719374 
L 384.48 110.395619 
L 375.552 110.076354 
L 366.624 109.756012 
L 357.696 109.436002 
L 348.768 108.852256 
L 339.84 108.543251 
L 330.912 108.232758 
L 321.984 107.539587 
L 313.056 107.136239 
L 304.128 106.500002 
L 295.2 105.454333 
L 286.272 104.825954 
L 277.344 104.212828 
L 268.416 103.73251 
L 259.488 103.151162 
L 250.56 102.595063 
L 241.632 102.030142 
L 232.704 101.514138 
L 223.776 100.97794 
L 214.848 100.453714 
L 205.92 99.524304 
L 196.992 99.031959 
L 188.064 98.548887 
L 179.136 97.425532 
L 170.208 96.607621 
L 161.28 95.641716 
L 152.352 94.003512 
L 143.424 93.079344 
L 134.496 91.637405 
L 125.568 91.491281 
L 116.64 90.663987 
L 107.712 88.997893 
L 98.784 85.397191 
L 89.856 87.540951 
L 80.928 84.399374 
L 72 85.99365 
z
" style="fill:#2ca02c;fill-opacity:0.3;"/>
   </g>
   <g id="PolyCollection_4">
    <path clip-path="url(#p0c62c6cca4)" d="M 72 93.895819 
L 72 79.240689 
L 80.928 79.05859 
L 89.856 85.063707 
L 98.784 82.246051 
L 107.712 92.874417 
L 116.64 96.483347 
L 125.568 97.835454 
L 134.496 96.553216 
L 143.424 102.195092 
L 152.352 103.855105 
L 161.28 109.221877 
L 170.208 111.450621 
L 179.136 114.467788 
L 188.064 118.33587 
L 196.992 119.184346 
L 205.92 119.810852 
L 214.848 124.801516 
L 223.776 125.920299 
L 232.704 127.315944 
L 241.632 128.505566 
L 250.56 129.647295 
L 259.488 130.985253 
L 268.416 132.030954 
L 277.344 133.055165 
L 286.272 134.192044 
L 295.2 135.308586 
L 304.128 140.36478 
L 313.056 142.13567 
L 321.984 143.971662 
L 330.912 147.15459 
L 339.84 147.740309 
L 348.768 148.308739 
L 357.696 151.369904 
L 366.624 152.022318 
L 375.552 152.668343 
L 384.48 153.332321 
L 393.408 153.996157 
L 402.336 154.678109 
L 411.264 155.337677 
L 420.192 155.992067 
L 429.12 156.681792 
L 438.048 157.381832 
L 446.976 158.314737 
L 455.904 159.045904 
L 464.832 159.811402 
L 473.76 160.651853 
L 482.688 161.247855 
L 491.616 161.859683 
L 500.544 162.520482 
L 509.472 163.159206 
L 518.4 163.796298 
L 518.4 164.678784 
L 518.4 164.678784 
L 509.472 163.984582 
L 500.544 163.299905 
L 491.616 162.607756 
L 482.688 161.956976 
L 473.76 161.317723 
L 464.832 160.443199 
L 455.904 159.640829 
L 446.976 158.876154 
L 438.048 158.039577 
L 429.12 157.303672 
L 420.192 156.579557 
L 411.264 155.879558 
L 402.336 155.185688 
L 393.408 154.48092 
L 384.48 153.786049 
L 375.552 153.100448 
L 366.624 152.425202 
L 357.696 151.755038 
L 348.768 149.4711 
L 339.84 148.859766 
L 330.912 148.223495 
L 321.984 145.068245 
L 313.056 143.086796 
L 304.128 141.346161 
L 295.2 137.817541 
L 286.272 136.415841 
L 277.344 135.06774 
L 268.416 133.830021 
L 259.488 132.622937 
L 250.56 131.09842 
L 241.632 129.795322 
L 232.704 128.477462 
L 223.776 127.169533 
L 214.848 125.924846 
L 205.92 122.387737 
L 196.992 121.60465 
L 188.064 120.58486 
L 179.136 116.500065 
L 170.208 113.166483 
L 161.28 110.599908 
L 152.352 107.03204 
L 143.424 104.757245 
L 134.496 100.545159 
L 125.568 102.529777 
L 116.64 100.980565 
L 107.712 96.431703 
L 98.784 88.629216 
L 89.856 95.30677 
L 80.928 90.534279 
L 72 93.895819 
z
" style="fill:#d62728;fill-opacity:0.3;"/>
   </g>
   <g id="PolyCollection_5">
    <path clip-path="url(#p0c62c6cca4)" d="M 72 96.714986 
L 72 79.367017 
L 80.928 79.209172 
L 89.856 84.492121 
L 98.784 81.499316 
L 107.712 93.820191 
L 116.64 98.07217 
L 125.568 99.909711 
L 134.496 97.795683 
L 143.424 105.136479 
L 152.352 107.304385 
L 161.28 114.991566 
L 170.208 117.113936 
L 179.136 121.019792 
L 188.064 126.76291 
L 196.992 127.365115 
L 205.92 128.107816 
L 214.848 136.216614 
L 223.776 137.800008 
L 232.704 141.40757 
L 241.632 142.956148 
L 250.56 144.629278 
L 259.488 146.946042 
L 268.416 148.105241 
L 277.344 149.189764 
L 286.272 150.701206 
L 295.2 151.870306 
L 304.128 159.57144 
L 313.056 161.508912 
L 321.984 163.629811 
L 330.912 170.850013 
L 339.84 171.651541 
L 348.768 172.32603 
L 357.696 178.70312 
L 366.624 179.632907 
L 375.552 180.605444 
L 384.48 181.564765 
L 393.408 182.522319 
L 402.336 183.584351 
L 411.264 184.438238 
L 420.192 185.278157 
L 429.12 183.371348 
L 438.048 187.155796 
L 446.976 189.113275 
L 455.904 190.152217 
L 464.832 188.136857 
L 473.76 190.055031 
L 482.688 190.688689 
L 491.616 194.571631 
L 500.544 195.439441 
L 509.472 196.187516 
L 518.4 196.881006 
L 518.4 198.105109 
L 518.4 198.105109 
L 509.472 197.319405 
L 500.544 196.596784 
L 491.616 195.678541 
L 482.688 197.289792 
L 473.76 196.574012 
L 464.832 194.547153 
L 455.904 191.105591 
L 446.976 189.972207 
L 438.048 188.411014 
L 429.12 189.428029 
L 420.192 186.375893 
L 411.264 185.428963 
L 402.336 184.494911 
L 393.408 183.371789 
L 384.48 182.317527 
L 375.552 181.287548 
L 366.624 180.293012 
L 357.696 179.299533 
L 348.768 175.102703 
L 339.84 174.29119 
L 330.912 173.314385 
L 321.984 166.206555 
L 313.056 163.535822 
L 304.128 161.212219 
L 295.2 155.756657 
L 286.272 154.138363 
L 277.344 152.453041 
L 268.416 151.037901 
L 259.488 149.647753 
L 250.56 146.807551 
L 241.632 144.785213 
L 232.704 142.885119 
L 223.776 141.376596 
L 214.848 139.405922 
L 205.92 133.434145 
L 196.992 133.113139 
L 188.064 131.475953 
L 179.136 124.138524 
L 170.208 120.037743 
L 161.28 116.59892 
L 152.352 111.81084 
L 143.424 108.453397 
L 134.496 103.399944 
L 125.568 107.528969 
L 116.64 105.343901 
L 107.712 98.759486 
L 98.784 90.842703 
L 89.856 99.541341 
L 80.928 93.368627 
L 72 96.714986 
z
" style="fill:#9467bd;fill-opacity:0.3;"/>
   </g>
   <g id="PolyCollection_6">
    <path clip-path="url(#p0c62c6cca4)" d="M 72 93.667839 
L 72 78.547573 
L 80.928 76.979727 
L 89.856 82.23745 
L 98.784 75.755227 
L 107.712 91.839706 
L 116.64 95.533522 
L 125.568 97.958212 
L 134.496 95.164393 
L 143.424 99.974784 
L 152.352 102.93547 
L 161.28 109.377486 
L 170.208 113.991891 
L 179.136 121.562186 
L 188.064 128.255387 
L 196.992 130.610477 
L 205.92 129.443068 
L 214.848 144.29503 
L 223.776 148.245057 
L 232.704 155.2468 
L 241.632 158.630641 
L 250.56 160.339332 
L 259.488 167.810181 
L 268.416 172.034411 
L 277.344 173.613733 
L 286.272 177.894244 
L 295.2 181.762356 
L 304.128 186.520546 
L 313.056 187.769477 
L 321.984 186.557846 
L 330.912 219.935874 
L 339.84 223.420986 
L 348.768 221.864265 
L 357.696 231.994118 
L 366.624 231.694447 
L 375.552 232.52371 
L 384.48 232.62442 
L 393.408 232.071831 
L 402.336 237.053149 
L 411.264 238.341602 
L 420.192 233.726649 
L 429.12 229.023831 
L 438.048 231.753414 
L 446.976 229.14911 
L 455.904 225.909872 
L 464.832 224.028582 
L 473.76 220.052501 
L 482.688 220.948637 
L 491.616 218.21488 
L 500.544 214.056219 
L 509.472 212.64841 
L 518.4 211.769905 
L 518.4 237.45256 
L 518.4 237.45256 
L 509.472 239.095751 
L 500.544 239.372909 
L 491.616 253.243353 
L 482.688 239.805509 
L 473.76 249.382184 
L 464.832 243.021702 
L 455.904 245.74712 
L 446.976 250.119046 
L 438.048 251.7479 
L 429.12 256.109281 
L 420.192 254.198026 
L 411.264 257.728484 
L 402.336 258.443044 
L 393.408 252.22875 
L 384.48 251.725448 
L 375.552 251.022362 
L 366.624 247.299421 
L 357.696 243.885776 
L 348.768 228.590267 
L 339.84 230.62579 
L 330.912 225.637195 
L 321.984 206.568091 
L 313.056 205.113658 
L 304.128 201.530334 
L 295.2 186.249452 
L 286.272 182.440868 
L 277.344 178.029146 
L 268.416 176.203452 
L 259.488 172.470328 
L 250.56 164.907932 
L 241.632 161.686839 
L 232.704 157.314858 
L 223.776 151.148061 
L 214.848 146.295846 
L 205.92 136.155128 
L 196.992 138.43168 
L 188.064 134.957014 
L 179.136 126.10916 
L 170.208 116.797027 
L 161.28 111.779571 
L 152.352 105.257911 
L 143.424 101.803557 
L 134.496 97.441512 
L 125.568 105.10762 
L 116.64 101.532516 
L 107.712 96.498306 
L 98.784 84.552841 
L 89.856 96.14217 
L 80.928 88.329853 
L 72 93.667839 
z
" style="fill:#8c564b;fill-opacity:0.3;"/>
   </g>
   <g id="PolyCollection_7">
    <path clip-path="url(#p0c62c6cca4)" d="M 72 241.535086 
L 72 116.077024 
L 80.928 164.598092 
L 89.856 153.926799 
L 89.856 236.837105 
L 89.856 236.837105 
L 80.928 202.770627 
L 72 241.535086 
z
" style="fill:#e377c2;fill-opacity:0.3;"/>
    <path clip-path="url(#p0c62c6cca4)" d="M 107.712 205.876666 
L 107.712 158.31361 
L 116.64 154.266948 
L 125.568 150.245155 
L 134.496 139.238318 
L 143.424 154.820631 
L 152.352 155.751601 
L 161.28 150.108072 
L 170.208 119.220251 
L 179.136 132.660157 
L 188.064 144.725487 
L 196.992 141.957684 
L 205.92 132.383899 
L 205.92 218.046515 
L 205.92 218.046515 
L 196.992 195.930602 
L 188.064 201.772041 
L 179.136 216.00835 
L 170.208 231.91345 
L 161.28 183.731842 
L 152.352 214.842741 
L 143.424 205.808056 
L 134.496 222.65854 
L 125.568 205.143294 
L 116.64 202.3594 
L 107.712 205.876666 
z
" style="fill:#e377c2;fill-opacity:0.3;"/>
    <path clip-path="url(#p0c62c6cca4)" d="M 223.776 212.484717 
L 223.776 152.316633 
L 223.776 212.484717 
L 223.776 212.484717 
z
" style="fill:#e377c2;fill-opacity:0.3;"/>
    <path clip-path="url(#p0c62c6cca4)" d="M 304.128 208.406129 
L 304.128 137.51719 
L 313.056 146.306748 
L 321.984 137.004525 
L 330.912 131.997133 
L 330.912 221.578747 
L 330.912 221.578747 
L 321.984 193.190378 
L 313.056 207.889841 
L 304.128 208.406129 
z
" style="fill:#e377c2;fill-opacity:0.3;"/>
    <path clip-path="url(#p0c62c6cca4)" d="M 366.624 197.796051 
L 366.624 139.580725 
L 366.624 197.796051 
L 366.624 197.796051 
z
" style="fill:#e377c2;fill-opacity:0.3;"/>
    <path clip-path="url(#p0c62c6cca4)" d="M 446.976 217.820552 
L 446.976 139.398531 
L 446.976 217.820552 
L 446.976 217.820552 
z
" style="fill:#e377c2;fill-opacity:0.3;"/>
    <path clip-path="url(#p0c62c6cca4)" d="M 509.472 205.667503 
L 509.472 141.233826 
L 509.472 205.667503 
L 509.472 205.667503 
z
" style="fill:#e377c2;fill-opacity:0.3;"/>
   </g>
   <g id="matplotlib.axis_1">
    <g id="xtick_1">
     <g id="line2d_1">
      <path clip-path="url(#p0c62c6cca4)" d="M 72 384.48 
L 72 51.84 
" style="fill:none;stroke:#b0b0b0;stroke-linecap:square;stroke-width:0.8;"/>
     </g>
     <g id="line2d_2">
      <defs>
       <path d="M 0 0 
L 0 3.5 
" id="md722be1906" style="stroke:#000000;stroke-width:0.8;"/>
      </defs>
      <g>
       <use style="stroke:#000000;stroke-width:0.8;" x="72" xlink:href="#md722be1906" y="384.48"/>
      </g>
     </g>
     <g id="text_1">
      <!-- 0 -->
      <defs>
       <path d="M 31.78125 66.40625 
Q 24.171875 66.40625 20.328125 58.90625 
Q 16.5 51.421875 16.5 36.375 
Q 16.5 21.390625 20.328125 13.890625 
Q 24.171875 6.390625 31.78125 6.390625 
Q 39.453125 6.390625 43.28125 13.890625 
Q 47.125 21.390625 47.125 36.375 
Q 47.125 51.421875 43.28125 58.90625 
Q 39.453125 66.40625 31.78125 66.40625 
z
M 31.78125 74.21875 
Q 44.046875 74.21875 50.515625 64.515625 
Q 56.984375 54.828125 56.984375 36.375 
Q 56.984375 17.96875 50.515625 8.265625 
Q 44.046875 -1.421875 31.78125 -1.421875 
Q 19.53125 -1.421875 13.0625 8.265625 
Q 6.59375 17.96875 6.59375 36.375 
Q 6.59375 54.828125 13.0625 64.515625 
Q 19.53125 74.21875 31.78125 74.21875 
z
" id="DejaVuSans-48"/>
      </defs>
      <g transform="translate(68.81875 399.078438)scale(0.1 -0.1)">
       <use xlink:href="#DejaVuSans-48"/>
      </g>
     </g>
    </g>
    <g id="xtick_2">
     <g id="line2d_3">
      <path clip-path="url(#p0c62c6cca4)" d="M 161.28 384.48 
L 161.28 51.84 
" style="fill:none;stroke:#b0b0b0;stroke-linecap:square;stroke-width:0.8;"/>
     </g>
     <g id="line2d_4">
      <g>
       <use style="stroke:#000000;stroke-width:0.8;" x="161.28" xlink:href="#md722be1906" y="384.48"/>
      </g>
     </g>
     <g id="text_2">
      <!-- 10 -->
      <defs>
       <path d="M 12.40625 8.296875 
L 28.515625 8.296875 
L 28.515625 63.921875 
L 10.984375 60.40625 
L 10.984375 69.390625 
L 28.421875 72.90625 
L 38.28125 72.90625 
L 38.28125 8.296875 
L 54.390625 8.296875 
L 54.390625 0 
L 12.40625 0 
z
" id="DejaVuSans-49"/>
      </defs>
      <g transform="translate(154.9175 399.078438)scale(0.1 -0.1)">
       <use xlink:href="#DejaVuSans-49"/>
       <use x="63.623047" xlink:href="#DejaVuSans-48"/>
      </g>
     </g>
    </g>
    <g id="xtick_3">
     <g id="line2d_5">
      <path clip-path="url(#p0c62c6cca4)" d="M 250.56 384.48 
L 250.56 51.84 
" style="fill:none;stroke:#b0b0b0;stroke-linecap:square;stroke-width:0.8;"/>
     </g>
     <g id="line2d_6">
      <g>
       <use style="stroke:#000000;stroke-width:0.8;" x="250.56" xlink:href="#md722be1906" y="384.48"/>
      </g>
     </g>
     <g id="text_3">
      <!-- 20 -->
      <defs>
       <path d="M 19.1875 8.296875 
L 53.609375 8.296875 
L 53.609375 0 
L 7.328125 0 
L 7.328125 8.296875 
Q 12.9375 14.109375 22.625 23.890625 
Q 32.328125 33.6875 34.8125 36.53125 
Q 39.546875 41.84375 41.421875 45.53125 
Q 43.3125 49.21875 43.3125 52.78125 
Q 43.3125 58.59375 39.234375 62.25 
Q 35.15625 65.921875 28.609375 65.921875 
Q 23.96875 65.921875 18.8125 64.3125 
Q 13.671875 62.703125 7.8125 59.421875 
L 7.8125 69.390625 
Q 13.765625 71.78125 18.9375 73 
Q 24.125 74.21875 28.421875 74.21875 
Q 39.75 74.21875 46.484375 68.546875 
Q 53.21875 62.890625 53.21875 53.421875 
Q 53.21875 48.921875 51.53125 44.890625 
Q 49.859375 40.875 45.40625 35.40625 
Q 44.1875 33.984375 37.640625 27.21875 
Q 31.109375 20.453125 19.1875 8.296875 
z
" id="DejaVuSans-50"/>
      </defs>
      <g transform="translate(244.1975 399.078438)scale(0.1 -0.1)">
       <use xlink:href="#DejaVuSans-50"/>
       <use x="63.623047" xlink:href="#DejaVuSans-48"/>
      </g>
     </g>
    </g>
    <g id="xtick_4">
     <g id="line2d_7">
      <path clip-path="url(#p0c62c6cca4)" d="M 339.84 384.48 
L 339.84 51.84 
" style="fill:none;stroke:#b0b0b0;stroke-linecap:square;stroke-width:0.8;"/>
     </g>
     <g id="line2d_8">
      <g>
       <use style="stroke:#000000;stroke-width:0.8;" x="339.84" xlink:href="#md722be1906" y="384.48"/>
      </g>
     </g>
     <g id="text_4">
      <!-- 30 -->
      <defs>
       <path d="M 40.578125 39.3125 
Q 47.65625 37.796875 51.625 33 
Q 55.609375 28.21875 55.609375 21.1875 
Q 55.609375 10.40625 48.1875 4.484375 
Q 40.765625 -1.421875 27.09375 -1.421875 
Q 22.515625 -1.421875 17.65625 -0.515625 
Q 12.796875 0.390625 7.625 2.203125 
L 7.625 11.71875 
Q 11.71875 9.328125 16.59375 8.109375 
Q 21.484375 6.890625 26.8125 6.890625 
Q 36.078125 6.890625 40.9375 10.546875 
Q 45.796875 14.203125 45.796875 21.1875 
Q 45.796875 27.640625 41.28125 31.265625 
Q 36.765625 34.90625 28.71875 34.90625 
L 20.21875 34.90625 
L 20.21875 43.015625 
L 29.109375 43.015625 
Q 36.375 43.015625 40.234375 45.921875 
Q 44.09375 48.828125 44.09375 54.296875 
Q 44.09375 59.90625 40.109375 62.90625 
Q 36.140625 65.921875 28.71875 65.921875 
Q 24.65625 65.921875 20.015625 65.03125 
Q 15.375 64.15625 9.8125 62.3125 
L 9.8125 71.09375 
Q 15.4375 72.65625 20.34375 73.4375 
Q 25.25 74.21875 29.59375 74.21875 
Q 40.828125 74.21875 47.359375 69.109375 
Q 53.90625 64.015625 53.90625 55.328125 
Q 53.90625 49.265625 50.4375 45.09375 
Q 46.96875 40.921875 40.578125 39.3125 
z
" id="DejaVuSans-51"/>
      </defs>
      <g transform="translate(333.4775 399.078438)scale(0.1 -0.1)">
       <use xlink:href="#DejaVuSans-51"/>
       <use x="63.623047" xlink:href="#DejaVuSans-48"/>
      </g>
     </g>
    </g>
    <g id="xtick_5">
     <g id="line2d_9">
      <path clip-path="url(#p0c62c6cca4)" d="M 429.12 384.48 
L 429.12 51.84 
" style="fill:none;stroke:#b0b0b0;stroke-linecap:square;stroke-width:0.8;"/>
     </g>
     <g id="line2d_10">
      <g>
       <use style="stroke:#000000;stroke-width:0.8;" x="429.12" xlink:href="#md722be1906" y="384.48"/>
      </g>
     </g>
     <g id="text_5">
      <!-- 40 -->
      <defs>
       <path d="M 37.796875 64.3125 
L 12.890625 25.390625 
L 37.796875 25.390625 
z
M 35.203125 72.90625 
L 47.609375 72.90625 
L 47.609375 25.390625 
L 58.015625 25.390625 
L 58.015625 17.1875 
L 47.609375 17.1875 
L 47.609375 0 
L 37.796875 0 
L 37.796875 17.1875 
L 4.890625 17.1875 
L 4.890625 26.703125 
z
" id="DejaVuSans-52"/>
      </defs>
      <g transform="translate(422.7575 399.078438)scale(0.1 -0.1)">
       <use xlink:href="#DejaVuSans-52"/>
       <use x="63.623047" xlink:href="#DejaVuSans-48"/>
      </g>
     </g>
    </g>
    <g id="xtick_6">
     <g id="line2d_11">
      <path clip-path="url(#p0c62c6cca4)" d="M 518.4 384.48 
L 518.4 51.84 
" style="fill:none;stroke:#b0b0b0;stroke-linecap:square;stroke-width:0.8;"/>
     </g>
     <g id="line2d_12">
      <g>
       <use style="stroke:#000000;stroke-width:0.8;" x="518.4" xlink:href="#md722be1906" y="384.48"/>
      </g>
     </g>
     <g id="text_6">
      <!-- 50 -->
      <defs>
       <path d="M 10.796875 72.90625 
L 49.515625 72.90625 
L 49.515625 64.59375 
L 19.828125 64.59375 
L 19.828125 46.734375 
Q 21.96875 47.46875 24.109375 47.828125 
Q 26.265625 48.1875 28.421875 48.1875 
Q 40.625 48.1875 47.75 41.5 
Q 54.890625 34.8125 54.890625 23.390625 
Q 54.890625 11.625 47.5625 5.09375 
Q 40.234375 -1.421875 26.90625 -1.421875 
Q 22.3125 -1.421875 17.546875 -0.640625 
Q 12.796875 0.140625 7.71875 1.703125 
L 7.71875 11.625 
Q 12.109375 9.234375 16.796875 8.0625 
Q 21.484375 6.890625 26.703125 6.890625 
Q 35.15625 6.890625 40.078125 11.328125 
Q 45.015625 15.765625 45.015625 23.390625 
Q 45.015625 31 40.078125 35.4375 
Q 35.15625 39.890625 26.703125 39.890625 
Q 22.75 39.890625 18.8125 39.015625 
Q 14.890625 38.140625 10.796875 36.28125 
z
" id="DejaVuSans-53"/>
      </defs>
      <g transform="translate(512.0375 399.078438)scale(0.1 -0.1)">
       <use xlink:href="#DejaVuSans-53"/>
       <use x="63.623047" xlink:href="#DejaVuSans-48"/>
      </g>
     </g>
    </g>
    <g id="text_7">
     <!-- Iteration -->
     <defs>
      <path d="M 9.8125 72.90625 
L 19.671875 72.90625 
L 19.671875 0 
L 9.8125 0 
z
" id="DejaVuSans-73"/>
      <path d="M 18.3125 70.21875 
L 18.3125 54.6875 
L 36.8125 54.6875 
L 36.8125 47.703125 
L 18.3125 47.703125 
L 18.3125 18.015625 
Q 18.3125 11.328125 20.140625 9.421875 
Q 21.96875 7.515625 27.59375 7.515625 
L 36.8125 7.515625 
L 36.8125 0 
L 27.59375 0 
Q 17.1875 0 13.234375 3.875 
Q 9.28125 7.765625 9.28125 18.015625 
L 9.28125 47.703125 
L 2.6875 47.703125 
L 2.6875 54.6875 
L 9.28125 54.6875 
L 9.28125 70.21875 
z
" id="DejaVuSans-116"/>
      <path d="M 56.203125 29.59375 
L 56.203125 25.203125 
L 14.890625 25.203125 
Q 15.484375 15.921875 20.484375 11.0625 
Q 25.484375 6.203125 34.421875 6.203125 
Q 39.59375 6.203125 44.453125 7.46875 
Q 49.3125 8.734375 54.109375 11.28125 
L 54.109375 2.78125 
Q 49.265625 0.734375 44.1875 -0.34375 
Q 39.109375 -1.421875 33.890625 -1.421875 
Q 20.796875 -1.421875 13.15625 6.1875 
Q 5.515625 13.8125 5.515625 26.8125 
Q 5.515625 40.234375 12.765625 48.109375 
Q 20.015625 56 32.328125 56 
Q 43.359375 56 49.78125 48.890625 
Q 56.203125 41.796875 56.203125 29.59375 
z
M 47.21875 32.234375 
Q 47.125 39.59375 43.09375 43.984375 
Q 39.0625 48.390625 32.421875 48.390625 
Q 24.90625 48.390625 20.390625 44.140625 
Q 15.875 39.890625 15.1875 32.171875 
z
" id="DejaVuSans-101"/>
      <path d="M 41.109375 46.296875 
Q 39.59375 47.171875 37.8125 47.578125 
Q 36.03125 48 33.890625 48 
Q 26.265625 48 22.1875 43.046875 
Q 18.109375 38.09375 18.109375 28.8125 
L 18.109375 0 
L 9.078125 0 
L 9.078125 54.6875 
L 18.109375 54.6875 
L 18.109375 46.1875 
Q 20.953125 51.171875 25.484375 53.578125 
Q 30.03125 56 36.53125 56 
Q 37.453125 56 38.578125 55.875 
Q 39.703125 55.765625 41.0625 55.515625 
z
" id="DejaVuSans-114"/>
      <path d="M 34.28125 27.484375 
Q 23.390625 27.484375 19.1875 25 
Q 14.984375 22.515625 14.984375 16.5 
Q 14.984375 11.71875 18.140625 8.90625 
Q 21.296875 6.109375 26.703125 6.109375 
Q 34.1875 6.109375 38.703125 11.40625 
Q 43.21875 16.703125 43.21875 25.484375 
L 43.21875 27.484375 
z
M 52.203125 31.203125 
L 52.203125 0 
L 43.21875 0 
L 43.21875 8.296875 
Q 40.140625 3.328125 35.546875 0.953125 
Q 30.953125 -1.421875 24.3125 -1.421875 
Q 15.921875 -1.421875 10.953125 3.296875 
Q 6 8.015625 6 15.921875 
Q 6 25.140625 12.171875 29.828125 
Q 18.359375 34.515625 30.609375 34.515625 
L 43.21875 34.515625 
L 43.21875 35.40625 
Q 43.21875 41.609375 39.140625 45 
Q 35.0625 48.390625 27.6875 48.390625 
Q 23 48.390625 18.546875 47.265625 
Q 14.109375 46.140625 10.015625 43.890625 
L 10.015625 52.203125 
Q 14.9375 54.109375 19.578125 55.046875 
Q 24.21875 56 28.609375 56 
Q 40.484375 56 46.34375 49.84375 
Q 52.203125 43.703125 52.203125 31.203125 
z
" id="DejaVuSans-97"/>
      <path d="M 9.421875 54.6875 
L 18.40625 54.6875 
L 18.40625 0 
L 9.421875 0 
z
M 9.421875 75.984375 
L 18.40625 75.984375 
L 18.40625 64.59375 
L 9.421875 64.59375 
z
" id="DejaVuSans-105"/>
      <path d="M 30.609375 48.390625 
Q 23.390625 48.390625 19.1875 42.75 
Q 14.984375 37.109375 14.984375 27.296875 
Q 14.984375 17.484375 19.15625 11.84375 
Q 23.34375 6.203125 30.609375 6.203125 
Q 37.796875 6.203125 41.984375 11.859375 
Q 46.1875 17.53125 46.1875 27.296875 
Q 46.1875 37.015625 41.984375 42.703125 
Q 37.796875 48.390625 30.609375 48.390625 
z
M 30.609375 56 
Q 42.328125 56 49.015625 48.375 
Q 55.71875 40.765625 55.71875 27.296875 
Q 55.71875 13.875 49.015625 6.21875 
Q 42.328125 -1.421875 30.609375 -1.421875 
Q 18.84375 -1.421875 12.171875 6.21875 
Q 5.515625 13.875 5.515625 27.296875 
Q 5.515625 40.765625 12.171875 48.375 
Q 18.84375 56 30.609375 56 
z
" id="DejaVuSans-111"/>
      <path d="M 54.890625 33.015625 
L 54.890625 0 
L 45.90625 0 
L 45.90625 32.71875 
Q 45.90625 40.484375 42.875 44.328125 
Q 39.84375 48.1875 33.796875 48.1875 
Q 26.515625 48.1875 22.3125 43.546875 
Q 18.109375 38.921875 18.109375 30.90625 
L 18.109375 0 
L 9.078125 0 
L 9.078125 54.6875 
L 18.109375 54.6875 
L 18.109375 46.1875 
Q 21.34375 51.125 25.703125 53.5625 
Q 30.078125 56 35.796875 56 
Q 45.21875 56 50.046875 50.171875 
Q 54.890625 44.34375 54.890625 33.015625 
z
" id="DejaVuSans-110"/>
     </defs>
     <g transform="translate(273.991406 412.756563)scale(0.1 -0.1)">
      <use xlink:href="#DejaVuSans-73"/>
      <use x="29.492188" xlink:href="#DejaVuSans-116"/>
      <use x="68.701172" xlink:href="#DejaVuSans-101"/>
      <use x="130.224609" xlink:href="#DejaVuSans-114"/>
      <use x="171.337891" xlink:href="#DejaVuSans-97"/>
      <use x="232.617188" xlink:href="#DejaVuSans-116"/>
      <use x="271.826172" xlink:href="#DejaVuSans-105"/>
      <use x="299.609375" xlink:href="#DejaVuSans-111"/>
      <use x="360.791016" xlink:href="#DejaVuSans-110"/>
     </g>
    </g>
   </g>
   <g id="matplotlib.axis_2">
    <g id="ytick_1">
     <g id="line2d_13">
      <path clip-path="url(#p0c62c6cca4)" d="M 72 384.48 
L 518.4 384.48 
" style="fill:none;stroke:#b0b0b0;stroke-linecap:square;stroke-width:0.8;"/>
     </g>
     <g id="line2d_14">
      <defs>
       <path d="M 0 0 
L -3.5 0 
" id="mba7a851ca3" style="stroke:#000000;stroke-width:0.8;"/>
      </defs>
      <g>
       <use style="stroke:#000000;stroke-width:0.8;" x="72" xlink:href="#mba7a851ca3" y="384.48"/>
      </g>
     </g>
     <g id="text_8">
      <!-- $\mathdefault{10^{-12}}$ -->
      <defs>
       <path d="M 10.59375 35.5 
L 73.1875 35.5 
L 73.1875 27.203125 
L 10.59375 27.203125 
z
" id="DejaVuSans-8722"/>
      </defs>
      <g transform="translate(37.1 388.279219)scale(0.1 -0.1)">
       <use transform="translate(0 0.765625)" xlink:href="#DejaVuSans-49"/>
       <use transform="translate(63.623047 0.765625)" xlink:href="#DejaVuSans-48"/>
       <use transform="translate(128.203125 39.046875)scale(0.7)" xlink:href="#DejaVuSans-8722"/>
       <use transform="translate(186.855469 39.046875)scale(0.7)" xlink:href="#DejaVuSans-49"/>
       <use transform="translate(231.391602 39.046875)scale(0.7)" xlink:href="#DejaVuSans-50"/>
      </g>
     </g>
    </g>
    <g id="ytick_2">
     <g id="line2d_15">
      <path clip-path="url(#p0c62c6cca4)" d="M 72 336.96 
L 518.4 336.96 
" style="fill:none;stroke:#b0b0b0;stroke-linecap:square;stroke-width:0.8;"/>
     </g>
     <g id="line2d_16">
      <g>
       <use style="stroke:#000000;stroke-width:0.8;" x="72" xlink:href="#mba7a851ca3" y="336.96"/>
      </g>
     </g>
     <g id="text_9">
      <!-- $\mathdefault{10^{-10}}$ -->
      <g transform="translate(37.1 340.759219)scale(0.1 -0.1)">
       <use transform="translate(0 0.765625)" xlink:href="#DejaVuSans-49"/>
       <use transform="translate(63.623047 0.765625)" xlink:href="#DejaVuSans-48"/>
       <use transform="translate(128.203125 39.046875)scale(0.7)" xlink:href="#DejaVuSans-8722"/>
       <use transform="translate(186.855469 39.046875)scale(0.7)" xlink:href="#DejaVuSans-49"/>
       <use transform="translate(231.391602 39.046875)scale(0.7)" xlink:href="#DejaVuSans-48"/>
      </g>
     </g>
    </g>
    <g id="ytick_3">
     <g id="line2d_17">
      <path clip-path="url(#p0c62c6cca4)" d="M 72 289.44 
L 518.4 289.44 
" style="fill:none;stroke:#b0b0b0;stroke-linecap:square;stroke-width:0.8;"/>
     </g>
     <g id="line2d_18">
      <g>
       <use style="stroke:#000000;stroke-width:0.8;" x="72" xlink:href="#mba7a851ca3" y="289.44"/>
      </g>
     </g>
     <g id="text_10">
      <!-- $\mathdefault{10^{-8}}$ -->
      <defs>
       <path d="M 31.78125 34.625 
Q 24.75 34.625 20.71875 30.859375 
Q 16.703125 27.09375 16.703125 20.515625 
Q 16.703125 13.921875 20.71875 10.15625 
Q 24.75 6.390625 31.78125 6.390625 
Q 38.8125 6.390625 42.859375 10.171875 
Q 46.921875 13.96875 46.921875 20.515625 
Q 46.921875 27.09375 42.890625 30.859375 
Q 38.875 34.625 31.78125 34.625 
z
M 21.921875 38.8125 
Q 15.578125 40.375 12.03125 44.71875 
Q 8.5 49.078125 8.5 55.328125 
Q 8.5 64.0625 14.71875 69.140625 
Q 20.953125 74.21875 31.78125 74.21875 
Q 42.671875 74.21875 48.875 69.140625 
Q 55.078125 64.0625 55.078125 55.328125 
Q 55.078125 49.078125 51.53125 44.71875 
Q 48 40.375 41.703125 38.8125 
Q 48.828125 37.15625 52.796875 32.3125 
Q 56.78125 27.484375 56.78125 20.515625 
Q 56.78125 9.90625 50.3125 4.234375 
Q 43.84375 -1.421875 31.78125 -1.421875 
Q 19.734375 -1.421875 13.25 4.234375 
Q 6.78125 9.90625 6.78125 20.515625 
Q 6.78125 27.484375 10.78125 32.3125 
Q 14.796875 37.15625 21.921875 38.8125 
z
M 18.3125 54.390625 
Q 18.3125 48.734375 21.84375 45.5625 
Q 25.390625 42.390625 31.78125 42.390625 
Q 38.140625 42.390625 41.71875 45.5625 
Q 45.3125 48.734375 45.3125 54.390625 
Q 45.3125 60.0625 41.71875 63.234375 
Q 38.140625 66.40625 31.78125 66.40625 
Q 25.390625 66.40625 21.84375 63.234375 
Q 18.3125 60.0625 18.3125 54.390625 
z
" id="DejaVuSans-56"/>
      </defs>
      <g transform="translate(41.5 293.239219)scale(0.1 -0.1)">
       <use transform="translate(0 0.765625)" xlink:href="#DejaVuSans-49"/>
       <use transform="translate(63.623047 0.765625)" xlink:href="#DejaVuSans-48"/>
       <use transform="translate(128.203125 39.046875)scale(0.7)" xlink:href="#DejaVuSans-8722"/>
       <use transform="translate(186.855469 39.046875)scale(0.7)" xlink:href="#DejaVuSans-56"/>
      </g>
     </g>
    </g>
    <g id="ytick_4">
     <g id="line2d_19">
      <path clip-path="url(#p0c62c6cca4)" d="M 72 241.92 
L 518.4 241.92 
" style="fill:none;stroke:#b0b0b0;stroke-linecap:square;stroke-width:0.8;"/>
     </g>
     <g id="line2d_20">
      <g>
       <use style="stroke:#000000;stroke-width:0.8;" x="72" xlink:href="#mba7a851ca3" y="241.92"/>
      </g>
     </g>
     <g id="text_11">
      <!-- $\mathdefault{10^{-6}}$ -->
      <defs>
       <path d="M 33.015625 40.375 
Q 26.375 40.375 22.484375 35.828125 
Q 18.609375 31.296875 18.609375 23.390625 
Q 18.609375 15.53125 22.484375 10.953125 
Q 26.375 6.390625 33.015625 6.390625 
Q 39.65625 6.390625 43.53125 10.953125 
Q 47.40625 15.53125 47.40625 23.390625 
Q 47.40625 31.296875 43.53125 35.828125 
Q 39.65625 40.375 33.015625 40.375 
z
M 52.59375 71.296875 
L 52.59375 62.3125 
Q 48.875 64.0625 45.09375 64.984375 
Q 41.3125 65.921875 37.59375 65.921875 
Q 27.828125 65.921875 22.671875 59.328125 
Q 17.53125 52.734375 16.796875 39.40625 
Q 19.671875 43.65625 24.015625 45.921875 
Q 28.375 48.1875 33.59375 48.1875 
Q 44.578125 48.1875 50.953125 41.515625 
Q 57.328125 34.859375 57.328125 23.390625 
Q 57.328125 12.15625 50.6875 5.359375 
Q 44.046875 -1.421875 33.015625 -1.421875 
Q 20.359375 -1.421875 13.671875 8.265625 
Q 6.984375 17.96875 6.984375 36.375 
Q 6.984375 53.65625 15.1875 63.9375 
Q 23.390625 74.21875 37.203125 74.21875 
Q 40.921875 74.21875 44.703125 73.484375 
Q 48.484375 72.75 52.59375 71.296875 
z
" id="DejaVuSans-54"/>
      </defs>
      <g transform="translate(41.5 245.719219)scale(0.1 -0.1)">
       <use transform="translate(0 0.765625)" xlink:href="#DejaVuSans-49"/>
       <use transform="translate(63.623047 0.765625)" xlink:href="#DejaVuSans-48"/>
       <use transform="translate(128.203125 39.046875)scale(0.7)" xlink:href="#DejaVuSans-8722"/>
       <use transform="translate(186.855469 39.046875)scale(0.7)" xlink:href="#DejaVuSans-54"/>
      </g>
     </g>
    </g>
    <g id="ytick_5">
     <g id="line2d_21">
      <path clip-path="url(#p0c62c6cca4)" d="M 72 194.4 
L 518.4 194.4 
" style="fill:none;stroke:#b0b0b0;stroke-linecap:square;stroke-width:0.8;"/>
     </g>
     <g id="line2d_22">
      <g>
       <use style="stroke:#000000;stroke-width:0.8;" x="72" xlink:href="#mba7a851ca3" y="194.4"/>
      </g>
     </g>
     <g id="text_12">
      <!-- $\mathdefault{10^{-4}}$ -->
      <g transform="translate(41.5 198.199219)scale(0.1 -0.1)">
       <use transform="translate(0 0.684375)" xlink:href="#DejaVuSans-49"/>
       <use transform="translate(63.623047 0.684375)" xlink:href="#DejaVuSans-48"/>
       <use transform="translate(128.203125 38.965625)scale(0.7)" xlink:href="#DejaVuSans-8722"/>
       <use transform="translate(186.855469 38.965625)scale(0.7)" xlink:href="#DejaVuSans-52"/>
      </g>
     </g>
    </g>
    <g id="ytick_6">
     <g id="line2d_23">
      <path clip-path="url(#p0c62c6cca4)" d="M 72 146.88 
L 518.4 146.88 
" style="fill:none;stroke:#b0b0b0;stroke-linecap:square;stroke-width:0.8;"/>
     </g>
     <g id="line2d_24">
      <g>
       <use style="stroke:#000000;stroke-width:0.8;" x="72" xlink:href="#mba7a851ca3" y="146.88"/>
      </g>
     </g>
     <g id="text_13">
      <!-- $\mathdefault{10^{-2}}$ -->
      <g transform="translate(41.5 150.679219)scale(0.1 -0.1)">
       <use transform="translate(0 0.765625)" xlink:href="#DejaVuSans-49"/>
       <use transform="translate(63.623047 0.765625)" xlink:href="#DejaVuSans-48"/>
       <use transform="translate(128.203125 39.046875)scale(0.7)" xlink:href="#DejaVuSans-8722"/>
       <use transform="translate(186.855469 39.046875)scale(0.7)" xlink:href="#DejaVuSans-50"/>
      </g>
     </g>
    </g>
    <g id="ytick_7">
     <g id="line2d_25">
      <path clip-path="url(#p0c62c6cca4)" d="M 72 99.36 
L 518.4 99.36 
" style="fill:none;stroke:#b0b0b0;stroke-linecap:square;stroke-width:0.8;"/>
     </g>
     <g id="line2d_26">
      <g>
       <use style="stroke:#000000;stroke-width:0.8;" x="72" xlink:href="#mba7a851ca3" y="99.36"/>
      </g>
     </g>
     <g id="text_14">
      <!-- $\mathdefault{10^{0}}$ -->
      <g transform="translate(47.4 103.159219)scale(0.1 -0.1)">
       <use transform="translate(0 0.765625)" xlink:href="#DejaVuSans-49"/>
       <use transform="translate(63.623047 0.765625)" xlink:href="#DejaVuSans-48"/>
       <use transform="translate(128.203125 39.046875)scale(0.7)" xlink:href="#DejaVuSans-48"/>
      </g>
     </g>
    </g>
    <g id="ytick_8">
     <g id="line2d_27">
      <path clip-path="url(#p0c62c6cca4)" d="M 72 51.84 
L 518.4 51.84 
" style="fill:none;stroke:#b0b0b0;stroke-linecap:square;stroke-width:0.8;"/>
     </g>
     <g id="line2d_28">
      <g>
       <use style="stroke:#000000;stroke-width:0.8;" x="72" xlink:href="#mba7a851ca3" y="51.84"/>
      </g>
     </g>
     <g id="text_15">
      <!-- $\mathdefault{10^{2}}$ -->
      <g transform="translate(47.4 55.639219)scale(0.1 -0.1)">
       <use transform="translate(0 0.765625)" xlink:href="#DejaVuSans-49"/>
       <use transform="translate(63.623047 0.765625)" xlink:href="#DejaVuSans-48"/>
       <use transform="translate(128.203125 39.046875)scale(0.7)" xlink:href="#DejaVuSans-50"/>
      </g>
     </g>
    </g>
    <g id="text_16">
     <!-- Integrated Variance -->
     <defs>
      <path d="M 45.40625 27.984375 
Q 45.40625 37.75 41.375 43.109375 
Q 37.359375 48.484375 30.078125 48.484375 
Q 22.859375 48.484375 18.828125 43.109375 
Q 14.796875 37.75 14.796875 27.984375 
Q 14.796875 18.265625 18.828125 12.890625 
Q 22.859375 7.515625 30.078125 7.515625 
Q 37.359375 7.515625 41.375 12.890625 
Q 45.40625 18.265625 45.40625 27.984375 
z
M 54.390625 6.78125 
Q 54.390625 -7.171875 48.1875 -13.984375 
Q 42 -20.796875 29.203125 -20.796875 
Q 24.46875 -20.796875 20.265625 -20.09375 
Q 16.0625 -19.390625 12.109375 -17.921875 
L 12.109375 -9.1875 
Q 16.0625 -11.328125 19.921875 -12.34375 
Q 23.78125 -13.375 27.78125 -13.375 
Q 36.625 -13.375 41.015625 -8.765625 
Q 45.40625 -4.15625 45.40625 5.171875 
L 45.40625 9.625 
Q 42.625 4.78125 38.28125 2.390625 
Q 33.9375 0 27.875 0 
Q 17.828125 0 11.671875 7.65625 
Q 5.515625 15.328125 5.515625 27.984375 
Q 5.515625 40.671875 11.671875 48.328125 
Q 17.828125 56 27.875 56 
Q 33.9375 56 38.28125 53.609375 
Q 42.625 51.21875 45.40625 46.390625 
L 45.40625 54.6875 
L 54.390625 54.6875 
z
" id="DejaVuSans-103"/>
      <path d="M 45.40625 46.390625 
L 45.40625 75.984375 
L 54.390625 75.984375 
L 54.390625 0 
L 45.40625 0 
L 45.40625 8.203125 
Q 42.578125 3.328125 38.25 0.953125 
Q 33.9375 -1.421875 27.875 -1.421875 
Q 17.96875 -1.421875 11.734375 6.484375 
Q 5.515625 14.40625 5.515625 27.296875 
Q 5.515625 40.1875 11.734375 48.09375 
Q 17.96875 56 27.875 56 
Q 33.9375 56 38.25 53.625 
Q 42.578125 51.265625 45.40625 46.390625 
z
M 14.796875 27.296875 
Q 14.796875 17.390625 18.875 11.75 
Q 22.953125 6.109375 30.078125 6.109375 
Q 37.203125 6.109375 41.296875 11.75 
Q 45.40625 17.390625 45.40625 27.296875 
Q 45.40625 37.203125 41.296875 42.84375 
Q 37.203125 48.484375 30.078125 48.484375 
Q 22.953125 48.484375 18.875 42.84375 
Q 14.796875 37.203125 14.796875 27.296875 
z
" id="DejaVuSans-100"/>
      <path id="DejaVuSans-32"/>
      <path d="M 28.609375 0 
L 0.78125 72.90625 
L 11.078125 72.90625 
L 34.1875 11.53125 
L 57.328125 72.90625 
L 67.578125 72.90625 
L 39.796875 0 
z
" id="DejaVuSans-86"/>
      <path d="M 48.78125 52.59375 
L 48.78125 44.1875 
Q 44.96875 46.296875 41.140625 47.34375 
Q 37.3125 48.390625 33.40625 48.390625 
Q 24.65625 48.390625 19.8125 42.84375 
Q 14.984375 37.3125 14.984375 27.296875 
Q 14.984375 17.28125 19.8125 11.734375 
Q 24.65625 6.203125 33.40625 6.203125 
Q 37.3125 6.203125 41.140625 7.25 
Q 44.96875 8.296875 48.78125 10.40625 
L 48.78125 2.09375 
Q 45.015625 0.34375 40.984375 -0.53125 
Q 36.96875 -1.421875 32.421875 -1.421875 
Q 20.0625 -1.421875 12.78125 6.34375 
Q 5.515625 14.109375 5.515625 27.296875 
Q 5.515625 40.671875 12.859375 48.328125 
Q 20.21875 56 33.015625 56 
Q 37.15625 56 41.109375 55.140625 
Q 45.0625 54.296875 48.78125 52.59375 
z
" id="DejaVuSans-99"/>
     </defs>
     <g transform="translate(31.020312 267.534219)rotate(-90)scale(0.1 -0.1)">
      <use xlink:href="#DejaVuSans-73"/>
      <use x="29.492188" xlink:href="#DejaVuSans-110"/>
      <use x="92.871094" xlink:href="#DejaVuSans-116"/>
      <use x="132.080078" xlink:href="#DejaVuSans-101"/>
      <use x="193.603516" xlink:href="#DejaVuSans-103"/>
      <use x="257.080078" xlink:href="#DejaVuSans-114"/>
      <use x="298.193359" xlink:href="#DejaVuSans-97"/>
      <use x="359.472656" xlink:href="#DejaVuSans-116"/>
      <use x="398.681641" xlink:href="#DejaVuSans-101"/>
      <use x="460.205078" xlink:href="#DejaVuSans-100"/>
      <use x="523.681641" xlink:href="#DejaVuSans-32"/>
      <use x="555.46875" xlink:href="#DejaVuSans-86"/>
      <use x="616.126953" xlink:href="#DejaVuSans-97"/>
      <use x="677.40625" xlink:href="#DejaVuSans-114"/>
      <use x="718.519531" xlink:href="#DejaVuSans-105"/>
      <use x="746.302734" xlink:href="#DejaVuSans-97"/>
      <use x="807.582031" xlink:href="#DejaVuSans-110"/>
      <use x="870.960938" xlink:href="#DejaVuSans-99"/>
      <use x="925.941406" xlink:href="#DejaVuSans-101"/>
     </g>
    </g>
   </g>
   <g id="line2d_29">
    <path clip-path="url(#p0c62c6cca4)" d="M 170.079102 433 
L 170.208 89.828575 
L 170.336898 433 
M 259.311337 433 
L 259.473466 -1 
M 259.502534 -1 
L 259.664663 433 
M 286.096172 433 
L 286.258316 -1 
M 286.285684 -1 
L 286.447828 433 
M 446.807654 433 
L 446.969937 -1 
M 446.982063 -1 
L 447.144346 433 
" style="fill:none;stroke:#1f77b4;stroke-linecap:square;stroke-width:1.5;"/>
   </g>
   <g id="line2d_30">
    <path clip-path="url(#p0c62c6cca4)" d="M 72 90.847267 
L 80.928 88.122892 
L 89.856 96.907029 
L 98.784 84.427912 
L 107.712 98.649524 
L 116.64 106.782067 
L 125.568 111.479588 
L 134.496 102.813798 
L 143.424 110.554612 
L 152.352 115.843554 
L 161.28 127.325493 
L 170.208 119.063151 
L 179.136 76.761147 
L 188.064 77.073923 
L 196.992 77.187685 
L 205.92 75.6828 
L 214.848 75.6828 
L 223.776 75.6828 
L 232.704 75.6828 
L 241.632 75.6828 
L 250.56 75.6828 
L 259.488 75.6828 
L 268.416 75.6828 
L 277.344 75.6828 
L 286.272 75.6828 
L 295.2 75.6828 
L 304.128 75.6828 
L 313.056 75.6828 
L 321.984 75.6828 
L 330.912 75.6828 
L 339.84 75.6828 
L 348.768 75.6828 
L 357.696 75.6828 
L 366.624 75.6828 
L 375.552 75.6828 
L 384.48 75.6828 
L 393.408 75.6828 
L 402.336 75.6828 
L 411.264 75.6828 
L 420.192 75.6828 
L 429.12 75.6828 
L 438.048 75.6828 
L 446.976 75.6828 
L 455.904 75.6828 
L 464.832 75.6828 
L 473.76 75.6828 
L 482.688 75.6828 
L 491.616 75.6828 
L 500.544 75.6828 
L 509.472 75.6828 
L 518.4 75.6828 
" style="fill:none;stroke:#ff7f0e;stroke-linecap:square;stroke-width:1.5;"/>
   </g>
   <g id="line2d_31">
    <path clip-path="url(#p0c62c6cca4)" d="M 72 81.82913 
L 80.928 81.220887 
L 89.856 84.883804 
L 98.784 83.211238 
L 107.712 88.333843 
L 116.64 90.044797 
L 125.568 90.845592 
L 134.496 90.981953 
L 143.424 92.747804 
L 152.352 93.644266 
L 161.28 95.354391 
L 170.208 96.32171 
L 179.136 97.136621 
L 188.064 98.312274 
L 196.992 98.786916 
L 205.92 99.271463 
L 214.848 100.313648 
L 223.776 100.831901 
L 232.704 101.361626 
L 241.632 101.867901 
L 250.56 102.424318 
L 259.488 102.973222 
L 268.416 103.548489 
L 277.344 104.017739 
L 286.272 104.621566 
L 295.2 105.243021 
L 304.128 106.357843 
L 313.056 107.020447 
L 321.984 107.41721 
L 330.912 108.14418 
L 339.84 108.452323 
L 348.768 108.75961 
L 357.696 109.379961 
L 366.624 109.699046 
L 375.552 110.017484 
L 384.48 110.333121 
L 393.408 110.655098 
L 402.336 110.97242 
L 411.264 111.300331 
L 420.192 111.599941 
L 429.12 111.930882 
L 438.048 112.264662 
L 446.976 112.60112 
L 455.904 112.930745 
L 464.832 113.24213 
L 473.76 113.577137 
L 482.688 113.924233 
L 491.616 114.262377 
L 500.544 114.601621 
L 509.472 114.956823 
L 518.4 115.317601 
" style="fill:none;stroke:#2ca02c;stroke-linecap:square;stroke-width:1.5;"/>
   </g>
   <g id="line2d_32">
    <path clip-path="url(#p0c62c6cca4)" d="M 72 86.568254 
L 80.928 84.796434 
L 89.856 90.185238 
L 98.784 85.437633 
L 107.712 94.65306 
L 116.64 98.731956 
L 125.568 100.182616 
L 134.496 98.549187 
L 143.424 103.476169 
L 152.352 105.443572 
L 161.28 109.910893 
L 170.208 112.308552 
L 179.136 115.483926 
L 188.064 119.460365 
L 196.992 120.394498 
L 205.92 121.099294 
L 214.848 125.363181 
L 223.776 126.544916 
L 232.704 127.896703 
L 241.632 129.150444 
L 250.56 130.372858 
L 259.488 131.804095 
L 268.416 132.930488 
L 277.344 134.061453 
L 286.272 135.303943 
L 295.2 136.563064 
L 304.128 140.85547 
L 313.056 142.611233 
L 321.984 144.519954 
L 330.912 147.689042 
L 339.84 148.300037 
L 348.768 148.889919 
L 357.696 151.562471 
L 366.624 152.22376 
L 375.552 152.884395 
L 384.48 153.559185 
L 393.408 154.238539 
L 402.336 154.931898 
L 411.264 155.608618 
L 420.192 156.285812 
L 429.12 156.992732 
L 438.048 157.710705 
L 446.976 158.595446 
L 455.904 159.343366 
L 464.832 160.127301 
L 473.76 160.984788 
L 482.688 161.602416 
L 491.616 162.23372 
L 500.544 162.910194 
L 509.472 163.571894 
L 518.4 164.237541 
" style="fill:none;stroke:#d62728;stroke-linecap:square;stroke-width:1.5;"/>
   </g>
   <g id="line2d_33">
    <path clip-path="url(#p0c62c6cca4)" d="M 72 88.041002 
L 80.928 86.2889 
L 89.856 92.016731 
L 98.784 86.17101 
L 107.712 96.289838 
L 116.64 101.708036 
L 125.568 103.71934 
L 134.496 100.597813 
L 143.424 106.794938 
L 152.352 109.557612 
L 161.28 115.795243 
L 170.208 118.575839 
L 179.136 122.579158 
L 188.064 129.119432 
L 196.992 130.239127 
L 205.92 130.77098 
L 214.848 137.811268 
L 223.776 139.588302 
L 232.704 142.146345 
L 241.632 143.87068 
L 250.56 145.718414 
L 259.488 148.296898 
L 268.416 149.571571 
L 277.344 150.821403 
L 286.272 152.419785 
L 295.2 153.813481 
L 304.128 160.39183 
L 313.056 162.522367 
L 321.984 164.918183 
L 330.912 172.082199 
L 339.84 172.971366 
L 348.768 173.714367 
L 357.696 179.001327 
L 366.624 179.96296 
L 375.552 180.946496 
L 384.48 181.941146 
L 393.408 182.947054 
L 402.336 184.039631 
L 411.264 184.9336 
L 420.192 185.827025 
L 429.12 186.399689 
L 438.048 187.783405 
L 446.976 189.542741 
L 455.904 190.628904 
L 464.832 191.342005 
L 473.76 193.314522 
L 482.688 193.98924 
L 491.616 195.125086 
L 500.544 196.018112 
L 509.472 196.75346 
L 518.4 197.493058 
" style="fill:none;stroke:#9467bd;stroke-linecap:square;stroke-width:1.5;"/>
   </g>
   <g id="line2d_34">
    <path clip-path="url(#p0c62c6cca4)" d="M 72 86.107706 
L 80.928 82.65479 
L 89.856 89.18981 
L 98.784 80.154034 
L 107.712 94.169006 
L 116.64 98.533019 
L 125.568 101.532916 
L 134.496 96.302953 
L 143.424 100.88917 
L 152.352 104.096691 
L 161.28 110.578528 
L 170.208 115.394459 
L 179.136 123.835673 
L 188.064 131.6062 
L 196.992 134.521078 
L 205.92 132.799098 
L 214.848 145.295438 
L 223.776 149.696559 
L 232.704 156.280829 
L 241.632 160.15874 
L 250.56 162.623632 
L 259.488 170.140255 
L 268.416 174.118931 
L 277.344 175.821439 
L 286.272 180.167556 
L 295.2 184.005904 
L 304.128 194.02544 
L 313.056 196.441568 
L 321.984 196.562969 
L 330.912 222.786534 
L 339.84 227.023388 
L 348.768 225.227266 
L 357.696 237.939947 
L 366.624 239.496934 
L 375.552 241.773036 
L 384.48 242.174934 
L 393.408 242.15029 
L 402.336 247.748097 
L 411.264 248.035043 
L 420.192 243.962337 
L 429.12 242.566556 
L 438.048 241.750657 
L 446.976 239.634078 
L 455.904 235.828496 
L 464.832 233.525142 
L 473.76 234.717343 
L 482.688 230.377073 
L 491.616 235.729117 
L 500.544 226.714564 
L 509.472 225.872081 
L 518.4 224.611233 
" style="fill:none;stroke:#8c564b;stroke-linecap:square;stroke-width:1.5;"/>
   </g>
   <g id="line2d_35">
    <path clip-path="url(#p0c62c6cca4)" d="M 72 178.806055 
L 80.928 183.684359 
L 89.856 195.381952 
L 89.945649 433 
M 107.617391 433 
L 107.712 182.095138 
L 116.64 178.313174 
L 125.568 177.694224 
L 134.496 180.948429 
L 143.424 180.314343 
L 152.352 185.297171 
L 161.28 166.919957 
L 170.208 175.566851 
L 179.136 174.334254 
L 188.064 173.248764 
L 196.992 168.944143 
L 205.92 175.215207 
L 206.017175 433 
M 223.681505 433 
L 223.776 182.400675 
L 223.870495 433 
M 304.029985 433 
L 304.128 172.961659 
L 313.056 177.098295 
L 321.984 165.097452 
L 330.912 176.78794 
L 331.008588 433 
M 366.524392 433 
L 366.624 168.688388 
L 366.723608 433 
M 446.880091 433 
L 446.976 178.609542 
L 447.071909 433 
M 509.374167 433 
L 509.472 173.450665 
L 509.569833 433 
" style="fill:none;stroke:#e377c2;stroke-linecap:square;stroke-width:1.5;"/>
   </g>
   <g id="patch_3">
    <path d="M 72 384.48 
L 72 51.84 
" style="fill:none;stroke:#000000;stroke-linecap:square;stroke-linejoin:miter;stroke-width:0.8;"/>
   </g>
   <g id="patch_4">
    <path d="M 518.4 384.48 
L 518.4 51.84 
" style="fill:none;stroke:#000000;stroke-linecap:square;stroke-linejoin:miter;stroke-width:0.8;"/>
   </g>
   <g id="patch_5">
    <path d="M 72 384.48 
L 518.4 384.48 
" style="fill:none;stroke:#000000;stroke-linecap:square;stroke-linejoin:miter;stroke-width:0.8;"/>
   </g>
   <g id="patch_6">
    <path d="M 72 51.84 
L 518.4 51.84 
" style="fill:none;stroke:#000000;stroke-linecap:square;stroke-linejoin:miter;stroke-width:0.8;"/>
   </g>
   <g id="legend_1">
    <g id="patch_7">
     <path d="M 79 379.48 
L 165.804688 379.48 
Q 167.804688 379.48 167.804688 377.48 
L 167.804688 275.733125 
Q 167.804688 273.733125 165.804688 273.733125 
L 79 273.733125 
Q 77 273.733125 77 275.733125 
L 77 377.48 
Q 77 379.48 79 379.48 
z
" style="fill:#ffffff;opacity:0.8;stroke:#cccccc;stroke-linejoin:miter;"/>
    </g>
    <g id="line2d_36">
     <path d="M 81 281.831563 
L 101 281.831563 
" style="fill:none;stroke:#1f77b4;stroke-linecap:square;stroke-width:1.5;"/>
    </g>
    <g id="line2d_37"/>
    <g id="text_17">
     <!-- Constant -->
     <defs>
      <path d="M 64.40625 67.28125 
L 64.40625 56.890625 
Q 59.421875 61.53125 53.78125 63.8125 
Q 48.140625 66.109375 41.796875 66.109375 
Q 29.296875 66.109375 22.65625 58.46875 
Q 16.015625 50.828125 16.015625 36.375 
Q 16.015625 21.96875 22.65625 14.328125 
Q 29.296875 6.6875 41.796875 6.6875 
Q 48.140625 6.6875 53.78125 8.984375 
Q 59.421875 11.28125 64.40625 15.921875 
L 64.40625 5.609375 
Q 59.234375 2.09375 53.4375 0.328125 
Q 47.65625 -1.421875 41.21875 -1.421875 
Q 24.65625 -1.421875 15.125 8.703125 
Q 5.609375 18.84375 5.609375 36.375 
Q 5.609375 53.953125 15.125 64.078125 
Q 24.65625 74.21875 41.21875 74.21875 
Q 47.75 74.21875 53.53125 72.484375 
Q 59.328125 70.75 64.40625 67.28125 
z
" id="DejaVuSans-67"/>
      <path d="M 44.28125 53.078125 
L 44.28125 44.578125 
Q 40.484375 46.53125 36.375 47.5 
Q 32.28125 48.484375 27.875 48.484375 
Q 21.1875 48.484375 17.84375 46.4375 
Q 14.5 44.390625 14.5 40.28125 
Q 14.5 37.15625 16.890625 35.375 
Q 19.28125 33.59375 26.515625 31.984375 
L 29.59375 31.296875 
Q 39.15625 29.25 43.1875 25.515625 
Q 47.21875 21.78125 47.21875 15.09375 
Q 47.21875 7.46875 41.1875 3.015625 
Q 35.15625 -1.421875 24.609375 -1.421875 
Q 20.21875 -1.421875 15.453125 -0.5625 
Q 10.6875 0.296875 5.421875 2 
L 5.421875 11.28125 
Q 10.40625 8.6875 15.234375 7.390625 
Q 20.0625 6.109375 24.8125 6.109375 
Q 31.15625 6.109375 34.5625 8.28125 
Q 37.984375 10.453125 37.984375 14.40625 
Q 37.984375 18.0625 35.515625 20.015625 
Q 33.0625 21.96875 24.703125 23.78125 
L 21.578125 24.515625 
Q 13.234375 26.265625 9.515625 29.90625 
Q 5.8125 33.546875 5.8125 39.890625 
Q 5.8125 47.609375 11.28125 51.796875 
Q 16.75 56 26.8125 56 
Q 31.78125 56 36.171875 55.265625 
Q 40.578125 54.546875 44.28125 53.078125 
z
" id="DejaVuSans-115"/>
     </defs>
     <g transform="translate(109 285.331563)scale(0.1 -0.1)">
      <use xlink:href="#DejaVuSans-67"/>
      <use x="69.824219" xlink:href="#DejaVuSans-111"/>
      <use x="131.005859" xlink:href="#DejaVuSans-110"/>
      <use x="194.384766" xlink:href="#DejaVuSans-115"/>
      <use x="246.484375" xlink:href="#DejaVuSans-116"/>
      <use x="285.693359" xlink:href="#DejaVuSans-97"/>
      <use x="346.972656" xlink:href="#DejaVuSans-110"/>
      <use x="410.351562" xlink:href="#DejaVuSans-116"/>
     </g>
    </g>
    <g id="line2d_38">
     <path d="M 81 296.509688 
L 101 296.509688 
" style="fill:none;stroke:#ff7f0e;stroke-linecap:square;stroke-width:1.5;"/>
    </g>
    <g id="line2d_39"/>
    <g id="text_18">
     <!-- RBF -->
     <defs>
      <path d="M 44.390625 34.1875 
Q 47.5625 33.109375 50.5625 29.59375 
Q 53.5625 26.078125 56.59375 19.921875 
L 66.609375 0 
L 56 0 
L 46.6875 18.703125 
Q 43.0625 26.03125 39.671875 28.421875 
Q 36.28125 30.8125 30.421875 30.8125 
L 19.671875 30.8125 
L 19.671875 0 
L 9.8125 0 
L 9.8125 72.90625 
L 32.078125 72.90625 
Q 44.578125 72.90625 50.734375 67.671875 
Q 56.890625 62.453125 56.890625 51.90625 
Q 56.890625 45.015625 53.6875 40.46875 
Q 50.484375 35.9375 44.390625 34.1875 
z
M 19.671875 64.796875 
L 19.671875 38.921875 
L 32.078125 38.921875 
Q 39.203125 38.921875 42.84375 42.21875 
Q 46.484375 45.515625 46.484375 51.90625 
Q 46.484375 58.296875 42.84375 61.546875 
Q 39.203125 64.796875 32.078125 64.796875 
z
" id="DejaVuSans-82"/>
      <path d="M 19.671875 34.8125 
L 19.671875 8.109375 
L 35.5 8.109375 
Q 43.453125 8.109375 47.28125 11.40625 
Q 51.125 14.703125 51.125 21.484375 
Q 51.125 28.328125 47.28125 31.5625 
Q 43.453125 34.8125 35.5 34.8125 
z
M 19.671875 64.796875 
L 19.671875 42.828125 
L 34.28125 42.828125 
Q 41.5 42.828125 45.03125 45.53125 
Q 48.578125 48.25 48.578125 53.8125 
Q 48.578125 59.328125 45.03125 62.0625 
Q 41.5 64.796875 34.28125 64.796875 
z
M 9.8125 72.90625 
L 35.015625 72.90625 
Q 46.296875 72.90625 52.390625 68.21875 
Q 58.5 63.53125 58.5 54.890625 
Q 58.5 48.1875 55.375 44.234375 
Q 52.25 40.28125 46.1875 39.3125 
Q 53.46875 37.75 57.5 32.78125 
Q 61.53125 27.828125 61.53125 20.40625 
Q 61.53125 10.640625 54.890625 5.3125 
Q 48.25 0 35.984375 0 
L 9.8125 0 
z
" id="DejaVuSans-66"/>
      <path d="M 9.8125 72.90625 
L 51.703125 72.90625 
L 51.703125 64.59375 
L 19.671875 64.59375 
L 19.671875 43.109375 
L 48.578125 43.109375 
L 48.578125 34.8125 
L 19.671875 34.8125 
L 19.671875 0 
L 9.8125 0 
z
" id="DejaVuSans-70"/>
     </defs>
     <g transform="translate(109 300.009688)scale(0.1 -0.1)">
      <use xlink:href="#DejaVuSans-82"/>
      <use x="69.482422" xlink:href="#DejaVuSans-66"/>
      <use x="138.085938" xlink:href="#DejaVuSans-70"/>
     </g>
    </g>
    <g id="line2d_40">
     <path d="M 81 311.187813 
L 101 311.187813 
" style="fill:none;stroke:#2ca02c;stroke-linecap:square;stroke-width:1.5;"/>
    </g>
    <g id="line2d_41"/>
    <g id="text_19">
     <!-- Matrn-1/2 -->
     <defs>
      <path d="M 9.8125 72.90625 
L 24.515625 72.90625 
L 43.109375 23.296875 
L 61.8125 72.90625 
L 76.515625 72.90625 
L 76.515625 0 
L 66.890625 0 
L 66.890625 64.015625 
L 48.09375 14.015625 
L 38.1875 14.015625 
L 19.390625 64.015625 
L 19.390625 0 
L 9.8125 0 
z
" id="DejaVuSans-77"/>
      <path d="M 56.203125 29.59375 
L 56.203125 25.203125 
L 14.890625 25.203125 
Q 15.484375 15.921875 20.484375 11.0625 
Q 25.484375 6.203125 34.421875 6.203125 
Q 39.59375 6.203125 44.453125 7.46875 
Q 49.3125 8.734375 54.109375 11.28125 
L 54.109375 2.78125 
Q 49.265625 0.734375 44.1875 -0.34375 
Q 39.109375 -1.421875 33.890625 -1.421875 
Q 20.796875 -1.421875 13.15625 6.1875 
Q 5.515625 13.8125 5.515625 26.8125 
Q 5.515625 40.234375 12.765625 48.109375 
Q 20.015625 56 32.328125 56 
Q 43.359375 56 49.78125 48.890625 
Q 56.203125 41.796875 56.203125 29.59375 
z
M 47.21875 32.234375 
Q 47.125 39.59375 43.09375 43.984375 
Q 39.0625 48.390625 32.421875 48.390625 
Q 24.90625 48.390625 20.390625 44.140625 
Q 15.875 39.890625 15.1875 32.171875 
z
M 38.53125 79.984375 
L 48.25 79.984375 
L 32.34375 61.625 
L 24.859375 61.625 
z
" id="DejaVuSans-233"/>
      <path d="M 4.890625 31.390625 
L 31.203125 31.390625 
L 31.203125 23.390625 
L 4.890625 23.390625 
z
" id="DejaVuSans-45"/>
      <path d="M 25.390625 72.90625 
L 33.6875 72.90625 
L 8.296875 -9.28125 
L 0 -9.28125 
z
" id="DejaVuSans-47"/>
     </defs>
     <g transform="translate(109 314.687813)scale(0.1 -0.1)">
      <use xlink:href="#DejaVuSans-77"/>
      <use x="86.279297" xlink:href="#DejaVuSans-97"/>
      <use x="147.558594" xlink:href="#DejaVuSans-116"/>
      <use x="186.767578" xlink:href="#DejaVuSans-233"/>
      <use x="248.291016" xlink:href="#DejaVuSans-114"/>
      <use x="287.654297" xlink:href="#DejaVuSans-110"/>
      <use x="351.033203" xlink:href="#DejaVuSans-45"/>
      <use x="387.117188" xlink:href="#DejaVuSans-49"/>
      <use x="450.740234" xlink:href="#DejaVuSans-47"/>
      <use x="484.431641" xlink:href="#DejaVuSans-50"/>
     </g>
    </g>
    <g id="line2d_42">
     <path d="M 81 325.865938 
L 101 325.865938 
" style="fill:none;stroke:#d62728;stroke-linecap:square;stroke-width:1.5;"/>
    </g>
    <g id="line2d_43"/>
    <g id="text_20">
     <!-- Matrn-3/2 -->
     <g transform="translate(109 329.365938)scale(0.1 -0.1)">
      <use xlink:href="#DejaVuSans-77"/>
      <use x="86.279297" xlink:href="#DejaVuSans-97"/>
      <use x="147.558594" xlink:href="#DejaVuSans-116"/>
      <use x="186.767578" xlink:href="#DejaVuSans-233"/>
      <use x="248.291016" xlink:href="#DejaVuSans-114"/>
      <use x="287.654297" xlink:href="#DejaVuSans-110"/>
      <use x="351.033203" xlink:href="#DejaVuSans-45"/>
      <use x="387.117188" xlink:href="#DejaVuSans-51"/>
      <use x="450.740234" xlink:href="#DejaVuSans-47"/>
      <use x="484.431641" xlink:href="#DejaVuSans-50"/>
     </g>
    </g>
    <g id="line2d_44">
     <path d="M 81 340.544062 
L 101 340.544062 
" style="fill:none;stroke:#9467bd;stroke-linecap:square;stroke-width:1.5;"/>
    </g>
    <g id="line2d_45"/>
    <g id="text_21">
     <!-- Matrn-5/2 -->
     <g transform="translate(109 344.044062)scale(0.1 -0.1)">
      <use xlink:href="#DejaVuSans-77"/>
      <use x="86.279297" xlink:href="#DejaVuSans-97"/>
      <use x="147.558594" xlink:href="#DejaVuSans-116"/>
      <use x="186.767578" xlink:href="#DejaVuSans-233"/>
      <use x="248.291016" xlink:href="#DejaVuSans-114"/>
      <use x="287.654297" xlink:href="#DejaVuSans-110"/>
      <use x="351.033203" xlink:href="#DejaVuSans-45"/>
      <use x="387.117188" xlink:href="#DejaVuSans-53"/>
      <use x="450.740234" xlink:href="#DejaVuSans-47"/>
      <use x="484.431641" xlink:href="#DejaVuSans-50"/>
     </g>
    </g>
    <g id="line2d_46">
     <path d="M 81 355.222188 
L 101 355.222188 
" style="fill:none;stroke:#8c564b;stroke-linecap:square;stroke-width:1.5;"/>
    </g>
    <g id="line2d_47"/>
    <g id="text_22">
     <!-- RQ -->
     <defs>
      <path d="M 39.40625 66.21875 
Q 28.65625 66.21875 22.328125 58.203125 
Q 16.015625 50.203125 16.015625 36.375 
Q 16.015625 22.609375 22.328125 14.59375 
Q 28.65625 6.59375 39.40625 6.59375 
Q 50.140625 6.59375 56.421875 14.59375 
Q 62.703125 22.609375 62.703125 36.375 
Q 62.703125 50.203125 56.421875 58.203125 
Q 50.140625 66.21875 39.40625 66.21875 
z
M 53.21875 1.3125 
L 66.21875 -12.890625 
L 54.296875 -12.890625 
L 43.5 -1.21875 
Q 41.890625 -1.3125 41.03125 -1.359375 
Q 40.1875 -1.421875 39.40625 -1.421875 
Q 24.03125 -1.421875 14.8125 8.859375 
Q 5.609375 19.140625 5.609375 36.375 
Q 5.609375 53.65625 14.8125 63.9375 
Q 24.03125 74.21875 39.40625 74.21875 
Q 54.734375 74.21875 63.90625 63.9375 
Q 73.09375 53.65625 73.09375 36.375 
Q 73.09375 23.6875 67.984375 14.640625 
Q 62.890625 5.609375 53.21875 1.3125 
z
" id="DejaVuSans-81"/>
     </defs>
     <g transform="translate(109 358.722188)scale(0.1 -0.1)">
      <use xlink:href="#DejaVuSans-82"/>
      <use x="69.482422" xlink:href="#DejaVuSans-81"/>
     </g>
    </g>
    <g id="line2d_48">
     <path d="M 81 369.900313 
L 101 369.900313 
" style="fill:none;stroke:#e377c2;stroke-linecap:square;stroke-width:1.5;"/>
    </g>
    <g id="line2d_49"/>
    <g id="text_23">
     <!-- Dot Prod. -->
     <defs>
      <path d="M 19.671875 64.796875 
L 19.671875 8.109375 
L 31.59375 8.109375 
Q 46.6875 8.109375 53.6875 14.9375 
Q 60.6875 21.78125 60.6875 36.53125 
Q 60.6875 51.171875 53.6875 57.984375 
Q 46.6875 64.796875 31.59375 64.796875 
z
M 9.8125 72.90625 
L 30.078125 72.90625 
Q 51.265625 72.90625 61.171875 64.09375 
Q 71.09375 55.28125 71.09375 36.53125 
Q 71.09375 17.671875 61.125 8.828125 
Q 51.171875 0 30.078125 0 
L 9.8125 0 
z
" id="DejaVuSans-68"/>
      <path d="M 19.671875 64.796875 
L 19.671875 37.40625 
L 32.078125 37.40625 
Q 38.96875 37.40625 42.71875 40.96875 
Q 46.484375 44.53125 46.484375 51.125 
Q 46.484375 57.671875 42.71875 61.234375 
Q 38.96875 64.796875 32.078125 64.796875 
z
M 9.8125 72.90625 
L 32.078125 72.90625 
Q 44.34375 72.90625 50.609375 67.359375 
Q 56.890625 61.8125 56.890625 51.125 
Q 56.890625 40.328125 50.609375 34.8125 
Q 44.34375 29.296875 32.078125 29.296875 
L 19.671875 29.296875 
L 19.671875 0 
L 9.8125 0 
z
" id="DejaVuSans-80"/>
      <path d="M 10.6875 12.40625 
L 21 12.40625 
L 21 0 
L 10.6875 0 
z
" id="DejaVuSans-46"/>
     </defs>
     <g transform="translate(109 373.400313)scale(0.1 -0.1)">
      <use xlink:href="#DejaVuSans-68"/>
      <use x="77.001953" xlink:href="#DejaVuSans-111"/>
      <use x="138.183594" xlink:href="#DejaVuSans-116"/>
      <use x="177.392578" xlink:href="#DejaVuSans-32"/>
      <use x="209.179688" xlink:href="#DejaVuSans-80"/>
      <use x="267.732422" xlink:href="#DejaVuSans-114"/>
      <use x="306.595703" xlink:href="#DejaVuSans-111"/>
      <use x="367.777344" xlink:href="#DejaVuSans-100"/>
      <use x="431.253906" xlink:href="#DejaVuSans-46"/>
     </g>
    </g>
   </g>
  </g>
 </g>
 <defs>
  <clipPath id="p0c62c6cca4">
   <rect height="332.64" width="446.4" x="72" y="51.84"/>
  </clipPath>
 </defs>
</svg>
