<?xml version="1.0" encoding="utf-8" standalone="no"?>
<!DOCTYPE svg PUBLIC "-//W3C//DTD SVG 1.1//EN"
  "http://www.w3.org/Graphics/SVG/1.1/DTD/svg11.dtd">
<!-- Created with matplotlib (https://matplotlib.org/) -->
<svg height="432pt" version="1.1" viewBox="0 0 576 432" width="576pt" xmlns="http://www.w3.org/2000/svg" xmlns:xlink="http://www.w3.org/1999/xlink">
 <defs>
  <style type="text/css">
*{stroke-linecap:butt;stroke-linejoin:round;}
  </style>
 </defs>
 <g id="figure_1">
  <g id="patch_1">
   <path d="M 0 432 
L 576 432 
L 576 0 
L 0 0 
z
" style="fill:#ffffff;"/>
  </g>
  <g id="axes_1">
   <g id="patch_2">
    <path d="M 72 384.48 
L 518.4 384.48 
L 518.4 51.84 
L 72 51.84 
z
" style="fill:#ffffff;"/>
   </g>
   <g id="PolyCollection_1">
    <path clip-path="url(#pdd6df689fc)" d="M 72 99.566257 
L 72 97.318265 
L 80.928 97.274157 
L 89.856 95.872743 
L 98.784 95.079926 
L 107.712 97.058652 
L 116.64 97.248334 
L 125.568 97.047692 
L 134.496 92.923274 
L 143.424 97.287842 
L 152.352 95.264156 
L 161.28 92.751313 
L 170.208 96.296614 
L 179.136 97.942109 
L 188.064 95.236232 
L 196.992 95.974415 
L 205.92 92.936198 
L 214.848 96.24345 
L 223.776 92.751363 
L 232.704 95.329704 
L 241.632 95.205176 
L 250.56 92.630689 
L 259.488 92.802832 
L 268.416 97.312134 
L 277.344 92.768217 
L 286.272 94.701357 
L 295.2 92.986585 
L 304.128 96.760857 
L 313.056 92.70645 
L 321.984 94.402807 
L 330.912 94.338685 
L 339.84 94.109012 
L 348.768 84.239998 
L 357.696 93.788921 
L 366.624 94.115606 
L 375.552 92.623858 
L 384.48 81.770727 
L 393.408 86.319831 
L 402.336 94.862453 
L 411.264 95.441022 
L 420.192 92.088879 
L 429.12 90.689313 
L 438.048 86.756983 
L 446.976 95.138419 
L 455.904 84.134073 
L 464.832 94.808681 
L 473.76 90.259096 
L 482.688 93.629693 
L 491.616 84.084271 
L 500.544 93.576123 
L 509.472 84.305778 
L 518.4 91.782588 
L 518.4 96.526406 
L 518.4 96.526406 
L 509.472 90.839127 
L 500.544 95.093769 
L 491.616 95.844138 
L 482.688 95.204609 
L 473.76 95.606503 
L 464.832 95.210756 
L 455.904 96.355491 
L 446.976 96.865413 
L 438.048 91.663574 
L 429.12 93.323953 
L 420.192 93.49443 
L 411.264 96.901546 
L 402.336 95.732023 
L 393.408 95.980118 
L 384.48 92.583163 
L 375.552 96.236992 
L 366.624 96.188024 
L 357.696 96.327623 
L 348.768 97.404039 
L 339.84 94.831433 
L 330.912 96.624313 
L 321.984 96.747212 
L 313.056 97.054569 
L 304.128 97.029313 
L 295.2 99.830493 
L 286.272 97.304512 
L 277.344 97.666002 
L 268.416 99.560494 
L 259.488 98.020134 
L 250.56 96.304616 
L 241.632 98.168785 
L 232.704 98.363477 
L 223.776 97.502034 
L 214.848 98.701979 
L 205.92 99.328847 
L 196.992 99.528661 
L 188.064 99.432053 
L 179.136 98.654929 
L 170.208 99.228248 
L 161.28 97.498667 
L 152.352 99.708475 
L 143.424 99.256928 
L 134.496 99.200905 
L 125.568 97.063852 
L 116.64 98.873873 
L 107.712 97.062062 
L 98.784 97.884783 
L 89.856 98.522052 
L 80.928 99.129496 
L 72 99.566257 
z
" style="fill:#1f77b4;fill-opacity:0.3;"/>
   </g>
   <g id="PolyCollection_2">
    <path clip-path="url(#pdd6df689fc)" d="M 72 103.694029 
L 72 99.224109 
L 80.928 104.674236 
L 89.856 101.665211 
L 98.784 97.251751 
L 107.712 97.191557 
L 116.64 97.755328 
L 125.568 96.871367 
L 134.496 97.171172 
L 143.424 97.01067 
L 152.352 96.530014 
L 161.28 96.832073 
L 170.208 97.157039 
L 179.136 97.38843 
L 188.064 99.526205 
L 196.992 96.927621 
L 205.92 97.637518 
L 214.848 96.699717 
L 223.776 96.862209 
L 232.704 97.241212 
L 241.632 98.142659 
L 250.56 96.970199 
L 259.488 99.610355 
L 268.416 97.38003 
L 277.344 98.082609 
L 286.272 99.642089 
L 295.2 99.652688 
L 304.128 99.663299 
L 313.056 99.67392 
L 321.984 97.9784 
L 330.912 99.695196 
L 339.84 99.705851 
L 348.768 99.716516 
L 357.696 98.507069 
L 366.624 99.73788 
L 375.552 99.748579 
L 384.48 99.759288 
L 393.408 99.770009 
L 402.336 99.780741 
L 411.264 99.791484 
L 420.192 99.802238 
L 429.12 99.813004 
L 438.048 99.823781 
L 446.976 99.834569 
L 455.904 99.845368 
L 464.832 99.856179 
L 473.76 99.867001 
L 482.688 99.877834 
L 491.616 99.888679 
L 500.544 99.899535 
L 509.472 99.910403 
L 518.4 99.921282 
L 518.4 99.921435 
L 518.4 99.921435 
L 509.472 99.910556 
L 500.544 99.899689 
L 491.616 99.888832 
L 482.688 99.877987 
L 473.76 99.867154 
L 464.832 99.856332 
L 455.904 99.845521 
L 446.976 99.834721 
L 438.048 99.823933 
L 429.12 99.813156 
L 420.192 99.80239 
L 411.264 99.791636 
L 402.336 99.780893 
L 393.408 99.770161 
L 384.48 99.75944 
L 375.552 99.74873 
L 366.624 99.738031 
L 357.696 101.3542 
L 348.768 99.716667 
L 339.84 99.706001 
L 330.912 99.695347 
L 321.984 101.959599 
L 313.056 99.674071 
L 304.128 99.663449 
L 295.2 99.652838 
L 286.272 99.642238 
L 277.344 101.696863 
L 268.416 103.011332 
L 259.488 99.610504 
L 250.56 104.00746 
L 241.632 101.518219 
L 232.704 103.379279 
L 223.776 104.10391 
L 214.848 104.801137 
L 205.92 102.362983 
L 196.992 104.310462 
L 188.064 99.526353 
L 179.136 102.725005 
L 170.208 103.310887 
L 161.28 103.956637 
L 152.352 106.348482 
L 143.424 103.572104 
L 134.496 103.632549 
L 125.568 108.496026 
L 116.64 111.499621 
L 107.712 104.824507 
L 98.784 107.420136 
L 89.856 109.592626 
L 80.928 109.605546 
L 72 103.694029 
z
" style="fill:#ff7f0e;fill-opacity:0.3;"/>
   </g>
   <g id="PolyCollection_3">
    <path clip-path="url(#pdd6df689fc)" d="M 72 111.061696 
L 72 100.877954 
L 80.928 106.500723 
L 89.856 109.245232 
L 98.784 110.2359 
L 107.712 112.067118 
L 116.64 113.856489 
L 125.568 115.411774 
L 134.496 116.220549 
L 143.424 116.80212 
L 152.352 117.243654 
L 161.28 117.831255 
L 170.208 118.305271 
L 179.136 119.313332 
L 188.064 119.857257 
L 196.992 120.914033 
L 205.92 121.066264 
L 214.848 121.412418 
L 223.776 122.537203 
L 232.704 123.553413 
L 241.632 124.100568 
L 250.56 124.601945 
L 259.488 124.932697 
L 268.416 125.250279 
L 277.344 126.050945 
L 286.272 126.794737 
L 295.2 127.692896 
L 304.128 128.484011 
L 313.056 129.43117 
L 321.984 129.915824 
L 330.912 130.305035 
L 339.84 130.654672 
L 348.768 130.300888 
L 357.696 129.796746 
L 366.624 129.757556 
L 375.552 129.806901 
L 384.48 129.604159 
L 393.408 130.404081 
L 402.336 131.434505 
L 411.264 131.384852 
L 420.192 131.186203 
L 429.12 130.987769 
L 438.048 130.797939 
L 446.976 130.764942 
L 455.904 130.923532 
L 464.832 130.754053 
L 473.76 131.243469 
L 482.688 131.655314 
L 491.616 131.50457 
L 500.544 131.941072 
L 509.472 132.120986 
L 518.4 132.305167 
L 518.4 146.071323 
L 518.4 146.071323 
L 509.472 145.941456 
L 500.544 145.821561 
L 491.616 145.234629 
L 482.688 145.028262 
L 473.76 144.445416 
L 464.832 143.655729 
L 455.904 143.422639 
L 446.976 142.871591 
L 438.048 142.475197 
L 429.12 142.212687 
L 420.192 141.937224 
L 411.264 141.66018 
L 402.336 141.208873 
L 393.408 140.331129 
L 384.48 138.933846 
L 375.552 138.645452 
L 366.624 137.690702 
L 357.696 137.271617 
L 348.768 136.133289 
L 339.84 135.258535 
L 330.912 134.529831 
L 321.984 134.185027 
L 313.056 133.950337 
L 304.128 133.598655 
L 295.2 132.808522 
L 286.272 132.441383 
L 277.344 132.377283 
L 268.416 132.143036 
L 259.488 132.346636 
L 250.56 132.280403 
L 241.632 132.365377 
L 232.704 132.24032 
L 223.776 131.606468 
L 214.848 130.372429 
L 205.92 129.539968 
L 196.992 129.109081 
L 188.064 128.412587 
L 179.136 127.794208 
L 170.208 126.452122 
L 161.28 126.052066 
L 152.352 125.468064 
L 143.424 124.738949 
L 134.496 123.580256 
L 125.568 122.366474 
L 116.64 121.888711 
L 107.712 120.49961 
L 98.784 119.444163 
L 89.856 118.394642 
L 80.928 117.434676 
L 72 111.061696 
z
" style="fill:#2ca02c;fill-opacity:0.3;"/>
   </g>
   <g id="PolyCollection_4">
    <path clip-path="url(#pdd6df689fc)" d="M 72 106.772716 
L 72 100.261812 
L 80.928 105.030813 
L 89.856 107.961483 
L 98.784 111.663216 
L 107.712 112.517417 
L 116.64 113.971911 
L 125.568 114.057286 
L 134.496 116.094687 
L 143.424 118.456741 
L 152.352 117.801844 
L 161.28 119.391296 
L 170.208 119.342756 
L 179.136 120.07128 
L 188.064 119.27694 
L 196.992 119.640778 
L 205.92 112.24702 
L 214.848 107.245321 
L 223.776 112.035656 
L 232.704 112.621206 
L 241.632 121.364099 
L 250.56 121.573646 
L 259.488 121.791343 
L 268.416 121.819663 
L 277.344 121.980187 
L 286.272 124.157557 
L 295.2 124.339205 
L 304.128 122.388618 
L 313.056 120.810307 
L 321.984 117.939841 
L 330.912 119.60645 
L 339.84 119.739473 
L 348.768 119.928574 
L 357.696 118.491871 
L 366.624 111.24555 
L 375.552 111.355965 
L 384.48 111.397495 
L 393.408 107.482978 
L 402.336 104.887678 
L 411.264 101.117362 
L 420.192 100.442848 
L 429.12 97.392461 
L 438.048 95.406133 
L 446.976 95.363625 
L 455.904 95.784478 
L 464.832 95.318878 
L 473.76 95.738286 
L 482.688 95.282459 
L 491.616 94.477064 
L 500.544 94.837573 
L 509.472 95.268772 
L 518.4 95.280158 
L 518.4 128.04053 
L 518.4 128.04053 
L 509.472 128.034015 
L 500.544 126.98359 
L 491.616 125.756525 
L 482.688 127.756767 
L 473.76 128.669134 
L 464.832 127.377618 
L 455.904 128.142552 
L 446.976 126.952523 
L 438.048 126.636414 
L 429.12 129.657442 
L 420.192 132.948091 
L 411.264 133.531578 
L 402.336 135.799794 
L 393.408 137.004551 
L 384.48 138.013815 
L 375.552 137.918906 
L 366.624 137.553973 
L 357.696 137.539614 
L 348.768 137.120692 
L 339.84 136.812255 
L 330.912 136.58036 
L 321.984 136.541938 
L 313.056 135.655056 
L 304.128 134.732893 
L 295.2 133.650223 
L 286.272 133.49426 
L 277.344 134.315083 
L 268.416 134.155314 
L 259.488 134.097096 
L 250.56 133.784165 
L 241.632 133.578585 
L 232.704 133.715998 
L 223.776 132.299854 
L 214.848 130.467175 
L 205.92 130.340806 
L 196.992 127.181485 
L 188.064 126.862544 
L 179.136 125.260382 
L 170.208 124.77041 
L 161.28 124.498738 
L 152.352 125.442812 
L 143.424 123.900207 
L 134.496 122.607546 
L 125.568 120.582938 
L 116.64 118.416345 
L 107.712 117.421009 
L 98.784 117.583645 
L 89.856 113.865609 
L 80.928 112.01368 
L 72 106.772716 
z
" style="fill:#d62728;fill-opacity:0.3;"/>
   </g>
   <g id="PolyCollection_5">
    <path clip-path="url(#pdd6df689fc)" d="M 72 106.369115 
L 72 99.571163 
L 80.928 105.034512 
L 89.856 105.262313 
L 98.784 109.089087 
L 107.712 109.060906 
L 116.64 109.772057 
L 125.568 105.161193 
L 134.496 101.393313 
L 143.424 102.670928 
L 152.352 104.106374 
L 161.28 110.441169 
L 170.208 115.585644 
L 179.136 109.060958 
L 188.064 108.455051 
L 196.992 106.324072 
L 205.92 103.186069 
L 214.848 102.647663 
L 223.776 97.431008 
L 232.704 95.083417 
L 241.632 94.591618 
L 250.56 94.702284 
L 259.488 94.571206 
L 268.416 94.165195 
L 277.344 94.453177 
L 286.272 93.852975 
L 295.2 94.268362 
L 304.128 94.414116 
L 313.056 94.42679 
L 321.984 94.486539 
L 330.912 94.362062 
L 339.84 94.358854 
L 348.768 94.318543 
L 357.696 94.450065 
L 366.624 94.450151 
L 375.552 94.203369 
L 384.48 94.264877 
L 393.408 94.099108 
L 402.336 94.100377 
L 411.264 94.299157 
L 420.192 94.234747 
L 429.12 94.15929 
L 438.048 94.692664 
L 446.976 94.246953 
L 455.904 94.285692 
L 464.832 94.288522 
L 473.76 94.19673 
L 482.688 94.197417 
L 491.616 94.358047 
L 500.544 94.269726 
L 509.472 95.51745 
L 518.4 96.605128 
L 518.4 104.342974 
L 518.4 104.342974 
L 509.472 106.556414 
L 500.544 111.155641 
L 491.616 110.933402 
L 482.688 112.191774 
L 473.76 113.189616 
L 464.832 111.92955 
L 455.904 115.182207 
L 446.976 114.056772 
L 438.048 118.084965 
L 429.12 114.004313 
L 420.192 114.952861 
L 411.264 116.006727 
L 402.336 114.15347 
L 393.408 114.123661 
L 384.48 111.591091 
L 375.552 113.875898 
L 366.624 110.309284 
L 357.696 111.171723 
L 348.768 112.403021 
L 339.84 113.315561 
L 330.912 112.226871 
L 321.984 110.96 
L 313.056 110.158655 
L 304.128 110.152164 
L 295.2 111.331369 
L 286.272 112.387929 
L 277.344 109.983003 
L 268.416 112.683076 
L 259.488 113.50472 
L 250.56 114.263071 
L 241.632 109.581369 
L 232.704 115.456897 
L 223.776 120.555134 
L 214.848 125.177628 
L 205.92 126.028042 
L 196.992 126.649631 
L 188.064 126.921637 
L 179.136 126.550836 
L 170.208 124.941214 
L 161.28 125.74144 
L 152.352 124.016931 
L 143.424 122.428322 
L 134.496 119.80771 
L 125.568 119.669398 
L 116.64 118.422166 
L 107.712 117.264383 
L 98.784 116.893498 
L 89.856 112.84618 
L 80.928 111.51921 
L 72 106.369115 
z
" style="fill:#9467bd;fill-opacity:0.3;"/>
   </g>
   <g id="PolyCollection_6">
    <path clip-path="url(#pdd6df689fc)" d="M 72 106.315347 
L 72 100.159643 
L 80.928 103.587465 
L 89.856 107.214004 
L 98.784 111.707679 
L 107.712 111.681099 
L 116.64 112.454754 
L 125.568 114.56858 
L 134.496 117.404073 
L 143.424 118.388548 
L 152.352 119.065132 
L 161.28 119.183645 
L 170.208 119.383523 
L 179.136 119.451422 
L 188.064 120.417546 
L 196.992 120.969205 
L 205.92 123.579182 
L 214.848 125.503474 
L 223.776 125.443482 
L 232.704 125.395809 
L 241.632 125.486321 
L 250.56 125.932731 
L 259.488 126.015966 
L 268.416 126.181183 
L 277.344 126.127839 
L 286.272 126.075118 
L 295.2 126.233756 
L 304.128 126.724233 
L 313.056 127.790212 
L 321.984 128.028891 
L 330.912 128.554574 
L 339.84 128.699896 
L 348.768 128.869745 
L 357.696 129.728976 
L 366.624 130.486121 
L 375.552 131.742287 
L 384.48 131.924368 
L 393.408 132.083385 
L 402.336 132.455399 
L 411.264 132.515703 
L 420.192 132.505838 
L 429.12 132.780987 
L 438.048 132.719703 
L 446.976 132.915896 
L 455.904 133.817267 
L 464.832 134.031445 
L 473.76 134.004385 
L 482.688 134.364534 
L 491.616 134.347504 
L 500.544 134.331257 
L 509.472 134.315807 
L 518.4 134.297272 
L 518.4 138.721075 
L 518.4 138.721075 
L 509.472 138.739312 
L 500.544 138.745868 
L 491.616 138.757585 
L 482.688 138.768696 
L 473.76 138.546942 
L 464.832 138.562126 
L 455.904 138.471259 
L 446.976 138.498021 
L 438.048 138.40843 
L 429.12 138.423116 
L 420.192 138.245558 
L 411.264 138.25405 
L 402.336 138.270732 
L 393.408 138.056417 
L 384.48 137.903157 
L 375.552 137.787599 
L 366.624 137.163975 
L 357.696 136.227752 
L 348.768 134.616375 
L 339.84 134.068894 
L 330.912 133.244808 
L 321.984 132.523945 
L 313.056 132.374495 
L 304.128 131.660331 
L 295.2 131.193798 
L 286.272 131.071654 
L 277.344 131.051944 
L 268.416 131.024635 
L 259.488 130.922092 
L 250.56 130.774947 
L 241.632 130.622199 
L 232.704 130.442566 
L 223.776 130.198493 
L 214.848 130.187883 
L 205.92 129.13934 
L 196.992 126.326202 
L 188.064 125.005246 
L 179.136 123.547305 
L 170.208 123.543626 
L 161.28 123.481178 
L 152.352 123.360098 
L 143.424 123.114084 
L 134.496 122.985645 
L 125.568 120.768265 
L 116.64 117.282202 
L 107.712 117.060499 
L 98.784 116.808995 
L 89.856 114.809499 
L 80.928 109.894774 
L 72 106.315347 
z
" style="fill:#8c564b;fill-opacity:0.3;"/>
   </g>
   <g id="PolyCollection_7">
    <path clip-path="url(#pdd6df689fc)" d="M 72 110.728492 
L 72 106.669982 
L 80.928 106.79645 
L 89.856 107.004367 
L 98.784 107.520804 
L 107.712 107.703053 
L 116.64 107.880573 
L 125.568 108.194195 
L 134.496 108.325289 
L 143.424 108.571196 
L 152.352 109.249424 
L 161.28 109.421216 
L 170.208 109.492221 
L 179.136 109.575667 
L 188.064 109.793432 
L 196.992 109.963563 
L 205.92 110.043615 
L 214.848 110.480266 
L 223.776 110.536133 
L 232.704 110.59765 
L 241.632 110.518926 
L 250.56 110.548591 
L 259.488 110.601567 
L 268.416 110.60215 
L 277.344 110.764321 
L 286.272 110.793626 
L 295.2 110.812359 
L 304.128 110.823346 
L 313.056 110.88529 
L 321.984 110.899767 
L 330.912 110.990346 
L 339.84 111.012103 
L 348.768 111.061844 
L 357.696 111.150622 
L 366.624 111.166388 
L 375.552 111.192524 
L 384.48 111.231282 
L 393.408 111.231039 
L 402.336 111.243402 
L 411.264 111.24171 
L 420.192 111.259835 
L 429.12 111.217696 
L 438.048 111.249467 
L 446.976 111.245666 
L 455.904 111.245958 
L 464.832 111.250179 
L 473.76 111.247913 
L 482.688 111.262466 
L 491.616 111.270934 
L 500.544 111.2686 
L 509.472 111.2716 
L 518.4 111.256911 
L 518.4 111.901066 
L 518.4 111.901066 
L 509.472 111.921821 
L 500.544 111.915977 
L 491.616 111.909167 
L 482.688 111.904496 
L 473.76 111.913999 
L 464.832 111.911857 
L 455.904 111.91466 
L 446.976 111.921056 
L 438.048 111.906785 
L 429.12 111.91334 
L 420.192 111.916192 
L 411.264 111.895072 
L 402.336 111.913229 
L 393.408 111.915226 
L 384.48 111.92458 
L 375.552 111.92982 
L 366.624 111.955835 
L 357.696 111.926384 
L 348.768 111.925248 
L 339.84 111.954816 
L 330.912 111.958212 
L 321.984 111.992165 
L 313.056 112.001292 
L 304.128 112.036254 
L 295.2 112.020509 
L 286.272 112.001597 
L 277.344 111.991833 
L 268.416 112.028783 
L 259.488 111.997478 
L 250.56 111.995084 
L 241.632 112.024196 
L 232.704 111.97736 
L 223.776 111.973618 
L 214.848 111.945907 
L 205.92 112.18033 
L 196.992 112.050536 
L 188.064 112.119759 
L 179.136 112.102099 
L 170.208 112.059852 
L 161.28 111.962314 
L 152.352 111.897552 
L 143.424 112.186657 
L 134.496 112.112576 
L 125.568 111.967488 
L 116.64 111.842189 
L 107.712 111.72143 
L 98.784 111.425404 
L 89.856 111.179779 
L 80.928 110.900433 
L 72 110.728492 
z
" style="fill:#e377c2;fill-opacity:0.3;"/>
   </g>
   <g id="matplotlib.axis_1">
    <g id="xtick_1">
     <g id="line2d_1">
      <path clip-path="url(#pdd6df689fc)" d="M 72 384.48 
L 72 51.84 
" style="fill:none;stroke:#b0b0b0;stroke-linecap:square;stroke-width:0.8;"/>
     </g>
     <g id="line2d_2">
      <defs>
       <path d="M 0 0 
L 0 3.5 
" id="m1d3a104a9f" style="stroke:#000000;stroke-width:0.8;"/>
      </defs>
      <g>
       <use style="stroke:#000000;stroke-width:0.8;" x="72" xlink:href="#m1d3a104a9f" y="384.48"/>
      </g>
     </g>
     <g id="text_1">
      <!-- 0 -->
      <defs>
       <path d="M 31.78125 66.40625 
Q 24.171875 66.40625 20.328125 58.90625 
Q 16.5 51.421875 16.5 36.375 
Q 16.5 21.390625 20.328125 13.890625 
Q 24.171875 6.390625 31.78125 6.390625 
Q 39.453125 6.390625 43.28125 13.890625 
Q 47.125 21.390625 47.125 36.375 
Q 47.125 51.421875 43.28125 58.90625 
Q 39.453125 66.40625 31.78125 66.40625 
z
M 31.78125 74.21875 
Q 44.046875 74.21875 50.515625 64.515625 
Q 56.984375 54.828125 56.984375 36.375 
Q 56.984375 17.96875 50.515625 8.265625 
Q 44.046875 -1.421875 31.78125 -1.421875 
Q 19.53125 -1.421875 13.0625 8.265625 
Q 6.59375 17.96875 6.59375 36.375 
Q 6.59375 54.828125 13.0625 64.515625 
Q 19.53125 74.21875 31.78125 74.21875 
z
" id="DejaVuSans-48"/>
      </defs>
      <g transform="translate(68.81875 399.078438)scale(0.1 -0.1)">
       <use xlink:href="#DejaVuSans-48"/>
      </g>
     </g>
    </g>
    <g id="xtick_2">
     <g id="line2d_3">
      <path clip-path="url(#pdd6df689fc)" d="M 161.28 384.48 
L 161.28 51.84 
" style="fill:none;stroke:#b0b0b0;stroke-linecap:square;stroke-width:0.8;"/>
     </g>
     <g id="line2d_4">
      <g>
       <use style="stroke:#000000;stroke-width:0.8;" x="161.28" xlink:href="#m1d3a104a9f" y="384.48"/>
      </g>
     </g>
     <g id="text_2">
      <!-- 10 -->
      <defs>
       <path d="M 12.40625 8.296875 
L 28.515625 8.296875 
L 28.515625 63.921875 
L 10.984375 60.40625 
L 10.984375 69.390625 
L 28.421875 72.90625 
L 38.28125 72.90625 
L 38.28125 8.296875 
L 54.390625 8.296875 
L 54.390625 0 
L 12.40625 0 
z
" id="DejaVuSans-49"/>
      </defs>
      <g transform="translate(154.9175 399.078438)scale(0.1 -0.1)">
       <use xlink:href="#DejaVuSans-49"/>
       <use x="63.623047" xlink:href="#DejaVuSans-48"/>
      </g>
     </g>
    </g>
    <g id="xtick_3">
     <g id="line2d_5">
      <path clip-path="url(#pdd6df689fc)" d="M 250.56 384.48 
L 250.56 51.84 
" style="fill:none;stroke:#b0b0b0;stroke-linecap:square;stroke-width:0.8;"/>
     </g>
     <g id="line2d_6">
      <g>
       <use style="stroke:#000000;stroke-width:0.8;" x="250.56" xlink:href="#m1d3a104a9f" y="384.48"/>
      </g>
     </g>
     <g id="text_3">
      <!-- 20 -->
      <defs>
       <path d="M 19.1875 8.296875 
L 53.609375 8.296875 
L 53.609375 0 
L 7.328125 0 
L 7.328125 8.296875 
Q 12.9375 14.109375 22.625 23.890625 
Q 32.328125 33.6875 34.8125 36.53125 
Q 39.546875 41.84375 41.421875 45.53125 
Q 43.3125 49.21875 43.3125 52.78125 
Q 43.3125 58.59375 39.234375 62.25 
Q 35.15625 65.921875 28.609375 65.921875 
Q 23.96875 65.921875 18.8125 64.3125 
Q 13.671875 62.703125 7.8125 59.421875 
L 7.8125 69.390625 
Q 13.765625 71.78125 18.9375 73 
Q 24.125 74.21875 28.421875 74.21875 
Q 39.75 74.21875 46.484375 68.546875 
Q 53.21875 62.890625 53.21875 53.421875 
Q 53.21875 48.921875 51.53125 44.890625 
Q 49.859375 40.875 45.40625 35.40625 
Q 44.1875 33.984375 37.640625 27.21875 
Q 31.109375 20.453125 19.1875 8.296875 
z
" id="DejaVuSans-50"/>
      </defs>
      <g transform="translate(244.1975 399.078438)scale(0.1 -0.1)">
       <use xlink:href="#DejaVuSans-50"/>
       <use x="63.623047" xlink:href="#DejaVuSans-48"/>
      </g>
     </g>
    </g>
    <g id="xtick_4">
     <g id="line2d_7">
      <path clip-path="url(#pdd6df689fc)" d="M 339.84 384.48 
L 339.84 51.84 
" style="fill:none;stroke:#b0b0b0;stroke-linecap:square;stroke-width:0.8;"/>
     </g>
     <g id="line2d_8">
      <g>
       <use style="stroke:#000000;stroke-width:0.8;" x="339.84" xlink:href="#m1d3a104a9f" y="384.48"/>
      </g>
     </g>
     <g id="text_4">
      <!-- 30 -->
      <defs>
       <path d="M 40.578125 39.3125 
Q 47.65625 37.796875 51.625 33 
Q 55.609375 28.21875 55.609375 21.1875 
Q 55.609375 10.40625 48.1875 4.484375 
Q 40.765625 -1.421875 27.09375 -1.421875 
Q 22.515625 -1.421875 17.65625 -0.515625 
Q 12.796875 0.390625 7.625 2.203125 
L 7.625 11.71875 
Q 11.71875 9.328125 16.59375 8.109375 
Q 21.484375 6.890625 26.8125 6.890625 
Q 36.078125 6.890625 40.9375 10.546875 
Q 45.796875 14.203125 45.796875 21.1875 
Q 45.796875 27.640625 41.28125 31.265625 
Q 36.765625 34.90625 28.71875 34.90625 
L 20.21875 34.90625 
L 20.21875 43.015625 
L 29.109375 43.015625 
Q 36.375 43.015625 40.234375 45.921875 
Q 44.09375 48.828125 44.09375 54.296875 
Q 44.09375 59.90625 40.109375 62.90625 
Q 36.140625 65.921875 28.71875 65.921875 
Q 24.65625 65.921875 20.015625 65.03125 
Q 15.375 64.15625 9.8125 62.3125 
L 9.8125 71.09375 
Q 15.4375 72.65625 20.34375 73.4375 
Q 25.25 74.21875 29.59375 74.21875 
Q 40.828125 74.21875 47.359375 69.109375 
Q 53.90625 64.015625 53.90625 55.328125 
Q 53.90625 49.265625 50.4375 45.09375 
Q 46.96875 40.921875 40.578125 39.3125 
z
" id="DejaVuSans-51"/>
      </defs>
      <g transform="translate(333.4775 399.078438)scale(0.1 -0.1)">
       <use xlink:href="#DejaVuSans-51"/>
       <use x="63.623047" xlink:href="#DejaVuSans-48"/>
      </g>
     </g>
    </g>
    <g id="xtick_5">
     <g id="line2d_9">
      <path clip-path="url(#pdd6df689fc)" d="M 429.12 384.48 
L 429.12 51.84 
" style="fill:none;stroke:#b0b0b0;stroke-linecap:square;stroke-width:0.8;"/>
     </g>
     <g id="line2d_10">
      <g>
       <use style="stroke:#000000;stroke-width:0.8;" x="429.12" xlink:href="#m1d3a104a9f" y="384.48"/>
      </g>
     </g>
     <g id="text_5">
      <!-- 40 -->
      <defs>
       <path d="M 37.796875 64.3125 
L 12.890625 25.390625 
L 37.796875 25.390625 
z
M 35.203125 72.90625 
L 47.609375 72.90625 
L 47.609375 25.390625 
L 58.015625 25.390625 
L 58.015625 17.1875 
L 47.609375 17.1875 
L 47.609375 0 
L 37.796875 0 
L 37.796875 17.1875 
L 4.890625 17.1875 
L 4.890625 26.703125 
z
" id="DejaVuSans-52"/>
      </defs>
      <g transform="translate(422.7575 399.078438)scale(0.1 -0.1)">
       <use xlink:href="#DejaVuSans-52"/>
       <use x="63.623047" xlink:href="#DejaVuSans-48"/>
      </g>
     </g>
    </g>
    <g id="xtick_6">
     <g id="line2d_11">
      <path clip-path="url(#pdd6df689fc)" d="M 518.4 384.48 
L 518.4 51.84 
" style="fill:none;stroke:#b0b0b0;stroke-linecap:square;stroke-width:0.8;"/>
     </g>
     <g id="line2d_12">
      <g>
       <use style="stroke:#000000;stroke-width:0.8;" x="518.4" xlink:href="#m1d3a104a9f" y="384.48"/>
      </g>
     </g>
     <g id="text_6">
      <!-- 50 -->
      <defs>
       <path d="M 10.796875 72.90625 
L 49.515625 72.90625 
L 49.515625 64.59375 
L 19.828125 64.59375 
L 19.828125 46.734375 
Q 21.96875 47.46875 24.109375 47.828125 
Q 26.265625 48.1875 28.421875 48.1875 
Q 40.625 48.1875 47.75 41.5 
Q 54.890625 34.8125 54.890625 23.390625 
Q 54.890625 11.625 47.5625 5.09375 
Q 40.234375 -1.421875 26.90625 -1.421875 
Q 22.3125 -1.421875 17.546875 -0.640625 
Q 12.796875 0.140625 7.71875 1.703125 
L 7.71875 11.625 
Q 12.109375 9.234375 16.796875 8.0625 
Q 21.484375 6.890625 26.703125 6.890625 
Q 35.15625 6.890625 40.078125 11.328125 
Q 45.015625 15.765625 45.015625 23.390625 
Q 45.015625 31 40.078125 35.4375 
Q 35.15625 39.890625 26.703125 39.890625 
Q 22.75 39.890625 18.8125 39.015625 
Q 14.890625 38.140625 10.796875 36.28125 
z
" id="DejaVuSans-53"/>
      </defs>
      <g transform="translate(512.0375 399.078438)scale(0.1 -0.1)">
       <use xlink:href="#DejaVuSans-53"/>
       <use x="63.623047" xlink:href="#DejaVuSans-48"/>
      </g>
     </g>
    </g>
    <g id="text_7">
     <!-- Iteration -->
     <defs>
      <path d="M 9.8125 72.90625 
L 19.671875 72.90625 
L 19.671875 0 
L 9.8125 0 
z
" id="DejaVuSans-73"/>
      <path d="M 18.3125 70.21875 
L 18.3125 54.6875 
L 36.8125 54.6875 
L 36.8125 47.703125 
L 18.3125 47.703125 
L 18.3125 18.015625 
Q 18.3125 11.328125 20.140625 9.421875 
Q 21.96875 7.515625 27.59375 7.515625 
L 36.8125 7.515625 
L 36.8125 0 
L 27.59375 0 
Q 17.1875 0 13.234375 3.875 
Q 9.28125 7.765625 9.28125 18.015625 
L 9.28125 47.703125 
L 2.6875 47.703125 
L 2.6875 54.6875 
L 9.28125 54.6875 
L 9.28125 70.21875 
z
" id="DejaVuSans-116"/>
      <path d="M 56.203125 29.59375 
L 56.203125 25.203125 
L 14.890625 25.203125 
Q 15.484375 15.921875 20.484375 11.0625 
Q 25.484375 6.203125 34.421875 6.203125 
Q 39.59375 6.203125 44.453125 7.46875 
Q 49.3125 8.734375 54.109375 11.28125 
L 54.109375 2.78125 
Q 49.265625 0.734375 44.1875 -0.34375 
Q 39.109375 -1.421875 33.890625 -1.421875 
Q 20.796875 -1.421875 13.15625 6.1875 
Q 5.515625 13.8125 5.515625 26.8125 
Q 5.515625 40.234375 12.765625 48.109375 
Q 20.015625 56 32.328125 56 
Q 43.359375 56 49.78125 48.890625 
Q 56.203125 41.796875 56.203125 29.59375 
z
M 47.21875 32.234375 
Q 47.125 39.59375 43.09375 43.984375 
Q 39.0625 48.390625 32.421875 48.390625 
Q 24.90625 48.390625 20.390625 44.140625 
Q 15.875 39.890625 15.1875 32.171875 
z
" id="DejaVuSans-101"/>
      <path d="M 41.109375 46.296875 
Q 39.59375 47.171875 37.8125 47.578125 
Q 36.03125 48 33.890625 48 
Q 26.265625 48 22.1875 43.046875 
Q 18.109375 38.09375 18.109375 28.8125 
L 18.109375 0 
L 9.078125 0 
L 9.078125 54.6875 
L 18.109375 54.6875 
L 18.109375 46.1875 
Q 20.953125 51.171875 25.484375 53.578125 
Q 30.03125 56 36.53125 56 
Q 37.453125 56 38.578125 55.875 
Q 39.703125 55.765625 41.0625 55.515625 
z
" id="DejaVuSans-114"/>
      <path d="M 34.28125 27.484375 
Q 23.390625 27.484375 19.1875 25 
Q 14.984375 22.515625 14.984375 16.5 
Q 14.984375 11.71875 18.140625 8.90625 
Q 21.296875 6.109375 26.703125 6.109375 
Q 34.1875 6.109375 38.703125 11.40625 
Q 43.21875 16.703125 43.21875 25.484375 
L 43.21875 27.484375 
z
M 52.203125 31.203125 
L 52.203125 0 
L 43.21875 0 
L 43.21875 8.296875 
Q 40.140625 3.328125 35.546875 0.953125 
Q 30.953125 -1.421875 24.3125 -1.421875 
Q 15.921875 -1.421875 10.953125 3.296875 
Q 6 8.015625 6 15.921875 
Q 6 25.140625 12.171875 29.828125 
Q 18.359375 34.515625 30.609375 34.515625 
L 43.21875 34.515625 
L 43.21875 35.40625 
Q 43.21875 41.609375 39.140625 45 
Q 35.0625 48.390625 27.6875 48.390625 
Q 23 48.390625 18.546875 47.265625 
Q 14.109375 46.140625 10.015625 43.890625 
L 10.015625 52.203125 
Q 14.9375 54.109375 19.578125 55.046875 
Q 24.21875 56 28.609375 56 
Q 40.484375 56 46.34375 49.84375 
Q 52.203125 43.703125 52.203125 31.203125 
z
" id="DejaVuSans-97"/>
      <path d="M 9.421875 54.6875 
L 18.40625 54.6875 
L 18.40625 0 
L 9.421875 0 
z
M 9.421875 75.984375 
L 18.40625 75.984375 
L 18.40625 64.59375 
L 9.421875 64.59375 
z
" id="DejaVuSans-105"/>
      <path d="M 30.609375 48.390625 
Q 23.390625 48.390625 19.1875 42.75 
Q 14.984375 37.109375 14.984375 27.296875 
Q 14.984375 17.484375 19.15625 11.84375 
Q 23.34375 6.203125 30.609375 6.203125 
Q 37.796875 6.203125 41.984375 11.859375 
Q 46.1875 17.53125 46.1875 27.296875 
Q 46.1875 37.015625 41.984375 42.703125 
Q 37.796875 48.390625 30.609375 48.390625 
z
M 30.609375 56 
Q 42.328125 56 49.015625 48.375 
Q 55.71875 40.765625 55.71875 27.296875 
Q 55.71875 13.875 49.015625 6.21875 
Q 42.328125 -1.421875 30.609375 -1.421875 
Q 18.84375 -1.421875 12.171875 6.21875 
Q 5.515625 13.875 5.515625 27.296875 
Q 5.515625 40.765625 12.171875 48.375 
Q 18.84375 56 30.609375 56 
z
" id="DejaVuSans-111"/>
      <path d="M 54.890625 33.015625 
L 54.890625 0 
L 45.90625 0 
L 45.90625 32.71875 
Q 45.90625 40.484375 42.875 44.328125 
Q 39.84375 48.1875 33.796875 48.1875 
Q 26.515625 48.1875 22.3125 43.546875 
Q 18.109375 38.921875 18.109375 30.90625 
L 18.109375 0 
L 9.078125 0 
L 9.078125 54.6875 
L 18.109375 54.6875 
L 18.109375 46.1875 
Q 21.34375 51.125 25.703125 53.5625 
Q 30.078125 56 35.796875 56 
Q 45.21875 56 50.046875 50.171875 
Q 54.890625 44.34375 54.890625 33.015625 
z
" id="DejaVuSans-110"/>
     </defs>
     <g transform="translate(273.991406 412.756563)scale(0.1 -0.1)">
      <use xlink:href="#DejaVuSans-73"/>
      <use x="29.492188" xlink:href="#DejaVuSans-116"/>
      <use x="68.701172" xlink:href="#DejaVuSans-101"/>
      <use x="130.224609" xlink:href="#DejaVuSans-114"/>
      <use x="171.337891" xlink:href="#DejaVuSans-97"/>
      <use x="232.617188" xlink:href="#DejaVuSans-116"/>
      <use x="271.826172" xlink:href="#DejaVuSans-105"/>
      <use x="299.609375" xlink:href="#DejaVuSans-111"/>
      <use x="360.791016" xlink:href="#DejaVuSans-110"/>
     </g>
    </g>
   </g>
   <g id="matplotlib.axis_2">
    <g id="ytick_1">
     <g id="line2d_13">
      <path clip-path="url(#pdd6df689fc)" d="M 72 384.48 
L 518.4 384.48 
" style="fill:none;stroke:#b0b0b0;stroke-linecap:square;stroke-width:0.8;"/>
     </g>
     <g id="line2d_14">
      <defs>
       <path d="M 0 0 
L -3.5 0 
" id="mef9b04198b" style="stroke:#000000;stroke-width:0.8;"/>
      </defs>
      <g>
       <use style="stroke:#000000;stroke-width:0.8;" x="72" xlink:href="#mef9b04198b" y="384.48"/>
      </g>
     </g>
     <g id="text_8">
      <!-- $\mathdefault{10^{-12}}$ -->
      <defs>
       <path d="M 10.59375 35.5 
L 73.1875 35.5 
L 73.1875 27.203125 
L 10.59375 27.203125 
z
" id="DejaVuSans-8722"/>
      </defs>
      <g transform="translate(37.1 388.279219)scale(0.1 -0.1)">
       <use transform="translate(0 0.765625)" xlink:href="#DejaVuSans-49"/>
       <use transform="translate(63.623047 0.765625)" xlink:href="#DejaVuSans-48"/>
       <use transform="translate(128.203125 39.046875)scale(0.7)" xlink:href="#DejaVuSans-8722"/>
       <use transform="translate(186.855469 39.046875)scale(0.7)" xlink:href="#DejaVuSans-49"/>
       <use transform="translate(231.391602 39.046875)scale(0.7)" xlink:href="#DejaVuSans-50"/>
      </g>
     </g>
    </g>
    <g id="ytick_2">
     <g id="line2d_15">
      <path clip-path="url(#pdd6df689fc)" d="M 72 336.96 
L 518.4 336.96 
" style="fill:none;stroke:#b0b0b0;stroke-linecap:square;stroke-width:0.8;"/>
     </g>
     <g id="line2d_16">
      <g>
       <use style="stroke:#000000;stroke-width:0.8;" x="72" xlink:href="#mef9b04198b" y="336.96"/>
      </g>
     </g>
     <g id="text_9">
      <!-- $\mathdefault{10^{-10}}$ -->
      <g transform="translate(37.1 340.759219)scale(0.1 -0.1)">
       <use transform="translate(0 0.765625)" xlink:href="#DejaVuSans-49"/>
       <use transform="translate(63.623047 0.765625)" xlink:href="#DejaVuSans-48"/>
       <use transform="translate(128.203125 39.046875)scale(0.7)" xlink:href="#DejaVuSans-8722"/>
       <use transform="translate(186.855469 39.046875)scale(0.7)" xlink:href="#DejaVuSans-49"/>
       <use transform="translate(231.391602 39.046875)scale(0.7)" xlink:href="#DejaVuSans-48"/>
      </g>
     </g>
    </g>
    <g id="ytick_3">
     <g id="line2d_17">
      <path clip-path="url(#pdd6df689fc)" d="M 72 289.44 
L 518.4 289.44 
" style="fill:none;stroke:#b0b0b0;stroke-linecap:square;stroke-width:0.8;"/>
     </g>
     <g id="line2d_18">
      <g>
       <use style="stroke:#000000;stroke-width:0.8;" x="72" xlink:href="#mef9b04198b" y="289.44"/>
      </g>
     </g>
     <g id="text_10">
      <!-- $\mathdefault{10^{-8}}$ -->
      <defs>
       <path d="M 31.78125 34.625 
Q 24.75 34.625 20.71875 30.859375 
Q 16.703125 27.09375 16.703125 20.515625 
Q 16.703125 13.921875 20.71875 10.15625 
Q 24.75 6.390625 31.78125 6.390625 
Q 38.8125 6.390625 42.859375 10.171875 
Q 46.921875 13.96875 46.921875 20.515625 
Q 46.921875 27.09375 42.890625 30.859375 
Q 38.875 34.625 31.78125 34.625 
z
M 21.921875 38.8125 
Q 15.578125 40.375 12.03125 44.71875 
Q 8.5 49.078125 8.5 55.328125 
Q 8.5 64.0625 14.71875 69.140625 
Q 20.953125 74.21875 31.78125 74.21875 
Q 42.671875 74.21875 48.875 69.140625 
Q 55.078125 64.0625 55.078125 55.328125 
Q 55.078125 49.078125 51.53125 44.71875 
Q 48 40.375 41.703125 38.8125 
Q 48.828125 37.15625 52.796875 32.3125 
Q 56.78125 27.484375 56.78125 20.515625 
Q 56.78125 9.90625 50.3125 4.234375 
Q 43.84375 -1.421875 31.78125 -1.421875 
Q 19.734375 -1.421875 13.25 4.234375 
Q 6.78125 9.90625 6.78125 20.515625 
Q 6.78125 27.484375 10.78125 32.3125 
Q 14.796875 37.15625 21.921875 38.8125 
z
M 18.3125 54.390625 
Q 18.3125 48.734375 21.84375 45.5625 
Q 25.390625 42.390625 31.78125 42.390625 
Q 38.140625 42.390625 41.71875 45.5625 
Q 45.3125 48.734375 45.3125 54.390625 
Q 45.3125 60.0625 41.71875 63.234375 
Q 38.140625 66.40625 31.78125 66.40625 
Q 25.390625 66.40625 21.84375 63.234375 
Q 18.3125 60.0625 18.3125 54.390625 
z
" id="DejaVuSans-56"/>
      </defs>
      <g transform="translate(41.5 293.239219)scale(0.1 -0.1)">
       <use transform="translate(0 0.765625)" xlink:href="#DejaVuSans-49"/>
       <use transform="translate(63.623047 0.765625)" xlink:href="#DejaVuSans-48"/>
       <use transform="translate(128.203125 39.046875)scale(0.7)" xlink:href="#DejaVuSans-8722"/>
       <use transform="translate(186.855469 39.046875)scale(0.7)" xlink:href="#DejaVuSans-56"/>
      </g>
     </g>
    </g>
    <g id="ytick_4">
     <g id="line2d_19">
      <path clip-path="url(#pdd6df689fc)" d="M 72 241.92 
L 518.4 241.92 
" style="fill:none;stroke:#b0b0b0;stroke-linecap:square;stroke-width:0.8;"/>
     </g>
     <g id="line2d_20">
      <g>
       <use style="stroke:#000000;stroke-width:0.8;" x="72" xlink:href="#mef9b04198b" y="241.92"/>
      </g>
     </g>
     <g id="text_11">
      <!-- $\mathdefault{10^{-6}}$ -->
      <defs>
       <path d="M 33.015625 40.375 
Q 26.375 40.375 22.484375 35.828125 
Q 18.609375 31.296875 18.609375 23.390625 
Q 18.609375 15.53125 22.484375 10.953125 
Q 26.375 6.390625 33.015625 6.390625 
Q 39.65625 6.390625 43.53125 10.953125 
Q 47.40625 15.53125 47.40625 23.390625 
Q 47.40625 31.296875 43.53125 35.828125 
Q 39.65625 40.375 33.015625 40.375 
z
M 52.59375 71.296875 
L 52.59375 62.3125 
Q 48.875 64.0625 45.09375 64.984375 
Q 41.3125 65.921875 37.59375 65.921875 
Q 27.828125 65.921875 22.671875 59.328125 
Q 17.53125 52.734375 16.796875 39.40625 
Q 19.671875 43.65625 24.015625 45.921875 
Q 28.375 48.1875 33.59375 48.1875 
Q 44.578125 48.1875 50.953125 41.515625 
Q 57.328125 34.859375 57.328125 23.390625 
Q 57.328125 12.15625 50.6875 5.359375 
Q 44.046875 -1.421875 33.015625 -1.421875 
Q 20.359375 -1.421875 13.671875 8.265625 
Q 6.984375 17.96875 6.984375 36.375 
Q 6.984375 53.65625 15.1875 63.9375 
Q 23.390625 74.21875 37.203125 74.21875 
Q 40.921875 74.21875 44.703125 73.484375 
Q 48.484375 72.75 52.59375 71.296875 
z
" id="DejaVuSans-54"/>
      </defs>
      <g transform="translate(41.5 245.719219)scale(0.1 -0.1)">
       <use transform="translate(0 0.765625)" xlink:href="#DejaVuSans-49"/>
       <use transform="translate(63.623047 0.765625)" xlink:href="#DejaVuSans-48"/>
       <use transform="translate(128.203125 39.046875)scale(0.7)" xlink:href="#DejaVuSans-8722"/>
       <use transform="translate(186.855469 39.046875)scale(0.7)" xlink:href="#DejaVuSans-54"/>
      </g>
     </g>
    </g>
    <g id="ytick_5">
     <g id="line2d_21">
      <path clip-path="url(#pdd6df689fc)" d="M 72 194.4 
L 518.4 194.4 
" style="fill:none;stroke:#b0b0b0;stroke-linecap:square;stroke-width:0.8;"/>
     </g>
     <g id="line2d_22">
      <g>
       <use style="stroke:#000000;stroke-width:0.8;" x="72" xlink:href="#mef9b04198b" y="194.4"/>
      </g>
     </g>
     <g id="text_12">
      <!-- $\mathdefault{10^{-4}}$ -->
      <g transform="translate(41.5 198.199219)scale(0.1 -0.1)">
       <use transform="translate(0 0.684375)" xlink:href="#DejaVuSans-49"/>
       <use transform="translate(63.623047 0.684375)" xlink:href="#DejaVuSans-48"/>
       <use transform="translate(128.203125 38.965625)scale(0.7)" xlink:href="#DejaVuSans-8722"/>
       <use transform="translate(186.855469 38.965625)scale(0.7)" xlink:href="#DejaVuSans-52"/>
      </g>
     </g>
    </g>
    <g id="ytick_6">
     <g id="line2d_23">
      <path clip-path="url(#pdd6df689fc)" d="M 72 146.88 
L 518.4 146.88 
" style="fill:none;stroke:#b0b0b0;stroke-linecap:square;stroke-width:0.8;"/>
     </g>
     <g id="line2d_24">
      <g>
       <use style="stroke:#000000;stroke-width:0.8;" x="72" xlink:href="#mef9b04198b" y="146.88"/>
      </g>
     </g>
     <g id="text_13">
      <!-- $\mathdefault{10^{-2}}$ -->
      <g transform="translate(41.5 150.679219)scale(0.1 -0.1)">
       <use transform="translate(0 0.765625)" xlink:href="#DejaVuSans-49"/>
       <use transform="translate(63.623047 0.765625)" xlink:href="#DejaVuSans-48"/>
       <use transform="translate(128.203125 39.046875)scale(0.7)" xlink:href="#DejaVuSans-8722"/>
       <use transform="translate(186.855469 39.046875)scale(0.7)" xlink:href="#DejaVuSans-50"/>
      </g>
     </g>
    </g>
    <g id="ytick_7">
     <g id="line2d_25">
      <path clip-path="url(#pdd6df689fc)" d="M 72 99.36 
L 518.4 99.36 
" style="fill:none;stroke:#b0b0b0;stroke-linecap:square;stroke-width:0.8;"/>
     </g>
     <g id="line2d_26">
      <g>
       <use style="stroke:#000000;stroke-width:0.8;" x="72" xlink:href="#mef9b04198b" y="99.36"/>
      </g>
     </g>
     <g id="text_14">
      <!-- $\mathdefault{10^{0}}$ -->
      <g transform="translate(47.4 103.159219)scale(0.1 -0.1)">
       <use transform="translate(0 0.765625)" xlink:href="#DejaVuSans-49"/>
       <use transform="translate(63.623047 0.765625)" xlink:href="#DejaVuSans-48"/>
       <use transform="translate(128.203125 39.046875)scale(0.7)" xlink:href="#DejaVuSans-48"/>
      </g>
     </g>
    </g>
    <g id="ytick_8">
     <g id="line2d_27">
      <path clip-path="url(#pdd6df689fc)" d="M 72 51.84 
L 518.4 51.84 
" style="fill:none;stroke:#b0b0b0;stroke-linecap:square;stroke-width:0.8;"/>
     </g>
     <g id="line2d_28">
      <g>
       <use style="stroke:#000000;stroke-width:0.8;" x="72" xlink:href="#mef9b04198b" y="51.84"/>
      </g>
     </g>
     <g id="text_15">
      <!-- $\mathdefault{10^{2}}$ -->
      <g transform="translate(47.4 55.639219)scale(0.1 -0.1)">
       <use transform="translate(0 0.765625)" xlink:href="#DejaVuSans-49"/>
       <use transform="translate(63.623047 0.765625)" xlink:href="#DejaVuSans-48"/>
       <use transform="translate(128.203125 39.046875)scale(0.7)" xlink:href="#DejaVuSans-50"/>
      </g>
     </g>
    </g>
    <g id="text_16">
     <!-- Integrated Squared Error -->
     <defs>
      <path d="M 45.40625 27.984375 
Q 45.40625 37.75 41.375 43.109375 
Q 37.359375 48.484375 30.078125 48.484375 
Q 22.859375 48.484375 18.828125 43.109375 
Q 14.796875 37.75 14.796875 27.984375 
Q 14.796875 18.265625 18.828125 12.890625 
Q 22.859375 7.515625 30.078125 7.515625 
Q 37.359375 7.515625 41.375 12.890625 
Q 45.40625 18.265625 45.40625 27.984375 
z
M 54.390625 6.78125 
Q 54.390625 -7.171875 48.1875 -13.984375 
Q 42 -20.796875 29.203125 -20.796875 
Q 24.46875 -20.796875 20.265625 -20.09375 
Q 16.0625 -19.390625 12.109375 -17.921875 
L 12.109375 -9.1875 
Q 16.0625 -11.328125 19.921875 -12.34375 
Q 23.78125 -13.375 27.78125 -13.375 
Q 36.625 -13.375 41.015625 -8.765625 
Q 45.40625 -4.15625 45.40625 5.171875 
L 45.40625 9.625 
Q 42.625 4.78125 38.28125 2.390625 
Q 33.9375 0 27.875 0 
Q 17.828125 0 11.671875 7.65625 
Q 5.515625 15.328125 5.515625 27.984375 
Q 5.515625 40.671875 11.671875 48.328125 
Q 17.828125 56 27.875 56 
Q 33.9375 56 38.28125 53.609375 
Q 42.625 51.21875 45.40625 46.390625 
L 45.40625 54.6875 
L 54.390625 54.6875 
z
" id="DejaVuSans-103"/>
      <path d="M 45.40625 46.390625 
L 45.40625 75.984375 
L 54.390625 75.984375 
L 54.390625 0 
L 45.40625 0 
L 45.40625 8.203125 
Q 42.578125 3.328125 38.25 0.953125 
Q 33.9375 -1.421875 27.875 -1.421875 
Q 17.96875 -1.421875 11.734375 6.484375 
Q 5.515625 14.40625 5.515625 27.296875 
Q 5.515625 40.1875 11.734375 48.09375 
Q 17.96875 56 27.875 56 
Q 33.9375 56 38.25 53.625 
Q 42.578125 51.265625 45.40625 46.390625 
z
M 14.796875 27.296875 
Q 14.796875 17.390625 18.875 11.75 
Q 22.953125 6.109375 30.078125 6.109375 
Q 37.203125 6.109375 41.296875 11.75 
Q 45.40625 17.390625 45.40625 27.296875 
Q 45.40625 37.203125 41.296875 42.84375 
Q 37.203125 48.484375 30.078125 48.484375 
Q 22.953125 48.484375 18.875 42.84375 
Q 14.796875 37.203125 14.796875 27.296875 
z
" id="DejaVuSans-100"/>
      <path id="DejaVuSans-32"/>
      <path d="M 53.515625 70.515625 
L 53.515625 60.890625 
Q 47.90625 63.578125 42.921875 64.890625 
Q 37.9375 66.21875 33.296875 66.21875 
Q 25.25 66.21875 20.875 63.09375 
Q 16.5 59.96875 16.5 54.203125 
Q 16.5 49.359375 19.40625 46.890625 
Q 22.3125 44.4375 30.421875 42.921875 
L 36.375 41.703125 
Q 47.40625 39.59375 52.65625 34.296875 
Q 57.90625 29 57.90625 20.125 
Q 57.90625 9.515625 50.796875 4.046875 
Q 43.703125 -1.421875 29.984375 -1.421875 
Q 24.8125 -1.421875 18.96875 -0.25 
Q 13.140625 0.921875 6.890625 3.21875 
L 6.890625 13.375 
Q 12.890625 10.015625 18.65625 8.296875 
Q 24.421875 6.59375 29.984375 6.59375 
Q 38.421875 6.59375 43.015625 9.90625 
Q 47.609375 13.234375 47.609375 19.390625 
Q 47.609375 24.75 44.3125 27.78125 
Q 41.015625 30.8125 33.5 32.328125 
L 27.484375 33.5 
Q 16.453125 35.6875 11.515625 40.375 
Q 6.59375 45.0625 6.59375 53.421875 
Q 6.59375 63.09375 13.40625 68.65625 
Q 20.21875 74.21875 32.171875 74.21875 
Q 37.3125 74.21875 42.625 73.28125 
Q 47.953125 72.359375 53.515625 70.515625 
z
" id="DejaVuSans-83"/>
      <path d="M 14.796875 27.296875 
Q 14.796875 17.390625 18.875 11.75 
Q 22.953125 6.109375 30.078125 6.109375 
Q 37.203125 6.109375 41.296875 11.75 
Q 45.40625 17.390625 45.40625 27.296875 
Q 45.40625 37.203125 41.296875 42.84375 
Q 37.203125 48.484375 30.078125 48.484375 
Q 22.953125 48.484375 18.875 42.84375 
Q 14.796875 37.203125 14.796875 27.296875 
z
M 45.40625 8.203125 
Q 42.578125 3.328125 38.25 0.953125 
Q 33.9375 -1.421875 27.875 -1.421875 
Q 17.96875 -1.421875 11.734375 6.484375 
Q 5.515625 14.40625 5.515625 27.296875 
Q 5.515625 40.1875 11.734375 48.09375 
Q 17.96875 56 27.875 56 
Q 33.9375 56 38.25 53.625 
Q 42.578125 51.265625 45.40625 46.390625 
L 45.40625 54.6875 
L 54.390625 54.6875 
L 54.390625 -20.796875 
L 45.40625 -20.796875 
z
" id="DejaVuSans-113"/>
      <path d="M 8.5 21.578125 
L 8.5 54.6875 
L 17.484375 54.6875 
L 17.484375 21.921875 
Q 17.484375 14.15625 20.5 10.265625 
Q 23.53125 6.390625 29.59375 6.390625 
Q 36.859375 6.390625 41.078125 11.03125 
Q 45.3125 15.671875 45.3125 23.6875 
L 45.3125 54.6875 
L 54.296875 54.6875 
L 54.296875 0 
L 45.3125 0 
L 45.3125 8.40625 
Q 42.046875 3.421875 37.71875 1 
Q 33.40625 -1.421875 27.6875 -1.421875 
Q 18.265625 -1.421875 13.375 4.4375 
Q 8.5 10.296875 8.5 21.578125 
z
M 31.109375 56 
z
" id="DejaVuSans-117"/>
      <path d="M 9.8125 72.90625 
L 55.90625 72.90625 
L 55.90625 64.59375 
L 19.671875 64.59375 
L 19.671875 43.015625 
L 54.390625 43.015625 
L 54.390625 34.71875 
L 19.671875 34.71875 
L 19.671875 8.296875 
L 56.78125 8.296875 
L 56.78125 0 
L 9.8125 0 
z
" id="DejaVuSans-69"/>
     </defs>
     <g transform="translate(31.020312 280.483437)rotate(-90)scale(0.1 -0.1)">
      <use xlink:href="#DejaVuSans-73"/>
      <use x="29.492188" xlink:href="#DejaVuSans-110"/>
      <use x="92.871094" xlink:href="#DejaVuSans-116"/>
      <use x="132.080078" xlink:href="#DejaVuSans-101"/>
      <use x="193.603516" xlink:href="#DejaVuSans-103"/>
      <use x="257.080078" xlink:href="#DejaVuSans-114"/>
      <use x="298.193359" xlink:href="#DejaVuSans-97"/>
      <use x="359.472656" xlink:href="#DejaVuSans-116"/>
      <use x="398.681641" xlink:href="#DejaVuSans-101"/>
      <use x="460.205078" xlink:href="#DejaVuSans-100"/>
      <use x="523.681641" xlink:href="#DejaVuSans-32"/>
      <use x="555.46875" xlink:href="#DejaVuSans-83"/>
      <use x="618.945312" xlink:href="#DejaVuSans-113"/>
      <use x="682.421875" xlink:href="#DejaVuSans-117"/>
      <use x="745.800781" xlink:href="#DejaVuSans-97"/>
      <use x="807.080078" xlink:href="#DejaVuSans-114"/>
      <use x="845.943359" xlink:href="#DejaVuSans-101"/>
      <use x="907.466797" xlink:href="#DejaVuSans-100"/>
      <use x="970.943359" xlink:href="#DejaVuSans-32"/>
      <use x="1002.730469" xlink:href="#DejaVuSans-69"/>
      <use x="1065.914062" xlink:href="#DejaVuSans-114"/>
      <use x="1105.277344" xlink:href="#DejaVuSans-114"/>
      <use x="1144.140625" xlink:href="#DejaVuSans-111"/>
      <use x="1205.322266" xlink:href="#DejaVuSans-114"/>
     </g>
    </g>
   </g>
   <g id="line2d_29">
    <path clip-path="url(#pdd6df689fc)" d="M 72 98.442261 
L 80.928 98.201827 
L 89.856 97.197398 
L 98.784 96.482354 
L 107.712 97.060357 
L 116.64 98.061103 
L 125.568 97.055772 
L 134.496 96.062089 
L 143.424 98.272385 
L 152.352 97.486315 
L 161.28 95.12499 
L 170.208 97.762431 
L 179.136 98.298519 
L 188.064 97.334143 
L 196.992 97.751538 
L 205.92 96.132523 
L 214.848 97.472715 
L 223.776 95.126699 
L 232.704 96.846591 
L 241.632 96.68698 
L 250.56 94.467653 
L 259.488 95.411483 
L 268.416 98.436314 
L 277.344 95.21711 
L 286.272 96.002935 
L 295.2 96.408539 
L 304.128 96.895085 
L 313.056 94.880509 
L 321.984 95.575009 
L 330.912 95.481499 
L 339.84 94.470222 
L 348.768 90.822018 
L 357.696 95.058272 
L 366.624 95.151815 
L 375.552 94.430425 
L 384.48 87.176945 
L 393.408 91.149975 
L 402.336 95.297238 
L 411.264 96.171284 
L 420.192 92.791655 
L 429.12 92.006633 
L 438.048 89.210278 
L 446.976 96.001916 
L 455.904 90.244782 
L 464.832 95.009718 
L 473.76 92.9328 
L 482.688 94.417151 
L 491.616 89.964204 
L 500.544 94.334946 
L 509.472 87.572453 
L 518.4 94.154497 
" style="fill:none;stroke:#1f77b4;stroke-linecap:square;stroke-width:1.5;"/>
   </g>
   <g id="line2d_30">
    <path clip-path="url(#pdd6df689fc)" d="M 72 101.459069 
L 80.928 107.139891 
L 89.856 105.628918 
L 98.784 102.335944 
L 107.712 101.008032 
L 116.64 104.627475 
L 125.568 102.683696 
L 134.496 100.40186 
L 143.424 100.291387 
L 152.352 101.439248 
L 161.28 100.394355 
L 170.208 100.233963 
L 179.136 100.056718 
L 188.064 99.526279 
L 196.992 100.619042 
L 205.92 100.000251 
L 214.848 100.750427 
L 223.776 100.483059 
L 232.704 100.310246 
L 241.632 99.830439 
L 250.56 100.488829 
L 259.488 99.61043 
L 268.416 100.195681 
L 277.344 99.889736 
L 286.272 99.642164 
L 295.2 99.652763 
L 304.128 99.663374 
L 313.056 99.673996 
L 321.984 99.969 
L 330.912 99.695271 
L 339.84 99.705926 
L 348.768 99.716591 
L 357.696 99.930635 
L 366.624 99.737956 
L 375.552 99.748654 
L 384.48 99.759364 
L 393.408 99.770085 
L 402.336 99.780817 
L 411.264 99.79156 
L 420.192 99.802314 
L 429.12 99.81308 
L 438.048 99.823857 
L 446.976 99.834645 
L 455.904 99.845444 
L 464.832 99.856255 
L 473.76 99.867077 
L 482.688 99.877911 
L 491.616 99.888756 
L 500.544 99.899612 
L 509.472 99.910479 
L 518.4 99.921359 
" style="fill:none;stroke:#ff7f0e;stroke-linecap:square;stroke-width:1.5;"/>
   </g>
   <g id="line2d_31">
    <path clip-path="url(#pdd6df689fc)" d="M 72 105.969825 
L 80.928 111.9677 
L 89.856 113.819937 
L 98.784 114.840032 
L 107.712 116.283364 
L 116.64 117.8726 
L 125.568 118.889124 
L 134.496 119.900403 
L 143.424 120.770534 
L 152.352 121.355859 
L 161.28 121.941661 
L 170.208 122.378697 
L 179.136 123.55377 
L 188.064 124.134922 
L 196.992 125.011557 
L 205.92 125.303116 
L 214.848 125.892424 
L 223.776 127.071836 
L 232.704 127.896867 
L 241.632 128.232973 
L 250.56 128.441174 
L 259.488 128.639667 
L 268.416 128.696657 
L 277.344 129.214114 
L 286.272 129.61806 
L 295.2 130.250709 
L 304.128 131.041333 
L 313.056 131.690754 
L 321.984 132.050426 
L 330.912 132.417433 
L 339.84 132.956603 
L 348.768 133.217089 
L 357.696 133.534181 
L 366.624 133.724129 
L 375.552 134.226176 
L 384.48 134.269002 
L 393.408 135.367605 
L 402.336 136.321689 
L 411.264 136.522516 
L 420.192 136.561714 
L 429.12 136.600228 
L 438.048 136.636568 
L 446.976 136.818267 
L 455.904 137.173086 
L 464.832 137.204891 
L 473.76 137.844443 
L 482.688 138.341788 
L 491.616 138.369599 
L 500.544 138.881316 
L 509.472 139.031221 
L 518.4 139.188245 
" style="fill:none;stroke:#2ca02c;stroke-linecap:square;stroke-width:1.5;"/>
   </g>
   <g id="line2d_32">
    <path clip-path="url(#pdd6df689fc)" d="M 72 103.517264 
L 80.928 108.522247 
L 89.856 110.913546 
L 98.784 114.62343 
L 107.712 114.969213 
L 116.64 116.194128 
L 125.568 117.320112 
L 134.496 119.351117 
L 143.424 121.178474 
L 152.352 121.622328 
L 161.28 121.945017 
L 170.208 122.056583 
L 179.136 122.665831 
L 188.064 123.069742 
L 196.992 123.411131 
L 205.92 121.293913 
L 214.848 118.856248 
L 223.776 122.167755 
L 232.704 123.168602 
L 241.632 127.471342 
L 250.56 127.678906 
L 259.488 127.944219 
L 268.416 127.987489 
L 277.344 128.147635 
L 286.272 128.825909 
L 295.2 128.994714 
L 304.128 128.560755 
L 313.056 128.232682 
L 321.984 127.240889 
L 330.912 128.093405 
L 339.84 128.275864 
L 348.768 128.524633 
L 357.696 128.015743 
L 366.624 124.399761 
L 375.552 124.637436 
L 384.48 124.705655 
L 393.408 122.243765 
L 402.336 120.343736 
L 411.264 117.32447 
L 420.192 116.695469 
L 429.12 113.524951 
L 438.048 111.021274 
L 446.976 111.158074 
L 455.904 111.963515 
L 464.832 111.348248 
L 473.76 112.20371 
L 482.688 111.519613 
L 491.616 110.116794 
L 500.544 110.910582 
L 509.472 111.651393 
L 518.4 111.660344 
" style="fill:none;stroke:#d62728;stroke-linecap:square;stroke-width:1.5;"/>
   </g>
   <g id="line2d_33">
    <path clip-path="url(#pdd6df689fc)" d="M 72 102.970139 
L 80.928 108.276861 
L 89.856 109.054246 
L 98.784 112.991293 
L 107.712 113.162644 
L 116.64 114.097111 
L 125.568 112.415295 
L 134.496 110.600512 
L 143.424 112.549625 
L 152.352 114.061652 
L 161.28 118.091305 
L 170.208 120.263429 
L 179.136 117.805897 
L 188.064 117.688344 
L 196.992 116.486851 
L 205.92 114.607055 
L 214.848 113.912646 
L 223.776 108.993071 
L 232.704 105.270157 
L 241.632 102.086493 
L 250.56 104.482677 
L 259.488 104.037963 
L 268.416 103.424135 
L 277.344 102.21809 
L 286.272 103.120452 
L 295.2 102.799865 
L 304.128 102.28314 
L 313.056 102.292723 
L 321.984 102.723269 
L 330.912 103.294466 
L 339.84 103.837208 
L 348.768 103.360782 
L 357.696 102.810894 
L 366.624 102.379717 
L 375.552 104.039634 
L 384.48 102.927984 
L 393.408 104.111385 
L 402.336 104.126923 
L 411.264 105.152942 
L 420.192 104.593804 
L 429.12 104.081801 
L 438.048 106.388815 
L 446.976 104.151862 
L 455.904 104.73395 
L 464.832 103.109036 
L 473.76 103.693173 
L 482.688 103.194595 
L 491.616 102.645724 
L 500.544 102.712683 
L 509.472 101.036932 
L 518.4 100.474051 
" style="fill:none;stroke:#9467bd;stroke-linecap:square;stroke-width:1.5;"/>
   </g>
   <g id="line2d_34">
    <path clip-path="url(#pdd6df689fc)" d="M 72 103.237495 
L 80.928 106.741119 
L 89.856 111.011751 
L 98.784 114.258337 
L 107.712 114.370799 
L 116.64 114.868478 
L 125.568 117.668422 
L 134.496 120.194859 
L 143.424 120.751316 
L 152.352 121.212615 
L 161.28 121.332412 
L 170.208 121.463575 
L 179.136 121.499363 
L 188.064 122.711396 
L 196.992 123.647703 
L 205.92 126.359261 
L 214.848 127.845678 
L 223.776 127.820987 
L 232.704 127.919188 
L 241.632 128.05426 
L 250.56 128.353839 
L 259.488 128.469029 
L 268.416 128.602909 
L 277.344 128.589892 
L 286.272 128.573386 
L 295.2 128.713777 
L 304.128 129.192282 
L 313.056 130.082353 
L 321.984 130.276418 
L 330.912 130.899691 
L 339.84 131.384395 
L 348.768 131.74306 
L 357.696 132.978364 
L 366.624 133.825048 
L 375.552 134.764943 
L 384.48 134.913762 
L 393.408 135.069901 
L 402.336 135.363065 
L 411.264 135.384877 
L 420.192 135.375698 
L 429.12 135.602052 
L 438.048 135.564066 
L 446.976 135.706958 
L 455.904 136.144263 
L 464.832 136.296785 
L 473.76 136.275664 
L 482.688 136.566615 
L 491.616 136.552545 
L 500.544 136.538563 
L 509.472 136.527559 
L 518.4 136.509173 
" style="fill:none;stroke:#8c564b;stroke-linecap:square;stroke-width:1.5;"/>
   </g>
   <g id="line2d_35">
    <path clip-path="url(#pdd6df689fc)" d="M 72 108.699237 
L 80.928 108.848442 
L 89.856 109.092073 
L 98.784 109.473104 
L 107.712 109.712241 
L 116.64 109.861381 
L 125.568 110.080841 
L 134.496 110.218932 
L 143.424 110.378926 
L 152.352 110.573488 
L 161.28 110.691765 
L 170.208 110.776037 
L 179.136 110.838883 
L 188.064 110.956596 
L 196.992 111.007049 
L 205.92 111.111973 
L 214.848 111.213086 
L 223.776 111.254876 
L 232.704 111.287505 
L 241.632 111.271561 
L 250.56 111.271838 
L 259.488 111.299522 
L 268.416 111.315467 
L 277.344 111.378077 
L 286.272 111.397612 
L 295.2 111.416434 
L 304.128 111.4298 
L 313.056 111.443291 
L 321.984 111.445966 
L 330.912 111.474279 
L 339.84 111.483459 
L 348.768 111.493546 
L 357.696 111.538503 
L 366.624 111.561112 
L 375.552 111.561172 
L 384.48 111.577931 
L 393.408 111.573133 
L 402.336 111.578316 
L 411.264 111.568391 
L 420.192 111.588013 
L 429.12 111.565518 
L 438.048 111.578126 
L 446.976 111.583361 
L 455.904 111.580309 
L 464.832 111.581018 
L 473.76 111.580956 
L 482.688 111.583481 
L 491.616 111.59005 
L 500.544 111.592289 
L 509.472 111.59671 
L 518.4 111.578988 
" style="fill:none;stroke:#e377c2;stroke-linecap:square;stroke-width:1.5;"/>
   </g>
   <g id="patch_3">
    <path d="M 72 384.48 
L 72 51.84 
" style="fill:none;stroke:#000000;stroke-linecap:square;stroke-linejoin:miter;stroke-width:0.8;"/>
   </g>
   <g id="patch_4">
    <path d="M 518.4 384.48 
L 518.4 51.84 
" style="fill:none;stroke:#000000;stroke-linecap:square;stroke-linejoin:miter;stroke-width:0.8;"/>
   </g>
   <g id="patch_5">
    <path d="M 72 384.48 
L 518.4 384.48 
" style="fill:none;stroke:#000000;stroke-linecap:square;stroke-linejoin:miter;stroke-width:0.8;"/>
   </g>
   <g id="patch_6">
    <path d="M 72 51.84 
L 518.4 51.84 
" style="fill:none;stroke:#000000;stroke-linecap:square;stroke-linejoin:miter;stroke-width:0.8;"/>
   </g>
   <g id="legend_1">
    <g id="patch_7">
     <path d="M 79 379.48 
L 165.804688 379.48 
Q 167.804688 379.48 167.804688 377.48 
L 167.804688 275.733125 
Q 167.804688 273.733125 165.804688 273.733125 
L 79 273.733125 
Q 77 273.733125 77 275.733125 
L 77 377.48 
Q 77 379.48 79 379.48 
z
" style="fill:#ffffff;opacity:0.8;stroke:#cccccc;stroke-linejoin:miter;"/>
    </g>
    <g id="line2d_36">
     <path d="M 81 281.831563 
L 101 281.831563 
" style="fill:none;stroke:#1f77b4;stroke-linecap:square;stroke-width:1.5;"/>
    </g>
    <g id="line2d_37"/>
    <g id="text_17">
     <!-- Constant -->
     <defs>
      <path d="M 64.40625 67.28125 
L 64.40625 56.890625 
Q 59.421875 61.53125 53.78125 63.8125 
Q 48.140625 66.109375 41.796875 66.109375 
Q 29.296875 66.109375 22.65625 58.46875 
Q 16.015625 50.828125 16.015625 36.375 
Q 16.015625 21.96875 22.65625 14.328125 
Q 29.296875 6.6875 41.796875 6.6875 
Q 48.140625 6.6875 53.78125 8.984375 
Q 59.421875 11.28125 64.40625 15.921875 
L 64.40625 5.609375 
Q 59.234375 2.09375 53.4375 0.328125 
Q 47.65625 -1.421875 41.21875 -1.421875 
Q 24.65625 -1.421875 15.125 8.703125 
Q 5.609375 18.84375 5.609375 36.375 
Q 5.609375 53.953125 15.125 64.078125 
Q 24.65625 74.21875 41.21875 74.21875 
Q 47.75 74.21875 53.53125 72.484375 
Q 59.328125 70.75 64.40625 67.28125 
z
" id="DejaVuSans-67"/>
      <path d="M 44.28125 53.078125 
L 44.28125 44.578125 
Q 40.484375 46.53125 36.375 47.5 
Q 32.28125 48.484375 27.875 48.484375 
Q 21.1875 48.484375 17.84375 46.4375 
Q 14.5 44.390625 14.5 40.28125 
Q 14.5 37.15625 16.890625 35.375 
Q 19.28125 33.59375 26.515625 31.984375 
L 29.59375 31.296875 
Q 39.15625 29.25 43.1875 25.515625 
Q 47.21875 21.78125 47.21875 15.09375 
Q 47.21875 7.46875 41.1875 3.015625 
Q 35.15625 -1.421875 24.609375 -1.421875 
Q 20.21875 -1.421875 15.453125 -0.5625 
Q 10.6875 0.296875 5.421875 2 
L 5.421875 11.28125 
Q 10.40625 8.6875 15.234375 7.390625 
Q 20.0625 6.109375 24.8125 6.109375 
Q 31.15625 6.109375 34.5625 8.28125 
Q 37.984375 10.453125 37.984375 14.40625 
Q 37.984375 18.0625 35.515625 20.015625 
Q 33.0625 21.96875 24.703125 23.78125 
L 21.578125 24.515625 
Q 13.234375 26.265625 9.515625 29.90625 
Q 5.8125 33.546875 5.8125 39.890625 
Q 5.8125 47.609375 11.28125 51.796875 
Q 16.75 56 26.8125 56 
Q 31.78125 56 36.171875 55.265625 
Q 40.578125 54.546875 44.28125 53.078125 
z
" id="DejaVuSans-115"/>
     </defs>
     <g transform="translate(109 285.331563)scale(0.1 -0.1)">
      <use xlink:href="#DejaVuSans-67"/>
      <use x="69.824219" xlink:href="#DejaVuSans-111"/>
      <use x="131.005859" xlink:href="#DejaVuSans-110"/>
      <use x="194.384766" xlink:href="#DejaVuSans-115"/>
      <use x="246.484375" xlink:href="#DejaVuSans-116"/>
      <use x="285.693359" xlink:href="#DejaVuSans-97"/>
      <use x="346.972656" xlink:href="#DejaVuSans-110"/>
      <use x="410.351562" xlink:href="#DejaVuSans-116"/>
     </g>
    </g>
    <g id="line2d_38">
     <path d="M 81 296.509688 
L 101 296.509688 
" style="fill:none;stroke:#ff7f0e;stroke-linecap:square;stroke-width:1.5;"/>
    </g>
    <g id="line2d_39"/>
    <g id="text_18">
     <!-- RBF -->
     <defs>
      <path d="M 44.390625 34.1875 
Q 47.5625 33.109375 50.5625 29.59375 
Q 53.5625 26.078125 56.59375 19.921875 
L 66.609375 0 
L 56 0 
L 46.6875 18.703125 
Q 43.0625 26.03125 39.671875 28.421875 
Q 36.28125 30.8125 30.421875 30.8125 
L 19.671875 30.8125 
L 19.671875 0 
L 9.8125 0 
L 9.8125 72.90625 
L 32.078125 72.90625 
Q 44.578125 72.90625 50.734375 67.671875 
Q 56.890625 62.453125 56.890625 51.90625 
Q 56.890625 45.015625 53.6875 40.46875 
Q 50.484375 35.9375 44.390625 34.1875 
z
M 19.671875 64.796875 
L 19.671875 38.921875 
L 32.078125 38.921875 
Q 39.203125 38.921875 42.84375 42.21875 
Q 46.484375 45.515625 46.484375 51.90625 
Q 46.484375 58.296875 42.84375 61.546875 
Q 39.203125 64.796875 32.078125 64.796875 
z
" id="DejaVuSans-82"/>
      <path d="M 19.671875 34.8125 
L 19.671875 8.109375 
L 35.5 8.109375 
Q 43.453125 8.109375 47.28125 11.40625 
Q 51.125 14.703125 51.125 21.484375 
Q 51.125 28.328125 47.28125 31.5625 
Q 43.453125 34.8125 35.5 34.8125 
z
M 19.671875 64.796875 
L 19.671875 42.828125 
L 34.28125 42.828125 
Q 41.5 42.828125 45.03125 45.53125 
Q 48.578125 48.25 48.578125 53.8125 
Q 48.578125 59.328125 45.03125 62.0625 
Q 41.5 64.796875 34.28125 64.796875 
z
M 9.8125 72.90625 
L 35.015625 72.90625 
Q 46.296875 72.90625 52.390625 68.21875 
Q 58.5 63.53125 58.5 54.890625 
Q 58.5 48.1875 55.375 44.234375 
Q 52.25 40.28125 46.1875 39.3125 
Q 53.46875 37.75 57.5 32.78125 
Q 61.53125 27.828125 61.53125 20.40625 
Q 61.53125 10.640625 54.890625 5.3125 
Q 48.25 0 35.984375 0 
L 9.8125 0 
z
" id="DejaVuSans-66"/>
      <path d="M 9.8125 72.90625 
L 51.703125 72.90625 
L 51.703125 64.59375 
L 19.671875 64.59375 
L 19.671875 43.109375 
L 48.578125 43.109375 
L 48.578125 34.8125 
L 19.671875 34.8125 
L 19.671875 0 
L 9.8125 0 
z
" id="DejaVuSans-70"/>
     </defs>
     <g transform="translate(109 300.009688)scale(0.1 -0.1)">
      <use xlink:href="#DejaVuSans-82"/>
      <use x="69.482422" xlink:href="#DejaVuSans-66"/>
      <use x="138.085938" xlink:href="#DejaVuSans-70"/>
     </g>
    </g>
    <g id="line2d_40">
     <path d="M 81 311.187813 
L 101 311.187813 
" style="fill:none;stroke:#2ca02c;stroke-linecap:square;stroke-width:1.5;"/>
    </g>
    <g id="line2d_41"/>
    <g id="text_19">
     <!-- Matrn-1/2 -->
     <defs>
      <path d="M 9.8125 72.90625 
L 24.515625 72.90625 
L 43.109375 23.296875 
L 61.8125 72.90625 
L 76.515625 72.90625 
L 76.515625 0 
L 66.890625 0 
L 66.890625 64.015625 
L 48.09375 14.015625 
L 38.1875 14.015625 
L 19.390625 64.015625 
L 19.390625 0 
L 9.8125 0 
z
" id="DejaVuSans-77"/>
      <path d="M 56.203125 29.59375 
L 56.203125 25.203125 
L 14.890625 25.203125 
Q 15.484375 15.921875 20.484375 11.0625 
Q 25.484375 6.203125 34.421875 6.203125 
Q 39.59375 6.203125 44.453125 7.46875 
Q 49.3125 8.734375 54.109375 11.28125 
L 54.109375 2.78125 
Q 49.265625 0.734375 44.1875 -0.34375 
Q 39.109375 -1.421875 33.890625 -1.421875 
Q 20.796875 -1.421875 13.15625 6.1875 
Q 5.515625 13.8125 5.515625 26.8125 
Q 5.515625 40.234375 12.765625 48.109375 
Q 20.015625 56 32.328125 56 
Q 43.359375 56 49.78125 48.890625 
Q 56.203125 41.796875 56.203125 29.59375 
z
M 47.21875 32.234375 
Q 47.125 39.59375 43.09375 43.984375 
Q 39.0625 48.390625 32.421875 48.390625 
Q 24.90625 48.390625 20.390625 44.140625 
Q 15.875 39.890625 15.1875 32.171875 
z
M 38.53125 79.984375 
L 48.25 79.984375 
L 32.34375 61.625 
L 24.859375 61.625 
z
" id="DejaVuSans-233"/>
      <path d="M 4.890625 31.390625 
L 31.203125 31.390625 
L 31.203125 23.390625 
L 4.890625 23.390625 
z
" id="DejaVuSans-45"/>
      <path d="M 25.390625 72.90625 
L 33.6875 72.90625 
L 8.296875 -9.28125 
L 0 -9.28125 
z
" id="DejaVuSans-47"/>
     </defs>
     <g transform="translate(109 314.687813)scale(0.1 -0.1)">
      <use xlink:href="#DejaVuSans-77"/>
      <use x="86.279297" xlink:href="#DejaVuSans-97"/>
      <use x="147.558594" xlink:href="#DejaVuSans-116"/>
      <use x="186.767578" xlink:href="#DejaVuSans-233"/>
      <use x="248.291016" xlink:href="#DejaVuSans-114"/>
      <use x="287.654297" xlink:href="#DejaVuSans-110"/>
      <use x="351.033203" xlink:href="#DejaVuSans-45"/>
      <use x="387.117188" xlink:href="#DejaVuSans-49"/>
      <use x="450.740234" xlink:href="#DejaVuSans-47"/>
      <use x="484.431641" xlink:href="#DejaVuSans-50"/>
     </g>
    </g>
    <g id="line2d_42">
     <path d="M 81 325.865938 
L 101 325.865938 
" style="fill:none;stroke:#d62728;stroke-linecap:square;stroke-width:1.5;"/>
    </g>
    <g id="line2d_43"/>
    <g id="text_20">
     <!-- Matrn-3/2 -->
     <g transform="translate(109 329.365938)scale(0.1 -0.1)">
      <use xlink:href="#DejaVuSans-77"/>
      <use x="86.279297" xlink:href="#DejaVuSans-97"/>
      <use x="147.558594" xlink:href="#DejaVuSans-116"/>
      <use x="186.767578" xlink:href="#DejaVuSans-233"/>
      <use x="248.291016" xlink:href="#DejaVuSans-114"/>
      <use x="287.654297" xlink:href="#DejaVuSans-110"/>
      <use x="351.033203" xlink:href="#DejaVuSans-45"/>
      <use x="387.117188" xlink:href="#DejaVuSans-51"/>
      <use x="450.740234" xlink:href="#DejaVuSans-47"/>
      <use x="484.431641" xlink:href="#DejaVuSans-50"/>
     </g>
    </g>
    <g id="line2d_44">
     <path d="M 81 340.544062 
L 101 340.544062 
" style="fill:none;stroke:#9467bd;stroke-linecap:square;stroke-width:1.5;"/>
    </g>
    <g id="line2d_45"/>
    <g id="text_21">
     <!-- Matrn-5/2 -->
     <g transform="translate(109 344.044062)scale(0.1 -0.1)">
      <use xlink:href="#DejaVuSans-77"/>
      <use x="86.279297" xlink:href="#DejaVuSans-97"/>
      <use x="147.558594" xlink:href="#DejaVuSans-116"/>
      <use x="186.767578" xlink:href="#DejaVuSans-233"/>
      <use x="248.291016" xlink:href="#DejaVuSans-114"/>
      <use x="287.654297" xlink:href="#DejaVuSans-110"/>
      <use x="351.033203" xlink:href="#DejaVuSans-45"/>
      <use x="387.117188" xlink:href="#DejaVuSans-53"/>
      <use x="450.740234" xlink:href="#DejaVuSans-47"/>
      <use x="484.431641" xlink:href="#DejaVuSans-50"/>
     </g>
    </g>
    <g id="line2d_46">
     <path d="M 81 355.222188 
L 101 355.222188 
" style="fill:none;stroke:#8c564b;stroke-linecap:square;stroke-width:1.5;"/>
    </g>
    <g id="line2d_47"/>
    <g id="text_22">
     <!-- RQ -->
     <defs>
      <path d="M 39.40625 66.21875 
Q 28.65625 66.21875 22.328125 58.203125 
Q 16.015625 50.203125 16.015625 36.375 
Q 16.015625 22.609375 22.328125 14.59375 
Q 28.65625 6.59375 39.40625 6.59375 
Q 50.140625 6.59375 56.421875 14.59375 
Q 62.703125 22.609375 62.703125 36.375 
Q 62.703125 50.203125 56.421875 58.203125 
Q 50.140625 66.21875 39.40625 66.21875 
z
M 53.21875 1.3125 
L 66.21875 -12.890625 
L 54.296875 -12.890625 
L 43.5 -1.21875 
Q 41.890625 -1.3125 41.03125 -1.359375 
Q 40.1875 -1.421875 39.40625 -1.421875 
Q 24.03125 -1.421875 14.8125 8.859375 
Q 5.609375 19.140625 5.609375 36.375 
Q 5.609375 53.65625 14.8125 63.9375 
Q 24.03125 74.21875 39.40625 74.21875 
Q 54.734375 74.21875 63.90625 63.9375 
Q 73.09375 53.65625 73.09375 36.375 
Q 73.09375 23.6875 67.984375 14.640625 
Q 62.890625 5.609375 53.21875 1.3125 
z
" id="DejaVuSans-81"/>
     </defs>
     <g transform="translate(109 358.722188)scale(0.1 -0.1)">
      <use xlink:href="#DejaVuSans-82"/>
      <use x="69.482422" xlink:href="#DejaVuSans-81"/>
     </g>
    </g>
    <g id="line2d_48">
     <path d="M 81 369.900313 
L 101 369.900313 
" style="fill:none;stroke:#e377c2;stroke-linecap:square;stroke-width:1.5;"/>
    </g>
    <g id="line2d_49"/>
    <g id="text_23">
     <!-- Dot Prod. -->
     <defs>
      <path d="M 19.671875 64.796875 
L 19.671875 8.109375 
L 31.59375 8.109375 
Q 46.6875 8.109375 53.6875 14.9375 
Q 60.6875 21.78125 60.6875 36.53125 
Q 60.6875 51.171875 53.6875 57.984375 
Q 46.6875 64.796875 31.59375 64.796875 
z
M 9.8125 72.90625 
L 30.078125 72.90625 
Q 51.265625 72.90625 61.171875 64.09375 
Q 71.09375 55.28125 71.09375 36.53125 
Q 71.09375 17.671875 61.125 8.828125 
Q 51.171875 0 30.078125 0 
L 9.8125 0 
z
" id="DejaVuSans-68"/>
      <path d="M 19.671875 64.796875 
L 19.671875 37.40625 
L 32.078125 37.40625 
Q 38.96875 37.40625 42.71875 40.96875 
Q 46.484375 44.53125 46.484375 51.125 
Q 46.484375 57.671875 42.71875 61.234375 
Q 38.96875 64.796875 32.078125 64.796875 
z
M 9.8125 72.90625 
L 32.078125 72.90625 
Q 44.34375 72.90625 50.609375 67.359375 
Q 56.890625 61.8125 56.890625 51.125 
Q 56.890625 40.328125 50.609375 34.8125 
Q 44.34375 29.296875 32.078125 29.296875 
L 19.671875 29.296875 
L 19.671875 0 
L 9.8125 0 
z
" id="DejaVuSans-80"/>
      <path d="M 10.6875 12.40625 
L 21 12.40625 
L 21 0 
L 10.6875 0 
z
" id="DejaVuSans-46"/>
     </defs>
     <g transform="translate(109 373.400313)scale(0.1 -0.1)">
      <use xlink:href="#DejaVuSans-68"/>
      <use x="77.001953" xlink:href="#DejaVuSans-111"/>
      <use x="138.183594" xlink:href="#DejaVuSans-116"/>
      <use x="177.392578" xlink:href="#DejaVuSans-32"/>
      <use x="209.179688" xlink:href="#DejaVuSans-80"/>
      <use x="267.732422" xlink:href="#DejaVuSans-114"/>
      <use x="306.595703" xlink:href="#DejaVuSans-111"/>
      <use x="367.777344" xlink:href="#DejaVuSans-100"/>
      <use x="431.253906" xlink:href="#DejaVuSans-46"/>
     </g>
    </g>
   </g>
  </g>
 </g>
 <defs>
  <clipPath id="pdd6df689fc">
   <rect height="332.64" width="446.4" x="72" y="51.84"/>
  </clipPath>
 </defs>
</svg>
