<?xml version="1.0" encoding="utf-8" standalone="no"?>
<!DOCTYPE svg PUBLIC "-//W3C//DTD SVG 1.1//EN"
  "http://www.w3.org/Graphics/SVG/1.1/DTD/svg11.dtd">
<!-- Created with matplotlib (https://matplotlib.org/) -->
<svg height="432pt" version="1.1" viewBox="0 0 576 432" width="576pt" xmlns="http://www.w3.org/2000/svg" xmlns:xlink="http://www.w3.org/1999/xlink">
 <defs>
  <style type="text/css">
*{stroke-linecap:butt;stroke-linejoin:round;}
  </style>
 </defs>
 <g id="figure_1">
  <g id="patch_1">
   <path d="M 0 432 
L 576 432 
L 576 0 
L 0 0 
z
" style="fill:#ffffff;"/>
  </g>
  <g id="axes_1">
   <g id="patch_2">
    <path d="M 72 384.48 
L 518.4 384.48 
L 518.4 51.84 
L 72 51.84 
z
" style="fill:#ffffff;"/>
   </g>
   <g id="PolyCollection_1">
    <path clip-path="url(#p57df6b3745)" d="M 80.928 245.959274 
L 80.928 50.43911 
L 80.928 245.959274 
L 80.928 245.959274 
z
" style="fill:#1f77b4;fill-opacity:0.3;"/>
    <path clip-path="url(#p57df6b3745)" d="M 98.784 236.030429 
L 98.784 8.754258 
L 98.784 236.030429 
L 98.784 236.030429 
z
" style="fill:#1f77b4;fill-opacity:0.3;"/>
    <path clip-path="url(#p57df6b3745)" d="M 116.64 -12.448308 
L 116.64 -12.448308 
L 125.568 -3.871522 
L 125.568 -3.871522 
L 125.568 -3.871522 
L 116.64 -12.448308 
z
" style="fill:#1f77b4;fill-opacity:0.3;"/>
    <path clip-path="url(#p57df6b3745)" d="M 161.28 -33.694211 
L 161.28 -33.694211 
L 170.208 10.75417 
L 179.136 -35.158573 
L 188.064 18.996431 
L 196.992 -34.855586 
L 205.92 -33.427665 
L 205.92 -27.165793 
L 205.92 -27.165793 
L 196.992 181.673573 
L 188.064 311.900809 
L 179.136 -31.632316 
L 170.208 222.690737 
L 161.28 -33.694211 
z
" style="fill:#1f77b4;fill-opacity:0.3;"/>
    <path clip-path="url(#p57df6b3745)" d="M 223.776 -14.315095 
L 223.776 -34.44781 
L 232.704 312.632824 
L 241.632 330.994735 
L 250.56 -30.024507 
L 259.488 -1.832575 
L 268.416 -41.980848 
L 277.344 -1.94997 
L 286.272 232.290627 
L 295.2 -42.617522 
L 304.128 -1.663214 
L 313.056 -2.089629 
L 313.056 385.178819 
L 313.056 385.178819 
L 304.128 386.148984 
L 295.2 -35.157491 
L 286.272 360.994555 
L 277.344 388.834224 
L 268.416 -36.218796 
L 259.488 392.956336 
L 250.56 -20.523069 
L 241.632 367.785405 
L 232.704 343.773007 
L 223.776 -14.315095 
z
" style="fill:#1f77b4;fill-opacity:0.3;"/>
    <path clip-path="url(#p57df6b3745)" d="M 330.912 283.055383 
L 330.912 224.05884 
L 330.912 283.055383 
L 330.912 283.055383 
z
" style="fill:#1f77b4;fill-opacity:0.3;"/>
    <path clip-path="url(#p57df6b3745)" d="M 348.768 383.796662 
L 348.768 6.029832 
L 348.768 383.796662 
L 348.768 383.796662 
z
" style="fill:#1f77b4;fill-opacity:0.3;"/>
    <path clip-path="url(#p57df6b3745)" d="M 366.624 367.143601 
L 366.624 337.088018 
L 366.624 367.143601 
L 366.624 367.143601 
z
" style="fill:#1f77b4;fill-opacity:0.3;"/>
    <path clip-path="url(#p57df6b3745)" d="M 384.48 297.825473 
L 384.48 -74.899046 
L 393.408 -44.033619 
L 402.336 4.116657 
L 402.336 390.883176 
L 402.336 390.883176 
L 393.408 -44.033619 
L 384.48 297.825473 
z
" style="fill:#1f77b4;fill-opacity:0.3;"/>
    <path clip-path="url(#p57df6b3745)" d="M 420.192 292.19811 
L 420.192 -67.787954 
L 420.192 292.19811 
L 420.192 292.19811 
z
" style="fill:#1f77b4;fill-opacity:0.3;"/>
    <path clip-path="url(#p57df6b3745)" d="M 438.048 -44.334717 
L 438.048 -48.972388 
L 446.976 -3.015937 
L 446.976 385.338673 
L 446.976 385.338673 
L 438.048 -44.334717 
z
" style="fill:#1f77b4;fill-opacity:0.3;"/>
    <path clip-path="url(#p57df6b3745)" d="M 491.616 -25.89709 
L 491.616 -48.377822 
L 491.616 -25.89709 
L 491.616 -25.89709 
z
" style="fill:#1f77b4;fill-opacity:0.3;"/>
    <path clip-path="url(#p57df6b3745)" d="M 509.472 -27.992856 
L 509.472 -57.947878 
L 518.4 -52.872787 
L 518.4 -52.872787 
L 518.4 -52.872787 
L 509.472 -27.992856 
z
" style="fill:#1f77b4;fill-opacity:0.3;"/>
   </g>
   <g id="PolyCollection_2">
    <path clip-path="url(#p57df6b3745)" d="M 72 160.016838 
L 72 109.76318 
L 80.928 118.773609 
L 89.856 106.950762 
L 98.784 74.897139 
L 107.712 71.004845 
L 116.64 77.162576 
L 125.568 72.513719 
L 134.496 71.87641 
L 143.424 73.715691 
L 152.352 70.730382 
L 161.28 71.80902 
L 170.208 73.698159 
L 179.136 71.453384 
L 188.064 85.221323 
L 196.992 68.220857 
L 205.92 74.982774 
L 214.848 69.897041 
L 223.776 70.386076 
L 232.704 72.054535 
L 241.632 76.960824 
L 250.56 69.960544 
L 259.488 85.305473 
L 268.416 72.159671 
L 277.344 75.35518 
L 286.272 85.337207 
L 295.2 85.347806 
L 304.128 85.358417 
L 313.056 85.369039 
L 321.984 74.788312 
L 330.912 85.390315 
L 339.84 85.400969 
L 348.768 85.411634 
L 357.696 76.992933 
L 366.624 85.432998 
L 375.552 85.443697 
L 384.48 85.454407 
L 393.408 85.465128 
L 402.336 85.47586 
L 411.264 85.486603 
L 420.192 85.497357 
L 429.12 85.508123 
L 438.048 85.5189 
L 446.976 85.529688 
L 455.904 85.540487 
L 464.832 85.551298 
L 473.76 85.56212 
L 482.688 85.572954 
L 491.616 85.583798 
L 500.544 85.594655 
L 509.472 85.605522 
L 518.4 85.616401 
L 518.4 85.616403 
L 518.4 85.616403 
L 509.472 85.605524 
L 500.544 85.594657 
L 491.616 85.5838 
L 482.688 85.572956 
L 473.76 85.562122 
L 464.832 85.5513 
L 455.904 85.540489 
L 446.976 85.52969 
L 438.048 85.518902 
L 429.12 85.508125 
L 420.192 85.497359 
L 411.264 85.486605 
L 402.336 85.475862 
L 393.408 85.46513 
L 384.48 85.454409 
L 375.552 85.443699 
L 366.624 85.433 
L 357.696 96.661484 
L 348.768 85.411636 
L 339.84 85.400971 
L 330.912 85.390316 
L 321.984 99.501485 
L 313.056 85.36904 
L 304.128 85.358419 
L 295.2 85.347808 
L 286.272 85.337209 
L 277.344 98.621871 
L 268.416 105.205044 
L 259.488 85.305475 
L 250.56 110.994677 
L 241.632 96.382435 
L 232.704 106.864217 
L 223.776 110.199069 
L 214.848 113.383769 
L 205.92 100.394321 
L 196.992 116.451516 
L 188.064 85.221325 
L 179.136 106.013664 
L 170.208 104.310387 
L 161.28 107.535434 
L 152.352 118.006974 
L 143.424 104.102471 
L 134.496 107.78377 
L 125.568 124.672447 
L 116.64 140.725806 
L 107.712 118.247039 
L 98.784 124.669799 
L 89.856 170.832902 
L 80.928 158.410011 
L 72 160.016838 
z
" style="fill:#ff7f0e;fill-opacity:0.3;"/>
   </g>
   <g id="PolyCollection_3">
    <path clip-path="url(#p57df6b3745)" d="M 72 117.647967 
L 72 95.043741 
L 80.928 104.153222 
L 89.856 109.273291 
L 98.784 112.70531 
L 107.712 114.904585 
L 116.64 116.478564 
L 125.568 118.311261 
L 134.496 119.321844 
L 143.424 119.979654 
L 152.352 120.946646 
L 161.28 121.984366 
L 170.208 123.097279 
L 179.136 123.347765 
L 188.064 124.137662 
L 196.992 124.68746 
L 205.92 125.386184 
L 214.848 125.681997 
L 223.776 125.652887 
L 232.704 125.857669 
L 241.632 126.449059 
L 250.56 127.160079 
L 259.488 127.840204 
L 268.416 128.683881 
L 277.344 129.167678 
L 286.272 129.756618 
L 295.2 130.159912 
L 304.128 130.27706 
L 313.056 130.613881 
L 321.984 131.183115 
L 330.912 131.749005 
L 339.84 132.096993 
L 348.768 132.61236 
L 357.696 133.202337 
L 366.624 133.696676 
L 375.552 133.734188 
L 384.48 134.288046 
L 393.408 133.83264 
L 402.336 133.805474 
L 411.264 134.147408 
L 420.192 134.641017 
L 429.12 135.133185 
L 438.048 135.622579 
L 446.976 135.974348 
L 455.904 136.158035 
L 464.832 136.638077 
L 473.76 136.578807 
L 482.688 136.7195 
L 491.616 137.205081 
L 500.544 137.316891 
L 509.472 137.668608 
L 518.4 137.995671 
L 518.4 148.194053 
L 518.4 148.194053 
L 509.472 147.974694 
L 500.544 147.742585 
L 491.616 147.889058 
L 482.688 147.497066 
L 473.76 147.641183 
L 464.832 147.84792 
L 455.904 147.450305 
L 446.976 147.359809 
L 438.048 147.105007 
L 429.12 146.687884 
L 420.192 146.269125 
L 411.264 145.846898 
L 402.336 145.570674 
L 393.408 146.251108 
L 384.48 146.767743 
L 375.552 146.240136 
L 366.624 146.060812 
L 357.696 145.642933 
L 348.768 145.29812 
L 339.84 144.80795 
L 330.912 144.678645 
L 321.984 144.333192 
L 313.056 143.99767 
L 304.128 143.999509 
L 295.2 144.070076 
L 286.272 143.949795 
L 277.344 143.437004 
L 268.416 143.073192 
L 259.488 142.188661 
L 250.56 141.423935 
L 241.632 140.672036 
L 232.704 140.038799 
L 223.776 139.890585 
L 214.848 140.165436 
L 205.92 139.507072 
L 196.992 138.427229 
L 188.064 138.073969 
L 179.136 137.099867 
L 170.208 136.772437 
L 161.28 135.420505 
L 152.352 134.170415 
L 143.424 132.824504 
L 134.496 131.640712 
L 125.568 130.397489 
L 116.64 128.902562 
L 107.712 127.728425 
L 98.784 125.745122 
L 89.856 123.067521 
L 80.928 120.400463 
L 72 117.647967 
z
" style="fill:#2ca02c;fill-opacity:0.3;"/>
   </g>
   <g id="PolyCollection_4">
    <path clip-path="url(#p57df6b3745)" d="M 72 139.077347 
L 72 103.735958 
L 80.928 109.82921 
L 89.856 116.360792 
L 98.784 116.061079 
L 107.712 122.457877 
L 116.64 126.870545 
L 125.568 127.67319 
L 134.496 126.02075 
L 143.424 126.39651 
L 152.352 127.378584 
L 161.28 132.225824 
L 170.208 135.660399 
L 179.136 138.070461 
L 188.064 136.970905 
L 196.992 138.792187 
L 205.92 116.118934 
L 214.848 103.746808 
L 223.776 113.813927 
L 232.704 111.888198 
L 241.632 127.897051 
L 250.56 129.064488 
L 259.488 130.072524 
L 268.416 131.486129 
L 277.344 132.7599 
L 286.272 138.561105 
L 295.2 140.528003 
L 304.128 136.196927 
L 313.056 133.599309 
L 321.984 127.380944 
L 330.912 131.52911 
L 339.84 131.63703 
L 348.768 131.878891 
L 357.696 128.835045 
L 366.624 111.933528 
L 375.552 111.993995 
L 384.48 112.28785 
L 393.408 103.248305 
L 402.336 97.29644 
L 411.264 88.425726 
L 420.192 86.883152 
L 429.12 79.824321 
L 438.048 75.294169 
L 446.976 75.409117 
L 455.904 76.494087 
L 464.832 75.434952 
L 473.76 76.539589 
L 482.688 75.379795 
L 491.616 73.459824 
L 500.544 74.4462 
L 509.472 75.358948 
L 518.4 75.266661 
L 518.4 147.615202 
L 518.4 147.615202 
L 509.472 147.011467 
L 500.544 144.784271 
L 491.616 143.299254 
L 482.688 146.99497 
L 473.76 147.886322 
L 464.832 146.458805 
L 455.904 147.952426 
L 446.976 146.419733 
L 438.048 147.22887 
L 429.12 154.691481 
L 420.192 162.573579 
L 411.264 163.369135 
L 402.336 169.928818 
L 393.408 172.267306 
L 384.48 174.538043 
L 375.552 173.771681 
L 366.624 173.628846 
L 357.696 174.15122 
L 348.768 172.757468 
L 339.84 172.363196 
L 330.912 171.307318 
L 321.984 170.6915 
L 313.056 168.254461 
L 304.128 165.813978 
L 295.2 162.766243 
L 286.272 160.990255 
L 277.344 160.943434 
L 268.416 159.45405 
L 259.488 157.546175 
L 250.56 156.623501 
L 241.632 155.598719 
L 232.704 158.788154 
L 223.776 161.607427 
L 214.848 160.443448 
L 205.92 162.418343 
L 196.992 159.47646 
L 188.064 157.709887 
L 179.136 154.511372 
L 170.208 153.464403 
L 161.28 149.575449 
L 152.352 147.000789 
L 143.424 144.766154 
L 134.496 147.377862 
L 125.568 149.375344 
L 116.64 147.980405 
L 107.712 144.558238 
L 98.784 136.545564 
L 89.856 142.781545 
L 80.928 138.049724 
L 72 139.077347 
z
" style="fill:#d62728;fill-opacity:0.3;"/>
   </g>
   <g id="PolyCollection_5">
    <path clip-path="url(#p57df6b3745)" d="M 72 146.149512 
L 72 106.317554 
L 80.928 112.250476 
L 89.856 115.001699 
L 98.784 115.250594 
L 107.712 120.394665 
L 116.64 123.813785 
L 125.568 107.049151 
L 134.496 91.458009 
L 143.424 93.683622 
L 152.352 98.979617 
L 161.28 116.758384 
L 170.208 130.8848 
L 179.136 116.442496 
L 188.064 116.139346 
L 196.992 110.369674 
L 205.92 99.983056 
L 214.848 95.526763 
L 223.776 78.206175 
L 232.704 71.313291 
L 241.632 70.313252 
L 250.56 70.291434 
L 259.488 69.550562 
L 268.416 69.960858 
L 277.344 70.526479 
L 286.272 70.382145 
L 295.2 69.928258 
L 304.128 70.923877 
L 313.056 70.569279 
L 321.984 69.80237 
L 330.912 69.350579 
L 339.84 69.441995 
L 348.768 69.6079 
L 357.696 69.749967 
L 366.624 70.230444 
L 375.552 69.975803 
L 384.48 70.523909 
L 393.408 70.255665 
L 402.336 70.548928 
L 411.264 70.632268 
L 420.192 69.687722 
L 429.12 69.637584 
L 438.048 70.746684 
L 446.976 68.128641 
L 455.904 67.91556 
L 464.832 68.792914 
L 473.76 69.016582 
L 482.688 69.480158 
L 491.616 69.946367 
L 500.544 69.782676 
L 509.472 73.274923 
L 518.4 75.697427 
L 518.4 98.841702 
L 518.4 98.841702 
L 509.472 104.259259 
L 500.544 117.165185 
L 491.616 116.744479 
L 482.688 120.246979 
L 473.76 124.168426 
L 464.832 121.713034 
L 455.904 134.170281 
L 446.976 129.817416 
L 438.048 137.612759 
L 429.12 128.364049 
L 420.192 131.618403 
L 411.264 132.200524 
L 402.336 125.728061 
L 393.408 126.434097 
L 384.48 119.411056 
L 375.552 124.600394 
L 366.624 115.652914 
L 357.696 119.060934 
L 348.768 122.036787 
L 339.84 125.362643 
L 330.912 122.50209 
L 321.984 118.60625 
L 313.056 114.903061 
L 304.128 114.145943 
L 295.2 118.732939 
L 286.272 121.846659 
L 277.344 114.841118 
L 268.416 125.787497 
L 259.488 128.671478 
L 250.56 130.104306 
L 241.632 115.192797 
L 232.704 133.795746 
L 223.776 154.269979 
L 214.848 170.976879 
L 205.92 171.243142 
L 196.992 172.744435 
L 188.064 170.228791 
L 179.136 165.822722 
L 170.208 161.353816 
L 161.28 158.501422 
L 152.352 153.267313 
L 143.424 149.16804 
L 134.496 149.429227 
L 125.568 160.104934 
L 116.64 158.180535 
L 107.712 152.415266 
L 98.784 141.966249 
L 89.856 152.272076 
L 80.928 143.789256 
L 72 146.149512 
z
" style="fill:#9467bd;fill-opacity:0.3;"/>
   </g>
   <g id="PolyCollection_6">
    <path clip-path="url(#p57df6b3745)" d="M 72 145.286814 
L 72 106.494387 
L 80.928 111.901752 
L 89.856 114.924641 
L 98.784 119.276375 
L 107.712 126.645736 
L 116.64 133.774649 
L 125.568 127.591229 
L 134.496 123.698877 
L 143.424 127.125551 
L 152.352 130.836178 
L 161.28 134.76055 
L 170.208 138.707702 
L 179.136 143.114861 
L 188.064 141.669193 
L 196.992 140.11243 
L 205.92 131.116476 
L 214.848 130.055794 
L 223.776 132.250907 
L 232.704 134.310285 
L 241.632 136.088552 
L 250.56 137.967408 
L 259.488 139.913966 
L 268.416 141.868125 
L 277.344 144.163768 
L 286.272 146.539531 
L 295.2 148.177865 
L 304.128 147.960762 
L 313.056 146.389101 
L 321.984 147.87943 
L 330.912 146.90906 
L 339.84 146.1201 
L 348.768 145.821752 
L 357.696 141.296014 
L 366.624 139.481927 
L 375.552 138.603602 
L 384.48 139.414621 
L 393.408 140.422681 
L 402.336 140.839768 
L 411.264 141.926009 
L 420.192 143.024941 
L 429.12 143.413636 
L 438.048 144.415537 
L 446.976 145.064401 
L 455.904 145.663269 
L 464.832 146.077795 
L 473.76 147.216291 
L 482.688 147.7029 
L 491.616 148.83592 
L 500.544 149.969334 
L 509.472 151.111344 
L 518.4 152.158636 
L 518.4 169.101242 
L 518.4 169.101242 
L 509.472 167.503822 
L 500.544 165.898253 
L 491.616 164.336959 
L 482.688 162.834943 
L 473.76 163.06396 
L 464.832 161.80598 
L 455.904 161.32443 
L 446.976 163.151007 
L 438.048 162.312435 
L 429.12 161.321815 
L 420.192 162.711215 
L 411.264 160.920416 
L 402.336 159.651742 
L 393.408 159.868696 
L 384.48 159.539232 
L 375.552 159.30659 
L 366.624 163.87754 
L 357.696 166.822966 
L 348.768 169.87286 
L 339.84 168.966041 
L 330.912 169.162554 
L 321.984 169.360064 
L 313.056 167.794693 
L 304.128 168.528443 
L 295.2 167.209836 
L 286.272 164.426672 
L 277.344 161.108408 
L 268.416 157.923051 
L 259.488 155.724632 
L 250.56 154.065665 
L 241.632 153.838119 
L 232.704 151.522224 
L 223.776 149.780726 
L 214.848 147.537844 
L 205.92 155.420524 
L 196.992 164.45023 
L 188.064 163.088047 
L 179.136 162.950739 
L 170.208 156.830051 
L 161.28 151.934936 
L 152.352 146.835774 
L 143.424 143.898528 
L 134.496 144.205316 
L 125.568 151.520899 
L 116.64 155.475547 
L 107.712 147.552944 
L 98.784 137.215021 
L 89.856 145.557056 
L 80.928 144.460853 
L 72 145.286814 
z
" style="fill:#8c564b;fill-opacity:0.3;"/>
   </g>
   <g id="PolyCollection_7">
    <path clip-path="url(#p57df6b3745)" d="M 72 265.364081 
L 72 201.468847 
L 80.928 200.549268 
L 89.856 206.618238 
L 98.784 177.299956 
L 98.784 296.899253 
L 98.784 296.899253 
L 89.856 245.93594 
L 80.928 261.812285 
L 72 265.364081 
z
" style="fill:#e377c2;fill-opacity:0.3;"/>
    <path clip-path="url(#p57df6b3745)" d="M 116.64 284.509327 
L 116.64 172.292786 
L 125.568 170.26934 
L 134.496 180.790764 
L 143.424 158.735239 
L 152.352 182.498672 
L 152.352 268.582995 
L 152.352 268.582995 
L 143.424 278.891073 
L 134.496 264.025543 
L 125.568 266.293321 
L 116.64 284.509327 
z
" style="fill:#e377c2;fill-opacity:0.3;"/>
    <path clip-path="url(#p57df6b3745)" d="M 179.136 268.121152 
L 179.136 154.783777 
L 179.136 268.121152 
L 179.136 268.121152 
z
" style="fill:#e377c2;fill-opacity:0.3;"/>
    <path clip-path="url(#p57df6b3745)" d="M 232.704 266.548453 
L 232.704 170.176713 
L 232.704 266.548453 
L 232.704 266.548453 
z
" style="fill:#e377c2;fill-opacity:0.3;"/>
    <path clip-path="url(#p57df6b3745)" d="M 250.56 240.236858 
L 250.56 184.216952 
L 250.56 240.236858 
L 250.56 240.236858 
z
" style="fill:#e377c2;fill-opacity:0.3;"/>
    <path clip-path="url(#p57df6b3745)" d="M 268.416 242.179694 
L 268.416 180.292398 
L 268.416 242.179694 
L 268.416 242.179694 
z
" style="fill:#e377c2;fill-opacity:0.3;"/>
    <path clip-path="url(#p57df6b3745)" d="M 295.2 244.391388 
L 295.2 159.293187 
L 295.2 244.391388 
L 295.2 244.391388 
z
" style="fill:#e377c2;fill-opacity:0.3;"/>
    <path clip-path="url(#p57df6b3745)" d="M 429.12 249.334108 
L 429.12 152.638773 
L 429.12 249.334108 
L 429.12 249.334108 
z
" style="fill:#e377c2;fill-opacity:0.3;"/>
    <path clip-path="url(#p57df6b3745)" d="M 446.976 224.928999 
L 446.976 178.227072 
L 446.976 224.928999 
L 446.976 224.928999 
z
" style="fill:#e377c2;fill-opacity:0.3;"/>
   </g>
   <g id="matplotlib.axis_1">
    <g id="xtick_1">
     <g id="line2d_1">
      <path clip-path="url(#p57df6b3745)" d="M 72 384.48 
L 72 51.84 
" style="fill:none;stroke:#b0b0b0;stroke-linecap:square;stroke-width:0.8;"/>
     </g>
     <g id="line2d_2">
      <defs>
       <path d="M 0 0 
L 0 3.5 
" id="m368112231c" style="stroke:#000000;stroke-width:0.8;"/>
      </defs>
      <g>
       <use style="stroke:#000000;stroke-width:0.8;" x="72" xlink:href="#m368112231c" y="384.48"/>
      </g>
     </g>
     <g id="text_1">
      <!-- 0 -->
      <defs>
       <path d="M 31.78125 66.40625 
Q 24.171875 66.40625 20.328125 58.90625 
Q 16.5 51.421875 16.5 36.375 
Q 16.5 21.390625 20.328125 13.890625 
Q 24.171875 6.390625 31.78125 6.390625 
Q 39.453125 6.390625 43.28125 13.890625 
Q 47.125 21.390625 47.125 36.375 
Q 47.125 51.421875 43.28125 58.90625 
Q 39.453125 66.40625 31.78125 66.40625 
z
M 31.78125 74.21875 
Q 44.046875 74.21875 50.515625 64.515625 
Q 56.984375 54.828125 56.984375 36.375 
Q 56.984375 17.96875 50.515625 8.265625 
Q 44.046875 -1.421875 31.78125 -1.421875 
Q 19.53125 -1.421875 13.0625 8.265625 
Q 6.59375 17.96875 6.59375 36.375 
Q 6.59375 54.828125 13.0625 64.515625 
Q 19.53125 74.21875 31.78125 74.21875 
z
" id="DejaVuSans-48"/>
      </defs>
      <g transform="translate(68.81875 399.078438)scale(0.1 -0.1)">
       <use xlink:href="#DejaVuSans-48"/>
      </g>
     </g>
    </g>
    <g id="xtick_2">
     <g id="line2d_3">
      <path clip-path="url(#p57df6b3745)" d="M 161.28 384.48 
L 161.28 51.84 
" style="fill:none;stroke:#b0b0b0;stroke-linecap:square;stroke-width:0.8;"/>
     </g>
     <g id="line2d_4">
      <g>
       <use style="stroke:#000000;stroke-width:0.8;" x="161.28" xlink:href="#m368112231c" y="384.48"/>
      </g>
     </g>
     <g id="text_2">
      <!-- 10 -->
      <defs>
       <path d="M 12.40625 8.296875 
L 28.515625 8.296875 
L 28.515625 63.921875 
L 10.984375 60.40625 
L 10.984375 69.390625 
L 28.421875 72.90625 
L 38.28125 72.90625 
L 38.28125 8.296875 
L 54.390625 8.296875 
L 54.390625 0 
L 12.40625 0 
z
" id="DejaVuSans-49"/>
      </defs>
      <g transform="translate(154.9175 399.078438)scale(0.1 -0.1)">
       <use xlink:href="#DejaVuSans-49"/>
       <use x="63.623047" xlink:href="#DejaVuSans-48"/>
      </g>
     </g>
    </g>
    <g id="xtick_3">
     <g id="line2d_5">
      <path clip-path="url(#p57df6b3745)" d="M 250.56 384.48 
L 250.56 51.84 
" style="fill:none;stroke:#b0b0b0;stroke-linecap:square;stroke-width:0.8;"/>
     </g>
     <g id="line2d_6">
      <g>
       <use style="stroke:#000000;stroke-width:0.8;" x="250.56" xlink:href="#m368112231c" y="384.48"/>
      </g>
     </g>
     <g id="text_3">
      <!-- 20 -->
      <defs>
       <path d="M 19.1875 8.296875 
L 53.609375 8.296875 
L 53.609375 0 
L 7.328125 0 
L 7.328125 8.296875 
Q 12.9375 14.109375 22.625 23.890625 
Q 32.328125 33.6875 34.8125 36.53125 
Q 39.546875 41.84375 41.421875 45.53125 
Q 43.3125 49.21875 43.3125 52.78125 
Q 43.3125 58.59375 39.234375 62.25 
Q 35.15625 65.921875 28.609375 65.921875 
Q 23.96875 65.921875 18.8125 64.3125 
Q 13.671875 62.703125 7.8125 59.421875 
L 7.8125 69.390625 
Q 13.765625 71.78125 18.9375 73 
Q 24.125 74.21875 28.421875 74.21875 
Q 39.75 74.21875 46.484375 68.546875 
Q 53.21875 62.890625 53.21875 53.421875 
Q 53.21875 48.921875 51.53125 44.890625 
Q 49.859375 40.875 45.40625 35.40625 
Q 44.1875 33.984375 37.640625 27.21875 
Q 31.109375 20.453125 19.1875 8.296875 
z
" id="DejaVuSans-50"/>
      </defs>
      <g transform="translate(244.1975 399.078438)scale(0.1 -0.1)">
       <use xlink:href="#DejaVuSans-50"/>
       <use x="63.623047" xlink:href="#DejaVuSans-48"/>
      </g>
     </g>
    </g>
    <g id="xtick_4">
     <g id="line2d_7">
      <path clip-path="url(#p57df6b3745)" d="M 339.84 384.48 
L 339.84 51.84 
" style="fill:none;stroke:#b0b0b0;stroke-linecap:square;stroke-width:0.8;"/>
     </g>
     <g id="line2d_8">
      <g>
       <use style="stroke:#000000;stroke-width:0.8;" x="339.84" xlink:href="#m368112231c" y="384.48"/>
      </g>
     </g>
     <g id="text_4">
      <!-- 30 -->
      <defs>
       <path d="M 40.578125 39.3125 
Q 47.65625 37.796875 51.625 33 
Q 55.609375 28.21875 55.609375 21.1875 
Q 55.609375 10.40625 48.1875 4.484375 
Q 40.765625 -1.421875 27.09375 -1.421875 
Q 22.515625 -1.421875 17.65625 -0.515625 
Q 12.796875 0.390625 7.625 2.203125 
L 7.625 11.71875 
Q 11.71875 9.328125 16.59375 8.109375 
Q 21.484375 6.890625 26.8125 6.890625 
Q 36.078125 6.890625 40.9375 10.546875 
Q 45.796875 14.203125 45.796875 21.1875 
Q 45.796875 27.640625 41.28125 31.265625 
Q 36.765625 34.90625 28.71875 34.90625 
L 20.21875 34.90625 
L 20.21875 43.015625 
L 29.109375 43.015625 
Q 36.375 43.015625 40.234375 45.921875 
Q 44.09375 48.828125 44.09375 54.296875 
Q 44.09375 59.90625 40.109375 62.90625 
Q 36.140625 65.921875 28.71875 65.921875 
Q 24.65625 65.921875 20.015625 65.03125 
Q 15.375 64.15625 9.8125 62.3125 
L 9.8125 71.09375 
Q 15.4375 72.65625 20.34375 73.4375 
Q 25.25 74.21875 29.59375 74.21875 
Q 40.828125 74.21875 47.359375 69.109375 
Q 53.90625 64.015625 53.90625 55.328125 
Q 53.90625 49.265625 50.4375 45.09375 
Q 46.96875 40.921875 40.578125 39.3125 
z
" id="DejaVuSans-51"/>
      </defs>
      <g transform="translate(333.4775 399.078438)scale(0.1 -0.1)">
       <use xlink:href="#DejaVuSans-51"/>
       <use x="63.623047" xlink:href="#DejaVuSans-48"/>
      </g>
     </g>
    </g>
    <g id="xtick_5">
     <g id="line2d_9">
      <path clip-path="url(#p57df6b3745)" d="M 429.12 384.48 
L 429.12 51.84 
" style="fill:none;stroke:#b0b0b0;stroke-linecap:square;stroke-width:0.8;"/>
     </g>
     <g id="line2d_10">
      <g>
       <use style="stroke:#000000;stroke-width:0.8;" x="429.12" xlink:href="#m368112231c" y="384.48"/>
      </g>
     </g>
     <g id="text_5">
      <!-- 40 -->
      <defs>
       <path d="M 37.796875 64.3125 
L 12.890625 25.390625 
L 37.796875 25.390625 
z
M 35.203125 72.90625 
L 47.609375 72.90625 
L 47.609375 25.390625 
L 58.015625 25.390625 
L 58.015625 17.1875 
L 47.609375 17.1875 
L 47.609375 0 
L 37.796875 0 
L 37.796875 17.1875 
L 4.890625 17.1875 
L 4.890625 26.703125 
z
" id="DejaVuSans-52"/>
      </defs>
      <g transform="translate(422.7575 399.078438)scale(0.1 -0.1)">
       <use xlink:href="#DejaVuSans-52"/>
       <use x="63.623047" xlink:href="#DejaVuSans-48"/>
      </g>
     </g>
    </g>
    <g id="xtick_6">
     <g id="line2d_11">
      <path clip-path="url(#p57df6b3745)" d="M 518.4 384.48 
L 518.4 51.84 
" style="fill:none;stroke:#b0b0b0;stroke-linecap:square;stroke-width:0.8;"/>
     </g>
     <g id="line2d_12">
      <g>
       <use style="stroke:#000000;stroke-width:0.8;" x="518.4" xlink:href="#m368112231c" y="384.48"/>
      </g>
     </g>
     <g id="text_6">
      <!-- 50 -->
      <defs>
       <path d="M 10.796875 72.90625 
L 49.515625 72.90625 
L 49.515625 64.59375 
L 19.828125 64.59375 
L 19.828125 46.734375 
Q 21.96875 47.46875 24.109375 47.828125 
Q 26.265625 48.1875 28.421875 48.1875 
Q 40.625 48.1875 47.75 41.5 
Q 54.890625 34.8125 54.890625 23.390625 
Q 54.890625 11.625 47.5625 5.09375 
Q 40.234375 -1.421875 26.90625 -1.421875 
Q 22.3125 -1.421875 17.546875 -0.640625 
Q 12.796875 0.140625 7.71875 1.703125 
L 7.71875 11.625 
Q 12.109375 9.234375 16.796875 8.0625 
Q 21.484375 6.890625 26.703125 6.890625 
Q 35.15625 6.890625 40.078125 11.328125 
Q 45.015625 15.765625 45.015625 23.390625 
Q 45.015625 31 40.078125 35.4375 
Q 35.15625 39.890625 26.703125 39.890625 
Q 22.75 39.890625 18.8125 39.015625 
Q 14.890625 38.140625 10.796875 36.28125 
z
" id="DejaVuSans-53"/>
      </defs>
      <g transform="translate(512.0375 399.078438)scale(0.1 -0.1)">
       <use xlink:href="#DejaVuSans-53"/>
       <use x="63.623047" xlink:href="#DejaVuSans-48"/>
      </g>
     </g>
    </g>
    <g id="text_7">
     <!-- Iteration -->
     <defs>
      <path d="M 9.8125 72.90625 
L 19.671875 72.90625 
L 19.671875 0 
L 9.8125 0 
z
" id="DejaVuSans-73"/>
      <path d="M 18.3125 70.21875 
L 18.3125 54.6875 
L 36.8125 54.6875 
L 36.8125 47.703125 
L 18.3125 47.703125 
L 18.3125 18.015625 
Q 18.3125 11.328125 20.140625 9.421875 
Q 21.96875 7.515625 27.59375 7.515625 
L 36.8125 7.515625 
L 36.8125 0 
L 27.59375 0 
Q 17.1875 0 13.234375 3.875 
Q 9.28125 7.765625 9.28125 18.015625 
L 9.28125 47.703125 
L 2.6875 47.703125 
L 2.6875 54.6875 
L 9.28125 54.6875 
L 9.28125 70.21875 
z
" id="DejaVuSans-116"/>
      <path d="M 56.203125 29.59375 
L 56.203125 25.203125 
L 14.890625 25.203125 
Q 15.484375 15.921875 20.484375 11.0625 
Q 25.484375 6.203125 34.421875 6.203125 
Q 39.59375 6.203125 44.453125 7.46875 
Q 49.3125 8.734375 54.109375 11.28125 
L 54.109375 2.78125 
Q 49.265625 0.734375 44.1875 -0.34375 
Q 39.109375 -1.421875 33.890625 -1.421875 
Q 20.796875 -1.421875 13.15625 6.1875 
Q 5.515625 13.8125 5.515625 26.8125 
Q 5.515625 40.234375 12.765625 48.109375 
Q 20.015625 56 32.328125 56 
Q 43.359375 56 49.78125 48.890625 
Q 56.203125 41.796875 56.203125 29.59375 
z
M 47.21875 32.234375 
Q 47.125 39.59375 43.09375 43.984375 
Q 39.0625 48.390625 32.421875 48.390625 
Q 24.90625 48.390625 20.390625 44.140625 
Q 15.875 39.890625 15.1875 32.171875 
z
" id="DejaVuSans-101"/>
      <path d="M 41.109375 46.296875 
Q 39.59375 47.171875 37.8125 47.578125 
Q 36.03125 48 33.890625 48 
Q 26.265625 48 22.1875 43.046875 
Q 18.109375 38.09375 18.109375 28.8125 
L 18.109375 0 
L 9.078125 0 
L 9.078125 54.6875 
L 18.109375 54.6875 
L 18.109375 46.1875 
Q 20.953125 51.171875 25.484375 53.578125 
Q 30.03125 56 36.53125 56 
Q 37.453125 56 38.578125 55.875 
Q 39.703125 55.765625 41.0625 55.515625 
z
" id="DejaVuSans-114"/>
      <path d="M 34.28125 27.484375 
Q 23.390625 27.484375 19.1875 25 
Q 14.984375 22.515625 14.984375 16.5 
Q 14.984375 11.71875 18.140625 8.90625 
Q 21.296875 6.109375 26.703125 6.109375 
Q 34.1875 6.109375 38.703125 11.40625 
Q 43.21875 16.703125 43.21875 25.484375 
L 43.21875 27.484375 
z
M 52.203125 31.203125 
L 52.203125 0 
L 43.21875 0 
L 43.21875 8.296875 
Q 40.140625 3.328125 35.546875 0.953125 
Q 30.953125 -1.421875 24.3125 -1.421875 
Q 15.921875 -1.421875 10.953125 3.296875 
Q 6 8.015625 6 15.921875 
Q 6 25.140625 12.171875 29.828125 
Q 18.359375 34.515625 30.609375 34.515625 
L 43.21875 34.515625 
L 43.21875 35.40625 
Q 43.21875 41.609375 39.140625 45 
Q 35.0625 48.390625 27.6875 48.390625 
Q 23 48.390625 18.546875 47.265625 
Q 14.109375 46.140625 10.015625 43.890625 
L 10.015625 52.203125 
Q 14.9375 54.109375 19.578125 55.046875 
Q 24.21875 56 28.609375 56 
Q 40.484375 56 46.34375 49.84375 
Q 52.203125 43.703125 52.203125 31.203125 
z
" id="DejaVuSans-97"/>
      <path d="M 9.421875 54.6875 
L 18.40625 54.6875 
L 18.40625 0 
L 9.421875 0 
z
M 9.421875 75.984375 
L 18.40625 75.984375 
L 18.40625 64.59375 
L 9.421875 64.59375 
z
" id="DejaVuSans-105"/>
      <path d="M 30.609375 48.390625 
Q 23.390625 48.390625 19.1875 42.75 
Q 14.984375 37.109375 14.984375 27.296875 
Q 14.984375 17.484375 19.15625 11.84375 
Q 23.34375 6.203125 30.609375 6.203125 
Q 37.796875 6.203125 41.984375 11.859375 
Q 46.1875 17.53125 46.1875 27.296875 
Q 46.1875 37.015625 41.984375 42.703125 
Q 37.796875 48.390625 30.609375 48.390625 
z
M 30.609375 56 
Q 42.328125 56 49.015625 48.375 
Q 55.71875 40.765625 55.71875 27.296875 
Q 55.71875 13.875 49.015625 6.21875 
Q 42.328125 -1.421875 30.609375 -1.421875 
Q 18.84375 -1.421875 12.171875 6.21875 
Q 5.515625 13.875 5.515625 27.296875 
Q 5.515625 40.765625 12.171875 48.375 
Q 18.84375 56 30.609375 56 
z
" id="DejaVuSans-111"/>
      <path d="M 54.890625 33.015625 
L 54.890625 0 
L 45.90625 0 
L 45.90625 32.71875 
Q 45.90625 40.484375 42.875 44.328125 
Q 39.84375 48.1875 33.796875 48.1875 
Q 26.515625 48.1875 22.3125 43.546875 
Q 18.109375 38.921875 18.109375 30.90625 
L 18.109375 0 
L 9.078125 0 
L 9.078125 54.6875 
L 18.109375 54.6875 
L 18.109375 46.1875 
Q 21.34375 51.125 25.703125 53.5625 
Q 30.078125 56 35.796875 56 
Q 45.21875 56 50.046875 50.171875 
Q 54.890625 44.34375 54.890625 33.015625 
z
" id="DejaVuSans-110"/>
     </defs>
     <g transform="translate(273.991406 412.756563)scale(0.1 -0.1)">
      <use xlink:href="#DejaVuSans-73"/>
      <use x="29.492188" xlink:href="#DejaVuSans-116"/>
      <use x="68.701172" xlink:href="#DejaVuSans-101"/>
      <use x="130.224609" xlink:href="#DejaVuSans-114"/>
      <use x="171.337891" xlink:href="#DejaVuSans-97"/>
      <use x="232.617188" xlink:href="#DejaVuSans-116"/>
      <use x="271.826172" xlink:href="#DejaVuSans-105"/>
      <use x="299.609375" xlink:href="#DejaVuSans-111"/>
      <use x="360.791016" xlink:href="#DejaVuSans-110"/>
     </g>
    </g>
   </g>
   <g id="matplotlib.axis_2">
    <g id="ytick_1">
     <g id="line2d_13">
      <path clip-path="url(#p57df6b3745)" d="M 72 384.48 
L 518.4 384.48 
" style="fill:none;stroke:#b0b0b0;stroke-linecap:square;stroke-width:0.8;"/>
     </g>
     <g id="line2d_14">
      <defs>
       <path d="M 0 0 
L -3.5 0 
" id="m83c86b748f" style="stroke:#000000;stroke-width:0.8;"/>
      </defs>
      <g>
       <use style="stroke:#000000;stroke-width:0.8;" x="72" xlink:href="#m83c86b748f" y="384.48"/>
      </g>
     </g>
     <g id="text_8">
      <!-- $\mathdefault{10^{-12}}$ -->
      <defs>
       <path d="M 10.59375 35.5 
L 73.1875 35.5 
L 73.1875 27.203125 
L 10.59375 27.203125 
z
" id="DejaVuSans-8722"/>
      </defs>
      <g transform="translate(37.1 388.279219)scale(0.1 -0.1)">
       <use transform="translate(0 0.765625)" xlink:href="#DejaVuSans-49"/>
       <use transform="translate(63.623047 0.765625)" xlink:href="#DejaVuSans-48"/>
       <use transform="translate(128.203125 39.046875)scale(0.7)" xlink:href="#DejaVuSans-8722"/>
       <use transform="translate(186.855469 39.046875)scale(0.7)" xlink:href="#DejaVuSans-49"/>
       <use transform="translate(231.391602 39.046875)scale(0.7)" xlink:href="#DejaVuSans-50"/>
      </g>
     </g>
    </g>
    <g id="ytick_2">
     <g id="line2d_15">
      <path clip-path="url(#p57df6b3745)" d="M 72 336.96 
L 518.4 336.96 
" style="fill:none;stroke:#b0b0b0;stroke-linecap:square;stroke-width:0.8;"/>
     </g>
     <g id="line2d_16">
      <g>
       <use style="stroke:#000000;stroke-width:0.8;" x="72" xlink:href="#m83c86b748f" y="336.96"/>
      </g>
     </g>
     <g id="text_9">
      <!-- $\mathdefault{10^{-10}}$ -->
      <g transform="translate(37.1 340.759219)scale(0.1 -0.1)">
       <use transform="translate(0 0.765625)" xlink:href="#DejaVuSans-49"/>
       <use transform="translate(63.623047 0.765625)" xlink:href="#DejaVuSans-48"/>
       <use transform="translate(128.203125 39.046875)scale(0.7)" xlink:href="#DejaVuSans-8722"/>
       <use transform="translate(186.855469 39.046875)scale(0.7)" xlink:href="#DejaVuSans-49"/>
       <use transform="translate(231.391602 39.046875)scale(0.7)" xlink:href="#DejaVuSans-48"/>
      </g>
     </g>
    </g>
    <g id="ytick_3">
     <g id="line2d_17">
      <path clip-path="url(#p57df6b3745)" d="M 72 289.44 
L 518.4 289.44 
" style="fill:none;stroke:#b0b0b0;stroke-linecap:square;stroke-width:0.8;"/>
     </g>
     <g id="line2d_18">
      <g>
       <use style="stroke:#000000;stroke-width:0.8;" x="72" xlink:href="#m83c86b748f" y="289.44"/>
      </g>
     </g>
     <g id="text_10">
      <!-- $\mathdefault{10^{-8}}$ -->
      <defs>
       <path d="M 31.78125 34.625 
Q 24.75 34.625 20.71875 30.859375 
Q 16.703125 27.09375 16.703125 20.515625 
Q 16.703125 13.921875 20.71875 10.15625 
Q 24.75 6.390625 31.78125 6.390625 
Q 38.8125 6.390625 42.859375 10.171875 
Q 46.921875 13.96875 46.921875 20.515625 
Q 46.921875 27.09375 42.890625 30.859375 
Q 38.875 34.625 31.78125 34.625 
z
M 21.921875 38.8125 
Q 15.578125 40.375 12.03125 44.71875 
Q 8.5 49.078125 8.5 55.328125 
Q 8.5 64.0625 14.71875 69.140625 
Q 20.953125 74.21875 31.78125 74.21875 
Q 42.671875 74.21875 48.875 69.140625 
Q 55.078125 64.0625 55.078125 55.328125 
Q 55.078125 49.078125 51.53125 44.71875 
Q 48 40.375 41.703125 38.8125 
Q 48.828125 37.15625 52.796875 32.3125 
Q 56.78125 27.484375 56.78125 20.515625 
Q 56.78125 9.90625 50.3125 4.234375 
Q 43.84375 -1.421875 31.78125 -1.421875 
Q 19.734375 -1.421875 13.25 4.234375 
Q 6.78125 9.90625 6.78125 20.515625 
Q 6.78125 27.484375 10.78125 32.3125 
Q 14.796875 37.15625 21.921875 38.8125 
z
M 18.3125 54.390625 
Q 18.3125 48.734375 21.84375 45.5625 
Q 25.390625 42.390625 31.78125 42.390625 
Q 38.140625 42.390625 41.71875 45.5625 
Q 45.3125 48.734375 45.3125 54.390625 
Q 45.3125 60.0625 41.71875 63.234375 
Q 38.140625 66.40625 31.78125 66.40625 
Q 25.390625 66.40625 21.84375 63.234375 
Q 18.3125 60.0625 18.3125 54.390625 
z
" id="DejaVuSans-56"/>
      </defs>
      <g transform="translate(41.5 293.239219)scale(0.1 -0.1)">
       <use transform="translate(0 0.765625)" xlink:href="#DejaVuSans-49"/>
       <use transform="translate(63.623047 0.765625)" xlink:href="#DejaVuSans-48"/>
       <use transform="translate(128.203125 39.046875)scale(0.7)" xlink:href="#DejaVuSans-8722"/>
       <use transform="translate(186.855469 39.046875)scale(0.7)" xlink:href="#DejaVuSans-56"/>
      </g>
     </g>
    </g>
    <g id="ytick_4">
     <g id="line2d_19">
      <path clip-path="url(#p57df6b3745)" d="M 72 241.92 
L 518.4 241.92 
" style="fill:none;stroke:#b0b0b0;stroke-linecap:square;stroke-width:0.8;"/>
     </g>
     <g id="line2d_20">
      <g>
       <use style="stroke:#000000;stroke-width:0.8;" x="72" xlink:href="#m83c86b748f" y="241.92"/>
      </g>
     </g>
     <g id="text_11">
      <!-- $\mathdefault{10^{-6}}$ -->
      <defs>
       <path d="M 33.015625 40.375 
Q 26.375 40.375 22.484375 35.828125 
Q 18.609375 31.296875 18.609375 23.390625 
Q 18.609375 15.53125 22.484375 10.953125 
Q 26.375 6.390625 33.015625 6.390625 
Q 39.65625 6.390625 43.53125 10.953125 
Q 47.40625 15.53125 47.40625 23.390625 
Q 47.40625 31.296875 43.53125 35.828125 
Q 39.65625 40.375 33.015625 40.375 
z
M 52.59375 71.296875 
L 52.59375 62.3125 
Q 48.875 64.0625 45.09375 64.984375 
Q 41.3125 65.921875 37.59375 65.921875 
Q 27.828125 65.921875 22.671875 59.328125 
Q 17.53125 52.734375 16.796875 39.40625 
Q 19.671875 43.65625 24.015625 45.921875 
Q 28.375 48.1875 33.59375 48.1875 
Q 44.578125 48.1875 50.953125 41.515625 
Q 57.328125 34.859375 57.328125 23.390625 
Q 57.328125 12.15625 50.6875 5.359375 
Q 44.046875 -1.421875 33.015625 -1.421875 
Q 20.359375 -1.421875 13.671875 8.265625 
Q 6.984375 17.96875 6.984375 36.375 
Q 6.984375 53.65625 15.1875 63.9375 
Q 23.390625 74.21875 37.203125 74.21875 
Q 40.921875 74.21875 44.703125 73.484375 
Q 48.484375 72.75 52.59375 71.296875 
z
" id="DejaVuSans-54"/>
      </defs>
      <g transform="translate(41.5 245.719219)scale(0.1 -0.1)">
       <use transform="translate(0 0.765625)" xlink:href="#DejaVuSans-49"/>
       <use transform="translate(63.623047 0.765625)" xlink:href="#DejaVuSans-48"/>
       <use transform="translate(128.203125 39.046875)scale(0.7)" xlink:href="#DejaVuSans-8722"/>
       <use transform="translate(186.855469 39.046875)scale(0.7)" xlink:href="#DejaVuSans-54"/>
      </g>
     </g>
    </g>
    <g id="ytick_5">
     <g id="line2d_21">
      <path clip-path="url(#p57df6b3745)" d="M 72 194.4 
L 518.4 194.4 
" style="fill:none;stroke:#b0b0b0;stroke-linecap:square;stroke-width:0.8;"/>
     </g>
     <g id="line2d_22">
      <g>
       <use style="stroke:#000000;stroke-width:0.8;" x="72" xlink:href="#m83c86b748f" y="194.4"/>
      </g>
     </g>
     <g id="text_12">
      <!-- $\mathdefault{10^{-4}}$ -->
      <g transform="translate(41.5 198.199219)scale(0.1 -0.1)">
       <use transform="translate(0 0.684375)" xlink:href="#DejaVuSans-49"/>
       <use transform="translate(63.623047 0.684375)" xlink:href="#DejaVuSans-48"/>
       <use transform="translate(128.203125 38.965625)scale(0.7)" xlink:href="#DejaVuSans-8722"/>
       <use transform="translate(186.855469 38.965625)scale(0.7)" xlink:href="#DejaVuSans-52"/>
      </g>
     </g>
    </g>
    <g id="ytick_6">
     <g id="line2d_23">
      <path clip-path="url(#p57df6b3745)" d="M 72 146.88 
L 518.4 146.88 
" style="fill:none;stroke:#b0b0b0;stroke-linecap:square;stroke-width:0.8;"/>
     </g>
     <g id="line2d_24">
      <g>
       <use style="stroke:#000000;stroke-width:0.8;" x="72" xlink:href="#m83c86b748f" y="146.88"/>
      </g>
     </g>
     <g id="text_13">
      <!-- $\mathdefault{10^{-2}}$ -->
      <g transform="translate(41.5 150.679219)scale(0.1 -0.1)">
       <use transform="translate(0 0.765625)" xlink:href="#DejaVuSans-49"/>
       <use transform="translate(63.623047 0.765625)" xlink:href="#DejaVuSans-48"/>
       <use transform="translate(128.203125 39.046875)scale(0.7)" xlink:href="#DejaVuSans-8722"/>
       <use transform="translate(186.855469 39.046875)scale(0.7)" xlink:href="#DejaVuSans-50"/>
      </g>
     </g>
    </g>
    <g id="ytick_7">
     <g id="line2d_25">
      <path clip-path="url(#p57df6b3745)" d="M 72 99.36 
L 518.4 99.36 
" style="fill:none;stroke:#b0b0b0;stroke-linecap:square;stroke-width:0.8;"/>
     </g>
     <g id="line2d_26">
      <g>
       <use style="stroke:#000000;stroke-width:0.8;" x="72" xlink:href="#m83c86b748f" y="99.36"/>
      </g>
     </g>
     <g id="text_14">
      <!-- $\mathdefault{10^{0}}$ -->
      <g transform="translate(47.4 103.159219)scale(0.1 -0.1)">
       <use transform="translate(0 0.765625)" xlink:href="#DejaVuSans-49"/>
       <use transform="translate(63.623047 0.765625)" xlink:href="#DejaVuSans-48"/>
       <use transform="translate(128.203125 39.046875)scale(0.7)" xlink:href="#DejaVuSans-48"/>
      </g>
     </g>
    </g>
    <g id="ytick_8">
     <g id="line2d_27">
      <path clip-path="url(#p57df6b3745)" d="M 72 51.84 
L 518.4 51.84 
" style="fill:none;stroke:#b0b0b0;stroke-linecap:square;stroke-width:0.8;"/>
     </g>
     <g id="line2d_28">
      <g>
       <use style="stroke:#000000;stroke-width:0.8;" x="72" xlink:href="#m83c86b748f" y="51.84"/>
      </g>
     </g>
     <g id="text_15">
      <!-- $\mathdefault{10^{2}}$ -->
      <g transform="translate(47.4 55.639219)scale(0.1 -0.1)">
       <use transform="translate(0 0.765625)" xlink:href="#DejaVuSans-49"/>
       <use transform="translate(63.623047 0.765625)" xlink:href="#DejaVuSans-48"/>
       <use transform="translate(128.203125 39.046875)scale(0.7)" xlink:href="#DejaVuSans-50"/>
      </g>
     </g>
    </g>
    <g id="text_16">
     <!-- Integrated Variance -->
     <defs>
      <path d="M 45.40625 27.984375 
Q 45.40625 37.75 41.375 43.109375 
Q 37.359375 48.484375 30.078125 48.484375 
Q 22.859375 48.484375 18.828125 43.109375 
Q 14.796875 37.75 14.796875 27.984375 
Q 14.796875 18.265625 18.828125 12.890625 
Q 22.859375 7.515625 30.078125 7.515625 
Q 37.359375 7.515625 41.375 12.890625 
Q 45.40625 18.265625 45.40625 27.984375 
z
M 54.390625 6.78125 
Q 54.390625 -7.171875 48.1875 -13.984375 
Q 42 -20.796875 29.203125 -20.796875 
Q 24.46875 -20.796875 20.265625 -20.09375 
Q 16.0625 -19.390625 12.109375 -17.921875 
L 12.109375 -9.1875 
Q 16.0625 -11.328125 19.921875 -12.34375 
Q 23.78125 -13.375 27.78125 -13.375 
Q 36.625 -13.375 41.015625 -8.765625 
Q 45.40625 -4.15625 45.40625 5.171875 
L 45.40625 9.625 
Q 42.625 4.78125 38.28125 2.390625 
Q 33.9375 0 27.875 0 
Q 17.828125 0 11.671875 7.65625 
Q 5.515625 15.328125 5.515625 27.984375 
Q 5.515625 40.671875 11.671875 48.328125 
Q 17.828125 56 27.875 56 
Q 33.9375 56 38.28125 53.609375 
Q 42.625 51.21875 45.40625 46.390625 
L 45.40625 54.6875 
L 54.390625 54.6875 
z
" id="DejaVuSans-103"/>
      <path d="M 45.40625 46.390625 
L 45.40625 75.984375 
L 54.390625 75.984375 
L 54.390625 0 
L 45.40625 0 
L 45.40625 8.203125 
Q 42.578125 3.328125 38.25 0.953125 
Q 33.9375 -1.421875 27.875 -1.421875 
Q 17.96875 -1.421875 11.734375 6.484375 
Q 5.515625 14.40625 5.515625 27.296875 
Q 5.515625 40.1875 11.734375 48.09375 
Q 17.96875 56 27.875 56 
Q 33.9375 56 38.25 53.625 
Q 42.578125 51.265625 45.40625 46.390625 
z
M 14.796875 27.296875 
Q 14.796875 17.390625 18.875 11.75 
Q 22.953125 6.109375 30.078125 6.109375 
Q 37.203125 6.109375 41.296875 11.75 
Q 45.40625 17.390625 45.40625 27.296875 
Q 45.40625 37.203125 41.296875 42.84375 
Q 37.203125 48.484375 30.078125 48.484375 
Q 22.953125 48.484375 18.875 42.84375 
Q 14.796875 37.203125 14.796875 27.296875 
z
" id="DejaVuSans-100"/>
      <path id="DejaVuSans-32"/>
      <path d="M 28.609375 0 
L 0.78125 72.90625 
L 11.078125 72.90625 
L 34.1875 11.53125 
L 57.328125 72.90625 
L 67.578125 72.90625 
L 39.796875 0 
z
" id="DejaVuSans-86"/>
      <path d="M 48.78125 52.59375 
L 48.78125 44.1875 
Q 44.96875 46.296875 41.140625 47.34375 
Q 37.3125 48.390625 33.40625 48.390625 
Q 24.65625 48.390625 19.8125 42.84375 
Q 14.984375 37.3125 14.984375 27.296875 
Q 14.984375 17.28125 19.8125 11.734375 
Q 24.65625 6.203125 33.40625 6.203125 
Q 37.3125 6.203125 41.140625 7.25 
Q 44.96875 8.296875 48.78125 10.40625 
L 48.78125 2.09375 
Q 45.015625 0.34375 40.984375 -0.53125 
Q 36.96875 -1.421875 32.421875 -1.421875 
Q 20.0625 -1.421875 12.78125 6.34375 
Q 5.515625 14.109375 5.515625 27.296875 
Q 5.515625 40.671875 12.859375 48.328125 
Q 20.21875 56 33.015625 56 
Q 37.15625 56 41.109375 55.140625 
Q 45.0625 54.296875 48.78125 52.59375 
z
" id="DejaVuSans-99"/>
     </defs>
     <g transform="translate(31.020312 267.534219)rotate(-90)scale(0.1 -0.1)">
      <use xlink:href="#DejaVuSans-73"/>
      <use x="29.492188" xlink:href="#DejaVuSans-110"/>
      <use x="92.871094" xlink:href="#DejaVuSans-116"/>
      <use x="132.080078" xlink:href="#DejaVuSans-101"/>
      <use x="193.603516" xlink:href="#DejaVuSans-103"/>
      <use x="257.080078" xlink:href="#DejaVuSans-114"/>
      <use x="298.193359" xlink:href="#DejaVuSans-97"/>
      <use x="359.472656" xlink:href="#DejaVuSans-116"/>
      <use x="398.681641" xlink:href="#DejaVuSans-101"/>
      <use x="460.205078" xlink:href="#DejaVuSans-100"/>
      <use x="523.681641" xlink:href="#DejaVuSans-32"/>
      <use x="555.46875" xlink:href="#DejaVuSans-86"/>
      <use x="616.126953" xlink:href="#DejaVuSans-97"/>
      <use x="677.40625" xlink:href="#DejaVuSans-114"/>
      <use x="718.519531" xlink:href="#DejaVuSans-105"/>
      <use x="746.302734" xlink:href="#DejaVuSans-97"/>
      <use x="807.582031" xlink:href="#DejaVuSans-110"/>
      <use x="870.960938" xlink:href="#DejaVuSans-99"/>
      <use x="925.941406" xlink:href="#DejaVuSans-101"/>
     </g>
    </g>
   </g>
   <g id="line2d_29">
    <path clip-path="url(#p57df6b3745)" d="M 80.820764 433 
L 80.928 148.199192 
L 81.035236 433 
M 98.667174 433 
L 98.784 122.392344 
L 98.900826 433 
M 116.473403 433 
L 116.635718 -1 
M 125.569074 -1 
L 125.731448 433 
M 161.105613 433 
L 161.267783 -1 
M 163.220569 -1 
L 170.208 116.722454 
L 177.209337 -1 
M 180.590539 -1 
L 188.064 165.44862 
L 196.992 73.408994 
L 203.397852 -1 
M 205.930949 -1 
L 206.093142 433 
M 223.605026 433 
L 223.76726 -1 
M 224.368056 -1 
L 232.704 328.202915 
L 241.632 349.39007 
L 249.981571 -1 
M 251.541347 -1 
L 259.488 195.561881 
L 266.966444 -1 
M 269.878769 -1 
L 277.344 193.442127 
L 286.272 296.642591 
L 294.191865 -1 
M 296.663501 -1 
L 304.128 192.242885 
L 313.056 191.544595 
L 313.147082 433 
M 330.844133 433 
L 330.912 253.557112 
L 330.979867 433 
M 348.678176 433 
L 348.768 194.913247 
L 348.857824 433 
M 366.59328 433 
L 366.624 352.11581 
L 366.65472 433 
M 384.359119 433 
L 384.48 111.463214 
L 390.937183 -1 
M 394.998687 -1 
L 402.336 197.499917 
L 402.424858 433 
M 420.071394 433 
L 420.192 112.205078 
L 420.312606 433 
M 437.868867 433 
L 438.03095 -1 
M 439.761917 -1 
L 446.976 191.161368 
L 447.067225 433 
M 491.440351 433 
L 491.602499 -1 
M 491.629501 -1 
L 491.791649 433 
M 509.294216 433 
L 509.456323 -1 
" style="fill:none;stroke:#1f77b4;stroke-linecap:square;stroke-width:1.5;"/>
   </g>
   <g id="line2d_30">
    <path clip-path="url(#p57df6b3745)" d="M 72 134.890009 
L 80.928 138.59181 
L 89.856 138.891832 
L 98.784 99.783469 
L 107.712 94.625942 
L 116.64 108.944191 
L 125.568 98.593083 
L 134.496 89.83009 
L 143.424 88.909081 
L 152.352 94.368678 
L 161.28 89.672227 
L 170.208 89.004273 
L 179.136 88.733524 
L 188.064 85.221324 
L 196.992 92.336187 
L 205.92 87.688547 
L 214.848 91.640405 
L 223.776 90.292572 
L 232.704 89.459376 
L 241.632 86.67163 
L 250.56 90.47761 
L 259.488 85.305474 
L 268.416 88.682358 
L 277.344 86.988525 
L 286.272 85.337208 
L 295.2 85.347807 
L 304.128 85.358418 
L 313.056 85.36904 
L 321.984 87.144899 
L 330.912 85.390315 
L 339.84 85.40097 
L 348.768 85.411635 
L 357.696 86.827208 
L 366.624 85.432999 
L 375.552 85.443698 
L 384.48 85.454408 
L 393.408 85.465129 
L 402.336 85.475861 
L 411.264 85.486604 
L 420.192 85.497358 
L 429.12 85.508124 
L 438.048 85.518901 
L 446.976 85.529689 
L 455.904 85.540488 
L 464.832 85.551299 
L 473.76 85.562121 
L 482.688 85.572955 
L 491.616 85.583799 
L 500.544 85.594656 
L 509.472 85.605523 
L 518.4 85.616402 
" style="fill:none;stroke:#ff7f0e;stroke-linecap:square;stroke-width:1.5;"/>
   </g>
   <g id="line2d_31">
    <path clip-path="url(#p57df6b3745)" d="M 72 106.345854 
L 80.928 112.276842 
L 89.856 116.170406 
L 98.784 119.225216 
L 107.712 121.316505 
L 116.64 122.690563 
L 125.568 124.354375 
L 134.496 125.481278 
L 143.424 126.402079 
L 152.352 127.558531 
L 161.28 128.702436 
L 170.208 129.934858 
L 179.136 130.223816 
L 188.064 131.105816 
L 196.992 131.557345 
L 205.92 132.446628 
L 214.848 132.923716 
L 223.776 132.771736 
L 232.704 132.948234 
L 241.632 133.560547 
L 250.56 134.292007 
L 259.488 135.014432 
L 268.416 135.878537 
L 277.344 136.302341 
L 286.272 136.853207 
L 295.2 137.114994 
L 304.128 137.138285 
L 313.056 137.305775 
L 321.984 137.758153 
L 330.912 138.213825 
L 339.84 138.452471 
L 348.768 138.95524 
L 357.696 139.422635 
L 366.624 139.878744 
L 375.552 139.987162 
L 384.48 140.527894 
L 393.408 140.041874 
L 402.336 139.688074 
L 411.264 139.997153 
L 420.192 140.455071 
L 429.12 140.910535 
L 438.048 141.363793 
L 446.976 141.667079 
L 455.904 141.80417 
L 464.832 142.242999 
L 473.76 142.109995 
L 482.688 142.108283 
L 491.616 142.547069 
L 500.544 142.529738 
L 509.472 142.821651 
L 518.4 143.094862 
" style="fill:none;stroke:#2ca02c;stroke-linecap:square;stroke-width:1.5;"/>
   </g>
   <g id="line2d_32">
    <path clip-path="url(#p57df6b3745)" d="M 72 121.406652 
L 80.928 123.939467 
L 89.856 129.571168 
L 98.784 126.303322 
L 107.712 133.508057 
L 116.64 137.425475 
L 125.568 138.524267 
L 134.496 136.699306 
L 143.424 135.581332 
L 152.352 137.189687 
L 161.28 140.900636 
L 170.208 144.562401 
L 179.136 146.290916 
L 188.064 147.340396 
L 196.992 149.134323 
L 205.92 139.268639 
L 214.848 132.095128 
L 223.776 137.710677 
L 232.704 135.338176 
L 241.632 141.747885 
L 250.56 142.843994 
L 259.488 143.80935 
L 268.416 145.47009 
L 277.344 146.851667 
L 286.272 149.77568 
L 295.2 151.647123 
L 304.128 151.005452 
L 313.056 150.926885 
L 321.984 149.036222 
L 330.912 151.418214 
L 339.84 152.000113 
L 348.768 152.318179 
L 357.696 151.493132 
L 366.624 142.781187 
L 375.552 142.882838 
L 384.48 143.412946 
L 393.408 137.757805 
L 402.336 133.612629 
L 411.264 125.897431 
L 420.192 124.728366 
L 429.12 117.257901 
L 438.048 111.26152 
L 446.976 110.914425 
L 455.904 112.223256 
L 464.832 110.946879 
L 473.76 112.212956 
L 482.688 111.187382 
L 491.616 108.379539 
L 500.544 109.615235 
L 509.472 111.185207 
L 518.4 111.440931 
" style="fill:none;stroke:#d62728;stroke-linecap:square;stroke-width:1.5;"/>
   </g>
   <g id="line2d_33">
    <path clip-path="url(#p57df6b3745)" d="M 72 126.233533 
L 80.928 128.019866 
L 89.856 133.636888 
L 98.784 128.608421 
L 107.712 136.404966 
L 116.64 140.99716 
L 125.568 133.577043 
L 134.496 120.443618 
L 143.424 121.425831 
L 152.352 126.123465 
L 161.28 137.629903 
L 170.208 146.119308 
L 179.136 141.132609 
L 188.064 143.184068 
L 196.992 141.557055 
L 205.92 135.613099 
L 214.848 133.251821 
L 223.776 116.238077 
L 232.704 102.554519 
L 241.632 92.753024 
L 250.56 100.19787 
L 259.488 99.11102 
L 268.416 97.874177 
L 277.344 92.683799 
L 286.272 96.114402 
L 295.2 94.330598 
L 304.128 92.53491 
L 313.056 92.73617 
L 321.984 94.20431 
L 330.912 95.926335 
L 339.84 97.402319 
L 348.768 95.822343 
L 357.696 94.40545 
L 366.624 92.941679 
L 375.552 97.288098 
L 384.48 94.967483 
L 393.408 98.344881 
L 402.336 98.138495 
L 411.264 101.416396 
L 420.192 100.653063 
L 429.12 99.000817 
L 438.048 104.179721 
L 446.976 98.973029 
L 455.904 101.042921 
L 464.832 95.252974 
L 473.76 96.592504 
L 482.688 94.863568 
L 491.616 93.345423 
L 500.544 93.473931 
L 509.472 88.767091 
L 518.4 87.269565 
" style="fill:none;stroke:#9467bd;stroke-linecap:square;stroke-width:1.5;"/>
   </g>
   <g id="line2d_34">
    <path clip-path="url(#p57df6b3745)" d="M 72 125.8906 
L 80.928 128.181303 
L 89.856 130.240848 
L 98.784 128.245698 
L 107.712 137.09934 
L 116.64 144.625098 
L 125.568 139.556064 
L 134.496 133.952097 
L 143.424 135.512039 
L 152.352 138.835976 
L 161.28 143.347743 
L 170.208 147.768877 
L 179.136 153.0328 
L 188.064 152.37862 
L 196.992 152.28133 
L 205.92 143.2685 
L 214.848 138.796819 
L 223.776 141.015816 
L 232.704 142.916255 
L 241.632 144.963336 
L 250.56 146.016537 
L 259.488 147.819299 
L 268.416 149.895588 
L 277.344 152.636088 
L 286.272 155.483101 
L 295.2 157.693851 
L 304.128 158.244602 
L 313.056 157.091897 
L 321.984 158.619747 
L 330.912 158.035807 
L 339.84 157.543071 
L 348.768 157.847306 
L 357.696 154.05949 
L 366.624 151.679733 
L 375.552 148.955096 
L 384.48 149.476927 
L 393.408 150.145689 
L 402.336 150.245755 
L 411.264 151.423213 
L 420.192 152.868078 
L 429.12 152.367725 
L 438.048 153.363986 
L 446.976 154.107704 
L 455.904 153.493849 
L 464.832 153.941887 
L 473.76 155.140125 
L 482.688 155.268922 
L 491.616 156.58644 
L 500.544 157.933794 
L 509.472 159.307583 
L 518.4 160.629939 
" style="fill:none;stroke:#8c564b;stroke-linecap:square;stroke-width:1.5;"/>
   </g>
   <g id="line2d_35">
    <path clip-path="url(#p57df6b3745)" d="M 72 233.416464 
L 80.928 231.180777 
L 89.856 226.277089 
L 98.784 237.099605 
L 98.85804 433 
M 116.562701 433 
L 116.64 228.401056 
L 125.568 218.281331 
L 134.496 222.408153 
L 143.424 218.813156 
L 152.352 225.540833 
L 152.430371 433 
M 179.052357 433 
L 179.136 211.452465 
L 179.219643 433 
M 232.622942 433 
L 232.704 218.362583 
L 232.785058 433 
M 250.476647 433 
L 250.56 212.226905 
L 250.643353 433 
M 268.332276 433 
L 268.416 211.236046 
L 268.499724 433 
M 295.112764 433 
L 295.2 201.842288 
L 295.287236 433 
M 429.032445 433 
L 429.12 200.98644 
L 429.207555 433 
M 446.888666 433 
L 446.976 201.578035 
L 447.063334 433 
" style="fill:none;stroke:#e377c2;stroke-linecap:square;stroke-width:1.5;"/>
   </g>
   <g id="patch_3">
    <path d="M 72 384.48 
L 72 51.84 
" style="fill:none;stroke:#000000;stroke-linecap:square;stroke-linejoin:miter;stroke-width:0.8;"/>
   </g>
   <g id="patch_4">
    <path d="M 518.4 384.48 
L 518.4 51.84 
" style="fill:none;stroke:#000000;stroke-linecap:square;stroke-linejoin:miter;stroke-width:0.8;"/>
   </g>
   <g id="patch_5">
    <path d="M 72 384.48 
L 518.4 384.48 
" style="fill:none;stroke:#000000;stroke-linecap:square;stroke-linejoin:miter;stroke-width:0.8;"/>
   </g>
   <g id="patch_6">
    <path d="M 72 51.84 
L 518.4 51.84 
" style="fill:none;stroke:#000000;stroke-linecap:square;stroke-linejoin:miter;stroke-width:0.8;"/>
   </g>
   <g id="legend_1">
    <g id="patch_7">
     <path d="M 79 379.48 
L 165.804688 379.48 
Q 167.804688 379.48 167.804688 377.48 
L 167.804688 275.733125 
Q 167.804688 273.733125 165.804688 273.733125 
L 79 273.733125 
Q 77 273.733125 77 275.733125 
L 77 377.48 
Q 77 379.48 79 379.48 
z
" style="fill:#ffffff;opacity:0.8;stroke:#cccccc;stroke-linejoin:miter;"/>
    </g>
    <g id="line2d_36">
     <path d="M 81 281.831563 
L 101 281.831563 
" style="fill:none;stroke:#1f77b4;stroke-linecap:square;stroke-width:1.5;"/>
    </g>
    <g id="line2d_37"/>
    <g id="text_17">
     <!-- Constant -->
     <defs>
      <path d="M 64.40625 67.28125 
L 64.40625 56.890625 
Q 59.421875 61.53125 53.78125 63.8125 
Q 48.140625 66.109375 41.796875 66.109375 
Q 29.296875 66.109375 22.65625 58.46875 
Q 16.015625 50.828125 16.015625 36.375 
Q 16.015625 21.96875 22.65625 14.328125 
Q 29.296875 6.6875 41.796875 6.6875 
Q 48.140625 6.6875 53.78125 8.984375 
Q 59.421875 11.28125 64.40625 15.921875 
L 64.40625 5.609375 
Q 59.234375 2.09375 53.4375 0.328125 
Q 47.65625 -1.421875 41.21875 -1.421875 
Q 24.65625 -1.421875 15.125 8.703125 
Q 5.609375 18.84375 5.609375 36.375 
Q 5.609375 53.953125 15.125 64.078125 
Q 24.65625 74.21875 41.21875 74.21875 
Q 47.75 74.21875 53.53125 72.484375 
Q 59.328125 70.75 64.40625 67.28125 
z
" id="DejaVuSans-67"/>
      <path d="M 44.28125 53.078125 
L 44.28125 44.578125 
Q 40.484375 46.53125 36.375 47.5 
Q 32.28125 48.484375 27.875 48.484375 
Q 21.1875 48.484375 17.84375 46.4375 
Q 14.5 44.390625 14.5 40.28125 
Q 14.5 37.15625 16.890625 35.375 
Q 19.28125 33.59375 26.515625 31.984375 
L 29.59375 31.296875 
Q 39.15625 29.25 43.1875 25.515625 
Q 47.21875 21.78125 47.21875 15.09375 
Q 47.21875 7.46875 41.1875 3.015625 
Q 35.15625 -1.421875 24.609375 -1.421875 
Q 20.21875 -1.421875 15.453125 -0.5625 
Q 10.6875 0.296875 5.421875 2 
L 5.421875 11.28125 
Q 10.40625 8.6875 15.234375 7.390625 
Q 20.0625 6.109375 24.8125 6.109375 
Q 31.15625 6.109375 34.5625 8.28125 
Q 37.984375 10.453125 37.984375 14.40625 
Q 37.984375 18.0625 35.515625 20.015625 
Q 33.0625 21.96875 24.703125 23.78125 
L 21.578125 24.515625 
Q 13.234375 26.265625 9.515625 29.90625 
Q 5.8125 33.546875 5.8125 39.890625 
Q 5.8125 47.609375 11.28125 51.796875 
Q 16.75 56 26.8125 56 
Q 31.78125 56 36.171875 55.265625 
Q 40.578125 54.546875 44.28125 53.078125 
z
" id="DejaVuSans-115"/>
     </defs>
     <g transform="translate(109 285.331563)scale(0.1 -0.1)">
      <use xlink:href="#DejaVuSans-67"/>
      <use x="69.824219" xlink:href="#DejaVuSans-111"/>
      <use x="131.005859" xlink:href="#DejaVuSans-110"/>
      <use x="194.384766" xlink:href="#DejaVuSans-115"/>
      <use x="246.484375" xlink:href="#DejaVuSans-116"/>
      <use x="285.693359" xlink:href="#DejaVuSans-97"/>
      <use x="346.972656" xlink:href="#DejaVuSans-110"/>
      <use x="410.351562" xlink:href="#DejaVuSans-116"/>
     </g>
    </g>
    <g id="line2d_38">
     <path d="M 81 296.509688 
L 101 296.509688 
" style="fill:none;stroke:#ff7f0e;stroke-linecap:square;stroke-width:1.5;"/>
    </g>
    <g id="line2d_39"/>
    <g id="text_18">
     <!-- RBF -->
     <defs>
      <path d="M 44.390625 34.1875 
Q 47.5625 33.109375 50.5625 29.59375 
Q 53.5625 26.078125 56.59375 19.921875 
L 66.609375 0 
L 56 0 
L 46.6875 18.703125 
Q 43.0625 26.03125 39.671875 28.421875 
Q 36.28125 30.8125 30.421875 30.8125 
L 19.671875 30.8125 
L 19.671875 0 
L 9.8125 0 
L 9.8125 72.90625 
L 32.078125 72.90625 
Q 44.578125 72.90625 50.734375 67.671875 
Q 56.890625 62.453125 56.890625 51.90625 
Q 56.890625 45.015625 53.6875 40.46875 
Q 50.484375 35.9375 44.390625 34.1875 
z
M 19.671875 64.796875 
L 19.671875 38.921875 
L 32.078125 38.921875 
Q 39.203125 38.921875 42.84375 42.21875 
Q 46.484375 45.515625 46.484375 51.90625 
Q 46.484375 58.296875 42.84375 61.546875 
Q 39.203125 64.796875 32.078125 64.796875 
z
" id="DejaVuSans-82"/>
      <path d="M 19.671875 34.8125 
L 19.671875 8.109375 
L 35.5 8.109375 
Q 43.453125 8.109375 47.28125 11.40625 
Q 51.125 14.703125 51.125 21.484375 
Q 51.125 28.328125 47.28125 31.5625 
Q 43.453125 34.8125 35.5 34.8125 
z
M 19.671875 64.796875 
L 19.671875 42.828125 
L 34.28125 42.828125 
Q 41.5 42.828125 45.03125 45.53125 
Q 48.578125 48.25 48.578125 53.8125 
Q 48.578125 59.328125 45.03125 62.0625 
Q 41.5 64.796875 34.28125 64.796875 
z
M 9.8125 72.90625 
L 35.015625 72.90625 
Q 46.296875 72.90625 52.390625 68.21875 
Q 58.5 63.53125 58.5 54.890625 
Q 58.5 48.1875 55.375 44.234375 
Q 52.25 40.28125 46.1875 39.3125 
Q 53.46875 37.75 57.5 32.78125 
Q 61.53125 27.828125 61.53125 20.40625 
Q 61.53125 10.640625 54.890625 5.3125 
Q 48.25 0 35.984375 0 
L 9.8125 0 
z
" id="DejaVuSans-66"/>
      <path d="M 9.8125 72.90625 
L 51.703125 72.90625 
L 51.703125 64.59375 
L 19.671875 64.59375 
L 19.671875 43.109375 
L 48.578125 43.109375 
L 48.578125 34.8125 
L 19.671875 34.8125 
L 19.671875 0 
L 9.8125 0 
z
" id="DejaVuSans-70"/>
     </defs>
     <g transform="translate(109 300.009688)scale(0.1 -0.1)">
      <use xlink:href="#DejaVuSans-82"/>
      <use x="69.482422" xlink:href="#DejaVuSans-66"/>
      <use x="138.085938" xlink:href="#DejaVuSans-70"/>
     </g>
    </g>
    <g id="line2d_40">
     <path d="M 81 311.187813 
L 101 311.187813 
" style="fill:none;stroke:#2ca02c;stroke-linecap:square;stroke-width:1.5;"/>
    </g>
    <g id="line2d_41"/>
    <g id="text_19">
     <!-- Matrn-1/2 -->
     <defs>
      <path d="M 9.8125 72.90625 
L 24.515625 72.90625 
L 43.109375 23.296875 
L 61.8125 72.90625 
L 76.515625 72.90625 
L 76.515625 0 
L 66.890625 0 
L 66.890625 64.015625 
L 48.09375 14.015625 
L 38.1875 14.015625 
L 19.390625 64.015625 
L 19.390625 0 
L 9.8125 0 
z
" id="DejaVuSans-77"/>
      <path d="M 56.203125 29.59375 
L 56.203125 25.203125 
L 14.890625 25.203125 
Q 15.484375 15.921875 20.484375 11.0625 
Q 25.484375 6.203125 34.421875 6.203125 
Q 39.59375 6.203125 44.453125 7.46875 
Q 49.3125 8.734375 54.109375 11.28125 
L 54.109375 2.78125 
Q 49.265625 0.734375 44.1875 -0.34375 
Q 39.109375 -1.421875 33.890625 -1.421875 
Q 20.796875 -1.421875 13.15625 6.1875 
Q 5.515625 13.8125 5.515625 26.8125 
Q 5.515625 40.234375 12.765625 48.109375 
Q 20.015625 56 32.328125 56 
Q 43.359375 56 49.78125 48.890625 
Q 56.203125 41.796875 56.203125 29.59375 
z
M 47.21875 32.234375 
Q 47.125 39.59375 43.09375 43.984375 
Q 39.0625 48.390625 32.421875 48.390625 
Q 24.90625 48.390625 20.390625 44.140625 
Q 15.875 39.890625 15.1875 32.171875 
z
M 38.53125 79.984375 
L 48.25 79.984375 
L 32.34375 61.625 
L 24.859375 61.625 
z
" id="DejaVuSans-233"/>
      <path d="M 4.890625 31.390625 
L 31.203125 31.390625 
L 31.203125 23.390625 
L 4.890625 23.390625 
z
" id="DejaVuSans-45"/>
      <path d="M 25.390625 72.90625 
L 33.6875 72.90625 
L 8.296875 -9.28125 
L 0 -9.28125 
z
" id="DejaVuSans-47"/>
     </defs>
     <g transform="translate(109 314.687813)scale(0.1 -0.1)">
      <use xlink:href="#DejaVuSans-77"/>
      <use x="86.279297" xlink:href="#DejaVuSans-97"/>
      <use x="147.558594" xlink:href="#DejaVuSans-116"/>
      <use x="186.767578" xlink:href="#DejaVuSans-233"/>
      <use x="248.291016" xlink:href="#DejaVuSans-114"/>
      <use x="287.654297" xlink:href="#DejaVuSans-110"/>
      <use x="351.033203" xlink:href="#DejaVuSans-45"/>
      <use x="387.117188" xlink:href="#DejaVuSans-49"/>
      <use x="450.740234" xlink:href="#DejaVuSans-47"/>
      <use x="484.431641" xlink:href="#DejaVuSans-50"/>
     </g>
    </g>
    <g id="line2d_42">
     <path d="M 81 325.865938 
L 101 325.865938 
" style="fill:none;stroke:#d62728;stroke-linecap:square;stroke-width:1.5;"/>
    </g>
    <g id="line2d_43"/>
    <g id="text_20">
     <!-- Matrn-3/2 -->
     <g transform="translate(109 329.365938)scale(0.1 -0.1)">
      <use xlink:href="#DejaVuSans-77"/>
      <use x="86.279297" xlink:href="#DejaVuSans-97"/>
      <use x="147.558594" xlink:href="#DejaVuSans-116"/>
      <use x="186.767578" xlink:href="#DejaVuSans-233"/>
      <use x="248.291016" xlink:href="#DejaVuSans-114"/>
      <use x="287.654297" xlink:href="#DejaVuSans-110"/>
      <use x="351.033203" xlink:href="#DejaVuSans-45"/>
      <use x="387.117188" xlink:href="#DejaVuSans-51"/>
      <use x="450.740234" xlink:href="#DejaVuSans-47"/>
      <use x="484.431641" xlink:href="#DejaVuSans-50"/>
     </g>
    </g>
    <g id="line2d_44">
     <path d="M 81 340.544062 
L 101 340.544062 
" style="fill:none;stroke:#9467bd;stroke-linecap:square;stroke-width:1.5;"/>
    </g>
    <g id="line2d_45"/>
    <g id="text_21">
     <!-- Matrn-5/2 -->
     <g transform="translate(109 344.044062)scale(0.1 -0.1)">
      <use xlink:href="#DejaVuSans-77"/>
      <use x="86.279297" xlink:href="#DejaVuSans-97"/>
      <use x="147.558594" xlink:href="#DejaVuSans-116"/>
      <use x="186.767578" xlink:href="#DejaVuSans-233"/>
      <use x="248.291016" xlink:href="#DejaVuSans-114"/>
      <use x="287.654297" xlink:href="#DejaVuSans-110"/>
      <use x="351.033203" xlink:href="#DejaVuSans-45"/>
      <use x="387.117188" xlink:href="#DejaVuSans-53"/>
      <use x="450.740234" xlink:href="#DejaVuSans-47"/>
      <use x="484.431641" xlink:href="#DejaVuSans-50"/>
     </g>
    </g>
    <g id="line2d_46">
     <path d="M 81 355.222188 
L 101 355.222188 
" style="fill:none;stroke:#8c564b;stroke-linecap:square;stroke-width:1.5;"/>
    </g>
    <g id="line2d_47"/>
    <g id="text_22">
     <!-- RQ -->
     <defs>
      <path d="M 39.40625 66.21875 
Q 28.65625 66.21875 22.328125 58.203125 
Q 16.015625 50.203125 16.015625 36.375 
Q 16.015625 22.609375 22.328125 14.59375 
Q 28.65625 6.59375 39.40625 6.59375 
Q 50.140625 6.59375 56.421875 14.59375 
Q 62.703125 22.609375 62.703125 36.375 
Q 62.703125 50.203125 56.421875 58.203125 
Q 50.140625 66.21875 39.40625 66.21875 
z
M 53.21875 1.3125 
L 66.21875 -12.890625 
L 54.296875 -12.890625 
L 43.5 -1.21875 
Q 41.890625 -1.3125 41.03125 -1.359375 
Q 40.1875 -1.421875 39.40625 -1.421875 
Q 24.03125 -1.421875 14.8125 8.859375 
Q 5.609375 19.140625 5.609375 36.375 
Q 5.609375 53.65625 14.8125 63.9375 
Q 24.03125 74.21875 39.40625 74.21875 
Q 54.734375 74.21875 63.90625 63.9375 
Q 73.09375 53.65625 73.09375 36.375 
Q 73.09375 23.6875 67.984375 14.640625 
Q 62.890625 5.609375 53.21875 1.3125 
z
" id="DejaVuSans-81"/>
     </defs>
     <g transform="translate(109 358.722188)scale(0.1 -0.1)">
      <use xlink:href="#DejaVuSans-82"/>
      <use x="69.482422" xlink:href="#DejaVuSans-81"/>
     </g>
    </g>
    <g id="line2d_48">
     <path d="M 81 369.900313 
L 101 369.900313 
" style="fill:none;stroke:#e377c2;stroke-linecap:square;stroke-width:1.5;"/>
    </g>
    <g id="line2d_49"/>
    <g id="text_23">
     <!-- Dot Prod. -->
     <defs>
      <path d="M 19.671875 64.796875 
L 19.671875 8.109375 
L 31.59375 8.109375 
Q 46.6875 8.109375 53.6875 14.9375 
Q 60.6875 21.78125 60.6875 36.53125 
Q 60.6875 51.171875 53.6875 57.984375 
Q 46.6875 64.796875 31.59375 64.796875 
z
M 9.8125 72.90625 
L 30.078125 72.90625 
Q 51.265625 72.90625 61.171875 64.09375 
Q 71.09375 55.28125 71.09375 36.53125 
Q 71.09375 17.671875 61.125 8.828125 
Q 51.171875 0 30.078125 0 
L 9.8125 0 
z
" id="DejaVuSans-68"/>
      <path d="M 19.671875 64.796875 
L 19.671875 37.40625 
L 32.078125 37.40625 
Q 38.96875 37.40625 42.71875 40.96875 
Q 46.484375 44.53125 46.484375 51.125 
Q 46.484375 57.671875 42.71875 61.234375 
Q 38.96875 64.796875 32.078125 64.796875 
z
M 9.8125 72.90625 
L 32.078125 72.90625 
Q 44.34375 72.90625 50.609375 67.359375 
Q 56.890625 61.8125 56.890625 51.125 
Q 56.890625 40.328125 50.609375 34.8125 
Q 44.34375 29.296875 32.078125 29.296875 
L 19.671875 29.296875 
L 19.671875 0 
L 9.8125 0 
z
" id="DejaVuSans-80"/>
      <path d="M 10.6875 12.40625 
L 21 12.40625 
L 21 0 
L 10.6875 0 
z
" id="DejaVuSans-46"/>
     </defs>
     <g transform="translate(109 373.400313)scale(0.1 -0.1)">
      <use xlink:href="#DejaVuSans-68"/>
      <use x="77.001953" xlink:href="#DejaVuSans-111"/>
      <use x="138.183594" xlink:href="#DejaVuSans-116"/>
      <use x="177.392578" xlink:href="#DejaVuSans-32"/>
      <use x="209.179688" xlink:href="#DejaVuSans-80"/>
      <use x="267.732422" xlink:href="#DejaVuSans-114"/>
      <use x="306.595703" xlink:href="#DejaVuSans-111"/>
      <use x="367.777344" xlink:href="#DejaVuSans-100"/>
      <use x="431.253906" xlink:href="#DejaVuSans-46"/>
     </g>
    </g>
   </g>
  </g>
 </g>
 <defs>
  <clipPath id="p57df6b3745">
   <rect height="332.64" width="446.4" x="72" y="51.84"/>
  </clipPath>
 </defs>
</svg>
